<?xml version="1.0" encoding="UTF-8" standalone="no"?>
<!-- Created with Inkscape (http://www.inkscape.org/) -->

<svg
   xmlns:dc="http://purl.org/dc/elements/1.1/"
   xmlns:cc="http://creativecommons.org/ns#"
   xmlns:rdf="http://www.w3.org/1999/02/22-rdf-syntax-ns#"
   xmlns:svg="http://www.w3.org/2000/svg"
   xmlns="http://www.w3.org/2000/svg"
   xmlns:sodipodi="http://sodipodi.sourceforge.net/DTD/sodipodi-0.dtd"
   xmlns:inkscape="http://www.inkscape.org/namespaces/inkscape"
   width="797.24408"
   height="1062.9921"
   id="svg2"
   version="1.1"
   inkscape:version="0.48.4 r9939"
   inkscape:export-filename="/home/ludi/wrk/osp.work.balsamine.2014-2015/layouts/page13-chant-test.png"
   inkscape:export-xdpi="72"
   inkscape:export-ydpi="72"
   sodipodi:docname="fond-chant-V-pict.svg"
   enable-background="new">
  <defs
     id="defs4">
    <clipPath
       id="clipPath8422"
       clipPathUnits="userSpaceOnUse">
      <path
         id="path8424"
         d="m 0,6.7524 706,0 0,910.8228 -706,0 L 0,6.7524 z" />
    </clipPath>
    <clipPath
       id="clipPath8416"
       clipPathUnits="userSpaceOnUse">
      <path
         id="path8418"
         d="m 0,0 706,0 0,917.5752 -706,0 L 0,0 z" />
    </clipPath>
    <clipPath
       id="clipPath8406"
       clipPathUnits="userSpaceOnUse">
      <path
         id="path8408"
         d="m 415.6472,69.7749 457.662,0 0,170.3101 -457.662,0 0,-170.3101 z" />
    </clipPath>
    <clipPath
       id="clipPath8400"
       clipPathUnits="userSpaceOnUse">
      <path
         id="path8402"
         d="m 0,6.7524 706,0 0,910.8228 -706,0 L 0,6.7524 z" />
    </clipPath>
    <clipPath
       id="clipPath8394"
       clipPathUnits="userSpaceOnUse">
      <path
         id="path8396"
         d="m 0,0 706,0 0,917.5752 -706,0 L 0,0 z" />
    </clipPath>
    <clipPath
       id="clipPath8384"
       clipPathUnits="userSpaceOnUse">
      <path
         id="path8386"
         d="m 299.356,69.7749 457.6621,0 0,170.3101 -457.6621,0 0,-170.3101 z" />
    </clipPath>
    <clipPath
       id="clipPath8378"
       clipPathUnits="userSpaceOnUse">
      <path
         id="path8380"
         d="m 0,6.7524 706,0 0,910.8228 -706,0 L 0,6.7524 z" />
    </clipPath>
    <clipPath
       id="clipPath8372"
       clipPathUnits="userSpaceOnUse">
      <path
         id="path8374"
         d="m 0,0 706,0 0,917.5752 -706,0 L 0,0 z" />
    </clipPath>
    <clipPath
       id="clipPath8362"
       clipPathUnits="userSpaceOnUse">
      <path
         id="path8364"
         d="m 183.0648,69.0244 457.662,0 0,170.3105 -457.662,0 0,-170.3105 z" />
    </clipPath>
    <clipPath
       id="clipPath8356"
       clipPathUnits="userSpaceOnUse">
      <path
         id="path8358"
         d="m 0,6.7524 706,0 0,910.8228 -706,0 L 0,6.7524 z" />
    </clipPath>
    <clipPath
       id="clipPath8350"
       clipPathUnits="userSpaceOnUse">
      <path
         id="path8352"
         d="m 0,0 706,0 0,917.5752 -706,0 L 0,0 z" />
    </clipPath>
    <clipPath
       id="clipPath8340"
       clipPathUnits="userSpaceOnUse">
      <path
         id="path8342"
         d="m 60.7715,69.0244 457.6621,0 0,170.3105 -457.6621,0 0,-170.3105 z" />
    </clipPath>
    <clipPath
       id="clipPath8334"
       clipPathUnits="userSpaceOnUse">
      <path
         id="path8336"
         d="m 0,6.7524 706,0 0,910.8228 -706,0 L 0,6.7524 z" />
    </clipPath>
    <clipPath
       id="clipPath8328"
       clipPathUnits="userSpaceOnUse">
      <path
         id="path8330"
         d="m 0,0 706,0 0,917.5752 -706,0 L 0,0 z" />
    </clipPath>
    <clipPath
       id="clipPath3148"
       clipPathUnits="userSpaceOnUse">
      <path
         id="path3150"
         d="m 60.7715,267.8452 384.136,0 0,552.9458 -384.136,0 0,-552.9458 z" />
    </clipPath>
    <clipPath
       id="clipPath3142"
       clipPathUnits="userSpaceOnUse">
      <path
         id="path3144"
         d="m 0,6.7524 706,0 0,910.8228 -706,0 L 0,6.7524 z" />
    </clipPath>
    <clipPath
       id="clipPath3136"
       clipPathUnits="userSpaceOnUse">
      <path
         id="path3138"
         d="m 0,0 706,0 0,917.5752 -706,0 L 0,0 z" />
    </clipPath>
    <clipPath
       id="clipPath3110"
       clipPathUnits="userSpaceOnUse">
      <path
         id="path3112"
         d="m 0,6.7524 706,0 0,910.8228 -706,0 L 0,6.7524 z" />
    </clipPath>
    <clipPath
       id="clipPath3104"
       clipPathUnits="userSpaceOnUse">
      <path
         id="path3106"
         d="m 0,0 706,0 0,917.5752 -706,0 L 0,0 z" />
    </clipPath>
    <clipPath
       id="clipPath3090"
       clipPathUnits="userSpaceOnUse">
      <path
         id="path3092"
         d="m 0,0 706,0 0,6.7524 -706,0 L 0,0 z" />
    </clipPath>
    <clipPath
       id="clipPath3084"
       clipPathUnits="userSpaceOnUse">
      <path
         id="path3086"
         d="m 0,0 706,0 0,917.5752 -706,0 L 0,0 z" />
    </clipPath>
    <clipPath
       id="clipPath3072"
       clipPathUnits="userSpaceOnUse">
      <path
         id="path3074"
         d="m 0,0 706,0 0,917.5752 -706,0 L 0,0 z" />
    </clipPath>
    <clipPath
       id="clipPath16560"
       clipPathUnits="userSpaceOnUse">
      <path
         id="path16562"
         d="m 0,6.7524 706,0 0,910.8228 -706,0 L 0,6.7524 z" />
    </clipPath>
    <clipPath
       id="clipPath16554"
       clipPathUnits="userSpaceOnUse">
      <path
         id="path16556"
         d="m 0,0 706,0 0,917.5752 -706,0 L 0,0 z" />
    </clipPath>
    <clipPath
       id="clipPath16544"
       clipPathUnits="userSpaceOnUse">
      <path
         id="path16546"
         d="m 415.6472,69.7749 457.662,0 0,170.3101 -457.662,0 0,-170.3101 z" />
    </clipPath>
    <clipPath
       id="clipPath16538"
       clipPathUnits="userSpaceOnUse">
      <path
         id="path16540"
         d="m 0,6.7524 706,0 0,910.8228 -706,0 L 0,6.7524 z" />
    </clipPath>
    <clipPath
       id="clipPath16532"
       clipPathUnits="userSpaceOnUse">
      <path
         id="path16534"
         d="m 0,0 706,0 0,917.5752 -706,0 L 0,0 z" />
    </clipPath>
    <clipPath
       id="clipPath16522"
       clipPathUnits="userSpaceOnUse">
      <path
         id="path16524"
         d="m 299.356,69.7749 457.6621,0 0,170.3101 -457.6621,0 0,-170.3101 z" />
    </clipPath>
    <clipPath
       id="clipPath16516"
       clipPathUnits="userSpaceOnUse">
      <path
         id="path16518"
         d="m 0,6.7524 706,0 0,910.8228 -706,0 L 0,6.7524 z" />
    </clipPath>
    <clipPath
       id="clipPath16510"
       clipPathUnits="userSpaceOnUse">
      <path
         id="path16512"
         d="m 0,0 706,0 0,917.5752 -706,0 L 0,0 z" />
    </clipPath>
    <clipPath
       id="clipPath16500"
       clipPathUnits="userSpaceOnUse">
      <path
         id="path16502"
         d="m 183.0648,69.0244 457.662,0 0,170.3105 -457.662,0 0,-170.3105 z" />
    </clipPath>
    <clipPath
       id="clipPath16494"
       clipPathUnits="userSpaceOnUse">
      <path
         id="path16496"
         d="m 0,6.7524 706,0 0,910.8228 -706,0 L 0,6.7524 z" />
    </clipPath>
    <clipPath
       id="clipPath16488"
       clipPathUnits="userSpaceOnUse">
      <path
         id="path16490"
         d="m 0,0 706,0 0,917.5752 -706,0 L 0,0 z" />
    </clipPath>
    <clipPath
       id="clipPath16478"
       clipPathUnits="userSpaceOnUse">
      <path
         id="path16480"
         d="m 60.7715,69.0244 457.6621,0 0,170.3105 -457.6621,0 0,-170.3105 z" />
    </clipPath>
    <clipPath
       id="clipPath16472"
       clipPathUnits="userSpaceOnUse">
      <path
         id="path16474"
         d="m 0,6.7524 706,0 0,910.8228 -706,0 L 0,6.7524 z" />
    </clipPath>
    <clipPath
       id="clipPath16466"
       clipPathUnits="userSpaceOnUse">
      <path
         id="path16468"
         d="m 0,0 706,0 0,917.5752 -706,0 L 0,0 z" />
    </clipPath>
    <clipPath
       id="clipPath11286"
       clipPathUnits="userSpaceOnUse">
      <path
         id="path11288"
         d="m 60.7715,267.8452 384.136,0 0,552.9458 -384.136,0 0,-552.9458 z" />
    </clipPath>
    <clipPath
       id="clipPath11280"
       clipPathUnits="userSpaceOnUse">
      <path
         id="path11282"
         d="m 0,6.7524 706,0 0,910.8228 -706,0 L 0,6.7524 z" />
    </clipPath>
    <clipPath
       id="clipPath11274"
       clipPathUnits="userSpaceOnUse">
      <path
         id="path11276"
         d="m 0,0 706,0 0,917.5752 -706,0 L 0,0 z" />
    </clipPath>
    <clipPath
       id="clipPath11248"
       clipPathUnits="userSpaceOnUse">
      <path
         id="path11250"
         d="m 0,6.7524 706,0 0,910.8228 -706,0 L 0,6.7524 z" />
    </clipPath>
    <clipPath
       id="clipPath11242"
       clipPathUnits="userSpaceOnUse">
      <path
         id="path11244"
         d="m 0,0 706,0 0,917.5752 -706,0 L 0,0 z" />
    </clipPath>
    <clipPath
       id="clipPath11228"
       clipPathUnits="userSpaceOnUse">
      <path
         id="path11230"
         d="m 0,0 706,0 0,6.7524 -706,0 L 0,0 z" />
    </clipPath>
    <clipPath
       id="clipPath11222"
       clipPathUnits="userSpaceOnUse">
      <path
         id="path11224"
         d="m 0,0 706,0 0,917.5752 -706,0 L 0,0 z" />
    </clipPath>
    <clipPath
       id="clipPath11210"
       clipPathUnits="userSpaceOnUse">
      <path
         id="path11212"
         d="m 0,0 706,0 0,917.5752 -706,0 L 0,0 z" />
    </clipPath>
    <clipPath
       id="clipPath24698"
       clipPathUnits="userSpaceOnUse">
      <path
         id="path24700"
         d="m 0,6.7524 706,0 0,910.8228 -706,0 L 0,6.7524 z" />
    </clipPath>
    <clipPath
       id="clipPath24692"
       clipPathUnits="userSpaceOnUse">
      <path
         id="path24694"
         d="m 0,0 706,0 0,917.5752 -706,0 L 0,0 z" />
    </clipPath>
    <clipPath
       id="clipPath24682"
       clipPathUnits="userSpaceOnUse">
      <path
         id="path24684"
         d="m 415.6472,69.7749 457.662,0 0,170.3101 -457.662,0 0,-170.3101 z" />
    </clipPath>
    <clipPath
       id="clipPath24676"
       clipPathUnits="userSpaceOnUse">
      <path
         id="path24678"
         d="m 0,6.7524 706,0 0,910.8228 -706,0 L 0,6.7524 z" />
    </clipPath>
    <clipPath
       id="clipPath24670"
       clipPathUnits="userSpaceOnUse">
      <path
         id="path24672"
         d="m 0,0 706,0 0,917.5752 -706,0 L 0,0 z" />
    </clipPath>
    <clipPath
       id="clipPath24660"
       clipPathUnits="userSpaceOnUse">
      <path
         id="path24662"
         d="m 299.356,69.7749 457.6621,0 0,170.3101 -457.6621,0 0,-170.3101 z" />
    </clipPath>
    <clipPath
       id="clipPath24654"
       clipPathUnits="userSpaceOnUse">
      <path
         id="path24656"
         d="m 0,6.7524 706,0 0,910.8228 -706,0 L 0,6.7524 z" />
    </clipPath>
    <clipPath
       id="clipPath24648"
       clipPathUnits="userSpaceOnUse">
      <path
         id="path24650"
         d="m 0,0 706,0 0,917.5752 -706,0 L 0,0 z" />
    </clipPath>
    <clipPath
       id="clipPath24638"
       clipPathUnits="userSpaceOnUse">
      <path
         id="path24640"
         d="m 183.0648,69.0244 457.662,0 0,170.3105 -457.662,0 0,-170.3105 z" />
    </clipPath>
    <clipPath
       id="clipPath24632"
       clipPathUnits="userSpaceOnUse">
      <path
         id="path24634"
         d="m 0,6.7524 706,0 0,910.8228 -706,0 L 0,6.7524 z" />
    </clipPath>
    <clipPath
       id="clipPath24626"
       clipPathUnits="userSpaceOnUse">
      <path
         id="path24628"
         d="m 0,0 706,0 0,917.5752 -706,0 L 0,0 z" />
    </clipPath>
    <clipPath
       id="clipPath24616"
       clipPathUnits="userSpaceOnUse">
      <path
         id="path24618"
         d="m 60.7715,69.0244 457.6621,0 0,170.3105 -457.6621,0 0,-170.3105 z" />
    </clipPath>
    <clipPath
       id="clipPath24610"
       clipPathUnits="userSpaceOnUse">
      <path
         id="path24612"
         d="m 0,6.7524 706,0 0,910.8228 -706,0 L 0,6.7524 z" />
    </clipPath>
    <clipPath
       id="clipPath24604"
       clipPathUnits="userSpaceOnUse">
      <path
         id="path24606"
         d="m 0,0 706,0 0,917.5752 -706,0 L 0,0 z" />
    </clipPath>
    <clipPath
       id="clipPath19424"
       clipPathUnits="userSpaceOnUse">
      <path
         id="path19426"
         d="m 60.7715,267.8452 384.136,0 0,552.9458 -384.136,0 0,-552.9458 z" />
    </clipPath>
    <clipPath
       id="clipPath19418"
       clipPathUnits="userSpaceOnUse">
      <path
         id="path19420"
         d="m 0,6.7524 706,0 0,910.8228 -706,0 L 0,6.7524 z" />
    </clipPath>
    <clipPath
       id="clipPath19412"
       clipPathUnits="userSpaceOnUse">
      <path
         id="path19414"
         d="m 0,0 706,0 0,917.5752 -706,0 L 0,0 z" />
    </clipPath>
    <clipPath
       id="clipPath19386"
       clipPathUnits="userSpaceOnUse">
      <path
         id="path19388"
         d="m 0,6.7524 706,0 0,910.8228 -706,0 L 0,6.7524 z" />
    </clipPath>
    <clipPath
       id="clipPath19380"
       clipPathUnits="userSpaceOnUse">
      <path
         id="path19382"
         d="m 0,0 706,0 0,917.5752 -706,0 L 0,0 z" />
    </clipPath>
    <clipPath
       id="clipPath19366"
       clipPathUnits="userSpaceOnUse">
      <path
         id="path19368"
         d="m 0,0 706,0 0,6.7524 -706,0 L 0,0 z" />
    </clipPath>
    <clipPath
       id="clipPath19360"
       clipPathUnits="userSpaceOnUse">
      <path
         id="path19362"
         d="m 0,0 706,0 0,917.5752 -706,0 L 0,0 z" />
    </clipPath>
    <clipPath
       id="clipPath19348"
       clipPathUnits="userSpaceOnUse">
      <path
         id="path19350"
         d="m 0,0 706,0 0,917.5752 -706,0 L 0,0 z" />
    </clipPath>
    <clipPath
       id="clipPath37346"
       clipPathUnits="userSpaceOnUse">
      <path
         id="path37348"
         d="m 0,0 706,0 0,917.5749 -706,0 L 0,0 z" />
    </clipPath>
    <clipPath
       id="clipPath37336"
       clipPathUnits="userSpaceOnUse">
      <path
         id="path37338"
         d="m 531.9384,62.272 457.662,0 0,170.3103 -457.662,0 0,-170.3103 z" />
    </clipPath>
    <clipPath
       id="clipPath37330"
       clipPathUnits="userSpaceOnUse">
      <path
         id="path37332"
         d="m 0,0 706,0 0,917.5749 -706,0 L 0,0 z" />
    </clipPath>
    <clipPath
       id="clipPath37320"
       clipPathUnits="userSpaceOnUse">
      <path
         id="path37322"
         d="m 415.6472,62.272 457.662,0 0,170.3103 -457.662,0 0,-170.3103 z" />
    </clipPath>
    <clipPath
       id="clipPath37314"
       clipPathUnits="userSpaceOnUse">
      <path
         id="path37316"
         d="m 0,0 706,0 0,917.5749 -706,0 L 0,0 z" />
    </clipPath>
    <clipPath
       id="clipPath36536"
       clipPathUnits="userSpaceOnUse">
      <path
         id="path36538"
         d="m 299.356,63.0223 457.6621,0 0,169.56 -457.6621,0 0,-169.56 z" />
    </clipPath>
    <clipPath
       id="clipPath36530"
       clipPathUnits="userSpaceOnUse">
      <path
         id="path36532"
         d="m 0,0 706,0 0,917.5749 -706,0 L 0,0 z" />
    </clipPath>
    <clipPath
       id="clipPath34680"
       clipPathUnits="userSpaceOnUse">
      <path
         id="path34682"
         d="m 183.0648,62.272 457.662,0 0,170.3103 -457.662,0 0,-170.3103 z" />
    </clipPath>
    <clipPath
       id="clipPath34674"
       clipPathUnits="userSpaceOnUse">
      <path
         id="path34676"
         d="m 0,0 706,0 0,917.5749 -706,0 L 0,0 z" />
    </clipPath>
    <clipPath
       id="clipPath27520"
       clipPathUnits="userSpaceOnUse">
      <path
         id="path27522"
         d="m 60.7715,258.8416 384.136,0 0,555.1967 -384.136,0 0,-555.1967 z" />
    </clipPath>
    <clipPath
       id="clipPath27514"
       clipPathUnits="userSpaceOnUse">
      <path
         id="path27516"
         d="m 0,0 706,0 0,917.5749 -706,0 L 0,0 z" />
    </clipPath>
    <clipPath
       id="clipPath27486"
       clipPathUnits="userSpaceOnUse">
      <path
         id="path27488"
         d="m 0,0 706,0 0,917.5749 -706,0 L 0,0 z" />
    </clipPath>
    <clipPath
       clipPathUnits="userSpaceOnUse"
       id="clipPath42579">
      <rect
         y="314.78836"
         x="-1567.7567"
         height="364.00876"
         width="1202.0815"
         id="rect42581"
         style="fill:#011234;fill-opacity:1;stroke:none" />
    </clipPath>
    <clipPath
       clipPathUnits="userSpaceOnUse"
       id="clipPath42589">
      <rect
         style="fill:#011234;fill-opacity:1;stroke:none"
         id="rect42591"
         width="1202.0815"
         height="228.29446"
         x="-1543.4709"
         y="316.21671" />
    </clipPath>
    <clipPath
       clipPathUnits="userSpaceOnUse"
       id="clipPath42685">
      <rect
         y="-53.352135"
         x="428.57144"
         height="1151.4286"
         width="375.71429"
         id="rect42687"
         style="fill:#c5c6c3;fill-opacity:0.91091273;stroke:none"
         transform="matrix(0,1,-1,0,0,0)" />
    </clipPath>
    <clipPath
       clipPathUnits="userSpaceOnUse"
       id="clipPath42703">
      <rect
         transform="matrix(0,1,-1,0,0,0)"
         style="fill:#c5c6c3;fill-opacity:0.91091273;stroke:none"
         id="rect42705"
         width="121.15585"
         height="1151.4286"
         x="983.53497"
         y="-1110.2081" />
    </clipPath>
    <clipPath
       clipPathUnits="userSpaceOnUse"
       id="clipPath42711">
      <rect
         y="-1110.2081"
         x="1067.535"
         height="1151.4286"
         width="121.15585"
         id="rect42713"
         style="fill:#c5c6c3;fill-opacity:0.91091273;stroke:none"
         transform="matrix(0,1,-1,0,0,0)" />
    </clipPath>
    <clipPath
       clipPathUnits="userSpaceOnUse"
       id="clipPath42719">
      <rect
         transform="matrix(0,1,-1,0,0,0)"
         style="fill:#c5c6c3;fill-opacity:0.91091273;stroke:none"
         id="rect42721"
         width="274.013"
         height="1151.4286"
         x="983.24933"
         y="-1110.2081" />
    </clipPath>
    <clipPath
       clipPathUnits="userSpaceOnUse"
       id="clipPath96223">
      <rect
         style="fill:#c5c6c3;fill-opacity:0.91091273;stroke:none"
         id="rect96225"
         width="500.26675"
         height="1351.4286"
         x="428.30469"
         y="106.64787"
         transform="matrix(0,1,1,0,0,0)" />
    </clipPath>
    <clipPath
       clipPathUnits="userSpaceOnUse"
       id="clipPath96231">
      <rect
         style="fill:#c5c6c3;fill-opacity:0.91091273;stroke:none"
         id="rect96233"
         width="1088.5714"
         height="157.6577"
         x="-142.85715"
         y="892.36212" />
    </clipPath>
    <filter
       inkscape:collect="always"
       id="filter3274">
      <feBlend
         inkscape:collect="always"
         mode="multiply"
         in2="BackgroundImage"
         id="feBlend3276" />
    </filter>
    <clipPath
       clipPathUnits="userSpaceOnUse"
       id="clipPath3294">
      <rect
         style="fill:#c5c6c3;fill-opacity:0.91091273;stroke:none"
         id="rect3296"
         width="58.838196"
         height="709.5293"
         x="-413.29807"
         y="271.97754"
         transform="matrix(0,1,-1,0,0,0)" />
    </clipPath>
    <clipPath
       clipPathUnits="userSpaceOnUse"
       id="clipPath3314">
      <rect
         style="fill:#c5c6c3;fill-opacity:0.91091273;stroke:none"
         id="rect3316"
         width="43.622471"
         height="492.52277"
         x="-323.5437"
         y="-772.44092"
         transform="matrix(0,1,-1,0,0,0)" />
    </clipPath>
    <clipPath
       clipPathUnits="userSpaceOnUse"
       id="clipPath3319">
      <rect
         style="fill:#c5c6c3;fill-opacity:0.91091273;stroke:none"
         id="rect3321"
         width="134.07886"
         height="843.10327"
         x="900.56677"
         y="-70.662369"
         transform="matrix(0,1,-1,0,0,0)" />
    </clipPath>
    <clipPath
       clipPathUnits="userSpaceOnUse"
       id="clipPath3324">
      <rect
         y="254.11366"
         x="732.40253"
         height="773.44531"
         width="40.038464"
         id="rect3326"
         style="fill:#c5c6c3;fill-opacity:0.91091273;stroke:none"
         transform="matrix(0,1,-1,0,0,0)" />
    </clipPath>
    <clipPath
       clipPathUnits="userSpaceOnUse"
       id="clipPath3359">
      <rect
         style="fill:#c5c6c3;fill-opacity:0.91091273;stroke:none"
         id="rect3361"
         width="218.8382"
         height="754.72437"
         x="-336.61417"
         y="279.92123"
         transform="matrix(0,1,-1,0,0,0)" />
    </clipPath>
  </defs>
  <sodipodi:namedview
     id="base"
     pagecolor="#ffffff"
     bordercolor="#666666"
     borderopacity="1.0"
     inkscape:pageopacity="0.0"
     inkscape:pageshadow="2"
     inkscape:zoom="0.49497474"
     inkscape:cx="241.34794"
     inkscape:cy="515.33349"
     inkscape:document-units="px"
     inkscape:current-layer="layer1"
     showgrid="false"
     inkscape:showpageshadow="false"
     borderlayer="true"
     units="mm"
     showguides="true"
     inkscape:guide-bbox="true"
     inkscape:window-width="1920"
     inkscape:window-height="1025"
     inkscape:window-x="0"
     inkscape:window-y="27"
     inkscape:window-maximized="1"
     inkscape:object-paths="false"
     inkscape:object-nodes="false"
     inkscape:snap-bbox="true"
     inkscape:snap-page="true"
     inkscape:snap-nodes="true"
     inkscape:snap-to-guides="true">
    <sodipodi:guide
       orientation="1,0"
       position="772.44092,359.61431"
       id="guide42985" />
    <sodipodi:guide
       orientation="0,1"
       position="256.57874,88.379179"
       id="guide42987" />
    <sodipodi:guide
       orientation="0,1"
       position="-1490.9852,1729.3812"
       id="guide96152" />
    <sodipodi:guide
       orientation="0,1"
       position="336.61417,797.24408"
       id="guide3271" />
    <sodipodi:guide
       orientation="1,0"
       position="382.67716,476.79201"
       id="guide3281" />
    <sodipodi:guide
       orientation="1,0"
       position="336.61417,499.01536"
       id="guide3283" />
    <sodipodi:guide
       orientation="0,1"
       position="464.67017,779.52754"
       id="guide3285" />
    <sodipodi:guide
       orientation="0,1"
       position="714.88812,17.716521"
       id="guide3264" />
    <sodipodi:guide
       orientation="1,0"
       position="361.41733,308.09653"
       id="guide3266" />
    <sodipodi:guide
       orientation="0,1"
       position="709.79932,772.44092"
       id="guide3272" />
    <sodipodi:guide
       orientation="0,1"
       position="712.8678,24.80319"
       id="guide3274" />
    <sodipodi:guide
       orientation="1,0"
       position="481.42858,908.57144"
       id="guide3376" />
  </sodipodi:namedview>
  <metadata
     id="metadata7">
    <rdf:RDF>
      <cc:Work
         rdf:about="">
        <dc:format>image/svg+xml</dc:format>
        <dc:type
           rdf:resource="http://purl.org/dc/dcmitype/StillImage" />
        <dc:title></dc:title>
      </cc:Work>
    </rdf:RDF>
  </metadata>
  <g
     inkscape:groupmode="layer"
     id="layer5"
     inkscape:label="chant"
     style="display:inline" />
  <g
     inkscape:groupmode="layer"
     id="layer3"
     inkscape:label="m2" />
  <g
     inkscape:groupmode="layer"
     id="layer4"
     inkscape:label="m3" />
  <g
     inkscape:label="Layer 1"
     inkscape:groupmode="layer"
     id="layer1"
     transform="translate(0,10.629915)">
    <rect
       style="fill:#ffff00;fill-opacity:1;stroke:none"
       id="rect3185"
       width="46.062992"
       height="260.61935"
       x="2053.8735"
       y="430.10815" />
    <rect
       y="486.6767"
       x="2267.4668"
       height="260.61935"
       width="24.80315"
       id="rect3187"
       style="fill:#ffff00;fill-opacity:1;stroke:none" />
  </g>
  <g
     inkscape:groupmode="layer"
     id="layer2"
     inkscape:label="m"
     style="filter:url(#filter3274)" />
</svg>
