<?xml version="1.0" encoding="UTF-8" standalone="no"?>
<!-- Created for Inkscape (http://www.inkscape.org/) -->

<svg
   xmlns:dc="http://purl.org/dc/elements/1.1/"
   xmlns:cc="http://creativecommons.org/ns#"
   xmlns:rdf="http://www.w3.org/1999/02/22-rdf-syntax-ns#"
   xmlns:svg="http://www.w3.org/2000/svg"
   xmlns="http://www.w3.org/2000/svg"
   xmlns:sodipodi="http://sodipodi.sourceforge.net/DTD/sodipodi-0.dtd"
   xmlns:inkscape="http://www.inkscape.org/namespaces/inkscape"
   width="3200"
   height="800"
   id="svg2985"
   version="1.1"
   inkscape:version="0.48.1 r9760">
  <defs
     id="defs2987" />
  <sodipodi:namedview
     id="base"
     pagecolor="#ffffff"
     bordercolor="#666666"
     borderopacity="1.0"
     inkscape:pageopacity="0.0"
     inkscape:pageshadow="2"
     inkscape:zoom="0.35"
     inkscape:cx="1600"
     inkscape:cy="400"
     inkscape:document-units="px"
     inkscape:current-layer="layer1"
     showgrid="false"  />
  <metadata
     id="metadata2990">
    <rdf:RDF>
      <cc:Work
         rdf:about="">
        <dc:format>image/svg+xml</dc:format>
        <dc:type
           rdf:resource="http://purl.org/dc/dcmitype/StillImage" />
        <dc:title />
      </cc:Work>
    </rdf:RDF>
  </metadata>
  <g
     inkscape:label="Layer 1"
     inkscape:groupmode="layer"
     id="layer1"> 
     <g>
<path style="fill:none;stroke:black;stroke-width:2px;stroke-linejoin:round;stroke-linecap:round;" d="M 
1766.6914 306.30518
1771.9126 299.86584
1771.0198 289.8473
1764.5045 282.43246
1773.5618 273.99835
1765.7552 261.2476
1756.5677 256.23834
1753.511 265.97284
1762.4465 272.42172
1753.6178 283.22684
1740.1594 283.9345
1739.0996 292.62268
1747.5463 294.85803
1744.6539 302.88705
1740.4949 312.6983
1735.814 304.85272
1727.4087 310.4588
1732.5513 315.4668
1728.8484 323.13007
1721.1238 320.0989
1719.1265 312.05704
1711.6265 312.88943
1704.7743 315.88577
1697.3948 316.78815
1702.4299 323.8252
1711.2882 322.00757
1715.1876 329.56064
1722.5073 329.74307
1711.1943 336.9095
1720.207 338.26733
1726.085 346.17697
1719.1406 348.25555
1714.3718 343.92053
1707.3489 344.42087
1702.0149 338.85986
1701.071 348.69296
1705.48 357.41437
1711.1747 351.9469
1715.19 358.95465
1714.5037 366.88037
1707.0781 366.5985
1699.8884 363.6645
1695.3557 354.12048
1686.6775 353.09796
1685.78 360.379
1692.5104 365.9758
1683.9846 368.62836
1675.2288 366.9098
1675.4163 358.36572
1670.665 350.29492
1679.3247 351.65198
1687.5219 346.43857
1694.6102 342.38025
1699.1731 331.86343
1706.53 330.42322
1694.0688 324.92798
1687.3706 330.67862
1693.1996 334.02914
1687.7979 338.94366
1681.498 338.0953
1679.0825 344.64047
1671.8578 343.5083
1663.8215 352.86606
1655.8679 350.56055
1645.7701 350.47324
1637.1592 358.65268
1645.288 360.23645
1648.543 366.89392
1654.9149 358.60828
1665.795 360.86407
1658.8074 367.57257
1652.7755 374.80942
1666.48 370.8864
1671.3945 377.8504
1679.8086 377.20996
1669.8684 389.48715
1677.1653 386.06415
1685.2708 387.8054
1682.2102 395.79123
1691.0558 396.5869
1685.8344 404.6345
1685.7358 413.23907
1688.0012 420.53137
1692.6604 425.9305
1692.6233 433.73224
1699.5032 428.75482
1697.4973 419.44284
1695.4702 411.75195
1693.1754 403.91595
1701.4478 398.6079
1704.0226 405.6458
1704.8481 414.3642
1713.1803 412.21942
1717.0728 405.5807
1710.9148 400.09116
1709.2212 392.82416
1704.5068 387.67896
1698.8203 391.8866
1692.799 389.4084
1700.7277 381.77826
1692.8445 382.2086
1687.0806 377.38547
1694.3326 373.72192
1701.386 373.59253
1707.9911 375.9714
1714.9943 375.9215
1721.1775 372.10992
1728.6069 369.63873
1733.7805 361.48117
1723.3502 363.271
1722.365 354.82544
1730.1505 353.91504
1734.5936 346.5302
1728.8164 338.97217
1729.6125 331.89276
1736.2614 329.8032
1737.8031 321.83307
1748.5723 322.04523
1749.3813 312.6567
1755.696 302.9839
1762.0864 295.13388
1758.913 312.28705
1758.8469 321.08142
1767.4265 314.97025
1767.5881 324.07712
1765.2128 333.41556
1756.902 329.17078
1754.5953 336.82877
1761.7921 342.43115
1749.8325 342.70404
1745.3799 332.85114
1738.0586 337.09222
1742.9436 347.33118
1739.8141 354.75497
1748.7444 353.69797
1756.1106 349.4682
1763.058 354.83606
1754.1948 361.0243
1745.0815 362.5455
1740.9034 369.32758
1752.5771 370.4304
1745.614 375.2008
1747.7361 384.26978
1739.1399 390.13452
1737.682 381.31793
1735.0679 374.25204
1727.9849 378.74973
1720.9255 383.4253
1711.6697 384.00656
1717.3668 392.49048
1725.445 391.957
1730.7607 386.9642
1731.3425 397.90027
1722.1322 399.7235
1727.9731 407.21436
1722.4102 414.34802
1722.6387 423.665
1714.1743 421.581
1714.6525 430.02707
1708.9631 435.70834
1706.2837 445.40308
1704.5466 455.3542
1694.928 460.28168
1685.2361 463.75204
1677.1809 468.11816
1676.4489 461.85312
1669.45 465.0837
1663.917 462.04218
1670.135 456.39914
1667.4866 450.41974
1677.8419 455.45065
1685.8634 456.5296
1691.9111 453.19464
1698.6532 450.211
1699.3214 439.58032
1690.3208 441.06964
1682.6294 440.69397
1682.923 448.947
1675.6931 445.24402
1668.6135 441.53015
1661.5645 438.31543
1669.1484 433.4001
1676.7549 431.35226
1685.0068 430.34497
1679.9951 422.451
1668.923 422.85483
1663.4746 427.93713
1656.4828 430.7125
1654.969 422.85873
1645.5383 425.54367
1636.573 430.27704
1638.4215 437.7302
1645.9473 437.13705
1652.5127 440.47522
1659.3339 447.5034
1660.339 454.75067
1657.4683 461.9707
1651.8561 459.47076
1652.2552 451.08563
1642.5946 446.91858
1633.1593 445.30524
1632.742 451.878
1639.9485 457.32288
1646.2175 455.48032
1645.8643 464.81158
1638.3895 463.80038
1638.2964 471.15564
1631.7006 468.0671
1624.9119 463.23407
1628.6731 457.64618
1626.407 449.98053
1621.9448 456.2603
1618.6389 451.02463
1611.9639 450.62753
1621.3549 445.87128
1615.0626 443.38458
1613.6621 435.91046
1609.922 429.85217
1609.0758 422.54034
1616.8757 425.56555
1615.6682 416.40097
1619.7107 408.07785
1621.496 399.01947
1610.1873 409.5168
1606.0697 415.1532
1600.8988 407.88608
1609.3146 402.66736
1604.1501 396.2452
1605.5193 386.1615
1612.4147 393.80624
1617.3187 386.2545
1625.9504 386.27853
1630.5255 404.34076
1634.733 394.8331
1634.5264 386.0005
1642.2236 387.87378
1644.4084 394.1402
1643.4785 399.85223
1648.4075 406.2949
1640.2372 406.1195
1635.412 411.87402
1629.0776 412.62888
1624.2952 416.86475
1624.6287 423.40512
1623.049 429.9403
1620.0142 433.77133
1621.463 439.20053
1626.8041 442.45175
1632.3308 439.34103
1629.148 434.9051
1629.2676 429.43573
1632.1747 423.59155
1636.822 419.25522
1642.8966 414.07162
1649.4607 415.80048
1655.2648 410.89963
1661.7864 415.4858
1663.5732 408.33972
1670.4866 408.98572
1675.1484 415.49756
1678.7947 409.12427
1678.4253 402.32666
1673.182 398.81137
1665.9619 397.13812
1659.1074 398.92572
1651.9705 397.8624
1650.9827 390.20175
1660.5999 389.1816
1662.9207 380.67694
1653.3535 382.39044
1643.6302 381.78412
1642.7201 374.12216
1634.938 377.58295
1635.4778 367.84848
1622.2625 363.65317
1626.2603 374.46692
1617.425 375.28278
1606.5763 370.43988
1609.5624 363.49603
1614.634 355.67114
1622.7023 352.34998
1630.0862 353.88043
1635.1333 346.94354
1621.3287 344.4765
1608.3376 346.2857
1604.6333 356.0283
1599.3824 365.46008
1591.8254 361.8253
1592.9728 373.06976
1600.5524 376.84006
1595.0195 385.54974
1587.9065 380.72205
1582.4331 371.6587
1572.6428 372.70703
1568.3378 379.317
1575.675 381.39868
1580.4438 389.02902
1587.4789 391.5692
1595.5876 395.00653
1592.3044 403.49115
1583.6777 400.23676
1575.2441 397.15024
1571.104 404.04132
1574.459 410.96252
1583.4589 410.16132
1591.8062 414.3326
1599.3877 419.4443
1600.8738 428.18442
1604.6166 435.0106
1608.1805 442.5942
1599.1119 441.76962
1594.2852 434.2162
1585.2336 432.3016
1591.9379 425.14917
1583.3276 422.84534
1576.1204 419.8448
1567.2451 424.15863
1566.4719 416.0301
1562.8508 409.2517
1561.125 399.26865
1567.7766 388.80115
1558.0059 391.71716
1551.562 401.45322
1549.3916 391.8554
1540.8553 388.4558
1531.7156 385.71448
1538.1674 377.5671
1548.1495 378.46625
1557.0493 381.34067
1561.9323 373.76877
1555.2161 368.8307
1545.7405 370.3807
1549.1425 362.60278
1551.0615 354.4588
1540.2437 351.39044
1540.62 359.56207
1536.776 367.36984
1527.9589 370.36374
1524.4548 378.98914
1521.102 388.28046
1508.2849 394.34726
1501.7278 401.81702
1517.4089 400.21942
1521.2852 409.58322
1509.631 409.0853
1514.6523 417.70825
1514.9279 431.68405
1521.5469 422.8825
1531.4961 416.62265
1528.8203 403.69336
1533.4878 395.59982
1538.5435 405.70398
1540.8792 416.41785
1548.0977 414.24887
1555.8359 413.59015
1557.709 421.4815
1548.6991 424.81638
1537.7916 425.62814
1538.3302 435.16815
1527.7511 430.1378
1530.6104 440.4029
1522.4573 440.63232
1513.4937 443.52795
1504.575 445.27832
1494.9424 444.649
1495.7335 452.5997
1486.8096 453.5068
1479.3408 461.43994
1467.4824 458.34155
1474.8542 451.4359
1480.857 441.74646
1489.9487 438.37936
1500.2058 433.03943
1507.5684 425.97272
1505.4034 417.96387
1498.0186 423.27118
1485.3416 429.7506
1480.4955 422.67377
1472.2822 429.6297
1471.0588 417.66254
1469.1156 409.383
1478.8418 407.8928
1487.8954 414.171
1499.3953 412.45984
1492.9202 406.2024
1488.4003 397.70782
1484.0337 389.8523
1494.153 390.30103
1502.467 384.55865
1509.5388 379.8109
1515.6871 369.19983
1512.6697 360.6369
1521.237 360.30383
1531.5138 357.32782
1518.7427 347.77658
1507.6448 349.8084
1499.5986 359.32016
1506.1831 364.5127
1504.3757 371.51364
1498.3347 375.62692
1494.6517 382.0879
1487.0887 381.5976
1489.4573 373.3154
1494.9414 367.50256
1488.4092 361.4215
1481.3693 355.45435
1478.598 364.99182
1481.142 372.55502
1475.9274 380.52667
1468.6204 372.98642
1471.2173 360.31564
1462.9421 364.23178
1452.4803 371.83044
1452.7083 382.3536
1460.5677 380.2668
1466.5863 386.02722
1473.6885 390.05396
1476.0847 398.415
1466.2375 398.54962
1457.0237 395.85397
1448.2224 391.7838
1448.3479 406.50848
1458.696 408.8552
1463.7167 421.2943
1452.7019 419.31012
1452.5613 430.4743
1462.2617 431.0136
1458.2367 440.1087
1468.4226 440.94003
1462.7961 448.80234
1451.3698 451.30768
1457.1191 457.377
1460.8539 465.48938
1469.6487 467.9499
1478.3364 471.11804
1471.2656 477.7693
1458.4783 474.68234
1459.9084 488.22003
1468.5409 496.55902
1461.5673 499.85886
1467.5667 507.39706
1475.6882 504.40198
1477.4003 495.57092
1468.413 487.2558
1476.7803 486.22925
1488.194 480.96884
1499.2638 484.401
1508.7617 473.59384
1497.8131 472.4981
1487.8121 468.5197
1494.6785 462.024
1502.3322 456.6849
1505.6945 464.27255
1514.6578 464.89685
1520.4257 471.8918
1531.3608 471.7717
1535.0887 461.38953
1525.68 461.79318
1518.2737 454.16046
1510.1047 453.54315
1525.7648 450.36133
1536.0764 448.4353
1544.7991 444.53668
1548.6324 436.14014
1554.5084 445.50278
1562.8428 449.9049
1565.3915 456.97092
1566.5305 464.19122
1569.1691 471.10724
1575.2802 473.4586
1582.3259 476.63037
1583.8608 483.0654
1578.634 488.43036
1575.1384 495.2667
1566.75 496.52057
1566.3345 506.26694
1559.043 516.54156
1556.9082 507.10425
1554.2043 497.9725
1559.7588 487.62408
1570.7468 483.8867
1563.0508 477.78815
1558.781 470.03912
1557.3959 462.01514
1553.9307 454.94336
1545.0276 454.18137
1547.416 465.5427
1542.4348 475.62775
1552.2141 475.8521
1547.0243 483.46298
1540.772 489.38742
1533.989 483.00452
1524.7205 483.6997
1514.7595 483.23605
1509.6458 492.0704
1504.6583 501.54526
1496.9194 495.20782
1487.3154 492.00436
1486.8887 502.7059
1495.5554 505.9365
1494.8584 515.0565
1504.0984 513.7344
1512.2346 511.60886
1515.6339 501.6616
1522.7109 493.78943
1533.1162 495.6145
1529.3135 505.03253
1520.6844 510.34814
1509.8921 522.5089
1500.0784 523.6545
1504.775 531.9085
1511.9138 546.7543
1517.2661 554.87415
1524.555 552.75446
1529.9331 547.3269
1534.0001 540.73694
1526.1641 529.01636
1525.9801 536.8291
1521.0881 544.1122
1515.1163 537.48413
1515.868 529.48413
1520.136 520.6656
1528.7927 516.4676
1533.5692 523.2107
1538.5713 530.41406
1540.3063 537.23
1544.176 544.1074
1540.2292 549.3129
1535.6831 553.8828
1530.4294 558.34796
1523.4736 562.5142
1528.868 568.76355
1536.7634 564.5274
1535.708 571.91614
1543.0781 571.38074
1542.1953 559.3236
1548.3628 564.16766
1555.803 560.82434
1563.0939 559.17615
1558.7278 551.1196
1549.0288 554.3284
1552.005 546.35205
1549.5924 537.21326
1547.8883 528.6317
1542.0569 522.0239
1538.3773 510.8675
1542.7443 501.23395
1547.85 508.47678
1549.4287 517.4624
1555.2834 525.05237
1557.4712 532.56824
1559.1967 540.3888
1565.8562 545.25916
1573.6624 548.8359
1581.3577 549.51013
1588.6492 547.1252
1581.5239 541.13354
1573.3593 540.086
1567.1285 534.04974
1564.2461 525.4925
1569.2402 516.89355
1577.1948 512.36633
1575.9208 503.9419
1586.4968 504.29684
1584.4131 495.4375
1588.8302 488.81796
1593.9603 497.20654
1601.2007 500.5066
1606.7461 497.09845
1612.5532 491.0069
1612.6166 483.92853
1604.1565 487.02365
1597.3926 490.57654
1594.1372 483.90793
1591.9336 476.6515
1584.3097 469.2743
1579.0858 466.04492
1574.1852 462.3684
1573.6912 455.09564
1574.5244 448.0893
1568.4675 441.96558
1561.7273 437.96375
1559.7063 430.29877
1572.5732 430.6854
1577.6445 437.4022
1587.225 441.55573
1592.3662 447.4466
1598.5995 450.70908
1590.8711 454.4452
1583.4673 450.23596
1582.2673 458.12598
1588.5261 462.78864
1591.1509 469.72528
1598.3556 470.25293
1600.2922 477.7921
1607.4985 477.50375
1608.8337 468.68994
1604.9353 461.84216
1599.2795 457.23715
1604.8043 448.7121
1607.0005 455.10596
1615.3558 457.36566
1611.2069 461.96606
1615.8922 465.97705
1621.3868 471.02765
1614.6292 475.1369
1618.6368 480.4629
1624.3513 477.01193
1630.1462 480.76596
1637.6312 481.29504
1632.3113 489.71698
1622.4275 486.35898
1622.4924 494.16333
1615.5956 497.76303
1613.5417 504.55078
1605.5178 509.4749
1595.5106 509.2851
1600.0461 516.09955
1606.5289 517.60364
1612.9343 513.0875
1614.7094 520.1478
1609.0349 524.1266
1602.6615 524.46045
1596.2493 523.22314
1591.9791 528.69824
1586.487 522.20654
1592.2793 517.3312
1585.9747 512.5519
1579.3091 521.66284
1573.0315 526.3983
1578.384 532.9557
1586.0117 531.7069
1594.6107 544.5132
1596.6455 537.78845
1598.6106 531.01483
1605.4224 531.9523
1611.9783 533.4874
1614.872 526.9663
1619.6698 531.4685
1625.4756 534.9241
1628.23 540.7615
1635.498 541.654
1638.6709 533.88367
1632.2805 531.77167
1627.2183 526.2328
1632.3467 523.14594
1637.0415 521.7955
1635.5796 514.7322
1629.7479 508.65173
1627.2925 516.8988
1621.6521 523.0851
1619.8835 515.97345
1621.9774 509.7285
1623.2008 502.50586
1630.099 497.9776
1636.5251 501.57993
1641.8975 497.3125
1640.144 488.75177
1646.831 485.17303
1645.6138 472.3226
1647.3975 479.04144
1654.8837 485.69043
1648.0374 492.33124
1650.5498 499.67712
1658.3914 504.3099
1658.9874 492.4625
1665.0435 498.8683
1665.4233 509.3254
1664.0479 518.9479
1654.8843 514.99524
1648.9105 521.93604
1650.9167 507.93793
1642.1577 507.33978
1644.5737 514.3511
1642.2211 520.4129
1640.1729 527.5365
1647.5171 529.7931
1648.8022 538.0695
1642.3826 539.2916
1643.4818 546.9332
1643.249 556.935
1636.9011 551.61676
1630.3663 548.60913
1621.9462 545.3754
1616.9888 539.70734
1613.5239 548.29565
1607.1549 540.27734
1602.959 547.699
1597.0452 554.83716
1607.2742 554.57306
1603.4624 562.36255
1605.8085 570.20435
1613.1772 574.5238
1615.4711 567.0917
1614.9034 558.6505
1623.38 553.515
1623.6956 562.6242
1631.0972 558.1102
1636.6157 563.2726
1630.8191 568.6698
1624.0126 571.951
1620.7953 578.6121
1618.0813 585.39246
1623.8538 590.56616
1618.0579 596.182
1611.9155 589.98267
1610.4202 581.46027
1602.6238 578.83057
1604.7194 587.6379
1597.6667 589.30676
1590.016 593.0203
1587.9323 585.0241
1594.5216 580.66626
1596.4436 571.63165
1592.8134 563.77625
1587.8151 556.2616
1577.8927 557.579
1569.0898 554.9908
1570.2852 564.7958
1576.5791 572.1731
1582.9487 564.9751
1587.1008 573.8882
1580.3317 580.7927
1571.7119 581.6989
1565.2583 575.2673
1559.212 568.9826
1550.8722 572.17
1554.2386 580.2197
1563.0763 585.00525
1556.3 590.6696
1546.1122 588.9364
1543.8691 580.8219
1535.7612 579.45654
1532.7191 587.19244
1529.2227 597.06885
1538.3622 593.9636
1540.9943 603.0133
1548.4744 598.5834
1557.2058 600.08276
1570.1367 591.9968
1579.6533 589.5106
1580.5104 598.17773
1573.0859 603.1355
1565.2839 600.0426
1561.6648 611.1306
1551.8248 609.4993
1542.8668 612.98816
1534.7972 608.2649
1528.8425 613.583
1526.2183 605.65076
1518.4509 598.02075
1516.5736 604.98065
1518.9895 612.75085
1509.3268 611.2351
1504.6342 604.45056
1495.3525 600.39575
1496.7375 612.45386
1489.3365 606.34515
1482.3788 611.50903
1485.4982 597.80493
1490.5256 589.8037
1479.4069 588.40564
1476.1177 598.71045
1472.1748 609.64233
1466.2643 599.7583
1457.043 596.43066
1467.6826 589.44104
1474.0474 580.8204
1482.5786 579.5024
1490.5596 580.6543
1499.271 579.3366
1500.5026 587.66003
1501.9125 595.6734
1510.7217 592.806
1520.6365 589.79535
1508.54 582.2947
1516.7544 579.7654
1524.6735 583.3074
1527.5219 576.7046
1520.6484 571.12634
1511.9862 571.60254
1504.528 572.20355
1514.2715 563.7375
1509.0702 554.9822
1505.1345 561.9758
1499.188 566.5383
1494.1821 572.1156
1485.8801 571.12634
1476.9929 563.19495
1483.5227 561.67725
1490.2292 563.5321
1496.6346 559.65216
1492.5653 553.8524
1491.9126 545.3812
1501.2996 550.1064
1504.5696 541.7957
1496.7834 538.0036
1493.042 530.50385
1488.5476 523.08826
1484.0801 513.6553
1474.6621 513.07495
1468.9695 519.0574
1462.2625 514.7956
1460.0344 523.1074
1461.5051 531.55225
1455.548 537.6387
1462.9421 541.0071
1469.796 536.4471
1477.8179 536.5515
1470.4004 527.8575
1477.322 521.69507
1480.0702 529.2402
1486.5356 536.59985
1483.0247 544.46045
1485.02 553.50354
1475.3726 556.2417
1477.6514 550.0718
1474.4216 543.2406
1469.015 548.2749
1466.4338 556.6411
1469.9604 563.6188
1478.0305 570.5491
1471.5137 573.7483
1466.0483 570.1207
1463.6176 578.20624
1454.5656 577.57654
1458.3022 586.36176
1448.446 588.1127
1439.9309 589.9952
1443.4442 578.33014
1431.9894 574.7952
1424.9347 567.3193
1418.625 574.5337
1420.6794 585.5731
1431.2412 585.96466
1434.2576 599.98474
1446.7179 599.72595
1455.128 606.5755
1459.3848 614.298
1441.8116 611.97656
1429.2183 611.3932
1414.1649 611.35864
1424.2715 599.35046
1413.696 593.86584
1411.9822 581.0351
1413.2468 565.78723
1414.2529 554.02356
1422.0095 547.3262
1431.8779 548.78357
1424.5714 556.1305
1431.2656 560.9218
1437.5486 556.09814
1442.604 549.40625
1447.375 558.75757
1442.283 565.9172
1451.0171 568.88055
1459.3796 567.60956
1455.7881 558.88214
1451.2369 547.56213
1448.3448 538.3308
1437.4866 538.77924
1433.1943 530.71814
1429.2092 516.51715
1426.3209 525.8417
1425.5679 537.386
1411.799 542.928
1416.3893 530.26935
1410.7067 521.30566
1419.4169 516.58154
1421.9507 507.28662
1430.5261 505.24744
1441.8094 504.34448
1445.23 512.96875
1437.1182 511.72504
1437.7017 521.3898
1442.8486 528.7951
1452.2673 528.7179
1447.989 521.12616
1454.2097 514.6139
1458.7291 507.32428
1452.6526 502.04797
1455.5076 493.9327
1447.5112 493.59955
1436.2776 497.48242
1427.062 495.55505
1417.0155 497.9173
1412.1357 507.6206
1409.4331 490.6263
1421.8873 486.5362
1431.0867 481.2368
1438.5732 487.33777
1451.0896 483.42236
1440.9296 477.25958
1447.6094 466.79712
1443.1921 458.68768
1438.3717 468.09906
1431.9963 461.81088
1424.7976 471.78
1415.0603 478.15533
1414.5275 467.36798
1421.9519 459.22263
1416.2734 449.5472
1409.3058 442.51315
1414.7374 432.97363
1413.2971 425.50278
1426.8882 427.1192
1428.1887 435.92426
1420.52 439.0858
1427.6753 446.30725
1433.6011 452.8824
1441.9272 448.9055
1445.9795 442.30243
1436.1411 442.08514
1438.6128 431.6328
1441.5234 421.3159
1435.6722 412.02768
1440.5022 397.03778
1432.5093 400.48907
1423.5371 404.28656
1421.9512 413.61438
1413.6807 405.37726
1415.5804 396.09872
1425.3278 394.75232
1431.7314 388.51865
1439.678 386.6776
1444.2693 378.98724
1435.4377 377.894
1440.9149 369.8318
1446.5925 362.65625
1453.1921 360.21188
1457.3392 353.92206
1463.4185 349.7485
1472.0231 347.5428
1478.999 341.71384
1487.1412 345.55182
1494.0455 350.84543
1488.0116 335.64865
1497.6779 339.50696
1508.287 338.12964
1518.5327 336.30902
1527.8981 341.13672
1537.9297 340.86487
1547.6685 343.49252
1555.7506 341.68665
1558.5874 348.73996
1565.1632 343.21506
1570.4333 327.143
1571.3889 318.59796
1578.3878 323.73428
1584.329 346.18848
1574.9897 345.5294
1575.5316 354.15585
1568.6387 349.9509
1564.3927 355.2298
1564.373 362.95688
1574.0999 363.5835
1580.9563 361.2472
1583.9684 353.7721
1592.1492 349.88446
1599.1279 349.01935
1592.9185 315.75494
1586.0828 318.3921
1579.5669 315.8572
1565.3152 311.54153
1570.2288 301.9352
1575.2902 308.97943
1584.5381 309.7115
1589.0322 302.88705
1580.9905 299.29404
1585.624 288.68195
1591.2462 293.53412
1596.929 297.58557
1597.3805 304.64163
1592.681 309.8952
1600.1663 311.9594
1604.3809 306.71198
1609.7543 304.06326
1614.4214 299.5264
1620.1453 294.68152
1627.3671 288.51923
1632.127 280.61438
1628.095 272.37726
1621.432 278.40045
1616.0936 270.20975
1610.1213 280.96353
1619.1593 286.1201
1611.3217 290.79532
1604.9569 297.60944
1602.2914 289.1866
1596.5078 282.72986
1598.0137 274.04694
1606.2627 271.2264
1606.9264 261.77216
1623.9515 263.64984
1615.7809 259.11328
1611.4219 249.6635
1620.08 244.34372
1624.1903 254.05554
1629.8383 247.78746
1632.6875 240.19127
1623.405 236.04749
1631.0505 231.01054
1637.7919 226.44122
1638.337 217.10712
1646.1499 215.27348
1644.832 222.75406
1651.4529 225.43271
1659.3937 237.92972
1651.7417 234.43265
1644.9066 231.13434
1640.4272 237.16437
1649.8464 241.56622
1650.7498 249.15015
1641.6719 247.54832
1636.8153 256.36874
1633.6819 264.5886
1638.7542 273.03207
1644.5525 265.11526
1647.1232 257.26862
1655.5466 255.06235
1659.6123 246.8425
1667.4465 244.29875
1667.6143 237.12653
1675.9485 239.67282
1683.5549 237.90405
1690.499 238.34756
1695.7904 232.6569
1700.616 226.37433
1692.071 222.75131
1687.3573 229.90768
1679.4236 230.48141
1672.8254 231.67302
1665.6617 229.29465
1658.2688 228.67577
1662.2498 220.44131
1668.6506 216.52264
1672.5377 223.4199
1681.8276 222.6922
1685.3016 215.11986
1677.2478 213.89714
1671.295 208.56682
1663.3696 210.19139
1654.9233 217.91295
1649.1178 209.43016
1656.4657 209.01495
1659.5945 201.5055
1668.6619 200.25262
1677.9521 201.67526
1685.8936 206.64331
1688.6892 198.23149
1700.1654 198.27072
1698.7751 206.33414
1693.349 212.4528
1702.08 216.01605
1709.9963 216.03113
1709.1478 204.31946
1718.9675 204.98334
1719.0703 211.61388
1730.0756 210.49182
1725.4724 218.44223
1732.5586 222.90015
1736.8357 228.26843
1743.0588 214.48367
1746.6982 225.89182
1753.8867 232.47568
1761.4841 246.19284
1754.4076 241.72691
1743.8518 242.04837
1735.5714 242.19443
1734.1453 235.36575
1727.1692 230.89914
1721.767 225.87302
1717.3486 219.72922
1709.8174 225.15245
1715.6296 231.77359
1712.61 241.07166
1706.8152 233.65787
1703.088 239.707
1696.5276 242.31523
1702.7527 248.71098
1709.5211 248.25897
1706.0284 258.62607
1712.2201 256.64578
1717.2584 251.39427
1720.6013 245.95001
1720.7488 237.68687
1727.7097 241.36638
1727.749 249.34152
1737.2383 249.90453
1745.1803 256.5463
1736.6808 260.01648
1743.2405 266.42575
1744.818 275.59344
1735.3025 271.98425
1729.4808 264.27954
1722.4227 266.87598
1728.6879 256.10895
1720.794 258.47943
1713.6597 264.3869
1708.6721 270.52484
1716.0681 272.79614
1718.1267 280.4961
1724.7927 274.72092
1731.3396 280.32895
1725.9026 285.3589
1722.0217 291.87692
1731.1697 293.00867
1727.5642 301.06302
1719.9462 304.39236
1711.4379 304.4118
1703.0012 307.54205
1705.929 299.02823
1708.5623 291.70087
1716.5295 296.9966
1714.9557 287.58755
1709.1145 281.37897
" />
</g></g></svg>
