<?xml version="1.0" encoding="UTF-8" standalone="no"?>
<!-- Created for Inkscape (http://www.inkscape.org/) -->

<svg
   xmlns:dc="http://purl.org/dc/elements/1.1/"
   xmlns:cc="http://creativecommons.org/ns#"
   xmlns:rdf="http://www.w3.org/1999/02/22-rdf-syntax-ns#"
   xmlns:svg="http://www.w3.org/2000/svg"
   xmlns="http://www.w3.org/2000/svg"
   xmlns:sodipodi="http://sodipodi.sourceforge.net/DTD/sodipodi-0.dtd"
   xmlns:inkscape="http://www.inkscape.org/namespaces/inkscape"
   width="3200"
   height="800"
   id="svg2985"
   version="1.1"
   inkscape:version="0.48.4 r9939"
   sodipodi:docname="madeleines-oiseau-tsp.svg">
  <defs
     id="defs2987" />
  <sodipodi:namedview
     id="base"
     pagecolor="#ffffff"
     bordercolor="#666666"
     borderopacity="1.0"
     inkscape:pageopacity="0.0"
     inkscape:pageshadow="2"
     inkscape:zoom="1.0486328"
     inkscape:cx="1453.1421"
     inkscape:cy="400"
     inkscape:document-units="px"
     inkscape:current-layer="layer1"
     showgrid="false"
     inkscape:window-width="1440"
     inkscape:window-height="858"
     inkscape:window-x="0"
     inkscape:window-y="19"
     inkscape:window-maximized="1" />
  <metadata
     id="metadata2990">
    <rdf:RDF>
      <cc:Work
         rdf:about="">
        <dc:format>image/svg+xml</dc:format>
        <dc:type
           rdf:resource="http://purl.org/dc/dcmitype/StillImage" />
        <dc:title />
      </cc:Work>
    </rdf:RDF>
  </metadata>
  <g
     inkscape:label="Layer 1"
     inkscape:groupmode="layer"
     id="layer1">
    <path
       inkscape:connector-curvature="0"
       id="path26434"
       d="m 1467.4025,328.04996 -6.3658,7.70764 0.9153,9.68634 -7.8326,-0.96764 -5.479,10.95027 -7.73,7.01075 -6.16,8.30328 -2.226,9.51035 -9.7101,-0.46543 6.5469,13.31092 -7.0184,5.36142 3.8792,7.535 6.7204,4.52017 7.6266,-3.30286 -5.4629,-6.17347 7.6748,-5.13564 -5.4313,-6.93039 7.5474,-6.41807 4.4612,-8.52617 7.2426,-9.2059 5.1436,-9.57785 13.707,5.60327 2.7432,-7.97293 -8.2578,-5.80032 0.6195,20.4309 -6.5749,5.9145 -6.8942,7.63866 8.3985,1.38401 9.428,2.38973 7.0275,3.79984 -8.7643,-12.52504 10.3376,3.29533 -3.441,-8.96228 6.9345,-2.21915 10.0794,0.19285 7.0082,-4.54392 -5.6845,-6.04568 7.4287,-1.56115 1.3898,-7.36118 5.6964,4.4862 13.7306,2.83496 5.4251,6.5885 6.4677,-5.30676 1.8376,-8.89209 -14.378,-3.17153 7.0722,4.92724 0.3036,-10.32428 -7.4292,-3.76923 -6.6953,3.62067 -6.3123,3.59534 -9.0574,-11.05039 -5.347,-7.3508 -8.7746,-5.56982 -0.4354,9.4512 -6.3277,5.95647 -10.0166,0.7296 5.0344,7.40496 -0.5098,-19.01396 1.4763,-9.94685 7.6638,-5.10071 5.4859,-14.16412 9.2532,-4.14272 4.5871,-7.7886 -1.0573,17.77134 -11.3832,3.68436 6.7899,9.67447 12.2877,8.66467 0.089,9.11261 6.508,17.49991 -0.8287,10.56686 -5.3378,6.14298 -6.4595,5.99377 16.7461,-5.36747 8.513,5.826 17.9234,11.73654 7.9057,-10.90604 10.8169,-2.49017 -5.9703,-6.93448 -8.4871,-0.35165 9.5445,-9.16724 6.8714,4.10028 6.8698,2.39228 3.4682,-7.77912 7.8178,-1.43628 0.5987,9.61818 -4.4687,6.8438 13.0293,-4.58206 5.6025,6.18033 -1.1111,-13.81302 5.1846,5.52963 5.5618,4.95132 -1.6013,7.35593 1.0612,8.42597 -8.6599,-2.82975 -7.3613,-3.3425 0.2878,9.05088 -6.0671,6.89123 -7.2588,7.73544 3.8916,6.65253 2.5447,8.04294 2.0674,8.181 -1.4091,7.94879 10.4396,-2.06171 10.3249,1.38907 -4.6677,-8.79712 -6.5566,-5.76083 1.6235,-9.26667 -7.4106,-4.90282 6.4812,-6.7284 7.3143,-4.38696 1.8827,8.91808 0.5566,11.9888 5.2596,9.63438 6.5832,7.88446 10.164,3.48511 0.4899,9.52133 -8.5428,-0.33788 3.8138,9.35518 3.6022,17.60944 7.9203,3.30734 -7.0476,7.76754 -3.5636,7.52747 -8.5418,2.78943 -6.8144,6.6346 6.6902,4.13484 6.8,-4.65554 9.5359,-3.50135 5.0186,-9.12085 15.6493,11.4307 -8.1965,5.01272 -7.7244,5.19748 -7.4822,-2.42688 -6.6509,3.13626 5.9722,9.22669 7.509,7.29699 1.8344,-8.45266 8.201,-3.94873 0.3082,8.80043 8.3484,-2.2858 7.0572,-4.64705 6.0532,-5.12685 -0.1024,-7.51634 -14.4839,6.76744 6.7139,-5.07225 -2.6816,-15.39172 -10.228,0.40231 -3.0484,-10.95718 8.6307,-0.0848 8.2993,-0.31021 -1.3428,-10.92524 -10.2101,-0.61077 -9.5751,-2.28973 -9.0283,-0.0842 -10.3667,1.68069 -6.0117,-5.0795 -0.2456,-8.20666 -7.0293,-1.91156 -3.5781,-7.9413 8.0166,-0.69338 -14.4529,-0.46842 -6.7523,-1.5462 -3.2184,6.31675 7.7627,2.69833 -3.9412,8.24347 -5.9773,-4.2442 -17.1638,3.62128 0.1469,-9.29151 6.8396,-0.58014 -2.0821,-7.77418 8.1169,2.17116 -3.0656,-9.93088 -2.8769,-7.5398 -17.2658,11.59165 -5.8644,6.66449 -7.5992,-3.5763 -6.4392,7.76548 7.4625,1.8671 8.0756,4.79412 8.09,-3.04806 12.0706,15.10094 3.2638,-6.33627 6.76,2.53193 5.8519,5.02288 -8.6057,3.01563 -10.9864,1.15607 -6.452,-4.34971 -3.3614,-8.01123 -5.5715,5.08054 2.197,7.26361 -5.2615,5.63953 1.3936,6.88928 -0.3372,8.21374 7.9048,1.12705 3.0424,-6.91879 -2.3761,-8.41959 7.8085,0.32138 2.9766,7.3631 5.0382,-8.1886 6.349,3.69575 5.0564,-6.55555 7.2249,3.55182 -4.9451,5.04989 -2.2788,6.31888 -8.7742,-1.79914 4.0303,6.78718 1.7104,6.90972 -10.872,-7.36755 -7.2761,2.83442 -8.4905,4.43579 1.7448,11.24964 4.9277,-5.4496 12.754,-4.76113 -6.0687,2.10743 1.1563,7.45778 1.951,8.05158 -8.101,-0.99456 6.7889,8.8314 -5.5629,6.1817 0.6645,7.81013 7.9405,-3.80359 7.7961,2.36946 -0.2714,-9.0794 7.7931,-6.4292 -9.2501,-1.4718 -1.8968,-8.6313 2.6958,-6.71705 5.0339,7.31085 7.7592,-0.32232 5.3414,-6.53858 -1.3225,-7.4281 4.0582,-7.33764 3.7063,-6.29431 3.156,-6.90772 4.8712,-6.22189 -7.031,-3.63452 -3.5489,-7.9199 -6.5275,-4.65136 -2.4958,7.03918 3.8883,6.51792 2.7689,8.10391 -4.9758,6.83373 -2.7262,6.52985 -3.6117,6.02465 1.0802,8.02238 11.7669,9.43662 4.4851,-6.4487 5.8464,5.2272 -4.0375,7.37024 7.9832,3.20506 8.915,3.7215 -5.8463,5.8913 -8.101,2.6836 -4.5736,-6.9546 -9.4597,0.8165 1.3434,-7.7889 1.9646,16.44007 7.1633,6.01977 17.5896,5.84101 8.5278,-4.82178 8.6635,1.74457 -2.1859,-9.72954 7.843,1.3068 6.9483,4.28046 2.5959,-7.81219 8.0676,-3.15057 7.8379,-3.0355 -1.5455,-6.81155 8.754,1.21475 6.631,-5.22415 1.2402,8.33995 7.5355,-5.274 9.0796,2.6593 3.2151,8.5229 -8.1978,-0.9835 -7.0024,4.67285 -2.3755,8.43305 -6.6571,-5.92915 -2.081,-7.5617 -7.397,5.5708 -7.7257,4.30345 -4.0232,6.4044 -3.8305,6.8736 -1.076,8.1589 -1.5518,8.0436 -2.7907,8.3958 -2.0469,8.8585 2.9814,17.3187 1.6019,-8.6359 8.3784,2.34706 -1.7962,5.93444 1.3129,7.03615 -0.684,7.94695 8.7278,0.38215 6.6063,-7.75555 -5.828,-5.2528 -0.4044,-8.0785 10.5765,-1.4203 -11.7566,-8.5844 0.4694,-6.9565 -5.6711,10.24995 -6.7991,-2.40771 2.7294,-6.34504 1.1081,-7.40625 3.2424,-8.02825 5.6862,5.7591 7.3038,2.22387 2.6946,10.19743 4.8848,-6.20665 0.2652,-9.1311 -6.1556,-4.08045 -6.5676,-3.7613 -7.5253,-3.821 5.1025,-7.17704 4.4172,-7.45236 7.0046,4.94956 -1.4929,8.00434 8.7619,4.69616 2.1891,-8.48326 6.618,-6.3971 3.9274,-7.49184 11.0652,-3.3977 7.0794,-7.09851 -7.1557,-3.61495 -1.7567,-8.5509 6.6448,-5.45946 7.9835,3.03128 5.6587,-3.79622 6.2246,-2.01893 3.9601,7.88238 -18.0006,4.96338 4.5063,7.33521 5.5484,-8.14474 8.8285,6.0816 7.4464,-7.19077 2.394,-8.31161 7.3524,-5.79599 1.7445,8.35425 8.3207,-5.43012 7.102,-6.17273 -5.3311,-8.02808 10.7353,-1.71481 -10.13,-7.71701 -6.7564,0.33505 -3.316,5.81462 -6.0805,5.72542 -5.4902,5.00675 -5.7273,4.948 -12.9978,-7.40223 -21.7998,-1.30932 -4.428,9.04268 -3.2136,8.1784 20.5462,-11.30354 -2.4359,-7.83666 6.8189,-5.31782 3.0292,-6.9859 2.2374,-7.36115 -8.2854,-2.04823 -2.4734,6.97337 -5.1626,5.13623 -8.8311,-4.05554 5.7755,-7.74658 -8.9083,-4.64871 -10.3483,-7.51097 6.6357,-6.4479 1.3449,-9.6012 -5.0256,-12.3746 13.0996,0.56678 6.0603,11.24267 -4.1317,11.34815 -1.9115,7.47775 16.5443,2.62185 7.1047,1.68174 4.2275,13.09046 -0.2737,8.38394 3.6567,6.75692 6.8964,-4.37021 5.9391,-5.31411 3.3464,-6.38744 6.8342,-3.70763 -4.3736,-5.38394 -11.0519,-2.68953 5.0092,5.07576 -5.0417,3.01969 -5.3049,2.85375 -2.8506,-6.7168 1.9631,-8.42846 -5.8859,-3.00576 6.8478,-3.84955 3.8354,-5.89228 7.4596,-0.0852 -4.1137,7.82449 5.6442,5.88031 7.2632,-4.85178 4.4925,-5.31863 -9.2269,-10.23347 4.0425,-5.64934 -6.5829,-3.66708 3.3518,-9.27018 -8.4215,-0.21734 2.8443,-9.24881 9.56,1.27145 -1.1688,-6.7663 7.4918,-2.4623 8.0082,14.37637 -4.4334,7.34313 -3.3113,7.83527 -3.6263,8.57023 7.1687,16.51623 -6.5108,3.80407 2.9975,6.24097 10.3327,-1.32632 4.902,10.32367 4.6389,-8.36112 7.7272,-8.29357 -4.3241,-6.38138 14.3037,-4.74387 -10.2768,-9.38272 -1.682,7.33997 -9.8813,-1.45447 1.2863,14.21472 -10.6051,-9.86951 1.7004,-7.41684 0.7633,-8.29516 7.7045,3.01529 0.2789,-10.79663 -7.0803,-18.07135 11.0263,-3.02548 2.4055,-8.41788 7.3581,2.80998 -0.9151,9.20775 -0.213,7.74698 -8.3398,1.10363 7.3085,9.19484 6.1776,9.42968 4.3237,-8.82108 2.0196,-9.46622 -0.1995,-9.85798 4.876,-9.47863 -7.568,-5.26141 -8.2875,-5.08166 -0.3775,-9.80707 9.3005,-0.66495 6.5441,8.52945 2.4886,-11.70486 1.6068,-14.07499 -7.8399,5.43607 -8.6619,-8.96105 9.4658,-4.29823 9.4227,-4.44275 -14.7994,-6.67459 8.2637,-1.24756 7.7192,-5.41293 3.4251,-9.83072 9.6071,-4.94394 -8.6565,-8.44928 -9.3737,4.78388 -9.4895,-0.50794 -7.5248,7.51166 12.8802,3.99777 -8.9373,4.76581 -9.4845,2.14389 1.7588,8.52811 -9.0894,0.23208 4.6537,9.20948 -0.3876,9.00888 4.7149,5.68488 -6.7959,4.38094 0.4968,9.43786 -5.5031,9.54896 -3.7528,8.1774 0.8283,-16.24854 -6.1974,-5.58975 -2.579,9.40439 -2.9622,8.05694 -7.8907,2.4742 -0.5813,-8.5218 3.1691,-8.01578 -6.5494,-6.24802 -11.9932,-0.70745 6.5949,9.25625 -0.7299,11.15494 -6.8019,5.91846 -3.6349,7.7673 -2.7637,8.19937 -4.7137,7.37573 8.6228,1.32917 4.3845,6.16995 3.8599,7.60448 -7.6985,-0.67385 -5.5161,4.72321 -7.2564,-2.91614 -0.7859,7.53448 -1.9806,7.25702 -9.3675,5.65448 1.4488,-9.6858 3.3501,-14.0539 11.8753,-3.55827 -14.5367,-9.64683 -4.0374,-8.38326 11.2342,1.15586 5.0417,-10.34232 -14.3097,-13.82196 -4.0928,9.17968 -5.5512,7.8907 -7.7816,0.18755 -7.9497,5.42087 -7.7571,-8.18652 9.5387,-4.8805 2.8455,-8.8672 8.6173,-9.7838 21.3978,-6.40872 -5.0438,-7.22278 -7.2978,4.27643 1.7589,7.89727 11.1805,6.5236 5.0674,7.86096 5.9608,-7.07516 -0.5555,-8.07682 -1.4319,-8.82336 4.1611,-9.89478 12.64,3.53382 -4.0353,-8.06326 6.6578,-8.26374 -6.5689,-8.99736 -9.2809,9.18425 -7.4747,4.74377 -2.3752,-10.35485 8.8881,-4.47025 3.8658,-7.75876 1.3649,-8.59064 7.389,-1.77609 1.5709,9.74533 7.5658,5.15018 4.4714,-8.6998 -5.9277,-4.77164 8.2005,-6.22317 7.2818,0.7735 6.4446,4.83127 -5.7108,5.7914 -4.86,7.14085 -3.8614,8.33925 -2.0293,8.16908 -4.5525,7.94635 5.5307,10.04227 8.9023,-3.0881 -4.4353,-6.9539 9.9285,-2.6555 -3.7002,-7.76457 0.9565,-8.58383 6.049,-6.58063 6.0231,-5.86307 -0.5624,-7.27145 4.2445,-6.25577 -9.7717,-3.06244 -7.2156,-3.68201 -5.6294,-4.57519 -5.5852,-5.60022 8.4265,-4.5835 -0.1167,-11.26699 4.3479,-10.62773 5.0078,-8.41036 2.0683,11.3706 8.1732,-0.28804 5.3399,-4.5113 -7.6294,13.5887 -9.7635,-0.8821 2.4397,8.1961 -0.3928,9.63868 8.9633,5.07465 5.3798,-7.48143 5.7672,8.90766 11.9456,-1.06564 3.0273,-10.6582 -10.5491,-2.72379 -7.6064,-9.80593 4.4001,-5.50226 6.9025,-3.25744 8.1398,-1.68534 9.709,2.49197 8.2955,7.11237 -9.2733,6.57983 10.6047,5.99652 -2.1632,13.62395 -8.7611,-7.28932 -10.5957,-17.12118 7.8689,-19.8443 -11.8247,-0.3855 -8.499,3.16076 -1.0989,-11.16638 -8.6426,3.42438 -8.2748,-5.01856 -8.252,0.5063 -6.2762,8.55596 -10.0737,-2.54996 1.6205,7.13516 2.7783,5.93082 -6.7508,3.75229 -4.0613,7.71728 10.6953,0.33307 -5.71,6.97931 -7.5008,4.53113 -2.8649,7.92334 8.7883,-0.2357 -1.9055,9.5122 -8.1731,-0.1587 -8.2623,2.0341 -1.3019,-9.79414 2.6927,-7.68854 4.0756,-6.90756 -7.9029,-3.33521 6.9598,-6.27455 -7.1044,-3.77452 7.1468,-6.41351 6.8607,4.09967 2.1771,-8.58597 -16.462,-5.56619 0.1335,-18.30092 1.1306,-7.60305 10.7481,-8.42039 0.1473,9.38228 -2.1627,7.50714 -7.2092,6.37268 -8.1851,5.14658 -2.4465,7.70153 -20.2083,7.58977 -9.6903,6.79414 -6.6153,5.71576 -7.5688,6.0419 -0.8575,-9.00836 4.3503,-7.9404 8.8731,-3.89774 19.3474,1.7008 -0.1466,7.82347 2.0788,9.42331 -3.6604,7.13502 -6.5172,-16.7953 0.5362,7.34918 -3.7723,6.94082 -8.6047,1.48246 -7.01,4.29944 5.6205,7.59894 9.6932,-2.49724 -0.2763,10.17433 7.6892,20.98337 -7.1868,-8.0346 -2.8095,8.6076 -4.5216,6.8416 -9.5394,0.5705 2.7118,-13.27743 -0.5857,-12.46265 -8.0477,3.88355 0.8632,12.91745 -8.0778,1.35144 -6.9816,5.67084 -2.3309,-7.7926 2.7966,-8.954 7.5524,-10.018 6.8113,-10.23253 -3.2408,-6.94202 -3.7323,-7.64505 -8.3358,-3.07407 -13.3103,-9.36297 4.7705,5.68434 6.8087,12.18278 -5.6805,-4.61746 -10.1149,0.30063 -3.3392,-8.38867 -6.944,5.04904 -5.641,-6.19855 5.7193,-6.04229 -6.6973,-3.86798 5.292,-5.58677 7.2336,-0.0505 8.2856,-1.57279 1.8209,-8.93896 -6.7537,2.84317 -7.5023,-0.91525 -6.8717,2.37835 -2.564,-6.8428 -5.0614,4.38473 -5.5345,-5.76843 -7.2319,-4.87698 -8.3186,0.80084 0.9652,-11.45813 4.8943,19.52572 7.4765,5.40482 -8.5032,16.18955 0.4772,14.39651 -10.7475,-0.67474 2.6939,10.58471 22.7587,-1.32295 4.7041,-9.01515 5.0274,8.25655 -6.0281,10.1641 -3.6047,8.1869 -6.597,-8.79673 -8.0809,6.41783 -2.9735,10.5848 -10.8311,4.22573 7.156,6.76215 5.1179,8.08887 7.9734,-1.12995 8.5315,1.93628 -10.5593,7.25485 9.744,2.78455 -6.2465,5.6575 -0.6226,8.8093 10.6024,-4.7891 5.0873,-9.66366 4.5377,6.29198 1.6369,7.7471 -4.119,6.7705 12.7616,-2.78086 8.471,4.05426 6.6495,-5.879 2.1044,10.76645 -16.0136,2.83435 -7.7383,-2.5426 -10.5294,2.2237 -6.6853,-8.3426 0.3185,15.29812 -8.36,3.61423 -0.5124,11.0896 8.5141,0.0691 8.2788,7.95688 16.711,10.19232 8.7723,5.35837 -8.6509,6.444 -2.8358,12.08814 -11.4123,0.45907 -8.8338,-1.01413 3.4635,-11.65862 8.7589,1.63467 0.9024,-8.04175 -2.8721,-7.9563 -8.123,4.10141 -8.9919,-7.17368 -7.0423,-1.9006 -5.4889,-6.71069 0.9149,-8.70069 -1.4836,-14.14843 11.2736,-2.73064 -5.3422,-6.7226 -5.4273,-5.9206 1.558,-9.031 -4.493,-7.3498 -8.1153,-4.23175 5.9355,-4.84592 -5.414,-4.78976 -8.197,3.89575 -6.3333,7.18524 -1.5263,-10.3974 -2.868,-9.85004 -4.6517,-6.28332 -2.4529,-13.3764 -8.4463,9.1038 -15.4791,3.99153 6.4774,-5.94266 -0.2178,-9.51287 -3.5245,-7.99332 -7.0758,-5.4252 -8.784,1.96908 -7.4324,4.58087 -4.4876,7.08117 -7.4832,1.72535 -2.9916,6.80525 -12.5884,-7.89274 5.5003,-7.67396 4.1174,-8.1671 8.6599,4.39834 -17.4226,-9.67004 5.6115,-6.88715 -6.3232,-8.52493 6.4368,-4.51816 6.2218,-5.49456 6.7336,-5.92353 3.3278,8.15223 6.4436,-5.13844 -2.7535,-7.99533 6.526,-3.88312 4.4239,-6.42578 7.3152,-2.16189 14.1023,7.22995 10.4546,7.01944 -6.6121,2.8461 -8.1718,1.13382 -5.5173,4.17375 3.1707,10.2956 7.3386,-4.10857 11.7186,-3.91517 -2.8746,9.36469 -5.1626,7.77481 9.1906,6.84094 6.0804,-11.39166 -0.1738,-18.1156 14.8435,-4.02964 -1.4707,12.20188 6.9509,8.96582 -6.9667,7.69913 -8.7357,3.63785 -2.959,8.71402 12.3123,-1.07398 2.7002,12.58228 5.9216,11.58044 -7.4965,15.99566 -6.419,-2.17693 1.5904,-9.06597 -3.7139,-8.01863 -2.43,-9.50592 -11.366,-6.0603 -9.7302,1.53125 0.9196,-9.8306 -9.3191,-3.1127 -5.6736,-6.51474 -5.093,-7.27124 -3.8593,6.53258 -6.5276,3.89235 -4.0058,6.81485 -7.9336,-3.487 -4.5672,-5.8472 -0.915,-7.89734 8.4319,-1.47946 8.811,2.78412 0.8756,-7.44089 5.615,-9.43421 2.779,-7.77456 6.6428,-2.22861 4.7766,-13.2373 5.3821,-7.25489 9.1485,1.73713 9.5762,-8.43879 -9.9725,-0.82792 -2.4998,19.04199 9.1979,-0.21092 11.4877,-3.27028 -7.4439,-6.1585 7.6109,-15.96255 7.578,-5.31773 2.8319,8.09735 -9.0297,9.30229 8.3966,-0.83196 9.6533,-4.61766 -1.2507,6.37116 10.0769,7.4928 6.3589,-0.27814 7.5094,-8.41959 -7.538,-10.32827 -6.302,8.1007 -10.8644,-13.2915 -1.2423,-7.98518 10.502,-0.63018 10.2143,1.64299 2.8528,-9.00029 10.0272,-4.10531 7.3553,-6.22979 5.0395,7.46294 -3.3252,7.57733 -9.0173,0.39229 -2.916,7.88527 1.9918,10.10081 4.9136,8.3686 -5.6978,7.60325 9.3873,1.58808 20.1391,-4.77646 -9.8472,2.57878 15.893,16.85078 4.179,8.35919 -7.7297,2.70435 -3.759,7.97192 4.6692,7.79682 9.381,1.08758 2.0172,-11.01739 5.5546,-6.61055 7.4534,-1.41127 8.4631,-0.85913 6.3824,-3.41126 9.9975,-1.11157 -4.0192,-10.018 -3.8256,-6.84154 4.6507,-6.72823 7.8614,4.551 1.2321,9.65759 8.3435,-5.14862 -1.4759,-7.64191 3.8078,-5.89975 -8.708,-3.00267 -8.4589,-2.44905 -6.2379,-3.87982 -0.7959,8.04959 -5.0387,7.03014 -2.4739,-6.51345 -8.5834,4.72426 -9.8227,1.06392 -8.7255,-0.25728 13.5454,7.73548 9.8268,-2.00042 5.728,7.67814 -8.3303,-0.44024 -14.7471,6.15869 -8.728,-9.13667 -1.416,-19.27226 9.5121,-0.84113 7.9105,1.779 7.4671,-0.70302 6.6171,-4.5112 -9.8008,-3.04868 -6.6731,-2.39988 -8.6783,-0.945 -8.9721,1.35587 -8.1179,10.29584 -14.1422,-13.46222 6.4764,7.62562 5.956,-5.73292 -3.5102,-8.59705 9.8357,0.8382 3.4031,-8.06754 7.2045,6.09024 7.785,-6.4754 1.8978,8.46338 9.486,0.41452 -2.1648,-8.73523 8.5957,0.0705 3.8535,7.34726 -6.3161,7.5329 7.1171,0.50008 6.7765,-1.97884 3.3378,-6.92723 -5.6382,-6.18414 5.0493,-6.88567 0.8409,-6.88099 3.8869,-5.6198 6.5772,-3.64919 7.8489,2.37716 -1.3948,-8.99802 8.5493,2.043 2.2001,6.8323 1.0486,6.50722 7.4225,-0.58333 5.1605,-5.54077 2.6501,7.44748 -6.837,7.1438 -1.9402,8.22565 -9.1602,3.10388 -6.9756,8.00943 -14.3187,-14.34555 6.779,-3.15553 -0.7396,-8.8053 8.2922,5.34742 -3.3415,11.83909 -7.0488,4.41688 -4.6965,7.34601 7.7383,2.66376 7.4923,4.27772 7.7041,8.4113 1.0949,-8.29472 8.0497,-1.86987 -0.7898,-10.14457 10.0573,-3.26152 -0.9595,8.59943 0.6105,8.69165 -1.1414,11.12068 -2.3621,15.75058 4.6392,-5.86474 5.5994,-5.42905 -0.3767,-10.04256 3.2307,-9.52113 5.6574,8.53238 5.3733,-7.44087 4.1099,7.21827 -3.7739,7.54041 7.9403,0.79721 7.1677,3.73126 5.2797,-7.5885 -7.2797,-2.6339 -2.5389,-7.73488 -5.2307,-8.51724 -15.3214,-13.54628 -8.2752,-8.86189 -2.3575,7.45761 8.2329,11.34166 8.3193,2.44348 3.9235,-7.73999 -0.5878,-8.40965 6.1233,-7.32602 -0.2092,-8.78958 7.5611,4.13736 0.8273,8.49124 -4.991,6.73892 2.8987,7.73911 8.3599,-5.09073 6.1241,-6.37102 -1.5095,-6.91705 -3.5367,-6.29138 -5.4087,-6.862 -7.167,-3.04095 0.01,-7.49534 2.1838,-7.53782 5.9727,8.37966 7.6134,7.64496 0.5917,-8.32464 6.6077,-4.83631 3.5361,-6.74807 7.4521,-6.49396 -21.6733,-1.62244 1.5309,10.73824 -7.061,-4.45706 -11.8587,7.31481 -6.1782,2.41852 -13.9415,-4.52037 5.0108,-3.16652 6.0881,-0.0941 -3.5357,7.31938 -5.1409,3.54705 -2.7127,5.91726 -0.6203,7.07981 5.05,5.55476 2.6233,7.82225 7.3888,-2.34042 -1.2286,-7.01485 2.6223,-6.90397 2.5803,-6.73047 -8.2689,0.46426 -3.1299,6.51065 -14.5477,-5.10604 -6.6864,4.9096 -1.0405,-9.35651 10.1668,-2.00284 -0.8635,-6.54763 -7.1288,2.04308 -8.1864,-2.14767 -4.0201,5.963 -8.4152,-3.5639 3.4647,-8.13118 -9.5015,-2.10778 -10.2565,3.2882 6.2807,6.73017 2.7834,7.57541 -7.0938,4.2795 -6.3386,-6.78383 -0.7669,10.58711 -3.9658,7.43544 0.6821,8.16492 -8.6316,-0.94965 -8.7657,-0.0948 -8.9337,0.54498 -8.1194,2.03082 -13.2209,4.52796 4.2948,-8.45177 -4.9064,-9.54978 -4.7041,8.18917 12.6279,-7.92946 7.673,4.1299 -3.6564,-12.31818 9.096,4.61884 7.4292,5.01939 9.1904,0.39652 4.6413,-8.00724 -1.9859,-9.77458 -8.6384,6.87599 -10.5082,-4.99383 8.2956,-6.80939 8.897,-6.50708 9.1323,4.42612 0.7852,-10.67246 9.4923,-3.96829 8.7819,-4.83678 7.7246,4.98094 8.1888,-2.42251 0.8927,9.32031 7.6809,1.59365 5.6465,2.57434 7.4509,-2.4807 -0.3455,-7.85495 -6.6742,2.41398 -7.1289,-3.27737 -1.3963,-10.22353 -10.9762,-0.38003 11.4152,-8.53439 9.7737,-6.10637 1.2879,10.75305 -2.5399,8.78741 10.3477,0.56911 3.156,9.3949 7.0227,-0.39458 0.1152,-9.23714 7.5109,4.51532 -0.8434,9.49678 6.6479,-1.30734 3.5891,-9.07672 17.9336,-1.59645 2.9988,-8.97647 -2.945,-9.11676 -8.879,0.13405 -2.196,10.94258 -17.7947,-3.25673 -5.6144,-11.50974 -6.7374,12.58293 -2.4033,-8.57936 -2.1173,-11.26451 9.031,-6.24829 9.2114,-7.43118 7.6576,7.64805 -6.4646,6.75719 3.7048,10.47591 15.3709,-8.98687 2.194,-8.20065 -11.0586,-14.791654 13.1082,-0.501726 13.0169,-1.92891 10.9126,-0.6114 -3.7057,14.00053 -9.9393,3.70748 14.5637,4.93641 5.7297,-14.58058 5.427,-7.721885 8.6629,3.936005 8.3894,-4.30686 9.2954,-6.45073 6.6661,5.52062 8.2179,-6.51311 13.4646,-4.12699 15.0642,0.553194 -10.5301,10.048912 -9.8828,4.417084 0.541,8.49813 -5.2013,7.53694 -7.1212,0.85187 2.369,-10.208115 -14.6246,-6.076465 -7.1358,4.80907 -6.6612,4.635445 -8.1442,-0.413765 -8.3356,3.68741 -8.6101,19.12099 -9.3446,0.27144 3.1918,-9.64422 13.7355,3.74432 19.9755,2.60683 1.4104,9.51871 9.1092,5.51637 -0.7978,9.36908 -9.9821,-4.1556 9.5973,-15.50847 6.6623,-5.09328 -0.046,-8.977 16.4033,5.91856 -6.3466,7.88428 -7.8091,4.80317 5.2521,-13.07986 -6.6144,-15.08196 -8.4211,5.26258 -1.1502,8.41937 -10.4047,-3.98772 -9.7358,-0.36763 2.082,16.91644 -14.6739,4.59151 8.4859,5.42775 0.8444,10.60208 -9.3021,1.23471 12.6903,8.31549 -8.052,-1.28177 5.1521,8.39081 -4.2522,10.10433 -8.0515,2.48164 -0.401,-8.09477 -6.5084,-4.95404 -7.4556,7.62553 5.6577,6.4495 -9.2338,3.56134 3.6162,7.05947 1.6987,7.19144 -3.7506,6.94681 4.7347,6.00212 2.4447,6.6714 6.5755,3.90898 1.8591,-9.25914 -4.8829,-7.74316 1.7856,-8.15109 9.0934,-0.51685 -1.1282,7.97247 6.2498,7.31146 18.9687,-10.2127 8.6862,-10.95104 12.4414,-4.77954 -7.2373,-4.7042 -9.124,-13.37622 -7.7154,6.2633 -2.9726,-9.51459 -1.8272,-7.81842 10.6011,2.84513 10.2198,1.56373 5.1696,-14.79303 5.1148,-8.11836 3.7224,13.94834 10.5217,6.20693 12.808,3.78165 8.9333,10.11986 -14.8972,-3.26442 -19.703,6.87555 -7.9203,-4.99437 16.0862,-1.74864 -8.314,-5.3779 -15.598,10.37237 -5.6258,4.89963 -3.4198,12.32254 -8.4277,4.76224 0.1639,-8.64744 -3.8891,-10.15623 -6.0916,13.64321 1.7806,9.06155 5.4368,6.31354 6.8382,5.18251 -6.4482,7.35795 -2.0609,9.61627 -8.9599,-5.99479 1.2844,9.9066 -0.1862,8.32639 -3.6369,8.82437 -6.4959,3.58725 -1.0662,7.89575 -9.2207,1.46976 2.2336,-9.52019 6.8571,-9.16103 1.9978,-10.27826 -9.7078,0.5835 -2.2662,-7.59275 -6.3682,-5.92091 -2.0981,-8.2597 -7.515,4.40687 0.1134,8.43183 6.835,5.66966 3.1265,8.38152 7.6342,3.22378 -5.2145,5.18608 -7.3904,1.76875 -5.0754,4.95037 -6.9468,1.29747 -4.4063,-6.04828 -7.6525,-0.70769 -7.284,-4.26094 -2.7217,8.93459 -6.2771,6.1374 -10.8304,4.94147 -7.7311,4.72373 -9.6677,7.25417 -7.1411,4.03821 0.5111,8.1969 -1.2489,7.52597 -3.1924,7.27481 -4.7208,7.32288 -7.0973,7.84924 7.9841,0.0443 12.4723,-0.008 0.3291,11.17873 -10.4802,3.9144 5.2266,7.90033 -7.8685,1.43884 -9.9481,5.79236 10.4361,9.75959 0.7131,7.90735 -8.0237,1.41433 -5.2351,6.65354 -10.4602,-6.16474 5.0806,-9.94128 -11.2718,3.79748 -8.2595,-4.40155 -9.467,2.04312 -16.8444,9.3346 -7.7052,-3.13675 4.9382,-6.59979 -10.1584,-1.12056 -7.6802,-6.29695 -1.8794,-7.14441 7.4663,-3.22382 -17.955,0.84161 -8.8848,-3.57663 2.9975,-10.4556 8.8465,4.43192 8.5146,0.83033 0.5608,-9.10415 8.7656,-2.51326 -5.3627,-7.93222 7.2479,-3.91088 -3.0891,-8.64362 16.3694,2.43805 3.8884,5.81909 6.4115,-2.10396 5.9037,3.15493 -6.803,4.56717 -1.4621,7.0223 -7.1296,4.2906 -6.5965,-5.2768 -2.5147,8.20843 -7.2582,3.23053 5.3489,8.12738 -5.8202,8.53896 7.9915,0.56532 6.735,-5.57205 2.6892,8.55878 3.7849,9.82897 11.5593,6.5365 19.4459,8.29698 1.4741,7.9308 -11.0433,-1.56115 -9.699,-1.57325 2.4851,10.6883 -3.4021,8.80554 -11.6225,0.46601 -0.9971,11.50409 -8.0111,-4.12757 -4.0454,-8.16977 -8.2913,-3.52096 -7.2769,3.97934 1.3305,8.81466 8.6582,-1.0007 -1.9284,8.93796 9.5213,0.5353 6.4015,6.6631 7.9756,-1.67444 5.9383,-7.06601 5.1852,7.95968 1.5202,12.31837 -2.948,8.99133 -8.08,-4.45908 -8.0168,7.26001 -4.4907,8.18866 7.1809,5.37208 7.707,-7.09214 10.3392,-1.08326 -2.4591,10.82605 7.0706,7.34909 8.76,8.04316 -9.0623,4.08957 -11.7175,-8.22791 -11.313,-2.46176 -3.3794,10.22272 -2.7795,10.13992 10.4699,-3.72914 9.3753,-3.51552 -9.5675,10.93432 6.9139,5.1814 3.2263,-7.78637 4.66,7.81439 5.9445,-6.93902 9.089,3.85802 1.2526,-9.32837 -8.3018,14.65217 -13.1704,6.82088 8.0316,-0.55068 -12.1761,6.52128 -4.7173,-4.76808 -0.47,-7.26692 -5.7433,10.89616 -2.2152,6.72304 -6.57,2.6209 -8.045,3.2406 -8.9256,-0.21387 -8.76,5.36817 -6.1072,5.62677 -7.8876,3.55363 -4.687,7.54823 -11.1438,2.32154 -5.8623,-6.88507 -5.998,-12.2662 -1.9257,9.32393 -9.2131,3.85553 -9.8949,-0.26186 -7.3351,-0.67326 1.8592,8.18986 -7.7974,-0.192 -7.4081,9.85346 0.035,9.71894 7.3424,-7.15705 7.1881,-3.78558 3.568,8.75458 -6.4451,6.9682 8.8197,5.90051 -6.9997,2.95054 1.2867,7.8519 -1.5591,9.9351 -5.3374,9.0222 -6.7606,12.9301 6.741,20.8556 2.9032,10.7164 4.5922,34.29334 7.8583,12.52946 -21.4882,22.0349 13.2885,1.7488 12.4936,-0.0663 11.0307,7.72724 14.294,-5.44776 28.9128,3.77802 24.2833,-12.02552 25.1386,13.01636 15.3304,-0.1651 6.737,-4.0744 10.3875,0.19836 37.8471,0.96814 -14.2802,0.18427 -11.6215,-0.70093 -27.1436,-14.70724 -6.5723,-9.0215 -7.1408,-20.7871 -5.1597,-27.2067 -7.6571,-27.30846 3.5302,12.65386 8.1993,28.7105 4.3934,24.5212 -3.0855,16.6085 2.2251,6.3439 0.2579,9.3617 -10.0394,-4.12795 -10.9396,0.93189 -11.5376,13.61626 -10.8018,-4.81005 -27.1452,-3.55965 -24.7972,-11.23106 -5.9658,-10.75 -9.3247,4.81026 3.5224,-13.4126 -6.94,-10.4927 -4.8893,-11.858 -4.1252,-10.8099 -9.6756,-32.6865 -7.0698,-19.35806 -7.6614,-8.82348 9.1606,-0.69216 6.3551,-6.5754 -8.9528,-2.579 -8.331,-2.1669 -3.0747,-9.50894 14.7716,3.35934 2.7183,-8.62784 -10.8844,-1.17056 -8.1147,-5.56106 8.0937,-6.75204 -7.2138,-5.68986 7.8544,-5.55084 8.1174,-1.7718 -2.2226,-8.32885 8.2198,-4.58325 1.0792,-9.5136 -8.5424,3.5078 -6.0588,-6.63885 8.2507,-4.66405 10.2155,-0.8978 -4.932,-6.79747 -7.3955,-3.86283 -5.9149,5.75346 -8.07,0.14144 -0.8044,8.2434 6.5166,14.35893 -3.4311,8.09597 -1.5767,-13.7356 -8.5943,-2.5292 -10.3706,3.68635 -4.5409,-8.86745 -10.4298,-10.69755 -11.7119,-1.26345 4.7602,11.3762 8.9579,-1.545 9.8452,-5.5665 6.3617,6.7428 5.8967,-4.587 1.5089,-8.365 7.4638,-4.65143 7.7412,-2.84744 8.4554,-3.30835 -5.11,-6.30234 -4.4118,-6.56 -0.8228,-7.79241 -0.2347,-7.57393 5.3009,-7.34237 -0.8547,-7.53659 -0.1728,-6.93496 -8.1365,-0.30942 -8.2619,-2.18439 -6.4757,6.65493 6.5867,2.869 6.4548,0.9436 4.6011,4.11954 -6.785,5.23672 -2.698,8.98261 1.223,9.59961 2.1877,9.84036 -8.6175,5.44616 -5.3683,7.96497 -13.0737,-4.09835 -9.044,0.18866 -5.7428,-6.39023 9.8617,-4.13525 10.169,2.1799 0.604,-8.8329 8.2662,-4.08092 -0.4128,-9.78528 4.7218,-8.56855 -7.9422,-2.97509 -5.561,6.70569 -1.9345,8.08895 -6.8663,6.63254 -9.6826,3.26358 -9.4027,3.32828 1.109,-9.87048 -10.8652,1.90912 -7.6514,5.24881 -4.7444,-6.71085 7.2689,-11.29514 8.651,2.55894 9.5369,-2.49436 10.0181,4.61484 4.0647,-7.85016 -7.3047,-4.57032 5.415,-8.27734 7.7672,3.99899 5.3615,-8.29638 -6.0121,-3.77047 6.8341,-6.2527 7.356,4.17515 2.3766,-10.09348 6.7015,-6.23993 2.8889,-7.89392 -5.8486,-6.1778 15.0107,5.47228 7.6506,-5.3517 1.9007,9.4877 14.8211,4.56232 -4.557,-8.0119 -2.379,-11.55242 9.1412,-4.26124 -5.5728,-10.11786 -0.4795,-10.0445 6.8412,3.55106 4.5539,-6.72263 5.407,-5.21829 -6.4265,-3.66589 -18.5957,13.42239 -4.4175,8.88672 -7.4121,6.23972 -7.589,7.47665 -1.897,-19.3717 0.9544,-10.88953 8.9024,-5.8105 -8.2873,-5.03435 5.9333,-6.78427 1.0004,-9.41403 7.895,1.36517 -9.7606,-11.76612 7.8462,2.0232 6.6921,-6.2268 8.9451,-2.63822 9.3879,0.77798 5.9417,6.98684 -10.886,4.08888 -10.0264,-1.0383 -12.3034,-12.78192 4.7375,-15.86506 -3.1865,-8.61477 -7.6665,7.55432 3.6045,7.53275 -11.7839,-0.95908 5.5202,8.23795 -8.8546,0.24813 -10.4886,-2.61727 -19.799,11.68057 -8.3514,-0.25302 1.4665,7.82532 -8.8086,-2.21235 1.344,7.70902 3.1235,8.42151 7.7207,14.76437 15.7397,-1.13278 8.0649,1.34338 -14.9335,5.11095 -2.0868,8.41026 -0.187,11.04581 -18.339,-5.01807 2.6382,-8.6312 5.2951,-5.3825 1.9935,12.09985 18.6919,2.38895 2.3315,-9.67728 10.7162,-3.05732 1.1824,11.58967 -5.7495,7.16236 -9.7308,5.18032 -1.6431,9.36332 13.6151,5.04126 -9.2427,4.66363 -9.805,-0.24806 -4.9641,-14.88066 -7.2638,-7.05289 -5.3952,8.60461 4.9326,7.08268 -18.0118,-0.63587 3.9282,-7.34332 4.6917,-7.79919 -7.8953,-8.41492 -1.5238,7.85236 -8.4491,14.06146 -7.1144,-3.85114 11.3559,-3.20184 -7.2171,-3.78992 3.5048,-7.36216 0.7167,-8.09444 -9.4731,6.87794 -0.7555,-8.69984 -7.583,2.38434 -0.596,8.08557 5.7468,6.48611 -7.7329,1.87282 3.7644,6.81007 5.2742,6.23133 8.3045,12.4609 8.3371,2.7139 15.4145,2.4648 1.8016,-8.68907 -9.2794,6.82922 -10.5942,-11.08157 -7.7156,-0.72534 16.2708,3.25946 5.8025,-6.53406 20.2388,14.89221 -6.0921,8.14625 -6.7156,7.18014 -9.7205,5.55893 -2.9958,-11.28012 -8.1326,1.87023 -5.2735,-6.24606 -8.1037,15.82928 -8.5053,3.69208 -1.6014,-8.06286 -8.362,3.51938 -11.6083,-2.5986 3.2476,7.67977 -5.6548,6.46469 -9.2912,4.10864 -11.3132,2.9311 0.2334,-7.3814 7.7947,-3.62715 7.2204,-4.69018 -5.6621,-18.5325 7.6438,-3.55807 -0.3109,-11.38725 -5.3526,5.36292 -7.1979,1.78383 -4.2588,-7.00817 -9.6345,3.04612 -3.8662,7.50637 9.286,-1.40632 5.4348,6.248 -5.5029,4.90033 -5.5209,-3.66563 -1.2755,8.41017 -3.8201,6.67623 -6.2313,-3.56402 2.6263,-7.8346 -2.8845,-7.33558 -7.7778,2.94264 1.4472,7.8092 -0.4124,9.92392 -8.7987,5.57094 2.6599,-9.37062 -7.3078,2.37717 -3.1844,-8.00217 8.0388,-2.74753 -1.0308,-9.25415 0.1199,-9.92276 8.3387,4.67196 1.7326,-9.2053 7.3137,6.7006 4.1717,-7.143 -1.617,-8.169 10.2966,-2.90973 0.9092,8.16393 15.002,1.45393 -6.0545,-6.74433 -1.54,-9.25628 8.7214,-1.54825 3.3122,8.41379 6.7441,5.11499 8.1564,-0.31501 6.3125,4.69076 2.4161,-7.9155 6.1408,7.35533 8.4521,15.5033 0.068,-8.02967 -7.7008,-0.0412 -3.453,6.1604 -15.3986,-7.29931 8.9552,1.18538 -2.3342,7.53736 -6.7542,1.9246 5.4285,9.03394 6.9786,-3.9305 7.8159,-1.54168 6.208,5.57678 7.5951,2.73054 5.022,8.51036 -4.551,7.22548 -8.327,0.42486 -7.6246,4.25326 -6.064,6.2426 -0.304,-12.52433 -5.9778,5.44423 -2.0531,7.44337 -4.4551,5.78963 2.184,6.59837 5.8423,4.14333 0.8196,7.19224 -1.2422,7.47492 -5.867,6.93234 -15.5437,7.22415 6.8882,4.41965 7.8523,-2.8023 7.6166,-0.72996 1.0218,-7.81598 7.3467,-3.23756 -0.2634,8.42494 8.4224,-3.61324 7.698,-5.5655 -7.986,-3.71582 -8.3988,-3.64124 -0.4651,-9.47888 7.1929,4.67884 2.1054,-7.49646 7.9698,-0.10924 7.1623,5.4781 9.0198,-2.79016 9.2263,5.6059 -7.9754,4.32312 -4.6828,6.85321 -5.9543,-5.76825 -8.2972,-3.86426 -3.1271,-17.85926 0.8848,-9.32766 -7.9132,4.21353 -2.6076,7.95209 -8.4974,-1.3374 -14.8255,-9.38642 -6.4027,5.33356 -7.7404,-1.47507 2.4542,9.24807 -7.3547,3.99018 -8.7707,0.51367 -1.5733,-9.7536 8.1032,0.58359 -7.9634,-9.95239 -12.772,-11.32901 -7.5914,5.72314 11.5128,12.01178 0.8087,9.10276 1.0084,8.60971 7.0092,5.42141 7.5615,-2.45564 9.0869,-1.83186 -1.1286,16.34222 -3.4561,-7.78302 8.8659,1.82266 4.1058,-7.01443 -0.8499,-7.82557 3.0446,-7.08434 5.5178,8.57242 1.6081,7.14505 -4.7974,6.17967 -2.7205,7.70137 -8.9279,14.20703 -10.7691,2.89136 4.5693,-8.51846 -3.9882,-8.0743 -5.1917,-6.08724 -10.2287,-2.87226 -5.969,7.1191 -9.1184,2.2812 -6.4579,8.2227 -4.2365,-7.402 -3.4142,14.7865 7.7948,7.54036 10.1151,1.07454 6.9209,-5.1553 9.3437,2.9562 -0.5029,-8.61695 5.5762,-6.67249 -6.4897,-6.48216 -6.1681,7.03123 -8.0239,2.50567 -6.385,6.1043 -11.9656,11.16823 -8.5619,-1.20303 -9.4133,0.64346 -8.2642,4.16449 -0.8415,-9.00875 -2.6376,-8.1657 9.3608,1.8681 8.9406,1.9313 4.3011,-9.22035 -10.5219,-1.3883 3.2166,-8.12545 9.6978,-0.1231 13.6155,-7.99004 7.8802,-1.36383 4.9174,-5.60783 -3.2333,-7.31588 -0.2302,-8.09228 -10.1801,-11.98514 -17.2937,12.31027 10.5704,20.26368 6.7293,-11.46845 -11.3611,4.08368 -5.5051,7.97855 -8.7554,-0.32166 -7.281,6.71597 -2.1921,9.48096 -10.2154,13.56696 1.6938,7.85234 -9.3626,-0.0372 -7.778,-4.4859 -2.7684,9.2784 -12.0472,-1.7188 -9.542,-7.776 6.1736,-9.61004 -13.1035,18.82837 21.3244,-11.17846 3.1215,-10.60102 13.8408,-4.33789 -6.8881,7.58764 8.0491,2.6344 7.5143,-7.0745 2.413,-9.5154 -26.6741,-43.14874 10.7483,-8.26246 10.3474,-0.75255 -9.9215,-9.68949 9.0481,0.35414 7.8943,-2.7162 7.3414,-3.9008 1.7961,-7.36003 4.9429,11.44687 -6.5161,4.61868 -6.4653,3.8436 13.0522,-1.30382 2.6633,-13.5944 0.5681,-7.84626 7.321,-2.84747 8.3563,-3.54407 0.012,9.2386 -7.8724,4.3568 2.9857,8.24084 -6.9703,1.00803 12.2624,14.24803 -1.62,9.85936"
       style="fill:none;stroke:#000000;stroke-width:4;stroke-linecap:round;stroke-linejoin:round;stroke-miterlimit:4;stroke-dasharray:none" />
  </g>
</svg>
