<?xml version="1.0" encoding="UTF-8" standalone="no"?>
<!-- Created with Inkscape (http://www.inkscape.org/) -->

<svg
   xmlns:dc="http://purl.org/dc/elements/1.1/"
   xmlns:cc="http://creativecommons.org/ns#"
   xmlns:rdf="http://www.w3.org/1999/02/22-rdf-syntax-ns#"
   xmlns:svg="http://www.w3.org/2000/svg"
   xmlns="http://www.w3.org/2000/svg"
   xmlns:sodipodi="http://sodipodi.sourceforge.net/DTD/sodipodi-0.dtd"
   xmlns:inkscape="http://www.inkscape.org/namespaces/inkscape"
   width="8000"
   height="1000"
   id="svg5091"
   version="1.1"
   inkscape:version="0.48.4 r9939"
   sodipodi:docname="New document 5">
  <defs
     id="defs5093" />
  <sodipodi:namedview
     id="base"
     pagecolor="#ffffff"
     bordercolor="#666666"
     borderopacity="1.0"
     inkscape:pageopacity="0.0"
     inkscape:pageshadow="2"
     inkscape:zoom="0.175"
     inkscape:cx="4229.2857"
     inkscape:cy="-562.85714"
     inkscape:document-units="px"
     inkscape:current-layer="layer1"
     showgrid="false"
     inkscape:showpageshadow="false"
     inkscape:window-width="1920"
     inkscape:window-height="1025"
     inkscape:window-x="0"
     inkscape:window-y="27"
     inkscape:window-maximized="1" />
  <metadata
     id="metadata5096">
    <rdf:RDF>
      <cc:Work
         rdf:about="">
        <dc:format>image/svg+xml</dc:format>
        <dc:type
           rdf:resource="http://purl.org/dc/dcmitype/StillImage" />
        <dc:title></dc:title>
      </cc:Work>
    </rdf:RDF>
  </metadata>
  <g
     inkscape:label="Layer 1"
     inkscape:groupmode="layer"
     id="layer1"
     transform="translate(0,-52.362183)">
    <path
       id="path3752"
       d="m 400.85782,326.83007 c 14.37396,0 37.84947,-4.95126 45.76695,10.57315 3.94192,7.7278 1.81147,19.72247 1.81147,28.16217 l 0,63.38382 0,188.38964 c 0,23.11228 6.94466,59.33487 -1.06254,80.99129 -6.95004,18.79489 -30.80267,14.08451 -46.51588,14.08451"
       style="fill:none;stroke:#040404;stroke-width:0;stroke-linecap:round;stroke-linejoin:round;stroke-miterlimit:4;stroke-dasharray:none"
       inkscape:connector-curvature="0" />
    <path
       id="path3754"
       d="m 448.43624,335.63375 c 14.93252,-13.79471 38.9543,-8.80368 58.15137,-8.80368 19.50359,0 39.21691,-1.24257 58.15136,4.43359 36.57718,10.96542 69.24237,49.29391 64.69608,88.88186 -2.87587,25.03083 -12.37747,45.77872 -31.72426,62.5465 -7.42399,6.43627 -30.85023,15.46325 -28.73559,27.23996 2.47234,13.77943 31.77006,24.10789 41.42316,33.62348 28.9435,28.53992 37.35253,66.9862 26.06764,105.47531 -17.41016,59.37546 -76.17826,63.38388 -128.11619,63.38388 -20.92042,0 -43.92901,4.88931 -59.91357,-10.56396"
       style="fill:none;stroke:#040404;stroke-width:0;stroke-linecap:round;stroke-linejoin:round;stroke-miterlimit:4;stroke-dasharray:none"
       inkscape:connector-curvature="0" />
    <path
       id="path3756"
       d="m 999.99318,326.83007 c 18.23842,0 33.63972,-2.90806 47.57842,10.56396 14.256,-13.78553 30.6793,-10.56396 49.3406,-10.56396 50.8737,0 84.9539,12.93063 113.2895,58.10146 16.811,26.80256 24.8288,60.47576 27.9831,91.55593 6.5024,63.91602 5.1984,134.55278 -35.3666,188.38886 -28.3003,37.56469 -61.0942,47.53833 -105.906,47.53833 -19.9124,0 -34.3269,2.4982 -49.3406,-12.32424 -14.6436,14.46378 -28.1417,12.32424 -47.57842,12.32424"
       style="fill:none;stroke:#040404;stroke-width:0;stroke-linecap:round;stroke-linejoin:round;stroke-miterlimit:4;stroke-dasharray:none"
       inkscape:connector-curvature="0" />
    <path
       id="path3758"
       d="m 1304.8475,326.83007 c 16.9343,0 29.3928,-1.90937 42.2918,10.56396 13.9388,-13.47737 29.3225,-10.56396 47.5784,-10.56396 35.0319,0 72.7774,-3.97401 107.492,0.7494 12.2647,1.66697 31.8951,2.3567 41.5342,11.05183 14.3264,12.92756 11.3307,55.01139 11.3307,72.71128"
       style="fill:none;stroke:#040404;stroke-width:0;stroke-linecap:round;stroke-linejoin:round;stroke-miterlimit:4;stroke-dasharray:none"
       inkscape:connector-curvature="0" />
    <path
       id="path3760"
       d="m 1604.4151,326.83085 c 16.9344,0 29.3929,-1.90941 42.2919,10.56396 13.9388,-13.47737 29.3225,-10.56396 47.5785,-10.56396 35.0494,0 72.7949,-3.94571 107.4919,1.0216 11.595,1.6578 32.8291,3.06481 41.2522,12.20113 11.9475,12.96428 9.8505,51.12686 9.8505,67.76845"
       style="fill:none;stroke:#040404;stroke-width:0;stroke-linecap:round;stroke-linejoin:round;stroke-miterlimit:4;stroke-dasharray:none"
       inkscape:connector-curvature="0" />
    <path
       id="path3762"
       d="m 2198.2639,326.83085 c 14.1326,0 36.7235,-4.5498 42.9968,12.32654 3.1897,8.58806 1.0575,20.87252 1.0575,29.92934 l 0,65.14561 0,184.8691 c 0,22.62821 6.7843,58.01961 -1.0575,79.22944 -6.8018,18.38888 -29.34,14.08453 -44.7588,14.08453"
       style="fill:none;stroke:#040404;stroke-width:0;stroke-linecap:round;stroke-linejoin:round;stroke-miterlimit:4;stroke-dasharray:none"
       inkscape:connector-curvature="0" />
    <path
       id="path3764"
       d="m 2242.3182,335.63453 c 12.3173,-11.38598 26.4675,-8.80368 42.2918,-8.80368"
       style="fill:none;stroke:#040404;stroke-width:0;stroke-linecap:round;stroke-linejoin:round;stroke-miterlimit:4;stroke-dasharray:none"
       inkscape:connector-curvature="0" />
    <path
       id="path3766"
       d="m 2379.7669,326.83085 c 14.0974,0 36.2475,-4.64768 44.0011,10.57315 3.9474,7.72778 1.8149,19.72091 1.8149,28.16218 l 0,61.62197 0,188.39117 c 0,23.59631 7.1016,60.64628 -1.0572,82.75156 -6.802,18.38888 -29.34,14.08453 -44.7588,14.08453"
       style="fill:none;stroke:#040404;stroke-width:0;stroke-linecap:round;stroke-linejoin:round;stroke-miterlimit:4;stroke-dasharray:none"
       inkscape:connector-curvature="0" />
    <path
       id="path3768"
       d="m 2425.5829,335.63453 c 12.3176,-11.38598 26.4678,-8.80368 42.2921,-8.80368"
       style="fill:none;stroke:#040404;stroke-width:0;stroke-linecap:round;stroke-linejoin:round;stroke-miterlimit:4;stroke-dasharray:none"
       inkscape:connector-curvature="0" />
    <path
       id="path3770"
       d="m 2587.7021,326.83085 c 14.1325,0 36.7235,-4.5498 42.9967,12.32654 3.1895,8.58806 1.0573,20.87252 1.0573,29.92934 l 0,63.38381 0,184.86906 c 0,23.11227 6.9429,59.3349 -1.0573,80.99128 -6.802,18.38888 -29.34,14.08453 -44.7589,14.08453"
       style="fill:none;stroke:#040404;stroke-width:0;stroke-linecap:round;stroke-linejoin:round;stroke-miterlimit:4;stroke-dasharray:none"
       inkscape:connector-curvature="0" />
    <path
       id="path3772"
       d="m 2631.7561,335.63453 c 12.3176,-11.38598 26.4677,-8.80368 42.292,-8.80368"
       style="fill:none;stroke:#040404;stroke-width:0;stroke-linecap:round;stroke-linejoin:round;stroke-miterlimit:4;stroke-dasharray:none"
       inkscape:connector-curvature="0" />
    <path
       id="path3774"
       d="m 2934.848,326.83085 c 14.0976,0 36.2479,-4.64768 44.0016,10.57315 3.7353,7.32939 1.8148,18.4057 1.8148,26.40038 l 0,59.864 c 0,61.47058 5.0751,125.53955 -1.462,186.62933 -3.1367,29.21591 -6.4151,58.20392 -27.0322,80.9821 -23.8417,26.32621 -63.4206,26.75594 -93.0953,10.95629 -17.6914,-9.41853 -34.3972,-30.53736 -26.4322,-51.44277"
       style="fill:none;stroke:#040404;stroke-width:0;stroke-linecap:round;stroke-linejoin:round;stroke-miterlimit:4;stroke-dasharray:none"
       inkscape:connector-curvature="0" />
    <path
       id="path3776"
       d="m 2980.6644,335.63453 c 12.6521,-11.68346 27.8248,-8.80368 44.0542,-8.80368"
       style="fill:none;stroke:#040404;stroke-width:0;stroke-linecap:round;stroke-linejoin:round;stroke-miterlimit:4;stroke-dasharray:none"
       inkscape:connector-curvature="0" />
    <path
       id="path3778"
       d="m 3100.4917,326.83085 c 14.0968,0 36.2477,-4.64768 44.0007,10.57315 3.9476,7.72778 1.8155,19.72091 1.8155,28.16218 l 0,61.62197 0,188.39117 c 0,23.59631 7.1016,60.64781 -1.0576,82.75156 -6.8018,18.38888 -29.3396,14.08453 -44.7586,14.08453"
       style="fill:none;stroke:#040404;stroke-width:0;stroke-linecap:round;stroke-linejoin:round;stroke-miterlimit:4;stroke-dasharray:none"
       inkscape:connector-curvature="0" />
    <path
       id="path3780"
       d="m 3146.3079,335.63453 c 12.6521,-11.68346 27.8242,-8.80368 44.0537,-8.80368"
       style="fill:none;stroke:#040404;stroke-width:0;stroke-linecap:round;stroke-linejoin:round;stroke-miterlimit:4;stroke-dasharray:none"
       inkscape:connector-curvature="0" />
    <path
       id="path3782"
       d="m 3266.1344,326.83085 91.6325,0"
       style="fill:none;stroke:#040404;stroke-width:0;stroke-linecap:round;stroke-linejoin:round;stroke-miterlimit:4;stroke-dasharray:none"
       inkscape:connector-curvature="0" />
    <path
       id="path3784"
       d="m 3400.0595,326.83085 c 14.0969,0 36.247,-4.64768 44.0009,10.57315 3.947,7.72778 1.8144,19.72091 1.8144,28.16218 l 0,63.38381 0,188.38961 c 0,23.11227 6.9434,59.3349 -1.0567,80.99128 -6.9609,18.79494 -30.8026,14.08453 -46.5212,14.08453"
       style="fill:none;stroke:#040404;stroke-width:0;stroke-linecap:round;stroke-linejoin:round;stroke-miterlimit:4;stroke-dasharray:none"
       inkscape:connector-curvature="0" />
    <path
       id="path3786"
       d="m 3445.8748,335.63453 c 12.653,-11.68346 27.8252,-8.80368 44.0544,-8.80368"
       style="fill:none;stroke:#040404;stroke-width:0;stroke-linecap:round;stroke-linejoin:round;stroke-miterlimit:4;stroke-dasharray:none"
       inkscape:connector-curvature="0" />
    <path
       id="path3788"
       d="m 3690.816,326.83085 c 10.0976,0 23.9306,-2.45536 33.4812,1.06288 31.2605,11.51675 32.4767,54.80264 38.997,81.68858 12.4931,51.4618 22.9961,103.40838 35.2254,154.93747 4.7227,19.92967 5.5858,47.49846 19.1719,63.38382 24.4587,-17.9683 26.9969,-45.74968 34.1336,-73.94782 11.3477,-44.74106 24.1942,-89.1059 35.7009,-133.80951 4.741,-18.41868 7.1726,-47.38834 18.0097,-63.06033 17.3046,-25.01785 39.1902,-30.25509 67.2263,-30.25509"
       style="fill:none;stroke:#040404;stroke-width:0;stroke-linecap:round;stroke-linejoin:round;stroke-miterlimit:4;stroke-dasharray:none"
       inkscape:connector-curvature="0" />
    <path
       id="path3790"
       d="m 3992.1456,326.83085 c 10.8195,0 28.9881,-3.47699 38.6621,1.80996 9.657,5.26786 7.1542,17.69457 11.4363,26.20461 8.2822,16.44432 22.2918,32.77163 31.7022,49.45454 37.7982,66.977 73.764,135.07273 110.8216,202.47568 19.367,35.23998 43.7557,62.68489 47.0326,103.87949"
       style="fill:none;stroke:#040404;stroke-width:0;stroke-linecap:round;stroke-linejoin:round;stroke-miterlimit:4;stroke-dasharray:none"
       inkscape:connector-curvature="0" />
    <path
       id="path3792"
       d="m 4196.5576,326.83085 72.2479,0"
       style="fill:none;stroke:#040404;stroke-width:0;stroke-linecap:round;stroke-linejoin:round;stroke-miterlimit:4;stroke-dasharray:none"
       inkscape:connector-curvature="0" />
    <path
       id="path3794"
       d="m 4596.5684,326.83085 c 17.8152,0 32.2128,-2.58766 45.8162,10.56396 17.0222,-16.44813 44.653,-10.56396 66.9616,-10.56396 25.4286,0 50.0984,-0.63469 74.0113,9.62798 43.9834,18.87598 60.6531,67.51076 52.3183,111.85728 -11.8944,63.18959 -75.6493,75.70959 -129.854,75.70959 l -45.8162,0 c -4.6168,7.5e-4 -12.5292,-1.3206 -15.8062,2.82316 -6.1497,7.75609 -1.8148,31.56498 -1.8148,41.193 l 0,95.07571 c 0,11.09238 -3.4012,29.05542 2.8195,38.72545 9.1094,14.13119 26.7671,10.57239 41.2331,10.57239"
       style="fill:none;stroke:#040404;stroke-width:0;stroke-linecap:round;stroke-linejoin:round;stroke-miterlimit:4;stroke-dasharray:none"
       inkscape:connector-curvature="0" />
    <path
       id="path3796"
       d="m 5195.7035,326.83085 c 14.6434,0 39.4729,-5.2411 47.525,10.57315 3.9472,7.72778 1.8162,19.72091 1.8162,28.16218 l 0,61.62197 0,188.39117 c 0,23.59631 7.1,60.64781 -1.0583,82.75156 -6.9599,18.79494 -30.8026,14.08453 -46.5211,14.08453"
       style="fill:none;stroke:#040404;stroke-width:0;stroke-linecap:round;stroke-linejoin:round;stroke-miterlimit:4;stroke-dasharray:none"
       inkscape:connector-curvature="0" />
    <path
       id="path3798"
       d="m 5245.0447,335.63453 c 14.3966,-13.30532 36.1408,-8.80368 54.626,-8.80368 54.0991,0 120.3206,16.37623 126.5756,80.99118 3.0673,31.70872 -13.9377,59.4901 -40.2287,76.50409 -11.0144,7.12984 -35.896,10.36364 -40.1423,23.86164 -4.2996,13.70145 9.3925,36.72118 14.4134,49.29014 13.6042,34.02339 27.8076,67.87167 40.8483,102.11759 5.1806,13.64023 9.2149,35.12765 20.3524,45.09061 13.4093,11.98929 36.0537,7.72931 52.6355,7.72931"
       style="fill:none;stroke:#040404;stroke-width:0;stroke-linecap:round;stroke-linejoin:round;stroke-miterlimit:4;stroke-dasharray:none"
       inkscape:connector-curvature="0" />
    <path
       id="path3800"
       d="m 5812.461,418.38599 c 0,-20.2126 -3.9833,-64.22649 9.797,-80.50179 15.243,-17.98513 59.3671,-11.06178 80.0728,-11.05335 9.9735,0.004 19.4541,0.45117 24.6171,10.57315 3.9474,7.72778 1.8154,19.72091 1.8154,28.16218 l 0,63.38381 0,188.38961 c 0,23.11227 6.943,59.3349 -1.0583,80.99128 -6.8008,18.38888 -29.34,14.08453 -44.758,14.08453"
       style="fill:none;stroke:#040404;stroke-width:0;stroke-linecap:round;stroke-linejoin:round;stroke-miterlimit:4;stroke-dasharray:none"
       inkscape:connector-curvature="0" />
    <path
       id="path3802"
       d="m 5928.7633,335.63453 c 17.6746,-16.32424 63.5434,-10.90195 86.3462,-6.89429 7.5938,1.33435 21.4444,3.01586 26.4501,9.55307 13.4629,17.60431 8.7932,59.18039 8.7932,80.09268"
       style="fill:none;stroke:#040404;stroke-width:0;stroke-linecap:round;stroke-linejoin:round;stroke-miterlimit:4;stroke-dasharray:none"
       inkscape:connector-curvature="0" />
    <path
       id="path3804"
       d="m 6096.1686,326.83085 c 16.9346,0 29.3926,-1.90941 42.2918,10.56396 13.6036,-13.15393 28.001,-10.56396 45.8163,-10.56396"
       style="fill:none;stroke:#040404;stroke-width:0;stroke-linecap:round;stroke-linejoin:round;stroke-miterlimit:4;stroke-dasharray:none"
       inkscape:connector-curvature="0" />
    <path
       id="path3806"
       d="m 6281.1954,326.83085 89.8706,0"
       style="fill:none;stroke:#040404;stroke-width:0;stroke-linecap:round;stroke-linejoin:round;stroke-miterlimit:4;stroke-dasharray:none"
       inkscape:connector-curvature="0" />
    <path
       id="path3808"
       d="m 6386.9253,326.83085 c 15.8419,0 36.3892,-3.85702 48.7771,8.3831 11.4355,11.295 14.1677,47.97565 18.45,63.8044 15.2773,56.3641 31.4716,112.51336 46.2031,169.02351 6.1334,23.53207 12.6003,47.03125 19.2437,70.42569 1.7795,6.24201 3.013,21.84137 11.9123,21.85666 8.3523,0 15.3834,-9.59051 17.6563,-16.57657 7.3307,-22.42636 11.9301,-45.92709 18.2382,-68.6639 16.7578,-60.21886 32.3708,-120.81467 47.9489,-181.34778 3.401,-13.19825 20.8111,-50.72308 12.9342,-62.82327 -5.6745,-8.68746 -32.9521,-4.08184 -42.2389,-4.08184"
       style="fill:none;stroke:#040404;stroke-width:0;stroke-linecap:round;stroke-linejoin:round;stroke-miterlimit:4;stroke-dasharray:none"
       inkscape:connector-curvature="0" />
    <path
       id="path3810"
       d="m 6439.7909,335.63453 c 12.9691,-11.97478 29.1985,-8.80368 45.8162,-8.80368"
       style="fill:none;stroke:#040404;stroke-width:0;stroke-linecap:round;stroke-linejoin:round;stroke-miterlimit:4;stroke-dasharray:none"
       inkscape:connector-curvature="0" />
    <path
       id="path3812"
       d="m 6631.8665,328.59265 c 19.9302,-4.74023 43.0134,-1.7618 63.4372,-1.7618 10.6083,0 19.8249,-0.45117 27.9306,7.5802 12.0886,11.9702 11.0309,43.1391 13.6387,59.32491 8.4939,52.77932 17.1103,105.57472 24.9176,158.45955 3.2589,22.13882 2.4491,55.28667 18.0976,72.18749 20.8466,-19.92814 20.9863,-40.86184 24.8984,-68.66538 4.1422,-29.38795 9.0584,-58.67343 13.3924,-88.03385 3.7363,-25.30001 3.2072,-45.76268 23.3846,-63.38381 12.2646,13.25486 11.6833,32.1851 14.5381,49.29852 6.0614,36.34034 11.3124,72.81376 17.3222,109.16103 1.9725,11.89066 1.6563,49.20826 14.1502,54.72615 6.3782,2.81171 14.6962,-5.75495 17.3923,-10.77809 6.9956,-13.07284 5.6738,-34.65651 7.8243,-49.22967 7.9825,-53.87359 15.9648,-107.91155 22.4493,-161.98167 1.9743,-16.60027 12.5644,-47.41432 5.7096,-63.12227 -3.7712,-8.61328 -19.56,-5.54311 -27.1379,-5.54311"
       style="fill:none;stroke:#040404;stroke-width:0;stroke-linecap:round;stroke-linejoin:round;stroke-miterlimit:4;stroke-dasharray:none"
       inkscape:connector-curvature="0" />
    <path
       id="path3814"
       d="m 6728.7857,337.39481 c 11.294,-10.91191 20.2816,-10.56396 35.2433,-10.56396"
       style="fill:none;stroke:#040404;stroke-width:0;stroke-linecap:round;stroke-linejoin:round;stroke-miterlimit:4;stroke-dasharray:none"
       inkscape:connector-curvature="0" />
    <path
       id="path3816"
       d="m 6943.7683,328.59265 28.196,-1.7618"
       style="fill:none;stroke:#040404;stroke-width:0;stroke-linecap:round;stroke-linejoin:round;stroke-miterlimit:4;stroke-dasharray:none"
       inkscape:connector-curvature="0" />
    <path
       id="path3818"
       d="m 7003.6822,326.83085 31.7186,0.47408 15.8602,5.55766 14.0966,-5.48653 31.7196,-0.55057"
       style="fill:none;stroke:#040404;stroke-width:0;stroke-linecap:round;stroke-linejoin:round;stroke-miterlimit:4;stroke-dasharray:none"
       inkscape:connector-curvature="0" />
    <path
       id="path3820"
       d="m 7160.5155,326.82549 93.3943,0"
       style="fill:none;stroke:#040404;stroke-width:0;stroke-linecap:round;stroke-linejoin:round;stroke-miterlimit:4;stroke-dasharray:none"
       inkscape:connector-curvature="0" />
    <path
       id="path3822"
       d="m 7297.9632,326.82549 44.0555,6.04781 14.0972,-5.49114 28.1936,-0.55057"
       style="fill:none;stroke:#040404;stroke-width:0;stroke-linecap:round;stroke-linejoin:round;stroke-miterlimit:4;stroke-dasharray:none"
       inkscape:connector-curvature="0" />
    <path
       id="path3824"
       d="m 7491.8022,326.83159 68.7242,0"
       style="fill:none;stroke:#040404;stroke-width:0;stroke-linecap:round;stroke-linejoin:round;stroke-miterlimit:4;stroke-dasharray:none"
       inkscape:connector-curvature="0" />
    <path
       id="path3826"
       d="m 7608.1051,397.25807 c 0,-16.54527 -2.8027,-45.622 8.3348,-59.37156 6.6076,-8.17054 22.5727,-8.65612 32.1944,-10.03329 31.8778,-4.56586 66.4694,-1.02163 98.6811,-1.02163 l 59.914,0 c 8.6688,0 18.6258,0.68823 21.7625,10.57315 2.785,8.76088 -5.8675,19.28202 -9.9217,26.40038 -11.7705,20.62938 -23.8411,41.08821 -35.7705,61.62354 -38.4695,66.23909 -76.8659,132.53175 -115.0163,198.95434 -9.8161,17.07442 -19.9655,33.9523 -29.7291,51.0588 -3.665,6.44089 -10.5194,15.04889 -9.9198,22.88908 0.7569,10.10748 11.489,13.9186 19.9998,14.07614 23.4717,0.45113 46.9971,0 70.4869,0 29.9219,0 60.2481,1.75949 89.87,-3.08702 9.0045,-1.47197 23.9655,-2.98144 30.4324,-10.13423 13.0223,-14.405 10.0973,-51.45955 10.0973,-69.52878"
       style="fill:none;stroke:#040404;stroke-width:0;stroke-linecap:round;stroke-linejoin:round;stroke-miterlimit:4;stroke-dasharray:none"
       inkscape:connector-curvature="0" />
    <path
       id="path3828"
       d="m 4233.5624,328.58424 0,239.44921 c 0,28.45961 8.7579,70.23298 -12.335,91.55362"
       style="fill:none;stroke:#040404;stroke-width:0;stroke-linecap:round;stroke-linejoin:round;stroke-miterlimit:4;stroke-dasharray:none"
       inkscape:connector-curvature="0" />
    <path
       id="path3830"
       d="m 5525.2279,599.72535 c 0,17.68767 -1.9384,53.4186 8.5646,68.28842 5.3388,7.57257 17.5859,10.25889 24.9169,15.89986 45.9207,35.33566 128.8313,46.10915 161.7844,-13.76259 7.7704,-14.10901 11.418,-31.60089 12.5098,-47.53824 5.5525,-81.00038 -74.1511,-100.01169 -133.7642,-123.60418 -37.4108,-14.80482 -68.284,-40.51242 -66.893,-84.15311 0.3212,-9.76565 1.9919,-20.57279 4.8114,-29.93162 15.6481,-51.87471 84.7251,-69.50122 130.805,-47.92059 14.4502,6.76355 40.5652,33.98055 57.7642,28.92607 9.3215,-2.74211 11.6123,-27.41277 12.7219,-35.58485"
       style="fill:none;stroke:#040404;stroke-width:0;stroke-linecap:round;stroke-linejoin:round;stroke-miterlimit:4;stroke-dasharray:none"
       inkscape:connector-curvature="0" />
    <path
       id="path3832"
       d="M 959.46346,606.76723 C 943.60925,683.30802 852.39613,742.77905 785.03568,683.70794 741.4945,645.52702 728.21126,573.72262 726.88442,518.73493 c -1.30931,-54.2284 13.86992,-123.11403 54.66936,-161.68188 39.44597,-37.2878 87.66578,-29.56381 132.09341,-7.5519 8.25054,4.08793 24.54169,5.33051 29.97789,13.069 11.6462,16.58197 6.99762,47.24312 10.55188,66.37143"
       style="fill:none;stroke:#040404;stroke-width:0;stroke-linecap:round;stroke-linejoin:round;stroke-miterlimit:4;stroke-dasharray:none"
       inkscape:connector-curvature="0" />
    <path
       id="path3834"
       d="m 2080.199,546.90549 c 10.908,0 27.4372,-3.08698 36.9704,3.06788 17.6392,11.38601 8.8459,60.85429 8.8459,79.68362 0,9.95299 5.304,44.62483 -4.0881,50.1557 -6.0619,3.57028 -14.1855,3.38138 -20.5821,6.59915 -16.1944,8.13697 -29.3928,17.58527 -47.5785,21.30159 -57.0412,11.6628 -98.6106,-30.79348 -114.8753,-81.57856 -24.7231,-77.15557 -26.1329,-195.35656 26.8024,-262.33128 33.4988,-42.38893 87.9321,-39.40824 130.3648,-15.50069 7.7888,4.38385 19.3487,5.07663 25.1285,12.45729 8.8285,11.27739 9.833,38.41949 10.1149,52.33579"
       style="fill:none;stroke:#040404;stroke-width:0;stroke-linecap:round;stroke-linejoin:round;stroke-miterlimit:4;stroke-dasharray:none"
       inkscape:connector-curvature="0" />
    <path
       id="path3836"
       d="m 3310.1889,330.34452 c -3.7002,23.35085 -29.5515,48.20428 -43.4021,66.90515 -13.8857,18.77043 -30.662,37.70989 -42.0105,58.1022 -4.4228,7.94038 -4.0526,18.72076 -9.4796,25.9255 -5.0573,6.70005 -14.82,8.1782 -20.6003,14.66568 -15.877,17.85055 -23.4189,30.74831 -44.8643,42.15876"
       style="fill:none;stroke:#040404;stroke-width:0;stroke-linecap:round;stroke-linejoin:round;stroke-miterlimit:4;stroke-dasharray:none"
       inkscape:connector-curvature="0" />
    <path
       id="path3838"
       d="m 4416.8274,331.16271 c 52.0893,-9.36648 86.1173,32.44971 108.2149,73.12884 36.4941,67.12457 30.5196,169.09079 -2.9257,235.9294 -15.5419,31.05646 -40.5475,63.90156 -77.0944,69.65267 -54.1685,8.52308 -88.2327,-36.69216 -108.6021,-80.21663 -31.3314,-66.93573 -28.8289,-156.63426 0.375,-223.60517 14.52,-33.32296 42.3619,-68.11637 80.0365,-74.88911"
       style="fill:none;stroke:#040404;stroke-width:0;stroke-linecap:round;stroke-linejoin:round;stroke-miterlimit:4;stroke-dasharray:none"
       inkscape:connector-curvature="0" />
    <path
       id="path3840"
       d="m 4947.2433,643.74076 c -23.3838,-12.22335 -28.4772,-68.07894 -30.1162,-91.55366 -5.1796,-73.88738 4.7238,-198.60185 95.316,-220.26047 59.8601,-14.31012 102.2769,42.47074 119.9852,91.73335 28.0191,77.95619 23.5076,193.15352 -37.1641,256.27584 -6.7131,6.97458 -15.3301,9.25952 -22.9074,14.86532 -21.323,-27.91982 -14.6089,-69.56322 -36.6362,-98.5214 -27.1894,-35.74853 -58.6269,12.4527 -71.4728,33.35124 -3.6656,5.9522 -11.8064,10.53719 -13.0044,17.65784 -2.1679,12.85341 9.0574,24.7999 16.6523,33.42008 24.2996,27.57651 74.5921,44.72433 104.4611,15.85177"
       style="fill:none;stroke:#040404;stroke-width:0;stroke-linecap:round;stroke-linejoin:round;stroke-miterlimit:4;stroke-dasharray:none"
       inkscape:connector-curvature="0" />
    <path
       id="path3842"
       d="m 6327.016,330.34452 0,239.4492 c 0,39.64683 2.8905,84.79926 -26.7488,116.04614 -45.1999,47.61787 -129.0443,28.55069 -152.0043,-31.53515 -13.9034,-36.36638 -9.7976,-79.64461 -9.7976,-117.96318 l 0,-198.95513"
       style="fill:none;stroke:#040404;stroke-width:0;stroke-linecap:round;stroke-linejoin:round;stroke-miterlimit:4;stroke-dasharray:none"
       inkscape:connector-curvature="0" />
    <path
       id="path3844"
       d="m 6841.5682,330.34452 0,73.94703"
       style="fill:none;stroke:#040404;stroke-width:0;stroke-linecap:round;stroke-linejoin:round;stroke-miterlimit:4;stroke-dasharray:none"
       inkscape:connector-curvature="0" />
    <path
       id="path3846"
       d="m 7208.0974,330.34452 c -2.4836,19.27054 -12.6868,37.03161 -20.5995,54.57937 -13.2151,29.28395 -26.5199,58.56559 -39.3136,88.03383 -4.4045,10.14724 -18.6087,19.72859 -19.8413,29.93926 -2.732,22.6206 10.89,38.52046 19.3491,58.0938 17.8501,41.3444 45.9039,86.45558 55.9833,130.28828 5.3043,23.09698 -23.5427,21.12796 -37.8691,21.12796"
       style="fill:none;stroke:#040404;stroke-width:0;stroke-linecap:round;stroke-linejoin:round;stroke-miterlimit:4;stroke-dasharray:none"
       inkscape:connector-curvature="0" />
    <path
       id="path3848"
       d="m 231.69467,332.10403 c 0,19.74924 7.76229,37.17385 12.55893,56.34193 8.35262,33.38413 16.29827,66.87762 24.24209,100.35732 3.33231,14.03788 16.83392,43.77913 5.15964,56.08041 -11.17402,11.77676 -44.45594,5.54313 -59.58234,5.54313 -12.56597,0 -26.665,1.81305 -38.76767,-1.76105 -15.54391,36.0972 -19.87531,79.8182 -29.29755,117.96472 -2.594,10.50278 -3.3024,35.72793 -11.79242,42.71018 -8.81264,7.24756 -30.88365,3.06635 -41.731543,3.06635"
       style="fill:none;stroke:#040404;stroke-width:0;stroke-linecap:round;stroke-linejoin:round;stroke-miterlimit:4;stroke-dasharray:none"
       inkscape:connector-curvature="0" />
    <path
       id="path3850"
       d="m 7525.2872,332.10403 c -20.0536,58.66805 -47.2078,115.3327 -71.2273,172.5456 -2.7657,6.56319 -5.0207,14.86831 -9.5139,20.46038 -4.4061,5.47812 -11.9136,7.43263 -13.8514,14.82319 -12.9864,49.19989 11.2781,107.25699 -1.1271,156.62747 -5.0751,20.20651 -29.6755,15.84635 -45.2534,15.84635"
       style="fill:none;stroke:#040404;stroke-width:0;stroke-linecap:round;stroke-linejoin:round;stroke-miterlimit:4;stroke-dasharray:none"
       inkscape:connector-curvature="0" />
    <path
       id="path3852"
       d="m 2129.5441,333.86585 -8.8108,24.64847"
       style="fill:none;stroke:#040404;stroke-width:0;stroke-linecap:round;stroke-linejoin:round;stroke-miterlimit:4;stroke-dasharray:none"
       inkscape:connector-curvature="0" />
    <path
       id="path3854"
       d="m 1047.5761,337.3864 0,362.69635"
       style="fill:none;stroke:#040404;stroke-width:0;stroke-linecap:round;stroke-linejoin:round;stroke-miterlimit:4;stroke-dasharray:none"
       inkscape:connector-curvature="0" />
    <path
       id="path3856"
       d="m 1347.1439,337.3864 0,264.09922 0,70.42722 c 0,9.09352 -2.3261,21.93323 2.8194,29.92256 9.7447,15.12295 31.0669,10.57162 46.5211,10.57162 35.0318,0 70.927,2.23434 105.7297,-1.67236 11.8418,-1.32902 32.0186,-2.21066 41.3934,-10.3751 14.2558,-12.40615 11.4715,-53.51503 11.4715,-70.70257"
       style="fill:none;stroke:#040404;stroke-width:0;stroke-linecap:round;stroke-linejoin:round;stroke-miterlimit:4;stroke-dasharray:none"
       inkscape:connector-curvature="0" />
    <path
       id="path3858"
       d="m 1646.7115,337.3864 0,258.81687 0,72.1875 c 0,9.36036 -2.5023,23.12917 1.8151,31.69045 8.476,16.82818 30.2211,12.3258 45.7634,12.3258"
       style="fill:none;stroke:#040404;stroke-width:0;stroke-linecap:round;stroke-linejoin:round;stroke-miterlimit:4;stroke-dasharray:none"
       inkscape:connector-curvature="0" />
    <path
       id="path3860"
       d="m 4642.3892,337.3864 0,184.86908"
       style="fill:none;stroke:#040404;stroke-width:0;stroke-linecap:round;stroke-linejoin:round;stroke-miterlimit:4;stroke-dasharray:none"
       inkscape:connector-curvature="0" />
    <path
       id="path3862"
       d="m 7053.028,337.3864 c 12.8995,37.76798 30.1677,74.14735 45.8163,110.9213 7.5061,17.65631 13.3573,40.05666 28.1936,52.81986"
       style="fill:none;stroke:#040404;stroke-width:0;stroke-linecap:round;stroke-linejoin:round;stroke-miterlimit:4;stroke-dasharray:none"
       inkscape:connector-curvature="0" />
    <path
       id="path3864"
       d="m 7343.7841,337.3864 53.1297,128.52943 33.2165,72.18598"
       style="fill:none;stroke:#040404;stroke-width:0;stroke-linecap:round;stroke-linejoin:round;stroke-miterlimit:4;stroke-dasharray:none"
       inkscape:connector-curvature="0" />
    <path
       id="path3866"
       d="m 3741.923,344.42981 c -21.0751,21.12796 -14.0968,52.79997 -14.0968,80.98966 l 0,195.43383 0,65.14331 c 0,6.5044 2.2376,18.52507 -2.82,23.58722 -6.4142,6.40262 -25.7275,2.82319 -34.1856,2.82319"
       style="fill:none;stroke:#040404;stroke-width:0;stroke-linecap:round;stroke-linejoin:round;stroke-miterlimit:4;stroke-dasharray:none"
       inkscape:connector-curvature="0" />
    <path
       id="path3868"
       d="m 3923.4262,344.42981 c 13.6736,18.98837 5.2862,63.26223 5.2862,86.27205 l 0,186.62933 c 0,23.11227 6.9421,59.33486 -1.0571,80.99128 -6.8024,18.38888 -29.3406,14.08455 -44.7591,14.08455"
       style="fill:none;stroke:#040404;stroke-width:0;stroke-linecap:round;stroke-linejoin:round;stroke-miterlimit:4;stroke-dasharray:none"
       inkscape:connector-curvature="0" />
    <path
       id="path3870"
       d="m 175.30532,548.66577 c 2.04949,-46.97771 21.8562,-96.62341 31.71907,-142.61395 4.00888,-18.69322 5.01503,-40.68831 22.90802,-51.05805"
       style="fill:none;stroke:#040404;stroke-width:0;stroke-linecap:round;stroke-linejoin:round;stroke-miterlimit:4;stroke-dasharray:none"
       inkscape:connector-curvature="0" />
    <path
       id="path3872"
       d="m 4043.2527,358.51432 c -19.9647,20.19507 -12.3342,55.8946 -12.3342,82.7515 l 0,190.15144 0,54.57935 c 0,6.43097 -1.8513,16.42145 1.0567,22.32932 3.9123,7.9182 26.662,4.08109 34.1865,4.08109"
       style="fill:none;stroke:#040404;stroke-width:0;stroke-linecap:round;stroke-linejoin:round;stroke-miterlimit:4;stroke-dasharray:none"
       inkscape:connector-curvature="0" />
    <path
       id="path3874"
       d="m 5727.8811,367.31804 c 10.8026,18.71233 11.8944,49.11498 12.335,70.4257"
       style="fill:none;stroke:#040404;stroke-width:0;stroke-linecap:round;stroke-linejoin:round;stroke-miterlimit:4;stroke-dasharray:none"
       inkscape:connector-curvature="0" />
    <path
       id="path3876"
       d="m 1500.452,455.35187 -6.2204,52.8191 6.2204,49.29852"
       style="fill:none;stroke:#040404;stroke-width:0;stroke-linecap:round;stroke-linejoin:round;stroke-miterlimit:4;stroke-dasharray:none"
       inkscape:connector-curvature="0" />
    <path
       id="path3878"
       d="m 1800.0197,457.11139 -6.7138,51.05958 6.7138,47.5382"
       style="fill:none;stroke:#040404;stroke-width:0;stroke-linecap:round;stroke-linejoin:round;stroke-miterlimit:4;stroke-dasharray:none"
       inkscape:connector-curvature="0" />
    <path
       id="path3880"
       d="m 3216.7986,483.52167 c 28.6531,46.05784 42.8208,107.68521 61.7642,158.45955 5.8498,15.68119 11.1366,48.89179 23.3661,60.03158 14.8906,13.53853 35.6307,10.39422 54.0808,10.39422"
       style="fill:none;stroke:#040404;stroke-width:0;stroke-linecap:round;stroke-linejoin:round;stroke-miterlimit:4;stroke-dasharray:none"
       inkscape:connector-curvature="0" />
    <path
       id="path3882"
       d="m 5246.8103,502.88936 c 27.2088,0 74.0811,-9.00023 96.9193,7.04188"
       style="fill:none;stroke:#040404;stroke-width:0;stroke-linecap:round;stroke-linejoin:round;stroke-miterlimit:4;stroke-dasharray:none"
       inkscape:connector-curvature="0" />
    <path
       id="path3884"
       d="m 450.20275,508.17097 116.30284,0"
       style="fill:none;stroke:#040404;stroke-width:0;stroke-linecap:round;stroke-linejoin:round;stroke-miterlimit:4;stroke-dasharray:none"
       inkscape:connector-curvature="0" />
    <path
       id="path3886"
       d="m 1348.906,509.93124 142.7351,-1.76027"
       style="fill:none;stroke:#040404;stroke-width:0;stroke-linecap:round;stroke-linejoin:round;stroke-miterlimit:4;stroke-dasharray:none"
       inkscape:connector-curvature="0" />
    <path
       id="path3888"
       d="m 1648.4737,509.93124 142.7352,-1.76027"
       style="fill:none;stroke:#040404;stroke-width:0;stroke-linecap:round;stroke-linejoin:round;stroke-miterlimit:4;stroke-dasharray:none"
       inkscape:connector-curvature="0" />
    <path
       id="path3890"
       d="m 2244.0848,511.69152 179.7405,0"
       style="fill:none;stroke:#040404;stroke-width:0;stroke-linecap:round;stroke-linejoin:round;stroke-miterlimit:4;stroke-dasharray:none"
       inkscape:connector-curvature="0" />
    <path
       id="path3892"
       d="m 7130.5629,532.81946 c -34.2209,31.50913 -49.1647,89.8981 -68.1775,132.04921 -5.2517,11.63069 -10.6619,36.52244 -20.477,44.472 -8.141,6.57849 -26.5735,3.06635 -36.46,3.06635"
       style="fill:none;stroke:#040404;stroke-width:0;stroke-linecap:round;stroke-linejoin:round;stroke-miterlimit:4;stroke-dasharray:none"
       inkscape:connector-curvature="0" />
    <path
       id="path3894"
       d="m 277.51083,541.62314 c 8.90782,12.02527 10.60297,29.57527 13.72725,44.01615 5.59847,25.87884 11.67612,51.708 17.78738,77.46987 3.86262,16.27914 3.91902,36.52704 19.58996,45.78875 12.88315,7.61537 34.76565,3.50911 49.33881,3.50911"
       style="fill:none;stroke:#040404;stroke-width:0;stroke-linecap:round;stroke-linejoin:round;stroke-miterlimit:4;stroke-dasharray:none"
       inkscape:connector-curvature="0" />
    <path
       id="path3896"
       d="m 2126.0199,555.70917 c 12.6523,-11.68495 27.8244,-8.80368 44.054,-8.80368"
       style="fill:none;stroke:#040404;stroke-width:0;stroke-linecap:round;stroke-linejoin:round;stroke-miterlimit:4;stroke-dasharray:none"
       inkscape:connector-curvature="0" />
    <path
       id="path3898"
       d="m 6889.1455,620.8533 1.7634,82.75152"
       style="fill:none;stroke:#040404;stroke-width:0;stroke-linecap:round;stroke-linejoin:round;stroke-miterlimit:4;stroke-dasharray:none"
       inkscape:connector-curvature="0" />
    <path
       id="path3900"
       d="m 3643.2418,624.3746 c 0,18.82857 3.4539,60.57747 -11.3301,74.81117 -9.3574,9.00712 -30.9792,10.38124 -43.2966,11.46094 -32.1597,2.81936 -64.6013,1.76031 -96.9195,1.76031 -17.8327,0 -32.1942,2.59681 -45.8162,-10.564"
       style="fill:none;stroke:#040404;stroke-width:0;stroke-linecap:round;stroke-linejoin:round;stroke-miterlimit:4;stroke-dasharray:none"
       inkscape:connector-curvature="0" />
    <path
       id="path3902"
       d="m 6779.8928,624.3746 0,84.51183"
       style="fill:none;stroke:#040404;stroke-width:0;stroke-linecap:round;stroke-linejoin:round;stroke-miterlimit:4;stroke-dasharray:none"
       inkscape:connector-curvature="0" />
    <path
       id="path3904"
       d="m 3817.6959,627.89515 0,51.05958"
       style="fill:none;stroke:#040404;stroke-width:0;stroke-linecap:round;stroke-linejoin:round;stroke-miterlimit:4;stroke-dasharray:none"
       inkscape:connector-curvature="0" />
    <path
       id="path3906"
       d="m 6531.428,663.10916 0,45.77727"
       style="fill:none;stroke:#040404;stroke-width:0;stroke-linecap:round;stroke-linejoin:round;stroke-miterlimit:4;stroke-dasharray:none"
       inkscape:connector-curvature="0" />
    <path
       id="path3908"
       d="m 5532.2807,671.91284 -7.0482,38.73387"
       style="fill:none;stroke:#040404;stroke-width:0;stroke-linecap:round;stroke-linejoin:round;stroke-miterlimit:4;stroke-dasharray:none"
       inkscape:connector-curvature="0" />
    <path
       id="path3910"
       d="m 2126.0199,682.4768 0,7.04199"
       style="fill:none;stroke:#040404;stroke-width:0;stroke-linecap:round;stroke-linejoin:round;stroke-miterlimit:4;stroke-dasharray:none"
       inkscape:connector-curvature="0" />
    <path
       id="path3912"
       d="m 5070.5944,698.32247 c 9.0742,12.26231 8.8985,28.61716 19.7536,40.32968 25.746,27.75305 55.5605,1.99577 66.5916,-24.48333"
       style="fill:none;stroke:#040404;stroke-width:0;stroke-linecap:round;stroke-linejoin:round;stroke-miterlimit:4;stroke-dasharray:none"
       inkscape:connector-curvature="0" />
    <path
       id="path3914"
       d="m 316.27848,700.08275 c -15.00482,14.81632 -29.44753,12.32427 -49.34064,12.32427"
       style="fill:none;stroke:#040404;stroke-width:0;stroke-linecap:round;stroke-linejoin:round;stroke-miterlimit:4;stroke-dasharray:none"
       inkscape:connector-curvature="0" />
    <path
       id="path3916"
       d="m 1347.1439,700.08275 c -14.6436,14.46382 -28.1418,12.32427 -47.5785,12.32427"
       style="fill:none;stroke:#040404;stroke-width:0;stroke-linecap:round;stroke-linejoin:round;stroke-miterlimit:4;stroke-dasharray:none"
       inkscape:connector-curvature="0" />
    <path
       id="path3918"
       d="m 1646.7115,700.08275 c -14.2735,14.09753 -26.8377,12.32427 -45.8162,12.32427"
       style="fill:none;stroke:#040404;stroke-width:0;stroke-linecap:round;stroke-linejoin:round;stroke-miterlimit:4;stroke-dasharray:none"
       inkscape:connector-curvature="0" />
    <path
       id="path3920"
       d="m 3297.8577,700.08275 c -14.6434,14.46382 -28.1415,12.32427 -47.5779,12.32427"
       style="fill:none;stroke:#040404;stroke-width:0;stroke-linecap:round;stroke-linejoin:round;stroke-miterlimit:4;stroke-dasharray:none"
       inkscape:connector-curvature="0" />
    <path
       id="path3922"
       d="m 4642.3892,700.08275 c -13.8863,13.71595 -25.5509,12.32427 -44.0544,12.32427"
       style="fill:none;stroke:#040404;stroke-width:0;stroke-linecap:round;stroke-linejoin:round;stroke-miterlimit:4;stroke-dasharray:none"
       inkscape:connector-curvature="0" />
    <path
       id="path3924"
       d="m 2242.3226,701.84302 c 13.2691,12.82282 26.6616,10.564 44.054,10.564"
       style="fill:none;stroke:#040404;stroke-width:0;stroke-linecap:round;stroke-linejoin:round;stroke-miterlimit:4;stroke-dasharray:none"
       inkscape:connector-curvature="0" />
    <path
       id="path3926"
       d="m 2425.5875,701.84302 c 13.2691,12.82282 26.6616,10.564 44.0541,10.564"
       style="fill:none;stroke:#040404;stroke-width:0;stroke-linecap:round;stroke-linejoin:round;stroke-miterlimit:4;stroke-dasharray:none"
       inkscape:connector-curvature="0" />
    <path
       id="path3928"
       d="m 2631.7605,701.84302 c 13.2691,12.82282 26.6616,10.564 44.0541,10.564"
       style="fill:none;stroke:#040404;stroke-width:0;stroke-linecap:round;stroke-linejoin:round;stroke-miterlimit:4;stroke-dasharray:none"
       inkscape:connector-curvature="0" />
    <path
       id="path3930"
       d="m 3146.3126,701.84302 c 13.2686,12.82282 26.6611,10.564 44.0534,10.564"
       style="fill:none;stroke:#040404;stroke-width:0;stroke-linecap:round;stroke-linejoin:round;stroke-miterlimit:4;stroke-dasharray:none"
       inkscape:connector-curvature="0" />
    <path
       id="path3932"
       d="m 3928.7124,701.84302 c 13.2691,12.82282 26.6608,10.564 44.0542,10.564"
       style="fill:none;stroke:#040404;stroke-width:0;stroke-linecap:round;stroke-linejoin:round;stroke-miterlimit:4;stroke-dasharray:none"
       inkscape:connector-curvature="0" />
    <path
       id="path3934"
       d="m 5245.0493,701.84302 c 13.2687,12.82282 26.6602,10.564 44.0528,10.564"
       style="fill:none;stroke:#040404;stroke-width:0;stroke-linecap:round;stroke-linejoin:round;stroke-miterlimit:4;stroke-dasharray:none"
       inkscape:connector-curvature="0" />
    <path
       id="path3936"
       d="m 5928.7679,701.84302 c 13.2693,12.82282 26.6612,10.564 44.0528,10.564"
       style="fill:none;stroke:#040404;stroke-width:0;stroke-linecap:round;stroke-linejoin:round;stroke-miterlimit:4;stroke-dasharray:none"
       inkscape:connector-curvature="0" />
    <path
       id="path3938"
       d="m 7430.1303,701.84302 c 13.2693,12.82282 26.6618,10.564 44.0545,10.564"
       style="fill:none;stroke:#040404;stroke-width:0;stroke-linecap:round;stroke-linejoin:round;stroke-miterlimit:4;stroke-dasharray:none"
       inkscape:connector-curvature="0" />
    <path
       id="path3940"
       d="m 7208.0974,703.60482 c 16.5476,7.12217 27.7371,8.8022 45.8168,8.8022"
       style="fill:none;stroke:#040404;stroke-width:0;stroke-linecap:round;stroke-linejoin:round;stroke-miterlimit:4;stroke-dasharray:none"
       inkscape:connector-curvature="0" />
    <path
       id="path3942"
       d="m 138.29993,708.88643 c 14.32288,7.63604 36.86461,3.52059 52.86497,3.52059"
       style="fill:none;stroke:#040404;stroke-width:0;stroke-linecap:round;stroke-linejoin:round;stroke-miterlimit:4;stroke-dasharray:none"
       inkscape:connector-curvature="0" />
    <path
       id="path3944"
       d="m 7045.9784,708.88643 c 12.8108,6.83314 31.5431,3.52059 45.8163,3.52059"
       style="fill:none;stroke:#040404;stroke-width:0;stroke-linecap:round;stroke-linejoin:round;stroke-miterlimit:4;stroke-dasharray:none"
       inkscape:connector-curvature="0" />
    <path
       id="path3946"
       d="m 3729.588,712.40702 31.7187,0"
       style="fill:none;stroke:#040404;stroke-width:0;stroke-linecap:round;stroke-linejoin:round;stroke-miterlimit:4;stroke-dasharray:none"
       inkscape:connector-curvature="0" />
    <path
       id="path3948"
       d="m 3995.6757,712.40702 33.4804,0"
       style="fill:none;stroke:#040404;stroke-width:0;stroke-linecap:round;stroke-linejoin:round;stroke-miterlimit:4;stroke-dasharray:none"
       inkscape:connector-curvature="0" />
  </g>
</svg>
