<?xml version="1.0" encoding="UTF-8" standalone="no"?>
<!-- Created with Inkscape (http://www.inkscape.org/) -->

<svg
   xmlns:dc="http://purl.org/dc/elements/1.1/"
   xmlns:cc="http://creativecommons.org/ns#"
   xmlns:rdf="http://www.w3.org/1999/02/22-rdf-syntax-ns#"
   xmlns:svg="http://www.w3.org/2000/svg"
   xmlns="http://www.w3.org/2000/svg"
   xmlns:sodipodi="http://sodipodi.sourceforge.net/DTD/sodipodi-0.dtd"
   xmlns:inkscape="http://www.inkscape.org/namespaces/inkscape"
   width="1278"
   height="1276.8806"
   id="svg3037"
   version="1.1"
   inkscape:version="0.48.4 r9939"
   sodipodi:docname="criss-cross-poisson_hatched.svg"
   inkscape:export-filename="/home/svilayphiou/work/balsamine/osp.work.balsamine.2014-2015/scripts/svghatch/objects/i/svg/criss-cross-roche_hatched.png"
   inkscape:export-xdpi="89.959602"
   inkscape:export-ydpi="89.959602">
  <defs
     id="defs3039" />
  <sodipodi:namedview
     id="base"
     pagecolor="#ffffff"
     bordercolor="#666666"
     borderopacity="1.0"
     inkscape:pageopacity="0.0"
     inkscape:pageshadow="2"
     inkscape:zoom="0.35"
     inkscape:cx="816.46081"
     inkscape:cy="952.75375"
     inkscape:document-units="px"
     inkscape:current-layer="fill-979797"
     showgrid="false"
     inkscape:window-width="1276"
     inkscape:window-height="775"
     inkscape:window-x="0"
     inkscape:window-y="21"
     inkscape:window-maximized="1"
     fit-margin-top="0"
     fit-margin-left="0"
     fit-margin-right="0"
     fit-margin-bottom="0" />
  <metadata
     id="metadata3042">
    <rdf:RDF>
      <cc:Work
         rdf:about="">
        <dc:format>image/svg+xml </dc:format>
        <dc:type
           rdf:resource="http://purl.org/dc/dcmitype/StillImage" />
        <dc:title />
      </cc:Work>
    </rdf:RDF>
  </metadata>
  <g
     inkscape:label="fill-060606"
     inkscape:groupmode="layer"
     id="fill-060606"
     transform="translate(89.0625,-396.65063)">
    <path
       d="m -0.8219837,648.11043 0,8.59632 m 25.4165387,-23.42734 0,-10.31656 m 0,17.7219 0,6.06382 m 25.416538,-19.51357 0,-7.51711 m 25.41654,-9.69435 0,5.62373 m 0,866.63973 0,-15.1847 m 25.416537,-10.1374 0,4.3899 m 25.41654,-4.7979 0,-1.15 m 50.83308,-929.42258 0,1.39395 m 0,41.53638 0,-18.79579 m 25.41654,-0.34685 0,10.7467 m 0,40.46952 0,-31.93563 m 25.41653,1067.6661 0,3.3012 m 25.41654,-7.4784 0,-1.8969 m 0,22.9594 0,0.7382 m 25.41654,-2.3652 0,-2.8771 m 0,17.5407 0,2.5751 m 25.41654,-3.444 0,-4.4585 m 50.83308,-557.1082 0,15.0396 m 25.41653,-86.0851 0,-11.9165 m 0,18.6313 0,12.0213 m 0,39.9263 0,-36.4906 m 0,73.6196 0,5.9992 m 127.0827,-552.21457 0,-11.01464 m 0,61.22814 0,69.68923 m 25.41654,-40.39242 0,-40.35865 m 25.41653,-23.57981 0,2.09219 m 177.91577,496.31933 0,-1.2076 m 0,3.5709 0,2.6293 m 177.91578,-211.0898 0,-1.49399 m 25.41654,-4.67408 0,6.73483 m 25.41654,-2.33526 0,-10.30613 m 25.41654,-0.40114 0,8.56794 m 25.41657,-0.64517 0,-8.36464 m 25.4165,-2.10847 0,7.34895 m 25.4165,-34.71654 0,-2.30183 m 0,25.89708 0,5.44197 m 25.4166,-6.39907 0,-4.06006 m 25.4165,-7.36961 0,3.00272 m 25.4166,-10.15853 0,-5.63746 m 25.4165,-10.96093 0,3.4999"
       style="stroke:#000000;stroke-width:1.79999995"
       id="path7"
       inkscape:connector-curvature="0" />
  </g>
  <g
     inkscape:label="fill-181818"
     inkscape:groupmode="layer"
     id="fill-181818"
     transform="translate(89.0625,-396.65063)">
    <path
       d="m -23.397667,754.86018 0,23.35779 m 26.2637569,-120.64431 0,-11.74608 m 26.2637561,-31.72246 0,19.22837 m 26.263757,-5.53762 0,-4.87319 m 26.263759,-14.8849 0,1.66391 m 0,870.05861 0,-16.6169 m 0,22.0188 0,2.7748 m 26.263758,-24.2723 0,-8.005 m 52.52751,-926.33765 0,3.08304 m 0,66.78331 0,-45.78081 m 0,889.81531 0,7.0502 m 26.26376,-922.48057 0,-4.73671 m 0,15.56948 0,34.7978 m 0,38.2674 0,-8.10339 m 0,833.79469 0,1.1656 m 0,6.1828 0,-2.6065 m 26.26375,-928.28878 0,4.02117 m 0,43.67968 0,-11.67588 m 0,22.89136 0,23.26154 m 0,843.84101 0,-4.2876 m 0,19.0795 0,0.33 m 0,14.4131 0,-4.746 m 0,34.0409 0,4.5308 m 0,143.8258 0,-6.1509 m 26.26376,-6.6495 0,6.4747 m 0,14.8673 0,-0.5198 m 26.26376,-29.5318 0,5.2183 m 0,23.4995 0,-2.8662 m 0,16.1705 0,1.1309 m 26.26375,-0.247 0,-3.5259 m 26.26376,-11.2095 0,10.0977 m 26.26376,-532.8632 0,-6.4563 m 26.26375,-73.1863 0,89.4385 m 0,221.7105 0,-2.5845 m 0,32.5792 0,4.1157 m 26.26376,-858.27473 0,-1.18858 m 0,521.30141 0,31.0805 m 0,254.2108 0,-1.8539 m 0,32.4101 0,0.9341 m 0,7.41 0,-4.669 m 0,7.8233 0,5.2397 m 0,11.9203 0,-4.3746 m 26.26376,-897.00878 0,2.28774 m 0,48.26354 0,-20.10439 m 0,397.51752 0,1.53736 m 0,475.04051 0,-13.1419 m 0,15.9175 0,10.8377 m 26.26375,-898.99106 0,-4.55197 m 0,12.93928 0,7.87761 m 0,13.35422 0,-11.42869 m 0,69.06254 0,7.67063 m 0,812.53574 0,-14.4617 m 26.26376,-879.34773 0,26.07918 m 0,79.31868 0,-32.25475 m 0,35.44673 0,13.11023 m 26.26375,51.37149 0,-154.22081 m 26.26376,22.06215 0,103.34363 m 26.26376,-56.12168 0,-20.77361 m 26.26375,-44.66498 0,2.46649 m 0,835.44628 0,-23.9806 m 26.26376,-853.24304 0,2.20123 m 0,823.49801 0,-5.4895 m 0,20.4726 0,8.6423 m 26.26376,-25.5439 0,-5.1294 m 26.26375,-250.8126 0,1.8405 m 0,16.0201 0,-3.1236 m 0,6.2073 0,1.7573 m 0,14.0586 0,-6.7389 m 0,12.0725 0,5.4157 m 0,17.0008 0,-7.4444 m 0,12.333 0,20.5847 m 0,5.1458 0,-2.7708 m 26.26376,-120.66 0,11.2237 m 0,8.4322 0,-2.9608 m 0,18.5913 0,5.6231 m 0,7.6938 0,-5.1761 m 0,8.5442 0,0.8505 m 0,12.0746 0,-9.1234 m 0,16.0927 0,2.0738 m 0,33.7323 0,-1.8126 m 26.26376,-21.4797 0,35.9179 m 0,22.4231 0,-19.8054 m 26.26375,-98.6851 0,121.2041 m 0,10.4318 0,-5.2156 m 26.26376,-138.8679 0,15.4017 m 0,93.6908 0,-77.6665 m 0,86.1853 0,38.69 m 0,9.2223 0,-1.2737 m 26.26376,-136.973 0,10.2234 m 0,24.6085 0,-6.8145 m 0,14.8485 0,13.3473 m 0,38.4032 0,-24.4181 m 0,32.2916 0,13.1206 m 0,53.9853 0,-3.7681 m 131.31874,-375.5646 0,5.44685 m 26.26375,-0.36007 0,-10.97898 m 26.26376,-3.22548 0,10.67182 m 26.26376,-28.01371 0,-1.34479 m 0,18.87334 0,9.34412 m 26.2638,-0.8748 0,-9.79271 m 26.2637,-2.88578 0,7.1629 m 26.2638,-27.41634 0,-1.65364 m 0,17.09725 0,5.91137 m 26.2637,-7.56673 0,-4.2391 m 26.2638,-18.76413 0,2.18641 m 0,10.99955 0,-6.81882 m 26.2637,-11.45227 0,6.61471"
       style="stroke:#000000;stroke-width:1.79999995"
       id="path10"
       inkscape:connector-curvature="0" />
  </g>
  <g
     inkscape:label="fill-272727"
     inkscape:groupmode="layer"
     id="fill-272727"
     transform="translate(89.0625,-396.65063)">
    <path
       d="m -40.087082,677.47008 0,3.85561 m 27.958192,-27.1658 0,-1.07066 m 0,98.73833 0,19.59685 m 27.958192,-117.85045 0,-26.039 m 27.958193,-13.43753 0,23.78355 m 0,103.4356 0,-8.23714 m 27.958196,-128.73573 0,22.48605 m 0,861.64154 0,-19.9318 m 27.958184,-901.36354 0,19.92957 m 0,883.58727 0,-14.3173 m 0,20.7858 0,1.6426 m 27.958195,-923.76669 0,-4.04532 m 0,901.79741 0,5.204 m 27.95819,-922.32447 0,-4.79299 m 0,22.08387 0,45.04046 m 0,855.04253 0,-9.9343 m 0,10.6715 0,2.6147 m 0,13.0996 0,-1.8757 m 27.95819,-945.09294 0,8.18455 m 0,50.67531 0,-44.0763 m 0,62.41741 0,16.73563 m 0,835.19494 0,-18.502 m 0,28.52 0,8.7158 m 0,6.4127 0,-3.1792 m 0,22.1903 0,6.1422 m 0,117.4735 0,-1.5767 m 27.95819,-1109.9194 0,14.83186 m 0,39.46279 0,-15.83459 m 0,23.64241 0,30.72919 m 0,11.38472 0,-9.48015 m 0,823.08657 0,22.0036 m 0,24.48 0,-19.1055 m 0,21.3849 0,5.9309 m 0,23.6258 0,-6.1479 m 0,37.1655 0,2.2665 m 0,67.4292 0,-1.2823 m 0,37.3988 0,5.9575 m 27.9582,-1155.57489 0,-3.62083 m 0,5.27917 0,9.64072 m 0,908.91753 0,-6.3785 m 0,21.6475 0,5.6933 m 0,16.8022 0,-6.3944 m 0,14.5915 0,4.8058 m 0,39.0267 0,-6.1983 m 0,31.1204 0,4.0995 m 0,110.6996 0,-7.3595 m 0,20.6497 0,2.2615 m 27.95819,-255.8772 0,-5.2732 m 0,17.845 0,6.5901 m 0,20.2103 0,-8.5177 m 0,19.0447 0,4.1392 m 0,175.7455 0,-6.3633 m 0,27.0904 0,2.9698 m 0,15.0594 0,-2.475 m 27.95819,-246.0465 0,4.9813 m 0,242.1638 0,-4.0283 m 27.95819,-1131.42221 0,8.48563 m 0,72.99144 0,-19.13512 m 0,703.75416 0,8.2785 m 0,19.1856 0,-13.3971 m 0,342.042 0,6.8256 m 27.9582,-1118.81321 0,-19.06094 m 0,578.85175 0,41.0367 m 0,148.607 0,-12.2662 m 0,56.2453 0,1.0808 m 0,39.9145 0,-21.9972 m 0,22.7907 0,17.1412 m 27.95819,-859.91565 0,-12.45754 m 0,15.70566 0,7.62173 m 0,557.3027 0,-82.0036 m 0,108.4852 0,12.6825 m 0,116.7351 0,-1.3936 m 0,24.0715 0,4.0495 m 0,38.9176 0,-2.8891 m 0,12.9368 0,7.8056 m 0,14.306 0,-10.4091 m 0,26.8475 0,4.0745 m 0,17.7135 0,-12.6078 m 0,19.3515 0,11.5993 m 27.95819,-855.64287 0,-40.51077 m 0,412.7403 0,2.11228 m 0,98.87296 0,-7.165 m 0,222.5209 0,3.322 m 0,7.8743 0,-3.3099 m 0,9.6796 0,4.5955 m 0,10.1076 0,-3.003 m 0,57.0027 0,1.7598 m 0,15.3737 0,-6.7164 m 0,21.104 0,31.483 m 0,38.0815 0,-34.21 m 27.95819,-897.76789 0,23.69812 m 0,27.46526 0,-20.39969 m 0,397.66633 0,2.78542 m 0,299.28025 0,-2.1122 m 0,9.248 0,6.1985 m 0,10.1114 0,-0.7017 m 0,124.6551 0,12.5718 m 0,50.5337 0,-35.9026 m 27.9582,-890.02219 0,42.63592 m 0,104.94511 0,-81.56122 m 0,789.45008 0,23.0656 m 0,20.1173 0,-4.3127 m 0,8.2177 0,4.5122 m 27.95819,-838.26746 0,-51.13315 m 0,60.35116 0,109.0516 m 27.95819,-0.48489 0,-147.0769 m 0,680.27694 0,3.5951 m 0,43.7992 0,-20.7834 m 0,43.552 0,6.2224 m 27.95819,-666.42108 0,-80.9435 m 0,105.68614 0,2.10967 m 0,559.87677 0,-16.9958 m 0,34.6483 0,4.4169 m 0,31.976 0,-2.1721 m 27.9582,-94.2681 0,4.4203 m 0,24.624 0,-4.9225 m 0,52.3965 0,8.6733 m 0,135.4353 0,-43.6253 m 27.95819,-844.66282 0,3.62144 m 0,644.54318 0,-16.1467 m 0,46.5386 0,4.8835 m 0,169.9983 0,-39.8415 m 0,47.0434 0,5.6484 m 27.95819,-258.6879 0,-13.6718 m 0,20.752 0,2.4167 m 0,13.3557 0,-7.5753 m 0,16.5275 0,4.0389 m 0,13.7256 0,-7.6597 m 0,11.8145 0,4.9596 m 0,128.0753 0,-2.7486 m 0,13.5029 0,18.3853 m 0,11.792 0,-11.1787 m 27.95819,-313.9956 0,28.2415 m 0,16.7993 0,-12.452 m 0,13.8689 0,121.2431 m 0,10.9841 0,-2.166 m 0,32.644 0,1.1237 m 0,89.1268 0,-3.9627 m 27.95819,-273.974 0,31.1434 m 0,46.595 0,-46.4673 m 0,67.9008 0,13.9433 m 0,42.8489 0,-17.2301 m 0,22.559 0,2.3566 m 0,15.6487 0,-4.1575 m 0,5.7818 0,2.4543 m 27.9582,-11.3084 0,-101.3628 m 0,114.4022 0,6.7481 m 0,63.6322 0,-1.9794 m 27.95819,-230.5938 0,160.0996 m 27.95819,15.3487 0,-192.19 m 0,206.5986 0,5.4325 m 0,6.9701 0,-5.589 m 27.95819,-190.3345 0,8.0836 m 0,16.4298 0,-7.4758 m 0,8.7717 0,26.8673 m 0,111.395 0,-109.3805 m 0,119.57 0,18.612 m 27.9582,-40.2951 0,-0.6319 m 0,4.1785 0,4.6176 m 83.87461,-353.79122 0,-2.87675 m 27.95819,-4.76156 0,8.88729 m 27.95819,-2.50825 0,-12.32203 m 27.95819,-0.33132 0,10.31681 m 27.95824,-0.85995 0,-10.21512 m 27.9581,-2.71924 0,8.09044 m 27.9582,-37.73902 0,-3.29466 m 0,9.93234 0,3.14672 m 0,21.519 0,-7.59243 m 27.9582,-5.64708 0,5.0949 m 27.9582,-21.16024 0,-2.6438 m 0,5.77228 0,7.68962 m 27.9582,-12.79243 0,-6.58658"
       style="stroke:#000000;stroke-width:1.79999995"
       id="path13"
       inkscape:connector-curvature="0" />
  </g>
  <g
     inkscape:label="fill-373737"
     inkscape:groupmode="layer"
     id="fill-373737"
     transform="translate(89.0625,-396.65063)">
    <path
       d="m -39.560032,676.73359 0,5.00029 m 28.805411,-24.61911 0,-6.82741 m 0,20.82026 0,4.38766 m 0,95.3451 0,-23.287 m 28.80541,-124.07397 0,35.46521 m 0,92.77074 0,-23.40241 m 28.80541,-116.88511 0,33.968 m 0,16.61703 0,-3.20978 m 0,76.29253 0,4.20797 m 0,637.80271 0,-2.6318 m 28.80541,-792.19997 0,4.5211 m 0,40.82848 0,-34.64213 m 0,872.63022 0,23.2247 m 28.805411,-898.58593 0,-30.65257 m 0,895.7058 0,9.9455 m 28.80541,-905.47836 0,-17.51404 m 0,24.51956 0,5.1416 m 0,892.81174 0,-15.741 m 0,18.6694 0,5.3289 m 28.80541,-949.92227 0,-5.44455 m 0,9.33181 0,7.85438 m 0,76.14815 0,-67.01985 m 0,895.79783 0,17.0784 m 0,21.1843 0,-12.1807 m 0,29.5773 0,2.0299 m 0,34.6847 0,-1.8004 m 28.80541,-1032.66272 0,0.91423 m 0,34.72003 0,-18.31074 m 0,20.06432 0,36.2024 m 0,48.52009 0,-17.55411 m 0,826.034 0,55.3709 m 0,8.1498 0,-4.4272 m 0,6.9133 0,10.8066 m 0,27.4007 0,-1.3249 m 0,36.4256 0,2.2925 m 28.80541,-1088.32113 0,-4.01693 m 0,16.93475 0,4.50886 m 0,23.18342 0,-18.46222 m 0,46.76486 0,22.11767 m 0,39.63142 0,-14.57781 m 0,816.77161 0,7.0389 m 0,7.4454 0,-6.901 m 0,9.3391 0,16.0299 m 0,37.9184 0,-35.8693 m 0,46.2266 0,9.9812 m 0,31.2813 0,-5.7032 m 0,106.6059 0,6.0714 m 0,5.7118 0,-4.4689 m 28.80541,-1179.18979 0,12.69348 m 0,26.15843 0,-17.47255 m 0,912.74613 0,9.0306 m 0,23.1704 0,-11.8555 m 0,14.7402 0,14.999 m 0,10.7368 0,-7.9078 m 0,20.8031 0,8.5599 m 0,18.8958 0,-8.1019 m 0,29.3036 0,5.3046 m 0,109.1622 0,-7.8643 m 0,23.0395 0,4.1171 m 28.80541,-258.7398 0,-8.66 m 0,14.048 0,36.1334 m 0,16.1321 0,-9.5583 m 0,40.7785 0,4.7875 m 0,133.9968 0,-3.2346 m 0,26.3706 0,5.7731 m 0,16.4758 0,-5.0821 m 28.80541,-1159.2681 0,5.30074 m 0,814.39306 0,-25.5611 m 0,89.4151 0,8.9246 m 0,22.1077 0,-8.3902 m 0,18.4936 0,1.3367 m 0,235.051 0,-8.5216 m 28.80541,-1143.56304 0,14.97262 m 0,36.94196 0,-33.74632 m 0,80.62266 0,33.43281 m 0,669.51791 0,-36.9115 m 0,38.0137 0,8.7071 m 0,22.699 0,-14.2835 m 0,15.8184 0,31.2846 m 0,4.4746 0,-2.4073 m 0,7.2803 0,9.6143 m 0,40.813 0,-4.673 m 0,219.9661 0,1.7886 m 28.80541,-1111.85591 0,-34.13598 m 0,38.34264 0,3.49046 m 0,587.01079 0,-62.9423 m 0,182.6862 0,17.7417 m 0,34.7423 0,-32.994 m 0,39.3752 0,1.7489 m 0,19.3373 0,-10.9028 m 0,16.1873 0,22.8021 m 0,31.0179 0,-27.0458 m 0,39.0345 0,10.0571 m 28.80541,-870.99622 0,-38.50273 m 0,413.71115 0,4.52366 m 0,102.60514 0,-23.6004 m 0,59.471 0,35.3482 m 0,161.5062 0,-19.0467 m 0,25.4637 0,5.0324 m 0,73.4165 0,-16.3105 m 0,22.1154 0,6.5446 m 0,28.1955 0,-21.6627 m 0,24.6187 0,32.1096 m 28.80541,-866.99253 0,-71.17668 m 0,439.27286 0,4.23273 m 0,336.60722 0,-34.2101 m 0,117.2942 0,18.7754 m 0,10.5439 0,-7.1639 m 0,13.7226 0,54.9901 m 28.80541,-876.07147 0,-61.30173 m 0,68.43649 0,77.61791 m 0,574.6287 0,-4.5386 m 0,16.9848 0,6.4003 m 0,11.1509 0,-6.8922 m 0,16.6367 0,4.2216 m 0,28.1594 0,-0.611 m 0,14.719 0,3.7269 m 0,20.1706 0,-3.9901 m 0,15.5658 0,3.0428 m 0,30.2571 0,-8.1868 m 0,12.9181 0,8.9844 m 0,41.1038 0,-37.7688 m 28.80541,-880.62677 0,3.59241 m 0,57.71513 0,-54.04144 m 0,64.31809 0,99.99748 m 0,529.1973 0,-6.1266 m 0,27.2069 0,7.5656 m 0,15.0237 0,-11.6003 m 0,36.2899 0,5.263 m 0,18.3501 0,-9.3623 m 0,15.8594 0,6.2711 m 0,28.5082 0,-5.7628 m 0,10.8261 0,7.2791 m 0,14.4478 0,-11.4407 m 0,12.9247 0,9.8457 m 0,13.227 0,-3.1829 m 0,10.4538 0,4.84 m 0,6.4784 0,-4.2595 m 28.80541,-879.84912 0,176.17844 m 0,468.85228 0,-6.0349 m 0,31.9818 0,14.0709 m 0,24.4878 0,-15.368 m 0,21.3267 0,34.3289 m 0,9.6305 0,-4.6006 m 0,13.6092 0,21.7398 m 0,11.9627 0,-1.3182 m 28.80541,-786.59104 0,122.54001 m 0,480.48353 0,-5.395 m 0,7.0957 0,8.763 m 0,6.8883 0,-6.6343 m 0,23.2411 0,6.9233 m 0,11.3053 0,-8.4461 m 0,13.5672 0,18.1703 m 0,25.783 0,-22.9118 m 0,38.1499 0,40.7909 m 28.80541,-743.95866 0,-4.96043 m 0,9.05721 0,3.26906 m 0,30.11394 0,-26.49805 m 0,31.19923 0,25.06536 m 0,29.63722 0,-22.02201 m 0,485.98633 0,3.7463 m 0,33.2704 0,-10.2992 m 0,15.3693 0,3.8085 m 0,6.3926 0,-2.9247 m 0,7.3954 0,32.7114 m 0,22.4279 0,-9.2428 m 0,35.2669 0,4.9804 m 0,42.6131 0,-2.4053 m 0,49.8333 0,3.4678 m 0,70.9573 0,-68.2285 m 28.80541,-833.9949 0,6.38081 m 0,576.07399 0,-1.5425 m 0,30.9803 0,4.0011 m 0,5.0497 0,-2.7013 m 0,9.1561 0,6.7384 m 0,27.268 0,-20.4983 m 0,29.0879 0,0.7065 m 0,13.0804 0,-5.6298 m 0,61.2724 0,5.8968 m 0,24.6409 0,-7.5538 m 0,18.5976 0,10.6257 m 0,73.5666 0,-62.7813 m 28.80541,-873.64435 0,2.60609 m 0,564.51626 0,-20.5073 m 0,112.5688 0,79.1249 m 0,14.7905 0,-11.5832 m 0,27.3794 0,15.3003 m 0,10.7948 0,-4.475 m 0,6.955 0,5.182 m 0,48.2124 0,-3.568 m 0,7.6833 0,47.6229 m 0,13.7081 0,-1.1419 m 28.80541,-369.6702 0,53.4037 m 0,148.335 0,-143.3458 m 0,146.5287 0,16.8818 m 0,31.5546 0,-22.8434 m 0,25.6493 0,9.1354 m 0,75.4083 0,-24.4742 m 28.80542,-319.1399 0,26.5026 m 0,104.8443 0,-90.3914 m 0,97.8465 0,17.8373 m 0,20.0488 0,-11.3168 m 0,30.4486 0,57.2572 m 0,9.824 0,-5.0578 m 0,48.4597 0,19.1035 m 28.80541,-83.1648 0,-108.7041 m 0,123.1056 0,1.2887 m 0,52.7067 0,-15.7395 m 28.80541,-229.515 0,179.864 m 0,5.5866 0,-3.8463 m 0,7.5393 0,6.8648 m 0,33.1863 0,-17.3798 m 28.80541,-225.8224 0,230.4259 m 0,19.9356 0,-4.9329 m 28.80541,-230.979 0,214.1279 m 28.80541,-115.4871 0,-3.5984 m 0,9.3399 0,4.2706 m 0,7.1954 0,-1.5092 m 0,19.8786 0,2.2361 m 0,53.975 0,-51.5105 m 86.41626,-322.84952 0,4.3258 m 28.80541,1.00581 0,-10.4404 m 28.80541,-5.57791 0,12.97095 m 28.80541,-28.92078 0,-1.70912 m 0,17.51655 0,11.21523 m 28.80543,-20.19509 0,-2.13477 m 0,9.90547 0,11.21307 m 28.8054,-5.47419 0,-8.99711 m 28.8054,-5.09245 0,7.12038 m 28.8054,-9.01521 0,-5.55281 m 28.8054,-15.73744 0,10.09046 m 28.8054,-14.87122 0,-5.97645"
       style="stroke:#000000;stroke-width:1.79999995"
       id="path16"
       inkscape:connector-curvature="0" />
  </g>
  <g
     inkscape:label="fill-474747"
     inkscape:groupmode="layer"
     id="fill-474747"
     transform="translate(89.0625,-396.65063)">
    <path
       d="m -35.534952,673.72005 0,7.7045 m 0,108.26544 0,-5.55036 m 29.6526287,-138.00622 0,29.69106 m 0,91.47176 0,-45.3798 m 29.6526283,-106.0312 0,48.37679 m 0,88.0988 0,-33.08439 m 29.652628,-126.00767 0,6.78482 m 0,66.25284 0,-53.73628 m 29.652629,-39.1225 0,53.12064 m 0,862.63252 0,-27.978 m 29.652628,-909.6717 0,57.96182 m 0,15.23903 0,-1.86667 m 0,831.19582 0,11.6149 m 29.65263,-935.91536 0,-1.68018 m 0,7.84974 0,62.80147 m 0,880.47473 0,-35.9723 m 29.65263,-931.18245 0,21.21616 m 0,88.51404 0,-83.57243 m 0,112.06219 0,7.04112 m 0,699.27497 0,-1.3139 m 0,72.2688 0,33.5641 m 0,19.0796 0,-17.1266 m 0,23.8586 0,2.1496 m 0,13.5644 0,-7.6163 m 0,34.4736 0,3.7777 m 0,69.334 0,-1.1769 m 29.65263,-1118.11425 0,13.12117 m 0,124.1333 0,-109.65729 m 0,127.2746 0,10.58419 m 0,4.5545 0,-4.33479 m 0,773.02007 0,83.9682 m 0,7.8986 0,-3.6026 m 0,21.2996 0,8.6864 m 0,32.9977 0,-5.1564 m 0,33.3003 0,3.3227 m 0,24.8559 0,-1.8999 m 29.65262,-1163.2652 0,61.13328 m 0,86.97136 0,-52.06724 m 0,73.41171 0,5.49935 m 0,699.05994 0,-4.6025 m 0,71.5274 0,64.4738 m 0,19.0202 0,-16.9669 m 0,21.5118 0,12.5684 m 0,28.8253 0,-7.7075 m 0,36.779 0,3.9983 m 0,32.4294 0,-4.31 m 0,38.0213 0,8.6535 m 0,6.8676 0,-6.017 m 0,12.0619 0,1.0451 m 29.65263,-1180.40755 0,-20.57598 m 0,34.53816 0,13.70037 m 0,42.33756 0,-25.12817 m 0,117.16551 0,6.34346 m 0,682.02914 0,-4.2024 m 0,68.7187 0,72.2668 m 0,13.1992 0,-6.5141 m 0,18.9494 0,11.0766 m 0,133.1698 0,-9.8422 m 0,26.5894 0,5.739 m 0,8.518 0,-2.8753 m 0,5.4713 0,1.814 m 29.65263,-1209.05743 0,-6.23657 m 0,36.91466 0,3.50189 m 0,49.37073 0,-11.06855 m 0,51.6823 0,22.74099 m 0,692.25018 0,-2.9373 m 0,7.4785 0,25.1592 m 0,63.8757 0,-16.8126 m 0,20.6425 0,16.1613 m 0,19.6159 0,-14.6956 m 0,19.3073 0,15.3215 m 0,14.2372 0,-6.0164 m 0,20.8767 0,1.8614 m 0,163.9185 0,-6.6617 m 0,23.9607 0,6.4607 m 29.65263,-1166.08953 0,-8.47238 m 0,10.62017 0,1.70756 m 0,35.33393 0,-32.20815 m 0,39.25083 0,76.44283 m 0,749.31634 0,-97.2152 m 0,98.6125 0,36.7743 m 0,22.5221 0,-18.7067 m 0,25.7111 0,7.5649 m 0,25.6746 0,-3.7095 m 0,45.2431 0,2.4798 m 0,105.2677 0,-5.6251 m 0,30.4452 0,12.5124 m 29.65263,-1149.84414 0,-6.33318 m 0,10.32965 0,47.34734 m 0,511.65943 0,-3.2926 m 0,11.1686 0,59.2284 m 0,168.5499 0,-46.9383 m 0,49.629 0,9.043 m 0,19.6306 0,-11.5156 m 0,12.9176 0,88.4956 m 0,18.9583 0,-4.1809 m 29.65262,-958.59519 0,21.36682 m 0,44.13024 0,-40.33205 m 0,43.5076 0,5.562 m 0,7.24218 0,-2.50671 m 0,449.23041 0,87.3254 m 0,37.9433 0,-17.7021 m 0,127.7717 0,35.4479 m 0,8.8847 0,-4.0881 m 0,10.0173 0,8.6217 m 0,15.3101 0,-9.1615 m 0,13.5611 0,26.676 m 0,7.7535 0,-5.8464 m 0,9.978 0,50.1709 m 0,13.0501 0,-6.9879 m 29.65263,-944.2151 0,17.46303 m 0,64.91873 0,-61.83877 m 0,423.66969 0,9.33247 m 0,58.92942 0,-3.99499 m 0,19.71372 0,19.4599 m 0,258.6314 0,-52.8254 m 0,92.9131 0,27.4938 m 0,95.8093 0,-89.3867 m 29.65263,-874.75166 0,2.43213 m 0,70.38395 0,-66.98006 m 0,87.71565 0,61.83221 m 0,291.84373 0,-8.3995 m 0,295.80355 0,36.7183 m 0,12.4589 0,-6.7453 m 0,12.889 0,4.6479 m 0,15.6056 0,-5.7805 m 0,13.2456 0,13.8827 m 0,10.514 0,-3.1368 m 0,24.5389 0,8.4313 m 0,44.1567 0,-36.9536 m 0,39.1233 0,40.5605 m 0,9.6257 0,-5.9202 m 0,8.4817 0,11.7912 m 29.65263,-798.98267 0,-158.48061 m 0,689.67368 0,73.2005 m 0,15.3154 0,-11.2043 m 0,18.9092 0,24.203 m 0,12.26 0,-3.4622 m 0,9.5693 0,91.8013 m 0,9.0055 0,-5.3471 m 29.65263,-904.23392 0,183.10862 m 0,498.9447 0,-38.681 m 0,40.4937 0,30.9836 m 0,17.1693 0,-10.172 m 0,11.8744 0,29.5735 m 0,48.7569 0,-45.6949 m 0,51.402 0,4.2294 m 0,90.4873 0,-3.3256 m 29.65263,-898.01901 0,154.94316 m 0,484.97045 0,-37.4366 m 0,39.4258 0,127.8525 m 0,66.1878 0,-3.8946 m 29.65262,-827.16985 0,145.63264 m 0,439.56731 0,-9.7522 m 0,10.7039 0,6.6316 m 0,141.6503 0,-134.0748 m 0,203.1807 0,12.9728 m 0,31.7741 0,-27.5106 m 0,42.786 0,3.2096 m 0,38.4551 0,-34.7488 m 29.65263,-875.10651 0,39.70535 m 0,35.32899 0,-6.36171 m 0,477.76508 0,25.3783 m 0,8.648 0,-4.4966 m 0,9.3186 0,76.5748 m 0,21.9284 0,-16.0494 m 0,23.4458 0,7.227 m 0,15.5152 0,-3.014 m 0,4.9122 0,30.4702 m 0,122.7002 0,-120.1968 m 29.65263,-814.64707 0,21.106 m 0,526.55777 0,-16.9339 m 0,32.1084 0,12.0202 m 0,154.7925 0,-93.1742 m 0,98.7741 0,13.7206 m 0,50.8233 0,-49.2757 m 0,57.3404 0,98.1724 m 29.65263,-106.6924 0,-284.02064 m 0,300.00434 0,4.776 m 0,55.3066 0,-43.7511 m 29.65263,-319.66001 0,42.10381 m 0,158.6854 0,-155.8855 m 0,170.0904 0,81.2946 m 0,49.618 0,-42.4465 m 29.65263,-280.8207 0,14.025 m 0,71.5865 0,-13.3245 m 0,60.3713 0,122.8784 m 0,6.2162 0,-3.7772 m 0,27.8744 0,19.6508 m 29.65262,-14.2115 0,-241.8659 m 29.65263,-17.5227 0,2.2005 m 0,243.7239 0,-241.555 m 0,250.5885 0,11.4491 m 29.65263,1.6303 0,-248.2981 m 29.65263,76.5605 0,12.9352 m 0,151.1967 0,-143.4237 m 88.95788,-284.39822 0,2.07365 m 0,12.73412 0,-6.99527 m 29.65263,-5.59611 0,13.03702 m 29.65263,-3.5053 0,-13.45081 m 29.65259,-19.35313 0,3.64433 m 0,27.36399 0,-11.55657 m 29.6527,-13.10377 0,3.70479 m 0,19.34915 0,-11.99712 m 29.6526,-28.02975 0,4.23954 m 0,29.43325 0,-9.39125 m 29.6526,-5.533 0,7.21105 m 29.6527,-22.43205 0,-2.07711 m 0,8.20324 0,6.56623 m 29.6526,-12.16286 0,-11.40569 m 29.6526,-13.14492 0,4.89931"
       style="stroke:#000000;stroke-width:1.79999995"
       id="path19"
       inkscape:connector-curvature="0" />
  </g>
  <g
     inkscape:label="fill-575757"
     inkscape:groupmode="layer"
     id="fill-575757"
     transform="translate(89.0625,-396.65063)">
    <path
       d="m -45.846121,677.11889 0,7.13678 m 30.499846,-4.43818 0,-28.59055 m 0,60.74044 0,64.14064 m 30.499846,-100.47831 0,-52.88826 m 0,91.31263 0,41.50561 m 30.499847,-84.29146 0,-66.58881 m 0,128.09643 0,9.9766 m 0,635.92245 0,-4.3435 m 0,28.9796 0,2.0202 m 30.499848,-739.65876 0,-90.42259 m 0,789.04715 0,4.801 m 0,53.0165 0,-3.8773 m 0,30.1928 0,5.3508 m 0,36.1419 0,-26.0106 m 30.499844,-909.13843 0,87.11682 m 0,104.9285 0,-6.74562 m 0,662.03363 0,5.9948 m 0,62.4272 0,-16.2752 m 30.49985,-916.38521 0,78.69441 m 0,20.61261 0,-7.35138 m 0,15.8359 0,9.19932 m 0,825.13365 0,-35.5533 m 30.49984,-931.80755 0,22.34512 m 0,96.63519 0,-93.09932 m 0,100.61394 0,34.47951 m 0,686.38621 0,-7.9874 m 0,25.3725 0,0.4159 m 0,105.9458 0,-54.6328 m 0,55.4314 0,19.4084 m 0,32.9952 0,-7.9638 m 0,49.3008 0,0.1148 m 30.49985,-1080.16735 0,-15.09945 m 0,26.73702 0,92.4145 m 0,27.1675 0,-26.64978 m 0,29.597 0,32.17709 m 0,686.81647 0,-7.3264 m 0,68.9121 0,101.6189 m 0,25.4581 0,-9.4286 m 0,36.3367 0,6.5306 m 0,31.3243 0,-3.9786 m 0,17.4855 0,1.0545 m 0,4.1547 0,-0.4135 m 0,4.143 0,3.533 m 0,4.1682 0,-3.0215 m 30.49985,-1168.03601 0,74.44958 m 0,114.52922 0,-99.99215 m 0,102.33683 0,1.71001 m 0,669.50152 0,-3.3786 m 0,7.3086 0,13.7748 m 0,164.5783 0,-110.2714 m 0,128.7576 0,9.193 m 0,34.4101 0,-7.7613 m 0,33.203 0,6.66 m 0,48.9973 0,-18.5713 m 30.49984,-1181.24922 0,103.23886 m 0,73.16106 0,-22.6919 m 0,28.11647 0,18.08074 m 0,692.67529 0,-41.7266 m 0,60.2342 0,0.7012 m 0,20.5008 0,-7.7999 m 0,13.9905 0,111.803 m 0,25.0239 0,-9.6224 m 0,66.5207 0,0.9275 m 0,7.1879 0,-0.3813 m 0,30.9702 0,11.3135 m 0,12.0121 0,-2.3343 m 0,5.2296 0,7.241 m 0,8.5622 0,-4.079 m 0,5.6419 0,2.0131 m 30.49985,-1201.92909 0,-21.37048 m 0,25.70378 0,32.38144 m 0,42.86056 0,-42.09462 m 0,61.63132 0,64.89863 m 0,721.93776 0,-63.7004 m 0,68.493 0,7.0619 m 0,91.9551 0,-84.6158 m 0,87.3673 0,11.0857 m 0,29.1234 0,-19.9692 m 0,25.4062 0,6.5335 m 0,26.1876 0,-2.6303 m 0,74.3517 0,11.3098 m 0,32.0981 0,-13.2682 m 0,24.3266 0,7.3972 m 30.49985,-1224.31673 0,-10.76084 m 0,16.17008 0,179.25234 m 0,826.65685 0,-181.9516 m 0,188.9786 0,17.7455 m 0,13.0873 0,-5.146 m 0,25.4324 0,7.7583 m 0,106.1705 0,-10.0827 m 0,29.626 0,14.7241 m 30.49984,-1198.32159 0,-8.68361 m 0,9.87103 0,103.72388 m 0,27.10935 0,-7.82039 m 0,54.92395 0,2.05057 m 0,497.09721 0,-86.2109 m 0,205.3763 0,64.1432 m 0,108.7876 0,-104.5044 m 0,108.1936 0,23.792 m 0,10.0726 0,-5.5586 m 0,27.132 0,5.8213 m 0,64.975 0,-2.6522 m 0,72.0548 0,3.2276 m 0,13.3652 0,-3.3347 m 30.49985,-1170.24522 0,3.70044 m 0,90.6732 0,-88.64193 m 0,102.53647 0,5.49687 m 0,322.61656 0,-4.18944 m 0,14.73147 0,10.61471 m 0,166.73717 0,-89.6494 m 0,105.3174 0,25.2391 m 0,171.709 0,-64.4961 m 0,66.5506 0,51.2189 m 0,70.1369 0,-68.7654 m 0,77.9985 0,6.2706 m 0,22.4186 0,-6.6205 m 30.49984,-1003.17831 0,7.22566 m 0,102.33 0,-95.06414 m 0,110.22408 0,2.80534 m 0,357.15796 0,-31.41335 m 0,60.97701 0,44.47485 m 0,266.0406 0,-57.5817 m 0,65.3489 0,8.3574 m 0,14.5687 0,-4.3026 m 0,9.4375 0,30.3668 m 0,115.0847 0,-110.8197 m 30.49985,-888.08696 0,1.56732 m 0,178.76736 0,-175.26197 m 0,442.0227 0,16.11512 m 0,336.08763 0,-56.2399 m 0,57.4593 0,10.7227 m 0,13.266 0,-10.1129 m 0,15.375 0,21.1339 m 0,148.9851 0,-147.4272 m 30.49985,-863.64302 0,1.71769 m 0,220.81309 0,-177.55711 m 0,687.38065 0,210.581 m 0,28.6794 0,-26.9148 m 0,29.8679 0,10.4185 m 0,32.5413 0,-22.7441 m 30.49984,-926.62945 0,192.30205 m 0,622.4292 0,-177.4479 m 0,181.8487 0,5.8303 m 0,19.6266 0,-14.634 m 0,20.2691 0,8.4408 m 0,10.5465 0,-4.8556 m 0,5.5648 0,12.7356 m 0,9.3638 0,-2.8841 m 0,13.9246 0,15.9516 m 0,21.3463 0,-5.81 m 30.49985,-933.13362 0,180.22394 m 0,604.90568 0,-180.414 m 0,187.3114 0,7.8024 m 0,9.0797 0,-1.8812 m 0,26.6967 0,6.5225 m 0,5.2215 0,-0.864 m 0,11.748 0,4.7115 m 0,61.5926 0,-28.5621 m 0,30.2985 0,10.4301 m 30.49985,-763.04384 0,-157.14142 m 0,564.46236 0,208.0742 m 0,10.5918 0,-8.663 m 0,24.5055 0,102.3424 m 30.49984,-975.04568 0,-2.95972 m 0,61.59836 0,36.57401 m 0,54.37704 0,-50.41588 m 0,489.80467 0,62.1475 m 0,287.8552 0,-282.9564 m 30.49985,-661.64883 0,30.85869 m 0,459.92321 0,-3.92033 m 0,25.06959 0,68.63957 m 0,332.9603 0,-312.4556 m 30.49984,-574.40547 0,2.5546 m 0,472.85932 0,-9.52412 m 0,19.28705 0,370.87622 m 0,14.5549 0,-4.5261 m 30.49985,-376.47978 0,3.58743 m 0,195.65835 0,-186.97905 m 0,188.59775 0,103.925 m 0,42.3667 0,-39.1424 m 30.49985,-254.0799 0,14.7893 m 0,227.3498 0,-186.3728 m 0,189.7562 0,42.4221 m 30.49984,-20.2261 0,-258.3443 m 0,272.9126 0,5.2342 m 0,10.3971 0,-7.903 m 30.49985,-285.0416 0,275.105 m 0,27.8535 0,-3.4222 m 30.49985,-720.89741 0,2.78578 m 0,9.33379 0,-6.67259 m 0,453.54083 0,259.6647 m 30.49986,-682.4434 0,-2.79174 m 0,9.51961 0,7.69193 m 0,518.6624 0,-30.4579 m 0,32.2162 0,80.1482 m 60.99969,-389.77135 0,-5.71551 m 0,8.55791 0,8.91985 m 0,22.96444 0,-8.56467 m 30.49985,-39.15696 0,1.28682 m 0,23.39893 0,-17.86495 m 30.49984,-1.02008 0,15.9991 m 30.49985,-37.79797 0,-1.53804 m 0,23.11252 0,13.06119 m 30.49983,-20.95613 0,-2.26619 m 0,9.52496 0,12.37423 m 30.4999,-37.75379 0,-1.61046 m 0,23.68845 0,11.02679 m 30.4998,-41.97663 0,-2.93471 m 0,11.0051 0,3.52422 m 0,22.57828 0,-9.05358 m 30.4999,-7.3325 0,6.98942 m 30.4998,-11.8625 0,-12.48987 m 30.4998,-11.89097 0,7.54106"
       style="stroke:#000000;stroke-width:1.79999995"
       id="path22"
       inkscape:connector-curvature="0" />
  </g>
  <g
     inkscape:label="fill-676767"
     inkscape:groupmode="layer"
     id="fill-676767"
     transform="translate(89.0625,-396.65063)">
    <path
       d="m -77.223311,716.19743 0,7.37961 m 32.194282,-38.02513 0,-10.2787 m 0,13.61326 0,24.26321 m 0,80.83343 0,-11.27843 m 32.194282,-134.40858 0,33.73019 m 0,92.69858 0,-67.13778 m 32.194282,-89.49416 0,67.1095 m 0,70.42036 0,-41.13947 m 0,673.34298 0,2.2915 m 32.194282,-716.17804 0,-81.24713 m 0,778.67707 0,6.4924 m 0,26.4708 0,-5.2574 m 0,61.4416 0,3.2722 m 32.194284,-789.86739 0,-105.06944 m 0,792.06873 0,7.6076 m 0,22.8732 0,-7.7167 m 0,29.2476 0,7.2734 m 0,29.4144 0,-5.6213 m 0,15.7686 0,30.0811 m 32.194279,-826.09602 0,-117.44226 m 0,119.44103 0,6.95502 m 0,59.19709 0,-11.85716 m 0,15.02013 0,11.01092 m 0,102.46718 0,-1.28357 m 0,505.65414 0,12.7293 m 0,14.2002 0,-11.2768 m 0,28.8409 0,6.7819 m 0,65.1425 0,-16.6514 m 32.19429,-931.62623 0,9.88623 m 0,148.42529 0,-147.6723 m 0,812.04761 0,22.0916 m 0,112.3202 0,-39.8301 m 32.19428,-943.16102 0,10.88568 m 0,172.27373 0,-170.54047 m 0,828.08838 0,29.1418 m 0,146.68 0,-91.1633 m 0,94.6696 0,1.6172 m 0,18.0183 0,-6.4491 m 0,9.5918 0,2.432 m 0,5.1532 0,-1.5709 m 0,19.1761 0,7.1185 m 0,9.0807 0,-1.6806 m 0,22.8606 0,3.7152 m 0,7.3729 0,-3.0403 m 0,8.6561 0,3.7859 m 32.19428,-1126.9838 0,-21.87486 m 0,23.82009 0,125.87813 m 0,47.99562 0,-44.91324 m 0,700.06126 0,25.2036 m 0,14.3174 0,-10.9725 m 0,21.6293 0,9.5901 m 0,129.4272 0,-110.5528 m 0,126.8821 0,10.1705 m 0,11.486 0,-1.8241 m 0,15.5077 0,10.2002 m 0,5.6748 0,-4.9188 m 0,23.3072 0,7.1177 m 0,15.5483 0,-4.6694 m 0,6.679 0,8.1472 m 0,15.3503 0,-9.8059 m 32.19428,-1182.71626 0,97.44787 m 0,11.15351 0,-5.24322 m 0,34.38204 0,72.39631 m 0,688.53095 0,-45.0535 m 0,50.7421 0,16.6031 m 0,130.1683 0,-125.4531 m 0,139.7517 0,11.7499 m 0,33.2685 0,-10.2362 m 0,32.116 0,10.6052 m 0,62.2121 0,-31.9126 m 32.19428,-1186.33333 0,65.68837 m 0,38.6317 0,-33.2012 m 0,36.88499 0,8.3762 m 0,106.42635 0,-93.82733 m 0,722.08255 0,45.1921 m 0,165.3315 0,-163.3311 m 0,168.6822 0,12.9964 m 0,6.9135 0,-2.9847 m 0,12.8706 0,6.3881 m 0,95.3231 0,-26.5258 m 0,29.5126 0,27.4787 m 32.19429,-1049.21789 0,-187.50455 m 0,191.69354 0,1.63613 m 0,9.55698 0,-4.9502 m 0,13.33369 0,2.12779 m 0,859.16551 0,-228.3623 m 0,237.9762 0,16.1739 m 0,24.6114 0,-1.2994 m 0,38.1144 0,7.6241 m 0,33.7679 0,-10.6071 m 0,27.9841 0,14.1303 m 32.19428,-1078.12922 0,-155.19823 m 0,167.68216 0,77.576 m 0,215.65964 0,-5.55262 m 0,8.50263 0,10.55844 m 0,226.852 0,-6.8216 m 0,138.8199 0,220.1187 m 0,22.9323 0,-14.3577 m 0,17.9033 0,1.8567 m 0,23.8697 0,-7.2471 m 0,34.1073 0,9.1493 m 0,81.4336 0,-23.3008 m 32.19428,-1209.81592 0,5.10588 m 0,32.3476 0,-10.93182 m 0,13.29206 0,131.49498 m 0,65.57657 0,-20.03991 m 0,261.16873 0,4.06253 m 0,15.50315 0,-7.66831 m 0,61.37716 0,2.60129 m 0,166.70151 0,-117.024 m 0,225.734 0,210.1898 m 0,25.063 0,-17.7268 m 0,27.6798 0,9.0316 m 0,17.1138 0,-4.8312 m 0,16.3995 0,11.3839 m 0,72.7518 0,-3.9131 m 0,16.2512 0,7.8894 m 32.19428,-1066.22244 0,-136.15578 m 0,140.51723 0,32.31631 m 0,349.47252 0,-43.75163 m 0,54.90912 0,79.19517 m 0,251.6282 0,-67.0606 m 0,77.0108 0,46.603 m 0,123.3944 0,-122.1457 m 0,140.8375 0,6.1221 m 32.19428,-1064.12088 0,-7.01206 m 0,13.04438 0,2.45483 m 0,210.92262 0,-196.30436 m 0,451.06769 0,27.23446 m 0,558.05372 0,-285.0824 m 32.19429,-758.64851 0,6.70499 m 0,220.31023 0,-202.93694 m 0,433.85685 0,9.26569 m 0,521.45439 0,-252.4685 m 0,262.1044 0,38.6909 m 32.19428,-1018.415 0,-7.83816 m 0,33.50274 0,3.40088 m 0,17.9925 0,-9.77759 m 0,15.65752 0,195.71758 m 0,191.0159 0,-1.92682 m 0,252.43945 0,284.4877 m 0,5.2472 0,-4.931 m 0,11.0642 0,20.9293 m 32.19428,-761.40374 0,-197.33318 m 0,609.15392 0,184.9683 m 0,24.2099 0,-20.9461 m 0,31.8066 0,3.1467 m 0,49.9832 0,-42.8799 m 0,54.4717 0,59.1686 m 32.19428,-1014.31716 0,-3.97255 m 0,10.37317 0,1.74765 m 0,15.30953 0,-1.23307 m 0,56.09738 0,171.65474 m 0,207.34078 0,-2.88347 m 0,182.7147 0,239.1722 m 0,106.7379 0,-102.6323 m 32.19428,-886.38129 0,1.97874 m 0,11.13971 0,-6.94551 m 0,59.52976 0,112.62996 m 0,15.09593 0,-3.58687 m 0,289.0106 0,9.82062 m 0,464.85935 0,-360.9957 m 32.19429,-611.58106 0,48.83313 m 0,128.86499 0,-0.42294 m 0,339.50715 0,423.61253 m 32.19428,-884.17891 0,-5.17847 m 0,18.05117 0,1.91494 m 0,467.05158 0,-18.25849 m 0,21.15585 0,367.16493 m 0,14.4101 0,-6.8378 m 32.19428,-835.13283 0,2.84178 m 0,816.85815 0,-351.0541 m 0,491.8462 0,1.6374 m 32.19428,-925.20953 0,-1.36251 m 0,502.02804 0,270.4522 m 0,126.6942 0,-3.7866 m 32.19428,-883.88135 0,3.72582 m 0,6.94748 0,-3.29134 m 0,12.98565 0,3.46485 m 0,24.56564 0,-3.24559 m 0,10.59827 0,2.8678 m 0,64.79151 0,-3.47945 m 0,336.90491 0,323.2596 m 0,31.0451 0,-2.4639 m 0,32.3061 0,9.3246 m 32.19429,-807.04 0,-1.19547 m 0,4.57926 0,5.90912 m 0,10.75418 0,-2.98161 m 0,419.02552 0,325.2044 m 32.19428,-717.73086 0,-18.9112 m 0,32.4454 0,10.24278 m 0,11.5543 0,-5.57951 m 0,412.02839 0,214.9227 m 32.19426,-581.99007 0,-57.03273 m 0,500.8206 0,14.4894 m 32.19429,-446.10417 0,-7.12849 m 0,23.31321 0,10.04173 m 0,131.34876 0,-21.96949 m 0,29.56342 0,16.30517 m 32.19428,-24.39805 0,-22.66241 m 0,25.4721 0,26.33768 m 32.19428,-33.3805 0,-18.50102 m 32.19428,-28.66761 0,4.60811 m 0,6.55258 0,-1.97778 m 0,13.70128 0,1.5162 m 0,18.71507 0,-15.0062 m 32.19432,-9.71527 0,3.13424 m 0,5.68532 0,-1.77095 m 0,2.98411 0,12.98551 m 32.1942,-36.8643 0,-1.52154 m 0,6.77722 0,6.31686 m 0,20.94477 0,-11.87306 m 32.1943,-42.66538 0,0.87318 m 0,13.78464 0,-6.32951 m 0,11.71852 0,4.39494 m 0,22.19104 0,-12.37465 m 32.1943,-5.59834 0,8.07777 m 32.1943,-12.6106 0,-13.18783 m 32.1943,-13.78135 0,7.40942"
       style="stroke:#000000;stroke-width:1.79999995"
       id="path25"
       inkscape:connector-curvature="0" />
  </g>
  <g
     inkscape:label="fill-777777"
     inkscape:groupmode="layer"
     id="fill-777777"
     transform="translate(89.0625,-396.65063)">
    <path
       d="m -75.17942,707.77978 0,33.52232 m 33.0415,-25.61961 0,-43.6317 m 0,47.89794 0,44.07064 m 0,42.90653 0,-36.58884 m 33.0415,-126.36674 0,159.31886 m 0,48.37923 0,-22.81821 m 0,578.6465 0,6.0474 m 33.0415,-725.41731 0,-74.80816 m 0,101.95587 0,51.67752 m 0,87.51774 0,-9.95761 m 0,539.61995 0,5.6163 m 0,24.4166 0,-0.8564 m 33.0415,-826.98736 0,90.62091 m 0,699.73825 0,-7.6687 m 0,25.3272 0,8.7564 m 0,59.7964 0,-6.6946 m 0,30.5004 0,11.4125 m 33.041498,-815.86851 0,-117.9808 m 0,165.11532 0,21.20697 m 0,123.5148 0,-5.71737 m 0,489.99329 0,8.8 m 0,4.1599 0,-1.6482 m 0,8.671 0,12.068 m 0,28.9182 0,-11.5984 m 0,31.28 0,8.3834 m 0,37.9682 0,-28.0943 m 33.041502,-920.38218 0,145.94245 m 0,64.09395 0,-21.42209 m 0,143.4498 0,15.57143 m 0,498.17834 0,-33.3865 m 0,40.7976 0,13.6475 m 0,27.3728 0,-7.9898 m 0,26.3212 0,25.2659 m 33.0415,-793.46451 0,-167.7409 m 0,370.17315 0,7.04132 m 0,484.87964 0,-34.6127 m 0,38.5592 0,2.3672 m 0,95.981 0,-44.3412 m 0,51.77 0,30.2218 m 0,20.8084 0,-6.4559 m 33.0415,-1042.89153 0,14.86424 m 0,178.32889 0,-169.25901 m 0,367.61988 0,15.57535 m 0,484.69428 0,-46.4373 m 0,55.6073 0,6.4797 m 0,128.5126 0,-107.9781 m 0,113.0487 0,15.0837 m 0,6.4134 0,-2.0035 m 0,16.4194 0,8.9476 m 0,8.3018 0,-3.3686 m 0,22.1479 0,5.1733 m 0,6.6089 0,-2.8588 m 0,7.5179 0,9.9321 m 33.0415,-955.20913 0,-205.82828 m 0,421.19415 0,9.57546 m 0,489.3607 0,-65.8012 m 0,74.9186 0,119.224 m 0,25.5629 0,-12.0718 m 0,19.7199 0,4.9832 m 0,28.7468 0,-17.4267 m 0,34.5762 0,7.8894 m 0,46.7201 0,-29.5896 m 33.0415,-1172.54998 0,112.27107 m 0,107.61724 0,-83.77208 m 0,301.8818 0,11.14984 m 0,632.46141 0,-229.19 m 0,232.1406 0,4.4773 m 0,23.8267 0,-13.8009 m 0,20.2607 0,2.1272 m 0,24.9414 0,-13.8912 m 0,24.1854 0,4.0439 m 0,55.3651 0,-43.2797 m 33.0415,-1185.70344 0,237.22189 m 0,217.46999 0,-3.43062 m 0,6.75667 0,7.68962 m 0,627.20389 0,-243.1912 m 0,244.8359 0,8.2692 m 0,32.2934 0,-4.1084 m 0,5.8744 0,8.3485 m 0,11.4078 0,-3.5729 m 0,17.3047 0,16.9157 m 0,35.7086 0,-30.1442 m 0,32.5484 0,9.2319 m 33.0415,-1016.06268 0,-225.68683 m 0,447.63002 0,29.11439 m 0,621.0461 0,-254.3534 m 0,274.1459 0,12.7242 m 0,32.0048 0,-9.6075 m 0,10.996 0,4.2685 m 0,35.2016 0,-16.7099 m 0,29.7937 0,17.8824 m 33.0415,-1056.2571 0,-186.71244 m 0,462.03887 0,4.66867 m 0,27.79201 0,-25.65967 m 0,143.24326 0,112.023 m 0,358.4996 0,-243.3804 m 0,248.0636 0,6.4653 m 0,14.5911 0,-11.6498 m 0,16.4687 0,11.5177 m 0,22.2637 0,-16.5961 m 0,73.4306 0,26.5463 m 33.0415,-1052.02504 0,-178.85584 m 0,186.62068 0,5.72345 m 0,66.95406 0,-22.41735 m 0,247.30326 0,161.55728 m 0,70.8541 0,-56.6241 m 0,164.377 0,257.3512 m 0,52.0966 0,-42.4309 m 0,105.8494 0,13.7017 m 33.0415,-964.25088 0,-248.17277 m 0,493.54834 0,69.85231 m 0,31.4445 0,-27.96245 m 0,30.45365 0,8.533 m 0,284.0698 0,-81.8418 m 0,87.5668 0,192.0138 m 0,7.1679 0,-3.4956 m 0,50.0829 0,15.9002 m 33.0415,-1131.76787 0,-21.31752 m 0,27.10416 0,26.77965 m 0,196.65091 0,-193.47785 m 0,434.50792 0,22.65491 m 0,556.52529 0,-288.3466 m 0,294.5468 0,15.1727 m 33.0415,-1067.09656 0,-4.43489 m 0,16.38266 0,12.48025 m 0,256.01025 0,-240.89847 m 0,245.86475 0,2.14818 m 0,183.90808 0,-7.73507 m 0,268.88002 0,265.085 m 0,10.9448 0,-2.3798 m 0,4.3259 0,34.7192 m 33.0415,-1022.59852 0,-2.82172 m 0,8.41169 0,7.64088 m 0,246.46354 0,-209.22276 m 0,390.83517 0,4.34042 m 0,489.6966 0,-257.5692 m 0,257.8762 0,13.7324 m 0,37.714 0,-32.8842 m 0,36.0537 0,35.7599 m 33.0415,-1026.83438 0,-12.84358 m 0,20.47197 0,2.97963 m 0,13.93997 0,-6.31097 m 0,46.46359 0,190.4425 m 0,192.30042 0,-4.02284 m 0,200.31139 0,346.2421 m 33.0415,-987.49156 0,-21.92872 m 0,23.56636 0,14.53504 m 0,11.21512 0,-7.96884 m 0,19.84741 0,3.62434 m 0,6.93386 0,-2.60149 m 0,25.00032 0,160.52268 m 0,223.635 0,-9.14092 m 0,150.031 0,356.2755 m 33.0415,-904.25399 0,-52.3485 m 0,92.93924 0,3.38255 m 0,15.80556 0,-2.52005 m 0,7.28395 0,4.51302 m 0,25.70367 0,-14.32627 m 0,21.28992 0,34.69102 m 0,283.73414 0,-5.01176 m 0,14.99963 0,15.9459 m 0,424.23477 0,-400.48525 m 33.0415,-515.5817 0,43.2006 m 0,849.11365 0,-418.78053 m 0,444.74393 0,2.1599 m 33.0415,-891.19309 0,-11.72844 m 0,16.16867 0,3.83779 m 0,8.14205 0,-4.85743 m 0,7.93757 0,3.71717 m 0,31.90011 0,-4.44829 m 0,414.39711 0,364.73288 m 0,13.2321 0,-10.1618 m 0,29.4886 0,5.511 m 33.0415,-841.18596 0,-15.91662 m 0,19.1139 0,17.63027 m 0,6.91323 0,-2.0554 m 0,8.5861 0,3.53299 m 0,32.0755 0,-1.31665 m 0,14.28637 0,3.40184 m 0,390.57673 0,-13.89227 m 0,21.92497 0,9.912 m 0,31.3033 0,-31.266 m 0,40.1008 0,281.2618 m 0,115.6183 0,-4.5062 m 33.0415,-914.53146 0,37.86523 m 0,14.58669 0,-3.5458 m 0,13.62984 0,3.52533 m 0,38.76284 0,-3.26179 m 0,9.29325 0,2.32369 m 0,23.51318 0,-3.9847 m 0,23.66615 0,6.86335 m 0,655.2262 0,-345.4531 m 0,401.5261 0,9.6048 m 33.0415,-826.14831 0,-24.57447 m 0,26.92915 0,6.68092 m 0,8.45065 0,-6.48808 m 0,26.20288 0,2.75631 m 0,20.28167 0,-6.13287 m 0,9.51797 0,3.24946 m 0,30.41622 0,-5.37482 m 0,8.87631 0,10.65682 m 0,668.58299 0,-350.5983 m 33.0415,-417.15675 0,41.35128 m 0,13.2925 0,-7.84205 m 0,10.80797 0,12.90615 m 0,393.4228 0,-11.138 m 0,11.5218 0,246.3205 m 33.04151,-608.54691 0,-57.4068 m 0,62.77397 0,5.3641 m 0,387.30274 0,-6.4304 m 0,30.4522 0,2.9009 m 0,52.1638 0,-44.3126 m 0,58.2126 0,53.3612 m 33.0415,-489.79711 0,-60.38405 m 0,76.028 0,0.80523 m 0,28.18973 0,-2.3132 m 0,61.13224 0,51.18355 m 33.0415,-115.69606 0,-23.30947 m 0,31.14697 0,22.10346 m 0,88.66608 0,-55.26127 m 33.0415,-0.91137 0,21.87797 m 0,48.82043 0,-7.37052 m 33.0415,-88.63946 0,12.27748 m 0,29.5781 0,-27.50556 m 33.04151,-17.11616 0,0.93301 m 0,42.09752 0,-25.56117 m 33.0415,-29.21125 0,2.30866 m 0,28.01624 0,-14.85125 m 0,18.10646 0,17.21715 m 33.0415,-30.29422 0,-27.22707 m 0,35.608 0,13.37824 m 33.0415,-44.37558 0,-4.17084 m 0,27.10545 0,11.52889 m 33.0415,-13.04275 0,-14.21873 m 33.0415,-14.07835 0,7.04413"
       style="stroke:#000000;stroke-width:1.79999995"
       id="path28"
       inkscape:connector-curvature="0" />
  </g>
  <g
     inkscape:label="fill-878787"
     inkscape:groupmode="layer"
     id="fill-878787"
     transform="translate(89.0625,-396.65063)">
    <path
       d="m -73.895196,704.90311 0,52.41242 m 0,50.17743 0,-13.22511 m 33.888718,-124.51644 0,145.11641 m 33.8887179,-2.4824 0,-171.90048 m 0,184.9612 0,31.99794 m 0,35.21774 0,-24.4886 m 0,535.62988 0,10.0326 m 33.8887181,-717.21379 0,-87.16551 m 0,98.21727 0,69.27338 m 0,82.21285 0,-24.90246 m 0,547.29506 0,7.7817 m 0,25.1331 0,-5.2109 m 0,105.8107 0,3.1016 m 33.888718,-838.92058 0,-96.97782 m 0,123.47828 0,33.38679 m 0,11.30975 0,-8.18728 m 0,13.15178 0,15.39871 m 0,100.66358 0,-1.50595 m 0,496.78504 0,12.5677 m 0,23.105 0,-11.8443 m 0,31.6222 0,8.3739 m 0,13.8975 0,-3.0503 m 0,10.7272 0,9.8509 m 0,35.202 0,-22.4965 m 33.888714,-916.5999 0,126.39645 m 0,4.29866 0,-2.50456 m 0,21.20945 0,2.20296 m 0,58.33028 0,-41.36979 m 0,118.34438 0,3.40624 m 0,30.29085 0,-14.5677 m 0,492.17778 0,15.1032 m 0,17.962 0,-14.1693 m 0,28.3512 0,14.6004 m 0,8.5349 0,-1.0651 m 0,8.7677 0,10.9223 m 0,36.9138 0,-27.2496 m 33.88872,-923.49723 0,156.76996 m 0,62.58007 0,-17.66569 m 0,129.08136 0,24.66534 m 0,516.23759 0,-55.8103 m 0,72.1219 0,7.8097 m 0,50.7915 0,-31.6743 m 0,32.8272 0,1.7047 m 33.88872,-793.7664 0,-180.52924 m 0,355.72878 0,4.34288 m 0,25.99336 0,-24.22718 m 0,470.1531 0,47.3144 m 0,131.4794 0,-88.2159 m 0,99.1834 0,11.1939 m 0,6.2816 0,-3.3311 m 0,5.1578 0,12.4528 m 0,12.9527 0,-0.8822 m 0,4.7018 0,2.7322 m 33.88871,-1079.73069 0,-19.28977 m 0,23.33651 0,171.78965 m 0,219.49483 0,-23.45503 m 0,457.1388 0,70.1626 m 0,156.1335 0,-147.2726 m 0,156.925 0,10.5629 m 0,7.3251 0,-5.0433 m 0,14.9314 0,0.5481 m 0,13.557 0,-7.2451 m 0,9.7238 0,1.8509 m 0,29.6733 0,-24.8306 m 33.88872,-1155.64721 0,213.89753 m 0,223.67523 0,-21.68586 m 0,438.44251 0,206.2444 m 0,18.3224 0,-15.5506 m 0,19.8421 0,6.6222 m 0,29.7482 0,-20.0998 m 0,25.2774 0,4.0535 m 0,15.5115 0,-12.9215 m 0,25.6814 0,3.4004 m 0,37.7217 0,-29.5195 m 33.88872,-1184.68449 0,116.05662 m 0,116.00391 0,-102.13473 m 0,305.39048 0,21.95075 m 0,637.70666 0,-241.4752 m 0,243.9594 0,19.0572 m 0,8.2778 0,-3.8781 m 0,13.8485 0,15.8566 m 0,12.8608 0,-5.5786 m 0,15.9584 0,52.6129 m 33.88872,-995.70533 0,-242.89652 m 0,440.10801 0,8.68817 m 0,24.38664 0,-18.45132 m 0,395.07835 0,256.4557 m 0,44.3065 0,-23.0654 m 0,32.2559 0,2.6234 m 0,75.8593 0,-70.1099 m 33.88872,-1177.23324 0,267.5635 m 0,218.69496 0,-30.86419 m 0,390.88377 0,260.0604 m 0,33.507 0,-27.5351 m 0,35.8329 0,15.2824 m 0,40.1369 0,-17.2759 m 0,27.8767 0,23.755 m 33.88871,-1049.52645 0,-192.9664 m 0,197.77952 0,28.73339 m 0,9.41096 0,-3.41666 m 0,8.55161 0,4.20827 m 0,259.22185 0,-40.40195 m 0,124.36296 0,144.0794 m 0,419.8666 0,-315.6999 m 0,328.2672 0,10.8693 m 0,51.8483 0,-34.5615 m 33.88872,-1196.61345 0,200.39193 m 0,47.54273 0,-36.09774 m 0,39.84135 0,6.1635 m 0,362.26588 0,-135.81598 m 0,139.20738 0,48.7526 m 0,216.7602 0,-66.9209 m 0,69.362 0,251.3708 m 0,34.9428 0,-12.2302 m 0,26.806 0,14.7639 m 33.88872,-948.06472 0,-257.48923 m 0,487.15818 0,53.61846 m 0,556.65281 0,-296.3798 m 0,325.3432 0,2.5221 m 33.88872,-1071.30387 0,-54.28745 m 0,58.23895 0,211.97396 m 0,35.46242 0,-12.10051 m 0,196.00136 0,31.3703 m 0,94.07544 0,-12.8891 m 0,172.7938 0,253.3921 m 0,61.7175 0,-53.6021 m 0,95.569 0,6.2198 m 33.88872,-1061.91633 0,-59.90022 m 0,60.61416 0,30.97215 m 0,203.35024 0,-202.55286 m 0,381.58867 0,8.62553 m 0,27.82091 0,-1.4317 m 0,220.54325 0,351.5993 m 33.88871,-1077.09007 0,-6.44356 m 0,16.03869 0,28.68308 m 0,30.33133 0,-3.35318 m 0,17.12934 0,212.32418 m 0,181.38736 0,-5.11762 m 0,220.35775 0,349.1861 m 33.88872,-983.60774 0,-50.22993 m 0,57.73632 0,9.06629 m 0,208.69988 0,-189.87959 m 0,200.02899 0,4.18622 m 0,23.88295 0,-4.86034 m 0,159.22441 0,10.06265 m 0,521.76889 0,-355.0985 m 33.88872,-632.605 0,9.5795 m 0,219.4807 0,-207.98144 m 0,445.84278 0,16.65934 m 0,471.35942 0,-375.3102 m 33.88872,-627.55513 0,3.02088 m 0,62.62674 0,-57.95801 m 0,65.7965 0,71.24095 m 0,45.28376 0,-4.99447 m 0,16.02395 0,1.74666 m 0,18.05058 0,-8.92447 m 0,9.65803 0,12.70491 m 0,17.67671 0,-2.99321 m 0,281.94348 0,436.10594 m 0,28.3476 0,-2.4505 m 33.88872,-921.71992 0,43.61469 m 0,20.76957 0,-8.2537 m 0,18.80885 0,3.71202 m 0,797.98789 0,-403.53034 m 0,423.24864 0,6.0349 m 0,79.1889 0,-5.505 m 33.88871,-949.42889 0,31.81768 m 0,6.51533 0,-0.9407 m 0,7.17207 0,3.73956 m 0,20.02214 0,-6.65283 m 0,10.8421 0,7.39772 m 0,772.56592 0,-374.68001 m 0,470.47361 0,5.0485 m 0,12.8764 0,-3.683 m 33.88872,-941.10635 0,52.37274 m 0,60.14411 0,-11.26933 m 0,22.86554 0,5.76593 m 0,11.431 0,-8.60006 m 0,25.74146 0,9.55208 m 0,652.96388 0,-326.8093 m 0,330.9916 0,24.4416 m 0,38.2111 0,-10.0128 m 0,25.4645 0,9.7311 m 33.88872,-841.25125 0,-41.98391 m 0,43.31051 0,16.15574 m 0,12.21137 0,-6.2052 m 0,7.26112 0,11.63704 m 0,10.36811 0,-7.37999 m 0,9.59487 0,3.11526 m 0,50.28298 0,-35.77843 m 0,38.18215 0,4.98212 m 0,13.01654 0,-3.28642 m 0,277.26769 0,394.6244 m 33.88872,-800.16864 0,-5.26856 m 0,7.60225 0,55.33492 m 0,9.35491 0,-5.42567 m 0,8.25633 0,3.31301 m 0,28.09518 0,-7.12466 m 0,29.58183 0,4.92526 m 0,262.79893 0,-9.52708 m 0,71.28499 0,292.6912 m 33.88872,-627.43341 0,-76.93671 m 0,78.86145 0,26.37649 m 0,531.48748 0,-176.492 m 33.88871,-405.34919 0,83.88435 m 0,6.44012 0,-1.97058 m 0,90.39898 0,56.39475 m 0,284.29647 0,-1.7479 m 33.88872,-441.1145 0,62.72791 m 0,97.53125 0,-95.25563 m 33.88872,35.95354 0,44.57827 m 0,49.43289 0,-15.80958 m 0,20.60571 0,30.55784 m 0,36.1766 0,-34.048 m 33.88872,-151.32383 0,37.57487 m 33.88874,-58.64277 0,-1.97846 m 0,15.39624 0,12.32684 m 0,30.91691 0,-28.52903 m 33.8887,-37.88689 0,1.99403 m 0,13.76194 0,-4.13711 m 0,16.94902 0,34.20846 m 33.8887,-29.72619 0,-28.01521 m 0,35.2233 0,14.35497 m 33.8887,-43.12415 0,-6.93372 m 0,12.01889 0,0.84943 m 0,26.83718 0,-15.22741 m 33.8887,-14.28691 0,16.7212 m 33.8888,-20.74812 0,-8.71504"
       style="stroke:#000000;stroke-width:1.79999995"
       id="path31"
       inkscape:connector-curvature="0" />
  </g>
  <g
     inkscape:label="fill-979797"
     inkscape:groupmode="layer"
     id="fill-979797"
     transform="translate(89.0625,-396.65063)">
    <path
       d="m -70.256794,699.92658 0,57.77602 m 0,57.78897 0,-25.08724 m 34.735936,-124.95767 0,195.3228 m 34.73593585,34.31085 0,-260.14875 m 0,763.78294 0,16.1541 m 0,12.4403 0,-1.8889 M 33.951014,603.98694 l 0,190.18632 m 0,67.54537 0,-30.65087 m 0,547.05644 0,11.2076 m 0,9.707 0,-7.4209 m 0,12.9364 0,8.3783 m 0,9.9009 0,-1.638 m 0,47.5825 0,4.1239 m 0,42.8158 0,-6.1686 m 34.735936,-933.12523 0,105.6881 m 0,102.57618 0,-75.64721 m 0,154.46698 0,11.58787 m 0,505.40811 0,-16.5421 m 0,22.8991 0,12.3389 m 0,13.4389 0,-6.5817 m 0,8.6519 0,14.2975 m 0,68.5398 0,-61.9807 m 34.73593,-884.90173 0,142.39507 m 0,25.33047 0,-8.92447 m 0,22.80474 0,28.25366 m 0,90.24571 0,-6.54618 m 0,17.11086 0,19.93434 m 0,507.19483 0,-34.8265 m 0,37.1117 0,25.3798 m 0,25.5294 0,-21.4657 m 0,32.5292 0,25.9413 m 34.73594,-778.59002 0,-175.33359 m 0,207.01477 0,9.00476 m 0,112.00494 0,-98.00833 m 0,658.22497 0,-11.413 m 0,21.492 0,17.3995 m 34.73593,-752.49053 0,-189.48133 m 0,364.92241 0,30.8896 m 0,506.40655 0,-65.0797 m 0,66.7687 0,7.2813 m 0,108.7968 0,-97.0333 m 0,100.7151 0,1.997 m 0,23.4407 0,-20.6704 m 0,21.9804 0,32.6434 m 0,3.4193 0,-1.6988 m 0,6.6233 0,20.2237 m 34.73594,-932.63784 0,-204.24079 m 0,399.63213 0,23.79622 m 0,660.76118 0,-232.907 m 0,239.8229 0,20.2145 m 0,10.1255 0,-4.5654 m 0,9.1856 0,11.4156 m 0,37.2253 0,-33.4673 m 34.73594,-1160.16018 0,223.6705 m 0,221.53259 0,-26.64992 m 0,435.50001 0,237.2853 m 0,62.1572 0,-54.9638 m 0,56.2351 0,10.6387 m 0,45.202 0,-41.1028 m 34.73593,-1185.34461 0,238.03556 m 0,198.49187 0,-6.7588 m 0,9.29786 0,25.63699 m 0,652.95733 0,-264.5987 m 0,270.4301 0,2.0178 m 0,28.3254 0,-19.3412 m 0,19.6851 0,79.8908 m 34.73594,-995.13566 0,-251.11857 m 0,277.78782 0,2.87109 m 0,5.25634 0,-3.10706 m 0,163.12174 0,35.51645 m 0,639.78015 0,-271.1405 m 0,272.5846 0,32.0349 m 0,86.6523 0,-79.6947 m 34.73593,-1169.35221 0,267.56081 m 0,227.52329 0,-34.38899 m 0,212.9174 0,54.4233 m 0,444.3915 0,-328.2766 m 0,334.4861 0,17.8838 m 0,40.7869 0,-27.7398 m 34.73594,-1213.84898 0,277.52672 m 0,454.14186 0,-268.46632 m 0,370.18972 0,310.8681 m 0,25.0719 0,-21.8335 m 0,37.9864 0,37.2465 m 34.73594,-936.36692 0,-287.8066 m 0,453.07481 0,8.80866 m 0,159.48605 0,-134.23028 m 0,328.83888 0,317.413 m 0,36.807 0,-25.9433 m 0,27.9084 0,23.0636 m 34.73593,-927.40798 0,-265.84598 m 0,446.44469 0,18.66306 m 0,70.68648 0,-47.51407 m 0,303.6015 0,349.5295 m 0,8.9737 0,-3.4845 m 34.73594,-1142.8358 0,60.23492 m 0,273.12617 0,-266.03461 m 0,422.28137 0,14.55975 m 0,81.11 0,-29.97855 m 0,206.67725 0,266.1775 m 0,93.1415 0,-87.3418 m 34.73593,-1025.62912 0,10.59016 m 0,53.24199 0,-48.14547 m 0,61.41171 0,9.34657 m 0,221.92147 0,-216.5682 m 0,387.16943 0,11.98212 m 0,582.14964 0,-352.9735 m 34.73594,-706.99552 0,58.64031 m 0,229.98826 0,-201.3342 m 0,228.72369 0,3.88446 m 0,160.19814 0,-12.46863 m 0,201.77819 0,349.8236 m 34.73594,-950.7208 0,-60.4615 m 0,62.01229 0,16.82454 m 0,185.17608 0,-179.2303 m 0,183.87925 0,32.10053 m 0,214.19223 0,-47.40296 m 0,145.32694 0,372.8535 m 34.73593,-834.348 0,-157.55312 m 0,161.92324 0,31.40949 m 0,7.90833 0,-6.70768 m 0,11.51452 0,13.12966 m 0,10.68545 0,-6.74506 m 0,267.16737 0,458.8606 m 0,24.4675 0,-6.3698 m 0,51.2733 0,3.3111 m 34.73594,-926.37007 0,-62.65649 m 0,73.13533 0,25.10966 m 0,37.51849 0,-3.52646 m 0,31.21459 0,28.47163 m 0,8.86946 0,-7.08802 m 0,280.59611 0,417.87907 m 0,26.7309 0,-5.753 m 0,81.7578 0,3.9305 m 34.73593,-886.69169 0,-91.31175 m 0,93.68304 0,8.13332 m 0,9.83715 0,-5.62187 m 0,9.8003 0,12.89734 m 0,46.34999 0,-1.22802 m 0,298.86371 0,377.67768 m 0,27.3092 0,-17.978 m 0,38.818 0,7.5849 m 0,40.0225 0,-7.8665 m 0,34.7979 0,16.0444 m 34.73594,-905.50095 0,-59.55209 m 0,63.9399 0,13.89774 m 0,29.22753 0,-23.50256 m 0,47.89915 0,12.19321 m 0,13.96573 0,-9.0864 m 0,14.61631 0,11.74468 m 0,9.67541 0,-2.58838 m 0,292.42956 0,15.98316 m 0,350.2375 0,-339.1292 m 0,353.8593 0,2.9612 m 0,18.4158 0,-9.8823 m 0,35.8561 0,16.2736 m 34.73594,-794.81935 0,-96.23118 m 0,101.05231 0,9.8564 m 0,51.82401 0,-47.74237 m 0,54.44008 0,12.39342 m 0,269.12155 0,-1.35937 m 0,10.4735 0,406.4744 m 34.73593,-756.82073 0,-76.32957 m 0,99.2374 0,12.20858 m 0,37.39532 0,-34.35493 m 0,47.66109 0,1.69378 m 0,248.04093 0,-7.99638 m 0,50.48901 0,327.6874 m 34.73594,-633.84006 0,-98.28124 m 0,101.4172 0,13.21791 m 0,75.00984 0,-63.18043 m 0,67.57015 0,114.65929 m 0,149.29384 0,-128.90804 m 34.73591,-278.6236 0,53.3256 m 0,77.35241 0,-25.97596 m 0,28.6257 0,55.61289 m 0,23.1855 0,-4.29679 m 0,46.0623 0,176.38159 m 0,20.809 0,-12.2912 m 0,24.5274 0,31.023 m 0,30.7452 0,-5.0469 m 34.73593,-453.15655 0,186.72595 m 0,238.9505 0,-1.6938 m 34.73594,-330.71663 0,242.32153 m 34.73594,-192.26948 0,-34.42655 m 34.73594,-26.71811 0,9.17244 m 0,49.66298 0,-42.5362 m 34.7359,-23.83226 0,4.64368 m 0,12.91099 0,-7.66521 m 0,19.19264 0,34.10676 m 34.736,-64.05035 0,-4.42426 m 0,9.68131 0,29.2694 m 0,21.40776 0,-15.16051 m 34.7359,-36.45881 0,9.5478 m 0,5.14486 0,-3.85028 m 0,14.17411 0,16.1669 m 34.7359,-12.66575 0,-18.90218 m 34.736,-12.27981 0,11.33495"
       style="stroke:#000000;stroke-width:1.79999995"
       id="path34"
       inkscape:connector-curvature="0"
       sodipodi:nodetypes="cccccccccccccccccccccccccccccccccccccccccccccccccccccccccccccccccccccccccccccccccccccccccccccccccccccccccccccccccccccccccccccccccccccccccccccccccccccccccccccccccccccccccccccccccccccccccccccccccccccccccccccccccccccccccccccccccccccccccccccccccccccccccccccccccccccccccccccccccccccccccccccccccccccccccccccccccccccccccccccccccccccccccccccccccccccccccccccccccccccccccccccccccccccccccccccccccccccccccccc" />
  </g>
  <g
     inkscape:label="fill-a7a7a7"
     inkscape:groupmode="layer"
     id="fill-a7a7a7"
     transform="translate(89.0625,-396.65063)">
    <path
       d="m -59.109832,685.53275 0,51.52501 m 0,95.46836 0,-55.23739 m 36.430372,-123.16484 0,223.38946 m 0,549.92305 0,-3.9655 m 0,13.6087 0,0.7888 m 36.430371,-564.70709 0,-252.02726 m 0,767.34405 0,9.9213 m 0,23.9283 0,-20.77 m 36.430372,-810.37342 0,200.84819 m 0,45.79714 0,-5.99318 m 0,22.75727 0,14.27347 m 0,522.11983 0,-20.6494 m 0,25.4514 0,11.2899 m 0,10.6211 0,-3.4134 m 0,31.6197 0,5.3438 m 0,18.2436 0,-13.0205 m 0,25.455 0,24.4551 m 36.430372,-815.17632 0,-128.40424 m 0,135.63811 0,10.49199 m 0,70.01786 0,-63.05548 m 0,128.51369 0,5.25654 m 0,29.25491 0,-18.21584 m 0,497.23998 0,46.3303 m 0,84.9902 0,-83.2347 m 36.430375,-870.68121 0,160.04555 m 0,54.9856 0,-38.41909 m 0,133.95642 0,41.06429 m 0,522.04864 0,-60.9505 m 0,64.2668 0,5.3997 m 0,22.0336 0,-21.1933 m 0,26.4469 0,31.0176 m 36.43037,-777.30556 0,-190.29607 m 0,265.95326 0,0.3378 m 0,118.40957 0,-36.16118 m 0,481.71138 0,82.2635 m 0,118.3039 0,-109.2986 m 0,112.8774 0,18.9404 m 0,18.1288 0,-2.7054 m 36.43037,-1096.60359 0,202.65482 m 0,91.98129 0,-16.3085 m 0,81.24099 0,4.52368 m 0,51.63585 0,-30.2281 m 0,462.23366 0,257.3253 m 0,27.8661 0,-24.1302 m 0,25.6694 0,26.6446 m 36.43037,-960.31914 0,-222.95618 m 0,408.37013 0,31.84354 m 0,762.73335 0,-348.6361 m 36.43037,-871.7703 0,244.79346 m 0,217.22484 0,-38.04325 m 0,429.93845 0,276.69 m 0,100.3833 0,-96.318 m 36.43038,-1148.57291 0,255.91951 m 0,35.65177 0,-8.89229 m 0,159.81295 0,37.52776 m 0,762.51681 0,-390.9198 m 36.43037,-860.81 0,274.80204 m 0,219.0171 0,-35.42446 m 0,245.78072 0,21.5397 m 0,514.5371 0,-393.8058 m 36.43037,-851.5868 0,282.92474 m 0,6.15941 0,-3.6702 m 0,175.42045 0,272.9726 m 0,445.8009 0,-343.4064 m 0,350.9229 0,39.6444 m 36.43037,-937.09657 0,-291.49159 m 0,451.13278 0,20.92768 m 0,153.873 0,-153.03176 m 0,345.56026 0,380.7488 m 36.43037,-927.8538 0,-270.37754 m 0,327.72976 0,6.23886 m 0,146.83971 0,-33.32763 m 0,41.06399 0,54.90133 m 0,620.14692 0,-369.3836 m 36.43038,-789.34202 0,346.51745 m 0,163.09144 0,-20.0699 m 0,36.23729 0,9.51969 m 0,53.34785 0,-29.01604 m 0,32.64114 0,2.7321 m 0,436.1849 0,-269.4621 m 0,274.8294 0,85.7801 m 36.43037,-1048.00333 0,-65.86645 m 0,67.03719 0,244.86797 m 0,47.75854 0,-8.70612 m 0,125.33162 0,16.54415 m 0,505.99903 0,-280.8648 m 0,282.7753 0,71.0978 m 36.43037,-995.41383 0,-60.29082 m 0,88.0092 0,201.51461 m 0,46.1202 0,-28.33382 m 0,156.53174 0,17.43511 m 0,46.71096 0,-2.19657 m 0,135.69412 0,356.7193 m 36.43037,-980.50443 0,-30.50344 m 0,32.96363 0,262.38914 m 0,218.02374 0,-48.23669 m 0,134.67815 0,382.0121 m 36.43037,-845.38932 0,-177.75231 m 0,180.3659 0,67.89573 m 0,21.9855 0,-16.3897 m 0,269.58761 0,456.22549 m 0,24.9139 0,-7.8226 m 0,48.911 0,3.1542 m 36.43037,-893.72685 0,-83.64131 m 0,88.90025 0,5.7206 m 0,17.95091 0,-13.18523 m 0,14.3691 0,9.59383 m 0,13.09301 0,-3.01323 m 0,8.96531 0,6.03083 m 0,52.05559 0,-47.70235 m 0,51.90423 0,3.67714 m 0,675.54197 0,-415.72469 m 0,431.52899 0,10.2459 m 0,37.2698 0,-4.0773 m 0,36.2081 0,10.5585 m 0,30.9107 0,-8.4696 m 36.43038,-988.78779 0,88.17577 m 0,39.16693 0,-29.19032 m 0,69.08052 0,8.69718 m 0,3.85021 0,-0.54428 m 0,295.70199 0,397.01139 m 0,14.5218 0,-11.5714 m 0,13.9687 0,4.9292 m 0,32.0189 0,-10.4018 m 0,33.1239 0,24.9824 m 36.43037,-863.64576 0,-83.21331 m 0,86.83718 0,11.49616 m 0,90.43227 0,-88.9015 m 0,364.70678 0,12.83818 m 0,434.9536 0,-425.8453 m 36.43037,-454.27256 0,84.9688 m 0,26.94971 0,-25.66624 m 0,28.16281 0,52.89547 m 0,20.56884 0,-8.10624 m 0,251.00612 0,4.0724 m 0,396.45179 0,-395.09692 m 36.43037,-396.78011 0,89.73326 m 0,33.2872 0,-27.03135 m 0,34.72474 0,0.51629 m 0,14.6758 0,-3.5657 m 0,182.70115 0,73.4589 m 0,332.78864 0,-278.6295 m 36.4304,-399.42659 0,136.45984 m 0,67.94533 0,-42.67413 m 0,120.5909 0,10.90914 m 0,314.66271 0,-163.4596 m 36.43037,-381.03318 0,114.07645 m 0,109.73814 0,-100.39981 m 0,336.3597 0,11.6862 m 36.43037,-246.10181 0,-140.57989 m 0,245.8485 0,87.0434 m 36.43037,-241.30203 0,-29.65416 m 36.43038,-35.82709 0,5.39559 m 0,56.9703 0,-50.63781 m 36.43032,-18.74749 0,13.57435 m 0,10.38913 0,-8.54255 m 0,13.00078 0,1.40161 m 0,36.81524 0,-32.12191 m 36.4304,-36.87964 0,7.10775 m 0,32.79054 0,-28.74882 m 0,34.14266 0,16.14048 m 36.4304,-37.09496 0,-17.42406 m 0,27.27569 0,16.59535 m 36.4304,-43.89596 0,-7.85867 m 0,17.98724 0,21.04142 m 36.4303,-20.05263 0,-15.60582"
       style="stroke:#000000;stroke-width:1.79999995"
       id="path37"
       inkscape:connector-curvature="0" />
  </g>
  <g
     inkscape:label="fill-b7b7b7"
     inkscape:groupmode="layer"
     id="fill-b7b7b7"
     transform="translate(89.0625,-396.65063)">
    <path
       d="m -54.410151,680.46641 0,159.55125 m 37.27759,49.94947 0,-240.83851 m 0,765.49688 0,22.5736 m 37.27759,-569.53812 0,-252.56117 m 0,769.40279 0,35.9387 m 37.27759,-628.4674 0,-207.86569 m 0,232.17629 0,22.83629 m 0,33.55475 0,-18.44674 m 0,512.9739 0,38.9855 m 0,28.3135 0,-26.1203 m 0,32.322 0,34.0699 m 0,28.8816 0,-26.8645 m 37.277587,-920.59142 0,139.79124 m 0,79.07162 0,-74.35717 m 0,109.87655 0,13.98447 m 0,9.08492 0,-3.74244 m 0,11.97252 0,9.89472 m 0,29.05149 0,-23.15857 m 0,497.45257 0,128.321 m 37.277594,-779.5277 0,-175.55216 m 0,188.82096 0,2.19878 m 0,43.22108 0,-31.27359 m 0,84.92966 0,4.47655 m 0,68.1636 0,-47.94103 m 0,504.39165 0,90.5263 m 0,46.1806 0,-41.8198 m 37.27759,-939.98729 0,198.21967 m 0,85.57822 0,-24.48137 m 0,97.80052 0,37.3247 m 0,712.02935 0,-270.7393 m 37.27759,-863.25231 0,209.32284 m 0,172.67544 0,-13.17261 m 0,15.3473 0,2.39346 m 0,38.27146 0,-32.68659 m 0,458.90421 0,324.6494 m 37.27759,-963.14135 0,-232.91714 m 0,399.17074 0,7.31465 m 0,41.54674 0,-37.66561 m 0,443.79517 0,360.6274 m 37.27758,-978.69887 0,-253.13287 m 0,430.0968 0,39.21721 m 0,768.64983 0,-384.5773 m 37.27759,-866.44721 0,288.98256 m 0,198.10222 0,-39.47492 m 0,403.32635 0,393.2234 m 37.27759,-994.74156 0,-257.21305 m 0,462.37572 0,41.98824 m 0,229.46385 0,-134.8149 m 0,244.7359 0,394.2197 m 37.27759,-938.68302 0,-303.18216 m 0,431.92616 0,6.533 m 0,274.26352 0,-256.11012 m 0,372.61322 0,390.1241 m 37.27759,-936.31795 0,-283.35786 m 0,449.10553 0,143.43178 m 0,593.3846 0,-377.4637 m 37.27759,-806.22367 0,326.35005 m 0,17.16407 0,-13.00798 m 0,20.56994 0,7.67393 m 0,117.44374 0,-34.21494 m 0,39.73748 0,51.74817 m 0,97.39501 0,-60.24849 m 0,210.49739 0,255.9182 m 0,110.5848 0,-105.777 m 37.27759,-1033.96841 0,334.55832 m 0,39.60156 0,-28.96787 m 0,111.55996 0,12.49998 m 0,30.83718 0,-20.00756 m 0,21.52204 0,6.38484 m 0,33.11393 0,-19.89534 m 0,24.09592 0,15.12065 m 0,20.1763 0,-3.33535 m 0,11.27335 0,1.4163 m 0,508.8276 0,-357.5683 m 37.27759,-734.99398 0,321.1021 m 0,34.35758 0,-18.99278 m 0,137.20076 0,17.80851 m 0,557.32911 0,-351.9047 m 37.27759,-680.99967 0,101.59494 m 0,219.94503 0,-213.75701 m 0,358.06181 0,41.1338 m 0,494.0628 0,-367.7866 m 0,411.8119 0,4.1127 m 37.27759,-921.6722 0,-108.88187 m 0,111.12894 0,23.13298 m 0,99.78257 0,-98.28303 m 0,101.34335 0,4.12712 m 0,6.08569 0,-1.98156 m 0,210.32389 0,54.42714 m 0,453.19278 0,-430.08903 m 0,469.66223 0,6.7214 m 0,39.424 0,-8.9235 m 37.27759,-1032.50235 0,87.10664 m 0,31.19264 0,-29.2089 m 0,38.74672 0,16.70983 m 0,11.98903 0,-5.85032 m 0,11.85073 0,7.21879 m 0,40.88514 0,-37.35965 m 0,298.25105 0,432.73585 m 0,27.3013 0,-12.5238 m 0,45.483 0,8.63 m 0,23.1922 0,-3.7071 m 0,11.4344 0,7.9083 m 0,24.2405 0,-2.7432 m 37.27759,-1011.60963 0,95.20255 m 0,12.24375 0,-7.75201 m 0,9.04924 0,35.51583 m 0,21.20219 0,-7.5841 m 0,12.29728 0,10.12682 m 0,13.80872 0,-7.12271 m 0,275.25117 0,429.4082 m 0,32.4939 0,-23.5957 m 0,43.4203 0,18.3197 m 0,34.8912 0,-23.8018 m 37.27759,-946.6027 0,82.32071 m 0,38.19882 0,-36.74228 m 0,47.98867 0,46.88093 m 0,20.40467 0,-16.43532 m 0,288.12254 0,377.67876 m 0,37.3802 0,-34.3504 m 0,46.4554 0,41.1011 m 37.27759,-842.31779 0,-66.30746 m 0,68.85217 0,126.33115 m 0,44.30531 0,-1.87976 m 0,7.49482 0,1.97681 m 0,208.04495 0,-20.10614 m 0,21.04584 0,408.5302 m 37.27759,-670.79374 0,-156.71705 m 0,173.13609 0,2.76239 m 0,47.97926 0,-0.18332 m 0,113.20425 0,24.70835 m 0,17.46532 0,-13.77253 m 0,21.06807 0,23.27567 m 0,361.47064 0,-324.6062 m 37.27763,-395.46404 0,130.02899 m 0,25.7121 0,-14.8031 m 0,29.61308 0,23.04675 m 0,15.25261 0,-13.32178 m 0,97.3988 0,2.89413 m 0,26.4881 0,-21.87701 m 0,123.31157 0,2.9038 m 0,21.8202 0,-3.0274 m 0,6.2661 0,194.6659 m 37.27759,-491.84036 0,-93.37541 m 0,95.52801 0,148.54718 m 0,208.43138 0,-35.2059 m 0,61.1716 0,39.9948 m 37.27759,-274.8547 0,-164.3889 m 0,305.3398 0,75.5213 m 37.27759,-260.90557 0,-28.15482 m 0,56.73693 0,51.64475 m 37.27758,-85.15857 0,-52.89838 m 37.27761,-12.51886 0,63.09515 m 37.2776,-26.17346 0,-45.31879 m 0,46.91347 0,17.97396 m 37.2776,-36.33647 0,-23.86336 m 0,32.48976 0,16.86185 m 37.2776,-64.99925 0,-1.15644 m 0,7.71628 0,16.45974 m 0,29.72566 0,-22.23169 m 37.2775,-21.70487 0,6.31578 m 0,18.41525 0,-17.06959"
       style="stroke:#000000;stroke-width:1.79999995"
       id="path40"
       inkscape:connector-curvature="0" />
  </g>
  <g
     inkscape:label="fill-c7c7c7"
     inkscape:groupmode="layer"
     id="fill-c7c7c7"
     transform="translate(89.0625,-396.65063)">
    <path
       d="m -88.153755,737.5786 0,34.91058 m 38.124808,74.15602 0,-170.6576 m 38.124808,-32.15086 0,251.05861 m 0,541.76625 0,-29.7694 m 38.124808,-797.73034 0,254.14847 m 0,569.76897 0,-52.2999 m 0,77.0158 0,24.6721 m 0,37.7456 0,-8.2072 m 38.124807,-933.69304 0,214.23332 m 0,48.41505 0,-39.03151 m 0,43.92805 0,2.04321 m 0,27.65494 0,-22.70743 m 0,511.36741 0,148.0515 m 0,5.8388 0,-1.5897 m 38.124814,-966.65567 0,227.06824 m 0,105.87596 0,-85.35442 m 0,555.12579 0,127.7113 m 38.12481,-769.9061 0,-188.84855 m 0,207.33112 0,11.138 m 0,28.23193 0,-27.76668 m 0,60.7415 0,3.12498 m 0,16.61644 0,-10.53327 m 0,32.90595 0,47.59343 m 0,590.90105 0,-139.1378 m 38.1248,-850.11333 0,242.92695 m 0,50.64432 0,-38.80523 m 0,81.62972 0,10.4608 m 0,56.44137 0,-38.62048 m 0,475.80598 0,289.3738 m 38.12481,-933.59294 0,-222.73208 m 0,295.49488 0,8.37915 m 0,128.52617 0,-57.18718 m 0,477.7203 0,332.8239 m 38.12481,-963.58113 0,-242.35065 m 0,300.8624 0,2.50047 m 0,152.86105 0,-49.12556 m 0,447.33622 0,370.7243 m 38.12481,-980.99514 0,-260.08502 m 0,435.58034 0,40.94155 m 0,765.87187 0,-389.6013 m 38.1248,-864.47399 0,285.05073 m 0,206.9844 0,-39.99099 m 0,397.32405 0,395.0474 m 38.12481,-964.44735 0,-286.59346 m 0,442.06833 0,6.99892 m 0,292.48426 0,-281.88761 m 0,380.47081 0,394.0098 m 38.12481,-934.93266 0,-301.62555 m 0,444.48239 0,214.92352 m 0,549.0204 0,-386.0918 m 38.12481,-822.05438 0,282.80012 m 0,12.92146 0,-10.02002 m 0,15.36069 0,15.71322 m 0,25.79712 0,-8.28941 m 0,31.08186 0,23.79568 m 0,225.12406 0,-178.18037 m 0,362.79837 0,373.1629 m 38.1248,-800.07354 0,-368.40701 m 0,437.51907 0,74.91962 m 0,23.53935 0,-16.50596 m 0,34.00535 0,51.28082 m 0,526.4142 0,-363.8346 m 38.12481,-761.70091 0,324.89197 m 0,22.52918 0,-11.9382 m 0,12.39711 0,25.17263 m 0,46.87987 0,-3.03887 m 0,12.14427 0,6.79268 m 0,64.72448 0,-60.88074 m 0,285.67473 0,356.2598 m 38.12481,-978.37164 0,-87.62974 m 0,93.34702 0,253.35134 m 0,142.31518 0,-25.57037 m 0,64.1083 0,8.42479 m 0,490.37762 0,-359.0281 m 38.12481,-656.97756 0,299.07379 m 0,219.75946 0,-57.56255 m 0,137.68276 0,390.9182 m 0,50.011 0,-8.5556 m 0,32.9605 0,1.6731 m 38.12481,-819.35691 0,-294.69316 m 0,528.88696 0,489.93931 m 0,44.5978 0,-16.7472 m 0,42.3972 0,7.6439 m 0,18.307 0,-3.4598 m 38.1248,-1029.44609 0,107.5824 m 0,68.31193 0,-65.73844 m 0,67.86774 0,7.17765 m 0,31.24041 0,-23.10578 m 0,271.88687 0,419.40201 m 0,29.3058 0,-24.7601 m 0,39.9634 0,17.8407 m 0,9.009 0,-4.7628 m 0,19.6225 0,20.4713 m 0,28.1008 0,-17.2284 m 38.12481,-976.16715 0,132.26558 m 0,14.59872 0,-6.23886 m 0,11.11335 0,29.06511 m 0,18.23847 0,-13.11426 m 0,272.26338 0,462.58406 m 0,45.7343 0,-39.2076 m 38.12481,-898.98553 0,98.32601 m 0,54.10943 0,-51.9465 m 0,55.07223 0,36.39422 m 0,21.15177 0,-0.80775 m 0,232.42311 0,454.94641 m 38.12481,-693.36087 0,-170.47824 m 0,174.23289 0,9.24935 m 0,5.74519 0,-2.26307 m 0,28.23952 0,2.56451 m 0,26.32797 0,-6.1492 m 0,109.43966 0,19.47866 m 0,23.17351 0,-5.46281 m 0,8.50938 0,418.68035 m 38.1248,-583.79239 0,-181.88398 m 0,185.36613 0,32.47059 m 0,12.27845 0,-8.54884 m 0,80.81795 0,90.16369 m 0,14.2148 0,-12.7112 m 0,45.4188 0,256.3579 m 38.12477,-478.73094 0,-158.37173 m 0,163.2357 0,105.37542 m 0,291.73305 0,-145.0853 m 38.12481,-343.6001 0,193.04272 m 0,147.73288 0,-1.9947 m 0,12.3628 0,81.4279 m 38.12481,-109.0736 0,-214.93007 m 38.1248,-12.69702 0,50.92565 m 38.12478,-55.24618 0,-14.83689 m 0,15.80909 0,51.94215 m 38.1248,-5.30372 0,-70.22051 m 38.1248,-6.07585 0,3.79445 m 0,38.40144 0,-35.52168 m 0,41.97749 0,17.29161 m 38.1249,-70.89214 0,-0.95989 m 0,12.92765 0,18.35805 m 0,28.60689 0,-23.05229 m 38.1248,-32.53655 0,6.5533 m 0,30.93234 0,-18.29567"
       style="stroke:#000000;stroke-width:1.79999995"
       id="path43"
       inkscape:connector-curvature="0" />
  </g>
  <g
     inkscape:label="fill-d7d7d7"
     inkscape:groupmode="layer"
     id="fill-d7d7d7"
     transform="translate(89.0625,-396.65063)">
    <path
       d="m -83.328724,715.82745 0,77.31206 m 38.972026,62.05061 0,-184.47934 m 38.9720254,-33.40793 0,263.1465 m 0,536.87145 0,-37.3037 m 0,45.067 0,0.694 m 0,44.0705 0,-1.4106 m 38.9720256,-886.26927 0,261.96425 m 0,624.21802 0,-111.7519 m 0,117.7171 0,24.3821 m 38.972023,-640.40138 0,-306.70039 m 0,789.33797 0,149.6836 m 38.972024,-625.03136 0,-343.21146 m 0,807.26632 0,128.2485 m 38.97203,-763.60164 0,-200.56625 m 0,207.05695 0,9.96497 m 0,89.85776 0,-78.15478 m 0,86.84897 0,3.56263 m 0,60.17877 0,-46.84295 m 0,493.49777 0,140.9151 m 0,53.5313 0,-47.435 m 38.97202,-1002.92385 0,211.57913 m 0,10.09694 0,-8.41943 m 0,21.26723 0,5.44556 m 0,60.86775 0,-33.93412 m 0,60.6074 0,4.28977 m 0,81.60399 0,-71.13324 m 0,503.09337 0,307.3314 m 38.97203,-945.51555 0,-231.84974 m 0,278.18329 0,34.59288 m 0,128.00355 0,-57.29356 m 0,470.43033 0,347.173 m 38.97202,-963.31687 0,-257.37679 m 0,292.40764 0,22.27437 m 0,149.89426 0,-50.09023 m 0,440.00902 0,378.8741 m 38.97203,-938.35696 0,-309.97522 m 0,440.77663 0,43.34217 m 0,761.68368 0,-393.5297 m 38.97203,-861.93981 0,281.00107 m 0,219.01397 0,-50.18324 m 0,225.67741 0,57.7275 m 0,509.5068 0,-396.2916 m 38.97202,-851.78691 0,298.51995 m 0,11.95181 0,-10.47736 m 0,40.8505 0,6.08126 m 0,390.96085 0,-313.77696 m 0,410.08166 0,393.0771 m 38.97203,-913.08543 0,-315.55447 m 0,351.7574 0,2.95154 m 0,31.71914 0,-17.95035 m 0,23.9958 0,33.09538 m 0,213.18159 0,-198.70613 m 0,373.68833 0,381.5447 m 38.97202,-812.21666 0,-381.30263 m 0,415.10281 0,1.50141 m 0,211.73027 0,-199.6651 m 0,357.6466 0,370.666 m 38.97203,-756.00686 0,-395.9692 m 0,398.48572 0,10.06887 m 0,104.91728 0,-84.48536 m 0,90.38733 0,90.26292 m 0,19.0096 0,-4.8431 m 0,125.3554 0,361.1457 m 38.97202,-733.7821 0,-370.44932 m 0,424.21955 0,29.47566 m 0,44.22987 0,-43.57154 m 0,248.41668 0,355.1772 m 38.97203,-712.13839 0,-334.13173 m 0,459.75423 0,75.22472 m 0,481.40367 0,-374.8763 m 0,381.8274 0,3.3473 m 0,35.5085 0,-10.5695 m 38.97203,-1069.99168 0,142.21365 m 0,15.02776 0,-13.14035 m 0,13.59854 0,139.68595 m 0,81.15405 0,-4.70621 m 0,123.53468 0,518.12461 m 0,44.8889 0,-20.9823 m 0,43.6216 0,14.2359 m 38.97202,-921.57564 0,-121.71977 m 0,128.60622 0,17.90936 m 0,12.75802 0,-9.46231 m 0,14.10051 0,71.19132 m 0,671.70069 0,-447.87993 m 0,450.53543 0,29.182 m 0,43.4341 0,-26.3996 m 0,27.4316 0,33.6322 m 0,20.8787 0,-16.1576 m 38.97203,-998.36922 0,209.35556 m 0,19.69972 0,-2.96588 m 0,228.62955 0,539.12257 m 38.97202,-744.09194 0,-220.84211 m 0,226.84736 0,6.75338 m 0,696.63651 0,-477.52714 m 38.97203,-419.279 0,208.62916 m 0,59.32019 0,-27.72996 m 0,114.08106 0,30.34156 m 0,463.19903 0,-429.47605 m 38.97202,-376.93369 0,191.143 m 0,14.89569 0,-9.02523 m 0,15.49988 0,44.60062 m 0,486.36248 0,-426.10369 m 38.97204,-260.71984 0,227.29889 m 0,31.619 0,-8.16925 m 0,13.70174 0,33.97126 m 0,68.43989 0,-15.3969 m 0,46.3873 0,12.4351 m 0,201.8215 0,-197.9532 m 38.97202,-346.18304 0,223.13009 m 0,146.91045 0,-4.3689 m 0,8.0943 0,104.2037 m 38.97203,-74.1347 0,-310.06756 m 38.97203,43.40981 0,36.66542 m 38.97202,-2.68299 0,-75.79424 m 38.972,-1.39702 0,73.11824 m 38.9721,-30.63508 0,-50.02587 m 0,50.85854 0,19.96405 m 38.972,-74.68027 0,-2.58877 m 0,14.68103 0,23.96911 m 0,26.85997 0,-23.03969 m 38.972,-35.81754 0,11.28686 m 0,30.93228 0,-19.09225"
       style="stroke:#000000;stroke-width:1.79999995"
       id="path46"
       inkscape:connector-curvature="0" />
  </g>
  <g
     inkscape:label="fill-e7e7e7"
     inkscape:groupmode="layer"
     id="fill-e7e7e7"
     transform="translate(89.0625,-396.65063)">
    <path
       d="m -72.614058,698.64582 0,119.29679 m 40.666462,52.14563 0,-210.83227 m 0,770.04463 0,22.7708 m 40.6664615,-564.14045 0,-264.66718 m 0,279.50922 0,7.65751 m 0,539.2376 0,-60.5549 m 0,80.0786 0,35.1909 m 0,15.0255 0,-3.4131 m 40.6664615,-927.39032 0,282.9132 m 0,641.51622 0,-144.0827 m 0,148.1782 0,3.5343 m 0,10.2367 0,-0.5125 m 40.666465,-972.68492 0,324.13724 m 0,606.76438 0,-133.9709 m 40.666458,-827.28698 0,363.1002 m 0,593.06298 0,-139.6698 m 40.66647,-847.03373 0,345.29683 m 0,54.31456 0,-47.54747 m 0,484.78371 0,279.6149 m 40.66646,-913.39443 0,-232.19095 m 0,235.90633 0,2.53464 m 0,83.65474 0,-82.67616 m 0,100.34733 0,5.60578 m 0,86.49526 0,-68.47273 m 0,488.47509 0,331.5274 m 40.66646,-945.37993 0,-260.37013 m 0,260.8676 0,4.08365 m 0,9.83116 0,-6.23075 m 0,8.58262 0,45.1495 m 0,16.18337 0,-3.7694 m 0,21.24366 0,1.93318 m 0,99.77426 0,-57.33081 m 0,454.37342 0,371.8175 m 40.66646,-923.13496 0,-320.38639 m 0,359.72235 0,1.29728 m 0,69.22544 0,-8.88526 m 0,12.29471 0,45.82377 m 0,765.72976 0,-392.0885 m 40.66646,-865.3436 0,302.02974 m 0,31.67386 0,-6.88139 m 0,36.50246 0,1.35843 m 0,131.24841 0,-49.59899 m 0,270.34958 0,3.7912 m 0,526.1669 0,-397.7575 m 40.66646,-855.55176 0,319.96217 m 0,423.23709 0,-317.82799 m 0,413.12929 0,395.968 m 40.66646,-906.52155 0,-330.11726 m 0,340.60503 0,4.96902 m 0,16.43774 0,-7.14508 m 0,14.32039 0,316.99301 m 0,24.2589 0,-13.4186 m 0,121.4293 0,386.0941 m 40.66647,-792.10225 0,-411.39907 m 0,414.31079 0,4.2685 m 0,291.83863 0,-285.83579 m 0,366.78549 0,374.1791 m 40.66646,-511.5812 0,-649.3465 m 0,754.182 0,365.0653 m 40.66646,-732.7464 0,-380.21409 m 0,391.21007 0,4.89299 m 0,103.9389 0,-95.10205 m 0,183.36418 0,3.0823 m 0,473.1866 0,-357.788 m 40.66646,-695.03655 0,338.25355 m 0,75.55386 0,-5.85157 m 0,7.23428 0,11.05053 m 0,8.79021 0,-4.46574 m 0,9.53599 0,5.01755 m 0,96.5447 0,-92.6738 m 0,194.73269 0,391.9666 m 0,32.216 0,-28.7762 m 40.66646,-1061.97022 0,309.23399 m 0,7.69055 0,-4.06433 m 0,7.13074 0,9.05983 m 0,13.18873 0,-0.33858 m 0,20.60581 0,3.31462 m 0,23.14263 0,-11.70128 m 0,112.5011 0,614.65461 m 40.66646,-917.58563 0,-127.12838 m 0,128.16914 0,120.62702 m 0,31.97768 0,-15.77912 m 0,186.66744 0,586.63195 m 40.66647,-831.86744 0,-181.71228 m 0,186.08952 0,56.54799 m 0,747.92811 0,-560.81836 m 40.66646,-399.24516 0,231.01184 m 0,44.99314 0,-42.6895 m 0,111.76131 0,4.71604 m 0,22.17309 0,-12.73011 m 0,40.18686 0,3.13862 m 0,21.84018 0,-19.40698 m 0,32.26824 0,485.17859 m 40.66646,-678.57382 0,-207.31432 m 0,212.91259 0,71.93417 m 0,547.64958 0,-487.76756 m 40.66646,-298.85583 0,212.63754 m 0,44.9738 0,-42.31044 m 0,62.84211 0,439.18938 m 40.66648,-370.63894 0,-284.97456 m 0,325.8808 0,4.16135 m 0,29.71945 0,-25.3269 m 0,31.6797 0,3.0397 m 0,17.343 0,-2.5245 m 0,6.5514 0,186.6283 m 40.66646,-290.68199 0,-211.09498 m 0,220.40298 0,6.45384 m 0,20.39719 0,-3.90376 m 0,45.17762 0,149.1235 m 40.66646,-119.8222 0,-199.82597 m 40.66646,-36.75665 0,69.12776 m 40.66644,-2.57779 0,-89.12993 m 40.6665,-14.3819 0,3.3485 m 0,19.1808 0,-9.29664 m 0,13.63276 0,69.4874 m 40.6664,-36.93521 0,-54.37699 m 0,57.45275 0,22.19918 m 40.6665,-43.31769 0,-24.32198 m 0,25.2931 0,28.21531 m 40.6665,-24.85098 0,-17.31444"
       style="stroke:#000000;stroke-width:1.79999995"
       id="path49"
       inkscape:connector-curvature="0" />
  </g>
</svg>
