<?xml version="1.0" encoding="UTF-8" standalone="no"?>
<!-- Created with Inkscape (http://www.inkscape.org/) -->

<svg
   xmlns:dc="http://purl.org/dc/elements/1.1/"
   xmlns:cc="http://creativecommons.org/ns#"
   xmlns:rdf="http://www.w3.org/1999/02/22-rdf-syntax-ns#"
   xmlns:svg="http://www.w3.org/2000/svg"
   xmlns="http://www.w3.org/2000/svg"
   xmlns:sodipodi="http://sodipodi.sourceforge.net/DTD/sodipodi-0.dtd"
   xmlns:inkscape="http://www.inkscape.org/namespaces/inkscape"
   width="1573.6562"
   height="2081.7017"
   id="canards"
   version="1.1"
   inkscape:version="0.48.4 r9939"
   sodipodi:docname="criss-cross-canards_hatched.svg">
  <defs
     id="defs2997" />
  <sodipodi:namedview
     id="base"
     pagecolor="#ffffff"
     bordercolor="#666666"
     borderopacity="1.0"
     inkscape:pageopacity="0.0"
     inkscape:pageshadow="2"
     inkscape:zoom="0.175"
     inkscape:cx="-0.70470714"
     inkscape:cy="881.81326"
     inkscape:document-units="px"
     inkscape:current-layer="fill-e8e8e8"
     showgrid="false"
     inkscape:window-width="1276"
     inkscape:window-height="775"
     inkscape:window-x="0"
     inkscape:window-y="21"
     inkscape:window-maximized="1"
     fit-margin-top="0"
     fit-margin-left="0"
     fit-margin-right="0"
     fit-margin-bottom="0" />
  <metadata
     id="metadata3000">
    <rdf:RDF>
      <cc:Work
         rdf:about="">
        <dc:format>image/svg+xml </dc:format>
        <dc:type
           rdf:resource="http://purl.org/dc/dcmitype/StillImage" />
        <dc:title />
      </cc:Work>
    </rdf:RDF>
  </metadata>
  <g
     inkscape:label="fill-030303"
     inkscape:groupmode="layer"
     id="fill-030303"
     transform="translate(72.71875,968.79548)">
    <path
       d="m -62.108487,1040.8962 0,26.711 m 17.357047,-26.5937 0,-45.93314 m 17.357047,-39.56181 0,50.18925 m 0,91.0736 0,-45.7936 m 17.357047,-129.36648 0,50.22256 m 0,97.44672 0,-62.4423 m 17.3570471,-112.17718 0,53.93628 m 0,139.9175 0,-117.1658 m 17.3570469,-1262.87938 0,0.40115 m 0,1354.10543 0,-198.53408 m 17.357047,-30.03141 0,41.68452 m 0,192.38807 0,-190.46492 m 17.357047,-72.3949 0,23.38899 m 0,212.32073 0,-177.21768 m 17.357047,-19.89934 0,12.09469 m 0,164.39373 0,-134.23194 m 17.357047,-1422.9324 0,112.78619 m 0,47.19131 0,-11.59998 m 0,57.27173 0,3.36586 m 0,1331.75933 0,-137.75135 m 17.357044,-1425.69066 0,136.16029 m 0,1408.48563 0,-112.74699 m 17.35705,-1451.20785 0,185.53851 m 0,23.51695 0,-6.64144 m 0,1226.69287 0,117.31198 m 17.35705,-1352.77584 0,-206.05566 m 0,1415.84629 0,124.39412 m 17.35704,-1346.0211 0,-200.55558 m 0,1431.29394 0,96.73834 m 17.35705,-1334.85553 0,-194.86571 m 0,1409.98096 0,104.64174 m 17.35705,-1328.26932 0,-188.04809 m 0,1402.05633 0,99.46231 m 17.35705,-1325.64112 0,-177.83313 m 0,1381.27744 0,108.86803 m 17.35704,-1328.04555 0,-165.14327 m 0,1392.44214 0,51.47564 m 17.35705,-1299.35218 0,-151.15513 m 0,1291.71298 0,26.84431 m 0,161.0032 0,-104.40221 m 17.35705,-1381.52189 0,143.06929 m 0,1135.27244 0,-25.36122 m 0,125.33365 0,98.60439 m 17.35704,-1340.86096 0,-138.95665 m 0,1213.02947 0,62.4028 m 0,184.43302 0,-72.491 m 17.35705,-1388.46824 0,130.76361 m 0,1134.91621 0,-172.67264 m 0,281.094 0,39.13849 m 17.35705,-1280.36226 0,-135.09423 m 0,1070.97188 0,74.75399 m 0,105.01752 0,-82.15656 m 0,187.25647 0,77.02923 m 17.35705,-1423.23142 0,-18.09558 m 0,43.58043 0,107.84249 m 0,992.93606 0,-83.26743 m 0,95.61176 0,4.9851 m 0,38.82355 0,-35.0813 m 0,53.05715 0,14.79879 m 0,212.17464 0,-83.64751 m 17.35704,-1371.89415 0,18.58042 m 0,152.88101 0,-49.78958 m 0,936.78897 0,73.45031 m 0,61.19825 0,-30.27549 m 0,51.40478 0,32.0246 m 0,216.66609 0,-89.82734 m 17.35705,-1380.9044 0,190.21787 m 0,921.07596 0,-50.06571 m 0,91.62538 0,21.92623 m 0,30.75501 0,-7.9553 m 0,9.09013 0,21.98583 m 0,28.13208 0,-5.22234 m 0,144.56944 0,58.12805 m 17.35705,-1254.04058 0,-208.10715 m 0,1065.75351 0,49.49418 m 0,48.70102 0,-33.82205 m 0,40.64394 0,4.49717 m 0,16.97229 0,-4.3951 m 0,9.10533 0,24.99637 m 0,43.38213 0,-14.77248 m 0,22.30709 0,2.99618 m 0,31.96341 0,-19.0692 m 0,106.3851 0,61.54006 m 17.35704,-1240.19157 0,-224.97262 m 0,1068.48992 0,156.91937 m 0,63.95258 0,-11.82533 m 0,68.61626 0,5.74825 m 0,110.89554 0,-94.79772 m 17.35705,-1373.72228 0,237.65102 m 0,983.39562 0,-154.43072 m 0,322.20887 0,73.50788 m 17.35705,-1217.32167 0,-249.55071 m 0,1061.60001 0,129.80973 m 0,126.76512 0,-13.29044 m 0,100.83249 0,63.03136 m 17.35704,-1210.1591 0,-261.99282 m 0,1030.13965 0,94.92829 m 0,66.32766 0,-60.70906 m 0,145.98458 0,117.59568 m 0,41.06104 0,-22.37284 m 17.35705,-1415.84467 0,278.66487 m 0,873.86818 0,-143.8507 m 0,150.51255 0,5.58991 m 0,44.43077 0,-3.90616 m 0,44.80714 0,7.84864 m 0,184.50332 0,-157.20162 m 17.35705,-1287.80314 0,306.45168 m 0,698.02232 0,-9.59599 m 0,16.37962 0,56.44898 m 0,21.75547 0,-12.37241 m 0,19.48975 0,18.00264 m 0,108.04447 0,-24.6868 m 0,54.05995 0,42.40571 m 0,127.59255 0,-125.33388 m 17.35705,-1298.1904 0,71.23518 m 0,194.42627 0,-189.99575 m 0,198.83429 0,8.3026 m 0,792.6439 0,-86.25752 m 0,95.33179 0,9.18109 m 0,27.41759 0,-10.48421 m 0,77.06701 0,46.69884 m 0,12.76202 0,-3.06588 m 0,19.67795 0,36.0992 m 0,93.42815 0,-74.91568 m 0,84.83378 0,20.25701 m 17.35704,-1218.87832 0,-203.62382 m 0,209.30723 0,28.01462 m 0,15.13739 0,-9.44421 m 0,733.54383 0,98.47513 m 0,178.57963 0,-171.01241 m 0,176.99806 0,68.17101 m 0,82.78073 0,-59.3175 m 17.35705,-1348.22171 0,44.76966 m 0,171.44513 0,-166.25459 m 0,917.56176 0,382.94904 m 0,59.97559 0,-33.48013 m 17.35705,-1373.7735 0,28.8915 m 0,15.31872 0,-4.77637 m 0,15.48835 0,19.92308 m 0,106.01384 0,-68.71818 m 0,841.57912 0,440.95813 m 17.35704,-1374.88529 0,-16.99119 m 0,38.18768 0,25.49253 m 0,104.90538 0,-15.23914 m 0,218.2312 0,2.84628 m 0,1000.32103 0,-437.05885 m 17.35705,-934.9674 0,10.61952 m 0,46.32702 0,-22.92889 m 0,580.670464 0,25.847766 m 0,304.21806 0,-16.44312 m 0,28.26063 0,18.33859 m 0,258.42611 0,-249.6416 m 0,255.50011 0,134.83308 m 17.35705,-1289.75962 0,-70.04798 m 0,380.20735 0,7.6601 m 0,251.872649 0,-55.003817 m 0,323.665958 0,15.28931 m 0,35.31668 0,-23.19455 m 0,30.29105 0,19.60109 m 0,237.30548 0,-228.6671 m 0,241.86289 0,111.61925 m 17.35704,-1270.77902 0,-82.57538 m 0,398.37484 0,10.66965 m 0,218.221771 0,-67.945151 m 0,355.58284 0,87.60332 m 0,59.10713 0,-54.73292 m 0,58.89025 0,137.62976 m 0,31.95462 0,-25.51252 m 0,39.6324 0,109.82002 m 17.35705,-1357.60951 0,-1.7349 m 0,10.70173 0,4.41854 m 0,78.96501 0,-68.66315 m 0,511.0214 0,73.215745 m 0,298.091035 0,-14.31303 m 0,28.00625 0,4.41181 m 0,36.13837 0,-24.90546 m 0,26.66254 0,19.44474 m 0,22.91436 0,-14.50868 m 0,18.73988 0,72.33716 m 0,20.71455 0,-13.16418 m 0,27.87777 0,13.19261 m 0,10.7983 0,-5.21007 m 0,17.18218 0,7.61454 m 0,19.49663 0,-4.68575 m 0,16.86061 0,3.3628 m 0,21.00698 0,-3.75922 m 0,41.85785 0,90.67771 m 17.35705,-1339.87619 0,-17.0128 m 0,58.99449 0,55.95667 m 0,475.85028 0,-55.26748 m 0,60.868257 0,9.848901 m 0,312.625422 0,-18.45521 m 0,28.46877 0,18.57421 m 0,19.12395 0,-3.69903 m 0,11.5563 0,14.48535 m 0,37.02745 0,-19.64376 m 0,30.63883 0,8.64568 m 0,32.1022 0,-6.67855 m 0,35.21951 0,7.55576 m 0,42.86491 0,-6.01177 m 0,26.59958 0,6.40309 m 0,27.70847 0,-8.40314 m 0,31.00584 0,5.47128 m 0,116.98574 0,-84.30207 m 17.35705,-1278.35217 0,23.18665 m 0,104.55889 0,-45.98561 m 0,287.65995 0,10.29417 m 0,85.29412 0,-3.63718 m 0,76.76119 0,59.325528 m 0,298.253322 0,-4.37375 m 0,18.51247 0,8.41574 m 0,33.8373 0,-24.06484 m 0,31.99583 0,37.79438 m 0,32.8261 0,-15.0113 m 0,27.38635 0,6.41834 m 0,24.53749 0,-3.15769 m 0,44.96951 0,0.32061 m 0,23.69481 0,-6.97245 m 0,20.38589 0,2.59124 m 0,34.44402 0,-3.09603 m 0,11.44488 0,4.3783 m 0,28.10369 0,-11.64466 m 0,30.65947 0,7.57142 m 0,71.21192 0,-44.25968 m 17.35704,-1289.61043 0,8.61401 m 0,125.77649 0,-30.13827 m 0,44.24849 0,6.65782 m 0,236.10736 0,-6.30255 m 0,82.96544 0,15.20734 m 0,37.61788 0,-1.69622 m 0,6.76562 0,55.30028 m 0,312.32161 0,-1.91095 m 0,8.45033 0,3.40762 m 0,22.04887 0,-15.1682 m 0,24.42857 0,43.98643 m 0,28.39878 0,-13.11151 m 0,114.44762 0,37.45266 m 0,39.81293 0,-33.42099 m 0,38.83131 0,20.98934 m 0,33.87307 0,-29.36839 m 0,35.57459 0,11.48333 m 0,31.95847 0,-17.18875 m 17.35705,-1153.6584 0,46.07558 m 0,225.52804 0,-11.07092 m 0,102.96769 0,5.40286 m 0,70.11721 0,-38.53313 m 0,362.56356 0,9.73311 m 0,74.66088 0,-70.20625 m 0,82.84971 0,13.18528 m 0,43.89268 0,-15.97512 m 0,170.08825 0,1.01507 m 0,42.28015 0,-14.85619 m 0,39.43807 0,5.41174 m 0,27.24022 0,-8.34856 m 0,14.97011 0,27.16722 m 0,36.25856 0,-22.65968 m 17.35705,-1199.86088 0,50.5641 m 0,208.12175 0,-8.33368 m 0,98.48333 0,9.67543 m 0,17.94521 0,-4.40128 m 0,11.08766 0,25.98803 m 0,332.62714 0,-6.0221 m 0,30.57259 0,12.84383 m 0,24.57799 0,-11.78738 m 0,18.17359 0,7.38572 m 0,13.07214 0,-6.29197 m 0,17.4788 0,21.35311 m 0,57.65421 0,-7.74904 m 0,125.62977 0,5.91539 m 0,69.66091 0,-6.99467 m 0,15.48237 0,10.1179 m 0,27.12153 0,-26.91217 m 0,33.74102 0,17.76643 m 17.35704,-1125.70031 0,-43.20441 m 0,231.75733 0,16.12642 m 0,107.97418 0,-9.87485 m 0,14.55864 0,15.84205 m 0,427.49568 0,-41.689 m 0,51.83362 0,20.45632 m 0,13.74629 0,-5.34115 m 0,16.94353 0,6.50904 m 0,132.45372 0,-5.45318 m 0,41.68844 0,2.89476 m 0,14.12178 0,-4.78556 m 0,39.18645 0,8.52233 m 0,75.83594 0,-65.71506 m 0,332.0515 0,16.02744 m 17.35705,-1393.90328 0,-44.6499 m 0,213.14648 0,9.69502 m 0,12.82089 0,-9.60437 m 0,92.69082 0,32.76562 m 0,413.89438 0,-16.00378 m 0,18.45823 0,8.63392 m 0,24.61515 0,-16.06928 m 0,20.73137 0,20.61183 m 0,23.86948 0,-10.87554 m 0,50.26599 0,8.17738 m 0,88.96937 0,-7.09121 m 0,43.47991 0,4.40105 m 0,16.46198 0,-4.12227 m 0,42.63764 0,7.86961 m 0,11.86771 0,-4.86031 m 0,15.04366 0,45.94929 m 0,219.91965 0,-7.68102 m 0,18.76105 0,48.14646 m 17.35705,-1368.04013 0,-53.67786 m 0,184.82679 0,45.67066 m 0,109.82443 0,-58.27046 m 0,466.47917 0,24.37046 m 0,15.65193 0,-9.09321 m 0,14.2192 0,9.39654 m 0,37.08785 0,-13.58694 m 0,24.38634 0,9.61986 m 0,25.84311 0,-11.50606 m 0,42.00104 0,7.29802 m 0,48.58773 0,-7.21521 m 0,23.70505 0,5.41919 m 0,22.72041 0,-4.05916 m 0,30.58048 0,4.14066 m 0,67.12065 0,-39.5917 m 0,40.09609 0,33.73941 m 0,265.12234 0,-93.2673 m 17.35704,-1306.76954 0,50.4084 m 0,87.23828 0,-0.3592 m 0,13.0582 0,90.16818 m 0,39.19893 0,-14.98514 m 0,44.59056 0,22.4985 m 0,461.18857 0,-46.12412 m 0,70.01735 0,12.01373 m 0,17.95925 0,-7.38207 m 0,20.9586 0,5.24921 m 0,71.61307 0,-6.31685 m 0,21.79911 0,5.22532 m 0,20.34498 0,-5.50044 m 0,47.5137 0,4.53718 m 0,32.13411 0,-5.54057 m 0,11.80064 0,16.71446 m 0,72.17986 0,-65.40387 m 0,154.01373 0,158.94504 m 17.35705,-1318.23405 0,-57.71917 m 0,90.46484 0,21.74227 m 0,101.88963 0,-95.28457 m 0,171.83967 0,24.0183 m 0,449.54092 0,-28.68137 m 0,35.74972 0,15.52909 m 0,51.06176 0,-11.1533 m 0,42.71807 0,11.03642 m 0,54.52569 0,-2.34031 m 0,18.49485 0,6.47778 m 0,15.78619 0,-4.35098 m 0,23.16948 0,5.68552 m 0,41.9918 0,-20.3282 m 0,33.87751 0,86.1042 m 0,37.98468 0,-4.73484 m 0,27.2615 0,192.83611 m 17.35705,-1187.41497 0,-175.47815 m 0,251.70493 0,39.21695 m 0,457.38313 0,-30.67907 m 0,32.7098 0,5.55042 m 0,17.81171 0,-13.8699 m 0,24.46709 0,9.18713 m 0,21.9581 0,-5.26735 m 0,11.36946 0,5.09351 m 0,40.70267 0,-3.16623 m 0,60.28146 0,5.25919 m 0,37.83906 0,-8.45511 m 0,20.07142 0,4.09702 m 0,16.3279 0,-5.6067 m 0,12.20251 0,136.58371 m 0,181.75138 0,-124.80848 m 17.35705,-1177.63627 0,155.41384 m 0,116.62963 0,-40.79046 m 0,475.90243 0,23.10004 m 0,24.72637 0,-15.61614 m 0,26.18074 0,6.35349 m 0,50.54559 0,-3.89217 m 0,19.6881 0,6.98916 m 0,42.98755 0,-6.03492 m 0,34.85597 0,6.75596 m 0,56.00803 0,-7.61578 m 0,12.66581 0,93.71113 m 0,191.03485 0,-58.01405 m 17.35704,-1196.43176 0,142.18315 m 0,90.57291 0,-12.01915 m 0,34.06228 0,2.86732 m 0,485.94333 0,-40.04039 m 0,51.06944 0,17.26655 m 0,19.68366 0,-6.84014 m 0,19.55188 0,4.00148 m 0,35.2054 0,-9.98462 m 0,30.42267 0,4.0833 m 0,39.16427 0,-0.94522 m 0,16.05983 0,4.14157 m 0,29.5169 0,-12.07983 m 0,24.46454 0,10.46816 m 0,84.83753 0,-77.403 m 0,220.05276 0,32.96898 m 17.35705,-1254.84286 0,-52.76687 m 0,82.85531 0,133.53375 m 0,86.65493 0,-24.48703 m 0,503.6756 0,44.79806 m 0,17.17181 0,-10.75223 m 0,24.29159 0,9.54411 m 0,38.53755 0,-4.76997 m 0,28.43512 0,9.10842 m 0,56.63006 0,-5.9259 m 0,17.88385 0,4.88099 m 0,15.9801 0,-9.70914 m 0,18.36547 0,97.50791 m 17.35705,-890.263 0,-214.14945 m 0,274.62666 0,46.86743 m 0,349.97175 0,-15.67737 m 0,106.86714 0,20.73453 m 0,20.36871 0,-14.41656 m 0,23.22309 0,10.95046 m 0,22.00331 0,-7.60208 m 0,26.62251 0,41.89096 m 0,35.65564 0,-2.54424 m 0,19.69737 0,7.96096 m 0,27.51301 0,-5.86154 m 0,6.57639 0,112.61596 m 17.35704,-1177.41173 0,-4.26671 m 0,80.72851 0,44.85353 m 0,133.34353 0,-107.77925 m 0,108.81282 0,50.24917 m 0,470.39878 0,-45.84919 m 0,111.55205 0,45.78757 m 0,32.1826 0,-18.82267 m 0,28.76474 0,5.24125 m 0,35.5865 0,-24.2232 m 0,58.9466 0,6.52748 m 0,33.84123 0,-14.0966 m 0,17.27504 0,9.34614 m 0,151.89636 0,-141.08184 m 17.35705,-1022.63372 0,53.5188 m 0,64.59574 0,-9.00317 m 0,19.90885 0,5.8734 m 0,38.63443 0,-12.69263 m 0,78.94546 0,40.72222 m 0,52.06226 0,-9.93596 m 0,366.03147 0,49.93756 m 0,98.5209 0,-30.67687 m 0,33.11473 0,22.03566 m 0,65.59421 0,-53.01615 m 0,86.88279 0,14.3352 m 0,194.9827 0,-182.12025 m 17.35705,-1018.87633 0,17.43769 m 0,304.21037 0,-45.79972 m 0,56.4532 0,21.50621 m 0,446.103 0,-73.35231 m 0,121.51098 0,35.71677 m 0,78.63166 0,-71.79436 m 0,76.20163 0,12.88437 m 0,232.6432 0,-210.22963 m 17.35704,-774.15971 0,82.3061 m 0,36.6937 0,-26.46911 m 0,307.20847 0,2.84676 m 0,189.19907 0,-158.95391 m 0,197.00715 0,87.95595 m 0,32.66196 0,-26.26169 m 0,47.13481 0,219.79813 m 0,58.3719 0,-21.88478 m 17.35705,-1622.72529 0,5.50138 m 0,426.4196 0,-6.08616 m 0,234.07523 0,6.45739 m 0,43.19245 0,-32.29391 m 0,271.741729 0,4.144501 m 0,55.16402 0,-7.33797 m 0,14.13622 0,154.53681 m 0,106.22245 0,-78.93307 m 0,83.31566 0,18.30674 m 0,23.47109 0,-16.75332 m 0,25.59195 0,262.63835 M 1014.0284,-851.89 l 0,-5.58249 m 0,673.29737 0,38.70454 m 0,21.09772 0,-8.15807 m 0,234.57782 0,3.85069 m 0,19.4184 0,-1.51908 m 0,15.63367 0,12.59333 m 0,171.6363 0,-163.38862 m 0,255.5179 0,23.00286 m 0,17.59511 0,-11.92435 m 0,17.63871 0,91.22143 m 0,17.69194 0,-14.74728 m 0,25.76764 0,152.97434 m 17.3571,-1595.80716 0,-2.72969 m 0,400.47929 0,6.42903 m 0,328.31953 0,-65.59529 m 0,105.83499 0,6.979796 m 0,192.384294 0,-3.75078 m 0,21.36527 0,1.90754 m 0,25.24359 0,-9.10211 m 0,23.55634 0,157.24983 m 0,122.40691 0,-1.4946 m 0,8.64892 0,12.62891 m 0,80.79374 0,-73.53095 m 0,79.05346 0,182.40744 m 0,51.02401 0,-3.55505 m 17.357,-1304.53182 0,42.88736 m 0,363.16192 0,-92.17992 m 0,107.40543 0,7.605493 m 0,205.814307 0,-4.52449 m 0,22.72192 0,2.74644 m 0,24.34051 0,-7.23443 m 0,25.41849 0,159.30672 m 0,209.47158 0,-86.45684 m 0,93.40988 0,29.9398 m 0,25.57745 0,-18.78063 m 0,22.29236 0,46.18367 m 0,24.40557 0,-19.31647 m 0,25.55187 0,27.90878 m 0,23.6884 0,-20.8747 m 0,41.23057 0,7.02673 m 0,15.45886 0,-12.04425 m 17.3571,-987.06384 0,102.4028 m 0,18.568926 0,-14.304806 m 0,35.06646 0,22.731986 m 0,14.662232 0,-13.073247 m 0,27.703803 0,5.264211 m 0,156.543395 0,-0.22658 m 0,18.21025 0,9.31466 m 0,176.39471 0,-156.87024 m 0,289.62343 0,18.18496 m 0,75.08243 0,-71.80016 m 0,77.25826 0,70.99473 m 0,14.78837 0,-5.24383 m 0,21.63451 0,14.12564 m 0,44.98441 0,-38.73927 m 17.357,-1145.09915 0,26.07715 m 0,327.463342 0,-121.819562 m 0,131.847689 0,104.392294 m 0,21.901044 0,-0.845469 m 0,76.472452 0,7.52037 m 0,51.20246 0,-12.16383 m 0,30.12721 0,151.14003 m 0,154.87849 0,-7.03261 m 0,11.00764 0,18.91239 m 0,28.04953 0,-10.81836 m 0,16.04904 0,22.83948 m 0,153.5699 0,-143.51631 m 0,151.4596 0,9.08185 m 0,20.40331 0,-6.51047 m 17.3571,-1348.97209 0,11.14066 m 0,151.27214 0,-41.47197 m 0,269.01528 0,256.725069 m 0,71.398261 0,-9.63536 m 0,47.61371 0,14.76245 m 0,38.47805 0,-18.57006 m 0,30.00624 0,118.70151 m 0,244.03478 0,-81.77471 m 0,94.76839 0,0.80769 m 0,90.83584 0,-66.69894 m 0,73.19072 0,17.8357 m 0,50.42588 0,-15.63307 m 17.357,-1368.95041 0,20.82023 m 0,159.44641 0,-54.77611 m 0,282.81646 0,291.184693 m 0,21.592287 0,-7.1178 m 0,25.08189 0,7.56162 m 0,59.91386 0,-22.01717 m 0,37.14474 0,81.00427 m 0,59.64875 0,-53.13417 m 0,206.243 0,8.09062 m 0,30.27687 0,-16.79839 m 0,26.16647 0,23.61771 m 0,56.85917 0,-54.33354 m 0,96.4963 0,26.64375 m 0,49.34696 0,-45.0039 m 17.3571,-1327.97471 0,45.0171 m 0,144.09417 0,-71.00992 m 0,306.56309 0,179.459154 m 0,83.955682 0,-79.47062 m 0,87.870102 0,46.591582 m 0,21.98711 0,-7.9294 m 0,22.74023 0,8.86476 m 0,87.24109 0,-74.07246 m 0,321.85105 0,4.08061 m 0,20.59034 0,-5.5273 m 0,30.45951 0,25.97921 m 0,92.03516 0,-85.66105 m 0,122.45012 0,6.42044 m 0,23.09795 0,-5.0242 m 17.357,-1389.48532 0,29.8514 m 0,61.80245 0,-26.68532 m 0,69.62685 0,91.51025 m 0,502.77554 0,-245.66539 m 0,264.185754 0,134.950846 m 0,280.95778 0,-3.69544 m 0,19.85902 0,4.54715 m 0,63.51825 0,-24.49152 m 0,31.11734 0,54.09868 m 0,45.33626 0,-44.61127 m 17.3571,-1271.44136 0,12.22334 m 0,48.53622 0,-17.49385 m 0,44.20909 0,90.28568 m 0,495.46686 0,-222.80033 m 0,291.78615 0,68.76654 m 0,334.52138 0,-5.20868 m 0,81.41901 0,28.10402 m 0,24.41754 0,-16.94106 m 0,27.46842 0,16.94988 m 17.357,-1364.74621 0,-7.77645 m 0,93.79119 0,12.02916 m 0,29.31394 0,-8.85806 m 0,30.27393 0,88.22972 m 0,306.9325 0,-5.89574 m 0,7.44187 0,189.8358 m 0,470.80377 0,-5.86392 m 0,22.7919 0,15.62878 m 0,25.38412 0,-10.30796 m 0,18.32744 0,3.53408 m 0,26.85275 0,-9.11042 m 0,27.13127 0,19.72181 m 0,19.36382 0,-1.39161 m 17.357,-1213.47599 0,84.89791 m 0,486.357976 0,-133.07268 m 0,643.756784 0,3.90088 m 0,32.60109 0,-8.64078 m 0,28.89197 0,4.37514 m 0,20.24221 0,-8.25996 m 0,30.57913 0,10.56873 m 17.3571,-1282.99165 0,-11.83234 m 0,93.55104 0,85.01378 m 0,465.43921 0,-8.7058304 m 17.357,-746.7075696 0,2.99737 m 0,13.06127 0,-4.77167 m 0,110.04005 0,12.42244 m 0,29.55366 0,-5.15023 m 0,82.01382 0,39.46103 m 17.3571,-297.22696 0,-10.90426 m 0,62.49395 0,4.18283 m 0,52.40475 0,-10.28517 m 0,56.98576 0,5.38167 m 17.357,-99.66534 0,-8.55811 m 0,49.9479 0,13.61013 m 0,22.90378 0,-0.9016 m 17.3571,-80.38951 0,9.75078 m 0,55.36795 0,-14.47594 m 0,30.5148 0,10.28275 m 17.357,-74.39234 0,-15.99849 m 0,44.21482 0,25.29168 m 0,13.78741 0,-7.02423 m 17.3571,-120.08921 0,11.42561 m 0,54.00199 0,-12.55878 m 0,32.13319 0,15.93671 m 17.357,-234.97074 0,-10.08117 m 0,37.83314 0,8.19172 m 0,72.58431 0,-6.9291 m 0,28.75269 0,16.10781 m 0,58.78589 0,-19.99855 m 0,28.61607 0,10.6403 m 17.3571,-228.08692 0,-13.71575 m 0,33.11533 0,16.44078 m 0,39.79655 0,-18.81322 m 0,37.85466 0,12.78581 m 0,42.79678 0,-18.73057 m 0,45.76629 0,9.91261 m 0,35.70326 0,-25.37279 m 17.357,-215.88361 0,14.76506 m 0,36.78554 0,-20.33698 m 0,40.55807 0,19.33527 m 0,35.42411 0,-14.2034 m 0,39.62775 0,16.08788 m 0,43.53053 0,-21.40987 m 17.3571,-194.05422 0,15.07716 m 0,36.90713 0,-19.66703 m 0,40.81445 0,18.22525 m 0,38.99653 0,-8.04272 m 0,31.10938 0,20.93 m 0,25.79558 0,-18.80403 m 17.357,-187.01242 0,16.98621 m 0,36.52338 0,-17.56206 m 0,41.12509 0,17.12776 m 0,41.18796 0,-17.38543 m 0,36.42142 0,20.20173 m 0,13.50829 0,-11.10643 m 17.3571,-186.23502 0,21.17851 m 0,37.34226 0,-16.24523 m 0,42.19943 0,16.13184 m 0,41.37203 0,-18.32758 m 0,27.53436 0,23.58841 m 17.357,-161.75506 0,-16.90384 m 0,42.63125 0,15.67566 m 0,43.82691 0,-15.98656 m 0,33.50327 0,43.83305 m 17.3571,-149.40941 0,-22.13599 m 0,45.291 0,17.84234 m 0,47.42657 0,-20.94578 m 0,25.67373 0,23.00196 m 17.357,-137.7796 0,-16.33029 m 0,27.25903 0,6.00889 m 0,44.78798 0,-27.42969 m 0,43.11517 0,41.47053 m 17.357,-136.51416 0,-16.11951 m 0,43.85912 0,3.88593 m 0,33.42204 0,-23.12454 m 0,34.12619 0,25.73221"
       style="stroke:#000000;stroke-width:1.8;stroke-miterlimit:4;stroke-dasharray:none"
       id="path7"
       inkscape:connector-curvature="0" />
  </g>
  <g
     inkscape:label="fill-2f2f2f"
     inkscape:groupmode="layer"
     id="fill-2f2f2f"
     transform="translate(72.71875,968.79548)">
    <path
       d="m -53.039919,1010.4165 0,47.6567 m 29.50698,-58.1475 0,-56.02739 m 0,86.28039 0,62.9029 m 29.5069795,-139.26645 0,-63.00531 m 0,76.46572 0,125.25394 M 35.48102,-285.27187 l 0,-25.00445 m 0,1146.7413 0,242.80912 M 64.988,-302.59558 l 0,-3.59252 m 0,1099.66126 0,27.3501 m 0,214.01404 0,-181.1447 m 29.50698,-1392.2358 0,117.2006 m 0,46.56124 0,-15.48491 m 0,55.38414 0,8.85014 m 0,1331.76179 0,-143.74614 m 29.50698,-1437.03206 0,183.42038 m 0,30.80797 0,-14.08345 m 0,1227.49887 0,121.17061 m 29.50698,-1361.69529 0,-207.70985 m 0,1431.14158 0,107.56433 m 29.50698,-1346.96797 0,-196.1072 m 0,1407.9411 0,107.96617 m 29.50698,-1336.62021 0,-182.31961 m 0,1381.25828 0,113.74839 m 29.50698,-1339.54876 0,-162.49066 m 0,1295.11289 0,21.09206 m 0,158.5844 0,-91.47615 m 29.50698,-1394.11518 0,145.08091 m 0,1136.31508 0,-36.65577 m 0,136.23449 0,96.80954 m 29.50698,-1346.57606 0,-133.64445 m 0,1093.33859 0,178.04969 m 0,18.90121 0,-2.15456 m 0,84.3058 0,43.7364 m 29.50698,-1276.26348 0,-147.52604 m 0,1063.2181 0,191.65884 m 0,189.94673 0,-81.97446 m 29.50698,-1378.98989 0,54.27757 m 0,125.94811 0,-73.47066 m 0,952.18167 0,187.34602 m 0,215.81978 0,-79.81577 m 29.50698,-1396.03904 0,211.5149 m 0,1018.30366 0,-163.37116 m 0,183.10968 0,97.92531 m 0,115.11242 0,-96.23925 m 29.50698,-1378.78241 0,237.39315 m 0,996.25409 0,-166.07901 m 0,229.60933 0,80.87276 m 0,91.43117 0,-90.87247 m 29.50698,-1385.65567 0,257.2761 m 0,952.43835 0,-155.40816 m 0,186.89522 0,0.0312 m 0,107.9328 0,-74.41072 m 0,104.59884 0,55.24479 m 29.50698,-1155.35267 0,-283.78554 m 0,1005.44103 0,168.39834 m 0,40.05362 0,-11.2986 m 0,44.86862 0,16.53566 m 0,182.18381 0,-164.16596 m 29.50698,-1285.51185 0,293.78224 m 0,27.5278 0,-8.77845 m 0,676.95889 0,91.35492 m 0,46.41716 0,-42.5097 m 0,101.21242 0,50.33161 m 0,188.99783 0,-186.22256 m 29.50698,-1237.44157 0,239.95069 m 0,1108.00634 0,-371.84993 m 0,381.9067 0,54.52766 m 29.50698,-1328.9356 0,-78.09782 m 0,111.97767 0,72.88615 m 0,188.54896 0,-4.53949 m 0,580.89054 0,448.10664 m 29.50698,-1379.47934 0,-13.70036 m 0,31.98061 0,41.57991 m 0,570.284856 0,-28.76993 m 0,311.310304 0,21.77646 m 0,31.42352 0,-23.18266 m 0,26.01889 0,394.07027 m 29.50698,-1279.5283 0,-91.51637 m 0,93.82879 0,5.12404 m 0,309.96293 0,-20.49274 m 0,180.09534 0,75.191867 m 0,283.437813 0,-6.94829 m 0,9.41119 0,313.08158 m 0,118.67852 0,-114.44588 m 29.50698,-1249.83647 0,14.21724 m 0,99.6987 0,-72.82021 m 0,387.44071 0,5.76917 m 0,180.094622 0,-78.301862 m 0,359.57922 0,74.01597 m 0,20.48144 0,-17.44545 m 0,26.9 0,136.89249 m 0,19.29684 0,-15.33298 m 0,22.52979 0,11.20997 m 0,27.88979 0,-21.56252 m 0,35.0236 0,20.28472 m 0,11.61342 0,-8.77012 m 0,14.52381 0,101.51869 m 29.50698,-1336.88361 0,-28.19993 m 0,81.47217 0,54.88494 m 0,247.48671 0,-16.62458 m 0,90.82419 0,9.73516 m 0,132.869534 0,-68.936124 m 0,358.98705 0,8.93724 m 0,21.0521 0,-18.56343 m 0,26.38442 0,27.35053 m 0,46.82473 0,-43.12465 m 0,55.7094 0,18.80089 m 0,18.62079 0,-13.40027 m 0,28.48924 0,9.76769 m 0,17.91863 0,-4.73437 m 0,21.65871 0,7.25809 m 0,23.11011 0,-10.95677 m 0,20.57414 0,7.45956 m 0,5.97119 0,-0.34321 m 0,8.56954 0,2.69458 m 0,18.09059 0,-8.88118 m 0,11.02633 0,9.73758 m 0,30.188 0,-20.34488 m 0,31.9447 0,84.53462 m 29.50698,-1336.96994 0,-3.41944 m 0,119.76282 0,60.42736 m 0,221.75248 0,-15.98335 m 0,91.96043 0,18.37087 m 0,73.78509 0,-53.1203 m 0,373.60042 0,87.81901 m 0,26.17162 0,-18.94793 m 0,41.40815 0,19.9401 m 0,41.66949 0,-8.19105 m 0,47.14367 0,3.47279 m 0,39.39189 0,-8.81945 m 0,19.05485 0,5.01613 m 0,19.73793 0,-9.58895 m 0,25.09726 0,22.93325 m 0,29.74775 0,-19.15155 m 0,25.89283 0,90.27897 m 29.50698,-1150.75354 0,-67.93947 m 0,232.48838 0,28.56522 m 0,91.07368 0,-8.41816 m 0,15.64463 0,39.47176 m 0,335.10663 0,-8.61613 m 0,39.85022 0,49.49499 m 0,44.20022 0,-37.99386 m 0,46.45552 0,17.40886 m 0,56.25941 0,-6.44359 m 0,44.46632 0,6.99113 m 0,22.15008 0,-1.61347 m 0,33.09109 0,9.0723 m 0,25.13167 0,-16.54034 m 0,32.28726 0,8.17745 m 0,84.07185 0,-76.63164 m 29.50698,-1079.97674 0,71.74923 m 0,169.05266 0,-46.76141 m 0,112.35031 0,47.42022 m 0,331.73224 0,-6.00366 m 0,65.73772 0,82.98106 m 0,25.71858 0,-15.50045 m 0,31.02382 0,1.97716 m 0,30.02969 0,-14.0411 m 0,26.83332 0,7.50755 m 0,28.35979 0,-6.63384 m 0,16.20331 0,6.21922 m 0,25.9467 0,-13.34195 m 0,43.40741 0,8.09869 m 0,27.53605 0,-19.91626 m 0,32.2974 0,90.86622 m 0,278.29839 0,-74.383 m 29.50698,-1339.03818 0,67.23663 m 0,181.6327 0,-134.75573 m 0,151.98905 0,32.84844 m 0,38.09765 0,-33.09003 m 0,443.25537 0,52.00039 m 0,36.20159 0,-17.6524 m 0,23.83236 0,13.75986 m 0,18.90085 0,-11.58032 m 0,44.99654 0,13.81825 m 0,24.92466 0,-10.73863 m 0,20.14282 0,10.12595 m 0,18.63762 0,-8.11944 m 0,44.75289 0,11.07208 m 0,124.01641 0,-121.41834 m 0,215.68887 0,154.92953 m 29.50698,-1157.63688 0,-206.58279 m 0,262.75779 0,44.62571 m 0,242.40119 0,-15.416421 m 0,192.398771 0,64.86346 m 0,18.74345 0,-12.9854 m 0,21.28201 0,14.52542 m 0,43.22871 0,-8.82787 m 0,16.44348 0,3.57509 m 0,14.58441 0,-2.48962 m 0,20.05093 0,7.695 m 0,21.26261 0,-11.09429 m 0,18.9932 0,21.96704 m 0,26.84981 0,-12.62371 m 0,17.09421 0,162.01246 m 0,5.7899 0,-2.70493 m 0,11.82271 0,176.34161 m 29.50698,-1163.45186 0,-159.40961 m 0,226.86539 0,52.25854 m 0,453.45885 0,-26.03267 m 0,30.57388 0,36.2124 m 0,18.30506 0,-11.94941 m 0,31.63685 0,12.04129 m 0,23.97496 0,-10.13207 m 0,30.30674 0,0.80489 m 0,24.01724 0,-10.56595 m 0,33.1172 0,10.37735 m 0,17.84226 0,-7.27082 m 0,16.61299 0,4.19439 m 0,121.75535 0,-108.81126 m 0,242.25619 0,54.8898 m 29.50698,-1263.20237 0,-63.22776 m 0,82.72876 0,142.31486 m 0,87.79217 0,-41.1669 m 0,512.73868 0,67.80499 m 0,23.75839 0,-15.45159 m 0,30.06354 0,8.18066 m 0,16.78164 0,-11.38828 m 0,20.35004 0,21.7873 m 0,20.06164 0,-6.65602 m 0,16.92112 0,11.58071 m 0,15.62205 0,-10.80342 m 0,18.32979 0,25.75502 m 0,104.27679 0,-101.36033 m 29.50698,-1078.53524 0,0.71191 m 0,311.90654 0,-232.90238 m 0,650.93642 0,49.99314 m 0,126.86085 0,-67.20613 m 0,72.78591 0,14.43097 m 0,8.07615 0,-1.90001 m 0,14.36699 0,54.12693 m 0,19.52583 0,-12.391 m 0,26.86368 0,31.00901 m 0,136.35825 0,-131.99781 m 29.50698,-1143.38566 0,9.77593 m 0,148.44851 0,-31.35251 m 0,42.09117 0,30.57329 m 0,27.43538 0,-7.19464 m 0,19.61714 0,22.29927 m 0,41.7557 0,-13.41447 m 0,77.11064 0,48.2729 m 0,40.80892 0,-23.0192 m 0,377.5444 0,69.22439 m 0,112.48681 0,-62.10117 m 0,70.26799 0,53.12882 m 0,24.25545 0,-5.21584 m 0,13.44153 0,223.48736 m 0,63.93354 0,-44.50383 m 29.50698,-1154.23893 0,2.90541 m 0,226.63863 0,-98.94959 m 0,105.6293 0,31.46106 m 0,205.41765 0,-2.667955 m 0,25.654532 0,5.155383 m 0,50.46379 0,-9.38976 m 0,19.86888 0,6.09069 m 0,173.20118 0,-165.20977 m 0,196.44666 0,126.85379 m 0,239.73862 0,-234.77383 m 0,262.41249 0,34.34198 m 29.50702,-1647.67409 0,-9.08357 m 0,674.29364 0,42.09039 m 0,20.6893 0,-12.32165 m 0,23.22161 0,3.71728 m 0,214.2516 0,-10.71482 m 0,20.39787 0,9.52945 m 0,196.05428 0,-189.58264 m 0,236.68709 0,19.34652 m 0,345.59893 0,-334.27024 m 29.5069,-1268.97817 0,5.31214 m 0,389.59453 0,-3.40794 m 0,276.36128 0,75.18421 m 0,20.03211 0,-15.69182 m 0,21.983976 0,21.36135 m 0,194.378614 0,-11.23948 m 0,21.71418 0,9.91291 m 0,27.06969 0,-19.14504 m 0,23.82717 0,164.11967 m 0,407.2276 0,-288.60784 m 0,336.66108 0,8.79299 m 29.507,-1321.93935 0,-15.08186 m 0,111.53358 0,9.31601 m 0,329.771662 0,-126.869972 m 0,137.090465 0,50.092957 m 0,17.510665 0,-12.746314 m 0,124.319747 0,0.16263 m 0,24.73139 0,-11.8495 m 0,24.66996 0,8.97358 m 0,27.29911 0,-16.63616 m 0,26.89932 0,165.18047 m 0,4.05635 0,-2.66444 m 0,127.54808 0,172.18756 m 0,15.68451 0,-10.52516 m 0,19.9123 0,64.03669 m 0,24.89819 0,-6.88269 m 29.507,-1341.63681 0,9.918 m 0,86.76378 0,-12.89519 m 0,38.96189 0,45.77888 m 0,478.198066 0,-256.457776 m 0,313.44494 0,16.61344 m 0,20.03931 0,-8.49591 m 0,20.81695 0,20.81758 m 0,167.45364 0,-154.98294 m 0,309.04116 0,219.84121 m 0,49.12566 0,-27.26038 m 29.507,-1367.03939 0,36.39712 m 0,73.0667 0,-23.39722 m 0,39.48384 0,66.52787 m 0,549.08614 0,-323.94311 m 0,332.74744 0,12.0541 m 0,21.8134 0,-11.31063 m 0,22.61988 0,32.75664 m 0,71.03894 0,-66.58375 m 0,89.23499 0,20.66521 m 0,27.50211 0,-27.43173 m 0,177.91123 0,12.73772 m 0,222.02853 0,-213.79782 m 0,224.43158 0,10.88494 m 29.507,-1441.32193 0,-2.74623 m 0,29.97846 0,33.43048 m 0,59.08389 0,-28.69153 m 0,66.77162 0,96.32789 m 0,504.855582 0,-250.055822 m 0,263.872897 0,136.023603 m 0,282.02908 0,-7.39893 m 0,20.44993 0,8.2688 m 0,62.68155 0,-19.13204 m 0,21.85436 0,103.46731 m 29.5069,-1376.21763 0,-15.50286 m 0,91.00644 0,19.87003 m 0,29.84432 0,-14.88981 m 0,32.89799 0,92.61526 m 0,497.098945 0,-201.048835 m 0,270.842 0,14.07 m 0,24.66627 0,-13.07913 m 0,364.06131 0,11.8034 m 0,32.56897 0,-19.07764 m 0,30.31755 0,24.93294 m 0,27.97922 0,-13.78431 m 0,26.43657 0,24.3595 m 0,18.90928 0,-6.45869 m 0,24.93436 0,4.66182 m 29.507,-1376.62229 0,-3.05084 m 0,34.28275 0,16.67611 m 0,171.77731 0,-89.43861 m 0,455.875565 0,68.792426 m 0,39.528382 0,-30.173891 m 0,582.494328 0,9.21484 m 0,36.36001 0,-7.30128 m 0,10.24842 0,3.49009 m 0,35.479 0,-10.66063 m 29.507,-1417.68403 0,8.71306 m 0,15.80709 0,-3.82704 m 0,30.01137 0,6.11725 m 0,51.6256 0,-11.30473 m 0,44.13245 0,18.96052 m 0,27.73196 0,-9.85637 m 0,89.92566 0,31.55685 m 29.507,-233.69401 0,-12.92543 m 0,49.65116 0,18.92789 m 0,26.13914 0,-8.67476 m 29.507,-116.7795 0,3.92249 m 0,51.62747 0,-18.86246 m 0,42.61773 0,31.42827 m 0,17.31184 0,-13.08817 m 29.5069,-263.9106 0,14.46753 m 0,36.68992 0,-12.00054 m 0,38.69508 0,11.29559 m 0,32.57178 0,-7.70032 m 0,24.83036 0,19.31212 m 0,56.43979 0,-25.06555 m 0,36.83457 0,23.79512 m 29.507,-241.14597 0,-19.26266 m 0,31.78216 0,23.04861 m 0,40.42584 0,-25.081 m 0,33.88097 0,23.66211 m 0,41.63034 0,-23.89028 m 0,46.87246 0,18.25343 m 0,31.41663 0,-28.59874 m 29.507,-221.08646 0,20.47524 m 0,36.99604 0,-24.34055 m 0,39.03764 0,24.80116 m 0,38.13825 0,-14.09896 m 0,32.90734 0,24.29599 m 0,30.02817 0,-23.24008 m 29.507,-198.16824 0,27.16417 m 0,36.47646 0,-21.71409 m 0,41.86883 0,21.32534 m 0,41.36229 0,-22.26939 m 0,31.57419 0,26.61202 m 29.507,-167.29792 0,-21.74494 m 0,42.90844 0,20.40317 m 0,43.91996 0,-20.72584 m 0,30.56565 0,48.09514 m 29.5069,-166.38689 0,-21.03693 m 0,28.57875 0,10.93153 m 0,43.06816 0,-33.19157 m 0,41.61009 0,50.76619"
       style="stroke:#000000;stroke-width:1.8;stroke-miterlimit:4;stroke-dasharray:none"
       id="path10"
       inkscape:connector-curvature="0" />
  </g>
  <g
     inkscape:label="fill-515151"
     inkscape:groupmode="layer"
     id="fill-515151"
     transform="translate(72.71875,968.79548)">
    <path
       d="m -51.809319,1005.3379 0,52.7063 m 38.185504,-78.84605 0,-57.03755 m 0,66.3679 0,89.6304 m 38.185503,-1365.42585 0,-13.19563 m 0,1149.69802 0,217.67586 m 38.185504,-1367.21173 0,-6.72911 m 0,1101.35813 0,36.06257 m 0,209.49224 0,-185.88337 m 38.185508,-1403.65467 0,124.55123 m 0,47.40263 0,-15.25129 m 0,40.67237 0,20.58404 m 0,1332.02526 0,-151.74923 m 38.1855,-1437.98537 0,214.59132 m 0,1334.61954 0,-138.15459 m 38.1855,-1422.21759 0,200.3301 m 0,1322.06738 0,-111.58023 m 38.18551,-1414.77133 0,182.53763 m 0,1311.9645 0,-114.56525 m 38.1855,-1391.11691 0,153.89355 m 0,1064.0594 0,-1.78772 m 0,52.36004 0,11.75204 m 0,43.9503 0,-28.99834 m 0,71.13305 0,119.06497 m 38.1855,-1353.40383 0,-140.67892 m 0,1110.34289 0,171.00409 m 0,22.44997 0,-7.65598 m 0,75.55941 0,80.48995 m 38.18551,-1310.60929 0,-148.487 m 0,1063.2871 0,204.83098 m 0,179.05532 0,-155.43725 m 38.1855,-1312.25999 0,190.92034 m 0,939.91487 0,-70.37062 m 0,75.92307 0,142.22563 m 0,54.44697 0,-36.44405 m 0,94.50057 0,70.20845 m 38.1855,-1249.89781 0,-229.55763 m 0,1068.76069 0,169.66569 m 0,231.3895 0,-221.98218 m 38.18551,-1258.21691 0,256.09302 m 0,975.1878 0,-173.78231 m 0,179.96269 0,117.1562 m 0,80.657 0,-74.66715 m 0,77.95461 0,37.05912 m 38.1855,-1187.78388 0,-294.67902 m 0,1002.00062 0,220.74113 m 0,228.84356 0,-216.46483 m 38.1855,-1237.79626 0,286.09371 m 0,56.56452 0,-16.85403 m 0,655.2305 0,449.37086 m 38.18551,-1207.87657 0,-216.05815 m 0,335.41218 0,35.05138 m 0,1027.44853 0,-442.40211 m 38.1855,-949.46895 0,16.9739 m 0,92.35489 0,-78.8169 m 0,97.94339 0,18.89074 m 0,245.01657 0,-51.12633 m 0,268.438687 0,35.549636 m 0,304.369147 0,-23.5779 m 0,30.03817 0,422.17636 m 38.1855,-1248.52619 0,-122.46326 m 0,315.15024 0,5.95406 m 0,96.35526 0,-44.91135 m 0,174.71021 0,82.356597 m 0,736.626013 0,-464.5007 m 38.18551,-913.52546 0,29.26047 m 0,131.41537 0,-93.65203 m 0,275.2584 0,35.04144 m 0,80.56879 0,-20.89615 m 0,90.73235 0,80.470217 m 0,313.421853 0,-31.43259 m 0,33.74702 0,74.5309 m 0,49.58937 0,-40.69043 m 0,51.61347 0,38.99501 m 0,23.87273 0,-15.27799 m 0,22.46567 0,11.08713 m 0,34.20698 0,-25.12858 m 0,28.73693 0,25.89531 m 0,21.39072 0,-19.1081 m 0,23.3989 0,136.41837 m 38.1855,-1369.80784 0,-6.40656 m 0,115.74094 0,110.4892 m 0,178.26633 0,-32.69733 m 0,66.09243 0,58.16675 m 0,78.17608 0,-56.70685 m 0,373.67716 0,89.54292 m 0,26.32988 0,-23.08452 m 0,32.53281 0,38.74401 m 0,36.97415 0,-12.93604 m 0,46.04252 0,10.74917 m 0,36.39908 0,-22.6918 m 0,30.10005 0,7.35748 m 0,20.62966 0,-14.69544 m 0,22.72893 0,29.13788 m 0,126.82022 0,-120.45135 m 38.1855,-1094.61842 0,101.87392 m 0,157.76778 0,-56.7571 m 0,92.236 0,93.55307 m 0,335.89998 0,-8.5232 m 0,46.91623 0,50.08496 m 0,44.13183 0,-40.86399 m 0,46.59481 0,45.45052 m 0,32.05759 0,-14.79537 m 0,46.9145 0,9.23006 m 0,26.90553 0,-11.08496 m 0,20.91131 0,8.96656 m 0,151.63304 0,-142.96265 m 0,404.23523 0,21.61386 m 38.18551,-1344.2066 0,-85.72599 m 0,88.97542 0,34.42682 m 0,123.41818 0,-114.25572 m 0,143.75597 0,71.29506 m 0,311.74961 0,-7.03577 m 0,77.77034 0,9.87324 m 0,72.19834 0,-62.34871 m 0,77.99294 0,22.99902 m 0,18.14766 0,-18.09177 m 0,24.92931 0,22.85928 m 0,37.23376 0,-19.63785 m 0,31.06146 0,11.38783 m 0,24.04017 0,-16.01184 m 0,23.55136 0,167.14317 m 0,264.20682 0,-99.76839 m 38.1855,-1420.74606 0,5.26541 m 0,355.50187 0,-227.18046 m 0,265.05574 0,62.0894 m 0,247.64619 0,-8.420869 m 0,132.729949 0,11.06822 m 0,104.71157 0,-77.40404 m 0,78.69887 0,37.13797 m 0,71.00409 0,-48.17008 m 0,61.53251 0,11.48911 m 0,21.54359 0,-14.57171 m 0,19.39744 0,13.09303 m 0,166.36463 0,-155.83765 m 0,170.94906 0,32.78389 m 0,197.0311 0,-194.00795 m 38.1855,-1153.34315 0,174.36691 m 0,121.48317 0,-84.55166 m 0,237.023064 0,12.224879 m 0,342.980777 0,-89.62255 m 0,103.95644 0,15.00531 m 0,26.26322 0,-13.8008 m 0,24.6572 0,43.27279 m 0,22.80087 0,-13.03924 m 0,20.20731 0,10.98723 m 0,133.9261 0,-129.40275 m 0,262.27143 0,52.73585 m 38.18551,-1078.93886 0,-225.46647 m 0,266.39015 0,85.395307 m 0,183.372999 0,-7.072708 m 0,116.916582 0,5.07436 m 0,42.59188 0,-35.94647 m 0,42.36606 0,7.83712 m 0,10.16844 0,-3.3341 m 0,54.93609 0,71.20054 m 0,109.49994 0,-102.39127 m 0,106.19813 0,5.56615 m 0,26.64735 0,-18.98746 m 0,26.57964 0,130.85393 m 38.1855,-1075.68886 0,-132.84725 m 0,160.207 0,95.65632 m 0,101.01112 0,-75.90727 m 0,113.25846 0,22.17881 m 0,53.331849 0,-3.957552 m 0,131.354421 0,9.294783 m 0,18.303872 0,-4.355215 m 0,27.998162 0,7.8108 m 0,54.46052 0,-45.95988 m 0,54.17001 0,114.36351 m 0,175.57316 0,-135.08678 m 0,158.72976 0,228.79156 m 0,55.04086 0,-15.86482 m 38.18551,-1280.73201 0,24.49924 m 0,93.00521 0,-52.31897 m 0,53.3298 0,22.42111 m 0,60.52604 0,-6.84936 m 0,39.50155 0,106.29948 m 0,40.93626 0,-36.77527 m 0,52.85589 0,9.19781 m 0,207.65807 0,-43.887775 m 0,52.242585 0,1.51782 m 0,38.77876 0,-26.89944 m 0,33.24059 0,186.19758 m 0,394.52629 0,-382.09511 m 0,407.20154 0,41.83588 m 38.18552,-1656.50861 0,-10.30716 m 0,399.54585 0,38.84492 m 0,308.3932 0,-74.02402 m 0,77.78016 0,22.817419 m 0,47.585812 0,-1.144198 m 0,66.535811 0,2.348485 m 0,34.270767 0,-11.607705 m 0,18.890968 0,10.649398 m 0,247.459623 0,-245.313223 m 0,337.886403 0,322.83045 m 38.1855,-1613.18446 0,-2.84919 m 0,357.71898 0,66.5393 m 0,25.18272 0,-0.0812 m 0,214.21269 0,182.018145 m 0,15.441503 0,-10.490097 m 0,34.739037 0,4.484193 m 0,66.293874 0,-5.143268 m 0,16.149627 0,9.810576 m 0,243.96985 0,-239.20784 m 0,357.79339 0,281.90218 m 0,61.48875 0,-40.12723 m 38.1855,-1283.51179 0,30.8594 m 0,9.74633 0,-7.70571 m 0,23.35576 0,44.95358 m 0,472.643386 0,-254.066606 m 0,277.973859 0,3.793704 m 0,27.581267 0,-11.47732 m 0,13.41656 0,242.03668 m 0,373.55452 0,-230.06249 m 0,244.30783 0,33.75332 m 38.1855,-1350.63718 0,-52.51122 m 0,81.28953 0,32.1982 m 0,87.84754 0,-73.75583 m 0,300.25666 0,325.27266 m 0,22.96144 0,-16.54767 m 0,22.54524 0,17.83352 m 0,99.64815 0,-95.38036 m 0,147.52838 0,26.42481 m 0,139.36609 0,-2.51963 m 0,12.67543 0,239.24061 m 38.1855,-1395.61358 0,-28.47786 m 0,43.74919 0,47.75838 m 0,45.02302 0,-40.9107 m 0,53.11714 0,98.15673 m 0,498.386737 0,-231.652317 m 0,237.239973 0,17.551557 m 0,116.622 0,-107.46057 m 0,403.95063 0,10.29539 m 0,23.33086 0,-11.84999 m 0,22.65453 0,18.01264 m 0,25.49203 0,-6.38959 m 0,19.7984 0,98.25056 m 38.1855,-1420.10017 0,-10.64426 m 0,36.05517 0,24.84415 m 0,43.25689 0,-24.89913 m 0,48.30774 0,23.28031 m 0,29.56678 0,-17.68562 m 0,30.22608 0,90.23718 m 0,486.210613 0,-134.225886 m 0,633.359623 0,15.68797 m 0,32.4953 0,-12.63677 m 0,31.66838 0,26.64556 m 0,32.85806 0,-19.13475 m 0,32.84706 0,4.94389 m 38.1855,-1435.49294 0,-15.07639 m 0,17.06663 0,43.75122 m 0,51.7839 0,-27.56888 m 0,50.8246 0,29.47595 m 0,27.07245 0,-15.82387 m 0,94.38983 0,20.24201 m 0,12.24074 0,-5.27035 m 38.1855,-434.66462 0,12.21993 m 0,127.48967 0,-12.15132 m 0,16.9431 0,20.26362 m 0,44.39373 0,-22.21286 m 0,41.01865 0,38.30674 m 0,31.48306 0,-21.89578 m 38.1855,-280.79416 0,102.86804 m 0,37.87139 0,-23.51874 m 0,33.1 0,25.20799 m 0,55.13815 0,-27.85538 m 0,39.1749 0,45.8118 m 38.1855,-224.66989 0,-65.67668 m 0,72.49391 0,34.0699 m 0,32.73428 0,-28.20509 m 0,41.26078 0,27.35617 m 0,73.63453 0,-53.2179 m 38.1855,-212.24511 0,1.22321 m 0,33.51458 0,-25.92737 m 0,34.83261 0,27.97 m 0,39.22921 0,-27.47361 m 0,42.6298 0,24.36784 m 0,66.87905 0,-51.36172 m 38.1855,-170.11082 0,26.6979 m 0,39.24834 0,-25.31207 m 0,43.75163 0,25.25139 m 0,68.35624 0,-60.85665 m 38.1855,-152.06947 0,3.81335 m 0,90.89965 0,-85.8653 m 0,93.09766 0,58.83469"
       style="stroke:#000000;stroke-width:1.8;stroke-miterlimit:4;stroke-dasharray:none"
       id="path13"
       inkscape:connector-curvature="0" />
  </g>
  <g
     inkscape:label="fill-6e6e6e"
     inkscape:groupmode="layer"
     id="fill-6e6e6e"
     transform="translate(72.71875,968.79548)">
    <path
       d="m -71.830837,1065.6337 0,11.6247 m 46.864027,-69.7044 0,-63.75098 m 0,85.73298 0,68.9874 m 46.864027,-1388.68039 0,-5.33068 m 0,1146.77882 0,216.93465 m 46.864027,-1370.70729 0,-21.04395 m 0,1108.38757 0,34.33983 m 0,214.01534 0,-190.77079 m 46.864026,-1410.40486 0,219.4932 m 0,1334.39081 0,-157.65961 m 46.86403,-1427.58483 0,207.27099 m 0,1329.38331 0,-131.41656 m 46.86402,-1410.13053 0,188.00299 m 0,1312.8023 0,-116.25037 m 46.86402,-1397.61657 0,153.4475 m 0,1068.06963 0,-8.35524 m 0,51.41751 0,18.38036 m 0,41.37189 0,-12.72396 m 0,41.97927 0,133.81429 m 46.86403,-1359.30022 0,-135.67624 m 0,1088.7432 0,206.23941 m 0,130.22246 0,-114.50141 m 46.86403,-1329.483 0,22.70869 m 0,149.43443 0,-112.20354 m 0,998.52752 0,227.23411 m 0,180.30194 0,-170.38516 m 46.86402,-1318.73014 0,222.40119 m 0,1016.68813 0,-170.69407 m 0,174.96788 0,237.39082 m 46.86403,-1238.01559 0,-256.90763 m 0,1057.75268 0,419.36278 m 46.86403,-1175.95304 0,-308.26031 m 0,995.41652 0,458.76454 m 46.86403,-1190.27508 0,-264.16875 m 0,284.30811 0,46.46768 m 0,27.51607 0,-18.62504 m 0,630.40577 0,445.93348 m 46.86402,-1216.50866 0,-191.02876 m 0,236.31286 0,3.01708 m 0,89.02374 0,-53.11349 m 0,57.32464 0,55.21005 m 0,992.86086 0,-446.8415 m 46.86403,-926.7053 0,167.4689 m 0,48.78283 0,-2.21021 m 0,48.61952 0,96.67483 m 0,58.15305 0,-53.77754 m 0,186.99973 0,89.508256 m 0,272.752414 0,-7.46636 m 0,11.24189 0,451.29699 m 46.86403,-1346.26202 0,-33.3369 m 0,72.38136 0,123.52371 m 0,81.66251 0,-6.8777 m 0,29.5656 0,164.52742 m 0,143.259067 0,-84.972947 m 0,367.72937 0,32.61138 m 0,80.79538 0,-79.7525 m 0,83.89002 0,93.65615 m 0,23.46379 0,-18.08579 m 0,19.08636 0,17.97466 m 0,225.24714 0,-219.98551 m 46.86402,-1158.28186 0,1.52265 m 0,254.79947 0,-126.57807 m 0,156.75774 0,220.32703 m 0,87.329683 0,-83.718273 m 0,376.04767 0,132.21246 m 0,61.95733 0,-61.35443 m 0,67.17316 0,14.94798 m 0,40.55646 0,-33.60562 m 0,42.43442 0,185.73551 m 0,34.80355 0,-9.20534 m 46.86403,-1188.67552 0,250.96535 m 0,108.04546 0,-72.7475 m 0,396.56423 0,10.92152 m 0,168.26949 0,-118.71338 m 0,127.67821 0,38.16616 m 0,21.73317 0,-14.67504 m 0,20.53954 0,37.27878 m 0,27.09631 0,-20.80824 m 0,24.89333 0,162.22958 m 0,278.49979 0,-76.52369 m 46.86403,-1487.27711 0,19.32968 m 0,23.72499 0,-16.83316 m 0,133.42889 0,236.06438 m 0,97.49548 0,-89.59089 m 0,346.41098 0,6.73416 m 0,305.65222 0,-198.8111 m 0,201.01733 0,29.34845 m 0,25.12867 0,-20.33704 m 0,24.27748 0,195.75152 m 0,53.4456 0,-21.21074 m 0,22.45039 0,198.18981 m 46.86402,-1556.86419 0,-9.43628 m 0,210.28382 0,188.43664 m 0,116.25918 0,-107.98618 m 0,205.150114 0,9.67061 m 0,83.816081 0,-73.07132381 m 0,79.51316181 0,23.607587 m 0,135.20183 0,-58.60771 m 0,68.46365 0,21.28818 m 0,10.70752 0,-5.18327 m 0,12.03916 0,132.00119 m 0,27.04171 0,-19.01455 m 0,23.53247 0,47.74912 m 0,23.53226 0,-17.11904 m 0,18.98207 0,148.16967 m 0,185.51242 0,-53.39312 m 46.86403,-1307.00799 0,44.1272 m 0,248.79526 0,-242.68598 m 0,293.00277 0,54.50249 m 0,395.36709 0,-379.11475 m 0,404.06845 0,202.25192 m 0,162.03824 0,-156.06249 m 46.86403,-1127.63371 0,28.89469 m 0,181.81692 0,-140.86073 m 0,151.40559 0,16.64532 m 0,85.22384 0,-79.71181 m 0,82.73744 0,14.12988 m 0,143.80621 0,-92.41017 m 0,99.28143 0,20.129972 m 0,52.149656 0,-41.026486 m 0,51.96925 0,14.623752 m 0,24.633741 0,-20.46513 m 0,24.423151 0,25.811976 m 0,60.558028 0,-52.904543 m 0,60.610253 0,211.16204 m 0,479.32737 0,-453.22229 m 46.86405,-1203.6285 0,13.0497 m 0,365.45011 0,-19.91205 m 0,56.49435 0,17.58907 m 0,18.85842 0,-14.3472 m 0,48.63076 0,4.83551 m 0,293.393201 0,-109.591711 m 0,114.149845 0,14.569616 m 0,22.474428 0,-11.364587 m 0,15.463372 0,13.051482 m 0,21.0298865 0,-17.7079075 m 0,23.104082 0,313.398003 m 0,417.27942 0,-384.2556 m 0,416.90646 0,24.90322 m 46.864,-1667.483 0,-5.39799 m 0,197.82982 0,0.94998 m 0,229.26238 0,-77.15569 m 0,98.76062 0,3.88386 m 0,29.35013 0,-20.53797 m 0,201.70321 0,204.0081432 m 0,44.8329638 0,-43.1999621 m 0,59.2925201 0,291.039835 m 0,402.59407 0,-286.68572 m 0,298.00938 0,49.24856 m 46.864,-1374.24717 0,-23.21044 m 0,27.83537 0,14.75957 m 0,64.00858 0,-42.86907 m 0,59.9766 0,56.11553 m 0,483.796707 0,-270.781027 m 0,276.141394 0,10.841174 m 0,285.027682 0,-278.148711 m 0,392.293331 0,2.5324 m 0,242.32805 0,-232.19889 m 0,243.45587 0,36.1562 m 46.8641,-1307.46768 0,-162.15216 m 0,167.95412 0,96.90495 m 0,672.05345 0,-422.27456 m 0,664.52345 0,5.24527 m 0,206.80152 0,-202.41362 m 0,242.76806 0,5.87823 m 46.864,-1385.13918 0,-99.20995 m 0,116.09874 0,75.55062 m 0,101.95604 0,-93.52864 m 0,393.56132 0,199.002317 m 0,107.029593 0,-8.39134 m 0,360.30937 0,9.94601 m 0,35.06063 0,-23.21593 m 0,32.02694 0,35.83385 m 0,60.06529 0,-55.01111 m 46.864,-1510.436 0,5.55862 m 0,185.76869 0,-57.14893 m 0,66.6962 0,41.46554 m 0,51.30151 0,-42.11526 m 0,47.73751 0,35.30086 m 0,47.81463 0,-4.43263 m 0,12.01783 0,47.56247 m 46.864,-393.8746 0,-56.18672 m 0,83.01946 0,91.01962 m 0,44.32799 0,-30.20315 m 0,44.14075 0,79.32386 m 46.8641,-167.13949 0,-156.3789 m 0,160.40381 0,30.96163 m 0,94.89946 0,-77.29457 m 46.864,-213.45427 0,9.12646 m 0,33.48313 0,-32.52255 m 0,36.01566 0,34.24613 m 0,41.60631 0,-36.3882 m 0,42.31363 0,25.90138 m 0,43.28882 0,-29.15783 m 0,36.24446 0,33.28466 m 46.864,-203.77134 0,-37.90754 m 0,43.72799 0,29.82488 m 0,116.42082 0,-108.22964 m 46.864,-113.51298 0,163.77468"
       style="stroke:#000000;stroke-width:1.8;stroke-miterlimit:4;stroke-dasharray:none"
       id="path16"
       inkscape:connector-curvature="0" />
  </g>
  <g
     inkscape:label="fill-8d8d8d"
     inkscape:groupmode="layer"
     id="fill-8d8d8d"
     transform="translate(72.71875,968.79548)">
    <path
       d="m -32.72142,958.43016 0,67.29144 m 0,83.3497 0,-50.1604 m 55.542551,-1359.37858 0,12.6269 m 0,1361.38158 0,-226.06823 m 55.54255,-1338.55397 0,32.31315 m 0,150.58215 0,-63.13604 m 0,1142.35873 0,28.78242 m 0,224.55889 0,-200.72779 m 55.542549,-1411.06705 0,219.45819 m 0,1335.15638 0,-155.43143 m 55.54255,-1414.5744 0,198.07302 m 0,1319.48416 0,-113.90765 m 55.54255,-1414.66266 0,165.76755 m 0,1059.19066 0,-8.70352 m 0,76.40169 0,31.57304 m 0,165.68082 0,-112.73957 m 55.54255,-1389.07628 0,138.79124 m 0,1162.36324 0,-209.2428 m 0,220.88709 0,114.78031 m 55.54255,-1393.06001 0,-56.4245 m 0,62.34364 0,32.03279 m 0,86.40709 0,-78.98249 m 0,957.38598 0,413.96379 m 55.54255,-1262.12575 0,-236.77252 m 0,1068.42306 0,407.55692 m 55.54255,-1211.96103 0,-276.4635 m 0,1015.13001 0,430.49118 m 55.54255,-1101.53705 0,-349.54205 m 0,979.35333 0,454.8743 m 55.54255,-1037.35405 0,-387.14055 m 0,938.00433 0,445.03043 m 0,19.76916 0,-0.59052 m 55.54255,-1393.32549 0,420.26574 m 0,216.952183 0,-89.960443 m 0,355.83662 0,467.11233 m 55.54255,-1350.35769 0,-35.31947 m 0,84.80117 0,393.62594 m 0,124.540179 0,-83.909549 m 0,371.96776 0,465.06856 m 55.54255,-938.32944 0,-275.55546 m 0,289.6248 0,116.7336 m 0,336.7908 0,-15.36624 m 0,40.67435 0,184.73742 m 0,237.39107 0,-231.987 m 55.54255,-1040.42322 0,32.79169 m 0,445.0695 0,-346.8076 m 0,628.40002 0,12.67763 m 0,523.97767 0,-446.4246 m 0,539.35874 0,156.76399 m 55.54255,-1508.52554 0,-95.6311 m 0,246.35795 0,199.09902 m 0,116.23329 0,-106.31717 m 0,232.3134106 0,110.0705694 m 0,592.94676 0,-491.88887 m 0,568.20085 0,90.9201 m 55.54255,-1569.23773 0,-15.82836 m 0,208.51104 0,296.09465 m 0,889.79522 0,-845.67236 m 55.54255,-458.34359 0,70.86333 m 0,229.64788 0,-219.65672 m 0,227.51135 0,20.77858 m 0,28.47153 0,-9.2031 m 0,30.24523 0,151.949359 m 0,902.397051 0,-895.174086 m 55.54252,-780.463704 0,14.09968 m 0,356.73318 0,-29.08755 m 0,59.06637 0,41.62672 m 0,67.13672 0,-32.7408 m 0,194.01955 0,523.54429 m 0,453.10802 0,-348.69581 m 55.5426,-1204.56998 0,11.69387 m 0,296.07047 0,-95.79973 m 0,115.69481 0,59.39389 m 0,434.289751 0,-270.560371 m 0,278.518121 0,308.412199 m 0,388.01427 0,-268.38884 m 0,272.6317 0,15.56809 m 55.5425,-1282.94142 0,-122.42337 m 0,130.09319 0,89.72063 m 0,687.25887 0,-472.3974 m 0,522.84961 0,29.91665 m 0,140.72849 0,-7.55268 m 0,12.01646 0,244.38867 m 0,20.58903 0,-4.13821 m 55.5426,-1498.4801 0,300.27419 m 0,497.912188 0,-204.856788 m 0,268.57386 0,50.00979 m 0,356.04989 0,-15.21578 m 0,24.00577 0,25.64636 m 0,40.36823 0,-37.23266 m 0,39.87857 0,76.15298 m 0,24.18793 0,-6.94671 m 55.5425,-1610.72821 0,25.50491 m 0,28.1831 0,-5.01836 m 0,91.89837 0,64.13005 m 0,52.17183 0,-46.99668 m 0,50.90014 0,80.13923 m 0,106.89847 0,-41.19339 m 55.5426,-421.32017 0,189.33106 m 0,128.37777 0,-118.09809 m 55.5425,-205.28766 0,161.05644 m 0,117.61747 0,-113.25621 m 55.5426,-173.99358 0,221.02267 m 55.5425,-75.4179 0,-169.98612"
       style="stroke:#000000;stroke-width:1.8;stroke-miterlimit:4;stroke-dasharray:none"
       id="path19"
       inkscape:connector-curvature="0" />
  </g>
  <g
     inkscape:label="fill-afafaf"
     inkscape:groupmode="layer"
     id="fill-afafaf"
     transform="translate(72.71875,968.79548)">
    <path
       d="m -11.599392,911.01807 0,168.73963 m 64.221074,-1372.16976 0,-42.29247 m 0,1137.31055 0,258.23958 m 64.221078,-1408.21772 0,-223.86571 m 0,1357.09234 0,9.13486 m 0,191.78956 0,-186.13711 m 64.22107,-1403.90584 0,203.54223 m 0,1321.19575 0,-118.19965 m 64.22107,-1417.92154 0,167.59119 m 0,1059.12778 0,-11.58991 m 0,76.3106 0,34.57154 m 0,166.39418 0,-117.04333 m 64.22108,-1387.71442 0,138.72044 m 0,1297.19498 0,-357.16513 m 64.22107,-1108.54911 0,201.8072 m 0,1267.68988 0,-407.4326 m 64.22108,-1086.66257 0,256.33983 m 0,1220.76653 0,-415.67306 m 64.22107,-1071.03313 0,329.16099 m 0,1102.48147 0,-441.24111 m 0,456.87862 0,4.07072 m 64.22107,-1062.47743 0,-382.39275 m 0,949.9406 0,455.12456 m 64.22108,-973.99723 0,-421.07844 m 0,549.92067 0,94.880429 m 0,727.712551 0,-466.69919 m 64.22107,-922.0089 0,35.29765 m 0,450.84 0,-397.77157 m 0,430.22128 0,82.943497 m 0,766.969553 0,-477.10594 m 64.22108,-829.73816 0,12.59103 m 0,348.94838 0,-274.28043 m 0,295.08115 0,95.41021 m 0,337.81995 0,-15.1711 m 0,38.75982 0,437.85063 m 0,282.36655 0,-59.46449 m 64.22107,-1532.87165 0,105.23034 m 0,416.38741 0,-359.40703 m 0,598.279578 0,25.003322 m 0,8.74604 0,-4.32725 m 0,87.04248 0,473.24909 m 0,255.09182 0,-241.53614 m 64.22107,-1428.5974 0,113.17912 m 0,518.611801 0,-391.739531 m 0,411.132216 0,752.985424 m 0,174.40645 0,-32.34197 m 64.22108,-1425.74728 0,350.08064 m 0,1062.18944 0,-1039.27609 m 64.22108,-630.88718 0,16.98325 m 0,215.41932 0,-17.30176 m 0,108.0036 0,122.72708 m 0,163.68814 0,-131.17167 m 0,193.40712 0,521.47634 m 0,460.08918 0,-380.09162 m 64.2211,-1205.65773 0,45.76189 m 0,288.11956 0,-101.62363 m 0,116.37178 0,89.79518 m 0,727.18966 0,-589.83103 m 0,708.35138 0,289.23875 m 64.221,-1179.81544 0,-286.51468 m 0,501.88633 0,446.97606 m 0,446.90315 0,-216.30843 m 0,247.46425 0,14.94659 m 64.2211,-1295.78479 0,-190.22418 m 0,194.13674 0,97.33014 m 0,486.352666 0,-141.369427 m 0,632.906091 0,22.45244 m 0,31.5732 0,-26.75458 m 0,39.46457 0,34.05571 m 0,32.49775 0,-25.59948 m 0,33.10992 0,11.19132 m 64.2211,-1260.5279 0,-355.54458 m 64.2211,-7.80066 0,210.24176 m 0,90.85485 0,-88.39931 m 64.221,-219.02898 0,237.94015 m 64.2211,-84.30076 0,-173.65411"
       style="stroke:#000000;stroke-width:1.8;stroke-miterlimit:4;stroke-dasharray:none"
       id="path22"
       inkscape:connector-curvature="0" />
  </g>
  <g
     inkscape:label="fill-d1d1d1"
     inkscape:groupmode="layer"
     id="fill-d1d1d1"
     transform="translate(72.71875,968.79548)">
    <path
       d="m -7.5464065,899.86238 0,206.49482 m 72.8995975,-1404.42565 0,-64.13782 m 0,1146.37807 0,257.8573 m 72.899599,-1411.84565 0,-222.95876 m 0,1280.70226 0,7.38364 m 0,270.61547 0,-155.95603 m 72.8996,-1416.86391 0,191.87293 m 0,1313.23588 0,-130.92517 m 72.8996,-1393.6495 0,149.58842 m 0,1326.23137 0,-346.02539 m 72.8996,-1153.30245 0,185.5289 m 0,1292.48584 0,-419.38968 m 72.89959,-1088.93732 0,252.57658 m 0,1219.96539 0,-408.22343 m 72.8996,-1076.54149 0,332.65785 m 0,1100.81976 0,-442.99182 m 0,454.38093 0,18.13501 m 72.8996,-1064.19833 0,-390.12126 m 0,939.80334 0,469.19474 m 72.8996,-963.7962 0,-437.0701 m 0,536.43461 0,89.249655 m 0,737.727105 0,-468.06627 m 72.89959,-916.57748 0,10.17751 m 0,500.5999 0,-448.32928 m 0,451.75951 0,91.755209 m 0,775.499141 0,-491.78159 m 72.8996,-826.24046 0,56.13519 m 0,21.16089 0,-14.3485 m 0,14.67585 0,405.55352 m 0,307.3628 0,-21.61913 m 0,57.16512 0,472.63805 m 0,253.89925 0,-149.38645 m 72.8996,-1481.45782 0,129.89029 m 0,471.53882 0,-421.92057 m 0,500.855678 0,707.106362 m 0,183.92064 0,-57.41876 m 72.8996,-1613.12707 0,6.45747 m 0,70.11968 0,-21.77484 m 0,42.52817 0,18.6749 m 0,16.21875 0,-5.7964 m 0,90.15627 0,1390.00747 m 72.89963,-1640.134 0,-20.37225 m 0,50.55338 0,13.75009 m 0,209.82406 0,-67.83224 m 0,76.24828 0,4.16536 m 0,170.61515 0,-158.558 m 0,180.8072 0,714.10877 m 0,63.78798 0,-27.94725 m 0,34.6728 0,407.83605 m 72.8996,-1498.86018 0,-111.99981 m 0,126.99909 0,22.40899 m 0,75.9223 0,-19.15541 m 0,26.645 0,106.46145 m 0,130.40684 0,-122.44942 m 0,237.74847 0,593.08006 m 0,405.57996 0,-292.02195 m 72.8996,-1271.5193 0,13.66913 m 0,371.77225 0,-288.33581 m 0,512.53268 0,409.96742 m 0,471.67349 0,-215.74264 m 72.8996,-1413.82437 0,37.89877 m 0,13.91079 0,-9.59226 m 0,112.70573 0,211.56877 m 0,108.18683 0,-88.66723 m 0,1110.40768 0,11.65221 m 0,47.79253 0,-3.67241 m 72.8996,-1565.69896 0,331.64328 m 72.8996,-62.2831 0,-276.34907 m 72.8995,-18.83086 0,204.32991"
       style="stroke:#000000;stroke-width:1.8;stroke-miterlimit:4;stroke-dasharray:none"
       id="path25"
       inkscape:connector-curvature="0" />
  </g>
  <g
     inkscape:label="fill-e8e8e8"
     inkscape:groupmode="layer"
     id="fill-e8e8e8"
     transform="translate(72.71875,968.79548)">
    <path
       d="m -33.251032,950.23478 0,86.28092 m 0,76.3783 0,-66.0196 m 79.842416,-1380.29913 0,46.88701 m 0,1359.63572 0,-267.43249 m 79.842416,-1390.18754 0,228.64924 m 0,1070.69173 0,-17.87825 m 0,82.13174 0,201.1102 m 79.84242,-1390.51126 0,-197.26482 m 0,1261.01059 0,2.84909 m 0,248.22504 0,-213.17663 m 79.8424,-1319.90704 0,152.18397 m 0,1325.53691 0,-359.2175 m 79.84242,-1145.14533 0,198.055 m 0,1271.45348 0,-409.09201 m 79.84242,-1090.30478 0,266.10102 m 0,1221.16816 0,-437.94839 m 79.84241,-1057.69309 0,359.22726 m 0,1082.36671 0,-465.59734 m 0,474.84151 0,20.67015 m 79.84242,-1049.8904 0,-408.3119 m 0,580.917755 0,81.3579 m 0,728.382015 0,-470.45486 m 0,478.49952 0,37.41385 m 79.84242,-965.27934 0,-480.93023 m 0,519.55566 0,93.528172 m 0,828.688558 0,-550.84618 m 79.84241,-911.91177 0,7.89481 m 0,549.26368 0,-497.59146 m 0,815.17578 0,22.67107 m 0,595.01222 0,-586.25649 m 0,659.61887 0,76.91606 m 79.84242,-1665.27031 0,-22.06869 m 0,51.4705 0,575.93635 m 0,1027.75113 0,-899.7992928 m 79.84241,-807.1751372 0,1612.06059 m 79.84245,-1586.72178 0,-80.72623 m 0,105.29465 0,22.51352 m 0,351.04476 0,-289.80773 m 0,293.8776 0,707.39561 m 0,492.29285 0,-472.73076 m 79.8424,-1223.49144 0,1252.02986 m 0,405.72441 0,-295.34768 m 79.8424,-1403.38552 0,85.27673 m 0,469.88101 0,-465.10428 m 0,654.0798 0,409.23598 m 0,474.02838 0,-217.45118 m 79.8424,-1419.03404 0,368.62428 m 0,42.00432 0,-2.78323 m 0,10.3745 0,53.00273 m 79.8424,-157.36182 0,-330.25919 m 79.8425,-13.10896 0,252.40934 m 79.8424,-99.11325 0,-165.80048"
       style="stroke:#000000;stroke-width:1.8;stroke-miterlimit:4;stroke-dasharray:none"
       id="path28"
       inkscape:connector-curvature="0" />
  </g>
</svg>
