<?xml version="1.0" encoding="UTF-8" standalone="no"?>
<!-- Created with Inkscape (http://www.inkscape.org/) -->

<svg
   xmlns:dc="http://purl.org/dc/elements/1.1/"
   xmlns:cc="http://creativecommons.org/ns#"
   xmlns:rdf="http://www.w3.org/1999/02/22-rdf-syntax-ns#"
   xmlns:svg="http://www.w3.org/2000/svg"
   xmlns="http://www.w3.org/2000/svg"
   xmlns:sodipodi="http://sodipodi.sourceforge.net/DTD/sodipodi-0.dtd"
   xmlns:inkscape="http://www.inkscape.org/namespaces/inkscape"
   width="543.90051"
   height="325.41434"
   id="svg3037"
   version="1.1"
   inkscape:version="0.48.4 r9939"
   sodipodi:docname="crisscross-motte_hatched.svg"
   inkscape:export-filename="/home/svilayphiou/work/balsamine/osp.work.balsamine.2014-2015/scripts/svghatch/objects/i/svg/criss-cross-roche_hatched.png"
   inkscape:export-xdpi="89.959602"
   inkscape:export-ydpi="89.959602">
  <defs
     id="defs3039" />
  <sodipodi:namedview
     id="base"
     pagecolor="#ffffff"
     bordercolor="#666666"
     borderopacity="1.0"
     inkscape:pageopacity="0.0"
     inkscape:pageshadow="2"
     inkscape:zoom="0.7"
     inkscape:cx="439.51727"
     inkscape:cy="277.61718"
     inkscape:document-units="px"
     inkscape:current-layer="fill-adadad"
     showgrid="false"
     inkscape:window-width="1276"
     inkscape:window-height="775"
     inkscape:window-x="0"
     inkscape:window-y="21"
     inkscape:window-maximized="1"
     fit-margin-top="0"
     fit-margin-left="0"
     fit-margin-right="0"
     fit-margin-bottom="0" />
  <metadata
     id="metadata3042">
    <rdf:RDF>
      <cc:Work
         rdf:about="">
        <dc:format>image/svg+xml </dc:format>
        <dc:type
           rdf:resource="http://purl.org/dc/dcmitype/StillImage" />
        <dc:title />
      </cc:Work>
    </rdf:RDF>
  </metadata>
  <g
     inkscape:label="fill-020202"
     inkscape:groupmode="layer"
     id="fill-020202"
     transform="translate(71.284871,-159.24886)">
    <path
       d="m -44.921099,389.96924 0,15.12565 m 0,18.8341 0,-14.79013 m 30,-24.21929 0,3.17151 m 0,14.57732 0,-10.04257 m 0,21.6874 0,32.02207 m 30,-80.72722 0,-4.62722 m 0,11.5748 0,2.62184 m 0,53.93035 0,-1.76852 m 0,8.63442 0,10.05486 m 0,11.59766 0,-8.37233 m 30,-145.54537 0,8.37358 m 0,42.73343 0,-2.01463 m 0,12.03891 0,4.04125 m 0,1.41247 0,-0.46862 m 0,38.73462 0,2.07624 m 0,35.71777 0,-10.77574 m 0,13.90077 0,14.52469 m 30,-183.36228 0,-5.05685 m 0,51.53519 0,1.81432 m 0,6.16418 0,-2.12864 m 0,9.84611 0,10.2968 m 0,8.77632 0,-1.51065 m 0,9.9678 0,10.16658 m 0,49.182 0,-2.91573 m 0,11.68629 0,4.429 m 0,11.34105 0,-4.71322 m 0,9.1841 0,3.41949 m 0,5.88057 0,-1.94822 M 105.0789,270.85 l 0,1.31237 m 0,9.15416 0,-4.82155 m 0,42.1694 0,5.57279 m 0,14.89172 0,-5.82057 m 0,22.55515 0,4.62564 m 0,24.0824 0,-4.15198 m 0,54.3627 0,8.81989 m 0,15.60734 0,-7.551 m 0,10.67872 0,9.66615 m 30,-210.65739 0,-2.92929 m 0,34.90017 0,8.25995 m 0,11.91771 0,-0.46424 m 0,5.93493 0,2.48434 m 0,9.24777 0,-3.36126 m 0,4.52398 0,4.23381 m 0,10.06588 0,-2.20933 m 0,18.31011 0,4.35742 m 0,6.77865 0,-1.23592 m 0,45.92391 0,22.70029 m 0,26.94145 0,-11.13686 m 30,-113.49605 0,1.681 m 0,4.93366 0,-3.30145 m 0,16.65598 0,4.25342 m 0,19.89074 0,-8.11983 m 0,17.4053 0,2.24017 m 0,26.86879 0,-9.01139 m 0,23.97597 0,11.49748 m 0,21.45798 0,-18.44829 m 0,19.44593 0,2.87009 m 30,-287.80378 0,-6.8448 m 0,9.33094 0,3.29637 m 0,22.94035 0,-0.5457 m 0,31.28099 0,1.83628 m 0,41.68388 0,-1.69543 m 0,12.5246 0,1.33473 m 0,23.65232 0,-8.76593 m 0,62.50341 0,0.0571 m 0,15.47615 0,-3.87491 m 0,13.617 0,2.86534 m 0,41.49566 0,-2.10486 m 0,13.90844 0,15.54487 m 30,-291.11273 0,-5.54454 m 0,87.97752 0,10.45239 m 0,12.93457 0,-1.03432 m 0,74.51311 0,6.63335 m 0,104.23938 0,-32.21049 m 30,-222.32011 0,2.07852 m 0,115.67331 0,-8.82351 m 0,58.42354 0,1.79952 m 0,79.204 0,-4.69332 m 30,-182.99654 0,14.21324 m 0,8.96638 0,-4.93234 m 0,70.82019 0,4.77427 m 0,4.36468 0,-1.5139 m 0,5.69413 0,1.39581 m 0,32.8016 0,-4.88626 m 0,33.74086 0,10.52486 m 0,19.07244 0,-16.38942 m 30,-158.88645 0,0.57206 m 0,10.29383 0,-4.20009 m 0,142.6876 0,2.4788 m 30,-148.42957 0,-9.39332 m 0,16.29057 0,3.42255 m 0,121.69464 0,-4.81412 m 0,16.40396 0,1.74738 m 0,15.43989 0,-10.58092 m 30,-147.5173 0,3.34234 m 0,130.00471 0,-2.57868 m 0,6.84461 0,14.42845 m 30,-27.6715 0,-7.71836 m 0,19.43308 0,7.22343 m 30,-85.20858 0,-1.84594 m 0,55.00685 0,4.95091 m 0,11.43419 0,-7.28979 m 30,-18.12688 0,8.61681"
       style="stroke:#000000;stroke-width:1.8;stroke-miterlimit:4;stroke-dasharray:none"
       id="path7"
       inkscape:connector-curvature="0" />
  </g>
  <g
     inkscape:label="fill-0b0b0b"
     inkscape:groupmode="layer"
     id="fill-0b0b0b"
     transform="translate(71.284871,-159.24886)">
    <path
       d="m -46.279962,379.98868 0,45.5143 m 30,-69.73545 0,-1.53599 m 0,30.81011 0,24.1726 m 0,36.761 0,-31.66563 m 30,-54.16372 0,5.31228 m 0,14.38431 0,-9.16087 m 0,33.36656 0,0.68009 m 0,10.59746 0,-2.36003 m 0,13.76668 0,3.76496 m 0,27.12567 0,-23.2424 m 30,-136.19167 0,2.65094 m 0,13.10005 0,-9.71028 m 0,18.88911 0,0.58587 m 0,25.67376 0,-2.39788 m 0,4.41891 0,8.56741 m 0,7.97809 0,-3.41536 m 0,11.76671 0,2.44376 m 0,33.50783 0,-4.11504 m 0,26.62847 0,29.51575 m 30,-180.68345 0,-10.31112 m 0,53.22248 0,8.97802 m 0,19.79259 0,-14.21595 m 0,18.39835 0,5.43386 m 0,16.56073 0,-13.63033 m 0,42.97748 0,2.03207 m 0,17.3276 0,-6.61449 m 0,12.87707 0,5.99452 m 0,21.12955 0,-14.46302 m 0,18.18344 0,1.70923 m 30.000002,-212.3045 0,-1.86518 m 0,15.01765 0,13.65499 m 0,3.79938 0,-0.47786 m 0,8.1398 0,3.54875 m 0,27.22781 0,-7.08077 m 0,14.04133 0,7.5035 m 0,21.40186 0,-6.62375 m 0,14.51243 0,1.24323 m 0,14.68011 0,-5.86383 m 0,9.28694 0,1.93553 m 0,29.01127 0,-2.30272 m 0,16.29564 0,10.12808 m 0,16.07455 0,-7.45259 m 0,9.18918 0,12.21779 m 30,-210.66758 0,-4.94043 m 0,6.9485 0,10.40201 m 0,25.83987 0,-9.36993 m 0,20.58351 0,10.21743 m 0,13.00216 0,-8.63802 m 0,16.54293 0,2.60148 m 0,7.68526 0,-2.24976 m 0,6.86283 0,10.99644 m 0,48.44119 0,-0.67321 m 0,22.24509 0,17.25929 m 0,19.65991 0,-14.1501 m 30,-238.6102 0,7.04617 m 0,9.44143 0,-4.95666 m 0,18.65586 0,2.53133 m 0,93.40271 0,-5.75747 m 0,19.89057 0,3.06191 m 0,22.45919 0,-13.44519 m 0,19.3861 0,4.41161 m 0,25.66436 0,-10.26955 m 0,26.89382 0,35.67602 m 30,-280.07781 0,-21.65579 m 0,56.95773 0,3.13446 m 0,20.04928 0,-8.13295 m 0,30.43173 0,3.079 m 0,12.99684 0,-5.63955 m 0,12.97945 0,3.02724 m 0,25.9935 0,-13.09644 m 0,19.43917 0,2.15518 m 0,32.95741 0,-2.55206 m 0,10.07904 0,2.94333 m 0,14.95195 0,-8.51722 m 0,17.77099 0,4.6067 m 0,40.62092 0,-10.34744 m 0,21.74613 0,15.59004 m 30,-289.80329 0,-7.44862 m 0,9.83776 0,4.33122 m 0,14.36076 0,-4.64939 m 0,54.7236 0,20.89817 m 0,12.92008 0,-4.40825 m 0,50.5311 0,0.0911 m 0,11.01251 0,-3.37331 m 0,10.00462 0,3.78928 m 0,20.73882 0,-18.39135 m 0,59.19302 0,2.96877 m 0,51.63493 0,-32.51046 m 30,-223.22432 0,3.28486 m 0,18.74106 0,-0.53827 m 0,33.02124 0,4.35715 m 0,36.15982 0,-2.40063 m 0,7.10261 0,2.73898 m 0,16.66864 0,-9.09882 m 0,39.36988 0,1.97739 m 0,19.33084 0,-2.90887 m 0,5.65244 0,2.90145 m 0,26.5815 0,-0.94728 m 0,33.82736 0,2.72547 m 0,10.76965 0,-6.00704 m 30,-182.13911 0,13.58306 m 0,13.18704 0,-8.37892 m 0,46.36202 0,2.13551 m 0,7.5356 0,-1.8941 m 0,16.13222 0,13.51941 m 0,36.46452 0,-6.37341 m 0,31.93738 0,11.43222 m 0,18.73517 0,-14.99852 m 30,-174.83144 0,3.80687 m 0,20.76944 0,-14.54692 m 0,33.23416 0,1.81426 m 0,66.01039 0,-4.62844 m 0,41.8499 0,1.75895 m 0,31.69703 0,-17.05854 m 30,-156.46106 0,9.91513 m 0,12.98521 0,-8.68142 m 0,18.15004 0,3.58908 m 0,49.05781 0,-1.27491 m 0,12.46171 0,0.96212 m 0,44.67639 0,-3.2678 m 0,16.49982 0,3.48431 m 0,13.80727 0,-13.61955 m 30,-146.84006 0,3.98366 m 0,14.46669 0,-6.24272 m 0,79.99263 0,1.01523 m 0,42.46557 0,-10.11278 m 0,13.00908 0,17.70991 m 30,-112.96567 0,-0.45791 m 0,74.13759 0,9.21529 m 0,20.58443 0,-9.69764 m 30,-77.86504 0,0.0822 m 0,22.57704 0,-2.17981 m 0,10.19302 0,1.70186 m 0,25.76158 0,-4.7469 m 0,8.20815 0,8.66757 m 30,-39.28534 0,-1.47079 m 0,13.32433 0,11.06593"
       style="stroke:#000000;stroke-width:1.8;stroke-miterlimit:4;stroke-dasharray:none"
       id="path10"
       inkscape:connector-curvature="0" />
  </g>
  <g
     inkscape:label="fill-131313"
     inkscape:groupmode="layer"
     id="fill-131313"
     transform="translate(71.284871,-159.24886)">
    <path
       d="m -45.502904,382.21502 0,43.99339 m 0,5.44659 0,-1.57536 m 31,-75.35329 0,3.02574 m 0,49.19576 0,-24.08328 m 0,29.39663 0,35.14666 m 31,-119.99438 0,-2.58343 m 0,34.72581 0,6.62633 m 0,12.75503 0,-7.41587 m 0,16.66634 0,5.16768 m 0,10.9735 0,-0.88053 m 0,20.53751 0,6.25907 m 0,28.55943 0,-25.05029 m 31,-139.02204 0,18.60905 m 0,14.28522 0,-5.679 m 0,10.23707 0,9.25043 m 0,31.95767 0,-27.66787 m 0,88.56931 0,31.33219 m 31,-192.71342 0,-2.35517 m 0,20.10019 0,3.68607 m 0,18.7542 0,-5.9854 m 0,20.00649 0,10.21834 m 0,14.76008 0,-3.39135 m 0,18.11445 0,9.29088 m 0,7.75173 0,-4.2061 m 0,25.22973 0,8.80791 m 0,5.29985 0,-3.05712 m 0,12.23845 0,25.39135 m 0,16.79787 0,-11.87911 M 109.4971,254.2737 l 0,4.5252 m 0,10.93742 0,-7.86922 m 0,16.39008 0,2.90187 m 0,22.34758 0,-6.91919 m 0,10.06821 0,8.97133 m 0,9.49368 0,-7.15157 m 0,10.32606 0,13.63123 m 0,9.16766 0,-5.12659 m 0,6.31682 0,5.88078 m 0,16.58379 0,-7.43826 m 0,12.72332 0,2.10705 m 0,12.63893 0,-1.90334 m 0,42.60292 0,10.67655 m 0,7.67573 0,-5.99348 m 0,7.78243 0,11.44124 m 31,-220.17509 0,-1.48303 m 0,4.05295 0,3.14738 m 0,11.81873 0,-5.89028 m 0,23.91323 0,5.21639 m 0,11.29966 0,-4.3786 m 0,29.7404 0,13.74268 m 0,87.44744 0,-12.94511 m 0,13.03167 0,10.00239 m 0,16.35822 0,-13.83513 m 0,14.396 0,24.43466 m 31,-270.75008 0,-9.94084 m 0,21.20621 0,20.51182 m 0,7.2728 0,-4.39217 m 0,13.37793 0,3.66629 m 0,19.04705 0,-4.70917 m 0,8.71704 0,26.94371 m 0,11.32686 0,-1.95751 m 0,21.98986 0,2.19024 m 0,6.33098 0,-4.82042 m 0,13.0083 0,7.45031 m 0,5.04804 0,-2.92239 m 0,3.98032 0,7.16299 m 0,8.47236 0,-4.15224 m 0,11.35911 0,8.73162 m 0,24.27657 0,-9.03063 m 0,10.71687 0,5.66488 m 0,20.21041 0,-7.9416 m 0,11.46011 0,18.30515 m 31,-279.70599 0,-23.18437 m 0,23.25246 0,4.22823 m 0,7.54349 0,-3.87656 m 0,15.63318 0,4.33385 m 0,17.38428 0,-11.25939 m 0,23.89763 0,3.62584 m 0,11.73605 0,-2.69958 m 0,14.36545 0,6.64206 m 0,7.71884 0,-2.43971 m 0,16.2375 0,2.95342 m 0,32.43558 0,-27.41812 m 0,32.85278 0,5.04339 m 0,20.01826 0,-0.85018 m 0,13.08899 0,4.33672 m 0,9.53928 0,-1.93689 m 0,16.17765 0,2.9879 m 0,17.68722 0,-5.891 m 0,13.1061 0,18.97535 m 0,19.24365 0,-13.25434 m 31,-280.71357 0,9.12781 m 0,60.6761 0,-5.10613 m 0,8.56543 0,3.80645 m 0,10.97486 0,-4.97581 m 0,10.344 0,6.03588 m 0,27.42894 0,-15.61048 m 0,23.40721 0,6.55431 m 0,20.27085 0,-5.63599 m 0,12.47531 0,3.86618 m 0,17.22298 0,-2.64242 m 0,9.12716 0,0.85329 m 0,15.05587 0,-9.40448 m 0,53.69799 0,2.67399 m 0,34.27799 0,-29.14434 m 31,-210.43066 0,0.61689 m 0,20.38389 0,-1.90901 m 0,14.09727 0,8.42299 m 0,5.98045 0,-5.53509 m 0,7.92165 0,4.69009 m 0,60.11654 0,-14.3196 m 0,23.36616 0,1.62972 m 0,10.58486 0,-4.71569 m 0,7.20581 0,6.67905 m 0,5.30186 0,-2.04989 m 0,24.94717 0,20.58564 m 0,16.42008 0,-4.83754 m 0,20.48343 0,10.50675 m 31,-185.13896 0,-3.3244 m 0,8.38389 0,2.7703 m 0,66.94554 0,-4.41612 m 0,27.06195 0,18.15345 m 0,20.11415 0,-10.21445 m 0,18.12095 0,2.04921 m 0,10.58703 0,-1.44796 m 0,8.18188 0,7.69318 m 0,13.43528 0,-11.56429 m 31,-189.5708 0,17.83578 m 0,48.18882 0,-11.63321 m 0,20.18645 0,1.54271 m 0,13.66763 0,-1.36937 m 0,4.44704 0,3.32367 m 0,86.17356 0,-2.39088 m 0,6.1772 0,10.58714 m 31,-160.89828 0,-12.05424 m 0,23.76409 0,5.80282 m 0,22.41759 0,-1.79032 m 0,4.47547 0,5.09177 m 0,48.4233 0,-2.90354 m 0,37.85971 0,1.82978 m 0,5.78117 0,-1.50127 m 0,9.11143 0,9.74711 m 31,-144.81923 0,-2.42373 m 0,8.57632 0,2.1995 m 0,26.13106 0,-9.122 m 0,68.63644 0,3.56029 m 0,14.21287 0,-7.43051 m 0,11.9345 0,23.15194 m 31,-88.57306 0,-9.75121 m 0,11.99345 0,2.35892 m 0,5.61448 0,-2.81199 m 0,55.22329 0,10.84584 m 31,-74.96741 0,-0.74074 m 0,19.91844 0,6.21704 m 0,34.88788 0,-11.65082"
       style="stroke:#000000;stroke-width:1.8;stroke-miterlimit:4;stroke-dasharray:none"
       id="path13"
       inkscape:connector-curvature="0" />
  </g>
  <g
     inkscape:label="fill-1b1b1b"
     inkscape:groupmode="layer"
     id="fill-1b1b1b"
     transform="translate(71.284871,-159.24886)">
    <path
       d="m -43.455703,388.55757 0,44.8127 m 32,-74.53875 0,-8.09418 m 0,14.48007 0,1.91425 m 0,23.40037 0,-9.66628 m 0,10.89433 0,2.83494 m 0,9.87432 0,-7.39435 m 0,15.72413 0,35.82201 m 32,-116.38569 0,-16.49259 m 0,23.20815 0,2.43783 m 0,18.23672 0,-11.36645 m 0,17.43765 0,4.43087 m 0,26.34941 0,-14.52675 m 0,15.65182 0,5.01772 m 0,10.25776 0,-6.59099 m 0,20.03703 0,3.69491 m 0,29.43706 0,-25.58462 m 32,-144.45705 0,7.6907 m 0,15.94766 0,-12.89546 m 0,20.42083 0,21.73228 m 0,8.03026 0,-4.9714 m 0,5.94744 0,17.58593 m 0,17.71219 0,-10.71441 m 0,24.4087 0,3.84992 m 0,54.11451 0,-21.53944 m 0,23.0906 0,6.38011 m 32,-196.90676 0,-5.32358 m 0,26.38008 0,7.96846 m 0,13.19091 0,-10.02424 m 0,19.62235 0,16.62352 m 0,5.07862 0,-4.0929 m 0,14.08507 0,3.50399 m 0,26.08214 0,-19.13638 m 0,21.86476 0,10.82203 m 0,13.44785 0,-9.64864 m 0,14.23392 0,5.04382 m 0,52.94934 0,-41.95888 m 32.000003,-168.95271 0,2.88108 m 0,9.74921 0,-3.76462 m 0,12.26629 0,2.19686 m 0,35.81634 0,-25.6415 m 0,30.29845 0,7.29117 m 0,14.81251 0,-8.4638 m 0,13.45357 0,3.30426 m 0,22.68494 0,-9.66844 m 0,18.12452 0,17.34227 m 0,28.70573 0,-15.32302 m 0,25.25912 0,8.35588 m 0,24.77217 0,-21.52496 m 32,-178.59636 0,7.48252 m 0,16.43381 0,-4.09921 m 0,30.78053 0,0.58814 m 0,18.31711 0,-11.5733 m 0,22.43027 0,4.23396 m 0,25.12632 0,-1.6471 m 0,5.44468 0,4.06119 m 0,33.26168 0,-4.50349 m 0,14.29194 0,11.98698 m 0,5.87987 0,-1.79986 m 0,6.93031 0,18.38448 m 32,-247.65677 0,-47.13077 m 0,48.58381 0,3.64065 m 0,15.77433 0,-1.69667 m 0,23.50944 0,22.06029 m 0,8.90327 0,-4.60486 m 0,23.87613 0,2.47506 m 0,8.94408 0,-6.58773 m 0,10.75631 0,3.37099 m 0,28.27372 0,-16.93089 m 0,18.80552 0,2.33314 m 0,8.25772 0,-2.98033 m 0,6.77461 0,9.83202 m 0,20.69248 0,-16.94365 m 0,46.74386 0,10.72774 m 0,3.91677 0,-0.19975 m 0,3.12676 0,9.96175 m 0,5.39428 0,-3.75515 m 32,-309.11354 0,6.4744 m 0,34.84828 0,-33.20914 m 0,38.04889 0,14.88855 m 0,69.41139 0,-37.24041 m 0,40.49796 0,3.7564 m 0,23.01374 0,-4.25484 m 0,7.42605 0,2.47447 m 0,29.63148 0,-17.73509 m 0,19.19546 0,30.22646 m 0,6.59301 0,-2.15934 m 0,8.17384 0,0.6175 m 0,17.44944 0,-8.45916 m 0,19.31666 0,4.47212 m 0,7.00343 0,-3.62229 m 0,7.25783 0,27.37843 m 32,-230.73065 0,-1.76524 m 0,7.29417 0,2.1334 m 0,63.44022 0,-4.14797 m 0,16.15377 0,11.24679 m 0,22.27576 0,-2.58141 m 0,17.53917 0,3.90602 m 0,8.66867 0,-4.41857 m 0,7.71934 0,6.11296 m 0,25.34559 0,-4.05596 m 0,18.33925 0,2.0463 m 0,9.64902 0,-5.86039 m 0,12.18907 0,20.83208 m 32,-201.29374 0,-16.86984 m 0,26.39851 0,7.8632 m 0,13.46359 0,-7.29763 m 0,15.37276 0,6.60207 m 0,20.78197 0,-0.51033 m 0,4.89228 0,9.19028 m 0,22.04873 0,-7.23621 m 0,16.70439 0,3.8834 m 0,16.79895 0,-13.71715 m 0,16.0735 0,15.68052 m 0,17.33941 0,-6.76698 m 0,12.01859 0,3.18438 m 0,24.61707 0,-13.58484 m 32,-193.14985 0,12.36369 m 0,16.31991 0,-9.67725 m 0,20.31198 0,11.45547 m 0,11.72458 0,-7.90299 m 0,31.97166 0,2.5421 m 0,21.71606 0,-7.83606 m 0,19.2782 0,13.08335 m 0,23.96113 0,-0.32954 m 0,9.12323 0,9.78796 m 0,23.65388 0,-18.80218 m 32,-181.9649 0,5.657 m 0,37.33875 0,-28.51849 m 0,40.57248 0,16.88875 m 0,6.19842 0,-3.4274 m 0,4.97678 0,6.19511 m 0,34.16461 0,-2.18956 m 0,53.35568 0,4.82934 m 0,20.23752 0,-17.96693 m 32,-144.91906 0,9.96501 m 0,22.9226 0,-18.87446 m 0,25.969 0,1.74531 m 0,7.57173 0,-1.56374 m 0,14.44429 0,2.84088 m 0,34.83506 0,-4.83176 m 0,15.86801 0,5.92744 m 0,43.43223 0,-34.13258 m 32,-92.53224 0,3.32514 m 0,11.90189 0,-5.2245 m 0,76.24438 0,9.99336 m 0,20.08846 0,-11.34433 m 32,-79.44386 0,4.93016 m 0,8.38389 0,-1.89009 m 0,21.57182 0,6.55832 m 0,33.91801 0,-19.07275 m 32,-40.07922 0,1.74361 m 0,38.21941 0,-21.25046"
       style="stroke:#000000;stroke-width:1.8;stroke-miterlimit:4;stroke-dasharray:none"
       id="path16"
       inkscape:connector-curvature="0" />
  </g>
  <g
     inkscape:label="fill-232323"
     inkscape:groupmode="layer"
     id="fill-232323"
     transform="translate(71.284871,-159.24886)">
    <path
       d="m -44.327449,382.76218 0,50.31078 m 32,-71.9375 0,-10.10491 m 0,28.83062 0,24.85714 m 0,44.15972 0,-36.3342 m 32,-95.77253 0,15.5072 m 0,9.94976 0,-3.71729 m 0,6.22133 0,3.04191 m 0,13.62472 0,-13.51672 m 0,18.41164 0,11.32444 m 0,35.92763 0,-31.48556 m 0,43.42275 0,25.76411 m 0,8.50944 0,-8.34744 m 32,-161.39007 0,17.75506 m 0,5.84201 0,-5.73401 m 0,12.31797 0,18.57398 m 0,11.00271 0,-10.89471 m 0,13.74801 0,17.76003 m 0,17.75316 0,-13.53636 m 0,23.9054 0,8.29764 m 0,59.56915 0,-33.38106 m 32,-169.16224 0,4.34276 m 0,26.69384 0,-4.25677 m 0,6.0718 0,14.79666 m 0,32.55568 0,-22.47378 m 0,31.19702 0,2.79463 m 0,40.92791 0,-33.42976 m 0,36.47829 0,9.97948 m 0,9.93355 0,-7.22399 m 0,17.60891 0,42.34909 m 31.999999,-218.68638 0,-2.15577 m 0,9.36999 0,3.98843 m 0,11.07477 0,-7.45728 m 0,12.8592 0,4.97265 m 0,46.43148 0,-40.69731 m 0,46.18854 0,10.45944 m 0,7.69103 0,-4.71505 m 0,15.57981 0,11.99997 m 0,22.21108 0,-15.08888 m 0,31.41649 0,6.687 m 0,8.83689 0,-8.34035 m 0,12.07929 0,3.06021 m 0,10.83077 0,-8.88889 m 0,9.06233 0,24.45997 m 32,-237.70992 0,-1.7401 m 0,13.50744 0,0.4957 m 0,33.77314 0,-9.76738 m 0,20.65243 0,5.29167 m 0,27.33951 0,-1.77436 m 0,6.47899 0,13.72294 m 0,7.58121 0,-3.2862 m 0,5.81604 0,4.23393 m 0,25.0829 0,-2.30436 m 0,6.37907 0,4.92552 m 0,53.91114 0,-14.66099 m 0,17.19517 0,3.08945 m 0,24.10112 0,-19.77802 m 32,-275.07987 0,52.77863 m 0,14.31913 0,-3.35691 m 0,24.93398 0,23.81753 m 0,9.13826 0,-5.30614 m 0,22.99974 0,13.11231 m 0,6.90131 0,-3.41484 m 0,13.58201 0,22.40435 m 0,8.5058 0,-3.77345 m 0,5.57931 0,10.824 m 0,16.65334 0,-13.39565 m 0,45.69247 0,13.15746 m 0,4.51586 0,-2.73525 m 0,4.79331 0,14.99542 m 32,-271.19211 0,-42.76796 m 0,46.10782 0,17.89528 m 0,35.17065 0,-5.43933 m 0,5.55483 0,32.15694 m 0,7.49523 0,-4.48549 m 0,21.02125 0,11.93657 m 0,9.33504 0,-3.8318 m 0,5.65154 0,55.80335 m 0,8.08045 0,-2.16175 m 0,5.93118 0,18.59993 m 0,10.07348 0,-5.30136 m 0,8.01637 0,4.11509 m 0,30.99579 0,-27.68774 m 32,-252.68537 0,6.58706 m 0,18.86454 0,-1.92398 m 0,30.47494 0,4.60026 m 0,61.65096 0,-4.91523 m 0,16.62482 0,11.82736 m 0,6.65594 0,-3.31265 m 0,8.70687 0,1.98132 m 0,6.97664 0,-2.42309 m 0,17.80204 0,4.94315 m 0,13.12451 0,-9.66327 m 0,9.85446 0,4.33691 m 0,15.05799 0,-0.29597 m 0,6.1859 0,3.37888 m 0,18.23271 0,-3.53566 m 0,6.55551 0,7.39483 m 0,25.63157 0,-21.05547 m 32,-198.82874 0,18.5505 m 0,31.01228 0,-8.54201 m 0,15.42693 0,7.85494 m 0,21.01312 0,-1.33259 m 0,9.44967 0,4.77889 m 0,22.15092 0,-7.43943 m 0,16.54029 0,40.08478 m 0,15.89793 0,-5.74864 m 0,11.20584 0,3.66869 m 0,24.86251 0,-13.69308 m 32,-194.84504 0,14.03853 m 0,16.04111 0,-8.90712 m 0,15.17271 0,11.0407 m 0,5.2713 0,-5.1633 m 0,7.72869 0,9.54699 m 0,25.43524 0,-3.25092 m 0,17.22398 0,7.93862 m 0,25.67521 0,-14.74692 m 0,23.08752 0,1.70524 m 0,14.43729 0,-3.27052 m 0,8.56032 0,11.83479 m 0,8.36729 0,-3.89476 m 0,4.01413 0,15.96459 m 32,-195.91139 0,-6.56347 m 0,13.75586 0,29.01872 m 0,35.39543 0,-25.72865 m 0,28.6029 0,4.65342 m 0,35.0169 0,-2.18718 m 0,55.47076 0,22.5609 m 32,-151.43582 0,-12.89803 m 0,17.29743 0,26.23156 m 0,8.09874 0,-3.05386 m 0,14.0028 0,7.1888 m 0,32.54919 0,-5.15792 m 0,10.63197 0,3.20833 m 0,9.55246 0,-7.17534 m 0,13.23567 0,14.69223 m 0,21.42033 0,-21.22949 m 32,-110.03557 0,8.03153 m 0,12.04161 0,-7.02925 m 0,76.33235 0,10.73092 m 0,20.48892 0,-12.15367 m 32,-89.12282 0,0.36406 m 0,15.13197 0,-5.15873 m 0,11.55292 0,2.73387 m 0,24.84797 0,-6.6536 m 0,20.84784 0,20.49 m 32,-36.16792 0,-5.22611 m 0,10.88584 0,12.88549"
       style="stroke:#000000;stroke-width:1.8;stroke-miterlimit:4;stroke-dasharray:none"
       id="path19"
       inkscape:connector-curvature="0" />
  </g>
  <g
     inkscape:label="fill-2b2b2b"
     inkscape:groupmode="layer"
     id="fill-2b2b2b"
     transform="translate(71.284871,-159.24886)">
    <path
       d="m -42.838933,385.26525 0,49.12055 m 33,-77.0124 0,-6.7516 m 0,14.40271 0,7.08197 m 0,22.72894 0,-14.55212 m 0,17.11915 0,8.54289 m 0,44.10121 0,-41.22411 m 33,-96.16091 0,20.08324 m 0,10.42474 0,-6.45506 m 0,7.76849 0,28.77393 m 0,29.76514 0,-19.5674 m 0,21.17971 0,6.25421 m 0,22.37368 0,-9.8185 m 0,14.28958 0,22.66466 m 33,-168.21769 0,-10.87219 m 0,14.34054 0,37.40168 m 0,34.80893 0,-33.2531 m 0,40.03494 0,10.77218 m 0,13.91814 0,-1.06963 m 0,6.78591 0,1.99329 m 0,38.24858 0,-13.48284 m 0,14.95186 0,20.3926 m 33,-161.70866 0,-50.45395 m 0,61.00112 0,13.39612 m 0,25.24068 0,-22.363 m 0,25.32565 0,6.58697 m 0,21.89802 0,-18.49895 m 0,22.01386 0,21.2246 m 0,7.86735 0,-6.02205 m 0,8.77534 0,25.45067 m 0,26.56522 0,-22.62867 m 33.000003,-216.40285 0,8.09174 m 0,24.3527 0,-7.53926 m 0,15.82599 0,6.4336 m 0,31.28651 0,-22.82724 m 0,27.74551 0,4.21272 m 0,22.23353 0,-15.36599 m 0,17.69428 0,19.84669 m 0,9.93736 0,-3.99234 m 0,10.54939 0,26.16861 m 0,19.51337 0,-9.85242 m 0,12.45901 0,3.21017 m 0,21.15601 0,-19.63833 m 0,26.54117 0,13.52911 m 33,-211.65993 0,-14.1668 m 0,17.73019 0,3.55034 m 0,32.22297 0,-2.85403 m 0,21.45384 0,4.27035 m 0,13.67017 0,-2.36744 m 0,12.59752 0,2.67762 m 0,15.31085 0,-5.61445 m 0,23.82317 0,4.00762 m 0,35.23696 0,-5.19187 m 0,16.21281 0,21.89183 m 0,19.05435 0,-15.54943 m 33,-284.74569 0,13.67931 m 0,22.89154 0,-13.73622 m 0,31.50795 0,10.49889 m 0,7.92777 0,-4.92205 m 0,25.67355 0,6.5346 m 0,16.53335 0,-11.45963 m 0,33.02924 0,15.10595 m 0,6.95056 0,-4.37245 m 0,5.97974 0,31.68687 m 0,11.30154 0,-8.73988 m 0,14.16359 0,15.87417 m 0,15.5946 0,-11.61209 m 0,22.58685 0,1.35818 m 0,17.01038 0,-4.43496 m 0,7.65185 0,28.41442 m 33,-306.07909 0,-5.32134 m 0,6.74812 0,24.87716 m 0,16.68475 0,-13.26555 m 0,17.72739 0,6.01991 m 0,6.86368 0,-3.27391 m 0,26.56314 0,27.06019 m 0,11.29367 0,-9.00721 m 0,11.49243 0,8.42998 m 0,26.51882 0,-4.76973 m 0,12.73171 0,52.44442 m 0,5.35187 0,-1.86614 m 0,6.03828 0,14.07551 m 0,8.57348 0,-4.25538 m 0,21.28426 0,38.32613 m 33,-268.06473 0,-1.28547 m 0,8.31308 0,6.501 m 0,19.38493 0,-4.09289 m 0,6.23043 0,15.9682 m 0,24.20591 0,-16.99181 m 0,29.00094 0,7.71243 m 0,19.7138 0,-14.80517 m 0,16.31475 0,21.76118 m 0,49.24618 0,-35.0163 m 0,36.11548 0,4.06895 m 0,5.73542 0,-5.67665 m 0,16.24292 0,5.50353 m 0,7.39804 0,-3.35307 m 0,16.80141 0,14.79008 m 0,15.10537 0,-13.81959 m 33,-217.56132 0,8.68228 m 0,24.86337 0,-5.15964 m 0,8.29133 0,32.71539 m 0,14.72861 0,-2.96337 m 0,6.38938 0,4.32274 m 0,4.89222 0,-1.75184 m 0,4.46555 0,6.18413 m 0,6.75298 0,-4.51074 m 0,15.91285 0,24.1465 m 0,41.03256 0,-22.12085 m 0,34.20879 0,32.51327 m 33,-188.79042 0,-13.64421 m 0,17.3286 0,3.12085 m 0,20.30263 0,-15.20369 m 0,33.66984 0,6.09989 m 0,22.90242 0,-16.49698 m 0,21.93777 0,8.40452 m 0,18.31883 0,-12.934 m 0,55.58431 0,3.14896 m 0,6.55911 0,-3.13584 m 0,7.53548 0,18.51795 m 33,-186.15806 0,-1.55583 m 0,9.45568 0,12.61005 m 0,5.53666 0,-3.43854 m 0,5.87491 0,9.01775 m 0,10.66544 0,-2.33778 m 0,6.56071 0,5.93865 m 0,22.319 0,-19.45348 m 0,25.22673 0,1.20688 m 0,5.92203 0,-2.24934 m 0,12.13828 0,1.59102 m 0,17.81996 0,-14.69038 m 0,25.00781 0,1.54728 m 0,20.85211 0,-5.12921 m 0,8.33865 0,2.96391 m 0,18.82341 0,-15.90311 m 33,-128.05483 0,11.93741 m 0,20.64864 0,-6.4515 m 0,10.2872 0,12.16175 m 0,5.87496 0,-2.77402 m 0,13.13342 0,1.47082 m 0,29.11374 0,-20.16783 m 0,25.0813 0,9.21849 m 0,28.44114 0,-26.57134 m 33,-86.10498 0,1.89275 m 0,32.06272 0,-21.83646 m 0,59.41122 0,4.14821 m 0,22.21653 0,-13.23919 m 33,-68.83606 0,6.47247 m 0,7.83543 0,-3.18472 m 0,8.65798 0,13.34847 m 0,4.83177 0,-2.25501 m 0,11.38695 0,1.04379 m 0,18.12973 0,-14.16325"
       style="stroke:#000000;stroke-width:1.8;stroke-miterlimit:4;stroke-dasharray:none"
       id="path22"
       inkscape:connector-curvature="0" />
  </g>
  <g
     inkscape:label="fill-373737"
     inkscape:groupmode="layer"
     id="fill-373737"
     transform="translate(71.284871,-159.24886)">
    <path
       d="m -41.281776,384.62346 0,51.22552 m 34,-87.15451 0,-5.18779 m 0,6.51604 0,1.80074 m 0,19.30172 0,-5.45733 m 0,16.6257 0,69.53381 m 34,-124.09815 0,-17.20824 m 0,26.52302 0,15.72841 m 0,40.7267 0,-40.61508 m 0,49.69352 0,10.21782 m 0,48.47224 0,-40.26951 m 34,-139.84631 0,24.63922 m 0,12.25398 0,-12.17956 m 0,16.56318 0,60.54423 m 0,33.56172 0,-16.95684 m 0,19.71191 0,18.44016 m 0,30.48578 0,-26.54707 m 34,-193.37964 0,16.4565 m 0,31.59344 0,-27.86519 m 0,37.4533 0,44.72314 m 0,32.03543 0,-23.30517 m 0,33.48231 0,20.9979 m 0,27.20734 0,-25.74558 m 0,30.9593 0,27.91078 m 33.999996,-234.64856 0,-18.13547 m 0,26.28711 0,13.33109 m 0,20.95791 0,-18.35453 m 0,26.19469 0,83.51827 m 0,23.30563 0,-19.70288 m 0,54.69679 0,45.1461 m 34,-210.25351 0,-48.60683 m 0,54.96364 0,6.12056 m 0,11.59668 0,-8.57537 m 0,13.31832 0,16.58605 m 0,12.65652 0,-1.78627 m 0,5.55101 0,3.64491 m 0,19.97948 0,-9.82864 m 0,11.15997 0,6.67699 m 0,70.42826 0,-67.3043 m 0,73.7901 0,42.19361 m 34,-276.58929 0,-31.70272 m 0,34.32592 0,4.84332 m 0,50.64229 0,-48.66437 m 0,60.09323 0,14.16138 m 0,10.15064 0,-7.17925 m 0,10.19037 0,43.04511 m 0,8.78713 0,-2.30785 m 0,17.93827 0,10.02603 m 0,9.01244 0,-5.54717 m 0,8.9157 0,25.89419 m 0,22.82136 0,-7.44029 m 0,10.72145 0,12.70583 m 0,26.80821 0,-21.74178 m 34,-280.59076 0,21.41131 m 0,13.4055 0,-2.58838 m 0,4.82698 0,12.62931 m 0,10.7435 0,-1.34704 m 0,6.58695 0,4.2612 m 0,18.24243 0,-15.60111 m 0,18.04317 0,58.69632 m 0,9.30446 0,-0.66308 m 0,4.35466 0,27.77485 m 0,8.35357 0,-8.1184 m 0,9.3463 0,6.75688 m 0,19.57647 0,-16.86615 m 0,51.22067 0,6.95671 m 0,35.6765 0,-31.65922 m 34,-232.88834 0,3.61375 m 0,28.32316 0,-11.2202 m 0,19.42496 0,39.82121 m 0,4.55315 0,-2.95185 m 0,24.54115 0,1.73559 m 0,12.11819 0,-4.83787 m 0,7.52377 0,56.1094 m 0,15.43051 0,-15.12107 m 0,16.33901 0,23.57226 m 0,6.23945 0,-4.03188 m 0,6.78241 0,7.44459 m 0,26.65895 0,-22.55043 m 34,-194.0271 0,5.89824 m 0,12.97704 0,-10.64798 m 0,13.04851 0,15.05235 m 0,15.26509 0,-4.81853 m 0,5.24406 0,7.57715 m 0,7.47721 0,-2.48385 m 0,24.02147 0,6.21413 m 0,9.52762 0,-8.91574 m 0,12.55293 0,9.91088 m 0,17.59307 0,-11.25973 m 0,16.89355 0,1.85664 m 0,26.71106 0,-22.15495 m 0,36.83741 0,3.43487 m 0,26.59715 0,-21.86459 m 34,-183.64191 0,35.64776 m 0,12.05268 0,-7.05541 m 0,9.42222 0,5.29106 m 0,17.15281 0,-9.67724 m 0,22.75355 0,2.62872 m 0,9.3979 0,-6.24608 m 0,9.62131 0,19.20067 m 0,56.42304 0,-19.85164 m 0,22.78366 0,21.03835 m 34,-126.82015 0,-48.06465 m 0,51.33142 0,8.0463 m 0,11.0647 0,-5.27227 m 0,7.74171 0,23.14479 m 0,29.48288 0,-17.74244 m 0,19.89882 0,43.7611 m 34,-123.81096 0,-14.60655 m 0,32.68007 0,6.53781 m 0,57.36483 0,-9.65816 m 0,12.19615 0,6.35917 m 0,21.93293 0,-17.63103 m 34,-87.47017 0,8.18507 m 0,10.67497 0,-6.77138 m 0,11.22941 0,30.91834 m 0,33.08106 0,-26.53087 m 34,-34.75146 0,4.35658 m 0,4.66022 0,-1.47565 m 0,9.82719 0,25.15365"
       style="stroke:#000000;stroke-width:1.8;stroke-miterlimit:4;stroke-dasharray:none"
       id="path25"
       inkscape:connector-curvature="0" />
  </g>
  <g
     inkscape:label="fill-474747"
     inkscape:groupmode="layer"
     id="fill-474747"
     transform="translate(71.284871,-159.24886)">
    <path
       d="m -39.929251,369.65692 0,15.66272 m 0,51.88946 0,-50.83833 m 35,-44.95842 0,17.03241 m 0,11.73609 0,-6.28781 m 0,17.31996 0,71.92082 m 35,-144.79712 0,-0.87515 m 0,2.22566 0,15.51428 m 0,70.11012 0,-65.08806 m 0,71.25079 0,27.88369 m 0,33.00107 0,-31.52697 m 35,-152.50565 0,6.64719 m 0,12.23838 0,-10.75768 m 0,13.14576 0,16.99184 m 0,75.55662 0,-72.18411 m 0,78.46395 0,8.56402 m 0,33.84052 0,-25.22115 m 0,32.11337 0,21.72374 m 35.000001,-209.37197 0,-10.42423 m 0,11.86416 0,95.60716 m 0,6.98412 0,-3.73671 m 0,6.20579 0,5.67488 m 0,21.87868 0,-19.75559 m 0,26.34772 0,6.17274 m 0,68.36053 0,-64.70299 m 35,-182.0283 0,6.23502 m 0,46.77886 0,-36.04927 m 0,37.94998 0,94.11846 m 0,16.56414 0,-14.49146 m 0,33.86057 0,19.3254 m 0,45.3505 0,-41.36076 m 35,-242.43869 0,18.39845 m 0,51.85911 0,-48.21784 m 0,52.58814 0,40.68038 m 0,14.17315 0,-12.15276 m 0,13.8947 0,52.39354 m 0,101.70857 0,-100.02113 m 35,-217.28314 0,45.67378 m 0,95.64486 0,-93.1137 m 0,95.08737 0,175.24231 m 35,-275.63559 0,-15.44386 m 0,18.81938 0,5.8554 m 0,8.53922 0,-7.02357 m 0,10.3079 0,10.47328 m 0,36.42776 0,-33.70475 m 0,51.06725 0,12.43001 m 0,15.55665 0,-7.08681 m 0,15.49102 0,4.81134 m 0,29.75973 0,-26.30899 m 0,30.34219 0,8.48436 m 0,28.00087 0,-21.58063 m 0,29.19962 0,2.06051 m 0,8.6376 0,-7.11652 m 0,23.37244 0,8.33073 m 0,35.16654 0,-34.19126 m 35,-230.82253 0,7.55432 m 0,11.70737 0,-5.05458 m 0,17.80389 0,5.19433 m 0,28.23763 0,-23.69227 m 0,28.15368 0,39.88558 m 0,33.84897 0,-24.36637 m 0,30.69563 0,17.11833 m 0,47.89365 0,-42.77112 m 0,43.87772 0,3.82698 m 0,10.99293 0,-8.15087 m 0,9.65589 0,7.82147 m 0,3.8826 0,-2.09761 m 0,7.51979 0,14.84393 m 35,-171.17352 0,-44.21726 m 0,46.58018 0,27.32675 m 0,25.66223 0,-11.73967 m 0,20.77894 0,12.56665 m 0,23.09927 0,-18.87378 m 0,26.67105 0,7.51354 m 0,7.9234 0,-4.69167 m 0,6.42404 0,41.50356 m 35,-193.04804 0,-6.91671 m 0,8.61977 0,39.71924 m 0,10.27563 0,-6.59989 m 0,7.28994 0,5.2378 m 0,22.94863 0,-20.04164 m 0,25.81786 0,3.53009 m 0,13.63758 0,-7.69547 m 0,11.62297 0,8.58044 m 0,11.65132 0,-6.31196 m 0,21.0811 0,3.26634 m 0,14.85317 0,-14.32967 m 0,19.70802 0,23.15632 m 35,-82.64255 0,-79.55932 m 0,86.47508 0,1.61123 m 0,8.69203 0,-6.04541 m 0,7.16091 0,5.88044 m 0,9.67707 0,-8.99025 m 0,11.88772 0,39.55376 m 35,-110.73835 0,-4.46551 m 0,9.73288 0,23.07075 m 0,11.8958 0,-9.62997 m 0,21.39839 0,2.82984 m 0,17.61153 0,-4.56261 m 0,6.94011 0,5.041 m 0,17.4358 0,-14.6775 m 35,-75.54344 0,37.97563 m 0,11.01694 0,-9.2331 m 0,10.93609 0,24.07643"
       style="stroke:#000000;stroke-width:1.8;stroke-miterlimit:4;stroke-dasharray:none"
       id="path28"
       inkscape:connector-curvature="0" />
  </g>
  <g
     inkscape:label="fill-575757"
     inkscape:groupmode="layer"
     id="fill-575757"
     transform="translate(71.284871,-159.24886)">
    <path
       d="m -39.492171,368.63292 0,69.40837 m 36,-79.98969 0,-18.99417 m 0,21.91842 0,18.2832 m 0,74.56408 0,-71.2539 m 36,-78.15366 0,92.37978 m 0,66.61196 0,-63.53728 m 36,-131.17706 0,135.1225 m 0,67.1673 0,-65.36122 m 36.000001,-160.48507 0,59.9171 m 0,9.3246 0,-5.7671 m 0,6.66716 0,59.12502 m 0,19.50559 0,-18.32002 m 0,22.94524 0,4.46119 m 0,72.73224 0,-63.58095 m 36,-187.90549 0,6.83298 m 0,35.95484 0,-32.26591 m 0,33.37514 0,43.06737 m 0,42.79351 0,-40.42177 m 0,41.91817 0,47.76051 m 0,75.34781 0,-68.82018 m 36,-227.40969 0,59.58393 m 0,66.52256 0,-64.85459 m 0,69.9535 0,0.95396 m 0,30.08733 0,-24.25825 m 0,25.28587 0,65.72985 m 0,13.43114 0,-10.15324 m 0,12.78298 0,52.79506 m 36,-249.3801 0,-66.22491 m 0,67.91611 0,14.2933 m 0,59.30671 0,-53.24911 m 0,53.73678 0,9.53659 m 0,163.28157 0,-160.63017 m 36,-118.86737 0,16.98475 m 0,9.07146 0,-6.24852 m 0,34.8158 0,9.03484 m 0,82.73405 0,-64.59324 m 0,65.55586 0,61.97379 m 0,70.73035 0,-68.4518 m 36,-187.41151 0,11.31692 m 0,19.83797 0,-7.61022 m 0,10.86533 0,5.49121 m 0,56.14554 0,-49.42589 m 0,51.97804 0,10.06448 m 0,27.93181 0,-25.49221 m 0,27.77878 0,30.81178 m 0,8.07647 0,-3.324 m 0,6.58442 0,34.04676 m 0,41.59861 0,-35.94986 m 36,-187.81341 0,44.18422 m 0,25.12518 0,-24.44864 m 0,30.54975 0,12.93105 m 0,58.48472 0,-57.29915 m 0,62.30624 0,8.29408 m 0,28.40733 0,-6.15695 m 0,7.18407 0,5.77867 m 0,22.37541 0,-20.60185 m 36,-166.00839 0,0.76151 m 0,49.9823 0,-44.93736 m 0,50.70466 0,70.89637 m 0,6.86596 0,-5.35579 m 0,14.09487 0,20.3107 m 0,17.7353 0,-15.95776 m 36,-133.29947 0,48.61568 m 0,13.10877 0,-9.75796 m 0,14.48413 0,10.50555 m 0,5.02473 0,-3.47254 m 0,5.84548 0,56.438 m 36,-83.4029 0,-24.16122 m 0,40.4656 0,47.68301 m 36,-53.26751 0,-15.86002 m 0,18.82838 0,10.37668 m 0,24.34424 0,-17.07835"
       style="stroke:#000000;stroke-width:1.8;stroke-miterlimit:4;stroke-dasharray:none"
       id="path31"
       inkscape:connector-curvature="0" />
  </g>
  <g
     inkscape:label="fill-676767"
     inkscape:groupmode="layer"
     id="fill-676767"
     transform="translate(71.284871,-159.24886)">
    <path
       d="m -37.396299,367.01452 0,8.42178 m 0,63.51221 0,-61.59537 m 38,-45.4414 0,123.18777 m 38,9.94558 0,-167.18625 m 38,-36.66552 0,123.55343 m 0,6.40922 0,-3.43986 m 0,15.35937 0,68.79836 m 37.999999,-90.02209 0,-135.70462 m 0,138.52479 0,92.06068 m 38,-238.30606 0,-37.90765 m 0,40.7278 0,40.55067 m 0,34.58858 0,-18.83199 m 0,24.40168 0,6.63928 m 0,5.01674 0,-4.64263 m 0,6.12195 0,34.13926 m 0,26.66341 0,-12.75526 m 0,29.92348 0,66.30738 m 38,-220.92917 0,-85.98926 m 0,90.11551 0,156.60608 m 0,61.88151 0,-55.7511 m 38,-252.16479 0,2.21288 m 0,47.39554 0,-44.20334 m 0,44.64601 0,185.33791 m 0,16.30684 0,-8.25861 m 0,9.51228 0,56.3159 m 38,-259.0476 0,-16.06513 m 0,29.24991 0,15.64959 m 0,48.98848 0,-45.50952 m 0,48.12699 0,13.82026 m 0,8.79173 0,-4.48988 m 0,6.45163 0,66.62787 m 0,58.01971 0,-55.7212 m 0,59.54726 0,6.16539 m 0,16.99801 0,-15.77003 m 38,-218.43514 0,9.15468 m 0,93.66234 0,-90.9163 m 0,95.6017 0,37.88806 m 0,85.65426 0,-84.94376 m 38,-120.86361 0,53.10348 m 0,40.15012 0,-37.84547 m 0,41.12849 0,4.40018 m 0,12.80977 0,-11.11944 m 0,13.33759 0,9.65438 m 0,75.39155 0,-56.83256 m 38,-107.09552 0,114.43122 m 0,42.28729 0,-40.60911 m 38,-77.79479 0,48.65115 m 0,32.02382 0,-15.56522 m 0,16.20855 0,21.41938 m 38,-66.75768 0,-14.63081 m 0,17.26229 0,10.09526 m 0,35.46509 0,-32.91729"
       style="stroke:#000000;stroke-width:1.8;stroke-miterlimit:4;stroke-dasharray:none"
       id="path34"
       inkscape:connector-curvature="0" />
  </g>
  <g
     inkscape:label="fill-777777"
     inkscape:groupmode="layer"
     id="fill-777777"
     transform="translate(71.284871,-159.24886)">
    <path
       d="m -34.984339,365.13601 0,75.73577 m 39,15.73279 0,-127.85853 m 39,-36.68157 0,108.71737 m 0,65.82612 0,-63.74778 m 39,-144.51726 0,17.81902 m 0,197.56963 0,-189.96384 m 38.999999,-52.25508 0,245.5962 m 39,-263.18557 0,-5.21951 m 0,6.23686 0,265.06532 m 39,-116.85963 0,-198.20476 m 0,201.77591 0,115.40872 m 39,-103.09399 0,-198.41931 m 0,200.21401 0,24.90369 m 0,37.04471 0,-36.18312 m 0,39.22445 0,35.27565 m 39,-257.91865 0,-8.37496 m 0,14.68432 0,7.79519 m 0,17.08631 0,-7.59184 m 0,9.71422 0,70.67663 m 0,153.59312 0,-151.07768 m 39,-71.9447 0,8.61913 m 0,7.42872 0,-4.18827 m 0,7.11347 0,50.21965 m 0,30.55043 0,-28.82994 m 0,32.815 0,45.35648 m 0,15.96927 0,-4.24837 m 0,7.006 0,4.3206 m 0,44.83842 0,-39.73186 m 39,-151.2336 0,7.60945 m 0,136.31387 0,-133.86791 m 0,135.34889 0,40.52552 m 39,-8.87893 0,-140.00627 m 39,29.59958 0,91.95002 m 39,-23.47134 0,-37.55538"
       style="stroke:#000000;stroke-width:1.8;stroke-miterlimit:4;stroke-dasharray:none"
       id="path37"
       inkscape:connector-curvature="0" />
  </g>
  <g
     inkscape:label="fill-868686"
     inkscape:groupmode="layer"
     id="fill-868686"
     transform="translate(71.284871,-159.24886)">
    <path
       d="m -33.853079,356.2671 0,85.55321 m 40,15.73162 0,-130.74449 m 40,-38.51071 0,106.80775 m 0,72.54806 0,-71.08235 m 40,-141.7378 0,219.71851 m 39.999999,-66.23992 0,-186.33134 m 0,193.68781 0,62.10852 m 40,2.49131 0,-283.44369 m 40,-35.68229 0,320.60311 m 40,-250.66181 0,-43.15459 m 0,47.11861 0,35.34473 m 0,210.39217 0,-204.10344 m 40,-54.10179 0,138.95814 m 0,78.75441 0,-78.11354 m 0,82.31436 0,37.01142 m 40,-69.14361 0,-155.7433 m 0,161.00811 0,56.06057 m 40,-74.53181 0,-105.18612 m 0,107.53366 0,67.98772 m 40,-91.03101 0,-49.22063 m 0,51.15374 0,40.55825 m 0,36.50912 0,-33.59405 m 40,-66.2479 0,41.65033 m 0,37.98411 0,-37.62879"
       style="stroke:#000000;stroke-width:1.8;stroke-miterlimit:4;stroke-dasharray:none"
       id="path40"
       inkscape:connector-curvature="0" />
  </g>
  <g
     inkscape:label="fill-969696"
     inkscape:groupmode="layer"
     id="fill-969696"
     transform="translate(71.284871,-159.24886)">
    <path
       d="m -32.076136,353.00121 0,90.11768 m 41,15.72901 0,-135.02971 m 41,-40.39818 0,185.007 m 41,7.12566 0,-226.55218 m 40.999996,-31.78911 0,20.25687 m 0,241.37467 0,-239.3865 m 41,-55.75383 0,297.23759 m 41,0.54453 0,-318.37765 m 41,33.20428 0,284.53377 m 41,-131.7051 0,-119.80027 m 0,121.37545 0,127.59179 m 41,-76.22026 0,-137.04542 m 0,149.35024 0,59.11419 m 41,-6.94628 0,-161.98528 m 41,37.85229 0,57.97871 m 0,49.59582 0,-47.74786 m 41,-35.7232 0,62.91786"
       style="stroke:#000000;stroke-width:1.8;stroke-miterlimit:4;stroke-dasharray:none"
       id="path43"
       inkscape:connector-curvature="0" />
  </g>
  <g
     inkscape:label="fill-adadad"
     inkscape:groupmode="layer"
     id="fill-adadad"
     transform="translate(71.284871,-159.24886)">
    <path
       d="m -29.222743,349.22287 0,95.66308 m 43,15.8857 0,-142.72714 m 43,-40.63655 0,192.24262 m 43,7.21363 0,-235.09327 m 43.000003,-34.75288 0,273.12435 m 43,1.96677 0,-308.91499 m 43,-1.85303 0,312.16602 m 43,-1.62705 0,-273.09981 m 43,35.5726 0,232.32707 m 43,-5.65383 0,-185.1965 m 43,40.72978 0,133.04781 m 43,-20.7056 0,-86.47684"
       style="stroke:#000000;stroke-width:1.8;stroke-miterlimit:4;stroke-dasharray:none"
       id="path46"
       inkscape:connector-curvature="0" />
  </g>
  <g
     inkscape:label="fill-d0d0d0"
     inkscape:groupmode="layer"
     id="fill-d0d0d0"
     transform="translate(71.284871,-159.24886)">
    <path
       d="m -70.684871,383.51303 0,5.58309 m 46,58.8063 0,-102.79848 m 46,-34.9579 0,153.41529 m 46,9.726 0,-206.62583 m 46.000001,-38.68641 0,251.02139 m 46,2.7062 0,-289.64447 m 46,-32.20935 0,324.21434 m 46,-1.1302 0,-292.43848 m 46,36.61372 0,253.07543 m 46,-5.75856 0,-205.51607 m 46,42.58204 0,152.85546 m 46,-19.53599 0,-99.24727"
       style="stroke:#000000;stroke-width:1.8;stroke-miterlimit:4;stroke-dasharray:none"
       id="path49"
       inkscape:connector-curvature="0" />
  </g>
</svg>
