<?xml version="1.0" encoding="UTF-8" standalone="no"?>
<!-- Created with Inkscape (http://www.inkscape.org/) -->

<svg
   xmlns:dc="http://purl.org/dc/elements/1.1/"
   xmlns:cc="http://creativecommons.org/ns#"
   xmlns:rdf="http://www.w3.org/1999/02/22-rdf-syntax-ns#"
   xmlns:svg="http://www.w3.org/2000/svg"
   xmlns="http://www.w3.org/2000/svg"
   xmlns:sodipodi="http://sodipodi.sourceforge.net/DTD/sodipodi-0.dtd"
   xmlns:inkscape="http://www.inkscape.org/namespaces/inkscape"
   id="svg4263"
   height="7502.1445"
   width="9974.5176"
   version="1.1"
   inkscape:version="0.48.4 r9939"
   sodipodi:docname="criss-cross-background_hatched.svg">
  <defs
     id="defs20" />
  <sodipodi:namedview
     pagecolor="#ffffff"
     bordercolor="#666666"
     borderopacity="1"
     objecttolerance="10"
     gridtolerance="10"
     guidetolerance="10"
     inkscape:pageopacity="0"
     inkscape:pageshadow="2"
     inkscape:window-width="1276"
     inkscape:window-height="775"
     id="namedview18"
     showgrid="false"
     fit-margin-top="0"
     fit-margin-left="0"
     fit-margin-right="0"
     fit-margin-bottom="0"
     inkscape:zoom="0.22425739"
     inkscape:cx="31.671152"
     inkscape:cy="524.25365"
     inkscape:window-x="0"
     inkscape:window-y="21"
     inkscape:window-maximized="1"
     inkscape:current-layer="svg4263" />
  <metadata
     id="metadata4268">
    <rdf:RDF>
      <cc:Work
         rdf:about="">
        <dc:format>image/svg+xml</dc:format>
        <dc:type
           rdf:resource="http://purl.org/dc/dcmitype/StillImage" />
        <dc:title />
      </cc:Work>
    </rdf:RDF>
  </metadata>
  <g
     id="fill-1c1c1c"
     transform="matrix(9.9998296,0,0,9.9998296,-3380.8799,-3029.005)">
    <path
       id="path7"
       d="m 339.99,871.97 v 105.51 m 0,7.19 v -3.3293 m 0,7.7 v 3.5616 m 0,31.9 v -30.029 m 0,36.13 v 14.183 m 0,7.9 v -0.3679 m 14,-185.16005 v 110.88 m 0,56.08005 v -46.43705 m 0,48.94005 v 9.6723 m 0,6.8 v -0.1589 m 14,-191.24003 v 110.52 m 0,12.4 v -11.036 m 0,20.86 v 13.61003 m 0,7.3 v -1.8255 m 0,5.8 v 4.243 m 0,12.7 v -6.9921 m 0,11.3 v 6.311 m 14,-82.63003 v -107.99 m 0,110.37 v 11.608 m 0,13.82 v -10.562 m 0,22.58003 v 2.9757 m 0,29.5 v -6.7895 m 0,9.6 v 5.2231 m 0,8.3 v -0.4971 m 14,-201.63004 v 93.882 m 0,25.8 v -22.893 m 0,33.55 v 2.3003 m 0,22.79004 v -1.5962 m 0,15.6 v 4.3104 m 0,24.2 v -4.5496 m 14,-198.97004 v 85.818 m 0,15.79 v -14.78 m 0,19.13 v 5.7883 m 0,12.71 v -2.1519 m 0,41.86004 v 3.6366 m 0,23.7 v -3.1234 m 0,19 v 0.2004 m 14,-154.35997 v -57.551 m 0,60.28 v 23.582 m 0,8.64 v -2.1649 m 0,5.41 v 3.8523 m 0,10.33 v -8.8945 m 0,16.6 v 6.1546 m 0,38.31997 v -4.62737 m 0,6.22997 v 2.0361 m 0,17.6 v -1.4939 m 0,25.6 v 4.6836 m 14,-161.26997 v -50.83 m 0,61.34 v 15.646 m 0,23.32 v -7.0299 m 0,8.63 v 12.19 m 0,36.75 v -3.6849 m 0,9.18 v 1.7167 m 0,6.32997 v -0.7778 m 0,7 v 2.6306 m 0,39 v -1.512 m 14,-210.67999 v 51.951 m 0,18.97 v -10.874 m 0,12.19 v 2.9669 m 0,30.8 v -10.298 m 0,18.16 v 2.8675 m 0,2.68 v -0.37984 m 0,17.92 v 2.2712 m 0,72.85003 v -0.7398 m 14,-211.36995 v 35.95 m 0,9.64 v -8.5726 m 0,14.79 v 3.7484 m 0,13.3 v -7.2471 m 0,35.06 v 3.8108 m 0,16.51 v -3.2166 m 0,11.67 v 3.2467 m 0,20.5 v -2.0518 m 0,24.22995 v 1.6164 m 0,30.5 v -5.4187 m 14,-198.04995 v 28.628 m 0,10.81 v -6.464 m 0,10.27 v 3.5073 m 0,22.9 v -5.509 m 0,31.29 v 4.2179 m 0,18.79 v -4.8736 m 0,21.56 v 2.5064 m 14,-108.3 v -29.341 m 0,32.09 v 9.3163 m 0,32.62 v -0.69598 m 0,24.08 v 2.0203 m 0,8.99 v -5.2653 m 0,43.73 v 1.4153 m 0,18.34003 v -2.8122 m 0,6.5 v 4.1241 m 0,31.2 v -4.9237 m 14,-200.72003 v 41.688 m 0,56.07 v -4.2408 m 0,19.35 v 1.2743 m 0,51.18003 v -2.8849 m 14,-162.37003 v 24.826 m 0,16.82 v -8.7767 m 0,34.78 v 2.6551 m 0,30.66 v -3.6963 m 0,66.30003 v 1.6235 m 0,44.7 v -3.9869 m 14,-205.82003 v 24.275 m 0,20.05 v -13.694 m 0,39.91 v 3.6589 m 0,36.93 v -2.3416 m 0,82.82003 v 1.4835 m 14,-177.25003 v -15.831 m 0,17.86 v 8.057 m 0,17.51 v -10.91 m 0,28.65 v 3.2204 m 0,112.69003 v -3.9831 m 14,-173.03003 v 28.928 m 0,12.71 v -4.461 m 0,13.02 v 1.681 m 0,16.41 v -3.3984 m 0,93.04 v 2.63173 m 14,-141.27003 v -19.141 m 0,27.46 v 1.1927 m 0,14.18 v -5.4379 m 0,54.36 v 1.8314 m 0,4.62 v -1.7884 m 0,44.93 v 2.5626 m 14,-133.2 v -10.546 m 0,15.48 v 2.7562 m 0,13.63 v -4.6629 m 0,71.58 v 0.82198 m 0,28.6 v -3.2774 m 14,-124.78 v 9.3192 m 0,102.17 v -2.7234 m 0,38.49 v 1.7379 m 14,-140 v -8.7124 m 0,19.53 v 1.5117 m 0,14.28 v -2.4247 m 0,59.05 v 3.5356 m 0,27.46 v -2.3969 m 0,27.01 v 0.63138 m 0,59.82997 v -1.5324 m 14,-206.11997 v 8.6422 m 0,5.79 v -1.1783 m 0,7.83 v 1.9069 m 0,15.81 v -3.4171 m 0,40.08 v 1.5285 m 0,103.92997 v -1.2101 m 14,-178.02997 v 12.614 m 0,10.07 v -3.1344 m 0,93.67 v 3.4515 m 14,-103.09 v -14.844 m 0,17.23 v 3.8859 m 0,76.71 v -2.6399 m 0,12.8 v 7.3279 m 14,-109.56 v -4.298 m 0,7.47 v 1.9701 m 0,18.55 v -1.9196 m 0,80.11 v 6.3537 m 14,-109.36 v -2.8229 m 0,7.44 v 4.4762 m 0,74.77 v -2.0286 m 0,22.39 v 0.331 m 0,84.29997 v -7.6479 m 0,23.9 v 0.4545 m 14,-206.33995 v -4.2499 m 0,64.81 v 3.0384 m 0,91.73995 v -5.02865 m 0,45.32995 v 0.6699 m 14,-195.63995 v -5.0278 m 0,14.97 v 7.169 m 0,119.29 v -21.749 m 0,72.68995 v 10.162 m 14,-198.00995 v -4.4093 m 0,16.99 v 3.4031 m 0,75.21 v -5.8228 m 0,43.1 v 2.8671 m 14,-133.1 v -2.109 m 0,55.49 v 9.006 m 0,145.57995 v -8.9654 m 14,-177.61995 v 8.3808 m 0,124.5 v -2.4748 m 14,-153.81 v 0.82802 m 0,36.58 v -4.5695 m 0,63.75 v 5.4098 m 14,-98.98 v -0.8262 m 0,16.05 v 3.6034 m 0,25.99 v -4.8494 m 0,109.31 v 1.7752 m 0,10.75003 v -4.2884 m 0,48.6 v 0.8104 m 14,-205.35001 v -5.2298 m 0,20.7 v 0.36847 m 0,59.06 v -14.339 m 0,40.12 v 2.8121 m 0,101.96004 v -1.4227 m 14,-209.22004 v 5.1268 m 0,125.97 v -4.9168 m 0,14.18 v 10.632 m 0,3.72 v -0.28477 m 0,4.99001 v 2.7224 m 14,-156.53001 v -5.4682 m 0,106.82 v 2.6993 m 0,18.54 v -2.1589 m 14,-125.94 v 210.06001 m 14,-186.09001 v -24.181 m 0,36.18 v 3.8187 m 0,34.11 v -11.068 m 0,30.89 v 22.536 m 0,11.93 v -6.7546 m 0,15.41 v 5.2439 m 0,13.04 v -2.2472 m 14,-153.21 v 13.835 m 0,33.91 v -7.3185 m 0,19.4 v 13.371 m 0,43.24 v -25.459 m 0,40.96 v 3.5483 m 0,46.41001 v -43.69801 m 14,-137.61 v 17.054 m 0,30.95 v -13.82 m 0,16.61 v 2.7032 m 0,62.13 v -56.744 m 0,60.61 v 1.8178 m 0,5.88 v -2.5516 m 0,21.08 v 2.7808 m 0,15.61001 v -1.807 m 0,8.5 v 1.8321 m 0,27.7 v -1.8629 m 14,-198.50001 v 5.7189 m 0,12.08 v -5.5457 m 0,25.05 v 40.584 m 0,32.43 v -29.581 m 0,43.78 v 2.8821 m 0,54.11001 v -35.94101 m 0,47.54001 v 11.325 m 14,-179.59001 v -24.889 m 0,33.9 v 40.993 m 0,42.37 v -25.834 m 0,40.62 v 3.1808 m 0,7.43 v -4.8779 m 0,7.54 v 13.44401 m 0,6.6 v -4.281 m 0,8.3 v 14.81 m 0,17.6 v -12.58 m 14,-189.26001 v 49.307 m 0,38.95 v -38.033 m 0,38.84 v 27.371 m 0,69.22001 v -48.13401 m 0,51.03001 v 6.8018 m 0,6.8 v -3.9907 m 14,-198.25001 v 29.389 m 0,7.31 v -4.1955 m 0,7.52 v 9.3035 m 0,30.11 v -27.599 m 0,42.76 v 4.3486 m 0,30.68 v -28.347 m 0,37.6 v 11.066 m 0,16.21001 v -11.52801 m 0,15.83001 v 1.7697 m 0,29.5 v -3.4592 m 14,-198.25001 v 6.9497 m 0,18.44 v -13.065 m 0,23.15 v 22.95 m 0,19.78 v -15.399 m 0,23.62 v 28.792 m 0,13.32 v -2.1981 m 0,14.4 v 4.4022 m 0,5.42 v -2.2303 m 0,4.21 v 15.91201 m 0,7.4 v -6.6308 m 0,11 v 1.8532 m 0,19.4 v -1.9499 m 0,10.3 v 0.4652 m 14,-205.29004 v -5.1565 m 0,11.69 v 12.443 m 0,31.25 v -22.275 m 0,34.24 v 17.216 m 0,31.47 v -14.467 m 0,20.13 v 14.077 m 0,14.97 v -6.0161 m 0,8.58 v 12.32404 m 0,42.8 v -10.718 m 14,-197.74004 v 6.4631 m 0,14.85 v -10.188 m 0,23.58 v 19.39 m 0,24.98 v -16.503 m 0,34.1 v 19.776 m 0,5.07 v -1.7769 m 0,28.05 v 1.6682 m 0,19.18004 v -13.35704 m 0,22.96004 v 3.3472 m 14,-174.00004 v -7.5431 m 0,9.39 v 8.3125 m 0,7.11 v -2.3005 m 0,3.99 v 15.678 m 0,7.25 v -2.3812 m 0,5.85 v 8.5642 m 0,18.37 v -11.172 m 0,16.54 v 25.925 m 0,28.87 v -14.539 m 0,26.62 v 2.4389 m 0,48.53004 v -13.592 M 1012,842.35906 v 17.213 m 0,25.57 v -17.293 m 0,22.87 v 6.7559 m 0,27.58 v -5.838 m 0,27.47 v 13.908 m 0,45.70004 v -2.4919 m 0,18.9 v 0.6397 m 0,11.9 v -1.9472 m 0,8.7 v 1.8181 m 14,-173.63996 v -27.798 m 0,29.23 v 19.846 m 0,90.93 v -3.1587 m 0,47.98996 v 9.4017 m 14,-166.30996 v -27.926 m 0,33.66 v 9.0357 m 0,81.21 v -6.1308 m 0,43.55996 v 2.4674 m 14,-122.52996 v -41.304 m 0,79.17 v 1.2484 m 0,41.16 v -0.74058 m 14,-120.84 v 10.413 m 0,13.73 v -7.4999 m 0,15.1 v 8.3006 m 0,12.94 v -1.6586 m 0,42.04 v 4.5534 m 0,28.73 v -1.87 m 0,34.16004 v 7.4526 m 0,42.9 v -3.1334 m 14,-206.22004 v 8.0459 m 0,15.43 v -9.0805 m 0,17.44 v 2.6193 m 0,21.96 v -10.854 m 0,16.8 v 3.6045 m 0,40.11 v -3.6198 m 0,4.27 v 8.0399 m 0,33.02 v -6.7999 m 0,38.83004 v 2.204 m 14,-172.31004 v -9.69 m 0,13.58 v 7.0356 m 0,11.86 v -4.5444 m 0,8.65 v 26.627 m 0,15.88 v -3.2139 m 0,21.27 v 6.6018 m 0,26.45 v -4.0587 m 14,-126.13 v 24.81 m 0,23.26 v -15.386 m 0,19.69 v 8.7724 m 0,86.32 v -5.6943 m 14,-141.75 v 16.635 m 0,10.55 v -2.6316 m 0,6.82 v 22.432 m 0,55.48 v -7.9699 m 0,57.14004 v 4.8195 m 14,-136.21004 v -27.03 m 0,32 v 11.942 m 0,8.95 v -6.5661 m 0,50.36 v 3.0179 m 0,49.79 v -5.6205 m 0,31.07004 v 4.2846 m 14,-131.41004 v -47.808 m 0,57.11 v 2.3982 m 0,14.41 v -1.0253 m 0,28.95 v 1.9931 m 0,8.52 v -6.0391 m 0,53.71004 v 4.5545 m 0,31 v -4.3334 m 14,-191.30004 v 35.429 m 0,8.48 v -6.5041 m 0,16.14 v 1.9563 m 0,30.07 v -2.3806 m 0,16.67 v 4.097 m 0,45.04 v -4.0271 m 0,17.52004 v 2.3891 m 0,45.5 v -2.4114 m 14,-207.98004 v 43.055 m 0,9.18 v -5.0558 m 0,46.39 v 3.5325 m 0,17.75 v -7.9023 m 0,54.13004 v 4.8524 m 14,-125.42004 v -40.535 m 0,46.22 v 3.3051 m 0,59.77 v -6.2837 m 0,43.46 v 3.4867 m 0,6.88 v -1.7408 m 0,14.35004 v 6.8847 m 14,-126.86004 v -49.471 m 0,52.69 v 6.3657 m 0,59.54 v -3.4476 m 0,38.28 v 11.41304 m 0,9.4 v -3.1778 m 0,16.5 v 1.2742 m 14,-154.47004 v -34.341 m 0,39.92 v 9.0735 m 0,9.17 v -7.4368 m 0,55.94 v 5.484 m 0,17.06 v -2.7923 m 0,21.03 v 4.4036 m 0,5.49 v -2.3924 m 0,7.57004 v 3.4699 m 0,9 v -5.1374 m 0,10.8 v 1.0832 m 14,-136.73004 v -45.064 m 0,49.49 v 4.9881 m 0,10.42 v -5.4593 m 0,43.01 v 2.1772 m 0,35.57 v -2.9294 m 0,13.63 v 14.39404 m 0,21.8 v -6.7638 m 14,-180.27004 v 45.832 m 0,3.76 v -2.9455 m 0,10.92 v 9.3651 m 0,5.34 v -4.1035 m 0,39.22 v 6.8543 m 0,60.63004 v -29.35704 m 0,32.46004 v 4.3523 m 0,17.8 v -2.6098 m 14,-197.55004 v 53.295 m 0,21.43 v -11.102 m 0,13.16 v 3.6048 m 0,29.1 v -5.8225 m 0,35.75 v 1.8143 m 0,9.82 v -3.907 m 0,6.78 v 19.90604 m 0,11.3 v -8.5075 m 14,-172.66004 v 42.408 m 0,8.62 v -5.947 m 0,13.81 v 4.2012 m 0,11 v -9.9087 m 0,16.72 v 3.6236 m 0,26.02 v -2.0715 m 0,34.88 v 27.26004 m 0,7.4 v -1.4062 m 0,6.2 v 5.848 m 0,4 v -2.482 m 14,-184.51004 v 36.77 m 0,9.76 v -4.7262 m 0,7.37 v 20.05 m 0,6.51 v -4.8898 m 0,12.08 v 6.2117 m 0,11.45 v -2.0624 m 0,46.29 v 12.21304 m 0,7.3 v -2.1464 m 0,7.7 v 6.4038 m 0,22.9 v -20.663 m 14,-173.16004 v 28.979 m 0,7.32 v -4.0422 m 0,8.47 v 24.477 m 0,14.59 v -9.0507 m 0,9.72 v 23.739 m 0,34.75 v -4.6741 m 0,13.07004 v 3.5054 m 0,8.2 v -5.7807 m 0,21.4 v 20.526 m 14,-163.10004 v -26.82 m 0,34.12 v 4.1685 m 0,19.69 v -16.996 m 0,21.8 v 6.0694 m 0,28.57 v -26.485 m 0,27.09 v 4.2867 m 0,43.90004 v -9.58624 m 0,21.99004 v 4.6228 m 0,27.1 v -11.898 m 14,-173.59004 v 23.254 m 0,31.29 v -19.933 m 0,20.9 v 43.558 m 0,3.3 v -3.0146 m 0,37.63004 v 3.6745 m 0,7.6 v -4.777 m 0,8.9 v 5.3033 m 0,9.3 v -2.483 m 0,16.1 v 2.7764 m 0,1.7 v -1.2165"
       stroke-miterlimit="4"
       inkscape:connector-curvature="0"
       style="stroke:#000000;stroke-width:0.06000103;stroke-miterlimit:4;stroke-dasharray:none" />
  </g>
  <g
     id="fill-252525"
     transform="matrix(9.9998296,0,0,9.9998296,-3380.8799,-3029.005)">
    <path
       id="path10"
       d="m 340.81,870.43 v 182.64 m 15,0 V 864.41 m 15,-6.12 v 194.76 m 15,0 V 852.2 m 15,-5.84 v 206.67 m 15,0 V 840.95 m 15,-1.69 V 1053 m 15,0 V 839.07 m 15,-0.05 v 213.95 m 15,0 V 838.99 m 15,-0.05 v 214 m 15,0 V 838.91 m 15,0.04 v 213.96 m 15,0 V 839.02 m 15,0.04 v 213.82 m 15,0 V 839.13 m 15,0.05 v 213.67 m 15,0 V 839.34 m 15,0.13 v 213.36 m 15,0 v -213.2 m 15,0.07 v 213.11 m 15,0 V 839.75 m 15,0.02 v 213.01 m 15,0 V 839.82 m 15,0.02 v 212.92 m 15,0 V 839.89 m 15,0.03 v 212.82 m 15,0 V 839.93 m 15,-0.01 v 212.8 m 15,0 V 839.93 m 15,-0.01 v 212.78 m 15,0 V 839.93 m 15,-0.01 v 212.76 m 15,0 V 839.93 m 15,-0.01 v 212.74 m 15,0 V 839.93 m 15,-0.02 v 212.72 m 15,0 V 839.92 m 15,-0.02 v 212.7 m 15,0 V 839.9 m 15,-0.03 v 212.7 m 15,0 V 839.86 m 15,-0.03 v 212.72 m 15,0 V 839.82 m 14.99,-0.03 v 212.74 m 15,0 V 839.79 m 15,-0.03 v 212.75 m 15,0 V 839.75 m 15,-0.03 v 212.77 m 15,0 V 839.72 m 15,-0.03 v 212.78 m 15,0 V 839.68 m 15,-0.06 v 212.83 m 15,0 V 839.57 m 15,-0.08 v 212.94 m 15,0 V 839.44 m 15,-0.08 v 213.05 m 15,0 v -213.1 m 15,-0.06 v 213.14 m 15,0 v -212.8 m 15,0.38 v 212.39 m 15,0 V 840.48 m 15,0.82 v 211.03 m 15,0 V 846.79 m 15,5.59 v 199.92 m 15,0 V 857.75 m 15,6.11 v 188.42"
       stroke-miterlimit="4"
       inkscape:connector-curvature="0"
       style="stroke:#000000;stroke-width:0.06000103;stroke-miterlimit:4;stroke-dasharray:none" />
  </g>
  <g
     id="fill-6f6f6f"
     transform="matrix(9.9998296,0,0,9.9998296,-3380.8799,-3029.005)">
    <path
       id="path13"
       d="m 363.19,770.58 v 2.4702 m 0,16.8 v -5.2317 m 0,10.91 v 257.54 m 27,-271.84 v -4.3091 m 0,14.56 v 4.3569 m 0,15.69 v -6.3325 m 0,10.7 v 237.15 m 27,-281.64 v -1.1582 m 0,42.09 v 2.9994 m 0,237.71 v -229.95 m 27,-12.63 v 3.4258 m 0,239.15 v -229.45 m 27,-12.6 v 2.2931 m 0,15.95 v -5.6101 m 0,7.18 v 222.22 m 27,-225.01 v -3.2019 m 0,11.07 v 217.12 m 27,-225.99 v -1.1396 m 0,11.1 v 216.01 m 27,0 v -216.31 m 27,1.03 v 215.26 m 27,0 v -215.07 m 27,0.56 v 214.49 m 27,0 v -214.28 m 27,0.12 v 214.13 m 27,0 v -213.99 m 27,0.12 v 213.85 m 27,0 v -213.82 m 27,-0.08 v 213.87 m 27,0 v -213.86 m 27,0.08 v 213.76 m 27,0 v -213.66 m 27,-0.01 v 213.64 m 27,0 v -213.74 m 27,-0.16 v 213.88 m 27,0 v -216.01 m 27.01,1.78 v 214.21 m 27,0 v -214.44 m 27,0.13 v 214.28 m 27,0 v -214.31 m 27,0.07 v 214.22 m 27,0 v -214.06 m 27,-12.29 v 2.5406 m 0,223.81 v -216.08 m 27,-24.48 v 3.1309 m 0,237.43 v -227.54 m 27,-14.4 v 241.91 m 27,-253.26 v -0.52169 m 0,11.4 v 242.35999 m 27,-276.95999 v -0.60308 m 0,28.89 v 0.76059 m 0,16.57 v -5.0532 m 0,7.67 v 228.69998 m 27,-266.94998 v -4.0483 m 0,15.13 v 3.8649 m 0,16.84 v -7.6239 m 0,7.82 v 234.94998 m 27,-258.85998 v -4.2612 m 0,14.7 v 5.3597 m 0,243.05998 V 817.76762"
       stroke-miterlimit="4"
       inkscape:connector-curvature="0"
       style="stroke:#000000;stroke-width:0.06000103;stroke-miterlimit:4;stroke-dasharray:none" />
  </g>
  <g
     id="fill-919191"
     transform="matrix(9.9998296,0,0,9.9998296,-3380.8799,-3029.005)">
    <path
       id="path16"
       d="m 343.46,636.91 v 1.3522 m 0,79.12 v -4.2106 m 0,16.2 v 2.9551 m 0,16.54 V 743.86 m 0,14 v 295.22 m 32,-342.86 v -3.4123 m 0,16.47 v 0.6737 m 0,16.02 v -2.8664 m 0,13.85 v 5.4479 m 0,296.68 v -290.54 m 32,-61.76 v 2.1798 m 0,58.67 v -3.8453 m 0,12.26 v 283.01 m 32,-280.5 v -4.8861 m 0,14.17 v 4.2217 m 0,267 v -258.4 m 32,-27.14 v 5.0699 m 0,14.54 v -5.2245 m 0,9.38 v 261.75 m 32,-296.31 v -1.4328 m 0,12.55 v 4.5009 m 0,280.69 v -274.73 m 32,-10.07 v 3.4686 m 0,13.38 v -1.8007 m 0,11.74 v 7.2663 m 0,250.74 v -244.86 m 32,-39.65 v 3.0178 m 0,28.23 v -2.9875 m 0,13.1 v 5.1471 m 0,238 v -230.24 m 32,-53.58 v 1.8602 m 0,43.15 v -3.4928 m 0,13.07 v 229.2 m 32,-280.22 v -5.2025 m 0,11.93 v 273.47 m 32,0 v -215.39 m 32,1.25 v 214.12 m 32,0 v -215.42 m 32,-11.75 v 2.1215 m 0,225.05 v -216.75 m 32,1.42 v 215.31 m 32,0 v -214.99 m 32,0.01 v 214.96 m 32,-224.01 v -3.0234 m 0,10.88 v 216.13 m 32,0 v -214.85 m 32,-0.24 v 215.06 m 32,-281.98 v -0.40632 m 0,41.13 v 241.23002 m 32.04,-223.95002 v -2.0681 m 0,8.12 v 217.87002 m 32,-223.97002 v -3.1113 m 0,9.9 v 217.15002 m 32,-222.12002 v -5.2492 m 0,5.86 v 221.49002 m 32,-280.88002 v -2.0354 m 0,13.39 v 3.2383 m 0,266.29002 V 796.31908 m 32,-27.05 v 3.0877 m 0,30.37 v -6.0944 m 0,12.3 v 243.80002 m 32,-279.91002 v -3.6369 m 0,14.83 v 2.2219 m 0,266.50002 V 796.72738 m 32,-27.5 v 3.9889 m 0,13.93 v -3.957 m 0,11.78 v 257.75002 m 32,-295.16002 v -1.7354 m 0,12.89 v 283.99002 m 32,-277.60002 v -4.4542 m 0,14.1 v 267.93002 m 32,-343.19002 v -2.6746 m 0,43.72 v 3.8973 m 0,298.24002 V 764.67238 m 32,-52.43 v 4.4068 m 0,15.63 v -3.7728 m 0,15.2 v 3.8295 m 0,305.13002 V 756.39588"
       stroke-miterlimit="4"
       inkscape:connector-curvature="0"
       style="stroke:#000000;stroke-width:0.06000103;stroke-miterlimit:4;stroke-dasharray:none" />
  </g>
  <g
     id="fill-b1b1b1"
     transform="matrix(9.9998296,0,0,9.9998296,-3380.8799,-3029.005)">
    <path
       id="path19"
       d="m 366.7,482.86 v 1.7529 m 0,76.13 v -2.509 m 0,74.41 v 4.4138 m 0,14.65 v -3.0083 m 0,14.11 v 4.7996 m 0,15.55 v -6.0704 m 0,14.69 v 6.8384 m 0,354.49 v -347.85 m 37,-146.99 v 0.71986 m 0,73.07 v -2.9481 m 0,43.4 v 2.5201 m 0,15.42 v -4.1682 m 0,13.13 v 6.8774 m 0,346.82004 V 713.05806 m 37,-16.07 v 4.3139 m 0,27.79 v -3.0359 m 0,13.04 v 5.0051 m 0,309.01004 V 752.10116 m 37,-54.46 v 3.8448 m 0,13.22 v -2.2382 m 0,12.06 v 6.6254 m 0,321.96004 V 737.50316 m 37,-39.43 v 2.6904 m 0,42.68 v -2.9089 m 0,12.81 v 6.9033 m 0,292.87004 V 765.62796 m 37,-66.97 v 1.9104 m 0,57.03 v -2.9197 m 0,12.31 v 6.8458 m 0,279.28004 V 779.90446 m 37,-80.61 v 0.5912 m 0,43.18 v -1.7946 m 0,12.07 v 299.74004 m 37,-280.80004 v -4.1951 m 0,14.67 v 3.3019 m 0,267.03004 V 796.05786 m 37,-28.16 v 4.7749 m 0,13.82 v -4.0302 m 0,13.61 v 6.8654 m 0,250.15004 V 808.03796 m 37,-40.14 v 5.5323 m 0,14.69 v -6.3063 m 0,14 V 1053.074 m 37,-280.52004 v -3.8831 m 0,29.22 v 2.6561 m 0,14.5 v -4.0643 m 0,12.88 v 229.17004 m 37,-352.54004 v -2.0406 m 0,47.79 v 306.77004 m 37,-280.12004 v -4.7149 m 0,14.61 v 3.5581 m 0,17.09 v -7.8073 m 0,8.99 V 1052.978 m 37,-280.56004 v -4.5286 m 0,15.31 v 3.5707 m 0,266.21004 V 796.21006 m 37,-27.45 v 3.9764 m 0,280.24004 V 782.74646 m 37,-14.46 v 4.1173 m 0,28.32 v -2.7985 m 0,13.02 v 5.0205 m 0,237.01004 V 823.75576 m 37,-54.91 v 3.8825 m 0,12.94 v -1.4274 m 0,12.55 v 6.1702 m 0,250.02004 V 807.25106 m 37,-38.71 v 3.9698 m 0,28.14 v -3.4877 m 0,12.99 v 6.5007 m 0,236.33004 V 821.14386 m 37,-52.2 v 4.224 m 0,28.12 v -3.615 m 0,13.16 v 5.3485 m 0,236.81004 V 819.11136 m 37,-50.2 v 4.3185 m 0,279.76004 V 781.51986 m 37,-12.74 v 5.2869 m 0,278.92004 V 782.56676 m 37,-27.52 v 3.6654 m 0,294.27004 V 767.48216 m 37,-67.94 v 1.7023 m 0,351.74004 V 741.12446 m 37,-41.84 v 2.55 m 0,42.25 v -2.3193 m 0,13 v 5.2473 m 0,292.97004 V 766.81246 m 37,-67.84 v 3.1139 m 0,13.44 v -2.1225 m 0,13.7 v 4.2013 m 0,321.68004 V 738.44516 m 37,-106.39 v 2.0196 m 0,57.96 v -1.1779 m 0,12.12 v 6.8035 m 0,14.6 v -7.2172 m 0,11.58 v 324.23004 m 37,-490.51004 v -2.4362 m 0,75.58 v 3.9083 m 0,30.14 v -2.8214 m 0,14.67 v 4.0039 m 0,15.86 v -5.215 m 0,12.34 v 344.46004"
       stroke-miterlimit="4"
       inkscape:connector-curvature="0"
       style="stroke:#000000;stroke-width:0.06000103;stroke-miterlimit:4;stroke-dasharray:none" />
  </g>
  <g
     id="fill-d2d2d2"
     transform="matrix(9.9998296,0,0,9.9998296,-3380.8799,-3029.005)">
    <path
       id="path22"
       d="m 338.14,307.23 v 11.103 m 0,10.1 v -4.8158 m 0,10.66 v 15.218 m 0,9.35 v -2.9857 m 0,9.12 v 15.666 m 0,9.21 v -9.1773 m 0,15.09 v 10.477 m 0,15.8 v -4.1723 m 0,9.7 v 15.412 m 0,10.08 v -4.2465 m 0,9.77 v 15.487 m 0,11.33 v -11.319 m 0,16.17 v 10.03 m 0,552.82 v -542.37 m 42,-205.58 v 2.4032 m 0,30.98 v -4.6389 m 0,17.13 v 57.014 m 0,17.33 v -12.619 m 0,13.18 v 13.382 m 0,14.98 v -13.702 m 0,15.29 v 12.876 m 0,13.23 v -10.943 m 0,16.32 v 10.675 m 0,14.83 v -11.835 m 0,15.13 v 11.333 m 0,14.51 v -11.039 m 0,15.63 v 9.0931 m 0,15.26 v -8.6464 m 0,14.67 v 7.5915 m 42,-279.71 v -1.3876 m 0,40.33 v 3.2316 m 0,70.48 v -2.6507 m 0,70.76 v 2.5638 m 0,72.07 v -4.337 m 0,44.51 v 0.52656 m 0,14.99 v -3.5764 m 0,13.43 v 5.3794 m 0,13.39 v -3.5763 m 0,13.36 v 4.9623 m 0,15.15 v -6.4967 m 0,10.38 v 374.75004 m 42,-748.92004 v -0.8875 m 0,41.59 v 2.4367 m 0,211.95 v -2.6834 m 0,69.06 v 5.5735 m 0,13.68 v -4.8202 m 0,13.96 v 5.7076 m 0,393.35004 V 666.19656 m 42,-249.98 v 0.62428 m 0,213.65 v -3.8445 m 0,15.02 v 1.8011 m 0,15.14 v -2.8268 m 0,12.77 v 21.75 m 0,362.79996 V 690.97064 m 42,-63.56 v 3.1218 m 0,43.66 v -4.7339 m 0,13.12 v 9.4506 m 0,361.06996 V 692.06914 m 42,-64.5 v 2.6769 m 0,42.56 v -2.7822 m 0,13.25 v 4.3556 m 0,15.58 v -7.0749 m 0,12.73 v 344.19996 m 42,-705.20996 v -3.2675 m 0,71.12 v 2.9633 m 0,69.24 v -0.73462 m 0,69.12 v 3.4431 m 0,57.23 v -5.7783 m 0,13.89 v 427.96998 m 42,-423.01998 v -1.9998 m 0,56.51 v 2.1274 m 0,14.97 v -3.9548 m 0,14.08 v 4.1192 m 0,337.15998 V 725.33252 m 42,-97.31 v 1.9997 m 0,71.44 v -3.9496 m 0,14.69 v 3.2848 m 0,15.42 v -4.7618 m 0,13.24 v 313.62998 m 42,-422.64998 v -2.3009 m 0,69.73 v 3.5723 m 0,13.48 v -1.7997 m 0,13.11 v 3.6738 m 0,15.47 v -5.5744 m 0,10.42 v 302.83998 m 42,-423.16998 v -1.1656 m 0,57.31 v 11.502 m 0,14.89 v -10.531 m 0,14.66 v 9.2553 m 42,-380.04 v -41.739 m 0,43.53 v 69.478 m 0,210.71 v -69.303 m 0,73.13 v 42.292 m 42,-43.48 v -2.1195 m 0,57.77 v 11.871 m 0,28.61 v -24.365 m 0,28.53 v 8.7206 m 42,-37.24 v -3.7306 m 0,41.91 v 4.312 m 0,308.39998 V 753.47392 m 42,-55.13 v 4.0171 m 0,40.97 v -1.8872 m 0,12.79 v 298.71998 m 41.96,-423.01998 v -1.0178 m 0,69.56 v 3.8211 m 0,57.42 v -5.2851 m 0,10.8 V 1052.942 m 42,-422.69998 v -1.1486 m 0,69.33 v 3.9859 m 0,42.26 v -4.5127 m 0,14.26 v 298.49998 m 42,-350.21998 v -4.5522 m 0,28.97 v 3.2482 m 0,322.54998 V 740.02262 m 42,-111.56 v 2.0846 m 0,72.67 v -5.3845 m 0,14.72 v 3.7299 m 0,14.57 v -4.3383 m 0,11.33 v 315.04998 m 42,-421.86998 v -3.0292 m 0,56.88 v 2.3992 m 0,16.15 v -5.9395 m 0,14.99 v 4.3979 m 0,336.01998 V 725.40272 m 42,-380.06 v 2.1699 m 0,284.18 v -4.2309 m 0,43.13 v 2.5233 m 0,15.26 v -3.8182 m 0,13.05 v 6.2648 m 0,14.15 v -6.1942 m 0,7.91 v 333.13998 m 42,-704.92998 v -3.2105 m 0,71.18 v 1.9163 m 0,71.33 v -1.6336 m 0,70.29 v 2.9045 m 0,72.12 v -5.0414 m 0,28.92 v 2.3604 m 0,14.98 v -3.344 m 0,13.09 v 5.0416 m 0,15.47 v -7.4686 m 0,13.96 v 342.02998 m 42,-713.54998 v -3.1758 m 0,74.34 v 2.8652 m 0,74.74 v -3.9188 m 0,46.68 v 26.946 m 0,15.65 v -10.613 m 0,13.8 v 11.206 m 0,14.27 v -9.9804 m 0,15.18 v 9.8756 m 0,13.13 v -7.737"
       stroke-miterlimit="4"
       inkscape:connector-curvature="0"
       style="stroke:#000000;stroke-width:0.06000103;stroke-miterlimit:4;stroke-dasharray:none" />
  </g>
  <g
     id="fill-e8e8e8"
     transform="matrix(9.9998296,0,0,9.9998296,-3380.8799,-3029.005)">
    <path
       id="path25"
       d="m 350.11,303.08 v 750 m 46,0 v -750 m 46,-0.02 v 18.244 m 0,13.37 v -5.6752 m 0,13.72 v 6.3441 m 0,13.57 v -4.9289 m 0,14.22 v 4.6493 m 0,14 v -3.7573 m 0,14.13 v 3.6261 m 0,15 v -5.7738 m 0,14.99 v 3.57 m 0,13.83 v -3.4264 m 0,14.01 v 3.4452 m 0,14.11 v -2.457 m 0,13 v 5.7246 m 0,13.02 v -3.6849 m 0,13.08 v 4.4521 m 0,14.61 v -5.0463 m 0,14.05 v 5.5464 m 0,14.99 v -7.543 m 0,14.66 v 6.3937 m 0,477.97 v -470.03 m 46,-279.89 v 218.17 m 0,531.75 v -529.26 m 46,-220.46 v 1.6164 m 0,27.28 v -0.28954 m 0,11.28 v 5.0478 m 0,26.38 v -0.18024 m 0,13.99 v 0.14796 m 0,13.99 v -0.14796 m 0,11.98 v 4.5937 m 0,70.51 v -3.879 m 0,29.02 v 1.8612 m 0,14.51 v -2.3833 m 0,13.89 v 2.5289 m 0,15.88 v -5.2471 m 0,14.65 v 4.4569 m 0,478.22998 V 583.28842 m 46,-239.23 v 4.506 m 0,70.13 v -3.9308 m 0,70.91 v 3.6771 m 0,71.01 v -4.5476 m 0,43.19 v 3.5516 m 0,14.59 v -4.3796 m 0,12.98 v 6.3963 m 0,13.47 v -4.6103 m 0,13.64 v 5.4848 m 0,392.95998 V 666.92592 m 46,-322.79 v 4.423 m 0,70.68 v -4.3112 m 0,70.48 v 4.3462 m 0,70.8 v -4.6915 m 0,43.91 v 1.6048 m 0,15 v -3.6523 m 0,13 v 5.6379 m 0,13.73 v -4.4013 m 0,14.37 v 5 m 0,14.1 v -5.7585 m 0,13.49 V 1053.063 m 46,-747.82998 v -1.7685 m 0,13.33 v 2.6228 m 0,14.08 v -2.9007 m 0,13.25 v 4.6532 m 0,12.87 v -2.2953 m 0,14.62 v 1.8097 m 0,43.43 v -4.2056 m 0,71.12 v 3.587 m 0,71.12 v -3.9744 m 0,29.19 v 1.6983 m 0,14.99 v -3.7692 m 0,13.86 v 5.2052 m 0,14.95 v -7.7773 m 0,13.38 v 414.72998 m 46,-747.29998 v -2.3473 m 0,13.2 v 2.949 m 0,13.99 v -2.9305 m 0,13 v 5.3185 m 0,12.51 v -1.883 m 0,55.36 v 4.1326 m 0,70.49 v -3.9374 m 0,70.85 v 4.077 m 0,12.07 v -0.14796 m 0,27.16 v 2.9305 m 0,15.13 v -5.2401 m 0,13.42 v 7.0054 m 0,13.22 v -5.7293 m 0,12.32 v 400.36004 m 46,-749.29004 v -0.40186 m 0,40.13 v 5.122 m 0,70.02 v -3.4229 m 0,70.35 v 3.9393 m 0,71.03 v -3.9868 m 0,70.31 v 4.5586 m 0,12.86 v -2.449 m 0,13.93 v 3.5601 m 0,14.82 v -4.6714 m 0,13.4 v 5.7105 m 0,14.51 v -7.1603 m 0,15.05 V 717.2 m 0,335.81 V 722.75 m 46,-378.33 v 3.809 m 0,70.14 v -2.6682 m 0,70.47 v 3.2022 m 0,70.82 v -3.3957 m 0,69.9 v 5.1637 m 0,27.37 v -3.4761 m 0,14.11 v 4.5922 m 0,14.6 v -6.1434 m 0,13.03 v 8.1066 m 0,348.97 v -345.41 m 46,-363.11 v 3.9612 m 0,13.03 v -1.924 m 0,55.84 v 3.1598 m 0,70.91 v -3.1014 m 0,70.17 v 3.9001 m 0,27.48 v -2.0496 m 0,13.45 v 3.1182 m 0,15.17 v -4.9679 m 0,11.65 v 8.5488 m 0,13.37 v -5.4913 m 0,13.72 v 398.55 m 46,-748.08 v -0.94777 m 0,14.43 v 0.16378 m 0,30.04 v -4.698 m 0,71.32 v 3.9726 m 0,70.19 v -2.8772 m 0,70.02 v 3.8954 m 0,41.98 v -2.375 m 0,13.43 v 3.8164 m 0,15.21 v -6.2588 m 0,14.51 v 6.0157 m 0,406.24999 V 653.75131 m 46,-350.52 v 1.8686 m 0,43.6 v -5.1901 m 0,72.05 v 3.2672 m 0,70.03 v -1.9674 m 0,69.73 v 3.7899 m 0,71.82 v -5.3705 m 0,15.88 v 2.7371 m 0,13.59 v -3.2937 m 0,14.02 v 4.1762 m 0,15.03 v -5.383 m 0,13.19 v 6.5394 m 0,15.43 v -8.1558 m 0,12.17 v 330.16999 m 46,-748.67999 v -0.96415 m 0,41.12 v 4.1957 m 0,70.1 v -3.316 m 0,71.85 v 2.088 m 0,71.41 v -4.2472 m 0,70.15 v 5.7698 m 0,12.75 v -2.5492 m 0,14.14 v 2.4479 m 0,15.08 v -4.6894 m 0,13.92 v 4.7564 m 0,15.7 v -7.1424 m 0,14.59 v 6.6941 m 0,334.82004 V 723.55276 m 45.99,-420.09 v 1.3171 m 0,28.69 v -2.0493 m 0,13.04 v 3.9239 m 0,13.3 v -1.8998 m 0,55.85 v 2.879 m 0,70.65 v -1.988 m 0,69.4 v 4.2273 m 0,27.52 v -2.8001 m 0,13.48 v 4.2086 m 0,17 v -7.5954 m 0,12.57 v 427.74004 m 46,-704.67004 v -3.7846 m 0,71.1 v 3.1478 m 0,70.45 v -1.9747 m 0,69.57 v 4.4002 m 0,55.57 v -2.3771 m 0,12.05 v 6.6027 m 0,13.64 v -5.68 m 0,13.83 v 398.10004 m 46,-704.49004 v -4.0179 m 0,70.8 v 4.2252 m 0,70.2 v -3.1907 m 0,70.27 v 4.3618 m 0,55.82 v -2.2938 m 0,12.21 v 5.5811 m 0,14.04 v -4.649 m 0,13.93 v 5.2391 m 0,391.96004 V 668.77616 m 46,-365.81 v 2.5685 m 0,13.67 v -2.8057 m 0,14.63 v 2.4995 m 0,16.12 v -5.6936 m 0,71.12 v 4.2716 m 0,70.67 v -3.7397 m 0,70.38 v 5.0156 m 0,26.47 v -1.5383 m 0,12.95 v 3.8181 m 0,14.51 v -4.4077 m 0,13.03 v 6.3616 m 0,14.51 v -6.9904 m 0,13.26 v 399.23004 m 46,-603.28004 v -146.69 m 0,153.77 v 5.6147 m 0,14 v -4.7756 m 0,14.03 v 5.0753 m 0,13.71 v -4.3784 m 0,13.59 v 5.7624 m 0,533.58004 V 526.21406 m 46,-222.91 v 46.05 m 0,15.03 v -8.0858 m 0,14.7 v 7.3124 m 0,14.65 v -8.7197 m 0,14.84 v 6.9451 m 0,13.91 v -6.3219 m 0,15 v 5.6303 m 0,13.74 v -5.1732 m 0,14.65 v 4.0368 m 0,14.41 v -4.2538 m 0,13.24 v 6.4529 m 0,13.5 v -5.0157 m 0,14.04 v 5.7979 m 0,14.86 v -6.9496 m 0,14.8 v 9.273 m 0,501.23004 V 555.88276 m 46,-252.7 v 4.7981 m 0,15.05 v -6.5199 m 0,14.42 v 7.4358 m 0,14.89 v -6.0788 m 0,14.8 v 6.0197 m 0,14.85 v -5.5836 m 0,15.05 v 5.6661 m 0,15.81 v -7.3444 m 0,15.36 v 6.6953 m 0,14.97 v -6.2286 m 0,13.78 v 11.559 m 0,14.52 v -13.938 m 0,14.41 v 575.26004"
       stroke-miterlimit="4"
       inkscape:connector-curvature="0"
       style="stroke:#000000;stroke-width:0.06000103;stroke-miterlimit:4;stroke-dasharray:none" />
  </g>
</svg>
