<?xml version="1.0" encoding="UTF-8" standalone="no"?>
<!-- Created with Inkscape (http://www.inkscape.org/) -->

<svg
   xmlns:dc="http://purl.org/dc/elements/1.1/"
   xmlns:cc="http://creativecommons.org/ns#"
   xmlns:rdf="http://www.w3.org/1999/02/22-rdf-syntax-ns#"
   xmlns:svg="http://www.w3.org/2000/svg"
   xmlns="http://www.w3.org/2000/svg"
   xmlns:sodipodi="http://sodipodi.sourceforge.net/DTD/sodipodi-0.dtd"
   xmlns:inkscape="http://www.inkscape.org/namespaces/inkscape"
   width="1052.3622"
   height="744.09448"
   id="svg3928"
   version="1.1"
   inkscape:version="0.48.1 r9760"
   sodipodi:docname="New document 2">
  <defs
     id="defs3">
    <inkscape:path-effect
       effect="spiro"
       id="path-effect4508"
       is_visible="true" />
    <inkscape:path-effect
       effect="skeletal"
       id="path-effect4522"
       is_visible="true"
       pattern="#path4412"
       copytype="repeated"
       prop_scale="1"
       scale_y_rel="false"
       spacing="0"
       normal_offset="0"
       tang_offset="0"
       prop_units="false"
       vertical_pattern="false"
       fuse_tolerance="0" />
    <inkscape:path-effect
       effect="spiro"
       id="path-effect4508-7"
       is_visible="true" />
    <inkscape:path-effect
       effect="skeletal"
       id="path-effect4522-7"
       is_visible="true"
       pattern="#path4412"
       copytype="repeated"
       prop_scale="1"
       scale_y_rel="false"
       spacing="0"
       normal_offset="0"
       tang_offset="0"
       prop_units="false"
       vertical_pattern="false"
       fuse_tolerance="0" />
    <inkscape:path-effect
       effect="spiro"
       id="path-effect4422"
       is_visible="true" />
  </defs>
  <sodipodi:namedview
     inkscape:document-units="mm"
     id="base"
     pagecolor="#ffffff"
     bordercolor="#666666"
     borderopacity="1.0"
     inkscape:pageopacity="0.0"
     inkscape:pageshadow="2"
     inkscape:zoom="0.43798752"
     inkscape:cx="252.16451"
     inkscape:cy="479.26114"
     inkscape:current-layer="layer1"
     showgrid="false"
     units="mm"
     inkscape:showpageshadow="false"
     inkscape:window-width="1280"
     inkscape:window-height="721"
     inkscape:window-x="0"
     inkscape:window-y="25"
     inkscape:window-maximized="1" />
  <metadata
     id="metadata4">
    <rdf:RDF>
      <cc:Work
         rdf:about="">
        <dc:format>image/svg+xml</dc:format>
        <dc:type
           rdf:resource="http://purl.org/dc/dcmitype/StillImage" />
        <dc:title></dc:title>
      </cc:Work>
    </rdf:RDF>
  </metadata>
  <g
     inkscape:label="Layer 1"
     inkscape:groupmode="layer"
     id="layer1"
     transform="translate(0,-308.2677)">
    <g
       id="g4005">
      <g
         id="g3987">
        <path
           sodipodi:nodetypes="cc"
           d="m 153.15094,439.48709 c 0.3158,11.707 23.6393,-1.13358 23.6393,12.3701"
           id="path94-2"
           inkscape:connector-curvature="0"
           style="fill:none;stroke:#000000;stroke-width:0.625;stroke-miterlimit:4;stroke-dasharray:none" />
        <polygon
           transform="matrix(1.25,0,0,1.25,10.640543,697.48219)"
           style="fill:#000000;stroke:#000000"
           id="polygon3933"
           points="133,-189 130.375,-196.5 135.625,-196.5 135.625,-196.5 " />
      </g>
      <g
         id="g3979">
        <polygon
           transform="matrix(1.25,0,0,1.25,-12.706957,740.88109)"
           style="fill:none;stroke:#000000;stroke-width:0.5"
           id="polygon3137"
           points="133,-277 84.0102,-259 133,-241 181.99,-259 133,-277 " />
        <g
           id="g3973">
          <path
             sodipodi:nodetypes="ccc"
             inkscape:connector-curvature="0"
             id="path3935"
             d="m 104.67994,412.58461 0,9.0931 0,0"
             style="fill:none;stroke:#000000;stroke-width:0.625;stroke-linecap:butt;stroke-linejoin:miter;stroke-miterlimit:4;stroke-opacity:1;stroke-dasharray:none" />
          <path
             style="fill:none;stroke:#000000;stroke-width:0.625;stroke-linecap:butt;stroke-linejoin:miter;stroke-miterlimit:4;stroke-opacity:1;stroke-dasharray:none"
             d="m 202.67994,412.58461 0,9.0931 0,0"
             id="path3937"
             inkscape:connector-curvature="0"
             sodipodi:nodetypes="ccc" />
          <path
             inkscape:connector-curvature="0"
             id="path3939"
             d="m 140.20174,399.53313 26.6828,0"
             style="fill:none;stroke:#000000;stroke-width:0.625;stroke-linecap:butt;stroke-linejoin:miter;stroke-miterlimit:4;stroke-opacity:1;stroke-dasharray:none" />
          <path
             style="fill:none;stroke:#000000;stroke-width:0.625;stroke-linecap:butt;stroke-linejoin:miter;stroke-miterlimit:4;stroke-opacity:1;stroke-dasharray:none"
             d="m 140.20174,434.79601 26.6828,0"
             id="path3941"
             inkscape:connector-curvature="0" />
        </g>
      </g>
    </g>
    <polygon
       points="133,-277 84.0102,-259 133,-241 181.99,-259 133,-277 "
       id="polygon5816"
       style="fill:none;stroke:#000000;stroke-width:0.48350546;stroke-miterlimit:4;stroke-dasharray:none"
       transform="matrix(1.2497956,0,0,1.3316171,-12.973547,876.64074)" />
    <path
       style="fill:none;stroke:#000000;stroke-width:0.625;stroke-linecap:butt;stroke-linejoin:miter;stroke-miterlimit:4;stroke-opacity:1;stroke-dasharray:none"
       d="m 80.617894,651.30187 c -2.883895,-1.56053 -5.321812,-3.91049 -6.912646,-6.64164 -1.283569,-2.20364 -1.997337,-4.66626 -2.097606,-7.10055 -0.100269,-2.43429 0.410331,-4.83727 1.480747,-7.00068 0.367504,-0.74276 0.821279,-1.47965 1.492818,-1.95811 0.335774,-0.23924 0.721639,-0.40722 1.113484,-0.45147 0.391846,-0.0443 0.788699,0.0404 1.089001,0.26589 0.29982,0.22456 0.491651,0.5813 0.559493,0.96896 0.06784,0.38765 0.01612,0.8042 -0.117318,1.19326 -0.266876,0.77812 -0.840374,1.42256 -1.441398,1.99076 -1.715747,1.62204 -3.795022,2.83943 -6.078393,3.5093 -2.28337,0.66988 -4.770583,0.78899 -7.207786,0.26431 -3.095855,-0.66648 -6.08797,-2.35264 -8.373844,-4.74724 m 57.809594,29.9009 c -3.23199,-0.56987 -6.28512,-2.03021 -8.65469,-4.11872 -1.9119,-1.68512 -3.365568,-3.7954 -4.232029,-6.07329 -0.86646,-2.27789 -1.147488,-4.71993 -0.822389,-7.11318 0.111616,-0.82167 0.30676,-1.6653 0.792208,-2.33275 0.242727,-0.33373 0.556061,-0.61572 0.914859,-0.78204 0.358801,-0.16632 0.763801,-0.21171 1.121841,-0.0927 0.35729,0.11828 0.65394,0.39635 0.84226,0.74302 0.18832,0.34666 0.27191,0.75857 0.26895,1.17022 -0.006,0.82328 -0.34625,1.61654 -0.73674,2.34622 -1.700342,3.17724 -4.527369,5.72757 -7.999962,7.00643 0,0 -10e-7,0 -10e-7,0 -1.080932,0.39864 -2.220629,0.67487 -3.393494,0.81217 -3.138556,0.3674 -6.496629,-0.25286 -9.416959,-1.75904 m 64.284766,9.75349 c -2.8094,0.44196 -5.73305,0.22077 -8.38659,-0.64221 -0.37306,-0.12254 -0.74033,-0.25763 -1.10087,-0.40496 -2.36922,-0.96818 -4.43305,-2.49329 -5.98786,-4.3688 -1.55481,-1.8755 -2.60148,-4.09747 -3.05801,-6.46744 -0.15674,-0.81368 -0.24121,-1.6749 0.004,-2.46197 0.12242,-0.39354 0.3277,-0.76062 0.61233,-1.03279 0.28464,-0.27217 0.65095,-0.44471 1.02539,-0.44687 0.37352,-0.003 0.74094,0.16529 1.02872,0.43271 0.28779,0.26741 0.49824,0.63011 0.6274,1.0204 0.2583,0.78058 0.193,1.64043 0.0595,2.45634 -0.38117,2.32916 -1.29774,4.55655 -2.71026,6.47155 -1.41251,1.915 -3.32231,3.51468 -5.57772,4.57324 -2.86494,1.34462 -6.25485,1.81781 -9.50426,1.311 m 63.61782,-9.6264 c -2.91022,1.09816 -6.1225,1.44904 -9.17707,0.98802 -2.46459,-0.37197 -4.82319,-1.29761 -6.83107,-2.67041 -2.00788,-1.37281 -3.66323,-3.19065 -4.80209,-5.32098 -0.391,-0.73141 -0.72807,-1.5289 -0.7169,-2.35617 0.006,-0.41364 0.10147,-0.8274 0.3054,-1.17447 0.20394,-0.34707 0.51989,-0.62357 0.89373,-0.73823 0.3728,-0.11479 0.78875,-0.0632 1.15175,0.10886 0.363,0.17204 0.67417,0.45956 0.91092,0.7977 0.47351,0.67626 0.6439,1.52371 0.73808,2.3472 0.26885,2.35082 0.003,4.74956 -0.786,6.98927 -0.78916,2.23972 -2.10405,4.31975 -3.88494,6.00466 -2.26219,2.14025 -5.25242,3.64182 -8.45101,4.21075 m 58.66317,-21.50245 c -2.73273,1.14299 -5.7652,1.63529 -8.75757,1.39894 -4.82879,-0.3814 -9.54214,-2.78706 -12.38537,-6.70378 -0.48808,-0.67236 -0.93315,-1.41662 -1.0211,-2.24222 -0.044,-0.4128 0.006,-0.83923 0.17739,-1.21475 0.17137,-0.37552 0.46888,-0.69671 0.84466,-0.86318 0.37469,-0.16646 0.81221,-0.17136 1.20568,-0.0476 0.39347,0.12381 0.74365,0.371 1.02127,0.67853 0.55525,0.61504 0.81321,1.43996 0.99463,2.2489 1.03579,4.61855 0.004,9.66223 -2.8563,13.49992 -0.68805,0.92318 -1.47733,1.77618 -2.35014,2.54274 -1.4304,1.26493 -3.09009,2.29727 -4.88712,3.0187 m 55.20442,-22.84303 c -2.72594,0.7505 -5.65566,0.88055 -8.53778,0.36855 -0.9814,-0.17434 -1.95699,-0.42824 -2.91234,-0.75675 0,0 0,0 0,0 -3.57338,-1.21987 -6.88271,-3.4912 -9.0409,-6.64374 -0.46957,-0.68591 -0.89554,-1.4415 -0.94719,-2.27269 -0.0258,-0.41561 0.0469,-0.84339 0.24444,-1.21735 0.19755,-0.37396 0.52491,-0.69045 0.92505,-0.84798 0.39902,-0.15754 0.85381,-0.14945 1.25333,-0.012 0.39951,0.13747 0.74495,0.39873 1.01071,0.7182 0.5315,0.63892 0.74064,1.47786 0.87596,2.29621 0.3863,2.33615 0.25822,4.74734 -0.30024,7.03978 -0.55846,2.29245 -1.54742,4.46743 -2.92928,6.3463 -1.75532,2.38664 -4.11968,4.30311 -6.83221,5.50823 m 54.41522,-15.01609 c -2.66913,-0.0827 -5.35774,-0.72722 -7.92677,-1.91659 -2.07283,-0.95964 -4.06332,-2.30341 -5.79834,-3.96098 -1.73501,-1.65756 -3.21306,-3.63084 -4.17364,-5.85674 -0.3298,-0.76421 -0.60505,-1.58786 -0.48194,-2.41395 0.0616,-0.41305 0.22679,-0.81911 0.50934,-1.14729 0.28256,-0.32818 0.6869,-0.57368 1.1305,-0.64706 0.44243,-0.0736 0.90467,0.028 1.27951,0.24576 0.37485,0.21773 0.66496,0.54608 0.86017,0.9144 0.39043,0.73664 0.40693,1.59997 0.35788,2.42718 -0.14005,2.36143 -0.78923,4.68562 -1.7833,6.81681 -0.99406,2.1312 -2.33288,4.07118 -3.94989,5.67344 -2.05401,2.03527 -4.53492,3.53954 -7.24829,4.35433 m 52.75103,1.07481 c -2.24472,-1.16253 -4.29908,-2.81063 -6.10482,-4.90876 -1.45697,-1.69288 -2.73818,-3.70171 -3.71689,-5.90152 -0.97871,-2.19981 -1.65355,-4.59163 -1.76087,-7.03104 -0.0368,-0.83752 -0.003,-1.71124 0.42243,-2.44073 0.21263,-0.36475 0.52467,-0.68468 0.92363,-0.88687 0.39895,-0.20218 0.88745,-0.28013 1.34878,-0.18027 0.46029,0.0992 0.87265,0.37161 1.15359,0.7193 0.28095,0.34769 0.43538,0.76633 0.48183,1.1851 0.0929,0.83752 -0.22619,1.64697 -0.59084,2.39828 -1.04096,2.14473 -2.53587,4.06492 -4.23631,5.70034 -1.70044,1.63542 -3.60634,2.98743 -5.59974,3.95434 -1.90759,0.92527 -3.88714,1.50686 -5.87215,1.72406 -0.65632,0.073 -1.31506,0.10807 -1.9749,0.10365 m 43.36101,22.343 c -1.13252,-2.19496 -1.82522,-4.6365 -2.13323,-7.31513 -0.2837,-2.46726 -0.22287,-5.16055 0.23761,-7.86369 0.34713,-2.03442 0.92697,-4.05855 1.879,-5.9058 0.38077,-0.73882 0.83846,-1.47443 1.57565,-1.88271 0.36859,-0.20415 0.80455,-0.3178 1.26131,-0.28325 0.45675,0.0345 0.93356,0.22454 1.29716,0.55461 0.20836,0.18882 0.37417,0.41883 0.49158,0.66525 0.086,0.18529 0.14521,0.37929 0.17616,0.57194 0.0727,0.45223 -0.005,0.89555 -0.17812,1.27936 -0.34658,0.76761 -1.04252,1.28472 -1.74538,1.73039 -1.00455,0.63695 -2.07738,1.1671 -3.18114,1.60986 0,0 0,0 0,0 -1.65364,0.66476 -3.36942,1.13136 -5.05954,1.43086 -1.69011,0.2995 -3.35503,0.43213 -4.95397,0.38391 -2.70924,-0.0817 -5.22331,-0.6475 -7.50184,-1.75448 m 22.54832,40.68026 c 0.3493,-2.26124 1.1258,-4.46324 2.28759,-6.64722 0.0864,-0.16143 0.17499,-0.3228 0.26565,-0.48406 1.06289,-1.8906 2.43729,-3.77893 4.07239,-5.51744 1.63511,-1.73851 3.53304,-3.32676 5.70025,-4.42867 0.74406,-0.37832 1.54923,-0.70903 2.38661,-0.60857 0.41869,0.0502 0.83819,0.21384 1.18614,0.51011 0.34796,0.29626 0.61934,0.73054 0.716,1.21164 0.0968,0.47984 0.0146,0.98422 -0.19046,1.39171 -0.20502,0.40749 -0.52657,0.72115 -0.8912,0.9311 -0.72923,0.41991 -1.59601,0.43433 -2.42671,0.3865 -2.37141,-0.13653 -4.7124,-0.76745 -6.88044,-1.6427 -2.16805,-0.87524 -4.16458,-1.99347 -5.87099,-3.28786 -2.16756,-1.64421 -3.87625,-3.54742 -5.0684,-5.71592"
       id="path4485"
       inkscape:connector-curvature="0"
       inkscape:path-effect="#path-effect4508;#path-effect4522"
       inkscape:original-d="m 60.437114,625.56891 c 17.99259,27.73831 48.754856,25.03534 75.400876,27.96715 54.91689,6.04239 121.75313,-57.82045 164.21429,-22.47324 17.12319,14.25437 3.09642,66.76773 3.09642,66.76773"
       sodipodi:nodetypes="caac" />
    <path
       style="fill:none;stroke:#000000;stroke-width:0.42896137;stroke-linecap:butt;stroke-linejoin:miter;stroke-miterlimit:4;stroke-opacity:1;stroke-dasharray:none"
       d="m 43.027503,255.59282 c -2.998909,-0.0688 -5.978306,-0.87233 -8.6052,-2.32065 -4.239031,-2.33716 -7.535679,-6.45599 -8.5528,-11.18855 -0.174603,-0.81241 -0.281304,-1.67307 -0.02387,-2.46314 0.128718,-0.39504 0.350175,-0.76437 0.663151,-1.03763 0.312976,-0.27326 0.720439,-0.44534 1.135918,-0.44391 0.414461,0.001 0.819742,0.17542 1.130749,0.44938 0.311008,0.27396 0.530753,0.64286 0.658805,1.03705 0.256103,0.78837 0.152285,1.64627 -0.01445,2.45825 -0.951972,4.63591 -3.962925,8.80377 -8.0508,11.18855 -2.596312,1.51463 -5.599284,2.32448 -8.6051,2.32065"
       id="path4412"
       inkscape:connector-curvature="0"
       sodipodi:nodetypes="caaaaac"
       inkscape:path-effect="#path-effect4422"
       inkscape:original-d="m 43.027503,255.59282 c 0,0 -6.1378,-0.66588 -8.6052,-2.32065 -3.8987,-2.61478 -8.0145,-6.52514 -8.5528,-11.18855 -0.1653,-1.43239 0.3333,-3.94468 1.7752,-3.94468 1.4418,0 1.9196,2.51005 1.7751,3.94468 -0.4608,4.57149 -4.2723,8.57436 -8.0508,11.18855 -2.4431,1.6903 -8.6051,2.32065 -8.6051,2.32065" />
    <rect
       style="fill:none;stroke:#000000;stroke-width:0.625;stroke-miterlimit:4;stroke-dasharray:none"
       id="rect5879"
       width="93.668091"
       height="38.980591"
       x="329.33163"
       y="398.39502" />
    <g
       id="g4637">
      <path
         style="fill:none;stroke:#000000;stroke-width:0.625;stroke-miterlimit:4;stroke-dasharray:none"
         inkscape:connector-curvature="0"
         id="path94-2-5"
         d="m 334.35626,550.00049 c 0.31573,-11.707 23.43286,-3.90029 23.19594,-34.69887"
         sodipodi:nodetypes="cc" />
      <polygon
         points="133,-189 130.375,-196.5 135.625,-196.5 135.625,-196.5 "
         id="polygon3933-6"
         style="fill:#000000;stroke:#000000"
         transform="matrix(0.80404019,0,0,-0.80404019,250.58997,357.15792)" />
    </g>
  </g>
</svg>
