<?xml version="1.0" encoding="UTF-8" standalone="no"?>
<!-- Created for Inkscape (http://www.inkscape.org/) -->

<svg
   xmlns:dc="http://purl.org/dc/elements/1.1/"
   xmlns:cc="http://creativecommons.org/ns#"
   xmlns:rdf="http://www.w3.org/1999/02/22-rdf-syntax-ns#"
   xmlns:svg="http://www.w3.org/2000/svg"
   xmlns="http://www.w3.org/2000/svg"
   xmlns:sodipodi="http://sodipodi.sourceforge.net/DTD/sodipodi-0.dtd"
   xmlns:inkscape="http://www.inkscape.org/namespaces/inkscape"
   width="3200"
   height="800"
   id="svg2985"
   version="1.1"
   inkscape:version="0.48.1 r9760">
  <defs
     id="defs2987" />
  <sodipodi:namedview
     id="base"
     pagecolor="#ffffff"
     bordercolor="#666666"
     borderopacity="1.0"
     inkscape:pageopacity="0.0"
     inkscape:pageshadow="2"
     inkscape:zoom="0.35"
     inkscape:cx="1600"
     inkscape:cy="400"
     inkscape:document-units="px"
     inkscape:current-layer="layer1"
     showgrid="false"  />
  <metadata
     id="metadata2990">
    <rdf:RDF>
      <cc:Work
         rdf:about="">
        <dc:format>image/svg+xml</dc:format>
        <dc:type
           rdf:resource="http://purl.org/dc/dcmitype/StillImage" />
        <dc:title />
      </cc:Work>
    </rdf:RDF>
  </metadata>
  <g
     inkscape:label="Layer 1"
     inkscape:groupmode="layer"
     id="layer1"> 
     <g>
<path style="fill:none;stroke:black;stroke-width:2px;stroke-linejoin:round;stroke-linecap:round;" d="M 
1757.2196 412.49045
1761.3171 423.02023
1775.9563 407.4099
1766.0874 405.34375
1758.3516 401.56262
1751.0336 399.5831
1744.5049 405.7752
1730.9395 402.7301
1730.1334 390.57614
1718.665 388.09253
1713.9098 378.64038
1719.6667 369.69507
1711.5422 363.48996
1704.6641 357.49268
1694.7839 356.7425
1684.7361 352.58337
1681.5831 341.19354
1668.3823 338.4787
1661.325 338.79745
1671.561 342.3336
1684.6011 327.55075
1682.7273 316.52246
1681.9636 305.38593
1668.0519 318.13776
1672.3694 328.21362
1653.8903 324.22668
1640.6929 322.86444
1629.5964 317.12567
1621.4365 320.0448
1614.9075 314.11694
1603.5618 322.1619
1593.3291 313.48212
1579.5618 314.87845
1566.7449 314.18793
1561.6873 304.48706
1554.6343 294.9344
1539.1926 292.46118
1527.9109 294.4173
1523.7197 308.76987
1540.7368 308.11475
1510.1432 320.95883
1512.8735 325.78577
1526.2341 323.93393
1541.139 325.44217
1555.4156 326.78183
1568.4006 328.06876
1580.1865 329.69644
1590.9725 329.53925
1599.7144 334.68225
1610.9976 333.43893
1620.4365 334.40213
1629.3668 335.66595
1637.319 337.70233
1641.3931 333.8352
1646.1907 337.32648
1653.5438 337.40402
1651.5947 345.73056
1646.7466 355.01132
1650.7849 369.40674
1661.826 359.65405
1671.5742 353.82544
1669.3533 373.40314
1649.52 381.64575
1650.7235 391.6057
1634.3015 393.8416
1619.9045 388.2821
1617.6885 397.73572
1630.1533 411.44556
1644.7529 407.65674
1647.7094 422.8911
1662.76 417.7899
1678.4519 415.81943
1681.8285 426.30807
1688.1682 410.3774
1695.0797 399.08566
1674.9637 405.1589
1673.2557 391.55295
1682.8989 366.4604
1684.384 380.71542
1692.825 372.20056
1700.2847 367.87518
1697.7673 382.39795
1705.4729 391.81088
1715.3137 401.842
1718.653 412.26
1709.5776 416.69308
1698.213 415.80334
1700.969 430.12457
1696.1885 444.3191
1684.6003 437.94305
1682.7761 446.36594
1674.0273 442.68967
1665.4908 438.14227
1656.1725 442.00085
1646.813 438.69894
1635.1746 436.04547
1623.1292 431.18488
1617.3514 420.7721
1615.3356 411.79343
1605.4691 407.92685
1602.6185 393.3849
1594.7655 382.56836
1599.5957 371.9619
1611.1301 376.20386
1609.5297 363.29675
1624.6895 373.8877
1635.5127 380.38422
1638.1035 372.63983
1636.9613 359.44394
1633.428 351.16608
1624.8784 355.81992
1616.6672 352.9135
1609.5166 349.8447
1601.8276 350.268
1597.5564 355.0799
1595.6787 362.1834
1588.2214 368.08722
1580.9928 375.7407
1577.274 365.6488
1554.4381 383.62634
1563.0629 391.00714
1561.8485 404.02216
1573.5469 401.08673
1578.0953 387.3667
1587.6766 395.9687
1590.7646 406.97546
1598.3164 418.59262
1587.3973 421.41647
1575.799 416.16574
1561.7544 417.55103
1567.058 427.2973
1554.6857 430.11176
1547.001 439.63803
1574.3087 452.2096
1580.8595 465.62888
1589.7798 454.6372
1601.797 453.06927
1600.0409 467.06305
1591.3612 470.2983
1608.0695 477.92282
1619.2673 485.76508
1624.8606 493.45337
1637.1351 494.55298
1635.8174 484.28394
1651.2993 472.07593
1649.373 484.27087
1656.1096 489.49103
1664.3552 491.10547
1668.5183 472.14914
1693.9653 476.58643
1682.3046 477.7296
1672.6768 485.22736
1650.2527 498.87878
1647.241 517.4247
1649.9116 525.5727
1638.9468 525.2646
1635.7441 517.1349
1636.9452 506.99048
1625.7202 507.49005
1614.9119 507.17355
1608.8419 517.381
1600.5873 520.3771
1617.3325 527.08704
1625.4286 520.37964
1629.9714 535.05975
1638.8909 543.0669
1643.0771 554.34784
1641.6672 562.11145
1633.5624 558.3197
1627.5015 549.0072
1618.5692 557.8154
1630.2942 569.2625
1624.9122 563.1201
1617.4485 569.86707
1607.8477 572.0513
1601.5647 582.8605
1597.7568 577.1102
1599.0706 570.71594
1593.8252 564.9273
1587.247 568.8217
1588.0543 576.4063
1580.2979 582.5573
1587.3674 588.01056
1596.3203 590.9092
1604.5846 593.64996
1598.3623 598.87854
1585.446 607.3792
1583.4731 621.7896
1593.666 625.7521
1601.2605 616.26105
1606.5372 628.1217
1616.9761 621.9958
1621.8351 612.5097
1625.8578 605.69916
1632.6658 598.87494
1639.4529 607.1314
1635.1813 623.28357
1638.3488 640.09045
1645.072 657.09717
1632.3727 669.7241
1612.8701 669.8922
1620.3055 650.8639
1620.8335 634.11206
1603.0278 638.7944
1587.5375 638.39734
1569.6699 621.5462
1574.915 633.4132
1567.9865 647.0781
1558.6321 632.3385
1548.9131 620.9804
1540.81 608.7727
1539.2041 601.2206
1552.7529 605.0068
1564.9563 600.0692
1574.4294 603.91394
1579.1423 595.4158
1588.1306 596.7249
1592.6118 603.3513
1606.0024 604.2628
1615.3027 603.3955
1614.4601 585.2186
1630.8445 585.8209
1637.4735 571.98016
1643.3885 568.89496
1651.1207 565.7585
1653.4287 558.8356
1650.6478 548.5833
1656.9507 537.324
1661.739 548.1183
1672.163 547.7825
1671.7222 557.1636
1677.8291 562.1798
1685.1196 548.4607
1664.5256 560.8967
1669.8438 573.4038
1661.0237 568.20245
1657.3878 575.3759
1650.726 573.8776
1645.8003 577.9287
1647.3164 585.5948
1646.9172 593.0056
1644.0469 600.23016
1649.1704 602.0397
1650.8119 607.3995
1656.9806 611.2555
1658.3289 602.5237
1665.5596 602.6375
1661.9032 595.59674
1670.8215 595.57404
1673.1056 583.96466
1655.7673 589.9558
1654.5186 596.1221
1654.176 582.56433
1663.6659 584.2685
1673.6466 591.12744
1681.3584 599.7838
1679.3828 608.7451
1667.1445 610.51215
1658.169 643.6427
1652.3713 627.1378
1674.3276 628.8768
1682.7468 645.1923
1670.165 654.43
1661.3318 661.5298
1655.0256 671.2505
1646.9219 681.1813
1636.5295 692.92426
1653.5846 695.9962
1662.7358 688.11444
1666.3848 677.22925
1674.9556 671.1007
1685.2664 664.5237
1695.9443 675.5916
1707.6785 684.5248
1702.2463 698.76855
1700.3245 714.1185
1682.6526 701.0669
1687.6913 690.69183
1675.5681 686.5111
1669.2161 698.1553
1654.0901 712.1882
1662.7079 715.0285
1673.1946 715.2297
1682.7867 714.89746
1691.0446 714.42053
1712.7056 714.7268
1724.0737 711.80707
1734.5986 713.16406
1748.539 711.9856
1758.7898 699.5497
1748.3922 694.5382
1738.8646 689.16547
1731.6625 697.88306
1718.4197 696.5588
1724.4124 685.89905
1721.9451 672.5726
1735.3167 668.22644
1744.2045 657.1353
1753.7557 668.93915
1753.7317 682.0841
1767.8329 669.1712
1780.6735 670.34204
1795.2646 662.5526
1805.8119 646.93396
1792.8281 635.21747
1777.5239 625.0511
1776.6351 647.41565
1761.5369 653.8978
1756.0774 638.9059
1767.9065 634.69464
1784.1443 608.76556
1791.811 599.8834
1807.1935 597.84375
1809.7705 586.1356
1806.548 578.60254
1805.3247 571.986
1804.483 565.5582
1810.9878 563.02966
1814.8154 571.1112
1822.7039 566.0287
1830.5886 573.6975
1837.3982 566.7305
1848.471 567.3865
1851.5128 557.48987
1858.037 562.5889
1860.3641 569.1432
1869.0465 560.6405
1861.1399 556.0112
1864.8325 544.8354
1867.6654 531.9071
1878.8308 531.972
1891.1252 546.9187
1890.7747 556.1425
1890.6495 538.41815
1889.6543 530.9819
1893.581 523.7921
1884.0583 524.31946
1889.455 517.65466
1890.7667 511.60065
1893.1309 506.47272
1888.2272 505.57233
1871.1642 517.4264
1859.764 512.1918
1867.0847 501.0654
1875.928 507.11032
1882.6765 512.633
1883.7018 503.03867
1889.6094 499.73016
1891.8627 492.65936
1884.1729 490.84717
1888.7676 481.83142
1889.9939 471.301
1879.9009 467.46826
1888.4944 459.64465
1889.6553 448.2728
1888.8295 435.62964
1884.3137 424.9693
1888.7341 419.36334
1893.2069 410.59955
1884.6448 406.65576
1888.8752 400.0582
1889.2476 389.8954
1878.2139 386.94373
1874.78 396.9272
1862.7793 398.95724
1854.4976 389.52533
1842.8188 386.8674
1828.9109 382.57126
1832.0483 372.34836
1819.699 368.39056
1807.9038 373.00494
1811.6744 383.91113
1818.4504 390.9935
1813.1655 400.11505
1816.8201 406.43347
1799.268 409.76596
1788.8591 414.24265
1774.6975 420.63632
1773.3364 436.01535
1763.3767 438.72968
1757.5437 443.34076
1756.7317 456.94028
1747.9609 466.05054
1739.8557 471.5147
1738.2224 480.85114
1752.2557 494.51947
1749.0571 503.05112
1752.54 510.48935
1746.1343 513.7137
1739.4957 509.42856
1728.2532 508.07077
1717.5469 502.71045
1710.999 507.30258
1704.3379 492.73337
1717.3391 491.193
1728.6578 490.5803
1736.5654 496.9106
1743.5177 492.3886
1750.6516 481.50488
1766.6663 482.27966
1762.466 491.69446
1774.0977 496.6897
1768.6489 506.60193
1786.2051 501.50397
1803.5194 498.76096
1805.7872 515.74963
1818.2761 518.4854
1820.2357 503.54224
1821.271 489.38177
1828.4037 478.17993
1829.3438 464.63208
1841.5958 462.74445
1839.1667 455.90134
1832.4375 449.63354
1819.4065 456.3989
1812.4025 465.71063
1805.5249 481.52
1785.6738 479.57407
1770.8552 474.66168
1758.5569 473.54257
1749.1333 445.07288
1739.4397 440.51694
1751.1381 431.42453
1743.1526 423.46396
1733.1072 417.2031
1722.1831 423.6891
1713.6395 440.5207
1727.9734 438.57294
1714.5486 462.21335
1731.2032 456.9411
1726.0742 468.55585
1725.0681 479.53802
1712.7318 475.92657
1703.5164 474.75336
1701.0153 466.1992
1694.8119 459.1184
1684.1271 465.2926
1682.1786 457.77783
1671.6836 458.68274
1661.3959 460.002
1649.5969 458.08542
1633.9684 461.46954
1621.7639 458.66223
1612.0214 456.3718
1621.8564 474.69525
1635.8721 474.8236
1636.6663 454.2312
1621.8777 443.3005
1606.684 433.3681
1598.5193 442.02966
1591.4403 433.59467
1578.6387 432.73193
1565.4749 440.7426
1556.146 449.37897
1556.6615 461.53644
1571.1726 465.41745
1562.9365 466.6771
1549.2493 464.6837
1540.1993 465.8449
1531.7573 467.22946
1533.9912 473.07373
1539.3134 478.7787
1539.999 483.43198
1553.7407 480.06836
1555.3186 488.43112
1565.7849 484.44855
1580.7587 481.0874
1575.4935 488.37497
1583.4546 489.06732
1596.9165 486.55637
1606.604 493.73593
1589.9243 490.8203
1589.5815 500.55396
1598.5282 505.29443
1591.845 522.9041
1591.0073 532.203
1589.0277 550.4844
1593.3751 546.21954
1595.7759 540.02313
1600.9468 544.47345
1603.572 549.64764
1608.885 544.9216
1600.5208 533.265
1607.628 534.4726
1615.7688 535.8971
1617.6765 546.2699
1608.3075 549.17914
1613.2844 551.09094
1608.7557 556.5109
1610.8508 562.83716
1601.6201 562.3358
1597.8959 555.02246
1586.4883 559.469
1573.4587 555.45465
1579.1863 548.2072
1582.731 539.79236
1571.0403 536.84845
1559.8804 539.2532
1551.2148 544.8548
1549.8738 554.3342
1546.8306 560.4166
1541.3652 567.697
1550.8159 578.11914
1553.008 566.9248
1561.8708 569.67456
1564.3419 560.71814
1577.6338 568.17395
1570.8303 576.5974
1569.038 588.7112
1557.2034 580.28564
1555.326 590.85205
1544.8114 589.9068
1536.3225 583.7474
1539.8901 576.9861
1535.8285 594.7015
1529.2388 590.80554
1520.513 596.058
1517.8434 606.9104
1529.7017 602.92035
1507.604 597.5999
1514.4889 588.6374
1519.7423 582.65894
1513.6128 580.33093
1518.7345 573.22363
1520.0172 564.9641
1531.1252 564.9602
1535.9155 551.4988
1538.2966 535.7593
1545.5515 523.9663
1556.2686 517.4106
1566.6381 520.7761
1580.5592 522.615
1583.7476 513.67474
1575.7734 502.94244
1566.8882 499.31592
1554.1914 501.45453
1543.1707 488.7081
1533.5223 488.62354
1532.758 480.91864
1527.702 480.9923
1521.2343 480.0294
1524.4282 473.51657
1517.2655 472.20346
1509.3044 475.9809
1499.3911 482.81
1506.7671 487.3871
1500.007 465.85785
1494.26 474.90793
1486.544 483.02155
1463.4705 477.51514
1467.2056 461.42905
1476.1438 455.46484
1482.8878 447.21164
1476.7974 436.5162
1488.5398 425.7153
1463.9209 442.86987
1460.4812 431.03378
1448.151 441.46918
1434.717 439.24414
1424.067 430.87253
1406.1725 428.58054
1403.585 438.09875
1416.4656 441.57056
1411.249 454.2534
1419.6732 452.25922
1427.363 450.83875
1436.7617 451.00854
1458.0056 450.52417
1452.2893 461.3448
1442.1749 457.67755
1432.179 465.06454
1422.8638 472.63763
1412.9551 480.24762
1423.1143 481.40805
1413.378 489.94592
1418.3276 494.6805
1428.1398 495.4425
1436.8016 493.98615
1446.4543 494.71356
1449.9803 482.3436
1447.3093 472.85938
1435.0999 477.8398
1422.5096 461.42
1413.1522 467.72873
1403.1692 473.207
1395.1619 477.4835
1401.6007 482.25604
1403.8191 489.2727
1390.8655 488.24683
1397.5094 494.65768
1419.8977 503.196
1409.905 510.33917
1405.2383 499.96185
1391.3866 503.22638
1382.0061 498.63464
1375.4055 491.64978
1370.2214 486.11865
1377.3118 477.88928
1382.3411 485.7793
1386.3619 476.72675
1389.0361 460.99774
1396.1125 461.5279
1393.1963 454.0816
1385.2107 450.34702
1373.8066 450.9698
1381.2517 439.2834
1373.1912 440.781
1368.4788 430.57465
1358.4299 426.78033
1349.823 424.73828
1347.5011 432.62253
1351.47 438.23975
1358.4302 439.06433
1365.2123 437.30804
1364.9135 444.43793
1363.1672 452.28052
1353.634 447.52423
1343.2084 449.28668
1341.339 441.44162
1333.5461 439.30746
1328.4679 432.77954
1332.7158 452.13306
1325.7153 448.24066
1322.9686 440.45416
1313.5044 441.05673
1322.172 433.0855
1333.1744 428.347
1341.0862 429.10898
1338.533 421.99298
1343.2638 418.99692
1348.8948 417.59384
1355.1971 417.09174
1361.9701 416.89902
1339.9336 411.35886
1332.0718 415.43674
1330.916 402.778
1324.3746 412.76434
1324.3195 422.5157
1315.4719 421.01636
1314.3403 413.7761
1315.4343 404.06982
1322.5969 404.20395
1320.3555 393.88464
1327.9343 388.9383
1335.4377 394.84955
1337.0801 385.33838
1339.008 379.1825
1327.9316 380.0747
1319.6077 384.4404
1315.0625 377.6589
1312.1228 367.05173
1303.2838 374.07394
1296.1206 366.1883
1294.0789 372.74243
1294.3413 380.72278
1297.3903 387.05286
1300.8538 392.41522
1304.889 383.73877
1311.7002 388.95825
1312.5155 396.25912
1306.9412 398.4425
1303.0122 398.1429
1306.1746 407.9581
1299.3281 410.6457
1299.2682 400.9065
1294.0344 402.67892
1290.1195 407.3067
1285.7389 411.96484
1284.6556 421.31543
1286.3893 428.9201
1290.8014 434.4245
1283.1829 434.36804
1286.4226 440.32977
1281.8087 446.3651
1278.7898 439.05136
1271.303 441.19934
1263.416 439.63953
1258.3984 445.41623
1254.5286 452.71228
1251.0546 448.08527
1246.9814 453.58395
1246.8967 465.29266
1253.9719 461.2484
1254.33 469.0927
1262.991 469.66614
1264.302 460.45493
1262.9863 451.24487
1269.5164 451.3288
1275.3251 447.6417
1277.8927 456.1008
1289.3606 457.7282
1305.9912 456.88364
1300.5472 451.34998
1298.49 458.77826
1292.1077 451.46503
1288.9696 446.33652
1295.2524 442.7693
1297.4052 436.69504
1299.9061 430.3493
1293.6133 425.6983
1293.9906 417.25397
1302.7926 419.86887
1307.5325 425.97934
1317.814 429.18353
1312.987 432.6822
1306.9492 436.4381
1302.3687 442.9336
1306.147 448.3487
1311.123 449.2745
1317.2399 446.5676
1317.7567 452.8763
1312.5933 455.94873
1310.9031 462.15646
1317.3031 462.25278
1322.7559 457.9184
1331.3589 460.4563
1328.0648 467.43286
1322.2296 468.74207
1315.5001 469.22812
1308.8485 472.54944
1304.8906 465.93967
1298.2574 470.31042
1300.3499 475.3269
1296.7743 480.12982
1306.2319 480.80258
1321.006 485.50415
1323.681 476.72202
1316.0928 476.78833
1313.2255 481.24423
1311.9683 486.96542
1315.1183 493.43768
1323.3511 493.7945
1330.132 486.93588
1332.5015 493.04755
1335.1554 499.60565
1339.9282 504.5575
1347.292 500.10938
1343.737 493.25534
1357.0139 500.33746
1348.2676 509.48273
1351.2891 515.87915
1351.3739 523.08325
1358.1099 526.16565
1362.2454 513.6512
1371.7611 505.4719
1366.4536 496.83115
1362.2047 489.85913
1351.5305 486.77173
1358.4567 484.175
1363.5492 479.2008
1369.557 479.40366
1359.4103 474.77075
1355.6799 471.34668
1353.2249 466.15308
1346.8704 464.55798
1349.2458 472.0376
1351.0957 478.02234
1343.677 480.23212
1339.9209 485.96405
1331.5625 480.20862
1334.1931 474.27832
1337.1067 467.1256
1342.3401 472.6712
1340.5728 458.8541
1348.4515 455.52618
1356.0151 457.70752
1360.9653 465.0323
1368.05 461.8272
1368.5797 471.64902
1376.8641 466.64087
1380.835 459.1646
1389.2634 468.79712
1398.89 467.66318
1403.9698 462.33823
1401.4106 455.0877
1400.3772 447.19812
1391.7908 440.88214
1394.4982 429.6712
1398.7295 420.22266
1394.8087 411.12558
1388.22 417.73102
1382.5784 428.43457
1377.2687 419.5394
1369.6633 418.6989
1368.1556 408.5094
1371.7489 395.39258
1379.675 398.7075
1384.0686 407.06235
1395.8801 403.18335
1404.186 402.89496
1402.7734 409.67758
1402.7788 415.6341
1407.3213 413.16095
1408.4814 419.77985
1416.5187 422.70016
1417.363 412.91135
1413.2148 406.85797
1421.4039 402.35883
1431.169 406.07898
1431.2925 415.8126
1442.9792 425.57037
1444.7529 407.46527
1456.4451 413.34485
1461.554 397.57565
1472.222 413.5007
1479.738 421.57916
1479.9424 400.72754
1481.2222 388.30566
1471.863 388.13654
1460.7191 383.42212
1465.8499 373.2113
1460.8544 361.4643
1447.9221 362.29364
1445.6395 376.67285
1447.9868 390.8847
1434.6841 393.65375
1432.3062 382.27014
1430.5854 373.22687
1429.5428 361.0511
1438.84 355.40955
1447.5594 352.336
1429.1617 349.10956
1417.1296 350.58197
1404.452 354.83505
1414.419 357.2204
1416.8909 363.87244
1416.5712 379.04712
1416.9143 372.04123
1417.2476 384.81152
1420.3096 392.28375
1413.7433 399.021
1407.7056 389.6496
1401.3715 394.82916
1405.4794 374.96454
1399.7697 373.93515
1401.0396 382.5129
1392.9966 385.3794
1391.1559 394.47202
1383.8748 382.41376
1385.1438 363.3076
1381.3215 357.00684
1373.8861 360.08698
1369.2148 352.16022
1377.5127 346.91534
1378.9989 327.86584
1368.9478 326.09747
1355.3525 317.5717
1354.3336 309.8335
1346.0796 309.74042
1357.0117 303.4974
1349.9655 297.2893
1353.5278 290.32544
1356.6548 283.49683
1349.1067 280.73544
1350.4414 273.20056
1346.1323 267.0326
1336.9966 275.20453
1337.5269 263.6243
1327.5624 266.30203
1329.1891 282.76382
1321.3492 275.73862
1315.3754 268.43704
1309.3796 277.9156
1301.729 280.89496
1294.1182 284.98434
1300.6411 290.50916
1309.2692 293.32806
1316.9343 286.60522
1313.2454 302.69617
1318.5647 309.85855
1314.0198 316.28033
1314.5155 324.13434
1318.3636 330.95154
1317.4147 338.97437
1311.5052 344.10114
1325.499 335.3775
1328.2448 328.71738
1330.9481 319.41507
1323.1825 321.0689
1335.248 335.2581
1331.8066 342.3473
1324.7787 344.3447
1319.5076 352.44406
1327.0228 352.81097
1330.7449 348.6157
1336.7002 346.4563
1343.0323 349.0362
1350.3516 348.78516
1350.855 341.74713
1353.3501 332.3999
1339.6892 331.81177
1341.1578 339.54523
1334.6321 327.7796
1339.5627 323.60275
1348.7509 329.8884
1344.574 332.96307
1347.6855 336.5204
1343.8872 327.89014
1351.1384 324.6973
1344.7933 319.34717
1336.8577 313.8922
1340.23 301.9204
1328.3384 305.77792
1322.4722 296.59128
1333.5815 292.96237
1342.9777 288.14813
1361.1298 289.62677
1361.7683 296.60703
1368.8163 290.69797
1373.0487 284.26263
1379.6652 287.91043
1387.4341 285.30646
1381.8949 277.90265
1378.703 269.19135
1373.0396 273.2744
1368.481 277.2265
1365.1853 283.63403
1360.227 275.3708
1368.8796 266.83252
1362.8438 262.89737
1355.314 263.24518
1376.0889 250.61198
1379.8026 253.07896
1382.1086 257.51007
1386.6903 254.04373
1395.9375 263.37036
1393.1997 255.28241
1416.2516 246.11888
1402.2322 246.26836
1404.8247 259.7885
1407.174 271.4433
1419.3257 259.03308
1421.8883 272.1124
1432.5654 272.19986
1440.6075 272.34995
1446.8374 279.1282
1446.97 289.7415
1434.4902 288.28824
1424.6987 295.39948
1413.8035 299.36676
1403.8384 293.72855
1403.7808 304.14078
1396.4055 301.3351
1389.8762 306.00504
1380.9894 304.42664
1376.6578 308.92126
1371.4835 305.79596
1366.5717 301.28
1372.5607 297.3841
1376.5828 294.21866
1381.8523 295.73712
1385.987 300.18
1389.294 294.6323
1394.8092 289.80438
1401.0627 286.00525
1401.8818 279.3224
1416.0347 284.2087
1393.751 275.2773
1386.2131 268.71234
1385.8044 262.03354
1376.109 260.50568
1368.5529 254.93987
1361.1211 250.76907
1351.9154 247.34897
1347.9998 257.2456
1341.7634 253.46367
1338.9222 246.2915
1330.668 242.56805
1328.6047 249.6113
1321.2446 243.85503
1319.9702 235.55966
1329.1504 232.01935
1346.9703 235.33527
1337.7175 233.31956
1323.047 226.53174
1314.5837 218.9171
1319.4001 208.59839
1308.8246 205.79326
1300.0305 217.88992
1296.1571 231.6257
1284.9187 226.22339
1283.7361 237.28107
1287.5273 246.03569
1289.8488 255.68265
1298.0961 255.55588
1303.9722 260.00443
1311.4238 258.1466
1319.3242 259.7582
1332.4568 256.25983
1325.1003 256.2006
1317.0151 251.43297
1311.3289 245.86862
1299.5078 246.35612
1304.3834 238.02118
1313.7444 234.45718
1306.198 227.3825
1284.035 216.46625
1278.3002 207.99878
1271.7789 225.22842
1261.8853 225.5672
1264.8225 235.776
1259.2109 242.69516
1272.5956 240.97226
1250.0714 247.09201
1240.307 246.76721
1237.2657 258.61545
1243.8368 265.2938
1248.5354 257.00323
1256.6858 263.84296
1260.5513 254.30313
1269.4282 254.28256
1277.5422 249.01273
1278.9287 256.7606
1267.3684 266.7674
1251.1458 273.55557
1242.5719 274.64984
1240.3701 285.74622
1249.8885 283.9214
1259.5344 286.25372
1249.8937 294.21848
1238.6693 298.8448
1233.0614 292.67496
1219.929 302.5349
1211.7441 311.57938
1197.369 302.12088
1199.4426 321.21243
1200.2327 311.56638
1190.1431 312.17328
1185.5201 319.0628
1177.7266 321.18124
1166.463 316.79443
1171.2555 307.61523
1178.72 313.44168
1181.3867 306.5258
1182.6366 300.24518
1188.1515 292.4441
1198.1187 288.09717
1209.2422 296.18274
1212.1873 286.97784
1212.3115 279.12915
1206.0645 274.46106
1221.4386 273.29156
1220.7482 281.98517
1226.6826 281.71277
1223.928 292.3754
1231.9285 282.95715
1234.1145 276.70856
1233.4395 268.15735
1226.2728 266.36108
1219.0262 262.68338
1227.5596 256.54272
1232.7183 249.86308
1245.7876 237.03137
1254.02 229.79504
1266.7197 214.46274
1289.9658 203.81845
1298.964 207.67392
1303.0851 195.89273
1296.6127 188.87689
1311.9487 177.86163
1306.2986 185.2396
1316.7445 193.5971
1327.3649 199.82632
1329.0186 216.57623
1337.5181 218.96295
1344.5679 216.44354
1344.3477 224.95685
1350.4645 215.73082
1345.4244 209.90451
1336.7905 208.54407
1337.7881 199.82144
1343.8942 191.56511
1340.493 179.69754
1331.2694 187.71233
1322.8147 180.44238
1322.6761 168.99411
1343.407 141.60309
1339.904 152.75073
1330.9824 158.82568
1339.7451 166.93388
1354.0518 166.59995
1351.1145 156.67188
1350.2928 148.5488
1356.377 143.4123
1351.4731 134.52837
1360.5867 130.65968
1369.9551 128.07544
1379.3328 132.2456
1386.8298 138.01825
1386.5742 147.88504
1377.3325 150.0849
1375.7635 141.41501
1369.3032 139.87997
1362.8926 139.5355
1364.4547 148.34845
1368.7075 155.20079
1377.013 159.83566
1385.1383 157.41452
1390.6085 181.64893
1383.4727 188.13641
1380.6577 197.82193
1387.9354 198.68121
1393.1139 191.28421
1400.1832 193.72186
1396.005 203.96695
1396.3984 176.19286
1390.0391 168.11023
1381.5686 169.93138
1377.898 177.86327
1373.6549 186.44943
1362.5684 171.41302
1369.7161 166.52173
1361.6393 160.5405
1352.7242 175.70096
1355.5054 185.12451
1366.4382 179.25487
1363.3496 192.18533
1373.4695 193.25766
1354.6136 196.4693
1347.0554 202.07056
1354.096 206.24522
1361.249 207.88737
1361.4248 202.1492
1367.9993 198.74338
1374.4727 201.22124
1371.1958 207.0288
1366.3025 210.6481
1357.237 211.87993
1354.367 218.98076
1360.896 217.82138
1355.7854 226.87979
1357.9403 238.1173
1366.9893 240.87997
1370.7708 246.882
1377.133 241.98126
1374.823 233.6126
1366.1816 230.40959
1367.6002 219.76317
1376.7957 223.49693
1384.6606 219.06445
1384.5653 212.09782
1377.0837 214.1334
1379.2716 205.71556
1385.6609 205.47034
1391.0405 209.30951
1396.1472 217.13565
1390.6375 226.71317
1383.9753 236.41519
1384.0533 247.24277
1392.5151 246.28809
1394.6218 236.2692
1402.7584 231.04172
1417.103 232.63628
1432.4164 221.21527
1429.9751 211.79745
1443.0417 216.31534
1440.9464 203.07993
1425.2141 176.28697
1419.2688 168.75041
1415.0952 158.47852
1421.018 149.43954
1417.7383 136.5817
1408.2905 127.0378
1403.084 117.05983
1447.1875 83.98168
1428.0135 80.30218
1416.8752 88.83322
1406.238 94.19689
1393.0214 97.44356
1400.1538 106.39377
1382.2937 108.85843
1378.2986 120.68602
1389.7224 118.94842
1396.1951 131.84055
1404.7501 141.47742
1397.2803 146.50145
1393.6831 155.97238
1403.2488 158.37448
1400.991 168.54865
1405.1753 181.49252
1413.4866 189.72134
1421.0005 195.291
1408.7494 196.25568
1403.6501 201.8012
1404.1477 209.79271
1405.8269 220.26764
1416.8123 205.75558
1418.9795 217.7521
1432.1481 237.05566
1442.0767 246.08093
1433.0914 258.20346
1443.3245 260.1496
1450.6248 269.61578
1462.7506 269.3553
1456.8375 280.11057
1442.4438 301.22314
1443.1768 312.85803
1448.9553 319.82928
1441.0895 324.62634
1453.8801 327.43973
1469.2627 327.71033
1466.6162 318.4978
1458.9904 312.53366
1457.2415 298.66895
1464.6992 286.92728
1473.622 298.0006
1484.127 308.31506
1481.0566 321.55334
1478.9954 335.14023
1463.0286 339.43738
1470.782 339.3915
1479.5052 347.21774
1478.1973 360.85352
1482.5598 378.13168
1487.9113 367.69223
1498.4442 362.7789
1512.3494 361.1407
1511.856 372.75436
1521.9023 368.4984
1532.4062 371.71082
1531.4648 355.97168
1511.2402 349.81494
1508.8596 336.7248
1524.6051 340.0716
1541.285 343.33502
1554.4443 345.46027
1564.7926 344.78278
1574.0521 344.60223
1582.5203 346.34753
1592.4985 346.2516
1586.9763 355.58374
1574.5101 353.93344
1562.8513 355.47885
1567.1199 364.93408
1567.0029 374.96515
1556.6492 367.45825
1547.5549 358.7575
1543.413 368.96277
1530.1166 383.12598
1540.801 394.98703
1550.8755 398.3586
1541.27 383.71298
1532.635 391.01666
1522.971 390.71933
1520.8306 381.31345
1513.3926 387.32263
1504.4156 388.15515
1498.9988 379.92352
1493.0874 387.16504
1494.8683 398.5754
1504.0686 402.26462
1510.7289 400.4316
1520.2076 403.20886
1530.4131 404.43576
1539.8474 405.52658
1550.2762 418.7284
1539.6636 415.88098
1540.6624 424.86243
1537.3069 439.0702
1537.2395 448.0088
1539.8453 455.948
1536.1693 432.44177
1530.5162 425.87518
1529.958 416.28183
1521.7261 413.14804
1515.718 420.344
1508.6014 413.48755
1498.5646 409.95517
1490.5833 412.27594
1498.7278 421.4124
1505.2831 426.20978
1507.4799 437.9795
1496.7495 443.41437
1494.3977 433.58383
1516.1742 430.8043
1523.3738 423.67365
1524.8156 433.72714
1526.8335 444.61923
1517.2734 444.54883
1517.9731 453.38446
1528.8347 455.7614
1522.3188 463.877
1510.8461 464.08118
1506.2456 451.5001
1493.9165 455.2524
1481.0757 470.60272
1477.6931 486.81982
1463.4589 493.85095
1470.1417 497.6057
1468.1106 519.5679
1452.3591 518.252
1463.4763 508.30426
1460.8403 501.82846
1455.7858 494.83838
1452.1921 502.6745
1443.3011 500.5274
1441.9498 507.0791
1431.9724 510.12158
1422.551 514.91516
1440.54 522.83484
1450.0671 526.3738
1452.7136 532.1929
1460.0339 534.3483
1462.4851 526.1681
1471.3923 528.97284
1479.6892 529.37885
1489.4575 530.0287
1496.4758 541.6753
1507.9521 544.1764
1499.9548 551.78625
1496.6609 557.9618
1489.9493 549.19366
1484.7722 555.7157
1480.977 547.91174
1474.1675 552.3795
1474.9008 559.62384
1476.3961 539.89294
1486.929 539.0806
1480.0688 519.2549
1493.8569 509.91367
1478.7871 507.7572
1479.6992 497.8468
1488.5564 494.66016
1491.765 498.348
1497.9445 496.86523
1518.331 490.19553
1527.172 497.08078
1539.7383 501.37567
1534.3276 514.04297
1521.5714 517.4942
1515.9913 507.1587
1507.2378 498.69345
1505.7803 514.71826
1497.2426 523.758
1508.8933 530.5846
1522.355 531.0403
1523.3275 544.0053
1520.759 555.2313
1508.1042 555.55286
1508.2899 563.0536
1508.9873 570.6616
1494.9248 566.9906
1488.7524 562.8395
1482.1284 565.28125
1476.5364 571.5271
1469.0969 565.65814
1461.795 566.68964
1464.5913 577.55786
1473.5304 581.5865
1480.7463 582.28674
1492.3582 588.1957
1490.1431 576.3897
1498.7439 573.64136
1505.4298 579.2934
1502.5388 586.9678
1487.6775 600.5549
1478.3281 595.93677
1467.8201 600.40125
1456.696 602.4737
1445.5537 599.1329
1443.7959 612.22675
1423.4573 625.38403
1407.9817 620.5083
1402.9341 606.3933
1416.1982 605.64246
1428.8502 605.56995
1435.9934 593.7192
1452.123 585.80884
1466.5621 589.0941
1452.1736 572.53564
1440.7109 576.67346
1433.1864 555.2046
1429.7865 550.4033
1437.4783 552.78766
1442.655 553.7214
1442.7113 559.64026
1448.7524 559.4971
1452.7701 565.3436
1456.4489 560.17957
1459.3982 554.843
1466.316 553.952
1463.08 541.2575
1449.8174 539.4252
1442.717 543.7796
1450.5428 552.3297
1443.0516 567.3864
1436.2982 562.99133
1429.8058 559.033
1427.0688 566.1266
1428.2676 574.63104
1427.5985 583.13794
1426.6211 592.6023
1419.7056 596.6391
1418.4648 587.21295
1417.958 579.1903
1418.7644 569.06213
1410.5298 570.7296
1402.1451 573.8373
1393.614 575.6083
1387.7234 573.562
1384.1189 569.3039
1378.1157 565.3858
1383.3805 562.00854
1388.7764 558.80554
1391.6022 565.93665
1399.4331 566.4534
1404.6975 563.2529
1406.2175 557.7234
1412.9761 557.58435
1421.8894 557.99384
1419.5745 550.28455
1414.3246 542.69824
1405.0273 548.24725
1398.5547 558.302
1394.0885 555.2367
1397.3528 547.30286
1388.8044 549.1188
1387.8859 540.7466
1395.8262 537.523
1386.402 532.0356
1387.9441 524.53394
1394.551 524.5971
1401.1917 529.7593
1405.3218 537.89087
1413.1669 533.12
1420.7063 532.5864
1425.8705 538.86145
1435.6858 539.35156
1434.8741 531.0912
1428.7551 523.8518
1420.2058 523.33264
1411.9812 523.2189
1402.4535 520.0056
1399.2756 510.327
1391.4431 514.9896
1383.3676 512.20166
1375.2297 514.34985
1372.446 521.5189
1365.7068 525.21265
1373.4084 530.17834
1380.5378 524.0579
1379.7423 536.0664
1372.4395 538.2554
1365.6631 534.4988
1361.2555 539.09955
1364.6036 546.4912
1357.1443 545.6064
1350.6802 556.56433
1358.7573 555.17487
1362.9683 561.2136
1368.3727 554.2413
1372.7882 546.4448
1380.4917 544.8385
1381.4502 553.0022
1375.956 557.4061
1370.4241 561.57874
1371.884 568.9862
1364.772 574.8014
1361.23 582.6922
1368.7137 583.2321
1373.6917 577.4253
1377.9576 585.35187
1376.5103 595.48834
1376.8542 601.6353
1373.6257 607.76746
1383.377 610.0605
1389.6646 604.49146
1391.7167 596.4523
1401.2289 596.3519
1409.852 596.5122
1408.2822 583.66125
1398.9648 583.7651
1390.6377 585.5761
1384.7201 581.3264
1381.502 575.98267
1378.4388 573.341
1375.8734 570.7484
1368.1099 567.72546
1364.658 566.2498
1359.7986 570.2822
1355.1191 564.1212
1350.338 571.6856
1341.0791 576.26245
1334.7762 568.71606
1342.4607 563.14355
1341.9202 554.6589
1335.0063 553.1342
1330.6293 544.53564
1338.9707 544.6433
1345.0486 541.4634
1345.5513 548.0084
1351.6653 547.7372
1351.8668 540.2543
1354.4164 533.7511
1345.9495 535.48804
1338.0105 536.23755
1335.3307 528.48444
1344.9937 529.0081
1341.8724 520.0232
1335.3643 509.96735
1330.0837 515.51843
1334.6028 520.19183
1327.9504 524.27057
1321.2034 521.52576
1314.2483 519.97156
1319.2233 510.4168
1326.5833 508.21234
1328.0188 501.1222
1320.5985 501.20715
1313.4893 500.92685
1309.7853 508.25476
1305.8285 515.02374
1298.6731 514.9999
1293.2009 525.745
1287.8094 520.1428
1287.9244 513.31726
1292.72 509.56442
1298.1251 506.10974
1302.3958 501.7451
1303.392 496.08884
1307.3813 491.45245
1300.8643 487.64145
1295.4164 492.15668
1291.422 497.86752
1285.2255 501.74072
1280.5238 492.35394
1287.869 487.28134
1289.9554 479.9043
1292.861 466.72446
1283.1074 464.28644
1272.6443 468.95944
1284.9451 473.54504
1277.7041 480.99414
1267.802 482.6362
1259.3579 477.6128
1259.3057 494.3667
1269.4038 492.98907
1274.4218 502.13495
1280.3419 509.17267
1270.7612 513.16736
1271.8726 523.3537
1279.55 520.2615
1263.5704 522.56006
1255.0945 524.1732
1246.6548 526.84375
1246.0212 534.8088
1245.2228 542.8047
1243.0205 551.6732
1237.678 565.59143
1234.2317 558.3601
1231.0796 552.65784
1235.6583 545.7486
1231.9551 539.74915
1232.1846 530.54517
1234.8806 521.3788
1237.9865 513.6858
1242.8838 504.45587
1253.3293 504.10767
1264.8425 503.36093
1259.851 511.35742
1256.2976 516.845
1247.1262 516.2321
1232.4685 507.09326
1226.0505 488.57785
1215.136 490.88046
1209.0757 485.78326
1204.6626 477.957
1210.3856 469.8659
1216.199 478.97888
1224.2174 478.72247
1232.2307 480.74982
1237.6165 484.80945
1247.121 483.99335
1250.5322 478.32516
1257.1863 485.7188
1251.0383 490.27332
1248.6853 497.0813
1243.417 490.87286
1236.5801 493.65393
1230.8248 497.29697
1224.0775 500.6676
1218.9586 495.8291
1211.6704 499.99182
1202.5342 498.2578
1199.7554 489.7929
1194.0193 485.4054
1185.4711 486.29428
1178.0118 485.9023
1177.0159 474.93393
1169.7382 480.18567
1174.3954 463.69763
1169.4786 469.14954
1164.6418 473.16473
1160.7426 480.3061
1155.9296 470.8436
1159.0518 464.91577
1156.3915 456.055
1154.601 448.2263
1145.5088 450.3963
1139.5057 443.75323
1137.7228 456.06378
1132.313 448.53546
1130.5844 439.46494
1128.4062 429.09106
1119.6108 431.49377
1110.807 434.643
1109.7917 442.57037
1117.8997 441.5241
1123.7866 445.578
1124.0173 452.32062
1114.8088 452.3773
1108.5664 450.18457
1102.3442 450.5952
1101.2458 443.45538
1097.5547 438.33957
1111.642 424.08752
1109.5942 405.0688
1113.9119 413.44382
1121.929 417.8783
1131.2675 418.25058
1128.921 407.92358
1140.2761 404.95294
1140.404 390.48724
1130.2684 393.42453
1124.7148 396.30652
1119.8286 403.203
1114.145 396.81067
1107.3188 393.6278
1101.3376 397.15216
1104.0999 386.07166
1133.126 384.6447
1128.2915 378.52704
1130.5464 370.62518
1139.5983 368.3845
1140.475 377.7236
1147.4799 381.00183
1150.1285 388.0459
1156.8623 391.73618
1147.3585 398.76343
1157.7032 402.18036
1164.0295 408.19562
1165.853 421.83102
1158.599 421.90894
1152.3976 412.36584
1144.3445 419.0121
1137.7032 424.95917
1141.3364 433.79858
1147.5659 439.70203
1153.5594 431.77963
1165.2242 434.9065
1173.9017 431.59247
1180.1461 434.63507
1185.2361 429.27942
1179.7129 425.7628
1187.2133 420.90704
1170.5093 424.028
1176.0525 422.8565
1176.0082 416.4668
1182.5878 411.0373
1190.1324 406.65765
1198.6073 413.3474
1202.4651 422.06226
1196.0706 426.86755
1200.5641 432.69006
1191.4209 434.7735
1183.8818 440.67493
1183.7986 453.02338
1190.264 449.47543
1197.0664 443.19934
1199.0746 451.67474
1195.3278 460.56467
1201.0793 467.66064
1195.6124 473.25867
1190.8992 475.72174
1187.3668 480.12146
1183.5222 475.6241
1185.6617 468.37646
1182.8135 462.14722
1166.366 460.06744
1174.6106 453.6793
1173.964 443.18225
1163.3961 446.1848
1148.5903 461.73743
1141.5785 464.6688
1132.7025 465.74988
1126.2678 459.04062
1124.1088 466.1893
1125.4502 473.49973
1121.626 486.16864
1115.7092 489.76486
1105.3328 494.77905
1104.1191 503.74567
1112.1823 504.80988
1115.0851 497.2174
1123.6416 505.68616
1116.6476 511.23108
1110.8911 515.98663
1102.2201 514.4222
1094.325 517.801
1096.4934 526.4563
1091.9698 533.3246
1096.7822 541.6788
1093.7048 550.6406
1098.0822 556.6444
1093.8765 563.69635
1100.3265 574.5207
1104.1117 567.76086
1112.0455 566.6251
1108.4753 574.38556
1114.0542 578.3756
1108.1694 583.05457
1102.5233 586.6004
1095.104 582.1264
1094.7445 570.4404
1092.0269 576.1041
1095.5493 590.4458
1092.9915 598.8164
1103.3286 596.615
1111.1418 598.2457
1113.7782 589.4322
1121.1094 579.963
1127.5809 582.66425
1129.7998 576.2347
1127.5332 571.4266
1118.4633 571.0384
1119.3582 563.22766
1112.2328 559.00696
1104.1433 561.96106
1105.4574 548.3776
1116.258 552.1257
1125.6735 551.84656
1124.0874 558.36914
1127.1785 564.6053
1134.5829 558.09814
1144.2543 556.9618
1142.4952 549.2257
1154.658 554.56647
1158.2426 564.02356
1154.8508 569.32666
1149.719 563.2558
1142.9318 566.4067
1134.9194 565.4298
1137.223 572.1015
1138.2748 578.85254
1156.6781 581.83954
1165.0377 583.0565
1172.172 588.0481
1181.2152 581.9481
1187.3402 585.8857
1191.3376 574.70044
1175.4281 579.2657
1171.4578 574.8573
1164.9163 571.8927
1169.7795 561.40967
1165.2291 552.6946
1161.3619 545.43646
1163.2603 537.24304
1162.4252 528.26495
1152.8523 522.74713
1154.3413 535.39417
1150.392 545.10986
1162.9009 559.849
1155.7583 574.55206
1146.9636 576.1701
1143.6727 585.5495
1149.1709 591.3169
1159.0901 592.09827
1152.8096 600.5863
1142.5105 601.0729
1139.1813 593.8758
1134.2633 586.56384
1129.5422 590.3473
1123.586 590.63416
1119.4407 595.3603
1117.9523 601.18396
1125.5752 600.2316
1131.6473 597.2087
1134.1376 605.1771
1135.878 614.05334
1136.7648 622.1394
1134.9679 629.86975
1125.0387 630.6149
1116.3531 634.0264
1113.322 642.3967
1121.2148 645.4109
1115.6373 650.7562
1115.7031 662.44446
1128.2806 660.8323
1139.2642 664.682
1133.5455 674.0776
1146.87 672.81274
1155.8645 676.5702
1164.9102 676.2417
1169.6307 684.94617
1176.3983 676.3466
1175.1917 665.3832
1180.2283 655.81396
1172.0973 653.7024
1165.0741 648.864
1174.3806 643.8817
1179.9622 633.874
1199.0779 664.55664
1191.2795 655.33246
1189.2522 673.6928
1183.9241 685.17694
1197.7749 684.55023
1207.4896 682.19525
1215.0555 688.5387
1226.9832 689.915
1243.0829 689.99036
1235.1848 678.1068
1247.771 671.9492
1264.8419 670.54626
1259.3666 680.59546
1258.0144 693.0575
1270.5806 694.2463
1278.3035 692.92737
1277.7554 680.1449
1285.4304 668.79626
1275.3583 663.9729
1269.7961 655.2986
1261.709 644.5704
1275.5762 640.3193
1278.7239 628.3997
1273.6844 618.0062
1289.5938 633.44165
1293.5248 646.02686
1286.6111 654.015
1299.4097 666.3994
1304.7017 652.2426
1315.7 657.9512
1317.5579 670.2184
1316.7866 684.0258
1298.978 681.58105
1291.6885 692.27405
1284.4417 698.7362
1310.8531 700.626
1330.2448 705.1864
1357.6803 687.1763
1350.9998 678.5034
1364.5936 682.88226
1371.5343 691.8105
1372.4565 678.4792
1378.2404 670.0286
1361.7302 671.2744
1363.3582 660.49994
1353.7938 659.7838
1344.1855 653.38025
1338.4119 641.1052
1328.5183 635.4796
1320.1666 645.20996
1330.1738 651.62646
1333.337 664.2656
1346.0134 667.99695
1336.8335 679.9452
1330.0521 690.7384
1347.1604 692.4123
1349.2817 708.07416
1362.2548 700.11694
1369.3213 711.83813
1394.7544 705.6235
1401.0641 711.69775
1395.5851 683.13635
1400.441 692.96356
1392.1339 695.9865
1404.3903 717.3108
1414.8223 716.1611
1420.751 719.27454
1416.745 725.2548
1409.9851 718.96924
1395.6414 717.2961
1384.3699 714.1072
1381.335 699.4123
1382.1448 687.8047
1386.1128 679.25006
1391.2383 671.55066
1394.0327 663.63257
1384.7695 657.46814
1373.7104 658.6263
1368.7922 647.04755
1369.3248 634.3071
1381.977 641.285
1394.0452 646.862
1424.4536 641.6389
1437.9176 630.3255
1451.0975 643.7825
1451.9463 627.94934
1461.9792 637.92017
1463.5334 649.41815
1474.7726 655.01526
1484.2854 664.96765
1458.2654 663.9354
1441.9624 650.1332
1436.4258 663.982
1424.1111 655.44025
1413.8655 659.47095
1413.8198 670.1567
1424.1443 673.787
1423.385 686.3649
1419.5792 706.02606
1428.0704 704.7575
1425.6971 718.613
1430.853 720.4087
1435.9849 724.75354
1441.0103 716.52045
1445.7231 723.79565
1452.0552 719.0757
1458.8848 722.9878
1463.3779 717.52344
1469.6647 721.3386
1476.2263 720.25653
1481.7833 717.34534
1485.8563 722.0587
1490.8036 717.4081
1496.1299 720.9309
1499.7251 714.73376
1514.7644 715.4884
1505.3141 719.4421
1511.457 720.251
1524.8794 706.8463
1518.4622 721.7012
1527.6898 718.5946
1543.8414 719.00793
1566.5288 718.7944
1583.5295 705.1911
1590.7028 717.1599
1608.6934 715.5023
1624.7383 714.9269
1637.9167 714.8921
1648.1725 716.1269
1615.8235 691.74896
1597.0688 652.8304
1579.2772 656.78613
1573.9575 671.354
1593.7686 671.4934
1592.2476 690.1369
1568.8125 692.9958
1552.1201 698.3464
1536.9854 700.11194
1534.6958 686.6891
1520.9253 696.1613
1518.353 683.93823
1503.0126 673.93
1521.8153 659.20746
1526.5486 672.20306
1546.4005 678.2168
1559.2705 671.42444
1546.19 654.33496
1542.284 634.92786
1526.3516 626.45667
1521.3225 642.9276
1501.9386 643.80383
1505.6338 624.27856
1498.8121 603.0149
1484.1362 620.80945
1466.7742 622.43225
1475.1796 637.9508
1489.3853 635.8795
1500.1624 658.02094
1490.1932 686.6225
1505.1858 692.5092
1510.4851 704.0148
1486.2454 699.984
1468.6003 698.2041
1451.2886 697.9691
1471.3872 680.64746
1451.0361 677.62244
1439.7821 684.9545
1434.614 697.75775
1419.984 697.214
1407.1991 703.7397
1407.4783 696.9984
1413.2974 692.81165
1408.7511 684.6191
1404.9976 676.02057
1403.9207 665.6183
1400.2817 655.77606
1409.5903 646.95087
1410.3411 634.2606
1397.4038 632.85596
1386.3844 625.6163
1373.9216 619.48065
1364.4236 624.3725
1351.8513 623.4562
1356.7963 633.0315
1356.749 648.0853
1351.8545 641.7709
1347.6708 636.7898
1345.468 630.8779
1339.2598 627.2507
1331.7476 624.4929
1321.9242 624.4789
1311.9573 626.7878
1318.3619 633.8393
1310.3186 639.5929
1300.5549 638.99677
1301.7201 628.9597
1303.2007 617.79254
1312.7598 616.3283
1309.2799 612.329
1308.1478 607.8591
1307.6464 601.77765
1308.9261 595.55536
1310.5725 585.1506
1315.5625 583.7282
1319.4463 578.3054
1322.6736 584.532
1319.795 591.15985
1318.8776 599.9523
1313.9053 603.9076
1317.9747 610.1144
1323.9124 613.0083
1331.818 613.4735
1336.6733 609.79425
1341.1204 605.7394
1328.6765 605.39307
1325.0957 598.8089
1331.1707 597.7513
1336.1155 601.145
1338.1162 595.5995
1342.9929 598.7739
1347.1283 601.5142
1351.9053 603.0603
1344.5458 612.9358
1352.969 611.4785
1358.929 607.935
1366.0034 609.863
1365.4131 600.56793
1357.2594 597.8662
1363.9597 591.3315
1354.7212 581.46857
1348.47 585.29675
1340.0723 585.4702
1332.3486 585.47034
1328.8673 581.32025
1329.5942 575.7274
1324.1514 571.8351
1317.1404 569.9681
1310.7935 574.48145
1304.1971 574.97394
1300.3881 579.9554
1306.3745 582.39185
1294.989 574.19745
1289.2986 571.803
1282.3157 568.86804
1279.7911 562.79584
1287.7983 560.81244
1290.5688 546.64856
1293.0587 553.9313
1303.8958 555.8304
1308.8549 551.38904
1320.7675 550.4303
1326.874 553.27905
1326.1248 563.5764
1315.5996 556.5348
1311.5504 564.5305
1304.4126 567.07446
1298.8419 569.908
1296.9873 560.9418
1300.1649 547.0088
1294.9702 540.3977
1293.9545 534.4284
1299.5078 530.6609
1303.02 536.76276
1305.552 543.9265
1311.0479 545.1751
1316.0411 543.8871
1322.4446 541.4025
1329.3137 536.24725
1323.7375 530.92914
1317.1151 533.7622
1310.719 538.3268
1309.6779 529.8822
1306.1422 523.2385
1298.5491 522.4546
1286.5178 529.4943
1277.9397 530.80383
1267.2285 530.9963
1258.7059 532.9041
1256.6616 541.28815
1254.9587 549.3367
1251.1793 556.19006
1244.406 559.6508
1249.9459 565.73145
1248.569 573.0891
1253.5726 579.0897
1260.1348 575.84094
1260.912 568.1771
1260.3011 558.1832
1266.172 544.3154
1273.7516 538.2478
1285.546 538.5303
1279.4163 544.1833
1282.937 553.4954
1273.1754 557.0569
1270.7157 565.48236
1270.7285 574.3342
1267.0328 580.0857
1262.7448 584.25977
1258.1003 583.2953
1256.3623 587.7296
1258.3799 593.242
1263.984 590.68695
1268.6882 586.4454
1275.9797 580.87695
1279.5859 574.39966
1285.2036 579.9098
1286.8011 587.09406
1293.6263 582.9717
1300.199 587.84924
1295.3079 592.6262
1297.0577 599.22656
1288.677 594.1443
1287.6245 600.5391
1285.1055 606.2418
1292.5443 608.30676
1298.8462 605.8697
1300.539 612.22974
1292.974 617.966
1284.9807 614.9655
1279.6901 610.72894
1271.6635 609.42017
1276.3008 604.93225
1277.988 599.90686
1281.5139 593.87775
1279.0344 587.48706
1273.2351 587.3299
1273.6941 593.48334
1264.9336 603.86536
1263.7668 613.3721
1258.1152 621.7982
1251.4711 629.7416
1245.7266 638.00415
1240.0514 644.73303
1228.4292 642.47906
1220.6106 633.07404
1228.396 655.3248
1239.6078 658.77386
1247.4839 654.1856
1255.9961 658.89764
1231.4231 666.833
1222.6444 674.0091
1211.3132 670.2887
1214.8528 659.0668
1208.4039 647.2523
1196.8582 636.21814
1186.3408 643.28625
1166.8842 626.91046
1169.049 635.45264
1165.0841 640.7324
1162.0815 657.53076
1161.2556 666.85626
1151.779 661.4299
1156.142 638.31506
1154.6652 648.8716
1143.5166 651.02594
1133.7684 643.6599
1144.4835 637.68744
1148.8721 625.7488
1145.2703 616.7556
1154.5114 612.3821
1159.5363 623.37695
1164.6283 614.56775
1167.9131 604.2295
1164.933 597.5656
1177.1908 595.553
1187.8094 597.90967
1196.3411 592.538
1199.7512 584.19183
1201.7546 578.08203
1209.5796 579.60474
1218.2043 577.407
1207.9803 594.95874
1198.7452 607.964
1183.2744 609.37085
1175.1085 613.6902
1174.8934 622.192
1184.7819 619.718
1191.232 617.7135
1200.457 618.75226
1209.1942 625.0703
1215.8219 612.8375
1233.2002 618.18787
1241.721 608.5685
1228.9021 596.34827
1218.8881 589.7783
1229.5089 586.2196
1237.8439 585.1057
1239.9174 593.6101
1246.795 599.6788
1252.9204 592.08655
1247.9651 591.4713
1244.1516 587.6438
1250.5951 585.63336
1246.9104 580.96014
1241.2292 578.6416
1234.9236 575.34766
1226.5641 573.9139
1228.1506 565.5831
1225.4475 559.9321
1223.5015 555.4475
1222.9448 549.55054
1221.0173 543.41833
1218.9192 537.6811
1221.6521 528.3981
1225.99 522.0607
1224.1409 515.6169
1223.0259 509.60254
1216.0137 507.2534
1209.2251 508.51413
1202.9636 511.8944
1196.5833 511.62073
1192.2184 519.04724
1183.7123 516.5321
1176.2052 519.8906
1176.932 528.28735
1183.2192 536.5591
1184.0297 527.3332
1193.7684 528.7626
1202.567 525.0729
1216.5408 519.67773
1209.5012 519.92896
1212.7484 529.74384
1207.8094 538.2595
1199.3799 538.5721
1202.588 553.6633
1212.1216 550.60925
1214.2263 558.8409
1220.0356 563.5559
1214.3431 567.5143
1204.811 564.76843
1200.6516 570.74524
1194.4209 565.2759
1185.65 566.7698
1180.3302 571.83936
1178.3016 564.6987
1183.3754 559.4779
1189.5127 560.259
1191.0944 554.6995
1194.9534 547.6567
1190.0835 539.7539
1183.0096 547.6406
1179.7933 552.9768
1175.6846 558.13324
1172.476 552.3149
1173.7839 544.3895
1170.4299 539.645
1170.6624 533.4309
1176.7478 535.9543
1169.8364 525.9681
1166.588 518.95764
1166.7732 511.774
1188.5437 504.65112
1189.1805 494.67493
1178.7875 499.00208
1175.6667 508.86215
1170.8988 494.83508
1162.4727 489.79807
1152.6963 492.0396
1155.1333 485.09323
1152.3055 479.00253
1149.861 472.8187
1144.451 475.22192
1137.096 476.65637
1130.6885 482.98947
1139.5632 486.33093
1146.9666 485.4509
1136.4601 493.61133
1126.9348 498.13354
1145.4666 499.35703
1155.6769 500.94885
1165.216 503.46588
1157.7877 512.489
1149.2904 511.87805
1141.4327 511.49667
1135.0964 505.0786
1131.5411 515.2383
1120.0009 519.0448
1113.9794 524.9103
1120.5034 529.5761
1128.9607 529.17
1139.4938 524.69385
1143.6206 534.8458
1135.9061 539.8867
1130.7684 547.45825
1123.1188 540.06946
1112.9734 542.41724
1113.0898 534.5563
1102.7672 533.64874
1105.848 524.70825
1093.3265 508.0083
1096.8904 501.7906
1094.086 492.05707
1094.0109 478.36328
1100.2529 484.37314
1107.3275 478.6051
1113.6222 474.60373
1116.9752 469.8968
1116.605 461.9016
1108.7305 461.77844
1101.3116 461.46176
1100.1586 455.19177
1102.0725 469.7923
1094.1573 468.90387
1092.5465 461.65353
1093.5347 454.79465
1093.2496 446.8033
1092.7996 432.0191
1101.5245 427.8108
1093.7263 419.17657
1103.185 415.87375
1096.8171 408.32147
1093.9797 400.7408
1091.8608 391.8895
1096.9247 388.46997
1096.2133 382.25705
1114.7026 388.8475
1119.9037 382.43048
1110.126 378.62253
1103.7157 373.40292
1111.8257 367.19208
1120.9315 371.3691
1119.7188 358.46503
1128.5978 361.70306
1129.0422 350.31854
1138.8352 356.71997
1147.696 361.24078
1148.6908 371.61545
1157.0529 378.5859
1163.9448 383.13583
1164.3851 393.64755
1172.7023 401.30188
1171.6095 411.10254
1184.4657 399.1489
1186.9065 389.42206
1179.3594 391.9603
1172.3706 391.81784
1175.6167 384.15082
1174.697 377.234
1184.0148 380.28452
1182.8312 372.04916
1189.8551 364.5942
1183.056 363.74292
1174.3398 366.08566
1167.5254 372.2694
1157.7136 369.59543
1163.6088 365.09424
1159.3182 355.81873
1168.7739 357.2948
1165.6732 344.7849
1152.8074 336.3349
1149.6809 348.46747
1139.0581 342.22324
1144.2473 330.34076
1155.9255 323.0354
1166.3568 326.64832
1162.6622 335.47318
1174.2494 335.25586
1175.6621 327.56128
1190.6263 323.01816
1197.5978 331.8332
1186.4143 329.43762
1185.1301 337.78
1178.8309 343.39972
1176.788 350.38022
1178.011 358.24597
1186.0306 354.77515
1192.2054 348.42416
1195.7731 340.78522
1205.3182 332.74744
1207.3319 324.49884
1214.4788 321.43164
1222.121 321.31088
1224.5372 314.0058
1230.3157 306.53806
1239.9062 307.89294
1251.6434 307.09656
1258.1573 302.01862
1261.1699 294.43237
1268.3159 300.24713
1273.8817 307.04926
1264.6449 311.20248
1267.5803 319.9492
1272.4675 325.6018
1275.3544 331.01398
1281.6458 333.75714
1283.7539 327.19556
1286.8737 320.46954
1289.3353 337.63583
1286.1415 345.20544
1292.8538 346.81027
1298.1621 350.1828
1304.5385 349.47556
1302.2886 340.12198
1296.6348 334.72656
1309.1431 335.39755
1307.8431 329.2956
1303.7822 323.34357
1304.8572 315.38995
1302.6367 308.5826
1302.9302 300.63306
1295.3677 300.72308
1289.1187 295.82413
1285.93 289.23566
1284.5757 282.7765
1286.3088 276.4067
1291.7483 273.3478
1298.6008 273.9989
1305.0497 269.00983
1298.4188 266.52673
1292.746 264.2658
1284.575 263.92
1277.9622 267.95593
1276.3942 277.0321
1260.3477 276.1516
1269.5721 282.04333
1268.9037 290.8308
1276.924 290.5852
1279.1165 298.56827
1282.75 304.10663
1287.9836 306.55673
1293.5355 310.14285
1297.0947 318.4433
1294.9058 327.0016
1283.4397 313.58542
1277.009 318.0709
1264.6664 330.06888
1246.5084 332.17657
1255.1786 328.96674
1257.2057 319.67987
1247.113 315.52448
1244.3307 323.39862
1235.324 318.33893
1228.0249 326.54312
1235.838 329.56113
1236.0547 339.08868
1225.4652 342.219
1230.8533 347.20563
1239.424 350.52646
1233.9739 355.99463
1226.7513 357.14392
1231.4463 370.12558
1224.2908 366.5464
1207.6084 363.32806
1200.2045 363.94162
1198.0996 356.53928
1207.1499 353.32587
1207.3262 343.37827
1218.4927 328.3338
1212.775 331.73648
1214.6947 337.8234
1225.6702 333.0157
1222.6936 337.0382
1217.5204 343.38705
1213.9308 349.56635
1221.1705 349.9017
1217.6254 357.77856
1215.4233 365.35388
1211.1252 372.13412
1219.066 376.52753
1227.7341 376.8425
1228.4854 385.89423
1237.6417 384.43027
1239.3014 395.52402
1237.1846 409.1942
1223.3896 408.44147
1220.986 417.52902
1236.8359 423.89474
1229.4026 419.9115
1231.081 434.81006
1239.4631 434.8687
1247.4187 435.65204
1244.746 427.47787
1250.9849 422.20908
1254.5002 429.42767
1255.7701 436.3034
1252.1221 442.04163
1246.1338 443.27826
1240.4446 446.1004
1239.1753 454.97934
1233.5223 460.51913
1237.752 465.96344
1244.0094 471.76562
1241.0121 478.12152
1235.5652 473.143
1228.6572 472.38873
1226.1807 465.69025
1219.1147 469.11505
1206.2721 457.89612
1206.697 446.7341
1206.6986 439.41687
1210.6442 432.27914
1216.0022 445.89252
1215.4985 458.4441
1225.1418 456.72787
1231.6038 449.5302
1224.9813 444.46906
1219.6575 436.58368
1223.4916 429.1684
1212.4725 424.7213
1211.6543 419.12946
1212.2356 412.52234
1213.116 403.1388
1203.6849 404.71564
1198.4166 399.06354
1195.47 390.95178
1192.8724 382.8681
1193.2351 376.83533
1193.4769 370.377
1201.4227 373.29102
1207.808 379.88202
1202.6467 385.4179
1208.6262 394.05646
1216.46 386.4881
1220.8815 395.6635
1230.2555 399.1678
1249.8198 388.12994
1259.5211 394.60895
1251.9645 403.38913
1250.8668 413.83835
1264.3336 412.66782
1263.1045 425.00092
1269.6959 432.75635
1277.8141 430.8984
1273.9828 424.10406
1276.825 418.1638
1277.2352 410.77
1271.2847 403.9243
1269.7808 393.74066
1278.9 393.89316
1284.2622 400.21982
1290.9202 393.23175
1285.6204 380.70087
1279.9286 385.99835
1272.7047 380.38562
1263.7246 383.28073
1258.0198 376.8899
1274.1664 369.79623
1280.7517 351.37347
1279.4375 341.20294
1273.2726 344.40646
1268.6116 338.0302
1260.2524 339.1362
1250.3087 340.0532
1247.5696 352.0383
1249.3099 361.99313
1252.3529 368.945
1247.8743 376.3537
1238.2992 373.4869
1237.0972 363.45615
1255.9155 348.86798
1262.5873 367.95078
1259.9122 356.99738
1268.7365 350.53717
1270.1753 359.70428
1280.6841 360.07236
1284.9623 369.37228
1290.901 360.87643
1289.7616 354.70435
1299.1868 360.27222
1304.9554 358.58313
1313.9155 357.9299
1323.9662 360.35284
1324.6243 369.8911
1334.2183 373.39252
1335.3264 355.80283
1338.5847 364.743
1346.9116 360.5785
1344.1655 371.17358
1346.4543 379.3645
1346.6082 386.0158
1343.0538 391.49948
1346.3146 397.96918
1343.7686 404.28036
1349.3081 410.9653
1355.8544 405.94513
1363.8804 399.6034
1355.0654 392.75012
1364.8306 388.4463
1361.9596 378.478
1355.2205 382.7219
1352.7698 374.0301
1355.4583 365.93076
1353.9065 356.4304
1359.251 352.73956
1363.8466 360.89124
1366.8196 370.6668
1378.2501 371.07227
1371.7866 379.6273
1376.6204 387.828
1392.2833 375.27597
1388.1691 369.74335
1399.0044 367.9625
1404.2179 364.06622
1398.7706 358.3514
1405.4353 345.6107
1400.217 339.7793
1400.834 331.28467
1401.2837 323.39178
1389.7395 323.80737
1391.362 332.27707
1389.0507 338.84003
1391.9072 344.88596
1398.452 350.12592
1394.3246 362.99045
1391.0935 354.93817
1384.6887 349.85483
1382.3503 337.92487
1374.0883 336.1424
1368.6602 342.2677
1362.8175 347.31918
1357.4026 343.77148
1357.2715 337.39136
1364.5905 336.04263
1361.2131 330.53506
1356.946 327.6201
1358.0558 323.45172
1363.1328 320.68793
1365.098 313.24847
1372.0977 316.33157
1377.9297 320.03357
1382.3162 315.91577
1386.2384 312.1338
1392.9 314.62335
1399.6549 311.97906
1406.7955 315.79193
1421.3412 315.9729
1415.1119 312.28632
1422.3494 306.75867
1431.9119 308.79922
1431.3885 318.68637
1432.565 326.99615
1422.5385 326.3525
1414.6655 327.25647
1411.6876 335.9519
1418.099 342.70923
1425.3989 336.23804
1436.6865 339.55182
1446.2065 338.8677
1455.1802 339.97266
1455.1881 351.9198
1467.2471 351.74423
1494.3134 344.00708
1495.9829 320.53598
1507.9247 310.0449
1500.9478 300.347
1514.0522 293.24176
1515.3959 280.04532
1522.7539 269.93988
1529.8801 281.03882
1539.0168 276.32715
1539.6783 266.80914
1534.3472 258.28543
1526.3615 248.83725
1518.4927 255.1229
1509.4714 249.36276
1498.9243 243.90057
1496.8237 254.46123
1493.955 267.48615
1508.5068 267.6294
1501.8921 283.10074
1489.5553 290.15314
1475.6096 281.2309
1479.5493 269.88684
1473.6968 256.15295
1484.9061 246.62411
1475.2546 222.34158
1481.962 209.67673
1493.2346 214.78406
1503.4003 217.04245
1515.2377 219.84671
1520.3804 234.10037
1504.9725 230.00421
1490.606 229.77158
1472.5099 235.42485
1456.1433 256.38037
1459.8014 243.42741
1449.0511 229.44963
1458.6437 220.63284
1466.5986 210.84685
1474.539 191.80351
1486.8148 179.94717
1458.0453 200.51225
1451.592 189.3334
1442.553 190.60446
1436.8595 187.6301
1430.8247 185.3248
1427.7643 201.39359
1421.4778 185.10117
1437.3596 174.32565
1461.9724 177.50995
1475.629 167.99785
1483.4882 152.3923
1489.7745 159.88225
1496.9071 166.57755
1509.7998 166.74434
1515.3303 154.5815
1502.6853 149.07497
1507.3177 134.5209
1519.05 139.14203
1520.9147 126.01232
1518.0532 114.053116
1507.7671 115.55648
1501.6399 124.24173
1492.211 138.27962
1479.134 142.7725
1468.3472 151.1222
1454.9736 157.54282
1447.3213 169.09909
1433.6328 160.49869
1438.9131 144.10808
1433.1476 129.55307
1419.082 117.05135
1431.8892 105.21328
1454.2817 104.01817
1449.6696 121.507195
1454.856 139.12074
1465.6573 133.05847
1478.7637 130.18246
1488.3513 123.65954
1494.4619 110.86229
1473.7373 113.84735
1467.3981 90.57696
1483.7976 96.62843
1495.8876 93.05095
1505.1743 97.02954
1509.941 104.08862
1517.3165 96.42032
1522.0117 104.4964
1529.3948 98.62669
1533.2643 106.792564
1529.3754 116.24291
1539.7349 122.36254
1538.3234 132.8382
1529.2654 137.20898
1533.6129 143.68872
1525.1902 149.00606
1525.5818 160.16605
1526.043 171.4292
1515.8512 186.75525
1502.5859 181.5102
1502.0073 198.4761
1512.5376 205.08366
1523.3088 200.32404
1533.2015 196.67935
1530.772 213.31265
1524.3727 219.63498
1540.7803 210.45511
1554.1665 212.08371
1558.4509 224.18541
1545.2646 224.53732
1534.7502 224.2638
1532.8679 234.41635
1537.648 242.29471
1546.3127 252.20917
1560.2881 251.1623
1567.9497 258.47983
1579.551 263.86298
1579.1014 254.78557
1581.0664 243.28842
1584.6604 233.8366
1596.8566 226.79956
1607.2466 226.16339
1609.2378 215.95348
1599.3313 216.19443
1590.3667 213.36755
1584.9136 221.25017
1571.5992 215.89708
1571.4999 228.40353
1567.4192 238.44232
1551.8574 239.21936
1553.0032 264.82806
1564.377 272.18192
1559.9569 281.47363
1550.5779 280.46292
1569.3181 285.86688
1580.713 286.96512
1580.5809 274.1162
1579.7103 300.38104
1598.2533 299.04498
1605.7781 307.99405
1594.6208 289.83325
1592.7948 281.13486
1598.948 275.5152
1610.4136 283.6608
1613.7383 294.83698
1621.3517 303.45453
1632.3889 306.3357
1641.7767 315.50565
1656.4584 312.6283
1648.1443 307.92276
1638.8762 302.3228
1652.1855 298.4322
1664.5178 305.94284
1671.0387 296.27576
1663.8608 287.73315
1653.0892 287.6429
1643.7644 291.8262
1642.0901 283.18048
1634.3201 291.07315
1624.7195 290.49286
1623.4966 279.79172
1634.4495 273.9289
1645.6421 264.70374
1655.5452 275.55978
1664.3265 268.54245
1676.9993 271.5054
1672.7223 281.59998
1684.4048 288.53522
1695.9526 295.87378
1698.9263 306.53595
1700.9253 314.36615
1695.9753 322.54132
1692.806 335.4406
1696.9166 343.63806
1707.499 344.13586
1718.6074 346.71777
1719.22 336.5381
1707.418 331.0206
1713.9685 319.04858
1723.2153 309.50156
1724.7065 298.835
1731.9607 295.59137
1728.3635 284.2828
1729.1332 273.92807
1728.644 264.01083
1740.3008 267.8734
1741.4028 279.66968
1752.8698 282.92145
1767.3325 287.37842
1779.0991 282.29968
1773.8013 297.04724
1782.0244 292.70004
1793.7177 293.00668
1785.801 302.46558
1779.5114 308.151
1772.7361 305.56137
1763.9443 305.9054
1756.3749 298.3974
1745.6221 293.83234
1741.6226 305.15366
1743.9143 317.2016
1730.5605 317.77127
1730.0442 330.94806
1740.1973 336.65723
1748.4401 325.63904
1755.5305 316.05713
1774.7075 324.09888
1767.6715 319.47827
1762.1813 327.50726
1776.4124 338.8496
1766.1333 335.7896
1753.6305 334.293
1750.9235 342.63422
1754.6598 350.78003
1744.1421 349.62497
1731.8766 346.94724
1725.769 361.33252
1730.5667 373.2329
1731.2335 381.79193
1741.5425 390.0133
1751.8352 385.67908
1747.0847 378.4547
1744.3562 366.14368
1757.1315 368.06747
1763.2883 354.9256
1766.0793 349.04156
1775.1715 351.83575
1782.8242 354.87372
1789.2231 352.57578
1787.8477 340.3692
1786.6389 331.05206
1780.71 327.0188
1785.8066 311.83682
1791.5735 308.3587
1795.3229 303.61993
1802.2892 300.4627
1805.3931 291.54636
1797.7236 285.0603
1788.8793 284.3573
1795.7378 273.65704
1802.3212 277.17908
1812.4563 278.70593
1825.2568 277.4509
1835.7075 273.0157
1851.2673 275.1327
1843.5382 284.78418
1831.824 292.12527
1817.2614 292.06384
1823.9061 302.65353
1843.5024 298.90442
1851.0494 306.71793
1863.981 309.94904
1857.9216 289.19788
1867.3286 280.35913
1873.9021 268.55963
1884.649 262.33148
1882.4255 247.17517
1885.1768 235.57507
1865.1953 245.60449
1864.9508 234.4074
1870.7654 221.0462
1884.7272 222.25444
1886.7776 209.69363
1876.1881 204.48361
1882.8506 189.72519
1877.9917 181.02487
1884.0234 170.84387
1874.4111 170.13594
1867.9324 159.65591
1863.561 170.63377
1854.7019 178.21274
1850.9282 166.72559
1843.9899 160.72794
1830.2046 162.2167
1821.708 177.08147
1810.8868 169.2856
1798.9873 174.20242
1788.3054 175.94708
1772.156 158.14392
1759.8048 158.12189
1769.9946 146.69101
1798.353 152.04613
1814.8799 154.54669
1783.2474 149.94302
1787.1622 163.11829
1777.3156 169.02036
1777.5422 182.74577
1766.6025 184.84508
1751.6678 175.67133
1743.435 180.27676
1742.7803 162.7287
1756.0719 166.34729
1766.1418 171.00046
1758.4591 145.36646
1747.2969 142.39178
1743.1802 151.01683
1730.9353 156.77826
1730.4414 145.11517
1735.8857 138.0346
1724.1318 136.48953
1714.1754 135.42944
1703.3185 132.76006
1693.2119 156.12067
1699.8275 169.55655
1685.4589 172.02509
1676.2129 183.77934
1666.771 187.88312
1662.8356 200.93274
1679.6411 202.35034
1681.3777 217.67957
1694.8462 204.3626
1689.8357 186.12292
1704.532 210.23633
1704.4813 222.33942
1716.4026 218.06491
1723.6754 228.51007
1713.4255 235.00015
1718.8867 246.26614
1715.958 256.4289
1720.0627 267.20306
1714.7688 273.65063
1717.135 284.89685
1712.8011 303.66992
1712.1636 294.50366
1704.2026 285.25473
1688.3301 272.45776
1695.2719 278.80078
1705.2566 266.6386
1698.8354 256.45413
1697.3801 245.27292
1701.1439 240.61255
1686.7639 257.2473
1682.7838 249.65488
1673.4396 254.36295
1685.0005 237.98663
1698.8466 230.80023
1691.6343 224.32379
1681.2867 229.0173
1672.1561 239.5347
1667.4596 228.67993
1668.8718 217.73407
1653.8511 216.73216
1650.8672 231.1376
1659.9827 239.17265
1660.7451 252.38223
1646.9984 247.65039
1636.2812 251.83672
1626.8188 259.2553
1615.1132 266.4781
1606.2219 255.76488
1595.1407 266.10562
1590.8816 257.06992
1597.5706 247.83438
1597.8427 237.73044
1608.8577 240.27641
1615.9603 247.00389
1623.8308 244.89905
1632.7311 240.97131
1616.6384 220.73215
1622.4573 229.55301
1636.8358 225.96979
1627.5276 215.49187
1619.4924 206.19603
1608.7463 206.67102
1599.5173 204.19882
1605.7917 179.35265
1606.6711 164.46725
1619.9375 165.26236
1634.3007 169.07954
1630.5986 178.2579
1619.1571 178.5297
1617.4166 192.50157
1631.5676 193.8732
1638.9966 208.54285
1647.3276 196.75903
1653.8699 186.73582
1659.363 176.07518
1644.4491 179.12779
1642.8191 165.7721
1651.8181 162.58315
1663.174 164.48985
1672.4705 171.36375
1676.5032 159.20209
1683.6698 147.11597
1672.1013 142.95592
1660.0481 147.89684
1647.4701 139.16203
1642.7365 152.04417
1629.2887 159.26833
1629.7445 146.12115
1633.2491 134.94504
1621.1495 132.72134
1619.7329 148.80391
1611.1787 152.66536
1613.6382 138.71141
1607.3523 131.01974
1595.9525 139.33768
1599.1045 152.28072
1593.0244 161.85712
1590.9 171.2479
1589.6968 182.92487
1599.2358 193.61536
1584.0735 201.5184
1568.4089 200.35168
1574.7786 187.70866
1571.9827 173.26256
1563.0137 160.66635
1554.4995 168.08679
1552.5413 178.89938
1559.0477 189.38464
1552.4836 195.70935
1542.9604 194.82944
1535.1675 181.47441
1541.259 165.10979
1535.908 153.97018
1543.4346 145.23499
1551.8207 153.85341
1565.0093 143.61372
1575.6406 157.67943
1584.8828 149.70944
1581.1545 135.3243
1585.6155 120.45431
1582.6042 109.98912
1568.2715 109.35088
1557.3215 106.57196
1548.3682 100.61781
1539.5903 102.778595
1546.481 112.09462
1555.3667 123.09775
1554.1223 136.09543
1569.5435 125.667816
1597.1156 121.98425
1604.1357 113.619095
1613.6737 117.63787
1622.1714 118.32944
1628.939 122.80257
1636.0575 120.69396
1647.1116 125.33699
1657.774 126.91702
1667.0852 128.48393
1678.5198 128.03696
1689.4055 133.88863
1697.5479 143.05444
1705.6691 148.91405
1708.2615 158.02931
1715.8508 143.99496
1720.7223 150.99228
1718.1349 159.9123
1716.0581 172.77634
1703.6064 187.84024
1713.2915 198.82536
1723.8357 206.60443
1730.6611 215.4575
1735.1936 208.57793
1725.3992 197.79465
1725.4333 184.49646
1731.6565 170.96642
1729.5688 192.4069
1741.4292 191.14902
1735.2642 200.11845
1742.2178 203.18399
1754.5603 194.69292
1751.3383 208.0325
1776.3716 201.80188
1783.0947 191.11343
1794.75 189.61157
1809.4646 188.65802
1837.148 178.52654
1841.7839 192.21964
1854.1862 192.35106
1866.2222 189.81622
1859.7883 206.36462
1851.9879 216.67657
1850.4072 229.69864
1841.2657 235.624
1832.8123 241.57547
1828.0181 233.48978
1818.5897 225.20482
1828.5759 218.86661
1837.9558 223.11469
1839.9331 207.6742
1826.1582 190.29355
1823.3829 203.86981
1818.2026 211.46188
1809.5682 210.26877
1798.0933 203.53323
1804.7539 219.41199
1795.7712 220.63309
1786.5883 221.07666
1770.5009 219.01183
1763.9836 208.26842
1755.7432 219.56601
1743.9153 215.52872
1740.5889 225.7157
1731.8815 224.85403
1735.2008 236.53323
1732.2517 251.75772
1744.6095 252.2869
1754.0634 244.25278
1748.5226 232.01157
1763.8118 229.56487
1775.7461 227.33525
1783.1111 232.5781
1792.5918 240.89664
1805.1399 237.64859
1806.8596 228.66672
1818.0508 241.51776
1806.1807 249.13176
1794.6803 254.0455
1776.0022 247.83209
1766.3923 242.46625
1757.242 258.23053
1753.5212 268.48138
1763.9934 273.9628
1775.0416 271.70825
1770.0747 262.0118
1783.1621 260.0037
1786.4597 271.5222
1800.8024 265.29346
1813.4083 260.24002
1823.9232 263.76532
1830.9225 252.64067
1848.1558 246.75108
1839.3497 260.0222
1848.3898 261.53128
1859.0032 265.22012
1865.7408 255.3505
1883.9243 283.01654
1871.0875 298.97473
1886.2345 304.01562
1888.8895 323.8166
1873.9609 320.64172
1881.0903 321.8736
1872.4263 337.43384
1873.3384 361.7575
1866.3169 366.23175
1860.2885 359.8376
1867.8223 346.5086
1878.8191 331.39984
1891.1326 337.6483
1884.258 342.13318
1884.2277 350.77728
1887.7991 362.4107
1880.5225 366.3783
1886.7067 377.16925
1873.0718 375.4159
1865.9355 383.97458
1858.6869 374.54816
1845.6396 373.6274
1846.4657 360.15842
1845.8667 347.6341
1855.013 343.52
1853.3442 333.9664
1861.874 331.92642
1859.2584 324.18884
1867.3308 330.02008
1868.4404 325.78363
1864.7654 321.3802
1853.6924 319.8853
1853.8589 326.8635
1844.5298 327.27588
1838.3539 320.22046
1830.0756 313.96884
1823.998 323.3448
1811.7023 322.21912
1818.0585 316.3848
1809.7689 310.65326
1799.1854 313.34674
1792.0636 316.87988
1798.8826 322.7704
1797.5537 333.67123
1811.5591 335.37714
1824.1733 335.92715
1834.7332 340.9984
1830.736 357.28708
1814.2822 353.45404
1802.6436 342.49567
1799.3416 355.11133
1796.6355 368.65585
1783.6516 374.10046
1772.0754 370.0276
1766.9666 380.77765
1760.653 389.66504
1774.3032 392.3725
1784.5977 387.01215
1796.913 384.04004
1805.6013 398.73773
1797.1505 398.07346
1791.1223 394.65866
1786.4683 403.002
1809.1274 419.40112
1814.772 431.59784
1798.1006 423.90094
1785.7498 428.96533
1788.1399 444.42932
1775.0377 451.29282
1773.4563 462.32562
1787.8035 462.6499
1799.4225 462.18243
1800.2621 450.5735
1800.4789 435.38953
1807.5428 441.1462
1813.5188 445.5442
1822.5638 444.30087
1824.1444 435.71686
1818.7834 419.47437
1823.3727 413.39423
1830.2959 419.27264
1839.9482 421.99493
1828.4587 429.68823
1836.2675 435.40244
1847.5393 432.73547
1846.9059 440.6335
1863.2272 444.00156
1860.6249 428.7102
1856.2898 415.90796
1844.2983 411.58066
1845.5077 401.86963
1830.9177 406.52924
1829.992 395.75293
1848.2876 422.03708
1865.0774 413.34064
1876.669 412.59528
1867.7072 420.45822
1873.866 429.8581
1877.4248 442.19104
1874.4341 449.84296
1881.0706 453.76828
1877.1906 459.34555
1869.6907 457.93866
1861.4818 460.03473
1860.3862 452.49765
1847.9639 449.74884
1852.4237 456.41977
1847.263 468.51477
1858.2887 468.44562
1867.6321 470.28387
1875.5631 477.3989
1872.9524 488.36053
1877.45 498.1655
1845.1279 522.5327
1848.6224 503.66318
1860.6987 490.66846
1862.4238 480.661
1852.873 479.00427
1844.2172 479.31256
1837.3079 486.7318
1848.167 490.9282
1835.1056 500.264
1835.1405 514.7867
1828.5125 524.17535
1835.2314 537.238
1824.7832 534.96643
1810.0409 546.4596
1812.4402 552.6542
1801.6729 555.99835
1794.8904 559.4729
1797.2511 570.09375
1789.8667 565.5388
1784.5851 573.4169
1778.9314 564.53894
1771.2173 569.3739
1763.0203 572.1006
1759.371 564.04193
1748.634 561.9252
1734.9556 573.09973
1718.5486 571.87506
1706.6355 573.52594
1703.768 597.0066
1704.9948 585.802
1708.0632 564.0327
1697.9297 553.04114
1682.6313 529.5295
1693.0657 518.20667
1699.8606 508.40344
1694.6764 497.11163
1692.3209 488.32443
1683.4039 492.96515
1673.9949 496.41046
1680.563 506.41025
1688.1414 508.95554
1682.5554 516.32214
1679.1818 521.9325
1674.9158 515.61127
1670.2021 508.79724
1662.3241 506.52167
1652.0416 510.4494
1667.5212 518.6941
1662.9255 526.8716
1675.9998 536.2514
1691.1403 538.8909
1699.6317 524.29193
1700.035 537.8684
1707.8157 544.8203
1715.7673 539.39154
1722.9406 528.72943
1719.1411 520.8699
1709.4216 523.75616
1726.3901 498.91833
1732.439 520.68396
1737.1448 528.12976
1748.7937 526.4302
1754.1454 534.98553
1764.4226 525.246
1761.2593 509.76926
1752.209 519.60767
1747.9293 540.5316
1736.2197 543.77515
1724.1685 544.8706
1717.6111 561.27985
1727.3396 567.82513
1735.2211 561.811
1743.2896 570.05597
1752.3175 572.9366
1748.5703 548.9912
1756.4299 552.7544
1764.8723 540.5167
1774.55 546.8459
1775.3309 526.7605
1785.4603 531.72003
1786.3103 546.81384
1795.3813 551.0917
1800.369 547.79425
1794.4845 539.124
1799.8093 529.23804
1813.426 533.4242
1805.8916 538.90137
1803.6031 544.60425
1819.2006 545.2551
1829.6472 550.4716
1843.251 553.5656
1845.5215 541.8345
1854.7588 530.05334
1878.9523 542.5874
1886.9598 563.13544
1916.4 580.312
1939.7646 580.11536
1933.2234 590.4073
1946.5941 607.9011
1948.4363 595.3129
1960.8987 591.18744
1968.7905 581.51685
1981.5112 586.702
1988.5986 583.32605
1996.2018 585.6404
1995.9824 591.53314
1988.6561 593.09045
1982.3641 599.0049
1991.5815 602.2197
1986.0543 608.39923
1981.6768 612.8029
1986.9742 619.231
1981.8723 622.9544
1962.625 609.5337
1963.5481 626.9335
1960.9109 643.1362
1970.2659 654.4061
1954.677 657.21185
1936.9309 672.8176
1970.2681 669.8878
1985.5035 668.34143
1988.7961 676.42413
1982.2429 679.0796
1963.1017 664.0951
1957.1633 674.2418
1963.3586 687.3081
1946.5201 687.47534
1931.6985 688.24097
1916.9294 670.1714
1918.659 687.457
1903.4718 689.92554
1898.3425 675.82654
1897.5814 657.787
1909.8053 648.37646
1927.2488 654.7044
1944.0122 658.68805
1963.4678 652.74023
1986.4835 639.27765
1991.6155 636.2741
1989.7407 645.55383
1985.515 652.7701
1986.6564 660.1841
1982.8846 645.38806
1982.7921 635.91876
1984.9065 629.3431
1990.2711 631.77386
1997.4924 633.5029
1992.0903 627.23157
1992.61 622.69446
1996.1813 617.2255
1992.3357 611.3874
1998.847 608.845
2006.3369 612.2019
2012.3533 618.6898
2020.4008 622.6118
2027.4806 623.8906
2036.4916 622.8874
2044.1029 619.1085
2040.3142 608.0409
2033.6226 609.90814
2026.5386 612.6942
2018.7415 611.20825
2013.7953 604.18274
2028.1719 592.21497
2037.9574 584.5708
2029.6709 581.49524
2023.3342 586.246
2016.8792 584.5792
2010.245 586.7509
2004.1344 589.13837
2002.5085 583.51904
1998.9525 596.74744
2003.7637 602.34296
2008.4811 595.9549
2014.153 592.1373
2019.5769 595.1544
2024.7339 602.33844
2033.078 598.3231
2040.233 599.3803
2037.2719 591.75964
2046.302 591.94385
2053.6465 587.4802
2059.614 592.7982
2055.1406 599.5795
2048.6426 605.1772
2055.2124 615.2676
2062.49 606.13666
2071.2563 607.2952
2076.2395 614.48596
2077.4365 622.8396
2080.446 630.7063
2082.9595 639.74677
2093.371 634.1793
2088.3662 621.3773
2088.3281 628.5725
2103.375 636.24963
2098.4631 643.1747
2093.2756 651.6681
2083.5762 650.35754
2075.1787 646.2883
2067.7922 646.27997
2068.9246 653.0117
2067.9094 661.3032
2060.6548 657.4805
2054.4722 655.28015
2047.8079 650.7938
2039.2678 649.2445
2034.8004 663.46045
2037.8223 657.298
2031.9963 644.4383
2034.1469 632.416
2042.2721 637.8053
2052.8174 643.6821
2061.7712 642.4632
2060.4724 649.22217
2059.5867 635.8418
2052.249 629.1591
2069.4153 638.61084
2074.0654 633.11255
2069.0713 628.13434
2061.958 624.82605
2067.716 617.2423
2085.2766 615.1095
2083.3706 608.6994
2084.2007 600.9431
2078.4424 601.85736
2071.9365 597.7366
2067.691 590.9885
2077.8906 588.8444
2087.7456 585.2379
2091.1672 595.5032
2092.118 603.2259
2094.3843 610.9708
2104.6252 608.5767
2105.6167 595.5045
2101.1187 585.81274
2102.5596 621.8678
2109.3816 632.81616
2106.4204 649.6942
2106.6575 659.5324
2108.5964 672.2053
2109.9297 682.34875
2110.7825 693.41864
2105.4326 689.302
2101.1018 682.8742
2099.3384 675.1964
2100.5708 664.92725
2090.145 664.23126
2084.0723 673.6184
2078.6602 661.3353
2069.4194 672.16296
2072.812 683.91327
2086.951 680.5368
2090.2866 685.8098
2097.4268 691.41504
2105.9277 697.95544
2105.3604 705.5253
2111.6353 707.8873
2098.1274 709.46704
2097.5654 700.5176
2086.6992 694.0228
2073.541 694.60565
2067.7668 701.40985
2066.9087 707.9619
2076.6562 714.1579
2079.519 702.98193
2088.9502 705.5683
2063.405 693.4933
2059.5925 683.9691
2056.251 675.45795
2058.2349 667.01306
2048.3113 660.48303
2045.4747 667.66144
2037.8096 670.42096
2043.043 675.6472
2048.7024 680.6495
2046.8535 686.70715
2047.4451 692.78796
2032.1241 696.7865
2030.3997 706.48584
2039.0393 701.4257
2050.2725 704.2186
2050.709 698.42694
2056.355 694.3928
2058.4185 706.8236
2051.4895 712.70355
2043.1049 708.3684
2035.5496 711.65497
2023.7662 706.699
2024.5302 699.90027
2017.4028 698.63257
2012.4009 692.79004
2018.3833 686.988
2008.0664 668.3861
1997.6658 663.13477
1996.1289 655.1132
1995.4023 648.2947
2004.3857 640.3402
1995.0779 641.19653
2004.0967 648.5207
2004.685 632.1073
2002.0476 623.2484
2012.973 629.90894
2023.0818 636.37427
2013.4556 643.36847
2025.4131 650.0651
2017.9932 649.9474
2004.3784 657.4822
2010.7393 657.3787
2017.8925 658.4145
2017.8071 666.2008
2025.8434 666.4902
2027.863 658.0192
2031.3147 670.284
2028.7683 677.56116
2026.9211 684.6155
2025.124 692.44525
2034.8815 688.1842
2039.63 693.1527
2038.8086 683.0788
2035.4493 677.95667
2022.5159 674.5936
2014.934 676.9686
2010.1938 684.60925
2005.8364 693.39417
2000.4441 690.8469
1996.2766 670.513
2003.8767 676.4795
2002.3967 684.3925
1993.8939 691.3794
1993.5474 697.6561
1992.1381 684.6476
1995.8992 679.13684
1984.94 687.7133
1984.8235 695.6105
1990.99 702.5947
2000.5276 699.542
2009.9061 700.46704
2016.8461 709.38025
2006.4178 706.75024
1996.2695 708.6084
1984.6204 705.22437
1975.4672 705.56146
1967.3617 707.757
1957.9984 705.26215
1943.5073 706.26843
1925.6758 707.92114
1908.7378 707.63525
1894.4207 708.8241
1881.2605 712.5686
1871.3777 707.1532
1883.7561 688.9665
1882.1572 668.76135
1876.565 653.4349
1887.5309 639.20386
1880.0894 621.61426
1894.1621 616.5199
1915.2859 616.6079
1906.1063 631.3528
1924.457 634.56165
1939.1967 641.38794
1950.2776 633.8419
1947.8 621.1205
1933.0293 620.5021
1931.8927 605.68616
1919.2261 598.69763
1902.2913 599.88495
1891.6757 581.17676
1878.3611 557.2338
1876.5757 567.54626
1868.2646 580.4555
1877.3041 599.72424
1848.9688 579.2215
1852.6536 594.783
1857.9177 609.3009
1864.7751 619.72864
1867.667 634.5418
1862.4448 648.0979
1848.2329 652.5281
1860.1317 666.5504
1867.2805 682.47284
1853.7959 692.5781
1860.0719 708.5
1850.0292 712.9372
1838.3513 707.36707
1825.1536 709.7204
1811.3577 707.99457
1799.3129 708.89844
1789.1757 713.25195
1779.7593 708.6526
1765.4943 711.1283
1774.1539 688.926
1797.7955 685.8096
1819.2462 676.0731
1822.8375 692.49896
1842.1289 678.0148
1823.9946 657.1568
1828.9767 646.25946
1824.9835 629.82684
1848.3727 630.659
1838.948 609.80115
1830.9043 588.572
1823.7919 600.4601
1806.4387 612.5499
1769.638 597.62537
1768.9991 606.0122
1760.013 608.90015
1753.7993 597.4061
1744.7446 596.11194
1716.6544 596.3814
1721.3912 605.68884
1737.0323 608.2132
1749.7583 607.5475
1755.5527 624.1048
1730.5883 627.2156
1741.3354 641.206
1722.2683 649.8754
1702.6919 654.64355
1703.2833 630.25
1697.1208 608.8548
1690.6013 594.956
1689.0283 584.81616
1692.6167 574.4519
1700.2646 568.6636
1697.0107 562.8192
1688.3184 562.4027
1680.0193 571.3387
" />
</g></g></svg>
