<?xml version="1.0" encoding="UTF-8" standalone="no"?>
<!-- Created with Inkscape (http://www.inkscape.org/) -->

<svg
   xmlns:dc="http://purl.org/dc/elements/1.1/"
   xmlns:cc="http://creativecommons.org/ns#"
   xmlns:rdf="http://www.w3.org/1999/02/22-rdf-syntax-ns#"
   xmlns:svg="http://www.w3.org/2000/svg"
   xmlns="http://www.w3.org/2000/svg"
   xmlns:sodipodi="http://sodipodi.sourceforge.net/DTD/sodipodi-0.dtd"
   xmlns:inkscape="http://www.inkscape.org/namespaces/inkscape"
   width="3.25"
   height="2.9770944"
   id="svg3755"
   version="1.1"
   inkscape:version="0.48.4 r9939"
   sodipodi:docname="poil.svg">
  <defs
     id="defs3757">
    <inkscape:path-effect
       effect="spiro"
       id="path-effect3769"
       is_visible="true" />
    <inkscape:path-effect
       effect="spiro"
       id="path-effect3769-1"
       is_visible="true" />
    <inkscape:path-effect
       effect="spiro"
       id="path-effect3769-18"
       is_visible="true" />
    <inkscape:path-effect
       effect="spiro"
       id="path-effect3769-6"
       is_visible="true" />
  </defs>
  <sodipodi:namedview
     id="base"
     pagecolor="#ffffff"
     bordercolor="#666666"
     borderopacity="1.0"
     inkscape:pageopacity="0.0"
     inkscape:pageshadow="2"
     inkscape:zoom="22.4"
     inkscape:cx="14.463048"
     inkscape:cy="-1.5622689"
     inkscape:document-units="px"
     inkscape:current-layer="layer1"
     showgrid="false"
     inkscape:window-width="1276"
     inkscape:window-height="775"
     inkscape:window-x="0"
     inkscape:window-y="21"
     inkscape:window-maximized="1"
     fit-margin-top="0"
     fit-margin-left="0"
     fit-margin-right="0"
     fit-margin-bottom="0" />
  <metadata
     id="metadata3760">
    <rdf:RDF>
      <cc:Work
         rdf:about="">
        <dc:format>image/svg+xml</dc:format>
        <dc:type
           rdf:resource="http://purl.org/dc/dcmitype/StillImage" />
        <dc:title />
      </cc:Work>
    </rdf:RDF>
  </metadata>
  <g
     inkscape:label="Calque 1"
     inkscape:groupmode="layer"
     id="layer1"
     transform="translate(-301.9375,-699.24166)">
    <path
       style="fill:none;stroke:#000000;stroke-width:0.1;stroke-linecap:butt;stroke-linejoin:miter;stroke-miterlimit:4;stroke-opacity:1;stroke-dasharray:none"
       d="m 301.9646,702.1788 c 0.1419,-0.16406 0.23893,-0.36655 0.27788,-0.57993 0.0121,-0.0664 0.0196,-0.13617 0.0556,-0.19325 0.0303,-0.0481 0.0782,-0.0826 0.11123,-0.12883 0.0272,-0.0382 0.0433,-0.0831 0.0582,-0.12762 0.0149,-0.0445 0.029,-0.0898 0.053,-0.13012 0.0291,-0.0489 0.0714,-0.0882 0.11122,-0.12883 0.0596,-0.0608 0.11478,-0.12577 0.16664,-0.19325 0.0867,-0.11281 0.16589,-0.23449 0.27791,-0.3222 0.0554,-0.0434 0.11819,-0.0779 0.16664,-0.12884 0.0295,-0.031 0.0528,-0.0672 0.0779,-0.10175 0.0252,-0.0346 0.053,-0.0682 0.0889,-0.0915 0.0501,-0.0326 0.11137,-0.0421 0.16684,-0.0644 0.066,-0.0265 0.12419,-0.0718 0.16664,-0.12883 0.0258,-0.0347 0.0458,-0.0734 0.0707,-0.10881 0.0249,-0.0354 0.056,-0.0683 0.0962,-0.0844 0.0347,-0.014 0.0734,-0.0142 0.11064,-0.0108 0.0373,0.004 0.0743,0.0106 0.11167,0.0108 0.0524,2e-4 0.10444,-0.0135 0.15152,-0.0365 0.0471,-0.023 0.0893,-0.0553 0.12636,-0.0924 0.0201,-0.0201 0.0386,-0.0416 0.0556,-0.0644 0.0497,-0.0337 0.10719,-0.0559 0.16664,-0.0644 0.0184,-0.003 0.0374,-0.004 0.0556,0 0.0198,0.004 0.0379,0.0147 0.0578,0.0188 0.01,0.002 0.0204,0.002 0.0301,-5.2e-4 0.01,-0.003 0.0187,-0.009 0.0233,-0.0183 0.002,-0.005 0.004,-0.0103 0.004,-0.0157 3.4e-4,-0.005 -1.6e-4,-0.0109 -9.2e-4,-0.0163 -0.002,-0.0108 -0.004,-0.0216 -0.003,-0.0324 0.001,-0.0131 0.008,-0.0256 0.0172,-0.0347 0.01,-0.009 0.0218,-0.0152 0.0347,-0.018 0.0258,-0.006 0.0528,0.001 0.0771,0.0114 0.0243,0.0103 0.047,0.0242 0.0715,0.0339 0.0246,0.01 0.0521,0.015 0.0773,0.007 0.0143,-0.004 0.0273,-0.0128 0.0371,-0.0242 0.01,-0.0113 0.0163,-0.0254 0.0185,-0.0402"
       id="path3767-0"
       inkscape:path-effect="#path-effect3769-6"
       inkscape:original-d="m 301.9646,702.1788 c 0.0453,-0.19978 0.2009,-0.40143 0.27788,-0.57993 0.0263,-0.0608 0.0255,-0.13513 0.0556,-0.19325 0.027,-0.0521 0.0821,-0.0782 0.11123,-0.12883 0.0459,-0.0799 0.0651,-0.17775 0.11122,-0.25774 0.029,-0.0506 0.0741,-0.086 0.11122,-0.12883 0.0556,-0.0644 0.11123,-0.12884 0.16664,-0.19325 0.0926,-0.10752 0.17734,-0.22497 0.27791,-0.3222 0.0513,-0.0497 0.1153,-0.0792 0.16664,-0.12884 0.0605,-0.0584 0.1013,-0.14287 0.16683,-0.19324 0.0488,-0.0378 0.11434,-0.0341 0.16684,-0.0644 0.0597,-0.0346 0.1153,-0.0792 0.16664,-0.12883 0.0605,-0.0584 0.0945,-0.15741 0.16683,-0.19325 0.0681,-0.0339 0.14895,0.0121 0.22231,0 0.0576,-0.01 0.21936,-0.0836 0.27788,-0.12883 0.0218,-0.017 0.0307,-0.0547 0.0556,-0.0644 0.25301,0 0.004,0.0303 0.16664,-0.0644 0.0175,-0.01 0.0371,0 0.0556,0 0.0371,0 0.078,0.0194 0.11122,0 0.0175,-0.01 -0.0136,-0.0492 0,-0.0644 0.0195,-0.0218 0.2395,0.0218 0.27788,0 0.0235,-0.0145 0.0369,-0.0429 0.0556,-0.0644"
       inkscape:connector-curvature="0" />
  </g>
</svg>
