<?xml version="1.0" encoding="UTF-8" standalone="no"?>
<svg
   xmlns:dc="http://purl.org/dc/elements/1.1/"
   xmlns:cc="http://creativecommons.org/ns#"
   xmlns:rdf="http://www.w3.org/1999/02/22-rdf-syntax-ns#"
   xmlns:svg="http://www.w3.org/2000/svg"
   xmlns="http://www.w3.org/2000/svg"
   xmlns:sodipodi="http://sodipodi.sourceforge.net/DTD/sodipodi-0.dtd"
   xmlns:inkscape="http://www.inkscape.org/namespaces/inkscape"
   width="7314"
   height="3243"
   id="svg2"
   version="1.1"
   inkscape:version="0.48.4 r9939"
   sodipodi:docname="ume.svg">
  <metadata
     id="metadata10">
    <rdf:RDF>
      <cc:Work
         rdf:about="">
        <dc:format>image/svg+xml</dc:format>
        <dc:type
           rdf:resource="http://purl.org/dc/dcmitype/StillImage" />
      </cc:Work>
    </rdf:RDF>
  </metadata>
  <defs
     id="defs8" />
  <sodipodi:namedview
     pagecolor="#ffffff"
     bordercolor="#666666"
     borderopacity="1"
     objecttolerance="10"
     gridtolerance="10"
     guidetolerance="10"
     inkscape:pageopacity="0"
     inkscape:pageshadow="2"
     inkscape:window-width="1276"
     inkscape:window-height="775"
     id="namedview6"
     showgrid="false"
     inkscape:zoom="0.20109135"
     inkscape:cx="3217.8106"
     inkscape:cy="1674.6289"
     inkscape:window-x="0"
     inkscape:window-y="21"
     inkscape:window-maximized="1"
     inkscape:current-layer="svg2" />
  <path
     style="stroke:#040404;fill:none;stroke-width:1;stroke-miterlimit:4;stroke-dasharray:none;stroke-linecap:round;stroke-linejoin:round"
     d="M665 356C673.157 356 686.479 353.188 690.972 362.005C693.209 366.394 692 373.207 692 378L692 414L692 521C692 534.127 695.941 554.7 691.397 567C687.453 577.675 673.917 575 665 575M692 361C700.474 353.165 714.106 356 725 356C736.068 356 747.255 355.294 758 358.518C778.757 364.746 797.294 386.515 794.714 409C793.082 423.217 787.69 435.001 776.711 444.525C772.498 448.18 759.204 453.307 760.404 459.996C761.807 467.822 778.433 473.688 783.911 479.093C800.336 495.303 805.108 517.139 798.704 539C788.824 572.723 755.474 575 726 575C714.128 575 701.071 577.777 692 569M1005 356C1015.35 356 1024.09 354.348 1032 362C1040.09 354.17 1049.41 356 1060 356C1088.87 356 1108.21 363.344 1124.29 389C1133.83 404.223 1138.38 423.348 1140.17 441C1143.86 477.303 1143.12 517.422 1120.1 548C1104.04 569.335 1085.43 575 1060 575C1048.7 575 1040.52 576.419 1032 568C1023.69 576.215 1016.03 575 1005 575M1178 356C1187.61 356 1194.68 354.915 1202 362C1209.91 354.345 1218.64 356 1229 356C1248.88 356 1270.3 353.743 1290 356.425C1296.96 357.372 1308.1 357.763 1313.57 362.702C1321.7 370.045 1320 393.947 1320 404M1348 356C1357.61 356 1364.68 354.915 1372 362C1379.91 354.345 1388.64 356 1399 356C1418.89 356 1440.31 353.759 1460 356.58C1466.58 357.522 1478.63 358.321 1483.41 363.51C1490.19 370.873 1489 392.548 1489 402M1685 356C1693.02 356 1705.84 353.416 1709.4 363.001C1711.21 367.879 1710 374.856 1710 380L1710 417L1710 522C1710 534.853 1713.85 554.954 1709.4 567C1705.54 577.445 1692.75 575 1684 575M1710 361C1716.99 354.533 1725.02 356 1734 356M1788 356C1796 356 1808.57 353.36 1812.97 362.005C1815.21 366.394 1814 373.206 1814 378L1814 413L1814 520C1814 533.402 1818.03 554.445 1813.4 567C1809.54 577.445 1796.75 575 1788 575M1814 361C1820.99 354.533 1829.02 356 1838 356M1906 356C1914.02 356 1926.84 353.416 1930.4 363.001C1932.21 367.879 1931 374.856 1931 380L1931 416L1931 521C1931 534.127 1934.94 554.7 1930.4 567C1926.54 577.445 1913.75 575 1905 575M1931 361C1937.99 354.533 1946.02 356 1955 356M2103 356C2111 356 2123.57 353.36 2127.97 362.005C2130.09 366.168 2129 372.459 2129 377L2129 411C2129 445.914 2131.88 482.303 2128.17 517C2126.39 533.594 2124.53 550.058 2112.83 562.996C2099.3 577.948 2076.84 578.192 2060 569.218C2049.96 563.869 2040.48 551.874 2045 540M2129 361C2136.18 354.364 2144.79 356 2154 356M2197 356C2205 356 2217.57 353.36 2221.97 362.005C2224.21 366.394 2223 373.206 2223 378L2223 413L2223 520C2223 533.402 2227.03 554.446 2222.4 567C2218.54 577.445 2205.75 575 2197 575M2223 361C2230.18 354.364 2238.79 356 2248 356M2291 356L2343 356M2367 356C2375 356 2387.57 353.36 2391.97 362.005C2394.21 366.394 2393 373.206 2393 378L2393 414L2393 521C2393 534.127 2396.94 554.7 2392.4 567C2388.45 577.675 2374.92 575 2366 575M2393 361C2400.18 354.364 2408.79 356 2418 356M2532 356C2537.73 356 2545.58 354.605 2551 356.604C2568.74 363.145 2569.43 387.73 2573.13 403C2580.22 432.229 2586.18 461.733 2593.12 491C2595.8 502.319 2596.29 517.977 2604 527C2617.88 516.794 2619.32 501.015 2623.37 485C2629.81 459.588 2637.1 434.39 2643.63 409C2646.32 398.539 2647.7 382.085 2653.85 373.184C2663.67 358.974 2676.09 356 2692 356M2703 356C2709.14 356 2719.45 354.025 2724.94 357.028C2730.42 360.02 2729 367.078 2731.43 371.911C2736.13 381.251 2744.08 390.525 2749.42 400C2770.87 438.041 2791.28 476.717 2812.31 515C2823.3 535.015 2837.14 550.603 2839 574M2819 356L2860 356M3046 356C3056.11 356 3064.28 354.53 3072 362C3081.66 352.658 3097.34 356 3110 356C3124.43 356 3138.43 355.64 3152 361.468C3176.96 372.189 3186.42 399.812 3181.69 425C3174.94 460.889 3138.76 468 3108 468L3082 468C3079.38 468.001 3074.89 467.25 3073.03 469.604C3069.54 474.009 3072 487.532 3072 493L3072 547C3072 553.3 3070.07 563.503 3073.6 568.995C3078.77 577.021 3088.79 575 3097 575M3386 356C3394.31 356 3408.4 353.023 3412.97 362.005C3415.21 366.394 3414 373.206 3414 378L3414 413L3414 520C3414 533.402 3418.03 554.446 3413.4 567C3409.45 577.675 3395.92 575 3387 575M3414 361C3422.17 353.443 3434.51 356 3445 356C3475.7 356 3513.28 365.301 3516.83 402C3518.57 420.01 3508.92 435.789 3494 445.452C3487.75 449.502 3473.63 451.339 3471.22 459.005C3468.78 466.787 3476.55 479.861 3479.4 487C3487.12 506.324 3495.18 525.549 3502.58 545C3505.52 552.747 3507.81 564.951 3514.13 570.61C3521.74 577.419 3534.59 575 3544 575M3736 408C3736 396.52 3733.74 371.522 3741.56 362.278C3750.21 352.063 3775.25 355.995 3787 356C3792.66 356.002 3798.04 356.258 3800.97 362.005C3803.21 366.394 3802 373.206 3802 378L3802 414L3802 521C3802 534.127 3805.94 554.7 3801.4 567C3797.54 577.445 3784.75 575 3776 575M3802 361C3812.03 351.728 3838.06 354.808 3851 357.084C3855.31 357.842 3863.17 358.797 3866.01 362.51C3873.65 372.509 3871 396.123 3871 408M3897 356C3906.61 356 3913.68 354.915 3921 362C3928.72 354.529 3936.89 356 3947 356M4002 356L4053 356M4062 356C4070.99 356 4082.65 353.809 4089.68 360.761C4096.17 367.176 4097.72 388.01 4100.15 397C4108.82 429.013 4118.01 460.904 4126.37 493C4129.85 506.366 4133.52 519.713 4137.29 533C4138.3 536.545 4139 545.405 4144.05 545.414C4148.79 545.423 4152.78 539.967 4154.07 535.999C4158.23 523.261 4160.84 509.913 4164.42 497C4173.93 462.797 4182.79 428.381 4191.63 394C4193.56 386.504 4203.44 365.191 4198.97 358.318C4195.75 353.384 4180.27 356 4175 356M4092 361C4099.36 354.199 4108.57 356 4118 356M4201 357C4212.31 354.308 4225.41 356 4237 356C4243.02 356 4248.25 355.743 4252.85 360.305C4259.71 367.104 4259.11 384.807 4260.59 394C4265.41 423.977 4270.3 453.963 4274.73 484C4276.58 496.574 4276.12 515.401 4285 525C4296.83 513.682 4296.91 501.792 4299.13 486C4301.48 469.309 4304.27 452.676 4306.73 436C4308.85 421.63 4308.55 410.008 4320 400C4326.96 407.528 4326.63 418.28 4328.25 428C4331.69 448.64 4334.67 469.356 4338.08 490C4339.2 496.754 4339.02 517.949 4346.11 521.083C4349.73 522.68 4354.45 517.814 4355.98 514.961C4359.95 507.536 4359.2 495.277 4360.42 487C4364.95 456.402 4369.48 425.71 4373.16 395C4374.28 385.571 4380.29 368.07 4376.4 359.148C4374.26 354.256 4365.3 356 4361 356M4256 362C4262.41 355.802 4267.51 356 4276 356M4378 357L4394 356M4412 356L4430 356.275L4439 359.432L4447 356.316L4465 356M4501 356L4554 356M4579 356L4604 359.435L4612 356.316L4628 356M4689 356L4728 356M4755 396C4755 386.603 4753.41 370.088 4759.73 362.279C4763.48 357.638 4772.54 357.362 4778 356.58C4796.09 353.987 4815.72 356 4834 356L4868 356C4872.92 356.01 4878.57 356.39 4880.35 362.005C4881.93 366.981 4877.02 372.957 4874.72 377C4868.04 388.716 4861.19 400.337 4854.42 412C4832.59 449.622 4810.8 487.274 4789.15 525C4783.58 534.698 4777.82 544.284 4772.28 554C4770.2 557.658 4766.31 562.547 4766.65 567C4767.08 572.741 4773.17 574.905 4778 574.995C4791.32 575.246 4804.67 575 4818 575C4834.98 575 4852.19 575.999 4869 573.246C4874.11 572.41 4882.6 571.553 4886.27 567.49C4893.66 559.309 4892 538.263 4892 528M2840 357L2840 493C2840 509.164 2844.97 532.89 2833 545M3573 511C3573 521.046 3571.9 541.34 3577.86 549.786C3580.89 554.087 3587.84 555.613 3592 558.816C3618.06 578.886 3665.11 585.005 3683.81 551C3688.22 542.986 3690.29 533.051 3690.91 524C3694.06 477.994 3648.83 467.196 3615 453.796C3593.77 445.387 3576.25 430.786 3577.04 406C3577.22 400.453 3578.17 394.315 3579.77 389C3588.65 359.536 3627.85 349.525 3654 361.782C3662.2 365.624 3677.02 381.082 3686.78 378.211C3692.07 376.654 3693.37 362.642 3694 358M982 515C973.003 558.472 921.241 592.25 883.015 558.7C858.306 537.014 850.768 496.231 850.015 465C849.272 434.2 857.886 395.075 881.039 373.17C903.424 351.991 930.788 356.378 956 368.88C960.682 371.202 969.927 371.908 973.012 376.303C979.621 385.721 976.983 403.136 979 414M1618 481C1624.19 481 1633.57 479.247 1638.98 482.742C1648.99 489.209 1644 517.306 1644 528C1644 533.653 1647.01 553.346 1641.68 556.487C1638.24 558.515 1633.63 558.408 1630 560.235C1620.81 564.857 1613.32 570.223 1603 572.334C1570.63 578.958 1547.04 554.844 1537.81 526C1523.78 482.178 1522.98 415.043 1553.02 377.004C1572.03 352.928 1602.92 354.621 1627 368.2C1631.42 370.69 1637.98 371.083 1641.26 375.275C1646.27 381.68 1646.84 397.096 1647 405M2316 358C2313.9 371.263 2299.23 385.379 2291.37 396C2283.49 406.661 2273.97 417.418 2267.53 429C2265.02 433.51 2265.23 439.633 2262.15 443.725C2259.28 447.531 2253.74 448.37 2250.46 452.055C2241.45 462.193 2237.17 469.519 2225 476M2944 358.465C2973.56 353.145 2992.87 376.895 3005.41 400C3026.12 438.124 3022.73 496.038 3003.75 534C2994.93 551.639 2980.74 570.294 2960 573.561C2929.26 578.402 2909.93 552.721 2898.37 528C2880.59 489.983 2882.01 439.037 2898.58 401C2906.82 382.073 2922.62 362.312 2944 358.465M3245 536C3231.73 529.057 3228.84 497.333 3227.91 484C3224.97 442.034 3230.59 371.2 3282 358.899C3315.97 350.771 3340.04 383.021 3350.09 411C3365.99 455.277 3363.43 520.706 3329 556.557C3325.19 560.518 3320.3 561.816 3316 565C3303.9 549.142 3307.71 525.49 3295.21 509.043C3279.78 488.739 3261.94 516.116 3254.65 527.985C3252.57 531.366 3247.95 533.97 3247.27 538.015C3246.04 545.315 3252.41 552.1 3256.72 556.996C3270.51 572.659 3299.05 582.398 3316 566M4028 358L4028 494C4028 516.518 4029.64 542.163 4012.82 559.91C3987.17 586.956 3939.59 576.126 3926.56 542C3918.67 521.344 3921 496.764 3921 475L3921 362M4320 358L4320 400M4528 358C4526.59 368.945 4520.8 379.033 4516.31 389C4508.81 405.632 4501.26 422.263 4494 439C4491.5 444.763 4483.44 450.205 4482.74 456.004C4481.19 468.852 4488.92 477.883 4493.72 489C4503.85 512.482 4519.77 538.104 4525.49 563C4528.5 576.118 4512.13 575 4504 575M569 359C569 370.216 573.405 380.113 576.127 391C580.867 409.961 585.376 428.984 589.884 448C591.775 455.973 599.437 472.865 592.812 479.852C586.471 486.54 567.584 483 559 483C551.869 483 543.868 484.03 537 482C528.179 502.502 525.721 527.334 520.374 549C518.902 554.965 518.5 569.292 513.682 573.258C508.681 577.374 496.156 575 490 575M4708 359C4696.62 392.321 4681.21 424.505 4667.58 457C4666.01 460.728 4664.73 465.445 4662.18 468.621C4659.68 471.732 4655.42 472.842 4654.32 477.04C4646.95 504.984 4660.72 537.958 4653.68 566C4650.8 577.476 4636.84 575 4628 575M1646 360L1641 374M1032 362L1032 568M1202 362L1202 512L1202 552C1202 557.165 1200.68 564.458 1203.6 568.995C1209.13 577.585 1221.23 575 1230 575C1249.88 575 1270.25 576.269 1290 574.05C1296.72 573.295 1308.17 572.794 1313.49 568.157C1321.58 561.111 1320 537.762 1320 528M1372 362L1372 509L1372 550C1372 555.316 1370.58 563.136 1373.03 567.999C1377.84 577.557 1390.18 575 1399 575M3072 362L3072 467M4440 362C4447.32 383.451 4457.12 404.113 4466 425C4470.26 435.028 4473.58 447.75 4482 455M4605 362L4635.15 435L4654 476M2561 366C2549.04 378 2553 395.989 2553 412L2553 523L2553 560C2553 563.694 2554.27 570.521 2551.4 573.396C2547.76 577.033 2536.8 575 2532 575M2664 366C2671.76 376.785 2667 401.931 2667 415L2667 521C2667 534.127 2670.94 554.7 2666.4 567C2662.54 577.445 2649.75 575 2641 575M537 482C538.163 455.318 549.403 427.121 555 401C557.275 390.382 557.846 377.89 568 372M2732 374C2720.67 385.47 2725 405.746 2725 421L2725 529L2725 560C2725 563.652 2723.95 569.326 2725.6 572.682C2727.82 577.179 2740.73 575 2745 575M3688 379C3694.13 389.628 3694.75 406.896 3695 419M1289 429L1285.47 459L1289 487M1459 430L1455.19 459L1459 486M2263 445C2279.26 471.159 2287.3 506.162 2298.05 535C2301.37 543.906 2304.37 562.769 2311.31 569.096C2319.76 576.786 2331.53 575 2342 575M3415 456C3430.44 456 3457.04 450.888 3470 460M693 459L759 459M1203 460L1284 459M1373 460L1454 459M1711 461L1813 461M4484 473C4464.58 490.896 4456.1 524.059 4445.31 548C4442.33 554.605 4439.26 568.743 4433.69 573.258C4429.07 576.995 4418.61 575 4413 575M595 478C600.055 484.83 601.017 494.798 602.79 503C605.967 517.698 609.416 532.368 612.884 547C615.076 556.246 615.108 567.746 624.001 573.007C631.312 577.332 643.73 575 652 575M1644 486C1651.18 479.364 1659.79 481 1669 481M4347 523L4348 570M2505 525C2505 535.694 2506.96 559.406 2498.57 567.49C2493.26 572.606 2480.99 573.387 2474 574C2455.75 575.601 2437.34 575 2419 575C2408.88 575 2400.73 576.475 2393 569M4285 525L4285 573M2604 527L2604 556M4144 547L4144 573M3577 552L3573 574M1644 558L1644 562M3315 567C3320.15 573.965 3320.05 583.254 3326.21 589.906C3340.82 605.669 3357.74 591.04 3364 576M617 568C608.485 576.415 600.289 575 589 575M1202 568C1193.69 576.215 1186.03 575 1175 575M1372 568C1363.9 576.007 1356.77 575 1346 575M2309 568C2300.69 576.215 2293.03 575 2282 575M3072 568C3064.12 575.79 3057.5 575 3047 575M1710 569C1717.53 576.282 1725.13 575 1735 575M1814 569C1821.53 576.282 1829.13 575 1839 575M1931 569C1938.53 576.282 1946.13 575 1956 575M2223 569C2230.53 576.282 2238.13 575 2248 575M2667 569C2674.53 576.282 2682.13 575 2692 575M3414 569C3421.53 576.282 3429.13 575 3439 575M3802 569C3809.53 576.282 3817.13 575 3827 575M4654 569C4661.53 576.282 4669.13 575 4679 575M4528 570C4537.39 574.045 4543.74 575 4554 575M516 573C524.128 577.337 536.92 575 546 575M4436 573C4443.27 576.881 4453.9 575 4462 575M2554 575L2572 575M2705 575L2724 575M1106 781C1110.99 780.033 1124.45 775.047 1127.97 780.318C1130.08 783.479 1129 789.383 1129 793L1129 824L1129 942C1129 953.991 1128.7 966.015 1128.86 978C1128.91 981.929 1127.88 988.594 1131.32 991.382C1135.51 994.776 1146.16 990.912 1151 990M2200 781C2205.41 780.572 2218.33 775.597 2221.97 781.282C2224.3 784.918 2223 791.86 2223 796L2223 833L2223 945C2223 958.676 2227.13 980.191 2222.4 993C2218.54 1003.44 2205.75 1001 2197 1001M2400 783C2410.29 780.549 2421.48 780.231 2432 779.05C2434.96 778.718 2440.74 776.808 2442.97 779.604C2445.3 782.527 2444 789.482 2444 793L2444 829L2444 949L2444 981C2444 985.451 2444.92 991.071 2442.4 994.995C2435.93 1005.05 2416.38 1001 2406 1001M670 782C674.969 781.607 685.312 777.409 689.682 780.067C693.605 782.454 692 791.139 692 795L692 837L692 942C692 952.811 687.84 974.42 693.028 983.942C696.067 989.521 711.974 994.689 718 996.564C746.477 1005.42 777.711 994.439 791.342 967C797.924 953.75 798.671 938.428 798.039 924C797.262 906.256 792.696 886.117 778 874.518C761.542 861.528 741.286 859.766 722 867.268C711.787 871.241 704.48 878.762 693 879M1693 782C1697.83 781.792 1710.79 776.63 1713.97 781.322C1716.09 784.451 1715 790.406 1715 794L1715 826L1715 948C1715 960.442 1709.3 991.865 1721 999.396C1726.13 1002.69 1735.13 1001 1741 1001M1434 1001C1425.25 1001 1412.46 1003.45 1408.6 993C1403.87 980.191 1408 958.676 1408 945L1408 852C1408 835.488 1406.42 815.82 1414.88 801C1431.05 772.689 1475.12 775.482 1484 807M1931 789L1932 789M3795 803C3794.49 814.935 3793.16 827.194 3791.25 839C3790.55 843.29 3790.54 849.225 3787.49 852.606C3778.45 862.614 3756.95 860 3745 860M3788 853C3792.87 861.914 3790 876.963 3790 887L3790 942C3790 953.601 3789.13 965.929 3793.32 977C3803.65 1004.24 3840.8 1002.55 3857.33 981.996C3864.21 973.448 3868.4 963.828 3873 954M1364 860L1479 860M2277 860L2331 860M2946 860.425C3024.91 849.686 3034.68 991.413 2959 1000.71C2877.73 1010.7 2868.27 871.004 2946 860.425M3346 860C3345.31 868.734 3342.54 877.281 3341.94 886C3339.7 918.496 3341.43 952.411 3341.86 985C3342.04 998.332 3342 1011.67 3342 1025C3342 1030.32 3343.42 1038.14 3340.97 1043C3336.26 1052.35 3324.64 1050 3316 1050M3408 1001C3415.6 1001 3424.93 1002.84 3430.85 997.111C3436.39 991.747 3434 980.116 3434 973L3434 929C3434 922.639 3432.56 914.264 3434.32 908.133C3435.64 903.537 3442.31 902.837 3445.39 899.61C3454.22 890.348 3459.08 877.864 3469 869.301C3479.39 860.339 3493.02 858.138 3506 862.221C3515.91 865.339 3522.43 876.375 3517 886M3579 952C3579.56 959.136 3580.14 971.979 3584.73 977.725C3587.59 981.317 3593.29 982.406 3597 985.04C3603.95 989.975 3610.88 995.433 3619 998.301C3640.79 1005.99 3676.02 1000.29 3681.55 974C3689.7 935.237 3639.38 933.996 3615 923.573C3607.54 920.383 3599.7 916.529 3595.84 909C3579.34 876.833 3616.51 852.631 3645 863.229C3657.45 867.861 3666.65 877.209 3679 882L3684 861M3791 860L3860 860M4070 860C4078.57 860 4087.72 858.786 4094.68 864.955C4099.32 869.066 4101.48 882.046 4103.68 888C4110.6 906.717 4117.63 925.455 4125 944C4128.42 952.616 4131.69 961.321 4134.95 970C4136.02 972.843 4137.25 978.498 4141.1 978.582C4152.93 978.839 4157.64 954.329 4160.81 946C4168.66 925.342 4176.65 904.729 4184.32 884C4186.17 878.993 4193.1 867.545 4189.93 862.318C4187 857.492 4171.98 860 4167 860M4097 865C4103.99 858.534 4112.02 860 4121 860M4192 861L4215 860M4232 860C4239.33 860 4248.02 858.736 4253.68 864.529C4257.82 868.768 4257.95 879.32 4259.37 885L4272.37 937C4273.87 942.974 4275.15 960.149 4281.14 963.118C4289.18 967.1 4292.66 951.697 4293.6 947C4297.07 929.672 4300.31 912.281 4304 895C4304.95 890.588 4308.77 881.291 4314.87 882.693C4319.72 883.808 4320.83 895.027 4321.88 899C4326.38 916.02 4330.9 933.065 4335.71 950C4336.92 954.252 4338.32 968.281 4344.06 968.555C4355.44 969.098 4357 948.478 4358.87 941C4363.77 921.418 4368.77 901.735 4373 882C4373.98 877.407 4378.92 865.652 4375.31 861.604C4372.24 858.167 4362.22 860 4358 860M4256 865C4262.6 858.895 4269.51 860 4278 860M4377 862L4395 860M4412 860C4421.03 860 4432.06 858.314 4439.86 863.994C4444.26 867.203 4446.6 875.396 4449.67 880C4459.91 895.367 4469.19 915.677 4483 928C4497.6 913.666 4508.27 895.634 4520.14 879C4522.55 875.626 4531.91 866.086 4528.22 861.604C4525.03 857.717 4511.66 860 4507 860M4442 865C4448.8 858.71 4456.26 860 4465 860M4531 861L4554 860M4579 860C4586.63 860 4597.56 858.008 4603.7 863.638C4610.26 869.653 4614.42 886.665 4618.14 895C4626.03 912.702 4633.84 930.546 4642.26 948C4650.16 964.37 4659.41 976.633 4652.38 995C4646.51 1010.35 4640.65 1030.7 4628 1041.87C4616.26 1052.23 4602.01 1047.53 4599 1033M4606 864C4612.73 858.305 4621.63 860 4630 860M4683 860L4727 860M4767 899C4767 889.866 4765.6 873.858 4771.73 866.279C4775.13 862.069 4783.02 861.69 4788 861C4802.46 858.997 4817.42 860 4832 860C4840.9 860 4867.54 855.507 4872.07 865.019C4873.74 868.529 4871.04 872.241 4869.08 875C4863.7 882.529 4857.74 889.753 4852 897C4833.42 920.432 4815.26 944.226 4797.12 968C4792.73 973.752 4778.82 986.247 4780.08 993.999C4780.85 998.72 4785.8 1000.8 4790 1000.98C4801.95 1001.5 4814.04 1001 4826 1001C4839.39 1001 4852.75 1001.31 4866 999.08C4870.58 998.308 4877.96 997.7 4881.44 994.297C4888.6 987.279 4887.81 965.384 4888 956M972 964C964.27 974.521 956.66 983.37 945 989.691C937.207 993.916 928.857 996.42 920 997.025C908.982 997.777 898.216 997.457 888 992.677C853.183 976.386 846.779 926.98 861.782 895C873.945 869.073 903.22 854.55 931 863.75C944.052 868.073 969.859 887.644 957 903M1247 861.44C1266.53 859.258 1286.31 873.126 1294.88 890C1299.04 898.203 1306.89 917.534 1292 919.852C1271.39 923.06 1247.88 920 1227 920C1220.43 920 1209.44 922.123 1204.06 917.682C1197.63 912.378 1201.68 902.516 1204.01 896C1210.71 877.302 1227.29 863.641 1247 861.44M3074 985L3074 908C3074 901.522 3070.99 884.797 3075.03 879.6C3077.31 876.667 3084.66 876.002 3088 873.907C3111.45 859.198 3142.39 854.065 3163.91 876.04C3189.58 902.259 3188.85 957.95 3162.96 983.961C3149.29 997.693 3126.78 1003.85 3108 997.906C3101.1 995.72 3082.14 981.981 3075.6 987.032C3071.95 989.854 3074 1001.82 3074 1006C3074 1017.28 3079.02 1042.92 3067 1048.97C3061.9 1051.54 3053.59 1050 3048 1050M3341 984C3329.88 984.031 3323.75 990.399 3314 994.571C3298.45 1001.23 3280.86 1001.48 3266 992.647C3235.37 974.435 3234.28 928.053 3243.59 898C3247.78 884.48 3256.72 870.535 3270 864.518C3296.56 852.485 3320.13 873.038 3341 886M517 895C523.822 885.362 526.037 875.265 537 868.876C545.505 863.92 554.268 862 564 862C571.454 862 578.823 861.697 586 864.09C622.626 876.306 611 935.122 611 965C611 974.013 608.837 985.976 614.005 993.956C624.768 1010.57 639.431 987.017 643 978M1128 977C1117 977.967 1111.57 986.198 1103 991.895C1089.74 1000.71 1070.3 1002.56 1056 994.955C1026.28 979.153 1023.13 941.569 1027.7 912C1030.7 892.673 1039.44 872.661 1059 865.069C1072.64 859.774 1089.26 861.091 1102 868.338C1111.33 873.644 1116.52 881.904 1128 882M1644 880L1644 951C1644 956.904 1646.68 971.635 1642.97 976.4C1641.01 978.919 1635.84 978.692 1633 979.493C1627.37 981.079 1622.54 984.718 1617 986.655C1608.55 989.608 1599.95 991.502 1591 991.896C1550.36 993.683 1538.83 951.925 1541.09 919C1542.76 894.646 1553.12 864.21 1582 862.09C1592.98 861.285 1605.18 862.076 1615 867.436C1621.21 870.829 1634.1 881.208 1641.7 878.306C1645.79 876.744 1645.54 867.639 1646 864M2302 862C2300.14 872.242 2289.99 878.2 2283 885.015C2278.03 889.862 2271.57 894.375 2267.51 900.004C2265.25 903.142 2265.01 907.673 2262.3 910.437C2258.92 913.879 2252.86 914.021 2249 917.225C2240.81 924.021 2235.36 932.008 2224 933M4705 862C4704.57 871.504 4699.48 880.307 4696 889C4688.89 906.76 4681.1 924.239 4674 942C4669.35 953.623 4666.34 964.388 4656 972M1716 896C1728.77 895.417 1733.52 884.291 1742.17 876.424C1757.25 862.715 1781.2 857.909 1797.98 871.518C1806.61 878.507 1809.12 889.549 1810.17 900C1812.28 921.095 1811 942.789 1811 964C1811 972.27 1813.98 987.878 1809.4 994.995C1804.11 1003.22 1793.41 1001 1785 1001M2584 1001C2575.79 1001 2565.77 1003.02 2560.6 994.995C2556.72 988.953 2559 976.963 2559 970L2559 907C2559 900.941 2556.21 885.463 2560.03 880.603C2562.2 877.842 2567.78 878.498 2570.71 876.297C2579.79 869.489 2597.06 854.172 2606.95 870.005C2610.03 874.94 2610.3 880.612 2612 886C2624.06 877.601 2632.45 859.632 2650 864.434C2659.55 867.046 2664.32 879.105 2664.97 888C2666.79 912.894 2666 938.016 2666 963C2666 971.491 2668.85 986.345 2664.97 993.996C2660.29 1003.23 2648.53 1001 2640 1001M2710 1001C2718.09 1001 2727.72 1002.94 2733.68 996.266C2738.65 990.708 2736 977.053 2736 970L2736 922C2736 915.1 2734.35 905.777 2736.32 899.148C2737.57 894.913 2745.53 894.791 2748.71 891.775C2763.47 877.819 2772.85 863.962 2795 863.455C2841.62 862.388 2832 926.781 2832 957C2832 966.777 2835.77 986.648 2830.4 994.995C2825.11 1003.22 2814.41 1001 2806 1001M4314 863L4314 881M2539 869C2549.37 866.445 2558.95 864.541 2559 878M1896 871C1904.65 869.907 1913.32 868.878 1922 868.075C1924.7 867.825 1929.18 866.576 1931.4 868.643C1933.69 870.778 1933 875.2 1933 878L1933 903L1933 973C1933 981.387 1930.58 992.854 1938.02 998.682C1945.3 1004.38 1963.08 1001 1972 1001M2112 871C2116.88 870.09 2134.77 864.842 2137.97 869.357C2139.99 872.211 2139 877.697 2139 881L2139 910L2139 986C2139 1003.86 2137.84 1022.93 2124 1035.91C2110.41 1048.65 2089.11 1050.75 2072 1044.19C2064.15 1041.17 2048.77 1029.3 2058 1020M3408 870C3413.74 868.918 3426.47 864.56 3431.68 868.028C3434.74 870.061 3434 874.854 3434 878L3434 904M3899 870C3904.16 868.758 3918.15 864.362 3922.4 868.604C3927.23 873.434 3924 892.415 3924 899C3924 933.881 3911.14 1002.6 3965 996.834C3982.72 994.937 3994.3 984.114 4008 974.055C4011.22 971.69 4019.76 971.018 4021.4 967.682C4024.02 962.338 4022 951.894 4022 946L4022 892C4022 886.565 4024.48 872.68 4020.4 868.604C4015.93 864.145 4001.48 868.968 3996 870M2714 871C2718.97 870.607 2729.31 866.409 2733.68 869.067C2738.79 872.174 2736 889.635 2736 895M3052 871C3060.92 868.853 3073.85 864.262 3074 877M3680 883L3684 903M2612 886L2612 995M610 983C599.355 983.221 592.4 989.957 583 993.999C567.647 1000.6 544.81 1003.79 529 996.648C507.544 986.958 507.603 956.185 523.04 941.089C545.079 919.539 580.163 913 610 913M2264 913C2275.07 932.966 2288.71 951.724 2300.95 971C2305.3 977.857 2310.5 991.482 2317.11 995.926C2326.23 1002.06 2336.59 1001 2347 1001M1199 916C1199 932.851 1198.3 950.485 1206.13 966C1222.29 997.996 1260.92 1006.39 1291 988.073C1300.61 982.222 1306.05 973.393 1313 965M4483 928C4483.3 937.21 4494.52 948.239 4499.67 956C4505.81 965.258 4512.16 974.51 4517.93 984C4520.1 987.56 4520.92 993.238 4524.3 995.787C4532.89 1002.26 4543.95 1001 4554 1001M4483 934L4447.86 982L4435.87 999.682L4412 1001M4282 965L4283 1000M4344 970L4345 998M4022 971C4022 976.186 4019.83 987.749 4024.32 991.382C4028.51 994.776 4039.16 990.912 4044 990M1644 979C1644 1003.75 1640.66 1030.94 1616 1043.19C1593.63 1054.3 1546.36 1050.15 1545 1019M3583 980L3579 1001M4141 982L4141 997M691 985L689 995M1408 994C1400.12 1001.79 1393.5 1001 1383 1001M1715 994C1707.12 1001.79 1700.5 1001 1690 1001M1933 994C1922.64 1004.24 1907.72 1001 1894 1001M2314 994C2306.12 1001.79 2299.5 1001 2289 1001M2559 994C2550.9 1002.01 2543.77 1001 2533 1001M1811 995C1818.53 1002.28 1826.13 1001 1836 1001M2223 995C2230.53 1002.28 2238.13 1001 2248 1001M2444 995C2453.66 1004.34 2469.34 1001 2482 1001M2666 995C2673.53 1002.28 2681.13 1001 2691 1001M2736 995C2743.53 1002.28 2751.13 1001 2761 1001M2832 995C2839.53 1002.28 2847.13 1001 2857 1001M3434 995C3441.53 1002.28 3449.13 1001 3459 1001M4522 995C4514.68 1002.09 4507.61 1001 4498 1001M4439 999C4446.27 1002.88 4456.9 1001 4465 1001M3074 1044C3081.53 1051.28 3089.13 1050 3099 1050M3342 1044C3349.53 1051.28 3357.13 1050 3367 1050M2626 1185C2605.37 1205.63 2584.01 1226.12 2564.71 1248C2557.43 1256.26 2546.28 1263.31 2544.5 1275C2543.81 1279.49 2547.52 1282.46 2549.65 1286C2555.41 1295.55 2560.71 1305.4 2566.4 1315C2587.77 1351.05 2607.11 1388.25 2629 1424M5348 1186C5366.87 1212.5 5381.01 1243.73 5397.15 1272C5400.04 1277.06 5402.58 1283.36 5406.61 1287.61C5410.57 1291.78 5416.36 1292.31 5416.94 1299C5418.47 1316.44 5407.25 1320.98 5399.28 1335C5382.6 1364.33 5367.6 1396.55 5348 1424M5484 1186C5470.95 1208.13 5458.58 1230.68 5445.85 1253C5437.16 1268.23 5430.52 1282.88 5417 1294M2210 1187C2215.85 1187 2230.52 1184.31 2233.97 1190.15C2236.48 1194.38 2235 1202.24 2235 1207L2235 1246L2235 1368L2235 1404C2235 1408.75 2236.2 1415.48 2234.4 1419.94C2231.64 1426.77 2216.94 1424 2211 1424M2235 1189L2259 1187M5033 1187C5018.9 1248.51 4997.53 1309.67 4978.98 1370C4975.5 1381.31 4972.12 1392.66 4968.72 1404C4967.27 1408.82 4966.45 1416.05 4962.7 1419.68C4959.59 1422.69 4952.98 1422.68 4949.02 1421.57C4942.95 1419.85 4941.95 1412.22 4940.42 1407C4936.33 1392.99 4932.27 1378.95 4927.98 1365C4910.02 1306.6 4897.85 1245.06 4876 1188M5552 1187C5568.92 1215.99 5583.14 1249.21 5596.58 1280C5600.64 1289.31 5606.14 1310.09 5618 1311.64C5629.41 1313.14 5635.41 1291.79 5639.24 1284C5654.99 1251.97 5672.28 1219.94 5686 1187M741.603 1189.03C744.221 1186.95 749.878 1188 753 1188L783 1188C813.203 1188 860.539 1181.49 874.035 1217C876.4 1223.22 877.487 1230.36 877.91 1237C878.763 1250.39 874.415 1265.79 865.699 1276C861.507 1280.91 847.545 1289.2 849.852 1297C852.591 1306.25 871.049 1314.2 877.381 1322C896.131 1345.11 897.64 1391.06 873 1410.48C847.434 1430.63 803.576 1423 773 1423L749 1423C746.296 1422.99 742.05 1423.62 740.603 1420.68C736.067 1411.46 740 1391.3 740 1381L740 1283L740 1213C740 1208.04 737.446 1192.32 741.603 1189.03M1112 1350C1109.57 1368.81 1101.62 1388.32 1087.83 1401.71C1045.01 1443.3 976.124 1418.94 959.029 1365C945.133 1321.16 942.908 1258.98 971.158 1220C1000.55 1179.45 1061.74 1177.71 1095.91 1214.01C1105.35 1224.04 1107.4 1236.74 1112 1249M1185.32 1189.03C1191.44 1184.94 1207.74 1188 1215 1188C1248.28 1188 1281.42 1192.78 1304.83 1219C1348.27 1267.67 1342.5 1370.8 1286 1407.3C1262.88 1422.24 1235.61 1423 1209 1423C1203.58 1423 1187.38 1425.71 1184.03 1420.68C1182.18 1417.91 1183 1413.16 1183 1410L1183 1383L1183 1282L1183 1212C1183 1206.85 1180.49 1192.25 1185.32 1189.03M1885 1308L1922 1308C1925.53 1308 1932.46 1306.7 1935.4 1309.03C1939.25 1312.08 1937 1325.47 1937 1330L1937 1386C1937 1390.98 1939.03 1401.66 1934.68 1405.14C1929.42 1409.36 1919.28 1408.63 1913 1411.14C1867.35 1429.41 1814.4 1424.83 1789.32 1377C1780.39 1359.98 1778.78 1338.77 1777.96 1320C1776.35 1283.22 1781.02 1248.64 1803.04 1218C1835.8 1172.41 1916.06 1179.86 1934 1235M2014 1188L2014 1423M3435 1188.42C3467.5 1184.17 3493.95 1205.73 3509.93 1232C3516.84 1243.36 3519.62 1257.2 3522.42 1270C3533.73 1321.57 3522.88 1412.07 3457 1420.84C3441.89 1422.85 3425.55 1423.13 3411 1417.91C3370.77 1403.48 3353.96 1359.56 3352.99 1320C3351.86 1274.22 3358.44 1218.54 3405 1195.27C3414.68 1190.43 3424.54 1189.79 3435 1188.42M3599 1295L3599 1217C3599 1210.9 3596.09 1194.12 3600.6 1189.6C3603.19 1187.02 3608.69 1188 3612 1188L3643 1188C3675.19 1188 3729.19 1185.98 3735.99 1228C3737 1234.24 3737.43 1240.69 3736.83 1247C3731.93 1298.23 3674.64 1296 3636 1296L3611 1296C3608.09 1296 3603.05 1295.09 3600.6 1297.03C3595.77 1300.85 3599 1322.06 3599 1328L3599 1422M3899 1362L3900.91 1398L3904 1420C3897.5 1424.68 3890.48 1422.12 3883 1422C3854.85 1421.52 3828.3 1401.77 3816.26 1377C3790.7 1324.42 3795.72 1234.9 3848 1199.75C3858.34 1192.79 3869.78 1189.75 3882 1188.91C3930.44 1185.58 3966.36 1221.9 3973.7 1269C3980.46 1312.32 3979.38 1369.55 3945 1401.91C3938.95 1407.6 3931.88 1412.66 3924 1415.45C3918.15 1417.52 3912.15 1417.28 3907 1421C3912.65 1431.19 3912.04 1442.18 3919.68 1452C3937.77 1475.25 3973.48 1471.76 3999 1467M4049 1422L4049 1258L4049 1211C4049 1205.33 4047.31 1196.4 4049.6 1191.15C4051.2 1187.49 4055.69 1188.01 4059 1188L4085 1188C4115.8 1188 4167.54 1182.9 4183.25 1217C4195.56 1243.73 4184.49 1277.48 4157 1289.05C4149.49 1292.21 4140.09 1294.04 4132 1294.83C4128.67 1295.15 4123.12 1294.1 4121.69 1298.15C4117.85 1309.02 4130.07 1326.37 4135.2 1335C4152.82 1364.6 4168.03 1395.64 4186 1425M4257 1373C4267.72 1393.11 4277.18 1412.08 4301 1419.23C4344.81 1432.37 4407.14 1408.57 4392.22 1354C4381.3 1314.08 4328.7 1309.04 4296 1296C4273.93 1287.2 4256.64 1273.55 4256.01 1248C4254.74 1195.8 4315.09 1174.86 4357 1195.81C4375.29 1204.96 4384.62 1222.05 4390 1241M4451 1188L4603 1188M5756 1188L5840 1188C5846.17 1188 5864.97 1184.88 5869.36 1189.6C5872.7 1193.21 5867.96 1206.09 5866.2 1210C5857.91 1228.48 5846.95 1246.18 5837.31 1264C5816.28 1302.88 5795.41 1341.9 5774.78 1381C5769.57 1390.87 5764.29 1399.97 5762 1411C5761.42 1413.84 5759.47 1418.9 5761.69 1421.4C5765.79 1426 5784.12 1423 5790 1423L5874 1423M1519 1422L1435 1422C1428.21 1422 1409.99 1425.24 1404.6 1420.97C1401.78 1418.74 1403 1412.15 1403 1409L1403 1376L1403 1240L1403 1203C1403 1199.68 1401.65 1192.37 1404.6 1190.03C1409.99 1185.76 1428.21 1189 1435 1189L1519 1189M1596 1422L1596 1247L1596 1205C1596 1201.37 1594.4 1192.56 1597.6 1190.03C1602.99 1185.76 1621.21 1189 1628 1189L1711 1189M2154 1189L2154 1422M2423 1189L2423 1317C2423 1339.67 2425.66 1366.02 2415.19 1387C2401.81 1413.82 2371.96 1422.04 2344 1422C2331.72 1421.98 2318.53 1420.35 2307 1416M2501 1189L2501 1422M4527 1189L4527 1423M4667 1189L4667 1320C4667 1341.76 4663.83 1367.86 4673.81 1388C4695.58 1431.93 4773.08 1436.01 4798.52 1393C4810.34 1373.03 4808 1345.29 4808 1323L4808 1189M5091 1189C5091.42 1209.16 5096.11 1229.99 5098.72 1250C5103.97 1290.35 5108.93 1330.72 5114.73 1371C5116.54 1383.58 5115.54 1402.66 5121.32 1413.98C5124.63 1420.46 5135.92 1420.89 5140.69 1415.77C5144.11 1412.1 5144.14 1405.71 5144.92 1401L5150.25 1369C5157.03 1328.32 5163.69 1287.63 5170.75 1247C5173.11 1233.41 5174.52 1219.43 5177.63 1206C5178.68 1201.47 5182.83 1195.92 5188 1195.73C5193.04 1195.55 5198.01 1201.65 5199.28 1206C5203.05 1218.91 5203.61 1233.69 5205.58 1247C5211.75 1288.67 5217.73 1330.41 5224.41 1372C5226.24 1383.39 5225.05 1408.29 5233.28 1416.77C5238.5 1422.15 5247.55 1420.43 5250.99 1414C5256.73 1403.26 5256.34 1384.08 5258 1372C5263.79 1329.97 5270.09 1287.97 5276.27 1246C5279.05 1227.11 5283.5 1208.02 5285 1189M2704 1190L2704 1363L2704 1407C2704 1411.01 2702.46 1419.18 2705.6 1422.26C2710.34 1426.9 2726.71 1424 2733 1424L2811 1424M3280 1190L3280 1278L3280 1339L3280 1398C3280 1403.88 3282.15 1414.58 3275.94 1417.97C3259.29 1427.06 3249.26 1394.87 3244.86 1385C3224.52 1339.36 3202.19 1294.62 3181.86 1249C3175.67 1235.11 3170.13 1217.39 3161.03 1205.19C3158.39 1201.64 3149.74 1195.6 3145.02 1196.67C3139.2 1197.98 3140 1205.57 3140 1210L3140 1250L3140 1422M516 1424C524.782 1396.54 531.276 1368.26 540.674 1341C542.031 1337.07 545.471 1334.53 546.722 1330.79C548.919 1324.22 548.241 1316.73 550.015 1310C555.596 1288.83 562.818 1267.9 569.341 1247C573.583 1233.41 577.099 1219.59 581.341 1206C583.269 1199.82 584.624 1193.05 592 1191.43C597.505 1190.23 602.53 1194.05 604.367 1199.01C609.732 1213.52 613.018 1229.13 617.291 1244C623.626 1266.04 631.617 1287.77 637.24 1310C638.875 1316.46 638.297 1323.53 640.278 1329.91C641.444 1333.67 644.778 1336.2 646.096 1340C655.299 1366.53 664.313 1395.52 670 1423M2888 1422L2888 1245C2888 1231.77 2883.86 1210.34 2888.6 1198.02C2891.46 1190.62 2899.97 1193.32 2905 1196.47C2914.45 1202.39 2916.72 1218.11 2920.42 1228C2930.74 1255.59 2941.31 1283.18 2951 1311C2954.31 1320.5 2959.41 1348.02 2972 1348.51C2984.92 1349.01 2990.86 1321.34 2994.6 1312C3005.8 1284.02 3016.84 1255.99 3028 1228C3032.14 1217.61 3034.77 1202.08 3045 1196.16C3050.93 1192.73 3059.5 1191.34 3061.68 1200C3065.05 1213.35 3062 1231.22 3062 1245L3062 1422M2504 1299L2521 1292.3L2543 1278M741 1296L848 1296M1404 1296L1506 1296M1597 1296L1687 1296M2015 1296L2153 1296M4050 1296C4072.89 1296 4098.49 1292.82 4121 1297M5619 1313L5619 1422M5417 1316C5429.94 1326.75 5436.56 1341.47 5444.85 1356C5457.8 1378.69 5470.36 1401.72 5484 1424M640 1332C632.303 1336.11 620.582 1334 612 1334L548 1334M1937 1407L1937 1423M3905 1421L3907 1421M2236 1423L2259 1424M1118 1602L1118 1765L1118 1812C1118 1818.28 1119.54 1827.05 1117.11 1832.95C1114.49 1839.28 1104.64 1839.08 1099 1840.77C1079.98 1846.48 1059.84 1852.05 1042 1839.21C1031.14 1831.39 1025.51 1817.61 1022.79 1805C1016.96 1778 1015.57 1743.99 1022.48 1717C1025.83 1703.88 1030.17 1690.96 1042 1683.1C1065.81 1667.28 1092.15 1685.08 1116 1690M1365 1847L1365 1676L1365 1632C1365 1624.85 1364.68 1615.2 1368.88 1609.04C1376.11 1598.44 1395.97 1602 1407 1602M1941 1602L1941 1720L1941 1748C1941.01 1751.08 1940.43 1756.19 1944.15 1757.45C1952.01 1760.12 1963.53 1749.14 1970 1746.19C1978.76 1742.2 1977.52 1732.12 1982.71 1725C1995.64 1707.21 2010.55 1689.59 2025 1673M687 1603L687 1663L688 1693C694.111 1690.37 700.834 1689.9 707 1687.53C724.418 1680.83 741.187 1670.96 760 1681.41C772.653 1688.44 778.519 1703.56 781.335 1717C784.198 1730.67 784 1745.1 784 1759C784 1783.08 784.541 1810.21 770.48 1831C759.656 1847 729.829 1853.8 713.105 1842.11C709.097 1839.31 707.382 1834.08 705 1830L700 1834C698.297 1831.19 697.75 1831.25 696 1834M1625 1603L1625 1847M1793 1603L1793 1621M1866 1603L1866 1621M2096 1603L2096 1790C2096 1807.43 2089.09 1845.09 2113 1847M3375 1614L3375 1780C3375 1794.76 3373.58 1810.36 3375.58 1825C3376.37 1830.8 3376.39 1837.17 3380.53 1841.79C3389.25 1851.49 3412.27 1848 3424 1848M4042 1674C4052.12 1691.34 4060.77 1710.04 4069.75 1728C4073.19 1734.87 4076.83 1745.82 4086 1746.54C4094.94 1747.24 4099.02 1736.28 4102.26 1730C4111.88 1711.37 4121.23 1692.56 4131 1674M4196 1675C4207.77 1705.51 4219.31 1736.21 4230.31 1767C4233.28 1775.33 4236.94 1794.21 4249 1793.53C4261.09 1792.85 4263.73 1773.81 4266.67 1765C4276.58 1735.26 4285.3 1703.64 4298 1675M520 1710C525.356 1699.84 528.041 1689.9 538 1682.79C557.64 1668.77 597.193 1674.02 606.664 1698C612.419 1712.57 609.849 1730.7 609.849 1746L610 1847M1188 1760C1188 1736.82 1187.74 1710.38 1204.17 1692C1222.22 1671.82 1259.13 1668.96 1277.53 1691.01C1289.45 1705.3 1291.69 1723.11 1292.91 1741C1293.24 1745.77 1294.75 1755.97 1290.68 1759.4C1286.33 1763.06 1275.38 1761 1270 1761L1215 1761C1209.97 1761 1191.1 1758.24 1188.6 1763.32C1184.55 1771.55 1188.93 1789.67 1191.29 1798C1195.11 1811.48 1200.15 1825.2 1211 1834.81C1232.85 1854.17 1269.6 1850.84 1287 1828M1340 1676L1407 1676M2170 1847L2170 1733L2170 1703C2170 1699.48 2168.9 1693.55 2171.03 1690.51C2174.16 1686.05 2183.33 1686.06 2188 1683.97C2208.4 1674.84 2241.71 1669.19 2253.99 1695C2259.12 1705.79 2255 1727.08 2255 1739L2255 1847M2255 1694C2262.41 1688.95 2272.61 1683.36 2281 1680.12C2298.33 1673.41 2328.84 1671.93 2337.8 1692C2344.71 1707.46 2342 1727.51 2342 1744L2342 1847M2420 1847L2420 1744C2420 1732.48 2415.94 1711.74 2420.6 1701.22C2423.06 1695.68 2433.11 1695.58 2437.7 1692.39C2442.77 1688.86 2446.36 1684.07 2452 1681.13C2467.18 1673.23 2495.16 1672.09 2506.58 1687C2515.7 1698.91 2513 1720.86 2513 1735L2513 1847M3100 1847L3100 1737L3100 1708C3100 1704.62 3099.06 1699.38 3101.03 1696.42C3103.9 1692.09 3112.51 1691.54 3117 1689.67C3132.98 1683.02 3143.86 1676 3162 1676M3354 1676L3425 1676M3657 1676C3666.9 1719.17 3679.11 1762.01 3689.87 1805C3692.15 1814.09 3695.24 1843.46 3709 1841.9C3723.08 1840.31 3724.12 1813.42 3726.42 1803C3735.75 1760.76 3744.3 1717.63 3756 1676M3817 1676C3825.44 1720.82 3832.24 1766.01 3839.75 1811C3841.07 1818.89 3841.1 1831.28 3845.59 1838C3849.93 1844.5 3858.26 1846.01 3863.68 1839.81C3869.84 1832.78 3869.24 1815.04 3870.75 1806C3875.59 1777.02 3881 1748.11 3885 1719C3886.39 1708.91 3885.73 1681.69 3900 1681.16C3915.01 1680.61 3913.82 1708.9 3915.27 1719C3919.5 1748.33 3923.97 1777.64 3928 1807C3929.3 1816.45 3928.74 1834.08 3936.06 1840.85C3941.31 1845.71 3949.44 1844.17 3952.99 1837.91C3957.09 1830.67 3957.1 1818.19 3958.58 1810C3966.57 1765.67 3971.23 1719.72 3982 1676M4352 1676L4427 1676C4432.06 1676 4449.04 1673.33 4451.88 1678.32C4453.64 1681.4 4451.16 1686.85 4450.42 1690C4447.58 1702.11 4437.53 1713.94 4430.42 1724C4409.96 1752.98 4391.67 1783.48 4372 1813C4367.9 1819.15 4353.72 1837.67 4359.69 1845.68C4362.34 1849.24 4369.16 1848 4373 1848L4412 1848L4457 1848M954 1804C949.17 1836.7 914.279 1856.53 884 1842.35C871.571 1836.54 861.548 1823.5 856.454 1811C843.478 1779.15 844.513 1729 863.911 1700C880.526 1675.16 918.115 1667.76 940.907 1689.29C949.607 1697.51 951.413 1708.64 956 1719M1548 1689L1548 1790L1548 1817C1548 1820.12 1548.82 1824.84 1546.97 1827.57C1543.72 1832.38 1533.08 1831.93 1528 1833.6C1509.87 1839.54 1488.67 1847.28 1474.79 1828C1457.17 1803.53 1460.79 1764.59 1462.04 1736C1462.89 1716.67 1466.38 1686.08 1488 1678.61C1498.8 1674.88 1512.77 1677.35 1523 1681.77C1528.31 1684.06 1539.77 1689.66 1545.68 1687.31C1549.07 1685.96 1548 1679.86 1548 1677M1626 1699C1651.43 1693.12 1670.22 1669.36 1699 1678.68C1717.79 1684.77 1717 1705.84 1717 1722L1717 1847M1793 1677L1793 1847M1866 1677L1866 1845C1866 1865.75 1867.52 1894.43 1840 1895M2170 1677L2170 1688M2420 1677L2420 1698M2628 1677.43C2693.17 1667.99 2696.49 1755.16 2687.2 1799C2682.88 1819.35 2669.16 1842.25 2647 1845.7C2582.26 1855.81 2578.45 1768.36 2586.74 1725C2590.91 1703.18 2604.37 1680.85 2628 1677.43M2763 1677L2763 1755L2763 1810C2763 1816.39 2760.56 1829.2 2764.03 1834.72C2766.99 1839.42 2776.19 1839.14 2781 1840.57C2799.61 1846.09 2820.66 1852.55 2838 1839.32C2848.4 1831.38 2853.14 1819.22 2856.57 1807C2859.38 1797 2859.76 1786.3 2860.01 1776C2860.79 1744.2 2864.36 1686.92 2823 1678.12C2801.47 1673.54 2784.25 1686.81 2764 1691M3023 1688L3023 1796L3023 1824C3023 1827.28 3023.98 1832.65 3021.97 1835.49C3018.12 1840.92 2999.42 1842.07 2993 1843.91C2986.08 1845.89 2979.23 1846.99 2972 1847C2918.73 1847.09 2924.09 1780.7 2925.01 1743C2925.55 1721.26 2930.16 1686.25 2955 1678.79C2967.25 1675.1 2982 1676.71 2994 1680.59C3000.54 1682.71 3013.77 1688.7 3020.68 1686.23C3023.9 1685.07 3023 1679.65 3023 1677M3100 1677L3100 1694M3214 1811C3220.55 1825.77 3225.51 1838.25 3242 1844.53C3275.7 1857.37 3309.43 1834.63 3301.64 1798C3291.7 1751.26 3221.23 1774.6 3213.59 1728C3212.91 1723.85 3211.99 1719.21 3212.21 1715C3212.92 1701.29 3217.48 1689.04 3230 1681.97C3254.11 1668.35 3298.55 1680.31 3300 1712M3495 1677L3495 1790C3495 1804.45 3492.53 1826.09 3502.39 1837.96C3518.86 1857.79 3549.5 1843.57 3567 1834.84C3571.82 1832.44 3583.57 1831.85 3586.11 1826.7C3591.23 1816.3 3587 1794.56 3587 1783L3587 1677M687 1694L687 1779C687 1798.84 685.437 1815.67 703 1829M1976 1744C1984.86 1752.29 1989.38 1766.07 1994.31 1777C2005.1 1800.95 2014.75 1826.3 2028 1849M609 1830C585.392 1834.89 564.561 1854.37 539 1844.87C512.093 1834.86 513.534 1790.4 529.3 1772C548.297 1749.83 581.643 1746 609 1746M4087 1748L4086.4 1773.89L4074.26 1786L4042 1849M1943 1760C1936.71 1787.5 1941 1819.79 1941 1848M4088 1777C4097.44 1779.8 4100.2 1788.9 4104.25 1797C4112.92 1814.35 4121.23 1832.26 4131 1849M4249 1795C4249 1831.13 4229.94 1861.66 4222 1896M687 1811C682.159 1818.52 692.062 1823.75 698 1827M684 1816C681.307 1823.1 691.163 1827.92 694 1834M682 1820C677.121 1825.77 677.666 1830.52 681 1837M694 1820L694 1824M684 1824L687 1831L686 1832L680 1832L681 1833L684 1831M692 1824L689 1829M693 1825L696 1831M691 1827L690 1828M698 1827L696 1829M684 1828L682 1830M694 1828L692 1830M695 1829L693 1831M701 1829L699 1831M687 1830L687 1832M1548 1830C1544.34 1842.39 1547.39 1855.54 1542.12 1868C1529.1 1898.82 1492.33 1896.15 1465 1891M3587 1830L3587 1847M688 1846L691 1855C679.078 1858.52 671.01 1842.45 678 1833M682 1833L684 1840M688 1833L689 1835M691 1833L691 1834M702 1836L707 1841L691 1855M1116 1837L1118 1848M2763 1837L2763 1895M687 1838L685 1842M3023 1838L3023 1895M694 1840L695 1840M708 1841L710 1841M687 1843L687 1844M689 1843L689 1844M695 1846L700 1844M696 1847L694 1849M692 1849L690 1851M2940 2037L2884.17 2095L2868.78 2118.3L2855 2125.22L2812 2168.79L2789.57 2181.05L2788 2209L2788 2272M4412 2213C4412 2226.93 4413.08 2241.18 4414.71 2255C4415.17 2258.82 4416.83 2269.34 4414.23 2272.4C4411.29 2275.85 4398.32 2273.09 4394 2272.99C4370.2 2272.4 4343.93 2259.5 4328.17 2242C4282.84 2191.66 4292.01 2096.66 4346 2056.48C4395.98 2019.28 4472.96 2042.41 4494.3 2101C4500.92 2119.16 4503.82 2138.71 4503.82 2158C4503.82 2189.6 4495.96 2225.52 4472 2247.91C4461.98 2257.28 4449.41 2265.03 4436 2268.41C4431.45 2269.55 4422.86 2268.51 4422.9 2275.02C4423.23 2321.8 4480.24 2326.49 4514 2317M6274 2039C6290.23 2063.53 6306.69 2087.99 6322.19 2113C6327.58 2121.69 6333.5 2136.71 6345 2138.29C6355.79 2139.78 6362.16 2124.17 6366.68 2117C6382.73 2091.54 6403.15 2066.16 6416 2039M6208 2040L6159.66 2118L6146.48 2137.73L6136.03 2146.04L6133.4 2167.96L6121.09 2179.02L6061 2274M553 2181C554.394 2163.37 561.872 2147.31 568.189 2131C575.507 2112.11 582.293 2093 589.319 2074C592.293 2065.95 596.467 2042.99 606.005 2041.23C621.696 2038.33 624.102 2054.57 627.997 2066C637.262 2093.19 647.923 2119.87 657.344 2147C660.315 2155.56 667.981 2170.77 664.544 2179.98C661.45 2188.28 643.979 2185 637 2185L573 2185C567.175 2185 556.997 2181.64 552.133 2182.61C546.578 2183.72 543.059 2200.3 541.319 2205C532.788 2228.05 522.876 2250.72 515 2274M776 2155L776 2070C776 2064.48 773.058 2045.63 777.603 2042.03C780.385 2039.82 786.672 2041 790 2041L821 2041C860.15 2041 923.022 2032.23 929.715 2086C930.903 2095.54 930.415 2104.49 928.996 2114C927.231 2125.83 920.944 2133.3 914.814 2143C912.545 2146.59 911.883 2151.59 907.892 2153.82C900.33 2158.05 886.414 2156 878 2156L810 2156C801.656 2156 785.816 2152.91 778.318 2156.6C773.32 2159.06 776 2177.08 776 2182L776 2247C776 2252.47 773.538 2265.99 777.028 2270.4C779.147 2273.07 785.019 2272 788 2272L817 2272C842.291 2272 867.804 2272.94 893 2271.09C909.82 2269.86 927.467 2264.76 937.48 2250C951.838 2228.84 952.451 2195.81 935.561 2176C927.955 2167.08 916.671 2163.74 910 2154M1197 2206C1192.58 2225.32 1185.9 2244.5 1170 2257.54C1141.82 2280.65 1080.14 2278.67 1053 2254.82C1018.68 2224.65 1014.08 2174.89 1018.17 2132C1021.02 2102.04 1030.22 2070.26 1057 2053.09C1083.77 2035.92 1136.34 2033.86 1163 2052.22C1179.36 2063.49 1189.17 2083.75 1192 2103M1282.32 2042.03C1285.85 2039.67 1292.94 2041 1297 2041L1333 2041C1363.47 2041 1395.28 2046.69 1416.91 2070C1429.01 2083.03 1435.59 2099.96 1439.5 2117C1449.99 2162.73 1446.26 2227 1403 2255.3C1375.68 2273.18 1342.3 2272 1311 2272C1304.93 2272 1284.69 2275.18 1281.03 2269.68C1276.38 2262.72 1280 2243.3 1280 2235L1280 2142L1280 2067C1280 2061.58 1277.29 2045.38 1282.32 2042.03M1680 2272L1568 2272L1540 2272L1528.6 2270.97L1527 2259L1527 2227L1527 2092L1527 2055L1528.6 2042.03L1540 2041L1569 2041L1681 2041M1759 2271L1759 2099L1759 2057L1760.6 2042.03L1771 2041L1797 2041L1898 2041M2078 2171L2116 2171C2121.04 2171 2128.38 2169.68 2133 2172.03C2139.79 2175.49 2139 2182.55 2139 2189C2139 2202.66 2139.51 2216.45 2137.57 2230C2136.92 2234.52 2136.84 2241.12 2133.57 2244.61C2127.59 2250.97 2116.31 2250.97 2109 2255.22C2102.17 2259.19 2096.58 2264.57 2089 2267.3C2066.64 2275.37 2028.59 2276.42 2007 2265.62C1994.24 2259.24 1983.09 2247.47 1974.91 2236C1942.24 2190.2 1947.31 2112.13 1981.67 2069C1989.12 2059.64 1999.99 2051.14 2011 2046.43C2053.93 2028.06 2132.79 2045.14 2134 2102M2474 2041L2518 2041M2788 2041L2788 2139C2788 2150.04 2784.39 2168.81 2791 2178M3560 2270L3560 2096L3560 2055C3560 2051.17 3558.34 2042.75 3563.15 2041.32C3588.2 2033.88 3599.6 2074.23 3608.26 2091C3633.59 2140.07 3659.91 2188.67 3684.75 2238C3691.79 2251.97 3696.94 2271.97 3715 2272C3717.91 2272 3722.12 2272.68 3724.68 2270.97C3729.08 2268.04 3727 2256.6 3727 2252L3727 2195L3727 2133L3727 2042M3889 2041.42C3907.63 2038.95 3932.62 2039.11 3950 2046.9C3994.3 2066.78 4008 2120.16 4008 2164C4008 2210.2 3985.77 2263.97 3934 2270.71C3888.68 2276.61 3846.79 2267.12 3822.46 2225C3813.04 2208.67 3811.17 2189.33 3809.91 2171C3806.17 2116.36 3826.87 2049.68 3889 2041.42M4091 2166L4091 2073C4091 2067.06 4087.77 2045.85 4092.6 2042.03C4095.38 2039.82 4101.67 2041 4105 2041L4136 2041C4172.32 2041 4221.23 2037.78 4231.96 2083C4233.44 2089.25 4234.91 2096.57 4234.74 2103C4234.54 2110.43 4233.3 2118.89 4231.14 2126C4217.87 2169.7 4170.97 2167 4134 2167L4104 2167C4100.88 2167 4095.22 2165.95 4092.6 2168.03C4088.25 2171.48 4091 2188.76 4091 2194L4091 2270M4585 2271L4585 2108L4585 2062C4585 2056.85 4583.3 2048 4585.6 2043.32C4587.16 2040.16 4592.12 2041 4595 2041L4624 2041C4658.07 2041 4711.75 2032.21 4730.74 2069C4743.94 2094.57 4737.14 2134.2 4711 2148.69C4702.72 2153.28 4694.29 2155.24 4685 2156.57C4681.66 2157.05 4676 2156.23 4674.49 2160.15C4670.8 2169.76 4681.26 2184.54 4685.8 2192C4702.03 2218.73 4717.05 2248.16 4736 2273M4811 2231C4815.59 2248.15 4826.44 2259.06 4843 2265.54C4852.39 2269.21 4862.12 2270.23 4872 2271.17C4912.83 2275.06 4978.41 2270.46 4975.96 2215C4974.86 2190.1 4955.12 2177.95 4934 2170.05C4924.44 2166.47 4914.84 2163.16 4905 2160.42C4871.46 2151.1 4813.9 2148.76 4808.88 2105C4808.17 2098.77 4809.02 2092.15 4810.17 2086C4813.17 2069.99 4826.38 2055.56 4841 2049.04C4849.75 2045.14 4858.68 2043.75 4868 2042.25C4905.41 2036.19 4968.03 2038.94 4976 2086M5033 2041L5192 2041M5502 2041C5509.54 2058.01 5514.45 2076.47 5520.69 2094C5535.05 2134.33 5548.98 2174.99 5564.19 2215C5569.37 2228.61 5574.43 2242.29 5579.31 2256C5581.18 2261.25 5582.17 2268.93 5588.02 2271.26C5593.55 2273.46 5601.71 2271.89 5605.16 2266.9C5613.46 2254.87 5615.63 2235.68 5620.81 2222C5634.88 2184.85 5646.19 2146.6 5659 2109C5666.65 2086.56 5676.65 2064.12 5682 2041M6064 2041C6090.08 2074.93 6104.21 2117.12 6135 2147M6478 2041L6544 2041L6606 2041C6611.11 2041 6623.87 2038.7 6627.31 2043.32C6629.75 2046.59 6626.98 2052.57 6626 2056C6622.55 2068.06 6615.08 2077.02 6607.63 2087C6577.98 2126.71 6549.04 2166.96 6519.85 2207C6509.88 2220.68 6493.23 2236.79 6488.16 2253C6486.91 2256.97 6482.87 2265.74 6485.12 2269.68C6486.89 2272.8 6492.02 2272 6495 2272L6522 2272L6636 2272M2229 2042L2229 2270M2496 2042L2496 2215L2496 2256L2497.6 2269.97L2517 2271M2698 2042L2698 2179C2698 2200.95 2700.88 2228.99 2690.2 2249C2685.95 2256.98 2679.07 2263.43 2671 2267.48C2662.65 2271.67 2651.18 2272 2642 2272C2617.94 2272.01 2583.2 2270.55 2579 2240M3037 2042L3037 2214L3037 2256L3038.6 2270.97L3048 2272L3073 2272L3168 2272M5113 2042L5113 2272M5254 2042L5254 2155C5254 2183.15 5253.25 2211.88 5267.88 2237C5286.36 2268.73 5323.55 2274.37 5357 2271.17C5370.33 2269.9 5383.29 2268.1 5395 2260.93C5407.67 2253.18 5415.45 2242.23 5421.74 2229C5432.06 2207.3 5430 2181.35 5430 2158L5430 2042M5737 2042C5739.09 2068.32 5747.45 2095.31 5753.35 2121C5761.35 2155.89 5767.86 2191.1 5775.88 2226C5778.71 2238.3 5778.53 2257.11 5784.99 2267.94C5788.49 2273.82 5803.21 2274.01 5807.41 2268.77C5810.35 2265.1 5810.5 2258.48 5811.4 2254L5818.4 2219C5826.67 2177.65 5835.08 2136.33 5843.4 2095C5846.02 2081.99 5848.8 2069.01 5851.4 2056C5852.85 2048.72 5853.16 2042.17 5862 2042C5866.09 2041.93 5871.5 2041.18 5874.69 2044.32C5878.35 2047.93 5878.38 2055.23 5879.42 2060C5882.2 2072.63 5884.85 2085.32 5887.4 2098C5896.05 2140.99 5904.6 2184 5913.2 2227C5915.26 2237.32 5917.44 2247.63 5919.25 2258C5919.94 2261.96 5920.27 2267.71 5924.14 2269.97C5928.58 2272.56 5943.04 2272.46 5946.01 2267.85C5949.76 2262.04 5949.78 2251.71 5951.21 2245C5954.83 2227.96 5958.82 2211.01 5962.58 2194C5967.2 2173.06 5970.92 2151.92 5975.65 2131C5982.1 2102.44 5991.68 2072.2 5994 2043M2393 2043L2393 2270M3238 2272L3238 2185L3238 2125L3238 2066C3238 2060.73 3235.79 2049.2 3241.15 2046.03C3259.16 2035.36 3268 2067.44 3271.95 2078C3289.08 2123.79 3306.58 2169.55 3324.6 2215C3330.12 2228.92 3335.27 2243 3340.58 2257C3342.66 2262.49 3346.08 2269.32 3353 2269.5C3360.11 2269.69 3364.22 2262.65 3366.32 2257C3371.52 2243.02 3376.68 2229.04 3381.69 2215C3398.08 2169.11 3415.78 2123.7 3432.68 2078C3437.15 2065.92 3443.97 2035.09 3463.94 2046.03C3470.15 2049.43 3468 2060.12 3468 2066L3468 2123L3468 2184L3468 2272M2870 2118C2882.54 2131.21 2890.34 2150.37 2899.6 2166C2921.02 2202.15 2941.07 2239.17 2963 2275M6346 2140L6346 2272M1528 2147L1661 2147M1760 2150L1874 2150M2230 2153L2392 2153M4586 2158L4642 2158L4672 2159M6135 2168L6148.24 2177.22L6165.68 2205L6208 2273M667 2182C673.616 2187.78 675.737 2199.92 678.808 2208C687.109 2229.83 695.763 2251.8 703 2274M2134 2245L2142 2273M2475 2271L2495 2271M4416 2272L4422 2272M2056 2433L2056 2463M2147 2433L2147 2463M1569 2527L1528 2528C1527.05 2511.49 1527.92 2494.56 1528 2478C1528.03 2470.9 1528.53 2461.46 1534.19 2456.39C1542.64 2448.83 1558.57 2451 1569 2451M727 2454L727 2523C727 2527.41 724.6 2543.22 728.603 2545.88C731.564 2547.84 738.006 2544.31 741 2543.42C752.841 2539.9 761.474 2531.06 774 2528.51C795.854 2524.08 827.163 2525.18 841.363 2545C853.227 2561.56 854.217 2586.38 854.741 2606C855.631 2639.38 845.963 2683.59 810 2695.48C795.244 2700.36 776.454 2700.11 762 2694.12C754.138 2690.87 738.386 2679.21 729.318 2682.7C725.244 2684.26 727 2694.52 727 2698M1242 2454L1242 2623L1242 2665C1242 2669.49 1243.6 2677.88 1240.4 2681.49C1235.37 2687.16 1223.57 2686.56 1217 2689.9C1209.09 2693.92 1201.87 2696.65 1193 2697.71C1186.54 2698.49 1179.39 2698.4 1173 2697.2C1124.74 2688.12 1117.8 2629.32 1121.83 2589C1124.04 2566.94 1132.83 2536.89 1157 2529.44C1171.61 2524.94 1190.63 2525.82 1205 2530.94C1217.33 2535.33 1227.68 2542.21 1241 2544M1839 2454L1839 2697M2241 2454L2241 2575L2241 2604C2241 2606.98 2240.21 2612.22 2243.32 2614.02C2252.96 2619.58 2268.73 2601.7 2273.58 2596C2277.09 2591.88 2280.5 2586.79 2285.01 2583.7C2289.15 2580.87 2295.02 2580.86 2298.3 2576.78C2301.89 2572.3 2301.62 2565.81 2304.69 2561C2312.98 2548.02 2325.28 2536.95 2335 2525M2435 2454L2435 2633L2435.17 2678L2440.39 2694.43L2459 2699M4015 2479L4015 2630C4015 2647.16 4010.24 2677.15 4020.7 2691.96C4026.97 2700.83 4043.4 2699 4053 2699M1726 2536C1719.27 2535.09 1714.32 2531.52 1708 2529.63C1693.59 2525.32 1674.61 2525.76 1662 2534.79C1640.51 2550.18 1640.81 2582.55 1655.74 2602C1658.07 2605.03 1658.89 2609.88 1662.22 2611.99C1670.12 2616.98 1690.01 2615.92 1699 2614.84C1725.39 2611.69 1737.33 2587.69 1732.69 2563C1731.33 2555.76 1723.67 2543.21 1727.07 2536.02C1731.49 2526.66 1753.9 2524.72 1763 2524M516 2560C524.323 2527.91 554.822 2524.05 584 2526.83C595.357 2527.91 606.64 2527.57 615.999 2535.33C632.18 2548.74 631 2572.93 631 2592C600.335 2592 560.96 2590.85 534 2607.46C509.599 2622.5 502.693 2665.77 524.301 2686.67C549.848 2711.38 586.611 2691.2 610 2676.26C615.282 2672.89 628.41 2672.67 631.258 2666.72C633.922 2661.16 632 2651.08 632 2645L632 2593M1048 2652C1043.7 2663.15 1039.97 2674.38 1030.96 2682.83C1008.62 2703.79 967.354 2703.89 946.286 2680.96C920.897 2653.33 916.32 2606.04 926.721 2571C938.269 2532.09 990.357 2512.04 1025 2535.1C1037.6 2543.49 1044.96 2557.85 1049 2572M1321 2611C1321 2586.22 1322.57 2557.63 1343 2540.32C1367.33 2519.73 1409 2523.58 1429.54 2548.01C1438.28 2558.42 1441.56 2572.74 1442.83 2586C1443.36 2591.54 1446.12 2605.26 1442.4 2609.68C1438.44 2614.38 1425.56 2612 1420 2612L1354 2612L1330 2612C1326.87 2612.01 1322.43 2611.38 1321.32 2615.15C1319.38 2621.67 1321.67 2632.32 1322.58 2639C1330.28 2695.57 1403.34 2721.48 1439 2673M1502 2527L1527 2527M1841 2552C1846.79 2549.43 1853.45 2548.46 1859 2545.44C1868.57 2540.24 1876.06 2533.06 1887 2530.34C1906.42 2525.51 1943.8 2521.25 1958.79 2538.04C1969.99 2550.6 1968 2571.43 1968 2587L1968 2698M2529 2696L2529 2597C2529 2585.65 2525.08 2565.6 2529.6 2555.21C2532.42 2548.74 2544.55 2548.01 2549.91 2544.31C2556.23 2539.95 2560.63 2534.1 2568 2531.09C2597.07 2519.24 2623.98 2530.72 2638.45 2557C2643.74 2566.6 2640 2586.15 2640 2597L2640 2696M2640 2557C2644.5 2553.32 2650.35 2552.14 2654.71 2548.5C2660.88 2543.35 2664.64 2536.78 2672 2532.8C2694.48 2520.65 2735.96 2523.8 2745.35 2551C2750.88 2566.98 2749 2586.37 2749 2603L2749 2695M2838 2696L2838 2594L2838 2567C2838 2563.58 2837.08 2558.41 2839.03 2555.39C2842.77 2549.6 2853.47 2549.66 2858.96 2546.16C2865.69 2541.87 2870.56 2535.91 2878 2532.36C2897.97 2522.84 2940.67 2521.57 2954.3 2542C2963.03 2555.08 2961 2576.02 2961 2591L2961 2697M3096 2527.43C3103.94 2526.29 3113.07 2526.44 3121 2527.58C3132.08 2529.17 3143.96 2531.4 3152.99 2538.53C3177.25 2557.7 3176.99 2599.4 3175.09 2627C3173.04 2656.72 3161.53 2693.17 3127 2697.71C3100.15 2701.24 3071.8 2699.18 3053.33 2677C3042.59 2664.11 3039.78 2647.13 3037.84 2631C3033.73 2596.58 3038.09 2550.83 3073 2533.38C3080.03 2529.86 3088.29 2528.53 3096 2527.43M3259 2659L3259 2578C3259 2570.96 3255.92 2554.35 3260.03 2548.51C3263.76 2543.19 3275.52 2543.71 3281 2540.54C3299.84 2529.64 3324.5 2521.29 3346 2530.91C3371.97 2542.52 3380.58 2577.8 3378.91 2604C3376.87 2636.01 3368.14 2675.23 3329 2676.96C3320.96 2677.32 3312.91 2676.9 3305 2675.38C3293.18 2673.11 3283.56 2666.01 3272 2663.1C3269.14 2662.38 3263.41 2659.45 3260.6 2661.2C3256.81 2663.56 3259 2677.97 3259 2682L3259 2744M3569 2550L3569 2627C3569 2633.84 3571.96 2649.81 3567.97 2655.49C3564.11 2660.98 3550.84 2661.03 3545 2664.24C3524.38 2675.58 3488.35 2686.61 3468.3 2667.53C3454.69 2654.58 3451.22 2630.89 3451 2613C3450.69 2586.48 3451.59 2541.16 3482 2529.97C3498.63 2523.84 3521.01 2526.65 3536 2535.81C3543.49 2540.39 3549.63 2543.68 3558 2546.34C3560.46 2547.13 3564.91 2549.53 3567.4 2547.88C3570.94 2545.53 3569 2533.81 3569 2530M3792 2665C3795.5 2677.06 3803.46 2685.81 3815 2690.96C3847.24 2705.33 3920.53 2705.27 3924.99 2659C3927.29 2635.19 3909.1 2624.77 3889 2619C3855.73 2609.45 3805.75 2617.06 3800.29 2572C3795.04 2528.71 3846.09 2523.38 3877 2528.56C3892.19 2531.11 3907.01 2537.61 3913 2553M3980 2527L4060 2527M4892 2527C4881.6 2549.25 4866.24 2574.48 4851.21 2593.96C4848.56 2597.4 4844.09 2598.69 4841.6 2602.13C4836.82 2608.77 4842.75 2618.94 4838.97 2625.95C4836.34 2630.83 4829.67 2632.28 4826.36 2637.02C4812.28 2657.14 4797.95 2678.54 4786 2700M4957 2527C4971.39 2559.47 4981.53 2595.35 4993 2629C4997.51 2642.23 5000.55 2661.7 5015 2667C5010.45 2691.57 5011.05 2732.09 4983 2743.65C4975.8 2746.61 4967.61 2746 4960 2746M5139 2527L5226 2527C5232.2 2527 5251.55 2523.83 5254.93 2530.15C5256.83 2533.71 5254.06 2539.47 5253 2543C5249.21 2555.6 5237.24 2566.76 5229.21 2577C5206.59 2605.85 5184.01 2634.78 5161.87 2664C5156.12 2671.6 5151.66 2677.7 5149.15 2687C5148.44 2689.62 5146.59 2694.02 5148.69 2696.4C5151.62 2699.71 5161.01 2698 5165 2698L5212 2698L5262 2698M1528 2528L1528 2697M4788 2528C4802.15 2554.59 4818.21 2583.65 4840 2604M4322 2529C4337.75 2570.12 4346.79 2614.17 4360.67 2656C4364.32 2667.02 4366.77 2693.91 4382 2693.91C4398.3 2693.91 4401.07 2666.96 4404.58 2655C4416.78 2613.32 4427.48 2569.53 4443 2529M4505 2529C4514.15 2573.33 4525.3 2618.38 4537.42 2662C4539.75 2670.37 4540.47 2683.88 4545.59 2690.9C4549.69 2696.52 4558.71 2697.78 4563.7 2692.66C4570.37 2685.81 4570.92 2668.11 4573.13 2659C4580.15 2630.08 4586.97 2601.05 4593.42 2572C4595.46 2562.85 4597.46 2534.6 4611 2535.21C4625.79 2535.88 4626.8 2561.65 4629.37 2572C4636.56 2600.89 4642.44 2630.11 4649.63 2659C4651.94 2668.29 4652.39 2684.32 4658.51 2691.81C4662.92 2697.2 4673.99 2698.04 4678.14 2691.89C4682.92 2684.83 4683.13 2672.23 4685.13 2664C4692.3 2634.45 4698.87 2604.69 4705.42 2575C4708.73 2560.01 4713.75 2544.3 4715 2529M5077 2529C5067.78 2562.8 5051.24 2594.94 5039.66 2628C5034.51 2642.69 5031.49 2659.52 5016 2666M2056 2530L2056 2696M2147 2530L2147 2690C2147 2712.98 2143.21 2736.9 2117 2742M2529 2530L2529 2552M2838 2530L2838 2553M3259 2530L3259 2546M3657 2530L3657 2696M4125 2530L4125 2623C4125 2640.32 4124.22 2661.39 4132.9 2677C4145.81 2700.22 4180.46 2700.73 4202 2690.68C4209.88 2687 4215.79 2681.11 4223 2676.52C4228.64 2672.94 4241.79 2672.81 4245.15 2666.7C4250.58 2656.8 4247 2638.01 4247 2627L4247 2530M3658 2561C3684.64 2555.49 3706.18 2533.58 3734 2533M728 2547C722.505 2590.48 727 2637.15 727 2681M2298 2578C2309.53 2589.81 2315.16 2607.32 2322.26 2622C2334.85 2648.02 2349.89 2673.32 2361 2700M1661 2612C1653.58 2621.73 1642.82 2651.03 1657.21 2659.99C1663.62 2663.97 1674.75 2662.42 1682 2663.29C1711.73 2666.84 1773.78 2676.63 1754.61 2721C1750.02 2731.62 1737.68 2737.63 1727 2740.2C1704.14 2745.69 1675.56 2747.15 1653 2739.67C1643.09 2736.38 1631.19 2733.15 1626.14 2723C1618.61 2707.86 1624.2 2690.25 1636.01 2679.09C1642.71 2672.78 1651.1 2669.86 1655 2661M2243 2617L2241 2647L2241 2697M4841 2628C4852.62 2632.84 4857.15 2642.63 4863.4 2653C4872.91 2668.76 4882.17 2685.11 4893 2700M3569 2658L3569 2743M631 2669L635 2698M4245 2669C4249 2676.49 4247 2687.65 4247 2696M1242 2684L1242 2697"
     id="path4" />
</svg>
