<?xml version="1.0" encoding="UTF-8" standalone="no"?>
<!-- Created with Inkscape (http://www.inkscape.org/) -->

<svg
   xmlns:dc="http://purl.org/dc/elements/1.1/"
   xmlns:cc="http://creativecommons.org/ns#"
   xmlns:rdf="http://www.w3.org/1999/02/22-rdf-syntax-ns#"
   xmlns:svg="http://www.w3.org/2000/svg"
   xmlns="http://www.w3.org/2000/svg"
   xmlns:sodipodi="http://sodipodi.sourceforge.net/DTD/sodipodi-0.dtd"
   xmlns:inkscape="http://www.inkscape.org/namespaces/inkscape"
   width="66.528152"
   height="41.392208"
   id="svg3690"
   version="1.1"
   inkscape:version="0.48.4 r9939"
   sodipodi:docname="arsene50.svg">
  <defs
     id="defs3692" />
  <sodipodi:namedview
     id="base"
     pagecolor="#ffffff"
     bordercolor="#666666"
     borderopacity="1.0"
     inkscape:pageopacity="0.0"
     inkscape:pageshadow="2"
     inkscape:zoom="0.37734375"
     inkscape:cx="-86.02164"
     inkscape:cy="163.55324"
     inkscape:document-units="px"
     inkscape:current-layer="layer1"
     showgrid="false"
     inkscape:window-width="476"
     inkscape:window-height="456"
     inkscape:window-x="0"
     inkscape:window-y="21"
     inkscape:window-maximized="0"
     fit-margin-top="0"
     fit-margin-left="0"
     fit-margin-right="0"
     fit-margin-bottom="0" />
  <metadata
     id="metadata3695">
    <rdf:RDF>
      <cc:Work
         rdf:about="">
        <dc:format>image/svg+xml</dc:format>
        <dc:type
           rdf:resource="http://purl.org/dc/dcmitype/StillImage" />
        <dc:title />
      </cc:Work>
    </rdf:RDF>
  </metadata>
  <g
     inkscape:label="Layer 1"
     inkscape:groupmode="layer"
     id="layer1"
     transform="translate(-461.02164,-654.52322)">
    <path
       style="fill:#00aa5a;fill-opacity:1;stroke:none"
       d="m 480.73256,695.84641 -19.71092,-0.0306 0,-6.51963 0,-6.51964 32.78111,0 32.78111,0 0,-0.6037 0,-0.60371 -32.78111,0 -32.78111,0 0,-13.52295 0,-13.52296 33.26407,0 33.26408,0 0,20.64666 0,20.64666 -4.92019,0.005 c -2.7061,0.002 -5.12393,0.0341 -5.37296,0.0702 -0.6074,0.0881 -0.57091,-0.0729 0.0968,-0.42712 0.78965,-0.41891 1.67621,-1.45154 2.22218,-2.58829 0.74277,-1.5465 0.90356,-2.29844 0.90745,-4.24345 0.003,-1.60243 -0.0142,-1.72805 -0.33497,-2.41481 -0.77526,-1.65994 -2.14824,-2.4883 -4.12088,-2.48625 -3.50614,0.004 -6.06831,3.16255 -6.12948,7.55706 -0.0304,2.18445 0.54596,3.41918 2.05735,4.40734 0.25038,0.1637 0.003,0.1811 -2.56849,0.1811 -1.56501,0 -2.84554,-0.008 -2.8456,-0.0187 -5e-5,-0.0102 0.28839,-0.18147 0.64098,-0.38046 1.31116,-0.73997 2.12064,-2.12671 2.22585,-3.81315 0.0835,-1.33899 -0.15992,-2.0874 -0.92933,-2.85682 -0.72941,-0.72939 -1.5311,-1.01268 -2.84316,-1.00461 -0.70288,0.005 -1.11884,0.0736 -1.52744,0.25457 l -0.56151,0.24864 0.24056,-0.71235 0.24057,-0.71234 2.74901,0 2.74902,0 0.26722,-1.34125 c 0.14698,-0.73768 0.29652,-1.41757 0.33232,-1.51084 0.0552,-0.14399 -0.56926,-0.1648 -4.13809,-0.13782 l -4.20315,0.0318 -1.12054,3.44111 c -0.61629,1.89261 -1.12162,3.48186 -1.12296,3.53167 -10e-4,0.0498 0.69549,0.0906 1.5485,0.0906 1.43207,0 1.56854,-0.0198 1.78093,-0.25815 0.74082,-0.83144 2.54393,-0.75815 2.99902,0.1219 0.26391,0.51035 0.239,1.32075 -0.0555,1.8037 -0.30722,0.50392 -0.93698,0.77151 -1.81567,0.77151 -0.85597,0 -1.40584,-0.27217 -1.62902,-0.80631 l -0.16877,-0.40391 -1.62337,-0.0138 c -1.84346,-0.0157 -1.78349,-0.053 -1.62045,1.01052 0.15128,0.98684 0.85719,1.9019 1.96248,2.54393 0.17425,0.10122 0.15253,0.12085 -0.13349,0.12074 -0.18787,-8e-5 -9.21149,-0.0139 -20.0525,-0.0307 z m -8.24055,-15.14599 c 2.11202,-0.50777 3.41145,-1.9124 3.41917,-3.69594 0.008,-1.94849 -0.97113,-2.92574 -3.76452,-3.75559 -1.75604,-0.52168 -1.94344,-0.64081 -1.94688,-1.23767 -0.002,-0.39473 0.59886,-0.93904 1.0639,-0.96336 1.40312,-0.0734 2.07352,0.24759 2.07352,0.99268 0,0.21699 0.10388,0.23161 1.64555,0.23161 l 1.64555,0 -0.0834,-0.62896 c -0.27031,-2.03776 -1.56994,-3.0638 -4.05285,-3.19965 -1.39501,-0.0763 -2.35434,0.0881 -3.3442,0.57307 -1.65983,0.81326 -2.44325,2.51872 -1.95867,4.26388 0.27233,0.98078 1.50698,1.83326 3.43696,2.37312 1.26626,0.35419 1.82067,0.64823 2.04681,1.08554 0.16527,0.31959 0.16602,0.40699 0.007,0.78798 -0.22537,0.53938 -0.76703,0.78205 -1.74563,0.78205 -1.21311,0 -1.89086,-0.41255 -2.02167,-1.23059 l -0.0735,-0.45977 -1.57097,0 -1.57096,0 0.0636,0.70181 c 0.13164,1.45183 1.13139,2.73511 2.51374,3.22666 1.16128,0.41294 2.8778,0.47526 4.21764,0.15313 z m 47.67531,0.15755 c 0.22177,-0.14052 0.0782,-0.76589 -0.24249,-1.05608 -0.2454,-0.22208 -0.24507,-0.22291 0.11701,-0.29696 0.19969,-0.0408 0.78432,0.005 1.29915,0.10016 1.1523,0.2147 1.98287,0.12574 1.98287,-0.21239 0,-0.29002 -0.34767,-0.47982 -0.87891,-0.47982 -0.41251,0 -0.65512,-0.17959 -0.90984,-0.67352 -0.1675,-0.32481 0.14567,-2.22776 0.46541,-2.82795 0.21877,-0.41066 0.47327,-1.28049 0.78164,-2.67152 0.43446,-1.95982 0.28212,-6.90646 -0.29824,-9.6838 -0.0809,-0.38711 -0.12747,-0.72345 -0.10349,-0.74742 0.024,-0.024 0.36831,0.0635 0.76517,0.19449 0.39687,0.13095 1.10193,0.29957 1.56678,0.37471 0.46485,0.0751 0.97476,0.23643 1.13313,0.35842 0.34538,0.26602 0.92728,0.29138 1.022,0.0446 0.0374,-0.0975 0.0152,-0.20991 -0.0494,-0.24983 -0.0646,-0.0399 -0.0898,-0.11722 -0.0561,-0.17177 0.0337,-0.0546 -0.0741,-0.18788 -0.23951,-0.29629 -0.34951,-0.229 -0.38328,-0.50399 -0.10033,-0.81666 0.11028,-0.12185 0.16165,-0.26039 0.11418,-0.30786 -0.0475,-0.0475 -0.12411,-0.0325 -0.17031,0.0334 -0.15185,0.21642 -0.7681,0.4293 -0.91251,0.3152 -0.0756,-0.0597 -0.33164,-0.14349 -0.56904,-0.18618 -0.2534,-0.0456 -0.57746,-0.23122 -0.78481,-0.44961 -0.19425,-0.20459 -0.63843,-0.56237 -0.98707,-0.79505 -0.34864,-0.23268 -0.63389,-0.47211 -0.63389,-0.53206 0,-0.0599 -0.0815,-0.109 -0.18111,-0.109 -0.0996,0 -0.18111,-0.0777 -0.18111,-0.17274 0,-0.31039 -0.53605,-1.01894 -0.86051,-1.13741 -0.20568,-0.0751 -0.52085,-0.0724 -0.89669,0.008 -0.72147,0.15388 -0.94188,-0.0418 -0.76573,-0.6798 0.0887,-0.32128 0.0526,-0.52793 -0.1862,-1.06812 -0.16292,-0.36836 -0.41992,-0.75641 -0.57114,-0.86233 -0.43425,-0.30415 -1.00628,-0.24289 -1.45216,0.1555 -0.35669,0.31871 -0.39364,0.4202 -0.43786,1.20279 -0.0473,0.83621 -0.0389,0.86573 0.38767,1.36402 0.23977,0.28013 0.43596,0.55657 0.43596,0.61433 0,0.18868 -0.38971,0.86418 -0.85431,1.48082 -0.25046,0.33242 -0.48466,0.74024 -0.52044,0.90626 -0.0358,0.16602 -0.095,1.19835 -0.13154,2.29408 -0.0842,2.52189 -0.21756,3.1636 -0.76884,3.699 -0.23002,0.2234 -0.46422,0.40618 -0.52044,0.40618 -0.0562,0 -0.10221,0.0815 -0.10221,0.18111 0,0.0996 0.0825,0.18111 0.1834,0.18111 0.14106,0 0.16297,0.0767 0.0948,0.33204 -0.0487,0.18262 -0.0905,0.49456 -0.0928,0.69322 -0.004,0.33508 0.0332,0.36626 0.51489,0.43151 0.58311,0.079 0.89029,-0.10003 1.04943,-0.61159 0.0516,-0.16601 0.16809,-0.40902 0.25876,-0.54001 0.0907,-0.13099 0.16485,-0.41778 0.16485,-0.63733 0,-0.21954 0.16882,-0.7336 0.37515,-1.14236 0.29922,-0.59275 0.38672,-0.94033 0.43228,-1.71711 0.0314,-0.53566 0.0843,-1.05543 0.11764,-1.15503 0.0983,-0.2942 0.4965,0.59892 0.65244,1.46338 0.26089,1.44629 0.26385,1.56184 0.0539,2.11142 -0.16374,0.42879 -0.19167,0.75229 -0.13234,1.53304 0.1833,2.41186 0.18334,2.41122 -0.28132,4.84353 -0.15669,0.8202 -0.25187,1.80266 -0.25187,2.59981 0,0.70475 -0.0726,1.56131 -0.16137,1.90345 -0.19552,0.75373 -0.1287,1.33 0.17628,1.52048 0.12461,0.0778 0.22657,0.20149 0.22657,0.27484 0,0.26714 0.5113,0.58581 1.06393,0.66307 0.31135,0.0435 0.59324,0.0856 0.62644,0.0934 0.0332,0.008 0.1341,-0.0324 0.2242,-0.0895 z m -33.6124,-0.24924 c 0.0654,-0.10578 0.54672,-2.35466 0.54672,-2.55432 0,-0.0601 -1.41089,-0.10745 -3.19963,-0.10745 -2.4829,0 -3.19808,-0.0338 -3.19271,-0.15093 0.004,-0.083 0.10278,-0.58559 0.21995,-1.11684 l 0.21302,-0.96593 2.97968,-0.0323 c 1.63883,-0.0178 2.97969,-0.055 2.97969,-0.0827 0,-0.0577 0.32987,-1.68063 0.42452,-2.08856 l 0.063,-0.27167 -2.97004,0 -2.97005,0 0.0757,-0.39241 c 0.0416,-0.21582 0.1333,-0.65221 0.20367,-0.96975 l 0.12794,-0.57736 3.18549,0.0423 c 2.81237,0.0373 3.19214,0.0201 3.24243,-0.14709 0.0561,-0.18667 0.54913,-2.43833 0.54913,-2.50798 0,-0.0197 -2.16054,-0.0358 -4.80119,-0.0358 l -4.80118,0 -0.27598,1.35833 c -0.15179,0.74709 -0.70793,3.44607 -1.23586,5.99773 -0.52793,2.55167 -0.95987,4.65817 -0.95987,4.68112 0,0.0955 9.53615,0.0177 9.5955,-0.0784 z m 4.96926,-0.0306 c 0.0699,-0.11304 1.04138,-4.92801 1.3776,-6.82761 0.0853,-0.48181 0.1733,-0.8578 0.19559,-0.83551 0.0223,0.0223 0.64243,1.74697 1.37808,3.83263 0.73566,2.08566 1.39708,3.82889 1.46981,3.87384 0.18194,0.11245 2.89852,0.12236 3.05462,0.0111 0.0693,-0.0494 0.66217,-2.67061 1.31746,-5.82496 0.6553,-3.15435 1.21662,-5.83194 1.24738,-5.9502 0.0518,-0.1992 -0.0581,-0.21252 -1.49456,-0.18111 l -1.55046,0.0339 -0.7209,3.83103 c -0.3965,2.10706 -0.74467,3.80727 -0.77371,3.77822 -0.0291,-0.0291 -0.65949,-1.75301 -1.40097,-3.83103 l -1.34817,-3.77822 -1.63319,-0.0335 -1.63319,-0.0335 -1.22994,5.93042 c -0.67646,3.26173 -1.19808,5.98195 -1.15916,6.04494 0.0938,0.15177 2.80828,0.11381 2.90371,-0.0406 z m 19.33236,-0.0104 c 0.0608,-0.0801 0.20446,-0.60748 0.31929,-1.17194 0.11484,-0.56447 0.23645,-1.12138 0.27026,-1.23759 0.0575,-0.19756 -0.15165,-0.2113 -3.21482,-0.2113 -3.06468,0 -3.27205,-0.0136 -3.21088,-0.2113 0.0656,-0.21178 0.43384,-1.93352 0.43384,-2.02818 0,-0.0277 1.34247,-0.0649 2.98326,-0.0827 l 2.98328,-0.0323 0.21084,-1.02629 c 0.11595,-0.56447 0.21332,-1.09422 0.21635,-1.17722 0.004,-0.11679 -0.66411,-0.15093 -2.95492,-0.15093 l -2.96044,0 0.0748,-0.29826 c 0.0412,-0.16403 0.13853,-0.58512 0.21638,-0.93574 l 0.14151,-0.63749 3.18452,-0.0279 c 1.75149,-0.0153 3.20053,-0.0439 3.22009,-0.0635 0.0513,-0.0513 0.53243,-2.2822 0.53243,-2.46869 0,-0.12563 -0.9421,-0.15658 -4.76696,-0.15658 l -4.76696,0 -0.063,0.27167 c -0.50445,2.17558 -2.35496,11.51131 -2.30668,11.63711 0.0547,0.14257 0.81914,0.16896 4.70627,0.16248 3.47375,-0.006 4.66876,-0.0444 4.75148,-0.15339 z m -24.72083,-13.09824 c 0,-0.0236 -0.38022,-0.55557 -0.84494,-1.18203 l -0.84494,-1.13903 -1.53969,0.005 -1.53968,0.005 0.31665,0.26733 c 0.17415,0.14703 0.81751,0.691 1.42968,1.20883 l 1.11305,0.94153 0.95494,-0.0312 c 0.52521,-0.0172 0.95493,-0.0505 0.95493,-0.0742 z m 7.36596,-0.88717 c 0.29734,-0.53951 0.59539,-1.00121 0.66232,-1.02601 0.0669,-0.0248 1.0277,-0.0588 2.13501,-0.0756 l 2.01331,-0.0304 0.074,0.54333 c 0.0407,0.29883 0.10531,0.77425 0.14356,1.05648 l 0.0696,0.51315 1.55592,0 c 1.40292,0 1.55551,-0.0208 1.55177,-0.2113 -0.002,-0.11621 -0.42683,-2.79213 -0.94344,-5.94647 l -0.93929,-5.73519 -1.6223,-0.0321 -1.6223,-0.0321 -1.44889,2.49682 c -0.79689,1.37324 -1.86204,3.20783 -2.36699,4.07687 -0.50495,0.86903 -1.34179,2.31356 -1.85963,3.21006 -0.51786,0.8965 -1.02105,1.75225 -1.11821,1.90167 l -0.17665,0.27166 1.67582,0 1.67582,0 0.54062,-0.98092 z m 1.93108,-3.55616 c 0,-0.16221 2.11642,-4.12983 2.15127,-4.03293 0.021,0.0586 0.13149,1.00563 0.2454,2.10456 l 0.20711,1.99804 -1.3019,0 c -0.71604,0 -1.30188,-0.0313 -1.30188,-0.0697 z m 10.48927,4.0843 c 0.0632,-0.24902 0.26819,-1.22702 0.45558,-2.17333 l 0.34072,-1.72055 1.25138,0 c 1.41266,0 1.94518,0.17024 2.18989,0.70008 0.10041,0.21743 0.14481,0.87987 0.13311,1.9864 l -0.0175,1.66019 1.62462,0 1.62463,0 -0.10718,-0.39241 c -0.059,-0.21582 -0.0953,-1.20741 -0.0808,-2.20352 0.0249,-1.71123 0.0108,-1.83609 -0.25529,-2.26409 -0.15669,-0.252 -0.41527,-0.48652 -0.5828,-0.52857 -0.26984,-0.0677 -0.23846,-0.0968 0.30187,-0.27972 1.34112,-0.45401 1.9558,-1.32396 2.04596,-2.89567 0.0709,-1.23572 -0.11918,-1.8758 -0.74192,-2.49855 -0.82568,-0.82567 -1.21918,-0.8908 -5.38175,-0.8908 l -3.57015,0 -0.59045,2.86759 c -0.32474,1.57717 -0.88108,4.25309 -1.2363,5.94648 -0.35522,1.69339 -0.64642,3.09247 -0.6471,3.10907 -10e-4,0.0166 0.70296,0.0302 1.5637,0.0302 l 1.56498,0 0.11487,-0.45278 z m 1.3424,-6.32749 c 0,-0.0893 0.11908,-0.7464 0.26578,-1.46028 l 0.26672,-1.29796 1.42846,0 c 1.62101,0 2.19504,0.16015 2.38739,0.66609 0.29711,0.78145 0.0247,1.59451 -0.63976,1.90984 -0.56425,0.26776 -3.70723,0.42226 -3.70859,0.18231 z m 6.5471,32.55109 c -0.44769,-0.31357 -0.6469,-0.84878 -0.6441,-1.73052 0.006,-1.92067 0.81198,-4.20907 1.68294,-4.77874 0.60322,-0.39455 1.01364,-0.47597 1.53384,-0.3043 0.65216,0.21524 0.90162,0.70881 0.90217,1.78505 10e-4,1.98996 -0.77124,4.17535 -1.71772,4.86099 -0.56248,0.40746 -1.31249,0.47896 -1.75713,0.16752 z"
       id="path3457"
       inkscape:connector-curvature="0" />
  </g>
</svg>
