<?xml version="1.0" encoding="UTF-8" standalone="no"?>
<!-- Created with Inkscape (http://www.inkscape.org/) -->

<svg
   xmlns:dc="http://purl.org/dc/elements/1.1/"
   xmlns:cc="http://creativecommons.org/ns#"
   xmlns:rdf="http://www.w3.org/1999/02/22-rdf-syntax-ns#"
   xmlns:svg="http://www.w3.org/2000/svg"
   xmlns="http://www.w3.org/2000/svg"
   xmlns:sodipodi="http://sodipodi.sourceforge.net/DTD/sodipodi-0.dtd"
   xmlns:inkscape="http://www.inkscape.org/namespaces/inkscape"
   width="100"
   height="62.218079"
   id="svg3690"
   version="1.1"
   inkscape:version="0.48.4 r9939"
   sodipodi:docname="arsene50.svg">
  <defs
     id="defs3692" />
  <sodipodi:namedview
     id="base"
     pagecolor="#ffffff"
     bordercolor="#666666"
     borderopacity="1.0"
     inkscape:pageopacity="0.0"
     inkscape:pageshadow="2"
     inkscape:zoom="0.37734375"
     inkscape:cx="35.883125"
     inkscape:cy="163.55373"
     inkscape:document-units="px"
     inkscape:current-layer="layer1"
     showgrid="false"
     inkscape:window-width="1276"
     inkscape:window-height="775"
     inkscape:window-x="0"
     inkscape:window-y="21"
     inkscape:window-maximized="1"
     fit-margin-top="0"
     fit-margin-left="0"
     fit-margin-right="0"
     fit-margin-bottom="0" />
  <metadata
     id="metadata3695">
    <rdf:RDF>
      <cc:Work
         rdf:about="">
        <dc:format>image/svg+xml</dc:format>
        <dc:type
           rdf:resource="http://purl.org/dc/dcmitype/StillImage" />
        <dc:title />
      </cc:Work>
    </rdf:RDF>
  </metadata>
  <g
     inkscape:label="Layer 1"
     inkscape:groupmode="layer"
     id="layer1"
     transform="translate(-461.02164,-633.69784)">
    <path
       style="fill:#000000;fill-opacity:1;stroke:none"
       d="m 490.64958,695.81169 -29.62794,-0.046 0,-9.79981 0,-9.79982 49.27404,0 49.27405,0 0,-0.90743 0,-0.90745 -49.27405,0 -49.27404,0 0,-20.32666 0,-20.32668 49.99999,0 50.00001,0 0,31.03448 0,31.03447 -7.39565,0.008 c -4.0676,0.003 -7.7019,0.0513 -8.07622,0.10552 -0.913,0.13243 -0.85815,-0.10958 0.1455,-0.64201 1.18694,-0.62967 2.51955,-2.18185 3.34021,-3.89052 1.11648,-2.32458 1.35816,-3.45484 1.36401,-6.37843 0.005,-2.40865 -0.0213,-2.59747 -0.5035,-3.62975 -1.16531,-2.4951 -3.22907,-3.74023 -6.19419,-3.73714 -5.27016,0.006 -9.12142,4.7537 -9.21336,11.35919 -0.0457,3.28349 0.82064,5.13945 3.09245,6.62477 0.37635,0.24606 0.005,0.27222 -3.86076,0.27222 -2.3524,0 -4.2772,-0.012 -4.27729,-0.0281 -7e-5,-0.0153 0.43349,-0.27277 0.96347,-0.57188 1.97084,-1.11227 3.18759,-3.19671 3.34573,-5.73163 0.12551,-2.01267 -0.24038,-3.13762 -1.3969,-4.29416 -1.09639,-1.09636 -2.30143,-1.52218 -4.27362,-1.51005 -1.05651,0.008 -1.68175,0.11063 -2.29593,0.38265 l -0.84402,0.37374 0.3616,-1.07075 0.3616,-1.07074 4.1321,0 4.13212,0 0.40166,-2.01606 c 0.22093,-1.10882 0.44571,-2.13078 0.49952,-2.27098 0.083,-0.21643 -0.85567,-0.24771 -6.22006,-0.20716 l -6.31785,0.0478 -1.68431,5.17241 c -0.92636,2.84483 -1.68593,5.23367 -1.68795,5.30854 -10e-4,0.0749 1.04541,0.13618 2.32759,0.13618 2.15258,0 2.35771,-0.0298 2.67696,-0.38803 1.11354,-1.24976 3.82384,-1.13959 4.50789,0.18323 0.39669,0.76712 0.35925,1.98525 -0.0834,2.71118 -0.46179,0.75746 -1.4084,1.15968 -2.72918,1.15968 -1.28662,0 -2.11315,-0.40911 -2.44861,-1.21199 l -0.25369,-0.60712 -2.44012,-0.0208 c -2.77095,-0.0236 -2.68081,-0.0797 -2.43574,1.51894 0.2274,1.48334 1.28847,2.85879 2.94985,3.82384 0.26192,0.15215 0.22927,0.18165 -0.20065,0.18149 -0.28239,-1.2e-4 -13.846,-0.0209 -30.14138,-0.0462 z M 478.26302,673.0454 c 3.17462,-0.76324 5.12783,-2.87457 5.13943,-5.55545 0.012,-2.92883 -1.45973,-4.39775 -5.65854,-5.64512 -2.63954,-0.78415 -2.92122,-0.96322 -2.9264,-1.86037 -0.003,-0.59333 0.90016,-1.41149 1.59918,-1.44805 2.10906,-0.11033 3.11675,0.37216 3.11675,1.49212 0,0.32616 0.15615,0.34814 2.47347,0.34814 l 2.47346,0 -0.12536,-0.9454 c -0.40631,-3.06301 -2.35981,-4.60527 -6.09193,-4.80947 -2.09687,-0.11469 -3.53886,0.13242 -5.02675,0.86139 -2.49492,1.22243 -3.6725,3.78595 -2.94412,6.40914 0.40935,1.47423 2.26518,2.75562 5.16618,3.56709 1.90334,0.53239 2.73669,0.97437 3.0766,1.6317 0.24842,0.48038 0.24955,0.61176 0.0105,1.18443 -0.33876,0.81076 -1.15295,1.17552 -2.6239,1.17552 -1.82346,0 -2.8422,-0.62011 -3.03882,-1.84973 l -0.11048,-0.69109 -2.36136,0 -2.36135,0 0.0956,1.05491 c 0.19787,2.18228 1.70062,4.1112 3.77846,4.85006 1.74555,0.6207 4.32569,0.71438 6.33963,0.23018 z m 71.66186,0.23682 c 0.33335,-0.21122 0.11754,-1.15123 -0.36449,-1.58742 -0.36887,-0.33382 -0.36837,-0.33506 0.17588,-0.44637 0.30016,-0.0613 1.17893,0.008 1.95278,0.15055 1.73205,0.32272 2.9805,0.189 2.9805,-0.31925 0,-0.43593 -0.52259,-0.72122 -1.32111,-0.72122 -0.62006,0 -0.98473,-0.26995 -1.3676,-1.01239 -0.25178,-0.48823 0.21896,-3.3486 0.69956,-4.25076 0.32884,-0.61727 0.71139,-1.92473 1.17491,-4.01562 0.65304,-2.94585 0.42406,-10.38126 -0.4483,-14.55594 -0.1216,-0.58188 -0.1916,-1.08744 -0.15555,-1.12347 0.0361,-0.0361 0.55361,0.0954 1.15014,0.29235 0.59654,0.19683 1.65634,0.45029 2.35506,0.56323 0.69873,0.11289 1.46519,0.35538 1.70324,0.53875 0.51915,0.39986 1.39381,0.43798 1.53619,0.067 0.0562,-0.14655 0.0229,-0.31552 -0.0743,-0.37553 -0.0971,-0.06 -0.13498,-0.17619 -0.0843,-0.25819 0.0507,-0.0821 -0.11138,-0.2824 -0.36001,-0.44536 -0.52536,-0.34421 -0.57612,-0.75756 -0.15081,-1.22754 0.16576,-0.18315 0.24298,-0.3914 0.17162,-0.46275 -0.0714,-0.0714 -0.18655,-0.0488 -0.25599,0.0502 -0.22825,0.3253 -1.15455,0.64529 -1.37162,0.47378 -0.11363,-0.0897 -0.49849,-0.21568 -0.85533,-0.27985 -0.3809,-0.0685 -0.868,-0.34755 -1.17967,-0.67582 -0.29198,-0.30753 -0.95964,-0.84531 -1.48369,-1.19506 -0.52405,-0.34975 -0.95281,-0.70964 -0.95281,-0.79975 0,-0.09 -0.12251,-0.16384 -0.27223,-0.16384 -0.14971,0 -0.27223,-0.11679 -0.27223,-0.25965 0,-0.46656 -0.80575,-1.53159 -1.29346,-1.70967 -0.30916,-0.11288 -0.7829,-0.10882 -1.34783,0.012 -1.08446,0.2313 -1.41576,-0.0628 -1.15099,-1.02183 0.13333,-0.48292 0.0791,-0.79354 -0.27988,-1.60551 -0.24489,-0.55369 -0.63119,-1.13698 -0.85849,-1.29619 -0.65273,-0.45718 -1.51257,-0.36509 -2.18278,0.23374 -0.53615,0.47906 -0.59169,0.63161 -0.65816,1.80794 -0.0711,1.25692 -0.0585,1.3013 0.58272,2.05029 0.3604,0.42107 0.6553,0.83659 0.6553,0.92341 0,0.28361 -0.58578,1.29897 -1.28413,2.22586 -0.37647,0.49966 -0.72851,1.11267 -0.78229,1.36222 -0.0538,0.24954 -0.14279,1.80126 -0.19772,3.44828 -0.12656,3.79071 -0.32702,4.75528 -1.15566,5.56005 -0.34575,0.3358 -0.69778,0.61054 -0.78228,0.61054 -0.0845,0 -0.15364,0.12251 -0.15364,0.27223 0,0.14971 0.12401,0.27223 0.27567,0.27223 0.21203,0 0.24497,0.11529 0.1425,0.4991 -0.0732,0.2745 -0.13603,0.74338 -0.13949,1.04199 -0.006,0.50367 0.0499,0.55054 0.77394,0.64862 0.87649,0.11874 1.33822,-0.15036 1.57743,-0.9193 0.0776,-0.24953 0.25266,-0.61481 0.38894,-0.8117 0.13634,-0.19689 0.24779,-0.62797 0.24779,-0.95798 0,-0.33 0.25376,-1.1027 0.5639,-1.71711 0.44976,-0.89098 0.58129,-1.41343 0.64977,-2.58103 0.0472,-0.80516 0.12671,-1.58644 0.17683,-1.73615 0.14775,-0.44222 0.7463,0.90025 0.9807,2.19964 0.39215,2.17395 0.39659,2.34764 0.081,3.17372 -0.24612,0.64453 -0.2881,1.13079 -0.19892,2.30435 0.27552,3.62532 0.27558,3.62436 -0.42286,7.28042 -0.23552,1.23286 -0.37859,2.70962 -0.37859,3.90784 0,1.05932 -0.10913,2.34684 -0.24256,2.86112 -0.29389,1.13294 -0.19345,1.99915 0.26497,2.28546 0.18731,0.11695 0.34056,0.30287 0.34056,0.41312 0,0.40155 0.76855,0.88055 1.59922,0.99668 0.468,0.0654 0.89171,0.12867 0.94162,0.14039 0.0499,0.012 0.20157,-0.0487 0.337,-0.13453 z m -50.52358,-0.37464 c 0.0983,-0.159 0.82179,-3.53935 0.82179,-3.83946 0,-0.0903 -2.12074,-0.16151 -4.80944,-0.16151 -3.7321,0 -4.8071,-0.0508 -4.79903,-0.22687 0.006,-0.12476 0.15449,-0.88021 0.33061,-1.67875 l 0.32019,-1.45191 4.47883,-0.0485 c 2.46336,-0.0267 4.47884,-0.0827 4.47884,-0.12431 0,-0.0867 0.49584,-2.52619 0.63811,-3.13936 l 0.0947,-0.40835 -4.46433,0 -4.46435,0 0.11378,-0.58984 c 0.0625,-0.32441 0.20037,-0.98036 0.30614,-1.45766 l 0.19231,-0.86784 4.78819,0.0636 c 4.22734,0.0561 4.79818,0.0302 4.87377,-0.22109 0.0843,-0.28059 0.82541,-3.66511 0.82541,-3.76981 0,-0.0296 -3.24756,-0.0538 -7.21678,-0.0538 l -7.21677,0 -0.41483,2.04174 c -0.22816,1.12297 -1.0641,5.17987 -1.85765,9.01533 -0.79354,3.83547 -1.4428,7.0018 -1.4428,7.0363 0,0.14354 14.33401,0.0266 14.42322,-0.11785 z m 7.46941,-0.046 c 0.10507,-0.16991 1.56533,-7.4074 2.07071,-10.26274 0.12821,-0.72422 0.26049,-1.28938 0.29399,-1.25587 0.0335,0.0335 0.96565,2.62591 2.07143,5.76091 1.10578,3.13501 2.09998,5.7553 2.2093,5.82286 0.27348,0.16903 4.35683,0.18392 4.59147,0.0167 0.10417,-0.0743 0.99532,-4.01426 1.9803,-8.75564 0.985,-4.74137 1.82873,-8.76612 1.87497,-8.94388 0.0779,-0.29942 -0.0873,-0.31944 -2.24651,-0.27223 l -2.33053,0.051 -1.0836,5.75851 c -0.59599,3.16717 -1.11933,5.72279 -1.16298,5.67913 -0.0437,-0.0438 -0.9913,-2.63499 -2.10583,-5.75851 l -2.02647,-5.67913 -2.45488,-0.0504 -2.45489,-0.0503 -1.84875,8.91415 c -1.0168,4.90278 -1.80086,8.99161 -1.74236,9.08629 0.14099,0.22813 4.22119,0.17107 4.36463,-0.061 z m 29.05892,-0.0156 c 0.0914,-0.1204 0.30733,-0.91312 0.47993,-1.76157 0.17262,-0.84847 0.35542,-1.68557 0.40624,-1.86025 0.0864,-0.29696 -0.22795,-0.31761 -4.83227,-0.31761 -4.6066,0 -4.9183,-0.0204 -4.82635,-0.31761 0.0986,-0.31833 0.65211,-2.90632 0.65211,-3.04861 0,-0.0416 2.0179,-0.0975 4.48421,-0.1243 l 4.48424,-0.0486 0.31692,-1.54265 c 0.17428,-0.84846 0.32064,-1.64474 0.3252,-1.7695 0.006,-0.17555 -0.99824,-0.22687 -4.44161,-0.22687 l -4.44991,0 0.11244,-0.44832 c 0.0619,-0.24656 0.20822,-0.87951 0.32524,-1.40653 l 0.21271,-0.95823 4.78672,-0.0419 c 2.63271,-0.023 4.81079,-0.066 4.8402,-0.0954 0.0771,-0.0771 0.8003,-3.43043 0.8003,-3.71075 0,-0.18884 -1.41609,-0.23536 -7.16532,-0.23536 l -7.16533,0 -0.0947,0.40836 c -0.75825,3.27016 -3.53979,17.30291 -3.46722,17.49201 0.0822,0.2143 1.23127,0.25396 7.0741,0.24422 5.22147,-0.009 7.01772,-0.0667 7.14206,-0.23056 z m -37.15845,-19.68827 c 0,-0.0355 -0.57152,-0.83509 -1.27005,-1.77674 l -1.27005,-1.7121 -2.31434,0.008 -2.31433,0.008 0.47596,0.40183 c 0.26177,0.22101 1.22882,1.03866 2.14899,1.81702 l 1.67305,1.41524 1.43539,-0.0469 c 0.78946,-0.0258 1.43538,-0.0759 1.43538,-0.11153 z m 11.07194,-1.33352 c 0.44694,-0.81095 0.89495,-1.50495 0.99555,-1.54222 0.10056,-0.0373 1.54476,-0.0884 3.20919,-0.11364 l 3.02625,-0.0457 0.11123,0.81669 c 0.0612,0.44918 0.15829,1.16379 0.21579,1.58802 l 0.10461,0.77132 2.33874,0 c 2.10877,0 2.33813,-0.0313 2.33251,-0.31761 -0.003,-0.17467 -0.64158,-4.19691 -1.41811,-8.93827 l -1.41187,-8.6207 -2.43852,-0.0482 -2.43851,-0.0483 -2.17786,3.75303 c -1.19783,2.06415 -2.79888,4.82176 -3.55788,6.12804 -0.759,1.30626 -2.01688,3.47756 -2.79525,4.82511 -0.77841,1.34755 -1.53477,2.63385 -1.68081,2.85845 l -0.26553,0.40833 2.51897,0 2.51896,0 0.81262,-1.47444 z m 2.90265,-5.34535 c 0,-0.24382 3.18124,-6.20764 3.23363,-6.06199 0.0316,0.0881 0.19764,1.51158 0.36886,3.16341 l 0.31132,3.0033 -1.95692,0 c -1.0763,0 -1.95689,-0.0471 -1.95689,-0.10477 z m 15.76667,6.13921 c 0.095,-0.37431 0.40312,-1.84437 0.68479,-3.26679 l 0.51215,-2.5862 1.88097,0 c 2.12341,0 2.92385,0.2559 3.29168,1.05231 0.15093,0.32682 0.21767,1.32255 0.20008,2.9858 l -0.0263,2.49547 2.44201,0 2.44202,0 -0.16111,-0.58984 c -0.0887,-0.3244 -0.14325,-1.81488 -0.12145,-3.31216 0.0374,-2.57219 0.0162,-2.75987 -0.38373,-3.4032 -0.23553,-0.37879 -0.6242,-0.7313 -0.87602,-0.79451 -0.40561,-0.10176 -0.35844,-0.1455 0.45375,-0.42045 2.01586,-0.68244 2.9398,-1.99008 3.07533,-4.35255 0.10657,-1.85744 -0.17915,-2.81956 -1.1152,-3.75563 -1.2411,-1.24108 -1.83258,-1.33898 -8.08943,-1.33898 l -5.36638,0 -0.88752,4.31034 c -0.48812,2.37068 -1.32437,6.39292 -1.85831,8.93829 -0.53394,2.54537 -0.97165,4.64836 -0.97267,4.67331 -10e-4,0.025 1.05663,0.0454 2.35043,0.0454 l 2.35236,0 0.17266,-0.68058 z m 2.01779,-9.511 c 0,-0.13423 0.17899,-1.12193 0.3995,-2.19498 l 0.40091,-1.951 2.14716,0 c 2.43657,0 3.29941,0.24073 3.58854,1.00122 0.44659,1.17462 0.0371,2.39674 -0.96164,2.87072 -0.84814,0.40248 -5.57242,0.63471 -5.57447,0.27404 z m 9.8411,48.92829 c -0.67293,-0.47133 -0.97237,-1.27582 -0.96816,-2.60118 0.009,-2.887 1.2205,-6.32675 2.52966,-7.18303 0.90672,-0.59306 1.52363,-0.71545 2.30555,-0.45741 0.98028,0.32354 1.35525,1.06543 1.35608,2.68315 10e-4,2.99116 -1.15927,6.27607 -2.58195,7.30667 -0.84548,0.61246 -1.97283,0.71994 -2.64118,0.2518 z"
       id="path3457"
       inkscape:connector-curvature="0" />
  </g>
</svg>
