<?xml version="1.0" encoding="UTF-8" standalone="no"?>
<!-- Created with Inkscape (http://www.inkscape.org/) -->

<svg
   xmlns:dc="http://purl.org/dc/elements/1.1/"
   xmlns:cc="http://creativecommons.org/ns#"
   xmlns:rdf="http://www.w3.org/1999/02/22-rdf-syntax-ns#"
   xmlns:svg="http://www.w3.org/2000/svg"
   xmlns="http://www.w3.org/2000/svg"
   xmlns:sodipodi="http://sodipodi.sourceforge.net/DTD/sodipodi-0.dtd"
   xmlns:inkscape="http://www.inkscape.org/namespaces/inkscape"
   width="100"
   height="98.995064"
   id="svg3645"
   version="1.1"
   inkscape:version="0.48.4 r9939"
   sodipodi:docname="article27.svg">
  <defs
     id="defs3647" />
  <sodipodi:namedview
     id="base"
     pagecolor="#ffffff"
     bordercolor="#666666"
     borderopacity="1.0"
     inkscape:pageopacity="0.0"
     inkscape:pageshadow="2"
     inkscape:zoom="0.37734375"
     inkscape:cx="-237.34567"
     inkscape:cy="145.9059"
     inkscape:document-units="px"
     inkscape:current-layer="layer1"
     showgrid="false"
     inkscape:window-width="1276"
     inkscape:window-height="775"
     inkscape:window-x="0"
     inkscape:window-y="21"
     inkscape:window-maximized="1"
     fit-margin-top="0"
     fit-margin-left="0"
     fit-margin-right="0"
     fit-margin-bottom="0" />
  <metadata
     id="metadata3650">
    <rdf:RDF>
      <cc:Work
         rdf:about="">
        <dc:format>image/svg+xml</dc:format>
        <dc:type
           rdf:resource="http://purl.org/dc/dcmitype/StillImage" />
        <dc:title />
      </cc:Work>
    </rdf:RDF>
  </metadata>
  <g
     inkscape:label="Layer 1"
     inkscape:groupmode="layer"
     id="layer1"
     transform="translate(-528.0587,-579.27302)">
    <path
       style="fill:#000000;fill-opacity:1;stroke:none"
       d="m 600.32307,678.19545 c -0.10253,-0.0316 -0.88573,-0.2081 -1.74038,-0.39228 l -1.55386,-0.33488 0.12022,-1.22481 c 0.26317,-2.6802 1.10514,-5.43521 3.22396,-10.54923 2.31631,-5.5906 2.6309,-6.4989 3.12036,-9.00915 0.7347,-3.76791 1.74104,-7.1913 4.48043,-15.24108 1.3949,-4.09908 2.87043,-8.58575 3.27893,-9.97043 l 0.74272,-2.51759 -0.61451,-0.52024 c -1.2713,-1.07622 -3.966,-1.38579 -7.78946,-0.89486 -1.97893,0.2541 -3.80871,0.25796 -4.70174,0.009 -1.94497,-0.54017 -2.28993,-2.78302 -1.05617,-6.86662 l 0.41445,-1.37171 1.96994,-1.39785 c 4.25501,-3.0193 5.96471,-3.45928 10.34692,-2.66273 2.55251,0.46396 2.58753,0.46391 2.4391,-0.003 -0.15911,-0.50128 0.37409,-0.69999 0.81283,-0.30293 0.26987,0.24423 0.38895,0.25727 0.63263,0.0692 0.24659,-0.19027 0.32269,-0.82079 0.42633,-3.5327 l 0.12617,-3.3011 -2.00961,-13.66937 c -1.10528,-7.51817 -2.05828,-13.71911 -2.11778,-13.77988 -0.0595,-0.0607 -1.36692,-0.0109 -2.90547,0.11224 -1.73347,0.13807 -2.84082,0.15607 -2.91166,0.0476 -0.26311,-0.40316 -0.97462,-0.0454 -1.19972,0.6034 -0.1246,0.35899 -0.32821,0.62914 -0.45255,0.60032 -0.12429,-0.0288 -0.72644,-0.40526 -1.33802,-0.83653 -0.90453,-0.63789 -1.04916,-0.80745 -0.77531,-0.90901 0.18517,-0.0687 3.02209,-0.30549 6.30428,-0.52627 3.28221,-0.22078 6.53411,-0.44946 7.22645,-0.50816 0.69233,-0.0587 1.25879,-0.0551 1.25879,0.008 0,0.0631 0.96619,7.8995 2.14705,17.41432 2.03287,16.37982 2.16923,17.31754 2.56422,17.6349 0.22945,0.18435 1.54183,0.88669 2.91644,1.56075 2.34523,1.15005 3.8757,2.23903 4.32403,3.07673 0.2836,0.52994 -1.76219,5.77105 -7.37655,18.89785 -6.9104,16.15711 -10.12665,25.32145 -11.26631,32.10204 -0.42972,2.55674 -1.06354,4.32381 -1.92627,5.37043 -0.62785,0.76171 -1.80092,1.39963 -2.58605,1.40633 -0.27573,0 -0.67288,0.21288 -0.93243,0.49435 -0.61734,0.66941 -1.48105,1.00447 -2.54412,0.98693 -0.49049,-0.008 -0.97573,-0.0405 -1.07829,-0.0722 z m -30.78052,-17.11003 c -2.45097,-1.51465 -2.88553,-2.83154 -2.23304,-6.76694 0.1531,-0.92316 0.27974,-1.78199 0.28154,-1.90861 0.003,-0.18041 -3.5758,-0.24082 -16.57876,-0.27969 -9.12009,-0.0272 -16.62295,-0.0916 -16.67298,-0.14276 -0.0501,-0.051 -0.55915,-4.62495 -1.13132,-10.16364 -0.57221,-5.53871 -1.96487,-19.00044 -3.09482,-29.91493 -1.12996,-10.91449 -2.05447,-19.90042 -2.05447,-19.96872 0,-0.14073 7.99567,-1.02004 8.12251,-0.89317 0.13666,0.13666 -0.89405,2.37745 -1.04946,2.2814 -0.0794,-0.049 -0.19916,-0.33899 -0.26622,-0.64435 -0.13979,-0.63659 -0.44251,-0.89956 -0.64968,-0.5644 -0.11051,0.17883 -1.86006,0.49692 -3.05922,0.5562 -0.0913,0.005 -0.11239,0.53133 -0.0468,1.17374 0.12382,1.21462 1.20953,12.94896 2.17845,23.54421 0.53476,5.8476 1.67338,13.54331 2.06792,13.97662 0.0978,0.10754 0.26509,0.0346 0.42778,-0.1865 0.24882,-0.33805 0.2758,-0.34057 0.39364,-0.0366 0.0695,0.17951 0.0803,0.44668 0.0239,0.59376 -0.13055,0.34036 0.68739,1.38334 2.20359,2.80967 1.15918,1.09046 1.19233,1.1481 1.30303,2.26535 0.10676,1.07765 0.0844,1.16941 -0.37287,1.52908 -0.26755,0.21044 -0.87916,0.43826 -1.35915,0.50623 -0.66572,0.0942 -1.05091,0.2952 -1.62416,0.84715 l -0.75148,0.72356 0.45125,4.43061 c 0.24819,2.43683 0.46354,4.44766 0.47857,4.46851 0.0157,0.021 3.66724,0.13243 8.116,0.24802 6.31596,0.16406 8.52152,0.1599 10.06358,-0.0188 2.32647,-0.27004 2.97543,-0.45984 2.65794,-0.7773 -0.33803,-0.33802 -0.25622,-0.54431 0.19048,-0.48035 0.30028,0.0432 0.57192,-0.16223 1.03352,-0.78085 1.49447,-2.00289 1.54419,-2.05136 2.10382,-2.05136 0.6788,0 0.88851,0.36483 1.03393,1.79868 0.0609,0.60054 0.24328,1.40656 0.40525,1.79119 l 0.29447,0.69937 2.90889,-1e-4 2.90886,-7e-5 0.52512,-1.53844 c 1.30358,-3.8191 3.09706,-6.53335 5.30655,-8.03097 2.98211,-2.0213 6.9572,-7.07251 6.32044,-8.03152 -0.40077,-0.60359 -1.44138,-1.04785 -2.45178,-1.04673 -1.89365,0.003 -2.23756,0.20375 -4.75837,2.79001 -1.28212,1.31537 -2.62483,2.54227 -2.98382,2.72644 -0.81197,0.41656 -2.51217,0.45704 -3.24021,0.0772 -0.38611,-0.20149 -0.81867,-0.82759 -1.54602,-2.23787 -1.31012,-2.54022 -1.34475,-3.17246 -0.30209,-5.51615 1.7617,-3.95998 4.07745,-6.44999 7.7617,-8.34576 2.63591,-1.35635 4.18833,-1.7092 7.49027,-1.70253 2.57243,0.005 2.9171,0.0474 4.28744,0.52573 2.49977,0.87244 4.89071,2.58314 6.15,4.40032 0.5187,0.74847 0.52595,0.79512 0.415,2.66963 -0.19785,3.34274 -1.08485,5.86528 -3.60399,10.24945 -0.75908,1.32104 -1.71667,3.07121 -2.12797,3.88924 -0.82874,1.64827 -1.87112,4.57899 -1.74528,4.90689 0.0445,0.11584 0.51553,0.41013 1.0468,0.65384 0.88839,0.40753 1.12397,0.43403 2.93418,0.33026 1.08253,-0.0621 2.97528,-0.33082 4.2061,-0.59726 1.23084,-0.26638 2.99315,-0.64547 3.91627,-0.84246 0.92311,-0.19695 2.73398,-0.45657 4.02414,-0.57691 2.31447,-0.21593 2.35341,-0.21314 2.91956,0.20536 0.73576,0.54396 1.51084,1.96906 1.65903,3.05034 0.20893,1.52421 -0.011,2.02819 -1.7767,4.08644 -3.34673,3.89951 -4.95966,5.06076 -7.0511,5.07668 -0.91041,0.008 -1.21047,-0.0635 -1.40544,-0.33027 -0.18936,-0.25895 -0.4445,-0.32501 -1.08034,-0.27969 -0.72751,0.0517 -0.84031,0.11803 -0.89486,0.5255 -0.10535,0.78678 -0.33659,0.8256 -1.2631,0.21192 -0.92833,-0.61491 -1.19065,-0.6895 -1.48114,-0.42134 -0.53202,0.49117 -3.8069,1.18389 -7.63671,1.61528 -4.40064,0.4957 -6.97112,1.25076 -9.23122,2.71152 -1.09172,0.70564 -1.17329,0.72943 -1.41835,0.41363 -0.24197,-0.31176 -0.27688,-0.31337 -0.503,-0.0233 -0.22305,0.28616 -0.31872,0.26494 -1.16556,-0.25835 z m -17.79979,-13.38731 c 0,-0.20515 0.075,-0.37298 0.16654,-0.37298 0.20961,0 0.40514,0.48508 0.25575,0.6345 -0.22449,0.22444 -0.42229,0.10206 -0.42229,-0.26152 z m -13.61368,-2.05135 c 0,-0.10269 0.1728,-0.18653 0.38398,-0.18653 0.2112,0 0.33213,0.0839 0.26873,0.18653 -0.0634,0.10253 -0.23618,0.18645 -0.38397,0.18645 -0.14777,0 -0.26874,-0.0839 -0.26874,-0.18645 z m 15.66506,-0.26878 c 0,-0.14777 0.0839,-0.32057 0.18649,-0.38395 0.10253,-0.0634 0.18648,0.0575 0.18648,0.2687 0,0.21121 -0.0839,0.38403 -0.18648,0.38403 -0.10254,0 -0.18649,-0.12101 -0.18649,-0.26878 z m -15.47856,-20.24499 c 0,-0.28091 0.0974,-0.38158 0.32635,-0.3375 0.1795,0.0344 0.32636,0.18644 0.32636,0.3375 0,0.15106 -0.14683,0.30288 -0.32636,0.33746 -0.229,0.0441 -0.32635,-0.0567 -0.32635,-0.33746 z m -2.76005,-3.20762 c -0.3637,-0.36372 -0.25984,-0.52218 0.34225,-0.52218 0.50825,0 0.54566,0.0382 0.36643,0.37298 -0.22975,0.42927 -0.39401,0.46385 -0.70868,0.14918 z m 24.44325,-2.31323 c 0.062,-0.062 0.22281,-0.0686 0.35743,-0.0141 0.14871,0.0595 0.10457,0.10379 -0.1127,0.11271 -0.19658,0.008 -0.30674,-0.036 -0.24477,-0.098 z m -0.0506,-0.63329 c 0,-0.2072 0.12429,-0.37298 0.27974,-0.37298 0.15544,0 0.27973,0.16578 0.27973,0.37298 0,0.20721 -0.12429,0.37299 -0.27973,0.37299 -0.15545,0 -0.27974,-0.16578 -0.27974,-0.37299 z m -18.91771,-4.47397 c -1.05347,-0.28383 -1.4081,-0.48146 -1.90412,-1.0611 -0.94408,-1.10321 -1.26221,-1.88948 -1.26913,-3.13666 -0.0157,-2.79358 2.5512,-5.35579 5.64426,-5.63435 1.48601,-0.13384 1.7828,0.21289 1.87247,2.18753 l 0.0662,1.45709 -1.09136,0.13274 c -1.99484,0.24275 -2.64926,0.9271 -2.03058,2.12346 0.28045,0.54237 0.35518,0.57706 0.99423,0.46157 0.38004,-0.0687 0.7029,-0.13478 0.71746,-0.14668 0.0141,-0.0125 -0.0351,-0.42052 -0.11036,-0.90771 -0.0751,-0.48721 -0.1052,-0.88583 -0.0665,-0.88583 0.0385,0 0.75249,0.56449 1.58641,1.25441 1.2824,1.06096 1.49901,1.18319 1.40467,0.79258 -0.0614,-0.254 -0.20359,-1.80454 -0.31607,-3.44565 -0.2927,-4.27082 -0.24826,-4.10406 -1.22332,-4.59101 -0.95215,-0.47555 -0.9663,-0.51025 -0.99665,-2.44893 l -0.0227,-1.44529 0.97796,0.003 c 0.55036,0.003 1.31528,0.15727 1.74946,0.35443 0.91127,0.41379 2.22956,1.56052 2.57315,2.23829 0.13383,0.26414 0.34084,1.73905 0.45989,3.27758 0.11896,1.53852 0.26232,3.32035 0.31842,3.95959 l 0.10207,1.16227 0.73965,0.19918 c 0.87426,0.2354 1.09624,0.66876 1.09624,2.14006 0,0.82505 -0.0736,1.05449 -0.41447,1.29328 -0.55083,0.38584 -2.55067,0.38285 -3.46117,-0.005 -1.55377,-0.66214 -2.46497,-0.55898 -2.46497,0.27907 0,0.31669 -0.12069,0.58227 -0.295,0.64916 -0.61166,0.23471 -3.3788,0.0808 -4.63608,-0.25804 z m 14.01176,-5.24499 c -0.46073,-3.09293 -1.19115,-11.28696 -1.02126,-11.45685 0.0379,-0.0379 1.81412,-0.22269 3.94738,-0.41085 2.78526,-0.24567 3.95558,-0.28582 4.15166,-0.14245 0.15012,0.10989 0.35033,0.53308 0.44482,0.9406 0.20833,0.89862 0.23419,2.64617 0.0409,2.75792 -0.077,0.0445 -0.6271,-0.0424 -1.2226,-0.19309 -1.25987,-0.31872 -1.6832,-0.24047 -2.49295,0.46087 l -0.59188,0.51259 0.36747,5.29069 c 0.20211,2.90987 0.33566,5.32248 0.29678,5.36137 -0.039,0.039 -0.82191,0.12398 -1.7401,0.18919 l -1.66942,0.1185 -0.51072,-3.42849 z m -20.27003,2.74118 c 0,-0.16241 0.1329,-0.29528 0.29526,-0.29528 0.32936,0 0.27199,0.40147 -0.0737,0.51673 -0.12179,0.0405 -0.22147,-0.059 -0.22147,-0.22145 z m 33.91295,-0.9687 c -0.3102,-0.0934 -0.79642,-1.0796 -1.35647,-2.75122 -0.16715,-0.49887 -0.44188,-2.3106 -0.61051,-4.02606 l -0.30661,-3.119 -0.66746,-0.28859 -0.66748,-0.28861 -0.20465,-1.74623 c -0.11255,-0.96044 -0.17057,-1.80916 -0.12883,-1.8861 0.0418,-0.077 0.33458,-0.13979 0.65085,-0.13979 l 0.575,0 -0.12554,-1.16554 c -0.069,-0.64107 -0.17657,-1.80563 -0.23894,-2.58792 l -0.11333,-1.42235 1.65763,-0.22394 c 0.91172,-0.12319 1.80452,-0.26502 1.98402,-0.31523 0.1795,-0.0503 0.3269,-0.0227 0.32758,0.0611 5.5e-4,0.0837 0.1685,1.27192 0.37299,2.6402 0.20445,1.36827 0.37174,2.50538 0.37174,2.5269 0,0.0214 0.42062,0.0349 0.93468,0.0299 1.09448,-0.011 1.06679,-0.0623 1.14997,2.13092 0.0546,1.43827 0.0274,1.58716 -0.29981,1.65188 -0.1979,0.0391 -0.47663,0.18798 -0.61942,0.33078 -0.14276,0.14276 -0.37951,0.25961 -0.52603,0.25961 -0.34375,0 -0.34116,0.69752 0.0141,3.88068 0.31589,2.82767 0.45355,3.20484 1.17098,3.20844 1.00188,0.005 1.33255,0.20072 1.52795,0.90425 0.27393,0.9862 0.2329,1.80968 -0.10409,2.08938 -0.29606,0.24571 -4.1159,0.44331 -4.76856,0.24667 z m 17.66442,-0.098 c -0.1221,-0.3671 -1.25969,-9.51541 -1.19033,-9.57197 0.0319,-0.026 0.45337,-0.0991 0.93639,-0.16233 1.04155,-0.13634 0.87033,-0.67746 1.54881,4.89572 0.58256,4.78537 0.58326,4.86331 0.044,4.8666 -0.23078,0.002 -0.60741,0.0529 -0.83694,0.11443 -0.2672,0.0715 -0.44774,0.0204 -0.50188,-0.14245 z m -2.67045,-0.49237 c -1.28774,-0.68117 -1.72527,-1.07305 -1.72527,-1.54524 0,-0.38252 0.006,-0.38311 0.44398,-0.0391 0.62352,0.49045 2.40758,2.1022 2.3269,2.10214 -0.0368,-2e-5 -0.50726,-0.23302 -1.04561,-0.51779 z m -6.52735,0.009 -0.60609,-0.0751 -0.003,-2.36592 c -0.002,-1.30126 -0.0556,-4.27509 -0.12038,-6.60853 l -0.11772,-4.24261 1.79869,0 c 1.74057,0 1.79876,0.0141 1.80018,0.4196 5.5e-4,0.23078 0.0557,3.02718 0.12179,6.21424 0.0662,3.18707 0.0639,6.01936 -0.005,6.29399 -0.11881,0.47363 -0.18039,0.49782 -1.19408,0.4695 -0.58781,-0.0164 -1.34149,-0.0637 -1.67484,-0.10504 z m 13.04961,-0.78716 c -0.32386,-0.52099 -0.79569,-1.0259 -1.04855,-1.12202 -0.36434,-0.13853 -0.48651,-0.35372 -0.58906,-1.03746 -0.11239,-0.74992 -0.039,-1.06575 0.56295,-2.41637 0.7156,-1.60601 0.89839,-1.76707 2.01169,-1.7726 0.28207,-0.002 0.5113,0.0185 0.50942,0.0442 -0.002,0.0257 -0.32656,0.71306 -0.72151,1.52758 -0.81967,1.69046 -0.9166,1.2615 0.88074,3.89715 0.54723,0.80247 0.96682,1.48469 0.93243,1.51605 -0.0343,0.0313 -0.48705,0.11411 -1.00591,0.18391 l -0.94337,0.12695 -0.58883,-0.94725 z m 15.93513,0.65944 c -0.134,-0.34925 0.80571,-0.60041 1.00994,-0.26993 0.0798,0.1293 0.10394,0.30196 0.0532,0.38378 -0.15497,0.25079 -0.95625,0.16499 -1.06324,-0.1138 z m -9.03099,-0.8015 c -0.7452,-0.14339 -1.66196,-1.19832 -1.98403,-2.28289 -0.36636,-1.23369 -0.38665,-2.79801 -0.0468,-3.61131 0.35392,-0.84698 1.36341,-1.80665 1.90047,-1.80665 0.42259,0 0.4439,0.0548 0.39809,1.0229 -0.0355,0.75314 -0.14213,1.09151 -0.40415,1.28305 -0.32927,0.24077 -0.34012,0.36121 -0.14573,1.61736 0.16333,1.05509 0.31677,1.45611 0.68931,1.80155 0.37655,0.34918 0.47921,0.62251 0.47921,1.27602 0,0.85363 -0.0174,0.86729 -0.88636,0.69997 z m 1.55347,-0.69636 c -0.16054,-0.85572 0.0351,-1.55732 0.47318,-1.69634 0.34448,-0.10927 1.65704,0.53996 1.65704,0.81969 0,0.46936 -1.2676,1.51819 -1.83486,1.51819 -0.0963,0 -0.22916,-0.28869 -0.29536,-0.64154 z m -16.97691,-0.65099 c -0.059,-0.0955 -0.0221,-0.2263 0.0822,-0.29073 0.10425,-0.0645 0.18952,0.0141 0.18952,0.1736 0,0.32756 -0.11193,0.37579 -0.27177,0.11709 z m 23.30031,-0.0787 c -0.2682,-0.82452 -1.26841,-10.00757 -1.10753,-10.16843 0.11693,-0.11693 1.71478,-0.13274 1.82959,-0.018 0.13665,0.1365 1.44653,10.10696 1.34161,10.21184 -0.19944,0.19946 -1.99775,0.17737 -2.06367,-0.0254 z m 7.48388,-1.13505 c 0.11741,-0.30593 1.00283,-0.93463 1.00672,-0.71482 0.002,0.0794 0.0531,0.33298 0.11506,0.56376 0.10128,0.37803 0.0462,0.4196 -0.55616,0.4196 -0.50532,0 -0.64345,-0.0656 -0.56555,-0.26854 z m -2.43489,-0.2036 c -0.33292,-0.25181 -0.28239,-0.2738 0.62892,-0.2738 0.85967,0 0.96017,0.0371 0.75877,0.27973 -0.29266,0.35263 -0.91715,0.34995 -1.38769,-0.006 z m -12.327,-0.041 c -0.10676,-0.0769 -0.20098,-0.49619 -0.2092,-0.9321 -0.0125,-0.64283 0.0481,-0.79258 0.31887,-0.79258 0.93141,0 1.17761,-0.45845 0.55081,-1.02568 -0.27519,-0.24906 -0.37298,-0.57438 -0.37298,-1.24108 0,-1.0398 0.0913,-1.07321 1.30096,-0.47627 1.0573,0.52174 1.42797,1.18898 1.58838,2.85934 l 0.12758,1.32848 -1.08887,0.12429 c -0.59886,0.0684 -1.29868,0.16276 -1.55509,0.20972 -0.25642,0.047 -0.55362,0.0227 -0.66047,-0.0542 z m -60.20813,-2.01967 c -0.17274,-0.45014 -0.13494,-1.67487 0.0681,-2.20904 0.49876,-1.31184 2.38259,-2.66825 4.13909,-2.98026 l 0.6839,-0.12147 0.13243,1.23687 c 0.1761,1.64446 -0.0931,2.49455 -1.04916,3.31288 -1.12844,0.96591 -3.70638,1.45953 -3.97441,0.76102 z m 47.78602,-6.04896 c -0.66028,-0.34884 -1.29474,-1.1638 -1.54116,-1.97961 -0.10363,-0.34294 -0.023,-0.41808 0.58482,-0.545 1.12162,-0.23423 1.54418,-0.18216 1.54418,0.19027 0,0.30918 0.55752,0.65927 1.04985,0.65927 0.18063,0 0.55699,-0.21898 0.83636,-0.48664 l 0.50795,-0.48663 0.76105,0.42774 c 0.41858,0.23524 0.76105,0.51948 0.76105,0.63163 0,0.77241 -1.93752,1.96734 -3.1703,1.95522 -0.35898,-0.003 -0.95921,-0.16835 -1.3338,-0.36625 z m -49.95059,-1.01134 c 0,-0.36506 0.0324,-0.66373 0.0722,-0.66373 0.15309,0 0.23029,1.14055 0.0833,1.2314 -0.0855,0.0529 -0.15544,-0.20264 -0.15544,-0.56767 z m 59.3028,-0.59714 c 0,-0.0878 -0.13274,-0.91511 -0.29427,-1.83823 -0.28714,-1.64093 -1.17885,-8.35467 -1.11968,-8.43007 0.12335,-0.15723 1.56274,-0.21798 1.77696,-0.075 0.18491,0.12335 0.48943,1.59904 0.9731,4.71533 0.90475,5.82945 0.90546,5.56139 -0.0157,5.56139 -0.40188,0 -0.86345,0.0509 -1.02568,0.11318 -0.16224,0.0623 -0.29526,0.0413 -0.29557,-0.0466 z m 7.46384,-1.60511 c -0.95875,-0.48984 -1.41306,-1.25269 -1.71595,-2.88134 -0.31983,-1.71993 -0.0897,-2.71769 0.85405,-3.70265 0.71508,-0.74629 1.3756,-1.06173 1.44295,-0.68908 0.17086,0.94554 0.0635,1.85794 -0.25469,2.16552 -0.30035,0.29026 -0.33848,0.49857 -0.23247,1.26936 0.20536,1.49312 0.36529,1.91586 0.79859,2.11077 0.34618,0.15575 0.40925,0.33535 0.40925,1.16554 0,1.13317 -0.0996,1.17611 -1.30173,0.56188 z m 2.12824,-0.0125 c -0.0573,-0.14918 -0.0778,-0.62896 -0.0457,-1.06619 0.0753,-1.02505 0.49436,-1.33022 1.22194,-0.88979 0.88603,0.53632 0.95203,0.82658 0.32638,1.43503 -0.68831,0.66938 -1.35672,0.90112 -1.50262,0.52095 z m -27.93416,-0.82678 c -0.0635,-0.38463 -0.11646,-1.09795 -0.11772,-1.58514 l -0.003,-0.88583 1.67839,0 1.67841,0 -0.003,1.16556 c -0.005,2.00829 -0.002,2.00476 -1.67321,2.00476 l -1.44574,0 -0.11553,-0.69935 z m 7.15441,0.1865 c 0.006,-1.97705 1.93675,-3.67615 3.78314,-3.32977 0.67755,0.12711 1.82801,0.80861 1.93942,1.14886 0.0355,0.10832 -0.26923,0.38438 -0.67704,0.61356 -0.61033,0.34304 -0.90582,0.39495 -1.67066,0.29348 -0.92642,-0.12288 -0.92968,-0.12147 -1.08493,0.47769 -0.12382,0.47759 -0.30791,0.65392 -0.897,0.85893 -1.00176,0.34864 -1.39419,0.33097 -1.39293,-0.0628 z m -28.28639,-0.71628 c -0.0626,-0.16319 0.0418,-0.60377 0.23181,-0.97908 l 0.34568,-0.68238 0.0683,0.53537 c 0.13478,1.05625 -0.34893,1.89972 -0.64579,1.12609 z m -9.09769,-0.0634 c -0.059,-0.0955 -0.0221,-0.22632 0.0822,-0.29074 0.10425,-0.0645 0.18954,0.0141 0.18954,0.1736 0,0.32757 -0.11193,0.3758 -0.27178,0.11709 z m 3.1028,-0.21126 c -0.13525,-0.21858 -0.19685,-0.44659 -0.13681,-0.50668 0.18015,-0.18018 0.51586,0.26926 0.44689,0.59827 -0.0537,0.25611 -0.10409,0.2412 -0.31014,-0.0916 z m 3.88542,-0.31447 c 0.002,-0.077 0.0737,-0.25181 0.16053,-0.38862 0.12852,-0.20275 0.17736,-0.1975 0.26403,0.0283 0.0585,0.15247 0.0562,0.32731 -0.005,0.38862 -0.15682,0.15682 -0.42284,0.13885 -0.41944,-0.0283 z m -6.90293,-0.67651 c 0,-0.52413 0.26709,-0.66098 0.43518,-0.22295 0.0562,0.14636 -0.0188,0.36643 -0.16653,0.48906 -0.22225,0.18445 -0.26865,0.13854 -0.26865,-0.26611 z m 56.96697,0.0869 c -0.1055,-0.10723 -0.1596,-0.53235 -0.12022,-0.94483 0.062,-0.64992 0.13181,-0.74997 0.524,-0.74997 0.62273,0 0.75854,-0.48894 0.27788,-1.00058 -0.28842,-0.307 -0.39657,-0.66139 -0.39657,-1.29948 0,-0.86164 0.009,-0.87521 0.51285,-0.7583 1.54777,0.3593 2.19745,1.22257 2.38567,3.17004 l 0.12789,1.32386 -1.01023,0.11881 c -0.55561,0.0653 -1.25754,0.16748 -1.55984,0.22706 -0.30228,0.0596 -0.63592,0.0207 -0.74143,-0.0866 z m -52.21151,-0.38937 c -0.0634,-0.10253 -0.0264,-0.1865 0.0822,-0.1865 0.10864,0 0.19749,0.0839 0.19749,0.1865 0,0.10253 -0.0369,0.18648 -0.0822,0.18648 -0.0452,0 -0.13415,-0.0839 -0.19749,-0.18648 z m 18.59292,-4.32655 c -0.31116,-0.31116 -0.27978,-0.70866 0.0559,-0.70866 0.17407,0 0.27973,0.17614 0.27973,0.46623 0,0.53162 -0.0271,0.55111 -0.33566,0.24243 z m 40.25899,-0.22688 c -0.008,-0.1966 0.036,-0.30675 0.098,-0.24478 0.062,0.062 0.0686,0.22282 0.0141,0.35744 -0.0595,0.14871 -0.10378,0.10456 -0.1127,-0.11271 z m -0.18648,-0.74596 c -0.008,-0.1966 0.036,-0.30674 0.098,-0.24478 0.062,0.062 0.0686,0.22281 0.0141,0.35744 -0.0595,0.14871 -0.10378,0.10456 -0.11271,-0.11271 z m -5.29855,-0.79258 c -0.19647,-0.19646 -0.14464,-1.18111 0.0621,-1.18111 0.10253,0 0.18762,0.10488 0.18905,0.23312 0.002,0.1282 0.0531,0.42193 0.11505,0.65271 0.10676,0.39833 -0.098,0.56344 -0.36618,0.29528 z"
       id="path3141"
       inkscape:connector-curvature="0" />
  </g>
</svg>
