<?xml version="1.0" encoding="UTF-8" standalone="no"?>
<!-- Created with Inkscape (http://www.inkscape.org/) -->

<svg
   xmlns:dc="http://purl.org/dc/elements/1.1/"
   xmlns:cc="http://creativecommons.org/ns#"
   xmlns:rdf="http://www.w3.org/1999/02/22-rdf-syntax-ns#"
   xmlns:svg="http://www.w3.org/2000/svg"
   xmlns="http://www.w3.org/2000/svg"
   xmlns:sodipodi="http://sodipodi.sourceforge.net/DTD/sodipodi-0.dtd"
   xmlns:inkscape="http://www.inkscape.org/namespaces/inkscape"
   width="63.882599"
   height="63.24052"
   id="svg3645"
   version="1.1"
   inkscape:version="0.48.4 r9939"
   sodipodi:docname="article27.svg">
  <defs
     id="defs3647" />
  <sodipodi:namedview
     id="base"
     pagecolor="#ffffff"
     bordercolor="#666666"
     borderopacity="1.0"
     inkscape:pageopacity="0.0"
     inkscape:pageshadow="2"
     inkscape:zoom="0.37734375"
     inkscape:cx="-153.0587"
     inkscape:cy="145.90598"
     inkscape:document-units="px"
     inkscape:current-layer="layer1"
     showgrid="false"
     inkscape:window-width="476"
     inkscape:window-height="456"
     inkscape:window-x="0"
     inkscape:window-y="21"
     inkscape:window-maximized="0"
     fit-margin-top="0"
     fit-margin-left="0"
     fit-margin-right="0"
     fit-margin-bottom="0" />
  <metadata
     id="metadata3650">
    <rdf:RDF>
      <cc:Work
         rdf:about="">
        <dc:format>image/svg+xml</dc:format>
        <dc:type
           rdf:resource="http://purl.org/dc/dcmitype/StillImage" />
        <dc:title />
      </cc:Work>
    </rdf:RDF>
  </metadata>
  <g
     inkscape:label="Layer 1"
     inkscape:groupmode="layer"
     id="layer1"
     transform="translate(-528.0587,-615.02764)">
    <path
       style="fill:#00aa5a;fill-opacity:1;stroke:none"
       d="m 574.22306,678.22171 c -0.0655,-0.0202 -0.56583,-0.13294 -1.1118,-0.2506 l -0.99265,-0.21393 0.0768,-0.78244 c 0.16812,-1.71218 0.70599,-3.47215 2.05955,-6.73912 1.47972,-3.57142 1.68069,-4.15167 1.99337,-5.75528 0.46934,-2.40704 1.11222,-4.59399 2.86221,-9.7364 0.8911,-2.6186 1.83371,-5.4848 2.09467,-6.36937 l 0.47447,-1.6083 -0.39257,-0.33234 c -0.81214,-0.68752 -2.53358,-0.88528 -4.97611,-0.57166 -1.26419,0.16232 -2.4331,0.16479 -3.00359,0.006 -1.2425,-0.34507 -1.46287,-1.77786 -0.67471,-4.38657 l 0.26476,-0.87629 1.25845,-0.89298 c 2.71821,-1.92881 3.81041,-2.20988 6.60988,-1.70102 1.63061,0.29639 1.65298,0.29636 1.55816,-0.002 -0.10164,-0.32023 0.23898,-0.44717 0.51926,-0.19352 0.1724,0.15602 0.24847,0.16435 0.40414,0.0442 0.15753,-0.12155 0.20614,-0.52434 0.27235,-2.25678 l 0.0806,-2.10883 -1.28379,-8.73235 c -0.70608,-4.8028 -1.31488,-8.76412 -1.35289,-8.80294 -0.038,-0.0388 -0.87323,-0.007 -1.85609,0.0717 -1.10739,0.0882 -1.81479,0.0997 -1.86005,0.0304 -0.16808,-0.25755 -0.62261,-0.029 -0.76641,0.38547 -0.0796,0.22933 -0.20967,0.40191 -0.2891,0.3835 -0.0794,-0.0184 -0.46407,-0.25889 -0.85476,-0.5344 -0.57784,-0.4075 -0.67023,-0.51582 -0.49529,-0.5807 0.11829,-0.0439 1.93059,-0.19515 4.02734,-0.33619 2.09676,-0.14104 4.17416,-0.28713 4.61644,-0.32463 0.44228,-0.0375 0.80415,-0.0352 0.80415,0.005 0,0.0403 0.61723,5.0464 1.37159,11.12472 1.29865,10.46385 1.38576,11.06289 1.63809,11.26563 0.14658,0.11777 0.98496,0.56644 1.8631,0.99705 1.49819,0.73468 2.4759,1.43035 2.7623,1.96549 0.18117,0.33854 -1.12573,3.6867 -4.71233,12.07244 -4.41454,10.32158 -6.46917,16.176 -7.19721,20.50762 -0.27452,1.63331 -0.67942,2.76216 -1.23055,3.43077 -0.40109,0.4866 -1.15048,0.89412 -1.65204,0.8984 -0.17614,0 -0.42985,0.13599 -0.59566,0.3158 -0.39437,0.42764 -0.94613,0.64168 -1.62525,0.63048 -0.31334,-0.005 -0.62332,-0.0259 -0.68884,-0.0461 z m -19.6634,-10.93033 c -1.56574,-0.9676 -1.84335,-1.80886 -1.42652,-4.3229 0.0978,-0.58974 0.1787,-1.13838 0.17985,-1.21927 0.002,-0.11525 -2.28431,-0.15384 -10.59094,-0.17867 -5.82615,-0.0174 -10.61917,-0.0585 -10.65113,-0.0912 -0.032,-0.0326 -0.3572,-2.95454 -0.72272,-6.4928 -0.36554,-3.53827 -1.25521,-12.13797 -1.97705,-19.11043 -0.72185,-6.97246 -1.31245,-12.71291 -1.31245,-12.75654 0,-0.0899 5.10784,-0.65163 5.18887,-0.57058 0.0873,0.0873 -0.57114,1.51878 -0.67042,1.45742 -0.0507,-0.0313 -0.12723,-0.21656 -0.17007,-0.41163 -0.0893,-0.40667 -0.28269,-0.57466 -0.41503,-0.36055 -0.0706,0.11424 -1.18826,0.31744 -1.95431,0.35531 -0.0583,0.003 -0.0718,0.33943 -0.0299,0.74982 0.0791,0.77593 0.77268,8.27213 1.39165,15.04065 0.34162,3.7356 1.069,8.65182 1.32104,8.92863 0.0625,0.0687 0.16935,0.0221 0.27328,-0.11914 0.15895,-0.21596 0.17619,-0.21757 0.25147,-0.0234 0.0444,0.11467 0.0513,0.28535 0.0153,0.37931 -0.0834,0.21743 0.43912,0.88371 1.40771,1.79489 0.74051,0.69661 0.76169,0.73343 0.83241,1.44716 0.0682,0.68843 0.0539,0.74705 -0.2382,0.97682 -0.17092,0.13443 -0.56163,0.27997 -0.86826,0.32339 -0.42528,0.0602 -0.67135,0.18858 -1.03756,0.54118 l -0.48006,0.46223 0.28827,2.83039 c 0.15855,1.55671 0.29612,2.84128 0.30572,2.8546 0.01,0.0134 2.34273,0.0846 5.18471,0.15844 4.0348,0.10481 5.44377,0.10215 6.42888,-0.012 1.48621,-0.17251 1.90078,-0.29376 1.69796,-0.49656 -0.21594,-0.21594 -0.16368,-0.34772 0.12168,-0.30686 0.19183,0.0276 0.36536,-0.10364 0.66024,-0.49883 0.95471,-1.2795 0.98647,-1.31046 1.34398,-1.31046 0.43363,0 0.5676,0.23306 0.6605,1.14904 0.0389,0.38364 0.15541,0.89855 0.25888,1.14426 l 0.18812,0.44678 1.85827,-7e-5 1.85826,-4e-5 0.33546,-0.9828 c 0.83276,-2.43974 1.97848,-4.17367 3.38996,-5.13039 1.90505,-1.29126 4.44444,-4.5181 4.03766,-5.13074 -0.25602,-0.38559 -0.92079,-0.6694 -1.56626,-0.66868 -1.20971,0.002 -1.42941,0.13016 -3.03977,1.78233 -0.81905,0.84029 -1.67681,1.62407 -1.90614,1.74172 -0.51871,0.26611 -1.60484,0.29197 -2.06993,0.0493 -0.24666,-0.12872 -0.52299,-0.52869 -0.98764,-1.42961 -0.83694,-1.62276 -0.85906,-2.02665 -0.19298,-3.52386 1.12542,-2.52974 2.60478,-4.12042 4.95837,-5.33149 1.68389,-0.86647 2.67562,-1.09188 4.78498,-1.08762 1.64334,0.003 1.86352,0.0303 2.73893,0.33585 1.59692,0.55734 3.12431,1.65018 3.92878,2.81104 0.33136,0.47814 0.33599,0.50794 0.26511,1.70543 -0.12639,2.13543 -0.69303,3.74689 -2.30232,6.54761 -0.48492,0.84392 -1.09665,1.96197 -1.3594,2.48455 -0.52942,1.05296 -1.19532,2.92518 -1.11493,3.13465 0.0284,0.074 0.32933,0.262 0.66872,0.41769 0.56753,0.26034 0.71802,0.27727 1.87443,0.21098 0.69155,-0.0397 1.90069,-0.21134 2.68697,-0.38155 0.78629,-0.17017 1.9121,-0.41234 2.50181,-0.53818 0.58971,-0.12582 1.74654,-0.29167 2.57073,-0.36855 1.47854,-0.13794 1.50342,-0.13616 1.86509,0.13119 0.47002,0.3475 0.96516,1.25789 1.05983,1.94864 0.13347,0.9737 -0.007,1.29566 -1.135,2.61052 -2.13798,2.49111 -3.16836,3.23295 -4.50443,3.24312 -0.58159,0.005 -0.77328,-0.0406 -0.89783,-0.21099 -0.12097,-0.16542 -0.28396,-0.20762 -0.69015,-0.17867 -0.46475,0.033 -0.53681,0.0754 -0.57166,0.3357 -0.0673,0.50262 -0.21502,0.52742 -0.8069,0.13538 -0.59304,-0.39282 -0.76062,-0.44047 -0.94619,-0.26916 -0.33987,0.31377 -2.43195,0.7563 -4.87853,1.03188 -2.81124,0.31667 -4.45333,0.79902 -5.89714,1.73219 -0.69742,0.45078 -0.74953,0.46598 -0.90608,0.26424 -0.15458,-0.19916 -0.17688,-0.20019 -0.32133,-0.0149 -0.14249,0.18281 -0.20361,0.16925 -0.74459,-0.16504 z m -11.37097,-8.55216 c 0,-0.13106 0.0479,-0.23827 0.10639,-0.23827 0.13391,0 0.25882,0.30988 0.16338,0.40533 -0.14341,0.14338 -0.26977,0.0652 -0.26977,-0.16706 z m -8.69677,-1.31046 c 0,-0.0656 0.11039,-0.11916 0.2453,-0.11916 0.13492,0 0.21217,0.0536 0.17167,0.11916 -0.0405,0.0655 -0.15088,0.11911 -0.24529,0.11911 -0.0944,0 -0.17168,-0.0536 -0.17168,-0.11911 z m 10.00725,-0.1717 c 0,-0.0944 0.0536,-0.20479 0.11913,-0.24528 0.0655,-0.0405 0.11913,0.0367 0.11913,0.17165 0,0.13493 -0.0536,0.24533 -0.11913,0.24533 -0.0655,0 -0.11913,-0.0773 -0.11913,-0.1717 z m -9.88811,-12.93303 c 0,-0.17945 0.0622,-0.24376 0.20848,-0.2156 0.11467,0.022 0.20849,0.1191 0.20849,0.2156 0,0.0965 -0.0938,0.19349 -0.20849,0.21558 -0.14629,0.0282 -0.20848,-0.0362 -0.20848,-0.21558 z m -1.76319,-2.04911 c -0.23234,-0.23235 -0.16599,-0.33358 0.21864,-0.33358 0.32468,0 0.34858,0.0244 0.23408,0.23827 -0.14677,0.27423 -0.2517,0.29632 -0.45272,0.0953 z m 15.61498,-1.47775 c 0.0396,-0.0396 0.14234,-0.0438 0.22834,-0.009 0.095,0.038 0.0668,0.0663 -0.072,0.072 -0.12558,0.005 -0.19595,-0.023 -0.15636,-0.0626 z m -0.0323,-0.40456 c 0,-0.13237 0.0794,-0.23827 0.1787,-0.23827 0.0993,0 0.1787,0.1059 0.1787,0.23827 0,0.13237 -0.0794,0.23827 -0.1787,0.23827 -0.0993,0 -0.1787,-0.1059 -0.1787,-0.23827 z m -12.08513,-2.85809 c -0.67298,-0.18132 -0.89953,-0.30757 -1.2164,-0.67786 -0.6031,-0.70476 -0.80633,-1.20705 -0.81075,-2.00378 -0.01,-1.78461 1.62977,-3.42142 3.6057,-3.59937 0.9493,-0.0855 1.1389,0.136 1.19618,1.39745 l 0.0423,0.93083 -0.69719,0.0848 c -1.27436,0.15507 -1.69242,0.59225 -1.29719,1.35652 0.17916,0.34648 0.2269,0.36864 0.63514,0.29486 0.24278,-0.0439 0.44903,-0.0861 0.45833,-0.0937 0.009,-0.008 -0.0224,-0.26864 -0.0705,-0.57987 -0.048,-0.31124 -0.0672,-0.56589 -0.0425,-0.56589 0.0246,0 0.48071,0.36061 1.01344,0.80135 0.81923,0.67777 0.95761,0.75585 0.89734,0.50632 -0.0392,-0.16226 -0.13006,-1.15279 -0.20191,-2.20117 -0.18699,-2.72831 -0.1586,-2.62178 -0.78149,-2.93286 -0.60826,-0.30379 -0.6173,-0.32596 -0.63669,-1.56444 l -0.0145,-0.92329 0.62475,0.002 c 0.35158,0.002 0.84023,0.10047 1.1176,0.22642 0.58214,0.26434 1.4243,0.9969 1.64379,1.42988 0.0855,0.16874 0.21774,1.11095 0.29379,2.0938 0.076,0.98285 0.16758,2.12113 0.20342,2.52949 l 0.0652,0.74249 0.47251,0.12724 c 0.5585,0.15038 0.70031,0.42722 0.70031,1.36713 0,0.52706 -0.047,0.67363 -0.26478,0.82618 -0.35188,0.24648 -1.62943,0.24457 -2.21108,-0.003 -0.99259,-0.42299 -1.57469,-0.35709 -1.57469,0.17828 0,0.20231 -0.0771,0.37197 -0.18845,0.4147 -0.39075,0.14994 -2.15847,0.0516 -2.96165,-0.16484 z m 8.95108,-3.35064 c -0.29433,-1.97584 -0.76094,-7.2104 -0.65241,-7.31893 0.0242,-0.0242 1.15891,-0.14226 2.52169,-0.26246 1.7793,-0.15694 2.52693,-0.18259 2.65219,-0.091 0.0959,0.0702 0.2238,0.34054 0.28416,0.60088 0.13309,0.57406 0.14961,1.69044 0.0261,1.76183 -0.0492,0.0284 -0.40061,-0.0271 -0.78103,-0.12335 -0.80484,-0.20361 -1.07527,-0.15362 -1.59256,0.29441 l -0.37811,0.32746 0.23475,3.37983 c 0.12911,1.8589 0.21443,3.40014 0.18959,3.42498 -0.0249,0.0249 -0.52506,0.0792 -1.11162,0.12086 l -1.06647,0.0757 -0.32626,-2.19021 z m -12.94902,1.75114 c 0,-0.10375 0.0849,-0.18863 0.18862,-0.18863 0.2104,0 0.17375,0.25647 -0.0471,0.3301 -0.0778,0.0259 -0.14148,-0.0377 -0.14148,-0.14147 z m 21.66447,-0.61883 c -0.19816,-0.0597 -0.50877,-0.68968 -0.86655,-1.75755 -0.10678,-0.31869 -0.28228,-1.47607 -0.39001,-2.57195 l -0.19587,-1.9925 -0.42639,-0.18436 -0.4264,-0.18437 -0.13074,-1.11554 c -0.0719,-0.61355 -0.10896,-1.15574 -0.0823,-1.20489 0.0267,-0.0492 0.21374,-0.0893 0.41578,-0.0893 l 0.36733,0 -0.0802,-0.74458 c -0.0441,-0.40953 -0.1128,-1.15348 -0.15264,-1.65323 l -0.0724,-0.90863 1.05894,-0.14306 c 0.58243,-0.0787 1.15277,-0.1693 1.26744,-0.20138 0.11467,-0.0321 0.20883,-0.0145 0.20927,0.039 3.5e-4,0.0535 0.10764,0.81254 0.23827,1.68663 0.13061,0.87409 0.23748,1.6005 0.23748,1.61425 0,0.0137 0.2687,0.0223 0.5971,0.0191 0.69918,-0.007 0.68149,-0.0398 0.73463,1.36129 0.0349,0.9188 0.0175,1.01392 -0.19153,1.05526 -0.12642,0.025 -0.30448,0.12009 -0.3957,0.21131 -0.0912,0.0912 -0.24244,0.16585 -0.33604,0.16585 -0.2196,0 -0.21794,0.44559 0.009,2.47908 0.2018,1.80639 0.28974,2.04733 0.74805,2.04963 0.64003,0.003 0.85127,0.12823 0.9761,0.57766 0.17499,0.63001 0.14878,1.15607 -0.0665,1.33475 -0.18913,0.15697 -2.62934,0.2832 -3.04628,0.15758 z m 11.28449,-0.0626 c -0.078,-0.23451 -0.80472,-6.07869 -0.76041,-6.11482 0.0204,-0.0166 0.28962,-0.0633 0.59819,-0.1037 0.66537,-0.0871 0.55599,-0.43278 0.98942,3.12751 0.37215,3.05702 0.3726,3.10681 0.0281,3.10891 -0.14743,10e-4 -0.38803,0.0338 -0.53466,0.0731 -0.17069,0.0457 -0.28603,0.013 -0.32061,-0.091 z m -1.70595,-0.31454 c -0.82264,-0.43515 -1.10215,-0.68549 -1.10215,-0.98714 0,-0.24436 0.004,-0.24474 0.28363,-0.025 0.39832,0.31331 1.53802,1.34294 1.48648,1.3429 -0.0235,-10e-6 -0.32405,-0.14886 -0.66796,-0.33078 z m -4.16984,0.006 -0.38719,-0.048 -0.002,-1.51141 c -0.001,-0.83128 -0.0355,-2.73104 -0.0769,-4.2217 l -0.0752,-2.71029 1.14905,0 c 1.11192,0 1.14909,0.009 1.15,0.26805 3.5e-4,0.14743 0.0356,1.93384 0.0778,3.96982 0.0423,2.03598 0.0408,3.84532 -0.003,4.02076 -0.0759,0.30257 -0.11524,0.31802 -0.76281,0.29993 -0.37551,-0.0105 -0.85698,-0.0407 -1.06993,-0.0671 z m 8.33643,-0.50286 c -0.20689,-0.33282 -0.50831,-0.65537 -0.66984,-0.71677 -0.23275,-0.0885 -0.3108,-0.22597 -0.37631,-0.66276 -0.0718,-0.47907 -0.0249,-0.68083 0.35963,-1.54364 0.45714,-1.02596 0.57391,-1.12885 1.28512,-1.13238 0.18019,-0.001 0.32663,0.0118 0.32543,0.0282 -10e-4,0.0164 -0.20862,0.45552 -0.46092,0.97586 -0.52363,1.07991 -0.58555,0.80588 0.56264,2.4896 0.34958,0.51264 0.61763,0.94846 0.59566,0.96849 -0.0219,0.02 -0.31114,0.0729 -0.6426,0.11749 l -0.60265,0.0811 -0.37616,-0.60513 z m 10.17977,0.42127 c -0.0856,-0.22311 0.51471,-0.38356 0.64518,-0.17244 0.051,0.0826 0.0664,0.1929 0.034,0.24517 -0.099,0.16021 -0.61088,0.1054 -0.67923,-0.0727 z m -5.76923,-0.51202 c -0.47605,-0.0916 -1.0617,-0.76552 -1.26745,-1.45837 -0.23404,-0.78811 -0.247,-1.78744 -0.0299,-2.307 0.22609,-0.54107 0.87098,-1.15413 1.21407,-1.15413 0.26996,0 0.28357,0.035 0.25431,0.65345 -0.0227,0.48113 -0.0908,0.69729 -0.25818,0.81965 -0.21035,0.15381 -0.21728,0.23075 -0.0931,1.03321 0.10434,0.67402 0.20236,0.9302 0.44035,1.15088 0.24055,0.22306 0.30613,0.39767 0.30613,0.81515 0,0.54532 -0.0111,0.55405 -0.56623,0.44716 z m 0.9924,-0.44485 c -0.10256,-0.54666 0.0224,-0.99486 0.30228,-1.08367 0.22006,-0.0698 1.05856,0.34494 1.05856,0.52364 0,0.29984 -0.80978,0.96986 -1.17216,0.96986 -0.0615,0 -0.14639,-0.18442 -0.18868,-0.40983 z m -10.84529,-0.41587 c -0.0377,-0.061 -0.0141,-0.14457 0.0525,-0.18573 0.0666,-0.0412 0.12107,0.009 0.12107,0.1109 0,0.20926 -0.0715,0.24007 -0.17361,0.0748 z m 14.88484,-0.0503 c -0.17133,-0.52673 -0.81029,-6.3931 -0.70752,-6.49586 0.0747,-0.0747 1.09545,-0.0848 1.16879,-0.0115 0.0873,0.0872 0.92408,6.45659 0.85706,6.52359 -0.12741,0.12742 -1.27622,0.11331 -1.31833,-0.0162 z m 4.7809,-0.7251 c 0.075,-0.19544 0.64063,-0.59707 0.64312,-0.45665 10e-4,0.0507 0.0339,0.21272 0.0735,0.36015 0.0647,0.24149 0.0295,0.26805 -0.35529,0.26805 -0.32281,0 -0.41105,-0.0419 -0.36129,-0.17155 z m -1.55547,-0.13007 c -0.21268,-0.16086 -0.1804,-0.17491 0.40177,-0.17491 0.54918,0 0.61338,0.0237 0.48472,0.1787 -0.18696,0.22527 -0.5859,0.22356 -0.88649,-0.004 z m -7.87481,-0.0262 c -0.0682,-0.0491 -0.12839,-0.31698 -0.13364,-0.59545 -0.008,-0.41066 0.0307,-0.50632 0.2037,-0.50632 0.59501,0 0.75229,-0.29287 0.35187,-0.65523 -0.1758,-0.15911 -0.23827,-0.36693 -0.23827,-0.79284 0,-0.66425 0.0583,-0.68559 0.83109,-0.30425 0.67543,0.3333 0.91222,0.75955 1.0147,1.82662 l 0.0815,0.84867 -0.6956,0.0794 c -0.38257,0.0437 -0.82963,0.10397 -0.99343,0.13397 -0.16381,0.03 -0.35367,0.0145 -0.42193,-0.0346 z m -38.46252,-1.29022 c -0.11035,-0.28756 -0.0862,-1.06995 0.0435,-1.41119 0.31862,-0.83804 1.52206,-1.70455 2.64416,-1.90387 l 0.43689,-0.0776 0.0846,0.79015 c 0.1125,1.05052 -0.0595,1.59358 -0.67023,2.11635 -0.72088,0.61705 -2.36773,0.93239 -2.53896,0.48616 z m 30.52695,-3.86423 c -0.4218,-0.22285 -0.82711,-0.74347 -0.98453,-1.26463 -0.0662,-0.21908 -0.0147,-0.26708 0.3736,-0.34816 0.71652,-0.14963 0.98646,-0.11637 0.98646,0.12155 0,0.19751 0.35616,0.42116 0.67067,0.42116 0.11539,0 0.35582,-0.13989 0.53429,-0.31088 l 0.32449,-0.31087 0.48618,0.27325 c 0.2674,0.15028 0.48618,0.33186 0.48618,0.4035 0,0.49344 -1.23774,1.25679 -2.02527,1.24905 -0.22933,-0.002 -0.61277,-0.10755 -0.85207,-0.23397 z m -31.90973,-0.64607 c 0,-0.23321 0.0207,-0.42401 0.0461,-0.42401 0.0978,0 0.14712,0.72861 0.0532,0.78665 -0.0546,0.0338 -0.0993,-0.12945 -0.0993,-0.36264 z m 37.88417,-0.38147 c 0,-0.0561 -0.0848,-0.5846 -0.18799,-1.17431 -0.18343,-1.04827 -0.75308,-5.33718 -0.71528,-5.38535 0.0788,-0.10044 0.99832,-0.13925 1.13517,-0.0479 0.11812,0.0788 0.31266,1.02151 0.62164,3.01228 0.57798,3.724 0.57843,3.55276 -0.01,3.55276 -0.25673,0 -0.55159,0.0325 -0.65523,0.0723 -0.10364,0.0398 -0.18862,0.0264 -0.18882,-0.0298 z m 4.76809,-1.02539 c -0.61247,-0.31292 -0.9027,-0.80025 -1.09619,-1.84067 -0.20432,-1.09874 -0.0573,-1.73613 0.54559,-2.36535 0.45681,-0.47675 0.87877,-0.67826 0.92179,-0.4402 0.10915,0.60403 0.0406,1.1869 -0.1627,1.38339 -0.19187,0.18542 -0.21623,0.3185 -0.14851,0.8109 0.13119,0.95384 0.23336,1.2239 0.51016,1.34841 0.22115,0.0995 0.26144,0.21423 0.26144,0.74458 0,0.7239 -0.0636,0.75133 -0.83158,0.35894 z m 1.35958,-0.008 c -0.0366,-0.0953 -0.0497,-0.4018 -0.0292,-0.68111 0.0481,-0.65483 0.31581,-0.84978 0.78061,-0.56842 0.56602,0.34261 0.60818,0.52804 0.2085,0.91673 -0.43971,0.42762 -0.86671,0.57566 -0.95991,0.3328 z m -17.84507,-0.52817 c -0.0406,-0.24571 -0.0744,-0.7014 -0.0752,-1.01263 l -0.002,-0.56589 1.0722,0 1.07221,0 -0.002,0.74459 c -0.003,1.28295 -10e-4,1.28069 -1.06889,1.28069 l -0.92358,0 -0.0738,-0.44676 z m 4.57042,0.11914 c 0.004,-1.26299 1.23725,-2.34842 2.41677,-2.12714 0.43284,0.0812 1.16778,0.51656 1.23895,0.73392 0.0227,0.0692 -0.17199,0.24555 -0.43251,0.39196 -0.38989,0.21914 -0.57866,0.2523 -1.06726,0.18748 -0.59182,-0.0785 -0.5939,-0.0776 -0.69308,0.30516 -0.0791,0.3051 -0.1967,0.41774 -0.57303,0.54871 -0.63995,0.22272 -0.89064,0.21143 -0.88984,-0.0401 z M 545.372,624.47706 c -0.04,-0.10425 0.0267,-0.3857 0.14809,-0.62546 l 0.22083,-0.43592 0.0436,0.34201 c 0.0861,0.67476 -0.22291,1.21359 -0.41255,0.71937 z m -5.81184,-0.0405 c -0.0377,-0.061 -0.0141,-0.14458 0.0525,-0.18573 0.0666,-0.0412 0.12108,0.009 0.12108,0.1109 0,0.20926 -0.0715,0.24007 -0.17362,0.0748 z m 1.98215,-0.13496 c -0.0864,-0.13963 -0.12575,-0.28529 -0.0874,-0.32368 0.11509,-0.1151 0.32955,0.17201 0.28549,0.38219 -0.0343,0.16361 -0.0665,0.15409 -0.19813,-0.0585 z m 2.48211,-0.20089 c 0.001,-0.0492 0.0471,-0.16086 0.10255,-0.24826 0.0821,-0.12952 0.1133,-0.12617 0.16867,0.0181 0.0374,0.0974 0.0359,0.20909 -0.003,0.24826 -0.10018,0.10018 -0.27012,0.0887 -0.26795,-0.0181 z m -4.40977,-0.43217 c 0,-0.33483 0.17062,-0.42225 0.278,-0.14243 0.0359,0.0935 -0.012,0.23409 -0.10638,0.31243 -0.14198,0.11783 -0.17162,0.0885 -0.17162,-0.17 z m 36.39198,0.0555 c -0.0674,-0.0685 -0.10196,-0.34008 -0.0768,-0.60358 0.0396,-0.41519 0.0842,-0.4791 0.33474,-0.4791 0.39782,0 0.48458,-0.31235 0.17752,-0.6392 -0.18425,-0.19612 -0.25334,-0.42251 -0.25334,-0.83014 0,-0.55044 0.006,-0.55911 0.32762,-0.48442 0.98876,0.22953 1.40379,0.78101 1.52403,2.0251 l 0.0817,0.84572 -0.64536,0.0759 c -0.35494,0.0417 -0.80335,0.10699 -0.99647,0.14505 -0.1931,0.0381 -0.40624,0.0132 -0.47364,-0.0553 z m -33.35407,-0.24874 c -0.0405,-0.0655 -0.0169,-0.11914 0.0525,-0.11914 0.0694,0 0.12616,0.0536 0.12616,0.11914 0,0.0655 -0.0236,0.11913 -0.0525,0.11913 -0.0289,0 -0.0857,-0.0536 -0.12616,-0.11913 z m 11.87764,-2.76391 c -0.19878,-0.19878 -0.17873,-0.45271 0.0357,-0.45271 0.1112,0 0.1787,0.11252 0.1787,0.29784 0,0.33961 -0.0173,0.35206 -0.21443,0.15487 z m 25.71849,-0.14494 c -0.005,-0.12559 0.023,-0.19596 0.0626,-0.15637 0.0396,0.0396 0.0438,0.14234 0.009,0.22834 -0.038,0.095 -0.0663,0.0668 -0.072,-0.072 z m -0.11913,-0.47654 c -0.005,-0.12559 0.023,-0.19595 0.0626,-0.15637 0.0396,0.0396 0.0438,0.14234 0.009,0.22834 -0.038,0.095 -0.0663,0.0668 -0.072,-0.072 z m -3.38485,-0.50632 c -0.12551,-0.1255 -0.0924,-0.75452 0.0397,-0.75452 0.0655,0 0.11986,0.067 0.12077,0.14892 10e-4,0.0819 0.0339,0.26954 0.0735,0.41697 0.0682,0.25446 -0.0626,0.35994 -0.23393,0.18863 z"
       id="path3141"
       inkscape:connector-curvature="0" />
  </g>
</svg>
