<?xml version="1.0" encoding="UTF-8" standalone="no"?>
<!-- Created with Inkscape (http://www.inkscape.org/) -->

<svg
   xmlns:dc="http://purl.org/dc/elements/1.1/"
   xmlns:cc="http://creativecommons.org/ns#"
   xmlns:rdf="http://www.w3.org/1999/02/22-rdf-syntax-ns#"
   xmlns:svg="http://www.w3.org/2000/svg"
   xmlns="http://www.w3.org/2000/svg"
   xmlns:sodipodi="http://sodipodi.sourceforge.net/DTD/sodipodi-0.dtd"
   xmlns:inkscape="http://www.inkscape.org/namespaces/inkscape"
   width="100.00046"
   height="40.155933"
   id="svg3375"
   version="1.1"
   inkscape:version="0.48.3.1 r9886"
   sodipodi:docname="arts-sceniques.svg">
  <sodipodi:namedview
     id="base"
     pagecolor="#ffffff"
     bordercolor="#666666"
     borderopacity="1.0"
     inkscape:pageopacity="0.0"
     inkscape:pageshadow="2"
     inkscape:zoom="0.37734375"
     inkscape:cx="128.34867"
     inkscape:cy="87.264309"
     inkscape:document-units="px"
     inkscape:current-layer="layer1"
     showgrid="false"
     inkscape:window-width="1375"
     inkscape:window-height="876"
     inkscape:window-x="65"
     inkscape:window-y="24"
     inkscape:window-maximized="1"
     fit-margin-top="0"
     fit-margin-left="0"
     fit-margin-right="0"
     fit-margin-bottom="0" />
  <defs
     id="defs3377" />
  <metadata
     id="metadata3380">
    <rdf:RDF>
      <cc:Work
         rdf:about="">
        <dc:format>image/svg+xml</dc:format>
        <dc:type
           rdf:resource="http://purl.org/dc/dcmitype/StillImage" />
        <dc:title></dc:title>
      </cc:Work>
    </rdf:RDF>
  </metadata>
  <g
     transform="translate(-580.56438,-579.47056)"
     id="layer1"
     inkscape:groupmode="layer"
     inkscape:label="Layer 1">
    <path
       inkscape:connector-curvature="0"
       id="path3207"
       d="m 598.85794,619.55621 c -5.14761,-0.42702 -10.08204,-2.95824 -13.46716,-6.90847 -3.15511,-3.68195 -4.8264,-8.21783 -4.8264,-13.09895 0,-3.21794 0.62976,-5.96939 2.01516,-8.80413 4.19821,-8.59021 13.72176,-12.99181 23.04255,-10.65015 2.68473,0.67465 5.66743,2.20347 7.83422,4.01579 6.83382,5.71577 9.09834,15.21264 5.58173,23.40819 -2.648,6.17132 -8.38863,10.69465 -15.00499,11.82332 -1.65207,0.28185 -3.45903,0.35666 -5.17511,0.2144 z m 4.07529,-2.5288 c 6.53786,-0.8571 12.1906,-5.4816 14.33597,-11.72823 0.6605,-1.92314 0.93806,-3.62465 0.93806,-5.75039 0,-3.9135 -1.15469,-7.40831 -3.47987,-10.53227 -2.81541,-3.78262 -7.15429,-6.33805 -11.79416,-6.94625 -1.25163,-0.16407 -3.50655,-0.16445 -4.65779,0 -5.95052,0.8458 -10.9702,4.50379 -13.55866,9.8804 -0.85404,1.77391 -1.44619,3.90282 -1.65628,5.95464 -0.43698,4.2675 0.86069,8.7959 3.52884,12.31416 0.67668,0.89222 2.06395,2.32924 2.90803,3.01213 2.46991,1.99832 5.5245,3.32884 8.70913,3.79378 1.09192,0.15937 3.52146,0.16077 4.72673,0 z m -3.83563,-2.19916 c -1.89208,-0.18245 -3.50215,-0.65778 -5.34848,-1.57903 -1.65137,-0.824 -2.66401,-1.55075 -3.94973,-2.83474 -2.28467,-2.2817 -3.73994,-5.04024 -4.30465,-8.16001 -0.21352,-1.17965 -0.25461,-3.56065 -0.0827,-4.79292 0.49389,-3.54096 2.13415,-6.71626 4.71296,-9.12385 3.65357,-3.41075 8.70535,-4.82407 13.64526,-3.81749 2.39969,0.48902 4.80495,1.67665 6.81793,3.36612 2.45984,2.06463 4.36804,5.26465 5.01762,8.41447 0.4536,2.19954 0.4536,4.29654 0,6.49594 -0.64958,3.14995 -2.55778,6.34997 -5.01762,8.4146 -3.27994,2.75297 -7.30689,4.02048 -11.49057,3.61691 z m 3.50117,-2.35003 c 4.13179,-0.67008 7.69631,-3.23375 9.60555,-6.90848 1.96635,-3.78452 1.96635,-8.25729 0,-12.04181 -1.90924,-3.67473 -5.47376,-6.2384 -9.60555,-6.90848 -1.11756,-0.18131 -2.99271,-0.16318 -4.18136,0.0406 -2.7299,0.4676 -5.01206,1.66538 -7.03419,3.69197 -1.94367,1.94799 -3.02922,3.96241 -3.61382,6.70599 -0.27691,1.29959 -0.27691,3.68225 0,4.98196 0.5846,2.74359 1.67015,4.75788 3.61382,6.70587 1.99679,2.00136 4.28229,3.21131 6.96124,3.6855 1.13529,0.20096 3.16676,0.22353 4.25431,0.0469 z m -3.13769,-2.24619 c -4.51868,-0.5755 -8.04028,-3.62198 -9.25231,-8.00406 -0.21673,-0.78368 -0.23021,-0.94052 -0.23021,-2.67918 0,-1.73869 0.0134,-1.8954 0.23021,-2.67909 0.65429,-2.36562 2.06028,-4.47691 3.90176,-5.85891 1.29964,-0.97539 2.76995,-1.64002 4.40919,-1.993 1.01332,-0.2182 3.19009,-0.21782 4.20534,0 3.29984,0.71027 5.98937,2.77364 7.46963,5.73061 2.39224,4.77858 0.85642,10.71129 -3.5329,13.64722 -1.29003,0.86292 -2.32038,1.31175 -3.76495,1.64026 -0.71658,0.16293 -2.77266,0.27995 -3.43576,0.19551 z m 3.17907,-2.55315 c 2.49453,-0.63369 4.48629,-2.28842 5.5863,-4.64111 0.56476,-1.20792 0.71918,-1.95699 0.71918,-3.48898 0,-1.1173 -0.0316,-1.44873 -0.19657,-2.0615 -0.39908,-1.48229 -1.14851,-2.77997 -2.23814,-3.87492 -2.57857,-2.59144 -6.5431,-3.1961 -9.7764,-1.49117 -2.79556,1.47418 -4.48854,4.27571 -4.48854,7.42759 0,4.12977 2.9546,7.60772 7.04331,8.29098 0.99337,0.16597 2.31375,0.1027 3.35086,-0.16089 z m -3.43676,-2.07896 c -0.70143,-0.15012 -1.96589,-0.77417 -2.54966,-1.25825 -0.61818,-0.51274 -1.29008,-1.37427 -1.62758,-2.0872 -0.44288,-0.93545 -0.58168,-1.58106 -0.58168,-2.70568 0,-1.53811 0.40774,-2.73652 1.31517,-3.8652 0.61105,-0.7601 1.1958,-1.22541 2.1124,-1.68109 0.91606,-0.4553 1.6943,-0.63509 2.74861,-0.63509 1.06322,0 1.83189,0.18004 2.79134,0.6536 0.67468,0.33307 0.94333,0.53023 1.55327,1.14021 0.61201,0.61201 0.8057,0.87637 1.13823,1.55329 0.52637,1.07162 0.68112,1.71546 0.68112,2.83428 0,1.11879 -0.15475,1.76275 -0.68112,2.83437 -0.33253,0.67692 -0.52622,0.94128 -1.13823,1.55316 -1.22986,1.22985 -2.62852,1.80002 -4.38755,1.78861 -0.44881,0 -1.06725,-0.0596 -1.37432,-0.12552 z m 2.70567,-2.11725 c 1.88641,-0.61442 3.13475,-2.63734 2.80701,-4.54859 -0.35171,-2.05094 -2.06926,-3.52854 -4.09542,-3.52308 -1.21268,0 -2.13888,0.4009 -2.97483,1.27752 -1.58715,1.66423 -1.58715,4.05627 0,5.7205 0.71361,0.74831 1.41221,1.1108 2.41652,1.25369 0.61126,0.0875 1.20444,0.0292 1.84672,-0.18004 z m -2.15429,-2.03534 c -0.71786,-0.3261 -1.23852,-1.12411 -1.23852,-1.89854 0,-0.77434 0.52066,-1.57247 1.23852,-1.89845 0.46016,-0.20907 1.2691,-0.21034 1.72481,0 0.48299,0.21998 0.95219,0.77303 1.11178,1.31049 0.16556,0.55753 0.16556,0.6241 0,1.18159 -0.15959,0.53733 -0.62879,1.09038 -1.11178,1.31036 -0.45571,0.20755 -1.26465,0.20629 -1.72481,0 z m 61.02914,14.28987 -0.30359,-0.30366 -0.33933,0.14898 c -0.23865,0.10523 -0.5687,0.14936 -1.11237,0.15024 -0.67173,0 -0.83073,-0.0292 -1.21312,-0.22796 -0.56611,-0.29479 -1.09313,-0.89488 -1.24494,-1.4175 -0.0835,-0.28756 -0.1188,-0.91884 -0.1188,-2.12676 0,-1.62328 0.0114,-1.74271 0.20352,-2.16809 0.41473,-0.91745 1.25874,-1.42562 2.3733,-1.42904 0.88829,0 1.43991,0.22797 1.97853,0.82705 0.58149,0.64675 0.67716,1.06604 0.67112,2.94188 -0.004,1.35791 -0.0269,1.60223 -0.18492,2.00732 l -0.17994,0.46139 0.27042,0.33649 0.27041,0.3365 -0.38336,0.38341 -0.38337,0.38328 -0.3036,-0.30353 z m -1.37482,-1.37997 c 0.0205,-0.0203 -0.0936,-0.17218 -0.2534,-0.337 l -0.29064,-0.29999 0.37858,-0.38569 0.37857,-0.38569 0.27517,0.26664 0.27515,0.26676 0.0624,-0.58234 c 0.0909,-0.84923 9.9e-4,-2.27307 -0.16379,-2.59157 -0.3205,-0.61987 -1.06356,-0.81994 -1.67037,-0.44997 -0.46475,0.28325 -0.54599,0.60884 -0.54599,2.188 0,1.46682 0.0693,1.81625 0.4227,2.13094 0.29765,0.26499 0.94389,0.36781 1.13166,0.17991 z m -29.94781,1.33509 c -0.49189,-0.0976 -1.03774,-0.35463 -1.38082,-0.65157 l -0.28397,-0.24572 0.46135,-0.45377 0.46132,-0.45378 0.38095,0.21262 c 0.81216,0.45327 1.83004,0.48738 2.31713,0.0773 0.20901,-0.17585 0.25411,-0.27931 0.25411,-0.58323 0,-0.60402 -0.15191,-0.71217 -1.28549,-0.9149 -0.54167,-0.0964 -1.12145,-0.2461 -1.28842,-0.33181 -0.65759,-0.33726 -0.94774,-0.88587 -0.94774,-1.79178 0,-1.13273 0.58704,-1.84681 1.75246,-2.13196 0.5059,-0.12425 0.69259,-0.13046 1.27229,-0.0456 0.67159,0.0976 1.37809,0.39748 1.65276,0.70101 0.11664,0.12895 0.0854,0.18537 -0.32902,0.59464 l -0.45791,0.45213 -0.31683,-0.2149 c -0.38904,-0.26398 -1.11534,-0.37175 -1.54679,-0.22924 -0.3933,0.12971 -0.65266,0.46126 -0.65266,0.83415 0,0.44781 0.28174,0.6721 0.99385,0.79141 1.22394,0.20502 1.49319,0.28274 1.83205,0.52808 0.52935,0.38354 0.73015,0.84213 0.73483,1.67818 0.004,0.62583 -0.0216,0.73499 -0.25585,1.11384 -0.14284,0.23113 -0.41339,0.52668 -0.60124,0.65689 -0.62268,0.43159 -1.7814,0.6025 -2.76636,0.40813 z m 6.44743,-0.0685 c -0.91024,-0.31456 -1.48806,-0.99123 -1.65241,-1.93505 -0.0517,-0.29694 -0.094,-1.03599 -0.094,-1.64242 0,-1.96688 0.24565,-2.6684 1.14312,-3.26431 1.14673,-0.76137 2.89321,-0.49841 3.61306,0.54405 0.28148,0.40763 0.48336,0.8969 0.48336,1.1714 0,0.21453 -0.0101,0.21757 -0.67949,0.21757 l -0.6795,0 -0.18825,-0.38886 c -0.21777,-0.44985 -0.52575,-0.64193 -1.02958,-0.64193 -0.45838,0 -0.81885,0.19259 -1.00781,0.53834 -0.12919,0.23634 -0.15177,0.50767 -0.15177,1.82374 0,1.68451 0.0455,1.88902 0.49355,2.22058 0.30521,0.22593 0.98065,0.23659 1.31013,0.0203 0.12918,-0.085 0.29803,-0.30429 0.37518,-0.48801 l 0.14028,-0.33409 0.74747,0 0.74746,0 -0.11602,0.38557 c -0.0638,0.21212 -0.21919,0.56167 -0.3452,0.77671 -0.56662,0.96689 -1.93161,1.40482 -3.10952,0.99783 z m 28.87481,0.0444 c -0.86703,-0.28832 -1.40183,-0.76416 -1.67292,-1.48876 -0.16074,-0.42969 -0.1738,-0.66462 -0.1738,-3.12408 l 0,-2.65952 0.73009,0 0.7301,0 0,2.62402 c 0,3.00579 0.004,3.02861 0.65909,3.31807 0.66878,0.29592 1.29141,0.0761 1.57947,-0.55889 0.14765,-0.32521 0.16287,-0.59096 0.16459,-2.87075 l 0.003,-2.51245 0.69048,0 0.69049,0 -0.0249,2.81306 c -0.0229,2.5955 -0.0379,2.83932 -0.19374,3.15375 -0.22655,0.45695 -0.70196,0.91872 -1.18798,1.15404 -0.49728,0.24077 -1.49625,0.31671 -1.99295,0.15151 z m 12.1579,0.0203 c -0.48494,-0.0951 -1.20283,-0.44401 -1.4461,-0.70304 l -0.18724,-0.19931 0.46838,-0.46253 c 0.44133,-0.4359 0.47741,-0.45441 0.62462,-0.32115 0.62249,0.56332 2.18202,0.61416 2.59852,0.0849 0.22401,-0.28476 0.22513,-0.79129 0.003,-1.03054 -0.20257,-0.21744 -0.25419,-0.2338 -1.27622,-0.40572 -0.89211,-0.14999 -1.21423,-0.28388 -1.62796,-0.67667 -0.29415,-0.27919 -0.53453,-0.90363 -0.53453,-1.38847 0,-0.44097 0.23487,-1.09508 0.51466,-1.43322 0.14405,-0.17421 0.48238,-0.42462 0.75186,-0.55648 0.42812,-0.20945 0.58782,-0.23925 1.26519,-0.23697 0.42637,0 0.92983,0.0533 1.1188,0.11538 0.44023,0.14416 1.15957,0.59566 1.15957,0.72777 0,0.0558 -0.19022,0.28908 -0.4227,0.51806 l -0.42269,0.41625 -0.22251,-0.17497 c -0.4887,-0.38443 -1.57344,-0.4515 -2.00275,-0.12425 -0.22578,0.1723 -0.3571,0.5746 -0.28374,0.86913 0.0885,0.35552 0.42378,0.51958 1.36074,0.66565 1.59808,0.24939 2.18452,0.82045 2.18452,2.12751 0,0.55597 -0.0354,0.70901 -0.25374,1.09914 -0.53158,0.94927 -1.87227,1.38276 -3.369,1.08937 z m -36.33708,-3.64251 0,-3.65051 2.36209,0 2.36208,0 0,0.64231 0,0.64231 -1.65346,0.0241 -1.65346,0.0241 0,0.81602 0,0.81601 1.39578,0.0228 1.39578,0.0241 0,0.64206 0,0.64206 -1.41726,0 -1.41725,0 0,0.859 0,0.85886 1.67493,0 1.67494,0 0,0.64422 0,0.64421 -2.36208,0 -2.36209,0 0,-3.6505 z m 6.01258,0 0,-3.65051 0.62273,0 0.62273,0 1.39578,2.2079 1.39579,2.2079 0,-2.20866 0,-2.20854 0.73008,0 0.73011,0 0,3.65051 0,3.65038 -0.66567,0 -0.66568,0 -1.33136,-2.11218 c -0.73224,-1.16176 -1.36036,-2.1303 -1.39578,-2.15224 -0.0354,-0.0216 -0.0644,0.9286 -0.0644,2.11243 l 0,2.1525 -0.68715,0 -0.68715,0 0,-3.65064 z m 6.95742,0 0,-3.65051 0.7301,0 0.7301,0 0,3.65051 0,3.6505 -0.7301,0 -0.7301,0 0,-3.6505 z m 16.14809,0 0,-3.65051 2.36208,0 2.36209,0 0,0.64421 0,0.64422 -1.67493,0 -1.67494,0 0,0.85887 0,0.85899 1.41725,0 1.41726,0 0,0.64422 0,0.64421 -1.41726,0 -1.41725,0 0,0.85887 0,0.85899 1.67494,0 1.67493,0 0,0.64422 0,0.64421 -2.36209,0 -2.36208,0 0,-3.6505 z m -27.3516,-4.53093 c 0.0331,-0.10651 0.16615,-0.4832 0.29568,-0.83757 l 0.2355,-0.64409 0.70625,-0.0254 c 0.39635,-0.0139 0.69316,0.0127 0.67641,0.052 -0.0164,0.0431 -0.26175,0.43019 -0.5452,0.86115 l -0.51537,0.78368 -0.45673,0 c -0.43444,0 -0.45379,-0.0127 -0.39654,-0.19196 z m -0.31236,-4.12838 c -0.42733,-0.12045 -1.10399,-0.48826 -1.27367,-0.69277 -0.13568,-0.16343 -0.0459,-0.33371 0.40714,-0.77278 l 0.34351,-0.33282 0.27076,0.19284 c 0.83919,0.59756 2.23961,0.55965 2.60636,-0.0697 0.14429,-0.24787 0.15296,-0.33003 0.0657,-0.62139 -0.0553,-0.18461 -0.17604,-0.37606 -0.26824,-0.42551 -0.0922,-0.0494 -0.56432,-0.16203 -1.04916,-0.25066 -1.04755,-0.19132 -1.23045,-0.25662 -1.60723,-0.57372 -0.39343,-0.33104 -0.6015,-0.82759 -0.60378,-1.44074 -0.003,-0.74298 0.15131,-1.15555 0.60001,-1.60616 0.49973,-0.50196 1.00571,-0.6801 1.93168,-0.6801 0.8416,0 1.42064,0.15849 1.91968,0.52554 l 0.37192,0.27349 -0.46964,0.46962 -0.46965,0.46976 -0.24913,-0.18423 c -0.42602,-0.31494 -1.27329,-0.3772 -1.85763,-0.13642 -0.18281,0.0748 -0.40483,0.47634 -0.40483,0.73106 0,0.49372 0.33615,0.69671 1.41726,0.85557 1.23685,0.18182 1.87565,0.61446 2.09549,1.41919 0.31705,1.16075 -0.17077,2.25152 -1.21185,2.70999 -0.55214,0.24305 -1.93154,0.31874 -2.56464,0.14061 z m 27.05091,-0.052 c -0.44148,-0.14112 -1.27662,-0.64929 -1.27662,-0.77671 0,-0.0292 0.21134,-0.26157 0.46965,-0.51654 0.4352,-0.42994 0.48089,-0.45403 0.62273,-0.32965 0.46602,0.40889 1.51334,0.61581 2.1137,0.41764 0.62303,-0.20565 0.85933,-0.88207 0.46589,-1.33382 -0.16419,-0.18853 -0.3398,-0.24685 -1.16759,-0.38784 -1.1804,-0.20109 -1.62214,-0.42842 -1.96311,-1.01017 -0.32514,-0.55495 -0.3412,-1.49243 -0.0361,-2.11192 0.23807,-0.48358 0.8189,-0.94674 1.35818,-1.08291 1.01363,-0.25586 2.31484,-0.0342 2.94863,0.50361 l 0.29879,0.25332 -0.43625,0.44085 -0.43627,0.44072 -0.30765,-0.18144 c -0.37989,-0.22416 -1.10016,-0.34575 -1.50593,-0.25421 -0.67972,0.15329 -0.97176,0.88537 -0.52958,1.32748 0.16907,0.16914 0.40624,0.24648 1.18633,0.38696 1.06522,0.1917 1.31088,0.28882 1.65975,0.65617 0.35592,0.37466 0.49845,0.80815 0.49845,1.51602 0,0.49739 -0.043,0.71483 -0.19981,1.01202 -0.249,0.47179 -0.78892,0.89222 -1.36567,1.06351 -0.60344,0.17928 -1.78474,0.16292 -2.39745,-0.033 z m -40.61611,-3.57646 0,-3.6645 1.65347,0.0304 c 1.60772,0.0304 1.66702,0.0368 2.14373,0.27133 0.48815,0.23976 0.84041,0.59971 1.15142,1.17648 0.14482,0.26866 0.16208,0.50183 0.16208,2.19044 0,2.13424 -0.0506,2.35434 -0.68413,2.97903 -0.59773,0.58932 -0.74538,0.62533 -2.68722,0.65487 l -1.73935,0.0266 0,-3.66445 z m 3.15244,2.19801 c 0.45116,-0.27513 0.55716,-0.59109 0.60454,-1.80218 0.0538,-1.37367 -0.0571,-2.01383 -0.40951,-2.36643 -0.2473,-0.24749 -0.29454,-0.25979 -1.11571,-0.28806 l -0.85746,-0.0292 0,2.32725 0,2.32721 0.75158,0 c 0.59384,0 0.80928,-0.0355 1.02656,-0.168 z m 3.37552,-2.19383 0,-3.65054 2.36209,0 2.36207,0 0,0.68719 0,0.6872 -1.63198,0 -1.63199,0 0,0.81588 0,0.81602 1.37431,0 1.37431,0 0,0.64425 0,0.64421 -1.37431,0 -1.37431,0 0,0.859 0,0.85887 1.63199,0 1.63198,0 0,0.64421 0,0.64422 -2.36207,0 -2.36209,0 0,-3.65051 z m 13.77815,3.50369 c 0.0269,-0.085 0.60587,-1.71926 1.28664,-3.63251 l 1.23779,-3.47874 0.57523,0 0.57525,0 1.22542,3.43576 c 0.67397,1.88966 1.25313,3.52435 1.28701,3.6325 0.0614,0.19589 0.0586,0.19665 -0.68994,0.1718 l -0.75153,-0.0254 -0.20733,-0.62267 -0.20737,-0.62278 -1.23114,0 -1.23115,0 -0.20735,0.62278 -0.20735,0.62267 -0.75153,0.0254 c -0.68906,0.0228 -0.74746,0.0127 -0.70265,-0.12881 z m 3.89421,-2.49445 c -0.20635,-0.74133 -0.70747,-2.25473 -0.74659,-2.25473 -0.0271,0 -0.21972,0.49283 -0.42796,1.09525 -0.20824,0.60224 -0.39557,1.14338 -0.41631,1.20246 -0.0285,0.0811 0.1665,0.10777 0.7975,0.10777 0.7541,0 0.83114,-0.0152 0.79336,-0.15037 z m 3.37168,-1.01697 0,-3.65828 1.6964,0.0317 c 1.55737,0.0292 1.73342,0.0482 2.14798,0.2333 0.81247,0.36337 1.2351,1.03738 1.25005,1.9935 0.0114,0.73018 -0.25429,1.28339 -0.81791,1.70281 l -0.39638,0.29491 0.76604,1.53035 0.76605,1.53021 -0.84062,0 -0.84064,0 -0.67527,-1.41725 -0.67526,-1.41724 -0.50307,0 -0.50306,0 0,1.41724 0,1.41725 -0.68716,0 -0.68715,0 0,-3.65824 z m 3.40141,-0.75672 c 0.31664,-0.31659 0.37458,-0.63534 0.18942,-1.0417 -0.16541,-0.36299 -0.48323,-0.47 -1.39628,-0.47 l -0.82024,0 0,0.90185 0,0.90185 0.86752,0 0.86753,0 0.29205,-0.292 z m 4.50084,1.45456 0,-2.96043 -0.92335,-0.0241 -0.92337,-0.0241 0,-0.64421 0,-0.64422 2.55536,-0.0228 2.55534,-0.0228 0,0.68846 0,0.68834 -0.90189,0 -0.90189,0 0,2.96335 0,2.96343 -0.7301,0 -0.7301,0 0,-2.96052 z m -34.333,-9.4926 c -0.55981,-0.28274 -0.95088,-0.69201 -1.20506,-1.26104 -0.19891,-0.44528 -0.21895,-3.52904 -0.0273,-4.19494 0.18298,-0.63546 0.92327,-1.35474 1.59583,-1.55025 0.95934,-0.2788 1.97186,-0.0837 2.68762,0.51895 0.29779,0.25054 0.78951,1.169 0.78951,1.47456 0,0.19462 -0.0227,0.20096 -0.70863,0.20007 l -0.70863,0 -0.14028,-0.33409 c -0.34501,-0.82184 -1.4476,-0.90553 -2.00097,-0.15202 -0.1607,0.21897 -0.18063,0.38633 -0.20636,1.7327 -0.0256,1.33965 -0.0114,1.52958 0.14279,1.87749 0.22042,0.49828 0.56941,0.69163 1.14818,0.63597 0.47207,-0.0456 0.78521,-0.2802 0.97386,-0.73056 l 0.11703,-0.27906 0.70276,0 0.70278,0 -0.0502,0.30975 c -0.11018,0.67857 -0.59153,1.34269 -1.25797,1.73561 -0.32695,0.19272 -0.50528,0.23076 -1.20253,0.25675 -0.77675,0.0292 -0.84594,0.0165 -1.35232,-0.239 z m 5.04312,-3.39452 0,-3.65038 2.36209,0 2.36209,0 0,0.64409 0,0.64422 -1.67493,0 -1.67493,0 0,0.81601 0,0.81601 1.41724,0 1.41726,0 0,0.64206 0,0.64206 -1.39578,0.0241 -1.39578,0.0241 0,0.85887 0,0.85899 1.65345,0.0228 1.65347,0.0241 0,0.64231 0,0.64231 -2.36209,0 -2.36209,0 0,-3.6505 z m 5.9267,0 0,-3.65038 0.67034,0 0.67035,0 1.36964,2.16835 1.36964,2.16834 0.0229,-2.16834 0.0229,-2.16835 0.68569,0 0.68567,0 0,3.65038 0,3.65051 -0.62273,0 -0.62274,0 -1.3743,-2.18762 -1.37431,-2.18774 -0.0229,2.1899 -0.0229,2.1899 -0.72865,0 -0.72865,0 0,-3.65051 z m 8.50352,0.64422 0,-3.00629 -0.94485,0 -0.94483,0 0,-0.64422 0,-0.64409 2.57682,0 2.57682,0 0,0.64409 0,0.64422 -0.90189,0 -0.90188,0 0,3.00629 0,3.00629 -0.7301,0 -0.73009,0 0,-3.00629 z m 4.38059,-0.64422 0,-3.65038 1.75102,0 c 1.74983,0 1.75134,0 2.2102,0.23976 1.44425,0.75452 1.59234,2.88293 0.25782,3.70554 l -0.339,0.20894 0.76564,1.52946 c 0.4211,0.84124 0.76565,1.55063 0.76565,1.57649 0,0.0254 -0.37102,0.0355 -0.8245,0.0228 l -0.82448,-0.0241 -0.67774,-1.41737 -0.67774,-1.41712 -0.47334,-0.0266 -0.47334,-0.0254 0,1.46441 0,1.46454 -0.73009,0 -0.7301,0 0,-3.65051 z m 3.12666,-0.5921 c 0.37696,-0.1576 0.56678,-0.44313 0.56678,-0.85278 0,-0.26423 -0.0603,-0.39343 -0.29203,-0.6252 -0.29157,-0.29149 -0.29339,-0.29199 -1.11663,-0.29199 l -0.82459,0 0,0.94483 0,0.94483 0.68991,0 c 0.39572,0 0.81215,-0.0507 0.97656,-0.11918 z m 3.40129,0.5921 0,-3.65038 2.36209,0 2.36209,0 0,0.64409 0,0.64422 -1.63199,0 -1.63199,0 0,0.81601 0,0.81601 1.41725,0 1.41725,0 0,0.64422 0,0.64421 -1.41725,0 -1.41725,0 0,0.90185 0,0.90185 1.63199,0 1.63199,0 0,0.64422 0,0.64421 -2.36209,0 -2.36209,0 0,-3.65051 z"
       style="fill:#005176;fill-opacity:1" />
  </g>
</svg>
