<?xml version="1.0" encoding="UTF-8" standalone="no"?>
<!-- Created with Inkscape (http://www.inkscape.org/) -->

<svg
   xmlns:dc="http://purl.org/dc/elements/1.1/"
   xmlns:cc="http://creativecommons.org/ns#"
   xmlns:rdf="http://www.w3.org/1999/02/22-rdf-syntax-ns#"
   xmlns:svg="http://www.w3.org/2000/svg"
   xmlns="http://www.w3.org/2000/svg"
   xmlns:sodipodi="http://sodipodi.sourceforge.net/DTD/sodipodi-0.dtd"
   xmlns:inkscape="http://www.inkscape.org/namespaces/inkscape"
   width="78.871239"
   height="31.67148"
   id="svg3375"
   version="1.1"
   inkscape:version="0.48.4 r9939"
   sodipodi:docname="arts-sceniques.svg">
  <defs
     id="defs3377" />
  <sodipodi:namedview
     id="base"
     pagecolor="#ffffff"
     bordercolor="#666666"
     borderopacity="1.0"
     inkscape:pageopacity="0.0"
     inkscape:pageshadow="2"
     inkscape:zoom="0.37734375"
     inkscape:cx="-205.56438"
     inkscape:cy="87.264308"
     inkscape:document-units="px"
     inkscape:current-layer="layer1"
     showgrid="false"
     inkscape:window-width="476"
     inkscape:window-height="456"
     inkscape:window-x="0"
     inkscape:window-y="21"
     inkscape:window-maximized="0"
     fit-margin-top="0"
     fit-margin-left="0"
     fit-margin-right="0"
     fit-margin-bottom="0" />
  <metadata
     id="metadata3380">
    <rdf:RDF>
      <cc:Work
         rdf:about="">
        <dc:format>image/svg+xml</dc:format>
        <dc:type
           rdf:resource="http://purl.org/dc/dcmitype/StillImage" />
        <dc:title />
      </cc:Work>
    </rdf:RDF>
  </metadata>
  <g
     inkscape:label="Layer 1"
     inkscape:groupmode="layer"
     id="layer1"
     transform="translate(-580.56438,-587.95501)">
    <path
       style="fill:#00aa5a"
       d="m 594.99274,619.57106 c -4.05999,-0.3368 -7.95183,-2.3332 -10.62172,-5.4488 -2.48847,-2.904 -3.80664,-6.4815 -3.80664,-10.3313 0,-2.53803 0.4967,-4.70813 1.58938,-6.94393 3.31118,-6.7752 10.82252,-10.2468 18.17395,-8.3999 2.11748,0.5321 4.46997,1.7379 6.17894,3.1673 5.38992,4.5081 7.17598,11.9984 4.40238,18.46233 -2.08851,4.8674 -6.61621,8.435 -11.83462,9.3252 -1.30301,0.2223 -2.72818,0.2813 -4.08167,0.1691 z m 3.21423,-1.9945 c 5.15649,-0.676 9.61488,-4.3234 11.30696,-9.2502 0.52094,-1.5168 0.73986,-2.8588 0.73986,-4.5354 0,-3.08663 -0.91072,-5.84303 -2.74462,-8.30693 -2.22055,-2.9834 -5.64268,-4.9989 -9.3022,-5.4786 -0.98718,-0.1294 -2.76566,-0.1297 -3.67366,0 -4.69325,0.6671 -8.65233,3.5522 -10.69388,7.7928 -0.67359,1.3991 -1.14063,3.0782 -1.30633,4.6965 -0.34465,3.36583 0.67884,6.93743 2.78324,9.71233 0.53371,0.7037 1.62786,1.8371 2.2936,2.3757 1.94805,1.5761 4.35724,2.6255 6.869,2.9922 0.86121,0.1257 2.77742,0.1268 3.72803,0 z m -3.02521,-1.7345 c -1.49231,-0.1439 -2.76219,-0.5188 -4.21841,-1.2454 -1.30246,-0.6499 -2.10114,-1.2231 -3.1152,-2.2358 -1.80195,-1.7996 -2.94974,-3.9753 -3.39513,-6.4359 -0.16841,-0.9304 -0.20082,-2.80833 -0.0652,-3.78023 0.38954,-2.7928 1.68323,-5.2972 3.71717,-7.1961 2.88162,-2.6901 6.86602,-3.8048 10.76219,-3.0109 1.89266,0.3857 3.78972,1.3224 5.37738,2.6549 1.94011,1.6284 3.44513,4.1523 3.95746,6.6366 0.35776,1.7348 0.35776,3.38873 0,5.12343 -0.51233,2.4844 -2.01735,5.0083 -3.95746,6.6367 -2.58693,2.1713 -5.76303,3.171 -9.06275,2.8527 z m 2.76142,-1.8535 c 3.25879,-0.5285 6.07017,-2.5505 7.57601,-5.4488 1.55089,-2.9849 1.55089,-6.51263 0,-9.49753 -1.50584,-2.8983 -4.31722,-4.9203 -7.57601,-5.4488 -0.88144,-0.143 -2.36039,-0.1287 -3.29789,0.032 -2.15311,0.3688 -3.95308,1.3135 -5.54796,2.9119 -1.53299,1.5364 -2.38918,3.1252 -2.85026,5.2891 -0.2184,1.025 -0.2184,2.90423 0,3.92933 0.46108,2.1639 1.31727,3.7526 2.85026,5.289 1.5749,1.5785 3.3775,2.5328 5.49042,2.9068 0.89542,0.1585 2.49766,0.1763 3.35543,0.037 z m -2.47474,-1.7716 c -3.56394,-0.4539 -6.34147,-2.8567 -7.29741,-6.3129 -0.17094,-0.6181 -0.18157,-0.7418 -0.18157,-2.1131 0,-1.37133 0.0106,-1.49493 0.18157,-2.11303 0.51605,-1.8658 1.62497,-3.531 3.07737,-4.621 1.02504,-0.7693 2.18469,-1.2935 3.47758,-1.5719 0.79922,-0.1721 2.51606,-0.1718 3.3168,0 2.60263,0.5602 4.72389,2.1876 5.89139,4.5198 1.88679,3.76893 0.67547,8.44813 -2.78644,10.76373 -1.01746,0.6806 -1.83011,1.0346 -2.96946,1.2937 -0.56518,0.1285 -2.18683,0.2208 -2.70983,0.1542 z m 2.50737,-2.0137 c 1.96747,-0.4998 3.5384,-1.8049 4.40599,-3.6605 0.44543,-0.9527 0.56722,-1.5435 0.56722,-2.7518 0,-0.88123 -0.0249,-1.14263 -0.15503,-1.62593 -0.31476,-1.1691 -0.90585,-2.1926 -1.76525,-3.0562 -2.03375,-2.0439 -5.16063,-2.5208 -7.71077,-1.1761 -2.20489,1.1627 -3.54017,3.3723 -3.54017,5.85823 0,3.2572 2.33033,6.0003 5.55515,6.5392 0.78348,0.1309 1.82488,0.081 2.64286,-0.1269 z m -2.71061,-1.6397 c -0.55323,-0.1184 -1.55052,-0.6106 -2.01095,-0.9924 -0.48757,-0.4044 -1.0175,-1.0839 -1.28369,-1.6462 -0.34931,-0.7378 -0.45878,-1.247 -0.45878,-2.134 0,-1.21313 0.32159,-2.15833 1.03729,-3.04853 0.48194,-0.5995 0.94314,-0.9665 1.66608,-1.3259 0.7225,-0.3591 1.33631,-0.5009 2.16786,-0.5009 0.83857,0 1.44483,0.142 2.20156,0.5155 0.53213,0.2627 0.74402,0.4182 1.22509,0.8993 0.4827,0.4827 0.63546,0.6912 0.89773,1.2251 0.41516,0.8452 0.53721,1.353 0.53721,2.23543 0,0.8824 -0.12205,1.3903 -0.53721,2.2355 -0.26227,0.5339 -0.41503,0.7424 -0.89773,1.225 -0.97001,0.97 -2.07315,1.4197 -3.46052,1.4107 -0.35398,0 -0.84175,-0.047 -1.08394,-0.099 z m 2.13399,-1.6699 c 1.48784,-0.4846 2.47242,-2.0801 2.21393,-3.58753 -0.2774,-1.6176 -1.63205,-2.783 -3.23011,-2.7787 -0.95646,0 -1.68696,0.3162 -2.34629,1.0076 -1.2518,1.3126 -1.2518,3.19923 0,4.51183 0.56284,0.5902 1.11383,0.8761 1.90594,0.9888 0.48211,0.069 0.94996,0.023 1.45653,-0.142 z m -1.69911,-1.6053 c -0.56619,-0.2572 -0.97684,-0.8866 -0.97684,-1.4974 0,-0.61073 0.41065,-1.24023 0.97684,-1.49733 0.36293,-0.1649 1.00095,-0.1659 1.36038,0 0.38094,0.1735 0.751,0.6097 0.87687,1.0336 0.13058,0.43973 0.13058,0.49223 0,0.93193 -0.12587,0.4238 -0.49593,0.86 -0.87687,1.0335 -0.35943,0.1637 -0.99745,0.1627 -1.36038,0 z m 48.13444,11.2706 -0.23945,-0.2395 -0.26763,0.1175 c -0.18823,0.083 -0.44854,0.1178 -0.87734,0.1185 -0.5298,0 -0.65521,-0.023 -0.9568,-0.1798 -0.4465,-0.2325 -0.86217,-0.7058 -0.9819,-1.118 -0.0659,-0.2268 -0.0937,-0.7247 -0.0937,-1.6774 0,-1.2803 0.009,-1.3745 0.16052,-1.71 0.3271,-0.7236 0.99278,-1.1244 1.87185,-1.1271 0.7006,0 1.13567,0.1798 1.56049,0.6523 0.45863,0.5101 0.53408,0.8408 0.52932,2.3203 -0.003,1.071 -0.0212,1.2637 -0.14585,1.5832 l -0.14192,0.3639 0.21328,0.2654 0.21328,0.2654 -0.30236,0.3024 -0.30237,0.3023 -0.23945,-0.2394 z m -1.08434,-1.0884 c 0.0162,-0.016 -0.0738,-0.1358 -0.19986,-0.2658 l -0.22923,-0.2366 0.29859,-0.3042 0.29858,-0.3042 0.21703,0.2103 0.21702,0.2104 0.0492,-0.4593 c 0.0717,-0.6698 7.8e-4,-1.7928 -0.12919,-2.044 -0.25278,-0.4889 -0.83884,-0.6467 -1.31744,-0.3549 -0.36655,0.2234 -0.43063,0.4802 -0.43063,1.7257 0,1.1569 0.0547,1.4325 0.33339,1.6807 0.23476,0.209 0.74446,0.2901 0.89256,0.1419 z m -23.62021,1.053 c -0.38796,-0.077 -0.81848,-0.2797 -1.08907,-0.5139 l -0.22397,-0.1938 0.36387,-0.3579 0.36385,-0.3579 0.30046,0.1677 c 0.64056,0.3575 1.44338,0.3844 1.82755,0.061 0.16485,-0.1387 0.20042,-0.2203 0.20042,-0.46 0,-0.4764 -0.11981,-0.5617 -1.01388,-0.7216 -0.42722,-0.076 -0.8845,-0.1941 -1.01619,-0.2617 -0.51865,-0.266 -0.7475,-0.6987 -0.7475,-1.4132 0,-0.8934 0.46301,-1.4566 1.38219,-1.6815 0.39901,-0.098 0.54625,-0.1029 1.00347,-0.036 0.52969,0.077 1.08692,0.3135 1.30355,0.5529 0.092,0.1017 0.0674,0.1462 -0.2595,0.469 l -0.36116,0.3566 -0.24989,-0.1695 c -0.30684,-0.2082 -0.87968,-0.2932 -1.21997,-0.1808 -0.3102,0.1023 -0.51476,0.3638 -0.51476,0.6579 0,0.3532 0.22221,0.5301 0.78386,0.6242 0.96534,0.1617 1.1777,0.223 1.44496,0.4165 0.41751,0.3025 0.57588,0.6642 0.57957,1.3236 0.003,0.4936 -0.017,0.5797 -0.20179,0.8785 -0.11266,0.1823 -0.32605,0.4154 -0.47421,0.5181 -0.49111,0.3404 -1.40501,0.4752 -2.18186,0.3219 z m 5.08517,-0.054 c -0.71792,-0.2481 -1.17365,-0.7818 -1.30328,-1.5262 -0.0408,-0.2342 -0.0741,-0.8171 -0.0741,-1.2954 0,-1.5513 0.19375,-2.1046 0.9016,-2.5746 0.90444,-0.6005 2.28191,-0.3931 2.84966,0.4291 0.22201,0.3215 0.38123,0.7074 0.38123,0.9239 0,0.1692 -0.008,0.1716 -0.53592,0.1716 l -0.53593,0 -0.14847,-0.3067 c -0.17176,-0.3548 -0.41467,-0.5063 -0.81205,-0.5063 -0.36153,0 -0.64583,0.1519 -0.79487,0.4246 -0.10189,0.1864 -0.1197,0.4004 -0.1197,1.4384 0,1.3286 0.0359,1.4899 0.38927,1.7514 0.24072,0.1782 0.77345,0.1866 1.03331,0.016 0.10189,-0.067 0.23506,-0.24 0.29591,-0.3849 l 0.11064,-0.2635 0.58954,0 0.58953,0 -0.0915,0.3041 c -0.0503,0.1673 -0.17288,0.443 -0.27227,0.6126 -0.4469,0.7626 -1.52348,1.108 -2.45251,0.787 z m 22.77392,0.035 c -0.68384,-0.2274 -1.10564,-0.6027 -1.31945,-1.1742 -0.12678,-0.3389 -0.13708,-0.5242 -0.13708,-2.464 l 0,-2.0976 0.57583,0 0.57584,0 0,2.0696 c 0,2.3707 0.003,2.3887 0.51983,2.617 0.52748,0.2334 1.01855,0.06 1.24575,-0.4408 0.11645,-0.2565 0.12846,-0.4661 0.12981,-2.2642 l 0.002,-1.9816 0.54459,0 0.5446,0 -0.0196,2.2187 c -0.0181,2.0471 -0.0299,2.2394 -0.15281,2.4874 -0.17868,0.3604 -0.55364,0.7246 -0.93697,0.9102 -0.39221,0.1899 -1.18011,0.2498 -1.57187,0.1195 z m 9.58909,0.016 c -0.38248,-0.075 -0.94869,-0.3502 -1.14056,-0.5545 l -0.14768,-0.1572 0.36942,-0.3648 c 0.34808,-0.3438 0.37654,-0.3584 0.49264,-0.2533 0.49097,0.4443 1.72099,0.4844 2.04949,0.067 0.17668,-0.2246 0.17756,-0.6241 0.002,-0.8128 -0.15977,-0.1715 -0.20048,-0.1844 -1.00657,-0.32 -0.70362,-0.1183 -0.95768,-0.2239 -1.28399,-0.5337 -0.232,-0.2202 -0.42159,-0.7127 -0.42159,-1.0951 0,-0.3478 0.18524,-0.8637 0.40592,-1.1304 0.11361,-0.1374 0.38046,-0.3349 0.593,-0.4389 0.33766,-0.1652 0.46362,-0.1887 0.99787,-0.1869 0.33628,0 0.73337,0.042 0.88241,0.091 0.34722,0.1137 0.91457,0.4698 0.91457,0.574 0,0.044 -0.15003,0.228 -0.33339,0.4086 l -0.33338,0.3283 -0.1755,-0.138 c -0.38544,-0.3032 -1.24099,-0.3561 -1.57959,-0.098 -0.17808,0.1359 -0.28165,0.4532 -0.22379,0.6855 0.0698,0.2804 0.33424,0.4098 1.07323,0.525 1.26043,0.1967 1.72296,0.6471 1.72296,1.678 0,0.4385 -0.0279,0.5592 -0.20013,0.8669 -0.41926,0.7487 -1.47668,1.0906 -2.65717,0.8592 z m -28.65951,-2.8729 0,-2.8792 1.86301,0 1.863,0 0,0.5066 0,0.5066 -1.3041,0.019 -1.30411,0.019 0,0.6436 0,0.6436 1.10087,0.018 1.10087,0.019 0,0.5064 0,0.5064 -1.11781,0 -1.1178,0 0,0.6775 0,0.6774 1.32104,0 1.32104,0 0,0.5081 0,0.5081 -1.863,0 -1.86301,0 0,-2.8792 z m 4.7422,0 0,-2.8792 0.49115,0 0.49116,0 1.10087,1.7414 1.10087,1.7414 0,-1.742 0,-1.7419 0.57583,0 0.57584,0 0,2.8792 0,2.8791 -0.52502,0 -0.52503,0 -1.05006,-1.6659 c -0.57753,-0.9163 -1.07293,-1.6802 -1.10087,-1.6975 -0.0279,-0.017 -0.0508,0.7324 -0.0508,1.6661 l 0,1.6977 -0.54196,0 -0.54197,0 0,-2.8793 z m 5.4874,0 0,-2.8792 0.57584,0 0.57584,0 0,2.8792 0,2.8792 -0.57584,0 -0.57584,0 0,-2.8792 z m 12.7362,0 0,-2.8792 1.863,0 1.86301,0 0,0.5081 0,0.5081 -1.32104,0 -1.32104,0 0,0.6774 0,0.6775 1.1178,0 1.11781,0 0,0.5081 0,0.5081 -1.11781,0 -1.1178,0 0,0.6774 0,0.6775 1.32104,0 1.32104,0 0,0.5081 0,0.5081 -1.86301,0 -1.863,0 0,-2.8792 z m -21.57255,-3.5736 c 0.0261,-0.084 0.13105,-0.3811 0.23321,-0.6606 l 0.18574,-0.508 0.55703,-0.02 c 0.31261,-0.011 0.5467,0.01 0.53349,0.041 -0.0129,0.034 -0.20644,0.3393 -0.43,0.6792 l -0.40648,0.6181 -0.36023,0 c -0.34265,0 -0.35791,-0.01 -0.31276,-0.1514 z m -0.24636,-3.2561 c -0.33704,-0.095 -0.87073,-0.3851 -1.00456,-0.5464 -0.10701,-0.1289 -0.0362,-0.2632 0.32112,-0.6095 l 0.27093,-0.2625 0.21355,0.1521 c 0.66188,0.4713 1.76641,0.4414 2.05567,-0.055 0.1138,-0.1955 0.12064,-0.2603 0.0518,-0.4901 -0.0436,-0.1456 -0.13884,-0.2966 -0.21156,-0.3356 -0.0727,-0.039 -0.44509,-0.1278 -0.82749,-0.1977 -0.82621,-0.1509 -0.97047,-0.2024 -1.26764,-0.4525 -0.3103,-0.2611 -0.47441,-0.65273 -0.47621,-1.13633 -0.002,-0.586 0.11934,-0.9114 0.47324,-1.2668 0.39414,-0.3959 0.79321,-0.5364 1.52354,-0.5364 0.66378,0 1.12047,0.125 1.51407,0.4145 l 0.29334,0.2157 -0.37041,0.3704 -0.37042,0.3705 -0.19649,-0.1453 c -0.33601,-0.2484 -1.00426,-0.2975 -1.46514,-0.1076 -0.14418,0.059 -0.31929,0.3757 -0.31929,0.5766 0,0.3894 0.26512,0.5495 1.11781,0.6748 0.97552,0.1434 1.47935,0.48463 1.65274,1.11933 0.25006,0.9155 -0.13469,1.7758 -0.9558,2.1374 -0.43548,0.1917 -1.52343,0.2514 -2.02277,0.1109 z m 21.33539,-0.041 c -0.3482,-0.1113 -1.00689,-0.5121 -1.00689,-0.6126 0,-0.023 0.16669,-0.2063 0.37042,-0.4074 0.34325,-0.3391 0.37929,-0.3581 0.49116,-0.26 0.36755,0.3225 1.19359,0.4857 1.6671,0.3294 0.49139,-0.1622 0.67776,-0.6957 0.36745,-1.052 -0.1295,-0.1487 -0.268,-0.1947 -0.92089,-0.3059 -0.931,-0.1586 -1.2794,-0.3379 -1.54833,-0.79673 -0.25644,-0.4377 -0.26911,-1.1771 -0.0285,-1.6657 0.18777,-0.3814 0.64588,-0.7467 1.07122,-0.8541 0.79946,-0.2018 1.82574,-0.027 2.32562,0.3972 l 0.23566,0.1998 -0.34408,0.3477 -0.34409,0.3476 -0.24265,-0.1431 c -0.29962,-0.1768 -0.86771,-0.2727 -1.18774,-0.2005 -0.53611,0.1209 -0.76644,0.6983 -0.41769,1.047 0.13335,0.1334 0.32041,0.1944 0.93567,0.3052 0.84016,0.1512 1.03391,0.2278 1.30907,0.51753 0.28072,0.2955 0.39313,0.6374 0.39313,1.1957 0,0.3923 -0.0339,0.5638 -0.15759,0.7982 -0.19639,0.3721 -0.62223,0.7037 -1.07712,0.8388 -0.47594,0.1414 -1.40765,0.1285 -1.8909,-0.026 z m -32.03443,-2.8208 0,-2.89023 1.30411,0.024 c 1.26803,0.024 1.3148,0.029 1.69079,0.214 0.38501,0.1891 0.66284,0.473 0.90814,0.9279 0.11422,0.2119 0.12783,0.3958 0.12783,1.72763 0,1.6833 -0.0399,1.8569 -0.53958,2.3496 -0.47144,0.4648 -0.58789,0.4932 -2.11944,0.5165 l -1.37185,0.021 0,-2.8902 z m 2.48637,1.7336 c 0.35583,-0.217 0.43944,-0.4662 0.47681,-1.4214 0.0424,-1.08343 -0.045,-1.58833 -0.32299,-1.86643 -0.19505,-0.1952 -0.23231,-0.2049 -0.87997,-0.2272 l -0.67629,-0.023 0,1.83553 0,1.8355 0.59278,0 c 0.46837,0 0.63829,-0.028 0.80966,-0.1325 z m 2.66231,-1.7303 0,-2.87923 1.86301,0 1.863,0 0,0.542 0,0.542 -1.28717,0 -1.28717,0 0,0.6435 0,0.6436 1.08394,0 1.08393,0 0,0.50813 0,0.5081 -1.08393,0 -1.08394,0 0,0.6775 0,0.6774 1.28717,0 1.28717,0 0,0.5081 0,0.5081 -1.863,0 -1.86301,0 0,-2.8792 z m 10.867,2.7634 c 0.0212,-0.067 0.47786,-1.356 1.01479,-2.865 l 0.97626,-2.74373 0.45369,0 0.45371,0 0.9665,2.70983 c 0.53157,1.4904 0.98836,2.7797 1.01508,2.865 0.0484,0.1545 0.0462,0.1551 -0.54416,0.1355 l -0.59274,-0.02 -0.16353,-0.4911 -0.16355,-0.4912 -0.97102,0 -0.97102,0 -0.16354,0.4912 -0.16354,0.4911 -0.59274,0.02 c -0.54347,0.018 -0.58953,0.01 -0.55419,-0.1016 z m 3.07141,-1.9674 c -0.16275,-0.5847 -0.55799,-1.77833 -0.58884,-1.77833 -0.0214,0 -0.1733,0.3887 -0.33754,0.86383 -0.16424,0.475 -0.31199,0.9018 -0.32835,0.9484 -0.0225,0.064 0.13132,0.085 0.629,0.085 0.59477,0 0.65553,-0.012 0.62573,-0.1186 z m 2.65929,-0.8021 0,-2.88533 1.33797,0.025 c 1.22832,0.023 1.36717,0.038 1.69414,0.184 0.6408,0.2866 0.97414,0.8182 0.98593,1.5723 0.009,0.5759 -0.20056,1.01223 -0.6451,1.34303 l -0.31263,0.2326 0.60419,1.207 0.60419,1.2069 -0.66301,0 -0.66302,0 -0.53259,-1.1178 -0.53259,-1.1178 -0.39678,0 -0.39677,0 0,1.1178 0,1.1178 -0.54197,0 -0.54196,0 0,-2.8853 z m 2.68273,-0.59683 c 0.24974,-0.2497 0.29544,-0.5011 0.1494,-0.8216 -0.13046,-0.2863 -0.38113,-0.3707 -1.10126,-0.3707 l -0.64694,0 0,0.7113 0,0.7113 0.68423,0 0.68423,0 0.23034,-0.2303 z m 3.54987,1.14723 0,-2.33493 -0.72826,-0.019 -0.72827,-0.019 0,-0.5081 0,-0.5081 2.01544,-0.018 2.01543,-0.018 0,0.543 0,0.5429 -0.71133,0 -0.71133,0 0,2.33723 0,2.3373 -0.57584,0 -0.57584,0 0,-2.335 z m -27.07886,-7.48693 c -0.44153,-0.223 -0.74997,-0.5458 -0.95045,-0.9946 -0.15688,-0.3512 -0.17269,-2.7834 -0.0215,-3.3086 0.14432,-0.5012 0.7282,-1.0685 1.25865,-1.2227 0.75665,-0.2199 1.55523,-0.066 2.11976,0.4093 0.23487,0.1976 0.6227,0.922 0.6227,1.163 0,0.1535 -0.0179,0.1585 -0.55891,0.1578 l -0.5589,0 -0.11064,-0.2635 c -0.27212,-0.6482 -1.14174,-0.7142 -1.57819,-0.1199 -0.12675,0.1727 -0.14247,0.3047 -0.16276,1.3666 -0.0202,1.0566 -0.009,1.2064 0.11262,1.4808 0.17385,0.393 0.4491,0.5455 0.90558,0.5016 0.37233,-0.036 0.61931,-0.221 0.7681,-0.5762 l 0.0923,-0.2201 0.55428,0 0.55429,0 -0.0396,0.2443 c -0.0869,0.5352 -0.46655,1.059 -0.99218,1.3689 -0.25787,0.152 -0.39852,0.182 -0.94845,0.2025 -0.61263,0.023 -0.6672,0.013 -1.06659,-0.1885 z m 3.97757,-2.6773 0,-2.8791 1.86301,0 1.86301,0 0,0.508 0,0.5081 -1.32104,0 -1.32104,0 0,0.6436 0,0.6436 1.1178,0 1.11781,0 0,0.5064 0,0.5064 -1.10087,0.019 -1.10087,0.019 0,0.6774 0,0.6775 1.3041,0.018 1.30411,0.019 0,0.5066 0,0.5066 -1.86301,0 -1.86301,0 0,-2.8792 z m 4.67446,0 0,-2.8791 0.52871,0 0.52871,0 1.08025,1.7102 1.08025,1.7102 0.0181,-1.7102 0.0181,-1.7102 0.54081,0 0.5408,0 0,2.8791 0,2.8792 -0.49116,0 -0.49116,0 -1.08393,-1.7254 -1.08393,-1.7255 -0.0181,1.7272 -0.0181,1.7272 -0.57469,0 -0.5747,0 0,-2.8792 z m 6.70683,0.5081 0,-2.3711 -0.74521,0 -0.7452,0 0,-0.5081 0,-0.508 2.03237,0 2.03237,0 0,0.508 0,0.5081 -0.71133,0 -0.71133,0 0,2.3711 0,2.3711 -0.57584,0 -0.57583,0 0,-2.3711 z m 3.45503,-0.5081 0,-2.8791 1.38105,0 c 1.38011,0 1.3813,0 1.74321,0.1891 1.1391,0.5951 1.2559,2.2738 0.20335,2.9226 l -0.26738,0.1648 0.60387,1.2063 c 0.33213,0.6635 0.60388,1.223 0.60388,1.2434 0,0.02 -0.29263,0.028 -0.65029,0.018 l -0.65028,-0.019 -0.53454,-1.1179 -0.53454,-1.1177 -0.37333,-0.021 -0.37333,-0.02 0,1.155 0,1.1551 -0.57583,0 -0.57584,0 0,-2.8792 z m 2.46603,-0.467 c 0.29732,-0.1243 0.44703,-0.3495 0.44703,-0.6726 0,-0.2084 -0.0476,-0.3103 -0.23033,-0.4931 -0.22996,-0.2299 -0.2314,-0.2303 -0.8807,-0.2303 l -0.65036,0 0,0.7452 0,0.7452 0.54414,0 c 0.31211,0 0.64055,-0.04 0.77022,-0.094 z m 2.68264,0.467 0,-2.8791 1.86301,0 1.86301,0 0,0.508 0,0.5081 -1.28717,0 -1.28717,0 0,0.6436 0,0.6436 1.1178,0 1.11781,0 0,0.5081 0,0.5081 -1.11781,0 -1.1178,0 0,0.7113 0,0.7113 1.28717,0 1.28717,0 0,0.5081 0,0.5081 -1.86301,0 -1.86301,0 0,-2.8792 z"
       id="path3207"
       inkscape:connector-curvature="0" />
  </g>
</svg>
