<?xml version="1.0" encoding="UTF-8" standalone="no"?>
<!-- Created with Inkscape (http://www.inkscape.org/) -->

<svg
   xmlns:dc="http://purl.org/dc/elements/1.1/"
   xmlns:cc="http://creativecommons.org/ns#"
   xmlns:rdf="http://www.w3.org/1999/02/22-rdf-syntax-ns#"
   xmlns:svg="http://www.w3.org/2000/svg"
   xmlns="http://www.w3.org/2000/svg"
   xmlns:sodipodi="http://sodipodi.sourceforge.net/DTD/sodipodi-0.dtd"
   xmlns:inkscape="http://www.inkscape.org/namespaces/inkscape"
   width="100.00009"
   height="172.88098"
   id="svg3330"
   version="1.1"
   inkscape:version="0.48.4 r9939"
   sodipodi:docname="bellone.svg">
  <defs
     id="defs3332" />
  <sodipodi:namedview
     id="base"
     pagecolor="#ffffff"
     bordercolor="#666666"
     borderopacity="1.0"
     inkscape:pageopacity="0.0"
     inkscape:pageshadow="2"
     inkscape:zoom="0.35"
     inkscape:cx="19.20731"
     inkscape:cy="33.20569"
     inkscape:document-units="px"
     inkscape:current-layer="layer1"
     showgrid="false"
     inkscape:window-width="1276"
     inkscape:window-height="775"
     inkscape:window-x="0"
     inkscape:window-y="21"
     inkscape:window-maximized="1"
     fit-margin-top="0"
     fit-margin-left="0"
     fit-margin-right="0"
     fit-margin-bottom="0" />
  <metadata
     id="metadata3335">
    <rdf:RDF>
      <cc:Work
         rdf:about="">
        <dc:format>image/svg+xml</dc:format>
        <dc:type
           rdf:resource="http://purl.org/dc/dcmitype/StillImage" />
        <dc:title />
      </cc:Work>
    </rdf:RDF>
  </metadata>
  <g
     inkscape:label="Layer 1"
     inkscape:groupmode="layer"
     id="layer1"
     transform="translate(-355.79269,-392.68689)">
    <path
       style="fill:#000000"
       d="m 355.79299,561.95092 0,-3.61609 3.61611,0 3.61614,0 0,3.61609 0,3.61609 -0.69541,0 -0.69542,0 0,-2.92781 0,-2.92806 -0.73017,0.0417 -0.73016,0.0417 -0.0396,1.42551 -0.0396,1.42576 -0.69058,0 -0.69052,0 0,-1.46039 0,-1.46038 -0.69541,0 -0.69542,0 0,2.92077 0,2.92078 -0.76494,0 -0.76495,0 0,-3.61635 z m 8.76215,1.46039 0,-2.1557 1.39083,0 1.3908,0 0,-0.76508 0,-0.76481 -1.3908,0 -1.39083,0 0,-0.69532 0,-0.69557 2.15577,0 2.15578,0 0,3.61609 0,3.61609 -2.15578,0 -2.15577,0 0,-2.1557 z m 2.78163,-0.0703 0,-0.69531 -0.69541,0 -0.69539,0 0,0.69531 0,0.69557 0.69539,0 0.69541,0 0,-0.69557 z m 2.92073,-1.39088 0,-3.61609 0.76494,0 0.76495,0 0,3.61609 0,3.61635 -0.76495,0 -0.76494,0 0,-3.61635 z m 2.92072,2.85127 0,-0.76482 0.77258,0 0.77254,0 -0.0424,-0.66068 -0.0424,-0.66069 -0.73019,-0.0417 -0.73017,-0.0417 0,-2.14841 0,-2.14841 1.46036,0 1.46036,0 0,0.69531 0,0.69532 -0.69541,0 -0.69542,0 0,0.76507 0,0.76482 0.69542,0 0.69541,0 0,2.15596 0,2.1557 -1.46036,0 -1.46036,0 0,-0.76508 z m 4.31153,-2.85127 0,-3.61609 2.22531,0 2.22531,0 0,3.61609 0,3.61635 -2.22531,0 -2.22531,0 0,-3.61635 z m 2.92073,-0.0703 0,-2.1557 -0.69542,0 -0.69539,0 0,2.1557 0,2.15596 0.69539,0 0.69542,0 0,-2.15596 z m 2.92072,0.0703 0,-3.61609 2.15575,0 2.15578,0 0,3.61609 0,3.61635 -0.69542,0 -0.69541,0 0,-2.92078 0,-2.92077 -0.69539,0 -0.69542,0 0,2.92077 0,2.92078 -0.76494,0 -0.76495,0 0,-3.61635 z m 9.45756,0 0,-3.61609 1.46037,0 1.46033,0 0,-1.46039 0,-1.46012 0.69542,0 0.69541,0 0,5.07647 0,5.07648 -2.15577,0 -2.15576,0 0,-3.61635 z m 2.9207,-0.0781 0,-2.16298 -0.73017,0.0417 -0.73016,0.0417 -0.0385,2.12108 -0.0385,2.12107 0.76859,0 0.76857,0 0,-2.16299 z m 2.92073,0.0781 0,-3.61609 0.69541,0 0.69542,0 0,2.85127 0,2.85127 0.69539,0 0.69541,0 0,-2.85127 0,-2.85127 0.76498,0 0.76494,0 0,3.61609 0,3.61635 -2.15578,0 -2.15577,0 0,-3.61635 z m 9.3185,2.85127 0,-0.76482 0.76494,0 0.76495,0 0,-0.69557 0,-0.69531 -0.76495,0 -0.76494,0 0,-2.1557 0,-2.15596 1.46033,0 1.46037,0 0,0.69557 0,0.69532 -0.69539,0 -0.69542,0 0,0.76507 0,0.76482 0.69542,0 0.69539,0 0,2.1557 0,2.15596 -1.46037,0 -1.46033,0 0,-0.76508 z m 4.45059,-2.85127 0,-3.61609 2.15578,0 2.15578,0 0,2.15596 0,2.1557 -1.46037,0 -1.46036,0 0,1.46039 0,1.46039 -0.69541,0 -0.69542,0 0,-3.61635 z m 2.78166,-1.46013 0,-0.76507 -0.69541,0 -0.69542,0 0,0.6724 c 0,0.36965 0.0416,0.71379 0.0927,0.76482 0.051,0.0495 0.36393,0.0937 0.69542,0.0937 l 0.60269,0 0,-0.76482 z m 2.9207,1.46013 0,-3.61609 2.15578,0 2.15578,0 0,2.15102 0,2.15101 -1.42561,0.039 -1.42559,0.0391 -0.0424,0.66042 -0.0424,0.66069 1.46799,0 1.46796,0 0,0.76482 0,0.76508 -2.15578,0 -2.15577,0 0,-3.61609 z m 2.85119,-1.46013 0,-0.69557 -0.69541,0 -0.69542,0 -0.044,0.53626 c -0.0693,0.84239 0.0208,0.94547 0.77281,0.89706 l 0.66204,-0.0417 0,-0.69531 z m 2.99026,1.46013 0,-3.61609 1.80804,0 1.80807,0 0,0.69557 0,0.69532 -1.11265,0 -1.11265,0 0,2.15569 0,2.15596 1.11265,0 1.11265,0 0,0.76482 0,0.76508 -1.80807,0 -1.80804,0 0,-3.61635 z m 4.86786,-1.46013 0,-5.07647 0.69054,0 0.69055,0 0.0396,1.4255 0.0396,1.42551 0.73017,0.0417 0.73017,0.0417 0,0.68099 0,0.68074 -0.73017,0.0417 -0.73017,0.0417 -0.0385,2.12108 -0.0385,2.12107 0.76857,0 0.76857,0 0,0.76482 0,0.76508 -1.46037,0 -1.46036,0 0,-5.07648 z m 4.17244,2.92052 0,-2.1557 1.46036,0 1.46036,0 0,-0.76482 0,-0.76507 -1.46036,0 -1.46036,0 0,-0.69532 0,-0.69557 2.15578,0 2.15575,0 0,3.61609 0,3.61635 -2.15575,0 -2.15578,0 0,-2.15596 z m 2.92072,-0.0703 0,-0.69531 -0.69541,0 -0.69539,0 0,0.69531 0,0.69557 0.69539,0 0.69541,0 0,-0.69557 z m 2.92073,-1.39062 0,-3.61635 1.80807,0 1.80804,0 0,0.68959 0,0.68984 -1.07787,0.0417 -1.07788,0.0417 -0.0385,2.12108 -0.0385,2.12082 1.11627,0 1.11627,0 0,0.76481 0,0.76508 -1.80804,0 -1.80807,0 0,-3.61609 z m 4.86785,-1.46039 0,-5.07648 0.76495,0 0.76495,0 0,4.3114 0,4.31166 0.69541,0 0.69542,0 0,0.76482 0,0.76508 -1.46036,0 -1.46037,0 0,-5.07648 z m 4.31153,1.46039 0,-3.61635 2.15578,0 2.15578,0 0,2.15596 0,2.1557 -1.46039,0 -1.46033,0 0,0.69531 0,0.69557 1.46033,0 1.46039,0 0,0.76482 0,0.76508 -2.15578,0 -2.15578,0 0,-3.61609 z m 2.78164,-1.46039 0,-0.76508 -0.69541,0 -0.69539,0 0,0.67241 c 0,0.36965 0.0417,0.71379 0.0927,0.76481 0.051,0.0495 0.36392,0.0937 0.69539,0.0937 l 0.60269,0 0,-0.76482 z m -80.52836,-4.38116 0,-0.69532 0.76494,0 0.76495,0 0,0.69532 0,0.69531 -0.76495,0 -0.76494,0 0,-0.69531 z m -14.46451,-18.01094 0,-13.56079 1.94716,0 1.94713,0 0,3.89437 0,3.89437 3.89429,0 3.89429,0 0,9.66616 0,9.66616 -5.84145,0 -5.84142,0 0,-13.56027 z m 7.78858,3.89411 0,-5.9108 -1.94716,0 -1.94713,0 0,5.9108 0,5.91106 1.94713,0 1.94716,0 0,-5.91106 z m 7.78858,0 0,-9.66616 5.84145,0 5.84142,0 0,5.77205 0,5.77179 -3.89429,0 -3.89429,0 0,2.01669 0,2.01669 3.89429,0 3.89429,0 0,1.87768 0,1.87742 -5.84142,0 -5.84145,0 0,-9.66616 z m 7.78858,-3.89411 0,-2.01669 -1.94713,0 -1.94716,0 0,2.01669 0,2.01669 1.94716,0 1.94713,0 0,-2.01669 z m 7.78858,0 0,-13.56079 1.94716,0 1.94714,0 0,11.68311 0,11.68285 1.94715,0 1.94714,0 0,1.87768 0,1.87742 -3.89429,0 -3.8943,0 0,-13.56027 z m 11.26564,0 0,-13.56079 1.94713,0 1.94716,0 0,11.68311 0,11.68285 1.94716,0 1.94713,0 0,1.87768 0,1.87742 -3.89429,0 -3.89429,0 0,-13.56027 z m 11.26563,3.89411 0,-9.66616 5.84142,0 5.84145,0 0,9.66616 0,9.66616 -5.84145,0 -5.84142,0 0,-9.66616 z m 7.78858,0 0,-5.9108 -1.94716,0 -1.94713,0 0,5.9108 0,5.91106 1.94713,0 1.94716,0 0,-5.91106 z m 7.78856,0 0,-9.66616 5.84145,0 5.84142,0 0,9.66616 0,9.66616 -1.94713,0 -1.94716,0 0,-7.78848 0,-7.78848 -1.94713,0 -1.94713,0 0,7.78848 0,7.78848 -1.94716,0 -1.94716,0 0,-9.66616 z m 15.57719,0 0,-9.66616 5.84142,0 5.84145,0 0,5.77205 0,5.77179 -3.89432,0 -3.89429,0 0,2.01669 0,2.01669 3.89429,0 3.89432,0 0,1.87768 0,1.87742 -5.84145,0 -5.84142,0 0,-9.66616 z m 7.78855,-3.89411 0,-2.01669 -1.94713,0 -1.94716,0 0,2.01669 0,2.01669 1.94716,0 1.94713,0 0,-2.01669 z m -92.62847,-65.8555 0,-48.26127 28.92852,0 28.92855,0 0.0351,19.29743 0.0351,19.29769 19.29761,0.0364 19.29761,0.0338 0,28.92876 0,28.92845 -48.26138,0 -48.26141,0 0,-48.2616 z m 77.1904,19.26287 0,-9.66621 -28.92899,0 -28.92905,0 0,9.66621 0,9.66615 28.92905,0 28.92899,0 0,-9.66615 z m -38.55949,-38.56056 0.0359,-9.63127 -9.66715,0 -9.66714,0 0,9.6672 0,9.6672 9.63143,-0.0365 9.6314,-0.0364 0.0359,-9.63154 z m 43.42735,-6.53582 0,-5.66662 -4.03336,4.03156 -4.03338,4.03155 -1.35516,-1.35522 -1.35515,-1.35521 4.03159,-4.03312 4.03158,-4.03338 -5.6667,0 -5.66667,0 0,-1.94563 0,-1.94562 5.57652,-0.0364 5.57653,-0.0365 -3.89731,-3.97506 -3.89729,-3.97481 1.34491,-1.34507 1.34491,-1.34481 3.99949,3.99772 3.99949,3.99745 0,-5.66661 0,-5.66662 1.8776,0 1.87762,0 0,5.63277 c 0,3.09806 0.0474,5.63278 0.10517,5.63278 0.0578,0 1.88778,-1.78344 4.06644,-3.96283 l 3.96122,-3.96335 1.35863,1.35365 1.3586,1.35366 -3.99857,4.00032 -3.99857,4.00032 5.66669,0 5.6667,0 0,1.94718 0,1.94719 -5.6667,0 -5.66669,0 3.99857,4.00032 3.99857,4.00031 -1.39254,1.38724 -1.39253,1.38724 -3.92912,-3.92717 c -2.16101,-2.16012 -3.97564,-3.92743 -4.03252,-3.92743 -0.057,0 -0.10335,2.50349 -0.10335,5.56328 l 0,5.56327 -1.8776,0 -1.8776,0 0,-5.66662 z m -82.05826,-40.09117 0,-13.63004 1.94716,0 1.94713,0 0,11.75236 0,11.75235 1.94713,0 1.94716,0 0,1.87768 0,1.87768 -3.89429,0 -3.89429,0 0,-13.63003 z m 11.40469,7.86032 0,-5.7697 3.85954,-0.0365 3.85951,-0.0364 0.0385,-1.98181 0.0385,-1.98207 -3.89809,0 -3.89812,0 0,-1.94718 0,-1.94693 5.77189,0 5.77189,0 0,9.73567 0,9.73566 -5.77189,0 -5.77189,0 0,-5.76971 z m 7.75766,-0.0417 0.0385,-1.98571 -1.98574,0.0391 -1.98579,0.039 -0.039,1.80063 c -0.0208,0.99025 -0.008,1.88393 0.032,1.98597 0.0555,0.14578 0.49245,0.17702 1.98626,0.14578 l 1.91524,-0.039 0.0385,-1.98597 z"
       id="path3097"
       inkscape:connector-curvature="0" />
  </g>
</svg>
