<?xml version="1.0" encoding="UTF-8" standalone="no"?>
<!-- Created with Inkscape (http://www.inkscape.org/) -->

<svg
   xmlns:dc="http://purl.org/dc/elements/1.1/"
   xmlns:cc="http://creativecommons.org/ns#"
   xmlns:rdf="http://www.w3.org/1999/02/22-rdf-syntax-ns#"
   xmlns:svg="http://www.w3.org/2000/svg"
   xmlns="http://www.w3.org/2000/svg"
   xmlns:sodipodi="http://sodipodi.sourceforge.net/DTD/sodipodi-0.dtd"
   xmlns:inkscape="http://www.inkscape.org/namespaces/inkscape"
   width="38.41444"
   height="66.411217"
   id="svg3330"
   version="1.1"
   inkscape:version="0.48.4 r9939"
   sodipodi:docname="bellone.svg">
  <defs
     id="defs3332" />
  <sodipodi:namedview
     id="base"
     pagecolor="#ffffff"
     bordercolor="#666666"
     borderopacity="1.0"
     inkscape:pageopacity="0.0"
     inkscape:pageshadow="2"
     inkscape:zoom="0.35"
     inkscape:cx="19.20722"
     inkscape:cy="33.205607"
     inkscape:document-units="px"
     inkscape:current-layer="layer1"
     showgrid="false"
     inkscape:window-width="646"
     inkscape:window-height="460"
     inkscape:window-x="0"
     inkscape:window-y="21"
     inkscape:window-maximized="0"
     fit-margin-top="0"
     fit-margin-left="0"
     fit-margin-right="0"
     fit-margin-bottom="0" />
  <metadata
     id="metadata3335">
    <rdf:RDF>
      <cc:Work
         rdf:about="">
        <dc:format>image/svg+xml</dc:format>
        <dc:type
           rdf:resource="http://purl.org/dc/dcmitype/StillImage" />
        <dc:title />
      </cc:Work>
    </rdf:RDF>
  </metadata>
  <g
     inkscape:label="Layer 1"
     inkscape:groupmode="layer"
     id="layer1"
     transform="translate(-355.79278,-499.15657)">
    <path
       style="fill:#000000"
       d="m 355.79286,564.17839 0,-1.3891 1.38911,0 1.38912,0 0,1.3891 0,1.3891 -0.26714,0 -0.26714,0 0,-1.1247 0,-1.1248 -0.28049,0.016 -0.28049,0.016 -0.0152,0.5476 -0.0152,0.5477 -0.26528,0 -0.26526,0 0,-0.561 0,-0.561 -0.26714,0 -0.26714,0 0,1.122 0,1.122 -0.29385,0 -0.29385,0 0,-1.3892 z m 3.36593,0.561 0,-0.8281 0.53428,0 0.53427,0 0,-0.2939 0,-0.2938 -0.53427,0 -0.53428,0 0,-0.2671 0,-0.2672 0.82813,0 0.82813,0 0,1.3891 0,1.3891 -0.82813,0 -0.82813,0 0,-0.8281 z m 1.06855,-0.027 0,-0.2671 -0.26714,0 -0.26713,0 0,0.2671 0,0.2672 0.26713,0 0.26714,0 0,-0.2672 z m 1.12198,-0.5343 0,-1.3891 0.29385,0 0.29385,0 0,1.3891 0,1.3892 -0.29385,0 -0.29385,0 0,-1.3892 z m 1.12198,1.0953 0,-0.2938 0.29678,0 0.29677,0 -0.0163,-0.2538 -0.0163,-0.2538 -0.2805,-0.016 -0.28049,-0.016 0,-0.8253 0,-0.8253 0.56099,0 0.56099,0 0,0.2671 0,0.2671 -0.26714,0 -0.26714,0 0,0.2939 0,0.2938 0.26714,0 0.26714,0 0,0.8282 0,0.8281 -0.56099,0 -0.56099,0 0,-0.2939 z m 1.65625,-1.0953 0,-1.3891 0.85484,0 0.85484,0 0,1.3891 0,1.3892 -0.85484,0 -0.85484,0 0,-1.3892 z m 1.12198,-0.027 0,-0.8281 -0.26714,0 -0.26713,0 0,0.8281 0,0.8282 0.26713,0 0.26714,0 0,-0.8282 z m 1.12198,0.027 0,-1.3891 0.82812,0 0.82813,0 0,1.3891 0,1.3892 -0.26714,0 -0.26714,0 0,-1.122 0,-1.122 -0.26713,0 -0.26714,0 0,1.122 0,1.122 -0.29385,0 -0.29385,0 0,-1.3892 z m 3.63307,0 0,-1.3891 0.56099,0 0.56098,0 0,-0.561 0,-0.5609 0.26714,0 0.26714,0 0,1.9501 0,1.9501 -0.82813,0 -0.82812,0 0,-1.3892 z m 1.12197,-0.03 0,-0.8309 -0.28049,0.016 -0.28049,0.016 -0.0148,0.8148 -0.0148,0.8148 0.29525,0 0.29524,0 0,-0.8309 z m 1.12198,0.03 0,-1.3891 0.26714,0 0.26714,0 0,1.0953 0,1.0953 0.26713,0 0.26714,0 0,-1.0953 0,-1.0953 0.29386,0 0.29385,0 0,1.3891 0,1.3892 -0.82813,0 -0.82813,0 0,-1.3892 z m 3.57965,1.0953 0,-0.2938 0.29385,0 0.29385,0 0,-0.2672 0,-0.2671 -0.29385,0 -0.29385,0 0,-0.8281 0,-0.8282 0.56098,0 0.56099,0 0,0.2672 0,0.2671 -0.26713,0 -0.26714,0 0,0.2939 0,0.2938 0.26714,0 0.26713,0 0,0.8281 0,0.8282 -0.56099,0 -0.56098,0 0,-0.2939 z m 1.70967,-1.0953 0,-1.3891 0.82813,0 0.82813,0 0,0.8282 0,0.8281 -0.56099,0 -0.56099,0 0,0.561 0,0.561 -0.26714,0 -0.26714,0 0,-1.3892 z m 1.06856,-0.5609 0,-0.2939 -0.26714,0 -0.26714,0 0,0.2583 c 0,0.142 0.016,0.2742 0.0356,0.2938 0.0196,0.019 0.1398,0.036 0.26714,0.036 l 0.23152,0 0,-0.2938 z m 1.12197,0.5609 0,-1.3891 0.82813,0 0.82813,0 0,0.8263 0,0.8263 -0.54764,0.015 -0.54763,0.015 -0.0163,0.2537 -0.0163,0.2538 0.56392,0 0.56391,0 0,0.2938 0,0.2939 -0.82813,0 -0.82813,0 0,-1.3891 z m 1.09527,-0.5609 0,-0.2672 -0.26714,0 -0.26714,0 -0.0169,0.206 c -0.0266,0.3236 0.008,0.3632 0.29687,0.3446 l 0.25432,-0.016 0,-0.2671 z m 1.14869,0.5609 0,-1.3891 0.69455,0 0.69456,0 0,0.2672 0,0.2671 -0.42742,0 -0.42742,0 0,0.8281 0,0.8282 0.42742,0 0.42742,0 0,0.2938 0,0.2939 -0.69456,0 -0.69455,0 0,-1.3892 z m 1.86996,-0.5609 0,-1.9501 0.26527,0 0.26527,0 0.0152,0.5476 0.0152,0.5476 0.28049,0.016 0.28049,0.016 0,0.2616 0,0.2615 -0.28049,0.016 -0.28049,0.016 -0.0148,0.8148 -0.0148,0.8148 0.29524,0 0.29524,0 0,0.2938 0,0.2939 -0.56099,0 -0.56099,0 0,-1.9501 z m 1.60282,1.1219 0,-0.8281 0.56099,0 0.56099,0 0,-0.2938 0,-0.2939 -0.56099,0 -0.56099,0 0,-0.2671 0,-0.2672 0.82813,0 0.82812,0 0,1.3891 0,1.3892 -0.82812,0 -0.82813,0 0,-0.8282 z m 1.12198,-0.027 0,-0.2671 -0.26714,0 -0.26713,0 0,0.2671 0,0.2672 0.26713,0 0.26714,0 0,-0.2672 z m 1.12198,-0.5342 0,-1.3892 0.69456,0 0.69455,0 0,0.2649 0,0.265 -0.41406,0.016 -0.41406,0.016 -0.0148,0.8148 -0.0148,0.8147 0.42881,0 0.42881,0 0,0.2938 0,0.2939 -0.69455,0 -0.69456,0 0,-1.3891 z m 1.86996,-0.561 0,-1.9501 0.29385,0 0.29385,0 0,1.6562 0,1.6563 0.26714,0 0.26714,0 0,0.2938 0,0.2939 -0.56099,0 -0.56099,0 0,-1.9501 z m 1.65625,0.561 0,-1.3892 0.82813,0 0.82813,0 0,0.8282 0,0.8281 -0.561,0 -0.56098,0 0,0.2671 0,0.2672 0.56098,0 0.561,0 0,0.2938 0,0.2939 -0.82813,0 -0.82813,0 0,-1.3891 z m 1.06855,-0.561 0,-0.2939 -0.26714,0 -0.26713,0 0,0.2583 c 0,0.142 0.016,0.2742 0.0356,0.2938 0.0196,0.019 0.1398,0.036 0.26713,0.036 l 0.23152,0 0,-0.2938 z m -30.93452,-1.683 0,-0.2671 0.29385,0 0.29385,0 0,0.2671 0,0.2671 -0.29385,0 -0.29385,0 0,-0.2671 z m -5.55646,-6.9188 0,-5.2093 0.74799,0 0.74798,0 0,1.496 0,1.496 1.49597,0 1.49597,0 0,3.7132 0,3.7132 -2.24396,0 -2.24395,0 0,-5.2091 z m 2.99194,1.4959 0,-2.2706 -0.74799,0 -0.74798,0 0,2.2706 0,2.2707 0.74798,0 0.74799,0 0,-2.2707 z m 2.99194,0 0,-3.7132 2.24396,0 2.24395,0 0,2.2173 0,2.2172 -1.49597,0 -1.49597,0 0,0.7747 0,0.7747 1.49597,0 1.49597,0 0,0.7213 0,0.7212 -2.24395,0 -2.24396,0 0,-3.7132 z m 2.99194,-1.4959 0,-0.7747 -0.74798,0 -0.74799,0 0,0.7747 0,0.7747 0.74799,0 0.74798,0 0,-0.7747 z m 2.99194,0 0,-5.2093 0.74799,0 0.74798,0 0,4.488 0,4.4879 0.74799,0 0.74798,0 0,0.7213 0,0.7212 -1.49597,0 -1.49597,0 0,-5.2091 z m 4.32763,0 0,-5.2093 0.74798,0 0.74799,0 0,4.488 0,4.4879 0.74799,0 0.74798,0 0,0.7213 0,0.7212 -1.49597,0 -1.49597,0 0,-5.2091 z m 4.32763,1.4959 0,-3.7132 2.24395,0 2.24396,0 0,3.7132 0,3.7132 -2.24396,0 -2.24395,0 0,-3.7132 z m 2.99194,0 0,-2.2706 -0.74799,0 -0.74798,0 0,2.2706 0,2.2707 0.74798,0 0.74799,0 0,-2.2707 z m 2.99193,0 0,-3.7132 2.24396,0 2.24395,0 0,3.7132 0,3.7132 -0.74798,0 -0.74799,0 0,-2.9919 0,-2.9919 -0.74798,0 -0.74798,0 0,2.9919 0,2.9919 -0.74799,0 -0.74799,0 0,-3.7132 z m 5.98389,0 0,-3.7132 2.24395,0 2.24396,0 0,2.2173 0,2.2172 -1.49598,0 -1.49597,0 0,0.7747 0,0.7747 1.49597,0 1.49598,0 0,0.7213 0,0.7212 -2.24396,0 -2.24395,0 0,-3.7132 z m 2.99193,-1.4959 0,-0.7747 -0.74798,0 -0.74799,0 0,0.7747 0,0.7747 0.74799,0 0.74798,0 0,-0.7747 z m -35.58271,-25.29802 0,-18.5393 11.11273,0 11.11274,0 0.0135,7.413 0.0135,7.4131 7.41307,0.014 7.41307,0.013 0,11.11282 0,11.1127 -18.53934,0 -18.53935,0 0,-18.53942 z m 29.65226,7.39972 0,-3.71322 -11.11291,0 -11.11293,0 0,3.71322 0,3.7132 11.11293,0 11.11291,0 0,-3.7132 z m -14.81241,-14.81282 0.0138,-3.6998 -3.71358,0 -3.71358,0 0,3.7136 0,3.7136 3.69986,-0.014 3.69985,-0.014 0.0138,-3.6999 z m 16.68237,-2.5107 0,-2.1768 -1.54939,1.5487 -1.5494,1.5487 -0.52058,-0.5206 -0.52057,-0.5206 1.54871,-1.5493 1.54871,-1.5494 -2.17683,0 -2.17682,0 0,-0.7474 0,-0.7474 2.14219,-0.014 2.14219,-0.014 -1.49713,-1.527 -1.49712,-1.5269 0.51664,-0.5167 0.51664,-0.5166 1.53638,1.5357 1.53638,1.5356 0,-2.1768 0,-2.1768 0.72127,0 0.72128,0 0,2.1638 c 0,1.1901 0.0182,2.1638 0.0404,2.1638 0.0222,0 0.72518,-0.6851 1.5621,-1.5223 l 1.52168,-1.5225 0.52191,0.52 0.5219,0.52 -1.53603,1.5367 -1.53603,1.5367 2.17683,0 2.17683,0 0,0.748 0,0.748 -2.17683,0 -2.17683,0 1.53603,1.5367 1.53603,1.5367 -0.53494,0.5329 -0.53493,0.5329 -1.50935,-1.5086 c -0.83014,-0.8298 -1.52722,-1.5087 -1.54907,-1.5087 -0.0219,0 -0.0397,0.9617 -0.0397,2.1371 l 0,2.1371 -0.72127,0 -0.72127,0 0,-2.1768 z m -31.52222,-15.4008 0,-5.2359 0.74799,0 0.74798,0 0,4.5146 0,4.5146 0.74798,0 0.74799,0 0,0.7213 0,0.7213 -1.49597,0 -1.49597,0 0,-5.2359 z m 4.38105,3.0195 0,-2.2164 1.48262,-0.014 1.48261,-0.014 0.0148,-0.7613 0.0148,-0.7614 -1.49743,0 -1.49744,0 0,-0.748 0,-0.7479 2.21724,0 2.21724,0 0,3.7399 0,3.7399 -2.21724,0 -2.21724,0 0,-2.2164 z m 2.98006,-0.016 0.0148,-0.7628 -0.76281,0.015 -0.76283,0.015 -0.015,0.6917 c -0.008,0.3804 -0.003,0.7237 0.0123,0.7629 0.0213,0.056 0.18917,0.068 0.76301,0.056 l 0.73573,-0.015 0.0148,-0.7629 z"
       id="path3097"
       inkscape:connector-curvature="0" />
  </g>
</svg>
