<?xml version="1.0" encoding="UTF-8" standalone="no"?>
<!-- Created with Inkscape (http://www.inkscape.org/) -->

<svg
   xmlns:dc="http://purl.org/dc/elements/1.1/"
   xmlns:cc="http://creativecommons.org/ns#"
   xmlns:rdf="http://www.w3.org/1999/02/22-rdf-syntax-ns#"
   xmlns:svg="http://www.w3.org/2000/svg"
   xmlns="http://www.w3.org/2000/svg"
   version="1.1"
   width="95"
   height="40"
   id="svg3600">
  <defs
     id="defs3602" />
  <metadata
     id="metadata3605">
    <rdf:RDF>
      <cc:Work
         rdf:about="">
        <dc:format>image/svg+xml</dc:format>
        <dc:type
           rdf:resource="http://purl.org/dc/dcmitype/StillImage" />
        <dc:title></dc:title>
      </cc:Work>
    </rdf:RDF>
  </metadata>
  <g
     transform="translate(-359.52677,-413.06651)"
     id="layer1">
    <path
       d="m 364.89548,441.44664 -1.5834,-1.5837 3.1442,-3.1441 c 1.7293,-1.7293 3.144,-3.1565 3.144,-3.1713 0,-0.015 -1.4113,-1.4383 -3.1364,-3.1632 -1.7251,-1.7248 -3.1366,-3.1447 -3.1366,-3.1554 0,-0.013 0.7091,-0.7286 1.5758,-1.5954 l 1.5759,-1.5761 3.1597,3.1596 3.1597,3.1595 3.1596,-3.1595 3.1595,-3.1596 1.5836,1.5837 1.5836,1.5838 -3.1596,3.1595 -3.1595,3.1594 3.1595,3.1596 3.1596,3.1597 -1.5856,1.5855 -1.5854,1.5856 -3.1594,-3.1598 -3.1595,-3.1596 -3.1579,3.1577 -3.1579,3.158 -1.5835,-1.5837 z m 27.2722,1.4456 c -1.0467,-0.1985 -1.7577,-0.8703 -2.0179,-1.9067 -0.047,-0.1869 -0.055,-0.3733 -0.055,-1.4145 -3e-4,-1.0636 0.013,-1.2272 0.057,-1.4453 0.077,-0.3303 0.1503,-0.5096 0.32,-0.7842 0.44,-0.7121 1.1491,-1.1127 2.0547,-1.1604 0.5175,-0.028 0.999,0.116 1.3733,0.4106 l 0.1768,0.1389 0,-1.3242 0,-1.3244 0.7073,0 0.7072,0 0,4.3666 0,4.3665 -0.7072,0 -0.7073,0 0,-0.2259 0,-0.226 -0.1307,0.1213 c -0.3846,0.3569 -1.1373,0.5294 -1.7791,0.4077 z m 0.9371,-1.3842 c 0.531,-0.1384 0.8515,-0.4563 0.9415,-0.9342 0.052,-0.2734 0.039,-1.8878 -0.016,-2.1226 -0.1464,-0.621 -0.6032,-0.9249 -1.3324,-0.8868 -0.5863,0.031 -0.9402,0.2696 -1.121,0.7571 -0.059,0.158 -0.067,0.2532 -0.076,1.0858 -0.015,1.2038 0.031,1.4802 0.2955,1.7823 0.108,0.1226 0.3973,0.2881 0.5782,0.3305 0.1885,0.044 0.5361,0.039 0.7303,-0.013 z m 5.3739,1.3673 c -0.5149,-0.112 -0.8554,-0.2915 -1.1417,-0.603 -0.5142,-0.5592 -0.6136,-1.484 -0.2419,-2.2524 0.1455,-0.3005 0.4545,-0.6345 0.7361,-0.7951 0.4727,-0.2702 1.2196,-0.4148 2.8223,-0.5468 l 0.2572,-0.021 -0.019,-0.1186 c -0.073,-0.4569 -0.3739,-0.8056 -0.8107,-0.9395 -0.1954,-0.06 -0.6856,-0.056 -0.8993,0.013 -0.3508,0.104 -0.5977,0.3323 -0.7333,0.6779 l -0.059,0.1493 -0.7108,0.013 -0.7109,0.013 3e-4,-0.071 c 0,-0.039 0.028,-0.1844 0.061,-0.3237 0.2329,-0.9714 0.8587,-1.5706 1.8916,-1.8111 0.3635,-0.084 1.1298,-0.077 1.4997,0.013 0.9904,0.2451 1.6179,0.8689 1.8589,1.8483 0.043,0.1744 0.051,0.5106 0.061,2.4545 l 0.013,2.2524 -0.7089,0 -0.7085,0 0,-0.2467 0,-0.2467 -0.1615,0.128 c -0.3802,0.3028 -0.8808,0.455 -1.5606,0.4746 -0.3676,0.013 -0.4965,0 -0.7339,-0.049 z m 1.5889,-1.4128 c 0.2557,-0.091 0.4511,-0.2258 0.6109,-0.4228 0.1642,-0.2023 0.2253,-0.4 0.2475,-0.802 l 0.017,-0.3172 -0.1814,0.019 c -0.1,0.013 -0.3958,0.039 -0.658,0.064 -1.3945,0.1355 -1.8142,0.3368 -1.8142,0.8702 0,0.2582 0.1026,0.4529 0.2921,0.551 0.2049,0.1067 0.3613,0.128 0.8303,0.1173 0.38,-0.013 0.4954,-0.023 0.655,-0.079 z m 12.8904,1.4458 c -1.3032,-0.1691 -2.1171,-0.9167 -2.2333,-2.0511 l -0.02,-0.1946 0.7263,0 0.7263,0 0.019,0.084 c 0.1093,0.5119 0.5858,0.8067 1.3113,0.8106 0.4889,0 0.7408,-0.077 0.8937,-0.284 0.116,-0.1561 0.1214,-0.4265 0.013,-0.5927 -0.084,-0.1293 -0.4048,-0.2519 -1.1272,-0.4332 -1.3183,-0.3306 -1.5487,-0.4271 -1.8975,-0.795 -0.3767,-0.397 -0.5229,-0.8279 -0.4923,-1.4502 0.027,-0.5282 0.163,-0.8438 0.5271,-1.2148 0.2186,-0.2229 0.6119,-0.4274 1.017,-0.5289 0.2353,-0.059 0.3572,-0.069 0.8149,-0.068 0.6442,0 0.9256,0.057 1.3837,0.2801 0.5114,0.2481 0.8271,0.6334 0.9957,1.2148 0.043,0.1459 0.087,0.3496 0.097,0.4528 l 0.021,0.1874 -0.7343,0 -0.7342,0 -0.055,-0.1765 c -0.088,-0.28 -0.2603,-0.4363 -0.6002,-0.5455 -0.2474,-0.08 -0.7969,-0.056 -0.9989,0.043 -0.2739,0.1338 -0.3901,0.4475 -0.2589,0.698 0.075,0.1433 0.3177,0.2355 1.2464,0.473 0.4533,0.116 0.9361,0.2539 1.073,0.3067 0.4807,0.1853 0.8389,0.4806 1.0191,0.8397 0.1623,0.3233 0.2049,0.5382 0.2032,1.0225 0,0.3807 -0.013,0.4556 -0.08,0.6488 -0.218,0.6092 -0.753,1.0451 -1.4879,1.2127 -0.312,0.071 -1.0394,0.104 -1.3671,0.061 z m 6.5958,0 c -0.2829,-0.044 -0.6325,-0.1387 -0.801,-0.2162 -0.6982,-0.3208 -1.1736,-0.9027 -1.358,-1.6624 -0.048,-0.1993 -0.055,-0.3794 -0.055,-1.5026 0,-1.22 0.013,-1.2866 0.069,-1.5183 0.096,-0.3415 0.255,-0.6561 0.4648,-0.9171 0.2071,-0.258 0.2393,-0.2865 0.5474,-0.4876 0.6522,-0.4258 1.6268,-0.5431 2.5235,-0.3038 0.7848,0.2094 1.4044,0.7978 1.6497,1.5663 0.1067,0.3364 0.1409,0.6953 0.1412,1.4992 l 0,0.7149 -1.9988,0 -1.9987,0 0,0.1922 c 0,0.3926 0.1501,0.7938 0.3654,0.983 0.059,0.052 0.1984,0.1375 0.3092,0.1901 0.1942,0.092 0.2158,0.096 0.6163,0.096 0.3853,0 0.4278,0 0.5896,-0.081 0.096,-0.045 0.2375,-0.1399 0.3145,-0.2108 0.1294,-0.1187 0.3261,-0.4466 0.3261,-0.5426 0,-0.033 0.1395,-0.041 0.7253,-0.041 l 0.7252,0 -0.02,0.1306 c -0.1718,1.1094 -0.8581,1.8316 -1.9685,2.0714 -0.2651,0.057 -0.9195,0.08 -1.1684,0.041 z m 1.7529,-4.1252 c 0.029,-0.033 -0.063,-0.4408 -0.1351,-0.5961 -0.112,-0.2402 -0.2553,-0.3813 -0.5161,-0.5097 -0.1939,-0.096 -0.2335,-0.104 -0.5684,-0.1133 -0.3079,-0.013 -0.3896,0 -0.5636,0.057 -0.4582,0.1524 -0.7123,0.4825 -0.7737,1.0046 -0.017,0.1499 -0.015,0.1593 0.055,0.169 0.089,0.013 2.4907,0 2.5024,-0.013 z m 5.0122,4.1247 c -1.2531,-0.1685 -2.0732,-0.9367 -2.1872,-2.0483 l -0.02,-0.1945 0.7247,0 0.7247,0 0.047,0.1633 c 0.093,0.3189 0.2777,0.497 0.6642,0.6394 0.1766,0.065 0.2516,0.073 0.6456,0.073 0.5069,0 0.6593,-0.039 0.8229,-0.208 0.1622,-0.1678 0.186,-0.4554 0.055,-0.6566 -0.087,-0.132 -0.3934,-0.245 -1.246,-0.4589 -1.1482,-0.2879 -1.4507,-0.4175 -1.7903,-0.7669 -0.4123,-0.4241 -0.5899,-1.1958 -0.4243,-1.843 0.085,-0.3331 0.1942,-0.52 0.4611,-0.7901 0.272,-0.2751 0.5857,-0.4442 1.031,-0.5555 0.2369,-0.059 0.3563,-0.069 0.8301,-0.068 0.4988,0 0.5832,0.013 0.8526,0.081 0.4029,0.108 0.7561,0.297 1.0167,0.543 0.1698,0.1601 0.2373,0.2534 0.3488,0.4826 0.1319,0.2701 0.2559,0.7269 0.2569,0.9423 l 0,0.084 -0.7341,0 -0.7342,0 -0.019,-0.089 c -0.089,-0.4446 -0.4732,-0.6843 -1.0967,-0.6846 -0.53,0 -0.8343,0.2017 -0.8397,0.5564 -0.013,0.3306 0.1527,0.4174 1.2855,0.7072 1.1901,0.3045 1.4941,0.4333 1.8322,0.7767 0.3084,0.3133 0.4523,0.6947 0.4795,1.2711 0.029,0.6276 -0.1159,1.0348 -0.5123,1.43 -0.4242,0.4231 -0.9588,0.6123 -1.7839,0.6312 -0.2623,0 -0.5736,0 -0.692,-0.019 z m -22.4247,-3.3268 0.013,-3.2365 0.7041,0 0.7044,0 0,0.1923 c 0,0.1053 0.013,0.1921 0.015,0.1921 0.013,0 0.065,-0.047 0.128,-0.104 0.767,-0.693 2.3019,-0.5566 3.1127,0.2766 0.4722,0.4852 0.6717,0.9578 0.732,1.734 0.017,0.2114 0.029,1.2389 0.029,2.2832 l 0,1.8988 -0.7209,0 -0.7207,0 -0.013,-2.1909 -0.013,-2.191 -0.071,-0.1735 c -0.1949,-0.4823 -0.6734,-0.7329 -1.3275,-0.6957 -0.5716,0.032 -0.9949,0.363 -1.1072,0.8639 -0.019,0.084 -0.032,0.961 -0.033,2.2624 l 0,2.1248 -0.7217,0 -0.7216,0 0.013,-3.2364 z m -11.5235,-8.7282 c -1.1757,-0.1399 -1.9794,-0.8357 -2.2216,-1.924 -0.045,-0.2067 -0.055,-0.4116 -0.055,-1.4403 0,-1.0509 0.013,-1.2287 0.056,-1.4373 0.2032,-0.8653 0.7493,-1.4854 1.5475,-1.7569 0.5604,-0.1906 1.343,-0.2242 1.9144,-0.082 0.8341,0.2074 1.4644,0.7656 1.7277,1.5305 0.049,0.1422 0.1506,0.6493 0.1512,0.7542 0,0.013 -0.3228,0.023 -0.7174,0.023 l -0.7177,0 -0.051,-0.1768 c -0.112,-0.3981 -0.3692,-0.6704 -0.7507,-0.7942 -0.232,-0.075 -0.6936,-0.078 -0.9325,-0.01 -0.3611,0.1097 -0.6487,0.396 -0.7606,0.7573 -0.047,0.1498 -0.053,0.3106 -0.053,1.203 0,1.0089 0,1.0346 0.075,1.2455 0.06,0.176 0.108,0.2493 0.2613,0.4023 0.2422,0.2423 0.4427,0.3239 0.8452,0.3441 0.7102,0.036 1.1666,-0.2511 1.3261,-0.8341 l 0.052,-0.1891 0.7148,-0.013 0.7148,-0.013 -0.021,0.162 c -0.089,0.6855 -0.308,1.1484 -0.7354,1.5544 -0.3882,0.3689 -0.8738,0.5872 -1.4868,0.6688 -0.3613,0.048 -0.5558,0.051 -0.8839,0.013 z m 12.914,-0.013 c -1.046,-0.1627 -1.6803,-0.8126 -1.7282,-1.7712 -0.033,-0.6602 0.1533,-1.1785 0.5756,-1.6007 0.1841,-0.1841 0.2929,-0.2633 0.495,-0.3607 0.4999,-0.2405 1.2944,-0.3847 2.6687,-0.4847 l 0.2881,-0.021 -0.019,-0.1418 c -0.025,-0.1932 -0.186,-0.5094 -0.3272,-0.6465 -0.4458,-0.4326 -1.3684,-0.4444 -1.8343,-0.024 -0.1107,0.1 -0.2372,0.3086 -0.314,0.5167 l -0.029,0.081 -0.6943,0.01 c -0.6221,0 -0.6965,0 -0.7141,-0.046 -0.029,-0.075 0.1227,-0.6529 0.2307,-0.8797 0.429,-0.899 1.3805,-1.3913 2.5913,-1.3407 0.9681,0.04 1.6934,0.4132 2.1325,1.0957 0.1669,0.2595 0.25,0.4491 0.332,0.7574 0.064,0.2383 0.065,0.3171 0.076,2.5139 l 0.013,2.2677 -0.709,0 -0.7088,0 0,-0.2459 0,-0.2459 -0.1923,0.1416 c -0.337,0.2482 -0.6035,0.3502 -1.1145,0.4269 -0.3625,0.055 -0.6753,0.055 -1.0159,0 z m 1.2314,-1.3844 c 0.4254,-0.081 0.7491,-0.287 0.9253,-0.5877 0.096,-0.1638 0.1648,-0.4869 0.1656,-0.7771 l 0,-0.2261 -0.223,0.02 c -0.6872,0.061 -1.4177,0.1533 -1.6208,0.2048 -0.3493,0.088 -0.6024,0.2234 -0.702,0.3741 -0.072,0.1093 -0.084,0.1571 -0.084,0.3587 0,0.1889 0.013,0.254 0.071,0.3456 0.1384,0.2225 0.4309,0.3278 0.9189,0.331 0.1718,0 0.4188,-0.019 0.5487,-0.043 z m 20.0796,1.3809 c -1.1364,-0.1729 -1.8758,-0.8399 -2.1287,-1.9201 -0.035,-0.1487 -0.049,-0.4572 -0.061,-1.208 -0.02,-1.3928 0.021,-1.7198 0.2883,-2.2667 0.1213,-0.2492 0.1839,-0.3328 0.4226,-0.5689 0.3117,-0.3082 0.5244,-0.4468 0.8762,-0.5713 0.5778,-0.2044 1.3767,-0.2371 1.9738,-0.081 0.9853,0.2579 1.6329,0.9607 1.7955,1.9489 0.039,0.2349 0.048,0.4736 0.04,1.071 l -0.013,0.7689 -1.991,0.013 -1.9912,0.013 0,0.1306 c 0,0.2245 0.08,0.5883 0.1618,0.747 0.196,0.3832 0.6001,0.5981 1.1244,0.5981 0.5957,0 1.0003,-0.2424 1.1928,-0.7144 l 0.065,-0.1621 0.7104,-0.013 c 0.8168,-0.013 0.7436,-0.047 0.664,0.3321 -0.1852,0.8803 -0.8018,1.5395 -1.6773,1.793 -0.4838,0.1403 -0.9594,0.1713 -1.459,0.096 z m 1.7988,-4.1891 c 0,-0.1378 -0.088,-0.4355 -0.1758,-0.5977 -0.4226,-0.7764 -1.8474,-0.7581 -2.2488,0.029 -0.067,0.1317 -0.112,0.2939 -0.1421,0.5086 l -0.02,0.146 1.2933,0 1.2934,0 0,-0.085 z m 12.2539,4.2071 c -1.1834,-0.1693 -1.9134,-0.7659 -2.2057,-1.8025 -0.067,-0.2338 -0.068,-0.293 -0.069,-1.5346 0,-1.4778 0.013,-1.5695 0.2463,-2.0392 0.2507,-0.4996 0.5879,-0.8345 1.0766,-1.0693 0.3961,-0.1902 0.7072,-0.2601 1.244,-0.2795 0.498,-0.018 0.8714,0.038 1.2947,0.1953 0.7391,0.274 1.2866,0.9335 1.4633,1.7627 0.048,0.2256 0.055,0.4176 0.055,1.3992 0,0.844 -0.013,1.1933 -0.043,1.353 -0.2075,1.0513 -0.9263,1.7673 -1.9743,1.9669 -0.3173,0.06 -0.8411,0.084 -1.089,0.048 z m 0.974,-1.4453 c 0.2446,-0.096 0.4877,-0.3221 0.5873,-0.5445 0.1239,-0.2785 0.1542,-0.6142 0.1378,-1.5593 -0.013,-0.7432 -0.021,-0.8552 -0.08,-1.0334 -0.099,-0.3017 -0.2533,-0.4841 -0.5291,-0.6248 -0.7255,-0.3698 -1.6137,-0.1067 -1.8798,0.5571 -0.067,0.1678 -0.071,0.218 -0.081,1.1747 -0.013,0.6763 0,1.0586 0.025,1.1828 0.089,0.4604 0.3705,0.7646 0.8263,0.8962 0.2229,0.064 0.775,0.037 0.9926,-0.049 z m -44.7775,-3.0142 0,-4.3665 0.7072,0 0.7073,0 0,1.324 0,1.3241 0.1461,-0.1201 c 0.1961,-0.1612 0.3181,-0.2297 0.5919,-0.3325 0.2168,-0.081 0.2591,-0.086 0.7073,-0.086 0.4297,0 0.5033,0.01 0.7475,0.084 0.917,0.2814 1.5005,0.9081 1.7342,1.8626 0.043,0.1752 0.052,0.5114 0.061,2.4402 l 0.013,2.237 -0.7073,0 -0.7075,0 -0.013,-2.1448 c -0.013,-2.0836 -0.013,-2.1501 -0.075,-2.3341 -0.1866,-0.5478 -0.6137,-0.8016 -1.301,-0.7733 -0.2887,0.012 -0.3512,0.025 -0.5486,0.1161 -0.3499,0.1613 -0.532,0.3958 -0.6177,0.7951 -0.024,0.1115 -0.035,0.8141 -0.035,2.2515 l 0,2.0895 -0.7071,0 -0.7074,0 0,-4.3664 z m 13.3148,3.6748 0,-0.6921 0.9994,0 0.9994,0 0,-1.8603 0,-1.8604 -0.6919,0 -0.6919,0 0,-0.6919 0,-0.6919 1.3991,0 1.3992,0 0,0.2537 c 0,0.2432 0,0.2511 0.055,0.1922 0.171,-0.1993 0.5139,-0.39 0.8603,-0.4787 0.2059,-0.053 0.3442,-0.059 1.2116,-0.059 l 0.9792,0 0,0.6741 0,0.6741 -1.0687,0.012 c -0.9977,0.011 -1.0803,0.016 -1.2448,0.077 -0.4714,0.175 -0.694,0.4674 -0.7607,0.9989 -0.017,0.1389 -0.032,0.8167 -0.032,1.5064 l 0,1.2538 1.246,0 1.246,0 -0.013,0.6842 -0.013,0.6842 -2.9443,0.013 -2.9443,0.013 0,-0.6921 z m 7.1648,0 0,-0.6919 1.1224,0 1.1224,0 0,-2.9982 0,-2.9981 -0.8149,0 -0.815,0 0,-0.6765 0,-0.6765 1.5223,0 1.5221,0 0,3.6746 0,3.6747 1.1224,0 1.1223,0 0,0.6919 0,0.6919 -2.952,0 -2.952,0 0,-0.6919 z m 13.5164,0.6639 c -0.013,-0.015 -0.013,-0.3232 -0.013,-0.6842 l 0.013,-0.6563 1.0071,-0.013 1.0071,-0.013 0,-1.8599 0,-1.86 -0.6886,0 c -0.5995,0 -0.691,-0.01 -0.7072,-0.049 -0.013,-0.027 -0.019,-0.3162 -0.019,-0.6432 0,-0.3271 0.013,-0.6165 0.019,-0.6433 0.017,-0.043 0.1701,-0.049 1.4145,-0.049 l 1.3958,0 0,0.2338 0,0.2339 0.1,-0.088 c 0.1757,-0.1539 0.4,-0.281 0.6531,-0.3701 l 0.246,-0.086 1.0378,-0.01 1.0378,-0.01 0,0.676 0,0.6759 -1.0685,0.011 c -1.0286,0.011 -1.0752,0.014 -1.2463,0.082 -0.3341,0.1327 -0.5875,0.3862 -0.6892,0.6895 -0.048,0.1414 -0.055,0.3293 -0.064,1.613 l -0.013,1.453 1.2315,0 1.2313,0 0,0.6918 0,0.6919 -2.9347,0 c -1.7223,0 -2.9419,-0.013 -2.9521,-0.028 z m 14.0971,-0.6639 0,-0.6919 1.1224,0 1.1224,0 0,-1.8604 0,-1.8604 -0.8148,0 -0.815,0 0,-0.6919 0,-0.6918 1.5222,0 1.5221,0 0,2.5522 0,2.5523 1.1224,0 1.1225,0 0,0.6919 0,0.6919 -2.9521,0 -2.9521,0 0,-0.6919 z m -74.3844,-7.8263 0,-2.2444 2.2448,0 2.2447,0 0,2.2444 0,2.2443 -2.2447,0 -2.2448,0 0,-2.2443 z m 76.5678,0.5231 0,-0.738 0.7379,0 0.738,0 0,0.738 0,0.738 -0.738,0 -0.7379,0 0,-0.738 z"
       id="path2999"
       style="fill:#000000;fill-opacity:1" />
  </g>
</svg>
