<?xml version="1.0" encoding="UTF-8" standalone="no"?>
<!-- Created with Inkscape (http://www.inkscape.org/) -->

<svg
   xmlns:dc="http://purl.org/dc/elements/1.1/"
   xmlns:cc="http://creativecommons.org/ns#"
   xmlns:rdf="http://www.w3.org/1999/02/22-rdf-syntax-ns#"
   xmlns:svg="http://www.w3.org/2000/svg"
   xmlns="http://www.w3.org/2000/svg"
   xmlns:sodipodi="http://sodipodi.sourceforge.net/DTD/sodipodi-0.dtd"
   xmlns:inkscape="http://www.inkscape.org/namespaces/inkscape"
   width="92.546227"
   height="38.569103"
   id="svg3171"
   version="1.1"
   inkscape:version="0.48.4 r9939"
   sodipodi:docname="cifas.svg">
  <defs
     id="defs3173" />
  <sodipodi:namedview
     id="base"
     pagecolor="#ffffff"
     bordercolor="#666666"
     borderopacity="1.0"
     inkscape:pageopacity="0.0"
     inkscape:pageshadow="2"
     inkscape:zoom="0.37734375"
     inkscape:cx="1.2731127"
     inkscape:cy="-189.28688"
     inkscape:document-units="px"
     inkscape:current-layer="layer1"
     showgrid="false"
     inkscape:window-width="476"
     inkscape:window-height="456"
     inkscape:window-x="0"
     inkscape:window-y="21"
     inkscape:window-maximized="0"
     fit-margin-top="0"
     fit-margin-left="0"
     fit-margin-right="0"
     fit-margin-bottom="0" />
  <metadata
     id="metadata3176">
    <rdf:RDF>
      <cc:Work
         rdf:about="">
        <dc:format>image/svg+xml</dc:format>
        <dc:type
           rdf:resource="http://purl.org/dc/dcmitype/StillImage" />
        <dc:title />
      </cc:Work>
    </rdf:RDF>
  </metadata>
  <g
     inkscape:label="Layer 1"
     inkscape:groupmode="layer"
     id="layer1"
     transform="translate(-373.72689,-304.5062)">
    <path
       style="fill:#00aa5a"
       d="m 431.15702,343.01951 c -0.0783,-0.1323 -0.59089,-1.803 -0.76376,-2.4893 -0.13682,-0.5432 -0.19961,-1.0265 -0.22737,-1.7502 -0.0507,-1.3216 0.0842,-2.057 0.78095,-4.258 l 0.21099,-0.6664 0.30787,-0.023 c 0.21737,-0.016 0.30787,0.01 0.30787,0.075 0,0.054 -0.0993,0.5473 -0.22064,1.0965 -0.58042,2.6271 -0.56098,4.6501 0.0707,7.3593 0.0825,0.3536 0.14993,0.6584 0.14993,0.6772 0,0.058 -0.58159,0.038 -0.61655,-0.021 z m 33.4958,-0.013 c 0,-0.037 0.0829,-0.4516 0.18427,-0.9204 0.57465,-2.6579 0.59069,-4.1962 0.0705,-6.7668 -0.14198,-0.7016 -0.27762,-1.3264 -0.30141,-1.3884 -0.0348,-0.091 0.0223,-0.1128 0.29285,-0.1128 l 0.33613,0 0.29628,0.9442 c 0.98693,3.145 0.98818,4.3712 0.008,7.3853 l -0.30161,0.9271 -0.29229,0 c -0.16077,0 -0.2923,-0.031 -0.2923,-0.068 z m -30.69471,-1.206 c -0.55981,-0.1957 -0.88373,-0.6208 -0.97382,-1.2782 l -0.047,-0.3429 0.5094,0.022 0.50941,0.022 0.0459,0.2839 c 0.026,0.161 0.13019,0.3681 0.24071,0.4787 0.16136,0.1613 0.26178,0.1946 0.58456,0.1939 0.49686,0 0.7669,-0.1723 0.88306,-0.56 0.1279,-0.4269 -0.0402,-0.6057 -1.08045,-1.1491 -1.29132,-0.6747 -1.58139,-1.0241 -1.50552,-1.8138 0.0247,-0.257 0.0996,-0.4455 0.25402,-0.6393 0.33695,-0.4228 0.69078,-0.5662 1.46837,-0.5951 0.61366,-0.023 0.69807,-0.01 1.06527,0.1848 0.45548,0.2394 0.67496,0.5672 0.67496,1.008 l 0,0.2824 -0.4584,-0.022 c -0.44656,-0.022 -0.45998,-0.028 -0.51928,-0.2581 -0.0897,-0.3478 -0.37774,-0.5415 -0.80543,-0.5415 -0.42094,0 -0.71076,0.2075 -0.77756,0.5566 -0.067,0.3499 0.18044,0.5858 1.05185,1.0029 0.83514,0.3999 1.3256,0.7833 1.48311,1.1596 0.19133,0.457 0.0715,1.2353 -0.24495,1.5913 -0.0751,0.084 -0.30325,0.232 -0.50689,0.3277 -0.30189,0.1418 -0.4865,0.1729 -0.99971,0.1687 -0.34619,0 -0.72941,-0.04 -0.8516,-0.083 z m 4.70355,-0.048 c -0.32255,-0.173 -0.51081,-0.4236 -0.59679,-0.7943 -0.0371,-0.1598 -0.0682,-1.2319 -0.0691,-2.3825 l -0.002,-2.0919 0.44431,0 0.44432,0 0,1.9609 c 0,2.1801 0.0475,2.4621 0.44981,2.6702 0.33625,0.1739 0.76186,0.1384 1.02821,-0.086 0.43734,-0.368 0.44734,-0.4257 0.44734,-2.5794 l 0,-1.966 0.44431,0 0.44432,0 10e-4,2.4992 c 6e-4,1.3746 0.0211,2.5743 0.0457,2.6659 0.043,0.1605 0.0267,0.1666 -0.44533,0.1666 l -0.48997,0 0,-0.3062 0,-0.3061 -0.14839,0.1886 c -0.37073,0.4713 -1.4338,0.6632 -1.9979,0.3607 z m 8.03346,0.025 c -0.56394,-0.2 -0.55539,-0.1611 -0.55539,-2.5255 l 0,-2.1023 -0.44431,0 -0.44432,0 0,-0.3333 0,-0.3332 0.44107,0 0.44107,0 0.0218,-0.528 0.0218,-0.528 0.38877,-0.1713 0.38878,-0.1713 0,0.6993 0,0.6993 0.59242,0 0.59241,0 0,0.3332 0,0.3333 -0.59603,0 -0.59604,0 0.0221,1.8488 c 0.0257,2.1504 0.003,2.0834 0.72339,2.1355 l 0.44655,0.032 0,0.314 0,0.3141 -0.38877,0.047 c -0.5494,0.066 -0.71868,0.056 -1.05525,-0.064 z m 3.32798,-0.071 c -0.44209,-0.2203 -0.72774,-0.6244 -0.85937,-1.2157 -0.13988,-0.6283 -0.11346,-2.3167 0.0447,-2.8577 0.1639,-0.5607 0.59438,-1.0193 1.07949,-1.1502 0.4476,-0.1208 1.52102,-0.063 1.82769,0.098 0.55664,0.2926 0.83692,1.0215 0.83692,2.1766 l 0,0.688 -1.49176,0 -1.49175,0 0.0444,0.4758 c 0.0849,0.9091 0.37266,1.2644 1.02411,1.2644 0.28706,0 0.39134,-0.04 0.57882,-0.2191 0.12576,-0.1205 0.26652,-0.3454 0.31279,-0.4998 l 0.0841,-0.2808 0.47613,0 0.47613,0 -0.0512,0.3147 c -0.0724,0.4452 -0.23544,0.7609 -0.52341,1.0138 -0.32078,0.2816 -0.66673,0.3738 -1.40478,0.3743 -0.48617,7e-4 -0.66416,-0.033 -0.96308,-0.1823 z m 2.01476,-3.3787 c -0.0559,-0.535 -0.27103,-1.0595 -0.48047,-1.1716 -0.0826,-0.044 -0.33081,-0.08 -0.55155,-0.08 -0.32028,0 -0.43982,0.036 -0.59188,0.1766 -0.21342,0.1978 -0.42351,0.8148 -0.42351,1.2438 l 0,0.2828 1.04729,0 1.04728,0 -0.0472,-0.4512 z m -8.71213,0.8215 0,-2.6659 0.44432,0 0.44431,0 0,2.6659 0,2.6659 -0.44431,0 -0.44432,0 0,-2.6659 z m 11.47813,2.1105 0,-0.5554 0.48134,0 0.48134,0 0,0.5554 0,0.5554 -0.48134,0 -0.48134,0 0,-0.5554 z m 3.48046,0 0,-0.5554 0.48134,0 0.48134,0 0,0.5554 0,0.5554 -0.48134,0 -0.48134,0 0,-0.5554 z m 3.48046,0 0,-0.5554 0.51836,0 0.51837,0 0,0.5554 0,0.5554 -0.51837,0 -0.51836,0 0,-0.5554 z m -18.5131,-6.5907 0,-0.4813 0.48134,0 0.48134,0 0,0.4813 0,0.4814 -0.48134,0 -0.48134,0 0,-0.4814 z m -46.01206,-5.208 c -0.22539,-0.2491 -0.14909,-0.4515 0.35879,-0.9519 0.71476,-0.7043 0.65922,-1.0068 -0.22216,-1.2099 -0.77799,-0.1792 -1.01396,-0.3615 -0.85429,-0.6598 0.0829,-0.1548 0.14517,-0.1813 0.70619,-0.3003 0.58168,-0.1233 0.7749,-0.2238 0.82668,-0.4301 0.0591,-0.2356 -0.14612,-0.4205 -0.54642,-0.4923 -0.60022,-0.1077 -0.84023,-0.2015 -0.9522,-0.3724 -0.2203,-0.3363 0.0427,-0.5468 0.83637,-0.6695 0.36529,-0.057 0.68717,-0.2833 0.68717,-0.4841 0,-0.198 -0.27145,-0.3533 -0.78294,-0.4479 -0.51616,-0.095 -0.66705,-0.1666 -0.77307,-0.3647 -0.16544,-0.3091 0.11507,-0.5121 0.86884,-0.6287 0.36529,-0.056 0.68717,-0.2832 0.68717,-0.484 0,-0.2027 -0.28109,-0.3583 -0.81821,-0.4529 -0.44948,-0.079 -0.81094,-0.3033 -0.81094,-0.5028 0,-0.1802 0.3107,-0.3608 0.81807,-0.4754 0.57156,-0.1291 0.81108,-0.2768 0.81108,-0.5004 0,-0.1945 -0.25795,-0.3345 -0.87268,-0.4736 -0.56682,-0.1283 -0.81022,-0.3271 -0.71241,-0.582 0.0649,-0.1691 0.21352,-0.2382 0.80908,-0.3763 0.54307,-0.126 0.77601,-0.2741 0.77601,-0.4934 0,-0.1946 -0.25795,-0.3346 -0.87268,-0.4737 -0.39533,-0.089 -0.56888,-0.167 -0.64964,-0.2902 -0.21698,-0.3312 -0.008,-0.5155 0.76766,-0.6778 1.01682,-0.2128 1.0239,-0.7103 0.0132,-0.9243 -0.70843,-0.15 -0.97303,-0.3626 -0.81618,-0.6556 0.0837,-0.1564 0.33372,-0.2614 0.88817,-0.3729 0.90338,-0.1817 0.90338,-0.7113 0,-0.893 -0.70692,-0.1422 -0.95965,-0.2966 -0.95965,-0.5865 0,-0.1351 0.44651,-0.3604 0.81457,-0.411 0.42555,-0.058 0.81458,-0.2824 0.81458,-0.4688 0,-0.2217 -0.23326,-0.3719 -0.74417,-0.4792 -0.58204,-0.1222 -0.7855,-0.2252 -0.85069,-0.4306 -0.0766,-0.24148 0.1613,-0.41738 0.72356,-0.53498 1.12429,-0.2351 1.19068,-0.7364 0.12713,-0.9598 -0.57969,-0.1217 -0.7855,-0.2252 -0.84962,-0.4272 -0.0781,-0.2461 0.15204,-0.4194 0.73136,-0.5504 0.60496,-0.1369 0.86243,-0.2776 0.86243,-0.4713 0,-0.2236 -0.23952,-0.3713 -0.81108,-0.5004 -0.53385,-0.1206 -0.81807,-0.2956 -0.81807,-0.5037 0,-0.1769 0.36078,-0.4023 0.72722,-0.4545 0.46086,-0.066 0.828,-0.2422 0.89916,-0.4326 0.0917,-0.2454 -0.0468,-0.4943 -0.51996,-0.9351 -0.45822,-0.4269 -0.53645,-0.6309 -0.32358,-0.8438 0.18746,-0.1875 0.32406,-0.1423 1.10362,0.3651 0.40626,0.2644 0.85101,0.5018 0.98834,0.5276 0.36463,0.068 0.71034,-0.062 1.49138,-0.5629 0.74536,-0.4779 0.91661,-0.5279 1.03703,-0.3029 0.15627,0.292 0.0825,0.4641 -0.40468,0.9441 -0.50264,0.4953 -0.58979,0.719 -0.36695,0.9418 0.10953,0.1095 0.2875,0.1719 0.97455,0.3416 0.71558,0.1767 0.71558,0.6357 0,0.8124 -0.88381,0.2183 -1.08894,0.3231 -1.08894,0.5565 0,0.2379 0.30591,0.3867 1.05938,0.5155 0.29608,0.051 0.56977,0.2628 0.56977,0.4419 0,0.1701 -0.20561,0.3285 -0.54019,0.4161 -0.17127,0.045 -0.43489,0.1133 -0.5858,0.1521 -0.75913,0.195 -0.63954,0.6947 0.2029,0.8477 1.23935,0.2251 1.20982,0.82638 -0.0506,1.03028 -0.33238,0.054 -0.65547,0.2968 -0.65547,0.4931 0,0.1595 0.49694,0.4308 0.79456,0.4337 0.27296,0 0.75194,0.2282 0.79887,0.376 0.10248,0.3229 -0.14106,0.4848 -0.94612,0.6292 -0.3423,0.061 -0.64731,0.2906 -0.64731,0.4865 0,0.1595 0.49694,0.4308 0.79456,0.4337 0.27296,0 0.75194,0.2281 0.79887,0.376 0.1016,0.3201 -0.17857,0.5137 -0.90627,0.6263 -0.36019,0.056 -0.68716,0.2825 -0.68716,0.4767 0,0.2277 0.0638,0.2578 1.11724,0.5269 0.34343,0.088 0.5417,0.303 0.47442,0.5149 -0.0587,0.1851 -0.37001,0.3293 -0.86444,0.4005 -0.39361,0.057 -0.72722,0.2817 -0.72722,0.4904 0,0.1975 0.25584,0.34 0.79908,0.4451 1.04768,0.2025 1.11954,0.7624 0.12224,0.9523 -0.64439,0.1228 -0.92132,0.2833 -0.92132,0.5341 0,0.1953 0.28523,0.3529 0.80462,0.4444 0.72293,0.1273 1.05087,0.5066 0.65791,0.761 -0.0916,0.059 -0.39851,0.1612 -0.68194,0.2264 -0.54708,0.1258 -0.78059,0.2735 -0.78059,0.4935 0,0.1954 0.28523,0.3529 0.80462,0.4444 0.72293,0.1274 1.05087,0.5067 0.65791,0.7611 -0.0916,0.059 -0.39851,0.1612 -0.68194,0.2264 -0.54708,0.1258 -0.78059,0.2734 -0.78059,0.4935 0,0.1946 0.26614,0.3409 0.83855,0.4609 0.52808,0.1107 0.7906,0.2773 0.7906,0.5018 0,0.1955 -0.29133,0.3569 -0.85802,0.4755 -0.5256,0.11 -0.77113,0.2651 -0.77113,0.4871 0,0.1917 0.25495,0.3326 0.84856,0.4692 0.53961,0.1241 0.78059,0.2735 0.78059,0.4837 0,0.2091 -0.2335,0.353 -0.77664,0.4787 -0.67618,0.1565 -0.85251,0.2749 -0.85251,0.5724 0,0.1863 0.0965,0.333 0.48134,0.7316 0.26994,0.2796 0.48134,0.5645 0.48134,0.6486 0,0.1675 -0.18312,0.3827 -0.32559,0.3827 -0.0511,0 -0.44025,-0.2166 -0.86483,-0.4813 -0.42458,-0.2648 -0.88348,-0.5024 -1.01978,-0.528 -0.36266,-0.068 -0.70942,0.063 -1.48951,0.5632 -0.38272,0.2454 -0.73471,0.4461 -0.78221,0.4461 -0.0475,0 -0.14152,-0.061 -0.20893,-0.1354 z m -12.84093,-0.4571 c -1.50828,-0.1583 -2.63338,-0.4875 -4.05448,-1.1862 -3.16547,-1.5564 -5.53023,-4.5217 -6.32725,-7.9341 -0.47104,-2.0167 -0.36417,-4.3358 0.28976,-6.2877 1.4168,-4.22878 5.14031,-7.36948 9.51795,-8.02818 2.45424,-0.3693 6.05387,0.1565 8.18279,1.1952 0.72739,0.3549 0.93363,0.4977 1.41406,0.9795 1.46875,1.4728 1.55457,3.3805 0.21387,4.75408 -0.75524,0.7738 -1.74336,1.1082 -2.8225,0.9551 -0.35852,-0.051 -0.85065,-0.2098 -1.46813,-0.4741 -1.48844,-0.6373 -2.07865,-0.7987 -3.26149,-0.8915 -2.59017,-0.2034 -5.07524,1.5451 -5.70708,4.0156 -0.6359,2.4864 0.93568,5.1369 3.59659,6.0657 0.5549,0.1937 0.66509,0.2063 1.74023,0.1998 1.50822,-0.01 1.80765,-0.087 4.04116,-1.0545 0.69878,-0.3026 1.45895,-0.4186 2.05631,-0.3137 1.38802,0.2437 2.62955,1.4963 2.75972,2.7844 0.14758,1.4606 -0.79809,3.0083 -2.3218,3.7999 -1.92681,1.001 -5.56836,1.6601 -7.84971,1.4207 z m -9.02842,-13.2502 c 0.0364,-0.036 0.15887,-0.4274 0.27207,-0.8688 0.60283,-2.3503 2.03206,-4.48308 3.908,-5.83188 0.21503,-0.1546 0.44213,-0.3801 0.50467,-0.501 0.10269,-0.1986 0.10231,-0.2373 -0.004,-0.3994 -0.0849,-0.1295 -0.18516,-0.1795 -0.36058,-0.1795 -0.65522,0 -2.30705,1.5277 -3.36312,3.1102 -1.13412,1.69958 -2.01942,4.28358 -1.6084,4.69458 0.13538,0.1354 0.50543,0.1216 0.65126,-0.024 z m 29.15203,11.8063 0,-1.2219 2.85102,0 2.85101,0 0,-4.5542 0,-4.5542 7.29416,0 7.29416,0 0,1.1844 0,1.1844 -5.94271,0.019 -5.9427,0.019 -0.0191,4.5727 -0.0191,4.5727 -4.18339,0 -4.1834,0 0,-1.2218 z m 19.14253,1.0524 c -0.63802,-0.3597 -0.96245,-1.1973 -0.75187,-1.941 0.11863,-0.419 10.36755,-21.62238 10.55399,-21.83448 0.42728,-0.4862 1.24564,-0.427 1.59131,0.1151 0.0597,0.094 2.44755,5.0125 5.3064,10.93098 l 5.1979,10.7608 -0.0264,0.5817 c -0.0229,0.5051 -0.0561,0.6239 -0.25138,0.9018 -0.12373,0.176 -0.35687,0.3948 -0.5181,0.4861 l -0.29313,0.166 -4.41958,10e-4 -4.41959,0.001 -0.14011,-0.2036 c -0.0771,-0.112 -0.35341,-0.5952 -0.61411,-1.0738 -0.26071,-0.4785 -0.49224,-0.8701 -0.51452,-0.8701 -0.0223,0 -0.21535,0.3515 -0.42903,0.7812 -0.21367,0.4296 -0.47162,0.9128 -0.5732,1.0737 l -0.1847,0.2926 -4.60883,-0.001 -4.60883,-10e-4 -0.29621,-0.167 z m 28.2762,-0.051 c -0.64428,-0.3695 -0.91384,-0.9225 -0.91384,-1.8746 0,-0.6567 -0.10906,-1.0168 -0.41673,-1.3763 -0.43371,-0.5067 -0.62431,-0.5585 -2.21213,-0.6017 -1.31928,-0.036 -1.43279,-0.05 -1.82069,-0.2315 -0.52541,-0.2455 -0.92275,-0.6425 -1.16956,-1.1688 -0.18233,-0.3888 -0.194,-0.4807 -0.194,-1.5261 0,-1.1087 7.9e-4,-1.1139 0.24435,-1.6087 0.24771,-0.5031 0.59544,-0.855 1.12562,-1.1389 0.36976,-0.1981 2.8944,-0.2501 3.36745,-0.069 0.69109,0.2639 1.07147,0.874 1.07406,1.7227 0.003,1.1286 0.2969,1.7419 0.98723,2.0633 0.36917,0.1719 0.4473,0.1789 1.97649,0.1781 1.8131,-10e-4 1.97558,-0.039 2.45732,-0.5733 0.33861,-0.3756 0.42998,-0.6942 0.42959,-1.4978 -7.4e-4,-0.7534 -0.19372,-1.2517 -0.62293,-1.6055 -0.41864,-0.345 -0.69704,-0.394 -2.24229,-0.394 -1.88151,0 -2.30809,-0.1341 -2.73335,-0.8598 -0.16778,-0.2863 -0.20146,-0.4506 -0.24564,-1.1985 -0.0559,-0.9465 -0.12948,-1.1591 -0.53536,-1.5472 -0.39619,-0.3787 -0.57681,-0.4189 -2.09829,-0.466 -1.65181,-0.051 -1.94686,-0.1392 -2.52034,-0.7522 -0.58883,-0.6296 -0.66399,-0.8801 -0.66341,-2.2112 5.2e-4,-1.12188 0.005,-1.15758 0.21762,-1.57768 0.23979,-0.4746 0.60827,-0.8459 1.09297,-1.1012 0.29034,-0.153 0.44713,-0.171 1.79911,-0.2072 1.35993,-0.036 1.50997,-0.054 1.83481,-0.2135 0.57469,-0.2825 0.94215,-0.9276 0.94215,-1.6539 0,-0.5752 0.39536,-1.1652 0.9997,-1.4919 0.28836,-0.1559 0.37999,-0.1608 3.45883,-0.183 3.39108,-0.024 3.82236,0.01 4.29437,0.32 0.45394,0.3004 0.65738,0.68 0.73468,1.371 0.0369,0.3301 0.1314,0.7262 0.20991,0.88 0.15846,0.3107 0.58152,0.7132 0.88171,0.839 0.10748,0.045 0.8119,0.1024 1.56538,0.1276 1.28917,0.043 1.39208,0.057 1.74494,0.2406 0.44698,0.2324 0.87836,0.6892 1.09544,1.1601 0.13944,0.3024 0.15786,0.4758 0.15828,1.49008 7.4e-4,1.0842 -0.0103,1.1707 -0.19354,1.5615 -0.23628,0.5038 -0.60935,0.8892 -1.1229,1.1599 -0.38125,0.201 -0.40427,0.2036 -1.76195,0.2036 l -1.37565,0 -0.36262,-0.2241 c -0.51759,-0.3199 -0.75389,-0.7387 -0.83613,-1.482 -0.074,-0.6691 -0.1842,-0.9272 -0.54231,-1.2707 -0.44107,-0.4231 -0.7104,-0.4928 -2.03242,-0.5257 -0.74508,-0.019 -1.3504,0 -1.61219,0.057 -1.63015,0.3384 -1.92761,2.4945 -0.4531,3.2842 0.2687,0.1439 0.44462,0.1622 1.89448,0.1969 l 1.59827,0.038 0.36084,0.2233 c 0.5354,0.3313 0.77468,0.8266 0.77468,1.6037 0,0.8003 0.10953,1.1815 0.451,1.5694 0.47674,0.5416 0.65041,0.5918 2.21488,0.64 1.23079,0.038 1.40229,0.059 1.68803,0.2091 0.48408,0.2542 0.85299,0.6257 1.09296,1.1008 0.21226,0.4201 0.21714,0.4556 0.21763,1.579 l 7.4e-4,1.1492 -0.24401,0.4958 c -0.26043,0.5292 -0.57252,0.8376 -1.12369,1.1105 -0.32038,0.1586 -0.4407,0.1678 -2.66815,0.2041 -2.60302,0.043 -2.55898,0.034 -3.05605,0.5843 -0.33548,0.3713 -0.49797,0.902 -0.50009,1.6333 -0.003,0.8566 -0.32257,1.4073 -0.99808,1.7172 -0.26872,0.1233 -0.52991,0.136 -2.81399,0.1368 l -2.51778,0.001 -0.38207,-0.2191 z m -47.41873,-4.1486 0,-1.2588 1.07376,0 1.07376,0 0,-8.9604 0,-8.96028 9.29357,0 c 5.11146,0 9.29262,0.025 9.29146,0.056 -10e-4,0.031 -0.3311,0.5887 -0.7332,1.2404 l -0.7311,1.1848 -7.15337,0.019 -7.15337,0.019 0,8.95998 0,8.9599 -2.48075,0 -2.48076,0 0,-1.2588 z m 5.70203,-11.9224 0,-4.07288 6.59918,0 6.59917,0 -0.10571,0.1666 c -0.0581,0.092 -0.40354,0.6578 -0.76755,1.258 l -0.66184,1.0914 -4.48017,0.019 -4.48017,0.019 -0.02,1.57358 -0.02,1.5736 5.99971,0 5.99972,0 0,1.2219 0,1.2218 -7.33118,0 -7.33119,0 0,-4.0728 z"
       id="path3110"
       inkscape:connector-curvature="0" />
  </g>
</svg>
