<?xml version="1.0" encoding="UTF-8" standalone="no"?>
<!-- Created with Inkscape (http://www.inkscape.org/) -->

<svg
   xmlns:dc="http://purl.org/dc/elements/1.1/"
   xmlns:cc="http://creativecommons.org/ns#"
   xmlns:rdf="http://www.w3.org/1999/02/22-rdf-syntax-ns#"
   xmlns:svg="http://www.w3.org/2000/svg"
   xmlns="http://www.w3.org/2000/svg"
   xmlns:sodipodi="http://sodipodi.sourceforge.net/DTD/sodipodi-0.dtd"
   xmlns:inkscape="http://www.inkscape.org/namespaces/inkscape"
   width="100.00007"
   height="41.675426"
   id="svg3171"
   version="1.1"
   inkscape:version="0.48.4 r9939"
   sodipodi:docname="cifas.svg">
  <defs
     id="defs3173" />
  <sodipodi:namedview
     id="base"
     pagecolor="#ffffff"
     bordercolor="#666666"
     borderopacity="1.0"
     inkscape:pageopacity="0.0"
     inkscape:pageshadow="2"
     inkscape:zoom="0.37734375"
     inkscape:cx="-512.84696"
     inkscape:cy="-189.28693"
     inkscape:document-units="px"
     inkscape:current-layer="layer1"
     showgrid="false"
     inkscape:window-width="1276"
     inkscape:window-height="775"
     inkscape:window-x="0"
     inkscape:window-y="21"
     inkscape:window-maximized="1"
     fit-margin-top="0"
     fit-margin-left="0"
     fit-margin-right="0"
     fit-margin-bottom="0" />
  <metadata
     id="metadata3176">
    <rdf:RDF>
      <cc:Work
         rdf:about="">
        <dc:format>image/svg+xml</dc:format>
        <dc:type
           rdf:resource="http://purl.org/dc/dcmitype/StillImage" />
        <dc:title />
      </cc:Work>
    </rdf:RDF>
  </metadata>
  <g
     inkscape:label="Layer 1"
     inkscape:groupmode="layer"
     id="layer1"
     transform="translate(-373.72688,-301.39983)">
    <path
       style="fill:#000000;fill-opacity:1"
       d="m 435.78251,343.01502 c -0.0846,-0.14296 -0.63848,-1.94822 -0.82528,-2.68979 -0.14784,-0.58695 -0.21568,-1.10918 -0.24568,-1.89117 -0.0548,-1.42804 0.091,-2.22267 0.84385,-4.60094 l 0.22798,-0.72007 0.33267,-0.0249 c 0.23488,-0.0173 0.33267,0.0108 0.33267,0.081 0,0.0583 -0.1073,0.59138 -0.23842,1.18482 -0.62716,2.83869 -0.60616,5.02462 0.0764,7.95202 0.0891,0.38208 0.162,0.71143 0.162,0.73175 0,0.0627 -0.62843,0.0411 -0.6662,-0.0227 z m 36.19359,-0.014 c 0,-0.04 0.0896,-0.48797 0.19911,-0.99453 0.62093,-2.87197 0.63826,-4.53417 0.0762,-7.31181 -0.15342,-0.7581 -0.29998,-1.43323 -0.32569,-1.50022 -0.0376,-0.0983 0.0241,-0.12189 0.31644,-0.12189 l 0.3632,0 0.32014,1.02025 c 1.06642,3.3983 1.06777,4.72326 0.009,7.98012 l -0.32591,1.00177 -0.31583,0 c -0.17372,0 -0.31584,-0.0335 -0.31584,-0.0735 z m -33.1669,-1.30313 c -0.6049,-0.21147 -0.95491,-0.6708 -1.05225,-1.38115 l -0.0508,-0.37052 0.55043,0.0238 0.55044,0.0238 0.0496,0.30676 c 0.0281,0.17397 0.14067,0.39775 0.26009,0.51726 0.17436,0.17429 0.28287,0.21027 0.63164,0.20951 0.53688,0 0.82867,-0.18617 0.95419,-0.6051 0.1382,-0.46128 -0.0434,-0.65448 -1.16747,-1.24165 -1.39533,-0.72904 -1.70876,-1.10658 -1.62678,-1.95989 0.0267,-0.27769 0.10762,-0.48138 0.27448,-0.69079 0.36409,-0.45685 0.74641,-0.6118 1.58663,-0.64303 0.66309,-0.0249 0.7543,-0.0108 1.15107,0.19969 0.49217,0.25868 0.72932,0.61288 0.72932,1.08918 l 0,0.30515 -0.49532,-0.0238 c -0.48252,-0.0238 -0.49702,-0.0303 -0.5611,-0.27889 -0.0969,-0.37581 -0.40816,-0.58511 -0.8703,-0.58511 -0.45484,0 -0.76801,0.22421 -0.84019,0.60143 -0.0724,0.37808 0.19498,0.63298 1.13657,1.08367 0.9024,0.43211 1.43237,0.84639 1.60256,1.253 0.20674,0.4938 0.0773,1.33479 -0.26468,1.71946 -0.0812,0.0908 -0.32767,0.25069 -0.54771,0.35409 -0.32621,0.15322 -0.52569,0.18683 -1.08023,0.18229 -0.37407,0 -0.78816,-0.0432 -0.92019,-0.0897 z m 5.08238,-0.0519 c -0.34853,-0.18693 -0.55195,-0.45772 -0.64486,-0.85827 -0.0401,-0.17267 -0.0737,-1.33112 -0.0747,-2.57439 l -0.002,-2.26039 0.48009,0 0.48011,0 0,2.11884 c 0,2.35568 0.0513,2.6604 0.48604,2.88526 0.36333,0.1879 0.82322,0.14954 1.11102,-0.0929 0.47256,-0.39764 0.48337,-0.45999 0.48337,-2.78715 l 0,-2.12434 0.48009,0 0.48011,0 0.001,2.70049 c 6.5e-4,1.48531 0.0228,2.78163 0.0494,2.88061 0.0465,0.17343 0.0289,0.18002 -0.4812,0.18002 l -0.52943,0 0,-0.33086 0,-0.33075 -0.16034,0.20379 c -0.40059,0.50925 -1.54928,0.71661 -2.15881,0.38975 z m 8.68048,0.027 c -0.60936,-0.2161 -0.60012,-0.17407 -0.60012,-2.7289 l 0,-2.27162 -0.48009,0 -0.48011,0 0,-0.36015 0,-0.36003 0.47659,0 0.4766,0 0.0236,-0.57053 0.0236,-0.57053 0.42008,-0.18509 0.4201,-0.1851 0,0.75562 0,0.75563 0.64013,0 0.64012,0 0,0.36003 0,0.36015 -0.64403,0 -0.64405,0 0.0239,1.9977 c 0.0278,2.3236 0.003,2.2512 0.78166,2.3075 l 0.48251,0.0346 0,0.33929 0,0.3394 -0.42008,0.0508 c -0.59365,0.0713 -0.77656,0.0605 -1.14024,-0.0692 z m 3.59602,-0.0767 c -0.47769,-0.23805 -0.78635,-0.67469 -0.92858,-1.31362 -0.15115,-0.6789 -0.1226,-2.50329 0.0483,-3.08786 0.1771,-0.60586 0.64225,-1.1014 1.16643,-1.24284 0.48365,-0.13053 1.64353,-0.0681 1.9749,0.10589 0.60147,0.31617 0.90432,1.10378 0.90432,2.35191 l 0,0.74341 -1.61191,0 -1.61189,0 0.048,0.51412 c 0.0917,0.98232 0.40268,1.36624 1.1066,1.36624 0.31018,0 0.42286,-0.0432 0.62544,-0.23675 0.13588,-0.1302 0.28798,-0.37322 0.33798,-0.54005 l 0.0909,-0.30342 0.51448,0 0.51448,0 -0.0553,0.34005 c -0.0782,0.48106 -0.2544,0.82218 -0.56556,1.09545 -0.34662,0.30428 -0.72043,0.40391 -1.51793,0.40445 -0.52532,7.5e-4 -0.71765,-0.0357 -1.04064,-0.19698 z m 2.17703,-3.65083 c -0.0604,-0.57809 -0.29286,-1.14483 -0.51916,-1.26596 -0.0893,-0.0475 -0.35746,-0.0864 -0.59598,-0.0864 -0.34607,0 -0.47524,0.0389 -0.63955,0.19082 -0.23061,0.21373 -0.45762,0.88042 -0.45762,1.34398 l 0,0.30557 1.13164,0 1.13163,0 -0.051,-0.48754 z m -9.41381,0.88767 0,-2.88062 0.48011,0 0.48009,0 0,2.88062 0,2.88061 -0.48009,0 -0.48011,0 0,-2.88061 z m 12.40259,2.28048 0,-0.60013 0.52011,0 0.52011,0 0,0.60013 0,0.60013 -0.52011,0 -0.52011,0 0,-0.60013 z m 3.76078,0 0,-0.60013 0.52011,0 0.52011,0 0,0.60013 0,0.60013 -0.52011,0 -0.52011,0 0,-0.60013 z m 3.76078,0 0,-0.60013 0.56011,0 0.56012,0 0,0.60013 0,0.60013 -0.56012,0 -0.56011,0 0,-0.60013 z m -20.00416,-7.12152 0,-0.52007 0.5201,0 0.52011,0 0,0.52007 0,0.52017 -0.52011,0 -0.5201,0 0,-0.52017 z m -49.71793,-5.62746 c -0.24354,-0.26917 -0.1611,-0.48787 0.38769,-1.02857 0.77233,-0.76102 0.71231,-1.08789 -0.24005,-1.30735 -0.84065,-0.19363 -1.09563,-0.39061 -0.9231,-0.71294 0.0896,-0.16727 0.15686,-0.1959 0.76307,-0.32448 0.62853,-0.13323 0.83731,-0.24183 0.89326,-0.46474 0.0639,-0.25458 -0.15789,-0.45437 -0.59043,-0.53196 -0.64856,-0.11637 -0.9079,-0.21772 -1.02889,-0.40239 -0.23804,-0.36338 0.0461,-0.59084 0.90373,-0.72342 0.39471,-0.0616 0.74252,-0.30612 0.74252,-0.52309 0,-0.21395 -0.29332,-0.38176 -0.846,-0.48398 -0.55773,-0.10265 -0.72078,-0.18001 -0.83534,-0.39407 -0.17876,-0.33399 0.12434,-0.55334 0.93882,-0.67933 0.39471,-0.0605 0.74252,-0.30601 0.74252,-0.52299 0,-0.21902 -0.30373,-0.38715 -0.88411,-0.48937 -0.48568,-0.0854 -0.87626,-0.32773 -0.87626,-0.5433 0,-0.19471 0.33573,-0.38986 0.88396,-0.51369 0.6176,-0.1395 0.87641,-0.29909 0.87641,-0.5407 0,-0.21017 -0.27873,-0.36144 -0.94297,-0.51175 -0.61247,-0.13863 -0.87548,-0.35344 -0.76979,-0.62887 0.0701,-0.18272 0.23072,-0.25739 0.87425,-0.40661 0.58681,-0.13615 0.83851,-0.29618 0.83851,-0.53314 0,-0.21027 -0.27873,-0.36155 -0.94297,-0.51185 -0.42717,-0.0962 -0.6147,-0.18045 -0.70196,-0.31357 -0.23446,-0.35788 -0.009,-0.55702 0.82949,-0.73239 1.09871,-0.22994 1.10636,-0.76751 0.0143,-0.99875 -0.76549,-0.16208 -1.0514,-0.3918 -0.88192,-0.7084 0.0904,-0.169 0.3606,-0.28245 0.95971,-0.40293 0.97614,-0.19634 0.97614,-0.76859 0,-0.96493 -0.76386,-0.15365 -1.03694,-0.32049 -1.03694,-0.63374 0,-0.14598 0.48247,-0.38942 0.88017,-0.4441 0.45983,-0.0627 0.88019,-0.30514 0.88019,-0.50656 0,-0.23955 -0.25205,-0.40185 -0.80411,-0.51779 -0.62892,-0.13204 -0.84876,-0.24334 -0.9192,-0.46528 -0.0828,-0.26093 0.17429,-0.451 0.78183,-0.57807 1.21485,-0.25403 1.28658,-0.79571 0.13737,-1.0371 -0.62638,-0.1315 -0.84876,-0.24334 -0.91805,-0.46161 -0.0844,-0.26592 0.16429,-0.45318 0.79027,-0.59473 0.65368,-0.14793 0.93189,-0.29996 0.93189,-0.50926 0,-0.24161 -0.25881,-0.4012 -0.87641,-0.5407 -0.57684,-0.13032 -0.88395,-0.31941 -0.88395,-0.54427 0,-0.19115 0.38983,-0.4347 0.78579,-0.49111 0.49798,-0.0713 0.89468,-0.2617 0.97158,-0.46744 0.0991,-0.26516 -0.0506,-0.53411 -0.56184,-1.01041 -0.49513,-0.46129 -0.57966,-0.68172 -0.34964,-0.91176 0.20255,-0.2026 0.35016,-0.15376 1.1925,0.3945 0.43898,0.2857 0.91955,0.54222 1.06795,0.5701 0.39399,0.0735 0.76755,-0.067 1.61149,-0.60824 0.8054,-0.51639 0.99044,-0.57042 1.12056,-0.3273 0.16885,0.31552 0.0891,0.50148 -0.43728,1.02014 -0.54312,0.53519 -0.63729,0.77691 -0.3965,1.01766 0.11835,0.11832 0.31065,0.18574 1.05304,0.36911 0.77321,0.19093 0.77321,0.6869 0,0.87783 -0.95499,0.23588 -1.17664,0.34912 -1.17664,0.60132 0,0.25706 0.33054,0.41785 1.1447,0.55702 0.31993,0.0551 0.61566,0.28397 0.61566,0.47749 0,0.1838 -0.22217,0.35496 -0.5837,0.44961 -0.18506,0.0486 -0.46992,0.12243 -0.63298,0.16436 -0.82027,0.2107 -0.69105,0.75065 0.21924,0.91597 1.33917,0.24323 1.30726,0.89294 -0.0547,1.11326 -0.35915,0.0584 -0.70827,0.3207 -0.70827,0.53281 0,0.17235 0.53697,0.4655 0.85856,0.46864 0.29494,0 0.8125,0.24657 0.86321,0.40628 0.11074,0.34891 -0.15242,0.52385 -1.02232,0.67988 -0.36987,0.0659 -0.69945,0.314 -0.69945,0.52568 0,0.17234 0.53697,0.4655 0.85856,0.46863 0.29494,0 0.8125,0.24647 0.86321,0.40628 0.10978,0.34588 -0.19295,0.55508 -0.97926,0.67675 -0.3892,0.0605 -0.74251,0.30525 -0.74251,0.51509 0,0.24604 0.0689,0.27856 1.20723,0.56934 0.37109,0.0951 0.58533,0.3274 0.51263,0.55637 -0.0634,0.20001 -0.39981,0.35582 -0.93406,0.43275 -0.42532,0.0616 -0.7858,0.30439 -0.7858,0.5299 0,0.21341 0.27645,0.36739 0.86344,0.48095 1.13206,0.21881 1.20971,0.8238 0.13209,1.029 -0.69629,0.13269 -0.99553,0.30612 -0.99553,0.57712 0,0.21103 0.30821,0.38132 0.86943,0.48019 0.78116,0.13755 1.13551,0.5474 0.7109,0.82229 -0.099,0.0638 -0.43061,0.17418 -0.73687,0.24464 -0.59114,0.13593 -0.84346,0.29552 -0.84346,0.53324 0,0.21114 0.30821,0.38133 0.86943,0.48019 0.78116,0.13767 1.13551,0.54752 0.7109,0.8224 -0.099,0.0638 -0.43061,0.17419 -0.73687,0.24464 -0.59114,0.13593 -0.84346,0.29542 -0.84346,0.53325 0,0.21027 0.28758,0.36835 0.90609,0.49802 0.57061,0.11961 0.85428,0.29963 0.85428,0.54221 0,0.21125 -0.3148,0.38565 -0.92713,0.5138 -0.56793,0.11886 -0.83324,0.28645 -0.83324,0.52633 0,0.20714 0.27549,0.35939 0.91691,0.50699 0.58307,0.1341 0.84346,0.29553 0.84346,0.52266 0,0.22594 -0.25231,0.38143 -0.83919,0.51725 -0.73064,0.16911 -0.92118,0.29705 -0.92118,0.61851 0,0.2013 0.10428,0.35982 0.52011,0.79052 0.29168,0.30212 0.52011,0.60997 0.52011,0.70084 0,0.18099 -0.19787,0.41352 -0.35181,0.41352 -0.0552,0 -0.47571,-0.23404 -0.93449,-0.52006 -0.45877,-0.28613 -0.95463,-0.54287 -1.10191,-0.57053 -0.39187,-0.0735 -0.76656,0.0681 -1.60948,0.60856 -0.41354,0.26517 -0.79388,0.48203 -0.84521,0.48203 -0.0513,0 -0.15292,-0.0659 -0.22576,-0.1463 z m -13.87515,-0.49392 c -1.62976,-0.17105 -2.84548,-0.52676 -4.38103,-1.28174 -3.42042,-1.68175 -5.97564,-4.88588 -6.83686,-8.57312 -0.50898,-2.17912 -0.3935,-4.68501 0.3131,-6.79412 1.53091,-4.56937 5.55432,-7.96302 10.28454,-8.67477 2.6519,-0.39905 6.54145,0.1691 8.84184,1.29146 0.78597,0.38348 1.00882,0.53778 1.52795,1.05839 1.58704,1.59142 1.67977,3.65277 0.23109,5.13698 -0.81606,0.83612 -1.88377,1.19745 -3.04982,1.03202 -0.3874,-0.0551 -0.91917,-0.2267 -1.58638,-0.51228 -1.60832,-0.68863 -2.24607,-0.86303 -3.52417,-0.9633 -2.79879,-0.21979 -5.48401,1.66954 -6.16674,4.33902 -0.68711,2.68665 1.01104,5.55063 3.88627,6.55423 0.59959,0.20931 0.71865,0.22292 1.88039,0.2159 1.62969,-0.0108 1.95324,-0.094 4.36664,-1.13943 0.75506,-0.32698 1.57645,-0.45232 2.22192,-0.33897 1.49982,0.26333 2.84134,1.61681 2.98199,3.00866 0.15947,1.57824 -0.86237,3.25059 -2.5088,4.10595 -2.08199,1.08162 -6.01684,1.7938 -8.48193,1.53512 z m -9.75558,-14.31738 c 0.0393,-0.0389 0.17167,-0.46183 0.29398,-0.93878 0.65139,-2.53959 2.19573,-4.84415 4.22276,-6.30158 0.23235,-0.16706 0.47774,-0.41072 0.54531,-0.54136 0.11096,-0.21459 0.11055,-0.25641 -0.004,-0.43156 -0.0917,-0.13993 -0.20007,-0.19396 -0.38962,-0.19396 -0.70799,0 -2.49286,1.65074 -3.63399,3.3607 -1.22546,1.83646 -2.18207,4.62858 -1.73794,5.07268 0.14628,0.14631 0.54614,0.1314 0.70371,-0.0259 z m 31.49997,12.75719 0,-1.32031 3.08064,0 3.08064,0 0,-4.92101 0,-4.921 7.88163,0 7.88164,0 0,1.2798 0,1.27979 -6.42134,0.0205 -6.42133,0.0205 -0.0206,4.94099 -0.0206,4.94099 -4.52032,0 -4.52034,0 0,-1.3202 z m 20.68429,1.13716 c -0.68941,-0.38867 -1.03997,-1.29373 -0.81243,-2.09733 0.12819,-0.45275 11.20257,-23.36387 11.40402,-23.59305 0.4617,-0.52536 1.34597,-0.46139 1.71948,0.12437 0.0645,0.10157 2.64468,5.41621 5.73378,11.81137 l 5.61655,11.62749 -0.0285,0.62855 c -0.0247,0.54578 -0.0606,0.67415 -0.27163,0.97443 -0.13369,0.19017 -0.38561,0.4266 -0.55983,0.52525 l -0.31673,0.17937 -4.77554,10e-4 -4.77555,0.001 -0.1514,-0.22 c -0.0833,-0.12102 -0.38187,-0.64313 -0.66357,-1.16028 -0.2817,-0.51704 -0.53188,-0.94018 -0.55596,-0.94018 -0.0241,0 -0.23269,0.37981 -0.46358,0.84412 -0.23088,0.4642 -0.50961,0.98632 -0.61937,1.16018 l -0.19957,0.31616 -4.98003,-0.001 -4.98003,-10e-4 -0.32007,-0.18045 z m 30.5536,-0.0551 c -0.69618,-0.39926 -0.98745,-0.9968 -0.98745,-2.02558 0,-0.70959 -0.11784,-1.09869 -0.45029,-1.48715 -0.46864,-0.54751 -0.67459,-0.60348 -2.3903,-0.65016 -1.42553,-0.0389 -1.54819,-0.054 -1.96733,-0.25015 -0.56773,-0.26527 -0.99707,-0.69424 -1.26376,-1.26293 -0.19701,-0.42012 -0.20962,-0.51942 -0.20962,-1.64902 0,-1.19799 8.5e-4,-1.20361 0.26403,-1.73826 0.26766,-0.54362 0.6434,-0.92387 1.21628,-1.23063 0.39954,-0.21406 3.12752,-0.27024 3.63867,-0.0746 0.74675,0.28516 1.15776,0.94439 1.16056,1.86145 0.003,1.2195 0.32081,1.88219 1.06674,2.22948 0.39891,0.18575 0.48333,0.19331 2.13568,0.19245 1.95913,-10e-4 2.1347,-0.0421 2.65524,-0.61948 0.36588,-0.40585 0.46461,-0.75011 0.46419,-1.61843 -8e-4,-0.81408 -0.20932,-1.35252 -0.6731,-1.73481 -0.45236,-0.37279 -0.75318,-0.42574 -2.42289,-0.42574 -2.03305,0 -2.49399,-0.1449 -2.9535,-0.92904 -0.18129,-0.30936 -0.21768,-0.4869 -0.26542,-1.29503 -0.0604,-1.02274 -0.13991,-1.25246 -0.57848,-1.67182 -0.4281,-0.4092 -0.62327,-0.45264 -2.26729,-0.50353 -1.78485,-0.0551 -2.10366,-0.15041 -2.72333,-0.81278 -0.63625,-0.68031 -0.71747,-0.95099 -0.71684,-2.38929 5.6e-4,-1.21224 0.005,-1.25082 0.23515,-1.70475 0.2591,-0.51283 0.65726,-0.91403 1.181,-1.18989 0.31372,-0.16533 0.48314,-0.18478 1.94401,-0.22389 1.46946,-0.0389 1.63158,-0.0584 1.98259,-0.2307 0.62097,-0.30525 1.01803,-1.00231 1.01803,-1.7871 0,-0.62153 0.4272,-1.25905 1.08021,-1.61206 0.31159,-0.16846 0.4106,-0.17376 3.73741,-0.19774 3.6642,-0.0259 4.13022,0.0108 4.64025,0.34577 0.4905,0.32459 0.71032,0.73477 0.79385,1.48142 0.0399,0.35669 0.14198,0.78469 0.22681,0.95088 0.17123,0.33572 0.62836,0.77064 0.95273,0.90657 0.11613,0.0486 0.87729,0.11065 1.69146,0.13788 1.393,0.0465 1.5042,0.0616 1.88548,0.25998 0.48298,0.25111 0.9491,0.74471 1.18366,1.25353 0.15067,0.32676 0.17058,0.51412 0.17103,1.6101 8e-4,1.17152 -0.0111,1.26499 -0.20913,1.68726 -0.25531,0.54438 -0.65842,0.96082 -1.21334,1.25332 -0.41195,0.21719 -0.43683,0.22 -1.90386,0.22 l -1.48644,0 -0.39183,-0.24215 c -0.55928,-0.34567 -0.81461,-0.7982 -0.90347,-1.60136 -0.08,-0.72299 -0.19904,-1.00188 -0.58599,-1.37305 -0.47659,-0.45717 -0.76762,-0.53249 -2.19611,-0.56804 -0.80509,-0.0205 -1.45917,0 -1.74204,0.0616 -1.76144,0.36566 -2.08286,2.69541 -0.48959,3.54872 0.29034,0.15549 0.48043,0.17526 2.04706,0.21276 l 1.727,0.0411 0.3899,0.24128 c 0.57852,0.35798 0.83707,0.89318 0.83707,1.73286 0,0.86476 0.11835,1.27666 0.48733,1.69581 0.51513,0.58522 0.70279,0.63946 2.39327,0.69154 1.32991,0.0411 1.51523,0.0638 1.82398,0.22594 0.52307,0.27468 0.92169,0.6761 1.18099,1.18946 0.22936,0.45394 0.23463,0.4923 0.23516,1.70618 l 8e-4,1.24176 -0.26367,0.53573 c -0.2814,0.57182 -0.61863,0.90506 -1.21419,1.19994 -0.34618,0.17137 -0.47619,0.18131 -2.88304,0.22054 -2.81267,0.0465 -2.76509,0.0367 -3.30219,0.63136 -0.3625,0.4012 -0.53808,0.97465 -0.54037,1.76485 -0.003,0.92559 -0.34855,1.52064 -1.07847,1.8555 -0.29036,0.13323 -0.57259,0.14695 -3.04063,0.14782 l -2.72056,10e-4 -0.41285,-0.23675 z m -51.23789,-4.48273 0,-1.36019 1.16024,0 1.16024,0 0,-9.68208 0,-9.68195 10.04209,0 c 5.52314,0 10.04105,0.027 10.0398,0.0605 -10e-4,0.0335 -0.35777,0.63612 -0.79225,1.34031 l -0.78999,1.28022 -7.72951,0.0205 -7.72951,0.0205 0,9.68163 0,9.68154 -2.68055,0 -2.68056,0 0,-1.36019 z m 6.16128,-12.88264 0,-4.40092 7.13068,0 7.13068,0 -0.11423,0.18002 c -0.0628,0.0994 -0.43604,0.71078 -0.82937,1.35932 l -0.71514,1.1793 -4.84101,0.0205 -4.84101,0.0205 -0.0216,1.70032 -0.0216,1.70034 6.48293,0 6.48295,0 0,1.32031 0,1.32021 -7.92164,0 -7.92166,0 0,-4.40083 z"
       id="path3110"
       inkscape:connector-curvature="0" />
  </g>
</svg>
