<?xml version="1.0" encoding="UTF-8" standalone="no"?>
<!-- Created with Inkscape (http://www.inkscape.org/) -->

<svg
   xmlns:dc="http://purl.org/dc/elements/1.1/"
   xmlns:cc="http://creativecommons.org/ns#"
   xmlns:rdf="http://www.w3.org/1999/02/22-rdf-syntax-ns#"
   xmlns:svg="http://www.w3.org/2000/svg"
   xmlns="http://www.w3.org/2000/svg"
   xmlns:sodipodi="http://sodipodi.sourceforge.net/DTD/sodipodi-0.dtd"
   xmlns:inkscape="http://www.inkscape.org/namespaces/inkscape"
   width="99.999969"
   height="13.67003"
   id="svg2"
   version="1.1"
   inkscape:version="0.48.4 r9939"
   sodipodi:docname="cinematek.svg">
  <defs
     id="defs4" />
  <sodipodi:namedview
     id="base"
     pagecolor="#ffffff"
     bordercolor="#666666"
     borderopacity="1.0"
     inkscape:pageopacity="0.0"
     inkscape:pageshadow="2"
     inkscape:zoom="0.9493291"
     inkscape:cx="46.163287"
     inkscape:cy="42.087633"
     inkscape:document-units="px"
     inkscape:current-layer="layer1"
     showgrid="false"
     inkscape:window-width="1276"
     inkscape:window-height="775"
     inkscape:window-x="0"
     inkscape:window-y="21"
     inkscape:window-maximized="1"
     fit-margin-top="0"
     fit-margin-left="0"
     fit-margin-right="0"
     fit-margin-bottom="0" />
  <metadata
     id="metadata7">
    <rdf:RDF>
      <cc:Work
         rdf:about="">
        <dc:format>image/svg+xml</dc:format>
        <dc:type
           rdf:resource="http://purl.org/dc/dcmitype/StillImage" />
        <dc:title />
      </cc:Work>
    </rdf:RDF>
  </metadata>
  <g
     inkscape:label="Layer 1"
     inkscape:groupmode="layer"
     id="layer1"
     transform="translate(-124.48187,-322.42812)">
    <path
       style="fill:#000000;fill-opacity:1"
       d="m 130.15809,336.08774 c -0.42585,-0.005 -1.23159,-0.15439 -1.79059,-0.33162 -0.64084,-0.20319 -1.30063,-0.5725 -1.7858,-0.99957 -0.45991,-0.40482 -0.97363,-1.09294 -1.27686,-1.71037 -0.31929,-0.6501 -0.58132,-1.54285 -0.70683,-2.40826 -0.15409,-1.06227 -0.15461,-1.68303 -0.003,-2.72782 0.10847,-0.74395 0.37953,-1.75099 0.60241,-2.23788 0.22291,-0.48689 0.71378,-1.21993 1.09083,-1.62897 0.38443,-0.41705 1.06824,-0.91163 1.55684,-1.12603 0.68813,-0.30193 1.1867,-0.38437 2.37153,-0.3921 1.30452,-0.009 1.63071,0.051 2.50039,0.45579 0.55008,0.25609 1.25052,0.70533 1.5565,0.99834 0.30601,0.29299 0.69578,0.80309 0.86615,1.13357 0.27898,0.54103 0.28487,0.63641 0.0593,0.95847 -0.1378,0.1967 -0.42205,0.35764 -0.63169,0.35764 -0.25269,0 -0.61854,-0.28148 -1.08524,-0.83496 -0.38724,-0.45923 -0.93127,-0.95248 -1.209,-1.09609 -0.27771,-0.14362 -0.89152,-0.32392 -1.36403,-0.40068 -0.52106,-0.0847 -1.18021,-0.0723 -1.67522,0.0317 -0.57029,0.11964 -1.02916,0.36748 -1.52304,0.82274 -0.38875,0.35835 -0.88282,1.04364 -1.09791,1.52286 -0.33783,0.75276 -0.39067,1.13213 -0.38828,2.78827 0.003,1.7112 0.0491,2.01537 0.43399,2.83376 0.23715,0.50426 0.64717,1.11912 0.91115,1.36639 0.26396,0.24725 0.75881,0.56605 1.09968,0.70844 0.34086,0.14238 1.05877,0.25887 1.59535,0.25887 0.73378,0 1.19997,-0.11367 1.88064,-0.4584 0.59372,-0.30072 1.10561,-0.73075 1.48814,-1.2502 0.38607,-0.52421 0.70595,-0.79178 0.94657,-0.79178 0.19993,0 0.48134,0.11786 0.62543,0.26194 0.14406,0.14408 0.26193,0.35782 0.26193,0.47499 0,0.11723 -0.21502,0.53322 -0.47784,0.92453 -0.26281,0.39132 -0.79896,0.96559 -1.19142,1.27619 -0.39249,0.31058 -1.19803,0.71431 -1.79009,0.89717 -0.59205,0.18287 -1.42487,0.32828 -1.85069,0.32313 z m 8.38845,-0.0261 c -0.18173,0.0264 -0.46216,-0.0487 -0.62319,-0.16669 -0.27188,-0.19936 -0.28965,-0.67796 -0.24884,-6.71169 0.0439,-6.49702 0.0439,-6.49702 0.50497,-6.65912 0.36519,-0.1284 0.52112,-0.10202 0.75013,0.12682 0.2622,0.26206 0.29303,0.85804 0.33149,6.40908 0.0327,4.71172 -0.007,6.21607 -0.17086,6.53689 -0.11718,0.22921 -0.36196,0.43832 -0.5437,0.46471 z m 4.77251,0.0353 c -0.16398,0 -0.42226,-0.13719 -0.57399,-0.30483 -0.24636,-0.27225 -0.27587,-0.97291 -0.27587,-6.5525 0,-4.96901 0.0459,-6.31039 0.22411,-6.55413 0.15965,-0.21833 0.34353,-0.27651 0.63934,-0.20226 0.31013,0.0778 1.48771,1.60977 4.65165,6.05146 2.33004,3.27099 4.33268,6.12332 4.45036,6.33853 0.15348,0.28067 0.1653,0.4822 0.0418,0.71287 -0.0947,0.17686 -0.31165,0.36587 -0.48219,0.42 -0.17055,0.0541 -0.41441,0.0565 -0.54192,0.005 -0.12756,-0.0512 -1.82586,-2.35051 -3.77408,-5.10944 l -3.54219,-5.01622 0,4.73519 c 0,4.01592 -0.0394,4.79145 -0.25951,5.10566 -0.14272,0.20376 -0.39363,0.37047 -0.55758,0.37047 z m 38.54103,0 c -0.11998,0 -0.37204,-0.15387 -0.56009,-0.34192 -0.20694,-0.20695 -0.30415,-0.46089 -0.24622,-0.64336 0.0526,-0.16581 0.87936,-2.39296 1.83722,-4.94922 0.95785,-2.55628 1.86357,-4.73699 2.01269,-4.84604 0.14915,-0.10899 0.39514,-0.15426 0.54667,-0.1005 0.15153,0.0537 0.36927,0.17033 0.48388,0.25902 0.1145,0.0887 0.20837,0.27569 0.20837,0.41561 0,0.13992 -0.79662,2.39984 -1.77028,5.02203 -0.97362,2.6222 -1.8881,4.8614 -2.03217,4.97601 -0.14404,0.11456 -0.36006,0.20836 -0.48007,0.20836 z m 9.33096,0 c -0.11633,0 -0.29382,-0.13177 -0.39441,-0.29282 -0.10062,-0.16103 -0.49548,-1.11743 -0.87756,-2.12532 -0.69475,-1.83253 -0.69475,-1.83253 -2.51743,-1.88016 -1.00248,-0.0262 -1.92089,-0.12914 -2.04093,-0.22877 -0.11998,-0.0996 -0.21827,-0.35031 -0.21827,-0.55706 0,-0.20674 0.10399,-0.4622 0.23109,-0.5677 0.15661,-0.12995 0.99792,-0.17685 2.60956,-0.14543 l 2.37845,0.0464 0.88315,2.3337 c 0.48573,1.28352 0.88669,2.46071 0.89099,2.61596 0.004,0.15524 -0.15887,0.39901 -0.36263,0.54174 -0.20377,0.14272 -0.46566,0.25949 -0.58201,0.25949 z m 4.61725,0 c -0.17161,0 -0.42879,-0.16673 -0.57152,-0.37047 -0.22054,-0.31488 -0.25948,-1.10456 -0.25948,-5.26177 0,-3.05293 0.0647,-5.01248 0.17255,-5.21373 0.10679,-0.19941 0.34838,-0.32241 0.63343,-0.32241 0.25349,0 0.55088,0.09 0.6609,0.20002 0.14692,0.1469 0.20004,1.56055 0.20004,5.32225 0,4.43431 -0.0352,5.15739 -0.26195,5.38417 -0.14406,0.14406 -0.40235,0.26194 -0.57397,0.26194 z m 27.73174,0 c -0.11058,0 -0.35861,-0.20057 -0.55142,-0.44569 -0.19281,-0.24512 -1.14151,-1.74357 -2.10824,-3.32987 -1.28874,-2.11475 -1.72909,-2.97427 -1.65055,-3.22172 0.0589,-0.18566 0.25207,-0.41511 0.42924,-0.50991 0.21878,-0.1171 0.42346,-0.11813 0.63817,-0.002 0.17387,0.093 1.18652,1.59109 2.25036,3.32901 1.06383,1.73791 1.93425,3.27293 1.93425,3.41113 0,0.1382 -0.16672,0.36804 -0.37049,0.51077 -0.20375,0.14272 -0.46085,0.25949 -0.57132,0.25949 z m -62.71342,-0.16732 c -3.2793,-5.3e-4 -3.65329,-0.0299 -4.13782,-0.32542 -0.34943,-0.21306 -0.59788,-0.54256 -0.72222,-0.95785 -0.11578,-0.38627 -0.16795,-1.53208 -0.13416,-2.93917 0.0554,-2.30612 0.0554,-2.30612 0.59985,-2.7921 0.54437,-0.48599 0.54437,-0.48599 4.03642,-0.48599 3.28189,0 3.50243,0.0194 3.66461,0.32243 0.0949,0.17733 0.1714,0.38361 0.17,0.4584 -7.1e-4,0.0748 -0.0735,0.24849 -0.16028,0.38602 -0.12813,0.20315 -0.76066,0.26566 -3.37298,0.33339 l -3.21523,0.0833 -0.0466,2.12532 c -0.0257,1.16893 -0.0257,2.1403 0,2.15862 0.0257,0.0183 1.65941,0.0747 3.63055,0.12496 3.58388,0.0918 3.58388,0.0918 3.6376,0.56022 0.0296,0.25767 -0.036,0.57646 -0.14544,0.70844 -0.16209,0.19531 -0.86982,0.23985 -3.8043,0.23933 z m 7.22136,7.1e-4 c -0.21144,0 -0.50229,-0.11786 -0.64636,-0.26195 -0.22864,-0.22865 -0.26195,-1.04214 -0.26195,-6.39918 0,-5.7004 0.0216,-6.16408 0.30527,-6.51422 0.22842,-0.28211 0.41004,-0.3507 0.72153,-0.27252 0.22895,0.0574 0.51434,0.31257 0.63421,0.56688 0.11984,0.25433 1.29563,2.82169 2.61284,5.70525 1.47509,3.22922 2.35844,5.35782 2.29993,5.54214 -0.0522,0.16461 -0.27735,0.34506 -0.50025,0.40099 -0.22288,0.0559 -0.49917,0.0652 -0.61396,0.0208 -0.11479,-0.0445 -0.99638,-1.79657 -1.95902,-3.89356 l -1.75028,-3.81273 -0.0447,4.2371 c -0.0293,2.78469 -0.10777,4.31316 -0.22878,4.45902 -0.10131,0.12205 -0.35716,0.22192 -0.56859,0.22192 z m 10.09736,0 c -0.26641,0 -0.54504,-0.0938 -0.61923,-0.20837 -0.0743,-0.11458 -0.17237,-2.08365 -0.2182,-4.37568 l -0.0832,-4.1673 -1.07346,2.38122 c -0.59041,1.30967 -1.17623,2.46651 -1.30182,2.57073 -0.15555,0.12909 -0.37136,0.13944 -0.6768,0.0325 -0.25532,-0.0895 -0.46958,-0.30334 -0.49751,-0.49672 -0.027,-0.18684 0.18727,-0.86043 0.47613,-1.49688 0.28887,-0.63647 1.16036,-2.58141 1.93664,-4.32211 0.77629,-1.74069 1.49967,-3.22103 1.60752,-3.28961 0.10791,-0.0686 0.322,-0.12585 0.47587,-0.12727 0.1539,-7e-4 0.39769,0.11534 0.54177,0.2594 0.22868,0.22868 0.26194,1.0448 0.26194,6.4286 0,3.93207 -0.0625,6.28351 -0.17256,6.4891 -0.10974,0.20521 -0.34863,0.32242 -0.65694,0.32242 z m 29.85523,-0.0101 c -1.98283,-0.006 -3.75519,-0.072 -3.93854,-0.14702 -0.18336,-0.0751 -0.48341,-0.30297 -0.66677,-0.50649 -0.29581,-0.32833 -0.33941,-0.64886 -0.38693,-2.84488 -0.0436,-2.01628 -0.004,-2.58029 0.2164,-3.04375 0.14847,-0.31288 0.45738,-0.65428 0.68649,-0.75866 0.26818,-0.12217 1.63278,-0.18979 3.83125,-0.18979 3.38697,0 3.4159,0.002 3.5602,0.37505 0.0963,0.24802 0.0734,0.48799 -0.0672,0.70846 -0.19835,0.31095 -0.42138,0.33642 -3.31409,0.37871 -2.91669,0.0426 -3.11216,0.0654 -3.28166,0.38209 -0.1037,0.1938 -0.16263,1.04146 -0.13878,1.99662 0.0227,0.91291 0.0992,1.75363 0.16995,1.86824 0.0936,0.15176 1.09314,0.23106 3.67708,0.29176 3.54858,0.0833 3.54858,0.0833 3.6023,0.55181 0.0294,0.25768 -0.0359,0.57648 -0.14543,0.70846 -0.16258,0.1959 -0.86096,0.23802 -3.80429,0.22939 z m 7.11903,0.0101 c -0.28505,0 -0.5267,-0.12294 -0.63343,-0.32244 -0.0981,-0.1834 -0.17256,-1.4633 -0.17256,-2.96859 0,-1.86705 0.0613,-2.72279 0.20838,-2.90636 0.1145,-0.14309 1.3413,-1.18884 2.72603,-2.32388 1.38473,-1.13504 3.24586,-2.66379 4.13583,-3.39724 0.89001,-0.73345 1.79884,-1.40347 2.01966,-1.48895 0.30894,-0.11964 0.47948,-0.0849 0.73992,0.15084 0.18611,0.16845 0.33842,0.44071 0.33842,0.60499 0,0.18849 -1.56535,1.57829 -4.24216,3.76642 l -4.24217,3.4677 -0.008,2.50872 c -0.007,1.71875 -0.0714,2.57172 -0.20852,2.70875 -0.11002,0.11001 -0.40743,0.20004 -0.6609,0.20004 z m -63.23308,-4.20156 c -0.27551,0.027 -0.59431,-0.0443 -0.70846,-0.15835 -0.15483,-0.15483 -0.20755,-1.29487 -0.20755,-4.4878 0,-3.67418 0.0369,-4.3108 0.26,-4.49603 0.18591,-0.1543 0.38778,-0.17084 0.70844,-0.0581 0.44844,0.1577 0.44844,0.1577 0.44844,4.65438 0,4.49667 0,4.49667 -0.50087,4.54586 z m 36.87118,-2.13283 c -0.13233,0 -0.32183,-0.0978 -0.42111,-0.21753 -0.0992,-0.11964 -0.67429,-1.55737 -1.27777,-3.19496 -0.60349,-1.6376 -1.05861,-3.07809 -1.01141,-3.20112 0.0471,-0.12307 0.27825,-0.31134 0.51339,-0.41848 0.35046,-0.15968 0.47545,-0.14695 0.69298,0.0706 0.14596,0.14596 0.74145,1.52822 1.32329,3.07169 0.58183,1.54346 1.05973,2.97244 1.06198,3.1755 0.003,0.20305 -0.14101,0.44683 -0.31834,0.54174 -0.17733,0.0949 -0.43068,0.17256 -0.56301,0.17256 z m 26.8061,-1.91421 c -0.18336,0.11521 -0.4459,0.17188 -0.58342,0.12584 -0.13752,-0.046 -0.34382,-0.20186 -0.45839,-0.34636 -0.14206,-0.1791 -0.20838,-0.93862 -0.20838,-2.38596 0,-1.70795 0.0512,-2.17447 0.26196,-2.38518 0.14405,-0.14407 0.40125,-0.26195 0.57151,-0.26195 0.17025,0 0.42951,0.1199 0.57612,0.26654 0.22298,0.223 0.25897,0.63507 0.22025,2.52203 -0.042,2.04671 -0.077,2.27489 -0.37965,2.465 z m -58.92972,0.0806 c -0.32411,0 -0.54744,-0.11787 -0.675,-0.35617 -0.12152,-0.22704 -0.16719,-0.98903 -0.12601,-2.10169 0.064,-1.72654 0.0706,-1.75078 0.60753,-2.23061 0.54292,-0.48511 0.54292,-0.48511 4.41247,-0.44038 3.86955,0.0447 3.86955,0.0447 3.91974,0.55901 0.0282,0.28986 -0.0501,0.59747 -0.17951,0.70489 -0.15157,0.12573 -1.38762,0.20602 -3.63407,0.23585 l -3.40438,0.0452 -0.0832,1.58357 c -0.0459,0.87098 -0.14403,1.67735 -0.21821,1.79195 -0.0741,0.11458 -0.35283,0.20837 -0.61923,0.20837 z m 47.26042,-0.0342 c -0.27548,0.027 -0.59428,-0.0443 -0.70841,-0.15836 -0.13893,-0.13898 -0.20756,-0.78003 -0.20756,-1.94043 0,-1.3279 0.0659,-1.84437 0.2818,-2.20994 0.155,-0.26238 0.47416,-0.55674 0.70927,-0.65412 0.27028,-0.1119 1.80614,-0.16052 4.17721,-0.13209 3.74976,0.045 3.74976,0.045 3.80348,0.51347 0.0296,0.25765 -0.036,0.57645 -0.14542,0.70844 -0.16137,0.1944 -0.84208,0.23995 -3.58611,0.23995 -2.5265,0 -3.4212,0.0529 -3.5218,0.20836 -0.0741,0.11458 -0.17235,0.92099 -0.2182,1.79195 -0.0832,1.58357 -0.0832,1.58357 -0.58426,1.63276 z m -8.09208,-3.63562 c -3.22289,0.002 -4.48005,-0.0518 -4.62571,-0.19749 -0.11002,-0.11 -0.20001,-0.32891 -0.20001,-0.48643 0,-0.15754 0.0455,-0.40507 0.10118,-0.55009 0.089,-0.23173 0.66518,-0.26367 4.75609,-0.26367 4.65492,0 4.65492,0 4.79435,0.37505 0.0766,0.20628 0.0985,0.48758 0.0484,0.6251 -0.0499,0.13753 -0.17146,0.30515 -0.26981,0.3725 -0.0984,0.0673 -2.17041,0.12358 -4.60454,0.12496 z"
       id="path3144"
       inkscape:connector-curvature="0"
       inkscape:export-filename="/home/ludi/wrk/osp.work.balsamine.2013-2014/pack-com/partenaires/cinematek.png"
       inkscape:export-xdpi="199.98"
       inkscape:export-ydpi="199.98" />
  </g>
</svg>
