<?xml version="1.0" encoding="UTF-8" standalone="no"?>
<!-- Created with Inkscape (http://www.inkscape.org/) -->

<svg
   xmlns:dc="http://purl.org/dc/elements/1.1/"
   xmlns:cc="http://creativecommons.org/ns#"
   xmlns:rdf="http://www.w3.org/1999/02/22-rdf-syntax-ns#"
   xmlns:svg="http://www.w3.org/2000/svg"
   xmlns="http://www.w3.org/2000/svg"
   xmlns:sodipodi="http://sodipodi.sourceforge.net/DTD/sodipodi-0.dtd"
   xmlns:inkscape="http://www.inkscape.org/namespaces/inkscape"
   width="600"
   height="130"
   id="svg2"
   version="1.1"
   inkscape:version="0.48.3.1 r9886"
   sodipodi:docname="rtbf.svg">
  <defs
     id="defs4" />
  <sodipodi:namedview
     id="base"
     pagecolor="#ffffff"
     bordercolor="#666666"
     borderopacity="1.0"
     inkscape:pageopacity="0.0"
     inkscape:pageshadow="2"
     inkscape:zoom="0.9493291"
     inkscape:cx="271.21428"
     inkscape:cy="71.224993"
     inkscape:document-units="px"
     inkscape:current-layer="layer1"
     showgrid="false"
     inkscape:window-width="1680"
     inkscape:window-height="994"
     inkscape:window-x="0"
     inkscape:window-y="27"
     inkscape:window-maximized="1"
     fit-margin-top="0"
     fit-margin-left="0"
     fit-margin-right="0"
     fit-margin-bottom="0" />
  <metadata
     id="metadata7">
    <rdf:RDF>
      <cc:Work
         rdf:about="">
        <dc:format>image/svg+xml</dc:format>
        <dc:type
           rdf:resource="http://purl.org/dc/dcmitype/StillImage" />
        <dc:title></dc:title>
      </cc:Work>
    </rdf:RDF>
  </metadata>
  <g
     inkscape:label="Layer 1"
     inkscape:groupmode="layer"
     id="layer1"
     transform="translate(-103.78572,-235.23551)">
    <path
       style="fill:#00aa5a;fill-opacity:1"
       d="m 156.52493,336.04094 c -2.40397,-0.027 -6.95246,-0.8715 -10.10808,-1.87202 -3.61762,-1.14701 -7.34225,-3.23183 -10.08107,-5.64269 -2.59625,-2.28525 -5.49625,-6.16975 -7.20804,-9.65523 -1.80241,-3.66992 -3.28163,-8.70958 -3.99015,-13.59496 -0.86983,-5.99659 -0.87276,-9.50089 -0.018,-15.39886 0.61236,-4.19967 2.1425,-9.88455 3.40071,-12.6331 1.25835,-2.74855 4.02936,-6.88664 6.15785,-9.19575 2.17014,-2.35427 6.03033,-5.14622 8.78856,-6.35653 3.88457,-1.70445 6.69908,-2.16983 13.38759,-2.2135 7.36417,-0.0499 9.20552,0.28768 14.11498,2.57302 3.10529,1.44564 7.05934,3.98169 8.78666,5.63572 1.72741,1.65398 3.92775,4.53359 4.88952,6.39916 1.57483,3.0542 1.6081,3.59259 0.33494,5.41071 -0.7779,1.11038 -2.38249,2.01892 -3.56593,2.01892 -1.42646,0 -3.49174,-1.58902 -6.12634,-4.71348 -2.18599,-2.59243 -5.25715,-5.37686 -6.82492,-6.18753 -1.56773,-0.81076 -5.03277,-1.82857 -7.70015,-2.26193 -2.94142,-0.47789 -6.6624,-0.40788 -9.45683,0.17873 -3.21932,0.67542 -5.80972,2.07446 -8.59775,4.64447 -2.19454,2.02296 -4.9836,5.89148 -6.1978,8.59676 -1.90712,4.24938 -2.20538,6.39098 -2.19192,15.74011 0.018,9.65995 0.27733,11.377 2.44994,15.99694 1.33876,2.84656 3.65335,6.31755 5.14356,7.71339 1.49007,1.39579 4.2836,3.19546 6.20783,3.99924 1.9242,0.80374 5.97688,1.46139 9.00595,1.46139 4.14227,0 6.77396,-0.64171 10.61644,-2.58774 3.3516,-1.6976 6.24128,-4.12521 8.4007,-7.05753 2.17946,-2.95925 3.98521,-4.4697 5.34355,-4.4697 1.1286,0 2.71721,0.66534 3.53058,1.47867 0.81324,0.81333 1.47868,2.01995 1.47868,2.68138 0,0.66179 -1.21382,3.01008 -2.6975,5.2191 -1.48358,2.20904 -4.51022,5.45088 -6.72573,7.20421 -2.21565,1.75326 -6.76302,4.03239 -10.10525,5.06465 -3.34218,1.03235 -8.04356,1.85319 -10.44739,1.82411 z m 47.35381,-0.14722 c -1.02587,0.14902 -2.60895,-0.27461 -3.51795,-0.94095 -1.53481,-1.12541 -1.63512,-3.82719 -1.40475,-37.8883 0.24806,-36.67649 0.24806,-36.67649 2.85061,-37.59157 2.06155,-0.72482 2.94182,-0.57589 4.23457,0.71591 1.48016,1.47935 1.65421,4.84377 1.87133,36.18006 0.18459,26.59822 -0.0405,35.09045 -0.96455,36.90155 -0.66147,1.29392 -2.04331,2.47433 -3.06926,2.6233 z m 26.9414,0.19944 c -0.92565,0 -2.38367,-0.77443 -3.24022,-1.72079 -1.39075,-1.53689 -1.55732,-5.4922 -1.55732,-36.98965 0,-28.05065 0.25886,-35.6229 1.2651,-36.99884 0.90125,-1.23251 1.93927,-1.56093 3.6092,-1.1418 1.75068,0.4394 8.39826,9.08735 26.25908,34.1612 13.15336,18.46516 24.45856,34.5669 25.12287,35.78181 0.86641,1.58438 0.93313,2.72204 0.2359,4.02424 -0.53469,0.9984 -1.75933,2.06537 -2.72203,2.37092 -0.96275,0.30569 -2.33937,0.31919 -3.05923,0.027 -0.72009,-0.28903 -10.30716,-13.26892 -21.3051,-28.8434 l -19.9961,-28.31716 0,26.7307 c 0,22.67037 -0.2224,27.04833 -1.46495,28.82206 -0.80568,1.15027 -2.22213,2.09136 -3.14761,2.09136 z m 217.56883,0 c -0.67732,0 -2.10022,-0.86857 -3.16179,-1.93014 -1.16822,-1.16826 -1.71696,-2.60182 -1.38994,-3.63188 0.29713,-0.93601 4.96411,-13.50852 10.37131,-27.93895 5.4072,-14.43048 10.5201,-26.74089 11.36193,-27.35645 0.84192,-0.61528 2.23059,-0.87086 3.08597,-0.56733 0.85543,0.30343 2.0846,0.96153 2.73158,1.46215 0.64639,0.5008 1.17628,1.55633 1.17628,2.34621 0,0.78987 -4.49703,13.54737 -9.99346,28.34998 -5.4962,14.80262 -10.65854,27.44316 -11.47182,28.09013 -0.81315,0.64676 -2.0326,1.17623 -2.71006,1.17623 z m 52.67438,0 c -0.6567,0 -1.65862,-0.74382 -2.22645,-1.65299 -0.56802,-0.90904 -2.79709,-6.308 -4.95398,-11.99766 -3.92191,-10.34488 -3.92191,-10.34488 -14.21115,-10.61374 -5.65913,-0.14811 -10.8437,-0.729 -11.52134,-1.29144 -0.67728,-0.56238 -1.23215,-1.97754 -1.23215,-3.14468 0,-1.16709 0.58702,-2.60917 1.30454,-3.20474 0.8841,-0.73359 5.63338,-0.99831 14.7313,-0.82098 l 13.42659,0.26202 4.9855,13.17402 c 2.74202,7.24563 5.00548,13.891 5.02979,14.76737 0.0225,0.87635 -0.89689,2.25251 -2.0471,3.05819 -1.15035,0.80568 -2.62875,1.4649 -3.28555,1.4649 z m 26.06496,0 c -0.96878,0 -2.42058,-0.94118 -3.2263,-2.09135 -1.24497,-1.77752 -1.46481,-6.23534 -1.46481,-29.70332 0,-17.23414 0.36511,-28.29606 0.97409,-29.43213 0.60282,-1.12572 1.96661,-1.82007 3.57575,-1.82007 1.43101,0 3.10983,0.50801 3.73089,1.12914 0.82935,0.82927 1.12922,8.80954 1.12922,30.04476 0,25.03221 -0.19898,29.11411 -1.47872,30.39429 -0.81323,0.81324 -2.27129,1.47868 -3.24012,1.47868 z m 156.54903,0 c -0.6242,0 -2.02436,-1.1322 -3.11281,-2.51598 -1.08844,-1.38372 -6.444,-9.84264 -11.90131,-18.79749 -7.27507,-11.93805 -9.76088,-16.79011 -9.31753,-18.18703 0.3327,-1.04806 1.42299,-2.34332 2.4231,-2.87847 1.23508,-0.66108 2.39052,-0.66689 3.60254,-0.0135 0.98152,0.52511 6.69805,8.98191 12.70356,18.79264 6.00547,9.81076 10.91912,18.47609 10.91912,19.25629 0,0.78014 -0.94119,2.07762 -2.09149,2.88334 -1.15022,0.80567 -2.60157,1.46485 -3.22518,1.46485 z m -354.02487,-0.94451 c -18.51207,-0.003 -20.62328,-0.16883 -23.3585,-1.83704 -1.97255,-1.20275 -3.3751,-3.06283 -4.07705,-5.4072 -0.65355,-2.18053 -0.94806,-8.64876 -0.75732,-16.59197 0.31289,-13.0183 0.31289,-13.0183 3.38622,-15.76176 3.07305,-2.74342 3.07305,-2.74342 22.78607,-2.74342 18.52666,0 19.77168,0.1094 20.6872,1.82011 0.53551,1.00106 0.96757,2.16554 0.95964,2.58774 -0.004,0.42228 -0.41508,1.40277 -0.9048,2.17914 -0.7233,1.14679 -4.294,1.49965 -19.04088,1.88201 l -18.15034,0.47005 -0.26291,11.99769 c -0.14496,6.5987 -0.14496,12.08225 0,12.18566 0.14496,0.1031 9.36755,0.42139 20.49488,0.70542 20.23147,0.518 20.23147,0.518 20.53472,3.16251 0.16702,1.45454 -0.20304,3.25417 -0.82103,3.9992 -0.91502,1.10258 -4.91026,1.35397 -21.47573,1.35104 z m 40.76546,0.004 c -1.19361,0 -2.83548,-0.66534 -3.64881,-1.47872 -1.29067,-1.29076 -1.47872,-5.88305 -1.47872,-36.12419 0,-32.17946 0.122,-34.79696 1.72327,-36.77356 1.2895,-1.59253 2.31474,-1.97974 4.07312,-1.53837 1.29248,0.32414 2.90351,1.76447 3.58021,3.2001 0.67651,1.43569 7.31401,15.92874 14.7498,32.20684 8.32705,18.22934 13.31367,30.2455 12.98337,31.28604 -0.29489,0.92921 -1.56566,1.94787 -2.82397,2.2636 -1.25816,0.31558 -2.81788,0.36826 -3.46589,0.1175 -0.64798,-0.25121 -5.62465,-10.14184 -11.0589,-21.97963 l -9.88051,-21.52332 -0.25211,23.91896 c -0.16567,15.71989 -0.60839,24.3483 -1.29148,25.17172 -0.57193,0.68894 -2.01622,1.25277 -3.20978,1.25277 z m 57.00084,0 c -1.50393,0 -3.07684,-0.52943 -3.49566,-1.17627 -0.41912,-0.64681 -0.97305,-11.76248 -1.23174,-24.70126 l -0.46978,-23.5249 -6.05985,13.44225 c -3.33291,7.39325 -6.63997,13.92374 -7.3489,14.5121 -0.87812,0.72874 -2.0964,0.78717 -3.82061,0.18323 -1.44135,-0.50507 -2.65086,-1.71237 -2.80856,-2.80406 -0.15217,-1.05468 1.0572,-4.85719 2.68782,-8.45004 1.63075,-3.59295 6.55038,-14.57238 10.93257,-24.39882 4.38228,-9.82644 8.46584,-18.18311 9.07465,-18.57028 0.60916,-0.38717 1.81772,-0.71041 2.68637,-0.71842 0.8688,-0.004 2.24501,0.65107 3.05834,1.46431 1.29095,1.29094 1.47867,5.89801 1.47867,36.29027 0,22.19699 -0.3525,35.47113 -0.97413,36.63174 -0.61948,1.15845 -1.96804,1.82011 -3.70847,1.82011 z m 168.53637,-0.0572 c -11.19328,-0.036 -21.19849,-0.40653 -22.23354,-0.82994 -1.03505,-0.42364 -2.72888,-1.71031 -3.76397,-2.85917 -1.66992,-1.85351 -1.91605,-3.6629 -2.18428,-16.05974 -0.24626,-11.38214 -0.0225,-14.56604 1.22162,-17.18232 0.83813,-1.76622 2.58197,-3.69348 3.87531,-4.28274 1.51392,-0.68966 9.21722,-1.07138 21.62789,-1.07138 19.11983,0 19.28317,0.0135 20.09775,2.11719 0.54344,1.40012 0.41419,2.75477 -0.37951,3.99934 -1.11974,1.75537 -2.37876,1.89916 -18.70845,2.1379 -16.4651,0.24041 -17.56855,0.36916 -18.52539,2.15695 -0.5854,1.09402 -0.91805,5.87914 -0.78344,11.27116 0.12831,5.15347 0.56005,9.89946 0.95938,10.54644 0.52839,0.85668 6.17091,1.30436 20.75756,1.64701 20.03221,0.47005 20.03221,0.47005 20.33547,3.11506 0.16612,1.45459 -0.20259,3.25426 -0.82099,3.99929 -0.91781,1.10591 -4.8602,1.34366 -21.47567,1.29495 z m 40.18782,0.0572 c -1.60914,0 -2.97333,-0.69402 -3.57579,-1.82019 -0.5537,-1.03532 -0.97414,-8.26051 -0.97414,-16.75806 0,-10.53973 0.3462,-15.37048 1.17632,-16.40675 0.6464,-0.80779 7.57184,-6.71116 15.38878,-13.11861 7.81697,-6.40744 18.3233,-15.03743 23.34728,-19.17782 5.02422,-4.14043 10.15468,-7.92277 11.40119,-8.40534 1.74403,-0.67538 2.70673,-0.47932 4.17694,0.85155 1.05063,0.95091 1.91047,2.48784 1.91047,3.41521 0,1.06404 -8.83664,8.90965 -23.94755,21.26192 l -23.94753,19.57558 -0.0477,14.16206 c -0.0405,9.70255 -0.40338,14.51765 -1.17714,15.29122 -0.62109,0.621 -2.30001,1.12923 -3.73088,1.12923 z m -356.95845,-23.7183 c -1.55526,0.15262 -3.35493,-0.24986 -3.99934,-0.89391 -0.87402,-0.87406 -1.17165,-7.30974 -1.17165,-25.3342 0,-20.74118 0.20845,-24.33497 1.46775,-25.38065 1.04945,-0.871 2.18908,-0.96441 3.99924,-0.32775 2.53146,0.89023 2.53146,0.89023 2.53146,26.27453 0,25.3843 0,25.3843 -2.82746,25.66194 z m 208.1423,-12.0401 c -0.74701,0 -1.81677,-0.5523 -2.37723,-1.22796 -0.56005,-0.67539 -3.80642,-8.79157 -7.21316,-18.03598 -3.40675,-9.24443 -5.97598,-17.37619 -5.70951,-18.0707 0.26607,-0.69475 1.57074,-1.75753 2.89815,-2.36238 1.97839,-0.90139 2.68395,-0.82953 3.91191,0.39843 0.824,0.824 4.18558,8.62702 7.47014,17.34007 3.28451,8.71305 5.98233,16.77979 5.99502,17.92609 0.018,1.14625 -0.79599,2.52241 -1.79705,3.0582 -1.00106,0.53591 -2.43126,0.97414 -3.17827,0.97414 z m 151.32367,-10.80598 c -1.03506,0.6504 -2.51711,0.97031 -3.29343,0.71041 -0.77632,-0.25976 -1.9409,-1.13954 -2.5877,-1.95526 -0.80193,-1.011 -1.17632,-5.29861 -1.17632,-13.46903 0,-9.64159 0.28903,-12.27511 1.47877,-13.46462 0.81323,-0.81329 2.26513,-1.47872 3.22625,-1.47872 0.96113,0 2.42468,0.67682 3.25229,1.50464 1.25875,1.25885 1.46192,3.58502 1.24335,14.23717 -0.23681,11.55389 -0.43489,12.842 -2.14321,13.91523 z m -332.66544,0.45501 c -1.8296,0 -3.09034,-0.66535 -3.81044,-2.01063 -0.68601,-1.28167 -0.94379,-5.58318 -0.71135,-11.8643 0.36106,-9.74652 0.39842,-9.88334 3.42961,-12.59205 3.06486,-2.73847 3.06486,-2.73847 24.90894,-2.48599 21.84408,0.25255 21.84408,0.25255 22.12739,3.15566 0.15937,1.63634 -0.28273,3.3728 -1.01336,3.97921 -0.85564,0.70974 -7.83331,1.163 -20.51477,1.33142 l -19.21812,0.25526 -0.46974,8.93945 c -0.25886,4.91676 -0.8131,9.46885 -1.23183,10.11578 -0.41823,0.64681 -1.99176,1.17628 -3.49561,1.17628 z m 266.79087,-0.19313 c -1.55512,0.15262 -3.35483,-0.24986 -3.99911,-0.89396 -0.78425,-0.78452 -1.17168,-4.40334 -1.17168,-10.95392 0,-7.4962 0.37231,-10.41173 1.59082,-12.4754 0.87495,-1.48119 2.67665,-3.14288 4.00388,-3.69257 1.52576,-0.63171 10.19587,-0.90616 23.58085,-0.74566 21.16788,0.25391 21.16788,0.25391 21.47114,2.89856 0.16702,1.4545 -0.20304,3.25416 -0.82094,3.99925 -0.91093,1.0974 -4.7536,1.35455 -20.24399,1.35455 -14.26241,0 -19.3131,0.29848 -19.88103,1.17623 -0.41823,0.6468 -0.97292,5.19908 -1.23174,10.11574 -0.46973,8.93945 -0.46973,8.93945 -3.2982,9.21714 z m -45.68082,-20.52351 c -18.1936,0.0135 -25.29039,-0.29263 -26.11268,-1.11483 -0.62105,-0.62096 -1.1291,-1.85675 -1.1291,-2.74598 0,-0.88933 0.25662,-2.28665 0.57117,-3.10533 0.50224,-1.3081 3.75506,-1.48845 26.84871,-1.48845 26.27763,0 26.27763,0 27.06471,2.11724 0.43264,1.16448 0.55613,2.75242 0.27327,3.52874 -0.28182,0.77637 -0.96788,1.72264 -1.52311,2.10284 -0.55532,0.37996 -12.25224,0.69758 -25.99315,0.70541 z"
       id="path3144"
       inkscape:connector-curvature="0"
       inkscape:export-filename="/home/ludi/wrk/osp.work.balsamine.2013-2014/pack-com/partenaires/cinematek.png"
       inkscape:export-xdpi="199.98"
       inkscape:export-ydpi="199.98" />
  </g>
</svg>
