<?xml version="1.0" encoding="UTF-8" standalone="no"?>
<!-- Created with Inkscape (http://www.inkscape.org/) -->

<svg
   xmlns:dc="http://purl.org/dc/elements/1.1/"
   xmlns:cc="http://creativecommons.org/ns#"
   xmlns:rdf="http://www.w3.org/1999/02/22-rdf-syntax-ns#"
   xmlns:svg="http://www.w3.org/2000/svg"
   xmlns="http://www.w3.org/2000/svg"
   xmlns:sodipodi="http://sodipodi.sourceforge.net/DTD/sodipodi-0.dtd"
   xmlns:inkscape="http://www.inkscape.org/namespaces/inkscape"
   width="55.617344"
   height="61.278706"
   id="svg3978"
   version="1.1"
   inkscape:version="0.48.4 r9939"
   sodipodi:docname="cocof.svg">
  <defs
     id="defs3980" />
  <sodipodi:namedview
     id="base"
     pagecolor="#ffffff"
     bordercolor="#666666"
     borderopacity="1.0"
     inkscape:pageopacity="0.0"
     inkscape:pageshadow="2"
     inkscape:zoom="2.1345786"
     inkscape:cx="35.086193"
     inkscape:cy="47.805477"
     inkscape:document-units="px"
     inkscape:current-layer="layer1"
     showgrid="false"
     inkscape:window-width="476"
     inkscape:window-height="456"
     inkscape:window-x="0"
     inkscape:window-y="21"
     inkscape:window-maximized="0"
     fit-margin-top="0"
     fit-margin-left="0"
     fit-margin-right="0"
     fit-margin-bottom="0" />
  <metadata
     id="metadata3983">
    <rdf:RDF>
      <cc:Work
         rdf:about="">
        <dc:format>image/svg+xml</dc:format>
        <dc:type
           rdf:resource="http://purl.org/dc/dcmitype/StillImage" />
        <dc:title />
      </cc:Work>
    </rdf:RDF>
  </metadata>
  <g
     inkscape:label="Layer 1"
     inkscape:groupmode="layer"
     id="layer1"
     transform="translate(-343.6199,-624.57998)">
    <path
       style="fill:#00aa5a;fill-opacity:1;fill-rule:nonzero;stroke:none"
       d="m 343.90619,624.5812 c -0.15549,0.0164 -0.28643,0.16201 -0.28626,0.31837 l 0,26.19653 c -3.4e-4,0.0215 0.002,0.043 0.005,0.0642 l 0,21.95617 c 0,1.34581 0.42789,2.41634 1.13701,3.14348 0.35852,0.36759 0.7864,0.64351 1.25739,0.82938 1.38572,1.09966 3.73279,2.3944 7.5818,2.32748 l 11.73386,0.0401 c 1.97811,-0.0785 3.00831,0.50294 3.61166,1.26543 0.002,0.005 0.003,0.007 0.005,0.0106 0.45399,0.76664 0.81131,1.59314 1.08885,2.60842 0.0174,0.0652 0.0596,0.12121 0.11236,0.16319 0.006,0.0189 0.0133,0.0401 0.0187,0.0589 l 0,0.0212 c 0.0385,0.0618 0.0929,0.11664 0.13912,0.15518 0.73967,0.72419 1.16439,1.19418 2.14291,2.11885 0.26196,-3.79086 2.61901,-5.85441 6.53308,-6.32445 l 15.4017,0 c 3.18211,0.0848 4.90158,-1.78123 4.84764,-4.14669 l 0,-48.50854 -2.48802,-2.29808 -0.0348,0.0348 c -0.0401,-0.0191 -0.0836,-0.0296 -0.12842,-0.0294 l -26.15373,0 c -0.022,-0.005 -0.0445,-0.006 -0.0669,-0.006 l -26.42661,0 c -0.0107,-4.6e-4 -0.0214,-4.6e-4 -0.0321,0 z m 0.35314,0.6394 25.76313,0 0,25.13176 -25.76313,0 0,-25.13176 z m 39.55163,2.49338 c 0.065,-0.003 0.12101,0.003 0.16587,0.0187 10e-4,2.6e-4 0.002,-2.6e-4 0.003,0 0.0884,0.0885 0.15581,0.17297 0.19797,0.24613 0.0336,0.11702 0.0384,0.29777 0.0107,0.52704 -0.0517,0.0482 -0.0799,0.0997 -0.12574,0.17657 -0.0932,0.15633 -0.22031,0.4013 -0.36919,0.71965 -0.29778,0.63669 -0.68364,1.55505 -1.04069,2.54153 -0.35705,0.98649 -0.68564,2.04048 -0.86412,2.95354 -0.17849,0.91305 -0.23027,1.68277 0.0615,2.14826 l 0.10968,0.17657 0.13377,-0.16052 c 0.17186,-0.20624 0.33939,-0.57 0.52436,-1.06209 0.18498,-0.4921 0.37895,-1.10731 0.55914,-1.78978 0.36037,-1.36493 0.67054,-2.99439 0.76781,-4.42227 0.0231,-0.36954 0.28645,-0.67671 0.47085,-1.02999 0.0163,-0.0312 0.0256,-0.0666 0.0402,-0.099 l 0.0187,0.003 c 0.002,-0.008 0.002,-0.0134 0.003,-0.0214 3.4e-4,-0.002 -3.4e-4,-0.003 0,-0.006 0.002,-0.0138 10e-4,-0.0239 0.003,-0.0375 0.0528,-0.13437 0.093,-0.27478 0.0749,-0.43072 -0.005,-0.0377 -0.0272,-0.0771 -0.0375,-0.11504 0.0785,0.0632 0.12179,0.0878 0.206,0.16052 0.28537,0.2465 0.58973,0.54069 0.81864,0.82132 0.2268,0.27804 0.36396,0.55063 0.36652,0.70093 -0.0806,0.94401 -0.35788,1.69494 -0.70896,2.37834 -0.12007,0.22146 -0.24578,0.44242 -0.37989,0.66347 -0.30711,0.5062 -0.63573,1.01672 -0.92566,1.54899 -4.5e-4,0.001 -0.002,0.002 -0.003,0.003 -0.128,0.23517 -0.24944,0.47317 -0.35582,0.71965 -0.11367,0.26305 -0.21606,0.53845 -0.29427,0.83202 l 0.14713,0.0375 0.14447,0.0402 c 0.0719,-0.27003 0.16679,-0.53197 0.27823,-0.78922 0.102,-0.23548 0.22079,-0.46717 0.34512,-0.69558 3.3e-4,-4.6e-4 -3.5e-4,-0.002 0,-0.003 0.25645,-0.46128 0.54798,-0.90353 0.83201,-1.36707 0.16615,-0.27117 0.32531,-0.55432 0.4762,-0.84808 0.38694,-0.71291 0.68499,-1.4577 0.73304,-2.28737 1.11496,0.45995 1.55195,1.03461 1.59715,1.656 0.048,0.65953 -0.34609,1.41866 -0.91763,2.12954 -1.14307,1.42177 -2.94818,2.62715 -2.94818,2.62715 l 0.0963,0.27288 c 0.19486,-0.0165 0.67506,0.0158 1.12362,0.20065 0.44856,0.18486 0.86634,0.50793 1.02196,1.09152 l 0.0402,0.15516 0.1525,-0.0508 c 1.00717,-0.34456 2.42421,-0.61991 3.80963,-0.38792 1.38541,0.232 2.74057,0.9578 3.67853,2.63784 0.19253,0.3417 0.19156,0.67012 0.0669,0.97916 -0.12468,0.30905 -0.38182,0.59384 -0.70628,0.79725 -0.64893,0.40682 -1.53246,0.48588 -2.12955,-0.0936 l 0,0.003 c -4.2e-4,-4.3e-4 -0.002,4.3e-4 -0.003,0 -0.58152,-0.57754 -1.29301,-1.22482 -2.10279,-1.68544 -0.81039,-0.46097 -1.72626,-0.73954 -2.69135,-0.55379 -3.8256,0.75104 -4.76284,3.50006 -5.41481,4.6791 -10e-4,0.002 -0.002,0.005 -0.003,0.006 l 0.25949,0.14981 c 0.001,-0.002 0.002,-0.004 0.003,-0.005 0.90462,-1.48817 2.16427,-2.77491 3.46986,-3.31202 1.30617,-0.53734 2.64276,-0.36309 3.83906,1.1049 10e-4,10e-4 0.002,0.002 0.003,0.003 0.53753,0.68422 -0.52391,2.01417 -1.34835,1.51689 -0.98935,-0.59752 -1.86946,-0.86989 -2.61912,-0.87482 -0.74966,-0.005 -1.3694,0.26592 -1.7978,0.73303 -0.82131,0.89552 -0.93857,2.47213 -0.2381,4.20022 -1.123,-0.0614 -1.70364,-0.56912 -2.03323,-1.25739 -0.35154,-0.73414 -0.39595,-1.68294 -0.39595,-2.45593 l 0,-0.11771 -0.11503,-0.0294 c -0.63449,-0.15055 -0.9403,-0.52895 -1.12095,-1.04603 -0.18066,-0.51711 -0.21309,-1.16913 -0.24345,-1.78711 -0.0304,-0.61798 -0.0525,-1.201 -0.27823,-1.62123 -0.11288,-0.21011 -0.28817,-0.37979 -0.52972,-0.4548 -0.24154,-0.075 -0.53664,-0.0603 -0.90157,0.0428 -0.38028,0.10737 -0.78984,0.42681 -1.15573,0.71431 -0.18295,0.14374 -0.35161,0.28076 -0.48691,0.37722 -0.0676,0.0482 -0.12718,0.0866 -0.17122,0.10968 -0.0304,0.016 -0.0521,0.0223 -0.0589,0.024 l 0,0.003 c -0.86371,-0.0587 -1.42309,-0.33063 -1.73091,-0.68487 -0.30851,-0.35503 -0.38177,-0.80204 -0.24881,-1.27612 0.26595,-0.94815 1.40559,-1.97139 3.20234,-2.1777 0.0388,-0.005 0.092,-0.002 0.13644,-0.003 0.80044,0.0869 2.04719,0.40732 2.80371,1.13166 0.002,0.002 0.004,0.004 0.006,0.006 0.11421,0.11211 0.21653,0.23023 0.30231,0.35582 0.11255,0.16653 0.20427,0.34283 0.28091,0.52703 0.15328,0.36841 0.24247,0.76825 0.29696,1.18784 0.0272,0.20979 0.0478,0.42435 0.0615,0.64207 0.0412,0.65313 0.0367,1.33526 0.091,2.00113 0.0181,0.22194 0.0431,0.44124 0.0776,0.65812 l 0.14982,-0.024 0.14713,-0.0214 c -0.0329,-0.2069 -0.0561,-0.42046 -0.0722,-0.63672 -0.0484,-0.64878 -0.0377,-1.33095 -0.0803,-2.00112 -0.0142,-0.22339 -0.0345,-0.44736 -0.0642,-0.66615 -0.0889,-0.65637 -0.26626,-1.28314 -0.6394,-1.83525 -0.1003,-0.14684 -0.2164,-0.28326 -0.34243,-0.40665 -0.001,-0.001 -0.002,-0.002 -0.003,-0.003 -0.38542,-0.3783 -0.88213,-0.66773 -1.38313,-0.87215 -0.56289,-0.22966 -1.12009,-0.34507 -1.56237,-0.34511 0.14656,-0.54261 0.39629,-0.91068 0.69825,-1.14503 0.33285,-0.25831 0.73079,-0.36722 1.12095,-0.37989 0.39016,-0.0127 0.77043,0.0732 1.04872,0.19798 0.12653,0.0567 0.22294,0.12247 0.29695,0.18459 0.056,0.0828 0.10619,0.168 0.16855,0.24881 l 0.33173,0.42804 -0.0642,-0.53774 c -0.016,-0.13601 -0.0969,-0.24582 -0.20332,-0.34244 -0.005,-0.004 -0.0116,-0.007 -0.016,-0.0107 -0.74863,-1.13639 -0.89166,-2.45752 -0.6715,-3.5635 0.22573,-1.13399 0.83719,-2.00495 1.46606,-2.22852 0.18495,0.31579 0.41903,0.94534 0.37454,1.31625 -1.7e-4,0.002 1.7e-4,0.004 0,0.005 -0.10512,0.64571 -0.14273,1.43861 -0.16052,2.24191 -0.0133,0.41395 -0.0203,0.82874 -0.016,1.24668 3.4e-4,0.0294 -4.3e-4,0.0618 0,0.091 10e-4,0.0693 0.005,0.11417 0.005,0.18192 0.007,0.35886 0.0163,0.71617 0.0348,1.07547 0.025,0.56052 0.0542,1.01343 0.0749,1.17178 1.7e-4,0.002 -1.7e-4,0.007 0,0.008 l 0.29963,-0.0321 c -0.0309,-0.3664 -0.05,-0.7344 -0.0696,-1.10222 -0.0159,-0.33977 -0.032,-0.72003 -0.0401,-1.14504 -0.002,-0.0847 -0.005,-0.16961 -0.006,-0.25415 -0.005,-0.37989 0.006,-0.77809 0.0133,-1.17445 0.023,-0.76299 0.0673,-1.51686 0.15784,-2.24993 0.001,-0.006 0.002,-0.0107 0.003,-0.016 2.5e-4,-0.002 -2.5e-4,-0.004 0,-0.006 0.0595,-0.3527 0.30736,-0.79025 0.64475,-1.19318 0.3389,-0.40472 0.76778,-0.77752 1.16643,-1.01929 0.29899,-0.18133 0.57769,-0.27722 0.77584,-0.28626 z m -28.35282,0.37454 c -0.26197,0.0231 -0.77049,1.21812 -0.77049,0.33976 -0.14639,0.10016 -0.30884,0.43308 -0.4013,0.618 -0.11557,0.22344 -0.30766,0.13847 -0.30766,-0.0696 -0.20032,0 -0.53238,0.90072 -0.53238,1.00859 0,0.13098 -0.0764,0.44613 0.016,0.43072 l 0.26218,-0.0535 c 0.20033,-0.0385 0.12178,-0.30006 0.28358,-0.43875 0.16951,-0.14639 0.1389,-0.36919 0.26218,-0.36919 0.0693,0 0.1709,-0.016 0.16319,0.11504 -0.0231,0.18491 -0.15516,0.31493 -0.15516,0.36116 0.3082,-0.15409 0.94042,-0.21499 1.29484,-0.0455 0.3159,0.13869 0.52276,-0.008 0.67685,-0.20868 0.32361,-0.45458 0.33987,-0.52468 0.27824,-0.91762 l -0.0455,-0.24613 c -0.15409,-1.17884 -1.02464,0.56203 -1.02464,-0.52436 z m 8.86861,0.57252 c 0.0231,0 -0.97274,1.15486 -1.58913,1.64799 -0.60868,0.48539 -1.64745,1.04721 -1.76302,1.13967 -0.11557,0.10015 0.86305,-0.35507 1.67206,-0.20868 0.80901,0.1541 0.53036,0.10134 0.54576,0.0936 0.50082,-0.33131 0.81672,-0.44646 1.34835,-0.824 -0.077,0.0154 0.42345,-0.33141 -0.008,-0.13108 -0.42377,0.20803 -1.079,0.18524 -1.16375,0.20064 -0.0848,0.0154 -0.16138,-0.0861 -0.0535,-0.16319 0.10787,-0.077 0.17796,-0.0986 0.53238,-0.53774 0.34673,-0.43147 0.47888,-1.21725 0.47888,-1.21725 z m -9.59362,1.46338 c -0.37381,0.007 -0.47888,0.17657 -0.47888,0.17657 0.0771,-0.0385 0.67845,-0.25404 0.52436,0.4548 0.87064,-0.13868 1.22496,0.51538 1.21726,0.49226 -0.0154,-0.0231 -0.0368,-0.87717 -0.79189,-1.06209 -0.1907,-0.0462 -0.34625,-0.0637 -0.47085,-0.0615 z m -0.30766,0.36117 c -0.0128,-5e-5 -0.0267,0.002 -0.0402,0.008 -0.10787,0.0385 -0.0455,0.13109 -0.0455,0.13109 0,0 -0.0621,0.006 -0.13911,0.0294 -0.077,0.0231 -0.0445,0.12531 -0.0214,0.17924 0.0231,0.0462 0.11396,0.13772 0.15249,0.16854 0.027,0.0217 0.0372,0.0753 0.0401,0.0936 0,-0.0385 0.0982,-0.11567 0.14446,-0.13109 0.0539,-0.0231 0,-0.0776 0,-0.0776 0,0 -0.0375,-0.11568 -0.0375,-0.13109 0,-0.0231 0.0545,-0.0999 0.0776,-0.12307 0.027,-0.0202 -0.0416,-0.14682 -0.13109,-0.14714 z m -0.59391,0.15516 c -0.10017,0 -0.47889,0.14554 -0.47889,0.29964 -0.26967,0.70885 0.0472,-0.085 0.54041,-0.0696 l -0.0615,-0.23008 z m 0.14713,0.38525 c -0.0462,0 -0.4624,0.29161 -0.51633,0.29161 0.20803,0.0385 0.56288,-0.0776 0.71699,-0.0776 -0.10017,-0.25426 -0.10049,-0.19091 -0.20066,-0.21402 z m 1.16376,0.016 c -0.30452,-0.01 -0.55906,0.17121 -0.52436,0.2274 -0.034,0.0573 -0.0806,0.2368 -0.11504,0.71966 -0.0694,1.07097 -1.29484,1.46339 -1.29484,1.46339 0.24655,0.10786 0.5769,0.0689 0.74641,0.0535 0.15409,-0.0154 0.15485,0.055 0.14713,0.15517 -0.0153,0.10016 -0.21691,0.32382 -0.28625,0.64742 -0.0693,0.3236 0.11568,1.09388 0.13109,0.89355 0.0154,-0.20033 0.30113,-0.80291 0.59391,-1.00324 0.28508,-0.19262 0.36941,-0.35399 0.43875,-0.43874 0.0616,-0.0848 0.24816,-0.50039 0.23276,0.13911 -0.0154,0.6395 0.25286,1.23321 0.22204,1.10222 -0.0308,-0.17721 0.3327,-1.18633 0.35582,-1.27879 0.0231,-0.0925 0.27555,-0.98751 0.27555,-1.38045 0,-0.40066 -0.0139,-0.69955 -0.4762,-1.1156 -0.14206,-0.13002 -0.30015,-0.17986 -0.44677,-0.1846 z m -0.9631,0.4762 c -0.16952,0.20804 -0.57232,0.37883 -0.69559,0.60997 -0.17721,0.46229 0.59542,0.33774 0.69559,-0.0321 0.0539,-0.15409 0.0616,-0.45458 0,-0.57787 z m 7.73964,0.0267 c -0.41704,0.006 -0.82534,0.0825 -1.2467,0.2274 -0.97081,0.33132 -2.10128,1.21855 -2.57899,2.21248 -0.46999,0.98622 -0.47021,2.28 -0.4548,2.2954 l 0.38525,0.42271 c 0,0 0.20053,-1.73232 1.22528,-2.47198 1.02475,-0.73967 1.57736,-1.13368 2.77162,-1.3109 1.20195,-0.17721 1.91208,0.17775 2.15093,0.27021 0.23885,0.0925 1.02507,0.67867 1.16375,1.3644 0.1387,0.68573 0.0368,0.83212 0.0214,0.96311 -0.008,0.13868 0.29503,-0.43908 0.2488,-1.21727 -0.0539,-0.77048 -0.85716,-2.04157 -1.97437,-2.43452 -0.62409,-0.22103 -1.17601,-0.32916 -1.71219,-0.32104 z m -8.36567,0.0321 c -0.35298,0.0352 -0.6394,0.27262 -0.6394,0.51099 -0.0154,0.1695 0.14072,0.11461 0.17925,0.16854 0.18781,-0.20225 0.21081,-0.62711 0.47352,-0.67953 -0.005,3.5e-4 -0.009,-4.2e-4 -0.0133,0 z m -0.28358,0.81865 c 0,0 -0.60248,0.28625 -1.25739,0.6715 -0.60098,0.43147 -0.73026,1.0103 -0.79189,1.37242 -0.0694,0.36213 -0.0715,0.36053 -0.11771,0.53774 -0.0462,0.18491 -0.0517,-0.13087 -0.13644,0.70895 -0.0925,0.83213 0.34618,1.34193 0.6929,1.7657 0.35442,0.43147 1.50191,1.1615 1.46338,1.10758 -0.0462,-0.054 -0.19133,-0.27781 -0.54576,-0.90961 -0.36212,-0.6318 -0.27791,-1.23128 -0.0776,-1.43931 0.20033,-0.20803 0.71676,-0.35475 0.84005,-0.39327 0.11557,-0.0308 0.40622,-0.33227 0.26753,-0.60194 -0.13099,-0.27738 -0.0848,-1.18462 0,-1.3002 0.077,-0.11557 0.0543,-0.0936 -0.0535,-0.0936 -0.10016,0 -0.53099,-0.0231 -0.75443,-0.19262 -0.22345,-0.1618 -0.10809,-0.22398 -0.0696,-0.27021 0.0308,-0.0462 0.33184,-0.139 0.46283,-0.20064 0.13868,-0.0694 0.80109,-0.53817 0.5083,-0.48424 -0.39295,0.0848 -0.43072,-0.27823 -0.43072,-0.27823 z m 8.79103,0.79456 c -0.84754,0.0462 -1.89625,0.54008 -2.20444,1.11025 -0.1618,0.30049 -0.29996,0.96342 -0.30766,0.97114 -0.72426,0.72425 1.64777,-0.69569 1.77104,-1.0193 l 0.79457,0.0482 c 0.47,0.0462 1.07215,0.27663 1.44199,0.43072 -0.13869,-0.19261 -0.57038,-0.40065 -1.03267,-0.57786 -0.20804,-0.1618 -0.87836,-0.12296 -0.77048,-0.37722 0.0539,-0.10016 0.30765,-0.48572 0.30765,-0.58589 z m 0.29964,0 c 0,0.1618 -0.19177,0.46197 -0.29964,0.56984 l 0.32372,0.0696 c 0.0153,0.0462 0.18545,-0.24783 0.2702,-0.60997 l -0.29428,-0.0294 z m -7.38116,0.97916 c 0,0 -0.29203,0.35324 -0.43072,0.48423 -0.13098,0.13098 -0.3693,0.69504 -0.30766,0.618 0.0616,-0.0771 0.86958,-0.1159 1.00057,-0.008 0.13097,0.10787 -0.0468,-0.21723 -0.0776,-0.29428 -0.0308,-0.0462 -0.22312,-0.43779 -0.1846,-0.79991 z m 4.4303,0.28358 c 0.0693,-0.0925 -0.55486,0.65545 -0.70896,1.04069 -0.10786,0.20803 -0.1527,0.3464 -0.22204,0.56984 0.35442,-0.45459 0.68519,-0.52222 0.69289,-0.59927 0.0231,-0.41606 0.0763,-0.69536 0.23811,-1.01126 z m 2.08941,0.0535 -0.0615,0.14715 c 0.10017,0 0.2456,3.4e-4 0.36117,0.008 -0.10786,0 0.1296,-0.177 0.0294,-0.12306 l -0.32907,-0.0321 z m 0.16319,0.41735 c -0.15354,-3.4e-4 -0.30723,0.007 -0.45747,0.0294 -1.20196,0.17721 -1.60155,0.59381 -1.96367,0.84807 -0.36213,0.25427 -0.97916,1.11828 -0.97916,1.11828 l 0.23007,0.30765 c 0,0 0.8179,-0.97765 1.82723,-1.45536 1.01705,-0.4854 2.14934,-0.63169 3.07393,-0.44678 0.39775,0.0809 -0.65614,-0.39887 -1.73093,-0.40129 z m -6.15051,0.46283 c 0.0154,0.008 0.0294,0.0607 0.22205,0.16854 0.13869,0.077 0.27192,0.13901 0.63404,0.58589 0.41607,0.56246 0.38439,1.12534 0.29964,1.48746 -0.0925,0.36984 -0.27855,0.59275 -0.0936,0.50029 0.43918,-0.20803 0.4869,-0.47888 0.4869,-0.47888 0,0 -0.0226,-0.43843 0.27022,0.72501 0.29278,1.15572 -0.47139,1.95885 0.22204,1.45803 0.0539,-0.0385 0.32479,-0.30113 0.47888,-0.59391 0.0847,-0.16951 0.0449,-0.43929 0.22205,-0.32371 0.0616,0.0385 0.0617,0.12306 0.13109,0.31568 0.0616,0.19263 0.15452,0.50895 0.13911,1.10223 -0.0462,1.20196 -0.71686,1.63257 -0.39326,1.45536 0.40836,-0.22344 0.75625,-0.91698 0.67149,-0.51634 -0.0925,0.39295 0.43105,2.01022 0.43876,1.77908 0.0154,-0.22345 0.052,-1.77951 0.14447,-1.53295 0.0847,0.23885 0.9708,0.69344 0.57786,0.38524 -0.39295,-0.30818 -0.55336,-1.76483 -0.41467,-1.48746 0.13868,0.27738 1.00196,0.34694 0.77851,0.26218 -0.33902,-0.13098 -0.6945,-0.69985 -0.92565,-1.12363 -0.39295,-0.70884 -0.16063,-0.65641 -1.0621,-2.02788 -0.90147,-1.37916 -2.82779,-2.14023 -2.82779,-2.14023 z m -0.94706,0.11503 c -0.44991,-0.014 -0.74908,0.33174 -0.74908,0.33174 0,0 -0.10048,0.24495 -0.39327,0.34512 -0.28508,0.10786 -0.41414,0.0781 -0.52971,0.15516 -0.11557,0.0771 -0.33184,0.24721 -0.2702,0.59392 0.0693,0.33901 0.46229,1.06392 0.57786,1.17178 0.12328,0.10787 0.25383,0.43009 0.43875,0.60729 0.18492,0.16951 0.82484,0.63138 1.48747,0.63138 0.25425,0 -0.20943,-0.13077 -0.16319,-0.31569 0,0 0.0556,-0.0525 0.17121,-0.0294 0.11558,0.0231 0.50029,0.1525 0.50029,0.1525 l 0.3237,-0.16855 c 0,0 -0.20149,-0.0612 -0.28625,-0.24613 -0.0925,-0.18492 0.0543,-0.13879 0.13911,-0.13108 0.0848,0.0154 0.41735,0.16853 0.41735,0.16853 0.0847,-0.11556 0.23671,-0.26303 0.26753,-0.34779 0,0 -0.0993,0.079 -0.29963,0.0482 -0.20803,-0.0231 -0.11612,-0.10112 -0.0776,-0.2167 0.0385,-0.11557 0.62484,-0.87707 0.14713,-1.70149 -0.4777,-0.81671 -1.10971,-0.97134 -1.61052,-1.04069 -0.0313,-0.005 -0.061,-0.007 -0.091,-0.008 z m 7.38384,0.0321 c -0.0626,0.008 0.3591,0.0662 0.82933,0.28358 0.71656,0.32361 1.23311,0.33956 1.74162,1.61856 0.74737,1.87999 0.59146,2.14827 0.46818,2.91875 -0.12328,0.7782 -0.48466,1.50469 -1.00859,2.36764 -0.52393,0.85525 -0.61703,1.87046 -0.59391,2.00915 0.0231,0.1618 0.29332,-1.06937 0.84806,-1.30822 0.23886,-0.10786 0.27738,-0.12327 0.19262,0.19262 -0.0231,0.077 -0.0231,1.62583 0.38525,2.24993 0.10787,0.16179 -0.0302,-0.209 0.016,-0.79457 0.0385,-0.55475 0.0913,-1.21116 0.48423,-2.41311 0.77819,-2.39622 0.74683,-3.94318 0.50027,-4.64432 -0.24655,-0.70885 -0.68433,-2.41269 -3.30399,-2.46663 -0.26196,-0.006 -0.42046,-0.0117 -0.50028,-0.0133 -0.03,-4.7e-4 -0.0499,-0.001 -0.0589,0 z m -0.28894,0.25416 c 0,0 1.17178,0.4915 1.3644,0.92297 0.20032,0.43147 -0.16961,0.23822 -0.32371,0.17658 -0.1618,-0.0693 -0.36159,-0.14511 -0.6929,-0.16052 -0.33901,-0.008 0.49161,0.0623 0.86145,0.59391 0.37753,0.53934 0.77209,1.31593 0.61799,2.27133 -0.0693,0.48541 -0.3937,1.00881 -0.91763,1.27077 -0.52393,0.26197 -1.16375,0.27096 -1.35638,0.22472 -0.39295,-0.0847 0.23008,0.1846 0.23008,0.1846 0,0 0.79499,0.28541 1.70417,-0.1846 0.62409,-0.3159 0.61585,-0.53933 0.69289,-0.57786 0.0848,-0.0385 0.0936,0.0233 0.0936,0.0696 0,0.11557 0.0834,0.52468 -0.16319,0.91763 -0.25426,0.39294 0.3556,-0.18674 0.6715,-0.88018 0.3082,-0.70114 0.40044,-2.54828 -0.45481,-3.48056 -0.85523,-0.92458 -0.30059,-0.37101 -0.90157,-0.86412 -0.59328,-0.44688 -1.372,-0.48423 -1.42593,-0.48423 z m -0.69825,0.16052 c -0.13171,0.006 -0.26,0.0277 -0.3799,0.0696 -0.81671,0.28508 -1.40357,0.91645 -1.95831,1.40186 0.0539,0.0539 0.16318,0.20792 0.16318,0.25416 0.72426,-0.88607 2.2891,-1.36377 3.61434,-1.15573 -0.23789,-0.30676 -0.86858,-0.59308 -1.43931,-0.56984 z m 0.23275,0.9631 c -0.23856,-2.5e-4 -0.4639,0.0394 -0.66615,0.0856 -0.53164,0.12328 -1.57308,0.92298 -1.57308,0.92298 0,0 0.19391,0.33998 0.22473,0.40932 0.0385,0.0616 0.22205,-0.33912 0.79991,0.0615 0.57787,0.40066 0.15495,1.03994 0.0856,1.08618 -0.0771,0.0539 0.59392,-4.3e-4 0.78654,-0.52437 0.18491,-0.51621 0.27651,-0.21477 0.29963,-0.16854 0.0154,0.0539 0.27865,0.40889 0.0321,1.23332 -0.0154,0.0539 0.77016,-0.0177 0.95508,-0.44143 0.17721,-0.42377 0.26089,0.42388 0.23008,0.51633 -0.0385,0.10017 0.0233,0.0717 -0.12307,0.57252 -0.0154,0.0539 1.11828,-0.6562 0.92565,-1.7657 -0.0154,-0.10017 -0.0704,-0.93903 -0.73303,-1.5169 -0.41413,-0.36116 -0.84643,-0.47047 -1.24401,-0.47085 z m -9.12812,1.38581 c -0.0462,0 0.001,0.10166 -0.0455,0.10166 0.51623,0.55475 0.38567,1.06166 1.87271,1.69346 0.43918,0.18492 1.30095,0.36385 1.83259,0.36385 -0.1541,0 -0.46968,-0.47749 -0.56985,-0.50831 -1.21737,-0.36983 -1.4712,-0.88018 -1.59447,-0.88018 -0.0771,0 -0.25469,-0.0749 -0.33174,-0.0749 -0.45459,-0.23115 -0.82474,-0.37968 -1.16375,-0.69558 z m 4.93325,0.0615 c -0.054,0.1541 -0.26325,0.33281 -0.41735,0.4869 l 0.4548,0.0375 0,-0.24613 -0.0375,-0.27823 z m 26.50686,0.18727 c -1.44208,0.61916 -2.56121,1.565 -2.84117,3.12476 l -0.0776,0.44141 0.32906,-0.30498 c 0.98488,-0.91508 1.91411,-1.9388 2.76626,-3.03111 l -0.17657,-0.23008 z m -24.08037,0.0562 c -0.0387,0.004 -0.076,0.0146 -0.11504,0.0348 l 0.1846,0.50831 c 0.22344,-0.16181 0.18524,-0.12274 0.39327,-0.30766 -0.13146,-0.12521 -0.29512,-0.25074 -0.46283,-0.23543 z m -3.09799,0.51366 -0.28359,0.16052 c 0.1541,0.0154 0.59991,0.0925 1.00057,0.19261 0,-0.0539 0.0459,-0.27019 -0.008,-0.27019 -0.24655,0 -0.49322,-0.0136 -0.70895,-0.0829 z m 26.65935,0.0187 c -0.59917,0.7277 -1.22853,1.41724 -1.88876,2.05998 0.31701,-0.92328 0.99339,-1.56958 1.88876,-2.05998 z m -27.3148,0.35851 c -0.20804,0 -0.47771,0.13151 -0.57786,0.0776 -0.0694,0.0308 0.93988,0.37603 1.40987,0.4762 0.47,0.10017 0.34095,-0.0679 0.43341,-0.22205 -0.0617,0 -1.2192,-0.33173 -1.26542,-0.33173 z m 0.17924,0.6929 c 0.61639,0.30819 0.90018,0.57048 2.27936,0.58589 0,-0.0539 0.008,-0.26903 0.008,-0.36919 -0.20804,0 -0.33805,0.0371 -0.74642,0.0294 -0.57015,-0.0385 -0.84966,-0.0383 -1.08081,-0.12307 -0.10787,0 -0.35999,-0.12306 -0.46015,-0.12306 z m -2.22852,0.10701 c 0.0539,0.10016 0.024,0.31718 0.024,0.41734 0,0.10788 0.10102,0.41468 -0.10702,0.41468 0,0.20803 0.33088,0.27737 0.43876,0.38524 -0.0308,0.69344 0.35324,0.86369 0.67685,0.725 0.32361,-0.13868 0.69429,-0.26217 0.8561,-0.26217 -0.22344,-0.34672 -0.83963,-0.87739 -0.89355,-1.32427 -0.31591,0 -0.75637,-0.25566 -0.99522,-0.35582 z m -3.52872,0.17121 c -0.21573,0.16951 -0.57774,0.29911 -0.83202,0.41468 -0.0231,0.0231 -0.0387,0.0465 -0.0695,0.0696 l -0.48424,0.11504 c -0.16181,-0.0539 -0.52558,0.19283 -0.42537,0.4548 0.0154,0.13098 0.0849,0.10851 0.13109,0.20866 -0.0925,-0.30818 0.024,-0.16907 0.024,-0.24612 0.16181,-0.0231 0.65565,-0.31633 0.91762,-0.52436 0.25428,-0.20803 0.43127,-0.14618 0.31569,0.0696 -0.32359,0.57786 -0.31514,0.61532 -0.43073,0.80794 -0.077,0.13869 0.23647,0.50114 0.19798,0.39327 -0.14644,-0.40065 0.0948,-0.069 0.18727,-0.56984 0.0462,-0.25425 0.14509,-0.65459 0.35314,-0.76246 0.12327,-0.0154 0.5159,0.024 0.76246,-0.10701 l 0.0696,0.0294 c -0.008,0.47 0.0452,0.73219 0.23008,1.22529 0.13098,-0.008 0.13109,0.0301 0.13109,0.23811 0.36984,-0.32361 -0.229,-1.08565 -0.0749,-1.39384 0.0693,-0.008 0.56246,0.008 0.77049,0.20868 0.0308,0.17721 0.12242,0.40108 0.10701,0.71697 0,0.0616 0.13848,-0.33227 0.12307,-0.40931 -0.0308,-0.1541 -0.0236,-0.2472 0.24613,-0.20868 0.51622,0.077 1.06498,0.43864 1.32694,0.6929 0,-0.23114 0.007,-0.18288 -0.016,-0.20599 -0.40065,-0.30049 -0.27031,-0.50103 -0.4013,-0.4548 -1.62572,-0.20804 -1.85558,-0.61768 -1.8941,-0.60997 l -0.54844,-0.14447 c -0.10017,0 -0.63994,-0.008 -0.71699,-0.008 z m 4.9172,0.23008 c 0,0.054 0.25415,0.43266 0.25415,0.47888 0.43918,0.74737 1.59427,1.18602 1.91017,1.84864 0.17721,-0.077 0.31568,0.18566 0.31568,0.33976 0.20803,-0.0154 0.41478,-0.0553 0.54576,0.0294 0.0308,0.0231 0.30969,-0.2228 0.29429,-0.36919 -0.0771,-0.69344 0.024,-0.83234 0.21669,-1.22529 -0.20803,0.20803 -0.62505,0.52447 -0.98718,0.46283 0.1541,-0.3082 0.52436,-0.84177 0.52436,-1.20389 -0.50852,-0.0154 -1.56527,-0.2152 -1.82723,-0.30766 -0.32361,-0.12328 0.18641,0.116 -1.24669,-0.0535 z m 8.52885,0.53239 c -0.1618,0 -0.59488,0.60023 -1.96634,0.43072 -0.59328,0.56246 -0.57637,0.47867 -1.24669,0.60195 -0.18492,0.0308 0.38546,0.20621 0.84005,0.0829 0.13097,0.30819 -0.28466,0.54694 -0.63138,0.83202 1.06327,-0.0462 1.21684,-0.93187 1.07815,-0.0535 -0.0771,0.48541 -0.11515,1.70298 0.13912,2.18839 0.0539,0.10016 -0.23158,-0.79328 0.43874,-2.11081 0.23115,-0.33901 0.30723,-0.45427 0.36117,-0.37722 0.0539,0.0848 0.0239,0.38514 0.33976,0.83202 0.008,-0.7936 0.33922,-1.8024 0.64742,-2.4265 z m -6.49028,2.16966 c -0.0196,0.008 -0.0133,0.0562 -0.0133,0.0562 0.008,0.008 -0.0313,0.29331 -0.0776,0.46282 -0.0539,0.16951 -0.22922,0.50124 -0.33709,0.71698 -0.10787,0.21574 -0.0472,0.21402 -0.15517,0.40664 -0.10787,0.18492 -0.0697,0.10873 -0.39326,0.47085 -0.33132,0.36213 -0.22398,0.59264 -0.46283,0.56182 -0.23885,-0.0308 -0.63052,0.0227 -0.93101,0.0535 -0.30049,0.0385 -0.42473,0.0791 -0.60194,0.17925 -0.16951,0.10016 -0.1144,0.1145 -0.099,0.23008 0.008,0.12327 0.17656,0.36918 0.17656,0.36918 0,0 -0.024,-0.0921 -0.024,-0.18459 0.008,-0.0848 -0.0442,-0.14511 0.17924,-0.16052 0.22344,-0.008 0.29963,-0.14714 0.29963,-0.14714 0,0 0.59991,0.0693 0.61532,0 0.0231,-0.0693 0.0843,0.12307 0.0535,0.12307 -0.008,0 -0.0444,10e-4 -0.0829,0.024 -0.0462,0.0308 -0.17711,0.13119 -0.25416,0.26218 -0.33902,0.59327 -0.0388,0.63201 -0.008,0.64742 0.0308,0.0154 0.0452,0.0687 0.0375,-0.016 -0.0154,-0.077 -0.0452,-0.26142 0.024,-0.30765 0.0771,-0.0462 0.0702,0.007 0.27824,-0.0936 0.20803,-0.10016 0.32189,-0.33078 0.40664,-0.50028 0.0848,-0.17721 0.13912,-0.12307 0.13912,-0.12307 0,0 0.43821,-0.008 0.74641,-0.008 0.3159,0 0.0245,-0.0146 0.16319,0.0856 0.13869,0.10017 0.12231,0.21403 0.36116,0.21403 0.24656,0 0.16138,-0.12339 0.24613,0.0615 0.0537,0.12884 0.0608,0.20322 0.0615,0.22473 0.008,-0.0308 0.10166,-0.18653 -0.0909,-0.42538 -0.19263,-0.23114 -0.25395,-0.14564 -0.56985,-0.43072 -0.30819,-0.28508 -0.17795,-0.77102 0.0455,-1.23331 0.22343,-0.46229 0.86262,-1.10072 0.95508,-1.19318 0.0925,-0.0847 -0.0294,-0.0696 -0.0294,-0.0696 0,0 -0.0927,-10e-4 -0.26218,0.0375 -0.1695,0.0462 -0.16319,-0.0214 -0.16319,-0.0214 0,0 -0.0918,-0.16374 -0.17658,-0.24078 -0.0212,-0.0212 -0.035,-0.0303 -0.0455,-0.0321 -0.005,-4.7e-4 -0.008,-0.002 -0.0107,0 z m 0,1.69347 c -0.0841,-10e-4 -0.091,0.0589 -0.091,0.0589 l 0,0.0776 c 0,0 -0.11514,0.0131 0.13913,0.005 0.25425,-0.008 0.30979,-0.16159 0.23275,-0.12307 -0.0694,0.0385 -0.12522,0.0174 -0.24079,-0.0133 -0.0154,-0.003 -0.0281,-0.006 -0.0402,-0.006 z m 13.61193,5.90171 25.60529,0 0,21.97761 c 0,1.22893 -0.29031,2.16033 -0.81864,2.77429 -0.52833,0.61391 -1.30574,0.94794 -2.41312,0.94435 l -0.003,0 -16.78751,0 -0.0133,0 c -1.77254,0.0694 -3.12412,0.97758 -4.10926,2.26601 -0.60944,0.79701 -1.0772,1.74648 -1.46071,2.74484 l 0,-30.7071 z m -13.16783,2.79034 c 0.0664,-0.003 0.12293,0.005 0.16855,0.0214 0.002,4.3e-4 0.002,0.002 0.003,0.003 0.0883,0.0889 0.15603,0.1703 0.19796,0.24345 0.0337,0.11698 0.0378,0.29599 0.0107,0.52436 -0.0501,0.0474 -0.0803,0.0982 -0.12573,0.17389 -0.094,0.15673 -0.22242,0.40408 -0.37187,0.72233 -0.2989,0.63651 -0.68583,1.55331 -1.04337,2.53887 -0.35754,0.98554 -0.68551,2.03802 -0.86412,2.95084 -0.17862,0.91283 -0.22979,1.6839 0.0615,2.15094 l 0.10968,0.1766 0.13377,-0.16052 c 0.17187,-0.20628 0.33927,-0.5699 0.52436,-1.0621 0.1851,-0.4922 0.37848,-1.10685 0.55913,-1.7898 0.36133,-1.36586 0.67471,-2.99878 0.77584,-4.43028 0.0231,-0.36993 0.28466,-0.67256 0.46818,-1.02197 0.0164,-0.0311 0.0255,-0.0666 0.0402,-0.099 l 0.0214,0.003 c 0.002,-0.008 0.002,-0.0135 0.003,-0.0214 3.4e-4,-0.002 -3.4e-4,-0.003 0,-0.005 0.003,-0.0166 4.3e-4,-0.0291 0.003,-0.0455 0.0503,-0.13048 0.087,-0.26599 0.0696,-0.41734 -0.005,-0.0378 -0.0272,-0.0769 -0.0375,-0.11504 0.0778,0.0624 0.11993,0.0861 0.20332,0.15785 0.28485,0.24503 0.58994,0.53846 0.81864,0.81864 0.22659,0.27758 0.36396,0.54815 0.36652,0.70092 -0.0802,0.93577 -0.3528,1.68051 -0.70093,2.35964 -0.12229,0.22605 -0.25351,0.45109 -0.3906,0.67682 -0.3077,0.50671 -0.63531,1.01574 -0.92565,1.549 -0.006,0.009 -0.008,0.0203 -0.0133,0.0295 -0.12531,0.23173 -0.24644,0.46612 -0.35046,0.70895 -4.7e-4,0 -0.002,0 -0.003,0.005 -0.11206,0.2619 -0.20919,0.53137 -0.28358,0.81061 l 0.14714,0.0401 0.14446,0.0374 c 0.072,-0.27002 0.1668,-0.53197 0.27823,-0.78922 0.10231,-0.2361 0.2204,-0.46658 0.34513,-0.69558 0.002,-0.005 0.006,-0.009 0.008,-0.0133 0.25489,-0.45699 0.54235,-0.89454 0.82399,-1.35369 0.16655,-0.27154 0.32501,-0.55668 0.47621,-0.85075 0.38639,-0.7112 0.68503,-1.45296 0.73303,-2.27936 1.11501,0.45824 1.55134,1.03033 1.59715,1.65065 0.0486,0.65839 -0.34169,1.41651 -0.91228,2.12688 -1.14113,1.42079 -2.9455,2.62714 -2.9455,2.62714 l 0.0963,0.27287 c 0.19016,-0.0166 0.67239,0.0156 1.12095,0.20066 0.44857,0.18485 0.86467,0.50847 1.01662,1.09151 l 0.0402,0.15517 0.1525,-0.0508 c 1.00717,-0.34454 2.42421,-0.61723 3.80962,-0.38524 1.38542,0.23201 2.74058,0.95514 3.67854,2.63516 0.19253,0.34169 0.19146,0.67277 0.0669,0.98187 -0.12457,0.30905 -0.38228,0.59115 -0.70627,0.79452 -0.64799,0.40685 -1.52834,0.48552 -2.12152,-0.0936 l 0,0.005 c -4.3e-4,0 -0.002,0 -0.003,0 -0.58508,-0.57727 -1.29825,-1.22575 -2.10814,-1.68542 -0.81049,-0.46003 -1.72525,-0.73549 -2.69403,-0.5458 -3.8274,0.75144 -4.75639,3.50228 -5.41481,4.67112 -4.6e-4,0 -0.002,0 -0.003,0.005 l 0.13109,0.0749 0.12842,0.0776 c 4.6e-4,0 0.002,0 0.003,-0.005 0.001,0 0.002,-0.005 0.003,-0.006 0.90447,-1.483 2.16243,-2.76724 3.46719,-3.30401 1.30719,-0.53777 2.64488,-0.36481 3.84173,1.10225 l -0.003,0 c 0.54285,0.68332 -0.52006,2.01484 -1.34567,1.51687 -0.98933,-0.5975 -1.87003,-0.86724 -2.61912,-0.87218 -0.7491,-0.005 -1.36723,0.26329 -1.79513,0.73038 -0.82081,0.8961 -0.93642,2.47372 -0.2381,4.20292 -1.12125,-0.0607 -1.70154,-0.57115 -2.03056,-1.26009 -0.35066,-0.73415 -0.39326,-1.68297 -0.39326,-2.45593 l 0,-0.11771 -0.11771,-0.0267 c -0.63655,-0.15056 -0.94197,-0.53174 -1.12363,-1.04869 -0.18167,-0.51694 -0.21528,-1.16694 -0.24613,-1.7844 -0.0308,-0.61751 -0.0522,-1.20202 -0.27823,-1.62126 -0.113,-0.2096 -0.28808,-0.37796 -0.52971,-0.45211 -0.24099,-0.074 -0.53536,-0.0579 -0.8989,0.0456 -10e-4,0 -0.002,0 -0.003,0 -0.3809,0.10387 -0.79044,0.42288 -1.15572,0.70894 -0.18301,0.14328 -0.35159,0.27817 -0.4869,0.37454 -0.0677,0.0481 -0.12717,0.0865 -0.17122,0.10968 -0.0308,0.0161 -0.0525,0.0244 -0.0589,0.0267 -0.86372,-0.0587 -1.42309,-0.33062 -1.73092,-0.68483 -0.30851,-0.35505 -0.38177,-0.80209 -0.2488,-1.27613 0.26581,-0.94767 1.40449,-1.97069 3.19966,-2.17771 0.001,-9e-5 0.002,9e-5 0.003,0 0.0415,-0.005 0.0969,0 0.14447,0 0.8014,0.0882 2.0482,0.40768 2.80371,1.13432 0.002,0 0.004,0.005 0.006,0.005 0.11421,0.11263 0.2165,0.232 0.30231,0.3585 0.22313,0.33104 0.3675,0.70074 0.46283,1.09689 0.0953,0.39617 0.1415,0.8197 0.16854,1.25471 0.027,0.435 0.0353,0.88213 0.0535,1.32963 0.009,0.22374 0.0193,0.44685 0.0375,0.66884 0.0181,0.2219 0.0431,0.44123 0.0776,0.65811 l 0.14981,-0.0217 0.14715,-0.024 c -0.0329,-0.20692 -0.0561,-0.42048 -0.0722,-0.63672 -0.0484,-0.64871 -0.0385,-1.33175 -0.0803,-2.0011 -0.0418,-0.6694 -0.13588,-1.32567 -0.38792,-1.92087 -0.084,-0.1984 -0.18422,-0.38943 -0.30765,-0.57253 -0.1003,-0.14785 -0.2162,-0.28247 -0.34245,-0.40667 -0.12343,-0.12199 -0.25834,-0.23347 -0.40129,-0.33707 -0.30399,-0.22029 -0.64244,-0.40104 -0.9845,-0.54041 -0.56447,-0.22997 -1.12613,-0.34546 -1.57041,-0.34776 0.14645,-0.54179 0.39602,-0.90864 0.69826,-1.14238 0.33282,-0.2574 0.73067,-0.36722 1.12095,-0.37989 0.39028,-0.0129 0.7703,0.074 1.04871,0.19798 0.12788,0.0569 0.22551,0.12245 0.29964,0.18458 0.0552,0.0813 0.10449,0.1642 0.16587,0.24347 l 0.33173,0.42805 -0.0642,-0.53774 c -0.0161,-0.13563 -0.0969,-0.24402 -0.20332,-0.33979 -0.003,-0.005 -0.01,-0.005 -0.0133,-0.008 -0.75165,-1.13446 -0.89469,-2.45579 -0.67418,-3.56352 0.2263,-1.13678 0.83887,-2.0107 1.46875,-2.22852 0.0857,0.1401 0.18201,0.33312 0.25682,0.55379 0.0906,0.26707 0.1431,0.55582 0.11504,0.7571 -9e-5,10e-4 9e-5,0.002 0,0.003 l 0,0.003 c -0.10512,0.64572 -0.14274,1.43835 -0.16052,2.24191 -0.0133,0.41358 -0.0203,0.82881 -0.016,1.24668 3.5e-4,0.0295 -4.3e-4,0.0618 0,0.091 10e-4,0.0681 0.005,0.11263 0.006,0.17923 0.007,0.36191 0.0161,0.7235 0.0348,1.0862 0.025,0.56009 0.0543,1.01219 0.0749,1.17179 1.7e-4,0 -1.7e-4,0.007 0,0.008 l 0.29963,-0.0323 c -0.0308,-0.36744 -0.05,-0.73655 -0.0696,-1.10492 -0.016,-0.34089 -0.032,-0.72133 -0.0402,-1.14772 -0.002,-0.0847 -0.005,-0.16946 -0.005,-0.25412 -0.005,-0.3987 0.007,-0.81775 0.016,-1.23331 0.024,-0.74365 0.0669,-1.47918 0.15516,-2.19376 4.6e-4,-0.006 0.002,-0.0107 0.003,-0.016 8e-5,-10e-4 -9e-5,-0.002 0,-0.003 8e-5,-10e-4 -9e-5,-0.002 0,-0.003 0.0594,-0.35058 0.30728,-0.78658 0.64474,-1.18782 0.33899,-0.40305 0.76731,-0.77309 1.16643,-1.01394 0.29934,-0.18065 0.57945,-0.27735 0.77852,-0.28626 z m 24.2837,0.37187 c -0.26196,0.0231 -0.77049,1.21041 -0.77049,0.33976 -0.14639,0.10016 -0.30884,0.42505 -0.4013,0.60997 -0.12327,0.22345 -0.30765,0.13847 -0.30765,-0.0696 -0.20032,0 -0.53238,0.90073 -0.53238,1.00859 0,0.13098 -0.0764,0.45384 0.016,0.43072 l 0.26217,-0.0535 c 0.20033,-0.0385 0.12178,-0.30006 0.28359,-0.43875 0.16951,-0.14639 0.1389,-0.36919 0.26217,-0.36919 0.0694,0 0.17091,-0.016 0.1632,0.11504 -0.0231,0.18492 -0.15516,0.31493 -0.15516,0.36116 0.30818,-0.15409 0.93271,-0.21498 1.29484,-0.0455 0.3159,0.13869 0.52511,-0.008 0.6715,-0.20867 0.33131,-0.45459 0.34522,-0.52201 0.28358,-0.91496 l -0.0455,-0.24077 c -0.1541,-1.17885 -1.02464,0.55432 -1.02464,-0.52436 z m 8.86862,0.56449 c 0.0231,0 -0.97274,1.16257 -1.58913,1.64798 -0.60869,0.48541 -1.64745,1.04752 -1.76303,1.14771 -0.11557,0.0924 0.86306,-0.36278 1.67207,-0.20867 0.80901,0.14637 0.53036,0.0933 0.54576,0.0856 0.50081,-0.33131 0.81672,-0.43878 1.34835,-0.82401 -0.077,0.0154 0.42344,-0.3311 -0.008,-0.12307 -0.42377,0.20033 -1.07632,0.17722 -1.16108,0.19263 -0.0924,0.0154 -0.17175,-0.0861 -0.0562,-0.1632 0.10787,-0.077 0.17764,-0.0986 0.52436,-0.53773 0.35442,-0.43148 0.4869,-1.21726 0.4869,-1.21726 z m -9.59362,1.46605 c -0.37598,0.007 -0.48424,0.17391 -0.48424,0.17391 0.0847,-0.0385 0.68349,-0.25405 0.52169,0.45479 0.87835,-0.13097 1.23299,0.51536 1.22529,0.49227 -0.0154,-0.023 -0.0368,-0.87719 -0.79189,-1.0621 -0.19069,-0.0462 -0.34553,-0.061 -0.47085,-0.0589 z m -0.30767,0.3585 c -0.0128,-4e-5 -0.0267,0.002 -0.0401,0.008 -0.11558,0.0462 -0.0455,0.13911 -0.0455,0.13911 0,0 -0.0701,10e-4 -0.14713,0.024 -0.0693,0.0231 -0.0365,0.12263 -0.0133,0.17655 0.0154,0.0462 0.11397,0.13775 0.15249,0.16858 0.0261,0.0263 0.037,0.0752 0.0402,0.0936 0,-0.0309 0.0982,-0.11567 0.14446,-0.13107 0.054,-0.0152 0,-0.0776 0,-0.0776 0,0 -0.0375,-0.10795 -0.0375,-0.13107 0,-0.0231 0.0545,-0.0999 0.0776,-0.12306 0.027,-0.0202 -0.0416,-0.14682 -0.13109,-0.14714 z m -0.59391,0.15517 c -0.10787,0 -0.47621,0.15358 -0.47621,0.30765 -0.26966,0.70885 0.0446,-0.093 0.53774,-0.0776 l -0.0615,-0.23008 z m 0.14714,0.38525 c -0.0462,0 -0.4701,0.29159 -0.51634,0.29159 0.20804,0.0462 0.56289,-0.0695 0.71699,-0.0695 -0.10788,-0.26196 -0.10819,-0.19896 -0.20065,-0.22205 z m 1.16375,0.0212 c -0.29888,-0.008 -0.5506,0.16678 -0.52703,0.22204 -0.0346,0.0573 -0.0813,0.23679 -0.11236,0.71968 -0.0693,1.07096 -1.29484,1.46337 -1.29484,1.46337 0.23884,0.11559 0.5769,0.077 0.74641,0.0615 0.14638,-0.023 0.15483,0.0547 0.14713,0.14715 -0.0153,0.10015 -0.21691,0.32381 -0.28626,0.64742 -0.0693,0.32362 0.11569,1.0939 0.13109,0.89357 0.0154,-0.20034 0.30082,-0.8026 0.58589,-0.99524 0.29279,-0.20033 0.37744,-0.36201 0.44678,-0.44676 0.0616,-0.077 0.24816,-0.5004 0.23275,0.13909 -0.0231,0.63954 0.25287,1.23322 0.22205,1.10224 -0.0385,-0.1772 0.3327,-1.18635 0.35581,-1.2788 0.0154,-0.0924 0.27556,-0.97979 0.27556,-1.38046 0,-0.40062 -0.0139,-0.69954 -0.4762,-1.11556 -0.14206,-0.12766 -0.30015,-0.17545 -0.44678,-0.17927 z m -0.97113,0.47086 c -0.1618,0.20803 -0.56427,0.37882 -0.68755,0.60995 -0.17721,0.46229 0.59541,0.33776 0.69558,-0.0322 0.0539,-0.14642 0.0613,-0.4546 -0.008,-0.57788 z m 7.74767,0.0295 c -0.41703,0.007 -0.82266,0.0844 -1.24402,0.23274 -0.97081,0.33131 -2.10396,1.2105 -2.58166,2.20443 -0.4777,0.99395 -0.47792,2.28002 -0.4548,2.29542 l 0.38525,0.4227 c 0,0 0.19283,-1.72463 1.22528,-2.47197 1.02474,-0.73968 1.58003,-1.13371 2.77429,-1.31092 1.19425,-0.1695 1.90941,0.17776 2.14826,0.27021 0.23885,0.0924 1.02507,0.6864 1.16375,1.36442 0.13098,0.68572 0.0395,0.83241 0.024,0.97113 -0.008,0.13097 0.29204,-0.44676 0.23811,-1.21727 -0.0462,-0.77817 -0.84914,-2.0496 -1.96635,-2.44257 -0.6241,-0.22103 -1.17601,-0.32786 -1.71219,-0.31832 z m -8.37369,0.0295 c -0.34664,0.0354 -0.63137,0.27343 -0.63137,0.51902 -0.0154,0.1695 0.14072,0.11697 0.17924,0.16319 0.18781,-0.20227 0.21181,-0.62977 0.46818,-0.68221 -0.006,0 -0.0107,0 -0.016,0 z m -0.28358,0.81863 c 0,0 -0.59445,0.28661 -1.24937,0.67954 -0.60098,0.42375 -0.73025,1.00997 -0.79189,1.36437 -0.0693,0.36215 -0.0688,0.36086 -0.11503,0.5458 -0.0462,0.1772 -0.0547,-0.13121 -0.14715,0.70093 -0.0847,0.83213 0.35422,1.34225 0.70093,1.77371 0.35443,0.42376 1.5016,1.15349 1.45537,1.09953 -0.0385,-0.0539 -0.18332,-0.27509 -0.53774,-0.90688 -0.36213,-0.6318 -0.28561,-1.23396 -0.0776,-1.44199 0.20032,-0.20804 0.71676,-0.35446 0.84004,-0.38529 0.11558,-0.0387 0.4089,-0.33758 0.27021,-0.60727 -0.13869,-0.26965 -0.0851,-1.18732 -0.008,-1.30286 0.0847,-0.10789 0.0597,-0.0936 -0.0481,-0.0936 -0.10017,0 -0.531,-0.0226 -0.75443,-0.18462 -0.22345,-0.16951 -0.10841,-0.23201 -0.0776,-0.27823 0.0385,-0.0462 0.33987,-0.13632 0.47085,-0.19794 0.13869,-0.0694 0.8011,-0.54054 0.5083,-0.47888 -0.40064,0.0771 -0.43874,-0.28628 -0.43874,-0.28628 z m 8.79906,0.79457 c -0.85524,0.0462 -1.90396,0.54778 -2.20445,1.11025 -0.1695,0.30049 -0.29995,0.96344 -0.30765,0.97113 -0.72426,0.72425 1.64776,-0.69534 1.77104,-1.01127 l 0.78654,0.0401 c 0.4777,0.0462 1.07986,0.27661 1.44199,0.43072 -0.13099,-0.1849 -0.56268,-0.39293 -1.03267,-0.57787 -0.20033,-0.15407 -0.87033,-0.11526 -0.76245,-0.37722 0.0539,-0.10014 0.30765,-0.4857 0.30765,-0.58589 z m 0.29963,0 c 0,0.1618 -0.19177,0.46196 -0.29963,0.56985 l 0.31568,0.0696 c 0.0231,0.0539 0.19348,-0.24518 0.27823,-0.60728 l -0.29428,-0.0323 z m -7.38115,0.97919 c 0,0 -0.29204,0.35321 -0.43072,0.48418 -0.13869,0.13102 -0.3693,0.69507 -0.30766,0.61801 0.0616,-0.0771 0.86155,-0.11591 0.99253,-0.008 0.13099,0.10784 -0.0387,-0.21726 -0.0696,-0.29431 -0.0308,-0.0462 -0.22311,-0.43778 -0.18459,-0.79992 z m 4.42762,0.29158 c -0.0751,0.0826 -0.57144,0.70231 -0.70628,1.03265 -0.10787,0.20804 -0.1527,0.35446 -0.22205,0.57788 0.35442,-0.46229 0.6852,-0.52252 0.6929,-0.60728 0.0231,-0.41606 0.0763,-0.69506 0.23811,-1.00325 -10e-4,0 -0.002,0 -0.003,0 z m 2.09209,0.0482 -0.0615,0.14443 c 0.10017,0 0.24528,0.008 0.35315,0.008 -0.10017,0 0.14028,-0.17697 0.0402,-0.12305 l -0.33174,-0.0295 z m 0.16319,0.41735 c -0.15354,0 -0.30723,0.008 -0.45748,0.0295 -1.20195,0.1772 -1.60154,0.59883 -1.96367,0.8454 -0.36212,0.25426 -0.98718,1.11828 -0.98718,1.11828 l 0.23809,0.30767 c 0,0 0.8179,-0.97767 1.82724,-1.4554 1.00934,-0.47768 2.14933,-0.63133 3.07392,-0.43874 0.39776,0.0809 -0.65614,-0.39905 -1.73092,-0.40661 z m -6.15854,0.46013 c 0.0154,0.008 0.0375,0.0607 0.23008,0.16853 0.13868,0.0771 0.27191,0.13904 0.63404,0.5859 0.41607,0.57018 0.38439,1.12533 0.29963,1.48747 -0.0925,0.36985 -0.28625,0.60079 -0.0936,0.50833 0.43918,-0.21577 0.4869,-0.48422 0.4869,-0.48422 0,0 -0.0226,-0.44114 0.27021,0.7223 0.29278,1.16345 -0.47138,1.95917 0.22205,1.4661 0.0539,-0.0387 0.32478,-0.3015 0.47888,-0.60198 0.077,-0.16951 0.0449,-0.4393 0.22205,-0.32371 0.0616,0.0462 0.0617,0.12309 0.13109,0.31569 0.0616,0.19264 0.1542,0.50898 0.13109,1.10224 -0.0385,1.20193 -0.70885,1.64025 -0.38524,1.45536 0.40835,-0.22343 0.75625,-0.91698 0.67149,-0.51636 -0.0925,0.40068 0.43105,2.01056 0.43875,1.78713 0.008,-0.22347 0.0544,-1.77984 0.13912,-1.54098 0.0925,0.23882 0.97883,0.69346 0.58589,0.38524 -0.39295,-0.30048 -0.55603,-1.76215 -0.41734,-1.48481 0.13097,0.28509 0.99424,0.34427 0.7785,0.25951 -0.34671,-0.13097 -0.69451,-0.69954 -0.92565,-1.1156 -0.39295,-0.71655 -0.16062,-0.66176 -1.06209,-2.03323 -0.90147,-1.37917 -2.83582,-2.14291 -2.83582,-2.14291 z m -0.9417,0.11503 c -0.45541,-0.0138 -0.74642,0.33177 -0.74642,0.33177 0,0 -0.10048,0.24763 -0.39326,0.34777 -0.28508,0.10789 -0.41414,0.0754 -0.52971,0.1525 -0.11558,0.077 -0.33184,0.2472 -0.27021,0.59391 0.0694,0.33901 0.4623,1.0639 0.57787,1.17179 0.12328,0.10784 0.25383,0.43007 0.43874,0.60727 0.18492,0.1695 0.82485,0.63138 1.48747,0.63138 0.25426,0 -0.20942,-0.12305 -0.16319,-0.31569 0,0 0.0556,-0.0447 0.17122,-0.0295 0.11557,0.023 0.50028,0.1525 0.50028,0.1525 l 0.32371,-0.16858 c 0,0 -0.19915,-0.0612 -0.29161,-0.2461 -0.0848,-0.18495 0.0597,-0.13112 0.14446,-0.13112 0.0848,0.0156 0.41736,0.16853 0.41736,0.16853 0.0848,-0.11553 0.23907,-0.26001 0.26217,-0.33707 0,0 -0.0943,0.0683 -0.3023,0.0373 -0.20033,-0.023 -0.10809,-0.10111 -0.0696,-0.2167 0.0385,-0.11557 0.61714,-0.87674 0.14714,-1.69347 -0.4777,-0.82444 -1.10971,-0.97168 -1.61053,-1.04874 -0.0318,-0.005 -0.0633,-0.007 -0.0936,-0.008 z m 7.44,0.0373 c -0.24234,0 0.23264,0.0354 0.77584,0.27822 0.71655,0.33132 1.2331,0.34758 1.74162,1.62661 0.74737,1.87225 0.59146,2.14056 0.46818,2.91873 -0.12328,0.77051 -0.48466,1.49665 -1.00859,2.35961 -0.52393,0.86296 -0.61703,1.8705 -0.59392,2.00917 0.0231,0.16181 0.293,-1.06938 0.84005,-1.30825 0.24655,-0.10014 0.28539,-0.12291 0.20064,0.20066 -0.0231,0.0771 -0.0231,1.61818 0.38525,2.24993 0.10787,0.15411 -0.0302,-0.21698 0.016,-0.8026 0.0385,-0.55473 0.0913,-1.20045 0.48423,-2.40242 0.77819,-2.3962 0.74683,-3.95387 0.50028,-4.65502 -0.24656,-0.70111 -0.68434,-2.4127 -3.30399,-2.46662 -0.2639,-0.005 -0.42486,-0.007 -0.50564,-0.008 z m -0.34243,0.25684 c 0,0 1.16407,0.48349 1.3644,0.91495 0.20032,0.43145 -0.16994,0.24858 -0.33174,0.17923 -0.1541,-0.0616 -0.35388,-0.14776 -0.6929,-0.1632 -0.33131,-0.008 0.49963,0.0626 0.86946,0.60193 0.36984,0.53166 0.7721,1.30793 0.618,2.26334 -0.0693,0.48538 -0.40172,1.0168 -0.92565,1.2788 -0.51623,0.25426 -1.15573,0.26325 -1.34835,0.22471 -0.39295,-0.0924 0.23275,0.17656 0.23275,0.17656 0,0 0.79232,0.28574 1.70149,-0.17656 0.61639,-0.31592 0.61585,-0.54704 0.6929,-0.57787 0.0848,-0.0462 0.0936,0.0152 0.0936,0.0615 0,0.11558 0.083,0.52469 -0.17122,0.91761 -0.24656,0.39298 0.36363,-0.17899 0.67953,-0.88014 0.30819,-0.70116 0.40043,-2.54797 -0.45481,-3.47255 -0.86294,-0.93228 -0.30059,-0.37901 -0.90157,-0.87213 -0.59328,-0.43921 -1.372,-0.47621 -1.42593,-0.47621 z m -0.69826,0.1525 c -0.13171,0.006 -0.25999,0.0277 -0.37989,0.0695 -0.81671,0.28509 -1.40357,0.91679 -1.95832,1.40987 0.0462,0.0539 0.16319,0.19992 0.16319,0.24614 0.72426,-0.88605 2.28139,-1.35604 3.61434,-1.15574 -0.23789,-0.30676 -0.86859,-0.59304 -1.43932,-0.56981 z m 0.23275,0.96311 c -0.23855,0 -0.4639,0.0391 -0.66614,0.0856 -0.53164,0.12328 -1.57308,0.92301 -1.57308,0.92301 0,0 0.1939,0.33998 0.22472,0.40929 0.0385,0.0617 0.22205,-0.33141 0.79991,0.0615 0.57787,0.40067 0.15464,1.03997 0.0776,1.0862 -0.077,0.0539 0.60162,0 0.78654,-0.52437 0.19262,-0.51621 0.28422,-0.21476 0.29964,-0.16853 0.0231,0.0539 0.28667,0.40919 0.0402,1.24132 -0.0154,0.0462 0.77016,-0.023 0.95507,-0.44675 0.17722,-0.42376 0.26058,0.4215 0.22206,0.52164 -0.0308,0.0924 0.0313,0.0714 -0.11504,0.56451 -0.0154,0.0539 1.11827,-0.65622 0.92565,-1.76569 -0.0154,-0.0924 -0.0781,-0.93906 -0.73303,-1.51693 -0.41413,-0.36113 -0.84643,-0.47045 -1.24401,-0.47081 z m -9.12544,1.38848 c -0.0462,0 -0.002,0.0989 -0.0482,0.0989 0.51623,0.55478 0.38568,1.07205 1.87272,1.69615 0.43918,0.18494 1.30361,0.36118 1.83526,0.36118 -0.1541,0 -0.48006,-0.47718 -0.57252,-0.50027 -1.21737,-0.37753 -1.4712,-0.88554 -1.59448,-0.88554 -0.0771,0 -0.26004,-0.0696 -0.33709,-0.0696 -0.44688,-0.23886 -0.81671,-0.37735 -1.15572,-0.70092 z m 4.92255,0.0669 c -0.0462,0.15411 -0.26293,0.32477 -0.40933,0.47888 l 0.44678,0.0373 0,-0.24614 -0.0375,-0.2702 z m -26.1243,0.17923 c -1.43432,0.61921 -2.55339,1.56329 -2.84117,3.13012 l -0.0803,0.44944 0.33174,-0.31302 c 0.98451,-0.92251 1.9141,-1.94415 2.76626,-3.03643 l -0.17657,-0.23011 z m 28.55882,0.0589 c -0.0387,0.005 -0.076,0.0133 -0.11504,0.0323 l 0.17657,0.51635 c 0.23114,-0.16951 0.19326,-0.13079 0.4013,-0.31569 -0.13147,-0.12522 -0.29513,-0.24587 -0.46283,-0.23278 z m -3.10603,0.51101 -0.27555,0.16853 c 0.1541,0.008 0.5922,0.0844 1.00056,0.18457 0,-0.0539 0.0459,-0.26213 -0.008,-0.26213 -0.24656,0 -0.49355,-0.0138 -0.71698,-0.091 z m -25.9718,0.0212 c -0.59737,0.72562 -1.22787,1.41489 -1.88609,2.06 0.32101,-0.9255 0.99663,-1.57002 1.88609,-2.06 z m 25.32438,0.36385 c -0.20803,0 -0.4777,0.12351 -0.57786,0.0695 -0.0693,0.0387 0.93218,0.37607 1.40988,0.47621 0.47,0.10019 0.33291,-0.0602 0.42537,-0.22204 -0.0539,0 -1.21116,-0.32371 -1.25739,-0.32371 z m 0.17122,0.68489 c 0.6241,0.30817 0.90821,0.57049 2.28739,0.58589 0,-0.0539 0.008,-0.26905 0.008,-0.36919 -0.20804,0 -0.33806,0.0447 -0.74642,0.0295 -0.57016,-0.0387 -0.84967,-0.0378 -1.08082,-0.11503 -0.10787,0 -0.36031,-0.13107 -0.46817,-0.13107 z m -2.22049,0.107 c 0.0539,0.10016 0.016,0.31717 0.016,0.41737 0,0.10783 0.10904,0.4173 -0.099,0.4173 0,0.20803 0.33088,0.27739 0.43875,0.38528 -0.0385,0.70116 0.35325,0.86103 0.67685,0.72231 0.3236,-0.13867 0.69429,-0.26219 0.8561,-0.26219 -0.22345,-0.3467 -0.83962,-0.87706 -0.89356,-1.31621 -0.31589,0 -0.75635,-0.2637 -0.99521,-0.36386 z m -3.52872,0.17924 c -0.22345,0.1695 -0.57777,0.2914 -0.83203,0.41468 -0.0231,0.0152 -0.0464,0.0382 -0.0695,0.0615 l -0.48423,0.1231 c -0.16181,-0.0539 -0.52554,0.18481 -0.42538,0.44676 0.0154,0.13097 0.0849,0.10849 0.13109,0.20868 -0.0924,-0.30823 0.016,-0.1691 0.016,-0.24615 0.16951,-0.0153 0.65567,-0.31634 0.91763,-0.52437 0.26196,-0.20803 0.43928,-0.14618 0.32371,0.0696 -0.3236,0.57783 -0.32285,0.61562 -0.43072,0.81596 -0.077,0.13097 0.2365,0.49344 0.19797,0.39325 -0.14639,-0.40833 0.0948,-0.077 0.18727,-0.57787 0.0462,-0.25422 0.14512,-0.65424 0.35314,-0.75444 0.12328,-0.023 0.51591,0.0162 0.76246,-0.11503 l 0.0696,0.0295 c -0.008,0.47768 0.0475,0.73986 0.22473,1.22529 0.13869,-0.008 0.13108,0.0383 0.13108,0.2461 0.37755,-0.33132 -0.22365,-1.08593 -0.0695,-1.40185 0.0693,0 0.56245,0.0161 0.77048,0.20868 0.0308,0.1849 0.12242,0.40109 0.10701,0.71696 0,0.0617 0.13848,-0.33224 0.12307,-0.40929 -0.0308,-0.15411 -0.0236,-0.23919 0.24612,-0.20066 0.51623,0.0771 1.06499,0.43358 1.32695,0.69558 0,-0.23887 0.007,-0.19329 -0.016,-0.20868 -0.40836,-0.30817 -0.27801,-0.50907 -0.40129,-0.46284 -1.62573,-0.20803 -1.86329,-0.61733 -1.89412,-0.60193 l -0.54843,-0.1525 -0.71698,0 z m 4.9172,0.2301 c 0,0.0462 0.25414,0.42459 0.25414,0.47082 0.43919,0.74737 1.58656,1.18603 1.91017,1.84865 0.17722,-0.077 0.31569,0.18568 0.31569,0.33975 0.20803,-0.0153 0.40943,-0.055 0.54041,0.0373 0.0385,0.0152 0.31504,-0.23084 0.29963,-0.37721 -0.077,-0.69347 0.0237,-0.83204 0.20868,-1.21728 -0.20804,0.20804 -0.61704,0.51645 -0.97916,0.45483 0.15409,-0.30823 0.52435,-0.83909 0.52435,-1.20124 -0.50851,-0.0153 -1.56526,-0.21785 -1.82722,-0.31034 -0.32361,-0.12328 0.18641,0.11632 -1.24669,-0.0456 z m 8.52885,0.52433 c -0.1618,0.008 -0.59488,0.60055 -1.96635,0.43878 -0.59327,0.55474 -0.57636,0.47063 -1.24669,0.59391 -0.18491,0.0309 0.38547,0.20886 0.84005,0.0856 0.13098,0.31592 -0.28465,0.54695 -0.63137,0.83204 1.06327,-0.0462 1.20913,-0.93453 1.07814,-0.0562 -0.077,0.48537 -0.11514,1.71067 0.13913,2.18839 0.0539,0.10015 -0.23159,-0.79328 0.43874,-2.11084 0.23115,-0.339 0.30723,-0.44653 0.36116,-0.37721 0.054,0.0847 0.0159,0.38514 0.33174,0.83204 0.0154,-0.78591 0.33955,-1.80243 0.65545,-2.42652 z m -6.4876,2.16968 c -0.004,0 -0.006,0 -0.008,0.005 -0.0158,0.0111 -0.008,0.0535 -0.008,0.0535 0.008,0.008 -0.0313,0.30132 -0.0776,0.47082 -0.0539,0.16181 -0.22923,0.50096 -0.3371,0.70899 -0.11557,0.21572 -0.0473,0.22439 -0.15517,0.40929 -0.10786,0.18494 -0.0697,0.11379 -0.39326,0.46819 -0.33131,0.36215 -0.22398,0.60031 -0.46283,0.56183 -0.24656,-0.0309 -0.63051,0.0254 -0.931,0.0562 -0.30049,0.0387 -0.42473,0.0764 -0.60195,0.17656 -0.1772,0.10014 -0.1144,0.1148 -0.099,0.23808 0.008,0.11558 0.17657,0.36385 0.17657,0.36385 0,0 -0.024,-0.0945 -0.024,-0.17923 0.008,-0.0924 -0.0442,-0.1531 0.17924,-0.16854 0.22345,-0.008 0.29964,-0.14715 0.29964,-0.14715 0,0 0.5999,0.0694 0.61532,0 0.0231,-0.0694 0.087,0.13107 0.0562,0.13107 -0.008,0 -0.0471,-0.007 -0.0856,0.0161 -0.0462,0.0309 -0.17742,0.13116 -0.26217,0.26218 -0.33902,0.60097 -0.0308,0.63973 0,0.64743 0.0308,0.0156 0.0452,0.069 0.0375,-0.008 -0.0154,-0.0847 -0.0452,-0.26176 0.024,-0.31569 0.0693,-0.0462 0.0702,0.0143 0.27823,-0.0937 0.20803,-0.10009 0.31419,-0.32306 0.40664,-0.50026 0.0848,-0.1772 0.1311,-0.12305 0.1311,-0.12305 0,0 0.44624,-0.008 0.75443,-0.008 0.3159,0 0.0245,-0.007 0.1632,0.0856 0.13868,0.10019 0.1146,0.22204 0.36116,0.22204 0.24656,0 0.16373,-0.13106 0.24078,0.0615 0.0847,0.18489 0.0618,0.2555 0.0696,0.22471 0.008,-0.0387 0.099,-0.19185 -0.0936,-0.43071 -0.19262,-0.23113 -0.25394,-0.14831 -0.56984,-0.4334 -0.30819,-0.28509 -0.17796,-0.77102 0.0455,-1.23331 0.22344,-0.4623 0.86262,-1.1004 0.95508,-1.18515 0.0925,-0.0925 -0.0294,-0.0695 -0.0294,-0.0695 0,0 -0.0927,-0.006 -0.26217,0.0322 -0.16952,0.0462 -0.17123,-0.0162 -0.17123,-0.0162 0,0 -0.0838,-0.16908 -0.16854,-0.24614 -0.026,-0.024 -0.043,-0.0342 -0.0535,-0.0345 z m -0.008,1.69349 c -0.0789,0 -0.0856,0.0589 -0.0856,0.0589 l -0.008,0.0776 c 0,0 -0.10712,0.0235 0.14714,0.008 0.25426,-0.008 0.3098,-0.16429 0.23275,-0.12572 -0.0694,0.0387 -0.12553,0.0175 -0.2488,-0.0133 -0.0144,-0.005 -0.0262,-0.005 -0.0375,-0.005 z m -12.99127,12.4295 c -0.01,0.035 -0.02,0.0694 -0.0294,0.10434 l 0,-0.10167 c 0.01,0 0.0194,0 0.0294,-0.005 z"
       id="path14"
       inkscape:connector-curvature="0" />
  </g>
</svg>
