<?xml version="1.0" encoding="UTF-8" standalone="no"?>
<!-- Created with Inkscape (http://www.inkscape.org/) -->

<svg
   xmlns:dc="http://purl.org/dc/elements/1.1/"
   xmlns:cc="http://creativecommons.org/ns#"
   xmlns:rdf="http://www.w3.org/1999/02/22-rdf-syntax-ns#"
   xmlns:svg="http://www.w3.org/2000/svg"
   xmlns="http://www.w3.org/2000/svg"
   xmlns:sodipodi="http://sodipodi.sourceforge.net/DTD/sodipodi-0.dtd"
   xmlns:inkscape="http://www.inkscape.org/namespaces/inkscape"
   width="99.999992"
   height="110.17915"
   id="svg3978"
   version="1.1"
   inkscape:version="0.48.4 r9939"
   sodipodi:docname="cocof.svg">
  <defs
     id="defs3980" />
  <sodipodi:namedview
     id="base"
     pagecolor="#ffffff"
     bordercolor="#666666"
     borderopacity="1.0"
     inkscape:pageopacity="0.0"
     inkscape:pageshadow="2"
     inkscape:zoom="2.1345786"
     inkscape:cx="-55.79826"
     inkscape:cy="47.805501"
     inkscape:document-units="px"
     inkscape:current-layer="layer1"
     showgrid="false"
     inkscape:window-width="1276"
     inkscape:window-height="775"
     inkscape:window-x="0"
     inkscape:window-y="21"
     inkscape:window-maximized="1"
     fit-margin-top="0"
     fit-margin-left="0"
     fit-margin-right="0"
     fit-margin-bottom="0" />
  <metadata
     id="metadata3983">
    <rdf:RDF>
      <cc:Work
         rdf:about="">
        <dc:format>image/svg+xml</dc:format>
        <dc:type
           rdf:resource="http://purl.org/dc/dcmitype/StillImage" />
        <dc:title />
      </cc:Work>
    </rdf:RDF>
  </metadata>
  <g
     inkscape:label="Layer 1"
     inkscape:groupmode="layer"
     id="layer1"
     transform="translate(-343.6199,-575.67956)">
    <path
       style="fill:#000000;fill-opacity:1;fill-rule:nonzero;stroke:none"
       d="m 344.13465,575.68175 c -0.27957,0.0295 -0.515,0.2913 -0.51469,0.57243 l 0,47.10137 c -6.2e-4,0.0387 0.004,0.0773 0.009,0.11543 l 0,39.4772 c 0,2.41977 0.76934,4.34458 2.04434,5.65198 0.64462,0.66093 1.41395,1.15703 2.26079,1.49123 2.49152,1.97719 6.71156,4.30513 13.63208,4.18481 l 21.09748,0.0721 c 3.55664,-0.14115 5.40894,0.90428 6.49377,2.27524 0.004,0.009 0.005,0.0126 0.009,0.0191 0.81627,1.37842 1.45873,2.86446 1.95775,4.68994 0.0313,0.11723 0.10716,0.21793 0.20202,0.29341 0.0108,0.034 0.0239,0.0721 0.0336,0.10591 l 0,0.0381 c 0.0692,0.11112 0.16704,0.20972 0.25014,0.27902 1.32993,1.30209 2.09358,2.14713 3.85295,3.80969 0.47101,-6.81597 4.70899,-10.52623 11.74648,-11.37136 l 27.69226,0 c 5.72144,0.15247 8.81305,-3.20265 8.71606,-7.45575 l 0,-87.21837 -4.47346,-4.13195 -0.0626,0.0626 c -0.0721,-0.0343 -0.15031,-0.0532 -0.2309,-0.0529 l -47.02441,0 c -0.0396,-0.009 -0.08,-0.0108 -0.12029,-0.0108 l -47.51505,0 c -0.0192,-8.2e-4 -0.0385,-8.2e-4 -0.0577,0 z m 0.63495,1.14965 46.32211,0 0,45.18691 -46.32211,0 0,-45.18691 z m 71.11384,4.48309 c 0.11687,-0.005 0.21757,0.005 0.29823,0.0336 0.002,4.6e-4 0.004,-4.7e-4 0.005,0 0.15894,0.15912 0.28014,0.311 0.35595,0.44254 0.0604,0.2104 0.069,0.53539 0.0192,0.94762 -0.093,0.0867 -0.14366,0.17926 -0.22608,0.31747 -0.16758,0.28108 -0.39612,0.72154 -0.66381,1.29393 -0.53541,1.14477 -1.22918,2.79598 -1.87116,4.56967 -0.64198,1.77371 -1.23278,3.66879 -1.55369,5.31047 -0.32092,1.64166 -0.41402,3.02562 0.11058,3.86257 l 0.1972,0.31747 0.24052,-0.28861 c 0.30901,-0.37082 0.61023,-1.02486 0.9428,-1.90964 0.3326,-0.8848 0.68135,-1.99094 1.00534,-3.21803 0.64794,-2.45414 1.20563,-5.38391 1.38052,-7.95124 0.0415,-0.66443 0.51504,-1.21672 0.84659,-1.85192 0.0293,-0.0561 0.046,-0.11975 0.0723,-0.178 l 0.0336,0.005 c 0.004,-0.0144 0.004,-0.0241 0.005,-0.0385 6.1e-4,-0.004 -6.1e-4,-0.005 0,-0.0108 0.004,-0.0248 0.002,-0.043 0.005,-0.0674 0.0949,-0.2416 0.16721,-0.49405 0.13467,-0.77443 -0.009,-0.0678 -0.0489,-0.13863 -0.0674,-0.20685 0.14115,0.11364 0.21898,0.15787 0.37039,0.28862 0.5131,0.44321 1.06034,0.97216 1.47192,1.47673 0.40778,0.49992 0.6544,0.99004 0.659,1.26028 -0.14492,1.69733 -0.64347,3.0475 -1.27471,4.27625 -0.21589,0.39819 -0.44191,0.79547 -0.68304,1.19292 -0.55219,0.91015 -1.14305,1.82806 -1.66434,2.78509 -8.1e-4,0.002 -0.004,0.004 -0.005,0.005 -0.23015,0.42284 -0.4485,0.85076 -0.63977,1.29393 -0.20438,0.47296 -0.38848,0.96813 -0.5291,1.49597 l 0.26454,0.0674 0.25976,0.0723 c 0.12928,-0.48552 0.29989,-0.95649 0.50026,-1.41902 0.18339,-0.42339 0.39698,-0.83997 0.62052,-1.25065 6e-4,-8.3e-4 -6.3e-4,-0.004 0,-0.005 0.4611,-0.82938 0.98527,-1.62454 1.49596,-2.45799 0.29874,-0.48756 0.58491,-0.99667 0.85621,-1.52485 0.69571,-1.28181 1.23161,-2.62094 1.318,-4.11269 2.0047,0.82699 2.79041,1.86023 2.87168,2.97749 0.0863,1.18583 -0.62227,2.55075 -1.6499,3.82891 -2.05524,2.55634 -5.30083,4.72362 -5.30083,4.72362 l 0.17315,0.49064 c 0.35036,-0.0297 1.21376,0.0284 2.02027,0.36077 0.80651,0.33237 1.55768,0.91325 1.83748,1.96255 l 0.0723,0.27898 0.2742,-0.0913 c 1.81089,-0.61952 4.35873,-1.1146 6.84971,-0.69748 2.49097,0.41713 4.92755,1.72212 6.614,4.74283 0.34617,0.61438 0.34442,1.20488 0.12029,1.76053 -0.22418,0.55568 -0.68652,1.06773 -1.2699,1.43346 -1.16677,0.73146 -2.75536,0.87361 -3.82893,-0.16829 l 0,0.005 c -7.5e-4,-7.7e-4 -0.004,7.7e-4 -0.005,0 -1.04557,-1.03842 -2.32483,-2.20223 -3.78082,-3.03042 -1.45708,-0.82882 -3.10381,-1.32969 -4.83905,-0.99571 -6.87843,1.35037 -8.56358,6.2931 -9.73583,8.41302 -0.002,0.004 -0.004,0.009 -0.005,0.0108 l 0.46656,0.26935 c 0.002,-0.004 0.004,-0.007 0.005,-0.009 1.6265,-2.67573 3.89135,-4.98928 6.23881,-5.95501 2.34849,-0.96614 4.75168,-0.65283 6.90263,1.98661 0.002,0.002 0.004,0.004 0.005,0.005 0.96648,1.23022 -0.94199,3.62147 -2.42433,2.72737 -1.77885,-1.07435 -3.36129,-1.56407 -4.70918,-1.57293 -1.34789,-0.009 -2.46218,0.47812 -3.23245,1.31799 -1.47671,1.61014 -1.68755,4.44489 -0.4281,7.55199 -2.01915,-0.11039 -3.06315,-1.02327 -3.65575,-2.26078 -0.63207,-1.31999 -0.71192,-3.02593 -0.71192,-4.41577 l 0,-0.21164 -0.20682,-0.0529 c -1.14081,-0.27069 -1.69066,-0.95105 -2.01547,-1.88076 -0.32483,-0.92977 -0.38313,-2.1021 -0.43772,-3.21323 -0.0547,-1.11113 -0.0944,-2.1594 -0.50026,-2.91497 -0.20296,-0.37778 -0.51813,-0.68286 -0.95244,-0.81773 -0.43429,-0.13485 -0.96487,-0.10842 -1.62102,0.077 -0.68374,0.19306 -1.42013,0.76741 -2.078,1.28433 -0.32895,0.25845 -0.6322,0.50481 -0.87547,0.67825 -0.12154,0.0867 -0.22867,0.1557 -0.30785,0.1972 -0.0547,0.0288 -0.0937,0.0401 -0.1059,0.0432 l 0,0.005 c -1.55295,-0.10555 -2.55872,-0.59448 -3.11218,-1.2314 -0.5547,-0.63834 -0.68642,-1.44207 -0.44736,-2.29446 0.47818,-1.70478 2.52725,-3.54456 5.75781,-3.91551 0.0698,-0.009 0.16541,-0.004 0.24532,-0.005 1.43919,0.15624 3.68085,0.73236 5.04107,2.03472 0.004,0.004 0.007,0.007 0.0108,0.0108 0.20535,0.20157 0.38932,0.41395 0.54355,0.63976 0.20237,0.29943 0.36728,0.61641 0.50508,0.9476 0.27559,0.66241 0.43596,1.38132 0.53393,2.13574 0.0489,0.3772 0.086,0.76298 0.11058,1.15444 0.0741,1.17433 0.066,2.4008 0.16362,3.59804 0.0325,0.39904 0.0775,0.79334 0.13952,1.1833 l 0.26938,-0.0432 0.26454,-0.0385 c -0.0592,-0.37201 -0.10087,-0.75599 -0.12982,-1.14483 -0.087,-1.1665 -0.0678,-2.39305 -0.14438,-3.59801 -0.0255,-0.40166 -0.062,-0.80435 -0.11543,-1.19774 -0.15984,-1.18015 -0.47873,-2.30708 -1.14964,-3.29978 -0.18034,-0.26402 -0.38909,-0.5093 -0.61569,-0.73116 -0.002,-0.002 -0.004,-0.004 -0.005,-0.005 -0.69299,-0.68018 -1.58607,-1.20058 -2.48687,-1.56813 -1.01208,-0.41292 -2.01392,-0.62043 -2.80914,-0.6205 0.26351,-0.97562 0.71253,-1.63741 1.25545,-2.05877 0.59846,-0.46444 1.31396,-0.66026 2.01547,-0.68304 0.70151,-0.0228 1.38523,0.13161 1.8856,0.35597 0.2275,0.10194 0.40084,0.2202 0.53391,0.33189 0.10069,0.14888 0.19093,0.30207 0.30306,0.44736 l 0.59645,0.76962 -0.11543,-0.96686 c -0.0288,-0.24455 -0.17423,-0.44198 -0.36557,-0.61571 -0.009,-0.007 -0.0209,-0.0126 -0.0288,-0.0192 -1.34604,-2.04322 -1.60321,-4.41862 -1.20736,-6.40717 0.40586,-2.03891 1.50527,-3.6049 2.63598,-4.00688 0.33254,0.56779 0.75341,1.69972 0.67342,2.36662 -3.1e-4,0.004 3.1e-4,0.007 0,0.009 -0.18901,1.16099 -0.25663,2.58662 -0.28862,4.03095 -0.0239,0.74429 -0.0365,1.49008 -0.0288,2.24154 6.1e-4,0.0529 -7.8e-4,0.11111 0,0.16361 0.002,0.1246 0.009,0.20528 0.009,0.3271 0.0126,0.64523 0.0293,1.28767 0.0626,1.93369 0.0449,1.00782 0.0974,1.82215 0.13467,2.10686 3e-4,0.004 -3.1e-4,0.0126 0,0.0144 l 0.53873,-0.0577 c -0.0556,-0.65879 -0.0899,-1.32045 -0.12514,-1.98179 -0.0286,-0.61091 -0.0575,-1.29462 -0.0721,-2.05878 -0.004,-0.1523 -0.009,-0.30496 -0.0108,-0.45697 -0.009,-0.68304 0.0108,-1.399 0.0239,-2.11166 0.0414,-1.37185 0.121,-2.72731 0.28379,-4.04537 0.002,-0.0108 0.004,-0.0192 0.005,-0.0288 4.5e-4,-0.004 -4.5e-4,-0.007 0,-0.0108 0.10698,-0.63415 0.55263,-1.42087 1.15926,-2.14534 0.60934,-0.72768 1.38047,-1.39798 2.09724,-1.83268 0.53758,-0.32603 1.03869,-0.49844 1.39496,-0.5147 z m -50.97838,0.67343 c -0.47102,0.0415 -1.38534,2.19018 -1.38534,0.61089 -0.26321,0.18008 -0.55529,0.77867 -0.72154,1.11116 -0.20779,0.40175 -0.55317,0.24897 -0.55317,-0.12514 -0.36018,0 -0.95722,1.61949 -0.95722,1.81344 0,0.23551 -0.13737,0.80215 0.0288,0.77444 l 0.4714,-0.0962 c 0.36019,-0.0692 0.21896,-0.53951 0.50987,-0.78888 0.30478,-0.26321 0.24975,-0.6638 0.4714,-0.6638 0.12461,0 0.30728,-0.0288 0.29342,0.20684 -0.0415,0.33247 -0.27898,0.56625 -0.27898,0.64937 0.55415,-0.27706 1.69088,-0.38655 2.32813,-0.0818 0.56798,0.24936 0.93992,-0.0144 1.21697,-0.37521 0.58185,-0.81733 0.61109,-0.94337 0.50028,-1.64988 l -0.0818,-0.44254 c -0.27706,-2.11956 -1.8423,1.01053 -1.8423,-0.9428 z m 15.94576,1.02939 c 0.0415,0 -1.74898,2.07644 -2.85725,2.96308 -1.09441,0.87274 -2.96212,1.88289 -3.16991,2.04913 -0.2078,0.18007 1.55176,-0.63841 3.00636,-0.37521 1.4546,0.27708 0.95359,0.18221 0.98128,0.1683 0.90047,-0.5957 1.46846,-0.80274 2.42433,-1.48155 -0.13844,0.0277 0.76137,-0.59588 -0.0144,-0.23569 -0.76194,0.37404 -1.94004,0.33307 -2.09242,0.36075 -0.15248,0.0277 -0.29017,-0.1548 -0.0962,-0.29341 0.19395,-0.13845 0.31997,-0.17728 0.95722,-0.96686 0.62342,-0.77578 0.86103,-2.18861 0.86103,-2.18861 z m -17.24933,2.63116 c -0.67211,0.0126 -0.86102,0.31747 -0.86102,0.31747 0.13862,-0.0692 1.21985,-0.45677 0.9428,0.81773 1.56541,-0.24935 2.20247,0.92665 2.18863,0.88508 -0.0277,-0.0415 -0.0662,-1.57715 -1.42382,-1.90964 -0.34288,-0.0831 -0.62256,-0.11453 -0.84659,-0.11057 z m -0.55317,0.64938 c -0.023,-9e-5 -0.048,0.004 -0.0723,0.0144 -0.19395,0.0692 -0.0818,0.2357 -0.0818,0.2357 0,0 -0.11165,0.0108 -0.25012,0.0529 -0.13844,0.0415 -0.08,0.22531 -0.0385,0.32228 0.0415,0.0831 0.2049,0.24762 0.27418,0.30303 0.0485,0.039 0.0669,0.13539 0.0721,0.1683 0,-0.0692 0.17656,-0.20798 0.25974,-0.2357 0.0969,-0.0415 0,-0.13953 0,-0.13953 0,0 -0.0674,-0.20799 -0.0674,-0.2357 0,-0.0415 0.098,-0.17962 0.13952,-0.22128 0.0485,-0.0363 -0.0748,-0.26398 -0.2357,-0.26456 z m -1.06785,0.27898 c -0.18011,0 -0.86104,0.26168 -0.86104,0.53875 -0.48487,1.27451 0.0849,-0.15283 0.97165,-0.12514 l -0.11057,-0.41368 z m 0.26454,0.69268 c -0.0831,0 -0.8314,0.52431 -0.92836,0.52431 0.37404,0.0692 1.01206,-0.13952 1.28915,-0.13952 -0.18011,-0.45716 -0.18068,-0.34326 -0.36079,-0.38481 z m 2.09244,0.0288 c -0.54753,-0.018 -1.00519,0.30784 -0.9428,0.40887 -0.0611,0.10303 -0.14492,0.42577 -0.20684,1.29395 -0.12478,1.9256 -2.32812,2.63117 -2.32812,2.63117 0.44329,0.19394 1.03726,0.12389 1.34204,0.0962 0.27706,-0.0277 0.27842,0.0989 0.26454,0.27899 -0.0275,0.18009 -0.39,0.58223 -0.51468,1.16406 -0.1246,0.58184 0.208,1.9668 0.2357,1.60661 0.0277,-0.3602 0.54144,-1.44363 1.06785,-1.80383 0.51258,-0.34633 0.6642,-0.63647 0.78888,-0.78885 0.11075,-0.15247 0.44619,-0.8997 0.4185,0.25012 -0.0277,1.14982 0.45464,2.21731 0.39923,1.98179 -0.0554,-0.31862 0.59819,-2.13302 0.63976,-2.29927 0.0415,-0.16631 0.49544,-1.77554 0.49544,-2.48205 0,-0.72038 -0.025,-1.25779 -0.85621,-2.00584 -0.25542,-0.23378 -0.53967,-0.32339 -0.80329,-0.33192 z m -1.73165,0.85621 c -0.3048,0.37406 -1.02904,0.68114 -1.25067,1.09673 -0.31863,0.8312 1.07056,0.60726 1.25067,-0.0577 0.0969,-0.27705 0.11075,-0.81733 0,-1.03901 z m 13.91587,0.048 c -0.74984,0.0108 -1.48396,0.14833 -2.24157,0.40886 -1.74551,0.59572 -3.7781,2.19096 -4.63702,3.97804 -0.84504,1.77323 -0.84544,4.09944 -0.81773,4.12713 l 0.69268,0.76004 c 0,0 0.36055,-3.11472 2.20305,-4.44462 1.8425,-1.32993 2.8361,-2.03836 4.98338,-2.357 2.1611,-0.31863 3.43792,0.31959 3.86737,0.48584 0.42945,0.16631 1.84307,1.22024 2.09242,2.45319 0.24938,1.23294 0.0662,1.49615 0.0385,1.73167 -0.0144,0.24935 0.53046,-0.78947 0.44734,-2.18865 -0.0969,-1.38533 -1.54117,-3.67075 -3.54992,-4.37727 -1.12211,-0.39741 -2.11446,-0.59183 -3.07852,-0.57723 z m -15.04148,0.0577 c -0.63465,0.0633 -1.14964,0.49017 -1.14964,0.91876 -0.0277,0.30476 0.25302,0.20606 0.32229,0.30303 0.33769,-0.36365 0.37904,-1.12754 0.85139,-1.22179 -0.009,6.2e-4 -0.0162,-7.6e-4 -0.0239,0 z m -0.50987,1.47193 c 0,0 -1.08326,0.51468 -2.26079,1.20736 -1.08056,0.77578 -1.31301,1.81651 -1.42382,2.46761 -0.12478,0.65111 -0.12856,0.64823 -0.21164,0.96685 -0.0831,0.33247 -0.093,-0.2353 -0.24532,1.2747 -0.16632,1.49617 0.62243,2.41279 1.24583,3.17472 0.63725,0.77579 2.70044,2.08838 2.63116,1.99143 -0.0831,-0.0971 -0.34401,-0.4995 -0.98128,-1.63548 -0.65109,-1.13597 -0.49968,-2.21384 -0.13952,-2.58787 0.36019,-0.37404 1.28873,-0.63785 1.51041,-0.7071 0.20779,-0.0554 0.73038,-0.59743 0.48102,-1.08229 -0.23552,-0.49873 -0.15247,-2.12995 0,-2.33776 0.13845,-0.2078 0.0976,-0.1683 -0.0962,-0.1683 -0.18009,0 -0.95472,-0.0415 -1.35647,-0.34633 -0.40176,-0.29091 -0.19435,-0.40271 -0.12514,-0.48583 0.0554,-0.0831 0.59665,-0.24993 0.83217,-0.36075 0.24935,-0.12479 1.44036,-0.96763 0.91392,-0.87067 -0.70652,0.15247 -0.77443,-0.50026 -0.77443,-0.50026 z m 15.80627,1.42862 c -1.52388,0.0831 -3.40946,0.97106 -3.96358,1.99623 -0.29092,0.54028 -0.53933,1.73223 -0.55318,1.74611 -1.30221,1.3022 2.9627,-1.25085 3.18434,-1.8327 l 1.42863,0.0867 c 0.84506,0.0831 1.92773,0.49738 2.5927,0.77443 -0.24936,-0.34631 -1.02554,-0.72037 -1.85674,-1.03899 -0.37406,-0.29092 -1.57929,-0.22108 -1.38532,-0.67824 0.0969,-0.18009 0.55315,-0.87333 0.55315,-1.05343 z m 0.53875,0 c 0,0.29091 -0.3448,0.83062 -0.53875,1.02457 l 0.58205,0.12514 c 0.0275,0.0831 0.33344,-0.4456 0.48582,-1.09673 l -0.52912,-0.0529 z m -13.27132,1.76053 c 0,0 -0.52507,0.63512 -0.77444,0.87064 -0.2355,0.2355 -0.664,1.24968 -0.55317,1.11117 0.11076,-0.13863 1.5635,-0.20839 1.79902,-0.0144 0.23549,0.19395 -0.0841,-0.39058 -0.13952,-0.52911 -0.0554,-0.0831 -0.40117,-0.78715 -0.33191,-1.43824 z m 7.96568,0.50987 c 0.1246,-0.16631 -0.99764,1.1785 -1.27471,1.87116 -0.19394,0.37404 -0.27456,0.62283 -0.39923,1.02458 0.63725,-0.81736 1.23197,-0.93895 1.24582,-1.07749 0.0415,-0.74808 0.13718,-1.25026 0.42812,-1.81825 z m 3.75676,0.0962 -0.11058,0.26457 c 0.18011,0 0.44159,6.1e-4 0.64938,0.0144 -0.19393,0 0.23302,-0.31825 0.0529,-0.22127 l -0.59166,-0.0577 z m 0.29341,0.75039 c -0.27606,-6.1e-4 -0.5524,0.0126 -0.82253,0.0529 -2.16112,0.31863 -2.87959,1.06767 -3.53068,1.52483 -0.65111,0.45718 -1.76053,2.01067 -1.76053,2.01067 l 0.41367,0.55316 c 0,0 1.47058,-1.75782 3.28536,-2.61674 1.82865,-0.87275 3.86451,-1.13578 5.52693,-0.80331 0.71515,0.14546 -1.17974,-0.71717 -3.11222,-0.72152 z m -11.05862,0.83217 c 0.0277,0.0144 0.0529,0.10914 0.39925,0.30304 0.24936,0.13844 0.48891,0.24994 1.14,1.05343 0.7481,1.0113 0.69114,2.02336 0.53876,2.67445 -0.16632,0.66497 -0.50084,1.06576 -0.1683,0.89952 0.78965,-0.37404 0.87545,-0.86103 0.87545,-0.86103 0,0 -0.0406,-0.78829 0.48586,1.30357 0.52641,2.07799 -0.84756,3.52202 0.39922,2.62154 0.0969,-0.0692 0.58398,-0.54143 0.86103,-1.06785 0.15229,-0.30478 0.0807,-0.78984 0.39925,-0.58203 0.11075,0.0692 0.11093,0.22126 0.2357,0.56759 0.11075,0.34635 0.27782,0.9151 0.25012,1.98181 -0.0831,2.16113 -1.28892,2.93536 -0.70709,2.61674 0.73424,-0.40174 1.35974,-1.64873 1.20734,-0.92838 -0.16631,0.70653 0.77503,3.61438 0.78889,3.19879 0.0277,-0.40177 0.0935,-3.19956 0.25976,-2.75625 0.15229,0.42946 1.7455,1.24681 1.03899,0.69266 -0.70652,-0.5541 -0.99494,-3.17316 -0.74557,-2.67445 0.24934,0.49873 1.80152,0.6238 1.39976,0.4714 -0.60956,-0.2355 -1.24871,-1.25833 -1.66432,-2.02029 -0.70653,-1.27449 -0.28881,-1.18022 -1.90966,-3.64613 -1.62084,-2.47973 -5.08436,-3.84813 -5.08436,-3.84813 z m -1.70281,0.20682 c -0.80894,-0.0252 -1.34685,0.59647 -1.34685,0.59647 0,0 -0.18066,0.44042 -0.7071,0.62053 -0.51257,0.19393 -0.74462,0.14042 -0.95241,0.27898 -0.2078,0.13862 -0.59665,0.44448 -0.48582,1.06787 0.1246,0.60954 0.83119,1.91292 1.03899,2.10686 0.22166,0.19395 0.45638,0.7733 0.78887,1.0919 0.33249,0.30478 1.48306,1.13522 2.67447,1.13522 0.45714,0 -0.37655,-0.23512 -0.29341,-0.56761 0,0 0.1,-0.0944 0.30783,-0.0529 0.20782,0.0415 0.89952,0.2742 0.89952,0.2742 l 0.58202,-0.30305 c 0,0 -0.36228,-0.11004 -0.51468,-0.44255 -0.16632,-0.33248 0.0976,-0.24954 0.25012,-0.23568 0.15247,0.0277 0.75039,0.30302 0.75039,0.30302 0.15229,-0.20778 0.42561,-0.47293 0.48102,-0.62533 0,0 -0.17854,0.14204 -0.53873,0.0867 -0.37404,-0.0415 -0.20879,-0.18182 -0.13953,-0.38963 0.0692,-0.2078 1.12347,-1.57697 0.26454,-3.05928 -0.8589,-1.46845 -1.99526,-1.74647 -2.89571,-1.87116 -0.0563,-0.009 -0.10968,-0.0126 -0.16362,-0.0144 z m 13.27615,0.0577 c -0.11256,0.0144 0.64566,0.11903 1.49113,0.50988 1.28838,0.58185 2.21713,0.61053 3.13143,2.91017 1.34378,3.38022 1.06345,3.86259 0.84179,5.24791 -0.22165,1.39921 -0.87142,2.70544 -1.81344,4.25702 -0.94203,1.53774 -1.10942,3.36309 -1.06785,3.61245 0.0415,0.29092 0.52739,-1.92273 1.52481,-2.35218 0.42947,-0.19393 0.49873,-0.22164 0.34633,0.34633 -0.0415,0.13845 -0.0415,2.92325 0.69268,4.04538 0.19395,0.2909 -0.0543,-0.37578 0.0288,-1.42864 0.0692,-0.99744 0.16416,-2.17767 0.87064,-4.33877 1.39919,-4.30841 1.3428,-7.08984 0.89949,-8.35049 -0.4433,-1.27451 -1.23043,-4.33802 -5.94058,-4.435 -0.471,-0.0108 -0.75598,-0.021 -0.8995,-0.0239 -0.0539,-8.4e-4 -0.0897,-0.002 -0.1059,0 z m -0.51952,0.45698 c 0,0 2.10686,0.88372 2.45319,1.6595 0.36018,0.77578 -0.30496,0.42832 -0.58203,0.31749 -0.29091,-0.1246 -0.65014,-0.26091 -1.24583,-0.28861 -0.60954,-0.0144 0.88391,0.11201 1.54889,1.06785 0.67879,0.96973 1.38821,2.36604 1.11114,4.08385 -0.1246,0.87277 -0.70787,1.81384 -1.6499,2.28484 -0.94202,0.47103 -2.09242,0.48719 -2.43877,0.40405 -0.70652,-0.15229 0.41369,0.33191 0.41369,0.33191 0,0 1.42939,0.51317 3.06409,-0.33191 1.12212,-0.56799 1.1073,-0.96972 1.24582,-1.03899 0.15247,-0.0692 0.16829,0.0419 0.16829,0.12514 0,0.20779 0.14996,0.94337 -0.29341,1.6499 -0.45716,0.7065 0.63937,-0.33576 1.20735,-1.58257 0.55415,-1.26065 0.72,-4.5818 -0.81774,-6.25804 -1.53771,-1.6624 -0.54047,-0.66708 -1.62103,-1.55369 -1.06672,-0.80349 -2.46685,-0.87065 -2.56382,-0.87065 z m -1.25545,0.28862 c -0.23682,0.0108 -0.46748,0.0498 -0.68306,0.12514 -1.46845,0.51257 -2.52362,1.64777 -3.52104,2.52054 0.0969,0.0969 0.29339,0.37384 0.29339,0.45698 1.30222,-1.59315 4.11581,-2.45206 6.49859,-2.078 -0.42773,-0.55156 -1.56171,-1.06636 -2.58788,-1.02457 z m 0.41848,1.73165 c -0.42893,-4.5e-4 -0.83409,0.0708 -1.19774,0.15391 -0.95588,0.22166 -2.82839,1.65952 -2.82839,1.65952 0,0 0.34865,0.61128 0.40406,0.73595 0.0692,0.11076 0.39925,-0.60973 1.43824,0.11058 1.03901,0.72039 0.2786,1.86981 0.15391,1.95295 -0.13863,0.0969 1.06787,-7.7e-4 1.4142,-0.94281 0.33247,-0.92815 0.49716,-0.38616 0.53873,-0.30304 0.0277,0.0969 0.50102,0.73518 0.0577,2.21751 -0.0277,0.0969 1.38475,-0.0318 1.71723,-0.79369 0.31863,-0.76194 0.46908,0.76214 0.41369,0.92836 -0.0692,0.18011 0.0419,0.12892 -0.22128,1.02939 -0.0277,0.0969 2.01066,-1.17985 1.66432,-3.17473 -0.0277,-0.1801 -0.12658,-1.68837 -1.31799,-2.72738 -0.74461,-0.64937 -1.52188,-0.84591 -2.23673,-0.84659 z m -16.41236,2.49169 c -0.0831,0 0.002,0.18278 -0.0818,0.18278 0.92818,0.99744 0.69344,1.90887 3.36713,3.04484 0.78965,0.33249 2.33911,0.6542 3.295,0.6542 -0.27707,0 -0.84448,-0.85852 -1.02459,-0.91394 -2.18883,-0.66495 -2.64522,-1.58256 -2.86686,-1.58256 -0.13862,0 -0.45793,-0.13467 -0.59646,-0.13467 -0.81736,-0.41561 -1.48289,-0.68267 -2.09243,-1.25065 z m 8.86999,0.11057 c -0.0971,0.27707 -0.47333,0.5984 -0.7504,0.87545 l 0.81773,0.0674 0,-0.44254 -0.0674,-0.50025 z m 47.65934,0.33671 c -2.59286,1.11325 -4.60506,2.81388 -5.10843,5.61832 l -0.13952,0.79366 0.59165,-0.54835 c 1.77081,-1.64532 3.44157,-3.48597 4.97373,-5.44994 l -0.31747,-0.41369 z m -43.29651,0.10105 c -0.0696,0.007 -0.13665,0.0262 -0.20685,0.0626 l 0.33191,0.91394 c 0.40175,-0.29093 0.33307,-0.22068 0.7071,-0.55317 -0.23636,-0.22513 -0.53062,-0.45083 -0.83216,-0.4233 z m -5.57019,0.92356 -0.5099,0.28862 c 0.27708,0.0277 1.07864,0.16631 1.79903,0.34631 0,-0.0969 0.0825,-0.4858 -0.0144,-0.4858 -0.44329,0 -0.88681,-0.0245 -1.27469,-0.14906 z m 47.93352,0.0336 c -1.07731,1.3084 -2.2089,2.54819 -3.39599,3.70384 0.56998,-1.66006 1.78611,-2.8221 3.39599,-3.70384 z m -49.11202,0.6446 c -0.37406,0 -0.85892,0.23645 -1.03899,0.13952 -0.12478,0.0554 1.6899,0.6761 2.53494,0.85621 0.84506,0.1801 0.61303,-0.12208 0.77927,-0.39925 -0.11093,0 -2.19212,-0.59645 -2.27522,-0.59645 z m 0.32227,1.24583 c 1.10827,0.55413 1.61853,1.02572 4.09829,1.05343 0,-0.0969 0.0144,-0.48371 0.0144,-0.6638 -0.37406,0 -0.60782,0.0667 -1.34207,0.0529 -1.02513,-0.0692 -1.52769,-0.0689 -1.94329,-0.22128 -0.19395,0 -0.64727,-0.22126 -0.82735,-0.22126 z m -4.00688,0.19241 c 0.0969,0.18008 0.0432,0.57028 0.0432,0.75037 0,0.19397 0.18164,0.7456 -0.19242,0.7456 0,0.37404 0.59493,0.49871 0.78889,0.69266 -0.0554,1.2468 0.63513,1.55291 1.21698,1.30355 0.58185,-0.24935 1.24833,-0.47138 1.53927,-0.47138 -0.40175,-0.62341 -1.50966,-1.57755 -1.60661,-2.38104 -0.568,0 -1.35995,-0.45968 -1.7894,-0.63976 z m -6.34464,0.30783 c -0.38788,0.30478 -1.03877,0.5378 -1.49597,0.7456 -0.0415,0.0415 -0.0696,0.0836 -0.12496,0.12514 l -0.87066,0.20684 c -0.29094,-0.0969 -0.945,0.34671 -0.76482,0.81773 0.0277,0.2355 0.15265,0.1951 0.2357,0.37517 -0.16631,-0.55411 0.0431,-0.30399 0.0431,-0.44252 0.29094,-0.0415 1.17886,-0.56877 1.64988,-0.9428 0.4572,-0.37404 0.77543,-0.26284 0.56761,0.12514 -0.58181,1.03899 -0.56662,1.10634 -0.77445,1.45267 -0.13844,0.24937 0.42518,0.90105 0.35597,0.7071 -0.2633,-0.72037 0.17045,-0.12406 0.33671,-1.02457 0.0831,-0.45714 0.26087,-1.17695 0.63495,-1.3709 0.22164,-0.0277 0.92759,0.0431 1.3709,-0.19241 l 0.12514,0.0529 c -0.0144,0.84506 0.0813,1.31648 0.41369,2.20308 0.2355,-0.0144 0.2357,0.0541 0.2357,0.42812 0.66497,-0.58185 -0.41175,-1.952 -0.13467,-2.50613 0.1246,-0.0144 1.0113,0.0144 1.38534,0.37521 0.0554,0.31862 0.22011,0.72114 0.1924,1.28911 0,0.11076 0.24899,-0.59742 0.22128,-0.73594 -0.0554,-0.27707 -0.0424,-0.44446 0.44254,-0.3752 0.92817,0.13844 1.91484,0.78867 2.38584,1.24583 0,-0.41559 0.0126,-0.32882 -0.0288,-0.37037 -0.72037,-0.54028 -0.48601,-0.90085 -0.72153,-0.81773 -2.92305,-0.37406 -3.33634,-1.11059 -3.4056,-1.09673 l -0.98609,-0.25975 c -0.18011,0 -1.15061,-0.0144 -1.28915,-0.0144 z m 8.84113,0.41368 c 0,0.0971 0.45696,0.77793 0.45696,0.86103 0.78965,1.34377 2.8665,2.13247 3.43449,3.32386 0.31862,-0.13845 0.56759,0.33381 0.56759,0.61088 0.37404,-0.0277 0.74578,-0.0994 0.98128,0.0529 0.0554,0.0415 0.55682,-0.4006 0.52913,-0.66381 -0.13862,-1.2468 0.0432,-1.49655 0.38961,-2.20307 -0.37404,0.37404 -1.12384,0.943 -1.77495,0.83217 0.27707,-0.55414 0.9428,-1.5135 0.9428,-2.1646 -0.91432,-0.0277 -2.81436,-0.38693 -3.28536,-0.55317 -0.58185,-0.22166 0.33516,0.20857 -2.24155,-0.0962 z m 15.33487,0.95724 c -0.29091,0 -1.06959,1.07922 -3.53547,0.77444 -1.06672,1.0113 -1.03632,0.86065 -2.24155,1.0823 -0.33249,0.0554 0.69305,0.37077 1.51041,0.14906 0.23548,0.55412 -0.51182,0.9834 -1.13523,1.49597 1.91176,-0.0831 2.18788,-1.6755 1.93852,-0.0962 -0.13863,0.87276 -0.20704,3.06195 0.25014,3.93472 0.0969,0.18009 -0.41638,-1.42632 0.78885,-3.79523 0.41561,-0.60954 0.5524,-0.81678 0.64939,-0.67825 0.0969,0.15247 0.043,0.69249 0.61088,1.49598 0.0144,-1.4269 0.60992,-3.24072 1.16406,-4.36285 z m -11.66952,3.90105 c -0.0352,0.0144 -0.0239,0.10105 -0.0239,0.10105 0.0144,0.0144 -0.0563,0.52737 -0.13953,0.83215 -0.0969,0.30478 -0.41214,0.90123 -0.60609,1.28913 -0.19395,0.3879 -0.0849,0.38481 -0.27899,0.73114 -0.19395,0.33248 -0.12532,0.1955 -0.70708,0.84659 -0.59572,0.65111 -0.40272,1.06556 -0.83217,1.01015 -0.42945,-0.0554 -1.13368,0.0408 -1.67396,0.0962 -0.54028,0.0692 -0.76366,0.14222 -1.08229,0.32229 -0.30478,0.18009 -0.20569,0.20587 -0.178,0.41369 0.0144,0.22164 0.31746,0.66378 0.31746,0.66378 0,0 -0.0432,-0.16559 -0.0432,-0.33189 0.0144,-0.15247 -0.0795,-0.26091 0.32228,-0.28861 0.40174,-0.0144 0.53873,-0.26456 0.53873,-0.26456 0,0 1.07864,0.1246 1.10635,0 0.0415,-0.1246 0.15157,0.22128 0.0962,0.22128 -0.0144,0 -0.0798,0.002 -0.14905,0.0431 -0.0831,0.0554 -0.31845,0.23588 -0.45698,0.4714 -0.60956,1.0667 -0.0698,1.13635 -0.0144,1.16406 0.0554,0.0277 0.0813,0.12352 0.0674,-0.0288 -0.0277,-0.13844 -0.0813,-0.47003 0.0431,-0.55315 0.13863,-0.0831 0.12622,0.0126 0.50028,-0.16829 0.37403,-0.18009 0.57875,-0.59475 0.73113,-0.89951 0.15248,-0.31862 0.25014,-0.22128 0.25014,-0.22128 0,0 0.7879,-0.0144 1.34205,-0.0144 0.56799,0 0.0441,-0.0263 0.29341,0.15391 0.24937,0.1801 0.21992,0.38482 0.64937,0.38482 0.44331,0 0.29016,-0.22185 0.44254,0.11058 0.0965,0.23165 0.10932,0.36539 0.11058,0.40406 0.0144,-0.0554 0.18278,-0.33538 -0.16344,-0.76483 -0.34635,-0.41559 -0.4566,-0.26186 -1.02459,-0.77443 -0.55413,-0.51258 -0.31995,-1.3863 0.0818,-2.2175 0.40173,-0.83119 1.55099,-1.97909 1.71723,-2.14533 0.16632,-0.15229 -0.0529,-0.12514 -0.0529,-0.12514 0,0 -0.16667,-0.002 -0.4714,0.0674 -0.30476,0.0831 -0.29341,-0.0385 -0.29341,-0.0385 0,0 -0.16506,-0.2944 -0.31749,-0.43292 -0.0381,-0.0381 -0.0629,-0.0545 -0.0818,-0.0577 -0.009,-8.5e-4 -0.0144,-0.004 -0.0192,0 z m 0,3.04486 c -0.15121,-0.002 -0.16362,0.1059 -0.16362,0.1059 l 0,0.13953 c 0,0 -0.20702,0.0236 0.25016,0.009 0.45714,-0.0144 0.557,-0.29054 0.41848,-0.22128 -0.12478,0.0692 -0.22514,0.0313 -0.43294,-0.0239 -0.0277,-0.005 -0.0505,-0.0108 -0.0723,-0.0108 z m 24.47425,10.61128 46.03832,0 0,39.51575 c 0,2.20961 -0.52198,3.88427 -1.47191,4.98817 -0.94994,1.10381 -2.34772,1.7044 -4.33879,1.69794 l -0.005,0 -30.18395,0 -0.0239,0 c -3.18703,0.12478 -5.61717,1.75769 -7.38845,4.07429 -1.09577,1.43302 -1.9368,3.14017 -2.62636,4.93522 l 0,-55.21137 z m -23.67576,5.01703 c 0.11939,-0.005 0.22103,0.009 0.30305,0.0385 0.004,7.7e-4 0.004,0.004 0.005,0.005 0.15876,0.15984 0.28054,0.3062 0.35593,0.43772 0.0606,0.21033 0.068,0.53219 0.0192,0.9428 -0.0901,0.0852 -0.14438,0.17657 -0.22606,0.31266 -0.16902,0.2818 -0.39991,0.72653 -0.66863,1.29875 -0.53742,1.14444 -1.23312,2.79285 -1.87598,4.56489 -0.64285,1.772 -1.23254,3.66436 -1.55368,5.30561 -0.32116,1.64127 -0.41317,3.02765 0.11057,3.86739 l 0.19721,0.31752 0.24052,-0.28861 c 0.30902,-0.37089 0.61,-1.02468 0.9428,-1.90966 0.33281,-0.88497 0.6805,-1.99011 1.00531,-3.21806 0.64967,-2.45581 1.21313,-5.39181 1.39496,-7.96564 0.0415,-0.66514 0.51182,-1.20927 0.84179,-1.8375 0.0295,-0.0559 0.0458,-0.11975 0.0723,-0.17801 l 0.0385,0.005 c 0.004,-0.0144 0.004,-0.0243 0.005,-0.0385 6.1e-4,-0.004 -6.1e-4,-0.005 0,-0.009 0.005,-0.0299 7.7e-4,-0.0523 0.005,-0.0818 0.0904,-0.2346 0.15642,-0.47825 0.12514,-0.75038 -0.009,-0.068 -0.0489,-0.13826 -0.0674,-0.20684 0.13989,0.1122 0.21564,0.15481 0.36557,0.28382 0.51216,0.44056 1.06071,0.96815 1.47192,1.47191 0.4074,0.49909 0.6544,0.98557 0.659,1.26026 -0.1442,1.68251 -0.63434,3.02155 -1.26027,4.24263 -0.21988,0.40644 -0.45581,0.81106 -0.7023,1.21692 -0.55325,0.91107 -1.14229,1.8263 -1.66432,2.7851 -0.0108,0.0162 -0.0144,0.0365 -0.0239,0.053 -0.22531,0.41666 -0.4431,0.83809 -0.63013,1.2747 -8.5e-4,0 -0.004,0 -0.005,0.009 -0.20148,0.47089 -0.37612,0.9554 -0.50987,1.45747 l 0.26455,0.0721 0.25974,0.0672 c 0.12946,-0.4855 0.29991,-0.95648 0.50026,-1.41902 0.18395,-0.42451 0.39628,-0.83891 0.62055,-1.25065 0.004,-0.009 0.0108,-0.0162 0.0144,-0.0239 0.45829,-0.82166 0.97514,-1.60838 1.48153,-2.43393 0.29946,-0.48823 0.58437,-1.00091 0.85623,-1.52965 0.69473,-1.27874 1.23168,-2.61242 1.31799,-4.09829 2.00479,0.82392 2.78931,1.85253 2.87167,2.96787 0.0874,1.18379 -0.61436,2.54689 -1.64028,3.82413 -2.05175,2.55458 -5.29601,4.7236 -5.29601,4.7236 l 0.17315,0.49062 c 0.34191,-0.0299 1.20896,0.0281 2.01547,0.36079 0.80653,0.33236 1.55468,0.91423 1.82788,1.96253 l 0.0723,0.279 0.2742,-0.0913 c 1.81089,-0.61948 4.35873,-1.10978 6.8497,-0.69266 2.49098,0.41715 4.92756,1.71734 6.61401,4.73802 0.34617,0.61435 0.34425,1.20964 0.12029,1.7654 -0.22398,0.55567 -0.68734,1.06289 -1.26988,1.42855 -1.16508,0.73151 -2.74795,0.87296 -3.81449,-0.1683 l 0,0.009 c -7.7e-4,0 -0.004,0 -0.005,0 -1.05198,-1.03793 -2.33426,-2.2039 -3.79044,-3.03038 -1.45726,-0.82714 -3.102,-1.32241 -4.84387,-0.98135 -6.88166,1.35109 -8.55199,6.2971 -9.73583,8.39867 -8.2e-4,0 -0.004,0 -0.005,0.009 l 0.2357,0.13467 0.2309,0.13953 c 8.3e-4,0 0.004,0 0.005,-0.009 0.002,0 0.004,-0.009 0.005,-0.0108 1.62623,-2.66643 3.88805,-4.9755 6.23401,-5.94061 2.35032,-0.96691 4.75549,-0.65593 6.90743,1.98185 l -0.005,0 c 0.97605,1.22861 -0.93507,3.62268 -2.41951,2.72733 -1.77882,-1.07431 -3.36232,-1.5593 -4.70918,-1.56818 -1.34688,-0.009 -2.45828,0.47339 -3.22764,1.31322 -1.47582,1.61119 -1.68369,4.44775 -0.42811,7.55685 -2.01601,-0.10914 -3.05937,-1.02692 -3.65095,-2.26564 -0.63048,-1.32 -0.70708,-3.02598 -0.70708,-4.41576 l 0,-0.21164 -0.21164,-0.048 c -1.14452,-0.27071 -1.69366,-0.95607 -2.02029,-1.88555 -0.32664,-0.92945 -0.38707,-2.09815 -0.44254,-3.20835 -0.0554,-1.11028 -0.0938,-2.16123 -0.50026,-2.91502 -0.20317,-0.37686 -0.51796,-0.67958 -0.95242,-0.8129 -0.4333,-0.13305 -0.96257,-0.1041 -1.61622,0.082 -0.002,0 -0.004,0 -0.005,0 -0.68486,0.18676 -1.42121,0.76034 -2.07799,1.27468 -0.32905,0.25761 -0.63216,0.50015 -0.87544,0.67342 -0.12173,0.0865 -0.22865,0.15553 -0.30786,0.1972 -0.0554,0.029 -0.0944,0.0439 -0.1059,0.048 -1.55297,-0.10554 -2.55872,-0.59446 -3.11219,-1.23132 -0.5547,-0.63838 -0.68643,-1.44216 -0.44735,-2.29449 0.47793,-1.70391 2.52528,-3.5433 5.75299,-3.91552 0.002,-1.6e-4 0.004,1.6e-4 0.005,0 0.0746,-0.009 0.17422,0 0.25975,0 1.44092,0.15858 3.68267,0.73301 5.04108,2.03951 0.004,0 0.007,0.009 0.0108,0.009 0.20535,0.20251 0.38927,0.41713 0.54356,0.64458 0.40119,0.59521 0.66076,1.25993 0.83217,1.97221 0.17135,0.71231 0.25441,1.47382 0.30303,2.25597 0.0485,0.78213 0.0635,1.58607 0.0962,2.39067 0.0162,0.40229 0.0347,0.80344 0.0674,1.20258 0.0325,0.39897 0.0775,0.79333 0.13952,1.18328 l 0.26936,-0.039 0.26458,-0.0431 c -0.0592,-0.37204 -0.10087,-0.75602 -0.12982,-1.14482 -0.087,-1.16638 -0.0692,-2.39449 -0.14438,-3.59798 -0.0752,-1.20358 -0.24431,-2.38355 -0.69748,-3.45372 -0.15103,-0.35673 -0.33123,-0.7002 -0.55315,-1.02941 -0.18034,-0.26584 -0.38873,-0.50788 -0.61573,-0.7312 -0.22192,-0.21933 -0.46449,-0.41978 -0.72152,-0.60605 -0.54657,-0.39608 -1.1551,-0.72107 -1.77013,-0.97166 -1.01492,-0.41348 -2.02478,-0.62113 -2.8236,-0.62527 0.26332,-0.97414 0.71205,-1.63373 1.25548,-2.054 0.59841,-0.4628 1.31374,-0.66026 2.01546,-0.68304 0.70173,-0.0232 1.385,0.13305 1.88558,0.35597 0.22993,0.1023 0.40547,0.22016 0.53876,0.33187 0.0992,0.14618 0.18787,0.29523 0.29823,0.43776 l 0.59645,0.76964 -0.11543,-0.96686 c -0.029,-0.24386 -0.17423,-0.43875 -0.36557,-0.61094 -0.005,-0.009 -0.018,-0.009 -0.0239,-0.0144 -1.35147,-2.03976 -1.60865,-4.41551 -1.21218,-6.40721 0.40689,-2.04393 1.50829,-3.61524 2.64082,-4.00688 0.15408,0.2519 0.32725,0.59895 0.46176,0.99572 0.1629,0.48019 0.25729,0.99936 0.20684,1.36126 -1.6e-4,0.002 1.6e-4,0.004 0,0.005 l 0,0.005 c -0.18901,1.16101 -0.25665,2.58616 -0.28862,4.03096 -0.0239,0.74361 -0.0365,1.4902 -0.0288,2.24153 6.3e-4,0.053 -7.8e-4,0.11111 0,0.16362 0.002,0.12244 0.009,0.2025 0.0108,0.32225 0.0126,0.65072 0.029,1.30085 0.0626,1.95299 0.0449,1.00704 0.0976,1.81992 0.13467,2.10688 3e-4,0 -3.1e-4,0.0126 0,0.0144 l 0.53873,-0.0581 c -0.0554,-0.66066 -0.0899,-1.32432 -0.12514,-1.98665 -0.0288,-0.61292 -0.0575,-1.29695 -0.0723,-2.0636 -0.004,-0.15229 -0.009,-0.30469 -0.009,-0.45691 -0.009,-0.71686 0.0126,-1.47031 0.0288,-2.21749 0.0432,-1.33708 0.12028,-2.65957 0.27898,-3.94438 8.2e-4,-0.0108 0.004,-0.0192 0.005,-0.0288 1.4e-4,-0.002 -1.6e-4,-0.004 0,-0.005 1.4e-4,-0.002 -1.6e-4,-0.004 0,-0.005 0.1068,-0.63034 0.55249,-1.41427 1.15924,-2.1357 0.60951,-0.72468 1.37963,-1.39001 2.09724,-1.82306 0.53822,-0.32481 1.04185,-0.49868 1.39978,-0.5147 z m 43.6621,0.66862 c -0.471,0.0415 -1.38534,2.17632 -1.38534,0.61089 -0.26321,0.18009 -0.55529,0.76424 -0.72154,1.09673 -0.22164,0.40176 -0.55315,0.24897 -0.55315,-0.12514 -0.36018,0 -0.95722,1.61951 -0.95722,1.81344 0,0.2355 -0.13737,0.816 0.0288,0.77444 l 0.47138,-0.0962 c 0.36019,-0.0692 0.21896,-0.53951 0.50989,-0.78887 0.30478,-0.26321 0.24974,-0.6638 0.47138,-0.6638 0.12479,0 0.3073,-0.0288 0.29344,0.20684 -0.0415,0.33248 -0.27898,0.56624 -0.27898,0.64936 0.55411,-0.27705 1.67701,-0.38653 2.32812,-0.0818 0.56799,0.24937 0.94415,-0.0144 1.20736,-0.37518 0.5957,-0.81736 0.62071,-0.93858 0.50988,-1.6451 l -0.0818,-0.43291 c -0.27707,-2.11957 -1.84231,0.99667 -1.84231,-0.9428 z m 15.94578,1.01495 c 0.0415,0 -1.74898,2.09031 -2.85725,2.96307 -1.09443,0.87277 -2.96212,1.88344 -3.16993,2.06359 -0.2078,0.16613 1.55178,-0.65228 3.00638,-0.37519 1.4546,0.26317 0.95359,0.16775 0.98128,0.15391 0.90045,-0.5957 1.46846,-0.78893 2.42433,-1.48157 -0.13845,0.0277 0.76135,-0.59532 -0.0144,-0.22128 -0.76194,0.36019 -1.93523,0.31864 -2.08763,0.34634 -0.16613,0.0277 -0.3088,-0.1548 -0.10104,-0.29343 0.19395,-0.13844 0.31939,-0.17728 0.9428,-0.96684 0.63724,-0.7758 0.87544,-2.18863 0.87544,-2.18863 z m -17.24933,2.63596 c -0.67601,0.0126 -0.87066,0.31269 -0.87066,0.31269 0.15229,-0.0692 1.22891,-0.45678 0.938,0.81772 1.57927,-0.23549 2.21691,0.92661 2.20307,0.8851 -0.0277,-0.0414 -0.0662,-1.57719 -1.42382,-1.90966 -0.34286,-0.0831 -0.62126,-0.10968 -0.84659,-0.1059 z m -0.55319,0.64459 c -0.023,-8e-5 -0.048,0.004 -0.0721,0.0144 -0.20781,0.0831 -0.0818,0.25012 -0.0818,0.25012 0,0 -0.12604,0.002 -0.26454,0.0431 -0.1246,0.0415 -0.0656,0.22049 -0.0239,0.31744 0.0277,0.0831 0.20492,0.24767 0.27417,0.30311 0.0469,0.0473 0.0665,0.13521 0.0723,0.16829 0,-0.0556 0.17657,-0.20798 0.25974,-0.23567 0.0971,-0.0273 0,-0.13952 0,-0.13952 0,0 -0.0674,-0.19409 -0.0674,-0.23566 0,-0.0415 0.098,-0.17962 0.13952,-0.22127 0.0486,-0.0363 -0.0748,-0.26398 -0.2357,-0.26455 z m -1.06785,0.27899 c -0.19395,0 -0.85623,0.27614 -0.85623,0.55316 -0.48485,1.27451 0.0802,-0.16722 0.96686,-0.13953 l -0.11058,-0.41368 z m 0.26456,0.69268 c -0.0831,0 -0.84524,0.52428 -0.92838,0.52428 0.37405,0.0831 1.01207,-0.12496 1.28915,-0.12496 -0.19397,-0.47101 -0.19453,-0.35773 -0.36077,-0.39925 z m 2.09242,0.0381 c -0.53739,-0.0144 -0.98998,0.29987 -0.9476,0.39923 -0.0622,0.10302 -0.14618,0.42575 -0.20202,1.29398 -0.1246,1.92559 -2.32813,2.63114 -2.32813,2.63114 0.42944,0.20783 1.03727,0.13845 1.34205,0.11058 0.26319,-0.0414 0.27838,0.0983 0.26454,0.26457 -0.0275,0.18007 -0.39001,0.58221 -0.5147,1.16407 -0.1246,0.58186 0.20801,1.96683 0.2357,1.60663 0.0277,-0.36021 0.54088,-1.44307 1.05343,-1.78944 0.52644,-0.36019 0.67864,-0.65089 0.80331,-0.80327 0.11076,-0.13845 0.4462,-0.89972 0.41849,0.25008 -0.0415,1.1499 0.45466,2.21733 0.39924,1.98183 -0.0692,-0.31861 0.5982,-2.13306 0.63975,-2.29928 0.0277,-0.16614 0.49546,-1.76167 0.49546,-2.48207 0,-0.72032 -0.025,-1.25777 -0.85621,-2.00578 -0.25542,-0.22953 -0.53967,-0.31546 -0.80331,-0.32233 z m -1.74609,0.84661 c -0.29092,0.37403 -1.01456,0.68111 -1.23622,1.09669 -0.31862,0.83119 1.07055,0.60729 1.25066,-0.0579 0.0969,-0.26326 0.11021,-0.81737 -0.0144,-1.03903 z m 13.93031,0.053 c -0.74982,0.0126 -1.47914,0.15175 -2.23675,0.41846 -1.74551,0.5957 -3.78292,2.17648 -4.64182,3.96357 -0.85891,1.78712 -0.8593,4.09948 -0.81773,4.12716 l 0.69268,0.76002 c 0,0 0.3467,-3.10089 2.20305,-4.4446 1.84248,-1.32995 2.84089,-2.03841 4.98817,-2.35704 2.14727,-0.30476 3.43312,0.31961 3.86258,0.48584 0.42945,0.16613 1.84307,1.23415 2.09242,2.45323 0.2355,1.23292 0.071,1.49667 0.0432,1.74609 -0.0144,0.23548 0.52509,-0.80328 0.42812,-2.18865 -0.0831,-1.39915 -1.52675,-3.68518 -3.5355,-4.39174 -1.12213,-0.39742 -2.11446,-0.5895 -3.07851,-0.57234 z m -15.0559,0.053 c -0.62325,0.0637 -1.1352,0.49162 -1.1352,0.9332 -0.0277,0.30476 0.25302,0.21031 0.32227,0.29341 0.33769,-0.36368 0.38084,-1.13233 0.84179,-1.22661 -0.0108,0 -0.0192,0 -0.0288,0 z m -0.50987,1.47189 c 0,0 -1.06882,0.51533 -2.24637,1.22182 -1.08056,0.7619 -1.31299,1.81592 -1.42382,2.45313 -0.1246,0.65115 -0.1237,0.64883 -0.20682,0.98135 -0.0831,0.31861 -0.0983,-0.23591 -0.26458,1.26028 -0.15229,1.49617 0.63689,2.41336 1.26027,3.18913 0.63727,0.76192 2.69988,2.07397 2.61676,1.97695 -0.0692,-0.0969 -0.32961,-0.49461 -0.96686,-1.63057 -0.65111,-1.13598 -0.51352,-2.21866 -0.13952,-2.5927 0.36017,-0.37405 1.28873,-0.63732 1.51039,-0.69275 0.20781,-0.0696 0.7352,-0.60697 0.48584,-1.09187 -0.24937,-0.48483 -0.15301,-2.1348 -0.0144,-2.34254 0.15229,-0.19399 0.10734,-0.1683 -0.0865,-0.1683 -0.18011,0 -0.95474,-0.0406 -1.35647,-0.33194 -0.40176,-0.30478 -0.19492,-0.41716 -0.13952,-0.50026 0.0692,-0.0831 0.61109,-0.2451 0.84659,-0.3559 0.24936,-0.12478 1.44038,-0.97189 0.91392,-0.86102 -0.72035,0.13862 -0.78885,-0.51473 -0.78885,-0.51473 z m 15.82071,1.42864 c -1.53772,0.0831 -3.42332,0.98491 -3.9636,1.99623 -0.30476,0.54028 -0.53931,1.73227 -0.55316,1.74609 -1.30222,1.3022 2.96268,-1.25022 3.18433,-1.81826 l 1.4142,0.0721 c 0.85891,0.0831 1.94159,0.49734 2.5927,0.77443 -0.23552,-0.33245 -1.0117,-0.70648 -1.85674,-1.03901 -0.36019,-0.27701 -1.56485,-0.20723 -1.37089,-0.67824 0.0969,-0.18005 0.55316,-0.87329 0.55316,-1.05343 z m 0.53873,0 c 0,0.29092 -0.3448,0.83061 -0.53873,1.02459 l 0.56759,0.12514 c 0.0415,0.0969 0.34788,-0.44083 0.50026,-1.09189 l -0.52912,-0.0581 z m -13.27131,1.76059 c 0,0 -0.52508,0.63507 -0.77443,0.87055 -0.24936,0.23557 -0.664,1.24974 -0.55317,1.11118 0.11075,-0.13862 1.54906,-0.2084 1.78457,-0.0144 0.23552,0.1939 -0.0696,-0.39063 -0.12514,-0.52917 -0.0554,-0.0831 -0.40116,-0.78713 -0.3319,-1.43826 z m 7.96087,0.52426 c -0.13503,0.14851 -1.02745,1.26275 -1.2699,1.8567 -0.19395,0.37406 -0.27455,0.63732 -0.39924,1.03903 0.63725,-0.8312 1.23199,-0.93949 1.24583,-1.09189 0.0415,-0.74808 0.13719,-1.24972 0.42812,-1.80384 -0.002,0 -0.004,0 -0.005,0 z m 3.76157,0.0867 -0.11057,0.25968 c 0.1801,0 0.44101,0.0144 0.63496,0.0144 -0.1801,0 0.25222,-0.31819 0.0723,-0.22125 l -0.59647,-0.053 z m 0.29342,0.7504 c -0.27606,0 -0.5524,0.0144 -0.82255,0.053 -2.16111,0.3186 -2.87957,1.07669 -3.53068,1.52003 -0.65109,0.45716 -1.77495,2.01066 -1.77495,2.01066 l 0.42809,0.55319 c 0,0 1.47058,-1.75785 3.28538,-2.61681 1.81479,-0.85886 3.86449,-1.13513 5.5269,-0.78885 0.71518,0.14546 -1.17973,-0.71749 -3.11219,-0.73109 z m -11.07306,0.82731 c 0.0277,0.0144 0.0674,0.10914 0.41369,0.30302 0.24934,0.13862 0.48889,0.24999 1.14,1.05344 0.7481,1.02519 0.69114,2.02335 0.53874,2.67448 -0.16632,0.66499 -0.51468,1.08022 -0.1683,0.91397 0.78965,-0.38795 0.87545,-0.87062 0.87545,-0.87062 0,0 -0.0406,-0.79317 0.48584,1.29869 0.52642,2.09188 -0.84754,3.52259 0.39924,2.63605 0.0969,-0.0696 0.58396,-0.5421 0.86103,-1.08236 0.13845,-0.30478 0.0807,-0.78986 0.39925,-0.58203 0.11075,0.0831 0.11093,0.22131 0.2357,0.56761 0.11075,0.34637 0.27725,0.91515 0.2357,1.98183 -0.0692,2.16107 -1.27452,2.94917 -0.69267,2.61673 0.73422,-0.40172 1.35974,-1.64873 1.20734,-0.92841 -0.16631,0.72042 0.77503,3.61499 0.78888,3.21326 0.0144,-0.4018 0.0978,-3.20015 0.25013,-2.77068 0.16632,0.4294 1.75994,1.24684 1.05343,0.69266 -0.70652,-0.54026 -0.99974,-3.16835 -0.75037,-2.66969 0.23548,0.51259 1.78764,0.619 1.39974,0.4666 -0.62338,-0.23549 -1.24873,-1.25777 -1.66432,-2.00585 -0.70652,-1.28836 -0.28879,-1.18984 -1.90964,-3.65575 -1.62084,-2.47975 -5.0988,-3.85295 -5.0988,-3.85295 z m -1.69317,0.20682 c -0.81883,-0.0248 -1.34207,0.59653 -1.34207,0.59653 0,0 -0.18066,0.44523 -0.70708,0.62529 -0.51257,0.19398 -0.74462,0.13557 -0.95242,0.27419 -0.20781,0.13845 -0.59665,0.44447 -0.48583,1.06785 0.12478,0.60954 0.83121,1.91289 1.03901,2.10688 0.22165,0.1939 0.45638,0.77327 0.78885,1.09187 0.33249,0.30476 1.48308,1.13522 2.67447,1.13522 0.45716,0 -0.37654,-0.22124 -0.29341,-0.56761 0,0 0.1,-0.0804 0.30785,-0.053 0.20779,0.0414 0.8995,0.2742 0.8995,0.2742 l 0.58203,-0.30311 c 0,0 -0.35807,-0.11004 -0.52431,-0.44249 -0.15247,-0.33254 0.10734,-0.23575 0.25974,-0.23575 0.15247,0.0281 0.75041,0.30301 0.75041,0.30301 0.15247,-0.20772 0.42985,-0.46749 0.47138,-0.60605 0,0 -0.16955,0.12281 -0.54353,0.0671 -0.3602,-0.0414 -0.19435,-0.1818 -0.12514,-0.38963 0.0692,-0.20779 1.10962,-1.57638 0.26456,-3.04486 -0.85891,-1.48234 -1.99526,-1.74708 -2.89574,-1.88563 -0.0572,-0.009 -0.11381,-0.0126 -0.16829,-0.0144 z m 13.37712,0.0671 c -0.43573,0 0.41829,0.0637 1.39496,0.50024 1.28836,0.59571 2.21711,0.62495 3.13143,2.92464 1.34377,3.36631 1.06345,3.84873 0.84179,5.24788 -0.22166,1.38538 -0.87142,2.69098 -1.81344,4.24258 -0.94203,1.5516 -1.10942,3.36316 -1.06787,3.61249 0.0415,0.29093 0.52681,-1.92275 1.51041,-2.35224 0.44329,-0.18005 0.51313,-0.22099 0.36075,0.36079 -0.0415,0.13863 -0.0415,2.90949 0.69268,4.04538 0.19395,0.27709 -0.0543,-0.39013 0.0288,-1.44308 0.0692,-0.9974 0.16415,-2.15841 0.87064,-4.31955 1.39919,-4.30837 1.3428,-7.10906 0.8995,-8.36973 -0.44331,-1.26059 -1.23044,-4.33803 -5.94057,-4.43498 -0.47449,-0.009 -0.7639,-0.0126 -0.90914,-0.0144 z m -0.61569,0.4618 c 0,0 2.093,0.86931 2.45319,1.64508 0.36018,0.77574 -0.30555,0.44694 -0.59647,0.32225 -0.27707,-0.11075 -0.63627,-0.26567 -1.24583,-0.29343 -0.5957,-0.0144 0.89833,0.11255 1.56329,1.08227 0.66497,0.95592 1.38823,2.35166 1.11116,4.06949 -0.1246,0.87271 -0.72229,1.8282 -1.66432,2.29928 -0.92818,0.45716 -2.078,0.47332 -2.42433,0.40403 -0.70653,-0.16614 0.41848,0.31745 0.41848,0.31745 0,0 1.4246,0.51376 3.05928,-0.31745 1.10827,-0.56803 1.1073,-0.98358 1.24584,-1.03901 0.15247,-0.0831 0.16829,0.0273 0.16829,0.11057 0,0.20782 0.14923,0.9434 -0.30785,1.64987 -0.44332,0.70657 0.6538,-0.32183 1.22179,-1.5825 0.55413,-1.26068 0.71998,-4.58125 -0.81775,-6.24364 -1.55156,-1.67624 -0.54046,-0.68146 -1.62102,-1.56809 -1.06672,-0.7897 -2.46686,-0.85623 -2.56382,-0.85623 z m -1.25547,0.27419 c -0.23682,0.0108 -0.46746,0.0498 -0.68304,0.12496 -1.46845,0.51259 -2.52362,1.64839 -3.52106,2.53495 0.0831,0.0969 0.29341,0.35946 0.29341,0.44256 1.30222,-1.59312 4.10194,-2.43816 6.49859,-2.07802 -0.42773,-0.55156 -1.56173,-1.06629 -2.5879,-1.02452 z m 0.41848,1.73167 c -0.42891,0 -0.83409,0.0703 -1.19772,0.15391 -0.95589,0.22166 -2.8284,1.65957 -2.8284,1.65957 0,0 0.34864,0.61129 0.40405,0.73591 0.0692,0.11093 0.39925,-0.59588 1.43824,0.11058 1.03901,0.7204 0.27804,1.86986 0.13952,1.95298 -0.13844,0.0969 1.08172,0 1.4142,-0.94281 0.34633,-0.92815 0.51103,-0.38614 0.53876,-0.30302 0.0415,0.0969 0.51543,0.73572 0.0723,2.23189 -0.0277,0.0831 1.38474,-0.0413 1.71721,-0.80325 0.31864,-0.76192 0.46852,0.75785 0.39927,0.9379 -0.0554,0.16614 0.0563,0.12838 -0.20685,1.01499 -0.0277,0.0969 2.01065,-1.17988 1.66432,-3.17471 -0.0277,-0.16613 -0.14042,-1.68843 -1.31799,-2.72744 -0.7446,-0.64931 -1.52188,-0.84587 -2.23673,-0.84651 z m -16.40754,2.49649 c -0.0831,0 -0.004,0.17782 -0.0867,0.17782 0.92818,0.9975 0.69345,1.92755 3.36715,3.04968 0.78964,0.33252 2.34389,0.6494 3.29979,0.6494 -0.27707,0 -0.86314,-0.85797 -1.02939,-0.89948 -2.18883,-0.6788 -2.64521,-1.5922 -2.86687,-1.5922 -0.13863,0 -0.46755,-0.12514 -0.60609,-0.12514 -0.80349,-0.42947 -1.46844,-0.67848 -2.07798,-1.26026 z m 8.85075,0.12029 c -0.0831,0.27709 -0.47275,0.58393 -0.73598,0.86102 l 0.80331,0.0671 0,-0.44256 -0.0674,-0.48582 z m -46.9715,0.32225 c -2.57891,1.11334 -4.591,2.8108 -5.10843,5.62796 l -0.14438,0.80809 0.59647,-0.56281 c 1.77015,-1.65867 3.44155,-3.49558 4.97374,-5.4595 l -0.31748,-0.41374 z m 51.34876,0.10591 c -0.0696,0.009 -0.13665,0.0239 -0.20684,0.0581 l 0.31747,0.9284 c 0.41559,-0.30478 0.34749,-0.23516 0.72154,-0.56761 -0.23638,-0.22515 -0.53064,-0.44208 -0.83217,-0.41854 z m -5.58464,0.91879 -0.49544,0.30302 c 0.27707,0.0144 1.06478,0.15175 1.79901,0.33186 0,-0.0969 0.0825,-0.47131 -0.0144,-0.47131 -0.44331,0 -0.8874,-0.0248 -1.28913,-0.16362 z m -46.6973,0.0381 c -1.07407,1.30466 -2.20771,2.54397 -3.39119,3.70388 0.57717,-1.66405 1.79194,-2.8229 3.39119,-3.70388 z m 45.53324,0.6542 c -0.37404,0 -0.85891,0.22207 -1.03899,0.12496 -0.12461,0.0696 1.67606,0.67618 2.53496,0.85623 0.84506,0.18014 0.59857,-0.10824 0.76482,-0.39923 -0.0969,0 -2.17767,-0.58203 -2.26079,-0.58203 z m 0.30785,1.23143 c 1.12213,0.55409 1.63296,1.02574 4.11273,1.05343 0,-0.0969 0.0144,-0.48375 0.0144,-0.6638 -0.37405,0 -0.60783,0.0804 -1.34206,0.053 -1.02515,-0.0696 -1.52771,-0.068 -1.94331,-0.20682 -0.19395,0 -0.64784,-0.23567 -0.84177,-0.23567 z m -3.99244,0.19239 c 0.0969,0.18009 0.0288,0.57027 0.0288,0.75043 0,0.19388 0.19605,0.75031 -0.178,0.75031 0,0.37403 0.59492,0.49874 0.78887,0.69273 -0.0692,1.26069 0.63514,1.54813 1.21698,1.29871 0.58183,-0.24932 1.24833,-0.47141 1.53926,-0.47141 -0.40176,-0.62337 -1.50963,-1.57696 -1.60662,-2.36655 -0.56797,0 -1.35991,-0.47413 -1.78939,-0.65422 z m -6.34464,0.32227 c -0.40176,0.30476 -1.03883,0.52394 -1.49599,0.7456 -0.0415,0.0273 -0.0834,0.0687 -0.12496,0.11058 l -0.87065,0.22133 c -0.29093,-0.0969 -0.94492,0.33229 -0.76483,0.80327 0.0277,0.23549 0.15265,0.19507 0.2357,0.37521 -0.16613,-0.5542 0.0288,-0.30404 0.0288,-0.44258 0.30478,-0.0275 1.17889,-0.56878 1.6499,-0.94281 0.471,-0.37404 0.78982,-0.26284 0.58203,0.12514 -0.58183,1.03893 -0.58049,1.10688 -0.77444,1.46709 -0.13844,0.23549 0.42523,0.88721 0.35595,0.70707 -0.26321,-0.73418 0.17045,-0.13845 0.33672,-1.03901 0.0831,-0.45709 0.26092,-1.17633 0.63494,-1.35649 0.22166,-0.0414 0.92761,0.0291 1.3709,-0.20682 l 0.12515,0.053 c -0.0144,0.85887 0.0854,1.33027 0.40406,2.20307 0.24936,-0.0144 0.23568,0.0689 0.23568,0.44249 0.67884,-0.59571 -0.40212,-1.9525 -0.12496,-2.52053 0.1246,0 1.01129,0.029 1.38532,0.37521 0.0554,0.33245 0.22012,0.72116 0.19241,1.28909 0,0.11094 0.24899,-0.59736 0.22128,-0.7359 -0.0554,-0.27709 -0.0424,-0.43006 0.44252,-0.36079 0.92818,0.13863 1.91485,0.77958 2.38586,1.25066 0,-0.42949 0.0126,-0.34754 -0.0288,-0.37521 -0.73423,-0.55409 -0.49986,-0.91531 -0.72152,-0.83219 -2.92306,-0.37404 -3.3502,-1.10996 -3.40563,-1.08227 l -0.98607,-0.27419 -1.28914,0 z m 8.84113,0.41372 c 0,0.0831 0.45694,0.76342 0.45694,0.84654 0.78967,1.34377 2.85264,2.13248 3.43449,3.32387 0.31864,-0.13845 0.56761,0.33385 0.56761,0.61087 0.37404,-0.0275 0.73615,-0.0989 0.97166,0.0671 0.0692,0.0273 0.56644,-0.41505 0.53873,-0.67823 -0.13845,-1.24686 0.0426,-1.496 0.37521,-2.18867 -0.37406,0.37406 -1.10944,0.92858 -1.76053,0.81779 0.27705,-0.5542 0.94278,-1.50869 0.94278,-2.15983 -0.9143,-0.0275 -2.81434,-0.3917 -3.28534,-0.55799 -0.58185,-0.22166 0.33516,0.20914 -2.24155,-0.082 z m 15.33487,0.94275 c -0.29091,0.0144 -1.06959,1.07979 -3.5355,0.78893 -1.06669,0.99742 -1.03629,0.84619 -2.24154,1.06785 -0.33247,0.0555 0.69307,0.37553 1.51041,0.1539 0.2355,0.56803 -0.5118,0.98342 -1.13521,1.49601 1.91176,-0.0831 2.17402,-1.68028 1.9385,-0.10105 -0.13845,0.8727 -0.20702,3.07579 0.25015,3.93473 0.0969,0.18007 -0.41639,-1.42632 0.78886,-3.79529 0.41561,-0.60952 0.5524,-0.80286 0.64936,-0.67822 0.0971,0.15229 0.0286,0.69248 0.59647,1.496 0.0277,-1.41306 0.61051,-3.24077 1.1785,-4.36288 z m -11.6647,3.90108 c -0.007,0 -0.0108,0 -0.0144,0.009 -0.0284,0.02 -0.0144,0.0962 -0.0144,0.0962 0.0144,0.0144 -0.0563,0.54177 -0.13953,0.84653 -0.0969,0.29094 -0.41215,0.90073 -0.6061,1.27477 -0.2078,0.38786 -0.0851,0.40345 -0.279,0.7359 -0.19393,0.33252 -0.12532,0.20459 -0.70708,0.8418 -0.5957,0.65115 -0.40272,1.07936 -0.83217,1.01018 -0.44331,-0.0556 -1.13366,0.0457 -1.67394,0.10104 -0.54028,0.0696 -0.76366,0.13737 -1.0823,0.31746 -0.31861,0.18005 -0.20569,0.20641 -0.178,0.42807 0.0144,0.20781 0.31747,0.6542 0.31747,0.6542 0,0 -0.0432,-0.16991 -0.0432,-0.32226 0.0144,-0.16613 -0.0795,-0.27527 0.32227,-0.30303 0.40176,-0.0144 0.53875,-0.26458 0.53875,-0.26458 0,0 1.07862,0.12478 1.10635,0 0.0415,-0.12478 0.15642,0.23567 0.10105,0.23567 -0.0144,0 -0.0847,-0.0126 -0.15391,0.0289 -0.0831,0.0556 -0.319,0.23583 -0.47138,0.4714 -0.60956,1.08055 -0.0554,1.15024 0,1.16408 0.0554,0.0281 0.0813,0.12406 0.0674,-0.0144 -0.0277,-0.15229 -0.0813,-0.47065 0.0431,-0.56761 0.1246,-0.0831 0.12622,0.0257 0.50026,-0.16847 0.37404,-0.17997 0.56491,-0.58087 0.73114,-0.89947 0.15247,-0.31861 0.23572,-0.22125 0.23572,-0.22125 0,0 0.80234,-0.0144 1.35646,-0.0144 0.56799,0 0.044,-0.0126 0.29344,0.15391 0.24934,0.18014 0.20605,0.39923 0.64936,0.39923 0.44332,0 0.29439,-0.23565 0.43292,0.11057 0.15229,0.33244 0.11112,0.45939 0.12514,0.40403 0.0144,-0.0696 0.17801,-0.34494 -0.16829,-0.77441 -0.34633,-0.41558 -0.45658,-0.26667 -1.02457,-0.77926 -0.55413,-0.51259 -0.31997,-1.38629 0.0818,-2.21749 0.40174,-0.83122 1.55099,-1.97852 1.71723,-2.1309 0.16632,-0.16631 -0.0529,-0.12496 -0.0529,-0.12496 0,0 -0.16667,-0.0108 -0.47138,0.0579 -0.3048,0.0831 -0.30787,-0.0291 -0.30787,-0.0291 0,0 -0.15067,-0.30401 -0.30304,-0.44256 -0.0467,-0.0431 -0.0773,-0.0615 -0.0962,-0.062 z m -0.0144,3.0449 c -0.14186,0 -0.15391,0.1059 -0.15391,0.1059 l -0.0144,0.13953 c 0,0 -0.1926,0.0422 0.26456,0.0144 0.45716,-0.0144 0.55702,-0.29539 0.41848,-0.22604 -0.12478,0.0696 -0.2257,0.0315 -0.44734,-0.0239 -0.0259,-0.009 -0.0471,-0.009 -0.0674,-0.009 z m -23.3583,22.34824 c -0.018,0.0629 -0.036,0.12478 -0.0529,0.18761 l 0,-0.18281 c 0.018,0 0.0349,0 0.0529,-0.009 z"
       id="path14"
       inkscape:connector-curvature="0" />
  </g>
</svg>
