<?xml version="1.0" encoding="UTF-8" standalone="no"?>
<!-- Created with Inkscape (http://www.inkscape.org/) -->

<svg
   xmlns:dc="http://purl.org/dc/elements/1.1/"
   xmlns:cc="http://creativecommons.org/ns#"
   xmlns:rdf="http://www.w3.org/1999/02/22-rdf-syntax-ns#"
   xmlns:svg="http://www.w3.org/2000/svg"
   xmlns="http://www.w3.org/2000/svg"
   xmlns:sodipodi="http://sodipodi.sourceforge.net/DTD/sodipodi-0.dtd"
   xmlns:inkscape="http://www.inkscape.org/namespaces/inkscape"
   id="svg2"
   version="1.1"
   inkscape:version="0.48.3.1 r9886"
   width="934.84052"
   height="452.61618"
   sodipodi:docname="CTEJ-black-sans baseline.jpg">
  <metadata
     id="metadata8">
    <rdf:RDF>
      <cc:Work
         rdf:about="">
        <dc:format>image/svg+xml</dc:format>
        <dc:type
           rdf:resource="http://purl.org/dc/dcmitype/StillImage" />
        <dc:title></dc:title>
      </cc:Work>
    </rdf:RDF>
  </metadata>
  <defs
     id="defs6" />
  <sodipodi:namedview
     pagecolor="#ffffff"
     bordercolor="#666666"
     borderopacity="1"
     objecttolerance="10"
     gridtolerance="10"
     guidetolerance="10"
     inkscape:pageopacity="0"
     inkscape:pageshadow="2"
     inkscape:window-width="640"
     inkscape:window-height="480"
     id="namedview4"
     showgrid="false"
     fit-margin-top="0"
     fit-margin-left="0"
     fit-margin-right="0"
     fit-margin-bottom="0"
     inkscape:zoom="0.28333333"
     inkscape:cx="475.60893"
     inkscape:cy="156.10473"
     inkscape:window-x="65"
     inkscape:window-y="24"
     inkscape:window-maximized="0"
     inkscape:current-layer="g2987" />
  <g
     id="g2987"
     transform="translate(-103.2146,-136.69442)">
    <path
       style="fill:#d0d0d0;fill-opacity:1"
       d="m 895,558.28521 0,-31.00158 13.25,-0.53847 c 16.10001,-0.65429 25.69724,-2.70575 36.25,-7.74862 13.98238,-6.68179 22.6813,-17.73255 27.92235,-35.47142 2.05112,-6.94221 2.07878,-8.66263 2.34375,-145.77512 L 975.03423,199 924.01711,199 873,199 l 0,-31 0,-31 82.5,0 82.5,0 0,168.36901 c 0,147.03712 -0.1949,169.48667 -1.5383,177.19055 -8.7554,50.20666 -36.328,84.32488 -79.99286,98.9827 -14.2431,4.78125 -24.92306,6.52891 -43.71884,7.15411 l -17.75,0.59041 0,-31.00157 z M 504,373 l 0,-174 -61,0 -61,0 0,-31 0,-31 92,0 92,0 0,205 0,205 -31,0 -31,0 0,-174 z M 279,544.40844 C 237.12576,538.34036 197.73034,519.55482 168.11898,491.53529 130.673,456.1023 108.65988,410.13357 103.93328,357.5 c -4.481241,-49.90147 12.17906,-103.73673 44.80186,-144.77044 7.59538,-9.55364 22.65217,-24.3745 32.44268,-31.9343 32.96248,-25.45221 76.41628,-40.81631 122.97343,-43.48012 L 315,136.69442 l 0,30.65279 0,30.65279 -8.75,0.0183 c -38.35035,0.0803 -75.67399,16.65909 -103.58192,46.01008 -18.87783,19.85396 -29.79803,40.90742 -35.77483,68.9716 -3.02757,14.21603 -3.27282,39.79837 -0.52247,54.5 10.42895,55.74668 52.97957,100.7195 107.87001,114.01053 57.56886,13.93958 117.87553,-9.09129 151.12762,-57.71502 l 3.86842,-5.65669 25.39324,16.94799 25.39323,16.94799 -1.72207,2.7326 C 467.48335,471.93327 447.8505,493.03848 431,505.61597 402.30625,527.03346 368.66779,540.53881 333.02623,544.951 321.39874,546.39041 290.53841,546.08049 279,544.40844 z M 612,341.5 612,137 l 107.5,0 107.5,0 0,31 0,31 -76,0 -76,0 0,54.99351 0,54.99351 73.25,0.25649 73.25,0.25649 0,31.5 0,31.5 -73.25,0.25649 -73.25,0.25649 0,55.49351 0,55.49351 76,0 76,0 0,31 0,31 -107.5,0 -107.5,0 0,-204.5 z"
       id="path3003"
       inkscape:connector-curvature="0" />
    <path
       style="fill:#b9b9b9;fill-opacity:1"
       d="m 895,558.2978 0,-30.99212 14.25,-0.60279 c 16.70693,-0.70671 26.60562,-2.94151 36.83246,-8.31556 16.79049,-8.82316 25.73944,-24.12525 28.86727,-49.3611 C 975.63487,463.49838 976,415.08808 976,329.77623 L 976,199 l -51.5,0 -51.5,0 0,-31 0,-31 82.51938,0 82.51942,0 -0.3043,171.75 c -0.286,161.4749 -0.4122,172.19869 -2.1081,179.25 -4.6159,19.19231 -12.4372,38.2674 -20.7065,50.5 -4.8115,7.11759 -18.10247,20.70821 -25.83273,26.41515 -20.27847,14.97077 -45.22475,22.69145 -76.83717,23.7805 L 895,589.28991 895,558.2978 z M 532.75,546.23466 504,545.96933 504,372.48466 504,199 l -61,0 -61,0 0,-31 0,-31 92,0 92,0 0,204.38342 0,204.38343 -2.25,0.36657 c -1.2375,0.20162 -15.1875,0.24718 -31,0.10124 z M 282.59666,544.86119 C 219.81114,536.80473 164.32619,500.75347 132.75224,447.5 84.557584,366.21361 97.129277,263.30648 163.38182,196.7778 198.58338,161.42953 247.05152,140.93141 303.75,137.41339 l 11.25,-0.69804 0,30.64232 0,30.64233 -9.25,0.006 c -37.72471,0.024 -74.80669,16.51336 -102.85674,45.73752 -18.56261,19.3396 -30.19744,41.42773 -36.08228,68.50041 -3.19465,14.69669 -3.19059,43.58721 0.008,58.44458 9.33428,43.35465 37.34116,79.75432 76.54228,99.47959 21.29235,10.71393 40.31099,15.18049 64.63852,15.18049 18.05552,0 29.3284,-1.74382 44.9883,-6.95934 27.96359,-9.31324 53.26493,-27.78154 69.996,-51.09243 l 6.48429,-9.03438 25.27736,16.92172 25.27735,16.92172 -3.19565,4.69711 c -15.17686,22.30759 -32.02547,39.42423 -53.16328,54.00902 -25.48241,17.5825 -56.77304,29.5056 -88.52801,33.73306 -11.70181,1.55783 -41.46745,1.73698 -52.5397,0.31622 z M 612.87238,343.75 c -0.0702,-111.2375 -0.23375,-203.2625 -0.36347,-204.5 L 612.27307,137 719.63654,137 827,137 l 0,31 0,31 -76,0 -76,0 0,54.99351 0,54.99351 73.02991,0.25649 73.02992,0.25649 0,31.5 0,31.5 -73.02992,0.25649 -73.02991,0.25649 0,55.49351 0,55.49351 76,0 76,0 0,31 0,31 -107,0 -107,0 -0.12762,-202.25 z"
       id="path3001"
       inkscape:connector-curvature="0" />
    <path
       style="fill:#a3a3a3;fill-opacity:1"
       d="M 895.23555,558.25 895.5,527.5 l 14,-0.6733 c 16.47478,-0.79232 26.42712,-3.10289 36.76571,-8.53567 13.67351,-7.18522 21.52821,-17.85418 26.53139,-36.0373 L 975.48089,472.5 975.771,335.75 976.06111,199 924.53055,199 873,199 l 0,-31 0,-31 82.52205,0 82.52205,0 -0.2979,171.75 -0.2979,171.75 -2.6346,10.5 c -7.0116,27.94331 -17.5424,47.61916 -34.0707,63.65762 -9.36541,9.08789 -16.72221,14.31491 -28.243,20.0667 C 953.72367,584.09847 931.27117,589 907.10721,589 l -12.13611,0 0.26445,-30.75 z M 284,544.8774 C 231.37445,538.82104 182.03502,511.7705 149.31193,471.03412 105.25976,416.19436 92.070959,343.42625 114.10753,276.7968 c 7.16579,-21.66638 20.41465,-46.14246 34.38534,-63.52385 7.88359,-9.80824 24.56761,-26.10897 34.00713,-33.22587 33.28375,-25.09421 74.78773,-39.62579 121.76487,-42.63292 l 10.76487,-0.68909 -0.26487,30.38747 L 314.5,197.5 l -13,0.61475 c -31.63898,1.49615 -59.96851,12.26618 -84.1029,31.97337 -26.83193,21.9099 -43.32345,48.71077 -50.595,82.22347 -3.19621,14.7305 -3.19621,43.64632 0,58.37682 19.15834,88.29586 110.93217,137.76008 194.39885,104.77702 23.01184,-9.09346 46.90389,-27.23723 59.79905,-45.41177 2.475,-3.48828 5.46928,-7.50993 6.65395,-8.93699 l 2.15395,-2.59466 25.06404,16.87187 25.06404,16.87187 -5.03369,7.28149 c -32.88242,47.56611 -85.25783,78.7598 -143.40229,85.40739 -10.5291,1.20378 -36.73919,1.16117 -47.5,-0.0772 z M 504,372.5 504,199 l -61,0 -61,0 0,-31 0,-31 92,0 92,0 0,204.5 0,204.5 -31,0 -31,0 0,-173.5 z m 109,-31 0,-204.5 107,0 107,0 0,31 0,31 -76,0 -76,0 0,55 0,55 73,0 73,0 0,32 0,32 -73,0 -73,0 0,55.5 0,55.5 76,0 76,0 0,31 0,31 -107,0 -107,0 0,-204.5 z"
       id="path2999"
       inkscape:connector-curvature="0" />
    <path
       style="fill:#8c8c8c;fill-opacity:1"
       d="m 895.50728,587.87957 c -0.29603,-0.77146 -0.41878,-14.67246 -0.27276,-30.89111 L 895.5,527.5 910,526.84005 c 39.89101,-1.81558 59.13016,-17.84611 64.54744,-53.78248 1.19867,-7.95159 1.44176,-31.77985 1.44666,-141.80757 L 976,199 l -51.5,0 -51.5,0 0,-31 0,-31 82.52211,0 82.52209,0 -0.3031,171.25 c -0.3003,169.68426 -0.3222,171.3324 -2.3953,180.26198 -12.6993,54.70088 -45.09614,87.25996 -97.04601,97.53209 -13.95515,2.75937 -41.97676,3.96131 -42.79251,1.8355 z M 289,545.32117 C 225.63165,538.82583 172.04549,506.84171 137.67597,455 113.46955,418.48793 101.37193,373.29456 104.05452,329.39955 c 0.90094,-14.74198 2.12707,-22.82267 5.56293,-36.66192 7.21164,-29.04771 21.30162,-57.38488 40.18657,-80.82156 7.33249,-9.09979 24.47914,-25.79883 33.05054,-32.18776 26.27086,-19.58169 57.42221,-32.68023 92.20697,-38.77123 12.58445,-2.20361 36.29008,-4.41987 38.44225,-3.594 1.32914,0.51004 1.49188,4.42781 1.26114,30.36126 L 314.5,197.5 301,198.13774 c -26.97306,1.27422 -50.7745,9.06192 -72.66966,23.7771 -32.0489,21.53925 -53.56213,52.88046 -61.49306,89.58516 -2.53318,11.72366 -3.49849,35.98307 -1.90998,48 3.32368,25.14343 12.49095,48.25237 26.65528,67.19292 35.78409,47.85054 94.61284,69.0353 151.71791,54.63498 31.98234,-8.06506 60.768,-27.46295 79.57989,-53.62677 3.47953,-4.83937 6.68006,-8.66437 7.11229,-8.5 2.85195,1.0846 48.96353,32.51354 48.98303,33.38608 0.0621,2.77915 -17.18544,24.68011 -27.52023,34.94522 -32.15046,31.93369 -75.07186,52.31839 -120.95547,57.44549 -8.41398,0.94019 -33.64069,1.14884 -41.5,0.34325 z M 504,372.5 504,199 l -61,0 -61,0 0,-31 0,-31 92,0 92,0 0,204.5 0,204.5 -31,0 -31,0 0,-173.5 z m 109,-31 0,-204.5 107,0 107,0 0,31 0,31 -76,0 -76,0 0,55 0,55 71.75,0.11848 c 39.4625,0.0652 72.3125,0.0454 73,-0.0438 0.97737,-0.12692 1.25,6.82654 1.25,31.88151 L 821,373 l -73,0 -73,0 0,55.5 0,55.5 76,0 76,0 0,31 0,31 -107,0 -107,0 0,-204.5 z"
       id="path2997"
       inkscape:connector-curvature="0" />
    <path
       style="fill:#767676;fill-opacity:1"
       d="m 896,588.70653 c -0.275,-0.29573 -0.37493,-14.24437 -0.22207,-30.997 l 0.27793,-30.45931 14.22207,-0.52519 c 8.52091,-0.31466 16.82771,-1.20885 20.72207,-2.23065 22.85556,-5.99681 35.95711,-19.21067 42.19517,-42.55684 L 975.44967,473.5 975.74878,336.25 976.04789,199 924.52395,199 873,199 l 0,-31 0,-31 82.52217,0 82.52213,0 -0.2759,170.75 -0.2759,170.75 -2.1887,9.5 c -3.2746,14.21328 -6.8005,24.34074 -12.4996,35.90308 -16.8196,34.12375 -46.48466,55.30745 -87.79075,62.69098 -8.52641,1.52411 -38.07285,3.12397 -39.01345,2.11247 z M 286,544.97045 c -25.25298,-3.04008 -45.47054,-8.86119 -67.5,-19.43482 -45.63132,-21.90199 -80.31713,-59.13524 -99.97146,-107.3137 -15.67803,-38.43137 -18.922798,-85.8378 -8.64932,-126.36728 13.32079,-52.55131 46.82851,-98.01862 91.69647,-124.42482 29.53021,-17.37945 62.19108,-26.81416 103.67431,-29.94829 l 8.75,-0.66108 -0.005,30.33977 -0.005,30.33977 -9.18063,0.2278 c -37.98906,0.94264 -71.36346,15.37052 -99.1728,42.87279 -19.56334,19.34732 -32.03964,41.57581 -38.25688,68.16061 -3.09771,13.24577 -4.27739,37.94862 -2.46215,51.55822 12.99417,97.42249 117.91305,154.08592 205.72528,111.10582 20.84766,-10.20398 40.47014,-26.65166 52.76045,-44.22413 3.19236,-4.56439 6.15797,-8.16439 6.59024,-8 2.96447,1.12737 48.96375,32.5315 48.9831,33.4412 0.0484,2.27385 -18.01486,25.22844 -26.85729,34.13002 -29.50738,29.70473 -68.13943,49.43775 -111.11841,56.75863 -11.18145,1.9046 -44.00119,2.76358 -55,1.43949 z M 504,372.5 504,199 l -60.5,0 -60.5,0 0,-31 0,-31 91.5,0 91.5,0 0,204.5 0,204.5 -31,0 -31,0 0,-173.5 z m 109,-31 0,-204.5 107.01445,0 107.01445,0 -0.26445,30.75 -0.26445,30.75 -75.75,0.25629 -75.75,0.25628 0,55.49372 0,55.49371 73,0 73,0 0,31 0,31 -73,0 -73,0 0,56 0,56 76,0 76,0 0,31 0,31 -107,0 -107,0 0,-204.5 z"
       id="path2995"
       inkscape:connector-curvature="0" />
    <path
       style="fill:#606060;fill-opacity:1"
       d="m 896,558.2877 0,-31.01595 14.75,-0.54902 c 10.81354,-0.40249 16.74969,-1.12485 22.24288,-2.70669 19.2936,-5.55584 31.62061,-16.70184 37.65179,-34.0445 5.40849,-15.55209 5.34741,-13.75214 5.35152,-157.71246 L 976,199.01816 924.75,198.75908 873.5,198.5 873.23555,167.75 872.9711,137 l 82.53662,0 82.53658,0 -0.3041,170.75 -0.3042,170.75 -2.192,9.5 c -8.4415,36.58451 -25.2955,63.02775 -50.72027,79.57791 -20.63869,13.43471 -43.16269,19.8851 -73.77373,21.12722 L 896,589.30364 896,558.2877 z M 286.5,544.96048 C 215.51562,536.89654 155.93802,495.40552 125.01622,432.5 86.790229,354.73525 101.36621,261.42381 161.46871,199.1411 c 15.37875,-15.93661 31.0457,-27.43186 51.18345,-37.55464 28.61417,-14.38368 54.39605,-21.01281 93.59784,-24.06622 l 7.75,-0.60364 0,30.60909 c 0,29.81125 -0.0504,30.59308 -1.935,29.99494 -2.5908,-0.82229 -24.43517,1.12505 -33.39491,2.97702 -27.70855,5.72733 -52.20676,19.18221 -73.56226,40.4018 -27.41276,27.2383 -41.09979,60.74023 -41.09979,100.60055 0,40.12561 13.73712,73.39414 41.9297,101.54526 21.28041,21.24913 44.30757,33.84971 73.37385,40.15057 13.6942,2.96857 42.77745,3.22274 55.56316,0.48559 35.59272,-7.61963 66.38171,-26.70124 86.22872,-53.44062 3.97651,-5.35744 7.55422,-10.11755 7.95049,-10.57802 0.67166,-0.78049 48.21019,30.33758 49.47665,32.38674 1.38681,2.24392 -15.85221,24.09901 -29.17372,36.9855 -30.02305,29.04266 -65.74552,47.12087 -106.85689,54.07749 -13.74563,2.32595 -43.22825,3.29886 -56,1.84797 z M 504,372.5 504,199 l -60.5,0 -60.5,0 0,-31 0,-31 91.5,0 91.5,0 0,204.5 0,204.5 -31,0 -31,0 0,-173.5 z m 109,-31 0,-204.5 107.01445,0 107.01445,0 -0.26445,30.75 -0.26445,30.75 -75.75,0.25629 -75.75,0.25628 0,55.49372 0,55.49371 73,0 73,0 0,31 0,31 -73,0 -73,0 0,55.99371 0,55.99372 75.75,0.25628 75.75,0.25629 0.26445,30.75 L 827.0289,546 720.01445,546 613,546 613,341.5 z"
       id="path2993"
       inkscape:connector-curvature="0" />
    <path
       style="fill:#494949;fill-opacity:1"
       d="m 896,558.09398 0,-30.90602 11.25,-0.0403 c 36.57804,-0.13104 57.43812,-14.245 65.98812,-44.64766 l 2.24981,-8 0.2799,-137.75 c 0.15394,-75.7625 -0.0683,-137.75146 -0.49397,-137.75324 -0.42562,-0.002 -23.05798,-0.0238 -50.29412,-0.049 -27.23614,-0.0252 -50.05646,-0.37714 -50.71182,-0.78217 -0.88696,-0.54818 -1.13741,-8.39623 -0.97974,-30.70101 L 873.5,137.5 l 82.27483,-0.25582 82.27487,-0.25581 -0.3317,170.75581 c -0.3289,169.3629 -0.3487,170.82924 -2.432,179.75582 -9.9244,42.52519 -29.9683,70.44452 -62.13039,86.54216 -19.38955,9.70477 -43.74885,14.95424 -69.40561,14.957 L 896,589 896,558.09398 z M 292.5,545.3506 c -1.65,-0.19235 -7.22859,-0.84078 -12.39686,-1.44095 -25.27519,-2.9351 -55.19324,-13.39884 -77.9502,-27.26284 C 142.81484,480.49686 106.70441,418.61469 104.29241,348.94394 102.59423,299.8919 117.07607,254.7365 146.92902,216 174.72638,179.93077 212.69829,155.89675 260.5,144.11614 c 13.88737,-3.42251 50.40145,-7.91312 52.7153,-6.48308 0.43158,0.26674 0.7847,13.66937 0.7847,29.78363 l 0,29.29866 -11.25,0.71033 c -29.913,1.88874 -55.45268,10.61375 -78.22656,26.72421 -18.31728,12.95782 -36.44162,33.82315 -46.18351,53.16797 -4.87517,9.68079 -10.88592,28.38299 -12.78111,39.76787 -2.37107,14.24365 -2.16924,37.65682 0.44119,51.17975 5.81163,30.10624 17.81346,52.55478 39.98328,74.78577 17.73069,17.77961 33.98718,28.00301 56.36539,35.44715 17.63727,5.86706 25.03001,7.00076 45.65132,7.00076 20.62131,0 28.01405,-1.1337 45.65132,-7.00076 26.85906,-8.93469 51.20068,-26.35985 67.49866,-48.31947 3.95092,-5.32341 7.4905,-10.03847 7.86573,-10.4779 0.58683,-0.68724 45.09582,28.29741 48.82697,31.79657 1.11238,1.04321 0.70091,2.18056 -2.39889,6.6308 -21.02933,30.19087 -47.5974,52.92129 -79.70701,68.19367 -19.94497,9.48648 -44.81897,16.34447 -67.59273,18.63593 -9.68127,0.97411 -28.8452,1.1852 -35.64405,0.3926 z M 504,372.51445 504,199 l -60.5,0 -60.5,0 0,-31.00526 0,-31.00526 91.25,0.25526 91.25,0.25526 0,204 0,204 -30.75,0.26445 -30.75,0.26445 0,-173.51445 z M 613,341.5 l 0,-204.50905 106.75,0.25453 106.75,0.25452 0.17917,29.48289 c 0.12038,19.80948 -0.17353,29.90785 -0.89578,30.77811 -0.86363,1.04061 -15.79023,1.27822 -75.93431,1.20875 l -74.85937,-0.0865 -0.0406,55.30836 -0.0406,55.30836 73.04571,0.25649 L 821,310.01298 821,341 l 0,30.98702 -73.0173,0.25649 -73.01731,0.25649 6e-5,55.77466 7e-5,55.77467 75.40561,-0.0367 c 65.67596,-0.032 75.4789,0.15421 75.97356,1.44329 0.31237,0.81402 0.4751,14.65696 0.36163,30.76209 L 826.5,545.5 719.75,545.75452 613,546.00905 613,341.5 z"
       id="path2991"
       inkscape:connector-curvature="0" />
    <path
       style="fill:#000000;fill-opacity:1"
       d="m 896,558.80143 0,-30.50918 12.25,-0.68111 c 25.40109,-1.41231 40.48153,-7.02621 51.91587,-19.32639 5.64197,-6.0692 8.91041,-12.30282 12.57186,-23.97728 L 975.5,475.5 l 0,-138.5 0,-138.5 -50.75,-0.25916 -50.75,-0.25917 0,-30.49083 0,-30.49084 82.02754,0 82.02756,0 -0.3153,170.25 -0.3152,170.25 -2.269,10 c -9.6946,42.72584 -29.542,70.13107 -62.6556,86.51465 -18.98321,9.39229 -36.30043,13.46936 -62.2115,14.64672 L 896,589.31061 896,558.80143 z M 288.5636,544.92303 C 195.66708,536.05867 121.84149,466.74381 106.51757,374 c -2.25939,-13.67432 -3.00541,-37.31989 -1.62136,-51.38992 6.84422,-69.5772 47.47627,-130.17891 107.90438,-160.93672 25.96115,-13.21419 58.69652,-21.85379 88.44941,-23.34379 l 12.75,-0.63851 0,29.50207 0,29.50206 -11.46034,0.65455 c -31.27875,1.78646 -60.45995,12.49373 -83.3261,30.57431 -27.50543,21.74893 -45.14185,49.43183 -52.25454,82.02102 -8.52063,39.04015 -0.83355,80.09185 21.09376,112.64805 7.51913,11.16388 28.32458,31.78179 39.20646,38.85303 24.69901,16.04986 46.69822,23.18289 74.74076,24.23397 32.93793,1.23457 59.75735,-6.30795 86.89279,-24.43715 10.49475,-7.01155 27.97944,-24.09001 35.05748,-34.24297 2.8757,-4.125 5.66442,-7.3788 6.19714,-7.23067 1.39212,0.38711 48.85259,32.2205 48.85259,32.76714 0,0.25096 -2.31776,3.72042 -5.15058,7.70991 -31.95837,45.00734 -77.29863,73.38193 -132.20543,82.73605 -14.00519,2.38598 -38.88175,3.29546 -53.08039,1.9406 z M 504,372.5 504,199 l -60.5,0 -60.5,0 0,-31 0,-31 91,0 91,0 0,204.5 0,204.5 -30.5,0 -30.5,0 0,-173.5 z m 109,-31 0,-204.5 106.5,0 106.5,0 0,30.49371 0,30.49372 -75.75,0.25628 -75.75,0.25629 0,55.5 0,55.5 73.25,0.25649 73.25,0.25649 0,30.98702 0,30.98702 -73.25,0.25649 -73.25,0.25649 0,56 0,56 75.75,0.25629 75.75,0.25628 0,30.49372 0,30.49371 -106.5,0 -106.5,0 0,-204.5 z"
       id="path2989"
       inkscape:connector-curvature="0" />
  </g>
</svg>
