<?xml version="1.0" encoding="UTF-8" standalone="no"?>
<!-- Created with Inkscape (http://www.inkscape.org/) -->

<svg
   xmlns:dc="http://purl.org/dc/elements/1.1/"
   xmlns:cc="http://creativecommons.org/ns#"
   xmlns:rdf="http://www.w3.org/1999/02/22-rdf-syntax-ns#"
   xmlns:svg="http://www.w3.org/2000/svg"
   xmlns="http://www.w3.org/2000/svg"
   xmlns:sodipodi="http://sodipodi.sourceforge.net/DTD/sodipodi-0.dtd"
   xmlns:inkscape="http://www.inkscape.org/namespaces/inkscape"
   width="934.04437"
   height="452.47192"
   id="svg2"
   version="1.1"
   inkscape:version="0.48.4 r9939"
   sodipodi:docname="Nouveau document 1">
  <defs
     id="defs4" />
  <sodipodi:namedview
     id="base"
     pagecolor="#ffffff"
     bordercolor="#666666"
     borderopacity="1.0"
     inkscape:pageopacity="0.0"
     inkscape:pageshadow="2"
     inkscape:zoom="0.35"
     inkscape:cx="-491.85713"
     inkscape:cy="-2.0558598"
     inkscape:document-units="px"
     inkscape:current-layer="layer1"
     showgrid="false"
     fit-margin-top="0"
     fit-margin-left="0"
     fit-margin-right="0"
     fit-margin-bottom="0"
     inkscape:window-width="1276"
     inkscape:window-height="775"
     inkscape:window-x="0"
     inkscape:window-y="21"
     inkscape:window-maximized="1" />
  <metadata
     id="metadata7">
    <rdf:RDF>
      <cc:Work
         rdf:about="">
        <dc:format>image/svg+xml</dc:format>
        <dc:type
           rdf:resource="http://purl.org/dc/dcmitype/StillImage" />
        <dc:title></dc:title>
      </cc:Work>
    </rdf:RDF>
  </metadata>
  <g
     inkscape:label="Calque 1"
     inkscape:groupmode="layer"
     id="layer1"
     transform="translate(-866.85713,145.02275)">
    <path
       style="fill:#000000"
       d="m 1658.8572,276.29854 0,-31.15065 11.25,-0.0131 c 22.4721,-0.0262 39.686,-5.88583 51.2434,-17.44328 7.196,-7.19596 11.3125,-14.9313 14.7105,-27.64278 l 2.2457,-8.4008 0.2991,-137.240906 0.2991,-137.2409 -51.2739,-0.2591 -51.2739,-0.25913 -0.2645,-30.750004 -0.2644,-30.75 82.5366,0 82.5366,0 -0.3041,170.750004 -0.3042,170.749996 -2.2111,9.6157 c -6.478,28.17162 -17.2308,49.12809 -33.6075,65.4987 -22.2838,22.27552 -51.2835,33.53382 -90.3674,35.08259 l -15.25,0.6043 0,-31.15064 z M 1048.9078,263.07021 C 968.32614,253.98438 902.72442,201.10802 877.32795,124.77327 869.85999,102.32665 866.85713,83.649744 866.85713,59.647894 c 0,-32.47811 6.57942,-60.8471397 20.9097,-90.15813 21.72939,-44.44503 57.10306,-77.972014 101.54693,-96.245644 24.71034,-10.15995 45.90334,-14.84233 79.79334,-17.6295 l 7.75,-0.63737 0,30.33532 -0.01,30.335324 -10.2445,0.2582 c -33.8056,0.85203 -66.4945,13.97535 -91.80547,36.85634 -24.62609,22.26188 -38.85733,46.71258029 -45.62333,78.38546 -2.58519,12.10174 -2.58519,44.89826 0,57 6.21383,29.088076 18.70277,52.104146 39.63896,73.051306 21.5592,21.57049 45.83584,34.60514 75.67124,40.62959 13.5667,2.73941 41.3866,2.4599 55.3737,-0.55635 34.8199,-7.50869 67.1522,-28.42605 86.4022,-55.89778 3.1705,-4.52472 5.959,-8.22677 6.1967,-8.22677 0.8672,0 48.2411,31.9316 48.8603,32.93354 0.3512,0.5681 -1.1611,3.68284 -3.3605,6.92164 -30.2183,44.49712 -77.5208,74.67179 -132.0993,84.26681 -13.3715,2.35075 -43.5941,3.30617 -56.9493,1.80033 z m 217.9493,-172.422316 0,-173.5 -60.5,0 -60.5,0 0,-31.000004 0,-31 91.5,0 91.5,0 0,204.500004 0,204.499996 -31,0 -31,0 0,-173.499996 z m 109,-31 0,-204.500004 107.0145,0 107.0145,0 -0.2645,30.75 -0.2644,30.750004 -75.75,0.25629 -75.75,0.25628 0,55.49372 0,55.49371 73,0 73,0 0,31 0,31 -73,0 -73,0 0,55.993706 0,55.99372 75.75,0.25628 75.75,0.25629 0.2644,30.75 0.2645,30.75 -107.0145,0 -107.0145,0 0,-204.499996 z"
       id="path3066"
       inkscape:connector-curvature="0" />
  </g>
</svg>
