<?xml version="1.0" encoding="UTF-8" standalone="no"?>
<!-- Created with Inkscape (http://www.inkscape.org/) -->

<svg
   xmlns:dc="http://purl.org/dc/elements/1.1/"
   xmlns:cc="http://creativecommons.org/ns#"
   xmlns:rdf="http://www.w3.org/1999/02/22-rdf-syntax-ns#"
   xmlns:svg="http://www.w3.org/2000/svg"
   xmlns="http://www.w3.org/2000/svg"
   xmlns:sodipodi="http://sodipodi.sourceforge.net/DTD/sodipodi-0.dtd"
   xmlns:inkscape="http://www.inkscape.org/namespaces/inkscape"
   width="38.890453"
   height="57.37524"
   id="svg3126"
   version="1.1"
   inkscape:version="0.48.4 r9939"
   sodipodi:docname="ctej.svg">
  <defs
     id="defs3128" />
  <sodipodi:namedview
     id="base"
     pagecolor="#ffffff"
     bordercolor="#666666"
     borderopacity="1.0"
     inkscape:pageopacity="0.0"
     inkscape:pageshadow="2"
     inkscape:zoom="0.37734375"
     inkscape:cx="-128.41192"
     inkscape:cy="74.401907"
     inkscape:document-units="px"
     inkscape:current-layer="layer1"
     showgrid="false"
     inkscape:window-width="476"
     inkscape:window-height="456"
     inkscape:window-x="0"
     inkscape:window-y="21"
     inkscape:window-maximized="0"
     fit-margin-top="0"
     fit-margin-left="0"
     fit-margin-right="0"
     fit-margin-bottom="0" />
  <metadata
     id="metadata3131">
    <rdf:RDF>
      <cc:Work
         rdf:about="">
        <dc:format>image/svg+xml</dc:format>
        <dc:type
           rdf:resource="http://purl.org/dc/dcmitype/StillImage" />
        <dc:title />
      </cc:Work>
    </rdf:RDF>
  </metadata>
  <g
     inkscape:label="Layer 1"
     inkscape:groupmode="layer"
     id="layer1"
     transform="translate(-503.41192,-549.38885)">
    <path
       style="fill:#00aa5a"
       d="m 503.91701,604.95345 0,-1.81064 19.19268,0 19.19268,0 0,1.81064 0,1.81064 -19.19268,0 -19.19268,0 0,-1.81064 z m 32.51435,-3.99198 -1.3284,-1.09493 0.69474,-1.53042 c 0.58935,-1.29829 0.69596,-2.3957 0.7027,-7.23396 l 0.008,-5.70346 1.7684,0 c 2.22211,0 2.20848,-0.0438 2.19415,7.06142 -0.0113,5.60719 -0.35599,7.48782 -1.63042,8.8961 -0.81655,0.90222 -0.84041,0.89834 -2.40913,-0.39475 z m -26.72268,-2.86458 c -1.48693,-0.45235 -3.02416,-1.34829 -3.87282,-2.2572 -2.42481,-2.59701 -3.16753,-7.65673 -1.59945,-10.89598 0.95314,-1.96889 3.26254,-4.10696 4.80112,-4.44488 1.05888,-0.23256 1.18606,-0.74853 0.57748,-2.34267 -0.39826,-1.0432 -0.52531,-2.53487 -0.21589,-2.53487 0.17155,0 0.33071,0.36665 0.35368,0.81477 0.0622,1.21309 0.12366,1.44735 0.66508,2.53489 0.37337,0.74999 0.76007,0.99585 1.56627,0.99585 0.94163,0 1.04086,-0.0981 0.82438,-0.8148 -0.13536,-0.44812 -0.28389,-1.05921 -0.33009,-1.35795 -0.0462,-0.29878 -0.33609,-1.11355 -0.6442,-1.81064 -0.97297,-2.2013 -1.53102,-5.98056 -1.07588,-7.28617 0.22064,-0.63295 0.40117,-1.37092 0.40117,-1.63996 0,-0.78214 -0.71713,-0.56494 -1.0751,0.32564 -0.18012,0.44813 -0.33783,0.57849 -0.35045,0.2897 -0.0179,-0.4084 -0.11952,-0.42852 -0.4575,-0.0905 -0.23901,0.239 -0.72788,0.43454 -1.08639,0.43454 -0.3585,0 -0.65182,0.22835 -0.65182,0.50742 0,0.32237 -0.39617,0.13734 -1.08638,-0.50742 -1.52081,-1.42065 -1.52081,-3.27838 0,-4.40276 0.59751,-0.44176 1.08638,-0.94646 1.08638,-1.12155 0,-0.9263 5.55302,-4.97692 6.08863,-4.44131 0.28342,0.28342 -1.36643,1.61714 -2.01471,1.62867 -0.60341,0.0107 -0.58556,0.7323 0.0181,0.7323 0.25893,0 0.68626,-0.2037 0.94965,-0.45266 0.39562,-0.37395 0.40391,-0.3071 0.0477,0.38453 -0.43068,0.83622 -0.42882,0.83697 1.62874,0.64691 1.51842,-0.14025 2.35787,-0.0314 3.19333,0.4142 0.62337,0.33244 1.25563,0.57094 1.405,0.52999 0.14938,-0.041 0.2716,0.15704 0.2716,0.43996 0,0.4626 1.57482,1.06068 2.39232,0.90855 0.75116,-0.1398 1.22297,0.0549 1.13841,0.46959 -0.0497,0.24424 0.27612,0.50001 0.72425,0.56838 0.44813,0.0684 0.81479,0.37037 0.81479,0.67109 0,0.62382 -1.50257,4.51342 -2.76817,7.1658 -0.4692,0.98334 -0.8531,1.82005 -0.8531,1.85939 0,0.0393 0.82857,0.0715 1.84128,0.0715 1.01269,0 1.99881,0.15754 2.19136,0.35007 0.44107,0.44108 -0.54424,3.07776 -1.77,4.73651 -1.0673,1.4443 -0.82825,1.82874 0.73872,1.18803 0.63971,-0.26156 1.54426,-0.45853 2.01014,-0.43769 1.40719,0.063 8.81508,-1.37376 9.34317,-1.81203 0.27087,-0.22481 0.48104,-0.67396 0.46705,-0.99812 -0.0199,-0.46034 -0.0855,-0.43607 -0.29966,0.11082 -0.35132,0.89712 -0.6639,0.33788 -0.59378,-1.06233 0.0299,-0.5975 -0.0582,-1.24935 -0.19578,-1.44852 -0.44259,-0.64057 -0.76548,-2.71594 -0.42256,-2.71594 0.19343,0 0.16778,-0.96695 -0.0617,-2.32714 -0.44815,-2.65579 -0.96259,-3.56393 -0.75902,-1.33992 0.0746,0.81521 0.002,1.5644 -0.15988,1.66487 -0.16255,0.10046 -0.40581,0.91798 -0.54059,1.81668 -0.13477,0.89871 -0.38206,1.63402 -0.54954,1.63402 -0.16748,0 -0.49991,0.52961 -0.73872,1.17691 -0.23881,0.64729 -0.50666,0.9915 -0.59524,0.76488 -0.0886,-0.22662 0.15811,-0.98026 0.54818,-1.67475 1.35952,-2.42052 1.75907,-7.85746 0.67827,-9.22967 -0.50329,-0.63897 0.0957,-0.56359 0.83452,0.10502 0.55928,0.50614 0.6334,0.49192 0.80231,-0.15397 0.13145,-0.50265 0.0386,-0.65504 -0.3161,-0.51892 -0.3013,0.11561 -0.5022,-0.0429 -0.5022,-0.39612 0,-0.4561 -0.21625,-0.53456 -0.95933,-0.34806 -0.67515,0.16945 -0.88336,0.11786 -0.70288,-0.17416 0.14104,-0.22822 0.0972,-0.41495 -0.0974,-0.41495 -0.19463,0 -0.61349,-0.0996 -0.93079,-0.22138 -0.44427,-0.17047 -0.51875,-0.0664 -0.32395,0.45266 0.22309,0.59441 0.18079,0.61531 -0.35801,0.17704 -0.33605,-0.27334 -0.61099,-0.34124 -0.61099,-0.15087 0,0.19036 -0.2289,0.3461 -0.50867,0.3461 -0.27976,0 -0.42458,-0.21913 -0.3218,-0.48694 0.13335,-0.34751 -0.006,-0.4145 -0.48718,-0.23397 -0.57316,0.2151 -0.60577,0.16889 -0.21793,-0.30877 0.34462,-0.42439 0.78726,-0.49728 1.81063,-0.29816 0.74498,0.14496 2.00634,0.38889 2.80302,0.54203 l 1.44851,0.27847 -0.75791,-0.86289 c -0.41684,-0.47458 -2.3506,-2.87446 -4.29724,-5.33306 -3.04411,-3.8447 -3.66011,-4.4471 -4.4024,-4.30519 -0.47468,0.0907 -0.86305,0.0246 -0.86305,-0.14693 0,-0.17155 0.24444,-0.31191 0.54319,-0.31191 0.29875,0 0.54319,-0.16296 0.54319,-0.36213 0,-0.81597 -1.19088,-0.16882 -1.56851,0.85236 -0.1497,0.40485 -0.46261,0.58902 -0.78836,0.46402 -0.32767,-0.12573 -0.54014,0.002 -0.54014,0.32455 0,0.29251 -0.24443,0.53183 -0.54319,0.53183 -0.29875,0 -0.54319,0.17257 -0.54319,0.3835 0,0.21092 -0.15122,0.29003 -0.33605,0.1758 -0.18484,-0.11423 -0.42924,0.0859 -0.54314,0.44475 -0.20685,0.65174 -1.65569,1.04255 -1.65569,0.4466 0,-0.17322 0.48887,-0.66306 1.08638,-1.08852 0.59751,-0.42547 1.08637,-0.64475 1.08637,-0.48728 0,0.15746 0.25671,-0.0802 0.57047,-0.52814 0.31374,-0.44794 0.84336,-0.76938 1.1769,-0.7143 0.33355,0.055 0.56635,-0.10166 0.51733,-0.3483 -0.049,-0.24665 0.58353,-0.89359 1.40568,-1.43767 l 1.4948,-0.98921 1.59707,1.79979 c 2.1794,2.45603 8.14933,9.89981 8.92192,11.12453 0.3887,0.61618 0.94611,0.99585 1.46205,0.99585 1.1756,0 2.54359,1.53909 2.23425,2.51372 -0.28527,0.89882 -1.48425,1.75787 -2.71573,1.94581 -0.4807,0.0734 -0.93069,0.30342 -0.99997,0.51126 -0.22022,0.66066 0.95788,9.26182 1.3179,9.62184 0.18991,0.18992 0.93977,0.23377 1.66636,0.0975 1.02046,-0.19145 1.23334,-0.35355 0.93551,-0.71242 -0.21206,-0.25552 -0.27938,-0.57077 -0.1496,-0.70055 0.12979,-0.12978 0.46353,0.0889 0.74165,0.48597 0.27812,0.39707 0.80334,0.72196 1.16715,0.72196 0.36531,0 0.74964,0.33708 0.85836,0.75284 0.15169,0.5801 -0.0449,0.85452 -0.85697,1.19595 -0.98897,0.41583 -1.01621,0.48074 -0.4425,1.05445 0.57371,0.5737 0.53552,0.68958 -0.62033,1.88213 -0.67743,0.69892 -1.36303,1.27076 -1.52357,1.27076 -0.56145,0 -2.83747,-2.70478 -2.66162,-3.16303 0.1993,-0.51937 -0.11956,-0.49325 -5.59545,0.45844 -1.89211,0.32884 -4.61864,0.90895 -6.05895,1.28913 -1.44032,0.38016 -2.70323,0.69124 -2.80648,0.69124 -0.10324,0 -0.18772,0.47747 -0.18772,1.06113 0,0.82264 0.18204,1.08724 0.80972,1.1769 0.67822,0.0969 0.82027,0.36228 0.87472,1.63363 0.0559,1.30507 -0.0449,1.53348 -0.71919,1.62959 -0.69483,0.0989 -0.79648,0.36988 -0.89206,2.37735 -0.1017,2.13598 -0.0554,2.28563 0.80972,2.61453 0.91234,0.34682 0.98746,0.8114 0.60162,3.72027 -0.0464,0.3498 -3.71184,0.34501 -4.23679,-0.008 -0.90086,-0.60151 -1.23112,-2.02657 -1.23112,-5.31201 0,-2.06789 -0.14595,-3.46402 -0.36213,-3.46402 -0.19917,0 -0.36213,-0.73332 -0.36213,-1.62959 0,-0.89627 0.16296,-1.6295 0.36213,-1.6295 0.19917,0 0.36213,-0.22716 0.36213,-0.50474 0,-0.39806 -0.59306,-0.31583 -2.80648,0.38922 -2.10534,0.67059 -2.96122,0.79818 -3.42589,0.5106 -1.35887,-0.84107 -2.66194,0.87933 -2.60553,3.4399 0.0623,2.82929 2.21274,4.74934 4.91344,4.38706 l 1.38957,-0.18643 0,1.93137 c 0,1.27301 -0.19399,2.1254 -0.56906,2.50049 -0.59833,0.59828 -2.57104,0.70819 -4.14092,0.23072 z m 8.05689,-16.19266 c 0.5271,-0.32576 0.26504,-0.69137 -0.97375,-1.35851 -0.68646,-0.36967 -1.61113,-1.05858 -2.05482,-1.53085 -0.44369,-0.4723 -0.94126,-0.85871 -1.10571,-0.85871 -0.39445,0 -0.38134,0.93599 0.0241,1.72502 0.17773,0.34584 0.50805,1.09425 0.73401,1.66312 0.37944,0.95523 0.51373,1.01501 1.75631,0.78191 0.74,-0.13883 1.46891,-0.32872 1.6198,-0.42198 z m -0.0722,-12.44739 c 1.75668,-0.94016 1.59562,-3.25084 -0.2266,-3.25084 -1.52334,0 -3.32849,2.49585 -2.4445,3.37984 0.3636,0.36361 1.88824,0.28998 2.6711,-0.129 z m -1.5722,-0.58273 c -0.13967,-0.13967 -0.25393,-0.56402 -0.25393,-0.94302 0,-0.50748 0.21473,-0.65857 0.81478,-0.57336 0.53265,0.0756 0.81478,0.36478 0.81478,0.835 0,0.71832 -0.89525,1.16176 -1.37563,0.68138 z m 21.89843,-2.54376 c 0.67376,-0.60976 0.67257,-0.63639 -0.0618,-1.36894 -0.60123,-0.59974 -0.80911,-0.65017 -1.05394,-0.25569 -0.18256,0.29413 -0.59364,0.39981 -1.024,0.26321 -0.96166,-0.30523 -2.39504,0.84792 -2.07869,1.67229 0.43449,1.13228 2.81786,0.95665 4.21846,-0.31087 z m -27.80461,0.0443 c 0.44612,-0.44612 0.47467,-0.73331 0.14484,-1.45719 -0.488,-1.07104 -1.58572,-1.42287 -2.89099,-0.92662 -1.17146,0.4454 -1.49054,0.93117 -1.2042,1.83336 0.34181,1.07695 3.0469,1.4539 3.95035,0.55045 z m 2.22185,-2.71937 c 0.12848,-0.20789 0.0172,-0.6388 -0.24738,-0.95755 -0.42263,-0.50924 -0.38247,-0.5483 0.33095,-0.32187 0.495,0.15712 0.81194,0.10682 0.81194,-0.12881 0,-0.41869 -0.717,-0.50556 -1.54626,-0.18733 -0.32813,0.12591 -0.45673,0.52561 -0.34954,1.08637 0.17793,0.93072 0.60531,1.14827 1.00029,0.50919 z m 6.3274,-0.64172 c 0,-0.41247 -2.89577,-1.99925 -3.16223,-1.73278 -0.11969,0.11969 0.0132,0.22793 0.2954,0.24056 0.28216,0.0127 0.13131,0.17589 -0.33522,0.36282 -0.46652,0.18693 -0.99613,0.24846 -1.17691,0.13675 -0.18077,-0.11174 -0.32868,-0.0306 -0.32868,0.18036 0,0.21092 0.32591,0.38349 0.72425,0.38349 0.39834,0 0.72426,0.16296 0.72426,0.36213 0,0.19917 0.7333,0.36212 1.62956,0.36212 0.89627,0 1.62957,-0.13294 1.62957,-0.29545 z m -8.04968,-2.5339 c 0.0882,-0.26463 -0.0773,-0.34556 -0.43002,-0.21022 -0.3154,0.12103 -0.57345,0.37915 -0.57345,0.57361 0,0.47598 0.82304,0.17793 1.00347,-0.36339 z m 15.79162,37.07326 c -2.4644,-1.07262 -3.85598,-4.34021 -3.24205,-7.61277 0.53317,-2.84202 4.06086,-5.2107 7.14438,-4.7971 1.7883,0.23989 3.1223,1.15194 4.08203,2.79095 l 0.69806,1.19219 -1.10312,0.94271 c -0.60672,0.51854 -2.02081,1.56364 -3.14242,2.32249 -1.12161,0.75876 -2.03929,1.53281 -2.03929,1.72006 0,0.53549 2.60624,0.39319 3.75319,-0.20502 1.54142,-0.80388 1.6787,-0.70331 1.6787,1.23037 0,1.72999 -0.034,1.78486 -1.45583,2.35381 -1.76046,0.70439 -4.8294,0.73439 -6.37365,0.062 z m 3.82368,-8.40368 c 0.0728,-1.34498 -2.69948,-0.63704 -3.25799,0.83198 -0.68216,1.7942 -0.14467,2.04723 1.61811,0.76158 0.8896,-0.64878 1.62755,-1.3659 1.63988,-1.59356 z m -2.52761,-11.49305 c 0.88794,-0.92002 1.75108,-1.67277 1.91808,-1.67277 0.55257,0 -0.97228,1.70656 -2.26336,2.53306 -1.2369,0.79183 -1.22812,0.76997 0.34528,-0.86029 z m -19.66772,-5.24914 c -0.34409,-1.46907 -0.56364,-2.73304 -0.48788,-2.8088 0.26377,-0.26376 1.41615,4.09307 1.26536,4.78399 -0.0835,0.38273 -0.43339,-0.50611 -0.77748,-1.97519 z m 30.54665,1.76574 c 0,-0.19916 0.0719,-0.36211 0.15968,-0.36211 0.0878,0 0.26041,0.16295 0.38351,0.36211 0.12308,0.19917 0.0512,0.36213 -0.1597,0.36213 -0.21092,0 -0.38349,-0.16296 -0.38349,-0.36213 z m -10.84863,-1.00873 c -0.38912,-0.42047 -0.41293,-0.60895 -0.0905,-0.71642 0.24063,-0.0802 0.43751,-0.3863 0.43751,-0.68022 0,-0.29391 0.16296,-0.43366 0.36213,-0.31057 0.42119,0.26032 0.49021,1.8714 0.0905,2.11338 -0.14938,0.0904 -0.50922,-0.0924 -0.79963,-0.40617 z m 9.95311,-0.0935 c 0.12849,-0.20789 0.0474,-0.60246 -0.18038,-0.87681 -0.3305,-0.39823 -0.27939,-0.46364 0.25334,-0.32433 0.76231,0.19935 0.91993,1.57914 0.1804,1.57914 -0.26783,0 -0.38185,-0.17009 -0.25336,-0.378 z m 1.28623,-0.13502 c -0.0157,-0.38175 0.0698,-0.59562 0.19019,-0.47529 0.12034,0.12034 0.1332,0.43267 0.0286,0.69407 -0.11559,0.28888 -0.2014,0.20308 -0.21877,-0.21878 z m -13.42726,-1.09519 c 0,-0.28699 0.14777,-0.61312 0.32836,-0.72474 0.18059,-0.11162 0.24306,0.12319 0.13883,0.5218 -0.22112,0.84558 -0.46719,0.95247 -0.46719,0.20294 z m 12.66545,-1.13131 c -0.43341,-1.13996 -0.43609,-1.24387 -0.0321,-1.24387 0.17657,0 0.39277,0.48887 0.48047,1.08637 0.19545,1.33167 0.0213,1.39282 -0.44834,0.1575 z m -11.48099,-0.0141 c 0.12034,-0.12034 0.43267,-0.1332 0.69408,-0.0286 0.28888,0.1156 0.20307,0.2014 -0.21879,0.21878 -0.38174,0.0157 -0.59562,-0.0698 -0.47529,-0.19019 z m -2.57701,-0.70536 c 0.0688,-0.35498 0.34437,-0.71842 0.61235,-0.80767 0.31166,-0.10377 0.44216,0.0703 0.36213,0.48318 -0.0688,0.35498 -0.34438,0.71843 -0.61236,0.80767 -0.31165,0.10377 -0.44215,-0.0703 -0.36212,-0.48318 z m 12.98059,-1.19249 c 0,-0.1683 0.31995,-0.59556 0.71101,-0.94947 0.69526,-0.62919 0.70128,-0.62247 0.2716,0.30318 -0.4232,0.9117 -0.98261,1.27963 -0.98261,0.64629 z m -13.19358,-6.53743 c -0.81022,-0.31729 -0.42131,-0.65485 0.88128,-0.76493 1.72642,-0.14591 1.99298,0.007 0.95444,0.54908 -0.57047,0.29752 -1.05935,0.52951 -1.08637,0.5155 -0.027,-0.0141 -0.36424,-0.14884 -0.74935,-0.29965 z m -5.37723,-1.00785 c -0.75199,-0.40051 -0.72251,-0.42789 0.46449,-0.43158 1.98806,-0.006 3.98339,0.34791 3.98339,0.70686 0,0.45807 -3.4747,0.24302 -4.44788,-0.27528 z m -4.35635,-3.03976 c 0.50018,-1.00265 1.56171,-1.47643 1.56171,-0.69703 0,0.19916 -0.24444,0.36212 -0.5432,0.36212 -0.29875,0 -0.54319,0.227 -0.54319,0.50445 0,0.27745 -0.22583,0.59111 -0.50185,0.69702 -0.41737,0.16016 -0.4129,0.0143 0.0265,-0.86656 z m 1.07887,-1.6627 c -0.3631,-0.36309 -0.29018,-0.91784 0.0898,-0.68301 0.18215,0.11257 0.38585,0.0449 0.45265,-0.15045 0.14967,-0.43761 1.75104,-0.0588 1.75104,0.41424 0,0.18769 -0.16296,0.24055 -0.36213,0.11745 -0.19917,-0.12311 -0.36213,-0.0512 -0.36213,0.15969 0,0.42078 -1.18337,0.52791 -1.56921,0.14208 z"
       id="path3154"
       inkscape:connector-curvature="0" />
  </g>
</svg>
