<?xml version="1.0" encoding="UTF-8" standalone="no"?>
<!-- Created with Inkscape (http://www.inkscape.org/) -->

<svg
   xmlns:dc="http://purl.org/dc/elements/1.1/"
   xmlns:cc="http://creativecommons.org/ns#"
   xmlns:rdf="http://www.w3.org/1999/02/22-rdf-syntax-ns#"
   xmlns:svg="http://www.w3.org/2000/svg"
   xmlns="http://www.w3.org/2000/svg"
   xmlns:sodipodi="http://sodipodi.sourceforge.net/DTD/sodipodi-0.dtd"
   xmlns:inkscape="http://www.inkscape.org/namespaces/inkscape"
   id="svg2"
   version="1.1"
   inkscape:version="0.48.3.1 r9886"
   width="1440.7487"
   height="454.3754"
   sodipodi:docname="CTEJ-black-baseline.jpg">
  <metadata
     id="metadata8">
    <rdf:RDF>
      <cc:Work
         rdf:about="">
        <dc:format>image/svg+xml</dc:format>
        <dc:type
           rdf:resource="http://purl.org/dc/dcmitype/StillImage" />
        <dc:title></dc:title>
      </cc:Work>
    </rdf:RDF>
  </metadata>
  <defs
     id="defs6" />
  <sodipodi:namedview
     pagecolor="#ffffff"
     bordercolor="#666666"
     borderopacity="1"
     objecttolerance="10"
     gridtolerance="10"
     guidetolerance="10"
     inkscape:pageopacity="0"
     inkscape:pageshadow="2"
     inkscape:window-width="640"
     inkscape:window-height="480"
     id="namedview4"
     showgrid="false"
     fit-margin-top="0"
     fit-margin-left="0"
     fit-margin-right="0"
     fit-margin-bottom="0"
     inkscape:zoom="0.20782396"
     inkscape:cx="662.81921"
     inkscape:cy="212.50588"
     inkscape:window-x="65"
     inkscape:window-y="24"
     inkscape:window-maximized="0"
     inkscape:current-layer="svg2" />
  <g
     id="g2987"
     transform="translate(-102.25138,-172.1246)"
     style="fill:#000000">
    <path
       style="fill:#000000;fill-opacity:1"
       d="m 894.99874,595.39549 10e-4,-31.10452 12.25,-0.55653 c 16.36313,-0.74339 26.45034,-2.92222 36.75,-7.93796 16.01996,-7.80142 24.75444,-19.85754 29.01734,-40.05238 1.87965,-8.90457 1.9519,-14.23071 1.96699,-145.01202 L 975,234.96417 l -51.00023,0.26791 -51.00023,0.26792 1.4e-4,-31.5 1.3e-4,-31.5 82.51936,0.26146 82.51933,0.26147 -0.3051,172.73853 -0.3051,172.73854 -2.215,9 c -11.8285,48.06213 -38.63187,78.48872 -80.90662,91.84331 -13.13526,4.14942 -23.8954,5.81293 -42.05794,6.5021 l -17.25127,0.65459 10e-4,-31.10451 z M 503,410.02199 503,236.01549 442.25,235.75775 381.5,235.5 381.23575,204.25 380.97151,173 l 92.51664,0 92.51663,0 -0.25239,205.25 -0.25239,205.25 -31.25,0.26425 -31.25,0.26424 0,-174.0065 z M 278.16693,581.44741 c -35.86659,-5.06709 -70.64292,-19.94136 -98.30091,-42.04452 -3.64868,-2.91588 -6.91118,-5.0994 -7.25,-4.85225 -0.33881,0.24715 -0.45613,0.21447 -0.26072,-0.0726 0.19542,-0.28709 -3.45435,-4.22459 -8.11059,-8.75 -47.04783,-45.72591 -69.540131,-112.80898 -59.73159,-178.1489 5.96949,-39.7659 25.36795,-80.3991 51.84733,-108.60259 3.17317,-3.37978 5.39608,-6.56147 5.015,-7.17806 -0.4266,-0.69025 -0.22528,-0.8237 0.53436,-0.35422 1.4543,0.89881 10.25345,-7.37108 9.36771,-8.80424 -0.3226,-0.52197 -0.10329,-0.65037 0.48735,-0.28534 0.59064,0.36504 1.67267,0.083 2.40451,-0.62669 10.89087,-10.56164 39.53521,-26.93676 60.68329,-34.69083 C 255.40863,179.50018 290.02461,173 309.60595,173 l 4.39405,0 0,30.34996 0,30.34996 -12.05391,0.68122 c -31.56593,1.78394 -58.50676,11.63848 -82.46249,30.1635 -28.54479,22.07376 -46.3766,50.44974 -53.38698,84.95536 -8.07205,39.73131 1.13197,81.46095 25.15755,114.06045 6.79067,9.21403 24.38718,26.77924 25.89403,25.84796 0.67993,-0.42022 0.89216,-0.28273 0.5123,0.3319 -0.84419,1.36592 14.45724,11.80982 25.19386,17.19593 11.39526,5.71651 21.91555,9.47464 34.25923,12.23831 13.84949,3.10081 44.49376,3.37062 57.88641,0.50967 18.93165,-4.0442 36.4294,-11.45631 52.81841,-22.37408 10.72671,-7.14574 28.0844,-24.21548 35.14313,-34.56014 2.90854,-4.2625 5.45852,-7.75 5.66663,-7.75 1.29443,0 50.37123,33.52831 50.36867,34.4109 -0.006,2.20316 -16.4693,23.35311 -24.85403,31.93001 -30.72999,31.43436 -67.43159,50.99064 -111.14281,59.22196 -12.18809,2.29515 -51.09129,2.82592 -64.83307,0.88454 z M 611.5,378 l 0,-205 107.75,0 107.75,0 0,31 0,31 -76,0 -76,0 0,55.5 0,55.5 73,0 73,0 0,31.5 0,31.5 -73,0 -73,0 0,56 0,56 76,0 76,0 0,31 0,31 -107.75,0 -107.75,0 0,-205 z m 652.7087,65.95356 c -2.9592,-1.18776 -6.1587,-8.27448 -6.1867,-13.70356 L 1258,426 l 3.8324,0 c 3.7765,0 3.8458,0.0692 4.75,4.75 0.8514,4.4072 1.1341,4.75 3.9176,4.75 l 3,0 0.2721,-18.75 0.272,-18.75 4.553,0 4.553,0 -0.325,19.75 c -0.3533,21.46213 -0.8725,23.58366 -6.3862,26.09587 -2.9787,1.35719 -8.9854,1.41008 -12.2302,0.10769 z m 66.2624,-0.94947 c -5.9629,-2.95167 -6.6665,-5.55983 -7.2166,-26.75409 l -0.4738,-18.25 4.5438,0 4.5438,0 0.3159,16.89795 c 0.2793,14.9478 0.5357,17.14055 2.2208,19 2.3357,2.57734 6.7209,2.72541 8.9149,0.30102 1.346,-1.48724 1.6779,-4.75397 1.905,-18.75 L 1345.5,398.5 l 4.3112,-0.31049 4.3112,-0.31049 -0.3112,18.85853 c -0.2771,16.79465 -0.5271,19.18159 -2.2836,21.81049 -1.0848,1.62358 -1.8348,3.40196 -1.6667,3.95196 0.1682,0.55 -0.014,0.68045 -0.4044,0.28988 -0.3905,-0.39056 -1.9807,-0.0531 -3.5336,0.75 -3.9616,2.04859 -10.7031,1.81483 -15.4518,-0.53579 z m 107.5414,0.54821 c -1.368,-0.75726 -2.9001,-1.12178 -3.4045,-0.81006 -0.5043,0.31173 -0.5959,0.0473 -0.2035,-0.58773 0.3924,-0.63498 0.3203,-1.15451 -0.1603,-1.15451 -1.2781,0 -4.2442,-6.66274 -4.2442,-9.53393 0,-2.21569 0.4114,-2.46607 4.052,-2.46607 3.5809,0 4.1707,0.3404 5.0726,2.92746 2.011,5.76897 12.1012,6.00541 13.5289,0.31702 0.8254,-3.28862 -0.8111,-4.49006 -9.8592,-7.23834 -9.6681,-2.93659 -11.7943,-5.2646 -11.7943,-12.91363 0,-6.88186 1.0986,-9.82491 4.6465,-12.44815 4.7753,-3.53067 15.0189,-3.40375 19.218,0.23811 2.2133,1.91958 5.1355,7.94292 5.1355,10.58541 0,1.12238 -1.0764,1.53212 -4.0248,1.53212 -3.3608,0 -4.1797,-0.4078 -4.9646,-2.47207 -1.1038,-2.90321 -5.1446,-4.21858 -8.901,-2.8975 -2.0226,0.7113 -2.6096,1.58714 -2.6096,3.89365 0,2.82741 0.3992,3.11115 8,5.68574 10.4847,3.55144 13.5015,6.69341 13.4963,14.05596 0,6.17469 -2.4764,10.89689 -6.9024,13.18567 -3.6831,1.90458 -12.7203,1.96125 -16.0814,0.10085 z m 33.2918,-0.5083 c -3.9496,-2.40827 -5.9508,-5.41924 -6.8416,-10.294 l -0.6853,-3.75 4.4863,0 c 4.1452,0 4.5302,0.21938 5.0634,2.88548 1.1521,5.76056 11.8837,6.10726 13.3086,0.42996 0.8518,-3.39389 -0.7952,-4.66792 -9.2988,-7.19311 -10.1066,-3.00118 -12.6944,-6.16689 -12.1414,-14.85244 0.3493,-5.48538 0.821,-6.74797 3.5351,-9.46199 4.0049,-4.0049 11.9032,-5.02458 17.6813,-2.28268 3.8052,1.8057 7.5881,7.50633 7.5881,11.43494 0,1.70844 -0.641,2.03984 -3.9454,2.03984 -3.3195,0 -4.1535,-0.43628 -5.257,-2.75 -2.4779,-5.19566 -12.2366,-3.87802 -11.6075,1.56726 0.2687,2.3265 1.173,2.97738 6.8099,4.90155 3.575,1.22034 7.242,2.47373 8.149,2.78531 0.9069,0.31158 2.8194,1.73698 4.25,3.16756 2.1849,2.1849 2.6004,3.49918 2.5973,8.21468 0,6.57396 -2.3688,11.22068 -6.9024,13.56509 -4.2608,2.20331 -12.8496,1.99488 -16.7896,-0.40745 z m 42.9457,1.20828 -14.25,-0.30719 0,-22.97255 0,-22.97254 14,0 14,0 0,4.5 0,4.5 -9.5,0 -9.5,0 0,4.5 0,4.5 9,0 9,0 0,4 0,4 -9,0 -9,0 0,5.5 0,5.5 10,0 10,0 0,5 c 0,2.75 -0.1125,4.90088 -0.25,4.77974 -0.1375,-0.12115 -6.6625,-0.3585 -14.5,-0.52746 z M 1098,421 l 0,-23 14,0 14,0 0,4.5 0,4.5 -10,0 -10,0 0,4 0,4 9,0 9,0 0,4.5 0,4.5 -9,0 -9,0 0,5.5 0,5.5 10.5,0 10.5,0 0,4.5 0,4.5 -14.5,0 -14.5,0 0,-23 z m 42,4.5 0,-18.5 -5.5,0 -5.5,0 0,-4.5 0,-4.5 15.5,0 15.5,0 0,4.5 0,4.5 -5.3518,0 -5.3518,0 -0.6422,8.25 c -0.3532,4.5375 -0.6449,12.8625 -0.6482,18.5 L 1148,444 l -4,0 -4,0 0,-18.5 z m 37,-4.5 0,-23 4.5,0 4.5,0 0,18.5 0,18.5 9,0 9,0 0,4.5 0,4.5 -13.5,0 -13.5,0 0,-23 z m 30,22.14608 c 0,-0.80607 5.1201,-18.64224 10.5915,-36.89608 l 2.4728,-8.25 4.9293,0 4.9293,0 1.1266,4.25 c 0.8905,3.35906 9.0462,31.57293 11.5627,40 0.4481,1.50053 -0.1795,1.75 -4.4027,1.75 l -4.9253,0 -0.8932,-4.25 -0.8932,-4.25 -6.6194,-0.29274 -6.6194,-0.29274 -1.1439,4.54274 -1.1439,4.54274 -4.4856,0 C 1209.0185,444 1207,443.61574 1207,443.14608 z M 1227.3604,420.25 c -2.2902,-9.08398 -2.4646,-9.17176 -4.4697,-2.25 -1.0356,3.575 -1.8846,6.8375 -1.8868,7.25 0,0.4125 1.7534,0.75 3.9012,0.75 l 3.905,0 -1.4497,-5.75 z m 61.8708,1 0.2688,-22.75 14.25,-0.27746 14.25,-0.27745 0,4.52745 0,4.52746 -10,0 -10,0 0,4 0,4 9,0 9,0 0,4.5 0,4.5 -9,0 -9,0 0,5.5 0,5.5 10,0 10,0 0,4.5 0,4.5 -14.5188,0 -14.5187,0 0.2687,-22.75 z M 1360,421 l 0,-23 4.7808,0 c 4.2782,0 4.898,0.28904 5.8963,2.75 0.6135,1.5125 3.6372,8.14945 6.7192,14.74878 l 5.6037,11.99878 0,-14.74878 0,-14.74878 4,0 4,0 0,23 0,23 -4.0705,0 -4.0705,0 -7.365,-15.25 -7.3649,-15.25 -0.065,15.25 -0.064,15.25 -4,0 -4,0 0,-23 z m 38,0 0,-23 14,0 14,0 0,4.5 0,4.5 -10,0 -10,0 0,4 0,4 9,0 9,0 0,4.5 0,4.5 -9,0 -9,0 0,5.5 0,5.5 10.5,0 10.5,0 0,4.5 0,4.5 -14.5,0 -14.5,0 0,-23 z m -256.5,-52.35623 c -7.2333,-3.34848 -10.794,-10.60256 -10.8693,-22.14377 -0.1047,-16.04336 5.9226,-24.3563 17.7331,-24.45808 7.2092,-0.0621 12.0356,3.03125 15.3733,9.85317 2.2933,4.68742 2.6876,6.76618 2.6656,14.05304 -0.031,10.32785 -2.3399,16.37672 -7.856,20.58405 -4.3813,3.3418 -12.2766,4.3198 -17.0467,2.11159 z m 11.8307,-9.68926 c 4.251,-3.34386 5.8297,-12.23546 3.5988,-20.26944 -1.3853,-4.98855 -4.1906,-7.68507 -7.9952,-7.68507 -4.4873,0 -6.4961,1.44752 -8.314,5.99106 C 1136.4082,347.51805 1140.833,361 1148.5,361 c 1.2267,0 3.4005,-0.92047 4.8307,-2.04549 z m 25.7541,9.29394 C 1172.8192,365.04071 1172,361.9207 1172,341.2656 l 0,-18.2656 3.9157,0 3.9157,0 0.3343,16.89724 c 0.2954,14.93086 0.556,17.14195 2.2393,19 2.3456,2.58915 6.7234,2.72333 8.94,0.27402 1.3747,-1.51896 1.655,-4.20813 1.655,-15.875 0,-7.72544 0.2813,-15.45251 0.625,-17.17126 0.571,-2.85484 0.96,-3.125 4.5,-3.125 l 3.875,0 0,18.11385 c 0,16.57402 -0.1793,18.43288 -2.1094,21.86693 -3.7027,6.58806 -13.4208,9.04851 -20.8058,5.26767 z m 138.6652,1.00398 -13.75,-0.30887 0,-22.97178 0,-22.97178 14,0 14,0 0,4.5 0,4.5 -10,0 -10,0 0,4 0,4 9,0 9,0 0,4.5 0,4.5 -9,0 -9,0 0,5.5 0,5.5 10,0 10,0 0,5 c 0,2.75 -0.1125,4.90129 -0.25,4.78065 -0.1375,-0.12064 -6.4375,-0.35833 -14,-0.52822 z m 113.4999,-0.0599 c -4.1201,-0.2981 -4.2843,-0.44334 -5.3687,-4.75 l -1.1186,-4.4425 -6.3852,0 -6.3851,0 -1.2035,4.5 -1.2036,4.5 -4.7612,0 c -3.3731,0 -4.6351,-0.36443 -4.3284,-1.25 0.9759,-2.81872 9.8849,-33.67203 11.2751,-39.04758 l 1.4994,-5.79757 5.0905,0.29757 5.0906,0.29758 6.2644,21.5 c 3.4454,11.825 6.1564,22.175 6.0244,23 -0.179,1.11883 -1.32,1.42186 -4.4901,1.1925 z m -9.2727,-18.9425 c -0.013,-0.4125 -0.8292,-3.9 -1.8147,-7.75 l -1.7918,-7 -1.6854,6.70552 c -2.2218,8.84019 -2.2312,8.79448 1.8147,8.79448 1.925,0 3.4897,-0.3375 3.4772,-0.75 z m 62.9207,17.4613 c -1.8689,-1.25879 -4.5226,-4.29629 -5.8972,-6.75 -2.2025,-3.93164 -2.4993,-5.65131 -2.5,-14.48472 -6e-4,-8.79054 0.314,-10.63553 2.558,-15 7.4386,-14.46752 27.1315,-11.70189 30.4293,4.27342 l 0.6709,3.25 -4.399,0 c -3.9996,0 -4.5288,-0.29424 -5.8294,-3.24129 -2.8277,-6.40724 -10.1764,-5.97506 -13.3853,0.78718 -1.9533,4.11638 -2.006,14.4154 -0.097,18.98399 2.7887,6.67432 10.2791,7.20726 13.2659,0.94387 1.5145,-3.17582 2.0282,-3.47375 5.9904,-3.47375 4.2214,0 4.3167,0.0713 3.6729,2.75 -1.2541,5.21776 -4.3254,10.05488 -7.7141,12.14923 -4.7428,2.93117 -12.2596,2.84691 -16.7652,-0.18793 z M 1098,346 l 0,-23 10.0497,0 c 6.842,0 10.9483,0.46471 12.8651,1.45595 7.5305,3.89418 8.1203,18.77519 1.0068,25.40243 -1.8829,1.75423 -3.5308,2.14162 -9.1102,2.14162 l -6.8114,0 0,8.5 0,8.5 -4,0 -4,0 0,-23 z m 18.4286,-3.57143 c 1.8764,-1.8764 2.0844,-7.79176 0.3214,-9.13859 -0.6875,-0.5252 -3.3875,-1.06429 -6,-1.19797 l -4.75,-0.24307 0,6.07553 0,6.07553 4.4286,0 c 2.6926,0 5.0445,-0.61598 6,-1.57143 z M 1209,346 l 0,-23 11.0497,0 c 8.0743,0 11.8653,0.42179 14.0787,1.56642 3.3349,1.72453 5.8716,6.66416 5.8716,11.43358 0,3.87283 -2.5146,10 -4.104,10 -0.723,0 -0.449,0.83642 0.684,2.08845 1.4153,1.56383 1.9838,4.01302 2.2632,9.75 0.2052,4.21385 0.7706,8.15295 1.2563,8.75356 1.3609,1.68281 -0.037,2.40799 -4.6412,2.40799 -3.9133,0 -4.2521,-0.21906 -4.8333,-3.125 -0.3437,-1.71875 -0.625,-5.06161 -0.625,-7.42857 0,-5.73294 -1.8573,-7.44643 -8.0714,-7.44643 l -4.9286,0 0,9 0,9 -4,0 -4,0 0,-23 z m 20.1713,-4.65499 c 2.0767,-1.87943 2.4219,-6.35177 0.6287,-8.14501 -0.66,-0.66 -3.81,-1.2 -7,-1.2 l -5.8,0 0,4.83333 c 0,2.65834 0.3,5.13334 0.6667,5.5 1.3742,1.37421 9.6827,0.66045 11.5046,-0.98832 z M 1260,346 l 0,-23 4.5,0 4.5,0 0,18.5 0,18.5 9,0 9,0 0,4.5 0,4.5 -13.5,0 -13.5,0 0,-23 z m 77,0 0,-23 4.777,0 4.777,0 6.473,14.14338 6.473,14.14339 0.2775,-14.14339 0.2774,-14.14338 3.9726,0 3.9725,0 0,23 0,23 -4.014,0 -4.0141,0 -6.9099,-14.25 -6.9099,-14.25 -0.076,14.25 -0.076,14.25 -4.5,0 -4.5,0 0,-23 z m 38,0 0,-23 13.5,0 13.5,0 0,4.5 0,4.5 -9.5,0 -9.5,0 0,4.5 0,4.5 8.5,0 8.5,0 0,4.5 0,4.5 -8.5,0 -8.5,0 0,9.5 0,9.5 -4,0 -4,0 0,-23 z m 65,-0.0548 0,-23.05479 4.5957,0.30479 4.5957,0.30479 6.6543,14.41308 6.6543,14.41309 0.2767,-14.66309 0.2768,-14.66308 3.9732,0 3.9733,0 0,23 0,23 -4.393,0 c -2.5659,0 -4.6128,-0.51989 -4.9215,-1.25 -0.2906,-0.6875 -3.4888,-7.54149 -7.107,-15.23109 L 1448,338.53782 l 0,15.23109 0,15.23109 -4,0 -4,0 0,-23.05479 z m 75,0.0548 0,-23 14,0 14,0 0,4.5 0,4.5 -10,0 -10,0 0,4 0,4 9,0 9,0 0,4.5 0,4.5 -9,0 -9,0 0,5.5 0,5.5 10,0 10,0 0,4.5 0,4.5 -14,0 -14,0 0,-23 z m -224,-14 0,-9 3,0 3,0 0,9 0,9 -3,0 -3,0 0,-9 z m -115.6037,-38.42937 c -3.8645,-1.68223 -7.0094,-5.99145 -7.9217,-10.85439 L 1166.7774,279 l 4.6113,0 c 3.8155,0 4.6113,0.3184 4.6113,1.84501 0,4.68929 8.9332,7.09625 12.345,3.32625 3.717,-4.10728 1.9172,-6.22875 -7.8419,-9.24301 -4.1417,-1.27923 -7.9591,-3.23041 -9.6725,-4.94384 -2.4982,-2.49816 -2.8306,-3.55801 -2.8306,-9.02513 0,-5.86238 0.2082,-6.40277 3.8824,-10.07693 3.629,-3.62901 4.2652,-3.88211 9.75,-3.87861 7.1605,0.005 11.8564,2.52858 13.9278,7.48604 2.4804,5.93654 1.9957,7.51116 -2.3102,7.5039 -3.1055,-0.005 -4.0392,-0.51463 -5.4329,-2.96411 -2.1381,-3.75782 -5.9749,-4.81145 -9.3848,-2.57719 -1.8606,1.21914 -2.4689,2.38321 -2.2427,4.29196 0.2767,2.33491 1.2327,2.91836 8.8099,5.37684 10.795,3.5025 13.0005,5.79784 13.0005,13.53029 0,3.45422 -0.6506,6.64138 -1.7282,8.46548 -3.4387,5.82127 -13.808,8.53023 -20.8755,5.45368 z m 290.0561,0.0236 c -3.6945,-1.60927 -6.5688,-5.7621 -7.4955,-10.8297 L 1457.2685,279 l 4.1158,0.0216 c 3.6523,0.0192 4.2846,0.38512 5.6157,3.25 1.306,2.81089 2.0591,3.26859 5.8239,3.53947 5.0991,0.36688 7.1761,-1.02596 7.1761,-4.81223 0,-2.96217 -0.5234,-3.278 -10.8114,-6.52438 -7.7839,-2.45621 -10.3453,-5.05022 -10.923,-11.06189 -0.971,-10.10552 4.53,-16.40169 14.3365,-16.40887 7.9962,-0.006 12.8812,4.03768 14.7949,12.24626 0.6232,2.67303 0.5207,2.75 -3.6587,2.75 -3.8593,0 -4.4158,-0.30737 -5.4322,-3 -1.0228,-2.70975 -1.5598,-3 -5.5503,-3 -3.6726,0 -4.6405,0.41595 -5.7376,2.46591 -1.8979,3.54633 -0.336,4.93098 9.1113,8.07721 8.8064,2.93282 11.5346,5.14963 12.4693,10.13208 1.3231,7.05227 -1.7324,13.79115 -7.6374,16.84478 -3.5202,1.82036 -11.4136,1.85815 -15.509,0.0743 z M 1098,271.09102 1098,248 l 10.9652,0 c 10.7949,0 11.0191,0.0473 14.4351,3.04663 5.0246,4.41163 6.997,11.10424 6.3463,21.5339 -0.5756,9.22588 -3.1211,15.16807 -8.0666,18.83089 -2.3444,1.73627 -4.5794,2.14611 -13.25,2.4296 l -10.43,0.34103 0,-23.09103 z m 20.3988,10.58565 c 1.766,-2.37297 2.1012,-4.24283 2.1012,-11.72222 0,-10.89734 -1.4095,-12.95108 -9.4166,-13.72045 l -5.0834,-0.48846 0,14.67949 0,14.67949 5.1488,-0.30226 c 4.3031,-0.25262 5.4938,-0.76597 7.25,-3.12559 z M 1135,271.02746 1135,248 l 14,0 14,0 0,4.5 0,4.5 -10,0 -10,0 0,4 0,4 9,0 9,0 0,4.5 0,4.5 -9,0 -9,0 0,5.5 0,5.5 10.5575,0 10.5575,0 -0.3075,4.25 -0.3075,4.25 -14.25,0.27746 -14.25,0.27745 0,-23.02745 z m 90.6667,22.30587 C 1225.3,292.96667 1225,284.64167 1225,274.83333 L 1225,257 l -5.5,0 -5.5,0 0,-4.5 0,-4.5 15.5,0 15.5,0 0,4.5 0,4.5 -5.5,0 -5.5,0 0,18.5 0,18.5 -3.8333,0 c -2.1084,0 -4.1334,-0.3 -4.5,-0.66667 z M 1248,271 l 0,-23 4.5,0 4.5,0 0,8.5 0,8.5 7,0 7,0 0,-8.5 0,-8.5 4,0 4,0 0,23 0,23 -4,0 -4,0 0,-10 0,-10 -7,0 -7,0 0,10 0,10 -4.5,0 -4.5,0 0,-23 z m 38,0 0,-23 14,0 14,0 0,4.5 0,4.5 -10,0 -10,0 0,4 0,4 9,0 9,0 0,4.5 0,4.5 -9,0 -9,0 0,5.5 0,5.5 10.5,0 10.5,0 0,4.5 0,4.5 -14.5,0 -14.5,0 0,-23 z m 31,22.53776 c 0,-0.49982 4.9332,-17.58296 11.2148,-38.83613 l 2.0094,-6.79837 4.9808,0.29837 4.9808,0.29837 6.381,22 c 3.5096,12.1 6.3928,22.36216 6.4072,22.80479 0.014,0.44264 -2.1115,0.66764 -4.724,0.5 -4.712,-0.30235 -4.7571,-0.3388 -5.6421,-4.55479 l -0.8921,-4.25 -6.7158,0 -6.7158,0 -0.8921,4.25 c -0.885,4.21599 -0.9301,4.25244 -5.6421,4.55479 -2.6125,0.16764 -4.75,0.0475 -4.75,-0.26703 z M 1338.6126,274.25 c -0.2872,-0.9625 -1.0459,-3.8875 -1.6861,-6.5 -0.6402,-2.6125 -1.5071,-4.75 -1.9265,-4.75 -0.4194,0 -1.2863,2.1375 -1.9265,4.75 -0.6402,2.6125 -1.3989,5.5375 -1.6861,6.5 -0.4382,1.4687 0.1425,1.75 3.6126,1.75 3.4701,0 4.0508,-0.2813 3.6126,-1.75 z m 26.3874,1.25 0,-18.5 -5.7572,0 -5.7572,0 0.3579,-4.5 0.3579,-4.5 15.4568,0 15.4568,0 -0.3075,4.25 -0.3075,4.25 -5.25,0.30226 -5.25,0.30226 0,18.44774 0,18.44774 -4.5,0 -4.5,0 0,-18.5 z m 23,-4.5 0,-23 12.1,0 12.1,0 3.4,3.4 c 3.0665,3.06654 3.4,3.95568 3.4,9.06574 0,5.46352 -1.1924,9.31343 -3.3119,10.69351 -0.6282,0.40906 -0.3817,1.29005 0.6497,2.32143 1.2297,1.2297 1.6622,3.4649 1.6622,8.59075 0,3.81071 0.3519,6.92857 0.7819,6.92857 0.43,0 0.877,1.14953 0.9933,2.55452 0.2026,2.44774 0.013,2.54179 -4.5319,2.25 L 1410.5,293.5 l -0.5474,-7.71411 c -0.3011,-4.24275 -0.8642,-8.03078 -1.2512,-8.41782 -0.387,-0.38704 -3.1782,-0.90892 -6.2026,-1.15972 l -5.4988,-0.45601 0,9.12383 0,9.12383 -4.5,0 -4.5,0 0,-23 z m 21.4433,-5.22251 C 1413.0158,260.67702 1410.0422,257 1402.345,257 l -5.345,0 0,5.5 0,5.5 5.4433,0 c 4.4913,0 5.7155,-0.38869 7,-2.22251 z M 1425,271 l 0,-23 13.8993,0 13.8993,0 0.3579,4.5 0.3579,4.5 -9.7572,0 -9.7572,0 0,3.96107 0,3.96106 8.75,0.28894 8.75,0.28893 0.3075,4.25 0.3075,4.25 -9.0575,0 -9.0575,0 0,5.5 0,5.5 10,0 10,0 0,4.5 0,4.5 -14.5,0 -14.5,0 0,-23 z m -127.9835,-26.75 c 0.01,-0.4125 1.0343,-2.54731 2.2784,-4.74401 2.1165,-3.73712 2.5175,-3.97304 6.2336,-3.66798 2.1843,0.17932 4.4215,0.77127 4.9715,1.31544 0.6667,0.65961 0.6667,0.88226 0,0.66798 -1.5125,-0.48615 -5.6729,4.08982 -4.882,5.36955 0.4044,0.65429 0.2408,0.83979 -0.3944,0.44722 -0.597,-0.36895 -1.3681,-0.21348 -1.7135,0.34549 -0.7196,1.16429 -6.5186,1.40211 -6.4936,0.26631 z M 1325,244.3939 c 0,-0.33335 1.3878,-2.35835 3.084,-4.5 2.6254,-3.31475 3.6557,-3.8939 6.9272,-3.8939 3.2208,0 4.3409,0.60375 6.916,3.72784 1.69,2.05032 3.0728,4.07532 3.0728,4.5 0,1.71315 -6.1082,0.66392 -8.1767,-1.40454 l -2.1767,-2.1767 -1.4453,2.1767 c -1.0097,1.52079 -2.4632,2.1767 -4.8233,2.1767 -1.8579,0 -3.378,-0.27274 -3.378,-0.6061 z m -216.9995,-25.51735 c -3.5731,-1.42478 -6.8758,-4.76291 -9.277,-9.37655 -4.013,-7.71037 -2.3226,-28.04373 2.7533,-33.1197 3.2007,-3.20069 7.8287,-4.53956 13.8845,-4.01676 7.9136,0.68319 8.6367,0.83072 8.1255,1.65777 -0.2338,0.37838 0.6867,1.73247 2.0455,3.00907 2.0701,1.9447 4.441,7.37482 4.4621,10.21962 0,0.4125 -1.9706,0.75 -4.386,0.75 -3.8367,0 -4.47,-0.31224 -5.0118,-2.47114 -0.7794,-3.10522 -3.752,-4.73932 -7.8928,-4.33877 -8.6962,0.84121 -10.5597,22.15168 -2.462,28.15537 2.6045,1.93099 2.9128,1.95122 6.1573,0.40406 2.4184,-1.15325 3.6117,-2.52216 4.0876,-4.68913 0.6262,-2.85094 0.9747,-3.06039 5.0928,-3.06039 2.4313,0 4.4205,0.36984 4.4205,0.82186 0,2.04633 -3.2644,9.89815 -4.9677,11.94861 -3.687,4.4386 -11.4839,6.3183 -17.0318,4.10608 z m 26.7854,-22.79659 -0.2859,-22.92004 4.25,-0.33717 4.25,-0.33716 0,8.7572 0,8.75721 7,0 7,0 0,-8.5 0,-8.5 4,0 4,0 0,22 c 0,12.1 0.1125,22.3375 0.25,22.75 0.1375,0.4125 -1.6625,0.88837 -4,1.0575 l -4.25,0.3075 0,-10.5575 0,-10.5575 -7,0 -7,0 0,10.5 0,10.5 -3.9641,0 -3.9642,0 -0.2858,-22.92004 z M 1169,218.21878 c 0,-0.42967 2.193,-8.19217 4.8733,-17.25 2.6803,-9.05783 5.6179,-19.05628 6.5279,-22.21878 l 1.6547,-5.75 4.9297,0 4.9297,0 1.9907,6.75 c 1.0949,3.7125 3.8675,13.275 6.1614,21.25 2.2938,7.975 4.6178,15.05718 5.1642,15.73817 1.3396,1.66926 -0.948,2.48422 -5.8342,2.07846 -3.6145,-0.30014 -3.8697,-0.55092 -4.903,-4.81663 l -1.0901,-4.5 -6.4187,0 -6.4187,0 -1.3416,4.75 -1.3415,4.75 -4.4419,0 c -2.4431,0 -4.4419,-0.35155 -4.4419,-0.78122 z m 21.1412,-17.69332 C 1190.7897,199.87697 1187.7599,187 1186.9588,187 c -0.3523,0 -1.2195,2.5875 -1.9272,5.75 -0.7076,3.1625 -1.5024,6.3125 -1.7661,7 -0.3263,0.85069 0.6195,1.25 2.9608,1.25 1.8922,0 3.6539,-0.21354 3.9149,-0.47454 z M 1209,196.06037 1209,173 l 5.8735,0 5.8735,0 2.6265,13.88593 c 1.4446,7.63727 2.6265,14.70227 2.6265,15.7 0,4.8562 1.9433,-1.3271 3.9555,-12.58593 1.2288,-6.875 2.4652,-13.5125 2.7477,-14.75 0.4613,-2.02062 1.1143,-2.25 6.4052,-2.25 l 5.8916,0 0,23 0,23 -4,0 -4,0 -0.1024,-15.25 -0.1023,-15.25 -2.2594,11.5 c -1.2426,6.325 -2.5716,13.21215 -2.9532,15.30478 -0.6852,3.75723 -0.7463,3.80097 -4.8883,3.5 L 1222.5,218.5 l -2.6412,-14.5 -2.6413,-14.5 -0.3587,14.5 -0.3588,14.5 -3.75,0.31037 -3.75,0.31036 0,-23.06036 z m 43,-0.0604 0,-23 11.3651,0 c 9.8804,0 11.7,0.26333 13.9276,2.01564 4.684,3.68443 6.0306,13.81134 2.2533,16.94621 -1.1796,0.97892 -1.0027,1.74598 1.118,4.85048 2.1116,3.09095 2.4501,4.5439 2.0919,8.97914 -0.826,10.22817 -5.3512,13.06146 -21.0059,13.15209 L 1252,219 l 0,-23 z m 20.8,12.8 c 1.4742,-1.47422 1.5538,-5.27047 0.1648,-7.86574 -0.8458,-1.58046 -2.1262,-1.93426 -7,-1.93426 l -5.9648,0 0,5.5 0,5.5 5.8,0 c 3.19,0 6.34,-0.54 7,-1.2 z m 0.013,-22.55064 c 0.263,-2.72797 -0.1092,-3.41134 -2.3151,-4.25 -1.4453,-0.54962 -4.3988,-0.99933 -6.563,-0.99933 l -3.9349,0 0,4.54772 0,4.54771 6.25,-0.29771 c 6.25,-0.29772 6.25,-0.29774 6.5634,-3.54836 z M 1289,196 l 0,-23 11.0497,0 c 12.2265,0 15.5609,1.03266 17.9857,5.57022 1.7446,3.2648 1.8547,12.65236 0.1721,14.67973 -0.6546,0.78874 -0.8566,1.76766 -0.4488,2.17539 0.4077,0.40773 0.2913,0.65054 -0.2587,0.53957 -2.2165,-0.44719 -2.4752,0.14334 -1.0293,2.35005 0.8343,1.27323 1.7292,4.31073 1.9888,6.75 0.2596,2.43927 0.7038,6.57254 0.9871,9.18504 l 0.5151,4.75 -4.4218,0 c -2.432,0 -4.6563,-0.37928 -4.9428,-0.84284 -0.2865,-0.46356 -0.6042,-3.87262 -0.7061,-7.57569 C 1309.6642,202.33875 1308.5517,201 1301.9286,201 l -4.9286,0 0,9 0,9 -4,0 -4,0 0,-23 z m 19.7775,-4.5567 c 2.4485,-1.715 3.0115,-6.25425 1.0225,-8.2433 -0.66,-0.66 -3.81,-1.2 -7,-1.2 l -5.8,0 0,4.83333 c 0,2.65834 0.3,5.13334 0.6667,5.5 1.2704,1.27046 8.8987,0.6594 11.1108,-0.89003 z m 17.0084,4.55586 -0.2859,-23.00085 14.25,8.5e-4 14.25,8.4e-4 0,4.5 0,4.5 -10.0604,0 -10.0603,0 0.3103,3.75 0.3104,3.75 8.75,0.28893 8.75,0.28894 0,4.46106 0,4.46107 -9,0 -9,0 0,5.5 0,5.5 10,0 10,0 0,4.5 0,4.5 -13.9641,0 -13.9642,0 -0.2858,-23.00084 z"
       id="path2993"
       inkscape:connector-curvature="0" />
    <path
       style="fill:#000000;fill-opacity:1"
       d="m 895.50959,624.88558 c -0.29731,-0.77476 -0.42109,-14.67847 -0.27507,-30.89712 L 895.5,564.5 l 14,-0.69448 c 36.03747,-1.78765 54.51869,-14.46246 63.14407,-43.30552 1.6769,-5.60749 1.829,-15.14219 2.3251,-145.75013 L 975.5,234.99975 924.25,234.99987 873,235 l 0,-31 0,-31 82.5247,0 82.5247,0 -0.3163,171.75 -0.3163,171.75 -2.2146,9 c -6.805,27.65441 -16.132,46.53992 -30.8188,62.40312 -16.35793,17.66803 -38.87811,29.66994 -65.94409,35.14424 -13.17534,2.66482 -42.13666,3.90492 -42.92972,1.83822 z M 284.61478,581.90233 c -29.80792,-3.14379 -64.6628,-15.54132 -89.2908,-31.75984 -50.13755,-33.0176 -82.20754,-84.11418 -90.90502,-144.83744 -2.05887,-14.37444 -2.03398,-40.65105 0.0519,-54.80505 6.92219,-46.97117 28.62872,-89.58716 61.52913,-120.79888 35.35418,-33.53955 81.28057,-52.06986 139.25,-56.1844 l 8.75,-0.62105 0,30.55216 0,30.55217 -8.75,0.006 c -23.70669,0.016 -49.61668,7.30312 -70.79862,19.91201 -47.26732,28.13665 -73.19629,75.37284 -71.13041,129.58209 0.88571,23.24123 5.24273,40.48938 15.15678,60.00118 8.84531,17.40843 20.17975,31.74516 34.94933,44.20683 20.28934,17.11888 40.33205,26.86644 66.57292,32.37701 13.64803,2.86609 37.79117,3.12102 52,0.5491 35.64368,-6.45184 70.81283,-28.39414 90.37256,-56.38412 3.17086,-4.5375 6.19845,-8.25 6.72798,-8.25 1.05907,0 48.54926,31.62435 49.28998,32.82285 0.59436,0.96169 -10.42396,16.38774 -18.5644,25.99084 -24.74835,29.19508 -63.6634,52.66801 -103.0935,62.18434 -22.93703,5.53578 -49.19788,7.32162 -72.11784,4.9043 z m 219.05189,0.431 C 503.3,581.96667 503,503.66667 503,408.33333 L 503,235 l -60.5,0 -60.5,0 0,-31 0,-31 91.5,0 91.5,0 0,205 0,205 -30.33333,0 c -16.68334,0 -30.63334,-0.3 -31,-0.66667 z M 612,378 l 0,-205 107.5,0 107.5,0 0,31 0,31 -76.5,0 -76.5,0 0,55.5 0,55.5 73.5,0 73.5,0 0,31.5 0,31.5 -73.5,0 -73.5,0 0,56 0,56 76.5,0 76.5,0 0,31 0,31 -107.5,0 -107.5,0 0,-205 z m 654.3743,66.35255 c -3.724,-0.80425 -6.3727,-4.69837 -7.372,-10.83835 -0.5191,-3.18981 -0.7055,-6.18543 -0.4141,-6.65693 0.2914,-0.4715 2.0783,-0.85727 3.9708,-0.85727 3.0838,0 3.4424,0.28544 3.4547,2.75 0.023,4.54624 1.0891,7.14786 3.2058,7.81966 4.2871,1.36067 4.8943,-1.04372 5.0938,-20.16868 L 1274.5,398.5 l 4,0 4,0 0.3063,14.5 c 0.406,19.22484 -0.2623,24.38034 -3.6377,28.05909 -2.699,2.9417 -8.0478,4.31855 -12.7943,3.29346 z m 67.2683,-0.32947 c -1.5716,-0.49917 -3.7713,-1.72107 -4.8881,-2.71533 C 1324.6836,437.68353 1324,433.97754 1324,415.53212 L 1324,398 l 4,0 4,0 0,16.56574 c 0,9.76448 0.4355,17.37953 1.0608,18.54787 1.4343,2.68008 5.3498,4.06098 8.3165,2.93305 3.7044,-1.40843 4.6227,-5.92875 4.6227,-22.75625 l 0,-15.41114 3.75,0.31036 3.75,0.31037 0,18 c 0,19.44656 -0.7147,22.62891 -5.8358,25.98435 -2.9125,1.90839 -10.304,2.71952 -14.0216,1.53873 z m 106,0.001 c -4.081,-1.29828 -6.3337,-3.64889 -8.2132,-8.57015 -1.9309,-5.05604 -1.3668,-6.45438 2.6039,-6.45438 2.2214,0 3.281,0.70706 4.4514,2.97036 0.8448,1.63369 2.4018,3.43369 3.4599,4 4.6347,2.48042 11.0554,-0.1354 11.0554,-4.50401 0,-2.98033 -2.6194,-4.72724 -10.3978,-6.93454 -8.3793,-2.37779 -11.6022,-5.85135 -11.6022,-12.50455 0,-9.65183 4.6565,-14.44246 14.0694,-14.4748 8.1971,-0.0281 12.3024,3.32787 14.3093,11.69754 0.6348,2.6473 0.5118,2.75 -3.2923,2.75 -3.0907,0 -4.0918,-0.44154 -4.5949,-2.02664 -1.6767,-5.28282 -10.4669,-6.31616 -12.6663,-1.489 -1.6895,3.70801 0.2631,5.58279 8.5289,8.18885 10.1663,3.20526 12.7811,5.53684 13.3297,11.88563 0.4932,5.70832 -1.6089,10.64482 -5.8593,13.75971 -3.0239,2.21601 -10.8237,3.09247 -15.1819,1.70598 z m 34.8991,0.24603 c -5.2534,-1.33445 -8.9923,-5.87713 -9.6877,-11.77056 -0.3327,-2.81929 -0.1281,-3.0187 3.396,-3.31037 2.9053,-0.24045 3.75,0.0513 3.75,1.29546 0,2.6147 4.6289,6.51491 7.732,6.51491 6.3664,0 9.7765,-6.3704 5.018,-9.37423 -1.2375,-0.78118 -4.904,-2.17346 -8.1478,-3.09396 -8.129,-2.30676 -11.6022,-5.89749 -11.6022,-11.99472 0,-5.65588 2.8746,-11.59758 6.5649,-13.56961 1.5104,-0.80711 5.0931,-1.44478 7.9616,-1.41703 7.7834,0.0753 12.4095,3.78803 13.9548,11.19955 0.6744,3.23481 0.6591,3.25 -3.2934,3.25 -3.3454,0 -4.0649,-0.37399 -4.5668,-2.37341 -0.3541,-1.41105 -1.8729,-2.90246 -3.7456,-3.67816 -4.3827,-1.81535 -8.2484,0.31307 -8.6851,4.78189 -0.3085,3.1569 -0.28,3.17712 8.1601,5.80862 10.4657,3.26303 12.8276,5.50123 13.4057,12.70337 0.3458,4.30948 0,5.8889 -1.9371,8.75769 -3.8563,5.72154 -10.9108,8.14178 -18.2774,6.27056 z M 1098,420.99298 l 0,-23.04942 13.75,0.27822 13.75,0.27822 0,4 0,4 -9.75,0.28621 -9.75,0.28621 0,4.46379 0,4.46379 9,0 9,0 0,4 0,4 -9,0 -9,0 0,5.5 0,5.5 10,0 10,0 0,4.41831 0,4.41831 -14,0.10289 -14,0.10289 0,-23.04942 z m 42.6667,22.34035 C 1140.3,442.96667 1140,434.64167 1140,424.83333 L 1140,407 l -5.5,0 -5.5,0 0,-4.5 0,-4.5 15.0575,0 15.0575,0 -0.3075,4.25 -0.3075,4.25 -5.25,0.30226 -5.25,0.30226 0,18.44774 0,18.44774 -3.3333,0 c -1.8334,0 -3.6334,-0.3 -4,-0.66667 z M 1178,420.94735 1178,398 l 4,0 4,0 0,18.5 0,18.5 9,0 9,0 0,4.42386 0,4.42385 -13,0.0235 -13,0.0235 0,-22.94734 z m 29.7165,22.30265 c -0.2208,-0.4125 2.5336,-10.78385 6.121,-23.04744 l 6.5225,-22.29744 4.5694,0.29744 4.5695,0.29744 6.1726,21 c 3.3949,11.55 6.2077,21.71373 6.2506,22.58607 0.057,1.17067 -0.9624,1.62683 -3.8943,1.74171 -3.9148,0.15339 -3.992,0.0872 -5.3512,-4.58607 l -1.379,-4.74171 -6.5983,-0.29454 -6.5982,-0.29454 -1.1541,4.29454 c -0.6347,2.362 -1.6699,4.62515 -2.3005,5.02923 -1.5042,0.96388 -6.4163,0.97474 -6.93,0.0153 z m 20.9302,-19 c -0.2684,-0.9625 -0.7219,-2.65 -1.0078,-3.75 -0.2859,-1.1 -1.0625,-4.025 -1.7256,-6.5 l -1.2058,-4.5 -1.8309,7 c -2.5032,9.5702 -2.5194,9.5 2.1908,9.5 3.3929,0 3.9865,-0.29018 3.5793,-1.75 z M 1290,420.91831 1290,398 l 13.5575,0 13.5575,0 -0.3075,4.25 c -0.1794,2.47961 -0.8282,4.30207 -1.5575,4.375 -0.6875,0.0688 -4.85,0.18125 -9.25,0.25 l -8,0.125 0,4.5 0,4.5 9,0 9,0 0,4 0,4 -9,0 -9,0 0,5.5 0,5.5 10,0 10,0 0,4.5212 0,4.5212 -14,-0.10289 -14,-0.10289 0,-22.91831 z m 71,0.0817 0,-23 3.8603,0 3.8603,0 6.8897,14.56266 6.8897,14.56266 0.5,-14.31266 0.5,-14.31266 3.75,-0.31037 3.75,-0.31036 0,23.11786 0,23.11787 -4.0883,-0.3075 -4.0884,-0.3075 -7.1616,-15.3789 -7.1617,-15.3789 -0.2754,15.6289 -0.2754,15.6289 -3.4746,0 -3.4746,0 0,-23 z m 37,0 0,-23 13.5,0 13.5,0 0,4.5 0,4.5 -9.5,0 -9.5,0 0,4.5 0,4.5 9,0 9,0 0,4 0,4 -9,0 -9,0 0,5.5 0,5.5 10,0 10,0 0,4.5 0,4.5 -14,0 -14,0 0,-23 z m 102.4481,21.72527 c -0.2691,-0.7011 -0.3674,-10.9386 -0.2186,-22.75 L 1500.5,398.5 l 13.75,-0.32794 13.75,-0.32794 0,4.57794 0,4.57794 -10,0 -10,0 0,4.5 0,4.5 9,0 9,0 0,4 0,4 -9,0 -9,0 0,5.46502 0,5.46501 10.25,0.28499 10.25,0.28498 0.3075,4.25 0.3075,4.25 -14.0889,0 c -10.4944,0 -14.2137,-0.32522 -14.578,-1.27473 z m -355.969,-73.65708 c -8.253,-1.97214 -12.6097,-8.61006 -13.2828,-20.23775 -0.7688,-13.28102 2.3555,-21.03068 10.0643,-24.96336 3.0747,-1.56864 5.3098,-1.97064 8.9902,-1.617 9.6122,0.92361 14.865,8.08871 15.5486,21.20896 0.2304,4.42253 -0.099,9.95937 -0.7323,12.30409 -1.133,4.19566 -5.7942,10.51691 -8.9542,12.14346 -2.6399,1.3588 -8.4013,1.93405 -11.6338,1.1616 z m 10.0462,-10.68997 c 2.938,-3.17019 3.8527,-7.47521 3.2776,-15.4259 -0.4861,-6.72117 -2.8517,-10.80191 -7.0783,-12.2108 -3.6988,-1.23292 -7.8128,0.93677 -9.973,5.25963 -1.9358,3.87377 -2.3808,14.21379 -0.7915,18.39382 2.6127,6.87192 10.0125,8.89562 14.5652,3.98325 z m 26.7609,10.56179 c -1.7675,-0.53813 -4.4675,-2.62096 -6,-4.62851 l -2.7862,-3.65011 -0.3279,-18.83069 -0.3279,-18.8307 4.0779,0 4.0779,0 0,15.95295 c 0,17.15971 0.7625,20.69835 4.6714,21.67943 3.6325,0.91169 6.8757,-0.3429 8.1572,-3.15546 0.7388,-1.62161 1.1714,-8.46205 1.1714,-18.52397 L 1194,323 l 4,0 4,0 0,17.28811 c 0,15.9397 -0.1755,17.63612 -2.25,21.75 -3.2514,6.44777 -10.7493,9.25052 -18.4638,6.9019 z m 305.7849,-0.63546 c -5.8914,-3.10049 -8.8783,-7.88634 -10.1777,-16.30744 -1.8887,-12.24054 1.1094,-21.98415 8.4326,-27.40516 3.8344,-2.83845 12.5437,-2.82637 16.3597,0.0227 3.9867,2.97653 6.2936,6.4832 6.9579,10.57644 0.5884,3.62599 0.5746,3.6428 -2.7761,3.36895 -4.7919,-0.39164 -4.8675,-0.4207 -4.8675,-1.87147 0,-2.60363 -4.0044,-5.68856 -7.384,-5.68856 -5.5945,0 -8.8382,5.32319 -8.8382,14.50411 0,10.48848 2.8514,15.49589 8.8239,15.49589 3.3231,0 7.3983,-3.65468 7.3983,-6.63486 0,-0.926 1.2867,-1.36514 4,-1.36514 3.1753,0 4,0.36865 4,1.78811 0,2.91354 -4.2953,10.44582 -7.1358,12.51331 -3.7933,2.76105 -10.5785,3.22116 -14.7931,1.00313 z m -277.357,0.0762 C 1209.3213,367.98799 1209,357.61667 1209,345.33333 L 1209,323 l 10.0321,0 c 11.2887,0 15.8421,1.35215 18.5691,5.51418 2.6525,4.04813 2.4395,11.58271 -0.4374,15.47622 -2.1525,2.91313 -2.2106,3.30039 -0.7397,4.92573 0.9596,1.06031 1.796,4.32113 2.0966,8.17395 0.2752,3.52546 0.7624,7.67534 1.0829,9.22197 0.5747,2.77388 0.5236,2.80781 -3.7605,2.5 L 1231.5,368.5 l -0.8486,-8 c -0.4667,-4.4 -1.3667,-8.33061 -2,-8.73469 -0.6333,-0.40408 -3.4964,-0.74158 -6.3625,-0.75 l -5.211,-0.0153 -0.289,8.75 -0.2889,8.75 -3.0359,0.29739 c -1.6698,0.16357 -3.3573,-0.0239 -3.75,-0.41666 z m 20.8085,-27.77484 c 1.8794,-2.86833 1.0891,-7.20813 -1.5719,-8.63227 -1.0006,-0.53549 -4.0988,-0.97362 -6.885,-0.97362 l -5.0657,0 0,6 0,6 5.9769,0 c 5.2015,0 6.1805,-0.31064 7.5457,-2.39411 z m 30.7074,27.57968 c -0.9768,-0.63712 -1.2077,-5.89027 -1,-22.75695 l 0.27,-21.92862 4,0 4,0 -0.3776,18.25 -0.3776,18.25 9.6851,0 9.6851,0 -0.3075,4.25 -0.3075,4.25 -12,0.25695 c -6.6,0.14132 -12.5715,-0.1158 -13.27,-0.57138 z M 1304,346 l 0,-23 13.5,0 13.5,0 0,4.5 0,4.5 -9.5,0 -9.5,0 0,4.5 0,4.5 9,0 9,0 0,4 0,4 -9,0 -9,0 0,5.5 0,5.5 10,0 10,0 0,4.5 0,4.5 -14,0 -14,0 0,-23 z m 34.7126,22.37924 C 1338.3207,367.98733 1338,357.59079 1338,345.27584 l 0,-22.39084 4.1755,0.3075 4.1756,0.3075 6.5418,14.20726 c 4.0109,8.71054 6.8388,13.74018 7.3092,13 0.422,-0.66399 0.7742,-7.16976 0.7826,-14.45726 L 1361,323 l 3.5,0 3.5,0 0,23 0,23 -3.8378,0 -3.8379,0 -7.4121,-15.69552 -7.4122,-15.69551 -0.5,15.44551 -0.5,15.44552 -2.5374,0.29591 c -1.3956,0.16275 -2.8581,-0.0247 -3.25,-0.41667 z M 1375,346.03832 l 0,-23.09637 13.25,0.27902 13.25,0.27903 0,4 0,4 -9.25,0.28753 -9.25,0.28752 0,4.46248 0,4.46247 8,0 8,0 0,4.5 0,4.5 -7.9625,0 -7.9624,0 -0.2876,9.20421 -0.2875,9.20421 -3.75,0.36314 -3.75,0.36313 0,-23.09637 z m 26.5891,22.10584 c -0.2909,-0.47071 2.3245,-10.70821 5.812,-22.75 l 6.3409,-21.89416 4.5711,-0.30242 4.571,-0.30243 1.9944,6.80243 c 1.097,3.74133 3.8472,13.32742 6.1117,21.30242 2.2644,7.975 4.3571,15.31529 4.6505,16.31175 0.4655,1.58167 -0.014,1.77216 -3.7756,1.5 -4.2173,-0.30512 -4.3375,-0.41364 -5.6575,-5.10583 l -1.3487,-4.79408 -6.6194,0.29408 -6.6193,0.29408 -0.9003,3.5 c -0.4951,1.925 -1.3647,4.0625 -1.9325,4.75 -1.1674,1.41355 -6.3915,1.69961 -7.1983,0.39416 z m 20.407,-18.89416 c 0,-0.9625 -0.8209,-4.64062 -1.8195,-8.1736 l -1.8156,-6.42361 -1.748,6.42361 c -0.9614,3.53298 -1.9729,7.2111 -2.2479,8.1736 -0.4175,1.46177 0.17,1.75 3.5675,1.75 3.2085,0 4.0666,-0.36953 4.0635,-1.75 z m 18.4765,18.53914 c -0.2825,-0.73622 -0.3919,-11.00247 -0.2431,-22.81387 L 1440.5,323.5 l 3.6897,-0.30677 c 4.4584,-0.37068 4.3942,-0.45921 12.44,17.16725 l 5.8703,12.86048 0.5,-14.86048 0.5,-14.86048 3.5,0 3.5,0 0,22.5 0,22.5 -3.7941,0.31299 -3.7941,0.313 -7.2059,-15.20348 -7.2059,-15.20347 -0.5,14.89048 -0.5,14.89048 -3.2569,0.31387 c -2.0394,0.19655 -3.4489,-0.18649 -3.7705,-1.02473 z M 1515,346 l 0,-23 13.5,0 13.5,0 0,4.5 0,4.5 -9.5,0 -9.5,0 0,4.5 0,4.5 9,0 9,0 0,4 0,4 -9.0499,0 -9.0499,0 0.2999,5.59597 0.2999,5.59597 9.75,-0.021 9.75,-0.021 0,4.42505 0,4.42505 -14,0 -14,0 0,-23 z m -417,-0.58848 0,-22.58847 10.9222,0.33847 c 9.812,0.30408 11.1742,0.57554 13.402,2.67072 5.7874,5.44304 5.5097,18.60536 -0.4992,23.66154 -2.5025,2.10571 -4.0049,2.50622 -9.4017,2.50622 l -6.4233,0 0,8 0,8 -4,0 -4,0 0,-22.58848 z m 19.0776,-3.00497 c 0.7273,-0.8764 1.3224,-3.17912 1.3224,-5.11717 0,-4.45066 -2.3655,-6.28938 -8.0911,-6.28938 l -4.3089,0 0,6.5 0,6.5 4.8776,0 c 3.2427,0 5.3207,-0.53406 6.2,-1.59345 z m 174.371,-2.68 c -0.2984,-0.77754 -0.4089,-4.74661 -0.2456,-8.82013 0.2919,-7.27934 0.3449,-7.41192 3.087,-7.7267 l 2.7899,-0.32028 -0.2899,8.82028 c -0.2725,8.28886 -0.4258,8.83957 -2.5445,9.14042 -1.2661,0.17978 -2.4923,-0.29965 -2.7969,-1.09359 z M 1178.5,294.10006 c -6.2156,-1.56672 -9.9591,-5.64369 -10.6513,-11.60006 -0.3276,-2.81818 -0.1214,-3.01881 3.4013,-3.31037 2.7514,-0.22772 3.75,0.0756 3.75,1.13922 0,3.25678 3.5494,5.97884 7.7959,5.97884 5.2729,0 7.3945,-1.73311 7.0052,-5.72252 -0.2736,-2.8034 -0.8491,-3.26949 -6.3011,-5.10333 -13.3594,-4.49358 -15.5016,-6.45386 -15.4984,-14.18218 0,-9.09842 6.3253,-14.71871 15.7705,-14.02093 6.2266,0.46 10.6408,3.94858 12.2287,9.66442 1.4022,5.04752 1.397,5.05685 -2.7816,5.05685 -3.2697,0 -3.9315,-0.39942 -4.8961,-2.95487 -2.1571,-5.71479 -11.5509,-5.28237 -12.1242,0.5581 -0.3711,3.78115 0.4737,4.42483 9.4957,7.23526 9.7963,3.05161 12.6996,6.39484 12.0766,13.90678 -0.48,5.78843 -2.9058,10.00448 -6.8611,11.92484 -3.4535,1.67671 -8.9285,2.30756 -12.4101,1.42995 z m 289.1193,-0.13448 c -3.924,-1.1749 -7.3355,-4.57553 -8.6814,-8.65387 -1.5106,-4.57695 -0.6966,-6.19952 3.0564,-6.09281 2.5223,0.0717 3.3626,0.69951 4.4637,3.3349 1.6238,3.88622 6.0473,5.30796 10.6208,3.41357 3.3151,-1.37315 4.807,-5.19514 2.9169,-7.47255 -0.6752,-0.81356 -4.3468,-2.40813 -8.1591,-3.54348 -3.9489,-1.17603 -8.2963,-3.2838 -10.1034,-4.89843 -2.8856,-2.57824 -3.1646,-3.34766 -3.0898,-8.52131 0.1262,-8.731 5.8586,-14.52628 14.3722,-14.53005 6.987,-0.003 13.9844,6.36812 13.9844,12.73285 0,1.91576 -0.532,2.2656 -3.4454,2.2656 -2.7654,0 -3.7034,-0.53823 -4.7524,-2.72674 -2.7886,-5.81824 -11.9014,-5.13831 -12.6121,0.94102 -0.3652,3.12402 0.875,3.94429 10.4221,6.89309 10.0006,3.08887 12.2117,6.05994 11.4433,15.37658 -0.7566,9.17427 -10.2774,14.5233 -20.4362,11.48163 z m -238.8693,-0.68976 -2.75,-0.40866 0,-17.88368 0,-17.88367 -5.75,-0.29991 -5.75,-0.2999 0,-4 0,-4 15.3088,-0.27636 15.3088,-0.27637 -0.3088,4.27637 -0.3088,4.27636 -5,0 -5,0 -0.5,18.4181 c -0.3013,11.09902 -0.8974,18.48731 -1.5,18.59225 -0.55,0.0958 -2.2375,-0.01 -3.75,-0.23453 z M 1249,271.06037 1249,248 l 4,0 4,0 0,8.5 0,8.5 7,0 7,0 0,-8.5 0,-8.5 4.0188,0 4.0187,0 -0.2687,22.75 -0.2688,22.75 -3.75,0.31037 -3.75,0.31036 0,-10.56036 0,-10.56037 -6.965,0 -6.965,0 -0.285,10.25 -0.285,10.25 -3.75,0.31037 -3.75,0.31036 0,-23.06036 z m 37,-0.0886 0,-23.02822 13.75,0.27822 13.75,0.27822 0,4 0,4 -9.7514,0 -9.7514,0 0,4.75 0,4.75 9,0 9,0 0,4 0,4 -9,0 -9,0 0,5.5 0,5.5 10,0 10,0 0,4.5 0,4.5 -14,0 -14,0 0,-23.02822 z m 32.0322,21.33859 c 0.018,-0.99571 2.8308,-11.26037 6.2514,-22.81037 l 6.2193,-21 4.587,-0.29819 4.587,-0.2982 6.1616,21.51361 c 3.3888,11.83248 6.1615,22.11619 6.1615,22.85269 0,0.85045 -1.4226,1.42302 -3.8987,1.56912 -3.8947,0.2298 -3.9001,0.22482 -5.1891,-4.8045 L 1341.6219,284 l -6.6346,0 -6.6347,0 -1.4263,4.75 c -1.3414,4.4671 -1.6496,4.76848 -5.1763,5.06037 -3.0757,0.25455 -3.7442,-0.0152 -3.7178,-1.5 z M 1338.6386,273.75 c -0.3271,-1.2375 -1.1262,-4.6125 -1.7758,-7.5 -0.6496,-2.8875 -1.4598,-5.25 -1.8004,-5.25 -0.5532,0 -4.0917,12.38657 -4.0708,14.25 0,0.4125 1.8609,0.75 4.125,0.75 3.7787,0 4.0678,-0.18474 3.522,-2.25 z m 27.0281,19.58333 c -0.3667,-0.36666 -0.6664,-8.80416 -0.666,-18.75 l 6e-4,-18.08333 -5.2506,0 -5.2507,0 -0.3075,-4.25 -0.3075,-4.25 15.0575,0 15.0575,0 0,4.5 0,4.5 -5.5,0 -5.5,0 0,18.5 0,18.5 -3.3333,0 c -1.8334,0 -3.6334,-0.3 -4,-0.66667 z m 23,0 c -0.8499,-0.84989 -0.8754,-34.53175 -0.031,-40.69376 l 0.6359,-4.63957 9.8962,0 c 11.5117,0 15.9705,1.4333 18.2656,5.87156 2.8065,5.42724 1.0206,17.12844 -2.6143,17.12844 -0.6211,0 -0.2788,0.9398 0.7607,2.08845 1.4153,1.56383 1.9838,4.01302 2.2632,9.75 0.2052,4.21385 0.7706,8.15295 1.2563,8.75356 1.3238,1.63684 -0.01,2.40799 -4.1592,2.40799 C 1410.544,294 1410,293.04775 1410,285.35247 1410,277.07405 1409.0772,276 1401.9648,276 l -5.9648,0 0,9 0,9 -3.3333,0 c -1.8334,0 -3.6334,-0.3 -4,-0.66667 z m 20.7619,-26.90476 c 2.0481,-2.04808 2.0068,-6.28993 -0.084,-8.59983 -1.2437,-1.37431 -3.1074,-1.82874 -7.5,-1.82874 l -5.845,0 0,6 0,6 5.9286,0 c 4.0562,0 6.4248,-0.49627 7.5,-1.57143 z m 16.265,26.93172 c -0.8731,-0.87308 -0.9123,-30.97415 -0.051,-39.2136 L 1426.285,248 l 13.4151,0 13.415,0 -0.3075,4.25 -0.3075,4.25 -9.5,0.5 -9.5,0.5 0,4 0,4 8.75,0.28893 8.75,0.28894 0,3.96106 0,3.96107 -9,0 -9,0 0,5.5 0,5.5 10.5575,0 10.5575,0 -0.3075,4.25 -0.3075,4.25 -13.5564,0.27696 c -7.456,0.15233 -13.8685,-0.0352 -14.25,-0.41667 z M 1098,270.5 l 0,-22.5 9.75,0.002 c 12.3998,0.002 15.7388,1.47607 19.25,8.49845 2.0994,4.19884 2.4929,6.3731 2.4557,13.5695 -0.037,7.19371 -0.4716,9.44262 -2.7051,14.00786 C 1122.9659,291.813 1120.4842,293 1108.0957,293 l -10.0957,0 0,-22.5 z m 18.9857,13.50768 c 2.5997,-1.39134 4.3631,-7.42478 4.2795,-14.64204 -0.1139,-9.83475 -2.8328,-13.2824 -10.5152,-13.33384 L 1106,256 l 0,14.5 0,14.5 4.5657,0 c 2.5112,0 5.4002,-0.44655 6.42,-0.99232 z m 18.0143,-13.5359 0,-22.52822 13.75,0.27822 13.75,0.27822 0.3104,3.75 0.3103,3.75 -10.0603,0 -10.0604,0 0,4.5 0,4.5 9,0 9,0 0,4.5 0,4.5 -9,0 -9,0 0,5.5 0,5.5 10,0 10,0 0,4 0,4 -14,0 -14,0 0,-22.52822 z m 164.3331,-30.46353 c 2.0252,-3.7308 2.458,-3.99229 6.6198,-4 l 4.453,-0.008 -3.9059,4 c -2.6605,2.72464 -4.7712,4 -6.6199,4 l -2.7139,0 2.1669,-3.99175 z M 1326,243.44657 c 0,-0.30438 1.2375,-2.10437 2.75,-3.99997 2.193,-2.74843 3.4589,-3.44654 6.25,-3.44654 2.7911,0 4.057,0.69811 6.25,3.44654 1.5125,1.8956 2.75,3.69559 2.75,3.99997 0,1.26795 -5.4838,0.42561 -7.1713,-1.10156 -1.7016,-1.53998 -1.9558,-1.53998 -3.6574,0 -1.6875,1.52717 -7.1713,2.36951 -7.1713,1.10156 z m -217.5,-24.93128 c -7.724,-2.74216 -11.6765,-10.35546 -11.6765,-22.49127 0,-8.70063 1.5777,-14.27243 5.214,-18.41392 3.8691,-4.40668 7.8947,-5.99056 13.5933,-5.34825 7.1209,0.80263 11.3089,4.88368 13.8417,13.48815 0.6175,2.098 0.3584,2.25 -3.8356,2.25 -3.8364,0 -4.5448,-0.3161 -4.8173,-2.14967 -0.1758,-1.18232 -1.5105,-3.03537 -2.966,-4.11788 -3.2924,-2.44867 -7.2421,-1.43205 -10.2884,2.64811 -2.913,3.90158 -3.4239,16.65222 -0.866,21.60872 3.4358,6.65736 10.9911,6.38954 13.8662,-0.49152 1.0956,-2.6222 2.0634,-3.49776 3.8662,-3.49776 5.0397,0 5.5777,0.72214 3.958,5.31287 -2.0153,5.71212 -3.9282,8.40014 -7.149,10.04588 -4.496,2.29735 -8.5027,2.66106 -12.7406,1.15654 z m 220.75,-0.23869 -3.25,-0.40332 0,-22.43664 0,-22.43664 13.5,0 13.5,0 0,4.5 0,4.5 -9.5,0 -9.5,0 0,3.96107 0,3.96106 8.75,0.28894 8.75,0.28893 0.3075,4.25 0.3075,4.25 -9.0575,0 -9.0575,0 0,5.5 0,5.5 10,0 10,0 0,4.5 0,4.5 -10.75,-0.16004 c -5.9125,-0.088 -12.2125,-0.34153 -14,-0.56336 z M 1135,195.5 l 0,-22.5 4,0 4,0 0,8.5 0,8.5 7,0 7,0 0,-8.5 0,-8.5 4,0 4,0 0,22.5 0,22.5 -4,0 -4,0 0,-10 0,-10 -7,0 -7,0 0,10 0,10 -4,0 -4,0 0,-22.5 z m 38.6193,7.75 c 2.4144,-8.1125 5.3583,-18.2375 6.5421,-22.5 l 2.1524,-7.75 4.6277,0 4.6278,0 6.2514,21.75 c 3.4383,11.9625 6.2352,22.0875 6.2154,22.5 -0.02,0.4125 -1.8378,0.75 -4.0399,0.75 -3.9004,0 -4.035,-0.11635 -5.2074,-4.5 l -1.2036,-4.5 -6.6739,0 -6.6739,0 -1.1331,4.5 c -1.1266,4.47413 -1.1582,4.5 -5.5039,4.5 l -4.3708,0 4.3897,-14.75 z m 17.0193,-4.5 c -0.3271,-1.2375 -1.1262,-4.6125 -1.7758,-7.5 -0.6496,-2.8875 -1.4653,-5.25 -1.8128,-5.25 -0.6201,0 -4.05,11.78381 -4.05,13.91413 0,0.60531 1.8219,1.08587 4.1166,1.08587 3.7787,0 4.0678,-0.18474 3.522,-2.25 z m 18.3614,-3.2999 0,-22.54991 5.7454,0.29991 5.7455,0.2999 2.9348,15.75 c 1.6142,8.6625 3.235,15.75 3.6018,15.75 0.3668,0 1.9294,-7.2 3.4725,-16 l 2.8056,-16 5.8472,0 5.8472,0 0,22.5 0,22.5 -3.9882,0 c -3.1875,0 -3.9588,-0.35135 -3.8416,-1.75 0.081,-0.9625 0.03,-8.05 -0.1122,-15.75 -0.2819,-15.24606 -0.3659,-15.13729 -4.054,5.25 l -2.216,12.25 -3.8266,0 c -4.5107,0 -3.9812,1.27514 -7.466,-17.97922 -1.4413,-7.96357 -2.8174,-14.67607 -3.058,-14.91667 -0.2405,-0.24059 -0.4374,7.06256 -0.4374,16.22922 l 0,16.66667 -3.5,0 -3.5,0 0,-22.5499 z m 43,0.0499 0,-22.5 9.8508,0 c 5.4179,0 11.2816,0.49879 13.0304,1.10842 5.7508,2.00475 8.4055,11.75263 4.7289,17.36393 -1.5807,2.41242 -1.5534,2.68538 0.5545,5.53646 4.2411,5.7364 2.0032,17.2268 -3.8769,19.90598 -1.31,0.59686 -7.3106,1.08521 -13.3348,1.08521 l -10.9529,0 0,-22.5 z m 21.6675,11.88477 c 1.5355,-2.34356 1.5604,-2.88893 0.2393,-5.25 -1.3106,-2.3424 -2.164,-2.66781 -7.6905,-2.93249 l -6.2163,-0.29771 0,5.54771 0,5.54772 5.9769,0 c 5.3422,0 6.159,-0.27776 7.6906,-2.61523 z m -1.6275,-18.21605 c 1.7108,-1.38535 2.1057,-2.45205 1.6217,-4.38051 -0.7137,-2.84358 -2.9836,-3.7539 -9.4117,-3.77456 L 1260,181 l 0,5 0,5 4.8892,0 c 3.2491,0 5.6479,-0.61431 7.1508,-1.83128 z M 1289,195.5 l 0,-22.5 10.75,0.004 c 12.0476,0.004 16.3703,1.5924 18.3627,6.74672 1.5043,3.89159 0.5974,12.80739 -1.5433,15.17282 -1.6329,1.80436 -1.6459,2.12948 -0.169,4.23801 1.0129,1.44613 1.5996,4.37884 1.5996,7.99612 0,3.14181 0.4389,6.86669 0.9752,8.27749 0.9542,2.5095 0.8811,2.5651 -3.3691,2.5651 -4.2434,0 -4.3588,-0.0872 -4.9643,-3.75 -0.3409,-2.0625 -0.6247,-5.1757 -0.6308,-6.91821 -0.02,-5.7477 -0.6766,-6.33179 -7.118,-6.33179 l -5.893,0 0,8.5 0,8.5 -4,0 -4,0 0,-22.5 z m 20.0657,-3.53518 c 1.329,-0.71125 1.9343,-2.09709 1.9343,-4.42858 0,-4.9048 -2.1394,-6.53624 -8.5714,-6.53624 l -5.4286,0 0,6 0,6 5.0657,0 c 2.7862,0 5.9362,-0.46583 7,-1.03518 z"
       id="path2991"
       inkscape:connector-curvature="0" />
    <path
       style="fill:#000000;fill-opacity:1"
       d="M 896,595.65531 896,565 l 3.25,-0.0158 c 9.181,-0.0447 27.1271,-2.19142 33.74288,-4.03631 21.36375,-5.95755 33.89319,-18.86137 40.24533,-41.44786 l 2.24989,-8 0.27974,-138.25 0.27973,-138.25 -51.52379,0 -51.52378,0 0,-31 0,-31 82.5,0 82.5,0 0,164.03941 c 0,108.63864 -0.3575,167.31896 -1.0587,173.75 -3.5064,32.16282 -16.1043,60.17297 -36.0174,80.08154 -21.76107,21.756 -51.02976,32.9908 -90.6354,34.79042 L 896,626.31061 l 0,-30.6553 z M 295,582.40405 C 262.70247,579.65636 238.43398,573.01007 213,559.9471 174.12938,539.98305 142.14722,506.95135 123.30237,467.30592 92.301937,402.08783 97.284534,325.70645 136.43418,266 161.94439,227.09482 195.66258,201.25653 241,185.87107 259.74609,179.50949 290.24754,174 306.72014,174 l 6.27986,0 0,29.91754 0,29.91755 -9.63542,0.0773 C 246.56576,234.36791 191.53889,273.2798 171.72562,327 152.5387,379.02198 164.08688,437.41172 201.34179,476.74473 241.3711,519.00691 300.24037,533.6547 355,514.97779 c 10.21833,-3.48518 28.80569,-13.4562 38.13137,-20.45523 10.28095,-7.71598 24.37358,-22.29819 30.60251,-31.66563 2.50775,-3.77131 4.83103,-6.85721 5.16284,-6.85756 1.22203,-10e-4 49.04551,32.53081 49.07389,33.38268 0.0729,2.18941 -15.19612,21.86237 -24.32298,31.33821 -36.97012,38.38368 -85.78088,59.99632 -139.14763,61.61239 -8.25,0.24983 -17.025,0.28196 -19.5,0.0714 z M 504,409 l 0,-174 -61,0 -61,0 0,-30.5 0,-30.5 91.5,0 91.5,0 0,204.5 0,204.5 -30.5,0 -30.5,0 0,-174 z m 109,-31 0,-205 106.5,0 106.5,0 0,31 0,31 -76,0 -76,0 0,55.5 0,55.5 73.5,0 73.5,0 0,31.5 0,31.5 -73.5,0 -73.5,0 0,56 0,56 76,0 76,0 0,31 0,31 -106.5,0 -106.5,0 0,-205 z m 650.8561,64.4836 c -3.021,-1.64115 -4.8561,-6.03717 -4.8561,-11.63282 0,-3.73422 0.1059,-3.85078 3.5,-3.85078 3.386,0 3.5,0.12381 3.5,3.8 0,2.09 0.54,4.34 1.2,5 1.8371,1.83712 5.6077,1.42786 6.7648,-0.73426 0.5976,-1.11658 1.0352,-9.1485 1.0352,-19 L 1275,399 l 3.5,0 3.5,0 0,18.03212 c 0,19.18835 -0.8544,23.74923 -4.8496,25.88739 -2.8304,1.51479 -10.1451,1.27494 -13.2943,-0.43591 z m 66.6993,-0.43786 c -5.4464,-3.59021 -6.0243,-5.87921 -6.3864,-25.29574 l -0.331,-17.75 4.081,0 4.081,0 0,17 c 0,15.66667 0.1569,17.15686 2,19 2.7027,2.70273 6.5724,2.51846 9.5455,-0.45455 2.4082,-2.40825 2.4545,-2.76655 2.4545,-19 L 1346,399 l 3.5606,0 3.5606,0 -0.3106,19.07903 -0.3106,19.07903 -3.7353,3.42097 c -3.3517,3.06965 -4.3273,3.42029 -9.5,3.41438 -4.0197,-0.005 -6.656,-0.59415 -8.7093,-1.94767 z M 1436.2625,441.75 c -3.138,-2.2 -5.2625,-6.19629 -5.2625,-9.89922 0,-1.44851 0.7607,-1.85078 3.5,-1.85078 2.7993,0 3.5,0.38905 3.5,1.9433 0,5.12054 10.3426,6.97919 13.8716,2.49284 3.0834,-3.91997 1.5748,-6.56474 -4.9657,-8.70558 -10.3172,-3.37699 -13.1197,-4.99794 -14.547,-8.41393 -1.7611,-4.21507 -1.7166,-7.3823 0.1703,-12.09804 C 1434.511,400.26564 1438.4251,398 1445,398 c 6.3052,0 10.2013,2.10194 12.3853,6.68177 2.6474,5.55169 2.1923,7.31823 -1.8853,7.31823 -2.4444,0 -3.5,-0.45238 -3.5,-1.5 0,-2.64608 -3.8113,-5.5 -7.345,-5.5 -3.7334,0 -6.655,2.50515 -6.655,5.7063 0,2.83225 1.6224,3.93326 9.2817,6.29898 3.6447,1.12574 7.9973,3.20009 9.6725,4.60965 2.7097,2.28003 3.0458,3.1655 3.0458,8.02362 0,10.12662 -4.3389,14.36145 -14.7144,14.36145 -4.4115,0 -6.5879,-0.5427 -9.0231,-2.25 z m 35.7675,0.97069 c -3.1507,-1.59429 -7.03,-7.31584 -7.03,-10.36857 0,-2.02147 0.492,-2.35212 3.5,-2.35212 2.4444,0 3.5,0.45238 3.5,1.5 0,2.88176 3.8084,5.5 8,5.5 2.6667,0 4.6667,-0.66667 6,-2 3.9205,-3.92054 1.8093,-7.42799 -5.774,-9.59234 -9.1813,-2.62047 -13.0995,-5.22427 -14.2411,-9.4637 -0.9984,-3.70786 -0.4784,-8.92918 1.2198,-12.24747 2.6209,-5.12146 13.5512,-7.42545 19.828,-4.17956 3.3124,1.71287 5.9673,6.13241 5.9673,9.93341 0,2.24723 -0.4152,2.54966 -3.5,2.54966 -2.7993,0 -3.5,-0.38905 -3.5,-1.9433 0,-4.56272 -8.3636,-6.69313 -12,-3.0567 -4.2898,4.28983 -1.8875,7.17182 8.7569,10.50545 5.7482,1.80025 8.7244,3.29945 9.7957,4.93446 3.9645,6.05055 2.2886,15.4115 -3.4505,19.27353 -3.8866,2.61544 -12.8489,3.14421 -17.0721,1.00725 z M 1098,421 l 0,-22 13.5,0 13.5,0 0,3.46379 0,3.46379 -9.75,0.28621 -9.75,0.28621 0,4.5 0,4.5 8.75,0.28893 8.75,0.28894 0,3.42213 0,3.42213 -8.75,0.28894 -8.75,0.28893 0,6 0,6 10.25,0.28498 10.25,0.28499 0,3.46501 0,3.46502 -14,0 -14,0 0,-22 z m 42.7726,3.75 -0.2726,-18.25 -5.75,-0.2999 -5.75,-0.29991 0,-3.45009 0,-3.4501 15,0 15,0 0,3.5 0,3.5 -5.5,0 -5.5,0 0,18.5 0,18.5 -3.4774,0 -3.4775,0 -0.2725,-18.25 z M 1178,421 l 0,-22 3.5,0 3.5,0 0,18 0,18 9.5,0 9.5,0 0,4 0,4 -13,0 -13,0 0,-22 z m 29.9943,21.25 c 0,-0.4125 2.8035,-10.3328 6.2371,-22.04511 l 6.2428,-21.29511 4.49,0.29511 4.4899,0.29511 6.2548,21.5 c 3.4402,11.825 6.263,21.6125 6.273,21.75 0.01,0.1375 -1.7754,0.25 -3.9675,0.25 -3.8945,0 -4.0117,-0.1038 -5.1291,-4.5412 l -1.1435,-4.54121 -7.1195,0.29121 -7.1196,0.2912 -0.8934,4.25 c -0.8643,4.11119 -1.0195,4.25 -4.7514,4.25 -2.1218,0 -3.8605,-0.3375 -3.8636,-0.75 z M 1229,425.39434 c 0,-2.0352 -2.9421,-13.464 -3.9135,-15.20241 -0.4371,-0.78216 -1.4042,1.4291 -2.4055,5.5 -0.9209,3.74444 -1.9534,7.82057 -2.2943,9.05807 -0.5781,2.09794 -0.308,2.25 3.9967,2.25 3.572,0 4.6166,-0.36331 4.6166,-1.60566 z M 1290,421 l 0,-22 13.5,0 13.5,0 0,3.5 0,3.5 -10,0 -10,0 0,5 0,5 9,0 9,0 0,4 0,4 -9.0499,0 -9.0499,0 0.2999,5.75 0.2999,5.75 10.25,0.28498 10.25,0.28499 0,3.46501 0,3.46502 -14,0 -14,0 0,-22 z m 71,-0.0575 0,-22.0575 4.1332,0.3075 4.1332,0.3075 6.451,14 c 3.548,7.7 6.8631,14.4275 7.3668,14.95 0.5559,0.57666 0.9158,-5.02336 0.9158,-14.25 l 0,-15.2 3.5,0 3.5,0 0,22 0,22 -4.0178,0 -4.0178,0 -5.7447,-12.25 c -3.1596,-6.7375 -6.4978,-13.825 -7.4183,-15.75 -1.6443,-3.43886 -1.6746,-3.22487 -1.7374,12.25 L 1368,443 l -3.5,0 -3.5,0 0,-22.0575 z m 37,0.0575 0,-22 13.5,0 13.5,0 0,3.46379 0,3.46379 -9.75,0.28621 -9.75,0.28621 0,4.5 0,4.5 8.75,0.28893 8.75,0.28894 0,3.96106 0,3.96107 -9.0499,0 -9.0499,0 0.2999,5.75 0.2999,5.75 10.25,0.28498 10.25,0.28499 0,3.46501 0,3.46502 -14,0 -14,0 0,-22 z m 103,0 0,-22 13.5,0 13.5,0 0,3.5 0,3.5 -10,0 -10,0 0,5 0,5 9,0 9,0 0,4 0,4 -9,0 -9,0 0,6 0,6 10,0 10,0 0,3.5 0,3.5 -13.5,0 -13.5,0 0,-22 z m -361.1021,-54.2887 c -7.1697,-4.82926 -10.7144,-17.97078 -7.9526,-29.48319 3.4886,-14.54207 18.0415,-19.64798 27.6773,-9.7106 5.1047,5.26457 6.9022,11.68241 6.0659,21.6582 C 1164.6287,361.81635 1158.4002,369 1148.5,369 c -3.7666,0 -6.1429,-0.63222 -8.6021,-2.2887 z m 11.5365,-5.68637 c 5.4966,-2.08979 8.788,-12.70583 6.554,-21.13901 -3.7249,-14.06151 -17.1194,-12.81034 -19.4726,1.81893 -1.3652,8.48719 2.1283,17.63106 7.4842,19.58892 2.2291,0.81487 2.6372,0.79468 5.4344,-0.26884 z m 27.4384,6.3493 c -5.6411,-3.62541 -6.3398,-6.29 -6.719,-25.62423 l -0.3481,-17.75 4.0972,0 4.0971,0 0,16.54545 c 0,16.40222 0.022,16.56754 2.5503,19.09578 2.9591,2.9591 6.7889,2.64534 9.6997,-0.79466 1.5114,-1.78611 1.75,-4.30311 1.75,-18.45735 L 1194,324 l 4,0 4,0 0,15.05718 c 0,17.34546 -1.0168,22.62668 -5.1117,26.54985 -2.4463,2.34368 -3.9395,2.85382 -9.1556,3.12802 -4.5798,0.24074 -6.9294,-0.12015 -8.8599,-1.36082 z M 1484.9849,366.75 c -5.7568,-3.91213 -7.4856,-8.70819 -7.4799,-20.75 0,-9.01325 0.3285,-11.10733 2.2903,-14.78923 2.9691,-5.5724 7.3227,-8.20224 13.5867,-8.20703 6.3696,-0.005 11.2561,2.98839 13.7141,8.4008 2.6322,5.79584 2.4418,6.59546 -1.5704,6.59546 -2.8599,0 -3.7526,-0.53819 -5.0479,-3.04296 -3.1631,-6.11678 -10.9129,-5.88398 -14.1758,0.42584 -0.882,1.70565 -1.7936,6.02976 -2.0256,9.60915 -0.3498,5.39446 -0.025,7.26937 1.9008,10.958 3.9559,7.57876 11.3331,7.8596 14.3882,0.54773 1.2738,-3.04876 1.909,-3.49776 4.948,-3.49776 2.1343,0 3.4781,0.48481 3.4646,1.25 -0.049,2.80276 -3.8954,9.50267 -6.9124,12.04137 -4.2868,3.60705 -12.1376,3.81785 -17.0807,0.45863 z M 1098,346 l 0,-22 10.8114,0 c 9.5943,0 11.0648,0.23597 13.0613,2.09603 3.0231,2.81643 4.1273,6.04425 4.1273,12.06478 0,9.20422 -4.8242,13.83919 -14.4043,13.83919 l -5.5957,0 0,8 0,8 -4,0 -4,0 0,-22 z m 19.75,-3.6734 c 1.7078,-2.33474 1.57,-6.42468 -0.3067,-9.10409 -1.2517,-1.787 -2.5254,-2.22251 -6.5,-2.22251 l -4.9433,0 0,7.13929 0,7.13929 5.25,-0.62156 c 3.2284,-0.38223 5.7313,-1.27959 6.5,-2.33042 z M 1210,346 l 0,-22 11.0657,0 c 12.1185,0 14.1704,0.62217 16.4239,4.97998 2.7665,5.34972 1.1288,15.98054 -2.6561,17.24217 -0.7955,0.26519 -0.461,1.15039 0.979,2.59035 1.8058,1.80577 2.1875,3.33324 2.1875,8.75324 0,3.61116 0.4805,7.46352 1.0677,8.56081 0.9996,1.8677 0.7921,1.97522 -3.25,1.68426 L 1231.5,367.5 l -0.5,-7 c -0.275,-3.85 -0.8641,-7.5625 -1.309,-8.25 -0.4977,-0.76895 -3.0954,-1.25 -6.75,-1.25 l -5.941,0 0,8.5 0,8.5 -3.5,0 -3.5,0 0,-22 z m 20.9648,-4.93426 c 1.5104,-2.82218 1.2661,-6.69198 -0.5362,-8.49431 -1.0752,-1.07516 -3.4438,-1.57143 -7.5,-1.57143 l -5.9286,0 0,6 0,6 6.4648,0 c 5.3681,0 6.6404,-0.32813 7.5,-1.93426 z M 1261,346 l 0,-22 3.5,0 3.5,0 0,18 0,18 9,0 9,0 0,4 0,4 -12.5,0 -12.5,0 0,-22 z m 43,0 0,-22 13.5,0 13.5,0 0,3.46379 0,3.46379 -9.75,0.28621 -9.75,0.28621 0,4.5 0,4.5 8.75,0.28893 8.75,0.28894 0,3.96106 0,3.96107 -9.0499,0 -9.0499,0 0.2999,5.75 0.2999,5.75 10.25,0.28498 10.25,0.28499 0,3.46501 0,3.46502 -14,0 -14,0 0,-22 z m 34,-0.0575 0,-22.0575 4.1841,0.3075 4.1842,0.3075 6.6016,14.20242 c 3.6309,7.81133 6.923,14.52383 7.3159,14.91667 0.3928,0.39283 0.7142,-6.11076 0.7142,-14.45242 L 1361,324 l 3.5,0 3.5,0 0,22 0,22 -3.8457,0 -3.8457,0 -7.5866,-15.75 -7.5867,-15.75 -0.068,15.75 -0.068,15.75 -3.5,0 -3.5,0 0,-22.0575 z m 37,16.71721 c 0,-2.93716 0.2957,-12.83716 0.657,-22 L 1376.3141,324 l 12.3429,0 12.343,0 0,3.5 0,3.5 -9,0 -9,0 0,5.5 0,5.5 8,0 8,0 0,3.5 0,3.5 -8,0 -8,0 0,9.5 0,9.5 -4,0 -4,0 0,-5.34029 z m 26.9479,2.59029 c 0.4446,-1.5125 2.2403,-7.7 3.9904,-13.75 1.7501,-6.05 4.3199,-14.7125 5.7107,-19.25 l 2.5286,-8.25 4.3438,0 c 3.2705,0 4.4734,0.4324 4.8682,1.75 4.0093,13.37923 11.6104,40.32491 11.6104,41.15847 0,0.60034 -1.7361,1.09153 -3.8579,1.09153 -3.7319,0 -3.8871,-0.13881 -4.7514,-4.25 l -0.8934,-4.25 -7.1196,-0.2912 -7.1195,-0.29121 -1.1435,4.54121 c -1.1131,4.42045 -1.2476,4.5412 -5.0593,4.5412 -3.8011,0 -3.8921,-0.0806 -3.1075,-2.75 z M 1423,351.46381 c 0,-1.55899 -4.3228,-17.47431 -4.6558,-17.14132 -0.6184,0.6184 -4.3442,14.48217 -4.3442,16.16485 0,1.12612 1.1499,1.51266 4.5,1.51266 2.475,0 4.5,-0.24128 4.5,-0.53619 z M 1441,346 l 0,-22 3.8463,0 3.8462,0 6.8406,15 c 3.7623,8.25 7.2065,15 7.6537,15 0.4473,0 0.8132,-6.75 0.8132,-15 l 0,-15 3,0 3,0 0,22 0,22 -3.9022,0 c -3.3484,0 -4.0437,-0.39024 -4.8997,-2.75 -2.1646,-5.9676 -12.6174,-27.25 -13.3837,-27.25 -0.4479,0 -0.8144,6.75 -0.8144,15 l 0,15 -3,0 -3,0 0,-22 z m 74,0 0,-22 13.5,0 13.5,0 0,3.46379 0,3.46379 -9.75,0.28621 -9.75,0.28621 -0.3048,4.75 -0.3048,4.75 9.0548,0 9.0548,0 0,4 0,4 -9,0 -9,0 0,6 0,6 10.5,0 10.5,0 0,3.5 0,3.5 -14,0 -14,0 0,-22 z m -223,-14 c 0,-7.33333 0.1667,-8 2,-8 1.8333,0 2,0.66667 2,8 0,7.33333 -0.1667,8 -2,8 -1.8333,0 -2,-0.66667 -2,-8 z m -116.6745,-39.45913 c -3.6263,-1.57735 -6.0217,-4.77162 -6.9103,-9.21506 -0.5702,-2.85081 -0.3869,-3.10296 2.5712,-3.53713 2.6088,-0.38289 3.3392,-0.0624 4.0363,1.771 1.1499,3.02437 4.8114,5.44032 8.2453,5.44032 2.7113,0 7.732,-3.79458 7.732,-5.84376 0,-2.43662 -4.1382,-5.20887 -10.5632,-7.07652 -9.3316,-2.71254 -11.8744,-5.36979 -11.8392,-12.37227 0.014,-2.88113 0.7708,-6.61874 1.693,-8.36661 3.0094,-5.70386 13.1813,-7.83457 19.9945,-4.18826 2.4353,1.30333 5.7065,6.8005 5.7112,9.59742 0,1.90547 -0.5322,2.25 -3.4963,2.25 -2.2652,0 -3.5,-0.47452 -3.5,-1.34501 0,-4.40834 -9.1738,-6.33041 -12.5274,-2.62471 -1.4307,1.58095 -1.631,2.59977 -0.905,4.60344 0.7472,2.06192 2.3232,3.01384 7.9324,4.79121 9.6432,3.05561 11.442,4.19194 13.1656,8.31722 2.5245,6.04202 0.1327,13.98334 -5.2053,17.28241 -3.7792,2.33564 -11.3922,2.57925 -16.1348,0.51631 z m 289.0758,-0.43792 C 1461.6778,290.4422 1458,284.05149 1458,280.97976 c 0,-0.53887 1.5861,-0.97976 3.5248,-0.97976 2.8161,0 3.7111,0.49035 4.4521,2.4392 0.51,1.34156 1.8193,2.91656 2.9095,3.5 4.6239,2.47462 12.1136,0.0545 12.1136,-3.91412 0,-3.7666 -1.3411,-5.06799 -6.8584,-6.65544 -7.4616,-2.14687 -12.8363,-4.93063 -14.1082,-7.30716 -1.7427,-3.25633 -1.2201,-11.24402 0.9708,-14.83741 2.4194,-3.96823 5.4224,-5.22507 12.4842,-5.22507 6.4925,0 10.8919,3.10793 12.4768,8.81428 1.4344,5.16463 1.4246,5.18572 -2.3978,5.18572 -2.551,0 -3.5952,-0.51217 -4.0655,-1.99408 -1.0134,-3.19272 -3.4181,-5.00592 -6.6391,-5.00592 -4.6016,0 -6.8628,1.65145 -6.8628,5.01213 0,3.61503 2.2465,5.18596 10.7788,7.53727 8.9525,2.46712 11.5834,5.76645 11.0025,13.79771 -0.3843,5.3125 -0.8181,6.29855 -4.0909,9.29781 -3.3406,3.06146 -4.2093,3.35475 -9.9257,3.35134 -4.3775,-0.003 -7.1982,-0.57296 -9.3634,-1.89331 z M 1099,271 l 0,-22 10.4233,0 c 9.6904,0 10.6345,0.17776 13.4281,2.52844 4.7331,3.98264 6.4699,9.8672 5.974,20.24057 -0.4892,10.23235 -2.6446,15.47056 -7.8103,18.98099 -2.8502,1.93692 -4.6122,2.25 -12.663,2.25 l -9.3521,0 0,-22 z m 18.9837,12.17014 c 4.7371,-4.73711 5.4143,-18.47113 1.1906,-24.14669 -1.5574,-2.09278 -2.8419,-2.57463 -7.5261,-2.82335 l -5.6482,-0.29991 0,15.04991 0,15.0499 4.5769,0 c 3.691,0 5.1247,-0.54776 7.4068,-2.82986 z M 1136,271 l 0,-22 13,0 13,0 0,3.5 0,3.5 -9.5,0 -9.5,0 0,5 0,5 9,0 9,0 0,3.5 0,3.5 -9,0 -9,0 0,5.875 c 0,5.78 0.051,5.88511 3.125,6.5 1.7188,0.34375 6.2188,0.625 10,0.625 l 6.875,0 0,3.5 0,3.5 -13.5,0 -13.5,0 0,-22 z m 90,3.5 0,-18.5 -5.5,0 -5.5,0 0,-3.5 0,-3.5 14.5,0 14.5,0 0,3.44774 0,3.44774 -5.25,0.30226 -5.25,0.30226 -0.2726,18.25 -0.2725,18.25 -3.4775,0 -3.4774,0 0,-18.5 z m 23,-3.5 0,-22 3.4596,0 3.4595,0 0.2905,8.25 0.2904,8.25 7.25,0.29381 7.25,0.29381 0,-8.54381 0,-8.54381 3.5,0 3.5,0 0,22 0,22 -3.5,0 -3.5,0 0,-10 0,-10 -7.5,0 -7.5,0 0,10 0,10 -3.5,0 -3.5,0 0,-22 z m 37,0 0,-22 13.5,0 13.5,0 0,3.46379 0,3.46379 -9.75,0.28621 -9.75,0.28621 -0.3048,4.75 -0.3048,4.75 9.0548,0 9.0548,0 0,3.46107 0,3.46106 -8.75,0.28894 -8.75,0.28893 0,6 0,6 10.25,0.28498 10.25,0.28499 0,3.46501 0,3.46502 -14,0 -14,0 0,-22 z m 32.0428,21.25 c 0.024,-0.4125 2.8479,-10.2 6.2762,-21.75 l 6.2334,-21 4.5088,-0.29601 4.5088,-0.29601 5.8695,20.29601 c 3.2283,11.16281 6.0775,21.08351 6.3317,22.04601 0.3833,1.4519 -0.2189,1.75 -3.5359,1.75 -3.9037,0 -4.0246,-0.10601 -5.131,-4.5 l -1.1331,-4.5 -6.9894,0 -6.9895,0 -1.2035,4.5 c -1.1583,4.33075 -1.3463,4.5 -4.9962,4.5 -2.0859,0 -3.7733,-0.3375 -3.7498,-0.75 z m 21.1789,-15.80505 C 1339.8754,275.79126 1335.8536,260 1335.0335,260 c -0.7648,0 -4.7982,15.90198 -4.1881,16.51205 0.673,0.67303 7.6924,0.61679 8.3763,-0.0671 z m 26.5509,-1.69495 -0.2726,-18.25 -5.75,-0.2999 -5.75,-0.29991 0,-3.45009 0,-3.4501 15,0 15,0 0,3.5 0,3.5 -5.5,0 -5.5,0 0,18.5 0,18.5 -3.4774,0 -3.4775,0 -0.2725,-18.25 z M 1389,271 l 0,-22 11.3651,0 c 9.8804,0 11.7,0.26333 13.9276,2.01564 5.14,4.04306 5.8971,12.93081 1.5701,18.43163 -1.979,2.51591 -1.9973,2.7466 -0.3618,4.55389 1.2017,1.3278 1.924,4.48956 2.3875,10.45128 l 0.6647,8.54756 -3.6458,0 c -3.436,0 -3.6814,-0.21574 -4.2656,-3.75 -0.3409,-2.0625 -0.6247,-5.1757 -0.6308,-6.91821 -0.02,-5.82497 -0.63,-6.33179 -7.618,-6.33179 l -6.393,0 0,8.5 0,8.5 -3.5,0 -3.5,0 0,-22 z m 20.8,-4.2 c 0.66,-0.66 1.2,-2.89417 1.2,-4.96482 0,-4.68879 -1.8535,-5.83518 -9.4343,-5.83518 l -5.5657,0 0,6 0,6 6.3,0 c 3.5667,0 6.8206,-0.52063 7.5,-1.2 z m 16.2,4.2 0,-22 13.5,0 13.5,0 0,3.5 0,3.5 -10,0 -10,0 0,5 0,5 9,0 9,0 0,4 0,4 -9,0 -9,0 0,6 0,6 10,0 10,0 0,3.5 0,3.5 -13.5,0 -13.5,0 0,-22 z m -128,-27.44284 c 0,-0.24356 0.9444,-2.04356 2.0988,-4 1.7509,-2.96761 2.6625,-3.55716 5.5,-3.55716 1.8706,0 3.4012,0.15597 3.4012,0.3466 0,1.3283 -7.4778,7.6534 -9.0481,7.6534 -1.0736,0 -1.9519,-0.19928 -1.9519,-0.44284 z M 1329,240 c 4.2311,-5.34215 7.5514,-5.4108 12.0926,-0.25 3.2457,3.68856 3.2622,3.75545 1.0057,4.08238 -1.3475,0.19524 -3.2532,-0.56875 -4.6189,-1.85171 l -2.3248,-2.18407 -1.7995,2.1017 c -1.0505,1.22679 -2.9909,2.1017 -4.6614,2.1017 l -2.8618,0 3.1681,-4 z m -222.6114,-22.84537 c -6.9385,-4.36343 -10.0163,-12.67165 -9.114,-24.60219 0.6277,-8.29949 3.2361,-14.35578 7.4865,-17.38235 9.104,-6.48261 21.6372,-1.42868 23.8461,9.61577 0.6241,3.12051 0.5426,3.21414 -2.797,3.21414 -2.9416,0 -3.6797,-0.50305 -5.0963,-3.47375 -2.7967,-5.86484 -10.2035,-6.05823 -13.6707,-0.35693 -4.2917,7.05718 -3.3501,20.87094 1.6931,24.83792 4.5712,3.59569 10.082,2.2598 12.2479,-2.96902 1.0506,-2.53649 1.8164,-3.03822 4.6371,-3.03822 2.048,0 3.3701,0.49231 3.3567,1.25 -0.043,2.45212 -3.7582,9.29055 -6.3384,11.66709 -3.6425,3.35498 -11.8858,3.98273 -16.251,1.23754 z M 1135,195.5 l 0,-22.5 4,0 4,0 0,8.5 0,8.5 7,0 7,0 0,-8.5 0,-8.5 4,0 4,0 0,22.5 0,22.5 -4,0 -4,0 0,-10 0,-10 -7,0 -7,0 0,10 0,10 -4,0 -4,0 0,-22.5 z m 35.0261,21.75 c 0.014,-0.4125 2.8733,-10.425 6.3532,-22.25 l 6.3273,-21.5 4.3135,0 4.3135,0 5.769,19.92612 c 3.1729,10.95937 6.0315,20.97187 6.3522,22.25 0.5355,2.13346 0.2646,2.32388 -3.3058,2.32388 -3.756,0 -3.9322,-0.15403 -5.149,-4.5 l -1.2599,-4.5 -6.8739,0 -6.8739,0 -1.2035,4.5 c -1.1583,4.33075 -1.3463,4.5 -4.9962,4.5 -2.0859,0 -3.7809,-0.3375 -3.7665,-0.75 z m 19.7973,-24 c -1.0848,-4.2625 -2.2972,-8.08583 -2.6942,-8.4963 -0.397,-0.41046 -1.6529,3.07704 -2.791,7.75 l -2.0691,8.4963 4.7633,0 4.7633,0 -1.9723,-7.75 z M 1209,196 l 0,-22 5.4809,0 c 4.8544,0 5.5439,0.25722 6.0308,2.25 0.3024,1.2375 1.846,9 3.4301,17.25 1.5841,8.25 2.9704,14.775 3.0807,14.5 0.1102,-0.275 1.6213,-7.925 3.3579,-17 l 3.1574,-16.5 5.2311,-0.30226 5.2311,-0.30226 0,22.05226 0,22.05226 -3,0 -3,0 0,-18.16667 c 0,-9.99166 -0.2434,-17.92323 -0.541,-17.6257 -0.2975,0.29752 -1.998,8.36002 -3.779,17.91666 l -3.238,17.37571 -3.6295,0.30491 c -4.2091,0.3536 -3.4734,2.3745 -7.3919,-20.30491 -1.4254,-8.25 -2.7782,-15.1875 -3.0061,-15.41667 -0.228,-0.22916 -0.4145,7.75834 -0.4145,17.75 l 0,18.16667 -3.5,0 -3.5,0 0,-22 z m 43,0 0,-22 11.4442,0 c 10.4754,0 11.669,0.19327 14.0984,2.283 3.7821,3.25317 4.5897,10.69424 1.5997,14.73845 l -2.1332,2.88529 2.4954,2.69266 c 4.7776,5.15505 2.7694,16.65624 -3.4718,19.88367 -2.0782,1.07467 -6.0091,1.51693 -13.483,1.51693 l -10.5497,0 0,-22 z m 21.6209,12.50378 c 0.7585,-1.03732 1.3791,-3.13966 1.3791,-4.67186 0,-4.05614 -3.5324,-6.01627 -10.159,-5.63733 l -5.341,0.30541 -0.3008,6.36973 -0.3009,6.36973 6.6718,-0.42482 c 5.0541,-0.32182 7.0061,-0.88209 8.0508,-2.31086 z m -1.1923,-19.07521 c 1.865,-1.86505 2.0541,-5.54582 0.3714,-7.22857 -0.6794,-0.67937 -3.9333,-1.2 -7.5,-1.2 l -6.3,0 0,5 0,5 5.9286,0 c 4.0562,0 6.4248,-0.49627 7.5,-1.57143 z M 1289,196 l 0,-22 11.8636,0 c 11.457,0 11.9532,0.0895 14.4757,2.61208 4.4547,4.45463 4.7971,14.14453 0.633,17.91295 -1.8957,1.71564 -1.9072,1.88946 -0.2454,3.72573 1.2479,1.37884 1.8492,4.10312 2.1163,9.58769 0.2052,4.21385 0.8296,8.22405 1.3874,8.91155 0.7832,0.96518 -0.014,1.25 -3.4989,1.25 l -4.5131,0 -0.3771,-7.46781 c -0.2149,-4.25577 -0.9285,-8.0193 -1.659,-8.75 -0.7429,-0.74304 -3.6788,-1.28219 -6.9822,-1.28219 l -5.7003,0 -0.2889,8.75 -0.289,8.75 -3.461,0 -3.4611,0 0,-22 z m 21.5872,-5.49271 c 1.7421,-2.65877 1.2493,-7.35431 -0.9165,-8.73196 -0.6439,-0.40959 -3.9832,-0.7516 -7.4207,-0.76002 L 1296,181 l 0,6 0,6 6.4769,0 c 5.8003,0 6.6476,-0.26045 8.1103,-2.49271 z M 1326,196 l 0,-22 13.5,0 13.5,0 0,3.46379 0,3.46379 -9.75,0.28621 -9.75,0.28621 0,4.5 0,4.5 8.75,0.28893 8.75,0.28894 0,3.42213 0,3.42213 -8.75,0.28894 -8.75,0.28893 0,6 0,6 10.25,0.28498 10.25,0.28499 0,3.46501 0,3.46502 -14,0 -14,0 0,-22 z"
       id="path2989"
       inkscape:connector-curvature="0" />
  </g>
</svg>
