<?xml version="1.0" encoding="UTF-8" standalone="no"?>
<!-- Created with Inkscape (http://www.inkscape.org/) -->

<svg
   xmlns:dc="http://purl.org/dc/elements/1.1/"
   xmlns:cc="http://creativecommons.org/ns#"
   xmlns:rdf="http://www.w3.org/1999/02/22-rdf-syntax-ns#"
   xmlns:svg="http://www.w3.org/2000/svg"
   xmlns="http://www.w3.org/2000/svg"
   xmlns:sodipodi="http://sodipodi.sourceforge.net/DTD/sodipodi-0.dtd"
   xmlns:inkscape="http://www.inkscape.org/namespaces/inkscape"
   width="100"
   height="210.47791"
   id="svg3126"
   version="1.1"
   inkscape:version="0.48.4 r9939"
   sodipodi:docname="ctej-noel.svg">
  <defs
     id="defs3128" />
  <sodipodi:namedview
     id="base"
     pagecolor="#ffffff"
     bordercolor="#666666"
     borderopacity="1.0"
     inkscape:pageopacity="0.0"
     inkscape:pageshadow="2"
     inkscape:zoom="12.225656"
     inkscape:cx="59.232822"
     inkscape:cy="44.257133"
     inkscape:document-units="px"
     inkscape:current-layer="layer1"
     showgrid="false"
     inkscape:window-width="1138"
     inkscape:window-height="675"
     inkscape:window-x="250"
     inkscape:window-y="32"
     inkscape:window-maximized="0"
     fit-margin-top="0"
     fit-margin-left="0"
     fit-margin-right="0"
     fit-margin-bottom="0" />
  <metadata
     id="metadata3131">
    <rdf:RDF>
      <cc:Work
         rdf:about="">
        <dc:format>image/svg+xml</dc:format>
        <dc:type
           rdf:resource="http://purl.org/dc/dcmitype/StillImage" />
        <dc:title />
      </cc:Work>
    </rdf:RDF>
  </metadata>
  <g
     inkscape:label="Layer 1"
     inkscape:groupmode="layer"
     id="layer1"
     transform="translate(-503.41192,-421.48203)">
    <path
       style="fill:#000000"
       d="m 587.58017,552.94328 -3.38616,-2.79103 1.77092,-3.90112 c 1.50229,-3.30941 1.77404,-6.10676 1.79122,-18.43974 l 0.0204,-14.53841 4.50775,0 c 5.66427,0 5.62952,-0.11165 5.593,17.99992 -0.0288,14.29302 -0.90744,19.08684 -4.15603,22.67662 -2.08143,2.2998 -2.14225,2.28991 -6.14099,-1.00624 z m -68.11748,-7.30196 c -3.79026,-1.15307 -7.70874,-3.43686 -9.87202,-5.75372 -6.18096,-6.61991 -8.07419,-19.5174 -4.07708,-27.77441 2.4296,-5.0188 8.31638,-10.46885 12.2383,-11.33023 2.69914,-0.5928 3.02333,-1.90804 1.47203,-5.97158 -1.01519,-2.65917 -1.33904,-6.46152 -0.55032,-6.46152 0.43729,0 0.843,0.93461 0.90155,2.07689 0.15855,3.09223 0.31522,3.68937 1.69532,6.46157 0.95174,1.91176 1.93746,2.53847 3.99251,2.53847 2.40026,0 2.6532,-0.25006 2.10138,-2.07697 -0.34504,-1.14228 -0.72365,-2.69998 -0.84141,-3.46148 -0.11777,-0.7616 -0.85671,-2.8385 -1.6421,-4.61541 -2.48015,-5.61123 -3.90265,-15.24476 -2.74247,-18.57282 0.56242,-1.61342 1.0226,-3.49455 1.0226,-4.18034 0,-1.99372 -1.828,-1.44007 -2.74049,0.83007 -0.45913,1.1423 -0.86114,1.4746 -0.89331,0.73846 -0.0456,-1.04103 -0.30466,-1.09232 -1.16619,-0.23069 -0.60925,0.60922 -1.85541,1.10766 -2.76927,1.10766 -0.91383,0 -1.66152,0.58208 -1.66152,1.29344 0,0.82174 -1.00986,0.35009 -2.76924,-1.29344 -3.87662,-3.62131 -3.87662,-8.35675 0,-11.22286 1.52309,-1.12607 2.76924,-2.41257 2.76924,-2.85888 0,-2.36119 14.15493,-12.68643 15.52023,-11.32113 0.72245,0.72245 -3.4831,4.12217 -5.1356,4.15156 -1.53812,0.0273 -1.49262,1.86667 0.0461,1.86667 0.66003,0 1.74931,-0.51924 2.42071,-1.15385 1.00845,-0.95322 1.02958,-0.78281 0.12159,0.98019 -1.09783,2.13156 -1.09309,2.13347 4.15174,1.649 3.87053,-0.3575 6.01033,-0.08 8.13996,1.05582 1.589,0.84741 3.20066,1.45535 3.58142,1.35097 0.38077,-0.10451 0.69232,0.4003 0.69232,1.12148 0,1.17919 4.01429,2.70373 6.09814,2.31594 1.91475,-0.35636 3.11742,0.13994 2.90187,1.19701 -0.12669,0.62258 0.70384,1.27455 1.84615,1.44883 1.14231,0.17436 2.07694,0.94409 2.07694,1.71064 0,1.59015 -3.83013,11.50494 -7.05621,18.26599 -1.19601,2.50659 -2.17459,4.6394 -2.17459,4.73968 0,0.10018 2.11207,0.18226 4.69352,0.18226 2.58139,0 5.09506,0.40158 5.58588,0.89235 1.12431,1.12433 -1.38729,7.84536 -4.51182,12.0736 -2.7206,3.6816 -2.11125,4.66155 1.88304,3.02835 1.63065,-0.66673 3.9364,-1.16881 5.12395,-1.11569 3.587,0.16059 22.47009,-3.50179 23.81622,-4.61896 0.69046,-0.57305 1.22619,-1.71796 1.19053,-2.54426 -0.0507,-1.17343 -0.21794,-1.11156 -0.76385,0.28249 -0.89553,2.2868 -1.69231,0.86127 -1.51357,-2.70794 0.0762,-1.52305 -0.14836,-3.18465 -0.49906,-3.69235 -1.12818,-1.63284 -1.95124,-6.92307 -1.07712,-6.92307 0.49306,0 0.42768,-2.4648 -0.15728,-5.932 -1.14236,-6.76974 -2.45369,-9.08464 -1.93478,-3.41552 0.19016,2.07801 0.005,3.98774 -0.40754,4.24384 -0.41435,0.25608 -1.03443,2.33998 -1.378,4.63081 -0.34353,2.29086 -0.97389,4.1652 -1.4008,4.1652 -0.42692,0 -1.2743,1.35 -1.88304,3 -0.60873,1.64998 -1.2915,2.52739 -1.51729,1.94972 -0.22585,-0.57766 0.40303,-2.49873 1.39734,-4.26902 3.46548,-6.17003 4.48396,-20.02907 1.72894,-23.5269 -1.28291,-1.62877 0.24395,-1.43662 2.12724,0.2677 1.42563,1.29018 1.61456,1.25393 2.04512,-0.39248 0.33508,-1.28128 0.0984,-1.66973 -0.80575,-1.32275 -0.76803,0.29469 -1.28013,-0.10936 -1.28013,-1.00973 0,-1.16262 -0.55124,-1.36262 -2.44539,-0.88723 -1.72099,0.43194 -2.25173,0.30044 -1.79167,-0.44394 0.35952,-0.58174 0.24777,-1.05773 -0.24828,-1.05773 -0.49612,0 -1.56382,-0.25388 -2.37263,-0.56431 -1.13247,-0.43453 -1.32232,-0.16925 -0.82577,1.15386 0.56867,1.51518 0.46085,1.56845 -0.91258,0.45128 -0.85661,-0.69676 -1.55745,-0.86984 -1.55745,-0.38457 0,0.48523 -0.58347,0.88222 -1.29662,0.88222 -0.71313,0 -1.08228,-0.55857 -0.82029,-1.24123 0.33992,-0.88582 -0.0153,-1.05658 -1.24184,-0.5964 -1.46102,0.5483 -1.54414,0.43051 -0.55552,-0.78707 0.87846,-1.0818 2.00677,-1.2676 4.61539,-0.76003 1.89899,0.36951 5.11426,0.9913 7.14504,1.38166 l 3.69233,0.70984 -1.93195,-2.19955 c -1.06255,-1.20973 -5.9918,-7.32715 -10.95389,-13.59425 -7.75959,-9.80033 -9.32981,-11.33588 -11.22194,-10.97415 -1.20999,0.2312 -2.19996,0.0627 -2.19996,-0.37453 0,-0.43729 0.62309,-0.79507 1.38462,-0.79507 0.76153,0 1.38462,-0.4154 1.38462,-0.92309 0,-2.07995 -3.03562,-0.43033 -3.99821,2.17271 -0.3816,1.03198 -1.17922,1.50144 -2.00957,1.18281 -0.83525,-0.32049 -1.37685,0.005 -1.37685,0.82729 0,0.74563 -0.62306,1.35567 -1.38462,1.35567 -0.76153,0 -1.38462,0.43989 -1.38462,0.97756 0,0.53764 -0.38546,0.7393 -0.85661,0.44812 -0.47116,-0.29118 -1.09415,0.21896 -1.38449,1.13369 -0.52727,1.66132 -4.22044,2.65751 -4.22044,1.13841 0,-0.44155 1.24616,-1.69018 2.76924,-2.7747 1.52309,-1.08454 2.76922,-1.6435 2.76922,-1.2421 0,0.40138 0.65436,-0.20443 1.45415,-1.34625 0.79974,-1.14182 2.14977,-1.96119 2.99998,-1.82079 0.85024,0.1402 1.44366,-0.25914 1.3187,-0.88783 -0.1249,-0.62873 1.48745,-2.27781 3.58315,-3.6647 l 3.81032,-2.52155 4.07102,4.58776 c 5.5554,6.26055 20.77306,25.23512 22.74243,28.357 0.99081,1.57067 2.41168,2.53847 3.72684,2.53847 2.99666,0 6.48374,3.92322 5.69521,6.4076 -0.72716,2.29114 -3.78343,4.4809 -6.92253,4.95997 -1.22533,0.1871 -2.37238,0.77343 -2.54898,1.30323 -0.56135,1.68405 2.44169,23.60885 3.3594,24.52656 0.48409,0.48411 2.39552,0.59589 4.24764,0.24853 2.6012,-0.48801 3.14384,-0.90122 2.38466,-1.81599 -0.54055,-0.65134 -0.71216,-1.45493 -0.38134,-1.78574 0.33084,-0.33082 1.18156,0.22661 1.8905,1.23876 0.70895,1.01215 2.04776,1.84031 2.97513,1.84031 0.93119,0 1.91087,0.85924 2.188,1.91903 0.38667,1.47871 -0.11445,2.17822 -2.18446,3.04854 -2.52093,1.05997 -2.59037,1.22543 -1.12795,2.68785 1.46241,1.46239 1.36507,1.75777 -1.58126,4.79764 -1.7268,1.78158 -3.47443,3.23923 -3.88365,3.23923 -1.43117,0 -7.23286,-6.89462 -6.78461,-8.06272 0.50803,-1.3239 -0.30476,-1.25732 -14.26309,1.16859 -4.82308,0.83823 -11.77315,2.31696 -15.44457,3.28605 -3.67145,0.96905 -6.89067,1.76201 -7.15386,1.76201 -0.26316,0 -0.47851,1.2171 -0.47851,2.70487 0,2.09696 0.46403,2.77143 2.06402,2.99998 1.72882,0.24701 2.09091,0.92347 2.22971,4.16421 0.14249,3.32669 -0.11446,3.90892 -1.83326,4.15391 -1.77115,0.2521 -2.03027,0.94284 -2.2739,6.05998 -0.25924,5.44473 -0.14122,5.82619 2.06401,6.66457 2.32561,0.88407 2.51709,2.0683 1.53356,9.48316 -0.11827,0.89166 -9.46167,0.87945 -10.79979,-0.0204 -2.29634,-1.53328 -3.13819,-5.16583 -3.13819,-13.54058 0,-5.27116 -0.37203,-8.82997 -0.92309,-8.82997 -0.50769,0 -0.92308,-1.86927 -0.92308,-4.15391 0,-2.28463 0.41539,-4.15368 0.92308,-4.15368 0.5077,0 0.92309,-0.57904 0.92309,-1.2866 0,-1.01468 -1.51174,-0.80507 -7.15386,0.99214 -5.36662,1.70937 -7.5483,2.0346 -8.73277,1.30154 -3.46383,-2.14393 -6.78542,2.24146 -6.64163,8.76848 0.15881,7.21201 5.64039,12.10632 12.52461,11.18284 l 3.54209,-0.47521 0,4.92316 c 0,3.24496 -0.49449,5.41775 -1.45056,6.37387 -1.52518,1.52505 -6.55372,1.80522 -10.55542,0.58812 z m 20.53742,-41.27592 c 1.34361,-0.83038 0.6756,-1.76234 -2.48214,-3.46291 -1.74982,-0.94231 -4.10685,-2.69838 -5.23784,-3.90222 -1.13099,-1.20391 -2.39932,-2.18889 -2.81851,-2.18889 -1.00547,0 -0.97205,2.38588 0.0614,4.39716 0.45305,0.88157 1.29505,2.7893 1.87103,4.23938 0.96721,2.43493 1.30953,2.58731 4.47693,1.99313 1.88629,-0.35389 3.74432,-0.83793 4.12895,-1.07565 z m -0.18404,-31.72903 c 4.47787,-2.39652 4.06732,-8.28656 -0.57761,-8.28656 -3.88308,0 -8.4845,6.36205 -6.23116,8.61538 0.92684,0.92686 4.81322,0.73918 6.80877,-0.32882 z m -4.00762,-1.48541 c -0.35602,-0.35603 -0.64728,-1.43772 -0.64728,-2.40381 0,-1.29359 0.54736,-1.67873 2.07692,-1.46152 1.35775,0.19271 2.07691,0.92984 2.07691,2.12846 0,1.83103 -2.28203,2.96138 -3.50655,1.73687 z m 55.82022,-6.48418 c 1.71745,-1.55431 1.71442,-1.62219 -0.15753,-3.48949 -1.53257,-1.52877 -2.06246,-1.65732 -2.68655,-0.65177 -0.46535,0.74975 -1.51322,1.01913 -2.61023,0.67093 -2.45132,-0.77804 -6.10508,2.1614 -5.29868,4.26276 1.10753,2.88624 7.18287,2.43855 10.75307,-0.79243 z m -70.87537,0.11293 c 1.13718,-1.13719 1.20996,-1.86925 0.3692,-3.71446 -1.24393,-2.73013 -4.04208,-3.62696 -7.36928,-2.362 -2.98611,1.13535 -3.79946,2.3736 -3.06957,4.67333 0.8713,2.7452 7.76671,3.70607 10.06965,1.40313 z m 5.66361,-6.93182 c 0.3275,-0.52992 0.0438,-1.62833 -0.63059,-2.44084 -1.0773,-1.29808 -0.97493,-1.39765 0.84361,-0.82046 1.26178,0.4005 2.06968,0.27229 2.06968,-0.32835 0,-1.06726 -1.82767,-1.2887 -3.9415,-0.47751 -0.83642,0.32095 -1.16423,1.33981 -0.89099,2.76921 0.45355,2.37245 1.54296,2.927 2.54979,1.29795 z m 16.12886,-1.63577 c 0,-1.05141 -7.38146,-5.09619 -8.06068,-4.41695 -0.3051,0.3051 0.0336,0.58101 0.75299,0.6132 0.71924,0.0324 0.33471,0.44835 -0.8545,0.92485 -1.18918,0.47649 -2.53918,0.63334 -3,0.34858 -0.46079,-0.28483 -0.83782,-0.078 -0.83782,0.45975 0,0.53764 0.83076,0.97753 1.84615,0.97753 1.01539,0 1.84617,0.4154 1.84617,0.92309 0,0.5077 1.86922,0.92306 4.15384,0.92306 2.28463,0 4.15385,-0.33887 4.15385,-0.75311 z m -20.51904,-6.45904 c 0.22482,-0.67456 -0.19704,-0.88085 -1.09615,-0.53587 -0.80397,0.30852 -1.46175,0.96648 -1.46175,1.46217 0,1.21329 2.09797,0.45355 2.5579,-0.9263 z m 40.25364,94.50163 c -6.28188,-2.73416 -9.82909,-11.06342 -8.26415,-19.40534 1.35908,-7.24445 10.35134,-13.28234 18.21139,-12.22805 4.55847,0.61149 7.9589,2.93635 10.40531,7.11427 l 1.77939,3.03895 -2.81191,2.40302 c -1.54656,1.32179 -5.15115,3.9858 -8.01019,5.92015 -2.85904,1.93411 -5.19826,3.90721 -5.19826,4.38452 0,1.36499 6.64344,1.00226 9.56708,-0.52261 3.92915,-2.04913 4.27909,-1.79277 4.27909,3.13628 0,4.40983 -0.0867,4.5497 -3.71099,5.99998 -4.4875,1.79553 -12.31038,1.872 -16.24676,0.15804 z m 9.74676,-21.42141 c 0.18557,-3.42842 -6.88111,-1.62385 -8.30478,2.12076 -1.73886,4.57351 -0.36877,5.21849 4.12464,1.94131 2.26764,-1.65378 4.14871,-3.48175 4.18014,-4.06207 z m -6.44301,-29.29637 c 2.26341,-2.34518 4.4636,-4.26398 4.88929,-4.26398 1.40853,0 -2.47839,4.35011 -5.76942,6.4569 -3.15293,2.01842 -3.13054,1.96269 0.88013,-2.19292 z M 515.4501,480.1566 c -0.8771,-3.74473 -1.43675,-6.96666 -1.24363,-7.15977 0.67236,-0.67234 3.60984,10.43344 3.22547,12.19463 -0.21285,0.9756 -1.10474,-1.2901 -1.98184,-5.03486 z m 77.86497,4.50096 c 0,-0.50767 0.18328,-0.92303 0.40703,-0.92303 0.22381,0 0.6638,0.41536 0.97759,0.92303 0.31374,0.5077 0.13051,0.92309 -0.40708,0.92309 -0.53765,0 -0.97754,-0.41539 -0.97754,-0.92309 z m -27.65371,-2.5713 c -0.99189,-1.0718 -1.05258,-1.55225 -0.23069,-1.82619 0.61338,-0.20444 1.11524,-0.9847 1.11524,-1.73392 0,-0.74919 0.41539,-1.10542 0.92308,-0.79166 1.07364,0.66357 1.24957,4.7703 0.23069,5.38712 -0.38078,0.23043 -1.29803,-0.23553 -2.03832,-1.03535 z m 25.37098,-0.23834 c 0.32753,-0.52992 0.12083,-1.5357 -0.45979,-2.23503 -0.84246,-1.01511 -0.71218,-1.18184 0.64577,-0.82673 1.94317,0.50815 2.34495,4.0253 0.45985,4.0253 -0.68271,0 -0.97335,-0.43356 -0.64583,-0.96354 z m 3.27867,-0.34417 c -0.04,-0.9731 0.17792,-1.51827 0.48481,-1.21154 0.30675,0.30675 0.33953,1.1029 0.0729,1.76922 -0.29465,0.73637 -0.51338,0.51766 -0.55766,-0.55768 z m -34.22677,-2.79169 c 0,-0.73156 0.37667,-1.56288 0.83701,-1.8474 0.46033,-0.28453 0.61957,0.31401 0.35388,1.33009 -0.56365,2.15543 -1.19089,2.4279 -1.19089,0.51731 z m 32.28488,-2.88377 c -1.10479,-2.90582 -1.11162,-3.17069 -0.0818,-3.17069 0.45009,0 1.00119,1.24615 1.22475,2.76921 0.49821,3.3945 0.0543,3.55037 -1.14285,0.40148 z m -29.26563,-0.0359 c 0.30675,-0.30676 1.1029,-0.33954 1.76924,-0.0729 0.73637,0.29467 0.51764,0.51338 -0.5577,0.55769 -0.97308,0.04 -1.51827,-0.17793 -1.21154,-0.48478 z m -6.56893,-1.798 c 0.17537,-0.90486 0.87781,-1.83129 1.56091,-2.05879 0.79444,-0.26452 1.12709,0.17919 0.92309,1.23165 -0.17538,0.90486 -0.87785,1.83131 -1.56094,2.05879 -0.79441,0.26451 -1.12706,-0.1792 -0.92306,-1.23165 z m 33.08819,-3.03972 c 0,-0.42901 0.81556,-1.51811 1.8124,-2.42025 1.77225,-1.60384 1.78759,-1.58671 0.69232,0.77282 -1.07876,2.32397 -2.50472,3.26185 -2.50472,1.64743 z m -33.63111,-16.66424 c -2.0653,-0.80879 -1.07395,-1.66925 2.24642,-1.94985 4.40074,-0.37193 5.08021,0.0178 2.43292,1.39963 -1.45416,0.7584 -2.70034,1.34975 -2.76921,1.31404 -0.0688,-0.0359 -0.92847,-0.3794 -1.91013,-0.76382 z m -13.70684,-2.56906 c -1.91686,-1.02092 -1.84171,-1.09072 1.18401,-1.10012 5.06767,-0.0153 10.15386,0.88684 10.15386,1.80182 0,1.16764 -8.85718,0.61947 -11.33787,-0.7017 z m -11.10456,-7.74851 c 1.27499,-2.5558 3.98088,-3.76349 3.98088,-1.77676 0,0.50767 -0.62309,0.92306 -1.38464,0.92306 -0.76153,0 -1.38462,0.57863 -1.38462,1.28587 0,0.70723 -0.57565,1.50677 -1.27924,1.77674 -1.0639,0.40825 -1.05251,0.0365 0.0675,-2.20891 z m 2.7501,-4.23831 c -0.92556,-0.92553 -0.73969,-2.33962 0.2289,-1.74102 0.46431,0.28694 0.98355,0.11445 1.15383,-0.38351 0.38152,-1.11549 4.46349,-0.14988 4.46349,1.05592 0,0.47843 -0.41539,0.61318 -0.92309,0.29939 -0.50769,-0.31382 -0.92309,-0.13051 -0.92309,0.40706 0,1.07259 -3.01647,1.34567 -3.99999,0.36216 z"
       id="path3154"
       inkscape:connector-curvature="0"
       sodipodi:nodetypes="ccsscssccccssssscssscscscccsssssscssssccscccsssscssccccccsccccsscscsscsscscccsscccsccsscsssccsssccssscccscsssscsccscssscssssscsscscscscssssscccccsccccccscccccsssssscsscscscccsscsscccscccsccscsssssccsccscccccscsccccsccsssssccssscssccscccccssccccccsscscsscccccccccccscssssccsccsccsssccccscscscc" />
    <g
       id="g2987"
       transform="matrix(0.18612343,0,0,0.18612343,503.83588,545.78478)">
      <path
         style="fill:none"
         d="M 0,231.5 0,0 267.5,0 535,0 535,231.5 535,463 267.5,463 0,463 0,231.5 z"
         id="path2991"
         inkscape:connector-curvature="0" />
      <path
         style="fill:#040404"
         d="m 0,463 z m 224.71497,-34.01543 c 9.27656,-4.63555 13.81115,-12.33025 14.42912,-24.48457 l 0.35591,-7 -7.5,0 -7.5,0 -0.5,8.28912 c -0.35357,5.86159 -0.93929,8.56603 -2,9.23468 -0.825,0.52007 -5.06457,0.95247 -9.42126,0.96089 C 200.52947,416.00798 201,417.00928 201,391.34501 201,363.82381 199.19689,366 222,366 c 12.90524,0 17.01269,-0.30109 17.05268,-1.25 0.029,-0.6875 0.0446,-13.93956 0.0347,-29.44902 -0.0194,-30.43719 -0.22685,-31.86182 -5.68117,-39.01281 -1.39255,-1.82572 -4.86612,-4.65822 -7.71906,-6.29444 -4.28148,-2.45553 -6.32208,-2.97746 -11.68717,-2.98929 -9.24422,-0.0204 -15.30599,2.4298 -20.61207,8.33144 -2.39857,2.66778 -4.8356,6.61294 -5.41564,8.76701 -0.69531,2.58218 -0.95541,22.05511 -0.76345,57.15681 0.28609,52.31366 0.32863,53.30992 2.44384,57.2403 6.71732,12.48177 21.95013,17.03679 35.06229,10.48457 z m -22.14354,-78.556 C 201.24096,349.0981 201,345.58225 201,327.5 c 0,-18.08225 0.24096,-21.5981 1.57143,-22.92857 1.96944,-1.96944 18.33015,-2.26985 20.22857,-0.37143 0.8597,0.8597 1.2,7.3619 1.2,22.92857 0,18.41991 -0.23928,21.96786 -1.57143,23.3 C 221.25071,351.60643 218.76407,352 212.5,352 c -6.26407,0 -8.75071,-0.39357 -9.92857,-1.57143 z m 274.13194,78.22099 c 5.31396,-3.4073 7.81177,-5.96607 10.79771,-11.06119 2.28557,-3.90002 2.55207,-5.32413 2.29256,-12.2507 L 489.5,397.5 l -7,0 -7,0 -0.29571,7.95262 c -0.16264,4.37393 -0.78024,8.53643 -1.37245,9.25 C 473.10314,415.58065 469.99192,416 464.2063,416 451.40779,416 452,417.21932 452,390.86807 l 0,-21.82196 2.41812,-1.58442 c 1.85289,-1.21406 4.71632,-1.53979 12.25,-1.3935 5.40753,0.105 12.86938,0.13261 16.58188,0.0614 L 490,366 l 0,-30.04966 c 0,-25.69997 -0.23421,-30.51291 -1.61805,-33.25 -3.00035,-5.93435 -6.48145,-9.71665 -11.69478,-12.70661 -7.03926,-4.03718 -17.25718,-4.25879 -24.60827,-0.53371 -5.74952,2.9135 -11.69323,9.4923 -13.0773,14.47463 -1.36445,4.91166 -1.32436,105.36302 0.044,110.29009 2.19025,7.88641 10.76951,15.76227 18.64127,17.11291 6.18285,1.06085 15.14562,-0.20608 19.0165,-2.68809 z M 453.57143,350.42857 C 452.23928,349.09643 452,345.54848 452,327.12857 c 0,-15.56667 0.3403,-22.06887 1.2,-22.92857 0.75751,-0.75751 4.55556,-1.2 10.3,-1.2 5.74444,0 9.54249,0.44249 10.3,1.2 0.86147,0.86147 1.2,7.48107 1.2,23.46482 0,26.0031 0.81307,24.33518 -11.86283,24.33518 -5.93422,0 -8.39926,-0.40495 -9.56574,-1.57143 z M 75.755888,349.86756 c 0.221455,-69.78188 0.4552,-80.79786 1.737005,-81.86166 0.814614,-0.67607 4.542729,-1.31917 8.2847,-1.42912 3.741971,-0.10994 7.338608,-0.53056 7.992526,-0.93471 0.982946,-0.60749 1.166164,-8.11699 0.339354,-13.90895 -0.06021,-0.42179 -11.696973,-0.64679 -25.859473,-0.5 L 42.5,251.5 l 0,7.5 0,7.5 4.5,0.0383 c 8.468584,0.0721 10.858456,0.46301 12.428571,2.03313 C 60.830874,269.97373 61,278.72727 61,349.90476 c 0,43.86905 0.318431,80.08034 0.707624,80.46953 0.389193,0.38919 3.651693,0.57669 7.25,0.41667 L 75.5,430.5 z M 125,367.71321 c 0.43283,-54.35253 0.7015,-62.91412 2,-63.73469 2.31388,-1.46221 19.71669,-1.23388 20.69098,0.27148 0.44496,0.6875 1.03402,29.375 1.30902,63.75 l 0.5,62.5 7,0 7,0 0.28837,-60.5 c 0.1586,-33.275 0.0166,-62.83979 -0.31565,-65.69954 -0.7738,-6.66103 -3.83656,-11.21833 -9.44268,-14.05046 -3.78678,-1.91302 -6.04632,-2.25 -15.08694,-2.25 -14.39864,0 -13.8175,0.82245 -14.16737,-20.05031 L 124.5,251.5 l -6.75,-0.29569 c -5.00529,-0.21926 -6.75486,0.0392 -6.7688,1 -0.34536,23.79942 0.15837,177.2125 0.58413,177.9014 0.33489,0.54186 3.38219,0.85225 6.77178,0.68975 L 124.5,430.5 z M 314.73761,365.5 l 0.23762,-65 -2.23817,-3.94427 C 308.57211,289.21593 306.10704,288.5 285,288.5 l -18.5,0 -0.30184,6.40894 c -0.20962,4.45064 0.0959,6.66126 1,7.23469 0.71601,0.45416 7.6822,0.83264 15.48041,0.84106 C 300.32557,303.00375 300,302.77791 300,315 c 0,12.00331 0.004,12 -14.92355,12 -10.56634,0 -12.12536,0.23228 -15.1245,2.2534 -1.8391,1.23937 -4.26815,3.82687 -5.39788,5.75 -1.95525,3.32837 -2.06905,5.27672 -2.36543,40.4966 -0.17125,20.35 -0.0315,38.91036 0.31056,41.24525 0.76544,5.22488 4.53529,9.89525 9.94282,12.31788 3.51964,1.57685 6.57854,1.79274 23.05798,1.62745 l 19,-0.19058 z m -36.08262,48.67126 C 277.18413,412.54598 277,408.60436 277,378.74269 c 0,-29.21197 0.20522,-33.80505 1.57143,-35.17126 C 279.74929,342.39357 282.23593,342 288.5,342 c 6.26407,0 8.75071,0.39357 9.92857,1.57143 C 299.79511,344.93796 300,349.54652 300,378.91644 300,418.798 300.8808,416 288.32625,416 c -6.49605,0 -8.33013,-0.34681 -9.67126,-1.82874 z m 74.32184,-45.82241 c 0.0208,-44.71495 0.34965,-63.03731 1.14861,-64 0.75332,-0.90769 3.5209,-1.34885 8.46182,-1.34885 8.69232,0 9.69139,-1.00623 9.21396,-9.27996 L 371.5,288.5 l -8.15991,-0.28899 c -5.10118,-0.18066 -8.55917,-0.77005 -9.22502,-1.57236 -0.63478,-0.76486 -1.1762,-8.12249 -1.34009,-18.21101 L 352.5,251.5 l -6.39843,-0.30157 c -3.51914,-0.16586 -6.82253,0.12253 -7.34089,0.64089 -0.57482,0.57482 -0.94189,33.32622 -0.94103,83.96191 10e-4,75.31941 0.15559,83.34433 1.66349,86.522 1.86415,3.9284 7.86095,8.5253 11.24069,8.61666 l 2.22382,0.0601 0.0292,-62.65115 z m 46.7808,-0.25558 c 0.17728,-42.94496 0.5952,-62.81347 1.34009,-63.71101 0.68632,-0.82697 4.06869,-1.41005 9.24237,-1.59327 L 418.5,302.5 l 0,-7 0,-7 -8.5,-0.30193 c -10.58939,-0.37615 -15.87011,1.04097 -20.08544,5.39008 -2.67714,2.76211 -3.39056,4.43905 -3.89138,9.14701 -0.82906,7.79352 -0.39577,125.85296 0.46702,127.24898 0.41477,0.67111 3.10992,0.99047 6.84691,0.81132 L 399.5,430.5 z M 202.52212,268.13689 c 6.03784,-2.12471 15.13069,-5.49971 20.20635,-7.5 C 227.80413,258.6366 232.2687,257 232.64973,257 c 0.38103,0 1.51572,-0.74474 2.52153,-1.65499 1.33229,-1.2057 1.82874,-3.08999 1.82874,-6.94098 0,-2.9073 -0.38307,-5.52275 -0.85127,-5.81211 -1.25195,-0.77375 -32.47674,10.82737 -42.14873,15.65976 -4.47645,2.23655 -4.50157,2.27842 -4.7999,7.99832 -0.22176,4.25165 0.0446,5.75 1.02212,5.75 0.72712,0 6.26207,-1.7384 12.2999,-3.86311 z M 280.08606,264.5 c 3.74399,-3.025 7.50574,-5.5 8.35946,-5.5 0.85371,0 4.59022,2.46615 8.30334,5.48033 3.71313,3.01418 7.57006,5.48918 8.57096,5.5 1.97484,0.0214 10.68018,-5.57664 10.68018,-6.86791 0,-0.74316 -2.36151,-2.68551 -19.2651,-15.84555 C 293.01409,244.37009 289.26431,242 288.40204,242 c -1.62914,0 -21.19747,14.94524 -25.16756,19.22163 -2.49913,2.69194 -2.307,3.05082 3.76552,7.03374 3.99143,2.61794 5.86252,2.08098 13.08606,-3.75537 z M 432.5,208.67267 l 0,-44.82732 -3.76874,-3.45331 -3.76873,-3.4533 -12.23127,0.28063 L 400.5,157.5 l 0,4.5 0,4.5 10,0.26381 c 8.74628,0.23073 10.2194,0.52671 11.75,2.36078 2.1967,2.63225 2.30375,9.6398 0.1933,12.6529 -1.38914,1.98327 -2.42205,2.22251 -9.59563,2.22251 -9.56561,0 -13.16937,1.8967 -14.80699,7.7931 -1.43839,5.17904 -1.36032,51.99154 0.0937,56.16244 1.77503,5.09188 5.17313,6.03151 20.86565,5.76969 l 13.5,-0.22523 0,-44.82733 z m -24.53952,35.28781 c -1.93879,-1.93879 -2.03265,-3.13129 -1.90031,-24.14514 0.13725,-21.7949 0.17231,-22.13873 2.49407,-24.46048 3.96502,-3.96503 13.71807,-2.63115 14.77434,2.02061 0.26532,1.16849 0.55185,11.86766 0.63673,23.77593 0.15318,21.49243 0.13756,21.66314 -2.128,23.25 -3.37782,2.36592 -11.32243,2.11348 -13.87683,-0.44092 z m 73.64988,6.62916 3.41036,-3.41036 -0.26036,-44.83964 L 484.5,157.5 l -4.25,-0.3075 -4.25,-0.3075 -0.0852,37.3075 c -0.0469,20.51913 -0.0157,39.63882 0.0693,42.48821 0.20783,6.96693 -2.04188,9.31929 -8.91261,9.31929 -7.90902,0 -8.06516,-0.39121 -8.1106,-20.32143 -0.0215,-9.44821 -0.13404,-28.65357 -0.25,-42.67857 L 458.5,157.5 l -4,0 -4,0 -0.26052,47 c -0.14328,25.85 -0.0449,47.5625 0.21862,48.25 0.35089,0.91543 4.12761,1.25 14.11052,1.25 L 478.2,254 z M 237.66709,209.93803 c 5.76152,-2.45816 10.70887,-6.95946 13.67054,-12.43803 2.14111,-3.96068 2.16237,-4.53576 2.16237,-58.5 0,-54.171797 -0.0132,-54.524658 -2.19109,-58.59468 -2.57978,-4.82107 -8.22274,-10.027632 -13.23618,-12.212551 -2.13978,-0.93254 -6.58084,-1.576113 -11.07273,-1.604597 -7.03362,-0.0446 -7.84996,0.185372 -13.12777,3.698243 -6.83584,4.549879 -10.62424,10.004782 -11.95763,17.217729 -0.61065,3.30331 -0.8874,24.871926 -0.70839,55.208556 L 201.5,192.5 l 2.3426,4.5 c 3.24349,6.23054 5.77726,8.74219 12.1574,12.05123 6.92492,3.5916 14.592,3.9054 21.66709,0.8868 z M 217.5567,193.77749 C 216.19617,191.83505 216,184.99536 216,139.5 216,94.004639 216.19617,87.164947 217.5567,85.222506 218.96352,83.213992 219.95525,83 227.8567,83 c 5.46701,0 9.19296,0.449664 9.9433,1.2 0.90355,0.903554 1.2,14.473016 1.2,54.92857 0,47.51082 -0.18185,53.91043 -1.57143,55.3 -1.1783,1.1783 -3.66584,1.57143 -9.94329,1.57143 -7.51764,0 -8.53071,-0.22678 -9.92858,-2.22251 z m 96.56887,15.82088 c 5.68897,-2.54219 10.67737,-7.13581 13.1381,-12.09837 1.76774,-3.56501 3.14517,-17.44376 1.91566,-19.30184 -0.59653,-0.9015 -2.83235,-1.20902 -7.27039,-1 L 315.5,177.5 l -0.29834,7.47468 C 314.79424,195.18198 313.93893,196 303.67375,196 291.49652,196 292,197.07964 292,170.96746 c 0,-18.96361 0.20952,-21.89688 1.64968,-23.09502 1.19798,-0.99666 6.33183,-1.50934 18.75,-1.87244 l 17.10032,-0.5 0,-29 c 0,-32.669566 -0.23502,-34.087477 -6.83734,-41.250148 -6.0586,-6.572807 -10.57119,-8.51301 -19.7998,-8.51301 -6.24904,0 -8.42328,0.432391 -11.53193,2.293345 C 285.76132,72.36437 283.1439,74.933483 280.15484,80 l -2.65484,4.5 0,53.5 c 0,59.08778 -0.0938,58.12326 6.34248,65.24741 7.59762,8.40965 19.90162,10.99005 30.28309,6.35096 z M 294.22251,130.4433 C 292.04372,128.91721 292,128.46619 292,107.51472 292,89.419088 292.24089,85.901963 293.57143,84.571429 294.74929,83.393569 297.23593,83 303.5,83 c 6.26407,0 8.75071,0.393569 9.92857,1.571429 C 314.75703,85.899886 315,89.378788 315,107.07143 315,132.45858 315.20746,132 303.72251,132 c -4.96824,0 -7.98273,-0.49397 -9.5,-1.5567 z M 140.4043,174.5 c -0.0526,-19.25 -0.63117,-43.58393 -1.28562,-54.07539 -0.65445,-10.49147 -0.89227,-19.85106 -0.52847,-20.799096 0.36379,-0.948034 1.3846,-1.584431 2.26846,-1.414216 1.84862,0.356013 5.10235,13.622882 7.55098,30.788702 0.82378,5.775 3.14882,18.375 5.16677,28 2.01794,9.625 4.03852,19.75 4.49016,22.5 0.45165,2.75 1.26556,6.575 1.8087,8.5 0.54313,1.925 1.53254,7.1 2.19869,11.5 0.66615,4.4 1.65212,8.5625 2.19105,9.25 1.05994,1.35214 12.28977,1.78146 13.07866,0.5 0.25395,-0.4125 0.61801,-39.98981 0.80902,-87.94958 0.24977,-62.710861 0.0372,-87.509804 -0.75695,-88.304249 -0.63389,-0.634131 -3.61559,-0.975077 -7,-0.800424 L 164.5,32.5 163.82412,37 c -1.30334,8.677663 -0.83463,53.729926 0.80739,77.60553 C 166.3111,139.0275 166.12241,144 163.51613,144 c -2.03911,0 -3.39026,-2.97298 -4.40692,-9.69668 -1.68872,-11.16842 -4.17655,-25.86718 -5.63674,-33.30332 -0.81,-4.125 -2.84519,-14.7 -4.52263,-23.5 -3.38778,-17.772508 -7.7057,-38.659034 -8.78614,-42.5 -0.63374,-2.252986 -1.28381,-2.530062 -6.57921,-2.804253 -3.23179,-0.167339 -6.29919,0.118957 -6.81645,0.636213 -1.12001,1.120009 -1.45025,174.25519 -0.33581,176.05838 0.48647,0.78714 3.02208,1.09652 7.40381,0.90339 L 140.5,209.5 z m 225.9965,34.6605 c 0.38145,-0.61718 0.94441,-146.677775 0.64139,-166.407619 -0.0736,-4.795762 -10.95722,-14.504516 -13.45718,-12.00456 -0.81782,0.81782 -0.73691,177.766449 0.0817,178.585009 0.96976,0.96977 12.12151,0.81841 12.73413,-0.17283 z M 297.54002,44.696554 c 0.31797,-1.266896 0.43905,-4.754396 0.26906,-7.75 L 297.5,31.5 l -8,0 -8,0 -0.30147,6.394673 c -0.16581,3.51707 -0.0674,7.00457 0.21861,7.75 C 281.7909,46.618679 284.05082,47 289.44956,47 c 7.00823,0 7.55113,-0.154571 8.09046,-2.303446 z m 27.49336,-2.833074 c 0.29335,-2.550086 1.15178,-5.381657 1.90761,-6.292381 0.98181,-1.183007 1.06664,-1.963468 0.29706,-2.733046 -1.53551,-1.535516 -7.93799,-2.50178 -13.48805,-2.035624 l -4.75,0.398958 0,6.699307 c 0,3.997919 0.5001,7.199402 1.24021,7.93952 0.80068,0.800678 3.54731,1.137361 7.75,0.95 L 324.5,46.5 z"
         id="path2989"
         inkscape:connector-curvature="0"
         sodipodi:nodetypes="cccscccssssscssssssssccssssssssssscccsssscssccsssssssssssssssssssssscccssssscssssscccscssscsssscsccsscscsssssssssccsssssssscssscssscssssscccssscccssssscsssssssssssssscssssssccccccccssssssscccsssssssccccccssssscccsssccssssssssscsssssssssssssssscssssscssssscssssssssssssssssssssscssscssssssssssscsccscccsscccscsssssscssscs" />
    </g>
  </g>
</svg>
