<?xml version="1.0" encoding="UTF-8" standalone="no"?>
<!-- Created with Inkscape (http://www.inkscape.org/) -->

<svg
   xmlns:dc="http://purl.org/dc/elements/1.1/"
   xmlns:cc="http://creativecommons.org/ns#"
   xmlns:rdf="http://www.w3.org/1999/02/22-rdf-syntax-ns#"
   xmlns:svg="http://www.w3.org/2000/svg"
   xmlns="http://www.w3.org/2000/svg"
   xmlns:sodipodi="http://sodipodi.sourceforge.net/DTD/sodipodi-0.dtd"
   xmlns:inkscape="http://www.inkscape.org/namespaces/inkscape"
   id="svg2"
   version="1.1"
   inkscape:version="0.48.4 r9939"
   width="100.00001"
   height="48.416359"
   sodipodi:docname="CTEJ-black-sans-baseline.svg">
  <metadata
     id="metadata8">
    <rdf:RDF>
      <cc:Work
         rdf:about="">
        <dc:format>image/svg+xml</dc:format>
        <dc:type
           rdf:resource="http://purl.org/dc/dcmitype/StillImage" />
        <dc:title />
      </cc:Work>
    </rdf:RDF>
  </metadata>
  <defs
     id="defs6" />
  <sodipodi:namedview
     pagecolor="#ffffff"
     bordercolor="#666666"
     borderopacity="1"
     objecttolerance="10"
     gridtolerance="10"
     guidetolerance="10"
     inkscape:pageopacity="0"
     inkscape:pageshadow="2"
     inkscape:window-width="1276"
     inkscape:window-height="775"
     id="namedview4"
     showgrid="false"
     fit-margin-top="0"
     fit-margin-left="0"
     fit-margin-right="0"
     fit-margin-bottom="0"
     inkscape:zoom="0.28333333"
     inkscape:cx="475.60894"
     inkscape:cy="156.10469"
     inkscape:window-x="0"
     inkscape:window-y="21"
     inkscape:window-maximized="1"
     inkscape:current-layer="g2987" />
  <g
     id="g2987"
     transform="translate(-103.21459,-540.8942)">
    <path
       style="fill:#d0d0d0;fill-opacity:1"
       d="m 187.91197,585.99182 0,-3.31624 1.41736,-0.0576 c 1.72222,-0.07 2.74884,-0.28944 3.87767,-0.82887 1.49569,-0.71476 2.42622,-1.89686 2.98685,-3.79439 0.21941,-0.74261 0.22237,-0.92664 0.25071,-15.59358 l 0.0287,-14.8421 -5.45731,0 -5.45731,0 0,-3.31608 0,-3.31607 8.82504,0 8.82503,0 0,18.01045 c 0,15.72858 -0.0208,18.13001 -0.16455,18.9541 -0.93657,5.37061 -3.88601,9.02024 -8.55685,10.58819 -1.52358,0.51145 -2.66602,0.6984 -4.67661,0.76527 l -1.89872,0.0632 0,-3.31624 z m -41.82531,-19.81998 0,-18.6128 -6.52518,0 -6.52518,0 0,-3.31608 0,-3.31607 9.84125,0 9.84126,0 0,21.92887 0,21.92888 -3.31608,0 -3.31607,0 0,-18.6128 z m -24.06828,18.33558 c -4.47929,-0.6491 -8.69342,-2.6586 -11.86095,-5.65585 -4.00561,-3.79027 -6.36035,-8.70755 -6.86596,-14.33777 -0.47936,-5.33796 1.3028,-11.09673 4.79246,-15.48611 0.81248,-1.02195 2.42311,-2.60734 3.4704,-3.41602 3.526,-2.72262 8.17426,-4.36612 13.15448,-4.65107 l 1.1605,-0.0664 0,3.27893 0,3.27894 -0.93599,0.002 c -4.10234,0.009 -8.09486,1.78202 -11.08017,4.9217 -2.01937,2.12378 -3.1875,4.37587 -3.82684,7.3779 -0.32386,1.52069 -0.35009,4.25724 -0.0559,5.82987 1.11559,5.96323 5.66723,10.77398 11.53887,12.19572 6.15815,1.49112 12.60916,-0.9725 16.16614,-6.17378 l 0.4138,-0.6051 2.71632,1.81293 2.71632,1.81293 -0.18421,0.2923 c -1.15719,1.83624 -3.25732,4.09387 -5.05982,5.43928 -3.06937,2.29104 -6.66768,3.7357 -10.48027,4.20768 -1.24379,0.15397 -4.54492,0.12082 -5.77919,-0.058 z m 35.62105,-21.70514 0,-21.87539 11.49929,0 11.49929,0 0,3.31607 0,3.31608 -8.12973,0 -8.12973,0 0,5.88266 0,5.88266 7.83556,0.0274 7.83556,0.0274 0,3.36955 0,3.36956 -7.83556,0.0274 -7.83556,0.0274 0,5.93614 0,5.93615 8.12973,0 8.12973,0 0,3.31608 0,3.31607 -11.49929,0 -11.49929,0 0,-21.87539 z"
       id="path3003"
       inkscape:connector-curvature="0" />
    <path
       style="fill:#b9b9b9;fill-opacity:1"
       d="m 187.91197,585.99317 0,-3.31523 1.52433,-0.0645 c 1.78714,-0.0756 2.84601,-0.31465 3.93997,-0.88951 1.79608,-0.94382 2.75335,-2.58068 3.08794,-5.28016 0.0733,-0.59132 0.11234,-5.76977 0.11234,-14.89559 l 0,-13.98915 -5.50896,0 -5.50896,0 0,-3.31608 0,-3.31607 8.82711,0 8.82711,0 -0.0326,18.37212 c -0.0306,17.27299 -0.0441,18.42011 -0.2255,19.17439 -0.49377,2.05301 -1.33041,4.09347 -2.21498,5.40199 -0.51469,0.76137 -1.93642,2.21516 -2.76333,2.82563 -2.16919,1.60143 -4.8377,2.42731 -8.21928,2.54381 l -1.84524,0.0636 0,-3.31523 z m -38.74992,-1.2904 -3.07539,-0.0284 0,-18.55768 0,-18.55767 -6.52518,0 -6.52518,0 0,-3.31608 0,-3.31607 9.84125,0 9.84126,0 0,21.86292 0,21.86292 -0.24069,0.0392 c -0.13237,0.0216 -1.62461,0.0264 -3.31607,0.0108 z m -26.75893,-0.14692 c -6.71618,-0.8618 -12.65141,-4.71821 -16.02888,-10.41474 -5.15539,-8.69521 -3.81059,-19.7032 3.27645,-26.81978 3.76552,-3.78121 8.95016,-5.9739 15.0152,-6.35022 l 1.20342,-0.0747 0,3.27781 0,3.27782 -0.98948,6.4e-4 c -4.03541,0.003 -8.00208,1.76644 -11.0026,4.89255 -1.98564,2.06876 -3.23022,4.43153 -3.85972,7.32749 -0.34173,1.57211 -0.3413,4.66253 8.5e-4,6.25183 0.99849,4.63765 3.99439,8.53133 8.18774,10.64134 2.27765,1.14607 4.31207,1.62386 6.91439,1.62386 1.9314,0 3.13726,-0.18654 4.81241,-0.74444 2.99126,-0.99624 5.69775,-2.9718 7.48748,-5.46536 l 0.69362,-0.96641 2.70392,1.81012 2.70392,1.81011 -0.34183,0.50245 c -1.62348,2.38625 -3.42577,4.21722 -5.68689,5.77736 -2.72585,1.8808 -6.07302,3.15621 -9.46985,3.60842 -1.25174,0.16665 -4.43578,0.18581 -5.62018,0.0338 z m 35.32963,-21.51289 c -0.008,-11.89909 -0.025,-21.74301 -0.0389,-21.87539 l -0.0252,-0.24068 11.48468,0 11.48469,0 0,3.31607 0,3.31608 -8.12973,0 -8.12973,0 0,5.88266 0,5.88266 7.81202,0.0274 7.81202,0.0274 0,3.36955 0,3.36956 -7.81202,0.0274 -7.81202,0.0274 0,5.93614 0,5.93615 8.12973,0 8.12973,0 0,3.31608 0,3.31607 -11.44581,0 -11.4458,0 -0.0136,-21.63471 z"
       id="path3001"
       inkscape:connector-curvature="0" />
    <path
       style="fill:#a3a3a3;fill-opacity:1"
       d="m 187.93717,585.98805 0.0283,-3.28933 1.49758,-0.072 c 1.76231,-0.0848 2.82691,-0.33192 3.93283,-0.91306 1.46266,-0.76861 2.30288,-1.90987 2.83807,-3.85492 l 0.28709,-1.04335 0.031,-14.62817 0.031,-14.62816 -5.51223,0 -5.51223,0 0,-3.31608 0,-3.31607 8.8274,0 8.82739,0 -0.0319,18.37212 -0.0319,18.37212 -0.28183,1.12318 c -0.75003,2.9891 -1.87651,5.09383 -3.64454,6.80947 -1.00182,0.97213 -1.78878,1.53126 -3.02116,2.14653 -2.00851,1.00276 -4.41025,1.52707 -6.99508,1.52707 l -1.2982,0 0.0283,-3.28933 z m -65.38394,-1.43047 c -5.62936,-0.64785 -10.9072,-3.54144 -14.4076,-7.89902 -4.71226,-5.86622 -6.12307,-13.65023 -3.76582,-20.77759 0.76653,-2.31765 2.18376,-4.93586 3.67821,-6.79515 0.84331,-1.04919 2.628,-2.79288 3.63775,-3.55418 3.56036,-2.68433 8.00005,-4.23877 13.0252,-4.56045 l 1.15152,-0.0737 -0.0283,3.25055 -0.0283,3.25055 -1.39061,0.0658 c -3.38443,0.16005 -6.41484,1.31212 -8.9965,3.4202 -2.87021,2.3437 -4.63431,5.21059 -5.41215,8.79545 -0.3419,1.57573 -0.3419,4.66885 0,6.24458 2.04937,9.44502 11.86643,14.73621 20.79487,11.20801 2.46158,-0.97273 5.01731,-2.91357 6.39671,-4.8577 0.26475,-0.37315 0.58505,-0.80334 0.71177,-0.956 l 0.23041,-0.27755 2.6811,1.80479 2.68111,1.80479 -0.53846,0.7789 c -3.51743,5.08815 -9.12004,8.42494 -15.33976,9.13604 -1.1263,0.12876 -3.92999,0.12421 -5.08108,-0.008 z m 23.53343,-18.43923 0,-18.55931 -6.52518,0 -6.52518,0 0,-3.31608 0,-3.31607 9.84125,0 9.84126,0 0,21.87539 0,21.87539 -3.31608,0 -3.31607,0 0,-18.55932 z m 11.65974,-3.31607 0,-21.87539 11.4458,0 11.44581,0 0,3.31607 0,3.31608 -8.12973,0 -8.12973,0 0,5.88335 0,5.88336 7.80882,0 7.80882,0 0,3.42304 0,3.42305 -7.80882,0 -7.80882,0 0,5.93684 0,5.93684 8.12973,0 8.12973,0 0,3.31608 0,3.31607 -11.44581,0 -11.4458,0 0,-21.87539 z"
       id="path2999"
       inkscape:connector-curvature="0" />
    <path
       style="fill:#8c8c8c;fill-opacity:1"
       d="m 187.96624,589.15753 c -0.0317,-0.0825 -0.0448,-1.56951 -0.0292,-3.30442 l 0.0284,-3.15439 1.55107,-0.0706 c 4.26714,-0.19422 6.32516,-1.909 6.90464,-5.75312 0.12823,-0.85058 0.15423,-3.3995 0.15475,-15.16917 l 6.3e-4,-14.1468 -5.50896,0 -5.50896,0 0,-3.31608 0,-3.31607 8.8274,0 8.8274,0 -0.0324,18.31863 c -0.0321,18.15115 -0.0345,18.32745 -0.25623,19.28265 -1.35844,5.85136 -4.82394,9.33421 -10.38102,10.43302 -1.49279,0.29517 -4.49026,0.42374 -4.57752,0.19634 z m -64.87816,-4.55248 c -6.77852,-0.6948 -12.51064,-4.11615 -16.18715,-9.66166 -2.58936,-3.9057 -3.88344,-8.74004 -3.59649,-13.4355 0.0964,-1.57695 0.22754,-2.44134 0.59507,-3.92173 0.77143,-3.10723 2.27864,-6.13846 4.29876,-8.64549 0.78436,-0.9734 2.61854,-2.7597 3.53542,-3.44313 2.8102,-2.09465 6.14246,-3.49581 9.86339,-4.14736 1.34616,-0.23572 3.88196,-0.47279 4.11218,-0.38445 0.14217,0.0546 0.15958,0.47364 0.1349,3.24775 l -0.0283,3.1851 -1.4441,0.0682 c -2.88531,0.1363 -5.43135,0.96936 -7.77348,2.54344 -3.42827,2.30406 -5.72955,5.65663 -6.57792,9.58294 -0.27097,1.25408 -0.37423,3.84911 -0.20431,5.13456 0.35554,2.6896 1.33616,5.16156 2.85132,7.18764 3.82783,5.11857 10.12075,7.38471 16.22928,5.84431 3.42116,-0.86272 6.50036,-2.93772 8.51267,-5.73647 0.37221,-0.51766 0.71457,-0.92682 0.76081,-0.90924 0.30507,0.11602 5.23763,3.47798 5.23972,3.57131 0.007,0.29729 -1.83833,2.64004 -2.94385,3.7381 -3.43913,3.41595 -8.03044,5.5965 -12.93862,6.14495 -0.90004,0.10057 -3.59855,0.12289 -4.43926,0.0367 z m 22.99858,-18.4867 0,-18.55931 -6.52518,0 -6.52518,0 0,-3.31608 0,-3.31607 9.84125,0 9.84126,0 0,21.87539 0,21.87539 -3.31608,0 -3.31607,0 0,-18.55932 z m 11.65974,-3.31607 0,-21.87539 11.4458,0 11.44581,0 0,3.31607 0,3.31608 -8.12973,0 -8.12973,0 0,5.88335 0,5.88336 7.6751,0.0127 c 4.22131,0.007 7.73528,0.005 7.80882,-0.005 0.10455,-0.0136 0.13372,0.73024 0.13372,3.41037 l 0,3.42773 -7.80882,0 -7.80882,0 0,5.93684 0,5.93684 8.12973,0 8.12973,0 0,3.31608 0,3.31607 -11.44581,0 -11.4458,0 0,-21.87539 z"
       id="path2997"
       inkscape:connector-curvature="0" />
    <path
       style="fill:#767676;fill-opacity:1"
       d="m 188.01895,589.24599 c -0.0294,-0.0316 -0.0401,-1.52372 -0.0238,-3.31575 l 0.0297,-3.25824 1.52134,-0.0562 c 0.91148,-0.0337 1.80006,-0.12931 2.21664,-0.23861 2.44486,-0.64148 3.84634,-2.05497 4.51362,-4.55231 l 0.24117,-0.90256 0.032,-14.68165 0.032,-14.68165 -5.51152,0 -5.51153,0 0,-3.31608 0,-3.31607 8.82741,0 8.8274,0 -0.0295,18.26515 -0.0295,18.26515 -0.23412,1.01621 c -0.35029,1.5204 -0.72745,2.60373 -1.33708,3.84056 -1.7992,3.65022 -4.97247,5.91624 -9.39099,6.70606 -0.91207,0.16303 -4.07266,0.33417 -4.17327,0.22597 z m -65.25178,-4.67845 c -2.70131,-0.3252 -4.86399,-0.94788 -7.22048,-2.07895 -4.88119,-2.34286 -8.59153,-6.3257 -10.69396,-11.47936 -1.67708,-4.111 -2.02417,-9.18208 -0.92522,-13.51752 1.42493,-5.62142 5.00925,-10.48506 9.80878,-13.30974 3.15885,-1.85908 6.65259,-2.86831 11.09006,-3.20357 l 0.93599,-0.0707 -5.4e-4,3.24545 -5.3e-4,3.24545 -0.98206,0.0244 c -4.06369,0.10083 -7.63375,1.64419 -10.60852,4.58611 -2.0927,2.06958 -3.42729,4.44737 -4.09235,7.29115 -0.33136,1.4169 -0.45755,4.05936 -0.26337,5.51519 1.38999,10.42129 12.61317,16.48258 22.00645,11.885 2.23008,-1.09152 4.3291,-2.85093 5.6438,-4.73066 0.34148,-0.48826 0.65872,-0.87335 0.70496,-0.85576 0.31711,0.12059 5.23765,3.47989 5.23972,3.57721 0.005,0.24323 -1.92705,2.69868 -2.87292,3.65089 -3.15641,3.17752 -7.28889,5.28836 -11.88635,6.07148 -1.19608,0.20373 -4.70682,0.29562 -5.88336,0.15398 z m 23.31949,-18.44919 0,-18.55931 -6.47169,0 -6.4717,0 0,-3.31608 0,-3.31607 9.78777,0 9.78777,0 0,21.87539 0,21.87539 -3.31608,0 -3.31607,0 0,-18.55932 z m 11.65974,-3.31607 0,-21.87539 11.44735,0 11.44735,0 -0.0283,3.28933 -0.0283,3.28933 -8.10298,0.0274 -8.10299,0.0274 0,5.93617 0,5.93617 7.80882,0 7.80882,0 0,3.31607 0,3.31608 -7.80882,0 -7.80882,0 0,5.99032 0,5.99033 8.12973,0 8.12973,0 0,3.31608 0,3.31607 -11.44581,0 -11.4458,0 0,-21.87539 z"
       id="path2995"
       inkscape:connector-curvature="0" />
    <path
       style="fill:#606060;fill-opacity:1"
       d="m 188.01895,585.99209 0,-3.31778 1.5778,-0.0587 c 1.15673,-0.0431 1.79172,-0.12033 2.37933,-0.28954 2.06384,-0.59431 3.38246,-1.7866 4.02761,-3.64174 0.57855,-1.66361 0.57202,-1.47107 0.57246,-16.87052 l 4e-4,-14.2528 -5.48221,-0.0277 -5.48222,-0.0277 -0.0283,-3.28933 -0.0283,-3.28933 8.82895,0 8.82895,0 -0.0325,18.26515 -0.0325,18.26515 -0.23448,1.01621 c -0.90299,3.91345 -2.70586,6.74209 -5.42555,8.51246 -2.20772,1.43711 -4.61712,2.12711 -7.89159,2.25998 l -1.5778,0.064 0,-3.31777 z m -65.19829,-1.42562 c -7.59321,-0.8626 -13.96623,-5.3009 -17.27394,-12.02991 -4.08904,-8.3185 -2.52985,-18.30004 3.89933,-24.96243 1.64506,-1.70474 3.32096,-2.93439 5.4751,-4.01722 3.06086,-1.53863 5.81875,-2.24775 10.01217,-2.57437 l 0.82902,-0.0646 0,3.27426 c 0,3.18891 -0.005,3.27254 -0.20699,3.20856 -0.27714,-0.088 -2.61383,0.12035 -3.57226,0.31845 -2.96399,0.61265 -5.58456,2.05192 -7.86896,4.32179 -2.93235,2.91368 -4.39645,6.49739 -4.39645,10.76125 0,4.29224 1.46946,7.85098 4.48522,10.86231 2.27637,2.27302 4.73959,3.62091 7.84881,4.29491 1.46487,0.31755 4.57591,0.34474 5.9436,0.0519 3.80736,-0.81507 7.10086,-2.85623 9.2239,-5.71655 0.42536,-0.57308 0.80807,-1.08227 0.85046,-1.13153 0.0719,-0.0835 5.15705,3.24522 5.29252,3.46441 0.14835,0.24004 -1.69571,2.57788 -3.12071,3.95635 -3.21157,3.10669 -7.03281,5.04052 -11.4305,5.78467 -1.47037,0.24881 -4.62413,0.35288 -5.99032,0.19768 z m 23.266,-18.44812 0,-18.55931 -6.47169,0 -6.4717,0 0,-3.31608 0,-3.31607 9.78777,0 9.78777,0 0,21.87539 0,21.87539 -3.31608,0 -3.31607,0 0,-18.55932 z m 11.65974,-3.31607 0,-21.87539 11.44735,0 11.44735,0 -0.0283,3.28933 -0.0283,3.28933 -8.10298,0.0274 -8.10299,0.0274 0,5.93617 0,5.93617 7.80882,0 7.80882,0 0,3.31607 0,3.31608 -7.80882,0 -7.80882,0 0,5.98965 0,5.98966 8.10299,0.0274 8.10298,0.0274 0.0283,3.28933 0.0283,3.28933 -11.44735,0 -11.44735,0 0,-21.87539 z"
       id="path2993"
       inkscape:connector-curvature="0" />
    <path
       style="fill:#494949;fill-opacity:1"
       d="m 188.01895,585.97136 0,-3.30602 1.20341,-0.004 c 3.91276,-0.014 6.14416,-1.52379 7.05876,-4.77596 l 0.24066,-0.85576 0.0299,-14.73514 c 0.0165,-8.10432 -0.007,-14.73529 -0.0528,-14.73548 -0.0455,-2.1e-4 -2.46652,-0.003 -5.37997,-0.005 -2.91345,-0.003 -5.35454,-0.0403 -5.42465,-0.0837 -0.0949,-0.0586 -0.12167,-0.89815 -0.1048,-3.28409 l 0.0227,-3.20531 8.80095,-0.0274 8.80095,-0.0274 -0.0355,18.26577 c -0.0352,18.11677 -0.0373,18.27362 -0.26015,19.2285 -1.06162,4.54892 -3.20572,7.53546 -6.6461,9.25742 -2.0741,1.03812 -4.67982,1.59966 -7.42433,1.59995 l -0.82901,9e-5 0,-3.30602 z m -64.55647,-1.36316 c -0.1765,-0.0206 -0.77324,-0.0899 -1.3261,-0.15414 -2.70369,-0.31396 -5.90402,-1.43327 -8.33834,-2.91631 -6.3474,-3.86696 -10.21014,-10.4865 -10.46815,-17.93919 -0.18165,-5.2471 1.36747,-10.07738 4.56084,-14.22103 2.97349,-3.85833 7.03535,-6.42925 12.1487,-7.68943 1.48554,-0.3661 5.39145,-0.84646 5.63897,-0.69349 0.0462,0.0285 0.0839,1.46221 0.0839,3.18596 l 0,3.13408 -1.20342,0.076 c -3.1998,0.20204 -5.93178,1.13536 -8.3679,2.85869 -1.9594,1.3861 -3.89817,3.61807 -4.94026,5.68739 -0.5215,1.03555 -1.16447,3.03613 -1.36719,4.25397 -0.25364,1.52365 -0.23205,4.02816 0.0472,5.47471 0.62167,3.22046 1.90551,5.62179 4.27702,7.99984 1.89665,1.90189 3.63561,2.99548 6.02941,3.79178 1.88666,0.6276 2.67746,0.74888 4.88333,0.74888 2.20586,0 2.99666,-0.12128 4.88332,-0.74888 2.87312,-0.95574 5.47695,-2.81971 7.22034,-5.16873 0.42263,-0.56945 0.80126,-1.07382 0.8414,-1.12083 0.0628,-0.0735 4.82391,3.02698 5.22303,3.40129 0.11899,0.11159 0.075,0.23325 -0.25661,0.70929 -2.24951,3.22952 -5.0915,5.661 -8.52627,7.29469 -2.13352,1.01477 -4.79429,1.74837 -7.2304,1.99349 -1.03561,0.1042 -3.08558,0.12678 -3.81285,0.042 z m 22.62418,-18.4883 0,-18.56086 -6.47169,0 -6.4717,0 0,-3.31664 0,-3.31664 9.76103,0.0273 9.76102,0.0273 0,21.8219 0,21.8219 -3.28933,0.0283 -3.28933,0.0283 0,-18.56086 z m 11.65974,-3.31762 0,-21.87636 11.41906,0.0272 11.41906,0.0272 0.0192,3.15378 c 0.0129,2.11903 -0.0186,3.19925 -0.0958,3.29234 -0.0924,0.11132 -1.68909,0.13673 -8.12271,0.1293 l -8.00771,-0.009 -0.004,5.91634 -0.004,5.91634 7.81371,0.0274 7.81372,0.0274 0,3.31468 0,3.31469 -7.81067,0.0274 -7.81067,0.0274 0,5.96623 1e-5,5.96622 8.06615,-0.004 c 7.02536,-0.003 8.07398,0.0165 8.1269,0.15439 0.0334,0.0871 0.0508,1.56786 0.0387,3.29063 l -0.0221,3.13229 -11.41906,0.0272 -11.41906,0.0272 0,-21.87636 z"
       id="path2991"
       inkscape:connector-curvature="0" />
    <path
       style="fill:#000000;fill-opacity:1"
       d="m 188.01895,586.04704 0,-3.26357 1.31038,-0.0729 c 2.71716,-0.15107 4.33031,-0.75159 5.55345,-2.06735 0.60352,-0.64922 0.95314,-1.31603 1.34481,-2.56485 l 0.29548,-0.94213 0,-14.81537 0,-14.81536 -5.42873,-0.0277 -5.42874,-0.0277 0,-3.26161 0,-3.26161 8.7745,0 8.7745,0 -0.0337,18.21166 -0.0337,18.21167 -0.24271,1.0697 c -1.03704,4.57039 -3.16012,7.50193 -6.70228,9.25448 -2.03064,1.00469 -3.88306,1.44082 -6.65477,1.56676 l -1.52844,0.0694 0,-3.26357 z m -64.97755,-1.48457 c -9.93715,-0.94823 -17.83428,-8.36285 -19.47348,-18.28366 -0.24169,-1.46275 -0.32149,-3.99211 -0.17344,-5.49719 0.73213,-7.44268 5.07854,-13.92525 11.54254,-17.21542 2.77707,-1.41352 6.27878,-2.3377 9.46145,-2.49709 l 1.36387,-0.0683 0,3.15584 0,3.15584 -1.22592,0.07 c -3.34589,0.1911 -6.46741,1.33645 -8.9134,3.27054 -2.94226,2.32648 -4.82883,5.28773 -5.58968,8.77379 -0.91145,4.17613 -0.0892,8.56744 2.25641,12.04998 0.80432,1.1942 3.02988,3.3997 4.19392,4.15611 2.64205,1.71686 4.99531,2.47988 7.99502,2.59231 3.52338,0.13207 6.39226,-0.67476 9.29494,-2.61404 1.12262,-0.75003 2.99296,-2.57691 3.7501,-3.66298 0.30761,-0.44125 0.60592,-0.78931 0.66291,-0.77346 0.14891,0.0414 5.22577,3.44663 5.22577,3.5051 0,0.0269 -0.24794,0.39798 -0.55096,0.82473 -3.41859,4.81444 -8.26865,7.84968 -14.14203,8.85029 -1.49814,0.25523 -4.15919,0.35251 -5.67802,0.20759 z m 23.04526,-18.44412 0,-18.55931 -6.47169,0 -6.4717,0 0,-3.31608 0,-3.31607 9.73428,0 9.73429,0 0,21.87539 0,21.87539 -3.26259,0 -3.26259,0 0,-18.55932 z m 11.65974,-3.31607 0,-21.87539 11.39232,0 11.39232,0 0,3.26192 0,3.26191 -8.10299,0.0274 -8.10299,0.0274 0,5.93684 0,5.93685 7.83556,0.0274 7.83557,0.0274 0,3.31468 0,3.31469 -7.83557,0.0274 -7.83556,0.0274 0,5.99033 0,5.99033 8.10299,0.0274 8.10299,0.0274 0,3.26191 0,3.26192 -11.39232,0 -11.39232,0 0,-21.87539 z"
       id="path2989"
       inkscape:connector-curvature="0" />
  </g>
</svg>
