<?xml version="1.0" encoding="UTF-8" standalone="no"?>
<!-- Created with Inkscape (http://www.inkscape.org/) -->

<svg
   xmlns:dc="http://purl.org/dc/elements/1.1/"
   xmlns:cc="http://creativecommons.org/ns#"
   xmlns:rdf="http://www.w3.org/1999/02/22-rdf-syntax-ns#"
   xmlns:svg="http://www.w3.org/2000/svg"
   xmlns="http://www.w3.org/2000/svg"
   xmlns:sodipodi="http://sodipodi.sourceforge.net/DTD/sodipodi-0.dtd"
   xmlns:inkscape="http://www.inkscape.org/namespaces/inkscape"
   width="100"
   height="62.64006"
   id="svg3420"
   version="1.1"
   inkscape:version="0.48.4 r9939"
   sodipodi:docname="culture-be.svg">
  <defs
     id="defs3422" />
  <sodipodi:namedview
     id="base"
     pagecolor="#ffffff"
     bordercolor="#666666"
     borderopacity="1.0"
     inkscape:pageopacity="0.0"
     inkscape:pageshadow="2"
     inkscape:zoom="0.7546875"
     inkscape:cx="-319.56638"
     inkscape:cy="195.81812"
     inkscape:document-units="px"
     inkscape:current-layer="layer1"
     showgrid="false"
     inkscape:window-width="1276"
     inkscape:window-height="775"
     inkscape:window-x="0"
     inkscape:window-y="21"
     inkscape:window-maximized="1"
     fit-margin-top="0"
     fit-margin-left="0"
     fit-margin-right="0"
     fit-margin-bottom="0"
     showguides="true"
     inkscape:guide-bbox="true" />
  <metadata
     id="metadata3425">
    <rdf:RDF>
      <cc:Work
         rdf:about="">
        <dc:format>image/svg+xml</dc:format>
        <dc:type
           rdf:resource="http://purl.org/dc/dcmitype/StillImage" />
        <dc:title />
      </cc:Work>
    </rdf:RDF>
  </metadata>
  <g
     inkscape:label="Layer 1"
     inkscape:groupmode="layer"
     id="layer1"
     transform="translate(-518.67372,-575.95407)">
    <path
       style="fill:#000000;fill-opacity:1"
       d="m 518.67372,607.27416 0,-31.32009 49.99999,0 50.00001,0 0,31.32009 0,31.31997 -50.00001,0 -49.99999,0 0,-31.31997 z m 6.88909,29.07954 c 0.71793,-0.13433 1.41078,-0.52618 2.03704,-1.15296 0.91331,-0.91422 1.14883,-1.60648 1.15228,-3.38667 l 0.001,-0.82003 -1.23136,0 -1.23136,0 -0.0287,0.90215 c -0.0244,0.7721 -0.0579,0.95955 -0.2308,1.29996 -0.51193,1.00764 -1.96373,1.00764 -2.47565,0 l -0.20218,-0.3978 0,-3.80219 0,-3.80203 0.20001,-0.35292 c 0.31637,-0.55824 0.54885,-0.68708 1.24,-0.68708 0.71069,0 0.94342,0.13586 1.23882,0.72417 0.16618,0.33079 0.20379,0.53717 0.22886,1.25569 l 0.0301,0.86003 1.23114,0 1.23115,0 0,-0.80462 c 0,-1.70509 -0.27996,-2.51947 -1.16844,-3.39858 -0.78736,-0.77912 -1.69217,-1.1528 -2.79155,-1.1528 -0.308,0 -0.722,0.0382 -0.92,0.0824 -1.45747,0.33567 -2.75576,1.68876 -2.95717,3.08214 -0.10609,0.73454 -0.10563,7.75946 6.1e-4,8.43111 0.12151,0.76783 0.42107,1.3163 1.08131,1.97986 1.01145,1.01665 2.19538,1.39506 3.56428,1.13968 z m 10.27621,-0.0153 c 0.98847,-0.18119 2.18751,-1.03893 2.71326,-1.94108 0.43496,-0.7463 0.43884,-0.80813 0.44018,-7.03178 l 10e-4,-5.74007 -1.24,0 -1.23999,0 0,5.50575 c 0,6.12153 0.008,6.01972 -0.525,6.48789 -0.30561,0.26836 -0.68889,0.36712 -1.17315,0.30209 -0.62299,-0.084 -1.03403,-0.56052 -1.17357,-1.36178 -0.0583,-0.33476 -0.0884,-2.27783 -0.0884,-5.72052 l 0,-5.21343 -1.19999,0 -1.20001,0 10e-4,5.74007 c 10e-4,6.22258 0.005,6.28471 0.43972,7.03178 0.1241,0.21355 0.44569,0.60418 0.71448,0.86811 0.97054,0.95345 2.17906,1.32057 3.52987,1.07297 z m 10.28378,0.0153 c 0.71795,-0.13433 1.41079,-0.52618 2.03704,-1.15296 0.91333,-0.91422 1.14885,-1.60648 1.1523,-3.38667 l 10e-4,-0.82003 -1.23136,0 -1.23138,0 -0.0285,0.90215 c -0.0244,0.7721 -0.0579,0.95955 -0.23081,1.29996 -0.51192,1.00749 -1.96369,1.00764 -2.47566,0 l -0.20217,-0.39765 -0.0215,-8.06216 -0.0215,-8.06235 -1.2385,0 -1.23852,0 6.1e-4,8.02006 c 3e-4,5.1023 0.0305,8.20917 0.0829,8.53996 0.1212,0.76553 0.4214,1.31721 1.07036,1.96673 1.02589,1.02672 2.20819,1.40804 3.57521,1.15296 z m 10.27623,-0.0153 c 0.99825,-0.18302 2.17874,-1.02778 2.7126,-1.94108 0.32974,-0.56419 0.43942,-1.14945 0.44084,-2.35187 l 10e-4,-1.05999 -1.24001,0 -1.24,0 -6.1e-4,0.82003 c -2.3e-4,0.45108 -0.0376,0.9539 -0.083,1.11754 -0.17134,0.61701 -0.70917,1.02245 -1.35644,1.02245 -0.641,0 -1.1625,-0.38865 -1.37233,-1.02245 -0.0714,-0.21584 -0.10639,-1.46863 -0.12761,-4.55749 l -0.029,-4.25998 1.24449,0 1.24447,0 0,-1.23798 0,-1.23784 -1.21998,-0.0229 -1.22001,-0.0229 -0.0212,-2.45997 -0.0212,-2.45994 -1.19885,0 -1.19884,0 10e-4,8.21988 c 9.3e-4,6.55399 0.0228,8.31159 0.10762,8.67184 0.14456,0.61442 0.46448,1.13648 1.04658,1.70815 0.96364,0.94657 2.1887,1.31889 3.52989,1.07297 z m 10.28376,0.0153 c 0.71795,-0.13433 1.41079,-0.52618 2.03705,-1.15296 0.66436,-0.66494 0.95763,-1.21463 1.07073,-2.00673 0.0469,-0.3288 0.0806,-2.83087 0.0815,-6.05986 l 10e-4,-5.49995 -1.2379,0 -1.2379,0 -0.0221,5.58223 -0.0221,5.58222 -0.20217,0.39765 c -0.15274,0.30057 -0.28891,0.44177 -0.55694,0.57778 -0.73673,0.37384 -1.56133,0.12517 -1.91874,-0.57778 l -0.20215,-0.39765 -0.0221,-5.58222 -0.0221,-5.58223 -1.23791,0 -1.23791,0 6.1e-4,5.53979 c 3.2e-4,3.40286 0.0324,5.74068 0.0829,6.06002 0.12105,0.76553 0.4214,1.31721 1.07038,1.96673 1.02589,1.02672 2.20819,1.40804 3.57521,1.15296 z m 8.07092,-5.48224 c 0,-6.00934 -0.008,-5.88081 0.42382,-6.34379 0.49864,-0.53412 1.42351,-0.56618 1.96674,-0.0687 0.36854,0.33782 0.48578,0.7405 0.48769,1.67472 l 0.003,0.86002 1.24,0 1.24,0 -10e-4,-1.02 c -10e-4,-1.20379 -0.11724,-1.77073 -0.48779,-2.38636 -0.32423,-0.5387 -1.00787,-1.19158 -1.56111,-1.49108 -1.12897,-0.6106 -2.59876,-0.61105 -3.74386,0 -0.61844,0.32957 -1.41042,1.16013 -1.73232,1.81668 l -0.27366,0.55824 -0.0229,5.9817 -0.0229,5.98187 1.2429,0 1.24288,0 0,-5.56254 z m 12.57606,5.47461 c 1.12541,-0.23401 2.27606,-1.13709 2.79102,-2.19021 0.27124,-0.55473 0.27309,-0.56603 0.30113,-1.86003 l 0.0282,-1.30179 -1.19689,0 -1.19689,0 -0.0412,0.86002 c -0.0435,0.90567 -0.17028,1.34713 -0.48518,1.68937 -0.53605,0.5822 -1.61303,0.54022 -2.0746,-0.0809 -0.34685,-0.4668 -0.38159,-0.70737 -0.38159,-2.64052 l 0,-1.82813 2.68,0 2.68,0 -10e-4,-2.06 c -10e-4,-2.30179 -0.0608,-2.7286 -0.46837,-3.36377 -0.34369,-0.5355 -1.09031,-1.23249 -1.59335,-1.48742 -1.18083,-0.59838 -2.60474,-0.59319 -3.72688,0.0153 -0.91333,0.49397 -1.72888,1.50268 -1.93987,2.39934 -0.13845,0.588 -0.15839,8.20535 -0.0235,8.94325 0.11174,0.61121 0.46622,1.22791 1.02796,1.78844 0.97167,0.96932 2.3257,1.38743 3.62131,1.11815 z m -2.25562,-10.33008 c 6.1e-4,-0.71775 0.10228,-1.10136 0.37891,-1.43017 0.53667,-0.63792 1.72437,-0.63242 2.18175,0.0153 0.21556,0.3027 0.41296,1.11525 0.38332,1.57763 l -0.0243,0.38071 -1.46,0.0229 -1.46001,0.0214 6.2e-4,-0.58174 z m 10.2279,10.15545 c 0.77029,-0.50985 0.87783,-1.85881 0.19726,-2.47429 -0.21086,-0.19066 -0.69668,-0.383 -0.96732,-0.383 -0.12472,0 -0.41255,0.0916 -0.63954,0.20562 -0.65365,0.32575 -0.97081,0.99588 -0.81028,1.71211 0.23178,1.0342 1.35704,1.51046 2.21988,0.93956 z m 7.93816,0.11601 c 1.06211,-0.27736 2.10254,-1.15098 2.58632,-2.17189 l 0.24718,-0.5216 0,-4.55994 0,-4.55993 -0.25937,-0.54771 c -0.18085,-0.38193 -0.42308,-0.70921 -0.8,-1.08106 -0.94213,-0.92963 -1.69505,-1.21127 -3.23744,-1.21127 l -0.94318,0 0,-2.48012 0,-2.47994 -1.24001,0 -1.24,0 0,9.87994 0,9.88006 2.18,0 c 1.79225,0 2.27366,-0.029 2.7065,-0.14196 z m -2.40649,-7.25343 0,-4.92003 0.88317,0 c 1.14672,0 1.40497,0.11601 1.73003,0.7782 l 0.22678,0.46177 0,3.63991 c 0,3.91927 -0.008,3.99911 -0.42313,4.49308 -0.31694,0.37658 -0.62171,0.4671 -1.57428,0.4671 l -0.84257,0 0,-4.92003 z m 12.48873,7.3183 c 0.75212,-0.14196 1.39508,-0.50389 2.02647,-1.13845 0.92538,-0.92994 1.16295,-1.61564 1.16419,-3.35981 l 6.1e-4,-0.86002 -1.23139,0 -1.23134,0 -0.0287,0.90215 c -0.0244,0.7721 -0.0579,0.9594 -0.23079,1.29996 -0.51185,1.00733 -1.9635,1.00749 -2.47568,0 -0.19922,-0.39185 -0.20215,-0.42497 -0.20215,-2.28012 l 0,-1.88231 2.69999,-0.0214 2.7,-0.0214 -10e-4,-1.81896 c -0.003,-2.17861 -0.072,-2.7515 -0.4172,-3.41003 -0.34165,-0.65166 -1.08993,-1.38361 -1.7419,-1.70402 -0.64895,-0.31874 -1.08552,-0.42101 -1.79932,-0.42101 -1.09938,0 -2.0042,0.37384 -2.79155,1.15281 -0.6148,0.60845 -0.96536,1.26317 -1.08064,2.01878 -0.11143,0.73058 -0.1154,7.60956 -0.005,8.38456 0.11312,0.79209 0.40639,1.34163 1.07073,2.00657 1.02641,1.02733 2.21375,1.40987 3.57487,1.15174 z m -2.22165,-9.88311 c -0.10167,-0.265 0.0308,-1.2247 0.22186,-1.60572 0.28716,-0.57289 0.52412,-0.70951 1.23105,-0.70951 0.69156,0 0.92603,0.12975 1.23626,0.68585 0.15499,0.27752 0.2033,0.49871 0.22978,1.05282 l 0.0334,0.70143 -1.45228,0 c -1.24202,0 -1.45924,-0.0183 -1.50019,-0.12518 z"
       id="path3222"
       inkscape:connector-curvature="0" />
  </g>
</svg>
