<?xml version="1.0" encoding="UTF-8" standalone="no"?>
<!-- Created with Inkscape (http://www.inkscape.org/) -->

<svg
   xmlns:dc="http://purl.org/dc/elements/1.1/"
   xmlns:cc="http://creativecommons.org/ns#"
   xmlns:rdf="http://www.w3.org/1999/02/22-rdf-syntax-ns#"
   xmlns:svg="http://www.w3.org/2000/svg"
   xmlns="http://www.w3.org/2000/svg"
   xmlns:sodipodi="http://sodipodi.sourceforge.net/DTD/sodipodi-0.dtd"
   xmlns:inkscape="http://www.inkscape.org/namespaces/inkscape"
   width="65.509712"
   height="41.03532"
   id="svg3420"
   version="1.1"
   inkscape:version="0.48.4 r9939"
   sodipodi:docname="culture-be.svg">
  <defs
     id="defs3422" />
  <sodipodi:namedview
     id="base"
     pagecolor="#ffffff"
     bordercolor="#666666"
     borderopacity="1.0"
     inkscape:pageopacity="0.0"
     inkscape:pageshadow="2"
     inkscape:zoom="0.37734375"
     inkscape:cx="-143.67372"
     inkscape:cy="106.23195"
     inkscape:document-units="px"
     inkscape:current-layer="layer1"
     showgrid="false"
     inkscape:window-width="476"
     inkscape:window-height="456"
     inkscape:window-x="0"
     inkscape:window-y="21"
     inkscape:window-maximized="0"
     fit-margin-top="0"
     fit-margin-left="0"
     fit-margin-right="0"
     fit-margin-bottom="0" />
  <metadata
     id="metadata3425">
    <rdf:RDF>
      <cc:Work
         rdf:about="">
        <dc:format>image/svg+xml</dc:format>
        <dc:type
           rdf:resource="http://purl.org/dc/dcmitype/StillImage" />
        <dc:title />
      </cc:Work>
    </rdf:RDF>
  </metadata>
  <g
     inkscape:label="Layer 1"
     inkscape:groupmode="layer"
     id="layer1"
     transform="translate(-518.67372,-597.55881)">
    <path
       style="fill:#00aa5a"
       d="m 518.67372,618.07651 0,-20.5177 32.75485,0 32.75486,0 0,20.5177 0,20.51762 -32.75486,0 -32.75485,0 0,-20.51762 z m 4.51302,19.04992 c 0.47032,-0.088 0.9242,-0.3447 1.33446,-0.7553 0.59831,-0.5989 0.7526,-1.0524 0.75486,-2.2186 l 7.7e-4,-0.5372 -0.80666,0 -0.80666,0 -0.0188,0.591 c -0.016,0.5058 -0.0379,0.6286 -0.1512,0.8516 -0.33536,0.6601 -1.28643,0.6601 -1.62179,0 l -0.13245,-0.2606 0,-2.4908 0,-2.4907 0.13103,-0.2312 c 0.20725,-0.3657 0.35955,-0.4501 0.81232,-0.4501 0.46557,0 0.61803,0.089 0.81155,0.4744 0.10886,0.2167 0.1335,0.3519 0.14992,0.8226 l 0.0197,0.5634 0.80652,0 0.80652,0 0,-0.5271 c 0,-1.117 -0.1834,-1.6505 -0.76544,-2.2264 -0.5158,-0.5104 -1.10854,-0.7552 -1.82874,-0.7552 -0.20177,0 -0.47298,0.025 -0.60269,0.054 -0.95478,0.2199 -1.80529,1.1063 -1.93723,2.0191 -0.0695,0.4812 -0.0692,5.0832 4e-4,5.5232 0.0796,0.503 0.27584,0.8623 0.70836,1.297 0.6626,0.666 1.43819,0.9139 2.33495,0.7466 z m 6.73192,-0.01 c 0.64754,-0.1187 1.43303,-0.6806 1.77745,-1.2716 0.28494,-0.4889 0.28748,-0.5294 0.28836,-4.6065 l 7.8e-4,-3.7603 -0.81232,0 -0.81232,0 0,3.6068 c 0,4.0102 0.005,3.9435 -0.34392,4.2502 -0.20021,0.1758 -0.45129,0.2405 -0.76853,0.1979 -0.40812,-0.055 -0.67739,-0.3672 -0.7688,-0.8921 -0.0382,-0.2193 -0.0579,-1.4922 -0.0579,-3.7475 l 0,-3.4153 -0.78611,0 -0.78612,0 7.7e-4,3.7603 c 7.8e-4,4.0764 0.003,4.1171 0.28806,4.6065 0.0813,0.1399 0.29197,0.3958 0.46805,0.5687 0.6358,0.6246 1.4275,0.8651 2.31241,0.7029 z m 6.73687,0.01 c 0.47033,-0.088 0.92421,-0.3447 1.33446,-0.7553 0.59832,-0.5989 0.75261,-1.0524 0.75487,-2.2186 l 7.7e-4,-0.5372 -0.80666,0 -0.80667,0 -0.0187,0.591 c -0.016,0.5058 -0.0379,0.6286 -0.1512,0.8516 -0.33536,0.66 -1.28641,0.6601 -1.6218,0 l -0.13244,-0.2605 -0.0141,-5.2815 -0.0141,-5.28162 -0.81134,0 -0.81135,0 4e-4,5.25392 c 2e-4,3.3425 0.02,5.3778 0.0543,5.5945 0.0794,0.5015 0.27606,0.8629 0.70119,1.2884 0.67206,0.6726 1.44658,0.9224 2.34211,0.7553 z m 6.73193,-0.01 c 0.65395,-0.1199 1.42729,-0.6733 1.77702,-1.2716 0.21601,-0.3696 0.28786,-0.753 0.28879,-1.5407 l 7.8e-4,-0.6944 -0.81233,0 -0.81232,0 -4e-4,0.5372 c -1.5e-4,0.2955 -0.0246,0.6249 -0.0544,0.7321 -0.11225,0.4042 -0.46458,0.6698 -0.8886,0.6698 -0.41992,0 -0.76155,-0.2546 -0.89901,-0.6698 -0.0468,-0.1414 -0.0697,-0.9621 -0.0836,-2.9856 l -0.019,-2.7907 0.81526,0 0.81525,0 0,-0.811 0,-0.8109 -0.79921,-0.015 -0.79922,-0.015 -0.0139,-1.61152 -0.0139,-1.6115 -0.78536,0 -0.78536,0 7.7e-4,5.38482 c 6.1e-4,4.2935 0.0149,5.4449 0.0705,5.6809 0.0947,0.4025 0.30428,0.7445 0.68561,1.119 0.63128,0.6201 1.43381,0.864 2.31242,0.7029 z m 6.73686,0.01 c 0.47033,-0.088 0.92421,-0.3447 1.33447,-0.7553 0.43522,-0.4356 0.62734,-0.7957 0.70143,-1.3146 0.0307,-0.2154 0.0528,-1.8545 0.0534,-3.9698 l 7.8e-4,-3.603 -0.81095,0 -0.81094,0 -0.0145,3.6569 -0.0145,3.6569 -0.13244,0.2605 c -0.10006,0.1969 -0.18926,0.2894 -0.36485,0.3785 -0.48263,0.2449 -1.02282,0.082 -1.25696,-0.3785 l -0.13243,-0.2605 -0.0145,-3.6569 -0.0145,-3.6569 -0.81095,0 -0.81095,0 4e-4,3.6291 c 2.1e-4,2.2292 0.0212,3.7607 0.0543,3.9699 0.0793,0.5015 0.27606,0.8629 0.7012,1.2884 0.67206,0.6726 1.44658,0.9224 2.34211,0.7553 z m 5.28724,-3.5914 c 0,-3.9367 -0.005,-3.8525 0.27764,-4.1558 0.32666,-0.3499 0.93254,-0.3709 1.28841,-0.045 0.24143,0.2213 0.31823,0.4851 0.31948,1.0971 l 0.002,0.5634 0.81232,0 0.81232,0 -7.8e-4,-0.6682 c -7.7e-4,-0.7886 -0.0768,-1.16 -0.31955,-1.5633 -0.2124,-0.3529 -0.66025,-0.7806 -1.02268,-0.9768 -0.73958,-0.4 -1.70244,-0.4003 -2.45259,0 -0.40514,0.2159 -0.92396,0.76 -1.13484,1.1901 l -0.17927,0.3657 -0.015,3.9186 -0.015,3.9187 0.81422,0 0.81421,0 0,-3.644 z m 8.23854,3.5864 c 0.73725,-0.1533 1.49104,-0.7449 1.82839,-1.4348 0.17769,-0.3634 0.1789,-0.3708 0.19727,-1.2185 l 0.0185,-0.8528 -0.78408,0 -0.78408,0 -0.027,0.5634 c -0.0285,0.5933 -0.11155,0.8825 -0.31784,1.1067 -0.35116,0.3814 -1.05669,0.3539 -1.35906,-0.053 -0.22722,-0.3058 -0.24998,-0.4634 -0.24998,-1.7298 l 0,-1.1976 1.75566,0 1.75566,0 -7.7e-4,-1.3495 c -7.7e-4,-1.5079 -0.0398,-1.7875 -0.30683,-2.2036 -0.22515,-0.3508 -0.71426,-0.8074 -1.0438,-0.9744 -0.77356,-0.392 -1.70636,-0.3886 -2.44147,0.01 -0.59832,0.3236 -1.13258,0.9844 -1.2708,1.5718 -0.0907,0.3852 -0.10376,5.3753 -0.0154,5.8587 0.0732,0.4004 0.30542,0.8044 0.67341,1.1716 0.63654,0.635 1.52356,0.9089 2.37231,0.7325 z m -1.47765,-6.7672 c 4e-4,-0.4702 0.067,-0.7215 0.24822,-0.9369 0.35157,-0.4179 1.12963,-0.4143 1.42926,0.01 0.14121,0.1983 0.27053,0.7306 0.25111,1.0335 l -0.0159,0.2494 -0.95644,0.015 -0.95645,0.014 4.1e-4,-0.3811 z m 6.70027,6.6528 c 0.50461,-0.334 0.57506,-1.2177 0.12922,-1.6209 -0.13813,-0.1249 -0.45639,-0.2509 -0.63369,-0.2509 -0.0817,0 -0.27026,0.06 -0.41896,0.1347 -0.4282,0.2134 -0.63597,0.6524 -0.53081,1.1216 0.15184,0.6775 0.88899,0.9895 1.45424,0.6155 z m 5.20026,0.076 c 0.69579,-0.1817 1.37737,-0.754 1.69429,-1.4228 l 0.16193,-0.3417 0,-2.9872 0,-2.9872 -0.16991,-0.3588 c -0.11848,-0.2502 -0.27716,-0.4646 -0.52408,-0.7082 -0.61719,-0.609 -1.11042,-0.7935 -2.12084,-0.7935 l -0.61787,0 0,-1.62472 0,-1.6246 -0.81233,0 -0.81232,0 0,6.47232 0,6.4724 1.42811,0 c 1.1741,0 1.48947,-0.019 1.77302,-0.093 z m -1.57648,-4.7517 0,-3.2231 0.57856,0 c 0.75121,0 0.92039,0.076 1.13334,0.5098 l 0.14856,0.3025 0,2.3845 c 0,2.5675 -0.005,2.6198 -0.27719,2.9434 -0.20763,0.2467 -0.40728,0.306 -1.03131,0.306 l -0.55196,0 0,-3.2231 z m 8.18133,4.7942 c 0.49271,-0.093 0.91391,-0.3301 1.32753,-0.7458 0.60622,-0.6092 0.76185,-1.0584 0.76266,-2.201 l 4e-4,-0.5634 -0.80668,0 -0.80665,0 -0.0188,0.591 c -0.016,0.5058 -0.0379,0.6285 -0.15119,0.8516 -0.33531,0.6599 -1.28628,0.66 -1.62181,0 -0.13051,-0.2567 -0.13243,-0.2784 -0.13243,-1.4937 l 0,-1.2331 1.76876,-0.014 1.76876,-0.014 -7.7e-4,-1.1916 c -0.002,-1.4272 -0.0472,-1.8025 -0.27331,-2.2339 -0.22381,-0.4269 -0.71401,-0.9064 -1.14111,-1.1163 -0.42513,-0.2088 -0.71112,-0.2758 -1.17873,-0.2758 -0.7202,0 -1.31295,0.2449 -1.82874,0.7552 -0.40275,0.3986 -0.6324,0.8275 -0.70792,1.3225 -0.073,0.4786 -0.0756,4.985 -0.003,5.4927 0.0741,0.5189 0.26622,0.8789 0.70143,1.3145 0.6724,0.673 1.45022,0.9236 2.34189,0.7545 z m -1.4554,-6.4744 c -0.0666,-0.1736 0.0202,-0.8023 0.14534,-1.0519 0.18812,-0.3753 0.34335,-0.4648 0.80646,-0.4648 0.45304,0 0.60664,0.085 0.80987,0.4493 0.10153,0.1818 0.13318,0.3267 0.15053,0.6897 l 0.0219,0.4595 -0.95139,0 c -0.81364,0 -0.95594,-0.012 -0.98277,-0.082 z"
       id="path3222"
       inkscape:connector-curvature="0" />
  </g>
</svg>
