<?xml version="1.0" encoding="UTF-8" standalone="no"?>
<!-- Created with Inkscape (http://www.inkscape.org/) -->

<svg
   xmlns:dc="http://purl.org/dc/elements/1.1/"
   xmlns:cc="http://creativecommons.org/ns#"
   xmlns:rdf="http://www.w3.org/1999/02/22-rdf-syntax-ns#"
   xmlns:svg="http://www.w3.org/2000/svg"
   xmlns="http://www.w3.org/2000/svg"
   xmlns:sodipodi="http://sodipodi.sourceforge.net/DTD/sodipodi-0.dtd"
   xmlns:inkscape="http://www.inkscape.org/namespaces/inkscape"
   width="92.375038"
   height="69.980362"
   id="svg3600"
   version="1.1"
   inkscape:version="0.48.4 r9939"
   sodipodi:docname="dyoxide-gambette.svg">
  <defs
     id="defs3602" />
  <sodipodi:namedview
     id="base"
     pagecolor="#ffffff"
     bordercolor="#666666"
     borderopacity="1.0"
     inkscape:pageopacity="0.0"
     inkscape:pageshadow="2"
     inkscape:zoom="0.37734375"
     inkscape:cx="15.47323"
     inkscape:cy="-79.295533"
     inkscape:document-units="px"
     inkscape:current-layer="layer1"
     showgrid="false"
     inkscape:window-width="476"
     inkscape:window-height="456"
     inkscape:window-x="0"
     inkscape:window-y="21"
     inkscape:window-maximized="0"
     fit-margin-top="0"
     fit-margin-left="0"
     fit-margin-right="0"
     fit-margin-bottom="0" />
  <metadata
     id="metadata3605">
    <rdf:RDF>
      <cc:Work
         rdf:about="">
        <dc:format>image/svg+xml</dc:format>
        <dc:type
           rdf:resource="http://purl.org/dc/dcmitype/StillImage" />
        <dc:title />
      </cc:Work>
    </rdf:RDF>
  </metadata>
  <g
     inkscape:label="Layer 1"
     inkscape:groupmode="layer"
     id="layer1"
     transform="translate(-359.52677,-383.08629)">
    <path
       style="font-size:medium;font-style:normal;font-variant:normal;font-weight:normal;font-stretch:normal;text-indent:0;text-align:start;text-decoration:none;line-height:normal;letter-spacing:normal;word-spacing:normal;text-transform:none;direction:ltr;block-progression:tb;writing-mode:lr-tb;text-anchor:start;baseline-shift:baseline;color:#000000;fill:#00aa5a;fill-opacity:1;stroke:none;stroke-width:0.625;marker:none;visibility:visible;display:inline;overflow:visible;enable-background:accumulate;font-family:Sans;-inkscape-font-specification:Sans"
       d="m 409.50602,383.08647 -0.20859,0.0361 -0.46537,0.0882 -0.46128,0.0883 -0.22869,0.0402 -0.0842,0.22063 -0.064,0.16447 0,0.004 -0.40518,0.15243 c -0.14562,0.0556 -0.284,0.10077 -0.37709,0.12436 -0.0297,0.008 -0.0402,0.009 -0.056,0.012 -0.027,-0.005 -0.0501,-0.007 -0.0682,-0.008 -0.0468,-0.002 -0.084,-0.003 -0.12433,0 -0.0809,0.006 -0.17418,0.0199 -0.2848,0.0361 -0.22131,0.0325 -0.50598,0.0842 -0.81438,0.14843 l -1.09509,0.22865 -0.10436,0.02 -0.0802,0.0682 -0.17253,0.1404 -0.008,0.008 -0.12836,-0.0321 -0.0842,-0.02 c -0.0185,-0.0298 -0.0389,-0.0598 -0.056,-0.0802 -0.0501,-0.0589 -0.0966,-0.0956 -0.14443,-0.12837 -0.0957,-0.0656 -0.19745,-0.11156 -0.31289,-0.14843 -0.30431,-0.0971 -0.5543,-0.13157 -1.75303,-0.22865 l -0.31287,-0.0241 -0.16047,-0.17249 c -0.0924,-0.0992 -0.19052,-0.18532 -0.28882,-0.25674 -0.0488,-0.0357 -0.0947,-0.0671 -0.15242,-0.0963 -0.058,-0.0292 -0.11523,-0.0682 -0.2608,-0.0682 -0.14326,0 -0.16626,0.0245 -0.22461,0.0441 -0.0587,0.0196 -0.1213,0.0437 -0.18854,0.0722 -0.13469,0.0571 -0.29087,0.13343 -0.44929,0.21662 -0.71489,0.3752 -1.34844,0.56156 -1.5685,0.56161 -0.14418,2e-5 -0.70982,-0.14637 -1.15132,-0.33295 -0.22065,-0.0933 -0.42562,-0.19299 -0.55358,-0.27279 -0.0435,-0.027 -0.072,-0.0509 -0.0922,-0.0682 0.0125,0.0206 0.0237,0.061 0.0283,0.12435 -0.009,-0.0461 -0.031,-0.0962 -0.0521,-0.14441 -0.0501,-0.11414 -0.12348,-0.21937 -0.22467,-0.26877 -0.15829,-0.0773 -0.2875,-0.0655 -0.39311,-0.0441 -0.21123,0.0426 -0.38118,0.1484 -0.54956,0.30086 l -0.06,0.0562 -0.1364,-0.0402 c -0.23707,-0.0664 -0.46992,-0.10795 -0.72611,-0.0722 -0.25598,0.0357 -0.51098,0.12617 -0.9186,0.2768 -0.64396,0.23793 -1.95983,0.48939 -2.44702,0.48939 l -0.30887,0 -0.35705,-0.14842 -0.42924,-0.18052 -0.1163,-0.0482 -0.12433,0.0241 -0.33701,0.0642 -0.19653,0.0361 -0.26073,-0.13238 -0.38916,-0.20058 -0.06,-0.0321 -0.064,-0.012 -0.92263,-0.14041 -0.91866,-0.14441 -0.19653,-0.0321 -0.14846,0.13639 -0.22461,0.20058 c -0.033,0.0296 -0.087,0.0682 -0.12434,0.0883 -0.0191,0.01 -0.0409,0.0125 -0.0442,0.0121 -0.11768,0.009 -0.14827,0.0391 -0.20859,0.0641 -0.0708,0.0295 -0.1453,0.0649 -0.22863,0.10831 -0.16686,0.0868 -0.36338,0.20207 -0.56162,0.32894 l -0.60974,0.38912 -0.58971,0.0682 -0.56161,0.0682 -0.39312,-0.20458 -0.50947,-0.26476 -0.0922,-0.0481 -0.10027,0 -0.36108,0 -0.2407,0 -0.20456,-0.13238 -0.30893,-0.20458 -0.16844,-0.10831 -0.18855,0.0602 -0.26073,0.0802 c -0.0534,0.0169 -0.40017,0.0854 -0.7381,0.12837 -0.33807,0.0429 -0.70593,0.0746 -0.89059,0.0762 l -0.26878,0.004 -0.15242,0 -0.11629,0.10028 -0.88657,0.75417 -0.76618,0.65386 -0.35706,-0.004 c -0.34584,-0.003 -0.91333,0.0571 -1.36387,0.13638 l -0.72208,0.12837 -0.93067,-0.008 -0.76216,-0.008 -0.0842,-0.10831 -0.20457,-0.26476 -0.16851,-0.21663 -0.26475,0.0642 -0.36905,0.0963 -0.37308,0.0923 -0.12038,0.0281 -0.0842,0.0923 -0.54961,0.60173 c -0.30076,0.32742 -0.67185,0.72377 -0.8103,0.86647 l -0.26878,0.2768 -0.10027,0.10028 -0.0158,0.14442 -0.0363,0.3129 c -0.0152,0.13966 -0.29099,0.77087 -0.50947,1.03095 0,-10e-4 -0.27919,0.20557 -0.59372,0.35301 -0.45687,0.21423 -1.08989,0.39231 -1.21145,0.39313 -0.25335,0.002 -0.47948,0.0475 -0.71002,0.17249 0.007,-0.003 -0.14872,0.0646 -0.32092,0.12435 -0.1722,0.0597 -0.38527,0.12518 -0.5897,0.18453 -0.22455,0.0651 -0.45582,0.14732 -0.65788,0.22464 -0.20219,0.0773 -0.35547,0.13834 -0.4974,0.22866 l -0.16047,0.10028 -0.0883,-0.008 c -0.15677,-0.0163 -0.30761,-0.0276 -0.46135,-0.012 l -0.1484,0.016 -0.2848,0.0281 -0.0762,0.2808 -0.0723,0.28081 -0.0722,0.27679 -0.0442,0.16848 0.0882,0.15243 0.21268,0.36104 c 0.0714,0.12103 0.1515,0.22916 0.23265,0.32092 0.0369,0.0417 0.0728,0.0776 0.12032,0.11633 l -0.0442,0.71405 -0.056,0.9427 -0.38112,0.77422 -0.38507,0.78624 -0.6499,0.60574 c -0.39113,0.36475 -0.89553,0.84964 -1.13926,1.09513 l -0.42521,0.42923 -0.12434,0.12035 0,0.17249 0,0.15244 0,0.15244 0,0.16046 0.11234,0.12034 0.70599,0.76619 0.59373,0.64986 0,0.17651 0.007,0.33696 0,0.10431 0.0442,0.0882 0.18453,0.35302 0.12836,0.24871 -0.0402,0.79026 -0.0402,0.74213 -0.0204,0.02 c -0.21551,0.21561 -0.25671,0.40565 -0.25671,0.66591 0,0.12707 -0.19989,0.58459 -0.92263,1.48826 l -0.65787,0.82236 -0.0883,0.11232 0,0.14842 0,0.68597 0,0.68998 0,0.41719 0.41717,0 0.15644,0 0.10832,0.12034 c 0.0866,0.0958 0.18314,0.17704 0.28084,0.2447 0.0754,0.0522 0.12855,0.11014 0.26074,0.1364 -0.007,-0.006 0.0185,-0.008 0.0323,0 0,0.002 0.0119,0.01 0.0158,0.012 0,1.3e-4 0,-1.3e-4 0.007,0 0.0283,0.0176 0.0659,0.0423 0.11629,0.0802 0.11808,0.0883 0.27129,0.21902 0.42522,0.36103 0.1753,0.16167 0.37103,0.32219 0.54956,0.45731 0.17846,0.13513 0.32264,0.24276 0.48541,0.31691 l 0.21663,0.10028 0.51343,0.78626 c 0.16309,0.24979 0.33233,0.49524 0.47341,0.69398 0.14101,0.19875 0.21755,0.32192 0.33694,0.44127 l 0.06,0.0602 0.0158,0.38911 0.0158,0.44528 -0.0923,0.16848 -0.1484,0.2768 -0.0521,0.0963 0.007,0.11232 0.0237,0.698 0.0237,0.698 0.007,0.13638 0.0842,0.10832 0.32092,0.40115 c 0.17655,0.22082 0.38092,0.4756 0.46531,0.57766 l 0.14444,0.17249 0.16046,0.19255 0.24069,-0.0481 0.35303,-0.0722 0.14036,-0.0281 0.34499,0.3169 0.49747,0.45731 0.10825,0.10029 0.14847,0.012 0.82638,0.0481 0.62174,0.0361 0.0521,0.0762 c 0.11365,0.16226 0.2337,0.25289 0.40115,0.38912 0.16752,0.13622 0.36747,0.28301 0.56966,0.41719 l 0.61377,0.40918 0.18854,0.28882 c 0.15658,0.24156 0.38409,0.51282 0.58965,0.698 0.0915,0.0824 0.2451,0.34227 0.24471,0.34097 0.14424,0.47916 0.52358,0.8597 1.1152,1.27566 l 0.42923,0.30086 0.28883,0.20058 0.24471,-0.24872 0.14042,-0.13638 c 0,0.003 0,0.002 0.007,-0.004 0,-0.003 0.007,-0.006 0.0119,-0.008 l 0.0119,0.012 0.14445,0.18855 0.1805,0.23667 0.2848,-0.0963 0.64185,-0.22064 0.52951,-0.18052 0.44124,0.0923 0.54956,0.11633 0.21261,0.0441 0.16046,-0.14843 0.2929,-0.27679 c 0.0409,-0.0383 0.0821,-0.0695 0.12434,-0.10028 l 0.11629,0.16447 0.28487,0.40114 0.0682,0.0923 0.10429,0.0481 0.58971,0.25674 c 0.28302,0.12287 0.69288,0.38201 0.76216,0.44527 l 0.15644,0.1404 0,0.0281 0,0.21261 0,0.18854 0.13641,0.12436 0.25275,0.22865 0.2527,0.22866 0.10831,0.0963 0.14445,0.012 0.87846,0.0602 0.87852,0.0642 0.19257,0.0121 0.13238,-0.13238 0.34498,-0.345 0.27683,-0.27679 0.6458,-0.22464 c 0.3947,-0.13776 0.9343,-0.30754 1.14328,-0.36104 l 0.33695,-0.0883 0.61376,0.12436 0.6499,0.13237 0.76216,0.38912 c 0.43676,0.22364 0.98855,0.54656 1.13926,0.65387 0.12578,0.0896 0.26014,0.16476 0.38909,0.22464 0.12902,0.0599 0.21868,0.11634 0.42522,0.11634 l 0.20061,0 0.17246,0 0.12441,-0.12436 0.42119,-0.42923 c 0.48877,-0.49727 0.69677,-0.60122 1.05903,-0.60974 0.33325,-0.008 0.7691,-0.1202 1.18739,-0.25674 l 0.57362,-0.18854 0.26476,0.0802 c 0.24709,0.0769 0.60862,0.15873 0.87852,0.20057 l 0.35705,0.0562 0.27683,0.16848 c 0.16566,0.10022 0.60921,0.39526 0.93864,0.6298 l 0.61377,0.43725 0.17648,0.12436 0.20456,-0.0722 0.40921,-0.14843 c 0.18478,-0.0669 0.51593,-0.12436 0.50143,-0.12436 l 0.23265,0 0.0963,0 0.0842,-0.0401 0.97478,-0.46934 0.90258,-0.43323 0.96674,-0.0441 0.95078,-0.0441 0.27675,0.14441 c 0.12935,0.0669 0.26937,0.12552 0.40116,0.16848 0.13178,0.043 0.23515,0.0762 0.39714,0.0762 l 0.056,0 0.20859,0.19656 0.32896,0.30889 0.1043,0.10029 0.14035,0.012 0.25678,0.0281 c 0.1778,0.0179 0.40815,0.0221 0.58964,0.012 l 0.26878,-0.016 0.14444,-0.008 0.1043,-0.0923 0.37307,-0.32092 c 0.0838,-0.0721 0.18367,-0.14088 0.25671,-0.18452 0.029,-0.0176 0.0482,-0.0286 0.064,-0.0361 l 0.10832,0 0.28882,0 0.10027,-0.26877 0.12434,-0.32091 0.0204,-0.0521 0.0198,0 0.30887,0 0.19659,0 0.12433,-0.14842 0.16449,-0.20057 0.0363,-0.0441 0.5696,0.0241 0.68199,0.0281 0.75815,0.3851 0.7822,0.39312 0.34104,0.33296 c 0.12525,0.12124 0.26488,0.23432 0.40109,0.32894 0.13626,0.0946 0.24926,0.17038 0.4212,0.22063 l 0.2608,0.0762 0.16046,0.0481 0.14438,-0.0762 0.46134,-0.23267 c 0.28744,-0.14652 0.64785,-0.37298 0.88248,-0.55759 l 0.24472,-0.19256 0.42522,0 0.57368,0 0.11234,0 0.10027,-0.0562 0.37301,-0.22064 0.19257,-0.11633 0.22467,0.0923 c 0.28526,0.11803 0.66796,0.21862 0.97477,0.25674 l 0.36905,0.0481 0.62181,0.30085 0.44124,0.21261 0,0.38109 0.41718,0 0.12038,0 0.0363,0.0762 0.11234,0.24871 0.0237,0 c 0.007,0.011 0.0132,0.0254 0.0204,0.0361 0.0277,0.0419 0.0534,0.0836 0.0962,0.12836 0.0429,0.0448 0.0607,0.15244 0.34097,0.15244 0.23832,0 0.22171,-0.0541 0.26476,-0.0802 0.0429,-0.0261 0.0804,-0.0538 0.12037,-0.0842 0.0798,-0.0609 0.16759,-0.13693 0.25672,-0.22063 0.44783,-0.4207 1.43553,-1.07279 2.24642,-1.46419 l 0.67797,-0.32493 0.36905,0.10831 c 0.49807,0.15022 1.87301,0.83137 2.26645,1.1192 l 0.33299,0.2447 0.1043,0.0762 0.12835,0.004 0.56565,0.02 0.56557,0.02 0.10034,0.004 0.0922,-0.0401 0.5135,-0.2447 c 0.57282,-0.26982 1.15369,-0.68656 1.66072,-1.18338 l 0.14042,-0.1364 0.0244,0 0.0283,0 0.13237,0.12035 c 0.16311,0.15019 0.41679,0.34872 0.61377,0.48539 l 0.31691,0.22064 0.10429,0.0722 0.13238,0 0.16844,0 0,0.25674 0.41724,0 0.12031,0 c 0.009,0.001 0.0185,0.002 0.0323,0.008 0.0409,0.0172 0.10476,0.0479 0.18051,0.0882 0.15156,0.0807 0.34973,0.19723 0.54157,0.32494 l 0.73408,0.49341 0.2848,0.18855 0.24472,-0.2407 0.24471,-0.24871 c 0.0376,-0.0379 0.40973,-0.28559 0.6619,-0.39713 l 0.53755,-0.24069 0.0802,-0.0361 0.06,-0.0642 0.41323,-0.4533 c 0.1008,-0.11079 0.20871,-0.21504 0.28881,-0.28081 0.0297,-0.0242 0.0468,-0.0367 0.064,-0.0481 0,-2.6e-4 0,-0.003 0.007,-0.004 0.007,-0.003 0.0172,-0.0104 0.0198,-0.0121 0.007,-0.004 0.0138,10e-4 0,0.008 0.0488,-0.012 0.0741,-0.0272 0.10033,-0.0402 0.0429,-0.0214 0.0753,-0.0441 0.11227,-0.0682 0.0738,-0.0482 0.15467,-0.10571 0.24472,-0.1765 0.18017,-0.1416 0.39799,-0.33039 0.62181,-0.53755 l 0.74212,-0.68195 0.7501,-0.34097 0.75017,-0.34098 0.51752,-0.0361 0.55759,-0.0321 0.58166,0.10029 c 0.35389,0.0622 1.03866,0.18103 1.52433,0.26476 l 0.88255,0.15243 0.25269,0.0441 0.15248,-0.20458 0.14438,-0.19657 c 0.0165,-0.0222 0.14451,-0.10555 0.1364,-0.11233 l 0.16851,-0.0562 0.20054,-0.0682 0.064,-0.19657 0.23265,-0.702 0.23265,-0.698 0.0198,-0.0602 0,-0.0682 0.007,-0.47336 0.007,-0.2447 0.056,-0.0361 0.20061,-0.12035 0,-0.23266 0,-0.22063 0,-0.0522 0.4332,-0.47335 0.4413,-0.47737 0.54152,-0.0602 0.694,-0.0802 0.14444,-0.016 0.10429,-0.10029 0.13238,-0.13238 0.0119,-0.012 0.4212,0 0.59774,0 0.0682,0 0.0682,-0.02 0.43728,-0.15244 0.4332,-0.15243 0.12038,-0.0401 0.0762,-0.10029 0.15645,-0.20459 c 0.0988,-0.13071 0.13897,-0.24469 0.18855,-0.38509 0.0494,-0.14042 0.0939,-0.29282 0.12037,-0.44528 l 0.0762,-0.4533 0.0198,-0.11634 -0.0442,-0.10831 -0.20866,-0.51346 c -0.11615,-0.28757 -0.28551,-0.68858 -0.38507,-0.91061 l -0.14042,-0.3129 -0.0237,-0.62579 c -0.0151,-0.37645 -0.0204,-0.93365 -0.0119,-1.20344 l 0.0119,-0.36906 0.78228,-0.83439 c 0.48567,-0.51737 1.18178,-1.23852 1.53237,-1.58855 l 0.64983,-0.64986 0.12038,-0.12034 0,-0.17651 0,-0.25272 0,-0.25674 0,-0.13638 -0.0762,-0.10832 -0.5576,-0.7662 c -0.2997,-0.41183 -0.64396,-0.92669 -0.70606,-1.03897 l -0.12434,-0.22865 -0.0198,-1.17938 -0.0204,-1.1874 0.34103,-0.69799 0.38508,-0.79428 0.0762,-0.15645 -0.056,-0.16047 -0.14438,-0.41718 -0.12433,-0.35703 0,-0.53353 0,-0.61375 0,-0.1725 -0.12038,-0.12435 -0.19257,-0.19255 c -0.0231,-0.0234 -0.0528,-0.0612 -0.0682,-0.0883 -0.007,-0.006 0,-0.007 -0.007,-0.012 l 0,-0.0802 0,-0.28883 -0.26878,-0.10029 -0.22461,-0.0842 c -0.007,-0.003 -0.29211,-0.17184 -0.59372,-0.40917 -0.30148,-0.23733 -0.66789,-0.54859 -1.02692,-0.88654 l -0.4653,-0.43725 -0.12038,-0.349 -0.1163,-0.34098 0.0521,-0.28883 0.0682,-0.39312 0.008,-0.0602 -0.007,-0.0602 -0.10028,-0.83038 -0.0962,-0.83038 -0.0283,-0.22063 -0.20054,-0.10028 -0.66592,-0.33296 -0.58166,-0.29284 -0.19256,-0.23668 -0.25276,-0.30888 -0.18051,-0.22464 -0.2728,0.0923 -0.53347,0.17651 -0.28882,0.0923 -0.12038,-0.11633 -0.12031,-0.12436 -0.17253,0 -0.35698,0 -0.25679,0 -0.66993,-0.349 -0.63381,-0.33295 -0.0882,-0.21662 -0.14846,-0.36103 -0.0442,-0.1043 -0.0883,-0.0682 -0.37307,-0.28482 -0.21261,-0.16447 0,-0.17651 0,-0.18452 -0.13238,-0.12436 -0.52549,-0.48138 -0.52147,-0.48539 -0.18453,-0.16848 -0.23667,0.0802 -0.39714,0.14041 -0.11636,0.0401 -0.0883,-0.10831 -0.27273,-0.34097 -0.12441,-0.16047 -0.20054,0 -0.8625,0 -0.86244,0 -0.41718,0 0,0.21663 c -1.46631,-0.22128 -1.8918,-0.31356 -2.17422,-0.43725 -0.11438,-0.0501 -0.22652,-0.0922 -0.32897,-0.12436 l 0,-0.16447 -0.28882,-0.0923 -0.22467,-0.0722 0,-0.0321 0,-0.17651 -0.12434,-0.12034 -0.40913,-0.40116 -0.4092,-0.40114 -0.12031,-0.11634 -0.16851,-0.004 -0.20061,0 c 0.056,5.2e-4 -0.0801,-0.0146 -0.20859,-0.0482 -0.12862,-0.0336 -0.28579,-0.081 -0.43319,-0.13237 l -0.57771,-0.20058 -0.0843,-0.0281 -0.0922,0.008 -0.74615,0.0642 -0.75017,0.0682 -0.10824,0.008 -0.0883,0.0602 -0.34499,0.23267 -0.24471,0.16849 -0.33293,0.016 c -0.28189,0.0138 -0.66334,0.0632 -0.93067,0.12034 l -0.24874,0.0521 -0.1685,-0.11232 -0.31691,-0.2086 -0.10429,-0.0682 -0.12433,0 -0.26476,0 c -0.25796,0 -0.46801,0.0776 -0.67798,0.19656 l -0.21254,-0.2808 -0.16046,-0.20459 -0.25276,0.0521 -0.19257,0.0401 c -0.13535,0.0275 -0.37221,0.0844 -0.57362,0.14041 l -0.22467,0.0642 -0.2848,-0.10029 -0.40914,-0.1404 -0.19256,-0.0682 -0.17253,0.11231 -0.30082,0.19657 -0.0923,0.0602 -0.0158,-0.008 -0.23668,-0.12435 -0.19257,-0.1043 -0.19658,0.1043 -0.37308,0.19255 -0.25671,0.13238 -0.30886,-0.0521 c -0.57896,-0.095 -0.76302,-0.0938 -1.26769,0.004 l -0.25269,0.0521 -0.18854,-0.12436 -0.32897,-0.21662 -0.0722,-0.0481 -0.0842,-0.016 -0.59768,-0.10831 c -0.31698,-0.0573 -0.73053,-0.15172 -0.82236,-0.18052 l -0.2728,-0.0842 -0.34499,-0.10831 -0.15644,0.32493 -0.28479,0.58568 -0.17253,0.353 -0.86244,0 -1.04703,0 -0.4212,-0.17249 c -0.22098,-0.0917 -0.78313,-0.38803 -1.16332,-0.62177 l -0.7261,-0.44929 -0.20457,-0.12436 -0.21261,0.11232 -0.26074,0.1404 c -0.071,0.038 -0.30206,0.0883 -0.2848,0.0883 l -0.0639,0 -0.16449,-0.15645 -0.29277,-0.27278 -0.15249,-0.14441 z m -0.26074,0.89456 0.13238,0.12837 0.28882,0.27278 0.12032,0.11233 0.1685,0 0.22461,0 c 0.26469,0 0.46669,-0.0734 0.682,-0.18855 l 0.0442,-0.0241 0.52549,0.32091 c 0.41876,0.25742 0.95796,0.54681 1.2837,0.68196 l 0.49339,0.20458 0.0802,0.0321 0.0802,0 1.13128,0 1.1272,0 0.26074,0 0.11233,-0.23267 0.2848,-0.58968 0.12842,-0.26877 c 0.21393,0.0619 0.53802,0.13132 0.85439,0.18854 l 0.5135,0.0923 0.26073,0.17249 0.32897,0.21662 0.14438,0.0923 0.16448,-0.0321 0.41718,-0.0802 c 0.49477,-0.0959 0.40735,-0.0978 0.9788,-0.004 l 0.44934,0.0762 0.13634,0.02 0.1244,-0.0642 0.37307,-0.19255 0.18051,-0.0923 0.0402,0.02 0.23271,0.12435 0.21657,0.11634 0.20859,-0.13639 0.30088,-0.19656 0.12836,-0.0842 0.21261,0.0762 0.4092,0.1404 0.12433,0.0441 0.12434,-0.0361 0.35303,-0.0963 c 0.16422,-0.0457 0.35718,-0.0899 0.45733,-0.11232 l 0.056,0.0722 0.21663,0.28481 0.22863,0.29685 0.32093,-0.19656 0.26073,-0.16046 c 0.056,-0.0345 0.29917,-0.10029 0.30491,-0.10029 l 0.14035,0 0.21261,0.1404 0.31295,0.2086 0.1484,0.0923 0.1685,-0.0361 0.41718,-0.0883 c 0.19184,-0.041 0.5899,-0.0899 0.80231,-0.10028 l 0.44929,-0.0241 0.11629,-0.004 0.0963,-0.0682 0.34096,-0.23267 0.25269,-0.16848 0.64186,-0.0602 0.66189,-0.0562 0.48943,0.17249 c 0.17002,0.0592 0.34802,0.10843 0.50143,0.14843 0.15328,0.04 0.24307,0.0747 0.40913,0.0762 l 0.0363,0 0.28882,0.28481 0.28084,0.26878 0,0.004 0,0.16447 0,0.30487 0.29277,0.0923 0.25678,0.0802 0.007,0 c 0.0237,0.0614 0.0567,0.12325 0.10832,0.17651 0.0849,0.0872 0.22072,0.14232 0.35303,0.14441 0.0158,2.6e-4 0.033,10e-4 0.0481,0 -0.008,5.6e-4 -0.0224,0.004 -0.0284,0.004 0.0138,0.003 0.0277,0.005 0.0521,0.012 0.068,0.0209 0.16514,0.0562 0.25671,0.0963 0.41348,0.1811 0.9074,0.27877 2.38281,0.50144 l 0.48139,0.0722 0.47737,0.0722 0,-0.35302 0.44532,0 0.6619,0 0.14839,0.18453 0.26878,0.34098 0.18453,0.23266 0.28077,-0.0963 0.39714,-0.1404 0.16046,-0.0562 0.33702,0.3129 0.38909,0.36103 0,0.012 0,0.19255 0,0.20459 0.16448,0.12436 0.37307,0.28882 0.28882,0.21663 0.1043,0.25673 0.14839,0.36104 0.06,0.1404 0.13237,0.0682 0.76217,0.40115 0.76216,0.39714 0.0923,0.0481 0.10028,0 0.36107,0 0.18452,0 0.0283,0.0281 0.1484,0.15245 0.1805,0.18051 0.24472,-0.0802 0.53353,-0.1765 0.26074,-0.0842 0.0682,0.0842 0.24874,0.30487 0.056,0.0722 0.0842,0.0401 0.6619,0.33295 0.4653,0.23266 0.0722,0.60574 0.0882,0.77021 -0.056,0.33295 -0.0682,0.39313 -0.0158,0.10429 0.0323,0.10029 0.14846,0.44126 0.1484,0.44127 0.0363,0.0963 0.0762,0.0722 0.54554,0.51348 c 0.3759,0.35387 0.75319,0.68216 1.07913,0.93868 0.31592,0.24865 0.53776,0.42042 0.79427,0.52149 0.0218,0.0832 0.0534,0.1516 0.0882,0.21261 0.054,0.0941 0.12203,0.17822 0.20463,0.26075 l 0.0682,0.0682 0,0.44527 0,0.61377 0,0.0682 0.0237,0.0682 0.14444,0.41719 0.0882,0.25273 -0.30886,0.63381 -0.38507,0.79026 -0.0442,0.0883 0.007,0.10028 0.0198,1.28368 0.0198,1.28367 0,0.10431 0.0521,0.0923 0.17655,0.3169 c 0.13251,0.23966 0.44968,0.70183 0.76216,1.13124 l 0.47335,0.64986 0,0.12436 0,0.0842 -0.52549,0.5255 c -0.36529,0.36472 -1.05962,1.07963 -1.55248,1.60459 l -0.8865,0.95072 -0.10832,0.11232 -0.007,0.16046 -0.0158,0.52551 c -0.009,0.31172 -0.007,0.86345 0.0119,1.26361 l 0.0244,0.70603 0.007,0.0842 0.0323,0.0722 0.17655,0.3851 c 0.0903,0.20158 0.26179,0.60714 0.37308,0.88253 l 0.16046,0.40114 -0.056,0.33296 c -0.0165,0.0956 -0.0501,0.21254 -0.0843,0.30889 -0.0343,0.0963 -0.083,0.18401 -0.0682,0.16446 l -0.0762,0.10029 -0.31691,0.10831 -0.36905,0.12837 -0.52951,0 -0.59768,0 -0.17253,0 -0.12031,0.12436 -0.13238,0.13238 -0.0284,0.0281 -0.55358,0.0602 -0.694,0.0802 -0.15644,0.016 -0.10429,0.11633 -0.5456,0.5897 -0.54554,0.59369 -0.10831,0.12035 0,0.16046 0,0.20458 -0.06,0.0361 -0.19658,0.12033 0,0.22866 -0.007,0.47336 -0.007,0.40917 -0.21261,0.63783 -0.16448,0.50143 c -0.24116,0.0838 -0.37169,0.20554 -0.50545,0.38511 l -0.62979,-0.10431 c -0.48462,-0.0836 -1.16839,-0.20291 -1.52037,-0.26476 l -0.64186,-0.11633 -0.0521,-0.008 -0.0481,0.004 -0.59775,0.0401 -0.59366,0.0402 -0.0762,0.004 -0.0682,0.0321 -0.81834,0.36906 -0.81833,0.37307 -0.06,0.0241 -0.0481,0.0482 -0.78623,0.72608 c -0.20891,0.19341 -0.41797,0.37099 -0.57368,0.49341 -0.0779,0.0612 -0.1449,0.11058 -0.18453,0.13638 -0.0145,0.009 -0.0165,0.01 -0.0198,0.012 -0.0787,0.02 -0.12967,0.0501 -0.17252,0.0762 -0.0633,0.0387 -0.12018,0.0789 -0.18051,0.12837 -0.12057,0.099 -0.25038,0.22586 -0.37709,0.36504 l -0.35296,0.38911 -0.45733,0.20058 c -0.3411,0.15088 -0.68081,0.33981 -0.91458,0.57364 l -0.007,0.004 -0.4533,-0.30087 c -0.2136,-0.14224 -0.42733,-0.26784 -0.60975,-0.36504 -0.0912,-0.0486 -0.1749,-0.0917 -0.25269,-0.12435 -0.0152,-0.007 -0.0429,-0.01 -0.056,-0.016 l 0,-0.3129 -0.41725,0 -0.29277,0 -0.16449,0 -0.20858,-0.14442 c -0.1521,-0.10549 -0.41085,-0.31132 -0.52154,-0.41318 l -0.24867,-0.22865 -0.12038,-0.11232 -0.16047,0 -0.19652,0 -0.19659,0 -0.1685,0 -0.12434,0.12034 -0.26073,0.25673 c -0.44494,0.43599 -0.96509,0.80292 -1.43211,1.02293 l -0.42521,0.20057 -0.45733,-0.02 -0.44124,-0.016 -0.22869,-0.16849 c -0.57982,-0.42422 -1.81652,-1.03163 -2.51922,-1.24356 l -0.52147,-0.15645 -0.15644,-0.0481 -0.14444,0.0682 -0.82631,0.40115 c -0.87351,0.42161 -1.84143,1.04537 -2.41492,1.5725 l -0.06,-0.12837 -0.0323,-0.0762 -0.11234,-0.24471 -0.24069,0 0,-0.0682 -0.23667,-0.11634 -0.67389,-0.32493 -0.67396,-0.32894 -0.06,-0.0321 -0.0722,-0.008 -0.44928,-0.0562 c -0.18736,-0.0233 -0.58503,-0.12894 -0.75815,-0.20058 l -0.41322,-0.17249 -0.19256,-0.0802 -0.18051,0.10831 -0.37307,0.22063 -0.27273,0.16046 -0.46135,0 -0.57362,0 -0.14444,0 -0.11234,0.0923 -0.35296,0.2768 c -0.15526,0.12217 -0.52747,0.35781 -0.74615,0.46934 l -0.31295,0.16046 -0.10423,-0.0321 c 0.0284,0.008 -0.0784,-0.0361 -0.17654,-0.1043 -0.0982,-0.0682 -0.21024,-0.15696 -0.29687,-0.24069 l -0.38507,-0.37307 -0.0442,-0.0441 -0.056,-0.0281 -0.84246,-0.42922 -0.83838,-0.42522 -0.0802,-0.0401 -0.0923,-0.004 -0.77416,-0.0321 -0.77423,-0.0321 -0.20463,-0.008 -0.13231,0.16046 -0.16851,0.20057 -0.0402,0.0482 -0.11227,0 -0.30893,0 -0.28881,0 -0.10028,0.26877 -0.12434,0.32092 -0.0323,0.0842 c -0.0349,0.0108 -0.0869,0.0156 -0.11636,0.0281 -0.0639,0.0271 -0.12374,0.0599 -0.18453,0.0963 -0.12156,0.0727 -0.24781,0.16449 -0.36905,0.26877 l -0.26475,0.22865 -0.12836,0.004 c -0.11418,0.007 -0.35679,0.003 -0.46135,-0.008 l -0.11629,-0.0121 -0.22467,-0.2126 -0.32495,-0.30888 -0.12434,-0.11634 -0.16448,0 -0.21657,0 c 0.007,10e-4 0,0 -0.008,0 -0.0198,-0.004 -0.0795,-0.0162 -0.14042,-0.0361 -0.0881,-0.0287 -0.19171,-0.0704 -0.27273,-0.11231 l -0.38112,-0.20058 -0.10027,-0.0481 -0.11234,0.004 -1.05501,0.0482 -1.055,0.0481 -0.0842,0.004 -0.0802,0.0361 -0.97484,0.46935 -0.88248,0.42922 -0.14445,0 c -0.27201,0 -0.52272,0.0772 -0.78623,0.1725 l -0.20061,0.0722 -0.43722,-0.30889 c -0.34452,-0.2453 -0.7675,-0.52928 -0.98683,-0.66189 l -0.34901,-0.21261 -0.0722,-0.0441 -0.0802,-0.012 -0.43729,-0.0682 c -0.20925,-0.0325 -0.58502,-0.11737 -0.76216,-0.17249 l -0.38507,-0.12034 -0.1244,-0.0401 -0.12836,0.0401 -0.70599,0.23266 c -0.35765,0.11673 -0.88236,0.21511 -0.9467,0.21662 -0.58035,0.0137 -1.0821,0.29827 -1.63272,0.85845 l -0.29686,0.30087 c -0.0211,-0.005 -0.0613,-0.0139 -0.10027,-0.0321 -0.0781,-0.0363 -0.1776,-0.0921 -0.25671,-0.14843 -0.25909,-0.18448 -0.77772,-0.4795 -1.24355,-0.71806 l -0.82236,-0.4212 -0.0521,-0.0281 -0.056,-0.008 -0.69802,-0.1404 -0.69801,-0.1404 -0.0922,-0.02 -0.0923,0.0241 -0.44124,0.11232 c -0.27372,0.07 -0.79157,0.23592 -1.20743,0.38109 l -0.73816,0.25673 -0.0922,0.0321 -0.064,0.0642 -0.34499,0.34499 -0.2086,0.20859 -0.68997,-0.0481 -0.73408,-0.0521 -0.14846,-0.13639 -0.1163,-0.1043 0,-0.0281 0,-0.2126 0,-0.18453 -0.13639,-0.12436 -0.28882,-0.26475 c -0.24848,-0.22685 -0.62946,-0.43505 -0.99489,-0.59371 l -0.48534,-0.2126 -0.21663,-0.30487 -0.28487,-0.40116 -0.12434,-0.1765 -0.21663,0 -0.14437,0 c -0.25817,0 -0.30352,0.0818 -0.4092,0.14842 -0.10561,0.0667 -0.21195,0.14586 -0.31288,0.24069 l -0.1364,0.12837 -0.33293,-0.0722 -0.54962,-0.11634 -0.11227,-0.0241 -0.10831,0.0361 -0.64186,0.22063 -0.35705,0.12436 -0.10429,-0.13639 -0.12434,-0.16448 -0.20457,0 -0.18854,0 c -0.21287,0 -0.35415,0.0666 -0.49345,0.1725 l -0.16047,-0.11232 c -0.5274,-0.37081 -0.73493,-0.6373 -0.79427,-0.83439 -0.0909,-0.30223 -0.26726,-0.52204 -0.48936,-0.72207 -0.10799,-0.0972 -0.34638,-0.38105 -0.44526,-0.53352 l -0.23265,-0.35703 -0.0481,-0.0722 -0.0722,-0.0481 -0.68998,-0.45732 c -0.1776,-0.11793 -0.36173,-0.25211 -0.50545,-0.36905 -0.14385,-0.11695 -0.26192,-0.25088 -0.24069,-0.22064 l -0.16851,-0.24069 -0.11629,-0.16446 -0.20061,-0.012 -0.82632,-0.0521 -0.67395,-0.0401 -0.38909,-0.35701 -0.50143,-0.46132 -0.15644,-0.14442 -0.20866,0.0441 -0.34901,0.0682 -0.10831,0.0241 c -0.0789,-0.0958 -0.27227,-0.33821 -0.44124,-0.54958 l -0.23265,-0.29283 -0.0158,-0.5576 -0.0198,-0.58568 0.0923,-0.1765 0.14839,-0.27278 0.0521,-0.10029 -0.007,-0.11232 -0.0198,-0.55358 -0.0244,-0.55359 -0.007,-0.16448 -0.11636,-0.11633 -0.17649,-0.17249 c 0.0231,0.0233 -0.1153,-0.14509 -0.24873,-0.33295 -0.13324,-0.18786 -0.29614,-0.42921 -0.45331,-0.66992 l -0.58159,-0.89055 -0.0639,-0.10029 -0.11233,-0.0521 -0.32495,-0.14842 c -0.0165,-0.008 -0.17325,-0.0988 -0.3289,-0.21662 -0.15565,-0.11784 -0.32924,-0.26884 -0.48139,-0.40917 -0.17345,-0.15998 -0.34881,-0.30198 -0.49741,-0.41319 -0.0744,-0.0556 -0.14147,-0.10437 -0.20865,-0.1444 -0.0541,-0.0323 -0.0721,-0.0753 -0.20055,-0.0923 7e-5,-10e-4 -0.007,-0.002 -0.0237,-0.004 0,5.6e-4 0.007,0.003 0.008,0.004 -0.0277,-0.003 -0.0528,-0.008 -0.0923,-0.008 0.0415,3.9e-4 0.0674,0.002 0.0842,0.004 -0.007,-0.002 -0.0138,-0.003 -0.0198,-0.008 -0.0376,-0.0259 -0.0913,-0.0709 -0.13237,-0.11634 l -0.23272,-0.25673 -0.12434,-0.14041 -0.11234,0 0,-0.27278 0,-0.54556 0.56162,-0.70201 c 0.74734,-0.93423 1.10716,-1.43841 1.10716,-2.00976 0,-5.6e-4 0.062,-0.10979 0.0323,-0.0923 l 0.11636,-0.12034 0.11234,-0.11232 0.008,-0.16047 0.0482,-0.89857 0.0481,-0.90258 0.007,-0.11232 -0.0521,-0.1003 -0.1805,-0.353 -0.1364,-0.26476 -0.007,-0.23667 0,-0.33697 0,-0.16046 -0.10831,-0.12035 -0.70607,-0.76619 -0.58166,-0.63382 0.28882,-0.29283 c 0.22388,-0.22554 0.73599,-0.71385 1.11922,-1.07107 l 0.70204,-0.65788 0.056,-0.0522 0.0363,-0.0682 0.4212,-0.85445 0.42127,-0.85445 0.0363,-0.0762 0.007,-0.0842 0.06,-1.02293 0.06,-1.02693 0.0284,-0.44127 -0.40116,0 c -0.0336,-0.0418 -0.0746,-0.0925 -0.11234,-0.15644 l -0.12433,-0.21262 0.0237,-0.0923 c 0.0626,10e-4 0.10344,-0.001 0.15644,0.004 l 0.23272,0.0281 0.14437,0.0121 0.12039,-0.0762 0.28077,-0.18051 c 0.0126,-0.008 0.17016,-0.084 0.34901,-0.15244 0.17886,-0.0684 0.39463,-0.14277 0.59366,-0.20057 0.21927,-0.0636 0.44203,-0.13545 0.62985,-0.20058 0.18776,-0.0651 0.32073,-0.10681 0.44929,-0.1765 0.0145,-0.008 0.25058,-0.0718 0.3169,-0.0722 0.48139,-0.003 1.03312,-0.22392 1.55644,-0.46935 0.36021,-0.16889 0.65754,-0.30577 0.88254,-0.57364 0.34954,-0.41606 0.64198,-0.96657 0.69802,-1.47622 l 0.0198,-0.1725 0.16844,-0.17249 c 0.15664,-0.1615 0.52167,-0.55479 0.82637,-0.88654 l 0.46537,-0.50946 0.24868,-0.0602 0.10429,-0.0281 0.0442,0.0562 0.20456,0.26477 0.12434,0.16045 0.20061,0.004 0.96278,0.008 0.9627,0.008 0.0402,0.004 0.0402,-0.008 0.77021,-0.13639 c 0.39661,-0.0698 0.98447,-0.12655 1.20347,-0.12436 l 0.51343,0.004 0.15651,0.004 0.12031,-0.10029 0.8865,-0.75817 0.77021,-0.65788 0.11636,0 c 0.26086,-0.002 0.63229,-0.0387 0.99086,-0.0842 0.35856,-0.0456 0.66261,-0.0854 0.88649,-0.15645 l 0.0723,-0.0241 0.14438,0.0963 0.30886,0.20058 0.10436,0.0682 0.12433,0 0.36504,0 0.25276,0 0.42522,0.21663 0.5094,0.26475 0.11234,0.0602 0.12836,-0.016 0.68998,-0.0802 0.68595,-0.0842 0.0963,-0.012 0.0802,-0.0521 0.68595,-0.43725 c 0.1784,-0.11414 0.3591,-0.21683 0.49741,-0.28883 0.0691,-0.036 0.12829,-0.0652 0.16449,-0.0802 0.0178,-0.008 0.0395,-0.009 0.0402,-0.008 0.12856,-0.0145 0.2018,-0.06 0.28487,-0.1043 0.10093,-0.0539 0.19771,-0.11811 0.28882,-0.20058 l 0.0802,-0.0722 0.72202,0.11233 0.8625,0.1364 0.32092,0.16446 0.38909,0.20459 0.12836,0.0642 0.14042,-0.0281 0.33695,-0.0642 0.21261,-0.0401 0.31697,0.13238 0.4332,0.18051 0.0762,0.0321 0.0842,0 0.39311,0 c 0.72169,0 1.95707,-0.25229 2.73987,-0.54155 0.39871,-0.14731 0.61765,-0.21529 0.74212,-0.23267 0.12447,-0.0173 0.18038,-0.009 0.38514,0.0481 l 0.35698,0.10029 0.22066,0.0642 0.17246,-0.15645 0.22869,-0.20859 c 0.009,-0.008 0.0106,-0.005 0.0198,-0.012 0.007,0.003 0.009,0.009 0.0119,0.012 0.0787,0.0753 0.15901,0.13007 0.25269,0.18853 0.18762,0.11694 0.42002,0.23131 0.66994,0.33697 0.49991,0.21132 1.02534,0.39723 1.48022,0.39714 0.54191,-1.1e-4 1.18027,-0.25195 1.95364,-0.65788 0.13877,-0.0729 0.27728,-0.13881 0.38507,-0.18454 0.0185,-0.008 0.0277,-0.01 0.0442,-0.016 0.0422,0.0339 0.0914,0.0721 0.13634,0.12035 l 0.26877,0.28883 0.11234,0.12034 0.16046,0.012 0.47334,0.0401 c 1.18943,0.0963 1.329,0.1136 1.56449,0.18854 l 0,0.23266 0.3169,0.0762 0.33299,0.0842 0.33292,0.0842 0.20457,0.0521 0.16448,-0.13639 0.17253,-0.14442 0.0962,-0.0762 0.99086,-0.2086 c 0.29436,-0.0613 0.56887,-0.10746 0.76619,-0.13639 0.0898,-0.0132 0.15829,-0.0202 0.20456,-0.0241 0.0356,0.007 0.07,0.007 0.0923,0.008 0.0547,0.004 0.0901,-1.2e-4 0.12433,-0.004 0.0684,-0.008 0.12777,-0.0227 0.1966,-0.0402 0.13765,-0.0349 0.30148,-0.0868 0.47334,-0.15245 l 0.57362,-0.22063 0.17648,-0.0642 0.064,-0.1765 0.0521,-0.12436 0.23265,-0.0441 0.25678,-0.0481 z m -0.7702,2.64357 -0.40116,0.0722 -0.40518,0.0722 -0.056,0.14441 -0.056,0.14441 -0.50149,0.18454 c -0.27584,0.10127 -0.52537,0.15948 -0.55358,0.13237 -0.0284,-0.0271 -0.47921,0.0356 -1.00286,0.1404 l -0.95071,0.19256 -0.15242,0.12034 -0.14847,0.12035 -0.28881,-0.0722 -0.29285,-0.0682 0,-0.0883 c 0,-0.0486 -0.11075,-0.12211 -0.24867,-0.16447 -0.23542,-0.0722 -0.40432,-0.0955 -1.44416,-0.1765 l -0.41315,-0.0321 -0.23272,-0.2407 c -0.12856,-0.13269 -0.28355,-0.24069 -0.34499,-0.24069 -0.0613,0 -0.32343,0.10635 -0.58166,0.23668 -0.64654,0.32625 -1.19741,0.5094 -1.52836,0.50946 -0.52054,1e-4 -1.89746,-0.55855 -1.89746,-0.77021 0,-0.14208 -0.25111,-0.0906 -0.46128,0.0923 l -0.19659,0.17249 -0.31289,-0.0842 c -0.38388,-0.10335 -0.50288,-0.0884 -1.20347,0.16046 -0.61983,0.22019 -1.72527,0.43324 -2.25043,0.43324 l -0.34096,0 -0.3771,-0.14843 -0.37709,-0.15243 -0.29278,0.0521 -0.29285,0.0562 -0.33701,-0.16849 -0.33694,-0.16848 -0.80232,-0.12034 -0.79829,-0.12034 -0.19652,0.17249 c -0.10766,0.0937 -0.25817,0.16848 -0.33299,0.16848 -0.0748,0 -0.40274,0.16774 -0.73006,0.36906 l -0.59372,0.36504 -0.59768,0.0682 -0.60177,0.0682 -0.44124,-0.22063 -0.44124,-0.22063 -0.31294,0 -0.31691,0 -0.26871,-0.16848 -0.26878,-0.16849 -0.22467,0.0682 c -0.24076,0.0735 -1.13729,0.18131 -1.52433,0.18453 l -0.23674,0.004 -0.77021,0.62981 -0.77015,0.6298 -0.44532,-0.004 c -0.24537,-0.003 -0.74714,0.0461 -1.1152,0.10831 l -0.66987,0.11634 -0.83441,-0.008 -0.83838,-0.008 -0.1805,-0.22465 -0.17656,-0.22464 -0.32494,0.0802 -0.32086,0.0762 -0.47737,0.50144 c -0.26311,0.27531 -0.58581,0.60304 -0.7141,0.7301 l -0.23265,0.23266 -0.0283,0.26074 c -0.031,0.2712 -0.27867,0.76461 -0.5255,1.047 -0.0972,0.11139 -0.34868,0.257 -0.64185,0.38911 -0.42581,0.19199 -0.94148,0.35535 -1.2034,0.35703 -0.13884,5.6e-4 -0.33879,0.0488 -0.44533,0.10429 -0.10647,0.0555 -0.49444,0.18612 -0.86244,0.28883 -0.36812,0.10272 -0.78055,0.25095 -0.91458,0.33296 l -0.2407,0.14842 -0.20463,-0.02 c -0.11121,-0.0111 -0.25941,-0.0149 -0.3289,-0.008 l -0.1244,0.012 -0.064,0.23667 -0.0639,0.23267 0.18854,0.30086 c 0.10232,0.16654 0.22586,0.30487 0.27682,0.30487 l 0.0922,0 -0.0521,0.85445 -0.0521,0.85445 -0.36503,0.71404 -0.36503,0.71405 -0.61377,0.54957 c -0.33635,0.30153 -0.7797,0.70986 -0.98282,0.90659 l -0.36905,0.35703 0,0.12837 0,0.12435 0.6137,0.64184 0.61377,0.64183 0,0.28081 0,0.28482 0.16046,0.29284 0.16047,0.29685 -0.0442,0.75014 -0.0402,0.75417 -0.11629,0.11231 c -0.0646,0.0622 -0.12038,0.19981 -0.12038,0.30889 0,0.29169 -0.23991,0.69658 -0.87846,1.46419 l -0.56966,0.68195 0,0.57766 0,0.57364 0.1484,0 0.15249,0 0.20054,0.21662 c 0.11102,0.11795 0.2577,0.21598 0.32494,0.21662 0.0671,5.7e-4 0.35337,0.20505 0.63783,0.45731 0.28447,0.25227 0.64627,0.51734 0.80232,0.58567 l 0.2848,0.12035 0.50544,0.74614 c 0.27815,0.40972 0.57442,0.8103 0.65788,0.89055 l 0.14839,0.14842 0.0204,0.46133 0.0198,0.46533 -0.12835,0.22866 -0.12836,0.22865 0.0198,0.58166 0.0198,0.58167 0.27682,0.33295 c 0.15249,0.18333 0.33266,0.39783 0.40109,0.47737 l 0.12441,0.14441 0.30483,-0.0562 0.30491,-0.0602 0.43319,0.38511 0.43327,0.3851 0.71806,0.0402 0.71403,0.0401 0.14847,0.20057 c 0.0803,0.11026 0.41612,0.37509 0.74608,0.58568 l 0.59774,0.38109 0.20457,0.30087 c 0.11096,0.16456 0.31309,0.39551 0.44928,0.51346 0.13628,0.11795 0.27749,0.31558 0.31691,0.44127 0.0884,0.28243 0.34426,0.55392 0.8304,0.88252 l 0.37307,0.25273 0.12434,-0.12035 c 0.0676,-0.065 0.1925,-0.11633 0.28084,-0.11633 l 0.16046,0 0.12433,0.15645 0.12434,0.15644 0.5576,-0.18452 0.55759,-0.18453 0.47737,0.0963 0.47737,0.0963 0.25678,-0.22865 c 0.14022,-0.12668 0.30853,-0.22866 0.37702,-0.22866 l 0.12441,0 0.24867,0.33295 0.24874,0.33697 0.51349,0.2126 c 0.28157,0.11758 0.62419,0.31208 0.76217,0.43325 l 0.24874,0.22063 0,0.18052 0,0.1765 0.22058,0.19256 0.22065,0.19255 0.76619,0.0521 0.76619,0.0521 0.29686,-0.28481 0.29686,-0.28883 0.64185,-0.21261 c 0.35211,-0.11817 0.81319,-0.25729 1.0229,-0.30889 l 0.38105,-0.0963 0.60579,0.11634 0.60573,0.12034 0.71403,0.34899 c 0.39213,0.19305 0.85697,0.45178 1.03497,0.57365 0.17793,0.12187 0.40241,0.22063 0.49741,0.22063 l 0.17253,0 0.36905,-0.36103 c 0.45146,-0.44166 0.75781,-0.60049 1.16734,-0.60975 0.1728,-0.004 0.58951,-0.0948 0.92665,-0.20057 l 0.61377,-0.19255 0.33694,0.10029 c 0.1844,0.0551 0.50579,0.12541 0.71405,0.15644 l 0.37708,0.0562 0.30485,0.1765 c 0.16738,0.0973 0.54164,0.34114 0.83441,0.54155 l 0.53354,0.36505 0.35296,-0.12436 c 0.19481,-0.0677 0.4458,-0.12034 0.5576,-0.12034 l 0.20464,0 0.85043,-0.39313 0.84642,-0.39312 0.91861,-0.0402 0.91465,-0.0401 0.33292,0.16447 c 0.18269,0.0909 0.41844,0.16447 0.5255,0.16447 l 0.19658,0 0.2848,0.26075 0.2848,0.25673 0.22468,0.02 c 0.12275,0.0119 0.32481,0.0188 0.4533,0.012 l 0.23667,-0.012 0.32093,-0.26877 c 0.17826,-0.14737 0.39113,-0.2687 0.46932,-0.26878 l 0.14042,0 0.1043,-0.26876 0.10831,-0.26877 0.26878,0 0.26476,0 0.1484,-0.16447 0.14444,-0.16849 0.66987,0.0241 0.67396,0.0281 0.73005,0.35701 0.73013,0.35301 0.33292,0.3129 c 0.18407,0.17122 0.43663,0.34195 0.56162,0.37708 l 0.2287,0.0602 0.40116,-0.19255 c 0.21979,-0.10778 0.5365,-0.3011 0.70599,-0.42923 l 0.30886,-0.23267 0.49741,0 0.49747,0 0.32488,-0.18452 0.32495,-0.18453 0.36108,0.14441 c 0.19909,0.0792 0.5394,0.16291 0.75412,0.18854 l 0.38909,0.0481 0.58575,0.27278 0.58561,0.2768 0,0.0923 0,0.0963 0.16851,0 0.1685,0 0.12836,0.26877 c 0.0699,0.14743 0.15222,0.26476 0.18453,0.26476 0.0323,0 0.1749,-0.1 0.31288,-0.22465 0.44144,-0.39864 1.30222,-0.94043 2.04184,-1.28367 l 0.71806,-0.33295 0.45331,0.12836 c 0.5216,0.15125 1.65512,0.69345 2.07797,0.99084 l 0.28882,0.20057 0.49339,0.02 0.49338,0.016 0.44533,-0.20058 c 0.45179,-0.20458 0.92619,-0.53304 1.33981,-0.92264 l 0.22869,-0.2126 0.16844,0 0.17253,0 0.21663,0.19255 c 0.11886,0.10526 0.3378,0.27192 0.48936,0.37307 l 0.27682,0.18452 0.2527,0 0.25671,0 0,0.10832 0,0.1083 0.16046,0 c 0.088,0 0.44612,0.18367 0.79829,0.40917 l 0.64186,0.40918 0.2126,-0.2086 c 0.11815,-0.1135 0.42826,-0.29556 0.68596,-0.40516 l 0.46537,-0.19656 0.36101,-0.3811 c 0.19764,-0.2088 0.41441,-0.38109 0.48138,-0.38109 0.067,0 0.43037,-0.27113 0.80634,-0.60573 l 0.68193,-0.60975 0.71002,-0.30888 0.71002,-0.30889 0.51751,-0.0321 0.51745,-0.0361 0.5576,0.0963 c 0.30675,0.0518 0.90232,0.15076 1.32379,0.22062 l 0.76618,0.12838 0.12842,-0.16448 c 0.0694,-0.0905 0.19389,-0.18905 0.28078,-0.21662 l 0.16046,-0.0481 0.20055,-0.58567 0.20061,-0.58167 0.007,-0.39714 0.007,-0.39714 0.10831,-0.0642 0.11227,-0.0682 0,-0.18052 0,-0.18051 0.47341,-0.49342 0.47334,-0.49742 0.60573,-0.0642 0.60573,-0.0642 0.11233,-0.11232 0.11636,-0.10832 0.51745,0 0.52147,0 0.3771,-0.12836 0.38111,-0.12436 0.13238,-0.16848 c 0.073,-0.0929 0.16329,-0.33837 0.20054,-0.54556 l 0.0682,-0.37708 -0.18056,-0.42923 c -0.0988,-0.23512 -0.24637,-0.56922 -0.32891,-0.74614 l -0.15241,-0.32493 -0.0244,-0.58968 c -0.0132,-0.32436 -0.0158,-0.78809 -0.008,-1.03095 l 0.0119,-0.44127 0.77423,-0.79026 c 0.42509,-0.43534 1.02475,-1.03731 1.33578,-1.33583 l 0.56565,-0.54155 0,-0.2126 0,-0.21262 -0.48139,-0.64183 c -0.26595,-0.35136 -0.55325,-0.7556 -0.63783,-0.90259 l -0.15242,-0.26877 -0.0198,-1.07107 -0.0158,-1.07507 0.33299,-0.65789 0.33695,-0.66189 -0.12836,-0.349 -0.12433,-0.34499 0,-0.51347 0,-0.51347 -0.16851,-0.16046 c -0.092,-0.0885 -0.16449,-0.21175 -0.16449,-0.27679 l 0,-0.12035 -0.19652,-0.0682 c -0.23759,-0.085 -0.88986,-0.58144 -1.52842,-1.15932 l -0.47334,-0.42522 -0.12836,-0.36906 -0.13238,-0.36906 0.06,-0.32893 0.06,-0.32895 -0.0882,-0.69398 -0.0842,-0.69399 -0.57771,-0.27679 -0.57764,-0.2768 -0.21656,-0.25673 -0.21663,-0.25673 -0.46537,0.14842 -0.46128,0.14441 -0.13238,-0.12435 -0.12843,-0.12436 -0.31287,0 -0.30887,0 -0.66189,-0.33697 -0.66591,-0.33295 -0.12836,-0.30086 -0.12836,-0.30086 -0.32495,-0.23668 -0.32494,-0.24069 0,-0.16046 0,-0.16045 -0.4533,-0.40517 -0.45733,-0.40516 -0.34499,0.11634 -0.34499,0.11633 -0.23667,-0.28481 -0.23667,-0.28482 -0.74614,0 -0.7501,0 0,0.11633 0,0.12035 -0.41718,-0.0602 c -1.2781,-0.18541 -1.67932,-0.26582 -1.98172,-0.39312 -0.18394,-0.0775 -0.37116,-0.13387 -0.41718,-0.12435 -0.0461,0.01 -0.0842,-0.0253 -0.0842,-0.0802 l 0,-0.10028 -0.22065,-0.0682 -0.22461,-0.0682 0,-0.1404 0,-0.1404 -0.35705,-0.33697 -0.35297,-0.33295 -0.17655,-0.004 c -0.0957,-5.6e-4 -0.39806,-0.0761 -0.67389,-0.16848 l -0.50143,-0.16848 -0.6499,0.0562 -0.65385,0.0562 -0.29685,0.19255 -0.29687,0.19657 -0.38909,0.016 c -0.21465,0.0101 -0.55463,0.0513 -0.75419,0.0923 l -0.36101,0.0762 -0.27682,-0.17249 -0.27273,-0.17249 -0.22869,0 c -0.12559,0 -0.3328,0.0587 -0.45733,0.13238 l -0.22461,0.13639 -0.19257,-0.23668 -0.18855,-0.24069 -0.16844,0.0361 c -0.092,0.0179 -0.30167,0.0675 -0.46939,0.11232 l -0.30483,0.0802 -0.35705,-0.11633 -0.35297,-0.12035 -0.26476,0.16447 -0.2608,0.16448 -0.20055,-0.10431 -0.20456,-0.10429 -0.32495,0.16447 -0.32495,0.16046 -0.39311,-0.0602 c -0.49978,-0.0789 -0.54065,-0.0809 -0.97477,0 l -0.36108,0.0682 -0.28882,-0.18051 -0.28479,-0.18052 -0.52147,-0.0883 c -0.28685,-0.0498 -0.62808,-0.12523 -0.75822,-0.16447 l -0.23667,-0.0722 -0.24873,0.49341 -0.24867,0.4894 -0.97881,0 -0.97879,0 -0.43326,-0.17249 c -0.23753,-0.0947 -0.71595,-0.33641 -1.06305,-0.54156 l -0.62979,-0.37306 -0.22863,0.11633 c -0.12446,0.0639 -0.3138,0.11633 -0.42126,0.11633 l -0.1925,0 -0.25276,-0.22865 -0.25269,-0.22865 z m 4.80979,5.98915 0.89454,0.0482 0.89454,0.0481 0.75017,0.37708 0.75017,0.37707 0.35296,0.34499 c 0.19554,0.18978 0.4717,0.43164 0.61377,0.53754 0.14207,0.10591 0.44157,0.46878 0.66591,0.8023 0.22428,0.33351 0.46557,0.63998 0.53354,0.68195 0.16033,0.0991 0.50545,0.92208 0.50545,1.20746 0,0.12173 0.0848,0.39379 0.18855,0.60172 l 0.18855,0.37708 -0.10034,0.37307 -0.10028,0.37708 -0.89052,0.48539 -0.89059,0.48138 -1.02692,0 -1.02692,0 -0.19257,-0.12436 c -0.10588,-0.0684 -0.33971,-0.12333 -0.51751,-0.12435 l -0.32489,-0.004 -0.46536,-0.31691 -0.46933,-0.3169 -0.38111,-0.67795 c -0.20905,-0.37225 -0.48323,-1.01544 -0.60975,-1.42808 l -0.22862,-0.75015 0.14839,-0.41319 0.15242,-0.41318 0,-0.76218 0.007,-0.76218 0.29284,-0.51348 0.28882,-0.51346 z m -22.50849,0.0642 0.44125,0 0.4413,0 0.39311,0.20459 0.39312,0.20459 0.26073,-0.0682 0.26074,-0.0682 0.36107,0.18453 c 0.19745,0.10212 0.4574,0.18453 0.57764,0.18453 0.12025,0 0.51468,0.14145 0.8745,0.3129 l 0.65385,0.31289 0.51752,0.55359 c 0.28644,0.30511 0.69031,0.80441 0.89454,1.11118 l 0.37307,0.5576 -0.19257,0.34097 -0.1925,0.34098 -0.69802,0.47335 -0.70204,0.46935 -0.32093,0.0441 -0.32085,0.0402 -0.19257,0.39313 -0.19257,0.38911 -0.57764,0.51346 c -0.64613,0.57361 -1.13945,0.82236 -1.62467,0.82236 l -0.32488,0 -0.32897,-0.25674 -0.32494,-0.25673 -0.80232,0 -0.7983,0 -0.61772,0.63783 c -0.34011,0.35057 -0.67237,0.72811 -0.73414,0.83839 l -0.11227,0.20059 -0.0119,1.1914 -0.0119,1.1874 0.21656,0.32895 0.21663,0.32493 0.49345,0.14842 c 0.27195,0.0815 0.6207,0.14843 0.77819,0.14843 l 0.28889,0 0.373,-0.22064 0.37308,-0.21662 0,-0.16848 0,-0.16447 -0.16047,-0.012 c -0.0881,-0.007 -0.36793,-0.003 -0.61772,0.008 l -0.4533,0.02 -0.20457,-0.23267 -0.20463,-0.23267 -0.06,-0.68998 -0.064,-0.68996 0.22863,-0.19256 c 0.44875,-0.38425 1.7591,-0.76592 3.06884,-0.89055 l 0.69795,-0.0642 0.29686,-0.19656 0.29687,-0.19255 0.26073,0.0682 0.26073,0.0682 0.41323,-0.13238 c 0.22639,-0.0735 0.73098,-0.18104 1.11915,-0.23668 0.38836,-0.0556 0.93818,-0.13967 1.22351,-0.18853 l 0.51751,-0.0883 0.34901,0.50144 0.34895,0.50143 0,0.35702 0,0.35703 -0.2647,0.34097 c -0.78866,1.02071 -0.98789,1.32931 -1.29576,2.02179 -0.45403,1.02145 -0.62174,1.59616 -0.62174,2.09399 l 0,0.41319 0.20858,0.66591 0.21262,0.6659 0.26475,0.29686 c 0.2554,0.2831 0.4032,0.38005 1.32781,0.8745 l 0.41315,0.22063 0.0723,0.18854 0.0722,0.18452 -0.14444,0.17651 c -0.19296,0.23249 -0.72874,0.49072 -2.08997,1.01892 l -1.13524,0.44126 -0.29686,0 -0.30088,0 -0.27274,-0.34499 -0.27279,-0.349 -0.21664,0.15645 c -0.11952,0.0855 -0.33951,0.20503 -0.48541,0.26878 -0.14583,0.0637 -0.48963,0.26958 -0.76618,0.4573 -0.27663,0.18773 -0.70646,0.43028 -0.95474,0.53754 -0.24814,0.10727 -0.64936,0.28064 -0.89052,0.3851 l -0.43729,0.18854 -1.03892,-0.0361 c -1.39393,-0.0505 -2.134,-0.15112 -2.47108,-0.33697 -0.15433,-0.085 -0.39232,-0.15644 -0.52951,-0.15644 l -0.25276,0 -0.16046,-0.19657 -0.16448,-0.19657 0.29283,-0.66991 c 0.16218,-0.36803 0.37044,-0.83802 0.46135,-1.047 l 0.16448,-0.38109 -0.0442,-1.1192 -0.0442,-1.11921 -0.16448,-0.4894 -0.16844,-0.49342 -0.53354,-0.7381 -0.53353,-0.74213 -0.52951,-0.3811 c -0.29074,-0.21063 -0.58977,-0.3851 -0.66592,-0.3851 -0.0763,0 -0.22019,-0.0758 -0.3169,-0.17249 l -0.17648,-0.1765 -1.24362,-0.004 -1.24356,-0.004 -0.11227,-0.1765 -0.11635,-0.1725 0.056,-0.70602 c 0.0303,-0.38831 0.11174,-1.00469 0.18452,-1.37192 l 0.13238,-0.66992 0.47335,-0.93468 c 0.25981,-0.51529 0.64759,-1.28528 0.86244,-1.70889 0.21505,-0.42362 0.5928,-1.04778 0.83844,-1.38798 l 0.44526,-0.61777 0.706,-0.53753 c 0.38737,-0.29522 0.81048,-0.59706 0.94273,-0.67394 0.13225,-0.0769 0.3413,-0.23372 0.4653,-0.34498 l 0.2287,-0.20058 0.96271,-0.35702 0.96277,-0.35702 0.706,-0.008 0.70606,-0.008 0.0323,0.44928 c 0.0185,0.24711 0.12909,0.76699 0.24867,1.15531 l 0.21663,0.70602 0.30491,0.41719 0.30082,0.4172 0.1805,0 c 0.0987,0 0.45035,0.14441 0.78228,0.32092 0.60586,0.32215 0.94926,0.40399 0.94669,0.22464 0,-0.0529 -0.2871,-0.29845 -0.63783,-0.54556 l -0.63783,-0.44929 -0.32488,-0.53353 -0.32093,-0.53754 0,-0.50544 0,-0.50144 -0.14846,-0.42521 -0.1484,-0.42523 0.28882,-0.23667 0.29284,-0.23668 z m 21.50959,0.51749 0.0639,0.16447 0.064,0.16447 -0.17246,0.23266 -0.17253,0.23668 0.007,1.92952 0,1.92953 0.45733,0.84643 c 0.25256,0.46579 0.52543,0.92579 0.6017,1.02292 0.0765,0.0971 0.54903,0.37153 1.05099,0.60974 l 0.91062,0.43325 0.56565,0 c 0.31156,-0.002 0.80073,-0.0668 1.08309,-0.1404 0.28242,-0.0736 0.71562,-0.17511 0.9627,-0.22866 0.24723,-0.0535 0.57837,-0.16675 0.73817,-0.25272 l 0.29285,-0.15645 0.4533,0.0842 0.45726,0.0842 0.30893,0.698 0.30886,0.70201 0.15644,0.75015 0.15242,0.75416 -0.15644,0.61777 c -0.0866,0.34048 -0.23661,0.99324 -0.33293,1.45216 -0.0963,0.45891 -0.23417,1.05457 -0.3049,1.32379 l -0.12836,0.4894 -0.3289,0.50545 c -0.18294,0.27643 -0.3351,0.54725 -0.33701,0.60172 0,0.0544 -0.18004,0.29845 -0.39312,0.54556 -0.21307,0.24711 -0.61713,0.75255 -0.89856,1.12322 l -0.50947,0.67393 -0.39714,0 -0.39311,0 -0.34097,-0.35703 c -0.1871,-0.19671 -0.55766,-0.48554 -0.82638,-0.64184 l -0.48943,-0.28481 -0.92262,0.004 -0.92263,0.004 -0.26074,0.22062 c -0.14273,0.12121 -0.38823,0.40309 -0.5456,0.6258 l -0.28479,0.40516 0,0.76218 0,0.76218 0.23265,0.21261 0.23667,0.21261 0.0842,-0.0842 0.0883,-0.0842 0.008,-0.65386 0.008,-0.65387 0.22467,-0.38511 0.22863,-0.3851 0.48943,-0.33295 0.49339,-0.33697 0.49741,0.2086 0.50143,0.20458 0.69801,0.73009 c 0.38488,0.40073 0.70204,0.78558 0.70204,0.85445 l 0,0.12436 -0.41724,0.26075 c -0.22935,0.1441 -0.7348,0.49591 -1.12317,0.77822 -0.79612,0.57888 -1.59381,1.03898 -1.79317,1.03898 l -0.13238,0 0,-0.20058 c 0,-0.11054 -0.0607,-0.31134 -0.13238,-0.44527 l -0.12836,-0.24069 -0.19257,0.0722 -0.18854,0.0722 0,0.15645 0,0.15243 -0.49339,0.21662 c -0.27082,0.1195 -0.61904,0.21663 -0.77423,0.21663 -0.15499,0 -0.48864,0.0866 -0.74212,0.19255 l -0.46128,0.19255 -0.40116,0 -0.40115,-0.004 -0.19258,-0.12435 c -0.1058,-0.0684 -0.34392,-0.12333 -0.52951,-0.12436 -0.57098,-0.003 -1.75658,-0.53502 -3.06474,-1.37193 l -0.83442,-0.53352 -0.59372,-0.62178 -0.58965,-0.62178 -0.39311,-0.70603 c -0.21663,-0.3883 -0.52345,-1.04219 -0.67798,-1.45617 l -0.28077,-0.75416 0.0521,-1.17135 0.0521,-1.17536 -0.51751,-0.25674 -0.51745,-0.25673 0.008,-0.60172 0.008,-0.60574 0.1364,-0.29285 c 0.0758,-0.16156 0.20832,-0.55679 0.29284,-0.8745 0.41262,-1.55126 0.55885,-2.0231 0.75419,-2.43096 l 0.2126,-0.44126 0.4212,-0.10831 0.4212,-0.10831 0.73408,0.40115 c 0.89244,0.48853 1.04796,0.61384 1.19543,0.95072 0.0633,0.14411 0.16488,0.3474 0.22467,0.4533 0.06,0.10591 0.17748,0.33044 0.26476,0.49742 l 0.16046,0.30488 -0.007,0.73811 -0.007,0.7341 -0.33299,0.69399 -0.33292,0.68998 -0.66591,0.31289 -0.6619,0.3129 0.33293,0.11232 0.33299,0.10831 0.48541,-0.32493 c 0.26482,-0.17975 0.51692,-0.32895 0.56155,-0.32895 0.0448,0 0.18486,-0.21661 0.31295,-0.48137 0.12809,-0.26477 0.31328,-0.64253 0.41315,-0.84241 l 0.18453,-0.36505 0,-0.76619 0,-0.77021 -0.12836,-0.23266 c -0.0687,-0.12848 -0.1538,-0.48685 -0.19257,-0.79428 l -0.0722,-0.5576 -0.65385,-0.66189 -0.65391,-0.6619 -0.36905,-0.0762 -0.36905,-0.0722 0,-0.30487 0,-0.30488 0.25671,-0.23266 c 0.14134,-0.12779 0.25678,-0.29042 0.25678,-0.36104 0,-0.0706 0.30332,-0.44011 0.67389,-0.82235 l 0.67396,-0.69399 0.4653,-0.24069 0.46537,-0.24469 0.0762,-0.20059 0.0762,-0.19656 0.35705,-0.15243 c 0.19613,-0.0837 0.44375,-0.22178 0.54956,-0.30487 0.36549,-0.2867 1.4615,-0.84634 2.11001,-1.07909 l 0.64989,-0.23267 0.91458,-0.0762 0.91868,-0.0762 z m -2.59141,7.8264 -0.5897,0.6258 -0.58568,0.62578 0.0521,1.00689 0.0481,1.00688 0.19659,0.30086 0.19659,0.30086 0.40109,0.17652 0.39714,0.17249 1.05105,0.012 1.05098,0.008 0.32495,-0.28883 0.32093,-0.28882 0.26073,-0.67794 0.26476,-0.67795 0,-0.37707 0,-0.38109 -0.39714,-0.64585 -0.40116,-0.64585 -0.23265,-0.12436 -0.23667,-0.12837 -1.06305,0 -1.05902,0 z m -10.83103,1.48426 0.30491,0.38108 0.30484,0.38109 0.007,0.28081 0,0.28481 0.12835,0.0762 0.12836,0.0802 0,0.21663 c 0,0.11938 0.0871,0.38345 0.19257,0.58567 l 0.1925,0.36906 0.007,0.52951 0.007,0.52952 0.18453,0.32092 0.1805,0.32092 0.007,0.71806 0.008,0.71805 -0.23667,0.21261 -0.23667,0.21261 -0.1805,-0.008 c -0.24366,-0.0116 -1.04407,-0.35758 -1.92951,-0.83439 l -0.33299,-0.18052 -0.35699,-0.53754 -0.35705,-0.53753 0.36107,-1.42007 0.36101,-1.42408 0.26878,-0.50945 0.26476,-0.50947 0.36503,-0.12836 0.36905,-0.12837 z m 26.07868,1.46819 1.33585,0 1.33579,0 0.44532,0.44929 0.44527,0.44528 -0.0802,0.13238 -0.0802,0.12837 0.20859,0 0.21261,0 0.38507,0.38911 0.38916,0.38911 -0.0442,1.01491 -0.0481,1.0109 -0.10027,0.10429 -0.10027,0.10029 -0.50948,-0.02 -0.50545,-0.02 0,0.11633 c 0,0.0644 0.11557,0.17716 0.25672,0.25272 l 0.25678,0.14041 0,0.23667 0,0.23668 -0.41725,0.62981 c -0.52727,0.79558 -0.66347,1.01395 -0.99883,1.63266 l -0.26878,0.50144 0.1685,0.10831 0.16844,0.10831 0.19257,-0.0923 c 0.10594,-0.0492 0.6348,-0.11047 1.17941,-0.13639 l 0.99079,-0.0441 0.064,0.29685 c 0.1101,0.52925 0.21894,1.18276 0.2848,1.7089 l 0.0639,0.51347 -0.1805,0.24069 -0.17655,0.24069 -0.50545,0.18854 c -0.27722,0.10374 -0.73243,0.23818 -1.01486,0.29684 -0.66083,0.13729 -2.10691,0.47952 -2.45506,0.58167 l -0.26878,0.0762 -0.21663,-0.21662 -0.21656,-0.21663 -0.2287,0.20861 -0.22863,0.20458 -0.22468,0 c -0.12262,0 -0.3223,0.051 -0.44123,0.11232 -0.11893,0.0613 -0.41474,0.1462 -0.6619,0.18854 l -0.44928,0.0762 -0.22467,-0.12838 -0.22461,-0.13238 0,-0.27277 c 0,-0.47848 0.60394,-2.26412 0.87048,-2.57137 l 0.19257,-0.22464 0.30081,0 0.29687,0 0.51752,0.70201 c 0.28459,0.3853 0.52113,0.77521 0.52951,0.86647 0.009,0.0913 0.0554,-0.009 0.10429,-0.22062 l 0.0882,-0.3851 -0.10027,-0.37708 -0.10027,-0.37708 -0.39312,-0.35302 c -0.21426,-0.19567 -0.47671,-0.40833 -0.58568,-0.46934 l -0.19659,-0.10831 0.0883,-0.35702 0.0883,-0.35702 0.49741,-0.52149 c 0.27306,-0.28702 0.4974,-0.53878 0.4974,-0.56162 0,-0.0228 0.26173,-0.51972 0.58568,-1.10316 l 0.58971,-1.06304 0.007,-0.44527 0,-0.44127 -0.34097,-0.29685 -0.34096,-0.29283 -0.63381,0 -0.63381,0 0,-0.20459 c 0,-0.11266 -0.0995,-0.3726 -0.22065,-0.57766 l -0.22066,-0.37306 -0.38507,0 -0.38915,0 0.3169,0.22063 c 0.41876,0.28651 0.50769,0.42197 0.50947,0.80631 l 0,0.32092 -0.25269,0.4172 -0.25276,0.41719 -0.26073,0 -0.25672,0 -0.64587,-0.66992 -0.64581,-0.66991 0.0363,-0.18454 0.0363,-0.18453 0.38508,-0.22865 0.38513,-0.22464 0.29687,-0.008 0.30082,-0.012 -0.0802,-0.36906 -0.0842,-0.36504 0.46537,-0.27679 0.46134,-0.27278 0.28078,-0.004 0.2848,-0.004 0.24874,-0.18854 0.24867,-0.18854 z m -41.83177,0.32093 0.76216,0.37707 0.76618,0.37709 0.43327,0.42922 0.42924,0.43325 0.24471,0.55358 0.24472,0.55358 -0.064,1.18339 -0.0639,1.18339 -0.2126,0.34499 c -0.1163,0.1889 -0.55978,0.70201 -0.98678,1.14327 l -0.77825,0.8023 -0.32092,0 -0.32495,0 -0.64983,-0.60974 -0.64989,-0.60975 -0.42522,-0.96276 c -0.70699,-1.59867 -0.74984,-1.70549 -0.90259,-2.38282 l -0.14839,-0.65388 -0.0244,-0.91461 -0.0237,-0.91061 0.14437,-0.14842 0.14846,-0.14843 1.19939,-0.02 1.20347,-0.02 z m 49.73842,29.73714 -0.24069,0.24069 -0.2407,0.24471 -0.18855,0.71805 c -0.10251,0.39623 -0.31855,0.97388 -0.48139,1.28368 l -0.29679,0.56562 0.0402,0.54957 0.0402,0.54958 -0.15651,0.18853 -0.15644,0.18854 -1.05902,0 -1.05903,0 -0.17246,-0.20859 -0.17253,-0.20459 0.24472,-0.18052 c 0.13435,-0.0983 0.31248,-0.1765 0.39311,-0.1765 0.0806,0 0.3589,-0.21448 0.61779,-0.47336 l 0.46932,-0.46934 0,-0.29284 0,-0.29284 -0.28479,-0.19656 -0.2848,-0.20058 -0.2728,0 -0.27281,0 -0.54552,0.39312 -0.54159,0.39314 -0.30886,0.6659 -0.30892,0.66591 -0.007,0.29685 c 0,0.1635 0.06,0.40631 0.13237,0.54155 l 0.13238,0.24871 0.34901,0.18854 c 0.19237,0.1044 0.46458,0.19258 0.60572,0.19656 0.14128,0.004 0.7923,-0.11988 1.44819,-0.27679 l 1.19543,-0.28481 0.40913,0.21662 0.41316,0.21662 0.53353,0.0802 0.53354,0.0802 0.85044,-0.28481 0.85446,-0.28081 0.4092,0.18855 c 0.22658,0.1053 0.65596,0.2329 0.95071,0.2808 l 0.53353,0.0883 0.71002,-0.22464 0.71002,-0.22465 0.51349,0.22866 0.50947,0.23267 0.61773,-0.0923 c 0.33991,-0.0506 0.67897,-0.14278 0.75418,-0.20459 l 0.1364,-0.11231 0.69803,-0.0241 0.69795,-0.0241 0.62181,0.23266 0.62174,0.22866 0.5576,-0.26877 0.55759,-0.27278 0.12836,-0.23267 0.1244,-0.23668 -0.20463,-0.42521 -0.20457,-0.42121 -0.55759,-0.46533 -0.5576,-0.46534 0.0442,-0.13237 0.0442,-0.13238 0.49339,-0.0642 0.49345,-0.0642 0.0481,-0.15243 0.0521,-0.15245 -0.33702,-0.22063 -0.33694,-0.22464 -0.68596,0.21662 -0.68193,0.21662 -0.15644,0.18855 -0.15644,0.18853 0.0882,0.35301 0.0843,0.35703 0.56966,0.5255 0.5696,0.52551 0,0.22464 0,0.22865 -0.28882,-0.0642 c -0.15882,-0.0364 -0.47678,-0.14355 -0.706,-0.23668 l -0.41724,-0.16848 -0.37307,0.22063 -0.37301,0.22063 -0.8304,0 -0.8304,0 -0.1364,-0.16447 -0.1364,-0.16447 0.0883,-0.1404 c 0.0488,-0.0761 0.26838,-0.23177 0.48943,-0.34499 l 0.40109,-0.20458 0.34505,-0.40917 0.34097,-0.40517 -0.0363,-0.26876 -0.0402,-0.26476 -0.3289,-0.18454 -0.32896,-0.18452 -0.37704,0.0923 -0.37709,0.0963 -0.51349,0.53754 -0.51349,0.53753 -0.2407,0.67795 -0.24062,0.67794 -0.30893,0.20458 -0.31288,0.20459 -0.49339,-0.14842 -0.48943,-0.14843 -0.15644,-0.18051 -0.15242,-0.18454 0.0442,-0.36102 0.0402,-0.36104 0.48139,-0.23668 0.48139,-0.23668 0,-0.16447 0,-0.16848 -0.33293,-0.0842 -0.33299,-0.0842 0.0722,-0.7341 c 0.0389,-0.40308 0.088,-0.93004 0.10832,-1.17537 l 0.0363,-0.44929 -0.2086,-0.0401 -0.20858,-0.0401 -0.20859,0.20459 -0.20457,0.2086 -0.21267,0.73009 c -0.11557,0.40163 -0.35066,1.00817 -0.52148,1.34785 l -0.30885,0.61777 0.0762,0.23668 0.0762,0.23667 -0.0842,0.32895 -0.0842,0.33295 -0.41718,0.25674 -0.4212,0.26075 -0.27682,0 c -0.154,0 -0.44651,-0.0874 -0.64982,-0.19256 l -0.36906,-0.19255 -0.0883,-0.26476 -0.0843,-0.26877 0.0763,-0.29685 0.0762,-0.30086 0.48132,-0.11232 0.48139,-0.11634 0.0363,-0.18854 0.0363,-0.19255 -0.40517,-0.15243 -0.4092,-0.15244 0.0763,-0.54957 c 0.0415,-0.30261 0.11682,-0.79636 0.16442,-1.09514 l 0.0843,-0.54155 -0.22065,-0.0842 -0.21656,-0.0842 z m -62.20613,0.012 -0.75419,0.0602 c -0.88123,0.07 -1.67003,0.2614 -2.33462,0.57364 l -0.47341,0.22464 -0.0402,0.28883 -0.0402,0.28883 0.32495,0 0.32495,0 0.13238,-0.24871 0.13238,-0.24471 0.41717,-0.12837 c 0.23002,-0.0701 0.71608,-0.1612 1.08309,-0.20458 l 0.66993,-0.0802 0.54956,0.1404 0.55358,0.1404 0.40517,0.36505 c 0.22369,0.20103 0.4692,0.48307 0.54561,0.62579 l 0.14035,0.26075 0,0.63782 0,0.64184 -0.65385,0.71404 -0.65385,0.71807 -0.34901,0 -0.34901,0 -0.24873,-0.18855 c -0.13706,-0.10366 -0.3353,-0.18998 -0.44125,-0.19255 l -0.19256,-0.008 -0.40116,-0.37306 -0.39714,-0.37307 -0.24069,-0.0441 -0.23667,-0.0401 -0.0402,0.20058 -0.0402,0.20057 0.2608,0.33697 0.26476,0.33295 0.79025,0.39714 c 0.43359,0.21667 0.88676,0.39312 1.0109,0.39312 0.12401,0 0.49075,-0.11174 0.81029,-0.24871 l 0.57764,-0.24872 0.53353,-0.54957 0.53354,-0.54957 0.24472,-0.48138 0.24471,-0.48138 0,-0.44928 0,-0.44929 -0.20463,-0.4212 -0.20457,-0.42121 -0.53354,-0.39313 -0.53353,-0.39713 -0.59366,-0.16047 -0.59372,-0.16446 z m 41.6232,0.12435 -0.54956,0.14843 -0.55358,0.14842 -0.49345,0.50946 -0.49339,0.50946 -0.27682,0.58567 c -0.15136,0.32195 -0.30622,0.74092 -0.34498,0.93468 l -0.0682,0.35302 0.35296,0.4212 0.35303,0.4172 0.30491,-0.0562 0.30484,-0.0602 0.11636,0.22064 0.11629,0.22062 -0.12433,1.23554 -0.12836,1.23955 -0.32897,0.64986 -0.32488,0.65387 -0.19257,0.0722 -0.19659,0.0762 -0.43722,-0.21261 -0.4413,-0.2086 -0.12434,-0.32894 c -0.069,-0.18147 -0.12836,-0.46218 -0.12836,-0.62178 l 0,-0.28883 0.32093,-0.30086 c 0.17648,-0.16582 0.32093,-0.35088 0.32093,-0.40917 l 0,-0.1043 -0.20866,0 -0.20457,0 -0.50143,0.49743 -0.4974,0.49742 0,0.36906 0,0.36906 0.25269,0.40916 0.24874,0.41319 0.48943,0.25674 c 0.26772,0.1413 0.51916,0.25765 0.56155,0.26074 0.22685,0.0167 0.99356,-0.32206 1.25964,-0.5576 l 0.30484,-0.26877 0.30893,-0.68998 0.30885,-0.68997 0.18453,-0.89055 0.18855,-0.89055 0,-1.00689 0,-1.00286 -0.18452,-0.0722 -0.18453,-0.0722 -0.32897,0.26075 -0.3289,0.25674 -0.20859,-0.0401 -0.21261,-0.0402 -0.0963,-0.26878 -0.10027,-0.26876 0.38111,-0.75817 0.38106,-0.75818 0.26475,-0.22464 0.26074,-0.22464 0.24873,0 0.24472,0 0.0762,0.19656 0.0762,0.19657 -0.20859,0.22864 -0.20859,0.23268 0,0.21261 0,0.21661 0.20457,0 0.20061,0 0.38507,-0.3851 0.38112,-0.38109 -0.0402,-0.48138 -0.0402,-0.48137 -0.32092,-0.11233 -0.32093,-0.11232 z m -10.46996,0.16849 -0.18058,0.0682 -0.17647,0.0682 -0.20457,0.50545 c -0.11142,0.2784 -0.20061,0.65041 -0.20061,0.82637 l 0,0.32092 -0.68194,0.30086 -0.68595,0.30086 -0.27683,0.47336 -0.28077,0.47336 -0.0802,0.51347 -0.0842,0.51748 0.1685,0.31289 0.16844,0.3129 0.24069,0 c 0.30227,0 0.89883,-0.30406 1.11922,-0.56963 l 0.16851,-0.20058 0.24471,0 0.24465,0 0.0723,0.18453 0.0682,0.18052 0.39311,0.1404 0.39713,0.13639 0.71807,0.008 0.71805,0.008 0.25672,0.11232 c 0.14128,0.0607 0.2937,0.11132 0.33701,0.11633 0.1246,0.0143 1.3872,-0.23506 1.92951,-0.38109 l 0.49338,-0.13238 0,-0.18854 0,-0.18453 -0.22461,-0.008 c -0.12354,-0.004 -0.62899,-0.0187 -1.12324,-0.0321 l -0.89856,-0.0241 -0.0402,-0.27679 -0.0363,-0.27278 0.35706,-0.12837 0.36101,-0.12436 0.41717,-0.40515 0.41718,-0.40116 0,-0.30486 0,-0.30087 -0.16047,-0.12836 c -0.0881,-0.0691 -0.29481,-0.15972 -0.46127,-0.20058 l -0.30491,-0.0722 -0.27274,0.11232 c -0.15129,0.0611 -0.46714,0.27499 -0.69801,0.47737 l -0.41718,0.36906 -0.2407,0.63381 -0.24069,0.63783 -0.32897,0.0401 -0.32494,0.0402 -0.22059,-0.42522 -0.22065,-0.42523 -0.0119,-1.34785 -0.0119,-1.34786 -0.10027,-0.15645 -0.10028,-0.15243 z m 22.6849,0.0521 -0.23265,0.4212 -0.23667,0.42522 -0.0762,1.09514 -0.0722,1.09113 -0.18855,0.44527 -0.18453,0.44929 -0.18855,0.0722 -0.18854,0.0722 -0.31289,-0.0802 -0.31294,-0.0762 -0.0682,-0.22464 c -0.0369,-0.12339 -0.0949,-0.38691 -0.12836,-0.58167 -0.0336,-0.19475 -0.0957,-0.46914 -0.14042,-0.60974 l -0.0802,-0.25273 -0.29284,0 -0.29284,0 -0.23265,0.25674 -0.23265,0.25673 -0.20859,0 -0.20859,0 -0.14444,-0.3851 -0.14438,-0.3851 -0.2287,0 -0.22862,0 -0.59373,0.64184 c -0.3262,0.35301 -0.63328,0.64183 -0.68193,0.64183 l -0.0883,0 0,-0.36103 0,-0.35702 -0.15242,-0.15645 c -0.0848,-0.0847 -0.22579,-0.15244 -0.31288,-0.15244 l -0.16046,0 -0.0639,0.22465 c -0.0356,0.12355 -0.12704,0.47014 -0.20457,0.7702 l -0.14042,0.54557 -0.62979,0 -0.62576,0 -0.25276,-0.32092 -0.25269,-0.32092 -0.0883,-0.48138 -0.0883,-0.48139 -0.26878,-0.28882 -0.26871,-0.28882 -0.33701,0 -0.33695,0 -0.40115,0.41719 c -0.4866,0.50867 -0.88347,1.26089 -1.04301,1.98168 l -0.12031,0.54154 0.22065,0.19657 c 0.12077,0.10935 0.30906,0.20057 0.41718,0.20057 l 0.19652,0 0.56162,-0.44527 0.56162,-0.44527 0.32896,0.3169 0.32891,0.31691 1.03496,0 1.03101,0 0.23265,0.25673 c 0.12777,0.14121 0.29575,0.25545 0.37307,0.25674 l 0.14036,0.004 0.54962,-0.61376 0.54955,-0.60974 0.2407,0.28883 0.2407,0.28882 0.15643,0 c 0.086,0 0.38172,-0.20379 0.65788,-0.45329 l 0.50545,-0.4533 0.10429,0.0642 c 0.0587,0.0362 0.14187,0.24007 0.18453,0.4533 l 0.0762,0.38911 0.4212,0.25673 c 0.23126,0.14098 0.52021,0.25674 0.64185,0.25674 0.12169,2.6e-4 0.48158,-0.12693 0.79829,-0.2808 l 0.57362,-0.28081 0.44928,0.2407 0.44934,0.24068 0.32891,-0.17651 0.32897,-0.1765 0.44928,-0.67393 0.44928,-0.67393 0.2848,-0.0883 c 0.15815,-0.0471 0.4216,-0.16781 0.58166,-0.26877 l 0.28882,-0.18052 -0.1364,-0.25272 -0.13231,-0.25273 -0.21664,0 c -0.11872,0 -0.46246,0.0941 -0.76222,0.2086 l -0.54554,0.2086 -0.1484,0.46533 c -0.0835,0.25618 -0.21716,0.50466 -0.2929,0.55359 l -0.13633,0.0883 -0.16449,-0.13639 -0.16449,-0.13639 0,-0.36906 0,-0.36505 0.19257,-0.48538 0.19653,-0.4854 0.0283,-0.89857 0.0323,-0.89456 -0.37307,0 -0.37709,0 z m -33.07872,0.0361 -0.17648,0.14441 -0.17648,0.14842 -0.0843,0.47737 c -0.0462,0.26224 -0.11577,0.57728 -0.15242,0.70201 l -0.0682,0.22865 -0.53353,0.26877 c -0.71556,0.35968 -0.96555,0.5917 -1.27164,1.19141 l -0.25671,0.50545 0.0682,0.50946 0.0682,0.50946 0.17246,0.10831 c 0.0936,0.0593 0.29218,0.10703 0.44131,0.10831 l 0.26877,0.004 0.48535,-0.3851 c 0.26653,-0.21181 0.54144,-0.38511 0.60974,-0.38511 0.0684,0 0.29568,0.14442 0.50546,0.32092 l 0.38111,0.32092 0.85446,0.008 c 0.47111,0.004 1.08956,0.0539 1.37191,0.11233 0.28243,0.0584 0.54237,0.10808 0.57764,0.11232 0.0356,0.004 0.4686,-0.0921 0.96278,-0.21663 l 0.89856,-0.22865 0.0402,-0.2126 0.0442,-0.21663 -1.07512,0 -1.07505,0 -0.15643,-0.15645 c -0.0848,-0.0847 -0.15249,-0.20061 -0.15249,-0.25673 0,-0.0561 0.25962,-0.22352 0.5777,-0.37306 l 0.57765,-0.27278 0.32092,-0.37709 c 0.17608,-0.20923 0.31908,-0.45069 0.3169,-0.53352 0,-0.0828 -0.0781,-0.24619 -0.1685,-0.36505 l -0.16449,-0.21662 -0.34894,-0.0883 -0.34499,-0.0882 -0.39318,0.16447 -0.38909,0.16046 -0.42924,0.55759 -0.42522,0.56161 -0.0842,0.44527 -0.0802,0.44127 -0.12842,0.0802 -0.12434,0.0762 -0.26476,-0.0842 -0.26877,-0.0842 -0.18051,-0.43324 -0.1805,-0.43324 0,-1.35588 0,-1.35588 -0.19257,-0.0762 -0.19659,-0.0722 z m -15.53647,0.0281 -0.0722,0.19255 -0.0762,0.19256 0.0762,0.19255 0.0722,0.19255 0.30088,0 0.29687,0 0.14839,-0.14842 0.1484,-0.14844 -0.12835,-0.23667 -0.12434,-0.23668 -0.32093,0 -0.32092,0 z m 8.25968,1.13525 -0.60177,0.5215 -0.60572,0.5255 -0.16047,0 -0.16441,0 -0.30089,-0.32092 -0.30088,-0.32092 -0.20859,0 c -0.11477,0 -0.28032,0.0677 -0.36503,0.15244 l -0.15242,0.15645 0,0.25273 0,0.25673 0.33695,0.4894 0.33694,0.48539 -0.2728,0.63381 c -0.15018,0.34927 -0.27273,0.72794 -0.27273,0.8384 l 0,0.20058 0.17648,0 0.17252,0 0.34098,-0.51347 c 0.18689,-0.28241 0.38507,-0.51347 0.44123,-0.51347 0.056,0 0.21591,0.0849 0.35303,0.18854 l 0.24868,0.18854 0.27682,0.004 c 0.15307,0.002 0.3697,-0.0334 0.48138,-0.0762 l 0.20457,-0.0762 0,-0.28081 0,-0.27679 -0.38507,-0.33697 -0.38514,-0.33696 0,-0.26075 0,-0.25674 0.36905,-0.29685 c 0.2024,-0.16512 0.47678,-0.36794 0.60975,-0.44928 l 0.24069,-0.14843 -0.20456,-0.21261 -0.20859,-0.21661 z m -13.80758,0.14843 -0.30082,0.35301 -0.3049,0.35301 0,0.77823 0,0.78224 0.0842,0.0842 c 0.0468,0.0471 0.18696,0.0883 0.30886,0.0883 l 0.22066,0 0.0962,-0.22464 c 0.0528,-0.12356 0.14273,-0.48459 0.20062,-0.8023 0.058,-0.31771 0.14246,-0.76539 0.18854,-0.99485 l 0.0843,-0.41719 -0.28889,0 -0.28882,0 z m 15.8574,0.21261 -0.57362,0.16046 -0.57764,0.16046 -0.33694,0.3169 c -0.18664,0.17302 -0.34103,0.36951 -0.34103,0.43726 l 0,0.12435 0.22467,-0.004 c 0.12361,-0.002 0.33629,-0.0889 0.47334,-0.19255 l 0.24874,-0.18854 0.24867,0 0.24472,0 -0.0843,0.48137 c -0.0461,0.26477 -0.11016,0.71244 -0.14438,0.99485 l -0.064,0.51348 0.1244,0.18853 0.12434,0.18453 0.52147,-0.02 0.52147,-0.02 0.12842,0.2407 0.12836,0.24469 0,0.89858 0,0.89857 -0.30893,0.35702 -0.30484,0.35703 -0.32093,-0.1725 -0.32092,-0.16849 -0.16448,-0.30888 -0.16442,-0.30488 -0.23272,0 -0.23667,0 0,0.39715 0,0.39713 0.39713,0.37307 0.40116,0.37307 0.40518,0 0.4092,0 0.27273,-0.19255 0.26878,-0.18854 0.3169,-0.54957 0.3169,-0.54557 0.15242,-0.80229 0.15249,-0.79829 -0.22468,-0.96275 -0.2246,-0.95875 -0.15651,-0.0602 -0.16046,-0.0642 -0.31684,0.25272 c -0.1745,0.13726 -0.3848,0.24871 -0.46939,0.24871 l -0.15644,0 0.0843,-0.54556 c 0.0448,-0.30006 0.0926,-0.71154 0.10831,-0.91462 l 0.0284,-0.36905 -0.20858,-0.1364 -0.20866,-0.13238 z m -6.23379,0.0441 -0.33299,0.004 -0.33292,0.004 -0.70204,0.47737 -0.70198,0.47737 -0.24471,0.73811 -0.24874,0.74213 -0.28882,0.0722 -0.29284,0.0722 -0.30088,-0.16046 c -0.16541,-0.0881 -0.36873,-0.249 -0.45324,-0.36103 l -0.15651,-0.20458 0.0237,-0.54557 0.0204,-0.54156 -0.1364,-0.13638 -0.13238,-0.13238 -0.1966,0.0722 -0.19652,0.0762 -0.60572,0.95474 -0.60579,0.95874 -0.1163,0 -0.12037,0 0,0.25674 0,0.25674 0.0883,0 c 0.0482,0 0.27023,-0.0663 0.49741,-0.14843 l 0.41322,-0.15244 0.45331,0.21663 0.44928,0.2126 0.36502,0 0.36503,0 0.60975,-0.21662 0.60975,-0.22063 0.16046,0.20058 c 0.0885,0.11098 0.27603,0.26832 0.41717,0.34498 l 0,-0.004 0.25679,0.1404 0.25671,-0.0682 c 0.14121,-0.0381 0.48784,-0.22364 0.77021,-0.41318 l 0.51343,-0.34499 0.27682,-0.54556 0.2728,-0.54155 -0.13238,-0.54556 -0.13238,-0.54556 -0.19659,-0.22464 -0.19251,-0.22466 z m 49.33325,0.75416 0,0.13639 0,0.13639 -0.12842,0 c -0.0705,0 -0.12836,-0.025 -0.12836,-0.0562 0,-0.0311 0.058,-0.0928 0.12836,-0.13639 l 0.12842,-0.0802 z m -34.78764,0.016 c 0.0707,0 0.12836,0.0578 0.12836,0.12836 0,0.0706 -0.058,0.12838 -0.12836,0.12838 -0.0705,0 -0.12836,-0.0578 -0.12836,-0.12838 0,-0.0706 0.058,-0.12836 0.12836,-0.12836 z m 10.0127,0 0.20457,0 0.20055,0 -0.0482,0.15243 c -0.0277,0.0838 -0.12078,0.17263 -0.20457,0.20058 l -0.15242,0.0521 0,-0.20459 0,-0.20057 z m 35.17271,0 0.12836,0 c 0.0706,0 0.12836,0.025 0.12836,0.0561 0,0.0311 -0.058,0.0927 -0.12836,0.13639 l -0.12836,0.0802 0,-0.13639 0,-0.13639 z m -60.46114,0.13639 c 0.13033,-0.01 0.25427,0.0376 0.36107,0.14442 l 0.15242,0.15644 0,0.40115 0,0.40516 -0.23667,0.21261 c -0.12915,0.11684 -0.27353,0.21261 -0.32092,0.21261 -0.0475,0 -0.19976,-0.11554 -0.34104,-0.25674 l -0.25672,-0.25673 0,-0.30086 0,-0.30087 0.23668,-0.21261 c 0.13864,-0.12543 0.27491,-0.19465 0.40518,-0.20458 z m 21.1967,0.2086 0.20859,0.20859 0.21261,0.21261 -0.12434,0.34098 -0.12037,0.33696 -0.25672,0.16046 -0.25672,0.16046 -0.16046,-0.0602 -0.16046,-0.0602 0,-0.43324 0,-0.43726 0.3289,-0.2126 0.32897,-0.21662 z m 13.84363,0.0241 0.13238,0.0802 0.12836,0.0802 0,0.23668 0,0.24069 -0.20055,0.20057 c -0.22691,0.22686 -0.51613,0.26418 -0.62979,0.0802 l -0.0762,-0.12035 0.0802,-0.32493 0.0802,-0.32092 0.24472,-0.0762 0.24069,-0.0762 z m -24.24141,0.12034 c 0.24656,-0.004 0.44362,0.0656 0.51745,0.18454 l 0.0842,0.13638 -0.0722,0.20459 c -0.0395,0.11231 -0.15868,0.30568 -0.26476,0.42922 l -0.19257,0.22466 -0.28882,0 -0.2848,0 -0.0762,-0.20059 -0.0802,-0.20057 0.19653,-0.37708 0.19658,-0.37708 0.15645,-0.016 c 0.0369,-0.003 0.0731,-0.007 0.10831,-0.008 z m 14.22073,7.57369 -0.18854,0.15645 c -0.10258,0.0851 -0.18453,0.21179 -0.18453,0.2808 0,0.069 0.19719,0.32157 0.43722,0.56161 l 0.43728,0.43725 0.32495,0 0.32488,0 0.0802,-0.12837 0.0802,-0.12836 -0.42516,-0.51347 -0.42528,-0.51347 -0.23266,-0.0762 -0.22863,-0.0762 z m 23.0941,0.26476 -0.34096,0.0402 -0.34097,0.04 -0.1685,0.96276 c -0.0932,0.52952 -0.25619,1.45376 -0.36101,2.05388 l -0.18855,1.09113 -0.17246,0.16848 -0.16851,0.17249 -1.055,0.0722 -1.05507,0.0722 -0.11629,-0.1765 -0.11234,-0.18052 -0.007,-0.40917 0,-0.40917 0.21261,-0.2086 0.2126,-0.21261 0.20457,0.0602 c 0.113,0.0328 0.29878,0.097 0.41316,0.14441 l 0.20859,0.0842 0.20061,-0.20059 0.20457,-0.20458 -0.1043,-0.28481 -0.1043,-0.28482 -0.33694,-0.12035 -0.33695,-0.12034 -0.48541,0.38511 -0.48138,0.38108 -0.28882,0.56563 -0.28882,0.56561 0,0.41319 0,0.41318 0.34901,0.2768 0.35296,0.27679 0.70607,-0.0602 0.71001,-0.0562 0.60975,-0.22464 0.60974,-0.22465 0.31691,0.2086 0.3169,0.20859 0.29284,-0.004 c 0.16132,-0.001 0.5133,-0.0789 0.78227,-0.1725 l 0.48937,-0.16848 0.66591,0.1083 0.66592,0.10832 0.57763,-0.0842 c 0.31777,-0.045 0.71306,-0.13078 0.87853,-0.19254 l 0.30088,-0.11233 0.65385,0.19256 0.65385,0.19656 0.52556,0 0.52549,0 0.47335,-0.24069 0.46932,-0.24069 0.2848,0.19656 0.28084,0.20057 0.91063,-0.016 c 0.50064,-0.007 1.22832,-0.006 1.61656,0 0.38837,0.006 1.05711,0.0166 1.48827,0.02 l 0.78629,0.004 0.34901,-0.22865 0.35297,-0.22865 -0.0882,-0.0883 -0.0843,-0.0842 -0.83441,-0.016 -0.83436,-0.016 -0.14846,-0.16046 -0.15242,-0.15645 0.24471,-0.14843 c 0.13443,-0.0809 0.43307,-0.30693 0.66592,-0.50544 l 0.42522,-0.36104 0.0802,-0.25673 0.0802,-0.25272 -0.15249,-0.18854 -0.15644,-0.18453 -0.42917,0 -0.42924,0 -0.46939,0.41318 -0.46933,0.41318 -0.24867,0.58167 c -0.13726,0.32009 -0.34156,0.68275 -0.4533,0.80631 l -0.20463,0.22464 -0.33695,0 -0.33695,0 -0.28486,-0.20057 -0.2848,-0.20058 0,-0.3129 0,-0.31289 0.2407,-0.24069 c 0.13238,-0.13238 0.32013,-0.26963 0.41717,-0.30487 l 0.17655,-0.0642 -0.28881,-0.27679 -0.28889,-0.28081 0,-0.349 c 0,-0.19187 0.0521,-0.53001 0.11636,-0.75416 l 0.11635,-0.40917 -0.16046,-0.22063 -0.16046,-0.22063 -0.26878,0.26877 -0.26878,0.26877 -0.14444,0.55359 c -0.0796,0.3041 -0.26245,0.7747 -0.40511,1.04699 l -0.26074,0.49742 0.0802,0.42924 0.0802,0.42922 -0.25276,0.25674 -0.25269,0.25272 -0.4413,0.0842 -0.44124,0.0802 -0.40116,-0.20458 -0.40115,-0.2086 0,-0.36104 0,-0.36102 0.44928,-0.24471 c 0.24715,-0.13306 0.44928,-0.26403 0.44928,-0.29284 0,-0.0288 -0.14437,-0.18542 -0.32093,-0.34899 l -0.32092,-0.29685 0,-0.28081 c 0,-0.15403 0.069,-0.50776 0.15248,-0.78625 l 0.15242,-0.50544 -0.17648,-0.11233 -0.18057,-0.10831 -0.21656,0.11633 -0.21664,0.11634 -0.28486,0.93066 c -0.15512,0.51086 -0.35738,1.03621 -0.44928,1.16734 l -0.16442,0.23668 0.056,0.47335 0.056,0.47336 -0.10429,0.14843 -0.10028,0.14441 -0.83442,0.0602 -0.83435,0.0562 -0.22467,-0.11233 -0.22863,-0.11633 0.1364,-0.25273 0.13238,-0.24871 0.20054,0 0.19659,0 0.37307,-0.37708 0.3771,-0.37307 0,-0.33696 0,-0.33296 -0.34097,-0.12836 -0.34097,-0.12837 -0.33299,0.10831 -0.33298,0.11232 -0.41718,0.54556 -0.41717,0.54557 -0.0802,0.34097 c -0.0435,0.18862 -0.16158,0.47496 -0.26074,0.63382 l -0.1805,0.28882 -0.37709,0 -0.38112,0 -0.0802,-0.32092 -0.0802,-0.32091 0.0682,-0.48138 c 0.0376,-0.26546 0.18697,-1.06017 0.33293,-1.76506 l 0.26878,-1.27966 -0.0762,-0.23668 -0.0762,-0.23267 z m -58.77628,0.52952 -0.38112,0.82235 c -0.20951,0.45269 -0.38105,0.88127 -0.38105,0.95072 0,0.0694 -0.17661,0.54211 -0.39311,1.05101 l -0.39318,0.92264 0.0722,0.19255 0.0762,0.19255 0.22059,-0.0842 c 0.12302,-0.0476 0.37499,-0.11555 0.5576,-0.15243 l 0.33299,-0.0682 0.37307,0.33697 0.37308,0.33697 0.83435,-0.0722 c 0.45897,-0.041 1.01209,-0.13976 1.22753,-0.21661 l 0.38909,-0.14041 0.40518,0.21262 0.40518,0.20859 0.33292,0 0.33299,0 0.39714,-0.20859 0.39713,-0.20459 -0.17655,-0.11233 c -0.0985,-0.0624 -0.26983,-0.11504 -0.38105,-0.11633 l -0.20456,0 -0.28487,-0.30487 -0.2848,-0.30487 0.0843,-0.34098 0.0842,-0.33697 -0.15651,-0.19255 c -0.0871,-0.10499 -0.23865,-0.18854 -0.33292,-0.18854 l -0.16851,0 -0.3289,0.5576 c -0.18011,0.30734 -0.42884,0.65327 -0.55358,0.76619 l -0.22869,0.20459 -0.52147,0.0842 -0.52549,0.0802 -0.41718,-0.40515 -0.41322,-0.40517 -0.33695,0.0402 -0.34096,0.0401 -0.0442,-0.22866 -0.0442,-0.22865 0.47334,-1.14729 0.47737,-1.14327 -0.0762,-0.20057 -0.0762,-0.19657 -0.20061,0 -0.20054,0 z m 41.58304,0.0842 -0.30484,0.30888 -0.30088,0.3129 -0.27675,1.64872 c -0.15137,0.90689 -0.2554,1.66011 -0.23265,1.6768 0.0224,0.0167 0.18241,0.1269 0.35698,0.2447 l 0.3169,0.21662 0.35706,0 0.35296,0 0.48541,-0.6298 0.48139,-0.62981 0.48936,-0.2808 0.48541,-0.2808 -0.0482,-0.14842 -0.0481,-0.14844 -0.36509,-0.0441 -0.36101,-0.0441 -0.32093,0.1725 -0.32092,0.1725 -0.17649,0.42521 -0.1805,0.42522 -0.21663,-0.0441 -0.22065,-0.0402 -0.0442,-0.29685 -0.0402,-0.29685 0.20061,-0.50545 0.20054,-0.50144 0.0802,-0.67794 0.0802,-0.67794 -0.21261,-0.18052 -0.21663,-0.1765 z m -24.28952,0.1765 -0.16851,0.14041 c -0.094,0.078 -0.17246,0.22366 -0.17246,0.32092 l 0,0.1765 0.31288,0 0.31288,0 0.0923,-0.14843 0.0922,-0.14842 -0.23265,-0.1725 -0.23667,-0.16848 z m 28.80648,0.004 -0.19653,0.20057 -0.20061,0.19656 0.0762,0.11633 0.0722,0.12035 0.31295,0 0.31288,0 0,-0.2447 0,-0.24069 -0.18855,-0.0722 -0.18854,-0.0762 z m -42.24897,0.12034 -0.0802,0.20458 -0.0762,0.20459 0.17648,0.11233 c 0.0986,0.0624 0.21386,0.11504 0.25276,0.11633 0.13138,0.004 0.37702,-0.30549 0.37702,-0.47335 l 0,-0.16448 -0.32488,0 -0.32495,0 z m 4.36045,0.97078 -0.1925,0.12436 c -0.1064,0.0681 -0.40901,0.49438 -0.66994,0.94671 l -0.47334,0.82235 -0.1244,0.012 -0.12032,0.0121 -0.38507,-0.67393 -0.38514,-0.67393 -0.16046,0 -0.16448,0 -0.13238,0.24871 -0.13238,0.24871 0.25678,0.65388 c 0.27379,0.69472 0.61469,1.28924 0.83033,1.44413 0.19567,0.14049 0.32376,0.12157 0.53354,-0.0883 l 0.18855,-0.19256 0.25275,-0.73008 0.24868,-0.7301 0.40115,-0.62578 0.40116,-0.6258 -0.0842,-0.0842 -0.0883,-0.0883 z m 12.33136,0.02 -0.52153,0.0722 -0.52147,0.0682 -0.24472,0.22464 -0.24873,0.22465 0,0.27278 0,0.27679 0.51349,0.50144 0.5135,0.50144 0,0.16447 0,0.16848 -0.15242,0 c -0.0833,0 -0.33933,-0.0692 -0.56967,-0.15245 l -0.41717,-0.15243 -0.50545,0.16848 -0.50143,0.16447 -0.25678,-0.0802 -0.25269,-0.0802 -0.14847,-0.32494 -0.1484,-0.32492 0,-0.37307 0,-0.36906 -0.11635,-0.0722 -0.1163,-0.0722 -0.20061,0.0762 -0.20054,0.0762 -0.3891,0.62981 -0.38513,0.6298 -0.7501,0 -0.74621,0 -0.24465,-0.18052 -0.24471,-0.1765 -0.1966,-0.62178 -0.19652,-0.61777 -0.34901,-0.19656 -0.34499,-0.19256 -0.36101,0.26477 c -0.46761,0.34643 -0.89804,0.99327 -1.08711,1.62464 l -0.15248,0.50545 0.13237,0.21261 0.13238,0.21261 0.31288,0.0361 0.31295,0.0401 0.30887,-0.32895 c 0.16883,-0.17973 0.35824,-0.32493 0.42119,-0.32493 0.0633,0 0.31137,0.14821 0.55358,0.33296 l 0.4413,0.33696 0.86646,-0.0883 c 0.47678,-0.0484 1.05317,-0.15231 1.28371,-0.23267 l 0.42119,-0.14441 0.36906,0.21662 0.37307,0.22063 0.3289,0 0.32897,0 0.43326,-0.2086 0.43722,-0.20859 0.43326,0.20057 c 0.2397,0.1093 0.55284,0.22574 0.69399,0.26074 0.14122,0.035 0.45179,0.0433 0.68998,0.016 l 0.43319,-0.0521 0.2407,-0.21662 0.24069,-0.21662 0,-0.30888 0,-0.30488 -0.58166,-0.58969 -0.58166,-0.59369 0.0481,-0.14041 0.0521,-0.1404 0.26074,0.0281 0.26483,0.0281 0.14035,-0.1725 0.14444,-0.1725 -0.19659,-0.16045 -0.19652,-0.16448 z m 10.129,0.0361 c -0.29402,0 -1.03153,0.35415 -1.16734,0.56161 l -0.0963,0.14441 0.0762,0.25674 0.0763,0.25673 0.50941,0.52952 0.51349,0.52951 -0.15242,0.0963 -0.15644,0.0963 -0.48541,-0.16047 -0.48937,-0.16447 -0.41724,0.14843 c -0.22883,0.0798 -0.54632,0.14442 -0.70599,0.14442 l -0.28882,0 -0.33299,-0.39714 -0.33293,-0.39313 0,-0.32092 c 0,-0.17573 -0.0593,-0.42904 -0.13237,-0.56562 l -0.13238,-0.24871 -0.23272,0 -0.22863,0 -0.30089,0.32092 c -0.16573,0.17651 -0.37234,0.32092 -0.45725,0.32092 l -0.15249,0 -0.19652,-0.28882 -0.19659,-0.28883 -0.23668,0.14441 -0.23667,0.14442 0.008,0.91461 0.007,0.91863 0.19659,0.19255 0.19652,0.19656 0.20859,-0.0802 0.20866,-0.0802 0.26871,-0.45731 0.2728,-0.46132 0.54955,0.60172 0.54963,0.59771 0.40116,0 0.40511,0 0.52153,-0.2086 0.52147,-0.20859 0.70204,0.22063 0.70198,0.22063 0.47736,-0.11232 0.47737,-0.11233 0.15242,-0.30888 0.15644,-0.30889 -0.17246,-0.32894 c -0.0939,-0.18139 -0.38342,-0.52326 -0.64185,-0.75817 l -0.46932,-0.42521 0.15242,-0.18453 0.15242,-0.18052 0.3049,0 0.30484,0 0,-0.18052 0,-0.1765 -0.20457,-0.0802 c -0.11168,-0.0429 -0.31433,-0.0762 -0.4533,-0.0762 z m 20.90782,0.21662 -0.46531,0.16848 -0.4653,0.16447 -0.23271,0.26878 -0.23265,0.26475 0.14042,0.0482 0.14042,0.0481 0.18848,-0.15644 0.18453,-0.15244 0.30088,0.0722 0.30491,0.0762 -0.20464,0.77823 -0.20054,0.77422 0.14437,0.22063 0.14445,0.22464 0.4653,-0.0401 0.46537,-0.0361 0.12433,0.33294 0.12836,0.33697 0,0.53754 -0.007,0.53754 -0.16046,0.32092 -0.16047,0.32092 -0.33694,0.0401 -0.33701,0.0361 -0.26872,-0.34499 -0.27279,-0.34097 -0.19258,0.16046 c -0.10626,0.0882 -0.19256,0.21342 -0.19256,0.2808 0,0.0674 0.17074,0.29105 0.37709,0.49742 l 0.37307,0.37709 0.41322,0 0.40914,0 0.41322,-0.43725 0.41316,-0.43726 0.1685,-0.59771 0.16442,-0.5937 -0.0722,-0.88654 -0.0762,-0.88654 -0.14042,-0.26476 -0.14036,-0.26074 -0.14846,0 c -0.0812,0 -0.27966,0.12501 -0.44124,0.27679 l -0.29284,0.27278 -0.0842,-0.22063 -0.0883,-0.22063 0.16449,-0.49341 0.16448,-0.49743 -0.0802,-0.20458 c -0.0435,-0.11275 -0.17246,-0.24016 -0.28882,-0.28481 l -0.21261,-0.0802 z m -15.48834,0.008 -0.33292,0.0842 -0.32898,0.0802 -0.28479,0.32894 c -0.15677,0.17903 -0.41474,0.56389 -0.57362,0.85845 l -0.28882,0.53754 0,0.40917 0,0.40517 0.1604,0.0682 c 0.0883,0.0356 0.27866,0.0667 0.42528,0.0722 l 0.26872,0.012 0.30088,-0.32092 c 0.1658,-0.1765 0.36806,-0.32092 0.44928,-0.32092 0.0813,0 0.28612,0.14967 0.45733,0.33296 l 0.31288,0.33295 0.6338,-0.0602 0.63381,-0.0602 0.23272,-0.28481 0.23265,-0.28882 -0.0722,-0.11635 -0.0722,-0.11231 -0.44124,0 -0.4413,0 -0.24867,-0.24871 -0.24874,-0.25273 -0.15644,-0.51748 -0.15645,-0.51748 -0.23265,-0.21261 -0.22869,-0.2086 z m 12.83675,0.016 -0.36905,0.19255 -0.37301,0.19255 -0.34505,0.4573 c -0.19158,0.2513 -0.43425,0.65952 -0.53749,0.9066 l -0.18855,0.44929 -0.36107,0 -0.36504,0 -0.2126,-0.23668 -0.21261,-0.23267 -0.0158,-0.37707 c -0.009,-0.2065 -0.0442,-0.47808 -0.0762,-0.60574 l -0.06,-0.23266 -0.2728,0.0402 -0.27273,0.0401 -0.2608,0.46533 c -0.14319,0.25598 -0.42279,0.6552 -0.61773,0.89056 l -0.35303,0.42922 0.0521,0.13238 0.0482,0.1364 0.17649,-0.0562 c 0.3192,-0.10112 0.80989,-0.0496 1.23155,0.12837 l 0.41718,0.17249 0.57368,-0.15243 0.57764,-0.15244 0.29284,0.28883 0.29284,0.29284 0.54151,0.0321 0.54158,0.0321 0.74213,-0.21262 c 0.40853,-0.11643 0.79539,-0.26215 0.8625,-0.32493 l 0.12433,-0.11232 -0.15242,-0.15244 -0.15248,-0.15645 -0.64179,0.16448 -0.63782,0.16447 -0.44131,-0.14441 -0.43722,-0.14442 -0.0723,-0.27278 -0.0722,-0.26877 0.1805,-0.42923 0.18057,-0.42923 0.25269,0 0.25672,0 0.0802,0.12837 0.0802,0.12836 0.23272,0 0.23265,0 0.16448,-0.19656 0.16442,-0.19656 -0.16844,-0.3169 -0.1685,-0.3129 -0.23265,-0.0722 -0.2287,-0.0762 z m -25.74569,0.016 -0.66994,0.46132 -0.66987,0.4573 -0.0842,0.57766 -0.0883,0.57766 0.14444,0.31289 0.14036,0.3169 0.28084,0.1003 0.27676,0.10429 0.33299,-0.0602 0.33293,-0.0562 0.36503,-0.33697 c 0.20047,-0.18532 0.44598,-0.4953 0.5456,-0.68596 l 0.1805,-0.34499 0,-0.29684 0,-0.29285 -0.25671,-0.41719 -0.25276,-0.41719 -0.28882,0 -0.28882,0 z m -12.26314,0.0963 -0.41717,0.0802 c -0.22942,0.0439 -0.67713,0.11648 -0.99488,0.16047 l -0.57765,0.0802 -0.16046,0.12837 -0.16046,0.12837 0,0.98682 0,0.99084 0.0923,0.0923 0.0883,0.0883 0.26476,-0.0361 0.26073,-0.0361 0.19251,-0.60173 0.19256,-0.60171 0.29687,-0.40116 0.29686,-0.40114 0.31288,-0.14041 0.31288,-0.14441 0,-0.18453 0,-0.18854 z m 12.19095,0.63783 0.19257,0.16045 0.19652,0.16447 0,0.29285 c 0,0.16209 -0.0336,0.38574 -0.0762,0.49743 l -0.0802,0.20457 -0.29284,0 -0.29284,0 -0.0802,-0.20457 c -0.0429,-0.11169 -0.0762,-0.30476 -0.0762,-0.42924 l 0,-0.22464 0.25269,-0.23267 0.25678,-0.22865 z m 12.31528,0.1404 0.13633,0.0842 0.13238,0.0842 0,0.30488 0,0.30888 -0.24069,0.12837 -0.2407,0.12836 -0.0802,-0.0802 c -0.0448,-0.0445 -0.0802,-0.20895 -0.0802,-0.36505 l 0,-0.2808 0.18855,-0.15645 0.18459,-0.15645 z m -23.31884,0.0441 0.17655,0.0682 0.17648,0.0682 0,0.23266 c 0,0.12787 -0.0336,0.32157 -0.0762,0.43325 l -0.0802,0.20458 -0.15644,0 c -0.22916,0 -0.32897,-0.13495 -0.32897,-0.44527 l 0,-0.27279 0.14444,-0.14441 0.14438,-0.14442 z"
       id="path5647"
       inkscape:connector-curvature="0" />
  </g>
</svg>
