<?xml version="1.0" encoding="UTF-8" standalone="no"?>
<!-- Created with Inkscape (http://www.inkscape.org/) -->

<svg
   xmlns:dc="http://purl.org/dc/elements/1.1/"
   xmlns:cc="http://creativecommons.org/ns#"
   xmlns:rdf="http://www.w3.org/1999/02/22-rdf-syntax-ns#"
   xmlns:svg="http://www.w3.org/2000/svg"
   xmlns="http://www.w3.org/2000/svg"
   xmlns:sodipodi="http://sodipodi.sourceforge.net/DTD/sodipodi-0.dtd"
   xmlns:inkscape="http://www.inkscape.org/namespaces/inkscape"
   width="100.00288"
   height="75.757301"
   id="svg3600"
   version="1.1"
   inkscape:version="0.48.4 r9939"
   sodipodi:docname="dyoxide-gambette.svg">
  <defs
     id="defs3602" />
  <sodipodi:namedview
     id="base"
     pagecolor="#ffffff"
     bordercolor="#666666"
     borderopacity="1.0"
     inkscape:pageopacity="0.0"
     inkscape:pageshadow="2"
     inkscape:zoom="0.7546875"
     inkscape:cx="-265.2402"
     inkscape:cy="32.800874"
     inkscape:document-units="px"
     inkscape:current-layer="layer1"
     showgrid="false"
     inkscape:window-width="1276"
     inkscape:window-height="775"
     inkscape:window-x="0"
     inkscape:window-y="21"
     inkscape:window-maximized="1"
     fit-margin-top="0"
     fit-margin-left="0"
     fit-margin-right="0"
     fit-margin-bottom="0" />
  <metadata
     id="metadata3605">
    <rdf:RDF>
      <cc:Work
         rdf:about="">
        <dc:format>image/svg+xml</dc:format>
        <dc:type
           rdf:resource="http://purl.org/dc/dcmitype/StillImage" />
        <dc:title />
      </cc:Work>
    </rdf:RDF>
  </metadata>
  <g
     inkscape:label="Layer 1"
     inkscape:groupmode="layer"
     id="layer1"
     transform="translate(-359.52677,-377.30921)">
    <path
       style="font-size:medium;font-style:normal;font-variant:normal;font-weight:normal;font-stretch:normal;text-indent:0;text-align:start;text-decoration:none;line-height:normal;letter-spacing:normal;word-spacing:normal;text-transform:none;direction:ltr;block-progression:tb;writing-mode:lr-tb;text-anchor:start;baseline-shift:baseline;color:#000000;fill:#000000;fill-opacity:1;stroke:none;stroke-width:0.625;marker:none;visibility:visible;display:inline;overflow:visible;enable-background:accumulate;font-family:Sans;-inkscape-font-specification:Sans"
       d="m 413.63148,377.31006 -0.22581,0.0391 -0.50378,0.0955 -0.49935,0.0956 -0.24757,0.0435 -0.0911,0.23884 -0.0693,0.17804 0,0.004 -0.43863,0.16501 c -0.15764,0.0602 -0.30744,0.10909 -0.40822,0.13462 -0.0322,0.009 -0.0435,0.01 -0.0606,0.013 -0.0292,-0.005 -0.0542,-0.008 -0.0738,-0.009 -0.0507,-0.002 -0.0909,-0.003 -0.13459,0 -0.0876,0.006 -0.18856,0.0215 -0.30831,0.0391 -0.23958,0.0352 -0.54774,0.0912 -0.8816,0.16068 l -1.18548,0.24753 -0.11298,0.0217 -0.0868,0.0738 -0.18677,0.15199 -0.009,0.009 -0.13895,-0.0348 -0.0912,-0.0216 c -0.02,-0.0323 -0.0421,-0.0647 -0.0606,-0.0868 -0.0542,-0.0638 -0.10457,-0.10349 -0.15635,-0.13897 -0.1036,-0.071 -0.21375,-0.12077 -0.33871,-0.16068 -0.32943,-0.10512 -0.60006,-0.14243 -1.89774,-0.24752 l -0.33869,-0.0261 -0.17372,-0.18673 c -0.10002,-0.10739 -0.20624,-0.20062 -0.31266,-0.27793 -0.0528,-0.0387 -0.10251,-0.0726 -0.165,-0.10425 -0.0628,-0.0316 -0.12474,-0.0738 -0.28233,-0.0738 -0.15508,0 -0.17998,0.0265 -0.24315,0.0477 -0.0635,0.0212 -0.13131,0.0473 -0.2041,0.0782 -0.14581,0.0618 -0.31488,0.14444 -0.48637,0.2345 -0.7739,0.40617 -1.45975,0.60791 -1.69797,0.60797 -0.15609,2e-5 -0.76842,-0.15846 -1.24636,-0.36044 -0.23886,-0.101 -0.46075,-0.20892 -0.59927,-0.2953 -0.0471,-0.0292 -0.0779,-0.0551 -0.0998,-0.0738 0.0135,0.0223 0.0257,0.066 0.0306,0.13461 -0.01,-0.0499 -0.0336,-0.10414 -0.0564,-0.15633 -0.0542,-0.12356 -0.13367,-0.23748 -0.24321,-0.29096 -0.17136,-0.0837 -0.31123,-0.0709 -0.42556,-0.0477 -0.22867,0.0461 -0.41265,0.16065 -0.59492,0.3257 l -0.065,0.0608 -0.14766,-0.0435 c -0.25663,-0.0719 -0.5087,-0.11686 -0.78604,-0.0782 -0.27711,0.0386 -0.55316,0.13658 -0.99443,0.29965 -0.69711,0.25757 -2.1216,0.52978 -2.649,0.52978 l -0.33437,0 -0.38652,-0.16067 -0.46467,-0.19542 -0.1259,-0.0522 -0.13459,0.0261 -0.36483,0.0695 -0.21275,0.0391 -0.28225,-0.14331 -0.42129,-0.21713 -0.065,-0.0347 -0.0693,-0.013 -0.99879,-0.152 -0.99449,-0.15633 -0.21275,-0.0348 -0.16072,0.14765 -0.24315,0.21713 c -0.0357,0.032 -0.0942,0.0738 -0.1346,0.0956 -0.0207,0.0108 -0.0443,0.0135 -0.0478,0.0131 -0.12739,0.01 -0.16051,0.0423 -0.22581,0.0694 -0.0766,0.0319 -0.15729,0.0703 -0.2475,0.11725 -0.18063,0.094 -0.39337,0.21875 -0.60798,0.35609 l -0.66007,0.42124 -0.63838,0.0738 -0.60797,0.0738 -0.42557,-0.22147 -0.55152,-0.28661 -0.0998,-0.0521 -0.10855,0 -0.39088,0 -0.26057,0 -0.22145,-0.14331 -0.33443,-0.22146 -0.18234,-0.11725 -0.20411,0.0652 -0.28226,0.0868 c -0.0578,0.0183 -0.4332,0.0924 -0.79902,0.13896 -0.36598,0.0464 -0.7642,0.0808 -0.9641,0.0825 l -0.29097,0.004 -0.165,0 -0.12589,0.10856 -0.95975,0.81642 -0.82942,0.70783 -0.38654,-0.004 c -0.37438,-0.003 -0.98872,0.0618 -1.47645,0.14764 l -0.78168,0.13897 -1.00749,-0.009 -0.82507,-0.009 -0.0911,-0.11726 -0.22146,-0.28661 -0.18242,-0.23451 -0.2866,0.0695 -0.39951,0.10425 -0.40388,0.0999 -0.13031,0.0304 -0.0911,0.0999 -0.59498,0.6514 c -0.32559,0.35445 -0.72731,0.78352 -0.87719,0.93799 l -0.29096,0.29965 -0.10855,0.10856 -0.0171,0.15634 -0.0393,0.33873 c -0.0165,0.15119 -0.31501,0.8345 -0.55152,1.11605 0,-10e-4 -0.30224,0.22254 -0.64273,0.38215 -0.49458,0.23191 -1.17985,0.42469 -1.31145,0.42558 -0.27426,0.002 -0.51906,0.0514 -0.76863,0.18672 0.008,-0.003 -0.16099,0.0699 -0.34741,0.13462 -0.18641,0.0646 -0.41707,0.13551 -0.63837,0.19976 -0.24309,0.0705 -0.49345,0.15948 -0.71219,0.24318 -0.21887,0.0837 -0.38481,0.14976 -0.53845,0.24754 l -0.17372,0.10855 -0.0956,-0.009 c -0.16971,-0.0176 -0.333,-0.0299 -0.49943,-0.013 l -0.16065,0.0173 -0.30831,0.0304 -0.0825,0.30398 -0.0783,0.30399 -0.0782,0.29964 -0.0479,0.18239 0.0955,0.16501 0.23023,0.39084 c 0.0773,0.13102 0.16401,0.24807 0.25186,0.34741 0.0399,0.0451 0.0788,0.084 0.13025,0.12593 l -0.0479,0.77299 -0.0606,1.02052 -0.41258,0.83812 -0.41686,0.85114 -0.70354,0.65574 c -0.42342,0.39486 -0.96945,0.91977 -1.2333,1.18553 l -0.46031,0.46466 -0.1346,0.13028 0,0.18673 0,0.16502 0,0.16502 0,0.17371 0.12161,0.13027 0.76427,0.82944 0.64274,0.7035 0,0.19108 0.008,0.36477 0,0.11292 0.0478,0.0955 0.19976,0.38216 0.13896,0.26924 -0.0435,0.85549 -0.0435,0.80339 -0.0221,0.0216 c -0.2333,0.23341 -0.2779,0.43914 -0.2779,0.72088 0,0.13756 -0.21639,0.63284 -0.99879,1.6111 l -0.71217,0.89024 -0.0956,0.1216 0,0.16067 0,0.74259 0,0.74693 0,0.45163 0.4516,0 0.16936,0 0.11726,0.13027 c 0.0937,0.10371 0.19826,0.19166 0.30402,0.2649 0.0816,0.0565 0.13916,0.11923 0.28226,0.14766 -0.008,-0.006 0.02,-0.009 0.035,0 0,0.002 0.0129,0.0108 0.0171,0.013 0,1.4e-4 0,-1.4e-4 0.008,0 0.0306,0.019 0.0713,0.0458 0.12589,0.0868 0.12783,0.0956 0.29368,0.2371 0.46032,0.39083 0.18977,0.17502 0.40166,0.34879 0.59492,0.49506 0.19319,0.14628 0.34927,0.2628 0.52548,0.34307 l 0.23451,0.10856 0.55581,0.85116 c 0.17655,0.2704 0.35976,0.53611 0.51249,0.75126 0.15265,0.21516 0.23551,0.34849 0.36475,0.47769 l 0.0649,0.0652 0.0171,0.42123 0.0171,0.48204 -0.0999,0.18238 -0.16065,0.29965 -0.0564,0.10425 0.008,0.12159 0.0257,0.75562 0.0256,0.75561 0.008,0.14764 0.0911,0.11726 0.34741,0.43426 c 0.19112,0.23905 0.41236,0.51486 0.50372,0.62534 l 0.15636,0.18673 0.17371,0.20845 0.26055,-0.0521 0.38217,-0.0782 0.15195,-0.0304 0.37347,0.34306 0.53853,0.49505 0.11718,0.10857 0.16073,0.013 0.89459,0.0521 0.67306,0.0391 0.0564,0.0825 c 0.12303,0.17566 0.25299,0.27377 0.43427,0.42124 0.18134,0.14747 0.3978,0.30637 0.61668,0.45163 l 0.66443,0.44295 0.2041,0.31266 c 0.16951,0.2615 0.4158,0.55515 0.63832,0.75562 0.0991,0.0892 0.26534,0.37052 0.26491,0.36911 0.15615,0.51871 0.5668,0.93067 1.20726,1.38096 l 0.46466,0.32569 0.31267,0.21714 0.26491,-0.26925 0.15201,-0.14764 c 0,0.003 0,0.002 0.008,-0.004 0,-0.003 0.008,-0.006 0.0129,-0.009 l 0.0129,0.013 0.15637,0.20412 0.1954,0.2562 0.30831,-0.10425 0.69483,-0.23885 0.57322,-0.19542 0.47766,0.0999 0.59492,0.12593 0.23016,0.0477 0.17371,-0.16068 0.31707,-0.29964 c 0.0443,-0.0415 0.0889,-0.0752 0.13461,-0.10855 l 0.12589,0.17804 0.30838,0.43425 0.0738,0.0999 0.1129,0.0521 0.63839,0.27793 c 0.30638,0.13302 0.75007,0.41355 0.82507,0.48203 l 0.16935,0.15199 0,0.0304 0,0.23016 0,0.2041 0.14767,0.13462 0.27361,0.24753 0.27356,0.24753 0.11725,0.10425 0.15638,0.013 0.95097,0.0652 0.95103,0.0695 0.20847,0.0131 0.14331,-0.14331 0.37345,-0.37348 0.29968,-0.29963 0.69911,-0.24319 c 0.42728,-0.14913 1.01142,-0.33292 1.23765,-0.39084 l 0.36476,-0.0956 0.66442,0.13463 0.70355,0.1433 0.82507,0.42124 c 0.47281,0.2421 1.07015,0.59167 1.2333,0.70784 0.13616,0.097 0.28161,0.17836 0.42121,0.24318 0.13967,0.0648 0.23673,0.12594 0.46031,0.12594 l 0.21717,0 0.1867,0 0.13468,-0.13462 0.45595,-0.46466 c 0.52912,-0.53832 0.75429,-0.65085 1.14645,-0.66007 0.36076,-0.009 0.83258,-0.13012 1.2854,-0.27793 l 0.62097,-0.20411 0.28661,0.0868 c 0.26749,0.0832 0.65886,0.17184 0.95104,0.21713 l 0.38652,0.0608 0.29968,0.18238 c 0.17934,0.1085 0.6595,0.42789 1.01612,0.68179 l 0.66444,0.47334 0.19104,0.13463 0.22145,-0.0782 0.44299,-0.16068 c 0.20003,-0.0724 0.55851,-0.13463 0.54281,-0.13463 l 0.25186,0 0.10425,0 0.0912,-0.0434 1.05524,-0.50808 0.97708,-0.46899 1.04654,-0.0477 1.02926,-0.0477 0.29959,0.15633 c 0.14003,0.0724 0.29161,0.13588 0.43428,0.18239 0.14266,0.0465 0.25456,0.0825 0.42992,0.0825 l 0.0606,0 0.22581,0.21278 0.35611,0.33439 0.11291,0.10857 0.15194,0.013 0.27797,0.0304 c 0.19248,0.0194 0.44184,0.0239 0.63831,0.013 l 0.29097,-0.0173 0.15636,-0.009 0.11291,-0.0999 0.40387,-0.34741 c 0.0907,-0.078 0.19883,-0.15251 0.2779,-0.19975 0.0314,-0.0191 0.0522,-0.031 0.0693,-0.0391 l 0.11726,0 0.31266,0 0.10855,-0.29096 0.1346,-0.3474 0.0221,-0.0564 0.0214,0 0.33436,0 0.21282,0 0.13459,-0.16067 0.17807,-0.21713 0.0393,-0.0477 0.61661,0.0261 0.73829,0.0304 0.82073,0.41689 0.84676,0.42557 0.36919,0.36044 c 0.13559,0.13125 0.28675,0.25367 0.4342,0.3561 0.14751,0.1024 0.26984,0.18444 0.45597,0.23884 l 0.28233,0.0825 0.1737,0.0521 0.1563,-0.0825 0.49942,-0.25188 c 0.31117,-0.15861 0.70133,-0.40376 0.95532,-0.60361 l 0.26492,-0.20846 0.46032,0 0.62104,0 0.12161,0 0.10854,-0.0608 0.4038,-0.23885 0.20847,-0.12593 0.24321,0.0999 c 0.30881,0.12777 0.7231,0.23666 1.05524,0.27793 l 0.39951,0.0521 0.67313,0.32568 0.47767,0.23016 0,0.41255 0.45161,0 0.13032,0 0.0393,0.0825 0.12162,0.26924 0.0257,0 c 0.008,0.0119 0.0143,0.0275 0.0221,0.0391 0.03,0.0454 0.0578,0.0905 0.10414,0.13895 0.0464,0.0485 0.0657,0.16503 0.36911,0.16503 0.258,0 0.24001,-0.0586 0.28662,-0.0868 0.0464,-0.0283 0.087,-0.0582 0.1303,-0.0911 0.0864,-0.0659 0.18143,-0.14824 0.27791,-0.23884 0.4848,-0.45543 1.55403,-1.16135 2.43185,-1.58505 l 0.73393,-0.35176 0.39952,0.11726 c 0.53918,0.16261 2.02761,0.89999 2.45353,1.21158 l 0.36047,0.2649 0.11291,0.0825 0.13895,0.004 0.61234,0.0216 0.61225,0.0217 0.10862,0.004 0.0998,-0.0434 0.55589,-0.2649 c 0.6201,-0.29209 1.24892,-0.74323 1.7978,-1.28106 l 0.15201,-0.14766 0.0264,0 0.0306,0 0.1433,0.13028 c 0.17657,0.16259 0.45119,0.37751 0.66443,0.52546 l 0.34307,0.23885 0.1129,0.0782 0.14331,0 0.18234,0 0,0.27793 0.45168,0 0.13024,0 c 0.01,0.001 0.02,0.002 0.035,0.009 0.0443,0.0186 0.1134,0.0519 0.19541,0.0955 0.16407,0.0874 0.3786,0.21351 0.58627,0.35176 l 0.79467,0.53413 0.30831,0.20412 0.26492,-0.26057 0.26491,-0.26924 c 0.0407,-0.041 0.44355,-0.30916 0.71654,-0.42991 l 0.58192,-0.26056 0.0868,-0.0391 0.065,-0.0695 0.44734,-0.49071 c 0.10912,-0.11994 0.22594,-0.23279 0.31265,-0.30399 0.0322,-0.0262 0.0507,-0.0397 0.0693,-0.0521 0,-2.8e-4 0,-0.003 0.008,-0.004 0.008,-0.003 0.0186,-0.0113 0.0214,-0.0131 0.008,-0.004 0.0149,0.001 0,0.009 0.0528,-0.013 0.0802,-0.0294 0.10862,-0.0435 0.0464,-0.0232 0.0815,-0.0477 0.12153,-0.0738 0.0799,-0.0522 0.16744,-0.11443 0.26492,-0.19107 0.19505,-0.15329 0.43085,-0.35766 0.67314,-0.58192 l 0.80338,-0.73824 0.81201,-0.36911 0.81209,-0.36913 0.56024,-0.0391 0.60362,-0.0347 0.62967,0.10857 c 0.3831,0.0673 1.1244,0.19597 1.65015,0.28661 l 0.9554,0.16501 0.27355,0.0478 0.16507,-0.22147 0.15629,-0.2128 c 0.0179,-0.024 0.15644,-0.11426 0.14766,-0.1216 l 0.18242,-0.0608 0.2171,-0.0738 0.0693,-0.21279 0.25185,-0.75995 0.25186,-0.75561 0.0214,-0.0652 0,-0.0738 0.008,-0.51244 0.008,-0.26489 0.0606,-0.0391 0.21717,-0.13029 0,-0.25186 0,-0.23884 0,-0.0565 0.46896,-0.51242 0.47772,-0.51678 0.58622,-0.0652 0.75129,-0.0868 0.15636,-0.0173 0.1129,-0.10857 0.1433,-0.1433 0.0129,-0.013 0.45596,0 0.64708,0 0.0738,0 0.0738,-0.0217 0.47338,-0.16502 0.46895,-0.16501 0.13032,-0.0434 0.0825,-0.10857 0.16937,-0.22148 c 0.10695,-0.1415 0.15044,-0.26488 0.20411,-0.41687 0.0535,-0.15201 0.10165,-0.31699 0.1303,-0.48204 l 0.0825,-0.49071 0.0214,-0.12595 -0.0478,-0.11725 -0.22588,-0.55584 c -0.12574,-0.31131 -0.30908,-0.74542 -0.41686,-0.98578 l -0.15201,-0.33872 -0.0257,-0.67745 c -0.0163,-0.40752 -0.0221,-1.01072 -0.0129,-1.30277 l 0.0129,-0.39953 0.84686,-0.90326 c 0.52576,-0.56008 1.27933,-1.34075 1.65885,-1.71968 l 0.70347,-0.7035 0.13032,-0.13027 0,-0.19108 0,-0.27358 0,-0.27793 0,-0.14764 -0.0825,-0.11726 -0.60363,-0.82945 c -0.32443,-0.44582 -0.69711,-1.00318 -0.76434,-1.12473 l -0.1346,-0.24752 -0.0214,-1.27673 -0.0221,-1.28541 0.36918,-0.75561 0.41687,-0.85984 0.0825,-0.16936 -0.0606,-0.17372 -0.15629,-0.45162 -0.1346,-0.3865 0,-0.57757 0,-0.66441 0,-0.18674 -0.13031,-0.13461 -0.20847,-0.20844 c -0.025,-0.0253 -0.0572,-0.0662 -0.0738,-0.0956 -0.008,-0.006 0,-0.008 -0.008,-0.013 l 0,-0.0868 0,-0.31267 -0.29097,-0.10857 -0.24315,-0.0911 c -0.008,-0.003 -0.31622,-0.18603 -0.64273,-0.44295 -0.32636,-0.25692 -0.72302,-0.59387 -1.11168,-0.95971 l -0.50371,-0.47335 -0.13032,-0.3778 -0.1259,-0.36913 0.0564,-0.31267 0.0738,-0.42557 0.009,-0.0652 -0.008,-0.0652 -0.10855,-0.89892 -0.10414,-0.89892 -0.0306,-0.23885 -0.21709,-0.10855 -0.72089,-0.36045 -0.62967,-0.31701 -0.20846,-0.25621 -0.27362,-0.33438 -0.19541,-0.24318 -0.29532,0.0999 -0.5775,0.19108 -0.31266,0.0999 -0.13032,-0.12593 -0.13024,-0.13462 -0.18677,0 -0.38645,0 -0.27798,0 -0.72523,-0.37781 -0.68613,-0.36043 -0.0955,-0.2345 -0.16071,-0.39084 -0.0478,-0.1129 -0.0956,-0.0738 -0.40387,-0.30833 -0.23016,-0.17805 0,-0.19108 0,-0.19975 -0.1433,-0.13463 -0.56887,-0.52111 -0.56451,-0.52546 -0.19976,-0.18238 -0.25621,0.0868 -0.42992,0.152 -0.12597,0.0434 -0.0956,-0.11725 -0.29525,-0.36912 -0.13468,-0.17371 -0.21709,0 -0.93369,0 -0.93363,0 -0.45162,0 0,0.23451 c -1.58734,-0.23955 -2.04795,-0.33945 -2.35369,-0.47335 -0.12382,-0.0542 -0.24521,-0.0998 -0.35612,-0.13462 l 0,-0.17805 -0.31266,-0.0999 -0.24321,-0.0782 0,-0.0348 0,-0.19108 -0.13461,-0.13028 -0.4429,-0.43427 -0.44298,-0.43425 -0.13024,-0.12594 -0.18242,-0.004 -0.21717,0 c 0.0606,5.7e-4 -0.0867,-0.0158 -0.2258,-0.0522 -0.13924,-0.0364 -0.30938,-0.0877 -0.46895,-0.1433 l -0.6254,-0.21714 -0.0913,-0.0304 -0.0998,0.009 -0.80774,0.0695 -0.81209,0.0738 -0.11717,0.009 -0.0956,0.0652 -0.37347,0.25188 -0.26491,0.1824 -0.36041,0.0173 c -0.30516,0.0149 -0.71809,0.0684 -1.00749,0.13027 l -0.26927,0.0564 -0.18241,-0.12159 -0.34307,-0.22582 -0.1129,-0.0738 -0.13459,0 -0.28661,0 c -0.27926,0 -0.50664,0.084 -0.73395,0.21279 l -0.23008,-0.30398 -0.1737,-0.22148 -0.27363,0.0564 -0.20846,0.0434 c -0.14653,0.0298 -0.40294,0.0914 -0.62097,0.152 l -0.24322,0.0695 -0.30831,-0.10857 -0.44291,-0.15199 -0.20845,-0.0738 -0.18677,0.12158 -0.32565,0.2128 -0.0999,0.0652 -0.0171,-0.009 -0.25621,-0.13462 -0.20847,-0.11291 -0.2128,0.11291 -0.40388,0.20845 -0.2779,0.1433 -0.33435,-0.0564 c -0.62675,-0.10284 -0.82601,-0.10154 -1.37233,0.004 l -0.27355,0.0564 -0.2041,-0.13462 -0.35613,-0.2345 -0.0782,-0.0521 -0.0912,-0.0173 -0.64701,-0.11725 c -0.34315,-0.062 -0.79083,-0.16425 -0.89024,-0.19542 l -0.29532,-0.0911 -0.37347,-0.11725 -0.16935,0.35175 -0.3083,0.63402 -0.18677,0.38214 -0.93363,0 -1.13345,0 -0.45597,-0.18673 c -0.23922,-0.0993 -0.84777,-0.42006 -1.25935,-0.67309 l -0.78603,-0.48638 -0.22146,-0.13462 -0.23016,0.12159 -0.28226,0.15199 c -0.0769,0.0411 -0.32699,0.0956 -0.30831,0.0956 l -0.0692,0 -0.17807,-0.16937 -0.31694,-0.29529 -0.16507,-0.15633 z m -0.28226,0.9684 0.14331,0.13897 0.31266,0.29529 0.13025,0.1216 0.18241,0 0.24315,0 c 0.28654,0 0.50521,-0.0795 0.73829,-0.20411 l 0.0478,-0.0261 0.56887,0.3474 c 0.45332,0.27867 1.03703,0.59195 1.38966,0.73825 l 0.53411,0.22147 0.0868,0.0347 0.0868,0 1.22466,0 1.22025,0 0.28226,0 0.1216,-0.25188 0.30831,-0.63835 0.13902,-0.29096 c 0.23159,0.067 0.58243,0.14216 0.92491,0.20411 l 0.55589,0.0999 0.28225,0.18672 0.35613,0.2345 0.15629,0.0999 0.17806,-0.0347 0.45162,-0.0868 c 0.53561,-0.10381 0.44097,-0.10587 1.05959,-0.004 l 0.48643,0.0825 0.14759,0.0217 0.13467,-0.0695 0.40387,-0.20844 0.19541,-0.0999 0.0435,0.0216 0.25191,0.13462 0.23445,0.12594 0.22581,-0.14765 0.32571,-0.21278 0.13896,-0.0911 0.23016,0.0825 0.44298,0.15199 0.13459,0.0477 0.1346,-0.0391 0.38217,-0.10425 c 0.17778,-0.0495 0.38666,-0.0973 0.49508,-0.12159 l 0.0606,0.0782 0.23452,0.30831 0.2475,0.32136 0.34742,-0.21279 0.28225,-0.1737 c 0.0606,-0.0374 0.32386,-0.10857 0.33008,-0.10857 l 0.15193,0 0.23016,0.15199 0.33878,0.22582 0.16065,0.0999 0.18241,-0.0391 0.45162,-0.0956 c 0.20767,-0.0444 0.63859,-0.0973 0.86853,-0.10856 l 0.48638,-0.0261 0.12589,-0.004 0.10425,-0.0738 0.3691,-0.25187 0.27355,-0.18239 0.69484,-0.0652 0.71653,-0.0608 0.52982,0.18673 c 0.18406,0.0641 0.37675,0.11738 0.54282,0.16068 0.16594,0.0433 0.26314,0.0809 0.44291,0.0825 l 0.0393,0 0.31266,0.30832 0.30402,0.29097 0,0.004 0,0.17804 0,0.33004 0.31694,0.0999 0.27798,0.0868 0.008,0 c 0.0257,0.0665 0.0614,0.13342 0.11726,0.19108 0.0919,0.0944 0.23894,0.15406 0.38217,0.15633 0.0171,2.8e-4 0.0357,10e-4 0.0521,0 -0.009,6e-4 -0.0242,0.004 -0.0307,0.004 0.0149,0.003 0.03,0.005 0.0564,0.013 0.0736,0.0226 0.17877,0.0608 0.2779,0.10425 0.44761,0.19604 0.9823,0.30178 2.5795,0.54283 l 0.52112,0.0782 0.51678,0.0782 0,-0.38216 0.48207,0 0.71654,0 0.16064,0.19976 0.29096,0.36912 0.19977,0.25187 0.30394,-0.10425 0.42992,-0.15199 0.17371,-0.0608 0.36484,0.33873 0.4212,0.39083 0,0.013 0,0.20844 0,0.22148 0.17806,0.13463 0.40386,0.31266 0.31267,0.23451 0.1129,0.27792 0.16064,0.39084 0.065,0.15199 0.14329,0.0738 0.82508,0.43426 0.82508,0.42992 0.0999,0.0521 0.10856,0 0.39088,0 0.19975,0 0.0306,0.0304 0.16065,0.16504 0.1954,0.19541 0.26492,-0.0868 0.57757,-0.19107 0.28226,-0.0912 0.0738,0.0912 0.26927,0.33003 0.0606,0.0782 0.0912,0.0434 0.71653,0.36044 0.50371,0.25186 0.0782,0.65574 0.0955,0.83379 -0.0606,0.36043 -0.0738,0.42558 -0.0171,0.1129 0.035,0.10857 0.16071,0.47768 0.16065,0.47769 0.0393,0.10425 0.0825,0.0782 0.59057,0.55587 c 0.40693,0.38308 0.81536,0.73846 1.16821,1.01616 0.34199,0.26917 0.58214,0.45512 0.85983,0.56453 0.0236,0.0901 0.0578,0.16412 0.0955,0.23016 0.0585,0.10187 0.1321,0.19293 0.22152,0.28228 l 0.0738,0.0738 0,0.48202 0,0.66443 0,0.0738 0.0257,0.0738 0.15637,0.45163 0.0955,0.27359 -0.33436,0.68613 -0.41685,0.85549 -0.0478,0.0956 0.008,0.10855 0.0214,1.38964 0.0214,1.38963 0,0.11292 0.0564,0.0999 0.19112,0.34306 c 0.14345,0.25944 0.4868,0.75976 0.82507,1.22461 l 0.51242,0.70351 0,0.13462 0,0.0911 -0.56886,0.56888 c -0.39544,0.39482 -1.14709,1.16874 -1.68063,1.73704 l -0.95967,1.02919 -0.11727,0.12159 -0.008,0.17371 -0.0171,0.56889 c -0.01,0.33745 -0.008,0.93472 0.0129,1.36791 l 0.0264,0.76431 0.008,0.0912 0.035,0.0782 0.19113,0.41688 c 0.0977,0.21822 0.28339,0.65726 0.40387,0.95538 l 0.17371,0.43425 -0.0606,0.36045 c -0.0179,0.10349 -0.0542,0.23008 -0.0913,0.33438 -0.0371,0.10425 -0.0899,0.1992 -0.0738,0.17804 l -0.0825,0.10857 -0.34307,0.11725 -0.39952,0.13896 -0.57321,0 -0.64702,0 -0.18677,0 -0.13024,0.13463 -0.14331,0.14331 -0.0307,0.0304 -0.59928,0.0652 -0.75128,0.0868 -0.16935,0.0173 -0.1129,0.12594 -0.59064,0.63837 -0.59057,0.6427 -0.11725,0.13028 0,0.17371 0,0.22146 -0.065,0.0391 -0.21281,0.13027 0,0.24753 -0.008,0.51243 -0.008,0.44295 -0.23016,0.69048 -0.17806,0.54282 c -0.26107,0.0907 -0.40237,0.2225 -0.54717,0.41689 l -0.68178,-0.11292 c -0.52462,-0.0905 -1.26483,-0.21965 -1.64586,-0.28661 l -0.69484,-0.12593 -0.0564,-0.009 -0.0521,0.004 -0.64709,0.0434 -0.64266,0.0435 -0.0825,0.004 -0.0738,0.0347 -0.88589,0.39952 -0.88587,0.40386 -0.065,0.0261 -0.0521,0.0522 -0.85113,0.78601 c -0.22615,0.20938 -0.45247,0.40162 -0.62103,0.53414 -0.0843,0.0663 -0.15686,0.11971 -0.19976,0.14764 -0.0157,0.01 -0.0179,0.0108 -0.0214,0.013 -0.0852,0.0217 -0.14037,0.0542 -0.18676,0.0825 -0.0685,0.0419 -0.1301,0.0854 -0.19541,0.13897 -0.13052,0.10717 -0.27104,0.2445 -0.40821,0.39517 l -0.3821,0.42123 -0.49508,0.21713 c -0.36925,0.16334 -0.737,0.36786 -0.99007,0.62099 l -0.008,0.004 -0.49071,-0.3257 c -0.23124,-0.15398 -0.46261,-0.28995 -0.66008,-0.39517 -0.0987,-0.0526 -0.18934,-0.0993 -0.27355,-0.13462 -0.0165,-0.008 -0.0464,-0.0108 -0.0606,-0.0173 l 0,-0.33873 -0.45169,0 -0.31693,0 -0.17807,0 -0.2258,-0.15634 c -0.16465,-0.11419 -0.44476,-0.33701 -0.56459,-0.44728 l -0.26919,-0.24753 -0.13032,-0.12159 -0.17372,0 -0.21274,0 -0.21281,0 -0.18241,0 -0.13461,0.13028 -0.28225,0.27792 c -0.48166,0.47198 -1.04475,0.86919 -1.55032,1.10736 l -0.46031,0.21713 -0.49508,-0.0217 -0.47766,-0.0173 -0.24757,-0.1824 c -0.62768,-0.45924 -1.96646,-1.11678 -2.72716,-1.34621 l -0.56451,-0.16936 -0.16936,-0.0521 -0.15636,0.0738 -0.89452,0.43426 c -0.94561,0.45641 -1.99342,1.13166 -2.61425,1.7023 l -0.065,-0.13897 -0.035,-0.0825 -0.12161,-0.26491 -0.26056,0 0,-0.0738 -0.25621,-0.12595 -0.72951,-0.35175 -0.72959,-0.35609 -0.065,-0.0347 -0.0782,-0.009 -0.48636,-0.0608 c -0.20283,-0.0252 -0.63332,-0.13958 -0.82073,-0.21714 l -0.44733,-0.18672 -0.20845,-0.0868 -0.19541,0.11725 -0.40387,0.23884 -0.29524,0.1737 -0.49943,0 -0.62097,0 -0.15636,0 -0.12162,0.0999 -0.38209,0.29965 c -0.16808,0.13225 -0.57101,0.38734 -0.80774,0.50808 l -0.33878,0.17371 -0.11284,-0.0347 c 0.0308,0.009 -0.0849,-0.0391 -0.19111,-0.11291 -0.1063,-0.0738 -0.22759,-0.16992 -0.32137,-0.26056 l -0.41686,-0.40387 -0.0479,-0.0477 -0.0606,-0.0304 -0.912,-0.46464 -0.90758,-0.46032 -0.0868,-0.0434 -0.0999,-0.004 -0.83806,-0.0348 -0.83814,-0.0347 -0.22152,-0.009 -0.14323,0.1737 -0.18242,0.21713 -0.0435,0.0522 -0.12154,0 -0.33443,0 -0.31265,0 -0.10855,0.29095 -0.13461,0.34741 -0.035,0.0912 c -0.0378,0.0117 -0.0941,0.0169 -0.12597,0.0304 -0.0692,0.0293 -0.13395,0.0648 -0.19976,0.10425 -0.13159,0.0787 -0.26827,0.17807 -0.39951,0.29095 l -0.28661,0.24753 -0.13895,0.004 c -0.12361,0.008 -0.38624,0.003 -0.49943,-0.009 l -0.12589,-0.0131 -0.24322,-0.23015 -0.35177,-0.33438 -0.1346,-0.12594 -0.17806,0 -0.23445,0 c 0.008,10e-4 0,0 -0.009,0 -0.0214,-0.004 -0.0861,-0.0175 -0.15201,-0.0391 -0.0954,-0.0311 -0.20753,-0.0762 -0.29524,-0.12158 l -0.41258,-0.21714 -0.10855,-0.0521 -0.12161,0.004 -1.14209,0.0522 -1.14209,0.0521 -0.0911,0.004 -0.0868,0.0391 -1.0553,0.5081 -0.95533,0.46464 -0.15637,0 c -0.29446,0 -0.56587,0.0836 -0.85113,0.18674 l -0.21717,0.0782 -0.47331,-0.33438 c -0.37295,-0.26555 -0.83085,-0.57297 -1.06828,-0.71653 l -0.37782,-0.23016 -0.0782,-0.0477 -0.0868,-0.013 -0.47339,-0.0738 c -0.22652,-0.0352 -0.63331,-0.12706 -0.82507,-0.18673 l -0.41685,-0.13027 -0.13467,-0.0434 -0.13896,0.0434 -0.76426,0.25186 c -0.38717,0.12637 -0.95519,0.23287 -1.02484,0.23451 -0.62826,0.0148 -1.17143,0.32289 -1.7675,0.92931 l -0.32136,0.3257 c -0.0228,-0.005 -0.0664,-0.0151 -0.10855,-0.0348 -0.0845,-0.0393 -0.19226,-0.0997 -0.2779,-0.16068 -0.28047,-0.19971 -0.84191,-0.51908 -1.34619,-0.77733 l -0.89024,-0.45597 -0.0564,-0.0304 -0.0606,-0.009 -0.75563,-0.15199 -0.75563,-0.15199 -0.0998,-0.0217 -0.0999,0.0261 -0.47766,0.12159 c -0.29631,0.0758 -0.85691,0.2554 -1.3071,0.41255 l -0.79909,0.27792 -0.0998,0.0348 -0.0693,0.0695 -0.37347,0.37347 -0.22581,0.2258 -0.74693,-0.0521 -0.79467,-0.0564 -0.16071,-0.14765 -0.1259,-0.11291 0,-0.0304 0,-0.23015 0,-0.19977 -0.14765,-0.13462 -0.31266,-0.2866 c -0.26899,-0.24558 -0.68142,-0.47096 -1.07701,-0.64272 l -0.52541,-0.23015 -0.23451,-0.33003 -0.30838,-0.43428 -0.13461,-0.19107 -0.23451,0 -0.15628,0 c -0.27948,0 -0.32858,0.0886 -0.44298,0.16067 -0.11433,0.0722 -0.22945,0.1579 -0.33871,0.26056 l -0.14766,0.13897 -0.36041,-0.0782 -0.59498,-0.12594 -0.12154,-0.0261 -0.11725,0.0391 -0.69484,0.23884 -0.38653,0.13462 -0.11289,-0.14765 -0.13461,-0.17805 -0.22145,0 -0.20411,0 c -0.23044,0 -0.38338,0.0721 -0.53418,0.18674 l -0.17371,-0.1216 c -0.57094,-0.40141 -0.7956,-0.6899 -0.85983,-0.90326 -0.0984,-0.32718 -0.28933,-0.56513 -0.52976,-0.78167 -0.1169,-0.10522 -0.37497,-0.4125 -0.48201,-0.57756 l -0.25186,-0.3865 -0.0521,-0.0782 -0.0782,-0.0521 -0.74693,-0.49507 c -0.19226,-0.12766 -0.39159,-0.27292 -0.54717,-0.39951 -0.15572,-0.1266 -0.28354,-0.27159 -0.26056,-0.23885 l -0.18242,-0.26056 -0.12589,-0.17804 -0.21716,-0.013 -0.89453,-0.0564 -0.72958,-0.0434 -0.42121,-0.38648 -0.54282,-0.4994 -0.16935,-0.15634 -0.22589,0.0477 -0.37781,0.0738 -0.11725,0.0261 c -0.0854,-0.1037 -0.29475,-0.36612 -0.47767,-0.59494 l -0.25185,-0.317 -0.0171,-0.60363 -0.0214,-0.63402 0.0999,-0.19107 0.16064,-0.2953 0.0564,-0.10857 -0.008,-0.12159 -0.0214,-0.59927 -0.0264,-0.59929 -0.008,-0.17805 -0.12597,-0.12594 -0.19106,-0.18672 c 0.025,0.0252 -0.12481,-0.15707 -0.26926,-0.36044 -0.14424,-0.20336 -0.32058,-0.46464 -0.49073,-0.72521 l -0.62959,-0.96406 -0.0692,-0.10857 -0.1216,-0.0564 -0.35177,-0.16067 c -0.0179,-0.009 -0.18755,-0.10696 -0.35605,-0.2345 -0.1685,-0.12757 -0.35642,-0.29104 -0.52113,-0.44295 -0.18776,-0.17318 -0.3776,-0.32691 -0.53846,-0.44729 -0.0806,-0.0602 -0.15315,-0.11299 -0.22588,-0.15632 -0.0586,-0.035 -0.078,-0.0815 -0.2171,-0.0999 8e-5,-0.001 -0.008,-0.002 -0.0257,-0.004 0,6e-4 0.008,0.003 0.009,0.004 -0.03,-0.003 -0.0572,-0.009 -0.0999,-0.009 0.0449,4.2e-4 0.073,0.002 0.0911,0.004 -0.008,-0.002 -0.0149,-0.003 -0.0214,-0.009 -0.0407,-0.028 -0.0988,-0.0768 -0.1433,-0.12595 l -0.25193,-0.27792 -0.1346,-0.152 -0.12161,0 0,-0.29529 0,-0.5906 0.60798,-0.75995 c 0.80902,-1.01135 1.19855,-1.55714 1.19855,-2.17566 0,-6e-4 0.0671,-0.11885 0.035,-0.0999 l 0.12597,-0.13028 0.12161,-0.12159 0.009,-0.17371 0.0522,-0.97275 0.0521,-0.97708 0.008,-0.12159 -0.0564,-0.10858 -0.1954,-0.38214 -0.14766,-0.28661 -0.008,-0.25621 0,-0.36478 0,-0.17371 -0.11725,-0.13028 -0.76435,-0.82943 -0.62967,-0.68614 0.31266,-0.317 c 0.24236,-0.24416 0.79674,-0.77278 1.2116,-1.15948 l 0.75999,-0.71219 0.0606,-0.0565 0.0393,-0.0738 0.45597,-0.92498 0.45604,-0.92498 0.0393,-0.0825 0.008,-0.0912 0.065,-1.10737 0.065,-1.1117 0.0307,-0.47769 -0.43427,0 c -0.0364,-0.0453 -0.0808,-0.10013 -0.12161,-0.16935 l -0.1346,-0.23017 0.0257,-0.0999 c 0.0678,10e-4 0.11198,-0.001 0.16935,0.004 l 0.25193,0.0304 0.15629,0.0131 0.13033,-0.0825 0.30394,-0.19541 c 0.0136,-0.009 0.18421,-0.0909 0.37782,-0.16503 0.19362,-0.074 0.4272,-0.15455 0.64266,-0.21712 0.23737,-0.0688 0.47852,-0.14663 0.68184,-0.21714 0.20326,-0.0705 0.34721,-0.11562 0.48638,-0.19107 0.0157,-0.009 0.27126,-0.0777 0.34306,-0.0782 0.52112,-0.003 1.11839,-0.2424 1.68491,-0.50809 0.38994,-0.18283 0.71182,-0.33101 0.95539,-0.62099 0.37839,-0.4504 0.69497,-1.04635 0.75564,-1.59807 l 0.0214,-0.18674 0.18234,-0.18673 c 0.16957,-0.17483 0.56473,-0.60058 0.89459,-0.95972 l 0.50378,-0.55151 0.26921,-0.0652 0.11289,-0.0304 0.0479,0.0608 0.22145,0.28663 0.1346,0.17369 0.21717,0.004 1.04225,0.009 1.04217,0.009 0.0435,0.004 0.0435,-0.009 0.83379,-0.14765 c 0.42935,-0.0756 1.06573,-0.13699 1.30281,-0.13462 l 0.55581,0.004 0.16943,0.004 0.13024,-0.10857 0.95967,-0.82075 0.83379,-0.71219 0.12596,0 c 0.2824,-0.002 0.68448,-0.0419 1.07265,-0.0911 0.38816,-0.0494 0.71731,-0.0924 0.95967,-0.16936 l 0.0783,-0.0261 0.1563,0.10425 0.33436,0.21714 0.11297,0.0738 0.13459,0 0.39517,0 0.27363,0 0.46032,0.23451 0.55144,0.2866 0.12162,0.0652 0.13895,-0.0173 0.74694,-0.0868 0.74257,-0.0912 0.10425,-0.013 0.0868,-0.0564 0.74257,-0.47334 c 0.19312,-0.12357 0.38874,-0.23473 0.53846,-0.31268 0.0748,-0.039 0.13888,-0.0706 0.17807,-0.0868 0.0193,-0.009 0.0428,-0.01 0.0435,-0.009 0.13917,-0.0157 0.21846,-0.0649 0.30838,-0.1129 0.10927,-0.0584 0.21403,-0.12786 0.31266,-0.21714 l 0.0868,-0.0782 0.78162,0.1216 0.9337,0.14766 0.34741,0.17804 0.4212,0.22147 0.13896,0.0695 0.15201,-0.0304 0.36476,-0.0695 0.23016,-0.0434 0.34314,0.14331 0.46895,0.19541 0.0825,0.0348 0.0911,0 0.42556,0 c 0.78126,0 2.11862,-0.27311 2.96603,-0.58625 0.43162,-0.15947 0.66863,-0.23306 0.80338,-0.25188 0.13474,-0.0187 0.19527,-0.01 0.41693,0.0521 l 0.38645,0.10857 0.23887,0.0695 0.18669,-0.16936 0.24757,-0.22581 c 0.01,-0.009 0.0115,-0.005 0.0214,-0.013 0.008,0.003 0.01,0.01 0.0129,0.013 0.0852,0.0815 0.17213,0.14081 0.27355,0.20409 0.2031,0.12659 0.45469,0.2504 0.72524,0.36479 0.54117,0.22876 1.10997,0.43001 1.6024,0.42992 0.58664,-1.2e-4 1.27769,-0.27275 2.1149,-0.71219 0.15022,-0.0789 0.30017,-0.15026 0.41685,-0.19977 0.02,-0.009 0.03,-0.0108 0.0478,-0.0173 0.0457,0.0367 0.099,0.0781 0.1476,0.13028 l 0.29095,0.31268 0.12161,0.13027 0.17371,0.013 0.51241,0.0434 c 1.28761,0.10425 1.4387,0.12298 1.69363,0.2041 l 0,0.25187 0.34306,0.0825 0.36047,0.0912 0.3604,0.0911 0.22146,0.0564 0.17806,-0.14765 0.18677,-0.15634 0.10414,-0.0825 1.07265,-0.22582 c 0.31865,-0.0664 0.61582,-0.11633 0.82943,-0.14765 0.0972,-0.0143 0.17136,-0.0219 0.22145,-0.0261 0.0385,0.008 0.0758,0.008 0.0999,0.009 0.0592,0.004 0.0975,-1.3e-4 0.1346,-0.004 0.074,-0.009 0.13831,-0.0246 0.21283,-0.0435 0.14901,-0.0378 0.32636,-0.094 0.51241,-0.16503 l 0.62097,-0.23884 0.19104,-0.0695 0.0693,-0.19107 0.0564,-0.13462 0.25185,-0.0477 0.27797,-0.0521 z m -0.83377,2.86178 -0.43428,0.0782 -0.43862,0.0782 -0.0606,0.15633 -0.0606,0.15633 -0.54288,0.19977 c -0.29861,0.10963 -0.56874,0.17265 -0.59928,0.1433 -0.0307,-0.0293 -0.51876,0.0385 -1.08564,0.15199 l -1.02918,0.20845 -0.165,0.13028 -0.16073,0.13028 -0.31265,-0.0782 -0.31702,-0.0738 0,-0.0956 c 0,-0.0526 -0.11989,-0.13219 -0.2692,-0.17804 -0.25485,-0.0782 -0.43769,-0.10339 -1.56336,-0.19107 l -0.44726,-0.0347 -0.25192,-0.26057 c -0.13918,-0.14364 -0.30696,-0.26056 -0.37347,-0.26056 -0.0664,0 -0.35013,0.11513 -0.62967,0.25622 -0.69991,0.35318 -1.29625,0.55145 -1.65452,0.55151 -0.56351,1.1e-4 -2.05408,-0.60465 -2.05408,-0.83379 0,-0.1538 -0.27184,-0.0981 -0.49936,0.0999 l -0.21282,0.18673 -0.33871,-0.0912 c -0.41557,-0.11188 -0.54439,-0.0957 -1.30281,0.17371 -0.67099,0.23836 -1.86768,0.469 -2.43619,0.469 l -0.3691,0 -0.40823,-0.16068 -0.40822,-0.16502 -0.31694,0.0564 -0.31703,0.0608 -0.36483,-0.18239 -0.36475,-0.18239 -0.86854,-0.13028 -0.86419,-0.13027 -0.21274,0.18673 c -0.11655,0.10143 -0.27948,0.18239 -0.36048,0.18239 -0.081,0 -0.43598,0.18158 -0.79032,0.39952 l -0.64272,0.39517 -0.64702,0.0738 -0.65144,0.0738 -0.47766,-0.23884 -0.47766,-0.23884 -0.33878,0 -0.34306,0 -0.29089,-0.18239 -0.29097,-0.1824 -0.24322,0.0738 c -0.26063,0.0796 -1.23116,0.19628 -1.65015,0.19976 l -0.25628,0.004 -0.83379,0.6818 -0.83372,0.68179 -0.48208,-0.004 c -0.26562,-0.003 -0.80881,0.0499 -1.20725,0.11725 l -0.72516,0.12594 -0.90329,-0.009 -0.90758,-0.009 -0.1954,-0.24319 -0.19113,-0.24319 -0.35176,0.0868 -0.34735,0.0825 -0.51677,0.54283 c -0.28483,0.29804 -0.63417,0.65282 -0.77305,0.79037 l -0.25185,0.25186 -0.0306,0.28227 c -0.0336,0.29358 -0.30167,0.82772 -0.56887,1.13342 -0.10523,0.12058 -0.37746,0.27821 -0.69483,0.42123 -0.46096,0.20783 -1.0192,0.38468 -1.30274,0.3865 -0.1503,6e-4 -0.36675,0.0528 -0.48209,0.1129 -0.11525,0.0601 -0.53525,0.20148 -0.93362,0.31267 -0.39851,0.1112 -0.84498,0.27166 -0.99008,0.36044 l -0.26057,0.16067 -0.22152,-0.0217 c -0.12039,-0.012 -0.28082,-0.0161 -0.35605,-0.009 l -0.13466,0.013 -0.0693,0.25621 -0.0692,0.25187 0.2041,0.3257 c 0.11077,0.18028 0.24451,0.33003 0.29967,0.33003 l 0.0998,0 -0.0564,0.92498 -0.0564,0.92498 -0.39516,0.77298 -0.39516,0.77299 -0.66443,0.59493 c -0.36412,0.32642 -0.84406,0.76846 -1.06395,0.98143 l -0.39951,0.3865 0,0.13896 0,0.13462 0.66436,0.69482 0.66443,0.69481 0,0.30398 0,0.30833 0.1737,0.31702 0.17372,0.32135 -0.0478,0.81206 -0.0435,0.81642 -0.12589,0.12158 c -0.0699,0.0673 -0.13031,0.2163 -0.13031,0.33439 0,0.31577 -0.25972,0.75408 -0.95097,1.58505 l -0.61669,0.73824 0,0.62534 0,0.62099 0.16065,0 0.16508,0 0.21709,0.2345 c 0.12019,0.12769 0.27897,0.23381 0.35177,0.2345 0.0726,6.2e-4 0.38253,0.22198 0.69047,0.49506 0.30796,0.27309 0.69962,0.56004 0.86855,0.63401 l 0.30831,0.13029 0.54716,0.80773 c 0.30111,0.44354 0.62183,0.87718 0.71218,0.96406 l 0.16064,0.16067 0.0221,0.49941 0.0214,0.50374 -0.13894,0.24753 -0.13896,0.24752 0.0214,0.62968 0.0214,0.62968 0.29967,0.36043 c 0.16508,0.19846 0.36012,0.43067 0.4342,0.51678 l 0.13468,0.15633 0.32999,-0.0608 0.33008,-0.0652 0.46894,0.4169 0.46904,0.41688 0.77733,0.0435 0.77297,0.0434 0.16072,0.21713 c 0.0869,0.11936 0.45047,0.40605 0.80767,0.63402 l 0.64707,0.41255 0.22146,0.3257 c 0.12012,0.17815 0.33893,0.42816 0.48637,0.55585 0.14752,0.12768 0.30039,0.34163 0.34306,0.47769 0.0957,0.30574 0.37268,0.59964 0.89895,0.95537 l 0.40386,0.27359 0.13461,-0.13029 c 0.0732,-0.0704 0.20839,-0.12593 0.30402,-0.12593 l 0.1737,0 0.1346,0.16937 0.1346,0.16935 0.60363,-0.19975 0.60361,-0.19976 0.51677,0.10424 0.51678,0.10425 0.27797,-0.24752 c 0.1518,-0.13714 0.334,-0.24753 0.40814,-0.24753 l 0.13468,0 0.2692,0.36043 0.26927,0.36478 0.55588,0.23015 c 0.30481,0.12729 0.67571,0.33784 0.82508,0.46901 l 0.26927,0.23885 0,0.19542 0,0.19106 0.23879,0.20846 0.23886,0.20844 0.82944,0.0564 0.82943,0.0564 0.32136,-0.30831 0.32137,-0.31268 0.69483,-0.23016 c 0.38117,-0.12792 0.88031,-0.27852 1.10733,-0.33438 l 0.41251,-0.10425 0.65579,0.12594 0.65573,0.13028 0.77297,0.37779 c 0.42449,0.20899 0.9277,0.48907 1.1204,0.621 0.19261,0.13193 0.43562,0.23884 0.53846,0.23884 l 0.18678,0 0.39951,-0.39083 c 0.48872,-0.47811 0.82036,-0.65005 1.26369,-0.66008 0.18707,-0.004 0.63818,-0.10262 1.00314,-0.21712 l 0.66444,-0.20845 0.36475,0.10857 c 0.19962,0.0596 0.54754,0.13576 0.77299,0.16935 l 0.4082,0.0608 0.33002,0.19107 c 0.18119,0.10533 0.58635,0.3693 0.90328,0.58625 l 0.57758,0.39519 0.3821,-0.13463 c 0.21089,-0.0733 0.4826,-0.13027 0.60362,-0.13027 l 0.22154,0 0.92062,-0.42558 0.91629,-0.42557 0.99444,-0.0435 0.99014,-0.0434 0.3604,0.17805 c 0.19777,0.0984 0.45298,0.17804 0.56888,0.17804 l 0.21281,0 0.30831,0.28228 0.3083,0.27792 0.24323,0.0216 c 0.13288,0.0129 0.35162,0.0204 0.49072,0.013 l 0.2562,-0.013 0.34742,-0.29096 c 0.19298,-0.15953 0.42342,-0.29088 0.50806,-0.29096 l 0.15201,0 0.11291,-0.29095 0.11725,-0.29095 0.29097,0 0.28661,0 0.16065,-0.17805 0.15636,-0.1824 0.72517,0.0261 0.72959,0.0304 0.79031,0.38648 0.7904,0.38215 0.3604,0.33873 c 0.19926,0.18535 0.47267,0.37017 0.60798,0.4082 l 0.24757,0.0652 0.43428,-0.20844 c 0.23793,-0.11668 0.58078,-0.32596 0.76426,-0.46466 l 0.33436,-0.25188 0.53846,0 0.53854,0 0.35169,-0.19975 0.35178,-0.19976 0.39088,0.15633 c 0.21552,0.0857 0.58393,0.17636 0.81637,0.2041 l 0.42121,0.0521 0.6341,0.2953 0.63394,0.29965 0,0.0999 0,0.10425 0.18242,0 0.18241,0 0.13896,0.29095 c 0.0757,0.1596 0.16478,0.28661 0.19976,0.28661 0.035,0 0.18934,-0.10825 0.33871,-0.24319 0.47787,-0.43154 1.4097,-1.01806 2.21038,-1.38963 l 0.77733,-0.36043 0.49072,0.13895 c 0.56466,0.16374 1.79174,0.75069 2.2495,1.07263 l 0.31266,0.21713 0.53411,0.0217 0.53411,0.0173 0.48209,-0.21714 c 0.48908,-0.22146 1.00264,-0.57704 1.4504,-0.99879 l 0.24757,-0.23015 0.18234,0 0.18677,0 0.23451,0.20844 c 0.12868,0.11395 0.36569,0.29437 0.52976,0.40386 l 0.29967,0.19976 0.27356,0 0.2779,0 0,0.11726 0,0.11724 0.1737,0 c 0.0953,0 0.48295,0.19883 0.86418,0.44294 l 0.69485,0.44296 0.23014,-0.22582 c 0.12791,-0.12287 0.46361,-0.31996 0.74259,-0.43861 l 0.50378,-0.21278 0.39081,-0.41256 c 0.21395,-0.22603 0.44862,-0.41254 0.52111,-0.41254 0.0725,0 0.4659,-0.29351 0.8729,-0.65573 l 0.73822,-0.66008 0.76863,-0.33438 0.76863,-0.33439 0.56022,-0.0347 0.56016,-0.0391 0.60363,0.10425 c 0.33207,0.0561 0.9768,0.16321 1.43306,0.23883 l 0.82942,0.13898 0.13902,-0.17806 c 0.0751,-0.098 0.2099,-0.20465 0.30396,-0.2345 l 0.17371,-0.0521 0.2171,-0.63401 0.21717,-0.62968 0.008,-0.42993 0.008,-0.42992 0.11726,-0.0695 0.12153,-0.0738 0,-0.19542 0,-0.19541 0.51249,-0.53415 0.51241,-0.53847 0.65573,-0.0695 0.65573,-0.0695 0.1216,-0.12159 0.12597,-0.11727 0.56016,0 0.56451,0 0.40823,-0.13895 0.41257,-0.13463 0.1433,-0.18238 c 0.079,-0.10057 0.17677,-0.3663 0.2171,-0.59059 l 0.0738,-0.40821 -0.19547,-0.46466 c -0.10695,-0.25453 -0.2667,-0.61621 -0.35606,-0.80773 l -0.16499,-0.35175 -0.0264,-0.63835 c -0.0143,-0.35114 -0.0171,-0.85315 -0.009,-1.11605 l 0.0129,-0.4777 0.83814,-0.85549 c 0.46018,-0.47127 1.10933,-1.12293 1.44604,-1.44609 l 0.61234,-0.58625 0,-0.23015 0,-0.23017 -0.52113,-0.69481 c -0.2879,-0.38036 -0.59891,-0.81797 -0.69048,-0.97709 l -0.165,-0.29096 -0.0214,-1.15948 -0.0171,-1.16381 0.36048,-0.71219 0.36476,-0.71653 -0.13895,-0.37781 -0.13459,-0.37346 0,-0.55586 0,-0.55585 -0.18242,-0.17371 c -0.0996,-0.0958 -0.17807,-0.22922 -0.17807,-0.29963 l 0,-0.13029 -0.21274,-0.0738 c -0.2572,-0.092 -0.96331,-0.62943 -1.65458,-1.25501 l -0.51241,-0.46032 -0.13896,-0.39952 -0.14331,-0.39953 0.065,-0.35608 0.065,-0.3561 -0.0955,-0.75126 -0.0911,-0.75128 -0.6254,-0.29964 -0.62532,-0.29964 -0.23443,-0.27792 -0.23452,-0.27793 -0.50378,0.16067 -0.49935,0.15633 -0.14331,-0.13461 -0.13903,-0.13462 -0.3387,0 -0.33436,0 -0.71653,-0.36479 -0.72088,-0.36043 -0.13895,-0.3257 -0.13896,-0.32569 -0.35177,-0.25622 -0.35176,-0.26055 0,-0.17371 0,-0.17369 -0.49072,-0.43862 -0.49508,-0.4386 -0.37346,0.12594 -0.37347,0.12594 -0.25621,-0.30832 -0.2562,-0.30833 -0.80773,0 -0.81202,0 0,0.12593 0,0.13028 -0.45161,-0.0652 c -1.3836,-0.20071 -1.81794,-0.28776 -2.1453,-0.42557 -0.19912,-0.0839 -0.4018,-0.14492 -0.45161,-0.13461 -0.0499,0.0108 -0.0912,-0.0274 -0.0912,-0.0868 l 0,-0.10856 -0.23886,-0.0738 -0.24315,-0.0738 0,-0.15199 0,-0.15199 -0.38652,-0.36478 -0.38211,-0.36043 -0.19112,-0.004 c -0.1036,-6.1e-4 -0.43092,-0.0824 -0.72951,-0.18239 l -0.54282,-0.18239 -0.70355,0.0608 -0.70782,0.0608 -0.32135,0.20844 -0.32138,0.2128 -0.4212,0.0173 c -0.23237,0.0109 -0.60042,0.0555 -0.81645,0.0999 l -0.39081,0.0825 -0.29967,-0.18673 -0.29524,-0.18673 -0.24757,0 c -0.13595,0 -0.36027,0.0636 -0.49508,0.14331 l -0.24315,0.14765 -0.20846,-0.25622 -0.20411,-0.26055 -0.18235,0.0391 c -0.0996,0.0194 -0.32657,0.0731 -0.50813,0.1216 l -0.33,0.0868 -0.38652,-0.12594 -0.3821,-0.13028 -0.28662,0.17805 -0.28232,0.17805 -0.21711,-0.11292 -0.22144,-0.1129 -0.35178,0.17805 -0.35177,0.1737 -0.42556,-0.0652 c -0.54103,-0.0854 -0.58527,-0.0876 -1.05523,0 l -0.39088,0.0738 -0.31266,-0.19541 -0.3083,-0.19543 -0.56451,-0.0956 c -0.31053,-0.0539 -0.67993,-0.13557 -0.82081,-0.17805 l -0.25621,-0.0782 -0.26926,0.53414 -0.26919,0.52979 -1.05961,0 -1.05958,0 -0.46902,-0.18672 c -0.25714,-0.10252 -0.77505,-0.36418 -1.1508,-0.58627 l -0.68178,-0.40385 -0.2475,0.12593 c -0.13473,0.0692 -0.3397,0.12594 -0.45603,0.12594 l -0.20839,0 -0.27362,-0.24753 -0.27355,-0.24752 z m 5.2068,6.48352 0.96838,0.0522 0.96838,0.0521 0.81209,0.40821 0.81209,0.40819 0.3821,0.37347 c 0.21168,0.20545 0.51063,0.46727 0.66443,0.58191 0.1538,0.11465 0.47802,0.50748 0.72088,0.86853 0.24279,0.36104 0.504,0.6928 0.57758,0.73824 0.17356,0.10728 0.54717,0.99819 0.54717,1.30712 0,0.13178 0.0918,0.4263 0.20411,0.65139 l 0.20412,0.40821 -0.10863,0.40386 -0.10855,0.40821 -0.96403,0.52545 -0.9641,0.52112 -1.11169,0 -1.11168,0 -0.20847,-0.13463 c -0.11462,-0.074 -0.36775,-0.13351 -0.56023,-0.13461 l -0.3517,-0.004 -0.50378,-0.34307 -0.50807,-0.34306 -0.41257,-0.73391 c -0.2263,-0.40297 -0.52311,-1.09926 -0.66008,-1.54596 l -0.24749,-0.81207 0.16064,-0.44729 0.165,-0.44729 0,-0.82509 0.008,-0.82509 0.31701,-0.55587 0.31266,-0.55584 z m -24.36642,0.0695 0.47767,0 0.47773,0 0.42556,0.22148 0.42557,0.22148 0.28225,-0.0738 0.28226,-0.0738 0.39088,0.19976 c 0.21375,0.11055 0.49515,0.19976 0.62532,0.19976 0.13017,0 0.55716,0.15313 0.94668,0.33873 l 0.70782,0.33872 0.56024,0.59928 c 0.31008,0.3303 0.74729,0.87081 0.96838,1.20291 l 0.40386,0.60362 -0.20846,0.36912 -0.20839,0.36912 -0.75564,0.51242 -0.75999,0.5081 -0.34742,0.0477 -0.34733,0.0435 -0.20847,0.42558 -0.20846,0.42123 -0.62532,0.55585 c -0.69947,0.62095 -1.23351,0.89024 -1.75878,0.89024 l -0.3517,0 -0.35612,-0.27794 -0.35176,-0.27792 -0.86855,0 -0.86419,0 -0.66871,0.69048 c -0.36818,0.37951 -0.72787,0.78821 -0.79474,0.9076 l -0.12154,0.21714 -0.0129,1.28974 -0.0129,1.28542 0.23443,0.3561 0.23452,0.35175 0.53418,0.16067 c 0.29439,0.0882 0.67193,0.16068 0.84242,0.16068 l 0.31274,0 0.40379,-0.23885 0.40387,-0.2345 0,-0.18239 0,-0.17804 -0.17371,-0.013 c -0.0954,-0.008 -0.3983,-0.003 -0.66871,0.009 l -0.49072,0.0216 -0.22146,-0.25188 -0.22152,-0.25187 -0.065,-0.74694 -0.0693,-0.74691 0.2475,-0.20845 c 0.48579,-0.41597 1.9043,-0.82914 3.32215,-0.96406 l 0.75556,-0.0695 0.32137,-0.21279 0.32137,-0.20844 0.28225,0.0738 0.28226,0.0738 0.44733,-0.14331 c 0.24508,-0.0796 0.79132,-0.19598 1.21153,-0.25621 0.42042,-0.0602 1.01562,-0.1512 1.32451,-0.2041 l 0.56022,-0.0956 0.37782,0.54283 0.37776,0.54282 0,0.38649 0,0.3865 -0.28655,0.36911 c -0.85376,1.10496 -1.06944,1.43904 -1.40272,2.18868 -0.49151,1.10576 -0.67306,1.72791 -0.67306,2.26683 l 0,0.4473 0.2258,0.72088 0.23017,0.72086 0.2866,0.32136 c 0.27648,0.30647 0.43648,0.41143 1.43741,0.94669 l 0.44725,0.23884 0.0783,0.2041 0.0782,0.19975 -0.15636,0.19108 c -0.20889,0.25168 -0.78889,0.53123 -2.26248,1.10303 l -1.22895,0.47768 -0.32136,0 -0.32572,0 -0.29525,-0.37346 -0.29531,-0.37781 -0.23452,0.16936 c -0.12939,0.0926 -0.36754,0.22196 -0.52548,0.29097 -0.15787,0.069 -0.53005,0.29183 -0.82942,0.49505 -0.29947,0.20322 -0.76478,0.46579 -1.03355,0.58191 -0.26862,0.11612 -0.70296,0.3038 -0.96403,0.41688 l -0.47338,0.20411 -1.12468,-0.0391 c -1.50899,-0.0547 -2.31015,-0.1636 -2.67505,-0.36479 -0.16707,-0.092 -0.4247,-0.16935 -0.57322,-0.16935 l -0.27362,0 -0.17371,-0.2128 -0.17805,-0.21279 0.317,-0.72521 c 0.17556,-0.39841 0.40102,-0.90719 0.49943,-1.13342 l 0.17806,-0.41255 -0.0478,-1.21158 -0.0478,-1.2116 -0.17806,-0.52979 -0.18234,-0.53415 -0.57758,-0.79903 -0.57757,-0.80338 -0.57322,-0.41256 c -0.31474,-0.22802 -0.63845,-0.41689 -0.72089,-0.41689 -0.0826,0 -0.23836,-0.0821 -0.34305,-0.18673 l -0.19105,-0.19107 -1.34627,-0.004 -1.34621,-0.004 -0.12154,-0.19107 -0.12595,-0.18673 0.0606,-0.7643 c 0.0328,-0.42036 0.12096,-1.08762 0.19975,-1.48516 l 0.14331,-0.72522 0.51242,-1.01183 c 0.28126,-0.55783 0.70104,-1.39138 0.93363,-1.84995 0.2328,-0.45859 0.64173,-1.13427 0.90765,-1.50255 l 0.48201,-0.66876 0.76428,-0.5819 c 0.41934,-0.31959 0.87738,-0.64635 1.02054,-0.72957 0.14317,-0.0832 0.36947,-0.25301 0.50371,-0.37346 l 0.24758,-0.21713 1.04217,-0.38649 1.04224,-0.38649 0.76428,-0.009 0.76434,-0.009 0.035,0.48636 c 0.02,0.26751 0.13974,0.8303 0.26919,1.25067 l 0.23451,0.7643 0.33008,0.45163 0.32565,0.45163 0.1954,0 c 0.10685,0 0.48752,0.15633 0.84685,0.34741 0.65587,0.34875 1.02762,0.43734 1.02484,0.24319 0,-0.0573 -0.3108,-0.32309 -0.69048,-0.5906 l -0.69048,-0.48637 -0.3517,-0.57757 -0.34742,-0.58191 0,-0.54716 0,-0.54283 -0.16071,-0.46031 -0.16065,-0.46033 0.31266,-0.25621 0.31701,-0.25621 z m 23.28507,0.56021 0.0692,0.17805 0.0693,0.17804 -0.1867,0.25187 -0.18677,0.25621 0.008,2.08879 0,2.0888 0.49508,0.9163 c 0.2734,0.50424 0.5688,1.00221 0.65136,1.10736 0.0828,0.10511 0.59435,0.40219 1.13775,0.66007 l 0.98578,0.46901 0.61234,0 c 0.33728,-0.002 0.86683,-0.0723 1.17249,-0.15199 0.30574,-0.0797 0.77469,-0.18957 1.04217,-0.24754 0.26764,-0.0579 0.62611,-0.18051 0.7991,-0.27358 l 0.31702,-0.16936 0.49072,0.0912 0.495,0.0911 0.33443,0.75562 0.33436,0.75995 0.16935,0.81207 0.165,0.81641 -0.16935,0.66877 c -0.0937,0.36858 -0.25614,1.07522 -0.36041,1.57202 -0.10425,0.49679 -0.2535,1.14162 -0.33007,1.43306 l -0.13895,0.5298 -0.35605,0.54717 c -0.19804,0.29925 -0.36276,0.59242 -0.36483,0.65139 0,0.0589 -0.1949,0.32308 -0.42557,0.59059 -0.23066,0.26751 -0.66807,0.81467 -0.97273,1.21594 l -0.55152,0.72955 -0.42992,0 -0.42556,0 -0.36912,-0.3865 c -0.20254,-0.21294 -0.60369,-0.52561 -0.89459,-0.69482 l -0.52983,-0.30832 -0.99878,0.004 -0.99878,0.004 -0.28227,0.23883 c -0.15451,0.13121 -0.42027,0.43636 -0.59063,0.67745 l -0.3083,0.4386 0,0.8251 0,0.82509 0.25185,0.23016 0.25621,0.23016 0.0912,-0.0911 0.0956,-0.0912 0.009,-0.70783 0.009,-0.70784 0.24321,-0.4169 0.24751,-0.41689 0.52983,-0.36043 0.53411,-0.36479 0.53847,0.22582 0.54282,0.22147 0.75563,0.79035 c 0.41665,0.43381 0.75998,0.85043 0.75998,0.92498 l 0,0.13463 -0.45168,0.28227 c -0.24828,0.15599 -0.79545,0.53684 -1.21588,0.84246 -0.86183,0.62666 -1.72536,1.12474 -1.94118,1.12474 l -0.14331,0 0,-0.21714 c 0,-0.11966 -0.0657,-0.33704 -0.1433,-0.48202 l -0.13896,-0.26056 -0.20847,0.0782 -0.2041,0.0782 0,0.16936 0,0.16501 -0.53411,0.2345 c -0.29318,0.12937 -0.67014,0.23452 -0.83814,0.23452 -0.16779,0 -0.52898,0.0937 -0.80338,0.20844 l -0.49935,0.20844 -0.43428,0 -0.43426,-0.004 -0.20848,-0.13461 c -0.11453,-0.074 -0.3723,-0.13351 -0.57321,-0.13463 -0.61811,-0.003 -1.90158,-0.57918 -3.31772,-1.48517 l -0.90329,-0.57756 -0.64273,-0.6731 -0.63832,-0.67311 -0.42556,-0.7643 c -0.23451,-0.42036 -0.56666,-1.12822 -0.73395,-1.57637 l -0.30394,-0.81641 0.0564,-1.26804 0.0564,-1.27238 -0.56023,-0.27793 -0.56016,-0.27792 0.009,-0.65139 0.009,-0.65574 0.14766,-0.31702 c 0.0821,-0.1749 0.22552,-0.60275 0.31701,-0.94669 0.44668,-1.6793 0.60498,-2.19009 0.81645,-2.63162 l 0.23014,-0.47768 0.45597,-0.11725 0.45597,-0.11725 0.79467,0.43426 c 0.96611,0.52886 1.13446,0.66451 1.29411,1.0292 0.0685,0.156 0.17849,0.37607 0.24321,0.49071 0.065,0.11466 0.19213,0.35772 0.28662,0.53848 l 0.1737,0.33005 -0.008,0.79903 -0.008,0.7947 -0.36048,0.75127 -0.3604,0.74694 -0.72088,0.33871 -0.71653,0.33873 0.36041,0.12159 0.36047,0.11725 0.52548,-0.35175 c 0.28668,-0.19458 0.55959,-0.3561 0.6079,-0.3561 0.0485,0 0.20012,-0.23449 0.33879,-0.5211 0.13866,-0.28663 0.33914,-0.69557 0.44725,-0.91195 l 0.19976,-0.39518 0,-0.82944 0,-0.83378 -0.13895,-0.25187 c -0.0744,-0.13908 -0.1665,-0.52703 -0.20847,-0.85984 l -0.0782,-0.60362 -0.70782,-0.71653 -0.70789,-0.71653 -0.39951,-0.0825 -0.39951,-0.0782 0,-0.33004 0,-0.33005 0.2779,-0.25186 c 0.153,-0.13834 0.27797,-0.31439 0.27797,-0.39084 0,-0.0764 0.32836,-0.47644 0.72952,-0.89023 l 0.72959,-0.75128 0.50371,-0.26055 0.50378,-0.26489 0.0825,-0.21715 0.0825,-0.21278 0.38652,-0.16501 c 0.21232,-0.0906 0.48038,-0.24009 0.59493,-0.33004 0.39565,-0.31036 1.58213,-0.9162 2.28417,-1.16816 l 0.70354,-0.25188 0.99007,-0.0825 0.99451,-0.0825 z m -2.80531,8.47242 -0.63838,0.67745 -0.63402,0.67744 0.0564,1.09 0.0521,1.08999 0.21281,0.3257 0.21282,0.32569 0.4342,0.19109 0.42992,0.18673 1.13781,0.013 1.13773,0.009 0.35177,-0.31267 0.34742,-0.31266 0.28225,-0.7339 0.28662,-0.73391 0,-0.4082 0,-0.41254 -0.42992,-0.69916 -0.43428,-0.69916 -0.25185,-0.13463 -0.25621,-0.13897 -1.15079,0 -1.14644,0 z m -11.72507,1.60677 0.33008,0.41254 0.33001,0.41255 0.008,0.30399 0,0.30832 0.13895,0.0825 0.13895,0.0868 0,0.23451 c 0,0.12923 0.0943,0.4151 0.20847,0.63401 l 0.20839,0.39952 0.008,0.57322 0.008,0.57323 0.19977,0.34741 0.19539,0.34741 0.008,0.77733 0.009,0.77732 -0.2562,0.23016 -0.25621,0.23016 -0.1954,-0.009 c -0.26377,-0.0126 -1.13025,-0.3871 -2.08878,-0.90326 l -0.36047,-0.19542 -0.38646,-0.58192 -0.38652,-0.58189 0.39087,-1.53729 0.39081,-1.54163 0.29097,-0.5515 0.28661,-0.55153 0.39516,-0.13895 0.39951,-0.13897 z m 28.23131,1.58938 1.44612,0 1.44605,0 0.48207,0.48638 0.48203,0.48204 -0.0868,0.1433 -0.0868,0.13897 0.22581,0 0.23016,0 0.41685,0.42123 0.42128,0.42123 -0.0478,1.09868 -0.0521,1.09434 -0.10855,0.1129 -0.10855,0.10857 -0.55153,-0.0216 -0.54717,-0.0217 0,0.12593 c 0,0.0697 0.12511,0.19178 0.27791,0.27358 l 0.27797,0.152 0,0.25621 0,0.25621 -0.45169,0.6818 c -0.57079,0.86125 -0.71823,1.09764 -1.08128,1.76742 l -0.29096,0.54284 0.18241,0.11725 0.18234,0.11725 0.20847,-0.0999 c 0.11468,-0.0533 0.68719,-0.11959 1.27676,-0.14765 l 1.07257,-0.0477 0.0693,0.32135 c 0.11919,0.57294 0.23702,1.28039 0.30831,1.84996 l 0.0692,0.55585 -0.1954,0.26056 -0.19113,0.26056 -0.54717,0.2041 c -0.3001,0.1123 -0.79288,0.25784 -1.09863,0.32134 -0.71537,0.14863 -2.28082,0.51911 -2.65771,0.62969 l -0.29096,0.0825 -0.23451,-0.2345 -0.23444,-0.23452 -0.24758,0.22583 -0.2475,0.22147 -0.24322,0 c -0.13275,0 -0.34891,0.0552 -0.47766,0.12159 -0.12874,0.0664 -0.44897,0.15827 -0.71653,0.20411 l -0.48637,0.0825 -0.24321,-0.13897 -0.24315,-0.14331 0,-0.29528 c 0,-0.51798 0.65379,-2.45101 0.94233,-2.78362 l 0.20847,-0.24319 0.32564,0 0.32137,0 0.56024,0.75996 c 0.30808,0.4171 0.56415,0.8392 0.57322,0.93799 0.01,0.0988 0.06,-0.01 0.1129,-0.23883 l 0.0955,-0.41689 -0.10855,-0.4082 -0.10855,-0.40821 -0.42557,-0.38216 c -0.23194,-0.21182 -0.51606,-0.44203 -0.63402,-0.50808 l -0.21282,-0.11725 0.0956,-0.38649 0.0956,-0.38649 0.53847,-0.56453 c 0.2956,-0.31072 0.53845,-0.58326 0.53845,-0.60798 0,-0.0247 0.28334,-0.56262 0.63403,-1.19422 l 0.63838,-1.15079 0.008,-0.48202 0,-0.4777 -0.36911,-0.32135 -0.36911,-0.317 -0.68612,0 -0.68613,0 0,-0.22148 c 0,-0.12196 -0.10771,-0.40335 -0.23886,-0.62534 l -0.23888,-0.40385 -0.41685,0 -0.42127,0 0.34305,0.23884 c 0.45333,0.31016 0.5496,0.4568 0.55153,0.87286 l 0,0.34741 -0.27355,0.45164 -0.27362,0.45163 -0.28226,0 -0.27791,0 -0.69918,-0.72522 -0.69912,-0.72521 0.0393,-0.19977 0.0393,-0.19976 0.41686,-0.24753 0.41692,-0.24318 0.32138,-0.009 0.32565,-0.013 -0.0868,-0.39952 -0.0911,-0.39517 0.50378,-0.29964 0.49942,-0.2953 0.30396,-0.004 0.30831,-0.004 0.26927,-0.2041 0.26919,-0.2041 z m -45.28471,0.34743 0.82507,0.40819 0.82942,0.40822 0.46904,0.46465 0.46467,0.46901 0.26491,0.59927 0.26492,0.59928 -0.0693,1.28107 -0.0692,1.28107 -0.23015,0.37347 c -0.1259,0.20449 -0.60598,0.75995 -1.06823,1.23763 l -0.84249,0.86853 -0.34741,0 -0.35177,0 -0.70347,-0.66007 -0.70354,-0.66008 -0.46032,-1.04223 c -0.76534,-1.73063 -0.81173,-1.84627 -0.97709,-2.57951 l -0.16064,-0.70785 -0.0264,-0.99011 -0.0257,-0.98577 0.15629,-0.16067 0.16071,-0.16068 1.2984,-0.0217 1.3028,-0.0217 z m 53.844,32.19174 -0.26055,0.26056 -0.26057,0.26491 -0.20412,0.77732 c -0.11097,0.42894 -0.34484,1.05427 -0.52112,1.38964 l -0.32129,0.61231 0.0435,0.59493 0.0435,0.59495 -0.16943,0.20409 -0.16936,0.2041 -1.14643,0 -1.14645,0 -0.18669,-0.22581 -0.18677,-0.22148 0.26492,-0.19542 c 0.14544,-0.10641 0.33827,-0.19107 0.42555,-0.19107 0.0873,0 0.38853,-0.23218 0.66879,-0.51243 l 0.50806,-0.50808 0,-0.31701 0,-0.31701 -0.3083,-0.21279 -0.30831,-0.21713 -0.29531,0 -0.29533,0 -0.59055,0.42557 -0.5863,0.42559 -0.33435,0.72086 -0.33442,0.72088 -0.008,0.32135 c 0,0.177 0.065,0.43985 0.1433,0.58625 l 0.1433,0.26924 0.37782,0.20411 c 0.20825,0.11301 0.50293,0.20847 0.65572,0.21278 0.15294,0.004 0.8577,-0.12978 1.56773,-0.29964 l 1.2941,-0.30832 0.44291,0.2345 0.44726,0.2345 0.57757,0.0868 0.57758,0.0868 0.92064,-0.30831 0.92499,-0.30399 0.44297,0.20411 c 0.24529,0.11399 0.71011,0.25212 1.02919,0.30398 l 0.57757,0.0956 0.76863,-0.24319 0.76862,-0.24319 0.55588,0.24754 0.55152,0.25187 0.66872,-0.0999 c 0.36797,-0.0548 0.73502,-0.15456 0.81643,-0.22148 l 0.14766,-0.12158 0.75565,-0.0261 0.75556,-0.0261 0.67314,0.25186 0.67306,0.24753 0.60363,-0.29095 0.60361,-0.2953 0.13896,-0.25187 0.13467,-0.25622 -0.22153,-0.46031 -0.22145,-0.45598 -0.60362,-0.50374 -0.60362,-0.50375 0.0478,-0.14329 0.0478,-0.14331 0.53412,-0.0695 0.53418,-0.0695 0.0521,-0.16501 0.0564,-0.16503 -0.36484,-0.23885 -0.36475,-0.24318 -0.74258,0.2345 -0.73822,0.2345 -0.16935,0.20412 -0.16936,0.20409 0.0955,0.38215 0.0913,0.3865 0.61668,0.56887 0.61662,0.56889 0,0.24318 0,0.24753 -0.31266,-0.0695 c -0.17193,-0.0394 -0.51613,-0.1554 -0.76427,-0.25622 l -0.45169,-0.18238 -0.40386,0.23884 -0.4038,0.23884 -0.89894,0 -0.89895,0 -0.14766,-0.17805 -0.14766,-0.17804 0.0956,-0.15199 c 0.0528,-0.0824 0.29054,-0.2509 0.52983,-0.37347 l 0.4342,-0.22147 0.37353,-0.44294 0.36912,-0.43861 -0.0393,-0.29095 -0.0435,-0.28661 -0.35605,-0.19978 -0.35611,-0.19975 -0.40816,0.0999 -0.40822,0.10425 -0.55587,0.58191 -0.55588,0.5819 -0.26057,0.73391 -0.26048,0.7339 -0.33443,0.22147 -0.33871,0.22148 -0.53411,-0.16068 -0.52983,-0.16068 -0.16935,-0.19541 -0.16501,-0.19977 0.0478,-0.39082 0.0435,-0.39084 0.52113,-0.25622 0.52112,-0.25621 0,-0.17805 0,-0.18239 -0.36041,-0.0911 -0.36047,-0.0912 0.0781,-0.79469 c 0.0421,-0.43635 0.0953,-1.00681 0.11727,-1.27239 l 0.0393,-0.48638 -0.22582,-0.0434 -0.22579,-0.0434 -0.22581,0.22148 -0.22146,0.22582 -0.23022,0.79035 c -0.12511,0.43478 -0.37961,1.09139 -0.56453,1.45911 l -0.33434,0.66876 0.0825,0.25622 0.0825,0.2562 -0.0911,0.35611 -0.0912,0.36043 -0.45162,0.27793 -0.45596,0.28227 -0.29967,0 c -0.16671,0 -0.48337,-0.0946 -0.70346,-0.20845 l -0.39952,-0.20844 -0.0956,-0.28662 -0.0913,-0.29095 0.0826,-0.32136 0.0825,-0.32569 0.52105,-0.12159 0.52112,-0.12594 0.0393,-0.20411 0.0393,-0.20844 -0.43861,-0.16501 -0.44298,-0.16503 0.0826,-0.59493 c 0.0449,-0.32759 0.12646,-0.86209 0.17799,-1.18554 l 0.0913,-0.58625 -0.23886,-0.0911 -0.23444,-0.0912 z m -67.34084,0.013 -0.81644,0.0652 c -0.95397,0.0758 -1.80788,0.28298 -2.52733,0.62099 l -0.51249,0.24319 -0.0435,0.31267 -0.0435,0.31267 0.35177,0 0.35177,0 0.14331,-0.26924 0.1433,-0.26491 0.45161,-0.13897 c 0.24901,-0.0759 0.77519,-0.1745 1.17249,-0.22146 l 0.72523,-0.0868 0.59492,0.15199 0.59928,0.15198 0.43861,0.39519 c 0.24216,0.21762 0.50793,0.52294 0.59065,0.67744 l 0.15193,0.28227 0,0.69047 0,0.69482 -0.70782,0.77298 -0.70782,0.77734 -0.37782,0 -0.37782,0 -0.26926,-0.20411 c -0.14837,-0.11222 -0.36297,-0.20566 -0.47767,-0.20844 l -0.20845,-0.009 -0.43428,-0.40386 -0.42992,-0.40386 -0.26056,-0.0477 -0.2562,-0.0434 -0.0435,0.21713 -0.0435,0.21713 0.28233,0.36478 0.28661,0.36044 0.85548,0.42992 c 0.46938,0.23455 0.95996,0.42557 1.09435,0.42557 0.13424,0 0.53125,-0.12096 0.87717,-0.26924 l 0.62532,-0.26925 0.57757,-0.59493 0.57758,-0.59494 0.26492,-0.52111 0.26491,-0.52112 0,-0.48636 0,-0.48638 -0.22152,-0.45597 -0.22146,-0.45597 -0.57758,-0.42558 -0.57757,-0.42991 -0.64266,-0.17372 -0.64273,-0.17804 z m 45.05893,0.13462 -0.59493,0.16068 -0.59927,0.16067 -0.53418,0.55151 -0.53412,0.55152 -0.29967,0.63401 c -0.16385,0.34852 -0.3315,0.80208 -0.37345,1.01183 l -0.0738,0.38216 0.38209,0.45597 0.38217,0.45163 0.33008,-0.0608 0.33,-0.0652 0.12597,0.23885 0.12589,0.23883 -0.1346,1.33753 -0.13895,1.34186 -0.35613,0.7035 -0.35169,0.70785 -0.20847,0.0782 -0.21282,0.0825 -0.47331,-0.23016 -0.47772,-0.22582 -0.13461,-0.35609 c -0.0747,-0.19645 -0.13895,-0.50033 -0.13895,-0.67311 l 0,-0.31267 0.34742,-0.32569 c 0.19105,-0.17951 0.34742,-0.37985 0.34742,-0.44295 l 0,-0.11291 -0.22588,0 -0.22146,0 -0.54282,0.53849 -0.53846,0.53848 0,0.39953 0,0.39952 0.27355,0.44293 0.26927,0.4473 0.52983,0.27793 c 0.28982,0.15296 0.56202,0.27892 0.60791,0.28226 0.24557,0.0181 1.07557,-0.34864 1.36361,-0.60362 l 0.33,-0.29096 0.33443,-0.74693 0.33435,-0.74692 0.19976,-0.96406 0.20411,-0.96406 0,-1.09 0,-1.08564 -0.19975,-0.0782 -0.19976,-0.0782 -0.35612,0.28227 -0.35605,0.27793 -0.22581,-0.0434 -0.23016,-0.0435 -0.10425,-0.29096 -0.10855,-0.29095 0.41257,-0.82075 0.41252,-0.82076 0.2866,-0.24318 0.28226,-0.24319 0.26926,0 0.26492,0 0.0825,0.21279 0.0825,0.21279 -0.22581,0.24752 -0.2258,0.25188 0,0.23016 0,0.23449 0.22145,0 0.21717,0 0.41686,-0.41689 0.41258,-0.41254 -0.0435,-0.52112 -0.0435,-0.5211 -0.34741,-0.1216 -0.34742,-0.12159 z m -11.33419,0.1824 -0.19549,0.0738 -0.19103,0.0738 -0.22146,0.54718 c -0.12062,0.30138 -0.21717,0.70409 -0.21717,0.89458 l 0,0.34741 -0.73823,0.32569 -0.74257,0.3257 -0.29968,0.51243 -0.30395,0.51243 -0.0868,0.55585 -0.0911,0.5602 0.18241,0.33872 0.18235,0.33872 0.26055,0 c 0.32722,0 0.97303,-0.32915 1.21161,-0.61665 l 0.18242,-0.21713 0.26491,0 0.26484,0 0.0783,0.19976 0.0738,0.19542 0.42556,0.15199 0.42991,0.14765 0.77734,0.009 0.77732,0.009 0.27791,0.12159 c 0.15294,0.0657 0.31794,0.12051 0.36483,0.12593 0.13488,0.0155 1.5017,-0.25446 2.08878,-0.41254 l 0.5341,-0.14331 0,-0.2041 0,-0.19977 -0.24315,-0.009 c -0.13374,-0.004 -0.68091,-0.0202 -1.21595,-0.0348 l -0.97273,-0.0261 -0.0435,-0.29963 -0.0393,-0.2953 0.38653,-0.13896 0.39081,-0.13463 0.45161,-0.43859 0.45161,-0.43428 0,-0.33002 0,-0.3257 -0.17371,-0.13896 c -0.0954,-0.0748 -0.31915,-0.1729 -0.49935,-0.21714 l -0.33008,-0.0782 -0.29525,0.1216 c -0.16378,0.0661 -0.5057,0.29768 -0.75562,0.51677 l -0.45162,0.39952 -0.26057,0.68613 -0.26056,0.69048 -0.35612,0.0434 -0.35176,0.0435 -0.2388,-0.46032 -0.23886,-0.46033 -0.0129,-1.45911 -0.0129,-1.45912 -0.10854,-0.16936 -0.10856,-0.16501 z m 24.55739,0.0564 -0.25185,0.45596 -0.25621,0.46032 -0.0825,1.18554 -0.0782,1.18119 -0.20411,0.48203 -0.19976,0.48637 -0.20412,0.0782 -0.2041,0.0782 -0.33872,-0.0868 -0.33877,-0.0825 -0.0738,-0.24318 c -0.0399,-0.13357 -0.10273,-0.41885 -0.13895,-0.62968 -0.0364,-0.21083 -0.1036,-0.50787 -0.15201,-0.66007 l -0.0868,-0.27359 -0.31702,0 -0.31701,0 -0.25185,0.27793 -0.25186,0.27792 -0.2258,0 -0.22581,0 -0.15636,-0.41689 -0.1563,-0.41688 -0.24758,0 -0.24749,0 -0.64274,0.69482 c -0.35313,0.38214 -0.68555,0.6948 -0.73822,0.6948 l -0.0956,0 0,-0.39083 0,-0.38649 -0.165,-0.16936 c -0.0918,-0.0917 -0.24443,-0.16502 -0.3387,-0.16502 l -0.17371,0 -0.0692,0.24319 c -0.0385,0.13375 -0.13753,0.50895 -0.22146,0.83378 l -0.15201,0.5906 -0.68178,0 -0.67741,0 -0.27362,-0.34741 -0.27355,-0.34741 -0.0956,-0.52112 -0.0956,-0.52112 -0.29096,-0.31266 -0.29089,-0.31266 -0.36483,0 -0.36476,0 -0.43427,0.45162 c -0.52676,0.55066 -0.95639,1.36497 -1.1291,2.14526 l -0.13024,0.58624 0.23886,0.2128 c 0.13074,0.11837 0.33457,0.21712 0.45162,0.21712 l 0.21274,0 0.60798,-0.48202 0.60798,-0.48203 0.35611,0.34306 0.35606,0.34307 1.12039,0 1.11611,0 0.25185,0.27792 c 0.13832,0.15287 0.32017,0.27654 0.40387,0.27793 l 0.15194,0.004 0.59499,-0.66442 0.59491,-0.66007 0.26057,0.31267 0.26057,0.31266 0.16934,0 c 0.0931,0 0.41323,-0.22061 0.71219,-0.4907 l 0.54717,-0.49072 0.1129,0.0695 c 0.0635,0.0392 0.15358,0.25989 0.19976,0.49072 l 0.0825,0.42123 0.45597,0.27792 c 0.25034,0.15261 0.56315,0.27793 0.69483,0.27793 0.13173,2.8e-4 0.52133,-0.13741 0.86418,-0.30398 l 0.62097,-0.30399 0.48636,0.26057 0.48643,0.26055 0.35606,-0.19108 0.35613,-0.19107 0.48636,-0.72956 0.48637,-0.72956 0.30831,-0.0956 c 0.1712,-0.051 0.4564,-0.18166 0.62967,-0.29095 l 0.31266,-0.19542 -0.14766,-0.27358 -0.14323,-0.2736 -0.23452,0 c -0.12852,0 -0.50064,0.10187 -0.82514,0.22582 l -0.59057,0.22582 -0.16065,0.50374 c -0.0904,0.27733 -0.23509,0.54632 -0.31708,0.59929 l -0.14758,0.0956 -0.17807,-0.14765 -0.17807,-0.14765 0,-0.39952 0,-0.39519 0.20847,-0.52544 0.21275,-0.52547 0.0306,-0.97274 0.035,-0.9684 -0.40386,0 -0.40822,0 z m -35.80915,0.0391 -0.19105,0.15633 -0.19105,0.16067 -0.0913,0.51677 c -0.05,0.28389 -0.12532,0.62493 -0.165,0.75996 l -0.0738,0.24752 -0.57757,0.29096 c -0.77462,0.38937 -1.04525,0.64054 -1.3766,1.28975 l -0.2779,0.54717 0.0738,0.55151 0.0738,0.55152 0.18669,0.11725 c 0.10133,0.0642 0.3163,0.11586 0.47774,0.11725 l 0.29095,0.004 0.52542,-0.41689 c 0.28853,-0.22929 0.58613,-0.4169 0.66007,-0.4169 0.074,0 0.32008,0.15634 0.54718,0.34741 l 0.41257,0.34741 0.92499,0.009 c 0.50999,0.004 1.17949,0.0584 1.48515,0.1216 0.30574,0.0632 0.58714,0.117 0.62532,0.12159 0.0385,0.004 0.50728,-0.0997 1.04225,-0.23451 l 0.97273,-0.24752 0.0435,-0.23015 0.0478,-0.23451 -1.16387,0 -1.16378,0 -0.16935,-0.16936 c -0.0918,-0.0917 -0.16507,-0.21717 -0.16507,-0.27793 0,-0.0607 0.28105,-0.24197 0.62538,-0.40385 l 0.62533,-0.2953 0.34741,-0.40821 c 0.19062,-0.2265 0.34542,-0.48789 0.34306,-0.57756 0,-0.0896 -0.0845,-0.26651 -0.18241,-0.39518 l -0.17807,-0.2345 -0.37774,-0.0956 -0.37346,-0.0955 -0.42564,0.17804 -0.42121,0.17371 -0.46467,0.60361 -0.46032,0.60797 -0.0912,0.48202 -0.0868,0.4777 -0.13902,0.0868 -0.1346,0.0825 -0.28661,-0.0912 -0.29096,-0.0911 -0.19541,-0.469 -0.1954,-0.469 0,-1.4678 0,-1.4678 -0.20846,-0.0825 -0.21282,-0.0782 z m -16.81891,0.0304 -0.0782,0.20844 -0.0825,0.20845 0.0825,0.20845 0.0782,0.20844 0.32572,0 0.32137,0 0.16064,-0.16067 0.16065,-0.16069 -0.13895,-0.25621 -0.1346,-0.25621 -0.34742,0 -0.34741,0 z m 8.94146,1.22895 -0.65144,0.56455 -0.65572,0.56888 -0.17371,0 -0.17798,0 -0.32573,-0.34741 -0.32572,-0.34741 -0.2258,0 c -0.12425,0 -0.30346,0.0733 -0.39516,0.16502 l -0.16501,0.16936 0,0.27359 0,0.27793 0.36477,0.52979 0.36475,0.52546 -0.29532,0.68613 c -0.16257,0.3781 -0.29524,0.78802 -0.29524,0.9076 l 0,0.21714 0.19105,0 0.18676,0 0.36912,-0.55586 c 0.20232,-0.30572 0.41686,-0.55585 0.47765,-0.55585 0.0606,0 0.23374,0.0919 0.38217,0.2041 l 0.26921,0.2041 0.29967,0.004 c 0.16571,0.002 0.40022,-0.0362 0.52112,-0.0825 l 0.22145,-0.0825 0,-0.30398 0,-0.29964 -0.41685,-0.36479 -0.41693,-0.36477 0,-0.28227 0,-0.27794 0.39951,-0.32135 c 0.21911,-0.17875 0.51613,-0.39831 0.66008,-0.48636 l 0.26056,-0.16069 -0.22145,-0.23015 -0.22581,-0.23449 z m -14.9473,0.16068 -0.32565,0.38215 -0.33007,0.38215 0,0.84247 0,0.84681 0.0911,0.0912 c 0.0507,0.051 0.20239,0.0956 0.33435,0.0956 l 0.23888,0 0.10414,-0.24319 c 0.0572,-0.13375 0.15451,-0.52458 0.21718,-0.86852 0.0628,-0.34393 0.15422,-0.82857 0.2041,-1.07697 l 0.0913,-0.45162 -0.31274,0 -0.31266,0 z m 17.16632,0.23016 -0.62097,0.17371 -0.62532,0.1737 -0.36475,0.34306 c -0.20204,0.1873 -0.36918,0.40001 -0.36918,0.47336 l 0,0.13461 0.24322,-0.004 c 0.13381,-0.002 0.36405,-0.0962 0.51241,-0.20844 l 0.26927,-0.20411 0.2692,0 0.26492,0 -0.0913,0.52111 c -0.0499,0.28662 -0.11925,0.77124 -0.1563,1.07697 l -0.0693,0.55586 0.13467,0.20409 0.1346,0.19976 0.56451,-0.0216 0.56452,-0.0217 0.13902,0.26057 0.13895,0.26489 0,0.97275 0,0.97274 -0.33443,0.38649 -0.33,0.3865 -0.34742,-0.18674 -0.34741,-0.1824 -0.17806,-0.33437 -0.17799,-0.33005 -0.25193,0 -0.2562,0 0,0.42993 0,0.42991 0.42991,0.40387 0.43427,0.40386 0.43862,0 0.44298,0 0.29524,-0.20844 0.29097,-0.2041 0.34306,-0.59494 0.34306,-0.5906 0.165,-0.86851 0.16507,-0.86419 -0.24322,-1.04222 -0.24314,-1.03788 -0.16943,-0.0652 -0.1737,-0.0695 -0.343,0.27358 c -0.1889,0.14859 -0.41656,0.26924 -0.50813,0.26924 l -0.16936,0 0.0913,-0.5906 c 0.0485,-0.32482 0.10025,-0.77027 0.11725,-0.99011 l 0.0308,-0.39951 -0.2258,-0.14766 -0.22588,-0.14331 z m -6.74835,0.0477 -0.36047,0.004 -0.3604,0.004 -0.75999,0.51678 -0.75992,0.51677 -0.26491,0.79904 -0.26928,0.80339 -0.31266,0.0782 -0.31701,0.0782 -0.32571,-0.17371 c -0.17907,-0.0954 -0.39917,-0.26955 -0.49066,-0.39083 l -0.16942,-0.22147 0.0257,-0.5906 0.0221,-0.58626 -0.14766,-0.14764 -0.14331,-0.14331 -0.21283,0.0782 -0.21274,0.0825 -0.65572,1.03355 -0.65579,1.03788 -0.1259,0 -0.13031,0 0,0.27793 0,0.27793 0.0956,0 c 0.0522,0 0.29254,-0.0718 0.53847,-0.16068 l 0.44733,-0.16502 0.49072,0.23451 0.48637,0.23015 0.39515,0 0.39516,0 0.66008,-0.2345 0.66008,-0.23884 0.17371,0.21713 c 0.0958,0.12014 0.29881,0.29047 0.4516,0.37346 l 0,-0.004 0.27799,0.15199 0.2779,-0.0738 c 0.15286,-0.0412 0.52811,-0.2421 0.83378,-0.44729 l 0.55581,-0.37346 0.29967,-0.5906 0.29532,-0.58625 -0.1433,-0.59059 -0.14331,-0.59059 -0.21282,-0.24319 -0.2084,-0.2432 z m 53.40539,0.81642 0,0.14764 0,0.14765 -0.13902,0 c -0.0763,0 -0.13895,-0.0271 -0.13895,-0.0608 0,-0.0337 0.0628,-0.10046 0.13895,-0.14765 l 0.13902,-0.0868 z m -37.65913,0.0173 c 0.0765,0 0.13896,0.0626 0.13896,0.13895 0,0.0764 -0.0628,0.13898 -0.13896,0.13898 -0.0763,0 -0.13896,-0.0626 -0.13896,-0.13898 0,-0.0764 0.0628,-0.13895 0.13896,-0.13895 z m 10.83918,0 0.22146,0 0.2171,0 -0.0522,0.16501 c -0.03,0.0907 -0.13074,0.18688 -0.22145,0.21713 l -0.165,0.0564 0,-0.22148 0,-0.21713 z m 38.07599,0 0.13896,0 c 0.0764,0 0.13895,0.0271 0.13895,0.0607 0,0.0337 -0.0628,0.10035 -0.13895,0.14764 l -0.13896,0.0868 0,-0.14764 0,-0.14765 z m -65.45181,0.14764 c 0.14109,-0.0108 0.27526,0.0407 0.39087,0.15635 l 0.165,0.16935 0,0.43426 0,0.4386 -0.2562,0.23016 c -0.13981,0.12649 -0.29611,0.23016 -0.34741,0.23016 -0.0514,0 -0.21625,-0.12507 -0.36919,-0.27793 l -0.27791,-0.27792 0,-0.32569 0,-0.32571 0.25621,-0.23016 c 0.15009,-0.13578 0.2976,-0.21072 0.43863,-0.22147 z m 22.94635,0.22582 0.22581,0.22581 0.23016,0.23016 -0.13461,0.36913 -0.1303,0.36477 -0.27791,0.1737 -0.27792,0.17371 -0.1737,-0.0652 -0.17371,-0.0652 0,-0.469 0,-0.47335 0.35605,-0.23015 0.35613,-0.2345 z m 14.98633,0.0261 0.14331,0.0868 0.13895,0.0868 0,0.25622 0,0.26056 -0.2171,0.21712 c -0.24564,0.24559 -0.55874,0.28599 -0.68178,0.0868 l -0.0825,-0.13028 0.0868,-0.35175 0.0868,-0.34741 0.26492,-0.0825 0.26056,-0.0825 z m -26.24238,0.13028 c 0.26691,-0.004 0.48024,0.071 0.56016,0.19977 l 0.0911,0.14764 -0.0782,0.22147 c -0.0428,0.12158 -0.17178,0.33091 -0.28661,0.46465 l -0.20847,0.24321 -0.31266,0 -0.30831,0 -0.0825,-0.21715 -0.0868,-0.21713 0.21276,-0.4082 0.2128,-0.40821 0.16937,-0.0173 c 0.0399,-0.003 0.0791,-0.008 0.11725,-0.009 z m 15.39456,8.19884 -0.20411,0.16937 c -0.11104,0.0921 -0.19976,0.22927 -0.19976,0.30398 0,0.0747 0.21347,0.34811 0.47331,0.60796 l 0.47338,0.47335 0.35177,0 0.3517,0 0.0868,-0.13897 0.0868,-0.13896 -0.46026,-0.55585 -0.46038,-0.55585 -0.25187,-0.0825 -0.2475,-0.0825 z m 25.00037,0.28662 -0.36911,0.0435 -0.36911,0.0433 -0.18241,1.04223 c -0.1009,0.57323 -0.27734,1.57376 -0.39081,2.22341 l -0.20411,1.1812 -0.1867,0.18239 -0.18242,0.18672 -1.14208,0.0782 -1.14216,0.0782 -0.12589,-0.19107 -0.12161,-0.19542 -0.008,-0.44294 0,-0.44295 0.23016,-0.22581 0.23015,-0.23016 0.22145,0.0652 c 0.12233,0.0355 0.32344,0.105 0.44727,0.15633 l 0.2258,0.0912 0.21717,-0.21715 0.22146,-0.22147 -0.11291,-0.30832 -0.11291,-0.30833 -0.36475,-0.13028 -0.36476,-0.13028 -0.52548,0.4169 -0.52112,0.41254 -0.31266,0.61232 -0.31266,0.6123 0,0.44729 0,0.44729 0.37782,0.29964 0.3821,0.29964 0.76435,-0.0652 0.76861,-0.0608 0.66008,-0.24318 0.66007,-0.24319 0.34307,0.22582 0.34306,0.2258 0.31701,-0.004 c 0.17464,-0.001 0.55567,-0.0854 0.84684,-0.18673 l 0.52977,-0.18239 0.72088,0.11724 0.72088,0.11726 0.62531,-0.0911 c 0.344,-0.0487 0.77192,-0.14158 0.95105,-0.20843 l 0.32572,-0.12161 0.70782,0.20846 0.70782,0.21278 0.56894,0 0.56886,0 0.51243,-0.26055 0.50806,-0.26056 0.3083,0.21278 0.30403,0.21713 0.98579,-0.0173 c 0.54197,-0.008 1.32971,-0.006 1.75,0 0.42043,0.006 1.14437,0.018 1.61112,0.0217 l 0.85119,0.004 0.37782,-0.24752 0.3821,-0.24753 -0.0955,-0.0956 -0.0913,-0.0912 -0.90328,-0.0173 -0.90323,-0.0173 -0.16072,-0.1737 -0.165,-0.16937 0.26491,-0.16068 c 0.14553,-0.0876 0.46882,-0.33226 0.72089,-0.54716 l 0.46032,-0.39084 0.0868,-0.27792 0.0868,-0.27358 -0.16508,-0.20411 -0.16935,-0.19976 -0.4646,0 -0.46467,0 -0.50813,0.44729 -0.50807,0.44728 -0.2692,0.62969 c -0.14859,0.34651 -0.36975,0.7391 -0.49072,0.87286 l -0.22152,0.24318 -0.36476,0 -0.36476,0 -0.30838,-0.21712 -0.3083,-0.21714 0,-0.33873 0,-0.33871 0.26056,-0.26056 c 0.14331,-0.14331 0.34656,-0.29189 0.45161,-0.33004 l 0.19112,-0.0695 -0.31265,-0.29964 -0.31273,-0.30399 0,-0.37781 c 0,-0.20771 0.0564,-0.57376 0.12596,-0.81641 l 0.12595,-0.44294 -0.1737,-0.23885 -0.17371,-0.23884 -0.29096,0.29096 -0.29097,0.29095 -0.15636,0.59929 c -0.0862,0.3292 -0.28411,0.83865 -0.43855,1.13341 l -0.28226,0.53848 0.0868,0.46467 0.0868,0.46465 -0.27363,0.27793 -0.27354,0.27358 -0.47773,0.0912 -0.47766,0.0868 -0.43427,-0.22146 -0.43427,-0.22582 0,-0.39084 0,-0.39082 0.48637,-0.26491 c 0.26755,-0.14405 0.48636,-0.28583 0.48636,-0.31702 0,-0.0312 -0.15628,-0.20072 -0.34742,-0.37779 l -0.34741,-0.32136 0,-0.30398 c 0,-0.16675 0.0747,-0.54968 0.16507,-0.85115 l 0.165,-0.54716 -0.19105,-0.12161 -0.19547,-0.11725 -0.23444,0.12594 -0.23452,0.12594 -0.30837,1.00748 c -0.16793,0.55303 -0.38688,1.12174 -0.48637,1.26369 l -0.17799,0.25622 0.0606,0.51242 0.0606,0.51244 -0.1129,0.16068 -0.10856,0.15633 -0.9033,0.0652 -0.90322,0.0608 -0.24321,-0.12161 -0.2475,-0.12593 0.14765,-0.27359 0.14331,-0.26924 0.2171,0 0.21281,0 0.40387,-0.4082 0.40822,-0.40387 0,-0.36477 0,-0.36045 -0.36911,-0.13895 -0.36912,-0.13897 -0.36047,0.11725 -0.36047,0.12159 -0.45161,0.5906 -0.45161,0.5906 -0.0868,0.36911 c -0.0471,0.20419 -0.17491,0.51417 -0.28226,0.68614 l -0.1954,0.31266 -0.40822,0 -0.41257,0 -0.0868,-0.34741 -0.0868,-0.3474 0.0738,-0.52111 c 0.0407,-0.28737 0.2024,-1.14768 0.36041,-1.91076 l 0.29096,-1.38528 -0.0825,-0.25622 -0.0825,-0.25188 z m -63.62788,0.57323 -0.41258,0.89023 c -0.22681,0.49005 -0.41251,0.95401 -0.41251,1.02919 0,0.0751 -0.19119,0.58686 -0.42556,1.13777 l -0.42563,0.99879 0.0782,0.20845 0.0825,0.20844 0.2388,-0.0911 c 0.13317,-0.0515 0.40594,-0.12509 0.60362,-0.16501 l 0.36048,-0.0738 0.40386,0.36478 0.40388,0.36479 0.90322,-0.0782 c 0.49685,-0.0444 1.09563,-0.1513 1.32885,-0.23449 l 0.42121,-0.152 0.43863,0.23017 0.43862,0.22581 0.3604,0 0.36048,0 0.42992,-0.22581 0.42991,-0.22148 -0.19112,-0.1216 c -0.10663,-0.0675 -0.29211,-0.12453 -0.41251,-0.12593 l -0.22144,0 -0.30839,-0.33004 -0.3083,-0.33003 0.0913,-0.36913 0.0911,-0.36478 -0.16942,-0.20845 c -0.0943,-0.11365 -0.25835,-0.2041 -0.3604,-0.2041 l -0.18242,0 -0.35605,0.60363 c -0.19498,0.33271 -0.46424,0.70719 -0.59928,0.82943 l -0.24756,0.22148 -0.56452,0.0912 -0.56886,0.0868 -0.45162,-0.43859 -0.44733,-0.43862 -0.36476,0.0435 -0.36911,0.0434 -0.0478,-0.24753 -0.0479,-0.24753 0.51241,-1.24199 0.51677,-1.23764 -0.0825,-0.21712 -0.0825,-0.2128 -0.21717,0 -0.21709,0 z m 45.01545,0.0912 -0.33001,0.33437 -0.32571,0.33873 -0.2996,1.78481 c -0.16386,0.98175 -0.27648,1.79714 -0.25185,1.81521 0.0243,0.0181 0.19747,0.13738 0.38645,0.2649 l 0.34305,0.2345 0.38654,0 0.38209,0 0.52548,-0.68179 0.52112,-0.68179 0.52976,-0.30398 0.52548,-0.30398 -0.0522,-0.16067 -0.0521,-0.16069 -0.39523,-0.0477 -0.39081,-0.0477 -0.34742,0.18674 -0.34741,0.18673 -0.19106,0.46031 -0.1954,0.46032 -0.23451,-0.0477 -0.23886,-0.0435 -0.0478,-0.32135 -0.0435,-0.32135 0.21717,-0.54717 0.21709,-0.54283 0.0868,-0.7339 0.0868,-0.7339 -0.23015,-0.19542 -0.23452,-0.19107 z m -26.29447,0.19107 -0.18242,0.152 c -0.10176,0.0844 -0.18669,0.24212 -0.18669,0.34741 l 0,0.19106 0.3387,0 0.33871,0 0.0999,-0.16068 0.0998,-0.16067 -0.25185,-0.18674 -0.25621,-0.18238 z m 31.18427,0.004 -0.21275,0.21712 -0.21717,0.21279 0.0825,0.12593 0.0782,0.13028 0.33878,0 0.33871,0 0,-0.2649 0,-0.26055 -0.20412,-0.0782 -0.2041,-0.0825 z m -45.73635,0.13027 -0.0868,0.22147 -0.0825,0.22147 0.19105,0.12161 c 0.10674,0.0675 0.23151,0.12453 0.27362,0.12593 0.14223,0.004 0.40814,-0.33071 0.40814,-0.51242 l 0,-0.17806 -0.35169,0 -0.35177,0 z m 4.72038,1.05091 -0.20839,0.13463 c -0.11518,0.0737 -0.44277,0.53518 -0.72524,1.02485 l -0.51241,0.89023 -0.13467,0.013 -0.13025,0.0131 -0.41686,-0.72956 -0.41693,-0.72956 -0.1737,0 -0.17806,0 -0.14331,0.26924 -0.1433,0.26924 0.27797,0.70786 c 0.29639,0.75206 0.66543,1.39565 0.89887,1.56333 0.21182,0.15209 0.35049,0.1316 0.57758,-0.0956 l 0.20412,-0.20845 0.27361,-0.79035 0.26921,-0.79036 0.43426,-0.67744 0.43427,-0.67745 -0.0912,-0.0911 -0.0956,-0.0956 z m 13.34923,0.0217 -0.56458,0.0782 -0.56451,0.0738 -0.26492,0.24318 -0.26926,0.2432 0,0.29529 0,0.29964 0.55587,0.54283 0.55589,0.54283 0,0.17805 0,0.18238 -0.165,0 c -0.0902,0 -0.36734,-0.0749 -0.61669,-0.16503 l -0.45161,-0.16501 -0.54717,0.18239 -0.54282,0.17804 -0.27797,-0.0868 -0.27355,-0.0868 -0.16073,-0.35176 -0.16065,-0.35174 0,-0.40386 0,-0.39953 -0.12595,-0.0782 -0.1259,-0.0782 -0.21717,0.0825 -0.21709,0.0825 -0.42122,0.6818 -0.41692,0.68178 -0.81202,0 -0.8078,0 -0.26485,-0.19542 -0.26491,-0.19106 -0.21282,-0.67311 -0.21274,-0.66876 -0.37782,-0.21279 -0.37347,-0.20845 -0.39081,0.28662 c -0.50621,0.37503 -0.97217,1.07526 -1.17684,1.75875 l -0.16507,0.54717 0.1433,0.23016 0.1433,0.23016 0.33871,0.0391 0.33878,0.0434 0.33437,-0.3561 c 0.18276,-0.19457 0.38781,-0.35176 0.45595,-0.35176 0.0685,0 0.33708,0.16045 0.59928,0.36045 l 0.47772,0.36477 0.93799,-0.0956 c 0.51613,-0.0524 1.1401,-0.16488 1.38967,-0.25187 l 0.45595,-0.15633 0.39953,0.2345 0.40386,0.23884 0.35605,0 0.35612,0 0.46903,-0.22582 0.47331,-0.22581 0.46902,0.21713 c 0.25949,0.11832 0.59847,0.24437 0.75127,0.28226 0.15288,0.0379 0.48909,0.0469 0.74694,0.0173 l 0.46894,-0.0564 0.26057,-0.2345 0.26056,-0.2345 0,-0.33437 0,-0.33005 -0.62967,-0.63837 -0.62967,-0.64269 0.0521,-0.152 0.0564,-0.15199 0.28226,0.0304 0.28669,0.0304 0.15193,-0.18674 0.15637,-0.18674 -0.21282,-0.17369 -0.21274,-0.17806 z m 10.96509,0.0391 c -0.31829,0 -1.11668,0.38338 -1.2637,0.60797 l -0.10425,0.15633 0.0825,0.27793 0.0826,0.27792 0.55146,0.57323 0.55587,0.57322 -0.165,0.10425 -0.16935,0.10425 -0.52548,-0.17372 -0.52976,-0.17804 -0.45168,0.16068 c -0.24772,0.0864 -0.59142,0.15634 -0.76427,0.15634 l -0.31266,0 -0.36048,-0.42992 -0.36041,-0.42558 0,-0.34741 c 0,-0.19024 -0.0642,-0.46446 -0.14329,-0.61231 l -0.14331,-0.26924 -0.25193,0 -0.2475,0 -0.32573,0.34741 c -0.17941,0.19108 -0.40307,0.34741 -0.49499,0.34741 l -0.16508,0 -0.21274,-0.31266 -0.21282,-0.31267 -0.25621,0.15633 -0.25621,0.15634 0.009,0.9901 0.008,0.99446 0.21282,0.20844 0.21274,0.21279 0.22581,-0.0868 0.22588,-0.0868 0.29089,-0.49506 0.29532,-0.4994 0.59491,0.65139 0.595,0.64705 0.43427,0 0.43855,0 0.56458,-0.22582 0.56451,-0.22581 0.75999,0.23884 0.75993,0.23884 0.51676,-0.12159 0.51677,-0.1216 0.165,-0.33438 0.16936,-0.33438 -0.1867,-0.35609 c -0.10165,-0.19637 -0.41507,-0.56646 -0.69483,-0.82076 l -0.50806,-0.4603 0.165,-0.19977 0.165,-0.19542 0.33007,0 0.33,0 0,-0.19542 0,-0.19107 -0.22145,-0.0868 c -0.1209,-0.0464 -0.34028,-0.0825 -0.49072,-0.0825 z m 22.63362,0.2345 -0.50372,0.18239 -0.5037,0.17805 -0.25192,0.29096 -0.25186,0.2866 0.15201,0.0522 0.15201,0.0521 0.20404,-0.16935 0.19976,-0.16502 0.32572,0.0782 0.33008,0.0825 -0.22153,0.84246 -0.2171,0.83813 0.15629,0.23884 0.15637,0.24319 0.50371,-0.0434 0.50378,-0.0391 0.1346,0.36042 0.13895,0.36478 0,0.58191 -0.008,0.58191 -0.1737,0.34741 -0.17372,0.34741 -0.36475,0.0434 -0.36483,0.0391 -0.2909,-0.37346 -0.2953,-0.36912 -0.20848,0.17371 c -0.11503,0.0955 -0.20846,0.23103 -0.20846,0.30397 0,0.073 0.18484,0.31508 0.40822,0.53848 l 0.40387,0.40822 0.44732,0 0.44292,0 0.44732,-0.47334 0.44727,-0.47336 0.18241,-0.64704 0.17799,-0.64271 -0.0782,-0.95972 -0.0825,-0.95971 -0.15201,-0.28662 -0.15195,-0.28226 -0.16071,0 c -0.0879,0 -0.30275,0.13533 -0.47766,0.29964 l -0.31702,0.29529 -0.0912,-0.23884 -0.0956,-0.23884 0.17806,-0.53414 0.17806,-0.53849 -0.0868,-0.22147 c -0.0471,-0.12205 -0.1867,-0.25998 -0.31266,-0.30831 l -0.23016,-0.0868 z m -16.7668,0.009 -0.3604,0.0911 -0.35614,0.0868 -0.30829,0.35609 c -0.16971,0.19381 -0.44898,0.61044 -0.62097,0.92931 l -0.31266,0.58191 0,0.44295 0,0.43861 0.17364,0.0738 c 0.0956,0.0385 0.30166,0.0722 0.46038,0.0782 l 0.2909,0.013 0.32572,-0.34741 c 0.17948,-0.19107 0.39844,-0.34741 0.48636,-0.34741 0.088,0 0.30974,0.16203 0.49508,0.36045 l 0.33871,0.36043 0.68612,-0.0652 0.68612,-0.0652 0.25193,-0.30832 0.25186,-0.31266 -0.0782,-0.12595 -0.0782,-0.12158 -0.47767,0 -0.47772,0 -0.2692,-0.26924 -0.26927,-0.27359 -0.16935,-0.5602 -0.16937,-0.56019 -0.25185,-0.23016 -0.24757,-0.22582 z m 13.89634,0.0173 -0.39951,0.20845 -0.4038,0.20844 -0.37353,0.49505 c -0.2074,0.27204 -0.4701,0.71396 -0.58186,0.98143 l -0.20411,0.48638 -0.39088,0 -0.39517,0 -0.23015,-0.25622 -0.23016,-0.25187 -0.0171,-0.4082 c -0.01,-0.22354 -0.0478,-0.51754 -0.0825,-0.65574 l -0.065,-0.25186 -0.29532,0.0435 -0.29524,0.0434 -0.28233,0.50374 c -0.15501,0.2771 -0.45769,0.70928 -0.66872,0.96407 l -0.38217,0.46464 0.0564,0.14331 0.0522,0.14766 0.19106,-0.0608 c 0.34554,-0.10947 0.87674,-0.0537 1.3332,0.13897 l 0.45162,0.18673 0.62103,-0.16502 0.62532,-0.16502 0.31701,0.31267 0.31702,0.31701 0.5862,0.0348 0.58629,0.0347 0.80339,-0.23017 c 0.44225,-0.12604 0.86104,-0.28379 0.93369,-0.35175 l 0.13459,-0.12159 -0.165,-0.16502 -0.16507,-0.16937 -0.69476,0.17806 -0.69047,0.17805 -0.47774,-0.15633 -0.47331,-0.15634 -0.0783,-0.2953 -0.0782,-0.29096 0.1954,-0.46466 0.19547,-0.46466 0.27355,0 0.27791,0 0.0868,0.13897 0.0868,0.13895 0.25193,0 0.25185,0 0.17806,-0.21278 0.17799,-0.21278 -0.18234,-0.34306 -0.18241,-0.33873 -0.25186,-0.0782 -0.24757,-0.0825 z m -27.87083,0.0173 -0.72524,0.4994 -0.72516,0.49505 -0.0912,0.62534 -0.0956,0.62534 0.15636,0.33872 0.15195,0.34306 0.30402,0.10858 0.2996,0.1129 0.36048,-0.0652 0.36041,-0.0608 0.39516,-0.36479 c 0.21702,-0.20061 0.48279,-0.53618 0.59064,-0.74258 l 0.1954,-0.37346 0,-0.32135 0,-0.31702 -0.2779,-0.45163 -0.27363,-0.45162 -0.31266,0 -0.31266,0 z m -13.27538,0.10425 -0.45161,0.0868 c -0.24835,0.0475 -0.73302,0.1261 -1.077,0.17372 l -0.62533,0.0868 -0.1737,0.13896 -0.17371,0.13897 0,1.06828 0,1.07262 0.0999,0.0999 0.0956,0.0956 0.28661,-0.0391 0.28225,-0.0391 0.2084,-0.6514 0.20846,-0.65137 0.32137,-0.43428 0.32137,-0.43425 0.3387,-0.152 0.33871,-0.15633 0,-0.19976 0,-0.2041 z m 13.19723,0.69048 0.20847,0.1737 0.21274,0.17804 0,0.31702 c 0,0.17547 -0.0364,0.41759 -0.0825,0.53849 l -0.0868,0.22146 -0.31701,0 -0.31702,0 -0.0868,-0.22146 c -0.0464,-0.1209 -0.0825,-0.32991 -0.0825,-0.46467 l 0,-0.24318 0.27355,-0.25187 0.27798,-0.24753 z m 13.33183,0.15199 0.14758,0.0911 0.14331,0.0912 0,0.33005 0,0.33437 -0.26056,0.13897 -0.26057,0.13895 -0.0868,-0.0868 c -0.0485,-0.0482 -0.0868,-0.22619 -0.0868,-0.39518 l 0,-0.30398 0.20412,-0.16936 0.19982,-0.16936 z m -25.24366,0.0477 0.19112,0.0738 0.19105,0.0738 0,0.25186 c 0,0.13843 -0.0364,0.34812 -0.0825,0.46902 l -0.0868,0.22146 -0.16935,0 c -0.24808,0 -0.35613,-0.14609 -0.35613,-0.48202 l 0,-0.29531 0.15636,-0.15633 0.1563,-0.15634 z"
       id="path5647"
       inkscape:connector-curvature="0" />
  </g>
</svg>
