<?xml version="1.0" encoding="UTF-8" standalone="no"?>
<!-- Created with Inkscape (http://www.inkscape.org/) -->

<svg
   xmlns:dc="http://purl.org/dc/elements/1.1/"
   xmlns:cc="http://creativecommons.org/ns#"
   xmlns:rdf="http://www.w3.org/1999/02/22-rdf-syntax-ns#"
   xmlns:svg="http://www.w3.org/2000/svg"
   xmlns="http://www.w3.org/2000/svg"
   xmlns:sodipodi="http://sodipodi.sourceforge.net/DTD/sodipodi-0.dtd"
   xmlns:inkscape="http://www.inkscape.org/namespaces/inkscape"
   width="163.00395"
   height="27.337488"
   id="svg3163"
   version="1.1"
   inkscape:version="0.48.4 r9939"
   sodipodi:docname="enseignement-be.svg"
   inkscape:export-filename="/home/svilayphiou/work/balsamine/osp.work.balsamine.2013-2014/pack-com/partenaires/dyoxide-gambette.png"
   inkscape:export-xdpi="100"
   inkscape:export-ydpi="100">
  <defs
     id="defs3165" />
  <sodipodi:namedview
     id="base"
     pagecolor="#ffffff"
     bordercolor="#666666"
     borderopacity="1.0"
     inkscape:pageopacity="0.0"
     inkscape:pageshadow="2"
     inkscape:zoom="3.2539062"
     inkscape:cx="68.90591"
     inkscape:cy="-19.086114"
     inkscape:document-units="px"
     inkscape:current-layer="layer1"
     showgrid="false"
     fit-margin-top="0"
     fit-margin-left="0"
     fit-margin-right="0"
     fit-margin-bottom="0"
     inkscape:window-width="1276"
     inkscape:window-height="775"
     inkscape:window-x="0"
     inkscape:window-y="21"
     inkscape:window-maximized="1"
     showguides="true"
     inkscape:guide-bbox="true" />
  <metadata
     id="metadata3168">
    <rdf:RDF>
      <cc:Work
         rdf:about="">
        <dc:format>image/svg+xml</dc:format>
        <dc:type
           rdf:resource="http://purl.org/dc/dcmitype/StillImage" />
        <dc:title></dc:title>
      </cc:Work>
    </rdf:RDF>
  </metadata>
  <g
     inkscape:label="Layer 1"
     inkscape:groupmode="layer"
     id="layer1"
     transform="translate(-509.09288,-536.6887)">
    <path
       style="fill:#00aa5a;fill-opacity:1"
       d="m 520.4363,563.83203 c -7.84038,-1.3123 -12.88031,-9.2395 -10.919,-17.17427 0.15752,-0.63723 0.31064,-0.33444 0.76576,1.51422 0.31287,1.27092 0.94549,2.95339 1.40578,3.73886 2.45982,4.19737 9.10836,7.49151 15.12003,7.49151 3.3093,0 5.45762,-0.69029 7.25547,-2.33128 l 1.46018,-1.33278 -0.84452,1.4311 c -2.95104,5.00079 -8.54352,7.61672 -14.2437,6.66264 z m 67.44008,-5.27932 c -0.35641,-0.35641 -0.23676,-1.60206 0.18586,-1.93494 0.21905,-0.17253 0.77673,-0.40392 1.23932,-0.51418 1.38949,-0.33124 1.35674,-1.03146 -0.0421,-0.89807 -1.51631,0.14459 -3.02963,-0.6249 -3.83879,-1.95197 -0.8002,-1.31236 -0.87912,-5.49749 -0.13094,-6.9443 1.06196,-2.05363 3.80024,-2.78544 5.81841,-1.555 1.61031,0.98178 1.97217,2.2382 1.97217,6.84763 0,4.3547 -0.25863,5.29411 -1.78898,6.49788 -0.81597,0.64185 -2.94392,0.92409 -3.41505,0.45295 z m 2.3253,-6.45754 c 0.52904,-0.98853 0.41259,-4.35327 -0.17086,-4.93671 -0.59423,-0.59424 -1.76698,-0.65449 -2.30312,-0.11838 -0.50747,0.50746 -0.50747,4.78155 0,5.289 0.60583,0.60584 2.10017,0.46454 2.47398,-0.23394 z m -41.56799,2.86123 c -0.93842,-0.38815 -2.04994,-1.69341 -2.34313,-2.75151 -0.22497,-0.81187 -0.25501,-2.36362 -0.0936,-4.8349 0.0259,-0.39688 0.52198,-1.23975 1.10238,-1.87307 0.8808,-0.96111 1.31536,-1.17398 2.62857,-1.28751 2.69551,-0.23306 4.60681,1.66669 4.59526,4.56751 -0.009,1.9568 -0.29123,2.16193 -3.1678,2.29257 -2.56641,0.11656 -3.04601,0.39364 -2.18004,1.25962 0.5202,0.52021 1.59572,0.481 2.34464,-0.0855 0.72659,-0.54956 1.92614,-0.63124 2.22275,-0.15134 0.40675,0.65816 -0.18511,1.85064 -1.24308,2.50449 -1.09781,0.67848 -2.72831,0.83015 -3.86595,0.35959 z m 3.34544,-6.76013 c 0,-0.20524 -0.23728,-0.63537 -0.5273,-0.95583 -0.95061,-1.05042 -2.65884,-0.56502 -2.65884,0.75551 0,0.47579 0.27142,0.5735 1.59308,0.5735 1.00492,0 1.59306,-0.13776 1.59306,-0.37318 z m 3.58442,6.85308 c -0.2898,-0.11692 -0.39826,-1.28285 -0.39826,-4.28082 l 0,-4.12011 1.05526,-1.1515 c 0.8808,-0.96111 1.31536,-1.17398 2.62856,-1.28751 1.93588,-0.16737 3.28793,0.57588 4.0786,2.24211 0.78068,1.64514 0.63449,8.09159 -0.19533,8.61392 -0.40594,0.25553 -0.70921,0.25554 -1.11516,6e-5 -0.46501,-0.29267 -0.57269,-0.92504 -0.64868,-3.80932 -0.0978,-3.71323 -0.44552,-4.59842 -1.80623,-4.59842 -1.23905,0 -1.44811,0.5872 -1.44811,4.06737 0,4.15905 -0.42788,5.01937 -2.15065,4.32422 z m 10.27532,-0.37578 c -1.37705,-0.84193 -1.81233,-1.48374 -1.69574,-2.50044 0.14254,-1.24311 1.31642,-1.38521 2.33789,-0.28301 0.86213,0.93024 2.39072,1.10394 3.02193,0.34341 0.54703,-0.65914 -0.11826,-1.43318 -1.23382,-1.43555 -1.72802,-0.004 -3.21352,-0.64142 -3.70421,-1.59031 -1.69986,-3.28717 1.68501,-6.20031 5.40054,-4.64787 1.73193,0.72366 2.33151,2.41109 1.09234,3.07427 -0.55455,0.29679 -0.84218,0.23822 -1.60699,-0.32722 -1.16849,-0.86391 -2.6561,-0.78132 -2.6561,0.14746 0,0.52781 0.27838,0.6712 1.62126,0.83513 0.89169,0.10877 2.00019,0.44617 2.46333,0.74963 1.11335,0.72948 1.57698,2.41389 1.07521,3.90616 -0.69947,2.08014 -4.01001,3.01573 -6.11564,1.72834 z m 8.73401,-0.13966 c -1.52011,-1.0244 -1.87391,-1.93798 -1.8779,-4.84931 -0.004,-2.90282 0.57562,-4.2452 2.1945,-5.08236 2.94931,-1.52515 6.09308,0.64489 6.0787,4.19594 -0.009,1.93372 -0.29682,2.14092 -3.1678,2.27131 -2.56641,0.11656 -3.04601,0.39364 -2.18005,1.25962 0.54045,0.54045 2.01194,0.47467 2.49857,-0.1117 0.22817,-0.27492 0.77539,-0.45156 1.23381,-0.39827 0.67891,0.0789 0.82381,0.26165 0.82381,1.03892 0,2.07923 -3.46662,3.11598 -5.60364,1.67585 z m 3.85127,-6.41961 c 0,-0.68329 -0.90855,-1.45654 -1.71142,-1.45654 -0.85796,0 -1.47473,0.55968 -1.47473,1.33819 0,0.47579 0.27141,0.5735 1.59308,0.5735 1.16825,0 1.59307,-0.12142 1.59307,-0.45515 z m 3.53528,6.70491 c -0.24956,-0.30069 -0.33807,-1.98904 -0.27798,-5.30254 0.0767,-4.2243 0.16121,-4.90741 0.64573,-5.21261 0.40624,-0.25593 0.7089,-0.25593 1.11516,0 0.48449,0.3052 0.56912,0.98831 0.64571,5.21261 0.0912,5.02378 -0.0598,5.74369 -1.20329,5.74369 -0.30757,0 -0.72397,-0.19852 -0.92533,-0.44115 z m 12.14056,0.0588 c -0.62056,-0.62056 -0.50633,-7.06615 0.14973,-8.44869 1.38094,-2.9101 5.43564,-3.08855 7.12758,-0.31368 0.52185,0.85586 0.62214,1.61231 0.62314,4.70003 10e-4,3.78839 -0.19453,4.44467 -1.32579,4.44467 -0.93355,0 -1.22194,-1.07037 -1.22194,-4.53524 0,-3.4965 -0.20698,-4.06736 -1.47474,-4.06736 -1.42748,0 -1.7114,0.73323 -1.7114,4.41964 0,3.47736 -0.21498,4.18296 -1.27447,4.18296 -0.28038,0 -0.68183,-0.17204 -0.89211,-0.38233 z m 10.79619,-0.15786 c -1.58236,-0.83611 -2.25732,-2.34178 -2.25732,-5.03556 0,-2.67921 0.65812,-4.13986 2.24994,-4.99357 1.45751,-0.78167 2.84799,-0.73333 4.15024,0.14426 1.41092,0.95082 1.87337,1.93055 1.8791,3.981 0.004,1.51286 -0.0769,1.71163 -0.81259,1.99135 -0.4495,0.17089 -1.73989,0.31073 -2.86753,0.31073 -2.10639,0 -2.42051,0.22143 -1.54956,1.09238 0.63383,0.63385 1.84999,0.64554 2.36685,0.0227 0.56296,-0.67832 1.82712,-0.59404 2.22442,0.14832 0.273,0.51011 0.16977,0.81132 -0.5567,1.62439 -1.14139,1.27743 -3.18762,1.58009 -4.82685,0.71394 z m 3.47774,-6.72422 c 0,-1.27547 -1.71321,-1.80976 -2.68546,-0.8375 -0.96409,0.96408 -0.61806,1.411 1.09239,1.411 1.32165,0 1.59307,-0.0977 1.59307,-0.5735 z m 3.56848,6.88208 c -0.56654,-0.56655 -0.50804,-6.98402 0.0764,-8.38283 0.85106,-2.03683 3.31627,-2.92201 5.29214,-1.90025 0.84927,0.43917 1.03732,0.4358 1.94773,-0.035 1.96868,-1.01804 4.47408,-0.0521 5.35004,2.06264 0.21128,0.51012 0.31852,2.32375 0.26458,4.47482 -0.0762,3.03593 -0.18029,3.67343 -0.6483,3.96801 -0.40597,0.25555 -0.70917,0.25555 -1.11515,0 -0.46788,-0.2945 -0.57216,-0.93174 -0.64822,-3.96164 -0.0499,-1.99242 -0.24601,-3.79789 -0.43728,-4.02837 -0.44008,-0.53025 -1.74334,-0.54239 -2.08184,-0.0194 -0.14176,0.21905 -0.32946,2.03208 -0.41708,4.02897 -0.13165,3.00053 -0.25608,3.69153 -0.71687,3.98106 -0.40549,0.25478 -0.70966,0.25462 -1.11515,-6.4e-4 -0.4679,-0.2945 -0.57216,-0.93174 -0.64823,-3.96165 -0.05,-1.99241 -0.24601,-3.7979 -0.43729,-4.02836 -0.51627,-0.6221 -1.79237,-0.50525 -2.16907,0.19862 -0.18141,0.33898 -0.32982,2.10251 -0.32982,3.91897 0,3.35877 -0.22203,4.06734 -1.27447,4.06734 -0.28037,0 -0.68184,-0.17205 -0.89212,-0.38232 z m 15.64352,-0.242 c -1.52187,-0.92793 -2.00699,-2.14106 -2.00562,-5.01524 0.001,-2.83419 0.59506,-4.18902 2.19919,-5.01855 2.89055,-1.49475 6.08621,0.59127 6.07753,3.96721 -0.006,2.18198 -0.24012,2.36714 -3.16662,2.50004 -2.56641,0.11656 -3.04601,0.39365 -2.18004,1.25962 0.54045,0.54045 2.01194,0.47467 2.49856,-0.1117 0.22816,-0.27491 0.77539,-0.45156 1.23382,-0.39826 0.6789,0.0789 0.82381,0.26165 0.82381,1.03891 0,2.00084 -3.33875,3.08395 -5.48063,1.77797 z m 3.72825,-6.52173 c 0,-0.6833 -0.90855,-1.45654 -1.71142,-1.45654 -0.85795,0 -1.47473,0.55968 -1.47473,1.33819 0,0.4758 0.27141,0.5735 1.59309,0.5735 1.16824,0 1.59306,-0.12142 1.59306,-0.45515 z m 3.56848,6.76373 c -0.25339,-0.2534 -0.38193,-1.62348 -0.38114,-4.06234 8e-4,-3.08772 0.10125,-3.84417 0.62314,-4.70003 1.65345,-2.71175 5.72639,-2.59082 7.17633,0.21307 0.74955,1.44945 0.56821,8.23192 -0.23357,8.73668 -0.4055,0.25527 -0.70965,0.25545 -1.11516,6.3e-4 -0.46258,-0.29066 -0.5847,-0.98461 -0.71687,-4.07329 -0.1213,-2.83483 -0.27332,-3.79479 -0.63724,-4.0241 -0.62306,-0.39261 -1.17375,-0.38723 -1.93263,0.019 -0.5533,0.29612 -0.61628,0.69658 -0.61628,3.91896 0,3.65278 -0.20521,4.35381 -1.27445,4.35381 -0.28038,0 -0.68184,-0.17205 -0.89213,-0.38234 z m 10.58437,-0.21847 c -1.74684,-1.06522 -2.0455,-2.22323 -2.0455,-7.93127 0,-5.47711 0.14046,-5.96511 1.65519,-5.75039 0.63117,0.0895 0.74799,0.3149 0.83096,1.60337 l 0.0965,1.49924 2.10051,0.0938 c 2.32549,0.10392 3.13061,0.68423 2.45076,1.76655 -0.26478,0.4215 -0.86697,0.58055 -2.46763,0.65179 l -2.11739,0.0942 0,2.5116 c 0,1.85845 0.13019,2.64182 0.50068,3.01228 0.75856,0.75856 1.95537,0.62 2.55545,-0.29585 0.59685,-0.91091 1.75285,-1.05056 2.38555,-0.28822 0.35159,0.42365 0.34346,0.64803 -0.0489,1.34694 -1.16282,2.07171 -3.95459,2.86996 -5.89628,1.68593 z m 7.05778,0.10015 c -0.61092,-0.61092 -0.62005,-0.80735 -0.0723,-1.5564 0.61435,-0.84018 2.12057,-0.4384 2.12057,0.56566 0,1.36397 -1.12894,1.91003 -2.04823,0.99074 z m 4.69228,-0.12365 c -1.82905,-1.11523 -2.00682,-1.86526 -2.00682,-8.46691 0,-4.60727 0.0892,-5.90724 0.39827,-5.80498 0.26078,0.0863 0.43031,0.97102 0.4911,2.56278 l 0.0928,2.43099 1.02233,-0.62334 c 1.83507,-1.11891 4.31023,-0.61839 5.43562,1.09917 0.39547,0.60357 0.52524,1.55491 0.52524,3.85086 0,2.29595 -0.12977,3.24729 -0.52524,3.85087 -1.12479,1.71664 -3.60047,2.2181 -5.43332,1.10056 z m 4.44513,-1.2916 c 0.80754,-0.88631 0.87619,-1.1679 0.87619,-3.59397 0,-3.01002 -0.3904,-3.8448 -2.13996,-4.5758 -1.36799,-0.57159 -2.97771,-0.13548 -3.72831,1.01007 -0.73951,1.12864 -0.69685,6.10316 0.0607,7.07017 1.26289,1.6122 3.50699,1.65295 4.93145,0.0896 z m 4.48122,1.44959 c -1.53337,-0.66692 -2.01196,-1.9062 -2.01196,-5.20993 0,-2.39797 0.10367,-2.97214 0.66537,-3.68626 1.34946,-1.71556 3.56835,-2.25219 5.39874,-1.30567 1.24793,0.64533 1.90125,2.0066 1.90125,3.96147 l 0,1.6089 -3.70602,0 -3.70602,0 0.17426,1.29919 c 0.21226,1.58249 0.92184,2.42182 2.3902,2.82725 1.33433,0.36842 3.01325,-0.21278 3.55868,-1.23194 0.19552,-0.36531 0.56549,-0.66421 0.8222,-0.66421 0.5944,0 0.58628,0.15853 -0.0585,1.14265 -1.06636,1.62747 -3.35819,2.15884 -5.42818,1.25855 z m 5.31618,-6.36314 c 0,-1.32397 -0.57827,-2.3836 -1.66478,-3.05064 -1.06794,-0.65561 -2.3159,-0.62067 -3.46514,0.0971 -0.77262,0.4825 -1.56099,1.94833 -1.56099,2.90236 l 0,0.82703 3.34546,0 c 3.33221,0 3.34545,-0.004 3.34545,-0.7758 z m -151.48249,3.14202 c 2.62174,-1.5769 4.80901,-3.26966 6.59912,-5.10721 1.55498,-1.59616 3.09987,-4.24176 3.09987,-5.3084 0,-0.64964 0.2489,-0.62479 2.757,0.27543 1.55501,0.55813 1.94188,1.48911 1.27855,3.07669 -0.64655,1.54739 -2.54925,3.04427 -5.86792,4.61634 -2.39973,1.13676 -8.9576,3.58569 -9.60194,3.58569 -0.0867,0 0.6942,-0.51234 1.73532,-1.13854 z m -8.32387,-1.25107 c -0.68123,-1.61683 -1.25182,-5.2222 -0.99097,-6.26155 0.60296,-2.40233 4.70477,-5.84828 8.16603,-6.86029 3.78925,-1.1079 8.46379,-0.37726 11.66134,1.82272 1.64196,1.1297 1.70005,1.43944 0.16994,0.90604 -0.59502,-0.20743 -2.0994,-0.29778 -3.55504,-0.21352 -2.16832,0.12553 -2.91114,0.33816 -5.27753,1.51075 -3.50655,1.73757 -6.77883,4.88022 -8.47578,8.14002 l -1.16102,2.23029 -0.53697,-1.27446 z m 70.46853,-6.94558 c -0.70746,-0.51731 -0.58255,-2.08573 0.2054,-2.5791 1.26673,-0.79314 2.44835,1.3754 1.34865,2.4751 -0.62597,0.62597 -0.82225,0.63911 -1.55405,0.10404 z"
       id="path3501"
       inkscape:connector-curvature="0" />
  </g>
</svg>
