<?xml version="1.0" encoding="UTF-8" standalone="no"?>
<!-- Created with Inkscape (http://www.inkscape.org/) -->

<svg
   xmlns:dc="http://purl.org/dc/elements/1.1/"
   xmlns:cc="http://creativecommons.org/ns#"
   xmlns:rdf="http://www.w3.org/1999/02/22-rdf-syntax-ns#"
   xmlns:svg="http://www.w3.org/2000/svg"
   xmlns="http://www.w3.org/2000/svg"
   xmlns:sodipodi="http://sodipodi.sourceforge.net/DTD/sodipodi-0.dtd"
   xmlns:inkscape="http://www.inkscape.org/namespaces/inkscape"
   width="99.999992"
   height="16.771103"
   id="svg3163"
   version="1.1"
   inkscape:version="0.48.3.1 r9886"
   sodipodi:docname="enseignement-be.svg"
   inkscape:export-filename="/home/svilayphiou/work/balsamine/osp.work.balsamine.2013-2014/pack-com/partenaires/dyoxide-gambette.png"
   inkscape:export-xdpi="100"
   inkscape:export-ydpi="100">
  <sodipodi:namedview
     id="base"
     pagecolor="#ffffff"
     bordercolor="#666666"
     borderopacity="1.0"
     inkscape:pageopacity="0.0"
     inkscape:pageshadow="2"
     inkscape:zoom="3.2539062"
     inkscape:cx="9.2852539"
     inkscape:cy="-19.08611"
     inkscape:document-units="px"
     inkscape:current-layer="layer1"
     showgrid="false"
     fit-margin-top="0"
     fit-margin-left="0"
     fit-margin-right="0"
     fit-margin-bottom="0"
     inkscape:window-width="1375"
     inkscape:window-height="876"
     inkscape:window-x="65"
     inkscape:window-y="24"
     inkscape:window-maximized="1"
     showguides="true"
     inkscape:guide-bbox="true" />
  <defs
     id="defs3165" />
  <metadata
     id="metadata3168">
    <rdf:RDF>
      <cc:Work
         rdf:about="">
        <dc:format>image/svg+xml</dc:format>
        <dc:type
           rdf:resource="http://purl.org/dc/dcmitype/StillImage" />
        <dc:title></dc:title>
      </cc:Work>
    </rdf:RDF>
  </metadata>
  <g
     transform="translate(-509.09289,-547.25509)"
     id="layer1"
     inkscape:groupmode="layer"
     inkscape:label="Layer 1">
    <path
       inkscape:connector-curvature="0"
       id="path3501"
       d="m 516.05187,563.90708 c -4.80994,-0.80508 -7.90184,-5.66827 -6.69861,-10.53611 0.0966,-0.39093 0.19057,-0.20517 0.46978,0.92895 0.19194,0.77968 0.58004,1.81185 0.86242,2.29372 1.50905,2.57501 5.58781,4.59591 9.27586,4.59591 2.0302,0 3.34816,-0.42348 4.4511,-1.4302 l 0.8958,-0.81764 -0.5181,0.87796 c -1.81041,3.06789 -5.2413,4.67272 -8.73825,4.08741 z m 41.37328,-3.23877 c -0.21865,-0.21865 -0.14525,-0.98284 0.11402,-1.18705 0.13438,-0.10585 0.47651,-0.2478 0.7603,-0.31544 0.85243,-0.20321 0.83233,-0.63279 -0.0258,-0.55095 -0.93023,0.0887 -1.85862,-0.38337 -2.35503,-1.1975 -0.49091,-0.80511 -0.53932,-3.37261 -0.0803,-4.26021 0.6515,-1.25986 2.33138,-1.70881 3.56949,-0.95396 0.9879,0.6023 1.20989,1.3731 1.20989,4.2009 0,2.67153 -0.15866,3.24784 -1.0975,3.98633 -0.50059,0.39376 -1.80605,0.56691 -2.09507,0.27788 z m 1.42653,-3.96159 c 0.32455,-0.60644 0.25311,-2.67065 -0.10482,-3.02858 -0.36455,-0.36456 -1.08401,-0.40152 -1.41293,-0.0726 -0.31132,0.31131 -0.31132,2.93339 0,3.2447 0.37167,0.37167 1.28842,0.28499 1.51775,-0.14352 z m -25.50122,1.75532 c -0.5757,-0.23813 -1.2576,-1.03888 -1.43747,-1.68801 -0.13801,-0.49806 -0.15644,-1.45003 -0.0574,-2.96612 0.0159,-0.24348 0.32022,-0.76057 0.67629,-1.1491 0.54035,-0.58962 0.80695,-0.72021 1.61258,-0.78986 1.65365,-0.14298 2.8262,1.02248 2.81911,2.80209 -0.006,1.20046 -0.17866,1.3263 -1.94339,1.40645 -1.57445,0.0715 -1.86867,0.24149 -1.33741,0.77275 0.31913,0.31914 0.97894,0.29509 1.43839,-0.0525 0.44575,-0.33715 1.18165,-0.38726 1.36362,-0.0928 0.24953,0.40377 -0.11356,1.13534 -0.76261,1.53646 -0.67349,0.41624 -1.67377,0.50929 -2.37169,0.22061 z m 2.05237,-4.14722 c 0,-0.12591 -0.14557,-0.38979 -0.32349,-0.58639 -0.58318,-0.64441 -1.63115,-0.34663 -1.63115,0.46349 0,0.29189 0.16651,0.35184 0.97732,0.35184 0.6165,0 0.97732,-0.0845 0.97732,-0.22894 z m 2.19897,4.20424 c -0.17778,-0.0717 -0.24432,-0.78701 -0.24432,-2.62621 l 0,-2.52761 0.64738,-0.70643 c 0.54036,-0.58962 0.80695,-0.72021 1.61258,-0.78986 1.18762,-0.10268 2.01708,0.35329 2.50214,1.37549 0.47894,1.00927 0.38925,4.96405 -0.11983,5.28449 -0.24903,0.15676 -0.43508,0.15677 -0.68413,4e-5 -0.28527,-0.17955 -0.35133,-0.5675 -0.39795,-2.33695 -0.06,-2.278 -0.27332,-2.82105 -1.10809,-2.82105 -0.76014,0 -0.88839,0.36024 -0.88839,2.49526 0,2.5515 -0.2625,3.07929 -1.31939,2.65283 z m 6.30373,-0.23054 c -0.8448,-0.5165 -1.11183,-0.91024 -1.04031,-1.53397 0.0874,-0.76263 0.8076,-0.8498 1.43426,-0.17362 0.5289,0.57068 1.46666,0.67725 1.8539,0.21067 0.33559,-0.40437 -0.0725,-0.87923 -0.75693,-0.88068 -1.06011,-0.002 -1.97144,-0.3935 -2.27247,-0.97563 -1.04283,-2.01662 1.03373,-3.80378 3.31314,-2.85138 1.06251,0.44395 1.43034,1.47916 0.67013,1.88601 -0.34021,0.18207 -0.51666,0.14614 -0.98586,-0.20075 -0.71685,-0.52999 -1.62947,-0.47932 -1.62947,0.0905 0,0.3238 0.17078,0.41177 0.99461,0.51234 0.54704,0.0667 1.22708,0.27371 1.51121,0.45988 0.68302,0.44752 0.96745,1.48088 0.65962,2.39636 -0.42911,1.27613 -2.46006,1.8501 -3.75183,1.0603 z m 5.35816,-0.0857 c -0.93256,-0.62846 -1.14961,-1.18892 -1.15206,-2.97497 -0.002,-1.78083 0.35313,-2.60435 1.34629,-3.11794 1.80934,-0.93565 3.73799,0.39563 3.72917,2.57414 -0.006,1.1863 -0.18209,1.31341 -1.94339,1.39341 -1.57445,0.0715 -1.86867,0.24149 -1.33742,0.77275 0.33156,0.33156 1.23429,0.2912 1.53283,-0.0685 0.13998,-0.16865 0.47569,-0.27702 0.75692,-0.24433 0.4165,0.0484 0.50539,0.16052 0.50539,0.63736 0,1.27557 -2.12671,1.9116 -3.43773,1.02811 z m 2.36268,-3.93832 c 0,-0.41919 -0.55738,-0.89356 -1.04992,-0.89356 -0.52635,0 -0.90472,0.34335 -0.90472,0.82095 0,0.29189 0.1665,0.35184 0.97732,0.35184 0.7167,0 0.97732,-0.0745 0.97732,-0.27923 z m 2.16883,4.11334 c -0.1531,-0.18447 -0.2074,-1.22024 -0.17053,-3.25301 0.0471,-2.59153 0.0989,-3.01061 0.39614,-3.19784 0.24922,-0.15701 0.4349,-0.15701 0.68413,0 0.29723,0.18723 0.34915,0.60631 0.39613,3.19784 0.0559,3.082 -0.0367,3.52365 -0.73819,3.52365 -0.18869,0 -0.44415,-0.12179 -0.56768,-0.27064 z m 7.44802,0.0361 c -0.3807,-0.3807 -0.31062,-4.33495 0.0919,-5.18311 0.84718,-1.7853 3.33466,-1.89478 4.37264,-0.19244 0.32014,0.52505 0.38167,0.98912 0.38228,2.88338 6.2e-4,2.32411 -0.11934,2.72673 -0.81334,2.72673 -0.57272,0 -0.74964,-0.65666 -0.74964,-2.78229 0,-2.14504 -0.12698,-2.49525 -0.90473,-2.49525 -0.87573,0 -1.04991,0.44982 -1.04991,2.71137 0,2.13329 -0.13189,2.56617 -0.78187,2.56617 -0.172,0 -0.41829,-0.10555 -0.54729,-0.23456 z m 6.62327,-0.0968 c -0.97075,-0.51294 -1.38483,-1.43664 -1.38483,-3.08923 0,-1.64364 0.40375,-2.53973 1.3803,-3.06346 0.89416,-0.47954 1.74719,-0.44989 2.5461,0.0885 0.86557,0.58331 1.14928,1.18436 1.15279,2.44227 0.002,0.92811 -0.0472,1.05006 -0.49851,1.22166 -0.27576,0.10484 -1.06739,0.19063 -1.75917,0.19063 -1.29224,0 -1.48494,0.13584 -0.95063,0.67015 0.38884,0.38886 1.13493,0.39603 1.45202,0.0139 0.34536,-0.41614 1.1209,-0.36443 1.36464,0.091 0.16748,0.31294 0.10415,0.49773 -0.34153,0.99653 -0.70022,0.78368 -1.95554,0.96936 -2.96118,0.43799 z m 2.13353,-4.12519 c 0,-0.78248 -1.05102,-1.11025 -1.64748,-0.51379 -0.59145,0.59145 -0.37917,0.86562 0.67016,0.86562 0.81081,0 0.97732,-0.0599 0.97732,-0.35183 z m 2.1892,4.22203 c -0.34756,-0.34756 -0.31167,-4.28457 0.0469,-5.14271 0.52211,-1.24956 2.03447,-1.7926 3.24663,-1.16577 0.52101,0.26942 0.63638,0.26736 1.1949,-0.0215 1.20775,-0.62455 2.74477,-0.032 3.28215,1.26539 0.12962,0.31295 0.19541,1.42558 0.16232,2.74522 -0.0467,1.86249 -0.11061,2.25359 -0.39772,2.43431 -0.24906,0.15677 -0.43507,0.15677 -0.68413,0 -0.28703,-0.18068 -0.35101,-0.57161 -0.39767,-2.4304 -0.0306,-1.22231 -0.15092,-2.32994 -0.26826,-2.47133 -0.26998,-0.3253 -1.06951,-0.33275 -1.27717,-0.0119 -0.087,0.13438 -0.20212,1.24664 -0.25587,2.4717 -0.0808,1.84077 -0.15711,2.26468 -0.43979,2.44231 -0.24876,0.1563 -0.43537,0.1562 -0.68413,-4e-4 -0.28704,-0.18067 -0.35101,-0.5716 -0.39767,-2.4304 -0.0307,-1.22231 -0.15093,-2.32994 -0.26827,-2.47132 -0.31673,-0.38165 -1.09959,-0.30997 -1.33069,0.12184 -0.11129,0.20796 -0.20234,1.28986 -0.20234,2.40422 0,2.06055 -0.13621,2.49524 -0.78186,2.49524 -0.172,0 -0.4183,-0.10555 -0.5473,-0.23454 z m 9.59702,-0.14846 c -0.93364,-0.56927 -1.23125,-1.3135 -1.23041,-3.07676 6.1e-4,-1.73872 0.36505,-2.56989 1.34916,-3.07879 1.7733,-0.917 3.73378,0.36274 3.72846,2.43381 -0.004,1.33861 -0.14731,1.4522 -1.94267,1.53373 -1.57445,0.0715 -1.86867,0.2415 -1.33742,0.77276 0.33156,0.33155 1.23429,0.2912 1.53283,-0.0685 0.13997,-0.16865 0.47568,-0.27702 0.75692,-0.24432 0.4165,0.0484 0.5054,0.16051 0.5054,0.63735 0,1.22748 -2.04827,1.89195 -3.36227,1.09075 z m 2.28721,-4.00096 c 0,-0.41919 -0.55738,-0.89356 -1.04992,-0.89356 -0.52634,0 -0.90472,0.34335 -0.90472,0.82095 0,0.2919 0.1665,0.35183 0.97733,0.35183 0.71669,0 0.97731,-0.0745 0.97731,-0.27922 z m 2.1892,4.14942 c -0.15545,-0.15545 -0.23431,-0.99597 -0.23382,-2.49217 4.9e-4,-1.89426 0.0621,-2.35833 0.38228,-2.88338 1.01437,-1.66361 3.51304,-1.58942 4.40255,0.13071 0.45984,0.88921 0.34859,5.05014 -0.14329,5.3598 -0.24876,0.1566 -0.43536,0.15671 -0.68413,3.9e-4 -0.28378,-0.17832 -0.3587,-0.60404 -0.43979,-2.49889 -0.0744,-1.73912 -0.16767,-2.32804 -0.39093,-2.46872 -0.38224,-0.24086 -0.72008,-0.23756 -1.18563,0.0117 -0.33944,0.18166 -0.37808,0.42734 -0.37808,2.40421 0,2.24092 -0.12589,2.67098 -0.78185,2.67098 -0.17201,0 -0.4183,-0.10555 -0.54731,-0.23455 z m 6.49332,-0.13402 c -1.07165,-0.6535 -1.25488,-1.36391 -1.25488,-4.86569 0,-3.36011 0.0862,-3.65949 1.01543,-3.52777 0.38722,0.0549 0.45888,0.19319 0.50978,0.98364 l 0.0592,0.91976 1.28863,0.0575 c 1.42665,0.0638 1.92057,0.41977 1.5035,1.08375 -0.16244,0.25858 -0.53187,0.35616 -1.51385,0.39986 l -1.29898,0.0578 0,1.54082 c 0,1.14013 0.0799,1.62071 0.30716,1.84798 0.46536,0.46537 1.19958,0.38036 1.56772,-0.18149 0.36616,-0.55883 1.07534,-0.6445 1.46349,-0.17682 0.2157,0.2599 0.21071,0.39755 -0.03,0.82632 -0.71337,1.27096 -2.42607,1.76067 -3.61726,1.03429 z m 4.32982,0.0614 c -0.37478,-0.37479 -0.38039,-0.4953 -0.0444,-0.95483 0.37689,-0.51543 1.30093,-0.26895 1.30093,0.34703 0,0.83677 -0.69258,1.17177 -1.25655,0.6078 z m 2.87863,-0.0759 c -1.12209,-0.68417 -1.23114,-1.1443 -1.23114,-5.1943 0,-2.82647 0.0547,-3.62398 0.24433,-3.56125 0.15998,0.053 0.26398,0.59571 0.30128,1.57222 l 0.0569,1.49137 0.62718,-0.38241 c 1.12578,-0.68643 2.64425,-0.37937 3.33466,0.67432 0.24261,0.37028 0.32222,0.95391 0.32222,2.36244 0,1.40852 -0.0796,1.99215 -0.32222,2.36244 -0.69004,1.05312 -2.20883,1.36076 -3.33325,0.67517 z m 2.72701,-0.79237 c 0.49541,-0.54374 0.53753,-0.71649 0.53753,-2.20484 0,-1.84659 -0.23951,-2.35871 -1.31283,-2.80717 -0.83924,-0.35066 -1.82677,-0.0831 -2.28725,0.61966 -0.45368,0.6924 -0.42751,3.74418 0.0372,4.33742 0.77476,0.98906 2.15147,1.01406 3.02535,0.055 z m 2.74915,0.88929 c -0.9407,-0.40914 -1.2343,-1.16941 -1.2343,-3.19619 0,-1.47112 0.0636,-1.82336 0.40819,-2.26146 0.82787,-1.05246 2.18912,-1.38168 3.31203,-0.801 0.76558,0.39589 1.16638,1.23101 1.16638,2.43029 l 0,0.98703 -2.27357,0 -2.27358,0 0.1069,0.79703 c 0.13022,0.97083 0.56554,1.48574 1.46635,1.73447 0.81859,0.22601 1.84857,-0.13054 2.18319,-0.75578 0.11994,-0.22411 0.34691,-0.40748 0.5044,-0.40748 0.36465,0 0.35967,0.0973 -0.0359,0.701 -0.65419,0.99842 -2.06019,1.32441 -3.33009,0.77209 z m 3.26138,-3.90367 c 0,-0.81223 -0.35476,-1.46229 -1.02131,-1.87151 -0.65516,-0.40221 -1.42077,-0.38077 -2.1258,0.0596 -0.47399,0.296 -0.95764,1.19526 -0.95764,1.78054 l 0,0.50737 2.05238,0 c 2.04425,0 2.05237,-0.002 2.05237,-0.47594 z m -92.93179,1.92758 c 1.60839,-0.9674 2.95024,-2.00588 4.04844,-3.13319 0.95395,-0.97921 1.90171,-2.60224 1.90171,-3.2566 0,-0.39855 0.1527,-0.3833 1.69137,0.16897 0.95397,0.3424 1.19131,0.91354 0.78437,1.88749 -0.39665,0.9493 -1.56392,1.86761 -3.59986,2.83204 -1.47219,0.69738 -5.49533,2.19976 -5.89062,2.19976 -0.0532,0 0.42588,-0.31431 1.06459,-0.69847 z m -5.10655,-0.76751 c -0.41792,-0.9919 -0.76797,-3.20373 -0.60794,-3.84135 0.36991,-1.47379 2.88629,-3.58782 5.00971,-4.20867 2.32464,-0.67967 5.19239,-0.23144 7.15403,1.11821 1.00731,0.69305 1.04295,0.88307 0.10425,0.55584 -0.36503,-0.12726 -1.28794,-0.18268 -2.18095,-0.13099 -1.33023,0.077 -1.78593,0.20745 -3.23767,0.92682 -2.15121,1.06596 -4.15869,2.99392 -5.19974,4.99375 l -0.71227,1.36824 -0.32942,-0.78185 z m 43.23118,-4.26099 c -0.43401,-0.31736 -0.35738,-1.27956 0.12601,-1.58223 0.77712,-0.48658 1.50202,0.84378 0.82737,1.51843 -0.38402,0.38402 -0.50443,0.39208 -0.95338,0.0638 z"
       style="fill:#005176;fill-opacity:1" />
  </g>
</svg>
