<?xml version="1.0" encoding="UTF-8" standalone="no"?>
<!-- Created with Inkscape (http://www.inkscape.org/) -->

<svg
   xmlns:dc="http://purl.org/dc/elements/1.1/"
   xmlns:cc="http://creativecommons.org/ns#"
   xmlns:rdf="http://www.w3.org/1999/02/22-rdf-syntax-ns#"
   xmlns:svg="http://www.w3.org/2000/svg"
   xmlns="http://www.w3.org/2000/svg"
   xmlns:sodipodi="http://sodipodi.sourceforge.net/DTD/sodipodi-0.dtd"
   xmlns:inkscape="http://www.inkscape.org/namespaces/inkscape"
   width="65.811852"
   height="70.510147"
   id="svg3861"
   version="1.1"
   inkscape:version="0.48.4 r9939"
   sodipodi:docname="fede-wallonie-bruxelles.svg">
  <defs
     id="defs3863">
    <clipPath
       id="clipPath3121"
       clipPathUnits="userSpaceOnUse">
      <path
         id="path3123"
         d="m 0,0 5457.96,0 0,5857 L 0,5857 0,0 z"
         inkscape:connector-curvature="0" />
    </clipPath>
  </defs>
  <sodipodi:namedview
     id="base"
     pagecolor="#ffffff"
     bordercolor="#666666"
     borderopacity="1.0"
     inkscape:pageopacity="0.0"
     inkscape:pageshadow="2"
     inkscape:zoom="0.37734375"
     inkscape:cx="-174.95121"
     inkscape:cy="226.68365"
     inkscape:document-units="px"
     inkscape:current-layer="layer1"
     showgrid="false"
     inkscape:window-width="476"
     inkscape:window-height="456"
     inkscape:window-x="0"
     inkscape:window-y="21"
     inkscape:window-maximized="0"
     fit-margin-top="0"
     fit-margin-left="0"
     fit-margin-right="0"
     fit-margin-bottom="0" />
  <metadata
     id="metadata3866">
    <rdf:RDF>
      <cc:Work
         rdf:about="">
        <dc:format>image/svg+xml</dc:format>
        <dc:type
           rdf:resource="http://purl.org/dc/dcmitype/StillImage" />
        <dc:title />
      </cc:Work>
    </rdf:RDF>
  </metadata>
  <g
     inkscape:label="Layer 1"
     inkscape:groupmode="layer"
     id="layer1"
     transform="translate(-549.95121,-688.53568)">
    <g
       transform="matrix(0.13252439,0,0,-0.13252439,546.67704,762.62595)"
       inkscape:label="ink_ext_XXXXXX"
       id="g3113"
       style="fill:#00aa5a;fill-opacity:1">
      <g
         transform="scale(0.1,0.1)"
         id="g3115"
         style="fill:#00aa5a;fill-opacity:1">
        <g
           id="g3117"
           style="fill:#00aa5a;fill-opacity:1">
          <g
             clip-path="url(#clipPath3121)"
             id="g3119"
             style="fill:#00aa5a;fill-opacity:1">
            <path
               id="path3125"
               style="fill:#00aa5a;fill-opacity:1;fill-rule:nonzero;stroke:none"
               d="m 278.031,1222.46 214.965,0 0,-47.11 -160.461,0 0,-81.49 140.84,0 0,-44.49 -140.84,0 0,-138.19 -54.504,0 0,311.28"
               inkscape:connector-curvature="0" />
            <path
               id="path3127"
               style="fill:#00aa5a;fill-opacity:1;fill-rule:nonzero;stroke:none"
               d="m 900.004,1315.74 58.851,0 -61.917,-62.31 -36.184,0 39.25,62.31 z m -110.758,-93.28 224.134,0 0,-47.11 -169.607,0 0,-81.49 156.927,0 0,-44.49 -156.927,0 0,-91.132 172.627,0 0,-47.058 -227.154,0 0,311.28"
               inkscape:connector-curvature="0" />
            <path
               id="path3129"
               style="fill:#00aa5a;fill-opacity:1;fill-rule:nonzero;stroke:none"
               d="m 1371.1,955.609 53.64,0 c 85.47,0 103.76,48.851 103.76,111.211 0,62.34 -18.29,111.17 -103.76,111.17 l -53.64,0 0,-222.381 z m -54.53,266.851 129.08,0 c 95.9,0 137.35,-69.78 137.35,-155.64 0,-85.902 -41.45,-155.64 -137.35,-155.64 l -129.08,0 0,311.28"
               inkscape:connector-curvature="0" />
            <path
               id="path3131"
               style="fill:#00aa5a;fill-opacity:1;fill-rule:nonzero;stroke:none"
               d="m 1994.78,1315.74 58.9,0 -61.92,-62.31 -36.18,0 39.2,62.31 z m -110.71,-93.28 224.08,0 0,-47.11 -169.61,0 0,-81.49 156.98,0 0,-44.49 -156.98,0 0,-91.132 172.68,0 0,-47.058 -227.15,0 0,311.28"
               inkscape:connector-curvature="0" />
            <path
               id="path3133"
               style="fill:#00aa5a;fill-opacity:1;fill-rule:nonzero;stroke:none"
               d="m 2465.92,1080.76 89.41,0 c 34.43,0 53.14,16.98 53.14,49.7 0,39.67 -25.71,47.53 -54.06,47.53 l -88.49,0 0,-97.23 z m -54.52,141.7 148.7,0 c 67.99,0 102.92,-31.39 102.92,-84.16 0,-59.72 -41.45,-74.99 -51.46,-78.48 l 0,-0.86 c 18.73,-2.63 46.19,-16.56 46.19,-65.851 0,-36.187 5.27,-69.328 17.04,-81.929 l -58.46,0 c -8.28,13.511 -8.28,30.5 -8.28,45.742 0,57.128 -11.77,82.378 -61.92,82.378 l -80.21,0 0,-128.12 -54.52,0 0,311.28"
               inkscape:connector-curvature="0" />
            <path
               id="path3135"
               style="fill:#00aa5a;fill-opacity:1;fill-rule:nonzero;stroke:none"
               d="m 3035.12,1034.96 95.01,0 -46.64,133.83 -1.31,0 -47.06,-133.83 z m 19.15,187.5 57.99,0 119.88,-311.28 -58.4,0 -29.22,82.371 -124.25,0 -29.22,-82.371 -56.23,0 119.45,311.28"
               inkscape:connector-curvature="0" />
            <path
               id="path3137"
               style="fill:#00aa5a;fill-opacity:1;fill-rule:nonzero;stroke:none"
               d="m 3444.75,1222.46 251.99,0 0,-47.11 -98.94,0 0,-264.17 -54.55,0 0,264.17 -98.5,0 0,47.11"
               inkscape:connector-curvature="0" />
            <path
               id="path3139"
               style="fill:#00aa5a;fill-opacity:1;fill-rule:nonzero;stroke:none"
               d="m 3985.6,911.18 54.5195,0 0,311.281 -54.5195,0 0,-311.281 z"
               inkscape:connector-curvature="0" />
            <path
               id="path3141-5"
               style="fill:#00aa5a;fill-opacity:1;fill-rule:nonzero;stroke:none"
               d="m 4397.5,1066.82 c 0,-59.74 27.89,-118.59 94.57,-118.59 66.73,0 94.64,58.85 94.64,118.59 0,59.71 -27.91,118.59 -94.64,118.59 -66.68,0 -94.57,-58.88 -94.57,-118.59 z m 243.69,0 c 0,-88.961 -55.78,-163.082 -149.12,-163.082 -93.26,0 -149.07,74.121 -149.07,163.082 0,88.93 55.81,163.06 149.07,163.06 93.34,0 149.12,-74.13 149.12,-163.06"
               inkscape:connector-curvature="0" />
            <path
               id="path3143"
               style="fill:#00aa5a;fill-opacity:1;fill-rule:nonzero;stroke:none"
               d="m 4941.36,1222.46 57.57,0 142.12,-229.351 0.87,0 0,229.351 51.88,0 0,-311.28 -57.52,0 -141.75,228.87 -1.26,0 0,-228.87 -51.91,0 0,311.28"
               inkscape:connector-curvature="0" />
            <path
               id="path3145"
               style="fill:#00aa5a;fill-opacity:1;fill-rule:nonzero;stroke:none"
               d="m 247.062,535.641 46.168,0 46.825,-198.301 0.73,0 52.328,198.301 46.489,0 50.832,-198.301 0.703,0 48.293,198.301 46.172,0 -71.563,-259.313 -46.113,0 -51.965,198.301 -0.731,0 -53.007,-198.301 -46.875,0 -68.286,259.313"
               inkscape:connector-curvature="0" />
            <path
               id="path3147"
               style="fill:#00aa5a;fill-opacity:1;fill-rule:nonzero;stroke:none"
               d="m 710.219,379.469 79.16,0 -38.859,111.519 -1.102,0 -39.199,-111.519 z m 15.98,156.172 48.293,0 99.887,-259.313 -48.66,0 -24.367,68.664 -103.477,0 -24.363,-68.664 -46.852,0 99.539,259.313"
               inkscape:connector-curvature="0" />
            <path
               id="path3149"
               style="fill:#00aa5a;fill-opacity:1;fill-rule:nonzero;stroke:none"
               d="m 949.633,535.641 45.383,0 0,-220.082 131.874,0 0,-39.231 -177.257,0 0,259.313"
               inkscape:connector-curvature="0" />
            <path
               id="path3151"
               style="fill:#00aa5a;fill-opacity:1;fill-rule:nonzero;stroke:none"
               d="m 1208.62,535.641 45.38,0 0,-220.082 131.88,0 0,-39.231 -177.26,0 0,259.313"
               inkscape:connector-curvature="0" />
            <path
               id="path3153"
               style="fill:#00aa5a;fill-opacity:1;fill-rule:nonzero;stroke:none"
               d="m 1499.18,406.012 c 0,-49.75 23.27,-98.813 78.84,-98.813 55.58,0 78.8,49.063 78.8,98.813 0,49.769 -23.22,98.789 -78.8,98.789 -55.57,0 -78.84,-49.02 -78.84,-98.789 z m 203.04,0 c 0,-74.102 -46.48,-135.864 -124.2,-135.864 -77.74,0 -124.25,61.762 -124.25,135.864 0,74.078 46.51,135.84 124.25,135.84 77.72,0 124.2,-61.762 124.2,-135.84"
               inkscape:connector-curvature="0" />
            <path
               id="path3155"
               style="fill:#00aa5a;fill-opacity:1;fill-rule:nonzero;stroke:none"
               d="m 1792.36,535.641 47.92,0 118.42,-191.02 0.7,0 0,191.02 43.24,0 0,-259.313 -47.96,0 -118.03,190.711 -1.11,0 0,-190.711 -43.18,0 0,259.313"
               inkscape:connector-curvature="0" />
            <path
               id="path3157"
               style="fill:#00aa5a;fill-opacity:1;fill-rule:nonzero;stroke:none"
               d="m 2106.92,276.328 45.4102,0 0,259.312 -45.4102,0 0,-259.312 z"
               inkscape:connector-curvature="0" />
            <path
               id="path3159"
               style="fill:#00aa5a;fill-opacity:1;fill-rule:nonzero;stroke:none"
               d="m 2258.4,535.641 186.72,0 0,-39.2 -141.31,0 0,-67.921 130.77,0 0,-37.051 -130.77,0 0,-75.91 143.88,0 0,-39.231 -189.29,0 0,259.313"
               inkscape:connector-curvature="0" />
            <path
               id="path3161"
               style="fill:#00aa5a;fill-opacity:1;fill-rule:nonzero;stroke:none"
               d="m 2527.97,391.582 105.68,0 0,45.0977 -105.68,0 0,-45.0977 z"
               inkscape:connector-curvature="0" />
            <path
               id="path3163"
               style="fill:#00aa5a;fill-opacity:1;fill-rule:nonzero;stroke:none"
               d="m 2774.96,313.359 80.31,0 c 27.57,0 43.54,14.911 43.54,41.063 0,25.449 -15.97,39.957 -43.54,39.957 l -80.31,0 0,-81.02 z m 0,113.7 74.1,0 c 21.79,0 38.12,12.73 38.12,35.941 0,26.16 -13.43,35.641 -38.12,35.641 l -74.1,0 0,-71.582 z m -45.41,108.582 126.03,0 c 46.51,0 77.01,-21.02 77.01,-64.25 0,-26.153 -13.43,-45.02 -37.02,-55.211 l 0,-0.75 c 31.57,-6.871 48.65,-31.61 48.65,-66.828 0,-40.661 -28.32,-72.274 -95.52,-72.274 l -119.15,0 0,259.313"
               inkscape:connector-curvature="0" />
            <path
               id="path3165"
               style="fill:#00aa5a;fill-opacity:1;fill-rule:nonzero;stroke:none"
               d="m 3081.19,417.621 74.44,0 c 28.72,0 44.31,14.18 44.31,41.399 0,33.082 -21.41,39.621 -45.02,39.621 l -73.73,0 0,-81.02 z m -45.41,118.02 123.86,0 c 56.67,0 85.71,-26.153 85.71,-70.071 0,-49.75 -34.49,-62.492 -42.85,-65.371 l 0,-0.738 c 15.6,-2.199 38.5,-13.813 38.5,-54.84 0,-30.16 4.35,-57.75 14.15,-68.293 l -48.69,0 c -6.88,11.274 -6.88,25.422 -6.88,38.133 0,47.621 -9.81,68.68 -51.58,68.68 l -66.81,0 0,-106.813 -45.41,0 0,259.313"
               inkscape:connector-curvature="0" />
            <path
               id="path3167"
               style="fill:#00aa5a;fill-opacity:1;fill-rule:nonzero;stroke:none"
               d="m 3339.08,535.641 45.41,0 0,-151.082 c 0,-34.86 2.22,-75.149 61.04,-75.149 58.86,0 61.03,40.289 61.03,75.149 l 0,151.082 45.39,0 0,-165.95 c 0,-66.492 -42.5,-99.543 -106.42,-99.543 -63.93,0 -106.45,33.051 -106.45,99.543 l 0,165.95"
               inkscape:connector-curvature="0" />
            <path
               id="path3169"
               style="fill:#00aa5a;fill-opacity:1;fill-rule:nonzero;stroke:none"
               d="m 3632.25,535.641 54.11,0 58.85,-91.5 61.37,91.5 50.86,0 -85.71,-124.911 91.9,-134.402 -55.24,0 -64.64,99.16 -65.75,-99.16 -51.93,0 91.89,134.402 -85.71,124.911"
               inkscape:connector-curvature="0" />
            <path
               id="path3171"
               style="fill:#00aa5a;fill-opacity:1;fill-rule:nonzero;stroke:none"
               d="m 3940.63,535.641 186.72,0 0,-39.2 -141.34,0 0,-67.921 130.78,0 0,-37.051 -130.78,0 0,-75.91 143.89,0 0,-39.231 -189.27,0 0,259.313"
               inkscape:connector-curvature="0" />
            <path
               id="path3173"
               style="fill:#00aa5a;fill-opacity:1;fill-rule:nonzero;stroke:none"
               d="m 4220,535.641 45.39,0 0,-220.082 131.85,0 0,-39.231 -177.24,0 0,259.313"
               inkscape:connector-curvature="0" />
            <path
               id="path3175"
               style="fill:#00aa5a;fill-opacity:1;fill-rule:nonzero;stroke:none"
               d="m 4478.99,535.641 45.38,0 0,-220.082 131.86,0 0,-39.231 -177.24,0 0,259.313"
               inkscape:connector-curvature="0" />
            <path
               id="path3177"
               style="fill:#00aa5a;fill-opacity:1;fill-rule:nonzero;stroke:none"
               d="m 4737.95,535.641 186.72,0 0,-39.2 -141.31,0 0,-67.921 130.78,0 0,-37.051 -130.78,0 0,-75.91 143.88,0 0,-39.231 -189.29,0 0,259.313"
               inkscape:connector-curvature="0" />
            <path
               id="path3179"
               style="fill:#00aa5a;fill-opacity:1;fill-rule:nonzero;stroke:none"
               d="m 5047.11,362.809 c 0,-39.989 29.43,-55.61 65.75,-55.61 39.93,0 54.81,19.629 54.81,39.231 0,19.988 -10.87,27.961 -21.41,31.961 -18.18,6.898 -41.76,11.64 -77.37,21.41 -44.29,12 -57.38,38.89 -57.38,65.769 0,51.942 47.98,76.282 94.77,76.282 54.16,0 99.57,-28.692 99.57,-82.832 l -45.41,0 c -2.17,33.441 -24.73,45.781 -55.94,45.781 -21.04,0 -47.58,-7.633 -47.58,-33.801 0,-18.16 12.33,-28.332 30.89,-33.391 3.95,-1.07 61.39,-15.98 74.8,-19.988 34.15,-10.16 50.47,-39.23 50.47,-66.082 0,-58.121 -51.54,-81.391 -103.15,-81.391 -59.19,0 -107.12,28.352 -108.2,92.661 l 45.38,0"
               inkscape:connector-curvature="0" />
            <path
               id="path3181"
               style="fill:#00aa5a;fill-opacity:1;fill-rule:evenodd;stroke:none"
               d="m 1038.54,5500.25 c 9.38,52.18 213.97,197.62 537.99,-48.01 175.24,-143.06 219.27,-472.1 23.22,-748.75 -139.56,-211.86 -580.68,-735.19 -331.47,-1383.16 112.15,-289.05 519.18,-1194.58 389.58,-1264.37 -107.59,-50.62 -933.7,1065.02 -1008.485,1668.08 -85.156,947.18 863.115,1525.24 491.825,1691.32 -49.21,20.86 -111.36,36.88 -102.66,84.89"
               inkscape:connector-curvature="0" />
            <path
               id="path3183"
               style="fill:#00aa5a;fill-opacity:1;fill-rule:evenodd;stroke:none"
               d="M 3454.58,5308.64 C 2319.14,5258 2101.37,3773.26 2117.67,3275.86 c 0.73,-83.93 20.9,-269.6 -77.43,-144.68 -54.84,85.76 -227.57,324.47 -277.94,389.67 -44.75,57.5 -162.03,53.57 -135.99,-69.37 8.76,-42.01 139.19,-542.43 300.52,-736 78.95,-107.9 423.52,-305.99 550.65,188.03 108.32,376.92 38.62,1934.28 1296.06,2046.12 97.66,0.57 123.17,125.38 81.62,204.2 -33.33,60.56 -185.33,164.32 -400.58,154.81"
               inkscape:connector-curvature="0" />
            <path
               id="path3185"
               style="fill:#00aa5a;fill-opacity:1;fill-rule:evenodd;stroke:none"
               d="m 3172.06,2175.92 c 123.93,-58.17 273.42,-91.73 455.27,-91.58 260.59,-6.15 1040.9,122.39 1182.63,798.6 22.16,104.2 133.66,795.52 -703.68,1057.36 -41.05,12.68 -50.59,44.28 -12.67,82.21 94.74,95.58 432.28,580.73 -65.57,851.17 -48.15,20.47 -111.15,11.73 -109.26,-67.62 12.42,-535.53 -388.59,-738.51 -767.63,-732.38 -45.68,-44.3 -8.44,-297.04 294.83,-304.22 145.42,-12.62 392.07,10.3 581.49,-277.8 324.65,-579.03 -342.71,-1027.59 -798.05,-768.13 -17.06,10.2 -39.88,26.83 -57.63,40.06 0,-45.38 0.27,-587.67 0.27,-587.67"
               inkscape:connector-curvature="0" />
          </g>
        </g>
      </g>
    </g>
  </g>
</svg>
