<?xml version="1.0" encoding="UTF-8" standalone="no"?>
<!-- Created with Inkscape (http://www.inkscape.org/) -->

<svg
   xmlns:dc="http://purl.org/dc/elements/1.1/"
   xmlns:cc="http://creativecommons.org/ns#"
   xmlns:rdf="http://www.w3.org/1999/02/22-rdf-syntax-ns#"
   xmlns:svg="http://www.w3.org/2000/svg"
   xmlns="http://www.w3.org/2000/svg"
   xmlns:sodipodi="http://sodipodi.sourceforge.net/DTD/sodipodi-0.dtd"
   xmlns:inkscape="http://www.inkscape.org/namespaces/inkscape"
   width="100"
   height="46.150814"
   id="svg3555"
   version="1.1"
   inkscape:version="0.48.4 r9939"
   sodipodi:docname="gracq.svg">
  <defs
     id="defs3557" />
  <sodipodi:namedview
     id="base"
     pagecolor="#ffffff"
     bordercolor="#666666"
     borderopacity="1.0"
     inkscape:pageopacity="0.0"
     inkscape:pageshadow="2"
     inkscape:zoom="1.0672893"
     inkscape:cx="-229.80468"
     inkscape:cy="93.22149"
     inkscape:document-units="px"
     inkscape:current-layer="layer1"
     showgrid="false"
     inkscape:window-width="1276"
     inkscape:window-height="775"
     inkscape:window-x="0"
     inkscape:window-y="21"
     inkscape:window-maximized="1"
     fit-margin-top="0"
     fit-margin-left="0"
     fit-margin-right="0"
     fit-margin-bottom="0" />
  <metadata
     id="metadata3560">
    <rdf:RDF>
      <cc:Work
         rdf:about="">
        <dc:format>image/svg+xml</dc:format>
        <dc:type
           rdf:resource="http://purl.org/dc/dcmitype/StillImage" />
        <dc:title />
      </cc:Work>
    </rdf:RDF>
  </metadata>
  <g
     inkscape:label="Layer 1"
     inkscape:groupmode="layer"
     id="layer1"
     transform="translate(-539.40614,-640.11073)">
    <path
       style="fill:#000000;fill-opacity:1;stroke:none"
       d="m 588.3108,686.13592 c -0.10512,-0.16039 -0.1537,-0.1719 -0.70053,-0.16629 -0.64559,0.006 -0.93779,-0.0829 -1.31896,-0.4043 -0.36583,-0.30845 -0.53762,-0.70637 -0.53762,-1.24521 0,-0.9969 0.66114,-1.63417 1.6953,-1.63417 0.25653,0 0.56929,0.0431 0.69504,0.0958 1.05746,0.44311 1.36279,1.77825 0.60385,2.64044 l -0.28685,0.32592 0.15356,0.16347 c 0.12102,0.12881 0.13426,0.17846 0.0625,0.23413 -0.2024,0.15679 -0.25804,0.15533 -0.36621,-0.01 z m -0.6233,-0.52908 c 0.0672,-0.0426 0.0725,-0.0758 0.0178,-0.1097 -0.1221,-0.0755 -0.0932,-0.16814 0.0685,-0.21947 0.0942,-0.03 0.19682,0 0.28496,0.078 0.13201,0.11947 0.14551,0.1175 0.32401,-0.0469 0.79881,-0.73576 0.45337,-1.98011 -0.63073,-2.27207 -0.51339,-0.13822 -1.14584,0.11588 -1.45636,0.5851 -0.3926,0.59327 -0.18094,1.49546 0.42427,1.80841 0.4335,0.22417 0.78985,0.28925 0.96754,0.17665 z m -39.07468,0.34793 c -0.36326,-0.063 -0.63461,-0.19155 -0.95019,-0.45018 -0.18246,-0.14952 -0.19813,-0.18857 -0.11565,-0.28794 0.12053,-0.14523 0.24776,-0.14633 0.36654,-0.005 0.21094,0.25418 0.65866,0.41249 1.16803,0.41303 0.80028,0 1.26014,-0.30739 1.1447,-0.76732 -0.0818,-0.32601 -0.34518,-0.42666 -1.22561,-0.46844 -0.92821,-0.044 -1.15168,-0.14996 -1.26564,-0.59995 -0.0896,-0.35347 0.10342,-0.72143 0.49395,-0.94196 0.41628,-0.23511 1.27539,-0.22925 1.79403,0.0123 0.40284,0.18754 0.40829,0.19466 0.30143,0.39437 -0.0687,0.12838 -0.086,0.12626 -0.43254,-0.0536 -0.81711,-0.42396 -1.96544,-0.0995 -1.81198,0.51199 0.0574,0.2283 0.32541,0.30771 1.15273,0.34139 0.79435,0.0322 1.13512,0.16807 1.29328,0.51519 0.39878,0.87521 -0.61565,1.60932 -1.91308,1.38433 z m 5.77244,-0.005 c -0.78728,-0.15475 -1.28122,-0.68438 -1.34177,-1.43875 -0.0636,-0.79238 0.20987,-1.32229 0.84595,-1.63929 0.64723,-0.32249 1.59162,-0.22876 2.17456,0.21586 0.22327,0.17031 0.23332,0.19392 0.12746,0.29977 -0.10586,0.10588 -0.14176,0.0999 -0.45539,-0.0764 -0.79127,-0.44478 -1.53434,-0.38875 -2.02342,0.15263 -0.57969,0.64167 -0.38071,1.60695 0.4173,2.02432 0.52926,0.27681 1.32787,0.1589 1.79077,-0.26441 0.15801,-0.14452 0.16191,-0.14464 0.26417,-0.009 0.057,0.0754 0.10482,0.15685 0.10606,0.18084 0.003,0.0623 -0.49732,0.39807 -0.70825,0.47518 -0.29104,0.10638 -0.86687,0.14473 -1.19744,0.0798 z m 7.31824,0 c -0.78729,-0.15475 -1.28123,-0.68438 -1.34178,-1.43875 -0.063,-0.78575 0.21775,-1.32623 0.85373,-1.64314 0.63918,-0.31851 1.58717,-0.22241 2.16678,0.21971 0.22328,0.17031 0.23332,0.19392 0.12747,0.29977 -0.10587,0.10588 -0.14177,0.0999 -0.45541,-0.0764 -0.79127,-0.44478 -1.53431,-0.38875 -2.0234,0.15263 -0.5797,0.64167 -0.38071,1.60695 0.41729,2.02432 0.52925,0.27681 1.32787,0.15884 1.79077,-0.26441 0.15801,-0.14452 0.16191,-0.14464 0.26418,-0.009 0.0571,0.0754 0.10481,0.15685 0.10606,0.18084 0.004,0.0623 -0.49732,0.39807 -0.70825,0.47518 -0.29105,0.10638 -0.86688,0.14473 -1.19744,0.0798 z m 8.67676,0.005 c -0.40008,-0.0809 -0.74675,-0.25086 -0.94778,-0.46483 -0.15186,-0.16163 -0.15563,-0.18394 -0.049,-0.29061 0.10662,-0.10662 0.13259,-0.10109 0.3382,0.0719 0.83298,0.70088 2.45772,0.36288 2.24919,-0.46791 -0.0714,-0.28467 -0.42809,-0.40922 -1.17165,-0.40922 -0.98449,0 -1.29057,-0.17855 -1.29057,-0.75283 0,-0.64014 0.44998,-0.95297 1.36917,-0.9517 0.39465,0 0.6001,0.041 0.88669,0.17436 0.36469,0.16978 0.44734,0.29061 0.29973,0.43819 -0.0504,0.0504 -0.18523,0.018 -0.43094,-0.10367 -0.65136,-0.32236 -1.56028,-0.19413 -1.76201,0.24861 -0.0675,0.14801 -0.0624,0.21492 0.0266,0.35069 0.13199,0.20146 0.23114,0.22499 1.10324,0.26191 1.01107,0.0428 1.34956,0.27186 1.34956,0.91319 0,0.58185 -0.43244,0.92145 -1.2789,1.00437 -0.21493,0.021 -0.52612,0.011 -0.69153,-0.0225 z m 10.90314,0.005 c -0.34955,-0.0615 -0.8783,-0.33064 -1.04562,-0.53222 -0.0795,-0.0958 -0.0778,-0.13129 0.0107,-0.21974 0.0933,-0.0933 0.15254,-0.0771 0.51227,0.13944 0.22782,0.13719 0.55397,0.26519 0.74135,0.29098 0.845,0.11619 1.60306,-0.35466 1.37539,-0.85438 -0.12245,-0.26871 -0.48433,-0.38707 -1.18359,-0.38707 -0.68912,0 -1.02947,-0.10855 -1.21149,-0.38635 -0.26988,-0.41187 0.0424,-1.07305 0.59263,-1.25462 0.40384,-0.13326 1.3494,-0.0509 1.70407,0.14838 0.33168,0.18644 0.33653,0.19548 0.20109,0.37393 -0.0891,0.11739 -0.11486,0.11346 -0.43701,-0.0667 -0.78352,-0.43791 -1.93297,-0.10192 -1.77701,0.51944 0.0576,0.22921 0.29478,0.31021 0.91458,0.31234 1.1859,0.005 1.73773,0.39989 1.57707,1.13134 -0.12719,0.57908 -1.05286,0.9472 -1.97442,0.78517 z m 9.96692,-0.005 c -0.39609,-0.0801 -0.63805,-0.25217 -0.79931,-0.56844 -0.10405,-0.20403 -0.12425,-0.44282 -0.12435,-1.46927 l -1.3e-4,-1.2256 0.17761,0 0.17763,0 0,1.17589 c 0,1.32091 0.0495,1.50887 0.44073,1.6739 0.12883,0.0544 0.39412,0.0988 0.58952,0.0988 0.19538,0 0.46066,-0.0445 0.58952,-0.0988 0.40597,-0.17125 0.472,-0.39534 0.49953,-1.69523 0.0229,-1.08138 0.0331,-1.15456 0.16045,-1.15456 0.12887,0 0.13598,0.0664 0.13598,1.26838 0,1.19913 -0.009,1.28165 -0.16079,1.50987 -0.28157,0.42272 -0.98869,0.6261 -1.68642,0.48506 z m 4.334,0 c -0.42812,-0.0857 -0.83893,-0.38662 -1.09648,-0.80321 -0.18057,-0.29203 -0.21169,-0.41344 -0.21169,-0.82552 0,-0.41208 0.0311,-0.53347 0.21169,-0.82552 0.11644,-0.18831 0.34941,-0.43921 0.51773,-0.5575 0.26426,-0.18573 0.38089,-0.21848 0.85451,-0.23997 0.60954,-0.0278 0.89086,0.0558 1.27271,0.37778 0.36976,0.31177 0.54227,0.70788 0.54227,1.24521 0,1.1105 -0.95653,1.85568 -2.09075,1.62872 z m 0.74604,-0.35715 c 0.39763,-0.10863 0.73828,-0.38688 0.8943,-0.73044 0.34861,-0.76768 -0.0784,-1.59078 -0.94651,-1.82454 -0.51339,-0.13822 -1.14584,0.11583 -1.45636,0.5851 -0.3926,0.59323 -0.18093,1.49541 0.42427,1.80837 0.46939,0.24275 0.67481,0.27332 1.0843,0.16151 z m 21.84123,0.36307 c -0.36328,-0.063 -0.63463,-0.19154 -0.95021,-0.45017 -0.18246,-0.14952 -0.19813,-0.18853 -0.11564,-0.28795 0.12053,-0.14522 0.24774,-0.14632 0.36654,-0.005 0.21093,0.25419 0.65867,0.4125 1.16802,0.41303 0.80029,0 1.26014,-0.30742 1.14471,-0.76731 -0.0818,-0.32602 -0.34518,-0.42666 -1.22562,-0.46845 -0.9282,-0.044 -1.15168,-0.14996 -1.26564,-0.59994 -0.0895,-0.35347 0.10343,-0.72143 0.49395,-0.94197 0.41629,-0.23511 1.2754,-0.22924 1.79404,0.0123 0.40284,0.18754 0.40828,0.19466 0.30142,0.39436 -0.0687,0.12839 -0.086,0.12627 -0.43253,-0.0535 -0.81712,-0.42395 -1.96545,-0.0995 -1.81198,0.512 0.0574,0.22831 0.3254,0.30771 1.15272,0.34135 0.79436,0.0323 1.13512,0.16814 1.29328,0.51523 0.39879,0.87524 -0.61566,1.60932 -1.91306,1.38438 z m 9.0901,-0.0262 c -0.3439,-0.0752 -0.92035,-0.38297 -1.02038,-0.54481 -0.0169,-0.0274 0.0328,-0.10723 0.11043,-0.17751 0.13619,-0.12324 0.14679,-0.12263 0.30029,0.0177 0.39523,0.36137 0.97562,0.50073 1.57057,0.37726 0.4996,-0.10372 0.77301,-0.34419 0.74228,-0.65293 -0.0394,-0.39521 -0.29678,-0.51264 -1.2202,-0.55648 -0.93172,-0.0442 -1.1311,-0.1331 -1.25949,-0.56164 -0.11269,-0.37615 0.0698,-0.75909 0.46807,-0.98236 0.41707,-0.23383 1.27685,-0.2274 1.79403,0.0136 0.40284,0.18755 0.40829,0.19466 0.30143,0.39433 -0.0687,0.12843 -0.086,0.1263 -0.43253,-0.0535 -0.81712,-0.42396 -1.96544,-0.0995 -1.81199,0.51199 0.0572,0.22769 0.3251,0.30763 1.14376,0.34123 1.01754,0.0417 1.38595,0.2861 1.38524,0.91876 -7.3e-4,0.73882 -0.9846,1.19215 -2.07151,0.95456 z m -86.45755,-1.60825 0,-1.63421 0.17615,0 0.17615,0 0.0192,1.43881 0.0192,1.43876 1.01247,0.0197 1.01248,0.0197 0,0.17568 0,0.17571 -1.20787,0 -1.20786,0 0,-1.63417 z m 3.26833,0 0,-1.63421 1.31445,0 1.31443,0 0,0.17764 0,0.17764 -1.13681,0 -1.13682,0 0,0.5329 0,0.53287 0.60394,0 c 0.59681,0 0.60393,0.005 0.60393,0.17763 0,0.17551 -0.007,0.1776 -0.60393,0.1776 l -0.60394,0 0,0.56843 0,0.56841 1.17234,0 1.17235,0 0,0.17762 0,0.17764 -1.34997,0 -1.34997,0 0,-1.63417 z m 14.13784,0.87037 -0.002,-0.76383 -0.53587,-0.67492 c -0.2947,-0.37129 -0.60005,-0.76294 -0.67854,-0.87038 l -0.14271,-0.19545 0.23576,0.005 c 0.21179,0.005 0.28857,0.0726 0.75525,0.67497 0.28573,0.36878 0.54151,0.66917 0.56842,0.66758 0.0269,0 0.28242,-0.30538 0.56784,-0.67498 0.44724,-0.5792 0.54787,-0.67203 0.72827,-0.67203 0.11514,0 0.20934,0.0171 0.20934,0.0376 0,0.021 -0.30375,0.41613 -0.67499,0.87864 l -0.67499,0.84091 0,0.75548 0,0.75553 -0.17762,0 -0.17763,0 -0.002,-0.7638 z m 6.4669,-0.87037 0,-1.63421 0.17763,0 0.17762,0 0,1.45657 0,1.45655 1.03023,0 1.03024,0 0,0.17762 0,0.17764 -1.20786,0 -1.20786,0 0,-1.63417 z m 3.26833,0 0,-1.63421 0.17764,0 0.17762,0 0,1.63421 0,1.63417 -0.17762,0 -0.17764,0 0,-1.63417 z m 6.30724,0.19536 -0.0192,-1.43878 -0.58618,-0.0204 c -0.56971,-0.02 -0.58617,-0.0254 -0.58617,-0.19536 l 0,-0.17477 1.34997,0 1.34997,0 0,0.17477 c 0,0.16982 -0.0165,0.17529 -0.58618,0.19536 l -0.58616,0.0204 -0.0192,1.43878 c -0.0184,1.37476 -0.0254,1.43881 -0.15838,1.43881 -0.13296,0 -0.14002,-0.0641 -0.1584,-1.43881 z m 2.50307,-0.19536 0,-1.63421 1.31444,0 1.31444,0 0,0.17764 0,0.17764 -1.13682,0 -1.13681,0 0,0.5329 0,0.53287 0.56841,0 c 0.55893,0 0.5684,0.005 0.5684,0.17763 0,0.17465 -0.009,0.1776 -0.5684,0.1776 l -0.56841,0 0,0.56843 0,0.56841 1.17234,0 1.17234,0 0,0.17762 0,0.17764 -1.34996,0 -1.34997,0 0,-1.63417 z m 22.73626,0.17764 0,-1.45657 -0.5684,0 c -0.55894,0 -0.56841,-0.005 -0.56841,-0.17764 l 0,-0.17764 1.34997,0 1.34996,0 0,0.17477 c 0,0.16986 -0.0165,0.17534 -0.58617,0.19541 l -0.58617,0.0205 -0.0192,1.43876 -0.0192,1.43877 -0.17615,0 -0.17617,0 0,-1.45653 z m 2.55783,-0.17764 c 0,-1.58681 0.005,-1.63421 0.1421,-1.63421 0.13799,0 0.14211,0.0474 0.14211,1.63421 0,1.58677 -0.005,1.63417 -0.14211,1.63417 -0.13798,0 -0.1421,-0.0474 -0.1421,-1.63417 z m 1.63417,0.007 0,-1.64207 0.73634,0 c 1.3334,0 1.79776,0.18099 2.10788,0.82159 0.31091,0.64223 0.24789,1.41564 -0.1552,1.90463 -0.36267,0.44 -0.54196,0.49656 -1.67655,0.52898 l -1.01247,0.029 0,-1.64207 z m 1.89598,1.19523 c 0.44325,-0.16793 0.80395,-0.70775 0.80395,-1.20313 0,-0.52628 -0.38949,-1.07507 -0.85852,-1.20956 -0.13301,-0.0381 -0.52181,-0.0693 -0.86399,-0.0693 l -0.62217,0 0,1.27894 0,1.2789 0.67037,0 c 0.36869,0 0.76035,-0.034 0.87036,-0.0758 z m 2.29603,-1.20313 c 0,-1.58681 0.005,-1.63417 0.14209,-1.63417 0.13798,0 0.1421,0.0474 0.1421,1.63417 0,1.58681 -0.005,1.63416 -0.1421,1.63416 -0.13798,0 -0.14209,-0.0474 -0.14209,-1.63416 z m 1.63417,0 0,-1.63417 1.31443,0 1.31444,0 0,0.1776 0,0.17764 -1.13682,0 -1.13681,0 0,0.5329 0,0.53286 0.60394,0 c 0.59681,0 0.60393,0.005 0.60393,0.17764 0,0.17554 -0.007,0.17764 -0.60393,0.17764 l -0.60394,0 0,0.5684 0,0.56839 1.17235,0 1.17233,0 0,0.17763 0,0.17763 -1.34997,0 -1.34995,0 0,-1.63416 z m 3.76569,0 0,-1.63417 0.15985,0.005 c 0.12193,0.005 0.40243,0.31389 1.18183,1.31443 0.56208,0.72158 1.04965,1.31197 1.08352,1.31197 0.0339,0 0.0616,-0.59152 0.0616,-1.31447 0,-1.26707 0.005,-1.31442 0.14209,-1.31442 0.13798,0 0.1421,0.0474 0.1421,1.63417 l 0,1.63415 -0.15986,0 c -0.12256,0 -0.40032,-0.30656 -1.1901,-1.31188 -0.56664,-0.72127 -1.05422,-1.31253 -1.08352,-1.31393 -0.0293,0 -0.0533,0.58895 -0.0533,1.31189 0,1.26707 -0.005,1.31446 -0.1421,1.31446 -0.13799,0 -0.1421,-0.0474 -0.1421,-1.63416 z m 9.04279,1.54461 c 0.019,-0.0488 0.36388,-0.78421 0.76639,-1.63416 0.67565,-1.4267 0.74587,-1.54519 0.91449,-1.54315 0.16136,0 0.21933,0.0826 0.49803,0.69275 0.17347,0.37978 0.51585,1.11419 0.76085,1.63195 l 0.44546,0.94144 -0.20894,0 c -0.19219,0 -0.22983,-0.0457 -0.46878,-0.5684 l -0.25984,-0.56844 -0.78943,0 -0.78943,0 -0.26109,0.5675 c -0.23158,0.50331 -0.28263,0.56744 -0.45168,0.56744 -0.12352,0 -0.17843,-0.031 -0.15603,-0.0888 z m 2.25429,-1.43168 c 0,-0.0705 -0.57411,-1.26806 -0.5959,-1.24304 -0.0135,0.0156 -0.1546,0.30783 -0.31362,0.64975 l -0.28914,0.62173 0.59933,0 c 0.32963,0 0.59933,-0.0127 0.59933,-0.0287 z m 5.75511,-0.10532 0,-1.64251 0.87037,0.005 c 1.14222,0.005 1.45378,0.0674 1.70321,0.34659 0.15726,0.176 0.1974,0.28975 0.1974,0.55926 0,0.19258 -0.0481,0.40701 -0.11164,0.49772 -0.10451,0.14922 -0.1,0.17329 0.071,0.37651 0.1457,0.17317 0.18225,0.29153 0.18044,0.58468 -0.003,0.39935 -0.0661,0.52031 -0.38247,0.72627 -0.17652,0.11493 -0.37858,0.13899 -1.36773,0.16286 l -1.16062,0.0282 0,-1.64251 z m 2.3768,1.13139 c 0.18335,-0.15231 0.25884,-0.40218 0.18232,-0.60348 -0.11795,-0.31019 -0.40498,-0.39415 -1.34773,-0.39415 l -0.85614,0 0,0.57536 0,0.5754 0.94838,-0.0251 c 0.69764,-0.018 0.98137,-0.0521 1.07317,-0.12835 z m -0.14829,-1.50012 c 0.2377,-0.18701 0.25601,-0.55002 0.0377,-0.74767 -0.12631,-0.11436 -0.28614,-0.13925 -1.03023,-0.1604 l -0.88073,-0.025 0,0.54016 0,0.54019 0.84303,0 c 0.7453,0 0.86474,-0.0171 1.03024,-0.14723 z m 1.82138,0.36039 0,-1.63417 0.17616,0 0.17616,0 0.0192,1.43876 0.0192,1.43881 1.01248,0.0197 1.01247,0.0197 0,0.17567 0,0.17567 -1.20787,0 -1.20786,0 0,-1.63417 z m 2.09601,-5.82986 c -1.21027,-0.12411 -1.70948,-0.39116 -2.88872,-1.54526 l -0.6151,-0.60199 -0.59276,0.097 c -0.81465,0.13332 -2.42569,0.11637 -3.22166,-0.034 -2.53872,-0.47917 -4.45683,-1.77943 -5.71638,-3.87515 -1.58324,-2.6343 -1.46479,-6.42589 0.28232,-9.0375 0.44558,-0.66605 1.63988,-1.80607 2.3565,-2.24934 1.54338,-0.95477 3.16768,-1.35126 5.20909,-1.27148 1.93798,0.0757 3.48019,0.58663 4.86698,1.61259 0.59311,0.43876 1.45346,1.32925 1.8437,1.90823 0.98697,1.46432 1.50933,3.43213 1.39176,5.24296 -0.17105,2.63454 -1.26957,4.69094 -3.335,6.24304 l -0.27714,0.20824 -0.48654,-0.53171 c -0.26762,-0.29245 -0.4866,-0.55145 -0.48665,-0.57556 -6e-5,-0.0241 0.13578,-0.13334 0.30187,-0.24271 0.16608,-0.10936 0.52135,-0.40938 0.78949,-0.66666 2.15562,-2.06848 2.70299,-5.36219 1.34115,-8.07024 -0.51982,-1.03364 -1.51345,-2.10719 -2.49193,-2.69229 -1.91405,-1.14452 -4.46081,-1.37147 -6.55657,-0.58427 -2.19265,0.8236 -3.77817,2.65296 -4.3028,4.96455 -0.18369,0.80936 -0.1646,2.27006 0.0402,3.07241 0.19526,0.76522 0.66994,1.80406 1.0991,2.4055 0.42532,0.59601 1.25515,1.36921 1.90254,1.77274 1.68206,1.04838 3.84496,1.36268 5.87257,0.85335 l 0.44777,-0.11247 1.47103,1.44941 c 1.76408,1.73817 1.96174,1.86849 2.85652,1.88351 0.79968,0.0136 0.78155,0.0107 0.78155,0.12647 0,0.21378 -0.97548,0.34355 -1.88285,0.25049 z m -89.43583,-1.99303 c -1.78448,-0.19725 -3.47025,-0.89736 -4.80879,-1.99706 -2.66567,-2.19008 -3.58408,-6.3098 -2.14817,-9.63612 1.03136,-2.38921 3.24184,-4.10118 6.08719,-4.71443 0.91991,-0.19823 2.69243,-0.24751 3.64709,-0.10131 1.76467,0.27018 3.27806,1.0095 4.6935,2.29289 0.45548,0.41299 0.45213,0.44852 -0.0986,1.04486 l -0.38499,0.41683 -0.48252,-0.43909 c -1.53262,-1.39465 -3.10232,-1.99321 -5.22701,-1.99321 -3.19611,0 -5.58124,1.35442 -6.80181,3.86247 -1.55443,3.19406 -0.42308,7.10257 2.56902,8.87521 1.74243,1.03229 4.27658,1.31242 6.52351,0.72106 1.20504,-0.31716 2.24941,-0.93345 2.79003,-1.64649 0.46532,-0.61374 0.48083,-0.69217 0.48083,-2.43127 l 0,-1.56541 -2.84203,0 -2.84203,0 0,-0.71051 0,-0.7105 3.55674,0 3.55673,0 -0.0219,2.47463 -0.022,2.47458 -0.31393,0.63388 c -0.39568,0.79895 -1.1816,1.60826 -2.02618,2.08644 -0.70166,0.39727 -1.93586,0.81967 -2.80104,0.95855 -0.87927,0.1412 -2.31048,0.18946 -3.0836,0.104 z m 54.90537,-0.005 c -1.06163,-0.12095 -2.41356,-0.54092 -3.29477,-1.02361 -2.00168,-1.09635 -3.36958,-2.81111 -3.96305,-4.96795 -0.18521,-0.67311 -0.19551,-0.79094 -0.19551,-2.2381 0,-1.44777 0.0102,-1.56459 0.1955,-2.23558 0.68562,-2.48309 2.42561,-4.40206 4.88861,-5.39146 1.33957,-0.53815 2.442,-0.71754 4.07419,-0.66298 2.1566,0.0721 3.6681,0.50871 5.18614,1.49824 0.56524,0.36846 1.74132,1.41045 1.74132,1.54276 0,0.0335 -0.20401,0.27636 -0.45337,0.53955 l -0.45337,0.47856 -0.48448,-0.45322 c -1.55047,-1.45039 -3.59709,-2.20781 -5.96575,-2.20781 -1.12388,0 -1.92078,0.12836 -2.84271,0.45788 -2.4191,0.86461 -3.99023,2.69254 -4.43835,5.16376 -0.11317,0.62406 -0.0976,1.98997 0.0293,2.58841 0.46952,2.2114 1.81615,3.92085 3.8334,4.86616 2.22526,1.04281 5.05812,0.88794 7.53213,-0.41175 0.58131,-0.30538 1.37624,-0.86178 1.97381,-1.38151 l 0.41255,-0.35884 0.48716,0.52006 0.48715,0.52006 -0.50285,0.45162 c -2.25233,2.02292 -5.34219,3.03663 -8.24715,2.70575 z m -42.45311,-8.22966 0,-7.95771 5.28191,0 c 5.02436,0 5.30866,0.007 5.82977,0.14015 2.17563,0.5564 3.50686,2.58414 3.24403,4.94129 -0.23886,2.14216 -1.51934,3.48961 -3.73737,3.93292 l -0.57877,0.11571 1.97622,3.33935 c 1.08691,1.83669 1.97734,3.36337 1.97872,3.39268 0.002,0.0294 -0.35719,0.0532 -0.79681,0.053 l -0.79933,0 -1.99163,-3.39239 -1.99162,-3.39244 -3.49704,-0.0184 -3.49706,-0.0184 0,3.41111 0,3.41109 -0.71051,0 -0.71051,0 0,-7.95768 z m 10.66964,-0.47818 c 0.70624,-0.19769 1.06756,-0.38625 1.48094,-0.77291 0.63431,-0.59333 0.94734,-1.69819 0.78793,-2.78103 -0.18283,-1.24201 -0.83214,-1.97218 -2.13879,-2.40501 -0.35804,-0.1186 -0.76719,-0.1315 -4.88475,-0.15389 l -4.49396,-0.0246 0,3.16962 0,3.16962 4.35187,-0.0251 c 4.19393,-0.0238 4.37164,-0.0302 4.89676,-0.17723 z m 6.16941,8.41356 c 0,-0.0123 1.73857,-3.58522 3.86349,-7.93992 l 3.86351,-7.91764 0.73857,-0.02 0.73858,-0.02 2.73005,5.59749 c 1.50153,3.07863 3.24964,6.66061 3.88468,7.95997 l 1.15462,2.36243 -0.7955,0 -0.79551,0 -1.3974,-2.84169 -1.39742,-2.84164 -4.11504,0 -4.11504,0 -1.39486,2.84203 -1.39486,2.84204 -0.78394,0 c -0.43117,0 -0.78393,-0.0103 -0.78393,-0.0221 z m 11.28755,-8.3084 c -0.31313,-0.67412 -1.06958,-2.30407 -1.681,-3.62219 -0.61142,-1.31809 -1.13225,-2.37323 -1.15738,-2.34466 -0.0601,0.0682 -3.33352,7.08522 -3.33352,7.14583 0,0.0258 1.51677,0.0466 3.37061,0.0466 l 3.3706,0 -0.56931,-1.22561 z m 27.75212,6.42472 c -0.36356,-0.1699 -0.8353,-0.70186 -0.94393,-1.06442 -0.0602,-0.20097 -0.0835,-1.53123 -0.0835,-4.76126 l 0,-4.48235 -2.30159,-3.08784 c -1.26588,-1.69831 -2.34049,-3.20572 -2.38804,-3.34979 -0.0475,-0.14407 -0.0732,-0.45861 -0.0568,-0.69895 0.0282,-0.41872 0.13069,-0.62308 2.44133,-4.87192 1.32648,-2.43919 2.50699,-4.53022 2.62335,-4.64679 0.11636,-0.11656 0.34017,-0.27034 0.49736,-0.34176 0.38086,-0.173 1.09316,-0.17551 1.44378,-0.005 0.14466,0.0703 1.98354,1.3849 4.08639,2.92124 2.61192,1.90831 3.87717,2.87525 3.99316,3.05169 0.39615,0.60266 0.37107,1.44521 -0.06,2.01826 -0.43342,0.57613 -1.2982,0.8423 -1.97261,0.60723 -0.13263,-0.0463 -1.3054,-0.76997 -2.60617,-1.60829 -1.30078,-0.83833 -2.37607,-1.51186 -2.38953,-1.4968 -0.0135,0.0151 -0.49626,0.8427 -1.07291,1.83917 -0.57663,0.99648 -1.30509,2.24342 -1.61879,2.771 -0.3137,0.52755 -0.57023,0.99116 -0.57005,1.0302 0,0.0389 0.7385,1.05085 1.64072,2.24829 1.11232,1.47634 1.66524,2.26956 1.71762,2.46402 0.053,0.19708 0.0712,1.87328 0.058,5.35977 l -0.0191,5.07302 -0.21503,0.34773 c -0.31862,0.51527 -0.77088,0.77052 -1.41221,0.79696 -0.37872,0.0156 -0.57572,-0.0127 -0.79124,-0.11334 z m 3.51847,-8.7694 -0.002,-3.35715 -1.63599,-2.00995 -1.636,-2.00994 0.51823,-0.82567 c 0.28504,-0.45412 0.53728,-0.85442 0.56054,-0.88954 0.0231,-0.0352 0.83856,0.45972 1.81178,1.0997 0.97324,0.63994 2.25519,1.47512 2.8488,1.85592 1.18442,0.75984 1.53516,1.08727 1.66017,1.54982 0.12151,0.44966 0,0.86162 -0.54833,1.86305 -1.14058,2.08215 -3.44842,6.08091 -3.5095,6.08091 -0.0412,0 -0.0676,-1.29863 -0.0684,-3.35715 z m 10.62436,-8.34479 c -0.0272,-0.29113 -0.037,-0.54203 -0.0216,-0.55747 0.0155,-0.0156 0.52983,0.0575 1.14306,0.16193 0.61324,0.10449 1.09113,0.21201 1.06198,0.23899 -0.0292,0.027 -0.34073,0.1367 -0.69243,0.24394 -0.35171,0.10723 -0.81991,0.25053 -1.04048,0.31847 l -0.401,0.12353 -0.0496,-0.52939 z m -0.33846,-1.40427 c -0.10746,-0.25158 -0.19539,-0.48354 -0.19539,-0.51551 0,-0.0543 2.19629,-0.47789 2.23938,-0.43192 0.0194,0.021 -1.71365,1.35494 -1.80291,1.38796 -0.025,0.009 -0.13362,-0.18892 -0.24108,-0.44053 z m -0.82162,-1.24422 -0.37196,-0.4226 0.1616,-0.0997 c 0.0889,-0.0548 0.44937,-0.26861 0.80107,-0.47498 0.3517,-0.20641 0.74579,-0.43865 0.87575,-0.51608 l 0.23629,-0.14089 -0.3367,0.52428 c -0.18519,0.28831 -0.48462,0.75561 -0.66539,1.03839 l -0.3287,0.5142 -0.37196,-0.4226 z m -9.93309,-9.19642 c -0.76006,-0.18446 -1.40407,-0.71975 -1.75996,-1.46284 -0.19972,-0.41698 -0.22119,-0.52746 -0.22119,-1.1383 0,-0.62062 0.0192,-0.71545 0.23263,-1.14898 0.47465,-0.96419 1.32942,-1.49881 2.39625,-1.49881 0.7605,0 1.25572,0.19196 1.80353,0.69917 1.59516,1.47683 0.86872,4.11927 -1.25638,4.57019 -0.4625,0.0981 -0.72485,0.0936 -1.19488,-0.0205 z"
       id="path7163"
       inkscape:connector-curvature="0" />
  </g>
</svg>
