<?xml version="1.0" encoding="UTF-8" standalone="no"?>
<!-- Created with Inkscape (http://www.inkscape.org/) -->

<svg
   xmlns:dc="http://purl.org/dc/elements/1.1/"
   xmlns:cc="http://creativecommons.org/ns#"
   xmlns:rdf="http://www.w3.org/1999/02/22-rdf-syntax-ns#"
   xmlns:svg="http://www.w3.org/2000/svg"
   xmlns="http://www.w3.org/2000/svg"
   xmlns:sodipodi="http://sodipodi.sourceforge.net/DTD/sodipodi-0.dtd"
   xmlns:inkscape="http://www.inkscape.org/namespaces/inkscape"
   width="109.75916"
   height="50.655922"
   id="svg3555"
   version="1.1"
   inkscape:version="0.48.4 r9939"
   sodipodi:docname="gracq.svg">
  <defs
     id="defs3557" />
  <sodipodi:namedview
     id="base"
     pagecolor="#ffffff"
     bordercolor="#666666"
     borderopacity="1.0"
     inkscape:pageopacity="0.0"
     inkscape:pageshadow="2"
     inkscape:zoom="0.37734375"
     inkscape:cx="-164.40614"
     inkscape:cy="153.89939"
     inkscape:document-units="px"
     inkscape:current-layer="layer1"
     showgrid="false"
     inkscape:window-width="476"
     inkscape:window-height="456"
     inkscape:window-x="0"
     inkscape:window-y="21"
     inkscape:window-maximized="0"
     fit-margin-top="0"
     fit-margin-left="0"
     fit-margin-right="0"
     fit-margin-bottom="0" />
  <metadata
     id="metadata3560">
    <rdf:RDF>
      <cc:Work
         rdf:about="">
        <dc:format>image/svg+xml</dc:format>
        <dc:type
           rdf:resource="http://purl.org/dc/dcmitype/StillImage" />
        <dc:title />
      </cc:Work>
    </rdf:RDF>
  </metadata>
  <g
     inkscape:label="Layer 1"
     inkscape:groupmode="layer"
     id="layer1"
     transform="translate(-539.40614,-635.60565)">
    <path
       style="fill:#00aa5a;fill-opacity:1;stroke:none"
       d="m 593.08348,686.12366 c -0.11537,-0.17605 -0.1687,-0.18868 -0.76889,-0.18252 -0.7086,0.007 -1.02931,-0.091 -1.44768,-0.44376 -0.40153,-0.33855 -0.59009,-0.7753 -0.59009,-1.36673 0,-1.09419 0.72566,-1.79365 1.86075,-1.79365 0.28156,0 0.62485,0.0473 0.76287,0.10516 1.16066,0.48635 1.49579,1.95179 0.66278,2.89812 l -0.31485,0.35773 0.16855,0.17943 c 0.13283,0.14138 0.14736,0.19587 0.0686,0.25697 -0.22215,0.1721 -0.28322,0.17049 -0.40195,-0.0108 z m -0.68412,-0.58072 c 0.0738,-0.0468 0.0796,-0.0832 0.0195,-0.1204 -0.13402,-0.0829 -0.10225,-0.18455 0.0752,-0.24089 0.10337,-0.0329 0.21602,0 0.31276,0.0856 0.1449,0.13113 0.15971,0.12897 0.35563,-0.0515 0.87677,-0.80756 0.49762,-2.17335 -0.69228,-2.4938 -0.56349,-0.15171 -1.25766,0.12719 -1.59849,0.6422 -0.43091,0.65117 -0.19859,1.6414 0.46568,1.98489 0.4758,0.24605 0.86693,0.31748 1.06196,0.19389 z m -42.88804,0.38189 c -0.39872,-0.0691 -0.69655,-0.21024 -1.04293,-0.49412 -0.20026,-0.16411 -0.21746,-0.20697 -0.12693,-0.31604 0.13229,-0.1594 0.27194,-0.16061 0.40231,-0.005 0.23152,0.27899 0.72294,0.45275 1.28202,0.45334 0.87838,0 1.38312,-0.33739 1.25641,-0.84221 -0.0898,-0.35782 -0.37886,-0.46829 -1.34522,-0.51415 -1.01879,-0.0483 -1.26407,-0.1646 -1.38915,-0.6585 -0.0983,-0.38797 0.11351,-0.79184 0.54215,-1.03389 0.45691,-0.25805 1.39986,-0.25162 1.96911,0.0135 0.44216,0.20584 0.44814,0.21366 0.33085,0.43286 -0.0754,0.14091 -0.0944,0.13858 -0.47475,-0.0588 -0.89685,-0.46533 -2.15725,-0.10917 -1.98881,0.56196 0.063,0.25058 0.35716,0.33774 1.26522,0.3747 0.87187,0.0354 1.2459,0.18447 1.41949,0.56547 0.4377,0.96062 -0.67573,1.76638 -2.09977,1.51943 z m 6.33578,-0.006 c -0.86412,-0.16986 -1.40626,-0.75118 -1.47272,-1.57917 -0.0698,-0.8697 0.23035,-1.45133 0.92851,-1.79927 0.71039,-0.35396 1.74695,-0.25108 2.38678,0.23693 0.24506,0.18693 0.25609,0.21285 0.1399,0.32903 -0.11619,0.11621 -0.1556,0.10961 -0.49984,-0.0839 -0.86849,-0.48819 -1.68407,-0.42669 -2.22089,0.16752 -0.63626,0.70429 -0.41786,1.76378 0.45803,2.22188 0.58091,0.30382 1.45746,0.1744 1.96553,-0.29022 0.17343,-0.15862 0.17772,-0.15875 0.28996,-0.0103 0.0626,0.0828 0.11504,0.17215 0.11641,0.19848 0.003,0.0684 -0.54586,0.43692 -0.77737,0.52156 -0.31945,0.11676 -0.95147,0.15885 -1.3143,0.0876 z m 8.03243,0 c -0.86412,-0.16986 -1.40626,-0.75118 -1.47272,-1.57917 -0.0692,-0.86243 0.239,-1.45565 0.93705,-1.80349 0.70155,-0.3496 1.74206,-0.24412 2.37824,0.24115 0.24506,0.18693 0.25609,0.21285 0.1399,0.32903 -0.1162,0.11621 -0.1556,0.10961 -0.49985,-0.0839 -0.86849,-0.48819 -1.68405,-0.42669 -2.22087,0.16752 -0.63627,0.70429 -0.41786,1.76378 0.45802,2.22188 0.5809,0.30382 1.45746,0.17434 1.96553,-0.29022 0.17343,-0.15862 0.17771,-0.15875 0.28996,-0.0103 0.0627,0.0828 0.11504,0.17215 0.11641,0.19848 0.004,0.0684 -0.54585,0.43692 -0.77737,0.52156 -0.31945,0.11676 -0.95147,0.15885 -1.3143,0.0876 z m 9.52354,0.005 c -0.43912,-0.0888 -0.81962,-0.27534 -1.04027,-0.51019 -0.16668,-0.17741 -0.17082,-0.2019 -0.0538,-0.31897 0.11703,-0.11703 0.14553,-0.11096 0.37121,0.0789 0.91427,0.76928 2.69757,0.39829 2.46869,-0.51357 -0.0784,-0.31245 -0.46987,-0.44916 -1.28599,-0.44916 -1.08057,0 -1.41652,-0.19597 -1.41652,-0.8263 0,-0.70261 0.4939,-1.04597 1.50279,-1.04458 0.43317,0 0.65866,0.045 0.97322,0.19138 0.40029,0.18635 0.491,0.31897 0.32899,0.48095 -0.0553,0.0553 -0.20331,0.0197 -0.473,-0.11379 -0.71493,-0.35381 -1.71255,-0.21307 -1.93397,0.27288 -0.0741,0.16245 -0.0685,0.23589 0.0292,0.38491 0.14487,0.22112 0.2537,0.24695 1.2109,0.28747 1.10975,0.047 1.48127,0.29839 1.48127,1.00231 0,0.63864 -0.47464,1.01138 -1.40371,1.10239 -0.23591,0.023 -0.57747,0.0121 -0.75902,-0.0247 z m 11.9672,0.005 c -0.38366,-0.0675 -0.96402,-0.3629 -1.14767,-0.58415 -0.0873,-0.10512 -0.0854,-0.14411 0.0118,-0.24119 0.10241,-0.10238 0.16743,-0.0846 0.56227,0.15305 0.25005,0.15058 0.60803,0.29107 0.8137,0.31937 0.92746,0.12753 1.7595,-0.38927 1.50961,-0.93775 -0.1344,-0.29494 -0.53159,-0.42485 -1.2991,-0.42485 -0.75637,0 -1.12993,-0.11914 -1.32972,-0.42405 -0.29622,-0.45207 0.0465,-1.17777 0.65047,-1.37706 0.44325,-0.14627 1.48109,-0.0559 1.87037,0.16286 0.36405,0.20463 0.36937,0.21455 0.22072,0.41042 -0.0978,0.12884 -0.12607,0.12453 -0.47966,-0.0732 -0.85999,-0.48065 -2.12161,-0.11187 -1.95043,0.57013 0.0632,0.25158 0.32354,0.34049 1.00383,0.34283 1.30164,0.005 1.90732,0.43891 1.73098,1.24174 -0.1396,0.6356 -1.15561,1.03964 -2.16711,0.8618 z m 10.93961,-0.005 c -0.43475,-0.0879 -0.70032,-0.27678 -0.87732,-0.62391 -0.1142,-0.22395 -0.13638,-0.48604 -0.13648,-1.61266 l -1.5e-4,-1.34521 0.19495,0 0.19496,0 0,1.29064 c 0,1.44983 0.0543,1.65613 0.48374,1.83726 0.14141,0.0597 0.43259,0.10845 0.64705,0.10845 0.21445,0 0.50562,-0.0488 0.64706,-0.10845 0.44559,-0.18796 0.51806,-0.43392 0.54828,-1.86067 0.0251,-1.18691 0.0363,-1.26723 0.1761,-1.26723 0.14145,0 0.14926,0.0729 0.14926,1.39216 0,1.31616 -0.01,1.40673 -0.17649,1.65722 -0.30905,0.46398 -1.08517,0.6872 -1.851,0.5324 z m 4.75696,0 c -0.4699,-0.0941 -0.9208,-0.42435 -1.20349,-0.8816 -0.19819,-0.32053 -0.23235,-0.45378 -0.23235,-0.90608 0,-0.4523 0.0341,-0.58553 0.23235,-0.90608 0.1278,-0.20669 0.38351,-0.48208 0.56826,-0.61191 0.29005,-0.20386 0.41806,-0.2398 0.9379,-0.26339 0.66903,-0.0305 0.9778,0.0612 1.39692,0.41465 0.40584,0.34219 0.59519,0.77696 0.59519,1.36673 0,1.21888 -1.04988,2.03678 -2.29479,1.78767 z m 0.81884,-0.39201 c 0.43644,-0.11923 0.81034,-0.42463 0.98158,-0.80172 0.38263,-0.8426 -0.086,-1.74603 -1.03888,-2.0026 -0.56349,-0.15171 -1.25766,0.12714 -1.59849,0.6422 -0.43091,0.65113 -0.19859,1.64135 0.46568,1.98485 0.51519,0.26644 0.74066,0.3 1.19011,0.17727 z m 23.97275,0.39851 c -0.39873,-0.0691 -0.69656,-0.21024 -1.04294,-0.49411 -0.20026,-0.16411 -0.21746,-0.20692 -0.12692,-0.31605 0.13229,-0.15939 0.27192,-0.1606 0.40231,-0.005 0.23151,0.27899 0.72295,0.45275 1.28201,0.45334 0.87839,0 1.38312,-0.33743 1.25642,-0.8422 -0.0898,-0.35783 -0.37887,-0.46829 -1.34523,-0.51416 -1.01878,-0.0483 -1.26407,-0.1646 -1.38915,-0.65849 -0.0982,-0.38797 0.11352,-0.79184 0.54215,-1.0339 0.45692,-0.25805 1.39987,-0.25161 1.96912,0.0135 0.44216,0.20584 0.44813,0.21366 0.33084,0.43285 -0.0754,0.14092 -0.0944,0.13859 -0.47474,-0.0587 -0.89686,-0.46533 -2.15726,-0.10917 -1.98881,0.56196 0.063,0.25059 0.35715,0.33774 1.26521,0.37467 0.87188,0.0354 1.2459,0.18455 1.41949,0.56551 0.43771,0.96066 -0.67574,1.76638 -2.09976,1.51948 z m 9.97722,-0.0287 c -0.37746,-0.0825 -1.01017,-0.42035 -1.11996,-0.59798 -0.0185,-0.0301 0.036,-0.1177 0.12121,-0.19484 0.14948,-0.13526 0.16111,-0.13459 0.3296,0.0194 0.4338,0.39663 1.07083,0.5496 1.72384,0.41407 0.54836,-0.11384 0.84845,-0.37778 0.81472,-0.71664 -0.0432,-0.43379 -0.32574,-0.56268 -1.33928,-0.61079 -1.02265,-0.0485 -1.24149,-0.14609 -1.38241,-0.61645 -0.12369,-0.41286 0.0766,-0.83317 0.51375,-1.07824 0.45777,-0.25664 1.40146,-0.24959 1.96911,0.0149 0.44216,0.20585 0.44814,0.21366 0.33085,0.43281 -0.0754,0.14097 -0.0944,0.13863 -0.47474,-0.0587 -0.89686,-0.46533 -2.15725,-0.10917 -1.98882,0.56196 0.0628,0.24991 0.35682,0.33765 1.25538,0.37453 1.11684,0.0458 1.5212,0.31402 1.52042,1.00842 -8e-4,0.81093 -1.08068,1.3085 -2.27367,1.04772 z m -94.89508,-1.76521 0,-1.79369 0.19334,0 0.19335,0 0.0211,1.57923 0.0211,1.57917 1.11128,0.0216 1.11128,0.0216 0,0.19282 0,0.19286 -1.32574,0 -1.32574,0 0,-1.79365 z m 3.5873,0 0,-1.79369 1.44272,0 1.44271,0 0,0.19497 0,0.19498 -1.24775,0 -1.24777,0 0,0.58491 0,0.58487 0.66288,0 c 0.65506,0 0.66287,0.005 0.66287,0.19497 0,0.19264 -0.008,0.19493 -0.66287,0.19493 l -0.66288,0 0,0.6239 0,0.62388 1.28676,0 1.28676,0 0,0.19496 0,0.19497 -1.48172,0 -1.48171,0 0,-1.79365 z m 15.51757,0.95532 -0.002,-0.83838 -0.58816,-0.74079 c -0.32347,-0.40752 -0.65862,-0.83739 -0.74476,-0.95532 l -0.15664,-0.21452 0.25877,0.005 c 0.23245,0.005 0.31673,0.0797 0.82895,0.74085 0.31362,0.40477 0.59436,0.73447 0.62389,0.73272 0.0295,0 0.30999,-0.33518 0.62326,-0.74085 0.49089,-0.63572 0.60134,-0.73761 0.79935,-0.73761 0.12637,0 0.22976,0.0188 0.22976,0.0413 0,0.023 -0.33339,0.45674 -0.74086,0.96439 l -0.74086,0.92298 0,0.8292 0,0.82927 -0.19496,0 -0.19496,0 -0.002,-0.83834 z m 7.09801,-0.95532 0,-1.79369 0.19497,0 0.19495,0 0,1.59872 0,1.59869 1.13078,0 1.13078,0 0,0.19496 0,0.19497 -1.32574,0 -1.32574,0 0,-1.79365 z m 3.5873,0 0,-1.79369 0.19497,0 0.19496,0 0,1.79369 0,1.79365 -0.19496,0 -0.19497,0 0,-1.79365 z m 6.92277,0.21443 -0.0211,-1.57919 -0.64338,-0.0224 c -0.62531,-0.022 -0.64338,-0.0279 -0.64338,-0.21443 l 0,-0.19183 1.48172,0 1.48171,0 0,0.19183 c 0,0.18639 -0.0181,0.1924 -0.64338,0.21443 l -0.64337,0.0224 -0.0211,1.57919 c -0.0202,1.50892 -0.0279,1.57922 -0.17384,1.57922 -0.14594,0 -0.15368,-0.0703 -0.17386,-1.57922 z m 2.74735,-0.21443 0,-1.79369 1.44272,0 1.44271,0 0,0.19497 0,0.19498 -1.24776,0 -1.24775,0 0,0.58491 0,0.58487 0.62388,0 c 0.61348,0 0.62387,0.005 0.62387,0.19497 0,0.19169 -0.0104,0.19493 -0.62387,0.19493 l -0.62388,0 0,0.6239 0,0.62388 1.28675,0 1.28675,0 0,0.19496 0,0.19497 -1.48171,0 -1.48171,0 0,-1.79365 z m 24.95512,0.19498 0,-1.59872 -0.62387,0 c -0.61348,0 -0.62388,-0.005 -0.62388,-0.19498 l 0,-0.19497 1.48172,0 1.4817,0 0,0.19182 c 0,0.18644 -0.0181,0.19246 -0.64337,0.21448 l -0.64338,0.0225 -0.0211,1.57917 -0.0211,1.57918 -0.19334,0 -0.19336,0 0,-1.59868 z m 2.80746,-0.19498 c 0,-1.74167 0.005,-1.79369 0.15597,-1.79369 0.15145,0 0.15597,0.052 0.15597,1.79369 0,1.74163 -0.005,1.79365 -0.15597,1.79365 -0.15145,0 -0.15597,-0.052 -0.15597,-1.79365 z m 1.79365,0.008 0,-1.80232 0.8082,0 c 1.46353,0 1.97321,0.19866 2.31359,0.90177 0.34125,0.70491 0.27208,1.5538 -0.17035,2.09051 -0.39806,0.48294 -0.59485,0.54502 -1.84016,0.5806 l -1.11128,0.0318 0,-1.80232 z m 2.08101,1.31188 c 0.48651,-0.18432 0.88241,-0.77682 0.88241,-1.32055 0,-0.57764 -0.4275,-1.17998 -0.94231,-1.3276 -0.14598,-0.0418 -0.57273,-0.0761 -0.9483,-0.0761 l -0.68289,0 0,1.40375 0,1.40371 0.73579,0 c 0.40467,0 0.83456,-0.0373 0.9553,-0.0832 z m 2.5201,-1.32055 c 0,-1.74167 0.005,-1.79365 0.15596,-1.79365 0.15145,0 0.15597,0.052 0.15597,1.79365 0,1.74167 -0.005,1.79365 -0.15597,1.79365 -0.15145,0 -0.15596,-0.052 -0.15596,-1.79365 z m 1.79365,0 0,-1.79365 1.44271,0 1.44272,0 0,0.19493 0,0.19498 -1.24776,0 -1.24776,0 0,0.58491 0,0.58486 0.66288,0 c 0.65506,0 0.66287,0.005 0.66287,0.19498 0,0.19267 -0.008,0.19497 -0.66287,0.19497 l -0.66288,0 0,0.62387 0,0.62386 1.28676,0 1.28674,0 0,0.19497 0,0.19497 -1.48171,0 -1.4817,0 0,-1.79365 z m 4.13319,0 0,-1.79365 0.17546,0.005 c 0.13382,0.005 0.4417,0.34452 1.29716,1.4427 0.61694,0.79201 1.15209,1.44001 1.18926,1.44001 0.0372,0 0.0676,-0.64925 0.0676,-1.44275 0,-1.39072 0.006,-1.4427 0.15596,-1.4427 0.15145,0 0.15597,0.052 0.15597,1.79365 l 0,1.79364 -0.17546,0 c -0.13452,0 -0.43939,-0.33648 -1.30624,-1.43991 -0.62194,-0.79166 -1.15711,-1.44063 -1.18927,-1.44216 -0.0322,0 -0.0585,0.64642 -0.0585,1.43992 0,1.39072 -0.005,1.44274 -0.15597,1.44274 -0.15145,0 -0.15597,-0.052 -0.15597,-1.79364 z m 9.9253,1.69535 c 0.0208,-0.0536 0.39939,-0.86074 0.84118,-1.79364 0.74159,-1.56593 0.81866,-1.69598 1.00373,-1.69374 0.17711,0 0.24074,0.0907 0.54664,0.76035 0.1904,0.41685 0.56619,1.22293 0.8351,1.79122 l 0.48893,1.03331 -0.22933,0 c -0.21094,0 -0.25226,-0.0501 -0.51453,-0.62387 l -0.28519,-0.62391 -0.86648,0 -0.86647,0 -0.28657,0.62288 c -0.25418,0.55243 -0.31021,0.62282 -0.49576,0.62282 -0.13557,0 -0.19584,-0.034 -0.17125,-0.0975 z m 2.47428,-1.5714 c 0,-0.0774 -0.63013,-1.39181 -0.65405,-1.36435 -0.0148,0.0171 -0.16969,0.33788 -0.34423,0.71317 l -0.31735,0.6824 0.65782,0 c 0.36179,0 0.65781,-0.0139 0.65781,-0.0315 z m 6.31676,-0.11559 0,-1.80281 0.95532,0.005 c 1.25369,0.005 1.59565,0.074 1.86942,0.38041 0.17261,0.19318 0.21667,0.31803 0.21667,0.61384 0,0.21137 -0.0528,0.44673 -0.12254,0.54629 -0.1147,0.16379 -0.10972,0.1902 0.0779,0.41326 0.15992,0.19007 0.20004,0.31998 0.19805,0.64174 -0.003,0.43832 -0.0726,0.57108 -0.4198,0.79714 -0.19374,0.12615 -0.41552,0.15256 -1.50121,0.17876 l -1.27388,0.031 0,-1.8028 z m 2.60876,1.2418 c 0.20124,-0.16717 0.2841,-0.44143 0.20011,-0.66237 -0.12946,-0.34047 -0.4445,-0.43262 -1.47925,-0.43262 l -0.9397,0 0,0.63151 0,0.63155 1.04094,-0.0275 c 0.76572,-0.0198 1.07714,-0.0572 1.1779,-0.14088 z m -0.16276,-1.64652 c 0.2609,-0.20526 0.28099,-0.6037 0.0414,-0.82063 -0.13864,-0.12553 -0.31406,-0.15284 -1.13077,-0.17606 l -0.96668,-0.0274 0,0.59287 0,0.59291 0.9253,0 c 0.81803,0 0.94913,-0.0188 1.13078,-0.1616 z m 1.99913,0.39556 0,-1.79365 0.19335,0 0.19335,0 0.0211,1.57917 0.0211,1.57923 1.11128,0.0216 1.11128,0.0216 0,0.19281 0,0.19282 -1.32574,0 -1.32574,0 0,-1.79365 z m 2.30056,-6.3988 c -1.32838,-0.13622 -1.87631,-0.42934 -3.17063,-1.69607 l -0.67513,-0.66074 -0.65061,0.10646 c -0.89415,0.14633 -2.66241,0.12773 -3.53606,-0.0373 -2.78648,-0.52593 -4.89178,-1.95308 -6.27426,-4.25333 -1.73775,-2.89138 -1.60774,-7.053 0.30988,-9.91948 0.48906,-0.73105 1.79992,-1.98233 2.58647,-2.46886 1.694,-1.04795 3.47682,-1.48313 5.71745,-1.39557 2.12711,0.0831 3.81983,0.64389 5.34196,1.76997 0.65099,0.48158 1.59531,1.45897 2.02363,2.09446 1.08329,1.60722 1.65663,3.76708 1.52758,5.75463 -0.18774,2.89164 -1.39347,5.14873 -3.66046,6.8523 l -0.30419,0.22857 -0.53402,-0.5836 c -0.29374,-0.32099 -0.53409,-0.60527 -0.53415,-0.63173 -6e-5,-0.0265 0.14904,-0.14636 0.33133,-0.2664 0.18229,-0.12003 0.57223,-0.44933 0.86654,-0.73172 2.36599,-2.27035 2.96678,-5.8855 1.47204,-8.85783 -0.57055,-1.13451 -1.66115,-2.31283 -2.73512,-2.95503 -2.10085,-1.25622 -4.89615,-1.50532 -7.19644,-0.64129 -2.40664,0.90397 -4.14689,2.91186 -4.72272,5.44905 -0.20161,0.88834 -0.18066,2.49159 0.0441,3.37225 0.21432,0.8399 0.73532,1.98012 1.20637,2.64025 0.46682,0.65418 1.37764,1.50284 2.08821,1.94575 1.84621,1.15069 4.22019,1.49567 6.44568,0.93663 l 0.49147,-0.12345 1.61459,1.59086 c 1.93624,1.9078 2.15319,2.05084 3.13529,2.06733 0.87772,0.0149 0.85783,0.0117 0.85783,0.13881 0,0.23464 -1.07068,0.37708 -2.0666,0.27493 z m -98.16401,-2.18754 c -1.95863,-0.21649 -3.80892,-0.98493 -5.27809,-2.19195 -2.92582,-2.40381 -3.93385,-6.92558 -2.35781,-10.57653 1.13201,-2.62237 3.55821,-4.50142 6.68125,-5.17451 1.00968,-0.21758 2.95519,-0.27167 4.00301,-0.1112 1.93689,0.29655 3.59797,1.10802 5.15155,2.51666 0.49993,0.45329 0.49625,0.49229 -0.10827,1.14683 l -0.42256,0.4575 -0.52961,-0.48194 c -1.68219,-1.53075 -3.40508,-2.18773 -5.73712,-2.18773 -3.50803,0 -6.12592,1.4866 -7.46561,4.23942 -1.70613,3.50577 -0.46437,7.79572 2.81973,9.74135 1.91248,1.13304 4.69394,1.4405 7.16015,0.79143 1.32264,-0.34811 2.46894,-1.02454 3.06232,-1.80717 0.51073,-0.67364 0.52775,-0.75972 0.52775,-2.66854 l 0,-1.71818 -3.11939,0 -3.11939,0 0,-0.77985 0,-0.77984 3.90385,0 3.90384,0 -0.024,2.71613 -0.0241,2.71608 -0.34456,0.69574 c -0.4343,0.87692 -1.29692,1.76521 -2.22392,2.29006 -0.77014,0.43604 -2.12479,0.89966 -3.0744,1.05209 -0.96508,0.15498 -2.53596,0.20795 -3.38453,0.11415 z m 60.26367,-0.006 c -1.16524,-0.13275 -2.6491,-0.59371 -3.61631,-1.12351 -2.19703,-1.20334 -3.69842,-3.08545 -4.34981,-5.45277 -0.20329,-0.7388 -0.21459,-0.86813 -0.21459,-2.45652 0,-1.58906 0.0112,-1.71728 0.21458,-2.45376 0.75253,-2.72542 2.66233,-4.83166 5.36569,-5.91762 1.47031,-0.59067 2.68032,-0.78756 4.4718,-0.72768 2.36707,0.0791 4.02608,0.55836 5.69226,1.64445 0.62041,0.40442 1.91126,1.5481 1.91126,1.69333 0,0.0368 -0.22392,0.30333 -0.49761,0.5922 l -0.49762,0.52526 -0.53176,-0.49745 c -1.70178,-1.59193 -3.94813,-2.42327 -6.54796,-2.42327 -1.23356,0 -2.10823,0.14089 -3.12013,0.50257 -2.65518,0.94898 -4.37964,2.95531 -4.87149,5.6677 -0.12422,0.68496 -0.10718,2.18417 0.0322,2.84101 0.51534,2.42722 1.99339,4.30349 4.20751,5.34106 2.44242,1.14458 5.55175,0.97459 8.2672,-0.45194 0.63804,-0.33518 1.51055,-0.94588 2.16644,-1.51633 l 0.45281,-0.39386 0.5347,0.57082 0.53469,0.57081 -0.55192,0.49569 c -2.47214,2.22034 -5.86355,3.33298 -9.05201,2.96981 z m -46.59618,-9.0328 0,-8.73432 5.79739,0 c 5.51469,0 5.82673,0.008 6.3987,0.15383 2.38795,0.6107 3.8491,2.83633 3.56062,5.42352 -0.26217,2.35121 -1.66761,3.83016 -4.10211,4.31674 l -0.63525,0.127 2.16908,3.66524 c 1.19299,2.01594 2.17032,3.69161 2.17183,3.72378 0.002,0.0323 -0.39205,0.0584 -0.87457,0.0582 l -0.87734,0 -2.18599,-3.72346 -2.18599,-3.72351 -3.83832,-0.0202 -3.83835,-0.0202 0,3.744 0,3.74399 -0.77985,0 -0.77985,0 0,-8.73428 z m 11.71091,-0.52485 c 0.77517,-0.21698 1.17175,-0.42395 1.62547,-0.84834 0.69621,-0.65123 1.03979,-1.86392 0.86483,-3.05244 -0.20068,-1.36322 -0.91335,-2.16464 -2.34752,-2.63971 -0.39299,-0.13018 -0.84207,-0.14434 -5.36146,-0.16891 l -4.93254,-0.027 0,3.47894 0,3.47895 4.77658,-0.0275 c 4.60322,-0.0261 4.79827,-0.0332 5.37464,-0.19453 z m 6.77149,9.23465 c 0,-0.0135 1.90824,-3.93511 4.24054,-8.71479 l 4.24055,-8.69033 0.81065,-0.022 0.81066,-0.022 2.99648,6.14375 c 1.64807,3.37908 3.56678,7.31063 4.26379,8.7368 l 1.26731,2.59298 -0.87314,0 -0.87314,0 -1.53378,-3.11901 -1.5338,-3.11896 -4.51663,0 -4.51663,0 -1.53099,3.11938 -1.53099,3.11941 -0.86044,0 c -0.47325,0 -0.86044,-0.0113 -0.86044,-0.0243 z m 12.38912,-9.11923 c -0.34368,-0.73991 -1.17396,-2.52893 -1.84505,-3.97568 -0.67109,-1.44673 -1.24274,-2.60484 -1.27033,-2.57348 -0.066,0.0749 -3.65884,7.77667 -3.65884,7.8432 0,0.0283 1.66479,0.0512 3.69955,0.0512 l 3.69954,0 -0.62487,-1.34522 z m 30.4605,7.05172 c -0.39904,-0.18648 -0.91682,-0.77036 -1.03605,-1.1683 -0.0661,-0.22058 -0.0917,-1.68066 -0.0917,-5.22592 l 0,-4.91979 -2.5262,-3.38918 c -1.38942,-1.86405 -2.5689,-3.51857 -2.62109,-3.6767 -0.0521,-0.15813 -0.0803,-0.50337 -0.0624,-0.76717 0.031,-0.45958 0.14344,-0.68388 2.67958,-5.34738 1.45593,-2.67723 2.75165,-4.97233 2.87937,-5.10027 0.12772,-0.12794 0.37337,-0.29672 0.5459,-0.37511 0.41803,-0.18989 1.19984,-0.19264 1.58468,-0.006 0.15877,0.0772 2.17711,1.52006 4.48519,3.20633 2.86682,2.09455 4.25554,3.15585 4.38285,3.34951 0.43481,0.66147 0.40729,1.58625 -0.0659,2.21522 -0.47571,0.63236 -1.42489,0.92451 -2.16512,0.6665 -0.14557,-0.0508 -1.43279,-0.84512 -2.86051,-1.76525 -1.42772,-0.92014 -2.60795,-1.65941 -2.62272,-1.64288 -0.0148,0.0166 -0.5447,0.92494 -1.17762,2.01866 -0.6329,1.09373 -1.43246,2.46236 -1.77677,3.04143 -0.34432,0.57903 -0.62588,1.08789 -0.62568,1.13074 0,0.0427 0.81057,1.1534 1.80084,2.4677 1.22087,1.62042 1.82775,2.49105 1.88524,2.70449 0.0582,0.21631 0.0782,2.0561 0.0637,5.88284 l -0.021,5.5681 -0.23602,0.38167 c -0.34971,0.56555 -0.84611,0.84571 -1.55003,0.87473 -0.41568,0.0171 -0.6319,-0.0139 -0.86845,-0.1244 z m 3.86184,-9.62522 -0.002,-3.68478 -1.79565,-2.2061 -1.79566,-2.2061 0.56881,-0.90625 c 0.31286,-0.49843 0.58971,-0.9378 0.61524,-0.97635 0.0254,-0.0386 0.9204,0.50459 1.9886,1.20702 1.06822,0.7024 2.47528,1.61908 3.12682,2.03705 1.30001,0.83399 1.68498,1.19338 1.82218,1.70107 0.13337,0.49354 0,0.9457 -0.60184,2.04487 -1.25189,2.28534 -3.78495,6.67435 -3.852,6.67435 -0.0452,0 -0.0742,-1.42536 -0.0751,-3.68478 z m 11.66121,-9.15917 c -0.0299,-0.31954 -0.0406,-0.59493 -0.0237,-0.61187 0.017,-0.0171 0.58154,0.0631 1.25462,0.17773 0.67308,0.11469 1.19761,0.2327 1.16562,0.26231 -0.032,0.0296 -0.37399,0.15004 -0.76001,0.26775 -0.38603,0.11769 -0.89993,0.27498 -1.14202,0.34955 l -0.44014,0.13558 -0.0544,-0.58105 z m -0.37149,-1.54131 c -0.11795,-0.27614 -0.21446,-0.53073 -0.21446,-0.56582 0,-0.0596 2.41063,-0.52453 2.45792,-0.47408 0.0213,0.023 -1.88088,1.48717 -1.97885,1.52342 -0.0275,0.0103 -0.14666,-0.20736 -0.26461,-0.48352 z m -0.9018,-1.36565 -0.40827,-0.46384 0.17737,-0.10945 c 0.0976,-0.0602 0.49323,-0.29483 0.87925,-0.52134 0.38603,-0.22655 0.81858,-0.48146 0.96122,-0.56644 l 0.25935,-0.15464 -0.36956,0.57544 c -0.20326,0.31645 -0.53191,0.82935 -0.73033,1.13973 l -0.36077,0.56438 -0.40826,-0.46384 z m -10.90248,-10.09391 c -0.83424,-0.20247 -1.5411,-0.78999 -1.93172,-1.6056 -0.21921,-0.45768 -0.24277,-0.57894 -0.24277,-1.24939 0,-0.68119 0.0211,-0.78527 0.25533,-1.26111 0.52097,-1.05829 1.45916,-1.64509 2.6301,-1.64509 0.83472,0 1.37827,0.2107 1.97954,0.76741 1.75083,1.62095 0.9535,4.52127 -1.37899,5.0162 -0.50764,0.10768 -0.79559,0.10274 -1.31149,-0.0225 z"
       id="path7163"
       inkscape:connector-curvature="0" />
  </g>
</svg>
