<?xml version="1.0" encoding="UTF-8" standalone="no"?>
<!-- Created with Inkscape (http://www.inkscape.org/) -->

<svg
   xmlns:dc="http://purl.org/dc/elements/1.1/"
   xmlns:cc="http://creativecommons.org/ns#"
   xmlns:rdf="http://www.w3.org/1999/02/22-rdf-syntax-ns#"
   xmlns:svg="http://www.w3.org/2000/svg"
   xmlns="http://www.w3.org/2000/svg"
   xmlns:sodipodi="http://sodipodi.sourceforge.net/DTD/sodipodi-0.dtd"
   xmlns:inkscape="http://www.inkscape.org/namespaces/inkscape"
   width="35.58746"
   height="64.051697"
   id="svg3239"
   version="1.1"
   inkscape:version="0.48.4 r9939"
   sodipodi:docname="insas.svg">
  <defs
     id="defs3241">
    <clipPath
       id="clipPath3061"
       clipPathUnits="userSpaceOnUse">
      <path
         inkscape:connector-curvature="0"
         id="path3063"
         d="m 0,467.936 430.667,0 L 430.667,0 0,0 0,467.936 z" />
    </clipPath>
  </defs>
  <sodipodi:namedview
     id="base"
     pagecolor="#ffffff"
     bordercolor="#666666"
     borderopacity="1.0"
     inkscape:pageopacity="0.0"
     inkscape:pageshadow="2"
     inkscape:zoom="0.37734375"
     inkscape:cx="87.079442"
     inkscape:cy="183.45442"
     inkscape:document-units="px"
     inkscape:current-layer="layer1"
     showgrid="false"
     inkscape:window-width="476"
     inkscape:window-height="456"
     inkscape:window-x="0"
     inkscape:window-y="21"
     inkscape:window-maximized="0"
     fit-margin-top="0"
     fit-margin-left="0"
     fit-margin-right="0"
     fit-margin-bottom="0" />
  <metadata
     id="metadata3244">
    <rdf:RDF>
      <cc:Work
         rdf:about="">
        <dc:format>image/svg+xml</dc:format>
        <dc:type
           rdf:resource="http://purl.org/dc/dcmitype/StillImage" />
        <dc:title />
      </cc:Work>
    </rdf:RDF>
  </metadata>
  <g
     inkscape:label="Layer 1"
     inkscape:groupmode="layer"
     id="layer1"
     transform="translate(-287.92056,-651.76491)">
    <g
       transform="matrix(0.16660302,0,0,-0.16660302,269.1949,722.7705)"
       inkscape:label="logoinsashand_blackVECT"
       id="g3055">
      <g
         id="g3057">
        <g
           clip-path="url(#clipPath3061)"
           id="g3059">
          <g
             transform="translate(250.4932,41.7393)"
             id="g3065">
            <path
               id="path3067"
               style="fill:#231f20;fill-opacity:1;fill-rule:nonzero;stroke:none"
               d="m 0,0 28.03,0 0,94.127 c 0,1.123 0.628,2.152 1.628,2.668 47.498,24.443 45.445,74.594 45.418,75.098 -0.002,0.05 -0.004,0.103 -0.004,0.156 0,1.752 0.005,2.762 0.014,3.336 0.008,0.486 0.06,0.91 0.145,1.275 0.183,3.985 0.276,38.215 0.279,101.832 -4.722,0.009 -9.53,0.037 -14.337,0.065 -4.798,0.028 -9.596,0.056 -14.306,0.065 -0.093,-20.488 0.043,-105.222 0.044,-106.128 0.027,-0.838 0.477,-22.762 -17.045,-40.988 l -0.564,-0.59 c -4.016,-4.217 -10.086,-10.588 -30.449,-17.199 -9.848,-3.197 -20.061,-4.819 -30.356,-4.819 -19.159,0 -31.958,5.563 -32.494,5.799 -0.809,0.332 -21.586,9.012 -33.235,25.194 -4.449,4.91 -11.989,20.228 -10.949,32.845 l 0.075,0.983 c 0.438,5.927 1.464,19.811 11.898,32.723 12.375,15.312 23.645,20.32 33.239,23.811 15.795,5.754 25.9,5.754 31.328,5.754 0.446,0 10.95,-0.011 14.492,-0.976 C 0.168,230.333 4.032,228.929 6.589,228 l 0.595,-0.216 c 2.4,-0.862 4.774,-1.299 7.054,-1.299 4.478,0 8.603,1.74 11.318,4.772 1.962,2.191 2.939,4.778 2.682,7.098 -0.012,0.11 -0.018,0.22 -0.018,0.331 0,49.248 -0.145,103.329 -0.214,129.319 -0.013,4.978 -0.024,8.767 -0.028,11.085 C 17.62,381.78 5.5,382.484 -0.013,382.667 -0.011,368.099 0,304.792 0,261.919 c 0,-0.904 -0.408,-1.76 -1.111,-2.33 -0.703,-0.57 -1.626,-0.79 -2.51,-0.605 -0.327,0.07 -0.58,0.099 -1.092,0.168 -1.222,0.162 -3.764,0.5 -10.737,1.676 -1.444,0.243 -2.501,1.494 -2.501,2.958 l 0,120.302 c -3.101,0.156 -8.449,0.369 -14.362,0.369 -5.203,0 -9.826,-0.162 -13.789,-0.481 -0.192,-18.442 -0.371,-53.205 -0.211,-116.438 l 0.008,-3.842 c 0,-1.582 -1.229,-2.893 -2.809,-2.994 -2.131,-0.136 -9.165,-1.637 -10.96,-2.215 -0.912,-0.294 -1.911,-0.133 -2.686,0.431 -0.775,0.565 -1.233,1.466 -1.233,2.425 l 0,121.208 c -15.045,-1.297 -24.195,-3.15 -28.043,-4.058 -0.069,-13.549 -0.411,-83.444 -0.411,-129.669 0,-1.06 -0.559,-2.041 -1.471,-2.581 -1.08,-0.64 -1.919,-1.134 -2.591,-1.529 -2.547,-1.497 -2.547,-1.497 -4.424,-2.901 -0.865,-0.647 -2.101,-1.572 -4.078,-3.017 -0.911,-0.665 -2.12,-0.764 -3.129,-0.252 -1.006,0.511 -1.641,1.545 -1.641,2.675 0,40.618 -0.288,115.249 -0.359,132.996 -11.445,-2.986 -20.788,-5.856 -27.844,-8.553 0.005,-0.66 0.01,-1.466 0.017,-2.41 0.09,-12.528 0.326,-45.807 0.326,-82.849 0,-10.617 -0.105,-22.319 -0.215,-34.707 -0.231,-25.731 -0.47,-52.338 0.183,-73.555 1.202,-39.137 28.019,-62.84 43.897,-73.487 1.211,-0.812 1.663,-2.379 1.07,-3.713 C -120.936,31.482 -131.684,8.496 -135.94,0 l 32.771,0 c 2.049,4.414 9.658,21.141 37.775,84.355 0.577,1.295 1.979,2.006 3.366,1.715 10.536,-2.242 21.412,-3.379 32.326,-3.377 15.593,0 25.857,2.37 25.959,2.393 0.891,0.211 1.831,0 2.549,-0.568 0.718,-0.569 1.138,-1.434 1.139,-2.35 0,0 0.052,-53 0.055,-82.168"
               inkscape:connector-curvature="0" />
          </g>
          <path
             id="path3069"
             style="fill:#231f20;fill-opacity:1;fill-rule:nonzero;stroke:#231f20;stroke-width:7.50286531;stroke-linecap:butt;stroke-linejoin:miter;stroke-miterlimit:4;stroke-opacity:1;stroke-dasharray:none"
             d="m 168.367,225.222 5.1,0 0,-25.352 -5.1,0 0,25.352 z m 0,10.25 5.1,0 0,-5.1 -5.1,0 0,5.1 z"
             inkscape:connector-curvature="0" />
          <g
             transform="translate(179.9668,225.2217)"
             id="g3071">
            <path
               id="path3073"
               style="fill:#231f20;fill-opacity:1;fill-rule:nonzero;stroke:none"
               d="m 0,0 5.1,0 0,-2.701 0.1,0 c 1.6,2 3.901,3 6.601,3 3.95,0 8.45,-3.049 8.45,-8.8 l 0,-16.851 -5.1,0 0,15.101 c 0,3.45 -2.151,5.45 -5.001,5.45 -2.9,0 -5.05,-2 -5.05,-5.45 l 0,-15.101 -5.1,0 L 0,0 z"
               inkscape:connector-curvature="0" />
          </g>
          <g
             transform="translate(179.9668,225.2217)"
             id="g3075">
            <path
               id="path3077"
               style="fill:none;stroke:#231f20;stroke-width:7.50286531;stroke-linecap:butt;stroke-linejoin:miter;stroke-miterlimit:4;stroke-opacity:1;stroke-dasharray:none"
               d="m 0,0 5.1,0 0,-2.701 0.1,0 c 1.6,2 3.901,3 6.601,3 3.95,0 8.45,-3.049 8.45,-8.8 l 0,-16.851 -5.1,0 0,15.101 c 0,3.45 -2.151,5.45 -5.001,5.45 -2.9,0 -5.05,-2 -5.05,-5.45 l 0,-15.101 -5.1,0 L 0,0 z"
               inkscape:connector-curvature="0" />
          </g>
          <g
             transform="translate(207.3159,207.6201)"
             id="g3079">
            <path
               id="path3081"
               style="fill:#231f20;fill-opacity:1;fill-rule:nonzero;stroke:none"
               d="m 0,0 c 2.2,-2.15 4.6,-3.25 8,-3.25 2.9,0 5.001,1.1 5.001,3.25 0,1.801 -1.35,2.35 -3.101,2.5 L 5.4,2.9 c -4.2,0.35 -7.3,2.85 -7.3,7.201 0,5.15 4.1,7.799 9.45,7.799 4.45,0 7.451,-1.349 9.951,-3.449 l -3.15,-3.701 c -2,1.4 -4.05,2.351 -6.801,2.351 -3.25,0 -4.35,-1.3 -4.35,-3.05 0,-1.1 0.8,-2.2 3.35,-2.401 l 4.2,-0.299 C 16.001,7 18.101,3.801 18.101,-0.25 c 0,-4.95 -4.6,-7.801 -10.5,-7.801 -4.101,0 -7.901,1.5 -11.151,4.551 L 0,0 z"
               inkscape:connector-curvature="0" />
          </g>
          <g
             transform="translate(207.3159,207.6201)"
             id="g3083">
            <path
               id="path3085"
               style="fill:none;stroke:#231f20;stroke-width:7.50286531;stroke-linecap:butt;stroke-linejoin:miter;stroke-miterlimit:4;stroke-opacity:1;stroke-dasharray:none"
               d="m 0,0 c 2.2,-2.15 4.6,-3.25 8,-3.25 2.9,0 5.001,1.1 5.001,3.25 0,1.801 -1.35,2.35 -3.101,2.5 L 5.4,2.9 c -4.2,0.35 -7.3,2.85 -7.3,7.201 0,5.15 4.1,7.799 9.45,7.799 4.45,0 7.451,-1.349 9.951,-3.449 l -3.15,-3.701 c -2,1.4 -4.05,2.351 -6.801,2.351 -3.25,0 -4.35,-1.3 -4.35,-3.05 0,-1.1 0.8,-2.2 3.35,-2.401 l 4.2,-0.299 C 16.001,7 18.101,3.801 18.101,-0.25 c 0,-4.95 -4.6,-7.801 -10.5,-7.801 -4.101,0 -7.901,1.5 -11.151,4.551 L 0,0 z"
               inkscape:connector-curvature="0" />
          </g>
          <g
             transform="translate(243.6167,210.6201)"
             id="g3087">
            <path
               id="path3089"
               style="fill:#231f20;fill-opacity:1;fill-rule:nonzero;stroke:none"
               d="m 0,0 -6.101,0 c -3,0 -4.399,-1.199 -4.399,-3.05 0,-1.7 1.35,-3.2 4.8,-3.2 4.25,0 5.7,0.449 5.7,4.4 L 0,0 z m 0,-8.5 -0.1,0 c -1.05,-1.75 -2.8,-2.551 -6.251,-2.551 -5.65,0 -8.95,3.351 -8.95,7.751 0,4.05 2.8,7.5 8.251,7.5 L 0,4.2 0,6.851 c 0,2.4 -1.55,3.25 -5.2,3.25 -2.651,0 -3.901,-0.5 -4.8,-1.951 l -4.001,3.051 C -12.051,13.9 -9.25,14.9 -5.45,14.9 0.8,14.9 5.1,12.801 5.1,6.551 l 0,-17.301 -5.1,0 0,2.25 z"
               inkscape:connector-curvature="0" />
          </g>
          <g
             transform="translate(243.6167,210.6201)"
             id="g3091">
            <path
               id="path3093"
               style="fill:none;stroke:#231f20;stroke-width:7.50286531;stroke-linecap:butt;stroke-linejoin:miter;stroke-miterlimit:4;stroke-opacity:1;stroke-dasharray:none"
               d="m 0,0 -6.101,0 c -3,0 -4.399,-1.199 -4.399,-3.05 0,-1.7 1.35,-3.2 4.8,-3.2 4.25,0 5.7,0.449 5.7,4.4 L 0,0 z m 0,-8.5 -0.1,0 c -1.05,-1.75 -2.8,-2.551 -6.251,-2.551 -5.65,0 -8.95,3.351 -8.95,7.751 0,4.05 2.8,7.5 8.251,7.5 L 0,4.2 0,6.851 c 0,2.4 -1.55,3.25 -5.2,3.25 -2.651,0 -3.901,-0.5 -4.8,-1.951 l -4.001,3.051 C -12.051,13.9 -9.25,14.9 -5.45,14.9 0.8,14.9 5.1,12.801 5.1,6.551 l 0,-17.301 -5.1,0 0,2.25 z"
               inkscape:connector-curvature="0" />
          </g>
          <g
             transform="translate(255.8159,207.6201)"
             id="g3095">
            <path
               id="path3097-4"
               style="fill:#231f20;fill-opacity:1;fill-rule:nonzero;stroke:none"
               d="m 0,0 c 2.2,-2.15 4.6,-3.25 8,-3.25 2.9,0 5.001,1.1 5.001,3.25 0,1.801 -1.35,2.35 -3.101,2.5 L 5.4,2.9 c -4.2,0.35 -7.3,2.85 -7.3,7.201 0,5.15 4.1,7.799 9.45,7.799 4.45,0 7.451,-1.349 9.951,-3.449 l -3.15,-3.701 c -2,1.4 -4.05,2.351 -6.801,2.351 -3.25,0 -4.35,-1.3 -4.35,-3.05 0,-1.1 0.8,-2.2 3.35,-2.401 l 4.2,-0.299 C 16.001,7 18.101,3.801 18.101,-0.25 c 0,-4.95 -4.6,-7.801 -10.5,-7.801 -4.101,0 -7.901,1.5 -11.151,4.551 L 0,0 z"
               inkscape:connector-curvature="0" />
          </g>
          <g
             transform="translate(255.8159,207.6201)"
             id="g3099">
            <path
               id="path3101"
               style="fill:none;stroke:#231f20;stroke-width:7.50286531;stroke-linecap:butt;stroke-linejoin:miter;stroke-miterlimit:4;stroke-opacity:1;stroke-dasharray:none"
               d="m 0,0 c 2.2,-2.15 4.6,-3.25 8,-3.25 2.9,0 5.001,1.1 5.001,3.25 0,1.801 -1.35,2.35 -3.101,2.5 L 5.4,2.9 c -4.2,0.35 -7.3,2.85 -7.3,7.201 0,5.15 4.1,7.799 9.45,7.799 4.45,0 7.451,-1.349 9.951,-3.449 l -3.15,-3.701 c -2,1.4 -4.05,2.351 -6.801,2.351 -3.25,0 -4.35,-1.3 -4.35,-3.05 0,-1.1 0.8,-2.2 3.35,-2.401 l 4.2,-0.299 C 16.001,7 18.101,3.801 18.101,-0.25 c 0,-4.95 -4.6,-7.801 -10.5,-7.801 -4.101,0 -7.901,1.5 -11.151,4.551 L 0,0 z"
               inkscape:connector-curvature="0" />
          </g>
        </g>
      </g>
    </g>
  </g>
</svg>
