<?xml version="1.0" encoding="UTF-8" standalone="no"?>
<!-- Created with Inkscape (http://www.inkscape.org/) -->

<svg
   xmlns:dc="http://purl.org/dc/elements/1.1/"
   xmlns:cc="http://creativecommons.org/ns#"
   xmlns:rdf="http://www.w3.org/1999/02/22-rdf-syntax-ns#"
   xmlns:svg="http://www.w3.org/2000/svg"
   xmlns="http://www.w3.org/2000/svg"
   xmlns:sodipodi="http://sodipodi.sourceforge.net/DTD/sodipodi-0.dtd"
   xmlns:inkscape="http://www.inkscape.org/namespaces/inkscape"
   width="99.999001"
   height="179.9832"
   id="svg3239"
   version="1.1"
   inkscape:version="0.48.3.1 r9886"
   sodipodi:docname="insas.svg">
  <sodipodi:namedview
     id="base"
     pagecolor="#ffffff"
     bordercolor="#666666"
     borderopacity="1.0"
     inkscape:pageopacity="0.0"
     inkscape:pageshadow="2"
     inkscape:zoom="1.509375"
     inkscape:cx="60.218043"
     inkscape:cy="18.031036"
     inkscape:document-units="px"
     inkscape:current-layer="layer1"
     showgrid="false"
     inkscape:window-width="1375"
     inkscape:window-height="876"
     inkscape:window-x="65"
     inkscape:window-y="24"
     inkscape:window-maximized="1"
     fit-margin-top="0"
     fit-margin-left="0"
     fit-margin-right="0"
     fit-margin-bottom="0" />
  <defs
     id="defs3241">
    <clipPath
       clipPathUnits="userSpaceOnUse"
       id="clipPath3061">
      <path
         d="m 0,467.936 430.667,0 L 430.667,0 0,0 0,467.936 z"
         id="path3063"
         inkscape:connector-curvature="0" />
    </clipPath>
  </defs>
  <metadata
     id="metadata3244">
    <rdf:RDF>
      <cc:Work
         rdf:about="">
        <dc:format>image/svg+xml</dc:format>
        <dc:type
           rdf:resource="http://purl.org/dc/dcmitype/StillImage" />
        <dc:title></dc:title>
      </cc:Work>
    </rdf:RDF>
  </metadata>
  <g
     transform="translate(-287.92151,-535.83355)"
     id="layer1"
     inkscape:groupmode="layer"
     inkscape:label="Layer 1">
    <g
       transform="matrix(0.99999611,0,0,0.99999611,0.00111894,0.00278186)"
       id="g4156">
      <path
         id="path3067"
         style="fill:#005176;fill-opacity:1;fill-rule:nonzero;stroke:none"
         d="m 352.57048,715.81661 13.12227,0 0,-44.06564 c 0,-0.52574 0.294,-1.00746 0.76215,-1.24903 22.23623,-11.44301 21.27512,-34.92125 21.26248,-35.1572 -9.4e-4,-0.0234 -0.002,-0.0482 -0.002,-0.073 0,-0.8202 0.002,-1.29303 0.007,-1.56175 0.004,-0.22752 0.0281,-0.42602 0.0679,-0.59689 0.0857,-1.86558 0.12921,-17.89039 0.13062,-47.67275 -2.21061,-0.004 -4.46148,-0.0173 -6.71188,-0.0304 -2.24619,-0.0131 -4.49238,-0.0262 -6.69737,-0.0304 -0.0435,9.59148 0.0201,49.25978 0.0206,49.68393 0.0126,0.39231 0.22331,10.65605 -7.97963,19.18857 l -0.26404,0.2762 c -1.8801,1.9742 -4.72177,4.95679 -14.25473,8.05173 -4.61035,1.49668 -9.39157,2.25602 -14.21119,2.25602 -8.9693,0 -14.96117,-2.60432 -15.21209,-2.71481 -0.37874,-0.15542 -10.10551,-4.21897 -15.559,-11.79459 -2.0828,-2.29862 -5.61266,-9.46976 -5.12578,-15.37642 l 0.0351,-0.46019 c 0.20505,-2.77473 0.68537,-9.27454 5.57006,-15.3193 5.79336,-7.16833 11.06942,-9.51283 15.56086,-11.14714 7.39445,-2.69374 12.12511,-2.69374 14.66624,-2.69374 0.20879,0 5.12625,0.005 6.78444,0.45691 8.10697,2.19937 9.9159,2.85666 11.11297,3.29157 l 0.27855,0.10112 c 1.12356,0.40355 2.23495,0.60813 3.30233,0.60813 2.09638,0 4.02751,-0.81458 5.29853,-2.23402 0.91852,-1.02572 1.3759,-2.23682 1.25559,-3.32293 -0.006,-0.0515 -0.008,-0.103 -0.008,-0.15496 0,-23.0555 -0.0679,-48.37357 -0.10019,-60.54081 -0.006,-2.33045 -0.0112,-4.10428 -0.0131,-5.18945 -4.84911,-1.25933 -10.5231,-1.58891 -13.10402,-1.67458 9.4e-4,6.82002 0.006,36.45725 0.006,56.52829 0,0.42321 -0.19101,0.82394 -0.52012,1.09079 -0.32911,0.26685 -0.76121,0.36984 -1.17505,0.28323 -0.15309,-0.0328 -0.27153,-0.0463 -0.51123,-0.0786 -0.57208,-0.0758 -1.76212,-0.23407 -5.02653,-0.78462 -0.67601,-0.11376 -1.17085,-0.69942 -1.17085,-1.38479 l 0,-56.31949 c -1.45173,-0.073 -3.9554,-0.17275 -6.72358,-0.17275 -2.43579,0 -4.60005,0.0758 -6.45533,0.22518 -0.0899,8.63364 -0.17369,24.90797 -0.0988,54.51056 l 0.004,1.79863 c 0,0.74062 -0.57536,1.35437 -1.31503,1.40165 -0.99763,0.0637 -4.29061,0.76636 -5.13094,1.03695 -0.42695,0.13764 -0.89463,0.0623 -1.25745,-0.20177 -0.36282,-0.26451 -0.57723,-0.68631 -0.57723,-1.13527 l 0,-56.74363 c -7.04333,0.60719 -11.32691,1.47467 -13.12836,1.89975 -0.0323,6.34298 -0.19241,39.06439 -0.19241,60.70467 0,0.49624 -0.26169,0.95549 -0.68865,1.20829 -0.5056,0.29962 -0.89838,0.53089 -1.21298,0.71581 -1.19238,0.70082 -1.19238,0.70082 -2.0711,1.3581 -0.40495,0.3029 -0.98358,0.73593 -1.90912,1.41241 -0.42648,0.31132 -0.99248,0.35767 -1.46484,0.11798 -0.47096,-0.23923 -0.76824,-0.7233 -0.76824,-1.25231 0,-19.01535 -0.13482,-53.95392 -0.16806,-62.2622 -5.35799,1.3979 -9.73192,2.7415 -13.0352,4.0041 0.002,0.30898 0.005,0.68631 0.008,1.12824 0.0421,5.865 0.15262,21.44459 0.15262,38.78584 0,4.97036 -0.0492,10.44866 -0.10065,16.24811 -0.10815,12.04599 -0.22003,24.50208 0.0857,34.43484 0.56272,18.32203 13.11712,29.41861 20.55042,34.40301 0.56693,0.38014 0.77853,1.11373 0.50092,1.73824 -13.2159,29.70839 -18.24759,40.46931 -20.24004,44.44672 l 15.34178,0 c 0.95924,-2.06642 4.5214,-9.89718 17.6844,-39.49087 0.27012,-0.60626 0.92647,-0.93911 1.57579,-0.80288 4.93244,1.04959 10.02405,1.58188 15.13345,1.58095 7.29988,0 12.10498,-1.10952 12.15273,-1.12029 0.41712,-0.0988 0.85719,0 1.19332,0.26591 0.33613,0.26638 0.53275,0.67133 0.53322,1.10016 0,0 0.0243,24.81199 0.0257,38.46702"
         inkscape:connector-curvature="0" />
      <path
         inkscape:connector-curvature="0"
         d="m 314.12303,629.91901 2.38757,0 0,11.86857 -2.38757,0 0,-11.86857 z m 0,-4.79854 2.38757,0 0,2.38757 -2.38757,0 0,-2.38757 z"
         style="fill:#005176;fill-opacity:1;fill-rule:nonzero;stroke:#005176;stroke-width:1.25000489;stroke-linecap:butt;stroke-linejoin:miter;stroke-miterlimit:4;stroke-opacity:1;stroke-dasharray:none"
         id="path3069" />
      <path
         id="path3073"
         style="fill:#231f20;fill-opacity:1;fill-rule:nonzero;stroke:none"
         d="m 319.55348,629.91915 2.38757,0 0,1.26448 0.0468,0 c 0.74905,-0.93631 1.82626,-1.40446 3.09027,-1.40446 1.8492,0 3.95587,1.4274 3.95587,4.11973 l 0,7.88881 -2.38757,0 0,-7.06954 c 0,-1.61513 -1.00699,-2.55143 -2.34122,-2.55143 -1.35764,0 -2.36416,0.9363 -2.36416,2.55143 l 0,7.06954 -2.38757,0 0,-11.86856 z"
         inkscape:connector-curvature="0" />
      <path
         id="path3077"
         style="fill:#005176;stroke:#005176;stroke-width:1.25000489;stroke-linecap:butt;stroke-linejoin:miter;stroke-miterlimit:4;stroke-opacity:1;stroke-dasharray:none"
         d="m 319.55348,629.91915 2.38757,0 0,1.26448 0.0468,0 c 0.74905,-0.93631 1.82626,-1.40446 3.09027,-1.40446 1.8492,0 3.95587,1.4274 3.95587,4.11973 l 0,7.88881 -2.38757,0 0,-7.06954 c 0,-1.61513 -1.00699,-2.55143 -2.34122,-2.55143 -1.35764,0 -2.36416,0.9363 -2.36416,2.55143 l 0,7.06954 -2.38757,0 0,-11.86856 z"
         inkscape:connector-curvature="0" />
      <path
         id="path3081"
         style="fill:#231f20;fill-opacity:1;fill-rule:nonzero;stroke:none"
         d="m 332.35699,638.15936 c 1.02993,1.00652 2.15349,1.52149 3.74521,1.52149 1.35764,0 2.34122,-0.51497 2.34122,-1.52149 0,-0.84314 -0.632,-1.10015 -1.45174,-1.17038 l -2.10668,-0.18726 c -1.96623,-0.16385 -3.4175,-1.33423 -3.4175,-3.37115 0,-2.41098 1.91942,-3.65111 4.42403,-3.65111 2.08327,0 3.48819,0.63153 4.65857,1.61465 l -1.47468,1.73263 c -0.9363,-0.65541 -1.89601,-1.10063 -3.18389,-1.10063 -1.52149,0 -2.03646,0.6086 -2.03646,1.42787 0,0.51496 0.37452,1.02993 1.56831,1.12403 l 1.96623,0.13997 c 2.45826,0.16432 3.44138,1.66194 3.44138,3.55842 0,2.31734 -2.15349,3.65204 -4.91558,3.65204 -1.91989,0 -3.69887,-0.70222 -5.22036,-2.13055 l 1.66194,-1.63853 z"
         inkscape:connector-curvature="0" />
      <path
         id="path3085"
         style="fill:#005176;stroke:#005176;stroke-width:1.25000489;stroke-linecap:butt;stroke-linejoin:miter;stroke-miterlimit:4;stroke-opacity:1;stroke-dasharray:none"
         d="m 332.35699,638.15936 c 1.02993,1.00652 2.15349,1.52149 3.74521,1.52149 1.35764,0 2.34122,-0.51497 2.34122,-1.52149 0,-0.84314 -0.632,-1.10015 -1.45174,-1.17038 l -2.10668,-0.18726 c -1.96623,-0.16385 -3.4175,-1.33423 -3.4175,-3.37115 0,-2.41098 1.91942,-3.65111 4.42403,-3.65111 2.08327,0 3.48819,0.63153 4.65857,1.61465 l -1.47468,1.73263 c -0.9363,-0.65541 -1.89601,-1.10063 -3.18389,-1.10063 -1.52149,0 -2.03646,0.6086 -2.03646,1.42787 0,0.51496 0.37452,1.02993 1.56831,1.12403 l 1.96623,0.13997 c 2.45826,0.16432 3.44138,1.66194 3.44138,3.55842 0,2.31734 -2.15349,3.65204 -4.91558,3.65204 -1.91989,0 -3.69887,-0.70222 -5.22036,-2.13055 l 1.66194,-1.63853 z"
         inkscape:connector-curvature="0" />
      <path
         id="path3089"
         style="fill:#231f20;fill-opacity:1;fill-rule:nonzero;stroke:none"
         d="m 349.35124,636.75491 -2.85619,0 c -1.40445,0 -2.05939,0.56131 -2.05939,1.42786 0,0.79586 0.632,1.49808 2.24712,1.49808 1.98964,0 2.66846,-0.2102 2.66846,-2.05986 l 0,-0.86608 z m 0,3.97928 -0.0468,0 c -0.49155,0.81927 -1.31082,1.19426 -2.92641,1.19426 -2.64505,0 -4.18995,-1.56878 -4.18995,-3.62864 0,-1.89601 1.31083,-3.51113 3.86272,-3.51113 l 3.30046,0 0,-1.24107 c 0,-1.12356 -0.72563,-1.52149 -2.43438,-1.52149 -1.24107,0 -1.82626,0.23407 -2.24713,0.91336 l -1.87307,-1.42833 c 0.91289,-1.26354 2.22418,-1.73169 4.00316,-1.73169 2.92594,0 4.93899,0.98265 4.93899,3.90859 l 0,8.09948 -2.38757,0 0,-1.05334 z"
         inkscape:connector-curvature="0" />
      <path
         id="path3093"
         style="fill:#005176;stroke:#005176;stroke-width:1.25000489;stroke-linecap:butt;stroke-linejoin:miter;stroke-miterlimit:4;stroke-opacity:1;stroke-dasharray:none"
         d="m 349.35124,636.75491 -2.85619,0 c -1.40445,0 -2.05939,0.56131 -2.05939,1.42786 0,0.79586 0.632,1.49808 2.24712,1.49808 1.98964,0 2.66846,-0.2102 2.66846,-2.05986 l 0,-0.86608 z m 0,3.97928 -0.0468,0 c -0.49155,0.81927 -1.31082,1.19426 -2.92641,1.19426 -2.64505,0 -4.18995,-1.56878 -4.18995,-3.62864 0,-1.89601 1.31083,-3.51113 3.86272,-3.51113 l 3.30046,0 0,-1.24107 c 0,-1.12356 -0.72563,-1.52149 -2.43438,-1.52149 -1.24107,0 -1.82626,0.23407 -2.24713,0.91336 l -1.87307,-1.42833 c 0.91289,-1.26354 2.22418,-1.73169 4.00316,-1.73169 2.92594,0 4.93899,0.98265 4.93899,3.90859 l 0,8.09948 -2.38757,0 0,-1.05334 z"
         inkscape:connector-curvature="0" />
      <path
         id="path3097-4"
         style="fill:#231f20;fill-opacity:1;fill-rule:nonzero;stroke:none"
         d="m 355.06231,638.15936 c 1.02993,1.00652 2.15349,1.52149 3.74521,1.52149 1.35764,0 2.34122,-0.51497 2.34122,-1.52149 0,-0.84314 -0.632,-1.10015 -1.45174,-1.17038 l -2.10668,-0.18726 c -1.96623,-0.16385 -3.4175,-1.33423 -3.4175,-3.37115 0,-2.41098 1.91942,-3.65111 4.42403,-3.65111 2.08327,0 3.48819,0.63153 4.65857,1.61465 l -1.47468,1.73263 c -0.9363,-0.65541 -1.89601,-1.10063 -3.18389,-1.10063 -1.52149,0 -2.03646,0.6086 -2.03646,1.42787 0,0.51496 0.37452,1.02993 1.56831,1.12403 l 1.96623,0.13997 c 2.45826,0.16432 3.44138,1.66194 3.44138,3.55842 0,2.31734 -2.15349,3.65204 -4.91558,3.65204 -1.91989,0 -3.69887,-0.70222 -5.22036,-2.13055 l 1.66194,-1.63853 z"
         inkscape:connector-curvature="0" />
      <path
         id="path3101"
         style="fill:#005176;stroke:#005176;stroke-width:1.25000489;stroke-linecap:butt;stroke-linejoin:miter;stroke-miterlimit:4;stroke-opacity:1;stroke-dasharray:none"
         d="m 355.06231,638.15936 c 1.02993,1.00652 2.15349,1.52149 3.74521,1.52149 1.35764,0 2.34122,-0.51497 2.34122,-1.52149 0,-0.84314 -0.632,-1.10015 -1.45174,-1.17038 l -2.10668,-0.18726 c -1.96623,-0.16385 -3.4175,-1.33423 -3.4175,-3.37115 0,-2.41098 1.91942,-3.65111 4.42403,-3.65111 2.08327,0 3.48819,0.63153 4.65857,1.61465 l -1.47468,1.73263 c -0.9363,-0.65541 -1.89601,-1.10063 -3.18389,-1.10063 -1.52149,0 -2.03646,0.6086 -2.03646,1.42787 0,0.51496 0.37452,1.02993 1.56831,1.12403 l 1.96623,0.13997 c 2.45826,0.16432 3.44138,1.66194 3.44138,3.55842 0,2.31734 -2.15349,3.65204 -4.91558,3.65204 -1.91989,0 -3.69887,-0.70222 -5.22036,-2.13055 l 1.66194,-1.63853 z"
         inkscape:connector-curvature="0" />
    </g>
  </g>
</svg>
