<?xml version="1.0" encoding="UTF-8" standalone="no"?>
<!-- Created with Inkscape (http://www.inkscape.org/) -->

<svg
   xmlns:dc="http://purl.org/dc/elements/1.1/"
   xmlns:cc="http://creativecommons.org/ns#"
   xmlns:rdf="http://www.w3.org/1999/02/22-rdf-syntax-ns#"
   xmlns:svg="http://www.w3.org/2000/svg"
   xmlns="http://www.w3.org/2000/svg"
   xmlns:sodipodi="http://sodipodi.sourceforge.net/DTD/sodipodi-0.dtd"
   xmlns:inkscape="http://www.inkscape.org/namespaces/inkscape"
   width="100"
   height="63.121811"
   id="svg3510"
   version="1.1"
   inkscape:version="0.48.3.1 r9886"
   sodipodi:docname="ligue-famille.svg">
  <sodipodi:namedview
     id="base"
     pagecolor="#ffffff"
     bordercolor="#666666"
     borderopacity="1.0"
     inkscape:pageopacity="0.0"
     inkscape:pageshadow="2"
     inkscape:zoom="2.1345786"
     inkscape:cx="-3.2367176"
     inkscape:cy="80.06687"
     inkscape:document-units="px"
     inkscape:current-layer="layer1"
     showgrid="false"
     inkscape:window-width="1375"
     inkscape:window-height="876"
     inkscape:window-x="65"
     inkscape:window-y="24"
     inkscape:window-maximized="1"
     fit-margin-top="0"
     fit-margin-left="0"
     fit-margin-right="0"
     fit-margin-bottom="0" />
  <defs
     id="defs3512" />
  <metadata
     id="metadata3515">
    <rdf:RDF>
      <cc:Work
         rdf:about="">
        <dc:format>image/svg+xml</dc:format>
        <dc:type
           rdf:resource="http://purl.org/dc/dcmitype/StillImage" />
        <dc:title></dc:title>
      </cc:Work>
    </rdf:RDF>
  </metadata>
  <g
     inkscape:label="Layer 1"
     inkscape:groupmode="layer"
     id="layer1"
     transform="translate(-520.25151,-489.66971)">
    <path
       style="fill:#005176;fill-opacity:1;stroke:none"
       d="m 524.15505,489.66971 c -2.1548,0 -3.90354,1.74872 -3.90354,3.90354 l 0,55.31469 c 0,2.15482 1.74874,3.90358 3.90354,3.90358 l 92.1929,0 c 2.15483,0 3.90356,-1.74876 3.90356,-3.90358 l 0,-55.31469 c 0,-2.15482 -1.74873,-3.90354 -3.90356,-3.90354 l -92.1929,0 z m 0,0.88897 92.1929,0 c 1.67767,0 3.01457,1.3369 3.01457,3.01457 l 0,44.014 -49.03075,0 -49.1913,0 0,-44.014 c 0,-1.67767 1.33691,-3.01457 3.01458,-3.01457 z m 2.8859,15.70317 c -0.51791,0 -0.9973,0.0377 -1.06546,0.0809 l -0.12347,0.0782 0.0252,5.75585 0.0251,5.75715 0.59176,0.0611 c 0.68096,0.0706 1.63343,0.0109 1.7607,-0.11154 0.0488,-0.0468 0.0798,-2.56845 0.0703,-5.7306 l -0.0172,-5.6457 -0.16186,-0.12347 c -0.10422,-0.0789 -0.50223,-0.12307 -1.10527,-0.12212 z m 16.28565,0 c -0.72337,0 -1.02848,0.0354 -1.10923,0.13269 -0.0806,0.0972 -0.10342,1.70692 -0.085,5.83676 l 0.0252,5.70278 0.59046,0.0611 c 0.75306,0.0771 1.75125,-0.003 1.84696,-0.1473 0.0405,-0.0613 0.0626,-2.6506 0.0492,-5.75449 l -0.024,-5.64307 -0.14859,-0.093 c -0.0812,-0.0514 -0.59632,-0.0947 -1.14506,-0.0956 z m 3.58246,0 c -0.44772,0.003 -0.86161,0.0332 -0.95799,0.0942 -0.10422,0.0659 -0.15675,0.3187 -0.18175,0.86909 l -0.0359,0.77488 0.16452,0.16453 0.16454,0.16454 0.96992,0 c 0.53352,0 1.04078,-0.0268 1.12647,-0.0598 l 0.15525,-0.0598 0,-0.85583 c 0,-0.53469 -0.0443,-0.90142 -0.11805,-0.97521 -0.0804,-0.0804 -0.71137,-0.1209 -1.287,-0.1167 z m 26.08303,2.99466 c -0.72624,-0.003 -1.78658,0.22354 -2.33525,0.51748 -0.68184,0.36533 -1.47159,1.15257 -1.79389,1.78858 -0.336,0.66311 -0.55061,1.506 -0.55061,2.16144 0,1.24865 0.56608,2.6497 1.356,3.3569 0.45736,0.40943 1.19945,0.79785 1.84567,0.96596 0.30313,0.0787 0.91593,0.11818 1.59354,0.1007 l 1.10125,-0.0294 0.73374,-0.36223 c 0.82821,-0.40934 1.23945,-0.78174 1.65326,-1.49666 0.3256,-0.56262 0.36497,-0.90099 0.11412,-0.9726 -0.0949,-0.0271 -0.53851,-0.0366 -0.98716,-0.0225 l -0.816,0.0252 -0.36623,0.35691 c -0.20148,0.19636 -0.53095,0.42559 -0.73242,0.50952 -0.50622,0.21089 -1.41032,0.1914 -1.92256,-0.0412 -0.43858,-0.19907 -0.74967,-0.60029 -0.91156,-1.17826 -0.0645,-0.23038 -0.0606,-0.37964 0.0122,-0.46703 l 0.10612,-0.12876 3.01857,-0.0252 3.01856,-0.0264 -0.0108,-0.74701 c -0.0122,-0.87741 -0.29566,-1.81894 -0.751,-2.5064 -0.6274,-0.94723 -1.78786,-1.61078 -3.08621,-1.76338 -0.0876,-0.009 -0.18551,-0.0156 -0.28926,-0.016 z m -19.28029,0.0358 -0.90096,0.0412 -0.90092,0.0424 -0.55992,0.26934 c -0.34058,0.16336 -0.75134,0.47686 -1.04555,0.79877 -1.49509,1.63585 -1.43105,4.88602 0.12605,6.39934 0.61387,0.59661 1.34999,0.87149 2.36577,0.88368 0.43344,0.007 0.947,-0.0236 1.1411,-0.0651 0.19404,-0.0413 0.60977,-0.23038 0.92348,-0.41927 0.31369,-0.18892 0.60915,-0.34366 0.65678,-0.34366 0.0477,0 0.0862,0.27896 0.0862,0.61963 0,0.44824 -0.0613,0.73966 -0.2216,1.05352 -0.12198,0.23859 -0.3316,0.51482 -0.46705,0.61299 -0.1354,0.0981 -0.49013,0.22822 -0.78811,0.28925 l -0.54269,0.11005 -0.43655,-0.1194 c -0.39337,-0.10816 -0.72709,-0.37285 -1.16763,-0.92747 l -0.1274,-0.16054 -1.0681,0 c -0.79189,0 -1.09648,0.035 -1.18089,0.13666 l -0.11411,0.13799 0.14065,0.40734 c 0.20515,0.59549 0.53135,1.02435 1.04157,1.37065 0.51392,0.34881 1.11575,0.57963 1.82837,0.69923 0.70681,0.11859 1.07995,0.11818 2.02212,0 1.61722,-0.20054 2.76543,-0.98113 3.25606,-2.21582 l 0.23219,-0.58644 0.0358,-4.26582 0.0356,-4.26711 -0.11805,-0.14198 -0.11805,-0.14197 -1.00308,0 c -1.05598,0 -1.23927,0.0666 -1.23927,0.44713 0,0.11561 -0.0287,0.23821 -0.0636,0.27334 -0.0352,0.0352 -0.2286,-0.0848 -0.42991,-0.2667 -0.20128,-0.18186 -0.59845,-0.40722 -0.88235,-0.50154 l -0.51612,-0.17118 z m -20.82478,0 -0.63555,0.16188 c -0.83329,0.21266 -1.33037,0.4738 -1.84433,0.97256 -0.28231,0.274 -0.47358,0.57693 -0.58118,0.9182 -0.0882,0.27973 -0.13512,0.57254 -0.10476,0.65148 0.0388,0.10111 0.28342,0.16035 0.82796,0.20169 0.42474,0.0323 0.94955,0.0278 1.1663,-0.0109 l 0.39406,-0.0703 0.16055,-0.34363 c 0.0889,-0.18873 0.24482,-0.41783 0.3463,-0.50952 0.41449,-0.37448 1.69562,-0.40346 2.23439,-0.0504 0.33699,0.22078 0.4441,0.76559 0.21893,1.10923 -0.0901,0.13766 -0.28241,0.2969 -0.42854,0.35428 -0.14618,0.0573 -0.70941,0.16693 -1.25125,0.24282 -2.12207,0.29722 -3.00128,0.5994 -3.50285,1.20742 -0.35411,0.4293 -0.48623,0.86296 -0.48694,1.59488 0,1.08652 0.66934,1.92978 1.82705,2.29939 0.35172,0.11236 0.78092,0.14698 1.53916,0.12469 l 1.04951,-0.0306 0.67405,-0.33835 c 0.37027,-0.18574 0.70423,-0.35054 0.74169,-0.36752 0.0374,-0.0172 0.13885,0.10558 0.22555,0.27334 l 0.1579,0.30516 1.15303,-0.0278 1.15302,-0.0278 -0.0225,-0.24678 c -0.0122,-0.13554 -0.0676,-0.66617 -0.12063,-1.1809 -0.053,-0.51473 -0.0976,-1.88515 -0.0995,-3.04378 -0.003,-1.35578 -0.0465,-2.24847 -0.12347,-2.50506 -0.16924,-0.56497 -0.70635,-1.08044 -1.40644,-1.34941 l -0.59179,-0.22689 -1.33479,-0.0439 -1.33478,-0.0438 z m 13.1145,0.21097 -0.12469,0.16987 -0.12347,0.16982 0,3.87968 c 0,2.48542 0.0369,3.94732 0.10219,4.06943 l 0.10084,0.18971 1.13314,0 1.13309,0 0.0703,-0.19106 c 0.0389,-0.1049 0.0484,-2.00001 0.0211,-4.21138 l -0.0492,-4.02034 -1.1318,-0.0278 -1.13175,-0.0278 z m 14.67618,0.024 c -0.0806,0 -0.16578,0.003 -0.25476,0.004 l -1.12516,0.0278 -0.0252,2.99735 -0.0266,2.996 0.15257,0.59974 c 0.17353,0.67936 0.5168,1.25289 0.89696,1.502 0.14214,0.0932 0.48507,0.2476 0.76293,0.34363 0.70119,0.24236 1.97401,0.23986 2.61917,-0.007 0.26993,-0.10246 0.66581,-0.32392 0.87838,-0.49224 0.21256,-0.16838 0.43163,-0.3065 0.48829,-0.3065 0.0568,0 0.11723,0.16699 0.13404,0.37017 l 0.0306,0.36887 1.13314,0 1.13311,0 0,-4.1862 0,-4.18751 -1.12517,-0.0278 c -0.61851,-0.0153 -1.16197,0.008 -1.20741,0.0543 -0.0455,0.0455 -0.0962,1.25908 -0.11276,2.69615 l -0.0294,2.61255 -0.24017,0.48296 c -0.31353,0.63063 -0.7164,0.86511 -1.4887,0.86511 -0.65385,0 -1.01265,-0.19477 -1.26447,-0.68335 l -0.1473,-0.28658 -0.0492,-2.77708 c -0.032,-1.80102 -0.0873,-2.81678 -0.15655,-2.88589 -0.0591,-0.059 -0.41221,-0.0877 -0.97656,-0.0823 z m 12.10608,1.63598 c 0.71099,-0.007 1.22726,0.25364 1.51126,0.76028 0.12144,0.21673 0.22069,0.49374 0.2216,0.61566 l 0,0.22157 -1.77266,0 -1.77266,0 0,-0.20832 c 0,-0.11452 0.0966,-0.37987 0.21497,-0.59044 0.27745,-0.49366 0.87313,-0.79226 1.59617,-0.79875 z m -19.14764,0.0211 c 1.24696,0 1.95697,0.85716 1.96504,2.37107 0.007,1.04207 -0.47696,1.86234 -1.29896,2.20519 -0.35304,0.14727 -0.76054,0.17423 -1.24326,0.0823 -0.12618,-0.024 -0.39557,-0.2112 -0.59971,-0.41534 -0.70936,-0.70933 -0.90045,-2.27688 -0.40203,-3.3065 0.29034,-0.5998 0.85766,-0.93672 1.57892,-0.93672 z m -18.59966,2.90711 c 0.0491,0 0.0809,0.003 0.093,0.008 0.11737,0.0725 0.10097,0.80532 -0.0278,1.26978 -0.14026,0.50521 -0.67047,1.00888 -1.14769,1.08932 -0.20163,0.034 -0.43357,0.076 -0.51482,0.0942 -0.27846,0.0623 -1.12506,-0.22644 -1.30164,-0.44449 -0.2398,-0.29614 -0.22716,-0.89321 0.0251,-1.21406 0.12509,-0.15899 0.39514,-0.30963 0.71385,-0.39805 0.65747,-0.18241 1.81667,-0.39535 2.1601,-0.40601 z m -1.89075,6.72838 c -0.23384,0 -0.46248,0 -0.66078,0.008 l -0.21626,0.009 -0.0306,1.86419 c -0.0168,1.02506 -0.0611,1.89359 -0.0981,1.93057 -0.0371,0.037 -0.21443,-0.044 -0.39408,-0.18047 -0.61471,-0.46672 -1.13134,-0.60971 -2.19859,-0.6077 l -0.98452,0.003 -0.57185,0.28261 c -0.3141,0.15551 -0.78322,0.49909 -1.04291,0.76428 -0.81616,0.83348 -1.18948,1.83659 -1.19149,3.19636 0,0.43957 0.0442,1.03787 0.0995,1.32949 0.1354,0.71432 0.5845,1.64871 1.03096,2.14284 0.40575,0.44914 1.33849,0.95224 2.02076,1.09066 0.5448,0.11046 1.47058,0.0423 2.08712,-0.15391 0.25398,-0.0809 0.62692,-0.27837 0.82928,-0.4392 0.20234,-0.16081 0.40026,-0.2584 0.44053,-0.21627 0.0403,0.0421 0.088,0.18831 0.10612,0.32375 l 0.0332,0.24549 1.1331,0 1.13311,0 0.0252,-5.70807 c 0.0141,-3.1394 -0.0108,-5.74395 -0.0557,-5.78902 -0.0512,-0.0514 -0.79245,-0.0932 -1.49404,-0.0969 z m 55.90113,0.0122 -1.1318,0.0278 -1.13179,0.0278 -0.0294,0.82926 c -0.016,0.456 -0.007,0.88839 0.0225,0.96062 l 0.0504,0.13133 1.1318,0 1.13311,0 0.10097,-0.18975 c 0.14342,-0.26804 0.12876,-1.41231 -0.0211,-1.61742 l -0.12469,-0.16982 z m 7.28966,0 -1.13178,0.0278 -1.1318,0.0278 -0.0251,5.75715 -0.0252,5.75715 0.12347,0.0783 c 0.0682,0.0432 0.575,0.0787 1.1265,0.0796 l 1.00308,0.003 0.1566,-0.15657 0.15655,-0.15655 -0.005,-5.54354 -0.004,-5.54225 -0.12211,-0.16582 -0.12076,-0.16588 z m -34.71676,0.007 c -0.55055,-0.004 -1.22081,0.0496 -1.5763,0.15523 -0.63579,0.18881 -1.42017,0.88051 -1.59487,1.40644 -0.0659,0.19816 -0.14492,0.62628 -0.17647,0.95134 l -0.0569,0.59047 -0.61165,0.0491 c -0.33599,0.0271 -0.65967,0.0983 -0.71917,0.1579 -0.0641,0.0641 -0.0957,0.386 -0.0782,0.78815 l 0.0294,0.67936 0.58778,0.0305 c 0.32321,0.0165 0.64423,0.0777 0.71386,0.1354 l 0.12726,0.10477 0,3.23352 0,3.23484 0.14597,0.0809 c 0.17519,0.098 1.86996,0.15622 2.13223,0.0729 l 0.18445,-0.0598 0,-3.22558 0,-3.22554 0.12347,-0.1632 c 0.0899,-0.11913 0.30902,-0.17069 0.81202,-0.19104 l 0.68995,-0.0278 0.0863,-0.50424 c 0.0633,-0.37282 0.05,-0.57803 -0.0504,-0.78812 l -0.13667,-0.28396 -0.70323,-0.0278 -0.70455,-0.0294 -0.0598,-0.15394 c -0.0923,-0.24067 0.12672,-0.90653 0.33435,-1.01766 0.103,-0.0552 0.42447,-0.10084 0.71519,-0.10084 0.29073,0 0.58248,-0.053 0.64751,-0.11805 0.0698,-0.0698 0.11805,-0.40466 0.11805,-0.81732 0,-0.41264 -0.0484,-0.74892 -0.11805,-0.81866 -0.0767,-0.0767 -0.43295,-0.1148 -0.86112,-0.11805 z m 28.87869,0 -0.0598,0.15655 c -0.0328,0.0857 -0.0598,2.66948 -0.0598,5.74258 l 0,5.58733 0.11805,0.11805 c 0.077,0.077 0.48146,0.1194 1.16232,0.1194 0.68081,0 1.08524,-0.0424 1.16231,-0.1194 l 0.11805,-0.11805 0,-5.58733 c 0,-3.0731 -0.0267,-5.65685 -0.0598,-5.74258 l -0.0598,-0.15655 -1.16097,0 -1.16097,0 z m -23.41743,2.96017 c -1.96092,0.008 -3.50276,0.75525 -3.94601,1.91596 -0.0871,0.22859 -0.14396,0.54372 -0.12605,0.70057 l 0.0332,0.28527 0.88632,0.0294 c 0.48762,0.0165 1.02083,0.007 1.18486,-0.024 l 0.29855,-0.0557 0.1937,-0.41795 c 0.24205,-0.52103 0.68781,-0.76294 1.40514,-0.76294 0.60954,0 1.14355,0.19716 1.29369,0.47767 0.16376,0.30602 0.12849,0.85064 -0.0664,1.02699 -0.26586,0.2406 -0.62777,0.34839 -1.57098,0.46834 -1.1689,0.1487 -2.40872,0.44395 -2.88059,0.68466 -0.41721,0.21285 -0.81,0.66182 -0.99245,1.13578 -0.16343,0.42456 -0.14309,1.51234 0.0356,1.9279 0.18191,0.42254 0.83758,1.0384 1.32156,1.24058 0.19213,0.0802 0.53186,0.18295 0.75362,0.22689 0.22177,0.044 0.55739,0.0834 0.74701,0.0889 0.64876,0.019 1.62548,-0.19545 2.20788,-0.48565 0.3202,-0.15955 0.62052,-0.29057 0.66741,-0.29057 0.0468,0 0.12767,0.11141 0.1791,0.24679 l 0.0942,0.24548 1.19417,0 1.19548,0 -0.0651,-0.36887 c -0.0359,-0.20319 -0.0965,-1.74362 -0.13539,-3.42324 l -0.0717,-3.05438 -0.20964,-0.39408 c -0.11548,-0.21674 -0.31402,-0.4911 -0.44185,-0.61034 -0.55188,-0.51479 -1.74097,-0.81835 -3.18577,-0.81337 z m 43.50978,0 c -0.91287,0.007 -1.87839,0.16799 -2.44407,0.44316 -0.27857,0.13553 -0.68493,0.43962 -0.90223,0.67536 l -0.39407,0.42859 -0.11805,0.5639 c -0.187,0.90067 0.007,1.55108 0.61964,2.08979 0.35527,0.31195 1.33058,0.65402 2.8779,1.01103 0.94549,0.21817 1.70117,0.54582 1.85495,0.80273 0.15369,0.25685 -0.009,0.65247 -0.39142,0.9434 l -0.35829,0.27334 -0.70321,0 c -0.89957,0 -1.29785,-0.21122 -1.62005,-0.85847 l -0.23221,-0.46706 -1.1225,0 -1.12249,0 0,0.3755 c 0,0.2061 0.11588,0.60491 0.25605,0.88631 0.46942,0.94204 1.39945,1.5043 2.78109,1.68244 0.36191,0.0466 0.85743,0.0893 1.10126,0.0942 0.78465,0.016 1.92559,-0.24445 2.56476,-0.58514 0.78742,-0.41969 1.21088,-0.96601 1.36799,-1.76471 l 0.11805,-0.5997 -0.11005,-0.53076 -0.11006,-0.52941 -0.38478,-0.34763 c -0.21116,-0.19078 -0.56686,-0.4404 -0.79079,-0.55461 -0.22391,-0.11426 -1.03756,-0.35255 -1.80847,-0.52941 -0.77092,-0.1769 -1.57573,-0.40679 -1.78861,-0.51084 -0.24333,-0.119 -0.42232,-0.28984 -0.48164,-0.46173 l -0.0942,-0.27333 0.24547,-0.24682 c 0.31033,-0.31033 1.07807,-0.41908 1.70765,-0.2428 0.44871,0.12564 0.6913,0.3211 0.88763,0.7165 l 0.11005,0.22027 0.98317,0.053 c 0.54047,0.029 1.05956,0.0165 1.15437,-0.0278 0.2255,-0.10545 0.21864,-0.40975 -0.0212,-0.9049 -0.42493,-0.87719 -1.3346,-1.51495 -2.46263,-1.72889 -0.35084,-0.0664 -0.754,-0.0979 -1.16894,-0.0956 z m -8.96812,0.0108 c -0.30161,0.004 -0.58816,0.0287 -0.82665,0.0782 -0.85828,0.17819 -1.65121,0.62437 -2.2795,1.28305 -0.30831,0.32324 -0.66334,0.82179 -0.78946,1.10793 -0.28048,0.63613 -0.45308,1.41037 -0.45115,2.02741 0.003,0.67977 0.25689,1.64501 0.60639,2.30073 0.56369,1.0576 1.59258,1.77336 2.88851,2.00885 0.87185,0.15842 1.02858,0.16135 1.86953,0.0399 0.73928,-0.10694 1.56783,-0.44061 2.10171,-0.84785 0.42083,-0.32099 1.00289,-1.22253 1.07475,-1.66518 l 0.0543,-0.33836 -1.03629,0 -1.03493,0 -0.15922,0.24148 c -0.0871,0.13296 -0.35968,0.35964 -0.60636,0.50422 -0.31841,0.1866 -0.59795,0.26589 -0.96194,0.27332 -0.28202,0.007 -0.67936,-0.0243 -0.8837,-0.0663 -0.5457,-0.11249 -1.02669,-0.58095 -1.2021,-1.17159 -0.0809,-0.27251 -0.1236,-0.53369 -0.0942,-0.58118 0.0293,-0.0474 1.37216,-0.0875 2.98404,-0.0875 l 2.931,0 0.18179,-0.13269 0.18308,-0.13268 -0.0583,-0.69525 c -0.0736,-0.87767 -0.45261,-1.97806 -0.86642,-2.51568 -0.45893,-0.59628 -1.14171,-1.12412 -1.76603,-1.36534 -0.4589,-0.17732 -1.1954,-0.27373 -1.85889,-0.26536 z m -61.76711,0 c -0.29701,0.003 -0.57626,0.0251 -0.80138,0.0717 -1.12883,0.23484 -2.11088,0.8931 -2.77445,1.85757 -1.30516,1.89695 -0.82744,4.90871 0.97656,6.14991 0.55842,0.38419 1.26866,0.65847 1.98628,0.7669 0.77221,0.11669 1.91114,0.0263 2.51304,-0.19899 1.09879,-0.41113 1.78881,-1.03905 2.24104,-2.03937 0.10436,-0.23092 0.16313,-0.46391 0.12998,-0.51745 -0.0331,-0.0537 -0.50083,-0.0969 -1.04028,-0.0969 l -0.9792,0 -0.22156,0.25477 c -0.2899,0.33539 -0.92094,0.6929 -1.36003,0.76954 -0.45964,0.0802 -1.35825,-0.093 -1.66917,-0.32108 -0.55341,-0.4061 -0.93519,-1.58568 -0.51612,-1.59354 0.0947,-0.003 1.23521,-0.007 2.53559,-0.008 1.30035,-0.003 2.6091,-0.0342 2.90712,-0.0703 l 0.54133,-0.0663 -0.0146,-0.78817 c -0.034,-1.79054 -1.05132,-3.30938 -2.61787,-3.9102 -0.44314,-0.16996 -1.18288,-0.26536 -1.83635,-0.26006 z m 42.54516,0.007 c -0.14972,-0.003 -0.29443,0.004 -0.43122,0.0211 -0.62989,0.0787 -1.59444,0.51918 -1.92656,0.87969 -0.13134,0.14259 -0.28911,0.26009 -0.35029,0.26009 -0.0613,0 -0.25887,-0.15232 -0.43921,-0.33836 -0.18031,-0.18602 -0.55463,-0.43857 -0.8319,-0.56124 l -0.50424,-0.22292 -0.78812,0 c -0.43348,0 -0.95677,0.0569 -1.16231,0.12741 -0.20557,0.0703 -0.57111,0.27947 -0.81337,0.46437 -0.24226,0.18495 -0.49475,0.34633 -0.55992,0.35959 -0.0672,0.0137 -0.14013,-0.12564 -0.16982,-0.3211 l -0.053,-0.34363 -1.13312,0 -1.13313,0 -0.0252,4.07605 c -0.0183,2.92771 0.007,4.11474 0.0862,4.2114 0.0804,0.0969 0.38055,0.1354 1.07603,0.1354 0.53075,0 1.0355,-0.0267 1.12117,-0.0598 l 0.15526,-0.061 0.003,-2.2304 c 0,-1.22686 0.0438,-2.51667 0.0942,-2.86598 0.10016,-0.69288 0.28945,-1.01842 0.78946,-1.3587 0.62826,-0.42761 1.67271,-0.1941 1.93452,0.43254 l 0.13539,0.32376 0,2.75451 0,2.75453 0.15392,0.15523 0.15522,0.15525 1.01502,0 c 0.6932,0 1.04757,-0.0393 1.1159,-0.12347 0.0598,-0.0736 0.11751,-1.19707 0.14329,-2.78371 l 0.0438,-2.659 0.17384,-0.4166 c 0.21516,-0.51485 0.66632,-0.81472 1.22733,-0.81472 0.58494,0 1.05129,0.22435 1.26049,0.60769 l 0.1778,0.32777 0.0294,2.80759 0.0278,2.80759 0.16321,0.12347 c 0.22719,0.17186 1.99757,0.16653 2.23441,-0.007 l 0.17778,-0.12876 -0.0356,-3.15655 -0.0344,-3.15654 -0.3463,-0.67935 -0.34497,-0.67935 -0.51881,-0.30915 c -0.50871,-0.304 -1.24326,-0.49506 -1.89207,-0.50684 z m -34.72742,0.0306 -0.69128,0.21628 c -0.81406,0.25419 -1.46514,0.76268 -1.73285,1.35205 -0.25073,0.55204 -0.24613,1.51881 0.008,2.01948 0.34779,0.68168 1.04206,1.04232 2.75983,1.42901 0.6231,0.14025 1.33247,0.3265 1.57627,0.41396 0.93973,0.3371 1.14868,0.86711 0.548,1.39451 -0.25081,0.22019 -0.48048,0.31531 -0.87705,0.36488 -0.29513,0.0369 -0.64046,0.0359 -0.76823,-0.003 -0.6348,-0.19194 -0.89064,-0.38517 -1.12781,-0.85318 l -0.24414,-0.48164 -1.10524,0.0278 -1.10395,0.0278 0.0187,0.41794 c 0.024,0.53492 0.45626,1.33713 0.91156,1.68907 0.53626,0.41455 1.31784,0.70175 2.15346,0.79215 1.40706,0.15215 2.91986,-0.0647 3.72178,-0.53475 0.57816,-0.3388 0.99267,-0.85265 1.16896,-1.44623 0.28969,-0.97557 0.15169,-1.73931 -0.41266,-2.28749 -0.19977,-0.19405 -0.55623,-0.44372 -0.79215,-0.55461 -0.23587,-0.11087 -0.90163,-0.31062 -1.48074,-0.44448 -1.58263,-0.36589 -2.11475,-0.53814 -2.35914,-0.76295 -0.2789,-0.25663 -0.28436,-0.6728 -0.0136,-0.91817 l 0.20699,-0.1871 0.70323,0 c 0.38715,0 0.85067,0.0613 1.02963,0.13667 0.20555,0.0867 0.39631,0.27745 0.51878,0.51747 0.10666,0.20898 0.25949,0.38232 0.33969,0.38479 0.0801,0.003 0.52265,0.004 0.98315,0.004 0.46057,0 0.90462,0 0.98586,-0.004 0.24884,-0.008 0.17195,-0.60009 -0.15126,-1.16362 -0.33897,-0.59113 -0.85391,-1.00216 -1.6572,-1.32286 l -0.55597,-0.2216 -1.28041,0 -1.28171,0 z m 40.06793,0.1473 c -0.34164,0.004 -0.64889,0.0232 -0.78545,0.0598 l -0.2216,0.0598 0,4.12116 0,4.1212 0.17249,0.10476 c 0.24819,0.15142 2.19617,0.055 2.30472,-0.11412 0.0457,-0.0711 0.0815,-1.93519 0.0796,-4.14238 l -0.004,-4.01237 -0.18578,-0.10071 c -0.12564,-0.0672 -0.79057,-0.10314 -1.36,-0.0969 z m 14.04597,1.67977 c 0.29802,0 0.59619,0.0577 0.86641,0.18048 l 0.40468,0.18306 0.26273,0.52811 0.26402,0.52809 -0.16982,0.12347 c -0.11954,0.0873 -0.61658,0.12225 -1.70102,0.11669 -0.843,-0.004 -1.58818,-0.0312 -1.65591,-0.0584 -0.19152,-0.0774 -0.14523,-0.46225 0.0995,-0.83059 0.32364,-0.48698 0.97369,-0.76985 1.62939,-0.77088 z m -61.76181,0 c 0.30017,0 0.60268,0.0619 0.87838,0.18711 l 0.42194,0.19104 0.2428,0.52013 0.24149,0.52146 -0.16454,0.12347 c -0.11696,0.087 -0.61545,0.1209 -1.69835,0.11547 -0.843,-0.004 -1.58815,-0.0312 -1.65589,-0.0583 -0.19154,-0.0774 -0.14661,-0.46228 0.0981,-0.83062 0.32658,-0.49144 0.97564,-0.77254 1.63599,-0.76957 z m -9.79074,0.0122 c 0.12741,0 0.26034,0.008 0.3954,0.024 l 0.5599,0.0703 0.38479,0.34764 c 0.26495,0.23936 0.43124,0.50249 0.53339,0.84649 0.169,0.56902 0.1964,1.91514 0.0492,2.44538 -0.13772,0.49587 -0.48371,0.97874 -0.85711,1.19683 -0.1737,0.10138 -0.55057,0.20414 -0.83725,0.22818 l -0.52145,0.0438 -0.42327,-0.21097 c -0.78472,-0.39177 -1.20737,-1.22464 -1.22202,-2.40688 -0.016,-1.2856 0.50967,-2.25268 1.36534,-2.50903 0.16356,-0.0491 0.36084,-0.0743 0.57319,-0.0756 z m 38.14932,2.82488 0.0598,0.30117 c 0.0815,0.40723 -0.0916,1.27956 -0.31444,1.58161 -0.10002,0.1354 -0.32009,0.3274 -0.48827,0.42592 -0.41408,0.24248 -1.25196,0.30255 -1.7302,0.12469 -0.20997,-0.0781 -0.42136,-0.18121 -0.46969,-0.22951 -0.0484,-0.0484 -0.1251,-0.21992 -0.17117,-0.38083 -0.12293,-0.42865 0.073,-0.92769 0.4511,-1.14769 0.17334,-0.10084 0.7727,-0.26619 1.33084,-0.36622 0.55815,-0.10003 1.08546,-0.21049 1.17292,-0.24548 l 0.15922,-0.0636 z m -35.81009,12.12864 0.77751,0 c 0.54874,0 0.78068,0.0366 0.79082,0.12347 0.0534,0.4592 0.0394,0.93602 -0.0332,1.08272 l -0.0862,0.1725 -0.66607,0 c -0.38699,0 -0.71552,-0.0495 -0.78417,-0.11805 -0.12374,-0.12375 -0.16133,-0.83699 -0.0584,-1.10526 l 0.0598,-0.15524 z m 69.87275,0.0492 0.78811,0 0.78817,0 0.0278,1.25519 c 0.0153,0.69082 0.0649,1.2565 0.11006,1.2565 0.0453,0 0.1911,-0.0858 0.32506,-0.19105 0.13391,-0.10545 0.45218,-0.24492 0.70717,-0.30914 0.88862,-0.22376 1.85133,0.0819 2.41488,0.76559 0.43864,0.53214 0.63856,1.21542 0.62891,2.14813 -0.0136,1.26528 -0.40789,2.06864 -1.26578,2.57144 -0.31806,0.18638 -0.61784,0.26976 -1.05617,0.29456 -0.67336,0.0381 -1.15432,-0.074 -1.55904,-0.36223 -0.14581,-0.10382 -0.29148,-0.18842 -0.32376,-0.18842 -0.0323,0 -0.0583,0.0854 -0.0583,0.18974 0,0.10436 -0.0718,0.20403 -0.15924,0.22159 -0.0874,0.0174 -0.44283,0.0168 -0.78947,0 l -0.63025,-0.0331 0.0264,-3.80802 0.0252,-3.80937 z m -4.87617,0.43518 0,0.72315 c 0,0.4312 0.0477,0.77075 0.11805,0.84125 0.0651,0.0649 0.30357,0.11804 0.53074,0.11804 0.28577,0 0.43233,0.0488 0.47368,0.15656 0.0985,0.25682 0.0678,0.68318 -0.0584,0.80938 -0.0651,0.065 -0.30487,0.11805 -0.53205,0.11805 -0.29683,0 -0.43049,0.0464 -0.47634,0.16583 -0.0351,0.0916 -0.0583,0.75792 -0.0504,1.48076 l 0.0145,1.31489 0.14461,0.14462 c 0.0797,0.0797 0.31439,0.14464 0.52147,0.14464 0.25241,0 0.39643,0.0508 0.43652,0.15526 0.10179,0.26514 0.066,0.88271 -0.0583,1.00706 -0.15272,0.15268 -1.39495,0.14551 -1.8483,-0.0108 -0.19505,-0.0672 -0.43797,-0.2612 -0.56656,-0.45245 l -0.22554,-0.33436 0,-1.80847 0,-1.80716 -0.39675,0 -0.39806,0 -0.077,-0.21099 c -0.0428,-0.11588 -0.0675,-0.30345 -0.0543,-0.41794 0.0136,-0.11439 0.0274,-0.26398 0.0318,-0.33172 0.004,-0.0711 0.14253,-0.12374 0.32772,-0.12469 0.1761,0 0.37407,-0.0355 0.43918,-0.077 0.0701,-0.0446 0.12984,-0.37528 0.1473,-0.81071 l 0.0293,-0.73639 0.76428,-0.0294 0.76292,-0.0278 z m -60.59413,0.0212 c 0.29586,0.003 0.40813,0.035 0.41395,0.10612 0.005,0.0701 0.004,0.38761 -0.003,0.7059 -0.008,0.31824 0.0389,0.63927 0.1007,0.71381 0.0633,0.0764 0.29519,0.1354 0.53209,0.1354 0.29276,0 0.44002,0.0481 0.48163,0.15654 0.10138,0.26429 0.0652,0.70023 -0.0663,0.80936 -0.0688,0.0569 -0.32249,0.11805 -0.56524,0.1354 l -0.44184,0.0319 -0.0278,1.4436 -0.0266,1.44359 0.15658,0.1566 c 0.0893,0.0892 0.32119,0.15788 0.53472,0.15788 0.25242,0 0.39644,0.0507 0.43653,0.15524 0.10178,0.26514 0.0659,0.88273 -0.0584,1.00707 -0.15271,0.1527 -1.39625,0.14553 -1.8496,-0.0109 -0.19508,-0.0672 -0.43797,-0.26121 -0.56656,-0.45245 l -0.22425,-0.33434 0,-1.80849 0,-1.80716 -0.38875,0 c -0.24114,0 -0.42049,-0.0557 -0.47102,-0.14594 -0.0449,-0.0801 -0.0645,-0.32352 -0.0438,-0.54135 l 0.0373,-0.39673 0.31048,0 c 0.1704,0 0.36213,-0.0355 0.42724,-0.077 0.0701,-0.0446 0.1312,-0.37527 0.1486,-0.81069 l 0.0294,-0.73641 0.76293,-0.0294 c 0.14231,-0.007 0.26227,-0.008 0.36093,-0.007 z m 37.26961,1.43827 0.85448,0.0492 c 1.04016,0.0592 1.69094,0.31535 1.97038,0.77486 0.23358,0.38409 0.29422,0.9815 0.32772,3.21627 l 0.0266,1.69967 -0.75894,0 -0.75895,0 -0.0942,-0.16983 -0.0956,-0.16982 -0.45245,0.22687 c -0.30746,0.15359 -0.68313,0.23997 -1.16628,0.26673 -0.39192,0.0219 -0.8235,0.003 -0.95931,-0.0424 -0.52731,-0.17397 -0.87643,-0.41689 -1.08537,-0.75496 l -0.21758,-0.35163 0.0397,-0.63423 0.0412,-0.6329 0.28259,-0.29457 c 0.34695,-0.36213 0.89173,-0.54691 2.1694,-0.73372 l 0.98319,-0.14331 0.16583,-0.20433 c 0.11642,-0.14388 0.1446,-0.28447 0.0942,-0.47498 -0.0533,-0.2016 -0.17468,-0.30726 -0.47501,-0.41267 l -0.40334,-0.14064 -0.40735,0.12212 c -0.28408,0.0851 -0.44421,0.20243 -0.52542,0.38744 -0.0641,0.14608 -0.161,0.29852 -0.21629,0.33832 -0.15674,0.1129 -1.41215,0.0884 -1.48474,-0.0294 -0.13228,-0.21418 0.0684,-0.76697 0.40336,-1.11189 0.25193,-0.25941 0.53536,-0.41333 1.04423,-0.56789 l 0.69793,-0.21233 z m 11.15873,0.0266 c 0.69703,0 1.33664,0.23871 1.85226,0.6926 0.55856,0.49165 0.8828,1.22201 0.89565,2.01549 l 0.008,0.59176 -1.99822,0.0266 -1.99822,0.0264 -0.053,0.1393 c -0.0859,0.22426 0.26061,0.83834 0.56125,0.99381 0.35178,0.18192 1.10382,0.18447 1.45023,0.007 0.14647,-0.0756 0.35071,-0.22973 0.45381,-0.34364 l 0.18706,-0.20829 0.62496,0 0.62493,0 0,0.2388 c 0,0.39956 -0.58241,1.06282 -1.20874,1.37596 -0.41872,0.2093 -0.74313,0.29229 -1.23133,0.31579 -0.36456,0.0173 -0.82957,-0.009 -1.03359,-0.0611 -1.42912,-0.35912 -2.22296,-1.51447 -2.1203,-3.08623 0.0567,-0.86586 0.28527,-1.34006 0.94205,-1.95443 0.5526,-0.51687 1.22163,-0.76823 2.04201,-0.76823 z m -3.70984,0.008 c 0.19096,0.003 0.3405,0.0594 0.40601,0.18182 0.14898,0.27832 0.12727,1.14432 -0.032,1.27641 -0.0749,0.0621 -0.26468,0.0838 -0.43124,0.0504 -0.44006,-0.088 -1.15112,0.25725 -1.37194,0.66603 l -0.1778,0.32907 -0.0504,1.62539 -0.0518,1.62537 -0.74304,0.0278 c -0.40881,0.0156 -0.77514,-0.003 -0.81334,-0.0398 -0.0382,-0.0382 -0.0691,-1.30351 -0.0691,-2.81156 l 0,-2.74259 0.78816,0 0.78815,0 0,0.34497 c 0,0.18964 0.0283,0.34497 0.0623,0.34497 0.0342,0 0.22927,-0.15231 0.43519,-0.33834 0.37839,-0.34184 0.89593,-0.54312 1.2605,-0.54003 z m -27.31832,0.003 c 0.10815,0 0.21834,0.004 0.33306,0.0122 1.12685,0.0809 1.98782,0.6968 2.35909,1.68907 0.11154,0.29824 0.21539,0.7779 0.23088,1.06545 l 0.0294,0.52277 -2.04464,0.0266 -2.04467,0.0264 0,0.2919 c 0,0.18341 0.10735,0.41221 0.28793,0.61433 l 0.28791,0.32109 0.6913,0 0.69263,0 0.33038,-0.31978 0.33036,-0.32107 0.60505,0 c 0.33287,0 0.63107,0.0431 0.66342,0.0956 0.0774,0.12509 -0.25522,0.76946 -0.57584,1.11454 -0.13968,0.15035 -0.46575,0.36475 -0.72445,0.47634 -0.26837,0.11588 -0.76621,0.21965 -1.15967,0.2428 -1.20541,0.0709 -2.12261,-0.33429 -2.6895,-1.19017 -0.16797,-0.25354 -0.35746,-0.71074 -0.4206,-1.01501 -0.23163,-1.11567 0.10924,-2.20109 0.91815,-2.92834 0.54116,-0.48653 1.14343,-0.71834 1.90004,-0.72445 z m 57.43232,0.003 c 0.36941,-0.004 0.73594,0.0355 1.00438,0.12469 1.06661,0.35427 1.82322,1.40433 1.84036,2.55418 l 0.008,0.60769 -1.99956,0.0266 -1.99822,0.0264 -0.053,0.13932 c -0.0861,0.22422 0.26059,0.8383 0.56127,0.99379 0.35358,0.18288 1.10593,0.1852 1.45022,0.004 0.1463,-0.077 0.34225,-0.23236 0.43654,-0.345 l 0.17247,-0.20567 0.64085,0 0.6409,0 0,0.1526 c 0,0.31418 -0.4139,0.94542 -0.80672,1.22999 -0.22414,0.16236 -0.6304,0.3611 -0.90226,0.44183 -0.81424,0.24181 -1.74312,0.152 -2.51703,-0.24282 -0.21006,-0.10707 -0.54143,-0.38013 -0.73508,-0.60636 -0.50025,-0.58447 -0.68791,-1.22053 -0.63421,-2.14816 l 0.0438,-0.75495 0.28394,-0.52012 c 0.28992,-0.53267 0.71527,-0.93436 1.32684,-1.24856 0.28019,-0.14399 0.76033,-0.22364 1.2353,-0.22953 z m -43.26566,0.003 c 0.11059,-0.003 0.22338,0.003 0.3397,0.0146 1.53124,0.15805 2.47678,1.425 2.36177,3.1632 -0.0603,0.91216 -0.37503,1.63122 -0.92613,2.1163 -0.23574,0.20752 -0.62864,0.43276 -0.87439,0.50155 -0.61766,0.17295 -1.43486,0.0721 -1.97434,-0.24413 l -0.43786,-0.25607 0,1.08002 0,1.08138 -0.15526,0.15392 c -0.1907,0.19073 -1.20571,0.21301 -1.45287,0.0319 l -0.16852,-0.12347 0.0266,-3.64484 0.0251,-3.64481 0.78812,0 0.78815,0 0.032,0.22157 0.0319,0.22161 0.31315,-0.23354 c 0.37839,-0.28247 0.80406,-0.42885 1.28305,-0.43918 z m -6.95262,0.004 c 0.0793,0 0.15509,0.003 0.22555,0.0108 1.06978,0.12673 1.59575,0.60531 1.7501,1.58956 0.05,0.31899 0.0991,1.32999 0.10883,2.24634 0.0122,1.1572 -0.0173,1.70876 -0.0981,1.80585 -0.15226,0.18344 -1.40109,0.19398 -1.55106,0.0136 -0.0629,-0.0759 -0.11669,-0.87639 -0.1354,-2.01679 l -0.0306,-1.89077 -0.22425,-0.22418 -0.22555,-0.22427 -0.48295,0.007 c -0.26569,0.004 -0.55949,0.0711 -0.65281,0.14861 -0.35943,0.29808 -0.43388,0.71861 -0.43388,2.43209 0,1.15836 -0.0355,1.69407 -0.11805,1.77665 -0.16919,0.16916 -1.40387,0.15533 -1.54712,-0.0172 -0.0793,-0.0956 -0.10355,-0.91135 -0.0848,-2.78237 l 0.0266,-2.64836 0.78682,0 0.78815,0 0.0318,0.22157 c 0.0174,0.12198 0.0655,0.2216 0.10748,0.2216 0.0419,0 0.15819,-0.0895 0.25741,-0.19903 0.22571,-0.24944 0.94739,-0.46453 1.50196,-0.46969 z m -33.6195,0.0294 0.88633,0.004 0.88767,0.003 0.49091,0.22291 c 0.27026,0.12252 0.59737,0.32124 0.7271,0.44051 0.2769,0.25452 0.59932,0.9099 0.60239,1.226 l 0,0.22157 -0.78147,0 -0.78151,0 -0.061,-0.19237 c -0.0337,-0.10599 -0.19445,-0.30536 -0.35827,-0.44317 l -0.29855,-0.25079 -0.46969,0 -0.47103,0 -0.26536,0.24546 c -0.1461,0.1354 -0.33015,0.40118 -0.40866,0.58913 -0.31171,0.74608 -0.0706,1.98275 0.45906,2.35384 0.29322,0.20535 1.05894,0.20916 1.34808,0.007 0.12117,-0.0848 0.30924,-0.3282 0.41795,-0.54135 l 0.19771,-0.38745 0.7364,0 0.73638,0 0,0.24948 c 0,0.64045 -0.5616,1.40414 -1.31752,1.79123 l -0.50423,0.25741 -0.78812,0.0331 c -1.05591,0.0431 -1.61602,-0.15466 -2.28083,-0.80274 l -0.50819,-0.4949 -0.15789,-0.53473 c -0.32241,-1.09846 -0.11493,-2.29357 0.53339,-3.0796 0.16475,-0.19975 0.55331,-0.48708 0.86376,-0.63954 l 0.56392,-0.2773 z m 14.97474,0 0.49225,0.2269 c 0.63472,0.29153 1.20236,0.83868 1.44494,1.39451 0.2805,0.64279 0.3382,1.52414 0.14327,2.19459 -0.22341,0.76858 -0.68994,1.34222 -1.37593,1.69303 l -0.56657,0.28927 -0.80802,0.0344 c -0.60075,0.0252 -0.93641,-0.0122 -1.30957,-0.14595 -1.1064,-0.39527 -1.74834,-1.23547 -1.87618,-2.45861 l -0.0623,-0.59578 0.20568,-0.67669 0.20563,-0.67536 0.42327,-0.41396 c 0.23274,-0.22768 0.64461,-0.51339 0.91552,-0.63557 l 0.49225,-0.2229 0.83859,-0.004 0.83724,-0.004 z m 48.76271,0 0.69259,0 c 1.164,0 1.78611,0.41432 2.01682,1.34541 0.0632,0.25552 0.0953,1.22048 0.0782,2.39761 l -0.0294,1.97039 -0.78815,0 -0.78816,0 -0.0518,-1.92127 c -0.0287,-1.05658 -0.0897,-1.99959 -0.1354,-2.09643 -0.0968,-0.20552 -0.55843,-0.46439 -0.82794,-0.46439 -0.39772,0 -0.81709,0.22656 -0.97922,0.52809 l -0.16716,0.30915 -0.0518,1.82176 0,0 -0.0518,1.82174 -0.74432,0.0278 c -0.40884,0.0156 -0.77385,-0.003 -0.81203,-0.0397 -0.0382,-0.0382 -0.0691,-1.30354 -0.0691,-2.81159 l 0,-2.74257 0.78814,0 0.78813,0 0,0.2468 c 0,0.15321 0.0553,0.24547 0.1473,0.24547 0.0812,0 0.14725,-0.0355 0.14725,-0.0797 0,-0.0442 0.189,-0.18811 0.4193,-0.31979 l 0.41796,-0.24013 z m -58.29474,0.0903 c 0.2798,-0.003 0.53891,0.016 0.62095,0.0598 l 0.17914,0.0956 0,2.65764 c 0,1.46506 -0.0388,2.68328 -0.0875,2.71341 -0.18641,0.11521 -1.33308,0.15061 -1.50066,0.0465 l -0.1725,-0.10748 0,-2.6484 c 0,-1.75496 0.0356,-2.67077 0.10477,-2.71337 0.10111,-0.0626 0.49606,-0.10029 0.85582,-0.10355 z m 12.04373,0.0492 0.86244,0.0294 0.86112,0.0278 0.59177,1.74878 c 0.3251,0.96149 0.61894,1.74876 0.65278,1.74876 0.0339,0 0.32126,-0.78703 0.63957,-1.74876 l 0.5785,-1.74878 0.77885,-0.0294 c 0.42833,-0.016 0.81218,0.008 0.85317,0.0504 0.0786,0.0827 -2.22035,6.10608 -2.53958,6.6541 -0.10233,0.1757 -0.37955,0.42715 -0.61699,0.55859 l -0.43254,0.23884 -0.74436,0.0306 c -0.40998,0.0165 -0.80133,0.004 -0.86908,-0.0264 -0.08,-0.0361 -0.12347,-0.27692 -0.12347,-0.68732 l 0,-0.63157 0.57588,0 0.57584,0 0.16318,-0.18045 c 0.0897,-0.0991 0.1632,-0.29687 0.1632,-0.43916 0,-0.25054 -0.25059,-0.93646 -1.41704,-3.8797 -0.30426,-0.76771 -0.55332,-1.46728 -0.55332,-1.55505 l 0,-0.16056 z m 39.77206,1.06943 c -0.11507,0 -0.22666,0.0136 -0.32378,0.0385 -0.33619,0.0874 -0.67604,0.41382 -0.77618,0.74436 l -0.0664,0.21759 1.06414,0.0278 c 0.58552,0.0153 1.13845,0.0135 1.22865,-0.007 l 0.16453,-0.0344 -0.0968,-0.27599 c -0.053,-0.15216 -0.18058,-0.35363 -0.28394,-0.44712 -0.17963,-0.1626 -0.56483,-0.26647 -0.9102,-0.2654 z m -16.92517,0.0225 c -0.21755,0 -0.52573,0.0663 -0.6847,0.14859 -0.44967,0.23254 -0.63326,0.67309 -0.63554,1.52589 l 0,0.73902 0.20036,0.34502 c 0.11019,0.18959 0.35354,0.42346 0.54135,0.52009 0.37899,0.19502 0.87069,0.15969 1.2605,-0.0916 0.2981,-0.19216 0.60361,-0.86888 0.60636,-1.34542 0.004,-0.67537 -0.19642,-1.2301 -0.55595,-1.5458 l -0.3357,-0.29587 -0.39539,0 z m 37.03079,0 c -0.86623,0 -1.31086,0.57056 -1.30298,1.67448 0.004,0.71198 0.17956,1.14349 0.5931,1.46881 0.35648,0.28038 1.00496,0.27655 1.36666,-0.008 0.14933,-0.1175 0.33261,-0.35988 0.40732,-0.53867 0.17473,-0.41818 0.17473,-1.42615 0,-1.84431 -0.19419,-0.46481 -0.60059,-0.75232 -1.0641,-0.75232 z m 5.9084,0 -0.33436,0.33436 c -0.36206,0.36206 -0.42869,0.61675 -0.17516,0.6674 0.0877,0.0173 0.61977,0.0183 1.18223,0 l 1.02166,-0.0305 0,-0.19903 c 0,-0.10911 -0.12957,-0.32725 -0.2879,-0.48562 l -0.28794,-0.28792 -0.55861,0 -0.55992,0 z m -69.16817,0.004 c -0.49505,0.007 -0.90613,0.25329 -1.1066,0.69793 -0.24795,0.54978 -0.23922,1.51016 0.0188,2.01413 0.11439,0.2236 0.34043,0.46151 0.53603,0.56391 0.39935,0.20908 0.99389,0.15957 1.37329,-0.11411 0.1354,-0.0977 0.32379,-0.39561 0.41926,-0.66213 0.33131,-0.92463 0.004,-2.17477 -0.62757,-2.39493 -0.21176,-0.0737 -0.41934,-0.10735 -0.61301,-0.10477 z m 12.31569,0.003 c -0.23624,0.007 -0.46722,0.0397 -0.59178,0.10355 -0.28331,0.14491 -0.55453,0.4864 -0.55724,0.70191 l -0.003,0.17248 1.1822,0 1.18223,0 0,-0.12604 c 0,-0.15114 -0.27658,-0.5656 -0.4883,-0.73241 -0.10815,-0.0853 -0.42069,-0.12618 -0.72444,-0.11941 z m 21.14321,1.92525 c -0.14923,0.007 -0.45444,0.048 -0.78682,0.10883 -0.49527,0.0905 -0.88427,0.22145 -1.00971,0.33835 -0.38296,0.35678 -0.19907,0.95891 0.33702,1.10126 0.30548,0.0811 0.83324,-0.007 1.10261,-0.18308 0.13418,-0.0881 0.3067,-0.31124 0.38347,-0.49494 0.15115,-0.36178 0.18472,-0.79354 0.0663,-0.86376 -0.009,-0.007 -0.0431,-0.008 -0.093,-0.007 z m 24.05565,0.87571 0.88633,0 0.88633,0 0,0.83724 0,0.83724 -0.79745,0.0278 -0.79745,0.0293 -0.11805,-0.1433 c -0.075,-0.0903 -0.10734,-0.4067 -0.0889,-0.86512 l 0.0294,-0.72315 z"
       id="path4562"
       inkscape:connector-curvature="0" />
  </g>
</svg>
