<?xml version="1.0" encoding="UTF-8" standalone="no"?>
<!-- Created with Inkscape (http://www.inkscape.org/) -->

<svg
   xmlns:dc="http://purl.org/dc/elements/1.1/"
   xmlns:cc="http://creativecommons.org/ns#"
   xmlns:rdf="http://www.w3.org/1999/02/22-rdf-syntax-ns#"
   xmlns:svg="http://www.w3.org/2000/svg"
   xmlns="http://www.w3.org/2000/svg"
   xmlns:sodipodi="http://sodipodi.sourceforge.net/DTD/sodipodi-0.dtd"
   xmlns:inkscape="http://www.inkscape.org/namespaces/inkscape"
   width="73.782692"
   height="46.572971"
   id="svg3510"
   version="1.1"
   inkscape:version="0.48.4 r9939"
   sodipodi:docname="ligue-famille.svg">
  <defs
     id="defs3512" />
  <sodipodi:namedview
     id="base"
     pagecolor="#ffffff"
     bordercolor="#666666"
     borderopacity="1.0"
     inkscape:pageopacity="0.0"
     inkscape:pageshadow="2"
     inkscape:zoom="0.37734375"
     inkscape:cx="-145.25151"
     inkscape:cy="20.429337"
     inkscape:document-units="px"
     inkscape:current-layer="layer1"
     showgrid="false"
     inkscape:window-width="476"
     inkscape:window-height="456"
     inkscape:window-x="0"
     inkscape:window-y="21"
     inkscape:window-maximized="0"
     fit-margin-top="0"
     fit-margin-left="0"
     fit-margin-right="0"
     fit-margin-bottom="0" />
  <metadata
     id="metadata3515">
    <rdf:RDF>
      <cc:Work
         rdf:about="">
        <dc:format>image/svg+xml</dc:format>
        <dc:type
           rdf:resource="http://purl.org/dc/dcmitype/StillImage" />
        <dc:title />
      </cc:Work>
    </rdf:RDF>
  </metadata>
  <g
     inkscape:label="Layer 1"
     inkscape:groupmode="layer"
     id="layer1"
     transform="translate(-520.25151,-506.21855)">
    <path
       style="fill:#00aa5a;fill-opacity:1;stroke:none"
       d="m 523.13165,506.21855 c -1.58987,0 -2.88014,1.29025 -2.88014,2.88014 l 0,40.81266 c 0,1.58989 1.29027,2.88017 2.88014,2.88017 l 68.0224,0 c 1.58989,0 2.88015,-1.29028 2.88015,-2.88017 l 0,-40.81266 c 0,-1.58989 -1.29026,-2.88014 -2.88015,-2.88014 l -68.0224,0 z m 0,0.65591 68.0224,0 c 1.23783,0 2.22423,0.9864 2.22423,2.22423 l 0,32.47471 -36.17621,0 -36.29466,0 0,-32.47471 c 0,-1.23783 0.98641,-2.22423 2.22424,-2.22423 z m 2.12929,11.58622 c -0.38213,0 -0.73583,0.0278 -0.78612,0.0597 l -0.0911,0.0577 0.0186,4.24682 0.0185,4.24778 0.43662,0.0451 c 0.50243,0.0521 1.20519,0.008 1.29909,-0.0823 0.036,-0.0345 0.0589,-1.89507 0.0519,-4.22819 l -0.0127,-4.16555 -0.11942,-0.0911 c -0.0769,-0.0582 -0.37056,-0.0908 -0.8155,-0.0901 z m 12.01599,0 c -0.53372,0 -0.75884,0.0261 -0.81842,0.0979 -0.0595,0.0717 -0.0763,1.25941 -0.0627,4.30652 l 0.0186,4.20766 0.43566,0.0451 c 0.55563,0.0569 1.29212,-0.002 1.36274,-0.10868 0.0299,-0.0452 0.0462,-1.95569 0.0363,-4.24582 l -0.0177,-4.16361 -0.10964,-0.0686 c -0.0599,-0.0379 -0.43998,-0.0699 -0.84485,-0.0705 z m 2.64324,0 c -0.33034,0.002 -0.63572,0.0245 -0.70683,0.0695 -0.0769,0.0486 -0.11566,0.23515 -0.1341,0.64124 l -0.0265,0.57173 0.12139,0.12139 0.1214,0.1214 0.71563,0 c 0.39365,0 0.76792,-0.0198 0.83114,-0.0441 l 0.11455,-0.0441 0,-0.63145 c 0,-0.39451 -0.0327,-0.66509 -0.0871,-0.71954 -0.0593,-0.0593 -0.52487,-0.0892 -0.94958,-0.0861 z m 19.24476,2.20954 c -0.53584,-0.002 -1.31819,0.16493 -1.72301,0.38181 -0.50308,0.26955 -1.08578,0.8504 -1.32358,1.31966 -0.24791,0.48926 -0.40626,1.11117 -0.40626,1.59477 0,0.92129 0.41767,1.95502 1.0005,2.47681 0.33745,0.30209 0.88498,0.58868 1.36178,0.71271 0.22366,0.0581 0.6758,0.0872 1.17576,0.0743 l 0.81253,-0.0217 0.54137,-0.26726 c 0.61108,-0.30202 0.9145,-0.57679 1.21982,-1.10428 0.24024,-0.41511 0.26929,-0.66477 0.0842,-0.71761 -0.07,-0.02 -0.39732,-0.027 -0.72835,-0.0166 l -0.60207,0.0186 -0.27021,0.26334 c -0.14866,0.14488 -0.39175,0.31401 -0.5404,0.37594 -0.3735,0.1556 -1.04057,0.14122 -1.41852,-0.0304 -0.32359,-0.14688 -0.55312,-0.44291 -0.67257,-0.86935 -0.0476,-0.16998 -0.0447,-0.28011 0.009,-0.34459 l 0.0783,-0.095 2.22718,-0.0186 2.22718,-0.0195 -0.008,-0.55116 c -0.009,-0.64738 -0.21815,-1.34206 -0.55411,-1.84929 -0.46291,-0.69889 -1.31913,-1.18848 -2.27709,-1.30107 -0.0646,-0.007 -0.13687,-0.0115 -0.21342,-0.0118 z m -14.22552,0.0264 -0.66475,0.0304 -0.66472,0.0313 -0.41313,0.19873 c -0.25129,0.12053 -0.55436,0.35184 -0.77143,0.58935 -1.10312,1.20698 -1.05587,3.60504 0.093,4.72161 0.45293,0.44019 0.99606,0.64301 1.74553,0.652 0.3198,0.005 0.69872,-0.0174 0.84193,-0.048 0.14317,-0.0305 0.44991,-0.16998 0.68137,-0.30935 0.23145,-0.13939 0.44945,-0.25356 0.48459,-0.25356 0.0352,0 0.0636,0.20582 0.0636,0.45718 0,0.33072 -0.0452,0.54574 -0.1635,0.77731 -0.09,0.17604 -0.24466,0.37985 -0.3446,0.45228 -0.0999,0.0724 -0.36163,0.16839 -0.58149,0.21342 l -0.40041,0.0812 -0.3221,-0.0881 c -0.29024,-0.0798 -0.53647,-0.2751 -0.86151,-0.68431 l -0.094,-0.11845 -0.78807,0 c -0.58428,0 -0.80901,0.0258 -0.87129,0.10083 l -0.0842,0.10181 0.10378,0.30055 c 0.15136,0.43937 0.39204,0.75579 0.7685,1.0113 0.37918,0.25736 0.82323,0.42767 1.34902,0.51591 0.5215,0.0875 0.79681,0.0872 1.49197,0 1.19323,-0.14796 2.04041,-0.7239 2.40241,-1.63489 l 0.17132,-0.43269 0.0264,-3.14744 0.0263,-3.14839 -0.0871,-0.10475 -0.0871,-0.10475 -0.7401,0 c -0.77913,0 -0.91437,0.0491 -0.91437,0.3299 0,0.0853 -0.0212,0.17576 -0.0469,0.20168 -0.026,0.026 -0.16867,-0.0626 -0.3172,-0.19678 -0.14851,-0.13418 -0.44155,-0.30046 -0.65102,-0.37005 l -0.38081,-0.1263 z m -15.36508,0 -0.46893,0.11944 c -0.61482,0.1569 -0.98158,0.34958 -1.36079,0.71758 -0.2083,0.20216 -0.34942,0.42567 -0.42881,0.67747 -0.0651,0.20639 -0.0997,0.42244 -0.0773,0.48068 0.0286,0.0746 0.20912,0.11831 0.61089,0.14881 0.31339,0.0238 0.70061,0.0205 0.86053,-0.008 l 0.29075,-0.0519 0.11846,-0.25354 c 0.0656,-0.13925 0.18063,-0.30829 0.25551,-0.37594 0.30582,-0.2763 1.25107,-0.29768 1.64859,-0.0372 0.24864,0.1629 0.32767,0.56487 0.16153,0.81842 -0.0665,0.10157 -0.20837,0.21906 -0.31619,0.2614 -0.10785,0.0423 -0.52342,0.12316 -0.9232,0.17916 -1.56572,0.21929 -2.21443,0.44225 -2.5845,0.89086 -0.26127,0.31675 -0.35875,0.63672 -0.35928,1.17675 0,0.80166 0.49386,1.42384 1.34805,1.69655 0.25951,0.0829 0.57618,0.10845 1.13563,0.092 l 0.77436,-0.0226 0.49733,-0.24964 c 0.2732,-0.13705 0.5196,-0.25864 0.54724,-0.27117 0.0276,-0.0127 0.10245,0.0779 0.16642,0.20168 l 0.1165,0.22515 0.85074,-0.0205 0.85073,-0.0205 -0.0166,-0.18208 c -0.009,-0.1 -0.0499,-0.49152 -0.089,-0.8713 -0.0391,-0.37978 -0.072,-1.39091 -0.0734,-2.24578 -0.002,-1.00033 -0.0343,-1.65898 -0.0911,-1.8483 -0.12487,-0.41685 -0.52116,-0.79718 -1.03771,-0.99563 l -0.43664,-0.16741 -0.98484,-0.0324 -0.98484,-0.0323 z m 9.67623,0.15566 -0.092,0.12533 -0.0911,0.1253 0,2.86253 c 0,1.83381 0.0272,2.91244 0.0754,3.00254 l 0.0744,0.13997 0.83606,0 0.83603,0 0.0519,-0.14097 c 0.0287,-0.0774 0.0357,-1.47566 0.0156,-3.10727 l -0.0363,-2.96631 -0.83507,-0.0205 -0.83504,-0.0205 z m 10.82848,0.0177 c -0.0595,0 -0.12232,0.002 -0.18797,0.003 l -0.83017,0.0205 -0.0186,2.21152 -0.0196,2.21053 0.11257,0.44251 c 0.12804,0.50125 0.38131,0.92441 0.6618,1.10821 0.10488,0.0688 0.3579,0.18269 0.56291,0.25354 0.51736,0.17882 1.45648,0.17698 1.9325,-0.005 0.19916,-0.0756 0.49125,-0.239 0.64809,-0.36319 0.15683,-0.12423 0.31847,-0.22614 0.36027,-0.22614 0.0419,0 0.0865,0.12321 0.0989,0.27312 l 0.0226,0.27216 0.83606,0 0.83604,0 0,-3.08869 0,-3.08966 -0.83018,-0.0205 c -0.45635,-0.0113 -0.85733,0.006 -0.89086,0.0401 -0.0336,0.0336 -0.071,0.92898 -0.0832,1.98929 l -0.0217,1.92761 -0.17721,0.35634 c -0.23133,0.4653 -0.52858,0.6383 -1.0984,0.6383 -0.48243,0 -0.74716,-0.1437 -0.93296,-0.50419 l -0.10868,-0.21145 -0.0363,-2.049 c -0.0236,-1.32884 -0.0644,-2.0783 -0.11551,-2.12929 -0.0436,-0.0435 -0.30414,-0.0647 -0.72053,-0.0607 z m 8.93219,1.20707 c 0.52459,-0.005 0.90551,0.18714 1.11505,0.56095 0.0896,0.15991 0.16283,0.3643 0.1635,0.45425 l 0,0.16348 -1.30791,0 -1.30792,0 0,-0.1537 c 0,-0.0845 0.0713,-0.28028 0.15861,-0.43564 0.20471,-0.36424 0.64422,-0.58455 1.1777,-0.58934 z m -14.12764,0.0156 c 0.92004,0 1.4439,0.63244 1.44986,1.74944 0.005,0.76887 -0.35192,1.37409 -0.95841,1.62705 -0.26048,0.10866 -0.56115,0.12855 -0.91731,0.0607 -0.0931,-0.0177 -0.29186,-0.15583 -0.44248,-0.30645 -0.52339,-0.52336 -0.66438,-1.67994 -0.29663,-2.43962 0.21422,-0.44255 0.6328,-0.69114 1.16497,-0.69114 z m -13.72333,2.14495 c 0.0362,0 0.0597,0.002 0.0686,0.006 0.0866,0.0535 0.0745,0.59419 -0.0205,0.93688 -0.10349,0.37276 -0.49469,0.74438 -0.8468,0.80373 -0.14877,0.0251 -0.3199,0.0561 -0.37985,0.0695 -0.20545,0.046 -0.8301,-0.16707 -0.96038,-0.32795 -0.17693,-0.2185 -0.16761,-0.65904 0.0185,-0.89577 0.0923,-0.11731 0.29155,-0.22845 0.5267,-0.29369 0.4851,-0.13459 1.34039,-0.2917 1.59378,-0.29957 z m -1.39505,4.96438 c -0.17253,0 -0.34123,0 -0.48754,0.006 l -0.15956,0.007 -0.0226,1.37545 c -0.0124,0.75631 -0.0451,1.39714 -0.0724,1.42442 -0.0274,0.0273 -0.15821,-0.0325 -0.29076,-0.13315 -0.45355,-0.34436 -0.83473,-0.44986 -1.62218,-0.44838 l -0.7264,0.002 -0.42193,0.20852 c -0.23175,0.11474 -0.57788,0.36824 -0.76949,0.5639 -0.60218,0.61497 -0.87763,1.35509 -0.87911,2.35836 0,0.32433 0.0326,0.76577 0.0734,0.98094 0.0999,0.52704 0.43126,1.21646 0.76067,1.58104 0.29937,0.33139 0.98757,0.70259 1.49097,0.80472 0.40197,0.0815 1.08503,0.0312 1.53993,-0.11356 0.1874,-0.0597 0.46256,-0.20539 0.61187,-0.32405 0.14929,-0.11865 0.29532,-0.19066 0.32503,-0.15957 0.0297,0.0311 0.0649,0.13894 0.0783,0.23887 l 0.0245,0.18113 0.83603,0 0.83604,0 0.0186,-4.21157 c 0.0104,-2.31633 -0.008,-4.23804 -0.0411,-4.27129 -0.0378,-0.0379 -0.58469,-0.0688 -1.10234,-0.0715 z m 41.24536,0.009 -0.83507,0.0205 -0.83507,0.0205 -0.0217,0.61185 c -0.0118,0.33645 -0.005,0.65548 0.0166,0.70877 l 0.0372,0.0969 0.83507,0 0.83604,0 0.0745,-0.14 c 0.10582,-0.19777 0.095,-1.04204 -0.0156,-1.19338 l -0.092,-0.1253 z m 5.37851,0 -0.83506,0.0205 -0.83507,0.0205 -0.0185,4.24778 -0.0186,4.24778 0.0911,0.0578 c 0.0503,0.0319 0.42425,0.0581 0.83116,0.0587 l 0.7401,0.002 0.11554,-0.11552 0.11551,-0.11551 -0.004,-4.09017 -0.003,-4.08922 -0.0901,-0.12235 -0.0891,-0.12239 z m -25.61496,0.005 c -0.40621,-0.003 -0.90075,0.0366 -1.16304,0.11453 -0.4691,0.13931 -1.04784,0.64967 -1.17674,1.03771 -0.0486,0.14621 -0.10692,0.46209 -0.1302,0.70193 l -0.042,0.43566 -0.45129,0.0362 c -0.2479,0.02 -0.48672,0.0725 -0.53062,0.1165 -0.0473,0.0473 -0.0706,0.2848 -0.0577,0.58152 l 0.0217,0.50125 0.43368,0.0225 c 0.23847,0.0122 0.47533,0.0573 0.5267,0.0999 l 0.0939,0.0773 0,2.38578 0,2.38675 0.1077,0.0597 c 0.12926,0.0723 1.37971,0.11526 1.57322,0.0538 l 0.13609,-0.0441 0,-2.37992 0,-2.37989 0.0911,-0.12041 c 0.0663,-0.0879 0.228,-0.12594 0.59913,-0.14096 l 0.50906,-0.0205 0.0637,-0.37204 c 0.0467,-0.27508 0.0369,-0.42649 -0.0372,-0.5815 l -0.10084,-0.20951 -0.51886,-0.0205 -0.51984,-0.0217 -0.0441,-0.11358 c -0.0681,-0.17757 0.0935,-0.66886 0.24669,-0.75086 0.076,-0.0407 0.31319,-0.0744 0.52769,-0.0744 0.21451,0 0.42977,-0.0391 0.47775,-0.0871 0.0515,-0.0515 0.0871,-0.29857 0.0871,-0.60304 0,-0.30446 -0.0357,-0.55257 -0.0871,-0.60403 -0.0566,-0.0566 -0.31944,-0.0847 -0.63536,-0.0871 z m 21.30747,0 -0.0441,0.11551 c -0.0242,0.0632 -0.0441,1.96961 -0.0441,4.23703 l 0,4.12248 0.0871,0.0871 c 0.0568,0.0568 0.35524,0.0881 0.85759,0.0881 0.50232,0 0.80072,-0.0313 0.85759,-0.0881 l 0.0871,-0.0871 0,-4.12248 c 0,-2.26742 -0.0197,-4.17378 -0.0441,-4.23703 l -0.0441,-0.11551 -0.8566,0 -0.85659,0 z m -17.27801,2.18409 c -1.44682,0.006 -2.58443,0.55725 -2.91147,1.41365 -0.0643,0.16866 -0.10622,0.40117 -0.093,0.5169 l 0.0245,0.21048 0.65395,0.0217 c 0.35978,0.0122 0.7532,0.005 0.87422,-0.0177 l 0.22028,-0.0411 0.14292,-0.30837 c 0.17859,-0.38443 0.50748,-0.56292 1.03675,-0.56292 0.44973,0 0.84374,0.14547 0.95452,0.35244 0.12082,0.22579 0.0948,0.62762 -0.049,0.75774 -0.19616,0.17752 -0.46319,0.25705 -1.15911,0.34555 -0.86245,0.10972 -1.77722,0.32756 -2.12538,0.50516 -0.30783,0.15705 -0.59764,0.48831 -0.73226,0.83801 -0.12058,0.31325 -0.10557,1.11585 0.0263,1.42246 0.13422,0.31176 0.61799,0.76616 0.97508,0.91533 0.14176,0.0592 0.39242,0.13499 0.55604,0.16741 0.16363,0.0325 0.41126,0.0615 0.55117,0.0656 0.47867,0.014 1.19932,-0.14421 1.62903,-0.35833 0.23625,-0.11772 0.45784,-0.21439 0.49243,-0.21439 0.0345,0 0.0942,0.0822 0.13215,0.18209 l 0.0695,0.18112 0.88109,0 0.88206,0 -0.048,-0.27216 c -0.0265,-0.14992 -0.0712,-1.28649 -0.0999,-2.52576 l -0.0529,-2.2536 -0.15468,-0.29077 c -0.0852,-0.15991 -0.23169,-0.36234 -0.32601,-0.45032 -0.40719,-0.37983 -1.28453,-0.6038 -2.35054,-0.60013 z m 32.10269,0 c -0.67354,0.005 -1.38593,0.12395 -1.8033,0.32698 -0.20554,0.1 -0.50536,0.32436 -0.66569,0.4983 l -0.29076,0.31622 -0.0871,0.41606 c -0.13797,0.66454 0.005,1.14443 0.45719,1.54191 0.26213,0.23016 0.98174,0.48255 2.12339,0.74596 0.69761,0.16097 1.25517,0.40272 1.36863,0.59228 0.1134,0.18951 -0.007,0.48141 -0.2888,0.69606 l -0.26435,0.20168 -0.51885,0 c -0.66373,0 -0.95759,-0.15584 -1.19532,-0.6334 l -0.17133,-0.34461 -0.82821,0 -0.8282,0 0,0.27705 c 0,0.15207 0.0855,0.44632 0.18892,0.65395 0.34635,0.69506 1.03255,1.10991 2.05196,1.24135 0.26703,0.0344 0.63264,0.0659 0.81254,0.0695 0.57894,0.0118 1.42075,-0.18036 1.89235,-0.43173 0.58098,-0.30966 0.89342,-0.71275 1.00934,-1.30205 l 0.0871,-0.44248 -0.0812,-0.39161 -0.0812,-0.39061 -0.2839,-0.25649 c -0.1558,-0.14076 -0.41825,-0.32494 -0.58347,-0.40921 -0.16521,-0.0843 -0.76554,-0.26012 -1.33434,-0.39061 -0.5688,-0.13052 -1.16261,-0.30014 -1.31968,-0.37691 -0.17954,-0.0878 -0.3116,-0.21385 -0.35537,-0.34068 l -0.0695,-0.20167 0.18111,-0.18211 c 0.22897,-0.22897 0.79543,-0.30921 1.25995,-0.17914 0.33107,0.0927 0.51006,0.23691 0.65492,0.52865 l 0.0812,0.16252 0.72541,0.0391 c 0.39877,0.0214 0.78177,0.0122 0.85172,-0.0205 0.16638,-0.0778 0.16132,-0.30232 -0.0156,-0.66766 -0.31353,-0.64721 -0.98471,-1.11777 -1.817,-1.27562 -0.25886,-0.049 -0.55632,-0.0722 -0.86247,-0.0705 z m -6.61692,0.008 c -0.22254,0.003 -0.43396,0.0212 -0.60993,0.0577 -0.63326,0.13147 -1.2183,0.46068 -1.68187,0.94667 -0.22748,0.23849 -0.48943,0.60634 -0.58249,0.81746 -0.20694,0.46935 -0.33429,1.04061 -0.33287,1.49588 0.002,0.50155 0.18954,1.21373 0.44741,1.69754 0.41591,0.78032 1.17505,1.30843 2.13122,1.48218 0.64328,0.11689 0.75892,0.11905 1.37939,0.0294 0.54546,-0.0789 1.15679,-0.32509 1.5507,-0.62556 0.3105,-0.23684 0.73996,-0.90202 0.79298,-1.22862 l 0.0401,-0.24965 -0.7646,0 -0.7636,0 -0.11748,0.17817 c -0.0643,0.0981 -0.26538,0.26535 -0.44739,0.37203 -0.23493,0.13768 -0.44118,0.19618 -0.70974,0.20166 -0.20808,0.005 -0.50125,-0.0179 -0.65202,-0.0489 -0.40263,-0.083 -0.75752,-0.42864 -0.88694,-0.86443 -0.0597,-0.20107 -0.0912,-0.39377 -0.0695,-0.42881 0.0216,-0.035 1.01242,-0.0646 2.20171,-0.0646 l 2.16257,0 0.13413,-0.0979 0.13508,-0.0979 -0.043,-0.51297 c -0.0543,-0.64757 -0.33395,-1.45947 -0.63927,-1.85614 -0.33861,-0.43995 -0.84238,-0.8294 -1.30302,-1.00738 -0.33859,-0.13083 -0.882,-0.20197 -1.37154,-0.19579 z m -45.57344,0 c -0.21914,0.002 -0.42518,0.0185 -0.59128,0.0529 -0.83288,0.17327 -1.55746,0.65895 -2.04706,1.37056 -0.96298,1.39962 -0.61051,3.62178 0.72053,4.53757 0.41202,0.28347 0.93605,0.48584 1.46553,0.56584 0.56976,0.0861 1.41009,0.0194 1.85419,-0.14682 0.81072,-0.30334 1.31983,-0.76664 1.6535,-1.5047 0.077,-0.17038 0.12036,-0.34229 0.0959,-0.38179 -0.0244,-0.0396 -0.36952,-0.0715 -0.76754,-0.0715 l -0.72248,0 -0.16348,0.18797 c -0.21389,0.24746 -0.67949,0.51124 -1.00346,0.56779 -0.33914,0.0592 -1.00216,-0.0686 -1.23156,-0.2369 -0.40832,-0.29963 -0.69001,-1.16996 -0.38081,-1.17576 0.0699,-0.002 0.91137,-0.005 1.87083,-0.006 0.95943,-0.002 1.92506,-0.0252 2.14495,-0.0519 l 0.39941,-0.0489 -0.0108,-0.58153 c -0.0251,-1.32111 -0.77569,-2.44175 -1.93153,-2.88505 -0.32696,-0.1254 -0.87276,-0.19579 -1.35491,-0.19188 z m 31.39097,0.005 c -0.11047,-0.002 -0.21724,0.003 -0.31817,0.0156 -0.46475,0.0581 -1.17642,0.38307 -1.42147,0.64906 -0.0969,0.10521 -0.21331,0.1919 -0.25845,0.1919 -0.0452,0 -0.191,-0.11238 -0.32406,-0.24965 -0.13304,-0.13725 -0.40922,-0.32359 -0.6138,-0.4141 l -0.37204,-0.16447 -0.5815,0 c -0.31983,0 -0.70593,0.042 -0.85758,0.094 -0.15168,0.0519 -0.42138,0.2062 -0.60013,0.34263 -0.17874,0.13646 -0.36504,0.25553 -0.41312,0.26531 -0.0496,0.0101 -0.10339,-0.0927 -0.1253,-0.23691 l -0.0391,-0.25354 -0.83604,0 -0.83606,0 -0.0186,3.00742 c -0.0135,2.16014 0.005,3.03596 0.0636,3.10728 0.0593,0.0715 0.28078,0.0999 0.79393,0.0999 0.3916,0 0.76402,-0.0197 0.82723,-0.0441 l 0.11455,-0.045 0.002,-1.64565 c 0,-0.90521 0.0323,-1.85686 0.0695,-2.11459 0.0739,-0.51123 0.21356,-0.75142 0.58248,-1.00249 0.46355,-0.3155 1.23417,-0.14321 1.42734,0.31914 l 0.0999,0.23888 0,2.03235 0,2.03237 0.11356,0.11453 0.11453,0.11455 0.74891,0 c 0.51146,0 0.77292,-0.029 0.82334,-0.0911 0.0441,-0.0543 0.0867,-0.88323 0.10572,-2.0539 l 0.0323,-1.96188 0.12826,-0.30738 c 0.15875,-0.37987 0.49163,-0.60112 0.90556,-0.60112 0.43158,0 0.77567,0.16553 0.93002,0.44837 l 0.13119,0.24184 0.0217,2.07151 0.0205,2.07152 0.12042,0.0911 c 0.16763,0.1268 1.47386,0.12287 1.64861,-0.005 l 0.13117,-0.095 -0.0263,-2.32899 -0.0254,-2.32898 -0.25551,-0.50124 -0.25453,-0.50124 -0.38279,-0.2281 c -0.37534,-0.2243 -0.91731,-0.36527 -1.39602,-0.37396 z m -25.62283,0.0226 -0.51004,0.15957 c -0.60064,0.18755 -1.08102,0.56273 -1.27855,0.99758 -0.18499,0.40731 -0.1816,1.12062 0.006,1.49003 0.25661,0.50296 0.76886,0.76905 2.03628,1.05436 0.45974,0.10348 0.98313,0.2409 1.16301,0.30543 0.69336,0.24872 0.84753,0.63978 0.40433,1.02891 -0.18505,0.16246 -0.35451,0.23264 -0.64711,0.26922 -0.21775,0.0272 -0.47255,0.0265 -0.56682,-0.002 -0.46837,-0.14162 -0.65714,-0.28419 -0.83213,-0.6295 l -0.18013,-0.35537 -0.81548,0.0205 -0.81452,0.0205 0.0138,0.30837 c 0.0177,0.39468 0.33664,0.98657 0.67257,1.24624 0.39567,0.30587 0.97234,0.51777 1.58888,0.58447 1.03817,0.11226 2.15435,-0.0477 2.74603,-0.39455 0.42658,-0.24998 0.73242,-0.62911 0.86249,-1.06707 0.21374,-0.7198 0.11192,-1.28331 -0.30447,-1.68777 -0.1474,-0.14318 -0.4104,-0.32739 -0.58447,-0.40921 -0.17403,-0.0818 -0.66525,-0.22918 -1.09253,-0.32795 -1.16771,-0.26996 -1.56032,-0.39705 -1.74064,-0.56292 -0.20578,-0.18935 -0.20981,-0.49641 -0.01,-0.67745 l 0.15272,-0.13805 0.51886,0 c 0.28565,0 0.62765,0.0452 0.75969,0.10084 0.15166,0.064 0.29241,0.20471 0.38277,0.3818 0.0787,0.15419 0.19146,0.28209 0.25063,0.28391 0.0591,0.002 0.38563,0.003 0.7254,0.003 0.33982,0 0.66745,0 0.72739,-0.003 0.1836,-0.006 0.12687,-0.44276 -0.1116,-0.85855 -0.2501,-0.43615 -0.63004,-0.73942 -1.22273,-0.97604 l -0.41021,-0.1635 -0.94472,0 -0.94568,0 z m 29.5632,0.10868 c -0.25207,0.003 -0.47877,0.0171 -0.57953,0.0441 l -0.1635,0.0441 0,3.0407 0,3.04073 0.12727,0.0773 c 0.18312,0.11172 1.62039,0.0406 1.70048,-0.0842 0.0337,-0.0525 0.0601,-1.42784 0.0587,-3.05636 l -0.003,-2.96044 -0.13707,-0.0743 c -0.0927,-0.0496 -0.58331,-0.0761 -1.00345,-0.0715 z m 10.36349,1.23938 c 0.21989,0 0.43989,0.0426 0.63926,0.13316 l 0.29859,0.13507 0.19385,0.38965 0.1948,0.38964 -0.1253,0.0911 c -0.0882,0.0644 -0.45493,0.0902 -1.25506,0.0861 -0.62199,-0.003 -1.1718,-0.023 -1.22177,-0.0431 -0.14131,-0.0571 -0.10716,-0.34106 0.0734,-0.61283 0.23879,-0.35931 0.71842,-0.56802 1.20221,-0.56878 z m -45.56952,0 c 0.22147,0 0.44467,0.0457 0.64809,0.13805 l 0.31132,0.14096 0.17914,0.38376 0.17818,0.38475 -0.1214,0.0911 c -0.0863,0.0642 -0.4541,0.0892 -1.25309,0.0852 -0.62199,-0.003 -1.17178,-0.023 -1.22176,-0.043 -0.14132,-0.0571 -0.10817,-0.34108 0.0724,-0.61285 0.24096,-0.3626 0.71986,-0.57 1.20708,-0.56781 z m -7.22387,0.009 c 0.094,0 0.19208,0.006 0.29173,0.0177 l 0.41311,0.0519 0.28391,0.2565 c 0.19549,0.1766 0.31818,0.37075 0.39355,0.62456 0.12469,0.41984 0.14491,1.41304 0.0363,1.80427 -0.10161,0.36586 -0.35689,0.72214 -0.6324,0.88305 -0.12816,0.0748 -0.40622,0.15062 -0.61774,0.16836 l -0.38474,0.0323 -0.3123,-0.15566 c -0.57899,-0.28906 -0.89083,-0.90357 -0.90164,-1.77586 -0.0118,-0.94855 0.37605,-1.66209 1.00738,-1.85123 0.12068,-0.0362 0.26624,-0.0548 0.42292,-0.0558 z m 28.14759,2.08427 0.0441,0.22221 c 0.0601,0.30047 -0.0676,0.9441 -0.232,1.16696 -0.0738,0.0999 -0.23617,0.24156 -0.36026,0.31425 -0.30552,0.17891 -0.92373,0.22323 -1.27659,0.092 -0.15492,-0.0576 -0.31089,-0.1337 -0.34655,-0.16934 -0.0357,-0.0357 -0.0923,-0.16226 -0.12629,-0.28098 -0.0907,-0.31627 0.0539,-0.68448 0.33283,-0.8468 0.1279,-0.0744 0.57012,-0.1964 0.98193,-0.27021 0.41182,-0.0738 0.80088,-0.1553 0.86541,-0.18112 l 0.11748,-0.0469 z m -26.42165,8.94884 0.57367,0 c 0.40488,0 0.57601,0.027 0.58349,0.0911 0.0394,0.33881 0.0291,0.69062 -0.0245,0.79886 l -0.0636,0.12727 -0.49144,0 c -0.28553,0 -0.52793,-0.0365 -0.57858,-0.0871 -0.0913,-0.0913 -0.11904,-0.61755 -0.0431,-0.81549 l 0.0441,-0.11454 z m 51.554,0.0363 0.58149,0 0.58153,0 0.0205,0.92611 c 0.0113,0.50971 0.0479,0.92708 0.0812,0.92708 0.0334,0 0.141,-0.0633 0.23984,-0.14096 0.0988,-0.0778 0.33363,-0.18071 0.52177,-0.22809 0.65565,-0.1651 1.36596,0.0604 1.78176,0.56487 0.32364,0.39263 0.47115,0.89677 0.46403,1.58495 -0.01,0.93356 -0.30095,1.5263 -0.93393,1.89728 -0.23467,0.13751 -0.45586,0.19903 -0.77927,0.21733 -0.49682,0.0281 -0.85169,-0.0546 -1.1503,-0.26726 -0.10758,-0.0766 -0.21506,-0.13902 -0.23888,-0.13902 -0.0238,0 -0.043,0.063 -0.043,0.13999 0,0.077 -0.053,0.15054 -0.11749,0.1635 -0.0645,0.0128 -0.32673,0.0124 -0.58249,0 l -0.46502,-0.0244 0.0195,-2.80966 0.0186,-2.81066 z m -3.59777,0.32109 0,0.53356 c 0,0.31815 0.0352,0.56868 0.0871,0.62069 0.048,0.0479 0.22398,0.0871 0.39159,0.0871 0.21085,0 0.31899,0.036 0.3495,0.11551 0.0727,0.18949 0.05,0.50407 -0.0431,0.59718 -0.048,0.048 -0.22494,0.0871 -0.39256,0.0871 -0.21901,0 -0.31763,0.0342 -0.35146,0.12236 -0.0259,0.0676 -0.043,0.55921 -0.0372,1.09254 l 0.0107,0.97016 0.1067,0.10671 c 0.0588,0.0588 0.23196,0.10672 0.38475,0.10672 0.18624,0 0.2925,0.0375 0.32208,0.11455 0.0751,0.19563 0.0487,0.65129 -0.043,0.74304 -0.11268,0.11265 -1.02923,0.10736 -1.36373,-0.008 -0.14391,-0.0496 -0.32314,-0.19272 -0.41802,-0.33383 l -0.16641,-0.2467 0,-1.33434 0,-1.33337 -0.29273,0 -0.2937,0 -0.0568,-0.15567 c -0.0316,-0.0855 -0.0498,-0.2239 -0.0401,-0.30837 0.01,-0.0844 0.0202,-0.19477 0.0235,-0.24475 0.003,-0.0525 0.10516,-0.0913 0.2418,-0.092 0.12993,0 0.276,-0.0262 0.32404,-0.0568 0.0517,-0.0329 0.0958,-0.27689 0.10868,-0.59816 l 0.0216,-0.54333 0.56391,-0.0217 0.5629,-0.0205 z m -44.70798,0.0156 c 0.21829,0.002 0.30113,0.0258 0.30542,0.0783 0.004,0.0517 0.003,0.28599 -0.002,0.52083 -0.006,0.23481 0.0287,0.47167 0.0743,0.52667 0.0467,0.0564 0.2178,0.0999 0.39259,0.0999 0.21601,0 0.32466,0.0355 0.35536,0.1155 0.0748,0.195 0.0481,0.51665 -0.0489,0.59717 -0.0508,0.042 -0.23794,0.0871 -0.41705,0.0999 l -0.326,0.0235 -0.0205,1.06513 -0.0196,1.06512 0.11553,0.11554 c 0.0659,0.0658 0.23698,0.11649 0.39453,0.11649 0.18624,0 0.2925,0.0374 0.32208,0.11454 0.0751,0.19563 0.0486,0.6513 -0.0431,0.74304 -0.11268,0.11267 -1.03019,0.10738 -1.36469,-0.008 -0.14393,-0.0496 -0.32314,-0.19273 -0.41802,-0.33383 l -0.16546,-0.24669 0,-1.33435 0,-1.33337 -0.28683,0 c -0.17792,0 -0.31025,-0.0411 -0.34753,-0.10768 -0.0331,-0.0591 -0.0476,-0.2387 -0.0323,-0.39942 l 0.0275,-0.29272 0.22908,0 c 0.12572,0 0.26719,-0.0262 0.31523,-0.0568 0.0517,-0.0329 0.0968,-0.27688 0.10964,-0.59815 l 0.0217,-0.54334 0.56291,-0.0217 c 0.105,-0.005 0.19351,-0.006 0.2663,-0.005 z m 27.49852,1.0612 0.63046,0.0363 c 0.76746,0.0437 1.24762,0.23267 1.4538,0.57171 0.17234,0.28339 0.21708,0.72418 0.2418,2.37305 l 0.0196,1.25406 -0.55996,0 -0.55998,0 -0.0695,-0.1253 -0.0705,-0.1253 -0.33383,0.16739 c -0.22685,0.11332 -0.50403,0.17706 -0.86051,0.1968 -0.28917,0.0162 -0.6076,0.002 -0.70781,-0.0313 -0.38906,-0.12836 -0.64665,-0.30759 -0.80081,-0.55703 l -0.16054,-0.25944 0.0293,-0.46795 0.0304,-0.46697 0.2085,-0.21734 c 0.25599,-0.26719 0.65794,-0.40353 1.60064,-0.54136 l 0.72543,-0.10574 0.12235,-0.15076 c 0.0859,-0.10616 0.10669,-0.20989 0.0695,-0.35045 -0.0393,-0.14875 -0.12889,-0.22671 -0.35048,-0.30448 l -0.29759,-0.10377 -0.30056,0.0901 c -0.2096,0.0628 -0.32775,0.14936 -0.38767,0.28587 -0.0473,0.10778 -0.11879,0.22025 -0.15958,0.24962 -0.11565,0.0833 -1.04192,0.0652 -1.09548,-0.0217 -0.0976,-0.15803 0.0505,-0.56589 0.29761,-0.82038 0.18588,-0.1914 0.395,-0.30497 0.77046,-0.41901 l 0.51495,-0.15666 z m 8.23321,0.0196 c 0.51429,0 0.98621,0.17613 1.36665,0.51102 0.41212,0.36275 0.65135,0.90163 0.66083,1.48708 l 0.006,0.43662 -1.47434,0.0196 -1.47434,0.0195 -0.0391,0.10278 c -0.0634,0.16547 0.19229,0.61855 0.41411,0.73326 0.25955,0.13423 0.81443,0.13611 1.07002,0.005 0.10807,-0.0558 0.25876,-0.1695 0.33483,-0.25355 l 0.13802,-0.15368 0.46111,0 0.46109,0 0,0.17619 c 0,0.29481 -0.42972,0.78418 -0.89184,1.01522 -0.30894,0.15443 -0.5483,0.21566 -0.90851,0.233 -0.26898,0.0128 -0.61208,-0.007 -0.76261,-0.0451 -1.05444,-0.26497 -1.64016,-1.11742 -1.56441,-2.27711 0.0418,-0.63885 0.21048,-0.98873 0.69507,-1.44203 0.40772,-0.38136 0.90135,-0.56682 1.50665,-0.56682 z m -2.73722,0.006 c 0.1409,0.002 0.25123,0.0438 0.29957,0.13415 0.10992,0.20535 0.0939,0.84431 -0.0236,0.94177 -0.0553,0.0458 -0.19529,0.0618 -0.31818,0.0372 -0.32469,-0.0649 -0.84933,0.18981 -1.01225,0.49142 l -0.13119,0.24279 -0.0372,1.19926 -0.0382,1.19924 -0.54823,0.0205 c -0.30163,0.0115 -0.57192,-0.002 -0.60011,-0.0294 -0.0282,-0.0282 -0.051,-0.96176 -0.051,-2.07444 l 0,-2.02356 0.58152,0 0.58152,0 0,0.25453 c 0,0.13992 0.0209,0.25453 0.046,0.25453 0.0252,0 0.16916,-0.11238 0.32109,-0.24964 0.27919,-0.25222 0.66104,-0.40073 0.93003,-0.39845 z m -20.15619,0.002 c 0.0798,0 0.1611,0.003 0.24574,0.009 0.83142,0.0597 1.46667,0.51412 1.7406,1.24624 0.0823,0.22005 0.15892,0.57396 0.17035,0.78612 l 0.0217,0.38571 -1.50859,0.0196 -1.50861,0.0195 0,0.21537 c 0,0.13533 0.0792,0.30414 0.21244,0.45327 l 0.21243,0.23691 0.51006,0 0.51104,0 0.24376,-0.23594 0.24375,-0.2369 0.44642,0 c 0.2456,0 0.46562,0.0318 0.48949,0.0705 0.0571,0.0923 -0.18831,0.56773 -0.42487,0.82234 -0.10306,0.11093 -0.34364,0.26912 -0.53452,0.35146 -0.19801,0.0855 -0.56533,0.16206 -0.85563,0.17914 -0.88939,0.0523 -1.56612,-0.24665 -1.98439,-0.87814 -0.12393,-0.18707 -0.26374,-0.5244 -0.31033,-0.7489 -0.1709,-0.82317 0.0806,-1.62402 0.67744,-2.16061 0.39928,-0.35897 0.84365,-0.53001 1.4019,-0.53452 z m 42.37511,0.002 c 0.27256,-0.003 0.543,0.0262 0.74106,0.092 0.78697,0.26139 1.34522,1.03615 1.35787,1.88454 l 0.006,0.44837 -1.47533,0.0196 -1.47434,0.0195 -0.0391,0.10279 c -0.0635,0.16544 0.19227,0.61852 0.41412,0.73325 0.26088,0.13493 0.81598,0.13664 1.07001,0.003 0.10794,-0.0568 0.25252,-0.17144 0.32209,-0.25455 l 0.12725,-0.15175 0.47284,0 0.47287,0 0,0.11259 c 0,0.23181 -0.30538,0.69756 -0.59522,0.90752 -0.16537,0.1198 -0.46512,0.26643 -0.66571,0.326 -0.60077,0.17841 -1.28612,0.11215 -1.85713,-0.17916 -0.15499,-0.079 -0.39948,-0.28047 -0.54236,-0.44739 -0.3691,-0.43124 -0.50756,-0.90054 -0.46794,-1.58497 l 0.0323,-0.55702 0.2095,-0.38376 c 0.21391,-0.39302 0.52775,-0.6894 0.97898,-0.92122 0.20673,-0.10624 0.56099,-0.16501 0.91144,-0.16936 z m -31.92257,0.002 c 0.0816,-0.002 0.16482,0.002 0.25064,0.0108 1.12979,0.11661 1.82744,1.0514 1.74258,2.33389 -0.0445,0.67302 -0.27671,1.20356 -0.68332,1.56147 -0.17394,0.15311 -0.46383,0.3193 -0.64515,0.37005 -0.45573,0.12761 -1.05868,0.0532 -1.45672,-0.18012 l -0.32307,-0.18894 0,0.79687 0,0.79787 -0.11455,0.11357 c -0.14071,0.14072 -0.88961,0.15716 -1.07197,0.0235 l -0.12434,-0.0911 0.0196,-2.68926 0.0185,-2.68924 0.5815,0 0.58152,0 0.0236,0.16348 0.0235,0.16351 0.23105,-0.17231 c 0.27919,-0.20842 0.59326,-0.31642 0.94667,-0.32404 z m -5.12983,0.003 c 0.0585,0 0.11443,0.002 0.16642,0.008 0.78931,0.0935 1.17739,0.44661 1.29127,1.17282 0.0369,0.23536 0.0731,0.9813 0.0803,1.65741 0.009,0.85381 -0.0128,1.26077 -0.0724,1.3324 -0.11234,0.13535 -1.03376,0.14313 -1.14441,0.01 -0.0464,-0.056 -0.0861,-0.64662 -0.0999,-1.48804 l -0.0226,-1.39506 -0.16546,-0.16541 -0.16642,-0.16547 -0.35633,0.005 c -0.19603,0.003 -0.41281,0.0525 -0.48166,0.10965 -0.2652,0.21993 -0.32013,0.53021 -0.32013,1.79446 0,0.85467 -0.0262,1.24993 -0.0871,1.31086 -0.12483,0.12481 -1.03581,0.11461 -1.14151,-0.0127 -0.0585,-0.0705 -0.0764,-0.67242 -0.0626,-2.05291 l 0.0196,-1.95403 0.58054,0 0.58152,0 0.0235,0.16348 c 0.0128,0.09 0.0483,0.1635 0.0793,0.1635 0.0309,0 0.11672,-0.066 0.18992,-0.14685 0.16654,-0.18404 0.69901,-0.34274 1.10819,-0.34655 z m -24.80537,0.0217 0.65396,0.003 0.65495,0.002 0.3622,0.16447 c 0.19941,0.0904 0.44076,0.23702 0.53648,0.32502 0.2043,0.18779 0.44219,0.67135 0.44446,0.90458 l 0,0.16348 -0.57659,0 -0.57662,0 -0.045,-0.14194 c -0.0249,-0.0782 -0.14347,-0.2253 -0.26434,-0.32698 l -0.22028,-0.18504 -0.34655,0 -0.34754,0 -0.19579,0.18111 c -0.1078,0.0999 -0.24359,0.296 -0.30152,0.43467 -0.22999,0.55048 -0.0521,1.46293 0.33871,1.73673 0.21634,0.15151 0.78131,0.15432 0.99465,0.005 0.0894,-0.0626 0.22816,-0.24215 0.30837,-0.39942 l 0.14588,-0.28587 0.54333,0 0.54332,0 0,0.18407 c 0,0.47254 -0.41436,1.03601 -0.9721,1.32162 l -0.37203,0.18992 -0.5815,0.0244 c -0.77908,0.0318 -1.19234,-0.11411 -1.68286,-0.59228 l -0.37495,-0.36515 -0.1165,-0.39454 c -0.23788,-0.81047 -0.0848,-1.69226 0.39355,-2.27221 0.12156,-0.14738 0.40825,-0.35938 0.63731,-0.47187 l 0.41607,-0.2046 z m 11.04877,0 0.36319,0.16741 c 0.46832,0.2151 0.88714,0.6188 1.06612,1.02891 0.20696,0.47427 0.24953,1.12455 0.10571,1.61923 -0.16484,0.56708 -0.50906,0.99032 -1.0152,1.24916 l -0.41803,0.21343 -0.59618,0.0254 c -0.44325,0.0186 -0.69091,-0.009 -0.96624,-0.10769 -0.81633,-0.29164 -1.28997,-0.91156 -1.38429,-1.81403 l -0.046,-0.43958 0.15176,-0.49928 0.15172,-0.4983 0.3123,-0.30543 c 0.17172,-0.16799 0.47561,-0.37879 0.67549,-0.46894 l 0.3632,-0.16446 0.61873,-0.003 0.61774,-0.003 z m 35.97844,0 0.51101,0 c 0.85883,0 1.31784,0.3057 1.48806,0.99268 0.0466,0.18853 0.0703,0.9005 0.0577,1.76902 l -0.0217,1.45381 -0.58152,0 -0.58152,0 -0.0382,-1.41757 c -0.0212,-0.77957 -0.0662,-1.47535 -0.0999,-1.5468 -0.0714,-0.15164 -0.41203,-0.34264 -0.61088,-0.34264 -0.29345,0 -0.60287,0.16716 -0.72249,0.38964 l -0.12334,0.2281 -0.0382,1.34414 0,0 -0.0382,1.34413 -0.54918,0.0205 c -0.30165,0.0115 -0.57097,-0.002 -0.59914,-0.0293 -0.0282,-0.0282 -0.051,-0.96179 -0.051,-2.07447 l 0,-2.02354 0.58151,0 0.5815,0 0,0.1821 c 0,0.11304 0.0408,0.18111 0.10868,0.18111 0.0599,0 0.10865,-0.0262 0.10865,-0.0588 0,-0.0326 0.13945,-0.13879 0.30937,-0.23595 l 0.30838,-0.17717 z m -43.01143,0.0666 c 0.20644,-0.002 0.39762,0.0118 0.45815,0.0441 l 0.13218,0.0705 0,1.96088 c 0,1.08096 -0.0286,1.9798 -0.0646,2.00203 -0.13754,0.085 -0.98358,0.11112 -1.10723,0.0343 l -0.12727,-0.0793 0,-1.95406 c 0,-1.29486 0.0263,-1.97057 0.0773,-2.002 0.0746,-0.0462 0.36601,-0.074 0.63145,-0.0764 z m 8.88619,0.0363 0.63633,0.0217 0.63536,0.0205 0.43662,1.2903 c 0.23987,0.70941 0.45667,1.29028 0.48164,1.29028 0.025,0 0.23703,-0.58069 0.47189,-1.29028 l 0.42683,-1.2903 0.57466,-0.0217 c 0.31603,-0.0118 0.59925,0.006 0.62949,0.0372 0.058,0.061 -1.63823,4.50523 -1.87377,4.90958 -0.0755,0.12963 -0.28004,0.31516 -0.45523,0.41214 l -0.31914,0.17622 -0.54921,0.0226 c -0.30249,0.0122 -0.59124,0.003 -0.64123,-0.0195 -0.059,-0.0266 -0.0911,-0.20432 -0.0911,-0.50712 l 0,-0.46599 0.4249,0 0.42487,0 0.1204,-0.13314 c 0.0662,-0.0731 0.12041,-0.21904 0.12041,-0.32403 0,-0.18485 -0.18489,-0.69094 -1.04553,-2.86254 -0.22449,-0.56644 -0.40825,-1.0826 -0.40825,-1.14736 l 0,-0.11847 z m 29.34489,0.78905 c -0.0849,0 -0.16723,0.01 -0.23889,0.0284 -0.24805,0.0645 -0.4988,0.30533 -0.57269,0.54921 l -0.049,0.16054 0.78515,0.0205 c 0.43201,0.0113 0.83998,0.01 0.90653,-0.005 l 0.12139,-0.0254 -0.0714,-0.20363 c -0.0391,-0.11227 -0.13324,-0.26092 -0.2095,-0.3299 -0.13254,-0.11997 -0.41675,-0.19661 -0.67157,-0.19582 z m -12.48784,0.0166 c -0.16052,0 -0.3879,0.0489 -0.50519,0.10964 -0.33178,0.17157 -0.46724,0.49662 -0.46892,1.12584 l 0,0.54527 0.14783,0.25456 c 0.0813,0.13989 0.26085,0.31244 0.39942,0.38374 0.27963,0.14389 0.64242,0.11782 0.93003,-0.0676 0.21995,-0.14178 0.44536,-0.64108 0.44739,-0.99269 0.003,-0.4983 -0.14492,-0.9076 -0.41019,-1.14053 l -0.24769,-0.2183 -0.29173,0 z m 27.32231,0 c -0.63913,0 -0.96719,0.42098 -0.96137,1.23548 0.003,0.52532 0.13248,0.8437 0.4376,1.08373 0.26302,0.20687 0.74149,0.20404 1.00836,-0.006 0.11018,-0.0867 0.24541,-0.26553 0.30053,-0.39745 0.12892,-0.30854 0.12892,-1.05225 0,-1.36078 -0.14328,-0.34295 -0.44313,-0.55508 -0.78512,-0.55508 z m 4.35938,0 -0.2467,0.2467 c -0.26714,0.26714 -0.3163,0.45506 -0.12924,0.49243 0.0647,0.0128 0.45728,0.0135 0.87228,0 l 0.75381,-0.0225 0,-0.14685 c 0,-0.0805 -0.0956,-0.24145 -0.21242,-0.3583 l -0.21245,-0.21244 -0.41216,0 -0.41312,0 z m -51.03414,0.003 c -0.36526,0.005 -0.66857,0.18688 -0.81648,0.51495 -0.18294,0.40564 -0.1765,1.11424 0.0139,1.48608 0.0844,0.16498 0.25118,0.34051 0.3955,0.41607 0.29465,0.15426 0.73332,0.11773 1.01325,-0.0842 0.0999,-0.0721 0.2389,-0.29189 0.30934,-0.48853 0.24445,-0.68222 0.003,-1.60461 -0.46304,-1.76705 -0.15624,-0.0544 -0.3094,-0.0792 -0.45229,-0.0773 z m 9.08685,0.002 c -0.17431,0.005 -0.34473,0.0293 -0.43663,0.0764 -0.20904,0.10692 -0.40915,0.35888 -0.41115,0.51789 l -0.002,0.12726 0.87226,0 0.87228,0 0,-0.093 c 0,-0.11151 -0.20407,-0.41731 -0.36028,-0.54039 -0.0798,-0.0629 -0.3104,-0.0931 -0.53451,-0.0881 z m 15.60003,1.4205 c -0.11011,0.005 -0.3353,0.0354 -0.58054,0.0803 -0.36542,0.0668 -0.65244,0.16339 -0.74499,0.24964 -0.28256,0.26324 -0.14688,0.70751 0.24866,0.81254 0.22539,0.0598 0.61479,-0.005 0.81354,-0.13508 0.099,-0.065 0.22629,-0.22964 0.28293,-0.36518 0.11152,-0.26693 0.13629,-0.5855 0.0489,-0.63731 -0.007,-0.005 -0.0318,-0.006 -0.0686,-0.005 z m 17.7489,0.64612 0.65396,0 0.65396,0 0,0.61774 0,0.61774 -0.58838,0.0205 -0.58838,0.0216 -0.0871,-0.10573 c -0.0553,-0.0666 -0.0792,-0.30008 -0.0656,-0.63831 l 0.0217,-0.53356 z"
       id="path4562"
       inkscape:connector-curvature="0" />
  </g>
</svg>
