<?xml version="1.0" encoding="UTF-8" standalone="no"?>
<!-- Created with Inkscape (http://www.inkscape.org/) -->

<svg
   xmlns:dc="http://purl.org/dc/elements/1.1/"
   xmlns:cc="http://creativecommons.org/ns#"
   xmlns:rdf="http://www.w3.org/1999/02/22-rdf-syntax-ns#"
   xmlns:svg="http://www.w3.org/2000/svg"
   xmlns="http://www.w3.org/2000/svg"
   xmlns:sodipodi="http://sodipodi.sourceforge.net/DTD/sodipodi-0.dtd"
   xmlns:inkscape="http://www.inkscape.org/namespaces/inkscape"
   width="100"
   height="80.070793"
   id="svg3465"
   version="1.1"
   inkscape:version="0.48.3.1 r9886"
   sodipodi:docname="loterie.svg">
  <sodipodi:namedview
     id="base"
     pagecolor="#ffffff"
     bordercolor="#666666"
     borderopacity="1.0"
     inkscape:pageopacity="0.0"
     inkscape:pageshadow="2"
     inkscape:zoom="0.37734375"
     inkscape:cx="-632.3029"
     inkscape:cy="273.89687"
     inkscape:document-units="px"
     inkscape:current-layer="layer1"
     showgrid="false"
     inkscape:window-width="1375"
     inkscape:window-height="876"
     inkscape:window-x="65"
     inkscape:window-y="24"
     inkscape:window-maximized="1"
     fit-margin-top="0"
     fit-margin-left="0"
     fit-margin-right="0"
     fit-margin-bottom="0" />
  <defs
     id="defs3467" />
  <metadata
     id="metadata3470">
    <rdf:RDF>
      <cc:Work
         rdf:about="">
        <dc:format>image/svg+xml</dc:format>
        <dc:type
           rdf:resource="http://purl.org/dc/dcmitype/StillImage" />
        <dc:title></dc:title>
      </cc:Work>
    </rdf:RDF>
  </metadata>
  <g
     transform="translate(-502.30777,-620.18412)"
     id="layer1"
     inkscape:groupmode="layer"
     inkscape:label="Layer 1">
    <path
       inkscape:connector-curvature="0"
       id="path3170"
       d="m 502.51371,694.34205 c 0.17071,-4.84411 0.4128,-5.88401 1.41439,-6.07548 1.03362,-0.19736 1.23871,0.5094 1.41763,4.88544 0.18861,4.61317 0.35909,5.13893 1.73342,5.34677 1.32328,0.19994 1.51498,-0.0962 1.45404,-2.24644 -0.0877,-3.09774 1.57264,-4.9265 3.93467,-4.33371 0.94425,0.23697 2.06603,1.15544 2.49284,2.04105 0.71889,1.4916 0.77958,1.42098 0.82401,-0.96096 0.0528,-2.83105 2.17441,-5.59393 2.17441,-2.83177 0,0.86493 0.4521,1.50452 1.06322,1.50452 0.58477,0 1.06321,0.31893 1.06321,0.70876 0,0.38998 -0.31895,0.70892 -0.7088,0.70892 -0.38985,0 -0.70881,1.29467 -0.70881,2.87698 0,1.73762 0.28074,2.7036 0.70881,2.43906 0.38985,-0.24099 0.7088,-1.49662 0.7088,-2.79029 0,-2.84038 1.35635,-4.12429 4.03282,-3.81756 2.76378,0.31693 3.06083,2.78714 0.53426,4.44265 -1.33168,0.87254 -1.66235,1.455 -1.12882,1.98851 0.53351,0.53352 1.09873,0.46893 1.92956,-0.22061 1.03191,-0.85646 1.14273,-0.80522 0.90999,0.41984 -0.31387,1.65221 -3.69815,2.29926 -5.25744,1.00516 -0.78598,-0.65236 -1.02037,-0.65336 -1.02037,0 0,0.50108 -0.79006,0.75169 -1.94923,0.61835 -1.43444,-0.16492 -2.01248,-0.6716 -2.18875,-1.91847 l -0.23952,-1.69413 -0.84346,1.69413 c -0.7747,1.55604 -1.32095,1.70905 -6.70014,1.87627 l -5.85668,0.18185 0.20594,-5.84453 z m 9.76407,1.40505 c -0.007,-1.80694 -0.24008,-2.65121 -0.58364,-2.10994 -0.53907,0.84943 -0.27169,5.12242 0.32054,5.12242 0.15067,0 0.26907,-1.35553 0.2631,-3.01248 z m 11.07128,-2.46605 c -0.23554,-0.23554 -0.40306,0.18315 -0.3723,0.93038 0.034,0.82561 0.20198,0.99354 0.42825,0.42816 0.20476,-0.51169 0.17957,-1.123 -0.056,-1.35854 z m 3.82463,3.49389 c 0,-3.76057 0.87665,-5.10347 3.33141,-5.10347 1.15773,0 1.63027,0.41093 1.63027,1.41768 0,0.77967 -0.39871,1.33787 -0.88602,1.24041 -0.57225,-0.11482 -0.96319,0.88962 -1.10397,2.83522 -0.1762,2.43533 -0.48171,3.01233 -1.59483,3.01233 -1.17205,0 -1.37686,-0.50595 -1.37686,-3.40217 z m 5.67049,-0.4372 c 0,-2.4072 0.3305,-3.97344 0.88602,-4.19879 0.68227,-0.27687 0.65852,-0.51858 -0.10334,-1.0508 -1.17729,-0.82259 -0.47979,-3.21343 0.81247,-2.78498 0.58716,0.19477 0.95821,2.245 1.10098,6.08381 0.20224,5.43819 0.12674,5.79013 -1.24043,5.79013 -1.2893,0 -1.45576,-0.43892 -1.45576,-3.83937 z m 4.42659,3.02095 c -1.20954,-1.20956 -1.11378,-5.90411 0.14167,-6.94602 1.35201,-1.12214 3.95711,-0.68996 4.89881,0.81269 0.60281,0.96167 0.36143,1.50638 -1.21859,2.74924 -1.35046,1.06215 -1.74084,1.77924 -1.24096,2.27917 0.49988,0.49978 1.09895,0.42242 1.90433,-0.24588 1.03191,-0.85646 1.14277,-0.80522 0.91025,0.41984 -0.31502,1.65982 -4.02626,2.30012 -5.39553,0.93096 z m 2.38096,-6.07764 c -0.23554,-0.23554 -0.40306,0.18315 -0.37228,0.93038 0.034,0.82561 0.20196,0.99354 0.42824,0.42816 0.20475,-0.51169 0.17958,-1.123 -0.056,-1.35854 z m 7.36869,0.51686 c 0,-5.60555 0.15044,-6.37848 1.24042,-6.37231 0.68224,0 1.94397,1.19994 2.80388,2.65796 l 1.56345,2.65106 0.0314,-2.71709 c 0.0508,-4.40978 1.74832,-2.78656 2.15781,2.06358 0.21162,2.50638 0.58543,3.84067 0.92784,3.3116 0.3154,-0.48729 1.19255,-0.88603 1.94924,-0.88603 0.75668,0 1.37578,-0.31893 1.37578,-0.70877 0,-0.99124 -1.66048,-0.88459 -2.76228,0.17712 -0.74355,0.71667 -0.87119,0.6149 -0.66748,-0.5315 0.18993,-1.06889 0.90439,-1.47179 2.90406,-1.63757 1.53451,-0.12775 2.65214,0.0976 2.65214,0.5315 0,0.41338 0.33779,0.75169 0.75065,0.75169 0.41284,0 0.58563,-0.26698 0.38397,-0.59337 -0.42933,-0.6947 1.50157,-3.65953 2.38328,-3.65953 0.33123,0 0.43543,0.63786 0.23155,1.41754 -0.2677,1.02368 -0.0218,1.41768 0.88501,1.41768 1.11991,0 1.14316,0.13348 0.21494,1.24041 -0.57245,0.68222 -0.98072,1.63915 -0.90727,2.12645 0.0735,0.4873 0.17342,1.5427 0.22215,2.34548 0.14296,2.3551 1.50622,0.80407 1.50622,-1.71393 0,-2.18056 1.03126,-3.99841 2.2682,-3.99841 0.31187,0 0.56705,1.93124 0.56705,4.29165 l 0,4.29179 -3.36685,-0.21616 -3.36687,-0.21588 -0.42514,-3.18974 -0.42515,-3.1896 -0.1065,3.36672 -0.1065,3.36686 -2.69349,0 c -1.48143,0 -3.07626,-0.38266 -3.54407,-0.85057 -0.66155,-0.66141 -0.85057,-0.66141 -0.85057,0 0,1.88603 -1.90284,0.65939 -3.90364,-2.51629 l -2.12126,-3.36672 -0.21603,3.36672 c -0.37888,5.90439 -1.55601,3.62551 -1.55601,-3.01234 z m 12.04981,3.54399 c 0,-0.38984 -0.31896,-0.70877 -0.70881,-0.70877 -0.38986,0 -0.7088,0.31893 -0.7088,0.70877 0,0.38984 0.31894,0.70891 0.7088,0.70891 0.38985,0 0.70881,-0.31907 0.70881,-0.70891 z m 12.07475,1.46433 c -1.55682,-2.909 -0.33172,-7.13476 2.06846,-7.13476 2.0892,0 3.5771,0.76862 3.5771,1.84785 0,0.70058 0.41181,0.57556 1.41762,-0.43017 0.7797,-0.77968 2.3404,-1.41768 3.46823,-1.41768 2.11963,0 2.89362,0.99741 2.93264,3.77923 0.0194,1.38467 0.0932,1.41409 0.74404,0.2964 0.39736,-0.68222 1.34455,-1.24042 2.10487,-1.24042 0.76033,0 1.3824,-0.31893 1.3824,-0.70877 0,-0.99124 -1.66048,-0.88459 -2.76227,0.17712 -0.74356,0.71667 -0.87123,0.6149 -0.66757,-0.5315 0.1828,-1.02913 0.90965,-1.48069 2.65251,-1.64748 2.95008,-0.28233 3.58752,0.60514 3.60173,5.0142 l 0.0115,3.36686 -2.80001,0 c -1.91894,0 -3.02738,-0.39012 -3.52251,-1.24027 -0.68809,-1.18142 -0.72351,-1.18142 -0.74404,0 -0.0129,0.76073 -0.56981,1.24027 -1.43918,1.24027 -1.2076,0 -1.41762,-0.47251 -1.41762,-3.18945 0,-1.75441 -0.31897,-3.18975 -0.70881,-3.18975 -0.38985,0 -0.70883,1.43534 -0.70883,3.18975 0,2.71694 -0.21,3.18945 -1.41762,3.18945 -0.98101,0 -1.43486,-0.49102 -1.47358,-1.5948 -0.0373,-1.06559 -0.19024,-1.24199 -0.46068,-0.5315 -0.93011,2.44337 -4.67501,2.92794 -5.83773,0.75542 z m 3.51912,-2.88187 c 0,-1.12343 -0.31897,-2.23998 -0.70881,-2.48083 -0.42872,-0.26496 -0.70881,0.71537 -0.70881,2.48083 0,1.76546 0.28009,2.7458 0.70881,2.48083 0.38984,-0.24099 0.70881,-1.35725 0.70881,-2.48083 z m 14.17624,1.41754 c 0,-0.38984 -0.31896,-0.70877 -0.70881,-0.70877 -0.38985,0 -0.70881,0.31893 -0.70881,0.70877 0,0.38984 0.31896,0.70891 0.70881,0.70891 0.38985,0 0.70881,-0.31907 0.70881,-0.70891 z m 3.54407,-1.98464 c 0,-4.44408 0.72241,-6.52101 2.26819,-6.52101 0.31188,0 0.56706,1.1164 0.56706,2.48083 0,2.48083 0,2.48083 1.41762,1.06315 1.70661,-1.70661 3.06336,-1.79703 4.55664,-0.30371 1.52968,1.52978 1.40439,2.20711 -0.65817,3.55862 -0.97462,0.63858 -1.77204,1.60284 -1.77204,2.14267 0,1.29625 0.66696,1.23927 2.24784,-0.19133 1.12668,-1.01966 1.29622,-1.031 1.29622,-0.0876 0,3.06373 -5.1592,3.3495 -6.36506,0.35267 -0.60264,-1.49763 -0.63537,-1.47955 -0.67813,0.37562 -0.0336,1.4616 -0.39948,1.94919 -1.46256,1.94919 -1.27864,0 -1.41761,-0.47251 -1.41761,-4.81986 z m 7.08812,-1.60126 c 0,-0.36673 -0.31897,-0.66685 -0.70882,-0.66685 -0.38985,0 -0.70881,0.4972 -0.70881,1.10492 0,0.60786 0.31896,0.90799 0.70881,0.667 0.38985,-0.24085 0.70882,-0.73805 0.70882,-1.10507 z m -32.60537,-3.78081 c 0,-1.06904 1.72177,-2.01622 2.41155,-1.32639 0.93344,0.93339 0.34048,2.3139 -0.99392,2.3139 -0.77969,0 -1.41763,-0.44438 -1.41763,-0.98751 z m -20.55555,-11.33915 c -7.3969,-1.6446 -13.44067,-5.61201 -17.77969,-11.67142 -13.41643,-18.73588 -1.05364,-44.92356 22.04421,-46.69562 15.15935,-1.16305 28.80821,9.75066 31.34574,25.0641 1.94166,11.71749 -4.38463,24.51425 -14.96627,30.27353 -4.47941,2.43806 -4.75353,1.56868 -0.37962,-1.20367 3.67178,-2.32754 8.02617,-7.86578 9.80976,-12.47696 2.55237,-6.59881 1.18583,-16.30899 -3.23434,-22.98229 -5.31116,-8.01836 -16.05097,-11.78022 -23.70585,-8.30356 -6.09476,2.76804 -7.86258,8.56421 -3.94825,12.945 1.78731,2.00042 2.6126,2.3251 7.13858,2.80866 10.21206,1.09128 15.89362,7.11136 15.87928,16.82557 -0.0101,7.19866 -4.65504,13.20467 -11.87722,15.3594 -4.07463,1.21558 -5.09108,1.22132 -10.32633,0.0574 z m 11.30833,-6.87812 c 3.47335,-1.95205 4.99436,-4.66814 4.99436,-8.91833 0,-6.579 -6.39628,-11.43402 -12.61087,-9.57196 -8.77456,2.62881 -10.17639,14.82631 -2.15802,18.77722 3.22123,1.58733 6.61722,1.48758 9.77453,-0.28693 z"
       style="fill:#005176;fill-opacity:1" />
  </g>
</svg>
