<?xml version="1.0" encoding="UTF-8" standalone="no"?>
<!-- Created with Inkscape (http://www.inkscape.org/) -->

<svg
   xmlns:dc="http://purl.org/dc/elements/1.1/"
   xmlns:cc="http://creativecommons.org/ns#"
   xmlns:rdf="http://www.w3.org/1999/02/22-rdf-syntax-ns#"
   xmlns:svg="http://www.w3.org/2000/svg"
   xmlns="http://www.w3.org/2000/svg"
   xmlns:sodipodi="http://sodipodi.sourceforge.net/DTD/sodipodi-0.dtd"
   xmlns:inkscape="http://www.inkscape.org/namespaces/inkscape"
   width="69.670174"
   height="55.785458"
   id="svg3465"
   version="1.1"
   inkscape:version="0.48.4 r9939"
   sodipodi:docname="loterie.svg">
  <defs
     id="defs3467" />
  <sodipodi:namedview
     id="base"
     pagecolor="#ffffff"
     bordercolor="#666666"
     borderopacity="1.0"
     inkscape:pageopacity="0.0"
     inkscape:pageshadow="2"
     inkscape:zoom="0.37734375"
     inkscape:cx="-127.30777"
     inkscape:cy="167.89273"
     inkscape:document-units="px"
     inkscape:current-layer="layer1"
     showgrid="false"
     inkscape:window-width="476"
     inkscape:window-height="456"
     inkscape:window-x="0"
     inkscape:window-y="21"
     inkscape:window-maximized="0"
     fit-margin-top="0"
     fit-margin-left="0"
     fit-margin-right="0"
     fit-margin-bottom="0" />
  <metadata
     id="metadata3470">
    <rdf:RDF>
      <cc:Work
         rdf:about="">
        <dc:format>image/svg+xml</dc:format>
        <dc:type
           rdf:resource="http://purl.org/dc/dcmitype/StillImage" />
        <dc:title />
      </cc:Work>
    </rdf:RDF>
  </metadata>
  <g
     inkscape:label="Layer 1"
     inkscape:groupmode="layer"
     id="layer1"
     transform="translate(-502.30777,-644.46945)">
    <path
       style="fill:#00aa5a"
       d="m 502.45125,696.13541 c 0.11893,-3.3749 0.2876,-4.0994 0.98541,-4.2328 0.72012,-0.1375 0.86301,0.3549 0.98766,3.4037 0.13141,3.214 0.25018,3.5803 1.20768,3.7251 0.92193,0.1393 1.05549,-0.067 1.01303,-1.5651 -0.0611,-2.1582 1.09566,-3.4323 2.74129,-3.0193 0.65786,0.1651 1.43941,0.805 1.73677,1.422 0.50085,1.0392 0.54313,0.99 0.57409,-0.6695 0.0368,-1.9724 1.51491,-3.8973 1.51491,-1.9729 0,0.6026 0.31498,1.0482 0.74075,1.0482 0.40741,0 0.74074,0.2222 0.74074,0.4938 0,0.2717 -0.22221,0.4939 -0.49382,0.4939 -0.27161,0 -0.49383,0.902 -0.49383,2.0044 0,1.2106 0.19559,1.8836 0.49383,1.6993 0.27161,-0.1679 0.49382,-1.0427 0.49382,-1.944 0,-1.9789 0.94497,-2.8734 2.80967,-2.6597 1.92553,0.2208 2.13249,1.9418 0.37222,3.0952 -0.92778,0.6079 -1.15816,1.0137 -0.78645,1.3854 0.3717,0.3717 0.76549,0.3267 1.34433,-0.1537 0.71893,-0.5967 0.79614,-0.561 0.63399,0.2925 -0.21867,1.1511 -2.57651,1.6019 -3.66287,0.7003 -0.54759,-0.4545 -0.71089,-0.4552 -0.71089,0 0,0.3491 -0.55044,0.5237 -1.35803,0.4308 -0.99938,-0.1149 -1.4021,-0.4679 -1.52491,-1.3366 l -0.16687,-1.1803 -0.58764,1.1803 c -0.53974,1.0841 -0.92031,1.1907 -4.668,1.3072 l -4.08036,0.1267 0.14348,-4.0719 z m 6.80264,0.9789 c -0.005,-1.2589 -0.16726,-1.8471 -0.40662,-1.47 -0.37557,0.5918 -0.18929,3.5688 0.22332,3.5688 0.10497,0 0.18746,-0.9444 0.1833,-2.0988 z m 7.71338,-1.7181 c -0.1641,-0.1641 -0.28081,0.1276 -0.25938,0.6482 0.0237,0.5752 0.14072,0.6922 0.29836,0.2983 0.14266,-0.3565 0.12511,-0.7824 -0.039,-0.9465 z m 2.66463,2.4342 c 0,-2.62 0.61076,-3.5556 2.321,-3.5556 0.80659,0 1.13581,0.2863 1.13581,0.9877 0,0.5432 -0.27778,0.9321 -0.61729,0.8642 -0.39869,-0.08 -0.67106,0.6198 -0.76914,1.9753 -0.12276,1.6967 -0.33561,2.0987 -1.11112,2.0987 -0.81657,0 -0.95926,-0.3525 -0.95926,-2.3703 z m 3.95064,-0.3046 c 0,-1.6771 0.23026,-2.7683 0.61729,-2.9253 0.47534,-0.1929 0.45879,-0.3613 -0.072,-0.7321 -0.82022,-0.5731 -0.33427,-2.2388 0.56605,-1.9403 0.40908,0.1357 0.66759,1.5641 0.76706,4.2386 0.1409,3.7888 0.0883,4.034 -0.86421,4.034 -0.89826,0 -1.01423,-0.3058 -1.01423,-2.6749 z m 3.08401,2.1047 c -0.84269,-0.8427 -0.77597,-4.1134 0.0987,-4.8393 0.94195,-0.7818 2.75693,-0.4807 3.41301,0.5662 0.41998,0.67 0.25181,1.0495 -0.84899,1.9154 -0.94087,0.74 -1.21285,1.2396 -0.86458,1.5879 0.34827,0.3482 0.76564,0.2943 1.32675,-0.1713 0.71893,-0.5967 0.79617,-0.561 0.63417,0.2925 -0.21947,1.1564 -2.8051,1.6025 -3.75907,0.6486 z m 1.65882,-4.2343 c -0.1641,-0.1641 -0.28081,0.1276 -0.25937,0.6482 0.0237,0.5752 0.14071,0.6922 0.29836,0.2983 0.14265,-0.3565 0.12511,-0.7824 -0.039,-0.9465 z m 5.13378,0.3601 c 0,-3.9054 0.10481,-4.4439 0.8642,-4.4396 0.47532,0 1.35437,0.836 1.95347,1.8518 l 1.08926,1.847 0.0219,-1.893 c 0.0354,-3.0723 1.21806,-1.9414 1.50335,1.4377 0.14744,1.7462 0.40787,2.6758 0.64643,2.3072 0.21974,-0.3395 0.83085,-0.6173 1.35804,-0.6173 0.52718,0 0.95851,-0.2222 0.95851,-0.4938 0,-0.6906 -1.15686,-0.6163 -1.92449,0.1234 -0.51803,0.4993 -0.60696,0.4284 -0.46503,-0.3703 0.13232,-0.7447 0.63009,-1.0254 2.02326,-1.1409 1.0691,-0.089 1.84775,0.068 1.84775,0.3703 0,0.288 0.23534,0.5237 0.52298,0.5237 0.28763,0 0.40801,-0.186 0.26751,-0.4134 -0.29911,-0.484 1.04615,-2.5496 1.66044,-2.5496 0.23077,0 0.30336,0.4444 0.16132,0.9876 -0.18651,0.7132 -0.0152,0.9877 0.61659,0.9877 0.78024,0 0.79644,0.093 0.14975,0.8642 -0.39883,0.4753 -0.68327,1.142 -0.6321,1.4815 0.0512,0.3395 0.12082,1.0748 0.15477,1.6341 0.0996,1.6408 1.04939,0.5602 1.04939,-1.1941 0,-1.5192 0.71848,-2.7857 1.58026,-2.7857 0.21728,0 0.39506,1.3455 0.39506,2.99 l 0,2.9901 -2.34569,-0.1506 -2.3457,-0.1504 -0.2962,-2.2223 -0.2962,-2.2222 -0.0742,2.3456 -0.0742,2.3457 -1.87656,0 c -1.03211,0 -2.14323,-0.2666 -2.46916,-0.5926 -0.4609,-0.4608 -0.59259,-0.4608 -0.59259,0 0,1.314 -1.32571,0.4594 -2.71967,-1.7531 l -1.47789,-2.3456 -0.15051,2.3456 c -0.26396,4.1136 -1.08407,2.5259 -1.08407,-2.0987 z m 8.39512,2.4691 c 0,-0.2716 -0.22222,-0.4938 -0.49383,-0.4938 -0.27161,0 -0.49382,0.2222 -0.49382,0.4938 0,0.2716 0.22221,0.4939 0.49382,0.4939 0.27161,0 0.49383,-0.2223 0.49383,-0.4939 z m 8.4125,1.0202 c -1.08464,-2.0267 -0.23111,-4.9708 1.4411,-4.9708 1.45555,0 2.49217,0.5355 2.49217,1.2874 0,0.4881 0.28691,0.401 0.98766,-0.2997 0.54322,-0.5432 1.63056,-0.9877 2.41632,-0.9877 1.47675,0 2.01599,0.6949 2.04318,2.633 0.0135,0.9647 0.0649,0.9852 0.51837,0.2065 0.27684,-0.4753 0.93675,-0.8642 1.46647,-0.8642 0.52972,0 0.96312,-0.2222 0.96312,-0.4938 0,-0.6906 -1.15686,-0.6163 -1.92448,0.1234 -0.51804,0.4993 -0.60699,0.4284 -0.4651,-0.3703 0.12736,-0.717 0.63376,-1.0316 1.84801,-1.1478 2.05533,-0.1967 2.49943,0.4216 2.50933,3.4934 l 0.008,2.3457 -1.95077,0 c -1.33693,0 -2.10918,-0.2718 -2.45414,-0.8641 -0.47939,-0.8231 -0.50407,-0.8231 -0.51837,0 -0.009,0.53 -0.39699,0.8641 -1.00268,0.8641 -0.84134,0 -0.98766,-0.3292 -0.98766,-2.2221 0,-1.2223 -0.22223,-2.2223 -0.49383,-2.2223 -0.27161,0 -0.49384,1 -0.49384,2.2223 0,1.8929 -0.14631,2.2221 -0.98766,2.2221 -0.68347,0 -0.99967,-0.3421 -1.02665,-1.1111 -0.026,-0.7424 -0.13254,-0.8653 -0.32095,-0.3703 -0.64801,1.7023 -3.25709,2.0399 -4.06716,0.5263 z m 2.45178,-2.0078 c 0,-0.7827 -0.22223,-1.5606 -0.49383,-1.7284 -0.29869,-0.1846 -0.49383,0.4984 -0.49383,1.7284 0,1.23 0.19514,1.913 0.49383,1.7284 0.2716,-0.1679 0.49383,-0.9456 0.49383,-1.7284 z m 9.87661,0.9876 c 0,-0.2716 -0.22222,-0.4938 -0.49383,-0.4938 -0.27161,0 -0.49383,0.2222 -0.49383,0.4938 0,0.2716 0.22222,0.4939 0.49383,0.4939 0.27161,0 0.49383,-0.2223 0.49383,-0.4939 z m 2.46916,-1.3827 c 0,-3.0962 0.5033,-4.5432 1.58025,-4.5432 0.21729,0 0.39507,0.7778 0.39507,1.7284 0,1.7284 0,1.7284 0.98766,0.7407 1.189,-1.189 2.13425,-1.252 3.17462,-0.2116 1.06573,1.0658 0.97844,1.5377 -0.45855,2.4793 -0.67902,0.4449 -1.23458,1.1167 -1.23458,1.4928 0,0.9031 0.46467,0.8634 1.56607,-0.1333 0.78496,-0.7104 0.90308,-0.7183 0.90308,-0.061 0,2.1345 -3.59442,2.3336 -4.43455,0.2457 -0.41986,-1.0434 -0.44266,-1.0308 -0.47245,0.2617 -0.0234,1.0183 -0.27832,1.358 -1.01897,1.358 -0.89083,0 -0.98765,-0.3292 -0.98765,-3.358 z m 4.9383,-1.1156 c 0,-0.2555 -0.22222,-0.4646 -0.49383,-0.4646 -0.27161,0 -0.49383,0.3464 -0.49383,0.7698 0,0.4235 0.22222,0.6326 0.49383,0.4647 0.27161,-0.1678 0.49383,-0.5142 0.49383,-0.7699 z m -22.71621,-2.6341 c 0,-0.7448 1.19956,-1.4047 1.68013,-0.9241 0.65033,0.6503 0.23721,1.6121 -0.69247,1.6121 -0.54321,0 -0.98766,-0.3096 -0.98766,-0.688 z m -14.32109,-7.9 c -5.15343,-1.1458 -9.36414,-3.9099 -12.38714,-8.1315 -9.34725,-13.05332 -0.73407,-31.29832 15.35824,-32.53292 10.56154,-0.8103 20.07073,6.7933 21.83863,17.4622 1.35276,8.1636 -3.05478,17.07912 -10.42703,21.09162 -3.12081,1.6986 -3.31179,1.0929 -0.26448,-0.8386 2.55814,-1.6216 5.59185,-5.4801 6.83448,-8.69272 1.77824,-4.5974 0.82617,-11.3625 -2.25337,-16.0118 -3.7003,-5.5864 -11.18274,-8.2073 -16.51591,-5.7851 -4.24623,1.9285 -5.47787,5.9667 -2.75075,9.0188 1.24522,1.3937 1.8202,1.6199 4.97346,1.9568 7.11476,0.7603 11.07311,4.9545 11.06312,11.7224 -0.007,5.01532 -3.24317,9.19972 -8.27488,10.70092 -2.8388,0.8469 -3.54696,0.8509 -7.19437,0.04 z m 7.87853,-4.792 c 2.41989,-1.36 3.47958,-3.2523 3.47958,-6.21342 0,-4.5836 -4.4563,-7.9661 -8.78601,-6.6688 -6.11325,1.8315 -7.08991,10.32952 -1.5035,13.08212 2.24424,1.1059 4.61023,1.0364 6.80993,-0.1999 z"
       id="path3170"
       inkscape:connector-curvature="0" />
  </g>
</svg>
