<?xml version="1.0" encoding="UTF-8" standalone="no"?>
<!-- Created with Inkscape (http://www.inkscape.org/) -->

<svg
   xmlns:dc="http://purl.org/dc/elements/1.1/"
   xmlns:cc="http://creativecommons.org/ns#"
   xmlns:rdf="http://www.w3.org/1999/02/22-rdf-syntax-ns#"
   xmlns:svg="http://www.w3.org/2000/svg"
   xmlns="http://www.w3.org/2000/svg"
   xmlns:sodipodi="http://sodipodi.sourceforge.net/DTD/sodipodi-0.dtd"
   xmlns:inkscape="http://www.inkscape.org/namespaces/inkscape"
   width="81.477341"
   height="56.958523"
   id="svg3081"
   version="1.1"
   inkscape:version="0.48.4 r9939"
   sodipodi:docname="manege-mons.svg">
  <defs
     id="defs3083" />
  <sodipodi:namedview
     id="base"
     pagecolor="#ffffff"
     bordercolor="#666666"
     borderopacity="1.0"
     inkscape:pageopacity="0.0"
     inkscape:pageshadow="2"
     inkscape:zoom="0.37734375"
     inkscape:cx="40.73867"
     inkscape:cy="28.479257"
     inkscape:document-units="px"
     inkscape:current-layer="layer1"
     showgrid="false"
     inkscape:window-width="476"
     inkscape:window-height="456"
     inkscape:window-x="0"
     inkscape:window-y="21"
     inkscape:window-maximized="0"
     fit-margin-top="0"
     fit-margin-left="0"
     fit-margin-right="0"
     fit-margin-bottom="0" />
  <metadata
     id="metadata3086">
    <rdf:RDF>
      <cc:Work
         rdf:about="">
        <dc:format>image/svg+xml</dc:format>
        <dc:type
           rdf:resource="http://purl.org/dc/dcmitype/StillImage" />
        <dc:title />
      </cc:Work>
    </rdf:RDF>
  </metadata>
  <g
     inkscape:label="Layer 1"
     inkscape:groupmode="layer"
     id="layer1"
     transform="translate(-334.26133,-503.88292)">
    <path
       style="fill:#00aa5a"
       d="m 350.56527,560.70484 c -2.31482,-0.7376 -2.58211,-3.8986 -0.42348,-5.0081 0.55568,-0.2856 1.43128,-0.3519 2.09564,-0.1588 1.5059,0.4378 2.28143,2.1929 1.64356,3.7195 -0.19821,0.4744 -0.84831,1.1165 -1.34962,1.333 -0.56985,0.2461 -1.40114,0.2945 -1.9661,0.1144 z m 1.82281,-0.9133 c 0.53801,-0.3561 0.79266,-0.8176 0.83164,-1.5073 0.0232,-0.411 -0.009,-0.6961 -0.10872,-0.9568 -0.14864,-0.3892 -0.66882,-0.9256 -1.03115,-1.0634 -0.33821,-0.1286 -1.19572,-0.096 -1.49762,0.056 -1.41206,0.7135 -1.43225,2.8381 -0.0337,3.5485 0.57918,0.2942 1.32593,0.2629 1.83957,-0.077 z m 5.15683,-0.6855 c -0.9041,-0.9545 -1.6724,-1.7358 -1.70733,-1.7363 -0.0349,0 -0.0635,0.7614 -0.0635,1.6931 l 0,1.6939 -0.38113,0 -0.38114,0 0,-2.6679 c 0,-1.4674 0.0286,-2.6671 0.0635,-2.6661 0.0349,0 0.80673,0.7866 1.71509,1.7458 l 1.65157,1.7438 0.0229,-1.7034 0.0229,-1.7034 0.37938,0 0.37938,0 0,2.668 c 0,1.4673 -0.013,2.6679 -0.0289,2.6679 -0.0159,0 -0.76865,-0.781 -1.67274,-1.7354 z m 3.62174,1.603 c -0.38095,-0.1218 -1.15781,-0.7616 -1.15781,-0.9536 0,-0.041 0.15208,-0.1426 0.33795,-0.2265 l 0.33795,-0.1523 0.18445,0.2344 c 0.36628,0.4657 1.15378,0.6079 1.65935,0.2996 0.23698,-0.1444 0.27526,-0.2151 0.27526,-0.5078 0,-0.4397 -0.17788,-0.6153 -1.00402,-0.991 -1.13791,-0.5175 -1.45226,-0.8662 -1.45202,-1.6105 1.7e-4,-0.5755 0.21794,-0.9598 0.6742,-1.1899 0.71162,-0.3588 1.76113,-0.1855 2.1918,0.362 l 0.1849,0.2351 -0.30037,0.2041 -0.30037,0.2041 -0.25364,-0.2134 c -0.50712,-0.4268 -1.27657,-0.3293 -1.40384,0.1778 -0.10212,0.4068 0.1152,0.6278 1.08933,1.1074 1.09228,0.5377 1.34609,0.811 1.40421,1.5119 0.053,0.6394 -0.15108,1.0751 -0.6371,1.3599 -0.4666,0.2735 -1.24278,0.3365 -1.83023,0.1487 z m 18.32167,0.053 c -0.60649,-0.1845 -1.00833,-0.5265 -1.2235,-1.0415 -0.10544,-0.2524 -0.13108,-0.6953 -0.13108,-2.2644 l 0,-1.9508 0.42348,0 0.42348,0 0,1.9099 c 0,2.1424 0.0406,2.3291 0.55342,2.5433 0.62064,0.2594 1.36106,0.076 1.62187,-0.4023 0.13289,-0.2435 0.15751,-0.5385 0.18084,-2.1664 l 0.027,-1.8845 0.37531,0 0.37531,0 -0.002,1.9692 c -0.002,2.2284 -0.0476,2.4382 -0.63265,2.9205 -0.47515,0.3917 -1.36904,0.5564 -1.99161,0.367 z m 13.95455,-0.051 c -0.22107,-0.071 -0.53394,-0.261 -0.69527,-0.4224 -0.476,-0.476 -0.55436,-0.8969 -0.55436,-2.9779 l 0,-1.8056 0.42347,0 0.42348,0 0,1.8237 c 0,2.0427 0.0501,2.2893 0.52426,2.5783 0.33986,0.2073 0.90694,0.2238 1.29853,0.038 0.50008,-0.2373 0.5487,-0.4648 0.5487,-2.5683 l 0,-1.8717 0.42347,0 0.42348,0 0,1.893 c 0,1.1901 -0.0358,2 -0.0964,2.181 -0.14571,0.4352 -0.46753,0.8202 -0.84769,1.0141 -0.45491,0.2321 -1.34178,0.2879 -1.87168,0.1178 z m 5.75763,0.038 c -1.195,-0.2815 -2.04169,-1.3471 -2.0466,-2.5757 -0.003,-0.7628 0.20382,-1.3599 0.64455,-1.8606 0.50486,-0.5736 1.05767,-0.8277 1.90162,-0.8743 0.81552,-0.045 1.35414,0.1021 1.83947,0.5021 l 0.32084,0.2645 -0.26886,0.2774 -0.26887,0.2774 -0.37918,-0.2673 c -0.35208,-0.2482 -0.4296,-0.2673 -1.08488,-0.2673 -0.6478,0 -0.73547,0.021 -1.06833,0.2549 -0.51117,0.3593 -0.77419,0.903 -0.77419,1.6005 0,1.2906 0.90074,2.0957 2.21157,1.9768 0.27082,-0.024 0.61292,-0.107 0.76022,-0.1831 0.2588,-0.1339 0.26782,-0.157 0.26782,-0.6869 l 0,-0.5483 -0.71991,0 -0.71991,0 0,-0.3388 0,-0.3388 1.10104,0 1.10105,0 0,1.0998 0,1.0999 -0.31761,0.2092 c -0.60785,0.4004 -1.70317,0.5663 -2.49984,0.3786 z m -56.63898,-2.6604 c 0,-1.4674 0.0154,-2.668 0.0342,-2.668 0.0188,0 0.59416,0.648 1.27862,1.4399 0.68446,0.7919 1.2586,1.4398 1.27588,1.4398 0.0173,0 0.58873,-0.6479 1.26991,-1.4398 0.6812,-0.7919 1.25413,-1.4399 1.27319,-1.4399 0.0191,0 0.0347,1.2006 0.0347,2.668 l 0,2.6679 -0.37938,0 -0.37937,0 -0.0229,-1.6982 -0.0229,-1.6982 -0.87816,1.0617 c -0.48299,0.584 -0.90535,1.045 -0.93858,1.0245 -0.0332,-0.021 -0.43844,-0.4943 -0.90046,-1.0528 l -0.84003,-1.0155 -0.0229,1.6892 -0.0229,1.6893 -0.37937,0 -0.37938,0 0,-2.6679 z m 24.39238,-0.061 c 0,-2.3003 0.018,-2.7089 0.11479,-2.6043 0.0631,0.068 0.64218,0.7338 1.28677,1.4791 0.64459,0.7453 1.20014,1.3551 1.23455,1.3551 0.0344,0 0.58334,-0.6098 1.21983,-1.3551 0.63649,-0.7453 1.21079,-1.4109 1.27622,-1.4791 0.10227,-0.1066 0.11897,0.259 0.11897,2.6043 l 0,2.7285 -0.42168,0 -0.42169,0 -0.023,-1.6689 -0.023,-1.6688 -0.84696,1.0284 c -0.46583,0.5656 -0.87129,1.0212 -0.90102,1.0124 -0.0297,-0.01 -0.44899,-0.4904 -0.93166,-1.0703 l -0.87758,-1.0544 -0.0229,1.7108 -0.0229,1.7108 -0.37938,0 -0.37937,0 0,-2.7285 z m 6.04701,2.5936 c 0.17426,-0.4541 2.20432,-5.1697 2.24715,-5.2199 0.0387,-0.045 1.74417,3.7943 2.31125,5.2037 0.0537,0.1335 0.009,0.1511 -0.38259,0.1511 l -0.44339,0 -0.20185,-0.5082 -0.20185,-0.5082 -1.03558,0 c -1.14882,0 -1.11738,-0.014 -1.35236,0.6141 l -0.15045,0.4023 -0.42103,0 c -0.35025,0 -0.41234,-0.023 -0.3693,-0.1349 z m 2.99226,-1.6649 c -0.31513,-0.808 -0.69396,-1.6725 -0.73246,-1.6716 -0.0269,0 -0.20143,0.3703 -0.38776,0.8214 -0.18633,0.4511 -0.35149,0.8507 -0.36701,0.8881 -0.0155,0.037 0.32204,0.068 0.75015,0.068 0.58826,0 0.76829,-0.026 0.73708,-0.1059 z m 7.30701,-0.8184 0,-2.633 1.18846,0 c 1.27485,0 1.5867,0.071 1.91654,0.4338 0.54017,0.5947 0.35696,1.7502 -0.31004,1.9552 -0.0823,0.025 -0.0117,0.094 0.20057,0.1946 0.49831,0.2365 0.66122,0.5603 0.62711,1.2462 -0.0319,0.6411 -0.19062,0.929 -0.66714,1.2096 -0.24774,0.146 -0.47237,0.1734 -1.62154,0.198 l -1.33396,0.029 0,-2.633 z m 2.60753,1.6584 c 0.32926,-0.3293 0.3285,-0.918 -0.001,-1.2019 -0.25808,-0.222 -0.74198,-0.3201 -1.3779,-0.2793 l -0.42347,0.027 -0.0247,0.7556 c -0.0136,0.4156 -0.003,0.8108 0.0225,0.8784 0.0379,0.099 0.1975,0.1157 0.81126,0.086 0.69358,-0.033 0.7853,-0.058 0.99388,-0.2663 z m -0.17949,-2.3773 c 0.11998,-0.1394 0.19647,-0.3358 0.19484,-0.5001 -0.005,-0.5381 -0.33379,-0.7364 -1.21983,-0.7364 l -0.64079,0 0,0.7058 c 0,0.3882 0.0286,0.7352 0.0635,0.771 0.0349,0.036 0.3653,0.048 0.73412,0.027 0.6006,-0.034 0.69122,-0.062 0.86814,-0.2676 z m 2.14553,0.7115 0,-2.6256 1.69392,0 1.69391,0 0,0.3388 0,0.3388 -1.27043,0 -1.27044,0 0,0.7623 0,0.7622 1.10104,0 1.10105,0 0,0.3812 0,0.3811 -1.10105,0 -1.10104,0 0,0.7622 0,0.7623 1.31278,0 1.31279,0 0,0.3811 0,0.3812 -1.73627,0 -1.73626,0 0,-2.6256 z m 15.16054,0 0,-2.6256 1.69392,0 1.69392,0 0,0.3388 0,0.3388 -1.27044,0 -1.27044,0 0,0.7623 0,0.7622 1.10105,0 1.10104,0 0,0.3812 0,0.3811 -1.10104,0 -1.10105,0 0,0.7622 0,0.7623 1.31279,0 1.31278,0 0,0.3811 0,0.3812 -1.73626,0 -1.73627,0 0,-2.6256 z m -21.08924,-8.7033 -3.43018,-3.6065 -0.0221,3.5293 -0.0221,3.5294 -0.84603,0 -0.84602,0 0,-5.5476 c 0,-4.4619 0.0213,-5.5476 0.10882,-5.5476 0.0598,0 1.65107,1.6194 3.53605,3.5986 1.88497,1.9792 3.45581,3.599 3.49075,3.5995 0.0349,0 0.0635,-1.5806 0.0635,-3.5138 l 0,-3.5149 0.80461,0 0.80461,0 0,5.5476 c 0,4.3856 -0.0222,5.546 -0.10587,5.5401 -0.0582,0 -1.64945,-1.6305 -3.53605,-3.6141 z m 19.43768,3.5685 c -0.0932,-0.018 -0.37902,-0.074 -0.63522,-0.1239 -0.2562,-0.05 -0.8279,-0.2638 -1.27044,-0.4756 -1.45081,-0.6943 -2.55804,-2.0539 -2.91718,-3.5822 -0.16416,-0.6987 -0.16652,-2.0869 -0.005,-2.7732 0.62453,-2.6488 3.07704,-4.41054 5.8845,-4.2271 0.97801,0.064 1.65825,0.2366 2.32429,0.5903 0.48011,0.2549 1.40406,1.0173 1.40406,1.1586 0,0.037 -0.26641,0.3037 -0.59201,0.5923 l -0.59201,0.5249 -0.40317,-0.3586 c -1.3961,-1.2417 -3.70839,-1.2343 -5.06518,0.016 -0.85088,0.7844 -1.24581,1.7581 -1.24869,3.0789 -0.001,0.6602 0.0398,0.9674 0.18714,1.3929 0.54162,1.5648 1.77246,2.4743 3.52205,2.6027 0.85865,0.063 1.73655,-0.082 2.40501,-0.3987 l 0.51642,-0.2442 0,-1.1046 0,-1.1047 -1.48218,0 -1.48218,0 0,-0.7622 0,-0.7623 2.28679,0 2.28679,0 0,2.3112 0,2.3112 -0.55344,0.3638 c -0.7346,0.483 -1.39776,0.7433 -2.29015,0.8989 -0.67347,0.1174 -1.86648,0.1568 -2.28051,0.075 z m -67.1214,-5.5792 0,-5.4629 0.88931,0 0.8893,0 0,4.7006 0,4.7006 2.37148,0 2.37148,0 0,0.7623 0,0.7623 -3.26078,0 -3.26079,0 0,-5.4629 z m 8.21549,0 0,-5.4629 3.51487,0 3.51488,0 0,0.7623 0,0.7622 -2.62557,0 -2.62557,0 0,1.5669 0,1.5669 2.32913,0 2.32914,0 0,0.7622 0,0.7623 -2.32914,0 -2.32913,0 0,1.6092 0,1.6092 2.75261,0 2.75262,0 0,0.7623 0,0.7623 -3.64192,0 -3.64192,0 0,-5.4629 z m 11.01045,-0.1271 c 0,-3.0744 0.0325,-5.58994 0.0722,-5.58994 0.0397,0 1.26126,1.37214 2.71457,3.04914 1.45331,1.6769 2.65888,3.049 2.67905,3.049 0.0202,0 1.20473,-1.3625 2.63236,-3.0279 1.42764,-1.6653 2.62883,-3.0405 2.6693,-3.0561 0.0412,-0.016 0.0736,2.4355 0.0736,5.5688 l 0,5.597 -0.84602,0 -0.84602,0 -0.0221,-3.4666 -0.0221,-3.4666 -1.80282,2.1538 c -0.99154,1.1846 -1.83532,2.1538 -1.87505,2.1538 -0.0397,0 -0.88638,-0.9756 -1.88145,-2.1679 l -1.80921,-2.1679 -0.0221,3.4807 -0.0221,3.4807 -0.84602,0 -0.84602,0 0,-5.59 z m 14.69402,0.025 c 1.3143,-3.0606 2.42387,-5.5761 2.46572,-5.59 0.0554,-0.019 4.39512,9.8854 4.82274,11.0063 0.0517,0.1356 -0.0228,0.1483 -0.87527,0.1483 l -0.9318,0 -0.41831,-0.9952 -0.41831,-0.9952 -2.19499,-0.022 -2.195,-0.022 -0.42031,1.0174 -0.42031,1.0175 -0.9019,0 -0.9019,0 2.38964,-5.5646 z m 3.94,1.9438 c 0.001,-0.077 -1.46754,-3.6659 -1.48942,-3.6394 -0.008,0.01 -0.31113,0.7238 -0.67251,1.5855 -0.36137,0.8618 -0.70953,1.6908 -0.77369,1.8422 l -0.11665,0.2752 1.52566,0 c 0.83911,0 1.52609,-0.028 1.52661,-0.063 z m 15.75246,-1.8421 0,-5.4629 0.88931,0 0.8893,0 0,2.3291 0,2.3292 2.32914,0 2.32913,0 0,0.7622 0,0.7623 -2.32913,0 -2.32914,0 0,1.6092 0,1.6092 2.75262,0 2.75261,0 0,0.7623 0,0.7623 -3.64192,0 -3.64192,0 0,-5.4629 z m 20.66577,0 0,-5.4629 3.51487,0 3.51489,0 0,0.7623 0,0.7622 -2.62558,0 -2.62557,0 0,1.5669 0,1.5669 2.32913,0 2.32914,0 0,0.7622 0,0.7623 -2.32914,0 -2.32913,0 0,1.6092 0,1.6092 2.71027,0 2.71027,0 0,0.7623 0,0.7623 -3.59958,0 -3.59957,0 0,-5.4629 z m -17.44733,-4.7006 0,-0.7623 1.90566,0 1.90565,0 0,0.7623 0,0.7622 -1.90565,0 -1.90566,0 0,-0.7622 z m -24.64647,-21.08726 c 0,-11.9805 0.028,-17.7809 0.0857,-17.7452 0.0471,0.029 1.93952,2.1943 4.20531,4.8114 2.2658,2.6172 4.16303,4.8064 4.21607,4.8649 0.0747,0.082 1.0276,-0.9805 4.23081,-4.7188 2.27391,-2.6538 4.18754,-4.8693 4.25253,-4.9232 0.101,-0.084 0.11815,2.4852 0.11815,17.7055 0,9.7919 -0.0314,17.79082 -0.0697,17.77532 -0.0384,-0.015 -1.93034,-2.2007 -4.2044,-4.85592 -2.27407,-2.6552 -4.1768,-4.8276 -4.22831,-4.8276 -0.0515,0 -1.97661,2.1724 -4.27802,4.8276 -2.30141,2.65522 -4.21672,4.84042 -4.25623,4.85592 -0.0395,0.016 -0.0718,-7.98092 -0.0718,-17.76992 z m 5.97105,6.5655 c 1.3509,-1.603 2.50009,-2.9171 2.55376,-2.9201 0.0537,0 1.27329,1.3828 2.71027,3.0796 1.43697,1.6969 2.64127,3.088 2.6762,3.0914 0.0349,0 0.0635,-4.4171 0.0635,-9.8235 0,-6.1847 -0.0298,-9.8112 -0.0804,-9.78 -0.0442,0.027 -1.2471,1.4207 -2.67302,3.0964 -1.42592,1.6757 -2.63793,3.0447 -2.69335,3.0422 -0.0554,0 -0.9202,-0.9781 -1.92173,-2.168 -1.00153,-1.19 -2.19256,-2.6019 -2.64674,-3.1376 l -0.82579,-0.9739 3.7e-4,9.9388 3.7e-4,9.9389 0.19014,-0.2348 c 0.10458,-0.1291 1.29542,-1.5463 2.64632,-3.1494 z"
       id="path3209"
       inkscape:connector-curvature="0" />
  </g>
</svg>
