<?xml version="1.0" encoding="UTF-8" standalone="no"?>
<!-- Created with Inkscape (http://www.inkscape.org/) -->

<svg
   xmlns:dc="http://purl.org/dc/elements/1.1/"
   xmlns:cc="http://creativecommons.org/ns#"
   xmlns:rdf="http://www.w3.org/1999/02/22-rdf-syntax-ns#"
   xmlns:svg="http://www.w3.org/2000/svg"
   xmlns="http://www.w3.org/2000/svg"
   xmlns:sodipodi="http://sodipodi.sourceforge.net/DTD/sodipodi-0.dtd"
   xmlns:inkscape="http://www.inkscape.org/namespaces/inkscape"
   width="100"
   height="69.907211"
   id="svg3081"
   version="1.1"
   inkscape:version="0.48.3.1 r9886"
   sodipodi:docname="manege-mons.svg">
  <sodipodi:namedview
     id="base"
     pagecolor="#ffffff"
     bordercolor="#666666"
     borderopacity="1.0"
     inkscape:pageopacity="0.0"
     inkscape:pageshadow="2"
     inkscape:zoom="0.37734375"
     inkscape:cx="-473.38141"
     inkscape:cy="28.479254"
     inkscape:document-units="px"
     inkscape:current-layer="layer1"
     showgrid="false"
     inkscape:window-width="1375"
     inkscape:window-height="876"
     inkscape:window-x="65"
     inkscape:window-y="24"
     inkscape:window-maximized="1"
     fit-margin-top="0"
     fit-margin-left="0"
     fit-margin-right="0"
     fit-margin-bottom="0" />
  <defs
     id="defs3083" />
  <metadata
     id="metadata3086">
    <rdf:RDF>
      <cc:Work
         rdf:about="">
        <dc:format>image/svg+xml</dc:format>
        <dc:type
           rdf:resource="http://purl.org/dc/dcmitype/StillImage" />
        <dc:title></dc:title>
      </cc:Work>
    </rdf:RDF>
  </metadata>
  <g
     transform="translate(-334.26133,-490.93423)"
     id="layer1"
     inkscape:groupmode="layer"
     inkscape:label="Layer 1">
    <path
       inkscape:connector-curvature="0"
       id="path3209"
       d="m 354.27173,560.67379 c -2.84106,-0.90529 -3.16912,-4.78489 -0.51975,-6.14662 0.682,-0.35053 1.75666,-0.4319 2.57205,-0.1949 1.84824,0.53733 2.80008,2.69142 2.0172,4.56507 -0.24327,0.58225 -1.04116,1.37032 -1.65644,1.63604 -0.6994,0.30205 -1.71967,0.36145 -2.41306,0.14041 z m 2.2372,-1.12093 c 0.66032,-0.43705 0.97286,-1.00347 1.0207,-1.84996 0.0285,-0.50444 -0.0111,-0.85435 -0.13344,-1.17432 -0.18243,-0.47767 -0.82086,-1.13602 -1.26556,-1.30514 -0.4151,-0.15784 -1.46755,-0.11783 -1.83809,0.0687 -1.73307,0.8757 -1.75785,3.4833 -0.0414,4.3552 0.71085,0.36108 1.62736,0.32266 2.25777,-0.0945 z m 6.32916,-0.84134 c -1.10964,-1.17149 -2.0526,-2.13041 -2.09547,-2.13102 -0.0428,0 -0.0779,0.93449 -0.0779,2.078 l 0,2.07898 -0.46777,0 -0.46779,0 0,-3.2744 c 0,-1.80099 0.0351,-3.27343 0.0779,-3.2722 0.0428,0 0.99013,0.96542 2.10499,2.14268 l 2.02703,2.14023 0.0281,-2.09064 0.0281,-2.09065 0.46563,0 0.46562,0 0,3.27453 c 0,1.80087 -0.0159,3.27441 -0.0355,3.27441 -0.0195,0 -0.94339,-0.95855 -2.05301,-2.12992 z m 4.44508,1.96742 c -0.46755,-0.14949 -1.42102,-0.93474 -1.42102,-1.17039 0,-0.0503 0.18666,-0.17501 0.41478,-0.27799 l 0.41478,-0.18692 0.22638,0.28769 c 0.44955,0.57157 1.41608,0.74609 2.03658,0.36771 0.29085,-0.17723 0.33784,-0.264 0.33784,-0.62324 0,-0.53966 -0.21832,-0.75518 -1.23227,-1.21629 -1.3966,-0.63515 -1.78241,-1.06312 -1.78212,-1.97663 2.1e-4,-0.70633 0.26749,-1.17799 0.82747,-1.4604 0.8734,-0.44037 2.1615,-0.22767 2.69007,0.44429 l 0.22694,0.28855 -0.36866,0.2505 -0.36865,0.2505 -0.3113,-0.26192 c -0.62241,-0.52382 -1.56678,-0.40416 -1.72298,0.21822 -0.12534,0.49928 0.14138,0.77053 1.33697,1.35916 1.34059,0.65993 1.6521,0.99536 1.72343,1.8556 0.065,0.78476 -0.18542,1.31951 -0.78193,1.66906 -0.57268,0.33567 -1.52531,0.41299 -2.24631,0.1825 z m 22.48683,0.0651 c -0.74436,-0.22644 -1.23756,-0.64619 -1.50164,-1.27827 -0.12941,-0.30978 -0.16088,-0.85337 -0.16088,-2.77918 l 0,-2.39428 0.51975,0 0.51975,0 0,2.34408 c 0,2.62945 0.0498,2.85859 0.67923,3.12149 0.76174,0.31837 1.67048,0.0933 1.99058,-0.49376 0.1631,-0.29886 0.19332,-0.66092 0.22195,-2.6589 l 0.0331,-2.31291 0.46063,0 0.46063,0 -0.002,2.41687 c -0.002,2.73499 -0.0584,2.99248 -0.77647,3.58443 -0.58317,0.48074 -1.68027,0.68289 -2.44438,0.45043 z m 17.12691,-0.0626 c -0.27133,-0.0872 -0.65532,-0.32034 -0.85333,-0.51843 -0.58421,-0.58421 -0.68038,-1.1008 -0.68038,-3.65488 l 0,-2.21608 0.51974,0 0.51975,0 0,2.23829 c 0,2.50708 0.0615,2.80974 0.64344,3.16444 0.41712,0.25443 1.11312,0.27468 1.59373,0.0466 0.61377,-0.29125 0.67344,-0.57047 0.67344,-3.15217 l 0,-2.2972 0.51974,0 0.51975,0 0,2.32335 c 0,1.46065 -0.0439,2.45467 -0.11831,2.67681 -0.17884,0.53414 -0.57382,1.00667 -1.0404,1.24465 -0.55833,0.28486 -1.64682,0.35335 -2.29718,0.14458 z m 7.06654,0.0466 c -1.46666,-0.34549 -2.50583,-1.65334 -2.51186,-3.16124 -0.004,-0.93621 0.25015,-1.66906 0.79108,-2.28358 0.61963,-0.704 1.29811,-1.01587 2.33392,-1.07306 1.00092,-0.0552 1.66199,0.12531 2.25765,0.61624 l 0.39378,0.32463 -0.32998,0.34047 -0.33,0.34046 -0.46538,-0.32807 c -0.43212,-0.30462 -0.52726,-0.32806 -1.33151,-0.32806 -0.79507,0 -0.90267,0.0258 -1.3112,0.31284 -0.62738,0.44098 -0.95019,1.10829 -0.95019,1.96435 0,1.584 1.10551,2.57213 2.71434,2.4262 0.33239,-0.0295 0.75226,-0.13133 0.93304,-0.22473 0.31764,-0.16434 0.32871,-0.19269 0.32871,-0.84305 l 0,-0.67295 -0.88357,0 -0.88357,0 0,-0.41582 0,-0.41582 1.35134,0 1.35136,0 0,1.34982 0,1.34995 -0.38982,0.25676 c -0.74603,0.49142 -2.09036,0.69504 -3.06814,0.46466 z m -69.51501,-3.2652 c 0,-1.80099 0.0189,-3.27453 0.042,-3.27453 0.0231,0 0.72923,0.79531 1.56929,1.76724 0.84007,0.97193 1.54473,1.76712 1.56594,1.76712 0.0212,0 0.72257,-0.79519 1.5586,-1.76712 0.83606,-0.97193 1.53924,-1.76724 1.56263,-1.76724 0.0235,0 0.0426,1.47354 0.0426,3.27453 l 0,3.27441 -0.46562,0 -0.46562,0 -0.0281,-2.08426 -0.0281,-2.08426 -1.0778,1.30306 c -0.59279,0.71676 -1.11117,1.28257 -1.15195,1.2574 -0.0408,-0.0258 -0.53811,-0.60667 -1.10517,-1.29213 l -1.03099,-1.24636 -0.0281,2.07321 -0.0281,2.07334 -0.46561,0 -0.46563,0 0,-3.27441 z m 29.93763,-0.0749 c 0,-2.82323 0.0221,-3.32472 0.14088,-3.19634 0.0774,0.0835 0.78817,0.90061 1.5793,1.81535 0.79113,0.91473 1.47298,1.66316 1.51521,1.66316 0.0422,0 0.71595,-0.74843 1.49714,-1.66316 0.78119,-0.91474 1.48604,-1.73165 1.56635,-1.81535 0.12552,-0.13084 0.14602,0.31788 0.14602,3.19634 l 0,3.34879 -0.51755,0 -0.51755,0 -0.0282,-2.0483 -0.0282,-2.04818 -1.0395,1.26219 c -0.57173,0.69418 -1.06937,1.25336 -1.10586,1.24256 -0.0365,-0.0123 -0.55106,-0.60189 -1.14346,-1.31362 l -1.07708,-1.2941 -0.0281,2.09972 -0.0281,2.09973 -0.46563,0 -0.46561,0 0,-3.34879 z m 7.42171,3.18322 c 0.21387,-0.55733 2.70544,-6.34495 2.758,-6.40657 0.0475,-0.0552 2.14068,4.65688 2.83668,6.38669 0.0659,0.16385 0.011,0.18545 -0.46957,0.18545 l -0.54418,0 -0.24774,-0.62373 -0.24774,-0.62374 -1.271,0 c -1.40999,0 -1.3714,-0.0172 -1.6598,0.75371 l -0.18465,0.49376 -0.51675,0 c -0.42987,0 -0.50608,-0.0282 -0.45325,-0.16557 z m 3.6725,-2.04339 c -0.38677,-0.99169 -0.85172,-2.05272 -0.89897,-2.05161 -0.033,0 -0.24722,0.45448 -0.47591,1.00813 -0.22869,0.55365 -0.4314,1.04409 -0.45045,1.09 -0.019,0.0454 0.39525,0.0835 0.92069,0.0835 0.72199,0 0.94295,-0.0319 0.90464,-0.12998 z m 8.96815,-1.00445 0,-3.23157 1.45864,0 c 1.56467,0 1.94741,0.0871 2.35224,0.53241 0.66297,0.7299 0.43811,2.14809 -0.38053,2.39969 -0.101,0.0307 -0.0143,0.11537 0.24617,0.23884 0.61159,0.29026 0.81154,0.68768 0.76968,1.5295 -0.0392,0.78685 -0.23396,1.1402 -0.81881,1.48459 -0.30406,0.17919 -0.57976,0.21282 -1.99017,0.24301 l -1.63722,0.0356 0,-3.23157 z m 3.20032,2.03541 c 0.40411,-0.40416 0.40318,-1.12669 -0.001,-1.47513 -0.31675,-0.27247 -0.91066,-0.39287 -1.69115,-0.3428 l -0.51974,0.0331 -0.0303,0.92738 c -0.0167,0.51008 -0.004,0.99512 0.0276,1.07809 0.0465,0.1215 0.2424,0.142 0.99569,0.10555 0.85126,-0.0405 0.96383,-0.0712 1.21983,-0.32684 z m -0.2203,-2.91774 c 0.14726,-0.17109 0.24114,-0.41214 0.23914,-0.61379 -0.006,-0.66043 -0.40968,-0.90381 -1.49715,-0.90381 l -0.78646,0 0,0.86625 c 0,0.47645 0.0351,0.90234 0.0779,0.94628 0.0428,0.0442 0.44834,0.0589 0.90101,0.0331 0.73714,-0.0417 0.84836,-0.0761 1.0655,-0.32843 z m 2.63329,0.87325 0,-3.22249 2.079,0 2.079,0 0,0.41582 0,0.41582 -1.55925,0 -1.55925,0 0,0.9356 0,0.93547 1.35134,0 1.35136,0 0,0.46786 0,0.46774 -1.35136,0 -1.35134,0 0,0.93547 0,0.9356 1.61122,0 1.61123,0 0,0.46774 0,0.46786 -2.13098,0 -2.13097,0 0,-3.22249 z m 18.60706,0 0,-3.22249 2.07901,0 2.079,0 0,0.41582 0,0.41582 -1.55925,0 -1.55926,0 0,0.9356 0,0.93547 1.35136,0 1.35134,0 0,0.46786 0,0.46774 -1.35134,0 -1.35136,0 0,0.93547 0,0.9356 1.61124,0 1.61122,0 0,0.46774 0,0.46786 -2.13098,0 -2.13098,0 0,-3.22249 z m -25.88357,-10.68187 -4.20998,-4.42638 -0.0271,4.33163 -0.0271,4.33176 -1.03837,0 -1.03835,0 0,-6.80877 c 0,-5.47624 0.0261,-6.80876 0.13356,-6.80876 0.0734,0 2.02642,1.98755 4.33992,4.41669 2.31349,2.42914 4.24144,4.41718 4.28432,4.41779 0.0428,0 0.0779,-1.93993 0.0779,-4.31261 l 0,-4.31396 0.98752,0 0.98753,0 0,6.80876 c 0,5.38261 -0.0273,6.8068 -0.12994,6.79956 -0.0714,0 -2.02443,-2.00117 -4.33992,-4.43571 z m 23.85655,4.37975 c -0.11439,-0.0221 -0.46518,-0.0908 -0.77963,-0.15207 -0.31444,-0.0614 -1.01611,-0.32377 -1.55925,-0.58372 -1.78063,-0.85214 -3.13957,-2.52082 -3.58036,-4.39656 -0.20148,-0.85754 -0.20438,-2.56133 -0.006,-3.40365 0.76651,-3.25096 3.77656,-5.41321 7.22226,-5.18806 1.20034,0.0786 2.03523,0.29038 2.85268,0.72449 0.58926,0.31285 1.72325,1.24857 1.72325,1.42199 0,0.0454 -0.32697,0.37274 -0.72659,0.72695 l -0.7266,0.64423 -0.49482,-0.44012 c -1.71348,-1.52398 -4.55144,-1.5149 -6.21668,0.0196 -1.04431,0.96272 -1.52902,2.15777 -1.53256,3.77884 -10e-4,0.81028 0.0489,1.18732 0.22969,1.70955 0.66475,1.92054 2.1754,3.0368 4.32273,3.19439 1.05385,0.0773 2.13133,-0.10064 2.95176,-0.48934 l 0.63382,-0.29972 0,-1.35571 0,-1.35584 -1.81914,0 -1.81913,0 0,-0.93547 0,-0.9356 2.80666,0 2.80666,0 0,2.83662 0,2.83661 -0.67926,0.44651 c -0.9016,0.5928 -1.71552,0.91228 -2.81078,1.10325 -0.82657,0.14409 -2.2908,0.19245 -2.79895,0.092 z m -82.38045,-6.84755 0,-6.70481 1.09148,0 1.09147,0 0,5.76921 0,5.76921 2.9106,0 2.9106,0 0,0.9356 0,0.9356 -4.00207,0 -4.00208,0 0,-6.70481 z m 10.08316,0 0,-6.70481 4.31392,0 4.31394,0 0,0.9356 0,0.93547 -3.22246,0 -3.22245,0 0,1.92311 0,1.92312 2.85862,0 2.85864,0 0,0.93547 0,0.9356 -2.85864,0 -2.85862,0 0,1.97503 0,1.97502 3.37837,0 3.37839,0 0,0.9356 0,0.9356 -4.46985,0 -4.46986,0 0,-6.70481 z m 13.51351,-0.156 c 0,-3.77331 0.0399,-6.86073 0.0886,-6.86073 0.0487,0 1.54799,1.68408 3.33169,3.74232 1.7837,2.05812 3.26334,3.74215 3.28809,3.74215 0.0248,0 1.47861,-1.67225 3.23079,-3.71625 1.75219,-2.04388 3.22646,-3.73171 3.27613,-3.75086 0.0506,-0.0196 0.0903,2.98917 0.0903,6.83478 l 0,6.8694 -1.03835,0 -1.03835,0 -0.0271,-4.25468 -0.0271,-4.25468 -2.21266,2.64343 c -1.21696,1.4539 -2.25256,2.64344 -2.30132,2.64344 -0.0487,0 -1.08788,-1.19739 -2.30917,-2.66074 l -2.2205,-2.66074 -0.0271,4.27198 -0.0271,4.27199 -1.03835,0 -1.03835,0 0,-6.86081 z m 18.03449,0.0307 c 1.61308,-3.75638 2.9749,-6.84375 3.02626,-6.86081 0.068,-0.0233 5.39429,12.1327 5.91912,13.50842 0.0634,0.16643 -0.028,0.18202 -1.07425,0.18202 l -1.14363,0 -0.51341,-1.22145 -0.5134,-1.22144 -2.69399,-0.027 -2.694,-0.027 -0.51586,1.24869 -0.51586,1.24881 -1.10694,0 -1.10693,0 2.93289,-6.82963 z m 4.8357,2.38569 c 0.001,-0.0945 -1.80117,-4.49929 -1.82802,-4.46676 -0.01,0.0123 -0.38186,0.88834 -0.82539,1.94594 -0.44353,1.05772 -0.87084,2.07518 -0.94958,2.261 l -0.14317,0.33776 1.8725,0 c 1.02987,0 1.87302,-0.0344 1.87366,-0.0773 z m 19.33355,-2.26087 0,-6.70481 1.09148,0 1.09147,0 0,2.85859 0,2.8587 2.85863,0 2.85862,0 0,0.93548 0,0.9356 -2.85862,0 -2.85863,0 0,1.97502 0,1.97503 3.37838,0 3.37838,0 0,0.9356 0,0.9356 -4.46986,0 -4.46985,0 0,-6.70481 z m 25.36382,0 0,-6.70481 4.31392,0 4.31395,0 0,0.9356 0,0.93547 -3.22246,0 -3.22246,0 0,1.92311 0,1.92311 2.85862,0 2.85864,0 0,0.93548 0,0.9356 -2.85864,0 -2.85862,0 0,1.97502 0,1.97503 3.32641,0 3.32641,0 0,0.9356 0,0.9356 -4.41789,0 -4.41788,0 0,-6.70481 z m -21.41372,-5.76921 0,-0.9356 2.33888,0 2.33887,0 0,0.9356 0,0.93547 -2.33887,0 -2.33888,0 0,-0.93547 z m -30.24948,-25.88114 c 0,-14.70409 0.0344,-21.82312 0.10518,-21.77931 0.0578,0.0356 2.38045,2.69315 5.16133,5.90521 2.78089,3.21218 5.10943,5.89906 5.17453,5.97086 0.0917,0.10064 1.26121,-1.2034 5.19262,-5.79155 2.79085,-3.2571 5.13952,-5.97626 5.21928,-6.04242 0.12396,-0.10309 0.14501,3.05018 0.14501,21.73058 0,12.01795 -0.0385,21.8353 -0.0855,21.81628 -0.0471,-0.0184 -2.36918,-2.701 -5.16021,-5.95984 -2.79105,-3.25882 -5.12634,-5.92509 -5.18956,-5.92509 -0.0632,0 -2.42596,2.66627 -5.25056,5.92509 -2.8246,3.25884 -5.17533,5.94081 -5.22382,5.95984 -0.0485,0.0196 -0.0881,-9.79526 -0.0881,-21.80965 z m 7.32848,8.05807 c 1.65801,-1.96742 3.06845,-3.58026 3.13432,-3.58394 0.0659,0 1.56275,1.69716 3.32641,3.7797 1.76364,2.08267 3.24172,3.79001 3.28459,3.79418 0.0428,0 0.0779,-5.42126 0.0779,-12.05672 0,-7.5907 -0.0366,-12.04163 -0.0987,-12.00334 -0.0543,0.0331 -1.53061,1.74368 -3.28069,3.80032 -1.75008,2.05665 -3.23762,3.73687 -3.30564,3.7338 -0.068,0 -1.1294,-1.20046 -2.35861,-2.66086 -1.22921,-1.46053 -2.691,-3.19341 -3.24844,-3.85089 l -1.01352,-1.1953 4.6e-4,12.19824 4.5e-4,12.19836 0.23337,-0.28818 c 0.12835,-0.15845 1.58991,-1.89783 3.24792,-3.86537 z"
       style="fill:#005176;fill-opacity:1" />
  </g>
</svg>
