<?xml version="1.0" encoding="UTF-8" standalone="no"?>
<!-- Created with Inkscape (http://www.inkscape.org/) -->

<svg
   xmlns:dc="http://purl.org/dc/elements/1.1/"
   xmlns:cc="http://creativecommons.org/ns#"
   xmlns:rdf="http://www.w3.org/1999/02/22-rdf-syntax-ns#"
   xmlns:svg="http://www.w3.org/2000/svg"
   xmlns="http://www.w3.org/2000/svg"
   xmlns:sodipodi="http://sodipodi.sourceforge.net/DTD/sodipodi-0.dtd"
   xmlns:inkscape="http://www.inkscape.org/namespaces/inkscape"
   width="100.00007"
   height="10.376713"
   id="svg3137"
   version="1.1"
   inkscape:version="0.48.3.1 r9886"
   sodipodi:docname="mediatheque.svg">
  <sodipodi:namedview
     id="base"
     pagecolor="#ffffff"
     bordercolor="#666666"
     borderopacity="1.0"
     inkscape:pageopacity="0.0"
     inkscape:pageshadow="2"
     inkscape:zoom="0.35"
     inkscape:cx="-729.51089"
     inkscape:cy="-185.96713"
     inkscape:document-units="px"
     inkscape:current-layer="layer1"
     showgrid="false"
     fit-margin-top="0"
     fit-margin-left="0"
     fit-margin-right="0"
     fit-margin-bottom="0"
     inkscape:window-width="1375"
     inkscape:window-height="876"
     inkscape:window-x="65"
     inkscape:window-y="24"
     inkscape:window-maximized="1" />
  <defs
     id="defs3139" />
  <metadata
     id="metadata3142">
    <rdf:RDF>
      <cc:Work
         rdf:about="">
        <dc:format>image/svg+xml</dc:format>
        <dc:type
           rdf:resource="http://purl.org/dc/dcmitype/StillImage" />
        <dc:title></dc:title>
      </cc:Work>
    </rdf:RDF>
  </metadata>
  <g
     transform="translate(-550.22518,-336.01834)"
     id="layer1"
     inkscape:groupmode="layer"
     inkscape:label="Layer 1">
    <path
       inkscape:connector-curvature="0"
       id="path3146"
       d="m 638.44305,346.29897 c -0.5206,-0.12607 -1.23341,-0.46153 -1.64008,-0.77197 -0.19498,-0.14881 -0.45677,-0.26477 -0.71479,-0.31658 -1.57287,-0.31589 -2.63601,-1.87818 -2.36269,-3.47211 0.35573,-2.07449 2.59433,-3.13544 4.57656,-2.16906 0.5967,0.29093 1.05838,0.75841 1.36438,1.38157 0.18559,0.37789 0.20039,0.47159 0.20039,1.26825 0,0.82209 -0.0102,0.88091 -0.22915,1.32835 -0.39659,0.81029 -1.18208,1.42926 -2.0988,1.65383 -0.30493,0.0748 -0.31378,0.0839 -0.17921,0.18618 0.21325,0.16197 0.736,0.37823 1.20768,0.49952 0.38446,0.099 0.44853,0.0978 0.73912,-0.0135 0.17499,-0.0668 0.33486,-0.1049 0.35523,-0.0845 0.0203,0.0202 -0.0821,0.16891 -0.22775,0.3302 -0.29154,0.32264 -0.35309,0.33384 -0.99089,0.17943 z m -0.56319,-1.71265 c 0.58281,-0.26214 1.15887,-0.86837 1.37847,-1.45079 0.34175,-0.90641 0.14592,-1.91367 -0.51198,-2.63349 -1.27621,-1.39636 -3.50458,-1.0468 -4.31904,0.67759 -0.41984,0.88888 -0.25886,2.01055 0.39521,2.75357 0.77004,0.87485 1.98661,1.13476 3.05734,0.65312 z m 4.67159,0.58626 c -0.66929,-0.18989 -1.16202,-0.6243 -1.48004,-1.30474 l -0.20101,-0.43011 -0.0229,-2.06092 -0.0229,-2.061 0.21998,0 0.21997,0 6.7e-4,1.63082 c 0,0.89698 0.0344,1.83954 0.0758,2.0946 0.14077,0.86762 0.61862,1.4806 1.31662,1.68884 1.07718,0.32136 2.0867,-0.14861 2.48226,-1.15567 0.15601,-0.39718 0.16813,-0.54234 0.19546,-2.341 l 0.0292,-1.91759 0.21317,0 0.21317,0 -0.0248,2.02511 c -0.0233,1.90302 -0.0346,2.04947 -0.18658,2.42992 -0.21372,0.53459 -0.64478,1.01225 -1.12621,1.24774 -0.46968,0.22982 -1.37623,0.30322 -1.90176,0.154 z m -92.32627,-4.5664 0,-4.58784 1.6129,0 1.61292,0 0,4.58784 0,4.58779 -1.61292,0 -1.6129,0 0,-4.58779 z m 4.87526,4.39068 c 3.6e-4,-0.10847 0.0768,-0.36056 0.16978,-0.56023 0.4841,-1.03971 1.22192,-1.39095 3.68504,-1.75454 1.27137,-0.18759 1.61444,-0.31799 1.78649,-0.67875 0.11943,-0.25047 0.11877,-0.2707 -0.0169,-0.5242 -0.18452,-0.34464 -0.5321,-0.51435 -1.05371,-0.51443 -0.59274,0 -0.95197,0.16379 -1.10986,0.50647 l -0.12815,0.27825 -1.49559,0 -1.49561,0 0.0492,-0.34051 c 0.0641,-0.4438 0.32265,-1.00416 0.5837,-1.26495 0.25768,-0.25748 1.19972,-0.7149 1.82069,-0.88408 0.37454,-0.10206 0.74719,-0.12661 1.89964,-0.12533 1.23944,0 1.51892,0.0229 2.06271,0.16034 0.72008,0.18172 0.9507,0.28797 1.30973,0.6032 0.573,0.50309 0.67636,1.05649 0.67719,3.62551 l 4.1e-4,1.66664 -1.54122,0 -1.54121,0 0,-0.57668 0,-0.57675 -0.26882,0.0485 c -1.20721,0.21802 -1.91145,0.51024 -2.07969,0.86303 l -0.11533,0.24183 -1.59962,0 -1.59963,0 6.7e-4,-0.1971 z m 12.97422,-2.77779 0,-2.9749 1.53985,0 1.53985,0 0.0463,0.18429 c 0.0255,0.10133 0.0267,0.32717 0.003,0.50181 -0.0239,0.17457 -0.0242,0.31745 -6.8e-4,0.31745 0.0236,0 0.17488,-0.13194 0.33616,-0.29323 0.60884,-0.60886 1.46721,-0.8903 2.56852,-0.84213 0.56039,0.025 0.74938,0.0648 1.09115,0.23192 0.40614,0.19865 0.88652,0.59901 1.02397,0.85332 0.0632,0.11683 0.0997,0.10179 0.38625,-0.1602 0.38305,-0.35011 1.02948,-0.70419 1.52813,-0.83701 0.4472,-0.11906 1.47737,-0.12891 1.99515,-0.0189 1.02014,0.21646 1.69612,0.89238 1.91226,1.91218 0.0478,0.22517 0.0806,1.13712 0.0806,2.2401 l 0,1.86031 -1.57706,0 -1.57707,0 -4e-4,-1.2366 c -2.1e-4,-0.68085 -0.0359,-1.36465 -0.0795,-1.52163 -0.0441,-0.15872 -0.19903,-0.40507 -0.3496,-0.55556 -0.2352,-0.2353 -0.31377,-0.27044 -0.60372,-0.27044 -0.50743,0 -0.78621,0.14989 -1.02079,0.54903 -0.20166,0.34308 -0.20424,0.36231 -0.22747,1.69107 l -0.0236,1.34413 -1.60557,0 -1.60555,0 0.0452,-1.25078 c 0.0518,-1.43338 -0.0112,-1.72972 -0.45017,-2.11509 -0.20935,-0.18383 -0.30794,-0.21836 -0.62259,-0.21816 -0.97155,0 -1.25187,0.66324 -1.26626,2.99258 l -0.004,0.59145 -1.54122,0 -1.54122,0 0,-2.97496 z m 15.38854,2.92114 c -0.10123,-0.16953 -0.21041,-1.00639 -0.20805,-1.59501 0.008,-1.90376 0.90866,-3.3476 2.54801,-4.08301 0.71082,-0.3188 1.14595,-0.3982 2.12814,-0.38801 1.42458,0.0148 2.46294,0.37964 3.31233,1.16397 0.75191,0.69432 1.15127,1.74495 1.25019,3.28917 l 0.0471,0.73473 -3.08909,0 c -1.83555,0 -3.10589,0.027 -3.13047,0.0668 -0.0365,0.0587 0.0485,0.35826 0.21012,0.73945 0.0497,0.11724 -0.0479,0.12548 -1.49149,0.12548 -0.84955,0 -1.5591,-0.0243 -1.57677,-0.054 z m 5.94993,-2.85935 c -0.0637,-0.39246 -0.39232,-0.81555 -0.76498,-0.98493 -0.60877,-0.27664 -1.48842,-0.14098 -1.87778,0.28952 -0.13566,0.1501 -0.41212,0.72792 -0.41456,0.86654 -9.5e-4,0.069 0.3555,0.0897 1.54903,0.0897 l 1.5506,0 -0.0423,-0.26078 z m 4.37266,2.85935 c -0.11883,-0.19893 -0.21867,-1.0474 -0.21297,-1.81006 0.0101,-1.35547 0.31613,-2.32024 1.01725,-3.20723 0.22956,-0.29046 0.4229,-0.4336 0.91458,-0.67732 l 0.62349,-0.30902 0.93743,0 c 0.87518,0 0.96361,0.0128 1.33169,0.19468 0.21685,0.10712 0.55556,0.32865 0.75269,0.49229 l 0.35842,0.29763 0.019,-2.05142 0.019,-2.05142 1.61181,0 1.6118,0 0,4.58784 0,4.58779 -1.72042,0 c -0.94625,0 -1.72044,-0.01 -1.72044,-0.0209 0,-0.0115 0.0712,-0.21283 0.1583,-0.44805 0.22852,-0.61729 0.22647,-1.82969 -0.004,-2.41251 -0.20493,-0.51814 -0.53826,-0.82021 -0.97794,-0.88611 -0.88702,-0.13303 -1.43132,0.31718 -1.68501,1.39358 -0.11764,0.49918 -0.056,1.34879 0.1378,1.90085 0.0818,0.23287 0.14868,0.43449 0.14868,0.44805 0,0.0513 -3.29048,0.0222 -3.32115,-0.029 z m 10.63297,-2.92114 0,-2.9749 1.54123,0 1.54122,0 0,2.9749 0,2.9749 -1.54122,0 -1.54123,0 0,-2.9749 z m 4.58852,2.7419 c 6.7e-4,-0.30052 0.27983,-0.89306 0.54296,-1.15343 0.51557,-0.51024 1.19155,-0.76092 2.73943,-1.01597 1.39073,-0.22908 2.13776,-0.43779 2.27657,-0.63598 0.1461,-0.20858 0.1283,-0.59632 -0.0381,-0.82999 -0.21163,-0.2972 -0.49604,-0.38496 -1.11813,-0.34503 -0.49276,0.0317 -0.56124,0.0553 -0.78648,0.27374 -0.1357,0.13153 -0.26526,0.29755 -0.28792,0.36898 -0.038,0.11981 -0.15546,0.12986 -1.5159,0.12986 l -1.47469,0 0.0419,-0.35354 c 0.0441,-0.37243 0.2425,-0.82203 0.5286,-1.19776 0.29094,-0.3822 0.71036,-0.60171 1.55932,-0.81608 2.66409,-0.67282 5.14783,-0.27887 5.88619,0.93366 0.32236,0.52933 0.3911,1.0909 0.3911,3.19514 l 0,1.6794 -1.54122,0 -1.54122,0 -9.5e-4,-0.51969 c -9.5e-4,-0.7004 -0.0232,-0.72441 -0.50329,-0.55753 -0.21541,0.0749 -0.62339,0.20298 -0.90661,0.28467 -0.52919,0.15272 -0.91301,0.40528 -0.99143,0.6523 -0.0425,0.1337 -0.1195,0.14025 -1.65258,0.14025 l -1.60807,0 6.7e-4,-0.233 z m 11.32547,-2.52685 0,-2.75985 -1.11111,0 -1.11111,0 0,-0.17923 0,-0.17923 2.43728,0 2.43728,0 0,0.17923 0,0.17923 -1.11112,0 -1.11111,0 0,2.75985 0,2.75985 -0.21505,0 -0.21506,0 0,-2.75985 z m 3.2975,-0.17923 0,-2.93908 0.21346,0 0.21348,0 0.0195,1.34413 0.0195,1.34407 1.95341,0.0189 1.9534,0.0189 0,-1.36316 0,-1.36316 0.25089,0 0.25091,0 0,2.93908 0,2.93907 -0.25091,0 -0.25089,0 0,-1.39789 0,-1.39783 -1.97132,0 -1.97134,0 0,1.39783 0,1.39789 -0.21505,0 -0.21505,0 0,-2.93907 z m 6.16487,0 0,-2.93908 1.61291,0 1.61291,0 0,0.17923 0,0.17923 -1.39786,0 -1.39785,0 0,1.18279 0,1.18278 1.36201,0 1.36201,0 0,0.17923 0,0.17916 -1.36374,0 -1.36375,0 0.0197,1.20073 0.0197,1.20072 1.41578,0.0196 1.41576,0.0196 0,0.17775 0,0.17767 -1.64874,0 -1.64875,0 0,-2.93908 z m 17.13263,0 0,-2.93908 1.6129,0 1.61291,0 0,0.17923 0,0.17923 -1.39962,0 -1.39963,0 0.0197,1.16484 0.0197,1.1649 1.34409,0.0196 1.34409,0.0196 0,0.17607 0,0.17606 -1.34409,0.0196 -1.34409,0.0196 0,1.18284 0,1.18279 1.41577,0.0196 1.41577,0.0196 0,0.17776 0,0.17767 -1.64874,0 -1.64875,0 0,-2.93901 z m -60.64519,-3.90917 c 0,-0.0209 0.22104,-0.36784 0.49121,-0.77062 0.27016,-0.40279 0.59583,-0.91788 0.72369,-1.1446 l 0.23247,-0.41216 1.68084,0 1.68086,0 -1.31135,1.18203 -1.31134,1.18198 -1.0932,0 c -0.60125,0 -1.09318,-0.0168 -1.09318,-0.0378 z m 43.18998,-0.90594 c -0.5914,-0.51402 -1.20429,-1.04348 -1.362,-1.17657 l -0.28674,-0.24211 1.72043,1.3e-4 1.72043,0 0.64516,0.97523 c 0.35484,0.53628 0.70479,1.06789 0.77765,1.1813 l 0.13249,0.20614 -1.13607,-0.007 -1.13608,-0.007 -1.07527,-0.9346 z m -25.12545,-0.27448 0,-1.14696 1.57706,0 1.57706,0 0,1.14696 0,1.1469 -1.57706,0 -1.57706,0 0,-1.1469 z"
       style="fill:#005176;fill-opacity:1" />
  </g>
</svg>
