<?xml version="1.0" encoding="UTF-8" standalone="no"?>
<!-- Created with Inkscape (http://www.inkscape.org/) -->

<svg
   xmlns:dc="http://purl.org/dc/elements/1.1/"
   xmlns:cc="http://creativecommons.org/ns#"
   xmlns:rdf="http://www.w3.org/1999/02/22-rdf-syntax-ns#"
   xmlns:svg="http://www.w3.org/2000/svg"
   xmlns="http://www.w3.org/2000/svg"
   xmlns:sodipodi="http://sodipodi.sourceforge.net/DTD/sodipodi-0.dtd"
   xmlns:inkscape="http://www.inkscape.org/namespaces/inkscape"
   width="105.26392"
   height="10.923002"
   id="svg3137"
   version="1.1"
   inkscape:version="0.48.4 r9939"
   sodipodi:docname="New document 6">
  <defs
     id="defs3139" />
  <sodipodi:namedview
     id="base"
     pagecolor="#ffffff"
     bordercolor="#666666"
     borderopacity="1.0"
     inkscape:pageopacity="0.0"
     inkscape:pageshadow="2"
     inkscape:zoom="0.35"
     inkscape:cx="-175.22518"
     inkscape:cy="-185.96707"
     inkscape:document-units="px"
     inkscape:current-layer="layer1"
     showgrid="false"
     fit-margin-top="0"
     fit-margin-left="0"
     fit-margin-right="0"
     fit-margin-bottom="0"
     inkscape:window-width="467"
     inkscape:window-height="436"
     inkscape:window-x="300"
     inkscape:window-y="317"
     inkscape:window-maximized="0" />
  <metadata
     id="metadata3142">
    <rdf:RDF>
      <cc:Work
         rdf:about="">
        <dc:format>image/svg+xml</dc:format>
        <dc:type
           rdf:resource="http://purl.org/dc/dcmitype/StillImage" />
        <dc:title></dc:title>
      </cc:Work>
    </rdf:RDF>
  </metadata>
  <g
     inkscape:label="Layer 1"
     inkscape:groupmode="layer"
     id="layer1"
     transform="translate(-550.22518,-335.47211)">
    <path
       style="fill:#00aa5a;fill-opacity:1"
       d="m 643.08677,346.29391 c -0.54801,-0.13271 -1.29834,-0.48583 -1.72641,-0.81261 -0.20525,-0.15664 -0.48082,-0.2787 -0.75242,-0.33324 -1.65567,-0.33252 -2.77477,-1.97705 -2.48706,-3.65488 0.37446,-2.18369 2.73089,-3.30049 4.81747,-2.28324 0.62811,0.30625 1.11409,0.79833 1.4362,1.4543 0.19535,0.39778 0.21093,0.49641 0.21093,1.33501 0,0.86536 -0.0107,0.92728 -0.24121,1.39827 -0.41746,0.85294 -1.2443,1.5045 -2.20928,1.74089 -0.32098,0.0787 -0.33029,0.0883 -0.18864,0.19598 0.22447,0.17049 0.77474,0.39814 1.27125,0.52581 0.4047,0.10417 0.47214,0.10296 0.77803,-0.0142 0.1842,-0.0703 0.35248,-0.11042 0.37393,-0.0889 0.0214,0.0213 -0.0864,0.17781 -0.23974,0.34759 -0.30689,0.33962 -0.37168,0.35141 -1.04305,0.18887 z m -0.59284,-1.8028 c 0.61349,-0.27594 1.21987,-0.91408 1.45103,-1.52716 0.35974,-0.95412 0.15361,-2.01441 -0.53893,-2.77212 -1.34338,-1.46986 -3.68905,-1.1019 -4.54639,0.71326 -0.44194,0.93567 -0.27248,2.11638 0.41602,2.89852 0.81057,0.9209 2.09118,1.19449 3.21827,0.6875 z m 4.9175,0.61712 c -0.70452,-0.19989 -1.22319,-0.65717 -1.55795,-1.37342 l -0.21159,-0.45275 -0.0241,-2.16941 -0.0241,-2.16949 0.23156,0 0.23155,0 7.1e-4,1.71667 c 0,0.94419 0.0362,1.93637 0.0798,2.20485 0.14818,0.9133 0.65118,1.55854 1.38592,1.77774 1.13388,0.33828 2.19654,-0.15643 2.61293,-1.2165 0.16422,-0.41809 0.17698,-0.57089 0.20574,-2.46423 l 0.0307,-2.01853 0.22439,0 0.22439,0 -0.0261,2.13171 c -0.0245,2.00319 -0.0364,2.15735 -0.19641,2.55783 -0.22497,0.56273 -0.67872,1.06553 -1.18549,1.31342 -0.4944,0.24192 -1.44867,0.31918 -2.00187,0.16211 z m -97.18625,-4.80677 0,-4.82935 1.6978,0 1.69782,0 0,4.82935 0,4.82928 -1.69782,0 -1.6978,0 0,-4.82928 z m 5.13189,4.6218 c 3.8e-4,-0.11418 0.0808,-0.37954 0.17872,-0.58972 0.50958,-1.09444 1.28624,-1.46417 3.87901,-1.8469 1.3383,-0.19747 1.69943,-0.33473 1.88053,-0.71448 0.12572,-0.26365 0.12503,-0.28495 -0.0178,-0.55179 -0.19423,-0.36278 -0.56011,-0.54143 -1.10917,-0.54151 -0.62394,0 -1.00208,0.17241 -1.16828,0.53313 l -0.1349,0.2929 -1.57432,0 -1.57433,0 0.0518,-0.35844 c 0.0675,-0.46716 0.33963,-1.05702 0.61442,-1.33153 0.27125,-0.27104 1.26287,-0.75254 1.91653,-0.93062 0.39426,-0.10744 0.78652,-0.13328 1.99964,-0.13193 1.30468,0 1.59887,0.0241 2.17129,0.16878 0.75798,0.19129 1.00074,0.30313 1.37867,0.63495 0.60316,0.52957 0.71196,1.11211 0.71284,3.81636 l 4.3e-4,1.75437 -1.62235,0 -1.62234,0 0,-0.60704 0,-0.60711 -0.28297,0.0511 c -1.27076,0.22949 -2.01207,0.53709 -2.18916,0.90846 l -0.1214,0.25456 -1.68383,0 -1.68383,0 7.1e-4,-0.20748 z m 13.65717,-2.92401 0,-3.1315 1.62091,0 1.62091,0 0.0487,0.19399 c 0.0268,0.10666 0.0281,0.34439 0.003,0.52823 -0.0252,0.18376 -0.0255,0.33416 -7.1e-4,0.33416 0.0248,0 0.18408,-0.13889 0.35385,-0.30867 0.64089,-0.64091 1.54444,-0.93716 2.70373,-0.88646 0.58988,0.0263 0.78882,0.0682 1.14858,0.24413 0.42752,0.20911 0.93319,0.63054 1.07787,0.89824 0.0665,0.12298 0.10494,0.10715 0.40659,-0.16864 0.40321,-0.36853 1.08367,-0.74125 1.60856,-0.88106 0.47074,-0.12533 1.55514,-0.1357 2.10018,-0.0199 1.07384,0.22786 1.7854,0.93935 2.01292,2.01284 0.0503,0.23702 0.0848,1.19697 0.0848,2.35801 l 0,1.95824 -1.66008,0 -1.66008,0 -4.2e-4,-1.3017 c -2.2e-4,-0.71668 -0.0378,-1.43648 -0.0837,-1.60172 -0.0464,-0.16708 -0.20951,-0.4264 -0.368,-0.58481 -0.24758,-0.24768 -0.33029,-0.28467 -0.6355,-0.28467 -0.53414,0 -0.8276,0.15778 -1.07452,0.57793 -0.21228,0.36114 -0.215,0.38138 -0.23945,1.78008 l -0.0248,1.41489 -1.69008,0 -1.69007,0 0.0476,-1.31662 c 0.0545,-1.50883 -0.0118,-1.82077 -0.47387,-2.22643 -0.22037,-0.1935 -0.32415,-0.22985 -0.65536,-0.22964 -1.02269,0 -1.31777,0.69815 -1.33291,3.1501 l -0.004,0.62259 -1.62235,0 -1.62235,0 0,-3.13156 z m 16.19858,3.0749 c -0.10656,-0.17845 -0.22148,-1.05936 -0.219,-1.67897 0.008,-2.00397 0.95649,-3.52381 2.68214,-4.29793 0.74823,-0.33558 1.20627,-0.41916 2.24016,-0.40844 1.49957,0.0156 2.59259,0.39963 3.48669,1.22524 0.79149,0.73087 1.21187,1.83681 1.316,3.46231 l 0.0496,0.77341 -3.2517,0 c -1.93217,0 -3.26938,0.0284 -3.29525,0.0703 -0.0384,0.0618 0.0511,0.37712 0.22118,0.77838 0.0523,0.12341 -0.0504,0.13208 -1.57,0.13208 -0.89428,0 -1.64117,-0.0256 -1.65977,-0.0568 z m 6.26313,-3.00986 c -0.067,-0.41312 -0.41297,-0.85848 -0.80525,-1.03678 -0.64081,-0.2912 -1.56677,-0.1484 -1.97662,0.30476 -0.1428,0.158 -0.43381,0.76624 -0.43638,0.91216 -10e-4,0.0726 0.37421,0.0944 1.63057,0.0944 l 1.63222,0 -0.0445,-0.27451 z m 4.60284,3.00986 c -0.12509,-0.2094 -0.23018,-1.10253 -0.22418,-1.90534 0.0106,-1.42682 0.33277,-2.44237 1.07079,-3.37605 0.24165,-0.30575 0.44516,-0.45643 0.96273,-0.71298 l 0.65631,-0.32528 0.98677,0 c 0.92125,0 1.01433,0.0135 1.40179,0.20492 0.22826,0.11276 0.5848,0.34595 0.79231,0.51821 l 0.37729,0.31329 0.02,-2.1594 0.02,-2.15941 1.69665,0 1.69665,0 0,4.82935 0,4.82928 -1.81099,0 c -0.99605,0 -1.811,-0.01 -1.811,-0.022 0,-0.0121 0.075,-0.22403 0.16664,-0.47163 0.24054,-0.64979 0.23839,-1.92601 -0.004,-2.53951 -0.21572,-0.54541 -0.5666,-0.86338 -1.02942,-0.93275 -0.93371,-0.14003 -1.50667,0.33388 -1.77371,1.46694 -0.12383,0.52545 -0.059,1.41979 0.14505,2.00091 0.0861,0.24512 0.15651,0.45736 0.15651,0.47163 0,0.054 -3.46369,0.0234 -3.49597,-0.0305 z m 11.19268,-3.0749 0,-3.1315 1.62236,0 1.62234,0 0,3.1315 0,3.13149 -1.62234,0 -1.62236,0 0,-3.13149 z m 4.83005,2.88623 c 7.1e-4,-0.31634 0.29456,-0.94007 0.57154,-1.21415 0.54271,-0.5371 1.25428,-0.80097 2.88364,-1.06945 1.46393,-0.24114 2.25028,-0.46083 2.3964,-0.66945 0.15379,-0.21956 0.13506,-0.62771 -0.0401,-0.87368 -0.22277,-0.31285 -0.52215,-0.40523 -1.17699,-0.3632 -0.5187,0.0334 -0.59078,0.0582 -0.82788,0.28815 -0.14284,0.13846 -0.27922,0.31321 -0.30308,0.38841 -0.04,0.12611 -0.16364,0.13669 -1.59569,0.13669 l -1.55232,0 0.0441,-0.37215 c 0.0464,-0.39203 0.25526,-0.8653 0.55642,-1.26081 0.30626,-0.40232 0.74775,-0.63338 1.6414,-0.85904 2.80433,-0.70823 5.41881,-0.29355 6.19604,0.98281 0.33933,0.55719 0.41168,1.14833 0.41168,3.36333 l 0,1.7678 -1.62234,0 -1.62235,0 -0.001,-0.54704 c -10e-4,-0.73727 -0.0244,-0.76255 -0.52979,-0.58688 -0.22675,0.0788 -0.6562,0.21366 -0.95433,0.29965 -0.55704,0.16076 -0.96107,0.42662 -1.04362,0.68664 -0.0447,0.14074 -0.12579,0.14763 -1.73957,0.14763 l -1.69272,0 7.1e-4,-0.24526 z m 11.92164,-2.65986 0,-2.90513 -1.1696,0 -1.1696,0 0,-0.18866 0,-0.18867 2.56558,0 2.56557,0 0,0.18867 0,0.18866 -1.1696,0 -1.1696,0 0,2.90513 0,2.90512 -0.22637,0 -0.22638,0 0,-2.90512 z m 3.47107,-0.18867 0,-3.09379 0.2247,0 0.22472,0 0.0205,1.41489 0.0205,1.41482 2.05623,0.0199 2.05623,0.0199 0,-1.43492 0,-1.43491 0.2641,0 0.26411,0 0,3.09379 0,3.09378 -0.26411,0 -0.2641,0 0,-1.47148 0,-1.47141 -2.07509,0 -2.07511,0 0,1.47141 0,1.47148 -0.22637,0 -0.22637,0 0,-3.09378 z m 6.48939,0 0,-3.09379 1.69781,0 1.69781,0 0,0.18867 0,0.18866 -1.47144,0 -1.47143,0 0,1.24505 0,1.24504 1.4337,0 1.43371,0 0,0.18867 0,0.18859 -1.43553,0 -1.43553,0 0.0207,1.26393 0.0207,1.26393 1.4903,0.0206 1.49029,0.0206 0,0.1871 0,0.18703 -1.73553,0 -1.73554,0 0,-3.09379 z m 18.03448,0 0,-3.09379 1.6978,0 1.69781,0 0,0.18867 0,0.18866 -1.4733,0 -1.4733,0 0.0207,1.22616 0.0207,1.22622 1.41484,0.0206 1.41484,0.0206 0,0.18533 0,0.18533 -1.41484,0.0206 -1.41484,0.0206 0,1.24511 0,1.24505 1.49029,0.0206 1.4903,0.0206 0,0.18711 0,0.18703 -1.73553,0 -1.73554,0 0,-3.09372 z m -63.83751,-4.11494 c 0,-0.022 0.23268,-0.38721 0.51707,-0.81119 0.28438,-0.42399 0.62719,-0.9662 0.76178,-1.20485 l 0.24471,-0.43386 1.76932,0 1.76934,0 -1.38038,1.24426 -1.38037,1.24419 -1.15074,0 c -0.6329,0 -1.15073,-0.0177 -1.15073,-0.0398 z m 45.46347,-0.95363 c -0.62253,-0.54108 -1.26769,-1.09841 -1.4337,-1.23851 l -0.30183,-0.25485 1.81099,1.4e-4 1.81099,0 0.67912,1.02656 c 0.37352,0.56451 0.74189,1.12411 0.81859,1.24348 l 0.13946,0.217 -1.19587,-0.007 -1.19588,-0.007 -1.13187,-0.9838 z m -26.44804,-0.28893 0,-1.20734 1.66008,0 1.66007,0 0,1.20734 0,1.20727 -1.66007,0 -1.66008,0 0,-1.20727 z"
       id="path3146"
       inkscape:connector-curvature="0" />
  </g>
</svg>
