<?xml version="1.0" encoding="UTF-8" standalone="no"?>
<!-- Created with Inkscape (http://www.inkscape.org/) -->

<svg
   xmlns:dc="http://purl.org/dc/elements/1.1/"
   xmlns:cc="http://creativecommons.org/ns#"
   xmlns:rdf="http://www.w3.org/1999/02/22-rdf-syntax-ns#"
   xmlns:svg="http://www.w3.org/2000/svg"
   xmlns="http://www.w3.org/2000/svg"
   xmlns:sodipodi="http://sodipodi.sourceforge.net/DTD/sodipodi-0.dtd"
   xmlns:inkscape="http://www.inkscape.org/namespaces/inkscape"
   width="554.51147"
   height="273.62234"
   id="svg2"
   version="1.1"
   inkscape:version="0.48.4 r9939"
   sodipodi:docname="musiq3.svg">
  <defs
     id="defs4" />
  <sodipodi:namedview
     id="base"
     pagecolor="#ffffff"
     bordercolor="#666666"
     borderopacity="1.0"
     inkscape:pageopacity="0.0"
     inkscape:pageshadow="2"
     inkscape:zoom="0.81347656"
     inkscape:cx="269.06033"
     inkscape:cy="-127.47451"
     inkscape:document-units="px"
     inkscape:current-layer="layer1"
     showgrid="false"
     inkscape:window-width="1276"
     inkscape:window-height="775"
     inkscape:window-x="0"
     inkscape:window-y="21"
     inkscape:window-maximized="1"
     fit-margin-top="0"
     fit-margin-left="0"
     fit-margin-right="0"
     fit-margin-bottom="0" />
  <metadata
     id="metadata7">
    <rdf:RDF>
      <cc:Work
         rdf:about="">
        <dc:format>image/svg+xml</dc:format>
        <dc:type
           rdf:resource="http://purl.org/dc/dcmitype/StillImage" />
        <dc:title />
      </cc:Work>
    </rdf:RDF>
  </metadata>
  <g
     inkscape:label="Layer 1"
     inkscape:groupmode="layer"
     id="layer1"
     transform="translate(-105.93967,-131.26534)">
    <path
       style="fill:#00aa5a"
       d="m 285.38452,404.60119 c -0.58943,-0.13987 -2.10509,-0.38945 -3.36814,-0.55461 -3.36866,-0.44049 -7.66581,-1.47212 -8.15036,-1.95668 -0.12043,-0.12042 -0.40544,-0.21896 -0.63335,-0.21896 -0.84394,0 -7.65217,-3.50057 -8.36319,-4.30004 -0.0842,-0.0947 -0.70424,-0.5709 -1.37787,-1.05827 -4.17098,-3.01767 -8.93395,-9.75027 -10.506,-14.85053 -1.89607,-6.15151 -1.89488,-6.13105 -1.89488,-32.70932 0,-21.96205 -0.054,-24.76014 -0.51075,-26.46739 -0.50161,-1.87496 -1.59427,-3.75419 -2.53431,-4.35865 -1.05441,-0.67801 -4.27673,-1.37555 -6.35965,-1.37668 -2.44308,0 -2.97936,-0.4024 -2.7854,-2.08314 l 0.0954,-0.82691 17.98893,-0.079 17.98893,-0.079 0,1.34756 c 0,1.62433 -0.17688,1.71928 -3.20269,1.71928 -2.17645,0 -3.5633,0.36275 -5.52385,1.44478 -1.54076,0.85036 -2.46158,2.33155 -3.09479,4.97814 -0.58464,2.44358 -0.57685,44.49267 0.009,48.6921 0.39233,2.81215 0.92802,5.31373 1.40973,6.58318 1.56643,4.12802 2.94389,6.66209 4.73428,8.70958 1.52569,1.74479 3.29807,3.39898 4.62949,4.3208 1.70369,1.17959 5.86114,3.35103 6.41592,3.35103 0.24689,0 0.68815,0.13221 0.98058,0.29382 0.60988,0.33703 2.70873,0.83135 5.5839,1.31514 2.47669,0.41673 12.02143,0.41073 14.69733,-0.009 3.03129,-0.47576 4.50115,-0.87329 7.47357,-2.02134 1.99688,-0.77124 4.60905,-2.27591 6.39839,-3.6856 1.98109,-1.56077 4.88756,-4.74188 5.05801,-5.536 0.0544,-0.25368 0.19535,-0.46122 0.31311,-0.46122 0.36824,0 2.41052,-4.32582 2.86404,-6.06642 1.50309,-5.7688 1.43795,-4.44698 1.45443,-29.51376 0.016,-24.38946 -0.007,-24.8937 -1.25314,-27.64899 -1.24309,-2.74819 -4.40799,-4.32953 -9.44824,-4.72082 l -2.29646,-0.1783 -0.0934,-1.45712 -0.0934,-1.45711 16.32174,0.0792 16.32175,0.0792 0,1.37787 0,1.37788 -2.29646,0.19345 c -1.26305,0.1064 -2.70982,0.36688 -3.21504,0.57886 -0.50523,0.21198 -1.35842,0.5754 -1.89598,0.80762 -1.20432,0.52025 -3.46243,2.7766 -3.46243,3.45975 0,0.27634 -0.12988,0.63334 -0.28863,0.79332 -0.96122,0.96871 -1.06283,3.17411 -1.25475,27.23601 -0.17069,21.39843 -0.25362,24.43665 -0.7188,26.33273 -0.28922,1.17884 -0.63874,2.62561 -0.77673,3.21504 -0.60384,2.57941 -2.5505,6.79893 -4.53086,9.82094 -1.88875,2.88221 -5.79263,6.8026 -8.65854,8.69513 -5.47327,3.61432 -10.48358,5.45988 -17.14689,6.31615 -1.26306,0.16232 -2.88404,0.42852 -3.60218,0.5916 -1.55437,0.35298 -9.87384,0.32729 -11.40135,-0.0352 z m -178.89416,-1.10417 c -0.63624,-0.16626 -0.75896,-2.19909 -0.1684,-2.78962 0.2228,-0.22281 1.30505,-0.36743 2.74955,-0.36743 2.40818,0 4.36389,-0.53318 5.55442,-1.51422 0.7743,-0.63805 2.0454,-2.64525 2.0454,-3.22987 0,-0.25824 0.12635,-0.70881 0.28077,-1.00122 0.42062,-0.79651 0.99153,-6.02083 1.27944,-11.70778 0.14067,-2.77871 0.39224,-7.73309 0.55905,-11.00971 0.16681,-3.27662 0.44893,-7.82361 0.62694,-10.10442 0.17801,-2.28081 0.37802,-5.24922 0.44446,-6.59647 0.55315,-11.21615 0.82313,-15.70249 1.09102,-18.12997 0.17118,-1.55112 0.31124,-5.63915 0.31124,-9.08448 0,-5.31759 -0.0781,-6.40029 -0.51667,-7.16449 -0.68887,-1.20029 -2.28832,-2.25856 -3.86361,-2.55636 -3.91035,-0.73922 -3.72633,-0.65538 -3.83132,-1.74528 -0.18553,-1.92621 -0.38838,-1.8902 10.64527,-1.8902 l 10.01356,0 0.66576,0.70869 c 0.36617,0.38975 0.66576,0.80587 0.66576,0.92471 0,0.11883 0.56463,1.4189 1.25472,2.88909 1.30245,2.77477 2.03536,4.35109 3.59194,7.72529 0.50497,1.09465 1.66957,3.57482 2.58799,5.5115 0.91842,1.93668 1.97903,4.21018 2.35691,5.05221 0.37788,0.84204 1.16471,2.56438 1.7485,3.82744 0.5838,1.26305 1.4114,3.05429 1.83912,3.98052 0.42771,0.92624 1.10596,2.35127 1.5072,3.16676 0.40125,0.81546 0.72954,1.67663 0.72954,1.91372 0,0.23705 0.13779,0.43103 0.3062,0.43103 0.1684,0 0.30619,0.15101 0.30619,0.33558 0,0.18458 0.49556,1.39022 1.10124,2.67921 1.83013,3.89482 2.7752,5.91926 3.73848,8.00821 0.50478,1.09464 1.42612,3.09256 2.04742,4.43982 0.62131,1.34726 1.58805,3.41407 2.14832,4.59292 0.56028,1.17885 1.42981,3.03898 1.9323,4.13362 2.69806,5.87753 3.22733,7.01896 3.90644,8.42473 0.40795,0.84446 0.74172,1.70563 0.74172,1.91372 0,0.71505 0.93198,0.37769 1.28098,-0.46367 0.35033,-0.84461 1.22852,-2.75352 3.62728,-7.88451 0.70858,-1.51566 1.60574,-3.44469 1.9937,-4.28673 0.38795,-0.84203 1.18302,-2.56437 1.76682,-3.82743 0.58379,-1.26305 1.36628,-2.98539 1.73885,-3.82743 0.6846,-1.54723 2.78268,-6.06464 4.12409,-8.87964 1.00975,-2.11902 2.71954,-5.82275 3.53376,-7.65486 0.68592,-1.54344 1.96797,-4.32068 3.81635,-8.26726 0.55211,-1.17884 1.25057,-2.69451 1.55214,-3.36814 0.53724,-1.20009 1.90268,-4.14761 4.04256,-8.72654 2.16837,-4.63992 4.59751,-9.8967 5.41014,-11.70781 0.28234,-0.62926 0.77428,-1.28375 1.0932,-1.45442 0.35657,-0.19082 4.29941,-0.31033 10.23928,-0.31033 l 9.65943,0 0.1843,0.73435 c 0.41014,1.6341 0.0921,2.10508 -1.70361,2.52252 -0.92624,0.21532 -2.20626,0.39735 -2.8445,0.40448 -1.56982,0.0174 -3.53323,1.06286 -3.9299,2.09229 -0.31393,0.81469 -0.22657,3.35136 0.64547,18.74192 0.16698,2.94713 0.44311,6.36297 0.61361,7.59081 0.17051,1.22784 0.31001,3.46432 0.31001,4.97 0,1.50565 0.13375,3.67017 0.29721,4.81004 0.16347,1.13987 0.45743,4.69047 0.65324,7.8902 1.73786,28.39728 2.08601,31.80281 3.46663,33.90988 1.01412,1.54776 2.58583,2.06798 6.24792,2.06798 2.15644,0 3.42462,0.12713 3.66491,0.36743 0.59833,0.59834 0.45407,2.32041 -0.22483,2.68374 -0.63953,0.34226 -34.17721,0.46771 -35.05436,0.13111 -0.67704,-0.25981 -0.67704,-2.73664 0,-2.99642 0.26638,-0.10224 1.36589,-0.18586 2.44336,-0.18586 3.61442,0 7.44387,-1.98772 8.55356,-4.43982 0.6756,-1.49291 0.766,-3.09122 0.46759,-8.26725 -0.15534,-2.69451 -0.42199,-7.58597 -0.59256,-10.86991 -0.17056,-3.28394 -0.39374,-6.79752 -0.49594,-7.80796 -0.23778,-2.35081 -0.64168,-8.97765 -1.04509,-17.14689 -0.17464,-3.53655 -0.39611,-6.84345 -0.49216,-7.34867 -0.096,-0.50522 -0.30346,-3.26097 -0.46092,-6.12389 -0.38408,-6.98381 -0.6326,-9.64513 -0.90066,-9.64513 -0.1229,0 -0.47147,0.65449 -0.77459,1.45442 -0.30313,0.79994 -0.99313,2.41894 -1.53333,3.59779 -0.5402,1.17885 -1.29072,2.8323 -1.66782,3.67433 -0.3771,0.84204 -1.13306,2.49549 -1.67992,3.67434 -0.54685,1.17885 -1.20859,2.62562 -1.47053,3.21504 -1.03896,2.33789 -2.1768,4.84789 -3.12312,6.88938 -0.54644,1.17885 -1.20785,2.62562 -1.46979,3.21504 -0.46105,1.03745 -1.15317,2.56772 -3.04676,6.73628 -0.49725,1.09465 -1.08563,2.40363 -1.30751,2.90885 -0.22189,0.50522 -0.96766,2.13773 -1.65729,3.62782 -0.68962,1.49007 -1.25386,2.75456 -1.25386,2.80992 0,0.0554 -0.46426,1.10974 -1.0317,2.34297 -0.56744,1.23326 -1.37729,3.00012 -1.79969,3.92636 -1.25034,2.74179 -2.67927,5.86482 -3.43241,7.50177 -0.38741,0.84203 -0.94489,2.08212 -1.23885,2.75575 -0.29396,0.67363 -0.98008,2.18929 -1.52472,3.36814 -0.54463,1.17885 -1.20456,2.62562 -1.4665,3.21504 -0.72822,1.63866 -2.02854,4.50363 -3.17177,6.98828 -0.56743,1.23326 -1.0317,2.35393 -1.0317,2.4904 0,0.32117 -1.11611,0.61625 -2.35113,0.62154 -1.5132,0.006 -1.42135,0.14551 -5.05554,-7.65066 -1.82334,-3.91149 -2.52568,-5.42399 -3.76788,-8.11416 -0.6221,-1.34725 -1.5512,-3.34517 -2.06466,-4.43982 -2.5172,-5.36643 -3.01982,-6.44267 -4.00388,-8.57345 -0.58332,-1.26305 -1.36738,-2.98539 -1.74236,-3.82743 -0.37498,-0.84203 -1.29762,-2.83995 -2.05031,-4.43982 -0.75269,-1.59986 -1.72034,-3.66668 -2.15032,-4.59292 -0.42999,-0.92623 -1.32884,-2.85526 -1.99745,-4.28672 -2.41207,-5.16412 -4.63419,-9.98405 -5.4348,-11.78849 -0.37361,-0.84203 -1.40425,-3.04664 -2.29031,-4.89911 -1.48481,-3.10423 -2.25771,-4.79574 -2.72829,-5.97079 -0.10116,-0.25262 -0.30723,-0.66598 -0.45793,-0.91859 -0.57618,-0.9658 -1.87326,-3.85119 -1.87326,-4.16712 0,-0.18201 -0.27557,-0.58027 -0.61239,-0.88509 -0.6008,-0.54374 -0.61281,-0.53449 -0.63475,0.48838 -0.0123,0.57341 -0.14588,3.45388 -0.29685,6.401 -0.15096,2.94712 -0.40145,7.90747 -0.55664,11.023 -0.15519,3.11553 -0.37201,6.14686 -0.48182,6.73628 -0.10982,0.58943 -0.32987,3.89633 -0.48902,7.34867 -0.6944,15.0633 -0.92872,19.27228 -1.19061,21.38579 -0.15325,1.23675 -0.2957,4.58967 -0.31655,7.45097 -0.0375,5.14946 -0.0295,5.21559 0.78516,6.50336 0.45269,0.71554 1.30716,1.63272 1.89881,2.03812 1.46148,1.00141 4.16254,1.80468 6.08677,1.81013 1.76786,0.005 1.86738,0.0845 2.06812,1.65247 0.10986,0.85802 0.0133,1.17006 -0.43681,1.41094 -0.57002,0.30506 -27.10759,0.39729 -28.25217,0.0982 z m 283.23317,-88.45455 c -0.11035,-0.11032 -1.13797,-0.38176 -2.28357,-0.60317 -1.1456,-0.22138 -2.63407,-0.54105 -3.3077,-0.71037 -0.67362,-0.16933 -1.84482,-0.45718 -2.60265,-0.6397 -0.75783,-0.18253 -1.65345,-0.45679 -1.99026,-0.60948 -0.33682,-0.15273 -1.02576,-0.36676 -1.53098,-0.47568 -2.55121,-0.54992 -2.83863,-0.5303 -4.02339,0.27478 -1.1306,0.76824 -2.671,1.02676 -3.34472,0.56135 -0.2971,-0.20524 -0.70887,-2.76032 -1.36863,-8.49222 -0.13567,-1.17884 -0.47913,-3.79681 -0.76325,-5.81769 -0.28409,-2.02088 -0.58299,-4.46661 -0.66423,-5.43496 l -0.1477,-1.76061 1.55816,0 c 1.34875,0 1.55819,0.0815 1.55819,0.6062 0,0.7495 0.82526,3.02851 2.10895,5.82388 0.78658,1.71285 3.85349,5.89722 5.29447,7.22359 1.45908,1.343 4.65241,3.54962 5.76295,3.98221 1.32123,0.51469 1.76239,0.69298 2.60265,1.05193 3.21869,1.37497 10.99174,1.36493 14.39114,-0.0187 0.50522,-0.20561 1.26306,-0.51042 1.68407,-0.67739 0.42102,-0.16697 0.97217,-0.4257 1.22478,-0.575 0.25261,-0.14927 0.77458,-0.40749 1.1599,-0.57375 0.38534,-0.16629 1.69876,-1.3027 2.91873,-2.52537 3.27393,-3.28127 4.4882,-6.20218 4.4882,-10.79651 0,-2.91206 -0.44174,-4.86087 -1.5833,-6.98488 -1.05254,-1.95842 -3.75152,-5.19851 -5.69653,-6.83864 -0.96044,-0.80989 -1.81518,-1.55991 -1.89939,-1.66671 -0.33905,-0.42996 -7.04679,-5.1779 -7.3152,-5.1779 -0.15873,0 -0.33455,-0.1095 -0.3907,-0.24337 -0.0819,-0.19516 -3.77327,-2.6528 -6.30311,-4.19645 -0.27597,-0.16841 -0.64711,-0.4118 -0.8247,-0.54086 -0.1776,-0.1291 -1.90732,-1.35081 -3.84382,-2.71494 -5.92998,-4.17729 -9.17692,-7.16063 -12.02665,-11.05031 -1.69343,-2.31147 -3.28341,-5.36662 -3.28341,-6.30914 0,-0.29854 -0.17224,-0.71494 -0.38274,-0.92532 -0.27264,-0.27249 -0.38275,-1.72158 -0.38275,-5.0369 0,-3.72192 0.11063,-4.9576 0.55225,-6.16786 1.13415,-3.10821 3.23121,-6.35669 5.40495,-8.37265 1.29628,-1.20218 4.11669,-3.12713 4.58183,-3.12713 0.18198,0 0.3314,-0.10334 0.33201,-0.22965 0,-0.1263 0.65513,-0.48305 1.45443,-0.7928 0.79932,-0.30974 1.72886,-0.67813 2.06568,-0.81864 1.56676,-0.65366 4.26617,-1.21571 7.34866,-1.53008 2.73316,-0.27876 4.08972,-0.25705 7.19558,0.11516 4.14137,0.49631 6.71968,1.01736 7.18026,1.45111 0.15998,0.15065 0.59965,0.27393 0.97706,0.27393 0.37739,0 0.76393,0.12578 0.85894,0.27955 0.095,0.15374 0.7225,0.37243 1.39435,0.48593 0.67185,0.11351 1.29931,0.33219 1.39435,0.48593 0.095,0.15377 0.96733,0.27956 1.93849,0.27956 1.48751,0 1.87901,-0.12061 2.48485,-0.76549 0.87804,-0.93463 2.57797,-1.05738 3.02692,-0.21853 0.28127,0.52555 0.65672,3.2182 1.26859,9.09817 0.15772,1.51567 0.41538,3.3758 0.57255,4.13363 0.43716,2.10757 0.49742,4.24903 0.12995,4.61652 -0.18178,0.18176 -0.7262,0.28526 -1.20983,0.22999 -0.73897,-0.0845 -1.04021,-0.41762 -1.88714,-2.0873 -0.55427,-1.09272 -1.24321,-2.3328 -1.53097,-2.75575 -0.28773,-0.42292 -0.59445,-0.9428 -0.68153,-1.15533 -0.54319,-1.32512 -5.53921,-6.25684 -7.34762,-7.25305 -2.08712,-1.14973 -4.52348,-2.31189 -4.8467,-2.31189 -0.19948,0 -0.60194,-0.12297 -0.89439,-0.27325 -0.86203,-0.443 -4.1016,-0.95153 -6.06173,-0.95153 -1.66258,0 -4.90107,0.54016 -6.41153,1.06942 -3.3366,1.16908 -5.87535,3.39095 -7.40042,6.47665 -1.06813,2.16119 -1.12033,2.41233 -1.12202,5.39791 -0.003,3.0572 0.34092,4.71154 1.37797,6.65247 1.57268,2.94351 5.17423,6.63337 9.59402,9.82925 2.77382,2.00569 8.37035,5.78667 8.56534,5.78667 0.0576,0 1.44438,0.89562 3.08163,1.99027 1.63725,1.09464 3.04235,1.99026 3.12248,1.99026 0.0801,0 1.75012,1.20479 3.71111,2.67728 3.27894,2.46217 9.84243,8.60774 9.84243,9.21575 0,0.14271 0.319,0.63076 0.70887,1.08448 0.82765,0.96319 2.46888,4.15735 2.92894,5.70036 0.17575,0.58942 0.4727,1.55394 0.65988,2.14336 0.65394,2.05913 0.73606,6.8248 0.1594,9.25191 -0.90875,3.82492 -1.22468,4.61527 -3.478,8.70025 -1.13617,2.05974 -8.47258,8.36991 -9.74681,8.38336 -0.14575,0 -0.95395,0.34171 -1.79598,0.75593 -0.84204,0.41419 -1.81344,0.7574 -2.15867,0.76267 -0.34524,0.005 -0.7586,0.14021 -0.91859,0.29986 -0.60449,0.6032 -4.15224,1.03199 -9.48961,1.14694 -3.03843,0.0654 -5.61469,0.0288 -5.72504,-0.0817 z m 53.79093,-1.47751 c -0.10138,-0.40387 -0.13846,-1.05836 -0.0824,-1.45442 0.0886,-0.62605 0.32188,-0.7466 1.78601,-0.92303 5.04489,-0.60795 6.78487,-1.73918 7.8673,-5.11476 0.51995,-1.62158 0.55305,-3.81457 0.55305,-36.6551 l 0,-34.93031 -0.84293,-1.65994 c -1.28344,-2.52742 -4.29046,-4.19535 -7.64812,-4.24229 -1.26548,-0.0178 -1.47191,-0.11311 -1.63291,-0.75462 -0.10138,-0.40387 -0.13846,-1.05836 -0.0824,-1.45442 l 0.10194,-0.72008 16.82101,-0.0792 c 11.51616,-0.0542 16.88375,0.0224 17.01997,0.24281 0.10947,0.1771 0.11642,0.83279 0.0156,1.45706 l -0.18353,1.13506 -2.75153,0.20528 c -4.12545,0.30781 -6.21057,1.29201 -7.24707,3.42074 -0.25892,0.5318 -0.66233,1.3667 -0.89645,1.85532 -0.35583,0.74265 -0.42567,6.67158 -0.42567,36.13096 l 0,35.24253 0.89473,1.76677 c 1.40574,2.77584 3.24187,3.71518 8.11734,4.15283 2.09976,0.18849 2.29171,0.26418 2.48146,0.97838 0.11311,0.42573 0.0924,1.08022 -0.046,1.45442 l -0.25169,0.68034 -16.69161,0 -16.69165,0 -0.1843,-0.73435 z M 582.0958,252.88327 c -1.25824,-0.2294 -2.63612,-0.53976 -3.06194,-0.68968 -0.42586,-0.14988 -1.32543,-0.44542 -1.99905,-0.65669 -3.38811,-1.06268 -6.66099,-2.83996 -11.1761,-6.06896 -1.76827,-1.26458 -3.28394,-2.38186 -3.36814,-2.48284 -0.0842,-0.10098 -1.11761,-0.96938 -2.29646,-1.92979 -1.17885,-0.96041 -2.55672,-2.11204 -3.06195,-2.55914 -0.50522,-0.44711 -1.53862,-1.31444 -2.29645,-1.92744 -0.75784,-0.61297 -1.86014,-1.56113 -2.44956,-2.10698 -0.58942,-0.54589 -1.16519,-0.9937 -1.27946,-0.99514 -0.11428,0 -0.39117,-0.18607 -0.61533,-0.41024 -0.49402,-0.49401 -4.78726,-3.57295 -4.98209,-3.57295 -0.0761,0 -0.64415,-0.34321 -1.26229,-0.7627 -2.63588,-1.78873 -5.5119,-2.89988 -8.29077,-3.2031 -4.25855,-0.46468 -6.7853,-0.88202 -7.43051,-1.22735 -0.32717,-0.17508 -0.94024,-0.31835 -1.36239,-0.31835 -0.42215,0 -0.84289,-0.1219 -0.93496,-0.27089 -0.0921,-0.14899 -0.54803,-0.33991 -1.01323,-0.42429 -2.95909,-0.53664 -9.81176,-3.86182 -13.78628,-6.68965 -5.02413,-3.57458 -10.91921,-9.98911 -13.33324,-14.50808 -1.01654,-1.90287 -2.96783,-6.25525 -2.96783,-6.61974 0,-0.43379 -0.56137,-2.26425 -0.97881,-3.19162 -0.41094,-0.91295 -0.83352,-3.76037 -1.19091,-8.02447 -0.40197,-4.79611 0.22236,-12.9783 1.19446,-15.65447 0.16051,-0.44192 0.46043,-1.42353 0.66647,-2.18136 0.7379,-2.71416 2.19407,-6.12429 4.11369,-9.63375 0.43948,-0.80346 3.83261,-5.59326 4.7801,-6.74766 2.23099,-2.71817 6.09406,-6.19472 9.18641,-8.26725 1.25638,-0.84203 2.35323,-1.60552 2.43743,-1.69664 0.40075,-0.43368 8.56108,-4.27415 9.08179,-4.27415 0.32668,0 0.72486,-0.1145 0.88484,-0.25444 0.25745,-0.22519 1.91179,-0.72053 5.3431,-1.59981 3.15264,-0.80788 5.86448,-1.03645 12.40088,-1.04518 5.58419,-0.007 7.61309,0.10466 9.79822,0.54148 3.84519,0.7687 5.00083,1.03616 6.58318,1.52365 1.39475,0.42969 1.63236,0.51388 3.82744,1.3562 0.67362,0.2585 1.50035,0.57406 1.83716,0.70124 0.33682,0.12719 1.50801,0.68508 2.60266,1.23976 1.09464,0.55469 2.29921,1.15751 2.67681,1.33962 0.3776,0.18211 0.68762,0.43445 0.68893,0.56075 0,0.12631 0.14606,0.22965 0.32166,0.22965 0.1756,0 1.06534,0.55115 1.97719,1.22477 0.91185,0.67363 1.7387,1.22478 1.83744,1.22478 0.6341,0 9.03247,8.45484 9.03247,9.09322 0,0.09 0.44781,0.80217 0.99513,1.58257 1.35078,1.92597 1.63183,2.39925 2.4792,4.17465 2.00435,4.19952 2.61756,5.89493 3.59928,9.95132 1.15478,4.77155 1.15083,14.04692 -0.008,19.74954 -1.83453,9.02463 -6.78285,18.13104 -13.31055,24.49557 -2.46566,2.40405 -6.8797,5.97079 -7.38915,5.97079 -0.11154,0 -0.63507,0.31002 -1.16338,0.68894 -1.20181,0.86196 -7.22028,3.90398 -7.72382,3.90398 -0.20509,0 -0.76754,0.20582 -1.24991,0.45739 -0.48238,0.2516 -1.11002,0.45828 -1.39481,0.45929 -0.28476,0 -0.60293,0.13969 -0.70701,0.3081 -0.10407,0.1684 -0.60458,0.30619 -1.11219,0.30619 -0.69212,0 -0.89822,0.12581 -0.82397,0.50302 0.0544,0.27667 0.30568,0.59971 0.55829,0.7179 1.84222,0.86185 5.31884,2.79577 5.5115,3.06583 0.0842,0.11804 0.77008,0.60122 1.52414,1.07374 0.7541,0.47252 1.55829,1.04635 1.78714,1.27517 0.22882,0.22885 0.92085,0.79293 1.5378,1.25347 0.61695,0.46058 1.30898,1.01485 1.53789,1.2317 0.22888,0.21688 2.02012,1.8014 3.98053,3.52121 1.96038,1.7198 4.0466,3.57353 4.63603,4.11942 0.58942,0.54588 1.24391,0.99372 1.45442,0.99516 0.21051,0.003 0.38275,0.11332 0.38275,0.24857 0,0.13527 0.80048,0.81043 1.77883,1.50041 4.14726,2.92471 9.77217,5.29616 12.56215,5.29616 2.8011,0 3.14808,0.59395 1.48287,2.53829 -0.79374,0.92682 -1.36161,1.24826 -2.82078,1.59662 -2.26505,0.5408 -7.20044,0.52858 -10.23853,-0.0254 z m -31.85301,-31.36293 c 3.17701,-0.44184 4.07193,-0.6341 5.09847,-1.09538 0.5307,-0.23846 1.11816,-0.43357 1.30549,-0.43357 0.18733,0 0.57988,-0.12294 0.87232,-0.27322 0.29242,-0.15028 1.4273,-0.71637 2.52194,-1.25797 6.60973,-3.27034 11.39154,-8.86194 15.31815,-17.91216 0.33023,-0.76117 1.67194,-5.08843 2.08861,-6.73628 1.72682,-6.82893 1.72963,-18.151 0.006,-25.10795 -0.58713,-2.37024 -1.24872,-4.59856 -1.52148,-5.12461 -0.15172,-0.29242 -0.27579,-0.7421 -0.27579,-0.99928 0,-0.25718 -0.12716,-0.70686 -0.28259,-0.99929 -0.15542,-0.29243 -0.90924,-1.86052 -1.67513,-3.48467 -1.9887,-4.21717 -5.51284,-9.14349 -8.45289,-11.8161 -1.36878,-1.24426 -5.02539,-3.96496 -6.12389,-4.55648 -0.58943,-0.31739 -1.14058,-0.66005 -1.22478,-0.76146 -0.13984,-0.16842 -1.00129,-0.57297 -3.52124,-1.65367 -2.72347,-1.16798 -5.52231,-1.98938 -6.7785,-1.98938 -0.49885,0 -1.05297,-0.146 -1.23142,-0.32444 -0.21544,-0.21545 -2.37029,-0.28195 -6.41478,-0.19796 -5.74399,0.11929 -9.08908,0.51672 -9.74936,1.15832 -0.15998,0.15547 -0.54077,0.28266 -0.84619,0.28266 -0.3054,0 -0.79455,0.11877 -1.08699,0.26392 -0.29242,0.14516 -1.35305,0.66186 -2.35691,1.14823 -7.66264,3.71249 -13.85358,11.45282 -17.23826,21.55244 -0.42328,1.26306 -0.88502,2.84761 -1.02608,3.52124 -0.14107,0.67363 -0.47258,2.25818 -0.73677,3.52124 -1.07073,5.11975 -0.91267,14.00221 0.35148,19.74954 0.46875,2.13103 1.79249,6.79115 2.26143,7.96106 0.81096,2.02315 3.78126,7.80796 4.00913,7.80796 0.14985,0 0.27245,0.14697 0.27245,0.32662 0,0.48544 3.57329,5.11363 5.193,6.72605 2.11017,2.10071 7.52411,6.1137 8.24802,6.1137 0.14449,0 0.43427,0.20668 0.64393,0.45929 0.20965,0.25261 0.63988,0.45929 0.95606,0.45929 0.31621,0 0.57491,0.13779 0.57491,0.30619 0,0.16841 0.21988,0.3062 0.48859,0.3062 0.26872,0 0.85432,0.19587 1.30133,0.43529 4.23789,2.26966 12.94701,3.47077 19.03131,2.62463 z m 70.57783,2.71289 c -7.45372,-0.90309 -13.42277,-3.64745 -15.72011,-7.22757 -1.5713,-2.44864 -1.21232,-4.93678 0.99323,-6.88414 1.26421,-1.11623 3.77045,-1.18703 5.59377,-0.158 1.83582,1.0361 3.48257,2.21088 4.84639,3.4574 2.08632,1.90685 5.42662,4.26118 7.34867,5.17952 1.01044,0.48278 2.07643,0.99323 2.36884,1.13436 0.7564,0.36501 7.19971,0.32199 7.42938,-0.0496 0.10408,-0.16841 0.44396,-0.3062 0.75529,-0.3062 0.31134,0 1.30219,-0.37077 2.20185,-0.8239 2.48057,-1.24943 4.56524,-2.96945 6.84504,-5.64761 0.87657,-1.02976 3.21109,-4.78153 3.21109,-5.16054 0,-0.17481 0.13111,-0.55709 0.29138,-0.84954 0.9327,-1.70201 1.36382,-3.20236 2.48853,-8.66016 0.5269,-2.55694 0.0615,-8.16164 -0.92691,-11.16177 -1.6345,-4.96118 -4.67149,-8.82146 -8.41511,-10.69626 -2.249,-1.12631 -2.4281,-1.16397 -5.49577,-1.15607 -1.74405,0.005 -3.43029,0.15181 -3.74727,0.32735 -0.31694,0.17558 -1.12741,0.56108 -1.80103,0.85668 -0.67363,0.2956 -1.76215,0.92231 -2.41894,1.39272 -0.65682,0.47038 -1.38241,0.85523 -1.61248,0.85523 -0.39414,0 -1.58731,-2.03362 -1.30531,-2.22471 0.74289,-0.50339 6.92986,-6.07279 9.44433,-8.5016 1.22043,-1.17885 4.8142,-5.31759 5.76539,-6.63964 5.38012,-7.47784 4.21058,-15.92609 -2.83052,-20.44637 -0.84203,-0.54057 -1.87544,-1.06284 -2.29646,-1.1606 -0.42102,-0.0978 -1.38553,-0.3379 -2.14336,-0.53363 -6.47727,-1.67296 -15.8584,4.11388 -20.04867,12.36722 -0.33054,0.65102 -0.75746,1.24372 -0.94871,1.31711 -0.32074,0.12308 -2.5796,-1.02351 -2.5796,-1.30941 0,-0.46827 2.67437,-5.38886 4.08038,-7.50757 2.92483,-4.40732 6.74087,-7.86778 11.01608,-9.98955 4.01571,-1.99301 5.7492,-2.46732 10.01149,-2.73938 2.11348,-0.13489 5.56916,0.37554 7.50177,1.10809 5.77161,2.1877 9.53756,6.08939 11.00426,11.40099 1.85426,6.71515 -2.31884,15.45325 -10.08556,21.11826 -1.99837,1.45761 -3.10129,2.39138 -2.89017,2.44691 0.0738,0.0194 1.29659,0.0863 2.71718,0.14863 1.42058,0.0623 2.72268,0.25311 2.89353,0.42397 0.17086,0.17087 0.59313,0.31119 0.93837,0.31182 1.31783,0.002 5.78319,2.64085 7.89896,4.66724 1.81362,1.73702 4.68471,5.99832 5.20981,7.73249 0.10199,0.33681 0.41902,1.23243 0.70455,1.99026 0.64007,1.69895 1.33688,6.00757 1.33697,8.26725 2.4e-4,4.46928 -1.29582,9.66908 -3.43434,13.77876 -3.73965,7.18666 -10.11422,13.25984 -17.36524,16.54424 -0.75783,0.34327 -1.61714,0.7571 -1.90955,0.91959 -0.29245,0.1625 -0.7816,0.29545 -1.08699,0.29545 -0.30543,0 -0.68622,0.12327 -0.8462,0.27392 -1.18657,1.11743 -10.50554,2.06146 -14.98823,1.51836 z"
       id="path3050"
       inkscape:connector-curvature="0" />
  </g>
</svg>
