<?xml version="1.0" encoding="UTF-8" standalone="no"?>
<!-- Created with Inkscape (http://www.inkscape.org/) -->

<svg
   xmlns:dc="http://purl.org/dc/elements/1.1/"
   xmlns:cc="http://creativecommons.org/ns#"
   xmlns:rdf="http://www.w3.org/1999/02/22-rdf-syntax-ns#"
   xmlns:svg="http://www.w3.org/2000/svg"
   xmlns="http://www.w3.org/2000/svg"
   xmlns:sodipodi="http://sodipodi.sourceforge.net/DTD/sodipodi-0.dtd"
   xmlns:inkscape="http://www.inkscape.org/namespaces/inkscape"
   width="99.999954"
   height="49.344387"
   id="svg2"
   version="1.1"
   inkscape:version="0.48.3.1 r9886"
   sodipodi:docname="musiq3.svg">
  <sodipodi:namedview
     id="base"
     pagecolor="#ffffff"
     bordercolor="#666666"
     borderopacity="1.0"
     inkscape:pageopacity="0.0"
     inkscape:pageshadow="2"
     inkscape:zoom="0.81347656"
     inkscape:cx="30.577739"
     inkscape:cy="-127.47492"
     inkscape:document-units="px"
     inkscape:current-layer="layer1"
     showgrid="false"
     inkscape:window-width="1375"
     inkscape:window-height="876"
     inkscape:window-x="65"
     inkscape:window-y="24"
     inkscape:window-maximized="1"
     fit-margin-top="0"
     fit-margin-left="0"
     fit-margin-right="0"
     fit-margin-bottom="0" />
  <defs
     id="defs4" />
  <metadata
     id="metadata7">
    <rdf:RDF>
      <cc:Work
         rdf:about="">
        <dc:format>image/svg+xml</dc:format>
        <dc:type
           rdf:resource="http://purl.org/dc/dcmitype/StillImage" />
        <dc:title></dc:title>
      </cc:Work>
    </rdf:RDF>
  </metadata>
  <g
     transform="translate(-105.93967,-355.54289)"
     id="layer1"
     inkscape:groupmode="layer"
     inkscape:label="Layer 1">
    <path
       inkscape:connector-curvature="0"
       id="path3050"
       d="m 138.30056,404.83601 c -0.10629,-0.0252 -0.37963,-0.0702 -0.6074,-0.10002 -0.6075,-0.0794 -1.38245,-0.26548 -1.46983,-0.35286 -0.0217,-0.0217 -0.0731,-0.0395 -0.11422,-0.0395 -0.15219,0 -1.37998,-0.63129 -1.50821,-0.77546 -0.0152,-0.0171 -0.127,-0.10296 -0.24848,-0.19085 -0.75219,-0.5442 -1.61114,-1.75835 -1.89464,-2.67813 -0.34194,-1.10936 -0.34172,-1.10567 -0.34172,-5.89876 0,-3.96061 -0.01,-4.46522 -0.0921,-4.7731 -0.0905,-0.33813 -0.28751,-0.67703 -0.45703,-0.78604 -0.19016,-0.12227 -0.77127,-0.24806 -1.1469,-0.24827 -0.44058,0 -0.53729,-0.0726 -0.50231,-0.37567 l 0.0172,-0.14912 3.24411,-0.0143 3.2441,-0.0142 0,0.24301 c 0,0.29293 -0.0319,0.31006 -0.57757,0.31006 -0.3925,0 -0.6426,0.0654 -0.99617,0.26055 -0.27785,0.15335 -0.44391,0.42047 -0.55811,0.89775 -0.10543,0.44067 -0.10402,8.02376 0.002,8.78108 0.0708,0.50714 0.16735,0.95827 0.25423,1.1872 0.28248,0.74445 0.53089,1.20144 0.85377,1.57068 0.27514,0.31465 0.59477,0.61297 0.83488,0.77921 0.30724,0.21272 1.05699,0.60432 1.15704,0.60432 0.0445,0 0.1241,0.0238 0.17683,0.053 0.10999,0.0608 0.48849,0.14992 1.007,0.23717 0.44664,0.0752 2.16793,0.0741 2.6505,-0.002 0.54666,-0.0858 0.81173,-0.15748 1.34778,-0.36452 0.36011,-0.13909 0.83119,-0.41044 1.15387,-0.66466 0.35727,-0.28147 0.88142,-0.85515 0.91216,-0.99836 0.01,-0.0457 0.0352,-0.0832 0.0565,-0.0832 0.0664,0 0.43471,-0.78012 0.51649,-1.09401 0.27107,-1.04034 0.25932,-0.80197 0.26229,-5.32248 0.003,-4.39837 -0.001,-4.48931 -0.22599,-4.98619 -0.22417,-0.49561 -0.79493,-0.78078 -1.70388,-0.85135 l -0.41414,-0.0322 -0.0169,-0.26278 -0.0168,-0.26277 2.94345,0.0143 2.94344,0.0143 0,0.24849 0,0.24848 -0.41414,0.0349 c -0.22778,0.0192 -0.48869,0.0662 -0.5798,0.10439 -0.0911,0.0382 -0.24497,0.10377 -0.34192,0.14564 -0.21718,0.0938 -0.62441,0.50073 -0.62441,0.62393 0,0.0498 -0.0234,0.11422 -0.052,0.14307 -0.17334,0.17469 -0.19167,0.57241 -0.22628,4.91171 -0.0308,3.85897 -0.0457,4.40688 -0.12963,4.74882 -0.0521,0.21259 -0.11518,0.4735 -0.14007,0.57979 -0.1089,0.46517 -0.45995,1.22612 -0.81709,1.7711 -0.34062,0.51978 -1.04464,1.22678 -1.56147,1.56807 -0.98705,0.6518 -1.8906,0.98463 -3.09225,1.13905 -0.22778,0.0293 -0.52011,0.0773 -0.64962,0.10669 -0.28031,0.0636 -1.78063,0.059 -2.0561,-0.006 z m -32.26158,-0.19912 c -0.11473,-0.03 -0.13687,-0.39658 -0.0304,-0.50308 0.0402,-0.0402 0.23535,-0.0663 0.49585,-0.0663 0.43428,0 0.78698,-0.0961 1.00167,-0.27307 0.13964,-0.11507 0.36887,-0.47705 0.36887,-0.58248 0,-0.0466 0.0228,-0.12782 0.0506,-0.18055 0.0759,-0.14365 0.17881,-1.08579 0.23074,-2.11137 0.0254,-0.50111 0.0707,-1.39458 0.10081,-1.98548 0.0301,-0.5909 0.081,-1.4109 0.11307,-1.82222 0.0321,-0.41132 0.0682,-0.94664 0.0802,-1.1896 0.0998,-2.02271 0.14844,-2.83177 0.19675,-3.26954 0.0309,-0.27973 0.0561,-1.01696 0.0561,-1.63829 0,-0.95897 -0.0141,-1.15422 -0.0932,-1.29203 -0.12423,-0.21646 -0.41268,-0.40731 -0.69676,-0.46101 -0.70519,-0.13331 -0.67201,-0.11819 -0.69094,-0.31475 -0.0335,-0.34737 -0.07,-0.34087 1.91976,-0.34087 l 1.80583,0 0.12006,0.1278 c 0.066,0.0703 0.12007,0.14533 0.12007,0.16676 0,0.0214 0.10182,0.25589 0.22627,0.52102 0.23488,0.5004 0.36706,0.78467 0.64777,1.39317 0.0911,0.19741 0.30109,0.64468 0.46671,0.99394 0.16563,0.34926 0.3569,0.75926 0.42505,0.91111 0.0681,0.15185 0.21004,0.46245 0.31532,0.69023 0.10528,0.22778 0.25453,0.55081 0.33166,0.71785 0.0771,0.16703 0.19945,0.42402 0.27181,0.57109 0.0724,0.14705 0.13156,0.30236 0.13156,0.34511 0,0.0428 0.0249,0.0777 0.0552,0.0777 0.0304,0 0.0552,0.0272 0.0552,0.0605 0,0.0333 0.0894,0.25071 0.1986,0.48317 0.33004,0.70239 0.50048,1.06747 0.67419,1.44419 0.091,0.19741 0.25719,0.55771 0.36923,0.80067 0.11205,0.24297 0.28639,0.61569 0.38743,0.82829 0.10104,0.21259 0.25785,0.54804 0.34847,0.74545 0.48656,1.05995 0.58201,1.26579 0.70448,1.5193 0.0736,0.15229 0.13376,0.3076 0.13376,0.34512 0,0.12895 0.16807,0.0681 0.23101,-0.0836 0.0632,-0.15232 0.22155,-0.49657 0.65414,-1.42189 0.12779,-0.27333 0.28958,-0.62121 0.35954,-0.77306 0.07,-0.15185 0.21335,-0.46246 0.31863,-0.69024 0.10528,-0.22777 0.24639,-0.53838 0.31358,-0.69023 0.12346,-0.27903 0.50183,-1.09369 0.74374,-1.60135 0.18209,-0.38214 0.49043,-1.05007 0.63727,-1.38047 0.1237,-0.27834 0.3549,-0.77918 0.68824,-1.4909 0.0996,-0.2126 0.22552,-0.48593 0.27991,-0.60741 0.0969,-0.21642 0.34312,-0.74798 0.72903,-1.57374 0.39104,-0.83675 0.82911,-1.78476 0.97566,-2.11137 0.0509,-0.11348 0.13963,-0.23151 0.19714,-0.26229 0.0643,-0.0344 0.77535,-0.056 1.84654,-0.056 l 1.74197,0 0.0332,0.13243 c 0.074,0.29469 0.0166,0.37963 -0.30723,0.45491 -0.16703,0.0388 -0.39787,0.0717 -0.51297,0.0729 -0.2831,0.003 -0.63718,0.19168 -0.70871,0.37732 -0.0566,0.14692 -0.0409,0.60438 0.1164,3.3799 0.0301,0.53148 0.0799,1.14749 0.11066,1.36892 0.0307,0.22143 0.0559,0.62475 0.0559,0.89628 0,0.27153 0.0241,0.66188 0.0536,0.86744 0.0295,0.20556 0.0825,0.84587 0.11781,1.42291 0.3134,5.12113 0.37619,5.73528 0.62517,6.11527 0.18288,0.27912 0.46632,0.37294 1.12674,0.37294 0.38889,0 0.61759,0.0229 0.66092,0.0663 0.10791,0.1079 0.0819,0.41846 -0.0405,0.48398 -0.11533,0.0617 -6.16348,0.0843 -6.32167,0.0236 -0.12209,-0.0469 -0.12209,-0.49353 0,-0.54037 0.048,-0.0184 0.24633,-0.0335 0.44064,-0.0335 0.65182,0 1.34242,-0.35847 1.54254,-0.80067 0.12183,-0.26923 0.13814,-0.55747 0.0843,-1.49091 -0.028,-0.48593 -0.0761,-1.36805 -0.10686,-1.96027 -0.0308,-0.59222 -0.071,-1.22586 -0.0894,-1.40808 -0.0429,-0.42394 -0.11572,-1.61902 -0.18847,-3.09225 -0.0315,-0.63778 -0.0714,-1.23414 -0.0888,-1.32525 -0.0173,-0.0911 -0.0547,-0.58808 -0.0831,-1.10438 -0.0693,-1.25945 -0.11408,-1.73939 -0.16242,-1.73939 -0.0222,0 -0.085,0.11803 -0.13969,0.26229 -0.0547,0.14426 -0.1791,0.43623 -0.27652,0.64882 -0.0974,0.21259 -0.23276,0.51078 -0.30077,0.66263 -0.068,0.15185 -0.20433,0.45003 -0.30296,0.66262 -0.0986,0.2126 -0.21795,0.4735 -0.26519,0.5798 -0.18736,0.42161 -0.39256,0.87426 -0.56322,1.24242 -0.0985,0.2126 -0.21782,0.4735 -0.26506,0.5798 -0.0831,0.18709 -0.20796,0.46306 -0.54945,1.21481 -0.0897,0.19741 -0.19578,0.43347 -0.23579,0.52458 -0.04,0.0911 -0.17451,0.38552 -0.29888,0.65424 -0.12436,0.26872 -0.22612,0.49675 -0.22612,0.50674 0,0.01 -0.0837,0.20013 -0.18605,0.42253 -0.10233,0.2224 -0.24838,0.54103 -0.32456,0.70807 -0.22548,0.49445 -0.48317,1.05766 -0.61899,1.35286 -0.0699,0.15185 -0.1704,0.37549 -0.22342,0.49697 -0.053,0.12148 -0.17674,0.39482 -0.27496,0.60741 -0.0982,0.21259 -0.21723,0.4735 -0.26447,0.57979 -0.13133,0.29552 -0.36583,0.81218 -0.57199,1.26026 -0.10233,0.22241 -0.18606,0.42451 -0.18606,0.44912 0,0.0579 -0.20128,0.11113 -0.424,0.11209 -0.27289,10e-4 -0.25632,0.0262 -0.91171,-1.37971 -0.32882,-0.7054 -0.45548,-0.97816 -0.6795,-1.4633 -0.11218,-0.24296 -0.27974,-0.60327 -0.37233,-0.80068 -0.45395,-0.96777 -0.5446,-1.16186 -0.72206,-1.54612 -0.10519,-0.22778 -0.24659,-0.53838 -0.31421,-0.69024 -0.0676,-0.15185 -0.23402,-0.51215 -0.36976,-0.80067 -0.13573,-0.28852 -0.31024,-0.66124 -0.38778,-0.82828 -0.0776,-0.16704 -0.23964,-0.51492 -0.36022,-0.77306 -0.43499,-0.9313 -0.83572,-1.80052 -0.98011,-2.12593 -0.0674,-0.15185 -0.25324,-0.54942 -0.41303,-0.8835 -0.26777,-0.55981 -0.40715,-0.86486 -0.49201,-1.07676 -0.0183,-0.0456 -0.0554,-0.1201 -0.0826,-0.16566 -0.10391,-0.17417 -0.33782,-0.69452 -0.33782,-0.75149 0,-0.0328 -0.0497,-0.10465 -0.11044,-0.15962 -0.10834,-0.0981 -0.11051,-0.0964 -0.11447,0.0881 -0.002,0.10341 -0.0263,0.62287 -0.0535,1.15435 -0.0272,0.53148 -0.0724,1.42603 -0.10038,1.98788 -0.028,0.56185 -0.0671,1.10852 -0.0869,1.21481 -0.0198,0.1063 -0.0595,0.70266 -0.0882,1.32525 -0.12523,2.7165 -0.16749,3.47555 -0.21472,3.85669 -0.0276,0.22304 -0.0533,0.8277 -0.0571,1.3437 -0.007,0.92865 -0.005,0.94058 0.14159,1.17281 0.0816,0.12904 0.23573,0.29444 0.34243,0.36755 0.26356,0.1806 0.75067,0.32546 1.09768,0.32644 0.31882,9e-4 0.33676,0.0152 0.37296,0.29801 0.0198,0.15473 0.002,0.211 -0.0788,0.25444 -0.1028,0.055 -4.88855,0.0717 -5.09497,0.0177 z m 51.07797,-15.9518 c -0.0199,-0.0199 -0.20522,-0.0688 -0.41182,-0.10878 -0.2066,-0.0399 -0.47503,-0.0976 -0.59651,-0.1281 -0.12148,-0.0305 -0.33269,-0.0824 -0.46936,-0.11537 -0.13666,-0.0329 -0.29818,-0.0824 -0.35892,-0.10991 -0.0607,-0.0275 -0.18498,-0.0661 -0.27609,-0.0858 -0.46009,-0.0992 -0.51192,-0.0956 -0.72558,0.0495 -0.20389,0.13855 -0.48168,0.18517 -0.60318,0.10123 -0.0536,-0.037 -0.12784,-0.49779 -0.24682,-1.53147 -0.0245,-0.21259 -0.0864,-0.68472 -0.13764,-1.04916 -0.0512,-0.36444 -0.10514,-0.8055 -0.11979,-0.98013 l -0.0266,-0.31751 0.28099,0 c 0.24324,0 0.28101,0.0147 0.28101,0.10932 0,0.13517 0.14882,0.54616 0.38032,1.05027 0.14185,0.3089 0.69494,1.0635 0.9548,1.3027 0.26313,0.24219 0.83901,0.64013 1.03928,0.71815 0.23827,0.0928 0.31783,0.12497 0.46936,0.1897 0.58046,0.24796 1.98224,0.24615 2.59529,-0.003 0.0911,-0.0371 0.22778,-0.0921 0.3037,-0.12216 0.0759,-0.0301 0.17532,-0.0768 0.22088,-0.1037 0.0455,-0.0269 0.13968,-0.0735 0.20917,-0.10347 0.0695,-0.03 0.30635,-0.23492 0.52636,-0.45542 0.59042,-0.59174 0.8094,-1.11849 0.8094,-1.94703 0,-0.52516 -0.0797,-0.8766 -0.28553,-1.25965 -0.18982,-0.35318 -0.67655,-0.93749 -1.02731,-1.23327 -0.1732,-0.14605 -0.32735,-0.28131 -0.34253,-0.30057 -0.0611,-0.0775 -1.27081,-0.93378 -1.31922,-0.93378 -0.0286,0 -0.0603,-0.0197 -0.0705,-0.0439 -0.0148,-0.0352 -0.68046,-0.4784 -1.13669,-0.75678 -0.0498,-0.0304 -0.1167,-0.0743 -0.14873,-0.0975 -0.032,-0.0233 -0.34396,-0.2436 -0.69319,-0.48961 -1.0694,-0.75333 -1.65495,-1.29134 -2.16887,-1.9928 -0.30539,-0.41685 -0.59213,-0.96781 -0.59213,-1.13778 0,-0.0538 -0.0311,-0.12893 -0.069,-0.16687 -0.0492,-0.0491 -0.069,-0.31047 -0.069,-0.90835 0,-0.67121 0.02,-0.89405 0.0996,-1.11231 0.20453,-0.56053 0.58271,-1.14636 0.97472,-1.50991 0.23377,-0.2168 0.7424,-0.56395 0.82628,-0.56395 0.0328,0 0.0598,-0.0186 0.0599,-0.0414 0,-0.0228 0.11814,-0.0871 0.26229,-0.14297 0.14415,-0.0559 0.31178,-0.1223 0.37252,-0.14764 0.28255,-0.11788 0.76936,-0.21924 1.32525,-0.27593 0.49289,-0.0503 0.73753,-0.0464 1.29764,0.0208 0.74685,0.0895 1.21182,0.18347 1.29488,0.26169 0.0289,0.0272 0.10814,0.0494 0.1762,0.0494 0.0681,0 0.13777,0.0227 0.1549,0.0504 0.0171,0.0277 0.1303,0.0672 0.25146,0.0876 0.12116,0.0205 0.23432,0.0599 0.25146,0.0876 0.0171,0.0277 0.17444,0.0504 0.34958,0.0504 0.26826,0 0.33886,-0.0217 0.44812,-0.13804 0.15834,-0.16855 0.4649,-0.19069 0.54587,-0.0394 0.0507,0.0948 0.11843,0.58036 0.22877,1.64075 0.0284,0.27334 0.0749,0.60879 0.10326,0.74546 0.0788,0.38007 0.0897,0.76626 0.0234,0.83253 -0.0328,0.0328 -0.13096,0.0514 -0.21818,0.0415 -0.13326,-0.0152 -0.18759,-0.0753 -0.34032,-0.37642 -0.1,-0.19706 -0.2242,-0.4207 -0.2761,-0.49697 -0.0519,-0.0763 -0.1072,-0.17002 -0.1229,-0.20835 -0.098,-0.23897 -0.99894,-1.12835 -1.32506,-1.30801 -0.37639,-0.20734 -0.81576,-0.41692 -0.87405,-0.41692 -0.036,0 -0.10856,-0.0222 -0.1613,-0.0493 -0.15545,-0.0799 -0.73967,-0.1716 -1.09316,-0.1716 -0.29983,0 -0.88386,0.0974 -1.15625,0.19286 -0.60172,0.21083 -1.05955,0.61152 -1.33458,1.16799 -0.19263,0.38975 -0.20204,0.43504 -0.20235,0.97346 -5.4e-4,0.55133 0.0615,0.84967 0.2485,1.19969 0.28362,0.53083 0.93312,1.19626 1.73018,1.7726 0.50023,0.3617 1.5095,1.04356 1.54466,1.04356 0.0104,0 0.26048,0.16152 0.55574,0.35893 0.29526,0.1974 0.54865,0.35892 0.56311,0.35892 0.0144,0 0.31561,0.21727 0.66925,0.48281 0.59132,0.44403 1.77498,1.55232 1.77498,1.66196 0,0.0257 0.0575,0.11375 0.12783,0.19558 0.14926,0.1737 0.44524,0.74973 0.5282,1.02799 0.0317,0.1063 0.0853,0.28024 0.11901,0.38653 0.11793,0.37135 0.13274,1.23078 0.0287,1.66848 -0.16388,0.68979 -0.22085,0.83232 -0.62722,1.569 -0.20489,0.37145 -1.52793,1.50942 -1.75773,1.51184 -0.0263,0 -0.17203,0.0616 -0.32388,0.13633 -0.15185,0.0747 -0.32703,0.13659 -0.38929,0.13754 -0.0623,9e-4 -0.13681,0.0253 -0.16566,0.0541 -0.10901,0.10878 -0.74881,0.18611 -1.71135,0.20684 -0.54794,0.0118 -1.01254,0.005 -1.03244,-0.0147 z m 9.70059,-0.26645 c -0.0183,-0.0728 -0.025,-0.19087 -0.0149,-0.26229 0.016,-0.1129 0.058,-0.13464 0.32209,-0.16646 0.90979,-0.10964 1.22358,-0.31364 1.41878,-0.92239 0.0938,-0.29243 0.0997,-0.68792 0.0997,-6.61034 l 0,-6.29929 -0.15201,-0.29936 c -0.23146,-0.45579 -0.77374,-0.75658 -1.37926,-0.76505 -0.22821,-0.003 -0.26544,-0.0204 -0.29448,-0.13608 -0.0183,-0.0728 -0.025,-0.19087 -0.0149,-0.26229 l 0.0184,-0.12986 3.03348,-0.0143 c 2.07681,-0.01 3.0448,0.004 3.06936,0.0438 0.0197,0.0319 0.021,0.15019 0.003,0.26277 l -0.0331,0.20469 -0.49621,0.037 c -0.74398,0.0555 -1.12001,0.233 -1.30693,0.6169 -0.0467,0.0959 -0.11944,0.24647 -0.16166,0.33458 -0.0642,0.13393 -0.0768,1.20315 -0.0768,6.51582 l 0,6.3556 0.16136,0.31862 c 0.25351,0.50059 0.58463,0.66999 1.46387,0.74892 0.37867,0.034 0.41328,0.0476 0.4475,0.17644 0.0204,0.0768 0.0167,0.1948 -0.008,0.26228 l -0.0454,0.1227 -3.01015,0 -3.01015,0 -0.0332,-0.13244 z m 24.99161,-10.94327 c -0.22691,-0.0414 -0.47539,-0.0973 -0.55218,-0.12438 -0.0768,-0.027 -0.23903,-0.0803 -0.36051,-0.11843 -0.61101,-0.19164 -1.20124,-0.51215 -2.01549,-1.09447 -0.31888,-0.22805 -0.59222,-0.42954 -0.6074,-0.44775 -0.0152,-0.0182 -0.20155,-0.17481 -0.41414,-0.34801 -0.2126,-0.1732 -0.46108,-0.38089 -0.55219,-0.46152 -0.0911,-0.0806 -0.27748,-0.23704 -0.41414,-0.34759 -0.13667,-0.11054 -0.33546,-0.28153 -0.44175,-0.37997 -0.1063,-0.0984 -0.21013,-0.1792 -0.23074,-0.17946 -0.0206,0 -0.0705,-0.0336 -0.11097,-0.074 -0.0891,-0.0891 -0.86333,-0.64435 -0.89846,-0.64435 -0.0137,0 -0.11617,-0.0619 -0.22764,-0.13754 -0.47535,-0.32258 -0.99401,-0.52296 -1.49515,-0.57764 -0.76798,-0.0838 -1.22365,-0.15907 -1.34001,-0.22134 -0.059,-0.0316 -0.16956,-0.0574 -0.24569,-0.0574 -0.0761,0 -0.15201,-0.022 -0.16861,-0.0489 -0.0166,-0.0269 -0.0988,-0.0613 -0.18273,-0.0765 -0.53364,-0.0968 -1.76944,-0.69644 -2.4862,-1.20641 -0.90605,-0.64463 -1.96916,-1.80142 -2.4045,-2.61637 -0.18332,-0.34316 -0.53522,-1.12806 -0.53522,-1.19379 0,-0.0782 -0.10123,-0.40834 -0.17652,-0.57558 -0.0741,-0.16464 -0.15031,-0.67814 -0.21476,-1.44712 -0.0725,-0.86493 0.0401,-2.34049 0.21541,-2.82311 0.0289,-0.0797 0.083,-0.25672 0.12019,-0.39339 0.13307,-0.48946 0.39567,-1.10444 0.74185,-1.73734 0.0793,-0.14489 0.69117,-1.00868 0.86204,-1.21686 0.40234,-0.49019 1.099,-1.11715 1.65667,-1.49091 0.22657,-0.15185 0.42438,-0.28954 0.43956,-0.30597 0.0723,-0.0782 1.5439,-0.77079 1.6378,-0.77079 0.0589,0 0.13072,-0.0206 0.15957,-0.0459 0.0464,-0.0406 0.34477,-0.12994 0.96357,-0.28851 0.56855,-0.14569 1.0576,-0.18691 2.23636,-0.18848 1.00705,-0.001 1.37294,0.0189 1.767,0.0976 0.69344,0.13862 0.90185,0.18686 1.18721,0.27477 0.25153,0.0775 0.29438,0.0927 0.69023,0.24457 0.12148,0.0466 0.27058,0.10353 0.33132,0.12647 0.0607,0.0229 0.27195,0.12354 0.46936,0.22357 0.1974,0.10003 0.41463,0.20875 0.48273,0.24159 0.0681,0.0328 0.124,0.0784 0.12424,0.10112 0,0.0228 0.0263,0.0414 0.058,0.0414 0.0317,0 0.19212,0.0994 0.35656,0.22087 0.16444,0.12148 0.31356,0.22088 0.33136,0.22088 0.11436,0 1.62891,1.52473 1.62891,1.63986 0,0.0162 0.0808,0.14466 0.17946,0.2854 0.2436,0.34732 0.29428,0.43268 0.4471,0.75285 0.36146,0.75734 0.47205,1.06308 0.64909,1.79461 0.20825,0.8605 0.20754,2.53321 -0.001,3.56161 -0.33083,1.62749 -1.22321,3.26973 -2.40041,4.4175 -0.44465,0.43355 -1.24067,1.07677 -1.33255,1.07677 -0.0201,0 -0.11452,0.0559 -0.2098,0.12424 -0.21673,0.15545 -1.3021,0.70404 -1.3929,0.70404 -0.037,0 -0.13842,0.0371 -0.22541,0.0825 -0.087,0.0454 -0.20018,0.0826 -0.25154,0.0828 -0.0513,0 -0.10873,0.0252 -0.1275,0.0556 -0.0188,0.0304 -0.10903,0.0552 -0.20057,0.0552 -0.12482,0 -0.16199,0.0227 -0.1486,0.0907 0.01,0.0499 0.0551,0.10815 0.10068,0.12947 0.33223,0.15542 0.9592,0.50418 0.99394,0.55288 0.0152,0.0213 0.13888,0.10843 0.27486,0.19364 0.136,0.0852 0.28102,0.1887 0.32229,0.22996 0.0413,0.0413 0.16607,0.143 0.27733,0.22605 0.11126,0.0831 0.23606,0.18302 0.27734,0.22213 0.0413,0.0391 0.36431,0.32486 0.71785,0.63501 0.35353,0.31014 0.72976,0.64444 0.83605,0.74289 0.1063,0.0984 0.22433,0.17921 0.26229,0.17947 0.038,5.4e-4 0.069,0.0204 0.069,0.0448 0,0.0244 0.14435,0.14615 0.32079,0.27058 0.74791,0.52744 1.7623,0.95511 2.26544,0.95511 0.50515,0 0.56772,0.10711 0.26742,0.45775 -0.14314,0.16714 -0.24555,0.22511 -0.50869,0.28793 -0.40848,0.0975 -1.29852,0.0953 -1.84641,-0.005 z m -5.74433,-5.65596 c 0.57293,-0.0797 0.73432,-0.11435 0.91945,-0.19754 0.0957,-0.043 0.20165,-0.0782 0.23543,-0.0782 0.0338,0 0.10457,-0.0222 0.15731,-0.0493 0.0527,-0.0271 0.2574,-0.12919 0.45481,-0.22686 1.19199,-0.58977 2.05433,-1.59815 2.76245,-3.23026 0.0596,-0.13727 0.30152,-0.91764 0.37666,-1.21481 0.31141,-1.23153 0.31192,-3.27334 10e-4,-4.52794 -0.10588,-0.42745 -0.22519,-0.8293 -0.27438,-0.92417 -0.0274,-0.0527 -0.0497,-0.13383 -0.0497,-0.18021 0,-0.0464 -0.0229,-0.12748 -0.051,-0.18021 -0.028,-0.0527 -0.16397,-0.33553 -0.30209,-0.62842 -0.35864,-0.76052 -0.99418,-1.64893 -1.52438,-2.13091 -0.24685,-0.22438 -0.90628,-0.71503 -1.10438,-0.82171 -0.10629,-0.0572 -0.20569,-0.11903 -0.22087,-0.13732 -0.0252,-0.0304 -0.18057,-0.10333 -0.63502,-0.29822 -0.49115,-0.21063 -0.99589,-0.35876 -1.22243,-0.35876 -0.09,0 -0.18989,-0.0263 -0.22207,-0.0585 -0.0388,-0.0389 -0.42746,-0.0508 -1.15683,-0.0357 -1.03587,0.0215 -1.63912,0.0932 -1.75819,0.20889 -0.0289,0.028 -0.0975,0.051 -0.1526,0.051 -0.0551,0 -0.14329,0.0214 -0.19603,0.0476 -0.0527,0.0262 -0.24401,0.11936 -0.42504,0.20707 -1.38188,0.66951 -2.49834,2.06539 -3.10873,3.88674 -0.0763,0.22778 -0.15961,0.51354 -0.18504,0.63502 -0.0255,0.12148 -0.0852,0.40724 -0.13287,0.63502 -0.1931,0.92329 -0.16459,2.52514 0.0634,3.56161 0.0845,0.38431 0.32326,1.22471 0.40783,1.43569 0.14624,0.36485 0.6819,1.40808 0.723,1.40808 0.027,0 0.0491,0.0265 0.0491,0.0589 0,0.0875 0.6444,0.92218 0.9365,1.21297 0.38055,0.37884 1.35689,1.10253 1.48744,1.10253 0.0261,0 0.0783,0.0373 0.11613,0.0828 0.0378,0.0456 0.11539,0.0828 0.17241,0.0828 0.057,0 0.10368,0.0249 0.10368,0.0552 0,0.0304 0.0397,0.0552 0.0881,0.0552 0.0485,0 0.15407,0.0353 0.23468,0.0785 0.76426,0.40931 2.33485,0.62591 3.43209,0.47332 z m 12.72792,0.48924 c -1.34419,-0.16286 -2.42064,-0.65778 -2.83494,-1.30341 -0.28337,-0.44159 -0.21863,-0.8903 0.17911,-1.24148 0.22799,-0.2013 0.67996,-0.21407 1.00878,-0.0285 0.33107,0.18685 0.62804,0.3987 0.87399,0.6235 0.37625,0.34388 0.97863,0.76846 1.32525,0.93407 0.18222,0.0871 0.37446,0.17912 0.4272,0.20457 0.13641,0.0658 1.29838,0.0581 1.3398,-0.009 0.0188,-0.0304 0.0801,-0.0552 0.13621,-0.0552 0.0562,0 0.23484,-0.0669 0.39708,-0.14858 0.44734,-0.22532 0.82329,-0.5355 1.23443,-1.01848 0.15808,-0.18571 0.57908,-0.8623 0.57908,-0.93065 0,-0.0315 0.0237,-0.10046 0.0525,-0.1532 0.1682,-0.30694 0.24595,-0.57751 0.44878,-1.56177 0.095,-0.46111 0.0111,-1.47186 -0.16716,-2.0129 -0.29476,-0.89469 -0.84245,-1.59085 -1.51757,-1.92895 -0.40558,-0.20312 -0.43788,-0.20991 -0.9911,-0.20848 -0.31452,9e-4 -0.61862,0.0274 -0.67578,0.059 -0.0572,0.0317 -0.20332,0.10118 -0.3248,0.15449 -0.12148,0.0533 -0.31778,0.16633 -0.43623,0.25116 -0.11845,0.0848 -0.2493,0.15424 -0.29079,0.15424 -0.0711,0 -0.28625,-0.36675 -0.2354,-0.40121 0.13397,-0.0908 1.24973,-1.09516 1.70318,-1.53317 0.22009,-0.21259 0.86819,-0.95896 1.03973,-1.19738 0.97024,-1.34855 0.75933,-2.8721 -0.51046,-3.68728 -0.15185,-0.0975 -0.33821,-0.19167 -0.41414,-0.2093 -0.0759,-0.0176 -0.24986,-0.0609 -0.38653,-0.0962 -1.1681,-0.3017 -2.85988,0.74189 -3.61555,2.23029 -0.0596,0.1174 -0.1366,0.22429 -0.17109,0.23752 -0.0578,0.0222 -0.4652,-0.18457 -0.4652,-0.23613 0,-0.0845 0.48229,-0.97182 0.73585,-1.35391 0.52746,-0.79481 1.21564,-1.41887 1.98662,-1.8015 0.72419,-0.35942 1.03681,-0.44496 1.80547,-0.49402 0.38114,-0.0243 1.00433,0.0677 1.35286,0.19983 1.04084,0.39453 1.71999,1.09815 1.98449,2.05604 0.3344,1.211 -0.41817,2.78682 -1.81882,3.80845 -0.36038,0.26286 -0.55928,0.43125 -0.52121,0.44127 0.0133,0.004 0.23383,0.0156 0.49002,0.0268 0.25618,0.0112 0.491,0.0456 0.52181,0.0765 0.0308,0.0308 0.10697,0.0561 0.16923,0.0562 0.23765,3.7e-4 1.04293,0.47625 1.42449,0.84169 0.32706,0.31325 0.84483,1.08173 0.93953,1.39447 0.0184,0.0607 0.0756,0.22225 0.12706,0.35892 0.11543,0.30639 0.24109,1.0834 0.2411,1.49091 5e-5,0.80598 -0.23368,1.74371 -0.61934,2.48484 -0.6744,1.29604 -1.82399,2.39127 -3.13163,2.98357 -0.13667,0.0619 -0.29163,0.13654 -0.34437,0.16584 -0.0527,0.0293 -0.14095,0.0533 -0.19602,0.0533 -0.0551,0 -0.12375,0.0222 -0.1526,0.0494 -0.21399,0.20152 -1.89456,0.37176 -2.70297,0.27382 z"
       style="fill:#005176;fill-opacity:1" />
  </g>
</svg>
