<?xml version="1.0" encoding="UTF-8" standalone="no"?>
<!-- Created with Inkscape (http://www.inkscape.org/) -->

<svg
   xmlns:dc="http://purl.org/dc/elements/1.1/"
   xmlns:cc="http://creativecommons.org/ns#"
   xmlns:rdf="http://www.w3.org/1999/02/22-rdf-syntax-ns#"
   xmlns:svg="http://www.w3.org/2000/svg"
   xmlns="http://www.w3.org/2000/svg"
   xmlns:sodipodi="http://sodipodi.sourceforge.net/DTD/sodipodi-0.dtd"
   xmlns:inkscape="http://www.inkscape.org/namespaces/inkscape"
   width="119.77788"
   height="56.934525"
   id="svg3047"
   version="1.1"
   inkscape:version="0.48.3.1 r9886"
   sodipodi:docname="Nouveau document 1">
  <defs
     id="defs3049" />
  <sodipodi:namedview
     id="base"
     pagecolor="#ffffff"
     bordercolor="#666666"
     borderopacity="1.0"
     inkscape:pageopacity="0.0"
     inkscape:pageshadow="2"
     inkscape:zoom="0.35"
     inkscape:cx="194.88894"
     inkscape:cy="91.324404"
     inkscape:document-units="px"
     inkscape:current-layer="layer1"
     showgrid="false"
     inkscape:window-width="1375"
     inkscape:window-height="876"
     inkscape:window-x="65"
     inkscape:window-y="24"
     inkscape:window-maximized="1"
     fit-margin-top="0"
     fit-margin-left="0"
     fit-margin-right="0"
     fit-margin-bottom="0" />
  <metadata
     id="metadata3052">
    <rdf:RDF>
      <cc:Work
         rdf:about="">
        <dc:format>image/svg+xml</dc:format>
        <dc:type
           rdf:resource="http://purl.org/dc/dcmitype/StillImage" />
        <dc:title></dc:title>
      </cc:Work>
    </rdf:RDF>
  </metadata>
  <g
     inkscape:label="Calque 1"
     inkscape:groupmode="layer"
     id="layer1"
     transform="translate(-180.11106,-566.75206)">
    <path
       style="fill:#00aa5a;fill-opacity:1"
       d="m 194.25569,623.6716 c -1.32304,-0.15337 -2.35908,-0.62958 -3.21009,-1.47551 -0.98275,-0.97689 -1.49386,-2.2317 -1.49386,-3.66764 0,-1.44741 0.51979,-2.71319 1.50989,-3.67677 0.69368,-0.67508 1.36722,-1.05877 2.27538,-1.29615 0.57964,-0.15151 0.77719,-0.1749 1.45722,-0.17255 0.55902,0.002 0.68055,0.0121 1.03277,0.0862 1.59728,0.33642 2.84643,1.29044 3.54451,2.70709 0.66985,1.35931 0.71591,3.0389 0.12187,4.44292 -0.71372,1.68691 -2.26099,2.82569 -4.13021,3.03982 -0.26511,0.0303 -0.89235,0.0374 -1.10748,0.0124 z m 1.09814,-1.38823 c 0.77852,-0.13577 1.41564,-0.47782 1.95281,-1.04835 0.59806,-0.63521 0.93013,-1.3966 1.02271,-2.34497 0.0609,-0.62311 -0.0497,-1.37137 -0.28758,-1.94555 -0.56889,-1.37346 -1.81707,-2.21752 -3.27922,-2.21752 -1.39288,0 -2.61777,0.7625 -3.24541,2.02028 -0.28602,0.57316 -0.39549,1.06625 -0.39549,1.78119 0,0.71493 0.10947,1.20802 0.39549,1.78119 0.52503,1.05216 1.47146,1.76578 2.61182,1.96933 0.33617,0.06 0.89442,0.062 1.22487,0.004 z m 40.86054,1.38909 c -2.3083,-0.28804 -4.01477,-1.84111 -4.50347,-4.09862 -0.0629,-0.29056 -0.072,-0.42276 -0.072,-1.04539 0,-0.62264 0.009,-0.75484 0.072,-1.0454 0.45511,-2.1023 1.978,-3.61235 4.0623,-4.02801 0.30118,-0.0601 0.46575,-0.0723 0.97972,-0.0729 0.68862,0 1.04862,0.0523 1.61741,0.23851 0.31555,0.1033 0.94974,0.39245 1.1082,0.50527 l 0.0939,0.0668 0,0.87168 0,0.87166 -0.19443,-0.17593 c -0.5628,-0.50932 -1.3024,-0.87143 -2.02179,-0.98996 -0.42037,-0.0692 -1.01997,-0.0428 -1.43224,0.0632 -1.36284,0.35032 -2.35224,1.40752 -2.65954,2.84185 -0.0571,0.26642 -0.0708,0.43186 -0.0708,0.85322 0,0.42135 0.0137,0.58677 0.0708,0.85321 0.30704,1.43316 1.2978,2.49183 2.65954,2.84186 0.41227,0.10597 1.01187,0.13241 1.43224,0.0632 0.70784,-0.11661 1.44315,-0.47294 1.99954,-0.96903 0.0986,-0.0879 0.18771,-0.15987 0.19799,-0.15987 0.0103,0 0.0187,0.38393 0.0187,0.85319 l 0,0.85317 -0.0939,0.0668 c -0.16018,0.11405 -0.79437,0.40286 -1.10998,0.50546 -0.51603,0.16776 -0.87609,0.22538 -1.48891,0.23825 -0.30492,0.006 -0.60428,0.006 -0.66527,-0.002 z m 10.62827,-0.0141 c -0.96371,-0.13085 -1.75181,-0.56122 -2.34571,-1.28094 -0.2465,-0.2987 -0.49551,-0.7812 -0.58294,-1.12951 -0.13884,-0.55313 -0.13936,-0.56705 -0.15138,-4.13711 l -0.0115,-3.42922 0.71285,0 0.71287,0 0.0113,3.33418 c 0.0111,3.29441 0.0121,3.33761 0.08,3.61933 0.27295,1.1306 1.13532,1.74881 2.35074,1.68518 0.40757,-0.0213 0.63264,-0.0785 0.98098,-0.24905 0.51712,-0.25321 0.89018,-0.73005 1.04512,-1.33581 0.11712,-0.45796 0.12807,-0.79702 0.12807,-3.96852 l 0,-3.08531 0.71277,0 0.71278,0 0,3.09659 c 0,1.77411 -0.0137,3.27926 -0.032,3.52429 -0.0846,1.13396 -0.31799,1.68744 -0.99516,2.36008 -0.51515,0.51171 -1.02281,0.78521 -1.74469,0.94 -0.33367,0.0716 -1.23425,0.10329 -1.58394,0.0558 z m 28.55852,0.0139 c -1.06425,-0.1349 -1.81946,-0.53079 -2.44308,-1.28071 -0.26026,-0.31295 -0.50639,-0.78491 -0.59644,-1.14366 -0.13887,-0.55313 -0.13937,-0.56705 -0.1514,-4.13709 l -0.0115,-3.42925 0.71423,0 0.7142,0 0,3.14413 c 0,1.84264 0.0131,3.25608 0.0312,3.4146 0.0787,0.68678 0.2443,1.06833 0.63272,1.45781 0.29461,0.29544 0.55872,0.45003 0.95139,0.55689 0.28963,0.0788 1.04314,0.0807 1.33052,0.003 0.77896,-0.20976 1.32282,-0.75494 1.51922,-1.5229 0.11714,-0.45796 0.12807,-0.79704 0.12807,-3.96852 l 0,-3.08533 0.71278,0 0.71279,0 0,3.09661 c 0,1.84412 -0.0134,3.27601 -0.0332,3.54012 -0.0834,1.11932 -0.32586,1.6871 -1.00778,2.36008 -0.50206,0.49547 -1.01917,0.77158 -1.73081,0.92418 -0.27922,0.0599 -1.20501,0.10368 -1.47308,0.0697 z m -60.28493,-3.47874 -3.62722,-3.40246 -0.008,3.30795 -0.008,3.30796 -0.71263,0 -0.71263,0 0,-4.96433 0,-4.96436 0.13463,0.12945 c 0.074,0.0712 1.70986,1.60214 3.63517,3.40209 l 3.5005,3.27262 0.008,-3.30044 0.008,-3.30045 0.71264,0 0.71263,0 0,4.95775 c 0,2.72675 -0.004,4.9575 -0.008,4.95721 -0.004,0 -1.64018,-1.53163 -3.63516,-3.40299 z m -35.00517,-1.64926 0,-4.86271 1.13254,0 c 2.38287,0 3.0448,0.14652 3.76668,0.83223 0.58501,0.55569 0.86717,1.28458 0.82441,2.12961 -0.0535,1.05715 -0.57215,1.8598 -1.4945,2.31289 -0.48828,0.23985 -0.911,0.30617 -2.24128,0.35159 l -0.5623,0.0191 0,2.0399 0,2.03987 -0.71277,0 -0.71278,0 0,-4.86271 z m 3.12036,-0.64946 c 0.43763,-0.085 0.83941,-0.3766 1.00414,-0.72858 0.33763,-0.72145 0.0843,-1.56717 -0.56802,-1.89647 -0.29479,-0.14882 -0.60088,-0.19593 -1.41023,-0.21709 l -0.7207,-0.0189 0,1.46663 0,1.46665 0.75238,-0.0177 c 0.4138,-0.01 0.8379,-0.0344 0.94243,-0.0547 z m 20.86055,0.64946 0,-4.86271 0.7128,0 0.71277,0 0,4.86271 0,4.86271 -0.71277,0 -0.7128,0 0,-4.86271 z m 20.74967,0.63358 0,-4.22914 -1.15627,0 -1.15626,0 0,-0.63357 0,-0.63358 3.02531,0 3.02535,0 0,0.63358 0,0.63357 -1.15628,0 -1.15629,0 0,4.22914 0,4.22913 -0.71278,0 -0.71278,0 0,-4.22913 z m 30.79189,-0.63358 0,-4.86271 0.71276,0 0.7128,0 0,4.22913 0,4.22912 1.55227,0 1.55227,0 0,0.63359 0,0.63358 -2.26507,0 -2.26503,0 0,-4.86271 z m 9.12352,0.63358 0,-4.22914 -1.15629,0 -1.15626,0 0,-0.63357 0,-0.63358 3.02533,0 3.02533,0 0,0.63358 0,0.63357 -1.15628,0 -1.15627,0 0,4.22914 0,4.22913 -0.71278,0 -0.71278,0 0,-4.22913 z m 19.32412,-0.63686 0,-4.86599 1.49683,0.0149 c 1.58331,0.0159 1.79849,0.0331 2.29063,0.18404 0.27783,0.0852 0.61731,0.25342 0.82183,0.40723 0.6465,0.48617 0.9789,1.14836 1.0189,2.02966 0.0527,1.16199 -0.42997,2.04666 -1.38321,2.53509 -0.0784,0.0402 -0.26697,0.11768 -0.41903,0.17224 l -0.27646,0.0992 1.12732,1.66168 c 0.62,0.91392 1.27467,1.87906 1.45478,2.14476 l 0.32749,0.48311 -0.89323,0 -0.8932,0 -1.39084,-2.09009 -1.39082,-2.09011 -0.23272,0 -0.23272,0 0,2.09081 0,2.09081 -0.71277,0 -0.71278,0 0,-4.86601 z m 3.05647,-0.6611 c 0.58836,-0.12813 0.97763,-0.51169 1.09397,-1.07796 0.11123,-0.54145 -0.13711,-1.262 -0.5358,-1.55455 -0.30659,-0.22498 -0.68822,-0.2962 -1.59511,-0.29769 l -0.59398,0 0,1.50965 0,1.50964 0.70486,-0.0199 c 0.43869,-0.0124 0.78838,-0.0382 0.92606,-0.0681 z m 7.33421,0.66438 0,-4.86271 2.70855,0 2.70854,0 0,0.63358 0,0.63357 -1.99578,0 -1.99576,0 0,1.40971 0,1.40972 1.90073,0 1.90074,0 0,0.63358 0,0.63358 -1.90074,0 -1.90073,0 0,1.55227 0,1.55224 1.99576,0 1.99578,0 0,0.63359 0,0.63358 -2.70854,0 -2.70855,0 0,-4.86271 z m -68.93326,-8.46247 c -2.02277,-0.14064 -3.59685,-0.45463 -5.62301,-1.12165 -0.57498,-0.18928 -1.25923,-0.41017 -1.52058,-0.49086 -2.90565,-0.89706 -5.79674,-2.59989 -7.96827,-4.6933 l -0.33479,-0.32273 -1.21804,0.76707 c -0.66992,0.4219 -1.2748,0.80198 -1.34416,0.84463 l -0.12612,0.0775 0.0659,-0.11007 c 0.0363,-0.0606 0.42216,-0.6672 0.8576,-1.34813 l 0.7917,-1.23806 -0.0662,-0.08 c -0.0364,-0.044 -0.20976,-0.24952 -0.38518,-0.45675 -3.6855,-4.35369 -5.37465,-10.10165 -4.6537,-15.8361 0.79936,-6.35819 4.57634,-12.00978 10.18385,-15.2384 0.52378,-0.30157 1.4629,-0.77544 1.99703,-1.00765 0.21851,-0.0951 0.525,-0.25016 0.6811,-0.34483 1.81001,-1.09737 4.18339,-1.99392 6.35432,-2.40039 2.40992,-0.45118 4.94873,-0.43955 7.36664,0.0338 3.1495,0.61651 6.19424,2.05967 8.63977,4.09519 l 0.34518,0.28729 -0.15039,0.13614 c -0.0827,0.0749 -0.18941,0.16394 -0.23712,0.19793 l -0.0867,0.0618 -0.25059,-0.20859 c -2.71913,-2.26316 -6.16074,-3.74327 -9.73919,-4.18843 -1.38353,-0.17211 -2.9061,-0.18369 -4.35508,-0.0331 -0.82316,0.0855 -2.00161,0.30852 -2.85048,0.53939 -0.52932,0.14396 -1.54777,0.47224 -1.52759,0.4924 0.007,0.007 0.26094,-0.0294 0.56406,-0.0811 1.27835,-0.21825 2.4427,-0.30292 3.79276,-0.27579 2.50813,0.0505 3.48564,0.0824 3.96528,0.12956 2.47305,0.24333 4.72764,0.85603 6.93765,1.88534 0.27007,0.12577 0.59422,0.28528 0.72033,0.35445 l 0.22929,0.12575 -0.0626,0.12271 -0.0626,0.12273 -0.38843,-0.19751 c -1.7499,-0.88981 -3.77228,-1.5624 -5.72634,-1.90443 -0.48657,-0.0851 -1.38305,-0.20776 -1.49901,-0.20501 -0.038,0 0.20492,0.0711 0.53983,0.15602 2.19767,0.55716 4.17596,1.40803 6.06889,2.61022 1.16965,0.74285 2.5227,1.82583 3.4364,2.75054 l 0.29374,0.29728 -0.0947,0.0907 -0.0946,0.0907 -0.46472,-0.4405 c -0.54974,-0.52111 -0.92635,-0.85446 -1.35892,-1.20286 -3.10471,-2.50053 -6.734,-3.99866 -10.70748,-4.41987 -0.56571,-0.0599 -1.85792,0.032 -2.97781,0.21183 -4.08549,0.65622 -7.70685,2.41244 -10.80297,5.23901 -0.78851,0.71987 -1.04447,1.01082 -1.53157,1.74091 -1.65283,2.47725 -2.66898,5.15998 -3.06057,8.08021 -0.0689,0.51352 -0.14335,1.39774 -0.14145,1.67898 l 0.002,0.23759 0.10818,-0.51721 c 1.0882,-5.2038 4.34471,-9.68091 8.97802,-12.34322 5.75561,-3.30719 12.94133,-3.26082 18.66097,0.12039 0.91187,0.53907 2.15098,1.41848 2.09785,1.48887 -0.0153,0.0202 -0.0919,0.11707 -0.1703,0.21514 l -0.14252,0.17827 -0.37773,-0.2846 c -2.76078,-2.08001 -6.02666,-3.30499 -9.52354,-3.5721 -0.56353,-0.0431 -2.05248,-0.0426 -2.62999,0 -3.7987,0.28553 -7.33358,1.71347 -10.24104,4.13691 -2.7169,2.26463 -4.73312,5.31253 -5.72877,8.66013 -0.50982,1.71411 -0.74957,3.3419 -0.74957,5.08924 0,0.73756 0.004,0.79165 0.0956,1.22295 0.61315,2.89512 1.91778,5.66648 3.72979,7.92315 0.18047,0.22476 0.3214,0.4246 0.31316,0.44407 -0.008,0.0195 -0.69849,1.09034 -1.53392,2.37968 -0.8354,1.28932 -1.51562,2.34829 -1.51155,2.35329 0.004,0.005 1.07798,-0.66147 2.38645,-1.48099 1.30847,-0.81953 2.38737,-1.49005 2.39752,-1.49005 0.01,0 0.13536,0.10351 0.27821,0.23006 0.52773,0.4674 1.17309,0.96321 1.83668,1.411 2.95113,1.9915 6.37013,3.10806 9.9047,3.23463 3.56578,0.12773 7.02571,-0.73442 10.15542,-2.5305 0.68739,-0.39448 2.17666,-1.41837 2.32761,-1.60024 0.0219,-0.0264 0.056,-0.048 0.0756,-0.048 0.0411,2e-5 0.40002,0.39226 0.40002,0.43708 0,0.0385 -0.95139,0.74727 -1.44138,1.07385 -5.10614,3.40338 -11.45222,4.21033 -17.26499,2.19531 -2.14021,-0.74189 -4.23997,-1.927 -5.99934,-3.38606 -0.18085,-0.14998 -0.33766,-0.26901 -0.34848,-0.26452 -0.0108,0.004 -0.19586,0.11837 -0.41125,0.25306 l -0.39163,0.2449 0.42336,0.4122 c 3.91229,3.80913 9.2582,5.63998 14.66257,5.02157 2.14335,-0.24526 4.07557,-0.82132 6.01932,-1.79455 0.77887,-0.39 1.32823,-0.70898 2.01374,-1.16926 0.2451,-0.16458 0.45262,-0.29921 0.46114,-0.29921 0.0191,0 0.31285,0.3977 0.31285,0.42364 0,0.038 -1.16021,0.78771 -1.64125,1.06055 -2.36251,1.34003 -4.73441,2.08821 -7.51394,2.37014 -0.76759,0.0778 -2.67007,0.0779 -3.42132,0 -3.21659,-0.33312 -5.9899,-1.31573 -8.58499,-3.04171 -1.02567,-0.68216 -1.81915,-1.32857 -2.71561,-2.21223 l -0.48227,-0.47536 -0.77575,0.486 c -0.42666,0.26729 -0.77629,0.50394 -0.77698,0.52585 -0.002,0.056 1.59227,1.6493 1.99456,1.99369 1.32785,1.13673 2.7232,2.07302 4.21754,2.82997 0.57279,0.29013 1.28893,0.61223 1.72137,0.7742 0.66437,0.24882 2.1109,0.52667 3.50139,0.67255 0.76211,0.0799 3.0204,0.08 3.80147,0 4.23846,-0.4337 7.91262,-1.9723 11.16681,-4.67626 0.61045,-0.50723 1.94921,-1.84582 2.458,-2.45772 0.69554,-0.83644 1.36609,-1.76887 1.81689,-2.52638 0.10108,-0.16988 0.19515,-0.30887 0.20901,-0.30887 0.0409,0 0.21999,0.10881 0.22021,0.13379 0,0.0375 -0.39831,0.67334 -0.72049,1.1492 -3.24728,4.79629 -8.35344,8.00837 -14.04536,8.83536 -1.14153,0.16584 -1.56142,0.1927 -3.0058,0.19227 -1.06125,0 -1.46286,-0.0123 -1.89655,-0.0567 -0.3026,-0.031 -0.55617,-0.0504 -0.56346,-0.0431 -0.0211,0.0211 1.2909,0.27022 1.78503,0.33887 0.91193,0.1267 1.42242,0.16301 2.53294,0.18017 1.79609,0.0277 3.0836,-0.0914 4.7154,-0.43653 4.98226,-1.05366 9.50527,-4.01472 12.48093,-8.1708 0.11851,-0.16553 0.21982,-0.30614 0.22514,-0.31248 0.0139,-0.0165 0.23479,0.12344 0.23467,0.14874 0,0.0305 -0.76803,1.05375 -1.02768,1.3694 -2.03132,2.46934 -4.61837,4.47365 -7.46217,5.78127 -2.15687,0.99178 -4.34586,1.58248 -6.81095,1.83792 -0.46676,0.0484 -2.77029,0.0889 -3.23125,0.0568 z m -3.49325,-0.82271 c -0.0105,-0.0105 -0.0379,-0.0116 -0.0607,-0.002 -0.0252,0.01 -0.0177,0.0175 0.0191,0.0191 0.0334,0.002 0.0521,-0.006 0.0417,-0.0167 z m -5.51939,-1.81437 c -0.0523,-0.0322 -0.25899,-0.15489 -0.45935,-0.27281 -1.73351,-1.0202 -3.47984,-2.45147 -4.87996,-3.99958 l -0.23618,-0.26113 -0.29601,0.18754 c -0.1628,0.10316 -0.30198,0.19355 -0.30931,0.20088 -0.0177,0.0177 0.81024,0.7746 1.24292,1.13615 1.30469,1.09025 2.86748,2.08131 4.44686,2.82 0.51552,0.24111 0.67691,0.30323 0.49103,0.18895 z m -6.98903,-5.64952 0.19393,-0.30776 -0.21843,-0.30999 c -0.90192,-1.27979 -1.73627,-2.84082 -2.33199,-4.36293 -1.98984,-5.08423 -1.90783,-10.81474 0.22678,-15.84434 0.49929,-1.17647 1.12713,-2.33052 1.8749,-3.44626 0.2555,-0.38124 0.62175,-0.95147 0.81388,-1.26716 0.5533,-0.90918 0.98583,-1.5302 1.57542,-2.26203 0.88908,-1.10358 1.95082,-2.15887 3.033,-3.01457 0.18295,-0.14467 0.33976,-0.27077 0.34846,-0.28021 0.0377,-0.0409 -0.65741,0.34316 -1.0929,0.60387 -1.6969,1.01581 -3.29954,2.34522 -4.67402,3.87722 -2.54157,2.83283 -4.24294,6.37053 -4.87277,10.1321 -0.20093,1.20004 -0.26842,2.03698 -0.26953,3.34213 0,1.04162 0.0284,1.56379 0.13974,2.49087 0.47612,3.96478 2.1203,7.69099 4.74751,10.75917 0.18709,0.21851 0.24554,0.26905 0.27485,0.23759 0.0204,-0.022 0.1245,-0.17844 0.23117,-0.3477 z m 0.90566,-1.42091 0.5275,-0.82581 -0.28749,-0.44045 c -1.29739,-1.98763 -2.20891,-4.23585 -2.65814,-6.55626 -0.144,-0.74384 -0.22463,-1.35913 -0.30723,-2.34423 -0.009,-0.11326 -0.0445,-0.36273 -0.0778,-0.55439 -0.3173,-1.82673 -0.37734,-3.79065 -0.17142,-5.60715 0.18053,-1.59218 0.59768,-3.29006 1.18114,-4.80729 0.0854,-0.22213 0.151,-0.4039 0.14575,-0.4039 -0.0248,0 -0.45605,0.81311 -0.70769,1.33443 -1.7903,3.70865 -2.42927,7.81838 -1.85375,11.92318 0.37942,2.70633 1.32272,5.37199 2.72963,7.71382 0.29865,0.4971 0.89554,1.39387 0.92778,1.39387 0.0133,0 0.26158,-0.37162 0.55172,-0.82582 z m 1.0979,-2.05349 c -0.78962,-0.95135 -1.83772,-2.66184 -2.41367,-3.93918 -0.0922,-0.20449 -0.17259,-0.36688 -0.17861,-0.36084 -0.02,0.0199 0.35893,1.13698 0.54152,1.5964 0.43239,1.08788 0.90947,2.02078 1.5637,3.0576 l 0.23556,0.3733 0.18636,-0.29062 0.18635,-0.29064 -0.12121,-0.14602 z m 2.26712,-25.68538 c 0.16014,-0.12718 0.49933,-0.38013 0.75378,-0.56209 2.43137,-1.73894 5.25183,-2.94895 8.20532,-3.52017 0.60481,-0.11696 0.54227,-0.134 -0.2246,-0.0611 -1.67907,0.15959 -3.59865,0.57155 -4.2984,0.92249 -1.57995,0.79241 -3.14654,1.90559 -4.48966,3.19024 -0.37421,0.35793 -0.36513,0.36313 0.0536,0.0306 z m -9.39848,35.94066 c -0.24426,-0.0959 -0.50607,-0.36315 -0.60013,-0.61276 -0.10072,-0.26721 -0.083,-0.65427 0.0409,-0.89577 0.11375,-0.22169 0.30311,-0.40613 0.52254,-0.50901 0.152,-0.0713 0.22185,-0.0839 0.46403,-0.0839 0.24575,0 0.30921,0.0118 0.45958,0.0856 0.22772,0.11186 0.43198,0.31503 0.53487,0.53208 0.07,0.14769 0.0826,0.21773 0.0826,0.45982 1e-5,0.2589 -0.01,0.30537 -0.10427,0.49761 -0.11377,0.23132 -0.27314,0.38929 -0.50914,0.50465 -0.21523,0.10524 -0.65096,0.11578 -0.89097,0.0216 z"
       id="path3215"
       inkscape:connector-curvature="0" />
  </g>
</svg>
