<?xml version="1.0" encoding="UTF-8" standalone="no"?>
<!-- Created with Inkscape (http://www.inkscape.org/) -->

<svg
   xmlns:dc="http://purl.org/dc/elements/1.1/"
   xmlns:cc="http://creativecommons.org/ns#"
   xmlns:rdf="http://www.w3.org/1999/02/22-rdf-syntax-ns#"
   xmlns:svg="http://www.w3.org/2000/svg"
   xmlns="http://www.w3.org/2000/svg"
   xmlns:sodipodi="http://sodipodi.sourceforge.net/DTD/sodipodi-0.dtd"
   xmlns:inkscape="http://www.inkscape.org/namespaces/inkscape"
   width="100"
   height="47.533512"
   id="svg3047"
   version="1.1"
   inkscape:version="0.48.4 r9939"
   sodipodi:docname="point-culture.svg">
  <defs
     id="defs3049" />
  <sodipodi:namedview
     id="base"
     pagecolor="#ffffff"
     bordercolor="#666666"
     borderopacity="1.0"
     inkscape:pageopacity="0.0"
     inkscape:pageshadow="2"
     inkscape:zoom="0.35"
     inkscape:cx="-359.39677"
     inkscape:cy="91.324432"
     inkscape:document-units="px"
     inkscape:current-layer="layer1"
     showgrid="false"
     inkscape:window-width="1276"
     inkscape:window-height="775"
     inkscape:window-x="0"
     inkscape:window-y="21"
     inkscape:window-maximized="1"
     fit-margin-top="0"
     fit-margin-left="0"
     fit-margin-right="0"
     fit-margin-bottom="0" />
  <metadata
     id="metadata3052">
    <rdf:RDF>
      <cc:Work
         rdf:about="">
        <dc:format>image/svg+xml</dc:format>
        <dc:type
           rdf:resource="http://purl.org/dc/dcmitype/StillImage" />
        <dc:title />
      </cc:Work>
    </rdf:RDF>
  </metadata>
  <g
     inkscape:label="Calque 1"
     inkscape:groupmode="layer"
     id="layer1"
     transform="translate(-180.11106,-576.1531)">
    <path
       style="fill:#000000;fill-opacity:1"
       d="m 191.92011,623.67407 c -1.10458,-0.12804 -1.96955,-0.52562 -2.68004,-1.23187 -0.82047,-0.81558 -1.24719,-1.8632 -1.24719,-3.06203 0,-1.20841 0.43396,-2.26519 1.26058,-3.06966 0.57914,-0.56361 1.14146,-0.88394 1.89966,-1.08213 0.48393,-0.12649 0.64886,-0.14602 1.21661,-0.14406 0.46671,0.002 0.56817,0.0101 0.86223,0.072 1.33354,0.28087 2.37643,1.07736 2.95924,2.26009 0.55924,1.13486 0.5977,2.53712 0.10175,3.7093 -0.59587,1.40837 -1.88766,2.35911 -3.44823,2.53788 -0.22133,0.0253 -0.745,0.0312 -0.92461,0.0104 z m 0.91681,-1.159 c 0.64997,-0.11335 1.18189,-0.39892 1.63036,-0.87524 0.49931,-0.53033 0.77655,-1.166 0.85384,-1.95777 0.0508,-0.52022 -0.0415,-1.14493 -0.24009,-1.6243 -0.47496,-1.14667 -1.51704,-1.85136 -2.73775,-1.85136 -1.16289,0 -2.18552,0.6366 -2.70953,1.68669 -0.23879,0.47852 -0.33018,0.89019 -0.33018,1.48708 0,0.59688 0.0914,1.00855 0.33018,1.48708 0.43834,0.87842 1.22849,1.47421 2.18056,1.64415 0.28066,0.0501 0.74673,0.0518 1.02261,0.003 z m 34.1136,1.15972 c -1.92715,-0.24048 -3.35185,-1.5371 -3.75985,-3.42185 -0.0525,-0.24258 -0.0601,-0.35295 -0.0601,-0.87277 0,-0.51983 0.008,-0.6302 0.0601,-0.87278 0.37996,-1.75517 1.65139,-3.01588 3.39152,-3.3629 0.25145,-0.0502 0.38885,-0.0604 0.81795,-0.0609 0.57492,0 0.87547,0.0437 1.35034,0.19913 0.26345,0.0862 0.79292,0.32765 0.92522,0.42184 l 0.0784,0.0558 0,0.72775 0,0.72773 -0.16232,-0.14688 c -0.46987,-0.42522 -1.08735,-0.72754 -1.68795,-0.8265 -0.35096,-0.0578 -0.85156,-0.0357 -1.19575,0.0528 -1.13781,0.29248 -1.96384,1.17511 -2.22039,2.3726 -0.0477,0.22243 -0.0591,0.36056 -0.0591,0.71234 0,0.35178 0.0114,0.48988 0.0591,0.71233 0.25634,1.19651 1.0835,2.08037 2.22039,2.37261 0.34419,0.0885 0.84479,0.11054 1.19575,0.0528 0.59096,-0.0974 1.20485,-0.39485 1.66937,-0.80902 0.0823,-0.0734 0.15671,-0.13348 0.1653,-0.13348 0.009,0 0.0156,0.32054 0.0156,0.71231 l 0,0.7123 -0.0784,0.0558 c -0.13373,0.0952 -0.6632,0.33634 -0.92669,0.422 -0.43083,0.14006 -0.73143,0.18816 -1.24306,0.19891 -0.25457,0.005 -0.5045,0.005 -0.55542,-0.002 z m 8.87331,-0.0118 c -0.80458,-0.10924 -1.46254,-0.46855 -1.95838,-1.06943 -0.2058,-0.24938 -0.41369,-0.65221 -0.48668,-0.943 -0.11592,-0.4618 -0.11635,-0.47342 -0.12639,-3.45399 l -0.01,-2.86298 0.59515,0 0.59516,0 0.009,2.78364 c 0.009,2.75043 0.0101,2.7865 0.0668,3.0217 0.22788,0.94391 0.94785,1.46004 1.96258,1.40692 0.34027,-0.0178 0.52818,-0.0655 0.819,-0.20793 0.43173,-0.2114 0.74319,-0.6095 0.87255,-1.11524 0.0978,-0.38234 0.10692,-0.66541 0.10692,-3.31323 l 0,-2.57586 0.59508,0 0.59508,0 0,2.58528 c 0,1.48116 -0.0114,2.73778 -0.0267,2.94235 -0.0706,0.94672 -0.26549,1.40881 -0.83084,1.97038 -0.43009,0.42722 -0.85392,0.65556 -1.4566,0.78479 -0.27858,0.0598 -1.03045,0.0862 -1.3224,0.0466 z m 23.8429,0.0116 c -0.88852,-0.11263 -1.51902,-0.44315 -2.03967,-1.06924 -0.21729,-0.26128 -0.42278,-0.65531 -0.49796,-0.95482 -0.11594,-0.4618 -0.11635,-0.47342 -0.1264,-3.45397 l -0.01,-2.86301 0.5963,0 0.59627,0 0,2.62497 c 0,1.53838 0.0109,2.71843 0.026,2.85078 0.0657,0.57338 0.20396,0.89192 0.52824,1.21709 0.24596,0.24666 0.46646,0.37572 0.7943,0.46494 0.2418,0.0658 0.87089,0.0674 1.11082,0.003 0.65034,-0.17512 1.10439,-0.63028 1.26836,-1.27143 0.0978,-0.38234 0.10693,-0.66544 0.10693,-3.31324 l 0,-2.57587 0.59508,0 0.59509,0 0,2.58529 c 0,1.53962 -0.0112,2.73507 -0.0277,2.95557 -0.0696,0.9345 -0.27206,1.40853 -0.84138,1.97038 -0.41916,0.41366 -0.85088,0.64418 -1.44501,0.77158 -0.23312,0.05 -1.00604,0.0866 -1.22985,0.0582 z m -50.3306,-2.90433 -3.02829,-2.84064 -0.007,2.76174 -0.007,2.76174 -0.59496,0 -0.59496,0 0,-4.14461 0,-4.14464 0.1124,0.10807 c 0.0618,0.0594 1.42753,1.3376 3.03493,2.84034 l 2.92249,2.73224 0.007,-2.75547 0.007,-2.75548 0.59497,0 0.59496,0 0,4.13912 c 0,2.27651 -0.003,4.13892 -0.007,4.13867 -0.003,0 -1.36935,-1.27872 -3.03492,-2.84108 z m -29.22507,-1.37693 0,-4.05978 0.94553,0 c 1.98941,0 2.54204,0.12233 3.14472,0.69482 0.48842,0.46393 0.72399,1.07246 0.68829,1.77796 -0.0447,0.88259 -0.47768,1.55271 -1.24773,1.93098 -0.40765,0.20025 -0.76057,0.25562 -1.8712,0.29354 l -0.46945,0.0159 0,1.70306 0,1.70305 -0.59508,0 -0.59508,0 0,-4.05977 z m 2.60512,-0.54222 c 0.36537,-0.071 0.70081,-0.31442 0.83834,-0.60828 0.28188,-0.60232 0.0704,-1.3084 -0.47423,-1.58332 -0.24611,-0.12425 -0.50166,-0.16358 -1.17737,-0.18124 l -0.6017,-0.0158 0,1.22445 0,1.22448 0.62815,-0.0148 c 0.34547,-0.008 0.69954,-0.0287 0.78681,-0.0457 z m 17.41603,0.54222 0,-4.05978 0.5951,0 0.59508,0 0,4.05978 0,4.05977 -0.59508,0 -0.5951,0 0,-4.05977 z m 17.32346,0.52896 0,-3.53082 -0.96535,0 -0.96533,0 0,-0.52895 0,-0.52897 2.52576,0 2.5258,0 0,0.52897 0,0.52895 -0.96535,0 -0.96536,0 0,3.53082 0,3.53081 -0.59509,0 -0.59508,0 0,-3.53081 z m 25.70749,-0.52896 0,-4.05978 0.59507,0 0.5951,0 0,3.53082 0,3.5308 1.29596,0 1.29596,0 0,0.52897 0,0.52896 -1.89106,0 -1.89103,0 0,-4.05977 z m 7.61703,0.52896 0,-3.53082 -0.96536,0 -0.96534,0 0,-0.52895 0,-0.52897 2.52579,0 2.52578,0 0,0.52897 0,0.52895 -0.96535,0 -0.96535,0 0,3.53082 0,3.53081 -0.59508,0 -0.59509,0 0,-3.53081 z m 16.1333,-0.5317 0,-4.06251 1.24967,0.0124 c 1.32187,0.0133 1.50152,0.0276 1.9124,0.15365 0.23195,0.0711 0.51538,0.21157 0.68613,0.33999 0.53975,0.40589 0.81726,0.95874 0.85066,1.69452 0.044,0.97012 -0.35898,1.70871 -1.15482,2.11649 -0.0654,0.0336 -0.22288,0.0983 -0.34984,0.1438 l -0.23081,0.0828 0.94118,1.3873 c 0.51762,0.76301 1.06419,1.56879 1.21456,1.79061 l 0.27342,0.40334 -0.74574,0 -0.74571,0 -1.16119,-1.74497 -1.16116,-1.74499 -0.1943,0 -0.19429,0 0,1.74557 0,1.74558 -0.59508,0 -0.59508,0 0,-4.06253 z m 2.55178,-0.55194 c 0.49121,-0.10697 0.8162,-0.4272 0.91333,-0.89996 0.0929,-0.45205 -0.11447,-1.05362 -0.44732,-1.29787 -0.25597,-0.18783 -0.57458,-0.24729 -1.33173,-0.24853 l -0.4959,0 0,1.26037 0,1.26037 0.58847,-0.0166 c 0.36626,-0.0104 0.65821,-0.0319 0.77315,-0.0569 z m 6.12318,0.55468 0,-4.05978 2.26131,0 2.2613,0 0,0.52897 0,0.52895 -1.66623,0 -1.66622,0 0,1.17694 0,1.17694 1.58688,0 1.58688,0 0,0.52897 0,0.52896 -1.58688,0 -1.58688,0 0,1.29596 0,1.29593 1.66622,0 1.66623,0 0,0.52897 0,0.52896 -2.2613,0 -2.26131,0 0,-4.05977 z m -57.55091,-7.06514 c -1.68877,-0.11742 -3.00294,-0.37956 -4.69453,-0.93644 -0.48004,-0.15803 -1.05131,-0.34244 -1.2695,-0.40981 -2.42587,-0.74893 -4.83958,-2.17059 -6.65254,-3.91833 l -0.27951,-0.26945 -1.01692,0.64042 c -0.5593,0.35223 -1.0643,0.66955 -1.12221,0.70516 l -0.10529,0.0647 0.055,-0.0919 c 0.0303,-0.0506 0.35245,-0.55703 0.71599,-1.12553 l 0.66097,-1.03363 -0.0553,-0.0668 c -0.0304,-0.0367 -0.17512,-0.20832 -0.32158,-0.38133 -3.07694,-3.6348 -4.48718,-8.43365 -3.88527,-13.22122 0.66737,-5.30832 3.82069,-10.02671 8.50228,-12.72222 0.43729,-0.25177 1.22134,-0.6474 1.66728,-0.84126 0.18242,-0.0794 0.43831,-0.20886 0.56863,-0.28789 1.51114,-0.91617 3.49262,-1.66469 5.30509,-2.00404 2.01199,-0.37668 4.13159,-0.36697 6.15025,0.0282 2.62945,0.51471 5.17144,1.71958 7.21316,3.41899 l 0.28818,0.23985 -0.12556,0.11366 c -0.069,0.0625 -0.15813,0.13687 -0.19796,0.16525 l -0.0724,0.0516 -0.20921,-0.17414 c -2.27014,-1.88947 -5.14347,-3.12518 -8.13104,-3.49684 -1.15508,-0.14369 -2.42624,-0.15335 -3.63596,-0.0276 -0.68724,0.0714 -1.67111,0.25758 -2.37981,0.45033 -0.44192,0.12018 -1.2922,0.39426 -1.27535,0.41109 0.006,0.006 0.21785,-0.0245 0.47092,-0.0677 1.06727,-0.18221 2.03936,-0.2529 3.16649,-0.23025 2.09399,0.0422 2.91009,0.0688 3.31053,0.10817 2.0647,0.20315 3.94701,0.71468 5.7921,1.57403 0.22547,0.105 0.4961,0.23817 0.60139,0.29592 l 0.19143,0.10499 -0.0523,0.10244 -0.0523,0.10247 -0.32429,-0.1649 c -1.46096,-0.74288 -3.1494,-1.30441 -4.7808,-1.58997 -0.40623,-0.071 -1.15468,-0.17345 -1.25149,-0.17115 -0.0317,0 0.17108,0.0593 0.45069,0.13025 1.83479,0.46516 3.48642,1.17554 5.06679,2.17922 0.97651,0.62019 2.10614,1.52435 2.86897,2.29637 l 0.24524,0.24819 -0.0791,0.0757 -0.079,0.0757 -0.38799,-0.36777 c -0.45896,-0.43506 -0.77339,-0.71337 -1.13453,-1.00424 -2.59206,-2.08764 -5.62207,-3.3384 -8.93945,-3.69005 -0.4723,-0.05 -1.55113,0.0267 -2.48611,0.17685 -3.41089,0.54786 -6.43428,2.01409 -9.01917,4.37394 -0.65831,0.601 -0.872,0.84391 -1.27867,1.45344 -1.37991,2.06821 -2.22828,4.30796 -2.55521,6.746 -0.0575,0.42873 -0.11968,1.16694 -0.11809,1.40174 l 0.002,0.19836 0.0903,-0.4318 c 0.90851,-4.34455 3.6273,-8.08239 7.49555,-10.3051 4.80524,-2.7611 10.80445,-2.72239 15.57965,0.10051 0.7613,0.45006 1.79581,1.18426 1.75145,1.24303 -0.0128,0.0169 -0.0767,0.0977 -0.14218,0.17962 l -0.11899,0.14883 -0.31535,-0.23761 c -2.30492,-1.73655 -5.03153,-2.75926 -7.95101,-2.98227 -0.47047,-0.036 -1.71357,-0.0356 -2.19572,0 -3.17145,0.23839 -6.12265,1.43054 -8.55002,3.45382 -2.26829,1.89069 -3.95158,4.43532 -4.78283,7.23016 -0.42564,1.43107 -0.6258,2.79008 -0.6258,4.2489 0,0.61577 0.003,0.66093 0.0798,1.02101 0.51191,2.41708 1.60112,4.73083 3.11392,6.61487 0.15068,0.18765 0.26833,0.35449 0.26146,0.37075 -0.007,0.0163 -0.58316,0.9103 -1.28064,1.98674 -0.69746,1.07643 -1.26536,1.96054 -1.26196,1.96471 0.003,0.004 0.89998,-0.55225 1.99239,-1.23644 1.09242,-0.68421 1.99317,-1.24402 2.00164,-1.24402 0.008,0 0.11301,0.0864 0.23227,0.19208 0.44059,0.39022 0.97939,0.80416 1.53341,1.17801 2.46383,1.66266 5.31828,2.59485 8.26922,2.70052 2.977,0.10664 5.86562,-0.61315 8.47855,-2.11266 0.57388,-0.32934 1.81724,-1.18416 1.94327,-1.336 0.0183,-0.022 0.0468,-0.0401 0.0631,-0.0401 0.0343,2e-5 0.33397,0.32749 0.33397,0.36491 0,0.0321 -0.79429,0.62388 -1.20338,0.89654 -4.263,2.84141 -9.56121,3.51511 -14.41417,1.83281 -1.78681,-0.61938 -3.53986,-1.60881 -5.00872,-2.82695 -0.15099,-0.12521 -0.2819,-0.22459 -0.29094,-0.22084 -0.009,0.003 -0.16352,0.0988 -0.34334,0.21128 l -0.32696,0.20446 0.35345,0.34414 c 3.26629,3.18016 7.72947,4.70869 12.24147,4.1924 1.78943,-0.20477 3.4026,-0.68571 5.0254,-1.49823 0.65026,-0.32561 1.10891,-0.59192 1.68123,-0.97619 0.20463,-0.13741 0.37788,-0.24981 0.38499,-0.24981 0.016,0 0.2612,0.33203 0.2612,0.35369 0,0.0317 -0.96864,0.65764 -1.37025,0.88543 -1.97241,1.11876 -3.95266,1.7434 -6.27323,1.97878 -0.64084,0.065 -2.22918,0.065 -2.85638,0 -2.68547,-0.27812 -5.00084,-1.09848 -7.16743,-2.53946 -0.85631,-0.56952 -1.51877,-1.10919 -2.2672,-1.84694 l -0.40264,-0.39687 -0.64766,0.40575 c -0.35621,0.22315 -0.64811,0.42073 -0.64868,0.43902 -0.002,0.0467 1.32935,1.37697 1.66521,1.66449 1.1086,0.94903 2.27354,1.73072 3.52114,2.36268 0.47821,0.24223 1.0761,0.51114 1.43713,0.64636 0.55467,0.20774 1.76235,0.43971 2.92324,0.5615 0.63627,0.0667 2.52167,0.0668 3.17376,0 3.5386,-0.36208 6.60608,-1.64663 9.32294,-3.90411 0.50965,-0.42347 1.62735,-1.54103 2.05213,-2.0519 0.58069,-0.69832 1.14052,-1.47679 1.51688,-2.10922 0.0844,-0.14183 0.16293,-0.25787 0.1745,-0.25787 0.0341,0 0.18366,0.0909 0.18385,0.1117 0,0.0313 -0.33254,0.56216 -0.60152,0.95945 -2.71109,4.00432 -6.97411,6.68601 -11.72618,7.37645 -0.95304,0.13846 -1.30359,0.16088 -2.50947,0.16052 -0.88602,0 -1.22132,-0.0103 -1.58339,-0.0473 -0.25264,-0.0259 -0.46434,-0.0421 -0.47042,-0.036 -0.0176,0.0176 1.07774,0.2256 1.49028,0.28292 0.76135,0.10578 1.18755,0.13609 2.1147,0.15042 1.49951,0.0231 2.57443,-0.0763 3.93678,-0.36445 4.15959,-0.87968 7.93575,-3.35181 10.42007,-6.82163 0.0989,-0.1382 0.18352,-0.25559 0.18796,-0.26088 0.0116,-0.0138 0.19602,0.10305 0.19592,0.12418 0,0.0255 -0.64121,0.87975 -0.85799,1.14328 -1.6959,2.0616 -3.85578,3.73495 -6.23,4.82666 -1.80073,0.82801 -3.62827,1.32118 -5.68632,1.53444 -0.38969,0.0404 -2.31286,0.0742 -2.6977,0.0474 z m -2.91644,-0.68686 c -0.009,-0.009 -0.0316,-0.01 -0.0507,-0.002 -0.021,0.008 -0.0148,0.0146 0.0159,0.016 0.0279,0.002 0.0435,-0.005 0.0348,-0.014 z m -4.60802,-1.51478 c -0.0437,-0.0269 -0.21623,-0.12931 -0.38351,-0.22776 -1.44727,-0.85175 -2.90524,-2.04668 -4.07417,-3.33917 l -0.19718,-0.21801 -0.24713,0.15657 c -0.13592,0.0861 -0.25212,0.16159 -0.25824,0.16771 -0.0148,0.0148 0.67645,0.6467 1.03769,0.94855 1.08925,0.91023 2.39399,1.73764 3.71259,2.35436 0.43039,0.2013 0.56513,0.25316 0.40995,0.15775 z m -5.835,-4.71666 0.16191,-0.25695 -0.18236,-0.2588 c -0.75299,-1.06847 -1.44958,-2.37174 -1.94693,-3.64252 -1.66127,-4.24471 -1.59281,-9.02899 0.18933,-13.2281 0.41685,-0.98221 0.94102,-1.9457 1.56532,-2.87721 0.21331,-0.31829 0.51908,-0.79436 0.67949,-1.05792 0.46194,-0.75906 0.82305,-1.27753 1.31528,-1.88852 0.74228,-0.92136 1.6287,-1.8024 2.53219,-2.5168 0.15274,-0.12079 0.28366,-0.22606 0.29092,-0.23395 0.0315,-0.0341 -0.54885,0.2865 -0.91244,0.50416 -1.4167,0.84808 -2.75471,1.95798 -3.90224,3.23701 -2.1219,2.36507 -3.54234,5.31862 -4.06817,8.45908 -0.16775,1.00188 -0.2241,1.70063 -0.22502,2.79027 0,0.86962 0.0237,1.30557 0.11666,2.07957 0.39751,3.31011 1.7702,6.42105 3.9636,8.9826 0.1562,0.18243 0.20499,0.22463 0.22946,0.19836 0.017,-0.0184 0.10395,-0.14897 0.193,-0.29028 z m 0.75612,-1.18629 0.4404,-0.68945 -0.24002,-0.36773 c -1.08316,-1.65942 -1.84417,-3.53642 -2.21923,-5.47368 -0.12022,-0.62101 -0.18753,-1.13471 -0.2565,-1.95714 -0.008,-0.0946 -0.0371,-0.30284 -0.065,-0.46285 -0.26491,-1.5251 -0.31503,-3.16474 -0.14311,-4.68129 0.15072,-1.32928 0.49899,-2.7468 0.9861,-4.01351 0.0713,-0.18545 0.12607,-0.3372 0.12169,-0.3372 -0.0207,0 -0.38075,0.67884 -0.59084,1.11408 -1.49468,3.09628 -2.02814,6.5274 -1.54765,9.95441 0.31677,2.25946 1.10431,4.48496 2.27891,6.44011 0.24933,0.41501 0.74766,1.16371 0.77458,1.16371 0.0111,0 0.21839,-0.31026 0.46062,-0.68946 z m 0.91661,-1.71442 c -0.65923,-0.79426 -1.53427,-2.22231 -2.01512,-3.28873 -0.077,-0.17073 -0.14409,-0.3063 -0.14912,-0.30126 -0.0167,0.0166 0.29967,0.94924 0.45211,1.3328 0.36099,0.90825 0.75929,1.6871 1.3055,2.55272 l 0.19666,0.31166 0.15559,-0.24263 0.15558,-0.24265 -0.1012,-0.12191 z m 1.89277,-21.44417 c 0.1337,-0.10618 0.41688,-0.31737 0.62932,-0.46928 2.0299,-1.4518 4.38464,-2.46202 6.85045,-2.93892 0.50494,-0.0976 0.45272,-0.11187 -0.18752,-0.051 -1.40182,0.13324 -3.00443,0.47718 -3.58864,0.77017 -1.31907,0.66157 -2.62698,1.59094 -3.74832,2.66346 -0.31242,0.29883 -0.30484,0.30317 0.0447,0.0255 z m -7.84659,30.00609 c -0.20392,-0.0801 -0.4225,-0.30319 -0.50103,-0.51158 -0.0841,-0.22309 -0.0693,-0.54624 0.0341,-0.74786 0.095,-0.18509 0.25306,-0.33907 0.43626,-0.42496 0.1269,-0.0595 0.18522,-0.0701 0.38741,-0.0701 0.20517,0 0.25815,0.01 0.38369,0.0715 0.19012,0.0934 0.36065,0.26301 0.44655,0.44422 0.0584,0.1233 0.069,0.18178 0.069,0.38389 0,0.21615 -0.008,0.25495 -0.0871,0.41545 -0.095,0.19312 -0.22804,0.32501 -0.42507,0.42132 -0.17969,0.0879 -0.54347,0.0967 -0.74385,0.018 z"
       id="path3215"
       inkscape:connector-curvature="0" />
  </g>
</svg>
