<?xml version="1.0" encoding="UTF-8" standalone="no"?>
<!-- Created with Inkscape (http://www.inkscape.org/) -->

<svg
   xmlns:dc="http://purl.org/dc/elements/1.1/"
   xmlns:cc="http://creativecommons.org/ns#"
   xmlns:rdf="http://www.w3.org/1999/02/22-rdf-syntax-ns#"
   xmlns:svg="http://www.w3.org/2000/svg"
   xmlns="http://www.w3.org/2000/svg"
   version="1.1"
   width="85"
   height="60"
   id="svg3600">
  <defs
     id="defs3602" />
  <metadata
     id="metadata3605">
    <rdf:RDF>
      <cc:Work
         rdf:about="">
        <dc:format>image/svg+xml</dc:format>
        <dc:type
           rdf:resource="http://purl.org/dc/dcmitype/StillImage" />
        <dc:title></dc:title>
      </cc:Work>
    </rdf:RDF>
  </metadata>
  <g
     transform="translate(-359.52677,-393.06651)"
     id="layer1">
    <path
       d="m 362.97766,443.79836 c -0.33499,-0.10065 -0.68587,-0.41748 -0.87425,-0.78918 l -0.17811,-0.35148 0,-22.62862 0,-22.62861 0.19541,-0.35609 c 0.11949,-0.21842 0.31995,-0.44008 0.51774,-0.57327 l 0.32248,-0.21717 38.55247,-0.02 c 30.18271,-0.0157 38.62178,0 38.87243,0.0675 0.40036,0.10937 0.89308,0.58418 1.00371,0.96702 0.0576,0.20013 0.0745,6.47355 0.0591,22.92197 l -0.0211,22.6465 -0.25079,0.34901 c -0.13776,0.19195 -0.37984,0.41664 -0.53742,0.4993 l -0.28664,0.15026 -38.58832,0.0127 c -21.2235,0.007 -38.67899,-0.0155 -38.7899,-0.0488 z m 10.22551,-4.82772 c 0.39587,-0.16539 0.58171,-0.50166 0.58171,-1.05241 0,-0.59647 -0.15196,-0.83496 -0.84304,-1.32364 -0.6063,-0.42867 -0.78708,-0.72629 -0.62148,-1.02276 0.15308,-0.27396 0.56947,-0.30549 0.81337,-0.0616 l 0.17502,0.17501 0.22323,-0.18867 c 0.21621,-0.18275 0.21944,-0.19395 0.10262,-0.35763 -0.14535,-0.20453 -0.63203,-0.43639 -0.92049,-0.43854 -0.30575,-0.003 -0.77696,0.24954 -0.91993,0.49165 -0.1597,0.27029 -0.16124,0.87543 0,1.20869 0.0661,0.14002 0.26653,0.35452 0.4445,0.47663 0.17811,0.12216 0.46236,0.34704 0.63161,0.49986 0.2491,0.22485 0.30786,0.32486 0.30786,0.52423 0,0.13552 -0.0309,0.30505 -0.0703,0.37676 -0.15435,0.28824 -0.69205,0.23179 -0.96927,-0.10177 l -0.14339,-0.17244 -0.23996,0.19659 -0.2401,0.19655 0.20074,0.23845 c 0.11105,0.13115 0.29886,0.28126 0.41906,0.33361 0.28691,0.12497 0.77288,0.12554 1.07006,0 z m 8.85757,-0.0336 c 0.1462,-0.0784 0.31475,-0.25943 0.41091,-0.44123 0.15646,-0.29576 0.16307,-0.37756 0.16307,-2.0168 l 0,-1.70854 -0.28664,0 -0.28663,0 0,1.59442 c 0,1.72206 -0.0295,1.87964 -0.3738,2.0445 -0.25177,0.12075 -0.53503,0.0436 -0.68629,-0.18682 -0.10262,-0.15712 -0.12511,-0.43009 -0.14395,-1.81849 l -0.0225,-1.63361 -0.28186,0 -0.28171,0 0,1.63024 c 0,1.69805 0.0478,2.00782 0.33035,2.32554 0.30983,0.34753 1.01271,0.44922 1.45736,0.21079 z m 10.2206,0.0166 c 0.40275,-0.19112 0.56427,-0.48745 0.56455,-1.03521 0,-0.60363 -0.17164,-0.872 -0.86791,-1.3558 -0.59787,-0.41537 -0.76305,-0.69241 -0.59352,-0.99585 0.15028,-0.26893 0.56892,-0.29817 0.81057,-0.0567 l 0.17501,0.17499 0.22633,-0.18897 0.22633,-0.18898 -0.14817,-0.1884 c -0.37548,-0.47733 -1.17592,-0.52739 -1.63954,-0.10248 -0.229,0.20994 -0.25978,0.28124 -0.28776,0.66897 -0.0408,0.57173 0.14311,0.9091 0.7175,1.312 0.61053,0.42831 0.77219,0.62471 0.77219,0.93819 0,0.61248 -0.62065,0.72445 -1.07344,0.19368 -0.10262,-0.12104 -0.1209,-0.11753 -0.34048,0.0704 l -0.23167,0.19799 0.19583,0.2274 c 0.37871,0.43988 0.9808,0.57228 1.49418,0.32867 z m 13.01567,-0.0578 c 0.26569,-0.17409 0.41189,-0.536 0.41147,-1.01905 0,-0.55301 -0.14592,-0.78 -0.81956,-1.27827 -0.57088,-0.4221 -0.68489,-0.56387 -0.68489,-0.85083 0,-0.41189 0.52224,-0.54823 0.86019,-0.22451 l 0.18725,0.17943 0.19849,-0.20717 c 0.17178,-0.1793 0.1864,-0.22642 0.10965,-0.35024 -0.22844,-0.36592 -0.84247,-0.52476 -1.32142,-0.34187 -0.88675,0.33863 -0.88689,1.49209 0,2.11691 0.90574,0.63836 1.10043,1.02237 0.71427,1.40861 -0.2335,0.23338 -0.55499,0.19009 -0.83024,-0.11175 l -0.18992,-0.20837 -0.23996,0.20124 -0.23997,0.20128 0.1791,0.19561 c 0.35031,0.38252 0.56975,0.4751 1.04546,0.44107 0.24011,-0.0172 0.51943,-0.0856 0.62093,-0.15206 z m 14.97868,0.0759 c 0.28903,-0.12314 0.50931,-0.36782 0.61488,-0.68278 0.052,-0.15382 0.0815,-0.847 0.0815,-1.88102 l 0,-1.63747 -0.28186,0 -0.28185,0 -0.0225,1.67661 c -0.0197,1.5028 -0.0366,1.69155 -0.15337,1.82084 -0.29648,0.32729 -0.77739,0.24478 -0.94763,-0.16256 -0.0801,-0.19147 -0.10402,-0.60537 -0.10402,-1.79192 l 0,-1.54297 -0.28664,0 -0.28663,0 0,1.63069 c 0,0.89691 0.0309,1.74048 0.0703,1.87462 0.18318,0.63841 0.95002,0.97228 1.5985,0.69596 z m 16.73097,-0.0907 c 0.27665,-0.20277 0.44675,-0.57691 0.44689,-0.98266 0,-0.5195 -0.17122,-0.80145 -0.7466,-1.22832 -0.27904,-0.20699 -0.56582,-0.44176 -0.63737,-0.52171 -0.15337,-0.17147 -0.18036,-0.539 -0.0506,-0.69473 0.12792,-0.15455 0.52196,-0.13678 0.73816,0.0333 0.23392,0.18397 0.27877,0.1806 0.48246,-0.0363 l 0.16883,-0.1796 -0.20664,-0.21566 c -0.37281,-0.3891 -1.09692,-0.44845 -1.50979,-0.1237 -0.34568,0.27191 -0.48471,0.86195 -0.31138,1.32095 0.10122,0.26818 0.36747,0.54029 0.90335,0.92361 0.30954,0.22141 0.46601,0.38854 0.52167,0.55719 0.21171,0.64127 -0.46151,1.0089 -0.93145,0.50866 -0.20679,-0.22004 -0.28805,-0.21987 -0.49554,0 -0.158,0.16817 -0.16025,0.18499 -0.0478,0.35701 0.0647,0.0992 0.23898,0.24598 0.3863,0.32601 0.34807,0.18906 1.00175,0.16616 1.28993,-0.0451 z m -70.551,-0.79642 0.0197,-0.91368 0.22253,-0.0216 0.22239,-0.0218 0.31616,0.91741 0.31615,0.91742 0.33921,0.0216 c 0.18655,0.0127 0.33921,0.007 0.33921,-0.01 0,-0.0171 -0.14662,-0.44425 -0.32571,-0.94911 l -0.32558,-0.91794 0.22675,-0.1775 c 0.42651,-0.33376 0.54614,-0.98955 0.28523,-1.56405 -0.20257,-0.44629 -0.45139,-0.54845 -1.41926,-0.5828 l -0.8062,-0.0287 0,2.12166 0,2.12168 0.28453,0 0.28452,0 0.0197,-0.91365 z m 0.0183,-1.53753 c -0.0225,-0.0583 -0.0309,-0.34496 -0.0197,-0.63686 l 0.0211,-0.53073 0.42018,0.003 c 0.352,0.003 0.44197,0.0292 0.55527,0.16917 0.17151,0.21176 0.17657,0.65753 0.0141,0.86318 -0.1625,0.20043 -0.9219,0.30281 -0.98712,0.13312 z m 4.62383,2.16704 0,-0.28413 -0.73451,-0.0205 -0.73451,-0.0202 -0.0211,-0.66284 -0.0211,-0.66283 0.4684,0 0.46854,0 0,-0.28321 0,-0.28323 -0.44788,-0.0215 -0.44787,-0.0215 0,-0.53745 0,-0.53743 0.69866,-0.0205 0.69867,-0.0205 0,-0.28404 0,-0.28405 -1.00316,0 -1.00329,0 0,2.11392 0,2.11394 1.03914,0 1.039,0 0,-0.28412 z m 5.51762,-0.003 0,-0.28663 -0.71651,0 -0.71666,0 0,-0.68076 0,-0.68074 0.43002,0 0.42988,0 0,-0.28663 0,-0.28665 -0.42988,0 -0.43002,0 0,-0.57327 0,-0.57326 0.68081,0 0.68081,0 0,-0.28663 0,-0.28665 -1.00329,0 -1.00316,0 0,2.11391 0,2.11396 1.039,0 1.039,0 0,-0.28665 z m 1.13951,0.018 c 0.038,-0.14781 0.0914,-0.38964 0.11809,-0.53745 l 0.0478,-0.26872 0.45449,0 0.45448,0 0.0759,0.26872 c 0.0422,0.14781 0.0956,0.38964 0.11949,0.53745 0.0436,0.2664 0.0478,0.26872 0.38321,0.26872 l 0.33893,0 -0.21424,-0.87781 c -0.11808,-0.4828 -0.34792,-1.42604 -0.51127,-2.09602 l -0.29676,-1.21821 -0.31911,0 -0.31911,0 -0.12651,0.53745 c -0.0689,0.29559 -0.29901,1.23879 -0.51058,2.09602 l -0.38447,1.55857 0.30912,0 c 0.2969,0 0.3118,-0.0112 0.37914,-0.26872 z m 0.40051,-1.4523 c -0.0464,-0.0744 0.18542,-1.45028 0.23546,-1.40022 0.0605,0.0602 0.30196,1.29977 0.26991,1.38351 -0.0408,0.10712 -0.44127,0.12047 -0.50537,0.0166 z m 8.42276,1.56792 c 0.88521,-0.49754 1.06374,-2.89716 0.27539,-3.70338 -0.2744,-0.28066 -0.58873,-0.37046 -1.29864,-0.37098 l -0.55542,0 0,2.11391 0,2.11395 0.65312,0 c 0.53419,0 0.7026,-0.0277 0.92555,-0.15311 z m -0.98895,-1.94292 0.0197,-1.52275 0.30378,0.006 c 0.38673,0.007 0.56287,0.16577 0.70007,0.62775 0.12512,0.42066 0.13917,1.3233 0.0281,1.72523 -0.11668,0.42148 -0.41695,0.68641 -0.77711,0.68641 l -0.29352,0 0.0197,-1.52276 z m 4.56971,1.80937 0,-0.28663 -0.71652,0 -0.71666,0 0,-0.68074 0,-0.68076 0.46573,0 0.46587,0 0,-0.28663 0,-0.28665 -0.46587,0 -0.46573,0 0,-0.57327 0,-0.57326 0.68082,0 0.68067,0 0,-0.28663 0,-0.28664 -0.96731,0 -0.96745,0 0,2.11392 0,2.11394 1.0033,0 1.00315,0 0,-0.28665 z m 5.37072,-0.26871 0.10402,-0.51953 0.47726,0 0.47725,0 0.0914,0.53745 0.0914,0.53744 0.35594,0 c 0.25501,0 0.3461,-0.0254 0.32178,-0.0896 -0.0183,-0.0492 -0.25557,-1.00052 -0.52632,-2.11394 l -0.49215,-2.02434 -0.3028,0 c -0.28917,0 -0.3059,0.0126 -0.37478,0.26871 -0.15253,0.56942 -0.93666,3.8326 -0.93666,3.89822 0,0.0381 0.13776,0.0593 0.30449,0.0471 l 0.30463,-0.0221 0.10402,-0.51953 z m 0.29029,-1.20874 c 0,-0.19955 0.24516,-1.31723 0.28888,-1.31723 0.0394,0 0.28439,1.1656 0.28439,1.3498 0,0.0495 -0.11668,0.0834 -0.28664,0.0834 -0.21635,0 -0.28663,-0.0283 -0.28663,-0.11598 z m 2.90219,0.85051 0,-0.91372 0.2231,-0.0218 0.22309,-0.0216 0.32319,0.91742 0.32318,0.91747 0.33766,0.0221 c 0.39053,0.0254 0.39474,0.15758 -0.0337,-1.09052 l -0.26879,-0.78179 0.21663,-0.18226 c 0.59703,-0.5024 0.54277,-1.60278 -0.097,-1.98009 -0.194,-0.11428 -0.40444,-0.14821 -1.04884,-0.16895 l -0.80621,-0.026 0,2.12166 0,2.12166 0.30463,1e-4 0.30449,6e-5 0,-0.91374 z m 0.0183,-1.49281 c -0.0745,-0.0751 -0.0647,-1.04715 0.014,-1.16848 0.0914,-0.14529 0.76713,-0.0682 0.93976,0.1074 0.23546,0.23958 0.21719,0.76331 -0.0323,0.92682 -0.19174,0.12567 -0.83375,0.21948 -0.91866,0.13425 z m 3.61759,0.59702 0.0197,-1.80939 0.37618,-0.0217 0.37632,-0.0218 0,-0.28289 0,-0.2829 -1.07499,0 -1.07484,0 0,0.2829 0,0.28289 0.37618,0.0218 0.37632,0.0217 0.0197,1.80939 0.0197,1.80938 0.28425,0 0.2841,0 0.0197,-1.80938 z m 6.04084,1.27194 0.11949,-0.53745 0.45378,0 c 0.50467,0 0.46123,-0.047 0.61305,0.66285 l 0.0886,0.41204 0.3111,0 c 0.17108,0 0.3111,-0.0292 0.3111,-0.0651 0,-0.0627 -0.78962,-3.34475 -0.9368,-3.8941 -0.0689,-0.25711 -0.0858,-0.26871 -0.37675,-0.26871 l -0.30477,0 -0.49047,2.02434 c -0.26976,1.11342 -0.50565,2.06469 -0.52421,2.11394 -0.0239,0.0635 0.0605,0.0896 0.29156,0.0896 l 0.32515,0 0.11949,-0.53744 z m 0.2969,-1.16444 c -0.0323,-0.0541 0.24572,-1.46742 0.28129,-1.43183 0.0169,0.0169 0.31517,1.39966 0.31517,1.46116 0,0.05 -0.5661,0.0224 -0.59646,-0.0294 z m 5.45196,1.55896 c 0.61671,-0.37599 0.75855,-1.41539 0.2612,-1.91282 l -0.17615,-0.17615 0.17221,-0.2046 c 0.21986,-0.26132 0.2893,-0.63441 0.18809,-1.01031 -0.1573,-0.58439 -0.54684,-0.77997 -1.55463,-0.78066 l -0.58902,0 -0.0197,2.11397 -0.0197,2.11397 0.75237,0 c 0.62429,0 0.79228,-0.0246 0.986,-0.14271 z m -1.12924,-1.1111 0,-0.68076 0.29141,0 c 0.52829,0 0.77767,0.224 0.78118,0.70194 0,0.44588 -0.22703,0.65956 -0.71103,0.65956 l -0.36156,0 0,-0.68074 z m 0,-1.83643 0,-0.58237 0.37168,0.0357 c 0.43368,0.0416 0.63161,0.22568 0.63161,0.58706 0,0.34106 -0.24756,0.54199 -0.66746,0.54199 l -0.33583,0 0,-0.58239 z m 3.08129,2.15888 0,-0.93156 0.21255,0 c 0.25388,0 0.25992,0.01 0.61136,1.05696 l 0.27075,0.80617 0.34484,0 0.34483,0 -0.3319,-0.94066 -0.3319,-0.94068 0.2207,-0.18795 c 0.1209,-0.10333 0.25178,-0.25245 0.28959,-0.33127 0.21944,-0.45692 0.13495,-1.1587 -0.1798,-1.48737 -0.24952,-0.26102 -0.56188,-0.33904 -1.35937,-0.33953 l -0.66071,0 -0.0197,2.11397 -0.0197,2.11397 0.30463,-3e-5 0.30449,-3e-5 0,-0.93155 z m 0,-2.06809 0,-0.65493 0.28199,0 c 0.5595,0 0.85822,0.21589 0.8623,0.62304 0,0.37541 -0.24531,0.59473 -0.73226,0.64462 l -0.41203,0.0422 0,-0.65496 z m 6.41491,2.24807 0.28298,-0.75163 0.28636,0.75163 0.28635,0.75159 0.33907,0 0.33907,0 -0.25332,-0.59118 c -0.13917,-0.32515 -0.34736,-0.81707 -0.46235,-1.09315 l -0.20918,-0.50195 0.42932,-0.99804 c 0.23617,-0.54892 0.42932,-1.00827 0.42932,-1.02079 0,-0.0127 -0.14592,-0.0229 -0.32431,-0.0229 -0.28832,0 -0.33218,0.0218 -0.39685,0.19708 -0.0394,0.10838 -0.15702,0.42015 -0.25992,0.69281 l -0.18725,0.49577 -0.25936,-0.67492 -0.25937,-0.6749 -0.30308,-0.0221 c -0.19203,-0.0141 -0.30294,0.008 -0.30294,0.0597 0,0.045 0.17909,0.51161 0.39797,1.03698 l 0.39783,0.95518 -0.43368,1.02424 c -0.23855,0.56336 -0.43382,1.04985 -0.43382,1.08109 0,0.0312 0.13777,0.0568 0.30716,0.0568 l 0.30702,0 0.28298,-0.7516 z m 4.26227,0.46494 0,-0.28663 -0.71651,0 -0.71666,0 0,-0.68074 0,-0.68076 0.44984,0 0.44971,0 -0.0267,-0.28663 -0.0267,-0.28665 -0.42257,0 -0.4223,0 0,-0.57327 0,-0.57326 0.68067,0 0.68082,0 0,-0.28663 0,-0.28664 -1.0033,0 -1.00315,0 0,2.11392 0,2.11394 1.039,0 1.03914,0 0,-0.28665 z m 2.65141,0.003 0,-0.28392 -0.66281,-0.0207 -0.66296,-0.0205 -0.0197,-1.80938 -0.0197,-1.80937 -0.28537,0 -0.28551,0 0,2.11394 0,2.11392 0.96744,0 0.96745,0 0,-0.28395 z m 2.65141,-0.003 0,-0.28663 -0.68081,0 -0.68081,0 0,-1.82728 0,-1.8273 -0.28664,0 -0.28663,0 0,2.11392 0,2.11394 0.96745,0 0.96744,0 0,-0.28665 z m 2.72296,0 0,-0.28663 -0.75236,0 -0.75251,0 0,-0.68074 0,-0.68076 0.46587,0 0.46573,0 0,-0.28663 0,-0.28665 -0.46882,0 -0.46868,0 0.0211,-0.55535 0.0211,-0.55536 0.69881,-0.0205 0.69866,-0.0205 0,-0.28403 0,-0.28405 -1.00329,0 -1.00315,0 0,2.11392 0,2.11394 1.039,0 1.039,0 0,-0.28664 z m -64.21767,-4.61552 c 0.24278,-0.25279 0.44141,-0.4785 0.44141,-0.50163 0,-0.0232 -0.17361,-0.042 -0.38574,-0.042 l -0.38574,0 -0.25922,0.4351 c -0.14255,0.2393 -0.25923,0.46501 -0.25923,0.5016 0,0.0366 0.0914,0.0665 0.2037,0.0665 0.1566,0 0.30533,-0.106 0.64482,-0.45959 z m 38.69516,0.40452 c -0.0141,-0.0302 -0.13636,-0.25599 -0.27328,-0.5016 l -0.24938,-0.44657 -0.42693,0 -0.42679,0 0.20946,0.23289 c 0.66675,0.74141 0.70232,0.77034 0.94861,0.77034 0.13354,0 0.23153,-0.0249 0.21831,-0.0551 z m -22.27388,-5.391 c 0.0787,-0.0789 0.14324,-0.18743 0.14324,-0.24136 0,-0.10402 -0.97433,-2.10946 -4.00403,-8.24055 -1.02958,-2.08356 -1.87191,-3.81171 -1.87191,-3.84036 0,-0.0287 0.21803,-0.13762 0.48456,-0.24221 2.05481,-0.80616 3.5473,-2.52377 4.09372,-4.71144 0.32024,-1.28182 0.32769,-3.27515 0.0183,-4.69539 -0.6534,-2.99371 -2.61289,-4.85737 -5.97772,-5.6851 -1.72755,-0.42496 -2.12341,-0.44826 -8.24143,-0.48483 -5.04134,-0.0301 -5.59114,-0.0224 -5.75055,0.0821 l -0.17628,0.11556 0,13.91241 c 0,12.84508 0.014,13.92244 0.11808,14.04344 0.11387,0.12581 0.53574,0.13101 10.56965,0.13101 10.35541,0 10.4524,0 10.59439,-0.14328 z m 26.69247,0.0977 c 0.31827,-0.12216 0.29648,-0.2181 -1.11701,-4.9159 -0.75026,-2.4933 -1.90776,-6.33908 -2.57227,-8.54616 -0.66436,-2.2071 -1.9041,-6.32531 -2.75487,-9.15157 -0.85077,-2.82629 -1.57713,-5.21861 -1.61438,-5.31633 -0.0366,-0.0977 -0.13073,-0.21182 -0.20946,-0.25361 -0.0942,-0.0505 -1.25099,-0.0761 -3.43512,-0.0761 -3.03307,0 -3.30467,0.01 -3.43878,0.12539 -0.10402,0.0898 -0.38995,0.93943 -1.0061,2.99176 -0.80761,2.69 -1.88878,6.28405 -5.78654,19.23468 -0.88268,2.9331 -1.60496,5.41354 -1.60496,5.51208 0,0.0985 0.0534,0.23815 0.11809,0.31023 0.11386,0.12595 0.57144,0.13101 11.71028,0.13101 6.37541,0 11.64519,-0.0205 11.71056,-0.0455 z m 16.15938,-0.12371 c 4.5953,-0.66353 6.87868,-2.50365 7.5706,-6.10088 0.18148,-0.94308 0.16827,-2.84944 -0.0267,-3.76241 -0.28298,-1.32971 -0.80283,-2.34667 -1.65599,-3.23972 -0.51521,-0.5392 -1.38411,-1.18547 -1.96118,-1.45858 l -0.26498,-0.12539 0.49286,-0.33948 c 0.78258,-0.53914 1.06711,-0.78619 1.52187,-1.32164 0.52182,-0.61439 1.07077,-1.71589 1.25001,-2.50805 0.18668,-0.82552 0.17108,-2.5552 -0.0309,-3.44388 -0.64862,-2.85112 -2.56017,-4.65896 -5.72187,-5.41167 -1.5254,-0.36312 -1.70309,-0.37221 -7.89617,-0.40471 -5.25334,-0.0274 -5.84362,-0.0194 -6.00148,0.0841 l -0.17502,0.11471 0,13.93188 0,13.93192 0.16124,0.11527 c 0.14592,0.10431 0.72172,0.11261 6.03733,0.0865 4.98835,-0.0246 6.0005,-0.0469 6.7,-0.14793 z"
       id="path2987"
       style="fill:#000000" />
  </g>
</svg>
