<?xml version="1.0" encoding="UTF-8" standalone="no"?>
<!-- Created with Inkscape (http://www.inkscape.org/) -->

<svg
   xmlns:dc="http://purl.org/dc/elements/1.1/"
   xmlns:cc="http://creativecommons.org/ns#"
   xmlns:rdf="http://www.w3.org/1999/02/22-rdf-syntax-ns#"
   xmlns:svg="http://www.w3.org/2000/svg"
   xmlns="http://www.w3.org/2000/svg"
   xmlns:sodipodi="http://sodipodi.sourceforge.net/DTD/sodipodi-0.dtd"
   xmlns:inkscape="http://www.inkscape.org/namespaces/inkscape"
   width="541.90735"
   height="194.94473"
   id="svg2"
   version="1.1"
   inkscape:version="0.48.3.1 r9886"
   sodipodi:docname="rtbf.svg">
  <defs
     id="defs4" />
  <sodipodi:namedview
     id="base"
     pagecolor="#ffffff"
     bordercolor="#666666"
     borderopacity="1.0"
     inkscape:pageopacity="0.0"
     inkscape:pageshadow="2"
     inkscape:zoom="0.9493291"
     inkscape:cx="271.21428"
     inkscape:cy="71.224993"
     inkscape:document-units="px"
     inkscape:current-layer="layer1"
     showgrid="false"
     inkscape:window-width="1680"
     inkscape:window-height="994"
     inkscape:window-x="0"
     inkscape:window-y="27"
     inkscape:window-maximized="1"
     fit-margin-top="0"
     fit-margin-left="0"
     fit-margin-right="0"
     fit-margin-bottom="0" />
  <metadata
     id="metadata7">
    <rdf:RDF>
      <cc:Work
         rdf:about="">
        <dc:format>image/svg+xml</dc:format>
        <dc:type
           rdf:resource="http://purl.org/dc/dcmitype/StillImage" />
        <dc:title />
      </cc:Work>
    </rdf:RDF>
  </metadata>
  <g
     inkscape:label="Layer 1"
     inkscape:groupmode="layer"
     id="layer1"
     transform="translate(-103.78572,-170.29078)">
    <path
       d="m 155.47689,364.26129 c -11.18601,-0.90553 -21.43125,-4.85957 -29.84571,-11.51853 -2.08769,-1.65217 -6.14683,-5.65722 -7.82803,-7.72391 -6.08588,-7.48073 -9.99441,-16.39107 -11.46487,-26.13625 -0.3646,-2.41268 -0.38777,-5.50223 -0.38777,-50.33918 0,-44.83681 0.0236,-47.92645 0.38777,-50.33914 1.45212,-9.6233 5.32721,-18.52923 11.2779,-25.91933 1.65721,-2.05808 5.70117,-6.08102 7.796,-7.75568 7.55461,-6.03858 16.41742,-9.8336 26.55048,-11.36878 2.28919,-0.34613 15.44008,-0.36861 222.70702,-0.36861 207.26684,0 220.41769,0.0234 222.70683,0.36861 6.14787,0.93138 11.22172,2.47222 16.38294,4.97526 5.65096,2.74051 10.0364,5.90242 14.61616,10.53797 7.96691,8.06405 12.88451,17.9934 14.62547,29.53056 0.3646,2.41269 0.38777,5.50233 0.38777,50.33914 0,44.98894 -0.0236,47.91835 -0.39109,50.33918 -1.76347,11.5916 -6.65075,21.46183 -14.6222,29.53048 -4.57976,4.63572 -8.96521,7.79764 -14.61611,10.53806 -5.04419,2.44622 -9.89751,3.93882 -16.15491,4.96805 -2.092,0.34472 -15.65677,0.36861 -221.74558,0.38969 -120.73436,0.0187 -219.90638,-0.01 -220.38217,-0.0496 z m 441.08888,-3.81114 c 5.57913,-0.74173 10.09949,-2.10688 15.24729,-4.60355 13.47269,-6.53394 22.91718,-17.94211 26.61124,-32.14429 1.17146,-4.50374 1.23085,-5.32767 1.33205,-18.47551 l 0.095,-12.37059 -265.16631,0 -265.16621,0 0,11.0402 c 0,6.2828 0.0984,11.93661 0.22793,13.12034 1.48021,13.50171 8.60098,25.87508 19.56085,33.99057 7.10397,5.26003 15.34697,8.54143 23.89825,9.51336 0.89448,0.1021 100.17769,0.19532 221.35538,0.20797 187.97351,0.0234 220.06173,-0.0234 222.00429,-0.27868 z m -374.14255,-4.52888 c -1.48138,-0.17472 -2.74146,-0.36582 -2.80011,-0.42296 -0.0974,-0.0965 -1.10339,-8.50719 -1.02727,-8.58972 0.0236,-0.0234 0.56833,0.11053 1.22263,0.28993 0.7406,0.20187 2.24876,0.33723 4.0007,0.35785 2.52138,0.0234 2.90362,-0.0187 3.70352,-0.44028 1.09357,-0.5794 1.93826,-1.54198 2.59563,-2.95813 l 0.49923,-1.07446 -6.7651,-15.95515 c -3.72092,-8.77544 -6.82884,-16.12395 -6.90668,-16.33008 -0.13289,-0.35176 0.26482,-0.37424 6.50218,-0.3733 l 6.64365,9.8e-4 3.34531,10.70958 c 1.8399,5.89015 3.3971,10.70841 3.46041,10.70729 0.0667,-0.001 1.37599,-4.36309 2.9172,-9.69296 1.54107,-5.32992 2.93527,-10.14873 3.09812,-10.70836 l 0.29557,-1.01742 6.22335,0 6.22349,0 -6.88427,18.36839 c -3.78628,10.10265 -7.37433,19.33892 -7.97334,20.52524 -1.8775,3.71789 -3.92163,5.42954 -7.67845,6.42908 -1.83777,0.48955 -7.28818,0.57859 -10.69567,0.17705 z m -74.62403,-12.20616 c -6.9481,-0.78876 -10.04155,-1.88248 -12.6587,-4.4755 -2.44822,-2.42561 -4.09087,-5.65066 -4.7167,-9.2605 l -0.28942,-1.67127 0.56001,-0.14989 c 0.76387,-0.20375 12.50766,-0.87372 12.74732,-0.72693 0.10504,0.066 0.25442,0.59012 0.33197,1.1666 0.33623,2.50819 2.27369,4.94163 4.6427,5.83053 1.72172,0.64613 4.74148,0.64365 6.22459,-0.004 2.02781,-0.88716 3.10692,-2.34271 3.10692,-4.19091 0,-1.15498 -0.34428,-1.88472 -1.33328,-2.82294 -1.1097,-1.05311 -2.77368,-1.69109 -7.67595,-2.94318 -2.4793,-0.63377 -5.23775,-1.41232 -6.12981,-1.731 -5.41064,-1.93293 -8.89015,-4.87479 -10.13094,-8.56476 -1.93466,-5.75418 0.87221,-11.95791 6.67052,-14.74287 2.60973,-1.25348 4.90904,-1.79629 8.93333,-2.10889 3.6901,-0.28619 7.70649,-0.0234 10.70772,0.68079 6.41397,1.52173 9.84384,5.13076 11.04215,11.61875 0.18491,1.0008 0.17829,1.01781 -0.37879,1.03012 -0.31211,0.01 -3.30601,0.17658 -6.65391,0.37564 l -6.08697,0.36347 -0.24875,-1.10464 c -0.34379,-1.52018 -1.60624,-3.24786 -2.829,-3.87072 -1.93206,-0.98393 -4.68809,-1.09966 -6.61433,-0.27774 -2.14411,0.91503 -2.74124,3.21488 -1.22012,4.69928 0.92895,0.90651 1.9198,1.2438 7.29923,2.48496 6.4833,1.49579 10.77847,3.08642 13.31574,4.93119 3.23281,2.35053 4.96394,5.84438 4.98376,10.05918 0.0331,7.66873 -5.14586,13.26962 -13.87211,14.99379 -1.55819,0.30725 -8.17296,0.58762 -9.72619,0.41123 z m 44.7685,-0.1021 c -7.83739,-0.96084 -13.4317,-5.55043 -15.26195,-12.52119 -0.5783,-2.20182 -0.53588,-6.69937 0.0832,-8.953 2.34438,-8.52528 10.36364,-13.32185 20.68217,-12.37084 3.23834,0.29836 5.4287,0.87254 7.90511,2.07194 1.74777,0.84641 2.34641,1.28646 4.00921,2.94749 2.27222,2.26991 3.47237,4.38836 4.20063,7.41478 0.52922,2.19953 0.58998,6.22973 0.12722,8.39398 -1.39401,6.51399 -6.17583,11.11417 -13.1116,12.61346 -2.27813,0.49204 -6.35416,0.68329 -8.63446,0.40329 z m 6.18074,-9.09998 c 2.23097,-1.36014 3.19271,-3.67503 3.20102,-7.70532 0.01,-4.09652 -0.96389,-6.37296 -3.31651,-7.76383 -1.0345,-0.61152 -1.36775,-0.69723 -2.70335,-0.69475 -2.72185,0.003 -4.71646,1.39976 -5.78782,4.05077 -0.42417,1.05099 -0.48263,1.58299 -0.48263,4.40832 0,3.67826 0.31778,4.85296 1.76314,6.52602 1.2075,1.39719 2.60287,1.96788 4.62313,1.89073 1.38203,-0.0496 1.80584,-0.16393 2.70335,-0.71129 z m 74.75308,9.09455 c -2.50058,-0.23982 -5.06437,-0.91626 -6.95695,-1.83668 -2.02068,-0.9829 -4.73624,-3.57703 -6.02138,-5.75221 -3.1814,-5.38495 -3.18944,-13.13294 -0.0237,-18.46974 1.17037,-1.97026 3.89113,-4.52552 5.93162,-5.57082 4.3723,-2.23985 9.90101,-2.87718 16.12639,-1.85896 7.30193,1.19405 11.88193,5.58678 13.26865,12.72564 0.19483,1.0015 0.41283,3.00158 0.48344,4.44491 l 0.13005,2.62397 -12.71418,0 -12.71435,0 0.13997,1.01752 c 0.30455,2.21864 1.75283,4.14772 3.78018,5.03601 0.78799,0.34519 1.30217,0.40561 2.82253,0.3288 2.16605,-0.1082 2.91937,-0.42341 4.39967,-1.84529 l 1.02666,-0.9858 6.05784,0.54562 c 3.33183,0.29976 6.11449,0.60248 6.18381,0.67087 0.24638,0.24401 -1.73505,2.85887 -3.36971,4.44944 -1.0626,1.03406 -2.21727,1.90487 -3.21251,2.42286 -3.47134,1.80668 -9.49362,2.61231 -15.34286,2.05254 z m 9.90091,-20.31172 c 0,-1.2088 -0.86483,-3.44847 -1.67428,-4.33577 -1.27005,-1.39236 -2.23689,-1.78674 -4.38138,-1.78674 -1.46994,0 -2.01165,0.0923 -2.70345,0.46136 -1.88155,1.00337 -3.17567,2.92429 -3.47398,5.15666 l -0.1499,1.12459 6.19161,0 6.19166,0 0,-0.61977 z m 86.07671,20.32539 c -5.1434,-0.52749 -8.75991,-2.00744 -11.47159,-4.69432 -2.49458,-2.47175 -3.7886,-4.92645 -4.31971,-8.19469 -0.34947,-2.14594 -0.17071,-7.52992 0.30549,-9.27979 1.46635,-5.37653 5.89085,-9.61492 11.5282,-11.04288 2.52246,-0.63954 6.67061,-0.90895 9.81372,-0.63874 6.61727,0.56871 10.56154,2.46562 13.25899,6.37572 0.85348,1.23715 2.4251,4.50796 2.24535,4.67311 -0.0875,0.0824 -11.69385,1.60483 -11.74696,1.543 -0.0236,-0.0234 -0.2913,-0.5349 -0.59079,-1.1244 -0.29981,-0.58927 -0.77555,-1.28323 -1.05612,-1.54263 -1.64501,-1.51868 -5.17106,-1.91582 -7.40392,-0.8338 -1.47535,0.7154 -2.77383,2.1398 -3.4059,3.73727 -0.40952,1.03466 -0.48098,1.6435 -0.49427,4.20856 -0.0189,3.33086 0.16552,4.20827 1.19638,5.74941 1.25909,1.8827 3.17559,2.80519 5.7672,2.7761 1.23931,-0.0187 1.82117,-0.13865 2.74988,-0.58848 1.37911,-0.66838 2.75084,-2.11981 3.2661,-3.45629 0.27286,-0.7088 0.48014,-0.94557 0.82213,-0.9436 0.82128,0.004 11.41267,1.24458 11.51728,1.34828 0.0582,0.0576 -0.19815,0.8726 -0.56582,1.81578 -2.0526,5.2717 -6.10272,8.57797 -11.98105,9.78063 -2.03755,0.41687 -6.92896,0.58932 -9.43501,0.33115 z m 36.62509,-0.004 c -2.55227,-0.4548 -4.92918,-1.7097 -6.21763,-3.28374 -0.98712,-1.20604 -1.58373,-2.43462 -2.12959,-4.38525 -0.43837,-1.56552 -0.46344,-2.20547 -0.54336,-13.58502 l -0.0832,-11.94208 6.38442,0 6.38452,0 0.0667,10.22841 c 0.0667,9.98405 0.0747,10.24901 0.52922,11.08536 0.56917,1.05157 1.04637,1.49259 2.07842,1.91967 2.21377,0.91615 4.88165,-0.0824 5.99385,-2.24108 0.77801,-1.51011 0.87188,-2.80762 0.87188,-12.00625 l 0,-8.98611 6.38011,0 6.38003,0 0,16.27987 0,16.27987 -5.94751,0 -5.94757,0 2.4e-4,-2.51704 10e-5,-2.51691 -1.91168,1.84393 c -2.05378,1.98089 -3.65194,2.91957 -5.9678,3.5051 -1.63423,0.41265 -4.87706,0.57854 -6.31987,0.32131 z m 102.91859,0.004 c -6.5592,-0.68323 -10.78911,-3.4132 -13.44389,-8.6752 -1.23516,-2.44828 -1.78822,-4.96603 -1.78769,-8.13989 0,-5.09188 1.43282,-8.89567 4.52792,-12.02817 3.4729,-3.51489 7.89386,-5.07882 14.33271,-5.0702 5.33288,0.01 9.21077,0.91096 12.14145,2.82941 4.62269,3.02622 6.74722,7.34743 7.04155,14.32245 l 0.1291,3.05255 -12.70789,0 -12.70778,0 0.15228,0.80355 c 0.5292,2.79574 1.94132,4.60234 4.19973,5.37235 0.40433,0.13771 1.43505,0.25153 2.29037,0.25153 1.30061,0 1.77114,-0.10727 2.87393,-0.65274 0.72561,-0.35831 1.6322,-1.00623 2.0152,-1.43845 l 0.69648,-0.78543 6.01938,0.54397 c 3.3106,0.2993 6.08371,0.6074 6.16236,0.68572 0.22273,0.22061 -1.37074,2.46731 -2.8246,3.98177 -2.39754,2.49756 -5.28675,3.96271 -9.11974,4.62477 -2.29029,0.39578 -7.63873,0.56866 -9.99054,0.32365 z m 9.94376,-20.5638 c -0.0331,-0.41217 -0.22131,-1.23165 -0.41094,-1.82078 -0.95677,-2.95522 -3.01268,-4.34749 -6.09723,-4.1289 -2.93111,0.2075 -4.93746,2.08778 -5.61795,5.26402 -0.13289,0.62393 -0.24307,1.22833 -0.24307,1.34215 0,0.13021 2.32258,0.18548 6.21782,0.14989 l 6.21786,-0.0576 -0.0667,-0.74997 z m 28.23777,20.57106 c -3.69317,-0.66674 -6.42249,-2.65142 -7.69827,-5.59943 -1.12852,-2.60748 -1.17112,-3.13558 -1.27464,-15.7748 l -0.0974,-11.8352 6.38717,0 6.38706,0 0.0667,10.12142 c 0.0582,9.17647 0.10167,10.20064 0.45256,10.97033 0.51924,1.13968 0.96258,1.60014 1.99227,2.06843 1.72762,0.78543 4.05469,0.34286 5.3412,-1.01597 0.3211,-0.33958 0.80715,-1.09813 1.08133,-1.6872 0.49342,-1.0608 0.49928,-1.16375 0.5625,-10.76397 l 0.0667,-9.69304 6.36976,0 6.36981,0 0,16.28001 0,16.27987 -5.94751,0 -5.94756,0 1.4e-4,-2.51699 9e-5,-2.51691 -1.9235,1.85517 c -2.0071,1.93596 -3.92786,3.06304 -6.0916,3.57409 -1.39012,0.32881 -4.87706,0.47306 -6.09401,0.25386 z m -245.85128,-4.6835 0,-4.03381 7.812,-7.90832 7.81199,-7.90827 -7.16318,-0.0576 -7.16314,-0.0576 0,-4.2813 0,-4.28121 15.24719,0 15.24723,0 0,3.66037 0,3.66036 -8.2095,8.28177 -8.20947,8.28181 8.75027,0.0576 8.75013,0.0576 0,4.28182 0,4.28176 -16.43671,0 -16.43681,0 0,-4.03385 z m 141.22624,-12.24592 0,-16.28001 5.94761,0 5.94747,0 0.004,2.62416 0.004,2.62403 0.69313,-1.2853 c 1.02533,-1.90065 3.01273,-3.80004 4.48575,-4.28697 2.22672,-0.73596 5.47135,-0.40702 7.88756,0.79864 0.47929,0.23982 0.89893,0.45902 0.93227,0.48623 0.0501,0.0497 -3.52222,8.33333 -3.75839,8.71197 -0.0497,0.0824 -0.62323,-0.0421 -1.27336,-0.26464 -2.22795,-0.7755 -4.41249,-0.42529 -5.66789,0.90717 -0.6682,0.71044 -1.53506,2.67278 -1.93958,4.39339 -0.27144,1.15362 -0.36507,3.20167 -0.44594,9.65753 l -0.10309,8.19357 -6.35874,0 -6.3587,0 0,-16.27996 z m 31.79219,0 0,-16.28001 6.27202,0 6.27187,0 0,16.28001 0,16.27987 -6.27187,0 -6.27202,0 0,-16.27987 z m 105.57452,15.26235 c 0.38683,-0.55957 3.00024,-4.29489 5.8082,-8.30058 2.80805,-4.00571 5.16912,-7.38851 5.24696,-7.51732 0.0747,-0.12881 -2.38675,-3.6954 -5.47693,-7.9257 l -5.61843,-7.69164 7.39722,-0.0576 c 4.06842,-0.0234 7.46891,0.0187 7.55687,0.10727 0.0875,0.0899 0.9099,1.46487 1.82689,3.05544 0.91694,1.59049 2.05365,3.55241 2.52592,4.35976 l 0.85859,1.46811 3.03892,-4.52056 3.03878,-4.52051 6.8872,0 c 3.78789,0 6.88702,0.0497 6.88702,0.10727 0,0.0576 -2.44922,3.49578 -5.44275,7.63722 -2.99366,4.14154 -5.44288,7.6435 -5.44288,7.78214 0,0.13911 2.57605,3.90735 5.72463,8.37492 3.14864,4.46758 5.79831,8.24336 5.88816,8.39052 0.12911,0.21171 -1.36264,0.26792 -7.18233,0.26792 l -7.34577,0 -2.98709,-5.14107 c -1.64293,-2.82758 -3.03878,-5.14069 -3.1021,-5.14027 -0.0666,3.3e-4 -1.6722,2.30988 -3.57547,5.13236 l -3.46031,5.13175 -6.87704,0.01 -6.87713,0.01 0.70231,-1.01741 z m -105.57452,-39.68225 0,-4.28421 6.27202,0 6.27187,0 0,4.28421 0,4.28416 -6.27187,0 -6.27202,0 0,-4.28416 z M 171.07127,274.8525 c 13.69567,-1.09035 25.78577,-8.41605 32.86454,-19.91363 7.04619,-11.4448 8.08972,-25.73933 2.77806,-38.05635 -5.96273,-13.827 -18.97866,-23.44351 -34.03971,-25.14964 -3.5907,-0.40656 -9.85401,-0.14661 -13.19625,0.54562 -16.71542,3.46875 -29.44147,16.0223 -33.0106,32.56367 -0.75639,3.505 -0.96244,10.51787 -0.41851,14.24484 1.38118,9.4678 5.53874,17.46404 12.58535,24.20571 7.77241,7.43624 17.47893,11.4173 28.6523,11.75173 0.54752,0.0187 2.2509,-0.074 3.78478,-0.1911 z m 3.36078,-20.54337 c -4.09835,-2.7354 -6.65969,-4.8161 -9.87618,-8.02284 -7.03414,-7.013 -10.85021,-14.39285 -12.54653,-24.26393 -0.62158,-3.61563 -1.13642,-9.84222 -0.83869,-10.13726 0.11256,-0.11147 1.34587,-0.87386 2.74171,-1.69522 1.93301,-1.13746 2.53817,-1.40711 2.53968,-1.13194 0.01,1.73677 0.50174,7.83746 0.76473,9.46345 1.88869,11.70854 8.55845,22.62861 18.21181,29.81688 1.10034,0.81926 3.26728,2.24103 4.8155,3.15949 2.0282,1.20295 2.73829,1.72669 2.5411,1.87414 -0.77635,0.58102 -4.88922,2.85227 -5.1644,2.85227 -0.17544,0 -1.61021,-0.86174 -3.1883,-1.91504 z m 8.21717,-12.96868 c -3.89443,-2.37807 -7.74569,-5.81853 -10.18286,-9.09661 -3.35211,-4.50884 -5.42609,-10.71632 -5.75816,-17.23523 l -0.12058,-2.37616 2.51939,-1.17807 c 1.38563,-0.64778 2.59336,-1.20525 2.68378,-1.23845 0.0908,-0.0328 0.22368,1.26814 0.29555,2.89184 0.21234,4.76762 1.0809,8.33488 2.90831,11.94892 2.66888,5.27816 6.27485,9.06387 11.6713,12.25341 1.1113,0.65687 2.06571,1.26656 2.12069,1.35485 0.10309,0.16487 -0.11822,0.34519 -2.95114,2.41096 l -1.64974,1.20285 -1.53654,-0.93831 z m 226.22172,14.54582 c 4.86046,-0.90848 9.61794,-3.99475 12.48089,-8.09656 0.61245,-0.87798 1.1141,-1.64107 1.1141,-1.69565 0,-0.0576 -0.94892,-0.65685 -2.10855,-1.33985 -1.15987,-0.68239 -2.31549,-1.37222 -2.56829,-1.53292 -0.42939,-0.27354 -0.5051,-0.22249 -1.1499,0.77306 -1.58708,2.4497 -4.85895,4.81709 -7.90653,5.72121 -2.0028,0.59424 -5.79802,0.5489 -7.89394,-0.0947 -4.26088,-1.30735 -7.95969,-4.93418 -9.15938,-8.98111 l -0.33291,-1.12449 16.74949,0 16.74952,0 0,-2.90088 c 0,-3.41381 -0.37027,-5.49179 -1.40284,-7.87792 -1.05423,-2.43518 -1.97278,-3.85133 -3.67535,-5.66608 -2.77168,-2.95428 -5.9179,-4.88978 -9.53191,-5.86378 -2.51571,-0.67827 -8.09389,-0.67995 -10.58572,-0.003 -6.98665,1.89615 -12.49961,7.46064 -14.20908,14.34151 -0.59747,2.40483 -0.64655,7.05661 -0.1007,9.43234 1.66171,7.2249 7.82457,13.32194 14.97328,14.81347 2.43532,0.50767 6.1292,0.54969 8.55823,0.0955 z m -17.42714,-22.8503 c 1.79785,-5.76599 5.89606,-9.36377 11.64827,-10.2263 5.53935,-0.8304 11.6084,2.24496 14.12079,7.15567 0.4554,0.89045 1.36014,3.20421 1.36014,3.47901 0,0.0421 -6.1378,0.074 -13.63972,0.074 l -13.63977,0 0.15085,-0.48211 z m 133.86004,22.57799 c 3.41662,-0.98132 6.49215,-2.7837 8.90126,-5.21682 1.42493,-1.43882 3.31807,-3.87113 3.31807,-4.26266 0,-0.12271 -3.80524,-2.49132 -5.0062,-3.11671 -0.0747,-0.0421 -0.44879,0.40328 -0.82549,0.98492 -1.80826,2.79095 -5.40671,5.19305 -8.87464,5.9242 -3.37482,0.71124 -7.61324,-0.074 -10.42768,-1.91869 -2.66566,-1.7525 -5.23958,-5.22892 -5.69295,-7.68916 l -0.14802,-0.80355 16.81882,0 16.8189,0 -0.13667,-2.95672 c -0.22557,-4.90346 -1.07584,-7.7967 -3.23914,-11.01688 -1.47733,-2.19897 -4.31608,-4.9362 -6.37761,-6.14922 -6.36546,-3.74551 -14.43457,-3.74631 -20.87057,-0.002 -2.13352,1.24127 -5.55998,4.69152 -6.90432,6.95216 -3.14878,5.29512 -3.56592,12.7152 -1.02676,18.26193 2.62623,5.73662 7.99558,9.99427 14.26432,11.31099 2.08704,0.4384 7.4273,0.26698 9.40798,-0.30258 z m -18.70765,-22.51645 c 0,-0.72936 0.84611,-2.69713 1.76542,-4.10607 2.89662,-4.43887 8.36906,-6.94584 13.49927,-6.18421 5.65285,0.83925 10.37641,4.94851 11.63446,10.12158 l 0.14328,0.58931 -13.52121,0 c -13.29083,0 -13.52122,-0.01 -13.52122,-0.41967 z m 100.90581,22.9015 c 4.33021,-0.75986 8.92496,-3.31175 11.58712,-6.43601 0.95184,-1.11681 2.60249,-3.44565 2.50412,-3.53254 -0.21138,-0.18689 -5.18993,-3.09245 -5.2148,-3.04355 -0.0189,0.0327 -0.40858,0.62056 -0.86971,1.30135 -1.65589,2.44791 -4.32807,4.36477 -7.37234,5.28842 -6.28138,1.9059 -13.14569,-0.80028 -16.28372,-6.41928 -0.51178,-0.91686 -1.34246,-3.1274 -1.34246,-3.57344 0,-0.0327 7.55531,-0.066 16.78958,-0.066 l 16.78973,0 -0.11491,-3.37381 c -0.0866,-2.51643 -0.23551,-3.80931 -0.58579,-5.08752 -1.47098,-5.35456 -5.31973,-9.9093 -10.4942,-12.41932 -3.24341,-1.57316 -4.9786,-1.93836 -9.08347,-1.91147 -3.82256,0.0234 -5.5806,0.40655 -8.65092,1.87751 -4.47964,2.1459 -7.97476,5.86017 -9.81952,10.43539 -1.27413,3.16008 -1.66814,7.74865 -0.97569,11.36582 1.50253,7.85025 8.11465,14.27501 16.05736,15.6025 1.51402,0.25293 5.62291,0.24965 7.07976,-0.004 z m -16.90076,-23.02533 c 0.84582,-3.33789 3.438,-6.72753 6.47096,-8.46148 3.24562,-1.85541 7.60558,-2.3311 11.06419,-1.20703 3.70381,1.20389 6.76373,3.79826 8.34481,7.0754 0.46344,0.95985 0.90384,2.05821 0.97956,2.44126 l 0.13714,0.69564 -13.56757,0 -13.5676,0 0.13714,-0.54477 z m -343.53274,20.03724 0,-2.99883 -8.00206,0 -8.00209,0 0,-16.60122 0,-16.60138 -3.0278,0 -3.02786,0 0,19.60029 0,19.60009 11.02991,0 11.0299,0 0,-2.99895 z m 25.97075,2.34172 c 2.35262,-0.55386 5.38874,-2.02079 7.25965,-3.50786 l 1.4815,-1.17747 0.1083,2.61779 0.1083,2.61775 2.97371,0.0576 2.97376,0.0576 0,-19.60618 0,-19.60623 -3.02786,0 -3.0278,0 0,2.69428 0,2.69413 -1.09944,-0.95259 c -4.76873,-4.13189 -12.41374,-5.57072 -18.79769,-3.53789 -3.23603,1.03035 -5.83803,2.71925 -8.47092,5.49835 -4.38488,4.62842 -6.0996,11.27412 -4.59707,17.81688 1.78272,7.76372 8.56565,13.75767 16.72424,14.77921 2.00852,0.25152 5.25182,0.0576 7.39168,-0.44918 z m -7.80377,-5.67367 c -2.46827,-0.525 -4.84849,-1.85695 -6.83281,-3.82317 -2.7968,-2.77124 -4.0626,-5.8361 -4.03418,-9.76738 0.0425,-5.78167 3.79309,-10.87323 9.41956,-12.78489 1.55663,-0.52913 2.08707,-0.60164 4.36704,-0.60164 3.57288,-2.3e-4 5.67749,0.68408 8.45169,2.75002 1.64638,1.22585 3.15875,3.12449 4.07882,5.12037 0.99,2.14796 1.29427,3.57179 1.26986,5.94532 -0.033,3.7347 -1.50897,7.00022 -4.36043,9.68312 -3.32274,3.12608 -7.92638,4.42191 -12.35955,3.47882 z m 47.7964,-2.01306 0,-8.34401 9.80321,-0.066 9.80308,-0.066 1.8283,-0.89751 c 3.00038,-1.47302 5.30551,-4.08257 6.14462,-6.9562 0.52836,-1.80758 0.52836,-4.7627 0,-6.57038 -0.7589,-2.59905 -3.02497,-5.34139 -5.48828,-6.64176 -2.48143,-1.31002 -2.59033,-1.31901 -15.97262,-1.31901 l -12.17398,0 0,19.60019 0,19.6001 3.02776,0 3.02791,0 0,-8.34397 z m 0,-19.61031 0,-5.24813 8.93649,0 8.93649,0 1.17279,0.58927 c 3.49483,1.75555 3.93321,6.59582 0.80548,8.89632 -1.32789,0.97673 -1.69992,1.01083 -11.01663,1.01083 l -8.83491,0 0,-5.24815 z m 39.7942,19.6001 0,-8.35408 3.5144,-0.004 3.51442,-0.004 8.38331,8.35984 8.38316,8.35993 4.10653,0 c 2.25859,0 4.10652,-0.074 4.10652,-0.15924 0,-0.0871 -3.72207,-3.84711 -8.27137,-8.35418 l -8.2714,-8.19455 1.51292,-0.004 c 3.03722,-0.01 5.45382,-1.01765 7.69685,-3.2079 4.54316,-4.43624 4.59007,-11.55778 0.10493,-15.96559 -1.47525,-1.44988 -3.72287,-2.70922 -5.48885,-3.07549 -0.76056,-0.15832 -5.21546,-0.23747 -13.24674,-0.23747 l -12.10069,0 0,19.6 0,19.60019 3.02781,0 3.02785,0 0,-8.35418 z m 0,-19.6001 0,-5.24813 8.78804,0 c 6.0438,0 9.04962,0.074 9.62574,0.24824 1.08341,0.32131 2.46255,1.49817 3.01665,2.57381 1.05119,2.04098 0.66735,4.56266 -0.92905,6.11072 -1.64166,1.59147 -1.43344,1.56313 -11.51916,1.56313 l -8.98222,0 0,-5.24814 z m 82.88087,13.22742 0.0582,-14.7269 0.47848,-0.88739 c 0.60662,-1.12234 1.974,-2.29068 3.05872,-2.61269 2.66941,-0.79204 5.21732,0.30257 6.58134,2.82871 0.47848,0.88557 0.47848,0.88678 0.54085,15.50549 l 0.0667,14.61963 2.91119,0 2.91133,0 0.002,-13.76291 c 0,-7.98158 0.0898,-14.30288 0.21281,-15.04817 0.51924,-3.14294 3.63888,-5.0576 6.8087,-4.17858 1.11404,0.30913 2.46165,1.37784 3.18008,2.52219 l 0.50179,0.79944 0.1083,14.78043 0.10831,14.78049 2.98065,0.0576 2.98053,0.0576 -0.0582,-15.37556 c -0.0667,-17.34174 0.0747,-15.84746 -1.83725,-18.74343 -3.20358,-4.84453 -9.32692,-6.4664 -14.67829,-3.888 -0.84242,0.40609 -1.90336,1.11485 -2.35744,1.57541 l -0.82544,0.83761 -1.07384,-0.9304 c -2.84896,-2.46847 -7.18059,-3.36519 -10.53999,-2.18191 -0.773,0.27213 -1.57607,0.5695 -1.78419,0.66013 -0.31542,0.13677 -0.37784,0.0496 -0.37784,-0.50023 l 0,-0.66595 -3.02786,0 -3.0278,0 0,19.6002 0,19.60019 3.02208,0 3.02204,0 0.0582,-14.7269 z m 57.04778,-4.98036 0,-19.70726 -2.49395,0 -2.49409,0 -2.31809,2.30388 c -3.10428,3.08519 -5.86712,4.82013 -9.61723,6.03905 l -1.45988,0.47391 0,3.18412 0,3.18406 1.13552,-0.3288 c 3.79754,-1.09771 7.16067,-2.53901 9.62404,-4.12453 l 1.35176,-0.87017 0,14.77585 0,14.7757 3.13592,0 3.136,0 0,-19.70727 z m 59.25876,11.35304 0,-8.35408 3.42561,0 3.42556,0 8.40719,8.35408 8.40718,8.35417 4.17155,0 c 2.2942,0 4.17141,-0.074 4.17141,-0.15924 0,-0.0876 -3.70836,-3.83344 -8.24077,-8.32373 l -8.24078,-8.16424 2.02287,-0.11195 c 2.3937,-0.13162 3.77536,-0.61648 5.75745,-2.01695 5.75518,-4.06762 6.44415,-12.16072 1.45609,-17.10465 -1.46058,-1.44772 -3.71502,-2.71741 -5.47163,-3.08172 -0.76052,-0.15738 -5.21538,-0.23747 -13.24666,-0.23747 l -12.10073,0 0,19.60014 0,19.60019 3.02786,0 3.0278,0 0,-8.35417 z m 0,-19.60885 0,-5.25695 9.13762,0.0661 c 8.88817,0.0576 9.16117,0.074 10.00259,0.52416 1.89764,1.01424 2.80049,2.52309 2.7994,4.67873 0,1.7065 -0.44452,2.75914 -1.64511,3.89849 -1.42299,1.35096 -1.41155,1.34965 -11.31213,1.34965 l -8.98237,0 0,-5.2569 z m -31.17061,-18.89519 c -1.92942,-2.20908 -4.48864,-5.14594 -5.68738,-6.52641 l -2.17928,-2.51011 -4.29658,-0.009 -4.2965,-0.009 2.55089,2.62407 c 1.40304,1.44318 4.26108,4.38224 6.35122,6.53118 l 3.80024,3.90725 3.63273,0.002 3.63269,0.002 -3.50803,-4.01643 z"
       id="path4531"
       style="fill:#00aa5a;fill-opacity:1"
       inkscape:connector-curvature="0" />
  </g>
</svg>
