<?xml version="1.0" encoding="UTF-8" standalone="no"?>
<!-- Created with Inkscape (http://www.inkscape.org/) -->

<svg
   xmlns:dc="http://purl.org/dc/elements/1.1/"
   xmlns:cc="http://creativecommons.org/ns#"
   xmlns:rdf="http://www.w3.org/1999/02/22-rdf-syntax-ns#"
   xmlns:svg="http://www.w3.org/2000/svg"
   xmlns="http://www.w3.org/2000/svg"
   xmlns:sodipodi="http://sodipodi.sourceforge.net/DTD/sodipodi-0.dtd"
   xmlns:inkscape="http://www.inkscape.org/namespaces/inkscape"
   width="100.0001"
   height="35.636047"
   id="svg2"
   version="1.1"
   inkscape:version="0.48.3.1 r9886"
   sodipodi:docname="rtbf.svg">
  <sodipodi:namedview
     id="base"
     pagecolor="#ffffff"
     bordercolor="#666666"
     borderopacity="1.0"
     inkscape:pageopacity="0.0"
     inkscape:pageshadow="2"
     inkscape:zoom="0.9493291"
     inkscape:cx="64.694696"
     inkscape:cy="70.303999"
     inkscape:document-units="px"
     inkscape:current-layer="layer1"
     showgrid="false"
     inkscape:window-width="1375"
     inkscape:window-height="876"
     inkscape:window-x="65"
     inkscape:window-y="24"
     inkscape:window-maximized="1"
     fit-margin-top="0"
     fit-margin-left="0"
     fit-margin-right="0"
     fit-margin-bottom="0" />
  <defs
     id="defs4" />
  <metadata
     id="metadata7">
    <rdf:RDF>
      <cc:Work
         rdf:about="">
        <dc:format>image/svg+xml</dc:format>
        <dc:type
           rdf:resource="http://purl.org/dc/dcmitype/StillImage" />
        <dc:title></dc:title>
      </cc:Work>
    </rdf:RDF>
  </metadata>
  <g
     transform="translate(-105.95046,-328.67847)"
     id="layer1"
     inkscape:groupmode="layer"
     inkscape:label="Layer 1">
    <path
       inkscape:connector-curvature="0"
       style="fill:#005176;fill-opacity:1"
       id="path4531"
       d="m 115.16578,364.30479 c -2.08136,-0.16849 -3.98767,-0.90421 -5.55333,-2.14323 -0.38845,-0.30742 -1.14373,-1.05263 -1.45654,-1.43717 -1.13239,-1.39193 -1.85964,-3.04985 -2.13325,-4.86312 -0.0678,-0.44892 -0.0722,-1.02379 -0.0722,-9.3665 0,-8.34269 0.004,-8.91757 0.0722,-9.3665 0.27019,-1.79058 0.99122,-3.44769 2.09846,-4.82275 0.30835,-0.38294 1.0608,-1.13148 1.45058,-1.44308 1.40567,-1.12359 3.05476,-1.82972 4.94019,-2.11537 0.42595,-0.0644 2.8729,-0.0686 41.43862,-0.0686 38.5657,0 41.01265,0.004 41.43858,0.0686 1.14392,0.1733 2.088,0.46 3.04834,0.92574 1.05146,0.50992 1.86745,1.09825 2.7196,1.96077 1.48238,1.50047 2.39739,3.348 2.72133,5.49469 0.0678,0.44893 0.0722,1.02381 0.0722,9.3665 0,8.37099 -0.004,8.91606 -0.0728,9.3665 -0.32812,2.15683 -1.23749,3.99336 -2.72072,5.49467 -0.85215,0.86256 -1.66814,1.4509 -2.71959,1.9608 -0.93856,0.45516 -1.84161,0.73289 -3.00591,0.92439 -0.38925,0.0641 -2.91322,0.0686 -41.25972,0.0725 -22.46479,0.003 -40.91751,-0.002 -41.00604,-0.009 z m 82.07246,-0.70913 c 1.0381,-0.13802 1.87919,-0.39203 2.83703,-0.85658 2.50683,-1.21575 4.26415,-3.33845 4.9515,-5.98102 0.21797,-0.838 0.22902,-0.9913 0.24785,-3.43769 l 0.0177,-2.30177 -49.33892,0 -49.33891,0 0,2.05422 c 0,1.16903 0.0183,2.22102 0.0424,2.44128 0.27542,2.51223 1.60037,4.81452 3.63965,6.32455 1.32182,0.97872 2.85557,1.58929 4.44669,1.77013 0.16644,0.019 18.63985,0.0363 41.18712,0.0387 34.97583,0.004 40.94642,-0.004 41.30787,-0.0519 z m -69.6159,-0.84268 c -0.27564,-0.0325 -0.5101,-0.0681 -0.52101,-0.0787 -0.0181,-0.018 -0.20531,-1.58292 -0.19114,-1.59827 0.004,-0.004 0.10574,0.0206 0.22749,0.0539 0.1378,0.0376 0.41842,0.0627 0.7444,0.0666 0.46915,0.004 0.54027,-0.003 0.6891,-0.0819 0.20348,-0.10781 0.36065,-0.28692 0.48297,-0.55042 l 0.0929,-0.19992 -1.25877,-2.96874 c -0.69234,-1.63283 -1.27063,-3.00015 -1.28511,-3.0385 -0.0247,-0.0654 0.0493,-0.0696 1.20985,-0.0695 l 1.23617,1.8e-4 0.62245,1.99271 c 0.34235,1.09597 0.63209,1.99249 0.64387,1.99228 0.0124,-1.8e-4 0.25603,-0.81183 0.5428,-1.80355 0.28674,-0.99172 0.54616,-1.88835 0.57646,-1.99248 l 0.055,-0.18931 1.15796,0 1.15799,0 -1.28094,3.41777 c -0.7045,1.87978 -1.37212,3.59835 -1.48358,3.81909 -0.34934,0.69178 -0.72969,1.01026 -1.42871,1.19624 -0.34195,0.0911 -1.3561,0.10766 -1.99012,0.033 z M 113.7372,360.4818 c -1.29281,-0.14676 -1.86841,-0.35027 -2.35537,-0.83274 -0.45554,-0.45133 -0.76118,-1.05141 -0.87763,-1.72308 l -0.0538,-0.31097 0.1042,-0.0279 c 0.14213,-0.0379 2.32727,-0.16257 2.37187,-0.13526 0.0195,0.0123 0.0473,0.1098 0.0618,0.21706 0.0626,0.4667 0.42306,0.91948 0.86386,1.08488 0.32036,0.12022 0.88224,0.11976 1.1582,-7.5e-4 0.37731,-0.16507 0.5781,-0.4359 0.5781,-0.77979 0,-0.2149 -0.0641,-0.35068 -0.24808,-0.52526 -0.20648,-0.19595 -0.5161,-0.31465 -1.42825,-0.54763 -0.46132,-0.11792 -0.97458,-0.26279 -1.14056,-0.32208 -1.00675,-0.35966 -1.65417,-0.90704 -1.88505,-1.59363 -0.35997,-1.07067 0.16229,-2.22498 1.24117,-2.74317 0.48559,-0.23324 0.91342,-0.33423 1.66221,-0.3924 0.68661,-0.0532 1.43393,-0.004 1.99236,0.12667 1.19344,0.28315 1.83162,0.95467 2.05459,2.16188 0.0344,0.18622 0.0332,0.18938 -0.0705,0.19167 -0.0581,0.002 -0.61514,0.0329 -1.23808,0.0699 l -1.13259,0.0676 -0.0463,-0.20554 c -0.064,-0.28286 -0.29887,-0.60432 -0.52639,-0.72022 -0.35949,-0.18308 -0.8723,-0.20461 -1.23071,-0.0517 -0.39895,0.17026 -0.51006,0.59819 -0.22703,0.87439 0.17285,0.16867 0.35722,0.23143 1.35815,0.46237 1.20634,0.27832 2.00553,0.57428 2.47764,0.91754 0.60152,0.43735 0.92363,1.08745 0.92731,1.87169 0.006,1.4269 -0.95748,2.46905 -2.58115,2.78986 -0.28993,0.0572 -1.52073,0.10934 -1.80973,0.0765 z m 8.32998,-0.019 c -1.45828,-0.17879 -2.4992,-1.03276 -2.83976,-2.32979 -0.1076,-0.40969 -0.0997,-1.24654 0.0155,-1.66587 0.43621,-1.58628 1.92834,-2.47877 3.84828,-2.30182 0.60255,0.0555 1.01011,0.16236 1.47089,0.38553 0.3252,0.15749 0.43659,0.23936 0.74598,0.54843 0.42279,0.42236 0.6461,0.81653 0.78161,1.37965 0.0985,0.40926 0.10977,1.15915 0.0237,1.56185 -0.25938,1.21204 -1.14913,2.06799 -2.43965,2.34696 -0.42389,0.0916 -1.1823,0.12714 -1.60659,0.075 z m 1.15004,-1.69322 c 0.41511,-0.25308 0.59406,-0.6838 0.59561,-1.43371 0.002,-0.76223 -0.17935,-1.1858 -0.6171,-1.4446 -0.19249,-0.11378 -0.25449,-0.12973 -0.50301,-0.12927 -0.50644,5.6e-4 -0.87758,0.26045 -1.07692,0.75372 -0.0789,0.19555 -0.0898,0.29454 -0.0898,0.82024 0,0.68441 0.0591,0.90298 0.32806,1.21429 0.22468,0.25997 0.48431,0.36616 0.86021,0.3518 0.25716,-0.009 0.33601,-0.0305 0.50301,-0.13235 z m 13.90915,1.69221 c -0.46528,-0.0446 -0.94232,-0.17049 -1.29447,-0.34175 -0.37598,-0.18289 -0.88126,-0.66557 -1.12038,-1.0703 -0.59196,-1.00197 -0.59346,-2.44362 -0.004,-3.43663 0.21776,-0.3666 0.72401,-0.84205 1.10368,-1.03655 0.81354,-0.41676 1.84226,-0.53535 3.0006,-0.34589 1.35866,0.22217 2.21085,1.03952 2.46887,2.36783 0.0362,0.18635 0.0768,0.5585 0.0899,0.82706 l 0.0242,0.48823 -2.3657,0 -2.36573,0 0.026,0.18933 c 0.0567,0.41282 0.32615,0.77176 0.70337,0.93704 0.14662,0.0642 0.2423,0.0755 0.52519,0.0612 0.40303,-0.0201 0.5432,-0.0788 0.81863,-0.34335 l 0.19103,-0.18343 1.12717,0.10153 c 0.61995,0.0558 1.13771,0.1121 1.15061,0.12482 0.0458,0.0454 -0.32284,0.53195 -0.627,0.8279 -0.19771,0.19241 -0.41256,0.35444 -0.59774,0.45082 -0.6459,0.33616 -1.76646,0.48607 -2.85481,0.38191 z m 1.84224,-3.77936 c 0,-0.22492 -0.16092,-0.64165 -0.31153,-0.80675 -0.23632,-0.25907 -0.41622,-0.33245 -0.81524,-0.33245 -0.27351,0 -0.3743,0.0172 -0.50302,0.0858 -0.3501,0.18669 -0.59089,0.54412 -0.6464,0.95949 l -0.0279,0.20925 1.15206,0 1.15207,0 0,-0.11532 z m 16.01611,3.7819 c -0.95703,-0.0981 -1.62994,-0.37352 -2.1345,-0.87346 -0.46416,-0.45992 -0.70494,-0.91666 -0.80376,-1.52477 -0.065,-0.39929 -0.0318,-1.40108 0.0568,-1.72667 0.27284,-1.0004 1.0961,-1.78903 2.14503,-2.05473 0.46935,-0.11899 1.24119,-0.16912 1.82602,-0.11885 1.23126,0.10582 1.96516,0.45878 2.46707,1.18632 0.15881,0.23019 0.45123,0.83879 0.41779,0.86952 -0.0163,0.0153 -2.17585,0.2986 -2.18573,0.2871 -0.004,-0.004 -0.0542,-0.0995 -0.10993,-0.20922 -0.0558,-0.10964 -0.1443,-0.23876 -0.19651,-0.28703 -0.30608,-0.28258 -0.96217,-0.35647 -1.37763,-0.15514 -0.27452,0.13311 -0.51612,0.39815 -0.63373,0.69538 -0.0762,0.19252 -0.0895,0.30581 -0.092,0.78308 -0.004,0.61977 0.0308,0.78302 0.22261,1.06978 0.23428,0.35031 0.59088,0.52196 1.07309,0.51654 0.2306,-0.003 0.33886,-0.0258 0.51166,-0.10949 0.25661,-0.12437 0.51185,-0.39443 0.60772,-0.64311 0.0508,-0.13188 0.0893,-0.17594 0.15297,-0.17557 0.15282,7.4e-4 2.12353,0.23158 2.143,0.25087 0.0108,0.0107 -0.0369,0.16236 -0.10528,0.33786 -0.38193,0.98089 -1.13552,1.59608 -2.22929,1.81986 -0.37912,0.0776 -1.28926,0.10965 -1.75555,0.0616 z m 6.81475,-7.4e-4 c -0.4749,-0.0846 -0.91716,-0.31813 -1.1569,-0.611 -0.18367,-0.22441 -0.29468,-0.45301 -0.39625,-0.81596 -0.0816,-0.29129 -0.0862,-0.41036 -0.1011,-2.52773 l -0.0155,-2.22204 1.18793,0 1.18795,0 0.0124,1.90318 c 0.0124,1.85771 0.0139,1.90701 0.0985,2.06263 0.1059,0.19566 0.19469,0.27772 0.38672,0.35719 0.41191,0.17046 0.90832,-0.0153 1.11527,-0.417 0.14476,-0.28098 0.16223,-0.5224 0.16223,-2.23397 l 0,-1.67203 1.18713,0 1.18712,0 0,3.02916 0,3.02916 -1.10664,0 -1.10665,0 4e-5,-0.46834 2e-5,-0.46832 -0.3557,0.3431 c -0.38215,0.36858 -0.67951,0.54324 -1.11042,0.65219 -0.30408,0.0768 -0.90746,0.10764 -1.17592,0.0598 z m 19.14984,7.4e-4 c -1.22046,-0.12713 -2.00751,-0.63509 -2.50148,-1.61418 -0.22982,-0.45554 -0.33273,-0.92402 -0.33263,-1.51457 0,-0.94743 0.2666,-1.6552 0.8425,-2.23805 0.6462,-0.65401 1.4688,-0.94501 2.66686,-0.94341 0.99228,0.002 1.71383,0.1695 2.25913,0.52647 0.86014,0.56308 1.25544,1.36712 1.31021,2.66494 l 0.024,0.56799 -2.36453,0 -2.36451,0 0.0283,0.14951 c 0.0985,0.5202 0.36122,0.85635 0.78144,0.99962 0.0752,0.0256 0.26702,0.0468 0.42616,0.0468 0.24201,0 0.32956,-0.02 0.53475,-0.12145 0.13501,-0.0667 0.3037,-0.18723 0.37496,-0.26765 l 0.1296,-0.14614 1.12001,0.10121 c 0.616,0.0557 1.13198,0.11302 1.14662,0.12759 0.0414,0.041 -0.25505,0.45909 -0.52557,0.74088 -0.44611,0.46472 -0.9837,0.73734 -1.69689,0.86052 -0.42615,0.0736 -1.42132,0.10581 -1.85892,0.0602 z m 1.85021,-3.82626 c -0.006,-0.0767 -0.0412,-0.22917 -0.0765,-0.33879 -0.17802,-0.54987 -0.56056,-0.80893 -1.1345,-0.76826 -0.54538,0.0386 -0.9187,0.38847 -1.04532,0.97947 -0.0247,0.11609 -0.0452,0.22855 -0.0452,0.24973 0,0.0242 0.43216,0.0345 1.15694,0.0279 l 1.15694,-0.0107 -0.0124,-0.13954 z m 5.25414,3.82761 c -0.68718,-0.12406 -1.19501,-0.49334 -1.4324,-1.04187 -0.20998,-0.48517 -0.2179,-0.58343 -0.23717,-2.93519 l -0.0181,-2.20215 1.18845,0 1.18842,0 0.0124,1.88327 c 0.0108,1.70745 0.0189,1.89801 0.0842,2.04123 0.0966,0.21206 0.17911,0.29773 0.3707,0.38487 0.32145,0.14614 0.75445,0.0638 0.99383,-0.18904 0.0597,-0.0632 0.15018,-0.20433 0.2012,-0.31394 0.0918,-0.19738 0.0929,-0.21653 0.10466,-2.00282 l 0.0124,-1.80357 1.18521,0 1.18521,0 0,3.02919 0,3.02916 -1.10664,0 -1.10665,0 3e-5,-0.46833 2e-5,-0.46832 -0.3579,0.34519 c -0.37346,0.36022 -0.73085,0.56993 -1.13346,0.66502 -0.25865,0.0612 -0.90746,0.088 -1.13389,0.0472 z m -45.74502,-0.87145 0,-0.75056 1.45357,-1.47149 1.45356,-1.47147 -1.33284,-0.0107 -1.33283,-0.0107 0,-0.79662 0,-0.79659 2.83701,0 2.83702,0 0,0.68107 0,0.68108 -1.52752,1.54097 -1.52752,1.54098 1.62814,0.0107 1.62812,0.0107 0,0.79671 0,0.7967 -3.05834,0 -3.05837,0 0,-0.75057 z m 26.27767,-2.27857 0,-3.02919 1.10666,0 1.10663,0 7.4e-4,0.48827 7.5e-4,0.48825 0.12897,-0.23915 c 0.19078,-0.35365 0.56057,-0.70707 0.83465,-0.79767 0.41432,-0.13694 1.01804,-0.0757 1.46762,0.1486 0.0892,0.0446 0.16726,0.0854 0.17347,0.0905 0.009,0.009 -0.65537,1.55057 -0.69932,1.62102 -0.009,0.0153 -0.11596,-0.008 -0.23693,-0.0492 -0.41455,-0.14429 -0.82102,-0.0791 -1.05461,0.1688 -0.12433,0.13219 -0.28563,0.49732 -0.36089,0.81747 -0.0505,0.21465 -0.0679,0.59572 -0.083,1.79695 l -0.0192,1.52456 -1.18316,0 -1.18315,0 0,-3.02918 z m 5.9155,0 0,-3.02919 1.16702,0 1.167,0 0,3.02919 0,3.02916 -1.167,0 -1.16702,0 0,-3.02916 z m 19.64403,2.83983 c 0.072,-0.10412 0.55824,-0.79914 1.08072,-1.54447 0.52248,-0.74533 0.9618,-1.37476 0.97629,-1.39873 0.0139,-0.024 -0.4441,-0.6876 -1.01908,-1.47472 l -1.04541,-1.43117 1.37638,-0.0107 c 0.757,-0.004 1.38973,0.003 1.40609,0.02 0.0163,0.0167 0.16931,0.27256 0.33993,0.56852 0.17061,0.29593 0.38212,0.66098 0.46999,0.81121 l 0.15976,0.27316 0.56544,-0.84113 0.56542,-0.84112 1.28149,0 c 0.7048,0 1.28145,0.009 1.28145,0.02 0,0.0107 -0.45572,0.65045 -1.01272,1.42104 -0.55702,0.77061 -1.01275,1.42221 -1.01275,1.44801 0,0.0259 0.47932,0.72703 1.06517,1.5583 0.58587,0.83128 1.07888,1.53383 1.0956,1.56121 0.024,0.0394 -0.25354,0.0498 -1.3364,0.0498 l -1.36681,0 -0.5558,-0.95659 c -0.3057,-0.52612 -0.56542,-0.95652 -0.5772,-0.95644 -0.0124,6e-5 -0.31115,0.4298 -0.66528,0.95497 l -0.64386,0.95485 -1.27959,0.002 -1.27961,0.002 0.13067,-0.18931 z m -19.64403,-7.38359 0,-0.79715 1.16702,0 1.167,0 0,0.79715 0,0.79715 -1.167,0 -1.16702,0 0,-0.79715 z m -56.43442,-5.10322 c 2.54832,-0.20288 4.7979,-1.56596 6.11503,-3.70529 1.31107,-2.12951 1.50524,-4.78926 0.51691,-7.08106 -1.10947,-2.57276 -3.53132,-4.36209 -6.33369,-4.67954 -0.66812,-0.0757 -1.83352,-0.0273 -2.4554,0.10152 -3.1102,0.64542 -5.47811,2.98123 -6.14221,6.05905 -0.14074,0.65217 -0.17908,1.95704 -0.0779,2.65051 0.25699,1.76165 1.03058,3.24949 2.34172,4.5039 1.4462,1.38365 3.25227,2.12439 5.33128,2.18662 0.10187,0.003 0.41882,-0.0138 0.70422,-0.0356 z m 0.62533,-3.82247 c -0.76257,-0.50897 -1.23915,-0.89612 -1.83764,-1.49279 -1.30882,-1.30489 -2.01887,-2.67804 -2.3345,-4.51474 -0.11566,-0.67275 -0.21145,-1.83132 -0.15606,-1.88621 0.0209,-0.0207 0.25043,-0.1626 0.51015,-0.31543 0.35967,-0.21164 0.47227,-0.26182 0.47255,-0.21062 0.002,0.32316 0.0934,1.4583 0.14229,1.76085 0.35143,2.17858 1.59246,4.21045 3.38864,5.54796 0.20473,0.15244 0.60793,0.41698 0.89601,0.58788 0.37738,0.22383 0.5095,0.32128 0.47281,0.34872 -0.14445,0.10811 -0.90972,0.53071 -0.96093,0.53071 -0.0326,0 -0.2996,-0.16034 -0.59324,-0.35633 z m 1.52895,-2.41305 c -0.72462,-0.44248 -1.44122,-1.08264 -1.8947,-1.69259 -0.62372,-0.83895 -1.00962,-1.99396 -1.07141,-3.20692 l -0.0224,-0.44213 0.46877,-0.2192 c 0.25783,-0.12053 0.48255,-0.22426 0.49937,-0.23043 0.0169,-0.006 0.0416,0.23596 0.055,0.53808 0.0395,0.8871 0.20112,1.55085 0.54115,2.22331 0.49659,0.98209 1.16754,1.68649 2.17165,2.27996 0.20678,0.12222 0.38436,0.23567 0.39459,0.2521 0.0192,0.0307 -0.022,0.0642 -0.54911,0.4486 l -0.30696,0.22381 -0.28591,-0.17459 z m 42.0926,2.70651 c 0.90437,-0.16904 1.78958,-0.74329 2.32229,-1.50651 0.11395,-0.16336 0.2073,-0.30535 0.2073,-0.31551 0,-0.0107 -0.17657,-0.12221 -0.39234,-0.2493 -0.21581,-0.12697 -0.43084,-0.25532 -0.47787,-0.28523 -0.0799,-0.0509 -0.094,-0.0414 -0.21396,0.14385 -0.29531,0.45581 -0.9041,0.8963 -1.47115,1.06453 -0.37266,0.11057 -1.07883,0.10213 -1.46881,-0.0176 -0.79282,-0.24326 -1.48105,-0.91809 -1.70427,-1.6711 l -0.0619,-0.20923 3.11654,0 3.11655,0 0,-0.53976 c 0,-0.6352 -0.0689,-1.02185 -0.26103,-1.46583 -0.19616,-0.45311 -0.36707,-0.71661 -0.68386,-1.05427 -0.51572,-0.5497 -1.10113,-0.90983 -1.77358,-1.09106 -0.4681,-0.12621 -1.50602,-0.12652 -1.96967,-5.6e-4 -1.29999,0.35281 -2.32577,1.38818 -2.64385,2.66849 -0.11117,0.44746 -0.1203,1.31301 -0.0187,1.75506 0.30919,1.34432 1.4559,2.47878 2.78605,2.75631 0.45313,0.0945 1.14045,0.10228 1.59241,0.0178 z m -3.24264,-4.25171 c 0.33453,-1.07286 1.09707,-1.74229 2.16737,-1.90278 1.0307,-0.15451 2.15995,0.41771 2.62743,1.33144 0.0847,0.16568 0.25308,0.5962 0.25308,0.64733 0,0.008 -1.14205,0.0138 -2.53792,0.0138 l -2.53792,0 0.0281,-0.0897 z m 24.90706,4.20104 c 0.63572,-0.18259 1.20798,-0.51796 1.65623,-0.97068 0.26514,-0.26772 0.61739,-0.72029 0.61739,-0.79314 0,-0.0228 -0.70803,-0.46356 -0.93149,-0.57992 -0.0139,-0.008 -0.0835,0.075 -0.1536,0.18326 -0.33646,0.5193 -1.00602,0.96626 -1.65129,1.1023 -0.62794,0.13234 -1.41657,-0.0138 -1.94025,-0.35701 -0.496,-0.32608 -0.97492,-0.97293 -1.05928,-1.4307 l -0.0275,-0.14952 3.12944,0 3.12946,0 -0.0254,-0.55015 c -0.042,-0.91237 -0.20018,-1.45071 -0.6027,-2.04988 -0.27488,-0.40916 -0.80308,-0.91847 -1.18667,-1.14418 -1.18441,-0.69692 -2.68581,-0.69706 -3.88334,-3.7e-4 -0.39698,0.23096 -1.03453,0.87294 -1.28467,1.29358 -0.58589,0.98525 -0.66351,2.36589 -0.19105,3.39795 0.48866,1.0674 1.48772,1.85962 2.65413,2.10461 0.38833,0.0816 1.38198,0.0497 1.75053,-0.0563 z m -3.4809,-4.18959 c 0,-0.13571 0.15744,-0.50185 0.32849,-0.764 0.53897,-0.82593 1.55721,-1.2924 2.51178,-1.15069 1.05181,0.15616 1.93072,0.92076 2.1648,1.8833 l 0.0267,0.10966 -2.51586,0 c -2.473,0 -2.51587,-0.002 -2.51587,-0.0781 z m 18.77533,4.26124 c 0.80571,-0.14139 1.66065,-0.61621 2.15599,-1.19754 0.17711,-0.2078 0.48424,-0.64112 0.46594,-0.65729 -0.0393,-0.0348 -0.96568,-0.57541 -0.97031,-0.56631 -0.004,0.006 -0.076,0.11547 -0.16182,0.24214 -0.30811,0.45548 -0.80532,0.81215 -1.37176,0.98401 -1.16876,0.35462 -2.44599,-0.14891 -3.02988,-1.19442 -0.0952,-0.1706 -0.24979,-0.58191 -0.24979,-0.66491 0,-0.006 1.40581,-0.0123 3.12401,-0.0123 l 3.12403,0 -0.0214,-0.62775 c -0.0161,-0.46823 -0.0438,-0.70879 -0.10899,-0.94663 -0.2737,-0.99631 -0.98983,-1.8438 -1.95264,-2.31083 -0.60349,-0.29272 -0.92635,-0.36067 -1.69014,-0.35567 -0.71125,0.004 -1.03837,0.0756 -1.60966,0.34935 -0.83351,0.39928 -1.48384,1.09039 -1.82709,1.94169 -0.23708,0.58799 -0.31039,1.44177 -0.18155,2.11481 0.27957,1.46068 1.50988,2.65612 2.98776,2.90312 0.28171,0.0471 1.04624,0.0465 1.31732,-7.4e-4 z m -3.14469,-4.28428 c 0.15738,-0.62107 0.6397,-1.25177 1.20404,-1.57441 0.60391,-0.34523 1.41515,-0.43374 2.05869,-0.22459 0.68916,0.22401 1.25851,0.70674 1.5527,1.31651 0.0862,0.1786 0.16818,0.38297 0.18227,0.45424 l 0.0255,0.12944 -2.52449,0 -2.52449,0 0.0255,-0.10137 z m -63.9204,3.72829 0,-0.55799 -1.48892,0 -1.48894,0 0,-3.08895 0,-3.08898 -0.56337,0 -0.56339,0 0,3.64698 0,3.64695 2.05231,0 2.05231,0 0,-0.55801 z m 4.83232,0.43572 c 0.43775,-0.10306 1.00268,-0.37601 1.35079,-0.6527 l 0.27566,-0.21909 0.0202,0.48709 0.0202,0.48707 0.55331,0.0107 0.55333,0.0107 0,-3.64808 0,-3.64809 -0.56339,0 -0.56338,0 0,0.50132 0,0.50129 -0.20457,-0.17725 c -0.88731,-0.76881 -2.3098,-1.03653 -3.49764,-0.65828 -0.60213,0.19171 -1.08627,0.50596 -1.57617,1.02306 -0.81589,0.8612 -1.13494,2.09775 -0.85537,3.31515 0.33171,1.44458 1.5938,2.55986 3.11185,2.74994 0.37372,0.0468 0.97719,0.0107 1.37535,-0.0836 z m -1.45203,-1.05569 c -0.45926,-0.0977 -0.90215,-0.34552 -1.27136,-0.71137 -0.5204,-0.51564 -0.75592,-1.08591 -0.75063,-1.81739 0.008,-1.07579 0.70577,-2.02316 1.75267,-2.37886 0.28964,-0.0985 0.38834,-0.11195 0.81257,-0.11195 0.6648,-4e-5 1.0564,0.12729 1.57259,0.51169 0.30633,0.22809 0.58774,0.58137 0.75893,0.95274 0.18421,0.39967 0.24083,0.6646 0.23628,1.10623 -0.006,0.69491 -0.28077,1.30252 -0.81133,1.80172 -0.61826,0.58166 -1.47485,0.82278 -2.29972,0.6473 z m 8.89338,-0.37457 0,-1.55255 1.82406,-0.0123 1.82404,-0.0123 0.34018,-0.167 c 0.55828,-0.27408 0.98719,-0.75963 1.14332,-1.29432 0.0983,-0.33633 0.0983,-0.88619 0,-1.22254 -0.14121,-0.4836 -0.56285,-0.99386 -1.02119,-1.23582 -0.46172,-0.24375 -0.48198,-0.24542 -2.97199,-0.24542 l -2.26519,0 0,3.64696 0,3.64695 0.56337,0 0.5634,0 0,-1.55254 z m 0,-3.64884 0,-0.97651 1.66279,0 1.66279,0 0.21822,0.10964 c 0.65028,0.32665 0.73185,1.22727 0.14988,1.65532 -0.24708,0.18174 -0.3163,0.18808 -2.04984,0.18808 l -1.6439,0 0,-0.97651 z m 7.40442,3.64695 0,-1.55443 0.65392,-7.4e-4 0.65392,-7.5e-4 1.55986,1.5555 1.55984,1.55551 0.76409,0 c 0.42025,0 0.76409,-0.0138 0.76409,-0.0296 0,-0.0162 -0.69256,-0.71582 -1.53903,-1.55444 l -1.53905,-1.52474 0.28151,-7.5e-4 c 0.56513,-0.002 1.01478,-0.18935 1.43214,-0.59688 0.84533,-0.82545 0.85406,-2.15054 0.0195,-2.97069 -0.2745,-0.26977 -0.69271,-0.5041 -1.0213,-0.57225 -0.14151,-0.0295 -0.97043,-0.0442 -2.46479,-0.0442 l -2.25155,0 0,3.64693 0,3.64696 0.56338,0 0.56338,0 0,-1.55444 z m 0,-3.64695 0,-0.97651 1.63517,0 c 1.12456,0 1.68384,0.0138 1.79104,0.0462 0.20159,0.0598 0.4582,0.27876 0.5613,0.4789 0.1956,0.37976 0.12417,0.84897 -0.17286,1.13701 -0.30546,0.29612 -0.26672,0.29085 -2.14335,0.29085 l -1.6713,0 0,-0.97651 z m 15.42146,2.46119 0.0108,-2.7402 0.089,-0.16511 c 0.11288,-0.20883 0.3673,-0.42623 0.56913,-0.48614 0.49669,-0.14737 0.97078,0.0563 1.22458,0.52633 0.089,0.16478 0.089,0.165 0.10063,2.88507 l 0.0124,2.72025 0.54168,0 0.54171,0 3.7e-4,-2.56084 c 0,-1.48511 0.0167,-2.6613 0.0396,-2.79998 0.0966,-0.5848 0.67708,-0.94105 1.26688,-0.7775 0.20728,0.0575 0.45803,0.25637 0.59171,0.4693 l 0.0934,0.14875 0.0202,2.75016 0.0202,2.75018 0.5546,0.0107 0.55458,0.0107 -0.0108,-2.86089 c -0.0124,-3.22674 0.0139,-2.94871 -0.34185,-3.48755 -0.59608,-0.90142 -1.73544,-1.20319 -2.73116,-0.72344 -0.15674,0.0756 -0.35415,0.20744 -0.43864,0.29314 l -0.15359,0.15585 -0.19981,-0.17312 c -0.5301,-0.4593 -1.33607,-0.62615 -1.96115,-0.40598 -0.14383,0.0506 -0.29326,0.10596 -0.33198,0.12283 -0.0587,0.0255 -0.0703,0.009 -0.0703,-0.0931 l 0,-0.12391 -0.56339,0 -0.56338,0 0,3.64697 0,3.64696 0.56231,0 0.56231,0 0.0108,-2.7402 z m 10.61476,-0.92668 0,-3.66689 -0.46404,0 -0.46407,0 -0.43132,0.42868 c -0.57761,0.57405 -1.09169,0.89687 -1.78946,1.12367 l -0.27164,0.0882 0,0.59246 0,0.59246 0.21129,-0.0612 c 0.7066,-0.20425 1.33237,-0.47243 1.79072,-0.76745 l 0.25152,-0.16191 0,2.74931 0,2.74929 0.58349,0 0.58351,0 0,-3.66689 z m 11.02615,2.11244 0,-1.55443 0.6374,0 0.63739,0 1.5643,1.55443 1.56431,1.55444 0.77619,0 c 0.42688,0 0.77617,-0.0138 0.77617,-0.0296 0,-0.0163 -0.69001,-0.71328 -1.53335,-1.54878 l -1.53334,-1.5191 0.37639,-0.0208 c 0.44539,-0.0245 0.70247,-0.11471 1.07128,-0.37529 1.07085,-0.75686 1.19905,-2.26272 0.27093,-3.18263 -0.27177,-0.26937 -0.69125,-0.50562 -1.0181,-0.57341 -0.1415,-0.0293 -0.97041,-0.0442 -2.46477,-0.0442 l -2.25156,0 0,3.64695 0,3.64697 0.56339,0 0.56337,0 0,-1.55444 z m 0,-3.64858 0,-0.97815 1.70022,0.0123 c 1.6538,0.0107 1.7046,0.0138 1.86116,0.0975 0.35309,0.18871 0.52108,0.46946 0.52088,0.87056 0,0.31752 -0.0827,0.51339 -0.3061,0.72538 -0.26478,0.25137 -0.26265,0.25113 -2.10483,0.25113 l -1.67133,0 0,-0.97814 z m -5.79985,-3.51579 c -0.359,-0.41104 -0.83519,-0.95749 -1.05823,-1.21435 l -0.4055,-0.46705 -0.79945,-0.002 -0.79944,-0.002 0.47463,0.48825 c 0.26106,0.26853 0.79285,0.81539 1.18176,1.21524 l 0.7071,0.72702 0.67594,3.7e-4 0.67593,3.7e-4 -0.65274,-0.74733 z" />
  </g>
</svg>
