<?xml version="1.0" encoding="UTF-8" standalone="no"?>
<!-- Created with Inkscape (http://www.inkscape.org/) -->

<svg
   xmlns:dc="http://purl.org/dc/elements/1.1/"
   xmlns:cc="http://creativecommons.org/ns#"
   xmlns:rdf="http://www.w3.org/1999/02/22-rdf-syntax-ns#"
   xmlns:svg="http://www.w3.org/2000/svg"
   xmlns="http://www.w3.org/2000/svg"
   xmlns:sodipodi="http://sodipodi.sourceforge.net/DTD/sodipodi-0.dtd"
   xmlns:inkscape="http://www.inkscape.org/namespaces/inkscape"
   width="99.999977"
   height="39.703377"
   id="svg3735"
   version="1.1"
   inkscape:version="0.48.3.1 r9886"
   sodipodi:docname="wbtd.svg">
  <sodipodi:namedview
     id="base"
     pagecolor="#ffffff"
     bordercolor="#666666"
     borderopacity="1.0"
     inkscape:pageopacity="0.0"
     inkscape:pageshadow="2"
     inkscape:zoom="1.509375"
     inkscape:cx="149.7143"
     inkscape:cy="92.153052"
     inkscape:document-units="px"
     inkscape:current-layer="layer1"
     showgrid="false"
     inkscape:window-width="1375"
     inkscape:window-height="876"
     inkscape:window-x="65"
     inkscape:window-y="24"
     inkscape:window-maximized="1"
     fit-margin-top="0"
     fit-margin-left="0"
     fit-margin-right="0"
     fit-margin-bottom="0" />
  <defs
     id="defs3737" />
  <metadata
     id="metadata3740">
    <rdf:RDF>
      <cc:Work
         rdf:about="">
        <dc:format>image/svg+xml</dc:format>
        <dc:type
           rdf:resource="http://purl.org/dc/dcmitype/StillImage" />
        <dc:title></dc:title>
      </cc:Work>
    </rdf:RDF>
  </metadata>
  <g
     transform="translate(-534.15321,-551.99597)"
     id="layer1"
     inkscape:groupmode="layer"
     inkscape:label="Layer 1">
    <path
       inkscape:connector-curvature="0"
       id="path7602"
       d="m 568.58488,591.67906 c -0.66319,-0.14064 -0.84876,-0.46947 -0.84876,-1.50429 0,-1.17609 -0.16523,-1.37627 -1.13917,-1.38059 l -0.64774,0 0,1.18831 c 0,1.30913 0.034,1.40265 0.50926,1.40265 0.16215,0 0.29483,0.04 0.29483,0.0893 0,0.0554 -0.50804,0.0893 -1.34544,0.0893 -0.87422,0 -1.32612,-0.0308 -1.29023,-0.0893 0.0304,-0.0493 0.16541,-0.0893 0.30011,-0.0893 0.13469,0 0.29313,-0.0482 0.3521,-0.10717 0.13927,-0.13931 0.1528,-4.64398 0.0148,-4.90197 -0.0675,-0.12627 -0.18793,-0.17288 -0.44671,-0.17288 -0.19484,0 -0.35425,-0.04 -0.35425,-0.0893 0,-0.0544 0.43009,-0.0893 1.11154,-0.0893 0.64466,0 1.13474,0.038 1.16676,0.0893 0.0304,0.0493 -0.007,0.0893 -0.0823,0.0893 -0.19854,0 -0.24093,0.27739 -0.21165,1.3849 l 0.026,0.98277 0.67008,0.0257 c 0.62115,0.0236 0.69169,0.0103 0.96572,-0.22329 0.43253,-0.36414 0.5515,-1.10463 0.26684,-1.66085 -0.1442,-0.28181 -0.6235,-0.50828 -1.07619,-0.50858 -0.25607,0 -0.42439,-0.04 -0.42439,-0.10164 0,-0.0698 0.206,-0.0883 0.6717,-0.0575 1.25438,0.0801 2.07726,0.71678 1.97678,1.52852 -0.0233,0.18808 -0.1161,0.42358 -0.20625,0.52316 -0.20772,0.22976 -0.77083,0.51967 -1.00916,0.51967 -0.27345,0 -0.22028,0.11314 0.14704,0.31271 0.18083,0.0986 0.39385,0.29936 0.4734,0.44678 0.16989,0.31486 0.3588,1.10258 0.3588,1.49629 0,0.33036 0.22561,0.61175 0.43279,0.53989 0.13173,-0.0452 0.13326,-0.0359 0.014,0.0862 -0.16014,0.16384 -0.42495,0.23694 -0.6701,0.18499 z m -27.96507,-0.11354 -0.35738,-0.0595 0.3127,-0.0893 0.31271,-0.0903 0.0238,-2.44046 c 0.0219,-2.24448 0.0111,-2.45001 -0.13402,-2.56016 -0.0869,-0.0657 -0.26837,-0.12104 -0.40352,-0.12258 -0.13513,0 -0.2457,-0.0329 -0.2457,-0.0698 0,-0.037 0.60309,-0.0667 1.34018,-0.0667 1.30853,0 1.64897,0.0565 1.03646,0.17114 -0.47194,0.0883 -0.50918,0.19043 -0.48106,1.31591 l 0.0254,1.0147 1.16148,0 1.16149,0 0.0254,-1.0147 c 0.0281,-1.12548 -0.009,-1.22732 -0.48105,-1.31591 -0.16705,-0.0308 -0.30373,-0.0832 -0.30373,-0.11406 -2e-5,-0.076 2.66399,-0.0585 2.74022,0.0175 0.0325,0.0328 -0.0819,0.0595 -0.2545,0.0595 -0.60117,0 -0.60948,0.037 -0.60948,2.71199 l 0,2.38523 0.26991,0.0544 c 0.48553,0.0975 0.36876,0.19311 -0.31257,0.25686 -0.73089,0.0688 -1.83428,-0.0565 -1.52088,-0.17278 0.45114,-0.16692 0.4455,-0.15091 0.47174,-1.33593 l 0.0251,-1.12958 -1.21151,0 -1.2115,0 0.0251,1.12958 c 0.0262,1.18502 0.0214,1.17126 0.47174,1.3346 0.4366,0.1584 -1.07721,0.26435 -1.87625,0.1313 z m 36.00221,-0.0267 c -0.03,-0.078 -0.0113,-0.22257 0.0414,-0.32113 0.0528,-0.0986 0.51532,-1.22474 1.02795,-2.50257 1.01619,-2.53316 1.08837,-2.693 1.21604,-2.693 0.15939,0 0.089,0.22421 -0.61879,1.96945 -1.52402,3.75801 -1.55798,3.83029 -1.66659,3.54725 z m 14.87993,0.0287 c 0,-0.0298 0.15889,-0.12206 0.3531,-0.20614 0.19422,-0.0842 0.40181,-0.24403 0.46132,-0.35521 0.0595,-0.11118 0.13256,-0.64491 0.16226,-1.18594 l 0.054,-0.9837 0.0564,0.97169 c 0.0618,1.0648 0.17298,1.32772 0.66323,1.56805 l 0.26001,0.1274 -0.26805,0.0739 c -0.29783,0.0821 -1.74223,0.0739 -1.74223,-0.0103 z m 4.31748,-0.15676 c -0.19539,-0.3046 -0.36516,-0.53579 -1.90458,-2.59343 -0.66306,-0.88627 -1.24923,-1.59463 -1.30259,-1.5742 -0.0534,0.0205 -0.14626,-0.1272 -0.20646,-0.32811 -0.11266,-0.37604 -0.51042,-0.71318 -0.84211,-0.7139 -0.0889,0 -0.13678,-0.0411 -0.10641,-0.0893 0.0717,-0.1159 1.34619,-0.11631 1.56253,0 0.0913,0.0483 0.75637,0.8756 1.47804,1.83733 0.83038,1.10669 1.35556,1.732 1.43044,1.70325 0.14953,-0.0575 0.20339,0.21158 0.23779,1.18758 0.0293,0.83156 -0.0724,0.99921 -0.34665,0.57162 z m 3.79061,0.18099 c 0.0614,-0.0246 0.16194,-0.0246 0.22335,0 0.0614,0.0246 0.0111,0.0452 -0.11167,0.0452 -0.12284,0 -0.17311,-0.0205 -0.11168,-0.0452 z m 1.19759,-0.13428 c 0.38022,-0.22041 0.52232,-0.48312 0.52232,-0.96542 0,-0.62572 -0.41807,-0.94397 -1.6529,-1.25832 -0.65624,-0.16703 -1.31419,-0.47748 -1.52675,-0.72027 -0.44082,-0.50345 -0.51071,-1.36683 -0.15009,-1.85375 0.23018,-0.31086 0.73564,-0.65005 0.85697,-0.57501 0.0626,0.039 0.051,0.0739 -0.0334,0.10164 -0.30316,0.0975 -0.53166,0.46762 -0.53166,0.86009 0,0.32503 0.0454,0.42769 0.27397,0.62007 0.26335,0.22155 0.47126,0.29474 1.80584,0.63496 1.08671,0.27709 1.51104,0.70744 1.56379,1.58601 0.0275,0.4588 -0.004,0.6286 -0.18121,0.95948 -0.22086,0.41362 -0.75155,0.80168 -1.09473,0.80065 -0.1326,0 -0.0944,-0.0493 0.14778,-0.18992 z m -64.58858,0.0452 c -0.077,-0.0308 -0.049,-0.0965 0.0893,-0.2084 0.20024,-0.162 0.20154,-0.17853 0.20154,-2.60574 l 0,-2.44262 -0.23266,-0.0267 c -0.61756,-0.0719 -1.14914,0.60857 -1.38262,1.76926 -0.0538,0.26723 -0.0732,0.28673 -0.13333,0.13397 -0.11618,-0.29474 -0.097,-1.8711 0.0242,-1.99234 0.16737,-0.16734 4.39114,-0.15102 4.53102,0.0174 0.13587,0.16374 0.0941,1.94666 -0.0467,1.99327 -0.0584,0.0195 -0.12292,-0.14096 -0.15712,-0.39052 -0.1237,-0.9025 -0.71406,-1.59885 -1.29804,-1.53109 l -0.23266,0.0267 -0.0238,2.39313 c -0.0244,2.44939 0.009,2.7429 0.31731,2.74557 0.13159,0 0.13428,0.0133 0.0192,0.0883 -0.13662,0.0883 -1.47188,0.11221 -1.67573,0.0298 z m 11.01648,-0.0216 c -0.14998,-0.0585 -0.13511,-0.076 0.10571,-0.12432 0.24913,-0.0503 0.28654,-0.0986 0.33743,-0.43918 0.0315,-0.21066 0.0443,-1.30103 0.0283,-2.42301 -0.0269,-1.8978 -0.041,-2.04881 -0.20233,-2.16666 -0.0954,-0.0698 -0.30886,-0.12669 -0.47435,-0.12669 -0.17787,0 -0.27833,-0.037 -0.24569,-0.0893 0.0845,-0.13675 4.71395,-0.11971 4.85144,0.0175 0.11688,0.11693 0.13591,1.47093 0.0262,1.85847 -0.0529,0.18664 -0.0809,0.13531 -0.17019,-0.3127 -0.22244,-1.11542 -0.74744,-1.50224 -1.97555,-1.45543 l -0.67691,0.0257 -0.0793,0.94971 c -0.0436,0.52234 -0.053,1.05505 -0.0206,1.18379 0.0509,0.20296 0.10552,0.23417 0.41021,0.23417 0.19332,0 0.44832,-0.0442 0.56665,-0.0986 0.25567,-0.11652 0.508,-0.60446 0.508,-0.98246 0,-0.15738 0.0373,-0.24721 0.0893,-0.21508 0.0533,0.0328 0.0893,0.60971 0.0893,1.42956 0,0.81985 -0.036,1.3966 -0.0893,1.42955 -0.0523,0.0318 -0.0893,-0.0595 -0.0893,-0.22092 0,-0.39258 -0.21538,-0.85732 -0.47665,-1.02846 -0.14369,-0.0945 -0.36172,-0.13654 -0.61052,-0.11868 l -0.38702,0.0277 -0.029,0.58076 c -0.0159,0.31948 -0.002,0.87703 0.0309,1.23911 0.0516,0.56731 0.0858,0.66515 0.24752,0.70744 0.18153,0.0472 0.18198,0.0513 0.0138,0.11714 -0.22587,0.0883 -1.55187,0.0883 -1.77796,0 z m 3.07824,0 c -0.19852,-0.0585 -0.17868,-0.0739 0.17844,-0.13674 0.56774,-0.10061 1.0015,-0.55458 1.19808,-1.25411 0.0828,-0.29484 0.17892,-0.59646 0.21351,-0.67017 0.0709,-0.15112 0.1386,1.84513 0.0688,2.02714 -0.0495,0.12895 -1.25107,0.15348 -1.65876,0.0339 z m 2.54561,-0.0339 c 0.40527,-0.24228 0.72507,-0.68064 0.92882,-1.27299 0.22617,-0.65765 0.41908,-1.1458 0.55362,-1.40081 0.045,-0.0852 0.0818,-0.25625 0.0818,-0.37975 0,-0.1235 0.0402,-0.22462 0.0893,-0.22462 0.16262,0 0.0989,0.30306 -0.20037,0.95198 -0.0488,0.10584 -0.0615,0.23653 -0.0282,0.29032 0.0734,0.11878 1.17972,0.13213 1.25201,0.0154 0.0489,-0.0791 -0.0194,-0.31424 -0.37576,-1.29527 -0.17953,-0.49421 -0.37959,-0.64297 -0.37959,-0.28232 0,0.12689 -0.0402,0.23078 -0.0893,0.23078 -0.10982,0 -0.11598,-0.21692 -0.0121,-0.42563 0.0425,-0.0852 0.1703,-0.45664 0.28404,-0.82519 0.22698,-0.73557 0.34139,-0.9413 0.45835,-0.82427 0.0422,0.0421 0.34029,0.83792 0.6624,1.76834 0.81821,2.36326 0.81225,2.34652 1.04139,2.93405 0.20231,0.51875 0.25961,0.58107 0.67954,0.73937 0.25294,0.0955 -1.21489,0.15656 -1.62027,0.0678 -0.2252,-0.0493 -0.23703,-0.0678 -0.10482,-0.16478 0.13801,-0.1006 0.13379,-0.15491 -0.0567,-0.72879 -0.29104,-0.87672 -0.35316,-0.93247 -1.03888,-0.93247 -0.64553,0 -0.91841,0.10554 -0.91841,0.35531 0,0.0934 -0.0402,0.19506 -0.0893,0.22545 -0.0492,0.0308 -0.0893,0.25285 -0.0893,0.49441 0,0.39761 0.0254,0.45233 0.26805,0.57778 0.14741,0.076 0.26802,0.15769 0.26802,0.18099 0,0.0236 -0.39199,0.04 -0.87109,0.037 -0.71557,0 -0.83935,-0.0246 -0.69317,-0.11159 z m 7.24096,0.0359 c -0.15873,-0.0626 -0.15236,-0.0739 0.067,-0.12946 l 0.24244,-0.0606 0,-2.54456 0,-2.54466 -0.24569,0 c -0.5794,0 -0.99849,0.51577 -1.27216,1.56322 -0.2031,0.77745 -0.26904,0.65272 -0.26904,-0.50868 0,-0.94356 0.0228,-1.1339 0.14132,-1.17938 0.0777,-0.0298 1.09494,-0.0544 2.26044,-0.0544 1.52907,0 2.14897,0.0298 2.22633,0.10718 0.0712,0.0708 0.10721,0.45951 0.10721,1.15627 0,1.04078 -0.11748,1.46447 -0.22638,0.81637 -0.20571,-1.22444 -0.76036,-1.97592 -1.39246,-1.8865 l -0.21274,0.0298 0,2.49897 0,2.49908 0.20585,0.10266 0.20587,0.10267 -0.20587,0.0554 c -0.28486,0.076 -1.41856,0.0596 -1.63212,-0.0236 z m 10.40548,0 c -0.20889,-0.0606 -0.20165,-0.0688 0.11168,-0.12915 l 0.33504,-0.0647 0,-2.4498 c 0,-2.33061 -0.008,-2.45432 -0.17283,-2.5423 -0.0951,-0.0513 -0.29843,-0.0924 -0.45198,-0.0924 -0.16337,0 -0.25628,-0.037 -0.22397,-0.0893 0.0345,-0.0554 0.938,-0.0893 2.41445,-0.0893 2.24107,0 2.36387,0.0103 2.45173,0.17278 0.10432,0.19496 0.12038,0.84963 0.0359,1.46559 -0.0626,0.45695 -0.21008,0.47871 -0.21402,0.0318 -0.004,-0.49883 -0.35908,-1.06521 -0.80555,-1.28655 -0.52226,-0.25891 -1.75385,-0.29515 -1.84626,-0.0544 -0.0317,0.0832 -0.0607,0.61535 -0.0642,1.18378 l -0.006,1.03349 0.31775,0.0267 c 0.65056,0.0544 1.03955,-0.27534 1.13133,-0.95958 0.0265,-0.19752 0.0832,-0.33734 0.12598,-0.31086 0.11034,0.0678 0.0994,2.78335 -0.0115,2.85193 -0.0492,0.0308 -0.0893,-0.0328 -0.0893,-0.14075 0,-0.37266 -0.21147,-0.89952 -0.43006,-1.07147 -0.14858,-0.11693 -0.35983,-0.17268 -0.65413,-0.17268 l -0.43467,0 0,1.06634 c 0,1.14498 0.0817,1.52103 0.33284,1.53099 0.13812,0.0103 0.13551,0.0164 -0.0202,0.0831 -0.21497,0.0924 -1.51772,0.0975 -1.83158,0.0103 z m 3.08239,0 c -0.14713,-0.0596 -0.11408,-0.0832 0.18741,-0.135 0.60237,-0.10307 0.95744,-0.47183 1.20603,-1.25237 0.11812,-0.37101 0.24622,-0.67469 0.28464,-0.67499 0.0384,0 0.0585,0.47203 0.0447,1.0494 l -0.0252,1.04981 -0.75945,0.0175 c -0.41769,0.0103 -0.83985,-0.0154 -0.93813,-0.0544 z m 6.70091,-0.0103 c 0.0304,-0.0493 0.16543,-0.0893 0.30011,-0.0893 0.1347,0 0.29314,-0.0483 0.35211,-0.10717 0.12835,-0.12833 0.15262,-4.68607 0.0261,-4.88595 -0.0431,-0.0678 -0.28375,-0.14363 -0.53471,-0.16775 -0.25092,-0.0246 -0.45625,-0.079 -0.45625,-0.12186 0,-0.0431 0.75385,-0.077 1.67524,-0.077 2.13595,0 2.68718,0.14537 3.34637,0.87509 0.70832,0.78402 0.91276,2.23626 0.44261,3.14451 -0.43053,0.83176 -1.22194,1.43561 -1.86451,1.42278 l -0.3386,-0.0103 0.26804,-0.10492 c 0.3931,-0.15378 0.52437,-0.25326 0.72801,-0.5516 0.52121,-0.76359 0.52567,-2.73325 0.008,-3.78121 -0.28238,-0.57234 -0.78076,-0.83679 -1.51145,-0.8022 l -0.56533,0.0267 -0.0238,2.50021 -0.0238,2.5002 0.20248,0.15584 c 0.19577,0.15061 0.16456,0.15584 -0.94195,0.15779 -0.74068,0 -1.12495,-0.0298 -1.08921,-0.0873 z m 5.58408,0.0113 c 0,-0.0431 0.12094,-0.12853 0.26879,-0.18982 0.28563,-0.11826 0.63032,-0.73628 0.93364,-1.67378 0.0833,-0.25748 0.18854,-0.49103 0.23392,-0.51906 0.0454,-0.0277 0.0825,-0.14968 0.0825,-0.27031 0,-0.12062 0.0355,-0.28909 0.0789,-0.3744 0.12397,-0.24372 0.22832,-0.53435 0.54638,-1.52154 0.2198,-0.68218 0.3316,-0.91286 0.43305,-0.89326 0.0853,0.0164 0.251,0.3624 0.44041,0.91964 0.60897,1.79134 1.38278,3.93706 1.50629,4.17667 0.0852,0.16528 0.19727,0.24567 0.34242,0.24567 0.1187,0 0.23672,0.0339 0.26231,0.0749 0.0663,0.10728 -1.6614,0.12227 -1.82287,0.0154 -0.0897,-0.0596 -0.097,-0.0883 -0.0224,-0.0893 0.0614,0 0.11167,-0.0544 0.11167,-0.12032 0,-0.23725 -0.37907,-1.3195 -0.50699,-1.44742 -0.14169,-0.14167 -1.23283,-0.18674 -1.43363,-0.0595 -0.14299,0.0903 -0.38235,0.77591 -0.38235,1.09437 0,0.26651 0.20086,0.53117 0.40316,0.53117 0.0673,0 0.14722,0.04 0.1776,0.0893 0.0353,0.0575 -0.25223,0.0893 -0.79886,0.0893 -0.4697,0 -0.85404,-0.0349 -0.85404,-0.079 z m 2.72701,-2.06893 c 0.0677,-0.10954 -0.49586,-1.78373 -0.60036,-1.78373 -0.0394,0 -0.0723,0.0103 -0.0729,0.0226 0,0.0123 -0.12074,0.36404 -0.26683,0.78177 -0.37889,1.08317 -0.38204,1.07209 0.30744,1.07209 0.31651,0 0.60121,-0.0421 0.63266,-0.0924 z m 0.0427,2.10805 c 0,-0.0216 0.0402,-0.0647 0.0893,-0.0944 0.0492,-0.0308 0.0893,-0.0123 0.0893,0.039 0,0.0524 -0.0402,0.0944 -0.0893,0.0944 -0.0492,0 -0.0893,-0.0174 -0.0893,-0.039 z m 9.29191,-1.07743 c 0,-0.68496 0.0346,-1.11675 0.0893,-1.11675 0.0492,0 0.0893,0.0524 0.0893,0.11734 0,0.0647 0.17818,0.46649 0.39597,0.89326 0.33325,0.65313 0.366,0.76 0.20671,0.67479 -0.16306,-0.0873 -0.21786,-0.0657 -0.39554,0.15645 -0.11343,0.14178 -0.20647,0.28787 -0.2067,0.32472 0,0.037 -0.0406,0.0667 -0.0898,0.0667 -0.0548,0 -0.0893,-0.43179 -0.0893,-1.11685 z m 5.14155,1.03605 c -0.14982,-0.0585 -0.13464,-0.076 0.10704,-0.12463 0.23083,-0.0462 0.29136,-0.10913 0.33609,-0.34976 0.0969,-0.52121 0.009,-4.51904 -0.10143,-4.62961 -0.0554,-0.0554 -0.26653,-0.12288 -0.46905,-0.15009 -0.2025,-0.0267 -0.36821,-0.0842 -0.36821,-0.12689 0,-0.0431 1.10137,-0.078 2.44745,-0.078 2.14933,0 2.45405,0.0174 2.50166,0.14136 0.0299,0.078 0.0536,0.53004 0.0529,1.00506 -0.002,0.98 -0.11917,1.35204 -0.21029,0.66524 -0.0889,-0.67027 -0.39561,-1.1997 -0.81582,-1.40841 -0.47574,-0.23612 -1.80367,-0.31188 -1.88218,-0.10738 -0.0286,0.0749 -0.059,0.61145 -0.0678,1.19302 l -0.0157,1.05741 0.41421,0.0267 c 0.53817,0.0349 0.83205,-0.20819 1.05902,-0.87569 l 0.16712,-0.49134 -0.002,1.51887 -0.002,1.51887 -0.16711,-0.53609 c -0.22252,-0.71381 -0.50044,-0.95619 -1.05527,-0.92026 l -0.41421,0.0267 0.005,1.19457 c 0.004,1.02435 0.0268,1.21068 0.15898,1.30728 0.13938,0.10164 0.14034,0.11796 0.0103,0.16796 -0.20022,0.077 -1.47632,0.0575 -1.68869,-0.0257 z m 3.03355,0 c -0.14336,-0.0565 -0.0993,-0.0842 0.22312,-0.13931 0.5092,-0.0873 0.98844,-0.5516 1.15288,-1.11767 0.2709,-0.93247 0.31984,-0.9144 0.34708,0.12833 0.014,0.53733 0.005,1.02989 -0.0194,1.09447 -0.0507,0.13202 -1.38817,0.15881 -1.70356,0.0339 z m -36.57983,-1.0262 c -0.004,-0.0944 0.0171,-0.1469 0.0469,-0.11724 0.0297,0.0298 0.0329,0.10677 0.007,0.17124 -0.0285,0.0708 -0.0497,0.0503 -0.054,-0.0544 z m 31.51948,-3.14543 c -0.16519,-0.33796 -0.31377,-0.64461 -0.33018,-0.68157 -0.0165,-0.037 0.0291,-0.0441 0.10092,-0.0164 0.077,0.0298 0.20717,-0.0472 0.31659,-0.18613 0.10225,-0.12997 0.22768,-0.21045 0.2788,-0.17894 0.11228,0.0698 0.12257,1.38069 0.0123,1.55491 -0.0564,0.0893 -0.16117,-0.0472 -0.37836,-0.49144 z m -5.12145,-0.30172 c -0.0379,-0.17206 -0.10866,-0.36219 -0.15729,-0.42255 -0.11064,-0.13747 -0.59279,-0.3816 -0.75346,-0.3816 -0.0661,0 -0.12027,-0.04 -0.12027,-0.0893 0,-0.10821 2.02301,-0.12402 2.08955,-0.0164 0.0249,0.04 -0.0957,0.12402 -0.26783,0.18633 -0.24953,0.0903 -0.35449,0.20676 -0.51741,0.5746 l -0.2044,0.46146 -0.0689,-0.31271 z m 4.47008,-0.58712 c -0.0947,-0.0688 -0.15192,-0.14598 -0.12736,-0.17052 0.0245,-0.0246 0.1221,0.0123 0.2167,0.0811 0.0946,0.0688 0.15194,0.14588 0.12737,0.17052 -0.0245,0.0246 -0.12209,-0.0123 -0.21671,-0.0811 z m -0.49779,-0.30634 c 0,-0.0493 0.0379,-0.0893 0.0841,-0.0893 0.0462,0 0.10892,0.04 0.13929,0.0893 0.0304,0.0493 -0.007,0.0893 -0.0841,0.0893 -0.0766,0 -0.13929,-0.04 -0.13929,-0.0893 z m -50.52059,-0.9605 c 0.7272,-0.97959 0.8493,-1.09827 1.03038,-1.00136 0.24153,0.12926 0.1236,0.31825 -0.54915,0.88043 -0.6458,0.53958 -0.82561,0.58486 -0.48123,0.12093 z m 5.08423,0.17873 c 0.0327,-0.0862 0.20788,-0.38723 0.38926,-0.66935 0.452,-0.70302 0.60852,-0.6906 1.11722,0.0883 0.21657,0.3317 0.3745,0.63712 0.35099,0.67859 -0.0235,0.0421 -0.239,-0.11765 -0.47891,-0.35397 l -0.43613,-0.42964 -0.42747,0.42112 c -0.44816,0.44134 -0.6148,0.52696 -0.51496,0.26466 z m 5.98459,-3.85441 c -1.65885,-0.75343 -2.10769,-3.24635 -0.84367,-4.68596 0.42028,-0.47861 0.73353,-0.67572 1.31592,-0.82776 0.51904,-0.13562 0.55242,-0.13295 1.49237,0.11909 0.28467,0.076 1.03851,0.84202 1.25335,1.2732 0.63608,1.27638 0.3549,2.81517 -0.67557,3.69724 -0.67941,0.58157 -1.78853,0.76657 -2.5424,0.42419 z m 1.57972,-0.13777 c 0.20674,-0.14054 0.39451,-0.38539 0.53097,-0.69245 0.18798,-0.42306 0.21109,-0.60714 0.21117,-1.68128 0,-1.51579 -0.15576,-2.11851 -0.67588,-2.61334 -0.4323,-0.41126 -0.83371,-0.44853 -1.26639,-0.11745 -0.55819,0.42718 -0.77506,1.11696 -0.77424,2.46274 0,1.60716 0.43978,2.66437 1.15991,2.79444 0.4256,0.077 0.49611,0.0637 0.81446,-0.15266 z m 6.64693,-0.0698 c -0.48271,-0.73916 -3.01869,-4.09043 -3.09531,-4.09043 -0.0426,0 -0.0775,0.32164 -0.0775,0.71483 0,0.41691 -0.0373,0.71473 -0.0893,0.71473 -0.0541,0 -0.0893,-0.38447 -0.0893,-0.97487 l 0,-0.97487 -0.2749,-0.2313 c -0.15119,-0.12719 -0.37231,-0.23129 -0.4914,-0.23129 -0.11905,0 -0.2165,-0.04 -0.2165,-0.0893 0,-0.0534 0.33827,-0.0893 0.83609,-0.0893 l 0.8361,0 1.40389,1.87623 c 0.77215,1.03185 1.46135,1.87624 1.53155,1.87624 0.0987,0 0.1313,0.1622 0.14363,0.71472 0.009,0.39319 0.0188,0.80189 0.0224,0.90835 0.0109,0.32954 -0.17805,0.27636 -0.4393,-0.12371 z m 23.25585,0.11919 c -0.28437,-0.25409 -0.28914,-0.27154 -0.33896,-1.24425 -0.0662,-1.29209 -0.1183,-1.35708 -1.08685,-1.35708 l -0.70094,0 0.002,1.13913 c 0,0.62654 0.0338,1.19025 0.0735,1.25277 0.0396,0.0626 0.25013,0.14855 0.4677,0.19126 0.51232,0.10061 0.45675,0.10728 -1.05944,0.12966 -1.30737,0.0195 -1.78123,-0.0513 -1.06358,-0.15933 0.23627,-0.0359 0.42491,-0.11714 0.45574,-0.19752 0.029,-0.0749 0.0526,-1.17105 0.0526,-2.43481 0,-1.66804 -0.0294,-2.32713 -0.1072,-2.40494 -0.0589,-0.0585 -0.2825,-0.10728 -0.49668,-0.10728 -0.23688,0 -0.36782,-0.0349 -0.33424,-0.0893 0.069,-0.11159 2.2783,-0.12083 2.2783,-0.0103 0,0.0441 -0.0603,0.10296 -0.13403,0.1312 -0.10973,0.0421 -0.134,0.26466 -0.134,1.22864 l 0,1.17722 0.65968,-0.0503 c 1.10519,-0.0832 1.39526,-0.35069 1.39526,-1.2846 0,-0.44504 -0.0312,-0.52737 -0.30378,-0.79984 -0.18606,-0.18612 -0.39175,-0.30377 -0.5308,-0.30377 -0.12486,0 -0.25187,-0.04 -0.28225,-0.0893 -0.0335,-0.0544 0.0937,-0.0893 0.32345,-0.0893 1.4309,0 2.35802,1.28542 1.51185,2.09603 -0.14416,0.13818 -0.46882,0.32113 -0.72145,0.40664 l -0.45936,0.15553 0.34168,0.16744 c 0.47991,0.2352 0.69967,0.61536 0.82848,1.43315 0.14381,0.91307 0.22415,1.10197 0.46883,1.10197 0.19301,0 0.19357,0 0.0242,0.1312 -0.29698,0.22452 -0.80309,0.17042 -1.1291,-0.12094 z m 3.85939,0.0719 c -0.22112,-0.1006 -0.5162,-0.29022 -0.65572,-0.42245 -0.48697,-0.46156 -0.50576,-0.56155 -0.50576,-2.68982 0,-1.85314 -0.0103,-1.97222 -0.17282,-2.05938 -0.0951,-0.0513 -0.29607,-0.0924 -0.44673,-0.0924 -0.15064,0 -0.27391,-0.04 -0.27391,-0.0893 0,-0.0565 0.55097,-0.0893 1.47419,-0.0893 0.92325,0 1.4742,0.0328 1.4742,0.0893 0,0.0493 -0.15313,0.0893 -0.34029,0.0893 -0.65853,0 -0.65378,-0.0164 -0.65948,2.23678 -0.007,2.69229 0.12959,3.03456 1.20909,3.03456 0.58293,0 1.04839,-0.17965 1.30255,-0.50273 0.10352,-0.13161 0.21409,-0.21343 0.24572,-0.18171 0.0894,0.0893 -0.46235,0.57418 -0.82668,0.72643 -0.46879,0.19588 -1.33458,0.17257 -1.82436,-0.0493 z m 34.40459,-1.02024 0.005,-1.25083 0.30717,0.66001 c 0.16895,0.36301 0.39389,0.80528 0.49987,0.98278 0.10599,0.1776 0.13804,0.27256 0.0712,0.21117 -0.22116,-0.20327 -0.42859,-0.11909 -0.66062,0.26795 l -0.22757,0.37974 0.005,-1.25082 z m 1.92197,1.11941 c 0.10256,-0.0411 0.32365,-0.0431 0.4914,0 0.27602,0.0647 0.2583,0.0719 -0.18639,0.075 -0.3521,0 -0.43856,-0.0175 -0.30501,-0.0719 z m -95.2706,-0.11426 c -0.048,-0.0616 -0.10971,-0.19208 -0.13699,-0.29043 -0.0537,-0.19331 -0.55345,-1.62081 -1.14177,-3.26103 -0.20269,-0.56515 -0.39088,-1.10791 -0.41817,-1.20616 -0.0834,-0.29998 -0.30717,-0.49144 -0.5744,-0.49144 -0.1398,0 -0.25418,-0.04 -0.25418,-0.0893 0,-0.0554 0.44673,-0.0893 1.16148,-0.0893 0.65968,0 1.16149,0.0359 1.16149,0.0832 0,0.0462 -0.11056,0.0965 -0.24571,0.1117 -0.29219,0.0339 -0.29766,0.21928 -0.0271,0.92169 0.0947,0.24567 0.35743,0.94787 0.58395,1.56025 0.22655,0.61247 0.42928,1.13091 0.45053,1.15216 0.0213,0.0216 0.0772,-0.0575 0.12422,-0.17545 0.15756,-0.3938 0.0958,0.0452 -0.12399,0.88248 -0.277,1.05443 -0.34592,1.16428 -0.55933,0.89151 z m 2.80789,0.0452 c -0.0208,-0.037 -0.14635,-0.42881 -0.27892,-0.87108 -0.1326,-0.44226 -0.27684,-0.90465 -0.32054,-1.02753 -0.0437,-0.12278 -0.18589,-0.58517 -0.31591,-1.02743 -0.13005,-0.44227 -0.29581,-0.89778 -0.36839,-1.01235 -0.0726,-0.11446 -0.14821,-0.37153 -0.1681,-0.5713 -0.0509,-0.51228 -0.2512,-0.78403 -0.57783,-0.78403 -0.1463,0 -0.26599,-0.04 -0.26599,-0.0893 0,-0.0554 0.46164,-0.0893 1.20618,-0.0893 0.74454,0 1.20616,0.0339 1.20616,0.0893 0,0.0493 -0.14073,0.0893 -0.31271,0.0893 -0.45169,0 -0.4656,-0.0832 0.46341,2.7697 0.12002,0.36855 0.27929,0.76431 0.35389,0.87939 0.10123,0.15605 0.11375,0.26949 0.0493,0.44668 -0.0475,0.13059 -0.13852,0.41845 -0.20221,0.63958 -0.15689,0.54462 -0.34757,0.77201 -0.46831,0.55837 z m 2.01464,-0.0298 c -0.11046,-0.039 -0.0788,-0.076 0.12817,-0.14783 0.38341,-0.13366 0.68722,-0.5748 0.96123,-1.39578 0.12892,-0.38631 0.31362,-0.86626 0.41041,-1.06665 0.0968,-0.20029 0.17601,-0.45725 0.17601,-0.5708 0,-0.11364 0.0402,-0.20665 0.0893,-0.20665 0.0492,0 0.0893,-0.10061 0.0893,-0.22329 0,-0.12289 0.0402,-0.22339 0.0893,-0.22339 0.12925,0 0.11693,0.0585 -0.1787,0.8488 -0.14707,0.39309 -0.26753,0.76503 -0.26773,0.82642 0,0.079 0.18416,0.1117 0.62511,0.1117 0.55972,0 0.62542,-0.0185 0.62542,-0.1736 0,-0.23345 -0.44413,-1.44362 -0.59465,-1.6204 -0.16325,-0.19167 -0.15325,-0.30665 0.0891,-1.02538 0.21745,-0.64482 0.44314,-0.84388 0.5312,-0.46845 0.0265,0.11293 0.29538,0.90896 0.59751,1.76896 0.30213,0.85989 0.58342,1.66403 0.62505,1.78692 0.24569,0.72448 0.54586,1.47236 0.62116,1.54772 0.0479,0.0482 0.23995,0.11672 0.42671,0.15286 0.20292,0.039 -0.23575,0.0647 -1.08995,0.0636 -0.83108,0 -1.25343,-0.0267 -1.00889,-0.0606 0.23135,-0.0318 0.44604,-0.0842 0.47706,-0.11519 0.031,-0.0308 -0.062,-0.39114 -0.20676,-0.80034 l -0.26319,-0.74399 -0.7946,0 -0.79462,0 -0.16642,0.51218 c -0.21486,0.66144 -0.15235,0.90434 0.27733,1.07784 l 0.33582,0.13551 -0.83163,0.0308 c -0.45739,0.0164 -0.89758,0.0103 -0.97822,-0.0216 z m 22.85067,0.0103 c 0,-0.0483 0.10112,-0.11303 0.22478,-0.14404 0.46324,-0.11631 0.57932,-0.41136 0.57932,-1.47267 0,-0.54729 0.0387,-0.98934 0.0893,-1.02066 0.0572,-0.0349 0.0893,0.24855 0.0893,0.78793 0,1.16582 0.18047,1.57636 0.75666,1.72101 0.23405,0.0585 0.24421,0.0739 0.0889,0.1349 -0.26188,0.10266 -1.82832,0.0965 -1.82832,-0.0103 z m 17.86904,0 -0.22335,-0.0719 0.22862,-0.0103 c 0.12574,0 0.30668,-0.0657 0.40205,-0.13562 0.16151,-0.11806 0.17524,-0.26712 0.19951,-2.16666 0.0144,-1.12188 -0.006,-2.22076 -0.0467,-2.4419 -0.0716,-0.39545 -0.0789,-0.40253 -0.45046,-0.42953 -0.20774,-0.0154 -0.37769,-0.0657 -0.37769,-0.1117 0,-0.12986 3.31044,-0.10615 3.80933,0.0277 0.23579,0.0626 0.57582,0.25255 0.78305,0.43652 0.34637,0.30736 0.36628,0.35213 0.36628,0.82457 0,0.5979 -0.19467,0.8408 -0.89346,1.1149 -0.44478,0.17442 -0.44555,0.17545 -0.1787,0.23232 1.13472,0.24208 1.6711,1.17137 1.15056,1.99327 -0.29269,0.46218 -1.33583,0.90085 -1.76476,0.74204 -0.17198,-0.0637 -0.16273,-0.076 0.098,-0.13357 0.88022,-0.19351 1.10918,-1.74595 0.34363,-2.32979 -0.2761,-0.21066 -0.3625,-0.22739 -1.047,-0.20347 l -0.74609,0.0257 0.004,1.17937 c 0.004,1.01933 0.027,1.20422 0.17022,1.36252 l 0.16571,0.18315 -0.88496,-0.0103 c -0.48671,0 -0.98546,-0.0411 -1.10833,-0.0801 z m 2.9572,-2.96157 c 0.5424,-0.16251 0.72371,-0.41886 0.72947,-1.03154 0.008,-0.90732 -0.37826,-1.27731 -1.33608,-1.27792 -0.30421,0 -0.57293,0.0318 -0.59711,0.0708 -0.0726,0.11745 -0.17408,2.04778 -0.11565,2.20003 0.0661,0.17237 0.80106,0.19382 1.31937,0.038 z m 15.10428,2.97656 c -0.0903,-0.0606 -0.0544,-0.10379 0.1446,-0.17319 0.1457,-0.0503 0.40868,-0.26713 0.58439,-0.48076 0.43028,-0.52317 0.65357,-0.77407 0.58809,-0.66073 -0.13431,0.23253 -0.2411,0.67746 -0.20014,0.83402 0.0247,0.0945 0.17244,0.2355 0.32827,0.31311 l 0.2833,0.14116 -0.4914,0.0103 c -0.27025,0 -0.63211,0.0277 -0.80409,0.0534 -0.172,0.0257 -0.36686,0.0103 -0.43302,-0.0339 z m 32.5973,-0.0205 c 0,-0.0493 0.0618,-0.11303 0.13733,-0.14198 0.1924,-0.0739 0.39877,-0.50612 0.39877,-0.83514 0,-0.61885 -0.35104,-0.93073 -1.36605,-1.21377 -1.03446,-0.28847 -1.19494,-0.34925 -1.54795,-0.58629 -0.8487,-0.56998 -0.89013,-1.83138 -0.0804,-2.44899 0.36342,-0.27718 0.62549,-0.29186 0.30013,-0.0164 -0.52043,0.4399 -0.57124,0.92877 -0.14117,1.35882 0.24446,0.24444 0.43597,0.3241 1.18384,0.49236 1.09175,0.24567 1.59712,0.48487 1.95258,0.92406 0.24379,0.3012 0.27153,0.39781 0.26838,0.93555 -0.005,0.81697 -0.317,1.33141 -0.94906,1.56404 -0.086,0.0318 -0.15638,0.0175 -0.15638,-0.0318 z m -85.37129,-0.0985 c 0.24467,-0.0472 0.47524,-0.13325 0.51238,-0.19167 0.0371,-0.0585 0.0682,-1.13861 0.0689,-2.40042 0.002,-2.55277 -0.003,-2.57505 -0.58577,-2.57505 -0.16848,0 -0.30633,-0.04 -0.30633,-0.0893 0,-0.0565 0.55098,-0.0893 1.47419,-0.0893 0.92324,0 1.47422,0.0339 1.47422,0.0893 0,0.0493 -0.15459,0.0893 -0.34355,0.0893 -0.63296,0 -0.63927,0.0257 -0.63927,2.61827 l 0,2.2915 0.22701,0.14875 c 0.27746,0.18182 1.30164,0.12607 1.72727,-0.0944 0.447,-0.2312 0.80655,-0.81585 0.95073,-1.54608 0.15627,-0.79131 0.34118,-0.10482 0.29456,1.09344 l -0.0278,0.71483 -2.63567,0.0133 c -1.89693,0.0103 -2.51101,-0.0113 -2.19085,-0.0729 z m 5.76128,-0.0164 c 0.4719,-0.0996 0.49056,-0.11487 0.56418,-0.46043 0.0419,-0.1966 0.0634,-1.27536 0.048,-2.39724 -0.0316,-2.29817 -0.0302,-2.29345 -0.72054,-2.29345 -0.20763,0 -0.32355,-0.0359 -0.29038,-0.0893 0.0331,-0.0534 0.6246,-0.0893 1.47422,-0.0893 0.8496,0 1.44112,0.0359 1.47419,0.0893 0.0333,0.0534 -0.0848,0.0893 -0.2965,0.0893 -0.59535,0 -0.59695,0.0103 -0.59695,2.64209 0,1.29055 0.0337,2.37989 0.0749,2.42085 0.0412,0.0411 0.40306,0.0729 0.80412,0.0708 0.60052,0 0.79624,-0.0411 1.10919,-0.21764 0.44635,-0.25172 0.76597,-0.81441 0.9267,-1.63139 0.15581,-0.79192 0.25389,-0.46669 0.25546,0.84716 l 0.002,1.13923 -2.65803,-0.0103 c -2.24536,-0.0103 -2.58224,-0.0246 -2.16998,-0.1117 z m 17.40336,0.0133 0.46907,-0.0852 0,-2.43235 c 0,-1.77265 -0.0291,-2.4614 -0.10721,-2.53953 -0.059,-0.0585 -0.25999,-0.10718 -0.44673,-0.10718 -0.18674,0 -0.33952,-0.04 -0.33952,-0.0893 0,-0.11611 2.82889,-0.12104 2.90064,0 0.0292,0.0472 -0.13566,0.0965 -0.37398,0.11159 -0.3928,0.0257 -0.43057,0.0483 -0.48302,0.29536 -0.0742,0.34956 -0.0942,4.14042 -0.0238,4.49286 0.0475,0.23776 0.1055,0.28201 0.46906,0.35798 0.33148,0.0698 0.11871,0.0862 -1.0594,0.0862 -1.2063,0 -1.38894,-0.0154 -1.00513,-0.0852 z m 3.26742,0 c 0.34048,-0.0708 0.44928,-0.13839 0.51925,-0.32236 0.0528,-0.13869 0.0773,-1.12906 0.0607,-2.44959 -0.0309,-2.46469 -0.009,-2.38482 -0.64879,-2.38728 -0.23913,0 -0.32361,-0.0308 -0.26208,-0.0924 0.0582,-0.0585 0.95366,-0.0821 2.49722,-0.0667 l 2.40635,0.0236 0.0261,0.79706 c 0.0285,0.87468 -0.0221,1.16644 -0.16351,0.94274 -0.0458,-0.0719 -0.0838,-0.20933 -0.0846,-0.30439 0,-0.0955 -0.0876,-0.3509 -0.19291,-0.56854 -0.26371,-0.54472 -0.68184,-0.72828 -1.66518,-0.73084 -0.6122,0 -0.74983,0.0236 -0.7976,0.14845 -0.0317,0.0832 -0.0606,0.61535 -0.0642,1.18378 l -0.006,1.03349 0.35737,0.0246 c 0.52857,0.0359 0.91072,-0.23201 1.04457,-0.73249 0.0585,-0.21897 0.13899,-0.378 0.17871,-0.35346 0.0989,0.0616 0.092,2.33431 -0.007,2.3957 -0.0437,0.0267 -0.10753,-0.0996 -0.14169,-0.28211 -0.0342,-0.18212 -0.14318,-0.44504 -0.24223,-0.58414 -0.1663,-0.23356 -0.21872,-0.25081 -0.68475,-0.22637 l -0.50467,0.0267 -0.028,0.75949 c -0.0154,0.41762 -0.003,0.9684 0.0282,1.22392 l 0.0563,0.46444 0.39723,0.0596 c 0.21847,0.0328 0.65668,0.0318 0.97378,0 0.93361,-0.0996 1.31557,-0.47173 1.58969,-1.54711 0.0661,-0.25932 0.14803,-0.4436 0.18211,-0.40951 0.0341,0.0339 0.0619,0.51761 0.0619,1.07455 l 0,1.01255 -2.658,-0.0103 c -2.02587,-0.0103 -2.5556,-0.0318 -2.22731,-0.0996 z m 29.29894,0 c 0.18935,-0.0503 0.33505,-0.14455 0.33505,-0.21672 0,-0.1968 -1.04044,-1.86145 -1.18158,-1.8905 -0.0687,-0.0144 -0.17943,0.076 -0.2461,0.20091 -0.0667,0.12463 -0.13869,0.20912 -0.16001,0.18776 -0.0213,-0.0216 0.0257,-0.13068 0.10438,-0.243 0.0787,-0.11241 0.14313,-0.29381 0.14313,-0.40304 0,-0.23007 -1.25895,-2.30002 -1.58029,-2.59836 -0.13899,-0.12894 -0.32873,-0.20101 -0.52958,-0.20101 -0.1859,0 -0.29058,-0.0359 -0.25777,-0.0893 0.0328,-0.0534 0.5948,-0.0893 1.38484,-0.0893 0.79005,0 1.35204,0.0359 1.38486,0.0893 0.0328,0.0534 -0.0744,0.0893 -0.26558,0.0893 -0.20347,0 -0.33969,0.0493 -0.37248,0.13469 -0.0286,0.075 0.11933,0.42328 0.33181,0.78187 0.45671,0.77058 0.61644,0.97179 0.72024,0.90763 0.0426,-0.0267 0.0774,0.039 0.0774,0.14424 0,0.17657 0.57142,1.18696 1.44818,2.56088 0.21455,0.33611 0.44673,0.58763 0.59163,0.6406 0.1746,0.0637 -0.0967,0.0862 -1.01235,0.0852 -0.99815,0 -1.18315,-0.0205 -0.91579,-0.0914 z m 3.10475,-0.0123 0.4914,-0.10379 0.0238,-2.40135 c 0.0169,-1.69688 -0.006,-2.43738 -0.0779,-2.52402 -0.056,-0.0678 -0.25765,-0.12258 -0.44819,-0.12258 -0.19056,0 -0.34645,-0.04 -0.34645,-0.0893 0,-0.0575 0.87538,-0.0893 2.44743,-0.0893 2.79304,0 2.56133,-0.0801 2.547,0.87847 -0.0161,1.07794 -0.13704,1.21715 -0.34641,0.39874 -0.20126,-0.7867 -0.71627,-1.09848 -1.81436,-1.09848 -0.9114,0 -0.86807,-0.0626 -0.86807,1.26037 l 0,1.15196 0.30852,0 c 0.61441,0 1.11529,-0.36763 1.11903,-0.82118 0.002,-0.13223 0.0376,-0.26251 0.0812,-0.2894 0.12828,-0.079 0.18641,0.29504 0.18641,1.1999 0,0.90485 -0.0581,1.27916 -0.18641,1.1999 -0.0435,-0.0267 -0.0791,-0.14978 -0.0791,-0.27297 0,-0.54565 -0.32825,-0.83094 -0.96046,-0.83474 l -0.46907,0 0,1.20842 0,1.20832 0.24571,0.0965 c 0.37415,0.14629 1.53459,0.0411 1.96349,-0.1774 0.40562,-0.20687 0.72201,-0.74019 0.80464,-1.35626 0.0264,-0.1969 0.0816,-0.37882 0.12269,-0.40428 0.1274,-0.0791 0.17805,0.32841 0.15077,1.21202 l -0.0262,0.8488 -2.68034,0.0144 c -2.23178,0.0123 -2.59812,0 -2.18897,-0.0893 z m 6.02893,0.0154 c 0.24467,-0.0472 0.47524,-0.13325 0.51238,-0.19167 0.0372,-0.0585 0.0682,-1.13861 0.0689,-2.40052 0.002,-2.55267 -0.003,-2.57495 -0.58578,-2.57495 -0.16847,0 -0.30633,-0.04 -0.30633,-0.0893 0,-0.0554 0.53608,-0.0893 1.42953,-0.0893 0.89345,0 1.42952,0.0339 1.42952,0.0893 0,0.0493 -0.13785,0.0893 -0.30633,0.0893 -0.5822,0 -0.58727,0.0226 -0.58575,2.57505 0,1.2962 0.0384,2.35248 0.0864,2.42824 0.0649,0.10266 0.26039,0.13274 0.82508,0.12874 1.18095,-0.0103 1.58197,-0.33201 1.95857,-1.58057 0.11488,-0.38087 0.24066,-0.69245 0.27952,-0.69245 0.0389,0 0.0594,0.53271 0.0457,1.18379 l -0.0249,1.18388 -2.63567,0.0133 c -1.89692,0.0103 -2.51102,-0.0113 -2.19085,-0.0729 z m 5.76464,-0.0164 0.4914,-0.10307 0.0239,-2.41233 c 0.0266,-2.68418 0.0372,-2.63572 -0.57702,-2.63572 -0.16259,0 -0.29562,-0.04 -0.29562,-0.0893 0,-0.0554 0.53606,-0.0893 1.42952,-0.0893 0.89345,0 1.42953,0.0339 1.42953,0.0893 0,0.0493 -0.13786,0.0893 -0.30633,0.0893 -0.5822,0 -0.58728,0.0226 -0.58578,2.57505 0,1.28963 0.0385,2.35299 0.0861,2.42834 0.0935,0.14794 1.18044,0.19178 1.63081,0.0657 0.59925,-0.16775 1.23013,-1.11685 1.23013,-1.85067 0,-0.1427 0.0402,-0.28427 0.0893,-0.31466 0.0579,-0.0359 0.0893,0.37132 0.0893,1.15617 l 0,1.2115 -2.61336,-0.0103 c -2.2136,-0.0103 -2.53819,-0.0246 -2.12196,-0.1117 z m 5.69403,0.0103 c 0.4261,-0.0821 0.47188,-0.11447 0.51893,-0.36804 0.0283,-0.15286 0.0392,-1.25452 0.0241,-2.44806 -0.0303,-2.38338 -0.0188,-2.3379 -0.58593,-2.34057 -0.1597,0 -0.29038,-0.0421 -0.29038,-0.0903 0,-0.0575 0.8646,-0.0893 2.41513,-0.0893 1.91577,0 2.42447,0.0246 2.4603,0.11776 0.0248,0.0647 0.0336,0.53712 0.0196,1.04981 l -0.0257,0.93206 -0.11951,-0.40202 c -0.38251,-1.28706 -0.72664,-1.54505 -2.00122,-1.50019 l -0.73834,0.0257 -0.0249,1.18378 -0.0249,1.18389 0.31973,0 c 0.63049,0 1.11497,-0.41865 1.11497,-0.96327 0,-0.17606 0.0367,-0.27554 0.0893,-0.24289 0.11593,0.0719 0.11593,2.45627 0,2.63561 -0.0637,0.0986 -0.087,0.037 -0.088,-0.23242 0,-0.23171 -0.0764,-0.4782 -0.20545,-0.67007 -0.18717,-0.27842 -0.24641,-0.30583 -0.71476,-0.33047 l -0.51069,-0.0267 0,1.21284 0,1.21284 0.24571,0.0965 c 0.35576,0.13931 1.58699,0.0308 1.93131,-0.17042 0.3781,-0.22082 0.62347,-0.60909 0.76942,-1.21745 0.067,-0.27935 0.15519,-0.5285 0.19593,-0.55376 0.0408,-0.0246 0.074,0.43908 0.074,1.03164 l 0,1.07743 -2.65803,-0.0113 c -2.05902,-0.0103 -2.5527,-0.0318 -2.19069,-0.10164 z m -30.80004,-0.14947 c 0,-0.0524 0.0402,-0.0945 0.0893,-0.0945 0.0492,0 0.0893,0.0175 0.0893,0.039 0,0.0216 -0.0402,0.0647 -0.0893,0.0945 -0.0492,0.0308 -0.0893,0.0123 -0.0893,-0.039 z m 5.27274,-0.787 c 0,-0.15975 0.014,-0.29033 0.0329,-0.29033 0.0812,0 0.11577,0.34823 0.0455,0.4591 -0.0524,0.0832 -0.0775,0.0287 -0.0783,-0.16877 z m -18.72837,-0.59472 c -0.0278,-0.0729 -0.0367,-0.2046 -0.0196,-0.29351 0.0272,-0.14208 0.1476,-0.16467 0.99626,-0.18694 l 0.96528,-0.0257 -0.0282,0.29351 -0.0282,0.2934 -0.9174,0.0257 c -0.74325,0.0205 -0.927,0 -0.96801,-0.10646 z m -42.0104,-0.81246 c -0.002,-0.14742 0.0167,-0.21857 0.0412,-0.1581 0.0244,0.0606 0.026,0.1811 0.003,0.26805 -0.0227,0.0873 -0.0427,0.038 -0.0444,-0.10995 z m 2.84871,0.0103 c -0.004,-0.0944 0.0171,-0.14691 0.0469,-0.11724 0.0297,0.0298 0.0328,0.10676 0.007,0.17124 -0.0285,0.0708 -0.0497,0.0503 -0.054,-0.0544 z m 0.26803,-0.5361 c -0.004,-0.0945 0.0174,-0.14691 0.0469,-0.11724 0.0297,0.0298 0.0329,0.10677 0.007,0.17124 -0.0285,0.0708 -0.0497,0.0503 -0.054,-0.0544 z m -2.94841,-0.0893 c -0.004,-0.0944 0.0173,-0.1469 0.0469,-0.11724 0.0297,0.0298 0.0329,0.10677 0.007,0.17124 -0.0285,0.0708 -0.0497,0.0503 -0.054,-0.0544 z m 60.57534,-0.70836 c -0.004,-0.56792 -0.0481,-0.86122 -0.15507,-1.04221 -0.15827,-0.26795 -0.45913,-0.44576 -0.75414,-0.44576 -0.0989,0 -0.1549,-0.04 -0.12454,-0.0893 0.0313,-0.0503 0.47568,-0.0893 1.02747,-0.0893 0.55179,0 0.99614,0.039 1.02749,0.0893 0.0306,0.0493 -0.0368,0.0903 -0.15109,0.0924 -0.47704,0.0103 -0.69446,0.41455 -0.70398,1.32084 -0.0103,0.94612 -0.15875,1.09334 -0.16614,0.16436 z m -60.38628,0.076 c -0.002,-0.14742 0.0167,-0.21856 0.0412,-0.1581 0.0245,0.0606 0.026,0.1811 0.003,0.26805 -0.0227,0.0873 -0.0427,0.038 -0.0444,-0.10995 z m 95.35234,-0.11169 c -0.0249,-0.0862 -0.16387,-0.38365 -0.30859,-0.66145 -0.23361,-0.44832 -0.2441,-0.49996 -0.0934,-0.46054 0.1147,0.0298 0.21908,-0.0308 0.32168,-0.18746 0.0836,-0.1275 0.18747,-0.23181 0.23094,-0.23181 0.0435,0 0.0791,0.38201 0.0791,0.84881 0,0.52347 -0.0353,0.8488 -0.0922,0.8488 -0.0507,0 -0.11257,-0.0708 -0.13755,-0.15635 z m -29.87966,-0.0616 c 0,-0.0216 0.0402,-0.0636 0.0894,-0.0944 0.0492,-0.0308 0.0893,-0.0123 0.0893,0.039 0,0.0524 -0.0402,0.0945 -0.0893,0.0945 -0.0492,0 -0.0894,-0.0175 -0.0894,-0.039 z m -62.3489,-0.22863 c 0,-0.12278 0.0202,-0.17308 0.0451,-0.11169 0.0247,0.0616 0.0247,0.162 0,0.22339 -0.0248,0.0616 -0.0451,0.0113 -0.0451,-0.1117 z m 27.65314,-0.32759 c -0.0328,-0.0329 -0.0595,-0.12627 -0.0595,-0.20778 0,-0.19855 -0.34413,-0.5091 -0.64776,-0.58445 -0.52321,-0.12987 -0.2023,-0.22032 0.78177,-0.22032 0.62543,0 1.02747,0.0349 1.02747,0.0893 0,0.0493 -0.0749,0.0893 -0.16663,0.0893 -0.26033,0 -0.60855,0.32452 -0.66819,0.62264 -0.0525,0.2622 -0.14384,0.33447 -0.26711,0.21118 z m 35.138,-0.0688 c 0.0587,-0.0708 0.0938,-0.24167 0.0779,-0.37975 -0.0225,-0.19556 -0.093,-0.26999 -0.31916,-0.33662 -0.50737,-0.14937 -0.31602,-0.22719 0.5584,-0.22719 0.50631,0 0.84878,0.0359 0.84878,0.0893 0,0.0493 -0.0667,0.0893 -0.14822,0.0893 -0.0815,0 -0.34401,0.20101 -0.58333,0.44668 -0.40072,0.41136 -0.68398,0.61884 -0.43443,0.31815 z m -62.71591,-0.16334 c 0,-0.21877 -0.33053,-0.60149 -0.51948,-0.60149 -0.0583,0 -0.10592,-0.04 -0.10592,-0.0893 0,-0.0524 0.31269,-0.0893 0.75942,-0.0893 0.44673,0 0.75944,0.037 0.75944,0.0893 0,0.0493 -0.0528,0.0893 -0.11731,0.0893 -0.14151,0 -0.59746,0.45992 -0.59746,0.60262 0,0.0554 -0.0403,0.12638 -0.0893,0.15677 -0.05,0.0308 -0.0893,-0.039 -0.0893,-0.1579 z m 91.22155,-0.51217 c 0,-0.0493 -0.0603,-0.0893 -0.13402,-0.0893 -0.0737,0 -0.13401,-0.04 -0.13401,-0.0893 0,-0.13285 0.10775,-0.10595 0.35737,0.0893 0.18104,0.14157 0.19373,0.17504 0.067,0.17668 -0.086,0 -0.15636,-0.038 -0.15636,-0.0873 z m -1.09447,-0.37708 c 0.14452,-0.0698 0.25752,-0.0698 0.40205,0 0.17649,0.0852 0.15197,0.0965 -0.20103,0.0965 -0.35301,0 -0.37754,-0.0123 -0.20102,-0.0965 z m -25.08371,-6.16428 c 0,-0.10379 1.32232,-3.47221 2.20218,-5.60961 0.35438,-0.86092 0.59619,-1.45184 0.85913,-2.09963 0.0998,-0.24567 0.23163,-0.5673 0.2931,-0.71472 0.0615,-0.14743 0.90341,-2.2373 1.87099,-4.64419 0.96758,-2.40689 1.79733,-4.44728 1.84388,-4.53433 0.0613,-0.11447 0.19312,-0.1581 0.47828,-0.1581 0.21651,0 0.41698,0.038 0.4455,0.0842 0.0522,0.0842 -0.53765,1.67389 -0.67997,1.8326 -0.0419,0.0472 -0.0761,0.13613 -0.0761,0.19875 0,0.0626 -0.1206,0.37728 -0.26801,0.69913 -0.14743,0.32184 -0.26805,0.625 -0.26805,0.67356 0,0.0482 -0.0408,0.15809 -0.0906,0.24351 -0.0848,0.14516 -0.62633,1.47072 -3.18439,7.79413 -0.56655,1.40051 -1.08669,2.66303 -1.15586,2.80573 -0.0692,0.1427 -0.12579,0.28858 -0.12579,0.32421 0,0.0359 -0.0685,0.22031 -0.15207,0.41064 -0.0837,0.19023 -0.37513,0.88874 -0.64777,1.55213 l -0.49568,1.20617 -0.42439,0.0267 c -0.30621,0.0195 -0.42439,-0.0103 -0.42439,-0.0914 z m -63.60783,-0.14835 c -0.0833,-0.15553 -0.54419,-1.41559 -1.18074,-3.22766 -0.14675,-0.41763 -0.30228,-0.83988 -0.34564,-0.93812 -0.0433,-0.0986 -0.13854,-0.35962 -0.21147,-0.58076 -0.0729,-0.22113 -0.25905,-0.74378 -0.41358,-1.1615 -0.15453,-0.41763 -0.35526,-0.98052 -0.44606,-1.25083 -0.0909,-0.2702 -0.30384,-0.87333 -0.47343,-1.34014 -0.16955,-0.4668 -0.81724,-2.27609 -1.43929,-4.02051 -1.45722,-4.08663 -1.47328,-4.12493 -1.79872,-4.282 -0.14518,-0.0698 -0.67875,-0.15984 -1.18574,-0.19947 -1.01039,-0.0791 -1.11204,-0.11026 -1.06988,-0.32923 0.0261,-0.1351 0.39192,-0.14876 4.20418,-0.15625 l 4.17568,-0.0103 0,0.20389 c 0,0.21764 0.006,0.21599 -1.25085,0.34802 -1.21739,0.12802 -1.19796,0.10471 -0.85957,1.02866 0.11689,0.31917 0.8367,2.28914 1.59954,4.37747 0.76285,2.08854 1.45509,3.97812 1.53836,4.19925 0.0833,0.22113 0.23179,0.62326 0.33009,0.89346 0.0983,0.27031 0.21135,0.57182 0.25124,0.67017 0.0399,0.0986 0.0963,0.25234 0.12537,0.34248 0.14785,0.45838 0.22553,0.23335 1.75249,-5.07782 0.0424,-0.14742 0.11591,-0.4088 0.16337,-0.58076 0.17116,-0.62007 0.46928,-1.66526 0.64986,-2.27836 0.28314,-0.96111 0.29211,-1.14446 0.0873,-1.7786 -0.10336,-0.31989 -0.18792,-0.62397 -0.18792,-0.67561 0,-0.0513 -0.0872,-0.27934 -0.19361,-0.50592 -0.24022,-0.51104 -0.55325,-0.65826 -1.39928,-0.65826 -0.3387,0 -0.80236,-0.0257 -1.03033,-0.0565 -0.34811,-0.0472 -0.41454,-0.0873 -0.41454,-0.25039 l 0,-0.19362 4.4226,0 4.42258,0 0,0.20214 c 0,0.22503 0.0804,0.20686 -1.7721,0.40079 l -1.01267,0.10605 0.0534,0.28478 c 0.0294,0.15656 0.24763,0.88453 0.48501,1.61773 0.23741,0.7331 0.60314,1.87583 0.81278,2.53922 0.20964,0.6633 0.61497,1.92983 0.90072,2.81435 0.28575,0.88453 0.7308,2.26245 0.989,3.06218 0.25821,0.79963 0.50962,1.44054 0.55869,1.42422 0.0491,-0.0164 0.62454,-1.65572 1.27875,-3.64293 0.65424,-1.98721 1.33586,-4.05542 1.51475,-4.59604 0.42763,-1.29209 0.50489,-2.27466 0.2188,-2.78304 -0.30682,-0.54523 -0.83749,-0.8103 -1.94985,-0.97394 -0.3163,-0.0462 -0.37972,-0.0893 -0.37972,-0.25481 l 0,-0.19885 2.99308,0 2.99306,0 0,0.20501 c 0,0.14188 -0.062,0.21682 -0.20102,0.2432 -0.89331,0.16939 -1.22778,0.26826 -1.55485,0.45993 -0.43291,0.25377 -0.64798,0.52808 -0.90784,1.15822 -0.14624,0.35459 -2.28906,6.81393 -4.86087,14.65272 l -0.29314,0.89336 -0.32035,0.0267 c -0.38773,0.0328 -0.4568,-0.0452 -0.66094,-0.74163 -0.0864,-0.29484 -0.22707,-0.75723 -0.31261,-1.02743 -0.0855,-0.27031 -0.24706,-0.79295 -0.35898,-1.16151 -0.11192,-0.36855 -0.27274,-0.8912 -0.35738,-1.16151 -0.0846,-0.2702 -0.24548,-0.79295 -0.35738,-1.1615 -0.11191,-0.36856 -0.27482,-0.8912 -0.36201,-1.16151 -0.0872,-0.27021 -0.24815,-0.79285 -0.35769,-1.16141 -0.10955,-0.36855 -0.29308,-0.97168 -0.40782,-1.34024 -0.11476,-0.36855 -0.48094,-1.54936 -0.81373,-2.62402 -0.3328,-1.07465 -0.64531,-1.95918 -0.69444,-1.96555 -0.0773,-0.0103 -0.5219,1.4079 -1.11687,3.56214 -0.095,0.34402 -0.25317,0.90681 -0.35149,1.25082 -0.0983,0.34402 -0.25914,0.90681 -0.35742,1.25083 -0.0983,0.34401 -0.25912,0.9069 -0.35738,1.25082 -0.25231,0.88309 -0.5255,1.86155 -0.72338,2.59106 -0.44986,1.65819 -0.54511,2.01914 -0.71899,2.72453 -0.10291,0.41742 -0.23388,0.78864 -0.29105,0.82508 -0.20953,0.13326 -0.67598,0.0739 -0.76804,-0.0985 z m 22.50207,-0.0647 c -0.0843,-0.10163 -0.0908,-0.18191 -0.0234,-0.2895 0.0721,-0.11488 0.33566,-0.17134 1.15631,-0.24772 1.20543,-0.11211 1.74723,-0.239 1.92254,-0.45027 0.18065,-0.21764 0.2791,-4.68474 0.22724,-10.31221 -0.049,-5.31158 -0.0436,-5.26775 -0.6553,-5.43734 -0.1882,-0.0524 -0.78445,-0.11786 -1.32499,-0.14588 -1.31006,-0.0678 -1.38485,-0.0862 -1.38485,-0.34443 0,-0.11673 0.0538,-0.23284 0.11959,-0.25809 0.0658,-0.0257 0.83975,-0.0103 1.71991,0.0369 0.88015,0.0462 3.24872,0.0575 5.26344,0.0267 3.83836,-0.0595 4.45759,-0.0246 5.82969,0.32605 2.44843,0.62613 3.86734,2.33482 3.65253,4.39821 -0.18173,1.74575 -1.81928,2.97183 -4.56204,3.41574 -0.42865,0.0698 -0.29111,0.19033 0.30654,0.26948 2.22269,0.29433 3.90106,1.25042 4.59337,2.61673 0.48508,0.95721 0.49183,2.1949 0.0178,3.2599 -0.6222,1.39784 -2.18627,2.45771 -4.3572,2.95254 -1.35873,0.30973 -2.15882,0.3551 -4.79564,0.27205 -2.63646,-0.0832 -7.05975,-0.0811 -7.39806,0 -0.11395,0.0287 -0.23779,-0.0103 -0.30752,-0.0934 z m 10.74404,-0.53096 c 1.60938,-0.33857 2.47432,-1.07784 2.91352,-2.49015 0.17919,-0.57613 0.19422,-2.39908 0.0255,-3.09061 -0.32655,-1.3385 -1.08311,-2.09418 -2.50796,-2.50483 -0.56185,-0.162 -0.98396,-0.20091 -2.61334,-0.24074 l -1.94327,-0.0472 0.005,3.02706 c 0.003,1.66496 0.0357,3.45773 0.0724,3.98418 0.075,1.07548 0.16318,1.24836 0.71112,1.39424 0.53473,0.14239 2.6024,0.12278 3.33636,-0.0318 z m -0.23902,-9.0658 c 1.15513,-0.29895 1.5267,-0.4899 1.99769,-1.0263 1.11509,-1.27002 0.89347,-4.25808 -0.40031,-5.3969 -0.75555,-0.66503 -2.0508,-0.96573 -3.78541,-0.87877 -1.01624,0.0513 -1.37098,0.14485 -1.50686,0.39873 -0.10071,0.18808 -0.24837,6.7164 -0.15733,6.95365 0.0556,0.14496 0.19129,0.15255 1.77752,0.0996 0.94452,-0.0318 1.87812,-0.0985 2.0747,-0.14988 z m 39.71397,9.49061 c 0,-0.32246 0.0458,-0.34196 0.98279,-0.41947 1.039,-0.0862 1.98574,-0.22452 2.25712,-0.33047 0.14545,-0.0565 0.27387,-0.19249 0.3127,-0.33067 0.0362,-0.12894 0.0659,-3.57527 0.0659,-7.65872 0,-6.14561 -0.021,-7.44961 -0.1221,-7.57136 -0.1744,-0.21005 -0.61134,-0.30429 -1.93284,-0.4167 -1.56652,-0.13326 -1.56355,-0.13244 -1.56355,-0.42574 l 2e-5,-0.24403 5.56172,0.0103 c 5.96921,0.0103 6.14462,0.0174 7.37712,0.48733 2.77044,1.05608 4.52188,3.11443 5.26306,6.18564 0.20204,0.8371 0.22478,3.55957 0.0349,4.17698 -0.4518,1.46897 -0.67158,1.9485 -1.35289,2.95181 -1.08565,1.59864 -2.97354,3.01547 -4.50961,3.38433 -0.24569,0.0585 -0.60754,0.15409 -0.80411,0.21127 -0.25067,0.0729 -1.73111,0.10492 -4.95865,0.10698 -2.53071,0 -5.0536,0.039 -5.60643,0.0832 l -1.00513,0.0801 0,-0.27544 z m 11.19874,-0.60631 c 1.74929,-0.44761 2.83702,-1.58766 3.31869,-3.47837 0.31384,-1.23193 0.35849,-1.7283 0.35369,-3.9312 -0.005,-2.17405 -0.0565,-2.77719 -0.35855,-4.17697 -0.45569,-2.11185 -1.41375,-3.56327 -2.75359,-4.17174 -0.88373,-0.4012 -1.39367,-0.49226 -2.7351,-0.48856 -0.71254,0 -1.44276,0.0318 -1.62271,0.0678 l -0.32722,0.0636 -0.051,1.00259 c -0.12449,2.44765 -0.1575,9.2124 -0.0589,12.07901 0.0574,1.66947 0.12016,3.05119 0.13947,3.07049 0.0194,0.0195 0.34875,0.0677 0.73204,0.10779 0.95946,0.0996 2.69988,0.0257 3.36317,-0.14424 z m -33.6244,0.47511 c -2e-5,-0.1351 0.0103,-0.24833 0.0224,-0.25172 0.0123,0 0.70582,-0.04 1.5412,-0.0821 1.72347,-0.0862 2.1741,-0.19454 2.35136,-0.56443 0.0957,-0.19958 0.12891,-1.50132 0.16317,-6.38819 0.0237,-3.3756 0.0105,-6.86126 -0.0296,-7.74579 l -0.0727,-1.60818 -0.85068,0 c -0.78117,0 -0.89944,0.0236 -1.44716,0.29371 -1.41727,0.69769 -2.23645,2.41079 -2.82882,5.91585 -0.15033,0.88945 -0.16979,0.93812 -0.375,0.93812 l -0.21643,0 0,-3.84189 0,-3.84189 7.5255,-0.0226 7.52552,-0.0226 0.0491,0.20152 c 0.0269,0.11088 0.0378,1.86577 0.0241,3.89969 -0.0226,3.36882 -0.0384,3.70668 -0.17688,3.79405 -0.2154,0.13582 -0.25408,0.0657 -0.39381,-0.71914 -0.4542,-2.54928 -0.70454,-3.45188 -1.26777,-4.57089 -0.39296,-0.78074 -1.02273,-1.44218 -1.67863,-1.7631 -0.5334,-0.26096 -1.63908,-0.44883 -2.11547,-0.35952 l -0.31437,0.0585 -0.0661,1.76238 c -0.0947,2.52146 0.007,13.47479 0.12848,13.87588 0.0534,0.17597 0.18751,0.36496 0.29805,0.41999 0.28585,0.14239 1.37108,0.28755 2.14892,0.28755 0.36456,0 0.84936,0.0257 1.07734,0.0565 0.37292,0.0513 0.41453,0.0801 0.41455,0.29043 l 0,0.23355 -5.71809,0 -5.71811,0 0,-0.24577 z m -34.33705,-5.21754 c -0.0335,-0.0339 -0.0609,-0.29105 -0.0609,-0.57255 0,-0.38405 0.0352,-0.52511 0.14132,-0.56576 0.21576,-0.0832 4.97964,-0.0616 5.11259,0.0226 0.0799,0.0503 0.10801,0.24003 0.0893,0.6017 l -0.0272,0.52778 -2.59714,0.0236 c -1.42842,0.0133 -2.62452,0 -2.65801,-0.037 z"
       style="fill:#005176;fill-opacity:1;display:inline" />
  </g>
</svg>
