<?xml version="1.0" encoding="UTF-8" standalone="no"?>
<!-- Created with Inkscape (http://www.inkscape.org/) -->

<svg
   xmlns:dc="http://purl.org/dc/elements/1.1/"
   xmlns:cc="http://creativecommons.org/ns#"
   xmlns:rdf="http://www.w3.org/1999/02/22-rdf-syntax-ns#"
   xmlns:svg="http://www.w3.org/2000/svg"
   xmlns="http://www.w3.org/2000/svg"
   xmlns:sodipodi="http://sodipodi.sourceforge.net/DTD/sodipodi-0.dtd"
   xmlns:inkscape="http://www.inkscape.org/namespaces/inkscape"
   width="97.40786"
   height="38.674377"
   id="svg3735"
   version="1.1"
   inkscape:version="0.48.4 r9939"
   sodipodi:docname="wbtd.svg">
  <defs
     id="defs3737" />
  <sodipodi:namedview
     id="base"
     pagecolor="#ffffff"
     bordercolor="#666666"
     borderopacity="1.0"
     inkscape:pageopacity="0.0"
     inkscape:pageshadow="2"
     inkscape:zoom="0.37734375"
     inkscape:cx="-159.15322"
     inkscape:cy="59.337186"
     inkscape:document-units="px"
     inkscape:current-layer="layer1"
     showgrid="false"
     inkscape:window-width="476"
     inkscape:window-height="456"
     inkscape:window-x="0"
     inkscape:window-y="21"
     inkscape:window-maximized="0"
     fit-margin-top="0"
     fit-margin-left="0"
     fit-margin-right="0"
     fit-margin-bottom="0" />
  <metadata
     id="metadata3740">
    <rdf:RDF>
      <cc:Work
         rdf:about="">
        <dc:format>image/svg+xml</dc:format>
        <dc:type
           rdf:resource="http://purl.org/dc/dcmitype/StillImage" />
        <dc:title />
      </cc:Work>
    </rdf:RDF>
  </metadata>
  <g
     inkscape:label="Layer 1"
     inkscape:groupmode="layer"
     id="layer1"
     transform="translate(-534.15322,-553.02499)">
    <path
       style="fill:#00aa5a;fill-opacity:1;display:inline"
       d="m 567.69236,591.67959 c -0.646,-0.137 -0.82676,-0.4573 -0.82676,-1.4653 0,-1.1456 -0.16094,-1.3406 -1.10964,-1.3448 l -0.63095,0 0,1.1575 c 0,1.2752 0.0331,1.3663 0.49606,1.3663 0.15795,0 0.28719,0.039 0.28719,0.087 0,0.054 -0.49487,0.087 -1.31057,0.087 -0.85155,0 -1.29174,-0.03 -1.25678,-0.087 0.0296,-0.048 0.16112,-0.087 0.29233,-0.087 0.1312,0 0.28553,-0.047 0.34297,-0.1044 0.13566,-0.1357 0.14884,-4.5236 0.0144,-4.7749 -0.0658,-0.123 -0.18306,-0.1684 -0.43513,-0.1684 -0.18979,0 -0.34507,-0.039 -0.34507,-0.087 0,-0.053 0.41894,-0.087 1.08273,-0.087 0.62795,0 1.10533,0.037 1.13652,0.087 0.0296,0.048 -0.007,0.087 -0.0802,0.087 -0.19339,0 -0.23469,0.2702 -0.20616,1.349 l 0.0253,0.9573 0.65271,0.025 c 0.60505,0.023 0.67376,0.01 0.94069,-0.2175 0.42132,-0.3547 0.5372,-1.076 0.25992,-1.6178 -0.14046,-0.2745 -0.60733,-0.4951 -1.04829,-0.4954 -0.24943,0 -0.41339,-0.039 -0.41339,-0.099 0,-0.068 0.20066,-0.086 0.65429,-0.056 1.22186,0.078 2.02341,0.6982 1.92554,1.4889 -0.0227,0.1832 -0.11309,0.4126 -0.20091,0.5096 -0.20233,0.2238 -0.75084,0.5062 -0.983,0.5062 -0.26636,0 -0.21457,0.1102 0.14323,0.3046 0.17614,0.096 0.38364,0.2916 0.46113,0.4352 0.16549,0.3067 0.3495,1.074 0.3495,1.4575 0,0.3218 0.21976,0.5959 0.42157,0.5259 0.12832,-0.044 0.12981,-0.035 0.0136,0.084 -0.15599,0.1596 -0.41394,0.2308 -0.65273,0.1802 z m -27.24017,-0.1106 -0.34812,-0.058 0.30459,-0.087 0.30461,-0.088 0.0232,-2.3772 c 0.0213,-2.1863 0.0108,-2.3865 -0.13054,-2.4938 -0.0846,-0.064 -0.26142,-0.1179 -0.39306,-0.1194 -0.13163,0 -0.23934,-0.032 -0.23934,-0.068 0,-0.036 0.58746,-0.065 1.30544,-0.065 1.27462,0 1.60623,0.055 1.0096,0.1667 -0.45971,0.086 -0.49598,0.1855 -0.46859,1.2818 l 0.0247,0.9884 1.13137,0 1.13139,0 0.0247,-0.9884 c 0.0274,-1.0963 -0.009,-1.1955 -0.46858,-1.2818 -0.16272,-0.03 -0.29586,-0.081 -0.29586,-0.1111 -2e-5,-0.074 2.59494,-0.057 2.66919,0.017 0.0317,0.032 -0.0798,0.058 -0.2479,0.058 -0.58559,0 -0.59368,0.036 -0.59368,2.6417 l 0,2.3234 0.26291,0.053 c 0.47294,0.095 0.3592,0.1881 -0.30447,0.2502 -0.71194,0.067 -1.78673,-0.055 -1.48145,-0.1683 0.43944,-0.1626 0.43395,-0.147 0.45951,-1.3013 l 0.0244,-1.1003 -1.18011,0 -1.18009,0 0.0244,1.1003 c 0.0255,1.1543 0.0208,1.1409 0.45951,1.3 0.42528,0.1543 -1.04929,0.2575 -1.82762,0.1279 z m 35.06898,-0.026 c -0.0292,-0.076 -0.011,-0.2168 0.0403,-0.3128 0.0514,-0.096 0.50196,-1.193 1.0013,-2.4377 0.98985,-2.4675 1.06016,-2.6232 1.18452,-2.6232 0.15526,0 0.0867,0.2184 -0.60275,1.9184 -1.48452,3.6606 -1.5176,3.731 -1.62339,3.4553 z m 14.49422,0.028 c 0,-0.029 0.15477,-0.1189 0.34395,-0.2008 0.18918,-0.082 0.39139,-0.2377 0.44936,-0.346 0.058,-0.1083 0.12912,-0.6282 0.15805,-1.1552 l 0.0526,-0.9582 0.0549,0.9465 c 0.0602,1.0372 0.1685,1.2933 0.64604,1.5274 l 0.25327,0.1241 -0.2611,0.072 c -0.29011,0.08 -1.69707,0.072 -1.69707,-0.01 z m 4.20556,-0.1527 c -0.19032,-0.2967 -0.35569,-0.5219 -1.85521,-2.5262 -0.64587,-0.8633 -1.21685,-1.5533 -1.26882,-1.5334 -0.052,0.02 -0.14247,-0.1239 -0.20111,-0.3196 -0.10974,-0.3663 -0.49719,-0.6947 -0.82028,-0.6954 -0.0866,0 -0.13324,-0.04 -0.10365,-0.087 0.0698,-0.1129 1.31129,-0.1133 1.52202,0 0.0889,0.047 0.73677,0.8529 1.43973,1.7897 0.80886,1.078 1.32042,1.6871 1.39336,1.6591 0.14566,-0.056 0.19812,0.2061 0.23163,1.1568 0.0285,0.81 -0.0705,0.9733 -0.33767,0.5568 z m 3.69236,0.1763 c 0.0598,-0.024 0.15774,-0.024 0.21756,0 0.0598,0.024 0.0108,0.044 -0.10878,0.044 -0.11966,0 -0.16862,-0.02 -0.10878,-0.044 z m 1.16654,-0.1308 c 0.37037,-0.2147 0.50878,-0.4706 0.50878,-0.9404 0,-0.6095 -0.40723,-0.9195 -1.61005,-1.2257 -0.63923,-0.1627 -1.28013,-0.4651 -1.48718,-0.7016 -0.42939,-0.4904 -0.49747,-1.3314 -0.1462,-1.8057 0.22422,-0.3028 0.71658,-0.6332 0.83476,-0.5601 0.061,0.038 0.0497,0.072 -0.0325,0.099 -0.29531,0.095 -0.51788,0.4555 -0.51788,0.8378 0,0.3166 0.0442,0.4166 0.26687,0.604 0.25652,0.2158 0.45904,0.2871 1.75903,0.6185 1.05854,0.2699 1.47187,0.6891 1.52325,1.5449 0.0268,0.4469 -0.004,0.6123 -0.17651,0.9346 -0.21514,0.4029 -0.73207,0.7809 -1.06636,0.7799 -0.12916,0 -0.092,-0.048 0.14395,-0.185 z m -62.91435,0.044 c -0.075,-0.03 -0.0477,-0.094 0.087,-0.203 0.19505,-0.1578 0.19631,-0.1739 0.19631,-2.5382 l 0,-2.3793 -0.22663,-0.026 c -0.60155,-0.07 -1.11935,0.5928 -1.34678,1.7234 -0.0524,0.2603 -0.0713,0.2793 -0.12987,0.1305 -0.11317,-0.2871 -0.0945,-1.8226 0.0236,-1.9407 0.16303,-0.163 4.27732,-0.1471 4.41357,0.017 0.13235,0.1595 0.0917,1.8962 -0.0455,1.9416 -0.0569,0.019 -0.11973,-0.1373 -0.15305,-0.3804 -0.12049,-0.8791 -0.69555,-1.5574 -1.26439,-1.4914 l -0.22663,0.026 -0.0232,2.3311 c -0.0238,2.3859 0.009,2.6718 0.30908,2.6744 0.12818,0 0.1308,0.013 0.0187,0.086 -0.13308,0.086 -1.43373,0.1093 -1.6323,0.029 z m 10.73092,-0.021 c -0.14609,-0.057 -0.13161,-0.074 0.10297,-0.1211 0.24267,-0.049 0.27911,-0.096 0.32868,-0.4278 0.0307,-0.2052 0.0431,-1.2673 0.0276,-2.3602 -0.0262,-1.8486 -0.0399,-1.9957 -0.19709,-2.1105 -0.0929,-0.068 -0.30085,-0.1234 -0.46205,-0.1234 -0.17326,0 -0.27112,-0.036 -0.23932,-0.087 0.0823,-0.1332 4.59175,-0.1166 4.72568,0.017 0.11385,0.1139 0.13239,1.4328 0.0255,1.8103 -0.0515,0.1818 -0.0788,0.1318 -0.16578,-0.3046 -0.21667,-1.0865 -0.72806,-1.4633 -1.92434,-1.4177 l -0.65936,0.025 -0.0773,0.9251 c -0.0425,0.5088 -0.0516,1.0277 -0.0201,1.1531 0.0496,0.1977 0.10278,0.2281 0.39958,0.2281 0.18831,0 0.4367,-0.043 0.55196,-0.096 0.24904,-0.1135 0.49483,-0.5888 0.49483,-0.957 0,-0.1533 0.0363,-0.2408 0.087,-0.2095 0.0519,0.032 0.087,0.5939 0.087,1.3925 0,0.7986 -0.0351,1.3604 -0.087,1.3925 -0.0509,0.031 -0.087,-0.058 -0.087,-0.2152 0,-0.3824 -0.2098,-0.8351 -0.46429,-1.0018 -0.13997,-0.092 -0.35235,-0.133 -0.5947,-0.1156 l -0.37699,0.027 -0.0282,0.5657 c -0.0155,0.3112 -0.002,0.8543 0.0301,1.207 0.0503,0.5526 0.0836,0.6479 0.24111,0.6891 0.17682,0.046 0.17726,0.05 0.0134,0.1141 -0.22002,0.086 -1.51164,0.086 -1.73187,0 z m 2.99845,0 c -0.19338,-0.057 -0.17405,-0.072 0.17381,-0.1332 0.55302,-0.098 0.97554,-0.5402 1.16702,-1.2216 0.0807,-0.2872 0.17429,-0.581 0.20798,-0.6528 0.0691,-0.1472 0.13501,1.7973 0.067,1.9746 -0.0482,0.1256 -1.21864,0.1495 -1.61577,0.033 z m 2.47962,-0.033 c 0.39476,-0.236 0.70627,-0.663 0.90474,-1.24 0.22031,-0.6406 0.40822,-1.1161 0.53927,-1.3645 0.0438,-0.083 0.0797,-0.2496 0.0797,-0.3699 0,-0.1203 0.0392,-0.2188 0.087,-0.2188 0.1584,0 0.0963,0.2952 -0.19518,0.9273 -0.0475,0.1031 -0.0599,0.2304 -0.0275,0.2828 0.0715,0.1157 1.14914,0.1287 1.21956,0.015 0.0476,-0.077 -0.0189,-0.3061 -0.36602,-1.2617 -0.17488,-0.4814 -0.36975,-0.6263 -0.36975,-0.275 0,0.1236 -0.0392,0.2248 -0.087,0.2248 -0.10697,0 -0.11297,-0.2113 -0.0118,-0.4146 0.0414,-0.083 0.16588,-0.4448 0.27667,-0.8038 0.2211,-0.7165 0.33255,-0.9169 0.44647,-0.8029 0.0411,0.041 0.33147,0.8162 0.64523,1.7225 0.797,2.302 0.7912,2.2857 1.0144,2.858 0.19706,0.5053 0.25288,0.566 0.66192,0.7202 0.24639,0.093 -1.18339,0.1525 -1.57827,0.066 -0.21936,-0.048 -0.23088,-0.066 -0.1021,-0.1605 0.13443,-0.098 0.13032,-0.1509 -0.0552,-0.7099 -0.2835,-0.854 -0.34401,-0.9083 -1.01195,-0.9083 -0.6288,0 -0.8946,0.1028 -0.8946,0.3461 0,0.091 -0.0392,0.19 -0.087,0.2196 -0.0479,0.03 -0.087,0.2463 -0.087,0.4816 0,0.3873 0.0247,0.4406 0.2611,0.5628 0.14359,0.074 0.26107,0.1536 0.26107,0.1763 0,0.023 -0.38183,0.039 -0.84851,0.036 -0.69702,0 -0.81759,-0.024 -0.6752,-0.1087 z m 7.05326,0.035 c -0.15461,-0.061 -0.14841,-0.072 0.0653,-0.1261 l 0.23615,-0.059 0,-2.4786 0,-2.4787 -0.23932,0 c -0.56438,0 -0.97261,0.5024 -1.23918,1.5227 -0.19784,0.7573 -0.26207,0.6358 -0.26207,-0.4955 0,-0.9191 0.0222,-1.1045 0.13766,-1.1488 0.0757,-0.029 1.06655,-0.053 2.20184,-0.053 1.48944,0 2.09327,0.029 2.16862,0.1044 0.0694,0.069 0.10443,0.4476 0.10443,1.1263 0,1.0138 -0.11443,1.4265 -0.22051,0.7952 -0.20038,-1.1927 -0.74065,-1.9247 -1.35636,-1.8376 l -0.20723,0.029 0,2.4342 0,2.4343 0.20052,0.1 0.20053,0.1 -0.20053,0.054 c -0.27748,0.074 -1.38179,0.058 -1.58982,-0.023 z m 10.13576,0 c -0.20348,-0.059 -0.19642,-0.067 0.10878,-0.1258 l 0.32636,-0.063 0,-2.3863 c 0,-2.2702 -0.008,-2.3907 -0.16835,-2.4764 -0.0926,-0.05 -0.2907,-0.09 -0.44027,-0.09 -0.15913,0 -0.24963,-0.036 -0.21816,-0.087 0.0336,-0.054 0.91369,-0.087 2.35186,-0.087 2.18298,0 2.3026,0.01 2.38818,0.1683 0.10162,0.1899 0.11726,0.8276 0.035,1.4276 -0.061,0.4451 -0.20463,0.4663 -0.20847,0.031 -0.004,-0.4859 -0.34977,-1.0376 -0.78467,-1.2532 -0.50872,-0.2522 -1.70839,-0.2875 -1.7984,-0.053 -0.0309,0.081 -0.0591,0.5994 -0.0625,1.1531 l -0.006,1.0067 0.30951,0.026 c 0.6337,0.053 1.01261,-0.2682 1.10201,-0.9347 0.0258,-0.1924 0.081,-0.3286 0.12271,-0.3028 0.10748,0.066 0.0968,2.7112 -0.0112,2.778 -0.0479,0.03 -0.087,-0.032 -0.087,-0.1371 0,-0.363 -0.20599,-0.8762 -0.41892,-1.0437 -0.14473,-0.1139 -0.3505,-0.1682 -0.63717,-0.1682 l -0.4234,0 0,1.0387 c 0,1.1153 0.0796,1.4816 0.32421,1.4913 0.13454,0.01 0.132,0.016 -0.0197,0.081 -0.20939,0.09 -1.47838,0.095 -1.7841,0.01 z m 3.00249,0 c -0.14332,-0.058 -0.11112,-0.081 0.18255,-0.1315 0.58676,-0.1004 0.93262,-0.4596 1.17477,-1.2199 0.11506,-0.3614 0.23984,-0.6572 0.27726,-0.6575 0.0374,0 0.057,0.4598 0.0435,1.0222 l -0.0245,1.0226 -0.73976,0.017 c -0.40686,0.01 -0.81808,-0.015 -0.91381,-0.053 z m 6.52721,-0.01 c 0.0296,-0.048 0.16114,-0.087 0.29233,-0.087 0.13121,0 0.28554,-0.047 0.34298,-0.1044 0.12503,-0.125 0.14867,-4.5646 0.0254,-4.7593 -0.042,-0.066 -0.2764,-0.1399 -0.52085,-0.1634 -0.24442,-0.024 -0.44442,-0.077 -0.44442,-0.1187 0,-0.042 0.73431,-0.075 1.63181,-0.075 2.08058,0 2.61753,0.1416 3.25963,0.8524 0.68996,0.7637 0.8891,2.1783 0.43114,3.063 -0.41937,0.8102 -1.19027,1.3984 -1.81618,1.3859 l -0.32983,-0.01 0.2611,-0.1022 c 0.38291,-0.1498 0.51077,-0.2467 0.70913,-0.5373 0.5077,-0.7438 0.51205,-2.6624 0.008,-3.6832 -0.27506,-0.5575 -0.76052,-0.8151 -1.47227,-0.7814 l -0.55068,0.026 -0.0232,2.4354 -0.0232,2.4354 0.19723,0.1518 c 0.1907,0.1467 0.1603,0.1518 -0.91753,0.1537 -0.72148,0 -1.09579,-0.029 -1.06098,-0.085 z m 5.43933,0.011 c 0,-0.042 0.11781,-0.1252 0.26183,-0.1849 0.27822,-0.1152 0.61398,-0.7172 0.90944,-1.6304 0.0811,-0.2508 0.18365,-0.4783 0.22785,-0.5056 0.0442,-0.027 0.0804,-0.1458 0.0804,-0.2633 0,-0.1175 0.0346,-0.2816 0.0769,-0.3647 0.12075,-0.2374 0.2224,-0.5205 0.53221,-1.4821 0.21411,-0.6645 0.32301,-0.8892 0.42183,-0.8701 0.0831,0.016 0.24449,0.353 0.42899,0.8958 0.59319,1.7449 1.34694,3.835 1.46725,4.0684 0.083,0.161 0.19215,0.2393 0.33354,0.2393 0.11562,0 0.23058,0.033 0.25551,0.073 0.0646,0.1045 -1.61833,0.1191 -1.77562,0.015 -0.0874,-0.058 -0.0945,-0.086 -0.0218,-0.087 0.0598,0 0.10878,-0.053 0.10878,-0.1172 0,-0.2311 -0.36925,-1.2853 -0.49385,-1.4099 -0.13802,-0.138 -1.20087,-0.1819 -1.39647,-0.058 -0.13928,0.088 -0.37244,0.7558 -0.37244,1.066 0,0.2596 0.19566,0.5174 0.39271,0.5174 0.0656,0 0.14341,0.039 0.173,0.087 0.0344,0.056 -0.24569,0.087 -0.77815,0.087 -0.45753,0 -0.83191,-0.034 -0.83191,-0.077 z m 2.65633,-2.0153 c 0.0659,-0.1067 -0.48301,-1.7375 -0.5848,-1.7375 -0.0384,0 -0.0704,0.01 -0.071,0.022 0,0.012 -0.11761,0.3546 -0.25992,0.7615 -0.36906,1.0551 -0.37213,1.0443 0.29947,1.0443 0.30831,0 0.58563,-0.041 0.61627,-0.09 z m 0.0416,2.0534 c 0,-0.021 0.0392,-0.063 0.087,-0.092 0.0479,-0.03 0.087,-0.012 0.087,0.038 0,0.051 -0.0392,0.092 -0.087,0.092 -0.0479,0 -0.087,-0.017 -0.087,-0.038 z m 9.05105,-1.0495 c 0,-0.6672 0.0337,-1.0878 0.087,-1.0878 0.0479,0 0.087,0.051 0.087,0.1143 0,0.063 0.17356,0.4544 0.3857,0.8701 0.32462,0.6362 0.35652,0.7403 0.20136,0.6573 -0.15884,-0.085 -0.21222,-0.064 -0.38529,0.1524 -0.11049,0.1381 -0.20112,0.2804 -0.20134,0.3163 0,0.036 -0.0396,0.065 -0.0875,0.065 -0.0534,0 -0.087,-0.4206 -0.087,-1.0879 z m 5.00827,1.0092 c -0.14593,-0.057 -0.13115,-0.074 0.10427,-0.1214 0.22484,-0.045 0.28381,-0.1063 0.32738,-0.3407 0.0944,-0.5077 0.009,-4.4019 -0.0988,-4.5096 -0.054,-0.054 -0.25963,-0.1197 -0.4569,-0.1462 -0.19725,-0.026 -0.35866,-0.082 -0.35866,-0.1236 0,-0.042 1.07282,-0.076 2.38401,-0.076 2.09361,0 2.39043,0.017 2.43681,0.1377 0.0291,0.076 0.0522,0.5163 0.0515,0.979 -0.002,0.9546 -0.11608,1.317 -0.20484,0.648 -0.0866,-0.6529 -0.38535,-1.1686 -0.79467,-1.3719 -0.46341,-0.23 -1.75692,-0.3038 -1.83339,-0.1046 -0.0279,0.073 -0.0575,0.5956 -0.066,1.1621 l -0.0153,1.03 0.40347,0.026 c 0.52422,0.034 0.81049,-0.2028 1.03157,-0.853 l 0.16279,-0.4786 -0.002,1.4795 -0.002,1.4795 -0.16278,-0.5222 c -0.21675,-0.6953 -0.48747,-0.9314 -1.02792,-0.8964 l -0.40347,0.026 0.005,1.1636 c 0.004,0.9978 0.0261,1.1793 0.15486,1.2734 0.13576,0.099 0.1367,0.1149 0.01,0.1636 -0.19503,0.075 -1.43805,0.056 -1.64492,-0.025 z m 2.95492,0 c -0.13965,-0.055 -0.0967,-0.082 0.21734,-0.1357 0.496,-0.085 0.96281,-0.5373 1.12299,-1.0887 0.26388,-0.9083 0.31155,-0.8907 0.33808,0.125 0.0136,0.5234 0.005,1.0032 -0.0189,1.0661 -0.0494,0.1286 -1.35219,0.1547 -1.6594,0.033 z m -35.63163,-0.9996 c -0.004,-0.092 0.0167,-0.1431 0.0457,-0.1142 0.0289,0.029 0.032,0.104 0.007,0.1668 -0.0278,0.069 -0.0484,0.049 -0.0526,-0.053 z m 30.70245,-3.0639 c -0.16091,-0.3292 -0.30564,-0.6279 -0.32162,-0.6639 -0.0161,-0.036 0.0283,-0.043 0.0983,-0.016 0.075,0.029 0.2018,-0.046 0.30839,-0.1813 0.0996,-0.1266 0.22177,-0.205 0.27157,-0.1743 0.10937,0.068 0.11939,1.3449 0.012,1.5146 -0.0549,0.087 -0.15699,-0.046 -0.36855,-0.4787 z m -4.98869,-0.2939 c -0.0369,-0.1676 -0.10585,-0.3528 -0.15322,-0.4116 -0.10777,-0.1339 -0.57742,-0.3717 -0.73393,-0.3717 -0.0644,0 -0.11715,-0.039 -0.11715,-0.087 0,-0.1054 1.97057,-0.1208 2.03539,-0.016 0.0242,0.039 -0.0932,0.1208 -0.26089,0.1815 -0.24306,0.088 -0.3453,0.2014 -0.504,0.5597 l -0.1991,0.4495 -0.0671,-0.3046 z m 4.3542,-0.5719 c -0.0922,-0.067 -0.14798,-0.1422 -0.12405,-0.1661 0.0239,-0.024 0.11893,0.012 0.21108,0.079 0.0922,0.067 0.148,0.1421 0.12407,0.1661 -0.0239,0.024 -0.11893,-0.012 -0.2111,-0.079 z m -0.48488,-0.2984 c 0,-0.048 0.0369,-0.087 0.0819,-0.087 0.045,0 0.1061,0.039 0.13568,0.087 0.0296,0.048 -0.007,0.087 -0.0819,0.087 -0.0746,0 -0.13568,-0.039 -0.13568,-0.087 z m -49.21103,-0.9356 c 0.70835,-0.9542 0.82729,-1.0698 1.00368,-0.9754 0.23526,0.1259 0.12039,0.31 -0.53492,0.8576 -0.62906,0.5256 -0.80421,0.5697 -0.46876,0.1178 z m 4.95244,0.1741 c 0.0319,-0.084 0.2025,-0.3772 0.37917,-0.652 0.44029,-0.6848 0.59275,-0.6727 1.08826,0.086 0.21096,0.3231 0.3648,0.6206 0.3419,0.661 -0.0229,0.041 -0.23281,-0.1146 -0.4665,-0.3448 l -0.42483,-0.4185 -0.41638,0.4102 c -0.43655,0.4299 -0.59887,0.5133 -0.50162,0.2578 z m 5.82946,-3.7545 c -1.61585,-0.7339 -2.05305,-3.1622 -0.8218,-4.5645 0.40939,-0.4662 0.71452,-0.6582 1.28181,-0.8063 0.50559,-0.1321 0.5381,-0.1295 1.45369,0.116 0.27729,0.074 1.01159,0.8202 1.22086,1.2402 0.61959,1.2433 0.3457,2.7422 -0.65806,3.6014 -0.6618,0.5665 -1.74217,0.7467 -2.4765,0.4132 z m 1.53878,-0.1342 c 0.20138,-0.1369 0.38428,-0.3754 0.5172,-0.6745 0.18311,-0.4121 0.20562,-0.5914 0.2057,-1.6377 0,-1.4765 -0.15172,-2.0636 -0.65836,-2.5456 -0.4211,-0.4006 -0.8121,-0.4369 -1.23356,-0.1144 -0.54373,0.4161 -0.75497,1.088 -0.75418,2.3989 0,1.5655 0.42838,2.5953 1.12985,2.722 0.41457,0.075 0.48325,0.062 0.79335,-0.1487 z m 6.47463,-0.068 c -0.4702,-0.72 -2.94044,-3.9844 -3.01508,-3.9844 -0.0415,0 -0.0755,0.3133 -0.0755,0.6963 0,0.4061 -0.0363,0.6962 -0.087,0.6962 -0.0527,0 -0.087,-0.3745 -0.087,-0.9496 l 0,-0.9496 -0.26777,-0.2253 c -0.14727,-0.1239 -0.36266,-0.2253 -0.47866,-0.2253 -0.11597,0 -0.21089,-0.039 -0.21089,-0.087 0,-0.052 0.3295,-0.087 0.81442,-0.087 l 0.81442,0 1.3675,1.8276 c 0.75214,1.0051 1.42347,1.8276 1.49185,1.8276 0.0961,0 0.1279,0.158 0.13991,0.6962 0.009,0.383 0.0183,0.7811 0.0218,0.8848 0.0106,0.321 -0.17344,0.2692 -0.42791,-0.1205 z m 22.65302,0.1161 c -0.277,-0.2475 -0.28164,-0.2645 -0.33017,-1.212 -0.0645,-1.2586 -0.11523,-1.3219 -1.05868,-1.3219 l -0.68277,0 0.002,1.1096 c 0,0.6103 0.0329,1.1594 0.0716,1.2203 0.0386,0.061 0.24365,0.1447 0.45558,0.1863 0.49904,0.098 0.44491,0.1045 -1.03198,0.1263 -1.27348,0.019 -1.73506,-0.05 -1.03601,-0.1552 0.23015,-0.035 0.4139,-0.1141 0.44393,-0.1924 0.0282,-0.073 0.0512,-1.1407 0.0512,-2.3717 0,-1.6248 -0.0286,-2.2668 -0.10443,-2.3426 -0.0574,-0.057 -0.27517,-0.1045 -0.4838,-0.1045 -0.23074,0 -0.35829,-0.034 -0.32558,-0.087 0.0672,-0.1087 2.21925,-0.1177 2.21925,-0.01 0,0.043 -0.0587,0.1003 -0.13056,0.1278 -0.10689,0.041 -0.13053,0.2578 -0.13053,1.1968 l 0,1.1467 0.64258,-0.049 c 1.07655,-0.081 1.3591,-0.3416 1.3591,-1.2513 0,-0.4335 -0.0304,-0.5137 -0.29591,-0.7791 -0.18124,-0.1813 -0.38159,-0.2959 -0.51704,-0.2959 -0.12162,0 -0.24534,-0.039 -0.27493,-0.087 -0.0326,-0.053 0.0913,-0.087 0.31506,-0.087 1.39381,0 2.2969,1.2521 1.47266,2.0417 -0.14042,0.1346 -0.45666,0.3128 -0.70275,0.3961 l -0.44745,0.1515 0.33282,0.1631 c 0.46747,0.2291 0.68154,0.5994 0.80701,1.396 0.14008,0.8894 0.21834,1.0734 0.45668,1.0734 0.188,0 0.18855,0 0.0236,0.1278 -0.28928,0.2187 -0.78227,0.166 -1.09983,-0.1178 z m 3.75935,0.07 c -0.21539,-0.098 -0.50282,-0.2827 -0.63872,-0.4115 -0.47435,-0.4496 -0.49265,-0.547 -0.49265,-2.6201 0,-1.8051 -0.01,-1.9211 -0.16834,-2.006 -0.0926,-0.05 -0.2884,-0.09 -0.43515,-0.09 -0.14674,0 -0.26681,-0.039 -0.26681,-0.087 0,-0.055 0.53669,-0.087 1.43598,-0.087 0.89931,0 1.43598,0.032 1.43598,0.087 0,0.048 -0.14916,0.087 -0.33147,0.087 -0.64146,0 -0.63683,-0.016 -0.64238,2.1788 -0.007,2.6225 0.12623,2.9559 1.17775,2.9559 0.56782,0 1.02121,-0.175 1.26878,-0.4897 0.10084,-0.1282 0.20854,-0.2079 0.23935,-0.177 0.0871,0.087 -0.45036,0.5593 -0.80525,0.7076 -0.45664,0.1908 -1.29998,0.1681 -1.77707,-0.048 z m 33.51278,-0.9938 0.005,-1.2184 0.29921,0.6429 c 0.16457,0.3536 0.38368,0.7844 0.48691,0.9573 0.10325,0.173 0.13446,0.2655 0.0694,0.2057 -0.21543,-0.198 -0.41748,-0.116 -0.6435,0.261 l -0.22167,0.3699 0.005,-1.2184 z m 1.87215,1.0904 c 0.0999,-0.04 0.31526,-0.042 0.47866,0 0.26886,0.063 0.2516,0.07 -0.18156,0.073 -0.34297,0 -0.42719,-0.017 -0.2971,-0.07 z m -92.80105,-0.1113 c -0.0468,-0.06 -0.10687,-0.1871 -0.13344,-0.2829 -0.0523,-0.1883 -0.53911,-1.5788 -1.11218,-3.1765 -0.19743,-0.5505 -0.38074,-1.0792 -0.40733,-1.1749 -0.0812,-0.2922 -0.2992,-0.4787 -0.55951,-0.4787 -0.13617,0 -0.24759,-0.039 -0.24759,-0.087 0,-0.054 0.43515,-0.087 1.13137,-0.087 0.64258,0 1.13139,0.035 1.13139,0.081 0,0.045 -0.1077,0.094 -0.23934,0.1088 -0.28462,0.033 -0.28995,0.2136 -0.0264,0.8978 0.0922,0.2393 0.34816,0.9233 0.56881,1.5198 0.22068,0.5966 0.41815,1.1016 0.43885,1.1223 0.0207,0.021 0.0752,-0.056 0.121,-0.1709 0.15348,-0.3836 0.0933,0.044 -0.12077,0.8596 -0.26982,1.0271 -0.33696,1.1341 -0.54483,0.8684 z m 2.7351,0.044 c -0.0203,-0.036 -0.14255,-0.4177 -0.27169,-0.8485 -0.12916,-0.4308 -0.26966,-0.8812 -0.31223,-1.0009 -0.0426,-0.1196 -0.18107,-0.57 -0.30772,-1.0008 -0.12668,-0.4308 -0.28814,-0.8745 -0.35884,-0.9861 -0.0707,-0.1115 -0.14437,-0.3619 -0.16374,-0.5565 -0.0496,-0.499 -0.24469,-0.7637 -0.56286,-0.7637 -0.1425,0 -0.25909,-0.039 -0.25909,-0.087 0,-0.054 0.44967,-0.087 1.17491,-0.087 0.72524,0 1.1749,0.033 1.1749,0.087 0,0.048 -0.13708,0.087 -0.30461,0.087 -0.43998,0 -0.45353,-0.081 0.4514,2.6979 0.11691,0.359 0.27205,0.7445 0.34472,0.8566 0.0986,0.152 0.1108,0.2625 0.048,0.4351 -0.0463,0.1272 -0.13493,0.4076 -0.19697,0.623 -0.15282,0.5305 -0.33856,0.752 -0.45617,0.5439 z m 1.96242,-0.029 c -0.1076,-0.038 -0.0768,-0.074 0.12485,-0.144 0.37347,-0.1302 0.6694,-0.5599 0.93631,-1.3596 0.12558,-0.3763 0.30549,-0.8438 0.39977,-1.039 0.0943,-0.1951 0.17145,-0.4454 0.17145,-0.556 0,-0.1107 0.0392,-0.2013 0.087,-0.2013 0.0479,0 0.087,-0.098 0.087,-0.2175 0,-0.1197 0.0392,-0.2176 0.087,-0.2176 0.1259,0 0.1139,0.057 -0.17406,0.8268 -0.14326,0.3829 -0.2606,0.7452 -0.26079,0.805 0,0.077 0.17938,0.1088 0.6089,0.1088 0.54521,0 0.60921,-0.018 0.60921,-0.1691 0,-0.2274 -0.43262,-1.4062 -0.57924,-1.5784 -0.15901,-0.1867 -0.14927,-0.2987 0.0868,-0.9988 0.21181,-0.6281 0.43165,-0.822 0.51743,-0.4563 0.0258,0.11 0.28772,0.8854 0.58202,1.7231 0.2943,0.8376 0.56829,1.6209 0.60885,1.7406 0.23932,0.7057 0.53171,1.4342 0.60505,1.5076 0.0467,0.047 0.23373,0.1137 0.41565,0.1489 0.19766,0.038 -0.22964,0.063 -1.06169,0.062 -0.80954,0 -1.22094,-0.026 -0.98274,-0.059 0.22535,-0.031 0.43448,-0.082 0.46469,-0.1122 0.0302,-0.03 -0.0604,-0.381 -0.2014,-0.7796 l -0.25637,-0.7247 -0.774,0 -0.77402,0 -0.16211,0.4989 c -0.20929,0.6443 -0.1484,0.8809 0.27014,1.0499 l 0.32712,0.132 -0.81007,0.03 c -0.44554,0.016 -0.87432,0.01 -0.95287,-0.021 z m 22.25835,0.01 c 0,-0.047 0.0985,-0.1101 0.21895,-0.1403 0.45123,-0.1133 0.5643,-0.4007 0.5643,-1.4345 0,-0.5331 0.0377,-0.9637 0.087,-0.9942 0.0557,-0.034 0.087,0.2421 0.087,0.7675 0,1.1356 0.1758,1.5355 0.73705,1.6764 0.22798,0.057 0.23788,0.072 0.0866,0.1314 -0.2551,0.1 -1.78093,0.094 -1.78093,-0.01 z m 17.40585,0 -0.21756,-0.07 0.22269,-0.01 c 0.12248,0 0.29873,-0.064 0.39163,-0.1321 0.15732,-0.115 0.1707,-0.2602 0.19434,-2.1105 0.014,-1.0928 -0.006,-2.1632 -0.0455,-2.3786 -0.0697,-0.3852 -0.0769,-0.3921 -0.43879,-0.4184 -0.20235,-0.015 -0.3679,-0.064 -0.3679,-0.1088 0,-0.1265 3.22463,-0.1034 3.71059,0.027 0.22968,0.061 0.56089,0.246 0.76275,0.4252 0.33739,0.2994 0.35679,0.343 0.35679,0.8032 0,0.5824 -0.18963,0.819 -0.8703,1.086 -0.43325,0.1699 -0.434,0.1709 -0.17407,0.2263 1.10531,0.2358 1.62778,1.141 1.12074,1.9416 -0.28511,0.4502 -1.30121,0.8775 -1.71902,0.7228 -0.16752,-0.062 -0.15851,-0.074 0.0955,-0.1301 0.8574,-0.1885 1.08043,-1.7007 0.33472,-2.2694 -0.26894,-0.2052 -0.3531,-0.2215 -1.01986,-0.1982 l -0.72675,0.025 0.004,1.1488 c 0.004,0.9929 0.0263,1.173 0.1658,1.3272 l 0.16142,0.1784 -0.86202,-0.01 c -0.4741,0 -0.95992,-0.04 -1.0796,-0.078 z m 2.88054,-2.8848 c 0.52834,-0.1583 0.70495,-0.408 0.71056,-1.0048 0.008,-0.8838 -0.36845,-1.2442 -1.30144,-1.2448 -0.29633,0 -0.55808,0.031 -0.58164,0.069 -0.0707,0.1144 -0.16956,1.9947 -0.11265,2.143 0.0644,0.1679 0.7803,0.1888 1.28517,0.037 z m 14.71276,2.8994 c -0.088,-0.059 -0.053,-0.1011 0.14085,-0.1687 0.14192,-0.049 0.39808,-0.2602 0.56924,-0.4683 0.41913,-0.5096 0.63663,-0.754 0.57285,-0.6436 -0.13083,0.2265 -0.23485,0.6599 -0.19496,0.8124 0.0241,0.092 0.16797,0.2294 0.31976,0.305 l 0.27596,0.1375 -0.47866,0.01 c -0.26325,0 -0.61573,0.027 -0.78325,0.052 -0.16754,0.025 -0.35735,0.01 -0.42179,-0.033 z m 31.75233,-0.02 c 0,-0.048 0.0602,-0.1101 0.13377,-0.1383 0.18741,-0.072 0.38843,-0.493 0.38843,-0.8135 0,-0.6028 -0.34194,-0.9066 -1.33064,-1.1823 -1.00764,-0.281 -1.16396,-0.3402 -1.50782,-0.5711 -0.8267,-0.5552 -0.86706,-1.7839 -0.0783,-2.3855 0.354,-0.27 0.60928,-0.2843 0.29235,-0.016 -0.50694,0.4285 -0.55643,0.9047 -0.13751,1.3236 0.23812,0.2381 0.42467,0.3157 1.15315,0.4796 1.06345,0.2393 1.55572,0.4723 1.90197,0.9001 0.23747,0.2934 0.26449,0.3875 0.26142,0.9113 -0.005,0.7958 -0.30878,1.2969 -0.92446,1.5235 -0.0838,0.031 -0.15232,0.017 -0.15232,-0.031 z m -83.15835,-0.096 c 0.23833,-0.046 0.46293,-0.1298 0.4991,-0.1867 0.0361,-0.057 0.0664,-1.1091 0.0671,-2.3382 0.002,-2.4866 -0.003,-2.5083 -0.57059,-2.5083 -0.16411,0 -0.29839,-0.039 -0.29839,-0.087 0,-0.055 0.5367,-0.087 1.43598,-0.087 0.89931,0 1.436,0.033 1.436,0.087 0,0.048 -0.15058,0.087 -0.33464,0.087 -0.61655,0 -0.6227,0.025 -0.6227,2.5504 l 0,2.2321 0.22113,0.1449 c 0.27026,0.1771 1.2679,0.1228 1.68249,-0.092 0.43542,-0.2252 0.78565,-0.7947 0.92609,-1.506 0.15222,-0.7708 0.33233,-0.1021 0.28692,1.0651 l -0.0271,0.6963 -2.56735,0.013 c -1.84775,0.01 -2.44592,-0.011 -2.13406,-0.071 z m 5.61194,-0.016 c 0.45967,-0.097 0.47785,-0.1119 0.54956,-0.4485 0.0408,-0.1915 0.0618,-1.2423 0.0468,-2.3351 -0.0308,-2.2386 -0.0294,-2.234 -0.70186,-2.234 -0.20225,0 -0.31516,-0.035 -0.28285,-0.087 0.0322,-0.052 0.60841,-0.087 1.436,-0.087 0.82758,0 1.40377,0.035 1.43598,0.087 0.0324,0.052 -0.0826,0.087 -0.28881,0.087 -0.57992,0 -0.58148,0.01 -0.58148,2.5736 0,1.2571 0.0328,2.3182 0.073,2.3581 0.0401,0.04 0.39261,0.071 0.78327,0.069 0.58496,0 0.7756,-0.04 1.08044,-0.212 0.43478,-0.2452 0.74612,-0.7933 0.90268,-1.5891 0.15177,-0.7714 0.24731,-0.4546 0.24884,0.8252 l 0.002,1.1097 -2.58913,-0.01 c -2.18716,-0.01 -2.51531,-0.024 -2.11374,-0.1088 z m 16.95224,0.013 0.45691,-0.083 0,-2.3693 c 0,-1.7267 -0.0283,-2.3976 -0.10443,-2.4737 -0.0575,-0.057 -0.25325,-0.1044 -0.43515,-0.1044 -0.1819,0 -0.33072,-0.039 -0.33072,-0.087 0,-0.1131 2.75557,-0.1179 2.82546,0 0.0284,0.046 -0.13215,0.094 -0.36429,0.1087 -0.38262,0.025 -0.41941,0.047 -0.4705,0.2877 -0.0723,0.3405 -0.0918,4.0331 -0.0232,4.3764 0.0463,0.2316 0.10276,0.2747 0.4569,0.3487 0.32289,0.068 0.11563,0.084 -1.03194,0.084 -1.17503,0 -1.35294,-0.015 -0.97908,-0.083 z m 3.18273,0 c 0.33165,-0.069 0.43763,-0.1348 0.50579,-0.314 0.0514,-0.1351 0.0753,-1.0998 0.0591,-2.3861 -0.0301,-2.4008 -0.009,-2.323 -0.63197,-2.3254 -0.23293,0 -0.31522,-0.03 -0.25528,-0.09 0.0567,-0.057 0.92894,-0.08 2.43248,-0.065 l 2.34398,0.023 0.0254,0.7764 c 0.0278,0.852 -0.0215,1.1362 -0.15927,0.9183 -0.0446,-0.07 -0.0816,-0.2039 -0.0824,-0.2965 0,-0.093 -0.0853,-0.3418 -0.18791,-0.5538 -0.25687,-0.5306 -0.66416,-0.7094 -1.62201,-0.7119 -0.59633,0 -0.7304,0.023 -0.77693,0.1446 -0.0309,0.081 -0.059,0.5994 -0.0625,1.1531 l -0.006,1.0067 0.3481,0.024 c 0.51487,0.035 0.88711,-0.226 1.0175,-0.7135 0.057,-0.2133 0.13538,-0.3682 0.17407,-0.3443 0.0963,0.06 0.0896,2.2738 -0.007,2.3336 -0.0426,0.026 -0.10474,-0.097 -0.13802,-0.2748 -0.0333,-0.1774 -0.13947,-0.4335 -0.23595,-0.569 -0.16199,-0.2275 -0.21305,-0.2443 -0.667,-0.2205 l -0.49159,0.026 -0.0273,0.7398 c -0.015,0.4068 -0.003,0.9433 0.0275,1.1922 l 0.0548,0.4524 0.38693,0.058 c 0.21281,0.032 0.63966,0.031 0.94854,0 0.90941,-0.097 1.28147,-0.4595 1.54848,-1.507 0.0644,-0.2526 0.1442,-0.4321 0.17739,-0.3989 0.0332,0.033 0.0603,0.5042 0.0603,1.0467 l 0,0.9863 -2.5891,-0.01 c -1.97336,-0.01 -2.48936,-0.031 -2.16958,-0.097 z m 28.53947,0 c 0.18444,-0.049 0.32636,-0.1408 0.32636,-0.2111 0,-0.1917 -1.01347,-1.8132 -1.15095,-1.8415 -0.0669,-0.014 -0.17478,0.074 -0.23972,0.1957 -0.065,0.1214 -0.1351,0.2037 -0.15586,0.1829 -0.0208,-0.021 0.025,-0.1273 0.10167,-0.2367 0.0767,-0.1095 0.13942,-0.2862 0.13942,-0.3926 0,-0.2241 -1.22632,-2.2404 -1.53933,-2.531 -0.13538,-0.1256 -0.3202,-0.1958 -0.51585,-0.1958 -0.18108,0 -0.28305,-0.035 -0.25109,-0.087 0.0319,-0.052 0.57939,-0.087 1.34895,-0.087 0.76957,0 1.31699,0.035 1.34896,0.087 0.032,0.052 -0.0725,0.087 -0.2587,0.087 -0.19819,0 -0.33088,0.048 -0.36282,0.1312 -0.0279,0.073 0.11624,0.4123 0.32321,0.7616 0.44487,0.7506 0.60046,0.9466 0.70157,0.8841 0.0415,-0.026 0.0754,0.038 0.0754,0.1405 0,0.172 0.55661,1.1562 1.41064,2.4945 0.20899,0.3274 0.43515,0.5724 0.5763,0.624 0.17007,0.062 -0.0942,0.084 -0.98611,0.083 -0.97228,0 -1.15248,-0.02 -0.89205,-0.089 z m 3.02427,-0.012 0.47866,-0.1011 0.0232,-2.3391 c 0.0165,-1.6529 -0.006,-2.3742 -0.0759,-2.4586 -0.0545,-0.066 -0.25097,-0.1194 -0.43657,-0.1194 -0.18562,0 -0.33747,-0.039 -0.33747,-0.087 0,-0.056 0.85269,-0.087 2.38399,-0.087 2.72064,0 2.49494,-0.078 2.48098,0.8557 -0.0157,1.05 -0.13349,1.1856 -0.33743,0.3884 -0.19605,-0.7663 -0.69771,-1.07 -1.76733,-1.07 -0.88778,0 -0.84557,-0.061 -0.84557,1.2277 l 0,1.1221 0.30052,0 c 0.59849,0 1.08638,-0.3581 1.09002,-0.7999 0.002,-0.1288 0.0366,-0.2557 0.0791,-0.2819 0.12495,-0.077 0.18158,0.2874 0.18158,1.1688 0,0.8814 -0.0566,1.246 -0.18158,1.1688 -0.0424,-0.026 -0.0771,-0.1459 -0.0771,-0.2659 0,-0.5315 -0.31974,-0.8094 -0.93556,-0.8131 l -0.45691,0 0,1.1771 0,1.177 0.23934,0.094 c 0.36445,0.1425 1.49481,0.04 1.91259,-0.1728 0.39511,-0.2015 0.7033,-0.721 0.78378,-1.3211 0.0257,-0.1918 0.0795,-0.369 0.11951,-0.3938 0.1241,-0.077 0.17344,0.3199 0.14687,1.1806 l -0.0255,0.8268 -2.61086,0.014 c -2.17393,0.012 -2.53077,0 -2.13223,-0.087 z m 5.87265,0.015 c 0.23833,-0.046 0.46292,-0.1298 0.4991,-0.1867 0.0362,-0.057 0.0664,-1.1091 0.0671,-2.3383 0.002,-2.4865 -0.003,-2.5082 -0.57059,-2.5082 -0.16411,0 -0.29839,-0.039 -0.29839,-0.087 0,-0.054 0.52218,-0.087 1.39247,-0.087 0.87029,0 1.39247,0.033 1.39247,0.087 0,0.048 -0.13428,0.087 -0.29839,0.087 -0.56711,0 -0.57205,0.022 -0.57057,2.5083 0,1.2626 0.0374,2.2915 0.0842,2.3653 0.0632,0.1 0.25364,0.1293 0.80369,0.1254 1.15034,-0.01 1.54096,-0.3234 1.9078,-1.5396 0.1119,-0.371 0.23442,-0.6745 0.27228,-0.6745 0.0379,0 0.0579,0.5189 0.0445,1.1531 l -0.0243,1.1532 -2.56735,0.013 c -1.84775,0.01 -2.44593,-0.011 -2.13406,-0.071 z m 5.61521,-0.016 0.47866,-0.1004 0.0233,-2.3498 c 0.0259,-2.6146 0.0362,-2.5674 -0.56206,-2.5674 -0.15838,0 -0.28796,-0.039 -0.28796,-0.087 0,-0.054 0.52217,-0.087 1.39247,-0.087 0.87029,0 1.39247,0.033 1.39247,0.087 0,0.048 -0.13428,0.087 -0.29839,0.087 -0.56711,0 -0.57205,0.022 -0.57059,2.5083 0,1.2562 0.0375,2.292 0.0839,2.3654 0.0911,0.1441 1.14985,0.1868 1.58854,0.064 0.58372,-0.1634 1.19824,-1.0879 1.19824,-1.8027 0,-0.139 0.0392,-0.2769 0.087,-0.3065 0.0564,-0.035 0.087,0.3617 0.087,1.1262 l 0,1.1801 -2.54561,-0.01 c -2.15622,-0.01 -2.4724,-0.024 -2.06696,-0.1088 z m 5.54643,0.01 c 0.41506,-0.08 0.45965,-0.1115 0.50548,-0.3585 0.0276,-0.1489 0.0382,-1.222 0.0235,-2.3846 -0.0295,-2.3216 -0.0183,-2.2773 -0.57075,-2.2799 -0.15556,0 -0.28285,-0.041 -0.28285,-0.088 0,-0.056 0.84219,-0.087 2.35253,-0.087 1.86611,0 2.36162,0.024 2.39652,0.1147 0.0242,0.063 0.0327,0.5232 0.0191,1.0226 l -0.025,0.9079 -0.11641,-0.3916 c -0.3726,-1.2537 -0.70781,-1.505 -1.94935,-1.4613 l -0.7192,0.025 -0.0243,1.1531 -0.0243,1.1532 0.31144,0 c 0.61414,0 1.08607,-0.4078 1.08607,-0.9383 0,-0.1715 0.0357,-0.2684 0.087,-0.2366 0.11293,0.07 0.11293,2.3926 0,2.5673 -0.062,0.096 -0.0847,0.036 -0.0857,-0.2264 0,-0.2257 -0.0744,-0.4658 -0.20012,-0.6527 -0.18232,-0.2712 -0.24003,-0.2979 -0.69624,-0.3219 l -0.49745,-0.026 0,1.1814 0,1.1814 0.23934,0.094 c 0.34654,0.1357 1.54586,0.03 1.88125,-0.166 0.3683,-0.2151 0.60731,-0.5933 0.74948,-1.1859 0.0653,-0.2721 0.15116,-0.5148 0.19085,-0.5394 0.0397,-0.024 0.0721,0.4277 0.0721,1.0049 l 0,1.0495 -2.58913,-0.011 c -2.00565,-0.01 -2.48653,-0.031 -2.13391,-0.099 z m -30.00166,-0.1456 c 0,-0.051 0.0392,-0.092 0.087,-0.092 0.0479,0 0.087,0.017 0.087,0.038 0,0.021 -0.0392,0.063 -0.087,0.092 -0.0479,0.03 -0.087,0.012 -0.087,-0.038 z m 5.13607,-0.7666 c 0,-0.1556 0.0136,-0.2828 0.032,-0.2828 0.0791,0 0.11277,0.3392 0.0443,0.4472 -0.051,0.081 -0.0755,0.028 -0.0763,-0.1644 z m -18.24291,-0.5793 c -0.0271,-0.071 -0.0357,-0.1993 -0.0191,-0.2859 0.0265,-0.1384 0.14378,-0.1604 0.97044,-0.1821 l 0.94026,-0.025 -0.0275,0.2859 -0.0275,0.2858 -0.89362,0.025 c -0.72398,0.02 -0.90297,0 -0.94292,-0.1037 z m -40.92143,-0.7914 c -0.002,-0.1436 0.0163,-0.2129 0.0401,-0.154 0.0238,0.059 0.0253,0.1764 0.003,0.2611 -0.0221,0.085 -0.0416,0.037 -0.0433,-0.1071 z m 2.77487,0.01 c -0.004,-0.092 0.0167,-0.1431 0.0457,-0.1142 0.0289,0.029 0.032,0.104 0.007,0.1668 -0.0278,0.069 -0.0484,0.049 -0.0526,-0.053 z m 0.26108,-0.5222 c -0.004,-0.092 0.0169,-0.1431 0.0457,-0.1142 0.0289,0.029 0.032,0.104 0.007,0.1668 -0.0278,0.069 -0.0484,0.049 -0.0526,-0.053 z m -2.87198,-0.087 c -0.004,-0.092 0.0169,-0.1431 0.0457,-0.1142 0.0289,0.029 0.032,0.104 0.007,0.1668 -0.0278,0.069 -0.0484,0.049 -0.0526,-0.053 z m 59.00514,-0.69 c -0.004,-0.5532 -0.0469,-0.8389 -0.15105,-1.0152 -0.15417,-0.261 -0.44723,-0.4342 -0.73459,-0.4342 -0.0963,0 -0.15089,-0.039 -0.12131,-0.087 0.0305,-0.049 0.46335,-0.087 1.00083,-0.087 0.53749,0 0.97032,0.038 1.00086,0.087 0.0298,0.048 -0.0359,0.088 -0.14717,0.09 -0.46468,0.01 -0.67646,0.4038 -0.68574,1.2866 -0.01,0.9216 -0.15463,1.065 -0.16183,0.1601 z m -58.82098,0.074 c -0.002,-0.1436 0.0163,-0.2129 0.0401,-0.154 0.0239,0.059 0.0253,0.1764 0.003,0.2611 -0.0221,0.085 -0.0416,0.037 -0.0433,-0.1071 z m 92.88067,-0.1088 c -0.0243,-0.084 -0.15962,-0.3737 -0.30059,-0.6443 -0.22756,-0.4367 -0.23777,-0.487 -0.091,-0.4486 0.11173,0.029 0.2134,-0.03 0.31334,-0.1826 0.0814,-0.1242 0.18261,-0.2258 0.22496,-0.2258 0.0424,0 0.077,0.3721 0.077,0.8268 0,0.5099 -0.0344,0.8268 -0.0898,0.8268 -0.0494,0 -0.10966,-0.069 -0.13399,-0.1523 z m -29.10514,-0.06 c 0,-0.021 0.0392,-0.062 0.0871,-0.092 0.0479,-0.03 0.087,-0.012 0.087,0.038 0,0.051 -0.0392,0.092 -0.087,0.092 -0.0479,0 -0.0871,-0.017 -0.0871,-0.038 z m -60.73272,-0.2227 c 0,-0.1196 0.0197,-0.1686 0.0439,-0.1088 0.0241,0.06 0.0241,0.1578 0,0.2176 -0.0242,0.06 -0.0439,0.011 -0.0439,-0.1088 z m 26.93633,-0.3191 c -0.0319,-0.032 -0.058,-0.123 -0.058,-0.2024 0,-0.1934 -0.33521,-0.4959 -0.63097,-0.5693 -0.50965,-0.1265 -0.19705,-0.2146 0.76151,-0.2146 0.60922,0 1.00083,0.034 1.00083,0.087 0,0.048 -0.073,0.087 -0.16231,0.087 -0.25358,0 -0.59277,0.3161 -0.65087,0.6065 -0.0511,0.2554 -0.14011,0.3258 -0.26018,0.2057 z m 34.22717,-0.067 c 0.0572,-0.069 0.0914,-0.2354 0.0759,-0.3699 -0.0219,-0.1905 -0.0906,-0.263 -0.31089,-0.3279 -0.49421,-0.1455 -0.30782,-0.2213 0.54393,-0.2213 0.49318,0 0.82678,0.035 0.82678,0.087 0,0.048 -0.065,0.087 -0.14438,0.087 -0.0794,0 -0.33509,0.1958 -0.56821,0.4351 -0.39033,0.4007 -0.66625,0.6028 -0.42317,0.3099 z m -61.09022,-0.1591 c 0,-0.2131 -0.32197,-0.5859 -0.50602,-0.5859 -0.0568,0 -0.10317,-0.039 -0.10317,-0.087 0,-0.051 0.30458,-0.087 0.73973,-0.087 0.43515,0 0.73976,0.036 0.73976,0.087 0,0.048 -0.0514,0.087 -0.11427,0.087 -0.13784,0 -0.58198,0.448 -0.58198,0.587 0,0.054 -0.0392,0.1231 -0.087,0.1527 -0.0487,0.03 -0.087,-0.038 -0.087,-0.1538 z m 88.85695,-0.4989 c 0,-0.048 -0.0587,-0.087 -0.13054,-0.087 -0.0718,0 -0.13054,-0.039 -0.13054,-0.087 0,-0.1294 0.10496,-0.1032 0.34811,0.087 0.17634,0.1379 0.18871,0.1705 0.0653,0.1721 -0.0838,0 -0.15231,-0.037 -0.15231,-0.085 z m -1.0661,-0.3673 c 0.14078,-0.068 0.25085,-0.068 0.39163,0 0.17192,0.083 0.14803,0.094 -0.19582,0.094 -0.34386,0 -0.36775,-0.012 -0.19581,-0.094 z m -24.4335,-6.0045 c 0,-0.1011 1.28804,-3.3822 2.1451,-5.4642 0.34519,-0.8386 0.58073,-1.4142 0.83686,-2.0452 0.0972,-0.2393 0.22562,-0.5526 0.2855,-0.6962 0.0599,-0.1436 0.87999,-2.1793 1.82249,-4.5238 0.9425,-2.3445 1.75074,-4.332 1.79608,-4.4168 0.0597,-0.1115 0.18812,-0.154 0.46589,-0.154 0.21089,0 0.40617,0.037 0.43395,0.082 0.0508,0.082 -0.52372,1.6305 -0.66235,1.7851 -0.0408,0.046 -0.0741,0.1326 -0.0741,0.1936 0,0.061 -0.11748,0.3675 -0.26107,0.681 -0.14361,0.3135 -0.2611,0.6088 -0.2611,0.6561 0,0.047 -0.0397,0.154 -0.0882,0.2372 -0.0826,0.1414 -0.6101,1.4326 -3.10185,7.5921 -0.55186,1.3642 -1.05852,2.594 -1.1259,2.733 -0.0674,0.139 -0.12253,0.2811 -0.12253,0.3158 0,0.035 -0.0667,0.2146 -0.14812,0.4 -0.0815,0.1853 -0.36541,0.8657 -0.63098,1.5119 l -0.48283,1.1749 -0.41339,0.026 c -0.29828,0.019 -0.41339,-0.01 -0.41339,-0.089 z m -61.95902,-0.1445 c -0.0811,-0.1515 -0.53009,-1.3789 -1.15014,-3.144 -0.14294,-0.4068 -0.29444,-0.8181 -0.33668,-0.9138 -0.0422,-0.096 -0.13495,-0.3503 -0.20599,-0.5657 -0.071,-0.2154 -0.25233,-0.7245 -0.40286,-1.1314 -0.15052,-0.4068 -0.34605,-0.9551 -0.43449,-1.2184 -0.0885,-0.2632 -0.29597,-0.8507 -0.46116,-1.3054 -0.16516,-0.4547 -0.79606,-2.2171 -1.40198,-3.9163 -1.41945,-3.9807 -1.43509,-4.018 -1.7521,-4.171 -0.14141,-0.068 -0.66115,-0.1557 -1.155,-0.1943 -0.9842,-0.077 -1.08322,-0.1074 -1.04215,-0.3207 0.0254,-0.1316 0.38176,-0.1449 4.0952,-0.1522 l 4.06744,-0.01 0,0.1986 c 0,0.212 0.006,0.2104 -1.21842,0.339 -1.18584,0.1247 -1.16691,0.102 -0.83729,1.002 0.11386,0.3109 0.81501,2.2298 1.55808,4.264 0.74307,2.0344 1.41737,3.875 1.49848,4.0904 0.0811,0.2154 0.22578,0.6071 0.32153,0.8703 0.0958,0.2633 0.20587,0.557 0.24473,0.6528 0.0389,0.096 0.0938,0.2458 0.12212,0.3336 0.14402,0.4465 0.21968,0.2273 1.70706,-4.9462 0.0413,-0.1436 0.11291,-0.3982 0.15914,-0.5657 0.16672,-0.604 0.45711,-1.6221 0.63301,-2.2193 0.2758,-0.9362 0.28454,-1.1148 0.085,-1.7325 -0.10068,-0.3116 -0.18305,-0.6078 -0.18305,-0.6581 0,-0.05 -0.0849,-0.2721 -0.18859,-0.4928 -0.23399,-0.4978 -0.53891,-0.6412 -1.36301,-0.6412 -0.32992,0 -0.78156,-0.025 -1.00362,-0.055 -0.33909,-0.046 -0.40379,-0.085 -0.40379,-0.2439 l 0,-0.1886 4.30796,0 4.30794,0 0,0.1969 c 0,0.2192 0.0783,0.2015 -1.72617,0.3904 l -0.98642,0.1033 0.052,0.2774 c 0.0286,0.1525 0.24121,0.8616 0.47244,1.5758 0.23125,0.7141 0.5875,1.8272 0.79171,2.4734 0.2042,0.6461 0.59903,1.8798 0.87737,2.7414 0.27834,0.8616 0.71186,2.2038 0.96336,2.9828 0.25152,0.7789 0.49641,1.4032 0.54421,1.3873 0.0478,-0.016 0.60835,-1.6128 1.2456,-3.5485 0.63728,-1.9357 1.30124,-3.9503 1.47549,-4.4769 0.41654,-1.2586 0.4918,-2.2157 0.21313,-2.7109 -0.29887,-0.5311 -0.81578,-0.7893 -1.89931,-0.9487 -0.3081,-0.045 -0.36988,-0.087 -0.36988,-0.2482 l 0,-0.1937 2.9155,0 2.91547,0 0,0.1997 c 0,0.1382 -0.0604,0.2112 -0.19581,0.2369 -0.87015,0.165 -1.19595,0.2613 -1.51454,0.448 -0.42169,0.2472 -0.63118,0.5144 -0.88431,1.1282 -0.14245,0.3454 -2.22972,6.6373 -4.73487,14.2729 l -0.28554,0.8702 -0.31205,0.026 c -0.37768,0.032 -0.44495,-0.044 -0.6438,-0.7224 -0.0842,-0.2872 -0.22119,-0.7376 -0.30451,-1.0008 -0.0833,-0.2633 -0.24066,-0.7724 -0.34967,-1.1314 -0.10902,-0.359 -0.26567,-0.8681 -0.34812,-1.1314 -0.0824,-0.2632 -0.23912,-0.7724 -0.34812,-1.1314 -0.10901,-0.359 -0.26769,-0.8681 -0.35262,-1.1314 -0.0849,-0.2632 -0.24172,-0.7723 -0.34842,-1.1313 -0.10671,-0.359 -0.28548,-0.9465 -0.39725,-1.3055 -0.11179,-0.359 -0.46847,-1.5092 -0.79264,-2.556 -0.32417,-1.0468 -0.62858,-1.9084 -0.67644,-1.9146 -0.0753,-0.01 -0.50837,1.3714 -1.08792,3.4698 -0.0925,0.3351 -0.2466,0.8833 -0.34237,1.2184 -0.0958,0.3351 -0.25243,0.8833 -0.34816,1.2184 -0.0958,0.3351 -0.2524,0.8834 -0.34812,1.2184 -0.24577,0.8602 -0.51187,1.8133 -0.70462,2.5239 -0.4382,1.6152 -0.53098,1.9668 -0.70036,2.6539 -0.10024,0.4066 -0.22781,0.7682 -0.2835,0.8037 -0.2041,0.1298 -0.65846,0.072 -0.74813,-0.096 z m 21.91878,-0.063 c -0.0821,-0.099 -0.0884,-0.1772 -0.0228,-0.282 0.0702,-0.1119 0.32696,-0.1669 1.12633,-0.2413 1.17419,-0.1092 1.70194,-0.2328 1.87271,-0.4386 0.17597,-0.212 0.27186,-4.5633 0.22135,-10.0449 -0.0477,-5.1739 -0.0425,-5.1312 -0.63832,-5.2964 -0.18332,-0.051 -0.76411,-0.1148 -1.29064,-0.1421 -1.2761,-0.066 -1.34895,-0.084 -1.34895,-0.3355 0,-0.1137 0.0524,-0.2268 0.11649,-0.2514 0.0641,-0.025 0.81798,-0.01 1.67532,0.036 0.85734,0.045 3.16451,0.056 5.12701,0.026 3.73886,-0.058 4.34204,-0.024 5.67857,0.3176 2.38497,0.6099 3.7671,2.2743 3.55786,4.2842 -0.17702,1.7005 -1.77213,2.8948 -4.44379,3.3272 -0.41754,0.068 -0.28356,0.1854 0.29859,0.2625 2.16508,0.2867 3.79994,1.218 4.47431,2.5489 0.4725,0.9324 0.47908,2.138 0.0173,3.1754 -0.60607,1.3616 -2.1296,2.394 -4.24426,2.876 -1.32351,0.3017 -2.10286,0.3459 -4.67133,0.265 -2.56812,-0.081 -6.87675,-0.079 -7.20629,0 -0.111,0.028 -0.23163,-0.01 -0.29955,-0.091 z m 10.46554,-0.5172 c 1.56766,-0.3298 2.41018,-1.0499 2.838,-2.4256 0.17454,-0.5612 0.18918,-2.3369 0.0248,-3.0105 -0.31809,-1.3038 -1.05504,-2.0399 -2.44295,-2.4399 -0.54729,-0.1578 -0.95846,-0.1957 -2.5456,-0.2345 l -1.8929,-0.046 0.005,2.9486 c 0.003,1.6218 0.0348,3.3681 0.0705,3.8809 0.0731,1.0476 0.15895,1.216 0.69269,1.3581 0.52087,0.1387 2.53494,0.1196 3.24987,-0.031 z m -0.23283,-8.8308 c 1.12519,-0.2912 1.48713,-0.4772 1.94591,-0.9997 1.08619,-1.2371 0.87031,-4.1477 -0.38993,-5.257 -0.73597,-0.6478 -1.99764,-0.9407 -3.68729,-0.856 -0.9899,0.05 -1.33544,0.1411 -1.4678,0.3884 -0.0981,0.1832 -0.24193,6.5423 -0.15325,6.7734 0.0542,0.1412 0.18633,0.1486 1.73144,0.097 0.92004,-0.031 1.82944,-0.096 2.02092,-0.146 z m 38.68453,9.2446 c 0,-0.3141 0.0446,-0.3331 0.95732,-0.4086 1.01206,-0.084 1.93426,-0.2187 2.19861,-0.3219 0.14168,-0.055 0.26677,-0.1875 0.30459,-0.3221 0.0353,-0.1256 0.0642,-3.4826 0.0642,-7.4602 0,-5.9863 -0.0205,-7.2565 -0.11893,-7.3751 -0.16988,-0.2046 -0.59549,-0.2964 -1.88274,-0.4059 -1.52591,-0.1298 -1.52302,-0.129 -1.52302,-0.4147 l 2e-5,-0.2377 5.41755,0.01 c 5.81448,0.01 5.98534,0.017 7.1859,0.4747 2.69862,1.0287 4.40466,3.0337 5.12663,6.0253 0.1968,0.8154 0.21895,3.4673 0.034,4.0687 -0.44009,1.4309 -0.65418,1.898 -1.31783,2.8753 -1.0575,1.5572 -2.89646,2.9373 -4.39271,3.2966 -0.23932,0.057 -0.59179,0.1501 -0.78327,0.2058 -0.24417,0.071 -1.68623,0.1022 -4.83011,0.1042 -2.46511,0 -4.9226,0.038 -5.4611,0.081 l -0.97908,0.078 0,-0.2683 z m 10.90845,-0.5906 c 1.70395,-0.436 2.76348,-1.5465 3.23267,-3.3882 0.3057,-1.2 0.3492,-1.6835 0.34452,-3.8293 -0.005,-2.1177 -0.055,-2.7052 -0.34926,-4.0687 -0.44387,-2.0571 -1.3771,-3.4709 -2.68221,-4.0636 -0.86082,-0.3908 -1.35754,-0.4795 -2.6642,-0.4759 -0.69407,0 -1.40536,0.031 -1.58065,0.066 l -0.31874,0.062 -0.0497,0.9766 c -0.12127,2.3842 -0.15342,8.9736 -0.0574,11.7659 0.0559,1.6262 0.11705,2.9721 0.13586,2.9909 0.0189,0.019 0.33971,0.066 0.71306,0.105 0.93459,0.097 2.6299,0.025 3.276,-0.1405 z m -32.7528,0.4628 c -2e-5,-0.1316 0.01,-0.2419 0.0218,-0.2452 0.012,0 0.68752,-0.039 1.50125,-0.08 1.67879,-0.084 2.11774,-0.1895 2.29041,-0.5498 0.0932,-0.1944 0.12556,-1.4624 0.15894,-6.2226 0.0231,-3.2881 0.0102,-6.6834 -0.0288,-7.545 l -0.0708,-1.5665 -0.82863,0 c -0.76092,0 -0.87613,0.023 -1.40965,0.2861 -1.38053,0.6796 -2.17848,2.3483 -2.75549,5.7625 -0.14644,0.8664 -0.16539,0.9138 -0.36528,0.9138 l -0.21082,0 0,-3.7423 0,-3.7423 7.33043,-0.022 7.33044,-0.022 0.0478,0.1963 c 0.0262,0.108 0.0368,1.8174 0.0235,3.7986 -0.022,3.2815 -0.0374,3.6106 -0.1723,3.6957 -0.20982,0.1323 -0.24749,0.064 -0.3836,-0.7005 -0.44243,-2.4832 -0.68628,-3.3624 -1.23491,-4.4524 -0.38277,-0.7605 -0.99622,-1.4048 -1.63512,-1.7174 -0.51957,-0.2542 -1.59659,-0.4372 -2.06063,-0.3502 l -0.30622,0.057 -0.0644,1.7167 c -0.0922,2.4561 0.007,13.1255 0.12515,13.5162 0.052,0.1714 0.18265,0.3555 0.29033,0.4091 0.27844,0.1387 1.33554,0.2801 2.09321,0.2801 0.35511,0 0.82735,0.025 1.04942,0.055 0.36325,0.05 0.40378,0.078 0.4038,0.2829 l 0,0.2275 -5.56987,0 -5.56989,0 0,-0.2394 z m -33.44699,-5.0823 c -0.0326,-0.033 -0.0593,-0.2835 -0.0593,-0.5577 0,-0.3741 0.0343,-0.5115 0.13766,-0.5511 0.21016,-0.081 4.85056,-0.06 4.98006,0.022 0.0778,0.049 0.10521,0.2338 0.087,0.5861 l -0.0265,0.5141 -2.52982,0.023 c -1.39139,0.013 -2.55649,0 -2.58911,-0.036 z"
       id="path7602"
       inkscape:connector-curvature="0" />
  </g>
</svg>
