<?xml version="1.0" encoding="UTF-8" standalone="no"?>
<svg
   xmlns:dc="http://purl.org/dc/elements/1.1/"
   xmlns:cc="http://creativecommons.org/ns#"
   xmlns:rdf="http://www.w3.org/1999/02/22-rdf-syntax-ns#"
   xmlns:svg="http://www.w3.org/2000/svg"
   xmlns="http://www.w3.org/2000/svg"
   xmlns:sodipodi="http://sodipodi.sourceforge.net/DTD/sodipodi-0.dtd"
   xmlns:inkscape="http://www.inkscape.org/namespaces/inkscape"
   width="600"
   height="1078"
   id="svg2982"
   version="1.1"
   inkscape:version="0.48.4 r9939"
   sodipodi:docname="animalia-girafe-sharp.svg">
  <metadata
     id="metadata2990">
    <rdf:RDF>
      <cc:Work
         rdf:about="">
        <dc:format>image/svg+xml</dc:format>
        <dc:type
           rdf:resource="http://purl.org/dc/dcmitype/StillImage" />
      </cc:Work>
    </rdf:RDF>
  </metadata>
  <defs
     id="defs2988" />
  <sodipodi:namedview
     pagecolor="#ffffff"
     bordercolor="#666666"
     borderopacity="1"
     objecttolerance="10"
     gridtolerance="10"
     guidetolerance="10"
     inkscape:pageopacity="0"
     inkscape:pageshadow="2"
     inkscape:window-width="1440"
     inkscape:window-height="858"
     id="namedview2986"
     showgrid="false"
     showborder="false"
     inkscape:zoom="0.65591663"
     inkscape:cx="65.214063"
     inkscape:cy="539"
     inkscape:window-x="0"
     inkscape:window-y="19"
     inkscape:window-maximized="1"
     inkscape:current-layer="svg2982" />
  <path
     style="stroke:#070707;fill:none;stroke-width:4;stroke-miterlimit:4;stroke-dasharray:none;stroke-linejoin:round;stroke-linecap:round"
     d="M482 14L477 7L478 6C483.253 8.07593 484.679 17.3866 489 13L487 11M491 51C496.901 45.7546 483.402 37.397 480 34L475 39L477.138 22L471.919 11.1089L477 7M489 14C498.367 18.8042 495.861 31.3925 501.853 38.6829C505.09 42.6206 511.701 40.0449 516 42C513.789 45.3951 513.789 46.6049 516 50L521 44L516 42M486 17L480 34M486 23C488.802 28.3618 486.663 31.6456 483 36M425 38C417.084 31.3442 424.396 29.0658 431 27M414 29L420 31M467 53C451.197 52.9564 443.499 39.4476 429 35C435.551 27.2397 438.844 31.9523 447 34M493 29L496 36M493 32L488 36M498 32L496 34M428 35L429 35M449 36L450 36M474 38C472.453 41.9937 473.804 43.5874 478 44L478 39M441 39C440.097 42.2427 440.793 43.0117 444 44M452 39L454 41M501 39L496 41M458 43L472 40M484 40L483 52M402 45L406 42C417.324 56.1104 435.322 57.9255 450 66L458 63L463 91M411 44C426.167 44.3127 431.332 49.0066 443 58M478 44L480 46M522 44C526.777 49.3367 532.038 50.7145 537.54 54.75C540.515 56.9322 541.136 60.5266 543.579 63.0502C550.986 70.6996 558.671 78.6172 559 90C547.395 90.9048 561.52 99.6292 559 90M475 45L478 53M520 48C521.04 51.0366 522.298 51.9403 525 50M500 49L500 63L502 54M516 51L520 51M494 52L498 57M510 53L513 54M534 53C531.125 55.7836 529.657 57.0831 531 61L532 55M525 54L529 57M539 57L541 68M480 58L481 58M486 58L488 58M449 59L452 62M534 59L537 59M474 81C471.647 78.8687 470.165 77.0532 469.146 73.9962C468.238 71.2728 462.882 59.678 469.93 60.4653C472.561 60.7593 473.631 63.7529 476.129 64.3163C483.128 65.8951 489.238 60.5851 491 72M458 63L466 61M510 61L509 66L501 62M513 68L522 62C521.849 70.3756 514.598 69.2281 509 66M523 63C529.087 64.632 533.96 69.2609 539 64L539 64M542 63L540 65M500 64C503.539 69.8951 507.614 75.1498 514 78M449 66L425.736 119L421 130L425 124M477 66C478.85 75.9275 477.36 94.687 483.653 102.802C486.091 105.946 491.464 105.134 495 106.033C506.657 108.998 518.373 109.717 530 112.471C537.117 114.157 545.63 114.731 552 118.44C553.982 119.593 557.11 122.151 559.092 119.512C563.238 113.991 542.649 106.695 539 105M522 68L528 71M536 68C540.417 72.0349 542.589 72.3351 548 70M484 69L484 71M535 69C530.39 77.5806 543.664 92.8322 552 95M454 74L458 78M544 74C543.859 81.3304 546.992 83.5998 554 85L557 82M485 75L484 77M517 76L518 76M521 76L524 76M545 76L554 76M550 79L550 83M505 81L506 82M454 83L452.206 97.9606L456 114M512 83L522 85M529 83L535 85M489 84L489 86M553 86L553 89M540 87L537 90M471 89L481 103M500 89L495 90M510 92L511 94M561 94C565.505 98.7073 576.926 107.33 574 114L581 115L577 111M458 97L459 97M469 98L469 114M493 98L494 98M484 99L489 103M503 100L504 102M566 100L561 103M443 101L438 115C436.238 111.036 436.976 109.035 440 106M452 101L449 111M510 102L520 103M528 102L528 104M552 103L557 113M481 104C469.277 123.203 466 147.007 466 169M562 105C566.229 109.103 569.414 112.511 575 109M572 112L574 114M438 115L438 118M462 116L463 116M581 116C584.868 120.055 588.473 124.559 590.227 129.995C591.012 132.43 590.561 136.237 587.02 134.824C579.001 131.625 575.831 121.474 566 119M447 117L452 129C441.78 127.021 445.139 131.581 447 139M451 117L451 118M562 121L563 126C567.434 125.004 568.872 126.58 569 131L583 133M461 127L460 133L453 133M563 127L568 132M571 127L573 129M421 130L414.601 152L418.662 172L410 195M433 133C433.119 136.576 433.27 138.32 437 139L438 139M460 133L460 137M433 139C430.389 142.014 424.062 159.364 432.999 159.364C441.775 159.364 433.19 143.264 431 141M442 139L444 146M422 152L422 153M414 154C411.063 158.473 410.347 163.216 417 163M452.599 158.086C457.909 154.504 459.949 170.051 457.397 172.248C453.637 175.487 448.407 160.915 452.599 158.086M431 160L429 169C433.711 170.7 436.865 168.371 441 166M410 163C408.303 170.046 402.386 185.529 405 192L408 193M454 167L456 167M442 174L442 175M464 176L461 192M435 177C434.277 190.752 433.771 207.644 427 220M429 181L429 184L433 184M428 185L433 197M428 211C421.798 204.59 421.406 197.335 427 190M451 192L448 203L456 199C459.57 205.475 457.77 209.73 453 215C448.728 211.143 446.082 208.589 449 203M403 193C400.925 198.309 399.432 201.015 403 206C405.896 201.787 405.2 199.835 402 196M415 195L415 202M431 206C427.832 202.397 425.415 199.108 431 197L431 197M459 197L457 199M411 198L414 198M424 198L426 200M451 198L451 200M448 204L447 220M403 207C395.115 217.91 393.279 231.643 396 244M414 208L415 208M451 208L456 208M410 210L412 210M439 210L437 215M459 212L460.683 230.015L461 252M422 215L424 217M400 216L405 222M415 216C411.651 224.859 408.018 229.311 410 239M453 216L457 218M434 221L435 221M415 223C415.692 226.228 417.101 226.02 420 225L420 249M426 225L428 225M415 226C413.205 231.262 416.738 232.36 421 230M396 227L400 231M411 228L413 228M392 232C388.298 238.901 387.092 245.639 394 250M439 232L442 232M452 232L454 234M417 233L417 237M404 240C404.585 247.513 412.677 247.29 418 244M412 244L417 240M440.09 240.89C444.225 239.644 444.27 246.49 440.78 246.963C437.009 247.474 436.79 241.885 440.09 240.89M428 241L429 245M453 243C451.061 249.46 452.849 257.457 444 257M425 245L426 248M449 246L451 246M388 247C382.077 253.419 376.637 268.416 374.408 277C373.502 280.489 374.482 284.448 372.85 287.74C364.926 303.733 347.624 315.775 342 332C345.4 332.309 350.091 328.626 345 328M436 248C436 251.96 432.817 263.595 435.043 266.377C437.356 269.268 447.372 263.495 450 262L447 273M388 250L385 256M410 254L417 252M459 254L459 256M427 255L427 261M391 265L395 269L390 280C388.41 274.515 392.038 252.179 400 261M450 258L456 259M416 282C415.621 273.755 414.517 267.947 410 261C429.413 260.149 416.003 287.077 410 294C401.117 288.539 401.814 300.118 406 305C402.604 308.806 401.693 306.803 398 305M405 263L410 261M450 261L450 262M445 262L445 263M414 263L414 264M460 263L459 280L461 279M413 265C409.743 267.943 407.395 271.578 413 273M427 265L427 269M447 265L449 269M401 266L408 269M452 266L454 266M395 269C397.609 272.043 398.651 273.291 397 277L395 275M416 271L419 271M390 272L392 272M401 274C405.272 278.642 408.246 284.48 415 285M432 275L434 283M383 276L383 278M397 277C399.169 281.339 402.226 282.978 407 282M417 277L419 277M427 277L427 284M393 279L397 279M409 281L415 279M390 280L385 286L392 288M454 280L455 286M439 281L441 281M447 281L447 287M459 282L452 328M369 289L373 283M403 283C401.515 286.806 398.908 290.303 403 293M408 285L407 291M385 286L383 291M429 287L430 290M453 290L451 291M421 291L422 291M451 295L451 296M390 296L390 298M420 296L422 298M399 298L401 298M444 298L446 308C444.439 308.291 442.744 308.302 442.056 310.111C441.13 312.545 443.752 314.491 443.194 317C442.25 321.252 434.552 333.404 442 335M374 302C379.616 298.378 383.007 302.407 380 308L374 302L370 308L378 314L380 308M435 306C429.605 303.248 431.077 298.565 437 301M413 301L418 304M393 302L393 303M403 302L400 305M444 302L442 307M408 304L407 305M429 304C430.595 309.029 434.358 310.79 431 316C432.828 319.567 432.373 320.802 430 324C427.98 321.325 424.587 312.682 431 316L431 316M428 308L428 313M415 309L419 313M447 309L443 314M369 310C369.811 315.092 373.012 317.047 378 316L378 314M394 310L395 311M409 311C412.748 318.189 409.273 324.595 408 332L389 325L391 320L392 325M410 319C405.335 319.135 404.336 321.241 402 325L396 319L408 313M369 314C364.894 317.895 359.141 322.575 364 328L363 323M355 316L361 322M371 316L366 324M393 316L393 319L396 319M366 318L370 321M376 318C374.684 321.633 373.597 322.673 370 321L370 321M358 319L356 323M417 321L417 323M347 323L347 327M426 323C425.079 327.554 423.522 333.275 428 336M373 324L363 337M446 324L446 325M361 325C358.868 328.267 358.419 329.953 362 332L363 328M402 325L400 330M430 325L427 328M388 326C387.855 330.818 390.276 337.576 389.276 341.982C388.481 345.486 384.567 346.456 382.819 349.259C379.488 354.602 382.566 359.951 386 364L392 358L384 360M417 327L417 328M375 344C379.677 339.31 383.557 335.845 384 329L385 328L386 328L387 328M428 328L437 330M336 335C337.719 331.824 338.746 331.51 342 333L316 354.121L289 367L297 373M395 330C390.336 338.817 403.697 339.963 408 346M449 331L449 335M389 332L391 332M363 333L363 334M385 333L388 333M409 333C409.61 337.775 409.877 340.741 406 344M422 334L424 334M373 335L373 337M438 336C437.773 341.306 440.239 347.303 439.652 352C439.055 356.779 435.957 361.472 434.441 366C428.468 383.834 419.572 401.578 410.346 418C407.932 422.295 405.49 429.222 401.61 432.333C398.758 434.62 396.133 432.507 393.127 433.493C387.896 435.21 391.188 442.996 393 446L399 435M348 341C351.672 340.717 352.337 342.517 352 346L348 341L346 350L337 350L342 358L347 351M395 339L391 341M446 339L444 343M380 340L382 342M339 348L347 342M368 350C366.044 346.87 364.813 345.159 367 342L368 342M361 349L364 344M406 344L392 358M420 344L420 347M395 353C395.05 348.763 395.929 343.33 401 347M352 346L348 351M331 348L332 348M323 349L328 351M332 358C333.538 363.191 330.17 366.396 325 365L336 352M388 352L384 353M419 352L420 352M432 352L432 354M354 354L353 356M319 355L319 359M385 355L387 357M359 377L369 383C366.46 385.488 362.176 391.003 358.209 390.833C348.78 390.429 336.644 370.618 353 374L354 373C348.793 365.115 364.538 348.736 369 363L362 365C362.062 368.794 361.019 373.402 366 372L366 371L365 370L364 369M323 357L325 357M342 358L334 361M363 359L363 364M365 359L367 359M404 360L405 360M417 364L413 366L414 360C421.263 366.072 422.495 377.181 411 379M314 362L316 364M400 362L403 364M428 362L427 366M338 363C333.555 367.092 327.128 371.538 321 372M370 364C370.637 367.861 369.877 369.385 367 372M386 364L385 378L378 376M304 365C305.897 367.358 310.319 371.227 308.008 374.583C306.535 376.723 299.989 375.799 301.346 379.816C303.266 385.5 310.813 382.597 310 377M275 413L267 405C254.126 413.17 245.236 403.66 252.628 391.015C257.941 381.925 269.421 378.625 277.91 373.486C281.827 371.115 284.42 368.091 289 367M303 374L301 367L303 367M343 367L345 367M393 368L393 369M413 368L413 370M298 369L299 369M398 369L395 372M407 369C405.55 374.018 400.769 378.963 402.002 384.766C402.961 389.28 410.099 387.463 412 385M350 371L350 372M370 371C371.642 375.161 371.132 378.11 369 382M378 371L381 371M310 372C315.214 372.846 316.772 376.073 313 380M337 372L333 375M370 373L371 374M363 374L363 376M383 374L380 377M422 374C421.364 377.92 420.04 379.612 416 379M390 376L393 375M289 376C283.858 380.309 282.512 383.622 287 389L285 381M401 376L393 385L401 391M343 384C337.597 383.099 338.405 379.692 343 378M323 381L330 381M352 381L356 379M405 380L408 379M295 382C295.638 388.094 299.182 387.647 303 384M364 382L366 385M398 382L401 385M418 382L410 396L403 389M376 383C392.799 395.914 363.844 400.887 367 412L379 406C380.719 413.549 372.956 416.216 369.898 422.039C368.372 424.946 368.73 428.059 367 431C376.265 436.056 385.518 419.571 380 412M289 388L294 384M308 384L301 389C303.951 392.919 307.068 395.561 312 394M355 387L361 384M303 385L305 387M342 401L324 388C318.966 394.618 311.513 391.826 317 385M398 391L392 400C388.584 395.832 386.454 387.174 393 385M280 386L285 389M261 396C256.847 392.996 262.066 388.224 265.996 387.742C269.198 387.35 271.154 389.849 273 392M412 387L414 389M290 388C292.886 391.14 296.761 396.086 300 391M408 388L405 391M287 389C288.124 392.76 289.397 393.637 293 392L293 392M293 390L296 388M375 400L375 389M253 390L258 394M327 390C325.758 394.306 321.116 395.987 320.006 400.049C318.27 406.407 334.09 405.099 326 394M341 391L343 392M348 392L354 398M390 392L395 394M405 393C402.121 397.871 398.316 414.043 393 400M320 394L322 396M217 426C219.782 424.792 230.158 424.693 225.263 430.423C222.147 434.07 213.386 427.202 214.598 423.135C215.703 419.427 220.974 417.648 223.999 415.961C228.583 413.404 235.684 409.323 239.381 405.763C243.221 402.066 244.693 397.847 250 396M310 396L307 399M330 396L332 396M394 401L402 396M257 397L259 406M336 397L332 413L324 406M342 399C349.358 396.932 348.469 414.137 340.998 415.327C338.338 415.751 335.367 413.999 333 413M410 397L405 402M281 398L285 399M300 399L302 399M317 400L319 400M361 400L361 402M256 401L253 406M263 401L267 404M267 403C272.833 401.208 275.757 403.565 272 409M349 401L349 411M331 402L332 402M379 402L379 406M292 410C286.119 405.824 281.726 412.001 286.279 413.655C290.341 415.131 295.45 406.183 298 404L305 413L306 413L307 413L308 413M311 404C311.888 408.031 312.625 410.519 317 411M328 404L327 409M385 405L387 407M330 406L333 406M339 407L341 412L336 414M347 407L350 407M300 409L295 411M237 410L231 413M255 410C256.104 415.545 259.359 421.566 265.17 423.613C267.93 424.585 270.312 422.815 273 424L274 425L275 426L276 426M339 410L339 411M376 410L378 412M321 411L322 411M405 411L406 411M315 412L315 415M341 412L343 414M368 412L360 423L368 423M368 412L370 419M246 413L255 418M266 413L268 415M285 414L278 421M304 414L306 438L312 440L312 441L308 443C308.871 445.509 310.322 448.249 309.427 450.946C308.796 452.849 304.116 456.191 306.086 458.342C309.081 461.611 314.077 453.44 317.541 454.256C327.057 456.497 326.888 472.052 339 472M309 415L309 416M349 421L354 415M248 416L240 421C241.918 422.407 244.735 423.367 246.429 424.97C251.292 429.571 236.201 433.412 241 423M290 416L293 418L297 416M364 416L370 419M404 416L405 416M283 417L285 421L288 421M327 417L330 422M395 417L395 419M255 418L251 421M294 418L295 425M334 418L334 419M341 418C341.071 422.615 337.864 424.065 334 426M377 418L381 419M390 419L391 422M312 420C316.014 426.191 323.669 420.844 324 431C335.66 432.483 335.072 440.618 328 449C333.237 454.389 338.362 459.262 339 467M351 420L354 426M228 421L232 426L240 421M285 421L282 424L280 421M342 422L346 426M214 427L210 430L213 424M255 424L258 426M264 424L265 433M359 424L359 428L363 424M282 425L294 442L301 434L292 433M336 425L344 432M237 426L238 426M255 426L249 428M278 428L281 426M300 426L305 426M371 428L376 427M388 427L388 428M287 443L280 449L276.679 438.313L269 430L272 428M286 428L292 433M314 428L328 449M355 428L358 429M204 446C201.781 443.929 197.75 443.315 196.184 440.763C191.953 433.872 203.013 429.772 208 430M349 432L351 429M358 429L357 434L367 431M211 430C215.132 433.964 217.698 436.076 223 433M218 430L216 434M227 430C231.15 431.609 233.498 434.971 237.285 436.961C244.68 440.848 252.725 435.633 258 431M207 431C208.802 434.537 210.257 435.44 214 434M241 431L236 435M318 431L323 432M232 432C216.944 448.2 251.456 438.288 244 453M322 432L320 437M302 434L305 433M373 434L373 450M193 447L181 443C185.327 438.713 188.71 435.344 195 435M358 435L361 443L366 438M271 436C268.247 439.713 263.744 443.303 265 448L267 443M336 436L346 436M352 436L341 445C340.277 449.667 337.985 451.676 334 454M380 436L381 436M203 437L205 437M393 446C392.377 448.304 391.358 450.04 390.285 452.171C381.023 470.565 381.885 443.377 389 437M261 438L263 438M306 438L298 442M326 438L331 440M186 439L194 441M300 439L300 440M305 439L307 442M346 439L346 440M216 460L217 456C227.319 454.604 221.401 449.362 217 445L226 440M322 440L325 440M354 441L354 445M377 441L378 441M173 451L177 451L169 452C166.41 444.61 173.969 442.829 180 442M188 443L190 447M229 443L232 448L233 443M256 443L257 447L263 445M294 443L298 448M386 443L390 443M268 444L274 445M334 448L340 444M172 445L175 448M217 456C213.512 452.084 209.374 446.244 217 445L217 445M233 446L237 451L242 446M365 446L365 447M168 451C161.341 456.83 155.539 463.389 150 454L167 447M224 448L228 447M312 448L314 447M337 447L340 450M231 448C231.693 452.142 233.27 452.767 237 451M257 448L261 456M265 448C267.597 455.487 275.309 451.531 277.94 456.4C280.2 460.583 270.044 464.258 275.336 468.339C281.565 473.142 281.749 462.44 279 459M281 448L289 460M280 449L278 454M358 449L356 457C361.518 456.343 368.648 453.064 372 459M287 453L291 450M346 450L355 452M195 456C205.86 446.758 208.005 464.064 195 456M177 452C180.418 456.527 179.569 458.823 176 463L175 453M246 452L261 464L260 473C263.774 470.406 269.949 470.553 268.624 477.001C267.603 481.97 262.376 487.849 258 490C257.903 484.243 256.524 477.177 261 473M298 462C305.674 463.243 303.72 468.387 298 471C296.373 465.456 295.518 448.825 305 455M225 455L230 453M129 465C125.362 464.598 124.082 461.506 128.099 459.742C134.363 456.991 143.204 456.265 150 454M248 454L241 461M164 455L170 458M182 456L184 455M269 456L265 458M192 458L195 456M314 456L319 456M160 457L164 457M238 457L238 458M270 457L274 463M343 457C347.323 459.041 351.565 464.812 356.053 465.704C362.503 466.987 362.555 460.72 360 457M280 458L286 459L287 458M311 458L317 458M355 458L353 460M153 460C146.245 469.228 140.569 486.379 131 470M301 462L304 460M381 460L382 467L385 461M157 461L162 472M230 461L232 461M284 461L284 462M119 470C121.559 474.171 120.567 476.351 116 478C116.329 471.963 118.116 464.412 124 462M363 462C365.916 464.695 375.446 477.948 365 473L368 468M143 475C140.554 470.96 136.805 465.976 142 463M162 466L175 463M283 463L293 468M170 464L165 466M107 469C103.806 475.575 99.7679 475.763 94 472C100.108 467.996 110.709 465.232 118 465M125 465L123 472M132 465L138 465M141 469L147 467L147 467M186 472L182 471C190.37 454.73 205.758 481.496 189 485C189.82 479.375 189.696 476.564 186 472L190 467M211 465C211.713 468.318 203.611 480.986 214 474L222 475C220.164 469.469 219.032 468.072 213 468M223 467L229 466L227 470L221 469M248 465C250.15 468.319 253.242 468.203 257 468M265 465L267 465M290 465L290 471M323 482L325 476L321 480C323.296 484.054 321.995 485.649 319 489C316.964 485.226 317.643 483.507 320 480C315.921 476.195 307.844 470.844 309 465L312 465M391 465C392.56 475.562 404.01 488.132 396 497L393 488M241 466C240.839 470.092 240.251 479.981 247.039 479.389C250.825 479.059 252.82 476.539 257 477M318 466L325 476M354 466C353.19 473.11 359.53 471.862 365 473M305 467L307 467M359 467L359 471M382 467L381 474M111 468L116 473M120 468L122 468M138 468L135 473M143 468L146 471M165 480C160.668 478.884 151.982 476.597 151 472L154 470M147 471C148.994 475.089 147.597 477.836 143 476M298 472L282 478M311 471L307 475C309.889 478.251 311.61 479.489 316 479M95 473L89 479C88.6117 474.919 90.1035 473.157 94 472M182 472C179.687 473.637 174.375 475.295 173.498 478.169C171.239 485.576 183.327 490.481 188 486M298 472L307 475M320 472L323 472M261 473L267 472M222 475C233.092 478.733 215.115 482.617 212 483L212 478M248 475L251 477M271 475L278 483M294 475C300.424 482.686 306.556 485.39 316 486M102 476L115 479M207 476C204.732 480.367 206.412 482.676 211 484M177 477L182 482M202 477L203 479M217 477L217 482M222 477L224 480M127 480L134 477M350 501C347.014 501.962 343.032 505.987 340.04 505.674C337.153 505.371 335.671 502.156 334.309 499.998C328.978 491.559 334.926 486.116 339 478L343 482C352.426 478.214 348.886 491.84 343 483M87 479C82.1305 484.274 71.6798 483.924 72 493C75.1311 491.387 75.9086 490.415 75 487M91 479L98 482M104 479L104 484M191 479L194 479M283 480L286 480M297 480L297 489M372 482L378 482M86 482C94.0768 491.693 84.6807 505.701 76 512L82 511M93 482L90 485M199 482L199 484M236 487C240.015 481.671 247.399 494.803 250 498L253 495L250 494L253 482L254 482L255 483L256 484M259 482L264 483M300 482L297 485M151 483C149.726 486.537 151.201 489.6 150.269 492.957C148.712 498.556 142.235 498.247 145 505M285 483L294 484M126 484C124.125 486.387 120.956 487.972 119.398 490.495C116.258 495.58 118.512 502.748 110 499C108.36 502.303 106.335 517.753 113.023 516.404C119.96 515.004 124.923 507.257 132 505M168 484C172.634 492.164 177.582 499.588 185.285 505.361C191.684 510.157 194.827 503.601 192 498L199 490M159 485C164.076 489.272 167.216 500.575 175 497M212 485C213.244 487.936 213.423 494.218 216.279 495.914C219.695 497.944 223.482 492.912 227.001 492.893C234.126 492.855 246.682 506.393 244 513C241.912 510.058 241.516 509.269 243 506M305 485L301 487M113 486L119 489M152 486L150 489M356 496C353.853 491.888 354.327 489.732 357 486L360 494C355.77 495.409 356.087 498.115 359 501M398 486L394 491M201 487L202 487M275 487C276.456 489.682 279.807 492.681 279.168 495.996C278.015 501.982 262.105 512.414 257 516L263 524C268.144 514.986 270.581 513.956 279 522L280 516M130 489L136 490L124 499M180 488L180 490M347 488L348 493M88 496C84.8124 492.822 84.2247 490.454 89 489M118 492C115.281 492.839 105.098 493.412 111 489M253 489L258 490M275 489C269.719 496.466 258 505.026 257 514M319 489L323 495M337 489L341 490M279 490C284.928 490.447 287.883 493.608 290 499M370 490L372.598 499.985L383 512M95 502L100 507C95.7927 508.987 92.4566 506.785 95.1265 502.014C97.6092 497.577 102.443 492.208 107 490M71 492L51 513L45.5285 524.018L45 544M147 492L152 493M152 493L165 494M303 492C304.869 494.903 305.441 496.837 309 496M373 492C376.911 492.652 377.7 494.136 378 498L372 497M256 493L254 495M401 493L405 497M109 494L103 498C104.926 502.451 105.116 505.479 100 507M182 495L187 494M224 494C226.764 498.777 224.043 499.839 220 497L220 497M261 494L264 494M360 494L366.89 507.911L354 525L348 510L342 515L339 507M198 495C203.388 496.528 204.783 499.842 203 505L196 504L199 513M297 495C297.319 505.624 304.762 512.103 315 505L316 506C314.605 510.037 312.548 518.645 320.001 518.098C322.273 517.931 325.913 514.227 327.953 516.662C330.527 519.734 325.263 525.781 326.378 529.721C327.286 532.93 335.261 536.769 338 539C339.906 529.642 335.71 525.242 327 527M101 496L103 498M337 496L335 499M216 497C217.092 503.762 223.159 503.544 228 507M298 497L304 498M343 497L344 497M184 503L192 498M302 498L299 501M155 499C156 503.665 160.417 501.096 164 502.694C171.147 505.884 176.601 513.434 184 505M227 499C230.702 501.329 232.348 501.432 236 499M250 499L258 507M260 499L264 500M294 499L296 499M306 499L307 506M379 499L379 504M172 500L169 505M308 502C311.982 500.804 316.087 499.605 316 505M118 501L121 504M224 501L224 503M218 502C211.082 510.571 220.744 513.946 221 505M76 513C73.6692 516.134 63.0495 521.406 65.5108 512.984C66.7361 508.791 71.6174 505.383 75 503M114 503L115 507L119 504M154 503C157.501 509.36 161.138 508.29 165 503M285 503L285 517L281 510C276.325 512.794 270.831 511.859 267 508M336 503L331 507M194 504L196 504M292 504L292 506M348 510L354 504M177 505L177 507M202 505L199 508M266 505L266 506M366 505C360.679 508.33 357.228 508.993 357 516M397 505L396 507M53 511L57 506M74 506L76 511M209 506L213 509M253 506L253 508M325 506L326 506M343 506L345 509M406 506C413.354 517.59 406.86 529.876 400 541M128 507L135 519C141.388 517.146 141.17 511.091 134 513M241 510L235 515L235 507L240 509M299 507L299 513L304 508M378 507L376 510M94 508C90.3404 510.789 87.5559 512.135 83 511M158 508L152 511C152.093 517.986 150.054 523.907 142 522M162 508C165.741 511.336 171.251 521.4 160.999 520.748C158.276 520.576 155.462 518.087 153 517M170 508L167 511M283 508L281 510M312 508L314 510M148 509L152 511M181 509L192 523L186 526L190 529L193 524M193 509L198 512M363 509L365 511M405 509L405 510M99 510L99 511M124 510L128 510M172 510L176 516M164 511L157 514M213 511C211.567 513.946 208.716 517.454 209.376 520.927C210.606 527.398 222.768 523.578 226 521M222 511C235.992 519.22 227.312 523.965 224.845 536C224.045 539.899 225.965 542.189 224 546L214.606 544.918L209 531M316 511L319 512M126 512C125.172 517.844 126.253 529.931 130.563 534.416C134.326 538.332 139.327 540.478 143 545M172 512L170 514M194 512L192 514M270 512L270 514M52 546L46 553C33.5768 540.018 33.8337 521.937 51 513M102 514C99.6021 523.729 97.3003 532.805 110 533M118 514L123 516M234 514L231 516M87 515C88.5806 520.253 94.7413 531.594 83 525L82 536L87 538L84 534M250 515L249 518M342 515C342.769 519.923 345.122 521.631 350 522M117 516L121 516M141 516C144.046 517.721 144.276 518.784 143 522M157 520L160 516L164 520M185 516L173 526L172 520M238 516L239 518M46 517L48 519M57 517L59 517M285 517L280 521M91 521L94 518L99 521M111 518L120 527L106 529M119 518L116 521M221 518L219 523M275 518L271 523L278 522M387 518L388 519M55 543C59.3571 541.82 63.4938 541.485 66.6829 537.814C73.7602 529.667 72.4733 520.692 86 519M135 519L133 524M267 526C271.414 529.116 263.171 533.693 261 537C255.514 529.447 254.332 523.512 264 519M352 519L356 519M84 520L83 524M157 520C152.997 528.243 162.907 526.343 166 531L173 526M305 520L303 524M374 520L381 523C379.008 525.973 378.262 526.551 375 525L375 532L377 532L378 528M151 521L153 523M266 521L271 522M201 522L193 524M245 522L247 524M287 524C294.304 522.075 297.374 537.621 302.755 541.431C309.415 546.147 315.785 537.291 322.953 539.898C326.831 541.309 327.965 545.8 330 549L328 544M297 522L297 523M225 523L228 526M375 523L375 525M53 535C54.9412 519.172 66.8557 530.198 53 535M115 524L113 527M181 524L186 526M273 524L270 527M326 532C321.282 532.32 319.236 528.863 317 525L324 525M198 525C197.139 530.463 193.304 532.126 189 535C193.942 540.629 200.692 539.199 199 531M314 526L313 531C307.129 527.566 312.916 525.378 317 525M43 526L43 527M142 526C144.465 530.093 144.173 537.247 150 536M262 527L261 528M398 527L390 532M73 529L74 531L79 529M119 528L127 531M130 529L136 529M365 528C363.3 532.453 364.188 537.775 361.697 541.927C357.501 548.92 348.328 547.867 358 557L359 566M160 529C161.201 532.834 162.657 532.955 166 531M214 529L212 533M234 570L236.267 561L234.319 550.143L239.238 543.857L238 529M281 529L292.032 544.832L298.08 550.13L294 554L294 548M287 532L291 529M314 529L319 529M169 530C172.021 531.958 186.365 533.354 183.744 539.675C182.588 542.463 178.637 543.37 177 546L178 547L179 548L180 548M219 543C217.873 536.661 218.708 530.556 226 530M277 530C279.821 534.4 280.003 540.375 286 541M396 530C395.1 538.976 389.654 545.717 385.143 553.089C382.311 557.718 381.406 563.339 378.531 568C374.188 575.041 367.837 580.848 363.866 588.005C360.359 594.324 359.167 609.235 349 606L351 618L363 610M66 531L69 531M75 531L78 534L81 531M150 531L159 533M243 531L246 541C249.582 541.568 250.943 542.508 252 546L242 543M36 540C33.4737 536.908 32.1163 535.146 35 532M62 532L59 542M99 532C96.1063 537.363 93.029 542.221 87 538L87 538M138 532L143 534M269 532C269.756 537.115 266.513 538.189 262 537M334 532L337 532M91 533L91 535M164 533L166 535M347 533L362 542M79 534L81 536M98 534L101 538M155 534L158 542L161 537C165.981 543.204 165.851 561.793 178.985 556.718C182.38 555.406 184.672 552.393 188 551M159 534L163 534M324 534L324 539M77 535L76 544C78.2736 541.567 78.4243 540.996 77 538M244 535L238 540M272 535L279 536M32 536C29.521 540.495 30.6487 544.317 29.4159 549C24.6488 567.109 20.85 587.377 27 606L36 601C38.956 611.413 40.0987 621.833 29 625C32.3509 634.52 33.1366 640.557 40 648M47 538C49.6597 536.878 50.3335 536.606 52 539L52 539M119 536L121 537M220 536L222 536M352 536C348.108 540.663 348.47 543.2 352 548M291 541L296 537M85 538C79.8795 545.404 81.0772 550.436 90 552L91 543M269 538L278 559L282 554L289 560L292 556L287 553M66 539C69.4186 544.096 66.1357 552.153 74 553M119 563C114.251 559.985 106.158 563.404 102.581 558.693C99.3505 554.438 105.673 540.147 111.039 539.462C114.491 539.021 118.082 543.548 119.946 545.934C121.312 547.684 122.708 549.689 122.713 552C122.721 555.388 120.076 559.74 119 563M147 539L155 558C160.213 553.232 157.052 548.291 158 542M169 539L170 539M214 539L217 539M176 540L178 543M194 540C195.772 542.682 197.228 542.682 199 540M269 540L272 544M322 540L321 548L316 542M80 541L82 541M159 541L164 543M185 541L188 544M246 541L244 543M282 541L281 554M377 542C374.034 546.104 370.204 554.638 378 555M60 543L58 552L66 546M83 543L89 544M120 547C116.443 548.412 110.744 547.779 114 543M170 543L172 546M283 543C283.83 545.911 283.632 546.464 281 548M199 544C196.233 549.466 189.428 557.954 183 555M60 545L62 547M135 545L135 546M322 549L327 545M360 545C362.61 549.368 361.409 552.713 359 557M92 546L93 546M204 546L206 547M252 546L258 546M263 546L265 548M398 546C395.211 558.336 375.766 575.568 382 587M290 547L291 547M131 548L133 550M144 550L149 548M240 548L241 548M336 548C342.893 553.34 348.001 566.278 348.003 575C348.005 583.929 344.218 592.415 350 600L351 593M160 552L164 549M257 549L253 554L257 556L258 552M41 550L32.8279 561.159L35 579M175 550L179 556M324 550L329 549M104 552C110.766 551.249 111.956 555.552 109 561M276 551L279 551M58 552L60 560L62 555M238 559L247 552L253 555M112 554L120 558M307 553C308.155 557.131 310.109 558.408 314 560M372 553C369.005 558.9 366.954 573.703 371 579M44 560L48 562L56 554M72 554C71.1464 559.245 65.7023 560.159 64.6127 565.043C61.9639 576.915 69.0215 588.979 60 600L68 600L65 595M167 554C162.747 555.638 158.818 556.433 163 561L165 556M204 573C193.583 567.982 200.463 559.111 207 554L211 560C214.864 559.653 221.511 565.058 220 558L217 559M294 554L292 556M257 556C258.22 560.355 243.109 560.982 238 561M376 556L373 561M62 557L66 561M115 560L119 557M144 559C139.19 567.428 138.875 570.28 136 560C142.146 556.852 147.205 560.072 150 566M155 558L157 562L160 559M223 558L222 559M308 558L302 561M361 558L359 564M72 559C74.7699 561.012 81.6067 559.828 82.9591 561.661C86.3811 566.298 79.3874 572.466 87 577L94 571L94 568M136 566L135 559M278 559L274.801 589L277 617C270.993 614.171 266.866 605.056 274 601M328 559L326 572L329 567M37 560L38 563M270 560L270 561M290 560L297 563L298 563M350 560L351 560M60 561L64 565M96 561L96 562M163 561C164.777 566.858 168.525 564.106 172.346 567.108C178.199 571.706 166.832 578.693 164 581L157 562M201 561L206 563M319 561L317 565M342 561L344 566M49 563L53.0795 572.707L45.7238 576.432L40 590M85 564L90 563M138 563L141 563M148 563L144 565M182 563L187 563M192 563L196 565M217 563L214 565M265 563L268 585M204 564L208 568M279 564L282 565M293 564L289 569M55 565L52 568M86 565L84 573M98 565L99 565M128 565L128 566M145 566L145 568M165 566L173 570M185 566C188.427 573.821 192.996 583.105 201 587M204 566L199 570M294 566L295 575L307 578M43 567L44 576M170 567L170 569M319 567L319 570M48 568L46 573M253 568C254.074 572.91 262.681 568.413 259 576M346 568C343.737 571.764 342.77 574.607 347 577M138 569C134.85 576.367 144.669 576.075 140 569M299 574C302.901 569.465 307.273 569.016 313 569M216 570L219 570M282 570L280 601M353 570L357 581M87 571L89 573M153 571L143 574M192 580C185.53 584.254 180.367 576.432 185 571M253 571C251.972 574.433 254.88 577.741 253.694 580.762C251.522 586.297 240.62 578.948 238 577L251 573M95 573C99.9587 573.626 96.3204 579.886 95 583M59 573L66 575M95 573C93.8224 576.882 91.9519 577.699 88 578M211 573L212 573M278 573L281 573M67 574C76.7445 574.753 75.7956 586.65 76 594M128 599C124.815 592.071 111.908 586.318 111.751 578.115C111.664 573.592 119.918 573.435 122.655 575.078C126.092 577.141 125.226 581.676 126 585M203 582C208.217 584.81 209.505 598.536 215 587L219 590C223.204 586.06 223.083 571.863 229 577M119 575C118.781 579.672 119.075 581.964 124 583M295 575C288.115 588.199 296.826 602.858 287 615L288 603M50 576L50 580L45 578M109 576L111 576M189 576L185 579M290 576L293 577M312 576L315 579M85 577L86 593M207 583L222 577M236 577L238 577M344 577C342.671 580.228 343.154 581.009 346 583M366 577L366 581M326 578L329 579M303 579L307 583M183 580C179.611 587.65 190.912 589.198 197 592M295 580C299.096 585.146 306.348 593.76 312 585M376 582L379 580M30 581L30 584L25 586M51 581L52 581M118 581L116 583M164 581C165.403 585.777 167.741 586.029 172 584M303 581L300 584M335 581L335 588M231 582L232 585M344 582L342 584M68 583L75 589M72 583L73 583M152 583L156 585M187 583L187 586M30 584L36 601M62 591L56 591C57.542 587.409 58.95 585.187 63 585M253 584L263 599M320 585L323 584M262 585L265 594M289 585L290 585M353 585L355 589M373 585L373 587M197 586L194 589M379 586L379 587M167 587C167.309 601.962 171.919 620.86 184 629L184 635C186.368 632.615 186.969 630.998 184 629M242 587L244 587M58 588L61 591M274 594C272.214 591.335 271.203 589.993 274 588M44 589L49 597M100 594L103 589L100 599L102 599M140 589L145 603C149.101 599.84 152.489 588.078 144 591M294 589L296 590M124 590L127 590M133 590L133 591M122 591L116 595M159 591L160 598M176 591L182 608M46 592L43 595M239 592C239.836 596.295 237.809 598.175 234 600C233.374 595.772 235.575 594.215 239 592M319 592L330 598M60 593L59 600M106 593L108 600M253 593C254.998 600.19 262.398 606.805 269 610M300 593L300 594M371 606L379 593M241 594L245 595M315 594L316 595M145 595L148 595M182 595L185 599L182 602M201 595L202 595M304 595L309 599M338 595L339 595M135 596L135 597M55 597L58 599M119 597L126 596M179 598L181 597M219 597L223 597M317 597L312 612C318.012 611.532 318.625 607.947 316 603M178 598L175 602M84 599L84 600M93 600L98 599M150 600C152.764 604.777 150.043 605.839 146 603L146 603M270 600L271 601M350 600L349 606M216 601L216 602M161 602L162 604M194 602L197 604M204 606L206 602C215.025 605.408 213.389 607.802 206 612M368 602L368 604M375 603L368 622M48 605C48.9174 616.608 51.5858 616.278 61 612M223 605L225 609L223 605M250 605L253 614M27 606L29 623M33 606L36 608M75 623C73.5027 614.769 68.5271 608.859 79 606C80.7997 612.069 80.7318 614.8 86 619M87 611L88 606L92 611L85 617M287 606L291 608M127 611C125.889 616.438 117.956 619.024 119.06 612.144C119.721 608.026 133.652 608.02 136 610L135 613M234 607C240.8 614.724 245.599 618.22 241 628C244.149 628.485 245.165 628.127 246 625M272 607L274 607M356 607L358 609M251 608L248 612M246 609L248 610M301 609L297 616C300.857 616.067 301.345 614.413 300 611M368 609L366 614M56 610L58 612M102.549 611.175C105.651 609.444 107.005 614.454 104.57 616.169C101.355 618.433 99.7199 612.753 102.549 611.175M174 610L178 610M337 610L329 638M187 611C189.632 613.829 193.699 619.017 197.98 619.114C204.023 619.251 199.597 613.315 197 612M214 611L216 612M276 611L273 614M254 612L259 618L274 623.605L289 620C289.109 626.716 287.754 631.629 292 637M312 612L310 614M165 614L164 624M180 617C185.678 613.927 190.35 625.168 195.104 627.567C208.868 634.514 225.869 628.475 240 634M190 615L187 617M289 615L290 619M23 616L23 617M79 616L79 622M145 629C141.73 625.112 139.641 622.111 141 617L150 621L150 620L150 619L150 618M43 618L45 631M55 618C54.725 624.863 54.821 628.039 61 632M210 618L212 619M278 618L278 623M351 618C346.66 626.26 344.623 639.837 351 647L343 651L346 674M371 618L373 631M75 619L78 619M111 619C111.372 623.317 110.351 630.097 116 630L116 627M201 619L206 629M234 623C226.979 626.214 230.257 616.341 234 623L241 625M259 619C260.001 625.736 251.926 625.295 247 627M324 619L324 622M59 630L64 620M314 620L315 620M218 621L227 624M285 621L287 623M305 621L305 623M94 622L97 628L89 633C88.433 629.025 89.8664 627.391 93 625M199 622L203 624M218 622L216 624M269 622L261 625M148 623L144 627M252 623L252 624M128 624L128 625M135 632L139 624M211 624L213 624M357 624L361 625M35 625L38 632M310 626L314 625M69 626L69 630M86 626L88 628M177 626C175.371 639.233 178.345 651.942 174.356 665C172.605 670.733 171.241 676.228 165 678M294 626L295 626M55 628L49 641M121 628L116 630M321 628L322 632M31 629L34 629M82 634C78.4043 633.037 78.3689 631.408 81 629M300 630L301 637M103 631L104 631M126 631L127 636M341 631L334 651M351 631L351 633M282 632L284 638L288 634M48 634L51 634M89 634L84 639M361 636C366.793 632.033 365.027 641.657 365 645M67 635L67 636M106 635L103 639M313 635C320.5 639.187 309.202 644.635 313 635M40 636L40 637M57 636C61.7611 637.717 62.7209 640.327 61 645L57 642M158 636L162 638M178 636C183.427 638.601 184.074 642.454 185 648M356 636L354 640M283 637C281.003 641.318 282.609 643.003 286 646C287.725 642.166 287.392 640.433 285 637M95 638L91 644M371 641L371 645M120 642L118 651M147 646L144 654C140.641 652.175 136.565 646.24 142.461 644.162C144.951 643.284 148.54 645.446 151 646M282 643C279.622 647.653 279.56 655.953 281 661L285 647M346 643L344 648M84 644L85 644M35 645L43.5748 691L45 709M294 654L299 645M61 646L58 649M75 646C72.4619 649.464 72.0731 651.127 74 655M99 649L105 656L111 646M129 646L124 657M169 646L169 649M352 647L354 646M53 647C57.3328 655.34 62.7131 656.641 70 651M142 647L141 651M316 649L318 649M104 652L107 650M311 651L314 652M325 651L311 667M368 651C367.118 656.495 360.974 665.528 355 665M43 652L43 653M86 652C84.8299 657.821 84.6627 670.402 92 671L92 671M157 652L150 664C154.843 665.079 157.079 662.843 156 658M282 652L284 652M79 654L84 657M181 655L181 656M95 656C97.1313 661.278 100.94 661.507 106 663M339 656L337 665M127 657L129 659M169 658L170 658M355 658L355 659M115 660L113 662L115 660M116 660C118.812 662.846 122.367 665.76 122.812 670C123.219 673.886 120.971 679.467 116.144 677.427C112.926 676.068 113.376 672.062 111 670M70 661C69.174 666.515 70.5075 671.072 64 673M282 661C283.799 667.304 280.984 679.034 280.299 686C279.175 697.439 280 709.49 280 721C280 729.66 277.974 738.812 285 745M113 662L113 670M135 662L136 667M280 662L281 666M292 662L298 669M59 663L62 667M71 667L78 664M162 664L163 664M302 666L302 667M365 666L366 666M334 671L334 682L344 667M145 668L145 669M316 668L317 668M161 671L172 669M131 671L138 679M289 671L294 675M322 671L312 697M354 697L349 699L354 704C359.218 693.99 355.277 680.157 364 671M78 672L76.8503 684L88.8958 702L93 719L106 713M86 672L81 678M99 672L105 684L113 677M135 675L138 673M314 673L314 674M69 674L75 682M292 674C289.561 678.594 289.409 684.584 296 684M94 676L96 683M145 676L145 677M155 676L148 689M308 677L306 679M85 678C86.2483 682.164 86.518 691.912 93 690M170 678C168.618 687.7 165.187 700.572 160 709L155 706M88 679L93 679M160 679L161 683M89 680L89 686M345 687L353 681M334 682L334 688M104 685L104 687M110 685L112 685M124 690L141 688M292 685L291 692M329 685L325 700C329.379 698.404 333.403 695.845 336 701M118 688L118 692M158 691L158 692M90 692L90 694L86 697M85 694L87 693M90 694L100 694L103 702C106.719 699.402 109.48 696.192 114 698M101 695L109 696M332 694L332 696M140 702L148 698M293 699L292 702M101 700L96 703M284 704L288 700M324 701L319.189 721L320.856 731.871L317.041 738.114L322 747M281 702L284 702M118 703L118 720M130 704L127 705M354 704C353.886 713.207 354.016 721.961 351.843 731C350.745 735.566 347.928 739.859 351 744M329 705L329 714L330 710M107 707L114 711M291 707L295 710L299 706C306.6 716.904 293.788 717.482 291 727M41 707L43 718M123 707C127.464 710.886 128.84 712.414 135 712L129 723M148 709L149 717L143 718M160 709L152 732M295 710L296 714L301 712M136 711L135 712M287 711L285 712M309 711L313 713M338 712L339 726M345 712L345 724M128 713L131 719M40 714C37.36 718.631 27.3069 736.548 31.6968 741.298C34.1474 743.949 39.2016 741.631 40.3819 738.776C42.1842 734.417 40.1055 724.945 38 721M296 714L296 717M290 715L290 716M321 715L324 717M331 715L329 750M87 716L86.1458 731.961L74 753M94 721L95 728L101 727M107 723L109 732M324 723L324 725M143 728L148 724M116 727L121 730M95 728L95 731M310 728L305 740M319 728L317 734M128 744C131.655 738.392 129.179 732.29 136 729M299 732L306 735M295 734L292 737M103 735L110 749M115 736L117 742C113.369 739.611 114.561 736.901 118 735M339 737L339 738M139 740L143 739M345 738L349 738M150 739L150 740M87 740C89.1825 740.719 92.6045 741.071 93.8025 743.317C97.5962 750.431 86.1293 761.819 97 765C97.9143 760.275 98.7932 757.447 94 755M41 742L25 755C23.7592 749.501 27.2333 747.709 32 750M337 742L338 759M280 744C280.003 748.422 281.396 758.332 288.513 752.972C290.669 751.349 289.589 747.46 292.321 746.418C294.902 745.434 298.683 748.039 301 749M312 744L316 744C316.56 751.092 317.029 756.623 322 762L324 755M34 745L35 746M42 745C42.2645 751.257 43.6031 758.044 39 763L40 757M148 745L148 748M20 746L20 747M81 746L83 747M101 749L115 769M116 749L116 750M140 749L139 750M122 750L125 759M349 750L349 751M81 771C83.1658 765.063 83.1444 748.174 93 754M146 754L128 798L127 789M279 754L277 802L286 804C288.121 796.689 291.23 787.491 289 780C285.236 784.719 284.628 787.869 288 793M24 755C19.2291 760.42 12.1192 767.194 14 775C20.9216 771.399 23.5641 767.179 18 761M133 757L133 758M301 757L289 763L289 780M345 757C348.321 758.099 348.737 759.59 349 763L344 763M31 759C29.7057 763.919 31.6815 766.411 35 770L39 764M74 771C68.8067 772.151 63.3116 771.101 59 768C67.7759 754.518 70.5335 763.732 81 769M310 759L311 759M317 759C317.607 762.702 318.523 763.653 322 762L322 762M77 764L82 763M90 763L89 782M349 763C357.037 777.979 355.794 799.071 351.576 815C349.354 823.39 348.26 838.671 338 830L337 840M334 764L336.464 777.711L346 787M30 765L28 773L35 771M95 765L96 771L97 765M303 765L306 765M52 793L48 795C47.6543 787.434 46.079 767.544 58 767M319 766C321.944 775.983 317.427 787.574 319.349 798C323.969 823.063 329.814 847.406 332.829 873C333.898 882.081 331.725 905.067 341 909M16 767L20 771M91 767L93 767M99 767C105.149 772.642 118.905 776.177 118 786M125 770L128 780M291 770L302 773M309 770C309.808 775.663 307.163 780.5 307.644 786C308.955 800.987 314.179 815.84 311.445 831C309.229 843.291 300.977 853.318 299.725 866C297.619 887.316 299 909.537 299 931C299 946.275 297.175 961.844 299.289 977C300.867 988.308 306.526 998.742 308.625 1010C310.039 1017.58 307.549 1025.46 309.411 1033C310.812 1038.67 315.05 1043.33 316.502 1049C317.521 1052.98 316.099 1057.16 317.964 1060.99C319.914 1065 324.017 1067.04 326 1071C317.883 1073.44 302.183 1077.1 294.507 1070.91C291.17 1068.21 296.773 1064.92 296.659 1062.06C296.406 1055.71 283.639 1060.69 281 1062M62 771C63.2871 777.352 69.608 780.637 72 773M96 771C94.1838 775.625 94.8304 778.175 100 779M96 773C100.206 780.881 96.1602 787.859 96.0046 796C95.9725 797.684 96.7163 803.793 93.8495 803.793C89.9509 803.794 95.2232 797.246 100 798L101 793L111 788M331 773L335 775M13 774C8.46862 782.672 20.3423 784.276 21 793L29 787C24.4971 782.19 23.714 779.776 27 774M34 774C32.7475 778.189 30.9003 778.79 27 777L26 776M329 775L329 776M16 776L14 781M71 777L69 793M67 779L65 781M336 779C332.809 784.891 337.21 787.72 342 791M18 784L23 780M31 780L29 786M49 780L58 790M87 780L75 792L80 801L87 798M299 780L302 781M11 781C8.89527 784.582 8.84931 786.201 12 789L13 783M329 781L333 784M59 782L66 790M110 784L110 787M99 786L104 786M326 788L326 790M12 789C9.59857 792.995 9.37245 795.097 12 799L20 794M29 789L26 803L21 803L22 811L27 804L32 803M97 789L101 793M64 790L65 796M80 791L90 793M128 791L130 793M22 793L27 797M114 793L116 796M104 794L108 797M300 794L297 798M321 794C323.063 797.354 323.005 798.612 321 802M331 794C334.822 802.589 343.985 813.13 333 819M49 796C49 801.188 47.7325 821.499 54 821M281 796L286 796M57 797L68 802M128 798C127.236 804.232 123.566 809.718 123.094 816C122.709 821.129 125.846 825.086 125.772 830C125.557 844.372 123.538 860.767 125.286 875C127.278 891.221 133.583 906.267 137.534 922C142.516 941.835 146.449 967.788 158 985M339 798L339 799M12 799L12 808C9.93362 805.51 10.3524 804.773 12 802M101 799L101 805M77 800C77.4969 806.602 83.9838 810.533 78 816M304 800L302 805M20 801L20 802M63 801C62.0268 806.552 63.3566 808.825 68 812M114 802C118.438 805.096 112.66 808.746 113 813M276 803C275.691 819.691 279.007 840.347 285 856C293.746 850.668 291.578 836.615 281 835M284 804C284.271 807.793 286.069 814.158 290 815M91 806C90.1339 814.251 89.0521 818.368 95 825C81.1365 836.387 102.296 862.142 108.992 874C110.962 877.49 111.307 881.41 113 885C114.812 881.887 114.812 881.113 113 878M109 806L110 811M293 810L298 806M13 807L20 808M334 807C334.568 810.582 335.508 811.943 339 813M16 842L30 818L33 808M62 808L65 835M15 809L16 831M27 809L30 812M64 809L61 812M109 810C104.542 815.466 108.917 824.418 111 831M298 824C298.885 817.526 299.577 810.837 307 810M98 819C96.4065 815.619 95.6199 813.217 99 811M75 812L75 814M81 814L89 830M301 815L307 815M286 816L298 841M339 816C342.336 821.311 340.109 824.635 338 830M337 818L341 820M31 819L31 824M79 820L77 828M50 823C51.3555 834.124 53.3549 849.212 59 859L62 852M303 827L308 823M54 824L51 828M122 824L121 826M95 826L104 830M288 827C286.023 829.943 285.221 830.569 282 829L281 830L280 831L279 832M98 828L91 836M97 829C98.356 832.411 97.7999 834.056 94 833M82 831C79.6223 840.578 74.0858 849.317 72.2446 859C68.2213 880.16 69 902.305 69 924C69 940.257 66.6634 957.965 68.1698 974C68.8472 981.211 71.9118 987.098 73.4715 994C75.494 1002.95 73.7863 1012.2 77.4429 1021C81.5404 1030.86 90.3276 1034.41 96.8017 1042.05C100.735 1046.7 101.233 1052.3 106 1057M285 832L285 835M304 838C304.568 834.418 305.508 833.057 309 832M27 833L28 833M60 833L63 843M62 835L64 834M76 835L79 836M347 836C345.654 842.879 346.356 856.708 349 863M116 871L104.042 851.871L110 837L116 843M104 849L99 843L108 839M93 840L98 842M118 845L124 844M338 844L339 849M100 845L95 850M300 845L300 847M344 846L346 846M121 850L118 852M291 850L291.027 861.039L292 893M111 851L114 852M84 852L84 853M339 854L340 857M291 855L291 856M285 856C285 897.613 285.908 939.485 284.981 981C284.823 988.103 281.456 994.758 281.454 1002C281.451 1012.72 286.329 1024.51 285.671 1035C285.309 1040.79 283.995 1046.13 280.755 1051C278.777 1053.97 274.677 1057.22 274.314 1060.95C273.689 1067.38 287.501 1069.95 292 1070M102 861L108 859M58 860C59.4828 866.31 65.0993 871.027 59 877M121 860L121 861M56 864C55.9771 898.618 50.4092 933.276 49.9961 968C49.8695 978.642 43.8689 990.706 48 1001C53.4945 996.489 53.9755 991.663 55 985M326 866L326 867M341 867L341 874M348 870C348 915.766 358.868 962.622 372.962 1006C376.399 1016.58 383.815 1027.66 389.465 1037C391.348 1040.11 398.12 1045.21 397.685 1049C396.834 1056.4 379.538 1051.55 376 1049C381.366 1044.12 386.78 1041.91 388 1051M67 874L67 875M62 878L60 891M113 885C113.414 889.527 114.117 894.719 116.062 898.877C118.547 904.19 124.672 903.226 120 910L119 903M118 890L115 896M115 892L117 892M119 893L121 898M53 898L53 905M116 901L114 903M60 904L60 909M337 908L343.921 976L346.628 1013.95L354.965 1020.45L364 1034C362.009 1035.75 348.913 1047.66 357.854 1049.08C365.772 1050.33 366.965 1037.62 375 1049M120 910L125 916M290 910L290 913M48 914L52 913M338 913L340 913M122 916L119 922M60 920L60 925M122 920C129.636 933.181 131.751 952.25 135.374 967C136.942 973.384 141.112 979.634 141.87 986C142.733 993.243 140.635 1000.86 142.15 1008C144.999 1021.42 155.998 1031.04 156 1045L165 1041M290 927L290 928M351 946L351 948M57 947L58 947M57 958L57 960M349 966L349 993M292 974L292 975M55 975L55 978M292 979L292 981M345 982L350 982M160 989C168.371 1001.26 169.537 1013.16 175.765 1026C178.532 1031.7 183.799 1036.38 187.296 1041.71C189.877 1045.66 198.172 1054.57 195.84 1059.74C193.929 1063.98 187.099 1065.46 183 1065.24C171.717 1064.63 160.141 1060.43 150 1057M358 989L358 990M351 990L355 992M53 996L57 999M55 998C55.0005 1002.19 54.1753 1006.52 58 1009M297 1000L302 1005M48 1001C47.7127 1006.15 48.015 1009.98 54 1009L54 1009M61 1002L60 1004M156 1003L154 1004M347 1003L351 1005L348 1009M65 1004L65 1006M292 1006L292 1007M356 1006L359 1008M296 1009L297 1009M349 1009L354 1018M50 1011C50.1406 1014.59 48.4109 1019.54 49.6435 1022.87C50.6194 1025.5 55.0224 1027.76 56.858 1024.64C58.3152 1022.17 56.9599 1016.86 57 1014M61 1011L62 1011M156 1011L157 1011M162 1011L165 1014M360 1014L368 1017M52 1015L69 1025M290 1020L290 1023M59 1021L61 1021M163 1021L161 1025M296 1021L298 1032M302 1026L308 1025M56 1027C62.2479 1033.75 60.444 1037.9 61 1046L71 1040M371 1028L374 1032M71 1031L72 1031M359 1031L359 1036M386 1034L387 1034M91 1038L93 1050M373 1042L380 1038M96 1041L98 1048M292 1041L289 1050M299 1041L300 1041M86 1043L91 1045M92 1043L94 1043M187 1043L174 1048L179 1053M98 1044L96 1046M60 1045C53.9198 1053.86 60.5962 1062.48 70.6628 1056.49C75.6724 1053.51 67.4848 1050.93 64 1053M95 1056L99 1057L96 1060L81.6528 1055.81L78 1047L84 1045M155 1046L154 1056M184 1046L192 1061M371 1046C368.751 1050.46 365.751 1050.94 361 1051M71 1052L78 1047M154 1056L167 1053C168.178 1049.12 170.048 1048.3 174 1048M374 1048L371 1050M49 1049L54 1053M292 1050L295 1051M82 1051L86 1051M102 1054L99 1057M168 1054L167 1061M297 1060C302.145 1057.14 309.491 1053.23 315 1056M73 1055L79 1057M160 1057L160 1060M172 1059L176 1058M181 1058L182 1058M289 1060L292 1065M289 1063L287 1065M299 1065L309 1067M314 1067L314 1068M322 1067L322 1071"
     id="path2984" />
</svg>
