<?xml version="1.0" encoding="UTF-8" standalone="no"?>
<svg
   xmlns:dc="http://purl.org/dc/elements/1.1/"
   xmlns:cc="http://creativecommons.org/ns#"
   xmlns:rdf="http://www.w3.org/1999/02/22-rdf-syntax-ns#"
   xmlns:svg="http://www.w3.org/2000/svg"
   xmlns="http://www.w3.org/2000/svg"
   xmlns:sodipodi="http://sodipodi.sourceforge.net/DTD/sodipodi-0.dtd"
   xmlns:inkscape="http://www.inkscape.org/namespaces/inkscape"
   width="2000"
   height="1210"
   id="svg3030"
   version="1.1"
   inkscape:version="0.48.4 r9939"
   sodipodi:docname="grenouille.svg">
  <metadata
     id="metadata3038">
    <rdf:RDF>
      <cc:Work
         rdf:about="">
        <dc:format>image/svg+xml</dc:format>
        <dc:type
           rdf:resource="http://purl.org/dc/dcmitype/StillImage" />
      </cc:Work>
    </rdf:RDF>
  </metadata>
  <defs
     id="defs3036" />
  <sodipodi:namedview
     pagecolor="#ffffff"
     bordercolor="#666666"
     borderopacity="1"
     objecttolerance="10"
     gridtolerance="10"
     guidetolerance="10"
     inkscape:pageopacity="0"
     inkscape:pageshadow="2"
     inkscape:window-width="1440"
     inkscape:window-height="858"
     id="namedview3034"
     showgrid="false"
     inkscape:zoom="0.2748916"
     inkscape:cx="1221.1995"
     inkscape:cy="605"
     inkscape:window-x="0"
     inkscape:window-y="19"
     inkscape:window-maximized="1"
     inkscape:current-layer="svg3030" />
  <path
     style="stroke:#070707;fill:none;stroke-width:15;stroke-miterlimit:4;stroke-dasharray:none;stroke-linecap:round;stroke-linejoin:round"
     d="M778 273C780.337 274.482 782.583 276.286 785.002 277.617C795.442 283.366 796.586 266.473 801 261L778.015 255.467L768.961 249.588L754.059 242.945L743 221C749.012 217.792 756.5 220.902 761.985 216.682C776.801 205.283 781.686 185.429 800 180.489C808.874 178.096 821.22 175.698 830 179.653C834.88 181.851 837.804 186.597 843 188.316C857.221 193.018 869.223 193.484 882 202.276C888.134 206.497 899.088 210.668 901.968 218.043C906.438 229.492 899.931 241.683 899.51 253C899.279 259.195 904.41 263.517 906.302 269C910.038 279.832 907.593 292.993 913.228 302.999C919.359 313.889 935.169 320.804 944.999 327.652C949.065 330.484 951.626 335.119 956.039 337.442C961.085 340.098 967.48 340.259 971.79 344.278C981.701 353.519 977.344 367.207 983.442 377.945C987.106 384.397 999.79 387.376 1006 391.515C1012.8 396.045 1018.58 403.874 1025.13 407.697C1036.78 414.494 1050.45 419.304 1062 426.726C1067.87 430.501 1072.39 437.96 1079 440.397C1096.88 446.99 1119.07 442.513 1135.95 452.278C1143.92 456.893 1143.63 470.715 1148.84 477.787C1151.78 481.77 1157.45 483.395 1162 484.626C1164.83 485.392 1169.82 488.032 1172.57 486.187C1176.73 483.393 1174.57 475.192 1175.33 471C1175.98 467.367 1180.45 462.705 1178.94 459.094C1175.11 449.894 1146.5 449.389 1139 453M839 188C831.569 195.451 824.751 203.746 819.665 213C817.016 217.821 815.725 225.738 811.502 229.397C808.625 231.889 802.629 231.503 799 232C781.228 234.434 773.792 230.687 761 218M558 253C551.58 251.705 539.261 242.107 538.987 235C538.749 228.849 543.396 223.394 545.385 217.911C546.952 213.591 547.695 206.808 551.419 203.742C554.509 201.198 560.199 201.404 564 200.87C575.03 199.319 586.843 197.692 598 199.343C605.861 200.507 618.798 203.118 626 206.433C630.344 208.432 633.463 212.131 638 213.931C644.829 216.641 654.702 217.478 659.775 223.059C669.233 233.463 667.277 254.201 677.43 263.297C682.655 267.978 698.112 268.703 705 269C706.75 277.671 714.572 280.712 721 285.553C725.75 289.131 729.442 293.318 735 295.76C744.783 300.058 758.416 297.95 769 298.001C772.652 298.018 777.668 299.478 780.892 297.357C786.088 293.939 786.758 285.619 787 280M662 224C675.035 211.012 698.085 219.378 715 220.961C724.179 221.819 733.773 221 743 221M545 221L560 230M719 222C719 230.224 713.433 249.646 718.052 256.49C728.441 271.88 748.955 253.837 749 241M813 232C813 244.63 816.666 251.734 821.301 263C823.699 268.828 828.069 276.418 835.852 274.883C839.748 274.114 839.346 267.856 841.089 265.059C844.568 259.477 852.731 261.012 857.985 263.147C868.219 267.307 867.423 280.098 873 288C883.055 283.161 899.942 287.258 909 293M538 237C527.819 248.161 527.354 267.412 530.344 282C531.499 287.634 538.661 296.948 545 297.069C553.33 297.228 561.282 281.894 568 277.742C577.67 271.767 587.279 282.172 587 265M749 250C756.958 261.676 763.522 267.174 774 254M816 255C811.389 259.264 807.179 260.512 801 261M818 256L839 259L826 272M717 257L705 269M839 259L843 261M589 269C603.409 271.128 611.95 280.304 622 289.989C625.462 293.325 630.314 296.366 632.107 301.004C635.043 308.6 630.131 319.817 636.514 326.251C647.46 337.283 665.629 336.497 674.005 350C682.718 364.046 676.502 381.566 692 391.089C698.945 395.356 710.465 402.984 719 400.243C736.881 394.501 737.77 358.12 727 346M838 277C843.547 291.135 860.336 299.286 872 288C877.27 294.204 879.337 304.15 885.495 309.397C894.033 316.672 906.768 310.21 913 304M793 278C804.208 289.304 799.124 294.875 789 305C794.269 310.16 799.874 315.25 806 319.381C810.03 322.099 815.43 323.658 818.015 328.043C820.153 331.668 820.279 336.222 822.302 339.911C824.53 343.974 828.26 346.461 829.895 351C831.091 354.32 830.788 360.59 834.314 362.411C838.767 364.711 845.167 363.728 850 364.428C859.259 365.77 877.964 375.661 879.839 358C880.515 351.629 872.307 348.695 868 346.258C855.735 339.321 837.972 333.299 827 344M585 279L585 287M802 288L804 288M829 297L835 307L817 326M547 298L559 308.197L579.297 318.109L582.993 343.87L590.567 352.094L593.698 375L604.031 394L624 435M547 300C547.63 304.987 549.539 312.151 547.687 317C545.9 321.677 540.557 323.965 539.319 329C536.747 339.459 543.449 350.869 544.517 361C545.082 366.363 542.364 370.448 544.305 376C554.084 403.971 573.45 430.641 591.255 454C605.723 472.981 619.766 491.441 637.04 507.896C643.106 513.674 653.176 515.727 658.501 521.314C662.306 525.306 661.955 531.465 664.854 535.911C668.715 541.832 675.962 547.876 681.089 552.829C686.479 558.036 693.208 560.16 698.896 564.638C703.048 567.908 705.303 573.203 709.04 576.961C715.173 583.128 723.181 588.14 728.505 595.039C741.442 611.805 750.04 632.242 763 649C768.16 643.946 774.469 641.005 779.722 636.441C782.808 633.759 783.61 629.15 786.225 626C790.205 621.205 797.037 617.379 799.972 611.911C803.216 605.867 803.809 588.462 801.397 582C798.901 575.309 792.079 569.657 788.814 563C787.179 559.665 788.311 555.538 786.346 552.576C783.004 547.535 778.493 545.539 778 539C783.925 540.663 791.595 546.638 788 553M740 300C740.591 306.777 742.472 320.977 746.027 326.66C748.897 331.246 755.837 330.785 759.714 334.279C769.139 342.77 775.266 352.401 780 364M781 300L788 305M835 307L849 309M885 311C876.669 321.418 886.087 322.41 885.721 333C885.47 340.296 879.77 345.226 875 350M549 318L564.015 332.397L579 334M559 331C560.235 346.619 567.99 360.833 583 346M646 335C636.136 344.975 633.079 368.06 645.143 378.581C649.601 382.468 657.414 383.392 663 384.845C669.538 386.546 676.822 388.297 683 385M953 337L935.367 369.867L916.988 379.213L911.931 397L897.238 426L887 448L874 445M881 359C893.081 361.896 905.943 370.859 916 378M831 363C831.061 370.369 829.169 391.108 835.499 395.86C841.451 400.329 853.975 398 861 398M809 379L810 379M985 381C980.2 384.874 968.867 386.847 966.005 392.225C964.07 395.861 967.552 402.102 969.72 404.961C977.838 415.666 987.57 427.464 997 437L1023 408M952 393L964 394M834 396C830.77 397.8 826.272 398.315 823.513 400.819C818.255 405.59 814.961 423.263 819.318 428.996C824.132 435.332 831.497 436.223 838 440M715 402C714.959 416.951 709.908 427.579 697 435.579C691.296 439.115 676.485 439.214 676.485 448.982C676.485 454.922 695.027 461.576 700 462.532C709.011 464.264 720.69 464.491 725.681 474.09C728.166 478.868 725.28 484.052 725.04 489C724.657 496.885 726.886 504.328 728.325 512C730.082 521.37 742.936 537.206 729 541M742 405C742 418.597 748.832 424.362 754.134 436C756.094 440.301 757.066 447.786 761.278 450.442C770.524 456.273 781.131 455.166 790 462.464C803.517 473.586 812.852 490.332 821.954 505C825.66 510.971 830.118 519.111 831.61 526C833.056 532.68 831.696 541.332 834.603 547.624C837.342 553.554 845.663 555.544 848.486 562C850.654 566.956 848.566 573.357 851.742 577.812C855.275 582.766 862.404 582.891 866.302 587.39C875.995 598.581 880.88 614.543 890.275 625.995C897.783 635.148 908.981 640.78 916.795 650C923.542 657.962 925.479 669.657 932.225 676.871C947.653 693.372 969.059 705.242 982.351 724.004C986.746 730.207 987.728 738.863 992.649 744.671C1001.45 755.061 1013.29 764.219 1019.61 777C1023.66 785.214 1018.54 797.845 1024.43 804.79C1037.08 819.684 1060.95 822.759 1075.91 834.634C1083.51 840.676 1077.83 853.717 1087.04 858.021C1091.26 859.991 1099.73 856.371 1104 855.15C1113.25 852.504 1123.63 852.04 1132 846.867C1135.74 844.55 1137.47 840.203 1141.13 838.012C1147.43 834.242 1156.94 832.512 1159.34 824C1163.14 810.499 1140.88 815.253 1135 816M945 416C945.204 425.566 951.012 426.414 954.11 434.015C956.054 438.782 955.59 446.689 959.564 450.397C962.128 452.788 966.804 451.929 970 452.904C974.412 454.25 981.085 458.688 985.772 457.868C989.815 457.16 996.414 440.882 997 437M817 427L808.816 435.209L816 457M947 428C937.211 434.332 935.568 442.472 929.652 451.911C926.096 457.584 921.332 463.49 923.322 470.891C925.141 477.656 935.907 474.021 935.088 483.996C934.53 490.785 920.468 497.539 916.238 503C910.001 511.049 912.572 528.436 903.853 535.439C892.97 544.179 889.469 531.202 884.683 525.015C875.811 513.545 866.836 509.354 876.843 494.039C885.173 481.291 910.476 480.855 908.941 500C908.147 509.897 892.417 518.975 886 526M650 437L674 449M997 440C1006.07 447.752 1018.26 448.473 1027.99 454.71C1036.18 459.966 1040.86 469.259 1049 474.397C1054.16 477.652 1060.76 474.112 1065.87 477.028C1070.04 479.409 1072.01 485.255 1076 488.29C1087.68 497.175 1101.09 502.402 1112.87 511.035C1116.13 513.428 1117.58 517.26 1121.04 519.532C1128.43 524.375 1137.26 523.227 1144.89 526.854C1147.84 528.257 1148.81 531.251 1151.27 533.183C1160.92 540.752 1178.53 539.019 1190 539.965C1195.46 540.415 1200.45 542.495 1203.93 536.977C1213.81 521.302 1191.71 522.507 1183 520.447C1173.67 518.241 1161.82 507.778 1152.51 517.434C1150.15 519.889 1149.64 524.046 1148 527M1078 441C1078.42 451.403 1075.13 469.289 1068 477M887 448L887.109 467L893 482M759 450L738.224 460.857L726 472M959 451L954 461M988 460C976.241 475.37 988.413 494.928 1004 500C1008.96 485.041 997.694 470.694 988 461M1181 461L1209 465.317L1229 477.968L1291 476L1315 478L1306.14 512.567L1282 521.711L1275 524.971L1265 522.688L1243 528.714L1209 530M848 465L860 471M831 473L834 473M923 473L908 492M1308 515C1313.89 518.494 1328.16 523.085 1333.16 515.927C1336.51 511.112 1335.04 505.073 1337.44 500C1340.57 493.407 1346.09 488.735 1350.68 483.286C1353.85 479.523 1352.86 473.88 1359 473.188C1373.56 471.547 1403.95 480.194 1382.96 496.682C1380.33 498.751 1377.1 499.047 1374 500L1380 513M1220 475C1206.75 488.254 1190.58 504.057 1173 487M654 476C660.567 498.316 684.616 508.736 698 526M1049 476C1045.37 480.286 1045.49 485.494 1042.3 489.829C1039.01 494.302 1032.64 496.111 1030.03 501.043C1027.94 504.982 1029.69 509.86 1028.11 514C1026.51 518.182 1020.55 521.376 1020.6 526C1020.63 529.224 1023.62 531.968 1024.49 535C1025.68 539.121 1024.51 543.959 1026.99 547.74C1033.5 557.681 1051.08 554.938 1061 556.29C1067.38 557.16 1075.28 562.923 1081.74 558.972C1087.56 555.408 1088.55 540.348 1084.49 535.326C1081.6 531.755 1076.58 529.817 1073 527M1315 478L1352 477M1353 482C1358.93 487.927 1365.52 498.283 1374 500M1414 494C1406.66 501.361 1406.22 507.287 1404 517C1408.05 517 1414.16 518.092 1417.68 515.682C1428.31 508.399 1407.72 491.176 1418.14 486.603C1428.74 481.955 1445.89 482.567 1457 485.789C1461.41 487.069 1464.52 490.95 1469.01 491.772C1479.05 493.61 1496.41 496.347 1502.42 506.09C1504.85 510.041 1500.62 512.722 1499.03 516C1497.27 519.593 1497.43 526.102 1498.09 530C1499.62 539.078 1512.26 545.059 1519 550M1111 486C1124.57 491.707 1124.55 501.214 1115 511M1393 486L1415 486M936 487C941.619 496.745 938.326 502.834 951 507M1172 488L1168 511M751 489L748 492M855 490L854 492M1466 491C1461.03 496.014 1456.99 503.505 1451 507.258C1443.78 511.775 1431.17 509.007 1428.6 520.999C1426.98 528.57 1444.03 533.313 1446.91 540C1452.51 553.008 1433.61 558.348 1435.89 567.981C1438.61 579.479 1461.86 575.035 1468.57 580.742C1475.18 586.371 1470.18 597.523 1463 599.177C1455.84 600.825 1450.39 599.615 1444 604M1124 498L1127 498M939 501L927 505.028L915 512M1005 501C1009.69 510.867 1010.7 517.506 1019 525M910 506L913 506M783 507L774 509M1506 509C1513.47 511.527 1521.56 511.492 1529 514.326C1555.48 524.418 1581.91 538.101 1607 551.263C1624.76 560.581 1641.93 570.099 1660 578.711C1663.66 580.454 1666.52 584.171 1670.17 585.534C1674.64 587.203 1681.32 584.243 1686 584.039C1695.33 583.634 1706.13 585.678 1715 588.598C1721.53 590.748 1731.85 594.129 1736.5 599.329C1739.52 602.701 1740.53 609.184 1744.5 611.531C1751.62 615.743 1764.85 612.835 1773 614.68C1782.38 616.804 1796.43 623.12 1803.5 629.698C1806.4 632.394 1807.1 636.578 1810.21 639.211C1815.63 643.795 1823.85 645.779 1827.72 652.184C1836.02 665.915 1828.78 678.215 1817.79 687.502C1811.56 692.768 1804.12 694.196 1803.43 704C1803.14 708.117 1805.72 711.868 1805.96 716C1806.6 727.29 1805.26 738.961 1808.29 750C1811.44 761.437 1818.25 772.907 1815.32 785C1812.35 797.19 1803.11 795.527 1795.81 801.938C1793 804.411 1792.2 808.771 1789.61 811.561C1785.96 815.487 1781.02 817.807 1777.04 821.326C1770.97 826.7 1770.61 835.261 1764.87 840.787C1750.86 854.283 1734.27 868.51 1718.99 880.606C1715.06 883.711 1710.19 884.515 1706.42 887.938C1699.11 894.589 1691.07 897.222 1683 902.453C1675.43 907.357 1667.24 911.552 1660 916.924C1655.76 920.073 1652.57 924.853 1647.96 927.431C1638.44 932.758 1627.48 935.926 1618 941.803C1601.99 951.722 1587.98 964.863 1572 974.661C1565.82 978.448 1558.39 979.943 1552 983.327C1532.35 993.732 1513.57 1006.07 1494 1016.65C1489.56 1019.05 1484.44 1019.03 1480 1021.29C1457.26 1032.84 1436.07 1048.25 1412 1057.2C1371.21 1072.36 1327.99 1077.91 1287 1091.22C1273.44 1095.62 1260.4 1102.05 1247 1106.88C1212.54 1119.29 1176.97 1129.59 1142 1139.64C1127.35 1143.85 1113.5 1150.69 1099 1155.2C1092.18 1157.33 1084.78 1156.55 1078.04 1158.32C1072.19 1159.85 1069.44 1166.42 1063 1167.66C1053.7 1169.45 1045.18 1163.65 1036 1165M1420 515L1427 521M1404 517C1386.45 532.456 1421.47 560.074 1435 565M973 519L972 520M1331 520C1342.33 529.231 1351.47 548.782 1349 564M1185 522L1184 537M798 528L791 548M1491 532L1497 531M774 533L778 539M737 539C739.541 543.91 736.136 546.919 736.703 552C737.699 560.928 744.764 574.342 741.052 582.985C738.947 587.89 733.711 591.32 730 595M897 539C897 550.814 896.288 566.972 900.468 578C903.941 587.164 910.076 593.138 914.721 601.104C917.434 605.756 917.526 610.713 921.305 614.957C927.529 621.947 937.118 626.118 944 633M1199 542C1198.87 558.149 1189.57 573.274 1173 560M741 543C756.006 550.919 768.435 557.197 786 558M981 546C982.025 550.965 989.281 562.145 987.968 566C982.549 581.903 974.454 581.47 960 578.934C954.148 577.907 951.367 580.262 948 574M834 549L802 581M1026 550C1023.93 554.462 1021.79 560.397 1017.89 563.566C1010.39 569.662 999.303 563.664 991 565M1265 551C1262.1 565.997 1246.97 573.729 1235 580.579C1227.42 584.915 1219.53 586.937 1212 590.89C1202.88 595.677 1194.29 604.88 1184.83 608.411C1181.14 609.789 1176.79 608.207 1173 608.039C1162.68 607.583 1148.49 608.688 1139.13 603.57C1135.77 601.728 1135.45 597.936 1133.44 595.001C1129.92 589.864 1124.14 587.114 1121.98 580.999C1120.11 575.714 1119.1 565.329 1114.49 561.693C1111.71 559.501 1107.12 561.519 1104 561.829C1097.17 562.509 1090.81 560.02 1084 560M1466 551C1469.04 552.622 1474.05 552.547 1476.24 555.318C1481.13 561.5 1474.36 575.494 1470 580M1377 555C1371.95 562.017 1374.83 569.361 1377 577M1070 560L1068 573M1021 563C1021.97 575.344 1019.73 590.195 1023.6 602C1025.95 609.18 1031.76 612.791 1035.35 619.015C1040.93 628.69 1040.22 637.649 1040.02 648C1039.92 652.772 1041.99 657.994 1039 662L1036 662M1396 565L1401 580M1559 565L1565 566M1153 568C1150.26 578.482 1141.4 586.601 1134 594M1471 596C1472.95 597.384 1474.83 598.664 1477 599.677C1492.28 606.792 1494.05 592.938 1502.39 584.34C1505.91 580.714 1516.12 575.732 1521 574.616C1531.95 572.112 1531.5 582.025 1537.51 585.933C1541.61 588.597 1549.13 584.883 1554 586.742C1567.05 591.729 1570.09 606.173 1576 617M1270 600C1273.92 598.518 1278.61 597.83 1281.4 594.367C1287.56 586.698 1285.89 575.816 1300 575.397C1311.02 575.071 1314.09 582.768 1319.85 589.957C1323.76 594.843 1330.41 596.982 1333.85 602.184C1337.86 608.25 1337.91 615.1 1343.21 620.96C1350.37 628.882 1360.73 630.495 1363 618M1514 580C1518.9 584.897 1531.28 597.379 1537 587M1669 588C1669.64 596.053 1669.17 611.554 1674.32 617.956C1677.88 622.381 1683.85 621.999 1687.25 626.148C1690.7 630.359 1693.92 641.637 1701 640.963C1705.18 640.565 1710.66 634.312 1707.37 630.43C1703.78 626.193 1692.35 623.158 1687 623M1077 589C1074.41 597.671 1072.96 613.457 1080.51 620.411C1084.15 623.767 1089.59 622.115 1093.89 623.318C1096.79 624.128 1097.57 627.34 1100.27 628.228C1103.26 629.209 1107.83 628.009 1111 628M1536 592C1536 598.721 1538.22 608.726 1536.4 615C1534.12 622.844 1527.4 628.511 1524.85 636C1519.62 651.402 1525.13 675.706 1541.33 682.672C1545.29 684.377 1552.6 681.091 1557 681M803 593C809.773 593.51 812.691 598.608 818 602.147C822.009 604.819 826.522 605.361 831 606.775C833.796 607.658 837.326 609.034 838.303 612.105C840.151 617.909 833.461 632.633 826.999 633.237C822.2 633.686 816.428 628.602 813 625.741C808.367 621.874 804.265 617.265 800 613M1283 594C1288.08 600.389 1286.91 610.06 1287 618C1287.08 624.353 1289.41 630.661 1288.89 637C1287.99 648.171 1283.72 658.514 1285 670M918 595L914 599M1095 602L1096 603M944 603L943 605M1241 603L1244 604M1364 612C1361.68 601.717 1367.51 602.662 1376 605M1403 607L1408 607M1607 654C1608.06 660.401 1592.95 662.425 1589.78 657.732C1587.5 654.366 1590.22 647.712 1590.72 644C1592.12 633.554 1590.33 608.048 1606 610.189C1617.85 611.807 1623.02 627.686 1636 630M1311 613L1314 614M1742 613C1739.77 617.003 1736.55 620.658 1735.01 625C1733.52 629.201 1734.04 635.589 1729.85 638.303C1725.08 641.399 1714.2 635.609 1710 633M1421 620L1421 621M1271 623L1272 623M1388 624C1396.13 634.118 1411.56 645.953 1425 646M1805 629L1812 624M1007 628C1012.89 635.558 1005.61 644.332 1000 650M1572 628L1571 630M1100 629L1096 636M1322 630L1323 630M1452 634C1445.15 638.084 1446.45 643.135 1448.75 650C1452.98 662.661 1460.47 672.436 1463 686C1450.17 686 1436.71 687.933 1424 686.907C1410.5 685.817 1401.36 679.508 1388 687M1043 637L1056 635M1218 635L1212 639M1256 639L1259 647M856 640L861 644M1165 641C1172.66 650.94 1172.03 652.036 1185 652M1562 641L1567 642M1731 641C1735.28 652.01 1743 651.215 1750.79 658.39C1758.5 665.495 1764.68 678.353 1773.26 684.012C1781.89 689.701 1797.09 688.609 1807 693M1100 714C1116.53 714 1110.91 708.233 1112.61 696C1113.18 691.889 1116.66 687.209 1115.3 683.015C1113.81 678.406 1108.15 678.402 1106.33 674.582C1101.32 664.11 1107.65 651.047 1118 648M874 649L876 651M1141 649L1144 651M1641 649L1655 656M763 650C765.451 658.29 768.035 682.429 759.891 687.995C755.248 691.168 749.05 690.788 744 693.035C736.823 696.227 731.745 701.815 725 705.405C719.424 708.373 711.191 711.409 711.854 719C712.742 729.17 722.392 737.349 731 741.441C750.216 750.574 776.091 753.536 797 750.08C803.13 749.067 817.194 748.193 821.508 743.486C827.606 736.834 815.095 720.615 809.961 716.951C804.206 712.843 799.786 707.39 793.996 703.424C784.001 696.578 774.919 692.932 764 688M1609 653L1614 651M1571 656L1587 658M1697 655L1706 664M960 658L964 662M1252 705L1238.04 698.437L1238 684L1233 661L1249 659M1676 659L1679 661M869 663L870 663M1042 663L1071 674M1354 688C1351.18 687.325 1347.61 687.387 1345.06 685.973C1330.86 678.114 1349.32 667.59 1356 665M1632 667C1632.98 684.913 1667.61 688.239 1680 682M1049 669L1040.87 681.567L1029.1 686.854L1021 699M1834 669L1855 677M1266 670L1261 683M1184 671C1184 677.348 1179.43 685.172 1180.21 690.837C1181.32 698.892 1194.85 689.167 1197 687M1827 679C1832.62 684.62 1837.56 691.538 1846 692M1585 681C1592.73 691.547 1603.7 699.438 1617 702M1342 684C1332.23 696.178 1335.7 705.696 1346 716C1351.85 710.15 1360.56 701.105 1369.96 705.353C1376.48 708.298 1384.55 725.224 1377.78 730.397C1364.76 740.333 1355.17 724.163 1345.7 720.238C1336.82 716.559 1323.51 729.15 1319 735M1541 684L1533 698M1772 685C1761.81 695.193 1755.66 706.084 1749.57 719C1748.28 721.749 1748.58 725.214 1746.98 727.772C1744.01 732.503 1736.94 729.94 1734.03 735.109C1730.94 740.59 1733.31 746.536 1728.78 752C1725.04 756.506 1719.55 763.229 1714 765.411C1709.97 766.996 1701.96 765.373 1699.03 768.858C1695.48 773.076 1697.6 782.632 1694.58 787.852C1691.7 792.839 1677.49 795.357 1672 797C1673.44 800.251 1674.21 803.815 1675.76 806.999C1683.86 823.564 1694.39 804.625 1701 798L1694 791M1660 686C1660.25 690.188 1659.23 695.127 1661.18 698.996C1662.94 702.489 1666.77 704.464 1668.26 708.089C1669.49 711.1 1668.28 714.903 1670.6 717.486C1674.85 722.208 1686.26 722.769 1691.98 726.212C1696.71 729.055 1699.36 734.242 1704 737.302C1709.27 740.777 1715.78 741.897 1721 745.637C1725.75 749.04 1728.57 754.297 1733.13 757.775C1736.67 760.479 1741.51 760.927 1744.61 764.228C1752.05 772.152 1741.55 787.594 1732 788.309C1711.97 789.81 1722.79 763.212 1730 756M1464 687C1474.62 692.509 1479.36 703.239 1488.21 710.348C1495.44 716.162 1504.35 713.684 1512 716.974C1521.03 720.857 1526.64 729.593 1535 733.682C1541.32 736.776 1549.29 735.118 1556 736.329C1562.88 737.572 1577.09 745.697 1581.67 751.019C1597.77 769.741 1574.47 779.852 1563.46 793.089C1559.02 798.423 1556.96 809.506 1566 811M819 689L823.798 706.05L813 718M859 690L862 691M1179 692C1171.99 696.447 1161.35 700.587 1157.03 708.209C1152.12 716.884 1162 729.078 1166.01 735.325C1167.79 738.085 1167.19 742.01 1169.59 744.411C1172.17 746.999 1176.95 747.677 1180 750M1592 692L1571 707M1192 693L1206 710M1099 695L1112 696M894 697L901 701C892.371 711.203 897.401 740.049 914.956 738.377C920.193 737.879 920.593 730.561 922.879 727C924.661 724.225 928.633 721.493 928.883 718C929.804 705.162 909.844 703.655 902 701M1280 697C1280.82 707.348 1274.38 716.151 1280 725M1204 703L1213 698M1308 698L1311 702M1716 699C1699.18 717.027 1721.04 724.036 1733 736M1227 706L1236 700M1149 704L1156 707M1038 705L1038 706M1263 715L1275 716M1433 715L1442 731M1346 716L1346 719M1708 717L1697 729M930 719C936.248 719.562 942.74 722.376 946.066 728.005C948.037 731.342 948.08 735.602 951.278 738.182C957.974 743.585 966.332 741.697 973 748C968.133 752.867 958.062 763.331 950.055 758.353C946.013 755.841 945.582 751.071 940.945 749.158C932.345 745.61 924.232 745.487 917 739M1622 720L1638.04 740L1644.66 750L1634 767M1070 721L1071 724M1625 724C1614.72 734.835 1617.71 746.305 1611.06 758C1608.47 762.554 1599.34 767.366 1599.69 772.999C1599.94 776.89 1604.4 779.613 1606.79 782.17C1613.13 788.935 1617.65 794.85 1624.89 800.785C1629.78 804.791 1627.57 813.728 1635 814.173C1638.99 814.411 1646.18 814.242 1649.59 811.976C1662.93 803.105 1667.05 773.267 1685 791M1296 749C1305.02 739.544 1307.69 721.638 1325 726M1299 726L1305 731M1748 730L1776 745M1378 732C1382.97 735.536 1389.69 737.517 1392.91 743.015C1396.37 748.912 1394.69 755.348 1400.33 760.39C1406.09 765.551 1416.83 763.483 1421.14 768.514C1425.23 773.286 1424.6 783.128 1426.76 788.985C1428.7 794.211 1433.07 793.83 1436.26 797.51C1438.24 799.796 1437.23 803.157 1439.03 805.397C1441.84 808.914 1453.57 806.38 1458 807.34C1464.65 808.783 1470.64 816.005 1474.85 821C1480.26 827.408 1475.12 832.029 1475.96 839C1476.5 843.462 1479.74 847.816 1481.32 852C1483.4 857.527 1484 865.161 1487.7 869.852C1492.96 876.514 1505.78 871.316 1510.78 866.61C1518.47 859.352 1517.73 838.079 1511.43 830.105C1506.27 823.587 1498.73 821.464 1491 820.946C1485.31 820.565 1482.85 819.184 1478 823M1697 732L1688 749L1698 768M1366 734C1363.55 752.233 1378.27 764.345 1395 754M1201 737L1210 738M950 738L946 749M1453 740L1454 740M825 744C839.469 744 871.12 740.1 881.53 752.13C890.169 762.112 888.622 773.419 894.158 783.741C898.113 791.114 906.681 792.175 907 802M1168 744L1163 758M1250 744C1243.75 751.385 1246.05 762.42 1240.93 770.999C1233.33 783.714 1212.03 782.772 1199 782M992 745C985.672 750.051 980.484 748.155 973 748M1484 746C1491.51 759.615 1465.52 764.245 1465.45 776C1465.4 783.96 1473.9 789.321 1478.25 795C1484.4 803.013 1485 809.208 1485 819M1646 750L1667 751.903L1688 749M1487 750C1500.82 752.566 1511.32 756.249 1520.4 768.3C1522.8 771.478 1522.49 775.721 1525.39 778.721C1528.27 781.694 1532.7 781.879 1535.78 784.569C1539.98 788.24 1539.27 794.913 1543.42 798.397C1546.88 801.302 1553.77 800 1558 800M1521 768L1531 758M1095 765C1102.78 767.719 1109.05 773.523 1114 780M1423 766C1437.32 765.881 1451.16 768.568 1465 773M1193 766L1188 771M1590 770L1598 772M1750 772L1767 772M1365 894C1373.68 881.887 1376.79 867.789 1362 858.26C1357.35 855.264 1350.09 856.269 1346.56 851.852C1342.35 846.58 1343.85 838.067 1341.27 832.04C1339.56 828.039 1335.43 826.465 1332.44 823.621C1328.17 819.554 1325.56 814.078 1320.99 810.274C1315.59 805.787 1301.03 802.79 1298.02 796.775C1296.02 792.77 1301.75 786.708 1304.18 784.015C1313.74 773.461 1329.1 773.466 1342 776.731C1349.66 778.668 1363.31 782.434 1369.69 786.988C1372.74 789.173 1372.18 794.082 1376.11 795.445C1379.47 796.613 1384.48 794.288 1388 794M1151 782L1152 785M743 971C739.124 957.916 751.096 954.734 753.714 942C757.944 921.432 757.426 899.837 773.325 884.228C780.844 876.845 792.627 876.572 800.231 867.907C804.13 863.462 804.833 857.794 808.248 853.133C811.63 848.517 817.863 847.328 821.606 842.907C827.729 835.674 832.396 824.717 839.302 818.514C842.627 815.528 847.378 816.718 850.996 814.397C856.384 810.939 858.259 804.689 862.212 800C869.981 790.785 879.786 785.558 892 785M959 788C961.489 786.86 963.235 786.263 966.002 786.923C984.109 791.244 967.565 807.789 966.148 817C965.267 822.724 967.605 829.52 965.741 834.996C960.809 849.48 941.214 855.393 932.702 866.213C928.635 871.383 929.728 877.078 928.987 883C927.786 892.6 925.953 903.852 922.895 913C920.664 919.675 915.569 926.642 916.229 934C916.764 939.957 922.061 944.058 926 948C919.676 951.844 911.897 952.039 905 954.746C889.339 960.893 873.307 969 857 973.097C852.041 974.343 846.941 973.412 842 974.529C829.641 977.321 818.461 985.182 806 987.532C784.789 991.533 757.55 994.934 736 992.896C726.998 992.044 718.195 988.23 709 987.427C703.888 986.981 699.304 988.303 694 987.414C680.625 985.171 669.306 976.035 656 974.289C646.353 973.024 634.092 979.506 625.015 974.821C619.328 971.885 621.072 965.092 616.682 962.179C612.395 959.334 600.514 962.065 597.708 966.278C595.551 969.517 598.629 973.62 601.105 975.682C606.734 980.37 615.696 977.441 622 976M1722 787C1719.25 789.747 1713.17 793.923 1712.63 798C1712.26 800.817 1715.2 803.066 1716.78 804.999C1724.33 814.241 1734.34 811.657 1744 805M1175 790C1182.86 790.12 1189.29 793.28 1194.58 799.3C1197.75 802.903 1197.84 807.731 1203.02 809.276C1207.7 810.671 1220.31 813.202 1224.91 812.096C1230.75 810.694 1232.71 803.914 1240 806.603C1246.02 808.826 1248.68 825.961 1256 821.534C1262.82 817.406 1266.73 804.861 1257 801.467C1251.77 799.645 1245.76 803.92 1242 807M1771 792C1780.13 790.5 1788.51 794.845 1795 801M1258 800C1267.1 791.395 1284.5 791.751 1296 795M1667 796L1671 796M1297 797C1289.44 805.107 1292.34 813.128 1289.68 823C1288.17 828.596 1284.67 836.954 1287.31 842.786C1289.22 846.987 1295.1 847.406 1299 846.748C1308.68 845.118 1315.51 833.084 1305.53 825.992C1301.29 822.982 1294.74 824.636 1290 825M1701 798L1711 798M1514 800C1513.5 809.167 1505.08 814.921 1499 821M783 804C797.162 804.603 790.211 823.977 793.879 833C796.595 839.681 803.998 844.998 809 850M1439 807C1438.77 814.111 1434.72 817.366 1429 821M1199 808C1195.96 811.038 1192.89 815.009 1189 816.973C1181.55 820.737 1169.77 821.499 1166.21 831C1163.37 838.597 1176.08 847.92 1179.9 853.143C1189.62 866.448 1178.28 883.132 1191 896L1180 906.566L1168.04 909.179L1148 919.569L1129 915L1131.72 886L1135.39 876.029L1156.3 874.512L1160.74 863L1174 849M794 811C807.995 811.312 826.445 808.681 838 818M1560 811C1559.47 823.199 1552.97 834.143 1568 839.167C1570.45 839.985 1573.38 841.372 1576 840.6C1579.23 839.648 1581.99 836.56 1585 835M1227 814C1228.17 817.594 1229.12 822.626 1231.82 825.412C1233.89 827.552 1236.96 827.647 1238.79 830.228C1242.37 835.291 1244.84 846.32 1253.9 843.303C1258.51 841.769 1257.04 829.173 1253.57 826.928C1250.66 825.048 1243.5 826.998 1240 827M1439 814L1457 825.588L1475 838M1631 814C1626.79 819.524 1625.14 828.244 1627 835C1640.76 831.611 1651 830.266 1651 814M1682 814C1672.98 822.939 1663.5 825.45 1651 825M1159 826L1165 832M1395 830C1395.45 833.541 1395.03 839.595 1397.03 842.571C1402.49 850.694 1413.67 847.099 1420.95 850.514C1425.38 852.594 1427.49 857.636 1432 860M1626 834C1621.6 839.32 1607.37 859.345 1611.81 866.482C1617.41 875.466 1632.24 871.12 1630 885M885 838L884 846M1323 839L1310 842M1665 841L1669 855M1259 843C1267.32 847.188 1276.1 846.12 1285 844M1577 843C1577 848.182 1575.3 859.739 1581.23 862.397C1584.86 864.024 1589.26 862.227 1593 863.603C1600.4 866.33 1600.83 871.749 1609 867M1208 849L1213 851M1348 855C1344.07 860.096 1339.59 867.158 1336.92 873C1335.26 876.651 1335.45 880.859 1331.87 883.462C1325.03 888.434 1305.56 876.393 1305 869M834 858C837.283 862.131 840.096 867.515 845 869.972C848.432 871.692 852.37 870.55 856 871.278C863.046 872.69 880.323 878.757 885 884M1087 861C1085.96 874.686 1066.28 868.102 1063.32 879.055C1062.4 882.46 1062.69 888.654 1065.77 890.972C1069.21 893.567 1075.97 891.461 1080 891.843C1084.68 892.287 1090.37 895.403 1094.98 894.647C1104.48 893.089 1097.93 880.319 1095.05 876C1092.8 872.632 1089.85 869.854 1087 867M1579 862C1570.26 868.22 1559.96 872.04 1551.04 877.842C1539.53 885.325 1529.68 893.341 1517 899.281C1506.46 904.218 1495.55 909.018 1485 913.988C1481.81 915.488 1477.94 914.596 1475.29 917.318C1470.5 922.228 1479.33 927.502 1480.95 932C1484.26 941.165 1472.44 956.282 1490 957.32C1497.71 957.776 1499.67 950.419 1506 948.542C1511.63 946.875 1520.85 950.983 1527 951M1202 863C1202.08 872.193 1204.09 880.807 1210 888C1204.39 893.434 1198.83 895.833 1191 896M1223 863L1225 863M1447 868L1446 870M516 871C518.488 873.862 524.347 874.399 528 875.656C541.91 880.441 559.006 877.877 570.862 888.418C581.242 897.647 562.414 900.419 558.279 903.028C555.448 904.814 554.215 909.566 557.322 911.678C564.93 916.85 574.552 903.448 579 899L575 895M846 871C842.484 874.631 840.583 881.125 836.721 883.911C831.157 887.926 822.45 887.625 817.318 892.51C814.132 895.543 815.946 900.487 812.682 903.436C804.82 910.54 795.208 911.831 790 923M503 876L515 874M515 874C515 880.448 512.178 895.109 515.693 900.42C520.676 907.949 536.895 909.939 536 898M869 878C868.702 881.782 868.885 887.546 866.972 890.867C859.264 904.244 844.608 890.886 839 884M909 890L927 877M926 948C931.278 947.985 939.225 948.362 944 945.972C958.342 938.796 962.491 920.591 971.808 909.001C985.57 891.881 1000.48 883.927 1022 883M1210 888C1223.31 885.529 1235.85 887.781 1249 887.544C1263.31 887.286 1273.85 882.331 1283 896M1329 887L1328 897M606 916C593.742 915.024 588.156 908.328 580 900C591.893 888.141 612.511 884.957 629 889.637C634.723 891.261 639.336 896.729 645 897.797C657.684 900.188 664.11 889.597 677 899M945 946C954.402 954.771 965.297 950.891 977 950.089C987.712 949.356 1008.7 954.282 1017.67 947.397C1023.07 943.255 1026.53 933.785 1030 928C1037.52 915.468 1049.91 898.573 1064 893M1414 894L1394 908M1094 897L1086 919M543 967C554.443 961.645 554.831 948.455 543 943.479C527.951 937.15 509.797 954.451 496.001 945.231C484.522 937.561 494.22 932.658 494.945 923C495.348 917.638 493.517 910.638 497.434 906.228C500.885 902.343 508.188 902.273 513 901M596 968L583 953C589.699 946.32 600.548 939.296 610 937.274C614.743 936.259 620.541 937.507 625 935.771C634.275 932.16 638.954 923.683 650 923.144C663.224 922.497 676.471 928.022 689.985 925.852C698.897 924.421 695.191 911.914 702.109 908.028C705.904 905.895 710.887 907.591 715 906.906C725.01 905.238 734.561 902.329 745 904.34C749.659 905.238 753.236 908.367 758 909M1549 907C1549.8 915.8 1560.12 921.486 1568 924M555 911L542 918M762 914L790 921M1129 915C1121.65 923.938 1115.54 934.245 1115.22 946C1115.09 950.889 1117.94 955 1117.05 960C1116.1 965.323 1112.94 979.711 1119.15 982.883C1124.29 985.509 1134.4 982.285 1140 982.039C1148.58 981.664 1157.48 982.914 1166 981.7C1178.85 979.869 1189.88 975.809 1203 974.911C1221.98 973.611 1238.44 974.809 1257 978.885C1269.54 981.638 1277.88 988.901 1291 986.536C1305.77 983.873 1318.12 978.444 1332 973.548C1337.23 971.702 1342.91 972.258 1348 969.891C1352.87 967.629 1355.01 962.045 1360.02 960.394C1370.38 956.979 1384.73 961.659 1394 956.972C1397.99 954.952 1399.88 950.301 1404.04 948.589C1417.23 943.165 1431.89 941.183 1445 934.95C1454.56 930.408 1461.23 923.231 1472 921M1217 934L1238 922M695 927C695.781 930.282 695.274 934.889 697.028 937.772C700.414 943.339 715.08 943.529 721 944M1090 935C1086.88 944.09 1080.39 953.687 1095 954M1505 939L1506 946M1135 947L1136 947M1019 949L1032.98 962.039L1038.42 978.896L1060 1002.36L1094 1016C1097.26 1004.98 1087.39 990.542 1078 985M554 952L583 953M635 955L632 958M1394 958C1403.03 968.579 1402.27 982.144 1402 995C1395.14 995.886 1384.55 995.532 1380 1001M705 972L707 985M1098 973L1115 972M1120 984L1095 1004M1277 988C1272.47 1003.38 1261.65 1009.98 1248 1015.79C1226.78 1024.82 1201.33 1029.57 1178 1031.83C1170.12 1032.59 1159.4 1030.69 1152.02 1032.77C1146.5 1034.33 1144.72 1041.95 1139.98 1045.01C1130.93 1050.84 1119.18 1051.01 1111 1058C1120.97 1068.79 1111.2 1075.8 1103 1084C1094.98 1074.61 1096.67 1059.6 1111 1058M1403 996L1413.21 1005.4L1433 1008M1413 1006C1408.03 1013.15 1404.23 1013.02 1396 1013M1127 1011C1135.8 1015.72 1144.1 1022.85 1150 1031M1094 1016C1104.87 1026.87 1127.95 1035.18 1142 1024M1351 1020L1351 1021M1293 1023L1294 1023M1366 1031L1367 1031M1290 1037L1291 1037M1310 1039L1307 1043M1273 1058L1264 1067M1189 1084C1178.69 1091.23 1166.84 1103.22 1155 1092C1165.77 1081.23 1178.09 1069.5 1194 1067.21C1201.55 1066.12 1210.14 1070.65 1217 1068M952 1093L963 1113C946.76 1122.24 934.614 1119.61 922 1107C925.837 1103.16 929.801 1097.88 935 1095.89C939.164 1094.3 943.789 1095.45 948 1093.86C959.284 1089.59 970.413 1083.18 983 1089.32C988.75 1092.12 989.737 1097.41 993.313 1102C998.839 1109.09 1007.48 1110.32 1016 1108.77C1023.46 1107.41 1025.65 1100.02 1030.38 1095.27C1033.83 1091.81 1039.01 1091.87 1042.57 1088.69C1046.38 1085.29 1048.16 1079.71 1052.21 1076.74C1062.61 1069.12 1083.82 1071 1096 1071M1103 1084C1105.93 1103.81 1140.66 1097 1154 1092M991 1096C1000.63 1086.48 1021.22 1084.34 1031 1094M1042 1090C1045.33 1093.33 1048.73 1097.84 1053 1099.97C1061.41 1104.18 1074.89 1102 1084 1102C1087.36 1102 1091.82 1102.9 1095 1101.69C1098.95 1100.18 1102.09 1095.91 1105 1093M1117 1098C1111.12 1106.22 1105.26 1116.5 1097.79 1123.33C1093.48 1127.27 1087.39 1127.16 1083.31 1130.6C1077.04 1135.89 1073.16 1149.34 1075 1157M991 1101C982.043 1111.49 976.599 1113 963 1113M917 1107L922 1107M1041 1164C1041 1159.83 1039.33 1151.01 1042.03 1147.6C1045.88 1142.74 1068.64 1144.87 1073 1148M1032 1147L1041 1147"
     id="path3032" />
</svg>
