<?xml version="1.0" encoding="UTF-8" standalone="no"?>
<svg
   xmlns:dc="http://purl.org/dc/elements/1.1/"
   xmlns:cc="http://creativecommons.org/ns#"
   xmlns:rdf="http://www.w3.org/1999/02/22-rdf-syntax-ns#"
   xmlns:svg="http://www.w3.org/2000/svg"
   xmlns="http://www.w3.org/2000/svg"
   xmlns:sodipodi="http://sodipodi.sourceforge.net/DTD/sodipodi-0.dtd"
   xmlns:inkscape="http://www.inkscape.org/namespaces/inkscape"
   width="700"
   height="1183"
   id="svg3065"
   version="1.1"
   inkscape:version="0.48.4 r9939"
   sodipodi:docname="limage.svg">
  <metadata
     id="metadata3073">
    <rdf:RDF>
      <cc:Work
         rdf:about="">
        <dc:format>image/svg+xml</dc:format>
        <dc:type
           rdf:resource="http://purl.org/dc/dcmitype/StillImage" />
        <dc:title></dc:title>
      </cc:Work>
    </rdf:RDF>
  </metadata>
  <defs
     id="defs3071" />
  <sodipodi:namedview
     pagecolor="#ffffff"
     bordercolor="#666666"
     borderopacity="1"
     objecttolerance="10"
     gridtolerance="10"
     guidetolerance="10"
     inkscape:pageopacity="0"
     inkscape:pageshadow="2"
     inkscape:window-width="1440"
     inkscape:window-height="858"
     id="namedview3069"
     showgrid="false"
     inkscape:zoom="0.59769918"
     inkscape:cx="92.345303"
     inkscape:cy="591.5"
     inkscape:window-x="0"
     inkscape:window-y="19"
     inkscape:window-maximized="1"
     inkscape:current-layer="svg3065" />
  <path
     style="stroke:#080808;fill:none;stroke-width:10;stroke-miterlimit:4;stroke-dasharray:none;stroke-linecap:round;stroke-linejoin:round"
     d="M142 22C142.015 44.4297 128.237 61.792 122.043 83C119.468 91.8167 123.784 102.864 119.312 111C113.802 121.024 105.793 129.991 94 130M116 116C111.667 111.808 108.06 109.762 102 109.17C99.3473 108.911 93.8977 109.921 92.7076 106.682C87.3812 92.1868 109.259 76.1025 121 86M25 105C31.7419 107.094 49.2064 111.609 53.2971 117.109C57.2358 122.405 53.0911 134.578 58.4336 137.933C60.5864 139.285 63.6591 138.246 66 138.089C80.0719 137.148 82.4907 123.811 77 112L91 109M53 115C60.5254 111.056 68.7348 112 77 112M117 119C119.813 130.131 129.16 138.659 135.235 148.004C137.139 150.932 137.181 155.642 139.603 158.005C143.896 162.196 150.545 161.844 154.566 167.043C161.981 176.63 161.15 192.596 168.843 201.352C177.53 211.238 191.778 214.316 200.722 223.376C204.164 226.862 204.279 231.972 206.843 235.961C214.106 247.264 221.823 259.561 229.314 270.502C231.69 273.971 236.421 275.419 239.061 279.015C244.492 286.415 247.273 295.744 251.105 303.982C252.816 307.659 256.717 308.828 258.486 312.224C261.988 318.945 261.983 328.663 263.147 336C263.928 340.921 268.264 344.154 269.468 349C270.989 355.127 273.432 360.053 275.401 366C281.191 383.484 282.98 419.191 259 423M75 138C86.1023 148.841 100.714 155.278 111.285 166.996C113.982 169.985 120.146 176.414 124.853 174.698C128.671 173.306 134.558 161.444 138 158M59 139C51.3633 152.042 49.6093 170.444 59 183C62.2833 180.975 67.1094 179.801 69.5918 176.772C78.3062 166.14 59.4164 164.996 54 165M86 165L94 173M157 175C144.363 187.637 137.891 188.891 125 176M71 176C77.2608 183.62 74.1107 188.47 76.3171 196.911C77.4388 201.201 81.1621 205.763 83 210L93 210M59 183C59.8842 193.811 63.9198 200.053 75 200M94 190L94 191M66 202C66 206.756 65.2598 212.676 67.9383 216.892C72.3209 223.79 81.6294 227.554 86.1111 235.286C89.2101 240.632 85.4462 248.252 87.6034 253.985C89.0936 257.946 93.414 259.833 94.5656 264.015C95.6851 268.08 92.9373 273.058 95.6181 276.624C98.8158 280.878 104.467 282.66 107.861 287.018C111.102 291.181 117.107 302.181 123.001 302.408C137.091 302.952 141.285 280.529 125 280L132.502 258L129.062 240L139.701 228.586L146.133 218.394L168 202M82 211L78 224M141 228L151 240M80 229C71.4369 237.85 73 253.145 73 265C73 268.192 71.7871 274.821 74.6034 277.111C78.5057 280.284 88.4238 277.361 93 277M88 236C98.8266 236.563 102.849 245.752 108 254M170 250L171 251M158 257L162 261M132 281C142.644 270.356 145.585 268.366 158 277M229 272L206 301M75 279C68.141 290.197 71.3129 309.028 87 298M125 280L116 295M185 288L184 289M116 299C112.449 304.754 114.011 312.4 114 319C113.978 332.283 111.032 347.757 113.269 361C114.91 370.718 131.055 373.499 119 383C125.069 391.439 118.03 400.489 109 394C107.541 398.802 105.121 408.111 108.028 412.721C110.624 416.839 120.022 417.609 122.282 412.852C124.942 407.256 122.224 400.586 119 396M156 300L151 311M72 301C70.0588 303.537 68.6319 305.887 67.7608 309C66.5989 313.153 64.4296 320.815 67.7423 324.436C70.3974 327.338 76.3642 327.285 80 327.405C91.5428 327.785 101.362 325.611 113 328M192 305L197 312M178 307L177 308M165 320L161 322M66 326C63.6115 329.972 55.9454 342.558 61.6034 346.718C65.5453 349.616 74.3502 348 79 348M178 326C175.406 328.994 172.377 332.696 173.052 337C173.86 342.145 178.494 344.39 175.913 349.999C172.195 358.08 161.723 359.342 158.631 367.015C156.954 371.179 160.051 373.658 163 376M192 337L198 334M227 339L225 346M206 342L206 353M150 343L150 351M183 382C174.353 373.98 187.505 371.797 191.142 366.772C196.795 358.96 190.092 350.03 204 348M60 349C59.2694 354.781 56.3418 365.371 64.0193 367.566C67.8273 368.655 75.3545 366.179 78.1103 369.603C85.5753 378.878 63.6635 392.391 59 397C50.5399 387.857 52.9806 376.359 60 367M136 349L136 350M228 362L238 360M80 368L111 362M108 363L109 394M211 367L215 370M109 385L119 383M87 397L105 384M206 384C202.049 387.772 201.074 391.806 205 396M135 389C145.669 400.189 141.913 415.137 125 408M258 389C266.887 390.228 271.947 396.947 278 403M161 395L158 404M58 396C55.4282 398.781 53.3976 401.085 53.0586 405C52.7318 408.774 51.9862 415.324 54.0278 418.671C61.1737 430.383 79.9086 418.247 69.7222 406.039C66.9166 402.677 63.162 400.026 60 397M279 411L281.261 443L280.972 461L257.028 481.224L256 498M108 414C99.1022 427.072 107.739 439.313 108.402 453C109.128 467.993 108.78 484.485 113.043 499C115.885 508.675 122.091 517.229 124.957 527C126.595 532.583 125.389 538.374 126.681 544C128.33 551.184 133.004 558.242 136 565C148.663 562.892 147.573 576.264 157.961 576.847C166.952 577.352 170.929 566.114 165.532 560.062C159.985 553.844 153.493 556.857 151 547M122 417L135 430M242 417L243 417M52 420C49.6617 424.981 42.651 440.708 49.1875 444.682C53.548 447.333 59.6731 444.656 63.142 449.279C67.2074 454.696 66.144 466.54 66 473C61.6371 473 52.1613 471.21 48.6034 474.028C43.7464 477.875 47.7811 493.121 49.1852 498C50.5163 502.626 54.6522 504.868 56.412 509.089C57.714 512.212 56.8322 516.624 59.5887 519.066C64.9211 523.788 74.1186 521.884 79.8519 526.005C83.6161 528.711 82.1983 533.117 84.588 536.576C86.5462 539.409 89.305 541.256 89.4815 545C89.7503 550.701 85.1459 554.708 84.2292 560C82.6678 569.013 86.0201 580.62 78.581 588.772C73.867 593.938 65.7828 593.303 61.9877 600.015C56.1954 610.26 57.5769 635.996 60.7886 647C62.1244 651.577 65.2445 655.413 66.5262 660C69.2226 669.649 69.6954 682.148 74.5725 690.957C77.4813 696.21 83.8296 698.237 87.3511 703.039C89.6355 706.155 90.2013 711.602 93.4992 713.817C98.3355 717.066 108.502 712.408 109.643 706.995C111.083 700.161 107.204 682.124 96.3935 688.117C92.4293 690.315 90.1867 698.448 87 702M164 438C167.544 434.262 172.171 423.618 178.001 423.752C185.08 423.914 188.837 436.012 196 435.235C198.89 434.921 201.778 431.679 204 430M80 433L80 459M196 437C197.67 445.862 200.494 453.278 193 460M243 439L251.108 451.049L265 448.785L281 448M150 445L157 451M46 446L47 472M220 448L219 449M150 457L143 465M235 463L236 464M283 463L292.852 473.055L297.893 508.896L305.247 518.015L317.443 545L322.879 571L339 591L319 611.087L304 609M66 473L76 479M158 479C168.647 464.388 178.886 486.164 175.811 496.985C173.938 503.575 168.473 501.467 164.988 505.6C162.429 508.635 164.034 513.463 161.397 516.502C155.268 523.566 146.917 526.663 143 536M178 473L174 479M136 478L129 486M210 488C212.818 491.738 211.396 495.655 210.614 500C208.052 514.24 200.181 518.812 190 529L199 536M239 493L230 495M192 494C191.828 502.074 189.255 506.12 183 511L175 502M80 499C81.6456 507.559 88.4253 519.37 83 527M262 515C268.49 511.925 278.526 505.436 286 506.492C290.165 507.08 292.854 511.057 297 512M183 511L182 524C173.128 525.12 168.663 523.081 162 517M294 513C286.705 520.295 278.818 529.197 269 533M208 515C211.067 519.218 218.643 527.299 215.932 532.911C214.162 536.573 209.655 538.961 207 542M59 520C57.4342 528.561 58.3716 539.688 61 548L83 536M182 524L190 529M235 538L240 536M312 538L295 555C302.189 562.189 310.822 575.943 322 574M170 543L171 543M249 547L262 548M60 549C60 553.685 57.8809 565.662 61.858 568.971C67.3087 573.506 77.3205 565.072 82 563M285 551L294 555M221 557C231.488 557.253 227.735 562.573 232.603 568.722C236.217 573.287 244.31 571.446 246.917 577.059C250.116 583.945 238.717 589.303 236.028 594.17C232.867 599.891 235.669 610.241 234 617M136 565C137.559 573.275 141.251 584.016 151 576M212 594C208.54 597.431 197.539 609.377 192.094 607.079C186.667 604.789 178.466 583.432 177.926 578C177.613 574.855 176.111 570.505 179.319 568.399C183.964 565.348 196.104 571.341 202 572M170 567L177 569M251 568L248 576M232 569L227 576M60 571C57.3236 579.443 55.9261 591.313 61 599M287 575C298.94 584.393 301.713 584.036 314 575M161 578C160.931 583.868 159.051 586.813 155 591L167.109 605.57L193 614L193 609M148 581L154 590M94 586C90.184 601.984 91.0194 619.145 86.5856 635C84.4204 642.743 78.4764 650.363 80.1674 659C81.9289 667.996 91.3878 679.041 96 687M340 591L357 597C352.313 601.688 337.973 620.446 350.059 625.802C365.399 632.601 360.086 603.928 375 603.573C388.66 603.247 401.711 611.276 414 615.728C421.288 618.368 430.153 617.674 436.945 621.934C441.312 624.674 441.193 631.076 445.474 633.436C459.075 640.933 477.435 638.047 491 647C488.7 649.377 486.147 651.668 485.318 655C484.768 657.212 484.963 659.736 485.005 661.996C485.344 680.31 520.386 671.188 507.362 654.044C505.931 652.16 504.196 650.638 501.996 649.728C498.643 648.34 494.545 647.81 491 647M115 595L115 634M261 596L259 597M357 597C362.828 597.267 366.662 599.133 371 603M237 607C251.083 607.002 245.094 613.111 251.728 621.852C253.916 624.735 257.944 624.51 260.015 627.317C261.808 629.747 261.628 633.178 264.394 634.972C267.432 636.943 271.642 635.518 275 636.314C279.563 637.396 289.156 642.213 292.62 645.43C299.696 652.001 303.853 662.225 309.587 669.7C313.175 674.377 318.755 677.49 322.428 682.17C324.829 685.228 324.64 689.54 327.434 692.251C332.84 697.497 340.272 700.549 345.787 705.669C349.11 708.754 350.329 713.473 354.105 716.11C358.151 718.936 365.287 717.724 368.084 722.228C372.346 729.09 359.332 735.715 364.032 742.347C366.602 745.975 372.296 744.539 375.996 745.394C382.613 746.924 386.738 752.018 394 752.833C397.415 753.217 405.92 752.658 407.647 756.434C410.564 762.811 401.005 773.09 395 773.385C390.933 773.585 386.856 770.134 383 769M194 615C196.512 624.203 202.309 637.538 210.015 643.443C218.039 649.59 229.214 652.173 237.867 657.969C243.358 661.647 244.965 667.862 252 670.212C258.731 672.46 267.075 665.838 273.721 670.028C282.599 675.625 272.975 691.497 276.113 699C281.386 711.603 299.593 715.153 303.681 727C305.302 731.699 299.772 734.86 298.682 739C297.31 744.209 299.8 749.31 298 755M414 617C400.899 630.249 406.818 650.374 428 646.768C434.513 645.659 439.583 638.417 444 634M136 620L137 678M253 625L241 634M361 625L374 635M350 627C350 643.884 340.116 637.01 330 646C334.202 652.173 334.657 659.247 340.289 664.675C358.73 682.448 381.37 680.4 402.956 690.514C410.603 694.097 404.415 704.577 410.293 707.397C417.642 710.922 426.554 704.829 434 706.318C438.064 707.13 441.005 710.504 445 711.596C461.822 716.191 480.69 720.366 498 719M61 632C70.6696 632.006 76.119 635.266 83 642M350 639C357.612 646.767 366.421 656.507 377 660.272C384.232 662.846 393.418 662.02 401 663.212C405.884 663.98 410.048 666.968 415 667.699C418.788 668.259 423.314 667.155 426.906 668.603C433.042 671.078 431.205 679.495 436.303 682.297C445.743 687.485 457.808 689.139 468 692.645C475.659 695.28 485.989 700.721 494 701.165C498.615 701.421 502.169 697.125 507 697.515C512.884 697.99 517.537 705.18 523.725 703.642C528.761 702.39 527.835 693.793 529.148 690C530.569 685.894 534.016 682.994 537 680L512 664M389 639L405 641M157 641C163.15 650.086 161.856 658.606 164 669M293 644C303.674 638.215 317.37 645 329 645M477 643L465.513 655L460.697 662.687L445 662M314 647L306 662M107 656C115.529 659.842 115.55 669.531 120 677M69 661L79 660M190 663C191.303 668.158 189.724 673.653 190.09 679C191.031 692.764 193.943 710.778 200.455 722.911C208.034 737.03 222.868 743.548 233 755M463 665C468.462 671.718 478.525 673.849 485 668M86 671L73 679M255 672L255 676M224 675L231.455 694L236 713L243 712M537 680C550.429 683.108 551.485 691.804 559.843 700.157C563.715 704.026 570.59 703.538 574.83 707.278C582.507 714.048 583.832 722.005 589.139 729.722C592.125 734.065 598.62 733.742 602.012 738.108C610.438 748.954 611.387 761.139 617.423 773C620.668 779.377 626.212 781.222 630.142 786.39C633.2 790.411 634.607 800.965 634.964 805.995C635.451 812.879 623.16 814.498 621.319 822C618.7 832.665 623.181 845.878 621.15 857C617.567 876.631 605.326 892.871 598 911M420 684L433 683M166 688L174.736 706L177.819 737L188.62 750.17L197 765M122 689L122 691M143 693L143 695M312 698L313 698M348 706C366.04 693.707 386.889 704 407 704M559 701C556.185 703.848 552.957 711.169 549.687 712.788C543.048 716.075 530.376 708.237 526 704M148 704L149 704M129 710L129 711M325 713L339 725M92 714C82.5812 725.137 94.0228 733.374 98.9869 743.089C100.417 745.888 99.7128 749.172 101.603 751.816C103.606 754.616 106.908 755.975 108.582 759.093C112.261 765.949 115.008 774.674 122.043 779.145C130.822 784.725 134.974 775.288 135 768C140.944 768.14 144.599 770.052 149 774M235 714C237.421 724.136 241.898 723.429 248 731M552 715C554.162 724.017 562.099 731.341 570 735.914C573.413 737.89 578.431 737.985 580.914 741.303C588.925 752.006 579.842 759.985 580.673 770C581.529 780.321 590.076 788.418 591 799M289 716C284.878 723.847 289.738 735.182 298 738M213 718L214 718M150 719L150 720M371 724C386.287 724.869 402.738 722.993 418 726.459C430.651 729.332 442.478 737.191 455 739.836C464.883 741.923 475.852 739.596 486 741.3C500.449 743.727 519.722 757.412 528.185 769.17C535.042 778.696 530.928 787.326 534.875 797C541.35 812.871 555.325 836.209 546 854L529 854L533 868L546 858L556 879C559.508 876.033 565.349 875.52 567.925 871.852C574.795 862.07 571.536 852.64 572.04 842C572.308 836.352 575.662 831.571 576.03 826C576.458 819.513 571.934 814.895 570.429 809C569.286 804.523 570.325 800.301 568.081 796C559.659 779.86 543.996 765.194 543 746C549.485 746 555.505 745.446 560.961 749.613C568.087 755.056 570.941 764.302 580 767M122 723L122 724M335 725L331 733M513 725C524.374 728.765 533.896 738.587 543 746M318 726L319 726M156 730L157 733M589 731L581 739M114 733L99 742M340 740L363 737M128 739L109 757M454 741C454 757.323 444.326 764.569 430 754M215 742L208 749M257 742C268.161 750.588 257.439 763.942 268.09 774.401C270.174 776.447 277.396 782.002 280.104 782.397C284.578 783.049 289.476 780.807 293.896 782.603C300.139 785.141 303.788 792.102 311 794.491C316.755 796.397 323.305 793.494 328.981 795.742C332.607 797.178 334.019 800.911 337.129 802.991C346.42 809.202 355.033 802.825 361 796M363 743L353 754M316 746L315 747M331 747L333 747M164 750L164 751M266 750L282 762M453 755C459.52 760.339 467.564 758.079 473.867 762.728C477.186 765.176 477.756 769.596 481.133 772.005C487.484 776.536 497.023 778.687 502.397 784.649C505.535 788.131 503.121 793.906 504.988 798C509.433 807.743 515.967 813.402 519.239 824C521.412 831.036 528.655 842.345 526.227 849.852C524.737 854.458 514.545 853.368 511 859M116 772C122.814 765.187 127.423 758.999 135 768M326 762C333.039 762.001 335.824 765.098 342.039 766.683C351.741 769.157 358.952 767.024 366 776M219 767L240 789M478 770C471.856 775.196 462.898 772.5 459.553 781.004C454.188 794.646 468.699 799.397 475.482 806.278C484.397 815.32 491.047 827.171 498.589 836.741C503.237 842.639 509.434 846.612 514 853M425 774C435.558 780.866 442.426 791.012 456 787M206 775L207 776M443 775L437 781M268 776L259 785M622 781C608.924 794.086 616.545 800.545 628 812M129 783C132.44 791.907 138.746 800.359 146.129 806.582C148.975 808.981 152.952 809.494 155.502 812.278C159.973 817.16 162.351 825.21 169.999 826.698C176.706 828.002 178.127 816.405 185.995 819.672C194.373 823.15 193.404 835.877 189 842C200.126 853.117 213.566 859.65 226.791 867.314C231.299 869.927 234.47 877.392 240.981 875.454C247.955 873.379 249.576 863.072 244.863 858.439C236.439 850.159 218.845 841.872 208 837M161 787L164 789M528 789L531 789M396 790L395 792M408 790L414 822C409.822 826.592 395.383 840.018 396.688 845.985C397.859 851.339 404.932 854.988 409 858M155 811L166 801M412 801C421.311 801 433.766 805.705 440.681 812.303C449.724 820.933 440.203 828.471 432 830M464 801C452.28 815.262 460.584 829.367 473.09 840.787C476.478 843.882 485.785 847.235 485.079 852.981C484.487 857.795 473.308 864.068 469.17 861.377C457.892 854.043 447.406 841.117 442 829M354 806L355 809M293 808C306.838 812.503 317.92 818.318 327 830M637 811C652.668 819.408 652.635 845.161 651.665 861C651.396 865.39 654.147 870.873 652.672 875C649.938 882.65 640.153 884.493 636.569 891.105C634.562 894.806 634.845 899.269 633.002 903C626.094 916.988 616.17 929.288 608.669 943C603.569 952.323 599.143 962.767 591 970M395 845C385.768 843.286 373.288 839.861 369.367 829.625C364.776 817.637 383.711 813.785 391 816M445 817L455 816M414 822L419 822M592 828C599.199 848.002 588.01 867.568 579.452 885C577.313 889.358 576.543 902.159 569.012 901.23C563.574 900.559 559.029 885.128 555 881L540.87 899L516.909 923.799L508.71 936.96L479.272 964.001L478.832 977L471.334 989.772L461.039 996.228L408 1033M173 829C176.585 835.201 181.067 839.084 188 841M338 838C345.304 827.882 356.211 832.386 367 831M297 832C300.537 835.802 303.872 836.879 309 837M358 833C357.989 837.08 356.607 842.084 357.742 846C360.297 854.822 369.26 858.151 374.83 864.468C377.823 867.861 379.235 872.65 383.094 875.258C387.168 878.01 392.878 875.582 396.371 879.318C400.771 884.024 397.296 888.984 394 893M498 838L485 850M289 843L291 844M424 844C431.646 851.582 440.667 861.447 451 865M320 846L346 866M269 851L272 853M527 852L529 854M234 854L229 867M546 854L546 858M308 859L313 864M533 868L521 889M264 870C274.409 877.941 284.985 878.021 297 880.255C301.921 881.169 305.288 884.806 310 886.141C316.127 887.878 321.093 886.057 327 886.714C331.996 887.269 335.96 892.285 341 891.968C349.185 891.454 355.864 886.05 365 886M326 872L326 873M653 876C663.42 886.678 661.358 905.468 658.263 919C652.072 946.069 643.135 976.133 641.09 1004C640.095 1017.57 645.652 1039.03 639 1051C635.127 1047.13 623.959 1031.79 618.04 1033.35C613.13 1034.63 608.529 1044.39 605 1048M243 878C246.714 883.214 250.632 883.889 255.715 886.984C267.963 894.442 280.544 901.649 293 908.975C297.104 911.389 302.356 914.062 305.772 917.38C307.799 919.349 308.274 923.389 310.588 924.802C317.828 929.225 328.628 921.55 333.436 933.005C336.984 941.459 338.754 954.862 331.671 961.722C325.801 967.408 316.989 968.701 313.042 977C310.157 983.068 313.926 996.873 316 1003L346 984M401 884L409 879M431 879L432 879M458 880L459 881M556 880L555 881M508 899C504.749 901.475 501.205 905.908 497 906.508C489.958 907.515 476.643 898.307 479.546 890.188C481.141 885.725 490.926 882.68 495 881M422 891L424 893M485 903L480 907M569 904L559 914L557 905M339 905L339 906M635 905L657 919M464 907L465 907M558 914L552 922M439 915L437 917M361 978C363.215 974.407 366.384 966.381 370.275 964.603C375.237 962.336 381.709 964.486 386.961 962.157C393.485 959.264 397.211 954.838 405 954.394C410.03 954.108 413.979 958.384 419 957.486C426.509 956.144 430.378 949.021 437.015 947.318C442.151 946 447.795 947.661 453 947.126C459.746 946.432 468.659 943.306 474.945 940.739C479.664 938.812 479.329 934.006 482.51 930.714C490.042 922.918 507.547 915.49 516 923M394 922L395 922M463 922C470.605 925.945 469.221 933.977 467 941M375 924C361.172 933.617 348.77 926.634 334 931M591 925L589 927M310 926L310.985 957L312 976M417 927L420 928M470 929L480 929M390 934L392 935M568 938C558.579 947.448 548.199 956.259 539.144 966.089C536.322 969.154 535.645 973.621 532.606 976.427C527.961 980.716 520.875 977.017 516.801 982.148C509.453 991.402 514.381 1008.33 527 998L515 987M540 942L535 943M588 944L564 975M369 964L361 956C367.07 949.951 370.491 947.896 379 948M352 948L361 956M455 948C454.884 953.604 452.203 961.447 454.603 966.772C457.391 972.954 470.249 969.608 475 968M518 956L503 965M556 1035L556 1031C566.212 1029.41 570.393 1021.04 577.289 1014.46C584.162 1007.91 592.328 1001.79 598.674 994.896C612.417 979.965 625.903 957.249 649 956M454 968L440.896 982.006L415 992.843L389.996 1010.57L368 1017M403 977L404 977M480 978L490 977M396 984L396 985M554 984L555 984M581 984L556 1011M517 1003C512.307 1010.8 494.066 1000.4 506.015 991.653C507.874 990.292 509.831 989.644 512 989M367 991L375 991M543 992C537.857 997.679 534.657 996.087 528 998M544 1048C542.041 1056.23 535.743 1091.67 553.891 1080.58C563.294 1074.84 557.318 1062.13 562.488 1055.3C570.174 1045.15 582.616 1037.42 591.996 1028.83C608.476 1013.74 618.685 994 643 994M316 1003C317.469 1011.77 333.043 1019.18 339 1026L351 1018M485 1006L487 1006M316 1007C311.469 1013.3 314.37 1019.81 315 1027C316.742 1046.86 328.384 1060.71 339.491 1076.04C342.392 1080.04 342.931 1084.98 346 1089C355.421 1079.69 366.867 1082.35 379 1079.08C391.774 1075.64 408.604 1072.17 418.96 1063.52C423.682 1059.58 426.318 1053.83 430 1049M478 1018L448 1039M620 1032C621.805 1023.08 631.822 1020.19 640 1020M498 1024L500 1024M339 1026C339.427 1029.37 339.301 1034.81 341.742 1037.41C351.119 1047.41 374.314 1039.41 383 1033M520 1043C521.835 1039.5 522.49 1034.12 525.43 1031.41C528.235 1028.82 532.566 1030.22 536 1029.89C544.357 1029.11 548.129 1025.64 556 1031M322 1046C327.661 1040.52 332.235 1039.02 340 1039M482 1044L478 1047M497 1047C505.502 1051.9 510.201 1064.51 521 1062M405 1050C391.977 1059.96 375.7 1057.87 361 1062.21C352.504 1064.72 347.129 1069.87 341 1076M639 1051L637.108 1065L631.111 1102L623 1122C618.147 1122.38 612.848 1123.94 608 1122.84C605.023 1122.16 602.141 1119.08 599 1119.58C585.749 1121.66 580.766 1133.69 585 1145C575.747 1149.64 551.24 1156.36 542.603 1147.3C538.505 1143 543.357 1133.24 536.725 1130.06C533.677 1128.59 529.451 1132.05 526 1131.68C519.944 1131.03 516.47 1124.75 511 1124.22C507.545 1123.88 504.312 1126.91 502 1129.05C495.457 1135.12 488.688 1140.27 482 1146C485.209 1150.18 488.379 1157.48 494.004 1158.66C497.841 1159.47 506.035 1155.13 503.824 1150.32C502.487 1147.4 492.941 1144.78 490 1142M544 1061L560 1057M455 1059C445.224 1062.89 429.433 1077.82 449 1077M464 1076C471.233 1073.03 495.202 1051.22 498.786 1068.02C499.473 1071.24 499.741 1074.72 500 1078C511.25 1078.01 514.999 1075.72 515 1064M606 1090C606.538 1072.41 620.646 1068.64 636 1065M577 1072L575 1075M438 1077L423.027 1094.04L419.297 1105.95L408.225 1113.42L398 1127C405.851 1135.99 409.643 1126.86 419 1126.09C423.188 1125.75 429.846 1124.78 433.871 1125.89C437.93 1127 438.977 1131.69 444.001 1130.66C453.254 1128.78 459.935 1119.54 470 1119M468 1089C473.304 1090.76 483.447 1100.28 489.397 1095.23C495.043 1090.43 489.375 1082.81 499 1079M511 1079C517.593 1088.95 514.72 1099.22 528 1103M584 1128C571.308 1113.86 584.483 1114.17 589.864 1101.83C591.717 1097.58 586.579 1094.19 587.077 1090C587.981 1082.42 599.481 1081.38 605 1083M566 1088L569 1088M346 1089C347.952 1098.43 355.513 1110.61 367 1109.38C372.242 1108.82 374.659 1102.85 379.09 1100.65C392.248 1094.12 407.864 1092.1 422 1094M562 1094C550.517 1101.86 534.829 1112.68 535 1128M578 1096L579 1096M491 1098L488 1109M519 1100C513.69 1105.17 513.999 1108.92 514 1116C521.282 1116.06 528.345 1117.2 534 1122M492 1102L513 1105M437 1125L449.058 1105.05L464 1103M571 1106L568 1115L576 1116M370 1111C374.01 1124.88 385.811 1122.8 397 1127M538 1130L555.985 1126.26L567 1116M513 1117L512 1123M623 1122C626.403 1126.73 628.039 1137.3 621.853 1140.97C613.771 1145.78 594.321 1145 585 1145M446 1131L462 1146C453.061 1154.65 446.65 1151.13 436 1149.46C432.71 1148.95 429.41 1151.07 426 1150.89C417.113 1150.43 409.405 1142.1 407 1134M437 1132L436 1148M462 1146L482 1146M541 1148C533.33 1154.28 514.033 1159.36 505 1154"
     id="path3067" />
</svg>
