<?xml version="1.0" encoding="UTF-8" standalone="no"?>
<svg
   xmlns:dc="http://purl.org/dc/elements/1.1/"
   xmlns:cc="http://creativecommons.org/ns#"
   xmlns:rdf="http://www.w3.org/1999/02/22-rdf-syntax-ns#"
   xmlns:svg="http://www.w3.org/2000/svg"
   xmlns="http://www.w3.org/2000/svg"
   xmlns:sodipodi="http://sodipodi.sourceforge.net/DTD/sodipodi-0.dtd"
   xmlns:inkscape="http://www.inkscape.org/namespaces/inkscape"
   width="1300"
   height="2197"
   id="svg3980"
   version="1.1"
   inkscape:version="0.48.4 r9939"
   sodipodi:docname="limage.svg">
  <metadata
     id="metadata3988">
    <rdf:RDF>
      <cc:Work
         rdf:about="">
        <dc:format>image/svg+xml</dc:format>
        <dc:type
           rdf:resource="http://purl.org/dc/dcmitype/StillImage" />
        <dc:title></dc:title>
      </cc:Work>
    </rdf:RDF>
  </metadata>
  <defs
     id="defs3986" />
  <sodipodi:namedview
     pagecolor="#ffffff"
     bordercolor="#666666"
     borderopacity="1"
     objecttolerance="10"
     gridtolerance="10"
     guidetolerance="10"
     inkscape:pageopacity="0"
     inkscape:pageshadow="2"
     inkscape:window-width="1440"
     inkscape:window-height="858"
     id="namedview3984"
     showgrid="false"
     inkscape:zoom="0.32183802"
     inkscape:cx="171.49842"
     inkscape:cy="1098.5"
     inkscape:window-x="0"
     inkscape:window-y="19"
     inkscape:window-maximized="1"
     inkscape:current-layer="svg3980" />
  <path
     style="stroke:#0a0a0a;fill:none;stroke-width:22;stroke-miterlimit:4;stroke-dasharray:none;stroke-linecap:round;stroke-linejoin:round"
     d="M265 37C268.707 43.5317 277.09 42.7651 279.457 51C286.643 76.0024 268.384 98.6633 257.417 119C248.193 136.104 243.236 155.235 235.663 173C230.036 186.198 225.749 200.905 222.715 215C221.708 219.676 218.499 225.172 220.1 230C221.697 234.82 226.464 237.882 229.196 242C240.348 258.809 253.259 272.228 267.213 286.714C271.754 291.429 278.049 294.423 282.285 299.304C288.211 306.131 291.032 315.271 297.21 321.907C312.465 338.293 332.379 352.081 348.91 367.3C386.084 401.522 417.723 438.77 444.961 481C452.032 491.961 461.81 502.471 467.726 514C477.668 533.374 484.339 554.281 492.681 574C495.728 581.204 501.571 586.844 504.633 594C514.895 617.976 523.45 645.417 528.88 671C540.595 726.196 540.448 783.297 548.209 839C549.432 847.775 554.592 854.047 557.58 862C562.458 874.984 566.56 888.8 570.784 902C576.724 920.562 579.903 940.467 585.688 959C588.451 967.851 596.15 974.158 599.11 983C607.415 1007.81 615.322 1033.09 630.904 1054.99C644.887 1074.64 666.74 1079.58 687 1090.75C692.149 1093.59 695.682 1098.71 701 1101.23C707.23 1104.19 714.609 1104.49 721 1107.35C727.787 1110.38 733.714 1115.62 741 1117.49C749.236 1119.59 757.934 1119.21 766 1121.73C792.843 1130.09 818.404 1142.34 845 1151.76C860.265 1157.16 877.126 1160.21 892 1166.39C898.223 1168.98 902.531 1174.4 908 1178.08C921.763 1187.37 935.841 1196.72 950 1205.54C983.141 1226.18 1012.56 1249.24 1042.17 1274.61C1050.85 1282.05 1061.18 1287.73 1070 1295.15C1086.38 1308.92 1102.92 1327.49 1116.54 1344C1139.78 1372.18 1158.45 1404.66 1176.64 1436C1184.29 1449.19 1195.25 1459.82 1202.02 1474C1211.15 1493.15 1213.34 1515.02 1219.49 1535C1225.77 1555.37 1235.22 1576.77 1238.56 1598C1240.77 1612.05 1238.11 1626.83 1239.09 1641C1241.9 1681.8 1244.74 1723.04 1240.83 1764C1239.93 1773.37 1235.71 1781.71 1234.27 1791C1232.01 1805.67 1235.84 1821.68 1232.7 1836C1228.22 1856.4 1203.73 1853.51 1195.03 1869.17C1192.24 1874.2 1194.35 1882.43 1193.9 1888C1192.57 1904.44 1191.77 1920.5 1190.96 1937C1190.69 1942.45 1187.21 1945.95 1186.16 1951C1184.62 1958.46 1184.38 1967.35 1183.35 1975C1179.55 2003.38 1181.86 2033.19 1164.8 2058C1160.32 2064.51 1161.27 2075.01 1156.41 2080.58C1146.65 2091.75 1122.64 2084.19 1114 2076C1109.12 2080.22 1103.83 2085.01 1098 2087.86C1094.38 2089.64 1088.45 2089.73 1085.59 2092.59C1081.18 2097 1082.08 2122.76 1088.26 2125.55C1098.37 2130.1 1110.45 2122.67 1120 2121.21C1130.82 2119.56 1154.32 2125.88 1160.97 2113.9C1163.52 2109.3 1162.01 2101.11 1162 2096C1161.99 2090.06 1160.48 2086.77 1157 2082M162 546C160.69 556.087 153.949 559.913 144 559.995C140.745 560.022 136.197 560.306 134.603 556.772C129.669 545.828 135.944 529.16 136.826 518C138.535 496.37 136.398 471.721 134.91 450C134.258 440.477 134.525 430.364 132.483 421C130.744 413.027 126.096 405.992 124.45 398C122.615 389.096 123.092 378.43 119.786 370C113.167 353.118 100.698 334.776 97.4645 317C92.913 291.979 105.427 268.246 100.772 243.004C99.5971 236.635 92.1854 232.736 87 229.865C74.4141 222.897 57.1153 220.247 46 211.995C39.2662 206.997 29.19 198.606 34.939 189.044C44.3346 173.417 73.1813 193.093 84 197.496C91.4818 200.541 101.015 200.443 109 201.086C131.274 202.877 154.434 201.565 170.674 182.961C175.711 177.191 178.052 169.632 183.108 164.001C190.936 155.282 201.983 150.157 209.621 141.815C221.644 128.686 231.082 108.951 236.536 92C239.135 83.9233 242.985 76.0537 245.367 68C249.126 55.2883 248.616 43.5708 264 40M130 244C137.865 239.409 143.986 238 153 238M131 270C175.213 261.792 197.479 307.505 228.224 330.157C231.674 332.699 236.336 332.806 240 334.934C248.454 339.844 250.8 344.775 261 346M125 305C131.895 315.477 139.432 330.739 142.439 343C143.742 348.313 141.379 353.576 142.939 359C144.847 365.635 149.962 370.84 152.84 377C154.679 380.935 154.813 385.096 157 389L172 389M160 306L176 322M175 353L175 356M157 389C157.257 401.475 158.867 415.871 161.344 428C162.075 431.579 165.306 434.374 165.5 438C166.065 448.53 159.998 457.671 162.904 469C164.68 475.928 170.402 478.472 173.991 484.089C177.808 490.064 177.442 506.13 172.436 511.501C164.229 520.306 149.302 514.512 139 518M294 514C287.405 509.111 279.169 498.606 270 500.724C259.712 503.101 254.484 513.093 246 518.142C242.853 520.015 236.479 521.355 234.028 517.682C226.579 506.52 246.1 488.005 247.163 477C248.236 465.889 235.774 457.329 239.92 445C243.99 432.894 253.491 431.995 261.397 424.786C267.834 418.917 264.686 408.568 274.001 402.549C282.407 397.116 295.602 391.159 304.985 396.279C313.487 400.918 319.617 411.351 328 417.015C336.753 422.927 349.735 426.296 356.298 435.108C360.729 441.058 360.236 449.561 364.225 455.826C366.799 459.87 371.566 461.487 374.582 465.104C377.695 468.838 378.665 473.939 381.387 477.961C384.13 482.012 388.251 484.834 390.856 489.001C395.029 495.678 400.284 503.679 403.221 511C404.82 514.985 404.756 519.998 407.279 523.582C411.682 529.837 421.822 529.058 426.613 536.043C436.653 550.682 439.984 569.116 447.184 585C450.751 592.869 458.824 597.86 461.33 606C465.321 618.961 464.734 633.234 469.148 646C470.59 650.17 474.168 653.061 476.084 657C479.969 664.988 479.285 673.021 482.018 681C484.091 687.053 488.355 691.452 489.535 698C494.34 724.635 491.102 753.117 495.213 780C497.498 794.942 506.645 809.869 503.641 825.985C501.969 834.955 473.632 841.782 466.105 837.718C458.09 833.39 458.832 820.133 452 814M263 425C274.447 436.445 287.368 443.609 273 459M168 437C185.317 443.678 190.94 456.537 201 471M227 437L241 441M314 464L317 465M294 477L302 485M174 513C192.694 520.783 201.261 535.261 215 549L234 519M243 520C246.172 523.174 250.579 526.524 251.871 531C255.563 543.788 248.777 550.947 239 556.954C235.545 559.077 232.393 562.254 228 561.728C223.018 561.131 219.322 556.312 216 553C207.976 563.517 208.47 588.905 213 601C218.217 595.909 222.646 593.321 230 593M407 525C397.882 534.143 388.141 547.087 383 559M348 531L343 536M215 549L216 552M288 555C290.844 562.368 284.869 572.538 280 578M134 558C129.336 563.029 127.836 568.546 125.884 575C123.863 581.684 119.742 598.113 125.013 604.143C129.141 608.865 140.482 606.67 146 607.169C159.396 608.379 173.412 604.079 187 604.079C195.411 604.079 202.094 607.29 210 609L211.826 661L198.97 681L196 712C207.02 717.124 196.86 729.2 205.148 735.397C220.874 747.153 237.616 717.144 219.999 710.603C217.321 709.609 213.809 709.87 211 710.044C207.233 710.278 204.883 711.699 202 714M356 567L367 579M331 571L330 572M302 597L304 596M212 602L211 608M332 604C326.565 609.451 318.468 618.26 320.773 627C322.676 634.216 332.329 638.32 328.547 647C326.182 652.427 322.824 660.393 317.906 663.87C311.064 668.708 299.633 670.14 295.558 678.015C291.052 686.723 293.689 693.027 303 696M124 605C110.62 621.916 112.847 638.835 110.831 659C110.231 665.006 107.514 675.939 113.228 680.258C120.545 685.786 143.562 676.093 147.357 686.144C148.878 690.173 145.951 696.201 144.666 700C138.72 717.58 123.225 723.775 111 736C120.693 745.693 137.233 754.331 137.523 770C137.83 786.585 110.441 788.272 101.148 780.235C94.9118 774.842 96.987 753.184 99.7423 746C101.126 742.393 105.866 739.818 106.369 736C106.922 731.799 100.338 725.799 99.4645 721C96.7347 705.999 103.4 691.838 112 680M357 626L366 620M421 630L419 642M279 636L278 650M383 637L384 659M114 645L146 645M341 709C330.666 703.59 333.755 693.279 343.004 687.883C347.723 685.129 352.85 686.393 356.062 680.981C360.191 674.022 356.314 665.442 358.318 658.093C360.637 649.589 373.829 646.728 381 645M254 647L253 649M423 672L441 669M148 684C154.294 680.406 161.983 680.864 169 679.54C179.816 677.499 192.163 668.217 203 674M209 672C214.485 677.485 233.395 691.547 232.279 699.999C231.599 705.152 225.928 707.672 222 710M390 681L403 690M282 694L291 690M162 737C172.757 725.854 180.656 718.964 195 713M383 734C371.097 733.66 375.712 717.05 383 713M251 722C260.262 730.16 264.168 737.518 262.826 750C262.357 754.366 261.081 760.626 255.981 761.593C251.21 762.497 231.677 756.579 229.6 760.361C219.03 779.601 241.647 786.522 251 798M478 722L490 723M293 724L293 725M202 733C198.905 738.799 195.065 764.181 201.318 768.558C207.602 772.957 218.769 771 226 771M299 733L294 749M108 736L111 736M221 736C226.849 742.045 228.827 748.65 229 757M198 769C193.095 783.529 191.882 796.856 194.805 812C196.781 822.242 201.071 831.469 201.816 842C202.844 856.544 201.092 871.316 203.21 886C203.964 891.226 207.159 895.736 207.815 901C208.719 908.262 206.928 915.844 208.761 923C213.751 942.481 227.201 959.468 233.096 979C235.939 988.417 233.452 999.229 235.45 1009C238.127 1022.09 246.954 1037.66 254 1049C267.093 1042.29 287.001 1058.61 279.052 1072.98C274.366 1081.45 258.279 1073.05 256.109 1066C254.507 1060.79 254.648 1055.21 253 1050M449 772L451 773M314 777C326.053 778.666 338.217 789.24 347 797.17C351.324 801.074 357.453 808.567 364 808.431C369.004 808.327 374.38 801.198 379 799M97 780C81.5951 809.395 85.1424 845.064 86.5409 877C87.2671 893.584 86.0451 909.894 91.6096 926C94.2484 933.638 102.449 937.037 105.258 944.039C107.481 949.58 105.759 956.402 108.653 961.853C110.794 965.886 117.053 966.111 121 967.341C136.164 972.067 158.672 971.369 155.837 993C153.792 1008.61 122.374 1009.77 112 1018C109.094 1008.17 110.605 997.138 109.91 987C109.408 979.665 107.379 971.785 111 965M328 784L305 812M152 800C147.213 820.108 151.735 843.306 149.285 864C148.795 868.147 149.854 873.046 148.397 877C143.829 889.388 128.145 882.927 125 894M431 801L432 802M365 810L368.393 843L359 854M121 822C113.778 837.385 123.355 859.78 123 877L88 877M88 826L115 830M279 826C282.943 830.026 286.074 835.432 292 836M410 830L407 834M504 832L506 875C499.053 876.084 495.422 880.444 490 884.444C486.004 887.392 479.662 888.197 476.603 892.225C471.946 898.357 474.545 916.799 476 924M288 837L265 865M392 855L392 857M437 860L438 862M506 875C512.072 881.592 521.878 887.232 526.084 895.001C530.97 904.025 534.596 931.173 526.436 939.301C522.507 943.214 515.058 944.05 510 945.749C501.079 948.747 493.342 953.839 484 956M293 892C295.594 873.609 315.577 877.727 324.272 889.213C330.511 897.454 326.602 911.613 329 921C333.506 917.666 355.716 911.966 356.812 921.059C358.409 934.288 348.726 940.776 340 948L324 931C319.33 934.095 309.167 933.146 306.14 937.318C303.254 941.295 301.27 957.795 303.693 961.985C306.325 966.535 311.618 968.215 316 970.485C321.351 973.257 331.27 976.972 336.411 971.486C341.19 966.387 338.792 954.508 340 948M124 878L128 886M332 878L324 888M141 887C154.759 898.237 147.399 908.983 148.818 924C150.408 940.834 168.186 963.029 154 978M253 887L240 903M390 905C395.485 908.278 393.973 913.411 393.285 919C392.268 927.256 390.999 935.864 389.334 944C388.564 947.762 386.364 952.201 387.835 956C391.408 965.23 405.588 975.803 402.957 987C401.093 994.932 389.214 1000.29 384 1006M427 919L444 916M329 921L325 930M528 940C533.447 948.218 529.6 959.025 534.742 966.961C541.066 976.719 549.723 984.313 555.482 995C558.812 1001.18 558.393 1008.99 562.089 1014.91C566.564 1022.07 575.173 1023.01 578.15 1032C579.862 1037.17 581.528 1045.58 580.837 1051C579.974 1057.78 575.31 1060.65 578.804 1067.96C587.213 1085.54 612.98 1088.65 614 1112C622.924 1113.13 632.348 1112.31 641 1115.13C645.518 1116.61 648.657 1120.35 653 1122.15C657.812 1124.15 663.412 1124.27 667.91 1127.09C671.208 1129.15 672.823 1133.06 676.174 1134.98C682.498 1138.6 692.016 1138.36 699 1140.43C707.695 1143.01 715.147 1148.95 724 1151.56C730.548 1153.49 737.403 1152.88 744 1154.75C748.918 1156.13 753.032 1159.89 758 1160.77C769.719 1162.85 783.294 1161.14 794 1167.36C803.295 1172.77 804.096 1185.67 812.39 1190.97C815.571 1193.01 821.312 1192.57 825 1193.26C842.066 1196.45 859.755 1194.02 872 1208C866.85 1213.15 856.402 1223.62 857.751 1232C859.204 1241.03 883.111 1249.54 891 1247.82C895.517 1246.83 899.269 1242.43 902 1239C911.391 1246.72 923.002 1246.25 934 1249.36C942.927 1251.89 950.558 1258.21 959 1261.85C966.763 1265.2 978.147 1269.83 982.072 1278.01C983.799 1281.62 981.413 1286.38 980.666 1290C979.795 1294.22 980.13 1299 978.181 1302.94C972.115 1315.22 950 1295.4 942 1295.04C933.242 1294.64 923.744 1303.54 916 1301.79C911.728 1300.83 908.319 1297.4 904 1296.25C878.593 1289.48 853.347 1282.93 830 1271.67C823.576 1268.57 815.055 1269.78 809.133 1265.91C800.867 1260.51 804.773 1244.78 794.816 1240.6C787.845 1237.68 777.524 1240.59 770 1239.41C761.715 1238.1 755.195 1232.82 747 1231.44C732.397 1228.98 716.289 1230.12 702 1226.53C688.104 1223.04 673.271 1209.28 663.015 1199.83C659.209 1196.33 655.548 1190.23 650.83 1187.97C647.87 1186.56 644.045 1188.31 641 1188.71C633.172 1189.74 623.853 1188.61 617.024 1193.56C610.509 1198.29 618.119 1209.54 620.217 1216C626.96 1236.75 657.129 1255.93 677 1262.48C691.153 1267.14 706.629 1267.61 721 1271.49C726.474 1272.97 730.752 1276.54 736 1278.39C741.131 1280.19 747.28 1279.83 751.956 1282.85C763.088 1290.06 751.084 1309.24 762.043 1313.69C775.883 1319.31 793.763 1308.54 808 1311.48C814.484 1312.82 817.921 1318.77 824 1320.58C854.807 1329.75 889.955 1335 922 1335M365 993C341.289 983.669 373.102 958.346 386 955M266 994C270.478 984.147 275.539 980.891 282.671 973.772C289.086 967.37 290.972 962.438 301 962M534 967L501 990M337 972C342.03 976.591 347.059 980.375 354 981M437 998L448 994M157 998C175.618 1006.21 161.158 1027.41 156.934 1040C155.265 1044.98 159.146 1048.99 158.775 1054C158.123 1062.81 153.771 1079.5 149.005 1086.99C140.975 1099.59 124.439 1102.78 114 1113C99.3225 1095.61 110.461 1074.91 112.929 1056C114.548 1043.6 112.532 1030.38 112 1018M318 1007L313 1011M459 1008C461.039 1010.56 462.871 1014.14 466.054 1015.4C474.435 1018.71 480.87 1012.56 488 1020M281 1013C281.342 1020.48 283.434 1028.63 291.001 1031.71C295.574 1033.57 300.012 1032.66 303.961 1036.15C313.064 1044.19 314.357 1055.96 328 1056L333 1086C321.096 1091.41 311.208 1098.79 302 1108L290.43 1097.96L286.062 1083.85L276 1078M562 1016L549.631 1030L556 1039L576 1059M532 1023L548 1031M411 1034C416.342 1033.32 421.301 1032.17 425.852 1035.94C432.064 1041.09 426.383 1049.88 430.603 1055.9C436.912 1064.89 464.605 1060.37 460.829 1077C458.093 1089.05 443.345 1092.6 438.028 1102.17C436.206 1105.45 436.961 1110.38 437.004 1114C437.051 1117.96 437.134 1123.58 440.43 1126.4C445.865 1131.04 455.335 1124.8 460.486 1130.32C465.167 1135.33 462.899 1145.7 465.919 1152C470.343 1161.23 477.92 1156.66 483.486 1162.43C488.054 1167.18 485.001 1175.03 491.108 1179.26C496.858 1183.24 505.529 1179.94 512 1181.28C517.162 1182.35 520.4 1187 525 1189.24C530.254 1191.78 536.85 1192.18 541.787 1195.28C551.076 1201.1 555.583 1225.48 569 1225.65C580.138 1225.8 579.043 1206.2 584.638 1200.32C589.477 1195.23 605.399 1197.76 612 1198M115 1057C130.463 1060.35 141.922 1048.1 155 1044M502 1046L502 1047M344 1047C341.942 1054.12 335.268 1053.83 329 1055M343 1051C353.848 1059.36 360.691 1061 374 1061M467 1053L460 1070M317 1054L287 1083M430 1056L420 1072M359 1062C357.712 1068.93 357.55 1075.84 353.671 1082C350.816 1086.53 344.495 1090.44 343.897 1096C343.006 1104.29 347.048 1115.39 351.789 1122C353.512 1124.4 356.552 1128.82 360 1128.37C363.629 1127.9 367.036 1123.08 370 1121.1C379.586 1114.72 386.876 1109.3 395 1101M534 1068C540.995 1073.74 551.259 1086.91 562 1083.09C567.973 1080.97 574.099 1074.07 579 1070M181 1082C180.176 1092.09 173.812 1099.61 172.225 1109C168.445 1131.36 167.591 1155.97 161.405 1178C157.029 1193.59 147.495 1207.76 149.464 1225C149.918 1228.98 153.871 1232.61 155.846 1236C162.577 1247.55 172.287 1257.89 175.381 1271C178.371 1283.67 167.513 1292.12 164.542 1303C163.565 1306.58 166.156 1310.84 167.539 1314C172.413 1325.14 177.021 1328 189.91 1325.85C199.492 1324.25 204.687 1312.41 203.91 1304C202.719 1291.08 190.418 1275.7 177 1275M333 1087L343 1095M214 1104L214 1178M484 1107L485 1107M302 1109C308.891 1127 321.17 1129.97 339 1134.85C348.041 1137.32 358.954 1143.15 359 1130M614 1112C608.424 1118.72 604.713 1128.53 596.999 1133.14C588.375 1138.3 574.011 1132.86 565 1131M114 1113C113.84 1120.74 110.429 1127.48 109.604 1135C108.267 1147.21 111.689 1160.7 111.799 1173C111.872 1181.28 110.426 1188.6 112.211 1197C113.828 1204.61 118.577 1220.64 125.39 1225.11C130.263 1228.31 142.247 1226 148 1226M650 1122C642.875 1129.94 644.588 1137.11 643.911 1147C643.673 1150.46 642.174 1154.56 644.029 1157.81C647.658 1164.17 664.512 1163.79 669.566 1159.4C674.8 1154.85 671.42 1142.39 675 1136M440 1128L435 1146M512 1130L512 1131M358 1139L367.709 1161.96L376.084 1173L385.185 1190.68L420 1206.53L433 1217.14L444.621 1222.53L455.185 1237.1L476.775 1248.61L487.04 1271L507.487 1285.42L515.594 1303L530.582 1318.17L538 1330C529.957 1338.7 534.7 1354.67 542.185 1362.98C545.329 1366.48 550.456 1368.4 553.066 1372.21C558.563 1380.25 556.64 1390.2 555 1399M245 1144C245.014 1165.07 245.392 1188.39 250.236 1209C253.571 1223.19 257.024 1238.24 261.761 1252C263.326 1256.55 266.644 1260.3 267.765 1265C270.118 1274.87 273.929 1287.16 274.895 1297C275.849 1306.71 274.06 1316.39 276.515 1326C278.932 1335.47 286.635 1342.94 290.225 1352C296.133 1366.91 298.339 1382.63 306 1397M471 1160L448 1177M671 1160L693 1178M756 1161L753.972 1186.57L744 1189L716 1187M652 1165L651 1185M113 1174C118.281 1173.89 123.751 1172.25 129 1173.39C138.204 1175.39 147.286 1184.82 154 1191M756 1189C777.018 1193.98 791.756 1210.07 811 1191M544 1195C556.248 1186.66 574.837 1188.96 585 1199M293 1191L301.697 1206L306 1241M873 1208C884.437 1212.55 895.384 1214.52 902 1226C917.304 1214.99 930.591 1234.49 933 1248M191 1223C197.753 1219.06 205.827 1216.87 210.772 1225.05C216.594 1234.69 216.55 1250.1 219.556 1261C222.141 1270.37 227.907 1277.17 231.39 1286C236.116 1297.98 237.92 1310.86 243 1323M902 1226L902 1239M125 1228C124.196 1235.2 126.227 1257.17 135.184 1259.47C141.823 1261.18 156.512 1251.28 161 1247M571 1228C571.79 1246.4 586.089 1251.93 597.812 1264.17C603.558 1270.17 600.97 1279.84 606.513 1285.15C609.603 1288.11 614.404 1288.97 617.985 1291.21C626.463 1296.52 637.088 1304.05 644.582 1310.8C650.293 1315.94 649.88 1325.41 657.043 1329.58C663.089 1333.1 670.461 1333.25 677 1335.33C682.157 1336.97 685.249 1342.37 690.104 1343.68C698.836 1346.05 709.12 1341.81 718 1342.13C727.921 1342.5 738.102 1345.98 748 1346.9C757.82 1347.81 768.331 1346.26 778 1348.63C787.638 1351 794.791 1358.43 804 1361.2C812.103 1363.64 820.932 1360.69 829 1364.07C834.354 1366.31 838.492 1372.93 844 1374.07C856.336 1376.62 871.997 1371.69 885 1373.29C920.86 1377.69 957.109 1398.58 980.502 1426.42C985.054 1431.84 991.727 1446.07 992.587 1453C993.671 1461.73 989.829 1468.59 992.599 1478C995.168 1486.73 1003.43 1492.49 1006.83 1501C1013.06 1516.62 1013.52 1531.53 1015.17 1548C1016.78 1564.07 1020.54 1574.07 1014.4 1590C1010.89 1599.12 999.944 1603.51 993.147 1609.6C988.821 1613.48 989.106 1620.2 986.03 1625C980.836 1633.11 970.825 1636.92 969 1647M828 1228L855 1232M354 1231L353.171 1263L361.75 1308L367.61 1320L371.84 1341L393.437 1365.29L399.815 1378.06L414 1384.33L434 1402M478 1249C484.682 1242.48 502.598 1235.94 510.656 1244.23C519.872 1253.7 516.087 1276.67 508 1285M420 1242C407.861 1261.17 426.978 1271.57 430.812 1289C432.637 1297.3 431.53 1314.22 437.728 1320.51C441.01 1323.85 448.971 1321.75 453 1321M135 1261L139.008 1284.91L162 1303M807 1266C799.236 1270.76 789.731 1269 781 1269M309 1278L323.481 1307L325.39 1329L329.805 1342L330.384 1368L350.505 1392.17L369 1422M985 1279C1003.38 1287.14 1016.76 1294.46 1024.15 1315C1027.69 1324.85 1024.09 1334.65 1032.21 1343.96C1039.41 1352.22 1050.17 1362.09 1060 1366.95C1066.1 1369.96 1076.89 1369.78 1080.47 1376.06C1085.22 1384.41 1088.67 1400.65 1085.89 1410C1084.14 1415.88 1076.65 1421.91 1078.02 1428C1083.41 1451.99 1099.46 1472.08 1102.71 1497C1104.44 1510.27 1100.28 1522.85 1100.27 1536C1100.27 1541.67 1104.26 1546.43 1104.95 1552C1106.57 1565.26 1103.21 1584.45 1098.85 1597C1096.79 1602.92 1090.13 1605.18 1087.89 1611C1085.94 1616.1 1087.87 1621.82 1086.15 1627C1083.91 1633.72 1077.96 1638.48 1075.21 1645C1072.75 1650.84 1073.27 1657.24 1070.09 1663C1067.03 1668.55 1061.46 1671.21 1058.09 1676.21C1055.47 1680.08 1055.33 1685.14 1052.35 1688.87C1048.52 1693.66 1042.16 1693.1 1037.58 1696.55C1030.23 1702.06 1028.4 1709.5 1022.58 1715.66C1018.57 1719.9 1012.29 1720.61 1008.05 1725.02C1002.15 1731.16 1004.08 1739.56 999.272 1745.78C996.32 1749.6 990.868 1749.77 987.609 1753.27C973.008 1768.97 955.077 1785.07 934 1791M605 1285C597.454 1292.48 590.346 1294.69 580 1296M646 1310C671.969 1289.97 699.671 1301.58 728 1306.54C736.979 1308.11 746.9 1307 756 1307M977 1307C988.047 1319.38 1006.82 1323.59 1023 1325M1026 1317C1048.15 1317.46 1063.15 1329.85 1073.59 1349C1076.62 1354.56 1077.56 1364.7 1081.93 1369.07C1088 1375.13 1099.23 1372.74 1105.09 1380.19C1121.42 1400.91 1124.11 1425.68 1135.09 1449C1137.68 1454.49 1140.33 1461.34 1144.22 1466C1147.92 1470.42 1153.6 1473.46 1155.74 1479C1159.58 1488.98 1159.59 1501.11 1164.56 1510.61C1167.78 1516.75 1177.82 1522.42 1182.78 1527.58C1187.61 1532.61 1190.81 1541.29 1192.49 1548C1196.22 1562.9 1193.78 1577.95 1195.46 1593C1197.07 1607.5 1202.52 1624.14 1198.68 1638.98C1196.99 1645.55 1188.59 1646.24 1184.23 1650.39C1179.16 1655.22 1177.11 1671.28 1178.89 1677.96C1181.62 1688.21 1200.58 1681.55 1205.97 1692.02C1208.34 1696.6 1207 1703.98 1207 1709C1207 1727.48 1200.1 1744.94 1193.4 1762C1191.37 1767.15 1191.54 1774.29 1188.97 1778.9C1186.02 1784.21 1178.15 1785.35 1173 1787.45C1164.93 1790.75 1156.68 1796.76 1150 1802.33C1135.14 1814.71 1126.67 1831.12 1113.91 1845C1108.25 1851.15 1101.17 1854.82 1095.09 1860.33C1082.99 1871.3 1071.04 1884.63 1060.25 1896.96C1051 1907.53 1033.92 1911.74 1032 1926M438 1324C437.446 1329.19 436.726 1338.38 440.564 1342.5C446.787 1349.18 456.432 1346.53 460 1357M604 1324C608.378 1329.26 614.107 1331.58 618.895 1336.19C622.703 1339.86 623.231 1344.53 629 1345M171 1325C159.688 1336.58 163.579 1347.7 170.248 1361C172.611 1365.71 175.732 1372.38 181.015 1374.41C191.555 1378.46 203.329 1363.83 212 1361.55C222.665 1358.76 238.117 1380.04 241.762 1388C243.706 1392.25 249.456 1407.36 246.223 1411.41C240.549 1418.53 215.871 1421.26 217.506 1435C219.059 1448.05 234.553 1444.77 240.062 1453.13C243.538 1458.41 242.88 1465.59 246.698 1470.91C257.339 1485.73 271.951 1498.42 284.996 1511.04C300.617 1526.16 315.777 1541.21 333.09 1554.36C360.117 1574.9 389.695 1593.37 417.961 1612.13C425.716 1617.28 431.949 1624.69 440 1629.76C450.883 1636.6 463.722 1640.52 475 1646.44C486.025 1652.23 497.224 1661.13 508 1667.91C522.521 1677.05 538.282 1684.2 553 1692.97C558.419 1696.2 565.399 1698.21 569.606 1703.1C573.923 1708.13 573.97 1715.01 576 1721C587.455 1713.34 613.018 1716.87 619.973 1730.04C623.387 1736.5 621.055 1745.1 622.518 1752C624.375 1760.76 627.264 1769.46 622.468 1778C613.297 1794.32 585.643 1794.91 579.912 1815C578.738 1819.12 580.678 1824.84 581.271 1829C582.737 1839.29 581.804 1850.74 587 1860L606 1842.31L628 1837.29L648 1826M194 1327C207.071 1334.01 206.957 1347.13 212 1359M539 1330C549.393 1333.99 575.739 1336.62 566.826 1354C565.301 1356.97 562.694 1359.34 560.709 1362C558.303 1365.23 555.835 1368.13 553 1371M396 1333L397 1333M225 1343L226 1345M689 1344C683.879 1351.66 667.003 1375.02 680.019 1381.82C686.673 1385.3 695.929 1381.98 703 1384.86C712.144 1388.57 716.466 1394.87 727 1396.56C734.607 1397.78 750.979 1396.25 756.667 1401.65C760.12 1404.93 757.238 1410.23 756.14 1414C753.279 1423.82 748.357 1428.61 758 1436M954 1345C966.953 1351.15 980.054 1360.37 991 1369.59C996.125 1373.91 1002.31 1382.01 1008.26 1384.81C1017.99 1389.38 1028.83 1382.18 1039 1389.31C1052.79 1398.98 1058.86 1418 1075 1424M570 1346L606 1357.13L618.298 1357.96L623 1346M619 1359L635 1370.09L657 1367.18L673 1369M1081 1370L1079 1372M473 1373L523 1415M843 1375C843 1382.14 845.588 1395.54 841.972 1401.81C833.312 1416.82 807.213 1409.09 799 1399M185 1377L189.394 1396.91L201.142 1406.13L216 1433M232 1378L215.985 1395.79L202 1405M675 1378L656 1399M399 1379L385 1393M586 1386L584 1388M616 1386L618 1386M1008 1386C1008.72 1395.08 1013.09 1401.83 1016.57 1410C1019.21 1416.19 1019.15 1423.09 1022.53 1429C1032.3 1446.09 1047.27 1461.16 1056.16 1479C1060.01 1486.73 1057.17 1496.03 1059.65 1504C1063.17 1515.26 1070.96 1521.89 1069.91 1535C1069.13 1544.67 1062.81 1553.15 1062.09 1563C1061.51 1570.96 1064.7 1578.16 1064.96 1586C1065.25 1595.13 1061.7 1604.61 1058.44 1613C1053.62 1625.41 1047.17 1620.72 1038 1626.73C1033.11 1629.93 1033.1 1634.81 1029.68 1638.9C1026.11 1643.18 1020.41 1645.05 1016.62 1649.18C1011.55 1654.71 1010.79 1662.31 1005.81 1668C991.467 1684.42 974.254 1698.44 960.649 1715.21C952.986 1724.65 949.421 1736.15 939.996 1744.91C934.818 1749.72 928.042 1752.04 923.043 1757.04C918.067 1762.02 915.69 1768.98 909.961 1773.27C902.494 1778.86 889.071 1785.01 886.641 1795C885.281 1800.59 889.253 1810.1 890 1816L910 1814M558 1388L565 1388M492 1393C482.095 1403.71 487.098 1427.25 497.174 1436.85C500.553 1440.07 505.284 1439.77 508.775 1442.65C511.902 1445.23 512.298 1449.93 515.532 1452.31C518.426 1454.44 522.796 1452.49 526 1452.17C532.029 1451.57 542.511 1450.35 547.957 1453.32C552.197 1455.63 553.833 1460.61 557.105 1463.94C561.444 1468.36 572.055 1474.15 578 1475.89C589.166 1479.15 602.972 1472.47 613.995 1477.01C620.769 1479.8 619.455 1487.4 625.059 1490.91C641.774 1501.39 661.329 1492.07 670 1477M843 1403C847.213 1406.87 851.248 1410.27 857 1411.38C868.114 1413.53 881.322 1408.92 885.951 1423C891.415 1439.61 866.49 1434.09 859.188 1440.42C853.111 1445.69 854.677 1456.64 848.581 1461.15C843.4 1464.99 823.004 1464.89 818.279 1460.57C814.966 1457.53 815.386 1452.56 811.853 1449.65C805.305 1444.25 796.724 1441.77 790 1436M247 1412C251.26 1416.4 252.122 1422.06 255.843 1426.36C259.476 1430.56 265.875 1431.95 269.91 1436.04C277.749 1443.99 282.153 1454.18 288.901 1462.9C291.558 1466.33 295.758 1467.94 298.437 1471.3C301.118 1474.66 301.448 1479.39 303.818 1482.99C308.445 1490.01 316.1 1497.82 322.17 1503.71C339.746 1520.78 363.121 1529.9 383 1543.65C395.763 1552.48 404.06 1567.12 417 1575.16C423.579 1579.24 432.591 1577.37 438.674 1581.03C444.568 1584.57 445.858 1592.87 452.015 1596.65C462.287 1602.96 471.777 1600.01 482 1603.84C492.141 1607.65 500.993 1615.26 511 1619.69C529.324 1627.8 548.835 1633.08 568 1638.7C583.426 1643.23 597.732 1651.79 614 1653.81C629.628 1655.76 645.514 1651.87 661 1652.76C671.129 1653.34 688.218 1662.97 696.486 1652.86C699.314 1649.4 698.31 1644.69 700.742 1641.09C703.457 1637.09 711.249 1635.42 711.559 1630C711.807 1625.65 706.926 1620.57 704.872 1617C694.925 1599.72 676.318 1592.94 666.681 1576C663.144 1569.78 663.386 1561.95 664.289 1555C664.632 1552.36 666.807 1547.28 664.357 1545.18C653.583 1535.91 636.71 1545.31 629 1553M606 1414C611.735 1412.63 619.608 1412.14 624.671 1415.85C627.541 1417.96 628.611 1421.67 632.104 1423C638.529 1425.46 646.309 1423.38 653 1424.18C665.666 1425.71 673.922 1432.75 682 1442M408 1426L440.606 1459L449 1483M255 1427L248.972 1442L240 1451M712 1428L734 1436.09L749 1429M888 1430C894.412 1434.66 901.265 1435.62 908 1439.21C913.018 1441.89 916.141 1446.81 921.015 1449.59C924.949 1451.83 930.277 1452.63 933.682 1455.7C940.413 1461.76 932.901 1475.55 937.603 1483C943.967 1493.08 954.318 1500.02 959.877 1511C965.266 1521.65 965.556 1535.42 970.173 1547C973.865 1556.26 981.38 1568.24 978.667 1578.89C976.591 1587.04 961.922 1580.87 956.43 1583.6C948.841 1587.38 950.982 1601.46 951 1608M380 1434L385 1441M824 1438L813 1450M499 1440L480 1461M849 1462C852.447 1465.6 856.103 1469.43 858.236 1474C860.061 1477.91 859.84 1483.32 863.303 1486.3C868.85 1491.07 877.083 1491.2 882.826 1496.46C891.707 1504.61 895.723 1517.06 904.414 1525.74C913.547 1534.86 925.317 1539.16 923.64 1555C922.587 1564.95 908.573 1568.86 903.488 1576.09C901.024 1579.59 902.537 1584.15 900.566 1587.87C898.158 1592.42 881.096 1601.98 876 1601.61C868.389 1601.05 862.578 1589.17 857.7 1584.44C848.314 1575.35 838.437 1569.06 830.559 1558C827.336 1553.48 825.136 1542.83 820.606 1540.04C816.969 1537.8 808.314 1540 804 1540M982 1464L989 1465M757 1465C761.008 1470.51 759.116 1479.87 763.728 1484.4C768.361 1488.95 779.106 1484.58 785 1487.3C790.782 1489.98 794.685 1495.5 800 1498.87C804.972 1502.02 811.111 1502.56 815.996 1505.85C825.499 1512.27 830.454 1520.7 843.956 1515.4C848.847 1513.48 849.75 1507.36 851.37 1503C853.76 1496.56 857.393 1491.05 862 1486M735 1467L733 1471M764 1486C762.05 1493.13 759.296 1498.4 760.95 1506C762.158 1511.55 768.159 1520.59 767.208 1526C766.651 1529.17 763.399 1531.48 761.649 1534C758.132 1539.07 758.145 1545.4 752.956 1549.36C746.376 1554.39 733.209 1558.87 735.627 1570C737.968 1580.78 752.875 1585.48 759 1594M694 1489L695 1490M657 1495L659 1502M544 1501C568.107 1501.51 601.119 1522.45 608 1546M734 1568L710 1563.91L683 1541C687.575 1529.22 693.997 1514.45 708 1512.78C713.779 1512.09 721.166 1514.26 727 1515M1164 1512C1150.81 1525.19 1154.69 1531.39 1155.91 1548C1156.54 1556.62 1154.41 1564.53 1154.04 1573C1153.8 1578.47 1155.39 1584.7 1154.18 1590C1146.48 1623.76 1130.52 1654.97 1113.97 1685C1110.76 1690.83 1111.29 1698.24 1107.77 1703.89C1104.28 1709.49 1096.68 1709.57 1093.57 1716C1087.5 1728.56 1096.66 1743.09 1089.66 1756C1081.86 1770.38 1070.86 1782.38 1060.62 1795C1055.09 1801.82 1050.62 1809.71 1043.96 1815.56C1037.33 1821.38 1028.78 1823.81 1022 1829.32C1014.63 1835.31 1007.89 1846.87 999.985 1851.23C993.881 1854.59 985.393 1849.91 979 1853.02C971.306 1856.78 963.976 1865.69 955.957 1868.27C944.949 1871.81 934.738 1854.18 925 1858.42C915.31 1862.65 898.618 1872.51 891.688 1880.39C888.278 1884.27 887.536 1889.66 883.786 1893.41C876.33 1900.86 867.275 1903.12 859 1908.8C849.382 1915.41 841.554 1924.74 831 1930M845 1516L876.286 1558.99L901 1578M827 1517L820 1539M769 1526L771 1526M667 1544L682 1542M552 1545C555.869 1552.85 564.262 1553 572 1553M926 1556C939.687 1562.49 946.061 1571.28 955 1583M537 1566L539 1566M786 1567C804.676 1576.64 815.962 1601.01 837 1606M596 1571L625.911 1588.99L643 1609M501 1580L505 1583M979 1582C987.702 1587.56 1004.73 1583.64 1015 1584M984 1587L991 1611M1014 1592L1032 1631M569 1593L583 1605M713 1630L762 1631M745 1631C744.192 1640.89 739.893 1650.84 732 1657M802 1632L803 1632M850 1633L852 1635M942 1670C936.696 1674.32 931.067 1682.22 924 1683.37C909.996 1685.65 901.68 1675.86 895.154 1666C892.31 1661.7 887.639 1657.77 889.897 1652.09C893.043 1644.17 910.818 1640.07 918 1636M1032 1638L1058 1676M1199 1642C1210.53 1653.53 1218.89 1676.48 1207 1691M783 1653L787 1659M836 1670L839 1670M630 1677L630 1682M901 1678L892 1683M1032 1878C1045.85 1860.99 1062.96 1846.02 1076.49 1828.9C1079.33 1825.3 1080.34 1820.64 1083.38 1817.09C1097.28 1800.84 1112.88 1786.09 1123.49 1767C1127.23 1760.26 1129.03 1752.73 1132.93 1746.04C1141.48 1731.4 1151.64 1718.01 1160.89 1704C1166.79 1695.07 1166.31 1685.55 1177 1680M1035 1682L1038 1695M722 1686L720 1691M815 1700L813 1702M894 1729C891.679 1733.42 891.528 1739.93 888.411 1743.72C884.411 1748.59 874.777 1748.88 869 1750C868.716 1744.81 869.383 1730.33 873.603 1726.77C878.833 1722.37 890.856 1728.21 897 1726.39C901.998 1724.91 905.618 1720.31 910 1717.68C915.688 1714.27 921.839 1713.72 928 1711.78C942.326 1707.27 947.28 1701.55 960 1714M734 1710L734 1711M861 1712L874 1725M621 1728C637.226 1724.14 653.938 1729.36 670 1727.8C679.317 1726.9 688.277 1720.76 696 1716M576 1721C576 1742.84 577.008 1764.35 577 1786C576.997 1794.71 574.112 1805.04 580 1812M774 1722L777 1723M723 1733L728 1736M754 1735L757 1735M1057 1738C1049.88 1746.35 1043.77 1756.81 1036.35 1764.5C1026.35 1774.87 1011.65 1782.64 1001.09 1793.1C995.057 1799.09 994.798 1809.47 987.906 1814.41C980.868 1819.46 972.196 1815.37 965.015 1818.05C958.734 1820.39 959.169 1827.18 955.49 1831.71C947.954 1840.99 933.708 1843.61 931 1857M885 1797C874.576 1799.15 856.385 1803.95 846.152 1799.26C842.185 1797.44 843.903 1792.43 843.985 1789C844.17 1781.34 841.611 1763.67 846.614 1757.53C851.526 1751.51 861.692 1753.83 868 1750M668 1818L680.272 1802L687.108 1791.03L720 1786.03L732 1776.74L753 1772.1L777 1778.67L798.96 1768.61L809.04 1759.29L844 1758M686 1791C682.416 1787.42 673.317 1781.23 672.631 1776C672.216 1772.83 676.025 1769.96 678.001 1768.01C685.693 1760.46 691.647 1758.09 702 1761M626 1762L653.87 1761.74L671 1775M1189 1780C1202.31 1796.67 1189.45 1827.72 1189.88 1847C1190.07 1855.25 1189.07 1861.59 1195 1868M843 1798C835.352 1805.65 827.945 1818.38 818.996 1824.01C811.136 1828.95 798.874 1835.03 790 1837.78C784.213 1839.57 777.29 1838.88 772 1842.01C765.324 1845.95 759.608 1851.78 753 1855.99C748.974 1858.55 743.89 1859.57 740.17 1862.51C734.951 1866.63 732.083 1872.44 725.999 1875.67C712.604 1882.8 695.03 1875.69 684 1888M750 1814L749 1815M889 1817C885.738 1824.83 880.001 1836.11 872.826 1840.99C868.158 1844.17 862.493 1844.42 858 1848.21C846.484 1857.95 837.757 1868.87 825 1877.48C803.734 1891.84 779.323 1900.87 759 1917M956 1832L979 1852M950 1838L961 1863M671 1847C679.252 1840.37 685.634 1839.13 696 1839M1012 1944C1006.81 1951.87 1009.34 1962.1 1008.51 1971C1007.67 1979.89 1004.74 1987.88 1005.02 1997C1005.16 2001.94 1007.21 2009.75 1013.02 2010.73C1034.84 2014.42 1051.3 1977.41 1039 1962C1073.11 1937.57 1101.3 1906.14 1132 1877.91C1140.52 1870.07 1147.54 1859.26 1157 1852.65C1165.6 1846.64 1178.81 1845 1189 1845M587 1860C587.002 1879.25 608.597 1881.12 619.961 1893C623.275 1896.47 629.412 1901.36 630.682 1906.09C632.282 1912.04 629.436 1922.33 633.938 1927.26C636.682 1930.26 644.198 1930.32 648 1931.51C660.648 1935.45 684.582 1933.24 697 1927.89C703.123 1925.26 708.085 1920.16 714 1917M587 1870C584.747 1872.33 582.039 1874.67 581.357 1878C580.25 1883.4 582.74 1890.61 583.576 1896C585.025 1905.34 584.386 1916.06 587.363 1925C588.828 1929.4 592.075 1937.68 597.043 1939.11C601.959 1940.53 606.122 1933.2 610 1931.16C616.395 1927.81 625.038 1929 632 1929M631 1903C637.121 1896.62 642.357 1892.47 651 1890M1122 1947C1132.31 1937.14 1140.88 1926.3 1149.7 1915C1152.27 1911.7 1153.12 1907.34 1156.33 1904.5C1164.79 1897.01 1181.18 1894 1192 1894M936 1896L927 1902M980 1907C982.202 1914.27 990.869 1912.19 997 1911.99C1011.92 1911.49 1021.28 1902.77 1035 1915M980 1910L965 1937M1151 1915L1185 1950M901 1924C899.681 1933.75 893.912 1937.85 888 1945M599 1941C600.421 1948.65 600.038 1957.85 603.278 1965C608.536 1976.6 621.889 1987.66 630.711 1996.75C634.853 2001.01 634.314 2007.75 636.482 2013C643.126 2029.08 648.748 2045.59 665 2054.48C669.995 2057.21 681.484 2062.11 687 2059.22C695.357 2054.84 698.524 2044.37 708 2041.65C724.188 2036.99 741.333 2030.33 758 2028.29C765.692 2027.34 776.009 2031.85 783 2029.54C788.755 2027.63 798.638 2020.71 802.362 2015.91C805.567 2011.78 806.657 2006.6 811.018 2003.28C815.914 1999.55 832.531 1998.14 839 1998M774 1942C766.639 1948.21 759.824 1946.57 752 1950.3C739.486 1956.26 726.831 1962.95 713 1965.54C693.552 1969.18 672.023 1968.9 654 1978C645.81 1982.13 639.401 1990.6 633 1997M922 1943C926.59 1945.92 931.06 1948.11 934.985 1952.02C943.398 1960.4 952.178 1978.31 966 1971M799 1947C791.445 1956.55 786.66 1967.68 777 1975.53C757.662 1991.25 725.645 1997.99 702 2004.24C687.789 2008 668.966 2003.85 656 2009.51C650.872 2011.76 646.887 2017.11 643 2021M1010 1970L1039 1962M844 1966C828.154 1975.02 815.69 1979.32 814 2000M855 1997C869.732 1997 880.367 1988.45 892 1980.28C897.165 1976.65 902.471 1971.24 909 1970.37C931.207 1967.41 921.759 1990.58 930.703 2000.68C938.361 2009.33 953.02 2000.48 955.775 1992C957.481 1986.75 956.452 1981.24 958 1976M1124 2029C1126.3 2018.95 1125.19 2005.63 1131.65 1997.06C1134.96 1992.67 1140.22 1992.37 1145 1990.54C1157.14 1985.9 1169.53 1980.62 1182 1977M1073 1988L1067 1997M869 2020L890 2032.98L911 2036L914.603 2011.05L930 2003M949 2003C953.252 2006.6 956.572 2007 962 2007M953 2007C955.187 2023.94 960.135 2046.83 980 2047M1086 2025C1089.54 2022.44 1091.52 2018.12 1095 2015.27C1102.57 2009.1 1115.79 2007.28 1125 2010M1054 2020L1055 2020M1089 2026C1091.82 2030.86 1099.43 2040.05 1096.88 2045.99C1092.67 2055.8 1073.41 2060.96 1071.62 2072C1071.12 2075.03 1074.99 2081.27 1076.44 2084C1078.24 2087.36 1080.64 2089.42 1084 2091M783 2032C785.47 2040.38 782.359 2053.02 774.985 2058.15C770.109 2061.54 763.794 2062.11 759.044 2065.65C753.264 2069.95 753.059 2077.61 748.725 2083C746.549 2085.7 742.354 2088.39 741.681 2092C740.256 2099.64 751.842 2101 755.301 2105.23C758.306 2108.9 759.059 2114.08 761.8 2118C769.856 2129.51 789.3 2142.8 803.995 2135.31C815.818 2129.29 806.524 2109.78 815 2100C806.772 2089.21 815.239 2083.78 821.49 2075C825.715 2069.06 824.622 2060.87 828.728 2055.1C834.59 2046.88 851.8 2049.16 861 2048M1040 2033C1023.22 2047.35 1001.31 2060.92 994.409 2083C991.373 2092.71 1000.31 2098.74 1003.38 2107C1005.8 2113.48 1002.18 2125.36 1006.74 2130.44C1011.52 2135.75 1023.47 2136 1030 2136C1049.9 2136.01 1067.16 2133.78 1086 2127M1076 2034L1075 2035M912 2037C915.24 2052.63 940.656 2050.43 954 2051C954 2055.8 951.966 2066.76 955.603 2070.4C958.479 2073.27 965.239 2071.94 969 2072.62C978.325 2074.29 986.111 2076.28 993 2083M964 2043L954 2051M913 2047C910.711 2054.02 908.107 2057.79 902 2062M1060 2054L1055.22 2070.4L1070 2072M686 2061C689.486 2066.61 690.46 2074.01 695.214 2078.79C705.281 2088.91 726.626 2089.23 740 2092M954 2072C953.677 2075.95 951.252 2081.17 952.492 2085C957.753 2101.27 983.908 2105.73 995 2095M1000 2098C1009.99 2089.13 1021.81 2096.46 1033 2091.63C1042.42 2087.57 1044.29 2076.62 1053 2072M1114 2075L1114 2076M816 2100C826.792 2103.19 829.801 2095.93 838 2090.84C847.14 2085.18 862.302 2078.44 873 2077M908 2120C911.893 2123.89 915.669 2128.62 921 2130.52C925.804 2132.22 935.089 2130.85 937.762 2136.22C941.763 2144.26 924.597 2153.91 918 2152.14C906.978 2149.18 902.29 2134.64 895 2127C899.791 2123.59 905.562 2121.75 910 2117.87C923.334 2106.21 933.58 2090.94 951 2085M755 2103C768.47 2089.54 791.201 2087.32 810 2090M828 2101L849 2117.14L862 2127.68L895 2127M859 2127C845.678 2140.32 825.146 2146.79 810 2132M1006 2131C995.202 2141.48 983.567 2140.18 970 2143.76C959.442 2146.54 946.858 2150.98 939 2141"
     id="path3982" />
</svg>
