<?xml version="1.0" encoding="UTF-8" standalone="no"?>
<svg
   xmlns:dc="http://purl.org/dc/elements/1.1/"
   xmlns:cc="http://creativecommons.org/ns#"
   xmlns:rdf="http://www.w3.org/1999/02/22-rdf-syntax-ns#"
   xmlns:svg="http://www.w3.org/2000/svg"
   xmlns="http://www.w3.org/2000/svg"
   xmlns:sodipodi="http://sodipodi.sourceforge.net/DTD/sodipodi-0.dtd"
   xmlns:inkscape="http://www.inkscape.org/namespaces/inkscape"
   width="1417.3268"
   height="551.61401"
   id="svg2"
   version="1.1"
   inkscape:version="0.48.4 r9939"
   sodipodi:docname="ume.svg">
  <metadata
     id="metadata10">
    <rdf:RDF>
      <cc:Work
         rdf:about="">
        <dc:format>image/svg+xml</dc:format>
        <dc:type
           rdf:resource="http://purl.org/dc/dcmitype/StillImage" />
      </cc:Work>
    </rdf:RDF>
  </metadata>
  <defs
     id="defs8" />
  <sodipodi:namedview
     pagecolor="#ffffff"
     bordercolor="#666666"
     borderopacity="1"
     objecttolerance="10"
     gridtolerance="10"
     guidetolerance="10"
     inkscape:pageopacity="0"
     inkscape:pageshadow="2"
     inkscape:window-width="1276"
     inkscape:window-height="775"
     id="namedview6"
     showgrid="false"
     inkscape:zoom="0.28438611"
     inkscape:cx="1858.21"
     inkscape:cy="401.68523"
     inkscape:window-x="0"
     inkscape:window-y="21"
     inkscape:window-maximized="1"
     inkscape:current-layer="svg2"
     fit-margin-top="0"
     fit-margin-left="0"
     fit-margin-right="0"
     fit-margin-bottom="0" />
  <path
     style="fill:none;stroke:#040404;stroke-width:0.99999994;stroke-linecap:round;stroke-linejoin:round;stroke-miterlimit:4;stroke-dasharray:none"
     d="m 40.835239,0.80683233 c 1.87975,0 4.94975,-0.6475 5.98516,1.38269997 0.5155,1.0106 0.23689,2.5792 0.23689,3.6829 l 0,8.2889997 0,24.6366 c 0,3.0225 0.90819,7.7595 -0.13895,10.5916 -0.90889,2.4579 -4.02821,1.8419 -6.0831,1.8419 m 6.22205,-49.2733997 c 1.9528,-1.80399997 5.09424,-1.15129997 7.60473,-1.15129997 2.55058,0 5.12858,-0.1625 7.60473,0.57979997 4.78337,1.434 9.05515,6.4464 8.46061,11.6234997 -0.37609,3.2734 -1.61866,5.9867 -4.14873,8.1795 -0.97087,0.8417 -4.03443,2.0222 -3.75789,3.5623 0.32332,1.802 4.15472,3.1527 5.4171,4.3971 3.78508,3.7323 4.88477,8.7601 3.40899,13.7935 -2.27681,7.7648 -9.96219,8.289 -16.75436,8.289 -2.73586,0 -5.7448,0.6394 -7.83518,-1.3815 M 119.18699,0.80683233 c 2.38512,0 4.39923,-0.3803 6.22206,1.38149997 1.86431,-1.80279997 4.01206,-1.38149997 6.45249,-1.38149997 6.65299,0 11.10982,1.69099997 14.8154,7.59819997 2.19846,3.5050997 3.24698,7.9086997 3.65948,11.9731997 0.85035,8.3586 0.67982,17.5961 -4.62505,24.6365 -3.70097,4.9125 -7.98958,6.2168 -13.84983,6.2168 -2.60404,0 -4.48909,0.3267 -6.45249,-1.6117 -1.91501,1.8915 -3.68023,1.6117 -6.22206,1.6117 M 159.05421,0.80683233 c 2.21458,0 3.84384,-0.2497 5.53071,1.38149997 1.82284,-1.76249997 3.83463,-1.38149997 6.22205,-1.38149997 4.58128,0 9.51744,-0.5197 14.05723,0.098 1.60391,0.21799997 4.17108,0.30819997 5.43162,1.44529997 1.87353,1.6906 1.48177,7.1941 1.48177,9.5087997 m 6.45249,-11.05199967 c 2.2146,0 3.84385,-0.2497 5.53072,1.38149997 1.82283,-1.76249997 3.83463,-1.38149997 6.22206,-1.38149997 4.58357,0 9.51973,-0.516 14.05722,0.1336 1.51634,0.21679997 4.29321,0.40079997 5.39475,1.59559997 1.56242,1.6954 1.28819,6.6861 1.28819,8.8623997 M 275.8905,0.80693233 c 1.84818,0 4.80251,-0.595 5.62289,1.61199997 0.41712,1.1231 0.13827,2.7296 0.13827,3.914 l 0,8.5193997 0,24.1762 c 0,2.9592 0.88723,7.5875 -0.13827,10.3612 -0.88952,2.4048 -3.83693,1.8419 -5.85333,1.8419 m 5.9916,-49.2733997 c 1.61082,-1.48899997 3.46131,-1.15129997 5.53072,-1.15129997 m 12.4441,0 c 1.84358,0 4.74028,-0.6078 5.75424,1.38269997 0.51621,1.0106 0.23736,2.579 0.23736,3.6829 l 0,8.0585997 0,24.6368 c 0,3.0858 0.9287,7.931 -0.13827,10.8218 -0.88953,2.4048 -3.83693,1.8419 -5.85333,1.8419 m 5.9916,-49.2733997 c 1.61082,-1.48899997 3.46131,-1.15129997 5.53072,-1.15129997 m 15.67034,0 c 1.84819,0 4.80251,-0.595 5.62289,1.61199997 0.41712,1.1231 0.13827,2.7296 0.13827,3.914 l 0,8.2889997 0,24.1762 c 0,3.0225 0.90796,7.7595 -0.13827,10.5916 -0.88951,2.4048 -3.83693,1.8419 -5.85333,1.8419 m 5.9916,-49.2733997 c 1.61083,-1.48899997 3.46131,-1.15129997 5.53072,-1.15129997 m 34.10605,0 c 1.84358,0 4.74028,-0.6078 5.75424,1.38269997 0.48855,0.9585 0.23737,2.407 0.23737,3.4525 l 0,7.8286997 c 0,8.0388 0.66368,16.4174 -0.19127,24.4064 -0.4102,3.8207 -0.83882,7.6116 -3.53505,10.5904 -3.11794,3.4428 -8.29376,3.499 -12.17449,1.4328 -2.31366,-1.2317 -4.4983,-3.9935 -3.45669,-6.7274 m 19.3575,-41.2147997 c 1.6546,-1.52789997 3.63874,-1.15129997 5.76116,-1.15129997 m 9.90919,0 c 1.84357,0 4.74028,-0.6078 5.75424,1.38269997 0.5162,1.0106 0.23737,2.579 0.23737,3.6829 l 0,8.0585997 0,24.6368 c 0,3.0858 0.92869,7.9312 -0.13827,10.8218 -0.88953,2.4048 -3.83693,1.8419 -5.85334,1.8419 m 5.99161,-49.2733997 c 1.65459,-1.52789997 3.63874,-1.15129997 5.76116,-1.15129997 m 9.90918,0 11.98321,0 m 5.53072,0 c 1.84357,0 4.74028,-0.6078 5.75424,1.38269997 0.51621,1.0106 0.23735,2.579 0.23735,3.6829 l 0,8.2889997 0,24.6366 c 0,3.0225 0.90797,7.7595 -0.13826,10.5916 -0.91026,2.4579 -4.02819,1.8419 -6.08378,1.8419 M 439.0465,1.9582323 c 1.65462,-1.52789997 3.63876,-1.15129997 5.76116,-1.15129997 m 26.27089,0 c 1.32047,0 3.12946,-0.3211 4.37848,0.139 4.08813,1.50609997 4.24713,7.16679997 5.09978,10.68279967 1.63387,6.7299 3.00732,13.5232 4.60662,20.2619 0.6176,2.6063 0.73052,6.2116 2.50726,8.289 3.19856,-2.3498 3.53045,-5.9829 4.46375,-9.6705 1.48405,-5.851 3.16399,-11.6528 4.6688,-17.4989 0.61997,-2.4087 0.93797,-6.1971997 2.35517,-8.2466997 2.26309,-3.2717 5.12519,-3.95659997 8.79156,-3.95659997 m 2.53489,0 c 1.41486,0 3.79086,-0.4547 5.05596,0.23669997 1.2629,0.6889 0.9356,2.314 1.4956,3.4269 1.0831,2.1505 2.9152,4.2857 4.1458,6.4673997 4.9431,8.7589 9.6465,17.6641 14.4927,26.4787 2.5327,4.6085 5.7221,8.1976 6.1507,13.5848 m -4.6089,-50.19449967 9.4482,0 m 42.8631,0 c 2.3298,0 4.2126,-0.3384 5.9916,1.38149997 2.2261,-2.15099997 5.8395,-1.38149997 8.7569,-1.38149997 3.3254,0 6.5516,-0.083 9.6788,1.25909997 5.7519,2.4685 7.9319,8.8286997 6.8419,14.6280997 -1.5555,8.2636 -9.893,9.9009 -16.9816,9.9009 l -5.9916,0 c -0.6038,10e-5 -1.6385,-0.1727 -2.0671,0.3692 -0.8042,1.0143 -0.2373,4.1279 -0.2373,5.387 l 0,12.4335 c 0,1.4506 -0.4448,3.7997 0.3687,5.0643 1.1913,1.848 3.5005,1.3826 5.3923,1.3826 m 66.5991,-50.42469967 c 1.915,0 5.1621,-0.6854 6.2151,1.38269997 0.5162,1.0106 0.2375,2.579 0.2375,3.6829 l 0,8.0585997 0,24.6368 c 0,3.0858 0.9285,7.9312 -0.1384,10.8218 -0.9102,2.4579 -4.0282,1.8419 -6.0838,1.8419 m 6.2222,-49.2733997 c 1.8827,-1.73999997 4.7263,-1.15129997 7.1437,-1.15129997 7.0748,0 15.7349,2.14159997 16.5529,10.59159967 0.4011,4.1467 -1.8227,7.7798 -5.2609,10.0048 -1.4404,0.9324 -4.6943,1.3553 -5.2496,3.1205 -0.5623,1.7918 1.2283,4.8022 1.8849,6.4459 1.7791,4.4494 3.6365,8.8759 5.3419,13.3544 0.6775,1.7838 1.2051,4.5938 2.6616,5.8967 1.7536,1.5679 4.7149,1.0108 6.8834,1.0108 m 44.2458,-38.4516 c 0,-2.6433 -0.5209,-8.3991997 1.2812,-10.5275997 1.9934,-2.35199997 7.7637,-1.44659997 10.4715,-1.44549997 1.3043,5e-4 2.5441,0.059 3.2193,1.38269997 0.5162,1.0106 0.2374,2.579 0.2374,3.6829 l 0,8.2889997 0,24.6366 c 0,3.0225 0.908,7.7595 -0.1384,10.5916 -0.8894,2.4048 -3.8369,1.8419 -5.8532,1.8419 m 5.9916,-49.2733997 c 2.3114,-2.13479997 8.3099,-1.42569997 11.2919,-0.9016 0.9931,0.1745 2.8044,0.3944 3.459,1.2493 1.7606,2.3022 1.1499,7.7392997 1.1499,10.4740997 m 5.9916,-11.97309967 c 2.2146,0 3.8438,-0.2497 5.5307,1.38149997 1.779,-1.72019997 3.6618,-1.38149997 5.9916,-1.38149997 m 12.6745,0 11.7528,0 m 2.074,0 c 2.0717,0 4.7588,-0.5044 6.3788,1.09629997 1.4955,1.4771 1.8528,6.274 2.4128,8.3439997 1.9979,7.371 4.1157,14.7139 6.0422,22.104 0.8021,3.0774 1.6478,6.1505 2.5166,9.2099 0.2327,0.8163 0.394,2.8563 1.5578,2.8583 1.0923,0 2.0118,-1.2542 2.309,-2.1678 0.9587,-2.9328 1.5602,-6.0061 2.3851,-8.9795 2.1915,-7.8751 4.2333,-15.7995 6.2705,-23.7156997 0.4448,-1.726 2.7216,-6.6333 1.6915,-8.2157 -0.7421,-1.13609997 -4.3093,-0.53379997 -5.5238,-0.53379997 m -19.127,1.15129997 c 1.696,-1.56599997 3.8184,-1.15129997 5.9916,-1.15129997 m 19.127,0.23039997 c 2.6064,-0.61989997 5.6251,-0.23039997 8.296,-0.23039997 1.3873,0 2.5926,-0.059 3.6526,0.99129997 1.5809,1.5654 1.4426,5.6415 1.7836,7.7582 1.1108,6.9021997 2.2376,13.8064997 3.2586,20.7224997 0.4262,2.8952 0.3203,7.2301 2.3667,9.4403 2.7262,-2.6061 2.7445,-5.3437 3.2561,-8.9797 0.5417,-3.8432 1.1846,-7.673 1.7514,-11.5126 0.4886,-3.3086 0.4194,-5.9846 3.0581,-8.289 1.6039,1.7334 1.5279,4.209 1.9012,6.447 0.7927,4.7524 1.4794,9.5222 2.2653,14.2755 0.258,1.555 0.2166,6.4352 1.8505,7.1568 0.8341,0.3677 1.9219,-0.7526 2.2745,-1.4095 0.9148,-1.7096 0.742,-4.5322 1.0232,-6.438 1.0439,-7.0453 2.0878,-14.1121 2.9358,-21.1830997 0.2582,-2.1709 1.6431,-6.2006 0.7467,-8.2548 -0.4932,-1.12639997 -2.558,-0.72489997 -3.549,-0.72489997 m -24.1967,1.38149997 c 1.477,-1.42699997 2.6523,-1.38149997 4.6089,-1.38149997 m 23.5054,0.23039997 3.6873,-0.23039997 m 4.1479,0 4.148,0.062 2.0741,0.72679997 1.8435,-0.71749997 4.1481,-0.072 m 8.2961,0 12.2136,0 m 5.7611,0 5.7613,0.79089997 1.8436,-0.71809997 3.687,-0.072 m 14.0573,0 8.9874,0 m 6.2221,9.20999967 c 0,-2.1636997 -0.3665,-5.9661997 1.09,-7.7642997 0.8641,-1.0685 2.9519,-1.132 4.2102,-1.31209997 4.1688,-0.5971 8.6925,-0.1336 12.90498,-0.1336 l 7.8352,0 c 1.1337,0 2.4358,0.09 2.846,1.38269997 0.3642,1.1457 -0.7673,2.5216 -1.2975,3.4525 -1.5393,2.6978 -3.1178,5.3732997 -4.6779,8.0587997 -5.0308,8.6624 -10.05208,17.3318 -15.04118,26.0182 -1.2837,2.2329 -2.611,4.4401 -3.8878,6.6772 -0.4793,0.8423 -1.3757,1.968 -1.2973,2.9933 0.099,1.3218 1.5025,1.8202 2.6155,1.8408 3.0695,0.059 6.146,0 9.2179,0 3.91298,0 7.87888,0.2301 11.75268,-0.4037 1.1776,-0.1925 3.1341,-0.3899 3.9798,-1.3253 1.703,-1.8838 1.3205,-6.7296 1.3205,-9.0926 M 542.05602,1.0362323 l 0,31.3138997 c 0,3.7218 1.1453,9.1847 -1.6131,11.9729 m 170.5303,-7.8284 c 0,2.3131 -0.2535,6.9858 1.12,8.9304 0.6982,0.9903 2.2998,1.3416 3.2585,2.0793 6.0053,4.621 16.8479,6.0299 21.1573,-1.7998 1.0162,-1.8451 1.4932,-4.1326 1.636,-6.2168 0.7261,-10.5928 -9.6971,-13.079 -17.493,-16.1643 -4.8924,-1.9361 -8.9298,-5.298 -8.7479,-11.0051 0.042,-1.2771 0.2605,-2.6903997 0.6292,-3.9142997 2.0464,-6.7839 11.0799,-9.08899997 17.106,-6.2668 1.8897,0.8845 5.3049,4.4438 7.5541,3.7828 1.219,-0.3586 1.5186,-3.5849 1.6637,-4.6536 M 113.88673,37.415532 c -2.07333,10.0096 -14.001701,17.7869 -22.810741,10.0619 -5.69409,-4.9931 -7.4312,-14.3833 -7.60472,-21.5743 -0.17122,-7.0917 1.81384,-16.1001997 7.14937,-21.1438997 5.15854,-4.87629997 11.464471,-3.86619997 17.274481,-0.9876 1.07896,0.5346 3.20943,0.6971 3.92035,1.7091 1.52303,2.1685 0.91511,6.1781997 1.37992,8.6796997 m 147.25521,15.4267 c 1.42646,0 3.58806,-0.4037 4.83477,0.4012 2.30677,1.489 1.15683,7.9582 1.15683,10.4206 0,1.3016 0.69364,5.8358 -0.53463,6.5591 -0.79274,0.4669 -1.85509,0.4422 -2.69161,0.863 -2.11781,1.0641 -3.84385,2.2997 -6.22205,2.7857 -7.45955,1.5252 -12.89578,-4.027 -15.0228,-10.6684 -3.23316,-10.09 -3.41752,-25.5477 3.50508,-34.3062997 4.3808,-5.54339997 11.49928,-5.15359997 17.04842,-2.0271 1.01858,0.5733 2.5303,0.6639 3.28617,1.6291 1.15454,1.4748 1.28589,5.0242997 1.32276,6.8441997 M 421.30214,1.2664323 c -0.48393,3.0537 -3.86457,6.3039 -5.67589,8.7494997 -1.81592,2.4547 -4.00977,4.9315 -5.49385,7.5983 -0.57842,1.0384 -0.53002,2.4482 -1.23979,3.3904 -0.66137,0.8762 -1.93805,1.0695 -2.69392,1.9179 -2.07632,2.3344 -3.06264,4.0211 -5.86716,5.5133 M 566.02242,1.3734323 c 6.812,-1.22489997 11.262,4.2436 14.1518,9.5633997 4.7725,8.7782 3.9912,22.1128 -0.3826,30.8536 -2.0325,4.0614 -5.3026,8.3567 -10.082,9.1088 -7.0839,1.1146 -11.5386,-4.7984 -14.2024,-10.4903 -4.0974,-8.7535 -3.7701,-20.4838 0.049,-29.2419 1.8989,-4.3577997 5.5399,-8.9078997 10.4668,-9.7935997 m 69.3644,40.8772997 c -3.058,-1.5985 -3.7241,-8.903 -3.9384,-11.9729 -0.6774,-9.6626 0.6177,-25.9720997 12.4649,-28.8044997 7.8282,-1.87139997 13.3752,5.5541 15.691,11.9963997 3.6642,10.1947 3.0742,25.2596 -4.8601,33.5144 -0.8779,0.9121 -2.0048,1.2109 -2.9957,1.944 -2.7885,-3.6512 -1.9105,-9.0971 -4.7911,-12.8841 -3.5557,-4.675 -7.6669,1.6285 -9.3468,4.3615 -0.4794,0.7784 -1.544,1.378 -1.7007,2.3092 -0.2835,1.6809 1.1845,3.2432 2.1777,4.3705 3.1778,3.6063 9.7548,5.8488 13.6609,2.073 m 164.0777,-47.8917997 0,31.3138997 c 0,5.1848 0.378,11.0896 -3.4981,15.1759 -5.911,6.2272 -16.8757,3.7337 -19.8783,-4.124 -1.8182,-4.7558 -1.2813,-10.4155 -1.2813,-15.4266 l 0,-26.0182997 m 91.9481,-0.9209 0,9.6703997 m 47.9327,-9.6703997 c -0.3248,2.5201 -1.6591,4.8428 -2.6939,7.1376 -1.7282,3.8295997 -3.4681,7.6588997 -5.1412,11.5125997 -0.576,1.327 -2.4335,2.58 -2.5947,3.9153 -0.3573,2.9582 1.4241,5.0375 2.5303,7.5972 2.3344,5.4068 6.0031,11.3062 7.3212,17.0384 0.6937,3.0205 -3.0788,2.763 -4.9523,2.763 M 18.712979,1.4965323 c 0,2.5827 1.01511,4.8614 1.64239,7.3681 1.09231,4.3657997 2.1314,8.7458997 3.17025,13.1241997 0.43578,1.8358 2.20145,5.7252 0.67475,7.3339 -1.46128,1.5401 -5.81371,0.7249 -7.79186,0.7249 -1.64331,0 -3.48711,0.2371 -5.06983,-0.2303 -2.0327499,4.7206 -2.5991899,10.4382 -3.8313799,15.4268 -0.33923,1.3735 -0.43187,4.6723 -1.54215,5.5854 -1.15247,0.9478 -4.0388,0.401 -5.45742999,0.401 M 972.53032,1.4965323 c -2.6225,7.6723 -6.1736,15.0825997 -9.3147,22.5645997 -0.3617,0.8583 -0.6566,1.9444 -1.2442,2.6757 -0.5762,0.7164 -1.558,0.972 -1.8114,1.9385 -1.6983,6.4341 1.4749,14.0265 -0.1474,20.4829 -0.6637,2.6425 -3.8808,2.0723 -5.918,2.0723 M 266.90368,1.7269323 l -1.15223,3.2234 m -140.34182,-2.763 0,47.4314997 m 39.17588,-47.4314997 0,34.5374997 0,9.2101 c 0,1.1892 -0.30419,2.8683 0.36871,3.9131 1.27436,1.9777 4.06277,1.3825 6.08379,1.3825 4.58127,0 9.27546,0.2922 13.82677,-0.2187 1.54861,-0.1738 4.18722,-0.2891 5.4132,-1.3568 1.86431,-1.6224 1.50019,-6.9984 1.50019,-9.2461 m 11.98321,-38.2215997 0,33.8466997 0,9.4403 c 0,1.2241 -0.32723,3.0247 0.23737,4.1443 1.10845,2.2007 3.95215,1.6119 5.98469,1.6119 m 385.53678,-49.0431997 0,24.1761997 M 910.77082,2.1873323 c 1.6869,4.9391 3.9452,9.6965997 5.9916,14.5056997 0.9816,2.309 1.7468,5.2384 3.687,6.9075 m 28.3449,-21.4131997 6.948,16.8083997 4.3439,9.4401 M 477.76208,3.1084323 c -2.75614,2.763 -1.84357,6.9048997 -1.84357,10.5913997 l 0,25.5578 0,8.5191 c 0,0.8506 0.29266,2.4226 -0.36871,3.0846 -0.83883,0.8373 -3.36452,0.3692 -4.47066,0.3692 M 501.49809,3.1084323 c 1.78816,2.4832 0.6913,8.2730997 0.6913,11.2821997 l 0,24.4064 c 0,3.0225 0.90789,7.7595 -0.13824,10.5916 -0.88955,2.4048 -3.83701,1.8419 -5.8534,1.8419 M 11.338679,29.817332 c 0.26802,-6.1435 2.85824,-12.6359 4.14805,-18.6503 0.52426,-2.4445997 0.65584,-5.3209997 2.99579,-6.6770997 m 498.685801,0.4604 c -2.6109,2.641 -1.613,7.3095997 -1.613,10.8217997 l 0,24.867 0,7.1376 c 0,0.841 -0.2421,2.1475 0.1382,2.9201 0.5116,1.0355 3.4867,0.5337 4.4707,0.5337 M 737.47512,6.1016323 c 1.4127,2.4471 1.5555,6.4229997 1.6131,9.2098997 m -554.45388,2.3027 -0.81347,6.9074 0.81347,6.447 m 39.17588,-13.1243 -0.878,6.6773 0.878,6.2168 m 185.27885,-9.4403 c 3.74706,6.0232 5.59985,14.0825 8.07714,20.7225 0.76509,2.0507 1.45643,6.3938 3.05573,7.8506 1.94727,1.7705 4.65962,1.3593 7.07239,1.3593 m 247.26889,-27.3996 c 3.5582,0 9.6879,-1.177 12.6746,0.9209 m -639.949511,-0.2302 15.20947,0 m 102.318181,0.2302 18.66614,-0.2302 m 20.50973,0.2302 18.66616,-0.2302 m 59.22471,0.4604 23.50552,0 m 615.5222,2.763 c -4.4752,4.1206 -6.4295,11.7564 -8.9159,17.2687 -0.6868,1.521 -1.3943,4.7762 -2.6779,5.8158 -1.0646,0.8603 -3.4751,0.401 -4.768,0.401 M 24.704569,28.896332 c 1.16492,1.5726 1.3866,3.8677 1.79518,5.7562 0.73214,3.3843 1.52694,6.7621 2.32614,10.1311 0.50513,2.1289 0.51251,4.7768 2.56187,5.988 1.68479,0.9959 4.54647,0.4589 6.45227,0.4589 m 228.602761,-20.4921 c 1.65461,-1.5281 3.63875,-1.1513 5.76116,-1.1513 m 617.13517,9.6705 0.2306,10.8218 m -424.71263,-10.3613 c 0,2.4623 0.45167,7.922 -1.48177,9.7834 -1.22367,1.1779 -4.05124,1.3576 -5.66207,1.4988 -4.20565,0.3687 -8.44816,0.2302 -12.67455,0.2302 -2.33211,0 -4.21025,0.3396 -5.9916,-1.3815 m 436.00452,-10.1309 0,11.052 m -387.38035,-10.5916 0,6.6773 m 354.88745,-2.0722 0,5.9865 m -130.6632,-4.8352 -0.9217,5.0654 m -444.53103,-3.6839 0,0.9209 m 385.07583,1.1513 c 1.1867,1.6036 1.1637,3.7424 2.5833,5.2741 3.3669,3.6294 7.2659,0.261 8.7085,-3.2018 m -633.036021,-1.8421 c -1.96225,1.9376 -3.85099,1.6117 -6.45251,1.6117 m 141.263621,-1.6117 c -1.91501,1.8915 -3.68023,1.6117 -6.22205,1.6117 m 45.39792,-1.6117 c -1.86661,1.8436 -3.50969,1.6117 -5.9916,1.6117 m 221.91982,-1.6117 c -1.91501,1.8915 -3.68023,1.6117 -6.22204,1.6117 m 182.05266,-1.6117 c -1.816,1.7937 -3.3414,1.6117 -5.7612,1.6117 m -308.10677,-1.3815 c 1.73526,1.6769 3.48665,1.3815 5.76116,1.3815 m 18.20526,-1.3815 c 1.73526,1.6769 3.48665,1.3815 5.76116,1.3815 m 21.20106,-1.3815 c 1.73526,1.6769 3.48665,1.3815 5.76115,1.3815 m 61.52918,-1.3815 c 1.73527,1.6769 3.48665,1.3815 5.76116,1.3815 m 96.55701,-1.3815 c 1.73529,1.6769 3.48658,1.3815 5.76117,1.3815 m 166.38236,-1.3815 c 1.7352,1.6769 3.4865,1.3815 5.761,1.3815 m 83.6521,-1.3815 c 1.7353,1.6769 3.4866,1.3815 5.761,1.3815 m 190.5792,-1.3815 c 1.7353,1.6769 3.4867,1.3815 5.7612,1.3815 m -34.7975,-1.1511 c 2.164,0.9314 3.6273,1.1511 5.9917,1.1511 M 6.4993091,50.770132 c 1.87307,0.9986 4.8209599,0.4604 6.9133999,0.4604 m 896.436211,-0.4604 c 1.6753,0.8936 4.125,0.4604 5.9916,0.4604 m -439.69156,0 4.14804,0 m 30.64942,0 4.3784,0 m -372.86216,47.4315 c 1.14993,-0.2226 4.25173,-1.3707 5.06291,-0.1571 0.48623,0.7279 0.23736,2.087398 0.23736,2.920098 l 0,7.1377 0,27.1696 c 0,2.7608 -0.0692,5.5294 -0.0323,8.289 0.0115,0.9045 -0.22584,2.4392 0.56689,3.0811 0.96558,0.7814 3.41983,-0.1082 4.53519,-0.3181 M 394.57092,98.662032 c 1.24671,-0.099 4.22408,-1.2439 5.0629,0.064 0.53694,0.8371 0.23736,2.435598 0.23736,3.388798 l 0,8.5193 0,25.7879 c 0,3.1489 0.95174,8.1028 -0.13827,11.052 -0.88952,2.4038 -3.83693,1.8421 -5.85333,1.8421 m 46.7806,-50.194498 c 2.3713,-0.5644 4.94999,-0.6375 7.37429,-0.9095 0.68212,-0.076 2.0141,-0.5162 2.52799,0.1276 0.53695,0.6729 0.23736,2.274298 0.23736,3.084298 l 0,8.289 0,27.63 0,7.368 c 0,1.0248 0.21202,2.3188 -0.36871,3.2224 -1.49098,2.3151 -5.99621,1.3827 -8.38825,1.3827 M 41.987819,98.891832 c 1.1451,-0.091 3.52861,-1.0572 4.53565,-0.4452 0.90405,0.5496 0.53418,2.549398 0.53418,3.438398 l 0,9.6705 0,24.1762 c 0,2.4892 -0.95867,7.4646 0.23689,9.6571 0.70033,1.2846 4.36605,2.4745 5.75471,2.9061 6.56242,2.0393 13.76018,-0.4891 16.90139,-6.807 1.51681,-3.0509 1.68895,-6.5787 1.5433,-9.9007 -0.17906,-4.0856 -1.23126,-8.7226 -4.61791,-11.3933 -3.79268,-2.9909 -8.4606,-3.3966 -12.905,-1.6693 -2.35355,0.9148 -4.03741,2.6466 -6.68294,2.7014 M 277.73443,98.891832 c 1.11306,-0.048 4.09964,-1.2366 4.83247,-0.1561 0.48854,0.7203 0.23735,2.091498 0.23735,2.919098 l 0,7.3678 0,28.0906 c 0,2.8647 -1.31355,10.0998 1.38268,11.8339 1.18219,0.7584 3.2562,0.3694 4.60893,0.3694 m -70.74703,0 c -2.01641,0 -4.96381,0.564 -5.85334,-1.8421 -1.09001,-2.9492 -0.13826,-7.9031 -0.13826,-11.052 l 0,-21.4132 c 0,-3.8019 -0.36411,-8.3305 1.58547,-11.7427 3.72631,-6.518698 13.88208,-5.875698 15.92845,1.3815 m 103.00952,-4.1445 0.23043,0 m 429.32152,3.2235 c -0.1174,2.7479 -0.424,5.5705 -0.8641,8.289 -0.1613,0.9877 -0.1637,2.3543 -0.8666,3.1327 -2.0832,2.3044 -7.0377,1.7026 -9.7915,1.7026 m 9.9092,-1.6119 c 1.1222,2.0524 0.4608,5.5174 0.4608,7.8286 l 0,12.6637 c 0,2.6711 -0.2004,5.5096 0.7651,8.0588 2.3806,6.272 10.9416,5.8828 14.7509,1.1502 1.5854,-1.9682 2.5511,-4.1832 3.611,-6.446 m -578.18983,-21.6434 26.50132,0 m 183.89618,0 12.44411,0 m 141.72452,0.098 c 18.1845,-2.4727 20.4359,30.1599 2.9957,32.3006 -18.7282,2.3002 -20.9083,-29.8647 -2.9957,-32.3006 m 92.1785,-0.098 c -0.1589,2.0109 -0.7973,3.9788 -0.9356,5.9863 -0.5162,7.4822 -0.1175,15.2912 -0.017,22.7948 0.041,3.0696 0.032,6.1407 0.032,9.2101 0,1.2249 0.3274,3.0254 -0.2372,4.1445 -1.0855,2.1527 -3.7633,1.6117 -5.7544,1.6117 m 21.2011,-11.2822 c 1.7514,0 3.9015,0.4236 5.2658,-0.8955 1.2767,-1.2351 0.7258,-3.9131 0.7258,-5.5516 l 0,-10.1309 c 0,-1.4648 -0.3318,-3.3931 0.073,-4.8047 0.3042,-1.0582 1.8413,-1.2195 2.5511,-1.9625 2.0349,-2.1325 3.1549,-5.007 5.4409,-6.9786 2.3943,-2.0635 5.5353,-2.5702 8.5265,-1.6301 2.2836,0.718 3.7861,3.2589 2.5349,5.475 m 14.2876,15.1965 c 0.1291,1.6432 0.2627,4.6002 1.3205,5.9233 0.6591,0.8271 1.9726,1.0778 2.8275,1.6842 1.6017,1.1362 3.1986,2.3931 5.0699,3.0533 5.0215,1.7705 13.1401,0.458 14.4144,-5.5952 1.8781,-8.9252 -9.7179,-9.211 -15.3361,-11.6108 -1.7192,-0.7345 -3.5259,-1.6219 -4.4155,-3.3555 -3.8024,-7.4064 4.7634,-12.9789 11.3288,-10.5388 2.869,1.0665 4.9892,3.2189 7.8352,4.3221 l 1.1523,-4.8352 m 24.6577,-0.2302 15.9008,0 m 48.3937,0 c 1.9749,0 4.0834,-0.2796 5.6874,1.1408 1.0693,0.9466 1.567,3.9351 2.074,5.3061 1.5946,4.3096 3.2147,8.624 4.9131,12.894 0.7882,1.9839 1.5416,3.9882 2.2929,5.9864 0.2467,0.6546 0.5301,1.9567 1.4173,1.976 2.7262,0.059 3.8115,-5.5842 4.5422,-7.502 1.8089,-4.7564 3.6501,-9.5026 5.4177,-14.2753 0.4263,-1.153 2.0233,-3.7889 1.2929,-4.9924 -0.6752,-1.1112 -4.1365,-0.5336 -5.2842,-0.5336 m -16.1313,1.1511 c 1.6108,-1.4888 3.4613,-1.1511 5.5308,-1.1511 m 16.3616,0.2302 5.3002,-0.2302 m 3.9176,0 c 1.6893,0 3.6919,-0.2912 4.9961,1.0426 0.9542,0.9761 0.984,3.4056 1.3112,4.7136 l 2.9959,11.9729 c 0.3456,1.3756 0.6407,5.33 2.021,6.0137 1.8529,0.9168 2.6547,-2.6296 2.8714,-3.7111 0.7996,-3.9898 1.5463,-7.9941 2.3965,-11.9731 0.2191,-1.0158 1.0993,-3.1564 2.5051,-2.8336 1.1176,0.2567 1.3734,2.8399 1.6155,3.7547 1.0369,3.9188 2.0786,7.8434 3.1869,11.7427 0.2789,0.9789 0.6016,4.2091 1.9243,4.2723 2.6225,0.1249 2.982,-4.6228 3.4129,-6.3445 1.1292,-4.5088 2.2814,-9.0408 3.2561,-13.5848 0.226,-1.0575 1.3643,-3.7641 0.5324,-4.6962 -0.7075,-0.7914 -3.0165,-0.3692 -3.989,-0.3692 m -23.5054,1.1511 c 1.5208,-1.4057 3.1133,-1.1511 5.0697,-1.1511 m 22.8142,0.4603 4.148,-0.4603 m 3.9176,0 c 2.0809,0 4.6228,-0.3883 6.4203,0.9195 1.0139,0.7388 1.5531,2.6254 2.2606,3.6853 2.3598,3.5383 4.4984,8.2147 7.6809,11.052 3.3644,-3.3003 5.8233,-7.4521 8.5587,-11.2821 0.5554,-0.7769 2.7124,-2.9734 1.8621,-4.0055 -0.7351,-0.895 -3.8164,-0.3692 -4.8902,-0.3692 m -14.9791,1.1511 c 1.5671,-1.4482 3.2862,-1.1511 5.3003,-1.1511 m 15.2095,0.2302 5.3002,-0.2302 m 5.7612,0 c 1.7583,0 4.2771,-0.4589 5.6921,0.8376 1.5117,1.3849 2.4704,5.3019 3.3277,7.221 1.8182,4.0758 3.618,8.1844 5.5583,12.2033 1.8206,3.7692 3.9521,6.5928 2.3322,10.8218 -1.3528,3.5342 -2.7032,8.2199 -5.6184,10.7918 -2.7054,2.3852 -5.9893,1.3031 -6.6829,-2.0424 m 1.6131,-38.9122 c 1.5509,-1.3113 3.6018,-0.9209 5.5308,-0.9209 m 12.2135,0 10.1398,0 m 9.2178,8.9797 c 0,-2.1032 -0.3227,-5.7891 1.09,-7.5341 0.7835,-0.9694 2.6017,-1.0566 3.7494,-1.2154 3.3322,-0.4613 6.7797,-0.2302 10.13958,-0.2302 2.051,0 8.19,-1.0346 9.234,1.1555 0.3849,0.8082 -0.2375,1.6629 -0.6891,2.2982 -1.2397,1.7334 -2.6133,3.3968 -3.936,5.0654 -4.2817,5.3953 -8.46658,10.8738 -12.64688,16.3478 -1.0117,1.3244 -4.2172,4.2013 -3.9268,5.9862 0.1774,1.087 1.3182,1.5659 2.286,1.6075 2.754,0.1197 5.5401,0 8.2961,0 3.08568,0 6.16448,0.071 9.21788,-0.4422 1.0554,-0.1777 2.7561,-0.3177 3.5581,-1.1013 1.6499,-1.6158 1.468,-6.6571 1.5118,-8.8177 m -902.42799,1.8418 c -1.78135,2.4226 -3.53504,4.46 -6.22205,5.9155 -1.79586,0.9727 -3.72009,1.5493 -5.761161,1.6886 -2.53906,0.1732 -5.02004,0.099 -7.37428,-1.0011 -8.02345,-3.7511 -9.49923,-15.1268 -6.04184,-22.4902 2.80291,-5.9696 9.54923,-9.3135 15.951031,-7.1953 3.00779,0.9954 8.95491,5.5017 5.99161,9.0373 m 66.82943,-9.5691 c 4.50063,-0.5024 9.05885,2.6907 11.03377,6.576 0.95866,1.8887 2.76766,6.3396 -0.66367,6.8733 -4.74951,0.7386 -10.1673,0.034 -14.97902,0.034 -1.51404,0 -4.04664,0.4887 -5.28644,-0.5339 -1.48177,-1.2212 -0.54846,-3.4919 -0.0115,-4.9921 1.54399,-4.3053 5.36478,-7.4507 9.90688,-7.9575 m 421.02545,28.4496 0,-17.7291 c 0,-1.4917 -0.6936,-5.3425 0.2374,-6.5393 0.5253,-0.6752 2.2192,-0.8283 2.9888,-1.3106 5.404,-3.3868 12.534,-4.5687 17.4933,0.4911 5.9155,6.0369 5.7473,18.8596 -0.2189,24.8487 -3.1502,3.1617 -8.3377,4.5794 -12.6654,3.2108 -1.5901,-0.5033 -5.9593,-3.6667 -7.4665,-2.5037 -0.8411,0.6498 -0.3687,3.4049 -0.3687,4.3673 0,2.5973 1.1569,8.5008 -1.6131,9.8938 -1.1753,0.5918 -3.0903,0.2373 -4.3785,0.2373 m 67.5208,-15.1965 c -2.5626,0.01 -3.9751,1.4734 -6.222,2.4339 -3.5836,1.5332 -7.6371,1.5908 -11.0615,-0.443 -7.0585,-4.1932 -7.3097,-14.8728 -5.1643,-21.7925 0.9657,-3.1129 3.0258,-6.3237 6.0861,-7.7091 6.1206,-2.7706 11.5522,1.9617 16.3617,4.9461 m -650.7804709,2.0723 c 1.5721,-2.2191 2.08254,-4.544 4.6089199,-6.015 1.95995,-1.141 3.97935,-1.5833 6.22206,-1.5833 1.71774,0 3.4159,-0.069 5.06981,0.4814 8.44033,2.8126 5.76116,16.3551 5.76116,23.2345 0,2.0752 -0.49845,4.8296 0.69249,6.6671 2.4803,3.8254 5.85933,-1.5978 6.6818,-3.6739 m 111.766471,-0.2302 c -2.5349,0.2226 -3.78624,2.1177 -5.76116,3.4296 -3.05572,2.0295 -7.5356,2.4556 -10.83098,0.7044 -6.84886,-3.6383 -7.57477,-12.292 -6.52162,-19.1003 0.69133,-4.45 2.70543,-9.0578 7.21297,-10.8059 3.14328,-1.2191 6.97329,-0.9158 9.90919,0.7528 2.15006,1.2217 3.34608,3.1235 5.9916,3.1456 m 118.91031,-0.4606 0,16.3478 c 0,1.3594 0.6176,4.7512 -0.23735,5.8483 -0.45168,0.5801 -1.6431,0.5278 -2.29755,0.7123 -1.29743,0.3651 -2.41048,1.2031 -3.68715,1.649 -1.94727,0.68 -3.92911,1.1159 -5.99161,1.2068 -9.36534,0.4115 -12.02239,-9.2033 -11.50157,-16.7844 0.38485,-5.6074 2.77227,-12.6153 9.42756,-13.1035 2.5303,-0.1853 5.34174,0 7.60473,1.231 1.43107,0.7811 4.40151,3.171 6.15292,2.5028 0.94252,-0.3597 0.88491,-2.4561 0.99092,-3.294 m 151.17279,-0.4606 c -0.42863,2.3584 -2.76766,3.7301 -4.37848,5.2993 -1.14532,1.1161 -2.634,2.1551 -3.56961,3.4513 -0.52081,0.7225 -0.57612,1.7657 -1.20062,2.4021 -0.77892,0.7926 -2.17542,0.8252 -3.06494,1.563 -1.88736,1.5648 -3.1433,3.4037 -5.76116,3.6321 m 571.73707,-16.3423 c -0.099,2.1883 -1.2721,4.2152 -2.074,6.2168 -1.6384,4.0893 -3.4336,8.1138 -5.0699,12.2033 -1.0716,2.676 -1.7651,5.1548 -4.1479,6.9075 m -677.51228,-17.4991 c 2.9428,-0.1342 4.03742,-2.696 6.03079,-4.5074 3.47513,-3.1564 8.99431,-4.263 12.8612,-1.1296 1.98876,1.6093 2.56718,4.1516 2.80914,6.5581 0.48625,4.857 0.19128,9.8521 0.19128,14.7359 0,1.9042 0.68673,5.4979 -0.36872,7.1367 -1.21906,1.8937 -3.68483,1.3825 -5.6229,1.3825 m 184.12663,0 c -1.89196,0 -4.20104,0.4652 -5.39244,-1.3825 -0.89413,-1.3913 -0.36872,-4.1519 -0.36872,-5.7552 l 0,-14.5057 c 0,-1.3952 -0.64293,-4.9589 0.23736,-6.078 0.50007,-0.6356 1.78596,-0.4845 2.46117,-0.9914 2.09245,-1.5675 6.07227,-5.0943 8.35134,-1.4488 0.70979,1.1364 0.77207,2.4424 1.16378,3.6829 2.77924,-1.9339 4.7126,-6.0712 8.75696,-4.9655 2.20074,0.6014 3.29994,3.378 3.4498,5.4261 0.4194,5.7318 0.23736,11.516 0.23736,17.2687 0,1.955 0.65677,5.3751 -0.23736,7.1367 -1.07843,2.1263 -3.78857,1.6127 -5.75422,1.6127 m 16.13123,0 c 1.8642,0 4.0835,0.4468 5.4569,-1.09 1.1454,-1.2796 0.5347,-4.4238 0.5347,-6.0477 l 0,-11.052 c 0,-1.5887 -0.3802,-3.7353 0.073,-5.2616 0.288,-0.9752 2.1224,-1.0032 2.8553,-1.6977 3.4013,-3.2133 5.5629,-6.4039 10.6673,-6.5207 10.7435,-0.2455 8.5265,14.5808 8.5265,21.5388 0,2.2511 0.8689,6.8264 -0.3687,8.7484 -1.219,1.8937 -3.6849,1.3825 -5.6229,1.3825 m 347.5131,-31.7745 0,4.1445 m -409.04221,-2.763 c 2.38973,-0.5881 4.5974,-1.0266 4.60892,2.0723 m -152.78592,-1.6117 c 1.99336,-0.2517 3.99133,-0.4887 5.99161,-0.6734 0.6222,-0.059 1.6546,-0.3453 2.16619,0.1307 0.52772,0.4916 0.36872,1.5098 0.36872,2.1544 l 0,5.7563 0,16.1175 c 0,1.931 -0.55768,4.5713 1.15683,5.9132 1.67765,1.3119 5.77499,0.5337 7.83057,0.5337 m 32.26249,-29.9324 c 1.12457,-0.2095 5.24726,-1.4179 5.98469,-0.3783 0.4655,0.6571 0.23736,1.9203 0.23736,2.6807 l 0,6.6773 0,17.4989 c 0,4.1123 -0.26732,8.5033 -3.4567,11.4918 -3.13176,2.9335 -8.04027,3.4169 -11.98321,1.9066 -1.809,-0.6954 -5.35326,-3.4285 -3.22624,-5.5697 m 311.1026,-34.5375 c 1.3227,-0.2492 4.2563,-1.2527 5.4569,-0.4542 0.7052,0.4682 0.5347,1.5718 0.5347,2.2961 l 0,5.9865 m 107.1576,-7.8284 c 1.189,-0.2861 4.413,-1.2982 5.3924,-0.3215 1.113,1.1122 0.3686,5.4825 0.3686,6.9986 0,8.0315 -2.9634,23.8539 9.4484,22.5263 4.0835,-0.4367 6.752,-2.9288 9.9092,-5.2449 0.742,-0.5445 2.7101,-0.6992 3.0879,-1.4672 0.6038,-1.2305 0.1382,-3.6353 0.1382,-4.9924 l 0,-12.4335 c 0,-1.2515 0.5716,-4.4484 -0.3686,-5.3869 -1.0302,-1.0267 -4.3601,0.084 -5.623,0.3215 m -295.4322,0.2302 c 1.1455,-0.091 3.5283,-1.057 4.5353,-0.4451 1.1775,0.7153 0.5346,4.7357 0.5346,5.9711 m 72.8211,-5.526 c 2.0556,-0.4943 5.0352,-1.5514 5.0698,1.3815 m 139.6504,1.3815 0.9219,4.605 m -247.03855,-3.9143 0,25.0972 m -461.353551,-2.763 c -2.45311,0.051 -4.05586,1.6019 -6.22206,2.5326 -3.53804,1.5198 -8.80075,2.2544 -12.4440999,0.6099 -4.94445,-2.2311 -4.93086,-9.3165 -1.37346,-12.7925 5.0787999,-4.9618 13.1637999,-6.4674 20.0396199,-6.4674 m 381.158251,0 c 2.55103,4.5972 5.69432,8.9162 8.51499,13.3544 1.00244,1.5789 2.20075,4.716 3.72401,5.7393 2.10167,1.4123 4.48909,1.1682 6.88804,1.1682 m -264.55192,-19.5712 c 0,3.8799 -0.16132,7.9401 1.64307,11.5126 3.72403,7.367 12.62617,9.2997 19.55799,5.0823 2.21459,-1.3473 3.46821,-3.3802 5.06983,-5.3127 m 730.51494,-8.5192 c 0.069,2.1206 2.6548,4.6601 3.8415,6.447 1.415,2.1317 2.8783,4.262 4.2079,6.4471 0.5001,0.8195 0.6891,2.127 1.468,2.7139 1.9795,1.4904 4.5283,1.2002 6.8442,1.2002 m -16.3616,-15.4267 -8.0979,11.052 -2.7631,4.0712 -5.5008,0.3035 m -29.9579,-8.289 0.2303,8.0588 m 14.0572,-6.9075 0.2306,6.4469 m -74.4343,-6.2167 c 0,1.1941 -0.5001,3.8565 0.5348,4.693 0.9655,0.7814 3.4197,-0.1082 4.5351,-0.3181 m -553.07121,-2.5328 c 0,5.6987 -0.7697,11.9592 -6.4525,14.7796 -5.15508,2.5582 -16.04828,1.6026 -16.36169,-5.5697 m 469.6496,-8.9798 -0.9218,4.8353 m 129.5109,-4.3747 0,3.4538 m -795.039871,-2.763 -0.46089,2.3024 m 165.690911,-0.2302 c -1.81592,1.7937 -3.34147,1.6117 -5.76116,1.6117 m 76.50819,-1.6117 c -1.81591,1.7937 -3.34148,1.6117 -5.76116,1.6117 m 55.99846,-1.6117 c -2.38743,2.3578 -5.82568,1.6117 -8.9874,1.6117 m 96.78745,-1.6117 c -1.81591,1.7937 -3.34147,1.6117 -5.76116,1.6117 m 62.22052,-1.6117 c -1.86662,1.8443 -3.5097,1.6117 -5.9916,1.6117 m -166.38226,-1.3815 c 1.73526,1.6763 3.48665,1.3815 5.76116,1.3815 m 89.18273,-1.3815 c 1.73526,1.6763 3.48665,1.3815 5.76116,1.3815 m 45.16748,-1.3815 c 2.22611,2.1506 5.83951,1.3815 8.75696,1.3815 m 42.40213,-1.3815 c 1.73519,1.6763 3.48667,1.3815 5.76117,1.3815 m 10.37008,-1.3815 c 1.7353,1.6763 3.4866,1.3815 5.7611,1.3815 m 16.3617,-1.3815 c 1.7353,1.6763 3.4867,1.3815 5.7612,1.3815 m 132.9676,-1.3815 c 1.7353,1.6763 3.4865,1.3815 5.761,1.3815 m 244.9645,-1.3815 c -1.6869,1.6325 -3.3161,1.3815 -5.5307,1.3815 m -13.5963,-0.4604 c 1.6753,0.8933 4.125,0.4604 5.9916,0.4604 m -320.5509,9.9009 c 1.7353,1.6761 3.4867,1.3815 5.7612,1.3815 m 55.9985,-1.3815 c 1.7352,1.6761 3.4865,1.3815 5.761,1.3815 m -170.7606,31.0837 c -4.75413,4.75 -9.67645,9.4677 -14.12406,14.5057 -1.67765,1.9017 -4.24713,3.5251 -4.65732,6.2168 -0.15901,1.0338 0.69594,1.7176 1.18679,2.5326 1.32738,2.199 2.54874,4.4669 3.85998,6.6773 4.92464,8.3005 9.38152,16.8658 14.42592,25.0971 m 626.58367,-54.7993 c 4.3485,6.1016 7.607,13.2923 11.3263,19.8015 0.6661,1.165 1.2513,2.6156 2.1801,3.5942 0.9125,0.9601 2.2469,1.0821 2.3804,2.6226 0.3527,4.0155 -2.2329,5.0608 -4.0696,8.289 -3.8439,6.7531 -7.3005,14.1717 -11.8172,20.492 m 31.3406,-54.7993 c -3.0073,5.0954 -5.8579,10.2875 -8.7914,15.4266 -2.0026,3.5068 -3.5329,6.8799 -6.6485,9.4403 m -739.04148,-24.6365 c 1.34812,0 4.72877,-0.6193 5.52381,0.7254 0.57842,0.9739 0.23735,2.7836 0.23735,3.8796 l 0,8.9798 0,28.0905 0,8.289 c 0,1.0937 0.27654,2.6433 -0.13826,3.6701 -0.63603,1.5726 -4.0236,0.9347 -5.39245,0.9347 m 5.53071,-54.1086 5.53071,-0.4605 m 639.25811,0 c -3.2493,14.1626 -8.1739,28.2447 -12.4487,42.1357 -0.802,2.6041 -1.5809,5.2175 -2.3644,7.8286 -0.334,1.1098 -0.5231,2.7745 -1.3873,3.6102 -0.7167,0.6931 -2.2399,0.6908 -3.1524,0.4352 -1.3988,-0.396 -1.6294,-2.1528 -1.9818,-3.3547 -0.9427,-3.2258 -1.8782,-6.4586 -2.8668,-9.6705 -4.1389,-13.4467 -6.9434,-27.6162 -11.9787,-40.7542 m 155.7818,-0.2303 c 3.8991,6.6749 7.1761,14.3239 10.2733,21.4132 0.9357,2.1437 2.203,6.9282 4.9362,7.2852 2.6293,0.3453 4.012,-4.5705 4.8946,-6.3641 3.6295,-7.3749 7.614,-14.7498 10.7757,-22.3343 m -1139.418191,0.4674 c 0.60331,-0.4789 1.90695,-0.2371 2.6264,-0.2371 l 6.91339,0 c 6.96016,0 17.86857,-1.499 20.97868,6.6771 0.54501,1.4323 0.79549,3.0763 0.89298,4.6051 0.19658,3.0831 -0.80541,6.6289 -2.81399,8.9797 -0.96602,1.1306 -4.18351,3.0394 -3.65187,4.8353 0.63118,2.1298 4.88477,3.9603 6.34396,5.7562 4.32087,5.3212 4.66861,15.9011 -1.00959,20.3725 -5.89159,4.6396 -15.99851,2.8828 -23.04464,2.8828 l -5.5307,0 c -0.62313,0 -1.60161,0.1427 -1.93506,-0.5342 -1.0453,-2.1229 -0.13897,-6.7648 -0.13897,-9.1363 l 0,-22.5646 0,-16.1174 c 0,-1.142 -0.58855,-4.7616 0.36941,-5.5191 m 85.356631,37.0634 c -0.55998,4.3309 -2.39203,8.8231 -5.56988,11.9062 -9.86772,9.576 -25.74225,3.9671 -29.68172,-8.4525 -3.20229,-10.0941 -3.71503,-24.4111 2.79508,-33.3863 6.77328,-9.3365 20.87429,-9.7372 28.74864,-1.3791 2.17542,2.3093 2.64783,5.2335 3.70788,8.0564 m 16.89634,-13.8081 c 1.41032,-0.9417 5.1666,-0.2371 6.83965,-0.2371 7.66924,0 15.30623,1.1006 20.70099,7.1377 10.01059,11.2062 8.6809,34.9519 -4.33931,43.356 -5.32792,3.44 -11.6122,3.615 -17.74436,3.615 -1.24904,0 -4.98226,0.624 -5.75426,-0.5342 -0.42632,-0.6378 -0.23736,-1.7315 -0.23736,-2.459 l 0,-6.2168 0,-23.2553 0,-16.1174 c 0,-1.1858 -0.57842,-4.5475 0.53465,-5.2889 m 161.23869,27.3929 8.52651,0 c 0.81347,0 2.41047,-0.2993 3.08798,0.237 0.88721,0.7023 0.36872,3.7854 0.36872,4.8284 l 0,12.8941 c 0,1.1466 0.4678,3.6057 -0.53464,4.4069 -1.21215,0.9716 -3.54888,0.8036 -4.99608,1.3815 -10.51987,4.2066 -22.722,3.1521 -28.5016,-7.8607 -2.05789,-3.9189 -2.42891,-8.8025 -2.61787,-13.1242 -0.37103,-8.4686 0.70517,-16.4306 5.77959,-23.4855 7.54942,-10.4971 26.04505,-8.7818 30.17926,3.9141 m 18.4357,-10.8216 0,54.1087 m 327.46428,-54.012 c 7.4894,-0.9786 13.5847,3.9855 17.2673,10.0342 1.5924,2.6156 2.233,5.8023 2.8783,8.7495 2.6063,11.874 0.1061,32.7116 -15.0757,34.7309 -3.4821,0.4629 -7.2476,0.5273 -10.6006,-0.6746 -9.2709,-3.3224 -13.1447,-13.4352 -13.3682,-22.5437 -0.2605,-10.5408 1.2559,-23.3612 11.9856,-28.7192 2.2306,-1.1143 4.5028,-1.2617 6.9133,-1.5771 m 37.7932,24.5399 0,-17.9595 c 0,-1.4044 -0.6706,-5.268 0.3687,-6.3088 0.5968,-0.594 1.8643,-0.3683 2.6271,-0.3683 l 7.1437,0 c 7.4183,0 19.8622,-0.4652 21.4292,9.21 0.2328,1.4367 0.3319,2.9218 0.1937,4.3746 -1.1293,11.7958 -14.3315,11.2824 -23.2359,11.2824 l -5.7612,0 c -0.6706,0 -1.8319,-0.2096 -2.3966,0.237 -1.1131,0.8797 -0.3687,5.7633 -0.3687,7.1309 l 0,21.6436 m 69.1339,-13.815 0.44,8.289 0.7122,5.0654 c -1.4979,1.0776 -3.1156,0.4882 -4.8394,0.4606 -6.487,-0.1107 -12.6054,-4.6581 -15.3799,-10.3613 -5.8903,-12.1065 -4.7334,-32.7185 7.3144,-40.8118 2.3828,-1.6025 5.019,-2.3024 7.8352,-2.4959 11.1627,-0.7668 19.4403,7.596 21.1318,18.4408 1.5578,9.9743 1.3089,23.1515 -6.6138,30.6024 -1.3943,1.3101 -3.0234,2.4751 -4.8394,3.1175 -1.3481,0.4767 -2.7308,0.4215 -3.9176,1.2779 1.3021,2.3464 1.1615,4.8768 2.922,7.1379 4.1688,5.3532 12.3982,4.5496 18.279,3.4537 m 11.5225,-10.3612 0,-37.761 0,-10.8219 c 0,-1.3055 -0.3896,-3.3616 0.1382,-4.5703 0.3687,-0.8428 1.4034,-0.723 2.1661,-0.7253 l 5.9916,0 c 7.0979,0 19.0212,-1.1743 22.6415,6.6771 2.8367,6.1547 0.2857,13.9257 -6.0493,16.5896 -1.7307,0.7276 -3.8969,1.149 -5.7611,1.3308 -0.7673,0.073 -2.0464,-0.1681 -2.3759,0.7645 -0.885,2.5028 1.9311,6.4976 3.1133,8.4848 4.0604,6.8153 7.5655,13.9623 11.7066,20.7224 m 16.3617,-11.9731 c 2.4704,4.6305 4.6505,8.9983 10.1396,10.6444 10.096,3.0257 24.4596,-2.4544 21.0213,-15.0191 -2.5164,-9.1916 -14.6378,-10.3519 -22.1734,-13.3544 -5.086,-2.0263 -9.0704,-5.1692 -9.2156,-11.052 -0.2927,-12.0191 13.6148,-16.8406 23.2728,-12.0168 4.2149,2.1069 6.365,6.0417 7.6046,10.4049 m 14.0574,-12.2031 35.0278,0 m 265.70468,0 19.3574,0 c 1.4218,0 5.7543,-0.7184 6.7659,0.3683 0.7697,0.8312 -0.3226,3.7969 -0.7282,4.6972 -1.9104,4.2549 -4.4362,8.3305 -6.6576,12.4335 -4.8463,8.9521 -9.6556,17.9365 -14.4098,26.9392 -1.2006,2.2726 -2.4174,4.3678 -2.9451,6.9075 -0.1337,0.6538 -0.583,1.8189 -0.071,2.3945 0.9447,1.0592 5.1689,0.3685 6.524,0.3685 l 19.3574,0 m -1003.5938,-0.2302 -19.35749,0 c -1.56473,0 -5.76346,0.746 -7.00558,-0.2373 -0.64985,-0.5133 -0.36871,-2.0307 -0.36871,-2.7561 l 0,-7.5982 0,-31.3139 0,-8.5192 c 0,-0.7645 -0.3111,-2.4476 0.36871,-2.9864 1.24212,-0.9832 5.44085,-0.2372 7.00558,-0.2372 l 19.35749,0 m 17.74437,53.6483 0,-40.2939 0,-9.6705 c 0,-0.8356 -0.36871,-2.8641 0.36871,-3.4467 1.24211,-0.9832 5.44083,-0.2372 7.00558,-0.2372 l 19.12704,0 m 102.08772,0 0,53.6483 m 61.99008,-53.6483 0,29.4721 c 0,5.2196 0.61297,11.2868 -1.7998,16.1174 -3.08337,6.1752 -9.9622,8.0679 -16.40546,8.0588 -2.8299,0 -5.86947,-0.38 -8.52652,-1.3815 m 44.70658,-52.2668 0,53.6483 m 466.88432,-53.6483 0,53.8785 m 32.2625,-53.8785 0,30.1628 c 0,5.0102 -0.7305,11.0197 1.5693,15.6569 5.0168,10.1149 22.8764,11.0544 28.7389,1.1513 2.7239,-4.5981 2.1847,-10.9853 2.1847,-16.1174 l 0,-30.8536 m 65.21618,0 c 0.097,4.6418 1.1777,9.4379 1.7791,14.0452 1.21,9.2906 2.353,18.5858 3.6894,27.8603 0.4172,2.8965 0.1868,7.2897 1.5187,9.8961 0.7628,1.492 3.3646,1.5911 4.4639,0.4122 0.788,-0.8451 0.795,-2.3164 0.9747,-3.4008 l 1.2283,-7.368 c 1.5625,-9.3666 3.0972,-18.7355 4.7242,-28.0906 0.5438,-3.129 0.8686,-6.3479 1.5854,-9.4401 0.2419,-1.043 1.1983,-2.3209 2.3897,-2.3647 1.1615,-0.042 2.3068,1.3631 2.5995,2.3647 0.8687,2.9725 0.9977,6.3756 1.4518,9.4401 1.4218,9.5945 2.7998,19.2052 4.3392,28.7813 0.4218,2.6225 0.1475,8.3557 2.0442,10.3083 1.2029,1.2387 3.2884,0.8427 4.0812,-0.6378 1.3227,-2.4729 1.2328,-6.8891 1.6153,-9.6705 1.3344,-9.6773 2.7861,-19.3478 4.2103,-29.0114 0.6407,-4.3495 1.6661,-8.745 2.0118,-13.1243 m -594.78188,0.2302 0,39.8333 0,10.131 c 0,0.9232 -0.35506,2.8044 0.3685,3.5136 1.0924,1.0683 4.8648,0.4005 6.3144,0.4005 l 17.9748,0 m 108.0793,-53.8784 0,20.2621 0,14.0452 0,13.5848 c 0,1.3538 0.4954,3.8175 -0.9357,4.598 -3.8369,2.093 -6.1483,-5.3188 -7.1622,-7.5914 -4.6872,-10.5086 -9.8331,-20.81 -14.5181,-31.3139 -1.4265,-3.1982 -2.7032,-7.2782 -4.8002,-10.0873 -0.6084,-0.8173 -2.6017,-2.2081 -3.6894,-1.9616 -1.3413,0.3015 -1.157,2.0492 -1.157,3.0692 l 0,9.2099 0,39.6031 m -604.6911009,0.4603 c 2.02378,-6.3225 3.5202999,-12.8339 5.6860399,-19.1105 0.31271,-0.9051 1.10544,-1.4898 1.39373,-2.351 0.50629,-1.5128 0.35005,-3.2373 0.75886,-4.7869 1.28612,-4.8744 2.95041,-9.6935 4.45361,-14.5058 0.97755,-3.129 1.7878,-6.311 2.76535,-9.4401 0.44431,-1.423 0.75656,-2.9818 2.45633,-3.3547 1.26862,-0.2764 2.42661,0.6032 2.84993,1.7453 1.23635,3.3408 1.99359,6.9351 2.9783,10.3588 1.45987,5.0747 3.30137,10.078 4.59717,15.1965 0.37677,1.4875 0.24358,3.1153 0.70009,4.5843 0.2687,0.8657 1.03701,1.4483 1.34074,2.3232 2.1208,6.1086 4.19804,12.7836 5.50859,19.1108 m 511.130061,-0.2302 0,-40.7542 c 0,-3.0463 -0.9542,-7.9806 0.1382,-10.8172 0.659,-1.7039 2.6202,-1.0822 3.7794,-0.357 2.1777,1.3632 2.7008,4.9826 3.5535,7.2599 2.3782,6.3526 4.8139,12.7052 7.047,19.1108 0.7628,2.1873 1.9381,8.5238 4.8393,8.6366 2.9774,0.1151 4.3463,-6.256 5.2081,-8.4065 2.581,-6.4424 5.1252,-12.8962 7.6968,-19.3409 0.9542,-2.3924 1.5602,-5.9681 3.9176,-7.3312 1.3666,-0.7897 3.3415,-1.1098 3.844,0.8842 0.7765,3.0738 0.073,7.1883 0.073,10.3613 l 0,40.7542 m -128.58895,-28.3207 3.91759,-1.5428 5.06981,-3.2925 m -415.264301,4.1445 24.65776,0 m 128.128161,0 23.50553,0 m 20.97062,0 20.74016,0 m 75.58641,0 31.80159,0 m 437.15672,0 c 5.2749,0 11.1744,-0.7323 16.3617,0.2302 m 345.20848,3.6839 0,25.0974 m -46.5501,-24.4066 c 2.982,2.4751 4.5075,5.8645 6.4179,9.2101 2.9844,5.2243 5.8788,10.5269 9.022,15.6568 M 35.073699,225.53073 c -1.77375,0.9463 -4.47481,0.4604 -6.4525,0.4604 l -14.74856,0 m 320.089961,16.8083 0,3.684 m 453.51842,-0.4606 0.4609,0 m -385.07586,0.4606 5.30026,0.2301 m -262.93927,40.9846 0,37.5307 0,10.8218 c 0,1.4458 0.35489,3.4652 -0.2051,4.8236 -0.60377,1.4574 -2.87366,1.4115 -4.17338,1.8006 -4.38309,1.3147 -9.02428,2.5972 -13.13545,-0.3593 -2.50264,-1.8005 -3.80005,-4.9733 -4.42687,-7.8768 -1.3435,-6.2167 -1.66382,-14.0476 -0.0714,-20.2619 0.77199,-3.021 1.77213,-5.9956 4.4983,-7.8054 5.48693,-3.6427 11.5569,0.4559 17.05304,1.5887 m 57.38113,36.1491 0,-39.3727 0,-10.1309 c 0,-1.6463 -0.0738,-3.8683 0.89414,-5.2865 1.66612,-2.4407 6.24279,-1.621 8.78461,-1.621 m 123.05834,0 0,27.1694 0,6.447 c 0.002,0.7093 -0.13134,1.8858 0.72591,2.1758 1.81132,0.6148 4.46605,-1.9133 5.95704,-2.5925 2.01871,-0.9187 1.73296,-3.2396 2.92897,-4.8789 2.97967,-4.0964 6.41562,-8.1532 9.74557,-11.9732 m -308.337201,-16.1174 0,13.815 0.23045,6.9075 c 1.40826,-0.6055 2.95755,-0.7137 4.37848,-1.2595 4.01392,-1.5426 7.87828,-3.8152 12.21365,-1.4092 2.91585,1.6188 4.26764,5.1001 4.91658,8.1947 0.65977,3.1476 0.61414,6.4699 0.61414,9.6705 0,5.5443 0.12468,11.7911 -3.11563,16.578 -2.49436,3.6839 -9.36788,5.2496 -13.22186,2.558 -0.92363,-0.6446 -1.31885,-1.8489 -1.86777,-2.7882 l -1.15223,0.9209 c -0.39246,-0.647 -0.51851,-0.6333 -0.92179,0 m 214.084651,-53.1877 0,56.1809 m 38.71499,-56.1809 0,4.1445 m 16.82258,-4.1445 0,4.1445 m 53.00267,-4.1445 0,43.0567 c 0,4.0132 -1.5924,12.6844 3.91758,13.1242 m 290.82323,-53.6481 0,38.2214 c 0,3.3986 -0.3272,6.9904 0.1337,10.3613 0.182,1.3353 0.1866,2.8021 1.1407,3.8659 2.0095,2.2333 7.3144,1.4299 10.0174,1.4299 m 142.4159,-40.0635 c 2.3321,3.9925 4.3254,8.2981 6.3949,12.4335 0.7927,1.5817 1.6315,4.103 3.7448,4.2687 2.0601,0.1612 3.0004,-2.3623 3.747,-3.8083 2.217,-4.2894 4.3717,-8.6206 6.623,-12.8939 m 14.9791,0.2302 c 2.7123,7.0249 5.3716,14.0936 7.9066,21.1831 0.6845,1.9178 1.5279,6.2649 4.307,6.1085 2.7861,-0.1567 3.3944,-4.5406 4.0721,-6.5691 2.2836,-6.8476 4.2932,-14.1282 7.2198,-20.7225 m -870.6262509,8.0588 c 1.23427,-2.3395 1.85301,-4.628 4.1480299,-6.2651 4.52596,-3.2282 13.64081,-2.0194 15.82337,3.5021 1.32622,3.3546 0.73397,7.5291 0.73397,11.052 l 0.0347,23.2551 m 133.197981,-20.0317 c 0,-5.3372 -0.0599,-11.4249 3.72631,-15.6569 4.15956,-4.6466 12.66534,-5.3051 16.90555,-0.2279 2.74691,3.2902 3.26311,7.391 3.54426,11.5101 0.0761,1.0983 0.42402,3.4469 -0.51389,4.2366 -1.00245,0.8427 -3.52584,0.3685 -4.76563,0.3685 l -12.67455,0 c -1.15916,0 -5.50768,-0.6356 -6.08379,0.5341 -0.9333,1.8949 0.076,6.067 0.61991,7.985 0.8803,3.1039 2.04175,6.2627 4.54209,8.4755 5.03525,4.4577 13.50416,3.691 17.51392,-1.568 m 12.21366,-34.998 15.43991,0 m 175.83054,39.3727 0,-26.2485 0,-6.9075 c 0,-0.8104 -0.25348,-2.1758 0.23737,-2.8758 0.7213,-1.0268 2.83448,-1.0246 3.91068,-1.5057 4.7011,-2.1023 12.37727,-3.4032 15.20714,2.5397 1.1822,2.4842 0.23276,7.3864 0.23276,10.1308 l 0,24.867 m 0,-35.2282 c 1.7076,-1.1628 4.05817,-2.4498 5.99161,-3.1958 3.99363,-1.5449 11.02455,-1.8858 13.08934,2.7354 1.59239,3.5596 0.96788,8.1761 0.96788,11.9729 l 0,23.7157 m 17.97482,0 0,-23.7157 c 0,-2.6525 -0.93562,-7.4279 0.13826,-9.85 0.5669,-1.2757 2.88288,-1.2987 3.94063,-2.0332 1.16837,-0.8127 1.99566,-1.9156 3.29539,-2.5927 3.49817,-1.8188 9.94606,-2.0813 12.57775,1.3517 2.10168,2.7422 1.47947,7.7962 1.47947,11.052 l 0,25.7879 m 135.27211,0 0,-25.3273 0,-6.6773 c 0,-0.7783 -0.2166,-1.9848 0.2373,-2.6663 0.6615,-0.9971 2.6455,-1.1237 3.6803,-1.5542 3.6825,-1.5313 6.1898,-3.1476 10.37,-3.1476 m 44.2458,0 16.3617,0 m 53.4635,0 c 2.2815,9.94 5.0952,19.8038 7.5747,29.7022 0.5255,2.093 1.2376,8.8554 4.4085,8.4962 3.2447,-0.366 3.4844,-6.5574 4.0143,-8.9566 2.1501,-9.7259 4.1204,-19.6564 6.8167,-29.2418 m 14.0572,0 c 1.945,10.3199 3.512,20.7249 5.2426,31.0837 0.3043,1.8167 0.3112,4.6696 1.3459,6.2168 1.0002,1.4965 2.9196,1.8442 4.1688,0.4168 1.4195,-1.6188 1.2811,-5.7034 1.6291,-7.7847 1.1154,-6.6727 2.3621,-13.3292 3.284,-20.0317 0.3203,-2.3234 0.1682,-8.5908 3.4566,-8.7127 3.4591,-0.1268 3.1848,6.3871 3.519,8.7127 0.9748,6.7531 2.0048,13.5017 2.9336,20.2619 0.2996,2.1758 0.1705,6.2351 1.8573,7.7939 1.2098,1.1191 3.0835,0.7644 3.9015,-0.677 0.9449,-1.6669 0.9471,-4.5404 1.2882,-6.4262 1.8412,-10.207 2.9151,-20.787 5.397,-30.8535 m 85.2651,0 17.2836,0 c 1.1661,0 5.0791,-0.6148 5.7335,0.5341 0.4055,0.7093 -0.166,1.9642 -0.3365,2.6895 -0.6544,2.7883 -2.9705,5.512 -4.609,7.8284 -4.7148,6.6727 -8.9298,13.6952 -13.4626,20.4923 -0.9447,1.4159 -4.2126,5.6802 -2.8368,7.5245 0.6107,0.8197 2.1823,0.5343 3.0673,0.5343 l 8.9873,0 10.3702,0 m -807.25365,-10.1311 c -1.11306,7.5291 -9.153561,12.0951 -16.131241,8.83 -2.86422,-1.3377 -5.17398,-4.3402 -6.34788,-7.2183 -2.99027,-7.3334 -2.75176,-18.8804 1.71844,-25.5577 3.82886,-5.7193 12.49112,-7.4233 17.743451,-2.4659 2.00489,1.8926 2.42107,4.4553 3.47812,6.8408 m 136.42423,-6.9075 0,23.2551 0,6.2167 c 0,0.7184 0.18898,1.8052 -0.23736,2.4339 -0.74894,1.1073 -3.20089,1.0037 -4.37156,1.3883 -4.17799,1.3676 -9.06346,3.1498 -12.26206,-1.2894 -4.06045,-5.6342 -3.22623,-14.6 -2.93818,-21.183 0.19588,-4.4507 1.00014,-11.494 5.98239,-13.214 2.48881,-0.8588 5.70815,-0.2902 8.06561,0.7275 1.22368,0.5273 3.86459,1.8168 5.22653,1.2757 0.78122,-0.3108 0.53463,-1.7153 0.53463,-2.3738 m 17.97482,5.0654 c 5.86025,-1.3539 10.19033,-6.8246 16.82258,-4.6786 4.33009,1.4021 4.14805,6.2534 4.14805,9.9744 l 0,28.7811 m 17.51391,-39.1423 0,39.1423 m 16.82258,-39.1423 0,38.6819 c 0,4.7776 0.35028,11.3812 -5.9916,11.5124 m 76.04728,-50.1943 0,2.5326 m 57.6116,-2.5326 0,4.8352 m 47.93282,-4.7363 c 15.01828,-2.1736 15.78334,17.8972 13.64249,27.9914 -0.99559,4.6857 -4.15729,9.9583 -9.26397,10.7527 -14.91913,2.3278 -15.79712,-17.8075 -13.88672,-27.791 0.96096,-5.0241 4.06276,-10.1656 9.5082,-10.9531 m 31.11029,-0.099 0,17.9595 0,12.6636 c 0,1.4712 -0.5622,4.4209 0.2374,5.6917 0.6821,1.0822 2.8023,1.0178 3.9107,1.347 4.2887,1.2711 9.1395,2.7584 13.1354,-0.2878 2.3967,-1.8281 3.489,-4.628 4.2795,-7.4416 0.6475,-2.3025 0.7351,-4.7661 0.7927,-7.1377 0.1797,-7.3221 1.0025,-20.5107 -8.5289,-22.5369 -4.9616,-1.0546 -8.9298,2.0009 -13.5962,2.9655 m 59.6856,-0.6907 0,24.867 0,6.4471 c 0,0.755 0.2257,1.9916 -0.2375,2.6455 -0.8872,1.2503 -5.1966,1.5151 -6.676,1.9386 -1.5947,0.4559 -3.1733,0.7093 -4.8394,0.7115 -12.2759,0.021 -11.0407,-15.2654 -10.8286,-23.9458 0.1244,-5.0058 1.1867,-13.0668 6.911,-14.7845 2.8231,-0.8496 6.2221,-0.4789 8.9875,0.4146 1.5072,0.488 4.5559,1.8672 6.1483,1.2984 0.742,-0.267 0.5347,-1.5149 0.5347,-2.125 m 17.7443,0 0,3.9141 m 26.2708,26.9392 c 1.5096,3.4008 2.6526,6.2744 6.4526,7.7204 7.766,2.9563 15.5389,-2.2795 13.7439,-10.7136 -2.2907,-10.7619 -18.5304,-5.3879 -20.2909,-16.1174 -0.1567,-0.9556 -0.3688,-2.0241 -0.318,-2.9934 0.1636,-3.1566 1.2145,-5.9773 4.0996,-7.6051 5.5561,-3.136 15.7971,-0.3821 16.1312,6.9144 m 44.9371,-8.0586 0,26.0181 c 0,3.3271 -0.5692,8.3097 1.703,11.0429 3.7954,4.5657 10.8563,1.2916 14.8891,-0.7186 1.1107,-0.5525 3.8186,-0.6883 4.4038,-1.8741 1.1799,-2.3945 0.2051,-7.4003 0.2051,-10.0619 l 0,-24.4064 m -668.294421,3.9141 0,19.5714 c 0,4.5679 -0.36019,8.4431 3.68714,11.5123 m 293.358191,-19.5712 c 2.04175,1.9088 3.08337,5.0816 4.21947,7.5983 2.48651,5.5145 4.71033,11.3513 7.76374,16.578 m -327.003361,-4.3747 c -5.44037,1.1259 -10.24081,5.611 -16.13124,3.4237 -6.2006199,-2.3048 -5.8685399,-12.5417 -2.2353299,-16.7783 4.3777999,-5.1046 12.0622499,-5.9864 18.3665699,-5.9864 m 801.492441,0.4604 -0.1382,5.9611 -2.7977,2.7884 -7.4342,14.5058 M 335.3452,324.07743 c -1.4495,6.3318 -0.4609,13.7666 -0.4609,20.2621 m 494.76842,-16.3478 c 2.1753,0.6446 2.8114,2.74 3.7447,4.605 1.998,3.9948 3.9131,8.1185 6.1644,11.973 m 27.1927,-12.4335 c 0,8.3188 -4.3924,15.3484 -6.222,23.2553 M 45.904599,335.82013 c -1.11559,1.7316 1.16652,2.9357 2.53491,3.6841 m -3.22625,-2.5328 c -0.62059,1.6347 1.65069,2.7446 2.30446,4.1445 m -2.76535,-3.2235 c -1.12435,1.3285 -0.99876,2.4223 -0.23045,3.9143 m 2.9958,-3.9143 0,0.9211 m -2.30446,0 0.69134,1.6117 -0.23045,0.2302 -1.38267,0 0.23044,0.2303 0.69134,-0.4605 m 1.84357,-1.6117 -0.69133,1.1511 m 0.92177,-0.9209 0.69134,1.3815 m -1.15223,-0.921 -0.23045,0.2302 m 1.84358,-0.2302 -0.4609,0.4604 m -2.76535,-0.2302 -0.46089,0.4606 m 2.76535,-0.4606 -0.46089,0.4606 m 0.69134,-0.2304 -0.4609,0.4606 m 1.84358,-0.4606 -0.4609,0.4606 m -2.76535,-0.2302 0,0.4604 m 198.414291,-0.4604 c -0.84343,2.8527 -0.14057,5.8805 -1.35503,8.7493 -3.00039,7.0964 -11.47392,6.4816 -17.77201,5.2959 m 489.00717,-14.0452 0,3.9141 m -668.063981,-0.2302 0.69134,2.0723 c -2.74738,0.8104 -4.60661,-2.8896 -2.9958,-5.0655 m 0.92179,0 0.46089,1.6117 m 0.92178,-1.6117 0.23046,0.4604 m 0.46088,-0.4604 0,0.2302 m 2.53491,0.4606 1.15224,1.1511 -3.68715,3.2236 m 97.939701,-4.1445 0.46089,2.5328 m 379.08425,-2.5328 0,13.3544 m -478.406621,-13.1242 -0.46089,0.9211 m 538.783711,-0.9211 0,13.1242 m -536.709701,-12.6637 0.23045,0 m 2.9958,0.2302 0.4609,0 m -5.30027,0.4606 0,0.2302 m 0.4609,-0.2302 0,0.2302 m 1.38267,0.4605 1.15223,-0.4605 m -0.92179,0.6907 -0.46089,0.4606 m -0.46089,0 -0.4609,0.4605 m 518.504391,42.8265 -12.8658,13.3544 -3.5466,5.3648 -3.1756,1.5933 -9.9092,10.0321 -5.1689,2.8229 -0.3618,6.4354 0,14.5057 m 374.2448,-13.5848 c 0,3.2075 0.249,6.4885 0.6246,9.6705 0.106,0.8796 0.4886,3.3018 -0.1106,4.0064 -0.6776,0.7944 -3.6664,0.1589 -4.6619,0.1359 -5.4847,-0.1359 -11.5385,-3.1061 -15.1704,-7.1355 -10.4461,-11.5907 -8.3329,-33.4645 4.1089,-42.716 11.5178,-8.5653 29.2575,-3.2395 34.1752,10.2508 1.5256,4.1814 2.1938,8.6827 2.1938,13.1243 0,7.2759 -1.8112,15.5463 -7.3328,20.7017 -2.309,2.1575 -5.2057,3.9419 -8.296,4.7201 -1.0485,0.2625 -3.0281,0.022 -3.0188,1.522 0.076,10.771 13.2137,11.851 20.9937,9.6659 m 405.58538,-64.0095 c 3.7402,5.6481 7.5333,11.2799 11.1053,17.0385 1.242,2.0009 2.6063,5.4593 5.2565,5.823 2.4865,0.3432 3.9545,-3.2511 4.996,-4.9021 3.6987,-5.8622 8.4044,-11.7058 11.3657,-17.9594 m -47.933,0.2303 -11.1397,17.9595 -3.0373,4.5428 -2.4081,1.9134 -0.6061,5.0471 -2.8368,2.5465 -13.8475,21.8692 M 15.025249,421.01283 c 0.32124,-4.0595 2.04452,-7.7573 3.50025,-11.5126 1.6864,-4.3495 3.25022,-8.7496 4.86932,-13.1242 0.68535,-1.8536 1.64724,-7.1401 3.84524,-7.5453 3.61594,-0.6677 4.17038,3.0714 5.06797,5.7032 2.13508,6.2605 4.59188,12.4037 6.76291,18.6502 0.68465,1.9711 2.45126,5.4731 1.65921,7.5936 -0.71299,1.9112 -4.73913,1.156 -6.34741,1.156 l -14.74856,0 c -1.34236,0 -3.68784,-0.7736 -4.80873,-0.5503 -1.28013,0.2556 -2.09107,4.0732 -2.49205,5.1554 -1.96593,5.3071 -4.2501199,10.5269 -6.0651099,15.8872 m 60.1464899,-27.3998 0,-19.5712 c 0,-1.271 -0.67797,-5.6112 0.36941,-6.4401 0.6411,-0.5089 2.08992,-0.2372 2.85684,-0.2372 l 7.14384,0 c 9.02197,0 23.510601,-2.0192 25.052981,10.3613 0.27376,2.1966 0.1613,4.2573 -0.16571,6.4469 -0.40672,2.7239 -1.855541,4.4438 -3.268181,6.6773 -0.52288,0.8266 -0.67544,1.9779 -1.59515,2.4913 -1.74263,0.9739 -4.94953,0.5019 -6.8885,0.5019 l -15.67035,0 c -1.92285,0 -5.57311,-0.7115 -7.30101,0.1383 -1.15177,0.5663 -0.53417,4.7155 -0.53417,5.8482 l 0,14.9663 c 0,1.2594 -0.56735,4.3723 0.2369,5.3878 0.48831,0.6147 1.8415,0.3684 2.52845,0.3684 l 6.68295,0 c 5.82822,0 11.70759,0.2165 17.51393,-0.2096 3.8761,-0.2832 7.942791,-1.4575 10.250241,-4.8558 3.30876,-4.8721 3.45002,-12.4773 -0.44222,-17.0386 -1.75277,-2.0539 -4.353131,-2.8228 -5.890441,-5.0654 m 66.138111,11.9729 c -1.01858,4.4485 -2.55797,8.8647 -6.22206,11.8671 -6.49398,5.321 -20.7079,4.8651 -26.96222,-0.6262 -7.90891,-6.9468 -8.96897,-18.4039 -8.02644,-28.2794 0.65676,-6.8982 2.77688,-14.2155 8.94822,-18.1689 6.16905,-3.9534 18.28362,-4.4277 24.42732,-0.2004 3.7701,2.5949 6.03078,7.2599 6.68293,11.6922 m 20.81392,-14.0384 c 0.81348,-0.5433 2.44734,-0.2372 3.38296,-0.2372 l 8.29606,0 c 7.0217,0 14.3522,1.3102 19.33675,6.6773 2.78841,3.0001 4.30474,6.8983 5.20579,10.8216 2.41738,10.5294 1.55782,25.3276 -8.41129,31.8436 -6.2958,4.1169 -13.9881,3.8452 -21.20107,3.8452 -1.39881,0 -6.06303,0.7322 -6.90647,-0.5341 -1.07157,-1.6026 -0.23736,-6.074 -0.23736,-7.985 l 0,-21.4133 0,-17.2687 c 0,-1.2481 -0.62451,-4.9782 0.53463,-5.7494 m 91.64391,52.9505 -25.81,0 -6.4525,0 -2.62708,-0.2372 -0.36872,-2.756 0,-7.368 0,-31.0837 0,-8.5192 0.36872,-2.9864 2.62708,-0.2372 6.68295,0 25.80998,0 m 17.97483,52.9575 0,-39.6031 0,-9.6704 0.3687,-3.4468 2.39665,-0.2372 5.9916,0 23.27509,0 m 41.48033,29.9324 8.75696,0 c 1.16146,0 2.85293,-0.3039 3.91759,0.2373 1.56474,0.7965 1.38268,2.4221 1.38268,3.9072 0,3.1453 0.11752,6.3204 -0.32953,9.4403 -0.1498,1.0407 -0.16822,2.5605 -0.92179,3.3639 -1.37808,1.4645 -3.9775,1.4645 -5.66207,2.4431 -1.57394,0.9141 -2.86215,2.1527 -4.60893,2.7813 -5.15278,1.8582 -13.92126,2.0999 -18.89659,-0.3868 -2.94051,-1.4689 -5.50997,-4.1791 -7.39504,-6.82 -7.52868,-10.5454 -6.36031,-28.521 1.55783,-38.4517 1.71682,-2.1551 4.22177,-4.1123 6.75899,-5.1967 9.89307,-4.2297 28.06606,-0.2971 28.3449,12.7949 m 78.35175,-14.0452 10.13965,0 m 62.22051,0 0,22.5646 c 0,2.5419 -0.8319,6.8637 0.6914,8.9797 m 177.2132,21.1829 0,-40.0635 0,-9.4401 c 0,-0.882 -0.3826,-2.8207 0.7259,-3.15 5.7727,-1.713 8.3997,7.5777 10.3954,11.439 5.8372,11.2983 11.9026,22.4883 17.6269,33.8467 1.6224,3.2165 2.8092,7.8216 6.971,7.8284 0.6706,0 1.6407,0.1566 2.2307,-0.2372 1.014,-0.6746 0.5347,-3.3086 0.5347,-4.3678 l 0,-13.1243 0,-14.2753 0,-20.9529 m 37.3322,-0.1334 c 4.2932,-0.5688 10.052,-0.5319 14.0572,1.2617 10.2088,4.5773 13.3659,16.8681 13.3659,26.9623 0,10.6375 -5.1228,23.018 -17.0529,24.5698 -10.4439,1.3585 -20.0973,-0.8266 -25.7041,-10.5247 -2.1708,-3.7599 -2.6017,-8.213 -2.892,-12.4335 -0.862,-12.5808 3.9083,-27.9339 18.2259,-29.8356 m 46.5501,28.6845 0,-21.4132 c 0,-1.3678 -0.7442,-6.2514 0.3688,-7.1309 0.6407,-0.5089 2.0901,-0.2372 2.8575,-0.2372 l 7.1439,0 c 8.3698,0 19.6408,-0.7413 22.1136,9.6705 0.3411,1.439 0.6799,3.1244 0.6406,4.6051 -0.046,1.7106 -0.3318,3.6585 -0.8296,5.2956 -3.058,10.0619 -13.8659,9.4403 -22.3856,9.4403 l -6.9133,0 c -0.719,0 -2.0234,-0.2419 -2.6271,0.2371 -1.0024,0.7945 -0.3688,4.7731 -0.3688,5.9796 l 0,17.499 m 113.8405,0.2303 0,-37.5308 0,-10.5914 c 0,-1.1858 -0.3918,-3.2236 0.1384,-4.3011 0.3595,-0.7277 1.5025,-0.5342 2.1662,-0.5342 l 6.6829,0 c 7.8513,0 20.2217,-2.0238 24.5978,6.447 3.0419,5.8875 1.4748,15.0122 -4.549,18.3487 -1.9081,1.0567 -3.8508,1.508 -5.9916,1.8142 -0.7696,0.1107 -2.074,-0.078 -2.422,0.8244 -0.8503,2.2127 1.5602,5.6157 2.6064,7.3334 3.74,6.1546 7.2013,12.9309 11.5684,18.6502 m 17.2834,-9.6705 c 1.0577,3.9488 3.5582,6.4609 7.37428,7.9528 2.164,0.8452 4.4062,1.08 6.6829,1.2964 9.4091,0.8956 24.5219,-0.1634 23.9573,-12.9331 -0.2535,-5.7332 -4.8026,-8.5309 -9.6695,-10.3498 -2.2031,-0.8243 -4.4155,-1.5864 -6.6829,-2.2173 -7.7293,-2.1459 -20.99368,-2.6846 -22.15058,-12.7605 -0.1636,-1.4344 0.032,-2.9587 0.2973,-4.3746 0.6913,-3.6864 3.7355,-7.0089 7.10458,-8.5101 2.0164,-0.898 4.0743,-1.2181 6.2221,-1.5633 8.621,-1.3954 23.0516,-0.7621 24.8882,10.0734 m 13.1354,-10.3613 36.641,0 m 71.4384,0 c 1.7376,3.9166 2.8691,8.1669 4.307,12.2033 3.3092,9.2859 6.5193,18.6478 10.0244,27.8602 1.1937,3.1337 2.3598,6.2834 3.4844,9.4403 0.4309,1.2088 0.659,2.9771 2.0071,3.5136 1.2744,0.5065 3.1549,0.1449 3.9499,-1.004 1.9127,-2.7698 2.4128,-7.1884 3.6065,-10.3382 3.2424,-8.5537 5.8488,-17.3609 8.8007,-26.0181 1.7629,-5.1668 4.0674,-10.3336 5.3003,-15.6571 m 88.0305,0 c 6.01,7.8123 9.2663,17.5266 16.3617,24.4064 m 79.0431,-24.4064 15.2094,0 14.2878,0 c 1.1775,0 4.118,-0.5295 4.9107,0.5342 0.5623,0.753 -0.076,2.1299 -0.3018,2.9196 -0.7951,2.7767 -2.5166,4.8399 -4.2333,7.1377 -6.8328,9.1432 -13.5019,18.4107 -20.2286,27.6299 -2.2976,3.1498 -6.1345,6.8591 -7.3029,10.5916 -0.288,0.9141 -1.219,2.9334 -0.7005,3.8406 0.4079,0.7184 1.5901,0.5341 2.2768,0.5341 l 6.222,0 26.2709,0 m -1015.57698,-52.9575 0,52.497 m 61.52917,-52.497 0,39.8333 0,9.4403 0.36871,3.2165 4.47066,0.2372 m 41.71072,-52.7273 0,31.5443 c 0,5.0539 0.6637,11.5101 -1.79743,16.1174 -0.9794,1.8374 -2.56483,3.3225 -4.42461,4.2552 -1.92426,0.9646 -4.56733,1.0406 -6.68291,1.0406 -5.54448,0 -13.55023,-0.3339 -14.51809,-7.368 m 105.54438,-45.5895 0,39.6031 0,9.6705 0.3687,3.4467 2.1662,0.2372 5.7612,0 21.8924,0 m 448.21808,-52.9575 0,52.9575 m 32.4929,-52.9575 0,26.0183 c 0,6.4816 -0.1728,13.0966 3.1987,18.8804 4.2586,7.3058 12.8289,8.6045 20.5373,7.8677 3.0719,-0.2924 6.0584,-0.7068 8.757,-2.3578 2.9198,-1.7844 4.7126,-4.3056 6.1621,-7.3517 2.3783,-4.9965 1.9035,-10.9716 1.9035,-16.3478 l 0,-26.7091 m 70.747,0 c 0.4817,6.0601 2.4083,12.2747 3.7679,18.1899 1.8435,8.0334 3.3437,16.1404 5.192,24.1762 0.652,2.8319 0.6106,7.1631 2.0993,9.6566 0.8066,1.3539 4.1987,1.3976 5.1666,0.1911 0.6775,-0.845 0.7121,-2.3692 0.9195,-3.4008 l 1.6131,-8.0588 c 1.9058,-9.5207 3.8439,-19.0346 5.7611,-28.5509 0.6038,-2.9956 1.2445,-5.9841 1.8436,-8.9797 0.3341,-1.6762 0.4056,-3.1845 2.4428,-3.2236 0.9425,-0.017 2.1892,-0.1887 2.9243,0.5341 0.8434,0.8313 0.8504,2.5121 1.09,3.6104 0.6406,2.9081 1.2514,5.83 1.839,8.7496 1.9934,9.8984 3.9637,19.8015 5.9455,29.7022 0.4747,2.3762 0.9771,4.75 1.3942,7.1377 0.159,0.9118 0.2351,2.2357 1.1268,2.7561 1.0232,0.5964 4.3556,0.5732 5.04,-0.4882 0.8641,-1.3377 0.8687,-3.7162 1.1983,-5.2611 0.8342,-3.9234 1.7537,-7.8262 2.6201,-11.7428 1.0647,-4.8215 1.9219,-9.6889 3.012,-14.5057 1.4864,-6.5759 3.694,-13.5386 4.2287,-20.2619 m -829.8373,0 0,52.2666 m 194.72722,0.4605 0,-20.0317 0,-13.815 0,-13.5848 c 0,-1.2134 -0.5093,-3.8682 0.7259,-4.598 4.1503,-2.4568 6.1875,4.9296 7.0977,7.361 3.9476,10.5433 7.9804,21.0794 12.133,31.5443 1.2721,3.205 2.4589,6.4469 3.6825,9.6705 0.4794,1.264 1.2675,2.8365 2.8622,2.8781 1.6385,0.044 2.5857,-1.5772 3.0696,-2.8781 1.1983,-3.2189 2.3873,-6.4379 3.5419,-9.6705 3.777,-10.5662 7.8559,-21.0218 11.7505,-31.5443 1.03,-2.7813 2.6017,-9.8799 7.2038,-7.361 1.431,0.7829 0.9355,3.2441 0.9355,4.598 l 0,13.1242 0,14.0454 0,20.2619 m -137.807,-35.4584 c 2.8899,3.0416 4.6874,7.4531 6.8213,11.052 4.9362,8.3235 9.5566,16.8473 14.6104,25.0972 m 779.59978,-31.0837 0,30.3929 m -1110.29037,-28.7813 30.64937,0 m 22.81417,0.6908 26.27089,0 m 82.0389,0.6907 37.33231,0 m 505.59935,1.1514 12.9049,0 6.9134,0.2301 m 337.14298,2.0723 3.0511,2.123 4.019,6.3964 9.7524,15.6568 M 41.296129,421.24293 c 1.52464,1.331 2.01341,4.1261 2.72111,5.9866 1.91294,5.0263 3.90722,10.0849 5.57496,15.1965 m 329.768711,-6.6773 1.84358,6.4469 m 76.73863,-0.4604 4.60891,0 m 442.68739,0.2302 1.3827,0 m -545.23603,37.0703 0,6.9075 m 20.97062,-6.9075 0,6.9075 m -133.19798,14.7359 -9.4483,0.2302 c -0.21892,-3.8014 -0.0184,-7.6994 0,-11.5124 0.007,-1.6348 0.12213,-3.8084 1.42646,-4.9757 1.94727,-1.7407 5.61829,-1.241 8.02184,-1.241 m -194.035821,0.6908 0,15.8872 c 0,1.0153 -0.55307,4.6556 0.36941,5.268 0.68234,0.4513 2.16689,-0.3614 2.85684,-0.5664 2.72871,-0.8105 4.71816,-2.8458 7.60473,-3.433 5.03617,-1.0201 12.25122,-0.7667 15.52356,3.7968 2.73401,3.8129 2.96216,9.5278 3.08291,14.0452 0.20509,7.6857 -2.02286,17.8651 -10.3104,20.6027 -3.40047,1.1237 -7.73055,1.0661 -11.06142,-0.313 -1.81177,-0.7484 -5.44177,-3.4332 -7.53146,-2.6296 -0.93883,0.3592 -0.53417,2.7217 -0.53417,3.5229 m 118.679861,-56.1808 0,38.9121 0,9.6705 c 0,1.0338 0.36872,2.9656 -0.3687,3.7968 -1.15915,1.3055 -3.87842,1.1674 -5.39246,1.9364 -1.82282,0.9256 -3.48665,1.5542 -5.5307,1.7983 -1.48869,0.1796 -3.13638,0.1588 -4.60894,-0.1175 -11.12133,-2.0906 -12.72063,-15.6294 -11.79192,-24.9129 0.50927,-5.0794 2.5349,-11.9983 8.10479,-13.7138 3.36682,-1.0361 7.7499,-0.8335 11.06142,0.3454 2.8414,1.0108 5.22652,2.5949 8.29607,3.0071 m 137.80691,-20.7224 0,55.9506 m 92.63942,-55.9506 0,27.8601 0,6.6773 c 0,0.6861 -0.18204,1.8927 0.53465,2.3071 2.22149,1.2801 5.85564,-2.8368 6.97329,-4.1491 0.80888,-0.9487 1.5947,-2.1207 2.63402,-2.8322 0.95404,-0.6516 2.30676,-0.6538 3.06263,-1.5933 0.8273,-1.0314 0.76508,-2.5258 1.47255,-3.6334 1.9104,-2.9885 4.74488,-5.5374 6.98482,-8.2889 m 23.04464,-16.3476 0,41.2145 0.0391,10.3613 1.20292,3.7831 4.28861,1.0521 m 358.57463,-50.6549 0,34.7677 c 0,3.9512 -1.097,10.8563 1.3134,14.2663 1.445,2.0424 5.2313,1.6209 7.4435,1.6209 m -536.24866,-37.5306 c -1.55091,-0.2097 -2.69161,-1.0316 -4.14805,-1.4668 -3.32072,-0.9923 -7.6946,-0.8911 -10.60052,1.1882 -4.95228,3.5435 -4.88315,10.9967 -1.4426,15.4751 0.53695,0.6976 0.72591,1.8143 1.49329,2.3002 1.82054,1.1489 6.40411,0.9048 8.47582,0.656 6.08149,-0.7252 8.83301,-6.2512 7.76374,-11.936 -0.31341,-1.6671 -2.07863,-4.5567 -1.29511,-6.2121 1.01858,-2.1552 6.18288,-2.6019 8.27994,-2.7676 m -287.3665909,8.289 c 1.91801,-7.3889 8.9463899,-8.2775 15.6703499,-7.6374 2.61719,0.2485 5.21731,0.1703 7.37405,1.9571 3.72886,3.0876 3.45694,8.6573 3.45694,13.0483 -7.06664,0 -16.14047,-0.2648 -22.35331,3.5596 -5.6231099,3.463 -7.2145699,13.4259 -2.2350899,18.238 5.8872099,5.6895 14.3591099,1.0431 19.7490299,-2.3967 1.21721,-0.776 4.24251,-0.8266 4.89882,-2.1966 0.6139,-1.2804 0.17099,-3.6011 0.17099,-5.0012 l 0,-11.9729 m 95.865671,13.5848 c -0.99092,2.5673 -1.85047,5.1529 -3.9268,7.0986 -5.14817,4.826 -14.65777,4.8489 -19.51282,-0.4306 -5.850801,-6.3618 -6.905551,-17.2503 -4.50867,-25.3182 2.66118,-8.9592 14.66468,-13.5756 22.64803,-8.266 2.90363,1.9317 4.59971,5.2381 5.53072,8.4962 m 62.68139,8.9797 c 0,-5.7056 0.3618,-12.2884 5.06983,-16.274 5.60675,-4.7409 15.20946,-3.8545 19.94282,1.7705 2.0141,2.3969 2.76996,5.6941 3.06264,8.7473 0.12212,1.2755 0.75816,4.4346 -0.0991,5.4522 -0.91257,1.0822 -3.88072,0.5342 -5.162,0.5342 l -15.20947,0 -5.5307,0 c -0.72131,0 -1.74448,-0.1427 -2.00028,0.7254 -0.44707,1.5012 0.0807,3.9532 0.29036,5.4913 1.77443,13.0253 18.61085,18.9911 26.82856,7.8287 m 14.51812,-33.6166 5.76116,0 m 72.36015,5.7562 c 1.33429,-0.5918 2.86907,-0.8151 4.14804,-1.5104 2.20538,-1.1974 3.9314,-2.8506 6.45249,-3.4768 4.47527,-1.112 13.08936,-2.093 16.54375,1.7729 2.581,2.892 2.1224,7.6881 2.1224,11.2731 l 0,25.5577 m 129.28041,-0.4605 0,-22.7948 c 0,-2.6132 -0.90335,-7.2298 0.13827,-9.6221 0.64985,-1.4897 3.44517,-1.6578 4.68036,-2.5096 1.45642,-1.004 2.47038,-2.351 4.16877,-3.044 6.69908,-2.7285 12.90039,-0.085 16.23495,5.9658 1.2191,2.2103 0.35722,6.7118 0.35722,9.2099 l 0,22.7948 m 0,-32.0047 c 1.03701,-0.8473 2.38513,-1.1191 3.3898,-1.9571 1.42192,-1.1858 2.28845,-2.6985 3.98442,-3.615 5.18049,-2.7975 14.73947,-2.0723 16.90337,4.1906 1.2743,3.6793 0.841,8.1439 0.841,11.9729 l 0,21.1831 m 20.5098,0.2302 0,-23.4855 0,-6.2168 c 0,-0.7875 -0.2121,-1.9777 0.2374,-2.6731 0.8618,-1.3331 3.3275,-1.3194 4.5928,-2.1252 1.5509,-0.9879 2.6731,-2.3601 4.3876,-3.1774 4.6021,-2.192 14.4421,-2.4845 17.5831,2.2196 2.0118,3.0117 1.544,7.833 1.544,11.2821 l 0,24.4066 m 31.1103,-39.0435 c 1.8297,-0.2624 3.9337,-0.228 5.7612,0.034 2.5533,0.3661 5.291,0.8795 7.3719,2.5212 5.5907,4.414 5.5308,14.0153 5.0928,20.3701 -0.4724,6.8431 -3.1248,15.2357 -11.0821,16.2811 -6.1874,0.8127 -12.7207,0.3384 -16.977,-4.7685 -2.475,-2.968 -3.1226,-6.8776 -3.5696,-10.5914 -0.9471,-7.9253 0.059,-18.4592 8.1025,-22.4771 1.6201,-0.8105 3.5235,-1.1167 5.3003,-1.37 m 37.5628,30.294 0,-18.6502 c 0,-1.621 -0.7099,-5.4454 0.2372,-6.79 0.8596,-1.2251 3.5696,-1.1054 4.8326,-1.8352 4.3415,-2.5097 10.0244,-4.4324 14.9789,-2.2173 5.9848,2.6732 7.9689,10.7964 7.5841,16.829 -0.4702,7.3703 -2.4819,16.4006 -11.5017,16.7989 -1.8527,0.083 -3.7078,-0.015 -5.5306,-0.3638 -2.724,-0.5227 -4.9408,-2.1573 -7.6048,-2.8274 -0.6591,-0.1658 -1.9795,-0.8404 -2.6271,-0.4375 -0.8734,0.5434 -0.3686,3.8613 -0.3686,4.7893 l 0,14.2754 m 71.4383,-44.6684 0,17.7291 c 0,1.575 0.6821,5.2521 -0.2374,6.5598 -0.8894,1.2642 -3.9474,1.2757 -5.2934,2.0148 -4.7518,2.6111 -13.0548,5.1507 -17.6752,0.7575 -3.1363,-2.9817 -3.936,-8.4363 -3.9866,-12.5554 -0.071,-6.1063 0.136,-16.5413 7.1437,-19.1177 3.8324,-1.4115 8.9897,-0.7645 12.4441,1.3446 1.726,1.0546 3.141,1.8121 5.0699,2.4246 0.5669,0.1818 1.5924,0.7345 2.1662,0.3546 0.8158,-0.5412 0.3687,-3.2397 0.3687,-4.1169 m 51.3895,31.0837 c 0.8066,2.7768 2.641,4.7915 5.3002,5.9773 7.4298,3.3086 24.319,3.2949 25.3468,-7.3588 0.5301,-5.4823 -3.6618,-7.8814 -8.2937,-9.2099 -7.667,-2.1991 -19.1846,-0.4468 -20.443,-10.8218 -1.2097,-9.9676 10.5546,-11.1947 17.6777,-10.0021 3.5004,0.5871 6.9157,2.0837 8.296,5.6274 m 15.44,-5.9866 18.4356,0 m 191.73138,0 c -2.3966,5.1231 -5.9364,10.9323 -9.3999,15.4176 -0.6107,0.7919 -1.6408,1.0891 -2.2146,1.8811 -1.1016,1.5289 0.265,3.8705 -0.6061,5.4846 -0.6061,1.1235 -2.1431,1.4574 -2.90588,2.5488 -3.2447,4.6326 -6.547,9.5599 -9.3009,14.5012 m 39.40648,-39.8333 c 3.316,7.4763 5.6527,15.7375 8.2959,23.4855 1.0393,3.0462 1.7399,7.5291 5.0699,8.7496 -1.0486,5.6572 -0.9102,14.9868 -7.3743,17.6485 -1.6592,0.6816 -3.5466,0.5411 -5.3002,0.5411 m 41.2498,-50.4247 20.0489,0 c 1.4287,0 5.8879,-0.7298 6.6668,0.7252 0.4378,0.8198 -0.2004,2.1461 -0.4447,2.9587 -0.8735,2.9013 -3.6319,5.4708 -5.4825,7.8287 -5.2126,6.6426 -10.4161,13.3038 -15.5181,20.0317 -1.3251,1.7498 -2.353,3.1544 -2.9313,5.2956 -0.1636,0.6033 -0.59,1.6164 -0.106,2.1644 0.6752,0.7621 2.839,0.3684 3.7585,0.3684 l 10.831,0 11.5224,0 m -860.48673,-39.1425 0,38.9123 m 751.25515,-38.9123 c 3.2608,6.1224 6.9617,12.8134 11.98318,17.4991 m -119.37118,-17.2687 c 3.6296,9.4677 5.7127,19.6103 8.9113,29.2416 0.8412,2.5374 1.4058,8.7288 4.9155,8.7288 3.7563,0 4.3945,-6.2052 5.2035,-8.9589 2.8114,-9.597 5.2772,-19.6796 8.8537,-29.0115 m 14.2877,0 c 2.1086,10.2068 4.678,20.5796 7.471,30.6231 0.537,1.9272 0.7029,5.0379 1.8827,6.6542 0.9449,1.294 3.0235,1.5842 4.1734,0.4053 1.5372,-1.5772 1.6639,-5.6526 2.1732,-7.7502 1.6177,-6.6588 3.1894,-13.3429 4.6758,-20.0317 0.47,-2.1068 0.9309,-8.6113 4.0511,-8.4709 3.4084,0.1543 3.6411,6.0878 4.2333,8.4709 1.657,6.6519 3.0121,13.3798 4.6689,20.0317 0.5323,2.139 0.636,5.8299 2.0463,7.5545 1.0163,1.241 3.5674,1.4345 4.5238,0.019 1.1015,-1.6256 1.1499,-4.5266 1.6108,-6.4215 1.6522,-6.8039 3.1663,-13.6562 4.6757,-20.4923 0.7628,-3.4515 1.9197,-7.0687 2.2077,-10.5914 m 83.42158,0 c -2.1248,7.7824 -5.9363,15.1826 -8.605,22.7947 -1.1867,3.3823 -1.8827,7.2574 -5.4523,8.7494 m -682.12116,-31.3139 0,38.2214 m 20.97061,-38.2214 0,36.8399 c 0,5.2911 -0.87339,10.7988 -6.91338,11.9731 m 94.94389,-48.813 0,5.0654 m 71.20796,-5.0654 0,5.2958 m 97.018,-5.2958 0,3.6839 m 91.7175,-3.6839 0,38.2214 m 107.8489,-38.2214 0,21.4132 c 0,3.9879 -0.1797,8.8393 1.8206,12.4335 2.975,5.3464 10.96,5.4639 15.9238,3.1498 1.816,-0.8474 3.1779,-2.2035 4.8393,-3.2603 1.2998,-0.8244 4.3302,-0.8542 5.1044,-2.2611 1.2513,-2.2794 0.4265,-6.6059 0.4265,-9.141 l 0,-22.3341 m -135.7329,7.1376 c 6.139,-1.2686 11.1028,-6.3133 17.5138,-6.4469 m -692.721721,3.2236 c -1.2663,10.0111 -0.23045,20.7569 -0.23045,30.8533 m 362.031211,-23.7156 c 2.65704,2.7192 3.95446,6.7508 5.59062,10.131 2.90132,5.991 6.36723,11.8163 8.92749,17.9595 m -161.31243,-20.2621 c -1.70992,2.2403 -4.18952,8.9868 -0.87339,11.0498 1.47715,0.9163 4.04203,0.5595 5.71276,0.7598 6.85117,0.8174 21.15036,3.0714 16.73271,13.2877 -1.05775,2.4452 -3.90147,3.8291 -6.36264,4.4207 -5.26799,1.2642 -11.85414,1.6004 -17.05302,-0.122 -2.28372,-0.7574 -5.02603,-1.5012 -6.18979,-3.8383 -1.73527,-3.486 -0.44706,-7.5406 2.27451,-10.1103 1.54398,-1.4528 3.47743,-2.125 4.37618,-4.165 m 135.50244,-10.1311 -0.4609,6.9075 0,11.5125 m 599.1605,-15.8872 c 2.6778,1.1144 3.7217,3.3685 5.162,5.7562 2.1916,3.6287 4.3255,7.3932 6.8212,10.8218 m -305.11088,-9.6705 0,19.5712 m -677.051411,-17.0386 0.92178,6.6773 m 831.911331,-6.6773 c 0.9217,1.7246 0.461,4.2943 0.461,6.2168 m -692.49141,-2.763 0,2.9933"
     id="path4"
     inkscape:connector-curvature="0" />
</svg>
