<?xml version="1.0" encoding="UTF-8" standalone="no"?>
<!-- Created with Inkscape (http://www.inkscape.org/) -->

<svg
   xmlns:dc="http://purl.org/dc/elements/1.1/"
   xmlns:cc="http://creativecommons.org/ns#"
   xmlns:rdf="http://www.w3.org/1999/02/22-rdf-syntax-ns#"
   xmlns:svg="http://www.w3.org/2000/svg"
   xmlns="http://www.w3.org/2000/svg"
   xmlns:sodipodi="http://sodipodi.sourceforge.net/DTD/sodipodi-0.dtd"
   xmlns:inkscape="http://www.inkscape.org/namespaces/inkscape"
   width="1000"
   height="1000"
   id="svg2"
   version="1.1"
   inkscape:version="0.48.4 r9939"
   sodipodi:docname="signes-vector.svg">
  <defs
     id="defs4" />
  <sodipodi:namedview
     id="base"
     pagecolor="#ffffff"
     bordercolor="#666666"
     borderopacity="1.0"
     inkscape:pageopacity="0.0"
     inkscape:pageshadow="2"
     inkscape:zoom="3.4302867"
     inkscape:cx="270.18213"
     inkscape:cy="1654.6748"
     inkscape:document-units="px"
     inkscape:current-layer="layer1"
     showgrid="false"
     inkscape:window-width="1920"
     inkscape:window-height="1025"
     inkscape:window-x="0"
     inkscape:window-y="27"
     inkscape:window-maximized="1"
     borderlayer="true"
     inkscape:showpageshadow="false"
     showguides="true"
     inkscape:guide-bbox="true">
    <sodipodi:guide
       orientation="0,1"
       position="218.3491,1701.3155"
       id="guide3337" />
  </sodipodi:namedview>
  <metadata
     id="metadata7">
    <rdf:RDF>
      <cc:Work
         rdf:about="">
        <dc:format>image/svg+xml</dc:format>
        <dc:type
           rdf:resource="http://purl.org/dc/dcmitype/StillImage" />
        <dc:title />
      </cc:Work>
    </rdf:RDF>
  </metadata>
  <g
     inkscape:label="Calque 1"
     inkscape:groupmode="layer"
     id="layer1"
     transform="translate(0,-52.362183)">
    <text
       xml:space="preserve"
       style="font-size:40px;font-style:normal;font-weight:normal;line-height:125%;letter-spacing:0px;word-spacing:0px;fill:#ff8080;fill-opacity:1;stroke:none;font-family:Sans"
       x="84.381401"
       y="-638.85767"
       id="text3000"
       sodipodi:linespacing="125%"><tspan
         sodipodi:role="line"
         id="tspan3002"
         x="84.381401"
         y="-638.85767">abcde𝄐 𝅁 𝆄 𝆝𝆲 𝆱 e𝄼 𝄽 𝄋 𝄌 𝄾</tspan></text>
    <path
       inkscape:connector-curvature="0"
       id="path3016"
       style="font-size:40px;font-style:normal;font-weight:normal;line-height:125%;letter-spacing:0px;word-spacing:0px;fill:#000000;fill-opacity:1;stroke:none;font-family:Sans"
       d="m -1850.4406,488.76516 c 5.769,-62.93554 27.272,-115.38205 64.5091,-157.33934 37.2367,-42.48123 83.914,-63.72204 140.032,-63.72244 56.1174,4e-4 102.7947,21.24121 140.032,63.72244 37.7611,42.48182 59.264,94.92833 64.5091,157.33934 l -27.5343,0 c -1.5734,-41.43256 -19.9302,-77.09608 -55.0688,-106.99075 -35.1396,-29.89428 -75.7854,-44.84152 -121.938,-44.84172 -44.5797,2e-4 -84.7013,14.94744 -120.3646,44.84172 -35.6637,29.37014 -54.2823,65.03366 -55.8555,106.99075 l -28.321,0 m 204.5411,-64.50913 c 9.9645,2e-4 18.6182,3.14698 25.961,9.44036 7.8666,6.29377 11.8001,13.89837 11.8004,22.8142 -3e-4,9.44056 -3.6715,17.30753 -11.0137,23.60091 -6.8183,5.76924 -15.7343,8.65386 -26.7477,8.65366 -11.5385,2e-4 -20.4543,-3.40895 -26.7477,-10.22706 -6.2938,-6.81791 -9.4405,-14.16034 -9.4403,-22.02751 -2e-4,-8.91583 3.6709,-16.52043 11.0137,-22.8142 7.3423,-6.29338 15.7337,-9.44016 25.1743,-9.44036" />
    <path
       inkscape:connector-curvature="0"
       id="path3018"
       style="font-size:40px;font-style:normal;font-weight:normal;line-height:125%;letter-spacing:0px;word-spacing:0px;fill:#000000;fill-opacity:1;stroke:none;font-family:Sans"
       d="m -953.72405,204.27565 c 15.7337,3.9e-4 35.9255,-17.83127 60.5756,-53.49538 l 16.5207,0 -199.03425,716.6807 -29.1078,0 56.6422,-204.54114 c -24.65,12.58715 -44.5796,18.88072 -59.789,18.88072 -15.2096,0 -29.3699,-5.24471 -42.4816,-15.73393 -12.5871,-11.01376 -18.8807,-24.3876 -18.8807,-40.12153 0,-11.53809 4.1956,-22.02751 12.5871,-31.46787 8.3915,-9.9647 19.9296,-14.94724 34.6147,-14.94724 14.1605,0 25.4364,4.98254 33.8279,14.94724 8.3913,9.44036 12.5872,19.92978 12.5872,31.46787 0,7.86696 -1.835,15.2094 -5.5069,22.0275 2.0977,1.04828 3.409,1.5734 3.9335,1.5734 9.9647,0 23.8631,-9.70253 41.6949,-29.10778 l 29.1078,-105.41736 c -23.6011,12.06281 -43.7928,18.09422 -60.5756,18.09402 -14.6851,2e-4 -28.5835,-5.24451 -41.695,-15.73393 -13.1116,-10.48922 -19.6674,-23.6007 -19.6674,-39.33483 0,-13.63582 4.4578,-24.64957 13.3739,-33.04127 9.4403,-8.91563 20.4541,-13.37364 33.0412,-13.37384 13.1115,2e-4 24.1253,4.45821 33.0413,13.37384 9.4401,8.91603 14.1603,19.92978 14.1605,33.04127 -2e-4,7.86716 -1.5734,14.94743 -4.7202,21.24081 2.0978,1.04827 3.409,1.57339 3.9335,1.57339 9.9647,2e-4 23.3386,-9.178 40.12155,-27.53439 l 29.1077,-106.20405 c -25.1745,12.06301 -44.84185,18.09422 -59.00215,18.09402 -14.6851,2e-4 -28.5835,-5.24431 -41.6949,-15.73393 -13.1117,-11.01336 -19.6675,-24.3872 -19.6675,-40.12154 0,-12.58675 4.1957,-23.33834 12.5872,-32.25456 8.9158,-9.43997 20.1917,-14.16015 33.8279,-14.16054 13.1115,3.9e-4 24.1253,4.45841 33.0413,13.37384 8.91575,8.3917 13.37365,19.40545 13.37375,33.04126 -10e-5,7.86737 -1.5733,14.94764 -4.7201,21.24082 1.5734,1.57339 2.6222,2.36048 3.1468,2.36009 10.489,3.9e-4 24.3874,-9.43997 41.6949,-28.32109 l 29.1078,-106.20405 c -25.1745,12.06321 -45.1041,18.09442 -59.789,18.09402 -14.6851,4e-4 -28.58335,-5.24412 -41.69485,-15.73393 -12.5874,-10.48883 -18.8809,-23.60051 -18.8807,-39.33484 -2e-4,-13.63561 4.4578,-24.91153 13.3738,-33.82795 8.9158,-8.91544 19.9296,-13.37326 33.04125,-13.37385 13.1114,5.9e-4 24.1252,4.72077 33.0412,14.16054 8.9157,9.44095 13.3737,20.45451 13.3739,33.04126 -2e-4,6.8185 -1.5734,13.89877 -4.7202,21.24081 1.0483,1.05025 2.0977,1.5734 3.1468,1.5734" />
    <path
       inkscape:connector-curvature="0"
       id="path3020"
       style="font-size:40px;font-style:normal;font-weight:normal;line-height:125%;letter-spacing:0px;word-spacing:0px;fill:#000000;fill-opacity:1;stroke:none;font-family:Sans"
       d="m -636.18125,592.90382 c -2e-4,9.96489 -9.1784,22.55204 -27.5344,37.76145 -18.3563,15.2094 -27.5345,26.22315 -27.5343,33.04126 -2e-4,8.39149 7.6046,19.40525 22.8142,33.04126 12.5869,-1.57339 23.8628,-5.24471 33.8279,-11.01375 l -47.9885,148.68567 -49.5619,-148.68567 c 14.1604,6.8179 27.7966,10.75139 40.9083,11.80045 -25.1745,-9.96489 -37.7615,-27.27222 -37.7615,-51.92199 0,-11.01375 8.1291,-23.6009 24.3876,-37.76144 16.2583,-14.16054 24.3874,-25.17429 24.3876,-33.04126 -2e-4,-6.29357 -8.1293,-17.83166 -24.3876,-34.61466 -16.2585,-16.78279 -24.3876,-31.9922 -24.3876,-45.6284 0,-9.9647 8.1291,-22.02732 24.3876,-36.18805 16.2583,-14.68488 24.3874,-25.9608 24.3876,-33.82796 -2e-4,-6.29338 -8.1293,-17.83147 -24.3876,-34.61466 -16.2585,-17.30713 -24.3876,-31.992 -24.3876,-44.05501 0,-9.9645 8.1291,-22.81382 24.3876,-38.54814 16.2583,-15.73354 24.3874,-26.48513 24.3876,-32.25457 -2e-4,-6.29318 -8.1293,-18.61816 -24.3876,-36.97474 -16.2585,-18.3558 -24.3876,-33.5652 -24.3876,-45.62841 0,-9.43997 8.1291,-21.50259 24.3876,-36.18805 16.2583,-14.68448 24.3874,-25.43606 24.3876,-32.25456 -2e-4,-8.39091 -6.8181,-20.97806 -20.4541,-37.761444 12.5869,2.09851 26.4853,8.12972 41.6949,18.094024 15.2092,9.96528 22.814,21.76573 22.8142,35.40135 -2e-4,10.48981 -4.7203,20.19234 -14.1605,29.10778 -8.916,8.39189 -18.0942,16.25885 -27.5344,23.6009 -8.916,7.34302 -13.374,14.4233 -13.3738,21.24081 -2e-4,6.29397 9.178,18.09442 27.5343,35.40135 18.356,17.30772 27.5342,31.2061 27.5344,41.69493 -2e-4,10.48961 -9.1784,23.60129 -27.5344,39.33483 -18.3563,15.73433 -27.5345,26.74809 -27.5343,33.04127 -2e-4,5.76943 9.178,17.04535 27.5343,33.82795 18.356,16.7832 27.5342,31.73024 27.5344,44.84172 -2e-4,11.53848 -9.1784,24.91232 -27.5344,40.12153 -18.3563,15.2096 -27.5345,26.48552 -27.5343,33.82796 -2e-4,4.72037 4.4578,11.01395 13.3738,18.88072 9.4402,7.86716 18.6184,17.04516 27.5344,27.53438 9.4402,9.96489 14.1603,20.19195 14.1605,30.68117" />
    <path
       inkscape:connector-curvature="0"
       id="path3022"
       style="font-size:40px;font-style:normal;font-weight:normal;line-height:125%;letter-spacing:0px;word-spacing:0px;fill:#000000;fill-opacity:1;stroke:none;font-family:Sans"
       d="m -221.05121,459.95208 -79.45636,91.25682 c -3.67152,4.19585 -8.3917,6.29377 -14.16054,6.29357 -3.67132,2e-4 -6.81811,-1.04827 -9.44036,-3.14678 l -59.78895,-55.06877 c -3.67132,-3.14659 -7.08027,-4.71999 -10.22706,-4.72018 -3.14679,1.9e-4 -6.29357,1.57339 -9.44036,4.72018 l -44.84171,51.92198 0,-47.2018 80.24306,-92.04352 c 3.14659,-4.19545 7.6046,-6.29338 13.37384,-6.29357 2.62226,1.9e-4 5.76905,1.31181 9.44036,3.93348 l 60.57565,55.06877 c 3.67112,3.14698 6.81791,4.72038 9.44036,4.72018 3.14659,2e-4 6.03121,-1.83497 8.65367,-5.50688 l 45.6284,-51.92198 0,47.9885" />
    <path
       inkscape:connector-curvature="0"
       id="path3024"
       style="font-size:40px;font-style:normal;font-weight:normal;line-height:125%;letter-spacing:0px;word-spacing:0px;fill:#000000;fill-opacity:1;stroke:none;font-family:Sans"
       d="m -193.91017,196.40868 c 35.13899,3.9e-4 52.70848,15.47216 52.70868,46.41511 -2e-4,7.34283 -0.7867,15.47216 -2.36009,24.38759 -1.04827,8.91623 -1.57339,14.16094 -1.57339,15.73394 -2e-4,19.92998 14.42251,29.89487 43.26831,29.89447 8.391114,4e-4 13.635824,-0.26157 15.733944,-0.78669 2.09753,-0.52316 5.24432,-0.7867 9.44036,-0.7867 34.08993,3.9e-4 51.13489,13.37424 51.13529,40.12154 -4e-4,3.14718 -1.83497,10.48961 -5.50688,22.0275 -3.14718,11.01395 -4.72058,19.40545 -4.72018,25.1743 -4e-4,15.73413 12.06242,23.6011 36.18805001,23.6009 0.52315,2e-4 5.24430999,-0.26158 14.16053999,-0.7867 8.91563,-1.04827 16.25807,-1.57339 22.0275,-1.57339 34.08974,2e-4 51.1349,14.94743 51.13529,44.84171 -3.9e-4,4.72038 -1.83694,12.06281 -5.50688,22.02751 -3.14718,9.96489 -4.72057,17.04516 -4.72018,21.24081 -3.9e-4,19.92978 10.7512,29.89467 32.254566,29.89447 8.39091,2e-4 17.04457,-0.52512 25.96099,-1.57339 9.43997,-1.04827 14.94684,-1.57339 16.52063,-1.57339 29.36955,1.9e-4 44.05443,14.94743 44.05502,44.84171 -5.9e-4,8.91603 -0.7867,17.04516 -2.36009,24.3876 -1.05024,6.8181 -1.5734,11.80045 -1.5734,14.94724 -5.9e-4,19.92958 14.94665,29.89447 44.84171,29.89447 -6.29416,15.2094 -19.14347,22.8142 -38.54813,22.8142 -35.13958,0 -52.70908,-14.68507 -52.70868,-44.05501 -4e-4,-2.09792 0.78669,-8.91583 2.36009,-20.45412 2.09733,-11.53808 3.14639,-18.35619 3.14678,-20.45411 -3.9e-4,-9.44036 -2.36048,-16.7828 -7.08027,-22.02751 -4.72057,-5.76904 -10.75198,-8.65346 -18.09402,-8.65366 -3.67171,2e-4 -11.01415,0.26158 -22.02751,0.7867 -11.014146,1.9e-4 -19.405636,1.9e-4 -25.174286,0 -30.94373,1.9e-4 -46.4155,-12.84932 -46.41511,-38.54814 -3.9e-4,-5.76905 1.31182,-13.37365 3.93348,-22.81421 3.1464,-9.44016 4.71979,-17.30713 4.72019,-23.6009 -4e-4,-17.83166 -11.01415,-26.74749 -33.04127,-26.74769 -4.19604,2e-4 -9.17838999,0.26158 -14.94723,0.7867 -5.24491,2e-4 -15.73433,2e-4 -31.46787,0 -28.84581,2e-4 -43.26852,-12.32478 -43.26832,-36.97474 -2e-4,-4.71999 1.57339,-12.58696 4.72018,-23.60091 3.14659,-11.53789 4.71998,-18.61816 4.72018,-21.24081 -2e-4,-14.16014 -7.08047,-23.86287 -21.24081,-29.10778 -3.14698,-0.52315 -15.996304,-0.78669 -38.548144,-0.78669 -39.85937,3.9e-4 -59.78915,-14.68468 -59.78895,-44.05502 -2e-4,-2.62186 0.7867,-9.43997 2.36009,-20.45412 1.57339,-11.01336 2.35989,-17.83146 2.36009,-20.45411 -2e-4,-19.40466 -16.78299,-29.10738 -50.34859,-29.10778 9.9647,-15.73354 24.3874,-23.60051 43.26832,-23.6009" />
    <path
       inkscape:connector-curvature="0"
       id="path3026"
       style="font-size:40px;font-style:normal;font-weight:normal;line-height:125%;letter-spacing:0px;word-spacing:0px;fill:#000000;fill-opacity:1;stroke:none;font-family:Sans"
       d="m 964.75876,242.82379 c -3.9e-4,35.13958 -15.47216,52.70907 -46.4151,52.70868 -7.34283,3.9e-4 -15.47216,-0.52316 -24.3876,-1.5734 -8.91622,-1.57339 -14.16093,-2.35969 -15.73393,-2.36009 -19.92998,4e-4 -29.89487,14.4231 -29.89448,43.26832 -3.9e-4,8.3917 0.26158,13.63641 0.7867,15.73394 0.52315,2.09812 0.7867,5.24491 0.7867,9.44036 -4e-4,34.09052 -13.37424,51.13548 -40.12154,51.13529 -3.14718,1.9e-4 -10.48961,-1.5734 -22.0275,-4.72019 -11.01395,-3.67092 -19.40545,-5.50668 -25.1743,-5.50687 -15.73413,1.9e-4 -23.6011,12.06301 -23.6009,36.18805 -2e-4,0.52512 0.26158,5.2449 0.7867,14.16054 1.04827,8.91602 1.57339,16.25866 1.57339,22.0275 -2e-4,34.09033 -14.94743,51.13549 -44.84171,51.13529 -4.72038,2e-4 -12.06282,-1.57339 -22.02751,-4.72018 -9.96509,-3.67112 -17.04536,-5.50668 -21.24081,-5.50688 -19.92978,2e-4 -29.89467,10.75159 -29.89448,32.25457 -1.9e-4,8.3915 0.52512,17.30733 1.5734,26.74769 1.04827,8.91602 1.57339,14.16054 1.57339,15.73393 -2e-4,29.37014 -14.94743,44.05502 -44.84171,44.05502 -8.91602,0 -17.04516,-0.52512 -24.38759,-1.5734 -6.81811,-1.57339 -11.80045,-2.36009 -14.94724,-2.36009 -19.92959,0 -29.89448,14.94724 -29.89448,44.84171 -15.2094,-6.29357 -22.8142,-19.14288 -22.8142,-38.54813 0,-35.13899 14.68507,-52.70868 44.05501,-52.70868 2.09773,0 8.91584,1.04827 20.45412,3.14678 11.53809,1.5734 18.35619,2.36009 20.45411,2.36009 9.44036,0 16.7828,-2.36009 22.02751,-7.08027 5.76904,-4.72018 8.65346,-10.75139 8.65366,-18.09402 -2e-4,-3.67112 -0.26158,-11.01356 -0.7867,-22.02751 -1.9e-4,-11.01356 -1.9e-4,-19.40505 0,-25.17429 -1.9e-4,-30.94314 12.84932,-46.41491 38.54814,-46.41511 5.76905,2e-4 13.37365,1.57339 22.81421,4.72018 9.44016,2.62245 17.30713,3.93368 23.6009,3.93349 17.83166,1.9e-4 26.74749,-11.01356 26.74769,-33.04127 -2e-4,-4.19545 -0.26158,-8.91563 -0.7867,-14.16054 -2e-4,-5.76884 -2e-4,-16.52043 0,-32.25456 -2e-4,-28.84522 12.32459,-43.26793 36.97474,-43.26832 4.71999,3.9e-4 12.58695,1.57339 23.60091,4.72018 11.53789,3.14698 18.61816,4.72038 21.24081,4.72018 14.16014,2e-4 23.86287,-7.07988 29.10777,-21.24081 0.52512,-3.14639 0.7867,-15.99591 0.7867,-38.54814 -3.9e-4,-39.85898 14.68468,-59.78856 44.05502,-59.78895 2.62186,3.9e-4 9.43996,0.78669 20.45411,2.36009 11.01336,1.57339 17.83147,2.36048 20.45412,2.36009 19.40466,3.9e-4 29.10738,-16.78241 29.10777,-50.34859 15.73354,9.96528 23.60051,24.38799 23.6009,43.26832" />
    <path
       inkscape:connector-curvature="0"
       id="path3028"
       style="font-size:40px;font-style:normal;font-weight:normal;line-height:125%;letter-spacing:0px;word-spacing:0px;fill:#000000;fill-opacity:1;stroke:none;font-family:Sans"
       d="m 1202.2061,358.46821 57.4288,0 0,-65.29583 167.5664,0 0,65.29583 56.6422,0 0,18.88072 -281.6374,0 0,-18.88072" />
    <path
       inkscape:connector-curvature="0"
       id="path3030"
       style="font-size:40px;font-style:normal;font-weight:normal;line-height:125%;letter-spacing:0px;word-spacing:0px;fill:#000000;fill-opacity:1;stroke:none;font-family:Sans"
       d="m 1733.8656,-126.88513 c -2e-4,-17.83166 5.769,-31.46767 17.3073,-40.90822 12.0626,-9.44017 25.9608,-14.16035 41.6949,-14.16054 10.4891,1.9e-4 23.0762,2.88481 37.7615,8.65366 l -88.8968,-116.43111 c 41.9569,-37.76105 62.9356,-71.58901 62.9358,-101.48388 -2e-4,-23.60051 -14.1608,-53.49498 -42.4816,-89.68343 l 35.4013,0 100.6972,122.72469 c -43.5309,51.39785 -65.296,89.68362 -65.2958,114.85772 -2e-4,24.12563 20.4539,60.57585 61.3623,109.35084 l -12.5871,18.09403 c -20.9789,-12.06262 -38.5484,-18.09383 -52.7087,-18.09403 -18.8809,2e-4 -28.3213,11.53829 -28.3211,34.61466 -2e-4,23.07657 10.2269,46.4151 30.6812,70.01601 l -11.0138,17.30732 c -57.6912,-43.00595 -86.5368,-81.29192 -86.5366,-114.85772" />
    <path
       inkscape:connector-curvature="0"
       id="path3032"
       style="font-size:40px;font-style:normal;font-weight:normal;line-height:125%;letter-spacing:0px;word-spacing:0px;fill:#000000;fill-opacity:1;stroke:none;font-family:Sans"
       d="m 2414.0754,399.37643 c -9.9651,2e-4 -18.3566,-2.88422 -25.1743,-8.65366 -6.2938,-5.76885 -9.4405,-12.58695 -9.4404,-20.45411 -1e-4,-23.60051 9.9645,-35.40096 29.8945,-35.40136 24.6496,4e-4 36.9746,11.27632 36.9748,33.82796 -2e-4,8.91623 -3.4094,16.25866 -10.2271,22.02751 -6.2938,5.76944 -13.6364,8.65386 -22.0275,8.65366 m -210.048,-147.89898 c -7.867,3.9e-4 -14.6851,4.19604 -20.4541,12.58715 -5.2447,7.86736 -7.867,16.25886 -7.867,25.17429 0,16.78319 8.6537,31.9926 25.961,45.62841 17.3073,13.11188 44.5793,27.79695 81.8164,44.05502 l 106.9908,-162.05952 41.6949,0 -116.4311,177.79345 c 71.3269,35.66372 106.9906,79.1944 106.9908,130.59166 -2e-4,27.27222 -9.1784,50.87312 -27.5344,70.8027 -17.8321,19.40525 -39.8596,29.10778 -66.0825,29.10778 -18.881,0 -35.6638,-5.76904 -50.3486,-17.30733 -14.1608,-12.06262 -21.241,-26.48532 -21.2408,-43.26832 -2e-4,-22.55184 14.6848,-33.82776 44.055,-33.82796 12.0626,2e-4 20.4539,7.08047 25.1743,21.24082 6.2933,23.6009 13.3736,35.40135 21.2408,35.40135 20.9784,0 31.4677,-12.32479 31.4678,-36.97475 -1e-4,-21.50298 -13.1118,-40.64586 -39.3348,-57.42886 l -66.8692,-33.82796 -104.6307,162.84622 -40.1215,0 113.2843,-177.79345 c -72.3761,-37.76125 -108.5641,-81.02957 -108.5641,-129.80496 0,-26.7473 8.3915,-50.08603 25.1743,-70.01601 17.3073,-20.45372 38.8103,-30.68078 64.5091,-30.68117 22.0275,3.9e-4 40.1213,5.76963 54.2821,17.30733 14.1603,11.01414 21.2406,25.43685 21.2408,43.26832 -2e-4,9.96528 -3.6713,18.35658 -11.0138,25.17429 -7.3426,6.29397 -16.2584,9.44075 -26.7477,9.44036 -9.4403,3.9e-4 -17.0451,-2.88423 -22.8142,-8.65366 -5.7692,-6.29318 -9.7027,-12.84892 -11.8004,-19.66742 -1.5734,-7.34204 -4.1959,-13.89798 -7.867,-19.66742 -3.6713,-6.29318 -8.3915,-9.43997 -14.1605,-9.44036 m -3.9335,222.63517 c 0,7.86717 -3.4092,14.94744 -10.2271,21.24081 -6.2935,5.76924 -13.636,8.65386 -22.0275,8.65367 -23.0763,1.9e-4 -34.6146,-10.22686 -34.6146,-30.68118 0,-23.07617 10.7516,-34.61445 32.2545,-34.61465 23.0764,2e-4 34.6147,11.80065 34.6147,35.40135" />
    <path
       inkscape:connector-curvature="0"
       id="path3034"
       style="font-size:40px;font-style:normal;font-weight:normal;line-height:125%;letter-spacing:0px;word-spacing:0px;fill:#000000;fill-opacity:1;stroke:none;font-family:Sans"
       d="m 2934.6228,305.75952 -33.828,0 c -8.916,59.78915 -38.2861,95.1905 -88.11,106.20406 l 0,35.40135 -27.5344,0 0,-35.40135 c -49.8243,-11.01356 -79.1942,-46.41491 -88.11,-106.20406 l -33.828,0 0,-27.53438 33.828,0 c 10.4892,-62.93534 39.8591,-98.59886 88.11,-106.99075 l 0,-34.61466 27.5344,0 0,34.61466 c 48.2505,8.39189 77.6206,44.05541 88.11,106.99075 l 33.828,0 0,27.53438 m -88.8967,-27.53438 c -1.0483,-16.78241 -2.098,-29.36955 -3.1468,-37.76144 -1.0483,-8.39111 -4.1959,-17.5691 -9.4404,-27.53439 -4.7204,-10.48883 -11.5383,-16.25787 -20.4541,-17.30733 l 0,82.60316 33.0413,0 m -60.5757,0 0,-82.60316 c -18.8807,2.62285 -29.8945,30.15724 -33.0413,82.60316 l 33.0413,0 m 60.5757,27.53438 -33.0413,0 0,81.02977 c 20.4539,-6.81771 31.4677,-33.82757 33.0413,-81.02977 m -60.5757,81.02977 0,-81.02977 -33.0413,0 c 1.5734,46.67767 12.5872,73.68753 33.0413,81.02977" />
    <path
       inkscape:connector-curvature="0"
       id="path3036"
       style="font-size:40px;font-style:normal;font-weight:normal;line-height:125%;letter-spacing:0px;word-spacing:0px;fill:#000000;fill-opacity:1;stroke:none;font-family:Sans"
       d="m 3238.841,348.24115 c 8.3913,3.9e-4 18.6183,-6.03101 30.6811,-18.09403 12.0624,-12.58675 22.0273,-24.3872 29.8945,-35.40135 l 16.5206,0 -75.5229,271.41037 -29.1077,0 56.6421,-204.54115 c -24.6499,12.58735 -44.5795,18.88092 -59.7889,18.88072 -15.2096,2e-4 -29.3702,-5.24431 -42.4816,-15.73393 -12.5872,-11.01336 -18.8808,-24.3872 -18.8808,-40.12154 0,-11.53789 4.1957,-22.02711 12.5872,-31.46786 8.3913,-9.9645 19.9296,-14.94685 34.6146,-14.94724 14.1604,3.9e-4 25.4365,4.98274 33.828,14.94724 8.3913,9.44075 12.5869,19.92997 12.5871,31.46786 -2e-4,7.86737 -1.8349,15.20981 -5.5068,22.02752 2.0977,1.04827 3.4087,1.57339 3.9335,1.57339" />
  </g>
</svg>
