<?xml version="1.0" encoding="UTF-8" standalone="no"?>
<!-- Created with Inkscape (http://www.inkscape.org/) -->

<svg
   xmlns:dc="http://purl.org/dc/elements/1.1/"
   xmlns:cc="http://creativecommons.org/ns#"
   xmlns:rdf="http://www.w3.org/1999/02/22-rdf-syntax-ns#"
   xmlns:svg="http://www.w3.org/2000/svg"
   xmlns="http://www.w3.org/2000/svg"
   xmlns:sodipodi="http://sodipodi.sourceforge.net/DTD/sodipodi-0.dtd"
   xmlns:inkscape="http://www.inkscape.org/namespaces/inkscape"
   width="210mm"
   height="297mm"
   id="svg2"
   version="1.1"
   inkscape:version="0.48.4 r9939"
   sodipodi:docname="Nouveau document 1">
  <defs
     id="defs4" />
  <sodipodi:namedview
     id="base"
     pagecolor="#ffffff"
     bordercolor="#666666"
     borderopacity="1.0"
     inkscape:pageopacity="0.0"
     inkscape:pageshadow="2"
     inkscape:zoom="0.98994949"
     inkscape:cx="357.30742"
     inkscape:cy="717.49706"
     inkscape:document-units="px"
     inkscape:current-layer="flowRoot2993"
     showgrid="false"
     inkscape:window-width="1375"
     inkscape:window-height="876"
     inkscape:window-x="65"
     inkscape:window-y="24"
     inkscape:window-maximized="1" />
  <metadata
     id="metadata7">
    <rdf:RDF>
      <cc:Work
         rdf:about="">
        <dc:format>image/svg+xml</dc:format>
        <dc:type
           rdf:resource="http://purl.org/dc/dcmitype/StillImage" />
        <dc:title></dc:title>
      </cc:Work>
    </rdf:RDF>
  </metadata>
  <g
     inkscape:label="Calque 1"
     inkscape:groupmode="layer"
     id="layer1">
    <g
       style="font-size:40px;font-style:normal;font-weight:normal;line-height:125%;letter-spacing:0px;word-spacing:0px;fill:#000000;fill-opacity:1;stroke:none;font-family:Sans"
       id="flowRoot2985">
      <path
         d="m 163.56375,119.84 c 0.29333,-3.19999 1.38666,-5.86665 3.28,-8 1.89333,-2.15998 4.26666,-3.23998 7.12,-3.24 2.85332,2e-5 5.22665,1.08002 7.12,3.24 1.91998,2.16001 3.01331,4.82668 3.28,8 l -1.4,0 c -0.08,-2.10666 -1.01335,-3.91999 -2.8,-5.44 -1.78668,-1.51999 -3.85335,-2.27999 -6.2,-2.28 -2.26668,10e-6 -4.30667,0.76001 -6.12,2.28 -1.81334,1.49334 -2.76,3.30668 -2.84,5.44 l -1.44,0 m 10.4,-3.28 c 0.50666,1e-5 0.94665,0.16001 1.32,0.48 0.39999,0.32001 0.59999,0.70668 0.6,1.16 -1e-5,0.48001 -0.18668,0.88001 -0.56,1.2 -0.34668,0.29334 -0.80001,0.44001 -1.36,0.44 -0.58668,1e-5 -1.04001,-0.17333 -1.36,-0.52 -0.32001,-0.34666 -0.48001,-0.71999 -0.48,-1.12 -1e-5,-0.45332 0.18666,-0.83999 0.56,-1.16 0.37332,-0.31999 0.79999,-0.47999 1.28,-0.48"
         style=""
         id="path3017" />
    </g>
    <g
       style="font-size:40px;font-style:normal;font-weight:normal;line-height:125%;letter-spacing:0px;word-spacing:0px;fill:#000000;fill-opacity:1;stroke:none;font-family:Sans"
       id="flowRoot2993">
      <path
         d="m 154.01125,227.175 2.92,0 0,-3.32 8.52,0 0,3.32 2.88,0 0,0.96 -14.32,0 0,-0.96"
         style=""
         id="path3002" />
      <path
         d="m 204.28375,226.655 c 0.42666,2e-5 0.94666,-0.30665 1.56,-0.92 0.61333,-0.63998 1.11999,-1.23998 1.52,-1.8 l 0.84,0 -3.84,13.8 -1.48,0 2.88,-10.4 c -1.25334,0.64002 -2.26667,0.96002 -3.04,0.96 -0.77334,2e-5 -1.49334,-0.26665 -2.16,-0.8 -0.64,-0.55998 -0.96,-1.23998 -0.96,-2.04 0,-0.58665 0.21333,-1.11998 0.64,-1.6 0.42666,-0.50665 1.01333,-0.75998 1.76,-0.76 0.72,2e-5 1.29333,0.25335 1.72,0.76 0.42666,0.48002 0.63999,1.01335 0.64,1.6 -1e-5,0.40002 -0.0933,0.77335 -0.28,1.12 0.10666,0.0534 0.17333,0.08 0.2,0.08"
         style=""
         id="path3004" />
      <path
         d="m 240.62937,232.335 -4.04,4.64 c -0.18667,0.21334 -0.42667,0.32001 -0.72,0.32 -0.18667,1e-5 -0.34667,-0.0533 -0.48,-0.16 l -3.04,-2.8 c -0.18666,-0.15999 -0.36,-0.23999 -0.52,-0.24 -0.16,1e-5 -0.32,0.08 -0.48,0.24 l -2.28,2.64 0,-2.4 4.08,-4.68 c 0.16,-0.21332 0.38667,-0.31999 0.68,-0.32 0.13334,1e-5 0.29334,0.0667 0.48,0.2 l 3.08,2.8 c 0.18667,0.16001 0.34667,0.24001 0.48,0.24 0.16,1e-5 0.30666,-0.0933 0.44,-0.28 l 2.32,-2.64 0,2.44"
         style=""
         id="path3006" />
      <path
         d="m 280.32938,219.335 c 0.79998,3e-5 1.82665,-0.90664 3.07999,-2.72 l 0.84,0 -10.12,36.44 -1.47999,0 2.88,-10.4 c -1.25334,0.64 -2.26668,0.96 -3.04001,0.96 -0.77333,0 -1.49333,-0.26667 -2.15999,-0.8 -0.64001,-0.56 -0.96001,-1.24 -0.96001,-2.04 0,-0.58666 0.21334,-1.12 0.64,-1.6 0.42667,-0.50666 1.01334,-0.75999 1.76001,-0.76 0.71999,1e-5 1.29332,0.25334 1.71999,0.76 0.42667,0.48 0.64,1.01334 0.64,1.6 0,0.4 -0.0933,0.77334 -0.28,1.12 0.10667,0.0533 0.17333,0.08 0.2,0.08 0.50667,0 1.21333,-0.49333 2.12,-1.48 l 1.48001,-5.36 c -1.20001,0.61334 -2.22668,0.92001 -3.08001,0.92 -0.74667,1e-5 -1.45333,-0.26666 -2.12,-0.8 -0.66666,-0.53332 -1,-1.19999 -1,-2 0,-0.69332 0.22667,-1.25332 0.68,-1.68 0.48,-0.45332 1.04,-0.67999 1.68,-0.68 0.66667,1e-5 1.22667,0.22668 1.68,0.68 0.48,0.45335 0.72,1.01335 0.72001,1.68 -1e-5,0.40001 -0.08,0.76001 -0.24,1.08 0.10665,0.0533 0.17332,0.08 0.19999,0.08 0.50666,1e-5 1.18666,-0.46666 2.04001,-1.4 l 1.47999,-5.4 c -1.28,0.61335 -2.28,0.92002 -3,0.92 -0.74667,2e-5 -1.45333,-0.26665 -2.12,-0.8 -0.66667,-0.55998 -1,-1.23998 -1,-2.04 0,-0.63998 0.21333,-1.18665 0.64001,-1.64 0.45332,-0.47998 1.02666,-0.71998 1.71999,-0.72 0.66666,2e-5 1.22666,0.22669 1.68,0.68 0.45333,0.42669 0.68,0.98669 0.68,1.68 0,0.40002 -0.08,0.76002 -0.24,1.08 0.08,0.08 0.13333,0.12002 0.16001,0.12 0.53332,2e-5 1.23998,-0.47998 2.12,-1.44 l 1.47999,-5.4 c -1.28001,0.61336 -2.29334,0.92002 -3.03999,0.92 -0.74668,2e-5 -1.45335,-0.26664 -2.12,-0.8 -0.64001,-0.53331 -0.96001,-1.19997 -0.96001,-2 0,-0.69331 0.22666,-1.26664 0.68,-1.72 0.45333,-0.4533 1.01333,-0.67997 1.68,-0.68 0.66666,3e-5 1.22666,0.24003 1.68,0.72 0.45333,0.48003 0.67999,1.04003 0.68,1.68 -1e-5,0.34669 -0.08,0.70669 -0.24,1.08 0.0533,0.0534 0.10666,0.08 0.16001,0.08"
         style=""
         id="path3008" />
      <path
         d="m 325.395,229.255 c -0.50668,2e-5 -0.93335,-0.14665 -1.28,-0.44 -0.32001,-0.29332 -0.48001,-0.63998 -0.48,-1.04 -10e-6,-1.19998 0.50665,-1.79998 1.52,-1.8 1.25332,2e-5 1.87998,0.57335 1.88,1.72 -2e-5,0.45335 -0.17335,0.82668 -0.52,1.12 -0.32002,0.29335 -0.69335,0.44002 -1.12,0.44 m -10.68,-7.52 c -0.4,2e-5 -0.74667,0.21336 -1.04,0.64 -0.26667,0.40002 -0.4,0.82669 -0.4,1.28 0,0.85335 0.44,1.62669 1.32,2.32 0.88,0.66668 2.26666,1.41335 4.16,2.24 l 5.44,-8.24 2.12,0 -5.92,9.04 c 3.62665,1.81335 5.43999,4.02668 5.44,6.64 -10e-6,1.38667 -0.46668,2.58667 -1.4,3.6 -0.90668,0.98667 -2.02668,1.48 -3.36,1.48 -0.96001,0 -1.81334,-0.29333 -2.56,-0.88 -0.72001,-0.61333 -1.08001,-1.34666 -1.08,-2.2 -10e-6,-1.14666 0.74666,-1.71999 2.24,-1.72 0.61332,1e-5 1.03999,0.36001 1.28,1.08 0.31999,1.20001 0.67999,1.80001 1.08,1.8 1.06665,1e-5 1.59999,-0.62666 1.6,-1.88 -10e-6,-1.09332 -0.66668,-2.06666 -2,-2.92 l -3.4,-1.72 -5.32,8.28 -2.04,0 5.76,-9.04 c -3.68,-1.91999 -5.52,-4.11998 -5.52,-6.6 0,-1.35998 0.42667,-2.54664 1.28,-3.56 0.88,-1.03998 1.97333,-1.55998 3.28,-1.56 1.11999,2e-5 2.03999,0.29336 2.76,0.88 0.71999,0.56002 1.07999,1.29336 1.08,2.2 -10e-6,0.50669 -0.18668,0.93335 -0.56,1.28 -0.37334,0.32002 -0.82667,0.48002 -1.36,0.48 -0.48001,2e-5 -0.86667,-0.14665 -1.16,-0.44 -0.29334,-0.31998 -0.49334,-0.65331 -0.6,-1 -0.08,-0.37331 -0.21334,-0.70664 -0.4,-1 -0.18667,-0.31998 -0.42667,-0.47998 -0.72,-0.48 m -0.2,11.32 c 0,0.40001 -0.17334,0.76001 -0.52,1.08 -0.32,0.29334 -0.69334,0.44001 -1.12,0.44 -1.17333,1e-5 -1.76,-0.51999 -1.76,-1.56 0,-1.17332 0.54667,-1.75999 1.64,-1.76 1.17333,1e-5 1.76,0.60001 1.76,1.8"
         style=""
         id="path3010" />
      <path
         d="m 371.8625,224.495 -1.72,0 c -0.45334,3.04002 -1.94668,4.84002 -4.48,5.4 l 0,1.8 -1.4,0 0,-1.8 c -2.53334,-0.55998 -4.02667,-2.35998 -4.48,-5.4 l -1.72,0 0,-1.4 1.72,0 c 0.53333,-3.19998 2.02666,-5.01331 4.48,-5.44 l 0,-1.76 1.4,0 0,1.76 c 2.45332,0.42669 3.94666,2.24002 4.48,5.44 l 1.72,0 0,1.4 m -4.52,-1.4 c -0.0533,-0.85331 -0.10668,-1.49331 -0.16,-1.92 -0.0533,-0.42664 -0.21334,-0.89331 -0.48,-1.4 -0.24001,-0.53331 -0.58667,-0.82664 -1.04,-0.88 l 0,4.2 1.68,0 m -3.08,0 0,-4.2 c -0.96001,0.13336 -1.52,1.53336 -1.68,4.2 l 1.68,0 m 3.08,1.4 -1.68,0 0,4.12 c 1.03999,-0.34665 1.59999,-1.71998 1.68,-4.12 m -3.08,4.12 0,-4.12 -1.68,0 c 0.08,2.37335 0.63999,3.74668 1.68,4.12"
         style=""
         id="path3012" />
      <path
         d="m 407.49063,239.095 c -1e-5,0.50667 -0.46668,1.14667 -1.40001,1.92 -0.93333,0.77334 -1.4,1.33334 -1.4,1.68 0,0.42667 0.38667,0.98667 1.16,1.68 0.64,-0.08 1.21333,-0.26667 1.72,-0.56 l -2.44,7.56 -2.51999,-7.56 c 0.71999,0.34667 1.41333,0.54667 2.07999,0.6 -1.28,-0.50667 -1.92,-1.38667 -1.92,-2.64 0,-0.56 0.41334,-1.2 1.24,-1.92 0.82667,-0.71999 1.24,-1.27999 1.24001,-1.68 -10e-6,-0.31999 -0.41334,-0.90666 -1.24001,-1.76 -0.82666,-0.85332 -1.24,-1.62666 -1.24,-2.32 0,-0.50666 0.41334,-1.11999 1.24,-1.84 0.82667,-0.74665 1.24,-1.31999 1.24001,-1.72 -10e-6,-0.31999 -0.41334,-0.90665 -1.24001,-1.76 -0.82666,-0.87998 -1.24,-1.62665 -1.24,-2.24 0,-0.50665 0.41334,-1.15998 1.24,-1.96 0.82667,-0.79998 1.24,-1.34665 1.24001,-1.64 -10e-6,-0.31998 -0.41334,-0.94664 -1.24001,-1.88 -0.82666,-0.93331 -1.24,-1.70664 -1.24,-2.32 0,-0.47997 0.41334,-1.09331 1.24,-1.84 0.82667,-0.74664 1.24,-1.2933 1.24001,-1.64 -10e-6,-0.42664 -0.34667,-1.06664 -1.04001,-1.92 0.64,0.1067 1.34667,0.41336 2.12,0.92 0.77333,0.5067 1.16,1.1067 1.16001,1.8 -1e-5,0.53336 -0.24001,1.02669 -0.72001,1.48 -0.45333,0.42669 -0.92,0.82669 -1.39999,1.2 -0.45334,0.37336 -0.68001,0.73336 -0.68001,1.08 0,0.32002 0.46667,0.92002 1.4,1.8 0.93333,0.88002 1.4,1.58669 1.40001,2.12 -1e-5,0.53335 -0.46668,1.20002 -1.40001,2 -0.93333,0.80002 -1.4,1.36002 -1.4,1.68 0,0.29335 0.46667,0.86668 1.4,1.72 0.93333,0.85335 1.4,1.61335 1.40001,2.28 -1e-5,0.58668 -0.46668,1.26668 -1.40001,2.04 -0.93333,0.77334 -1.4,1.34668 -1.4,1.72 0,0.24001 0.22667,0.56001 0.68001,0.96 0.47999,0.40001 0.94666,0.86667 1.39999,1.4 0.48,0.50667 0.72,1.02667 0.72001,1.56"
         style=""
         id="path3014" />
    </g>
  </g>
</svg>
