<?xml version="1.0" standalone="yes"?>
<svg width="4000" height="4500">
<path style="stroke:none;fill:none;" d="M2547 349L2547 1033L2547 1261C2547 1298.55 2548.6 1336.49 2546.98 1374C2546.6 1382.84 2534.8 1386.04 2534.71 1394C2534.6 1403.83 2543.6 1415.52 2546.21 1425C2549.13 1435.57 2547 1449.08 2547 1460L2547 2227L2547 2809L2547 2987L2547 3041C2547 3049.93 2548.48 3060.37 2545.96 3069C2542.99 3079.17 2538.5 3089.16 2534.6 3099C2533.02 3103 2531.97 3108.5 2528.61 3111.44C2524.45 3115.07 2516.22 3115.74 2511 3117.15C2497.36 3120.85 2483.71 3124.45 2470 3127.87C2435.14 3136.59 2400.19 3144.71 2365 3152C2348.29 3155.46 2330.29 3156.75 2314 3161.77C2296.61 3167.14 2279.72 3179.18 2263 3186.69C2232.83 3200.26 2201.1 3210.7 2169 3218.63C2129.38 3228.4 2088.55 3233.11 2048 3237.17C2027.84 3239.18 2007.28 3242.24 1987 3242C1959.18 3241.67 1930.63 3237.46 1903 3234.16C1789.86 3220.62 1687.96 3183.95 1605 3102.99C1495.4 2996.03 1444.24 2841.85 1416.54 2695C1384.32 2524.17 1379.73 2346.53 1383.99 2173C1387.56 2027.09 1392.91 1882.93 1419.74 1739C1449.96 1576.9 1511.21 1398.46 1657 1305.24C1720.31 1264.76 1791.86 1245.24 1866 1237.83C1884.01 1236.03 1902.89 1232.78 1921 1233.26C1956.96 1234.22 1993.32 1239.03 2029 1243.72C2082.03 1250.69 2133.12 1259.84 2184 1276.59C2218.22 1287.86 2251.13 1304.04 2283 1320.63C2295.16 1326.96 2307.06 1336.91 2320 1341.39C2336.1 1346.97 2354.35 1348.75 2371 1352.42C2409.8 1360.99 2448.7 1369.93 2487 1380.58C2501.89 1384.71 2517.56 1387.47 2532 1393M2529 3112L2546.4 3131L2547 3168L2547 3253"/>
</svg>
