<?xml version="1.0" standalone="yes"?>
<svg width="4000" height="4500">
<path style="stroke:none;fill:none;" d="M1569 1223L1843 1223L1843 875C1843 792.717 1840.91 709.852 1848.83 628C1853.36 581.206 1857.63 533.604 1869.71 488C1878.02 456.652 1891.46 425.61 1917 404.326C1953.35 374.031 2006.59 366.283 2052 360.845C2146.85 349.486 2241.5 348 2337 348M1843 3246L1843 1748L1843 1361L1843 1261L1843 1236C1843 1233.09 1842.09 1228.05 1844.03 1225.6C1848.39 1220.09 1868.59 1223 1875 1223L1966 1223L2337 1223"/>
</svg>
