<?xml version="1.0" standalone="yes"?>
<svg width="4000" height="4500">
<path style="stroke:none;fill:none;" d="M1375 2222C1375 2161.58 1376.32 2101.27 1378.96 2041C1388.05 1833.45 1411.65 1615.3 1541.9 1444C1564.36 1414.45 1589.84 1386.39 1617 1361.09C1663.08 1318.17 1716.99 1281.64 1776 1259.06C1864.27 1225.3 1967.72 1218.8 2061 1227.83C2136.86 1235.17 2208.88 1248.49 2278 1282.13C2341.34 1312.96 2396.7 1360.02 2442.71 1413C2548.56 1534.89 2585.93 1702.5 2601.83 1859C2610.46 1943.94 2610.27 2029 2616.09 2114C2617.64 2136.6 2617.04 2159.42 2617 2182C2616.99 2189.64 2619.51 2202.63 2614.68 2209C2600.04 2228.3 2576.57 2223 2555 2223L2405 2223L1777 2223L1470 2223L1398 2223C1392.7 2223 1376.33 2220.14 1375.15 2227.06C1372.09 2244.99 1375.91 2264.97 1376 2283C1376.24 2333.08 1378.49 2383.09 1381.91 2433C1393.07 2595.9 1427.64 2757.17 1505.69 2902C1552.64 2989.12 1614.03 3068.99 1695 3127.25C1785.97 3192.71 1894.51 3225.12 2005 3236.17C2027.37 3238.41 2050.51 3242.23 2073 3242C2102.49 3241.69 2132.72 3236.66 2162 3233.16C2211.73 3227.2 2260.57 3218.5 2308 3202.08C2382 3176.46 2448.29 3131.56 2499.27 3072C2515.04 3053.58 2532.56 3033.07 2543 3011"/>
</svg>
