<?xml version="1.0" standalone="yes"?>
<svg width="4000" height="4500">
<path style="stroke:none;fill:none;" d="M1531 356C1531 960.617 1526.84 1565.4 1531 2170C1531.11 2185.25 1554.82 2190.46 1554.67 2204C1554.58 2211.26 1550.5 2220.1 1548.34 2227C1542.36 2246.17 1531.51 2269.92 1531.01 2290C1528.37 2396.18 1531 2502.78 1531 2609L1531 3247M2520 1189C2489.82 1221.77 2463.17 1258.34 2435.2 1293C2383.17 1357.46 2331.09 1421.93 2278.58 1486C2215.15 1563.38 2152.49 1641.36 2089.39 1719C2057.04 1758.81 2022.01 1797.51 1991.85 1839C1983.61 1850.35 1981.66 1869.58 1977.86 1883L1950.86 1978L1941.71 2010C1940.46 2014.41 1939.96 2020.19 1936.58 2023.58C1927.92 2032.3 1906.5 2036.42 1895 2040.68C1863.78 2052.24 1831.27 2063.22 1801.01 2077.1C1781.59 2086.02 1775.94 2116.3 1756.96 2126.29C1742.51 2133.9 1725.31 2138.34 1710 2144.05C1677.29 2156.24 1644.71 2168.76 1612 2180.95C1593.96 2187.67 1574.02 2193.03 1557 2202M1938 2024L1965 2050.36L1990.03 2065.21L2003.25 2092L2039.26 2170L2163.31 2436L2418.69 2982L2508.69 3175L2553 3270"/>
</svg>
