<?xml version="1.0" standalone="yes"?>
<svg width="4000" height="4500">
<path style="stroke:none;fill:none;" d="M1453 356L1453 1220L1453 1470L1453.32 1494L1459.64 1506L1453.04 1531L1453 1721L1453 2101L1453 3246M1462 1504C1478.68 1495.21 1499.1 1490.63 1517 1484.67C1551.94 1473.02 1586.92 1461.55 1622 1450.34C1637.72 1445.32 1657.57 1442.78 1672 1434.86C1687.07 1426.6 1699.6 1408.52 1713 1397.46C1748.33 1368.33 1785.03 1341.82 1825 1319.33C1892.95 1281.1 1964.6 1260.57 2041 1247.92C2082.23 1241.09 2125.19 1234.27 2167 1233.71C2190.64 1233.4 2214.54 1237.32 2238 1239.83C2300.98 1246.58 2370.08 1263.82 2421 1303.36C2484.39 1352.6 2510.55 1428.42 2522.42 1505C2539.43 1614.67 2539 1724.27 2539 1835L2539 3239"/>
</svg>
