<?xml version="1.0" standalone="yes"?>
<svg width="4000" height="4500">
<path style="stroke:none;fill:none;" d="M1984 3247L1984 1921L1984 1566L1984 1471C1984 1461.18 1979.13 1443.66 1984.6 1435C2005.95 1401.19 2059.11 1393.87 2095 1384.15C2105.9 1381.2 2120.62 1379.64 2130 1373.2C2144.83 1363.02 2158.22 1350.57 2173 1340.2C2204.08 1318.41 2237.29 1299.46 2272 1284.09C2314.3 1265.36 2357.81 1253.59 2403 1244.55C2437.57 1237.64 2472.95 1234.22 2508 1230.83C2541.88 1227.55 2576.94 1223.18 2611 1224.01C2747.7 1227.36 2903.11 1276.12 2961.58 1411C2989.65 1475.77 2994.54 1548.62 3001.17 1618C3014.07 1752.96 3007 1890.35 3007 2026C3007 2430.36 3008 2834.71 3008 3239M984 3247L984 1883L984 1521L984 1425C984 1416.26 980.181 1395.75 985.028 1388.42C987.507 1384.67 995.015 1383.18 999 1381.6C1011.87 1376.49 1024.96 1371.95 1038 1367.31C1075.03 1354.13 1112.86 1343.79 1151 1334.37C1166.69 1330.5 1185.03 1329.57 1200 1323.66C1213.31 1318.4 1225.5 1306.45 1238 1299.23C1261.4 1285.72 1286.47 1274.04 1312 1265.18C1360.09 1248.48 1410.58 1239.88 1461 1233.84C1498.62 1229.34 1537.06 1224.09 1575 1225.01C1658.89 1227.07 1744.48 1247.38 1818 1288.35C1851.8 1307.18 1881.83 1330.18 1906.68 1360C1918 1373.59 1925.29 1390.49 1936.61 1403.81C1941.88 1410.02 1951.27 1414.13 1958 1418.67C1966.15 1424.16 1973.98 1432.18 1983 1436M984 1231L984 1386"/>
</svg>
