<?xml version="1.0" standalone="yes"?>
<svg width="4000" height="4500">
<path style="stroke:none;fill:none;" d="M2468 1231L2468 2102L2468 2716L2468 2911C2468 2935.65 2468.77 2960.44 2467.09 2985C2466.53 2993.17 2468.23 3001.95 2466.62 3010C2462.47 3030.76 2432.31 3032.05 2415 3036.37C2361.23 3049.81 2307.34 3061.75 2253 3072.6C2229.98 3077.2 2211.19 3089.02 2190 3098.88C2164.81 3110.62 2138.61 3121.03 2112 3129.12C2072.24 3141.2 2031.05 3147.36 1990 3153.27C1968.86 3156.32 1946.38 3161.22 1925 3161C1897.25 3160.71 1868.39 3154.67 1841 3150.42C1780.05 3140.97 1724.06 3121.91 1675 3083.33C1562.89 2995.17 1513 2844.97 1487.54 2710C1453.16 2527.73 1451.8 2340.09 1454 2155C1455.93 1992.05 1456.69 1826.04 1491.34 1666C1524.75 1511.66 1586.92 1331.69 1744 1263.17C1777.67 1248.48 1813.75 1242.18 1850 1237.84C1865.92 1235.94 1882.97 1232.53 1899 1233.04C1930.65 1234.05 1962.66 1239.21 1994 1243.73C2039.85 1250.34 2085.01 1258.96 2129 1273.68C2153.96 1282.04 2178.34 1292.72 2202 1304.21C2213.77 1309.92 2225.54 1318.13 2238 1322.1C2249.04 1325.62 2261.59 1326.37 2273 1328.42C2298.08 1332.95 2323.07 1337.91 2348 1343.21C2387.35 1351.58 2427.22 1365.64 2467 1371M2460 3024C2468.93 3033.23 2466.31 3047.02 2465.17 3059C2463.63 3075.19 2464.2 3091.76 2463.09 3108C2457.75 3185.99 2456.21 3264.66 2443.32 3342C2433.17 3402.92 2416.47 3462.56 2388.75 3518C2371.06 3553.38 2349.72 3587.1 2323.71 3617C2233.04 3721.22 2105.04 3767.82 1971 3782.17C1812.43 3799.14 1651.15 3781.28 1495 3751"/>
</svg>
