<?xml version="1.0" standalone="yes"?>
<svg width="4000" height="4500">
<path style="stroke:none;fill:none;" d="M1460 1231L1460 1366C1460 1377.09 1454.68 1405.33 1469 1409.45C1475.77 1411.41 1490.34 1403.88 1497 1401.67C1519.74 1394.12 1542.97 1387.9 1566 1381.29C1594.46 1373.12 1623.23 1366.12 1652 1359.13C1664.17 1356.17 1678.48 1355.23 1690 1350.36C1708.41 1342.58 1725.43 1328.4 1743 1318.66C1775.87 1300.46 1810.39 1284.41 1846 1272.33C1886.43 1258.61 1927.86 1250.11 1970 1243.58C1994.26 1239.81 2019.42 1234.62 2044 1234.01C2072.94 1233.31 2102.31 1238.41 2131 1241.84C2178.5 1247.53 2225.86 1258.12 2269 1279.37C2354.81 1321.64 2427.17 1392.56 2478.3 1473C2516.37 1532.87 2541.64 1601.74 2559.84 1670C2588.01 1775.64 2600.64 1884.23 2608.09 1993C2616.94 2122.33 2618.71 2252.46 2613.04 2382C2605.79 2547.65 2591.62 2713.24 2536.34 2871C2490.07 3003.08 2408.5 3128.32 2279 3190.89C2240.67 3209.41 2198.97 3222 2157 3228.85C2117.97 3235.24 2075.56 3242.27 2036 3242C2008.13 3241.8 1979.71 3237.13 1952 3234.17C1868.64 3225.24 1789.16 3204.55 1714 3166.97C1693.37 3156.66 1668.5 3155.3 1646 3150.8C1608.77 3143.35 1571.83 3134.58 1535 3125.37C1520.62 3121.78 1506.25 3118.07 1492 3114C1486.69 3112.48 1478.74 3111.88 1474.39 3108.27C1469.37 3104.1 1467.51 3093.94 1465.32 3088C1456.03 3062.87 1460 3033.57 1460 3007L1460 2722L1460 1772L1460 1519L1460 1460C1460 1443.04 1459.68 1426.02 1469 1411M1473 3109C1468.96 3113.04 1462.62 3117.52 1460.6 3123C1456.16 3135.06 1460 3155.14 1460 3168L1460 3292L1460 3809"/>
</svg>
