<?xml version="1.0" standalone="yes"?>
<svg width="4000" height="4500">
<path style="stroke:none;fill:none;" d="M2569 1224C2561.32 1281.04 2542.84 1337.8 2530.42 1394C2501.74 1523.88 2471.57 1653.57 2440.88 1783C2364.53 2105.08 2295.47 2428.91 2219.12 2751C2198.37 2838.52 2177.82 2926.17 2158.42 3014C2153.48 3036.37 2147.8 3058.6 2143 3081C2140.92 3090.69 2139.83 3106.71 2134.26 3114.91C2127.78 3124.44 2112.42 3130.94 2103 3137.34C2083.03 3150.94 2063.07 3164.55 2043 3178C2032.55 3185 2024.34 3193.22 2011 3191.9C2001.12 3190.91 1991.12 3180.92 1983 3175.69C1962.28 3162.34 1941.51 3149.01 1921 3135.33C1913.15 3130.1 1898.91 3124.28 1894.14 3115.96C1889.2 3107.35 1888.23 3094.56 1885.58 3085C1878.03 3057.85 1872.28 3030.24 1865.12 3003C1841.95 2914.91 1822.15 2825.61 1797.29 2738C1772.97 2652.31 1753.77 2565.14 1731.12 2479C1675.13 2266.07 1621.67 2052.43 1567.63 1839C1534.11 1706.62 1500.84 1574.07 1466.12 1442C1447.38 1370.75 1425.89 1299.15 1411 1227"/>
</svg>
