<?xml version="1.0" standalone="yes"?>
<svg width="4000" height="4500">
<path style="stroke:none;fill:none;" d="M2539 1231C2539 1270.51 2542.35 1311.65 2538.94 1351C2538.62 1354.76 2535.5 1357.41 2535.23 1361C2534.83 1366.38 2538.97 1372.19 2539 1378C2539.15 1406 2539 1434 2539 1462L2539 1747L2539 2621L2539 2983L2539 3076C2539 3087.34 2542.23 3104.25 2535.03 3113.87C2531.35 3118.78 2523.58 3119.19 2518 3120.42C2503.35 3123.66 2488.7 3126.95 2474 3130C2436.13 3137.84 2398.14 3145.19 2360 3151.59C2339.55 3155.02 2318.14 3156.73 2298 3161.52C2283.59 3164.95 2269.97 3173.48 2256 3178.46C2223.78 3189.94 2191.31 3201.67 2158 3209.66C1962.04 3256.68 1720.43 3268.32 1571.09 3108C1462.53 2991.45 1420.65 2822.74 1401.71 2669C1381.52 2505.07 1379.94 2338.07 1383.99 2173C1388.07 2006.27 1395.21 1841.73 1429.71 1678C1463.27 1518.79 1543.44 1356.05 1693 1276.47C1741.61 1250.61 1796.94 1243.62 1851 1237.83C1963.08 1225.83 2077.08 1241.4 2185 1273.77C2211.7 1281.78 2238.08 1291.24 2264 1301.46C2274.85 1305.74 2285.74 1312.29 2297 1315.24C2309.86 1318.61 2323.87 1319.21 2337 1321.41C2368.74 1326.74 2400.44 1332.09 2432 1338.4C2465.26 1345.05 2500.28 1357.32 2534 1360M2534 3117C2543.71 3127.5 2539 3151.31 2539 3165L2539 3295L2539 3809"/>
</svg>
