<?xml version="1.0" standalone="yes"?>
<svg width="4000" height="4500">
<path style="stroke:none;fill:none;" d="M1757 3246L1757 1929L1757 1583L1757 1493C1757 1481.82 1754.05 1464.88 1760.85 1455.13C1763.95 1450.69 1771.19 1449.39 1776 1447.58C1788.27 1442.95 1800.74 1438.84 1813 1434.19C1846.98 1421.32 1882.13 1410.61 1917 1400.42C1934.92 1395.19 1954.72 1392.12 1972 1385.16C1988.53 1378.5 2004.26 1360.87 2019 1350.57C2045.91 1331.77 2075.29 1316.42 2105 1302.61C2190.23 1263.03 2276.9 1242.8 2370 1232.83C2408.37 1228.73 2447.4 1224 2486 1224M1757 1231L1757 1393L1757 1433C1757 1440.44 1755.95 1447.02 1761 1453"/>
</svg>
