<?xml version="1.0" standalone="yes"?>
<svg width="4000" height="4500">
<path style="stroke:none;fill:none;" d="M2976 1223C2969.12 1277.13 2957.59 1331.22 2948.25 1385L2895.25 1691C2829.19 2071.28 2761.42 2451.35 2697.59 2832C2684.89 2907.72 2672.05 2983.44 2658.42 3059C2654.46 3080.98 2651.01 3103.06 2646.8 3125C2645.21 3133.29 2645.5 3144.42 2641.68 3151.99C2635.92 3163.42 2616.12 3172.78 2606 3180.37C2595.21 3188.46 2582.62 3201.36 2570 3206.16C2559.13 3210.29 2541.6 3207 2530 3207C2514.15 3207 2492.18 3210.97 2477 3206.49C2468.06 3203.85 2459.26 3194.08 2452 3188.42C2435.4 3175.49 2412.76 3163.09 2399.3 3146.91C2393.43 3139.85 2394 3124.84 2392.73 3116L2381.73 3040C2368.18 2945.98 2354.28 2852.02 2340.73 2758C2308.16 2531.97 2275.55 2305.93 2242.27 2080C2223.92 1955.43 2208.47 1830.25 2188.08 1706C2174.29 1621.96 2163.42 1537.29 2151.27 1453L2140.27 1377C2138.4 1364.01 2138.04 1349.58 2134.28 1337C2131.88 1328.96 2122.29 1323.73 2116 1318.88C2100.96 1307.3 2085.92 1295.73 2071 1284C2064.05 1278.54 2057.3 1271.13 2048 1271C2035.67 1270.83 2023.33 1271 2011 1271C2005.1 1271 1997.65 1269.8 1992 1271.7C1985.45 1273.91 1979.47 1280.03 1974 1284.13L1938 1311.13C1927.89 1318.71 1909.13 1327.86 1902.99 1339C1898.01 1348.05 1898.59 1362.87 1896.92 1373C1892.84 1397.67 1888.72 1422.34 1884.59 1447C1869.85 1534.91 1856.59 1623.08 1841.92 1711C1783.47 2061.26 1726.85 2412.09 1672.42 2763C1657.68 2858.09 1641.17 2952.91 1626.42 3048C1622.49 3073.35 1618.66 3098.7 1614.41 3124C1613.04 3132.18 1613.22 3147.32 1607.68 3153.71C1595.23 3168.07 1575.06 3179.04 1560 3190.65C1553.5 3195.66 1545.9 3203.88 1538 3206.44C1522.94 3211.3 1499.85 3207 1484 3207C1472.43 3207 1455.99 3210 1445 3206.3C1430.33 3201.36 1415.49 3185.26 1403 3176.15C1392.04 3168.15 1372.05 3158.51 1364.94 3146.91C1360.74 3140.07 1361.12 3127.87 1359.75 3120C1356.1 3098.99 1352.36 3077.99 1348.58 3057C1335.28 2983.24 1322.91 2909.07 1311.42 2835C1291.84 2708.74 1268.35 2582.99 1247.08 2457C1200.42 2180.69 1153.91 1904.35 1107.56 1628C1091.52 1532.31 1074.78 1436.73 1058.92 1341C1052.46 1302.03 1043.96 1263.19 1039 1224"/>
</svg>
