<?xml version="1.0" standalone="yes"?>
<svg width="4000" height="4500">
<path style="stroke:none;fill:none;" d="M1485 2810C1498.69 2853.27 1507.85 2897.11 1526.17 2939C1567.8 3034.16 1632.02 3114.02 1722 3167.55C1774.33 3198.68 1833.23 3217.31 1893 3227.29C1939.21 3235 1988.11 3242.15 2035 3242.15C2080.69 3242.15 2127.88 3235.24 2173 3228.27C2277.41 3212.16 2380.38 3172.62 2446.5 3086C2492.39 3025.88 2509.34 2953.63 2518.16 2880C2521.37 2853.16 2526.65 2825.05 2525.99 2798C2525.09 2761.49 2519.48 2724.22 2514.72 2688C2507.14 2630.38 2492.43 2572.18 2466.34 2520C2423.96 2435.23 2343.55 2364 2258 2324.9C2223.42 2309.1 2187.02 2299.8 2151 2288.25C2121.18 2278.7 2091.31 2268.89 2061 2260.88C2024.53 2251.25 1987.49 2243.75 1951 2234.12C1794.39 2192.75 1618.52 2129.7 1530.07 1984C1507.43 1946.7 1491.46 1906.31 1480.87 1864C1471.85 1827.97 1467.52 1790.91 1463.83 1754C1461.83 1733.99 1458 1713.13 1458.46 1693C1459.1 1664.83 1463.71 1635.88 1467.73 1608C1472.14 1577.38 1476.27 1546.78 1484.87 1517C1499.14 1467.64 1525.47 1421.55 1559.29 1383C1678.38 1247.24 1876.2 1221.85 2046 1238.83C2110.12 1245.24 2171.83 1257.63 2230 1286.37C2335.88 1338.7 2419 1429.67 2466.49 1537C2482.84 1573.97 2488.93 1612.93 2501 1651"/>
</svg>
