<?xml version="1.0" standalone="yes"?>
<svg width="4000" height="4500">
<path style="stroke:none;fill:none;" d="M1993 1232.42C2023.85 1228.37 2058.26 1235.54 2089 1238.83C2128.89 1243.11 2168.4 1250.23 2206 1264.59C2385.26 1333.04 2490.23 1512.74 2554.91 1683C2594.9 1788.24 2610.58 1901.73 2621.17 2013C2628.03 2085.06 2631 2158.58 2631 2231C2631 2284.32 2627.73 2337.86 2624.09 2391C2611.94 2568.5 2581.44 2743.73 2499.97 2904C2439.74 3022.48 2350.39 3131.22 2227 3186.69C2177.58 3208.9 2124.31 3217.71 2071 3224.72C2047 3227.87 2022.21 3231.99 1998 3232.54C1972.61 3233.12 1945.13 3227.86 1920 3224.27C1856.52 3215.2 1795.75 3202.92 1739 3171.49C1556.18 3070.2 1461.44 2860.54 1408.25 2668C1380.08 2565.99 1369.57 2459.31 1364.96 2354C1360.65 2255.62 1360.18 2158.33 1366.91 2060C1376.85 1914.91 1396.63 1768.97 1451.55 1633C1502.3 1507.35 1579.84 1384.89 1696 1310.24C1745.7 1278.3 1801.81 1256.31 1860 1246.08C1904.15 1238.33 1948.86 1238.22 1993 1232.42"/>
</svg>
