<?xml version="1.0" standalone="yes"?>
<svg width="4000" height="4500">
<path style="stroke:none;fill:none;" d="M1453 3246L1453 1986L1453 1644L1453 1553C1453 1537.95 1451.48 1518.77 1459.3 1505.11C1461.99 1500.41 1469.27 1498.7 1474 1496.8L1511 1482C1543.97 1468.81 1577.39 1456.46 1611 1445C1627.46 1439.39 1649.13 1436.07 1663.96 1427.07C1669.55 1423.67 1673.85 1416.83 1678.17 1412C1688.17 1400.8 1698.32 1389.57 1709 1379C1739.28 1349.03 1772.71 1321.68 1810 1300.86C1896.94 1252.33 1990.69 1233.64 2089 1226.91C2152.31 1222.58 2214.57 1224.99 2277 1237.55C2342.54 1250.74 2418.6 1279.42 2462.68 1332C2511.2 1389.89 2528.31 1465.62 2536.17 1539C2548.81 1657 2546 1775.32 2546 1894L2546 3246M1453 1231L1453 1430L1453 1475C1453 1486.3 1451.58 1494.48 1460 1503"/>
</svg>
