<?xml version="1.0" standalone="yes"?>
<svg width="4000" height="4500">
<path style="stroke:none;fill:none;" d="M1461 1239L1461 2564C1461 2685.83 1457.36 2807.97 1471.84 2929C1479.91 2996.43 1491.09 3065.64 1533.68 3121C1582.43 3184.37 1656.77 3214.06 1733 3228.26C1773.37 3235.78 1817.91 3242.47 1859 3242C1892.17 3241.61 1926.06 3236.1 1959 3232.16C2019.96 3224.86 2080.33 3212.45 2137 3188.13C2175.44 3171.63 2212.18 3151.72 2247 3128.51C2263.49 3117.51 2280.14 3099.7 2298 3091.65C2315.63 3083.71 2337.37 3080.89 2356 3075.58C2393.63 3064.85 2430.88 3053.04 2468 3040.67C2481.7 3036.1 2495.31 3031.25 2509 3026.67C2513.71 3025.09 2522.31 3023.71 2524.61 3018.86C2538.64 2989.32 2539 2957.79 2539 2926L2539 2845L2539 2495L2539 1239M2524 3022L2538.4 3038L2539 3055L2539 3091L2539 3239"/>
</svg>
