<?xml version="1.0" standalone="yes"?>
<svg width="4000" height="4500">
<path style="stroke:none;fill:none;" d="M1373 1223L2268 1223L2482 1223L2524 1223C2529.99 1223 2538.33 1221.51 2544 1223.6C2550.39 1225.96 2558.77 1235.5 2562.64 1241C2567.57 1248 2559.34 1267.15 2557.37 1275C2549.38 1306.98 2541.62 1339.02 2533.63 1371C2526.9 1397.91 2523.75 1429.55 2512.79 1455C2508.21 1465.62 2499.66 1475.33 2493.34 1485C2478.93 1507.08 2463.97 1528.83 2449.69 1551C2401.7 1625.51 2351.79 1698.79 2303.34 1773C2070.74 2129.29 1835.36 2483.96 1599.33 2838C1579.44 2867.84 1560.83 2898.59 1540.28 2928C1525.05 2949.8 1505.26 2973.64 1494.53 2998C1488.63 3011.39 1486.67 3027.81 1483.13 3042C1476.04 3070.35 1468.72 3098.65 1461.63 3127L1443.63 3199C1441.92 3205.81 1435.83 3218.78 1440.33 3225C1445.03 3231.48 1455.42 3243.6 1463 3246.4C1474.29 3250.56 1492.96 3247 1505 3247L1601 3247L2064 3247L2602 3247"/>
</svg>
