<?xml version="1.0" standalone="yes"?>
<svg width="4000" height="4500">
<path style="stroke:none;fill:none;" d="M1505 606C1524.75 586.247 1547.08 568.576 1572 555.781C1595.63 543.65 1621.52 537.741 1647 530.849C1663.12 526.488 1681.27 520.148 1698 519.21C1716.79 518.156 1739.57 525.915 1758 529.6C1798.37 537.673 1840.82 544.3 1879 560.011C1935.43 583.228 1987.49 616.513 2045 637.115C2075.22 647.939 2109.47 651.738 2141 657.424C2170.12 662.676 2203.36 672.614 2233 671.871C2249.41 671.46 2267.02 665.953 2283 662.424C2335.1 650.917 2382.4 631.282 2421 593"/>
</svg>
