<?xml version="1.0" standalone="yes"?>
<svg width="4000" height="4500">
<path style="stroke:none;fill:none;" d="M1402 1205C1414.37 1250.32 1434.99 1295.03 1451.58 1339C1483.48 1423.58 1514.67 1508.42 1546.58 1593C1635.96 1829.97 1722.05 2068.19 1811.81 2305C1833.99 2363.53 1855.61 2422.29 1877.32 2481C1883.86 2498.69 1890.4 2516.41 1897.19 2534C1899.84 2540.87 1901.42 2551.1 1906.5 2556.61C1911.27 2561.78 1919.94 2564.94 1926 2568.42C1939.32 2576.06 1952.65 2583.69 1966 2591.28L2008 2615.28C2012.69 2617.95 2019.43 2623.72 2025 2623.72C2030.91 2623.72 2038.11 2617.33 2043 2614.4C2056.94 2606.04 2071.06 2597.96 2085 2589.6C2099.52 2580.89 2122.39 2572.51 2133.58 2559.79C2138.58 2554.1 2140.57 2543.12 2143 2536C2148.79 2519 2154.46 2501.96 2160.34 2485C2181.38 2424.4 2202.7 2363.85 2223 2303C2305.77 2054.94 2392.59 1808.04 2478.34 1561C2506.78 1479.08 2535.03 1397.09 2563 1315C2575.09 1279.52 2591.55 1243.5 2600 1207M2025 2625C2025.02 2655.87 2028.03 2687.15 2025.91 2718C2022.11 2773.48 2009.95 2830.03 2001.42 2885C1996.11 2919.26 1994.22 2955.31 1986.1 2989C1975.83 3031.63 1957.14 3073.49 1943 3115C1911.06 3208.76 1878.83 3302.43 1846.34 3396C1813.63 3490.23 1781.17 3584.58 1749 3679C1738.09 3711.03 1726.92 3742.97 1716 3775C1709.47 3794.16 1704.2 3814.5 1696 3833"/>
</svg>
