<?xml version="1.0" standalone="yes"?>
<svg width="4000" height="4500">
<path style="stroke:none;fill:none;" d="M2298 231C2275.92 237.526 2250.71 236.89 2228 242.236C2165.96 256.845 2108.16 284.381 2062 329.04C1958.3 429.354 1945.91 588.239 1939.96 724C1932.19 901.448 1937 1080.23 1937 1258C1937 1314.91 1941.45 1372.18 1938.96 1429C1937.25 1468 1933.54 1507.21 1928.72 1546C1918.36 1629.21 1906.61 1724.4 1857.79 1795C1845.39 1812.95 1831.42 1830.24 1815 1844.71C1804.81 1853.7 1790.2 1861.08 1781.5 1871.3C1774.51 1879.51 1771.21 1894.16 1766.69 1904C1762.76 1912.55 1749.14 1928.66 1750.36 1938C1751.39 1945.98 1758.35 1954.72 1761.69 1962C1767.1 1973.78 1770.52 1990.8 1778.5 2000.91C1781.78 2005.06 1787.04 2007.59 1791 2011.05C1803.01 2021.57 1815.16 2031.97 1825.71 2044C1860.38 2083.52 1883.66 2129.83 1898.63 2180C1933.13 2295.61 1937 2418.61 1937 2538L1937 2766C1937 2955.92 1929.61 3147.17 1949.83 3336C1961 3440.26 1991.17 3552.54 2075 3622.68C2116.17 3657.12 2165.53 3682.66 2218 3695.12C2238.44 3699.97 2259.17 3704 2280 3706.71C2287.6 3707.7 2295.53 3707.22 2303 3709M1671 1934L1749 1937"/>
</svg>
