<?xml version="1.0" standalone="yes"?>
<svg width="4000" height="4500">
<path style="stroke:none;fill:none;" d="M1469 1200C1507.38 1265.76 1537.32 1337.32 1572.26 1405C1664.98 1584.64 1752.44 1767.2 1846.78 1946C1855.34 1962.22 1863.22 1978.78 1871.78 1995C1874.99 2001.07 1878.26 2010.77 1884.1 2014.65C1908.04 2030.52 1937.29 2041.39 1963 2054.25C1970.9 2058.2 1988.07 2063.11 1991.4 2072C1994.27 2079.68 1992 2091.84 1992 2100L1992 2162L1992 2321L1992 2370C1992 2377.42 1993.54 2386.79 1991.68 2393.98C1989.52 2402.35 1971.11 2407.69 1964 2411.25C1938.09 2424.2 1908.01 2434.83 1884.02 2450.97C1877.37 2455.43 1874.81 2464.29 1871 2471C1861.03 2488.57 1852.92 2507.22 1843.31 2525C1765.88 2668.17 1697.4 2816.36 1622.74 2961C1588.63 3027.1 1555.86 3093.9 1521.74 3160C1502.7 3196.9 1480.97 3233.65 1465 3272M2515 1200C2418.12 1384.12 2325.29 1570.91 2232.25 1757C2203.51 1814.48 2173.98 1871.53 2145.25 1929L2117.25 1985C2113.09 1993.29 2108.9 2004.98 2102.61 2011.79C2095.95 2018.99 2082.7 2022.9 2074 2027.25L2021 2053.75C2011.27 2058.62 2000.15 2062.69 1992 2070M1992 2397C2015.93 2414.04 2046.73 2424.62 2073 2437.75C2082.26 2442.38 2097.34 2446.71 2104.36 2454.39C2111.04 2461.7 2114.83 2474.17 2119.25 2483C2128.78 2502.08 2138.71 2520.93 2148.25 2540C2179.12 2601.74 2210.21 2663.35 2241.25 2725C2299.21 2840.12 2357.13 2955.44 2416.26 3070C2439.91 3115.82 2463.19 3161.88 2486.25 3208C2497.05 3229.6 2509.71 3250.69 2519 3273"/>
</svg>
