<?xml version="1.0" standalone="yes"?>
<svg width="4000" height="4500">
<path style="stroke:none;fill:none;" d="M1696 222C1717.08 225.914 1738.79 226.46 1760 230.46C1804.46 238.844 1848.23 254.512 1887 277.926C2043.47 372.412 2060.83 570.258 2068.04 735C2069.47 767.663 2070 800.234 2070 833L2070 1346C2070 1390.37 2066.5 1434.7 2068.12 1479C2070.55 1545.14 2079.81 1612.06 2092.8 1677C2100.25 1714.25 2107.72 1752.38 2121.16 1788C2135.55 1826.15 2156.7 1862.5 2185.04 1892C2194.42 1901.77 2204.35 1911.24 2215 1919.64C2220.78 1924.2 2228.87 1928.2 2233.35 1934.09C2246.63 1951.56 2249.77 1976.79 2263 1995C2252.55 2007.71 2246.01 2025.08 2239.31 2040C2236.75 2045.68 2235.26 2052.9 2231.35 2057.82C2227.44 2062.73 2220.94 2065.73 2216 2069.5C2206.34 2076.88 2197.12 2084.75 2188.43 2093.25C2161.02 2120.06 2140.24 2152.77 2125.42 2188C2107.85 2229.78 2098.6 2275.53 2090.58 2320C2079.21 2382.98 2070.46 2447.08 2068.12 2511C2066.8 2547.08 2070 2582.95 2070 2619L2070 2987C2070 3083.86 2071.46 3180.65 2061.83 3277C2050.68 3388.5 2032.43 3505.63 1952.91 3591C1930.43 3615.14 1904.19 3634.02 1876 3650.8C1850.6 3665.92 1821.44 3676.49 1793 3684.15C1763.76 3692.02 1731.4 3699.98 1701 3700M2263 1995L2328 1997"/>
</svg>
