<?xml version="1.0" standalone="yes"?>
<svg width="4000" height="4500">
<path style="stroke:none;fill:none;" d="M1351 388C1351 444.307 1351.79 500.763 1350.78 557C1350.39 578.664 1350 600.325 1350 622C1350 631.273 1348.07 643.029 1350.5 652C1352.62 659.843 1358.12 667.731 1361.75 675C1369.98 691.452 1378.64 707.732 1387.22 724C1413.54 773.883 1440.53 823.552 1465.75 874C1479.02 900.532 1493.45 926.488 1506.75 953C1512.47 964.389 1519.01 983.792 1528.39 992.363C1537.76 1000.92 1554.63 1005.56 1566 1011.25C1575.31 1015.9 1591.65 1027.64 1602 1027.73C1607.04 1027.77 1613.32 1023.97 1618 1022.19C1628.92 1018.04 1640.06 1014.51 1651 1010.42C1668 1004.07 1691.95 1002.28 1707 992.297C1719.9 983.74 1730.25 969.488 1742 959.282C1766.06 938.383 1792.45 919.799 1821 905.522C1860.52 885.763 1903.34 875.292 1946 864.626C1965.76 859.687 1988.59 851.658 2009 851.129C2029.56 850.596 2054.12 859.658 2074 864.626C2122.78 876.821 2171.7 888.499 2215 915.156C2241.66 931.569 2266.05 950.667 2288.71 972.246C2300.16 983.148 2309.85 996.07 2321.42 1006.72C2327.56 1012.36 2339.22 1013.74 2347 1016.33C2365.8 1022.6 2384.58 1029.09 2403 1036.4C2409.59 1039.01 2422.81 1041.3 2427.06 1047.27C2429.82 1051.14 2430.17 1057.49 2431.42 1062C2435.01 1074.92 2437.97 1087.98 2441.13 1101C2449.66 1136.13 2456.71 1171.56 2463.8 1207C2467.29 1224.43 2468.53 1243.3 2474.68 1260C2539.34 1435.46 2568.81 1618.82 2576.96 1805C2578.68 1844.34 2577.06 1883.69 2577 1923C2576.76 2075.38 2568.53 2228.18 2538 2378C2525.95 2437.12 2511.88 2496.36 2493.97 2554C2483.84 2586.61 2469.96 2619.01 2461.48 2652C2454.14 2680.54 2451.82 2711 2446.39 2740C2441.82 2764.41 2436.9 2788.79 2431.35 2813C2428.27 2826.4 2422.44 2841.14 2423.02 2855C2423.38 2863.72 2434.31 2866.41 2441 2869.75C2458.4 2878.45 2480.34 2885.07 2495.79 2896.97C2504.87 2903.96 2511.12 2923.75 2516.25 2934C2529.91 2961.32 2544.97 2987.99 2559.22 3015C2590.59 3074.46 2621.43 3134.27 2652.26 3194C2662.1 3213.08 2672.64 3231.79 2682.25 3251C2686.13 3258.78 2692.53 3267.58 2694.58 3276C2696.54 3284.04 2695.12 3293.78 2695.01 3302C2694.79 3317.99 2695.05 3334 2695 3350C2694.84 3401 2695 3452 2695 3503M2680 411C2680 468.037 2683.81 524.975 2684 582C2684.06 601.411 2689.71 625.02 2685.61 644C2683.7 652.863 2677.29 661.919 2673.25 670L2648.25 720C2619.98 776.525 2590.52 832.46 2562.25 889C2548.52 916.454 2534.91 944.006 2520.31 971C2514.57 981.616 2510.51 996.69 2502.36 1005.61C2497.79 1010.61 2488.99 1013.25 2483 1016.25C2465.2 1025.15 2441.84 1032.68 2427 1046M1601 1030C1597.21 1055.73 1587.49 1081.57 1581.65 1107C1572.21 1148.13 1567.77 1191.47 1556.41 1232C1552.87 1244.59 1546.56 1256.71 1542.05 1269C1533.34 1292.77 1525.51 1316.93 1517.67 1341C1498.5 1399.81 1483.25 1460.36 1471.2 1521C1446.52 1645.18 1434.11 1771.69 1431.01 1898C1429.07 1977.29 1434.5 2057.05 1439.91 2136C1450.17 2285.77 1470.28 2438.85 1518 2582C1527.73 2611.18 1541.59 2639.71 1550.38 2669C1560.88 2704.01 1565.15 2742.27 1573.35 2778C1578.58 2800.78 1584.32 2823.48 1590.58 2846C1592.62 2853.36 1593.53 2866.4 1598.01 2872.49C1602.03 2877.94 1615.81 2880.11 1622 2882.42C1637.53 2888.23 1653.27 2893.42 1669 2898.67C1676.42 2901.14 1685.44 2902.46 1692 2906.85C1702.28 2913.74 1711.04 2925.31 1720.09 2933.84C1734.58 2947.52 1750.72 2959.98 1767 2971.45C1820.97 3009.46 1880.93 3027.98 1945 3040.8C1965.13 3044.83 1988.41 3053.08 2009 3052.54C2030.3 3051.99 2053.23 3044.69 2074 3040.21C2129.54 3028.22 2182.74 3013.37 2231 2982.31C2252.77 2968.29 2273.63 2952.29 2292 2934C2303.48 2922.57 2314.87 2905.88 2328.04 2896.7C2337.16 2890.35 2351.54 2888.03 2362 2884.31C2382.19 2877.12 2401.74 2867.9 2422 2861M1351 3509C1351 3450.68 1348.22 3392.3 1346.99 3334C1346.48 3310.24 1341.62 3283.54 1345.21 3260C1347.02 3248.15 1356.71 3235.84 1361.69 3225C1374.76 3196.54 1389.75 3169.01 1403.75 3141C1429.89 3088.73 1455.62 3036.27 1481.75 2984C1489.62 2968.26 1497.89 2952.74 1505.75 2937C1509.45 2929.61 1512.01 2919.55 1517.64 2913.39C1523.03 2907.49 1533.92 2904.29 1541 2900.75C1559.12 2891.69 1577.3 2881.78 1596 2874"/>
</svg>
