<?xml version="1.0" standalone="yes"?>
<svg width="4000" height="4500">
<path style="stroke:none;fill:none;" d="M2625 1755L2011 1755C2003.63 1755 1992.95 1753.04 1986 1755.6C1973.82 1760.1 1961.14 1778.86 1952 1788C1946.76 1793.24 1932.89 1812.52 1925 1811.33C1916.3 1810.02 1906.8 1802.15 1899 1798.25L1855 1776.25C1848.53 1773.01 1839.76 1770.26 1834.39 1765.36C1828.7 1760.16 1827.12 1751.09 1822.36 1745.1C1818.07 1739.7 1809.87 1737.33 1804 1734C1791.22 1726.75 1777.92 1720.31 1765 1713.31C1760.2 1710.71 1753.15 1708.38 1750.89 1702.96C1745.07 1689 1745.24 1669.91 1742.75 1655C1737.11 1621.15 1732.52 1587.05 1728.28 1553C1725.48 1530.47 1724.87 1507.53 1717.46 1486C1693.55 1416.57 1680.64 1344.87 1672.83 1272C1668.79 1234.29 1662.79 1195.92 1662.05 1158C1661.41 1124.43 1667.49 1089.41 1670.83 1056C1678.89 975.373 1692.64 896.114 1721.32 820C1756.38 726.939 1811.89 631.15 1897 575.695C1961.49 533.676 2031.3 516.399 2107 508.831C2136.92 505.84 2166.97 502.305 2197 501.039C2225.8 499.825 2256.32 505.055 2285 507.83C2395.62 518.536 2504.78 544.413 2584.42 627.83C2617.26 662.219 2645.07 700.337 2666.16 743C2674.92 760.728 2684.34 781.247 2687 801M1751 1705L1718 1738C1712.94 1743.06 1707.46 1750.74 1701 1753.97C1690.29 1759.33 1667.95 1755 1656 1755L1545 1755L1186 1755M1927 1814C1932.48 1831.34 1934.11 1851.05 1937.08 1869C1942.59 1902.29 1948.21 1935.58 1952.87 1969C1955.01 1984.34 1955.7 2001.04 1959.61 2016C1963.23 2029.89 1970.33 2043.43 1975.14 2057C1986.17 2088.13 1996.79 2119.34 2006.23 2151C2034.27 2245.07 2053.72 2341.39 2064.17 2439C2066.91 2464.67 2069.6 2490.32 2072.17 2516C2073.33 2527.62 2075.94 2540.34 2074.83 2552C2067.61 2627.92 2050.26 2701.91 2038.44 2777C2033.4 2809.04 2040.74 2845.77 2030.77 2877C2028.63 2883.71 2020.84 2889.16 2016 2894L1983 2927C1978.45 2931.55 1970.88 2936.83 1968.6 2943C1967.09 2947.11 1968 2952.68 1968 2957C1968 2961.52 1966.7 2968.52 1969.03 2972.58C1975.27 2983.43 1989.14 2993.14 1998 3002L2042 3046C2048.67 3052.67 2055.66 3062.31 2064 3066.86C2080.68 3075.96 2103.14 3076.1 2121 3082.55C2139.62 3089.26 2157.04 3104.62 2174 3114.8C2216.4 3140.24 2260.77 3163.4 2307 3180.93C2352 3198 2398.62 3204.44 2446 3211.27C2481.25 3216.35 2518.37 3223.53 2554 3223.98C2576.02 3224.26 2599.14 3219.77 2621 3217.16C2728.23 3204.32 2833.07 3163.86 2904.56 3079C2969.41 3002.03 2993.32 2891.02 3007.3 2794C3012.81 2755.76 3020.2 2716.71 3021 2678M1968 2973C1937.92 3003.08 1905.06 3031.92 1877.13 3064C1869.97 3072.23 1871.03 3084.77 1863.87 3093C1832.03 3129.57 1788.88 3158.77 1747 3182.5C1704.78 3206.42 1658.01 3223.62 1611 3235.37C1557.4 3248.78 1503.01 3254.63 1448 3257.04C1365.8 3260.64 1280.94 3256.74 1201 3234.59C1140.87 3217.93 1078.87 3190.62 1039.61 3140C1013.63 3106.5 1003.61 3062.67 994.576 3022C988.89 2996.4 978.885 2967.4 980.039 2941C981.782 2901.16 992.273 2858.39 1002.64 2820C1006.76 2804.76 1013.26 2789.85 1020.79 2776C1060.32 2703.33 1143.42 2680.77 1219 2669.58C1249.46 2665.07 1281.21 2660.16 1312 2659.46C1338.22 2658.86 1365.98 2664.73 1392 2667.84C1467.52 2676.89 1540.48 2693.99 1610 2725.31C1649.52 2743.11 1687.9 2763.79 1725 2786.2C1739.25 2794.81 1752.47 2805.55 1767 2813.62C1773.97 2817.49 1783.31 2818.43 1791 2820.37C1808.38 2824.77 1825.75 2829.4 1843 2834.29C1850.01 2836.28 1858.65 2837.25 1865 2840.93C1877.3 2848.07 1887.96 2862.96 1898 2873L1968 2943"/>
</svg>
