<?xml version="1.0" standalone="yes"?>
<svg width="4000" height="4500">
<path style="stroke:none;fill:none;" d="M2271 549C2269.84 563.571 2264.25 577.747 2261.21 592C2250.81 640.843 2236.19 688.961 2226.8 738C2223.22 756.727 2222.61 776.981 2221.09 796C2220.43 804.106 2221.47 816.696 2217.82 824C2214.2 831.232 2205.66 837.339 2200 843L2163 880C2156.23 886.77 2148.61 897.666 2140 901.972C2135.8 904.073 2129.57 903 2125 903L2092 903C2051.99 903 2010.63 899.335 1971 903.17C1917.05 908.391 1861.36 914.219 1809 928.745C1728.63 951.045 1654.11 996.562 1594 1054.04C1552.43 1093.79 1514.32 1137.97 1484.06 1187C1406.92 1312.01 1372.35 1460.35 1357.83 1605C1352.11 1661.99 1346.69 1719.67 1346 1777C1345.22 1842.64 1350.49 1908.77 1356.83 1974C1371.54 2125.34 1406.36 2276.56 1489.69 2406C1518.2 2450.28 1552.57 2490.29 1591 2526.09C1607.56 2541.51 1625.5 2561.08 1646 2571.32C1667.05 2581.84 1695.21 2584.93 1718 2590.63C1725.37 2592.47 1736.37 2592.86 1742.79 2596.99C1747.37 2599.94 1749.15 2607.3 1751.31 2612C1756.4 2623.1 1761.6 2636.1 1768.95 2645.89C1774.54 2653.32 1786.05 2651.08 1792.99 2656.42C1804.2 2665.05 1811.21 2679.77 1821 2690L1772 2739L1750.03 2762L1747.83 2778L1743.83 2818L1725.35 2899L1649 3224M2141 903C2146.01 908.011 2151.41 915.606 2158 918.486C2172.88 924.991 2191.99 920.468 2206.99 926.728C2215.9 930.449 2215.31 943.39 2224.04 947.121C2239.31 953.646 2259.72 953.769 2276 957.211C2312.84 965 2344.82 974.086 2377 994.544C2480.42 1060.3 2543.35 1174.32 2583.45 1287C2594.81 1318.91 2602.15 1352.02 2613 1384M2221 947L2177 991L2157.01 1012L2152.91 1043L2145.58 1103L2088.35 1344L1884.65 2201L1828.88 2434L1816.29 2490L1811.68 2527L1790 2550L1744 2596M2600 2286C2598.45 2301.5 2590.17 2318.58 2584.45 2333C2568.7 2372.69 2549.37 2410.84 2525.02 2446C2456.56 2544.87 2354.58 2622.1 2240 2659.48C2145.82 2690.21 2041.12 2698.81 1943 2692.09C1910.12 2689.84 1876.82 2694.29 1844 2691.17C1836.72 2690.48 1829.07 2692.09 1822 2690"/>
</svg>
