<?xml version="1.0" standalone="yes"?>
<svg width="4000" height="4500">
<path style="stroke:none;fill:none;" d="M1986 811.424C2008.84 808.425 2034.13 812.345 2057 813.911C2105.48 817.23 2153.16 821.807 2201 830.739C2548.96 895.699 2828.76 1170.52 2939.67 1502C2981.93 1628.31 2999.25 1758.67 3005.04 1891C3015.08 2120.36 2972.66 2354.69 2862.69 2558C2802.96 2668.42 2721.94 2768.77 2629 2852.83C2555.66 2919.17 2473.27 2967.68 2385 3010.76C2306.85 3048.89 2216.66 3068.58 2131 3079.71C2016.54 3094.58 1896.26 3091.34 1783 3068.55C1712.31 3054.33 1640.79 3033.2 1576 3001.03C1519.22 2972.84 1463.73 2940.58 1414 2901C1358.66 2856.94 1308.29 2807.83 1262.43 2754C1054.19 2509.58 974.159 2185.19 987.961 1870C994.934 1710.76 1028.57 1553.36 1095.31 1408C1210.23 1157.68 1432.53 945.766 1695 858.355C1759.62 836.835 1827.37 823.938 1895 817.17C1925.14 814.155 1956.03 815.36 1986 811.424M2419 2190C2412.19 2222.97 2397.51 2256.03 2382.52 2286C2350.09 2350.87 2303.4 2409.42 2243 2450.25C2182.98 2490.83 2115.08 2507.29 2044 2514.17C1968.53 2521.47 1888.69 2512.18 1818 2483.55C1690.94 2432.08 1594.26 2310.39 1553.22 2182C1497.91 2008.99 1508.13 1800.12 1606.53 1644C1657.71 1562.79 1734.54 1493.84 1823 1455.87C1860.51 1439.77 1899.72 1432.66 1940 1427.84C2057.87 1413.74 2185.23 1439.38 2276 1519.29C2321.2 1559.08 2352.99 1613.02 2376.12 1668C2384.76 1688.51 2389.6 1710.91 2399 1731"/>
</svg>
