<?xml version="1.0" standalone="yes"?>
<svg width="4000" height="4500">
<path style="stroke:none;fill:none;" d="M2734 474C2686.93 553.818 2645.77 637.507 2601.69 719C2473.3 956.363 2348.7 1195.98 2217.86 1432C2192.16 1478.37 2167.52 1525.36 2142.31 1572C2136.74 1582.31 2138 1596.71 2131.49 1606C2117.56 1625.85 2095.16 1642.84 2078 1660L2040 1698C2034.93 1703.07 2028.86 1711.87 2022 1714.4C2015.14 1716.93 2003.24 1715.57 1996 1714.94C1988.28 1714.27 1982.12 1705.12 1977 1700L1934 1657C1918.06 1641.06 1895.94 1624.83 1883.59 1606C1877.5 1596.72 1878.25 1583.14 1872.69 1573C1844.63 1521.78 1817.46 1470.07 1789.14 1419C1673.57 1210.64 1560.67 1000.58 1447.31 791C1410.34 722.651 1373.34 654.314 1336.31 586C1316.94 550.268 1299.37 511.921 1277 478M1991 1715L1913 1793C1904.12 1801.88 1891.86 1820.03 1880 1824.4C1874.59 1826.39 1866.71 1825 1861 1825L1819 1825L1677 1825L1195 1825M2024 1715L2102 1793C2110.88 1801.88 2123.15 1820.03 2135 1824.4C2140.41 1826.39 2148.29 1825 2154 1825L2195 1825L2334 1825L2804 1825M2008 1716L2008 3214M1195 2638L2804 2638"/>
</svg>
