<?xml version="1.0" standalone="yes"?>
<svg width="4000" height="4500">
<path style="stroke:none;fill:none;" d="M909 3089C910.707 3100.56 916.828 3112.26 921.293 3123C933.908 3153.35 950.343 3181.65 968.421 3209C1047.53 3328.67 1180.44 3406.35 1313 3453.69C1509.27 3523.79 1715.97 3539.02 1922 3548.04C2034.03 3552.95 2146.31 3547.74 2258 3540.09C2391.31 3530.96 2524.51 3513.05 2654 3478.88C2742.94 3455.42 2831.25 3424.36 2910 3376.06C2956.69 3347.42 3000.84 3311.58 3031.97 3266C3057.92 3228.01 3071.25 3183.06 3082.88 3139C3089.55 3113.78 3101.91 3084.22 3102.26 3058C3102.58 3034.17 3090.94 3005.94 3084.88 2983C3076.35 2950.68 3068.6 2915.48 3052.42 2886C3014.49 2816.88 2942.92 2764.83 2874 2729.26C2838.47 2710.92 2802.73 2694.07 2766 2678.28C2750.96 2671.82 2727.73 2667.91 2715.19 2657.5C2710.04 2653.24 2707.17 2645.64 2703.8 2640C2696.26 2627.37 2688.9 2614.65 2681.4 2602C2675.06 2591.31 2662.28 2577.13 2659.69 2565C2658.64 2560.07 2664.38 2553.92 2666.81 2550C2674.66 2537.33 2682.7 2524.77 2690.4 2512C2699.19 2497.43 2707.86 2482.79 2716.28 2468C2720.28 2460.99 2724.12 2450.8 2730.21 2445.42C2739.28 2437.41 2755.95 2434.47 2767 2429.72C2796.6 2416.99 2826.59 2404.97 2855 2389.69C2922.47 2353.42 2991.26 2312.41 3036.84 2249C3063.65 2211.71 3076.67 2164.61 3089.42 2121C3094.42 2103.92 3103.74 2083.83 3104.53 2066C3104.86 2058.52 3101.4 2050.13 3099.42 2043C3095.72 2029.68 3092.22 2016.3 3088.42 2003C3078.46 1968.1 3068.54 1929.48 3050.14 1898C3036.89 1875.34 3017.27 1854.83 2997 1838.31C2879.51 1742.56 2729.37 1687.62 2588 1637.31C2328.97 1545.12 2061.53 1482.7 1796 1412.88C1765.25 1404.8 1734.23 1393.23 1703 1387.46C1630.58 1374.09 1555.95 1368.78 1483 1358.27C1456.69 1354.48 1430.6 1353.03 1404 1353C1393.78 1352.99 1375.42 1356.52 1366.21 1351.69C1359.46 1348.15 1354.53 1334.45 1350.85 1328C1338.81 1306.9 1328.82 1282.96 1315.03 1263.04C1306.91 1251.31 1282.43 1244.54 1270 1237.69C1237.6 1219.86 1206.87 1199.96 1177 1178.22C1133.45 1146.51 1092.02 1102.93 1068.51 1054C1051.8 1019.21 1042.87 981.042 1032.58 944C1023.94 912.933 1008.67 873.112 1014.25 841C1027.78 763.111 1044.55 679.96 1091.92 615C1166.69 512.464 1290.22 460.229 1408 425.279C1541.79 385.58 1680.66 373.384 1819 363.911C1962.8 354.063 2107.33 357.072 2251 366.911C2360.86 374.434 2471.82 386.729 2579 413.525C2742.38 454.368 2913.78 516.82 3021.36 654C3048.4 688.479 3069.88 726.185 3085.81 767C3091.83 782.417 3099.64 800.41 3101 817M1366 1352C1345.81 1376.39 1331.39 1407.82 1315.2 1435C1309.43 1444.69 1303.97 1460.44 1294.91 1467.35C1282.1 1477.12 1261.81 1481.21 1247 1487.42C1213.21 1501.6 1179.82 1516.96 1147 1533.25C1100.4 1556.38 1054.65 1582.87 1013 1614.1C983.667 1636.1 954.817 1660.86 934.799 1692C914.389 1723.74 903.222 1765.19 891.975 1801C886.632 1818.01 880.94 1834.86 876 1852C873.825 1859.55 870.033 1868.11 869.764 1876C869.051 1896.87 880.011 1922.98 885.576 1943C892.401 1967.55 897.878 1994.01 911.254 2016C936.187 2056.98 976.428 2087.93 1016 2113.7C1086.9 2159.86 1166.34 2196.22 1246 2224.69C1341.77 2258.92 1437.3 2292.03 1535 2320.58C1704.72 2370.17 1877.49 2409.5 2049 2452.37C2112.09 2468.15 2175.11 2484.35 2238 2500.88C2268.82 2508.99 2299.64 2519.74 2331 2525.54C2386.55 2535.8 2443.97 2539.91 2500 2547.28C2552.64 2554.2 2604.82 2563.59 2658 2564"/>
</svg>
