<?xml version="1.0" standalone="yes"?>
<svg width="4000" height="4500">
<path style="stroke:none;fill:none;" d="M2332 3110C2317.74 3100 2305 3086.77 2292 3075.17C2269.8 3055.35 2247.2 3035.99 2225 3016.17C2152.79 2951.69 2080.21 2887.64 2008 2823.17C1806.33 2643.09 1601.96 2466.03 1401 2285.17C1329.91 2221.19 1257.34 2158.87 1186 2095.17C1164.68 2076.13 1143.04 2057.43 1122 2038.09C1114.43 2031.12 1103.57 2024.5 1097.84 2015.91C1092.54 2007.96 1090.08 1996.03 1087 1987C1083.16 1975.75 1077.58 1964.51 1074.71 1953C1072.68 1944.85 1080.56 1931.7 1083.31 1924C1087.71 1911.68 1090.89 1894.65 1098.51 1884C1107.53 1871.4 1123.43 1861.32 1135 1851.05C1214.71 1780.29 1294.32 1709.24 1375 1639.58C1606.87 1439.35 1836.48 1235.88 2065 1031.83C2126.66 976.782 2189.34 922.886 2251 867.834C2270.57 850.361 2290.21 832.938 2310 815.718C2317.63 809.076 2326.58 797.655 2336 793.858C2339.98 792.255 2343.94 793.821 2348 793.821C2358.39 793.821 2368.6 793.625 2379 793.957C2409.47 794.928 2440.35 794 2471 794M2971 3110C2938.35 3078.02 2902.1 3049.28 2868 3018.83C2794.37 2953.09 2719.63 2888.58 2646 2822.83C2443.87 2642.35 2239.75 2463.94 2036 2285.28C1960.86 2219.4 1886.01 2153.19 1811 2087.16C1793.99 2072.18 1776.91 2057.26 1760 2042.17C1752.43 2035.41 1742.65 2029.06 1736.5 2020.96C1731.57 2014.47 1729.72 2004.58 1726.95 1997C1721.83 1983 1712.93 1966.76 1710.95 1952C1709.8 1943.47 1716.87 1931.95 1719.66 1924C1724.33 1910.66 1727.92 1892.77 1735.82 1881.04C1744.86 1867.61 1762.89 1856.7 1775 1845.95C1849.56 1779.76 1925.63 1715.24 2000 1648.83C2214.25 1457.53 2432.03 1270.08 2648 1080.72C2718.29 1019.08 2789.26 958.099 2859 895.834C2884.19 873.343 2909.65 851.157 2935 828.845C2948.09 817.322 2960.73 804.011 2975 794M973 1950L1042 1950.82L1073 1951M1590 1950L1710 1950"/>
</svg>
