<?xml version="1.0" standalone="yes"?>
<svg width="4000" height="4500">
<path style="stroke:none;fill:none;" d="M1986 811.424C2008.82 808.427 2034.14 812.346 2057 813.911C2105 817.197 2152.7 821.033 2200 830.551C2273.81 845.402 2345.41 866.797 2414 898.309C2573.1 971.405 2710.04 1095.45 2808.97 1239C2863.8 1318.55 2903.72 1405.85 2937.42 1496C2984.41 1621.68 2999.23 1758.18 3005.04 1891C3012.34 2057.73 2992.62 2229.68 2937.66 2388C2844.49 2656.36 2643.88 2899.78 2380 3013.13C2300.68 3047.2 2216.46 3068.61 2131 3079.71C2016.56 3094.58 1896.26 3091.34 1783 3068.55C1712.52 3054.37 1640.3 3033.67 1576 3000.89C1493.13 2958.65 1416.32 2908.55 1348 2844.91C1089.78 2604.37 971.77 2241.92 986.961 1895C994.341 1726.45 1024.43 1562.37 1095.31 1408C1210.22 1157.7 1432.54 945.761 1695 858.355C1759.56 836.856 1827.37 823.719 1895 817.17C1925.14 814.251 1956.05 815.359 1986 811.424M1672 2582L1672 1663L1672 1406L1672 1334C1672 1326.15 1669.13 1311.39 1672.6 1304.32C1674.34 1300.79 1680.81 1302 1684 1302L1717 1302L1855 1302L1958 1302L2020 1302C2125.05 1302 2254.4 1305.97 2323.15 1400C2336.39 1418.11 2348.4 1436.27 2357.3 1457C2368 1481.94 2373.95 1508.36 2378.41 1535C2381.81 1555.25 2386.01 1576.42 2386.29 1597C2386.52 1613.91 2383.16 1631.24 2381.16 1648C2371.55 1728.25 2342.26 1803.67 2270 1846.8C2224.4 1874.01 2175.6 1880.26 2124 1885.17C2111.58 1886.35 2078.8 1881.88 2076.61 1900C2074.93 1913.89 2083.06 1933.28 2085.8 1947C2089.48 1965.4 2091.06 1986.51 2097.93 2004C2112.48 2041.04 2136.95 2075.38 2154.75 2111C2215.84 2233.17 2284.6 2351.61 2347.26 2473C2367.69 2512.58 2393.89 2550.89 2411 2592M1673 1887L1958 1887L2019 1887C2040.19 1887 2057.87 1886.09 2076 1899"/>
</svg>
