<?xml version="1.0" standalone="yes"?>
<svg width="4000" height="4500">
<path style="stroke:none;fill:none;" d="M1655 114L1848 114L1907 114L1937 115C1929.36 142.162 1924.48 170.437 1918.42 198C1916.14 208.419 1915.04 220.077 1911.07 230C1902.48 251.463 1887.38 272.122 1875.6 292C1855.44 326.026 1836.06 360.583 1816.58 395C1797.89 428.004 1773.36 461.055 1758.73 496C1751.51 513.221 1749.63 534.762 1745.58 553C1742.72 565.876 1735.34 582.86 1736.12 596C1736.41 600.834 1741.43 605.138 1746 605.852C1760.73 608.148 1776.13 607.568 1791 609.166C1839.87 614.418 1878.81 637.951 1902.69 682C1938.15 747.412 1946.84 824.88 1950.04 898C1953.27 971.662 1954.45 1047.46 1938.42 1120C1926.71 1173.03 1908.77 1229.74 1864 1264.49C1840.74 1282.54 1813.43 1289.02 1785 1293.75C1741.79 1300.95 1698.7 1302 1655 1302"/>
</svg>
