<?xml version="1.0" standalone="yes"?>
<svg width="4000" height="4500">
<path style="stroke:none;fill:none;" d="M1810 471C1814.09 457.193 1814.4 442.068 1818.16 428C1828.76 388.231 1848.61 349.391 1879 321.089C1913.61 288.866 1957.51 280.952 2003 278.96C2067.94 276.117 2139.66 286.295 2181.52 342C2202.41 369.79 2218.87 399.807 2229.41 433C2245.19 482.737 2245.78 539.339 2248.04 591C2252.93 702.656 2250 815.13 2250 927L2250 1064C2250 1078.16 2247.93 1091.1 2245.42 1105C2244.52 1110 2244.51 1117.51 2241.26 1121.62C2236.85 1127.2 2226.26 1130.12 2220 1133.25C2206.22 1140.14 2192.21 1146.61 2178 1152.58C2170.97 1155.53 2162.08 1157.72 2156.01 1162.42C2149.04 1167.83 2143.83 1176.41 2137.73 1182.83C2127.23 1193.89 2114.82 1204.04 2102 1212.3C2051.96 1244.54 1989.4 1256.27 1931 1248.13C1911.75 1245.45 1892.82 1242.65 1875 1234.49C1822.75 1210.57 1798.56 1153.25 1789.85 1100C1774.1 1003.58 1787.26 884.457 1855.17 809C1877.53 784.158 1904.99 765.329 1934 749.138C1990.83 717.417 2055.57 695.79 2120 686.299C2150.78 681.765 2182.1 681.111 2213 678.17C2224.18 677.105 2237.25 679.176 2248 676M2242 1123L2256.97 1139L2261.16 1175L2273 1262"/>
</svg>
