<?xml version="1.0" standalone="yes"?>
<svg width="4000" height="4500">
<path style="stroke:none;fill:none;" d="M874 299.424C886.073 297.839 898.965 300.627 911 301.831C937.755 304.507 964.371 307.892 991 311.729C1038.4 318.559 1084.57 330.684 1128 351.12C1240.86 404.227 1330.79 509.971 1372.06 627C1387.62 671.107 1394.27 716.833 1400.28 763C1404.04 791.846 1408.7 821.883 1407.99 851C1407.41 874.639 1403.68 898.487 1401.17 922C1392.55 1002.52 1375.32 1080.68 1333.4 1151C1281.22 1238.52 1191.34 1307.25 1095 1339.48C1056 1352.53 1015.68 1359.37 975 1364.72C947.253 1368.37 917.994 1373.66 890 1373.66C861.283 1373.66 831.449 1368.02 803 1364.28C681.971 1348.37 570.96 1305.12 486.09 1214C417.38 1140.23 385.61 1044.26 373.845 946C369.851 912.642 364.837 878.581 364.015 845C363.26 814.218 368.56 782.579 371.834 752C383.777 640.446 416.406 533.837 493.17 449C554.854 380.829 636.042 338.483 725 318.499C774.125 307.463 824.334 305.944 874 299.424"/>
</svg>
