<?xml version="1.0" standalone="yes"?>
<svg width="4000" height="4500">
<path style="stroke:none;fill:none;" d="M1626 381C1629.61 361.54 1628.86 340.733 1631.29 321C1638.08 265.88 1653.9 213.337 1695 174.04C1715.13 154.792 1739.75 145.565 1766 138C1775.06 135.389 1785.51 131.097 1795 130.903C1806.78 130.662 1820.74 136.06 1832 139.291C1873.13 151.095 1906.35 172.804 1930.25 209C1958.04 251.07 1964.81 310.806 1966.96 360C1971.41 461.667 1957.51 562.812 1923.31 659C1883.83 770.028 1820.58 872.672 1764.69 976C1741.28 1019.29 1718.11 1062.71 1694.69 1106C1677.52 1137.75 1658.77 1167.37 1651.6 1203C1647.73 1222.24 1636.41 1249.42 1641.32 1269C1642.55 1273.9 1647.58 1277.58 1651 1281C1655.02 1285.02 1659.53 1291.38 1665 1293.4C1677.57 1298.03 1698.59 1294 1712 1294L1930 1294"/>
</svg>
