<?xml version="1.0" standalone="yes"?>
<svg width="4000" height="4500">
<path style="stroke:none;fill:none;" d="M1821 162.982C1833.38 162.584 1849.65 171.864 1861 176.399C1873.55 181.415 1886.33 186.096 1897 194.63C1916.25 210.033 1929.52 233.043 1939.89 255C1959.37 296.258 1970.93 339.668 1981.12 384C2000.53 468.445 2002.27 556.031 2006.04 642C2008.86 706.48 2007.49 771.701 2003.09 836C1998.06 909.455 1992.02 983.141 1974.37 1055C1960.88 1109.95 1943.19 1181.49 1898 1219.56C1885.58 1230.02 1870.08 1235.74 1855 1241.32C1844.87 1245.07 1831.91 1252.49 1821 1252.64C1808.86 1252.81 1793.15 1244.06 1782 1239.6C1770.13 1234.85 1757.18 1230.47 1747 1222.54C1725.44 1205.74 1711.52 1180.48 1700.49 1156C1682.13 1115.26 1670.98 1072.49 1661.12 1029C1639.88 935.295 1636.33 838.517 1633.99 743C1630.89 616.71 1638.26 489.679 1665.58 366C1678.23 308.708 1698.07 234.438 1745 195.326C1756.45 185.78 1771.33 180.867 1785 175.399C1795.61 171.155 1809.46 163.353 1821 162.982"/>
</svg>
