<?xml version="1.0" standalone="yes"?>
<svg width="4000" height="4500">
<path style="stroke:none;fill:none;" d="M1437 427C1436.52 450.146 1429.83 474.916 1423.28 497C1420.43 506.608 1414.33 518.039 1413.9 528C1412.09 570.47 1414 613.48 1414 656L1414 916L1414 1699M2593 428L2492.42 668L2293.42 1142L1731.58 2480L1507.58 3013L1429.58 3199L1393 3287M1178 559C1255.3 559 1339.02 550.655 1413 527M2131 2291C2135.9 2228.99 2166.52 2158.01 2214 2117.3C2311.11 2034.03 2458.34 2025.65 2577 2057.42C2625.05 2070.28 2674.77 2093.94 2709.56 2130.29C2738.99 2161.03 2757.16 2201.15 2767.71 2242C2776.55 2276.22 2783.75 2315.58 2784 2351C2784.12 2368.57 2780.25 2386.58 2778.16 2404C2774.41 2435.23 2768.78 2466.09 2758.91 2496C2710.19 2643.66 2592.96 2755.04 2486 2862L2362 2986L2243 3105L2206 3142C2200.13 3147.87 2192.28 3153.78 2188.09 3161C2179.39 3175.97 2175.81 3196.57 2170.33 3213L2151.67 3269C2149.92 3274.24 2144.08 3284.7 2146.79 3290C2154.97 3306.05 2174.19 3302 2189 3302L2305 3302L2797 3302"/>
</svg>
