<?xml version="1.0" standalone="yes"?>
<svg width="4000" height="4500">
<path style="stroke:none;fill:none;" d="M2515 1692L2515 3208M1476 1700L1476 3762M1477 3037C1491.76 3037.01 1506.96 3047.25 1520 3053.75C1544.21 3065.82 1569.15 3076.48 1594 3087.15C1625.08 3100.49 1656.87 3112.75 1689 3123.33C1704.95 3128.58 1725.37 3131.04 1740 3139.14C1747.04 3143.04 1752.33 3151.32 1758.02 3156.91C1769.56 3168.24 1782.38 3178.97 1796 3187.71C1824.34 3205.91 1855.61 3214.78 1888 3222.87C1907.58 3227.77 1927.9 3233.27 1948 3235.52C1967.48 3237.7 1992.85 3229.03 2012 3225.2C2073.2 3212.96 2129.3 3194.6 2181 3158.43C2196.11 3147.86 2210.98 3136.87 2225 3124.87C2233.67 3117.45 2242.19 3107.13 2252 3101.39C2262.47 3095.27 2277.37 3092.98 2289 3089.58C2308.15 3083.97 2327.15 3077.2 2346 3070.66C2402.91 3050.9 2457.9 3026.77 2514 3005"/>
</svg>
