<?xml version="1.0" standalone="yes"?>
<svg width="4000" height="4500">
<path style="stroke:none;fill:none;" d="M1484 3605L1484 2140L1484 1666L1484 1513C1484 1488.92 1487.55 1461.77 1483.85 1438C1482.33 1428.19 1467.65 1419.52 1461.67 1412C1446.95 1393.49 1436.1 1372.39 1426.31 1351C1395.35 1283.39 1378.25 1207.8 1364.61 1135C1352.99 1073 1343.55 1010.71 1336.83 948C1333.84 920.009 1329.09 891.153 1329 863C1328.88 826.975 1335.56 789.757 1339.84 754C1348.73 679.797 1361.5 605.526 1379.63 533C1391.42 485.831 1404.94 438.756 1424.15 394C1428.77 383.236 1433.45 372.444 1438.76 362C1440.97 357.651 1443.36 351.685 1448.04 349.514C1456.51 345.587 1468.82 345.944 1478 344.845C1500.67 342.131 1523.17 341 1546 341L1739 341L1806 341C1810.46 341 1825.1 338.65 1827.4 343.318C1829.92 348.438 1828 358.357 1828 364L1828 416L1828 600L1828 1258L1828 3605"/>
</svg>
