<?xml version="1.0" standalone="yes"?>
<svg width="4000" height="4500">
<path style="stroke:none;fill:none;" d="M1059 790L1141 863.169L1344 1044.17L1930 1566.83L2171 1781.83L2245 1847.83L2280.16 1880.01L2306 1950L2339 1949.9L2430 1950M1646 793C1659.71 793 1681.15 788.886 1694 793.604C1703.05 796.925 1711.75 808.323 1719 814.576C1738.52 831.407 1757.62 848.721 1777 865.715C1845.48 925.782 1913.39 986.766 1981 1047.83C2227.91 1270.85 2478.69 1489.59 2726 1712.17C2768.76 1750.65 2812.24 1788.35 2855 1826.83C2874.53 1844.41 2895.74 1861.09 2913.96 1880.01C2925.03 1891.52 2929 1915.08 2934.31 1930C2936.21 1935.35 2937.8 1945.98 2943.13 1948.97C2949.8 1952.71 2965.34 1948.94 2973 1949.13C2997.6 1949.74 3022.25 1950 3047 1950M2942 1949C2929.56 1969.04 2930.16 1998.44 2915.61 2017C2906.39 2028.74 2892.22 2038.44 2881 2048.28C2859.19 2067.41 2837.64 2086.85 2816 2106.17C2740.61 2173.48 2664.39 2239.85 2589 2307.17C2388.38 2486.3 2185.62 2663.04 1985 2842.17C1917.54 2902.4 1849.46 2961.93 1782 3022.17C1761.02 3040.9 1740.14 3059.74 1719 3078.28C1710.62 3085.64 1701.31 3097.61 1691 3102.06C1683.36 3105.36 1671.22 3102.94 1663 3103.26C1643.75 3104 1624.25 3104.99 1605 3105M2305 1951C2298.75 1967.21 2293.35 1983.75 2287.19 2000C2284.81 2006.28 2283.31 2014.39 2279.3 2019.83C2271.93 2029.83 2259.31 2037.96 2250 2046.16C2230.32 2063.48 2210.55 2080.71 2191 2098.17C2129.53 2153.05 2067.47 2207.28 2006 2262.17C1776.69 2466.92 1547.15 2671.61 1316 2874.28C1253.68 2928.93 1192.32 2984.65 1130 3039.28C1112.62 3054.52 1095.24 3069.77 1078 3085.17C1071.11 3091.32 1062.7 3101.94 1054 3105.26C1042.74 3109.56 1024.04 3106 1012 3106L917 3106"/>
</svg>
