<?xml version="1.0" standalone="yes"?>
<svg width="4000" height="4500">
<path style="stroke:none;fill:none;" d="M1437 427C1436.77 454.926 1428.94 485.472 1420.66 512C1418.19 519.909 1416.51 533.48 1410.49 539.49C1406.95 543.021 1399.68 543.886 1395 545.116C1381.8 548.587 1368.4 551.235 1355 553.803C1299.28 564.485 1242.57 567 1186 567M2593 428C2563.23 504.73 2529.27 580.104 2497.42 656L2293.42 1142C2114.23 1569.04 1934.77 1995.96 1755.58 2423C1675.69 2613.38 1595.46 2803.62 1515.58 2994L1434.58 3187C1420.89 3219.6 1402.71 3253.03 1393 3287M1411 541C1415.9 547.812 1414 557.921 1414 566L1414 624L1414 847L1414 1699M2593 2037C2588.55 2071.44 2577.67 2106.15 2569.88 2140C2567.77 2149.2 2566.95 2169.97 2559.72 2176.35C2551.78 2183.36 2537.61 2186.9 2528 2191.31C2505.01 2201.86 2482.22 2212.96 2459 2223C2447.34 2228.04 2427.51 2233.5 2419.9 2244.02C2386.36 2290.39 2359.59 2343.77 2330.4 2393C2269.03 2496.5 2208.05 2600.4 2145.19 2703C2127.32 2732.17 2110 2761.67 2092.4 2791C2083.73 2805.45 2071.96 2820.32 2065.78 2836C2057.71 2856.47 2055.62 2880.63 2050.37 2902C2046.3 2918.58 2042.58 2935.31 2039 2952C2037.96 2956.86 2034.05 2965.27 2036.77 2969.94C2039.53 2974.68 2045.33 2974 2050 2974L2084 2974L2228 2974L2828 2974M2561 2176L2577.4 2194L2578 2216L2578 2263L2578 2463L2578 3285"/>
</svg>
