<?xml version="1.0" standalone="yes"?>
<svg width="4000" height="4500">
<path style="stroke:none;fill:none;" d="M2015 481L2015 543M2023 1364C2018.19 1384.19 2021.49 1409.21 2020.99 1430C2020.13 1464.92 2018.3 1500.15 2015.91 1535C2006.02 1679.33 1990.98 1829.07 1912.39 1955C1885.24 1998.5 1851.05 2040.54 1814 2075.96C1782.15 2106.41 1746.36 2132.96 1712 2160.45C1665.71 2197.48 1619.54 2236.68 1578.04 2279.01C1519.72 2338.51 1461.56 2399.71 1422.32 2474C1380.28 2553.59 1363.41 2642.31 1354.83 2731C1352.11 2759.1 1348.34 2787.77 1348 2816C1347.65 2845.53 1352.11 2875.71 1355.72 2905C1359.71 2937.43 1363.39 2970.32 1371.73 3002C1403.4 3122.26 1474.51 3238.05 1579 3308.48C1665.45 3366.75 1764.46 3391.92 1867 3402.17C1892.68 3404.74 1919.18 3408.3 1945 3408C1980.93 3407.57 2017.25 3402.74 2053 3399.17C2168.96 3387.57 2280.76 3356.34 2375 3285.1C2482.3 3203.99 2554.66 3077.42 2586.1 2948C2599.16 2894.26 2605.23 2839.05 2609.09 2784C2611.25 2753.13 2614.91 2721.96 2615 2691"/>
</svg>
