<?xml version="1.0" standalone="yes"?>
<svg width="4000" height="4500">
<path style="stroke:none;fill:none;" d="M1554 196L1554 535M2375 204L2375 527M1984 1247L1984 1323C1984 1329.83 1981.18 1344.96 1985.6 1350.48C1991 1357.22 2001.86 1361.59 2009 1366.33C2027.58 1378.69 2046.43 1390.62 2065 1403C2072.88 1408.25 2089.12 1414.63 2092.32 1424.01C2103.27 1456.14 2110.28 1490.23 2119.15 1523C2137.2 1589.63 2155.33 1656.24 2172.88 1723C2218.43 1896.21 2266.34 2068.79 2311.88 2242C2320.91 2276.34 2333.31 2311.06 2339.54 2346C2347.89 2392.86 2351.1 2441.66 2356.17 2489C2358.6 2511.69 2361.74 2534.31 2364.17 2557C2364.92 2564.01 2368.71 2575.25 2366.38 2582C2361.88 2595.05 2335.74 2590 2325 2590L2198 2590L1754 2590L1644 2590C1633.56 2590 1611.76 2594.17 1604.15 2585.94C1598.7 2580.05 1601.99 2570.16 1602.84 2563C1605.12 2544.01 1607.03 2524.96 1609.58 2506C1616.76 2452.58 1619.38 2398.14 1628.32 2345C1632.21 2321.89 1640.73 2298.64 1646.85 2276C1702.82 2069.08 1757.87 1861.92 1813.85 1655C1828.53 1600.74 1842.82 1546.36 1857.12 1492C1861.5 1475.31 1865.95 1458.63 1870.58 1442C1872.36 1435.59 1873.12 1426.67 1876.85 1421.1C1882.93 1412.05 1898.94 1405.57 1908 1399.66C1932.72 1383.52 1956.94 1364.87 1983 1351M1389 3276C1401.2 3216.9 1419.77 3158.38 1435.12 3100C1464.04 2990.01 1492.15 2879.78 1521.85 2770C1531.12 2735.74 1540.47 2701.42 1549.13 2667C1552.49 2653.63 1554.35 2631.2 1562.56 2620.09C1570.82 2608.93 1593.51 2596.91 1606 2591M2362 2591C2374.85 2598.15 2396.47 2608.47 2405.49 2620.09C2409.21 2624.89 2409.92 2632.26 2411.37 2638C2414.25 2649.36 2417.53 2660.63 2420.37 2672C2429.82 2709.76 2439.99 2747.36 2449.88 2785C2479.35 2897.05 2508.6 3009.17 2538.85 3121C2552.76 3172.43 2563.78 3225.27 2580 3276"/>
</svg>
