<?xml version="1.0" standalone="yes"?>
<svg width="4000" height="4500">
<path style="stroke:none;fill:none;" d="M2036 123L1743 644M1961 1241C1958.15 1267.67 1960.61 1296.15 1960.61 1323C1960.61 1331 1963.98 1348.04 1959.36 1354.82C1954.44 1362.03 1942.19 1366.88 1935 1371.67C1915.77 1384.49 1896.24 1396.86 1877 1409.67C1868.18 1415.54 1853.13 1421.23 1849.86 1432C1839.89 1464.88 1832.85 1498.77 1824.12 1532C1803.54 1610.27 1783.7 1688.73 1763.12 1767C1723.54 1917.53 1683.38 2068 1645.63 2219C1635.44 2259.76 1620.96 2300.7 1613.46 2342C1604.94 2388.99 1602.87 2437.63 1596.72 2485C1593.73 2507.96 1591.55 2531.02 1588.72 2554C1587.77 2561.64 1583.25 2575.78 1586.2 2583C1590.98 2594.74 1615.85 2590 1626 2590L1750 2590L2188 2590L2295 2590C2304.9 2590 2326.04 2594.08 2332.94 2585.94C2337.85 2580.15 2334.73 2570.91 2333.95 2564C2331.81 2544.99 2329.2 2526.02 2327.17 2507C2321.46 2453.72 2317.89 2398.72 2308.38 2346C2304.07 2322.07 2295.35 2298.58 2289.37 2275C2238.32 2073.39 2182.46 1872.76 2128.15 1672C2112.38 1613.68 2096.31 1555.41 2080.88 1497C2076.3 1479.64 2071.54 1462.33 2066.85 1445C2064.91 1437.82 2063.88 1427.13 2059.44 1421.09C2052.88 1412.19 2038.25 1405.82 2029 1399.95C2006.29 1385.53 1982.33 1371.39 1961 1355M1364 3282C1366.52 3264.88 1372.72 3247.74 1377.12 3231L1405.12 3124C1434.22 3013.3 1462.96 2902.49 1492.85 2792C1503.38 2753.06 1513.31 2713.95 1523.85 2675C1527.66 2660.91 1529.15 2637.93 1537.7 2626.09C1541.43 2620.94 1548.79 2617.81 1554 2614.33C1566.28 2606.14 1578.76 2598.26 1591 2590M2331 2591C2343.83 2598.14 2365.25 2608.62 2374.35 2620.18C2377.69 2624.43 2378.53 2630.91 2380 2636C2383.54 2648.27 2386.64 2660.65 2389.88 2673C2399.74 2710.47 2411.03 2747.54 2420.88 2785C2464.57 2951.13 2511.1 3116.75 2558 3282"/>
</svg>
