<?xml version="1.0" standalone="yes"?>
<svg width="4000" height="4500">
<path style="stroke:none;fill:none;" d="M1508 3780C1525.87 3780.77 1544.16 3784.89 1562 3786.84C1596.2 3790.58 1630.66 3792.04 1665 3793.92C1686.89 3795.12 1709.09 3795.76 1731 3796C1742.82 3796.12 1756.4 3794.06 1768 3796.38C1787.58 3800.29 1807.64 3813.33 1826 3821.15C1856.42 3834.1 1888.83 3844.48 1921 3852.12C1973.66 3864.61 2026.36 3864.39 2080 3862.04C2117.71 3860.39 2155.4 3859.75 2193 3856.17C2234.72 3852.2 2282.74 3852.46 2322 3836.14C2371.44 3815.59 2401.97 3769.11 2422.28 3722C2429.75 3704.67 2442.81 3681.04 2443.73 3662C2444.03 3655.72 2440.62 3648.85 2438.67 3643C2433.61 3627.89 2427.19 3613.32 2420.26 3599C2408.19 3574.06 2396.17 3547.81 2375 3529.18C2308.25 3470.45 2207.41 3486.43 2130 3451.89C2119.6 3447.25 2112.71 3428.54 2107.28 3419C2089.75 3388.23 2073.52 3356.5 2059.42 3324C2055.27 3314.42 2051.45 3304.7 2047.6 3295C2045.97 3290.88 2044.96 3285.7 2040.89 3283.28C2033.05 3278.61 2021.68 3276.95 2013 3274C2002.5 3270.42 1991.91 3264.51 1981 3262.47C1947.34 3256.16 1911.09 3260.14 1877 3255.71C1789.88 3244.4 1705.61 3225.66 1624 3191.99C1380.54 3091.53 1176.27 2883.9 1079.58 2639C1041.95 2543.69 1022.04 2444.28 1008.72 2343C1004.05 2307.47 998.538 2271.75 996.089 2236C994.165 2207.89 1001.09 2176.88 1004.72 2149C1011.87 2094.13 1019.53 2039.21 1030.71 1985C1049.54 1893.76 1080.75 1805.91 1123.26 1723C1153.6 1663.82 1191.73 1609.02 1234.25 1558C1272.73 1511.82 1317.48 1471.11 1365 1434.5C1481.25 1344.93 1618.64 1282.71 1762 1251.66C1897.35 1222.35 2036.29 1216.93 2174 1222.96C2373.6 1231.7 2583.2 1265.17 2746 1389.52C2801.3 1431.77 2848.67 1486.46 2887.41 1544C2919.72 1591.98 2948.16 1643.98 2969 1698M2975 2753C2943.71 2852.37 2887.37 2945.9 2812 3017.96C2692.93 3131.82 2528.85 3198.38 2369 3230.55C2297.33 3244.97 2224.81 3253.92 2152 3258.91C2130.7 3260.37 2109.3 3260.45 2088 3261.91C2081.19 3262.38 2072.45 3260.28 2066 3262.74C2057.33 3266.06 2049.47 3277.53 2043 3284"/>
</svg>
