<?xml version="1.0" standalone="yes"?>
<svg width="4000" height="4500">
<path style="stroke:none;fill:none;" d="M2041 1438L2077 1474C2081.81 1478.81 2089.99 1484.48 2092.4 1491C2096.84 1503.06 2093 1523.14 2093 1536L2093 1638L2093 1984L2093 2096C2093 2109.68 2088.88 2131.18 2093.6 2144C2095.49 2149.12 2101.25 2153.25 2105 2157L2132 2184L2105 2211C2101.25 2214.75 2095.49 2218.88 2093.6 2224C2091.32 2230.18 2093 2239.46 2093 2246L2093 2294L2093 2458L2093 2522C2093 2530.19 2095.24 2542.28 2092.4 2550C2088.72 2559.96 2071.46 2574.34 2063 2580.68C2055.64 2586.2 2038.89 2583 2030 2583L1943 2583L1608 2583L1507 2583C1498.62 2583 1477.33 2586.96 1475.49 2575C1474.22 2566.81 1478.59 2555.1 1480.2 2547C1484.1 2527.37 1487.7 2507.67 1491.39 2488C1496.45 2461 1501.7 2434.03 1506.58 2407C1509.29 2391.95 1510.78 2375.54 1515.52 2361C1526.53 2327.26 1545.9 2294.31 1560.69 2262C1639.49 2089.91 1718.9 1918.09 1797.69 1746C1822.72 1691.34 1847.61 1636.63 1872.69 1582C1879.71 1566.71 1886.85 1551.42 1893.58 1536C1897.37 1527.31 1900.78 1515.65 1906.7 1508.21C1913.04 1500.25 1927.23 1496.44 1936 1491.69C1959.77 1478.84 1983.84 1466.36 2008 1454.25C2016.77 1449.85 2033.67 1444.52 2040.06 1437.19C2042.57 1434.31 2042.48 1428.6 2043.2 1425C2045.18 1415.02 2046.88 1404.99 2048.8 1395C2055.93 1358.04 2062.68 1321 2069.61 1284C2071.61 1273.33 2073.89 1262.7 2075.75 1252C2076.74 1246.31 2077.15 1240.44 2082.05 1236.64C2105.19 1218.72 2133.58 1223 2161 1223L2323 1223L2969 1223M2132 2184L2790 2184M1089 3296C1096.43 3274.18 1108.07 3252.96 1117.69 3232C1133.87 3196.75 1149.54 3161.26 1165.69 3126C1215.19 3017.9 1263.08 2909.06 1312.69 2801C1331.3 2760.46 1349.12 2719.56 1367.69 2679C1374.32 2664.52 1380.26 2640.76 1391.39 2629.38C1398.13 2622.49 1409.63 2619.22 1418 2614.69C1437.94 2603.91 1458.19 2591.97 1479 2583M2062 2583C2070.65 2591.65 2088.14 2603.46 2092.4 2615C2096.56 2626.29 2093 2644.96 2093 2657L2093 2753L2093 3091L2093 3185C2093 3195.25 2089.42 3213.79 2094.03 3223C2098.33 3231.61 2109.23 3239.23 2116 3246C2118.94 3248.93 2121.99 3252.92 2126 3254.4C2131.15 3256.3 2138.57 3255 2144 3255L2182 3255L2311 3255L2968 3255"/>
</svg>
