<?xml version="1.0" standalone="yes"?>
<svg width="4000" height="4500">
<path style="stroke:none;fill:none;" d="M2593 428C2564.8 500.699 2532.6 572.094 2502.42 644L2293.42 1142C2115.21 1566.7 1936.79 1991.3 1758.58 2416C1677.71 2608.72 1596.44 2801.28 1515.58 2994L1434.58 3187C1420.89 3219.61 1402.71 3253.02 1393 3287M1195 435L1644 435L1689 435L1709 436.028L1734 460L1745 468.637L1774 460L1842 438M1744 471C1732.7 496.497 1725.15 524.537 1716.33 551C1712.76 561.714 1710.04 576.794 1703.49 586C1697.46 594.466 1688.38 600.817 1681 608.015C1664.11 624.49 1647.04 640.74 1630 657.039C1574.85 709.774 1518.95 762.051 1465 816C1460.55 820.454 1454.49 824.86 1451.09 830.17C1440.84 846.126 1436.68 870.969 1430.67 889C1427.65 898.043 1425.06 914.637 1418.49 921.581C1412.72 927.684 1398.78 929.077 1391 931.667C1368.36 939.205 1345.69 946.618 1323 954M1419 922L1448 951C1452.49 955.485 1457.26 962.103 1463 964.972C1472.69 969.817 1490.27 965.354 1501 966.089C1529.62 968.048 1557.96 971.02 1586 977.654C1644.3 991.447 1699.75 1025.51 1735.42 1074C1774.25 1126.8 1790.87 1190.01 1799.28 1254C1802.85 1281.15 1807.92 1309.61 1807.92 1337C1807.92 1360.72 1803.37 1385.49 1800.28 1409C1789.19 1493.38 1765.66 1576 1700 1634.83C1678.88 1653.75 1654.56 1668.16 1629 1680.22C1574.24 1706.07 1511.43 1710.44 1452 1713.04C1366.15 1716.8 1280.06 1716 1194 1716M2640 2053C2633.31 2076.76 2628.36 2101.05 2622.37 2125C2620.58 2132.19 2620.09 2147.01 2614.49 2152.19C2606.87 2159.23 2591.53 2162.92 2582 2167C2560.25 2176.32 2538.76 2186.27 2517 2195.58C2506.89 2199.91 2490 2203.97 2483.35 2213.04C2444.06 2266.58 2411.28 2326.16 2375.31 2382C2308.05 2486.42 2240.49 2590.73 2174.58 2696C2156.95 2724.15 2138.74 2751.95 2120.95 2780C2112.81 2792.83 2101.74 2806.01 2095.8 2820C2086.62 2841.66 2084.05 2868.17 2078.37 2891C2074.48 2906.66 2070.78 2922.35 2066.87 2938C2065.61 2943.05 2061.8 2952.02 2064.07 2957C2073.63 2978.04 2098.4 2973 2117 2973L2268 2973L2907 2973M2616 2153C2624.91 2161.91 2643.02 2174.13 2647.4 2186C2649.96 2192.95 2648 2203.63 2648 2211L2648 2268L2648 2459L2648 3294"/>
</svg>
