<?xml version="1.0" standalone="yes"?>
<svg width="4000" height="4500">
<path style="stroke:none;fill:none;" d="M2624 107C2620.62 132.105 2610.77 157.548 2604.15 182C2591.03 230.457 2577.73 279.01 2562.98 327C2557.75 343.979 2552.42 360.955 2547.42 378C2544.42 388.251 2542.23 400.752 2536.78 410C2523.96 431.744 2501.91 450.023 2485.42 469C2460.03 498.229 2428.04 529.968 2394 548.989C2369.95 562.429 2341.36 569.713 2315 577.424C2300 581.812 2285.13 586.689 2270 590.629C2264.02 592.185 2257.23 595.294 2251 595.211C2243.45 595.111 2235.2 591.474 2228 589.421C2211.57 584.736 2195.21 579.737 2179 574.333C2151.71 565.236 2126.22 555.085 2102 539.305C1988.46 465.331 1931.44 336.16 1831 249.131C1794.46 217.474 1752.78 197.609 1708 180.576C1689.43 173.51 1670.38 165.625 1651 161.029C1641.45 158.765 1628.21 165.345 1619 168C1593.85 175.247 1568.83 183.058 1544 191.333C1484.79 211.072 1439.54 254.724 1397.75 299.83C1383.64 315.068 1363.39 331.52 1353.67 350C1344.75 366.97 1340.8 388.672 1335.28 407C1324.15 443.937 1313.16 480.897 1302.58 518C1294.23 547.272 1285.89 576.571 1278.12 606C1274.39 620.109 1268.95 634.532 1267 649M1945 1239L1945 1324C1945 1331.67 1941.73 1349.43 1946.6 1355.62C1952.36 1362.93 1965.13 1368.5 1973 1373.42C1988.88 1383.37 2004.25 1394.16 2020 1404.31C2028.15 1409.56 2042.48 1415.27 2045.69 1425C2055.92 1456.05 2062.67 1488.51 2071.42 1520C2090.83 1589.84 2109.45 1659.9 2127.88 1730C2173.43 1903.21 2221.34 2075.79 2266.88 2249C2275.22 2280.69 2286.67 2312.75 2292.39 2345C2301.21 2394.85 2304.77 2446.65 2310.17 2497C2312.27 2516.68 2314.8 2536.34 2317.16 2556C2318.01 2563.14 2321.84 2575.16 2319.39 2582C2314.77 2594.93 2289.74 2590 2279 2590L2154 2590L1720 2590L1612 2590C1602.36 2590 1580.36 2594.06 1573.15 2586.85C1567.66 2581.37 1570.66 2571.78 1571.58 2565C1574.03 2546.73 1575.89 2528.32 1577.95 2510C1584.12 2455.04 1587.59 2398.4 1597.46 2344C1601.66 2320.86 1609.28 2297.66 1615.58 2275C1646.72 2162.93 1673.31 2049.5 1702.88 1937C1725.83 1849.73 1749.24 1762.55 1771.13 1675C1785.58 1617.2 1801.66 1559.81 1816.13 1502C1820.56 1484.29 1825.08 1466.62 1829.85 1449C1831.67 1442.27 1832.2 1432.73 1836.51 1427.09C1843.85 1417.53 1859.05 1411.29 1869 1404.67C1893.61 1388.29 1918.15 1370.34 1944 1356M1575 2590L1539 2613.95L1521.85 2626.18L1516.13 2645L1506.12 2683L1471.85 2812L1348 3282M2315 2591C2327.91 2598.16 2350.81 2608.87 2359.3 2621.04C2368.98 2634.92 2371.23 2660.65 2375.37 2677C2384.89 2714.55 2396.98 2751.42 2406.37 2789C2425.24 2864.43 2447.75 2939.09 2468.58 3014C2493.3 3102.93 2516.97 3192.15 2542 3281"/>
</svg>
