<?xml version="1.0" standalone="yes"?>
<svg width="4000" height="4500">
<path style="stroke:none;fill:none;" d="M1872 46.4243C1886.29 44.5483 1901.59 46 1916 46L2001 46C2020.47 46 2039.64 46.895 2059 48.8311C2068.81 49.8125 2080.7 49.5337 2090 52.9897C2133.45 69.1338 2174.76 105.578 2204.71 140C2291.48 239.726 2310.95 394.849 2249.89 513C2231.31 548.958 2203.16 574.838 2175 603C2130.35 647.656 2073.57 683.149 2010 691.718C1933.43 702.037 1850.99 695.842 1783 655.394C1755.78 639.202 1734.97 618.352 1712.83 596.17C1691.97 575.268 1673.68 551.302 1659.98 525C1615.09 438.835 1605.82 323.629 1643.51 233C1661.13 190.651 1686.79 155.412 1717.91 122C1743.65 94.3647 1772.21 67.3267 1808 53.0703C1827.07 45.4736 1851.93 49.0596 1872 46.4243M1945 1239L1945 1324C1945 1331.67 1941.73 1349.43 1946.6 1355.62C1952.36 1362.93 1965.13 1368.5 1973 1373.42C1988.88 1383.37 2004.25 1394.16 2020 1404.31C2028.15 1409.56 2042.48 1415.27 2045.69 1425C2055.92 1456.05 2062.67 1488.51 2071.42 1520C2090.83 1589.84 2109.45 1659.9 2127.88 1730C2173.43 1903.21 2221.34 2075.79 2266.88 2249C2275.22 2280.69 2286.67 2312.75 2292.39 2345C2301.21 2394.85 2304.77 2446.65 2310.17 2497C2312.27 2516.68 2314.8 2536.34 2317.16 2556C2318.01 2563.14 2321.84 2575.16 2319.39 2582C2314.77 2594.93 2289.74 2590 2279 2590L2154 2590L1720 2590L1612 2590C1602.36 2590 1580.36 2594.06 1573.15 2586.85C1567.66 2581.37 1570.66 2571.78 1571.58 2565C1574.03 2546.73 1575.89 2528.32 1577.95 2510C1584.12 2455.04 1587.59 2398.4 1597.46 2344C1601.66 2320.86 1609.28 2297.66 1615.58 2275C1646.72 2162.93 1673.31 2049.5 1702.88 1937C1725.83 1849.73 1749.24 1762.55 1771.13 1675C1785.58 1617.2 1801.66 1559.81 1816.13 1502C1820.56 1484.29 1825.08 1466.62 1829.85 1449C1831.67 1442.27 1832.2 1432.73 1836.51 1427.09C1843.85 1417.53 1859.05 1411.29 1869 1404.67C1893.61 1388.29 1918.15 1370.34 1944 1356M1575 2590L1539 2613.95L1521.85 2626.18L1516.13 2645L1506.12 2683L1471.85 2812L1348 3282M2315 2591C2327.91 2598.16 2350.81 2608.87 2359.3 2621.04C2368.98 2634.92 2371.23 2660.65 2375.37 2677C2384.89 2714.55 2396.98 2751.42 2406.37 2789C2425.24 2864.43 2447.75 2939.09 2468.58 3014C2493.3 3102.93 2516.97 3192.15 2542 3281"/>
</svg>
