<?xml version="1.0" standalone="yes"?>
<svg width="4000" height="4500">
<path style="stroke:none;fill:none;" d="M2015 97C2015.36 106.871 2011.29 126.187 2016.14 134.786C2019.09 140.008 2029.78 142.39 2035 144.77C2052.13 152.584 2070.41 158.92 2087 167.824C2098.83 174.177 2106.63 194.844 2113.58 206C2164.48 287.73 2215.86 369.151 2266.58 451C2298.18 502.013 2328.45 554.232 2362 604M2015 135C1998.81 146.515 1977.06 152.533 1959 160.77C1952.83 163.583 1944.32 165.709 1939.33 170.394C1926.53 182.415 1917.9 204.102 1908.58 219C1886.7 253.949 1864.73 288.84 1843.19 324C1805.24 385.939 1766.49 447.429 1727.95 509C1708.55 539.991 1684.62 570.967 1669 604M2023 1239L2023 1324C2023 1331.59 2019.73 1349.4 2024.6 1355.48C2030.22 1362.49 2041.56 1367.1 2049 1372C2067.96 1384.5 2087.1 1396.74 2106 1409.33C2114.73 1415.15 2130.48 1421.28 2133.61 1432C2157.92 1515.23 2176.84 1600.15 2198.88 1684C2246.27 1864.23 2292.49 2044.77 2339.88 2225C2350.55 2265.57 2364.07 2306.69 2371.39 2348C2379.3 2392.72 2381.73 2438.91 2387.28 2484C2390.07 2506.65 2392.34 2529.37 2395.28 2552C2396.3 2559.86 2400.82 2574.56 2397.8 2582C2392.57 2594.89 2368.03 2590 2357 2590L2234 2590L1795 2590L1688 2590C1678.41 2590 1656.96 2594.04 1650.32 2585.94C1645.79 2580.43 1648.92 2570.44 1649.72 2564C1651.88 2546.38 1654.28 2528.68 1655.93 2511C1661.05 2455.86 1665.58 2398.47 1675.46 2344C1679.31 2322.79 1687 2301.89 1692.37 2281C1746.75 2069.51 1804.1 1858.4 1862.58 1648C1877.53 1594.17 1890.62 1539.83 1905.58 1486C1909.83 1470.7 1913.64 1455.27 1918 1440C1919.71 1434.02 1920.32 1426.32 1923.84 1421.09C1930.02 1411.93 1946.65 1404.61 1956 1398.81C1978.2 1385.01 1999.16 1368.72 2022 1356M1653 2590L1616 2614.67L1599.73 2627.01L1594.29 2645L1582.63 2689L1548.12 2819L1469.88 3115L1426 3282M2393 2591C2402.23 2595.36 2410.36 2602.16 2419 2607.58C2425.03 2611.35 2433.22 2615.14 2437.44 2621.04C2446.07 2633.12 2447.95 2655.7 2451.63 2670C2460.25 2703.51 2470.16 2736.67 2479.42 2770C2507.83 2872.21 2535.01 2974.79 2563.42 3077C2575.19 3119.31 2586.66 3161.7 2598.42 3204C2605.53 3229.55 2614.62 3255.02 2620 3281"/>
</svg>
