<?xml version="1.0" standalone="yes"?>
<svg width="4000" height="4500">
<path style="stroke:none;fill:none;" d="M1501 663C1609.87 528.855 1720.15 395.722 1830.75 263C1847.59 242.802 1864.01 222.271 1880.75 202C1887.82 193.446 1894.92 181.157 1904.09 174.818C1918.67 164.732 1941.37 160.251 1958 154.05C1970.11 149.534 1986.93 139.378 2000 140.108C2013.8 140.878 2030.1 150.709 2043 155.576C2062.06 162.765 2088.28 168.061 2104.96 179.702C2116.78 187.947 2126.41 204.767 2135.4 216C2155.15 240.673 2175.3 265.006 2194.65 290C2262.06 377.083 2331.77 462.828 2401.58 548C2433.17 586.553 2462.22 627.446 2495 665M2812 3255L1715 3255L1421 3255L1343 3255C1334.66 3255 1319.21 3257.95 1312 3253.4C1297.56 3244.28 1285.08 3227.08 1273 3215C1268.19 3210.19 1260.01 3204.52 1257.6 3198C1254.1 3188.49 1257 3173.12 1257 3163L1257 3082L1257 2809L1257 1633L1257 1385L1257 1312C1257 1302.71 1254.38 1288.74 1257.6 1280C1260.01 1273.48 1268.19 1267.81 1273 1263C1285.18 1250.82 1297.06 1235.56 1311 1225.43C1318.15 1220.24 1332.52 1223 1341 1223L1416 1223L1705 1223L2813 1223M1258 2184L2555 2184"/>
</svg>
