<?xml version="1.0" standalone="yes"?>
<svg width="4000" height="4500">
<path style="stroke:none;fill:none;" d="M1507 266L1507 465M2492 266L2492 465M2812 3255L1715 3255L1421 3255L1343 3255C1334.66 3255 1319.21 3257.95 1312 3253.4C1297.56 3244.28 1285.08 3227.08 1273 3215C1268.19 3210.19 1260.01 3204.52 1257.6 3198C1254.1 3188.49 1257 3173.12 1257 3163L1257 3082L1257 2808L1257 1635L1257 1386L1257 1312C1257 1302.71 1254.38 1288.74 1257.6 1280C1260.01 1273.48 1268.19 1267.81 1273 1263C1285.26 1250.74 1297.13 1235.71 1311 1225.32C1317.73 1220.27 1331.92 1223 1340 1223L1415 1223L1703 1223L2813 1223M1258 2184L2555 2184"/>
</svg>
