<?xml version="1.0" standalone="yes"?>
<svg width="4000" height="4500">
<path style="stroke:none;fill:none;" d="M2062 148L1682 622M2796 3255L1700 3255L1406 3255L1328 3255C1319.66 3255 1304.21 3257.95 1297 3253.4C1282.56 3244.28 1270.08 3227.08 1258 3215C1253.19 3210.19 1245.01 3204.52 1242.6 3198C1239.1 3188.49 1242 3173.12 1242 3163L1242 3083L1242 2812L1242 1638L1242 1387L1242 1313C1242 1303.43 1239.29 1289 1242.6 1280C1244.75 1274.18 1251.71 1269.29 1256 1265C1266.32 1254.68 1276.32 1242.07 1288 1233.32C1294.73 1228.27 1308.92 1231 1317 1231L1392 1231L1681 1231L2790 1231M1243 2192L2548 2192"/>
</svg>
