<?xml version="1.0" standalone="yes"?>
<svg width="4000" height="4500">
<path style="stroke:none;fill:none;" d="M1059 275C1128.08 228.398 1202.82 186.838 1279 153.138C1319.8 135.089 1362.76 116.214 1407 108.464C1423.46 105.58 1442.29 108 1459 108L1564 108C1603.81 108 1646.57 103.682 1686 109.3C1706.53 112.226 1727.6 119.757 1747 126.887C1892.28 180.292 2005.3 288.349 2140 360.678C2178.64 381.426 2218.18 401.707 2260 415.41C2322.16 435.777 2388.85 445.84 2454 450.675C2481.29 452.701 2512.95 444.168 2540 440.271C2639.88 425.878 2729.61 388.61 2818 340.691C2859.66 318.106 2898.68 291.01 2940 268M2859 1309L2859 2714L2859 2934L2859 3005C2859 3016.27 2860.58 3028.86 2858.85 3040C2857.74 3047.12 2848.82 3053.18 2844 3058L2815 3087C2811.08 3090.92 2804.24 3095.65 2802.33 3101C2800.97 3104.82 2803.48 3110.11 2804 3114M1156 3169L1156 2454L1156 1982L1156 1519L1156 1429C1156 1417.51 1152.63 1399.78 1156.6 1389C1158.36 1384.25 1163.51 1380.49 1167 1377C1175.39 1368.61 1183.96 1356.94 1194 1350.6C1201.75 1345.71 1219.01 1349 1228 1349C1246.43 1349 1260.27 1356.44 1277 1363.58C1301.03 1373.83 1325.18 1383.96 1349 1394.69C1387.37 1411.99 1426.35 1428.04 1465 1444.72C1479.78 1451.1 1502.34 1456.35 1514.62 1466.7C1520.95 1472.04 1525.41 1482.12 1530 1489C1541.68 1506.52 1552.84 1524.37 1564.34 1542C1602.18 1599.95 1639.27 1658.41 1677.67 1716C1867.65 2000.98 2051.49 2290.06 2240 2576C2298.24 2664.35 2356.01 2753.04 2413.31 2842C2432.3 2871.48 2451.55 2900.82 2471 2930C2478.91 2941.86 2486.36 2959.27 2497.18 2968.58C2504.91 2975.23 2517.77 2978.14 2527 2982.31C2549.2 2992.31 2571.66 3001.74 2594 3011.42C2638.02 3030.52 2682.11 3049.47 2726 3068.86C2750.19 3079.55 2775.5 3094.03 2801 3101"/>
</svg>
