<?xml version="1.0" standalone="yes"?>
<svg width="4000" height="4500">
<path style="stroke:none;fill:none;" d="M1554 1817C1554 1576.77 1555 1336.32 1555 1096L1555 658L1555 545C1555 534.135 1550.66 510.887 1557.32 502C1572.39 481.883 1603.33 489 1626 489L1813 489C1890.59 489 1967.72 490.615 2045 495.911C2137.58 502.254 2229.94 515.02 2316 551.873C2375.15 577.204 2430 611.97 2478 654.834C2508.44 682.018 2537.52 711.882 2561.57 745C2671.22 895.939 2729.93 1082.21 2768.21 1263C2815.32 1485.48 2830.57 1715.12 2825.01 1942C2821.06 2103.6 2809.95 2264.75 2780.26 2424C2758.06 2543.08 2726.45 2659.41 2681.45 2772C2649.82 2851.12 2611 2928.19 2557.55 2995C2525.88 3034.59 2489.45 3070.53 2449 3101.1C2272.22 3234.73 2039.13 3239 1827 3239L1663 3239L1612 3239C1604.54 3239 1595.24 3240.5 1588 3238.68C1581.39 3237.03 1575.64 3228.64 1571 3224C1566.19 3219.19 1558.01 3213.52 1555.6 3207C1553.04 3200.05 1555 3189.37 1555 3182L1555 3126L1555 2775L1555 2053L1555 1876L1555 1833C1555 1829.37 1556.6 1820.56 1553.4 1818.03C1548.71 1814.32 1533.85 1817 1528 1817L1456 1817L1178 1817M1556 1817L1993 1817"/>
</svg>
