<?xml version="1.0" standalone="yes"?>
<svg width="4000" height="4500">
<path style="stroke:none;fill:none;" d="M1934 149L1978.48 205L2056.63 303L2314 626M2812 3255L1715 3255L1421 3255L1343 3255C1334.66 3255 1319.21 3257.95 1312 3253.4C1297.56 3244.28 1285.08 3227.08 1273 3215C1268.19 3210.19 1260.01 3204.52 1257.6 3198C1254.1 3188.49 1257 3173.12 1257 3163L1257 3082L1257 2809L1257 1633L1257 1385L1257 1312C1257 1302.71 1254.38 1288.74 1257.6 1280C1260.01 1273.48 1268.19 1267.81 1273 1263C1285.18 1250.82 1297.06 1235.56 1311 1225.43C1318.15 1220.24 1332.52 1223 1341 1223L1416 1223L1705 1223L2813 1223M1258 2184L2555 2184"/>
</svg>
