<?xml version="1.0" standalone="yes"?>
<svg width="4000" height="4500">
<path style="stroke:none;fill:none;" d="M1619 482C1646.54 453.224 1671.37 421.265 1697.27 391C1751.8 327.293 1806.22 263.486 1861 200C1875.91 182.716 1890.77 165.377 1905.58 148C1912.97 139.33 1920.53 127.099 1930 120.702C1939.36 114.386 1953.36 111.386 1964 107.657C1971.39 105.067 1979.12 100.73 1987 100.093C2011.55 98.1104 2030.36 106.225 2053 114.308C2061.62 117.385 2073.73 119.732 2080.96 125.419C2089.5 132.141 2096.38 142.736 2103.42 151C2117.85 167.931 2132.19 184.904 2146.41 202C2196.84 262.586 2247.7 322.791 2298.58 383C2326.3 415.818 2351.91 451.279 2382 482M2007 1231L2007 3246"/>
</svg>
