<?xml version="1.0" standalone="yes"?>
<svg width="4000" height="4500">
<path style="stroke:none;fill:none;" d="M1214 496C1269.27 493.933 1324.87 487.739 1380 483.229C1394.61 482.033 1409.37 480.703 1424 480.039C1430.71 479.735 1440.84 480.711 1447 478.062C1455.38 474.461 1463.04 465.865 1470 460.081C1484.39 448.125 1499.13 436.23 1514 424.884C1573.27 379.658 1630.89 331.912 1689 285.196C1744.26 240.772 1799.86 196.766 1855 152.197C1880.26 131.778 1906.41 102.721 1941 101.04C1971.84 99.5415 2003.12 101 2034 101C2053.34 101 2073.68 98.6953 2092 106.129C2105.34 111.541 2117.81 125.446 2129 134.399C2154.27 154.612 2179.73 174.585 2205 194.8C2285.6 259.282 2366.4 323.517 2447 388L2524 449.6C2535.88 459.104 2548.36 472.556 2562 479.312C2576.52 486.502 2601.93 482.914 2618 484.229C2667.78 488.301 2718.42 488.734 2768 495M1187 1309L1187 1917C1187 2054.68 1184.94 2192.63 1190.96 2330C1199.76 2531.03 1209.77 2747.92 1312.5 2927C1391.69 3065.04 1532.97 3155.35 1684 3197.25C1747.15 3214.78 1811.01 3221.98 1876 3228.17C1914.15 3231.8 1953.65 3235.92 1992 3234.99C2037.92 3233.86 2084.27 3229.6 2130 3225.17C2234.11 3215.09 2334.31 3194.5 2430 3150.69C2541.85 3099.48 2638.9 3020.6 2701.69 2914C2801.68 2744.25 2814.64 2533.91 2823.04 2342C2829.48 2194.93 2828 2047.42 2828 1900L2828 1310"/>
</svg>
