<?xml version="1.0" standalone="yes"?>
<svg width="4000" height="4500">
<path style="stroke:none;fill:none;" d="M2851 246C2831.61 279.342 2816.79 316.934 2800.69 352C2769.47 419.99 2736.74 487.349 2704.78 555C2687.11 592.408 2671.43 631.755 2651.47 667.985C2646.2 677.549 2628.42 682.506 2619 687.248C2604.35 694.624 2593.46 708.537 2582 720C2577.82 724.178 2570.36 729.314 2568.33 735C2566.79 739.309 2569.87 745.456 2569.99 750C2570.32 763.649 2570 777.347 2570 791C2570 837.517 2567.99 884.534 2570.04 931C2570.61 943.939 2575.06 957.315 2577.6 970C2578.52 974.581 2581.33 981.561 2579.11 986C2576.43 991.335 2570.18 995.825 2566 1000C2547.12 1018.88 2522.15 1028.31 2499 1041.14C2490.23 1046 2475.87 1049.78 2470.82 1059.02C2448.71 1099.53 2431.96 1144.04 2412.69 1186C2371.12 1276.56 2330.18 1367.4 2288.69 1458C2190.18 1673.15 2090.41 1887.83 1994.14 2104C1946.28 2211.47 1896.29 2318.03 1847.31 2425C1813.14 2499.62 1782.57 2577.12 1744.82 2649.98C1739.99 2659.3 1724.92 2663.65 1716 2668.26C1698.29 2677.4 1680.43 2686.48 1663 2696.14C1653.37 2701.48 1643.94 2705.11 1636 2713C1630.93 2718.04 1619.73 2725.67 1618.41 2733C1617.22 2739.6 1620.9 2749.44 1622.2 2756C1625.73 2773.76 1631.03 2791.99 1632.83 2810C1637.23 2854.05 1633 2900.7 1633 2945C1633 2963.01 1628.94 2988.53 1638.3 3004.89C1642.14 3011.59 1656.21 3014.86 1663 3017.86C1679.9 3025.33 1696.96 3032.42 1714 3039.58C1721.58 3042.76 1731.7 3044.68 1737.91 3050.22C1748.51 3059.69 1756.96 3071.91 1767 3082C1797.5 3112.65 1828.49 3141.5 1865 3164.91C1918.6 3199.28 1977.85 3213.12 2040 3222.27C2060.3 3225.26 2082.45 3231.02 2103 3230.54C2144.95 3229.57 2191.2 3220.29 2232 3210.76C2308.2 3192.97 2373.08 3149.51 2429 3096.04C2511.5 3017.15 2574.59 2915.12 2622.31 2812C2725.32 2589.37 2774.41 2344.56 2791.09 2101C2796.5 2021.95 2802.99 1942.32 2802.99 1863C2802.99 1756.48 2795.28 1647.7 2782.29 1542C2766.97 1417.37 2744.36 1295.26 2711.16 1174C2701.15 1137.45 2690.54 1100.27 2676.6 1065C2672.48 1054.58 2670.46 1037.98 2663.3 1029.38C2658.02 1023.04 2647.14 1019.99 2640 1016.22C2620.53 1005.95 2600 997.091 2581 986M1618 2731C1600.27 2725.89 1582.06 2713.48 1566 2704.42C1559.85 2700.96 1551.17 2698.25 1546.5 2692.79C1538.53 2683.47 1536.84 2665.44 1532.92 2654C1521.25 2619.92 1512.44 2584.85 1503.52 2550C1460.77 2382.9 1442.66 2212.48 1430.91 2041C1415.22 1811.92 1429.8 1579.95 1470.54 1354C1500.67 1186.88 1550.46 1018.16 1633.14 869C1686.75 772.282 1751.72 675.605 1843 610.558C1876.16 586.93 1912.73 567.718 1952 556.559C1976.31 549.652 2002.13 546.071 2027 541.75C2052.84 537.261 2080.69 530.371 2107 531.015C2125.57 531.469 2144.64 536.024 2163 538.729C2195.99 543.588 2229.98 548.974 2262 558.366C2316.02 574.208 2366.87 604.166 2409 641.184C2422.82 653.328 2435.98 665.963 2449 679C2454.25 684.255 2458.83 692.123 2465.04 696.157C2472.78 701.185 2484.28 703.317 2493 706.344C2516.46 714.489 2546.46 721.961 2567 736M1638 3006C1622.97 3021.03 1608.28 3039.99 1591 3052.36C1579.63 3060.5 1559.28 3063.46 1550.97 3075.1C1544.44 3084.25 1541.02 3096.84 1536.22 3107C1524.46 3131.89 1513.18 3156.98 1501.69 3182C1470.68 3249.53 1438.32 3316.47 1407.31 3384C1389.91 3421.89 1375.01 3463 1354 3499"/>
</svg>
