<?xml version="1.0" standalone="yes"?>
<svg width="4000" height="4500">
<path style="stroke:none;fill:none;" d="M1553 1C1566.5 6.80762 1581.87 9.6499 1596 13.709C1623.65 21.6558 1651.33 29.5322 1679 37.4214L1921 106.579C1951 115.133 1981.01 123.674 2011 132.291C2024.39 136.138 2041.97 138.172 2054 145.228C2070.27 154.771 2084.69 173.691 2098.09 186.915C2120.19 208.735 2142.9 230.032 2165.28 251.561C2222.41 306.51 2280.01 361.003 2336.83 416.285C2369.32 447.902 2401.16 480.813 2435 511M1187 1309L1187 1917C1187 2054.68 1184.94 2192.63 1190.96 2330C1199.76 2531.01 1209.77 2747.94 1312.5 2927C1386.92 3056.72 1519.02 3148.08 1661 3190.56C1731.76 3211.73 1802.77 3221.2 1876 3228.17C1914.15 3231.8 1953.65 3235.92 1992 3234.99C2034.23 3233.95 2076.94 3230.24 2119 3226.17C2225.94 3215.82 2330.89 3197.56 2429 3151.22C2541.12 3098.26 2638.17 3021.85 2701.69 2914C2801.68 2744.25 2814.64 2533.9 2823.04 2342C2829.48 2194.93 2828 2047.42 2828 1900L2828 1310"/>
</svg>
