<?xml version="1.0" standalone="yes"?>
<svg width="4000" height="4500">
<path style="stroke:none;fill:none;" d="M1562 211L1562 520M2422 212L2422 519M1974 1231.42C1995.09 1228.65 2018.77 1232.03 2040 1232.96C2081.43 1234.77 2122.69 1236.7 2164 1240.83C2226.11 1247.04 2287.72 1259.67 2346 1282.46C2385.73 1298 2422.83 1318.05 2459 1340.57C2713.81 1499.29 2816.74 1810.56 2844.17 2094C2849.28 2146.76 2855.63 2200.96 2855 2254C2854.22 2319.15 2847.99 2386.42 2839.29 2451C2827.16 2541.02 2808.78 2629.35 2777.7 2715C2717.99 2879.5 2612.55 3017.41 2469 3117.72C2386.24 3175.55 2291.26 3217.93 2191 3232.7C2100.2 3246.08 2007.4 3248.04 1916 3244.04C1845.76 3240.96 1775.38 3234.63 1707 3217.49C1626.98 3197.42 1548.47 3157.33 1483 3107.35C1418.8 3058.33 1361.55 3000.65 1314.43 2935C1212.7 2793.29 1163.01 2616.49 1143.83 2445C1137.05 2384.42 1130.51 2322.97 1129.01 2262C1128.06 2222.92 1132.24 2183.9 1134.91 2145C1142.29 2037.38 1158.63 1931.95 1188.09 1828C1235.29 1661.48 1324.52 1495.35 1459 1383.44C1551.23 1306.68 1659.62 1260.36 1778 1243.3C1822.06 1236.95 1867.61 1234.98 1912 1233.04C1932.39 1232.15 1953.78 1234.08 1974 1231.42"/>
</svg>
