<?xml version="1.0" standalone="yes"?>
<svg width="4000" height="4500">
<path style="stroke:none;fill:none;" d="M2690 59C2673.45 109.854 2656.62 160.62 2638.69 211C2631.4 231.492 2626.37 257.298 2614.93 275.83C2608.53 286.189 2595.93 294.093 2587 302.17C2562.47 324.358 2536.93 345.038 2510 364.271C2475.65 388.802 2439.93 406.394 2399 416.626C2377.14 422.092 2355.1 427.173 2333 431.6C2323.63 433.477 2312.59 437.431 2303 436.674C2287.03 435.414 2270.62 430.874 2255 427.424C2227.55 421.363 2200.12 414.894 2174 404.33C2123.01 383.707 2075.77 349.236 2035 312.826C2003.11 284.354 1974.9 251.584 1944 222.04C1903.97 183.767 1856.02 146.864 1805 124.485C1789.84 117.837 1773.43 111.009 1757 108.325C1733.89 104.549 1707.44 108 1684 108L1616 108C1604.42 108 1591.37 106.34 1580 108.666C1494.11 126.239 1417.78 192.171 1355 250M1938 1216.42C1977.35 1211.26 2020.55 1216.23 2060 1217.96C2127.2 1220.9 2195.62 1224.91 2260 1246.35C2363 1280.66 2452.03 1341.35 2531 1414.91C2633.72 1510.6 2714.88 1630.91 2765.06 1762C2810.65 1881.06 2834.08 2002.47 2846.17 2129C2849.92 2168.23 2854.82 2208.59 2854.82 2248C2854.82 2271.58 2851.7 2295.48 2850.09 2319C2847.07 2363.02 2843.73 2407.32 2837.3 2451C2816.38 2593 2777.83 2734.31 2702.54 2858C2648.19 2947.28 2579.4 3022.61 2499 3089.08C2451.72 3128.16 2398.84 3161.02 2344 3188.25C2271.97 3224.01 2194.53 3246.25 2115 3256.71C2007.18 3270.89 1898.79 3267.06 1792 3246.54C1719.38 3232.58 1650.04 3202.68 1586 3166.42C1386.8 3053.64 1250.55 2860.69 1186.23 2644C1160.18 2556.25 1146.62 2466.84 1137.83 2376C1133.95 2335.92 1130 2295.24 1129.01 2255C1127.97 2212.41 1133.94 2169.43 1136.91 2127C1148.53 1961.18 1190.65 1796.61 1270.31 1650C1312.43 1572.48 1364.91 1503.41 1424.91 1439C1472.91 1387.47 1528.09 1341.25 1588 1304.06C1652.36 1264.11 1723.94 1236.03 1799 1225.3C1845.01 1218.72 1892.16 1222.44 1938 1216.42"/>
</svg>
