<?xml version="1.0" standalone="yes"?>
<svg width="4000" height="4500">
<path style="stroke:none;fill:none;" d="M2086 125L2029.56 203L1909.73 368L1821.91 489L1778 549M1938 1216.42C1977.35 1211.26 2020.55 1216.23 2060 1217.96C2127.2 1220.9 2195.62 1224.91 2260 1246.35C2363 1280.66 2452.03 1341.35 2531 1414.91C2633.72 1510.6 2714.88 1630.91 2765.06 1762C2810.65 1881.06 2834.08 2002.47 2846.17 2129C2849.92 2168.23 2854.82 2208.59 2854.82 2248C2854.82 2271.58 2851.7 2295.48 2850.09 2319C2847.07 2363.02 2843.73 2407.32 2837.3 2451C2816.38 2593 2777.83 2734.31 2702.54 2858C2648.19 2947.28 2579.4 3022.61 2499 3089.08C2451.72 3128.16 2398.84 3161.02 2344 3188.25C2271.97 3224.01 2194.53 3246.25 2115 3256.71C2007.18 3270.89 1898.79 3267.06 1792 3246.54C1719.38 3232.58 1650.04 3202.68 1586 3166.42C1386.8 3053.64 1250.55 2860.69 1186.23 2644C1160.18 2556.25 1146.62 2466.84 1137.83 2376C1133.95 2335.92 1130 2295.24 1129.01 2255C1127.97 2212.41 1133.94 2169.43 1136.91 2127C1148.53 1961.18 1190.65 1796.61 1270.31 1650C1312.43 1572.48 1364.91 1503.41 1424.91 1439C1472.91 1387.47 1528.09 1341.25 1588 1304.06C1652.36 1264.11 1723.94 1236.03 1799 1225.3C1845.01 1218.72 1892.16 1222.44 1938 1216.42"/>
</svg>
