<?xml version="1.0" standalone="yes"?>
<svg width="4000" height="4500">
<path style="stroke:none;fill:none;" d="M1613 515C1700.4 427.6 1789.99 341.631 1880 256.911C1907.64 230.904 1934 203.535 1961.71 177.615C1972.14 167.861 1982.13 154.472 1994.17 146.804C2007.19 138.514 2028.19 136.547 2043 132.291C2079.61 121.77 2116.39 111.812 2153 101.291C2228.56 79.5791 2304.38 58.7769 2380 37.29L2458 15.29C2472.71 11.1094 2487.86 5.22803 2503 3M1187 1309L1187 1917C1187 2054.68 1184.94 2192.63 1190.96 2330C1199.76 2531.03 1209.77 2747.92 1312.5 2927C1391.69 3065.04 1532.98 3155.35 1684 3197.25C1747.18 3214.78 1811.01 3221.98 1876 3228.17C1914.15 3231.8 1953.65 3235.92 1992 3234.99C2037.92 3233.86 2084.27 3229.6 2130 3225.17C2234.12 3215.09 2334.31 3194.51 2430 3150.69C2541.85 3099.48 2638.9 3020.6 2701.69 2914C2801.68 2744.25 2814.64 2533.91 2823.04 2342C2829.48 2194.93 2828 2047.42 2828 1900L2828 1310"/>
</svg>
