<?xml version="1.0" standalone="yes"?>
<svg width="4000" height="4500">
<path style="stroke:none;fill:none;" d="M1715 533C1803.27 444.728 1888.6 353.176 1974.96 263C1999.89 236.971 2025.21 211.248 2049.91 185.004C2062.72 171.388 2075.71 153.308 2091 142.513C2101.76 134.918 2120.42 132.844 2133 128.976C2166.94 118.539 2200.99 108.482 2235 98.2803C2308.03 76.3716 2380.97 54.189 2454 32.2803C2486.99 22.3843 2521.96 7.02637 2556 2M1321 1216C1338.11 1252.6 1364.49 1286.78 1385.95 1321C1424.49 1382.46 1462.08 1444.51 1500.58 1506C1620.53 1697.61 1740.84 1889.44 1857.6 2083C1864.26 2094.04 1871.16 2104.94 1877.8 2116C1880.96 2121.27 1884.01 2128.37 1889.1 2132.03C1907.15 2145.01 1931.8 2148.99 1951 2160.21C1963.75 2167.66 1974.59 2182.59 1985 2193C1991.6 2199.6 2004.12 2208.12 2007.4 2217C2010.15 2224.46 2008 2236.08 2008 2244L2008 2303L2008 2504L2008 3184M2694 1216L2319.42 1821L2198.2 2017L2152.42 2091L2128.21 2129.79L2109 2139.86L2065 2159.41L2045 2178L2008 2215"/>
</svg>
