<?xml version="1.0" standalone="yes"?>
<svg width="4000" height="4500">
<path style="stroke:none;fill:none;" d="M2421 575L2421 872M1500 576L1500 871M1411 1715C1427.79 1704.83 1447.58 1698.04 1466 1691.46C1495.97 1680.75 1526 1670.87 1557 1663.5C1689.99 1631.87 1825.93 1630 1962 1630C2047.99 1630 2137.66 1627.57 2222 1646.5C2311.89 1666.67 2406.51 1706.36 2457.1 1788C2500.33 1857.75 2508.44 1944.13 2516.17 2024C2523.61 2100.86 2522.85 2177.74 2522.85 2255L2523 2496L2523 2929L2523 3024C2523 3035.76 2526.47 3053.96 2522.4 3065C2519.4 3073.12 2507.45 3082.25 2501 3087.87C2490.38 3097.11 2469.35 3098.88 2456 3102.71C2427.9 3110.77 2399.45 3118.37 2371 3125.12C2356.94 3128.45 2340.17 3130.1 2327 3136.04C2306.53 3145.26 2287.55 3160.39 2268 3171.57C2237.43 3189.06 2204.72 3203.85 2172 3216.8C2082.15 3252.36 1989.58 3264.54 1894 3271.09C1865.62 3273.03 1836.45 3276.54 1808 3275.98C1720 3274.25 1630.07 3255.38 1558 3202.4C1469.93 3137.65 1434.63 3031.49 1418.58 2928C1412.13 2886.44 1404.18 2842.09 1404.18 2800C1404.18 2770.65 1409.89 2740.08 1413.72 2711C1429.51 2590.9 1472.67 2479.47 1564.17 2396.58C1585.95 2376.84 1610.65 2359.81 1636 2345.01C1753.87 2276.19 1890.88 2263.79 2024 2257.96C2189.5 2250.72 2356.19 2255 2522 2255M2523 3067C2528.07 3072.07 2535.5 3077.42 2538.57 3084C2544.41 3096.56 2543.21 3113.57 2547.52 3127C2562.26 3172.9 2575.14 3221.04 2586 3268"/>
</svg>
