<?xml version="1.0" standalone="yes"?>
<svg width="4000" height="4500">
<path style="stroke:none;fill:none;" d="M1265 3208L1265 1451C1265 1369.98 1266.38 1288.74 1271.91 1208C1285.22 1013.71 1305.15 803.715 1449.01 656.999C1508.22 596.624 1581.72 548.637 1663 524.438C1715.99 508.661 1773.11 504.69 1828 500.911C2013.77 488.121 2208.59 527.677 2347 660.039C2434.57 743.779 2482.33 862.487 2502.75 980C2508.69 1014.17 2513.05 1048.6 2517.28 1083C2519.5 1101 2522.99 1119.86 2522.99 1138C2522.99 1168.31 2516.59 1200.03 2512.27 1230C2496.93 1336.46 2466.13 1433.14 2398.99 1519C2364.36 1563.28 2324.16 1603.97 2278 1636.28C2263.68 1646.31 2248.7 1656.38 2233 1664.14C2224.8 1668.19 2210.92 1671.79 2204.64 1678.42C2197.03 1686.45 2192.69 1701.12 2187.75 1711C2176.63 1733.25 2164.64 1756.84 2150 1777C2167.28 1797.27 2179.85 1823.14 2193.4 1846C2198.23 1854.16 2202.7 1867.5 2210.21 1873.44C2215.29 1877.45 2224.82 1878.77 2231 1880.49C2241.47 1883.4 2251.7 1887.87 2262 1891.36C2291.57 1901.36 2321.58 1915.29 2349 1930.18C2469.93 1995.83 2576.29 2086.22 2643.56 2208C2686.95 2286.53 2709.55 2369.72 2722.27 2458C2728.16 2498.9 2734.22 2540.73 2735.96 2582C2737.61 2621.14 2730.33 2663.06 2726.17 2702C2710.39 2849.32 2669.06 2996.57 2557 3100.91C2522.49 3133.04 2482.11 3158.83 2440 3179.75C2344.84 3227.03 2236.53 3239.46 2132 3244.04C2022.58 3248.83 1912.66 3247 1803 3247M1898 1778L2150 1777"/>
</svg>
