<?xml version="1.0" standalone="yes"?>
<svg width="4000" height="4500">
<path style="stroke:none;fill:none;" d="M1313 686C1379.16 635.641 1441.05 580.454 1519 548.282C1544.29 537.844 1571.28 532.946 1598 527.6C1619.05 523.388 1644.5 514.875 1666 516.093C1683.96 517.111 1702.44 522.057 1720 525.789C1749.28 532.015 1778.27 538.582 1806 550.142C1843.58 565.812 1878.49 589.414 1911 613.608C1963.89 652.969 2007.45 703.554 2058 745.674C2123.93 800.615 2196.93 839.598 2281 857.003C2300.82 861.108 2323.69 868.339 2344 867.946C2364.17 867.556 2386.36 861.088 2406 856.65C2439.03 849.187 2471.13 843.263 2502 828.702C2570.61 796.335 2628.72 745.462 2687 698M1411 1715C1427.79 1704.83 1447.58 1698.04 1466 1691.46C1495.93 1680.77 1525.98 1670.66 1557 1663.5C1690.11 1632.79 1824.94 1630 1961 1630C2047.32 1630 2137.33 1627.5 2222 1646.5C2312.06 1666.71 2406.28 1706.42 2457.1 1788C2500.44 1857.58 2508.45 1944.24 2516.17 2024C2523.61 2100.86 2522.85 2177.74 2522.85 2255L2523 2497L2523 2930L2523 3024C2523 3035.76 2526.47 3053.96 2522.4 3065C2519.4 3073.12 2507.45 3082.25 2501 3087.87C2490.38 3097.11 2469.35 3098.88 2456 3102.71C2427.9 3110.77 2399.45 3118.37 2371 3125.12C2356.94 3128.45 2340.17 3130.1 2327 3136.04C2306.54 3145.26 2287.56 3160.39 2268 3171.57C2237.71 3188.9 2205.33 3203.34 2173 3216.4C2083.22 3252.65 1989.71 3264.53 1894 3271.09C1778.78 3278.98 1654.43 3275.94 1558 3202.48C1470.49 3135.81 1434.82 3032.75 1418.58 2928C1412.13 2886.43 1404.18 2842.1 1404.18 2800C1404.18 2770.64 1409.89 2740.1 1413.72 2711C1429.51 2590.89 1472.67 2479.46 1564.17 2396.58C1585.95 2376.84 1610.65 2359.81 1636 2345.01C1753.89 2276.18 1890.85 2263.79 2024 2257.96C2189.5 2250.72 2356.19 2255 2522 2255M2523 3067L2538.57 3084L2547.75 3128L2586 3268"/>
</svg>
