<?xml version="1.0" standalone="yes"?>
<svg width="4000" height="4500">
<path style="stroke:none;fill:none;" d="M2097 346L1739 810M1411 1715C1427.79 1704.83 1447.58 1698.04 1466 1691.46C1495.93 1680.77 1525.98 1670.66 1557 1663.5C1690.11 1632.79 1824.94 1630 1961 1630C2047.32 1630 2137.33 1627.5 2222 1646.5C2312.06 1666.71 2406.28 1706.42 2457.1 1788C2500.44 1857.58 2508.45 1944.24 2516.17 2024C2523.61 2100.86 2522.85 2177.74 2522.85 2255L2523 2497L2523 2930L2523 3024C2523 3035.76 2526.47 3053.96 2522.4 3065C2519.4 3073.12 2507.45 3082.25 2501 3087.87C2490.38 3097.11 2469.35 3098.88 2456 3102.71C2427.9 3110.77 2399.45 3118.37 2371 3125.12C2356.94 3128.45 2340.17 3130.1 2327 3136.04C2306.54 3145.26 2287.56 3160.39 2268 3171.57C2237.71 3188.9 2205.33 3203.34 2173 3216.4C2083.22 3252.65 1989.71 3264.53 1894 3271.09C1778.78 3278.98 1654.43 3275.94 1558 3202.48C1470.49 3135.81 1434.82 3032.75 1418.58 2928C1412.13 2886.43 1404.18 2842.1 1404.18 2800C1404.18 2770.64 1409.89 2740.1 1413.72 2711C1429.51 2590.89 1472.67 2479.46 1564.17 2396.58C1585.95 2376.84 1610.65 2359.81 1636 2345.01C1753.89 2276.18 1890.85 2263.79 2024 2257.96C2189.5 2250.72 2356.19 2255 2522 2255M2523 3067L2538.57 3084L2547.75 3128L2586 3268"/>
</svg>
