<?xml version="1.0" standalone="yes"?>
<svg width="4000" height="4500">
<path style="stroke:none;fill:none;" d="M1216 202L1424 202M2466 202L2658 202M1187 1309L1187 1917C1187 2054.68 1184.94 2192.63 1190.96 2330C1199.76 2530.99 1209.79 2747.97 1312.5 2927C1387.54 3057.8 1519.51 3147.21 1662 3190.79C1735.68 3213.33 1811.39 3223.81 1888 3229.09C1921.86 3231.42 1956.02 3235.4 1990 3235C2032.51 3234.49 2075.67 3230.21 2118 3226.17C2216.73 3216.74 2311.81 3200.35 2404 3162.01C2522.36 3112.79 2630.53 3033.31 2696.87 2922C2806.51 2738.04 2815.93 2513.05 2825.04 2305C2830.66 2176.67 2828 2047.6 2828 1919L2828 1309"/>
</svg>
