<?xml version="1.0" standalone="yes"?>
<svg width="4000" height="4500">
<path style="stroke:none;fill:none;" d="M2655 2793C2643.16 2824.61 2637.44 2858.99 2625.91 2891C2596.63 2972.34 2548.4 3049.67 2483 3106.71C2392.26 3185.87 2280.33 3217.16 2164 3234.3C2118.24 3241.04 2069.27 3246.3 2023 3246.15C1990.85 3246.05 1957.99 3241.37 1926 3238.17C1843.36 3229.91 1762.5 3213.03 1687 3177.37C1614.93 3143.33 1550.58 3094.03 1497.17 3035C1376.32 2901.42 1333.95 2712.8 1321.91 2538C1317 2466.73 1314.04 2397.3 1320.83 2326C1327.3 2258.03 1334.25 2191.27 1351.92 2125C1400.21 1943.93 1523.06 1778.75 1697 1701.86C1787.28 1661.95 1882.51 1651.23 1980 1646.96C2076.99 1642.72 2181.58 1648.31 2274 1680.54C2401.59 1725.04 2508.36 1816.11 2577.45 1932C2600.65 1970.92 2620.4 2011.23 2635.54 2054C2641.65 2071.26 2649.53 2089.78 2652 2108M2023 3247C2023 3299.8 2038.75 3353.24 2055.33 3403C2060.32 3417.95 2065.69 3445.79 2078.05 3456.11C2140.51 3508.25 2226.47 3513.49 2297 3548.75C2319.86 3560.18 2345.28 3571.59 2361.69 3592C2367.72 3599.51 2370.52 3609.26 2374.28 3618C2382.52 3637.16 2393.33 3659.32 2396.67 3680C2398.86 3693.54 2389.76 3713.14 2385.66 3726C2380.63 3741.72 2376.27 3758.4 2366.57 3772C2332.32 3820.01 2266.66 3829.53 2213 3840.51C2142.83 3854.87 2067.15 3856.96 1996 3852.09C1934.72 3847.89 1874.19 3842.26 1815 3824.43C1752.48 3805.6 1693.19 3770.84 1644 3728"/>
</svg>
