<?xml version="1.0" standalone="yes"?>
<svg width="4000" height="4500">
<path style="stroke:none;fill:none;" d="M1051 1915C1070.3 1842.09 1096.3 1769.9 1153 1717.09C1229.39 1645.94 1329.57 1627.36 1430 1622.96C1522.49 1618.91 1616.56 1625.74 1697 1676.23C1747.05 1707.64 1786.91 1752.89 1816.13 1804C1824.1 1817.95 1831.51 1833.1 1837.55 1848C1840.8 1856.02 1843.12 1867.12 1848.43 1873.96C1854.71 1882.05 1866.71 1887.5 1875 1893.42C1892.23 1905.74 1909.41 1918.64 1925 1933C1947.6 1914.29 1977.84 1900.34 2004 1887.25C2013.97 1882.26 2027.18 1878.22 2035.9 1871.36C2048.18 1861.69 2055.68 1839.87 2064.72 1827C2085.3 1797.69 2108.56 1769.61 2136 1746.44C2256.11 1645.05 2426.32 1629.79 2575 1664.34C2787.35 1713.67 2915.1 1933.57 2944.27 2136C2950.17 2176.93 2954.25 2218 2959.28 2259C2960.59 2269.63 2961.03 2280.37 2962.29 2291C2962.84 2295.73 2964.3 2301.73 2961.51 2306C2957.74 2311.76 2948.53 2321.99 2942 2324.4C2929.69 2328.94 2909.14 2325 2896 2325L2733 2325L2136 2325L1983 2325L1945 2325C1938.99 2325 1932.89 2325.98 1928 2321.85C1923.59 2318.13 1916.64 2312.53 1914.6 2307C1912.11 2300.23 1914.11 2290.17 1913.98 2283C1913.58 2262.36 1914 2241.65 1914 2221C1914 2125.46 1909.55 2027.59 1925 1933M2954 2898C2939.97 2928 2930.46 2960.05 2915.89 2990C2886.74 3049.93 2847.76 3108.04 2798 3152.83C2731.06 3213.07 2650.3 3236.8 2563 3248.28C2538.14 3251.55 2512.1 3256.66 2487 3256.66C2460.27 3256.66 2432.49 3251.73 2406 3248.28C2352.26 3241.28 2300.84 3230.61 2252 3206.19C2196.64 3178.51 2145.66 3137.89 2106.42 3090C2092.82 3073.4 2079.11 3056.99 2067.34 3039C2060.73 3028.89 2053.87 3013.44 2044.67 3005.65C2036.67 2998.87 2023.41 2995.46 2014 2990.75C1986.73 2977.12 1956.88 2964.77 1932 2947C1916.29 2962.71 1900.48 2983.98 1882 2996.3C1871.05 3003.6 1855.39 3002.84 1845 3011.21C1794.18 3052.15 1747.49 3095.87 1691 3129.55C1593.02 3187.96 1488.77 3221.45 1376 3236.28C1345.36 3240.31 1312.91 3246.82 1282 3246.82C1267.17 3246.82 1251.66 3243.19 1237 3241.13C1203.07 3236.36 1168.35 3230.82 1136 3219.31C1122.1 3214.36 1108.29 3207.83 1096 3199.63C1028.69 3154.72 1007.59 3078.8 997.718 3003C993.59 2971.31 989.062 2938.93 988.043 2907C987.145 2878.83 992.027 2849.04 994.831 2821C1006.36 2705.74 1039.43 2589.66 1127 2508.09C1191.6 2447.91 1276.33 2409.64 1358 2378.58C1456.21 2341.22 1560.94 2310.34 1665 2294.27C1699.17 2289 1734.54 2288.27 1769 2285.91C1816.89 2282.63 1864.94 2278 1913 2278M1914 2309C1901.9 2321.14 1906 2339.8 1906 2356L1906 2471C1906 2573.91 1906.06 2676.48 1913.09 2779C1916.95 2835.25 1927.56 2890.89 1932 2947"/>
</svg>
