<?xml version="1.0" standalone="yes"?>
<svg width="4000" height="4500">
<path style="stroke:none;fill:none;" d="M2000 299L2000 339L1998.97 354.722L1986 360.947L1950 373L1918 384.702L1886.09 417L1726.04 582L1557 757M2001 357L2051 373.667L2081 384.702L2119.09 424L2183 490L2353.04 665L2442 757M1429 2190C1434.78 2116.73 1443.88 2038.36 1465.57 1968C1495.55 1870.73 1558.72 1775.22 1643 1717.03C1734.23 1654.03 1845.8 1636.7 1954 1631.96C2074.99 1626.67 2205.41 1630.62 2317 1683.12C2445.58 1743.61 2532.19 1869.52 2569.44 2004C2576.25 2028.58 2579.52 2054.83 2583.42 2080C2587.19 2104.28 2590.55 2128.57 2593.17 2153C2594.48 2165.28 2597.44 2178.66 2596.9 2191C2596.68 2196.21 2592.43 2199.57 2589 2203L2566 2226C2559.81 2232.19 2552.32 2243.08 2544 2246.26C2530.74 2251.32 2508.2 2247 2494 2247L2377 2247L1647 2247L1535 2247C1521.32 2247 1499.82 2251.12 1487 2246.4C1477.79 2243 1468.86 2229.86 1462 2223C1453.48 2214.48 1441.27 2196.33 1430 2192.02C1426.39 2190.64 1422.47 2194.31 1420.59 2197.04C1415.34 2204.65 1415.65 2221.85 1414.91 2231C1413 2254.74 1409 2278.17 1407.96 2302C1406.62 2332.66 1403.77 2363.28 1403.01 2394C1401.56 2453.3 1404.87 2512.96 1408.91 2572C1421.96 2762.48 1450.16 2967.07 1586.09 3113C1652.19 3183.96 1743.91 3232.94 1838 3254.5C1878.54 3263.79 1920.62 3266.23 1962 3268.04C2004.35 3269.89 2046.65 3270.99 2089 3268.09C2197.45 3260.66 2302.87 3245.12 2399 3190.13C2455.17 3157.99 2501.76 3112.35 2544 3064"/>
</svg>
