<?xml version="1.0" standalone="yes"?>
<svg width="4000" height="4500">
<path style="stroke:none;fill:none;" d="M2658 1326C2644.72 1354.45 2625.19 1380.83 2609.42 1408C2569.09 1477.49 2526.52 1545.7 2485.86 1615C2480.65 1623.88 2476.67 1631.91 2474.42 1642C2472.65 1649.99 2472.13 1660.86 2468.06 1668C2463.75 1675.56 2455.12 1681.88 2449 1688L2409 1728C2403.37 1733.63 2394.62 1739.82 2391.03 1747C2386.29 1756.47 2389.1 1779.41 2390.06 1789.96C2390.7 1796.98 2400.32 1803.32 2405 1808C2410.68 1813.68 2416.7 1822.01 2424 1825.58C2441.54 1834.15 2464.02 1833.35 2481 1843.09C2494.38 1850.76 2505.4 1866.53 2515.46 1877.91C2542.16 1908.12 2565.93 1939.48 2588.41 1973C2686.59 2119.35 2717.14 2304.32 2726.91 2477C2727.88 2494.18 2723.88 2512.88 2722.17 2530C2718.46 2567.08 2714.14 2604.15 2708.42 2641C2689.03 2766.03 2647.41 2887.75 2574.43 2992C2492.69 3108.76 2365.18 3201.66 2229 3243.97C2141.94 3271.03 2046.51 3279.29 1956 3273.09C1881.41 3267.98 1810.38 3258.03 1741 3228.43C1725.76 3221.92 1710.5 3215.23 1696 3207.14C1686.07 3201.6 1675.69 3193.66 1665 3189.84C1638.54 3180.38 1604.8 3182.47 1580 3168.86C1570.56 3163.68 1562.58 3152.58 1555 3145C1537.68 3162.32 1514.28 3179.73 1500.56 3200C1493.58 3210.32 1494.94 3225.78 1489.6 3237C1480.72 3255.64 1465.12 3273.08 1453.28 3290C1418.36 3339.89 1383.54 3389.86 1348.97 3440C1334.17 3461.48 1316.91 3482.34 1304 3505M1555 3145L1555 3065C1555 3058.67 1558 3041.85 1553.97 3036.84C1549.86 3031.73 1536.08 3030.31 1530 3028.33C1508.68 3021.38 1482.52 3016.85 1463 3005.78C1453.27 3000.25 1446.53 2987.83 1440.08 2979C1422.96 2955.57 1406.86 2931.37 1392.71 2906C1318.62 2773.19 1291.38 2618.2 1281.09 2468C1279.6 2446.18 1284.51 2422.7 1286.83 2401C1290.77 2364.25 1294.92 2327.34 1301.69 2291C1320.49 2190.12 1350.24 2092.67 1401.34 2003C1481.9 1861.59 1612.33 1748.18 1766 1693.54C1813.37 1676.7 1863.25 1669.81 1913 1664.83C1942.53 1661.88 1972.33 1658.13 2002 1657.46C2025.74 1656.91 2050.39 1660.55 2074 1662.83C2115.59 1666.86 2157.43 1670.08 2198 1680.76C2224.68 1687.78 2250.39 1700.17 2277 1706.5C2297.32 1711.33 2318.49 1713.7 2339 1717.8C2347 1719.4 2357.86 1719.87 2365 1723.94C2374.39 1729.29 2382.38 1740.38 2390 1748M2390 1794L2334 1850L2305.43 1879L2292.3 1922L2173.95 2110L1828.05 2658L1699.42 2862L1650.34 2940L1631.24 2969.79L1609 2982.22L1555 3036"/>
</svg>
