<?xml version="1.0" standalone="yes"?>
<svg width="4000" height="4500">
<path style="stroke:none;fill:none;" d="M1452 669L1469 669M2436 669L2453 669M1972 1645.42C1988.48 1643.26 2005.53 1645.8 2022 1646C2069.89 1646.56 2117.28 1649.57 2165 1652.91C2235.38 1657.84 2307.28 1667.44 2372 1697.31C2399.22 1709.87 2426.3 1724.99 2450 1743.42C2478.11 1765.29 2504.77 1788.6 2527.68 1816C2634.55 1943.81 2672.01 2114.39 2688.17 2276C2693.89 2333.22 2701.48 2392.41 2698.96 2450C2696.46 2507.06 2691.86 2564.12 2686.17 2621C2663.17 2851.06 2573.24 3109.14 2345 3208.42C2313.05 3222.32 2278.54 3232.85 2244 3237.83C2119.61 3255.76 1991.23 3258.67 1866 3250.09C1810.3 3246.27 1753.56 3243.47 1699 3230.5C1633.6 3214.95 1572.69 3182.81 1522 3138.71C1423.13 3052.69 1377.94 2922.48 1351.49 2798C1335.45 2722.48 1327.18 2645.9 1321.91 2569C1318.8 2523.55 1314.46 2477.61 1315 2432C1315.37 2401.03 1318.79 2369.89 1320.91 2339C1326.47 2257.91 1336.21 2177.3 1354.5 2098C1382.58 1976.29 1435.91 1855.31 1530 1770.17C1587.55 1718.1 1657.25 1679.61 1734 1665.31C1787.63 1655.32 1842.72 1651.81 1897 1648.09C1921.72 1646.4 1947.48 1648.65 1972 1645.42"/>
</svg>
