<?xml version="1.0" standalone="yes"?>
<svg width="4000" height="4500">
<path style="stroke:none;fill:none;" d="M1963 620C2042 661.613 2117.52 717.597 2186 774.586C2207.36 792.366 2229.08 809.563 2249 828.985C2254.54 834.385 2261.82 838.869 2266.5 845.039C2274.23 855.226 2277.62 872.901 2281.67 885C2290.17 910.423 2299.52 935.566 2308 961C2312.1 973.296 2315.35 997.635 2328 1003.97C2336.35 1008.15 2352.74 1005 2362 1005L2438 1005C2446.54 1005 2461.29 1007.83 2469 1003.97C2488.29 994.329 2497.81 965.841 2518 957.89C2538.68 949.741 2563.85 953.781 2585 946.768C2635.6 929.985 2685.77 911.185 2736 893.308C2757.71 885.583 2779.53 875.197 2802 870M2327 1004L2289 1042L2271 1058.98L2252 1062.27L2217 1070L2050 1126.67L1495 1313M2469 1005C2473.87 1009.87 2480.61 1014.85 2483.84 1021C2490.69 1034.06 2490.82 1054.54 2493.42 1069C2500.82 1109.98 2503.86 1152.39 2512.67 1193C2516.79 1212.01 2526.4 1230.68 2532.91 1249C2543.85 1279.77 2552.59 1311.48 2561.08 1343C2588.9 1446.32 2604.02 1552.8 2614.17 1659C2620.31 1723.24 2622.69 1787.67 2627.09 1852C2629.13 1881.83 2633.79 1914.17 2631.93 1944C2630.99 1958.99 2603.45 1965.35 2603.61 1980C2603.83 2000.35 2611.38 2022.79 2614.56 2043C2620.82 2082.74 2626.2 2123.81 2627.96 2164C2631.74 2250.33 2623 2337.09 2617.09 2423C2602.14 2640.17 2577.14 2883.76 2424.83 3053C2401.85 3078.53 2375.57 3101.08 2348 3121.52C2315.57 3145.57 2278.36 3164.84 2241 3179.91C2154.38 3214.85 2061.49 3226.72 1969 3233.09C1930.59 3235.74 1893.27 3232.26 1855 3228.17C1786.77 3220.86 1722.88 3208.07 1660 3179.83C1532.23 3122.45 1436.64 3008.89 1375.19 2886C1327.46 2790.54 1305.38 2684.54 1294.83 2579C1290.8 2538.65 1285.49 2497.54 1285 2457C1284.69 2430.96 1287.13 2404.93 1288.91 2379C1292.96 2319.92 1298.41 2261.66 1312.9 2204C1353.23 2043.4 1447.18 1887.05 1593 1802.42C1674.25 1755.27 1762.51 1736.08 1855 1726.83C1880.4 1724.29 1906.46 1720.57 1932 1720.57C1963.77 1720.57 1996.48 1726.07 2028 1729.84C2084.71 1736.64 2141.68 1747.38 2195 1768.45C2234.83 1784.19 2273.38 1804.22 2308 1829.49C2318.97 1837.5 2330 1845.91 2340 1855.09C2347.28 1861.78 2354.57 1871.02 2363 1876.15C2371.13 1881.08 2382.96 1882.65 2392 1885.67C2413.77 1892.92 2435.67 1899.87 2457 1908.4C2491.74 1922.29 2525.54 1937.51 2559 1954.25C2573.16 1961.33 2586.49 1970.75 2601 1977"/>
</svg>
