<?xml version="1.0" standalone="yes"?>
<svg width="4000" height="4500">
<path style="stroke:none;fill:none;" d="M1284 687C1354.83 636.122 1420.95 579.578 1503 546.734C1529.18 536.254 1557.49 532.104 1585 526.6C1605.71 522.457 1628.84 515.85 1650 515.85C1662.89 515.85 1676.34 519.546 1689 521.75C1713.01 525.928 1737.54 530.259 1761 536.909C1886.32 572.427 1973.22 676.249 2072 754.335C2112.49 786.345 2156.72 816.339 2205 835.386C2235.6 847.459 2267.66 854.621 2300 860.25C2318.95 863.549 2339.71 869.608 2359 869.289C2387.6 868.817 2419.16 859.941 2447 853.65C2491.37 843.626 2530.66 829.849 2570 806.396C2621.21 775.868 2674.31 739.812 2717 698M1476 3224L1476 2298L1476 2038L1476 1966C1476 1958.15 1473.13 1943.39 1476.6 1936.32C1478.22 1933.04 1487.6 1932.92 1491 1931.68C1505.7 1926.32 1520.37 1920.76 1535 1915.19C1577.04 1899.21 1619.64 1884.77 1662 1869.69C1678.21 1863.92 1697.85 1860.8 1712.96 1852.7C1720.56 1848.62 1726.9 1837.57 1732.44 1831C1743.51 1817.86 1755.37 1805.44 1767.17 1792.96C1795.63 1762.86 1829.44 1737.43 1865 1716.4C1923.9 1681.58 1990.83 1669.03 2058 1661.83C2135.6 1653.53 2211.95 1651.21 2289 1665.69C2344.83 1676.18 2404.99 1698.11 2441.49 1744C2485.3 1799.09 2500.31 1868.8 2509.28 1937C2521.2 2027.62 2523 2117.68 2523 2209L2523 3224M1476 1676L1476 1933"/>
</svg>
