<?xml version="1.0" standalone="yes"?>
<svg width="4000" height="4500">
<path style="stroke:none;fill:none;" d="M2000 303L2000 340L1998.97 354.722L1987 360.424L1951 372.667L1918 384.702L1887.09 416L1726.04 582L1557 757M2001 357L2051 373.667L2081 384.702L2114 417L2187 492L2453 761M1971 1645.42C1988.12 1643.18 2005.88 1645.79 2023 1646C2070.55 1646.56 2117.62 1649.59 2165 1652.91C2235.66 1657.86 2306.87 1667.93 2372 1697.31C2400.97 1710.38 2428.93 1727.08 2454 1746.58C2615.89 1872.51 2668.69 2081.16 2688.17 2276C2693.89 2333.23 2701.48 2392.41 2698.96 2450C2696.32 2510.43 2691.19 2570.77 2685.17 2631C2662.51 2857.64 2568.57 3111.17 2345 3208.42C2313.03 3222.33 2278.54 3232.85 2244 3237.83C2119.54 3255.77 1991.26 3258.67 1866 3250.09C1810.29 3246.27 1753.57 3243.47 1699 3230.5C1633.55 3214.93 1572.72 3182.84 1522 3138.71C1423.5 3053.01 1378.02 2923.06 1351.64 2799C1334.53 2718.53 1326.52 2636.93 1320.91 2555C1310.71 2406.06 1318.29 2251.98 1352.67 2106C1382.06 1981.15 1432.94 1857.99 1530 1770.17C1587.54 1718.11 1657.26 1679.61 1734 1665.31C1787.28 1655.38 1842.06 1651.78 1896 1648.09C1920.73 1646.4 1946.47 1648.65 1971 1645.42"/>
</svg>
