<?xml version="1.0" standalone="yes"?>
<svg width="4000" height="4500">
<path style="stroke:none;fill:none;" d="M1269 687C1299.74 660.397 1333.42 636.508 1367 613.656C1404.78 587.946 1445.04 562.835 1488 546.685C1517.2 535.709 1548.33 530.088 1579 524.75C1598.47 521.361 1619.19 515.268 1639 515.019C1654.08 514.829 1670.16 519.097 1685 521.586C1714.31 526.501 1743.64 531.994 1772 540.959C1906.73 583.557 1995.93 702.704 2108 781.381C2165.14 821.493 2224.91 845.385 2293 859C2313.99 863.197 2338.55 870.129 2360 869.544C2389.9 868.729 2421.73 859.456 2451 853.6C2497.69 844.259 2540.02 827.482 2581 803.077C2632.15 772.615 2686.84 738.304 2730 697M1972 1645.42C1988.48 1643.26 2005.53 1645.8 2022 1646C2069.89 1646.56 2117.28 1649.57 2165 1652.91C2235.61 1657.86 2306.96 1667.76 2372 1697.31C2400.48 1710.25 2428.37 1726.49 2453 1745.79C2480.02 1766.97 2505.6 1789.6 2527.68 1816C2634.55 1943.81 2672.01 2114.39 2688.17 2276C2693.89 2333.22 2701.48 2392.41 2698.96 2450C2696.46 2507.06 2691.86 2564.12 2686.17 2621C2663.17 2851.05 2573.23 3109.14 2345 3208.42C2313.06 3222.32 2278.52 3232.85 2244 3237.83C2119.58 3255.77 1991.24 3258.67 1866 3250.09C1810.3 3246.27 1753.56 3243.47 1699 3230.5C1633.55 3214.93 1572.72 3182.84 1522 3138.71C1423.14 3052.7 1377.93 2922.44 1351.49 2798C1335.52 2722.85 1327.16 2646.54 1321.91 2570C1318.77 2524.23 1314.46 2477.93 1315 2432C1315.37 2401.03 1318.79 2369.89 1320.91 2339C1326.47 2257.91 1336.21 2177.3 1354.5 2098C1382.58 1976.29 1435.89 1855.32 1530 1770.17C1587.55 1718.1 1657.25 1679.61 1734 1665.31C1787.28 1655.38 1842.06 1651.78 1896 1648.09C1921.05 1646.37 1947.15 1648.69 1972 1645.42"/>
</svg>
