<?xml version="1.0" standalone="yes"?>
<svg width="4000" height="4500">
<path style="stroke:none;fill:none;" d="M2097 346L1739 810M1447 1643C1462.49 1677.95 1470.69 1717.52 1482.03 1754L1547.03 1963C1600.08 2133.75 1653.92 2304.25 1706.97 2475C1724.89 2532.65 1741.64 2590.7 1760.67 2648C1780.66 2708.21 1798.98 2769.25 1817.28 2830C1823.23 2849.75 1829.85 2869.3 1835.97 2889C1838.58 2897.39 1839.99 2908.58 1844.84 2915.96C1850.76 2924.94 1866.9 2931.11 1876 2936.6C1895.06 2948.1 1914.08 2959.7 1933 2971.42C1941.21 2976.51 1951.64 2985.8 1961 2988.17C1966.39 2989.53 1974.51 2982.58 1979 2980L2027 2952.42C2041.34 2944.2 2055.63 2935.89 2070 2927.72C2076.42 2924.07 2085.77 2920.61 2090.49 2914.81C2094.76 2909.57 2096.09 2901.24 2098.42 2895C2103.9 2880.36 2109.26 2865.67 2114.68 2851C2133.13 2801.12 2150.47 2750.84 2169.05 2701C2252 2478.52 2332.08 2254.7 2411.69 2031C2457.57 1902.08 2508.15 1774.62 2552 1645M1962 2991C1966.25 3019.95 1960.86 3052.39 1956.42 3081C1950.43 3119.67 1943.97 3158.29 1938.27 3197C1933.26 3231.05 1927.29 3264.95 1922.27 3299C1919.18 3319.99 1917.54 3342.51 1912.08 3363C1904.48 3391.51 1891.19 3419.29 1881.05 3447C1860.3 3503.76 1838.81 3560.24 1818.05 3617C1793.81 3683.28 1772.71 3752.54 1744 3817"/>
</svg>
