<?xml version="1.0" standalone="yes"?>
<svg width="4000" height="4500">
<path style="stroke:none;fill:none;" d="M1422 880L1422 1585L1422 1634C1422 1641.46 1420.5 1650.76 1422.32 1658C1424.46 1666.56 1438.92 1670.93 1438.64 1680C1438.01 1700.56 1422.98 1720.21 1422.04 1741C1418.21 1825.28 1422 1910.63 1422 1995L1422 2502L1422 2737C1422 2783 1418.26 2831.04 1426 2876C1440.7 2877.2 1455.69 2883.09 1470 2886.63C1495.9 2893.02 1521.94 2898.85 1548 2904.58C1576.21 2910.77 1604.61 2916.08 1633 2921.39C1645.34 2923.7 1659.16 2924.25 1671 2928.44C1688.87 2934.77 1705.62 2945.61 1723 2953.29C1754.93 2967.41 1787.67 2980.08 1821 2990.49C1882.17 3009.6 1944.54 3020.47 2008 3028.28C2037.79 3031.96 2068.97 3037.35 2099 3037C2128.58 3036.64 2158.65 3030.68 2188 3027.16C2255.46 3019.06 2320.89 3003.2 2381 2970.69C2407.02 2956.62 2431.37 2939.41 2454 2920.41C2607.48 2791.59 2649.09 2586.23 2667.17 2397C2672.89 2337.13 2677.2 2276.99 2673.09 2217C2669.65 2166.79 2668.28 2115.81 2660.44 2066C2649.34 1995.45 2638.68 1926.26 2616.52 1858C2579.11 1742.81 2515.01 1631.47 2414 1560.77C2348.65 1515.02 2275.1 1492.98 2197 1481.73C2172.07 1478.14 2145.21 1472.7 2120 1473.02C2078.12 1473.55 2034.35 1482.16 1993 1488.58C1932.75 1497.92 1874.01 1511.39 1817 1533.46C1784.1 1546.2 1751.7 1561.26 1721 1578.65C1703.62 1588.5 1686.33 1602.35 1668 1610.05C1650.6 1617.35 1629.33 1619.73 1611 1624.37C1574.25 1633.68 1538.09 1645.13 1502 1656.66C1482.09 1663.02 1459.51 1668.24 1441 1678M1426 2876C1420.95 2881.98 1422 2888.56 1422 2896L1422 2933L1422 3087L1422 3692"/>
</svg>
