<?xml version="1.0" standalone="yes"?>
<svg width="4000" height="4500">
<path style="stroke:none;fill:none;" d="M2100 349L2062.42 395L1977.25 498L1721 808M1476 1692L1476 2619C1476 2724.61 1477.64 2829.31 1492.73 2934C1501.17 2992.55 1510.58 3052.93 1540.43 3105C1592.2 3195.32 1692.23 3237.55 1793 3241.96C1837.87 3243.93 1885.48 3234.49 1930 3229.16C1990.83 3221.87 2052.61 3212.71 2109 3187.69C2142.37 3172.88 2173.67 3154.47 2203 3132.71C2216.05 3123.03 2230.24 3105.11 2245 3098.99C2266.19 3090.22 2290.11 3085.65 2312 3078.66C2355.89 3064.63 2399.23 3048.51 2442 3031.4C2458.04 3024.98 2474.12 3018.66 2490 3011.85C2494.61 3009.87 2504.23 3007.77 2506.4 3002.79C2509.9 2994.73 2507 2979.77 2507 2971L2507 2894L2507 2626L2507 1692M2507 3006L2507 3208"/>
</svg>
