<?xml version="1.0" standalone="yes"?>
<svg width="4000" height="4500">
<path style="stroke:none;fill:none;" d="M2039 2200C2029.29 2209.75 2031 2219 2031 2232L2031 2280L2031 2501C2031 2587.98 2032.03 2675.03 2031 2762C2030.68 2788.3 2028.13 2814.68 2028 2841C2027.84 2874.66 2027.57 2908.37 2026.07 2942C2025.61 2952.58 2029.7 2970.42 2024.68 2979.91C2021.09 2986.7 2010.22 2991.52 2004 2995.67C1986.64 3007.24 1968.89 3018.26 1951 3029C1943.64 3033.42 1932.06 3037.63 1927.35 3045.04C1914.12 3065.88 1903.73 3088.36 1889.91 3109C1850.78 3167.43 1797.87 3224.08 1731 3249.94C1707.2 3259.14 1682.12 3262.65 1657 3266.27C1615.75 3272.22 1574.54 3275.22 1533 3277.04C1491.61 3278.85 1450.22 3275.29 1409 3271.17C1346.38 3264.91 1286.67 3255.14 1234 3218.28C1137.55 3150.77 1092.93 3023.98 1068.33 2914C1041.58 2794.36 1032.31 2673.12 1026.96 2551C1021 2414.8 1025.31 2278.34 1041.71 2143C1060.71 1986.29 1105.37 1807.03 1227 1697.17C1276.28 1652.66 1334.1 1639.04 1398 1630.72C1478.77 1620.2 1558.15 1621.18 1639 1629.83C1696.73 1636.01 1750.04 1646.67 1799 1679.67C1840.86 1707.89 1873.64 1747.72 1900.46 1790C1910.56 1805.93 1917.41 1826.5 1929.63 1840.79C1935.38 1847.51 1947.35 1851.76 1955 1856.15C1971.97 1865.89 1988.72 1876.14 2005 1887C2011.34 1891.23 2023.26 1896.27 2026.97 1903.09C2030.05 1908.75 2028.76 1918.7 2029.04 1925C2029.68 1939.67 2031.08 1954.34 2032.09 1969C2035.67 2021.03 2039 2072.76 2039 2125L2039 2176C2039 2182.5 2037.07 2192.67 2039.6 2198.71C2043.69 2208.5 2059.89 2221.01 2068 2227.85C2072.89 2231.98 2078.99 2231 2085 2231L2122 2231L2271 2231L2755 2231L2890 2231L2927 2231C2932.08 2231 2939.34 2232.3 2944 2229.97C2950.93 2226.51 2964.73 2213.32 2967.4 2206C2970.79 2196.67 2966.47 2179.95 2966.04 2170C2964.74 2140.22 2961.84 2110.69 2959.07 2081C2945.15 1931.29 2882.52 1765.24 2747 1684.45C2650.89 1627.16 2539.43 1616.24 2430 1626.83C2357.21 1633.87 2285.42 1651.06 2225 1694.43C2195.54 1715.57 2166.18 1743.65 2147.45 1775C2139.33 1788.59 2132.31 1803.53 2125.86 1818C2122.8 1824.87 2120.66 1834.16 2115.61 1839.81C2107.67 1848.7 2093.05 1854.67 2083 1861.05C2063.84 1873.21 2045.09 1887.08 2028 1902M2025 2980C2044.03 2997.37 2068.15 3011.04 2090 3024.58C2099.07 3030.2 2111.55 3035.02 2118.66 3043.09C2124.72 3049.98 2127.81 3060.11 2132.45 3068C2143.17 3086.23 2154.09 3104.01 2166.76 3121C2198.57 3163.66 2242.84 3201.74 2289 3228.13C2342.33 3258.62 2400.42 3269.84 2461 3274.09C2571.81 3281.86 2694.11 3272.1 2790 3210.46C2842.64 3176.62 2882.14 3129.24 2917 3078"/>
</svg>
