<?xml version="1.0" standalone="yes"?>
<svg width="4000" height="4500">
<path style="stroke:none;fill:none;" d="M2070 1167C2037.93 1137.46 2003.99 1109.3 1970 1082L1940 1057.8C1935.06 1053.85 1928.19 1049.84 1925.32 1044C1920.28 1033.74 1920.67 1019.13 1918.11 1008C1911.37 978.687 1905.26 949.273 1898.35 920C1877.73 832.759 1848.64 745.479 1804.86 667C1778.82 620.322 1745.27 575.396 1698 548.635C1668.65 532.02 1631.65 525.787 1599 518.576C1564.83 511.028 1526.19 500.375 1491 501.054C1453.22 501.783 1413.66 511.935 1377 520.349C1326.48 531.942 1283.85 546.502 1247.04 585C1211.49 622.178 1186.87 668.408 1166.14 715C1136.33 781.987 1115.23 853.461 1099.42 925C1036.51 1209.82 1027.45 1502.64 1024 1793C1020.28 2105.23 1029.22 2416.43 1079.75 2725C1094.19 2813.16 1118.08 2900.5 1149.58 2984C1174.73 3050.68 1210.1 3119.66 1265.29 3166.42C1299.42 3195.34 1340.35 3205.86 1383 3215.65C1417.11 3223.48 1453.86 3233.12 1489 3233.99C1512.76 3234.57 1537.69 3228.63 1561 3224.42C1597.37 3217.86 1635.04 3210.4 1670 3198.2C1717.2 3181.74 1753.95 3144.84 1782.43 3105C1838.52 3026.55 1872.64 2930.77 1896.52 2838C1903.11 2812.41 1909.02 2786.71 1915.12 2761C1917.63 2750.4 1918.09 2738 1922.51 2728C1927.49 2716.76 1945.57 2707.71 1955 2700.2C1982.24 2678.49 2009.28 2656.6 2036 2634.25C2043.71 2627.8 2051.36 2621.27 2059 2614.73C2062.18 2612.01 2067.41 2609.01 2068.7 2604.83C2071.71 2595.04 2069.22 2584.03 2070.17 2574C2073.22 2541.92 2072.23 2509.22 2073.01 2477C2075.1 2391.69 2075.99 2306.43 2077 2221C2080 1968.77 2077 1716.23 2077 1464C2077 1391.67 2073.86 1319.32 2073 1247C2072.7 1221.74 2067.39 1194.06 2070.19 1169C2071.1 1160.87 2083.53 1152.47 2089 1147L2138 1098C2143.46 1092.54 2154.6 1085.02 2155.85 1077C2158.12 1062.39 2156 1045.8 2156 1031L2156 937L2156 647L2156 539C2156 527.924 2151.99 508.12 2161.02 500.148C2165.78 495.95 2172.09 497 2178 497L2215 497L2366 497L2961 497M2079 1755L2828 1755M2069 2607L2130 2668C2137.37 2675.37 2151.76 2685.13 2155.4 2695C2158.71 2704 2156 2718.43 2156 2728L2156 2804L2156 3058L2156 3178L2156 3210C2156 3214.48 2155.1 3220.04 2157.6 3224C2170.02 3243.67 2190.88 3239 2211 3239L2350 3239L2938 3239"/>
</svg>
