<?xml version="1.0" standalone="yes"?>
<svg width="4000" height="4500">
<path style="stroke:none;fill:none;" d="M1823 477C1821.26 498.994 1816.06 521.235 1812.41 543C1805.99 581.32 1799.84 619.68 1793.41 658C1774.36 771.62 1755.87 885.335 1737.08 999C1728.26 1052.34 1728.29 1107.24 1723.17 1161C1721.48 1178.75 1722.4 1197.5 1718.89 1215C1717.13 1223.78 1705.66 1226.9 1700.31 1233.17C1694.82 1239.62 1697.78 1249.8 1693.99 1257C1688.95 1266.56 1674.88 1268.44 1673.29 1280C1664.48 1344.11 1666.6 1409.76 1658.71 1474C1650.16 1543.62 1635.18 1612.68 1624.42 1682C1602.01 1826.53 1576.98 1970.71 1553.08 2115C1544.64 2165.93 1542.62 2218.53 1539.09 2270C1537.55 2292.46 1539.43 2319.2 1533.68 2340.96C1531.46 2349.37 1518.34 2352.72 1513.74 2360C1509.09 2367.39 1512.48 2377.99 1506.7 2384.91C1501.56 2391.06 1489.8 2394.47 1488.23 2403C1485.5 2417.79 1485.94 2433.99 1484.91 2449C1481.54 2497.89 1480.52 2548.51 1473.57 2597C1457.49 2709.28 1436.58 2821.09 1418.08 2933C1399.69 3044.24 1383.88 3156.2 1363 3267M2620 477C2618.29 498.659 2613.01 520.566 2609.41 542C2602.88 580.983 2596.54 620.002 2590.08 659C2571.09 773.648 2552.63 888.39 2533.41 1003C2524.77 1054.57 2525.12 1107.97 2520.17 1160C2518.46 1177.9 2520.53 1198.64 2515.7 1216C2513.19 1225 2500.53 1227.33 2495.94 1235.04C2491.44 1242.59 2494.75 1252.99 2488.77 1259.96C2483.5 1266.11 2472.37 1269.58 2470.48 1278.01C2466.94 1293.85 2468.37 1311.82 2466.83 1328C2462.24 1376.18 2461.46 1424.95 2455.71 1473C2449.71 1523.15 2439.33 1573.17 2431.08 1623C2416.4 1711.65 2402.02 1800.36 2387.25 1889C2373.46 1971.73 2356.52 2054.77 2346.29 2138C2343.64 2159.53 2343.23 2181.41 2341.17 2203C2338.23 2233.9 2336.22 2265.04 2334.09 2296C2333.16 2309.45 2335.37 2329.4 2330.4 2341.91C2327.44 2349.34 2316.18 2352.72 2311.32 2359.01C2306.11 2365.74 2309.11 2375.77 2305.01 2382.96C2300.99 2390.02 2290.94 2394.54 2285 2400C2277.1 2392.1 2266.55 2376.49 2256 2372.6C2244.96 2368.53 2226.76 2372 2215 2372L2120 2372L1713 2372L1608 2372C1595.14 2372 1575.06 2375.84 1563 2371.4C1552.45 2367.51 1541.9 2351.9 1534 2344M1719 1219C1726.9 1226.9 1737.45 1242.51 1748 1246.4C1759.04 1250.47 1777.24 1247 1789 1247L1884 1247L2291 1247L2396 1247C2409.14 1247 2429.69 1243.06 2442 1247.6C2452.55 1251.49 2463.1 1267.1 2471 1275M2516 1219L2544 1245.97L2570 1247L2632 1247L2844 1247M1280 1247L1547 1247L1615 1247C1623.74 1247 1636.77 1244.57 1645 1247.6C1655.55 1251.49 1666.1 1267.1 1674 1275M2331 2344C2338.9 2351.9 2349.45 2367.51 2360 2371.4C2367.98 2374.34 2380.53 2372 2389 2372L2454 2372L2703 2372M1155 2372L1372 2372L1435 2372L1461 2373.03L1489 2400M2285 2400L2276.09 2514L2269.71 2601L2234.08 2817L2186.92 3104L2160 3267"/>
</svg>
