<?xml version="1.0" standalone="yes"?>
<svg width="4000" height="4500">
<path style="stroke:none;fill:none;" d="M2000 142L2000 385L2000 459L1999 496C2008.69 498.865 2020.88 497.596 2031 498.039C2045.99 498.695 2061.02 500.058 2076 501.089C2133.87 505.074 2192.63 510.221 2250 519.438C2281.94 524.57 2313.39 535.403 2344 545.481C2446.77 579.316 2535.91 635.523 2620 702.8C2646.97 724.374 2673.05 747.104 2698 770.961C2707.44 779.991 2720.2 788.802 2727.16 800C2732.6 808.769 2734.74 821.222 2738 831C2745.2 852.607 2752.27 874.254 2759.03 896C2781.66 968.842 2802.41 1042.48 2826 1115M2000 497L2000 1512L2000 1761L2000 1821C2000 1825.53 2002.25 1838.92 1998.4 1841.97C1991.63 1847.33 1970.01 1841.02 1962 1840.17C1927.58 1836.48 1893.36 1831.28 1859 1827.16C1824.5 1823.01 1787.69 1819.67 1754 1811.1C1631.58 1779.96 1506.62 1705.11 1433.04 1601C1363.22 1502.2 1330.6 1391.24 1317.83 1272C1314.29 1238.9 1309.83 1205.27 1309.01 1172C1308.22 1139.38 1311.73 1106.42 1314.83 1074C1320.8 1011.5 1328.16 949.878 1344.27 889C1370.69 789.102 1417.46 683.62 1499 616.615C1567.12 560.642 1655.14 529.941 1741 514.463C1776.14 508.127 1812.53 507.219 1848 503.83C1898.04 499.048 1948.7 496 1999 496M2000 1844L2000 2872L2000 3138L2000 3207C2000 3212.97 2002.68 3227.66 1998.97 3232.51C1996.13 3236.23 1984.99 3233.76 1981 3233.29C1964.77 3231.37 1948.29 3230.75 1932 3229.17C1863.37 3222.53 1791.89 3218.7 1725 3201.48C1596.01 3168.27 1471.71 3108.57 1364 3030.75C1338.26 3012.15 1313.95 2992.13 1290 2971.29C1276.78 2959.79 1261.01 2948.08 1250.42 2934C1244.46 2926.08 1241.92 2913.32 1238.66 2904C1232 2885 1225.04 2866.11 1218.67 2847C1205.23 2806.69 1191.59 2766.47 1178.66 2726C1172.07 2705.38 1162.16 2683.41 1159 2662M2001 1909C2048.93 1909 2097.52 1917.47 2145 1923.72C2176.25 1927.83 2210.79 1929.86 2241 1939.04C2273.52 1948.92 2305.08 1967.42 2335 1983.22C2418.45 2027.28 2504.18 2085.69 2564.54 2159C2643.49 2254.9 2678.98 2371.06 2691.17 2493C2694.68 2528.16 2698.82 2563.65 2699.29 2599C2700.02 2654.13 2693.32 2711.52 2685.3 2766C2668.95 2877.02 2632.86 2987.33 2554.91 3071C2465.47 3167.02 2331.63 3213.07 2204 3225.83C2153.36 3230.89 2102.71 3234.44 2052 3237.91C2039.08 3238.8 2025.84 3237.89 2013 3239.58C2009.82 3239.99 2003.23 3238.83 2001.03 3241.6C1999.09 3244.05 2000 3249.09 2000 3252L2000 3280L2000 3388L2000 3808M2000 3236L2000 3239"/>
</svg>
