<?xml version="1.0" standalone="yes"?>
<svg width="4000" height="4500">
<path style="stroke:none;fill:none;" d="M2637 322L2560.4 515L2414.2 883L1904.2 2167L1562.6 3027L1450.2 3310L1412.6 3405L1393 3453M1497 404.44C1515.41 402.385 1538.92 409.963 1557 413.6C1583.25 418.882 1611 423.461 1634 437.951C1664.67 457.271 1686.38 488.888 1703.51 520C1742.89 591.498 1759.35 672.765 1775.33 752C1798.38 866.208 1802.96 983.962 1808.04 1100C1812.28 1196.73 1809.7 1293.44 1803.09 1390C1796.86 1481 1788.51 1571.56 1769.51 1661C1755.06 1729 1735.55 1797.24 1700.87 1858C1682.96 1889.38 1660.28 1921.24 1629 1940.54C1608.5 1953.19 1585.3 1957.74 1562 1962.4C1539.92 1966.82 1517.46 1971.53 1495 1973.54C1477.57 1975.09 1457.19 1968.93 1440 1966.08C1412.76 1961.57 1385.93 1956.96 1362 1942.39C1329.36 1922.5 1305.82 1887.88 1287.84 1855C1247.83 1781.8 1233.42 1700.43 1216.12 1620C1193.89 1516.67 1189.57 1408.23 1184.96 1303C1176.57 1111.5 1183.85 915.519 1221.55 727C1236.06 654.442 1256.44 579.262 1294.09 515C1311.37 485.502 1332.5 456.038 1362 437.615C1377.55 427.907 1394.41 424.284 1412 420.116C1439.86 413.513 1468.52 407.619 1497 404.44M2462 1936.43C2482.07 1933.7 2507.3 1942.26 2527 1946.2C2553.06 1951.41 2580.87 1955.78 2604 1969.58C2638.57 1990.22 2663.27 2023.65 2682.87 2058C2722.06 2126.64 2740.35 2203.58 2757.5 2280C2782.36 2390.82 2787.09 2505.99 2792.04 2619C2795.39 2695.61 2793.39 2771.44 2790.04 2848C2785.98 2940.81 2778.72 3034.95 2759.01 3126C2742.87 3200.61 2722.55 3275.27 2680.51 3340C2661.18 3369.75 2637.21 3398.32 2606 3416.13C2588.44 3426.15 2569.51 3430.14 2550 3434.42C2523.31 3440.29 2496.17 3445.6 2469 3448.71C2450.85 3450.8 2427.84 3443.75 2410 3440.2C2383.65 3434.96 2356.11 3431.64 2333 3417.05C2300.35 3396.43 2277.9 3360.74 2261.03 3327C2227.2 3259.34 2209.68 3183.21 2197.29 3109C2168.18 2934.75 2161.25 2756.16 2168.96 2580C2173.81 2469.28 2181.17 2357.83 2203.49 2249C2217.82 2179.1 2235.22 2107.7 2270.58 2045C2288.26 2013.64 2310.33 1982.84 2342 1964.29C2355.49 1956.39 2370.96 1953.75 2386 1950.35C2411.09 1944.67 2436.5 1939.89 2462 1936.43"/>
</svg>
