<?xml version="1.0" standalone="yes"?>
<svg width="4000" height="4500">
<path style="stroke:none;fill:none;" d="M1664 1883L1620 1839C1613.28 1832.28 1603.66 1825.29 1598.94 1817C1589.97 1801.28 1593.58 1778.75 1586.65 1762C1578.95 1743.39 1568.19 1726 1559.25 1708C1542.06 1673.41 1525.85 1638.28 1510.14 1603C1440 1445.52 1378.29 1279.44 1359.83 1107C1356.38 1074.71 1350.85 1041.5 1350.85 1009C1350.85 980.843 1355.27 951.929 1358.72 924C1366.23 863.023 1376.22 801.407 1401.95 745C1421.84 701.412 1446.96 661.613 1479.17 626C1572.78 522.503 1715.25 486.531 1850 483.455C1879.36 482.785 1909.8 486.912 1939 489.831C1984.15 494.345 2028.44 500.305 2072 513.569C2144.29 535.582 2210.81 581.738 2257.48 641C2313.8 712.516 2335.54 799.362 2346.16 888C2349.22 913.579 2353.97 940.234 2353.97 966C2353.97 993.456 2349.09 1021.7 2346.17 1049C2339.63 1110.06 2329.01 1170.93 2308.46 1229C2266.54 1347.47 2194.38 1459.56 2106 1549C2032.86 1623.02 1955.31 1691.36 1872 1753.87C1848.24 1771.7 1824.89 1791.15 1800 1807.37C1783.18 1818.34 1755.34 1820.2 1736 1825.58C1729.47 1827.39 1721.43 1827.96 1716 1832.28C1703.72 1842.03 1693.09 1854.91 1682 1866C1676.65 1871.35 1668.44 1877.18 1665.03 1884C1659.81 1894.44 1667.4 1909.15 1663.4 1920C1661.12 1926.17 1653.55 1931.45 1649 1936C1637.33 1947.67 1625.67 1963.18 1612 1972.44C1605.94 1976.54 1596.07 1977.48 1589 1979C1571.15 1982.82 1547.24 1984.96 1531 1993.24C1513.06 2002.39 1496.8 2015.88 1480 2026.92C1440.74 2052.72 1401.78 2079.72 1365 2109C1278.96 2177.5 1202.55 2260.94 1151.63 2359C1116.92 2425.84 1099.86 2495.78 1090.72 2570C1087.56 2595.63 1083.31 2622.18 1083 2648C1082.65 2677.57 1086.89 2707.6 1089.83 2737C1094.38 2782.52 1100.34 2827.8 1112.59 2872C1129.23 2932.01 1155.5 2991.04 1194.45 3040C1230.3 3085.06 1275.91 3119.25 1325 3148.45C1459.94 3228.72 1627.61 3252.11 1782 3237.17C1845.84 3230.99 1908.06 3222.74 1969 3201.66C2038.46 3177.63 2101.72 3141.65 2162 3100.03C2189.66 3080.92 2215.49 3059.42 2241 3037.57C2251.24 3028.8 2260.53 3016.95 2272 3009.84C2281.58 3003.91 2294.12 3004.01 2304 2998.72C2311.28 2994.83 2317.21 2986.79 2323 2981L2360 2944C2365.84 2938.16 2376.49 2930.87 2379.4 2923C2381.1 2918.37 2380 2911.88 2380 2907L2380 2872C2380 2866.82 2381.42 2859.13 2379.4 2854.29C2375.58 2845.15 2361.99 2835.99 2355 2829C2335.94 2809.94 2317.49 2786.66 2296 2770.42C2289.07 2765.18 2279.03 2765.17 2272.44 2759.5C2263.82 2752.09 2257.53 2740.81 2250.39 2732C2236.6 2715 2222.36 2698.46 2209.13 2681C2156.51 2611.54 2100.77 2544.31 2047.88 2475C1977.13 2382.27 1910.51 2286.59 1843.72 2191C1809.47 2141.98 1774.4 2091.25 1745.24 2039C1737.2 2024.58 1740.92 2003.45 1731.49 1990C1725.52 1981.5 1716.33 1974.33 1709 1967L1664 1922M2791 1757C2791 1783.67 2784.82 1810.5 2782.17 1837C2775.66 1902.02 2764.04 1966.73 2752.42 2031C2718.74 2217.44 2669.15 2404.3 2587.89 2576C2565.31 2623.7 2540.34 2670.4 2512.05 2715C2501.73 2731.28 2491.95 2748.78 2479.96 2763.9C2473.63 2771.87 2461.46 2772.14 2454 2779.05C2428.48 2802.7 2404.6 2828.4 2380 2853M2380 2925L2457 3001.78L2487.71 3016.13L2518.17 3052L2605.29 3152L2717 3278"/>
</svg>
