<?xml version="1.0" standalone="yes"?>
<svg width="4000" height="4500">
<path style="stroke:none;fill:none;" d="M2280 190C2263.95 209.385 2250.74 231.977 2236.92 253C2213.27 288.995 2190.07 325.133 2167.8 362C2087.05 495.641 2017.98 635.296 1959.55 780C1827.27 1107.57 1763.36 1455.46 1747.96 1807C1744.11 1895.03 1743.1 1982.93 1746.96 2071C1751.3 2170.07 1757.57 2268.24 1767.17 2367C1773.44 2431.55 1784.03 2496.19 1795.54 2560C1828.47 2742.65 1874.81 2922.17 1940.43 3096C1999.3 3251.97 2073.12 3401.87 2158.45 3545C2186.88 3592.67 2217.72 3639.19 2249.03 3685C2258.69 3699.14 2269.93 3712.49 2279 3727"/>
</svg>
