<?xml version="1.0" standalone="yes"?>
<svg width="4000" height="4500">
<path style="stroke:none;fill:none;" d="M2000 517L2000 1825C1974.25 1806.86 1952.3 1778.3 1930 1756C1921.97 1747.97 1913.17 1735.52 1903 1730.3C1894.02 1725.7 1882.64 1723.94 1873 1720.98C1851.69 1714.42 1830.4 1707.69 1809 1701.42C1797.97 1698.19 1782.44 1696.21 1773 1689.49C1759.33 1679.76 1747.67 1664.96 1735.96 1653.01C1720.14 1636.88 1703.71 1621.28 1687.71 1605.29C1635.68 1553.25 1582.48 1502.56 1530.96 1450.01C1499.23 1417.66 1466.72 1385.48 1434 1354.04C1423.78 1344.22 1413.93 1334.11 1403.91 1324.09C1399.5 1319.68 1393.03 1315.98 1390.56 1310C1386.57 1300.32 1388.24 1285.37 1387.99 1275C1387.53 1256.37 1385.78 1237.66 1384.93 1219C1382.12 1157.85 1375.17 1096.19 1375 1035M2636 1089C2633.77 1140.89 2628.68 1193.24 2624.15 1245C2622.96 1258.63 2621.67 1272.32 2621.08 1286C2620.82 1291.83 2621.56 1301.82 2618.97 1307C2612.53 1319.88 2595.17 1331.83 2585 1342C2558.49 1368.51 2531.52 1394.48 2505 1421C2415.93 1510.07 2327.13 1599.97 2236 1686.96C2225.76 1696.74 2212.06 1698.73 2199 1703C2170.57 1712.29 2139.36 1718.06 2112 1730.11C2103.79 1733.72 2097.24 1742.76 2091 1749L2049 1791L2018 1822C2012.88 1827.12 2007.15 1831.28 2007 1839C2006.8 1849.8 2003.44 1868.76 2007.6 1878.71C2012.41 1890.22 2030.17 1902.17 2039 1911L2099 1971C2107.24 1979.24 2116.48 1992.42 2127 1997.58C2155.59 2011.59 2192.33 2010.35 2220 2026.08C2238.29 2036.48 2253.69 2058.04 2268.83 2072.58C2355 2155.3 2440.66 2239.46 2524.09 2324.96C2546.17 2347.59 2568.98 2370.18 2592 2391.91C2599.93 2399.39 2607.89 2406.95 2615.29 2414.96C2617.95 2417.84 2621.96 2420.22 2623.4 2424.01C2626.09 2431.14 2624.74 2442.37 2625.04 2450C2625.75 2467.99 2626.86 2486.06 2628.09 2504C2632.28 2565.2 2636.37 2626.71 2639 2688M2000 1825L2007 1832M2007 1880C1998.2 1888.9 2000 1898.21 2000 1910L2000 1970L2000 2221L2000 3227M1999 1887L1923 1963C1912.27 1973.73 1900.43 1990.58 1887 1997.72C1879.34 2001.8 1869.3 2003.23 1861 2005.72L1809 2021.28C1799.98 2023.99 1787.47 2025.32 1780 2031.28C1751.88 2053.72 1727.45 2083.55 1702 2109C1645.12 2165.88 1588.97 2223.58 1531.57 2279.92C1500.02 2310.89 1469.77 2343.22 1438 2373.96C1427.16 2384.46 1416.68 2395.32 1406 2406C1400.94 2411.06 1393.26 2416.54 1390.03 2423C1387.36 2428.33 1388.92 2437.1 1388.45 2443C1386.96 2461.6 1387.6 2480.44 1385.83 2499C1382.7 2531.84 1383.17 2565.07 1380.91 2598C1378.41 2634.47 1375.75 2671.44 1375 2708"/>
</svg>
