<?xml version="1.0" standalone="yes"?>
<svg width="4000" height="4500">
<path style="stroke:none;fill:none;" d="M1991 490.424C2019.46 486.687 2052.72 493.938 2081 497.87C2114.35 502.506 2147.87 508.062 2179 521.502C2254.75 554.207 2314.56 611.198 2364.24 676C2426.21 756.854 2474.5 847.818 2510.43 943C2527.1 987.172 2542.91 1032.14 2554.37 1078C2579.41 1178.14 2599.63 1278.51 2612.71 1381C2626.51 1489.06 2631.28 1597.36 2636.04 1706C2640.35 1804.57 2641.36 1903.37 2637.04 2002C2633.97 2072.05 2632.7 2142.04 2627.91 2212C2616.36 2380.67 2590.31 2550.18 2540.03 2712C2502.29 2833.42 2446.87 2951.01 2370.37 3053C2324.44 3114.24 2268.59 3170.85 2199 3204.74C2151.27 3227.99 2099.12 3235.29 2047 3241.72C2007.5 3246.58 1970.38 3243.87 1931 3239.16C1869.49 3231.79 1812.78 3216.37 1760 3183.05C1702.23 3146.59 1656.22 3092.9 1616.58 3038C1550.85 2946.98 1503.39 2842.5 1469.25 2736C1458.28 2701.77 1446.71 2667.22 1439.21 2632C1424.61 2563.43 1408.49 2495.49 1398.43 2426C1366.83 2207.77 1356.59 1986.31 1361.99 1766C1367.71 1532.23 1386.14 1301.07 1446.12 1074C1482.02 938.074 1540.05 806 1622.85 692C1667.39 630.676 1721.43 572.497 1789 536.323C1853.23 501.937 1920.65 499.665 1991 490.424M2000 1558L2000 2154"/>
</svg>
