<?xml version="1.0" standalone="yes"?>
<svg width="4000" height="4500">
<path style="stroke:none;fill:none;" d="M2023 474C2016.77 507.553 2014.6 542.188 2009.73 576C2001.66 632.003 1991.51 687.536 1980.4 743C1975.44 767.753 1969.94 792.719 1963 817C1960.96 824.146 1960.26 836.865 1955.27 842.501C1949.79 848.687 1934.7 851.378 1927 854.003C1903.45 862.034 1879.98 869.759 1856 876.424C1743.52 907.69 1629.56 903 1514 903M1956 844L1986 874C1990.34 878.342 1997.01 883.121 1999.26 889C2003.46 900.006 2000 918.239 2000 930L2000 1025L2000 1340L2000 2716L2000 3108L2000 3210C2000 3219.88 2003.77 3239.87 1997.68 3248C1984.49 3265.61 1969.8 3263 1950 3263L1874 3263L1515 3263M2000 3247L2017 3262.26L2052 3263L2132 3263L2484 3263"/>
</svg>
