<?xml version="1.0" standalone="yes"?>
<svg width="4000" height="4500">
<path style="stroke:none;fill:none;" d="M1435 1025C1443.9 912.283 1484.84 800.338 1546.3 706C1581.19 652.449 1625.34 603.755 1680 569.814C1764.42 517.39 1857.03 505.55 1954 498.911C1992.45 496.278 2030.61 499.221 2069 501.911C2129.15 506.125 2188.81 515.283 2246 535.078C2350.42 571.223 2441.46 644.579 2494.69 742C2520.61 789.447 2539.39 841.117 2550.64 894C2574.92 1008.19 2578.24 1125.26 2567.17 1241C2558.85 1327.99 2546.61 1414.94 2521.56 1499C2471.78 1666.07 2391.81 1817.89 2285.35 1956C2210.57 2053.01 2129.04 2145.92 2043 2233C1943.22 2333.97 1837.5 2428.84 1745.27 2537C1633.46 2668.13 1531.52 2820.45 1487.58 2989C1481.36 3012.85 1478.66 3037.71 1474.59 3062C1467.62 3103.53 1462.17 3145.3 1456.42 3187C1454.98 3197.46 1447.2 3223.51 1454.16 3232C1459.67 3238.71 1469.78 3251.36 1478 3254.4C1483.67 3256.49 1492.01 3255 1498 3255L1543 3255L1742 3255L2585 3255"/>
</svg>
