<?xml version="1.0" standalone="yes"?>
<svg width="4000" height="4500">
<path style="stroke:none;fill:none;" d="M1404 481L2261 481L2462 481C2471.76 481 2489.22 477.635 2498 482.028C2504.1 485.078 2509.23 492.227 2514 497C2517.45 500.453 2523.89 504.89 2524.73 510C2525.93 517.324 2520.3 528.909 2518.29 536C2512.8 555.305 2507.61 574.692 2502.14 594C2495.44 617.631 2489 641.336 2482.42 665C2479.01 677.296 2476.96 691.462 2471.46 703C2462.84 721.067 2445.72 738.2 2433.42 754C2410.98 782.853 2388.96 812.044 2366.65 841C2264.54 973.527 2163.6 1106.99 2062.12 1240C2036.97 1272.95 2011.89 1305.95 1986.87 1339C1975.62 1353.86 1960.69 1368.57 1951.9 1385C1946.3 1395.46 1944.75 1409.6 1941.58 1421C1934.17 1447.65 1926.98 1474.35 1919.58 1501C1914.57 1518.99 1909.33 1536.93 1904.63 1555C1902.76 1562.16 1898.79 1570.6 1898.61 1578C1898.5 1582.67 1903 1586 1906 1589C1913.28 1596.29 1920 1606.12 1931 1606.91C1990.95 1611.24 2048.61 1622.25 2106 1639.77C2274.24 1691.12 2413.53 1832.37 2487.11 1989C2515.98 2050.45 2537.87 2114.37 2551.19 2181C2560.53 2227.7 2564.67 2274.7 2569.17 2322C2580.13 2437.09 2573.58 2556.12 2553.46 2670C2528.69 2810.25 2482.23 2949.11 2386.71 3058C2281.67 3177.75 2126.97 3228.27 1973 3243.17C1938.94 3246.47 1904.21 3250.59 1870 3251C1773.94 3252.14 1675.45 3237.57 1583 3212.49C1513.55 3193.65 1439.69 3169.89 1378 3132"/>
</svg>
