<?xml version="1.0" standalone="yes"?>
<svg width="4000" height="4500">
<path style="stroke:none;fill:none;" d="M2320 490C2304 551.855 2295.33 616.339 2282.8 679C2279.4 695.984 2276.08 712.992 2272.8 730C2271.64 736.055 2271.76 745.832 2267.49 750.61C2258.84 760.276 2238.61 766.444 2227 772.247C2197.59 786.952 2168.41 802.049 2139 816.753C2128.59 821.958 2118.33 827.408 2108 832.741C2103.1 835.271 2096.31 837.293 2092.5 841.39C2087.91 846.325 2085.19 854.947 2082.26 861C1967.97 1097.19 1854.54 1333.8 1740.26 1570C1666.94 1721.54 1596.04 1874.42 1520.75 2025C1488.69 2089.13 1458.97 2154.46 1427.74 2219L1377.74 2322C1370.49 2336.99 1360.79 2352.16 1355.6 2368C1347.62 2392.33 1345.42 2419.89 1340.4 2445C1333.8 2477.98 1327.59 2511.02 1321 2544C1319.32 2552.42 1311.93 2571.69 1317.32 2579C1320.24 2582.96 1325.29 2588.66 1330 2590.4C1336.7 2592.87 1346.91 2591 1354 2591L1408 2591L1667 2591L2734 2591M2268 751L2304 787L2319.4 804L2320 821L2320 856L2320 975L2320 1409L2320 3255"/>
</svg>
