<?xml version="1.0" standalone="yes"?>
<svg width="4000" height="4500">
<path style="stroke:none;fill:none;" d="M1390 3201C1540.11 3243.2 1696.83 3257.73 1852 3247.09C1971.44 3238.9 2088.76 3215.69 2193 3153.55C2384.68 3039.28 2495.27 2823.01 2540.49 2611C2552.13 2556.43 2557.28 2500.55 2561.09 2445C2563.23 2413.81 2566.9 2382.27 2567 2351C2567.19 2292.24 2560.29 2232.38 2554.17 2174C2540.92 2047.55 2505.78 1917.96 2438.54 1809C2345.24 1657.8 2188.17 1544.59 2016 1500.48C1936.09 1480 1855.89 1474.7 1774 1469.09C1740.74 1466.81 1707.18 1473.17 1674 1473.99C1626.59 1475.15 1578.2 1470.68 1531 1475.17C1509.1 1477.25 1486.9 1476.09 1465 1478.17C1456.09 1479.02 1443.14 1482.23 1436 1475.89C1431.36 1471.77 1423.8 1465.94 1421.6 1460C1418.38 1451.26 1421 1437.29 1421 1428L1421 1355L1421 1021L1421 634L1421 534C1421 524.121 1417.23 504.13 1423.32 496C1426.93 491.181 1433.27 483.93 1439 481.742C1444.71 479.562 1452.96 481 1459 481L1502 481L1714 481L2595 481"/>
</svg>
