<?xml version="1.0" standalone="yes"?>
<svg width="4000" height="4500">
<path style="stroke:none;fill:none;" d="M2101 460C2042.6 555.067 1980.57 647.715 1924.01 744C1813.58 932.001 1711.76 1126.59 1627.99 1328C1617.31 1353.67 1603.48 1379.21 1595.78 1406C1590.91 1422.95 1589.5 1441.61 1586.59 1459C1580.22 1496.95 1574.47 1534.98 1568.58 1573C1565.37 1593.64 1562.64 1614.34 1559.58 1635C1558.56 1641.85 1554.68 1653.78 1558.6 1660C1561.93 1665.28 1573.54 1679.01 1580 1679.61C1583.94 1679.98 1589.31 1676.94 1593 1675.66C1603.32 1672.07 1613.63 1668.46 1624 1665C1656.86 1654.05 1690.16 1644.05 1724 1636.58C1752.42 1630.3 1783.16 1628.33 1811 1620.51C1829.64 1615.26 1847.17 1604.6 1866 1599.04C1915.23 1584.5 1971.67 1574.29 2023 1572.04C2043.53 1571.14 2064.68 1575.07 2085 1577.72C2121.34 1582.45 2158.1 1587.31 2193 1598.88C2349.58 1650.78 2452.77 1806.3 2505.7 1955C2568.64 2131.84 2583.84 2327.77 2571.09 2514C2560.06 2675.07 2533.46 2833.58 2454.69 2977C2406.5 3064.73 2334.47 3149.18 2244 3194.73C2189.89 3221.98 2131.75 3232.77 2072 3239.17C2050.86 3241.43 2029.26 3244.71 2008 3244.98C1986.88 3245.25 1964.99 3241.41 1944 3239.17C1885.3 3232.88 1827.67 3221.51 1774 3196.11C1697.65 3159.98 1631.74 3097.8 1586.09 3027C1510.34 2909.53 1469.55 2777.49 1449.3 2640C1441.83 2589.3 1439.41 2538.05 1435.91 2487C1425.42 2333.84 1434.07 2176.16 1462.39 2025C1478.48 1939.14 1501.73 1854.82 1535.14 1774C1547.95 1743.02 1560.39 1709.03 1579 1681"/>
</svg>
