<?xml version="1.0" standalone="yes"?>
<svg width="4000" height="4500">
<path style="stroke:none;fill:none;" d="M1404 481L2268 481L2478 481L2523 481C2529.26 481 2538.08 479.419 2544 481.604C2549.89 483.776 2555.86 491.352 2559.9 496C2567.37 504.597 2559.44 526.487 2558 537C2552.54 576.735 2545.67 616.274 2540.13 656C2537.42 675.413 2535.81 695.977 2531.1 715C2519.22 763.047 2497.29 810.362 2480.69 857C2443.7 960.949 2404.55 1065.34 2372.72 1171C2343.68 1267.39 2307.91 1361.83 2278.03 1458C2194.87 1725.59 2111.51 1992.95 2036.42 2263C1974.72 2484.94 1915.03 2707.83 1861.88 2932C1835.54 3043.12 1812.61 3155.46 1784 3266"/>
</svg>
