<?xml version="1.0" standalone="yes"?>
<svg width="4000" height="4500">
<path style="stroke:none;fill:none;" d="M1994 490.424C2008.44 488.528 2023.59 490.918 2038 491.911C2065.74 493.82 2093.45 496.501 2121 500.579C2155.47 505.681 2190.03 514.175 2222 528.309C2252.58 541.829 2281.3 558.715 2308 578.898C2442.82 680.815 2494.07 850.009 2510.17 1011C2513.74 1046.71 2518.53 1083.12 2518.98 1119C2519.3 1144.38 2515.61 1170.74 2513.17 1196C2508.6 1243.22 2504.51 1290.66 2493.76 1337C2479.51 1398.47 2458.73 1457.84 2429.74 1514C2393.9 1583.45 2343.97 1649.38 2286 1701.83C2273.45 1713.19 2261.1 1724.84 2248 1735.58C2240.93 1741.37 2231.2 1746.82 2225.7 1754.17C2221.78 1759.41 2220.09 1767 2217.58 1773C2211.56 1787.33 2205.68 1801.71 2199.58 1816C2195.58 1825.38 2191.49 1834.71 2187.31 1844C2185.64 1847.71 2182.2 1852.85 2182.45 1857C2183.21 1869.58 2194.86 1886.37 2199.85 1898C2205.55 1911.27 2211.23 1924.59 2216.6 1938C2219.28 1944.68 2221.29 1953.13 2225.65 1958.91C2231.71 1966.97 2242.26 1972.71 2250 1979.08C2266.98 1993.06 2283.91 2007.1 2300 2022.09C2363.22 2080.99 2421.11 2147.77 2464.13 2223C2492.94 2273.39 2515.71 2326.41 2532.38 2382C2545.57 2425.98 2552.29 2471.44 2557.17 2517C2560.07 2544.1 2564.42 2571.76 2564.95 2599C2565.51 2628.31 2560.08 2658.83 2557.17 2688C2550.76 2752.11 2539.3 2814.62 2519.41 2876C2480.18 2997.04 2396.54 3107.9 2285 3170.52C2223.41 3205.09 2156.4 3220.59 2087 3229.72C1994.25 3241.91 1896.95 3236.05 1807 3208.43C1698.59 3175.15 1610.98 3096.38 1548.25 3004C1482.86 2907.7 1450.95 2796.89 1439.83 2682C1437.6 2658.96 1434.08 2635.14 1434.08 2612C1434.08 2579.91 1439.42 2546.91 1442.83 2515C1452.16 2427.93 1474.55 2343.9 1512.95 2265C1557.2 2174.08 1621.06 2097.19 1693 2027.01C1710.55 2009.89 1730.11 1994.36 1749 1978.75C1756.88 1972.24 1768.29 1966.21 1774.3 1957.91C1778.53 1952.07 1780.51 1943.66 1783.2 1937C1788.61 1923.59 1794.34 1910.3 1800 1897C1804.76 1885.82 1815.61 1870.03 1816.54 1858C1816.85 1853.93 1813.46 1849.58 1811.86 1846C1807.39 1835.98 1802.82 1826.01 1798.31 1816C1792.5 1803.13 1786.93 1790.07 1781.6 1777C1778.83 1770.19 1776.61 1761.19 1772.18 1755.3C1767.31 1748.81 1758.33 1743.87 1752 1738.8C1739.64 1728.9 1727.74 1718.45 1716 1707.83C1647.49 1645.84 1590.66 1571.58 1549.37 1489C1522.13 1434.52 1502.98 1376.26 1489.5 1317C1480.71 1278.34 1475.77 1239.4 1471.83 1200C1469.12 1172.86 1465.55 1145.27 1465.02 1118C1464.39 1086.38 1469.68 1053.47 1472.83 1022C1479.52 955.151 1491.24 889.682 1513.08 826C1548.7 722.105 1618.25 626.13 1710 565.076C1756.88 533.882 1809.69 513.277 1865 503.17C1907.71 495.365 1951.24 496.041 1994 490.424M1819 1857L1938 1856L2181 1857"/>
</svg>
