<?xml version="1.0" standalone="yes"?>
<svg width="4000" height="4500">
<path style="stroke:none;fill:none;" d="M1986 499.424C2014.96 495.62 2049.09 503.385 2078 506.845C2117.05 511.518 2155.97 517.839 2193 531.53C2309.43 574.573 2388.49 664.569 2448.43 770C2527.13 908.443 2551.38 1071.63 2562.09 1228C2572.85 1385.13 2569.72 1547.61 2540.61 1703C2523.46 1794.54 2502.1 1885.99 2465.42 1972C2456.41 1993.14 2447.65 2014.41 2437.42 2035C2433.55 2042.79 2430.33 2053.28 2424.39 2059.72C2417.68 2067 2401.15 2069.44 2392 2072.69C2364.76 2082.39 2337.04 2091.27 2309 2098.37C2274.08 2107.22 2237.59 2111.56 2203 2120.93C2181.58 2126.73 2161.58 2138.74 2140 2145C2098.07 2157.17 2053.28 2163.33 2010 2168.72C1972.9 2173.33 1937.9 2169.26 1901 2164.13C1855.67 2157.83 1810.62 2149.96 1769 2130.02C1591.3 2044.9 1498.5 1845.88 1457.57 1663C1441.42 1590.79 1433.96 1517.65 1428.91 1444C1424.95 1386.23 1423.43 1328.87 1425.96 1271C1435.09 1062.6 1467.82 847.949 1600.79 679C1637.53 632.314 1680.89 591.112 1732 560.449C1765.97 540.068 1803.33 525.508 1842 517.014C1889.49 506.581 1938.1 505.716 1986 499.424M2424 2061C2431.72 2068.72 2449.15 2080.47 2452.31 2091C2454.38 2097.9 2450.47 2109.9 2449.42 2117C2446.51 2136.64 2443.87 2156.33 2441.13 2176C2436.34 2210.4 2430.75 2244.68 2425.42 2279C2422.47 2298.06 2420.81 2318.42 2415.57 2337C2408.73 2361.26 2396.85 2384.84 2387 2408C2255.33 2717.6 2088.09 3008.03 1899 3286"/>
</svg>
