<?xml version="1.0" standalone="yes"?>
<svg width="4000" height="4500">
<path style="stroke:none;fill:none;" d="M1312 1927C1328.28 1926.44 1344.69 1927 1361 1927C1366.44 1927 1375.98 1928.82 1380.79 1925.97C1387.61 1921.93 1391.13 1905.1 1394.15 1898C1402.2 1879.09 1410.09 1860.05 1417.8 1841C1421.09 1832.86 1423.89 1820.57 1430.21 1814.33C1449.5 1795.29 1477.59 1780.9 1500 1765.66C1544.27 1735.53 1588.45 1705.01 1632 1673.86C1706.77 1620.37 1783.31 1569.15 1859 1516.97C1997.26 1421.68 2134.74 1325.27 2273 1229.97C2347.81 1178.41 2421.88 1125.77 2497 1074.66C2525.14 1055.51 2552.27 1032.55 2582 1016M1383 1928L1409.99 1995L1424.39 2027.91L1454 2050.14L1518 2095.42L1721 2240.72L2228 2604.58L2432 2750.58L2579 2856"/>
</svg>
