<?xml version="1.0" standalone="yes"?>
<svg width="4000" height="4500">
<path style="stroke:none;fill:none;" d="M1398 629C1416.5 621.824 1433.99 611.637 1452 603.31C1485.8 587.683 1520.65 573.443 1556 561.749C1647.51 531.472 1739.93 517.935 1835 506.715C1941.78 494.112 2052.92 499.356 2159 516.411C2201.35 523.219 2241.69 536.605 2281 553.427C2300.69 561.854 2319.21 573.498 2337 585.333C2473.17 675.947 2519.27 840.054 2534.17 994C2537.9 1032.5 2543.66 1072.27 2541.96 1111C2539.9 1157.98 2534.75 1205.27 2529.16 1252C2522.72 1305.74 2509.91 1358.56 2493.25 1410C2473.55 1470.85 2444.54 1529.94 2410.47 1584C2377.94 1635.61 2340.5 1684.35 2298.91 1729C2263.92 1766.56 2225.61 1800.87 2191.17 1839C2155.36 1878.65 2123.42 1920.96 2091.89 1964C2020.05 2062.06 1980.21 2179.79 1975 2301M1976 3051L1976 3208"/>
</svg>
