<?xml version="1.0" standalone="yes"?>
<svg width="4000" height="4500">
<path style="stroke:none;fill:none;" d="M2829 3178C2785.71 3189.2 2740.15 3195.58 2696 3202.42C2607.14 3216.21 2518.44 3227.62 2429 3236.17C2353.04 3243.43 2277.18 3246.7 2201 3250.04C2148.54 3252.34 2095.6 3254.27 2043 3252.99C1728.93 3245.29 1386.36 3176.86 1171.43 2926C992.087 2716.68 936.284 2438.38 910.83 2172C901.352 2072.81 897.599 1971.61 901.961 1872C905.756 1785.32 909.692 1699.22 920.286 1613C966.757 1234.82 1132.63 826.992 1478 629.427C1555.32 585.196 1638.04 553.564 1724 530.884C1798.6 511.201 1875.29 502.167 1952 496.911C2140.65 483.984 2333.66 506.94 2507 586.309C2622.79 639.327 2727.66 720.706 2812.83 815C2862.37 869.844 2903.86 932.769 2938.22 998C3032.37 1176.77 3064.47 1377.08 3078.09 1576C3084.79 1673.87 3084.79 1772.11 3078.09 1870C3063.83 2078.3 3033.05 2284.36 2950.43 2478C2930.24 2525.32 2906.52 2570.9 2880 2615C2873.04 2626.58 2865.55 2637.75 2858.08 2649C2854.55 2654.31 2851.33 2661.37 2845.91 2665.01C2830.28 2675.49 2805.82 2679.39 2788 2685.33C2773.18 2690.27 2757.43 2697.1 2742 2699.67C2731.79 2701.38 2720.34 2700 2710 2700L2648 2700L2496 2700L2432 2700C2422.43 2700 2410.29 2702.01 2401 2699.68C2394.93 2698.16 2384.75 2687.81 2382.6 2682C2378.82 2671.73 2382 2654.94 2382 2644L2382 2557C2382 2552.94 2382.83 2547.75 2380.97 2544C2378.96 2539.95 2375.27 2537.86 2374.98 2533C2370.71 2462.26 2375 2389.89 2375 2319L2375 1503L2375 1275L2375 1208C2375 1199.26 2377.43 1186.23 2374.4 1178C2369.57 1164.92 2344.84 1161.27 2333 1157.86C2292.79 1146.28 2252.84 1134.59 2212 1125.35C2194.41 1121.37 2172.49 1120.72 2156 1113.63C2145.89 1109.29 2136.65 1101.83 2127 1096.47C2106.93 1085.35 2085.73 1075.63 2064 1068.18C2034.21 1057.96 2002.96 1052.16 1972 1046.58C1951.89 1042.95 1930.46 1037.63 1910 1037.13C1892.85 1036.71 1873.89 1041.75 1857 1044.59C1828.7 1049.33 1798.99 1053.15 1772 1063.23C1624.81 1118.16 1566.56 1288.77 1528.25 1427C1505.29 1509.87 1491.13 1596.55 1482.83 1682C1463.87 1877.13 1470.4 2074.71 1511.49 2267C1538.13 2391.67 1586.08 2525.53 1691 2605.5C1730.79 2635.82 1778.4 2650.03 1827 2658.08C1852.54 2662.31 1880.06 2668.92 1906 2668.92C1922.44 2668.92 1939.75 2664.61 1956 2662.27C1991.89 2657.1 2028.43 2651.07 2063 2639.97C2084.26 2633.15 2105.16 2624.11 2125 2613.89C2135.12 2608.68 2145.2 2600.49 2156 2596.99C2176.09 2590.46 2198.39 2588 2219 2583.12C2270.07 2571.01 2324.96 2557.39 2373 2536M2382 1028L2382 1132C2382 1147.62 2385.67 1164.28 2374 1176"/>
</svg>
