<?xml version="1.0" standalone="yes"?>
<svg width="4000" height="4500">
<path style="stroke:none;fill:none;" d="M2552 2191C2546.91 2196.09 2540.87 2204.86 2534 2207.4C2528.85 2209.3 2521.43 2208 2516 2208L2478 2208L2327 2208L1694 2208L1507 2208C1491.22 2208 1453.61 2215.32 1446.2 2197C1443.25 2189.72 1448.18 2175.71 1449.05 2168C1452.02 2141.61 1456.26 2115.33 1459.72 2089C1465.19 2047.42 1467.78 2003.98 1476.67 1963C1480.54 1945.15 1487.45 1927.55 1492.58 1910C1506.15 1863.54 1521 1817.46 1534.58 1771C1613.26 1501.69 1696.67 1233.73 1777.28 965C1805.78 869.985 1833.54 774.729 1862.97 680C1870.2 656.755 1877.22 633.422 1883.86 610C1887.59 596.841 1890.25 581.243 1896.42 569.015C1902.31 557.354 1926.08 548.378 1937 541.576C1950.72 533.03 1968.3 517.25 1984 513.418C1995.23 510.676 2021.12 509.943 2032 513.818C2045.27 518.545 2057.93 529.73 2070 537C2081.62 544 2095.63 550.691 2105.86 559.609C2110.24 563.434 2111.05 570.649 2112.58 576C2116.2 588.7 2119.93 601.354 2123.72 614C2138.2 662.269 2152.27 710.627 2166.42 759C2218.15 935.843 2270.57 1112.57 2323.72 1289C2364.21 1423.42 2402.38 1558.53 2442.72 1693C2468.71 1779.65 2498.26 1866.25 2520.25 1954C2525.57 1975.2 2526.43 1998.34 2529.28 2020C2534.37 2058.68 2539.63 2097.32 2544.72 2136C2546.92 2152.75 2546.93 2171.8 2551.72 2188C2553.41 2193.69 2559.3 2196.28 2564 2199.19C2573.59 2205.13 2595.41 2213.57 2600.15 2224.04C2612.55 2251.43 2617.09 2284.26 2626.03 2313C2649.03 2387.04 2670.83 2461.58 2692.58 2536C2737.42 2689.48 2783.73 2842.53 2828.58 2996C2844.75 3051.37 2861.77 3106.54 2877.58 3162C2886.81 3194.38 2893.36 3230.2 2907 3261M1083 3268C1096.43 3237.69 1103.12 3202.8 1112.42 3171C1127.77 3118.55 1144.02 3066.34 1159.72 3014C1213.1 2836.03 1264.11 2656.98 1320.66 2480C1339.73 2420.31 1356.38 2359.84 1374.97 2300C1380.14 2283.38 1385.18 2266.73 1390 2250C1391.92 2243.32 1393.1 2232.75 1397.56 2227.33C1401.44 2222.62 1408.83 2219.52 1414 2216.4C1424.03 2210.35 1433.76 2203.68 1444 2198"/>
</svg>
