<?xml version="1.0" standalone="yes"?>
<svg width="4000" height="4500">
<path style="stroke:none;fill:none;" d="M2458 1754C2470.81 1769.03 2481.06 1787.1 2491.2 1804C2495.61 1811.34 2499.67 1821.89 2506.19 1827.53C2516.29 1836.27 2531.4 1840.65 2543 1847.17C2567.53 1860.97 2591.57 1875.73 2615 1891.35C2684.63 1937.79 2748.74 1996.51 2799.5 2063C2892.37 2184.65 2933.18 2334.03 2948.17 2484C2951.76 2519.96 2956.66 2556.85 2956.66 2593C2956.66 2625.51 2952.3 2658.65 2949.17 2691C2938.2 2804.31 2911.36 2913.56 2844.79 3008C2775.43 3106.4 2659.51 3180.28 2544 3211.71C2486.05 3227.48 2427.55 3233.48 2368 3239.17C2259.5 3249.54 2150.06 3247 2041 3247L1593 3247L1282 3247L1206 3247C1200.76 3247 1183.48 3249.75 1180.03 3245.4C1175.87 3240.15 1179 3222.6 1179 3216L1179 3133L1179 2811L1179 1563L1179 752L1179 556L1179 513C1179 503.921 1178.26 496.131 1187 490.604C1196.51 484.587 1219.85 489 1231 489L1347 489L1778 489C1921.77 489 2066.71 484.092 2210 493.911C2292.07 499.534 2374.1 508.051 2452 536.09C2552.92 572.415 2650.29 643.429 2709.9 733C2760.4 808.888 2785.41 896.234 2796.16 986C2800.21 1019.89 2806.43 1054.83 2806.43 1089C2806.43 1119.71 2801.25 1151.57 2797.28 1182C2787.66 1255.84 2773.01 1327.16 2743.72 1396C2712.96 1468.26 2664.92 1532.13 2606 1583.72C2588.95 1598.64 2570.85 1613.08 2552 1625.67C2541.61 1632.6 2526.7 1638.86 2518.39 1648.18C2510.65 1656.88 2506.68 1671.65 2501.22 1682C2488.3 1706.48 2474.91 1732 2458 1754M1180 1755L2458 1754"/>
</svg>
