<?xml version="1.0" standalone="yes"?>
<svg width="4000" height="4500">
<path style="stroke:none;fill:none;" d="M2956 2392C2953.94 2418.14 2947.63 2444.39 2942.21 2470C2932.84 2514.27 2921.82 2558.01 2907.67 2601C2826.31 2848.18 2661 3066.64 2417 3171.13C2325.73 3210.21 2230.12 3227.79 2132 3237.17C2099.25 3240.3 2064.89 3244.58 2032 3243.95C1996.1 3243.25 1959.75 3239.59 1924 3236.17C1791.67 3223.52 1659.56 3188.65 1548 3113.25C1263.57 2921.02 1133.04 2583.58 1080.56 2257C1070.65 2195.32 1063.18 2133.28 1058.91 2071C1053.07 1985.75 1045.92 1899.62 1048.01 1814C1055.67 1501.65 1100.18 1181.52 1268.57 911C1348.73 782.237 1453.04 665.208 1587 590.861C1660.48 550.084 1740.29 521.347 1823 506.463C1878.24 496.523 1934.07 493.408 1990 490.961C2094.2 486.401 2201.33 493.198 2303 517.898C2409.81 543.846 2510.12 590.803 2601 652.255C2660.9 692.755 2717.51 738.938 2764.7 794C2818.57 856.853 2859.44 928.207 2891.87 1004C2914.28 1056.36 2930.95 1111.37 2943.01 1167C2947.29 1186.71 2954.13 1207.79 2955 1228"/>
</svg>
