<?xml version="1.0" standalone="yes"?>
<svg width="4000" height="4500">
<path style="stroke:none;fill:none;" d="M1180 490.028C1189.85 485.101 1210.02 489 1221 489L1321 489C1441.67 489 1562.49 488.036 1683 490.985C1804.19 493.952 1926.5 500.513 2045 528.503C2240.86 574.767 2421.04 669.68 2560.96 816C2714.53 976.595 2813.4 1182.19 2864.24 1397C2889.36 1503.15 2903.65 1610.31 2911.09 1719C2914.87 1774.29 2919.66 1830.54 2919 1886C2915.02 2220.42 2839.37 2560.53 2631.65 2830C2583.79 2892.09 2529.22 2950.83 2468 3000C2404.69 3050.85 2337.13 3094.36 2264 3129.74C2004.78 3255.17 1711.82 3247 1431 3247L1233 3247L1187 3247C1179 3247 1171.74 3248.1 1166.32 3241C1161.01 3234.04 1164 3218.41 1164 3210L1164 3128L1164 2813L1164 1597L1164 757L1164 558C1164 536.188 1156.31 501.875 1180 490.028"/>
</svg>
