<?xml version="1.0" standalone="yes"?>
<svg width="4000" height="4500">
<path style="stroke:none;fill:none;" d="M2303 1895L2742 1895L2856 1895C2866.83 1895 2890.16 1890.65 2899 1897.32C2906.79 1903.2 2906 1910.21 2906 1919L2906 1962L2906 2150L2906 2820L2906 2985C2906 3003.97 2911.24 3033.86 2895.5 3048.44C2891.45 3052.19 2882.26 3052.55 2877 3053.6C2862.67 3056.47 2848.28 3059.29 2834 3062.42C2793.92 3071.23 2753.38 3078.3 2713 3085.58C2693.28 3089.13 2670.42 3089.78 2652 3097.86C2591.68 3124.31 2531.08 3149.5 2468 3168.79C2181.02 3256.57 1851.32 3267.61 1577 3132.4C1507.91 3098.34 1445.41 3053.73 1387 3003.73C1328.44 2953.6 1277.02 2892 1234.35 2828C1197.14 2772.18 1168.65 2710.96 1143.55 2649C1085.35 2505.33 1055.53 2349.77 1040.83 2196C1031.6 2099.47 1024.57 2002.1 1024.57 1905C1024.57 1855.29 1027.79 1805.6 1029.96 1756C1034.47 1653.13 1043.25 1550.36 1062.8 1449C1104.48 1232.98 1187.42 1025.63 1321.5 850C1423.36 716.584 1553.66 600.635 1712 540.065C1825.64 496.593 1953.34 485.68 2074 490.961C2187.52 495.928 2298.04 510.464 2405 551.066C2525.23 596.703 2636.95 672.191 2722.7 768.039C2795.69 849.63 2847.43 950.997 2877 1056M2896 3050C2910.91 3064.92 2906 3086.95 2906 3107L2906 3247"/>
</svg>
