<?xml version="1.0" standalone="yes"?>
<svg width="4000" height="4500">
<path style="stroke:none;fill:none;" d="M2730 456C2546.17 639.826 2366.51 827.926 2184.99 1014C2099.71 1101.41 2013.34 1187.75 1928.96 1276C1891.32 1315.36 1849.89 1351.93 1814.13 1393C1806.66 1401.58 1804.57 1417.3 1801 1428C1792.37 1453.9 1783.1 1479.8 1775.42 1506C1772.27 1516.76 1769.25 1537.38 1761.49 1545.58C1753.62 1553.9 1732.72 1556.76 1722 1560.33C1697.62 1568.46 1673.22 1576.69 1649 1585.31C1638.59 1589.01 1625.4 1590.99 1616 1596.84C1605.61 1603.31 1596.69 1616.31 1588 1625C1567.16 1645.84 1546.85 1667.15 1526 1688C1514.94 1699.06 1504.33 1714.87 1491 1723.16C1483.86 1727.59 1473.95 1729.35 1466 1732C1419.96 1747.35 1374.04 1762.99 1328 1778.33C1316.63 1782.12 1305.37 1786.21 1294 1790C1289.41 1791.53 1283.22 1792.43 1280.8 1797.11C1275.35 1807.63 1272.75 1820.75 1269 1832C1264.97 1844.08 1258.72 1857.33 1257.18 1870C1253.3 1902.01 1257 1936.74 1257 1969L1257 2233L1257 3246M1257 497L1257 1455L1257 1683L1257 1742C1257 1749.64 1254.95 1760.79 1257.6 1768C1261.13 1777.56 1274.86 1786.86 1282 1794M1762 1546L1811.1 1595.09L1844.31 1654L1893.42 1740L2047.42 2010L2521.58 2840L2671.14 3102L2725.69 3198L2766 3268"/>
</svg>
