<?xml version="1.0" standalone="yes"?>
<svg width="4000" height="4500">
<path style="stroke:none;fill:none;" d="M976 3239L976 1162L976 739L976 626C976 614.84 971.59 591.525 977.603 582C983.942 571.96 995.613 563.387 1004 555C1007.48 551.515 1011.25 546.356 1016 544.604C1028.57 539.97 1049.59 544 1063 544C1077.16 544 1096.43 540.579 1110 544.649C1124.73 549.067 1139.65 561.488 1153 569.15C1179.75 584.508 1208.67 598.58 1233.96 616.243C1241.54 621.543 1244.12 635.566 1247 644C1254.42 665.768 1262.37 687.458 1270.42 709C1303 796.114 1333.85 883.883 1366.42 971C1490.77 1303.57 1608.99 1638.54 1730.95 1972C1760.68 2053.3 1789.71 2134.88 1819.95 2216C1829.26 2240.96 1838.24 2266.05 1847.58 2291C1851.28 2300.9 1853.59 2314.31 1859.7 2322.96C1864.93 2330.35 1877.27 2334.74 1885 2339.15C1903.71 2349.83 1922.31 2360.71 1941 2371.42C1948.3 2375.61 1959.49 2385.43 1968 2385.97C1975.87 2386.46 1988.21 2376.04 1995 2372.31C2013.7 2362.04 2032.11 2351.16 2051 2341.26C2059.52 2336.78 2073.51 2331.79 2079.3 2323.91C2086.26 2314.43 2089.25 2299.88 2093.6 2289L2123.2 2215C2155.04 2135.4 2186.85 2055.79 2218.2 1976C2349.42 1642.06 2483.34 1309.13 2616.6 976C2651.78 888.046 2686.62 799.953 2721.8 712C2731.13 688.669 2740.61 665.388 2749.8 642C2753.31 633.056 2755.72 619.807 2764.02 614.105C2789.53 596.566 2819.1 583.498 2846 568.15C2859.01 560.726 2875.38 547.675 2890 544.394C2901.04 541.915 2914.69 544 2926 544C2937.22 544 2957.93 539.994 2968 545.028C2977.68 549.869 2986.38 562.378 2994 570C3000.2 576.201 3010.02 583.102 3013.97 591C3016.07 595.201 3015 601.432 3015 606L3015 638L3015 753L3015 1163L3015 3247"/>
</svg>
