<?xml version="1.0" standalone="yes"?>
<svg width="4000" height="4500">
<path style="stroke:none;fill:none;" d="M2812 497L2812 2542L2812 3030L2812 3125C2812 3137.04 2815.56 3155.71 2811.4 3167C2809.51 3172.12 2803.75 3176.25 2800 3180C2791.61 3188.39 2783.04 3200.06 2773 3206.4C2764.36 3211.85 2744.08 3208 2734 3208C2722.05 3208 2706.51 3210.63 2695 3207.36C2685.18 3204.58 2676.06 3197.81 2667 3193.25C2644.49 3181.92 2622.39 3169.81 2600 3158.26C2588.85 3152.5 2570.9 3147.08 2562.39 3137.79C2553.6 3128.18 2548.44 3109.9 2543.14 3098C2531.32 3071.48 2518.62 3045.26 2506.22 3019C2453.96 2908.37 2404.01 2796.65 2351.78 2686C2230.64 2429.37 2113.11 2170.89 1994.69 1913C1853.67 1605.89 1709.71 1300.12 1568.69 993C1532.95 915.158 1495.97 837.89 1460.31 760C1449.32 736 1438.73 711.773 1427.26 688C1423.38 679.966 1420.39 667.527 1413.79 661.39C1402.57 650.975 1382.67 644.638 1369 637.752C1336.29 621.283 1302.84 605.077 1271 587C1256.58 578.816 1228.47 572.604 1227 554M1229 565L1190 604L1172.03 623L1171 640L1171 677L1171 811L1171 1271L1171 3246"/>
</svg>
