<?xml version="1.0" standalone="yes"?>
<svg width="4000" height="4500">
<path style="stroke:none;fill:none;" d="M1991 489.424C2002.98 487.851 2015.06 489.693 2027 489.985C2058.14 490.748 2088.95 492.735 2120 494.911C2171.21 498.499 2221.49 507.833 2271 521.289C2444.04 568.318 2588.49 685.296 2701.44 821C2746.76 875.455 2787.55 933.847 2821.69 996C2844.3 1037.17 2863.4 1079.87 2881.87 1123C2942.49 1264.55 2973.48 1416.95 2993.29 1569C3012.27 1714.69 3015.46 1862.37 3009.04 2009C2995.99 2307.11 2943.36 2624.8 2762.12 2871C2723.22 2923.84 2677.67 2972.89 2629 3016.83C2564.07 3075.45 2491.46 3118.92 2414 3158.31C2339.67 3196.1 2254.03 3216.62 2172 3228.7C2064.52 3244.53 1955.55 3247.2 1848 3231.7C1760.15 3219.04 1674.23 3195.05 1593 3159.14C1536.43 3134.13 1482.44 3101.98 1433 3064.9C1375.03 3021.42 1322.71 2971.82 1275.28 2917C1106.49 2721.93 1029.24 2464.59 993.714 2214C981.44 2127.43 976.782 2040.27 972.961 1953C969.66 1877.61 971.753 1802.31 976.911 1727C996.681 1438.31 1057.93 1142.98 1229.43 903C1275.9 837.964 1328.51 777.397 1387 722.911C1447.85 666.223 1514.95 616.479 1589 578.259C1672.8 535.009 1763.73 508.892 1857 497.286C1901.38 491.764 1946.89 495.218 1991 489.424"/>
</svg>
