<?xml version="1.0" standalone="yes"?>
<svg width="4000" height="4500">
<path style="stroke:none;fill:none;" d="M1226 1754L1226 805L1226 575L1226 528C1226 521.738 1224.42 512.924 1226.6 507C1228.69 501.349 1236.26 494.866 1241 491.318C1248.52 485.686 1265.91 489 1275 489L1364 489L1707 489L1902 489C1952.34 489 2002.76 490.762 2053 492.961C2299.07 503.729 2587.77 534.308 2750.64 744C2769.9 768.81 2785.65 797.515 2798.69 826C2817.67 867.456 2830.79 912.035 2838.15 957C2847.3 1012.98 2858.23 1074.27 2852.83 1131C2844.12 1222.44 2834.5 1312.46 2795.69 1397C2779.88 1431.44 2760.21 1464.11 2736.88 1494C2566.3 1712.59 2265.37 1745.72 2008 1752.01C1958.4 1753.23 1908.66 1755 1859 1755L1661 1755L1340 1755L1257 1755C1250.4 1755 1232.85 1751.87 1227.6 1756.03C1223.54 1759.24 1226 1774.19 1226 1779L1226 1846L1226 2120L1226 3239"/>
</svg>
