<?xml version="1.0" standalone="yes"?>
<svg width="4000" height="4500">
<path style="stroke:none;fill:none;" d="M2098 2532C2098 2572.41 2101.2 2612.69 2102.96 2653C2105.82 2718.31 2108.95 2783.92 2115.17 2849C2120.58 2905.61 2127.48 2962.2 2129.96 3019C2131.83 3061.68 2131.99 3104.39 2134.91 3147C2135.95 3162.2 2132.72 3183.82 2138.56 3198C2142.56 3207.7 2155.64 3216.64 2163 3224C2156.5 3230.5 2149.27 3240.84 2141 3244.97C2135.68 3247.63 2126.83 3246 2121 3246L2074 3246C2014.44 3246 1955.32 3241.25 1896 3237.09C1691.07 3222.72 1493.72 3132.39 1344 2992.91C1261.76 2916.3 1197.45 2824.41 1142.42 2727C1109.59 2668.88 1085.5 2604.94 1063.92 2542C1012.72 2392.67 989.655 2235.89 978.911 2079C974.116 2008.99 969.168 1938.27 970.004 1868C971.836 1713.91 987.675 1559.03 1018.55 1408C1050.27 1252.85 1105.31 1098.94 1189.06 964C1246.67 871.196 1317.14 787.485 1397 713.089C1493.3 623.386 1612.7 553.713 1740 519.489C1832.81 494.537 1931.28 487.643 2027 489.985C2129.72 492.499 2229.9 504.27 2327 539.544C2426.74 575.779 2518.51 636.185 2597 707.17C2699.85 800.191 2788.15 914.924 2850.19 1039C2927.28 1193.18 2972.59 1360.87 2996.71 1531C3009.86 1623.71 3014.95 1716.62 3019.04 1810C3023.73 1917.22 3018.38 2024.19 3008.17 2131C2977.65 2450.27 2883.78 2779.69 2642 3004.91C2588.84 3054.43 2529.6 3097.29 2466 3132.31C2439.45 3146.92 2411.7 3162.07 2383 3172.14C2371.32 3176.23 2358.14 3177.34 2346 3179.61C2320.08 3184.46 2294.02 3188.5 2268 3192.75C2255.44 3194.81 2236.18 3193.91 2225 3199.99C2215.25 3205.29 2206.82 3217.18 2199 3225C2204.63 3230.63 2213.17 3236.7 2216.57 3244C2219.29 3249.85 2219.19 3257.68 2220.25 3264C2222.53 3277.68 2224.88 3291.34 2227.25 3305C2234.85 3348.76 2242.85 3392.8 2253.24 3436C2258.01 3455.88 2274.39 3478.05 2285.67 3495C2304.95 3523.99 2323.01 3553.42 2344.43 3581C2366.48 3609.42 2392.51 3637.35 2420 3660.56C2581.97 3797.29 2802.76 3813.94 3006 3805.04C3070.26 3802.23 3133.72 3794.32 3197 3782.46C3230.54 3776.17 3267.53 3769.54 3299 3756M2164 3225L2199 3225"/>
</svg>
