<?xml version="1.0" standalone="yes"?>
<svg width="4000" height="4500">
<path style="stroke:none;fill:none;" d="M1638 280C1650.1 280.913 1662.8 299.799 1671 308L1744 381C1751.6 388.595 1769.2 400.503 1772.08 411C1773.81 417.278 1768.92 427.809 1767.37 434C1762.63 452.982 1758.12 472.016 1753.37 491C1745.31 523.263 1737.09 555.585 1729.65 588C1725.12 607.747 1722.08 630.164 1714.66 649C1708.93 663.565 1699.1 677.249 1691.62 691C1675.42 720.793 1658.76 750.351 1642.31 780C1597.81 860.176 1555.22 941.812 1509 1021"/>
</svg>
