<?xml version="1.0" standalone="yes"?>
<svg width="4000" height="4500">
<path style="stroke:none;fill:none;" d="M2477 72C2433.66 145.503 2396.53 223.006 2355.82 298C2333.65 338.844 2312.63 380.358 2290.14 421C2274.86 448.601 2255.17 477.452 2244.13 507C2232.63 537.76 2228.7 573.919 2221.58 606C2215.58 633.014 2209.65 660.107 2203.13 687C2200.93 696.055 2193.86 712.948 2195.9 722C2197.12 727.371 2204.27 732.272 2208 736L2238 766L2291 819C2297.35 825.349 2305.46 837.247 2314 840.396C2319.41 842.391 2327.29 841 2333 841L2375 841"/>
</svg>
