<?xml version="1.0" standalone="yes"?>
<svg width="4000" height="4500">
<path style="stroke:none;fill:none;" d="M1666 72L1535.69 350L1487.76 452L1468.58 539L1445.6 645L1439.79 672L1438.32 684L1449 696L1475 722L1538 785L1571 817M2494 72C2455.04 165.577 2407 255.867 2364.69 348C2348.77 382.671 2328.27 417.04 2315.55 453C2305.68 480.878 2301.99 513.033 2296 542C2289.02 575.706 2281.83 609.455 2274.12 643C2271.91 652.628 2269.77 662.318 2267.8 672C2267.09 675.502 2265.08 680.498 2266.33 684C2267.99 688.653 2273.6 692.598 2277 696L2303 722L2365 784C2375.87 794.871 2386.43 808.144 2399 817"/>
</svg>
