<?xml version="1.0" standalone="yes"?>
<svg width="4000" height="4500">
<path style="stroke:none;fill:none;" d="M1211 3239L1211 1270L1211 720L1211 566L1211 524C1211 518.421 1209.48 510.103 1212.03 505C1214.6 499.851 1222.55 491.612 1228 489.604C1235.46 486.852 1247.08 489 1255 489L1315 489L1628 489C1754.93 489 1882.33 486.417 2009 491.961C2147.98 498.043 2284.25 507.705 2419 545.255C2580.13 590.156 2729.13 687.273 2792.54 848C2814.61 903.961 2824.79 962.448 2831.17 1022C2834.14 1049.8 2837.99 1078.05 2838.74 1106C2839.48 1133.87 2834.13 1163.28 2831.17 1191C2819.82 1297.03 2792.37 1397.91 2728.24 1485C2664.18 1572 2573.32 1633.44 2474 1673.55C2371.39 1714.98 2257.99 1736.52 2148 1744.09C2130.02 1745.33 2112.01 1747.17 2094 1747.96C2084.07 1748.4 2072.7 1747.36 2063 1749.48C2056.44 1750.91 2044.62 1761.2 2043.41 1768C2041.73 1777.44 2047.97 1792.66 2050.12 1802C2055.69 1826.24 2060.62 1850.67 2065.79 1875C2070.68 1898.01 2075.53 1921.03 2080.58 1944C2082.94 1954.76 2084.03 1966.69 2087.95 1977C2100.41 2009.71 2123.38 2040.57 2140.58 2071C2172.37 2127.26 2203.13 2184.1 2235.58 2240C2278.7 2314.3 2319.17 2390.21 2361.42 2465C2444.2 2611.5 2527.21 2757.87 2608.86 2905C2657.85 2993.27 2709.19 3080.25 2757.31 3169C2776.26 3203.95 2800.25 3237.45 2816 3274M1212 1755L1758 1755L1935 1755L1990 1755L2018 1755.39L2043 1766"/>
</svg>
