<?xml version="1.0" standalone="yes"?>
<svg width="4000" height="4500">
<path style="stroke:none;fill:none;" d="M1591 249C1603.05 249 1621.7 245.438 1633 249.604C1640.54 252.382 1647.42 262.418 1653 268L1696 311L1720 335C1723.01 338.014 1727.83 341.509 1728.51 346C1730.11 356.596 1723.04 372.574 1720.65 383C1714.31 410.645 1707.78 438.276 1701.79 466C1696.31 491.4 1690.06 516.634 1684.42 542C1680.72 558.686 1678.41 576.937 1672.56 593C1661.84 622.41 1644.67 650.891 1630.86 679C1608.14 725.244 1586.18 771.848 1563.27 818C1540.54 863.788 1518.53 909.977 1496.26 956C1485.66 977.896 1476.27 1000.98 1464 1022M2419 249C2431.05 249 2449.7 245.438 2461 249.604C2468.54 252.382 2475.42 262.418 2481 268L2524 311L2548 335C2551.01 338.014 2555.83 341.509 2556.51 346C2558 355.875 2551.57 370.288 2549.42 380C2543.16 408.358 2536.81 436.741 2530.12 465C2523.34 493.605 2516.8 522.301 2510.42 551C2507.29 565.091 2505.34 580.467 2500.29 594C2489.46 623.016 2472.79 651.272 2458.97 679C2430.86 735.399 2404.44 792.63 2376.27 849C2347.77 906.032 2324.14 966.938 2292 1022"/>
</svg>
