<?xml version="1.0" standalone="yes"?>
<svg width="4000" height="4500">
<path style="stroke:none;fill:none;" d="M1203 2653C1207.74 2675.69 1216.41 2698.26 1224.3 2720C1243.02 2771.52 1266.56 2821.6 1295.95 2868C1348.49 2950.96 1412.13 3028.9 1490 3089.58C1688.52 3244.25 1955.68 3260.89 2196 3229.29C2302.25 3215.32 2405.68 3185.16 2502 3137.81C2602.54 3088.38 2691.96 3020.16 2746.1 2920C2787.01 2844.31 2796.79 2760.18 2804.83 2676C2810.4 2617.72 2803.84 2558.99 2796.28 2501C2789.44 2448.48 2776.35 2397.09 2756.4 2348C2705.79 2223.54 2603.86 2136.71 2490 2071.57C2393.29 2016.24 2290.45 1967.36 2185 1931.08C2106.96 1904.23 2026.29 1885.74 1948 1859.65C1856.09 1829.01 1764.51 1796.86 1674 1762.42C1511.57 1700.64 1335.1 1616.81 1249.03 1457C1217.27 1398.02 1202.94 1333.83 1194.28 1268C1190.26 1237.43 1185.77 1205.81 1185.01 1175C1184.22 1142.4 1189.37 1109.37 1192.83 1077C1203.83 974.307 1229.6 873.482 1288.34 787C1332.97 721.307 1391.89 670.314 1458 627.139C1538.54 574.542 1627.28 534.843 1721 512.676C1814.85 490.479 1913.14 486.766 2009 490.961C2106.57 495.231 2203.58 506.421 2295 543.453C2461.04 610.714 2598.87 727.73 2681.02 888C2706.51 937.737 2725.82 990.506 2741.79 1044C2748.47 1066.38 2751.95 1089.8 2759 1112"/>
</svg>
