<?xml version="1.0" standalone="yes"?>
<svg width="4000" height="4500">
<path style="stroke:none;fill:none;" d="M2381 1587L1432 1587L1193 1587L1133 1587C1127.58 1587 1115.86 1589.16 1111.6 1585.14C1109.05 1582.74 1109.9 1577.16 1110.04 1574C1110.48 1563.99 1112.18 1554 1112.91 1544C1116.05 1501.24 1121.27 1458.64 1125.83 1416C1128.52 1390.91 1129.99 1364.7 1135.21 1340C1144.84 1294.45 1161.72 1249.75 1177.31 1206C1221.37 1082.31 1283.8 965.112 1362.63 860C1471.99 714.164 1614.66 590.714 1788 529.089C1849.13 507.358 1912.75 496.712 1977 489.834C2009.1 486.398 2041.73 481.804 2074 481.015C2115.85 479.99 2158.41 485.673 2200 489.831C2331.47 502.974 2463.13 535.151 2577 604.464C2681.9 668.314 2765.56 759.342 2833.33 861C2865.02 908.524 2896.28 960.598 2917 1014M870 1586L1109 1586M1073 1587C1073 1725.6 1071 1864.37 1071 2003L1071 2130C1071 2149.76 1067.83 2172.49 1071.15 2191.94C1072.2 2198.11 1079.83 2194.94 1084 2197.03C1091.56 2200.81 1099.96 2210.51 1100.83 2219C1108.44 2293.58 1109.19 2370.04 1122.61 2444C1131.58 2493.4 1147.79 2542.27 1162.97 2590C1206.95 2728.22 1273.73 2863.08 1368.3 2974C1421.26 3036.12 1481.19 3091.83 1547 3140.08C1636.81 3205.91 1743.2 3252.24 1852 3275.49C1896.53 3285 1941.75 3289.79 1987 3294.17C2016.09 3296.98 2045.78 3300.65 2075 3301C2128.01 3301.63 2181.36 3294.43 2234 3289.17C2362.03 3276.37 2495.99 3243.43 2605 3172.49C2715.42 3100.63 2796.38 2992.78 2859.86 2879C2883.29 2837 2908.45 2792.68 2924 2747M1085 2196C1092.17 2190.84 1103.48 2193 1112 2193L1177 2193L1426 2193C1744.02 2193 2061.94 2194 2380 2194M874 2196L1070 2196"/>
</svg>
