<?xml version="1.0" standalone="yes"?>
<svg width="4000" height="4500">
<path style="stroke:none;fill:none;" d="M413 458L725 458L789 458C797.467 458 810.025 455.663 818 458.604C823.824 460.751 828.715 467.715 833 472C843.231 482.231 857.671 492.762 865.397 505C871.298 514.348 867 537.056 867 548L867 659L867 1073L867 2621L867 3077L867 3196C867 3207.06 871.454 3230.96 864.682 3240C855.929 3251.68 843.323 3261.68 833 3272C828.715 3276.28 823.823 3283.25 818 3285.4C809.003 3288.71 794.567 3286 785 3286L709 3286L382 3286M867 505L899 473C903.547 468.453 908.829 460.879 915 458.604C923.997 455.286 938.433 458 948 458L1024 458L1280 458L1528 458L1586 458C1595.21 458 1605.98 456.471 1615 458.39C1634.76 462.593 1655.83 476.949 1674 485.741C1685.26 491.188 1701.34 495.394 1710.77 503.637C1717.66 509.656 1717.9 527.4 1719.88 536C1726.76 565.917 1732.8 596.026 1739.42 626C1742.72 640.942 1744.35 657.652 1749.66 672C1756.45 690.34 1769.28 707.86 1778.69 725C1796.37 757.183 1812.97 789.931 1830.86 822C1938.22 1014.45 2041.66 1209.26 2146.69 1403C2177.4 1459.64 2208.04 1516.33 2238.69 1573C2249.87 1593.66 2260.69 1614.48 2272.14 1635C2276.75 1643.27 2280.67 1653.55 2286.79 1660.79C2294.79 1670.25 2314.78 1675.86 2326 1680.86C2352.37 1692.61 2377.47 1703.47 2398 1724C2413.59 1708.41 2426.87 1696.55 2447 1687.31C2457.06 1682.69 2466.84 1677.39 2477 1673C2483.26 1670.29 2492.01 1667.36 2496.36 1661.9C2503.38 1653.08 2508.1 1640.99 2513.26 1631C2521.73 1614.58 2530.52 1598.25 2539.31 1582C2572.37 1520.88 2604.25 1459.12 2637.31 1398C2741.77 1204.87 2843.24 1010.13 2947.69 817C2965.11 784.785 2981.89 752.213 2999.31 720C3008.81 702.423 3020.61 684.548 3028.02 666C3034.48 649.834 3035.84 630.013 3039.58 613C3045.71 585.048 3051.04 556.914 3057.35 529C3059.07 521.397 3059.22 504.038 3065.31 498.815C3074.07 491.307 3088.6 487.131 3099 482.219C3114.58 474.862 3132.17 462.028 3149 458.39C3158.6 456.314 3170.19 458 3180 458L3244 458L3555 458M1713 504L1745 472L1760 458.604L1783 458L1834 458L2008 458L2756 458L2942 458L2996 458L3021 458.604L3035 471L3063 499M2398 1724L2398 1897L2398 1948C2398 1954.81 2396.23 1964.56 2398.6 1971C2402.61 1981.88 2417.25 1990.37 2427 1995.25C2449.01 2006.25 2474.71 2014.95 2494.96 2028.97C2501.48 2033.48 2504.64 2043.22 2508.31 2050L2532.69 2095C2673.15 2354.71 2809.37 2616.9 2947.22 2878C2973.47 2927.71 3000.96 2976.78 3026.25 3027C3039.17 3052.66 3054.13 3075.67 3060 3104C3067.52 3140.33 3074.62 3176.76 3082.58 3213C3084.7 3222.69 3084.82 3244.79 3093.13 3251.03C3107.51 3261.83 3129.44 3269.84 3146 3277C3152.4 3279.77 3159.05 3284.73 3166 3285.79C3177.19 3287.49 3189.68 3286 3201 3286L3270 3286L3571 3286M2398 1972C2389.7 1980.3 2381.62 1990.61 2372 1997.35C2362.5 2004 2349.6 2008.41 2339 2013.14C2327.61 2018.21 2316.27 2023.46 2305 2028.78C2300.01 2031.14 2293.31 2033.07 2289.53 2037.21C2282.48 2044.93 2277.89 2056.91 2272.72 2066C2261.44 2085.85 2250.59 2105.94 2239.69 2126C2209.48 2181.6 2178.52 2237.04 2147.15 2292C2031.98 2493.77 1920.5 2697.8 1807.86 2901C1786.98 2938.67 1766.5 2976.59 1745.15 3014C1734.66 3032.38 1718.37 3053.46 1713.04 3074C1702.93 3112.94 1695.25 3152.72 1686.58 3192C1684.29 3202.34 1681.99 3212.67 1679.65 3223C1678.64 3227.45 1678.33 3233.12 1674.72 3236.36C1664.83 3245.23 1646.95 3249.48 1635 3255.26C1621.1 3261.98 1606.96 3268.19 1593 3274.78C1585.51 3278.32 1577.1 3283.86 1569 3285.61C1558.19 3287.95 1545.05 3286 1534 3286L1463 3286L1062 3286L957 3286C945.537 3286 924.28 3290.11 914 3284.97C907.899 3281.92 902.773 3274.77 898 3270L867 3239M1677 3236L1712 3271L1728 3285.4L1752 3286L1806 3286L1988 3286L2767 3286L2967 3286L3026 3286L3052 3285.4L3065 3274L3090 3249"/>
</svg>
