<?xml version="1.0" standalone="yes"?>
<svg width="4000" height="4500">
<path style="stroke:none;fill:none;" d="M733 481L1257 481L1381 481L1418 481L1435 481.742L1449 494L1476 521L1508 489L1524 474.604L1543 474L1583 474L1719 474L2282 474L2417 474L2457 474L2475 474.604L2491 489L2523 521L2555 489L2571 474.604L2588 474L2625 474L2748 474L3242 474M1476 521L1476 2424L1476 2985L1476 3151L1476 3200C1476 3206.54 1474.32 3215.82 1476.6 3222C1480.61 3232.87 1496.87 3243.87 1505 3252C1514.39 3261.39 1527.49 3280.78 1540 3285.4C1545.15 3287.3 1552.57 3286 1558 3286L1596 3286L1726 3286L2252 3286L2397 3286L2439 3286C2444.99 3286 2453.33 3287.49 2459 3285.4C2466.54 3282.62 2473.42 3272.58 2479 3267L2523 3223L2556 3256L2572 3270.26L2589 3271L2626 3271L2753 3271L3258 3271M2523 521L2523 3223M1476 3223L1433 3266L1413 3284.97L1395 3286L1354 3286L1207 3286L694 3286"/>
</svg>
