<?xml version="1.0" standalone="yes"?>
<svg width="4000" height="4500">
<path style="stroke:none;fill:none;" d="M1069 489L1735 489L1903 489L1944 489C1951.05 489 1957.44 487.981 1963 493.059C1971.67 500.97 1979.7 509.702 1988 518C1991.75 521.755 1997.51 525.884 1999.4 531C2003.28 541.527 2000 558.785 2000 570L2000 659L2000 1039L2000 2621L2000 3064L2000 3176C2000 3187.62 2004.16 3209 1995.94 3218C1988.03 3226.67 1979.3 3234.7 1971 3243C1967.25 3246.75 1963.12 3252.51 1958 3254.4C1952.33 3256.49 1943.99 3255 1938 3255L1894 3255L1744 3255L1070 3255M2000 529L2027 502L2041 489.604L2061 489L2105 489L2255 489L2899 489M2000 3215L2027 3242L2041 3254.4L2061 3255L2105 3255L2255 3255L2898 3255"/>
</svg>
