<?xml version="1.0" standalone="yes"?>
<svg width="4000" height="4500">
<path style="stroke:none;fill:none;" d="M412 489L732 489C779.101 489 834.579 479.367 874.891 508.966C881.222 513.615 881.24 525.862 882.881 533C887.996 555.25 892.462 577.669 897.211 600L914.789 682C917.907 696.661 919.546 712.878 924.548 727C935.14 756.903 956.174 786.082 971.309 814C1107.95 1066.04 1246.67 1316.96 1383.31 1569C1399.44 1598.76 1416.34 1628.11 1432.22 1658C1438.6 1670.02 1445.62 1690.72 1456.19 1699.36C1462.31 1704.38 1470.94 1706.84 1478 1710.26C1495.64 1718.79 1513.49 1726.97 1531 1735.75C1539.27 1739.9 1554.06 1749.93 1554.94 1760C1556.65 1779.68 1555 1800.24 1555 1820L1555 1940L1555 1994C1555 2001.09 1556.87 2011.3 1554.4 2018C1550.49 2028.59 1536.47 2036.51 1527 2041.25C1504.49 2052.5 1479.43 2061.15 1458.02 2074.35C1451.81 2078.18 1449.03 2085.89 1445.58 2092C1437.34 2106.57 1429.29 2121.28 1421.31 2136C1286.94 2383.86 1149.68 2630.14 1015.31 2878C998.488 2909.03 981.512 2939.97 964.691 2971C956.814 2985.53 946.069 3000.41 940.548 3016C928.676 3049.52 925.061 3088.23 917.424 3123C911.355 3150.63 905.886 3178.4 899.651 3206C897.86 3213.92 897.725 3229.89 890.867 3235.03C851.314 3264.73 795.396 3255 749 3255L429 3255M878 510L900 489.604L923 489L973 489L1171 489L1929 489L2107 489L2157 489L2178 490.028L2200 511C2211.6 502.743 2230 492.412 2244 489.39C2262.05 485.495 2284.52 489 2303 489L2402 489L2880 489L3027 489C3048.58 489 3071.08 483.91 3084.4 505C3090.3 514.349 3086 537.056 3086 548L3086 658L3086 1073L3086 2619L3086 3071L3086 3192L3086 3224C3086 3228.72 3087.03 3234.82 3084.4 3239C3071.35 3259.67 3050.16 3255 3029 3255L2890 3255L2449 3255L2353 3255C2338.21 3255 2320.47 3257.69 2306 3254.61C2289.27 3251.05 2264.93 3238.83 2251 3229L2225 3253.97L2201 3255L2146 3255L1971 3255L1196 3255L990 3255L939 3255L916 3254.4L894 3234M3086 505L3103 489.604L3136 489L3210 489L3540 489M2199 512C2197.88 526.035 2193.56 540.197 2190.8 554C2185.13 582.366 2179.23 610.705 2173.21 639C2166.92 668.571 2164.78 702.77 2154.05 731C2146.22 751.581 2133.12 771.263 2123.25 791C2099.65 838.196 2075.46 885.118 2051.26 932C1984.55 1061.25 1918.29 1190.92 1853.25 1321C1809.43 1408.62 1765.5 1496.36 1719.78 1583C1706.89 1607.43 1694.6 1632.29 1682.25 1657C1676.81 1667.88 1672.22 1682.49 1664.36 1691.79C1657.15 1700.32 1640.84 1704.33 1631 1709.25C1603.82 1722.84 1576.65 1733.35 1555 1755M1555 2020C1575.96 2040.96 1602.1 2051.15 1629 2063.14C1639.9 2068 1659.43 2073.03 1667.21 2082.21C1675.32 2091.79 1680.75 2105.13 1687 2116C1701.31 2140.9 1715.27 2166.01 1729.42 2191C1770.32 2263.23 1812.14 2334.99 1853.43 2407C1931.62 2543.39 2009.51 2680.03 2088.42 2816C2114.32 2860.62 2140.27 2905.19 2165.85 2950C2177.82 2970.97 2193.53 2992.55 2202.39 3015C2209.28 3032.46 2211.37 3053.65 2215.42 3072C2222.65 3104.7 2230.35 3137.3 2237.58 3170C2241.79 3189.1 2244.72 3209.48 2251 3228M3086 3239L3103 3254.4L3133 3255L3202 3255L3507 3255"/>
</svg>
