<?xml version="1.0" standalone="yes"?>
<svg width="4000" height="4500">
<path style="stroke:none;fill:none;" d="M412 489L656 489L718 489C729.243 489 740.194 487.452 749.853 494.349C754.606 497.743 754.472 505.718 755.424 511C758.01 525.337 760.752 539.647 763.25 554C769.467 589.716 776.533 625.284 782.75 661C786.14 680.477 787.32 703.52 794.323 722C803.844 747.121 816.276 771.429 827.14 796C851.241 850.511 875.879 904.811 900.691 959C957.402 1082.85 1010.98 1208.15 1067.69 1332C1111.61 1427.91 1153.34 1524.83 1196.69 1621C1203.31 1635.67 1210.14 1650.25 1216.58 1665C1219.81 1672.41 1222.65 1682.45 1227.7 1688.79C1232.59 1694.93 1244.07 1698.76 1251 1702.25C1264.09 1708.84 1277.18 1715.76 1290 1722.86C1295.95 1726.16 1304.2 1732.53 1311 1733.43C1315.88 1734.07 1321.95 1729.11 1326 1726.86C1337.93 1720.24 1349.89 1713.53 1362 1707.26C1373.79 1701.16 1385.24 1694.42 1397 1688.26C1402.92 1685.15 1411.23 1682.09 1415.58 1676.9C1419.65 1672.05 1421.4 1664.75 1423.85 1659C1429.24 1646.36 1434.43 1633.63 1439.85 1621C1458.81 1576.81 1476.72 1532.17 1495.72 1488C1598.25 1249.66 1698.03 1009.84 1797.01 770C1804.87 750.945 1815.39 731.77 1821.22 712C1826.01 695.717 1827.34 677.721 1830.25 661L1847.25 563L1856.25 511C1857.16 505.787 1860.84 496.353 1858.4 491.318C1856.86 488.156 1851.86 489.001 1849 489L1820 489L1700 489L1197 489L868 489L787 489C775.128 489 762.071 486.223 753 495M1860 489L3602 489M2578 490L2578 2577L2578 3088L2578 3213L2578 3243L2579.6 3253.97L2598 3255L2647 3255L2836 3255L3570 3255M3297 490L3297 3254M1312 1735L1312 1944L1312 2007L1313 2039C1293.42 2050.44 1272.83 2060.15 1253 2071.14C1245.32 2075.4 1234.4 2078.64 1228.39 2085.21C1222.33 2091.84 1219.26 2103.8 1215.72 2112C1208.06 2129.75 1200 2147.34 1192.14 2165C1164.98 2225.98 1138.13 2287.14 1110.69 2348C1013.92 2562.69 920.35 2778.88 822.309 2993C795.686 3051.14 791.8 3119.41 779.803 3182C776.68 3198.29 773.7 3214.65 770.919 3231C769.927 3236.83 769.911 3246.18 764.856 3250.03C756.226 3256.61 745.148 3255 735 3255L670 3255L414 3255M1314 2041C1337.64 2050.84 1360.09 2064.3 1383 2075.75C1393.49 2081 1409.33 2086.03 1417.61 2094.39C1422.92 2099.76 1425.8 2110.14 1428.86 2117C1435.61 2132.15 1443.04 2147.07 1450.26 2162C1477.08 2217.44 1502.44 2273.57 1529.26 2329C1640.45 2558.82 1748.78 2790.12 1857.74 3021C1865.15 3036.72 1865.8 3057.98 1869.2 3075C1876.79 3112.95 1884.26 3150.96 1891.39 3189C1894.08 3203.34 1896.92 3217.66 1899.61 3232C1900.63 3237.41 1900.84 3245.52 1905.23 3249.36C1916.82 3259.51 1939.69 3255 1954 3255L2080 3255L2577 3255M1903 3248C1889.1 3261.74 1854.78 3255 1836 3255L1654 3255L994 3255L829 3255C812.211 3255 780.554 3261.15 768 3249"/>
</svg>
