<?xml version="1.0" standalone="yes"?>
<svg width="4000" height="4500">
<path style="stroke:none;fill:none;" d="M632 474L943 474L1098 474.043L1122 483.15L1172 504.769L1199 515.608L1211 506L1234 483L1246 474.148L1311 474L1443 474L1852 474L2454 474L2653 474L2752 474.059L2765 483L2788 506L2800 515.431L2825 505.281L2876 483.421L2901 474.043L3057 474L3367 474M1200 518C1205.4 532.309 1207.71 548.165 1211.37 563C1219.11 594.338 1226.8 625.688 1234.63 657C1238.48 672.425 1240.28 691.736 1247.26 706C1253.07 717.857 1262.15 728.888 1269.31 740C1281.69 759.223 1293.7 778.691 1305.95 798C1348 864.302 1390.73 930.255 1433.66 996C1542.91 1163.35 1651.37 1331.61 1757.42 1501C1786.02 1546.67 1816.08 1591.48 1844.95 1637C1854.32 1651.77 1864.29 1666.18 1873.58 1681C1879.6 1690.63 1885.57 1702.53 1893.38 1710.79C1902.16 1720.07 1920.61 1723.51 1932 1729.04C1948.79 1737.21 1963.84 1758.84 1977 1772C1981.64 1776.64 1990.02 1782.39 1991.68 1789C1994.08 1798.58 1992 1811.13 1992 1821L1992 1890C1992 1899.43 1995.51 1917.89 1990.4 1926C1984.98 1934.57 1975.16 1941.84 1968 1949C1957.27 1959.73 1946.15 1974.98 1933 1982.64C1921.13 1989.55 1903.08 1991.49 1893.21 2001.21C1883.79 2010.5 1877.45 2024.91 1870.31 2036C1855.26 2059.36 1840.41 2082.88 1825 2106C1749.62 2219.08 1677.9 2334.75 1604.31 2449C1509.18 2596.7 1411.3 2742.87 1318.42 2892C1296.64 2926.98 1273.45 2961.07 1251.58 2996C1243.76 3008.49 1233.25 3020.65 1227.05 3034C1217 3055.63 1214.16 3083.84 1208.37 3107L1186.87 3193C1184.9 3200.9 1183.84 3218.8 1176.86 3223.65C1158.3 3236.53 1131.76 3243.32 1111 3252.28C1097.39 3258.15 1081.58 3268.11 1067 3270.67C1053.73 3273 1038.47 3271 1025 3271L940 3271L632 3271M2799 518C2793.26 533.22 2790.57 550.212 2786.63 566L2764.37 655C2760.47 670.603 2758.52 689.475 2751.6 704C2733.07 742.906 2703.14 778.607 2680.05 815C2623.87 903.588 2565.5 990.806 2508.69 1079C2417.47 1220.62 2324.91 1361.38 2233.69 1503C2205.95 1546.07 2177.51 1588.74 2150.05 1632C2139.19 1649.12 2128.16 1666.07 2117 1683C2112.15 1690.36 2108.12 1699.21 2102.24 1705.78C2098.53 1709.92 2091.98 1711.57 2087 1713.72C2074.43 1719.14 2059.48 1723.34 2048 1730.81C2027.29 1744.3 2009.49 1768.51 1992 1786M1992 1926L2029 1963C2035.26 1969.26 2041.45 1977.29 2049 1982.01C2064 1991.38 2089.36 1993.21 2101.48 2006.21C2109.03 2014.31 2114.52 2025.78 2120.67 2035C2136.26 2058.39 2150.99 2082.27 2166.05 2106C2205.14 2167.6 2245.18 2228.66 2284.69 2290C2412.75 2488.81 2540.38 2687.98 2669.66 2886C2692.8 2921.45 2716.05 2957.07 2738.42 2993C2747.95 3008.3 2760.38 3023.69 2767.95 3040C2776.91 3059.28 2779.47 3084.35 2784.63 3105L2807.37 3196C2809.48 3204.44 2810.62 3223.51 2818.13 3228.65C2834.6 3239.91 2857.66 3245.98 2876 3253.85C2888.81 3259.35 2903.23 3268.27 2917 3270.67C2929.97 3272.93 2944.84 3271 2958 3271L3040 3271L3367 3271M1180 3223L1213 3256L1229 3270.4L1257 3271L1319 3271L1531 3271L2446 3271L2673 3271L2740 3271L2770 3270.4L2785 3257L2815 3227"/>
</svg>
