<?xml version="1.0" standalone="yes"?>
<svg width="4000" height="4500">
<path style="stroke:none;fill:none;" d="M436 481L738 481L808 481C818.284 481 830.997 478.98 841 481.418C848.642 483.281 856.178 489.332 863 493.14C875.104 499.896 890.181 505.815 900.867 514.637C909.64 521.881 908.992 547.218 910.754 558C917.236 597.66 923.526 637.354 930.08 677C933.107 695.311 934.294 715.207 939.569 733C951.968 774.818 971.075 815.253 986.576 856C1007.87 911.975 1028.3 968.258 1050.2 1024C1113.54 1185.2 1173.3 1347.94 1234.43 1510C1362.07 1848.4 1492.94 2185.6 1620.58 2524C1689.77 2707.45 1757.34 2891.74 1829.6 3074C1843.9 3110.07 1856.78 3146.74 1870.58 3183C1876 3197.26 1880.21 3218.84 1889.7 3230.79C1896.47 3239.31 1918.55 3250.39 1929 3253.36C1943.33 3257.43 1963.11 3254 1978 3254L2029 3254C2036.85 3254 2046.35 3255.45 2054 3253.58C2064.21 3251.09 2074.88 3242.58 2084 3237.42C2090.22 3233.91 2098.63 3230.87 2103.58 3225.62C2110.89 3217.89 2113.93 3201.84 2117.8 3192C2128.74 3164.16 2138.29 3135.78 2149.4 3108C2190.42 3005.37 2226.16 2900.62 2267.2 2798C2315.09 2678.26 2358.91 2556.67 2404.43 2436C2503.1 2174.41 2603.17 1913.33 2702.58 1652C2766.69 1483.45 2827.67 1313.45 2894.6 1146C2928.97 1060.02 2960.61 972.727 2993.05 886C3006.54 849.931 3020.56 814.07 3034.05 778C3039.36 763.805 3046.32 749.582 3050.41 735C3056.31 713.92 3057.79 690.607 3061.41 669C3067.5 632.693 3073.19 596.313 3079.25 560C3080.8 550.705 3088.83 528.153 3083.51 520C3076.98 509.991 3065.45 501.446 3057 493C3053.25 489.245 3049.12 483.49 3044 481.604C3036.79 478.946 3025.64 481 3018 481L2960 481L2764 481L1818 481L1157 481L1005 481L960 481C954.014 481 945.667 479.514 940 481.604C935.246 483.356 931.485 488.515 928 492L904 516M3086 521L3133 494.694L3157 481.649L3194 481L3273 481L3532 481"/>
</svg>
