<?xml version="1.0" standalone="yes"?>
<svg width="4000" height="4500">
<path style="stroke:none;fill:none;" d="M969 1343C893.997 1418 821.992 1496.01 747 1571C720.326 1597.67 694.655 1625.33 668 1652C654.025 1665.98 634.256 1681.24 623.843 1698C616.581 1709.69 614.022 1726.93 609.667 1740C599.454 1770.64 589.546 1801.36 579.333 1832C570.565 1858.31 562.102 1884.7 553.333 1911C549.511 1922.47 541.746 1936.89 541.417 1949C541.066 1961.91 550.163 1977.74 553.974 1990C564.269 2023.13 575.363 2056.09 586.333 2089C594.989 2114.97 603.347 2141.04 612 2167C615.591 2177.77 617.902 2192.72 624.51 2202C636.67 2219.08 655.168 2234.17 670 2249C696.173 2275.17 721.818 2301.82 748 2328C826.026 2406.03 902.987 2484.99 981 2563M542 1950L3719 1950"/>
</svg>
