<?xml version="1.0" standalone="yes"?>
<svg width="4000" height="4500">
<path style="stroke:none;fill:none;" d="M272 458L389 458C405.477 458 427.078 454.27 443 458.43C450.419 460.368 457.766 467.658 464 471.975C477.803 481.534 496.119 490.51 507.682 502.669C514.156 509.477 512.255 530.863 513.169 540L523.169 641C528.285 692.16 539.544 741.775 550.576 792C564.554 855.638 578.462 919.31 592.21 983C707.58 1517.47 822.498 2052.1 940.424 2586C963.227 2689.24 984.744 2792.74 1007.42 2896C1021.27 2959.05 1039.75 3022.79 1046.17 3087C1050 3125.29 1052.76 3163.79 1057.29 3202C1058.51 3212.31 1059.07 3222.7 1060.29 3233C1060.84 3237.72 1062.46 3243.79 1059.59 3248C1053.05 3257.61 1042.22 3265.78 1034 3274C1030.25 3277.75 1026.12 3283.51 1021 3285.4C1016.11 3287.2 1009.15 3286 1004 3286L968 3286L845 3286L241 3286M510 503L541 472C545.285 467.715 550.177 460.751 556 458.604C560.891 456.8 567.847 458 573 458L609 458L731 458L1225 458L1758 458L1865 458C1878.14 458 1898.69 454.064 1911 458.604C1917.17 460.879 1922.45 468.453 1927 473C1938.05 484.046 1952.8 495.092 1961.59 508C1964.45 512.202 1962.86 518.295 1962.28 523C1961.1 532.643 1960.2 542.339 1959.17 552C1954.85 592.324 1951.1 632.731 1946.29 673C1939.3 731.389 1921.8 788.712 1908.65 846C1882.71 959.026 1855.57 1071.79 1830.42 1185C1791.32 1361.06 1747.99 1536.22 1707.65 1712C1631.88 2042.17 1556.03 2372.38 1477.88 2702C1458.95 2781.89 1440.71 2861.98 1422.35 2942C1413.09 2982.35 1400.84 3023.1 1394.44 3064C1387.74 3106.77 1385.48 3150.9 1381.17 3194C1379.6 3209.74 1380.7 3228.93 1375.77 3243.99C1373.77 3250.09 1366.01 3253.64 1361 3257C1347.91 3265.77 1334.49 3278.73 1320 3284.91C1314.74 3287.15 1307.6 3286 1302 3286L1266 3286L1164 3286C1150.19 3286 1131.24 3289.4 1118 3285.49C1111.58 3283.59 1105.43 3277.52 1100 3273.72C1087.34 3264.86 1074.25 3256.41 1062 3247M1964 509L2016 473.999L2040 458.51L2065 458L2117 458L2286 458L2351 458L2380 458.604L2394 471L2421 498L2448 471L2462 458.604L2495 458L2571 458L2828 458L2897 458L2927 458.604L2946 476L2960.4 492L2961 512L2961 555L2961 703L2961 1205L2961 2647L2961 3072L2961 3198L2961 3235L2960.4 3252L2946 3268L2927 3285.4L2897 3286L2828 3286L2571 3286L2495 3286L2462 3285.4L2448 3273L2421 3246L2394 3273L2380 3285.4L2362 3286L2322 3286L2188 3286L1614 3286L1476 3286L1435 3286L1416 3285.4L1403 3274L1376 3247M2961 490C2970.34 480.662 2981.17 464.942 2993 459.028C3000.5 455.279 3014.71 458 3023 458L3096 458L3339 458L3411 458C3420.29 458 3434.26 455.38 3443 458.604C3448.47 460.621 3452.98 466.979 3457 471L3484 498L3511 471L3525 458.604L3543 458L3581 458L3711 458M2421 498L2421 3246M3484 498L3484 2614L3484 3100L3484 3201C3484 3213.59 3480.25 3233.2 3484.6 3245C3486.49 3250.12 3492.25 3254.25 3496 3258C3504.39 3266.39 3512.5 3276.57 3522 3283.68C3526.68 3287.19 3533.47 3286 3539 3286L3577 3286L3727 3286M3484 3246L3457 3273C3452.98 3277.02 3448.47 3283.38 3443 3285.4C3434.26 3288.62 3420.29 3286 3411 3286L3339 3286L3096 3286L3023 3286C3014.71 3286 3000.5 3288.72 2993 3284.97C2981.17 3279.06 2970.34 3263.34 2961 3254"/>
</svg>
