<?xml version="1.0" standalone="yes"?>
<svg width="4000" height="4500">
<path style="stroke:none;fill:none;" d="M2849 2706C2847.64 2723.21 2842.44 2740.23 2838.67 2757C2828.23 2803.35 2811.45 2849.62 2789.97 2892C2761.61 2947.94 2726.97 2999.4 2684.83 3046C2628.56 3108.22 2558.91 3159.08 2481 3190.55C2413.18 3217.94 2341.04 3224.29 2269 3231.17C2158.67 3241.71 2044.86 3242.89 1934 3238.04C1787.54 3231.63 1637.1 3229.24 1503 3162.19C1236.99 3029.19 1131.79 2724.64 1079.2 2452C1069.11 2399.72 1061.55 2346.87 1055.29 2294C1031.5 2093.16 1025.09 1886.83 1038.91 1685C1051.55 1500.49 1068.07 1316.99 1118.57 1138C1165.72 970.91 1238.41 795.238 1370 676.17C1422.65 628.527 1480.44 587.465 1546 559.427C1625.24 525.54 1707.03 513.95 1792 505.83C1861.04 499.233 1930.6 497 2000 497C2099.23 497 2198.29 496.397 2297 505.83C2366.39 512.461 2434.51 520.356 2499 548.862C2570.17 580.321 2626.75 627.106 2681 682C2716.23 717.662 2744.48 762.355 2768.51 806C2798.72 860.84 2816.46 919.731 2828 981"/>
</svg>
