<?xml version="1.0" standalone="yes"?>
<svg width="4000" height="4500">
<path style="stroke:none;fill:none;" d="M1313 498.028C1321.78 493.635 1339.24 497 1349 497L1438 497L1757 497C1844.95 497 1932.4 497.908 2020 503.911C2073.55 507.58 2127.49 511.771 2180 523.514C2299.16 550.162 2413.02 604.274 2503 688.089C2663.25 837.369 2747.5 1047.3 2794.43 1257C2829.42 1413.39 2845.05 1572.24 2852.04 1732C2855.81 1818.13 2857.81 1903.81 2854.04 1990C2845.5 2185.05 2829.3 2380.19 2775.43 2569C2707.33 2807.62 2578.84 3044.43 2345 3155.11C2285.28 3183.38 2221.15 3204.36 2156 3215.68C2095.11 3226.26 2033.52 3229.88 1972 3234.09C1833.68 3243.56 1693.79 3239 1555 3239L1367 3239L1321 3239C1317.21 3239 1307.66 3240.72 1305.03 3237.4C1300.87 3232.15 1304 3214.6 1304 3208L1304 3125L1304 2803L1304 1556L1304 752L1304 561L1304 519C1304 510.378 1304.05 502.503 1313 498.028"/>
</svg>
