<?xml version="1.0" standalone="yes"?>
<svg width="4000" height="4500">
<path style="stroke:none;fill:none;" d="M398 3271L691 3271L785 3271C799.64 3271 816.606 3273.39 831 3270.77C840.64 3269.01 850.34 3254.66 857 3248C859.297 3245.7 862.54 3241.09 866 3240.63C869.793 3240.13 873.664 3245.67 876 3248C882.66 3254.66 892.36 3269.01 902 3270.77C916.394 3273.39 933.36 3271 948 3271L1043 3271L1719 3271L2039 3271L2102 3271C2110.23 3271 2122.26 3273.21 2130 3270.26C2140.3 3266.32 2157.19 3247.55 2163.36 3238.42C2165.77 3234.86 2163.95 3228.02 2163.42 3224C2162.07 3213.72 2161.78 3203.29 2160.42 3193C2155.37 3154.56 2153.03 3115.58 2149.17 3077C2142.47 3010.03 2126.87 2944.77 2112.42 2879C2089.59 2775.03 2066.35 2671.12 2044.21 2567C1935.22 2054.5 1822.58 1542.63 1709.58 1031C1695.53 967.417 1682.55 903.6 1668.58 840C1661.25 806.628 1651.17 772.805 1646.3 739C1641.63 706.581 1640.61 673.535 1636.71 641C1632.84 608.587 1628.78 575.59 1626.96 543C1626.47 534.06 1620.97 518.356 1627.15 511C1634.26 502.536 1647.58 485.445 1658 481.604C1662.89 479.8 1669.85 481 1675 481L1710 481L1830 481L2384 481L2903 481L3023 481L3058 481C3063.15 481 3070.11 479.8 3075 481.604C3086.54 485.86 3098.35 503.346 3107 512L3146 485.947L3164 474.702L3203 474L3289 474L3539 474M436 481L748 481L812 481C820.467 481 833.025 478.663 841 481.604C848.977 484.545 859.633 497.261 864.682 504C868.044 508.486 867 514.704 867 520L867 555L867 691L867 1218L867 3239M867 505C873.99 498.01 882.65 485.314 892 481.742C904.259 477.059 924.882 481 938 481L1045 481L1445 481L1535 481C1547.16 481 1564.44 477.849 1576 481.702C1582.77 483.96 1589.23 490.032 1595 494.141C1604.63 500.999 1615.26 507.021 1624 515M3107 512C3103.33 558.424 3096.13 604.691 3091.17 651C3088.15 679.129 3086.59 708.165 3081.54 736C3072.63 785.084 3056.4 833.435 3044.88 882C3010.48 1027.12 2972.07 1171.32 2935.9 1316C2821.21 1774.73 2705.81 2233.27 2591.13 2692C2571.87 2769.02 2552.38 2845.98 2533.13 2923C2522.3 2966.3 2507.61 3010.56 2503.17 3055C2498.57 3101.04 2493.09 3147 2488.17 3193L2484.17 3229C2483.68 3233.58 2484.27 3240.88 2481.4 3244.67C2478.09 3249.04 2471.51 3251.99 2467 3255C2460.07 3259.62 2452.05 3267.17 2444 3269.49C2436.57 3271.63 2426.71 3270 2419 3270L2278 3270C2257.75 3270 2231.63 3274.44 2212 3269.58C2195.72 3265.55 2180.55 3247.29 2166 3239M2483 3245L2509 3269.97L2533 3271L2589 3271L2767 3271L3554 3271"/>
</svg>
