<?xml version="1.0" standalone="yes"?>
<svg width="4000" height="4500">
<path style="stroke:none;fill:none;" d="M436 481L710 481L767 481C775.38 481 785.873 479.306 794 481.43C800.343 483.087 806.588 489.059 812 492.667C824.08 500.72 840.897 508.609 850.686 519.326C858.171 527.52 855.972 550.312 857.285 561C862.227 601.244 865.85 641.684 870.166 682C883.741 808.8 920.124 933.693 948.651 1058C1027.9 1403.35 1107.4 1748.64 1186.65 2094C1222.75 2251.31 1262.22 2408.13 1295.79 2566C1319.04 2675.35 1346.19 2783.86 1370.42 2893C1380.78 2939.65 1394.25 2985.91 1402.54 3033C1405.53 3050.05 1405.66 3067.8 1407.71 3085C1412.13 3121.89 1415.13 3159.03 1418.83 3196C1419.89 3206.64 1421.25 3217.33 1421.98 3228C1422.27 3232.35 1421.77 3239.91 1424.03 3243.67C1426.07 3247.08 1430.84 3249.19 1434 3251.42C1442.12 3257.17 1450.81 3265.06 1460 3268.91C1466.04 3271.45 1474.56 3270 1481 3270L1525 3270L1657 3270C1668.24 3270 1683.19 3272.6 1694 3269.49C1702.05 3267.17 1710.07 3259.62 1717 3255C1721.52 3251.99 1728.06 3249.04 1731.4 3244.67C1734.44 3240.69 1733.79 3233.75 1734.42 3229C1736.33 3214.72 1737.63 3200.33 1739.17 3186C1744.3 3138 1749.38 3089.91 1755.28 3042C1760.31 3001.25 1775.56 2960.76 1785.63 2921C1807.08 2836.27 1829.43 2751.79 1850.63 2667C1985.62 2127.02 2132.38 1589.98 2267.37 1050C2284.07 983.22 2301.38 916.57 2318.88 850C2328.92 811.821 2341.61 772.845 2348.54 734C2353.87 704.107 2355.55 673.157 2359.16 643C2363.02 610.696 2366.09 578.243 2370.42 546C2371.7 536.538 2377.4 517.76 2370.85 510C2363.92 501.785 2351.14 485.343 2341 481.604C2336.11 479.8 2329.15 481 2324 481L2287 481L2162 481L1586 481L1069 481L946 481L910 481C904.847 481 897.89 479.8 893 481.604C887.884 483.49 883.754 489.246 880 493L853 520M2375 512C2390.38 503.468 2406.93 485.641 2424 481.419C2439.83 477.503 2460.68 481 2477 481L2591 481L2926 481L3027 481C3041.4 481 3060.05 477.819 3074 481.318C3081.37 483.166 3097.55 499.17 3100.97 506C3103.07 510.198 3102 516.434 3102 521L3102 554L3102 672C3102 812.68 3103 953.28 3103 1094C3103 1592.29 3108 2090.68 3108 2589C3108 2755.03 3109 2920.94 3109 3087L3109 3197C3109 3210.68 3104.88 3232.18 3109.6 3245C3112.53 3252.93 3123.84 3261.32 3130 3266.94C3137.53 3273.82 3151.41 3271 3161 3271L3240 3271L3554 3271M3102 505C3108.88 498.116 3117.77 485.006 3127 481.604C3135.74 478.38 3149.71 481 3159 481L3230 481L3532 481M1423 3244C1415.36 3251.64 1405.22 3266.63 1395 3270.4C1388.56 3272.77 1378.81 3271 1372 3271L1322 3271L1150 3271L398 3271M1733 3245C1740.64 3252.64 1749.3 3265.12 1759 3269.97C1765.2 3273.07 1776.18 3271 1783 3271L1839 3271L2017 3271L2803 3271L3003 3271L3058 3271C3065.41 3271 3076.02 3272.92 3083 3270.26C3092.69 3266.56 3101.75 3253.25 3109 3246"/>
</svg>
