<?xml version="1.0" standalone="yes"?>
<svg width="4000" height="4500">
<path style="stroke:none;fill:none;" d="M272 458L497 458L545 458C552.178 458 561.031 456.609 568 458.43C575.064 460.275 582.086 467.14 588 471.28C598.651 478.736 609.385 486.069 620 493.576C624.267 496.593 630.167 499.271 633.397 503.465C636.267 507.191 635.723 514.484 636.086 519C636.943 529.667 638.104 540.351 639.169 551C643.56 594.918 646.536 639.246 652.289 683C658.13 727.415 670.962 772.233 680.576 816C699.452 901.94 717.446 988.078 736.424 1074C850.276 1589.45 957.325 2106.42 1070.58 2622C1092.96 2723.91 1114.04 2826.1 1136.42 2928C1144.11 2962.98 1151.76 2997.97 1159.21 3033C1162.95 3050.56 1168.04 3068.1 1169.83 3086C1173.63 3123.99 1177.03 3162.01 1180.83 3200C1181.9 3210.65 1183.06 3221.33 1183.91 3232C1184.27 3236.47 1183.69 3243.77 1186.03 3247.68C1189.57 3253.59 1199.41 3258.15 1205 3262.02C1219.13 3271.81 1234.15 3286.42 1250 3293.07C1255.92 3295.55 1264.68 3294 1271 3294L1317 3294L1399 3294C1410.03 3294 1425.51 3296.79 1436 3293.3C1448.79 3289.04 1461.77 3276.49 1473 3269C1481.66 3263.22 1495.19 3257.29 1501.41 3248.83C1504.25 3244.97 1503.82 3239.52 1504.42 3235C1505.97 3223.37 1506.92 3211.66 1508.17 3200C1512.48 3159.66 1514.35 3117.92 1521.46 3078C1529.98 3030.25 1545.34 2983.05 1557.1 2936C1579.66 2845.76 1602.66 2755.51 1624.12 2665C1671.73 2464.14 1724.17 2264.4 1773.63 2064C1857.32 1724.85 1941.65 1385.89 2026.37 1047C2042.86 981.036 2058.68 914.916 2075.37 849C2088.67 796.497 2105.03 743.311 2114.54 690C2117.53 673.228 2118.21 655.906 2120.28 639C2124.25 606.707 2127.09 574.265 2131.28 542C2132.48 532.767 2138.18 513.533 2131.85 506C2121.98 494.246 2109.85 483.854 2099 473C2094.45 468.453 2089.17 460.879 2083 458.604C2078.11 456.8 2071.15 458 2066 458L2030 458L1909 458L1359 458L857 458L734 458L698 458C692.847 458 685.89 456.8 681 458.604C675.176 460.751 670.285 467.715 666 472L635 503M2135 509L2188 473.333L2213 458.278L2245 458L2311 458L2517 458L2626 458L2676 458.318L2692 472L2726 506L2759 473C2763.55 468.453 2768.83 460.879 2775 458.604C2785.02 454.91 2801.33 458 2812 458L2897 458L3183 458L3255 458C3264.29 458 3278.26 455.38 3287 458.604C3297.53 462.488 3308.13 478.127 3316 486C3321.84 491.838 3332.49 499.127 3335.4 507C3337.49 512.667 3336 521.014 3336 527L3336 570L3336 717L3336 1214L3336 2639L3336 3059L3336 3183L3336 3220C3336 3225.15 3337.2 3232.11 3335.4 3237C3332.12 3245.88 3319.6 3254.4 3313 3261C3303.39 3270.61 3292.17 3286.89 3280 3292.97C3272.5 3296.72 3258.29 3294 3250 3294L3176 3294L2900 3294L2819 3294C2808.61 3294 2792.76 3297 2783 3293.4C2776.14 3290.87 2770.07 3282.07 2765 3277L2726 3238L2687 3277L2669 3293.4L2648 3294L2601 3294L2442 3294L1788 3294L1621 3294L1571 3294L1549 3293.4L1534 3280L1503 3249M3336 505L3368 473L3384 458.604L3414 458L3482 458L3711 458M2726 506L2726 3238M3336 3239L3374 3277L3392 3293.4L3423 3294L3494 3294L3734 3294M1185 3248L1153 3280L1138 3293.4L1117 3294L1070 3294L911 3294L234 3294"/>
</svg>
