<?xml version="1.0" standalone="yes"?>
<svg width="4000" height="4500">
<path style="stroke:none;fill:none;" d="M1390 825L1633 582L1711 504C1722.96 492.043 1734.93 476.086 1749 466.702C1758.58 460.314 1773.1 457.967 1784 454.333L1858 429.667L1955 397.333C1967.51 393.165 1984.82 383.557 1998 383.654C2009 383.735 2023.5 391.835 2034 395.333C2061.37 404.458 2088.63 413.877 2116 423C2145.04 432.679 2173.96 442.654 2203 452.333C2216.91 456.971 2234.52 460.048 2247 467.843C2259.11 475.408 2269.92 488.915 2280 499C2302.27 521.268 2323.95 544.438 2347 565.911C2367.05 584.586 2385.48 604.813 2405.01 623.961C2472.47 690.086 2540.17 756.167 2607 823M2000 384L2000 3542"/>
</svg>
