<?xml version="1.0" standalone="yes"?>
<svg width="4000" height="4500">
<path style="stroke:none;fill:none;" d="M922 3231L922 1318L922 784L922 635L922 593C922 587.671 920.588 579.88 923.028 575C927.274 566.507 945.072 547.895 954 544.604C958.891 542.8 965.847 544 971 544L1008 544L1065 544C1073.88 544 1084.31 542.5 1093 544.39C1104.91 546.981 1117.54 557.844 1128 563.989C1151.13 577.576 1175.97 589.881 1197.96 605.243C1205.63 610.604 1207.81 624.503 1210.67 633C1217.97 654.709 1225.4 676.545 1233.42 698C1266.4 786.219 1296.63 875.849 1327 965C1439.99 1296.62 1563.86 1624.65 1674.67 1957C1702.12 2039.33 1731.16 2121.49 1760.95 2203C1770.16 2228.21 1778.18 2253.86 1787.58 2279C1790.84 2287.73 1792.53 2299.18 1797.84 2306.9C1802.98 2314.35 1816.32 2319.05 1824 2323.6C1842.97 2334.85 1862.08 2345.87 1881 2357.2C1889.59 2362.34 1899.72 2370.85 1910 2371C1918.6 2371.12 1929.68 2372.76 1938 2370.5C1946.3 2368.25 1954.57 2361.68 1962 2357.42L2010 2330C2020.89 2323.74 2038.58 2317.78 2046.5 2307.9C2052.9 2299.92 2055.21 2286.49 2058.81 2277C2068.25 2252.09 2077.02 2226.93 2086.42 2202C2117.05 2120.79 2147.02 2039.3 2177.42 1958C2241.55 1786.51 2304.29 1614.48 2368.42 1443C2427.22 1285.79 2487.86 1129.06 2544.31 971C2576.95 879.608 2611.31 788.713 2645.81 698C2654.65 674.753 2663.33 651.421 2671.69 628C2674.8 619.298 2677.4 604.636 2685.05 598.904C2704.34 584.471 2728.08 573.794 2749 561.85C2758.69 556.316 2770.02 546.778 2781 544.39C2790.9 542.238 2802.88 544 2813 544L2879 544L2918 544C2923.43 544 2930.85 542.705 2936 544.604C2940.01 546.081 2943.06 550.066 2946 553C2952.77 559.768 2963.67 567.388 2967.97 576C2973.22 586.493 2969 608.293 2969 620L2969 730L2969 1125L2969 3231"/>
</svg>
