<?xml version="1.0" standalone="yes"?>
<svg width="4000" height="4500">
<path style="stroke:none;fill:none;" d="M1171 497L1171 2025C1171 2170.84 1166.96 2317.66 1176.91 2463C1186.42 2601.83 1202.78 2739.61 1265.97 2866C1300.25 2934.56 1345.74 2999.5 1402 3051.91C1537.64 3178.26 1722.77 3225.73 1903 3238.09C1976.71 3243.14 2048.32 3244.21 2122 3237.17C2205.7 3229.17 2289.27 3217.81 2369 3189.46C2503.83 3141.51 2623.56 3055.05 2699.54 2932C2790.69 2784.37 2816.58 2618.35 2824.04 2448C2829.5 2323.24 2828 2198.06 2828 2073L2828 497"/>
</svg>
