<?xml version="1.0" standalone="yes"?>
<svg width="4000" height="4500">
<path style="stroke:none;fill:none;" d="M3026 1329C3109.15 1412.15 3191.36 1496.37 3274 1580C3300.51 1606.82 3327.34 1633.34 3354 1660C3365.75 1671.75 3382.38 1683.88 3391.16 1698C3398.8 1710.3 3401.75 1728.26 3406.33 1742C3416.63 1772.89 3427.33 1803.82 3436.72 1835C3444.81 1861.86 3454.7 1888.2 3463.03 1915C3465.9 1924.24 3472.82 1936.28 3472.58 1946C3472.22 1960.52 3462.58 1978.25 3458 1992C3446.76 2025.71 3435.6 2059.53 3423.69 2093C3414.73 2118.19 3407.23 2143.89 3398.05 2169C3394.6 2178.45 3392.9 2190.6 3387.3 2199C3378.15 2212.72 3362.73 2223.57 3351 2235.01C3326.38 2259.04 3302.32 2283.68 3278 2308C3195.18 2390.82 3110.82 2472.18 3028 2555M295 1950L3471 1950"/>
</svg>
