<?xml version="1.0" standalone="yes"?>
<svg width="4000" height="4500">
<path style="stroke:none;fill:none;" d="M436 481L824 481L901 481C910.86 481 925.751 478.209 935 481.742C942.94 484.775 954.897 497.873 959.397 505C965.298 514.348 961 537.056 961 548L961 659L961 1073L961 2621L961 3077L961 3196C961 3207.06 965.454 3230.96 958.682 3240C952.034 3248.87 937.411 3266.28 927 3270.26C916.998 3274.08 900.675 3271 890 3271L806 3271L398 3271M961 505C967.883 498.116 976.772 485.006 986 481.604C991.15 479.705 998.569 481 1004 481L1043 481L1176 481L1759 481L1925 481C1936.76 481 1954.96 477.534 1966 481.604C1973.56 484.392 1987.38 498.824 1990.97 506C1993.07 510.201 1992 516.432 1992 521L1992 554L1992 671L1992 1090L1992 2593L1992 3056L1992 3186L1992 3222C1992 3226.82 1993.19 3233.57 1990.97 3238C1986.49 3246.96 1975.06 3254.96 1968 3262C1964.82 3265.18 1961.52 3269.33 1957 3270.57C1950.67 3272.3 1942.53 3271 1936 3271L1894 3271L1757 3271L1183 3271L1051 3271L1012 3271C1006.51 3271 999.196 3272.24 994 3270.26C981.968 3265.66 970.046 3248.05 961 3239M1992 505C1998.99 498.01 2007.65 485.314 2017 481.742C2022.71 479.562 2030.96 481 2037 481L2080 481L2229 481L2793 481L2925 481L2964 481C2969.49 481 2976.8 479.757 2982 481.742C2987.52 483.85 2991.93 489.929 2996 494L3023 521L3050 494C3054.07 489.93 3058.48 483.85 3064 481.742C3074.75 477.634 3092.51 481 3104 481L3195 481L3532 481M3023 521L3023 2519L3023 3040L3023 3175L3023 3209L3025.32 3225L3057 3257L3072 3270.26L3107 3271L3188 3271L3554 3271M3023 3223L2990 3256C2985.39 3260.61 2980.24 3267.88 2974 3270.26C2968.8 3272.24 2961.49 3271 2956 3271L2917 3271L2783 3271L2233 3271L2087 3271L2045 3271C2038.96 3271 2030.71 3272.44 2025 3270.26C2012.97 3265.66 2001.05 3248.05 1992 3239"/>
</svg>
