<?xml version="1.0" standalone="yes"?>
<svg width="4000" height="4500">
<path style="stroke:none;fill:none;" d="M2932 477C2926.83 501.961 2917.57 526.532 2910.42 551C2894.13 606.75 2877.41 662.37 2860.72 718C2817.74 861.24 2775.69 1004.76 2732.72 1148C2636.62 1468.38 2543.38 1789.62 2447.28 2110C2393.73 2288.53 2338.73 2466.77 2287.58 2646C2248.16 2784.09 2205.99 2921.45 2164.72 3059C2153.43 3096.63 2141.97 3134.24 2131.14 3172C2127.98 3183.02 2124.64 3193.99 2121.42 3205C2119.93 3210.12 2119.02 3217.53 2115.49 3221.67C2111.46 3226.39 2104.21 3229.4 2099 3232.68C2092.48 3236.79 2085.33 3242.86 2078 3245.3C2069.38 3248.17 2057.05 3246 2048 3246L1985 3246C1970.56 3246 1950.83 3249.52 1937 3245.35C1925.24 3241.81 1913.42 3231.26 1903 3224.81C1898.48 3222.01 1891.95 3219.27 1888.85 3214.81C1881.26 3203.87 1879.24 3183.83 1875.58 3171C1866.25 3138.29 1856.42 3105.72 1847.14 3073C1799.39 2904.53 1747.69 2737.09 1698.58 2569C1567.88 2121.7 1434.12 1675.3 1303.42 1228C1250.22 1045.89 1197.23 863.717 1142.72 682C1122.37 614.153 1104.58 545.474 1083 478"/>
</svg>
