<?xml version="1.0" standalone="yes"?>
<svg width="4000" height="4500">
<path style="stroke:none;fill:none;" d="M3142 499C3125.13 589.56 3114.87 681.831 3101.73 773C3080.4 921.041 3058.52 1069.03 3036.73 1217C2966.03 1696.96 2896.61 2177.08 2825.57 2657C2807.81 2777 2789.57 2896.93 2772.27 3017C2766.94 3054 2761.33 3090.98 2756.13 3128C2754.07 3142.66 2754.72 3165.89 2747.98 3179C2743.93 3186.87 2732.81 3192.45 2726 3197.79C2716.67 3205.1 2705.2 3217.27 2694 3221.27C2687.12 3223.73 2677.24 3222 2670 3222L2618 3222C2604.64 3222 2582.3 3226.31 2570 3221.06C2561.06 3217.25 2552.65 3208.37 2545 3202.42C2533.84 3193.74 2519.45 3185.72 2510.23 3174.96C2502.45 3165.88 2503.44 3143.62 2501.73 3132C2496.52 3096.66 2490.8 3061.38 2485.87 3026C2467.68 2895.51 2446.93 2765.35 2427.73 2635C2355.98 2147.88 2277.08 1661.68 2209.13 1174C2192.48 1054.52 2173.91 935.205 2155.42 816C2149.54 778.033 2143.87 740.011 2138.27 702C2135.95 686.206 2136.25 665.836 2130.41 651C2126.79 641.818 2112.57 634.484 2105 628.651C2083.71 612.244 2062.22 596.082 2041 579.576C2032.96 573.321 2021.59 560.46 2011 560.019C1996.09 559.398 1987.4 568.577 1976 577.126L1919 619.874C1911.16 625.75 1895.49 633.421 1892.15 643.001C1886.8 658.307 1886.27 677.001 1883.59 693L1865.59 801C1845.54 920.574 1828.02 1040.93 1805.2 1160C1770.48 1341.09 1744.08 1524.15 1713.59 1706C1662.44 2011.01 1610.62 2315.9 1560.08 2621C1538.04 2754.03 1515.71 2887.01 1493.41 3020L1475.59 3127C1473.68 3138.37 1474.2 3159.92 1466.7 3168.91C1460.1 3176.81 1449.22 3182.71 1441 3188.87C1430.39 3196.83 1419.08 3208.37 1407 3213.86C1402.07 3216.1 1395.29 3215 1390 3215L1355 3215L1293 3215C1284.71 3215 1272.83 3217.16 1265 3214.26C1254.33 3210.31 1243.96 3198.59 1235 3191.65C1228.43 3186.57 1216.9 3180.47 1213.03 3172.99C1207.03 3161.41 1208.4 3140.93 1206.72 3128C1202.24 3093.65 1197.67 3059.29 1192.73 3025C1175.23 2903.53 1161.07 2781.56 1144.13 2660C1090.02 2271.68 1039.83 1882.73 988.718 1494C945.182 1162.92 897.868 832.292 856 501"/>
</svg>
