<?xml version="1.0" standalone="yes"?>
<svg width="4000" height="4500">
<path style="stroke:none;fill:none;" d="M1203 467C1283.85 604.091 1361.01 743.512 1439.42 882C1547.92 1073.62 1657.93 1264.38 1766.42 1456C1794.39 1505.38 1822.35 1554.77 1850.58 1604C1858.98 1618.65 1867.37 1633.32 1875.72 1648C1879.36 1654.41 1882.76 1663.57 1888.33 1668.5C1894.01 1673.53 1903.16 1676.17 1910 1679.31C1923.74 1685.62 1937.26 1692.38 1951 1698.69C1961.78 1703.64 1973.44 1707.56 1982 1716C1987.47 1721.4 1998.61 1729.02 1999.85 1737C2002.91 1756.67 2000 1779.08 2000 1799L2000 1926L2000 1976C2000 1982.33 2001.85 1992.24 1998.97 1998C1996.29 2003.37 1990.2 2007.8 1986 2012C1967.04 2030.95 1935.24 2040.56 1911 2051.69C1903.83 2054.99 1893.05 2057.82 1887.39 2063.39C1874.09 2076.5 1865.42 2100.76 1856.15 2117C1833.33 2156.97 1810.67 2197.03 1787.85 2237C1650.53 2477.57 1514.2 2718.69 1376.43 2959C1335.45 3030.49 1295.4 3102.51 1254.42 3174C1235.93 3206.25 1219.59 3241.76 1198 3272M2796 467C2751.82 541.925 2710.27 618.458 2667.15 694C2551.9 895.917 2437.1 1098.09 2321.85 1300C2273.71 1384.34 2225.27 1468.5 2177.42 1553C2162.49 1579.37 2147.49 1605.71 2132.42 1632C2126.03 1643.15 2120.35 1658.43 2111.47 1667.73C2102.74 1676.86 2084.34 1681.42 2073 1686.78C2057.05 1694.31 2037.34 1700.42 2023 1710.64C2014.5 1716.7 2007.37 1725.63 2000 1733M2000 1999C2007.06 2006.06 2013.87 2014.54 2022 2020.36C2036.57 2030.8 2056.7 2037.21 2073 2044.69C2084.48 2049.96 2103.96 2054.94 2112.61 2064.21C2121.47 2073.71 2126.97 2088.75 2133.42 2100C2149.23 2127.58 2164.76 2155.33 2180.42 2183C2227.13 2265.5 2274.27 2347.75 2321.42 2430C2482.02 2710.15 2636.97 2993.85 2801 3272"/>
</svg>
