<?xml version="1.0" standalone="yes"?>
<svg width="4000" height="4500">
<path style="stroke:none;fill:none;" d="M2794 472C2777.44 512.354 2755.4 550.573 2736.78 590C2689.95 689.145 2641.02 787.292 2593.26 886L2198.74 1701C2175.99 1748.02 2153.6 1795.29 2130.25 1842C2121.21 1860.08 2114.37 1886.91 2100.61 1901.79C2095.73 1907.06 2087.19 1909.43 2081 1912.86C2063.04 1922.82 2044.37 1931.57 2026 1940.75C2019.83 1943.84 2002.29 1949.03 2000.32 1956.1C1997.18 1967.4 2000 1983.26 2000 1995L2000 2079L2000 2352L2000 3239M1215 477L1253.25 558L1370.78 806L1674.69 1446L1820.69 1755L1868.75 1856L1888.42 1896.79L1917 1912.31L2000 1955"/>
</svg>
