<?xml version="1.0" standalone="yes"?>
<svg width="4000" height="4500">
<path style="stroke:none;fill:none;" d="M1311 489L2294 489L2549 489L2615 489C2622.47 489 2634.75 486.634 2641 491.318C2645.28 494.526 2652.73 500.733 2654.31 506C2656.94 514.81 2649.85 531.09 2648 540C2640.2 577.694 2632.22 615.349 2624.21 653C2619.44 675.434 2617.1 700.393 2609.45 722C2603.68 738.297 2592.84 753.729 2584.78 769C2567.13 802.425 2549.29 835.755 2531.31 869C2484.23 956.044 2436.65 1043.07 2391.26 1131C2286.6 1333.75 2176.86 1534.3 2068.31 1735C1895.17 2055.13 1726.85 2377.87 1553.69 2698C1517.37 2765.16 1482.02 2832.84 1445.69 2900C1427.82 2933.05 1404.92 2966.94 1391.47 3002C1387.75 3011.69 1386.8 3022.88 1384.58 3033C1379.17 3057.62 1374.11 3082.32 1369 3107C1362.37 3139.01 1355.86 3171.11 1348.65 3203C1346.8 3211.21 1339.11 3230.8 1344.33 3238C1351.76 3248.25 1360.69 3247 1372 3247L1428 3247L1672 3247L2680 3247"/>
</svg>
