<?xml version="1.0" standalone="yes"?>
<svg width="4000" height="4500">
<path style="stroke:none;fill:none;" d="M1972 343.424C1990.03 341.057 2009.94 342.674 2028 343.911C2050.29 345.438 2072.7 345.383 2095 346.911C2188.82 353.335 2281.06 362.946 2373 384.113C2539.43 422.429 2698.75 488.823 2842 582.344C2939.12 645.75 3026.73 720.676 3109 801.996C3351.5 1041.71 3520.89 1355.27 3569.7 1694C3611.7 1985.45 3591.01 2291.98 3485.94 2569C3291.93 3080.49 2796.15 3472.14 2253 3539.71C2169.29 3550.13 2083.45 3558.59 1999 3558C1713.51 3555.98 1427.55 3491.83 1179 3347.58C923.302 3199.17 703.226 2981.53 562.309 2721C457.788 2527.76 405.827 2312.82 390.91 2095C388.015 2052.72 385.176 2010.39 384.129 1968C382.975 1921.26 388.72 1873.59 391.91 1827C402.435 1673.31 434.312 1521.37 489.064 1377C573.398 1154.62 713.345 951.183 885 787.039C1009.68 667.815 1149.59 564.66 1306 490.781C1415.59 439.017 1530.71 402.524 1649 377.015C1716.45 362.47 1786.29 353.794 1855 349.089C1893.61 346.445 1933.68 348.454 1972 343.424M1319 974L2334 974C2436.34 974 2539.77 969.595 2642 974.019C2658.94 974.752 2665.94 1001.63 2681 1006.65C2686.38 1008.44 2696.76 1003.02 2702 1001.34C2718.45 996.094 2735.19 989.888 2752 986M2681 1008C2671.03 1044.53 2655.39 1080.31 2642.69 1116C2635.69 1135.67 2630.95 1161.21 2619.91 1178.91C2616.42 1184.51 2609.86 1188.8 2605 1193.17C2594.98 1202.19 2585.12 1211.38 2575 1220.29C2544.2 1247.4 2513.45 1274.66 2483 1302.17C2378.82 1396.26 2273.18 1488.74 2169 1582.83C2131.86 1616.38 2094.2 1649.35 2057 1682.83C2039.73 1698.38 2016.61 1713.67 2002.51 1732.09C1994.2 1742.94 1991.34 1761.26 1986.58 1774C1977.89 1797.23 1969.62 1820.63 1961.31 1844C1957.58 1854.48 1951.18 1866.01 1949.5 1877C1948.61 1882.82 1955.36 1887.36 1959 1891L1984 1916C1988.02 1920.02 1991.95 1925.41 1998 1925.94C2028.38 1928.59 2059.52 1925.71 2090 1927.04C2149 1929.62 2207.54 1935.51 2266 1944.58C2372.09 1961.03 2474.77 1994.13 2568 2047.58C2636.95 2087.11 2701.51 2142.11 2740.83 2212C2773.16 2269.46 2783.96 2339.02 2789.83 2404C2792.27 2431.01 2783.21 2462.28 2779.27 2489C2772.43 2535.44 2762.38 2580.58 2741.69 2623C2678.02 2753.59 2542.44 2827.54 2412 2876.23C2306.23 2915.71 2193.66 2928.44 2082 2936.09C1931.89 2946.37 1774.79 2936.02 1629 2897.16C1534.12 2871.86 1432.26 2837.56 1360.09 2767.83C1331.79 2740.49 1307.87 2708.15 1292.05 2672C1283.95 2653.48 1280.91 2631.74 1272 2614M1831 1916L1948 1880"/>
</svg>
