<?xml version="1.0" standalone="yes"?>
<svg width="4000" height="4500">
<path style="stroke:none;fill:none;" d="M1972 343.424C1990.03 341.057 2009.94 342.674 2028 343.911C2050.29 345.438 2072.7 345.383 2095 346.911C2188.82 353.335 2281.06 362.946 2373 384.113C2539.43 422.429 2698.75 488.823 2842 582.344C2939.12 645.75 3026.73 720.676 3109 801.996C3351.5 1041.71 3520.89 1355.27 3569.7 1694C3611.7 1985.45 3591.01 2291.98 3485.94 2569C3291.93 3080.49 2796.15 3472.14 2253 3539.71C2169.29 3550.13 2083.45 3558.59 1999 3558C1713.51 3555.98 1427.55 3491.83 1179 3347.58C923.302 3199.17 703.226 2981.53 562.309 2721C457.788 2527.76 405.827 2312.82 390.91 2095C388.015 2052.72 385.176 2010.39 384.129 1968C382.975 1921.26 388.72 1873.59 391.91 1827C402.435 1673.31 434.312 1521.37 489.064 1377C573.398 1154.62 713.345 951.183 885 787.039C1009.68 667.815 1149.59 564.66 1306 490.781C1415.59 439.017 1530.71 402.524 1649 377.015C1716.45 362.47 1786.29 353.794 1855 349.089C1893.61 346.445 1933.68 348.454 1972 343.424M1241 974L2335 974L2586 974L2649 974C2657.19 974 2669.28 971.757 2677 974.604C2681.75 976.356 2685.51 981.515 2689 985C2696.88 992.883 2705.71 1000.43 2712.85 1009C2718.74 1016.07 2712.61 1031.69 2711 1040C2705.53 1068.27 2699.91 1096.61 2695.08 1125C2690.47 1152.11 2687.33 1181.68 2679.43 1208C2670.24 1238.63 2652.46 1268.82 2639.31 1298C2609.54 1364.02 2579.15 1429.75 2549.86 1496C2422.94 1783.06 2291.98 2068.63 2161.31 2354C2070.58 2552.15 1985.32 2753.06 1892 2950"/>
</svg>
