<?xml version="1.0" standalone="yes"?>
<svg width="4000" height="4500">
<path style="stroke:none;fill:none;" d="M1971 343.424C2010.82 338.197 2055.14 344.181 2095 346.911C2197.39 353.922 2298.12 365.018 2398 390.105C2555.46 429.655 2704.34 493.667 2841 581.692C2938.31 644.372 3025.94 719.877 3108 800.996C3350.93 1041.14 3520.79 1354.59 3569.7 1694C3613.14 1995.47 3589.69 2313.74 3474.55 2598C3273.17 3095.15 2785.93 3473.41 2253 3539.71C2169.27 3550.13 2083.46 3558.59 1999 3558C1712.53 3555.97 1428.88 3490.83 1179 3347.57C923.084 3200.86 702.748 2980.64 562.309 2721C452.504 2517.99 399.002 2289.29 388.961 2060C387.444 2025.36 384.591 1990.74 385.004 1956C387.353 1758.52 419.542 1561.31 489.425 1376C573.126 1154.05 713.896 950.656 885 787.039C1093.12 588.028 1344.38 442.842 1627 381.662C1696.84 366.544 1768.75 354.974 1840 350.089C1883.23 347.125 1928.1 349.055 1971 343.424M2672 1838C2632.92 1868.04 2585.13 1890.31 2540 1909.57C2521.8 1917.34 2500.02 1922.18 2483 1932.09C2475.58 1936.4 2469.63 1944.08 2463 1949.54C2446.42 1963.19 2429.72 1976.76 2412 1988.97C2360.16 2024.7 2302.88 2051.64 2243 2070.81C2188.74 2088.17 2132.54 2097.52 2076 2103.17C2046.64 2106.1 2016.51 2110.82 1987 2110.82C1960.85 2110.82 1934.04 2107.66 1908 2105.17C1800.89 2094.93 1695.49 2071.73 1605 2010.25C1552.9 1974.86 1508.12 1925.65 1475.46 1872C1438.98 1812.06 1416.12 1745.78 1403.31 1677C1398.72 1652.33 1396.32 1626.94 1393.83 1602C1391.38 1577.54 1387.41 1552.63 1388.01 1528C1388.83 1494.78 1394.39 1460.94 1398.72 1428C1415.47 1300.6 1465.03 1178.43 1566 1094.44C1663.97 1012.93 1790.55 980.438 1915 971.911C2116.68 958.091 2324.72 994.691 2481 1131.71C2513.41 1160.13 2542.07 1191.75 2565.54 1228C2584.94 1257.98 2600.82 1290.22 2612.5 1324C2629.58 1373.44 2637.43 1425.47 2645.42 1477C2658.3 1560.01 2667.18 1643.35 2672.91 1727C2674.4 1748.69 2674.43 1771.27 2673.7 1793C2673.25 1806.43 2670.54 1821.71 2672.18 1835C2674.19 1851.24 2704.26 1855.35 2706.85 1872C2711.34 1900.85 2708.31 1932.03 2707.04 1961C2705.23 2002.41 2702.92 2043.66 2700.09 2085C2686.14 2288.64 2641.09 2502.86 2524.25 2674C2453.44 2777.73 2343.68 2864.62 2224 2904.25C2130.16 2935.33 2025.9 2943.53 1928 2934.17C1896.54 2931.16 1865.03 2928.88 1834 2922.49C1747.79 2904.71 1667.09 2866.38 1601 2807.71C1544.51 2757.56 1511.65 2692.89 1480 2626"/>
</svg>
