<?xml version="1.0" standalone="yes"?>
<svg width="4000" height="4500">
<path style="stroke:none;fill:none;" d="M1971 343.424C2010.82 338.197 2055.14 344.181 2095 346.911C2197.39 353.922 2298.12 365.018 2398 390.105C2555.46 429.655 2704.34 493.667 2841 581.692C2938.31 644.372 3025.94 719.877 3108 800.996C3350.93 1041.14 3520.79 1354.59 3569.7 1694C3613.14 1995.47 3589.69 2313.74 3474.55 2598C3273.17 3095.15 2785.93 3473.41 2253 3539.71C2169.27 3550.13 2083.46 3558.59 1999 3558C1712.53 3555.97 1428.88 3490.83 1179 3347.57C923.084 3200.86 702.748 2980.64 562.309 2721C452.504 2517.99 399.002 2289.29 388.961 2060C387.444 2025.36 384.591 1990.74 385.004 1956C387.353 1758.52 419.542 1561.31 489.425 1376C573.126 1154.05 713.896 950.656 885 787.039C1093.12 588.028 1344.38 442.842 1627 381.662C1696.84 366.544 1768.75 354.974 1840 350.089C1883.23 347.125 1928.1 349.055 1971 343.424M1309 1493C1317.99 1431.84 1345.02 1372.59 1376.55 1320C1414.82 1256.18 1463.05 1194.55 1521 1147.46C1632.71 1056.68 1767.52 1021.43 1908 1007.83C1943.06 1004.44 1978.78 1000.42 2014 1000C2082.24 999.193 2152.44 1006.61 2220 1015.71C2326.06 1030 2436.89 1060.46 2525 1123.43C2593.24 1172.2 2643.62 1239.07 2671.46 1318C2685 1356.4 2691.04 1396.8 2696.28 1437C2701.52 1477.2 2706.21 1516.62 2702.17 1557C2693.91 1639.59 2682.53 1719.82 2650.45 1797C2605.95 1904.05 2529.77 1995.26 2444 2071.83C2362.37 2144.72 2269.31 2201.73 2178 2261.34C2061.1 2337.66 1944.87 2415.25 1827 2490.05C1761.19 2531.82 1696.27 2575.05 1631 2617.66C1612.07 2630.02 1593.16 2642.58 1574 2654.58C1563.7 2661.03 1549.31 2667.79 1541.39 2677.09C1531.32 2688.92 1526.27 2709.74 1520.15 2724C1505.83 2757.37 1491.54 2790.78 1476.86 2824C1471.73 2835.62 1467.04 2847.44 1461.77 2859C1459.83 2863.25 1458.41 2869.34 1454.73 2872.44C1449.08 2877.17 1437.05 2877.87 1430 2879.63C1410.3 2884.55 1390.14 2891.29 1370 2894M1456 2873L1488 2905L1503 2918.4L1532 2919L1597 2919L1818 2919L2780 2919"/>
</svg>
