<?xml version="1.0" standalone="yes"?>
<svg width="4000" height="4500">
<path style="stroke:none;fill:none;" d="M1971 343.424C2010.82 338.197 2055.14 344.181 2095 346.911C2197.39 353.922 2298.12 365.018 2398 390.105C2555.46 429.655 2704.34 493.667 2841 581.692C2938.31 644.372 3025.94 719.877 3108 800.996C3350.93 1041.14 3520.79 1354.59 3569.7 1694C3613.14 1995.47 3589.69 2313.74 3474.55 2598C3273.17 3095.15 2785.93 3473.41 2253 3539.71C2169.27 3550.13 2083.46 3558.59 1999 3558C1712.53 3555.97 1428.88 3490.83 1179 3347.57C923.084 3200.86 702.748 2980.64 562.309 2721C452.504 2517.99 399.002 2289.29 388.961 2060C387.444 2025.36 384.591 1990.74 385.004 1956C387.353 1758.52 419.542 1561.31 489.425 1376C573.126 1154.05 713.896 950.656 885 787.039C1093.12 588.028 1344.38 442.842 1627 381.662C1696.84 366.544 1768.75 354.974 1840 350.089C1883.23 347.125 1928.1 349.055 1971 343.424M2039 959C2030.58 1004.31 2023.63 1048.68 2010.28 1093C2005.2 1109.88 1999.12 1126.5 1992.95 1143C1990.47 1149.63 1984.98 1157.96 1984.42 1165C1983.72 1173.84 1998.48 1178.2 1999.85 1187C2001.49 1197.5 2000 1209.37 2000 1220L2000 1287L2000 1779L2000 2917M1546 1216C1565.42 1211.38 1589.99 1214.23 1610 1214C1640.92 1213.63 1672.15 1211.02 1703 1208.91C1797.95 1202.4 1889.93 1186.21 1983 1167"/>
</svg>
