<?xml version="1.0" standalone="yes"?>
<svg width="4000" height="4500">
<path style="stroke:none;fill:none;" d="M1972 343.424C1990.03 341.057 2009.94 342.674 2028 343.911C2050.29 345.438 2072.7 345.383 2095 346.911C2188.82 353.335 2281.06 362.946 2373 384.113C2539.43 422.429 2698.75 488.823 2842 582.344C2939.12 645.75 3026.73 720.676 3109 801.996C3351.5 1041.71 3520.89 1355.27 3569.7 1694C3611.7 1985.45 3591.01 2291.98 3485.94 2569C3291.93 3080.49 2796.15 3472.14 2253 3539.71C2169.29 3550.13 2083.45 3558.59 1999 3558C1713.51 3555.98 1427.55 3491.83 1179 3347.58C923.302 3199.17 703.226 2981.53 562.309 2721C457.788 2527.76 405.827 2312.82 390.91 2095C388.015 2052.72 385.176 2010.39 384.129 1968C382.975 1921.26 388.72 1873.59 391.91 1827C402.435 1673.31 434.312 1521.37 489.064 1377C573.398 1154.62 713.345 951.183 885 787.039C1009.68 667.815 1149.59 564.66 1306 490.781C1415.59 439.017 1530.71 402.524 1649 377.015C1716.45 362.47 1786.29 353.794 1855 349.089C1893.61 346.445 1933.68 348.454 1972 343.424M1369 2596C1381.8 2638.42 1404.98 2677.11 1431.76 2712C1453.21 2739.93 1477.2 2765.77 1504 2788.7C1616.07 2884.58 1760.8 2919.54 1904 2933.17C2039.63 2946.08 2183.2 2940.32 2311 2888.55C2446.29 2833.74 2558.6 2724.47 2616.83 2591C2646.86 2522.16 2660.74 2448.32 2668.17 2374C2671.46 2341.1 2676.41 2307.11 2674.96 2274C2669.69 2153.45 2649.32 2023.92 2580.41 1922C2529.61 1846.88 2457.26 1793.16 2377 1752.75C2197.25 1662.25 1990.26 1654.58 1797 1702.9C1741.16 1716.86 1687.43 1737.09 1636 1762.81C1613.39 1774.11 1592.34 1792.44 1569 1801.66C1547.32 1810.23 1522.47 1814.25 1500 1820.71C1471.59 1828.87 1445.76 1840 1416 1840C1408.76 1840 1396.3 1842.37 1390 1838.4C1371.44 1826.68 1375 1809.03 1375 1790L1375 1671L1375 1164L1375 1022C1375 1009.37 1369.48 981.801 1383 975.028C1390.06 971.491 1403.2 974 1411 974L1478 974L1720 974L2586 974"/>
</svg>
