<?xml version="1.0" standalone="yes"?>
<svg width="4000" height="4500">
<path style="stroke:none;fill:none;" d="M1971 343.424C2010.82 338.197 2055.14 344.181 2095 346.911C2197.39 353.922 2298.12 365.018 2398 390.105C2555.46 429.655 2704.34 493.667 2841 581.692C2938.31 644.372 3025.94 719.877 3108 800.996C3350.93 1041.14 3520.79 1354.59 3569.7 1694C3613.14 1995.47 3589.69 2313.74 3474.55 2598C3273.17 3095.15 2785.93 3473.41 2253 3539.71C2169.27 3550.13 2083.46 3558.59 1999 3558C1712.53 3555.97 1428.88 3490.83 1179 3347.57C923.084 3200.86 702.748 2980.64 562.309 2721C452.504 2517.99 399.002 2289.29 388.961 2060C387.444 2025.36 384.591 1990.74 385.004 1956C387.353 1758.52 419.542 1561.31 489.425 1376C573.126 1154.05 713.896 950.656 885 787.039C1093.12 588.028 1344.38 442.842 1627 381.662C1696.84 366.544 1768.75 354.974 1840 350.089C1883.23 347.125 1928.1 349.055 1971 343.424M1330 2067C1331.55 2081.49 1327.95 2097.43 1327.13 2112C1325.34 2143.79 1323.69 2176.1 1325.04 2208C1327.89 2275.5 1335.63 2342.79 1342.83 2410C1353.41 2508.73 1369.85 2608.92 1424.55 2694C1456.22 2743.27 1499.16 2783.85 1547 2817.28C1597.76 2852.75 1654.21 2883.16 1713 2903C1775.88 2924.21 1839.15 2935.9 1905 2942.17C1938.26 2945.34 1972.57 2948.39 2006 2948C2226.37 2945.38 2475.97 2881.25 2590.83 2674C2616.83 2627.09 2632.69 2575.43 2642.8 2523C2648.47 2493.65 2651.2 2463.71 2654.17 2434C2655.92 2416.53 2659.69 2397.53 2658.79 2380C2653.09 2269 2632.08 2156.11 2572.05 2061C2440.77 1853 2175.42 1786.43 1944 1808.83C1880.43 1814.98 1819.33 1826.15 1759 1847.7C1708.83 1865.62 1659.24 1891 1615 1920.67C1598.41 1931.8 1581.93 1943.07 1566 1955.13C1557.5 1961.56 1549.32 1970.1 1540 1975.25C1529.05 1981.3 1514.81 1983.49 1503 1987.69C1478.39 1996.45 1454.02 2005.71 1430 2016C1405.41 2026.54 1381.67 2038.84 1358 2051.26C1351.18 2054.83 1338.7 2065.94 1331 2065.7C1318.31 2065.31 1317.01 2048.8 1316.17 2040C1313.37 2010.59 1314.29 1979.56 1315.01 1950C1316.25 1899.63 1320.45 1849.26 1323.91 1799C1327.34 1749.21 1334.08 1700.35 1341.7 1651C1377.8 1417.32 1472.34 1163.8 1688 1040.43C1769.79 993.64 1858.35 977.253 1951 970.911C2092.92 961.194 2240.77 980.092 2372 1036.72C2454.16 1072.17 2528.59 1130.96 2567.61 1213C2577.36 1233.51 2587.95 1257.33 2591 1280"/>
</svg>
