<?xml version="1.0" standalone="yes"?>
<svg width="4000" height="4500">
<path style="stroke:none;fill:none;" d="M1971 343.424C2010.82 338.197 2055.14 344.181 2095 346.911C2197.39 353.922 2298.12 365.018 2398 390.105C2555.46 429.655 2704.34 493.667 2841 581.692C2938.31 644.372 3025.94 719.877 3108 800.996C3350.93 1041.14 3520.79 1354.59 3569.7 1694C3613.14 1995.47 3589.69 2313.74 3474.55 2598C3273.17 3095.15 2785.93 3473.41 2253 3539.71C2169.27 3550.13 2083.46 3558.59 1999 3558C1712.53 3555.97 1428.88 3490.83 1179 3347.57C923.084 3200.86 702.748 2980.64 562.309 2721C452.504 2517.99 399.002 2289.29 388.961 2060C387.444 2025.36 384.591 1990.74 385.004 1956C387.353 1758.52 419.542 1561.31 489.425 1376C573.126 1154.05 713.896 950.656 885 787.039C1093.12 588.028 1344.38 442.842 1627 381.662C1696.84 366.544 1768.75 354.974 1840 350.089C1883.23 347.125 1928.1 349.055 1971 343.424M2140 998C2131.7 1027.48 2124.3 1057.29 2116.87 1087C2114.7 1095.68 2113.25 1115.19 2106.57 1121.3C2096.03 1130.94 2074.16 1135.4 2061 1141C2025.43 1156.13 1989.49 1170.42 1954 1185.72C1940.03 1191.74 1915.53 1196.7 1906.16 1209.02C1887.43 1233.62 1871.05 1260.43 1853.66 1286C1824.72 1328.52 1795.16 1370.65 1765.97 1413C1640.56 1594.96 1517.17 1778.56 1389.58 1959C1355.22 2007.58 1322.36 2057.22 1288.28 2106C1275.76 2123.92 1263.13 2141.81 1251 2160C1245.82 2167.76 1238.92 2175.4 1235.21 2184C1224.84 2208.07 1221.07 2237.57 1214.63 2263C1209.06 2285 1203.65 2307.14 1197.58 2329C1195.62 2336.02 1189.2 2349.91 1191.49 2357C1193.23 2362.36 1200.13 2367.13 1204 2371C1208.81 2375.81 1214.48 2383.99 1221 2386.4C1226.41 2388.39 1234.29 2387 1240 2387L1282 2387L1555 2387L2719 2387M2108 1122C2116.91 1130.91 2135.02 1143.13 2139.4 1155C2142.9 1164.51 2140 1179.88 2140 1190L2140 1270L2140 1590L2140 2919"/>
</svg>
