<?xml version="1.0" standalone="yes"?>
<svg width="4000" height="4500">
<path style="stroke:none;fill:none;" d="M1971 343.424C2010.82 338.197 2055.14 344.181 2095 346.911C2197.39 353.922 2298.12 365.018 2398 390.105C2555.46 429.655 2704.34 493.667 2841 581.692C2938.31 644.372 3025.94 719.877 3108 800.996C3350.93 1041.14 3520.79 1354.59 3569.7 1694C3613.14 1995.47 3589.69 2313.74 3474.55 2598C3273.17 3095.15 2785.93 3473.41 2253 3539.71C2169.27 3550.13 2083.46 3558.59 1999 3558C1712.53 3555.97 1428.88 3490.83 1179 3347.57C923.084 3200.86 702.748 2980.64 562.309 2721C452.504 2517.99 399.002 2289.29 388.961 2060C387.444 2025.36 384.591 1990.74 385.004 1956C387.353 1758.52 419.542 1561.31 489.425 1376C573.126 1154.05 713.896 950.656 885 787.039C1093.12 588.028 1344.38 442.842 1627 381.662C1696.84 366.544 1768.75 354.974 1840 350.089C1883.23 347.125 1928.1 349.055 1971 343.424M1981 960.424C2016.43 955.771 2055.55 962.482 2091 964.911C2266.47 976.934 2459.41 1056.18 2545.86 1219C2565.54 1256.06 2574.51 1295.39 2583.42 1336C2588.91 1360.96 2595.2 1387.46 2596.91 1413C2598.65 1439.06 2588.5 1469.52 2583.4 1495C2574.82 1537.87 2564.7 1579.21 2543.88 1618C2506.4 1687.85 2438.8 1736.95 2371 1774.49C2348.62 1786.88 2321.21 1794.08 2300.1 1808.07C2293.68 1812.33 2290.12 1823.31 2286.75 1830C2279.25 1844.9 2270.96 1859.5 2262.72 1874C2259.85 1879.05 2251.37 1888.99 2252.7 1895C2254.73 1904.2 2265.76 1915.14 2271 1923C2277.17 1932.26 2283.32 1941.55 2289.19 1951C2291.94 1955.42 2294.82 1962.09 2299.21 1965.07C2308.72 1971.51 2327.76 1973.56 2339 1976.37C2360.56 1981.77 2382.04 1989.44 2403 1996.86C2500.84 2031.5 2601.85 2082.78 2673.72 2159.09C2703.47 2190.69 2729.17 2226.31 2744.99 2267C2755.86 2294.97 2761.53 2324.68 2767.4 2354C2771.97 2376.87 2778.53 2401.62 2778.98 2425C2779.49 2450.76 2771.98 2478.72 2767.42 2504C2750.18 2599.61 2714.38 2685.49 2642 2752.91C2598.42 2793.5 2547.39 2821.14 2494 2846.32C2409.1 2886.36 2315.65 2911.05 2223 2924.7C2024.9 2953.88 1816.23 2942 1624 2884.72C1547.77 2862.01 1472.43 2832.73 1404 2791.69C1337.35 2751.72 1281.2 2690.85 1249.09 2620C1232.35 2583.04 1222.55 2543.66 1214.6 2504C1209.71 2479.6 1201.54 2452.95 1201.05 2428C1200.67 2408.12 1208.3 2385.37 1212.58 2366C1221.64 2324.97 1230.28 2281.28 1250.37 2244C1316.21 2121.87 1451.2 2049.08 1577 2002.95C1612.11 1990.08 1648.02 1980.43 1684 1970.42C1696.47 1966.96 1716.06 1966.88 1726.9 1960.06C1737.02 1953.69 1744.86 1934.82 1751.72 1925C1757.35 1916.94 1769.29 1905.59 1771.47 1896C1772.79 1890.17 1764.5 1880.88 1761.72 1876C1753.56 1861.68 1745.17 1847.49 1737.31 1833C1733.5 1825.98 1730.36 1816.78 1723 1812.82C1696.01 1798.33 1666.97 1787.51 1640 1772.69C1571.86 1735.25 1506.07 1683.47 1464.25 1617C1440.46 1579.19 1430.84 1538.21 1422.2 1495C1416.79 1467.94 1408.34 1437.67 1408.34 1410C1408.34 1387.39 1414.88 1363.22 1418.75 1341C1425.35 1303.1 1433.43 1265.63 1448.31 1230C1485.2 1141.68 1559.34 1075.23 1643 1031.78C1712.82 995.526 1793.02 974.998 1871 967.17C1907.42 963.514 1944.8 965.179 1981 960.424M1773 1895C1800.7 1898.53 1829.12 1898.45 1857 1900.09C1936.23 1904.73 2017.6 1906.34 2097 1902.96C2148.34 1900.78 2199.63 1895.82 2251 1894"/>
</svg>
