<?xml version="1.0" standalone="yes"?>
<svg width="4000" height="4500">
<path style="stroke:none;fill:none;" d="M1971 343.424C2010.82 338.197 2055.14 344.181 2095 346.911C2197.39 353.922 2298.12 365.018 2398 390.105C2555.46 429.655 2704.34 493.667 2841 581.692C2938.31 644.372 3025.94 719.877 3108 800.996C3350.93 1041.14 3520.79 1354.59 3569.7 1694C3613.14 1995.47 3589.69 2313.74 3474.55 2598C3273.17 3095.15 2785.93 3473.41 2253 3539.71C2169.27 3550.13 2083.46 3558.59 1999 3558C1712.53 3555.97 1428.88 3490.83 1179 3347.57C923.084 3200.86 702.748 2980.64 562.309 2721C452.504 2517.99 399.002 2289.29 388.961 2060C387.444 2025.36 384.591 1990.74 385.004 1956C387.353 1758.52 419.542 1561.31 489.425 1376C573.126 1154.05 713.896 950.656 885 787.039C1093.12 588.028 1344.38 442.842 1627 381.662C1696.84 366.544 1768.75 354.974 1840 350.089C1883.23 347.125 1928.1 349.055 1971 343.424M1995 1006.42C2021.53 1002.9 2052.86 1012.21 2079 1016.75C2125.03 1024.75 2167.88 1036.21 2208 1061.11C2301.11 1118.91 2359.45 1219.83 2401.43 1318C2416.11 1352.35 2430.18 1387.9 2439.89 1424C2453.95 1476.35 2469.72 1528.37 2478.68 1582C2498.36 1699.83 2510.06 1818.63 2512.99 1938C2514.67 2006.98 2508.82 2076.32 2504.09 2145C2495.3 2272.7 2476 2404.58 2433.7 2526C2386.33 2661.93 2313.39 2810.99 2177 2876.89C2139.71 2894.91 2099.67 2901.37 2059 2906.72C2040.67 2909.13 2021.49 2912.59 2003 2912.95C1986.21 2913.27 1968.65 2909.15 1952 2907.16C1907.24 2901.78 1864.36 2893.9 1824 2873.02C1779.43 2849.96 1743.42 2813.06 1711.71 2775C1639.67 2688.5 1591.43 2577.64 1564.1 2469C1511.72 2260.75 1493.24 2044.15 1507.91 1830C1517.09 1695.92 1533.7 1563.31 1572.23 1434C1598.89 1344.53 1634.86 1257.81 1687 1180C1721.05 1129.18 1764.83 1080.77 1819 1051.03C1872.46 1021.67 1935.33 1014.36 1995 1006.42"/>
</svg>
