<?xml version="1.0" standalone="yes"?>
<svg width="4000" height="4500">
<path style="stroke:none;fill:none;" d="M1472 735C1506.32 700.683 1543.48 668.983 1579 635.911C1654.44 565.665 1730.56 496.155 1806 425.911C1827.59 405.805 1849.12 385.625 1871 365.83C1881.21 356.588 1890.99 344 1903 337.085C1919.43 327.625 1942.84 323.75 1961 318.28C1972.11 314.933 1985.4 307.748 1997 307.278C2010.41 306.735 2028.25 316.58 2041 320.656C2058.03 326.1 2080.8 329.402 2096 338.843C2106.15 345.15 2114.31 355.811 2123 363.911C2143.54 383.045 2163.71 402.557 2184 421.961C2303.88 536.593 2427.55 647.882 2545 765"/>
</svg>
