<?xml version="1.0" standalone="yes"?>
<svg width="4000" height="4500">
<path style="stroke:none;fill:none;" d="M1455 1624C1465.38 1592.09 1474.54 1560.21 1487.09 1529C1521.26 1444.04 1575.89 1362.11 1651 1308.43C1726.92 1254.18 1818.77 1236.3 1910 1229.91C1947.69 1227.27 1986.14 1222.38 2024 1224.04C2178.82 1230.81 2345.81 1279.31 2434.45 1417C2472.9 1476.72 2486.73 1548.52 2494.17 1618C2502.47 1695.54 2507 1772.99 2507 1851L2507 2642L2507 2922L2507 2996C2507 3006.1 2509.46 3019.94 2503.78 3028.89C2500.52 3034.02 2492.44 3034.99 2487 3036.58C2472.65 3040.77 2458.37 3045.16 2444 3049.29C2408.41 3059.52 2372.81 3069.7 2337 3079.12C2315.94 3084.65 2293.56 3088.33 2273 3095.48C2255.23 3101.66 2237.83 3119.57 2222 3129.92C2188.52 3151.81 2153.49 3171.29 2117 3187.69C2065.44 3210.86 2010.64 3221.38 1955 3229.13C1921.47 3233.8 1886.86 3240.16 1853 3240.99C1831.85 3241.5 1809.97 3237.87 1789 3235.28C1740.47 3229.3 1692.84 3218.76 1648 3198.83C1517.85 3140.97 1455.85 3011.61 1437.72 2877C1431.31 2829.41 1424.84 2780.07 1426.01 2732C1429.64 2584.11 1470.49 2440.14 1573.09 2330C1648.57 2248.97 1748.07 2193 1850 2152.55C1969.78 2105.02 2099.08 2074.6 2227 2059.29C2274.7 2053.58 2323.12 2053.19 2371 2049.91C2415.79 2046.84 2461.07 2044 2506 2044M2503 3032C2507.88 3037.77 2507 3043.81 2507 3051L2507 3088L2507 3238"/>
</svg>
