<?xml version="1.0" standalone="yes"?>
<svg width="4000" height="4500">
<path style="stroke:none;fill:none;" d="M1993 353C2004.62 403.67 2019.93 454.036 2034.29 504C2037.93 516.648 2041.36 529.353 2045 542C2046.23 546.269 2046.89 553.848 2050.51 556.775C2062.8 566.69 2086.19 571.199 2101 576.681C2136.08 589.664 2170.77 603.728 2206 616.308C2222.22 622.099 2246.62 626.731 2258.99 639.015C2294.41 674.206 2327.44 712.08 2362.29 747.83C2427.53 814.763 2495.6 879.194 2564 942.911C2634.54 1008.62 2708.87 1070.31 2783 1131.92C2906.28 1234.38 3029.51 1344.92 3093.05 1496C3110.58 1537.68 3119.85 1580.6 3127.25 1625C3132.25 1655.01 3139.66 1687.53 3139.66 1718C3139.66 1741.64 3134.04 1766.67 3130.42 1790C3124.3 1829.48 3117.79 1868.75 3106.02 1907C3085.73 1972.99 3055.1 2036.1 3014.36 2092C2929.64 2208.25 2819.27 2306.02 2711 2399.71C2677.81 2428.43 2642.88 2455.04 2609 2482.92C2596.03 2493.59 2581.54 2502.73 2570 2515M2049 557L2015 591C2010.45 595.547 2002.88 600.829 2000.6 607C1998.8 611.891 2000 618.847 2000 624L2000 659L2000 778L2000 1239L2000 2538C2000 2659.5 2003.35 2781.71 1998.04 2903C1996.52 2937.78 1994.64 2972.33 1991.17 3007C1990.06 3018.14 1991.64 3036.11 1986.01 3045.96C1983.17 3050.94 1976.68 3053.73 1972 3056.68C1960.56 3063.89 1948.85 3070.8 1937 3077.31C1893.64 3101.12 1849.42 3122.69 1804 3142.28C1753.79 3163.94 1702.09 3183.01 1650 3199.66C1623.12 3208.25 1594.13 3213.9 1568 3224.45C1545.4 3233.58 1523.79 3246.3 1502 3257.19C1474.4 3270.99 1446.46 3284.18 1419 3298.26C1399.63 3308.19 1377.93 3322.45 1357 3328.36C1341.89 3332.63 1322.7 3331.15 1307 3332.29C1277.73 3334.4 1248.32 3337.74 1219 3339"/>
</svg>
