<?xml version="1.0" standalone="yes"?>
<svg width="4000" height="4500">
<path style="stroke:none;fill:none;" d="M2429 348L2429 862L2429 981C2429 1003.11 2425.29 1020.92 2445 1035.68C2453.21 1041.83 2475.29 1034.94 2485 1033.58C2520.95 1028.51 2557 1024.02 2593 1019.28C2622.38 1015.42 2653.04 1013.76 2682 1007.49C2717.14 999.879 2751.5 986.504 2786 976.424C2875.73 950.205 2965.08 922.519 3055 897M1539 474L1539 1085L1539 1235C1539 1249.23 1534.69 1271.67 1539.6 1285C1541.49 1290.12 1547.23 1294.23 1551 1298C1546.63 1303.14 1540.9 1310.3 1539.39 1317C1536.07 1331.76 1542.21 1348.32 1538.58 1363C1536.96 1369.56 1528.93 1375.23 1528.68 1382C1528.43 1388.82 1538.65 1392.29 1538.98 1400C1541.49 1458.09 1539 1516.85 1539 1575L1539 2347L1539 2569L1539 2626C1539 2632.31 1536.98 2642.78 1541.32 2647.93C1545.34 2652.69 1551.6 2650.95 1557 2650.28C1569.31 2648.77 1581.67 2647.49 1594 2646.17C1647.67 2640.42 1701.42 2634.87 1755 2628.28C1799.29 2622.84 1841.95 2609.8 1885 2598.15C1934.51 2584.76 1984.59 2573.31 2034 2559.58C2066.23 2550.62 2098.66 2542.62 2131 2534.12C2146.58 2530.02 2162.14 2524.34 2178 2521.46C2232.84 2511.51 2289.65 2507.78 2345 2501.16C2361.33 2499.2 2377.65 2496.92 2394 2495.17C2400.23 2494.5 2409.9 2495.16 2415.53 2492.4C2418.44 2490.97 2420.29 2486.6 2422 2484C2431.21 2469.99 2426.31 2459.25 2429.27 2444C2430.72 2436.59 2437.49 2428.86 2442 2423C2437.96 2418.96 2431.62 2414.48 2429.6 2409C2427.61 2403.59 2429 2395.71 2429 2390L2429 2348L2429 2165L2429 1423L2429 1194C2429 1175.07 2433.28 1150.33 2428.68 1132C2427.48 1127.19 2421.4 1121.14 2417 1119.04C2409.36 1115.41 2393.26 1121.02 2385 1121.95C2354.6 1125.36 2324.37 1130.2 2294 1133.84C2256.78 1138.31 2217.63 1140.73 2181 1148.67C2151.03 1155.17 2121.38 1166.46 2092 1175.28C2031.67 1193.38 1971.45 1211.89 1911 1229.58C1882.95 1237.78 1854.99 1246.32 1827 1254.72C1811.93 1259.24 1796.58 1265.32 1781 1267.73C1729.93 1275.61 1678.31 1281.7 1627 1287.84C1602.94 1290.73 1575.17 1291.09 1552 1298M2448 1038C2441.48 1045.88 2432.23 1058.05 2429.5 1068C2426.96 1077.25 2430.71 1087.65 2428.61 1097C2426.96 1104.32 2420.51 1112.14 2416 1118M905 1541L977 1517.97L1086 1482.66L1224 1438.66L1296 1415.52L1352 1407.72L1527 1383M2442 2423L2598 2404.17L2679 2394.49L2815 2356.15L3058 2288M2417 2493L2428.4 2506L2429 2524L2429 2562L2429 2730L2429 3411M1543 2653C1534.92 2667.81 1539 2690.37 1539 2707C1539 2715.46 1540.32 2725.5 1532.67 2731.4C1528.2 2734.86 1519.43 2734.44 1514 2735.05C1499.66 2736.66 1485.31 2738.42 1471 2740.28C1414.06 2747.7 1356.93 2753.67 1300 2761.18C1287.67 2762.81 1274.97 2767.89 1263 2771.29C1239.7 2777.91 1216.38 2784.52 1193 2790.85C1122.86 2809.85 1053.01 2829.96 983 2849.42C952.733 2857.84 922.617 2867.98 892 2875M1533 2733C1544.57 2744.96 1539 2773.08 1539 2789L1539 2941L1539 3550"/>
</svg>
