<?xml version="1.0" standalone="yes"?>
<svg width="4000" height="4500">
<path style="stroke:none;fill:none;" d="M1468 364L1468 2081L1468 2587L1468 2737L1468 2781C1468 2786.99 1466.51 2795.33 1468.6 2801C1472.85 2812.53 1490.37 2824.37 1499 2833L1553 2887C1562.03 2896.03 1573.02 2904.77 1580.68 2915C1583.29 2918.48 1582.2 2922.35 1584.03 2926C1586.06 2930.07 1590.53 2932.41 1591.68 2937C1593.33 2943.59 1591.54 2951.25 1592.09 2958C1592.85 2967.26 1598.99 2984.5 1604.7 2991.87C1608.9 2997.28 1616.68 2995.77 1621.81 2999.7C1628.02 3004.45 1627.07 3014.65 1633.27 3019.06C1640.33 3024.08 1651.28 3022.41 1658.9 3026.43C1664.04 3029.15 1663.27 3036.54 1668.27 3038.98C1673.03 3041.3 1679.53 3040.16 1683.36 3044.3C1699.22 3061.44 1700.17 3091.44 1715.21 3109.49C1722.16 3117.82 1739.75 3111.16 1747.62 3119.23C1752.98 3124.72 1756.13 3133.36 1759.86 3140C1768.53 3155.45 1777.25 3171.91 1788 3186L1751 3223C1738.03 3235.97 1729.26 3246.97 1710 3247.75C1687.35 3248.67 1662.74 3239.06 1641 3233.63C1633.3 3231.7 1616.8 3227.35 1609.48 3232.03C1605.49 3234.58 1606 3239.91 1606 3244C1606 3254.4 1603 3263.56 1603 3274C1603 3296.76 1597.09 3307.91 1581 3324C1576.72 3328.28 1571.82 3335.25 1566 3337.4C1560.33 3339.49 1551.99 3338 1546 3338C1538.08 3338 1526.46 3340.15 1519 3337.4C1514.25 3335.64 1510.49 3330.49 1507 3327C1499 3319 1487.86 3310.72 1483.48 3300C1478.85 3288.67 1482.5 3277.23 1479.68 3266C1478.45 3261.07 1473.32 3258.66 1471.6 3254C1468.57 3245.76 1469.81 3228.48 1474 3221C1490.58 3228.13 1494.68 3241.7 1495 3259C1495.07 3262.56 1496.66 3270.19 1501.85 3269.37C1505.59 3268.78 1504.61 3263.48 1504.27 3261C1502.91 3250.97 1503 3241.11 1503 3231L1503 3192C1503 3188.55 1504.48 3180.44 1501.4 3178.03C1495.03 3173.06 1477.75 3180.75 1473.03 3173.68C1469.81 3168.86 1472.07 3157.63 1472 3152C1471.97 3149.79 1472.26 3145.32 1469.58 3144.35C1466.5 3143.23 1464.84 3147.9 1464.25 3150C1461.46 3159.96 1457.45 3168.5 1448 3173.83C1433.42 3182.03 1413.95 3178.5 1398 3178.71C1390.51 3178.81 1382.27 3179.8 1375 3177.56C1356.78 3171.92 1368.54 3142.7 1363.4 3130.1C1361.06 3124.39 1345.62 3118.82 1340.15 3122.03C1333.53 3125.91 1337 3147.19 1337 3154L1337 3190C1337 3195.21 1335.86 3202.06 1337.74 3207C1341.05 3215.67 1357.04 3230.81 1365 3235.53C1370.19 3238.61 1375.8 3230.2 1379 3227C1389.29 3216.71 1399.25 3205.87 1410 3196.06C1413.46 3192.9 1421.19 3189.4 1425.4 3193.6C1430.02 3198.22 1427 3215.74 1427 3222L1427 3305L1427 3329C1427 3331.62 1426.25 3336.11 1428.6 3337.97C1432.99 3341.45 1447.51 3339.07 1453 3338.92C1473.95 3338.36 1495.03 3339 1516 3339M1469 1426C1517.01 1416.06 1564.37 1399.78 1612 1387.87C1630.95 1383.14 1649.91 1378.34 1669 1374.21C1680.25 1371.78 1693.33 1370.53 1704 1366.22C1722.75 1358.65 1740.62 1342.75 1758 1332.2C1791.54 1311.84 1826.75 1294.14 1863 1279.14C1912.12 1258.82 1963.6 1248.28 2016 1240.73C2042.26 1236.95 2069.43 1232.36 2096 1233.01C2120.57 1233.62 2145.66 1237.48 2170 1240.87C2219.8 1247.81 2266.91 1258.88 2312 1281.81C2484.96 1369.74 2554.81 1575.34 2580.29 1755C2584.5 1784.69 2589.31 1814.14 2592.17 1844C2600.57 1931.79 2603.19 2018.93 2607.04 2107C2610.06 2175.95 2608 2245.01 2608 2314C2608 2366.77 2604.34 2419.36 2602.04 2472C2594.83 2636.75 2568.37 2805.6 2500.31 2957C2454.85 3058.1 2380.12 3150.99 2277 3196.83C2237.71 3214.3 2196.41 3224.16 2154 3230.27C2123.14 3234.72 2091.18 3240.22 2060 3240.99C2041.39 3241.44 2022.48 3238.14 2004 3236.17C1930.94 3228.34 1855.69 3217.15 1788 3187M1468 2802C1457.46 2812.54 1445.85 2822.63 1436.21 2834C1428.57 2843.02 1424.92 2856.66 1422.42 2868C1421.58 2871.82 1419.86 2877.18 1421.31 2881C1424.39 2889.09 1435.94 2896.94 1442 2903L1487 2948C1494.44 2955.44 1504.7 2963.09 1508.9 2973C1515.56 2988.73 1519.02 3006.53 1515.6 3023.99C1514.87 3027.71 1511.87 3029.65 1510.6 3033.04C1507.68 3040.86 1507.21 3054.66 1508.17 3063C1509.06 3070.65 1517.28 3068.58 1519.16 3075.04C1521.77 3084.01 1515.1 3089.26 1508 3092C1509.09 3094.91 1509.12 3100.87 1511.6 3102.82C1517.02 3107.08 1538.22 3104.92 1545 3104.3C1547.4 3104.08 1551.33 3105.3 1553.4 3103.88C1557.58 3101.03 1554.93 3090 1550.94 3088.12C1546.96 3086.24 1540.34 3088.91 1536 3089C1533.96 3072.88 1529.07 3051.18 1509 3049M1420 2881C1415.38 2885.62 1399.37 2896.98 1400.04 2904C1400.72 2911.15 1415.1 2921.1 1420 2926C1430.86 2936.86 1442.94 2947.27 1452.85 2959C1455.58 2962.23 1455.25 2966.2 1457.6 2969.42C1461.47 2974.73 1467.26 2979.45 1472 2983.98C1481.54 2993.11 1499.32 2984.65 1497.58 3004C1497.3 3007.2 1497.19 3012.02 1494.57 3014.26C1490.49 3017.73 1483.78 3015.14 1479 3016.43C1470.06 3018.86 1458.52 3031.12 1448.21 3023.4C1434.63 3013.22 1451.27 2996.64 1453.68 2987C1455.23 2980.81 1452.85 2974.9 1456 2969M1399 2905C1389.33 2914.67 1372.38 2925.31 1376.32 2941C1377.72 2946.61 1384.08 2951.08 1388 2955C1397.65 2964.65 1414.06 2976 1419.01 2989C1424.11 3002.42 1416.07 3019.2 1420.32 3032.72C1421.76 3037.32 1431.17 3039.21 1434.16 3044C1441.37 3055.55 1445.39 3070.85 1448.75 3084C1449.72 3087.8 1451.25 3093.08 1450.6 3097C1449.07 3106.08 1442.76 3110.55 1449 3120C1455.26 3116.66 1462.71 3120.33 1468.68 3117.4C1474.3 3114.63 1470.96 3094.15 1470 3089C1474.73 3088.64 1479.79 3085.72 1479.35 3080.1C1479.04 3076.12 1473.5 3074.67 1472.03 3070.96C1466.83 3057.83 1472.31 3040.45 1453 3040L1453 3032C1443.69 3032 1436.11 3030.14 1429 3037M1583 2926C1574.86 2934.14 1565.49 2941.94 1558.39 2951C1555.29 2954.96 1553.95 2960.04 1550.61 2963.82C1540.4 2975.35 1526.75 2989.8 1534 3007L1549 3006.37L1574 2998.09L1595 3001.1L1605 2993M1376 2943C1370.64 2948.36 1362.44 2954.17 1359.03 2961C1356.59 2965.88 1358 2973.67 1358 2979L1358 3020C1358 3025.46 1356.23 3034.72 1359.03 3039.58C1368.84 3056.62 1390.18 3066.74 1404 3080C1413.96 3072.04 1421.41 3092.08 1428.67 3085.58C1432.05 3082.55 1430.43 3073.47 1428.44 3070C1423.11 3060.71 1414.22 3045.84 1420 3035M1511 2982C1505.9 2989.3 1511.08 2999.46 1509.54 3008C1506.57 3024.44 1485.19 3031.27 1473 3020M1454 2988L1474 3006.55L1496 3007M1466 2998L1496 2998M1595 3002C1589.35 3007.65 1580.63 3013.81 1577.03 3021C1572.76 3029.52 1572.71 3044.44 1571.08 3054C1570.54 3057.16 1565.87 3073.76 1572.13 3073.65C1576.44 3073.58 1578.64 3066.94 1580.55 3064C1584.34 3058.17 1589.17 3055.41 1595 3052C1595.62 3062.56 1588.78 3075.52 1586.51 3086C1583.24 3101.08 1585 3117.65 1585 3133C1585 3140.03 1583.45 3149.15 1585.32 3155.94C1586.45 3160.05 1590.44 3160.01 1594 3159.99C1602.45 3159.94 1620.6 3163.13 1627.81 3158.97C1631.52 3156.83 1632.98 3151.54 1635 3148L1654 3167C1656.35 3169.36 1660.58 3172.42 1660.97 3176C1661.61 3182.01 1653.52 3185.46 1649 3186.79C1636.38 3190.52 1617.34 3189.15 1605 3184.92C1596.38 3181.96 1587.05 3166.64 1579.06 3166.64C1573.66 3166.64 1575 3175.63 1575 3179C1575 3191.28 1573.06 3207.31 1582.1 3216.98C1589.84 3225.26 1600.98 3223.57 1609 3231M1533 3008C1534.04 3012.38 1533.79 3017.19 1536.51 3020.99C1540.56 3026.62 1547.32 3029.73 1550.7 3036C1555.01 3044.03 1551.27 3050.94 1551.1 3059C1550.9 3068.68 1555.83 3078.16 1550 3087M1474 3009L1474 3019M1507 3018L1515 3026M1632 3019C1626.91 3024.09 1618.14 3030.13 1615.6 3037C1613.62 3042.37 1615.45 3048.43 1613.38 3054C1609.46 3064.59 1603.51 3075.93 1601.46 3087C1597.19 3110.09 1600 3135.58 1600 3159M1516 3028L1549 3057M1454 3031L1511 3029M1477 3032C1476.76 3039.45 1472.84 3040.7 1467 3044M1493 3032C1493 3044.39 1485.54 3051.76 1474 3042M1614 3036L1596 3052M1666 3039C1654.04 3050.96 1642.9 3062.84 1632.21 3075.82C1627.7 3081.3 1621.87 3084.12 1618.88 3091C1610.5 3110.28 1615 3137.42 1615 3158M1358 3040C1344.09 3055.04 1360.38 3068.38 1371 3079C1362.53 3089.05 1376.71 3106.74 1380.91 3117C1388.13 3134.65 1384 3159.27 1384 3178M1452 3041C1450.59 3058.88 1460.55 3074.15 1470 3089M1494 3046L1508 3048M1471 3060C1475.43 3060 1482.09 3058.78 1485.85 3061.6C1492.35 3066.49 1486.78 3075.01 1481 3077M1353 3061C1347.64 3066.36 1339.44 3072.17 1336.03 3079C1334.28 3082.49 1335 3087.21 1335 3091C1335 3100.58 1332.22 3114.97 1338 3123M1444 3064L1452 3062M1509 3069L1498 3087L1507 3091M1571 3075C1568.57 3094.26 1569 3113.6 1569 3133C1569 3139.46 1566.96 3149.97 1569.46 3155.94C1571.96 3161.9 1580.59 3160.36 1585 3158M1371 3080C1378.15 3087.15 1389.39 3096.1 1394 3105C1404.37 3124.99 1399 3156.13 1399 3178M1404 3080L1412.71 3109L1413 3177M1498 3088C1486.09 3101.06 1495.39 3104 1509 3104M1428 3089L1431.56 3154L1428 3178M1535 3090L1535 3103M1490 3100L1472 3104M1555 3106L1557 3111L1568 3108M1635 3148C1635.06 3140.37 1633.24 3122.28 1637.6 3116.11C1640.81 3111.57 1647.92 3109.94 1653 3108.63C1657.43 3107.49 1661.79 3106.36 1666 3108.86C1673.37 3113.23 1683.3 3131.79 1692 3131.79C1698.93 3131.79 1710.27 3115.73 1715 3111M1480 3111C1480.02 3115.23 1477.44 3138.46 1485.86 3133.8C1493.01 3129.84 1488.9 3118.13 1481 3119M1513 3111L1513 3135M1557 3111C1561.34 3122.11 1554.37 3151.35 1568 3155M1557 3113C1552.67 3121.12 1555 3133.93 1555 3143C1555 3146.3 1554.3 3150.65 1556.01 3153.62C1560.56 3161.5 1567.38 3162.61 1575 3166M1496 3121C1505.66 3114.85 1508.54 3130.16 1502.68 3133.66C1496.16 3137.56 1495.36 3126.75 1504 3125M1520 3132C1522.25 3134.09 1528.72 3135.72 1527.25 3130.13C1526.38 3126.83 1521.77 3127.08 1520.66 3123.87C1518.76 3118.33 1525.27 3118.72 1528 3121M1536 3121C1543.52 3114.21 1548.19 3128.66 1543.4 3133.14C1537.67 3138.51 1532.63 3127.07 1544 3125M1471 3119L1470 3143M1449 3120L1450 3129C1455.97 3124.28 1460.99 3126.45 1468 3127M1449 3130C1448.89 3143.04 1446.44 3150.89 1433 3154M1692 3133L1665.6 3160L1662 3174M1505 3143L1505 3145M1547 3149C1548.35 3152.85 1549.95 3154.36 1554 3155M1480 3168C1480 3164.04 1478.44 3155.84 1481.03 3152.6C1482.67 3150.54 1485.75 3151.33 1488 3151.41C1498.91 3151.8 1497 3158.84 1497 3168M1505 3151L1505 3168M1513 3168C1513 3164.05 1511.44 3155.84 1514.03 3152.6C1521.44 3143.34 1522 3165.4 1522 3168M1529 3158C1530.07 3152.77 1539.13 3148 1538.45 3155.87C1538.07 3160.39 1531.96 3157.64 1530.14 3160.6C1526.68 3166.21 1535.77 3167.62 1539 3166M1488 3152L1488 3168M1549 3154C1545.22 3161.08 1546.71 3172.08 1546.92 3180C1547.38 3197.31 1546.99 3214.68 1547 3232C1547 3239.44 1547.42 3251.29 1552.28 3257.44C1556.86 3263.23 1568.93 3262.12 1575 3268C1578.11 3263.68 1576.8 3259.42 1579.03 3255C1585.74 3241.68 1596.86 3254.86 1603 3261M1562 3162C1562 3182.62 1558.02 3208.03 1563.61 3228C1566.14 3237.05 1573.89 3243.86 1577 3253M1472 3176L1468.54 3198L1474 3220M1504 3177C1508.08 3176.03 1514.28 3175.01 1516.97 3179.28C1519.53 3183.33 1518 3191.38 1518 3196L1518 3239C1518 3244.23 1516.12 3253.53 1521.15 3256.91C1528.89 3262.1 1532.79 3253.63 1532.98 3247C1533.44 3231.7 1533 3216.31 1533 3201C1533 3193.9 1534.41 3185.39 1531 3179C1536.05 3176.09 1540.36 3175.96 1546 3177M1518 3178L1530 3179M1495 3178C1495 3187.5 1492.26 3197.11 1492.2 3206C1492.15 3213.9 1496.78 3220.74 1494.68 3229C1493.6 3233.28 1489.39 3235.71 1488.32 3240C1485.63 3250.72 1488.8 3255.17 1480 3264M1490 3203C1484.79 3197.9 1486.23 3189.59 1494 3189M1427 3193C1447.67 3186.89 1442 3211.72 1442 3225L1442 3338M1442 3193C1448.83 3190.98 1453.81 3192.2 1459 3197C1452.27 3206.35 1456 3225.76 1456 3237L1456 3338M1459 3197L1467 3197M1496 3221L1502 3221M1367 3238L1367 3313C1367 3318.1 1364.35 3334.6 1368.6 3337.97C1371.85 3340.54 1380.07 3339 1384 3339L1426 3339M1530 3260C1535.63 3267.39 1543.8 3265.73 1550 3260C1551.63 3265.52 1548.33 3275.92 1551.2 3280.4C1552.63 3282.63 1556.77 3282 1559 3282C1568.55 3282 1571.67 3277.36 1575 3269M1530 3261C1526.07 3266.47 1529.09 3272.58 1525.97 3277.85C1520.32 3287.39 1506.43 3275.39 1502 3271M1526 3282L1549 3282"/>
</svg>
