<?xml version="1.0" standalone="yes"?>
<svg width="4000" height="4500">
<path style="stroke:none;fill:none;" d="M1159 3038C1192.43 3004.57 1226.77 2971.76 1258.83 2937.01C1274.84 2919.66 1291.49 2902.67 1309 2886.83C1316.31 2880.22 1322.5 2872.1 1331 2866.93C1350.74 2854.91 1372.65 2845.7 1393 2834.69C1434.76 2812.1 1475.34 2786.84 1514 2759.29C1528.57 2748.91 1543 2738.35 1557 2727.2C1562.36 2722.93 1570.81 2718.25 1573.97 2712C1578.69 2702.68 1575.95 2683.43 1576 2673C1576.14 2645.04 1578 2617 1578 2589L1578 2289L1578 1608L1578 1387L1578 1315C1578 1303.73 1576.42 1291.14 1578.15 1280C1579.7 1270.02 1596.1 1258.9 1603 1252C1605.62 1249.38 1610.62 1245.89 1611.27 1242C1612.01 1237.56 1605.79 1230.65 1603.6 1227C1595.72 1213.87 1585.64 1200.93 1579.27 1187C1576.65 1181.25 1578 1173.19 1578 1167L1578 1126L1578 630L1578 504L1578 467C1578 461.847 1576.8 454.89 1578.6 450C1581.96 440.907 1598.84 425.753 1607 420.604C1612.5 417.136 1621 420.276 1627 420.95C1644.38 422.902 1661.62 425.998 1679 427.95C1709.58 431.385 1741.94 433.998 1772 440.517C1815.79 450.013 1859.2 467.673 1902 480.975C2179.24 567.133 2455.02 658.54 2733 742.28C2809.87 765.437 2885.86 791.931 2963 814.141C2979.76 818.965 2996.46 824.488 3013 830C3019.62 832.207 3029.16 833.257 3034.67 837.702C3039.23 841.38 3043.74 849.61 3045.93 855C3048.3 860.851 3047 868.789 3047 875L3047 918L3047 1067L3047 1418L3047 1531C3047 1549 3049.62 1569.23 3046.85 1587C3045.26 1597.25 3028.1 1608.9 3021 1616C3018.38 1618.62 3013.38 1622.11 3012.73 1626C3011.93 1630.82 3019.2 1639.07 3021.68 1643C3029.17 1654.89 3044.42 1672.13 3046.78 1686C3049.88 1704.27 3047 1725.45 3047 1744L3047 1863L3047 2662C3047 2743.32 3046 2824.77 3046 2906C3046 2929.03 3045 2952.03 3045 2975C3045 2983.65 3046.81 3000.32 3042.97 3008C3039.67 3014.6 3031.64 3019.53 3026 3024C3012.29 3034.87 2998.23 3045.25 2984 3055.42C2943.79 3084.15 2901.46 3110.18 2858 3133.69C2839.01 3143.96 2818.47 3152.3 2800 3163.35C2778.66 3176.12 2760.51 3200.49 2743 3218C2703.82 3257.18 2665.17 3296.83 2626 3336M1614 1242L1657 1248.28L1740 1259.73L1777 1265.01L1963 1323.97L2399 1462.03L2708 1560.03L2844 1603.24L2924 1614.28L3011 1626"/>
</svg>
