<?xml version="1.0" standalone="yes"?>
<svg width="4000" height="4500">
<path style="stroke:none;fill:none;" d="M1281 356L1281 1583L1281 1878L1281 1937C1281 1944.92 1278.85 1956.54 1281.6 1964C1284.7 1972.4 1298.78 1984.47 1306 1989.67C1312.65 1994.46 1329.09 1984.75 1336 1982C1364.38 1970.72 1393.41 1961.11 1422 1950.42C1442.11 1942.91 1462.64 1936.14 1483 1929.35C1492.95 1926.04 1504.88 1924.21 1514 1918.91C1523.8 1913.22 1532.02 1901.97 1540 1894C1554.91 1879.12 1570.65 1864.76 1587 1851.46C1640.8 1807.72 1699.57 1769.95 1763 1741.66C1868.03 1694.82 1988.56 1682.85 2102 1693.83C2157.58 1699.21 2211.95 1705.26 2266 1719.76C2316.84 1733.39 2364.86 1755.73 2411 1780.69C2499.58 1828.61 2583.16 1894.82 2638.3 1980C2704.01 2081.51 2719.77 2200.79 2727.91 2319C2729.18 2337.39 2726.37 2355.71 2725.09 2374C2722.54 2410.45 2718.38 2446.86 2713.17 2483C2704.66 2542 2688.78 2600.71 2666.45 2656C2646.22 2706.1 2623.2 2755.01 2594.57 2801C2409.26 3098.7 2097.99 3272.12 1784 3405.85C1728.99 3429.28 1673.15 3450.53 1617 3471.05C1589.04 3481.27 1561.01 3494.11 1532 3501.1C1492.19 3510.69 1449.53 3513.43 1409 3519.27C1379.01 3523.59 1349.02 3527.89 1319 3532C1311.03 3533.09 1293.76 3538.76 1287 3533.68C1278.82 3527.52 1281 3517.05 1281 3508L1281 3441L1281 3163L1281 2488L1281 2222L1281 2135C1281 2120.62 1279.47 2105.28 1281.18 2091C1285.2 2057.53 1301.17 2025.02 1308 1992"/>
</svg>
