<?xml version="1.0" standalone="yes"?>
<svg width="4000" height="4500">
<path style="stroke:none;fill:none;" d="M1617 341L1617 1005L1617 1225C1617 1261.88 1615.42 1299.15 1617.02 1336C1617.62 1349.92 1641.16 1355.25 1641.43 1368C1641.52 1372.43 1637.18 1378.14 1635.25 1382C1628.91 1394.67 1617.08 1409.49 1617 1424C1615.66 1681.32 1617 1938.68 1617 2196L1617 2643L1617 2723C1617 2734.69 1614.48 2749.67 1617.32 2761C1619.12 2768.2 1635.06 2784.12 1642 2786.68C1648.61 2789.13 1661.23 2783.75 1668 2782.4C1689.68 2778.06 1711.32 2773.53 1733 2769.2C1758.35 2764.13 1783.65 2758.87 1809 2753.8C1821.97 2751.21 1836.59 2750.03 1849 2745.44C1868.56 2738.2 1887.64 2725.24 1906 2715.31C1940.02 2696.91 1974.41 2678.55 2009 2661.25C2047.27 2642.1 2085.36 2622.05 2123 2601.69C2140.32 2592.33 2158.36 2579.66 2177 2573.25C2189.97 2568.79 2204.59 2567.06 2218 2564.21C2254.66 2556.41 2291.27 2548.27 2328 2540.8C2337.69 2538.83 2347.31 2536.55 2357 2534.6C2360.99 2533.8 2367.05 2533.53 2370.03 2530.44C2378.04 2522.13 2382.1 2506.29 2387.25 2496C2393.33 2483.84 2402.95 2469.35 2405.62 2456C2408.97 2439.26 2406 2419.08 2406 2402L2406 2291L2406 1679L2406 1267L2406 1194C2406 1184.71 2408.62 1170.74 2405.4 1162C2403.78 1157.62 2399.21 1154.21 2396 1151C2388.22 1143.22 2378.98 1129.79 2369 1125.04C2364.5 1122.9 2357.61 1125.88 2353 1126.8C2339.32 1129.54 2325.68 1132.46 2312 1135.2C2283.3 1140.94 2254.7 1147.26 2226 1153C2209.73 1156.25 2191.69 1158.06 2176 1163.41C2165.6 1166.95 2155.7 1173.59 2146 1178.68C2082.35 1212.07 2017.28 1243.11 1953 1275.25C1919.66 1291.92 1885.43 1314.78 1850 1326.4C1826.96 1333.96 1800.81 1336.21 1777 1340.8C1732.31 1349.42 1687.73 1358.57 1643 1367M2370 2532L2394 2556L2405.4 2569L2406 2592L2406 2643L2406 2815L2406 3566"/>
</svg>
