<?xml version="1.0" standalone="yes"?>
<svg width="4000" height="4500">
<path style="stroke:none;fill:none;" d="M1151 3338C1167.92 3324.38 1182.77 3307.42 1198 3292C1221.67 3268.05 1245.96 3244.63 1268.91 3220C1287.07 3200.51 1306.56 3175.61 1329 3160.97C1346.7 3149.42 1367.47 3141.42 1386 3131.14C1427.61 3108.06 1468.23 3083.34 1507 3055.71C1520.89 3045.81 1534.48 3035.53 1548 3025.12C1553.78 3020.67 1562.56 3015.64 1565.98 3009C1570 3001.18 1567.37 2990.42 1568.17 2982C1570.81 2954.26 1570 2925.89 1570 2898L1570 2627L1570 1652L1570 1038L1570 891C1570 873.962 1566.02 848.153 1583.21 837.139C1592.52 831.17 1607.42 829.468 1618 826.28C1641.04 819.338 1664.02 812.116 1687 804.975C1764.2 780.988 1841.57 757.512 1919 734.28C2168.27 659.493 2417.58 584.196 2666 506.659C2705.93 494.197 2746.06 482.385 2786 469.975C2806.74 463.53 2827.78 455.271 2849 450.668C2875.38 444.948 2903.24 443.237 2930 439.718C2951.34 436.912 2972.68 434.093 2994 431.13C3000.49 430.228 3012.31 426.343 3018 430.357C3027.21 436.853 3035.03 447.035 3043 455C3046.49 458.485 3051.64 462.247 3053.4 467C3056.81 476.252 3054 491.159 3054 501L3054 579L3054 963L3054 2192L3054 2553C3054 2589.69 3053.91 2626.39 3053.01 2663C3052.68 2676.75 3056.02 2697.13 3051.11 2710C3048.48 2716.87 3040.51 2721.59 3035 2726C3021 2737.2 3006.6 2747.89 2992 2758.29C2954.56 2784.97 2915.43 2809.77 2875 2831.69C2852.42 2843.93 2827.78 2853.94 2806 2867.47C2787.58 2878.91 2772.41 2898.9 2756.7 2913.8C2712.23 2955.98 2670.08 3000.48 2625 3042"/>
</svg>
