<?xml version="1.0" standalone="yes"?>
<svg width="4000" height="4500">
<path style="stroke:none;fill:none;" d="M2617 2724C2604.46 2765.25 2597.36 2807.33 2581.94 2848C2542.24 2952.65 2474.87 3054.36 2387 3124.55C2343.4 3159.38 2294.24 3187.34 2241 3204.41C2202.84 3216.64 2162.71 3221.91 2123 3226.17C2096.24 3229.03 2068.95 3233.65 2042 3232.99C2014.17 3232.3 1985.61 3227.88 1958 3224.28C1893.24 3215.85 1831.8 3202.13 1773 3172.73C1690.72 3131.59 1621.41 3067.06 1566.37 2994C1430.94 2814.2 1396.86 2586.31 1381.91 2368C1376.27 2285.66 1376.27 2203.34 1381.91 2121C1390.23 1999.52 1401.29 1878.47 1436.44 1761C1487.47 1590.42 1581.41 1424.61 1732 1322.89C1805.85 1273 1885.52 1250.49 1973 1239.72C2069.81 1227.79 2173.99 1233.22 2267 1265.08C2361.12 1297.32 2446.45 1360.1 2506.76 1439C2574.48 1527.58 2606.56 1633.05 2631 1740"/>
</svg>
