<?xml version="1.0" encoding="UTF-8" standalone="no"?>
<!-- Created with Inkscape (http://www.inkscape.org/) -->

<svg
   xmlns:dc="http://purl.org/dc/elements/1.1/"
   xmlns:cc="http://creativecommons.org/ns#"
   xmlns:rdf="http://www.w3.org/1999/02/22-rdf-syntax-ns#"
   xmlns:svg="http://www.w3.org/2000/svg"
   xmlns="http://www.w3.org/2000/svg"
   xmlns:xlink="http://www.w3.org/1999/xlink"
   xmlns:sodipodi="http://sodipodi.sourceforge.net/DTD/sodipodi-0.dtd"
   xmlns:inkscape="http://www.inkscape.org/namespaces/inkscape"
   id="svg2"
   version="1.1"
   inkscape:version="0.48.4 r9939"
   width="832"
   height="1169"
   sodipodi:docname="hantologie-_0005_petit-noir.svg">
  <metadata
     id="metadata8">
    <rdf:RDF>
      <cc:Work
         rdf:about="">
        <dc:format>image/svg+xml</dc:format>
        <dc:type
           rdf:resource="http://purl.org/dc/dcmitype/StillImage" />
        <dc:title />
      </cc:Work>
    </rdf:RDF>
  </metadata>
  <defs
     id="defs6" />
  <sodipodi:namedview
     pagecolor="#ffffff"
     bordercolor="#666666"
     borderopacity="1"
     objecttolerance="10"
     gridtolerance="10"
     guidetolerance="10"
     inkscape:pageopacity="0"
     inkscape:pageshadow="2"
     inkscape:window-width="640"
     inkscape:window-height="480"
     id="namedview4"
     showgrid="false"
     inkscape:zoom="0.4037639"
     inkscape:cx="303.31523"
     inkscape:cy="611.89982"
     inkscape:current-layer="g3006" />
  <g
     inkscape:groupmode="layer"
     id="layer1"
     inkscape:label="XX_hantologie-_0005_petit-noir_LEVEL"
     style="display:none">
    <image
       width="832"
       height="1169"
       xlink:href="../px/hantologie-_0005_petit-noir_LEVEL.png"
       id="image10"
       x="0"
       y="0" />
  </g>
  <g
     inkscape:label="hantologie-_0005_petit-noir_TRACE-01"
     id="g3006"
     inkscape:groupmode="layer"
     style="display:inline">
    <path
       inkscape:connector-curvature="0"
       id="path3024"
       d="m 467.73678,644.40344 c -0.32811,-0.3281 -1.75048,-2.95509 -3.16083,-5.83774 -1.41035,-2.88265 -4.88382,-7.89186 -7.71883,-11.13158 -4.64307,-5.3059 -5.8096,-6.06361 -11.75584,-7.63595 -9.84165,-2.60239 -16.82472,-2.29453 -27.26067,1.20183 -4.92492,1.65 -9.4874,3 -10.13885,3 -0.65144,0 -3.59699,1.66159 -6.54567,3.69242 -4.78602,3.29626 -5.46284,3.51084 -6.30835,2 -2.2868,-4.0863 -7.2177,-0.56773 -8.45623,6.03417 -0.74291,3.96009 -1.73901,4.76455 -3.40859,2.75283 -2.31941,-2.79472 0.50937,-13.75844 4.01708,-15.56933 4.52453,-2.33583 14.99624,-6.86102 18.23607,-7.88044 2.05484,-0.64656 3.99639,-1.59676 4.31455,-2.11155 1.1376,-1.84068 -0.73096,-4.92475 -3.36727,-5.55768 -1.47584,-0.35432 -4.42232,-1.51577 -6.54773,-2.581 -3.49889,-1.7536 -4.64117,-1.8334 -12.07774,-0.84378 -8.01522,1.06663 -8.38691,1.02143 -15.40787,-1.87378 -3.95698,-1.63173 -9.86095,-4.6126 -13.11993,-6.62416 C 352.76976,591.57362 335.2096,584.94214 321,581.07591 c -12.85978,-3.49897 -18.5636,-5.7356 -24.81286,-9.72983 -9.49045,-6.06585 -21.26416,-15.71541 -29.40102,-24.09664 -6.38912,-6.58099 -7.82944,-8.66816 -8.38673,-12.15324 -0.43981,-2.75046 -2.18397,-6.15374 -5.03611,-9.82674 C 250.96347,522.17898 249,519.25053 249,518.76178 c 0,-1.91433 -18.84321,-9.84242 -31.75,-13.35849 -2.80855,-0.7651 -1.00171,-3.29989 3.42814,-4.80929 6.13402,-2.09007 9.35584,-2.01139 18.21972,0.44491 4.04671,1.1214 7.55107,1.84549 7.78747,1.60909 0.64626,-0.64626 -5.05536,-4.4842 -9.37732,-6.31217 C 235.2136,495.45 229.9,494.44956 225.5,494.11262 c -4.4,-0.33694 -8,-1.05384 -8,-1.59311 0,-0.53927 2.025,-2.11427 4.5,-3.5 4.01327,-2.247 5.63569,-2.51951 15,-2.51951 7.97024,0 11.77541,0.47301 15.7937,1.96326 4.30492,1.59655 5.65657,1.73664 7.23643,0.75 1.0685,-0.66729 3.18634,-1.21813 4.7063,-1.22408 1.51996,-0.006 4.97259,-0.68096 7.6725,-1.5 2.69991,-0.81905 6.77414,-1.48918 9.05383,-1.48918 3.45882,0 4.71534,-0.59789 7.59107,-3.61207 3.79483,-3.97751 14.80911,-13.20374 21.35465,-17.88793 2.30565,-1.65 8.66947,-6.63935 14.14181,-11.08744 5.47234,-4.4481 11.74971,-9.22228 13.94971,-10.60929 2.2,-1.38702 7.56431,-5.08134 11.92069,-8.20962 4.35638,-3.12828 14.0606,-8.76078 21.56494,-12.51667 7.50433,-3.75589 14.51503,-7.3085 15.57931,-7.8947 19.99137,-11.01103 84.83259,-35.03328 106.1025,-39.30864 8.46755,-1.70202 13.74667,-0.17013 16.04855,4.65698 1.53635,3.22175 1.52444,3.54622 -0.20001,5.45172 -1.00847,1.11435 -3.65879,2.51757 -5.88959,3.11826 -2.2308,0.60069 -5.14502,1.9488 -6.47605,2.99578 C 495.81931,391.14337 493.9068,392 492.90033,392 491.01589,392 489,394.75267 489,397.32585 c 0,0.80153 1.16812,1.75051 2.59582,2.10884 2.02895,0.50924 5.09861,-0.72276 14.05664,-5.64159 15.14815,-8.31781 19.61962,-11.82866 27.17087,-21.33369 3.47784,-4.37768 9.10284,-11.04215 12.5,-14.80994 9.98133,-11.07028 21.65654,-27.52405 26.51447,-37.3666 1.56982,-3.18058 3.57103,-7.13287 4.44714,-8.78287 0.8761,-1.65 2.10471,-4.41353 2.73024,-6.14119 0.62552,-1.72765 3.40751,-5.10265 6.18219,-7.5 2.77467,-2.39734 7.03631,-6.27131 9.47031,-8.60881 2.43399,-2.3375 4.74199,-4.2573 5.12888,-4.26621 0.38689,-0.009 2.26521,-3.15327 4.17404,-6.98745 6.36031,-12.7757 15.47136,-21.15368 24.2794,-22.32592 3.15827,-0.42032 4.75,-0.26542 4.75,0.46225 0,0.73301 1.51043,0.86791 4.57391,0.40852 4.28195,-0.64212 4.50884,-0.56433 3.55459,1.2187 -0.56062,1.04753 -1.71888,2.48519 -2.5739,3.1948 -0.85503,0.70961 -1.5546,1.65259 -1.5546,2.0955 0,1.13017 10.63525,0.0605 15.7993,-1.58906 3.15382,-1.00743 4.91531,-1.09265 6.61139,-0.31987 1.76379,0.80364 3.04461,0.67465 5.40104,-0.5439 1.69892,-0.87855 4.53694,-1.59736 6.3067,-1.59736 1.76976,0 6.15888,-0.51218 9.7536,-1.13817 4.88619,-0.85089 6.63162,-0.85089 6.91525,0 0.20866,0.62599 1.48923,1.13817 2.84571,1.13817 1.35648,0 3.81013,0.69491 5.45256,1.54424 2.9422,1.52147 3.07784,1.47447 9.20034,-3.18761 6.29184,-4.79104 19.22398,-10.95194 25.81423,-12.29796 1.98007,-0.40442 4.6677,-1.48306 5.97251,-2.39699 1.30481,-0.91392 2.94725,-1.66168 3.64988,-1.66168 1.68939,0 1.62492,3.42746 -0.12824,6.8177 -2.31973,4.48586 -19.72924,18.67991 -37.09427,30.24311 -4.4,2.92991 -11.15,8.12685 -15,11.54875 -3.85,3.42189 -8.35,7.3859 -10,8.80891 -2.54883,2.19817 -1.77793,1.98528 5.12596,-1.4156 8.7291,-4.29998 10.37404,-4.72902 10.37404,-2.70582 0,1.57997 -5.2747,6.77185 -14.10497,13.88349 C 667.80438,317.91801 648.6708,334.92759 630.04137,352.5 624.79362,357.45 617.575,364.0572 614,367.18268 l -6.5,5.68267 7,-1.77231 c 3.85,-0.97477 15.55,-4.52962 26,-7.89966 20.0156,-6.45487 25.82676,-7.98068 49.5,-12.99698 5.225,-1.10716 12.19293,-2.16678 15.48428,-2.35471 5.04903,-0.28829 6.03686,-0.0703 6.32068,1.39455 0.71243,3.67711 -17.21294,16.22868 -26.80496,18.76918 -2.475,0.65551 -5.625,1.76131 -7,2.45732 -1.375,0.69601 -3.85,1.58669 -5.5,1.97928 -1.65,0.39259 -3.70731,1.35091 -4.57179,2.1296 C 665.87157,376.42415 652.34095,383 650.58578,383 c -0.74875,0 -3.55299,1.50758 -6.23166,3.35018 -3.0855,2.12245 -6.69967,3.61054 -9.86221,4.06064 -2.74555,0.39075 -8.81691,1.86541 -13.49191,3.27702 -22.049,6.65769 -35.33995,12.58128 -47.5,21.17009 -3.85,2.7193 -11.82495,8.23148 -17.72212,12.24928 -11.189,7.62318 -13.35622,9.89279 -9.4465,9.89279 2.78949,0 4.69751,1.76114 3.96791,3.66245 -0.35553,0.92649 0.539,1.8277 2.57814,2.59739 5.77344,2.17923 3.05621,4.6966 -5.10175,4.72651 -3.12019,0.0114 -3.97597,0.50029 -5.27568,3.01365 -1.25562,2.4281 -2.19034,3 -4.90324,3 -1.84353,0 -3.87543,0.63085 -4.51533,1.40189 -0.63991,0.77103 -2.32437,1.69325 -3.74325,2.04937 -1.41888,0.35611 -3.23256,1.30026 -4.03041,2.09811 -0.79784,0.79785 -2.20598,1.46494 -3.1292,1.48243 -0.92321,0.0175 -2.56431,0.70144 -3.64688,1.51988 -1.68134,1.27112 -1.92708,2.49773 -1.68557,8.41354 0.31529,7.72253 -0.007,8.59172 -5.78059,15.57827 -4.70423,5.69277 -4.91004,6.45651 -1.73984,6.45651 1.27912,0 3.36601,1.10738 4.63753,2.46085 2.05893,2.19163 2.17888,2.78189 1.09638,5.39527 -1.3077,3.15707 -6.51272,7.77682 -11.89985,10.56178 -2.8931,1.49564 -3.2508,2.08525 -2.67209,4.40445 0.36749,1.47271 1.25028,3.35265 1.96175,4.17765 3.33629,3.86863 3.6753,5.83522 1.68011,9.74612 -1.90462,3.73336 -1.90366,3.89446 0.0882,14.76421 1.30494,7.12123 3.91898,15.88868 7.4261,24.90705 4.4807,11.52184 5.59052,15.65284 6.44779,24 1.26376,12.3053 0.67089,16.27809 -2.65544,17.79366 -2.0589,0.9381 -2.81809,0.78217 -4.69605,-0.96452 -1.23206,-1.14594 -3.81511,-2.47398 -5.74011,-2.95121 -2.52509,-0.62599 -3.91782,-1.75685 -5,-4.05985 -1.67428,-3.56306 -3.00854,-3.93119 -6.33899,-1.749 -2.88091,1.88764 -7.19473,0.77694 -11.12335,-2.86397 -4.01793,-3.72369 -6.03522,-3.33598 -9.00443,1.7306 -3.36761,5.74638 -4.92801,6.93244 -11.89982,9.04497 -5.8579,1.77501 -5.86577,1.78266 -5.3161,5.16984 0.30276,1.86571 1.64176,4.86368 2.97555,6.66215 1.33378,1.79847 3.26275,5.74495 4.28659,8.76995 1.02384,3.025 2.88731,7.06696 4.14104,8.98213 1.25373,1.91518 2.27951,4.05268 2.27951,4.75 0,1.32603 -1.24054,1.69399 -2.26322,0.67131 z M 446.5907,596.25736 c -0.6935,-0.69349 -2.5907,0.71555 -2.5907,1.9241 0,0.6631 0.57378,0.58723 1.52417,-0.20152 0.83829,-0.69572 1.31823,-1.47088 1.06653,-1.72258 z M 634.57573,274.91632 c 1.88097,-2.07845 1.87884,-2.08056 -0.84501,-0.83949 -1.5019,0.68431 -2.73072,1.62197 -2.73072,2.08369 0,1.47255 1.63056,0.90519 3.57573,-1.2442 z"
       style="fill:#cfcfcf" />
    <path
       inkscape:connector-curvature="0"
       id="path3022"
       d="m 383.32345,632.39423 c 0.32183,-1.98317 1.24088,-4.60657 2.04235,-5.82976 1.45387,-2.21889 12.84909,-8.2535 19.80421,-10.4878 4.23614,-1.36084 6.13613,-3.26381 5.66257,-5.67145 -0.37179,-1.89023 -0.8915,-2.22006 -9.22594,-5.85532 -5.58804,-2.43735 -6.31811,-2.51774 -14.0919,-1.55173 -7.93457,0.98598 -8.42973,0.92345 -15.37889,-1.94215 -3.9492,-1.62852 -9.82579,-4.59379 -13.05909,-6.5895 -6.6371,-4.09665 -22.06295,-9.9363 -38.49763,-14.57377 -13.77663,-3.88743 -21.10901,-7.22156 -30.07913,-13.67738 -13.59311,-9.783 -30.5,-26.3756 -30.5,-29.93303 0,-2.60357 -3.65443,-9.4679 -6.97101,-13.09406 C 251.36305,521.36684 250,519.24214 250,518.46672 c 0,-1.57153 -14.06187,-8.60426 -23.72531,-11.86568 -3.42392,-1.15557 -6.34892,-2.55104 -6.5,-3.10104 -0.15108,-0.55 2.02357,-1.56193 4.83255,-2.24872 4.58666,-1.12144 6.06466,-1.0045 14.5,1.14728 13.98919,3.56851 14.51148,0.81486 1.13358,-5.97647 -2.89255,-1.46841 -7.39255,-2.86553 -10,-3.10472 -2.60745,-0.23918 -5.86528,-0.67011 -7.23961,-0.95762 -2.35879,-0.49345 -2.39564,-0.59816 -0.65777,-1.86893 4.09655,-2.99547 8.83379,-2.7561 20.10843,1.01609 7.64549,2.55797 11.13298,3.30824 11.8845,2.55672 0.58499,-0.58499 1.80389,-1.06363 2.70864,-1.06363 0.90476,0 2.4595,-0.9 3.45499,-2 0.99549,-1.1 2.97773,-2.00534 4.40499,-2.01187 1.42725,-0.007 5.07001,-0.67619 8.09501,-1.48813 3.025,-0.81194 7.25718,-1.4816 9.40484,-1.48813 3.20283,-0.01 4.55116,-0.68822 7.5,-3.77402 3.48085,-3.64253 10.53689,-9.44997 21.5515,-17.73785 2.9238,-2.2 9.52973,-7.41869 14.67983,-11.59708 5.15011,-4.1784 12.24524,-9.5784 15.76696,-12 3.52173,-2.42161 8.47173,-5.88279 11,-7.69152 4.12542,-2.95133 22.56308,-12.70849 41.59687,-22.01296 3.85,-1.88203 12.85,-5.81026 20,-8.72939 7.15,-2.91914 16.15,-6.62578 20,-8.23699 9.61647,-4.02444 38.22795,-13.66207 49.61747,-16.71338 C 499.80215,373.31666 509,374.58258 509,380.9433 c 0,2.22155 -3.5424,5.0567 -6.31814,5.0567 -1.03021,0 -3.16018,0.91647 -4.73326,2.0366 -1.57308,1.12013 -4.19741,2.50278 -5.83184,3.07254 -1.95029,0.67988 -3.34032,2.09341 -4.04422,4.11262 -1.52909,4.38634 -1.43259,4.62007 2.18787,5.29927 4.13379,0.7755 6.72579,-0.23278 20.15164,-7.83898 11.64741,-6.59866 19.39252,-12.84965 23.07088,-18.62027 1.24871,-1.95898 7.25455,-9.3568 13.3463,-16.43959 6.09176,-7.0828 12.33476,-14.73125 13.87334,-16.99656 1.53859,-2.2653 4.24274,-6.04473 6.00922,-8.39873 C 570.20791,327.56802 580,308.62199 580,306.51647 580,304.95626 588.95817,295 590.36197,295 c 2.11917,0 11.45965,-10.89506 15.01556,-17.51468 3.91488,-7.28787 10.85085,-15.18911 16.32399,-18.59578 2.7542,-1.71431 3.76195,-1.84183 7.21254,-0.91268 2.20605,0.59403 5.15287,0.79346 6.54847,0.44319 2.97103,-0.74568 3.11747,-0.23488 0.90201,3.14634 -0.8995,1.37282 -1.39672,2.73476 -1.10493,3.02655 0.29179,0.29179 5.19024,-0.0202 10.88546,-0.69333 5.69521,-0.67312 11.47993,-1.15577 12.85493,-1.07254 1.375,0.0832 4.75,-0.49751 7.5,-1.29052 8.56603,-2.47016 18.39331,-3.37003 19.69357,-1.80331 0.73203,0.88204 2.13177,1.13458 4.00641,0.72284 1.87362,-0.41152 3.72911,-0.0773 5.30548,0.95554 1.33329,0.87361 2.90632,1.58838 3.49561,1.58838 0.5893,0 3.9474,-2.2043 7.46246,-4.89845 3.51506,-2.69414 8.11124,-5.42425 10.21374,-6.0669 2.1025,-0.64265 5.5158,-2.07028 7.58511,-3.1725 2.0693,-1.10222 4.5443,-1.82758 5.5,-1.61191 0.95569,0.21566 3.65012,-0.69517 5.98762,-2.02408 l 4.25,-2.4162 0,2.32301 c 0,3.98246 -20.2178,21.10898 -40.5,34.30759 -3.3,2.14747 -8.475,6.21159 -11.5,9.03138 -3.025,2.81979 -7.92281,7.10955 -10.88402,9.5328 -2.96121,2.42325 -4.86548,4.57876 -4.2317,4.79002 0.63377,0.21126 4.81847,-1.45675 9.29932,-3.70669 13.37379,-6.71529 12.21383,-4.81671 -7.1836,11.75781 -7.425,6.34444 -16.44892,14.26207 -20.05315,17.59474 -29.78203,27.53803 -46.89924,42.41347 -50.94685,44.27454 -2.36314,1.08655 -2.27146,1.15318 1.67484,1.21716 2.65156,0.043 12.68559,-2.72149 27.5,-7.57652 12.82884,-4.20431 26.25016,-8.19543 29.82516,-8.86916 3.575,-0.67372 10.325,-2.22394 15,-3.44491 11.05532,-2.88734 23.37834,-5.03865 28.87197,-5.04036 4.2986,-0.001 4.34755,0.0364 2.91644,2.24863 -1.37032,2.11827 -4.71637,4.55444 -15.06578,10.96898 -2.41279,1.49544 -6.82493,3.36418 -9.80476,4.15275 -2.97983,0.78858 -6.76787,2.14976 -8.41787,3.02486 -1.65,0.8751 -3.72681,1.59386 -4.61514,1.59725 -0.88833,0.003 -2.68833,0.84886 -4,1.87883 -2.55094,2.00308 -14.63723,7.3718 -19.05779,8.46546 -1.47011,0.36371 -3.94511,1.71956 -5.5,3.01301 -1.55489,1.29345 -3.73186,2.82677 -4.83771,3.40738 -2.36705,1.24277 -8.43373,0.44317 -6.36027,-0.8383 2.61758,-1.61776 -0.20068,-2.20203 -3.37311,-0.69931 C 619.96054,390.38714 615.74644,392 613.65626,392 c -2.32011,0 -5.0799,1.33433 -23.29585,11.26327 -9.76586,5.32307 -12.90658,7.37897 -34.85096,22.81332 C 541.23403,436.11706 538.46547,439 543.09879,439 544.81298,439 551,444.17262 551,445.60576 551,445.82259 549.94215,446 548.64922,446 c -3.96354,0 -8.42188,2.02267 -8.95542,4.0629 -0.35611,1.36176 -1.37937,1.9371 -3.44519,1.9371 -1.64007,0 -3.71578,0.85874 -4.69731,1.94332 -0.96728,1.06883 -3.17452,2.24772 -4.90499,2.61977 -1.73047,0.37205 -5.28381,2.23588 -7.89631,4.14185 l -4.75,3.4654 0,7.48057 c 0,7.17647 -0.86843,10.36037 -3.55998,13.05193 -4.46881,4.46881 -6.47654,11.29262 -2.92114,9.92829 1.96889,-0.75554 6.91539,3.84785 5.92015,5.5095 -2.69471,4.4991 -6.39809,7.96669 -10.62056,9.9444 -4.04419,1.89419 -4.81847,2.69912 -4.81847,5.00918 0,1.51379 1.125,4.08933 2.5,5.72342 2.82881,3.36185 2.96589,4.25199 1.34504,8.73435 -1.82213,5.03902 2.22614,23.92091 8.67206,40.44802 5.03532,12.91042 5.29685,14.0523 5.98839,26.14633 0.70879,12.39588 0.6802,12.65996 -1.44355,13.33401 -1.57275,0.49917 -2.84147,0.0129 -4.6285,-1.77418 -1.35402,-1.35401 -3.78608,-2.72669 -5.40458,-3.05039 -1.93001,-0.386 -3.48261,-1.63255 -4.51148,-3.62216 -1.77096,-3.42465 -3.08183,-3.72741 -6.3196,-1.45959 -3.01824,2.11406 -7.17944,1.09834 -10.74433,-2.62261 C 481.89825,595.32814 479.85001,594 478.9018,594 c -1.59403,0 -2.61128,1.04143 -8.53072,8.73354 -1.51841,1.97313 -4.05307,3.31115 -8.83872,4.66587 -3.69039,1.04468 -6.91409,2.43178 -7.16377,3.08244 -0.41414,1.07924 0.32657,4.93684 2.21165,11.51815 l 0.71607,2.5 -2.52467,-2.30831 c -1.55387,-1.4207 -5.74451,-3.09487 -10.89816,-4.35384 -9.87266,-2.41175 -16.35031,-2.04951 -27.16415,1.51908 -3.96513,1.3085 -8.49197,2.68339 -10.05965,3.05531 -1.56767,0.37192 -4.19725,1.66882 -5.84351,2.88199 -2.06232,1.51978 -4.4217,2.20577 -7.58645,2.20577 -4.41368,0 -4.67387,0.16615 -6.6554,4.25 -2.52204,5.19779 -4.0284,5.49723 -3.24087,0.64423 z m 62.74229,-33.42941 C 448.24897,597.79639 448.69006,595 446.69113,595 c -2.1468,0 -5.05116,2.60844 -4.28489,3.8483 0.87292,1.41241 1.21759,1.42339 3.6595,0.11652 z M 640.28532,273.00034 c 5.41799,-2.97288 3.66608,-4.35369 -2.53453,-1.99765 -5.75402,2.18636 -9.35874,5.20462 -8.28698,6.93875 0.49925,0.80781 1.63498,0.55539 3.87136,-0.86044 1.74066,-1.10199 4.86822,-2.93829 6.95015,-4.08066 z"
       style="fill:#aeaeae" />
    <path
       inkscape:connector-curvature="0"
       id="path3020"
       d="m 385.04004,630.38486 c -0.0784,-2.18252 3.983,-6.17692 7.85619,-7.72666 2.16351,-0.86567 4.21984,-2.03699 4.56961,-2.60293 0.34978,-0.56595 3.10108,-1.74562 6.11401,-2.62151 5.73551,-1.66735 9.16072,-5.06149 8.04416,-7.97119 -0.32774,-0.85408 -2.28972,-2.21563 -4.35995,-3.02566 -2.07023,-0.81003 -5.57691,-2.41337 -7.79262,-3.56299 -3.47717,-1.80413 -4.57213,-1.93931 -8,-0.98764 -9.54996,2.6513 -18.18724,0.39211 -34.52421,-9.03022 C 350.01856,588.85995 340.79314,585.47892 313.5,576.93307 303.05401,573.66229 297.21342,570.58172 288,563.48328 273.22047,552.09646 261.64176,539.95881 260.60268,534.7634 259.93394,531.41971 254.31823,522 252.99358,522 c -0.43886,0 -1.26031,-1.32639 -1.82544,-2.94752 -1.12532,-3.22809 -5.59384,-5.88132 -19.66814,-11.67816 -4.4,-1.81225 -7.775,-3.65034 -7.5,-4.08466 0.88971,-1.40514 14.35997,-0.67845 19.28495,1.04038 11.2914,3.94073 12.98302,0.76603 2.96505,-5.56456 -5.44691,-3.44203 -6.3233,-4.32617 -4.53969,-4.57983 2.86986,-0.40815 11.28241,3.31556 11.31429,5.00812 0.0135,0.71843 1.55547,2.06718 3.42652,2.99724 2.89063,1.43686 3.57566,1.48164 4.55801,0.29798 0.63586,-0.76616 0.8742,-2.28121 0.52966,-3.36678 -0.4185,-1.31858 -0.0379,-2.30314 1.14657,-2.966 1.68233,-0.94148 1.68446,-1.09009 0.0416,-2.90537 C 260.73753,491.05249 261.34972,490 264.61788,490 c 1.2565,0 4.87604,-0.675 8.04343,-1.5 3.16739,-0.825 7.45958,-1.5 9.5382,-1.5 3.08648,0 4.76615,-0.87078 9.16232,-4.75 2.96066,-2.6125 10.72792,-8.91728 17.26059,-14.01063 6.53267,-5.09335 14.57758,-11.54675 17.87758,-14.34089 3.3,-2.79414 8.4611,-6.72686 11.46912,-8.73937 3.00801,-2.01251 8.63301,-6.02744 12.5,-8.92208 8.15404,-6.10371 46.6822,-25.58153 66.53088,-33.63454 7.425,-3.01247 16.66797,-6.79796 20.53994,-8.4122 11.13951,-4.64412 40.14271,-14.17402 49.46006,-16.25164 10.56309,-2.3554 13.42275,-2.39271 17.09571,-0.22304 3.68196,2.17498 3.75011,4.9992 0.15429,6.3939 -1.5125,0.58664 -3.875,1.69067 -5.25,2.45339 -1.375,0.76272 -4.31368,2.23974 -6.5304,3.28227 -5.82216,2.73816 -8.39762,9.05262 -4.53534,11.11965 3.17062,1.69686 6.40847,1.20678 13.67742,-2.07022 15.03143,-6.7765 29.39923,-17.31462 33.03733,-24.23138 0.82065,-1.56022 6.97285,-9.21225 13.67154,-17.0045 18.44543,-21.45661 29.46329,-37.24995 31.59709,-45.29223 0.60319,-2.27343 1.76848,-4.69103 2.58954,-5.37245 C 583.32823,306.31263 584,304.98552 584,304.04492 584,302.34642 590.98925,296 592.8598,296 c 0.5374,0 1.954,-1.58069 3.14802,-3.51265 1.19401,-1.93196 3.03504,-3.97511 4.09117,-4.54033 1.05613,-0.56522 3.78379,-4.85905 6.06146,-9.54183 3.24929,-6.68038 5.45487,-9.68605 10.24039,-13.95518 6.43673,-5.74216 9.4466,-6.74941 10.30941,-3.45001 0.62402,2.38627 1.27743,2.47655 3.84862,0.5318 2.44281,-1.84764 6.44295,-2.13362 4.64113,-0.3318 -0.66,0.66 -1.2,2.06812 -1.2,3.12917 0,1.78177 0.47752,1.87043 6.25,1.16046 3.4375,-0.42279 9.85,-0.88918 14.25,-1.03642 4.4,-0.14725 9.88384,-0.95438 12.18632,-1.79364 C 672.66678,260.47969 685,259.36111 685,260.9986 c 0,0.90082 1.10377,1.08052 3.89521,0.63415 2.58369,-0.41315 4.85643,-0.12156 6.75,0.86603 4.2219,2.20191 5.00874,1.96347 11.54581,-3.49878 4.00786,-3.34888 6.89597,-5 8.74595,-5 1.51914,0 4.73017,-1.32179 7.13562,-2.93731 3.29917,-2.21575 4.69813,-2.66794 5.6948,-1.84077 0.98634,0.81859 2.32394,0.533 5.27693,-1.12667 2.17563,-1.22277 3.95568,-1.79122 3.95568,-1.26322 0,2.8738 -23.05445,21.7884 -38,31.1764 -3.025,1.90015 -8.68799,6.38808 -12.58442,9.97319 -3.89644,3.58511 -9.5142,8.54338 -12.48393,11.01838 -4.80217,4.00217 -5.14876,4.53583 -3.13294,4.82383 1.24661,0.1781 5.19237,-1.2844 8.76835,-3.25 6.52853,-3.58853 9.07308,-4.41862 7.94383,-2.59145 -0.33393,0.54031 -6.77299,6.25108 -14.30902,12.69061 -7.53603,6.43953 -16.64877,14.43496 -20.25054,17.76763 -31.39557,29.04983 -44.95785,40.5657 -50.70133,43.051 -1.7875,0.77348 -3.25,2.14384 -3.25,3.04525 0,1.36555 0.7089,1.52826 4.25,0.97546 4.36132,-0.68085 29.92052,-8.47054 44.3367,-13.51253 4.44768,-1.55555 10.29768,-3.13543 13,-3.51084 2.70231,-0.37541 8.9633,-1.73145 13.9133,-3.01344 23.22206,-6.01419 36.2127,-6.6316 29.93646,-1.42279 -3.29845,2.73748 -11.95357,5.08859 -18.32747,4.97855 -4.0711,-0.0703 -8.60854,0.63708 -12.5,1.94868 -3.35994,1.13246 -8.13399,2.60157 -10.60899,3.2647 l -4.5,1.20568 3.81979,0.33935 c 2.10088,0.18665 4.44367,-0.17842 5.20619,-0.81125 1.83407,-1.52214 3.47402,-0.40258 3.47402,2.37164 0,2.10459 -0.41401,2.23178 -7.25,2.22729 -5.63349,-0.004 -9.36819,0.73295 -16.75,3.30382 -5.225,1.81971 -10.625,4.04214 -12,4.93873 -3.93138,2.5635 -18.91321,10.34445 -28,14.54205 -2.475,1.14332 -6.3,3.25148 -8.5,4.68482 -2.2,1.43333 -7.825,4.6797 -12.5,7.21415 -4.675,2.53445 -11.65,6.84833 -15.5,9.5864 -3.85,2.73807 -11.05,7.78439 -16,11.21406 -10.1379,7.02415 -15.5,11.72699 -15.5,13.5943 0,0.69485 1.20264,2.37851 2.67253,3.74148 l 2.67254,2.47811 -2.92254,0.61428 c -2.58798,0.54396 -6.95037,2.25265 -11.39979,4.46514 -0.81249,0.40401 -1.73145,1.81698 -2.04213,3.13993 -0.41486,1.7666 -1.41678,2.53814 -3.77292,2.90536 -1.76443,0.275 -5.65623,2.41804 -8.64845,4.76231 -4.7718,3.73851 -5.52411,4.82063 -6.12167,8.80541 -0.3747,2.49869 -0.43422,6.06549 -0.13227,7.92621 0.4313,2.65775 -0.09,4.34791 -2.43141,7.88275 -3.81625,5.76149 -4.27174,9.99337 -1.12389,10.44186 1.2375,0.17631 2.25,0.93127 2.25,1.67769 0,0.74642 0.69557,1.50262 1.54572,1.68045 1.3467,0.28169 1.31451,0.63156 -0.25,2.71738 -3.66247,4.88283 -6.19761,7.0403 -8.9596,7.62483 -1.55987,0.33013 -3.51112,0.95632 -4.33612,1.39153 -2.37985,1.25545 -2.34764,5.8394 0.0695,9.88671 1.39384,2.33391 2.36803,5.92108 2.63505,9.70287 0.23301,3.3 0.81336,7.35 1.28967,9 0.8389,2.90603 1.66605,7.61054 2.49211,14.17408 0.34378,2.73152 3.01804,9.7861 9.20968,24.29469 0.81418,1.90782 1.63167,5.50782 1.81664,8 0.18498,2.49218 0.62624,8.24373 0.98058,12.78123 0.60859,7.79332 0.53375,8.25 -1.35199,8.25 -1.09793,0 -3.06979,-1.37174 -4.3819,-3.0483 -1.45095,-1.85397 -3.48743,-3.16577 -5.19773,-3.34812 -1.54664,-0.1649 -3.22807,-1.04316 -3.73651,-1.9517 -1.1623,-2.07692 -3.72464,-2.11095 -6.61305,-0.0878 -3.82609,2.67989 -9.2901,-0.23324 -11.86931,-6.3281 l -1.38128,-3.26405 -3.38962,3.38962 c -1.86429,1.8643 -4.56126,5.24562 -5.99326,7.51405 -1.67159,2.64798 -3.33862,4.12442 -4.65683,4.12442 -1.12925,0 -2.92361,0.46583 -3.98745,1.03518 -2.52361,1.3506 -2.44098,0.80033 0.5393,-3.59135 2.43573,-3.58926 4.29521,-10.00839 3.21276,-11.09085 -0.30457,-0.30456 -2.38359,0.91673 -4.62004,2.714 -2.71041,2.17809 -4.06632,4.0651 -4.06632,5.659 0,1.3152 -1.39666,4.12924 -3.1037,6.25341 -2.91238,3.62407 -3.03004,4.08531 -1.90884,7.48261 1.91305,5.79658 1.09133,6.55239 -5.15779,4.74412 -8.28991,-2.39881 -25.20186,-2.14286 -31.39955,0.47521 -2.71157,1.14544 -7.09861,2.39295 -9.74899,2.77223 -3.27456,0.46862 -5.49553,1.46785 -6.93033,3.11802 -1.68598,1.93905 -3.07626,2.4284 -6.8992,2.4284 -4.19463,0 -4.97254,0.34066 -6.27963,2.75 -0.82054,1.5125 -1.50991,2.24819 -1.53193,1.63486 z m 61.56026,-31.15017 c 1.49372,-0.99739 3.68765,-5.28008 3.03777,-5.92995 -0.28818,-0.28818 -2.23714,0.31286 -4.33102,1.33565 -4.46013,2.17862 -5.73152,5.36803 -2.13037,5.3443 1.27782,-0.008 2.81845,-0.34592 3.42362,-0.75 z m 210.5872,-232.9178 c -0.72187,-0.28887 -1.58438,-0.25335 -1.91667,0.0789 -0.33229,0.33229 0.25834,0.56864 1.3125,0.52522 1.16495,-0.048 1.4019,-0.28494 0.60417,-0.60416 z M 646,329.5 c 0,-1.375 -0.45,-2.5 -1,-2.5 -1.11717,0 -1.3707,3.29596 -0.33333,4.33333 C 645.76901,332.43567 646,332.11806 646,329.5 z m -9.49183,-53.14786 c 7.77202,-4.8387 9.11483,-6.08482 7.89575,-7.32724 -1.57496,-1.60511 -11.05693,2.30001 -15.15392,6.2411 -1.7875,1.71948 -3.25,3.40135 -3.25,3.73748 0,1.53339 6.36686,-0.0731 10.50817,-2.65134 z M 674.2,366.8 c -0.66,-0.66 -1.2,-1.56 -1.2,-2 0,-1.19165 2.77866,-0.96715 3.55385,0.28713 1.02966,1.66603 -0.95586,3.11086 -2.35385,1.71287 z"
       style="fill:#8b8b8b" />
    <path
       inkscape:connector-curvature="0"
       id="path3018"
       d="m 402,619 c 1.95837,-1.2656 3.28218,-1.2656 2.5,0 -0.33992,0.55 -1.37898,0.99311 -2.30902,0.98469 C 400.73371,619.97149 400.70731,619.8354 402,619 z m 9.73856,-5.57795 c 1.68709,-3.53787 1.67851,-3.59952 -0.76617,-5.50298 -1.35982,-1.05876 -3.59739,-2.20649 -4.97239,-2.5505 -1.375,-0.34402 -3.98107,-1.51586 -5.79127,-2.60409 -3.02511,-1.8186 -4.01442,-1.89311 -12.2332,-0.92133 -8.71283,1.03019 -9.11878,0.98435 -15.84441,-1.78908 -3.79637,-1.5655 -9.47386,-4.49125 -12.61665,-6.50166 C 354.53449,590.36675 332.62334,581 330.15128,581 c -1.93995,0 -20.92907,-5.80812 -25.27663,-7.73125 -14.06369,-6.22104 -42.86725,-32.01996 -42.87666,-38.40398 -0.001,-0.75063 -2.06821,-4.50819 -4.59356,-8.35014 -3.69204,-5.6169 -4.38117,-7.32223 -3.51769,-8.70488 0.86962,-1.39248 0.6131,-1.96582 -1.34879,-3.01463 -6.35318,-3.39636 -13.43701,-7.82278 -14.01445,-8.7571 -0.77896,-1.26037 1.96564,-1.36907 4.29224,-0.16999 0.92634,0.47742 3.87672,1.10333 6.5564,1.39093 4.18664,0.44933 4.94172,0.25685 5.36663,-1.36803 0.61691,-2.35905 0.85908,-2.35242 3.98836,0.10907 1.39842,1.1 3.1569,2 3.90773,2 1.56513,0 1.85198,-2.58108 0.38744,-3.48622 -0.58509,-0.3616 -0.18353,-2.08599 1,-4.2942 2.40648,-4.48997 2.4547,-5.57882 0.32532,-7.34604 -1.84889,-1.53444 -1.61856,-1.60787 12.15238,-3.87387 3.85,-0.63352 8.575,-1.63975 10.5,-2.23608 1.925,-0.59632 4.49759,-1.19582 5.71686,-1.33221 1.21927,-0.1364 3.6042,-1.23587 5.29985,-2.44328 1.69596,-1.20763 3.93481,-1.97253 4.97633,-1.70017 1.09899,0.28739 2.61151,-0.29846 3.60513,-1.39641 C 307.53966,478.85119 308.91523,478 309.65499,478 310.39474,478 311,477.40919 311,476.68709 c 0,-0.7221 1.33988,-2.59659 2.9775,-4.16554 2.17629,-2.08501 2.8254,-3.4587 2.41222,-5.10492 -0.42243,-1.68311 0.0255,-2.55566 1.77249,-3.4527 1.28579,-0.66022 3.91279,-2.65931 5.83779,-4.44243 6.66503,-6.17378 23.3216,-16.53324 24.57226,-15.28258 0.30816,0.30817 -1.26953,2.03079 -3.50598,3.82806 -2.23645,1.79726 -4.06628,3.64244 -4.06628,4.10038 0,1.53759 2.67306,0.85139 4.48566,-1.15152 C 347.29702,449.01432 361.1855,440 362.45793,440 c 0.37723,0 7.29102,-3.21374 15.36397,-7.14164 17.77907,-8.65041 26.15281,-12.19908 36.6781,-15.54365 9.3428,-2.96882 13.76732,-5.07316 13.06296,-6.21284 -0.27634,-0.44713 0.60895,-0.6005 1.9673,-0.34084 1.47867,0.28267 2.46974,0.006 2.46974,-0.68829 0,-0.63823 0.7774,-1.02819 1.72756,-0.86658 0.97251,0.16542 1.73736,-0.34158 1.75,-1.16001 0.0134,-0.86977 2.80104,-2.51024 6.93871,-4.08333 4.74112,-1.80251 7.16834,-3.31089 7.71778,-4.79615 C 450.60822,397.88486 450.54032,397 449.96778,397 449.4355,397 449,396.1 449,395 c 0,-1.17905 0.66667,-2 1.62414,-2 0.89328,0 5.11241,-1.575 9.37586,-3.5 4.26345,-1.925 8.50493,-3.5 9.42552,-3.5 0.92059,0 3.11395,-0.74692 4.87414,-1.65983 3.53063,-1.83113 15.35289,-4.33715 20.46939,-4.33899 3.0591,-10e-4 3.22684,0.17544 2.61174,2.74882 -0.95662,4.00222 -1.17672,4.2336 -5.98999,6.29681 -5.59183,2.39694 -8.49374,7.5238 -6.43549,11.36969 0.72074,1.34672 1.03977,3.15394 0.70895,4.01604 -0.81566,2.12558 -0.62884,2.0923 12.42123,-2.21268 10.43563,-3.44253 23.17016,-10.16034 32.91451,-17.3633 1.375,-1.0164 4.3,-2.80437 6.5,-3.97329 5.27223,-2.80127 6.59448,-3.92138 5.91909,-5.01418 -0.30738,-0.49736 -1.71311,0.004 -3.12384,1.11331 -1.41073,1.10968 -3.23104,2.0176 -4.04512,2.0176 -1.27039,0 -1.25128,-0.3493 0.13486,-2.46482 0.88826,-1.35565 1.61501,-3.0772 1.61501,-3.82568 0,-0.74848 1.15824,-2.44898 2.57386,-3.77889 2.37335,-2.22965 2.64989,-2.28218 3.54969,-0.67432 1.34899,2.41052 2.67981,2.19825 7.87645,-1.25629 2.475,-1.64529 4.8375,-2.99336 5.25,-2.99572 1.53951,-0.009 0.67483,3.44684 -1.42061,5.67733 -1.19384,1.27078 -1.90416,2.57695 -1.57851,2.90261 1.20082,1.20082 10.05455,-5.02969 12.77923,-8.99295 3.61452,-5.25759 12.87085,-16.12483 20.27279,-23.80095 3.1916,-3.30981 5.58098,-6.23977 5.30974,-6.51102 -0.57402,-0.57401 -10.61142,7.87399 -10.61215,8.93174 -9.3e-4,1.35038 -4.51177,5.02891 -8.00049,6.5243 -1.925,0.82512 -6.08517,3.73973 -9.24483,6.4769 -4.16918,3.61173 -6.83419,5.1228 -9.71667,5.50942 l -3.97185,0.53274 0.88236,-3.07662 c 0.51714,-1.80314 4.38064,-6.55916 9.33393,-11.4902 4.64836,-4.62748 10.39379,-11.06275 12.76762,-14.30059 2.37383,-3.23784 7.38356,-9.30348 11.13274,-13.47919 7.16441,-7.97947 8.45579,-10.21179 4.35188,-7.52281 -5.70376,3.73725 -5.91903,1.46872 -0.45019,-4.7442 4.38063,-4.97666 6.91501,-5.91398 6.91501,-2.55746 0,3.06246 2.15282,1.86127 4.76925,-2.66107 1.63033,-2.81794 2.10942,-4.84195 1.70159,-7.18876 -0.41002,-2.35939 0.12447,-4.581 1.9247,-8 1.3708,-2.60343 2.74637,-5.56769 3.05684,-6.58725 0.3608,-1.18488 1.13127,-1.63626 2.13529,-1.25098 1.27054,0.48755 1.45512,0.076 0.96557,-2.15288 -0.47029,-2.1412 0.0604,-3.53458 2.38012,-6.24902 2.80836,-3.28625 2.98777,-3.35503 3.026,-1.16004 0.0482,2.76861 2.064,2.45572 3.57968,-0.55565 1.93958,-3.85356 3.70357,-5.43507 4.81858,-4.32006 1.53128,1.53128 4.73302,1.27032 6.74409,-0.54967 1.63811,-1.48247 1.71789,-1.43085 1.15911,0.75 -0.33004,1.28813 -1.42374,2.93007 -2.43045,3.64875 -2.01222,1.43653 -2.48162,4.1933 -0.71401,4.1933 0.614,0 -0.511,1.8013 -2.5,4.00288 -5.40566,5.98342 -4.69408,7.82355 2.11782,5.47666 C 633.44664,279.85596 647,271.34419 647,270.00826 c 0,-0.49217 -0.93756,-1.55154 -2.08346,-2.35417 -1.94478,-1.36217 -1.70374,-1.48244 3.6209,-1.8067 5.24968,-0.3197 5.77688,-0.15644 6.61406,2.04818 l 0.90969,2.39557 2.21941,-2.02061 c 1.22067,-1.11133 3.14586,-2.49662 4.27819,-3.07842 2.31767,-1.19082 19.5827,-4.38395 20.22592,-3.74073 1.20396,1.20396 -1.30281,2.59374 -3.72057,2.06271 -2.92338,-0.64208 -5.78804,1.5056 -4.59121,3.44211 1.08895,1.76196 5.76011,1.14853 11.46077,-1.50508 3.72306,-1.73304 6.31673,-2.33539 8.23854,-1.91329 4.05053,0.88965 4.38054,2.21774 1.35593,5.45673 -6.57331,7.03921 -7.52817,8.12262 -7.52817,8.54165 0,0.55021 7.83505,-4.14775 18.75,-11.24266 4.5375,-2.94945 8.25,-5.74303 8.25,-6.20795 0,-1.09331 11.00272,-9.41622 11.62518,-8.79376 0.25968,0.25969 0.17577,1.65305 -0.18648,3.09636 -0.89996,3.58575 -8.17314,9.89754 -22.17231,19.24153 -6.47151,4.31952 -15.1574,11.00741 -19.30196,14.86197 -4.14456,3.85457 -9.46223,8.68996 -11.81704,10.74531 -7.07482,6.17514 -3.24991,7.81421 6.39528,2.74054 3.16017,-1.66234 5.92478,-2.84343 6.14358,-2.62464 0.34516,0.34517 -9.3547,8.99445 -23.16423,20.65534 -2.28508,1.92954 -10.87484,9.58415 -19.08835,17.01026 -25.27899,22.85553 -35.88583,31.65751 -40.63557,33.72097 -2.90923,1.26388 -6.7642,7.26052 -4.66747,7.26052 1.94545,0 27.20127,-7.52587 45.15599,-13.45583 C 652.51925,361.49488 661.78523,359 663.87768,359 c 2.09245,0 6.01348,-0.67013 8.71339,-1.48918 5.88138,-1.78417 6.10371,-1.8056 4.75643,-0.45832 -0.57888,0.57888 -5.95638,2.55858 -11.95,4.39933 -15.24388,4.68168 -34.12298,13.61426 -37.8975,17.93107 -1.88172,2.15207 -7.22638,5.52194 -14.33807,9.04034 -6.23594,3.08513 -12.76094,6.66368 -14.5,7.95232 -1.73906,1.28865 -7.66193,4.87856 -13.16193,7.97759 -11.70962,6.5979 -17.70407,10.50695 -31.32651,20.4284 C 542.50433,433.28041 537,438.96032 537,442.50288 537,444.49981 536.49923,445 534.5,445 c -3.22131,0 -6.5,3.29452 -6.5,6.53138 0,2.55171 -0.3818,2.84177 -5.08406,3.8625 -2.44422,0.53057 -6.36968,3.15094 -13.60265,9.08021 -1.75269,1.43678 -3.72383,4.28038 -4.38032,6.31911 -0.65649,2.03874 -1.63531,4.26357 -2.17517,4.94407 -0.53985,0.68049 -0.7252,1.90531 -0.41187,2.72182 0.97765,2.54772 -1.43572,7.62455 -4.10734,8.6403 -2.98476,1.1348 -2.23799,2.29082 1.52121,2.35487 2.42268,0.0413 2.76459,0.52007 3.50429,4.90735 0.64351,3.81674 0.47229,5.39177 -0.79665,7.32842 -0.93882,1.43282 -2.21302,2.23784 -3.03989,1.92054 -0.8519,-0.3269 -2.09988,0.54515 -3.1077,2.17158 -0.92628,1.49482 -2.78904,3.93205 -4.13947,5.41606 l -2.45533,2.69822 3.13747,4.88933 c 1.72562,2.68913 3.13748,6.06088 3.13748,7.49277 0,1.43189 0.41972,2.86284 0.93272,3.17989 1.40425,0.86787 3.49175,11.05505 4.57791,22.34053 0.29561,3.07139 1.81751,7.88912 3.62033,11.46049 5.40725,10.7117 7.15864,16.71664 7.59878,26.05378 l 0.41545,8.81322 -2.82259,-1.40435 c -1.69877,-0.8452 -3.81798,-1.12498 -5.3226,-0.70269 -1.375,0.38591 -3.69854,0.49096 -5.16342,0.23345 -1.49519,-0.26285 -3.90865,0.26737 -5.50244,1.20884 -4.25177,2.51158 -7.77982,0.77938 -10.56538,-5.18739 -1.22588,-2.62587 -2.3773,-4.98876 -2.55872,-5.25087 -0.50017,-0.72265 -6.89873,6.91924 -9.81867,11.72657 -4.22168,6.95051 -6.10464,5.40862 -3.87037,-3.16932 1.99416,-7.65609 2.01865,-7.58068 -2.46198,-7.58068 -2.16754,0 -4.20695,-0.43035 -4.53203,-0.95633 -0.69636,-1.12674 -3.52699,-0.2475 -3.52699,1.09554 0,0.50888 0.86625,1.24824 1.92501,1.64301 1.81823,0.67797 1.7489,1.00659 -1.25,5.92489 -2.33871,3.83555 -3.63383,5.06963 -4.91692,4.68518 -1.18967,-0.35646 -2.11238,0.29119 -2.91051,2.04289 -0.64274,1.41065 -1.49579,2.56482 -1.89568,2.56482 -0.3999,0 -0.66516,2.3625 -0.58949,5.25 0.12386,4.72602 -0.062,5.21816 -1.86241,4.93102 -1.1,-0.17544 -6.0452,-0.57314 -10.98933,-0.88376 -4.94413,-0.31063 -9.89413,-1.12217 -11,-1.80342 -2.72799,-1.68054 -8.10581,-0.15005 -8.79996,2.50441 C 414.399,616.19022 413.34684,617 412.1098,617 c -2.03409,0 -2.04183,-0.0747 -0.37124,-3.57795 z m 24.25136,-4.31444 c 1.78968,-0.49812 2.12297,-0.91981 1.18511,-1.49943 -1.56179,-0.96525 -7.85823,0.0702 -8.69897,1.43055 -0.66982,1.0838 3.72276,1.12407 7.51386,0.0689 z m 10.35276,-9.21788 c 1.34022,-0.61065 2.93251,-2.19828 3.5384,-3.52807 0.60589,-1.32978 1.78051,-2.67831 2.61027,-2.99671 1.88124,-0.7219 2.00102,-4.36495 0.14351,-4.36495 -0.75083,0 -2.49787,0.891 -3.88231,1.98001 -1.38444,1.089 -3.70666,2.43224 -5.16049,2.98499 -2.89595,1.10104 -4.12429,3.20565 -3.23043,5.535 0.68378,1.78191 2.64505,1.90971 5.98105,0.38973 z M 310.5,539 c -0.33992,-0.55 -1.96803,-1 -3.61803,-1 -1.74536,0 -2.74153,0.41821 -2.38197,1 0.33992,0.55 1.96803,1 3.61803,1 1.74536,0 2.74153,-0.41821 2.38197,-1 z m 100.30687,-15.52646 c -0.30789,-0.30789 -0.86705,0.24711 -1.24258,1.23333 -0.54268,1.4252 -0.42782,1.54006 0.5598,0.5598 0.68342,-0.67834 0.99067,-1.48524 0.68278,-1.79313 z M 320,522.08179 C 320,519.82592 318.63654,518 316.95203,518 c -2.20467,0 -3.3351,1.55934 -2.57203,3.54789 0.60239,1.5698 5.62,2.04648 5.62,0.5339 z m 100.5562,-3.85892 c -0.83458,-0.83458 -2.55557,0.92852 -2.5244,2.58615 0.0279,1.48465 0.2097,1.45585 1.48967,-0.23602 0.80183,-1.05985 1.26745,-2.11741 1.03473,-2.35013 z m -94.53618,-39.73322 c 3.05035,-1.5774 4.97998,-4.26026 4.97998,-6.92391 0,-4.08002 -7.43533,0.8512 -8.57076,5.68426 -0.74553,3.17343 -0.38766,3.29698 3.59078,1.23965 z m 21.05969,-12.08569 c 1.15647,-1.39347 1.0233,-1.55212 -1.04923,-1.25 -1.3056,0.19032 -2.55907,0.90854 -2.78549,1.59604 -0.59252,1.79918 2.26862,1.54099 3.83472,-0.34604 z M 334.63837,459.5 c 0.31659,-0.825 1.15432,-1.5 1.86163,-1.5 1.27537,0 2.93566,-2.89767 2.12486,-3.70847 C 338.16868,453.83534 332,459.58492 332,460.4663 c 0,1.19732 2.10379,0.42681 2.63837,-0.9663 z M 351,458.62244 c 0,-0.20765 -0.675,-0.93775 -1.5,-1.62244 -1.22851,-1.01957 -1.5,-0.95124 -1.5,0.37756 0,0.89234 0.675,1.62244 1.5,1.62244 0.825,0 1.5,-0.1699 1.5,-0.37756 z m 5,-2.20577 c 0,-1.76593 -2.15276,-1.45839 -2.77083,0.39583 -0.21771,0.65312 0.31666,1.1875 1.1875,1.1875 C 355.2875,458 356,457.2875 356,456.41667 z m 21.28873,-10.78859 c 3.45334,-2.59666 6.92204,-3.30652 21.71127,-4.44317 5.225,-0.40158 10.03133,-1.06476 10.68074,-1.47374 0.64941,-0.40898 4.00147,-0.96292 7.44904,-1.23098 5.04076,-0.39194 6.81456,-1.01074 9.05775,-3.15986 1.5342,-1.46985 3.01851,-3.39415 3.29847,-4.27622 0.71518,-2.25333 6.47385,-4.32232 8.1526,-2.92908 1.33644,1.10915 9.30059,-2.29765 14.44809,-6.18042 3.19273,-2.40828 2.14348,-3.12724 -4.77814,-3.27407 -10.62988,-0.22549 -30.9486,4.77405 -47.30384,11.63938 -4.34661,1.82455 -9.28639,3.15756 -11.75892,3.17316 -3.72512,0.0235 -4.51324,0.4374 -6.24001,3.27692 -1.08701,1.7875 -2.69037,3.25 -3.56301,3.25 -0.87265,0 -3.46676,1.07106 -5.7647,2.38014 -2.29794,1.30907 -6.42807,3.18533 -9.17807,4.16946 -7.63026,2.73062 -11.14386,6.73011 -6.75,7.68345 2.22049,0.48178 16.29773,-5.41607 20.53873,-8.60497 z M 545,400.1495 c 9.58217,-3.6326 17,-7.30493 17,-8.41615 0,-1.35727 -3.62233,0.002 -15.5,5.8175 -12.25706,6.00097 -12.75632,6.86592 -1.5,2.59865 z m 62.15161,-10.3448 c 4.76942,-2.01614 9.6911,-6.29533 8.55137,-7.43505 -0.61048,-0.61048 -12.18512,5.92435 -16.25594,9.17781 -1.87381,1.49757 -1.85301,1.53104 0.55296,0.88984 1.375,-0.36644 4.59322,-1.55111 7.15161,-2.6326 z M 480.5,391 c 0.33992,-0.55 0.16803,-1 -0.38197,-1 -0.55,0 -1.27811,0.45 -1.61803,1 -0.33992,0.55 -0.16803,1 0.38197,1 0.55,0 1.27811,-0.45 1.61803,-1 z M 577,374.44098 C 577,374.19844 576.55,374 576,374 c -0.55,0 -1,0.47656 -1,1.05902 0,0.58246 0.45,0.7809 1,0.44098 0.55,-0.33992 1,-0.81648 1,-1.05902 z m 17.88739,-0.23056 c 0.52676,-0.98427 2.0829,-2.39175 3.45809,-3.12772 C 601.0085,369.65749 611,357.7777 611,356.0366 c 0,-1.47119 -1.60947,-1.28773 -5.29966,0.60409 -3.50779,1.79832 -6.21534,3.94719 -15.09658,11.98156 -5.77342,5.22289 -5.84633,5.35397 -3.5,6.29249 3.77353,1.5094 6.74267,1.24073 7.78363,-0.70432 z M 591.5,358.36477 c 1.94282,-1.5267 1.92853,-1.55116 -0.5,-0.8558 -3.0516,0.87376 -5.0076,2.50436 -2.95,2.45923 0.7975,-0.0175 2.35,-0.73904 3.45,-1.60343 z M 574.81731,342.56166 C 576.01779,340.80968 577,338.98815 577,338.51381 c 0,-1.41302 -5.0734,3.762 -6.63942,6.77239 -1.37078,2.6351 -1.34842,2.72315 0.41233,1.62355 1.02395,-0.63947 2.84393,-2.5961 4.0444,-4.34809 z m 41.72381,3.37181 c 0.36253,-0.58659 0.4535,-1.27219 0.20214,-1.52354 C 616.04579,343.71245 613,345.0933 613,346.10699 c 0,1.25179 2.74331,1.11736 3.54112,-0.17352 z m 30.29354,-15.87713 c 0.42504,-2.9046 -1.36917,-4.92183 -2.96144,-3.32956 -1.43266,1.43266 -0.2286,6.55658 1.41366,6.01593 0.66722,-0.21965 1.36372,-1.42852 1.54778,-2.68637 z M 502,506 c 0,-0.55 0.45,-1 1,-1 0.55,0 1,0.45 1,1 0,0.55 -0.45,1 -1,1 -0.55,0 -1,-0.45 -1,-1 z m -84.5,-99.11833 c 2.94961,-1.87203 23.63362,-11.01872 26.25,-11.60803 4.0809,-0.91919 2.6649,2.53728 -1.5,3.6615 -2.0625,0.55673 -6.675,2.19223 -10.25,3.63444 -3.575,1.44222 -7.85,2.9772 -9.5,3.41106 -1.65,0.43387 -3.9,1.0997 -5,1.47961 -2,0.69076 -2,0.69076 0,-0.57858 z M 683,355 c 0.825,-0.53316 2.625,-0.96937 4,-0.96937 1.97894,0 2.18736,0.20204 1,0.96937 -0.825,0.53316 -2.625,0.96937 -4,0.96937 -1.97894,0 -2.18736,-0.20204 -1,-0.96937 z"
       style="fill:#6e6e6e" />
    <path
       inkscape:connector-curvature="0"
       id="path3016"
       d="m 439.5,613.29691 c -6.02868,-0.55297 -7.58891,-1.54171 -3.5,-2.21801 2.57448,-0.42582 3.58009,-1.14022 3.80287,-2.70162 0.16658,-1.1675 -0.3282,-2.36489 -1.09951,-2.66087 -2.05391,-0.78816 -11.03079,1.2532 -12.24607,2.78478 -0.57349,0.72275 -3.1301,1.62712 -5.68135,2.0097 -3.98591,0.59772 -5.10564,0.35152 -7.95729,-1.74961 -1.82526,-1.34487 -6.41029,-3.90612 -10.18897,-5.69167 -6.31765,-2.98529 -7.21804,-3.15889 -11.19282,-2.15803 -2.37737,0.59863 -6.31134,1.08842 -8.74214,1.08842 -5.16403,0 -16.51407,-4.40359 -23.19168,-8.99791 -3.97938,-2.73789 -11.06326,-6.24832 -16.79616,-8.32338 -1.49907,-0.5426 -1.60377,-1.00285 -0.63849,-2.80649 1.12458,-2.10131 1.0281,-2.14295 -3.70688,-1.5998 -4.42712,0.50783 -9.78265,-0.44088 -23.86151,-4.22698 -9.74301,-2.6201 -23.09911,-10.9104 -31.37206,-19.47303 -2.95463,-3.05809 -6.87993,-6.49208 -8.72289,-7.63109 -1.84295,-1.13901 -4.65443,-4.0025 -6.24772,-6.36331 C 265.15754,538.13317 256,521.70261 256,520.7652 c 0,-0.29257 0.9,-0.76729 2,-1.05495 1.20988,-0.31639 2,-1.36401 2,-2.65181 0,-1.82619 0.28725,-1.97508 2.02067,-1.04738 2.59985,1.3914 4.51351,0.33751 2.90544,-1.60009 C 264.28206,513.63494 263.13521,513 262.37756,513 261.6199,513 261,512.29468 261,511.43261 c 0,-1.07593 0.58628,-1.38131 1.86979,-0.97394 1.49153,0.4734 1.99965,-0.0559 2.51174,-2.61633 0.40947,-2.04735 0.2083,-3.47781 -0.55548,-3.94985 -0.91041,-0.56266 -0.86381,-1.14207 0.19442,-2.41716 0.76553,-0.9224 1.49679,-2.4192 1.62503,-3.32621 0.29343,-2.07541 6.10653,-7.03788 9.14479,-7.80665 1.3997,-0.35417 2.97747,0.0424 4.05745,1.01973 1.30524,1.18123 3.51648,1.54741 8.4597,1.40092 6.24398,-0.18504 6.69256,-0.35132 6.69256,-2.48073 0,-2.53239 2.12783,-3.03821 3.88322,-0.9231 1.29281,1.55774 7.84567,1.39136 10.96569,-0.27843 1.11078,-0.59447 2.91616,-1.08086 4.01194,-1.08086 2.04598,0 17.06164,-8.73402 20.63915,-12.00498 1.1,-1.00575 5.05681,-3.28213 8.7929,-5.05864 3.7361,-1.7765 7.64311,-4.31086 8.68224,-5.63191 1.03914,-1.32105 3.60733,-3.58171 5.7071,-5.0237 4.86573,-3.34148 20.83003,-8.44129 23.96294,-7.65498 2.98761,0.74985 7.62864,-0.37372 6.8367,-1.65511 C 388.15193,450.43681 386.78352,450 385.44098,450 c -3.2318,0 -3.08587,-1.40461 0.40413,-3.88971 1.87663,-1.33628 4.51475,-2.04929 7.75,-2.09461 6.63945,-0.093 15.66774,0.99711 16.96002,2.04784 1.34117,1.09049 11.46119,-4.92548 17.26975,-10.26621 3.32662,-3.05868 4.86698,-3.84048 6.67349,-3.38707 2.51586,0.63143 14.89684,-5.37985 21.50163,-10.4396 4.69722,-3.5984 8,-5.27633 8,-4.06427 0,0.5372 -2.67466,3.03484 -5.94369,5.5503 -6.98175,5.37234 -9.05631,7.34575 -9.05631,8.61476 0,1.88276 3.00422,0.85177 4.59572,-1.57718 1.49837,-2.2868 10.17005,-7.06182 11.1127,-6.11916 1.09898,1.09898 -4.16735,7.33709 -7.92766,9.39054 -2.71161,1.48077 -3.36437,2.12606 -1.78076,1.7604 1.375,-0.31749 4.75,-0.84966 7.5,-1.18261 2.75,-0.33295 5.9,-1.40292 7,-2.37773 2.99836,-2.65709 14.54831,-8.61932 18.25,-9.42086 2.61534,-0.56632 3.25,-0.38844 3.25,0.9109 0,1.31694 0.37729,1.41272 2.0463,0.51949 1.12546,-0.60233 4.54915,-1.50249 7.60819,-2.00036 3.14705,-0.5122 7.57727,-2.1866 10.20371,-3.8565 2.55299,-1.6232 8.0168,-3.93796 12.1418,-5.14392 6.87103,-2.00877 39.81171,-17.33992 41.01828,-19.0906 0.28505,-0.4136 4.97377,-2.36482 10.41938,-4.33605 5.44561,-1.97123 10.38739,-3.94228 10.98173,-4.38011 3.53244,-2.60223 36.08974,-13.65116 48.87314,-16.58601 2.78547,-0.6395 2.78834,-0.63472 1.13499,1.8886 -0.91165,1.39135 -2.45069,2.52973 -3.42009,2.52973 -0.9694,0 -2.35004,0.70789 -3.06809,1.57309 -0.71805,0.8652 -3.01845,2.44694 -5.112,3.51499 -3.14861,1.6063 -4.14859,1.72825 -5.78611,0.70559 -1.72541,-1.07753 -2.38416,-0.82259 -5.12911,1.98501 -3.39437,3.47184 -4.83096,3.90248 -6.71926,2.01418 -1.45835,-1.45835 -4.1639,0.78252 -4.59972,3.8097 -0.15025,1.04359 -1.58267,2.53263 -3.18316,3.30897 -4.58164,2.2224 -5.48397,2.72766 -12.90998,7.22895 -8.45454,5.12474 -7.94147,4.75138 -7.34672,5.34613 0.39911,0.39911 5.61357,-1.61014 18.59672,-7.1657 5.62401,-2.40656 -8.28127,6.62394 -16.25,10.55322 -1.65,0.81359 -7.275,4.26467 -12.5,7.66907 -5.225,3.4044 -13.1,8.33028 -17.5,10.9464 -13.93062,8.28278 -13.2203,7.7297 -10.96258,8.53586 1.71583,0.61267 1.03601,1.61367 -5.40705,7.9616 -4.0533,3.99346 -7.67563,8.405 -8.04963,9.80344 -0.48004,1.79493 -1.82857,2.94025 -4.58596,3.89488 -2.14828,0.74375 -4.92299,2.30772 -6.16601,3.47548 -1.24303,1.16777 -4.63801,2.91828 -7.54441,3.89004 -2.9431,0.98402 -5.74471,2.64606 -6.3234,3.75131 -1.99385,3.80809 -3.72541,5.19779 -6.47642,5.19779 -1.61011,0 -3.02616,0.66607 -3.3808,1.59024 -0.81912,2.13459 0.0991,3.40976 2.45528,3.40976 2.29727,0 2.4434,0.93065 0.55222,3.51698 -0.76381,1.04458 -1.18395,2.43294 -0.93364,3.08524 0.30304,0.78971 -1.51016,1.4141 -5.42638,1.86862 -9.44043,1.09568 -10.76222,3.22182 -3.48729,5.60941 2.05484,0.67439 4.32409,2.05722 5.04277,3.07295 0.71869,1.01574 2.51869,1.86111 4,1.8786 3.0314,0.0358 6.1933,2.0499 6.1933,3.94507 0,0.76493 -0.78397,1.05138 -2.00417,0.73229 -1.50751,-0.39422 -2.1549,0.0764 -2.61238,1.89918 -0.75036,2.98969 -4.91167,6.39166 -7.81831,6.39166 -2.6756,0 -4.58565,1.78297 -3.88001,3.62186 0.36226,0.94403 -0.25745,1.37814 -1.96736,1.37814 -1.37291,0 -3.52343,0.8318 -4.77893,1.84844 l -2.28272,1.84844 2.73182,0.68564 c 1.5025,0.3771 4.2248,0.40555 6.04956,0.0632 2.78799,-0.52303 3.73647,-0.17084 5.94012,2.2057 1.44231,1.55546 2.62238,3.75779 2.62238,4.89405 0,1.13627 1.125,3.59079 2.5,5.4545 2.82455,3.82846 3.36543,7.26933 1,6.36163 -1.98228,-0.76068 -1.92908,1.50677 0.0876,3.73522 0.8732,0.96488 2.70102,6.13895 4.06181,11.49793 1.36079,5.35898 3.16773,11.08481 4.01542,12.72405 2.67145,5.16603 7.32812,17.11244 7.33169,18.80905 0.006,2.73308 -2.82901,8.59384 -4.45931,9.21945 -0.84549,0.32445 -2.14016,0.35854 -2.87705,0.0758 -0.73688,-0.28277 -1.91698,0.18135 -2.62244,1.03138 -0.70546,0.85003 -2.02743,1.54551 -2.93771,1.54551 -0.91028,0 -2.68126,0.71879 -3.93552,1.59731 -3.61983,2.53542 -7.34028,0.41413 -9.90007,-5.64472 C 483.07799,588.14428 481.52207,586 480.67079,586 c -1.26314,0 -6.00976,5.64059 -11.4579,13.61586 -1.10226,1.61356 -1.18776,1.2379 -0.59536,-2.61586 0.38046,-2.475 0.73466,-5.85 0.78711,-7.5 0.0893,-2.80961 -0.11475,-2.97956 -3.21531,-2.67791 -1.82087,0.17716 -3.95481,-0.21249 -4.74209,-0.86588 -1.13146,-0.93902 -2.84757,-0.60136 -8.18933,1.61136 -3.71685,1.53963 -7.52542,3.44343 -8.46348,4.23066 -0.93807,0.78724 -3.18807,1.55535 -5,1.70693 -4.47607,0.37443 -4.53885,0.41329 -2.54443,1.57494 0.9625,0.5606 1.75,1.84182 1.75,2.84715 0,3.13138 2.51723,4.4367 6.12833,3.17786 3.99358,-1.39217 3.87167,-1.40755 3.87167,0.48851 0,0.87649 -0.93628,1.83846 -2.08062,2.13771 -1.59063,0.41596 -1.92186,1.04155 -1.40651,2.65638 1.80197,5.64639 1.76244,7.61665 -0.14937,7.44419 -1.02493,-0.0925 -3.6635,-0.33321 -5.8635,-0.53499 z M 430.5,548 c -0.33992,-0.55 -1.04148,-1 -1.55902,-1 -0.51754,0 -0.94098,0.45 -0.94098,1 0,0.55 0.70156,1 1.55902,1 0.85746,0 1.2809,-0.45 0.94098,-1 z m 59.52981,-1.94431 c -0.57231,-1.06937 -1.55767,-2.26389 -2.1897,-2.6545 -0.77001,-0.4759 -0.88183,-0.24684 -0.33892,0.6943 2.14477,3.718 4.40855,5.47289 2.52862,1.9602 z M 314.46306,540.8772 C 317.37799,539.82314 320,536.23528 320,533.30064 c 0,-2.1077 -2.13869,-1.48629 -2.73519,0.79472 -0.51158,1.95629 -1.11367,2.07244 -9.07168,1.75 -5.64438,-0.2287 -8.64927,0.0299 -8.89536,0.76543 -0.49251,1.4721 3.64764,4.11644 7.29209,4.6575 1.60058,0.23763 3.32819,0.49947 3.83914,0.58188 0.51095,0.0824 2.32628,-0.35543 4.03406,-0.97297 z m 83.95349,-3.52033 c 0.34679,-0.90372 0.42487,-1.84878 0.17352,-2.10013 C 397.79534,534.462 396,536.05785 396,537.55902 c 0,1.96152 1.63888,1.82443 2.41655,-0.20215 z m 13.46752,-10.43396 c 1.81333,-2.60349 2.25475,-2.88451 1.84388,-1.17391 -1.35399,5.63718 4.73971,2.11767 8.27874,-4.78152 0.99663,-1.94288 2.97716,-4.15606 4.40118,-4.91817 1.42401,-0.76211 2.47669,-1.49808 2.33928,-1.6355 -0.45267,-0.45266 -10.95357,2.51376 -12.11268,3.42174 -0.62396,0.48877 -2.35898,1.18104 -3.85561,1.53837 -3.10513,0.74138 -4.29604,2.53551 -5.32549,8.02295 -0.90169,4.80644 0.88608,4.61519 4.4307,-0.47396 z m 19.20562,1.46903 C 431.99166,527.30513 431.90716,527 430.70423,527 428.13322,527 426,528.13973 426,529.51337 c 0,1.60529 3.45927,0.8431 5.08969,-1.12143 z m -110.10334,-5.70096 c -0.041,-6.57409 -2.66966,-8.38751 -7.03468,-4.85293 -2.62319,2.12413 -2.10847,3.48786 2.33679,6.19118 3.50808,2.13339 4.71737,1.78891 4.69789,-1.33825 z M 444.5,504.45802 c 2.2,-1.88554 3.51465,-3.43496 2.92144,-3.44314 -1.42075,-0.0196 -9.0142,5.07069 -13.42144,8.99709 l -3.5,3.11815 5,-2.62191 c 2.75,-1.44205 6.8,-4.16464 9,-6.05019 z m 8,1.54198 c 0.33992,-0.55 -0.057,-1 -0.88197,-1 -0.825,0 -1.77811,0.45 -2.11803,1 -0.33992,0.55 0.057,1 0.88197,1 0.825,0 1.77811,-0.45 2.11803,-1 z m -133.54584,-2.08565 c -1.62789,-3.04174 -0.73813,-3.28417 5.45042,-1.48511 4.54744,1.32197 5.91888,1.3857 7.57416,0.35197 C 334.07841,501.46994 334.74551,499 333,499 c -1.91173,0 -0.98381,-3.40746 1.68709,-6.19528 L 337.37418,490 l -6.12807,0 c -6.19066,0 -8.96962,1.3182 -5.26063,2.49539 1.10799,0.35166 2.01452,0.99746 2.01452,1.43511 0,1.31212 -10.32511,4.10246 -12.75,3.44567 -2.71542,-0.73549 -2.86818,0.51885 -0.63606,5.2227 1.00978,2.12796 2.33314,3.40113 3.53519,3.40113 1.63766,0 1.75648,-0.30785 0.80503,-2.08565 z m 101.16051,-11.57328 c 4.75442,-2.58768 5.84439,-3.8259 3.96802,-4.50774 -0.50452,-0.18333 2.53298,-2.90793 6.75,-6.05466 C 440.54846,474.52877 444,471.29957 444,469.45953 c 0,-1.92752 -4.62852,-1.90171 -8.36431,0.0466 -1.57537,0.82161 -3.30623,1.49384 -3.84637,1.49384 -2.27519,0 -12.7103,7.63154 -12.98997,9.5 -0.19769,1.32082 -1.19891,2.10414 -2.9483,2.30667 -3.36436,0.3895 -10.46017,6.39874 -9.46228,8.01336 0.48365,0.78256 2.10694,0.96443 4.78531,0.53614 3.81068,-0.60935 4.01259,-0.51967 3.37226,1.49784 -0.87344,2.75195 -0.34007,2.70282 5.56833,-0.51294 z M 417,490.11658 c 0,-0.48589 1.22894,-1.11835 2.73098,-1.40549 2.55447,-0.48831 2.60675,-0.43121 0.80887,0.88343 C 418.34229,491.20141 417,491.39938 417,490.11658 z m -7.54752,-9.19566 c 4.22888,-4.68087 4.98521,-9.512 1.30634,-8.34437 -1.23266,0.39123 -4.27016,0.84177 -6.75,1.00119 -3.78286,0.2432 -5.0321,0.89089 -7.75882,4.02268 -3.05641,3.51045 -4.18754,6.40425 -2.5,6.39584 0.4125,-0.002 2.22338,-0.90205 4.02417,-2 1.80079,-1.09794 3.48829,-1.99626 3.75,-1.99626 1.157,0 0.30501,2.94744 -1.52417,5.27287 -1.1,1.39842 -2,2.80189 -2,3.11881 0,1.44701 8.26911,-3.94715 11.45248,-7.47076 z M 446,483.46862 c 0,-2.02363 -2.82307,-3.04555 -4.30886,-1.55976 -0.89923,0.89923 -0.8249,1.3954 0.31722,2.11747 2.23309,1.4118 3.99164,1.1661 3.99164,-0.55771 z m -25.75,-10.88529 c 0.1375,-0.50416 -0.3125,-1.10416 -1,-1.33333 -0.6875,-0.22917 -1.25,0.33333 -1.25,1.25 0,1.69335 1.79279,1.75975 2.25,0.0833 z m 31.5625,-3.52083 c 0.25,-0.75 -0.125,-1.125 -0.875,-0.875 -0.72188,0.24063 -1.50937,1.02812 -1.75,1.75 -0.25,0.75 0.125,1.125 0.875,0.875 0.72187,-0.24063 1.50937,-1.02813 1.75,-1.75 z m -45.81889,-3.01246 c 1.92148,-1.59289 3.18853,-3.20123 2.81568,-3.57409 -0.77601,-0.776 -7.80929,4.30602 -7.80929,5.64274 0,1.50429 1.36643,0.93824 4.99361,-2.06865 z M 414,458.5 c 0.68469,-0.825 1.01989,-1.5 0.74489,-1.5 -0.275,0 -1.0602,0.675 -1.74489,1.5 -0.68469,0.825 -1.01989,1.5 -0.74489,1.5 0.275,0 1.0602,-0.675 1.74489,-1.5 z m 26.20258,-1.25 C 444.61797,453.77792 450,448.2119 450,447.11765 c 0,-1.63589 -3.55033,-1.36439 -5,0.38235 -1.34053,1.61524 -5,2.06805 -5,0.61869 0,-0.48472 1.6875,-2.12687 3.75,-3.64923 C 449.85007,439.96693 451.3314,437 447.47937,437 445.86467,437 437,445.3165 437,446.83135 c 0,0.55536 -1.4625,1.31908 -3.25,1.69716 -3.56054,0.7531 -7.75,4.06507 -7.75,6.12675 0,1.60677 4.14281,2.74176 7.59729,2.08139 1.61984,-0.30965 2.75436,0.0162 3.08852,0.88696 0.67209,1.75144 0.83661,1.73397 3.51677,-0.37361 z m 20.24181,-16.33997 c -0.45477,-0.73584 -2.53143,-0.37104 -4.74295,0.83319 -0.43921,0.23916 -0.26218,1.08113 0.39338,1.87104 1.02945,1.2404 1.44184,1.21004 3.02498,-0.22268 1.00817,-0.91238 1.60424,-2.02908 1.32459,-2.48155 z M 451,596.92308 c 0,-1.70226 5.37785,-6.63046 6.73995,-6.17643 0.9443,0.31477 0.89366,1.06119 -0.21782,3.21055 -1.808,3.49629 -6.52213,5.63999 -6.52213,2.96588 z M 288,489 c 0,-0.55 0.70156,-1 1.55902,-1 0.85746,0 1.2809,0.45 0.94098,1 -0.33992,0.55 -1.04148,1 -1.55902,1 C 288.42344,490 288,489.55 288,489 z M 497.63948,419.30615 C 497.28777,418.95443 497,418.31572 497,417.88679 c 0,-1.1134 9.89544,-7.53292 14.5621,-9.44695 11.42606,-4.6864 26.74839,-12.91116 27.18855,-14.59433 0.26544,-1.01503 0.76763,-1.87588 1.11598,-1.913 0.34835,-0.0371 2.19268,-0.26893 4.0985,-0.51513 C 548.03852,390.89115 550.56921,389 547.2,389 c -1.21,0 -2.2,-0.42574 -2.2,-0.9461 0,-1.18273 -8.23169,1.1975 -17.73668,5.12864 -12.82414,5.30391 -11.11514,1.77429 2.48668,-5.13575 3.4375,-1.74633 6.25,-3.55622 6.25,-4.02197 0,-1.17542 14.7847,-8.34512 24.86072,-12.05597 5.77302,-2.12612 9.25497,-2.88271 11.25,-2.44453 2.8556,0.62719 3.70874,1.85119 2.01844,2.89585 -1.0669,0.65938 -2.31016,6.47794 -1.62206,7.59133 0.27401,0.44334 2.8595,0.17746 5.74555,-0.59084 6.47578,-1.72395 14.65516,-1.92847 13.05307,-0.32638 -0.60185,0.60185 -6.42935,2.8995 -12.95,5.10589 -6.52065,2.20639 -15.59152,5.28571 -20.1575,6.84295 -4.56599,1.55724 -15.02981,6.2311 -23.25296,10.38637 -8.22314,4.15526 -17.38787,8.41146 -20.36607,9.45821 -2.97819,1.04675 -7.36437,3.22365 -9.74704,4.83756 -6.0293,4.08395 -6.47014,4.30342 -7.19267,3.58089 z m -41.81086,-4.23436 c -5.31925,-0.31449 -10.01425,-0.91679 -10.43333,-1.33846 -1.65695,-1.66719 1.57379,-2.66834 12.03493,-3.72941 6.01162,-0.60975 11.30314,-1.33913 11.75894,-1.62083 1.15659,-0.71481 4.81084,0.55504 4.81084,1.67175 0,0.84333 -7.61053,6.17611 -8.23013,5.76695 -0.14843,-0.098 -4.62199,-0.43552 -9.94125,-0.75 z M 494,413.52568 c 0,-1.01162 6.22319,-3.62741 7.81713,-3.28577 1.24399,0.26663 0.84825,0.80396 -1.51747,2.06039 C 497.25818,413.91563 494,414.54939 494,413.52568 z M 639,368 c 0,-0.55 0.675,-1 1.5,-1 0.825,0 1.5,0.45 1.5,1 0,0.55 -0.675,1 -1.5,1 -0.825,0 -1.5,-0.45 -1.5,-1 z m -32.5851,-2.46648 c 4.31336,-6.68209 13.99136,-17.44782 21.54822,-23.97007 4.42028,-3.81511 8.03679,-7.19011 8.03669,-7.5 -1.1e-4,-0.3099 -2.58761,-0.56345 -5.75,-0.56345 -5.20142,0 -5.78029,0.2146 -6.06936,2.25 -0.34172,2.40608 -0.3674,2.4224 -4.2046,2.67225 -1.38828,0.0904 -7.71708,3.59342 -14.06399,7.7845 -12.05391,7.9596 -12.37572,8.10337 -17.70948,7.91173 L 584.90476,354 l 4.82665,-4.82665 c 2.65466,-2.65466 5.58187,-5.24929 6.50491,-5.76585 C 599.33216,341.67498 609,332.70925 609,331.57075 c 0,-0.61921 2.7,-3.50247 6,-6.40725 3.3,-2.90478 6,-5.79489 6,-6.42246 0,-0.82196 -0.33556,-0.80548 -1.2,0.059 -0.66,0.66 -2.43344,1.2 -3.94098,1.2 -1.50754,0 -3.03378,0.47375 -3.39164,1.05279 -0.35787,0.57903 -1.17192,0.868 -1.80902,0.64216 -2.12013,-0.75156 -16.891,7.41338 -22.06136,12.19492 -2.80335,2.59254 -6.30104,5.46635 -7.77265,6.38625 l -2.67565,1.67255 2.92565,-6.45238 c 1.60911,-3.54881 2.92565,-7.18175 2.92565,-8.0732 0,-3.37204 3.41548,-8.56408 10.33935,-15.71738 3.93836,-4.06885 9.41065,-9.93843 12.16065,-13.04351 2.75,-3.10508 5.3375,-5.64933 5.75,-5.6539 1.8001,-0.0199 0.47964,4.47206 -2.70451,9.20025 -5.4294,8.06221 -3.07693,8.97684 7.28004,2.83045 8.84723,-5.25043 16.9817,-12.89946 15.06535,-14.16629 -1.11067,-0.73422 -0.83108,-1.36804 1.38781,-3.14608 11.89846,-9.53451 17.0554,-14.38656 17.91677,-16.85747 C 652.25491,267.83001 654,266.97807 654,269.5 c 0,0.93333 0.94444,1.5 2.5,1.5 3.83391,0 3.18866,1.8927 -2,5.86658 -5.80447,4.44552 -14.5,15.11382 -14.5,17.78963 0,2.28894 0.29176,2.48961 2.75,1.89144 4.93057,-1.19977 16.53441,-6.86942 27.16625,-13.27347 C 675.64519,279.82338 680.73997,277 681.238,277 c 0.49802,0 -4.15376,5.36848 -10.3373,11.92996 -6.18354,6.56148 -11.6604,12.67616 -12.17079,13.58819 -0.82418,1.47272 -0.6652,1.51761 1.42105,0.40128 1.29197,-0.69133 4.52868,-2.78888 7.19268,-4.66122 5.75709,-4.04627 7.17171,-3.61972 2.72909,0.8229 -1.74397,1.74397 -3.03259,3.90167 -2.8636,4.79487 0.38152,2.01657 5.84749,2.69927 8.83031,1.10291 4.67497,-2.50197 2.48293,0.098 -7.25285,8.60257 -5.61531,4.9052 -12.52045,11.05604 -15.34475,13.66854 -2.8243,2.6125 -5.42911,4.75 -5.78846,4.75 C 647.29402,332 647,330.9118 647,329.58179 647,326.17432 646.01073,324 644.4604,324 c -2.12799,0 -2.66643,3.57113 -1.10272,7.31362 1.43018,3.42291 1.40626,3.4971 -2.20591,6.84247 -6.28026,5.81638 -16.41819,14.44245 -22.3103,18.98319 -3.1122,2.39839 -7.6122,5.93572 -10,7.86072 l -4.34147,3.5 1.9149,-2.96648 z m 58.19158,-55.53124 c -0.11866,-3.34074 -0.76678,-3.71899 -2.59591,-1.51501 -1.46056,1.75986 -0.65867,4.51273 1.31453,4.51273 0.89885,0 1.35034,-1.05624 1.28138,-2.99772 z M 646,366.03518 c 0,-1.13792 3.30131,-3.04952 5.18426,-3.00191 0.75254,0.019 0.30522,0.87512 -1.04504,2 C 647.57177,367.17216 646,367.55262 646,366.03518 z m -89,-9.5 C 557,355.25531 559.82889,353 561.43426,353 c 1.09723,0 0.54698,1.87591 -1.00569,3.42857 C 558.45818,358.39896 557,358.4443 557,356.53518 z m 21.1875,-0.59768 c 0.24063,-0.72188 1.02813,-1.50937 1.75,-1.75 0.75,-0.25 1.125,0.125 0.875,0.875 -0.24063,0.72187 -1.02813,1.50937 -1.75,1.75 -0.75,0.25 -1.125,-0.125 -0.875,-0.875 z M 613,290.2095 c 0,-1.17652 0.87269,-2.60618 1.93931,-3.17702 2.96169,-1.58505 3.30999,0.38468 0.52987,2.99647 C 613.00273,292.34606 613,292.34626 613,290.2095 z m 7,-10.00527 C 620,278.36727 621.18638,276 622.10699,276 c 1.43081,0 1.02998,2.64144 -0.60699,4 -0.90823,0.75377 -1.5,0.83434 -1.5,0.20423 z"
       style="fill:#505050" />
    <path
       inkscape:connector-curvature="0"
       id="path3014"
       d="m 442.95416,609.91435 c -0.61391,-1.1471 -0.81795,-2.38389 -0.45342,-2.74842 0.6784,-0.67841 3.49926,2.56643 3.49926,4.0252 0,1.58904 -1.94944,0.77185 -3.04584,-1.27678 z m -33.95176,-4.11033 c -4.12368,-2.19298 -7.80087,-4.47793 -8.17152,-5.07766 -0.48459,-0.78408 -3.57554,-0.79307 -11.0024,-0.032 -10.20189,1.04546 -10.41794,1.02306 -17.62776,-1.8272 -7.63036,-3.01653 -10.39125,-4.54666 -16.20072,-8.97874 -1.925,-1.46859 -5.219,-3.21458 -7.32001,-3.87996 -4.88051,-1.54564 -5.44743,-3.15012 -2.2447,-6.35285 4.56737,-4.56737 2.72365,-6.32911 -2.63235,-2.5153 l -3.0058,2.14032 -7.64857,-3.14841 C 324.49165,572.56876 323,572.34053 323,574.57946 c 0,1.67576 -2.09715,1.50856 -10.2225,-0.81504 -4.14502,-1.18534 -8.8205,-4.91675 -6.94434,-5.54214 0.64176,-0.21392 1.16684,-0.71485 1.16684,-1.11317 0,-0.99789 -7.6146,-4.2752 -9.2075,-3.96289 -2.53483,0.49699 -9.83265,-4.24977 -12.32576,-8.01711 -2.11695,-3.19894 -10.76256,-11.20575 -13.29637,-12.31395 -1.30872,-0.57239 -11.8195,-16.27083 -12.39213,-18.50834 -0.86712,-3.38823 2.30713,-5.70099 6.69482,-4.87785 4.57649,0.85855 5.52569,-1.15907 2.48205,-5.27582 -1.95311,-2.64171 -2.12696,-3.72409 -1.51542,-9.43454 0.58756,-5.48659 1.06284,-6.64959 3.18062,-7.783 2.06379,-1.10451 3.03651,-1.1073 5.68476,-0.0163 1.75721,0.72392 3.98243,1.26322 4.94493,1.19845 3.03396,-0.20418 5.10025,-0.10727 10.5058,0.49269 4.66232,0.51748 5.18223,0.39163 4.60428,-1.11448 -0.75249,-1.96097 1.11043,-3.45816 4.3309,-3.48067 3.01543,-0.0211 4.00191,2.00486 1.77067,3.63639 -1.76874,1.29334 -1.7609,1.3483 0.19223,1.3483 2.36711,0 4.4098,2.09247 6.83349,7 0.9507,1.925 2.65505,4.23357 3.78744,5.13016 l 2.05889,1.63015 -2.16685,2.7547 c -2.72453,3.46369 -2.72896,5.25775 -0.0201,8.14122 4.22414,4.49639 -1.28633,6.63485 -9.89677,3.84066 -1.95519,-0.63448 -2.25,-0.37907 -2.25,1.94934 0,2.19699 -0.40072,2.62315 -2.22535,2.36663 -3.00124,-0.42194 -3.40371,2.18845 -1.10057,7.13838 l 1.82592,3.92429 10.31475,-0.30252 c 5.67311,-0.16638 10.78114,-0.7689 11.35118,-1.33894 0.63339,-0.63339 2.13826,-0.72042 3.86988,-0.2238 2.39486,0.68684 2.74349,0.55545 2.25223,-0.84882 -0.31967,-0.9138 -1.68505,-2.85782 -3.03416,-4.32005 -1.87917,-2.03673 -2.30791,-3.32324 -1.83291,-5.5 0.34101,-1.56277 0.22804,-4.92998 -0.25106,-7.4827 -0.54365,-2.89669 -0.49878,-5.30655 0.11937,-6.41114 0.75295,-1.34543 0.53727,-2.10289 -0.89941,-3.15871 -1.82794,-1.34335 -1.81119,-1.44845 0.51121,-3.20712 1.68908,-1.27908 2.23578,-2.45039 1.84362,-3.94999 -0.70066,-2.67934 -0.51161,-2.66549 4.61343,0.33799 3.59652,2.1077 5.0885,2.39542 10.17807,1.96284 3.28009,-0.27879 6.9763,-0.72375 8.2138,-0.98879 1.2375,-0.26503 2.25,-0.0233 2.25,0.53717 0,0.56048 0.45,1.01905 1,1.01905 0.55,0 1,-0.81 1,-1.8 0,-0.99 0.50079,-2.30079 1.11287,-2.91287 2.01848,-2.01848 -0.0361,-3.32304 -4.18793,-2.65914 -3.43447,0.5492 -4.28108,0.27977 -6.43964,-2.04935 -2.98023,-3.21572 -3.04202,-3.74987 -0.60956,-5.26897 1.03166,-0.64428 2.16848,-2.73187 2.52628,-4.6391 0.3578,-1.90722 1.52398,-4.57807 2.59151,-5.93521 C 347.82484,481.40722 347.75193,480 345.8,480 c -0.47667,0 -2.44167,1.575 -4.36667,3.5 -1.925,1.925 -4.4975,3.50614 -5.71666,3.51365 -1.21917,0.008 -3.22917,0.285 -4.46667,0.61664 -3.50739,0.93994 -2.73007,-1.75154 1.33726,-4.63029 1.94272,-1.375 4.2479,-3.16221 5.12263,-3.97158 0.87473,-0.80937 2.71558,-2.05532 4.09077,-2.76878 2.14602,-1.11337 2.77024,-1.05295 4.40485,0.42635 1.82132,1.64827 2.05132,1.57266 5.26623,-1.73122 9.38498,-9.64469 20.03384,-15.79765 25.12803,-14.51909 1.27584,0.32022 4.16814,-0.0546 6.42734,-0.83297 3.01227,-1.03782 4.1974,-1.10687 4.44432,-0.25895 1.12777,3.87277 1.606,4.65624 2.8422,4.65624 1.95485,0 5.01715,-3.65577 4.18719,-4.99867 -0.3823,-0.61858 -1.81296,-1.54971 -3.17924,-2.06917 -1.36628,-0.51945 -2.30245,-1.48956 -2.08037,-2.15579 0.52319,-1.56957 10.77975,-5.69029 14.98569,-6.02072 3.01532,-0.23689 3.29312,10e-4 3.78663,3.24435 l 0.53258,3.5 5.47694,-5.57223 c 8.03285,-8.17261 16.99025,-14.52429 18.05445,-12.80238 1.06799,1.72806 -3.14623,6.25496 -12.5775,13.51068 -10.48552,8.06679 -19.11615,15.59898 -21.66883,18.91101 -1.25175,1.62411 -3.07585,3.54094 -4.05354,4.25962 -0.9777,0.71869 -1.77763,2.3455 -1.77763,3.61515 0,1.26964 -0.8381,3.38162 -1.86244,4.69329 -1.02434,1.31167 -2.19192,3.43598 -2.59463,4.72069 -0.66107,2.10894 -0.53512,2.23036 1.2967,1.25 3.62328,-1.93912 4.14871,-1.15746 1.67362,2.48978 -4.18533,6.16743 -4.60041,10.62322 -0.65717,7.05464 2.54402,-2.30231 7.71637,-3.66576 11.23596,-2.96184 3.26975,0.65395 3.8826,2.88748 1.03984,3.78973 -1.02746,0.32611 -2.71496,1.53766 -3.75,2.69233 -1.8734,2.08996 -1.86836,2.09691 1.11812,1.54187 11.70949,-2.17621 11.83846,-2.12192 7.20144,3.03156 -1.85063,2.05675 -1.87139,2.27365 -0.27619,2.88579 0.98766,0.379 3.9011,-0.35742 6.81675,-1.72304 3.72211,-1.74334 5.20392,-2.04888 5.50829,-1.13578 0.43794,1.31382 3.45648,1.70903 4.5675,0.59801 0.35812,-0.35812 -0.0254,-1.14582 -0.85228,-1.75044 -1.33743,-0.97796 -1.33655,-1.33755 0.008,-3.25722 1.02721,-1.46654 2.1775,-1.98373 3.59032,-1.61427 1.25916,0.32928 3.21767,-0.29832 4.967,-1.59166 C 432.61935,496.96088 434.38724,496 434.95951,496 435.53178,496 436,495.06538 436,493.92308 436,490.96659 441.29969,486 444.45446,486 c 1.47768,0 2.87673,-0.69949 3.22754,-1.61369 0.34058,-0.88754 3.33702,-2.89901 6.65875,-4.46994 4.12692,-1.95172 8.90861,-5.6538 15.09939,-11.69023 4.98292,-4.8587 9.85411,-9.1357 10.82487,-9.50444 0.97075,-0.36875 2.16504,-1.69448 2.65397,-2.94607 0.89155,-2.28226 4.23372,-6.26431 5.81104,-6.9236 0.46322,-0.19361 1.89872,-1.85611 3.18998,-3.69442 1.60972,-2.29168 2.5845,-2.95935 3.10083,-2.1239 0.5612,0.90803 2.16747,0.54938 6.3042,-1.40761 3.05311,-1.44435 5.85403,-2.6261 6.22426,-2.6261 0.37023,0 2.88787,-1.85427 5.59475,-4.1206 4.88941,-4.09364 9.89539,-7.13496 17.13513,-10.41021 2.07855,-0.94033 4.25467,-2.59816 4.83583,-3.68407 0.94403,-1.76393 0.80768,-1.90033 -1.27917,-1.27971 -1.28471,0.38207 -4.03148,1.8415 -6.10394,3.24318 -4.17913,2.8265 -5.49953,2.55428 -3.72186,-0.76732 1.03024,-1.92503 0.34427,-1.73721 -5.66898,1.5522 -3.76258,2.05822 -7.72868,4.3552 -8.81356,5.10438 -1.08487,0.74918 -3.19582,1.36215 -4.69098,1.36215 -1.49516,0 -2.99659,0.45 -3.33651,1 -0.33992,0.55 -1.15398,0.99776 -1.80902,0.99503 -1.89982,-0.008 4.34305,-4.73653 9.80902,-7.42974 2.75,-1.35499 6.35,-3.65386 8,-5.1086 3.80773,-3.35711 6.65221,-4.82655 14.60792,-7.54635 3.51565,-1.20189 8.19208,-3.10139 10.39208,-4.22113 2.2,-1.11973 5.20792,-1.95298 6.68426,-1.85167 1.47635,0.10132 2.9654,-0.27068 3.30902,-0.82666 C 552.83689,404.45489 554.51122,404 556.214,404 c 3.0404,0 3.06324,0.0362 1.27228,2.01516 -1.00303,1.10834 -3.55747,2.2924 -5.67654,2.63125 -2.60123,0.41596 -4.69496,1.61691 -6.44515,3.69689 -3.53668,4.2031 -1.63163,4.44595 5.78879,0.73792 3.39134,-1.69467 6.33502,-3.08122 6.54153,-3.08122 0.2065,0 -0.12683,0.93854 -0.74075,2.08565 -1.50071,2.8041 -0.67096,3.35988 3.06946,2.05596 2.38772,-0.83236 3.03107,-0.80567 2.72483,0.11305 -0.39287,1.17859 -3.7235,3.39385 -14.74845,9.80946 -6.4641,3.76157 -21.6558,14.56994 -22.57952,16.06455 -0.35233,0.57009 0.73657,0.32435 2.4198,-0.54607 3.35302,-1.73392 6.15972,-2.06572 6.15972,-0.72819 0,2.04535 -14.26546,13.1915 -22.5,17.58011 -12.73249,6.78579 -20.19733,12.43572 -21.02439,15.91278 -0.54411,2.28751 -1.1222,2.76225 -2.94034,2.41469 -2.61813,-0.50049 -9.91307,5.02102 -7.78527,5.89264 2.06525,0.84599 1.4299,2.26536 -1.92817,4.30753 -2.88775,1.75614 -3.28511,1.78653 -4.3483,0.33253 -0.64357,-0.88013 -1.68839,-1.27993 -2.32183,-0.88845 -1.68993,1.04444 -1.40429,2.39271 0.5983,2.82406 2.33145,0.50218 -5.96279,4.90525 -10.75,5.70672 -3.06848,0.51373 -3.53863,0.98525 -3.81336,3.82448 -0.23034,2.38053 -0.807,3.2385 -2.17667,3.2385 -1.02483,0 -2.00882,-0.63787 -2.18665,-1.41748 -0.55375,-2.42771 -6.99652,0.54987 -15.87985,7.33901 -5.90702,4.51448 -10.37576,6.97437 -16.74993,9.22028 C 409.28505,518.98535 406,522.08071 406,528.51578 l 0,4.48422 3.94098,0 c 2.16754,0 4.2191,-0.45 4.55902,-1 0.86951,-1.4069 5.5,-1.25068 5.5,0.18555 0,0.65205 -0.98404,2.23301 -2.18676,3.51324 -1.68725,1.796 -1.91567,2.59878 -1,3.51445 0.65272,0.65272 1.18676,1.81213 1.18676,2.57647 0,1.65621 3.93281,5.12989 5.86129,5.17702 0.9973,0.0244 1.19468,0.9214 0.73817,3.35478 -0.74101,3.94995 -0.0303,4.96447 2.41026,3.44035 1.39291,-0.86989 2.36718,-0.74493 4.357,0.55886 1.4096,0.9236 2.80375,1.67928 3.0981,1.67928 1.06109,0 0.43339,-4.55408 -0.96482,-7 -2.47551,-4.33045 -1.95806,-5.32478 2.46251,-4.73185 3.04167,0.40797 4.49405,0.0705 6.24986,-1.45234 1.92972,-1.67364 3.14734,-1.88134 7.7875,-1.3284 6.97376,0.83102 12.40005,3.5208 12.81968,6.35462 0.277,1.87063 -0.16043,2.15797 -3.28518,2.15797 -1.98261,0 -4.65445,0.6878 -5.93744,1.52844 -1.92978,1.26445 -2.22021,2.07847 -1.68143,4.7128 0.69795,3.41256 2.72853,4.4739 8.91396,4.65908 3.16943,0.0949 3.29879,-0.0399 2.69145,-2.80512 -0.3509,-1.59764 -0.20269,-3.17384 0.32937,-3.50267 0.53205,-0.32882 3.74739,0.11434 7.14519,0.98482 3.39781,0.87048 6.40029,1.36022 6.6722,1.08831 0.2719,-0.2719 -0.0303,-1.47482 -0.67168,-2.67315 -0.64133,-1.19834 -0.88093,-3.3148 -0.53245,-4.70324 0.42366,-1.688 0.0691,-3.14818 -1.06996,-4.40686 -2.21289,-2.44522 -0.74236,-2.39244 3.38059,0.12133 4.11157,2.50682 4.43805,2.4928 4.04538,-0.17373 -0.18626,-1.26488 -1.77941,-2.95523 -3.81955,-4.0526 -3.72617,-2.00425 -9,-7.1569 -9,-8.79319 0,-1.43399 2.39757,-1.20907 7.07908,0.6641 3.41683,1.36714 4.2621,1.41767 4.9552,0.29621 1.05314,-1.70401 4.87715,0.13743 9.16131,4.41159 4.93181,4.92029 5.46027,6.38623 12.79408,35.49053 0.46382,1.84066 1.78089,4.34467 2.92682,5.56446 2.43795,2.59508 2.69976,4.58889 0.60256,4.58889 -0.81452,0 -1.7633,1.125 -2.10841,2.5 -0.3451,1.375 -1.20192,2.5 -1.90404,2.5 -0.70212,0 -2.03834,1.16259 -2.96937,2.58353 -1.66641,2.54326 -6.98508,5.41647 -10.02655,5.41647 -0.85446,0 -2.09117,-1.2375 -2.74826,-2.75 -1.52009,-3.499 -5.75058,-9.25 -6.80438,-9.25 -0.44253,0 -2.19815,1.1726 -3.90139,2.60578 -3.53608,2.97542 -4.57964,2.55204 -7.61856,-3.09087 C 468.397,581.58171 466.90278,580 466.11761,580 c -1.09522,0 -0.99333,0.47985 0.43764,2.06105 1.5963,1.76389 1.65469,2.19422 0.40499,2.98469 -1.96617,1.24365 -3.69802,1.18756 -4.5225,-0.14648 -0.3998,-0.64688 -1.93918,-0.84897 -3.73341,-0.49013 -3.72013,0.74403 -13.3541,5.21517 -14.20553,6.59281 -0.33926,0.54893 -2.33518,0.99806 -4.43537,0.99806 -2.21944,0 -4.35411,0.64532 -5.09744,1.54098 -1.07486,1.29512 -0.77531,2.06053 1.87756,4.7976 4.52314,4.6667 4.01329,7.26072 -0.90929,4.62624 C 434.44159,602.16597 434,602.25569 434,603.35783 434,604.93508 431.91461,606 428.82594,606 c -1.10576,0 -3.15465,0.9 -4.55307,2 -3.58111,2.8169 -6.68308,2.37082 -15.27047,-2.19598 z m 9.46944,-11.15977 c 1.76006,-1.28698 1.68256,-1.53605 -1.52767,-4.90993 l -3.38178,-3.55418 -2.34372,2.52892 -2.34373,2.52892 2.23685,2.38101 c 2.53457,2.69793 4.66642,2.99489 7.36005,1.02526 z M 499.95808,565.75 c -0.0231,-0.6875 -0.90419,-2.825 -1.95808,-4.75 -1.60289,-2.92778 -1.92302,-3.13984 -1.95808,-1.29705 -0.0502,2.63935 1.94037,7.29705 3.1186,7.29705 0.46171,0 0.82062,-0.5625 0.79756,-1.25 z M 307,560.7 c 0,-1.265 -0.55874,-2.85874 -1.24164,-3.54164 -0.98886,-0.98886 -0.93796,-1.43922 0.25,-2.21213 1.23388,-0.80279 0.84617,-1.5732 -2.24367,-4.45836 C 301.71026,548.56954 299.60657,547 299.0898,547 c -0.51676,0 0.37663,2.4665 1.98532,5.4811 1.60868,3.01461 2.92488,6.31461 2.92488,7.33334 0,1.01872 0.3,2.15223 0.66667,2.51889 C 305.99203,563.6587 307,562.95312 307,560.7 z m 187.12118,-9.14037 C 492.20865,546.52126 487.60311,540 485.95737,540 c -1.52492,0 -1.09914,3.26618 0.79922,6.13089 2.21246,3.3387 8.59945,10.84641 8.9387,10.50716 0.14097,-0.14098 -0.56737,-2.42627 -1.57411,-5.07842 z m -79.16702,-6.64528 c -0.61391,-1.1471 -1.36887,-1.83298 -1.67768,-1.52416 -0.30882,0.30881 0.008,1.24735 0.70346,2.08564 1.79782,2.16624 2.28407,1.88599 0.97422,-0.56148 z m -16.6239,-3.78172 c 0.90474,-2.26118 2.40346,-4.09124 3.60858,-4.40638 2.6581,-0.69511 2.68028,-2.72625 0.0298,-2.72625 -1.11727,0 -2.29978,-0.69941 -2.62781,-1.55425 -0.50646,-1.31982 -0.95421,-1.21811 -2.96862,0.67432 -1.75878,1.65229 -2.37219,3.30401 -2.37219,6.38758 0,6.7073 1.99688,7.45665 4.33026,1.62498 z M 402.58179,526 C 402.8118,526 403,525.292 403,524.42668 c 0,-2.22419 -3.38944,-1.35853 -3.83994,0.98071 -0.27313,1.41823 0.0535,1.72463 1.3203,1.23852 C 401.40613,526.29066 402.35177,526 402.58179,526 z M 380,522.08179 c 0,-0.50502 0.27314,-1.63002 0.60699,-2.5 0.38982,-1.01587 0.0619,-1.58179 -0.91667,-1.58179 -1.69434,0 -2.64086,1.83337 -1.93602,3.75 0.53072,1.44317 2.2457,1.69655 2.2457,0.33179 z M 331.84188,518 c -1.43529,-1.94133 -3.09988,-3 -4.71703,-3 l -2.49903,0 2.87418,3 c 1.5808,1.65 3.70346,3 4.71703,3 1.70709,0 1.67946,-0.22099 -0.37515,-3 z m 25.61977,-14.3483 c 2.45883,-1.79794 1.15018,-4.04951 -1.52234,-2.61922 -1.06662,0.57084 -1.93931,1.69705 -1.93931,2.5027 0,1.82392 1.07706,1.86018 3.46165,0.11652 z M 346.36163,490.5 c 0.31658,-0.825 0.13972,-1.5 -0.39301,-1.5 -0.53274,0 -0.96862,0.675 -0.96862,1.5 0,0.825 0.17686,1.5 0.39301,1.5 0.21616,0 0.65203,-0.675 0.96862,-1.5 z m 43.45087,-14.4375 c 0.25,-0.75 -0.125,-1.125 -0.875,-0.875 -0.72188,0.24063 -1.50937,1.02812 -1.75,1.75 -0.25,0.75 0.125,1.125 0.875,0.875 0.72187,-0.24063 1.50937,-1.02813 1.75,-1.75 z M 493,454.09676 c 0,-0.46853 -0.61529,-1.36252 -1.36732,-1.98665 -1.57969,-1.31102 -2.93575,-0.0834 -4.10066,3.7123 -0.70624,2.30116 -0.68447,2.30779 2.37761,0.72432 C 491.60933,455.66778 493,454.5653 493,454.09676 z m 17.54112,-2.16329 c 1.08933,-1.76258 -0.059,-2.0097 -2.11412,-0.45494 -1.69187,1.27997 -1.72067,1.46174 -0.23602,1.48967 0.93004,0.0175 1.9876,-0.44814 2.35014,-1.03473 z m 2.50854,-8.45915 c 2.69465,-1.39346 4.01728,-3.47964 2.20034,-3.47058 -1.03499,0.005 -7.25,3.84694 -7.25,4.48156 0,0.94464 2.0689,0.53043 5.04966,-1.01098 z m 19.74886,-14.15033 c 2.48925,-1.90008 6.81542,-4.63775 9.6137,-6.08371 3.50944,-1.81343 4.54177,-2.74717 3.3277,-3.00991 -1.93354,-0.41844 -14.07417,6.63208 -19.07831,11.07951 -2.87569,2.55576 -2.9458,2.74923 -0.7753,2.13935 1.31246,-0.36879 4.42296,-2.22515 6.91221,-4.12524 z M 531,418 c 3.27098,-2.5586 1.36336,-2.5586 -2.5,0 -1.65,1.09275 -2.325,1.97978 -1.5,1.97117 0.825,-0.009 2.625,-0.89563 4,-1.97117 z m 22.97104,-0.96094 c 0.80907,-0.51167 1.21098,-1.19037 0.89313,-1.50823 -0.78775,-0.78775 -3.86417,0.46709 -3.86417,1.57616 0,1.13978 1.10118,1.11461 2.97104,-0.0679 z m -99.46549,176.95481 c 0.99854,-1.10337 2.03241,-1.78925 2.29749,-1.52417 0.67193,0.67194 -1.82222,3.5303 -3.08047,3.5303 -0.5679,0 -0.21556,-0.90276 0.78298,-2.00613 z M 462.36163,541.5 c -0.31659,-0.825 -1.36467,-1.5 -2.32907,-1.5 -0.96441,0 -3.50376,-1.20999 -5.64301,-2.68887 -2.98209,-2.06154 -5.20728,-2.72582 -9.53758,-2.84722 -7.03943,-0.19734 -11.75344,-3.13387 -9.17308,-5.71423 C 437.5294,526.89917 436.6546,525 433.95171,525 c -1.06164,0 -4.18522,0.85682 -6.94127,1.90404 -2.75606,1.04722 -5.19395,1.60805 -5.41752,1.2463 -0.22358,-0.36175 0.56405,-2.6789 1.75029,-5.14922 2.24347,-4.672 8.66938,-9.37389 11.65679,-8.52935 0.825,0.23323 4.3125,0.69524 7.75,1.0267 5.92693,0.5715 6.25,0.49079 6.25,-1.56141 0,-2.27754 0.43077,-2.29613 8.35637,-0.36075 1.80315,0.44032 3.12317,0.26581 3.57995,-0.47327 1.04628,-1.69292 3.61075,-0.39253 4.92823,2.49902 1.7134,3.7605 1.39912,5.17954 -1.57797,7.12489 -1.49238,0.97518 -3.80809,2.78555 -5.14602,4.02305 -3.25293,3.00875 -5.05018,2.8388 -9.1004,-0.8605 l -3.40556,-3.1105 -4.3173,2.0975 c -2.46051,1.19541 -4.3173,2.79705 -4.3173,3.72405 0,1.35464 0.73273,1.51666 4.38333,0.96922 7.44523,-1.11649 13.50439,0.94306 18.36667,6.24296 4.12559,4.4969 5.3304,7.18727 3.21862,7.18727 -0.56727,0 -1.29041,-0.675 -1.60699,-1.5 z m 16.96099,-15.19622 C 476.96836,525.8455 473.96065,523 475.8305,523 c 1.76543,0 6.1695,2.25612 6.1695,3.16052 0,0.46171 -0.1125,0.7782 -0.25,0.7033 -0.1375,-0.0749 -1.22982,-0.32692 -2.42738,-0.56004 z m -10.76295,-18.96683 c 0.3756,-2.11032 1.01408,-4.2002 1.41883,-4.64416 0.40476,-0.44397 3.16268,-0.66897 6.12871,-0.5 3.88602,0.22137 5.39279,0.70973 5.39279,1.74786 0,1.39287 -6.57937,5.21477 -11.31162,6.57083 -2.20276,0.63122 -2.27947,0.4817 -1.62871,-3.17453 z M 462.5,500.03878 c -3.14699,-0.7601 -2.51896,-1.31846 2.79599,-2.48585 3.55903,-0.78171 5.2033,0.14054 3.63012,2.0361 -1.26064,1.51898 -1.83329,1.55906 -6.42611,0.44975 z M 312.81381,493.57125 C 309.69043,490.8207 310.09077,490 314.55588,490 c 3.659,0 8.13454,3.07386 7.04421,4.83805 -1.19337,1.93092 -5.93073,1.24789 -8.78628,-1.2668 z M 387,448.03518 c 0,-1.58032 3.47216,-2.97943 5.02,-2.02282 1.09075,0.67412 0.77911,1.11352 -1.36898,1.93022 C 387.24096,449.23909 387,449.2452 387,448.03518 z m 67,-9.04088 c 0,-1.37634 4.81746,-3.16979 7.43446,-2.7677 2.0513,0.31517 2.05175,0.32487 0.0655,1.40705 -3.2061,1.74682 -7.5,2.52582 -7.5,1.36065 z m 45.56185,-0.2443 c 0.645,-1.61545 10.23476,-7.23115 13.93384,-8.15956 2.5647,-0.6437 2.71571,-0.55009 1.49176,0.92469 -0.749,0.90249 -3.49574,2.72223 -6.10387,4.04386 -2.60812,1.32164 -5.02545,2.86154 -5.37183,3.42199 -0.91961,1.48797 -4.55142,1.27559 -3.9499,-0.23098 z M 493,435.5 c 0,-0.825 0.7301,-1.5 1.62244,-1.5 1.3288,0 1.39713,0.27149 0.37756,1.5 -0.68469,0.825 -1.41479,1.5 -1.62244,1.5 C 493.1699,437 493,436.325 493,435.5 z m -34.5,-22.36699 -5,-0.36699 6,-1.3188 c 7.17759,-1.57765 10.82076,-1.77525 10.06086,-0.54569 -0.99404,1.60839 -5.94408,2.60704 -11.06086,2.23148 z M 566.5,411 c 0.33992,-0.55 1.37898,-0.99311 2.30902,-0.98469 1.45727,0.0132 1.48367,0.14929 0.19098,0.98469 -1.95837,1.2656 -3.28218,1.2656 -2.5,0 z M 565,406.18067 C 565,404.95929 568.41803,402 569.82874,402 c 2.19496,0 1.17885,1.94471 -1.82874,3.5 -1.65,0.85325 -3,1.15955 -3,0.68067 z m -37,-3.65499 c 0,-0.91464 6.14782,-3.64302 7.31779,-3.24761 0.65022,0.21974 -0.25794,1.14707 -2.01813,2.06073 C 530.14808,402.97469 528,403.45576 528,402.52568 z m 22.19299,-11.05201 c 2.30726,-2.30726 15.89023,-7.9589 22.80701,-9.4896 4.675,-1.03459 9.625,-2.19569 11,-2.58022 5.57162,-1.55815 0.32811,1.23404 -8.29482,4.41704 -19.31987,7.13157 -27.42105,9.56165 -25.51219,7.65278 z M 584.5,387.19326 c 3.60301,-2.01092 15.8871,-7.09435 16.27354,-6.73435 0.15044,0.14016 -0.002,0.9735 -0.33931,1.85188 -1.04542,2.72433 -6.73011,5.33762 -12.96612,5.96061 l -5.96811,0.59623 3,-1.67437 z m -41.95116,-5.11424 c -0.8228,-1.33132 5.29115,-4.36097 14.05897,-6.96666 7.57439,-2.25102 11.93108,-2.66747 12.82216,-1.22567 0.90275,1.46068 -1.82838,3.04804 -7.02916,4.08545 -4.69792,0.9371 -12.48709,2.95294 -17.06665,4.41687 -1.19122,0.38079 -2.44461,0.24129 -2.78532,-0.30999 z m 74.38306,-27.95178 c 0.55125,-1.03001 2.59934,-3.16751 4.5513,-4.75 1.95197,-1.58248 5.83986,-5.05666 8.63976,-7.7204 3.47963,-3.31041 5.41541,-4.51847 6.11666,-3.81722 1.5733,1.5733 0.23726,3.81889 -3.94185,6.62538 -2.08877,1.40272 -6.17713,4.57194 -9.08523,7.0427 -5.66438,4.81253 -7.96864,5.7736 -6.28064,2.61954 z m -23.46114,-3.17455 C 592.71169,349.72449 595.71622,346 597.46607,346 c 0.63585,0 5.62861,-3.73589 11.09501,-8.30199 C 617.27865,330.41622 640.71205,314 642.38891,314 c 2.1202,0 -0.56025,2.77191 -8.88154,9.18462 -5.22094,4.02346 -14.33344,11.04269 -20.25,15.59828 -13.15605,10.12982 -18.8739,13.64659 -19.78661,12.16979 z M 582.99505,336.25 c -0.006,-0.96422 2.90348,-9.92978 4.37423,-13.47753 1.10527,-2.66614 12.57342,-13.1631 13.43723,-12.29929 0.24006,0.24006 -0.76953,2.49437 -2.24354,5.00958 -1.64317,2.80387 -2.44445,5.31532 -2.07112,6.49157 0.45382,1.42986 -0.98934,3.58759 -5.6664,8.47207 -5.89225,6.15357 -7.81867,7.58136 -7.8304,5.8036 z m 55.38064,-0.71334 c -0.75609,-1.97034 2.57817,-5.9828 3.88535,-4.67562 1.45405,1.45405 0.40276,5.58731 -1.51406,5.95265 -0.96417,0.18377 -2.03124,-0.3909 -2.37129,-1.27703 z m 9.38437,-8.01152 c -0.4733,-2.47588 1.7321,-5.52514 3.9961,-5.52514 0.60427,0 1.9836,-1.125 3.06518,-2.5 2.11781,-2.69236 3.65975,-3.14864 4.73902,-1.40233 C 660.18397,319.10668 650.428,330 648.90074,330 c -0.36717,0 -0.88048,-1.11369 -1.14068,-2.47486 z M 600,323.24886 c 0,-1.40713 13.34587,-13.85849 17.5,-16.32706 2.2,-1.30733 7.9375,-5.90238 12.75,-10.21121 4.8125,-4.30884 8.75,-7.46217 8.75,-7.00741 0,1.12635 -23.52025,24.23232 -28.5,27.99799 -4.83949,3.65962 -10.5,6.65036 -10.5,5.54769 z m 61,-7.13414 c 0,-1.43811 0.46137,-1.87491 1.54226,-1.46013 1.70679,0.65496 1.49685,2.49904 -0.35476,3.11624 -0.65946,0.21982 -1.1875,-0.5166 -1.1875,-1.65611 z m 5,-4.57954 c 0,-1.57567 3.79576,-4.07275 4.74618,-3.12233 C 671.41812,309.08478 668.0884,313 666.84501,313 666.38026,313 666,312.34083 666,311.53518 z m -11.26667,-13.65927 c 0.67834,-0.68342 1.48524,-0.99067 1.79313,-0.68278 0.30789,0.30789 -0.24711,0.86705 -1.23333,1.24258 -1.4252,0.54268 -1.54006,0.42782 -0.5598,-0.5598 z"
       style="fill:#303030" />
    <path
       inkscape:connector-curvature="0"
       id="path3012"
       d="m 412,606.12357 c -4.54036,-2.33885 -5.54977,-3.33834 -5.78527,-5.72838 -0.1569,-1.59235 -0.8003,-3.91678 -1.42979,-5.1654 -0.83823,-1.66264 -0.84764,-2.56709 -0.0352,-3.37955 0.81245,-0.81245 2.05642,0.37118 4.64819,4.42277 3.66667,5.73193 7.87116,9.72699 10.23691,9.72699 0.75083,0 1.36514,0.675 1.36514,1.5 0,2.22974 -2.84369,1.79484 -9,-1.37643 z M 426.5,603 c -0.35052,-0.56716 0.48962,-1 1.94098,-1 1.40746,0 2.55902,0.45 2.55902,1 0,0.55 -0.87344,1 -1.94098,1 -1.06754,0 -2.2191,-0.45 -2.55902,-1 z m -52.69399,-4.41202 c -7.57231,-2.66471 -13.1326,-5.81862 -16.82761,-9.54498 -1.38689,-1.39865 -3.83093,-3.46845 -5.43122,-4.59957 C 347.47408,581.5645 348.58706,579 353.9096,579 c 2.1848,0 4.20478,-0.37606 4.48885,-0.83568 1.0497,-1.69845 -1.08072,-6.69588 -3.26732,-7.66432 -1.62054,-0.71774 -2.13798,-1.63509 -1.83316,-3.25 0.48434,-2.56602 -1.38392,-3.0212 -3.54213,-0.86299 -2.26464,2.26465 -12.57653,4.20606 -14.83825,2.7936 -3.80144,-2.37404 -6.64582,-0.85981 -3.41759,1.81939 2.45954,2.04123 1.70783,2.96841 -1.5,1.85016 -1.65,-0.5752 -3,-1.39554 -3,-1.82299 0,-0.42744 -1.35,-1.04717 -3,-1.37717 -2.78958,-0.55792 -4.43062,-3.65 -1.93714,-3.65 0.58457,0 0.92207,-1.0125 0.75,-2.25 -0.28626,-2.05871 0.13734,-2.27583 4.98236,-2.55383 4.61141,-0.26459 5.41943,-0.63055 6.25715,-2.83391 0.52907,-1.39155 0.71931,-2.92268 0.42276,-3.4025 -0.78302,-1.26696 -3.47513,0.009 -3.47513,1.64723 0,1.65703 -0.51353,1.72373 -3.00505,0.39031 -1.29335,-0.69218 -2.08542,-0.65994 -2.55763,0.10412 -0.37624,0.60876 -2.53727,1.93654 -4.80231,2.95063 -2.46196,1.10225 -4.12162,2.52335 -4.12663,3.53347 -0.005,0.92932 -0.78963,2.18401 -1.74448,2.78819 -1.38322,0.87524 -2.19627,0.6383 -4,-1.16567 l -2.2639,-2.2642 2.25,-0.58855 c 1.2375,-0.32371 2.25,-1.12644 2.25,-1.78386 0,-1.95909 5.701,-5.57143 8.79284,-5.57143 4.21963,0 4.56386,-1.00993 1.47116,-4.31625 l -2.764,-2.95492 3,0.70953 c 1.65,0.39023 3.15,1.12624 3.33333,1.63558 1.12664,3.12999 6.40933,-1.55059 6.56566,-5.81732 0.092,-2.50995 0.44272,-2.75662 3.91977,-2.75662 4.96512,0 7.19307,-3.08422 3.83743,-5.31228 C 339.97029,535.4003 339,533.91094 339,532.87803 339,531.84511 338.55,531 338,531 c -0.55,0 -1,0.63277 -1,1.40616 0,1.95153 -9.50943,3.24587 -11.52957,1.5693 C 323.28339,532.16037 323.6849,531 326.5,531 c 3.19866,0 3.14476,-0.50163 -0.5,-4.65278 -1.89064,-2.15332 -3,-4.5133 -3,-6.38202 0,-1.63086 0.2237,-2.9652 0.49712,-2.9652 0.27341,0 2.3021,1.63069 4.50819,3.62376 2.9769,2.68946 5.16918,3.7543 8.50288,4.13005 5.31083,0.59861 5.98936,-0.98458 1.83997,-4.29319 -2.11894,-1.68958 -2.51841,-2.64616 -1.98784,-4.76013 0.59079,-2.35388 1.02106,-2.58081 3.90185,-2.05784 1.78081,0.32328 4.93131,1.67128 7.00111,2.99555 3.26881,2.09139 3.67773,2.76608 3.11212,5.13478 -0.35815,1.49986 -1.07787,3.26981 -1.59938,3.93322 -2.15651,2.74327 1.53864,4.26614 5.37269,2.21422 1.90837,-1.02133 1.92525,-1.18121 0.31297,-2.96276 -1.98687,-2.19547 -1.28241,-5.20983 1.01181,-4.32946 1.15467,0.44309 1.37922,0.15155 0.88176,-1.14482 -0.45293,-1.1803 0.10106,-2.31897 1.72372,-3.54295 2.83737,-2.14023 2.03048,-3.60455 -1.07146,-1.94445 -1.19009,0.63692 -2.85431,0.89305 -3.69827,0.56919 -2.00937,-0.77106 -0.32867,-2.89654 4.90078,-6.19775 5.48839,-3.46467 7.06347,-6.28444 5.69814,-10.20103 -1.24119,-3.56046 -2.41186,-3.81842 -7.5624,-1.66639 -4.6429,1.93993 -5.97969,1.89087 -6.81271,-0.25 -0.48761,-1.25314 0.33377,-2.63184 2.89301,-4.85598 1.96567,-1.70828 3.57394,-3.74566 3.57394,-4.52749 0,-0.78184 0.64005,-2.33532 1.42233,-3.45218 0.78229,-1.11687 1.56979,-3.53411 1.75,-5.37166 0.41427,-4.22396 3.34814,-6.34486 5.24648,-3.79269 1.57339,2.1153 3.58119,2.2927 3.58119,0.31642 0,-0.82053 1.176,-1.56889 2.75,-1.75 2.37534,-0.27331 2.70818,-0.7077 2.44303,-3.1884 -0.29758,-2.7841 -0.19856,-2.85164 3.23598,-2.20731 1.98978,0.37328 4.42587,0.19214 5.55698,-0.41321 1.71203,-0.91625 2.01401,-0.77271 2.01401,0.95732 0,1.14238 0.65802,2.03518 1.5,2.03518 2.12786,0 1.86211,2.73584 -0.38243,3.93708 -1.9834,1.06148 -3.4017,6.76928 -1.91099,7.69059 0.48021,0.29679 0.57963,2.63948 0.22094,5.20597 -0.3587,2.5665 -0.58893,5.56636 -0.51163,6.66636 0.45249,6.43898 0.15132,11.71461 -0.72954,12.77961 -0.55516,0.67122 -1.1617,2.57039 -1.34786,4.22039 -0.26083,2.31174 -1.41578,3.68826 -5.03419,6 -4.44013,2.83672 -4.69866,3.24663 -4.75,7.53136 -0.0484,4.0396 -0.59691,5.10024 -5.0543,9.77355 -2.75,2.88321 -5,5.66045 -5,6.17164 0,1.03937 6.90978,3.19724 8.02699,2.50677 0.39308,-0.24294 0.99639,-1.85021 1.34069,-3.57171 0.55291,-2.76458 0.92427,-3.05515 3.18075,-2.48881 1.78247,0.44737 3.33565,0.0269 5.13802,-1.3908 3.56252,-2.80228 5.31355,-2.58507 5.31355,0.65913 0,2.47004 0.10812,2.54326 1.3161,0.89126 1.51817,-2.07622 5.1839,-1.77123 5.1839,0.43131 0,0.81746 -1.0125,1.6301 -2.25,1.80585 -3.22921,0.45862 -2.80105,1.27192 2.59564,4.93045 5.64676,3.82806 7.77118,4.07227 8.69932,1 0.81315,-2.69166 5.36334,-7.75 6.97144,-7.75 0.62822,0 2.60593,3.0375 4.3949,6.75 1.78897,3.7125 3.82963,7.875 4.5348,9.25 0.70516,1.375 1.56784,3.70165 1.91707,5.17034 0.4701,1.97708 1.46694,2.85307 3.83968,3.37421 1.7626,0.38713 4.04568,1.77298 5.07352,3.07966 1.02783,1.30669 2.4953,2.37579 3.26103,2.37579 1.84566,0 3.61704,-3.43397 2.82972,-5.48568 -0.50184,-1.30779 -0.0635,-1.56956 2.21432,-1.32244 2.26132,0.24534 3.11385,-0.25223 4.18386,-2.44188 1.70809,-3.49541 3.34914,-3.46613 7.4499,0.13291 1.80664,1.5856 5.02881,3.61125 7.16038,4.50144 3.50063,1.46195 4.36613,1.47287 8.94577,0.11286 3.39438,-1.00802 5.4021,-1.17376 6.07441,-0.50145 C 469.6832,563.2832 471,563.28534 471,562 c 0,-0.55 -0.60526,-1 -1.34501,-1 C 468.30456,561 465,557.92704 465,556.67126 c 0,-1.13175 2.62234,-0.74899 5.63569,0.82258 1.57537,0.82161 3.59112,1.49661 4.47945,1.5 0.88833,0.003 2.80083,0.93882 4.25,2.07874 l 2.63486,2.07258 0,-2.62224 c 0,-1.44223 -0.66315,-3.90463 -1.47366,-5.47199 -1.29822,-2.51048 -1.29822,-2.99536 0,-4.07279 1.02172,-0.84795 1.85701,-0.90819 2.72366,-0.1964 0.6875,0.56464 2.35954,1.18224 3.71564,1.37244 4.33829,0.60847 9.5388,10.84582 5.50961,10.84582 -2.34576,0 -3.70544,4.89306 -2.98282,10.73424 0.91332,7.38261 2.4121,7.50435 2.30835,0.18748 -0.11427,-8.05946 1.73575,-9.48434 5.05076,-3.89008 1.29335,2.1826 2.98085,3.96836 3.75,3.96836 0.88718,0 1.39846,1.09681 1.39846,3 0,2.67357 -0.32985,3 -3.03138,3 -3.75462,0 -4.42539,1.58997 -2.96259,7.02239 0.62676,2.32761 0.7693,4.59016 0.31677,5.02789 -1.57599,1.52441 -6.4471,-0.24702 -7.37254,-2.6811 C 488.45484,588.06613 487.67499,587 487.21725,587 c -0.45774,0 -2.28058,-2.05476 -4.05076,-4.56614 -2.44709,-3.47172 -3.75157,-4.48468 -5.4425,-4.22626 -1.2232,0.18693 -2.14394,0.79436 -2.04609,1.34984 0.23872,1.35526 -5.62837,1.08637 -8.36216,-0.38324 -3.10748,-1.6705 -3.49929,-1.49672 -3.13731,1.39145 0.30932,2.46794 0.0961,2.57949 -5.59886,2.92885 -3.91164,0.23996 -6.20392,0.86976 -6.75595,1.8562 -0.45955,0.82115 -2.15176,1.7821 -3.76048,2.13543 -1.60872,0.35334 -3.46114,1.2885 -4.11649,2.07815 -0.65535,0.78965 -2.82394,1.45003 -4.81909,1.46752 -1.99516,0.0175 -4.50107,0.6925 -5.56869,1.5 -2.16981,1.64117 -9.11621,1.99346 -10.03373,0.50888 -1.07092,-1.73278 1.90863,-5.06322 5.39158,-6.02653 1.8792,-0.51975 4.91573,-2.3979 6.74785,-4.17365 3.23191,-3.1325 3.37385,-3.17076 4.76595,-1.28458 1.09334,1.48138 1.71573,1.66731 2.61503,0.78121 1.38312,-1.36282 0.45239,-3.33713 -1.57318,-3.33713 -0.84214,0 -1.17788,-0.60386 -0.834,-1.5 0.31659,-0.825 1.38746,-1.5 2.37973,-1.5 0.99226,0 2.99146,-1.41108 4.44265,-3.13573 l 2.63854,-3.13572 -3.29964,-2.82364 c -1.81481,-1.55299 -3.63715,-2.84192 -4.04965,-2.86427 -1.10854,-0.0601 -0.91042,1.39894 0.36287,2.67223 1.57858,1.57858 0.54551,2.7574 -4.49135,5.12501 -2.4222,1.13856 -5.24043,3.10559 -6.26275,4.37117 -1.02233,1.26557 -3.06214,3.07429 -4.53293,4.01936 -1.47078,0.94507 -2.94941,2.58556 -3.28583,3.64553 -0.85783,2.70277 -4.68324,3.38199 -8.96697,1.59213 -3.48961,-1.45805 -3.76933,-1.41814 -6.92399,0.98804 -2.59043,1.97582 -3.54665,2.24829 -4.5099,1.28504 -1.42475,-1.42475 -3.09781,0.4908 -3.12384,3.57659 -0.018,2.13824 -1.86421,5.8917 -3.38302,6.87801 -0.58757,0.38157 -4.0077,0.98024 -7.6003,1.33039 -3.59259,0.35015 -7.20699,0.81277 -8.03199,1.02805 -0.825,0.21527 -4.51229,-0.66862 -8.19399,-1.96421 z M 406,578.10699 c 0,-0.49116 -0.675,-1.15203 -1.5,-1.46862 -0.91371,-0.35062 -1.5,-0.002 -1.5,0.89301 0,0.80774 0.675,1.46862 1.5,1.46862 0.825,0 1.5,-0.40186 1.5,-0.89301 z m 52,-2.66601 C 458,575.19844 457.55,575 457,575 c -0.55,0 -1,0.47656 -1,1.05902 0,0.58246 0.45,0.7809 1,0.44098 0.55,-0.33992 1,-0.81648 1,-1.05902 z M 409,569 c 0,-0.55 -0.70156,-1 -1.55902,-1 -0.85746,0 -1.2809,0.45 -0.94098,1 0.33992,0.55 1.04148,1 1.55902,1 0.51754,0 0.94098,-0.45 0.94098,-1 z m -43,-2 c 0,-1.1 -0.3375,-2.00614 -0.75,-2.01365 -0.4125,-0.008 -1.7625,-0.285 -3,-0.61664 -1.79596,-0.4813 -2.25,-0.19064 -2.25,1.44033 0,1.86386 1.38775,2.76194 4.75,3.07396 0.6875,0.0638 1.25,-0.784 1.25,-1.884 z m 11.77749,0.4433 c 1.22238,-0.85619 2.22251,-1.98119 2.22251,-2.5 0,-1.48876 -3.32993,-1.10094 -5.87934,0.68474 -1.82119,1.27561 -2.03171,1.81348 -0.97251,2.48469 1.82632,1.15731 2.07203,1.12178 4.62934,-0.66943 z m 19.05717,-3.38696 c 0.51461,-3.51664 -1.2874,-4.64494 -4.28331,-2.68194 -3.14596,2.06131 -3.23491,3.41637 -0.30135,4.59088 3.08571,1.23542 4.19194,0.77481 4.58466,-1.90894 z M 382.81895,550.4214 c 0.81092,-0.25303 1.07846,-1.16926 0.6946,-2.3787 -0.34339,-1.08194 -0.10773,-2.93246 0.52369,-4.11229 1.60706,-3.00281 -0.29616,-4.88788 -2.76361,-2.73727 -0.9755,0.85024 -2.43799,1.75106 -3.24998,2.00182 -0.98434,0.30399 -1.48422,1.83237 -1.5,4.58623 -0.0249,4.34539 0.34003,4.49843 6.2953,2.64021 z M 370.5,548 c -0.33992,-0.55 -1.15398,-0.99311 -1.80902,-0.98469 -0.71561,0.009 -0.59227,0.40223 0.30902,0.98469 1.92112,1.24153 2.2673,1.24153 1.5,0 z M 348,522 c 0,-0.55 -0.9,-1 -2,-1 -1.1,0 -2,0.45 -2,1 0,0.55 0.9,1 2,1 1.1,0 2,-0.45 2,-1 z m -8.5,53 c -0.33992,-0.55 0.33508,-1 1.5,-1 1.16492,0 1.83992,0.45 1.5,1 -0.33992,0.55 -1.01492,1 -1.5,1 -0.48508,0 -1.16008,-0.45 -1.5,-1 z m -40,-13.79808 c -6.44133,-1.38471 -14.1703,-9.1587 -18.11087,-18.21635 -0.61098,-1.40437 -2.41098,-3.72974 -4,-5.16749 -1.58902,-1.43774 -4.31164,-3.89748 -6.05027,-5.46608 -1.99071,-1.79603 -3.38697,-4.19262 -3.77107,-6.47279 -0.58216,-3.45591 -0.46205,-3.65036 2.63796,-4.27036 2.42125,-0.48425 3.9434,-0.13536 5.98058,1.37079 2.5886,1.91383 5.81367,2.70865 5.81367,1.43277 0,-0.32318 -2.01512,-2.46068 -4.47805,-4.75 -4.01697,-3.73383 -4.50605,-4.67723 -4.75,-9.16241 -0.24696,-4.54048 -0.0735,-5 1.88769,-5 1.18781,0 2.50031,-0.3375 2.91667,-0.75 1.10902,-1.09873 4.18657,-0.91503 6.24905,0.37301 1.38606,0.86561 2.51759,0.751 4.93677,-0.5 3.57892,-1.85073 5.52187,-2.01974 8.00144,-0.69601 0.95504,0.50985 2.53068,1.17332 3.50144,1.47438 0.97075,0.30105 2.18671,1.65654 2.70213,3.01219 0.51542,1.35566 1.84191,2.94905 2.94775,3.54088 1.10919,0.59362 1.772,1.69792 1.47837,2.46311 -0.29274,0.76288 0.39902,3.43132 1.53724,5.92988 1.13823,2.49856 2.0695,5.01752 2.0695,5.5977 0,1.59231 -3.83449,1.2657 -6.98424,-0.5949 -1.79682,-1.06141 -3.45668,-1.36323 -4.65429,-0.84632 -1.02381,0.4419 -2.6758,0.70146 -3.6711,0.57681 -2.25408,-0.28232 -4.69037,1.65372 -4.69037,3.72726 0,0.85971 -0.99474,2.62196 -2.21054,3.91612 l -2.21054,2.35301 2.21054,0.57807 c 1.2158,0.31794 2.21743,1.31309 2.22585,2.21144 0.008,0.89835 0.42413,2.27943 0.92379,3.06907 0.74979,1.18492 1.18172,1.20892 2.47285,0.13737 1.29949,-1.07848 1.66522,-1.03554 2.1599,0.25357 0.32753,0.85353 0.16376,2.32339 -0.36394,3.26634 -0.95741,1.71078 0.75558,7.00523 4.44104,13.72625 1.7546,3.19981 1.64187,3.48264 -1.14895,2.88269 z m 120.16667,-7.86859 C 419.3,552.96667 419,551.57917 419,550.25 c 0,-3.2881 2.40871,-2.36691 2.81642,1.07712 0.30013,2.53523 -0.69347,3.46249 -2.14975,2.00621 z m 75.47635,-3.13574 c -0.69821,-1.26632 -1.10884,-3.06632 -0.91251,-4 0.2976,-1.41521 0.56815,-1.31461 1.62647,0.60482 0.69821,1.26632 1.10884,3.06632 0.91251,4 -0.2976,1.41521 -0.56815,1.31461 -1.62647,-0.60482 z m -188.81647,-0.7508 c -6.02719,-2.64007 -5.15086,-5.40183 1.72345,-5.43148 3.39339,-0.0146 3.55,0.13909 3.55,3.48469 0,3.82233 -0.53814,4.02099 -5.27345,1.94679 z m 15.94428,-5.05096 c 0.33229,-0.33229 1.19479,-0.36781 1.91667,-0.0789 0.79773,0.31922 0.56078,0.55618 -0.60417,0.60416 -1.05416,0.0434 -1.64479,-0.19293 -1.3125,-0.52522 z m 132.58995,-8.30975 c -1.29843,-1.05266 -2.02518,-2.25075 -1.61501,-2.66244 1.13045,-1.13461 5.75423,1.32016 5.75423,3.05492 0,2.03897 -1.29107,1.91655 -4.13922,-0.39248 z m -65.30463,-4.99523 c -0.93499,-1.51285 3.40503,-3.52967 4.73454,-2.20016 1.25803,1.25803 0.97257,1.62654 -1.95653,2.52576 -1.19122,0.3657 -2.44132,0.21918 -2.77801,-0.3256 z m 10.90273,-1.15738 c -0.61727,-0.99876 2.13516,-3.83145 3.79112,-3.90167 1.17547,-0.0498 0.87813,2.44007 -0.45,3.7682 -1.48228,1.48228 -2.48281,1.52225 -3.34112,0.13347 z m -6.98183,-5.00579 c -0.46228,-1.45649 -1.15094,-1.86403 -2.31739,-1.37141 -0.91281,0.38551 -2.67216,0.92051 -3.90966,1.1889 -2.95863,0.64167 -3.05255,-2.45517 -0.18502,-6.10066 C 389.44655,515.61685 388.90175,514 385.5,514 c -5.78356,0 -2.2026,-4.82782 4.21992,-5.68926 3.72444,-0.49955 3.8733,-0.40875 3.82762,2.33475 -0.0469,2.81765 0.0235,2.85248 5.45246,2.6977 12.36773,-0.35261 18.43602,-1.59344 25.32942,-5.17931 3.75618,-1.95391 7.35618,-4.28734 8,-5.18539 C 433.56594,501.2537 444.47751,494 445.83557,494 c 0.4382,0 4.07598,-2.95348 8.08396,-6.56329 4.00798,-3.6098 7.54821,-6.3023 7.86718,-5.98333 0.31898,0.31897 0.0475,1.11245 -0.60338,1.76329 C 460.5325,483.8675 460,485.3799 460,486.57756 c 0,2.61088 -0.85684,3.35771 -8,6.97284 -7.52839,3.81009 -15,8.60896 -15,9.63419 0,0.46627 -1.53994,1.58211 -3.42209,2.47965 -1.88214,0.89753 -3.63153,2.43278 -3.88751,3.41167 -0.29216,1.11722 -2.36288,2.34328 -5.56228,3.2934 -7.31029,2.17092 -17.81377,7.36911 -18.49918,9.15528 -0.39108,1.01913 -1.34701,1.33329 -2.88351,0.94765 -1.6545,-0.41525 -2.97031,0.13823 -4.69628,1.97544 -2.90611,3.09342 -3.71566,3.17841 -4.5721,0.48 z M 399,517 c 0,-0.55 -0.675,-1 -1.5,-1 -0.825,0 -1.5,0.45 -1.5,1 0,0.55 0.675,1 1.5,1 0.825,0 1.5,-0.45 1.5,-1 z m 26,6.12244 c 0,-1.03265 0.7237,-2.47816 1.60821,-3.21225 1.36567,-1.1334 1.81556,-1.05113 2.98306,0.54551 1.01697,1.39079 1.08708,2.22694 0.26934,3.21226 C 428.18698,525.68456 425,525.32688 425,523.12244 z m 28,-3.71877 c -4.45816,-2.49698 -1.71331,-5.86566 3.39376,-4.16505 4.60029,1.53184 5.42548,2.6604 3.16511,4.3287 -2.31335,1.7074 -3.26046,1.68377 -6.55887,-0.16365 z M 314.63837,492.5 c -0.61456,-1.60154 0.22806,-1.87222 2.77984,-0.89301 2.18818,0.83968 1.98616,2.39301 -0.31122,2.39301 -1.04116,0 -2.15203,-0.675 -2.46862,-1.5 z m 155.88941,-22.39549 c 1.08472,-1.04253 3.09722,-2.20463 4.47222,-2.58245 2.41992,-0.66495 2.40391,-0.60539 -0.5,1.85953 -3.60917,3.06356 -7.06131,3.69183 -3.97222,0.72292 z M 389,468.05769 c 0,-0.51828 2.24954,-2.20578 4.99898,-3.75 3.55128,-1.99459 4.99928,-3.42383 5,-4.93525 0.002,-4.50158 5.15642,-5.71018 6.26548,-1.46916 0.41428,1.58421 -0.58929,3.01969 -4.25927,6.09238 -2.85601,2.39118 -5.40931,3.78649 -6.30207,3.44391 -0.82545,-0.31675 -1.79789,-0.0952 -2.16099,0.49226 C 391.72687,469.25095 389,469.34784 389,468.05769 z m 124,-16.08907 c 0,-1.28894 2.84907,-2.45288 3.76417,-1.53779 0.37285,0.37286 0.0159,1.09656 -0.79313,1.60823 C 514.03529,453.26327 513,453.23872 513,451.96862 z m -97,-1.76607 c 0,-1.35656 8.05016,-7.48649 8.81628,-6.7133 0.37605,0.37951 -0.66628,1.79693 -2.31628,3.14982 -3.95107,3.23962 -6.5,4.63701 -6.5,3.56348 z m 80,-1.58011 c 0,-1.85508 1.30153,-2.82016 9.5,-7.04418 3.85,-1.9836 8.0125,-4.33007 9.25,-5.21437 1.2375,-0.88431 2.25,-1.40028 2.25,-1.1466 0,0.25368 -3.61762,3.06595 -8.03916,6.24948 -4.42154,3.18353 -7.80288,6.02452 -7.51409,6.31332 0.28879,0.28879 1.97613,0.48381 3.74964,0.43339 2.33766,-0.0665 2.82287,0.1624 1.76409,0.83211 C 504.5644,450.56116 496,450.23052 496,448.62244 z m 24.23485,-1.82699 c 0.22084,-0.66251 1.94584,-1.80012 3.83333,-2.52804 l 3.43182,-1.32348 -2.80576,2.52804 c -2.97913,2.68424 -5.12529,3.32118 -4.45939,1.32348 z M 533,430.96862 C 533,430.43588 533.675,430 534.5,430 c 1.92067,0 1.92067,0.6246 0,1.36163 -0.825,0.31658 -1.5,0.13972 -1.5,-0.39301 z M 525.5,416 c 0.33992,-0.55 1.06803,-1 1.61803,-1 0.55,0 0.72189,0.45 0.38197,1 -0.33992,0.55 -1.06803,1 -1.61803,1 -0.55,0 -0.72189,-0.45 -0.38197,-1 z m 114.09656,-80.84377 c -0.34605,-0.55992 -0.1419,-1.31919 0.45366,-1.68727 1.53748,-0.95021 2.52947,0.35135 1.24598,1.63484 -0.71818,0.71818 -1.27752,0.73543 -1.69964,0.0524 z M 589,328.34612 c 0,-1.77017 2.67071,-4.68794 3.32378,-3.63126 0.34598,0.55982 -0.26033,1.82273 -1.34736,2.80648 -1.08703,0.98375 -1.97642,1.3549 -1.97642,0.82478 z m 35,-0.73913 c 0,-0.21616 0.69837,-0.661 1.55194,-0.98855 0.88992,-0.34149 1.29132,-0.17385 0.94098,0.39301 C 625.90566,327.96166 624,328.4169 624,327.60699 z m -15.5,-11.56941 c 1.1,-1.23939 3.35,-3.18159 5,-4.316 l 3,-2.06257 -3,3.25655 c -1.65,1.7911 -3.9,3.73331 -5,4.31601 -2,1.05945 -2,1.05945 0,-1.19399 z"
       style="fill:#0d0d0d" />
  </g>
</svg>
