<?xml version="1.0" encoding="UTF-8" standalone="no"?>
<!-- Created with Inkscape (http://www.inkscape.org/) -->

<svg
   xmlns:dc="http://purl.org/dc/elements/1.1/"
   xmlns:cc="http://creativecommons.org/ns#"
   xmlns:rdf="http://www.w3.org/1999/02/22-rdf-syntax-ns#"
   xmlns:svg="http://www.w3.org/2000/svg"
   xmlns="http://www.w3.org/2000/svg"
   xmlns:xlink="http://www.w3.org/1999/xlink"
   xmlns:sodipodi="http://sodipodi.sourceforge.net/DTD/sodipodi-0.dtd"
   xmlns:inkscape="http://www.inkscape.org/namespaces/inkscape"
   id="svg2"
   version="1.1"
   inkscape:version="0.48.4 r9939"
   width="753"
   height="759"
   sodipodi:docname="hantologie-_0006_petit1.svg">
  <metadata
     id="metadata8">
    <rdf:RDF>
      <cc:Work
         rdf:about="">
        <dc:format>image/svg+xml</dc:format>
        <dc:type
           rdf:resource="http://purl.org/dc/dcmitype/StillImage" />
        <dc:title />
      </cc:Work>
    </rdf:RDF>
  </metadata>
  <defs
     id="defs6" />
  <sodipodi:namedview
     pagecolor="#ffffff"
     bordercolor="#666666"
     borderopacity="1"
     objecttolerance="10"
     gridtolerance="10"
     guidetolerance="10"
     inkscape:pageopacity="0"
     inkscape:pageshadow="2"
     inkscape:window-width="640"
     inkscape:window-height="480"
     id="namedview4"
     showgrid="false"
     inkscape:zoom="0.87945824"
     inkscape:cx="271.23756"
     inkscape:cy="398.97356"
     inkscape:current-layer="g3006" />
  <g
     inkscape:groupmode="layer"
     id="layer1"
     inkscape:label="XX_hantologie-_0006_petit1_LEVEL"
     style="display:none">
    <image
       width="753"
       height="759"
       xlink:href="../px/hantologie-_0006_petit1_LEVEL.png"
       id="image10"
       x="0"
       y="0" />
  </g>
  <g
     inkscape:label="hantologie-_0006_petit1_TRACE-01"
     id="g3006"
     inkscape:groupmode="layer"
     style="display:inline">
    <path
       inkscape:connector-curvature="0"
       id="path3024"
       d="m 387.50286,531.00463 c -0.25604,-0.41429 -0.72848,-4.07231 -1.04986,-8.12894 -0.67096,-8.4692 -3.07337,-17.21303 -8.58091,-31.23115 -2.12965,-5.4205 -3.87758,-10.5955 -3.8843,-11.5 C 373.9683,477.51889 367.7481,464.12381 363.0081,456.5 360.61442,452.65 354.63937,441.625 349.73022,432 335.82291,404.73301 334.29161,402.20917 330.01828,399.51154 324.97772,396.32958 321.3512,395.46364 319.5,397 c -0.86306,0.71628 -2.55088,0.95306 -4.07206,0.57127 -1.42891,-0.35863 -3.50416,-0.36447 -4.61166,-0.013 -2.09981,0.66645 -6.10738,8.56724 -7.72345,15.2265 -0.49588,2.04335 -1.80806,7.31519 -2.91595,11.71519 -1.77802,7.06139 -3.57243,17.7566 -5.70441,34 -1.03456,7.88224 -3.4967,16.70973 -5.64269,20.23073 -3.37591,5.53896 -12.08427,6.63467 -24.50026,3.08268 -11.21688,-3.20895 -13.61488,-7.09612 -13.45043,-21.80324 0.0907,-8.11113 0.68109,-11.32114 4.01333,-21.82046 3.25325,-10.25046 3.82185,-13.26234 3.39818,-18 -0.32772,-3.66463 0.30072,-10.1387 1.76569,-18.18971 1.25098,-6.875 2.59123,-16.775 2.97832,-22 0.3871,-5.225 1.18015,-12.65 1.76235,-16.5 0.58219,-3.85 1.57217,-12.175 2.19995,-18.5 0.84257,-8.48901 2.28903,-15.12776 5.52452,-25.35566 4.30981,-13.624 4.35791,-13.92983 2.87685,-18.29222 -1.81329,-5.34091 -1.44145,-6.70105 4.0099,-14.66778 2.32745,-3.40139 4.79118,-8.43434 5.47496,-11.18434 4.37311,-17.58763 26.30261,-40.21911 50.32693,-51.93794 4.24053,-2.06849 8.20227,-4.35397 8.80385,-5.07883 1.70773,-2.0577 8.10752,-17.56798 8.94475,-21.67815 0.91228,-4.47866 7.52507,-16.2411 13.69107,-24.35284 2.48846,-3.27373 4.95298,-7.07724 5.47671,-8.45224 1.10898,-2.9115 11.61963,-10.91334 16.80539,-12.79408 12.38169,-4.4905 41.97716,-8.07299 49.71995,-6.01852 3.50442,0.92987 5.02358,1.04157 10.69999,0.78676 1.01847,-0.0457 3.90482,1.51639 6.4141,3.47136 2.50929,1.95496 5.16739,3.55448 5.90689,3.55448 1.66016,0 9.53109,5.61528 10.63569,7.58772 0.44465,0.79399 0.96981,3.79907 1.16701,6.67795 l 0.35855,5.23433 10.83299,0.59545 c 11.80423,0.64884 21.52713,3.53027 23.33955,6.9168 0.88639,1.65624 -0.15166,2.42548 -9.25409,6.85765 -5.63886,2.74568 -12.07846,5.51849 -14.31023,6.16181 -7.01732,2.02278 -8.47813,3.75927 -9.03083,10.73505 -0.36648,4.62553 -0.0869,6.79893 1.10965,8.62504 1.48513,2.26659 1.47055,2.51351 -0.2037,3.45047 -1.70764,0.95565 -1.68432,1.17012 0.43967,4.04296 1.55593,2.10451 2.24297,4.43678 2.24297,7.61412 0,2.65771 0.86842,6.28257 2.06887,8.63565 1.88723,3.69927 1.93103,4.20763 0.49891,5.79011 -1.44184,1.59321 -1.19291,2.46275 3.05029,10.65484 2.54115,4.90603 5.44058,10.07791 6.44318,11.49308 1.0026,1.41517 2.11423,4.79017 2.47028,7.5 0.89908,6.8427 -1.05926,23.24764 -3.03592,25.43182 -0.86682,0.95783 -1.92528,3.9508 -2.35213,6.65105 -0.42686,2.70026 -1.98376,6.68679 -3.45979,8.85896 C 483.20766,314.687 482,316.83647 482,317.29144 c 0,0.45497 -1.82497,4.54453 -4.05548,9.08792 C 473.702,335.0211 469.89012,340 467.5165,340 c -0.77142,0 -4.46571,2.5875 -8.20954,5.75 -9.7291,8.2184 -12.87369,10.25 -15.86534,10.25 -1.45165,0 -4.05737,0.63811 -5.79049,1.41803 -10.18408,4.58292 -13.88486,5.78684 -20.64346,6.71561 -11.83234,1.62603 -15.9027,2.93675 -20.15661,6.4908 -4.45714,3.72383 -10.70103,5.92559 -12.2921,4.33452 -0.55068,-0.55068 -1.01423,-2.00423 -1.0301,-3.2301 -0.0322,-2.48446 1.05675,-2.42148 -16.66007,-0.96351 -10.12853,0.83351 -12.28375,1.76753 -13.28516,5.75748 -0.33693,1.34244 -1.92825,3.12114 -3.53627,3.95268 -2.56495,1.32639 -2.85726,1.92107 -2.38247,4.84686 0.36074,2.22302 -0.16001,4.87422 -1.56185,7.95144 -1.15667,2.53906 -2.10304,5.52339 -2.10304,6.63187 0,2.26644 21.82262,46.47065 28.73959,58.21531 3.1606,5.36653 5.66193,8.32475 8.45551,10 2.18194,1.30846 5.28969,3.43911 6.90611,4.73479 2.31795,1.85802 3.23751,2.108 4.35196,1.18308 1.13311,-0.94039 1.76466,-0.61468 3.18808,1.64422 0.97627,1.54931 4.49388,5.77056 7.8169,9.38056 C 410.36556,492.56759 414,500.44099 414,507.9008 c 0,7.67577 -3.98628,9.20004 -5.48984,2.0992 -0.86109,-4.06666 -2.19271,-6 -4.1326,-6 -0.83441,0 -1.38035,1.08428 -1.38463,2.75 -0.015,5.83883 -2.889,21.57067 -4.15843,22.76273 -1.52481,1.43188 -10.62801,2.63039 -11.33164,1.4919 z M 395,515.44098 C 395,512.16011 394.60816,511 393.5,511 c -1.58131,0 -1.98568,3.58601 -0.87266,7.73875 0.95054,3.54648 2.37266,1.56986 2.37266,-3.29777 z m 51.71727,-15.2009 C 445.1831,498.54484 443,492.9982 443,490.79556 c 0,-0.39471 0.91822,-1.5731 2.04048,-2.61865 4.4434,-4.13965 3.35072,-14.06513 -2.30976,-20.98115 -1.7769,-2.17103 -3.72434,-4.78211 -4.32764,-5.80242 -1.0564,-1.78656 -1.29977,-1.79115 -6.5879,-0.12422 -5.53246,1.74396 -8.81518,2.1875 -8.81518,1.19104 0,-0.29691 0.86243,-2.23034 1.91651,-4.29651 1.05408,-2.06617 2.21012,-5.32175 2.56898,-7.23462 0.78908,-4.20614 0.54296,-4.53761 -21.60907,-29.10319 -19.60803,-21.74442 -34.70864,-36.40056 -42.10597,-40.86666 -3.15126,-1.90255 -5.73876,-4.02168 -5.75,-4.70918 -0.0112,-0.6875 0.15484,-1.25 0.36908,-1.25 0.21424,0 4.05066,-0.6945 8.52537,-1.54334 8.68706,-1.64791 9.73686,-1.46831 11.05038,1.89048 1.30252,3.33066 32.39072,37.24313 51.37207,56.03909 16.48946,16.3284 22.07538,20.53844 27.32137,20.59181 1.45292,0.0148 3.90505,2.21632 7.5,6.73356 7.6574,9.62191 7.76662,9.89046 7.80584,19.19201 L 472,486.30722 468,490 c -2.2,2.03103 -4.01001,4.3244 -4.02224,5.09639 -0.0122,0.77199 -0.86213,2.49627 -1.88867,3.83175 -1.5093,1.96353 -2.98842,2.50929 -7.73021,2.85228 -4.89383,0.35399 -6.15785,0.0992 -7.64161,-1.54034 z"
       style="fill:#d1d1d1"
       sodipodi:nodetypes="csssssssscssssssssssssssssssssssscsssscssssscsssssssssssssssssssscssssssssssssssssscssssssssssssssscsssscsscscsss" />
    <path
       inkscape:connector-curvature="0"
       id="path3022"
       d="m 388.41089,528.85582 c -0.30244,-0.48936 -0.91588,-4.36961 -1.3632,-8.62278 -0.46514,-4.42252 -2.38748,-12.2281 -4.49041,-18.23304 -2.0224,-5.775 -5.44998,-15.63947 -7.61685,-21.92105 -2.42712,-7.03603 -6.52548,-15.86671 -10.6744,-23 -3.70406,-6.36842 -11.69416,-21.23692 -17.75579,-33.04111 -9.94238,-19.36144 -11.49297,-21.81877 -15.8417,-25.10555 -13.07752,-9.884 -22.77837,-6.34326 -28.00617,10.22203 -3.36028,10.6477 -7.16648,28.66164 -8.63036,40.84568 -0.62777,5.225 -1.53838,11.075 -2.02357,13 -0.48519,1.925 -1.39897,5.56577 -2.03063,8.0906 -1.75079,6.99814 -4.50379,9.74028 -11.16237,11.11834 -4.8727,1.00846 -6.15808,0.94136 -9,-0.46977 -1.82349,-0.90543 -4.95729,-1.90398 -6.96399,-2.21899 -2.00671,-0.31501 -4.80371,-1.48138 -6.21556,-2.59195 -6.58328,-5.17841 -6.1707,-22.7383 1.02684,-43.70274 1.02847,-2.99565 1.70681,-8.75221 1.85306,-15.72549 0.12688,-6.05 1.01334,-14.375 1.9699,-18.5 0.95657,-4.125 2.0877,-12 2.51362,-17.5 0.42592,-5.5 1.23926,-13.15 1.80742,-17 0.56816,-3.85 1.57484,-12.625 2.23708,-19.5 0.94409,-9.80102 2.13911,-15.37923 5.53459,-25.83482 3.8692,-11.91433 4.26712,-14.01363 3.73545,-19.70717 -0.57305,-6.13667 -0.4447,-6.6236 3.47028,-13.16519 2.23594,-3.73605 4.5783,-8.74895 5.20526,-11.13978 4.5158,-17.22055 24.72634,-37.93572 48.86149,-50.08151 4.20702,-2.11714 8.4508,-4.73793 9.43062,-5.82399 2.06652,-2.29055 8.29836,-16.66967 10.08236,-23.26366 1.42384,-5.26278 9.35992,-18.97614 14.77168,-25.52511 2.06682,-2.50115 4.03335,-5.41553 4.37006,-6.47642 0.91612,-2.88643 11.47296,-10.48878 17.07661,-12.29746 13.54816,-4.37292 40.98437,-7.44593 48.2763,-5.40722 2.00282,0.55996 5.61154,0.96859 8.01939,0.90807 3.58463,-0.0901 5.12564,0.50269 8.50456,3.27146 2.26967,1.85982 5.25376,3.66438 6.63132,4.01012 1.37756,0.34575 4.19292,2.06954 6.25637,3.83065 3.48483,2.97424 3.76873,3.62887 3.99079,9.20203 l 0.23906,6 11.5,0.62865 c 7.81776,0.42736 13.02341,1.24634 16.25776,2.55776 4.64091,1.88173 7.54733,3.90623 6.67557,4.64995 -2.23746,1.90885 -15.12905,8.18948 -20.69652,10.0831 -11.00913,3.74444 -11.8975,4.58776 -12.69696,12.05299 -0.40308,3.76397 -0.27234,7.15887 0.31819,8.26229 0.57697,1.07808 0.6386,2.46169 0.14521,3.26001 -0.53165,0.86022 -0.24165,2.54882 0.76357,4.44612 1.58909,2.9993 2.6188,8.0704 4.07309,20.05913 0.75729,6.24283 3.98457,13.95252 9.93337,23.72993 3.33242,5.47716 3.48426,6.13889 3.4417,15 -0.0505,10.50936 -1.4844,16.06139 -3.4965,13.53803 -0.67017,-0.84045 -2.44589,-1.81309 -3.94606,-2.16144 -2.32383,-0.53961 -2.82096,-0.26132 -3.35841,1.88006 -0.74376,2.96338 -1.19873,3.05294 -4.33828,0.85391 -2.22672,-1.55966 -2.45071,-1.54816 -3.72251,0.19113 -0.74427,1.01785 -1.35322,2.94146 -1.35322,4.27468 0,3.63339 -9.7774,13.28724 -12.71167,12.55103 -1.72318,-0.43234 -3.30107,0.58132 -7.14409,4.58952 -4.40063,4.58976 -5.24034,5.06323 -7.78833,4.39142 -1.57075,-0.41414 -3.38431,-0.64778 -4.03013,-0.51919 -0.64582,0.12858 -1.46365,-0.67811 -1.81739,-1.79264 -0.92937,-2.9282 -3.7898,-2.48967 -6.35027,0.97356 -1.72536,2.33367 -2.9909,3 -5.69784,3 -2.22096,0 -4.08814,0.71042 -5.16128,1.96376 -1.28074,1.49579 -2.00191,1.69776 -3.02636,0.84754 -1.03238,-0.85679 -1.98837,-0.49977 -4.11351,1.53625 -3.54323,3.39462 -9.15913,3.75436 -9.15913,0.58671 0,-1.13616 0.46583,-2.93616 1.03518,-4 0.58397,-1.09115 0.63469,-1.93426 0.11637,-1.93426 -1.37363,0 -8.1033,7.74289 -9.17143,10.55228 -0.63204,1.6624 -1.70381,2.44772 -3.34056,2.44772 -4.70492,0 -8.87018,2.73794 -13.74247,9.03331 C 374.94955,347.42591 374.17955,349 376,349 c 1.80388,0 1.05566,1.67601 -2.6204,5.86976 -2.17323,2.47926 -4.4952,4.13024 -5.80887,4.13024 -1.20366,0 -3.06198,0.66069 -4.1296,1.4682 -2.84476,2.15167 -3.62664,1.86333 -3.30341,-1.2182 0.3701,-3.52834 -1.36236,-4.54513 -2.12981,-1.25 -0.60428,2.59451 -7.28347,7.05777 -8.59667,5.74458 -0.38918,-0.38918 0.94116,-2.82385 2.9563,-5.41037 4.39139,-5.63654 3.61107,-7.64817 -1.93992,-5.00108 -4.78264,2.28068 -10.42755,6.85409 -10.42759,8.44825 -4e-5,1.83444 -2.77801,2.64777 -4.41194,1.29173 -1.08047,-0.89671 -1.98392,-0.6367 -4.0939,1.17823 l -2.70746,2.32886 3.85663,2.63556 c 2.12115,1.44955 6.33164,3.41267 9.35664,4.36249 7.70107,2.41805 8.75562,3.39147 6.04872,5.58338 -1.72691,1.39837 -2.03216,2.40974 -1.53197,5.07596 0.42245,2.25185 -0.0456,5.03016 -1.44605,8.58305 -1.13889,2.88937 -2.0707,6.0809 -2.0707,7.09229 0,2.052 26.27179,54.90089 30.98272,62.32549 2.06519,3.25481 4.75746,5.72658 8.59873,7.89445 3.0757,1.73582 5.83911,3.79951 6.1409,4.58598 0.35209,0.91752 1.35679,1.22712 2.8037,0.86397 1.62745,-0.40847 2.66405,0.0578 3.72497,1.67561 0.8085,1.23286 4.01032,4.82201 7.11516,7.97588 6.94209,7.05172 10.63382,14.82487 10.63382,22.39012 0,6.89505 -2.09455,7.2167 -4.0737,0.62557 -1.07971,-3.59575 -1.96446,-4.82653 -3.64095,-5.06492 -2.55075,-0.36271 -2.66612,-0.01 -4.28669,13.11547 -1.59921,12.95227 -1.98301,13.64684 -7.47993,13.5365 -2.50687,-0.0503 -4.8054,-0.49187 -5.10784,-0.98123 z M 395.79398,515 c -0.24403,-3.73534 -0.63383,-4.5 -2.29398,-4.5 -1.74617,0 -1.97876,0.61089 -1.83266,4.8134 0.092,2.64736 0.46167,5.57236 0.82142,6.5 1.23652,3.18847 3.63555,-1.7569 3.30522,-6.8134 z m 64.76398,-335.62508 c -0.48658,-1.93872 -0.10834,-2.59537 1.9446,-3.37589 1.40178,-0.53296 2.82195,-1.68112 3.15594,-2.55148 C 466.30012,171.77552 464.2249,167 462.8567,167 c -1.18778,0 -3.9973,5.8365 -3.7567,7.80415 0.11406,0.93272 -0.13493,2.48335 -0.5533,3.44585 -0.96195,2.21305 0.0852,5.09556 1.52726,4.20429 0.59845,-0.36986 0.81625,-1.75558 0.484,-3.07937 z m -12.77833,320.56156 c -0.94621,-0.55148 -2.20002,-2.78396 -2.78625,-4.96106 -0.93916,-3.48778 -0.80346,-4.31329 1.14147,-6.94395 3.81819,-5.16438 2.39498,-15.74883 -2.96241,-22.03147 -1.1725,-1.375 -2.97642,-3.5944 -4.00871,-4.932 l -1.8769,-2.432 -5.6994,1.79268 c -3.13467,0.98598 -5.94316,1.54893 -6.24108,1.251 -0.29792,-0.29792 0.42893,-3.13587 1.61523,-6.30655 1.20639,-3.22434 1.90185,-6.78115 1.57812,-8.07098 -0.31834,-1.26836 -3.39067,-5.34272 -6.8274,-9.05413 -3.43673,-3.71141 -8.93691,-9.89802 -12.22263,-13.74802 -9.99014,-11.70582 -37.60013,-39.38623 -42.16944,-42.27699 -2.3629,-1.49489 -4.50984,-3.27475 -4.77097,-3.95524 -0.65645,-1.71069 2.61256,-3.26273 8.28795,-3.9349 4.31078,-0.51054 4.94139,-0.31971 6.4248,1.94426 2.86329,4.36993 34.3001,38.57803 51.08719,55.59074 15.98841,16.2033 22.53129,21.09573 28.24795,21.12236 1.45318,0.007 3.98648,2.52725 8.25,8.20825 l 6.15285,8.19848 0,8.45513 0,8.45513 L 467,490 c -2.2,2.03103 -4,4.40424 -4,5.27381 0,2.75196 -4.90503,5.72888 -9.38486,5.69578 -2.26333,-0.0167 -4.88931,-0.48162 -5.83551,-1.03311 z M 341.5,364 c 0.33992,-0.55 1.04148,-1 1.55902,-1 0.51754,0 0.94098,0.45 0.94098,1 0,0.55 -0.70156,1 -1.55902,1 -0.85746,0 -1.2809,-0.45 -0.94098,-1 z M 392,342.40437 c 0,-4.6465 3.32294,-9.40437 6.56809,-9.40437 3.09305,0 3.05599,1.23782 -0.23161,7.73565 -3.2846,6.4919 -6.33648,7.29562 -6.33648,1.66872 z"
       style="fill:#b0b0b0" />
    <path
       inkscape:connector-curvature="0"
       id="path3020"
       d="m 392.40988,529.21805 c -2.81579,-0.29243 -3.1931,-0.76702 -4.25,-5.34577 C 387.52194,521.1086 387,517.7288 387,516.36161 c 0,-3.05887 -1.87737,-9.29203 -7.48806,-24.86161 -2.3784,-6.6 -5.05685,-14.29964 -5.95212,-17.11031 -0.89526,-2.81066 -4.57787,-10.23566 -8.18357,-16.5 -3.6057,-6.26433 -10.97298,-19.99391 -16.37173,-30.51018 -5.39876,-10.51627 -10.98558,-20.97335 -12.41516,-23.23795 -2.94704,-4.66841 -15.50959,-13.5369 -20.76967,-14.66227 -1.82583,-0.39063 -3.82515,-1.11604 -4.44294,-1.61202 -0.61779,-0.49597 -1.9055,-0.6016 -2.86158,-0.23472 -1.34625,0.51661 -1.62913,1.48117 -1.25419,4.27652 0.36456,2.71799 -0.10913,4.47161 -1.9179,7.10019 -4.19549,6.09706 -10.1464,29.13489 -12.85913,49.78172 -0.78142,5.94746 -2.10999,12.46309 -2.95236,14.47917 -0.84237,2.01609 -1.53159,4.58007 -1.53159,5.69773 0,1.11767 -0.9,2.93212 -2,4.03212 -1.1,1.1 -2,2.82396 -2,3.83102 0,2.36606 -3.84558,4.3955 -8.61865,4.54835 -3.55752,0.11393 -3.81701,-0.0876 -4.67335,-3.62937 -1.06025,-4.38516 -1.95332,-4.70176 -3.52605,-1.25 -1.29231,2.83633 -2.86094,3.07904 -7.46407,1.1549 -4.39228,-1.836 -5.54809,-3.48664 -6.70202,-9.57129 -1.27381,-6.71675 -0.0189,-15.65705 4.41541,-31.45641 2.82658,-10.07103 3.31441,-13.22928 2.87722,-18.6272 -0.39697,-4.90134 0.24002,-10.35831 2.58995,-22.18755 1.71402,-8.62816 3.38621,-16.39066 3.71597,-17.25 0.34109,-0.88888 0.0752,-1.56245 -0.61683,-1.56245 -0.81676,0 -1.03847,-1.06774 -0.67482,-3.25 0.87116,-5.2279 2.53076,-19.41863 3.60315,-30.80952 0.73748,-7.83352 2.07276,-13.7711 5.17238,-23 3.33016,-9.9153 4.23614,-14.13887 4.4634,-20.80774 0.24907,-7.30896 0.66966,-8.98581 3.32529,-13.25783 1.67208,-2.68982 3.55113,-6.7882 4.17565,-9.10751 4.97869,-18.48944 24.66532,-38.78911 50.05848,-51.61728 3.97394,-2.00757 8.04503,-4.77512 9.04687,-6.15012 2.27503,-3.12242 8.70243,-18.19906 9.95059,-23.34091 1.01881,-4.19706 9.72432,-19.25101 13.94339,-24.11154 1.45495,-1.67615 3.77415,-4.84755 5.15376,-7.04755 1.37962,-2.2 5.09537,-5.77667 8.25722,-7.94815 7.43856,-5.10861 20.4711,-8.14987 40.8426,-9.53098 12.80871,-0.86839 15.22432,-0.79306 17.83334,0.55612 2.29138,1.18492 3.70735,1.32018 5.8825,0.56192 2.52427,-0.87997 3.42277,-0.57254 7.56066,2.58697 2.58277,1.9721 6.76865,4.66417 9.30195,5.9824 7.07035,3.6791 8.21594,5.50506 7.46459,11.89788 L 470.72464,174 l 8.88768,0.0239 c 4.88822,0.0131 10.46268,0.43232 12.38768,0.93156 5.03399,1.30553 12.36165,4.04962 13.32562,4.99022 1.2491,1.21882 -9.8352,7.73488 -17.26445,10.14914 -9.91699,3.2227 -15.06117,6.46644 -15.06117,9.49703 0,1.37913 -0.69249,3.84663 -1.53886,5.48333 -1.37471,2.65841 -1.3776,3.20604 -0.0271,5.13417 0.89069,1.27165 1.26654,3.13543 0.91485,4.53667 -0.33769,1.34546 0.0971,3.76272 1.00122,5.56616 0.87898,1.75332 2.02747,7.5242 2.55222,12.82417 0.74425,7.51698 1.62966,10.97463 4.02586,15.72148 1.68949,3.34685 3.07179,6.75735 3.07179,7.5789 0,0.82154 1.28401,2.97188 2.85335,4.77851 1.56934,1.80664 3.40827,4.34045 4.08651,5.6307 1.30747,2.48728 1.68885,18.32781 0.48804,20.27076 -0.44752,0.72411 -2.43544,0.92416 -5.53525,0.55703 -2.66031,-0.31507 -5.10103,-0.14555 -5.42381,0.37672 -0.32278,0.52228 -2.13084,0.94959 -4.0179,0.94959 -3.22752,0 -3.60593,0.37071 -6.37984,6.25 -1.62184,3.4375 -4.0781,7.57826 -5.45834,9.20169 -2.34493,2.75809 -2.62775,2.84472 -4.31178,1.3207 -2.4097,-2.18076 -4.41669,-0.95703 -7.74507,4.72242 -1.45212,2.47786 -3.01056,4.50519 -3.46321,4.50519 -0.45264,0 -2.09141,-0.99774 -3.64171,-2.21721 -2.04477,-1.60842 -4.20344,-2.22621 -7.86181,-2.25 -4.82783,-0.0314 -5.06584,0.0953 -5.57596,2.96721 -0.76094,4.28406 -3.61572,4.06098 -3.19925,-0.25 0.31715,-3.28295 -1.28295,-4.37812 -3.36397,-2.30244 -0.5225,0.52116 -2.525,1.11366 -4.45,1.31667 -1.925,0.20301 -4.54268,0.93358 -5.81706,1.62351 -1.93413,1.0471 -2.7368,0.97938 -4.8569,-0.40977 -2.99806,-1.9644 -3.09245,-1.89212 -8.70209,6.66472 -2.26817,3.45983 -5.38874,6.9806 -6.93458,7.82395 -2.67368,1.45864 -2.91098,1.41153 -4.86966,-0.96664 l -2.05903,-2.5 -4.90576,5.46883 c -2.75807,3.07463 -5.41186,7.23364 -6.0618,9.5 -1.64303,5.72935 -4.50976,9.53117 -7.1869,9.53117 -2.61994,0 -7.12966,-4.34404 -6.15197,-5.92597 C 362.8595,342.41832 362.14668,342 360.62412,342 c -1.37166,0 -3.65256,-0.44051 -5.06867,-0.97892 -2.00053,-0.7606 -3.52044,-0.51838 -6.8151,1.08608 -7.5607,3.68198 -10.20819,5.16034 -11.99035,6.69543 -1.88843,1.62663 -2.38168,6.68897 -0.75,7.69741 1.70658,1.05473 1.10087,2.5 -1.04775,2.5 -1.12626,0 -3.09036,1.125 -4.36467,2.5 -1.27431,1.375 -3.02626,2.5 -3.89323,2.5 -6.21694,0 2.26381,6.92906 12.33804,10.0806 8.96273,2.80383 8.52712,2.5403 7.08042,4.28347 -0.7402,0.89189 -0.9311,2.9201 -0.51799,5.50355 0.48649,3.04234 0.0968,5.46452 -1.52013,9.44835 l -2.17433,5.35721 1.99591,5.06366 c 3.05016,7.73831 25.58316,52.41054 29.61704,58.71651 2.57445,4.02452 5.05883,6.41681 8.93641,8.60519 2.95387,1.66705 5.64155,3.73691 5.97262,4.59969 0.38318,0.99855 1.34233,1.37507 2.63904,1.03597 1.464,-0.38285 2.93752,0.471 5.23785,3.03514 1.76042,1.96232 4.85543,5.11788 6.87778,7.01236 5.22716,4.89663 8.82299,12.98437 8.82299,19.84465 0,3.43315 -0.37937,5.29722 -1,4.91365 -0.55,-0.33992 -1,-1.46638 -1,-2.50325 0,-1.03687 -1.09669,-3.14782 -2.43708,-4.69099 -2.17086,-2.49927 -2.60374,-2.6419 -3.96271,-1.30576 -0.94888,0.93294 -1.91377,4.929 -2.55235,10.57045 -1.12876,9.972 -2.55793,15.08263 -4.36774,15.61886 -0.64906,0.19231 -2.57068,0.20525 -4.27024,0.0287 z m 2.5201,-6.63368 c 0.69261,-0.83454 1.05073,-3.80652 0.87244,-7.24028 -0.23431,-4.51287 -0.68135,-5.89673 -1.98495,-6.1447 -2.77837,-0.5285 -3.71213,2.7047 -2.61384,9.05061 1.02923,5.94691 1.72063,6.75112 3.72635,4.33437 z M 280.37997,461.5404 c 0.42615,-3.3064 0.30589,-4.62626 -0.36077,-3.9596 -0.55,0.55 -1.28766,3.23182 -1.63923,5.9596 -0.42615,3.3064 -0.30589,4.62627 0.36077,3.9596 0.55,-0.55 1.28766,-3.23182 1.63923,-5.9596 z M 266.96937,450.5 c 0,-0.55 -0.43621,-0.325 -0.96937,0.5 -0.53316,0.825 -0.96937,1.95 -0.96937,2.5 0,0.55 0.43621,0.325 0.96937,-0.5 0.53316,-0.825 0.96937,-1.95 0.96937,-2.5 z m 29.76497,-64.0223 c 3.88501,-2.37556 4.63959,-3.92248 2.69898,-5.53304 -1.19111,-0.98854 -1.63532,-0.66365 -2.50546,1.83245 -1.27371,3.65375 -6.56527,6.42761 -7.95917,4.17223 -0.6893,-1.11531 -1.25003,-1.00561 -3.01799,0.59042 l -2.17141,1.96024 2.86036,0.5729 c 2.84266,0.56935 3.89956,0.19294 10.09469,-3.5952 z M 462,181.02994 c 0,-2.14052 0.83791,-3.58956 3,-5.18806 1.65,-1.2199 3,-2.89187 3,-3.71549 C 468,170.22665 464.07992,166 462.31797,166 c -0.73337,0 -2.6494,2.71672 -4.25785,6.03717 -2.83784,5.85838 -2.87463,6.12471 -1.24228,8.99367 2.26039,3.97279 5.18216,3.97228 5.18216,-9e-4 z M 448.08037,499.25 c -3.23034,-2.64016 -3.82453,-8.4885 -1.20125,-11.82346 3.67863,-4.67661 2.31139,-14.83332 -2.78702,-20.70387 -1.53934,-1.77247 -3.33063,-4.23517 -3.98063,-5.47267 -1.32653,-2.52546 -3.57574,-2.7904 -9.2519,-1.08978 -2.12985,0.63812 -4.15089,0.88179 -4.4912,0.54149 -0.3403,-0.34031 0.1126,-2.44651 1.00645,-4.68046 2.58076,-6.44995 2.06461,-9.93754 -2.16746,-14.64548 -2.03905,-2.26832 -8.40855,-9.46832 -14.15445,-16 C 397.04981,409.4577 372.34028,384.42286 368,381.75607 c -3.93354,-2.41687 -5.25432,-3.94272 -4.20836,-4.86175 1.36503,-1.19938 10.51202,-2.98979 11.2194,-2.19605 0.39298,0.44095 4.0261,4.5994 8.07361,9.241 12.52835,14.36726 32.53206,35.92932 46.78402,50.42863 10.64949,10.83431 14.94382,14.49818 19.63133,16.74921 3.3,1.58472 6.675,2.88419 7.5,2.8877 0.825,0.004 4.2,3.49138 7.5,7.75079 l 6,7.7444 -0.016,8.36499 c -0.0159,8.33896 -0.0271,8.37474 -3.59855,11.5 -1.97041,1.72425 -4.15246,4.59065 -4.84901,6.36976 -0.95175,2.43096 -2.1697,3.48564 -4.90144,4.24442 -5.06018,1.40554 -6.59384,1.28203 -9.05463,-0.72917 z M 338.97019,356.05569 c 0.57231,-1.06937 1.48815,-2.22092 2.03519,-2.55901 1.40866,-0.87061 1.23896,1.85898 -0.20538,3.30332 -1.86698,1.86698 -2.98413,1.41256 -1.82981,-0.74431 z M 346.5,350 c 0.33992,-0.55 1.04148,-1 1.55902,-1 0.51754,0 0.94098,0.45 0.94098,1 0,0.55 -0.70156,1 -1.55902,1 -0.85746,0 -1.2809,-0.45 -0.94098,-1 z"
       style="fill:#8e8e8e" />
    <path
       inkscape:connector-curvature="0"
       id="path3018"
       d="m 394.09068,528.07721 c -0.77512,-0.49069 -1.95899,-0.68124 -2.63082,-0.42343 C 390.03628,528.20006 388,523.028 388,518.86589 c 0,-3.54235 -3.88962,-16.82537 -8.01321,-27.36505 -1.72129,-4.39953 -4.04595,-11.37453 -5.16591,-15.5 -1.11995,-4.12546 -2.58007,-8.17584 -3.2447,-9.00084 -2.13058,-2.64468 -15.02506,-25.97433 -24.04279,-43.5 -10.97,-21.31986 -12.77018,-23.96262 -19.43836,-28.53652 -2.97274,-2.03908 -6.02461,-4.89004 -6.78194,-6.33545 C 320.30695,386.70775 319.15207,386 317.02477,386 c -1.84931,0 -3.46307,-0.78768 -4.42374,-2.15923 -1.25839,-1.7966 -1.76961,-1.94575 -3.04397,-0.88812 -1.82309,1.51303 -4.55706,0.70638 -4.55706,-1.34454 0,-0.80006 1.1726,-2.84822 2.60578,-4.55146 3.55667,-4.22685 2.18502,-5.54718 -7.21527,-6.9453 C 292.21066,368.89475 291,369.13531 291,371.97723 291,374.52675 289.96831,377 288.9048,377 c -0.48467,0 -0.77403,-0.7875 -0.64301,-1.75 0.13102,-0.9625 -0.21179,-1.75 -0.76179,-1.75 -0.55,0 -1,1.41501 -1,3.14446 0,1.72945 -0.77034,3.99592 -1.71186,5.03659 -0.94153,1.04068 -2.35811,3.45068 -3.14796,5.35555 -1.76825,4.26445 -7.32435,24.65362 -9.66385,35.4634 -0.95227,4.4 -2.46827,10.475 -3.36888,13.5 -4.88512,16.40824 -5.78518,21.05141 -4.68983,24.19353 1.68528,4.8344 1.40674,15.74477 -0.41986,16.4457 -2.82769,1.08509 -6.44992,-0.64646 -8.16622,-3.90372 -3.45179,-6.55095 -2.06343,-18.97029 4.73109,-42.32116 1.29706,-4.45763 1.64125,-8.20289 1.2866,-14 -0.38903,-6.35914 0.10034,-10.56717 2.49038,-21.41435 1.63601,-7.425 3.68341,-15.68259 4.5498,-18.35021 1.44032,-4.43476 1.43855,-4.79775 -0.0207,-4.2378 -1.32635,0.50897 -1.49444,0.0614 -0.99514,-2.64979 0.33042,-1.79421 1.05552,-10.4622 1.61133,-19.2622 0.95625,-15.14022 1.27936,-16.82825 6.01281,-31.41309 C 278.90882,307.03601 280,302.2546 280,297.16777 c 0,-5.29395 0.53024,-7.45264 2.84608,-11.58691 1.56534,-2.79447 3.12804,-6.23519 3.47266,-7.64603 1.4846,-6.07782 7.89906,-17.93663 13.04065,-24.10905 7.74017,-9.29199 23.53291,-21.13142 36.88565,-27.65226 3.83898,-1.87478 7.7765,-4.66826 9.13908,-6.48374 C 347.94787,216.27388 356,197.68175 356,195.17802 c 0,-2.44102 8.90549,-17.59016 14.15254,-24.07491 2.6661,-3.29499 4.84746,-6.3877 4.84746,-6.87269 0,-1.12373 3.26347,-4.04256 9.05653,-8.10011 5.84339,-4.09281 19.84346,-7.04118 36.2352,-7.63102 6.48545,-0.23338 13.30084,-0.70743 15.14531,-1.05346 2.33668,-0.43836 4.14517,-0.11046 5.96417,1.0814 2.20251,1.44314 3.07173,1.51951 5.56062,0.48858 2.75214,-1.13997 3.26411,-0.96348 7.63237,2.63113 2.57529,2.11918 7.20762,5.20306 10.29407,6.85306 4.89315,2.61585 5.61173,3.3824 5.61173,5.9863 0,3.88507 -3.11347,4.6776 -5.57194,1.41833 -1.52189,-2.01762 -1.94956,-2.13167 -3.4193,-0.9119 -0.92392,0.76679 -2.95562,4.07267 -4.51489,7.3464 l -2.83503,5.95224 2.43313,3.85431 c 2.79305,4.42449 3.41051,4.61405 5.93675,1.82258 1.01128,-1.11745 2.76853,-1.90495 3.90499,-1.75 1.51811,0.207 2.15559,-0.3497 2.4029,-2.0984 0.29836,-2.10973 0.0427,-2.30639 -2.25,-1.73095 -3.44975,0.86583 -3.33548,-0.98219 0.16339,-2.6425 4.15453,-1.97143 25.1566,-0.71796 32.00309,1.91005 2.8892,1.10901 5.49381,2.2571 5.78802,2.55132 1.06111,1.06111 -9.33814,6.81794 -18.40605,10.18925 -5.09438,1.894 -10.17922,4.05232 -11.29964,4.79626 -3.92653,2.60711 -6.21611,11.99842 -4.31879,17.71464 0.70606,2.12723 0.54767,2.34215 -1.3587,1.84362 -2.85219,-0.74586 -2.72271,0.4238 0.4665,4.21396 2.99715,3.56191 2.53677,4.8846 -1.1202,3.21837 -2.14764,-0.97853 -2.50205,-0.89486 -2.48892,0.58756 0.0219,2.47579 1.18673,3.94068 3.47914,4.3755 1.62348,0.30795 2.24005,1.74966 3.31478,7.75091 1.65196,9.22444 0.60058,10.66999 -3.75797,5.16687 C 467.28063,237.82912 465.41975,236 464.91597,236 c -1.44965,0 -1.0655,2.63101 0.58403,4 0.825,0.68469 1.5,2.10772 1.5,3.16228 0,1.05457 0.9,3.68154 2,5.83772 1.1,2.15618 2,5.27139 2,6.9227 0,2.06518 1.35695,4.65287 4.34709,8.28984 4.24927,5.16848 5.05438,5.54784 9.15291,4.31285 1.70408,-0.51349 2.25893,0.19266 3.75,4.77254 2.5563,7.85176 2.33066,11.48038 -0.80265,12.90801 -2.08328,0.94921 -3.08337,0.84957 -5.43888,-0.54186 -2.73254,-1.61415 -2.93943,-1.61067 -3.88537,0.0655 -0.67305,1.19263 -2.20124,1.77043 -4.68248,1.77043 -3.61974,0 -3.71609,0.10282 -5.58007,5.95481 -2.20039,6.90812 -5.36492,10.83727 -8.04359,9.98709 -2.97196,-0.94326 -5.5443,0.43081 -7.72469,4.12628 -2.65126,4.49355 -4.64557,5.20005 -7.39315,2.61907 -1.5932,-1.49659 -3.57677,-2.08119 -7.19912,-2.12175 -2.75,-0.0308 -7.8125,-0.0859 -11.25,-0.1225 -12.89441,-0.13725 -13.25,-0.21368 -13.25,-2.84799 0,-2.2599 -0.10949,-2.3059 -1.81493,-0.76249 -0.99822,0.90337 -3.24822,2.14213 -5,2.75281 -1.75179,0.61068 -3.18507,1.66286 -3.18507,2.33818 0,0.67532 -1.125,2.28474 -2.5,3.57649 -1.78141,1.67354 -2.5,3.39817 -2.5,6 0,2.52377 -0.71474,4.32284 -2.31445,5.82569 C 392.66848,327.66008 391,327.58221 391,324.607 c 0,-1.35322 -0.76039,-2.68862 -1.75,-3.07333 -1.30462,-0.50718 -3.0459,0.77579 -6.84194,5.04109 -4.55692,5.12027 -5.38674,5.64742 -7.89781,5.01718 -1.91576,-0.48083 -4.50376,-0.0151 -8.15806,1.46806 -5.10223,2.07085 -7.5642,4.75173 -3.35219,3.65026 1.1,-0.28766 2,-0.1676 2,0.26679 0,1.50602 -4.9715,1.73123 -6.99102,0.3167 -1.82714,-1.27978 -2.46795,-1.12568 -6.42541,1.54518 -6.71084,4.52909 -8.16722,4.72161 -12.5807,1.66307 -4.52063,-3.1328 -7.36194,-2.9753 -7.84557,0.43489 -0.18849,1.32905 -1.02774,3.46195 -1.86501,4.73978 -1.36999,2.09087 -1.36025,2.57068 0.0974,4.79525 1.57202,2.39921 1.53128,2.51763 -1.38499,4.02568 -3.45344,1.78585 -3.63479,2.32116 -1.35187,3.99046 0.90902,0.6647 1.33246,1.72681 0.94098,2.36025 -1.02873,1.66451 -5.27837,1.41597 -5.95539,-0.3483 -0.70379,-1.83405 -5.99584,-2.07936 -5.39338,-0.25 0.22642,0.6875 1.38892,1.3938 2.58334,1.56955 1.38334,0.20355 2.17167,1.03256 2.17167,2.28373 0,1.18476 1.38885,2.78361 3.5,4.02922 1.925,1.13578 3.5,2.6956 3.5,3.46628 0,0.77067 0.5625,1.3947 1.25,1.38673 0.6875,-0.008 4.19316,0.94317 7.79034,2.11365 l 6.54035,2.12813 1.17363,4.94072 c 1.02582,4.31843 0.92627,5.5683 -0.79034,9.92338 -1.08019,2.74046 -1.96398,5.81 -1.96398,6.8212 0,2.62013 3.53427,10.30999 17.27521,37.58741 6.64947,13.2 12.97092,25.80368 14.04766,28.00818 1.55686,3.1875 3.0718,4.49986 7.39889,6.40952 2.99265,1.32074 6.13881,3.46607 6.99147,4.76739 1.00126,1.52811 2.16272,2.17167 3.27957,1.81719 2.59997,-0.82519 15.82237,13.17568 18.66875,19.7679 3.49807,8.10151 2.76192,13.07745 -1.06959,7.22982 -2.04524,-3.12143 -5.33226,-3.24696 -6.54626,-0.25 -0.50127,1.2375 -1.41045,6.47726 -2.02039,11.6439 -1.42455,12.0671 -2.53078,14.33811 -5.93463,12.18331 z m 1.64458,-6.15618 c 1.70764,-3.34688 1.59649,-10.40081 -0.18722,-11.88116 -0.79858,-0.66276 -2.26108,-1.03939 -3.25,-0.83695 -1.53984,0.31521 -1.76221,1.29636 -1.54852,6.83257 0.13723,3.55548 0.47497,7.06443 0.75052,7.79767 0.70634,1.87951 2.77783,0.94427 4.23522,-1.91213 z M 271.53506,385.93221 c 0.87253,-1.68729 1.40662,-3.59979 1.18687,-4.25 -0.40876,-1.20952 -3.72193,4.3702 -3.72193,6.26813 0,1.85222 0.90702,1.13015 2.53506,-2.01813 z M 321.5,374 c 0.34907,-0.56481 -0.46994,-1 -1.88197,-1 -1.375,0 -2.77811,0.45 -3.11803,1 -0.34907,0.56481 0.46994,1 1.88197,1 1.375,0 2.77811,-0.45 3.11803,-1 z m 28.91111,-49.07673 c 2.71096,-3.22179 3.57526,-8.95563 1.33889,-8.88226 -0.6875,0.0226 -3.18499,1.79116 -5.54997,3.93021 -4.19278,3.79226 -4.25579,3.9408 -2.52776,5.95899 2.40132,2.80454 3.69426,2.61134 6.73884,-1.00694 z M 426,178.10699 c 0,-1.01369 -3.04579,-2.39454 -3.74326,-1.69706 -0.25136,0.25135 -0.16039,0.93695 0.20214,1.52354 0.79781,1.29088 3.54112,1.42531 3.54112,0.17352 z m 28,-21.98455 c 0,-1.30341 -2.58284,-3.20627 -3.33333,-2.45577 C 449.91617,154.41716 451.81903,157 453.12244,157 453.6051,157 454,156.6051 454,156.12244 z M 447.76628,498.25 c -2.73279,-3.09802 -3.10797,-7.6308 -0.80416,-9.71572 1.62125,-1.46721 2.03788,-3.07689 2.03788,-7.87354 0,-6.99454 -2.08403,-11.91709 -7.86704,-18.58223 l -3.8363,-4.42149 -4.67701,1.30948 c -2.57235,0.72021 -4.92143,1.06505 -5.22017,0.76631 -0.29875,-0.29874 0.16416,-2.62657 1.02867,-5.17294 0.86452,-2.54637 1.57185,-5.52758 1.57185,-6.62491 0,-1.09733 -3.7125,-6.14889 -8.25,-11.22569 -4.5375,-5.0768 -11.25103,-12.60076 -14.91896,-16.71991 -10.1068,-11.35012 -34.90525,-36.34094 -38.58104,-38.88032 -4.05202,-2.7993 -4.06869,-3.62799 -0.10078,-5.01121 4.82932,-1.68351 7.24735,-1.32585 8.86916,1.31188 1.69226,2.7523 34.57434,38.79832 47.1222,51.65633 4.59768,4.71132 10.15942,10.70247 12.35942,13.31367 4.00935,4.75872 15.41425,11.62029 19.31457,11.62029 1.66578,0 9.45648,8.74342 12.89999,14.47752 0.66802,1.11236 1.23052,5.53147 1.25,9.82023 0.0326,7.17036 -0.17745,7.99505 -2.61058,10.25 -1.45532,1.34874 -2.99542,2.45225 -3.42245,2.45225 -0.42703,0 -1.29736,1.57845 -1.93406,3.50768 -0.6367,1.92922 -1.99202,3.95422 -3.01181,4.5 -3.044,1.62909 -9.49848,1.1932 -11.21938,-0.75768 z M 273,477.46862 c 0,-3.11376 2.60101,-4.29618 4.74164,-2.15555 1.30773,1.30772 1.36045,1.85899 0.30001,3.13674 C 275.94225,480.97944 273,480.40683 273,477.46862 z m -2.66863,-15.04746 c -1.06314,-2.7705 0.53003,-14.61053 2.21676,-16.47434 1.28933,-1.4247 1.40216,-2.46732 0.58664,-5.42091 -1.32567,-4.80118 0.60831,-15.0364 4.3183,-22.85373 1.79196,-3.77584 2.58114,-6.76869 2.24133,-8.5 -0.28846,-1.4697 0.0105,-5.59718 0.66438,-9.17218 l 1.18885,-6.5 3.35006,0.33056 c 2.44763,0.24151 4.46155,-0.45454 7.47619,-2.58392 5.58879,-3.94764 7.0389,-4.34625 9.51132,-2.6145 2.83973,1.98903 2.67257,4.4614 -0.97538,14.42646 -1.69959,4.64277 -3.94817,12.3546 -4.99684,17.13741 -2.9195,13.31542 -3.078,13.53778 -9.2833,13.02319 -3.94832,-0.32743 -5.53076,-0.0433 -6.54141,1.17444 -0.73324,0.8835 -2.17806,1.60636 -3.21071,1.60636 -2.4226,0 -2.39092,0.30412 0.81943,7.86727 2.50893,5.9107 2.58089,6.45637 1.00359,7.60972 -1.2845,0.93925 -3.70058,8.87809 -3.70058,12.1595 0,1.17609 -4.16723,0.0913 -4.66863,-1.21533 z m 24.29561,-52.53358 0.47357,-4.38758 -2.05028,5.46161 c -2.46404,6.56384 -2.49802,6.91471 -0.47357,4.89026 0.86719,-0.86719 1.78981,-3.55112 2.05028,-5.96429 z m 2.0045,-33.58943 c -1.75509,-1.75509 1.07735,-3.71417 3.3443,-2.31312 0.98107,0.60633 0.80938,1.05958 -0.7092,1.8723 -1.10199,0.58977 -2.28778,0.78814 -2.6351,0.44082 z M 475.07895,250.58333 c -0.0434,-1.05416 0.19293,-1.64479 0.52522,-1.3125 0.33229,0.33229 0.36781,1.19479 0.0789,1.91667 -0.31922,0.79773 -0.55618,0.56078 -0.60416,-0.60417 z"
       style="fill:#6e6e6e" />
    <path
       inkscape:connector-curvature="0"
       id="path3016"
       d="m 394.55008,527.08103 c -0.34826,-0.5635 0.0842,-2.11948 0.9611,-3.45775 2.1726,-3.31581 1.69613,-13.47239 -0.70264,-14.97773 -1.29158,-0.81053 -2.17132,-0.62721 -3.7212,0.77541 -1.74157,1.5761 -1.96027,2.70586 -1.5405,7.95796 0.3426,4.28649 0.20517,5.52165 -0.45852,4.12108 -0.52126,-1.1 -0.97938,-3.26545 -1.01803,-4.8121 -0.0864,-3.45753 -1.94138,-9.62011 -7.58164,-25.1879 -4.99355,-13.7828 -6.52799,-19.12732 -5.72276,-19.93256 1.7929,-1.7929 12.20926,2.53127 12.22641,5.07557 0.01,1.41755 2.55526,2.46784 4.33046,1.78663 1.9163,-0.73535 15.45594,13.36019 17.7455,18.47409 1.06246,2.37307 1.93174,5.47473 1.93174,6.89256 l 0,2.57789 -3.03637,-2.90903 c -4.64929,-4.4543 -6.20475,-2.78874 -7.59931,8.13718 -0.62463,4.89372 -1.5453,10.44206 -2.04594,12.32965 -0.93567,3.52778 -2.64923,4.95975 -3.7683,3.14905 z m 54.12319,-28.55062 c -2.29783,-2.29783 -3.20569,-6.50984 -1.81814,-8.43519 4.79619,-6.65509 3.51277,-18.6838 -2.65831,-24.91491 -0.93325,-0.94232 -2.52531,-2.99012 -3.53791,-4.55066 -1.76727,-2.72356 -2.0636,-2.80953 -7.39003,-2.14404 -5.47848,0.68449 -5.53986,0.66359 -4.83478,-1.64616 0.39277,-1.2867 0.96123,-4.45816 1.26324,-7.04769 0.54082,-4.63727 0.45988,-4.80307 -5.37012,-11 -3.25557,-3.46047 -8.3527,-9.21676 -11.32695,-12.79176 -6.30412,-7.57742 -38.92653,-41.20942 -43.88247,-45.24053 l -3.38221,-2.75105 3.60009,-1.50421 c 4.8217,-2.01463 4.7415,-2.03676 8.14132,2.24582 4.64944,5.85664 31.81663,35.56209 43.74721,47.83455 5.92668,6.09651 10.77579,11.45877 10.77579,11.91611 0,0.45734 0.66334,1.54428 1.47409,2.41542 0.81075,0.87114 2.88237,3.27139 4.60359,5.33389 1.72123,2.0625 3.99785,3.75 5.05916,3.75 1.0613,0 4.14973,1.125 6.86316,2.5 2.71343,1.375 5.54272,2.5 6.28731,2.5 1.89519,0 11.70219,12.48827 12.82284,16.32866 0.50899,1.74424 0.69509,5.87134 0.41357,9.17134 -0.44919,5.26556 -0.92866,6.36722 -3.91699,9 -1.87283,1.65 -3.69292,3.97186 -4.04466,5.15969 -0.89735,3.03039 -2.54787,4.1545 -7.18991,4.89679 -3.05736,0.48889 -4.43131,0.24152 -5.69889,-1.02607 z M 256.28095,471.30603 c -2.79972,-4.2729 -2.2847,-16.09903 1.06192,-24.38449 1.46142,-3.61815 2.65713,-8.18325 2.65713,-10.14467 0,-1.96141 0.89798,-6.47352 1.99551,-10.0269 1.87248,-6.0624 1.89512,-6.66193 0.36719,-9.72474 -1.50736,-3.02158 -1.50348,-3.89942 0.0523,-11.81745 1.92306,-9.78743 2.0996,-10.19858 4.39404,-10.23357 2.33897,-0.0357 7.89835,-8.62356 8.72254,-13.47421 0.3738,-2.2 1.83364,-5.8 3.24409,-8 2.03958,-3.18133 2.17147,-3.70271 0.64439,-2.54745 -4.84262,3.66353 -6.77016,5.92438 -9.6375,11.30408 -1.69411,3.17847 -3.27025,5.58899 -3.50254,5.3567 -0.23229,-0.23228 1.20304,-5.07781 3.18961,-10.76783 1.98658,-5.69003 3.88084,-11.40915 4.20948,-12.70918 l 0.59753,-2.36367 -2.79612,1.83208 -2.79611,1.83208 0.71502,-5.39002 c 0.39325,-2.96452 0.85565,-9.9253 1.02755,-15.46841 0.29796,-9.60799 1.01702,-13.61646 2.43003,-13.54658 0.35365,0.0175 1.53178,0.70366 2.61806,1.52481 1.71873,1.29924 1.80411,1.76674 0.65783,3.60222 -1.44284,2.31036 -1.33592,2.45069 4.11712,5.40344 2.77667,1.50353 3.59063,3.80016 1.75,4.93773 -2.39687,1.48135 -0.89877,3.08658 2.50927,2.68871 3.16642,-0.36966 6.11664,-2.18871 3.54975,-2.18871 -1.76566,0 -1.187,-2.91 0.94098,-4.73203 2.14983,-1.84074 2.67792,-4.26797 0.92857,-4.26797 -0.58928,0 -0.36428,-0.70714 0.5,-1.57143 0.86429,-0.86428 1.57143,-1.98928 1.57143,-2.5 0,-0.51071 0.9,-0.92857 2,-0.92857 2.7067,0 2.51616,-0.98108 -0.75,-3.86179 -2.66117,-2.34711 -2.67421,-2.40688 -0.40355,-1.85023 3.51034,0.86055 5.15355,-0.1829 5.15355,-3.27252 0,-1.52382 0.675,-3.33077 1.5,-4.01546 0.825,-0.68469 1.5,-1.86479 1.5,-2.62244 0,-1.6237 -2.15551,-1.82205 -3.64238,-0.33518 -0.72318,0.72318 -1.43437,0.57006 -2.32245,-0.5 -2.10469,-2.53599 -2.87547,-1.77059 -2.32792,2.31168 0.45168,3.36754 0.23393,3.92806 -1.72504,4.44034 -1.51725,0.39677 -2.04851,1.09045 -1.64348,2.14594 0.71152,1.85417 -1.39951,2.09888 -3.13498,0.36341 -0.92834,-0.92834 -1.50624,-0.77233 -2.58034,0.69659 -1.32706,1.81487 -1.51584,1.76107 -4.58274,-1.30583 -3.66098,-3.66098 -3.64485,-4.09742 0.6664,-18.02355 2.04437,-6.6037 3.07209,-8.5167 4.96134,-9.23499 1.31056,-0.49827 2.64082,-1.70021 2.95614,-2.67096 0.31531,-0.97076 1.65378,-4.58224 2.97437,-8.02553 4.70685,-12.27255 1.71069,-11.05299 -5.34428,2.17535 l -3.24536,6.08517 0.0272,-4 c 0.0149,-2.2 0.67393,-4.85447 1.46443,-5.89882 0.79049,-1.04435 2.18254,-4.19435 3.09344,-7 0.9109,-2.80565 2.49982,-6.03018 3.53094,-7.16563 C 291.15636,270.3001 292,268.2121 292,266.79556 c 0,-4.42972 10.23426,-16.98394 18.74956,-22.99982 1.78725,-1.26266 5.64717,-4.00461 8.57759,-6.09322 3.95907,-2.82177 6.56442,-3.89823 10.14004,-4.18959 5.05951,-0.41228 8.91348,-2.51293 4.61037,-2.51293 -1.95102,0 -2.12335,-0.2399 -1.07756,-1.5 0.68469,-0.825 1.82438,-1.5 2.53265,-1.5 2.89681,0 11.00889,-7.74663 13.17022,-12.5769 C 354.18417,203.17319 357,196.02562 357,194.36207 c 0,-2.41173 9.26361,-17.58121 14.66935,-24.02156 2.38186,-2.83772 4.33065,-5.61022 4.33065,-6.16111 0,-1.32747 5.11627,-5.57719 10.54362,-8.75783 6.44604,-3.77763 28.6005,-6.59753 32.53396,-4.14105 1.40432,0.87702 2.68918,0.84399 5.40754,-0.13898 4.6424,-1.67871 9.13342,-0.65741 13.3589,3.03796 3.71702,3.2507 5.4964,3.24837 5.97553,-0.008 0.50138,-3.4074 2.77275,-2.56633 6.28783,2.32833 3.43549,4.78383 4.88304,5.59492 4.90793,2.75 0.008,-0.9625 0.43095,-2.40711 0.93895,-3.21024 0.80012,-1.26495 1.16583,-1.24108 2.73469,0.17852 0.99608,0.90132 3.94855,2.55493 6.56105,3.6747 3.88244,1.66409 4.75,2.49904 4.75,4.57148 0,3.21573 -2.50275,3.35777 -5.03108,0.28554 l -1.85166,-2.25 -2.37109,2.5 c -1.30409,1.375 -3.42565,4.84809 -4.71457,7.71799 l -2.34349,5.21799 2.40423,4.53201 c 2.46019,4.6375 3.66646,5.37321 5.61501,3.42466 0.60904,-0.60904 2.61154,-1.41303 4.45,-1.78665 2.99202,-0.60803 3.3951,-1.09503 3.84265,-4.64264 l 0.5,-3.96336 11,0.0747 c 9.56442,0.0649 11.71097,0.40429 16.44772,2.60049 l 5.44773,2.52584 -4.26707,3.09105 c -2.34689,1.70008 -7.27337,4.0799 -10.94773,5.28848 -11.38699,3.74546 -15.66335,6.36106 -18.60408,11.37903 -2.10181,3.58647 -2.52694,5.28809 -2.00983,8.04453 0.63592,3.38971 0.56074,3.49592 -2.4745,3.49592 -2.71723,0 -3.06905,0.29693 -2.66589,2.25 0.25545,1.2375 0.7416,4.3875 1.08033,7 0.59415,4.58254 0.52624,4.75 -1.92636,4.75 -3.23438,0 -4.76065,4.41643 -2.17872,6.30439 0.90424,0.66119 1.91967,3.00069 2.25652,5.19889 0.33685,2.1982 1.15815,4.67172 1.82511,5.49672 1.48225,1.83348 3.22129,8.62808 4.09511,16 0.81487,6.87468 2.07487,9.5327 3.82882,8.07705 1.62338,-1.34729 4.87693,1.96529 7.05853,7.1866 1.06724,2.55426 2.19568,3.73635 3.56678,3.73635 1.64,0 1.89125,-0.45576 1.37817,-2.5 -0.38661,-1.5404 -0.20201,-2.5 0.48095,-2.5 0.60963,0 1.10841,0.49152 1.10841,1.09227 0,0.60075 0.9,2.23644 2,3.63486 2.63136,3.34523 2.52292,4.65505 -0.52021,6.28368 -1.93618,1.03622 -2.7936,1.07538 -3.7,0.16898 C 482.13091,283.53091 480.63474,283 479.45499,283 477.23142,283 474,280.17452 474,278.23028 c 0,-2.08376 -2.12909,-2.43591 -3.50923,-0.58042 -1.30226,1.75078 -1.53081,1.66655 -4.25599,-1.56856 C 463.26844,272.5599 461,272.52011 461,275.98947 c 0,1.17939 0.83203,1.98959 2.25,2.19098 2.00896,0.28532 2.28094,0.96232 2.53882,6.31955 0.35459,7.36614 -0.84714,13.57308 -2.81427,14.53573 -0.811,0.39688 -3.17719,1.45114 -5.2582,2.3428 -2.24844,0.9634 -4.62156,3.04137 -5.84877,5.12134 -2.34467,3.97391 -4.00243,4.32582 -7.48253,1.58837 -2.08764,-1.64214 -3.82992,-1.87214 -12.35393,-1.63085 l -9.92353,0.28091 -0.30379,-2.61915 c -0.25595,-2.20665 -0.73941,-2.57342 -3.0697,-2.32881 -1.78999,0.1879 -2.97835,-0.26327 -3.368,-1.27869 -0.51535,-1.34296 -1.05335,-1.22605 -3.7341,0.81145 -1.7226,1.30926 -4.707,3.17481 -6.632,4.14566 -4.81762,2.42971 -7.93017,5.44779 -9.51211,9.22338 -1.20858,2.88448 -1.80253,3.22181 -6.16269,3.5 -4.02979,0.25711 -4.8749,0.65605 -5.1267,2.42011 -0.47281,3.3124 -5.48089,7.44955 -9.64265,7.96574 -2.04158,0.25322 -5.32432,1.13408 -7.29497,1.95747 -1.97065,0.82339 -4.4295,1.22841 -5.46411,0.90004 -2.84529,-0.90306 -9.79677,0.5483 -9.79677,2.04541 0,0.71781 -0.68175,1.56673 -1.51501,1.88648 -0.83325,0.31975 -1.94711,1.71789 -2.47525,3.10698 -1.16167,3.05544 -4.10643,3.29909 -7.85537,0.64997 -3.20671,-2.26596 -8.38691,-3.5027 -11.08482,-2.64641 -2.62833,0.8342 -5.57159,6.59376 -3.89809,7.62804 0.91834,0.56756 0.88469,1.12145 -0.14338,2.3602 -1.01748,1.22598 -1.06252,1.89939 -0.1857,2.77621 1.67106,1.67106 1.42228,3.75762 -0.44802,3.75762 -0.88311,0 -2.94263,-1.125 -4.57673,-2.5 C 317.14282,348.2493 313,347.08848 313,348.58971 c 0,0.32434 1.0125,1.4106 2.25,2.41392 2.58884,2.09893 2.25722,2.74493 -1.82857,3.56208 -2.4655,0.4931 -3.30202,0.0871 -5.25061,-2.54853 -1.79773,-2.43157 -2.06049,-3.44519 -1.17093,-4.51705 0.93218,-1.1232 0.43103,-1.50299 -2.67648,-2.02836 -2.10288,-0.35553 -4.61091,-0.86244 -5.57341,-1.12648 -3.29388,-0.90359 -1.80316,2.25894 1.89638,4.02312 3.6761,1.75301 3.62562,3.07839 -0.14638,3.84274 -1.74435,0.35347 -1.43731,0.92969 2.40208,4.50796 3.06043,2.85229 6.17247,4.59943 10.21094,5.73257 4.15461,1.16572 6.38955,2.44538 7.84792,4.49347 1.12148,1.57498 2.03906,3.07365 2.03906,3.33039 0,0.25674 -2.18524,0.75668 -4.8561,1.11098 -3.44094,0.45646 -5.69943,0.20438 -7.75,-0.86501 -1.59164,-0.83005 -4.64169,-1.51196 -6.77788,-1.51535 -2.13619,-0.003 -5.51119,-0.4357 -7.5,-0.96069 -1.98881,-0.525 -4.87192,-1.21319 -6.40692,-1.52932 -4.17227,-0.85928 -2.30991,-2.40642 2.17292,-1.80515 2.13491,0.28635 4.72232,0.0322 5.74981,-0.56477 1.51924,-0.88268 0.89686,-1.09109 -3.33214,-1.11582 -3.75781,-0.022 -5.45496,-0.48544 -6.11832,-1.67081 -1.21734,-2.17527 -2.53116,-1.21964 -5.10066,3.71005 -2.10634,4.04112 -2.10732,4.07357 -0.10356,3.4376 1.3134,-0.41685 2.06001,-0.18 2.12881,0.67536 0.30897,3.84126 -0.57258,7.8316 -3.15488,14.28058 -2.85001,7.11757 -7.54916,23.7551 -11.02566,39.03681 -1.00098,4.4 -2.76918,11.15 -3.92933,15 -4.23149,14.04233 -5.1374,19.61387 -4.02927,24.78088 1.39965,6.52634 1.30535,8.30409 -0.53825,10.14769 -2.27849,2.27849 -4.14215,1.93819 -6.14762,-1.12254 z m 36.16279,-125.92281 c 1.23754,-0.47489 1.34532,-0.93247 0.46848,-1.98899 C 291.59904,341.81194 290,342.4515 290,344.55902 c 0,1.62501 0.18993,1.68906 2.44374,0.8242 z m 50.2135,-13.44046 c 0.58149,-0.58149 3.48399,-2.33851 6.45,-3.90449 5.00996,-2.64514 5.43511,-3.15572 5.98937,-7.19276 0.32814,-2.39003 0.93879,-5.13301 1.35699,-6.09551 1.20328,-2.76934 -1.74611,-2.17824 -9.19247,1.84231 -6.43774,3.47596 -14.13617,10.59922 -14.22012,13.15769 -0.0226,0.6875 1.08399,1.25 2.45899,1.25 1.375,0 2.5,0.45 2.5,1 0,1.32426 3.3165,1.2835 4.65724,-0.0572 z M 330.74827,307.7448 c -0.59549,-1.78645 -2.1759,-1.88863 -4.28871,-0.27728 -1.65207,1.25996 -1.73264,1.64343 -0.51344,2.4437 1.7365,1.13984 5.35942,-0.4946 4.80215,-2.16642 z M 450.70256,287.75 c 1.90268,-2.51027 1.36414,-10.73645 -0.97057,-14.82548 -2.24749,-3.93626 -3.71898,-4.9865 -3.7473,-2.67452 -0.008,0.6875 -0.42413,1.89606 -0.92379,2.6857 -0.74979,1.18492 -1.18172,1.20892 -2.47285,0.13737 -1.29851,-1.07766 -1.66446,-1.03752 -2.15322,0.23617 -0.86711,2.25966 1.19924,5.45017 4.70344,7.26226 2.61406,1.35179 2.99443,2.01502 2.51897,4.3923 -0.76774,3.83869 1.01282,5.46774 3.04532,2.7862 z M 308.52863,259.90981 c 0.30113,-0.94878 1.20537,-1.9775 2.00944,-2.28604 C 312.21104,256.98178 312.526,255 310.95505,255 309.20097,255 297,267.60582 297,269.4181 c 0,2.03809 10.65239,-6.74752 11.52863,-9.50829 z m 94.26892,4.34856 c 1.12889,-2.6079 1.85054,-4.94361 1.60368,-5.19048 -1.20318,-1.20317 -6.76119,7.54066 -5.79103,9.11041 1.06656,1.72574 2.2047,0.66029 4.18735,-3.91993 z m 47.24483,-21.61599 c -1.3352,-1.3352 -3.57419,0.68812 -2.56622,2.31905 0.51879,0.83942 1.08103,0.82103 2.15525,-0.0705 1.0083,-0.83681 1.13415,-1.52538 0.41097,-2.24856 z m 3.62575,-27.06484 C 453.33518,214.70989 452.58452,214 452,214 c -1.46201,0 -2.35006,2.64538 -1.57024,4.67754 0.59008,1.53775 0.77706,1.54421 2.24373,0.0775 0.88,-0.88 1.32759,-2.30989 0.99464,-3.17754 z M 413,194.44657 c 0,-1.26569 -5.46264,-7.27868 -6.19903,-6.82356 -1.50394,0.92948 -0.80406,3.55382 1.44903,5.43343 2.15389,1.79684 4.75,2.55662 4.75,1.39013 z m 63,-13.00559 C 476,181.19844 475.55,181 475,181 c -0.55,0 -1,0.47656 -1,1.05902 0,0.58246 0.45,0.7809 1,0.44098 0.55,-0.33992 1,-0.81648 1,-1.05902 z m -64.75,-0.83303 c 0.9625,-0.73064 1.75,-1.84133 1.75,-2.46819 0,-1.73308 -3.70126,-1.36066 -4.39301,0.44203 -1.36495,3.55698 -0.37417,4.31653 2.64301,2.02616 z m 8.52083,-0.42045 C 419.98854,179.53437 419.45417,179 418.58333,179 417.7125,179 417,179.7125 417,180.58333 c 0,1.76593 2.15276,1.45839 2.77083,-0.39583 z m 7.83616,0.23071 C 427.27314,179.54823 427,178.24637 427,177.5252 c 0,-1.68243 -2.74641,-2.74046 -5.14088,-1.98049 -2.67714,0.8497 -2.30476,1.99568 1.39088,4.28039 4.01843,2.48426 5.14135,2.63713 4.35699,0.59311 z m 1.93413,-21.35168 C 429.17858,158.47994 428.40342,158 427.81854,158 c -0.6631,0 -0.58723,0.57378 0.20152,1.52417 1.37154,1.6526 2.59733,1.2838 1.52106,-0.45764 z M 369.08279,461.49968 C 367.21832,458.19985 364.917,454.15 363.96873,452.5 c -7.19838,-12.52533 -9.39677,-16.56023 -11.16934,-20.5 -2.35802,-5.24101 -11.79186,-22.4773 -15.8742,-29.00327 -1.54937,-2.4768 -5.06391,-6.21677 -7.8101,-8.31104 -5.27048,-4.01932 -11.67121,-13.79409 -10.69629,-16.33467 0.30419,-0.79273 2.22507,-2.13992 4.2686,-2.99377 2.9738,-1.24253 4.72334,-1.34876 8.76406,-0.53216 8.44645,1.70696 10.5247,2.8736 12.1811,6.83794 1.61649,3.86879 1.51178,5.01719 -1.13476,12.44585 -1.60633,4.50886 -1.58627,4.74119 0.92433,10.70611 5.80744,13.79786 23.96631,51.00473 27.26608,55.86721 1.32698,1.95542 2.27136,4.28923 2.09861,5.18623 -0.19076,0.99053 -1.64516,-0.72488 -3.70403,-4.36875 z m -83.53885,-43.36124 c -0.77378,-2.43797 1.10497,-6.47346 2.58726,-5.55735 1.08251,0.66902 0.32764,5.30352 -1.10263,6.76957 -0.45644,0.46787 -1.12453,-0.0776 -1.48463,-1.21222 z m 8.51852,-23.02173 c -0.92424,-1.72696 -0.7025,-2.30646 1.4129,-3.69253 1.44364,-0.9459 3.25563,-1.35473 4.26692,-0.96271 1.63252,0.63284 1.61526,0.78467 -0.24228,2.13161 -1.1,0.79763 -2.52678,2.15265 -3.17062,3.01115 -1.03771,1.38369 -1.2951,1.32834 -2.26692,-0.48752 z M 277,331.43923 c -2.62851,-0.90247 -3.5,-1.77076 -3.5,-3.48713 0,-3.29694 1.52103,-3.29287 5.5,0.0147 4.19583,3.48789 3.18032,5.25101 -2,3.47239 z M 448.125,151.125 c 0.20625,-0.61875 0.7125,-1.125 1.125,-1.125 1.17109,0 0.87974,1.45675 -0.375,1.875 -0.61875,0.20625 -0.95625,-0.13125 -0.75,-0.75 z"
       style="fill:#4e4e4e" />
    <path
       inkscape:connector-curvature="0"
       id="path3014"
       d="m 396,525.05902 c 0,-0.51754 0.44485,-1.21592 0.98855,-1.55194 0.56686,-0.35034 0.7345,0.0511 0.39301,0.94098 C 396.71677,526.18048 396,526.49745 396,525.05902 z m 2.14503,-8.87476 c -0.0798,-2.37366 -0.61086,-5.18616 -1.18021,-6.25 -1.35083,-2.52404 -5.46191,-2.49036 -7.24781,0.0594 C 388.07122,512.34335 387,511.63948 387,508.2084 c 0,-1.35206 -1.0939,-4.98956 -2.4309,-8.08333 C 380.33656,490.33102 376,477.45281 376,474.67751 c 0,-3.85139 2.46771,-3.42288 7.61583,1.32249 2.56685,2.36604 5.32663,4 6.75607,4 1.32912,0 3.75547,1.2375 5.39188,2.75 1.63641,1.5125 4.65851,4.26847 6.71579,6.12438 3.52089,3.17627 9.23819,13.74119 8.06892,14.91046 -0.29492,0.29493 -1.36192,-0.21101 -2.3711,-1.1243 -2.63317,-2.38299 -6.04236,-2.1011 -7.12887,0.58946 -0.49973,1.2375 -1.32482,5.625 -1.83353,9.75 -0.7168,5.81236 -0.95756,6.52888 -1.06996,3.18426 z M 448.2,497.8 c -1.65819,-1.65819 -1.50468,-7.01492 0.2682,-9.35887 1.74183,-2.30291 2.02296,-12.01908 0.46624,-16.11357 -1.07765,-2.83444 -5.88873,-9.84189 -9.28318,-13.52117 -1.54713,-1.67696 -2.58928,-1.89281 -6.38807,-1.32315 -4.40915,0.66119 -4.5192,0.61384 -3.83747,-1.65126 0.38601,-1.28259 0.94692,-4.158 1.24645,-6.38979 0.53611,-3.99451 0.3674,-4.25971 -10.81378,-16.99872 -6.24711,-7.11749 -18.39825,-20.14148 -27.00251,-28.94218 -20.43344,-20.89994 -23.21411,-24.12537 -22.47013,-26.06414 0.33292,-0.86759 1.40911,-1.43336 2.39154,-1.25729 0.98243,0.17608 8.46519,7.74514 16.62835,16.82014 8.16316,9.075 20.86136,22.87299 28.21823,30.6622 7.35687,7.78921 13.37613,14.82856 13.37613,15.64301 0,0.81445 0.64007,1.72643 1.42238,2.02663 0.87053,0.33406 1.21325,1.34549 0.88337,2.60699 -0.40675,1.55538 -0.0658,2.06117 1.38956,2.06117 1.06072,0 2.92991,1.35438 4.15376,3.00973 1.76607,2.38874 2.73006,2.88302 4.67207,2.39561 1.67079,-0.41934 3.85641,0.21191 6.89094,1.99027 2.44423,1.43241 5.08075,2.60439 5.85893,2.60439 0.77818,0 3.96055,3.21741 7.07193,7.14979 l 5.65706,7.14979 0,7.38981 c 0,7.30131 -0.0479,7.43676 -4,11.31061 -2.2,2.15644 -4,4.5881 -4,5.4037 0,3.67499 -9.89564,6.30066 -12.8,3.3963 z M 258.15098,462.25 c -1.77904,-3.38629 -0.67789,-13.04604 1.88184,-16.50826 1.90331,-2.57437 2.40717,-4.59172 2.55367,-10.22445 0.10039,-3.85951 0.9095,-9.69933 1.79802,-12.97739 2.01174,-7.42199 2.04291,-10.43865 0.11549,-11.17827 C 261.33091,410.14553 263.63004,397 267.01182,397 c 1.0548,0 2.43863,-1.0125 3.07518,-2.25 0.63656,-1.2375 2.20074,-3.375 3.47596,-4.75 1.27522,-1.375 2.83705,-4.75 3.47073,-7.5 1.31682,-5.71465 4.1775,-11.73706 5.8381,-12.2906 2.06272,-0.68757 1.19108,5.48248 -1.84599,13.06719 -2.94547,7.35596 -5.42163,15.49499 -7.06532,23.22341 -0.4679,2.2 -1.76436,6.7 -2.88102,10 -1.11665,3.3 -2.04135,7.01849 -2.05487,8.26331 -0.0135,1.24483 -1.62971,7.09483 -3.59152,13 -2.24834,6.76764 -3.77985,13.60165 -4.1429,18.48669 -0.57466,7.73258 -1.4001,9.31025 -3.13919,6 z m 89.67394,-42.20808 C 337.83037,403.02665 335.1201,399.08893 330.31293,394.59887 324.66582,389.32428 321,383.31452 321,379.33122 c 0,-2.25328 0.39581,-2.46209 7.14851,-3.77129 2.83013,-0.5487 12.28797,2.35636 13.64492,4.19116 2.2833,3.08736 2.53709,6.42809 0.84667,11.1449 -2.40515,6.71113 -2.14365,8.42452 3.26101,21.3672 2.69561,6.45525 4.75433,11.73681 4.57493,11.73681 -0.17941,0 -1.37241,-1.78113 -2.65112,-3.95808 z M 270.45569,375.25 c 0.90808,-3.7133 10.60665,-23.05685 12.24004,-24.41244 0.93905,-0.77934 1.68808,-0.76391 2.67494,0.0551 0.8074,0.67008 2.90427,0.89382 5.10254,0.54446 3.00404,-0.47742 4.19946,-0.15382 6.12933,1.6592 1.3186,1.23877 2.39746,2.62386 2.39746,3.07798 0,1.54274 -4.48926,0.78962 -7,-1.17431 -1.375,-1.07554 -3.27128,-1.96553 -4.21395,-1.97776 -1.93392,-0.0251 -7.36119,7.28605 -5.79595,7.80779 0.55545,0.18515 1.0099,0.91345 1.0099,1.61844 0,1.89118 -4.01358,6.66117 -5.06046,6.01416 -0.49518,-0.30603 -2.29774,1.71468 -4.0057,4.49047 -3.49763,5.68438 -4.46234,6.32145 -3.47815,2.2969 z M 310.5,368.69337 c -2.75,-0.47602 -6.125,-1.10878 -7.5,-1.40614 l -2.5,-0.54064 3,-1.32819 c 4.2799,-1.89484 12.97513,-1.80041 14.93776,0.16222 3.10605,3.10604 -0.28786,4.43695 -7.93776,3.11275 z m -37.61025,-16.19011 c 1.00846,-4.06874 2.12517,-6.49796 2.98806,-6.5 1.74506,-0.004 0.74672,7.388 -1.4514,10.74674 -2.61253,3.99195 -3.18591,2.40734 -1.53666,-4.24674 z M 271.232,343 c 0,-1.925 0.2058,-2.7125 0.45733,-1.75 0.25152,0.9625 0.25152,2.5375 0,3.5 -0.25153,0.9625 -0.45733,0.175 -0.45733,-1.75 z m 32.27833,0.19071 -2.98966,-0.36981 3.35447,-1.41045 c 4.20111,-1.76643 5.12486,-1.76958 5.12486,-0.0174 0,1.73767 -1.63812,2.27411 -5.48967,1.7977 z m 9.12251,-3.94597 c -3.67889,-2.23869 -4.55432,-8.10084 -1.60794,-10.76728 1.37973,-1.24863 1.65724,-2.20287 0.99856,-3.43362 -0.6028,-1.12635 -0.43698,-2.62039 0.48892,-4.40507 0.77061,-1.48535 1.17091,-3.30053 0.88955,-4.03374 -0.33724,-0.87884 0.60201,-1.55582 2.7564,-1.9867 2.7766,-0.55532 3.72455,-0.19176 6.30481,2.418 2.82154,2.85381 2.91278,3.16421 1.28686,4.37787 -2.46909,1.84305 -2.17931,2.5881 1,2.57106 4.16826,-0.0223 7.75,-2.22375 7.75,-4.76329 0,-1.21399 1.9125,-4.43159 4.25,-7.15021 2.3375,-2.71862 4.25,-5.48482 4.25,-6.14711 0,-0.66229 0.67447,-1.70377 1.49883,-2.31441 1.17266,-0.86864 0.30501,-1.16848 -3.98713,-1.37787 -4.70893,-0.22973 -6.61775,0.30142 -13.47663,3.75 C 319.22768,308.90227 315.8088,310 312.5222,310 309.01453,310 308,310.36456 308,311.625 c 0,1.32816 -0.59369,1.48119 -3.25,0.83773 -1.7875,-0.43299 -4.825,-0.82871 -6.75,-0.87937 -2.38249,-0.0627 -5.17626,-1.31798 -8.75,-3.93154 -5.52008,-4.03694 -6.26792,-5.32398 -3.67228,-6.32002 1.66481,-0.63884 5.42601,-8.10876 7.468,-14.8318 0.66821,-2.2 1.62328,-4.51659 2.12237,-5.14797 0.4991,-0.63139 1.08526,-2.07127 1.30258,-3.19974 0.43225,-2.2445 4.48845,-8.15229 5.59724,-8.15229 0.38049,0 2.56044,-2.475 4.84434,-5.5 2.2839,-3.025 4.74322,-5.5 5.46516,-5.5 0.72194,0 2.15197,-0.92747 3.17784,-2.06105 1.5963,-1.76389 1.65469,-2.19422 0.40499,-2.98469 -0.80313,-0.508 -2.69774,-0.93053 -4.21024,-0.93895 -3.81785,-0.0213 -3.53227,-2.19815 1,-7.62252 4.31725,-5.16702 8.32843,-7.79205 13.27295,-8.68618 1.91238,-0.34582 4.60205,-0.91555 5.97705,-1.26606 2.14928,-0.54789 2.03936,-0.34212 -0.78358,1.4668 -4.16499,2.6689 -4.65364,4.01649 -2.77701,7.6584 1.01705,1.97377 2.73911,3.28879 5.26082,4.01735 2.68371,0.77537 3.91094,1.7698 4.31939,3.5 0.55036,2.33137 0.8845,2.4169 9.44213,2.4169 6.20838,0 8.99666,-0.37524 9.28825,-1.25 0.27327,-0.81982 -0.64444,-1.25 -2.66667,-1.25 -3.53,0 -4.00231,-1.40914 -1.08333,-3.23207 1.1,-0.68696 2,-2.2069 2,-3.37763 0,-1.68287 -0.78527,-2.25841 -3.75,-2.74845 -6.46271,-1.06822 -12.22847,-0.70206 -14.72737,0.93528 -2.5411,1.66499 -7.02263,1.61577 -7.02263,-0.0771 0,-0.55 1.52176,-1.75974 3.3817,-2.68832 1.85993,-0.92857 5.45993,-3.57389 8,-5.87847 3.4544,-3.13416 5.68435,-4.31599 8.84833,-4.68948 2.32652,-0.27463 3.9685,-0.9225 3.64885,-1.43971 -0.31965,-0.5172 -1.27934,-0.67246 -2.13265,-0.34501 C 349.46827,229.14128 343,227.24767 343,226.04489 c 0,-0.44 0.71295,-1.3917 1.58434,-2.11489 2.38095,-1.97601 7.83654,-13.35559 11.49921,-23.98573 1.78974,-5.19435 4.19061,-10.78493 5.33526,-12.42353 2.39856,-3.43358 3.24298,-4.78948 6.31188,-10.13514 3.44973,-6.00902 6.35396,-8.88908 11.50463,-11.40886 5.40607,-2.64473 10.10884,-6.97674 7.57385,-6.97674 -0.8467,0 -2.68362,0.9 -4.08204,2 -1.39842,1.1 -3.14661,1.98503 -3.88486,1.96673 -2.7919,-0.0692 8.81194,-7.9078 14.00645,-9.46161 2.08908,-0.6249 2.2699,-0.45421 1.63568,1.54402 -0.66301,2.08896 -0.48576,2.20113 2.52628,1.59872 1.78163,-0.35632 4.7778,-0.64786 6.65816,-0.64786 2.7013,0 3.35716,-0.36728 3.125,-1.75 -0.24926,-1.48452 0.3862,-1.70535 4.18889,-1.45568 5.06765,0.33273 9.24413,3.43658 8.79602,6.53697 -0.33106,2.2906 3.20658,4.91581 3.93315,2.91871 0.61855,-1.7002 2.77386,-1.57454 4.2881,0.25 0.68469,0.825 1.94186,1.5 2.7937,1.5 0.85185,0 2.37451,0.74724 3.38369,1.66054 2.78232,2.51796 3.47106,0.70782 1.00158,-2.63235 -2.67785,-3.62198 -2.73086,-4.33813 -0.26313,-3.5549 1.05372,0.33444 2.20588,0.13878 2.56036,-0.43478 0.37765,-0.61105 2.21609,-0.79154 4.44012,-0.4359 3.35439,0.53639 3.8646,0.34315 4.38903,-1.66228 0.49097,-1.87747 0.85003,-2.05627 2.07976,-1.03568 0.81748,0.67845 1.77488,2.54729 2.12755,4.15298 0.35267,1.60569 1.01598,3.15106 1.47403,3.43415 1.49882,0.92632 4.01331,-0.66493 4.01331,-2.53975 0,-2.56096 1.55542,-3.24662 3.95932,-1.74536 2.75442,1.72016 2.57031,3.64147 -0.45932,4.79333 -1.51535,0.57613 -2.5,1.73743 -2.5,2.9485 0,1.0989 -0.9831,4.02152 -2.18467,6.49472 l -2.18468,4.49671 2.63588,4.78004 2.63588,4.78003 6.23715,-0.36428 c 4.18643,-0.2445 7.32192,-1.06648 9.53642,-2.5 3.99386,-2.58536 4.46326,-5.08665 0.82402,-4.39097 -2.09577,0.40063 -2.5,0.0961 -2.5,-1.88342 0,-2.60313 0.8124,-2.76108 12.5,-2.43036 5.5329,0.15656 16.54854,3.45866 16.46349,4.93517 -0.0639,1.10937 -8.31342,5.83273 -12.46349,7.13612 -6.01158,1.88803 -18.5,7.85644 -18.5,8.84145 0,1.87256 -5.0354,6.15629 -7.23655,6.15629 -1.86574,0 -2.68129,0.9423 -4.07865,4.71257 -1.70126,4.59022 -1.69388,4.78388 0.2843,7.4595 2.63206,3.56005 2.57533,6.56649 -0.16578,8.78611 -1.58855,1.28633 -2.1911,2.85333 -2.17652,5.66029 0.0283,5.44348 3.08291,15.44363 5.50486,18.02168 1.17773,1.25363 1.89325,3.15191 1.70072,4.51199 -0.34607,2.44455 -0.59314,2.16547 -6.33238,-7.15272 C 456.13481,242.7829 449.4622,237 448.26986,237 c -0.53136,0 -1.75565,1.9125 -2.72064,4.25 -0.96499,2.3375 -2.15834,5.03139 -2.65188,5.98643 -0.49354,0.95504 -0.89734,2.34779 -0.89734,3.09501 0,1.86744 3.2707,4.66856 5.45119,4.66856 1.43926,0 1.55995,0.28165 0.61077,1.42534 -0.95368,1.14912 -0.58982,1.86386 1.87755,3.68806 2.1982,1.6252 3.06049,3.08513 3.06049,5.18165 0,2.39349 -0.31502,2.78651 -1.75,2.18334 -3.71947,-1.56342 -5.9196,-1.58143 -7.18326,-0.0588 -1.499,1.80618 -4.63127,2.09403 -5.607,0.51527 -0.43558,-0.70479 -1.25242,-0.52747 -2.4144,0.52411 -0.96586,0.87409 -2.42409,1.33292 -3.24051,1.01963 -2.30793,-0.88564 -3.37277,1.37558 -4.63455,9.84158 -0.80835,5.42368 -0.84996,8.40982 -0.1358,9.74425 1.0021,1.87244 1.12946,1.86112 4.74762,-0.42209 2.04485,-1.29037 3.85874,-3.29022 4.03088,-4.4441 0.26642,-1.78588 0.64634,-1.94608 2.5539,-1.07694 3.20279,1.45929 4.75396,4.43334 4.80751,9.21746 0.0642,5.73827 0.51256,6.08195 4.15058,3.18179 7.47892,-5.96206 9.34752,-8.95309 7.19725,-11.52055 -0.69094,-0.825 -1.54085,-3.3 -1.8887,-5.5 -0.34785,-2.2 -0.9231,-5.125 -1.27835,-6.5 -0.55281,-2.13972 -0.22863,-1.96452 2.24947,1.21569 8.27656,10.62151 8.58201,11.34485 7.75654,18.36834 -0.47255,4.02061 -1.05194,5.42848 -2.24886,5.46452 -0.88678,0.0267 -3.61739,2.50171 -6.06802,5.5 C 449.74011,307.81462 448,309.09616 448,307 c 0,-0.55 -0.87344,-1 -1.94098,-1 -1.06754,0 -2.18257,-0.39089 -2.47784,-0.86865 -1.10253,-1.78393 -8.59696,-2.2337 -10.85586,-0.65151 -3.16049,2.21369 -4.04983,1.94953 -8.34584,-2.47895 -2.13371,-2.19951 -4.57698,-3.99951 -5.42948,-4 -0.8525,-4.9e-4 -2.09861,-0.5495 -2.76914,-1.22003 -0.95885,-0.95885 -1.75744,-0.6386 -3.74047,1.5 -1.94763,2.10043 -3.47916,2.73225 -6.73086,2.77677 -6.57814,0.0901 -12.00137,1.3179 -12.50586,2.83137 -0.36005,1.08014 0.31447,1.23638 3.08989,0.71571 1.95276,-0.36634 3.7771,-0.29939 4.05409,0.14878 0.27698,0.44817 -1.87123,3.38697 -4.77381,6.53068 -4.45864,4.82904 -5.81238,5.71583 -8.72562,5.71583 -1.89652,0 -3.94274,0.49452 -4.54715,1.09893 -0.95599,0.95599 -5.85539,1.79176 -11.55107,1.97046 -1.96937,0.0618 -2.44628,1.92052 -0.5,1.94873 0.6875,0.01 -1.20649,1.37204 -4.20886,3.02684 -3.00237,1.6548 -5.96535,2.81437 -6.5844,2.57681 -1.86688,-0.71639 -1.53302,-7.55193 0.57023,-11.67463 2.32771,-4.5627 2.51804,-6.94714 0.55452,-6.94714 -0.78019,0 -4.70499,1.575 -8.72179,3.5 -4.0168,1.925 -8.02503,3.5 -8.90717,3.5 -1.64257,0 -5.95253,3.95918 -5.95253,5.46806 0,0.46154 -1.90911,2.60164 -4.24246,4.75578 -2.94681,2.72048 -4.91217,3.78859 -6.43535,3.49742 -3.35758,-0.64184 -4.74939,0.61199 -3.42544,3.08582 3.46593,6.47615 -3.26402,10.69725 -10.26391,6.43766 z M 407,297.6206 c 7.50761,-1.26864 8.74221,-3.24385 4.09563,-6.55251 -4.1672,-2.96731 -5.79024,-2.58702 -8.07531,1.89207 -2.64603,5.18666 -2.5943,6.44647 0.22968,5.59351 1.2375,-0.37378 2.925,-0.79366 3.75,-0.93307 z m -57.58345,-2.26373 c 0.94126,-2.45288 0.10834,-2.67966 -3.32362,-0.90493 -3.84689,1.98931 -3.89073,2.54806 -0.19992,2.54806 1.76108,0 3.13972,-0.6429 3.52354,-1.64313 z M 356,291 c 0,-0.55 -0.9,-1 -2,-1 -1.1,0 -2,0.45 -2,1 0,0.55 0.9,1 2,1 1.1,0 2,-0.45 2,-1 z m -0.5,-9 c -0.33992,-0.55 -0.81648,-1 -1.05902,-1 -0.24254,0 -0.44098,0.45 -0.44098,1 0,0.55 0.47656,1 1.05902,1 0.58246,0 0.7809,-0.45 0.44098,-1 z m 25.5,-2.5 c 1.01343,-1.22111 0.96312,-1.5 -0.27057,-1.5 -0.8335,0 -1.77447,0.675 -2.09106,1.5 -0.31658,0.825 -0.19482,1.5 0.27057,1.5 0.46539,0 1.40637,-0.675 2.09106,-1.5 z m 13.34584,-9.5 c 0.94431,0 1.99065,0.71329 2.32519,1.58509 0.45695,1.19081 1.4211,1.43261 3.87597,0.97207 2.18543,-0.40999 3.40546,-0.19978 3.68362,0.63469 0.2609,0.78271 1.81207,-0.10822 4.16208,-2.39052 3.09171,-3.00263 3.69037,-4.22028 3.42674,-6.96979 -0.22164,-2.31151 -1.00833,-3.63377 -2.56944,-4.31867 -1.2375,-0.54292 -2.25,-1.58299 -2.25,-2.31127 0,-2.92094 -17.27789,2.20295 -19.48825,5.77938 -0.34638,0.56046 -1.44813,1.01902 -2.44832,1.01902 -1.0002,0 -2.43614,0.74559 -3.19099,1.65686 -1.24729,1.50577 -1.04272,1.59512 2.24332,0.97987 1.98866,-0.37234 4.36731,-0.38859 5.28588,-0.0361 1.51796,0.58249 1.53019,0.85447 0.13425,2.98495 -2.30949,3.52471 -1.84868,5.0569 0.77856,2.58873 C 391.5874,270.97844 393.40152,270 394.34584,270 z M 379,263.13148 c 0,-0.43898 -0.2961,-1.09424 -0.65799,-1.45614 C 377.43133,260.76467 375,262.9343 375,264.65763 c 0,1.10286 0.43869,1.17796 2,0.34237 1.1,-0.5887 2,-1.42953 2,-1.86852 z M 337,263 c 0,-0.55 -0.70156,-1 -1.55902,-1 -0.85746,0 -1.2809,0.45 -0.94098,1 0.33992,0.55 1.04148,1 1.55902,1 0.51754,0 0.94098,-0.45 0.94098,-1 z m 40.74438,-7.41593 c 1.7844,-2.63629 3.00583,-5.17922 2.71428,-5.65095 -0.81959,-1.32614 -5.45465,1.18738 -5.49046,2.9774 -0.0175,0.87421 -0.6925,2.46299 -1.5,3.53061 -0.80751,1.06762 -1.4682,2.56762 -1.4682,3.33333 0,2.48253 2.42518,0.71341 5.74438,-4.19039 z m 62.46289,0.92605 c 0.389,-0.54443 -0.47938,-2.22848 -1.92974,-3.74233 -2.47062,-2.57877 -2.75186,-2.6485 -4.45727,-1.10513 -1.7999,1.62889 -2.39848,4.42578 -1.20305,5.62122 0.94288,0.94288 6.78937,0.34687 7.59006,-0.77376 z M 374,250.27057 c 0,-1.23369 -0.27889,-1.284 -1.5,-0.27057 -1.93715,1.60769 -1.93715,3.10498 0,2.36163 0.825,-0.31659 1.5,-1.25756 1.5,-2.09106 z m 55.42017,-12.14141 c 0.29602,-0.47896 1.92951,-1.1491 3.62999,-1.48919 2.5023,-0.50046 3.03058,-1.0494 2.77081,-2.87916 -0.17653,-1.24345 -0.92976,-2.26081 -1.67383,-2.26081 -1.91487,0 -8.08659,4.75063 -8.11961,6.25 -0.0312,1.41649 2.57175,1.70739 3.39264,0.37916 z M 453,229 c 0,-0.55 -0.47656,-1 -1.05902,-1 -0.58246,0 -0.7809,0.45 -0.44098,1 0.33992,0.55 0.81648,1 1.05902,1 0.24254,0 0.44098,-0.45 0.44098,-1 z m -6,-1.58333 c 0,-0.87084 -0.53438,-1.40521 -1.1875,-1.1875 C 443.95828,226.84724 443.65074,229 445.41667,229 446.2875,229 447,228.2875 447,227.41667 z m 7.55297,-8.47521 c 3.47725,-3.84231 -1.73673,-7.89511 -5.62737,-4.37413 -2.25165,2.03771 -2.383,2.99757 -0.6756,4.93684 1.78569,2.02819 4.1492,1.81719 6.30297,-0.56271 z M 370,217.51819 c 0,-0.81499 1.575,-3.10363 3.5,-5.08585 1.925,-1.98222 3.5,-4.01541 3.5,-4.51819 0,-2.07026 -4.00907,-0.70512 -6.17394,2.10231 -1.27933,1.65905 -3.37856,4.35905 -4.66495,6 l -2.3389,2.98354 3.0889,0 C 368.97327,219 370,218.50746 370,217.51819 z M 441.75084,200.75 c -0.44687,-1.34328 -5.44587,-2.64702 -7.50084,-1.95622 -0.6875,0.23111 -1.25,1.04705 -1.25,1.81321 0,0.98806 1.33238,1.39301 4.58333,1.39301 3.22178,0 4.45981,-0.37133 4.16751,-1.25 z M 403,198.17319 c 0,-1.46096 -0.60079,-1.73863 -3,-1.3865 -3.31403,0.4864 -3.97099,1.81292 -1.25,2.52398 3.41295,0.8919 4.25,0.66787 4.25,-1.13748 z m 13.39235,-1.99901 c 0.28072,-0.45421 -1.04273,-2.29077 -2.94098,-4.08125 -4.16083,-3.9246 -4.64147,-8.14594 -1.20181,-10.55518 2.00766,-1.40621 2.36899,-1.41231 3.36024,-0.0567 1.40882,1.92668 2.29888,1.91157 4.49548,-0.0763 1.6281,-1.47341 2.03518,-1.37791 5.32871,1.25 3.90534,3.11608 4.34179,4.45655 2.06601,6.34528 -1.79958,1.49352 -1.91742,3.18258 -0.33261,4.76739 0.88986,0.88986 1.72195,0.41574 3.5,-1.99428 1.28294,-1.73892 2.33261,-3.52304 2.33261,-3.96472 0,-0.44168 -1.38256,-3.72925 -3.07236,-7.30572 -2.97511,-6.29682 -3.18879,-6.50078 -6.75,-6.44306 -11.69029,0.18949 -17.88151,3.45875 -16.63873,8.78604 0.30097,1.29011 0.13291,2.86511 -0.37346,3.5 -3.7749,4.73301 -0.52471,10.65435 5.84811,10.65435 2.12762,0 4.09808,-0.37162 4.37879,-0.82582 z M 343,336.04109 c 0,-1.66213 5.91843,-7.45599 6.75834,-6.61608 0.5519,0.5519 -4.19703,7.43906 -5.50834,7.98848 -0.74465,0.312 -1.25,-0.24283 -1.25,-1.3724 z M 274.5,328 c -0.33992,-0.55 -0.14148,-1 0.44098,-1 0.58246,0 1.05902,0.45 1.05902,1 0,0.55 -0.19844,1 -0.44098,1 -0.24254,0 -0.7191,-0.45 -1.05902,-1 z m 5.24306,-11.59028 c -1.31243,-1.31242 -0.79554,-4.05225 1.08568,-5.75473 2.15319,-1.94861 3.17126,-2.1039 3.17126,-0.48373 0,0.64419 0.74724,1.99695 1.66054,3.00613 0.91329,1.00918 1.44298,2.05243 1.17708,2.31832 -0.94644,0.94644 -6.36416,1.64442 -7.09456,0.91401 z M 287,280.59033 C 287,276.93583 289.88035,272 292.01296,272 l 2.11501,0 -2.28013,4.05694 C 289.03646,281.05911 287,282.96348 287,280.59033 z M 293.00428,265.75 c 0.009,-2.66205 12.23138,-17.75 14.3787,-17.75 1.48086,0 0.43411,3.02753 -1.38298,4 -1.1,0.5887 -2,1.50962 -2,2.04649 0,1.88618 -8.19175,12.95351 -9.58784,12.95351 -0.77669,0 -1.41023,-0.5625 -1.40788,-1.25 z M 455,262 c 0,-0.55 0.675,-1 1.5,-1 0.825,0 1.5,-0.58899 1.5,-1.30887 0,-0.71988 0.64471,-2.18238 1.43268,-3.25 1.08213,-1.46618 1.71813,-1.65991 2.59934,-0.79179 C 463.69853,257.29111 462.2433,261 459.93261,261 458.86968,261 458,261.45 458,262 c 0,0.55 -0.675,1 -1.5,1 -0.825,0 -1.5,-0.45 -1.5,-1 z m 7.45888,-54.06653 c -0.36253,-0.58659 -0.41903,-1.30665 -0.12555,-1.60014 0.71632,-0.71631 2.66667,0.54583 2.66667,1.72569 0,1.27797 -1.72641,1.19267 -2.54112,-0.12555 z M 465.71025,164 c -0.37991,-1.45278 -0.0307,-2 1.27638,-2 1.82582,0 3.37143,2.3086 2.2778,3.40223 -1.23951,1.23952 -3.05016,0.52516 -3.55418,-1.40223 z m -36.2158,-10.00613 c -0.99854,-1.10337 -1.55238,-2.26927 -1.23077,-2.59089 0.82638,-0.82637 6.00566,1.8423 6.49581,3.34702 0.65505,2.01095 -3.27114,1.4471 -5.26504,-0.75613 z"
       style="fill:#2e2e2e" />
    <path
       inkscape:connector-curvature="0"
       id="path3012"
       d="m 398.08505,510.72856 c -0.0468,-0.97429 -1.19162,-2.27562 -2.54409,-2.89185 -1.96699,-0.89622 -2.96396,-0.78957 -4.98245,0.533 l -2.52342,1.6534 0.58812,-4.29078 c 0.71155,-5.19129 -1.70513,-12.02186 -3.94875,-11.1609 -1.50548,0.5777 -3.67446,-4.04669 -3.67446,-7.83415 0,-1.63234 0.52956,-1.88656 3.13378,-1.50434 2.43873,0.35793 3.24087,0.0504 3.61663,-1.3865 0.62265,-2.38104 1.94538,-2.32373 6.24959,0.27079 6.58459,3.9691 12.0439,9.05207 13.52213,12.58998 1.82272,4.36237 1.93316,6.14808 0.27787,4.49279 -1.40274,-1.40274 -3.73436,-1.52772 -5.66638,-0.30374 -0.75151,0.47609 -1.95074,3.2817 -2.66495,6.23468 -0.71422,2.95298 -1.33685,4.57191 -1.38362,3.59762 z M 394,490.5 c 0,-0.825 -0.1882,-1.5 -0.41821,-1.5 -0.23002,0 -1.13002,-0.27314 -2,-0.60699 -1.01587,-0.38982 -1.58179,-0.0619 -1.58179,0.91667 0,1.38239 1.27017,2.40297 3.25,2.61137 0.4125,0.0434 0.75,-0.59605 0.75,-1.42105 z m 54.66667,6.83333 c -1.00355,-1.00355 -0.8006,-4.13252 0.31266,-4.82056 0.53864,-0.33289 1.84138,-0.1439 2.895,0.41997 1.41374,0.75661 2.2179,0.66105 3.06922,-0.36473 1.61608,-1.94724 -0.23301,-2.88298 -4.04327,-2.04611 l -3.05093,0.6701 1.69729,-3.28219 c 3.53553,-6.83696 0.6786,-18.59366 -6.18662,-25.45888 C 442.06201,461.15292 441,459.69269 441,459.20597 441,457.96175 436.38191,456 433.45295,456 c -1.88167,0 -2.44938,-0.52401 -2.43764,-2.25 0.0185,-2.71786 0.93934,-4.19527 3.11326,-4.99496 1.08785,-0.40017 3.57798,1.201 7.5,4.82256 3.22929,2.9819 6.20893,5.42181 6.62143,5.42202 1.45389,7.4e-4 0.7248,-2.39755 -1.42431,-4.68517 C 445.62981,453.0415 445.10266,452 445.65424,452 c 1.76809,0 10.1327,6.00239 10.80459,7.75331 0.50891,1.32621 0.82421,1.40676 1.46267,0.37371 0.58878,-0.95267 2.09523,0.25601 5.44621,4.36969 4.61661,5.66738 4.63224,5.71255 4.61698,13.34496 -0.0168,8.37953 -0.20572,8.89066 -4.23469,11.45448 -1.5125,0.96248 -2.75,2.56984 -2.75,3.57192 0,2.93031 -3.28706,5.13193 -7.66207,5.13193 -2.20253,0 -4.3046,-0.3 -4.67126,-0.66667 z m 3.9375,-26.0625 c -0.33229,-0.33229 -0.56864,0.25834 -0.52522,1.3125 0.048,1.16495 0.28494,1.4019 0.60416,0.60417 0.28887,-0.72188 0.25335,-1.58438 -0.0789,-1.91667 z M 462.98469,470.75 c -0.0225,-1.83512 -1.77216,-4.29586 -2.52162,-3.5464 -0.87435,0.87435 0.43751,4.7964 1.60432,4.7964 0.51293,0 0.92572,-0.5625 0.9173,-1.25 z M 378.25,480.86269 c -0.6875,-0.69448 -1.25,-2.39412 -1.25,-3.77698 0,-2.29572 0.13789,-2.37639 1.58632,-0.92796 0.87248,0.87247 1.43498,2.57211 1.25,3.77697 -0.2702,1.75996 -0.58208,1.94241 -1.58632,0.92797 z m 47.04668,-43.50193 C 421.36362,431.58329 404.40006,413.46831 389.1325,398.7419 380.01205,389.94473 372,380.31915 372,378.15913 c 0,-2.97143 3.42775,0.0225 15,13.10153 6.875,7.77017 19.3625,21.41951 27.75,30.33185 8.3875,8.91235 15.25,16.7 15.25,17.30588 0,2.05975 -2.89972,1.11175 -4.70332,-1.53763 z M 265,428 c 0,-1.86667 0.26667,-2.13333 1.2,-1.2 0.93333,0.93333 0.93333,1.46667 0,2.4 -0.93333,0.93333 -1.2,0.66667 -1.2,-1.2 z m 3,-15.37803 c 0,-2.34529 -0.65606,-3.81364 -2.14596,-4.80289 -1.89895,-1.26086 -2.03896,-1.87916 -1.21644,-5.37197 0.64534,-2.74038 1.5307,-4.04367 2.89596,-4.26296 1.08154,-0.17371 3.19966,-2.08621 4.70694,-4.25 2.59818,-3.72985 4.7595,-5.0793 4.7595,-2.97166 0,0.52937 -0.87361,3.34187 -1.94135,6.25 -1.06774,2.90813 -2.25289,7.08751 -2.63365,9.28751 -0.67561,3.90361 -3.00294,9.5 -3.95068,9.5 C 268.21344,416 268,414.47989 268,412.62197 z m 73.93126,-3.78632 C 340.19562,405.54193 332.61634,394.34114 328.509,389 c -6.24877,-8.12584 -4.27358,-12.7008 4.98404,-11.54414 8.42251,1.05233 11.07721,5.16244 8.11543,12.56464 -2.11437,5.28433 -2.03034,7.77694 0.4892,14.51099 2.14811,5.74134 2.04167,8.49441 -0.16641,4.30416 z m -62.3679,-29.80529 c 0.16966,-2.38192 1.05751,-5.05067 1.973,-5.93056 1.54397,-1.48394 1.61246,-1.34631 0.94565,1.9002 -0.39538,1.925 -1.28322,4.59376 -1.97299,5.93057 -1.16393,2.25575 -1.23194,2.11908 -0.94566,-1.90021 z m -4.68447,-12.19239 c 0.84252,-2.23229 6.74706,-13.40604 7.79678,-14.75464 0.17838,-0.22916 0.58145,-0.15954 0.89571,0.15471 0.31426,0.31426 -1.29434,3.87676 -3.57465,7.91667 -4.59881,8.14746 -6.71197,10.90699 -5.11784,6.68326 z m 37.14914,0.22155 c -1.26965,-0.82108 -1.24331,-1.03968 0.19158,-1.5903 2.16516,-0.83085 5.28039,-0.21465 5.28039,1.04448 0,1.34882 -3.665,1.7144 -5.47197,0.54582 z M 318,338 c 0,-0.55 0.675,-1 1.5,-1 0.825,0 1.5,0.45 1.5,1 0,0.55 -0.675,1 -1.5,1 -0.825,0 -1.5,-0.45 -1.5,-1 z m 56.74721,-21.58612 C 374.33625,316.00291 374,314.78991 374,313.71832 c 0,-1.86969 -0.10524,-1.87938 -2.6069,-0.24023 -1.9696,1.29053 -2.88635,1.42565 -3.75,0.55273 -0.85904,-0.86827 -0.70823,-1.40075 0.6069,-2.14279 2.70101,-1.524 2.08377,-3.36556 -1.571,-4.68714 -4.68406,-1.69378 -10.33463,-1.5407 -11.04063,0.29911 -0.31658,0.825 -1.41472,1.5 -2.44032,1.5 -3.15443,0 -2.48441,-5.72841 0.96862,-8.28134 3.35457,-2.48014 3.52898,-3.36309 0.83333,-4.21866 -1.1,-0.34913 -2,-1.05445 -2,-1.56739 0,-1.53941 4.73817,-1.05158 6.45427,0.66452 0.87842,0.87842 2.14806,1.33128 2.82143,1.00636 1.97427,-0.95264 4.82441,-2.95666 7.25826,-5.10349 2.16159,-1.90668 6.54801,-5.64409 14.65956,-12.49054 2.03144,-1.71461 4.95644,-3.20567 6.5,-3.31346 2.39655,-0.16737 2.85394,0.21856 3.13141,2.64213 0.20928,1.82799 -0.59154,4.16059 -2.25,6.55375 -2.80561,4.0485 -3.18553,6.09752 -1.45197,7.83108 1.46504,1.46504 -2.18114,6.73864 -6.03815,8.73318 -2.76824,1.43152 -8.67139,8.29062 -7.84573,9.11627 0.24258,0.24258 2.65053,-1.57705 5.35099,-4.04363 2.70046,-2.46658 5.37242,-4.49461 5.93769,-4.50674 0.56527,-0.0121 1.79836,-0.92204 2.74021,-2.02204 0.94185,-1.1 2.42639,-2 3.29897,-2 1.06494,0 0.57502,0.85111 -1.49021,2.58889 -3.98854,3.35613 -4.02115,6.10818 -0.0845,7.13252 l 2.99221,0.77859 -1.97752,3.25 c -1.2487,2.05222 -2.81216,3.28071 -4.24221,3.33333 -1.24559,0.0458 -3.1647,0.26738 -4.2647,0.49232 -6.10426,1.24826 -9.08645,1.50457 -9.75279,0.83823 z M 371.75,303.30269 C 374.3467,302.68428 374.79305,301 372.36024,301 c -0.90186,0 -2.25186,-0.7875 -3,-1.75 -1.28814,-1.65723 -1.43975,-1.6471 -2.86024,0.19113 -0.825,1.06762 -1.5,2.80761 -1.5,3.86663 0,1.53678 0.45424,1.78472 2.25,1.22814 1.2375,-0.38355 3.2625,-0.9385 4.5,-1.23321 z m 1.85374,-9.71244 c 0.29754,-0.77537 1.66538,-1.69196 3.03966,-2.03688 2.80212,-0.70329 2.69377,-3.05337 -0.14078,-3.05337 -1.02631,0 -2.62849,1.42802 -3.64635,3.25 -0.9986,1.7875 -1.36066,3.25 -0.80457,3.25 0.55609,0 1.25451,-0.63439 1.55204,-1.40975 z M 302.5,310 c -0.33992,-0.55 -0.16803,-1 0.38197,-1 0.55,0 1.27811,0.45 1.61803,1 0.33992,0.55 0.16803,1 -0.38197,1 -0.55,0 -1.27811,-0.45 -1.61803,-1 z m 6.34106,-2.35485 c -4.93075,-1.54319 -11.16938,-8.04225 -11.03798,-11.49876 0.32666,-8.59293 1.54626,-16.19661 2.5445,-15.86386 0.60996,0.20332 1.15432,1.23543 1.20967,2.29357 0.0554,1.05815 0.17762,3.6114 0.2717,5.6739 0.0941,2.0625 0.62105,3.75 1.17105,3.75 0.55,0 1,-0.47469 1,-1.05486 0,-1.81773 4.0074,-9.94514 4.90367,-9.94514 0.46953,0 1.40362,-1.32765 2.07576,-2.95034 0.67214,-1.62268 2.85063,-4.62722 4.8411,-6.67674 2.20604,-2.27148 3.14279,-3.88515 2.39925,-4.13299 -2.37634,-0.79212 -1.1668,-3.24829 2.84758,-5.78245 3.73348,-2.35684 4.01267,-2.82988 3.40107,-5.76255 -0.36645,-1.75721 -1.59201,-3.92485 -2.72345,-4.81697 -1.27078,-1.00199 -1.81836,-2.24435 -1.43246,-3.25 0.82872,-2.15959 3.3786,-2.07362 4.57085,0.15411 0.52455,0.98013 3.01538,2.8117 5.53518,4.07015 2.5198,1.25845 4.58145,2.66971 4.58145,3.13615 0,0.46643 0.25754,1.51921 0.57232,2.3395 0.3729,0.97175 -0.23689,1.74412 -1.75,2.21657 -2.80928,0.87717 -3.78673,2.21921 -3.80701,5.227 -0.01,1.44349 -0.92656,2.68663 -2.51531,3.41051 -3.3217,1.51347 -3.18243,2.96518 0.25,2.6059 2.43641,-0.25503 2.75,0.0443 2.75,2.62463 0,4.01314 1.75147,4.24405 7.007,0.92378 C 342.13714,271.4111 343.11112,270 340.5,270 c -1.71481,0 -1.8722,-0.86308 -0.54116,-2.96764 0.70671,-1.11741 2.79109,-1.41813 8.73469,-1.26015 4.29356,0.11412 8.42662,-0.18763 9.18459,-0.67056 2.07524,-1.32221 0.37354,-3.12725 -2.68474,-2.84778 -1.48136,0.13537 -2.91838,-0.2033 -3.19338,-0.75261 -0.71093,-1.42006 12.12943,-2.90987 12.99592,-1.50786 0.36519,0.59089 1.4155,0.78595 2.33403,0.43348 C 368.6372,259.92524 369,260.3756 369,262.5 c 0,2.00158 0.39374,2.56289 1.5,2.13837 0.98489,-0.37793 1.5,0.0318 1.5,1.19301 0,2.3035 -1.9152,4.16862 -4.28053,4.16862 -1.0343,0 -4.35619,1.6875 -7.38198,3.75 -6.73718,4.59232 -7.35327,4.95322 -9.73729,5.70395 -1.80594,0.56869 -1.78498,0.72046 0.42432,3.07215 1.27826,1.36064 3.42577,2.4739 4.77224,2.4739 2.12118,0 2.27244,0.2117 1.13257,1.58516 -0.82357,0.99233 -2.36529,1.43109 -4.12245,1.17319 -2.10793,-0.30938 -2.80688,-0.001 -2.80688,1.23759 0,0.95926 -1.9133,2.6051 -4.57213,3.93298 -2.51467,1.25589 -4.84435,3.02315 -5.17706,3.92726 -0.82509,2.24209 -2.28735,3.11038 -5.26868,3.12851 -1.38482,0.008 -4.1964,1.15591 -6.24795,2.54997 -4.60197,3.12712 -12.32949,6.50122 -14.56709,6.36049 -0.9169,-0.0577 -3.31361,-0.62017 -5.32603,-1.25 z M 305,296.44098 C 305,296.19844 304.55,296 304,296 c -0.55,0 -1,0.47656 -1,1.05902 0,0.58246 0.45,0.7809 1,0.44098 0.55,-0.33992 1,-0.81648 1,-1.05902 z m 7.77354,-2.94149 C 313.4331,292.98534 311.68276,290 310.72175,290 309.42394,290 306,292.99483 306,294.12999 c 0,0.66716 5.80163,0.12713 6.77354,-0.6305 z m 5.57017,-17.70582 c 0.78737,-3.01094 -0.20337,-3.70608 -1.92547,-1.35097 -1.78912,2.44676 -1.8,3.5573 -0.0349,3.5573 0.76085,0 1.643,-0.99285 1.96034,-2.20633 z M 295.25,305.65439 c -1.2375,-1.2236 -2.25,-2.58063 -2.25,-3.01562 0,-0.97911 5.86805,3.57268 5.94467,4.61123 0.098,1.32775 -1.38644,0.68669 -3.69467,-1.59561 z M 345,306 c 0,-0.55 0.87344,-1 1.94098,-1 1.06754,0 2.2191,0.45 2.55902,1 0.35052,0.56716 -0.48962,1 -1.94098,1 C 346.15156,307 345,306.55 345,306 z m 105.17504,-5.50527 c 0.26529,-3.26119 0.73812,-4.05341 2.57496,-4.31428 3.15138,-0.44757 2.97265,2.79203 -0.32496,5.88997 l -2.57495,2.41904 0.32495,-3.99473 z M 429,302.05902 C 429,301.47656 429.45,301 430,301 c 1.28138,0 1.28138,0.70806 0,1.5 -0.55,0.33992 -1,0.14148 -1,-0.44098 z M 398.0451,297.25 c -0.0248,-0.6875 -0.8201,-1.25 -1.76732,-1.25 -1.50504,0 -1.45512,-0.2671 0.39583,-2.11806 2.90656,-2.90655 4.3089,-2.07045 2.71388,1.61806 -0.7135,1.65 -1.31758,2.4375 -1.34239,1.75 z M 418,293.97725 c 0,-1.20417 -1.125,-3.07433 -2.5,-4.15591 -3.02483,-2.37933 -3.2869,-5.8028 -0.5,-6.53159 2.36404,-0.61821 2.36998,-0.76648 0.39212,-9.78975 -2.74874,-12.54015 -2.84931,-14.49595 -0.74716,-14.53041 1.7388,-0.0285 1.74539,-0.0943 0.10504,-1.04969 -1.79184,-1.04365 -2.41308,-4.48774 -0.9175,-5.08657 0.45787,-0.18333 2.01052,-2.92637 3.45032,-6.09565 2.78153,-6.1227 4.81366,-7.73243 7.22991,-5.72711 1.94338,1.61285 1.89362,5.43963 -0.11049,8.49828 -1.46368,2.23386 -1.46368,2.57257 0,4.03625 0.87877,0.87877 1.60061,1.90311 1.60408,2.27633 0.0112,1.20101 6.0793,4.17857 8.5157,4.17857 1.29797,0 2.65559,0.47836 3.01692,1.06301 0.87308,1.41267 -2.393,4.93699 -4.57524,4.93699 -1.43886,0 -2.77852,1.3895 -7.56003,7.84131 -0.13912,0.18771 -1.24381,0.0268 -2.45486,-0.35756 -1.97757,-0.62765 -2.14453,-1.18341 -1.63867,-5.45461 C 421.87845,263.23066 420.9232,261 418.3,261 c -1.86302,0 -1.66364,7.03583 0.27794,9.80782 1.18597,1.69321 1.48502,4.04626 1.20388,9.4725 -0.20574,3.97083 -0.73896,8.00718 -1.18494,8.96968 -0.59921,1.29322 -0.37326,1.75 0.86568,1.75 1.15215,0 1.57659,0.67926 1.35699,2.17167 C 420.38737,296.10879 418,296.79089 418,293.97725 z m -59,-1.91823 C 359,291.47656 359.45,291 360,291 c 1.28138,0 1.28138,0.70806 0,1.5 -0.55,0.33992 -1,0.14148 -1,-0.44098 z m 39.22917,-6.24652 C 398.84724,283.95828 401,283.65074 401,285.41667 401,286.2875 400.2875,287 399.41667,287 c -0.87084,0 -1.40521,-0.53438 -1.1875,-1.1875 z M 408,282.94098 c 0,-1.13246 0.43035,-1.79305 0.95633,-1.46797 0.52598,0.32507 0.70283,1.25163 0.39301,2.05902 C 408.55611,285.59914 408,285.35555 408,282.94098 z M 368,277 c 0,-0.55 0.675,-1 1.5,-1 0.825,0 1.5,0.45 1.5,1 0,0.55 -0.675,1 -1.5,1 -0.825,0 -1.5,-0.45 -1.5,-1 z m 10.60198,-2.50028 c -1.82755,-1.38333 -1.80331,-1.47268 0.65286,-2.40651 1.40299,-0.53341 2.84615,-1.4476 3.20704,-2.03153 1.23967,-2.00582 3.03828,-1.05756 3.1977,1.68589 0.24422,4.20257 -3.31024,5.58865 -7.0576,2.75215 z M 440.88931,265.25 c -0.22171,-1.50225 0.32567,-5.77257 0.84965,-6.62842 0.96148,-1.57042 2.09419,1.80352 1.55387,4.62842 -0.47478,2.48232 -2.12916,3.85894 -2.40352,2 z m -145.97909,-2.08224 c 0.53932,-1.00774 1.74969,-2.47024 2.68971,-3.25 1.6104,-1.33586 1.61207,-1.23002 0.0289,1.83224 -0.92412,1.7875 -2.13449,3.25 -2.68971,3.25 -0.66882,0 -0.67858,-0.61834 -0.0289,-1.83224 z m 44.77728,-3.81359 C 338.3834,258.05007 339.00601,257 341.08333,257 c 1.16375,0 1.90861,0.52417 1.6875,1.1875 -0.48711,1.46134 -2.15686,2.09314 -3.08333,1.16667 z M 383,259.05957 c 0,-1.58686 3.07563,-3.33199 7.26036,-4.11956 2.3318,-0.43886 5.08854,-1.12659 6.12609,-1.52831 3.41478,-1.32214 1.26202,1.96581 -2.44091,3.72804 C 389.9625,259.03527 383,260.25649 383,259.05957 z m -19.15584,-5.76838 c 1.55815,-2.91143 1.49827,-3.10323 -1.08394,-3.47164 -1.23189,-0.17575 -2.38988,-1.10705 -2.57333,-2.06955 -0.25969,-1.36251 0.35391,-1.75 2.77117,-1.75 1.70759,0 3.29421,0.5625 3.52582,1.25 1.17333,3.48287 0.83589,5.08057 -1.38972,6.58001 -2.34423,1.57937 -2.37624,1.56558 -1.25,-0.53882 z M 382,254 c 0,-0.55 0.45,-1 1,-1 0.55,0 1,0.45 1,1 0,0.55 -0.45,1 -1,1 -0.55,0 -1,-0.45 -1,-1 z m 5,-3 c -2.61859,-2.61859 -2.52292,-3.80083 0.5,-6.17866 3.01138,-2.36876 3.35735,-5.82134 0.58333,-5.82134 -2.30701,0 -3.1433,-1.85793 -1.91302,-4.25 0.65207,-1.26783 2.12054,-1.75 5.32969,-1.75 4.91254,0 5.83396,-0.97265 6.78353,-7.1607 0.62133,-4.04901 0.20902,-4.96554 -1.87418,-4.16614 -0.90561,0.34752 -1.18798,1.36068 -0.80475,2.88758 0.49522,1.97312 0.13144,2.45512 -2.25711,2.99067 -4.4835,1.00527 -11.3598,3.65949 -11.94853,4.61207 -0.29465,0.47675 -2.15962,1.54533 -4.14439,2.37462 -5.13245,2.14447 -6.5103,0.38203 -2.76089,-3.53151 1.58428,-1.65362 2.57251,-3.00659 2.19608,-3.00659 -0.92418,0 -13.16077,5.80434 -13.99473,6.6383 -0.36438,0.36438 0.45518,1.69834 1.82123,2.96435 2.82853,2.62139 3.05394,3.67923 1.12511,5.28003 -3.31543,2.75155 -9.40675,-7.0506 -6.53313,-10.51311 0.61353,-0.73925 0.87533,-1.97 0.58178,-2.73498 -0.68058,-1.77357 1.14067,-3.63679 2.89634,-2.96308 1.67482,0.64269 7.03492,-3.00258 10.64003,-7.23602 1.49952,-1.76086 3.97452,-3.45151 5.5,-3.757 1.52549,-0.30549 4.68181,-0.97191 7.01405,-1.48094 5.40748,-1.18022 7.2203,0.41882 5.5354,4.88262 -0.98497,2.60948 -0.89334,2.91983 0.86205,2.91983 1.26942,0 2.4468,-1.14956 3.32865,-3.25 1.09709,-2.61311 2.55684,-3.72042 7.44897,-5.6505 3.34647,-1.32028 6.08449,-2.7969 6.08449,-3.28139 0,-1.57078 -2.98353,-2.07667 -4.55512,-0.77237 -1.06344,0.88258 -1.84806,0.95108 -2.57439,0.22475 -1.67495,-1.67495 0.59489,-2.4455 8.09089,-2.74662 3.75409,-0.15081 7.31589,-0.5772 7.91511,-0.94754 0.59922,-0.37033 2.64662,-0.38122 4.54979,-0.0242 2.79634,0.52459 3.51915,1.15751 3.76701,3.2985 L 426.5,211.5 l 2.25,-2.25 c 2.92545,-2.92545 2.84754,-4.25 -0.25,-4.25 -2.80918,0 -2.94571,-0.29867 -1.43061,-3.12966 0.77855,-1.45473 0.74525,-2.38876 -0.12244,-3.43426 -0.96307,-1.16043 -0.83242,-1.44247 0.68061,-1.46935 1.02984,-0.0183 2.79488,-0.8058 3.92231,-1.75 1.76412,-1.47741 2.0427,-2.83929 1.9984,-9.76944 -0.0418,-6.54044 0.23052,-8.04282 1.45013,-8 0.82588,0.029 1.5016,-0.39729 1.5016,-0.94729 0,-0.55 -1.11476,-0.90128 -2.47724,-0.78062 -1.49307,0.13222 -3.49268,-0.75347 -5.03317,-2.22936 -2.43656,-2.33437 -2.85794,-2.40227 -9.02276,-1.45387 -12.6372,1.94412 -16.83883,5.93378 -16.73866,15.89422 0.0531,5.28269 -2.61197,8.06963 -7.71683,8.06963 -1.7969,0 -4.92213,0.69152 -6.94495,1.53671 -2.94257,1.22948 -3.55297,1.9302 -3.05318,3.50492 0.78658,2.47829 -2.00798,3.75499 -4.63211,2.11619 -2.96318,-1.85054 -6.37989,-1.35167 -9.30419,1.35848 -1.49332,1.38397 -3.08234,2.28936 -3.53115,2.01198 -0.44881,-0.27738 -2.1748,-0.0307 -3.83553,0.54828 -2.26378,0.78916 -3.55632,2.30045 -5.16433,6.03839 -1.17966,2.74218 -2.79757,5.23626 -3.59537,5.54241 C 354.65274,218.9635 354,219.76239 354,220.43267 354,221.95841 349.77901,226 348.18555,226 c -2.12035,0 -1.25747,-1.79511 2.25432,-4.68982 2.55955,-2.1098 3.42674,-3.59995 3.38857,-5.8228 -0.0607,-3.53635 3.21323,-11.44715 5.53493,-13.37399 1.79238,-1.48754 2.16991,-3.75429 0.71286,-4.28006 -0.50807,-0.18333 -0.25285,-1.90833 0.56716,-3.83333 1.37157,-3.21979 1.59676,-3.35674 2.81287,-1.71053 1.20416,1.63003 1.46256,1.64885 2.9001,0.21131 1.04047,-1.04047 1.38523,-2.54285 1.01188,-4.4096 -0.5272,-2.63596 -0.30055,-2.88007 3.28273,-3.5358 4.59749,-0.84133 12.3546,-5.1474 12.33538,-6.84753 -0.008,-0.66432 -0.29733,-2.2675 -0.64404,-3.56263 -0.56423,-2.1077 -1.03495,-2.29008 -4.48634,-1.73818 -4.43463,0.70913 -5.29186,-0.91062 -1.28764,-2.43302 1.41259,-0.53706 4.00009,-2.04447 5.75,-3.34979 1.79006,-1.33526 4.64713,-2.40018 6.53218,-2.43474 1.84278,-0.0338 4.09278,-0.65275 5,-1.37546 5.61293,-4.47141 8.37452,-4.75328 11.67531,-1.19167 1.58943,1.71503 3.10759,2.44526 4.38773,2.1105 1.07657,-0.28153 4.79894,0.0976 8.27192,0.8425 3.47299,0.74491 7.9675,1.37019 9.9878,1.38951 2.40114,0.023 4.68151,0.8835 6.58453,2.48478 1.87785,1.58011 3.64978,2.25653 4.9918,1.90558 1.4871,-0.38888 2.55441,0.17911 3.74179,1.99129 0.91368,1.39445 2.81901,2.67444 4.23406,2.84442 1.41506,0.16998 3.02668,1.20906 3.58138,2.30906 1.60127,3.17535 2.45237,4.72459 5.036,9.16686 C 458.89364,191.05272 458.41926,193 454.8,193 c -0.99,0 -1.8,0.675 -1.8,1.5 0,0.83333 0.88889,1.5 2,1.5 1.1,0 2,0.48032 2,1.06739 0,0.64167 0.89739,0.79626 2.25,0.3876 3.64183,-1.10029 4.1704,-2.16444 2.40977,-4.8515 -1.9759,-3.0156 -1.71127,-3.21066 5.58751,-4.11844 4.8286,-0.60056 6.22227,-1.2558 8.71887,-4.09927 3.17945,-3.6212 3.12223,-6.38578 -0.13216,-6.38578 -1.12074,0 -1.67295,-0.45155 -1.29671,-1.06032 1.3029,-2.10813 23.46272,1.18049 23.46272,3.48197 0,0.21715 -3.6,1.20756 -8,2.20093 -4.4,0.99336 -8,2.15966 -8,2.59177 0,0.43211 0.54,0.78565 1.2,0.78565 3.20905,0 -1.41927,2.14054 -6.37082,2.94642 -3.03783,0.49442 -7.27965,1.69272 -9.42626,2.66288 -3.84948,1.73978 -3.86527,1.76913 -1.15292,2.14374 3.30788,0.45686 3.33055,0.62291 0.60716,4.44756 -1.93318,2.7149 -2.52247,2.94863 -6.02294,2.38888 -3.79999,-0.60764 -3.86635,-0.56567 -3.21416,2.03287 0.52334,2.08515 0.15353,3.0473 -1.72706,4.49325 -1.31615,1.01196 -1.8305,1.84993 -1.143,1.86216 0.6875,0.0122 1.25,0.70581 1.25,1.54129 0,1.1063 -0.65554,1.35452 -2.4126,0.91353 -1.9763,-0.49602 -3.43095,0.40473 -8.04389,4.98095 -3.09721,3.07256 -6.52279,5.58647 -7.6124,5.58647 -1.37212,0 -2.15411,0.86499 -2.54389,2.81392 -0.48299,2.41495 -0.95812,2.7559 -3.35101,2.4047 -3.55173,-0.52128 -11.96792,5.13888 -13.87878,9.33394 -0.73841,1.62109 -3.30711,4.5053 -5.70822,6.40934 -2.4011,1.90405 -4.49695,4.37905 -4.65743,5.5 C 407.6313,249.58286 406.825,250.5 406,250.5 c -1.49466,0 -1.54756,-0.86836 -0.41122,-6.75 0.48382,-2.5042 0.26465,-2.75 -2.45201,-2.75 -4.31386,0 -9.31545,4.43992 -8.52944,7.5716 0.48899,1.9483 0.10098,2.5888 -2.06779,3.41337 C 389.10372,253.29126 389.33182,253.33182 387,251 z m 23.68555,-19.17431 c 2.84338,-2.67122 2.95124,-4.4259 0.31445,-5.11544 -2.87301,-0.75131 -2.46584,-2.418 1.0327,-4.22716 1.66798,-0.86255 2.74219,-2.03831 2.38713,-2.61281 -0.44492,-0.71989 -0.98345,-0.70666 -1.7327,0.0426 C 412.08921,220.51079 410.115,221 408.3,221 c -2.87778,0 -3.3,0.329 -3.3,2.57143 0,1.41428 -0.675,3.24643 -1.5,4.07143 -2.15056,2.15056 -1.85061,4.28066 0.75,5.32598 3.33074,1.33879 3.90157,1.23739 6.43555,-1.14315 z M 425,227 c 0,-0.55 -0.42344,-1 -0.94098,-1 -0.51754,0 -1.2191,0.45 -1.55902,1 -0.33992,0.55 0.0835,1 0.94098,1 0.85746,0 1.55902,-0.45 1.55902,-1 z m 8.03517,-5.54238 c 0.81908,-0.98693 0.93386,-1.88859 0.3187,-2.50375 -1.28659,-1.28659 -4.89603,1.35988 -3.94763,2.89443 0.96927,1.5683 2.10455,1.44608 3.62893,-0.39068 z M 408,216.94098 c 0,-0.58246 -0.45,-0.7809 -1,-0.44098 -1.28138,0.79194 -1.28138,1.5 0,1.5 0.55,0 1,-0.47656 1,-1.05902 z m 35.75418,-16.5981 c 1.40406,-2.54529 3.23526,-4.3744 4.76337,-4.75793 2.60864,-0.65473 3.21909,-2.01165 1.40842,-3.1307 -0.59071,-0.36508 -2.06017,0.26265 -3.26545,1.39495 -2.65486,2.49411 -5.95488,1.41533 -3.76013,-1.22918 1.64969,-1.98775 0.59332,-3.62002 -2.34278,-3.62002 -2.53292,0 -4.25411,3.7035 -2.52486,5.43275 1.86229,1.86229 0.97694,3.43376 -1.88864,3.35228 -3.65737,-0.10398 -5.14411,0.84226 -5.14411,3.27399 0,1.48132 0.69647,1.94098 2.94098,1.94098 1.61754,0 3.2345,0.47492 3.59324,1.05537 1.24535,2.01503 3.95147,0.39983 6.21996,-3.71249 z m -65.81206,-5.91262 c -1.54351,-1.85982 -2.58241,-1.81004 -3.33838,0.15998 -0.93713,2.44214 0.25909,3.55354 2.52152,2.34273 1.60041,-0.85652 1.76488,-1.36042 0.81686,-2.50271 z m 9.95422,-3.9345 c 3.43482,-3.66467 4.67496,-4.39048 6.65337,-3.89393 3.87111,0.97159 4.3992,-2.25665 0.84463,-5.16321 -3.73135,-3.05111 -7.14662,-3.04159 -10.89434,0.0304 -2.21663,1.81695 -2.55844,2.46846 -1.30902,2.49504 2.90703,0.0618 2.82212,1.56438 -0.30265,5.35527 -2.92855,3.55283 -3.11284,5.68069 -0.492,5.68069 0.70307,0 3.17807,-2.02691 5.50001,-4.50424 z M 445.5,183 c -0.33992,-0.55 -0.81648,-1 -1.05902,-1 -0.24254,0 -0.44098,0.45 -0.44098,1 0,0.55 0.47656,1 1.05902,1 0.58246,0 0.7809,-0.45 0.44098,-1 z m -45.75,-4.98635 c 0.6875,-0.008 1.25,-0.51243 1.25,-1.12206 0,-0.67284 -0.9499,-0.87 -2.41724,-0.50172 -1.50971,0.37892 -2.57498,0.13804 -2.83738,-0.64159 -0.32467,-0.96462 -0.8087,-0.92748 -2.13009,0.16345 -1.35204,1.11623 -1.43841,1.58991 -0.41262,2.263 0.71353,0.4682 2.19733,0.62657 3.29733,0.35193 1.1,-0.27464 2.5625,-0.5055 3.25,-0.51301 z m 7.16667,-5.60283 c 0.22916,-0.22595 0.13765,-0.68984 -0.20338,-1.03086 C 405.74396,170.41062 399,171.96399 399,173.1566 c 0,0.98178 6.81572,0.3397 7.91667,-0.74578 z M 389.26631,169.3133 C 390.68485,168.47752 388.90277,167 386.47617,167 c -1.4201,0 -2.86602,0.85992 -3.52904,2.0988 -1.06328,1.98674 -0.94503,2.06054 2.21481,1.3824 1.83593,-0.39402 3.6829,-0.91957 4.10437,-1.1679 z M 426.5,249 c 0.33992,-0.55 1.52768,-1 2.63946,-1 1.42742,0 2.47992,-1.16721 3.5817,-3.97205 1.54442,-3.93171 3.27884,-4.54322 3.27884,-1.15602 0,2.4559 -5.15436,7.12807 -7.86374,7.12807 -1.24822,0 -1.97847,-0.44629 -1.63626,-1 z m 12.5,-7.30887 c 0,-2.6223 2.4901,-6.53436 3.51004,-5.51442 C 443.33605,237.00272 440.91136,244 439.79911,244 439.3596,244 439,242.96101 439,241.69113 z m -89.54112,-7.75766 c -0.36253,-0.58659 -0.41903,-1.30665 -0.12555,-1.60014 0.71632,-0.71631 2.66667,0.54583 2.66667,1.72569 0,1.27797 -1.72641,1.19267 -2.54112,-0.12555 z m 89.72862,-4.99597 c 0.24063,-0.72188 1.02812,-1.50938 1.75,-1.75 0.75,-0.25 1.125,0.125 0.875,0.875 -0.24063,0.72187 -1.02813,1.50937 -1.75,1.75 -0.75,0.25 -1.125,-0.125 -0.875,-0.875 z m 12.3625,-5.82511 c 0.5225,-0.48818 2.075,-1.20972 3.45,-1.60342 2.42853,-0.69536 2.44282,-0.6709 0.5,0.8558 -2.10697,1.65568 -5.63699,2.32382 -3.95,0.74762 z M 385.6201,211.19433 C 384.87806,209.99368 390.56283,204 392.44363,204 c 0.856,0 1.55637,0.81714 1.55637,1.81586 0,1.98727 -7.50052,6.80133 -8.3799,5.37847 z m 32.14711,-18.24976 c -6.2893,-3.2465 -8.33397,-6.80638 -5.52355,-9.6168 1.25414,-1.25414 1.84577,-1.28887 3.57371,-0.20975 1.76666,1.1033 2.37421,1.01858 4.13717,-0.57688 2.02571,-1.83324 2.11546,-1.82401 4.55594,0.4687 2.99021,2.80916 3.04844,3.46415 0.58625,6.59432 -1.0803,1.37338 -1.67847,3.27927 -1.38337,4.40773 0.63917,2.4442 0.97247,2.50403 -5.94615,-1.06732 z m 34.25526,-21.90258 c -0.8421,-1.57348 -0.66454,-2.16318 0.90413,-3.00271 2.38754,-1.27777 3.11881,-0.28077 1.98821,2.71072 -1.0422,2.75758 -1.5456,2.8084 -2.89234,0.29199 z"
       style="fill:#111111" />
  </g>
</svg>
