<?xml version="1.0" encoding="UTF-8" standalone="no"?>
<!-- Created with Inkscape (http://www.inkscape.org/) -->

<svg
   xmlns:dc="http://purl.org/dc/elements/1.1/"
   xmlns:cc="http://creativecommons.org/ns#"
   xmlns:rdf="http://www.w3.org/1999/02/22-rdf-syntax-ns#"
   xmlns:svg="http://www.w3.org/2000/svg"
   xmlns="http://www.w3.org/2000/svg"
   xmlns:xlink="http://www.w3.org/1999/xlink"
   xmlns:sodipodi="http://sodipodi.sourceforge.net/DTD/sodipodi-0.dtd"
   xmlns:inkscape="http://www.inkscape.org/namespaces/inkscape"
   id="svg2"
   version="1.1"
   inkscape:version="0.48.3.1 r9886"
   width="1284"
   height="850"
   sodipodi:docname="hantologie-_0010_outil.svg">
  <metadata
     id="metadata8">
    <rdf:RDF>
      <cc:Work
         rdf:about="">
        <dc:format>image/svg+xml</dc:format>
        <dc:type
           rdf:resource="http://purl.org/dc/dcmitype/StillImage" />
        <dc:title />
      </cc:Work>
    </rdf:RDF>
  </metadata>
  <defs
     id="defs6" />
  <sodipodi:namedview
     pagecolor="#ffffff"
     bordercolor="#666666"
     borderopacity="1"
     objecttolerance="10"
     gridtolerance="10"
     guidetolerance="10"
     inkscape:pageopacity="0"
     inkscape:pageshadow="2"
     inkscape:window-width="640"
     inkscape:window-height="480"
     id="namedview4"
     showgrid="false"
     inkscape:zoom="0.35245198"
     inkscape:cx="724.74835"
     inkscape:cy="260.6186"
     inkscape:current-layer="g3006" />
  <g
     inkscape:groupmode="layer"
     id="layer1"
     inkscape:label="XX_hantologie-_0010_outil_LEVEL"
     style="display:none">
    <image
       width="1284"
       height="850"
       xlink:href="../px/hantologie-_0010_outil_LEVEL.png"
       id="image10"
       x="0"
       y="0" />
  </g>
  <g
     inkscape:label="hantologie-_0010_outil_TRACE-01"
     id="g3006"
     inkscape:groupmode="layer">
    <path
       inkscape:connector-curvature="0"
       id="path3022"
       d="m 1060,593.01837 c -23.3158,-1.75863 -51.9253,-7.66007 -68.38335,-14.10582 C 988.9308,577.86065 985.92977,577 984.94769,577 c -0.98209,0 -3.05958,-0.65678 -4.61665,-1.45952 C 978.77397,574.73774 974.125,572.86107 970,571.37009 959.73942,567.6614 946.7483,561.30162 945.73518,559.49128 945.27617,558.67108 944.12299,558 943.17255,558 c -0.95044,0 -2.48924,-0.7875 -3.41957,-1.75 -0.93032,-0.9625 -2.94283,-2.74507 -4.47224,-3.96126 -1.52941,-1.2162 -5.03074,-4.20307 -7.78074,-6.63749 -8.39145,-7.42847 -20.74784,-15.07724 -30.10632,-18.63619 -4.89152,-1.8602 -10.24368,-4.28332 -11.89368,-5.3847 -4.68373,-3.12642 -9.67731,-8.53445 -8.95682,-9.70022 0.88309,-1.42888 -2.27439,-4.7575 -6.54318,-6.8978 -4.13098,-2.07121 -23.79078,-9.22303 -40,-14.55115 -13.15404,-4.32385 -45.40712,-17.14352 -53.83457,-21.39768 -3.11933,-1.57463 -6.76816,-3.75099 -8.10852,-4.83634 l -2.43701,-1.97338 2.2487,-1.20347 c 1.27819,-0.68407 3.52523,-0.92309 5.20646,-0.55383 2.90725,0.63854 2.93674,0.60352 1.72729,-2.05094 -1.11885,-2.4556 -0.97922,-2.91667 1.53936,-5.08305 1.5234,-1.31038 3.75722,-2.39059 4.96405,-2.40048 2.58913,-0.0212 25.48256,5.10701 56.19424,12.58777 12.1,2.94731 31,7.4201 42,9.93952 11,2.51942 26.69023,6.19064 34.86718,8.15828 l 14.86718,3.57752 3.63282,-3.99505 c 5.02788,-5.5292 11.17378,-10.00041 16.16822,-11.76255 7.36103,-2.59712 8.09613,-2.41807 22.10353,5.38397 4.18762,2.33248 7.43791,3.23608 31.36107,8.71855 15.5167,3.55595 28.2581,3.73182 40.6116,0.56056 25.005,-6.41903 53.1366,-3.5842 75.3657,7.59464 9.2187,4.63604 23.948,14.48658 29.3552,19.63202 6.6301,6.3091 7.7942,9.42226 8.5742,22.93026 l 0.6817,11.8075 -4.6204,9.1925 c -2.5413,5.05587 -5.8237,10.47195 -7.2943,12.03574 -4.0914,4.35081 -11.306,7.54176 -19.8936,8.79872 -4.2791,0.62633 -8.883,1.54883 -10.2309,2.05001 -2.4209,0.9001 -2.3996,0.94182 1.75,3.41631 4.3433,2.59002 5.6029,6.0559 2.9508,8.11943 -3.8976,3.0327 -38.1558,4.91942 -59.75,3.29065 z m -40,-47.98828 c -6.2972,-4.84991 -16.1082,-8.92796 -28.80235,-11.97199 -7.3163,-1.75442 -13.76024,-3.03724 -14.31987,-2.85069 -2.27039,0.75679 39.23602,16.44502 44.12222,16.67693 0.9468,0.0449 0.5781,-0.63886 -1,-1.85425 z m 128.7452,-12.97792 c 1.9442,-6.22952 -0.4309,-10.35191 -6.9803,-12.11548 -4.9692,-1.33807 -6.7705,-0.0208 -6.7496,4.93575 0.019,4.55888 0.756,5.7017 5.5908,8.67248 5.4307,3.33699 6.7046,3.10335 8.1391,-1.49275 z M 930.04603,510.09023 c -1.13895,-2.23254 -2.42154,-5.74713 -2.85018,-7.81021 -0.87842,-4.22786 1.84556,-3.2585 -28.69585,-10.2117 -7.15,-1.6278 -22.675,-5.18157 -34.5,-7.89727 -11.825,-2.7157 -28.25,-6.37498 -36.5,-8.13174 -8.25,-1.75676 -15.9,-3.40577 -17,-3.66446 -4.8597,-1.14288 1.92652,1.80467 16.05419,6.97303 8.2202,3.00721 23.94581,8.92515 34.94581,13.15097 33.04881,12.69622 45.59105,17.19379 54,19.36409 11.98721,3.09382 15.96716,3.83072 16.30843,3.01957 0.16964,-0.40321 -0.62344,-2.55973 -1.7624,-4.79228 z M 580.75051,587.44489 C 580.61273,587.32236 575.325,586.91202 569,586.53304 c -6.325,-0.37899 -14.19435,-0.85973 -17.48744,-1.06833 -3.29309,-0.20859 -11.26051,-1.31483 -17.70538,-2.45832 -9.47004,-1.68023 -12.09459,-1.84384 -13.68136,-0.85289 -1.57362,0.98274 -2.2899,0.95521 -3.60792,-0.13865 -1.5391,-1.27734 -12.705,-2.21351 -24.37554,-2.04369 -2.39671,0.0349 -5.94843,-0.37583 -7.89273,-0.91268 -2.21597,-0.61186 -4.18893,-0.62615 -5.28735,-0.0383 -1.21601,0.65078 -2.09877,0.52028 -2.88447,-0.42644 -0.66532,-0.80166 -3.82963,-1.53598 -7.67347,-1.78074 -4.00604,-0.25508 -6.86318,-0.9374 -7.37187,-1.76048 -0.45684,-0.73918 -1.49228,-1.09006 -2.30098,-0.77974 -0.80869,0.31033 -2.88998,-0.2991 -4.62509,-1.35428 -1.73511,-1.05517 -3.83817,-1.9185 -4.67348,-1.9185 -0.8353,0 -3.86193,-1.74501 -6.72583,-3.8778 -6.34484,-4.72509 -8.58024,-5.43272 -25.68599,-8.13104 -7.4134,-1.16942 -13.9384,-2.4869 -14.5,-2.92773 -0.56161,-0.44083 -3.3836,-1.35533 -6.2711,-2.03221 -3.24786,-0.76136 -5.25,-1.76471 -5.25,-2.63096 0,-0.77014 0.45,-1.40026 1,-1.40026 0.55,0 1,-0.45 1,-1 0,-0.55 -0.60526,-1 -1.34501,-1 -0.73976,0 -2.19067,-0.93444 -3.22426,-2.07654 -1.84783,-2.04183 -1.83819,-2.10751 0.57628,-3.92875 1.55178,-1.1705 3.40756,-1.6618 5.04224,-1.33486 1.83958,0.36792 3.47528,-0.23034 5.66309,-2.07125 1.692,-1.42373 3.55073,-2.5886 4.13049,-2.5886 0.57977,0 2.26802,-1.125 3.75167,-2.5 3.18333,-2.95021 5.95372,-3.37103 4.94859,-0.75169 -0.41915,1.09228 0.48846,0.63758 2.41874,-1.21174 1.6993,-1.62804 2.86718,-3.53978 2.59529,-4.24832 -0.27189,-0.70854 0.0264,-1.28825 0.66283,-1.28825 0.63644,0 0.27316,-0.82358 -0.8073,-1.83018 -2.7754,-2.58568 -8.33299,-3.54383 -10.32554,-1.78017 -1.36876,1.21153 -2.68774,1.12774 -9.58711,-0.60903 -4.4,-1.10761 -8.15,-2.41136 -8.33333,-2.89723 C 388.45541,516.99843 387,518.12851 387,520.56574 c 0,1.41116 -0.43204,3.37302 -0.96009,4.35969 -1.46759,2.74221 -9.45537,5.68427 -20.73858,7.63843 l -10.19867,1.76634 -0.68301,5.46657 c -1.15512,9.24533 -2.15183,9.65375 -32.41965,13.28447 -16.83163,2.01901 -19.94722,2.67548 -17.25799,3.63633 1.93858,0.69265 -0.26912,3.94693 -3.17183,4.67546 -1.87688,0.47107 -2.64767,1.50312 -3.15926,4.2301 -0.67343,3.58969 -0.69766,3.60466 -5.0438,3.11478 -3.72659,-0.42004 -4.36712,-0.2272 -4.36712,1.31477 0,1.16964 -1.67542,2.60977 -4.75,4.08291 -6.35946,3.04706 -9.505,5.85223 -8.25339,7.36033 0.6507,0.78404 0.564,1.22172 -0.26249,1.32506 -5.81566,0.72718 -6.23139,0.64665 -6.07751,-1.1773 0.12914,-1.53071 -0.34643,-1.75572 -2.71123,-1.28276 -1.57731,0.31547 -3.13684,0.13831 -3.46562,-0.39367 -0.32879,-0.53199 -2.70874,-0.9738 -5.28878,-0.9818 -5.06108,-0.0157 -12.75569,-2.29765 -15.21316,-4.51168 -0.83719,-0.75426 -4.66219,-1.67581 -8.5,-2.04789 -5.18545,-0.50272 -7.61999,-1.25456 -9.47782,-2.92693 -2.08071,-1.87301 -4.09329,-2.35633 -12,-2.88177 -5.225,-0.34723 -10.85,-0.84063 -12.5,-1.09645 -1.65,-0.25582 -7.95,-0.9515 -14,-1.54595 -6.05,-0.59445 -15.5,-1.52945 -21,-2.07777 -5.5,-0.54832 -10.675,-1.00291 -11.5,-1.01019 -5.16462,-0.0456 -15.58646,-3.5263 -20.90395,-6.98153 C 129.79049,551.75738 126.70123,550 126.23103,550 c -0.4702,0 -1.91255,-1.43053 -3.20521,-3.17895 -1.82602,-2.46982 -2.36914,-4.53323 -2.43476,-9.25 C 120.47914,529.52588 121.69483,524 123.5767,524 c 0.81734,0 1.73775,-0.7875 2.04536,-1.75 0.30761,-0.9625 0.92769,-2.65 1.37794,-3.75 0.45025,-1.1 1.07081,-2.78876 1.37901,-3.7528 0.30821,-0.96404 2.71151,-3.08568 5.34068,-4.71475 2.62917,-1.62907 5.25513,-3.31531 5.83546,-3.7472 0.58033,-0.43189 4.11761,-2.36025 7.86062,-4.28525 3.743,-1.925 8.09194,-4.9625 9.6643,-6.75 1.57235,-1.7875 3.72272,-3.25 4.77859,-3.25 1.05588,0 2.96541,-0.84671 4.24342,-1.88157 1.81492,-1.46964 2.81041,-1.65979 4.54701,-0.86855 3.10356,1.41408 5.35091,0.27233 5.35091,-2.7185 0,-1.39226 0.45,-2.53138 1,-2.53138 0.55,0 1,0.45 1,1 0,1.98096 2.07006,0.94594 3,-1.5 0.52277,-1.375 1.09149,-2.5 1.26381,-2.5 0.17232,0 2.06704,0.8941 4.21049,1.9869 3.51611,1.79261 4.06296,1.83686 5.59258,0.45257 1.52597,-1.38098 1.85795,-1.37179 3.32166,0.0919 1.50167,1.50167 1.93014,1.48615 5.59306,-0.20258 2.18174,-1.00585 3.97841,-2.42011 3.9926,-3.14279 0.016,-0.814 1.07217,-1.23225 2.7758,-1.0992 1.5125,0.11812 6.00393,0.14691 9.98095,0.064 6.82406,-0.14231 7.26625,-0.29147 7.85841,-2.6508 0.81456,-3.24547 1.49762,-3.15367 4.8935,0.65762 2.63906,2.9619 2.89531,3.04568 4.13404,1.35162 1.11911,-1.53048 1.56583,-1.60248 2.92806,-0.47193 1.34591,1.11701 1.75101,1.10183 2.48965,-0.0933 0.48519,-0.78507 0.63662,-2.40575 0.3365,-3.60153 -0.52483,-2.09107 -0.38546,-2.13346 3.64832,-1.10958 4.03284,1.02364 4.17346,1.19104 3.65975,4.35663 -0.42029,2.58999 -0.22707,3.17421 0.90603,2.7394 0.79214,-0.30398 1.99703,-0.0922 2.67752,0.47054 1.8098,1.49669 6.73135,0.28512 6.76768,-1.66605 0.0278,-1.49577 0.11191,-1.49379 0.99764,0.0236 0.59535,1.01991 1.73278,1.4568 2.95835,1.13631 1.09511,-0.28638 1.74461,-0.91953 1.44334,-1.407 -0.30128,-0.48747 -0.0712,-0.88631 0.51124,-0.88631 0.58246,0 1.05902,0.45532 1.05902,1.01182 0,0.95811 2.88577,0.79371 12,-0.68362 2.91632,-0.4727 3.16647,-0.69208 1.5,-1.31548 -1.68568,-0.63059 -1.3802,-0.92186 1.94377,-1.85334 4.11201,-1.15232 6.04251,-0.69598 3.55623,0.84062 -2.70068,1.66911 -0.51077,1.83188 8,0.59462 7.02819,-1.02174 8.44912,-1.52651 8.20616,-2.91516 -0.19606,-1.12065 0.38622,-1.67946 1.75,-1.67946 1.12411,0 2.04384,0.45 2.04384,1 0,0.55 0.40787,1 0.90638,1 0.49851,0 0.66881,-0.90846 0.37845,-2.0188 -0.38695,-1.47971 -1.2298,-1.94701 -3.15638,-1.75 -1.89742,0.19404 -2.632,-0.19828 -2.6412,-1.41062 -0.0186,-2.44464 -1.33673,-3.37641 -2.0707,-1.46371 C 297.0031,468.43431 295.61789,469 293.39301,469 290.66667,469 290,468.60704 290,467 c 0,-1.46667 -0.66667,-2 -2.5,-2 -1.375,0 -2.5,0.45 -2.5,1 0,1.77576 -3.75098,1.06026 -4.23973,-0.80873 -0.56913,-2.17637 -11.34246,-5.00908 -12.94723,-3.40431 -0.63641,0.63641 -2.00251,0.59034 -3.91644,-0.13209 -2.18467,-0.82462 -3.41749,-0.81066 -4.80264,0.0544 -1.02493,0.64008 -2.75861,0.9297 -3.85263,0.64361 -1.09402,-0.28609 -7.78337,0.0266 -14.86523,0.69497 -7.08185,0.66832 -14.0011,1.18029 -15.3761,1.13771 -1.375,-0.0426 -4.46226,0.65338 -6.86058,1.5466 -4.05404,1.50987 -4.42661,1.50607 -5.29969,-0.0541 C 212.23442,464.59646 210.63278,464 208.33368,464 c -3.07461,0 -3.49475,-0.27605 -3.04393,-2 0.33992,-1.29986 0.0307,-2 -0.88337,-2 C 203.63287,460 203,459.05787 203,457.90638 c 0,-1.2826 -0.80954,-2.30532 -2.08979,-2.64011 -1.57065,-0.41074 -1.9766,-1.13867 -1.63411,-2.93025 0.25062,-1.31106 0.066,-2.62457 -0.41021,-2.9189 -1.1378,-0.7032 -1.12077,-7.14156 0.0207,-7.84706 0.48765,-0.30138 1.18055,-2.11469 1.53979,-4.02958 1.41084,-7.52045 11.78109,-15.43712 20.69121,-15.79572 6.22542,-0.25055 29.57883,0.83317 48.38236,2.24519 7.15,0.53692 19.3,1.43528 27,1.99635 7.7,0.56107 18.09155,1.51531 23.09234,2.12054 6.86852,0.83128 10.50611,0.80692 14.87271,-0.0996 l 5.78038,-1.20001 -0.63841,-4.65362 c -3.01055,-21.94502 -0.46356,-42.60806 7.65854,-62.13173 4.64655,-11.16923 15.79628,-27.25298 25.81363,-37.23675 54.65395,-52.84184 132.85786,-24.65506 133.33187,44.58296 0.006,8.17746 0.17792,14.36496 0.3829,13.75 0.20499,-0.61496 0.83052,-1.11811 1.39007,-1.11811 0.61975,0 0.7943,1.66098 0.44661,4.25 -0.31391,2.3375 -0.96142,7.625 -1.43891,11.75 -0.70019,6.04893 -1.89021,9.52618 -6.15073,17.97252 -4.7657,9.44786 -5.11551,10.57305 -3.57516,11.5 4.06938,2.44887 4.69649,3.31882 5.22322,7.24595 1.01222,7.54666 -5.11859,13.95828 -15.14565,15.83936 -3.13395,0.58794 -4.11701,0.37821 -5.20564,-1.11059 -1.27352,-1.74163 -1.508,-1.68113 -4.58993,1.18427 -4.55415,4.2342 -9.80291,8.14486 -20.46976,15.25127 -9.66776,6.4408 -11.76589,8.73337 -10.22362,11.1711 1.46738,2.31935 1.23693,2.53076 -4.80446,4.40744 -7.27294,2.25924 -8.53009,2.87895 -9.05897,4.4656 -0.31362,0.94085 0.3562,1.1118 2.50609,0.6396 3.20271,-0.70343 8.30288,2.35001 8.30288,4.97088 0,1.88654 2.38393,2.95876 9.5,4.27284 11.84303,2.18696 11.06944,2.35049 10.6203,-2.24502 -0.31488,-3.22185 -0.56145,-3.6503 -1.18852,-2.06522 -0.74972,1.89511 -0.7949,1.882 -0.86149,-0.25 -0.0426,-1.36457 0.52,-2.25 1.42971,-2.25 0.825,0 1.5,-0.675 1.5,-1.5 0,-0.825 0.39752,-1.5 0.88337,-1.5 0.48585,0 1.13493,-0.96198 1.44239,-2.13772 0.54664,-2.09032 0.88828,-2.12716 15.40585,-1.66117 10.99031,0.35277 15.48601,0.87714 17.3076,2.01875 1.35343,0.84821 3.81079,1.88535 5.46079,2.30474 2.89494,0.73583 2.91732,0.7842 0.63904,1.38123 -1.5742,0.41252 2.4549,1.54191 12.09076,3.38915 l 14.45172,2.77046 4.90924,-2.14036 c 2.70008,-1.1772 7.38424,-2.48893 10.40924,-2.91497 3.025,-0.42604 8.16492,-1.75876 11.42204,-2.96161 3.91327,-1.44516 8.16142,-2.17992 12.52393,-2.16613 5.54573,0.0175 31.16163,3.50733 60.47449,8.23879 3.80625,0.61437 9.17421,0.85012 11.92879,0.52388 7.39709,-0.87605 7.6508,-0.41422 7.6508,13.92653 l 0,12.32667 -3.25,2.45997 c -1.7875,1.35298 -4.825,3.13917 -6.75,3.96931 -2.3968,1.0336 -2.88536,1.53506 -1.55,1.59093 1.50527,0.063 1.67917,0.3524 0.76249,1.26908 -1.75027,1.75027 -19.00272,1.97233 -22.26267,0.28654 -1.80546,-0.93364 -3.71763,-1.09026 -6.27344,-0.51383 -2.02201,0.45604 -3.73263,0.65155 -3.80138,0.43447 -0.0688,-0.21708 -0.19211,-0.95719 -0.27412,-1.64469 -0.16405,-1.37511 -0.97062,-1.34316 -7.60088,0.30106 -5.53802,1.37337 -6.5755,1.401 -16.24044,0.43263 l -7.74043,-0.77555 2.57566,-2.57566 c 1.67578,-1.67578 2.14546,-2.71906 1.34433,-2.98611 -0.67723,-0.22574 -2.008,0.61922 -2.95727,1.87769 -2.41145,3.19694 -4.64757,1.95812 -5.80436,-3.21566 l -0.96331,-4.3084 -0.10709,4.09501 c -0.0764,2.92082 0.46639,4.614 1.89291,5.90499 4.5989,4.16195 1.93795,4.82526 -20,4.98556 -18.36957,0.13423 -18.54583,0.15654 -25,3.16441 l -6.5,3.02923 3.5,0.63659 c 1.925,0.35012 11.6,1.57289 21.5,2.71727 9.9,1.14437 28.38194,3.39106 41.07097,4.99264 17.81273,2.24827 23.90616,2.68134 26.73543,1.90014 2.54244,-0.702 4.2813,-0.68168 5.67903,0.0664 1.82922,0.97897 2.01457,2.07549 2.01457,11.91798 0,14.4749 -0.54183,16.79866 -4.38369,18.80057 -1.71397,0.89311 -4.46631,1.95249 -6.11631,2.35418 l -3,0.73035 3.25,0.10236 c 1.7875,0.0563 3.25,0.49163 3.25,0.96741 0,0.97353 -9.98773,4.49595 -17.35099,6.11924 -4.40901,0.97201 -16.29293,1.99918 -16.8985,1.4606 z m -6.31522,-78.34293 c -0.62769,-0.62769 -2.41268,1.9121 -2.38817,3.39804 0.009,0.55 0.67253,0.13285 1.47435,-0.927 0.80183,-1.05985 1.21305,-2.17182 0.91382,-2.47104 z m 7.5494,3.14804 c -0.008,-0.4125 -0.45153,-1.425 -0.98469,-2.25 -0.78387,-1.21296 -0.9723,-1.06944 -0.98469,0.75 -0.008,1.2375 0.43469,2.25 0.98469,2.25 0.55,0 0.99311,-0.3375 0.98469,-0.75 z M 446,509 c 0,-0.55 -0.675,-1 -1.5,-1 -0.825,0 -1.5,0.45 -1.5,1 0,0.55 0.675,1 1.5,1 0.825,0 1.5,-0.45 1.5,-1 z m -87.16236,-8.5043 c 1.41823,-1.41824 -1.18296,-1.43688 -5.48203,-0.0393 l -4.85561,1.57851 4.92097,-0.52176 c 2.70653,-0.28696 5.14403,-0.74481 5.41667,-1.01745 z m -4.65014,-9.17881 c -0.72188,-0.28887 -1.58438,-0.25335 -1.91667,0.0789 -0.33229,0.33229 0.25834,0.56864 1.3125,0.52522 1.16495,-0.048 1.4019,-0.28494 0.60417,-0.60416 z m 5,-1 c -0.72188,-0.28887 -1.58438,-0.25335 -1.91667,0.0789 -0.33229,0.33229 0.25834,0.56864 1.3125,0.52522 1.16495,-0.048 1.4019,-0.28494 0.60417,-0.60416 z M 357,487.5 c 0,-0.825 -0.64844,-1.5 -1.44098,-1.5 -1.67065,0 -2.79841,1.42728 -1.86517,2.36052 C 354.88901,489.55568 357,489.00623 357,487.5 z m 18.65682,0.17652 C 376.0289,487.30443 372.90989,487 368.72568,487 c -4.1842,0 -7.87571,0.43374 -8.20335,0.96387 -0.6747,1.09169 14.03473,0.8124 15.13449,-0.28735 z M 477.75,481.31067 c -0.9625,-0.25152 -2.5375,-0.25152 -3.5,0 -0.9625,0.25153 -0.175,0.45733 1.75,0.45733 1.925,0 2.7125,-0.2058 1.75,-0.45733 z M 374.70214,471.75 c -0.37745,-4.01572 -0.5594,-4.23364 -3.3008,-3.95322 -6.47823,0.66267 -23.96793,4.45385 -24.90134,5.39779 -0.6735,0.68109 0.42803,0.77889 3.37374,0.29955 2.6758,-0.43543 4.61835,-0.31593 5.00385,0.30781 0.42103,0.68125 2.12198,0.69923 5.12626,0.0542 2.47288,-0.53096 5.38851,-0.96086 6.47917,-0.95534 1.09066,0.006 2.97331,-0.9203 4.18367,-2.05737 l 2.20066,-2.06741 0.67762,3.61201 c 0.92813,4.94737 1.645,4.55214 1.15717,-0.638 z M 315,472 c 0,-1.17371 -0.76862,-1.17371 -3.5,0 -1.77225,0.76156 -1.68684,0.86743 0.75,0.92971 C 313.7625,472.96837 315,472.55 315,472 z m 189.85943,-82.5 c 0,-2 0,-2 -0.85943,0 -0.47269,1.1 -0.85943,2.9 -0.85943,4 0,2 0,2 0.85943,0 0.47269,-1.1 0.85943,-2.9 0.85943,-4 z m 0.74474,-6.22917 c -0.33229,-0.33229 -0.56864,0.25834 -0.52522,1.3125 0.048,1.16495 0.28494,1.4019 0.60416,0.60417 0.28887,-0.72188 0.25335,-1.58438 -0.0789,-1.91667 z M 313.5,556 c 0.33992,-0.55 1.04148,-1 1.55902,-1 0.51754,0 0.94098,0.45 0.94098,1 0,0.55 -0.70156,1 -1.55902,1 -0.85746,0 -1.2809,-0.45 -0.94098,-1 z m 82,-21 c 0.33992,-0.55 1.04148,-1 1.55902,-1 0.51754,0 0.94098,0.45 0.94098,1 0,0.55 -0.70156,1 -1.55902,1 -0.85746,0 -1.2809,-0.45 -0.94098,-1 z m 383,-29.06841 c -2.2,-0.46112 -20.43568,-0.56405 -40.52374,-0.22872 -26.87457,0.44861 -37.09769,0.30251 -38.69628,-0.55303 l -2.17255,-1.16271 2.19628,-2.30421 c 4.15334,-4.35743 7.37106,-5.03338 29.69629,-6.23836 6.875,-0.37107 13.625,-0.80597 15,-0.96644 1.375,-0.16048 9.25,-0.62078 17.5,-1.02289 8.25,-0.40211 15.9,-0.83661 17,-0.96555 1.1,-0.12894 2.54684,-0.29186 3.2152,-0.36206 0.66837,-0.0702 2.82897,-1.54452 4.80134,-3.27628 2.52269,-2.21496 3.89999,-2.83481 4.64454,-2.09026 1.45709,1.45709 2.10763,14.40196 0.88533,17.61686 -0.87265,2.29524 -1.52973,2.60773 -5.27166,2.50706 C 784.42364,506.8218 780.7,506.39272 778.5,505.93159 z M 267,477 c 0,-0.55 1.125,-1 2.5,-1 1.59762,0 2.5,-0.56273 2.5,-1.55902 0,-0.85746 0.45122,-1.28015 1.0027,-0.93931 C 274.78732,474.60463 272.1169,478 269.46482,478 268.10917,478 267,477.55 267,477 z m 24.27083,-2.60417 c 0.33229,-0.33229 1.19479,-0.36781 1.91667,-0.0789 0.79773,0.31922 0.56078,0.55618 -0.60417,0.60416 -1.05416,0.0434 -1.64479,-0.19293 -1.3125,-0.52522 z"
       style="fill:#d5d5d5"
       sodipodi:nodetypes="ssssssssssssssssscsssssssscsssssssscccscsssssccscscscssssssssssscssssscssssscssssssssssssssssssssssssssscsssssssssssssssssssssssssssssssssssssssssssssscsssssscssssccsscssssssssssssscssssssssssscscssssssccsssssscsscccsssssssssssssssssscssssssssscssssssscsscsssccsscscsscsssscsssscssscsssccccsccscscssssssscssccccccccccsssscsscsssscssscscscsccsssssssssccsccssssssssssssscssssssssscsssssssccccc" />
    <path
       inkscape:connector-curvature="0"
       id="path3020"
       d="m 1064,589.57588 c -9.4902,-1.19077 -21.6668,-3.24261 -32.5,-5.47649 -2.2,-0.45365 -8.5,-2.06778 -14,-3.58695 -5.5,-1.51918 -11.575,-3.11459 -13.5,-3.54537 -9.45247,-2.1153 -32.33188,-13.21966 -43,-20.86976 -4.675,-3.35244 -14.35,-9.64495 -21.5,-13.98336 -7.15,-4.33842 -15.64541,-9.49693 -18.8787,-11.46337 -3.23328,-1.96644 -8.18328,-4.32896 -11,-5.25005 -7.33108,-2.39732 -12.27455,-5.05453 -13.02065,-6.99884 -0.35531,-0.92592 0.0741,-2.78252 0.95421,-4.12577 1.4741,-2.24976 2.00795,-2.38659 6.77269,-1.73594 2.84485,0.38847 10.57245,1.91798 17.17245,3.3989 6.6,1.48092 12.14084,2.35299 12.31297,1.93794 0.17214,-0.41506 -1.06536,-3.89506 -2.75,-7.73335 C 929.37834,506.30519 928,502.2828 928,501.20483 c 0,-3.69724 1.36776,-3.29722 -55,-16.08556 -16.775,-3.8058 -32.075,-7.21884 -34,-7.58454 -1.925,-0.3657 -9.35,-1.94896 -16.5,-3.51835 -7.15,-1.56939 -15.025,-3.12718 -17.5,-3.46175 l -4.5,-0.60831 3.5,1.92017 c 1.925,1.05609 9.575,4.26693 17,7.13519 23.34383,9.01766 28.14025,12.66366 10,7.60149 -23.68247,-6.60877 -60,-20.9043 -60,-23.61757 0,-0.54208 1.60044,-0.9856 3.55654,-0.9856 l 3.55653,0 -1.80653,-3.07932 c -1.78584,-3.04404 -1.77949,-3.10132 0.55424,-5 1.29844,-1.05637 3.30943,-1.92068 4.46887,-1.92068 2.2223,0 25.95028,5.26212 46.17035,10.23913 14.02074,3.4511 89.55673,21.33172 97.25981,23.02301 5.06648,1.1124 5.32282,1.06448 6.97381,-1.30365 4.84959,-6.95609 15.17657,-13.82067 21.9072,-14.56221 5.04255,-0.55556 5.42895,-0.4157 16.4912,5.96929 3.11585,1.79842 11.13527,4.1646 24.5,7.22885 23.87528,5.47413 35.68308,6.09094 48.32048,2.52417 23.8174,-6.72224 52.4775,-3.86461 75.2311,7.50112 16.1967,8.09048 34.8164,22.47331 34.8164,26.894 0,1.23655 -0.7708,1.03465 -3.7321,-0.97766 -7.1941,-4.88849 -17.0073,-2.57084 -21.4703,5.07077 -1.6496,2.82452 -1.6826,3.49074 -0.3709,7.4966 1.2602,3.84846 2.6601,8.62399 6.7119,22.89658 0.5465,1.925 1.4878,4.50866 2.0919,5.74146 0.8119,1.65686 0.7849,2.92941 -0.1035,4.87922 -1.5453,3.39153 -1.0938,3.74027 3.2792,2.53282 5.2109,-1.43879 4.7747,1.07014 -0.7489,4.30716 -3.0433,1.7835 -7.4565,3.00281 -14.75,4.07519 -5.724,0.84163 -11.9369,2.02242 -13.8065,2.62397 -3.0438,0.97942 -3.2006,1.198 -1.5,2.09128 5.3511,2.81067 5.6226,6.33603 0.6492,8.42936 -5.0943,2.14423 -31.1828,2.66047 -45.25,0.89542 z m -38,-39.38879 c 0,-1.63129 -5.6736,-6.13466 -12.7901,-10.15199 -5.8887,-3.32421 -10.7908,-4.95482 -25.50003,-8.48219 -23.42633,-5.61779 -25.46004,-6.0169 -24.20987,-4.75115 2.1852,2.21242 29.75055,13.73905 44.9201,18.78359 17.2922,5.75047 17.5799,5.82577 17.5799,4.60174 z m -426.5,26.09564 c -2.2,-0.20958 -15.475,-1.49852 -29.5,-2.86431 -14.025,-1.36578 -35.4,-3.36655 -47.5,-4.44614 -12.1,-1.0796 -25.15,-2.38433 -29,-2.8994 -3.85,-0.51508 -11.275,-1.20054 -16.5,-1.52324 -5.225,-0.3227 -13.55,-1.47804 -18.5,-2.56741 -4.95,-1.08937 -14.46621,-3.07053 -21.14714,-4.40258 C 423.781,554.87368 419,552.90723 419,550.03102 c 0,-2.90439 2.99398,-4.47413 17.51465,-9.18291 l 13.29919,-4.31268 0.8462,-4.01132 c 0.69226,-3.28156 1.51493,-4.32619 4.52205,-5.74213 2.02172,-0.95196 4.81236,-2.86734 6.20142,-4.2564 1.86298,-1.86298 3.5801,-2.52558 6.545,-2.52558 3.68357,0 18.42327,-5.03446 20.42215,-6.97534 0.46787,-0.45429 0.0179,-1.07409 -1,-1.37732 -15.63651,-4.65834 -27.8208,-8.11834 -31.85066,-9.04472 -3.22364,-0.74105 -5,-1.674 -5,-2.62601 0,-1.1898 1.70194,-1.47661 8.76232,-1.47661 7.40444,0 8.66387,-0.23245 8.12699,-1.5 -2.72378,-6.43074 -2.76172,-6.78268 -1.01815,-9.44371 3.62165,-5.52734 5.52472,-5.44444 46.90734,2.04342 l 18.7785,3.39782 5.7215,-2.11651 c 3.14682,-1.16408 8.1965,-2.48071 11.2215,-2.92585 3.025,-0.44513 7.86733,-1.74214 10.76073,-2.88225 6.68925,-2.63581 13.91266,-2.64463 30.73927,-0.0375 37.73812,5.84714 47.5441,7.09204 53.5,6.79203 l 6.5,-0.32743 0.28267,11.85817 c 0.31235,13.10322 0.1266,13.62714 -5.92593,16.71492 -4.22393,2.15489 -9.89108,2.41964 -21.03438,0.98266 -4.0273,-0.51934 -14.38554,-1.48066 -23.01831,-2.13628 l -15.69595,-1.19204 -1.63793,-4.11372 C 581.48553,508.62923 579.25787,506 577.01933,506 c -2.65746,0 -5.77524,4.09479 -7.07851,9.29667 -1.10762,4.42095 -1.03487,4.97431 0.92871,7.06445 4.31436,4.59242 3.23705,5.01246 -10.61953,4.14054 -20.05474,-1.26194 -19.85785,-1.2837 -30.75,3.39968 -10.62142,4.56698 -11.1045,4.82749 -10.35035,5.58164 1.05796,1.05797 82.97054,10.76839 91.85035,10.88851 l 9.5,0.12851 0.28212,8 c 0.15517,4.4 -0.0712,10.475 -0.50314,13.5 -0.70903,4.96606 -1.12474,5.66974 -4.28212,7.24845 -3.34646,1.67324 -7.23232,1.91687 -16.49686,1.03428 z M 566.81955,519.75 c -0.34636,-2.43875 -3.97183,-3.43056 -8.44038,-2.30903 -3.466,0.86991 -2.91543,2.21792 1.37083,3.35634 6.23576,1.6562 7.42842,1.47951 7.06955,-1.04731 z m -363.79993,37.50654 c -2.46421,-0.21673 -4.99536,-0.82144 -5.62477,-1.34381 -0.62942,-0.52237 -6.23355,-1.42493 -12.45362,-2.00569 -9.27327,-0.86583 -12.31126,-1.58039 -16.87523,-3.96917 -6.90875,-3.61604 -9.48743,-7.43918 -11.08722,-16.43787 -0.68446,-3.85 -1.63591,-7.76019 -2.11433,-8.68931 -0.52565,-1.02084 -0.47308,-1.93454 0.13285,-2.30902 2.08651,-1.28954 0.82395,-2.41884 -4.67503,-4.1816 -9.142,-2.93058 -7.94191,-4.96116 3.67773,-6.22286 5.31554,-0.57718 5.51041,-0.70493 5.81053,-3.80925 0.30755,-3.18127 4.93598,-8.28597 7.5162,-8.28962 0.6453,-9.2e-4 15.91637,-1.8068 33.93572,-4.01308 30.44621,-3.72782 40.09731,-5.64897 41.90483,-8.34158 0.60251,-0.89754 8.46291,-2.56026 33.83272,-7.15666 9.14435,-1.65674 32.96671,-3.85364 33.71148,-3.10888 0.56435,0.56436 -13.48454,7.30465 -20.18254,9.68305 -2.73408,0.97085 -5.15281,2.31043 -5.37496,2.97686 -0.37641,1.12923 1.28342,16.0237 2.47528,22.21195 0.71518,3.71328 3.00349,3.53612 9.17696,-0.71048 2.76686,-1.90326 6.10668,-3.73054 7.42183,-4.06062 1.31514,-0.33008 3.62455,-1.58537 5.13201,-2.78952 2.62638,-2.09795 2.67902,-2.31467 1.26051,-5.18938 -2.05467,-4.16393 -3.23265,-17.00368 -1.64975,-17.98197 2.1126,-1.30565 3.02531,0.88805 4.1788,10.04373 0.61935,4.91603 1.2182,9.05488 1.33077,9.19744 0.26901,0.34067 28.70048,-4.40169 37.30682,-6.22276 3.69203,-0.78122 8.1221,-2.12793 9.84458,-2.99269 5.27562,-2.64859 17.09709,-0.90906 21.61638,3.18084 1.45707,1.31863 1.74213,3.28398 1.6942,11.6804 -0.11224,19.66202 -0.85576,20.6699 -17.52393,23.75465 -6.00514,1.11136 -11.93094,2.21366 -13.16844,2.44956 -1.97945,0.37733 -2.25,1.03574 -2.25,5.47559 0,9.69278 -0.28444,9.81772 -30.75909,13.51046 -20.17953,2.44524 -21.41757,2.4816 -45.74091,1.34336 -24.29829,-1.13706 -25.28068,-1.10843 -35,1.01994 -17.25955,3.77956 -24.63042,4.42814 -37.48038,3.29799 z M 342.5,504.4088 c 8.8,-0.88391 16.3375,-1.81405 16.75,-2.06697 0.86537,-0.5306 1.01744,-4.74105 0.20074,-5.55776 -0.30209,-0.30209 -7.83959,0.96093 -16.75,2.80671 C 323.51524,503.56503 318,504.99769 318,506.00712 c 0,0.82055 1.19358,0.74268 24.5,-1.59832 z m 809.1667,41.92453 C 1150.516,545.1827 1150.9384,544 1152.5,544 c 0.825,0 1.5,0.675 1.5,1.5 0,1.56157 -1.1827,1.98397 -2.3333,0.83333 z M 574.54616,520.82827 c -0.9895,-2.91332 -0.84486,-4.48742 0.74891,-8.15024 1.67923,-3.85922 3.70493,-4.19767 3.70493,-0.61901 0,1.06754 0.45,1.94098 1,1.94098 1.84937,0 1.02158,2.13226 -2.00135,5.1552 -2.08148,2.08147 -3.13962,2.59425 -3.45249,1.67307 z M 780.75,504.71016 c -7.37654,-1.32633 -7.57917,-3.08261 -0.25,-2.16689 5.36528,0.67034 7.23665,-0.31051 4.25,-2.22759 -1.89673,-1.21747 -9.75,-3.09986 -9.75,-2.33703 0,0.36821 -2.8125,0.62527 -6.25,0.57125 -3.4375,-0.054 -7.6668,0.19246 -9.39844,0.54773 -1.73164,0.35526 -3.73516,0.28333 -4.45226,-0.15986 -0.71709,-0.44319 -1.73018,-0.54229 -2.2513,-0.22022 -1.14698,0.70887 -7.22025,1.48935 -10.60383,1.3627 -1.9167,-0.0717 -2.19112,0.1728 -1.25,1.11392 0.6632,0.6632 1.20583,1.49867 1.20583,1.85659 0,0.35791 -8.3594,0.96946 -18.57645,1.35899 -13.72332,0.52321 -18.94836,0.39959 -20,-0.4732 -3.97189,-3.29638 0.82272,-5.55097 13.57645,-6.38412 4.675,-0.30541 11.425,-0.77063 15,-1.03384 13.37286,-0.98458 21.85732,-1.49619 34.37924,-2.07305 13.67002,-0.62975 16.80374,-1.34512 20.31988,-4.63867 3.34051,-3.12903 5.47694,-1.76007 4.71262,3.01972 -0.341,2.13246 -0.68563,5.85634 -0.76586,8.2753 -0.16856,5.08189 -0.67437,5.26632 -9.89588,3.60827 z M 720.5,501 c -0.33992,-0.55 -1.04148,-1 -1.55902,-1 -0.51754,0 -0.94098,0.45 -0.94098,1 0,0.55 0.70156,1 1.55902,1 0.85746,0 1.2809,-0.45 0.94098,-1 z m 4,0 c -0.33992,-0.55 -1.04148,-1 -1.55902,-1 -0.51754,0 -0.94098,0.45 -0.94098,1 0,0.55 0.70156,1 1.55902,1 0.85746,0 1.2809,-0.45 0.94098,-1 z m 5,0 c -0.33992,-0.55 -1.04148,-1 -1.55902,-1 -0.51754,0 -0.94098,0.45 -0.94098,1 0,0.55 0.70156,1 1.55902,1 0.85746,0 1.2809,-0.45 0.94098,-1 z m 8.5,0 c 0,-0.55 -0.47656,-1 -1.05902,-1 -0.58246,0 -0.7809,0.45 -0.44098,1 0.33992,0.55 0.81648,1 1.05902,1 0.24254,0 0.44098,-0.45 0.44098,-1 z m 5.55279,2.08541 c -0.32198,-0.52097 -0.15917,-1.21065 0.3618,-1.53262 0.52097,-0.32198 1.21065,-0.15917 1.53262,0.3618 0.32198,0.52097 0.15917,1.21065 -0.3618,1.53262 -0.52097,0.32198 -1.21065,0.15917 -1.53262,-0.3618 z M 395,480.53343 c -0.825,-0.19427 -4.76605,-0.88526 -8.75789,-1.53555 C 378.1347,477.67716 376,475.87192 376,470.33651 c 0,-1.77016 -0.49059,-3.52168 -1.0902,-3.89226 -0.59961,-0.37058 -7.54103,0.36135 -15.42537,1.62651 -13.49118,2.16486 -14.56035,2.2049 -18.1598,0.6801 -6.94317,-2.94128 -41.93889,-13.70198 -52.9813,-16.29102 C 255.63568,444.79111 247,441.85636 247,438.4097 c 0,-0.76601 -0.9,-1.95481 -2,-2.64177 -1.1,-0.68696 -1.99951,-1.47828 -1.99891,-1.75848 0.004,-2.06016 46.60877,-1.8317 67.99891,0.33335 9.075,0.91855 19.2,1.91586 22.5,2.21625 3.3,0.30039 7.18061,0.77075 8.62357,1.04524 l 2.62357,0.49908 -2.5198,-9.80168 c -5.03843,-19.59879 -2.76132,-46.44287 5.67833,-66.93996 6.65219,-16.15593 21.88808,-35.93027 36.12395,-46.88453 33.88836,-26.07649 75.68741,-27.02738 100.88932,-2.29515 13.3226,13.07432 20.06761,30.49204 20.0665,51.81795 -10e-4,24.43399 -6.66505,44.3546 -22.38334,66.91253 -4.86592,6.98327 -6.41423,9.98781 -5.99917,11.64155 1.21534,4.84231 -14.97501,18.11575 -33.31297,27.31119 -4.51551,2.26427 -8.64861,4.93636 -9.18465,5.93796 -1.65653,3.09526 -7.91071,4.378 -23.10531,4.73895 -7.975,0.18945 -15.175,0.18551 -16,-0.009 z m 92.5,-38.16414 c -4.72919,-1.15011 -4.87391,-1.29864 -3.13612,-3.21888 C 485.26375,438.15607 486,436.94228 486,436.4531 486,435.40369 490.94561,431 492.12415,431 c 0.4472,0 0.60693,-0.5625 0.35497,-1.25 -0.25196,-0.6875 -0.0572,-1.87982 0.43286,-2.6496 0.74398,-1.1687 1.44338,-1.07209 4.23949,0.58559 3.05119,1.8089 3.33014,2.37089 3.1414,6.32894 -0.12741,2.67198 -0.92016,5.05681 -2.05978,6.19642 -1.92529,1.9253 -7.27059,2.99999 -10.73309,2.15794 z m 9.5,-9.83791 c 0,-0.89208 -0.5866,-1.24351 -1.49426,-0.89521 -0.82184,0.31537 -1.24528,0.97625 -0.94098,1.46861 0.87262,1.41193 2.43524,1.04399 2.43524,-0.5734 z"
       style="fill:#a0a0a0" />
    <path
       inkscape:connector-curvature="0"
       id="path3018"
       d="m 1078,587.38691 c -22.9295,-2.6804 -34.6581,-5.10429 -55.5,-11.46992 -22.1427,-6.76292 -35.34333,-12.82719 -50.93868,-23.40084 -5.37823,-3.64644 -16.1422,-9.67705 -23.91996,-13.40136 -8.90451,-4.26385 -16.17363,-8.51655 -19.62921,-11.48378 -3.01831,-2.59176 -6.61831,-4.95015 -8,-5.24086 -3.58473,-0.75424 -7.35325,-2.38239 -6.79844,-2.93719 0.25969,-0.25969 3.93175,0.65715 8.16012,2.03744 6.93,2.26218 17.62617,3.42364 17.62617,1.91397 0,-0.3276 -0.84229,-1.7901 -1.87175,-3.25 -3.77457,-5.35279 -7.0007,-12.93628 -8.11317,-19.07121 -0.62741,-3.45995 -0.89137,-6.5402 -0.58659,-6.84498 C 929.43397,493.2327 926.79595,491 924.60247,491 c -1.18396,0 -7.54136,-1.29701 -14.12756,-2.88224 -41.96845,-10.10138 -74.54963,-17.37637 -75.14666,-16.77935 -1.1713,1.17131 1.17648,2.73546 6.29235,4.19214 l 4.8794,1.38934 -5,-0.51966 c -2.75,-0.28581 -13.43874,-2.32121 -23.75275,-4.5231 -10.31401,-2.20189 -20.21401,-3.86078 -22,-3.68642 l -3.24725,0.31701 4,2.20194 c 5.63403,3.10146 2.75973,2.80735 -7.88131,-0.80645 C 780.27852,467.07082 774.64327,464 777.78571,464 c 1.65238,0 1.53245,-3.18394 -0.20938,-5.55887 -1.24118,-1.69231 -1.22131,-2.16545 0.15499,-3.69113 2.0739,-2.29899 2.64976,-2.25915 17.26868,1.19481 6.875,1.62433 19.25,4.51699 27.5,6.42814 8.25,1.91114 19.275,4.58068 24.5,5.93231 5.225,1.35162 20.75,5.04429 34.5,8.20592 13.75,3.16163 30.13176,7.00353 36.40391,8.53757 l 11.40392,2.78915 6.6767,-6.892 c 10.49246,-10.83082 18.51065,-13.32752 27.10819,-8.44093 9.7986,5.56925 15.10591,7.48648 30.40728,10.98444 17.2172,3.93592 34.5744,5.83986 41.0057,4.498 2.1969,-0.45837 8.2693,-1.78085 13.4943,-2.93886 22.198,-4.91969 51.4652,-1.1344 70.5,9.11818 15.4648,8.32969 32.9361,20.73046 31.3881,22.27855 -0.2564,0.25638 -2.393,-0.19769 -4.748,-1.00904 -8.9069,-3.06869 -18.4691,3.19139 -23.2477,15.21954 -3.3588,8.45429 -3.4112,23.93625 -0.1021,30.13345 2.7552,5.15972 7.3738,8.20196 12.4597,8.20703 2.0625,0.002 3.75,0.43791 3.75,0.96856 0,1.60245 -3.2914,2.86276 -10.579,4.05083 -24.5215,3.99765 -27.0564,4.74895 -24.5339,7.27148 1.8937,1.89366 1.2408,3.47262 -1.8866,4.56283 -3.4171,1.19124 -17.7594,2.14962 -23.0005,1.53695 z m -46,-32.2284 c 0,-2.18409 -13.2332,-13.25081 -19.7981,-16.55684 -8.8423,-4.45291 -46.71597,-14.19143 -51.0049,-13.11498 -2.63896,0.66234 -2.65332,0.70766 -0.69579,2.19546 5.96497,4.53361 31.21843,15.78572 46.34179,20.64837 25.6608,8.2508 25.157,8.11406 25.157,6.82799 z M 595,574.86194 C 569.74349,572.27 498.54776,564.64183 479.40684,562.47687 c -20.67742,-2.33876 -33.10105,-5.02481 -44.2586,-9.56892 -3.13693,-1.27758 -1.67563,-3.0046 4.95635,-5.8576 6.03719,-2.59713 8.10888,-2.3749 8.90177,0.9549 0.38548,1.61885 1.0791,-1.15695 1.97558,-7.90606 1.31447,-9.89591 1.52495,-10.47845 4.3359,-12 1.62491,-0.87956 4.25864,-2.83669 5.85275,-4.34919 2.1593,-2.04876 3.90779,-2.75 6.85699,-2.75 3.62222,0 20.74151,-5.97425 23.72242,-8.2786 1.95199,-1.50895 1.48834,-2.44744 -1.5,-3.0362 -1.5125,-0.29798 -7.39866,-1.87022 -13.08036,-3.49385 C 465.96867,502.99049 462.37611,501 467.8,501 c 1.76,0 3.2,-0.20502 3.2,-0.45559 0,-0.25058 -1.125,-2.11337 -2.5,-4.13955 -1.375,-2.02617 -2.5,-4.54161 -2.5,-5.58986 0,-2.45812 4.35167,-6.815 6.80685,-6.815 2.64863,0 49.5004,7.79677 54.66224,9.09653 3.66262,0.92226 5.22787,0.71954 11.70465,-1.51595 4.11214,-1.41932 8.79279,-2.58254 10.40144,-2.58494 1.60865,-0.002 6.07482,-1.1179 9.92482,-2.47891 3.85,-1.361 9.27497,-2.48404 12.05548,-2.49564 2.78052,-0.0116 18.30552,2.01999 34.5,4.51465 27.22952,4.19454 34.28184,4.92237 40.94452,4.22568 l 2.5,-0.26142 0.28121,11.68955 0.28121,11.68956 -4.36907,2.56044 c -6.36697,3.7313 -8.3771,3.60985 -49.99578,-3.02066 -9.80334,-1.56183 -10.92685,-1.96159 -12.14762,-4.32231 -2.10632,-4.07316 -5.13031,-6.36454 -7.43437,-5.63326 C 573.44666,506.3104 569,511.6562 569,514.01771 c 0,2.66469 -1.07572,3.00424 -5.75492,1.81653 -3.63375,-0.92234 -4.50408,-0.786 -7.18964,1.12629 -1.68049,1.19661 -3.05544,2.57767 -3.05544,3.06902 0,1.40936 8.22327,3.26839 17.30902,3.91305 0.44496,0.0316 0.5309,0.5074 0.19098,1.0574 -0.90741,1.46823 -7.35938,1.22165 -16.56397,-0.63304 -9.46896,-1.90795 -10.59935,-1.67997 -26.58733,5.36232 -5.80373,2.55639 -10.3487,5.15395 -10.3487,5.91453 0,0.7459 0.19891,1.35619 0.44203,1.35619 0.24311,0 19.25561,2.31018 42.25,5.13373 22.99438,2.82355 45.97047,5.1529 51.05797,5.17634 l 9.25,0.0426 0,4.67279 c 0,2.57003 -0.2952,8.16498 -0.656,12.43323 -0.61739,7.30368 -0.8381,7.87149 -3.75,9.64714 -3.36947,2.05467 -6.73604,2.17827 -20.594,0.75611 z m -31,-65.79789 c 0,-0.77443 -12.12741,-4.26997 -12.72857,-3.66882 -0.32081,0.32081 7.4271,4.21883 9.72857,4.8945 1.70975,0.50196 3,-0.0252 3,-1.22568 z m -283,42.21879 c -6.40841,-1.17738 -14.03657,-1.50228 -31,-1.32037 -12.375,0.1327 -28.94752,0.30794 -36.82782,0.3894 L 198.84436,550.5 195.42218,546.76469 C 192.59686,543.68084 192,542.25226 192,538.5737 c 0,-2.45062 0.41121,-4.70981 0.91379,-5.02042 1.3327,-0.82365 -3.04437,-8.56163 -6.15792,-10.88622 -1.99239,-1.48754 -5.03401,-2.16974 -12.03456,-2.69921 C 161.884,518.99692 161,518.41838 161,510.98787 c 0,-7.42406 1.31861,-8.46797 12.5,-9.89584 4.4,-0.56188 11.6,-1.49353 16,-2.07032 4.4,-0.5768 16.71092,-2.17772 27.35759,-3.55761 10.64668,-1.3799 20.23579,-2.97889 21.30913,-3.55332 1.84748,-0.98874 18.04309,-3.2028 22.33328,-3.05312 3.10207,0.10823 9.5,-1.82674 9.5,-2.87315 0,-2.04947 4.95988,-3.93913 14.23923,-5.425 5.35658,-0.85773 10.75658,-1.54454 12,-1.52624 l 2.26077,0.0333 -2.36901,1.97339 c -1.30296,1.08537 -4.90296,2.69522 -8,3.57745 -3.09705,0.88222 -5.98196,1.9277 -6.41093,2.32327 -0.74127,0.68357 2.54722,23.98635 3.87225,27.43932 1.43507,3.73972 8.15786,2.2909 14.58825,-3.14389 1.23209,-1.04134 5.43702,-1.50772 15.75751,-1.74772 l 14.07695,-0.32736 4.74249,3.1695 c 4.77061,3.1883 6.62818,6.92378 3.95343,7.95018 -0.76714,0.29438 -7.20344,1.29251 -14.30287,2.21806 -14.7268,1.91992 -19.6769,3.3271 -12.07851,3.43358 2.65626,0.0372 9.06558,-0.4319 14.24294,-1.0425 5.17735,-0.6106 10.57121,-0.81958 11.98633,-0.46441 3.29203,0.82625 5.01232,4.94911 5.91839,14.18407 0.62252,6.3449 0.49994,7.1872 -1.13984,7.83215 -2.77635,1.09198 -37.78621,5.67138 -46.33738,6.06107 -4.125,0.18799 -11.325,-0.36095 -16,-1.21986 z m -44.76166,-39.9901 c -1.24391,-0.23919 -3.04391,-0.23011 -4,0.0202 -0.95609,0.25029 0.0617,0.446 2.26166,0.4349 2.2,-0.0111 2.98225,-0.21589 1.73834,-0.45508 z m 117.99869,18.82346 c -0.52141,-0.33891 -1.1797,-2.72651 -1.46287,-5.30577 -0.38404,-3.498 -1.43712,-5.76702 -4.14451,-8.93 C 346.63334,513.5482 345,511.28138 345,510.84305 c 0,-1.50892 5.14167,-4.16133 10.31554,-5.32144 l 5.18446,-1.16248 0.5,-5.92956 0.5,-5.92957 6.06686,-0.29296 c 10.83904,-0.52341 19.78611,5.29414 13.18314,8.57192 -1.2375,0.61431 -4.95,1.61692 -8.25,2.22804 -8.44019,1.563 -9.47669,2.01166 -7,3.03005 1.1,0.45231 3.29638,0.85401 4.88084,0.89266 2.79804,0.0683 2.85776,0.17808 2.07772,3.82029 -0.44171,2.0625 -0.71687,6.51101 -0.61145,9.88557 0.15777,5.05066 -0.1212,6.25871 -1.57772,6.83195 -3.3695,1.32614 -15.08846,3.2622 -16.03236,2.64868 z m 427.3605,-35.274 c 0.28628,-0.46321 1.03182,-0.8422 1.65677,-0.8422 0.62494,0 2.39839,-1.20919 3.94098,-2.68709 L 790,488.62582 l 0,3.59673 0,3.59674 -4.46149,-0.0675 c -2.45382,-0.0371 -4.22726,-0.44643 -3.94098,-0.90964 z M 387.5,477.42922 c -8.81854,-1.61882 -10.5,-2.92423 -10.5,-8.15173 0,-2.1906 -0.57172,-3.55965 -1.66109,-3.97768 -0.9136,-0.35058 -6.96065,-0.0676 -13.43788,0.62879 -11.49871,1.23632 -16.01194,0.83223 -12.52153,-1.1211 0.89999,-0.50366 2.10256,-0.6276 2.6724,-0.27543 0.56983,0.35218 2.21487,-0.13207 3.65565,-1.0761 1.44078,-0.94404 3.69294,-2.00349 5.00482,-2.35434 2.31284,-0.61854 2.21302,-0.83461 -3.28895,-7.11977 -6.16586,-7.04352 -11.43587,-17.03424 -13.96894,-26.48186 -1.57298,-5.86672 -3.27442,-24.51511 -2.14174,-23.47423 0.31467,0.28918 1.47127,4.64545 2.57021,9.68061 1.09894,5.03516 2.91317,10.87356 4.03163,12.97423 l 2.03355,3.81939 -0.61267,-11.05675 c -0.41986,-7.57708 -0.24715,-11.73975 0.54879,-13.22697 0.89651,-1.67514 0.87109,-2.63868 -0.11139,-4.22376 -1.04459,-1.68526 -1.02551,-2.20749 0.10639,-2.91193 1.92187,-1.19609 2.11801,-14.17107 0.24831,-16.42564 -0.9726,-1.1728 -1.06782,-2.02201 -0.32683,-2.91485 1.42263,-1.71416 2.73494,-13.7401 1.49937,-13.7401 -0.52702,0 -2.01146,2.24869 -3.29874,4.99709 -1.28728,2.7484 -2.47086,4.86675 -2.63017,4.70743 -0.65309,-0.65309 2.99459,-12.55514 5.6274,-18.36168 4.27307,-9.42406 15.43797,-24.9315 24.08321,-33.45029 12.8151,-12.62765 28.51552,-21.76453 44.71973,-26.0247 10.98967,-2.88924 29.03924,-2.81686 38.69847,0.1552 16.79596,5.16796 29.90513,16.08467 37.22277,30.99739 6.50056,13.24758 7.72043,19.06056 7.65539,36.47956 -0.0483,12.93807 -0.42071,16.37462 -2.70917,25 -5.12267,19.30776 -16.34045,38.17811 -31.8083,53.50737 -9.4878,9.40279 -15.1764,13.62999 -26.84493,19.94844 -5.21633,2.82462 -10.39133,5.92717 -11.5,6.89457 -1.10867,0.9674 -4.04076,3.08431 -6.51576,4.70426 -4.28929,2.80745 -5.06189,2.95467 -16.5,3.14425 -7.144,0.1184 -15.23733,-0.39539 -20,-1.26967 z M 489.01057,439.51273 C 487.69846,437.93174 488.28253,435 489.9096,435 c 0.5348,0 1.25048,0.45 1.5904,1 0.33992,0.55 1.49148,1 2.55902,1 1.27431,0 1.94098,0.68694 1.94098,2 0,1.53664 -0.66667,2 -2.87756,2 -1.58265,0 -3.43299,-0.66927 -4.11187,-1.48727 z"
       style="fill:#6f6f6f" />
    <path
       inkscape:connector-curvature="0"
       id="path3016"
       d="m 1078,584.38478 c -31.9495,-2.36116 -72.6023,-15.94142 -97.76043,-32.65732 -6.27569,-4.16978 -15.78253,-9.17952 -24.47949,-12.89973 C 940.20414,532.1735 937,530.41128 937,528.50999 c 0,-0.69299 1.36233,-1.53246 3.02741,-1.86547 l 3.0274,-0.60548 -4.42144,-5.42834 C 932.90014,513.57184 930,505.80225 930,497.48154 c 0,-5.8676 -0.20108,-6.48802 -2.25,-6.9423 -1.2375,-0.27437 -20.7,-4.81126 -43.25,-10.08198 -22.55,-5.27072 -44.6,-10.27747 -49,-11.12612 -4.4,-0.84865 -15.2,-3.34481 -24,-5.54703 -8.8,-2.20221 -18.925,-4.67819 -22.5,-5.50216 C 783.05954,456.91277 778.84431,455 781.76748,455 c 1.88493,0 51.07949,10.95371 58.73252,13.07744 3.85,1.06838 24.775,6.0307 46.5,11.02738 21.725,4.99667 40.40357,9.29882 41.50794,9.56033 1.50787,0.35705 2.79457,-0.64054 5.16646,-4.00555 1.73717,-2.46456 5.46526,-6.3044 8.28463,-8.53298 8.28439,-6.54843 14.8791,-6.76409 24.21516,-0.79189 6.34776,4.06062 10.45101,5.33483 32.32581,10.03837 22.6699,4.87451 30.2188,5.22974 43.4313,2.04377 14.7886,-3.56605 37.1556,-3.90633 47.5687,-0.72368 13.3431,4.07815 26.8674,10.20222 29.248,13.24409 1.8997,2.42734 2.9522,2.87142 6.6724,2.81518 5.1891,-0.0784 13.2878,3.55445 19.0739,8.55617 l 3.87,3.34534 -6.0936,-0.44077 c -7.8121,-0.56507 -12.9834,2.10561 -17.3979,8.98504 -6.0821,9.47808 -8.7102,25.01535 -5.7347,33.90254 2.3548,7.03313 8.6361,12.89922 13.8122,12.89922 2.3898,0 2.7355,1.52286 0.5371,2.36645 -0.8319,0.31923 -5.2194,1.04179 -9.75,1.60567 -17.6357,2.19499 -23.9926,3.86155 -26.9091,7.05468 -1.8302,2.00383 -3.6713,2.9732 -5.6469,2.9732 -1.6123,0 -4.2251,0.1614 -5.8064,0.35867 -1.5812,0.19727 -4.9,0.20902 -7.375,0.0261 z m -41,-25.2074 c 0,-0.45244 -3.7125,-4.44298 -8.25,-8.86787 C 1017.1742,539.021 1009.7486,535.46908 985.28018,529.51636 966.36443,524.91451 957.5,524.02533 957.5,526.72978 c 0,2.09035 10.44879,9.21241 20.96942,14.29307 11.57852,5.59154 29.24658,11.85861 45.03058,15.97284 12.1432,3.16524 13.5,3.3845 13.5,2.18169 z m -441,15.11538 c -6.6541,-0.73608 -77.54757,-8.36419 -91,-9.79157 -37.40828,-3.96923 -49.48464,-5.58872 -51.4945,-6.90563 -2.05498,-1.34647 -2.13963,-1.98014 -1.70404,-12.75621 0.54084,-13.37998 1.21156,-15.59933 5.12682,-16.96419 1.61686,-0.56365 3.6117,-2.05033 4.43297,-3.30375 1.14309,-1.74457 2.8055,-2.43318 7.08971,-2.9367 6.06163,-0.71243 27.70103,-8.908 29.61744,-11.21713 1.45458,-1.75266 10.58899,-1.94541 11.15897,-0.23546 0.43997,1.31991 6.61955,-0.94875 23.87945,-8.76669 22.4434,-10.16581 35.56762,-15.50779 39.39318,-16.0343 2.4296,-0.33438 15.97433,1.2824 34.5,4.11813 20.98248,3.21179 32.29429,4.51601 36.25,4.17952 l 5.75,-0.48912 0,10.86912 0,10.86912 -3.73213,2.53605 c -5.15886,3.50553 -10.85715,3.34169 -37.9329,-1.09067 l -22.16503,-3.62847 -2.33718,-3.62241 c -3.07448,-4.76514 -6.94886,-5.34342 -10.83777,-1.6176 -2.61523,2.50555 -2.94191,2.57526 -5.63557,1.20264 -4.19265,-2.13647 -14.27419,-4.87815 -15.39362,-4.1863 -0.53119,0.32829 -0.9658,0.96492 -0.9658,1.41473 0,1.52154 10.47432,5.35614 14.25,5.21686 3.40719,-0.12569 3.75,0.0993 3.75,2.46146 0,2.06388 -0.36028,2.46154 -1.74777,1.92911 -3.4324,-1.31714 -11.27583,-2.70056 -12.50309,-2.2053 -0.74521,0.30074 -0.54315,0.53595 0.50086,0.58305 4.95217,0.22341 -2.52684,6.73964 -9.95604,8.67439 -6.20144,1.61502 -20.83876,7.62368 -28.51767,11.7066 l -4.68704,2.49212 3.20538,0.58202 c 3.9802,0.72271 47.93207,5.91665 76.70537,9.06452 11.825,1.29369 23.03207,2.11248 24.90459,1.81954 l 3.40459,-0.53262 -0.65459,4.77576 C 618.29457,555.13005 618,560.57978 618,564.61389 c 0,7.11087 -0.0901,7.38132 -2.95034,8.86043 -2.82083,1.45871 -10.34093,1.7818 -19.04966,0.81844 z M 284.5,550.53472 c -13.62609,-3.49796 -48.50432,-5.56828 -67,-3.97702 -12.71514,1.09394 -16.96895,1.03358 -19.72036,-0.27982 -5.10286,-2.43589 -6.36603,-8.44511 -2.52964,-12.03423 2.56354,-2.39831 10.95928,-4.0587 39.07099,-7.7269 9.80155,-1.27897 18.09822,-2.60262 18.43704,-2.94145 0.33883,-0.33882 0.67828,-1.46075 0.75434,-2.49317 0.14121,-1.91674 -3.40629,-3.0451 -9.65538,-3.07112 -2.87943,-0.012 -3.85699,-1.55622 -3.85699,-6.0928 0,-3.69785 0.56701,-3.69949 -25.12728,0.0728 -13.91291,2.0426 -20.7136,3.45421 -21.44777,4.45187 -0.82223,1.11734 -4.04835,1.531 -13.71845,1.75902 -11.65067,0.27472 -12.80543,0.1364 -14.70695,-1.76165 -2.57819,-2.57347 -3.731,-8.85395 -2.00657,-10.93176 1.69617,-2.04376 2.74919,-1.89617 3.50702,0.49154 0.88937,2.80215 1.87526,2.49347 3.1939,-1 1.44619,-3.8314 4.45402,-3.93655 7.15145,-0.25 2.12481,2.90395 1.98624,2.99 3.62327,-2.25 0.69109,-2.21214 5.26738,-1.86181 6.53138,0.5 1.4444,2.69889 2.19774,2.51854 4.20349,-1.00632 2.00179,-3.5179 3.08636,-3.70383 5.79651,-0.99368 2.59915,2.59915 3.78588,2.52818 4.18045,-0.25 0.41504,-2.92238 4.30015,-3.53003 6.99233,-1.09363 1.94251,1.75794 2.05329,1.75495 3.40377,-0.0919 0.94875,-1.29748 2.83027,-1.98999 5.87354,-2.16179 4.41632,-0.24931 15.54331,-2.5029 22.74277,-4.60618 2.30411,-0.67314 7.21245,-0.8205 13.05187,-0.39186 8.69654,0.63837 9.74464,0.50749 14.80714,-1.84903 8.49212,-3.95295 9.40506,-3.65145 9.6739,3.19492 0.32478,8.27109 2.26221,19.09208 3.67437,20.52228 0.66647,0.67498 1.50997,2.01474 1.87443,2.97724 0.83309,2.20009 7.91454,2.43199 9.6701,0.31667 1.45731,-1.75596 8.24239,-3.49783 17.55533,-4.50683 3.85,-0.41712 8.89769,-1.34302 11.21709,-2.05755 3.64418,-1.12265 4.81242,-1.07178 8.59933,0.37445 2.41023,0.92047 5.45075,2.81097 6.7567,4.2011 2.00361,2.13274 2.14428,2.67307 0.90068,3.45952 -0.81059,0.51261 -2.8238,0.94991 -4.4738,0.97177 -1.65,0.0219 -4.8,0.43586 -7,0.91997 -2.2,0.48412 -8.39815,1.19091 -13.77367,1.57066 -5.45195,0.38514 -10.31593,1.23095 -11,1.91282 -0.89504,0.89216 -1.09126,4.64624 -0.72633,13.89628 0.39401,9.98737 0.2177,12.78171 -0.83179,13.18252 -2.29953,0.87821 -10.46198,0.37983 -15.66821,-0.95666 z m -80.89583,-13.26389 c -0.3323,-0.33229 -0.56864,0.25834 -0.52522,1.3125 0.048,1.16495 0.28494,1.4019 0.60416,0.60417 0.28887,-0.72187 0.25335,-1.58438 -0.0789,-1.91667 z M 260,533.5 c 0,-0.825 -0.45,-1.5 -1,-1.5 -0.55,0 -1,0.675 -1,1.5 0,0.825 0.45,1.5 1,1.5 0.55,0 1,-0.675 1,-1.5 z m 9.92218,-10.62272 c 3.60429,-1.25646 5.81434,-5.2849 4.05943,-7.39944 -0.86188,-1.03851 -2.09637,-1.0383 -6.5676,10e-4 -6.32663,1.47067 -6.84307,1.8326 -6.88397,4.82439 -0.0479,3.50142 3.74774,4.54163 9.39214,2.57398 z M 487.5,507 c -1.82305,-0.78339 -1.77881,-0.85943 0.5,-0.85943 1.375,0 3.4,0.38674 4.5,0.85943 1.82305,0.78339 1.77881,0.85943 -0.5,0.85943 -1.375,0 -3.4,-0.38674 -4.5,-0.85943 z m 19.32399,-0.50934 c -0.28014,-0.28014 -6.99264,-1.64904 -14.91666,-3.04201 -7.92403,-1.39296 -15.86279,-2.99633 -17.64169,-3.56305 -6.57714,-2.0953 -9.61569,-10.12615 -5.04313,-13.3289 3.49293,-2.44654 2.69009,-2.53437 46.77749,5.11741 4.675,0.81139 11.3125,1.71907 14.75,2.01707 6.43384,0.55775 7.94724,1.64544 4,2.87481 -1.2375,0.38542 -7.36889,2.89075 -13.62532,5.56739 -11.09155,4.74522 -13.2539,5.40407 -14.30069,4.35728 z M 362,497.36408 l 0,-4.63593 4.72615,0.64779 c 2.59939,0.35629 5.36092,1.28256 6.13675,2.05839 C 375.81463,498.38606 371.45084,502 364.9349,502 362.11042,502 362,501.82558 362,497.36408 z m 425,-4.30506 c 0,-0.51754 0.45,-1.2191 1,-1.55902 0.55,-0.33992 1,0.0835 1,0.94098 0,0.85746 -0.45,1.55902 -1,1.55902 -0.55,0 -1,-0.42344 -1,-0.94098 z m -510,-8.94175 c 0,-0.56465 1.6875,-1.31318 3.75,-1.66339 2.0625,-0.35021 5.325,-1.04309 7.25,-1.53973 6.02994,-1.55571 7.96782,-1.07011 4,1.00235 -4.12848,2.15637 -15,3.75142 -15,2.20077 z m 111.57828,-7.72708 c -4.35694,-0.78668 -8.49528,-1.90634 -9.19631,-2.48814 -0.70102,-0.5818 -1.41125,-2.9299 -1.57828,-5.21799 -0.28646,-3.92419 -0.5072,-4.19298 -3.89114,-4.73828 -1.9731,-0.31796 -4.94192,-1.54257 -6.59739,-2.72136 -5.80522,-4.13369 -14.84614,-14.82704 -18.06516,-21.36697 -4.091,-8.31149 -4.27833,-12.28878 -0.23315,-4.94999 4.85759,8.81266 10.4351,15.50879 17.16007,20.60166 6.90537,5.22949 16.23391,9.84759 21.9951,10.88869 5.30597,0.95883 5.63878,-0.94374 0.6133,-3.5061 -13.83965,-7.05648 -23.56501,-19.02378 -27.9488,-34.39171 -2.81193,-9.85758 -3.31594,-32.20232 -0.8233,-36.5 1.36202,-2.34832 1.49314,-1.91058 2.16119,7.21479 1.08822,14.86461 2.42317,20.56017 6.91414,29.49904 3.96952,7.90096 10.397,15.33493 15.7234,18.18553 3.00549,1.60849 2.78653,0.1138 -0.81537,-5.5658 -6.00856,-9.47451 -7.25381,-14.45185 -7.76714,-31.04572 -0.72676,-23.49312 1.33797,-33.8163 10.32015,-51.59829 C 388.99732,353.8438 391,348.99047 391,347.90437 c 0,-1.72496 -0.2846,-1.82799 -2.25,-0.81459 -3.64625,1.88008 -6.76595,5.13749 -8.51916,8.89522 -0.90198,1.93325 -3.23541,5.94369 -5.1854,8.91208 -6.81578,10.37541 -7.95166,12.39488 -11.58834,20.60292 l -1.32919,3 -0.0563,-3 c -0.19653,-10.46954 12.50484,-35.26405 26.96628,-52.64123 C 394.09624,326.78053 395.1829,324 392.5,324 c -2.13327,0 -1.87205,-3.91833 0.5,-7.5 2.86803,-4.33058 2.47433,-4.95627 -1.5526,-2.46749 -1.95393,1.20759 -3.79124,1.95699 -4.0829,1.66532 -0.75301,-0.75301 10.01918,-7.51514 17.1355,-10.75664 13.24153,-6.03154 19.8719,-7.44119 35,-7.44119 11.0564,0 15.15641,0.39365 19.5,1.87223 19.37737,6.59615 32.41121,20.01361 39.92159,41.09659 2.31881,6.50929 2.50136,8.33011 2.45952,24.53118 -0.0401,15.54321 -0.33196,18.57006 -2.60985,27.06983 -4.82179,17.99219 -12.78391,31.01857 -29.1807,47.74096 C 453.01095,456.71963 438.09962,465.48925 418,470.15212 l -9.5,2.20389 3.66815,1.07199 c 8.5862,2.50927 5.51344,4.56768 -6.66815,4.46695 -4.95,-0.0409 -12.56477,-0.71807 -16.92172,-1.50476 z m 424.69255,-6.99436 c 0.33229,-0.33229 1.1948,-0.36781 1.91667,-0.0789 0.79773,0.31922 0.56078,0.55618 -0.60417,0.60416 -1.05416,0.0434 -1.64479,-0.19293 -1.3125,-0.52522 z M 805.5,468 c -1.82305,-0.78339 -1.77881,-0.85943 0.5,-0.85943 1.375,0 3.4,0.38674 4.5,0.85943 1.82305,0.78339 1.77881,0.85943 -0.5,0.85943 -1.375,0 -3.4,-0.38674 -4.5,-0.85943 z m -24.2382,-2.56381 c -1.38392,-1.02239 -1.50145,-1.56562 -0.54793,-2.53274 0.96071,-0.97442 3.04631,-0.85494 10,0.57288 12.28898,2.52333 12.58037,3.04661 1.76036,3.16127 -6.33228,0.0671 -10.03195,-0.32932 -11.21243,-1.20141 z M 491,439 c 0,-0.55 0.42344,-1 0.94098,-1 0.51754,0 1.2191,0.45 1.55902,1 0.33992,0.55 -0.0835,1 -0.94098,1 C 491.70156,440 491,439.55 491,439 z"
       style="fill:#4e4e4e" />
    <path
       inkscape:connector-curvature="0"
       id="path3014"
       d="m 1063.5,580.06837 c -13.5686,-2.39893 -20.4709,-4.4966 -30.4596,-9.25698 -7.8005,-3.71751 -8.3115,-4.13995 -6.5589,-5.42152 1.0454,-0.76443 3.2773,-1.39482 4.9596,-1.40088 4.6816,-0.0168 10.6686,-1.17476 10.3466,-2.00108 -0.1582,-0.40599 -5.0518,-5.18186 -10.8746,-10.61304 -14.3017,-13.33976 -20.1041,-16.16917 -46.15613,-22.50713 -20.75945,-5.05038 -24.56714,-5.57488 -27.82271,-3.83256 -2.69678,1.44328 -2.42005,3.34194 1.06574,7.31204 1.65,1.87924 3,3.73066 3,4.11425 0,1.06849 -5.90375,-0.45673 -11.75,-3.03558 -5.47043,-2.41307 -6.07349,-3.2024 -4.01745,-5.25844 0.97673,-0.97673 0.26269,-2.06155 -3.44028,-5.22676 -6.86771,-5.87033 -10.79907,-14.70136 -10.77031,-24.19336 0.0268,-8.85471 2.07352,-13.84304 8.02678,-19.56347 8.92796,-8.57879 15.71172,-9.71113 24.11261,-4.02486 8.21907,5.5632 5.00604,4.549 39.16865,12.36365 5.9566,1.36254 12.5675,2.47735 14.691,2.47735 2.1235,0 4.1149,0.41084 4.4252,0.91299 1.0971,1.77505 8.2557,2.29069 11.2131,0.80768 9.7971,-4.91285 46.1834,-4.4464 53.5109,0.68597 1.2511,0.87635 3.1872,1.61311 4.3023,1.63725 3.5964,0.0779 9.6797,2.72833 11.1808,4.87147 0.803,1.14655 2.0914,2.08464 2.8629,2.08464 0.7716,0 2.5174,1.20197 3.8796,2.67105 l 2.4767,2.67106 8.3916,-1.30542 c 9.5548,-1.48636 11.8256,-1.02547 20.7359,4.2086 l 5.5,3.23082 -5.5,0.54934 c -7.3605,0.73517 -11.5183,3.14555 -15.0604,8.73088 -5.5152,8.69653 -7.309,14.8347 -7.3773,25.24367 -0.055,8.3533 0.241,10.04317 2.4508,14 1.4753,2.64171 4.4674,5.80969 7.2455,7.67153 5.3207,3.56575 5.5253,3.37801 -5.2586,4.82539 -15.8287,2.12449 -23.7936,3.88388 -27.5509,6.08579 -3.5214,2.06365 -5.3555,2.40532 -12.537,2.33547 -4.6266,-0.045 -12.9121,-0.87741 -18.4121,-1.84981 z m -462,-5.78996 c -16.24017,-1.56469 -141.82615,-15.39364 -144.31382,-15.89117 -5.08971,-1.01795 -5.38688,-2.01579 -4.60112,-15.44948 l 0.71374,-12.20227 3.03188,-1.61774 c 1.66753,-0.88976 4.04168,-2.65968 5.27587,-3.93314 1.52692,-1.5755 4.10531,-2.59757 8.06872,-3.19844 3.2036,-0.48568 9.99143,-2.48126 15.08406,-4.43461 C 495.05872,513.60107 497,513.28379 497,515.55098 c 0,2.98988 -7.24225,8.3278 -14.14233,10.42363 C 479.19019,527.08858 475.69688,528 475.09476,528 474.49264,528 474,528.39815 474,528.88478 c 0,0.48662 2.5875,1.19992 5.75,1.58509 3.1625,0.38518 7.775,1.58937 10.25,2.67598 7.40732,3.25207 15.17616,4.41547 69,10.33286 28.325,3.11405 52.08674,5.96777 52.80387,6.3416 0.91792,0.4785 1.41464,4.01068 1.6781,11.93299 0.46576,14.0056 0.71207,13.74814 -11.98197,12.52511 z M 285,549 c -2.475,-1.03854 -6.975,-1.95825 -10,-2.04381 -6.51871,-0.18436 -11.27967,-1.37989 -9,-2.25999 0.825,-0.31851 2.368,-0.71795 3.42889,-0.88765 4.12094,-0.6592 1.77969,-2.33284 -3.92889,-2.80855 l -6,-0.5 3.1893,-1.74429 c 3.39275,-1.85556 6.3107,-5.33694 6.3107,-7.52924 0,-0.73069 -1.53429,-1.96959 -3.40953,-2.75311 -2.78892,-1.16529 -4.95168,-1.22552 -11.88202,-0.3309 -10.21303,1.31836 -11.32072,1.84498 -9.8117,4.66462 1.61703,3.02145 1.34765,5.19078 -0.64675,5.20823 -1.40075,0.0123 -1.47145,0.19169 -0.35428,0.89908 2.10714,1.33423 0.51492,4.08561 -2.36434,4.08561 -2.84049,0 -3.25572,-1.15396 -1.06842,-2.96926 1.28042,-1.06265 1.26592,-1.51489 -0.11616,-3.62422 -0.86853,-1.32553 -1.34399,-3.30926 -1.05659,-4.40829 0.54043,-2.06662 -0.71681,-2.53923 -3.70475,-1.39265 -1.27225,0.48821 -1.46015,1.60931 -0.96945,5.78433 0.65814,5.59978 -0.99112,8.4476 -4.18293,7.22278 -1.28617,-0.49355 -1.529,-1.90166 -1.26274,-7.32219 l 0.32966,-6.71113 3.5,-0.73058 c 6.50465,-1.35777 21.25216,-2.92495 27.89602,-2.96444 4.10632,-0.0244 8.1611,-0.72288 10.72111,-1.8468 3.4505,-1.51487 4.2283,-2.40007 4.80365,-5.46698 l 0.68652,-3.65944 5.19635,4.67249 c 2.85799,2.56987 7.22135,5.63254 9.69635,6.80593 l 4.5,2.13344 0.30532,7.98851 c 0.16793,4.39367 0.035,9.451 -0.29531,11.2385 -0.5059,2.7374 -1.02722,3.24119 -3.30532,3.19413 C 290.71711,550.9134 287.475,550.03854 285,549 z m -78.23362,-4.19713 C 205.78276,542.17772 207.44725,534.5 209,534.5 c 1.88774,0 4.00545,6.30584 3.01962,8.99143 -0.85148,2.31958 -4.53129,3.23823 -5.25324,1.31144 z M 196.75,543.9199 c -2.42414,-1.41193 -2.33388,-7.07417 0.13737,-8.61749 1.66821,-1.04181 1.95851,-0.82299 2.5,1.88445 0.83484,4.17417 0.77049,7.81954 -0.13737,7.78273 -0.4125,-0.0167 -1.5375,-0.48908 -2.5,-1.04969 z m 20.95885,0.45562 C 215.76413,542.4308 217.62264,532 219.91386,532 c 1.4563,0 3.24468,5.61504 2.90834,9.13142 -0.23879,2.49657 -0.85058,3.44422 -2.36335,3.66076 -1.12263,0.1607 -2.36013,-0.0268 -2.75,-0.41666 z M 254.75,538.66821 c -1.18132,-2.88523 -0.95829,-6.2765 0.32818,-4.99003 0.593,0.593 0.9305,2.3705 0.75,3.95 -0.26936,2.35708 -0.46261,2.5435 -1.07818,1.04003 z M 247,538.55902 c 0,-1.05548 1.91911,-1.49891 2.48992,-0.57533 C 249.83538,538.54266 249.41648,539 248.55902,539 247.70156,539 247,538.80156 247,538.55902 z m 276.67858,-16.5229 c -3.75178,-1.60038 -7.35178,-3.34764 -8,-3.8828 -0.64822,-0.53517 -2.75358,-1.40899 -4.67858,-1.94184 l -3.5,-0.96881 15.5,-7.49206 c 23.94021,-11.5717 45.45015,-20.71351 50.30199,-21.37852 4.47185,-0.61294 67.34916,8.15399 69.00091,9.62074 0.44159,0.39213 0.84516,5.34939 0.89682,11.01613 0.0822,9.01742 -0.14279,10.47975 -1.8029,11.71828 -2.3737,1.7709 -7.65486,1.28419 -35.39682,-3.26218 -16.10885,-2.63993 -20.7142,-3.73312 -21.5,-5.10352 C 582.58682,507.02501 579.07855,504 577.12218,504 c -1.0828,0 -3.32629,1.14231 -4.98552,2.53846 -2.96167,2.49208 -3.0864,2.50839 -6.82673,0.89265 -6.98142,-3.01584 -13.57827,-4.4533 -15.00464,-3.26952 -2.08543,1.73076 -1.56495,2.6653 2.69471,4.83841 4.90335,2.5015 5.11156,3.43111 0.57798,2.58061 -4.16295,-0.78098 -5.76695,1.01685 -2.13815,2.39651 3.21871,1.22376 3.20162,1.72736 -0.14864,4.37896 -2.53752,2.00835 -15.97346,6.6003 -19.29119,6.59308 -0.825,-0.002 -4.56964,-1.31267 -8.32142,-2.91304 z M 311,520.59502 c 0,-0.22274 1.91305,-1.5261 4.25122,-2.89636 2.33817,-1.37025 5.10791,-3.43801 6.15498,-4.59502 2.63719,-2.91405 6.37148,-2.63049 11.9502,0.90743 4.53059,2.87322 5.55563,5.73056 1.60607,4.47702 -1.02806,-0.3263 -4.22187,0.1054 -7.09734,0.95932 C 323.23192,520.82333 311,521.65566 311,520.59502 z m -142.25,-3.23709 c -2.14599,-0.61875 -2.26792,-1.94521 -0.25,-2.71956 0.94866,-0.36403 1.5,-1.89777 1.5,-4.17273 0,-4.18726 1.64554,-7.80274 3.13293,-6.88348 0.56793,0.35099 1.91116,2.68779 2.98496,5.19287 2.26667,5.28792 3.54994,4.7817 4.68149,-1.84674 0.93085,-5.4527 3.01242,-5.80743 5.44714,-0.92829 2.32821,4.66571 4.00926,4.41509 5.0307,-0.75 0.95312,-4.81958 2.64776,-5.41589 5.38937,-1.8964 1.69622,2.17748 2.3759,2.31869 9.08341,1.88715 5.9509,-0.38286 7.25,-0.76876 7.25,-2.1536 0,-3.71995 4.63209,-5.44031 6.99198,-2.59682 1.51283,1.82285 4.82411,1.18795 10.82323,-2.07521 l 4.31521,-2.34722 1.44538,3.45927 c 3.33585,7.98382 3.67813,7.7181 -13.0758,10.15135 -8.25,1.19819 -20.51604,2.87175 -27.25786,3.71902 -6.74182,0.84728 -13.07649,1.97862 -14.07703,2.51409 -2.22496,1.19077 -11.01474,2.1384 -13.41511,1.4463 z m 74.6304,-1.809 c -0.30625,-0.79809 0.66128,-3.04809 2.15008,-5 2.72868,-3.57748 4.92355,-4.21788 8.96952,-2.61703 2.4445,0.9672 4.5,0.30485 4.5,-1.45005 0,-1.86298 13.93316,-13.64119 15.20623,-12.85439 1.8191,1.12426 0.20297,14.40779 -2.02384,16.63459 -1.13427,1.13428 -6.03831,2.88102 -12.13118,4.32095 -11.76933,2.78144 -15.88267,3.01978 -16.67081,0.96593 z m 321.07848,-1.61546 c -0.36253,-0.58659 -0.4085,-1.31719 -0.10214,-1.62354 0.82264,-0.82264 3.64326,0.46152 3.64326,1.65869 0,1.35725 -2.69711,1.33048 -3.54112,-0.0351 z M 490.13736,502.4641 c -17.90871,-3.43175 -21.16272,-4.81791 -22.7031,-9.67123 -0.71167,-2.24228 1.77283,-6.40644 4.30111,-7.20888 0.98375,-0.31223 9.65824,0.80589 19.27664,2.48471 9.61839,1.67883 20.45339,3.47411 24.07776,3.98951 3.62438,0.5154 9.42799,1.51154 12.89692,2.21365 l 6.30714,1.27654 -12.44399,5.2258 c -6.8442,2.87419 -12.87281,5.17882 -13.39692,5.12141 -0.52411,-0.0574 -8.76611,-1.60159 -18.31556,-3.43151 z m -287.77317,0.0426 c -0.34636,-0.90262 -0.15025,-2.12063 0.43581,-2.70669 1.52361,-1.52361 4.41041,-0.13109 4.01242,1.93549 -0.4433,2.30188 -3.64766,2.85743 -4.44823,0.7712 z M 363,497.63084 c 0,-4.15655 1.03243,-4.47978 6.71924,-2.10368 3.25578,1.36035 3.49047,1.6917 2.14863,3.03354 -0.82851,0.82851 -3.16271,1.77517 -5.18712,2.10368 C 363.00591,501.26073 363,501.25586 363,497.63084 z m 26.07765,-22.18269 c -7.09618,-1.53899 -9.12668,-2.79912 -7.35885,-4.56695 0.82506,-0.82506 4.94702,-0.39071 15.7,1.65436 8.01966,1.52524 14.5812,3.1537 14.5812,3.6188 0,1.32475 -15.80262,0.83789 -22.92235,-0.70621 z m 393.38123,-10.51468 c -0.36253,-0.58659 -0.423,-1.30268 -0.13438,-1.59131 0.78526,-0.78525 4.6755,0.65022 4.6755,1.72523 0,1.28768 -3.73051,1.17767 -4.54112,-0.13392 z M 427,462.70661 c 0,-0.28061 1.4625,-1.44682 3.25,-2.59156 l 3.25,-2.08136 -7.20078,-0.0168 c -9.20769,-0.0215 -16.71087,-1.5902 -21.92046,-4.58282 -3.27206,-1.87961 -4.97197,-4.00263 -8.25,-10.30342 C 393.85794,438.76581 392,434.73535 392,434.17403 c 0,-0.56132 1.18138,-2.42457 2.62528,-4.14055 2.61062,-3.10254 2.61917,-3.1686 1.53034,-11.82672 -1.16717,-9.28109 -0.16837,-25.54538 1.976,-32.1769 1.60446,-4.96182 5.65886,-12.95238 8.48024,-16.71314 2.55324,-3.40335 3.12171,-6.31672 1.23253,-6.31672 -0.63558,0 -2.66323,1.14992 -4.50588,2.55538 -3.90504,2.97852 -5.33851,2.5163 -5.33851,-1.72139 0,-2.40542 -0.34332,-2.91622 -1.62859,-2.42302 -1.37094,0.52608 -1.52664,0.10793 -0.98414,-2.64301 2.63924,-13.38341 18.13075,-28.99069 33.61273,-33.86392 3.575,-1.12529 10.69689,-2.30722 15.82641,-2.6265 l 9.32642,-0.58051 -2.4767,-2.29652 c -1.36218,-1.26308 -4.56027,-3.27591 -7.10687,-4.47296 -2.5466,-1.19704 -5.2668,-3.08534 -6.04488,-4.19621 -1.31534,-1.8779 -2.19119,-1.98296 -12.46954,-1.49579 C 419.97468,309.52374 415,309.39428 415,308.94786 c 0,-1.54576 5.60907,-4.79497 12.04018,-6.97462 5.50875,-1.86703 7.93211,-2.11474 16.45982,-1.68248 12.3063,0.62379 20.27926,3.23639 28.62434,9.37969 6.7554,4.97304 7.22322,6.56783 0.99448,3.39017 C 469.4167,311.17194 457.04188,308 453.37561,308 c -2.60667,0 -0.54927,1.71591 2.85358,2.37994 5.62432,1.09753 17.12601,7.51622 19.50589,10.88556 1.2293,1.74039 1.9043,3.49075 1.5,3.88969 -0.40429,0.39895 -3.87534,-0.14776 -7.71344,-1.21491 -3.83809,-1.06716 -8.33809,-1.93278 -10,-1.9236 -2.59279,0.0143 -2.02167,0.50328 4.02407,3.44532 8.53385,4.15283 19.05593,13.53295 22.63027,20.17421 1.43974,2.67509 3.65382,8.91379 4.92019,13.86379 4.06397,15.88527 2.30938,40.83329 -3.70862,52.73196 -9.68967,19.15821 -27.79284,36.94138 -46.52832,45.70586 C 432.66605,461.7706 427,463.72022 427,462.70661 z"
       style="fill:#2f2f2f" />
    <path
       inkscape:connector-curvature="0"
       id="path3012"
       d="m 1069.5,578.47971 c -7.3225,-1.61031 -15.8557,-4.76249 -20.3473,-7.51634 -2.6982,-1.65437 -3.2332,-2.50635 -2.7594,-4.39439 0.4876,-1.94257 -0.3914,-3.16128 -5.1527,-7.14394 -3.1573,-2.641 -8.8927,-7.80653 -12.7453,-11.47895 -10.4366,-9.94843 -18.4606,-13.55144 -44.32326,-19.90219 -22.78245,-5.59439 -25.70715,-5.77063 -30.69216,-1.84941 -1.80387,1.41892 -3.14095,1.83198 -3.96118,1.22371 -0.68099,-0.50501 -2.53879,-1.78878 -4.12843,-2.85282 -5.42409,-3.63065 -7.59033,-6.06457 -10.4905,-11.78686 -2.41478,-4.76456 -2.89814,-6.93883 -2.89,-13 0.0147,-10.93087 4.3282,-18.69351 13.96274,-25.1274 3.60774,-2.40922 5.26796,-2.09444 12.58992,2.38709 4.95724,3.03417 9.62356,4.7774 18.76762,7.01115 6.69347,1.63512 16.66995,4.14785 22.16995,5.58384 5.5,1.436 11.674,2.5673 13.72,2.514 3.5667,-0.0929 3.6966,0.0198 3.1533,2.73605 -0.4633,2.31666 -0.1709,2.93641 1.6043,3.40064 1.194,0.31223 2.4149,1.50108 2.7132,2.6419 0.2984,1.14081 1.1873,2.07421 1.9755,2.07421 1.7611,0 7.2323,-2.71437 9.5326,-4.72936 0.9978,-0.87397 4.2996,-1.63126 8,-1.83483 3.4656,-0.19066 7.9499,-0.64431 9.9652,-1.00813 2.5692,-0.46381 4.3236,-0.1995 5.8713,0.88455 1.6131,1.12988 2.865,1.29593 4.651,0.61689 4.4304,-1.68443 7.2845,-1.13583 8.3247,1.60013 0.9325,2.4525 1.1593,2.50899 7.4753,1.8619 6.1322,-0.62827 6.5136,-0.54634 6.5136,1.39933 0,2.86356 2.7871,5.41188 5.1119,4.674 1.0457,-0.33187 3.7226,0.2002 5.9488,1.18238 3.414,1.50628 3.9578,2.14322 3.4744,4.06946 -0.4561,1.81722 -0.158,2.28368 1.4594,2.28368 1.118,0 2.8855,0.53263 3.9279,1.18362 1.6065,1.00329 2.4467,0.69951 5.5143,-1.99386 5.391,-4.7334 10.8824,-7.18976 16.0731,-7.18976 4.377,0 10.5588,2.23804 10.4291,3.77568 -0.034,0.39838 -1.9461,2.08137 -4.25,3.73999 -8.2596,5.94626 -15.6302,25.2315 -14.2587,37.30811 0.8084,7.11833 2.9348,11.92435 7.2233,16.3256 3.2545,3.34007 3.3899,3.70207 1.5974,4.27097 -1.0771,0.34188 -4.7676,0.66114 -8.2011,0.70947 -5.5327,0.0779 -6.7151,-0.27133 -10.3962,-3.07051 -6.39,-4.85895 -12.1414,-7.21402 -16.7672,-6.86574 l -4.0701,0.30643 4.1681,3 c 6.4987,4.6774 10.0156,7.61522 10.0156,8.36637 0,0.37872 -2.8125,1.91377 -6.25,3.41123 -7.0799,3.08416 -14.1076,3.43254 -24.25,1.20211 z m -470,-5.17004 c -1.65,-0.21487 -34.05,-3.74843 -72,-7.85234 -37.95,-4.10392 -69.9976,-7.73428 -71.21688,-8.06747 -1.21929,-0.33319 -2.49342,-1.47711 -2.83142,-2.54204 C 452.51037,551.88196 454.10529,531 455.27314,531 c 0.55871,0 12.79809,1.82318 27.19862,4.0515 14.40053,2.22833 49.32301,6.62206 77.60551,9.76385 l 51.42273,5.71234 -0.0625,2.73616 c -0.0344,1.50488 -0.14688,6.78615 -0.25,11.73615 l -0.1875,9 -4.25,-0.14983 c -2.3375,-0.0824 -5.6,-0.32564 -7.25,-0.5405 z M 275.74018,542.42118 c -0.88338,-4.6211 5.11812,-4.78286 6.35142,-0.17118 0.69335,2.59264 0.54678,2.75 -2.56151,2.75 -2.74949,0 -3.37879,-0.4282 -3.78991,-2.57882 z m 187.02676,-15.98235 c 0.45238,-2.36645 3.71871,-3.50867 9.60806,-3.35988 l 3.125,0.0789 -2.6888,0.98399 c -1.47883,0.54119 -2.83144,1.72471 -3.00579,2.63005 -0.21793,1.13162 -1.43389,1.68486 -3.89063,1.77017 -3.18264,0.11052 -3.52704,-0.11959 -3.14784,-2.10327 z m -186.10587,-1.17822 c -0.78485,-1.26991 0.4953,-6.282 1.45328,-5.68994 1.17282,0.72485 1.13877,5.15486 -0.0453,5.88662 -0.512,0.31644 -1.14561,0.22793 -1.40803,-0.19668 z M 539,520.17447 c 0,-0.60356 1.781,-1.57696 3.95778,-2.1631 2.17678,-0.58615 4.22833,-1.50349 4.55901,-2.03854 C 548.254,514.78 552,514.67321 552,515.84501 c 0,0.46476 -0.82039,1.58746 -1.82308,2.49488 C 547.97196,520.33535 539,521.808 539,520.17447 z m 81.5,-3.16187 c -26.29957,-4.06658 -34.92799,-5.79658 -35.35895,-7.08946 -1.82836,-5.48508 -9.64702,-7.67533 -13.72456,-3.84469 -2.13442,2.00518 -2.32886,2.01823 -5.51619,0.37 -5.1694,-2.67321 -16.1125,-4.71516 -17.08269,-3.18759 -1.51165,2.38014 -0.34676,5.70343 2.03938,5.81809 0.93224,0.0448 0.48507,0.50287 -1.0337,1.0589 -2.10979,0.77241 -4.28596,0.40866 -10.2748,-1.71742 -9.19897,-3.2657 -9.87494,-2.5792 12.17805,-12.36773 10.92222,-4.84798 16.88959,-6.99192 18.25492,-6.55858 1.35773,0.43092 2.22746,0.12502 2.63045,-0.92517 0.89111,-2.32219 4.25471,-2.05453 36.83349,2.93105 16.17315,2.475 29.90396,4.5 30.51291,4.5 0.76073,0 1.01871,3.52031 0.82444,11.25 L 640.5,518.5 l -4,0.18406 c -2.2,0.10123 -9.4,-0.65093 -16,-1.67146 z M 172.01531,509.75 c 0.0116,-2.46622 0.24909,-2.88826 0.98469,-1.75 1.2702,1.96549 1.2702,5 0,5 -0.55,0 -0.99311,-1.4625 -0.98469,-3.25 z M 182,509.5 c 0,-3.9272 1.44762,-4.6908 2.36971,-1.25 0.9563,3.56841 0.73996,4.75 -0.86971,4.75 -1.04762,0 -1.5,-1.05556 -1.5,-3.5 z m 10.01531,-0.25 c 0.008,-1.5125 0.43259,-3.40975 0.94259,-4.21612 0.74235,-1.17374 1.13814,-0.91149 1.98468,1.3151 C 196.50095,510.44779 196.24204,512 194,512 c -1.51886,0 -1.99632,-0.66156 -1.98469,-2.75 z M 201,510.03518 c 0,-0.53065 0.9,-1.44648 2,-2.03518 2.2498,-1.20405 6.49635,0.38786 5.46899,2.05017 -0.77092,1.24738 -7.46899,1.23394 -7.46899,-0.015 z m 13.18975,-2.6535 c 0.89008,-0.89008 2.11151,-1.31353 2.71429,-0.94099 1.98568,1.22722 1.14336,2.55931 -1.61833,2.55931 -2.5009,0 -2.58706,-0.12723 -1.09596,-1.61832 z m 275.91395,-5.78067 c -15.73168,-2.92984 -17.62151,-3.50169 -19.75,-5.97619 -2.88192,-3.35044 -2.98384,-5.74458 -0.34615,-8.13165 1.94479,-1.76001 2.5778,-1.71858 20.25,1.32543 10.03335,1.72824 19.74194,3.34164 21.57465,3.58534 9.23621,1.22816 17.1678,2.85757 17.1678,3.52682 0,0.8291 -18.90508,9.1209 -20.5,8.99134 -0.55,-0.0447 -8.82833,-1.53917 -18.3963,-3.32109 z m 598.5201,0.86114 c -0.644,-1.67847 1.6317,-3.04033 3.3283,-1.99175 0.5764,0.3562 1.0479,1.29608 1.0479,2.08862 0,1.9293 -3.6295,1.84896 -4.3762,-0.0969 z m -14.9571,-5.12882 C 1072.3989,496.06554 1073.0078,495 1075,495 c 1.1111,0 2,0.66667 2,1.5 0,1.52241 -2.1154,2.05126 -3.3333,0.83333 z M 1058.5,493 c 0.3399,-0.55 1.2665,-1 2.059,-1 0.7926,0 1.441,0.45 1.441,1 0,0.55 -0.9266,1 -2.059,1 -1.1325,0 -1.7809,-0.45 -1.441,-1 z M 392.19925,475.01356 c -1.81541,-0.42995 -3.57791,-1.05888 -3.91666,-1.39764 -1.03457,-1.03457 5.9188,-0.50068 11.21741,0.86128 l 5,1.28521 -4.5,0.0164 c -2.475,0.009 -5.98534,-0.33534 -7.80075,-0.76528 z M 422.5,444.9692 C 408.81453,439.69595 402,427.27508 402,407.60379 c 0,-16.98405 5.62732,-31.70084 16.44553,-43.00898 8.65143,-9.04323 16.76426,-12.85098 28.53717,-13.39389 6.90721,-0.31852 9.57855,0.007 14.13128,1.72411 3.08769,1.16429 6.36929,2.9515 7.29245,3.97158 1.62013,1.79022 1.37286,1.87141 -7.11398,2.33575 -16.71092,0.91429 -24.36943,6.88212 -34.77637,27.09917 -9.34768,18.15929 -10.84263,22.5749 -10.72445,31.67648 0.0541,4.16479 0.56063,8.78831 1.12568,10.27449 1.53636,4.04094 8.90286,11.57434 14.37261,14.69824 3.64437,2.08139 4.42748,2.91373 3.18864,3.38911 -2.79345,1.07195 -6.76749,0.60727 -11.97856,-1.40065 z m 23.95455,-31.42375 c -3.52686,-3.52685 -3.31256,-8.49864 0.55624,-12.90495 3.68001,-4.19131 7.04404,-5.18063 10.87666,-3.1987 3.25223,1.68179 4.11255,3.33809 4.11255,7.91748 0,3.88289 -2.14549,7.14747 -6.01104,9.14643 -4.10389,2.1222 -6.71493,1.85923 -9.53441,-0.96026 z M 424.5,335.31064 c 2.0201,-1.9872 11.73882,-5.47182 12.66841,-4.54223 0.57014,0.57014 -1.30674,1.62203 -4.8704,2.72959 -3.18891,0.99109 -6.47301,2.02572 -7.29801,2.29917 -0.99168,0.3287 -1.16112,0.16382 -0.5,-0.48653 z"
       style="fill:#0b0b0b" />
  </g>
</svg>
