<?xml version="1.0" encoding="UTF-8" standalone="no"?>
<!-- Created with Inkscape (http://www.inkscape.org/) -->

<svg
   xmlns:dc="http://purl.org/dc/elements/1.1/"
   xmlns:cc="http://creativecommons.org/ns#"
   xmlns:rdf="http://www.w3.org/1999/02/22-rdf-syntax-ns#"
   xmlns:svg="http://www.w3.org/2000/svg"
   xmlns="http://www.w3.org/2000/svg"
   xmlns:xlink="http://www.w3.org/1999/xlink"
   xmlns:sodipodi="http://sodipodi.sourceforge.net/DTD/sodipodi-0.dtd"
   xmlns:inkscape="http://www.inkscape.org/namespaces/inkscape"
   id="svg2"
   version="1.1"
   inkscape:version="0.48.3.1 r9886"
   width="1200"
   height="960"
   sodipodi:docname="hantologie-full-socle_01.svg">
  <metadata
     id="metadata8">
    <rdf:RDF>
      <cc:Work
         rdf:about="">
        <dc:format>image/svg+xml</dc:format>
        <dc:type
           rdf:resource="http://purl.org/dc/dcmitype/StillImage" />
        <dc:title />
      </cc:Work>
    </rdf:RDF>
  </metadata>
  <defs
     id="defs6" />
  <sodipodi:namedview
     pagecolor="#ffffff"
     bordercolor="#666666"
     borderopacity="1"
     objecttolerance="10"
     gridtolerance="10"
     guidetolerance="10"
     inkscape:pageopacity="0"
     inkscape:pageshadow="2"
     inkscape:window-width="640"
     inkscape:window-height="480"
     id="namedview4"
     showgrid="false"
     inkscape:zoom="0.98333333"
     inkscape:cx="504.93311"
     inkscape:cy="431.55046"
     inkscape:current-layer="g4342"
     showguides="true"
     inkscape:guide-bbox="true" />
  <g
     inkscape:groupmode="layer"
     id="layer1"
     inkscape:label="XX_hantologie-full-socle_1200px"
     sodipodi:insensitive="true"
     style="display:none">
    <image
       width="1200"
       height="960"
       xlink:href="../px/hantologie-full-socle_1200px.jpg"
       id="image10"
       x="0"
       y="0" />
  </g>
  <g
     inkscape:groupmode="layer"
     id="layer2"
     inkscape:label="XX_boxes"
     style="display:none">
    <path
       id="path3007-9"
       style="fill:none;stroke:#ff0000;stroke-width:1px;stroke-linecap:square;stroke-linejoin:round;stroke-opacity:1"
       d="m 776.417,673.282 40.384,-25.089 -8.96201,39.39174 L 767.288,713.898 z"
       inkscape:connector-curvature="0"
       sodipodi:nodetypes="ccccc" />
    <path
       id="path3007-9-7-6"
       style="fill:none;stroke:#00ff00;stroke-width:1px;stroke-linecap:square;stroke-linejoin:round;stroke-opacity:1"
       d="M 423.311,544.628 776.39407,673.34322 767.288,713.898 414.61843,583.19783 z"
       inkscape:connector-curvature="0"
       sodipodi:nodetypes="ccccc" />
    <path
       id="path3007-9-7-6-2-1"
       style="fill:none;stroke:#0000ff;stroke-width:1px;stroke-linecap:square;stroke-linejoin:round;stroke-opacity:1"
       d="M 776.417,673.282 816.801,648.193 463.15446,521.69996 423.311,544.628 z"
       inkscape:connector-curvature="0"
       sodipodi:nodetypes="ccccc" />
    <path
       inkscape:connector-curvature="0"
       style="fill:none;stroke:#00ff00;stroke-width:1px;stroke-linecap:square;stroke-linejoin:round;stroke-opacity:1"
       d="m 299.70484,523.68448 585.14842,31.01802 0.0465,35.2158 -585.97745,-35.574 z"
       id="path3955" />
    <path
       inkscape:connector-curvature="0"
       style="fill:none;stroke:#ff0000;stroke-width:1px;stroke-linecap:square;stroke-linejoin:round;stroke-opacity:1"
       d="m 884.87619,554.64128 46.99417,-20.51273 -0.57218,31.00191 -46.39845,24.78784 z"
       id="path3007-9-7-6-2-1-9" />
    <path
       inkscape:connector-curvature="0"
       style="fill:none;stroke:#0000ff;stroke-width:1px;stroke-linecap:square;stroke-linejoin:round;stroke-opacity:1"
       d="M 752.27645,778.54392 800.54173,765.65831 674.54266,644.18758 627.18609,656.89487 z"
       id="path4017" />
    <path
       inkscape:connector-curvature="0"
       style="fill:none;stroke:#00ff00;stroke-width:1px;stroke-linecap:square;stroke-linejoin:round;stroke-opacity:1"
       d="M 627.18609,656.89487 752.25345,778.60514 720.01131,840.26162 599.79667,715.95881 z"
       id="path4015" />
    <path
       inkscape:connector-curvature="0"
       style="fill:none;stroke:#ff0000;stroke-width:1px;stroke-linecap:square;stroke-linejoin:round;stroke-opacity:1"
       d="m 752.27645,778.54392 48.26528,-12.88561 -31.33481,60.2392 -49.19511,14.36411 z"
       id="path3007-9-7-6-2-1-9-8" />
    <path
       inkscape:connector-curvature="0"
       style="fill:none;stroke:#0000ff;stroke-width:1px;stroke-linecap:square;stroke-linejoin:round;stroke-opacity:1"
       d="m 884.87619,554.64128 46.99417,-20.51273 -567.19121,-27.10636 -64.97431,16.66229 z"
       id="path3957" />
    <path
       inkscape:connector-curvature="0"
       style="fill:none;stroke:#0000ff;stroke-width:1px;stroke-linecap:square;stroke-linejoin:round;stroke-opacity:1"
       d="m 616.36685,592.42384 106.48561,14.82626 -34.9013,-66.90958 -94.09752,-8.86546 z"
       id="path4041" />
    <path
       inkscape:connector-curvature="0"
       style="fill:none;stroke:#00ff00;stroke-width:1px;stroke-linecap:square;stroke-linejoin:round;stroke-opacity:1"
       d="m 593.85364,531.47506 22.49021,61.01 -7.32689,37.50394 -24.21591,-69.65185 z"
       id="path4039" />
    <path
       inkscape:connector-curvature="0"
       style="fill:none;stroke:#ff0000;stroke-width:1px;stroke-linecap:square;stroke-linejoin:round;stroke-opacity:1"
       d="M 616.36685,592.42384 722.85246,607.2501 714.90749,645.62489 609.01746,629.989 z"
       id="path3007-9-7-6-2-1-9-8-4" />
    <path
       inkscape:connector-curvature="0"
       style="fill:none;stroke:#0000ff;stroke-width:1px;stroke-linecap:square;stroke-linejoin:round;stroke-opacity:1"
       d="m 615.20976,760.68285 83.89645,-23.53802 -33.59579,-6.05652 -86.44176,19.94182 z"
       id="path4023" />
    <path
       inkscape:connector-curvature="0"
       style="fill:none;stroke:#00ff00;stroke-width:1px;stroke-linecap:square;stroke-linejoin:round;stroke-opacity:1"
       d="m 579.06866,751.03013 36.1181,9.71394 0.55447,63.30903 -36.44345,-10.40451 z"
       id="path4021" />
    <path
       inkscape:connector-curvature="0"
       style="fill:none;stroke:#ff0000;stroke-width:1px;stroke-linecap:square;stroke-linejoin:round;stroke-opacity:1"
       d="m 615.20976,760.68285 83.89645,-23.53802 -3.00477,65.22174 -80.35971,21.68653 z"
       id="path3007-9-7-6-2-1-9-8-6" />
    <path
       inkscape:connector-curvature="0"
       style="fill:none;stroke:#0000ff;stroke-width:1px;stroke-linecap:square;stroke-linejoin:round;stroke-opacity:1"
       d="m 543.75612,641.73844 85.16764,-12.60581 -48.08732,-23.5989 -87.07736,10.53504 z"
       id="path4035" />
    <path
       inkscape:connector-curvature="0"
       style="fill:none;stroke:#00ff00;stroke-width:1px;stroke-linecap:square;stroke-linejoin:round;stroke-opacity:1"
       d="m 493.75908,616.06877 49.97404,25.73089 -33.51333,167.29208 -46.51073,-28.74135 z"
       id="path4033" />
    <path
       inkscape:connector-curvature="0"
       style="fill:none;stroke:#ff0000;stroke-width:1px;stroke-linecap:square;stroke-linejoin:round;stroke-opacity:1"
       d="m 543.75612,641.73844 85.16764,-12.60581 -32.75054,157.25563 -85.95293,22.70348 z"
       id="path3007-9-7-6-2-1-9-8-6-4" />
    <path
       style="fill:none;stroke:#00ff00;stroke-width:1px;stroke-linecap:square;stroke-linejoin:round;stroke-opacity:1;display:inline"
       d="m 632.69893,283.76052 21.16848,-5.05535 -408.58552,293.44267 -14.76286,3.28801 z"
       id="path4256"
       inkscape:connector-curvature="0" />
    <path
       style="fill:none;stroke:#0000ff;stroke-width:1px;stroke-linecap:square;stroke-linejoin:round;stroke-opacity:1;display:inline"
       d="m 621.53284,257.7313 11.14309,26.09044 -402.1574,291.61411 -5.64588,-16.34231 z"
       id="path4254"
       inkscape:connector-curvature="0" />
    <path
       style="fill:none;stroke:#ff0000;stroke-width:1px;stroke-linecap:square;stroke-linejoin:round;stroke-opacity:1;display:inline"
       d="m 632.69893,283.76052 21.16848,-5.05535 -9.97546,-25.03709 -22.35911,4.06322 z"
       id="path3007-9-7-6-2-1-9-8-6-4-3"
       inkscape:connector-curvature="0" />
    <path
       style="fill:none;stroke:#ff00ff;stroke-width:1px;stroke-linecap:butt;stroke-linejoin:miter;stroke-opacity:1"
       d="m 307.62712,512.0339 c 0,-40.03168 20.84746,-40.19612 20.84746,-115.42373 4.74283,-1.27084 88.07794,4.09846 99.47485,8.23 -33.05614,21.95958 -23.71214,33.21068 -41.50875,68.54966 l -22.37288,20.84746 c -9.26071,-1.52542 -33.11196,23.93679 -56.44068,17.79661 z"
       id="path4258"
       inkscape:connector-curvature="0"
       sodipodi:nodetypes="cccccc" />
    <path
       style="fill:none;stroke:#ff00ff;stroke-width:1px;stroke-linecap:butt;stroke-linejoin:miter;stroke-opacity:1"
       d="m 456.62319,421.40036 c 0,0 25.52775,39.90958 15.46047,103.90874 -85.57191,0.71909 -101.93124,-11.50547 -118.1108,-15.99979 1.20958,-5.76945 6.47684,-9.59633 10.07093,-15.16394 8.10803,-7.25246 22.34595,-20.85551 22.34595,-20.85551 0,0 4.81786,-10.08818 6.59385,-14.76639 l 44.22413,-21.66264 z"
       id="path4260"
       inkscape:connector-curvature="0"
       sodipodi:nodetypes="cccccccc" />
  </g>
  <g
     inkscape:label="XX_boxes_color"
     id="g4189"
     inkscape:groupmode="layer"
     style="display:none">
    <path
       id="path4221"
       d="m 543.75612,641.73844 85.16764,-12.60581 -48.08732,-23.5989 -87.07736,10.53504 z"
       style="fill:#969f82;fill-opacity:1;stroke:none"
       inkscape:connector-curvature="0" />
    <path
       id="path4223"
       d="m 493.75908,616.06877 49.97404,25.73089 -33.51333,167.29208 -46.51073,-28.74135 z"
       style="fill:#b1a490;fill-opacity:1;stroke:none"
       inkscape:connector-curvature="0" />
    <path
       id="path4225"
       d="m 543.75612,641.73844 85.16764,-12.60581 -32.75054,157.25563 -85.95293,22.70348 z"
       style="fill:#9d9080;fill-opacity:1;stroke:none"
       inkscape:connector-curvature="0" />
    <path
       id="path4215"
       d="m 615.20976,760.68285 83.89645,-23.53802 -33.59579,-6.05652 -86.44176,19.94182 z"
       style="fill:#a9aaa4;fill-opacity:1;stroke:none"
       inkscape:connector-curvature="0" />
    <path
       id="path4217"
       d="m 579.06866,751.03013 36.1181,9.71394 0.55447,63.30903 -36.44345,-10.40451 z"
       style="fill:#98a093;fill-opacity:1;stroke:none"
       inkscape:connector-curvature="0" />
    <path
       id="path4219"
       d="m 615.20976,760.68285 83.89645,-23.53802 -3.00477,65.22174 -80.35971,21.68653 z"
       style="fill:#75776a;fill-opacity:1;stroke:none"
       inkscape:connector-curvature="0" />
    <path
       id="path4201"
       d="M 752.27645,778.54392 800.54173,765.65831 674.54266,644.18758 627.18609,656.89487 z"
       style="fill:#a7a590;fill-opacity:1;stroke:none"
       inkscape:connector-curvature="0" />
    <path
       id="path4203"
       d="M 627.18609,656.89487 752.25345,778.60514 720.01131,840.26162 599.79667,715.95881 z"
       style="fill:#b8ad99;fill-opacity:1;stroke:none"
       inkscape:connector-curvature="0" />
    <path
       id="path4205"
       d="m 752.27645,778.54392 48.26528,-12.88561 -31.33481,60.2392 -49.19511,14.36411 z"
       style="fill:#8c7b67;fill-opacity:1;stroke:none"
       inkscape:connector-curvature="0" />
    <path
       sodipodi:nodetypes="ccccc"
       inkscape:connector-curvature="0"
       d="m 776.417,673.282 40.384,-25.089 -8.96201,39.39174 L 767.288,713.898 z"
       style="fill:#7f8072;fill-opacity:1;stroke:none"
       id="path4191" />
    <path
       sodipodi:nodetypes="ccccc"
       inkscape:connector-curvature="0"
       d="M 423.311,544.628 776.39407,673.34322 767.288,713.898 414.61843,583.19783 z"
       style="fill:#b4c2ab;fill-opacity:1;stroke:none"
       id="path4193" />
    <path
       sodipodi:nodetypes="ccccc"
       inkscape:connector-curvature="0"
       d="M 776.417,673.282 816.801,648.193 463.15446,521.69996 423.311,544.628 z"
       style="fill:#828a7d;fill-opacity:1;stroke:none"
       id="path4195" />
    <path
       id="path4209"
       d="m 616.36685,592.42384 106.48561,14.82626 -34.9013,-66.90958 -94.09752,-8.86546 z"
       style="fill:#3a5953;fill-opacity:1;stroke:none"
       inkscape:connector-curvature="0" />
    <path
       id="path4211"
       d="m 593.85364,531.47506 22.49021,61.01 -7.32689,37.50394 -24.21591,-69.65185 z"
       style="fill:#283430;fill-opacity:1;stroke:none"
       inkscape:connector-curvature="0" />
    <path
       id="path4213"
       d="M 616.36685,592.42384 722.85246,607.2501 714.90749,645.62489 609.01746,629.989 z"
       style="fill:#a6a892;fill-opacity:1;stroke:none"
       inkscape:connector-curvature="0" />
    <path
       id="path4197"
       d="m 299.70484,523.68448 585.14842,31.01802 0.0465,35.2158 -585.97745,-35.574 z"
       style="fill:#d4d5cf;fill-opacity:1;stroke:none"
       inkscape:connector-curvature="0" />
    <path
       id="path4199"
       d="m 884.87619,554.64128 46.99417,-20.51273 -0.57218,31.00191 -46.39845,24.78784 z"
       style="fill:#a5a59d;fill-opacity:1;stroke:none"
       inkscape:connector-curvature="0" />
    <path
       id="path4207"
       d="m 884.87619,554.64128 46.99417,-20.51273 -567.19121,-27.10636 -64.97431,16.66229 z"
       style="fill:#c7cfd2;fill-opacity:1;stroke:none"
       inkscape:connector-curvature="0" />
    <path
       inkscape:connector-curvature="0"
       style="fill:#46392d;fill-opacity:1;stroke:none;display:inline"
       d="m 632.69893,283.76052 21.16848,-5.05535 -408.58552,293.44267 -14.76286,3.28801 z"
       id="path4256-3" />
    <path
       inkscape:connector-curvature="0"
       style="fill:#2c231c;fill-opacity:1;stroke:none;display:inline"
       d="m 621.53284,257.7313 11.14309,26.09044 -402.1574,291.61411 -5.64588,-16.34231 z"
       id="path4254-5" />
    <path
       inkscape:connector-curvature="0"
       style="fill:#040001;fill-opacity:1;stroke:none;display:inline"
       d="m 632.69893,283.76052 21.16848,-5.05535 -9.97546,-25.03709 -22.35911,4.06322 z"
       id="path3007-9-7-6-2-1-9-8-6-4-3-2" />
    <path
       id="path4260-8"
       style="fill:#afaca3;fill-opacity:1;stroke:none;display:inline"
       d="m 456.05116,420.70121 c 0,0 26.09978,40.60873 16.0325,104.60789 -85.57191,0.71909 -101.93124,-11.50547 -118.1108,-15.99979 1.20958,-5.76945 6.47684,-9.59633 10.07093,-15.16394 7.06323,-10.25899 24.6859,-31.00804 28.9398,-35.6219 l 42.76227,-23.25162 z M 307.62712,512.0339 c 0,-40.03168 20.84746,-40.19612 20.84746,-115.42373 4.74283,-1.27084 88.07794,4.09846 99.47485,8.23 -41.07917,40.02135 -11.1473,67.38626 -63.88163,89.39712 -9.26071,-1.52542 -33.11196,23.93679 -56.44068,17.79661 z"
       inkscape:connector-curvature="0"
       sodipodi:nodetypes="cccccccccccc" />
  </g>
  <g
     style="display:inline"
     inkscape:groupmode="layer"
     id="g4342"
     inkscape:label="boxes_cut">
    <path
       style="fill:#969f82;fill-opacity:1;stroke:none"
       d="m 500.96875,615.1875 -7.21875,0.875 50,25.6875 20.625,-3.0625 -63.40625,-23.5 z"
       id="path4344"
       inkscape:connector-curvature="0" />
    <path
       inkscape:connector-curvature="0"
       style="fill:#b1a490;fill-opacity:1;stroke:none"
       d="m 493.75908,616.06877 49.97404,25.73089 -33.51333,167.29208 -46.51073,-28.74135 z"
       id="path4346" />
    <path
       style="fill:#9d9080;fill-opacity:1;stroke:none"
       d="m 564.375,638.6875 -20.625,3.0625 -33.53125,167.34375 69,-18.25 -0.15625,-39.8125 25.71875,-5.9375 4.09375,-19.71875 -9.09375,-9.40625 20.09375,-43.3125 2.59375,-12.4375 L 564.375,638.6875 z m 14.6875,112.34375 23.1875,6.25 0,-0.0625 -23.1875,-6.1875 z"
       id="path4348"
       inkscape:connector-curvature="0" />
    <path
       style="fill:#a9aaa4;fill-opacity:1;stroke:none"
       d="m 623.71875,740.71875 -44.65625,10.3125 36.15625,9.65625 21.875,-6.125 -13.375,-13.84375 z"
       id="path4350"
       inkscape:connector-curvature="0" />
    <path
       inkscape:connector-curvature="0"
       style="fill:#98a093;fill-opacity:1;stroke:none"
       d="m 579.06866,751.03013 36.1181,9.71394 0.55447,63.30903 -36.44345,-10.40451 z"
       id="path4352" />
    <path
       style="fill:#75776a;fill-opacity:1;stroke:none"
       d="m 637.09375,754.5625 -21.875,6.125 0.53125,63.375 L 686,805.09375 637.09375,754.5625 z"
       id="path4354"
       inkscape:connector-curvature="0" />
    <path
       style="fill:#a7a590;fill-opacity:1;stroke:none"
       d="m 635.625,665.09375 116.65625,113.4375 48.25,-12.875 -66.4375,-64.0625 -98.46875,-36.5 z"
       id="path4356"
       inkscape:connector-curvature="0" />
    <path
       style="fill:#b8ad99;fill-opacity:1;stroke:none"
       d="m 625.1875,661.21875 -25.40625,54.75 L 720,840.25 l 32.25,-61.65625 -116.65625,-113.5 -10.40625,-3.875 z"
       id="path4358"
       inkscape:connector-curvature="0" />
    <path
       inkscape:connector-curvature="0"
       style="fill:#8c7b67;fill-opacity:1;stroke:none"
       d="m 752.27645,778.54392 48.26528,-12.88561 -31.33481,60.2392 -49.19511,14.36411 z"
       id="path4360" />
    <path
       id="path4362"
       style="fill:#7f8072;fill-opacity:1;stroke:none"
       d="m 776.417,673.282 40.384,-25.089 -8.96201,39.39174 L 767.288,713.898 z"
       inkscape:connector-curvature="0"
       sodipodi:nodetypes="ccccc" />
    <path
       style="fill:#b4c2ab;fill-opacity:1;stroke:none"
       d="m 419.46875,561.65625 -4.84375,21.53125 352.65625,130.71875 9.125,-40.5625 -85.9375,-31.3125 L 609.03125,630 602,609.78125 l -121.875,-44.4375 -60.65625,-3.6875 z"
       id="path4364"
       inkscape:connector-curvature="0" />
    <path
       style="fill:#828a7d;fill-opacity:1;stroke:none"
       d="m 480.1875,565.34375 121.78125,44.375 -13.125,-37.78125 -108.65625,-6.59375 z m 241.25,48.71875 -6.53125,31.5625 -24.1875,-3.5625 85.6875,31.21875 40.40625,-25.09375 -95.375,-34.125 z"
       id="path4366"
       inkscape:connector-curvature="0" />
    <path
       style="fill:#3a5953;fill-opacity:1;stroke:none"
       d="m 609.25,573.1875 7.125,19.25 106.46875,14.8125 -14.65625,-28.0625 z"
       id="path4368"
       inkscape:connector-curvature="0"
       sodipodi:nodetypes="ccccc" />
    <path
       style="fill:#283430;fill-opacity:1;stroke:none"
       d="m 588.84375,571.9375 20.1875,58.0625 7.3125,-37.5 -7.125,-19.3125 z"
       id="path4370"
       inkscape:connector-curvature="0"
       sodipodi:nodetypes="ccccc" />
    <path
       inkscape:connector-curvature="0"
       style="fill:#a6a892;fill-opacity:1;stroke:none"
       d="M 616.36685,592.42384 722.85246,607.2501 714.90749,645.62489 609.01746,629.989 z"
       id="path4372" />
    <path
       inkscape:connector-curvature="0"
       style="fill:#d4d5cf;fill-opacity:1;stroke:none"
       d="m 299.70484,523.68448 585.14842,31.01802 0.0465,35.2158 -585.97745,-35.574 z"
       id="path4374" />
    <path
       inkscape:connector-curvature="0"
       style="fill:#a5a59d;fill-opacity:1;stroke:none"
       d="m 884.87619,554.64128 46.99417,-20.51273 -0.57218,31.00191 -46.39845,24.78784 z"
       id="path4376" />
    <path
       style="fill:#c7cfd2;fill-opacity:1;stroke:none"
       d="M 354.8125 509.5625 L 299.71875 523.6875 L 884.875 554.65625 L 931.875 534.125 L 473.6875 512.25 C 473.31592 516.49097 472.79776 520.83702 472.09375 525.3125 C 387.99128 526.01924 370.74077 514.23459 354.8125 509.5625 z "
       id="path4378" />
    <path
       style="fill:#3a5953;fill-opacity:1;stroke:none;display:inline"
       d="m 609.25,573.1875 7.125,19.25 106.46875,14.8125 -14.65625,-28.0625 z"
       id="path4368-2"
       inkscape:connector-curvature="0"
       sodipodi:nodetypes="ccccc" />
    <path
       style="fill:#283430;fill-opacity:1;stroke:none;display:inline"
       d="m 588.84375,571.9375 20.1875,58.0625 7.3125,-37.5 -7.125,-19.3125 z"
       id="path4370-1"
       inkscape:connector-curvature="0"
       sodipodi:nodetypes="ccccc" />
    <path
       inkscape:connector-curvature="0"
       style="fill:#a6a892;fill-opacity:1;stroke:none;display:inline"
       d="M 616.36685,592.42384 722.85246,607.2501 714.90749,645.62489 609.01746,629.989 z"
       id="path4372-9" />
    <path
       inkscape:connector-curvature="0"
       style="fill:#98a093;fill-opacity:1;stroke:none;display:inline"
       d="m 579.06866,751.03013 36.1181,9.71394 0.55447,63.30903 -36.44345,-10.40451 z"
       id="path4352-6" />
    <path
       style="fill:#b3b3b3;fill-opacity:1;stroke:none;display:inline"
       d="M 653.875 278.71875 L 632.6875 283.75 L 401.8125 451.21875 C 401.53856 452.21424 401.24208 453.2119 400.96875 454.1875 L 435.75 435.28125 L 456.0625 420.6875 C 456.0625 420.6875 456.09291 420.74869 456.09375 420.75 L 653.875 278.71875 z M 334.1875 508.3125 C 328.6264 510.79266 322.70568 512.66286 316.6875 512.9375 L 230.53125 575.4375 L 245.28125 572.15625 L 334.1875 508.3125 z "
       id="path4256-3-3" />
    <path
       style="fill:#999999;fill-opacity:1;stroke:none;display:inline"
       d="M 621.53125 257.71875 L 427.90625 404.84375 C 409.68356 422.60373 405.47122 437.84071 401.78125 451.25 L 632.6875 283.8125 L 621.53125 257.71875 z M 309.125 495.0625 L 224.875 559.09375 L 230.53125 575.4375 L 316.71875 512.9375 C 313.70129 513.07801 310.65824 512.82961 307.625 512.03125 C 307.625 505.46829 308.18823 499.98803 309.125 495.0625 z "
       id="path4254-5-5" />
    <path
       inkscape:connector-curvature="0"
       style="fill:#666666;fill-opacity:1;stroke:none;display:inline"
       d="m 632.69893,283.76052 21.16848,-5.05535 -9.97546,-25.03709 -22.35911,4.06322 z"
       id="path3007-9-7-6-2-1-9-8-6-4-3-2-7" />
    <path
       style="fill:#afaca3;fill-opacity:1;stroke:none;display:inline"
       d="M 330.25 396.4375 C 329.37632 396.46697 328.76518 396.54557 328.46875 396.625 C 328.46875 471.85261 307.625 471.99957 307.625 512.03125 C 330.8791 518.15179 354.64478 492.90095 363.96875 494.25 C 360.37639 499.76573 355.17136 503.57628 353.96875 509.3125 C 370.14831 513.80682 386.52184 526.03159 472.09375 525.3125 C 482.16103 461.31334 456.0625 420.6875 456.0625 420.6875 L 435.75 435.28125 L 400.96875 454.1875 C 404.92251 440.0755 408.36499 423.91225 427.9375 404.84375 C 417.2529 400.97043 343.35518 395.99538 330.25 396.4375 z "
       id="path4260-8-3" />
  </g>
</svg>
