<?xml version="1.0" encoding="UTF-8" standalone="no"?>
<!-- Created with Inkscape (http://www.inkscape.org/) -->

<svg
   xmlns:dc="http://purl.org/dc/elements/1.1/"
   xmlns:cc="http://creativecommons.org/ns#"
   xmlns:rdf="http://www.w3.org/1999/02/22-rdf-syntax-ns#"
   xmlns:svg="http://www.w3.org/2000/svg"
   xmlns="http://www.w3.org/2000/svg"
   xmlns:xlink="http://www.w3.org/1999/xlink"
   xmlns:sodipodi="http://sodipodi.sourceforge.net/DTD/sodipodi-0.dtd"
   xmlns:inkscape="http://www.inkscape.org/namespaces/inkscape"
   id="svg2"
   version="1.1"
   inkscape:version="0.48.3.1 r9886"
   width="1000"
   height="935"
   sodipodi:docname="hantologie-_0007_mort.svg">
  <metadata
     id="metadata8">
    <rdf:RDF>
      <cc:Work
         rdf:about="">
        <dc:format>image/svg+xml</dc:format>
        <dc:type
           rdf:resource="http://purl.org/dc/dcmitype/StillImage" />
        <dc:title />
      </cc:Work>
    </rdf:RDF>
  </metadata>
  <defs
     id="defs6" />
  <sodipodi:namedview
     pagecolor="#ffffff"
     bordercolor="#666666"
     borderopacity="1"
     objecttolerance="10"
     gridtolerance="10"
     guidetolerance="10"
     inkscape:pageopacity="0"
     inkscape:pageshadow="2"
     inkscape:window-width="640"
     inkscape:window-height="480"
     id="namedview4"
     showgrid="false"
     inkscape:zoom="0.25240642"
     inkscape:cx="500"
     inkscape:cy="463.53814"
     inkscape:current-layer="g3006" />
  <g
     inkscape:groupmode="layer"
     id="layer1"
     inkscape:label="XX_hantologie-_0007_mort_LEVEL"
     style="display:none">
    <image
       width="1000"
       height="935"
       xlink:href="../px/hantologie-_0007_mort_LEVEL.png"
       id="image10"
       x="0"
       y="0" />
  </g>
  <g
     inkscape:label="hantologie-_0007_mort_TRACE-01"
     id="g3006"
     inkscape:groupmode="layer">
    <path
       inkscape:connector-curvature="0"
       id="path3024"
       d="m 399.81897,739.48563 c -0.28291,-0.2829 -18.92041,-0.93879 -41.41667,-1.45754 -103.62583,-2.38953 -198.60729,-7.33521 -262.1523,-13.65026 -5.756316,-0.57206 -6.420586,-1.71457 -4.03765,-6.94454 l 1.212351,-2.66082 9.565669,0.67817 c 7.85252,0.55672 10.99342,0.32002 17.53765,-1.32163 4.38459,-1.09989 10.33448,-2.2961 13.22198,-2.65824 2.8875,-0.36215 5.24498,-0.95372 5.23884,-1.31461 -0.006,-0.36089 -5.74364,-3.47385 -12.75,-6.91769 -7.00636,-3.44384 -14.85427,-7.81969 -17.43979,-9.72412 C 103.09633,689.31388 96.844407,679.05976 90.804194,664 c -4.162656,-10.37854 -4.208233,-10.62724 -3.940075,-21.5 0.408029,-16.54398 0.407413,-16.39378 0.103993,-25.34236 -0.22289,-6.57354 -0.738402,-9.01187 -2.431326,-11.5 C 83.355133,603.92094 78.301676,596.65 73.306881,589.5 68.312086,582.35 62.019386,572.634 59.323102,567.90888 51.637988,554.44106 48.079326,542 51.912079,542 c 0.536167,0 1.757061,1.32418 2.713098,2.94262 1.47231,2.49242 1.906819,2.71209 2.840063,1.4358 0.963497,-1.31766 1.434315,-1.24527 3.750487,0.57663 3.905794,3.0723 22.338677,23.43612 29.504142,32.59486 9.294351,11.87982 17.285601,19.60072 23.720721,22.91824 3.1666,1.63248 6.51748,3.93438 7.44641,5.11532 0.92893,1.18094 2.79687,2.49277 4.15098,2.91518 3.99915,1.24749 9.91762,5.8625 9.94067,7.75135 0.0133,1.0905 0.79375,1.75 2.07092,1.75 1.12726,0 3.62461,1.52966 5.54966,3.39925 1.92505,1.86959 4.94025,3.93557 6.70043,4.59107 1.76019,0.6555 5.90034,2.27713 9.20034,3.60362 3.3,1.3265 7.15582,2.41051 8.5685,2.40893 3.36861,-0.004 12.86796,2.83922 15.39057,4.60612 1.09227,0.76506 3.53376,1.39101 5.42554,1.39101 1.89179,0 5.72916,0.64016 8.5275,1.42257 6.38436,1.78506 13.67901,3.31132 19.90168,4.16401 3.5955,0.4927 5.82595,0.20322 8.81314,-1.14382 4.54115,-2.04777 4.5591,-2.54179 0.45219,-12.44276 -4.41763,-10.65007 -4.97512,-12.54148 -5.02466,-17.04738 -0.0294,-2.67258 0.65101,-5.61726 1.6503,-7.14237 2.83783,-4.33107 13.37004,-11.67825 18.53363,-12.92889 2.61889,-0.6343 5.18911,-1.5421 5.71161,-2.01732 2.08055,-1.89229 3.34894,-0.78095 3.2938,2.88596 -0.0749,4.97993 1.30436,14.30626 2.44429,16.52801 1.25434,2.44474 2.81191,1.2034 2.81191,-2.24102 0,-4.38045 12.54194,-27.33157 16.81972,-30.77925 1.25167,-1.00878 2.14963,-0.88336 4.7778,0.6673 3.23431,1.90829 3.24061,1.90785 9.56946,-0.66742 4.58067,-1.86392 9.37673,-2.82246 17.33302,-3.46417 6.05,-0.48797 12.41801,-1.54112 14.15113,-2.34033 3.67522,-1.6948 7.70294,-1.86918 10.35765,-0.44842 1.03251,0.55258 8.99042,1.49136 17.68425,2.08617 8.69384,0.59481 18.28197,1.77525 21.30697,2.6232 7.69611,2.15733 12.36979,2.20813 12.78026,0.1389 0.25111,-1.26585 -1.46384,-2.20316 -7.41012,-4.05005 -4.25526,-1.32167 -7.938,-3.00651 -8.18387,-3.74411 -0.34408,-1.03223 0.2163,-1.15276 2.43335,-0.52335 1.58421,0.44974 6.25538,0.92637 10.38038,1.05917 10.55531,0.33983 32.9976,2.28585 34.08065,2.95521 0.49759,0.30753 5.2955,1.16823 10.66203,1.91266 5.36653,0.74443 12.29806,1.928 15.40342,2.63015 4.62494,1.04574 6.64711,1.03649 11.18086,-0.0511 3.93183,-0.94323 8.08889,-1.10535 14.3539,-0.55978 4.85053,0.42239 13.54414,0.88606 19.31914,1.03036 10.29586,0.25728 18.05775,2.12059 20.5,4.92122 0.55,0.6307 3.475,2.07989 6.5,3.2204 3.025,1.14052 6.25467,2.39555 7.17704,2.78897 1.33479,0.56933 1.56608,0.29103 1.13337,-1.36369 -0.43778,-1.67405 -0.0827,-2.0775 1.82296,-2.07135 3.44763,0.0111 14.803,3.63012 16.72177,5.32928 0.90467,0.80113 2.54486,1.63239 3.64486,1.84723 1.65862,0.32396 1.95755,1.08014 1.75132,4.43017 -0.5114,8.30736 5.70547,10.58019 28.02559,10.24587 15.05143,-0.22545 17.2788,0.41907 14.85588,4.29879 -1.09285,1.74993 -1.08859,2.25401 0.025,2.96033 2.21911,1.40746 7.53441,2.12386 12.07006,1.62681 11.68468,-1.2805 44.13699,3.47427 52.77211,7.73194 1.375,0.67796 6.325,2.2186 11,3.42363 5.42061,1.39722 9.3598,3.04222 10.87328,4.54065 3.73126,3.69415 2.05215,4.68163 -6.71704,3.95031 -6.4611,-0.53883 -7.92481,-0.37644 -9.07262,1.0066 -0.75274,0.90699 -1.192,1.78356 -0.97612,1.94793 0.21587,0.16436 7.8175,2.91602 16.8925,6.11478 17.37409,6.12405 49.07489,18.42066 54.9885,21.32982 3.33123,1.63878 3.99633,2.97833 14.75227,29.71219 11.53787,28.67734 15.08304,39.00556 13.82165,40.26694 -0.39403,0.39404 -19.24427,0.8402 -41.88942,0.99147 -22.64515,0.15128 -43.873,0.71181 -47.173,1.24563 -4.01568,0.6496 -14.10262,0.58226 -30.5,-0.20361 -18.88406,-0.90505 -35.38805,-0.89735 -72,0.0336 -46.8147,1.19034 -163.17932,1.64938 -164.18103,0.64766 z M 251.98469,623.69098 C 251.99311,623.24602 251.55,623.16008 251,623.5 c -0.55,0.33992 -0.99311,1.37898 -0.98469,2.30902 0.0132,1.45727 0.14929,1.48367 0.98469,0.19098 0.53316,-0.825 0.97627,-1.86406 0.98469,-2.30902 z M 769.73433,736.75 c -0.90637,-0.6875 -3.42898,-5.14881 -5.60581,-9.91401 C 758.56199,714.65054 746,681.54982 746,679.06752 c 0,-2.51326 2.7969,-2.74103 6.99576,-0.56971 4.5465,2.35109 27.83457,10.39597 34.81629,12.02732 3.47163,0.81118 8.68069,1.47487 11.57569,1.47487 6.60473,0 8.95635,2.21873 11.70208,11.04075 2.21761,7.1252 1.91073,9.18234 -1.60904,10.78605 -3.48286,1.5869 -3.21257,4.72245 0.51922,6.02336 1.89959,0.66219 3,1.73584 3,2.92703 0,2.63717 -7.04412,12.4327 -10.02532,13.94116 -3.43411,1.73763 -30.95673,1.76384 -33.24035,0.0317 z m 42.68673,0.12228 c -0.68638,-1.11059 6.23534,-16.76041 7.96911,-18.01793 0.48959,-0.3551 4.24151,-0.95969 8.33759,-1.34352 4.09608,-0.38384 13.07019,-1.50758 19.94246,-2.49721 14.40115,-2.07381 24.77118,-1.36087 31.70501,2.17972 2.60184,1.32856 8.00155,2.56021 14.62477,3.33584 8.97433,1.05096 23.77182,3.13802 35.71785,5.03768 3.8375,0.61024 6.42066,2.90862 5.61848,4.99906 -1.01312,2.64014 -6.0419,4.44138 -16.58339,5.93992 -13.16452,1.87142 -106.20543,2.18907 -107.33188,0.36644 z m 6.21299,-25.97597 c -2.94435,-9.89535 -4.28402,-15.62117 -3.89474,-16.64631 0.31959,-0.84162 2.64495,-1.21743 7.11768,-1.15032 8.47334,0.12714 11.72844,1.04108 11.3557,3.18835 -0.19367,1.11571 0.62111,1.84038 2.5,2.22351 8.80812,1.7961 22.87533,5.67648 23.75024,6.55139 1.74992,1.74992 -1.34408,2.75482 -10.40221,3.3785 -4.7084,0.3242 -9.91072,1.04618 -11.56072,1.60442 -1.65,0.55823 -6.47636,1.29212 -10.72524,1.63087 -6.13964,0.48948 -7.81052,0.3293 -8.14071,-0.78041 z M 843,697.27491 C 837.88002,696.36506 838.62467,695 844.24098,695 c 3.10254,0 5.9191,0.45 6.25902,1 0.33992,0.55 -0.0467,1 -0.8592,1 -0.81247,0 -2.07653,0.16182 -2.80901,0.35959 -0.73249,0.19777 -2.45679,0.15967 -3.83179,-0.0847 z M 282,574.0038 c 0,-1.21231 2.80451,-2.53262 3.62877,-1.70836 0.29839,0.29839 -0.39602,1.04481 -1.54312,1.65872 -1.44619,0.77398 -2.08565,0.7892 -2.08565,0.0496 z"
       style="fill:#cfcfcf" />
    <path
       inkscape:connector-curvature="0"
       id="path3022"
       d="m 416.5,738.02269 c -22.55,-0.42789 -56.075,-1.28813 -74.5,-1.91165 -18.425,-0.62351 -49.7,-1.57369 -69.5,-2.11151 -53.71626,-1.45908 -91.20562,-3.87542 -132.5429,-8.54292 C 125.38397,723.81112 121,722.55493 121,720.02462 c 0,-3.02077 2.55652,-4.1545 12.99996,-5.76508 6.29497,-0.9708 9.93821,-1.96637 9.72013,-2.65618 -0.19185,-0.60685 -6.61985,-4.25434 -14.28445,-8.10554 C 106.87493,692.16185 104.28365,689.79586 96.581354,673.5 90.208006,660.01582 88.523857,653.45262 88.8832,643.5 89.717173,620.40163 88.759331,610.39955 85.212333,605.16768 81.806023,600.14332 74.586001,589.8203 70.514983,584.15374 60.19818,569.7935 49.378717,547.22128 51.699746,544.90025 c 0.670596,-0.67059 1.595677,-0.0747 2.791648,1.7984 4.423419,6.92768 10.749022,15.39427 11.179683,14.96361 0.260313,-0.26032 -0.703643,-2.33769 -2.142125,-4.6164 C 59.960912,551.39372 58.721364,548 60.224974,548 c 1.593127,0 18.529647,17.8361 25.163451,26.5 9.140181,11.93729 20.920725,24.33359 26.605355,27.99599 2.99133,1.92721 5.77989,3.50401 6.19682,3.50401 0.41692,0 1.45615,1.35 2.3094,3 0.88175,1.70512 2.35571,3 3.4149,3 1.02494,0 2.92588,0.8997 4.22432,1.99933 2.34165,1.98313 2.34461,2.01182 0.36565,3.53949 -1.71216,1.32171 -1.78307,1.67421 -0.5,2.48535 0.82232,0.51986 2.07346,0.9521 2.78031,0.96052 1.73348,0.0207 6.41342,3.07325 8.00127,5.21901 0.70754,0.95615 4.08254,2.61375 7.5,3.68355 3.41745,1.0698 8.79682,3.10027 11.95416,4.51216 3.15734,1.41189 7.8049,3.08686 10.32792,3.72216 2.52302,0.63531 5.11049,1.99285 5.74993,3.01676 0.9752,1.56154 2.45389,1.86405 9.17209,1.87645 4.4052,0.008 10.70945,0.6446 14.00945,1.41437 11.02208,2.57107 27.43618,4.74378 30.59548,4.04988 2.96406,-0.65102 10.03366,-3.56297 18.03992,-7.43062 2.27185,-1.09748 4.19908,-1.44073 5.13823,-0.91515 0.97481,0.54552 1.95123,0.30073 2.77905,-0.69674 1.07319,-1.29312 0.93189,-1.62779 -0.88823,-2.10377 -2.48817,-0.65067 -2.55717,-0.99754 -0.82075,-4.12588 C 254.13299,629.9833 265.05955,619 266.47719,619 c 0.6458,0 2.23106,-1.125 3.52281,-2.5 1.97824,-2.10574 2.07952,-2.5 0.6422,-2.5 -0.93854,0 -3.31479,0.67201 -5.28055,1.49336 -1.96577,0.82135 -3.97631,1.24479 -4.46788,0.94098 -1.17413,-0.72565 -1.15337,-5.15586 0.0276,-5.88573 0.50674,-0.31318 2.08836,-4.07365 3.51471,-8.35659 2.5426,-7.63473 2.72346,-7.87271 9.23814,-12.15586 7.31139,-4.80697 20.11155,-9.01476 25.16623,-8.27289 1.90343,0.27937 4.74813,-0.35386 7.4368,-1.65542 C 311.98806,577.34327 316,577.29877 316,580 c 0,2.07124 2.56067,2.818 3.18991,0.93027 0.4659,-1.39769 19.46906,-3.23 32.81009,-3.16359 6.89763,0.0343 13.24466,0.72668 18.5,2.01802 7.15239,1.75748 9.80116,1.88219 25,1.17711 C 414.9666,580.05874 413,580.2792 413,579 c 0,-0.6184 -5.43773,-1.01206 -14.25,-1.0316 -13.78337,-0.0306 -14.34383,-0.11411 -17.11538,-2.55128 -1.57596,-1.38583 -2.63978,-2.74529 -2.36404,-3.02104 0.92765,-0.92764 28.27761,1.57769 33.27858,3.04842 2.72296,0.80079 7.87584,1.67752 11.45084,1.9483 7.09007,0.53702 10.31888,1.20543 13.70987,2.83817 1.57006,0.75597 4.7548,0.73835 11,-0.0609 12.85021,-1.64449 40.41447,-0.27252 43.08526,2.1445 1.07915,0.97662 5.61547,2.64825 10.08071,3.71475 8.33816,1.99151 18.7608,6.62298 21.01398,9.33791 0.69859,0.84174 2.80917,2.03836 4.69017,2.65915 1.88101,0.62079 3.42001,1.71635 3.42001,2.43457 0,0.71823 1.0125,1.56043 2.25,1.87155 1.2375,0.31112 5.625,1.77354 9.75,3.24982 6.62141,2.36972 9.37433,2.73889 23.5,3.15145 8.8,0.25702 16.39672,0.84128 16.8816,1.29835 0.4872,0.45927 -0.85488,1.57031 -3,2.48355 l -3.8816,1.6525 5.5,1.71584 c 3.22598,1.00641 8.39421,1.67187 12.5,1.60951 18.49288,-0.28091 46.16203,3.5793 53.39254,7.44895 1.04912,0.56147 6.25886,2.12504 11.5772,3.47461 9.96121,2.52771 12.53026,3.80547 12.53026,6.23208 0,1.12151 -1.50687,1.31188 -7.48288,0.94534 -4.11558,-0.25242 -7.74214,-0.0394 -8.05901,0.47326 -0.31688,0.51272 -1.71209,0.93222 -3.10046,0.93222 -5.72969,0 -0.80744,2.58265 16.18334,8.49121 21.58524,7.50629 35.52345,12.76258 49.36504,18.61625 l 10.32966,4.36845 2.46014,5.51204 c 1.35307,3.03163 6.47194,15.56639 11.37525,27.85504 8.82309,22.11235 12.35239,32.79331 11.08391,33.54408 -1.31904,0.78069 -87.11332,2.07674 -138.65499,2.09458 -29.15,0.0101 -76.625,0.311 -105.5,0.66869 -28.875,0.35769 -70.95,0.30024 -93.5,-0.12765 z M 254,644 c 0,-0.55 -0.45,-1 -1,-1 -0.55,0 -1,0.45 -1,1 0,0.55 0.45,1 1,1 0.55,0 1,-0.45 1,-1 z m 270.83248,-44.59609 c -0.87784,-0.87785 -2.43677,-1.39639 -3.46428,-1.15232 -1.63342,0.388 -1.55402,0.58062 0.6318,1.5327 3.62812,1.58032 4.65524,1.44238 2.83248,-0.38038 z M 509,594.61663 c 0,-0.21085 -0.9,-0.61872 -2,-0.90638 -1.1,-0.28766 -2,-0.11514 -2,0.38337 0,0.49851 0.9,0.90638 2,0.90638 1.1,0 2,-0.17252 2,-0.38337 z m -18.86078,-2.6499 C 487.63956,589.88431 485,589.36226 485,590.95031 c 0,1.3133 3.08736,2.98946 5.5,2.98601 1.87809,-0.003 1.8561,-0.12274 -0.36078,-1.96959 z M 437.5,584 c 0.33992,-0.55 -0.057,-1 -0.88197,-1 -0.825,0 -1.77811,0.45 -2.11803,1 -0.33992,0.55 0.057,1 0.88197,1 0.825,0 1.77811,-0.45 2.11803,-1 z m -11.23557,-0.59777 c 1.44649,-1.44649 -0.6907,-3.3955 -3.62142,-3.30255 -4.54497,0.14414 -8.5429,1.47064 -6.64301,2.20412 3.79308,1.46438 9.30828,2.05458 10.26443,1.09843 z M 813.47786,735.75 c -0.25266,-0.6875 1.26234,-4.62309 3.36665,-8.74575 l 3.82602,-7.49574 9.41474,-1.21986 c 5.1781,-0.67093 14.36473,-1.89916 20.41473,-2.7294 12.55848,-1.7234 23.11411,-0.81709 29.71717,2.55154 2.30558,1.17622 8.4918,2.53473 15.55536,3.416 16.71093,2.08489 37.09912,5.27585 38.24864,5.98629 1.69831,1.04962 1.06554,3.384 -1.34552,4.96379 -5.30698,3.47727 -21.19168,4.48573 -70.95703,4.50481 -37.32694,0.0143 -47.8819,-0.25518 -48.24076,-1.23168 z m -45.31494,-3 C 763.92692,725.86718 747,683.38804 747,679.64035 c 0,-2.01141 2.2087,-2.10091 5.81571,-0.23565 3.94957,2.0424 30.8242,11.17471 36.68429,12.46574 2.75,0.60585 7.59931,1.36671 10.77624,1.69079 6.69021,0.68248 7.63262,1.68176 10.27707,10.89725 l 1.70982,5.95848 -3.13156,2.61435 c -3.97348,3.3172 -4.01852,5.80763 -0.13157,7.27479 3.78243,1.42771 3.7628,2.83008 -0.12439,8.88774 -4.42212,6.89128 -8.28775,8.55313 -12.02602,5.17004 -1.67386,-1.51483 -1.85444,-1.51483 -2.43573,0 C 793.8816,735.75092 791.98789,736 781.97457,736 l -11.81145,0 -2.0002,-3.25 z M 819.54,709.89257 C 816.90549,702.65145 816,699.32154 816,696.87427 816,694.37507 816.37517,694 818.875,694 c 4.82462,0 9.125,1.18115 9.125,2.50629 0,1.26431 4.67198,2.71015 13,4.02312 5.94488,0.93725 15.15952,4.40346 14.50814,5.45742 -0.28358,0.45884 -4.45142,1.15302 -9.26187,1.54262 -4.81045,0.3896 -9.28173,1.13751 -9.93617,1.66203 -0.65445,0.52451 -4.58145,1.21016 -8.72668,1.52366 -5.91827,0.4476 -7.64557,0.27096 -8.04342,-0.82257 z M 229.53165,635.75 c -4.19337,-10.05899 -6.52323,-17.49115 -6.52729,-20.82186 -0.008,-6.90441 11.37506,-17.76572 19.59031,-18.6917 4.01023,-0.45201 4.43965,-0.27636 5.38165,2.20128 0.56302,1.48086 1.02368,4.17103 1.02368,5.97816 0,1.80712 0.51852,4.7731 1.15226,6.59106 0.93368,2.67834 0.81483,4.65109 -0.62653,10.39922 -2.14553,8.55635 -4.63744,12.57099 -9.93506,16.00603 -5.83745,3.78506 -7.9325,3.43887 -10.05902,-1.66219 z M 538.5,596 c -0.33992,-0.55 0.0835,-1 0.94098,-1 0.85746,0 1.55902,0.45 1.55902,1 0,0.55 -0.42344,1 -0.94098,1 -0.51754,0 -1.2191,-0.45 -1.55902,-1 z m -11.19424,-4.56688 -2.80576,-2.56688 4,0.65636 c 4.06635,0.66726 6.5,2.01507 6.5,3.59984 0,1.85908 -5.02048,0.75679 -7.69424,-1.68932 z"
       style="fill:#afafaf" />
    <path
       inkscape:connector-curvature="0"
       id="path3020"
       d="m 394,736.85265 c -20.38345,-0.91002 -80.68248,-2.77417 -125,-3.86438 -54.38289,-1.33782 -85.76193,-3.51456 -122.55627,-8.50161 -5.53095,-0.74966 -12.05595,-2.05929 -14.5,-2.91028 -2.44405,-0.851 -5.23123,-1.55382 -6.19373,-1.56183 C 124.7875,720.00655 124,719.55 124,719 c 0,-1.05936 0.96133,-1.27322 5,-1.11233 4.65306,0.18536 18.5,-3.44609 18.5,-4.85174 0,-0.73461 -5.8859,-4.30571 -13.07978,-7.93579 -7.19387,-3.63008 -14.8365,-7.95014 -16.9836,-9.60014 -2.14711,-1.65 -5.7704,-4.19378 -8.05175,-5.65284 -6.26812,-4.00884 -14.180998,-19.96025 -14.235803,-28.69767 -0.01156,-1.84278 -0.786212,-4.19605 -1.721452,-5.22947 -1.361436,-1.50437 -1.662431,-3.60324 -1.509806,-10.52804 0.104846,-4.75699 0.655418,-10.72873 1.223494,-13.27053 0.568075,-2.5418 0.982806,-6.30895 0.921623,-8.37145 -0.09959,-3.35722 0.149062,-3.75 2.373961,-3.75 1.366862,0 3.389674,0.97084 4.495133,2.15741 1.87366,2.01113 2.0566,2.03582 2.69811,0.36408 1.63416,-4.25857 -1.98487,-5.61492 -11.598922,-4.34706 -3.892102,0.51327 -3.980141,-2.94767 -0.109307,-4.29705 C 93.614855,613.28721 95,612.45347 95,612.02462 95,610.97304 92.42125,608.892 91.35526,609.08333 89.216715,609.46717 88.189151,608.7503 85.860588,605.25 84.488517,603.1875 79.670506,596.22756 75.153897,589.78348 62.253779,571.37819 56.095014,560.05202 52.50138,548.12477 c -1.068211,-3.54538 0.88569,-1.88614 4.90969,4.16928 4.26381,6.4163 10.662343,13.96587 11.29791,13.3303 0.259202,-0.2592 -1.429404,-3.67059 -3.752458,-7.58087 -2.323054,-3.91028 -3.88845,-7.43222 -3.478658,-7.82654 0.94403,-0.90838 16.985839,16.02554 23.985227,25.31908 6.864456,9.11439 19.460939,22.8159 24.656069,26.81903 10.44045,8.04492 11.86826,10.68143 6.31055,11.65266 -5.13791,0.89786 -4.15954,3.5107 1.81526,4.8478 3.16758,0.70888 6.51455,2.29343 8.25698,3.9091 2.615,2.42477 8.09918,5.16496 16.95316,8.47071 1.6253,0.60683 4.5006,2.15213 6.38954,3.43401 1.88895,1.28187 4.07902,2.33067 4.86683,2.33067 1.85144,0 10.28852,4.93461 10.28852,6.01747 0,1.86523 8.20442,3.33093 19.5,3.48363 7.65274,0.10345 15.07931,0.85718 20.5,2.08056 6.45594,1.45702 12.34764,1.91834 24.5,1.91834 16.34723,0 21.28421,0.60981 25.24558,3.11832 5.36238,3.39568 10.91619,-2.59033 8.34277,-8.992 -0.69122,-1.71948 -1.38386,-4.92632 -1.53922,-7.12632 -0.15535,-2.2 -0.58717,-5.125 -0.9596,-6.5 -0.49421,-1.82463 -0.0108,-3.40218 1.78941,-5.83957 C 265.12539,621.44189 274.48932,615 277.14812,615 278.78678,615 290,605.13411 290,603.69235 c 0,-1.60902 -3.71082,-0.44006 -10.5,3.30765 -3.98542,2.2 -8.20332,4 -9.37311,4 C 268.26936,611 268,610.42381 268,606.45034 c 0,-2.50231 0.65964,-5.82526 1.46586,-7.38433 3.03096,-5.86121 27.5488,-14.99054 36.69492,-13.66351 7.22073,1.04767 15.11489,0.597 16.27851,-0.92932 0.58339,-0.76524 3.76071,-1.84083 7.06071,-2.3902 3.3,-0.54938 8.7,-1.46518 12,-2.03513 8.84761,-1.52808 18.99676,-1.21745 27.70691,0.84802 6.41958,1.5223 10.46479,1.74391 24.21742,1.32676 11.02808,-0.3345 17.93256,-0.11141 20.79308,0.67187 2.35543,0.64497 9.00759,1.81217 14.78259,2.59376 5.775,0.7816 11.9625,1.71756 13.75,2.07992 3.80344,0.77101 4.29449,-0.62203 1,-2.8369 -3.12352,-2.09992 -1.66332,-3.08055 5.02956,-3.37772 3.14624,-0.13969 7.52044,-0.48193 9.72044,-0.76053 2.2,-0.2786 7.825,0.1788 12.5,1.01645 4.675,0.83764 10.525,1.66471 13,1.83793 12.6938,0.88841 33.28138,7.35618 28.84022,9.06041 -2.16241,0.82979 -16.66524,-1.1414 -25.34022,-3.44419 C 477.43187,586.39103 471.21229,585 469.33066,585 c -1.45423,0 -1.4311,0.23153 0.20362,2.03788 1.373,1.51715 2.56442,1.87972 4.66256,1.41889 2.08924,-0.45888 4.0451,0.12721 7.56073,2.26563 7.47202,4.54494 10.67224,5.54973 15.22559,4.78045 2.93105,-0.4952 5.09734,-0.218 7.6084,0.97358 1.93084,0.91624 5.17513,1.90416 7.20953,2.19537 2.0344,0.29121 6.39891,1.35049 9.69891,2.35396 3.3,1.00346 11.85728,3.20817 19.01618,4.89936 11.0004,2.59868 15.02694,3.07725 26,3.09019 14.94753,0.0176 17.59111,0.81764 11.27269,3.41136 -4.1231,1.69254 -4.19224,1.79093 -1.78887,2.54556 7.8047,2.45057 12.22056,2.98295 29.09154,3.5073 19.14709,0.59509 29.79345,2.49694 46.99748,8.39557 3.07396,1.05394 8.08613,2.43466 11.13816,3.06826 3.05203,0.6336 6.34422,2.03054 7.31597,3.10432 2.04545,2.2602 2.17119,2.22561 -7.18245,1.97577 -4.25238,-0.11358 -7.41012,0.2475 -7.80902,0.89293 -0.36834,0.59599 -1.80566,1.08362 -3.19403,1.08362 -5.78356,0 -0.6592,2.58933 18.67351,9.43569 19.85524,7.0314 43.54838,16.16595 53.1864,20.50523 5.20254,2.34232 5.91217,3.51881 12.40069,20.55908 1.88484,4.95 3.88413,9.80913 4.44286,10.79807 C 743.45133,702.52868 753,729.43749 753,731.94266 l 0,2.74432 -46.75,0.8524 c -76.16419,1.3887 -290.37988,2.28966 -312.25,1.31327 z M 619.57173,637.2384 c -0.33278,-0.33279 -1.1563,-0.0538 -1.83004,0.61991 -0.96663,0.96663 -0.91039,1.42153 0.26667,2.157 1.06262,0.66396 1.58897,0.48566 1.83004,-0.61991 0.18612,-0.85357 0.0661,-1.82422 -0.26667,-2.157 z m -7.85887,1.14112 c -0.34126,-0.34126 -2.71615,-1.01199 -5.27752,-1.4905 -4.89237,-0.914 -7.65527,-0.27671 -5.2921,1.22067 1.53545,0.97291 11.52779,1.22801 10.56962,0.26983 z m -26.94781,-7.04304 c -1.06566,-1.06566 -3.74825,-1.78193 -7.46428,-1.99301 l -5.80077,-0.3295 6,1.91162 c 7.91327,2.52118 9.46299,2.60883 7.26505,0.41089 z M 536,622.12244 c 0,-1.53806 -2.86757,-3.32232 -4.10769,-2.55589 -0.86075,0.53198 -0.67958,1.11583 0.64733,2.08609 2.12124,1.55109 3.46036,1.7329 3.46036,0.4698 z m 279,113.90282 c -1.27713,-0.8303 -0.90568,-2.1304 2.5,-8.75022 l 4,-7.77504 12.39553,-1.22622 c 6.81755,-0.67442 14.88769,-1.68692 17.93366,-2.25 10.27766,-1.89993 22.42623,-0.51091 30.12647,3.44453 1.39939,0.71884 7.26934,1.81481 13.04434,2.43548 5.775,0.62068 15.225,1.98357 21,3.02864 5.775,1.04508 12.1875,2.1832 14.25,2.52917 4.4862,0.75252 4.92486,2.89254 1,4.87859 -6.243,3.15908 -18.42518,3.94451 -66.75,4.30359 -30.12458,0.22384 -48.55861,-0.006 -49.5,-0.61852 z m -45.75868,-3.28775 c -2.48942,-2.673 -8.02081,-15.10852 -15.22905,-34.23751 -6.36738,-16.89759 -7.1031,-19.32583 -6.05221,-19.97532 0.44699,-0.27625 3.67634,0.78828 7.17633,2.36564 10.71745,4.83009 34.94475,12.30374 42.80027,13.20306 4.09016,0.46825 7.97015,1.4263 8.6222,2.12899 1.33384,1.43745 4.43633,10.29545 4.45015,12.70577 0.005,0.86452 -1.4004,2.73046 -3.12303,4.14652 -2.42665,1.99479 -2.97672,3.06407 -2.44237,4.74767 0.37933,1.19516 1.7847,2.44785 3.12304,2.78375 3.29443,0.82685 3.12139,3.53354 -0.5688,8.89704 -3.48051,5.05875 -5.98514,6.18732 -9.20227,4.14647 -2.90196,-1.84093 -23.77368,-1.74258 -26.0211,0.12261 -1.16477,0.96667 -1.85844,0.76353 -3.53316,-1.03469 z m 51.11263,-22.89697 C 819.43648,708.65933 816,697.48619 816,695.6844 c 0,-1.37556 7.39353,-0.63824 9.10173,0.90767 0.96757,0.87564 6.70108,2.6387 12.74114,3.91793 6.04006,1.27922 12.03384,2.90663 13.31953,3.61645 l 2.3376,1.29059 -3,0.67317 c -1.65,0.37024 -5.06836,0.7264 -7.59636,0.79148 -2.528,0.0651 -5.903,0.75731 -7.5,1.53831 -4.45182,2.17713 -13.77827,3.05745 -15.04969,1.42054 z M 232.14392,637.74392 C 231.51476,637.11476 231,635.66513 231,634.52251 c 0,-1.14263 -0.6593,-3.01878 -1.46511,-4.16923 -2.65702,-3.79343 -5.74474,-13.38105 -5.11607,-15.88584 C 226.21994,607.29119 236.91953,597 242.57944,597 c 3.02638,0 3.43444,0.35564 4.30263,3.75 2.9429,11.50573 2.09846,24.65986 -1.94786,30.34239 -2.7547,3.86862 -11.18768,8.25414 -12.79029,6.65153 z M 428.66667,582.33333 C 427.67305,581.33972 427.86133,579 428.9349,579 c 0.5142,0 2.18645,0.47584 3.71612,1.05742 2.22659,0.84654 2.48884,1.24233 1.3151,1.98468 -1.72474,1.09084 -4.35528,1.2354 -5.29945,0.29123 z M 387.5,576.2369 C 383.29324,575.33029 383.67928,574 388.14912,574 395.72927,574 408,575.24683 408,576.01705 c 0,0.76721 -17.10882,0.95069 -20.5,0.21985 z"
       style="fill:#8d8d8d" />
    <path
       inkscape:connector-curvature="0"
       id="path3018"
       d="m 403,736.47704 c -2.42776,-0.64577 -88.54974,-3.3641 -126,-3.97704 -18.975,-0.31056 -41.025,-0.99675 -49,-1.52487 -7.975,-0.52812 -21.925,-1.44583 -31,-2.03935 -9.075,-0.59352 -24.0776,-2.1775 -33.33911,-3.51996 C 141.67127,722.22842 138.79585,720.73104 147.5,717 c 2.475,-1.06091 4.5,-2.32802 4.5,-2.8158 0,-0.48778 -4.95581,-3.58484 -11.01291,-6.88235 -10.39937,-5.66146 -11.1654,-6.29649 -13.75,-11.39866 C 125.05186,691.58942 123.39106,689.8562 119,687.30692 110.38144,682.30333 105.05904,677.84268 102.52572,673.5 98.166569,666.02743 93.938049,646.36728 95.420019,640.46265 95.961772,638.30413 96.591489,638 100.51905,638 c 5.03993,0 5.69798,-1.42555 3.03101,-6.56615 -1.2914,-2.48918 -1.26407,-3.11757 0.25,-5.74712 1.97777,-3.43489 6.62405,-5.68673 11.73356,-5.68673 4.87953,0 7.36925,1.52329 9.04506,5.53406 1.13987,2.72809 2.12755,3.50272 5.16534,4.05113 6.07468,1.09665 7.54481,2.22065 6.92936,5.2979 -0.46896,2.3448 0.17272,3.24993 4.89344,6.90255 5.20735,4.02915 6.99113,7.21436 4.04017,7.21436 -0.76616,0 -1.65203,-0.675 -1.96862,-1.5 -0.38107,-0.99306 -1.94993,-1.5 -4.64217,-1.5 -2.23661,0 -5.11499,-0.68696 -6.3964,-1.52657 -2.70743,-1.77397 -7.5998,-0.52868 -7.5998,1.93443 0,0.80155 -0.9,1.74301 -2,2.09214 -1.1,0.34913 -2.0675,1.05445 -2.15,1.56739 -0.54934,3.41547 -0.47243,3.43128 17.65,3.62817 9.9,0.10756 23.175,0.43556 29.5,0.7289 16.19921,0.75128 20.03637,0.66041 23.84206,-0.56458 2.41581,-0.7776 3.64914,-0.76868 4.45,0.0322 0.81059,0.81059 0.78588,1.10794 -0.0921,1.10794 -0.66,0 -1.2,0.45 -1.2,1 0,0.55 0.71713,1 1.59362,1 0.87649,0 1.82897,0.9 2.11663,2 0.28766,1.1 1.25803,1.99992 2.15638,1.99983 2.92736,-3.1e-4 16.53387,-2.92673 20.63337,-4.43772 2.2,-0.81088 5.71708,-1.49408 7.81574,-1.51822 2.09866,-0.0241 4.75111,-0.54448 5.89433,-1.15632 2.49545,-1.33552 9.11813,0.42678 12.35438,3.28752 1.13545,1.0037 3.47139,1.82491 5.19098,1.82491 1.7196,0 3.40465,0.45 3.74457,1 0.75969,1.22921 5.1807,1.32566 5.92017,0.12916 0.29602,-0.47896 1.81026,-1.12525 3.36498,-1.43619 2.54847,-0.50969 2.81067,-0.94083 2.6632,-4.37916 -0.16769,-3.90975 -0.50685,-5.14873 -3.13542,-11.45385 -0.83463,-2.00202 -1.22664,-4.55649 -0.87113,-5.67659 0.35551,-1.12011 -0.0546,-3.71422 -0.91133,-5.7647 -1.97027,-4.7155 -0.83756,-6.72972 6.39412,-11.37028 5.35122,-3.43387 8.07541,-3.46078 8.07541,-0.0798 0,2.29342 1.87044,2.64683 4.13552,0.78138 2.61995,-2.15772 7.86448,-9.47293 7.86448,-10.96959 0,-0.78748 1.11938,-2.48339 2.48751,-3.76868 1.9017,-1.78655 2.22612,-2.65186 1.37756,-3.67431 -1.76793,-2.13023 -5.94188,-1.53445 -11.77484,1.6807 -6.22532,3.43142 -6.09023,3.39393 -6.09023,1.69009 0,-2.55045 8.63328,-9.67753 15.47371,-12.77409 5.86084,-2.65312 7.7758,-3.06812 12,-2.60055 3.09481,0.34256 6.50906,0.032 8.88491,-0.80811 2.12224,-0.75046 5.33141,-1.12547 7.13148,-0.83335 2.34852,0.38111 4.50666,-0.16238 7.64138,-1.92434 10.80415,-6.07277 31.00533,-8.42259 38.36852,-4.46307 1.23406,0.66361 10.99985,1.14608 25.5,1.25981 26.24228,0.20583 38.60765,1.73417 38.36111,4.74137 -0.0822,1.00259 0.57897,1.69412 1.61973,1.69412 0.96724,0 4.57586,0.9 8.01916,2 3.4433,1.1 7.49124,2 8.99541,2 1.50418,0 3.80806,0.84302 5.11973,1.87338 1.31167,1.03036 4.74686,2.19752 7.63374,2.59369 2.88689,0.39616 5.50095,1.12814 5.80902,1.62661 0.30807,0.49848 2.22108,0.91804 4.25112,0.93236 2.03004,0.0143 6.99219,1.12033 11.02701,2.45779 4.68014,1.55138 8.41852,2.21526 10.32604,1.83376 2.52582,-0.50517 2.93938,-0.31015 2.66396,1.2562 -0.36767,2.091 4.32572,4.86771 10.17397,6.01912 1.925,0.379 5.13976,1.97564 7.1439,3.54809 2.00415,1.57245 4.33736,2.859 5.1849,2.859 0.84755,0 2.75469,0.46144 4.23808,1.02543 2.6139,0.9938 2.64196,1.08632 0.91011,3 -0.98283,1.08601 -1.37972,1.97718 -0.88198,1.98036 0.49775,0.003 3.60499,0.46994 6.90499,1.03723 3.3,0.56729 10.275,1.42583 15.5,1.90786 11.55109,1.06564 32.53553,4.60084 39.89458,6.72095 2.96701,0.85478 7.69201,2.62391 10.5,3.93139 2.80798,1.30748 6.35863,2.38164 7.89033,2.38701 2.84312,0.01 16.57566,4.03314 22.49902,6.59144 4.09531,1.76877 5.34579,1.77518 7.71935,0.0396 1.7493,-1.27912 1.48584,-1.56782 -3.64644,-3.99577 -3.36567,-1.59222 -5.97753,-3.59495 -6.66979,-5.1143 -0.989,-2.17061 -1.76237,-2.48935 -5.91244,-2.43673 -9.05016,0.11475 -19.79475,-1.76181 -27.27461,-4.76355 -15.08552,-6.05396 -26.70366,-7.81579 -34.70597,-5.26298 -3.69704,1.17939 -4.42304,1.1461 -6,-0.27518 -0.98671,-0.88931 -3.14403,-1.94691 -4.79403,-2.35022 -1.65,-0.40331 -5.46861,-2.9772 -8.4858,-5.71977 -9.53013,-8.66268 -11.80371,-9.79575 -28.11771,-14.01279 -2.53193,-0.65448 -5.25329,-1.73194 -6.04748,-2.39434 -0.79419,-0.6624 -3.97726,-1.60163 -7.07351,-2.08717 C 488.22234,598.33764 483,595.82886 483,594.03198 c 0,-0.50706 2.57323,0.21608 5.71828,1.60697 3.91579,1.73175 6.83153,2.38047 9.25,2.05802 3.54706,-0.47292 12.22192,1.08491 21.53172,3.86666 2.75,0.8217 11.975,3.05268 20.5,4.95775 12.39302,2.76944 17.65484,3.46524 26.25,3.47119 9.95337,0.007 13.67793,1.0085 8.64464,2.32473 -7.55128,1.97471 9.13847,6.90159 22.10536,6.5256 17.22838,-0.49957 34.53767,2.22651 55,8.66206 4.125,1.29734 9.37242,2.64724 11.66094,2.99977 2.28852,0.35254 4.91135,1.47017 5.82852,2.48362 1.60616,1.77479 1.39765,1.83988 -5.66094,1.76743 -4.03069,-0.0414 -8.90352,0.35259 -10.82852,0.87549 -6.06031,1.64619 -4.31811,3.59148 6.5,7.25768 18.39416,6.23368 52.47768,19.1175 61.04314,23.07475 4.77023,2.20385 8.75228,4.70585 9.11224,5.72539 0.35165,0.996 1.53554,3.83591 2.63089,6.31091 1.09534,2.475 3.08525,7.40574 4.42203,10.9572 1.33677,3.55146 3.3672,8.50146 4.51206,11 2.4074,5.25391 9.71339,24.56215 10.44485,27.60362 1.13132,4.70411 -0.51233,4.92642 -37.85618,5.12016 -23.58314,0.12234 -39.97454,0.70078 -50.59668,1.78549 -11.91598,1.21684 -24.04813,1.53683 -50.21235,1.32436 -18.975,-0.15408 -73.65,0.027 -121.5,0.40252 -47.85,0.37547 -87.675,0.50313 -88.5,0.28369 z M 548,714 c 0,-0.55 -0.45,-1 -1,-1 -0.55,0 -1,0.45 -1,1 0,0.55 0.45,1 1,1 0.55,0 1,-0.45 1,-1 z m -3.5,-7 c -0.33992,-0.55 -1.04148,-1 -1.55902,-1 -0.51754,0 -0.94098,0.45 -0.94098,1 0,0.55 0.70156,1 1.55902,1 0.85746,0 1.2809,-0.45 0.94098,-1 z m 39.25308,-9.25 c -0.2728,-0.82449 -3.10831,-1.35093 -8.32984,-1.5465 -5.15385,-0.19304 -7.56851,0.0438 -6.91974,0.6787 1.02442,1.00253 5.09828,1.67673 11.82983,1.95776 2.67225,0.11157 3.70806,-0.21858 3.41975,-1.08996 z M 291,676.58341 c 0,-0.77913 1.15729,-2.25963 2.57176,-3.28999 2.08236,-1.5169 2.44233,-2.38911 1.89159,-4.58341 C 295.08926,667.2195 294.38197,666 293.89159,666 c -1.68416,0 -0.89019,-3.69129 1.20103,-5.58382 1.15095,-1.04159 2.5277,-2.70675 3.05946,-3.70035 1.129,-2.10955 1.94476,-11.71759 0.99441,-11.71209 -1.42689,0.008 -7.10911,4.02554 -10.52392,7.44035 -4.17172,4.17172 -4.56188,6.6803 -1.37257,8.82505 l 2.25,1.51308 -2.25,2.42334 c -2.83529,3.05373 -2.85422,6.05818 -0.0619,9.83493 2.36902,3.20428 3.81194,3.78831 3.81194,1.54292 z m 523.72731,58.81057 c -0.33331,-0.33331 1.00801,-3.86791 2.98071,-7.85467 l 3.58673,-7.24866 11.60263,-1.23665 c 6.38144,-0.68016 15.35668,-1.83886 19.94498,-2.57489 9.55683,-1.53305 16.36656,-0.7974 27.65764,2.98783 3.85,1.29068 10.375,2.6403 14.5,2.99916 6.42096,0.5586 13.2492,1.67738 33,5.40692 4.55483,0.86009 4.55197,3.27362 -0.006,4.76675 -7.95997,2.60779 -22.88208,3.35468 -67.07768,3.35741 -25.07084,0.002 -45.85605,-0.26989 -46.18936,-0.6032 z M 798.5,732.51109 c -2.11915,-0.937 -6.88681,-1.24574 -16.2377,-1.0515 -8.85193,0.18388 -13.5414,-0.0952 -14.15439,-0.8423 -2.80449,-3.41815 -20.92567,-50.13287 -19.86037,-51.19817 0.29465,-0.29464 3.39698,0.67738 6.89409,2.16005 14.49977,6.14749 38.22242,13.42064 43.82429,13.43614 3.04375,0.008 6.09125,0.36919 6.77223,0.8017 1.46565,0.93087 4.23559,9.57911 4.25103,13.27247 0.008,1.79774 -0.75357,2.93777 -2.48918,3.72857 -3.64324,1.65997 -3.38898,5.76912 0.49368,7.97846 1.64652,0.93692 2.98536,2.15349 2.97521,2.70349 -0.0325,1.75683 -6.94017,10.50315 -8.22861,10.41878 -0.68215,-0.0447 -2.59028,-0.67813 -4.24028,-1.40769 z m 20.2316,-28.26964 c -0.97262,-3.1578 -1.76012,-6.30395 -1.75,-6.99145 0.0248,-1.68576 4.56126,-1.58598 7.30358,0.16065 1.21815,0.77586 6.86059,2.34486 12.53876,3.48668 5.67817,1.14182 10.74801,2.33812 11.26631,2.65845 1.92872,1.19201 -0.34284,2.44422 -4.43393,2.44422 -2.3241,0 -6.7863,0.9 -9.916,2 -3.12969,1.1 -7.3891,1.99615 -9.46534,1.99145 -3.72107,-0.008 -3.80024,-0.0906 -5.54338,-5.75 z M 238.66667,632.33333 C 238.3,631.96667 238,630.86272 238,629.88013 c 0,-1.13957 -1.53907,-2.4689 -4.25,-3.67082 -5.0184,-2.22495 -6.52784,-3.84851 -7.33632,-7.89093 -0.43144,-2.15716 -0.0846,-3.50079 1.24406,-4.81964 1.01324,-1.00576 2.29226,-3.28418 2.84226,-5.06316 C 231.63078,604.77807 239.17773,598 242.11936,598 c 2.33491,0 4.24777,4.40108 3.39304,7.80662 -0.33438,1.33226 -0.0371,3.06118 0.67363,3.91754 1.47475,1.77695 1.29191,12.01721 -0.30393,17.02274 -1.31839,4.13529 -5.46,7.34187 -7.21543,5.58643 z m 280.84041,-19.32188 c -0.35034,-0.56686 0.0511,-0.7345 0.94098,-0.39301 1.73242,0.66479 2.04939,1.38156 0.61096,1.38156 -0.51754,0 -1.21592,-0.44485 -1.55194,-0.98855 z M 114.5,612 c -0.33992,-0.55 -2.4094,-1 -4.59886,-1 -2.18945,0 -5.72534,-0.88999 -7.85754,-1.97776 -4.083783,-2.08339 -8.176231,-2.62808 -11.595879,-1.54337 -2.106209,0.66809 -3.710842,-1.38635 -21.782572,-27.88856 -5.071525,-7.43739 -12.102577,-21.14194 -13.694453,-26.69249 -1.0496,-3.65974 -1.205608,-3.79814 5.751085,5.10218 10.054272,12.86334 13.404364,14.07367 6.285818,2.27096 -6.806892,-11.28598 -3.567223,-9.35736 9.867263,5.87411 C 81.068688,570.89986 86.075,576.97001 88,579.6343 c 1.925,2.66428 8.036817,9.574 13.58182,15.35493 5.545,5.78092 10.62333,11.52327 11.28518,12.76077 0.66185,1.2375 2.08753,2.25 3.16818,2.25 1.08065,0 1.96482,0.675 1.96482,1.5 0,1.68139 -2.54515,2.04499 -3.5,0.5 z M 472,592 c 0,-0.55 0.9,-1 2,-1 1.1,0 2,0.45 2,1 0,0.55 -0.9,1 -2,1 -1.1,0 -2,-0.45 -2,-1 z m 32,-0.67508 c -8.27751,-0.8396 -18.35557,-3.94058 -17.46897,-5.37513 0.75963,-1.2291 16.65358,1.26594 21.16838,3.32302 2.44325,1.11322 3.14816,2.8357 1.05059,2.56715 -0.6875,-0.088 -2.825,-0.31979 -4.75,-0.51504 z m -45,-1.23202 c -5.43176,-0.71566 -13,-4.5657 -13,-6.61322 0,-2.32012 14.33474,-2.09089 16.90474,0.27032 1.0476,0.9625 3.0726,2.55851 4.5,3.54668 5.06572,3.50697 2.77475,4.26917 -8.40474,2.79622 z M 468.5,583 c -2.54822,-1.09501 0.0808,-1.09501 3.5,0 2.00973,0.64363 2.10779,0.8064 0.5,0.83003 -1.1,0.0162 -2.9,-0.35734 -4,-0.83003 z"
       style="fill:#6c6c6c" />
    <path
       inkscape:connector-curvature="0"
       id="path3016"
       d="m 396,735.44368 c -5.94128,-0.97654 -86.00941,-3.4461 -112.5,-3.46986 -15.95,-0.0143 -35.75,-0.44815 -44,-0.96409 -8.25,-0.51594 -22.65,-1.4074 -32,-1.98103 -27.36759,-1.679 -54.36743,-5.49613 -56.91816,-8.04686 -0.72103,-0.72103 -0.15267,-1.74892 1.85,-3.34579 3.45246,-2.7529 3.01581,-3.73473 -3.23352,-7.2707 -2.58408,-1.46211 -6.82985,-4.95495 -9.43504,-7.76187 -6.53317,-7.03902 -6.29204,-11.29778 0.60991,-10.77187 1.61173,0.12281 4.47854,-0.28763 6.37068,-0.91209 4.68165,-1.54509 6.47689,0.12113 3.57412,3.31724 -1.13053,1.24478 -2.33492,3.44807 -2.67643,4.8962 -0.52894,2.24296 -0.17808,2.81638 2.36876,3.87132 1.79842,0.74492 2.98968,1.9767 2.98968,3.09136 0,2.12259 3.02095,3.8197 11.30599,6.35149 5.81411,1.77672 8.83839,1.31404 5.32343,-0.81441 -5.91306,-3.58061 -7.96326,-5.24147 -7.57031,-6.13272 0.24249,-0.55 1.11589,-0.93621 1.94089,-0.85825 2.65945,0.25131 8.4761,2.82089 9.29969,4.10825 1.0598,1.65658 6.16395,1.6012 7.56092,-0.082 0.81631,-0.9836 0.75747,-1.808 -0.22491,-3.1515 -0.92358,-1.26306 -1.54804,-1.46732 -2.04207,-0.66795 -1.26966,2.05434 -4.13073,1.2243 -7.39746,-2.14612 C 169.43828,700.88871 168,698.90371 168,698.29129 168,696.84331 162.24011,692 160.5181,692 c -1.6961,0 -1.43219,-8.1953 0.28232,-8.76681 0.64921,-0.2164 2.37038,0.5426 3.82484,1.68668 2.90315,2.28362 5.87483,2.69802 6.94384,0.96833 0.86534,-1.40015 -1.35271,-2.85284 -4.38649,-2.87289 -1.84485,-0.0122 -2.19039,-0.41543 -1.6946,-1.97754 0.34253,-1.07922 0.13203,-2.87922 -0.46779,-4 C 163.7532,674.67034 161,674.30205 161,676.5 c 0,0.825 -0.74474,1.5 -1.65499,1.5 -1.52585,0 -1.5288,-0.13943 -0.0379,-1.78688 0.97865,-1.0814 1.3886,-2.66063 1.03835,-4 -0.64373,-2.46165 -1.55693,-2.7055 -4.41122,-1.17794 -1.35828,0.72693 -2.56455,0.69786 -4.05092,-0.0976 -1.93218,-1.03406 -1.97848,-1.27099 -0.53124,-2.71824 0.87199,-0.87198 3.51199,-1.70349 5.86667,-1.84778 2.35468,-0.14429 4.58841,-0.28692 4.96384,-0.31694 0.37544,-0.03 0.96826,-0.9546 1.31739,-2.0546 0.82953,-2.61362 5.07742,-2.65812 6.46375,-0.0677 0.56877,1.06275 1.96778,2.2286 3.10891,2.59078 2.9447,0.93461 7.92734,-1.35602 7.92734,-3.64438 0,-2.23105 1.8733,-2.42303 4.54937,-0.46624 1.87423,1.37047 1.84718,1.49071 -0.91012,4.04609 -2.49199,2.30949 -3.38316,2.55246 -7.2405,1.97402 -4.84512,-0.72658 -5.80947,0.0806 -1.88082,1.57427 1.38487,0.52652 2.95561,2.10849 3.49055,3.51549 0.84315,2.21764 1.25085,2.40927 3.06274,1.43958 1.14956,-0.61523 4.19132,-1.35819 6.75945,-1.65103 2.56813,-0.29284 6.62769,-0.75654 9.02125,-1.03044 4.06606,-0.46531 4.30795,-0.3595 3.68261,1.61078 -0.52822,1.66426 -0.24856,2.1088 1.32665,2.1088 2.48076,0 5.2228,-2.61758 4.55769,-4.35082 -0.27746,-0.72306 0.64354,-1.81221 2.08955,-2.47106 C 212.67193,667.73673 215,667.66121 215,669 c 0,0.55 0.87344,1 1.94098,1 2.84972,0 3.2862,1.48443 1.03544,3.52134 -2.5723,2.3279 -2.52314,5.10243 0.10257,5.78907 1.52098,0.39774 1.93147,0.15923 1.52937,-0.88862 -0.35322,-0.92048 0.95856,-2.39452 3.67101,-4.12507 2.32135,-1.48104 4.89563,-3.46999 5.72063,-4.41991 2.34374,-2.6986 5.32777,-2.72951 6.49093,-0.0672 0.8548,1.95649 1.51263,2.21585 4.30278,1.69649 4.63914,-0.86354 7.20629,0.17762 7.20629,2.92265 0,1.93799 0.40817,2.21591 2.63051,1.79108 1.95052,-0.37286 2.5046,-0.14314 2.14344,0.88867 -0.2934,0.83826 -1.73689,1.3329 -3.63051,1.24408 -3.53357,-0.16575 -4.41067,2.11047 -1.20525,3.12783 1.1585,0.3677 2.06362,1.7022 2.25,3.31739 0.26937,2.3344 0.72017,2.66814 3.31181,2.45176 1.65,-0.13775 4.56963,-0.29175 6.48807,-0.34222 4.34329,-0.11427 7.09834,-1.51855 6.42446,-3.27464 -0.55965,-1.45844 3.58728,-4.63267 6.05229,-4.63267 2.1434,0 1.91392,-1.62131 -0.46536,-3.28782 -1.89705,-1.32875 -1.90998,-1.47923 -0.25,-2.90911 0.9628,-0.82933 3.18353,-2.32888 4.93496,-3.33234 2.64467,-1.51522 3.44979,-1.60424 4.75,-0.52515 0.86107,0.71462 1.56558,2.32106 1.56558,3.56988 0,1.24881 0.675,2.52958 1.5,2.84617 1.03007,0.39527 1.5,2.00507 1.5,5.13837 0,5.51084 1.02323,6.08967 8.08702,4.57476 3.81669,-0.81853 5.5232,-0.81321 6.52759,0.0204 0.74796,0.62075 2.05084,0.8635 2.8953,0.53945 1.29273,-0.49607 1.33425,-0.94836 0.26274,-2.86188 -0.69996,-1.24998 -1.83645,-2.63328 -2.52554,-3.074 -0.89458,-0.57214 -1.11628,-2.93153 -0.7752,-8.25 C 299.94565,664.06163 299.92913,664 297.4748,664 c -3.30867,0 -3.12216,-0.98022 0.93466,-4.91224 2.31439,-2.2432 4.11514,-5.49925 5.60658,-10.13764 1.20841,-3.75818 3.04916,-7.60413 4.09054,-8.54657 1.69876,-1.53736 2.68152,-5.40355 1.37355,-5.40355 -1.22902,0 -8.81332,5.34508 -15.62351,11.01076 -8.99361,7.48215 -14.1678,13.90937 -12.66012,15.72601 1.22984,1.48187 -0.60926,4.26323 -2.81894,4.26323 -1.58701,0 -1.86538,-2.58048 -0.37756,-3.5 1.72029,-1.0632 1.09951,-2.51167 -1.5,-3.5 -1.375,-0.52277 -2.5,-1.58849 -2.5,-2.36826 0,-0.77977 -0.675,-1.67678 -1.5,-1.99337 -0.825,-0.31658 -1.5,-1.49583 -1.5,-2.62055 0,-1.974 -0.35219,-2.9343 -2.84387,-7.75425 C 267.52026,643.03353 267,640.29017 267,638.16721 c 0,-2.12297 -0.74207,-5.34745 -1.64904,-7.16552 -1.17724,-2.35983 -1.36064,-3.76279 -0.64101,-4.90363 1.59013,-2.5209 3.75742,-1.88265 4.11217,1.211 0.17717,1.54498 1.07717,3.07454 2,3.39901 0.92283,0.32448 2.69038,1.50134 3.92788,2.61526 l 2.25,2.0253 10e-4,-4.42432 0.001,-4.42431 6.60138,-3 c 7.46323,-3.39167 10.93135,-7.23078 9.97483,-11.04186 C 293.14662,610.73602 293.37544,610 294.34303,610 c 1.87275,0 10.6483,-7.19216 10.65312,-8.73095 0.004,-1.31648 -2.37245,-2.06126 -7.99615,-2.50588 l -3.5,-0.27671 3.5,-2.23949 c 3.61682,-2.31424 9.41483,-3.00281 10.5,-1.24697 1.52753,2.4716 9.94427,-0.14111 20.5,-6.36356 6.54128,-3.856 11.16783,-5.45031 17.72811,-6.10913 8.78092,-0.88184 13.91972,-0.0128 12.19724,2.06264 -0.64363,0.77553 -2.06762,1.41005 -3.16443,1.41005 -1.50185,0 -1.86506,0.49376 -1.47117,2 0.58916,2.25296 -0.29796,2.59179 -2.09107,0.79868 -0.71173,-0.71173 -4.26207,-1.22117 -8.71152,-1.25 -6.38713,-0.0414 -7.59593,0.22127 -8.0836,1.75656 -0.92554,2.91388 -8.32497,7.75259 -10.87619,7.11227 -1.46947,-0.36881 -3.18585,0.2566 -5.11904,1.86525 -1.59958,1.33106 -3.9478,2.96723 -5.21826,3.63593 -1.67821,0.88332 -2.22517,1.92842 -2,3.82145 0.42097,3.53913 2.52188,3.98617 3.9547,0.84148 1.59117,-3.49226 7.49826,-5.21465 10.02908,-2.92429 1.63034,1.47544 1.97775,1.47336 4.26534,-0.0255 1.46184,-0.95784 4.54955,-1.6318 7.47594,-1.6318 3.65789,0 5.23954,-0.45395 5.9395,-1.70473 0.75228,-1.34424 2.6889,-1.77201 9.15827,-2.02292 4.51234,-0.17501 9.02581,-0.75788 10.02993,-1.29527 1.00413,-0.5374 3.18944,-0.97708 4.85624,-0.97708 2.00711,0 3.39204,-0.67542 4.10093,-2 0.5887,-1.1 1.93217,-2 2.98549,-2 1.05332,0 2.38788,-0.7875 2.96568,-1.75 0.8315,-1.38512 1.00993,-0.86953 0.85578,2.47277 -0.10711,2.32252 0.0751,4.49256 0.4048,4.82231 0.32975,0.32975 2.55369,-0.2963 4.9421,-1.39123 5.31772,-2.43784 6.37042,-1.79584 2.34615,1.43082 -4.24206,3.40128 -1.36785,3.14834 8.22397,-0.72374 6.83705,-2.76001 8.83772,-3.12164 16.56825,-2.99477 4.83573,0.0794 10.73858,0.58048 13.11746,1.1136 2.37888,0.53312 5.96189,0.90777 7.96224,0.83257 5.08785,-0.19127 5.36993,0.66181 0.93513,2.82806 -2.09388,1.02278 -3.95255,2.64711 -4.13037,3.60961 -0.29121,1.57615 0.72056,1.75 10.1849,1.75 11.16166,0 15.63842,0.99485 15.63842,3.47525 0,1.96053 3.37956,1.97726 5,0.0248 1.84297,-2.22065 2.68091,-1.84545 3.35,1.5 0.49976,2.49878 1.08047,3 3.47578,3 1.58167,0 4.31589,-0.50203 6.07604,-1.11562 3.8699,-1.34905 5.00924,-0.54857 2.75872,1.93823 -3.93047,4.34311 -0.7844,5.49904 5.44212,1.99954 2.13123,-1.19782 4.18871,-1.86412 4.57217,-1.48065 0.38346,0.38346 -0.50208,2.91776 -1.96788,5.63177 -3.03017,5.61054 -2.27448,6.98455 2.59332,4.71521 5.97377,-2.78493 15.72648,-5.06173 16.85367,-3.93454 0.72985,0.72985 0.41053,1.24952 -1.05328,1.71411 -1.15536,0.3667 -2.10066,1.23917 -2.10066,1.93882 0,1.53003 4.21852,3.59313 7.34705,3.59313 1.23912,0 2.81493,0.56198 3.50179,1.24884 1.24856,1.24856 4.94902,1.46094 27.79897,1.59544 8.45059,0.0497 12.61661,0.56042 17.21845,2.11067 4.04124,1.36139 8.67201,2.04691 13.85219,2.05063 9.32761,0.007 14.78243,1.36839 17.65426,4.40709 1.39071,1.47152 4.37793,2.69196 8.62729,3.52473 5.77168,1.13111 12.60552,3.51823 17,5.93827 0.825,0.45433 1.64659,2.06173 1.82576,3.57201 0.27163,2.2896 0.68711,2.64277 2.5,2.12506 1.19583,-0.34149 3.47201,-0.90336 5.05817,-1.2486 4.47788,-0.97465 2.86435,1.69136 -2.95202,4.87756 -3.21183,1.75944 -4.93191,3.3597 -4.93191,4.58836 0,1.03767 -0.62663,2.64529 -1.3925,3.57247 -2.25189,2.7262 -0.6211,2.97041 5.55856,0.83239 5.14038,-1.77845 6.10684,-1.8466 8.5165,-0.60051 1.49497,0.77307 3.86547,1.40559 5.26778,1.40559 2.00803,0 2.54966,-0.49815 2.54966,-2.34501 0,-1.28976 -0.9,-3.1595 -2,-4.15499 -2.80952,-2.54258 -2.49276,-5.44651 1.06492,-9.7626 1.68571,-2.04505 2.76934,-4.19656 2.40806,-4.78111 -0.36127,-0.58456 -3.09049,-2.1391 -6.06492,-3.45453 C 626.33978,641.14482 624,639.46281 624,638.61405 c 0,-0.82281 -0.5625,-1.84659 -1.25,-2.27508 -1.82649,-1.13836 -11.20964,-2.46445 -19.25,-2.72053 -5.01518,-0.15973 -8.84305,-1.00278 -13.5,-2.97323 -11.02608,-4.66534 -20.80392,-6.96582 -30.21458,-7.10871 -4.79302,-0.0728 -9.03052,-0.44827 -9.41667,-0.83442 -0.38615,-0.38614 -2.31458,-0.70897 -4.28542,-0.71739 -4.04136,-0.0173 -5.44857,-0.72325 -6.35755,-3.18951 -0.34558,-0.93765 -2.45026,-2.6343 -4.67706,-3.77032 C 532.82192,613.88883 531,612.55149 531,612.05298 531,610.88355 520.36106,606 517.81342,606 c -1.0697,0 -2.92782,-0.55917 -4.12916,-1.24259 -1.20134,-0.68343 -4.17279,-1.69593 -6.60321,-2.25 C 502.47397,601.45711 500.24711,599 503.90232,599 c 2.38326,0 9.37587,1.51845 16.59768,3.6042 14.87981,4.29747 38.19542,8.1391 50.85699,8.37953 0.47134,0.009 0.61059,0.65837 0.30944,1.44316 -0.30115,0.78478 -0.0118,1.86136 0.64301,2.39238 2.66416,2.16052 14.25083,4.18105 24.02133,4.18893 17.95251,0.0145 36.01477,3.04708 56.97085,9.5652 4.29089,1.33463 9.04239,2.4266 10.55887,2.4266 1.51649,0 3.63076,0.66069 4.69838,1.4682 1.76286,1.33335 1.24774,1.47111 -5.60887,1.5 -4.1525,0.0175 -7.9775,0.4437 -8.5,0.94712 -0.5225,0.50343 -2.075,1.06593 -3.45,1.25 -1.4054,0.18815 -2.5,0.99071 -2.5,1.833 0,1.03357 4.65276,3.11008 15,6.69444 24.20435,8.38458 47.05384,17.12949 58.52359,22.39803 5.7323,2.63309 6.72231,3.50678 8.16194,7.20289 3.34427,8.58611 8.98135,22.3308 10.74794,26.20632 1.00284,2.2 3.03129,7.375 4.50768,11.5 1.47639,4.125 3.33111,8.97777 4.1216,10.78393 0.79049,1.80616 1.43725,3.89023 1.43725,4.63128 0,2.94971 -8.92077,3.72519 -41.88965,3.64143 -26.04641,-0.0662 -36.51358,0.32765 -53.03101,1.99529 -16.11589,1.62709 -25.89314,2.0157 -45.07934,1.79173 -13.475,-0.15731 -66.8,0.006 -118.5,0.36246 -51.7,0.35666 -95.125,0.46356 -96.5,0.23756 z m 151.25,-19.08553 c 3.08749,-0.51033 3.75,-1.03295 3.75,-2.9582 0,-4.52306 3.77828,-9.93471 8.62675,-12.35615 4.05733,-2.02633 5.39083,-2.20713 11.23841,-1.52379 12.12281,1.41667 20.29065,0.97901 32.48231,-1.74051 C 615.49608,695.06959 623,691.49525 623,688.41842 c 0,-1.0085 -0.61371,-1.37283 -1.75,-1.03887 -0.9625,0.28288 -6.5823,1.70672 -12.48844,3.1641 -10.59776,2.61505 -10.81013,2.62722 -16.21039,0.92863 -5.08355,-1.59898 -5.76011,-1.60584 -9.53179,-0.0967 -4.4774,1.7915 -13.01938,2.20046 -13.01938,0.62332 0,-0.55061 1.82446,-2.77169 4.05435,-4.93573 3.83283,-3.71963 3.9457,-3.99277 2.06574,-4.99889 -2.1549,-1.15326 -9.98081,-1.43868 -12.5383,-0.45728 -2.59507,0.99582 -1.79688,3.18686 1.41821,3.89301 1.65,0.3624 2.98095,0.96066 2.95767,1.32946 -0.0233,0.36879 -1.71078,1.76659 -3.75,3.10622 -2.72547,1.79044 -5.49253,2.54865 -10.44526,2.86214 l -6.73759,0.42647 3.54566,-3.86214 3.54567,-3.86215 -5.288,-0.31023 c -3.19483,-0.18744 -5.43192,0.12153 -5.65159,0.78054 -1.26696,3.80089 -24.31125,10.06958 -29.61038,8.05485 C 512.08317,693.46132 509.944,693 508.81246,693 c -1.7405,0 -1.86021,0.23754 -0.77729,1.54238 1.83507,2.21112 0.0619,3.57964 -5.44172,4.19998 -2.88517,0.3252 -5.52006,1.38705 -7.11906,2.86895 -1.39621,1.29397 -3.43673,2.83335 -4.53449,3.42085 -4.21323,2.25485 -1.74195,2.97502 27.0601,7.88566 9.625,1.64102 18.85,3.16342 20.5,3.3831 1.65,0.21968 3.45,0.46189 4,0.53824 0.55,0.0764 2.6875,-0.1401 4.75,-0.48101 z M 515,704 c 0,-0.55 2.025,-1 4.5,-1 2.475,0 4.5,0.45 4.5,1 0,0.55 -2.025,1 -4.5,1 -2.475,0 -4.5,-0.45 -4.5,-1 z m -281.57792,7.82 C 235.38993,709.521 237,707.09415 237,706.42699 c 0,-2.31503 -2.89904,-2.3061 -6.32597,0.0195 -3.42626,2.32513 -3.45597,2.32716 -5.41277,0.37035 -1.65007,-1.65007 -2.19303,-1.75161 -3.36443,-0.62924 -0.76826,0.7361 -2.69368,2.16929 -4.27872,3.18487 -3.3604,2.1531 -2.16586,3.58691 3.00945,3.61225 1.72015,0.008 3.68775,0.69031 4.37244,1.51531 2.09109,2.51961 4.67527,1.6973 8.42208,-2.68 z m -34.10429,-0.47112 c 1.12603,-1.12604 -2.68585,-3.28485 -5.81779,-3.29484 -1.65,-0.005 -4.125,0.87042 -5.5,1.94596 l -2.5,1.95553 6.58333,0.0222 c 3.62084,0.0122 6.87634,-0.27077 7.23446,-0.62888 z M 347,702.60699 C 347,700.46506 345.36946,699 342.9856,699 c -1.15205,0 -2.26776,3.73444 -1.49113,4.99105 0.34296,0.55492 1.72201,1.00895 3.06455,1.00895 1.90794,0 2.44098,-0.52256 2.44098,-2.39301 z m 54.97976,-0.21557 c 3.29099,-1.31679 4.01447,-2.08772 3.98844,-4.25 C 405.92998,694.96698 403.87176,692 401.70785,692 c -0.86441,0 -2.53295,-1.35 -3.70785,-3 -1.74429,-2.44963 -2.84704,-3 -6.01093,-3 -6.07629,0 -13.28208,5.09885 -11.4333,8.09024 0.30925,0.50037 2.05561,0.90976 3.8808,0.90976 1.8252,0 3.90032,0.701 4.61138,1.55778 0.71106,0.85677 2.79116,2.18381 4.62244,2.94897 1.83129,0.76516 3.32961,2.08916 3.32961,2.94222 0,1.91571 0.0495,1.91514 4.97976,-0.0575 z m -212.51077,-9.34125 c 0.65025,-1.05212 -2.87352,-3.3123 -3.76861,-2.41722 -0.30942,0.30942 -0.32044,1.19359 -0.0245,1.96482 0.61313,1.59778 2.9155,1.87239 3.7931,0.4524 z m 1.40913,-4.95368 c 1.70098,-1.07739 0.60694,-3.09253 -1.68714,-3.10758 -1.18819,-0.008 -0.72463,-0.77268 1.55902,-2.57248 1.7875,-1.40876 3.25,-2.97877 3.25,-3.48891 0,-1.70695 -5.66837,-0.95144 -7.42504,0.98965 -1.01795,1.12483 -3.76838,2.19683 -6.65499,2.59384 -3.93591,0.54132 -4.91997,1.05792 -4.91997,2.58283 0,1.63088 0.75817,1.90837 5.25,1.92147 2.8875,0.008 5.925,0.45153 6.75,0.98469 1.83798,1.1878 2.14317,1.19539 3.87812,0.0965 z m 150.32151,-2.29686 c -0.56395,-0.56395 -1.58275,-0.68089 -2.26399,-0.25985 -0.91979,0.56846 -0.75213,1.12124 0.65133,2.14747 2.09041,1.52855 3.4442,-0.0561 1.61266,-1.88762 z m -123.42857,-0.61281 c 0.24358,-0.73075 -0.21359,-0.95424 -1.1875,-0.58051 -0.87096,0.33422 -1.58356,1.04702 -1.58356,1.58401 0,1.31439 2.27278,0.49134 2.77106,-1.0035 z m 402.64644,-1.05513 c 1.60463,-0.34743 3.08673,-1.14049 3.29356,-1.76235 1.02107,-3.07004 -14.21582,-2.44197 -18.03036,0.74322 -2.1489,1.79435 -2.07863,1.81966 4.8193,1.73586 3.85,-0.0468 8.31288,-0.36931 9.9175,-0.71673 z m 195.53205,50.83713 c -1.07422,-0.6639 4.40425,-12.67519 6.44261,-14.12512 0.50745,-0.36096 5.01431,-0.94212 10.01524,-1.29146 5.00093,-0.34934 13.84366,-1.35591 19.65051,-2.23682 9.87909,-1.49867 11.06855,-1.48864 18.5,0.15613 4.36815,0.96678 9.17737,2.39159 10.68715,3.16624 1.50978,0.77465 7.28851,1.84136 12.84163,2.37047 14.54194,1.38557 28.16463,3.91318 29.99205,5.56484 0.86831,0.78479 2.33081,1.4269 3.25,1.4269 0.91919,0 1.67126,0.38788 1.67126,0.86195 0,1.47491 -10.86523,3.1974 -26.5,4.20108 -16.46854,1.05721 -84.80777,0.98283 -86.55045,-0.0942 z M 798,731.48997 c -2.39124,-0.86864 -7.49912,-1.14625 -16.12395,-0.87634 -9.31297,0.29145 -12.89303,0.0661 -13.64992,-0.85928 -2.67795,-3.27404 -20.06468,-48.24914 -19.04617,-49.26765 0.23537,-0.23536 3.55367,0.83887 7.37399,2.3872 17.10626,6.93293 37.99766,13.36096 43.85272,13.49295 l 5.90666,0.13315 1.84718,6.5 1.84718,6.5 -3.01286,2.5 c -1.65707,1.375 -3.0088,3.44276 -3.00384,4.59501 0.01,2.21469 2.86502,5.40499 4.83775,5.40499 2.3161,0 0.68441,4.5643 -3.12802,8.75 -2.28316,2.5067 -2.72128,2.5488 -7.70072,0.73997 z m 22.60471,-22.61482 c -0.23571,-0.75633 -0.9182,-2.9048 -1.51664,-4.77437 -2.32512,-7.26388 -0.94014,-9.78675 3.61943,-6.5931 1.18388,0.82922 5.81656,2.20273 10.29483,3.05225 4.47828,0.84951 9.34728,2.04293 10.82,2.65203 l 2.67767,1.10747 -3,0.72197 c -1.65,0.39708 -4.76457,0.77521 -6.92126,0.84029 -2.15669,0.0651 -4.64345,0.77188 -5.52612,1.57069 -2.36718,2.14227 -9.90382,3.16859 -10.44791,1.42277 z M 133.55305,681.08583 c -0.28129,-0.45513 -1.89072,-1.10336 -3.57652,-1.44052 -2.32705,-0.46541 -3.4347,-1.49761 -4.60006,-4.28671 l -1.53496,-3.67368 -1.19414,2.40754 c -0.93127,1.87755 -2.12279,2.47514 -5.41262,2.71464 -4.91608,0.35789 -10.27016,-3.04111 -12.94836,-8.22017 -2.86617,-5.54258 -6.28779,-17.73317 -5.669132,-20.1981 0.723503,-2.88267 0.521346,-2.86893 5.422582,-0.36851 3.22228,1.64389 3.96016,2.55428 3.96016,4.88606 0,2.27624 0.69963,3.19773 3.40113,4.47968 1.87062,0.88767 4.56458,1.61394 5.98658,1.61394 2.00958,0 2.91117,0.77957 4.04784,3.5 1.17017,2.80061 2.02211,3.50708 4.26342,3.53544 1.54057,0.0195 3.92603,0.67854 5.30103,1.46456 1.375,0.78602 3.76708,1.44508 5.31574,1.46456 7.83027,0.0986 8.95084,5.05281 2.2165,9.79961 -2.45727,1.73204 -4.69791,2.77679 -4.97919,2.32166 z M 111.25,639.54239 c -2.3375,-2.4473 -4.25,-5.09736 -4.25,-5.88902 0,-0.79167 -0.675,-1.69841 -1.5,-2.015 -4.22898,-1.62281 0.14189,-8.81489 6.45799,-10.62632 5.81305,-1.66716 13.06446,2.84612 10.17214,6.33115 -0.82152,0.98988 -0.47117,2.16142 1.40819,4.70874 1.376,1.86506 3.16778,3.76371 3.98175,4.21923 1.6641,0.93128 1.9074,3.50479 0.53623,5.67197 -0.74475,1.17711 -1.39606,1.22308 -3.53313,0.24937 -2.11681,-0.96448 -3.17742,-0.90554 -5.52195,0.30686 -1.59604,0.82535 -3.03675,1.49883 -3.20156,1.49664 -0.16481,-0.002 -2.21216,-2.00633 -4.54966,-4.45362 z M 270.70979,624.75 c -2.11752,-1.58263 -0.92694,-3.61048 2.33392,-3.97524 2.01899,-0.22584 2.51262,0.21483 2.77271,2.47524 0.24565,2.13486 -0.10305,2.75 -1.55887,2.75 -1.03141,0 -2.6279,-0.5625 -3.54776,-1.25 z m -35.6622,-2.19266 c -0.82571,-0.99491 -0.69724,-1.47781 0.51713,-1.9438 1.74175,-0.66837 3.43528,-0.009 3.43528,1.33849 0,1.51827 -2.83445,1.95237 -3.95241,0.60531 z M 484,620.66494 c 0,-0.79647 1.1781,-1.74381 2.618,-2.1052 3.68784,-0.92559 3.81979,-0.24957 0.35123,1.79936 C 484.51798,621.80709 484,621.86045 484,620.66494 z m -255.34934,-1.13291 c -0.30982,-0.80739 -0.11325,-1.74613 0.43682,-2.08609 1.0886,-0.6728 3.91252,1.25902 3.91252,2.6765 0,1.48074 -3.7499,0.9717 -4.34934,-0.59041 z m 12.38925,-3.83465 c -3.36133,-1.68969 -3.61478,-3.47833 -0.68223,-4.81449 3.12913,-1.42573 5.64232,-0.55125 5.64232,1.96328 0,3.00729 -2.16914,4.25418 -4.96009,2.85121 z m -137.74866,-7.80149 c -4.460733,-2.05148 -10.72781,-2.76974 -13.396683,-1.53538 -1.240956,0.57395 -3.04732,-1.36917 -7.956618,-8.559 C 78.444796,592.68568 73.605515,585.8 71.183991,582.5 65.950557,575.36799 58.761575,561.45224 59.193892,559.2907 c 0.199985,-0.99991 2.150008,0.59116 5.624781,4.58939 C 69.512888,569.28147 73,571.5559 73,569.21628 73,568.78523 71.425,565.98791 69.5,563 67.575,560.01209 66,557.11764 66,556.56788 c 0,-1.88926 11.158084,9.94191 18.15588,19.2511 3.852836,5.12544 6.77427,9.92066 6.492077,10.65605 -0.282193,0.73538 0.433926,2.16684 1.591376,3.18101 1.157451,1.01418 1.775545,1.28146 1.373544,0.59396 -1.907906,-3.26289 1.696075,-0.55811 8.069203,6.05591 7.4534,7.73514 9.79392,11.11488 8.80515,12.71476 -0.83622,1.35303 -2.30867,1.12288 -7.19598,-1.12478 z m 393.7623,-18.49148 C 490.45497,587.63075 489.6252,587 493.89051,587 c 4.55863,0 12.19002,2.06068 11.53805,3.11559 -0.7091,1.14736 -1.80771,1.05407 -8.37501,-0.71118 z M 461.5,589.30147 c -4.85694,-0.64577 -12.25116,-3.29671 -13.54548,-4.85627 -2.06287,-2.48561 9.03714,-1.9091 14.51873,0.75407 4.14571,2.01414 6.25493,5.00788 3.27675,4.6509 -0.6875,-0.0824 -2.6,-0.32933 -4.25,-0.5487 z m -51.55223,-1.66846 c -0.24628,-0.23606 -4.04777,-0.67586 -8.44777,-0.97733 -4.4,-0.30147 -8.13906,-0.57233 -8.30902,-0.60191 -0.16996,-0.0296 -0.0693,-0.44168 0.22375,-0.9158 0.67638,-1.09441 19.76146,-0.20691 21.03527,0.97819 0.59249,0.55123 0.52919,0.88384 -0.16821,0.88384 -0.61502,0 -1.74102,0.23899 -2.50224,0.5311 -0.76121,0.2921 -1.58551,0.33796 -1.83178,0.10191 z"
       style="fill:#4e4e4e" />
    <path
       inkscape:connector-curvature="0"
       id="path3014"
       d="m 390,734.42493 c -19.94701,-1.33285 -63.73053,-2.73958 -107.5,-3.4539 -68.98998,-1.12592 -111.43749,-4.25623 -123.75,-9.12601 -3.12395,-1.23556 -3.39385,-2.06578 -1.25,-3.84502 0.825,-0.68469 1.5,-1.86479 1.5,-2.62244 0,-0.75766 0.36925,-1.37756 0.82055,-1.37756 1.45794,0 19.25579,3.92915 20.06598,4.42987 2.74383,1.69578 18.78928,3.94335 31.11347,4.35823 24.52424,0.82558 29.6203,0.74951 32.10416,-0.47923 C 246.78329,720.48885 256.45293,718 259.84489,718 c 1.67039,0 3.26012,-0.36089 3.53272,-0.80197 0.27261,-0.44109 2.79104,-1.42703 5.59653,-2.19099 4.92755,-1.34181 5.07884,-1.48933 4.45242,-4.34143 -0.66106,-3.00979 -4.52107,-7.13641 -7.67656,-8.20677 -2.14546,-0.72776 -2.22442,-1.82022 -0.25,-3.45884 0.825,-0.68469 1.5,-2.26664 1.5,-3.51546 0,-1.24881 0.70352,-2.54053 1.56338,-2.87049 0.85986,-0.32996 1.31482,-1.00211 1.01101,-1.49368 -0.3038,-0.49157 0.16456,-1.48875 1.0408,-2.21597 0.87624,-0.72721 1.99599,-2.38173 2.48834,-3.67671 0.72168,-1.89815 1.50568,-2.29376 4.04498,-2.0411 1.88493,0.18756 3.59186,1.11655 4.25064,2.31341 1.60102,2.9087 2.68022,3.4676 6.72873,3.48469 3.21853,0.0136 6.81858,1.088 13.37212,3.99085 1.8993,0.84128 8.84561,1.87945 16.5,2.46603 1.925,0.14752 4.2875,0.33351 5.25,0.41332 0.9625,0.0798 1.75,0.82011 1.75,1.64511 0,0.83333 0.88889,1.5 2,1.5 2.33464,0 2.67016,-1.52886 0.51686,-2.35516 -0.81573,-0.31302 -1.2494,-1.17825 -0.96372,-1.92274 0.28569,-0.74448 -0.16697,-2.67402 -1.00591,-4.28785 -1.48808,-2.86259 -1.71488,-2.93425 -9.28628,-2.93425 -7.73155,0 -7.76215,-0.0105 -8.07856,-2.7623 -0.17469,-1.51927 -1.67109,-4.21927 -3.32534,-6 -2.71386,-2.92135 -2.95967,-3.72624 -2.51571,-8.2377 0.27061,-2.75 0.8016,-5.99185 1.17997,-7.20411 0.64369,-2.06229 0.43993,-2.17107 -3.16668,-1.69061 -3.81089,0.50767 -3.82626,0.4963 -1.35463,-1.00209 1.375,-0.83357 3.25021,-1.29181 4.16712,-1.0183 1.281,0.3821 1.54151,0.0169 1.12477,-1.57669 -0.29829,-1.14068 0.10199,-2.84667 0.88952,-3.79108 1.78767,-2.1438 3.47925,-5.77983 6.84682,-14.71712 2.3266,-6.17461 2.94161,-7 5.21582,-7 1.41803,0 2.91821,-0.3375 3.33375,-0.75 0.41555,-0.4125 1.76873,-0.75 3.00708,-0.75 2.77146,0 5.41512,-0.95908 5.41512,-1.96453 0,-0.41281 -2.73397,-1.03631 -6.07549,-1.38557 -6.59756,-0.68958 -10.60964,-2.17879 -7.92451,-2.94144 0.825,-0.23432 3.22565,-0.9825 5.33478,-1.66263 2.10913,-0.68013 5.28866,-0.96385 7.06562,-0.63049 2.58184,0.48435 3.67878,0.12928 5.46086,-1.76766 1.22653,-1.30558 2.15621,-2.7729 2.06597,-3.26073 -0.51054,-2.7599 0.40363,-2.39194 1.48258,0.59676 l 1.25766,3.48371 11.66627,0.0523 C 357.65484,621.55696 361,621.23388 361,620.39296 361,619.05578 358.7579,618 355.91821,618 354.8632,618 354,617.51045 354,616.9121 c 0,-1.39194 8.2117,-0.12235 9.189,1.42068 0.47657,0.75245 1.70985,0.58025 4,-0.55851 2.07999,-1.03425 2.66036,-1.67014 1.561,-1.71032 -2.79198,-0.10203 -2.02583,-2.07183 1.25,-3.21379 1.65,-0.5752 3,-1.45179 3,-1.94799 0,-0.49619 0.9,-0.90217 2,-0.90217 1.6014,0 2,0.66667 2,3.34501 0,4.98209 2.47071,6.65499 9.82874,6.65499 4.8189,0 6.17126,0.32871 6.17126,1.5 0,1.80771 3.64735,2.02076 4.27976,0.25 0.24554,-0.6875 0.81554,-0.905 1.26667,-0.48333 0.45113,0.42166 0.28774,1.29916 -0.3631,1.95 -1.80034,1.80034 -1.44423,4.58182 0.56619,4.42222 1.11093,-0.0882 1.86704,0.68778 2.07149,2.12594 0.18792,1.32186 0.77287,1.98617 1.40493,1.59553 3.45615,-2.13602 15.80691,-2.05305 17.01984,0.11434 0.56496,1.00952 1.73762,1.27862 3.78633,0.86888 2.50615,-0.50123 2.96789,-0.27962 2.96789,1.42443 0,3.32783 5.70779,4.49394 8.06924,1.64856 0.72277,-0.87088 1.37469,-2.40556 1.44872,-3.41039 0.19323,-2.62276 3.28099,-7.00618 4.93529,-7.00618 1.10434,0 1.2118,0.68111 0.49936,3.16523 -0.89403,3.11729 -0.34744,7.84105 0.9058,7.82818 0.35287,-0.004 1.99159,-0.90066 3.64159,-1.99341 4.08968,-2.70849 6.90655,-2.66264 6.18393,0.10065 -0.54426,2.08125 1.04558,6.89935 2.27659,6.89935 0.35171,0 1.17948,-0.54 1.83948,-1.2 0.78182,-0.78182 1.2,-0.82449 1.2,-0.12244 0,0.59265 -0.7014,1.65966 -1.55868,2.37114 -0.90279,0.74925 -1.47281,2.58914 -1.35463,4.37244 0.34641,5.22698 -0.0134,6.42084 -2.1387,7.09537 -2.24888,0.71376 -7.80443,10.96038 -6.59712,12.16769 0.40705,0.40705 1.61352,0.19462 2.68104,-0.47205 1.06752,-0.66668 3.08618,-1.21215 4.48591,-1.21215 1.5657,0 2.73827,-0.67337 3.04736,-1.75 0.27633,-0.9625 2.26152,-5.35 4.41153,-9.75 2.15001,-4.4 4.21304,-9.575 4.58451,-11.5 1.06981,-5.54382 2.25723,-7.00711 7.7683,-9.57308 C 478.52981,628.54006 480,628.4199 480,630.8 c 0,2.19553 -1.85618,4.18683 -3.95,4.23755 -0.8525,0.0207 -3.27898,1.51792 -5.39219,3.32726 -2.8133,2.40879 -3.75055,3.91721 -3.5,5.63296 0.32815,2.24708 0.51992,2.17211 4.67379,-1.82727 4.30539,-4.14527 7.92322,-5.57992 6.81977,-2.70438 -0.44376,1.15643 0.0617,1.34126 2.39301,0.875 C 483.34849,639.8803 484,640.1082 484,641.375 c 0,2.01751 0.11461,2.01486 4.56097,-0.10546 3.47008,-1.65477 3.68738,-1.65039 4.96739,0.10013 0.83034,1.13556 1.82757,1.52839 2.62649,1.03463 0.70835,-0.43779 2.50871,-0.70296 4.00079,-0.58926 1.49209,0.11369 3.00753,-0.27003 3.36765,-0.85272 0.46014,-0.74453 1.03801,-0.74137 1.9441,0.0106 0.82718,0.6865 2.13944,0.74844 3.66097,0.17281 1.3044,-0.49348 4.73216,-1.22011 7.61725,-1.61473 4.14751,-0.56729 5.36255,-0.41273 5.80426,0.73834 0.44203,1.15192 2.06079,1.35649 7.75439,0.97996 8.76093,-0.57938 11.19404,-2.20478 7.89762,-5.27587 C 534.8631,632.86291 535.50443,632 541.15499,632 c 4.9785,0 5.09685,0.0642 3.45683,1.87644 -1.55509,1.71835 -1.56125,1.92899 -0.0732,2.5 0.89372,0.34296 3.16315,0.62356 5.04317,0.62356 2.37174,0 3.41821,0.45922 3.41821,1.5 0,1.00225 1.07845,1.53784 3.25,1.61402 5.04585,0.17703 8.90615,0.72227 10.65341,1.50472 0.87812,0.39324 3.84659,0.84499 6.59659,1.00388 16.12737,0.9318 17.78394,1.35226 21.75,5.52046 2.0625,2.16763 3.75,4.09259 3.75,4.27771 0,0.18511 -1.4625,0.92331 -3.25,1.64044 -1.7875,0.71713 -4.32319,2.12172 -5.63486,3.12132 C 588.55567,658.37099 586.02373,659 582.7994,659 577.17217,659 574,657.66641 574,655.30071 c 0,-0.94839 -1.51813,0.31966 -3.63377,3.03518 -1.99858,2.56526 -4.45692,4.66411 -5.46298,4.66411 -1.00607,0 -4.20837,0.94394 -7.11623,2.09765 -3.85362,1.52895 -6.55965,1.95019 -9.98103,1.55375 -2.5817,-0.29915 -6.15142,-0.12592 -7.93272,0.38495 C 535.72579,668.22583 529,667.19644 529,665.37219 529,664.61749 528.50186,664 527.89301,664 c -0.60884,0 -0.84397,-0.68541 -0.5225,-1.52314 0.47242,-1.23112 0.21602,-1.32595 -1.33732,-0.49462 -1.05699,0.56568 -2.20969,1.49433 -2.56156,2.06366 -0.35186,0.56933 -2.41852,2.15803 -4.59257,3.53044 -4.01941,2.53735 -4.35571,4.42366 -0.78866,4.42366 2.73815,0 3.37109,2.36604 1.42676,5.33346 -1.23239,1.88087 -2.85112,2.66233 -6.57599,3.17463 -3.8208,0.52549 -4.94117,1.08403 -4.94117,2.4633 0,3.10932 -2.67279,4.46246 -6.8002,3.44271 -4.78429,-1.18204 -4.94564,-3.73199 -0.27929,-4.4141 6.32972,-0.92526 4.71971,-4.94808 -2.29683,-5.73895 -5.23446,-0.59 -6.01185,-1.79725 -1.75881,-2.73137 4.50385,-0.98921 9.5365,-6.55969 5.88513,-6.51406 -0.6875,0.009 -3.95,0.66756 -7.25,1.46438 -9.44405,2.28036 -19.5,1.71052 -19.5,-1.105 0,-0.78647 -1.03197,-1.375 -2.41102,-1.375 -3.40787,0 -13.68602,4.08931 -14.30006,5.68948 -0.65333,1.70253 1.47738,4.31052 3.52165,4.31052 0.86112,0 3.05232,1.0125 4.86934,2.25 2.90633,1.97938 3.23151,2.63892 2.70367,5.48361 -0.53561,2.88652 -0.29322,3.34344 2.2582,4.25685 1.57202,0.56278 4.08385,1.71359 5.58184,2.55734 4.14488,2.33464 15.04766,2.40857 17.58538,0.11924 1.97457,-1.78131 2.06226,-1.77612 3.11142,0.18425 1.70681,3.18923 1.29092,4.14871 -1.7983,4.14871 -1.58283,0 -4.48375,0.67098 -6.4465,1.49107 -1.96274,0.82008 -3.81689,1.08936 -4.12033,0.59839 -0.30343,-0.49097 -3.22516,-1.20296 -6.49271,-1.5822 -5.52153,-0.64084 -6.18951,-0.49124 -9.46037,2.11864 -3.26213,2.60291 -3.4031,2.93664 -1.92863,4.5659 3.36644,3.71987 10.13394,5.70984 29.82642,8.7704 11,1.70959 20.74508,3.33433 21.65574,3.61054 3.74495,1.13587 23.61148,3.09947 27.05922,2.67452 2.04323,-0.25184 4.23583,-1.0855 4.87244,-1.85258 0.63986,-0.77098 2.96084,-1.39468 5.19003,-1.39468 3.84332,0 3.95489,-0.0858 2.37756,-1.82874 -2.47378,-2.73349 -2.01689,-5.33646 1.52262,-8.67451 2.97577,-2.8064 3.59509,-2.97429 9.75,-2.64322 29.95085,1.61104 41.76888,-0.91438 54.39464,-11.6237 2.41852,-2.0514 5.19127,-4.19315 6.16167,-4.75943 1.48995,-0.86946 1.65271,-1.84157 1.04639,-6.25 C 632.0519,674.74194 631.34312,673 630.40616,673 629.63277,673 629,672.55 629,672 c 0,-1.27271 1.69492,-1.30264 2.47301,-0.0437 0.32507,0.52598 1.25163,0.70283 2.05902,0.39301 2.30668,-0.88516 1.93662,-9.48383 -0.54387,-12.63726 l -2.01183,-2.55764 2.11061,-3.57722 c 1.587,-2.68976 2.76834,-3.5713 4.76184,-3.55336 3.53126,0.0318 8.46908,1.33288 15.15122,3.99231 3.025,1.20392 7.90955,2.60642 10.85456,3.11666 2.94501,0.51024 6.93747,1.58909 8.87213,2.39744 1.93466,0.80835 4.83729,1.46973 6.4503,1.46973 1.61301,0 4.82055,0.8504 7.12787,1.88978 5.25077,2.3653 15.78589,3.93056 14.01545,2.08235 -1.2054,-1.25835 -14.61735,-5.57023 -21.82031,-7.01512 -2.2,-0.44132 -6.65735,-1.73718 -9.90523,-2.8797 C 665.3469,653.93479 661.88596,653 660.90379,653 c -0.98217,0 -2.03782,-0.40784 -2.34589,-0.90632 -0.30807,-0.49847 -2.92213,-1.19728 -5.80902,-1.55292 -2.88688,-0.35563 -6.46305,-0.87842 -7.94703,-1.16175 -3.31334,-0.6326 -10.39528,-6.12584 -10.05,-7.79547 0.14511,-0.70169 -3.24562,-2.52157 -8,-4.2938 -10.53531,-3.92711 -45.40356,-14.30796 -56.25185,-16.7471 -2.85681,-0.64233 -2.90454,-0.6013 -1,0.85962 1.95604,1.50041 1.94359,1.53483 -0.56634,1.56594 -7.32549,0.0908 -29.76586,-5.85616 -31.92788,-8.46123 -1.05391,-1.26989 -0.87744,-1.51197 1.12178,-1.53877 2.24443,-0.0301 2.27304,-0.10713 0.53021,-1.42769 -1.01323,-0.76773 -3.71323,-1.70663 -6,-2.08644 -5.0118,-0.83241 -10.90183,-3.69245 -8.62086,-4.18605 0.8453,-0.18293 8.40556,1.03194 16.80057,2.69969 8.39501,1.66776 17.23934,3.03229 19.65407,3.03229 2.41473,0 4.64447,0.41106 4.95498,0.91348 0.94087,1.52236 8.65,4.72161 15.86457,6.58372 4.89855,1.26434 8.97013,1.61105 14.5,1.23473 12.12199,-0.82492 31.6566,2.29931 55.1889,8.82653 4.675,1.29672 10.17171,2.61897 12.21492,2.93834 5.97669,0.93419 5.15857,2.08589 -1.53315,2.15828 -10.14994,0.10981 -15.6733,2.12256 -13.86295,5.05177 0.38743,0.62687 9.02419,4.06303 19.1928,7.63591 C 699.81771,657.86961 728,669.32327 728,671.12925 c 0,0.50133 1.7421,4.61484 3.87134,9.14113 2.12923,4.52629 4.2015,9.35462 4.60503,10.72962 0.40354,1.375 2.48643,6.43812 4.62867,11.25137 2.14223,4.81325 3.89496,9.2365 3.89496,9.82944 0,0.59294 1.16849,3.99884 2.59664,7.56866 1.42815,3.56982 2.44065,6.63748 2.25,6.81703 -1.18899,1.11973 -19.01826,-1.66359 -23.34664,-3.64463 -4.54964,-2.08231 -6.62129,-2.30726 -23,-2.49746 -15.40638,-0.17891 -17.73554,-0.0123 -16.16461,1.15596 1.00947,0.75075 5.28447,1.66561 9.5,2.03303 4.21554,0.36741 10.81461,1.30184 14.66461,2.0765 3.85,0.77465 8.3275,1.40883 9.95,1.40928 2.20723,6.1e-4 2.66312,0.2877 1.81063,1.14019 -0.76819,0.76819 -11.5025,1.40652 -32.95,1.95941 -17.49585,0.45103 -36.98563,1.34149 -43.31063,1.97881 -6.325,0.63732 -22.975,1.25288 -37,1.36791 -88.30395,0.72424 -215.35421,1.28986 -220,0.97943 z M 372,711 c 0,-0.55 -0.45,-1 -1,-1 -0.55,0 -1,0.45 -1,1 0,0.55 0.45,1 1,1 0.55,0 1,-0.45 1,-1 z m -21,-3.11891 c 1.375,-1.07474 3.2875,-2.21514 4.25,-2.53422 3.00861,-0.99737 1.93586,-3.06096 -3.25,-6.25185 -3.09833,-1.90642 -5,-3.78228 -5,-4.93214 0,-4.88627 -6.32947,-12.23706 -9.24228,-10.73361 -0.69175,0.35704 -2.3637,1.28212 -3.71544,2.05573 l -2.45773,1.40655 2.73335,1.03922 c 3.59339,1.3662 4.22153,3.31633 2.10745,6.54281 -3.43974,5.24972 -1.60806,10.54424 5.0713,14.6587 3.30484,2.03577 5.70186,1.72019 9.50335,-1.25119 z m 29.06957,-2.46491 c 0.92947,-1.11995 1.01763,-2.05439 0.301,-3.19048 -1.56507,-2.48115 -3.12381,-2.55529 -4.37987,-0.20832 -2.17625,4.06636 1.19408,6.87476 4.07887,3.3988 z m 25.359,-2.0868 c 5.28189,-3.4282 5.61467,-3.87399 5.03875,-6.75 C 409.32471,690.87336 408.87159,690 407.05377,690 c -0.99631,0 -4.4164,-1.56861 -7.60022,-3.48581 -8.07013,-4.85958 -9.1929,-5.08301 -12.66033,-2.51943 l -2.97839,2.20202 -2.89591,-2.77446 c -1.59275,-1.52595 -3.15656,-3.5957 -3.47514,-4.59945 -0.98209,-3.0943 -3.91192,-3.99869 -8.40806,-2.59546 -2.21964,0.69275 -4.03572,1.58415 -4.03572,1.98088 0,1.22635 3.72569,2.79093 6.68426,2.80702 4.84128,0.0263 5.54904,1.11453 5.16521,7.94171 l -0.34947,6.21604 8.46661,3.31331 c 4.65664,1.82232 8.65456,3.92088 8.88428,4.66347 1.50978,4.88067 4.26865,4.92345 11.57768,0.17954 z M 355.1875,677.31689 c -0.72188,-0.28887 -1.58438,-0.25335 -1.91667,0.0789 -0.33229,0.33229 0.25834,0.56864 1.3125,0.52522 1.16495,-0.048 1.4019,-0.28494 0.60417,-0.60416 z M 459,666.36789 c 0,-1.23742 0.45,-2.52797 1,-2.86789 0.55,-0.33992 1,-1.09658 1,-1.68146 0,-1.65954 -2.93554,1.15613 -4.63829,4.44888 -0.82853,1.6022 -1.21672,3.65998 -0.86264,4.57284 0.57936,1.49368 0.7867,1.46553 2.07235,-0.28139 C 458.35714,669.49125 459,667.60531 459,666.36789 z m 250.45729,1.56301 C 709.14086,667.41891 707.46852,667 705.74098,667 c -3.31674,0 -2.81415,1.47462 0.75902,2.227 2.4456,0.51496 3.72897,-0.0475 2.95729,-1.2961 z m -157.37557,-4.07353 c 2.09757,-0.62845 4.02656,-1.69715 4.28663,-2.37489 0.36008,-0.93834 -2.84745,-1.24595 -13.44774,-1.28966 -7.65634,-0.0316 -13.92061,0.31205 -13.92061,0.7636 0,1.13956 6.67028,2.283 9.00158,1.54308 1.05278,-0.33414 3.17061,0.0738 4.70628,0.90645 3.41606,1.85228 4.52065,1.90548 9.37386,0.45142 z M 480.03984,652.97968 C 482.21793,651.8685 484,650.73492 484,650.46062 c 0,-0.93066 -5.48528,0.77673 -8.5,2.64577 -4.21232,2.61152 -0.63165,2.51158 4.53984,-0.12671 z M 342.77749,639.4433 c 2.6738,-1.8728 2.8381,-3.15709 0.47251,-3.69339 -1.93829,-0.43943 -7.25,1.83846 -7.25,3.1091 0,2.51607 3.57898,2.82461 6.77749,0.58429 z m -13.1734,-1.92234 c 4.00792,-1.67462 3.69247,-3.86692 -0.41538,-2.88674 -3.02447,0.72167 -5.18871,2.17663 -5.18871,3.48822 0,1.25624 1.55819,1.089 5.60409,-0.60148 z M 346.5,629.01928 c 5.38464,-1.70069 6.62333,-2.33921 6.82722,-3.51928 0.35209,-2.0378 -4.43624,-1.58782 -7.21315,0.67784 -1.56538,1.27719 -3.69393,2.90621 -4.73011,3.62005 -2.01542,1.38846 -1.49389,1.30908 5.11604,-0.77861 z M 357,628 c 0,-0.55 -0.47656,-1 -1.05902,-1 -0.58246,0 -0.7809,0.45 -0.44098,1 0.33992,0.55 0.81648,1 1.05902,1 0.24254,0 0.44098,-0.45 0.44098,-1 z m 21,-5 c 0,-0.55 -0.47656,-1 -1.05902,-1 -0.58246,0 -0.7809,0.45 -0.44098,1 0.33992,0.55 0.81648,1 1.05902,1 0.24254,0 0.44098,-0.45 0.44098,-1 z m 438,111.45372 c 0,-0.22872 1.44658,-3.34937 3.21463,-6.93479 2.37419,-4.81459 3.74677,-6.52357 5.25,-6.5367 1.11945,-0.01 5.98143,-0.43297 10.8044,-0.94044 6.92879,-0.72906 9.81342,-0.61254 13.74573,0.55523 3.71877,1.10436 5.49038,1.20301 7.00897,0.39028 1.11776,-0.59821 1.77628,-1.50188 1.46338,-2.00816 -1.1223,-1.81592 4.76129,-2.22199 9.8543,-0.68011 6.46079,1.95597 14.13528,3.52519 23.15859,4.73526 20.9601,2.81088 29.60512,4.32209 31.13834,5.44321 1.57232,1.14971 1.5138,1.3767 -0.73473,2.85 -4.30433,2.82031 -19.85352,3.71569 -62.99689,3.62762 C 834.85802,734.90807 816,734.68244 816,734.45372 z m 74.91667,-3.09736 C 891.14583,731.16036 889.68333,731 887.66667,731 885.65,731 884,731.43875 884,731.975 c 0,0.86141 5.79185,0.34337 6.91667,-0.61864 z M 799,730.51039 c -2.58161,-0.98651 -6.91338,-1.1913 -16.5085,-0.78047 -10.43653,0.44686 -13.2197,0.28147 -14.07669,-0.83647 -2.83965,-3.70432 -18.98051,-45.66108 -17.95893,-46.68266 0.655,-0.655 30.54412,11.11298 30.54412,12.02587 0,0.4726 1.2375,1.93427 2.75,3.24816 2.49814,2.1701 2.62464,2.59401 1.38125,4.62862 -1.20201,1.96688 -1.14827,2.40095 0.44113,3.56314 0.99543,0.72788 2.42036,1.32342 3.1665,1.32342 0.74614,0 2.44288,1.1721 3.77053,2.60466 1.32766,1.43256 4.11475,3.18937 6.19353,3.90403 2.56429,0.88156 3.95683,2.05009 4.33077,3.6341 0.30313,1.2841 1.98352,3.30001 3.7342,4.47979 l 3.18304,2.14505 -2.98175,4.11619 c -3.30748,4.56585 -3.08563,4.49273 -7.9692,2.62657 z M 792,712 c 0,-0.55 -0.47656,-1 -1.05902,-1 -0.58246,0 -0.7809,0.45 -0.44098,1 0.33992,0.55 0.81648,1 1.05902,1 0.24254,0 0.44098,-0.45 0.44098,-1 z m 9,-1 c 0,-0.55 0.64844,-1 1.44098,-1 0.79254,0 1.7191,0.45 2.05902,1 0.33992,0.55 -0.30852,1 -1.44098,1 C 801.92656,712 801,711.55 801,711 z m 20,-3.46607 c 0,-0.80634 -0.76049,-3.06085 -1.68999,-5.01002 -2.24538,-4.70862 -0.88019,-6.19531 3.79361,-4.13121 1.86801,0.82497 6.89055,2.23128 11.1612,3.12513 4.27065,0.89385 7.5066,2.04301 7.19099,2.55368 -0.31562,0.51067 -3.23145,0.92849 -6.47964,0.92849 -4.88235,0 -6.09129,0.34659 -6.97617,2 -1.29502,2.41978 -7,2.85492 -7,0.53393 z M 802,703.5 c -1.925,-0.74131 -4.85,-1.38897 -6.5,-1.43923 -3.51109,-0.10697 -4.90309,-0.90271 -5.79156,-3.31077 -0.74796,-2.02725 0.30672,-2.17963 5.25783,-0.75967 2.27957,0.65377 3.78963,0.65377 4.4434,0 1.56801,-1.56801 6.30876,-1.16648 6.98334,0.59146 0.85208,2.22049 0.75708,6.43344 -0.14301,6.34213 -0.4125,-0.0418 -2.325,-0.68261 -4.25,-1.42392 z M 585.02945,682.53549 c -2.24862,-2.70943 -0.0384,-4.83429 6.56538,-6.3119 3.24784,-0.72671 8.15517,-1.9477 10.90517,-2.71333 11.45188,-3.18829 16.57059,-4.20505 17.07346,-3.3914 0.29323,0.47446 -1.06187,1.62327 -3.01133,2.5529 -3.27134,1.55999 -3.42394,1.82345 -1.98028,3.41868 1.80593,1.99553 1.3462,2.23684 -6.58185,3.45476 -2.475,0.38021 -5.72621,1.3188 -7.22492,2.08576 -1.49871,0.76695 -5.33655,1.66743 -8.52854,2.00106 -4.74366,0.49581 -6.06177,0.29554 -7.21709,-1.09653 z M 550.75,677.99522 c 1.2375,-0.51193 2.31854,-1.50777 2.40231,-2.213 0.0838,-0.70522 0.25687,-1.73222 0.38465,-2.28222 0.12779,-0.55 0.28425,-1.81046 0.34769,-2.80103 0.10456,-1.63255 5.37945,-4.69897 8.08323,-4.69897 0.56767,0 1.03212,1.6125 1.03212,3.58333 0,2.41572 0.40593,3.44803 1.24576,3.16808 0.68517,-0.22839 1.24767,-1.09868 1.25,-1.93397 0.002,-0.8353 1.53333,-2.80698 3.40222,-4.3815 4.63882,-3.90815 14.09966,-5.00132 20.91926,-2.41715 2.57552,0.97595 4.81349,2.41928 4.97326,3.20741 0.49644,2.44876 -11.81341,5.16378 -13.20483,2.91242 -0.85064,-1.37637 -10.90818,0.97506 -12.87463,3.01006 -0.98392,1.01822 -2.91225,1.85132 -4.28518,1.85132 -1.37292,0 -3.49289,0.62187 -4.71104,1.38192 -1.21815,0.76006 -4.23982,1.64341 -6.71482,1.963 -3.29297,0.4252 -3.89648,0.3314 -2.25,-0.3497 z m -422.2873,-1.05558 c -0.36044,-0.58319 -0.10933,-2.37855 0.55802,-3.98967 0.91859,-2.21767 1.73155,-2.8256 3.34632,-2.50239 6.65452,1.33196 7.63296,1.71652 7.63296,3.00004 0,2.5658 -3.0601,4.55238 -7.01241,4.55238 -2.12826,0 -4.16446,-0.47716 -4.52489,-1.06036 z m 145.79337,-22.87828 c -1.71886,-1.43405 -2.10905,-2.54648 -1.66752,-4.7541 0.40404,-2.02022 -0.0109,-3.60727 -1.38765,-5.30749 -1.58185,-1.9535 -1.7577,-2.87838 -0.90365,-4.75281 0.86479,-1.89801 1.57764,-2.21371 3.86443,-1.71145 2.25742,0.49581 3.28557,0.065 5.2742,-2.20982 2.25326,-2.57758 2.32534,-2.93577 0.82088,-4.07944 -1.19544,-0.90875 -1.3478,-1.55521 -0.55368,-2.34933 1.53488,-1.53488 4.9792,-0.2199 5.59533,2.1362 0.39282,1.50213 1.42255,1.98897 4.35797,2.06038 2.11399,0.0514 6.09362,0.20147 8.84362,0.33343 3.27544,0.15717 5.60359,-0.27344 6.75,-1.24849 1.7383,-1.47846 2.39107,-0.59831 0.98469,1.32769 -0.40408,0.55337 -5.00969,4.69117 -10.23469,9.19511 -5.225,4.50394 -10.68567,9.33868 -12.13483,10.74387 -3.09859,3.00458 -6.48602,3.22182 -9.6091,0.61625 z M 125,640 c 0,-0.55 0.45,-1 1,-1 0.55,0 1,0.45 1,1 0,0.55 -0.45,1 -1,1 -0.55,0 -1,-0.45 -1,-1 z m -4.92971,-3.25 c 0.0387,-0.6875 0.39734,-2.08113 0.79709,-3.09695 0.65717,-1.67 0.85277,-1.69517 2.04159,-0.26273 0.72313,0.87131 1.05356,2.26494 0.73429,3.09695 -0.69768,1.81813 -3.67273,2.0369 -3.57297,0.26273 z m 366.60317,0.59013 c -1.26526,-1.26527 -0.67622,-6.19451 0.93249,-7.80322 2.13159,-2.13159 4.61559,-0.19865 4.19461,3.26406 -0.30885,2.54036 -3.92469,5.74156 -5.1271,4.53916 z m -378.99583,-4.42987 c -3.32004,-5.07095 -3.33755,-6.24601 -0.13067,-8.76854 5.71847,-4.49815 12.45304,-3.1709 12.45304,2.45425 0,3.06721 -1.73084,3.95759 -3.89175,2.00199 -2.70437,-2.44742 -3.394,-1.93465 -2.66001,1.97784 0.6253,3.3331 -0.52616,6.4242 -2.39305,6.4242 -0.38496,0 -1.90486,-1.84038 -3.37756,-4.08974 z m 323.40132,0.67307 c -0.0434,-1.05416 0.19293,-1.64479 0.52522,-1.3125 0.33229,0.33229 0.36781,1.1948 0.0789,1.91667 -0.31922,0.79773 -0.55618,0.56078 -0.60416,-0.60417 z M 594,630.8588 c -2.475,-1.0636 -3.375,-1.67443 -2,-1.35739 1.375,0.31704 3.9625,0.8428 5.75,1.16835 1.7875,0.32556 3.25,0.98305 3.25,1.46108 0,1.26254 -1.9095,0.91554 -7,-1.27204 z M 444,629.5 c 0.68469,-0.825 1.97729,-1.48569 2.87244,-1.4682 1.36732,0.0267 1.31719,0.26656 -0.31357,1.5 -2.52654,1.91098 -4.15444,1.89075 -2.55887,-0.0318 z m 20,-6.39301 c 0,-0.49116 0.675,-1.15203 1.5,-1.46862 0.91371,-0.35062 1.5,-0.002 1.5,0.89301 0,0.80774 -0.675,1.46862 -1.5,1.46862 -0.825,0 -1.5,-0.40186 -1.5,-0.89301 z m 10.02006,-0.63116 c 0.69572,-0.83829 1.47088,-1.31823 1.72258,-1.06653 0.69349,0.6935 -0.71555,2.5907 -1.9241,2.5907 -0.6631,0 -0.58723,-0.57378 0.20152,-1.52417 z M 345.75,617.33772 c 0.6875,-0.27741 1.8125,-0.27741 2.5,0 0.6875,0.27741 0.125,0.50439 -1.25,0.50439 -1.375,0 -1.9375,-0.22698 -1.25,-0.50439 z M 407.24953,616.75 c 0.22891,-0.6875 1.26459,-1.4144 2.3015,-1.61534 1.6311,-0.31608 1.70455,-0.14754 0.54469,1.25 -1.5862,1.91126 -3.44015,2.14923 -2.84619,0.36534 z M 105,607.06355 c -2.78316,-1.6247 -13.325922,-3.13763 -14.397451,-2.0661 -1.697287,1.69729 -2.236132,1.23228 -7.239398,-6.24745 -2.66728,-3.9875 -7.209545,-10.4521 -10.093922,-14.36578 -2.884377,-3.91369 -6.58286,-10.40496 -8.218851,-14.42506 l -2.974528,-7.30927 4.746424,4.67506 C 69.432807,569.89623 72.477926,572 73.589205,572 77.007723,572 90,588.87957 90,593.32091 c 0,3.73422 8.168611,9.28349 11.18259,7.59678 1.28377,-0.71843 2.34458,-0.0399 4.81595,3.08046 3.00425,3.79318 2.5639,5.145 -0.99854,3.0654 z m 256,-3.00453 c 0,-1.86588 2.226,-2.2616 3.81025,-0.67734 C 366.30135,604.87277 366.21519,605 363.71429,605 362.22143,605 361,604.57656 361,604.05902 z m 153.66667,0.27431 c -2.49946,-2.49945 2.71851,-3.26559 5.8922,-0.86513 1.82423,1.37978 1.72534,1.47011 -1.6422,1.5 -1.97084,0.0175 -3.88334,-0.2682 -4.25,-0.63487 z M 506,601 c -2.05955,-0.65958 -2.14764,-0.8155 -0.5,-0.88501 1.1,-0.0464 2.675,0.35185 3.5,0.88501 1.75214,1.13232 0.53568,1.13232 -3,0 z m -51.32441,-14.45164 c -5.85659,-2.08856 -5.7306,-2.84046 0.39461,-2.35506 3.06362,0.24279 6.65125,1.19861 7.97251,2.12406 l 2.4023,1.68264 -3.4725,-0.0439 c -1.90988,-0.0241 -5.19349,-0.65763 -7.29692,-1.40775 z M 76.486512,569.2754 72.690482,564.5 l 4.355739,4.21569 c 2.395657,2.31862 4.103871,4.46755 3.796031,4.77539 -0.30784,0.30784 -2.267923,-1.58922 -4.35574,-4.21568 z M 68.872445,560.25 c -1.243871,-1.58606 -1.208501,-1.62143 0.377555,-0.37756 0.9625,0.75485 1.75,1.54235 1.75,1.75 0,0.82304 -0.821186,0.29331 -2.127555,-1.37244 z"
       style="fill:#303030" />
    <path
       inkscape:connector-curvature="0"
       id="path3012"
       d="m 389,732.98933 c -49.83221,-2.02531 -86.76755,-2.97698 -116.5,-3.00173 -22.38942,-0.0186 -35.30364,-0.46878 -43,-1.49882 -6.05,-0.80969 -15.50276,-1.4759 -21.00613,-1.48047 -15.16963,-0.0126 -44.82019,-4.0013 -47.16351,-6.34462 -0.31759,-0.31759 -0.289,-1.32908 0.0635,-2.24776 0.5439,-1.4174 1.56096,-1.56623 6.71679,-0.98292 3.34171,0.37807 7.27137,1.14925 8.73258,1.71373 5.44509,2.10349 26.49043,5.85396 32.95779,5.87337 3.68442,0.0111 9.49326,0.42431 12.90852,0.91833 3.82351,0.55308 9.58734,0.51944 15,-0.0875 4.83474,-0.54216 15.31543,-1.35252 23.29043,-1.80079 11.81317,-0.66402 15.98239,-1.32673 22.5,-3.57642 6.68515,-2.30753 9.8901,-2.79545 19.5,-2.96868 6.325,-0.11402 13.975,-0.71619 17,-1.33815 3.025,-0.62196 7.075,-1.07086 9,-0.99754 6.76747,0.25775 20.53057,-0.95642 23.3151,-2.05683 3.63215,-1.43539 8.12205,-1.4175 10.94847,0.0436 4.88757,2.52664 5.8009,2.84387 8.18768,2.84387 1.3896,0 2.91415,-0.81424 3.47031,-1.85344 0.85932,-1.60565 1.90014,-1.7889 7.78519,-1.37069 14.6708,1.04256 22.08277,0.5102 25.35702,-1.82128 2.16577,-1.54216 3.90284,-2.01127 5.93938,-1.60396 6.27191,1.25438 27.79846,-4.78181 33.88171,-9.50066 C 451.02143,697.41688 461,697.1852 461,699.54545 c 0,0.85 -1.125,2.67046 -2.5,4.04546 -2.88181,2.88181 -3.04691,3.40909 -1.06739,3.40909 0.78794,0 1.71826,-0.9 2.06739,-2 0.83029,-2.61601 5.08168,-2.70767 5.75729,-0.12413 0.31576,1.20749 1.69347,2.06706 3.86663,2.41243 1.85684,0.29511 5.85108,1.46128 8.87608,2.59148 3.1875,1.19093 8.02273,2.0774 11.5,2.10838 3.3,0.0294 12.075,0.97661 19.5,2.1049 31.54952,4.79424 41.92641,5.45306 43.58632,2.76727 0.29244,-0.47318 4.23476,-0.86033 8.7607,-0.86033 10.86105,0 28.68356,-2.29434 41.44403,-5.33521 8.25137,-1.96633 10.95917,-2.24734 13.66198,-1.41782 1.85401,0.56901 4.11009,0.75092 5.01351,0.40424 1.50247,-0.57655 1.48865,-0.84179 -0.16198,-3.10934 -1.92588,-2.64568 -5.1736,-3.21751 -8.4166,-1.48191 -3.57326,1.91235 -12.77851,2.94703 -15.43807,1.73525 C 595.33091,705.82974 594.04769,704 595.48957,704 c 0.26927,0 4.89431,-1.27667 10.27788,-2.83705 6.71158,-1.9453 11.23714,-3.94298 14.39765,-6.35545 2.53514,-1.93512 6.95998,-5.04155 9.83296,-6.90319 l 5.22362,-3.38478 -0.55474,-4.68388 c -0.41306,-3.48762 -0.16602,-5.00649 0.96726,-5.94703 1.08965,-0.90433 1.4288,-2.70127 1.1939,-6.32588 L 636.5,662.5 l 5.15916,0.3338 c 2.83754,0.18359 6.1425,-0.19247 7.34435,-0.83568 1.81393,-0.97078 2.55143,-0.83767 4.34084,0.78346 1.62881,1.47563 3.10663,1.83241 6.04671,1.4598 3.56781,-0.45216 6.87371,0.0451 19.60894,2.94961 2.475,0.56446 6.975,1.39734 10,1.85084 9.10029,1.36427 14.95188,2.81147 26.5,6.5539 13.71962,4.44615 15.88374,5.73917 15.06507,9.00105 -0.49368,1.96697 -0.12608,2.61962 1.91187,3.39445 C 735.23236,689.03884 735.8992,691 733.5,691 c -2.34854,0 -1.79804,1.21649 2.29192,5.06462 5.21692,4.90845 10.86534,19.8923 6.92939,18.38193 -0.70329,-0.26987 -2.08217,0.0968 -3.0642,0.81491 -1.6993,1.24256 -1.68234,1.43675 0.35127,4.02207 3.49704,4.44576 -0.49223,3.48949 -5.05451,-1.21163 -5.0409,-5.1943 -10.79896,-6.27588 -16.25941,-3.05413 -4.54439,2.68125 -23.68449,4.60055 -29.70689,2.97888 -5.49669,-1.4801 -16.32879,-0.37691 -21.26491,2.16572 l -4.22266,2.17513 3,0.70289 c 1.65,0.3866 5.60212,1.28604 8.78249,1.99877 7.26519,1.62813 6.17092,2.95269 -2.89461,3.50379 -3.78833,0.23029 -17.91288,1.11797 -31.38788,1.97263 -14.4661,0.91751 -29.20979,1.29863 -36,0.93058 -6.325,-0.34284 -33.775,-0.14565 -61,0.43819 -75.60829,1.62142 -132.34173,2.02587 -155,1.10498 z m 241.3951,-11.8196 c 1.06617,-1.72509 -5.06309,-3.30692 -13.51994,-3.48921 -13.57402,-0.29258 -29.18593,0.53719 -31.87516,1.69415 -2.16041,0.92946 -1.48122,1.14686 5,1.60044 14.48367,1.01364 39.8135,1.13567 40.3951,0.19462 z M 692.08179,714 c 1.5528,0 1.01521,-2.7488 -0.66358,-3.39301 C 689.42556,709.84234 686,709.81626 686,710.56574 c 0,1.92226 2.35993,4.51012 3.65848,4.01182 C 690.48628,714.2599 691.57677,714 692.08179,714 z M 705,710.13586 C 705,709.0009 697.08689,706 694.09412,706 c -2.03788,0 -2.16679,0.20751 -1.00128,1.61186 0.73575,0.88653 2.25335,1.983 3.37244,2.43662 2.73172,1.10727 8.53472,1.16668 8.53472,0.0874 z M 716.5,709.5 c 0,-0.55 -1.2375,-1.14239 -2.75,-1.31642 -2.63118,-0.30275 -3.54959,0.6835 -2.04115,2.19194 1.01023,1.01022 4.79115,0.31931 4.79115,-0.87552 z m -48.9309,-7.6118 c 0.76518,-1.2381 -1.25753,-2.85757 -3.5691,-2.85757 -2.31157,0 -4.33428,1.61947 -3.5691,2.85757 0.37792,0.61149 1.98402,1.1118 3.5691,1.1118 1.58508,0 3.19118,-0.50031 3.5691,-1.1118 z m 99.98863,23.22345 c -2.33775,-4.52073 -2.00432,-5.26934 2.19227,-4.92202 3.55993,0.29464 3.75,0.48777 3.75,3.81037 0,2.84078 -0.41291,3.55876 -2.19227,3.81199 -1.59333,0.22675 -2.61784,-0.511 -3.75,-2.70034 z M 889,727.11663 c 0,-1.06967 3.49808,-2.08435 7.25,-2.10298 3.31399,-0.0164 3.63896,1.51485 0.5,2.35606 -3.34963,0.89767 -7.75,0.75397 -7.75,-0.25308 z m -109.4215,-3.7885 C 777.95793,721.49766 776.2648,720 775.816,720 c -0.4488,0 -1.64754,-0.83154 -2.66386,-1.84786 -1.01633,-1.01633 -3.70479,-2.1448 -5.97436,-2.50772 -3.78597,-0.6054 -4.32906,-1.09245 -6.58126,-5.90214 C 759.2464,706.85903 757.8466,702.7 757.48586,700.5 l -0.65589,-4 2.65749,3.25 c 2.83359,3.46535 4.8904,3.94622 8.95596,2.09383 2.06303,-0.93998 3.28726,-0.81809 6.54705,0.65187 4.7912,2.16053 5.01857,3.47703 1.00953,5.84523 -1.65,0.97468 -3,2.11207 -3,2.52755 0,0.41547 1.3738,1.7711 3.0529,3.01251 1.67909,1.24141 3.52872,3.30141 4.11027,4.57779 1.86266,4.08809 11.78322,7.45197 14.36448,4.87072 C 796.41982,721.43733 796.40788,720 794.5,720 c -0.825,0 -1.5,-0.43588 -1.5,-0.96862 0,-0.53273 0.6817,-0.70702 1.5149,-0.38729 2.30071,0.88286 7.84342,6.33092 7.14821,7.02614 -0.33627,0.33626 -4.7799,0.69568 -9.87475,0.79871 l -9.26336,0.18732 -2.9465,-3.32813 z M 880.5,725 c 0.33992,-0.55 1.29303,-1 2.11803,-1 0.825,0 1.22189,0.45 0.88197,1 -0.33992,0.55 -1.29303,1 -2.11803,1 -0.825,0 -1.22189,-0.45 -0.88197,-1 z m -52.77158,-0.60491 C 826.63925,723.30592 827.95544,722 830.14235,722 c 1.17476,0 1.84965,0.52459 1.60812,1.25 -0.47547,1.428 -3.01588,2.15126 -4.02205,1.14509 z m -263.26736,-17.4581 c -1.30587,-2.11293 2.67803,-4.93756 6.94393,-4.92334 4.67125,0.0156 8.59501,0.89107 8.59501,1.91777 0,2.72213 -14.03622,5.43703 -15.53894,3.00557 z M 361.5814,703.76294 c -1.60523,-1.24462 -4.33718,-3.72544 -6.071,-5.51294 -1.73383,-1.7875 -3.68296,-3.25 -4.3314,-3.25 -1.43474,0 -1.56978,-2.64045 -0.179,-3.5 1.78822,-1.10518 1.05625,-2.5 -1.31194,-2.5 -1.39168,0 -3.16558,-1.15461 -4.45651,-2.90068 -1.17951,-1.59538 -4.19245,-3.68278 -6.69542,-4.63867 -3.46153,-1.32197 -4.2999,-2.04036 -3.50247,-3.00121 1.63957,-1.97556 5.78597,-2.62816 8.23686,-1.29639 1.22621,0.6663 8.44353,2.42875 16.03849,3.91655 7.59495,1.48779 14.0615,2.95757 14.37009,3.26617 1.23912,1.23912 -0.77213,5.65423 -2.57571,5.65423 -1.02217,0 -2.44578,0.70763 -3.16357,1.57251 -1.23024,1.48235 -0.92783,4.73895 1.15402,12.42749 0.66496,2.45578 -4.23896,2.30103 -7.51244,-0.23706 z M 384,705.17856 C 384,703.95041 386.27037,702 387.7,702 c 2.15006,0 1.46763,1.60259 -1.2,2.81805 -1.375,0.62649 -2.5,0.78872 -2.5,0.36051 z m 25.66667,0.15477 C 408.23309,703.89976 409.13285,703 412,703 c 3.2057,0 4.02995,1.39079 1.41821,2.39301 -2.03336,0.78028 -2.92579,0.76608 -3.75154,-0.0597 z m 410.99702,-1.8125 c -2.5026,-2.5026 -2.16085,-4.86243 0.60369,-4.16857 1.24705,0.31299 4.62205,1.07406 7.5,1.69127 5.64177,1.20995 7.03453,2.95647 2.35762,2.95647 -1.58125,0 -4.20759,0.26652 -5.83631,0.59226 -2.04621,0.40924 -3.47542,0.0781 -4.625,-1.07143 z m -65.05738,-9.10439 c -0.37373,-0.97391 -0.15024,-1.43108 0.58051,-1.1875 1.49484,0.49828 2.31789,2.77106 1.0035,2.77106 -0.53699,0 -1.24979,-0.7126 -1.58401,-1.58356 z M 381.84248,681.25 c -0.80713,-0.9625 -2.23257,-2.98036 -3.16764,-4.48412 -1.97261,-3.1723 -6.03074,-4.54533 -8.17484,-2.76588 -0.82484,0.68456 -2.5538,0.95233 -3.92573,0.608 -1.34843,-0.33844 -2.73084,-0.16369 -3.072,0.38833 -0.34117,0.55202 -1.5203,1.00367 -2.6203,1.00367 -1.13465,0 -1.72088,-0.45163 -1.3549,-1.0438 1.11223,-1.79963 -1.47588,-3.77402 -5.83464,-4.45108 -8.93836,-1.38842 -9.44212,-2.80902 -2.28925,-6.45576 3.56723,-1.81868 4.12212,-1.84728 8.30245,-0.42803 4.03948,1.37144 4.65033,1.36651 6.21579,-0.0502 C 366.87625,662.707 368.22607,662 368.92101,662 c 0.69494,0 2.4077,-0.9 3.80612,-2 3.36708,-2.64854 4.27287,-2.52271 4.27287,0.59362 0,1.71071 0.64936,2.76343 1.90755,3.09245 1.04915,0.27436 2.14257,1.39758 2.42982,2.49604 0.37338,1.4278 1.06487,1.825 2.4254,1.39318 1.3963,-0.44316 2.21606,0.0828 3.07826,1.97516 0.88555,1.94355 1.66606,2.42338 3.16706,1.94698 3.38158,-1.07327 2.40848,3.08559 -1.75809,7.5138 -2.0625,2.19202 -4.01776,3.98622 -4.34501,3.98713 -0.32726,9e-4 -1.25539,-0.78586 -2.06251,-1.74836 z m -75.25185,-4.75203 c -1.28117,-1.95531 -1.53475,-3.68777 -1.03124,-7.04544 0.36723,-2.44889 1.1791,-4.45084 1.80415,-4.44878 1.54409,0.005 4.86859,8.3343 4.46311,11.18186 -0.4591,3.22414 -3.22022,3.38886 -5.23602,0.31236 z m -173.76676,-2.08716 c 1.24789,-0.87406 2.95154,-1.32723 3.78589,-1.00706 2.42211,0.92944 0.56589,2.59625 -2.89128,2.59625 l -3.16349,0 2.26888,-1.58919 z m 199.8428,-5.07748 C 331.6293,668.29596 331.88283,665 333,665 c 0.55,0 1,1.125 1,2.5 0,2.61806 -0.23099,2.93567 -1.33333,1.83333 z m 0.97281,-6.02718 C 332.68647,662.35313 332.86691,660 333.89301,660 c 1.22681,0 2.21165,2.81728 1.2028,3.44079 -0.44927,0.27766 -1.10462,0.21707 -1.45633,-0.13464 z M 702,662.02999 c -3.025,-1.00506 -9.55,-3.04274 -14.5,-4.52818 -4.95,-1.48544 -13.5,-4.52936 -19,-6.76426 -5.5,-2.2349 -12.7,-4.84511 -16,-5.80047 -3.3,-0.95535 -11.625,-3.80084 -18.5,-6.32329 -16.00967,-5.87399 -73.88808,-23.18758 -87.34609,-26.12847 -7.02403,-1.53491 -10.49102,-4.12277 -4.15391,-3.10059 2.2,0.35486 7.375,1.13864 11.5,1.74174 6.63265,0.96972 10.1481,2.05242 16.17278,4.98092 5.11509,2.48636 16.03775,4.18985 25.82722,4.028 13.16833,-0.21772 34.95251,3.52839 55.31741,9.51263 5.55491,1.63232 5.71285,1.76748 3.5,2.99528 -1.27457,0.70721 -3.31408,1.30178 -4.53223,1.32126 -2.51359,0.0402 -4.54062,3.0041 -3.36048,4.91361 0.43184,0.69872 9.96294,4.54827 21.18023,8.55454 22.80739,8.1457 41.89507,15.50062 41.89507,16.14312 0,0.77342 -2.43667,0.30258 -8,-1.54584 z M 320.39139,660.4233 c -0.88615,-3.53073 1.01953,-7.23735 4.12117,-8.01581 1.41932,-0.35623 2.77979,-0.44848 3.02326,-0.20501 0.88161,0.88161 -2.73461,8.44058 -4.5933,9.60135 -1.65978,1.03655 -1.98922,0.85827 -2.55113,-1.38053 z M 635,659 c -0.79314,-0.49019 -1.11011,-1.22322 -0.70437,-1.62896 0.40574,-0.40574 1.2627,-0.21271 1.90437,0.42896 1.51091,1.51091 0.66759,2.35423 -1.2,1.2 z m -254,-0.44098 c 0,-0.24254 0.45,-0.7191 1,-1.05902 0.55,-0.33992 1,-0.14148 1,0.44098 0,0.58246 -0.45,1.05902 -1,1.05902 -0.55,0 -1,-0.19844 -1,-0.44098 z m 161.54194,-1.43315 c -1.46548,-0.59726 -0.59982,-0.95887 3.44115,-1.43746 4.94354,-0.58549 7.00549,-0.33445 5.93358,0.72241 -0.96108,0.94757 -7.56772,1.45149 -9.37473,0.71505 z M 342.00147,655.75 c -8.1e-4,-0.4125 0.69281,-0.75 1.54137,-0.75 0.84856,0 3.70773,-2.025 6.35371,-4.5 4.57093,-4.27558 9.1394,-5.86889 10.50273,-3.66297 0.82774,1.33932 -2.34322,5.16297 -4.28167,5.16297 -0.97294,0 -2.83035,1.12977 -4.12757,2.5106 -1.84517,1.96409 -3.18887,2.45387 -6.17285,2.25 -2.09784,-0.14333 -3.81492,-0.5981 -3.81572,-1.0106 z M 463,656.08889 C 463,654.75323 468.91469,650 470.57673,650 c 2.15219,0 1.72359,1.33809 -1.38145,4.31291 C 466.46465,656.92902 463,657.92222 463,656.08889 z m 37.03571,-0.48157 c 0.80536,-0.76597 2.58929,-1.68975 3.96429,-2.05285 l 2.5,-0.66018 -2.36078,2.05285 c -2.77471,2.41279 -6.59193,3.02691 -4.10351,0.66018 z M 522,656.51254 c 0,-1.06772 8.77084,-5.93428 13.97567,-7.7545 3.03838,-1.06257 6.31459,-2.64006 7.28046,-3.50553 0.96587,-0.86547 2.02343,-1.30628 2.35014,-0.97958 1.1279,1.12791 -0.62353,2.54495 -4.98036,4.02947 -2.40446,0.81928 -6.72943,3.1114 -9.61104,5.0936 C 526.48014,656.51535 522,658.06418 522,656.51254 z m -148.30902,-3.20352 c -0.30746,-0.49748 -0.19496,-1.49357 0.25,-2.21353 0.44496,-0.71996 1.06058,-0.90199 1.36804,-0.40451 0.30746,0.49748 0.19496,1.49357 -0.25,2.21353 -0.44496,0.71996 -1.06058,0.90199 -1.36804,0.40451 z m -98.48272,-1.04054 c -0.99218,-0.35561 -1.02176,-0.78827 -0.12755,-1.86573 1.28722,-1.55101 3.91929,-1.90371 3.91929,-0.52519 0,1.39746 -2.37869,2.89737 -3.79174,2.39092 z M 337,647.86467 C 337,646.07503 341.89971,642 344.05152,642 c 2.87235,0 2.38007,1.56903 -1.39591,4.44911 C 339.075,649.18017 337,649.69953 337,647.86467 z M 287.01531,645.25 c 0.0213,-3.81645 0.97459,-4.77523 4.73469,-4.76169 1.7875,0.006 3.25,0.13618 3.25,0.28834 0,0.73795 -6.42913,7.22335 -7.16068,7.22335 -0.46163,0 -0.83243,-1.2375 -0.82401,-2.75 z M 110,634.03896 c 0,-0.52858 -0.94088,-1.83762 -2.09085,-2.90898 -2.87202,-2.67569 -2.07967,-5.25751 2.3416,-7.62998 2.88983,-1.55069 4.12277,-1.7524 5.4882,-0.89787 C 117.7071,623.83387 118.73408,628 117.06955,628 116.4813,628 116,627.55 116,627 c 0,-1.62618 -3.73253,-1.13941 -4.38943,0.57244 -0.33187,0.86485 -0.1342,2.44915 0.43926,3.52067 C 113.12687,633.10558 112.5892,635 110.94098,635 110.42344,635 110,634.56753 110,634.03896 z M 547.66535,617.4926 c -2.65906,-0.73071 -5.09656,-1.59048 -5.41667,-1.91058 -1.16238,-1.16239 3.36858,-0.38375 8.25132,1.41798 5.80352,2.14149 4.18756,2.42231 -2.83465,0.4926 z M 90.678122,601.25 c -1.532809,-1.53242 -1.87265,-1.5635 -2.733289,-0.25 -1.500114,2.28946 -4.003098,-1.45868 -3.305006,-4.94914 0.421546,-2.10772 0.0012,-3.05602 -1.909336,-4.30788 C 78.346651,588.87058 77,586.91671 77,583.42857 77,581.54286 77.431789,580 77.959531,580 c 1.594083,0 6.061952,5.32997 6.706027,8 0.331683,1.375 1.164395,3.175 1.85047,4 0.686076,0.825 1.54887,2.49016 1.91732,3.70035 0.368451,1.21019 2.221677,3.15939 4.118281,4.33156 C 94.448233,601.20407 96,602.35142 96,602.58156 c 0,1.14891 -3.789049,0.20088 -5.321878,-1.33156 z M 71.070948,579.58549 c -0.745772,-0.8986 -1.059324,-1.93045 -0.696782,-2.29299 0.933928,-0.93393 2.931613,1.29016 2.451783,2.72965 -0.275808,0.82743 -0.817824,0.69257 -1.755001,-0.43666 z"
       style="fill:#0c0c0c" />
  </g>
</svg>
