<?xml version="1.0" encoding="UTF-8" standalone="no"?>
<!-- Created with Inkscape (http://www.inkscape.org/) -->

<svg
   xmlns:dc="http://purl.org/dc/elements/1.1/"
   xmlns:cc="http://creativecommons.org/ns#"
   xmlns:rdf="http://www.w3.org/1999/02/22-rdf-syntax-ns#"
   xmlns:svg="http://www.w3.org/2000/svg"
   xmlns="http://www.w3.org/2000/svg"
   xmlns:sodipodi="http://sodipodi.sourceforge.net/DTD/sodipodi-0.dtd"
   xmlns:inkscape="http://www.inkscape.org/namespaces/inkscape"
   width="1000"
   height="1000"
   id="svg2"
   version="1.1"
   inkscape:version="0.48+devel r custom"
   viewBox="0 0 744.09448 1052.3622"
   sodipodi:docname="test-powerstroke.svg">
  <defs id="defs4">
  </defs>
 <g
     inkscape:label="Layer 1"
     inkscape:groupmode="layer"
     id="layer1">
  <g id="themesh" transform="matrix(244.1215902 0 0 -244.1215902 -226.7344119 2572.596366)" 
   >  <g>
    <path  style="fill:#0000ff; fill-opacity:1; stroke:none; stroke-opacity:1;"  d="M 1.133559 7.013073 C 1.133586 7.023324 1.141940 7.031700 1.152191 7.031606 C 1.185814 7.031299 1.219593 7.028505 1.253159 7.030485 C 1.295699 7.032994 1.337790 7.042019 1.380295 7.045059 C 1.430228 7.048630 1.480786 7.055897 1.530535 7.050322 C 1.588430 7.043833 1.642418 7.012620 1.700573 7.009165 C 1.763408 7.005431 1.825608 7.028563 1.888553 7.029048 C 1.956072 7.029568 2.023105 7.013340 2.090616 7.012170 C 2.161918 7.010933 2.233239 7.021350 2.304550 7.021835 C 2.378650 7.022338 2.452876 7.015171 2.526978 7.015137 C 2.603056 7.015102 2.679291 7.023353 2.755349 7.021625 C 2.832453 7.019874 2.909210 7.004973 2.986334 7.004702 C 3.063547 7.004431 3.140504 7.018431 3.217702 7.020000 C 3.293709 7.021545 3.369953 7.016953 3.445919 7.014043 C 3.520008 7.011206 3.594152 7.004035 3.668284 7.002743 C 3.739497 7.001502 3.810985 7.009629 3.882138 7.006441 C 3.949742 7.003411 4.016455 6.984000 4.084127 6.984108 C 4.147193 6.984208 4.209082 7.005163 4.272119 7.007060 C 4.328936 7.008769 4.385693 6.999066 4.442381 6.994885 C 4.492351 6.991201 4.542325 6.982044 4.592410 6.983442 C 4.635182 6.984635 4.676733 7.000416 4.719464 7.002619 C 4.753081 7.004352 4.786683 6.993063 4.820278 6.995190 C 4.844924 6.996750 4.867670 7.010145 4.892130 7.013549 C 4.912531 7.016388 4.929534 6.996958 4.929616 6.976361 C 4.929699 6.955764 4.912851 6.936202 4.892428 6.938875 C 4.867894 6.942086 4.844977 6.955106 4.820282 6.956659 C 4.786618 6.958776 4.752892 6.947726 4.719223 6.949767 C 4.676483 6.952360 4.635098 6.968678 4.592317 6.970485 C 4.542246 6.972599 4.492126 6.964275 4.442088 6.961471 C 4.385319 6.958288 4.328366 6.949672 4.271579 6.952505 C 4.208583 6.955649 4.147134 6.977890 4.084076 6.979334 C 4.016418 6.980883 3.949293 6.962950 3.881634 6.961434 C 3.810423 6.959839 3.739133 6.969605 3.667906 6.970011 C 3.593761 6.970434 3.519466 6.965010 3.445327 6.963923 C 3.369311 6.962808 3.292976 6.960040 3.217026 6.963401 C 3.139886 6.966815 3.063287 6.982664 2.986088 6.984245 C 2.908981 6.985824 2.831890 6.972777 2.754767 6.972868 C 2.678690 6.972959 2.602676 6.983030 2.526619 6.984792 C 2.452540 6.986507 2.378170 6.981089 2.304104 6.983306 C 2.232826 6.985440 2.161764 6.997490 2.090456 6.997850 C 2.022941 6.998190 1.955575 6.983446 1.888088 6.985405 C 1.825172 6.987231 1.763465 7.011655 1.700573 7.009165 C 1.642377 7.006860 1.587824 6.976686 1.529839 6.971217 C 1.480039 6.966520 1.429659 6.974624 1.379821 6.978910 C 1.337406 6.982557 1.295471 6.992127 1.252997 6.995023 C 1.219473 6.997309 1.185694 6.994568 1.152092 6.994440 C 1.141841 6.994401 1.133531 7.002821 1.133559 7.013073 z " />
    <path  style="fill:#0000ff; fill-opacity:1; stroke:none; stroke-opacity:1;"  d="M 1.129844 7.109110 C 1.129876 7.121336 1.139865 7.130431 1.152066 7.131214 C 1.185768 7.133377 1.219317 7.139876 1.253087 7.140152 C 1.295447 7.140497 1.337752 7.132101 1.380103 7.133073 C 1.430339 7.134227 1.480342 7.150877 1.530402 7.146520 C 1.588453 7.141467 1.642231 7.107902 1.700438 7.105193 C 1.763520 7.102256 1.825321 7.129335 1.888469 7.129849 C 1.956117 7.130400 2.022900 7.111369 2.090484 7.108368 C 2.161635 7.105209 2.233122 7.112013 2.304340 7.111384 C 2.378440 7.110730 2.452662 7.104298 2.526765 7.104516 C 2.602868 7.104740 2.679055 7.112178 2.755156 7.112709 C 2.832137 7.113246 2.909361 7.104645 2.986283 7.107720 C 3.063695 7.110814 3.140327 7.128364 3.217749 7.131200 C 3.293723 7.133984 3.370155 7.130393 3.445956 7.124562 C 3.520304 7.118843 3.593896 7.103656 3.668124 7.096554 C 3.739095 7.089764 3.810505 7.081354 3.881784 7.082864 C 3.949609 7.084300 4.016472 7.102741 4.084262 7.105367 C 4.146758 7.107787 4.209412 7.099604 4.271934 7.097973 C 4.328648 7.096494 4.385643 7.099119 4.442292 7.096028 C 4.492432 7.093292 4.542180 7.077152 4.592283 7.080492 C 4.636005 7.083407 4.675677 7.111626 4.719402 7.114502 C 4.753468 7.116743 4.786040 7.097059 4.820143 7.095480 C 4.844328 7.094360 4.867889 7.104398 4.892008 7.106508 C 4.910840 7.108156 4.926338 7.091280 4.926413 7.072376 C 4.926489 7.053472 4.911127 7.036476 4.892282 7.037971 C 4.868086 7.039891 4.844393 7.049548 4.820148 7.048424 C 4.785950 7.046839 4.753156 7.027384 4.719016 7.029940 C 4.675273 7.033214 4.635898 7.061948 4.592176 7.065489 C 4.542111 7.069544 4.492103 7.054237 4.441908 7.052384 C 4.385198 7.050290 4.328243 7.054005 4.271496 7.053648 C 4.208941 7.053254 4.146116 7.046379 4.083673 7.050131 C 4.015949 7.054200 3.949501 7.074113 3.881719 7.077067 C 3.810490 7.080171 3.738907 7.073402 3.667797 7.068255 C 3.593420 7.062872 3.519488 7.049421 3.445022 7.045460 C 3.369100 7.041421 3.292600 7.039658 3.216710 7.044256 C 3.139377 7.048942 3.063187 7.068332 2.985870 7.073283 C 2.909044 7.078202 2.831637 7.071464 2.754691 7.073840 C 2.678626 7.076189 2.602639 7.085447 2.526564 7.087468 C 2.452489 7.089436 2.378138 7.084753 2.304044 7.085812 C 2.232833 7.086831 2.161521 7.095273 2.090319 7.093707 C 2.022692 7.092219 1.955516 7.074667 1.887902 7.076659 C 1.824785 7.078518 1.763560 7.106882 1.700438 7.105193 C 1.642205 7.103634 1.587818 7.071105 1.529703 7.067074 C 1.479608 7.063600 1.429925 7.081077 1.379744 7.082951 C 1.337461 7.084529 1.295107 7.076681 1.252801 7.077412 C 1.219074 7.077995 1.185599 7.084545 1.151948 7.086887 C 1.139751 7.087736 1.129811 7.096883 1.129844 7.109110 z " />
    <path  style="fill:#0000ff; fill-opacity:1; stroke:none; stroke-opacity:1;"  d="M 1.134233 7.222028 C 1.134258 7.231621 1.142083 7.238994 1.151669 7.239372 C 1.185318 7.240696 1.218988 7.244762 1.252663 7.244558 C 1.295009 7.244302 1.337314 7.238086 1.379661 7.237992 C 1.429723 7.237879 1.479839 7.245362 1.529881 7.243937 C 1.586782 7.242316 1.643235 7.228668 1.700159 7.228864 C 1.762981 7.229079 1.825290 7.245809 1.888109 7.245167 C 1.955720 7.244476 2.022542 7.226411 2.090139 7.224879 C 2.161457 7.223262 2.232761 7.236952 2.304087 7.235737 C 2.378350 7.234472 2.452174 7.220626 2.526380 7.217447 C 2.602329 7.214193 2.678647 7.215622 2.754661 7.216434 C 2.831690 7.217257 2.908904 7.220639 2.985919 7.222355 C 3.062915 7.224072 3.140156 7.228320 3.217156 7.226742 C 3.293245 7.225183 3.369201 7.214879 3.445281 7.212944 C 3.519362 7.211060 3.593703 7.215762 3.667806 7.215282 C 3.739005 7.214820 3.810360 7.210474 3.881559 7.210115 C 3.948920 7.209775 4.016462 7.213488 4.083822 7.213183 C 4.146347 7.212900 4.209016 7.206853 4.271524 7.208347 C 4.328458 7.209708 4.385075 7.222519 4.442020 7.221745 C 4.492298 7.221062 4.541793 7.207195 4.591974 7.203993 C 4.634158 7.201301 4.676657 7.205249 4.718910 7.204076 C 4.752548 7.203142 4.786132 7.198927 4.819759 7.197670 C 4.843702 7.196775 4.867751 7.197609 4.891710 7.197616 C 4.898576 7.197618 4.904178 7.192086 4.904206 7.185220 C 4.904233 7.178354 4.898675 7.172777 4.891810 7.172725 C 4.867818 7.172541 4.843738 7.172996 4.819762 7.172096 C 4.786088 7.170832 4.752430 7.166855 4.718738 7.166228 C 4.676443 7.165440 4.633966 7.169937 4.591715 7.167850 C 4.541466 7.165368 4.491721 7.152327 4.441411 7.152528 C 4.384441 7.152757 4.328052 7.166648 4.271136 7.169136 C 4.208660 7.171866 4.145870 7.167127 4.083343 7.168176 C 4.015984 7.169306 3.948532 7.174510 3.881174 7.175678 C 3.809979 7.176912 3.738540 7.174204 3.667345 7.175389 C 3.593247 7.176623 3.519034 7.183073 3.444927 7.182940 C 3.368821 7.182802 3.292638 7.174316 3.216533 7.174576 C 3.139516 7.174839 3.062399 7.180946 2.985465 7.184509 C 2.908513 7.188073 2.831404 7.193313 2.754416 7.195977 C 2.678444 7.198605 2.602182 7.201858 2.526179 7.200399 C 2.451922 7.198973 2.377797 7.186868 2.303527 7.187321 C 2.232196 7.187756 2.161227 7.203078 2.089895 7.203058 C 2.022288 7.203038 1.955094 7.186453 1.887492 7.187203 C 1.824683 7.187900 1.762743 7.205924 1.699947 7.207383 C 1.643051 7.208705 1.586363 7.196139 1.529455 7.195519 C 1.479417 7.194975 1.429453 7.203290 1.379417 7.203894 C 1.337108 7.204406 1.294766 7.198738 1.252455 7.198867 C 1.218808 7.198970 1.185189 7.203088 1.151576 7.204592 C 1.141993 7.205020 1.134207 7.212435 1.134233 7.222028 z " />
    <path  style="fill:#0000ff; fill-opacity:1; stroke:none; stroke-opacity:1;"  d="M 1.124589 7.350008 C 1.124628 7.364586 1.136529 7.377157 1.151085 7.376363 C 1.184752 7.374529 1.218326 7.369150 1.252038 7.368593 C 1.294365 7.367894 1.336777 7.373472 1.379101 7.372596 C 1.429176 7.371560 1.479185 7.365638 1.529194 7.362857 C 1.585893 7.359703 1.642750 7.354065 1.699532 7.354774 C 1.762240 7.355556 1.824761 7.369392 1.887440 7.367326 C 1.955189 7.365093 2.021649 7.343794 2.089409 7.341924 C 2.160788 7.339955 2.231985 7.356342 2.303389 7.355851 C 2.377630 7.355341 2.451465 7.340251 2.525696 7.338925 C 2.601798 7.337565 2.677980 7.347975 2.754094 7.347800 C 2.831110 7.347622 2.908146 7.337569 2.985162 7.337866 C 3.062291 7.338164 3.139360 7.348903 3.216488 7.349584 C 3.292517 7.350255 3.368687 7.344200 3.444686 7.341923 C 3.518747 7.339703 3.593093 7.339336 3.667116 7.336077 C 3.738336 7.332942 3.809491 7.322707 3.880780 7.322727 C 3.948322 7.322747 4.015928 7.329746 4.083162 7.336195 C 4.145982 7.342220 4.208047 7.359593 4.271152 7.360170 C 4.328234 7.360692 4.384583 7.345742 4.441322 7.339472 C 4.491205 7.333959 4.541136 7.325673 4.591315 7.324789 C 4.633725 7.324041 4.675918 7.333291 4.718315 7.334589 C 4.751891 7.335617 4.785700 7.334829 4.819151 7.331763 C 4.843407 7.329540 4.867077 7.322591 4.891130 7.318752 C 4.894195 7.318263 4.896766 7.316252 4.896779 7.313149 C 4.896791 7.310045 4.894236 7.308013 4.891175 7.307500 C 4.867105 7.303469 4.843459 7.296144 4.819155 7.293914 C 4.785642 7.290840 4.751746 7.290291 4.718119 7.291626 C 4.675706 7.293310 4.633605 7.303106 4.591159 7.302966 C 4.540955 7.302801 4.490883 7.295347 4.440893 7.290713 C 4.384029 7.285442 4.327376 7.271572 4.270292 7.273224 C 4.207195 7.275050 4.145481 7.293713 4.082788 7.301076 C 4.015703 7.308955 3.948267 7.317446 3.880738 7.318977 C 3.809466 7.320593 3.738095 7.311992 3.666820 7.310505 C 3.592739 7.308960 3.518403 7.310342 3.444307 7.309873 C 3.368274 7.309390 3.291980 7.305158 3.215986 7.307646 C 3.138897 7.310170 3.062107 7.322762 2.985006 7.324910 C 2.908020 7.327055 2.830766 7.318860 2.753768 7.320523 C 2.677672 7.322167 2.601760 7.334395 2.525648 7.334833 C 2.451408 7.335261 2.377242 7.321912 2.303011 7.323119 C 2.231616 7.324280 2.160813 7.342296 2.089409 7.341924 C 2.021629 7.341572 1.954722 7.321744 1.886946 7.320955 C 1.824245 7.320226 1.762032 7.335362 1.699360 7.337385 C 1.642612 7.339216 1.585663 7.334667 1.528927 7.332511 C 1.478899 7.330610 1.428825 7.325520 1.378761 7.325201 C 1.336466 7.324932 1.294161 7.331058 1.251865 7.330744 C 1.218173 7.330494 1.184597 7.325167 1.150945 7.323512 C 1.136384 7.322796 1.124550 7.335430 1.124589 7.350008 z " />
    <path  style="fill:#0000ff; fill-opacity:1; stroke:none; stroke-opacity:1;"  d="M 1.127026 7.491102 C 1.127060 7.503893 1.137496 7.514792 1.150275 7.514227 C 1.183920 7.512738 1.217570 7.509321 1.251228 7.508161 C 1.293504 7.506704 1.335945 7.506437 1.378246 7.506368 C 1.428258 7.506287 1.478431 7.509028 1.528425 7.507710 C 1.585217 7.506214 1.642011 7.500808 1.698750 7.497922 C 1.761231 7.494745 1.823897 7.491211 1.886436 7.489506 C 1.953754 7.487670 2.021353 7.484927 2.088655 7.487289 C 2.160098 7.489796 2.231183 7.504075 2.302670 7.504114 C 2.376906 7.504155 2.450898 7.492273 2.524982 7.487528 C 2.600909 7.482666 2.677060 7.473803 2.753129 7.475264 C 2.830503 7.476751 2.907197 7.494719 2.984568 7.496358 C 3.061582 7.497989 3.138606 7.486810 3.215618 7.485061 C 3.291623 7.483334 3.367893 7.485987 3.443918 7.485923 C 3.518006 7.485861 3.592333 7.486406 3.666401 7.484681 C 3.737609 7.483023 3.808954 7.478923 3.880111 7.475764 C 3.947429 7.472775 4.014900 7.463814 4.082242 7.466217 C 4.145289 7.468465 4.207164 7.488233 4.270236 7.489680 C 4.327134 7.490986 4.383660 7.477930 4.440466 7.474437 C 4.490369 7.471368 4.540678 7.473625 4.590542 7.469983 C 4.633003 7.466882 4.674864 7.452812 4.717414 7.454211 C 4.751888 7.455343 4.784112 7.473278 4.818348 7.477469 C 4.842130 7.480380 4.866311 7.475809 4.890266 7.475370 C 4.901926 7.475156 4.911444 7.465976 4.911491 7.454313 C 4.911537 7.442651 4.902093 7.433395 4.890435 7.433088 C 4.866423 7.432457 4.842196 7.427503 4.818353 7.430414 C 4.784074 7.434599 4.751918 7.452763 4.717414 7.454211 C 4.674867 7.455995 4.632839 7.442470 4.590327 7.439978 C 4.540398 7.437050 4.490112 7.440144 4.440145 7.437954 C 4.383268 7.435461 4.326484 7.423488 4.269605 7.425920 C 4.206564 7.428615 4.145099 7.449668 4.082104 7.453260 C 4.014825 7.457096 3.947174 7.449628 3.879802 7.448146 C 3.808588 7.446580 3.737163 7.444118 3.665931 7.444107 C 3.591840 7.444095 3.517543 7.446390 3.443471 7.448077 C 3.367464 7.449809 3.291277 7.454284 3.215251 7.454375 C 3.138219 7.454466 3.060949 7.445145 2.983995 7.448624 C 2.906686 7.452119 2.830446 7.471929 2.753129 7.475264 C 2.677118 7.478543 2.600777 7.471503 2.524757 7.468435 C 2.450584 7.465441 2.376338 7.455304 2.302126 7.457062 C 2.230662 7.458754 2.159925 7.474659 2.088559 7.478765 C 2.021329 7.482633 1.953686 7.481383 1.886346 7.480982 C 1.823788 7.480609 1.761066 7.478382 1.698537 7.476442 C 1.641764 7.474680 1.584890 7.470360 1.528092 7.469863 C 1.478101 7.469425 1.428000 7.473000 1.378012 7.473635 C 1.335743 7.474172 1.293328 7.474454 1.251070 7.473381 C 1.217424 7.472528 1.183782 7.469163 1.150151 7.467854 C 1.137370 7.467356 1.126992 7.478311 1.127026 7.491102 z " />
    <path  style="fill:#0000ff; fill-opacity:1; stroke:none; stroke-opacity:1;"  d="M 1.125716 7.643474 C 1.125751 7.656453 1.136336 7.666468 1.149306 7.666939 C 1.182963 7.668161 1.216633 7.672002 1.250312 7.672126 C 1.292637 7.672281 1.335163 7.671296 1.377342 7.667775 C 1.427512 7.663588 1.477163 7.652888 1.527358 7.649000 C 1.583951 7.644617 1.640975 7.644767 1.697708 7.642963 C 1.760210 7.640976 1.822894 7.636751 1.885422 7.637615 C 1.952896 7.638548 2.020302 7.648059 2.087783 7.648355 C 2.159013 7.648667 2.230312 7.641819 2.301503 7.639437 C 2.375558 7.636960 2.449850 7.632901 2.523941 7.633763 C 2.600087 7.634649 2.676360 7.639927 2.752363 7.644683 C 2.829498 7.649510 2.906482 7.661870 2.983765 7.662538 C 3.060829 7.663205 3.137771 7.651606 3.214783 7.648684 C 3.290744 7.645802 3.367107 7.648884 3.443029 7.645114 C 3.517220 7.641430 3.591105 7.629782 3.665307 7.626312 C 3.736426 7.622987 3.807908 7.624939 3.879104 7.624726 C 3.946449 7.624524 4.014178 7.620119 4.081342 7.625066 C 4.144498 7.629718 4.206103 7.655998 4.269379 7.653474 C 4.327693 7.651147 4.381121 7.614613 4.439356 7.610783 C 4.489809 7.607465 4.539210 7.628835 4.589645 7.632413 C 4.631805 7.635405 4.674563 7.635263 4.716554 7.630450 C 4.750854 7.626519 4.783177 7.611000 4.817382 7.606313 C 4.841136 7.603058 4.865405 7.606619 4.889380 7.606771 C 4.889474 7.606772 4.889551 7.606695 4.889552 7.606601 C 4.889552 7.606507 4.889476 7.606430 4.889382 7.606430 C 4.865406 7.606391 4.841136 7.609569 4.817382 7.606313 C 4.783148 7.601621 4.750700 7.586333 4.716336 7.582714 C 4.674261 7.578282 4.631441 7.578693 4.589286 7.582290 C 4.538891 7.586590 4.489837 7.608779 4.439317 7.606350 C 4.381010 7.603547 4.326885 7.568041 4.268523 7.566869 C 4.205193 7.565597 4.144123 7.593156 4.081065 7.599153 C 4.014019 7.605530 3.946208 7.602621 3.878871 7.603927 C 3.807686 7.605307 3.736265 7.608898 3.665086 7.607219 C 3.590821 7.605467 3.516681 7.595560 3.442421 7.593630 C 3.366429 7.591654 3.290158 7.596560 3.214148 7.595495 C 3.137087 7.594414 3.059888 7.584671 2.982861 7.587187 C 2.905617 7.589709 2.828953 7.603919 2.751956 7.610588 C 2.676089 7.617159 2.599964 7.624259 2.523860 7.626943 C 2.449811 7.629555 2.375444 7.627245 2.301354 7.626481 C 2.230129 7.625746 2.158696 7.620536 2.087493 7.622442 C 2.020038 7.624248 1.952859 7.635245 1.885422 7.637615 C 1.822927 7.639812 1.760169 7.636894 1.697641 7.636144 C 1.640887 7.635463 1.583877 7.636703 1.527220 7.633316 C 1.476984 7.630312 1.427184 7.620440 1.376978 7.616971 C 1.334800 7.614056 1.292322 7.613619 1.250048 7.614160 C 1.216408 7.614590 1.182794 7.618483 1.149181 7.619884 C 1.136213 7.620425 1.125681 7.630496 1.125716 7.643474 z " />
    <path  style="fill:#0000ff; fill-opacity:1; stroke:none; stroke-opacity:1;"  d="M 1.125290 7.805235 C 1.125323 7.817838 1.135593 7.828038 1.148196 7.828020 C 1.181823 7.827971 1.215550 7.828024 1.249177 7.827921 C 1.291481 7.827791 1.333985 7.829807 1.376217 7.827321 C 1.426367 7.824370 1.476023 7.812083 1.526257 7.811615 C 1.583201 7.811084 1.639880 7.826249 1.696794 7.824331 C 1.759746 7.822209 1.821480 7.803928 1.884315 7.799548 C 1.951494 7.794864 2.019189 7.796755 2.086529 7.797161 C 2.157767 7.797589 2.229169 7.802709 2.300405 7.802052 C 2.374520 7.801369 2.448686 7.793425 2.522804 7.793138 C 2.598891 7.792844 2.675112 7.798678 2.751182 7.800308 C 2.828165 7.801959 2.905400 7.803289 2.982401 7.802990 C 3.059381 7.802691 3.136559 7.799604 3.213532 7.798513 C 3.289540 7.797435 3.365782 7.796570 3.441798 7.796477 C 3.515897 7.796387 3.590295 7.801423 3.664313 7.797962 C 3.735725 7.794624 3.806397 7.775072 3.877879 7.776088 C 3.945949 7.777056 4.012480 7.799495 4.080415 7.803876 C 4.142801 7.807900 4.205641 7.799525 4.268133 7.801256 C 4.325033 7.802833 4.381972 7.819487 4.438610 7.813802 C 4.490389 7.808605 4.536320 7.769519 4.588357 7.769114 C 4.633012 7.768767 4.671633 7.803474 4.715534 7.811648 C 4.748512 7.817789 4.782753 7.812937 4.816269 7.811550 C 4.840292 7.810556 4.864116 7.805747 4.888128 7.804506 C 4.908041 7.803478 4.924337 7.788446 4.924416 7.768507 C 4.924496 7.748568 4.908321 7.733404 4.888417 7.732219 C 4.864304 7.730784 4.840413 7.725600 4.816278 7.724600 C 4.782627 7.723206 4.748194 7.718584 4.715140 7.725040 C 4.671272 7.733608 4.633053 7.768821 4.588357 7.769114 C 4.536300 7.769455 4.489727 7.731142 4.437845 7.726855 C 4.381089 7.722167 4.324438 7.739908 4.267553 7.742610 C 4.205092 7.745578 4.142077 7.738515 4.079775 7.743867 C 4.011943 7.749695 3.945916 7.773598 3.877879 7.776088 C 3.806436 7.778704 3.735335 7.760779 3.663864 7.759093 C 3.589782 7.757345 3.515519 7.764131 3.441435 7.765791 C 3.365438 7.767493 3.289195 7.768451 3.213182 7.769190 C 3.136204 7.769939 3.058974 7.768711 2.982008 7.770259 C 2.905023 7.771807 2.827843 7.774997 2.750921 7.778487 C 2.674912 7.781935 2.598852 7.789589 2.522780 7.791092 C 2.448677 7.792556 2.374346 7.786360 2.300235 7.787391 C 2.229004 7.788382 2.157739 7.795138 2.086529 7.797161 C 2.019215 7.799073 1.951575 7.802458 1.884312 7.799207 C 1.821404 7.796166 1.759313 7.779176 1.696338 7.778301 C 1.639408 7.777509 1.583038 7.793755 1.526104 7.794225 C 1.475888 7.794640 1.426053 7.783182 1.375885 7.780949 C 1.333662 7.779069 1.291231 7.781633 1.248967 7.781889 C 1.215370 7.782092 1.181672 7.782197 1.148074 7.782328 C 1.135472 7.782377 1.125256 7.792632 1.125290 7.805235 z " />
    <path  style="fill:#0000ff; fill-opacity:1; stroke:none; stroke-opacity:1;"  d="M 1.123729 7.974510 C 1.123763 7.987301 1.134188 7.997435 1.146977 7.997635 C 1.180612 7.998163 1.214340 7.999121 1.247969 7.999923 C 1.290286 8.000933 1.332733 8.004314 1.375044 8.003074 C 1.425143 8.001606 1.475076 7.994318 1.525134 7.991800 C 1.581820 7.988949 1.638855 7.990404 1.695508 7.986957 C 1.758117 7.983146 1.820431 7.972465 1.883108 7.970016 C 1.950412 7.967385 2.018017 7.971066 2.085369 7.971720 C 2.156581 7.972411 2.228001 7.974099 2.299217 7.974054 C 2.373306 7.974008 2.447603 7.971819 2.521691 7.971448 C 2.597713 7.971068 2.673976 7.970536 2.749989 7.971799 C 2.827030 7.973079 2.904256 7.976431 2.981263 7.979084 C 3.058290 7.981738 3.135540 7.990826 3.212551 7.987733 C 3.288937 7.984665 3.364314 7.966730 3.440518 7.960637 C 3.514399 7.954730 3.588798 7.952117 3.662914 7.951723 C 3.734173 7.951345 3.805547 7.958825 3.876805 7.958320 C 3.944188 7.957842 4.011551 7.948783 4.078935 7.948772 C 4.141571 7.948762 4.204156 7.958339 4.266792 7.958256 C 4.323596 7.958181 4.380281 7.947952 4.437085 7.948298 C 4.487260 7.948604 4.537201 7.957303 4.587294 7.960211 C 4.629518 7.962662 4.671950 7.963629 4.714239 7.964385 C 4.747804 7.964986 4.781487 7.963654 4.815051 7.964287 C 4.839009 7.964739 4.862981 7.966943 4.886933 7.967643 C 4.903479 7.968127 4.916993 7.954310 4.917059 7.937757 C 4.917125 7.921204 4.903722 7.907280 4.887173 7.907631 C 4.863146 7.908141 4.839085 7.909965 4.815057 7.910412 C 4.781409 7.911038 4.747637 7.909944 4.713995 7.910852 C 4.671672 7.911994 4.629209 7.913509 4.586981 7.916566 C 4.536918 7.920190 4.487112 7.929720 4.436932 7.930909 C 4.380134 7.932254 4.323258 7.923111 4.266454 7.924160 C 4.203823 7.925316 4.141443 7.936196 4.078816 7.937521 C 4.011443 7.938945 3.943894 7.931376 3.876515 7.932407 C 3.805261 7.933496 3.734074 7.942612 3.662823 7.943881 C 3.588717 7.945202 3.514278 7.944340 3.440276 7.940180 C 3.363948 7.935888 3.288163 7.919761 3.211724 7.918519 C 3.134660 7.917267 3.057649 7.928213 2.980707 7.932714 C 2.903786 7.937213 2.826664 7.942424 2.749675 7.945545 C 2.673715 7.948625 2.597462 7.949916 2.521454 7.951331 C 2.447379 7.952711 2.373053 7.952270 2.298984 7.953938 C 2.227788 7.955540 2.156428 7.958866 2.085251 7.961150 C 2.017931 7.963311 1.950423 7.968484 1.883079 7.967288 C 1.820369 7.966174 1.757852 7.956795 1.695184 7.954224 C 1.638488 7.951898 1.581503 7.954443 1.524789 7.952589 C 1.474722 7.950952 1.424707 7.944496 1.374619 7.943745 C 1.332343 7.943111 1.289993 7.947041 1.247735 7.948436 C 1.214146 7.949544 1.180453 7.950555 1.146854 7.951262 C 1.134066 7.951531 1.123695 7.961719 1.123729 7.974510 z " />
    <path  style="fill:#0000ff; fill-opacity:1; stroke:none; stroke-opacity:1;"  d="M 1.117993 8.149431 C 1.118034 8.164667 1.130466 8.177672 1.145686 8.176977 C 1.179342 8.175440 1.212969 8.171359 1.246646 8.170400 C 1.288934 8.169195 1.331460 8.167929 1.373687 8.170482 C 1.423961 8.173521 1.473765 8.190631 1.524010 8.187167 C 1.581956 8.183173 1.636130 8.152448 1.694072 8.148397 C 1.756663 8.144022 1.819250 8.161331 1.881989 8.162143 C 1.949362 8.163016 2.016776 8.154782 2.084142 8.153448 C 2.155333 8.152039 2.226791 8.155788 2.297971 8.153907 C 2.372100 8.151949 2.446187 8.142912 2.520336 8.141924 C 2.596400 8.140911 2.672647 8.146215 2.748700 8.147901 C 2.825696 8.149609 2.903022 8.148194 2.979937 8.152118 C 3.057169 8.156058 3.134066 8.174095 3.211354 8.171507 C 3.288071 8.168938 3.362675 8.142368 3.439229 8.136740 C 3.513130 8.131307 3.587650 8.139079 3.661747 8.138395 C 3.732947 8.137739 3.804292 8.132726 3.875496 8.132717 C 3.942885 8.132709 4.010406 8.139326 4.077789 8.138343 C 4.140379 8.137429 4.202833 8.127558 4.265428 8.127028 C 4.322256 8.126547 4.379110 8.137745 4.435888 8.135312 C 4.486309 8.133151 4.535393 8.111672 4.585834 8.113297 C 4.629380 8.114701 4.670005 8.136948 4.712959 8.144239 C 4.746145 8.149872 4.780093 8.152710 4.813746 8.151983 C 4.837984 8.151459 4.861505 8.142812 4.885638 8.140506 C 4.900993 8.139040 4.913649 8.128082 4.913710 8.112658 C 4.913772 8.097234 4.901204 8.086171 4.885862 8.084586 C 4.861646 8.082084 4.838094 8.073064 4.813755 8.072534 C 4.779989 8.071800 4.745916 8.074871 4.712670 8.080817 C 4.669752 8.088493 4.629386 8.111271 4.585834 8.113297 C 4.535412 8.115644 4.485983 8.094987 4.435522 8.093713 C 4.378698 8.092279 4.322051 8.104563 4.265212 8.105206 C 4.202611 8.105915 4.139960 8.097347 4.077356 8.097768 C 4.009962 8.098221 3.942596 8.106327 3.875217 8.107827 C 3.804028 8.109412 3.732584 8.106037 3.661384 8.107027 C 3.587289 8.108058 3.512970 8.117581 3.438959 8.113895 C 3.362292 8.110077 3.287074 8.085297 3.210315 8.084563 C 3.132985 8.083823 3.056542 8.103706 2.979426 8.109498 C 2.902628 8.115267 2.825290 8.115714 2.748357 8.119261 C 2.672368 8.122765 2.596269 8.129890 2.520203 8.130673 C 2.446054 8.131437 2.371777 8.124146 2.297624 8.123903 C 2.226422 8.123669 2.155073 8.129056 2.083871 8.129240 C 2.016498 8.129414 1.948927 8.122671 1.881593 8.124978 C 1.818891 8.127127 1.756675 8.145738 1.694015 8.142601 C 1.636021 8.139697 1.581296 8.110014 1.523306 8.107040 C 1.473039 8.104462 1.423562 8.122396 1.373370 8.126155 C 1.331221 8.129313 1.288711 8.128597 1.246452 8.127777 C 1.212794 8.127125 1.179176 8.123095 1.145539 8.121738 C 1.130315 8.121124 1.117953 8.134195 1.117993 8.149431 z " />
    <path  style="fill:#0000ff; fill-opacity:1; stroke:none; stroke-opacity:1;"  d="M 1.112884 8.328106 C 1.112930 8.345412 1.127078 8.358131 1.144337 8.359393 C 1.178107 8.361861 1.211527 8.370492 1.245386 8.370717 C 1.287811 8.370999 1.329988 8.361136 1.372413 8.360911 C 1.422529 8.360644 1.472666 8.372423 1.522682 8.369242 C 1.580032 8.365595 1.635871 8.348019 1.692846 8.340531 C 1.755074 8.332353 1.817756 8.325526 1.880432 8.322226 C 1.947681 8.318686 2.015351 8.317537 2.082648 8.320009 C 2.154107 8.322634 2.225248 8.334019 2.296669 8.337516 C 2.370702 8.341142 2.445118 8.342964 2.519223 8.341388 C 2.595306 8.339770 2.671257 8.328162 2.747357 8.327930 C 2.824495 8.327696 2.901587 8.342336 2.978689 8.339989 C 3.056024 8.337635 3.132261 8.317166 3.209561 8.313860 C 3.285569 8.310610 3.361870 8.318659 3.437928 8.320349 C 3.512025 8.321995 3.586447 8.320139 3.660467 8.323880 C 3.731910 8.327490 3.802976 8.344324 3.874484 8.342410 C 3.942414 8.340591 4.008794 8.319767 4.076384 8.312746 C 4.138640 8.306279 4.201475 8.299911 4.264032 8.301942 C 4.321297 8.303802 4.377635 8.318426 4.434621 8.324376 C 4.484491 8.329584 4.535003 8.341404 4.584787 8.335437 C 4.629149 8.330119 4.666776 8.291397 4.711455 8.291193 C 4.748015 8.291026 4.776033 8.330523 4.812387 8.334399 C 4.837578 8.337085 4.859687 8.315552 4.884318 8.309624 C 4.894193 8.307248 4.902764 8.301442 4.902804 8.291285 C 4.902845 8.281128 4.894323 8.275247 4.884465 8.272799 C 4.859775 8.266667 4.837694 8.244759 4.812397 8.247449 C 4.775968 8.251322 4.748089 8.291026 4.711455 8.291193 C 4.666746 8.291397 4.628628 8.253172 4.584164 8.248489 C 4.534258 8.243233 4.483884 8.255893 4.434072 8.261979 C 4.377185 8.268930 4.321122 8.284630 4.263890 8.287622 C 4.201380 8.290890 4.138427 8.285834 4.076043 8.280695 C 4.008308 8.275116 3.941475 8.255763 3.873511 8.255465 C 3.801969 8.255152 3.731296 8.273611 3.659947 8.278873 C 3.586029 8.284325 3.511582 8.284221 3.437542 8.287617 C 3.361544 8.291103 3.285455 8.300973 3.209390 8.299540 C 3.132032 8.298083 3.055327 8.279456 2.977957 8.278958 C 2.900821 8.278461 2.824103 8.294954 2.746982 8.296562 C 2.670900 8.298149 2.594697 8.288361 2.518598 8.288540 C 2.444481 8.288714 2.370133 8.292288 2.296208 8.297624 C 2.224888 8.302772 2.154028 8.315786 2.082648 8.320009 C 2.015424 8.323987 1.947741 8.324333 1.880432 8.322226 C 1.817705 8.320263 1.754895 8.314745 1.692523 8.307798 C 1.635433 8.301440 1.579299 8.284934 1.521917 8.282296 C 1.471895 8.279996 1.422000 8.292606 1.371927 8.293057 C 1.329571 8.293439 1.287347 8.284122 1.244994 8.284791 C 1.211193 8.285324 1.177872 8.294006 1.144170 8.296653 C 1.126918 8.298008 1.112838 8.310801 1.112884 8.328106 z " />
    <path  style="fill:#0000ff; fill-opacity:1; stroke:none; stroke-opacity:1;"  d="M 1.115418 8.508639 C 1.115459 8.523781 1.127830 8.535035 1.142940 8.536015 C 1.176666 8.538201 1.210178 8.545788 1.243974 8.545634 C 1.286415 8.545441 1.328541 8.534523 1.370980 8.534976 C 1.421234 8.535512 1.471075 8.550770 1.521285 8.548592 C 1.578635 8.546105 1.634439 8.527697 1.691460 8.521074 C 1.753697 8.513845 1.816446 8.508219 1.879091 8.507031 C 1.946487 8.505753 2.014011 8.512446 2.081408 8.513680 C 2.152604 8.514983 2.224036 8.515000 2.295243 8.514650 C 2.369332 8.514285 2.443640 8.509970 2.517713 8.511532 C 2.593885 8.513138 2.669970 8.524362 2.746158 8.524158 C 2.823226 8.523952 2.900119 8.509211 2.977180 8.510304 C 3.054537 8.511401 3.131247 8.531439 3.208609 8.530716 C 3.284972 8.530001 3.360598 8.513437 3.436602 8.506006 C 3.510546 8.498777 3.584612 8.488888 3.658876 8.486693 C 3.730101 8.484589 3.801517 8.494325 3.872764 8.493119 C 3.940199 8.491977 4.007427 8.481254 4.074853 8.479651 C 4.137390 8.478164 4.200107 8.484439 4.262659 8.483850 C 4.319430 8.483315 4.376219 8.475178 4.432982 8.476278 C 4.483211 8.477252 4.532990 8.488943 4.583215 8.490066 C 4.625539 8.491013 4.668034 8.477881 4.710118 8.482477 C 4.745200 8.486308 4.775935 8.510959 4.811001 8.514942 C 4.835161 8.517687 4.858697 8.504605 4.882883 8.502102 C 4.899536 8.500379 4.913285 8.488617 4.913352 8.471876 C 4.913419 8.455135 4.899764 8.443259 4.883126 8.441408 C 4.858849 8.438707 4.835282 8.425246 4.811010 8.427992 C 4.775854 8.431970 4.745155 8.456843 4.710020 8.460995 C 4.667955 8.465967 4.625293 8.453393 4.582963 8.454946 C 4.532747 8.456789 4.483153 8.469306 4.432937 8.471164 C 4.376199 8.473263 4.319265 8.466213 4.262490 8.466801 C 4.199936 8.467450 4.137360 8.475031 4.074802 8.474877 C 4.007354 8.474711 3.939905 8.465474 3.872459 8.465842 C 3.801200 8.466231 3.730023 8.477603 3.658765 8.477146 C 3.584469 8.476670 3.510190 8.468527 3.436095 8.463046 C 3.359934 8.457412 3.283931 8.442661 3.207570 8.443772 C 3.130211 8.444897 3.054003 8.466777 2.976693 8.469730 C 2.899682 8.472671 2.822458 8.459786 2.745408 8.461422 C 2.669239 8.463039 2.593445 8.476077 2.517335 8.479482 C 2.443322 8.482793 2.368936 8.480228 2.294861 8.481577 C 2.223668 8.482873 2.152260 8.484529 2.081114 8.487426 C 2.013765 8.490168 1.946405 8.498349 1.879000 8.498507 C 1.816350 8.498654 1.753498 8.494339 1.691136 8.488341 C 1.634017 8.482848 1.577904 8.465511 1.520541 8.464032 C 1.470338 8.462738 1.420791 8.478823 1.370587 8.480079 C 1.328216 8.481139 1.286017 8.470767 1.243633 8.470960 C 1.209884 8.471114 1.176461 8.478752 1.142794 8.481117 C 1.127689 8.482178 1.115378 8.493497 1.115418 8.508639 z " />
    <path  style="fill:#0000ff; fill-opacity:1; stroke:none; stroke-opacity:1;"  d="M 1.121192 8.689163 C 1.121222 8.700355 1.130381 8.708467 1.141535 8.709398 C 1.175270 8.712213 1.208721 8.721610 1.242562 8.720722 C 1.285211 8.719602 1.326933 8.706182 1.369507 8.703414 C 1.419405 8.700171 1.469665 8.703283 1.519666 8.702711 C 1.576410 8.702061 1.633342 8.697740 1.690055 8.699742 C 1.752817 8.701958 1.815201 8.715950 1.878000 8.715363 C 1.945583 8.714732 2.012516 8.698903 2.080043 8.696098 C 2.151196 8.693143 2.222684 8.696995 2.293890 8.698091 C 2.368012 8.699232 2.442324 8.702430 2.516454 8.702816 C 2.592470 8.703212 2.668805 8.704363 2.744721 8.700439 C 2.821846 8.696453 2.898424 8.679071 2.975652 8.679084 C 3.053052 8.679097 3.129701 8.701559 3.207094 8.700519 C 3.283553 8.699491 3.358722 8.677424 3.435055 8.672911 C 3.509022 8.668538 3.583501 8.676074 3.657566 8.673885 C 3.728833 8.671780 3.799930 8.659303 3.871225 8.660024 C 3.938899 8.660709 4.005983 8.678816 4.073657 8.678095 C 4.136538 8.677425 4.198317 8.654546 4.261188 8.655869 C 4.318863 8.657083 4.374248 8.682465 4.431849 8.685633 C 4.481886 8.688386 4.531942 8.678045 4.581849 8.673508 C 4.624145 8.669663 4.666445 8.656384 4.708720 8.660463 C 4.744120 8.663879 4.774132 8.693067 4.809614 8.695486 C 4.834726 8.697198 4.856957 8.677657 4.881538 8.672245 C 4.892285 8.669880 4.901521 8.663382 4.901565 8.652378 C 4.901609 8.641374 4.892427 8.634795 4.881698 8.632351 C 4.857052 8.626736 4.834842 8.606824 4.809623 8.608536 C 4.774055 8.610950 4.744098 8.640357 4.708645 8.644096 C 4.666386 8.648553 4.623926 8.635830 4.581556 8.632591 C 4.531562 8.628769 4.481306 8.619262 4.431297 8.622895 C 4.373748 8.627077 4.318841 8.653514 4.261188 8.655869 C 4.198351 8.658435 4.136110 8.636850 4.073224 8.637520 C 4.005546 8.638241 3.938871 8.657825 3.871225 8.660024 C 3.799963 8.662341 3.728599 8.651498 3.657302 8.651041 C 3.583205 8.650566 3.508921 8.659852 3.434869 8.657227 C 3.358450 8.654519 3.282774 8.634255 3.206311 8.635055 C 3.128915 8.635865 3.052826 8.660166 2.975447 8.662036 C 2.898243 8.663902 2.821270 8.648369 2.744073 8.646227 C 2.668087 8.644119 2.591804 8.647094 2.515821 8.649285 C 2.441725 8.651422 2.367512 8.656367 2.293441 8.659222 C 2.222283 8.661965 2.150904 8.667456 2.079707 8.666094 C 2.012143 8.664801 1.944889 8.650454 1.877317 8.651262 C 1.814531 8.652014 1.752463 8.667303 1.689768 8.670760 C 1.633117 8.673884 1.576123 8.670652 1.519387 8.671001 C 1.469401 8.671307 1.419209 8.675256 1.369287 8.672727 C 1.326721 8.670570 1.284886 8.657689 1.242272 8.656959 C 1.208464 8.656379 1.175107 8.665827 1.141427 8.668821 C 1.130279 8.669812 1.121163 8.677971 1.121192 8.689163 z " />
    <path  style="fill:#0000ff; fill-opacity:1; stroke:none; stroke-opacity:1;"  d="M 1.106194 8.867865 C 1.106244 8.886581 1.121539 8.902967 1.140212 8.901702 C 1.173934 8.899417 1.207604 8.895198 1.241166 8.891204 C 1.283496 8.886165 1.325648 8.878514 1.368094 8.874578 C 1.417946 8.869956 1.468130 8.867186 1.518167 8.865521 C 1.574877 8.863634 1.631866 8.861429 1.688553 8.863916 C 1.751346 8.866671 1.813904 8.875621 1.876505 8.881242 C 1.943908 8.887295 2.011393 8.902858 2.078955 8.898972 C 2.151223 8.894814 2.220051 8.861689 2.292307 8.857322 C 2.366500 8.852838 2.440663 8.873016 2.514990 8.872616 C 2.591169 8.872206 2.666991 8.858772 2.743073 8.854896 C 2.819958 8.850980 2.897232 8.847198 2.974191 8.849225 C 3.051449 8.851260 3.128306 8.866799 3.205590 8.867080 C 3.281737 8.867357 3.357600 8.853895 3.433688 8.850895 C 3.507719 8.847975 3.582110 8.851384 3.656170 8.849311 C 3.727391 8.847318 3.798721 8.834852 3.869866 8.838689 C 3.938123 8.842370 4.004106 8.872490 4.072458 8.871762 C 4.136069 8.871084 4.196381 8.839122 4.259829 8.834534 C 4.316583 8.830431 4.373675 8.840573 4.430329 8.845886 C 4.480529 8.850595 4.530160 8.864980 4.580580 8.864618 C 4.623364 8.864312 4.664766 8.847702 4.707383 8.843902 C 4.740842 8.840918 4.774842 8.840882 4.808259 8.844315 C 4.832751 8.846832 4.855763 8.858168 4.880137 8.861651 C 4.896896 8.864047 4.910880 8.848015 4.910947 8.831086 C 4.911015 8.814157 4.897160 8.798016 4.880382 8.800275 C 4.855946 8.803566 4.832790 8.814527 4.808261 8.817037 C 4.774803 8.820460 4.740791 8.820666 4.707265 8.817988 C 4.664579 8.814578 4.622929 8.798504 4.580108 8.798811 C 4.529662 8.799172 4.480237 8.814381 4.430101 8.819973 C 4.373544 8.826281 4.316659 8.837514 4.259829 8.834534 C 4.196295 8.831203 4.135324 8.800505 4.071706 8.801183 C 4.003346 8.801911 3.938030 8.833481 3.869866 8.838689 C 3.798823 8.844117 3.727229 8.833291 3.655980 8.832945 C 3.581892 8.832586 3.507599 8.837745 3.433519 8.836575 C 3.357380 8.835372 3.281217 8.823728 3.205097 8.825824 C 3.127841 8.827952 3.051379 8.845337 2.974191 8.849225 C 2.897303 8.853098 2.819961 8.851178 2.743003 8.849100 C 2.666852 8.847044 2.590734 8.835426 2.514567 8.836816 C 2.440253 8.838171 2.366582 8.860090 2.292307 8.857322 C 2.219975 8.854627 2.150414 8.823090 2.078077 8.820551 C 2.010455 8.818177 1.943343 8.835227 1.876095 8.842714 C 1.813631 8.849668 1.751275 8.859920 1.688553 8.863916 C 1.631927 8.867525 1.574901 8.866410 1.518167 8.865521 C 1.468113 8.864737 1.417889 8.862802 1.367982 8.858893 C 1.325513 8.855567 1.283294 8.848460 1.240950 8.843808 C 1.207383 8.840119 1.173735 8.835952 1.140032 8.833847 C 1.121352 8.832681 1.106145 8.849149 1.106194 8.867865 z " />
    <path  style="fill:#0000ff; fill-opacity:1; stroke:none; stroke-opacity:1;"  d="M 1.116655 9.042743 C 1.116688 9.054969 1.126662 9.065364 1.138878 9.064847 C 1.172519 9.063424 1.206239 9.061437 1.239831 9.059122 C 1.282138 9.056208 1.324406 9.050571 1.366789 9.049146 C 1.416764 9.047466 1.466970 9.051416 1.516947 9.049806 C 1.573746 9.047977 1.630432 9.037711 1.687250 9.038825 C 1.750115 9.040058 1.812334 9.056349 1.875209 9.056833 C 1.942687 9.057353 2.009818 9.042558 2.077293 9.041830 C 2.148618 9.041061 2.219907 9.052308 2.291236 9.052348 C 2.365370 9.052388 2.439607 9.046250 2.513623 9.042070 C 2.589630 9.037777 2.665664 9.029878 2.741735 9.026907 C 2.818656 9.023903 2.895912 9.024831 2.972888 9.024134 C 3.049866 9.023438 3.127093 9.021104 3.204057 9.022725 C 3.280194 9.024329 3.356376 9.031032 3.432479 9.033816 C 3.506564 9.036526 3.580907 9.038747 3.655040 9.039223 C 3.726233 9.039679 3.797632 9.037526 3.868820 9.036613 C 3.936153 9.035749 4.003702 9.032160 4.071019 9.033885 C 4.133704 9.035491 4.196269 9.049793 4.258894 9.046608 C 4.316387 9.043684 4.371602 9.020340 4.428980 9.015681 C 4.478847 9.011632 4.529113 9.021085 4.579141 9.020603 C 4.621476 9.020196 4.663721 9.013682 4.706053 9.013014 C 4.739676 9.012484 4.774049 9.010086 4.806956 9.017008 C 4.832625 9.022407 4.853202 9.043545 4.878783 9.049347 C 4.902172 9.054652 4.922335 9.030029 4.922431 9.006046 C 4.922527 8.982063 4.902561 8.957283 4.879130 8.962398 C 4.853476 8.967998 4.832657 8.988775 4.806958 8.994162 C 4.774017 9.001067 4.739644 8.998917 4.705988 8.998693 C 4.663634 8.998411 4.621295 8.992445 4.578941 8.992644 C 4.528899 8.992879 4.478785 9.003167 4.428842 8.999996 C 4.371376 8.996348 4.315713 8.974064 4.258159 8.972278 C 4.195467 8.970333 4.133191 8.985936 4.070539 8.988878 C 4.003267 8.992037 3.935648 8.989940 3.868305 8.990583 C 3.797109 8.991263 3.725673 8.990749 3.654504 8.992852 C 3.580398 8.995042 3.506125 8.999012 3.432121 9.003471 C 3.356104 9.008052 3.280103 9.016574 3.204025 9.019997 C 3.127122 9.023457 3.049860 9.022984 2.972888 9.024134 C 2.895917 9.025285 2.818706 9.028072 2.741735 9.026907 C 2.665615 9.025755 2.589416 9.019676 2.513329 9.017180 C 2.439238 9.014749 2.364881 9.010359 2.290771 9.012114 C 2.219465 9.013803 2.148454 9.026683 2.077133 9.027510 C 2.009663 9.028293 1.942230 9.014983 1.874784 9.016941 C 1.811938 9.018765 1.750074 9.036349 1.687250 9.038825 C 1.630469 9.041064 1.573600 9.031883 1.516782 9.031053 C 1.466793 9.030323 1.416666 9.035108 1.366681 9.034143 C 1.324304 9.033326 1.281988 9.028236 1.239679 9.025707 C 1.206089 9.023699 1.172387 9.021763 1.138760 9.020520 C 1.126542 9.020068 1.116623 9.030516 1.116655 9.042743 z " />
    <path  style="fill:#0000ff; fill-opacity:1; stroke:none; stroke-opacity:1;"  d="M 1.114072 9.212021 C 1.114106 9.225000 1.124692 9.235963 1.137662 9.235486 C 1.171300 9.234249 1.204976 9.231502 1.238621 9.230443 C 1.280903 9.229112 1.323378 9.230172 1.365640 9.228309 C 1.415680 9.226103 1.465660 9.219947 1.515720 9.218229 C 1.572431 9.216282 1.629382 9.218083 1.686121 9.217306 C 1.748644 9.216449 1.811342 9.211857 1.873854 9.213322 C 1.941373 9.214904 2.008709 9.226014 2.076245 9.226448 C 2.147493 9.226906 2.218763 9.218935 2.289952 9.215996 C 2.363996 9.212940 2.438300 9.210834 2.512369 9.208446 C 2.588359 9.205996 2.664554 9.202291 2.740578 9.201467 C 2.817570 9.200632 2.894793 9.203454 2.971789 9.203467 C 3.048769 9.203480 3.125988 9.199982 3.202952 9.201546 C 3.279093 9.203094 3.355218 9.212555 3.431374 9.212808 C 3.505499 9.213054 3.579659 9.205028 3.653757 9.203042 C 3.724927 9.201134 3.796372 9.199432 3.867547 9.201114 C 3.935026 9.202709 4.002420 9.214304 4.069902 9.212877 C 4.132695 9.211549 4.194714 9.195909 4.257447 9.192868 C 4.314133 9.190120 4.371119 9.196960 4.427854 9.195525 C 4.477926 9.194259 4.527805 9.185708 4.577885 9.184763 C 4.620203 9.183965 4.662561 9.191508 4.704870 9.190302 C 4.738683 9.189338 4.771973 9.176200 4.805737 9.178269 C 4.830789 9.179805 4.853018 9.195993 4.877634 9.200891 C 4.891562 9.203662 4.903424 9.189451 4.903481 9.175250 C 4.903537 9.161048 4.891790 9.146744 4.877839 9.149403 C 4.853176 9.154105 4.830798 9.169922 4.805738 9.171450 C 4.771948 9.173509 4.738577 9.160611 4.704732 9.159955 C 4.662392 9.159135 4.620105 9.167224 4.577758 9.167033 C 4.527655 9.166806 4.477631 9.159086 4.427530 9.158701 C 4.370767 9.158264 4.313908 9.166193 4.257167 9.164568 C 4.194375 9.162769 4.132034 9.148425 4.069216 9.148435 C 4.001708 9.148446 3.934575 9.161527 3.867139 9.164631 C 3.796015 9.167906 3.724546 9.167844 3.653347 9.167582 C 3.579220 9.167310 3.504888 9.161032 3.430787 9.163028 C 3.354655 9.165080 3.278775 9.176358 3.202691 9.179725 C 3.125786 9.183128 3.048505 9.181491 2.971548 9.183351 C 2.894574 9.185211 2.817441 9.189891 2.740452 9.190897 C 2.664430 9.191890 2.588169 9.190007 2.512143 9.189353 C 2.438040 9.188714 2.363710 9.188358 2.289617 9.187015 C 2.218384 9.185724 2.146956 9.179389 2.075741 9.181441 C 2.008236 9.183387 1.941167 9.195981 1.873701 9.199001 C 1.811239 9.201798 1.748462 9.198513 1.685939 9.198894 C 1.629202 9.199239 1.572300 9.202130 1.515570 9.201180 C 1.465502 9.200342 1.415443 9.195019 1.365391 9.193530 C 1.323138 9.192273 1.280711 9.193881 1.238450 9.192935 C 1.204821 9.192183 1.171158 9.189488 1.137537 9.188431 C 1.124564 9.188022 1.114037 9.199042 1.114072 9.212021 z " />
    <path  style="fill:#0000ff; fill-opacity:1; stroke:none; stroke-opacity:1;"  d="M 1.115521 9.373776 C 1.115551 9.385344 1.124981 9.394939 1.136547 9.394691 C 1.170173 9.393967 1.203883 9.392520 1.237511 9.391864 C 1.279805 9.391039 1.322268 9.392001 1.364533 9.390242 C 1.414575 9.388159 1.464542 9.381518 1.514614 9.380332 C 1.571358 9.378987 1.628291 9.383237 1.685048 9.382648 C 1.747586 9.382000 1.810241 9.375044 1.872762 9.376618 C 1.940353 9.378320 2.007573 9.393007 2.075185 9.392472 C 2.146599 9.391907 2.217451 9.376606 2.288792 9.373326 C 2.362805 9.369924 2.437210 9.373916 2.511287 9.372425 C 2.587309 9.370894 2.663458 9.365696 2.739482 9.364252 C 2.816452 9.362789 2.893680 9.363994 2.970662 9.363695 C 3.047643 9.363396 3.124867 9.363947 3.201833 9.362456 C 3.277852 9.360983 3.354036 9.352445 3.430033 9.354795 C 3.504521 9.357097 3.578303 9.373854 3.652783 9.376397 C 3.723949 9.378826 3.795366 9.372592 3.866515 9.369695 C 3.933851 9.366954 4.001242 9.359271 4.068632 9.359466 C 4.131306 9.359648 4.193867 9.373116 4.256498 9.370826 C 4.313702 9.368734 4.369539 9.350253 4.426649 9.346377 C 4.476541 9.342990 4.526817 9.350794 4.576795 9.349083 C 4.619221 9.347630 4.661629 9.331164 4.703693 9.336890 C 4.739919 9.341822 4.768770 9.372947 4.804624 9.380097 C 4.828267 9.384811 4.852435 9.372938 4.876491 9.371348 C 4.895448 9.370095 4.910991 9.356045 4.911067 9.337047 C 4.911143 9.318048 4.895712 9.303871 4.876766 9.302470 C 4.852612 9.300684 4.828388 9.288422 4.804634 9.293146 C 4.768703 9.300292 4.739947 9.331629 4.703693 9.336890 C 4.661673 9.342989 4.619083 9.327083 4.576631 9.326238 C 4.526624 9.325242 4.476472 9.333882 4.426518 9.331374 C 4.369335 9.328503 4.313145 9.311093 4.255898 9.310134 C 4.193221 9.309084 4.130937 9.323853 4.068269 9.325370 C 4.000890 9.327001 3.933342 9.320808 3.865954 9.319574 C 3.794752 9.318271 3.723203 9.313677 3.652105 9.317752 C 3.577700 9.322016 3.504328 9.340504 3.429912 9.344566 C 3.353991 9.348710 3.277626 9.341995 3.201593 9.342340 C 3.124612 9.342688 3.047423 9.345099 2.970458 9.346647 C 2.893490 9.348195 2.816314 9.351259 2.739332 9.351636 C 2.663295 9.352009 2.587045 9.348633 2.511009 9.348898 C 2.436920 9.349157 2.362630 9.354899 2.288559 9.353209 C 2.217166 9.351581 2.145990 9.337908 2.074585 9.338942 C 2.006985 9.339920 1.940111 9.356087 1.872576 9.359229 C 1.810109 9.362135 1.747328 9.356487 1.684795 9.357076 C 1.628046 9.357610 1.571209 9.362947 1.514458 9.362601 C 1.464388 9.362296 1.414334 9.356487 1.364281 9.355121 C 1.322027 9.353968 1.279611 9.355478 1.237343 9.355039 C 1.203734 9.354689 1.170042 9.353294 1.136435 9.352750 C 1.124868 9.352563 1.115490 9.362208 1.115521 9.373776 z " />
    <path  style="fill:#0000ff; fill-opacity:1; stroke:none; stroke-opacity:1;"  d="M 1.118814 9.526136 C 1.118838 9.535353 1.126349 9.542788 1.135566 9.542800 C 1.169189 9.542844 1.202914 9.542919 1.236537 9.543042 C 1.278839 9.543197 1.321274 9.542950 1.363571 9.543636 C 1.413599 9.544447 1.463751 9.548534 1.513776 9.547535 C 1.570586 9.546401 1.627324 9.539501 1.684101 9.537236 C 1.746582 9.534743 1.809308 9.533071 1.871838 9.533252 C 1.939227 9.533447 2.006754 9.538457 2.074143 9.538366 C 2.145350 9.538269 2.216753 9.535541 2.287904 9.532687 C 2.361997 9.529716 2.436125 9.521863 2.510271 9.520875 C 2.586334 9.519862 2.662565 9.527111 2.738633 9.526681 C 2.815635 9.526247 2.892737 9.520030 2.969720 9.518283 C 3.046679 9.516536 3.123903 9.516768 3.200880 9.516191 C 3.276895 9.515621 3.353186 9.517546 3.429154 9.514838 C 3.503304 9.512194 3.577318 9.497943 3.651483 9.500128 C 3.723344 9.502244 3.793788 9.524496 3.865609 9.527693 C 3.932918 9.530689 4.000421 9.521524 4.067736 9.518657 C 4.130225 9.515996 4.192943 9.514240 4.255410 9.511093 C 4.312150 9.508234 4.369004 9.504321 4.425697 9.500623 C 4.475677 9.497364 4.525660 9.490561 4.575745 9.490202 C 4.618135 9.489899 4.660454 9.496046 4.702766 9.498639 C 4.736351 9.500697 4.770060 9.505985 4.803658 9.504167 C 4.828106 9.502843 4.851683 9.494238 4.875659 9.489281 C 4.875659 9.489281 4.875659 9.489281 4.875659 9.489281 C 4.875659 9.489281 4.875659 9.489281 4.875659 9.489281 C 4.851684 9.484132 4.828147 9.475149 4.803661 9.473819 C 4.770024 9.471992 4.736285 9.477520 4.702681 9.479885 C 4.660384 9.482862 4.618142 9.489558 4.575742 9.489861 C 4.525653 9.490220 4.475566 9.484250 4.425532 9.481870 C 4.368774 9.479171 4.311844 9.476345 4.255049 9.474610 C 4.192521 9.472699 4.129770 9.472251 4.067227 9.470922 C 3.999857 9.469491 3.932157 9.461818 3.864922 9.466320 C 3.793186 9.471124 3.723265 9.494986 3.651467 9.498764 C 3.577371 9.502663 3.503045 9.490157 3.428852 9.489266 C 3.352840 9.488353 3.276615 9.492100 3.200607 9.493347 C 3.123638 9.494610 3.046442 9.496702 2.969462 9.496802 C 2.892460 9.496903 2.815231 9.492544 2.738242 9.493950 C 2.662187 9.495338 2.586150 9.504408 2.510086 9.505191 C 2.435939 9.505955 2.361649 9.499848 2.287509 9.498591 C 2.216317 9.497384 2.144876 9.496294 2.073689 9.497791 C 2.006320 9.499208 1.938925 9.505708 1.871562 9.507339 C 1.809057 9.508852 1.746315 9.508487 1.683804 9.507231 C 1.627008 9.506090 1.570166 9.500276 1.513359 9.500141 C 1.463346 9.500022 1.413294 9.504943 1.363305 9.506470 C 1.321052 9.507761 1.278648 9.508063 1.236380 9.508603 C 1.202781 9.509033 1.169078 9.509161 1.135477 9.509384 C 1.126260 9.509445 1.118789 9.516919 1.118814 9.526136 z " />
    <path  style="fill:#0000ff; fill-opacity:1; stroke:none; stroke-opacity:1;"  d="M 1.115795 9.667245 C 1.115823 9.677685 1.124331 9.686254 1.134770 9.686119 C 1.168393 9.685683 1.202114 9.683960 1.235736 9.684486 C 1.278080 9.685148 1.320481 9.688190 1.362804 9.689683 C 1.412819 9.691447 1.462989 9.695369 1.513023 9.694264 C 1.569858 9.693008 1.626493 9.682865 1.683341 9.682601 C 1.745996 9.682309 1.808580 9.693455 1.871230 9.692596 C 1.938712 9.691670 2.005849 9.678947 2.073316 9.677252 C 2.144535 9.675462 2.215999 9.679685 2.287198 9.682143 C 2.361367 9.684704 2.435614 9.692329 2.509827 9.692323 C 2.585886 9.692316 2.662045 9.686030 2.738002 9.682104 C 2.814962 9.678127 2.891987 9.670453 2.969028 9.668591 C 3.046003 9.666731 3.123250 9.671967 3.200241 9.670932 C 3.276273 9.669911 3.352414 9.664352 3.428428 9.662419 C 3.502491 9.660535 3.576815 9.660705 3.650891 9.659472 C 3.722079 9.658287 3.793457 9.655254 3.864654 9.655157 C 3.932022 9.655066 3.999565 9.659949 4.066925 9.658907 C 4.129490 9.657940 4.192008 9.649835 4.254577 9.649127 C 4.311359 9.648484 4.368266 9.652667 4.425010 9.654853 C 4.475021 9.656781 4.525230 9.664943 4.575159 9.661481 C 4.618143 9.658500 4.658904 9.637651 4.701945 9.635650 C 4.735893 9.634072 4.768871 9.650892 4.802855 9.650896 C 4.827355 9.650898 4.850758 9.640199 4.874836 9.635668 C 4.877701 9.635129 4.880130 9.633320 4.880142 9.630404 C 4.880154 9.627489 4.877739 9.625659 4.874878 9.625098 C 4.850784 9.620374 4.827412 9.609299 4.802860 9.609296 C 4.768831 9.609292 4.735902 9.626348 4.701897 9.625080 C 4.658813 9.623473 4.617773 9.603153 4.574724 9.600788 C 4.524722 9.598041 4.474613 9.607038 4.424614 9.609846 C 4.367903 9.613030 4.311075 9.618300 4.254277 9.618781 C 4.191696 9.619311 4.129015 9.612512 4.066434 9.612878 C 3.999060 9.613271 3.931633 9.619645 3.864273 9.621061 C 3.793086 9.622558 3.721654 9.621163 3.650454 9.621625 C 3.576365 9.622106 3.502063 9.624024 3.427973 9.623890 C 3.351932 9.623753 3.275679 9.620016 3.199642 9.620812 C 3.122647 9.621618 3.045548 9.628712 2.968549 9.628699 C 2.891487 9.628686 2.814301 9.622869 2.737269 9.620732 C 2.661243 9.618623 2.584959 9.614159 2.508925 9.615949 C 2.434738 9.617695 2.360695 9.627065 2.286611 9.631341 C 2.215493 9.635445 2.144147 9.641306 2.072911 9.641110 C 2.005432 9.640925 1.938042 9.629687 1.870565 9.630200 C 1.807924 9.630676 1.745596 9.643124 1.682960 9.644072 C 1.626136 9.644932 1.569337 9.635873 1.512507 9.635618 C 1.462490 9.635392 1.412423 9.640149 1.362467 9.642629 C 1.320205 9.644727 1.277877 9.648318 1.235576 9.649365 C 1.201982 9.650197 1.168272 9.648527 1.134669 9.648270 C 1.124230 9.648190 1.115767 9.656805 1.115795 9.667245 z " />
  </g>
  </g>
 </g>
</svg>
