<?xml version="1.0" encoding="UTF-8" standalone="no"?>
<!-- Created with Inkscape (http://www.inkscape.org/) -->

<svg
   xmlns:dc="http://purl.org/dc/elements/1.1/"
   xmlns:cc="http://creativecommons.org/ns#"
   xmlns:rdf="http://www.w3.org/1999/02/22-rdf-syntax-ns#"
   xmlns:svg="http://www.w3.org/2000/svg"
   xmlns="http://www.w3.org/2000/svg"
   xmlns:sodipodi="http://sodipodi.sourceforge.net/DTD/sodipodi-0.dtd"
   xmlns:inkscape="http://www.inkscape.org/namespaces/inkscape"
   id="svg2"
   version="1.1"
   inkscape:version="0.48.3.1 r9886"
   width="1500"
   height="1200"
   sodipodi:docname="hantologie-full_hatched_1398272406.svg">
  <defs
     id="defs186" />
  <sodipodi:namedview
     pagecolor="#ffffff"
     bordercolor="#666666"
     borderopacity="1"
     objecttolerance="10"
     gridtolerance="10"
     guidetolerance="10"
     inkscape:pageopacity="0"
     inkscape:pageshadow="2"
     inkscape:window-width="640"
     inkscape:window-height="480"
     id="namedview184" />
  <metadata
     id="metadata8">
    <rdf:RDF>
      <cc:Work
         rdf:about="">
        <dc:format>image/svg+xml </dc:format>
        <dc:type
           rdf:resource="http://purl.org/dc/dcmitype/StillImage" />
        <dc:title />
      </cc:Work>
    </rdf:RDF>
  </metadata>
  <g
     inkscape:label="fill-040404"
     inkscape:groupmode="layer"
     id="fill-040404">
    <path
       style="stroke:#040404"
       d="M 1144.159739,407.248457 l -0.239958,0.004188 M 1159.341347,418.985289 l 1.507370,-0.026311 M 1157.099107,419.024427 l -0.128068,0.002235 M 1162.329766,422.933735 l 1.389445,-0.024253 M 1166.520672,426.861192 l -1.204292,0.021021 M 1168.233622,430.831901 l 0.989797,-0.017277 M 1171.704920,434.771919 l -0.633414,0.011056 M 1179.684297,442.633857 l 0.477854,-0.008341 M 1174.767366,442.719682 l -1.804756,0.031502 M 1181.266718,446.606845 l 2.083610,-0.036370 M 1178.487916,446.655349 l -0.755718,0.013191 M 1175.873061,446.700992 l 0.702782,-0.012267 M 1186.144062,450.522320 l -3.211745,0.056061 M 1182.098669,450.592933 l 0.655067,-0.011434 M 1180.437872,450.621922 l -0.992422,0.017323 M 1177.517456,450.672898 l 0.766065,-0.013372 M 1188.654646,454.479107 l -5.139687,0.089714 M 1180.989418,454.612904 l 1.165828,-0.020350 M 1180.161107,454.627362 l -0.608775,0.010626 M 1175.168315,454.714512 l 3.049307,-0.053226 M 1201.575605,458.254180 l -1.992084,0.034772 M 1185.285040,458.538533 l 5.629568,-0.098264 M 1183.980235,458.561308 l -1.360472,0.023747 M 1181.176561,458.610247 l 0.862132,-0.015049 M 1180.096655,458.629097 l -1.800538,0.031429 M 1201.850306,462.249995 l 3.431869,-0.059903 M 1193.221679,462.400608 l -6.178199,0.107841 M 1184.539617,462.552154 l 1.723422,-0.030082 M 1183.976864,462.561977 l -1.207794,0.021082 M 1180.238952,462.627222 l 1.561344,-0.027253 M 1207.919358,466.144668 l -0.343591,0.005997 M 1201.550751,466.255833 l 4.310916,-0.075247 M 1195.882724,466.354768 l -11.358192,0.198258 M 1214.730054,470.026396 l 0.476069,-0.008310 M 1214.117734,470.037084 l -2.751748,0.048032 M 1200.197938,470.280055 l 9.941570,-0.173531 M 1199.618179,470.290175 l -3.502376,0.061134 M 1192.909443,470.407277 l 0.130001,-0.002269 M 1191.916294,470.424612 l -5.604410,0.097825 M 1220.093340,473.933389 l 0.344130,-0.006007 M 1213.833197,474.042660 l -18.543747,0.323682 M 1188.671014,474.481868 l 4.553008,-0.079473 M 1224.892656,477.850226 l -2.683304,0.046837 M 1190.676748,478.447467 l 26.397623,-0.460772 M 1229.238613,481.774976 l -3.954234,0.069021 M 1192.401628,482.417968 l 27.198650,-0.474754 M 1233.489751,485.701382 l -10.857866,0.189525 M 1207.867310,486.148623 l 12.765345,-0.222820 M 1205.565244,486.188806 l -7.815854,0.136426 M 1192.904799,486.409795 l 0.767478,-0.013396 M 1173.504083,486.748436 l -0.236404,0.004126 M 1161.332901,486.960884 l 0.070809,-0.001236 M 1234.690253,489.681036 l -2.004703,0.034992 M 1223.989028,489.867827 l 8.355724,-0.145850 M 1223.206353,489.881489 l -24.339982,0.424856 M 1194.208390,490.387650 l 0.526165,-0.009184 M 1237.283248,493.636385 l -1.124395,0.019626 M 1233.885373,493.695695 l 1.239035,-0.021627 M 1232.939946,493.712197 l -5.359056,0.093543 M 1200.692103,494.275086 l 19.778293,-0.345231 M 1196.713929,494.344525 l -1.637645,0.028585 M 1161.533697,494.958598 l 1.642996,-0.028679 M 1240.129756,497.587308 l -12.865850,0.224574 M 1202.403045,498.245830 l 19.542226,-0.341111 M 1167.707109,498.851450 l -2.425955,0.042345 M 1162.498060,498.942374 l 1.785415,-0.031165 M 1244.674821,501.508583 l -8.246570,0.143944 M 1227.556598,501.807383 l 5.011608,-0.087478 M 1218.110614,501.972263 l -13.363447,0.233260 M 1166.883013,502.866444 l 0.283652,-0.004951 M 1165.413566,502.892093 l -1.759809,0.030718 M 1242.869004,505.540713 l 8.451518,-0.147522 M 1234.478433,505.687171 l -6.875310,0.120009 M 1208.522365,506.140236 l 10.201645,-0.178070 M 1166.374896,506.875923 l -0.811854,0.014171 M 1158.860774,507.007082 l 1.728165,-0.030165 M 1257.246003,509.290371 l -12.917643,0.225478 M 1226.126868,509.833557 l 4.520633,-0.078908 M 1212.318238,510.074588 l -1.184627,0.020678 M 1170.002164,510.813218 l 0.642389,-0.011213 M 1261.080996,513.224040 l -8.568359,0.149561 M 1247.110932,513.467888 l 1.610735,-0.028115 M 1245.962267,513.487938 l -22.990754,0.401305 M 1254.023027,517.347847 l 10.078709,-0.175925 M 1252.829174,517.368685 l -34.131027,0.595759 M 1215.253913,522.025173 l 50.166752,-0.875664 M 1264.729386,525.162185 l -37.151545,0.648483 M 1240.372117,529.587952 l 14.363411,-0.250714"
       id="path5" />
  </g>
  <g
     inkscape:label="fill-0a0a0a"
     inkscape:groupmode="layer"
     id="fill-0a0a0a">
    <path
       style="stroke:#0a0a0a"
       d="M 1168.862594,320.007072 l -0.496034,0.043397 M 1178.296320,329.219926 l 1.879090,-0.164399 M 1174.386301,329.562009 l -0.932039,0.081543 M 1182.212782,333.896379 l 1.299956,-0.113731 M 1180.638446,334.034116 l -5.308664,0.464448 M 1172.068244,334.783911 l 0.777435,-0.068017 M 1187.212049,338.478099 l -2.955233,0.258549 M 1179.882916,339.119315 l 1.487825,-0.130168 M 1176.557176,339.410280 l -3.681207,0.322064 M 1186.249962,343.581370 l 2.047803,-0.179160 M 1181.199811,344.023201 l -6.765837,0.591934 M 1186.085904,348.614823 l 0.037706,-0.003299 M 1177.660007,349.351993 l -1.008500,0.088232 M 1182.455432,353.951547 l 0.691417,-0.060491 M 1178.506836,354.297004 l -8.237737,0.720709 M 1186.729350,358.596727 l 1.260357,-0.110267 M 1174.648028,359.653706 l -3.212767,0.281081 M 1167.501802,360.278919 l 1.226615,-0.107315 M 1180.514063,364.159593 l -5.900769,0.516250 M 1189.076298,368.429594 l 0.685089,-0.059938 M 1184.478914,368.831813 l -2.828847,0.247492 M 1180.484442,369.181284 l 1.104091,-0.096595 M 1177.279033,369.461721 l -4.597896,0.402264 M 1185.040885,373.801746 l 7.684316,-0.672291 M 1184.437925,373.854498 l -2.960309,0.258994 M 1178.011097,374.416773 l 2.812174,-0.246033 M 1206.607504,376.934010 l -0.003841,0.000336 M 1196.792721,377.792693 l 0.358507,-0.031365 M 1190.199463,378.369528 l -0.811648,0.071010 M 1186.416687,378.700478 l 1.610994,-0.140944 M 1185.394387,378.789918 l -3.584595,0.313611 M 1210.838854,381.582914 l 1.271732,-0.111262 M 1192.486149,383.188568 l -0.913038,0.079880 M 1182.355421,384.074892 l 8.191438,-0.716658 M 1180.054097,384.276232 l -2.712169,0.237284 M 1199.001377,387.637659 l 0.526621,-0.046073 M 1196.409222,387.864443 l -12.633917,1.105325 M 1178.236886,389.454316 l 0.836210,-0.073159 M 1201.468292,392.440931 l -3.008381,0.263199 M 1188.974186,393.534023 l 8.392417,-0.734241 M 1180.211284,394.300678 l -0.774775,0.067784 M 1175.679233,394.697181 l 0.811080,-0.070960 M 1206.247066,397.041941 l -13.917107,1.217589 M 1179.764326,399.358881 l 4.552903,-0.398327 M 1167.607625,400.422454 l -3.104774,0.271633 M 1221.150260,400.757180 l 0.880254,-0.077012 M 1210.870824,401.656514 l -6.085274,0.532392 M 1192.013864,403.306284 l 10.600874,-0.927456 M 1188.126312,403.646401 l -0.945516,0.082722 M 1162.157898,405.918343 l 6.341500,-0.554809 M 1158.503344,406.238075 l -1.572801,0.137602 M 1222.967179,405.617319 l 1.149709,-0.100586 M 1217.980211,406.053623 l -0.703806,0.061575 M 1213.951631,406.406078 l 1.303523,-0.114043 M 1203.977383,407.278711 l -10.407742,0.910559 M 1168.021492,410.424444 l 0.920508,-0.080534 M 1221.696516,410.747587 l -0.781896,0.068407 M 1217.083513,411.151173 l 1.641351,-0.143600 M 1196.360080,412.964238 l -0.917515,0.080272 M 1177.794807,414.588489 l 1.367321,-0.119625 M 1225.003265,415.477383 l -2.154238,0.188471 M 1218.838454,416.016734 l 1.130820,-0.098934 M 1182.171060,419.224716 l -2.472548,0.216320 M 1166.685439,420.579532 l 0.782610,-0.068470 M 1227.685083,420.261854 l -1.663135,0.145505 M 1219.652697,420.964597 l 0.913706,-0.079939 M 1181.522005,424.300600 l -1.152374,0.100820 M 1220.166005,425.938787 l 1.091730,-0.095514 M 1221.722045,430.821751 l -0.858604,0.075118 M 1225.037563,435.550779 l 0.073731,-0.006451 M 1222.834683,435.743506 l -0.773196,0.067646 M 1227.294304,440.372439 l 0.633910,-0.055460 M 1230.699441,445.093628 l -2.364982,0.206909"
       id="path8" />
  </g>
  <g
     inkscape:label="fill-0c0c0c"
     inkscape:groupmode="layer"
     id="fill-0c0c0c">
    <path
       style="stroke:#0c0c0c"
       d="M 1246.882187,344.673419 l -3.497052,0.429384 M 1238.768076,350.707256 l 8.182285,-1.004658 M 1270.533115,361.919647 l -2.109369,0.258998 M 1256.276279,363.670166 l 5.915300,-0.726307 M 1253.325569,364.032468 l -3.340745,0.410192 M 1290.273237,364.533414 l 0.549387,-0.067456 M 1286.840202,364.954938 l -0.842528,0.103449 M 1258.300997,368.459111 l 7.206652,-0.884866 M 1244.340949,370.173190 l -0.013876,0.001704 M 1287.903107,369.861979 l 1.914522,-0.235074 M 1272.010294,371.813371 l -9.967441,1.223848 M 1245.136507,375.113057 l 12.200231,-1.498000 M 1240.980931,375.623297 l -0.336132,0.041272 M 1276.490935,376.300766 l 2.163989,-0.265704 M 1262.207259,378.054581 l -0.746800,0.091696 M 1240.618796,380.705311 l 19.834166,-2.435329 M 1284.060920,380.408838 l -1.918360,0.235545 M 1274.873103,381.536960 l 6.047707,-0.742565 M 1268.931412,382.266508 l -1.409070,0.173012 M 1263.583541,382.923144 l 1.438945,-0.176680 M 1259.773393,383.390971 l -7.274371,0.893180 M 1241.981419,385.575551 l 3.278481,-0.402547 M 1303.581027,383.049619 l -2.532498,0.310952 M 1293.269246,384.315747 l 2.221387,-0.272752 M 1275.184905,386.536225 l -1.285838,0.157881 M 1262.843601,388.051546 l 2.045663,-0.251176 M 1255.559342,388.945941 l -10.708033,1.314781 M 1299.781248,388.553723 l 1.187673,-0.145828 M 1291.856140,389.526803 l -9.902266,1.215845 M 1250.102526,394.653503 l 4.930840,-0.605431 M 1304.901891,392.962536 l -1.808176,0.222016 M 1287.361389,395.116239 l 12.884280,-1.581991 M 1256.305554,398.929416 l -2.662067,0.326861"
       id="path11" />
    <path
       style="stroke:#0c0c0c"
       d="M 1021.922302,422.670511 l -9.852806,1.209772 M 1003.224601,430.003849 l 21.558847,-2.647094 M 1026.133894,432.228491 l -30.836783,3.786281 M 996.688467,440.881484 l 29.299776,-3.597560 M 1035.899931,441.104471 l -1.277705,0.156882 M 997.668655,445.798681 l 27.533381,-3.380674 M 1045.721686,444.936060 l -14.591404,1.791599 M 996.541794,450.974592 l 28.046132,-3.443632 M 1056.989704,448.590071 l -3.953270,0.485400 M 1040.756314,450.583280 l 3.191933,-0.391920 M 1010.816565,454.259419 l -16.785268,2.060972 M 1051.456257,454.307042 l 9.473547,-1.163205 M 1042.233599,455.439442 l -2.207598,0.271059 M 1017.209759,458.511983 l 17.258049,-2.119022 M 1000.732648,460.535118 l -6.292647,0.772640 M 1055.010448,458.908191 l 10.564492,-1.297156 M 1053.825140,459.053728 l -6.961701,0.854789 M 1016.172815,463.676853 l 24.622207,-3.023227 M 1015.041775,463.815727 l -8.391190,1.030309 M 995.769471,466.182068 l 2.078824,-0.255248 M 989.001410,467.013082 l -1.740276,0.213679 M 904.412723,477.399266 l 14.310652,-1.757127 M 1070.692263,462.020255 l -11.541783,1.417153 M 1013.391517,469.055902 l 35.230726,-4.325789 M 1010.432387,469.419238 l -6.950216,0.853379 M 909.649374,481.793836 l 10.603706,-1.301971 M 1074.747008,466.559944 l -13.690713,1.681008 M 1009.949365,474.516094 l 43.726192,-5.368901 M 1006.356689,474.957220 l -3.449783,0.423580 M 970.719419,479.332926 l 13.386163,-1.643614 M 966.429699,479.859637 l -4.251469,0.522015 M 936.089415,483.584956 l 10.868006,-1.334423 M 922.815983,485.214728 l -6.063605,0.744517 M 1060.864476,473.302054 l 18.295549,-2.246411 M 1052.398768,474.341512 l -15.944207,1.957702 M 997.771785,481.048862 l 34.285119,-4.209683 M 995.237523,481.360031 l -4.147033,0.509192 M 935.404196,488.706639 l 46.871951,-5.755152 M 932.010437,489.123341 l -2.739669,0.336389 M 920.691714,490.513105 l 2.693952,-0.330776 M 1078.821435,476.134766 l -20.973020,2.575163 M 1034.297732,481.601589 l 14.937184,-1.834056 M 1028.773879,482.279833 l -22.167247,2.721796 M 982.429330,487.970228 l 17.283380,-2.122132 M 977.930810,488.522577 l -39.643426,4.867601 M 923.896051,495.157211 l 8.089414,-0.993255 M 1072.714150,481.922195 l -18.955021,2.327384 M 1034.801940,486.577229 l 9.884315,-1.213641 M 1025.219901,487.753756 l -47.147271,5.788957 M 940.410715,498.167014 l 31.773137,-3.901251 M 940.196837,498.193275 l -5.385294,0.661231 M 931.688076,499.238020 l 1.665429,-0.204489 M 1070.360059,487.248790 l -23.605472,2.898387 M 999.231859,495.982235 l 27.816967,-3.415494 M 995.902556,496.391022 l -4.005484,0.491812 M 984.834485,497.750010 l 5.607078,-0.688463 M 979.567329,498.396736 l -2.592120,0.318272 M 940.487800,503.195099 l 21.707118,-2.665299 M 937.077371,503.613847 l -1.381758,0.169659 M 1042.058218,495.761369 l 12.703818,-1.559833 M 1032.062639,496.988671 l -32.914180,4.041353 M 980.312471,503.342793 l 1.987128,-0.243989 M 1059.162987,498.698716 l -18.447133,2.265023 M 1029.430398,502.349419 l 2.672697,-0.328166 M 1028.286690,502.489849 l -28.376264,3.484167 M 970.816799,509.546264 l 20.143748,-2.473341 M 958.918107,511.007240 l -4.749547,0.583171 M 1039.154545,506.192993 l 23.017256,-2.826164 M 1031.996739,507.071861 l -37.496589,4.604002 M 987.954020,512.479627 l 3.135145,-0.384947 M 987.294666,512.560586 l -2.363455,0.290196 M 981.947105,513.217183 l 0.640002,-0.078582 M 977.050258,513.818441 l -9.967318,1.223833 M 1062.352931,508.382139 l 2.446302,-0.300368 M 1061.353725,508.504826 l -12.822712,1.574431 M 1034.939417,511.748095 l 11.498267,-1.411810 M 1030.612892,512.279325 l -4.337235,0.532545 M 1011.875492,514.579989 l 10.124897,-1.243181 M 1011.195618,514.663467 l -35.101237,4.309890 M 970.712967,519.634111 l 2.981385,-0.366068 M 1064.209108,513.191778 l -6.858694,0.842142 M 1029.564458,517.445606 l 0.314054,-0.038561 M 1016.259908,519.079199 l -2.826002,0.346989 M 1003.191001,520.683859 l 8.300111,-1.019125 M 1000.591211,521.003073 l -2.278010,0.279704 M 974.274228,524.234393 l 18.407766,-2.260190 M 955.744094,526.509607 l -1.612129,0.197945 M 1065.306203,518.094621 l 7.425272,-0.911709 M 1012.944339,524.523849 l -13.458042,1.652440 M 970.804291,529.697996 l 23.657998,-2.904837 M 1049.259838,525.102416 l -4.098327,0.503211 M 1033.897498,526.988674 l 6.759231,-0.829929 M 1027.761534,527.742075 l -8.894493,1.092106 M 1013.919377,529.441679 l 4.582198,-0.562623 M 1008.037572,530.163874 l -37.640646,4.621690 M 1063.676848,528.369778 l 2.646986,-0.325009 M 1029.230242,532.599290 l -0.211928,0.026022 M 1058.607795,534.029729 l 5.114271,-0.627954 M 1039.148932,536.418977 l -4.180516,0.513303"
       id="path13" />
  </g>
  <g
     inkscape:label="fill-0c0c0c"
     inkscape:groupmode="layer"
     id="g15">
    <path
       style="stroke:#0c0c0c"
       d="M 1246.882187,344.673419 l -3.497052,0.429384 M 1238.768076,350.707256 l 8.182285,-1.004658 M 1270.533115,361.919647 l -2.109369,0.258998 M 1256.276279,363.670166 l 5.915300,-0.726307 M 1253.325569,364.032468 l -3.340745,0.410192 M 1290.273237,364.533414 l 0.549387,-0.067456 M 1286.840202,364.954938 l -0.842528,0.103449 M 1258.300997,368.459111 l 7.206652,-0.884866 M 1244.340949,370.173190 l -0.013876,0.001704 M 1287.903107,369.861979 l 1.914522,-0.235074 M 1272.010294,371.813371 l -9.967441,1.223848 M 1245.136507,375.113057 l 12.200231,-1.498000 M 1240.980931,375.623297 l -0.336132,0.041272 M 1276.490935,376.300766 l 2.163989,-0.265704 M 1262.207259,378.054581 l -0.746800,0.091696 M 1240.618796,380.705311 l 19.834166,-2.435329 M 1284.060920,380.408838 l -1.918360,0.235545 M 1274.873103,381.536960 l 6.047707,-0.742565 M 1268.931412,382.266508 l -1.409070,0.173012 M 1263.583541,382.923144 l 1.438945,-0.176680 M 1259.773393,383.390971 l -7.274371,0.893180 M 1241.981419,385.575551 l 3.278481,-0.402547 M 1303.581027,383.049619 l -2.532498,0.310952 M 1293.269246,384.315747 l 2.221387,-0.272752 M 1275.184905,386.536225 l -1.285838,0.157881 M 1262.843601,388.051546 l 2.045663,-0.251176 M 1255.559342,388.945941 l -10.708033,1.314781 M 1299.781248,388.553723 l 1.187673,-0.145828 M 1291.856140,389.526803 l -9.902266,1.215845 M 1250.102526,394.653503 l 4.930840,-0.605431 M 1304.901891,392.962536 l -1.808176,0.222016 M 1287.361389,395.116239 l 12.884280,-1.581991 M 1256.305554,398.929416 l -2.662067,0.326861"
       id="path17" />
    <path
       style="stroke:#0c0c0c"
       d="M 1021.922302,422.670511 l -9.852806,1.209772 M 1003.224601,430.003849 l 21.558847,-2.647094 M 1026.133894,432.228491 l -30.836783,3.786281 M 996.688467,440.881484 l 29.299776,-3.597560 M 1035.899931,441.104471 l -1.277705,0.156882 M 997.668655,445.798681 l 27.533381,-3.380674 M 1045.721686,444.936060 l -14.591404,1.791599 M 996.541794,450.974592 l 28.046132,-3.443632 M 1056.989704,448.590071 l -3.953270,0.485400 M 1040.756314,450.583280 l 3.191933,-0.391920 M 1010.816565,454.259419 l -16.785268,2.060972 M 1051.456257,454.307042 l 9.473547,-1.163205 M 1042.233599,455.439442 l -2.207598,0.271059 M 1017.209759,458.511983 l 17.258049,-2.119022 M 1000.732648,460.535118 l -6.292647,0.772640 M 1055.010448,458.908191 l 10.564492,-1.297156 M 1053.825140,459.053728 l -6.961701,0.854789 M 1016.172815,463.676853 l 24.622207,-3.023227 M 1015.041775,463.815727 l -8.391190,1.030309 M 995.769471,466.182068 l 2.078824,-0.255248 M 989.001410,467.013082 l -1.740276,0.213679 M 904.412723,477.399266 l 14.310652,-1.757127 M 1070.692263,462.020255 l -11.541783,1.417153 M 1013.391517,469.055902 l 35.230726,-4.325789 M 1010.432387,469.419238 l -6.950216,0.853379 M 909.649374,481.793836 l 10.603706,-1.301971 M 1074.747008,466.559944 l -13.690713,1.681008 M 1009.949365,474.516094 l 43.726192,-5.368901 M 1006.356689,474.957220 l -3.449783,0.423580 M 970.719419,479.332926 l 13.386163,-1.643614 M 966.429699,479.859637 l -4.251469,0.522015 M 936.089415,483.584956 l 10.868006,-1.334423 M 922.815983,485.214728 l -6.063605,0.744517 M 1060.864476,473.302054 l 18.295549,-2.246411 M 1052.398768,474.341512 l -15.944207,1.957702 M 997.771785,481.048862 l 34.285119,-4.209683 M 995.237523,481.360031 l -4.147033,0.509192 M 935.404196,488.706639 l 46.871951,-5.755152 M 932.010437,489.123341 l -2.739669,0.336389 M 920.691714,490.513105 l 2.693952,-0.330776 M 1078.821435,476.134766 l -20.973020,2.575163 M 1034.297732,481.601589 l 14.937184,-1.834056 M 1028.773879,482.279833 l -22.167247,2.721796 M 982.429330,487.970228 l 17.283380,-2.122132 M 977.930810,488.522577 l -39.643426,4.867601 M 923.896051,495.157211 l 8.089414,-0.993255 M 1072.714150,481.922195 l -18.955021,2.327384 M 1034.801940,486.577229 l 9.884315,-1.213641 M 1025.219901,487.753756 l -47.147271,5.788957 M 940.410715,498.167014 l 31.773137,-3.901251 M 940.196837,498.193275 l -5.385294,0.661231 M 931.688076,499.238020 l 1.665429,-0.204489 M 1070.360059,487.248790 l -23.605472,2.898387 M 999.231859,495.982235 l 27.816967,-3.415494 M 995.902556,496.391022 l -4.005484,0.491812 M 984.834485,497.750010 l 5.607078,-0.688463 M 979.567329,498.396736 l -2.592120,0.318272 M 940.487800,503.195099 l 21.707118,-2.665299 M 937.077371,503.613847 l -1.381758,0.169659 M 1042.058218,495.761369 l 12.703818,-1.559833 M 1032.062639,496.988671 l -32.914180,4.041353 M 980.312471,503.342793 l 1.987128,-0.243989 M 1059.162987,498.698716 l -18.447133,2.265023 M 1029.430398,502.349419 l 2.672697,-0.328166 M 1028.286690,502.489849 l -28.376264,3.484167 M 970.816799,509.546264 l 20.143748,-2.473341 M 958.918107,511.007240 l -4.749547,0.583171 M 1039.154545,506.192993 l 23.017256,-2.826164 M 1031.996739,507.071861 l -37.496589,4.604002 M 987.954020,512.479627 l 3.135145,-0.384947 M 987.294666,512.560586 l -2.363455,0.290196 M 981.947105,513.217183 l 0.640002,-0.078582 M 977.050258,513.818441 l -9.967318,1.223833 M 1062.352931,508.382139 l 2.446302,-0.300368 M 1061.353725,508.504826 l -12.822712,1.574431 M 1034.939417,511.748095 l 11.498267,-1.411810 M 1030.612892,512.279325 l -4.337235,0.532545 M 1011.875492,514.579989 l 10.124897,-1.243181 M 1011.195618,514.663467 l -35.101237,4.309890 M 970.712967,519.634111 l 2.981385,-0.366068 M 1064.209108,513.191778 l -6.858694,0.842142 M 1029.564458,517.445606 l 0.314054,-0.038561 M 1016.259908,519.079199 l -2.826002,0.346989 M 1003.191001,520.683859 l 8.300111,-1.019125 M 1000.591211,521.003073 l -2.278010,0.279704 M 974.274228,524.234393 l 18.407766,-2.260190 M 955.744094,526.509607 l -1.612129,0.197945 M 1065.306203,518.094621 l 7.425272,-0.911709 M 1012.944339,524.523849 l -13.458042,1.652440 M 970.804291,529.697996 l 23.657998,-2.904837 M 1049.259838,525.102416 l -4.098327,0.503211 M 1033.897498,526.988674 l 6.759231,-0.829929 M 1027.761534,527.742075 l -8.894493,1.092106 M 1013.919377,529.441679 l 4.582198,-0.562623 M 1008.037572,530.163874 l -37.640646,4.621690 M 1063.676848,528.369778 l 2.646986,-0.325009 M 1029.230242,532.599290 l -0.211928,0.026022 M 1058.607795,534.029729 l 5.114271,-0.627954 M 1039.148932,536.418977 l -4.180516,0.513303"
       id="path19" />
  </g>
  <g
     inkscape:label="fill-2d2d2d"
     inkscape:groupmode="layer"
     id="fill-2d2d2d">
    <path
       style="stroke:#2d2d2d"
       d="M 907.873540,465.331168 l -4.498799,2.597383 M 924.429681,467.319481 l 2.568640,-1.483005 M 914.493226,473.056296 l -11.244832,6.492207 M 990.455018,440.746740 l 33.020660,-19.064487 M 934.874477,472.836181 l -0.762901,0.440461 M 909.836549,487.291835 l 13.430010,-7.753820 M 1037.796165,424.961322 l -3.629478,2.095480 M 995.625137,449.308776 l 31.248607,-18.041392 M 992.403152,451.168990 l -0.594948,0.343493 M 935.346132,484.110876 l 10.375041,-5.990033 M 934.511818,484.592567 l -16.310445,9.416840 M 1047.039630,431.171610 l 2.140052,-1.235560 M 1045.760763,431.909964 l -2.605711,1.504408 M 1028.220033,442.037110 l 8.233847,-4.753814 M 1025.348724,443.694861 l -38.039381,21.962047 M 984.281711,467.404912 l 2.224216,-1.284152 M 966.502911,477.669507 l -38.932615,22.477756 M 1052.712413,439.443433 l 10.274753,-5.932131 M 1046.218013,443.192976 l -58.606134,33.836267 M 934.118482,507.913671 l 51.883401,-29.954896 M 1061.316923,446.022622 l -9.854614,5.689564 M 969.203901,499.204100 l 78.719216,-45.448561 M 1070.406348,452.321845 l -111.708346,64.494844 M 1060.220768,469.749498 l 18.513317,-10.688669 M 1053.414961,473.678833 l -18.803038,10.855939 M 963.370498,525.666028 l 64.362910,-37.159943 M 959.386656,527.966100 l -3.572763,2.062736 M 1043.467302,490.969122 l 37.235774,-21.498084 M 1033.272360,496.855174 l -65.919334,38.058545 M 965.086170,536.222490 l 1.635097,-0.944024 M 1074.142608,484.805731 l -12.900668,7.448204 M 1038.773733,505.225960 l 20.373449,-11.762616 M 1033.041588,508.535416 l -54.885275,31.688028 M 1090.750288,486.764288 l 3.895365,-2.248990 M 1076.856564,494.785833 l -0.732335,0.422814 M 1025.970942,524.164661 l 47.150606,-27.222415 M 1025.863333,524.226789 l -29.907566,17.267142 M 1017.266962,540.736911 l 65.864587,-38.026937 M 1089.417804,510.627609 l -2.797558,1.615171 M 1036.401837,541.236392 l 49.074474,-28.333161 M 1066.090438,535.642675 l -0.657516,0.379617 M 1055.156708,541.955267 l 2.654355,-1.532493 M 1173.540682,542.888280 l -0.311326,0.179744"
       id="path22" />
  </g>
  <g
     inkscape:label="fill-2f2f2f"
     inkscape:groupmode="layer"
     id="fill-2f2f2f">
    <path
       style="stroke:#2f2f2f"
       d="M 1140.255726,403.791670 l -0.442697,0.276628 M 1157.948740,416.319416 l 0.691173,-0.431893 M 1156.226413,417.395646 l -0.964427,0.602641 M 1163.242163,424.803502 l 1.459624,-0.912075 M 1170.309245,432.179283 l -1.125600,0.703353 M 1166.635624,434.474816 l 0.586485,-0.366476 M 1179.319482,438.340846 l -0.251642,0.157243 M 1171.928907,442.958990 l 3.572930,-2.232614 M 1170.963320,443.562356 l -1.186246,0.741249 M 1186.584418,445.592994 l 0.440487,-0.275247 M 1184.087030,447.153535 l -3.013739,1.883193 M 1178.958711,450.358065 l 1.465034,-0.915455 M 1178.637707,450.558650 l -2.731333,1.706726 M 1184.993778,458.378721 l 4.734608,-2.958512 M 1184.460815,458.711753 l -6.031540,3.768925 M 1200.682835,460.366894 l 2.639185,-1.649146 M 1199.090331,461.362001 l -0.297535,0.185920 M 1185.129242,470.085857 l 9.623231,-6.013262 M 1161.834814,484.641832 l -1.500462,0.937593 M 1190.297974,478.647859 l 19.926638,-12.451546 M 1185.060063,481.920869 l -0.285680,0.178513 M 1173.834047,488.935663 l 1.347488,-0.842004 M 1164.475039,494.783820 l -2.846373,1.778611 M 1218.631212,472.735071 l 0.463408,-0.289569 M 1217.650147,473.348109 l -0.552200,0.345053 M 1197.389137,486.008593 l 18.109744,-11.316224 M 1194.793500,487.630527 l -0.948552,0.592721 M 1173.782340,500.759757 l 0.995135,-0.621830 M 1166.598551,505.248687 l -2.113925,1.320927 M 1224.300289,480.984422 l 2.929074,-1.830288 M 1220.672114,483.251558 l -19.685627,12.300945 M 1196.197746,498.544841 l 2.734402,-1.708644 M 1172.977251,513.054617 l -0.602620,0.376559 M 1225.587911,491.971611 l 8.806944,-5.503190 M 1223.766980,493.109455 l -0.063343,0.039581 M 1206.251572,504.054297 l 14.815856,-9.257974 M 1200.691668,507.528511 l -1.053485,0.658290 M 1227.347438,502.663921 l 11.946264,-7.464855 M 1219.297338,507.694182 l -1.267445,0.791988 M 1210.521898,513.177685 l 0.497770,-0.311041 M 1207.234505,515.231876 l -0.828712,0.517837 M 1241.917412,505.351375 l 4.817690,-3.010427 M 1232.355216,511.326498 l -20.169621,12.603378 M 1227.340008,526.252132 l 29.044904,-18.149270 M 1263.332312,515.553428 l -22.919257,14.321541"
       id="path25" />
    <path
       style="stroke:#2f2f2f"
       d="M 1235.999325,332.172645 l -1.274170,0.796190 M 1233.811131,333.539980 l 0.828739,-0.517853 M 1239.727834,341.634598 l -3.218685,2.011258 M 1239.184549,353.765865 l 7.143978,-4.464053 M 1270.017475,346.291098 l -0.443167,0.276921 M 1251.260292,358.011887 l 0.094020,-0.058750 M 1262.678674,362.668674 l -8.453690,5.282452 M 1245.205071,373.587393 l 5.496860,-3.434819 M 1245.025488,373.699609 l -0.926220,0.578766 M 1240.330844,376.633148 l 1.197662,-0.748382 M 1284.503381,360.822867 l -2.323754,1.452043 M 1280.657315,363.226156 l 1.248384,-0.780077 M 1271.525564,368.932307 l -8.613347,5.382217 M 1260.878677,375.585221 l 0.389191,-0.243193 M 1258.914358,376.812663 l -6.579294,4.111199 M 1247.084565,384.204739 l 0.639290,-0.399473 M 1245.613219,385.124138 l -3.326497,2.078626 M 1288.173332,370.321412 l 2.223585,-1.389450 M 1281.370134,374.572521 l -8.828117,5.516419 M 1262.024605,386.660950 l 8.268418,-5.166681 M 1254.763849,391.197973 l -0.712654,0.445315 M 1248.905778,394.858503 l 3.987075,-2.491401 M 1277.984788,388.479705 l -0.860206,0.537516 M 1274.502183,390.655877 l 0.011729,-0.007329 M 1305.014867,383.381221 l -0.277828,0.173606 M 1302.258951,385.103308 l 0.192125,-0.120053 M 1296.593013,388.643779 l -1.647173,1.029268 M 1286.202485,395.136501 l 7.412676,-4.631954 M 1321.976917,384.573940 l -1.599245,0.999319 M 1313.157740,390.084773 l 7.161527,-4.475019 M 1311.803153,390.931213 l -0.416517,0.260269 M 1302.532116,396.724400 l 5.701109,-3.562448"
       id="path27" />
    <path
       style="stroke:#2f2f2f"
       d="M 1166.617541,316.568275 l -0.352644,0.220356 M 1171.218389,325.485131 l 0.701590,-0.438402 M 1170.280178,326.071390 l -0.686855,0.429195 M 1175.109881,334.845240 l 7.594335,-4.745467 M 1170.267379,337.871172 l -2.073392,1.295599 M 1184.513242,340.761153 l 4.384983,-2.740041 M 1181.225360,342.815649 l -4.079371,2.549074 M 1168.348658,350.861906 l 1.045850,-0.653519 M 1185.262927,352.084482 l -1.442621,0.901450 M 1180.426733,355.106471 l 3.112510,-1.944912 M 1178.433849,356.351763 l -6.939999,4.336593 M 1167.972573,362.888694 l 0.966045,-0.603652 M 1193.375571,358.806923 l -1.648069,1.029828 M 1190.016998,360.905592 l 1.246932,-0.779170 M 1182.859206,365.378277 l -3.478138,2.173382 M 1172.550874,371.819637 l 4.401352,-2.750270 M 1171.600284,372.413633 l -2.921955,1.825840 M 1199.260656,366.921298 l 0.067637,-0.042264 M 1192.264765,371.292816 l -11.410362,7.129985 M 1177.887095,380.276981 l 1.151691,-0.719656 M 1176.793327,380.960443 l -1.625487,1.015717 M 1173.535608,382.996092 l 0.252333,-0.157675 M 1206.099814,374.439502 l -1.371800,0.857195 M 1197.991915,379.505879 l 0.985615,-0.615881 M 1195.152433,381.280185 l -0.300149,0.187554 M 1193.438804,382.350979 l 0.549102,-0.343117 M 1192.551331,382.905533 l -17.608250,11.002856 M 1164.415412,400.486807 l 3.428153,-2.142148 M 1160.455859,402.961010 l -2.494640,1.558824 M 1210.932541,383.211462 l 1.771510,-1.106963 M 1205.461349,386.630243 l -0.101627,0.063503 M 1202.340034,388.580656 l 0.168455,-0.105262 M 1201.258092,389.256729 l -0.622426,0.388935 M 1197.852218,391.384956 l 1.759820,-1.099657 M 1197.305951,391.726301 l -9.139878,5.711229 M 1179.343552,402.950454 l 6.092521,-3.807029 M 1170.031105,408.769516 l -2.037829,1.273377 M 1218.832568,390.066762 l 0.394377,-0.246434 M 1209.585850,395.844752 l -0.157325,0.098307 M 1193.411451,405.951639 l 13.413924,-8.381950 M 1186.799992,410.082937 l -3.564291,2.227216 M 1178.017932,415.570577 l 1.535126,-0.959253 M 1222.004713,399.876369 l -1.181836,0.738493 M 1211.889249,406.197213 l 2.159118,-1.349167 M 1222.426123,411.404827 l -1.213150,0.758060 M 1217.907146,414.228598 l 1.374541,-0.858909 M 1227.721232,419.887860 l -1.917189,1.197993 M 1219.734240,424.878687 l 1.911115,-1.194197 M 1228.594906,431.133712 l -0.097423,0.060877 M 1224.135001,433.920570 l 2.337757,-1.460793 M 1222.663679,434.839954 l -1.098613,0.686490 M 1232.620848,440.409809 l 0.231270,-0.144514 M 1230.097297,441.986698 l -2.346547,1.466285"
       id="path29" />
  </g>
  <g
     inkscape:label="fill-2f2f2f"
     inkscape:groupmode="layer"
     id="g31">
    <path
       style="stroke:#2f2f2f"
       d="M 1140.255726,403.791670 l -0.442697,0.276628 M 1157.948740,416.319416 l 0.691173,-0.431893 M 1156.226413,417.395646 l -0.964427,0.602641 M 1163.242163,424.803502 l 1.459624,-0.912075 M 1170.309245,432.179283 l -1.125600,0.703353 M 1166.635624,434.474816 l 0.586485,-0.366476 M 1179.319482,438.340846 l -0.251642,0.157243 M 1171.928907,442.958990 l 3.572930,-2.232614 M 1170.963320,443.562356 l -1.186246,0.741249 M 1186.584418,445.592994 l 0.440487,-0.275247 M 1184.087030,447.153535 l -3.013739,1.883193 M 1178.958711,450.358065 l 1.465034,-0.915455 M 1178.637707,450.558650 l -2.731333,1.706726 M 1184.993778,458.378721 l 4.734608,-2.958512 M 1184.460815,458.711753 l -6.031540,3.768925 M 1200.682835,460.366894 l 2.639185,-1.649146 M 1199.090331,461.362001 l -0.297535,0.185920 M 1185.129242,470.085857 l 9.623231,-6.013262 M 1161.834814,484.641832 l -1.500462,0.937593 M 1190.297974,478.647859 l 19.926638,-12.451546 M 1185.060063,481.920869 l -0.285680,0.178513 M 1173.834047,488.935663 l 1.347488,-0.842004 M 1164.475039,494.783820 l -2.846373,1.778611 M 1218.631212,472.735071 l 0.463408,-0.289569 M 1217.650147,473.348109 l -0.552200,0.345053 M 1197.389137,486.008593 l 18.109744,-11.316224 M 1194.793500,487.630527 l -0.948552,0.592721 M 1173.782340,500.759757 l 0.995135,-0.621830 M 1166.598551,505.248687 l -2.113925,1.320927 M 1224.300289,480.984422 l 2.929074,-1.830288 M 1220.672114,483.251558 l -19.685627,12.300945 M 1196.197746,498.544841 l 2.734402,-1.708644 M 1172.977251,513.054617 l -0.602620,0.376559 M 1225.587911,491.971611 l 8.806944,-5.503190 M 1223.766980,493.109455 l -0.063343,0.039581 M 1206.251572,504.054297 l 14.815856,-9.257974 M 1200.691668,507.528511 l -1.053485,0.658290 M 1227.347438,502.663921 l 11.946264,-7.464855 M 1219.297338,507.694182 l -1.267445,0.791988 M 1210.521898,513.177685 l 0.497770,-0.311041 M 1207.234505,515.231876 l -0.828712,0.517837 M 1241.917412,505.351375 l 4.817690,-3.010427 M 1232.355216,511.326498 l -20.169621,12.603378 M 1227.340008,526.252132 l 29.044904,-18.149270 M 1263.332312,515.553428 l -22.919257,14.321541"
       id="path33" />
    <path
       style="stroke:#2f2f2f"
       d="M 1235.999325,332.172645 l -1.274170,0.796190 M 1233.811131,333.539980 l 0.828739,-0.517853 M 1239.727834,341.634598 l -3.218685,2.011258 M 1239.184549,353.765865 l 7.143978,-4.464053 M 1270.017475,346.291098 l -0.443167,0.276921 M 1251.260292,358.011887 l 0.094020,-0.058750 M 1262.678674,362.668674 l -8.453690,5.282452 M 1245.205071,373.587393 l 5.496860,-3.434819 M 1245.025488,373.699609 l -0.926220,0.578766 M 1240.330844,376.633148 l 1.197662,-0.748382 M 1284.503381,360.822867 l -2.323754,1.452043 M 1280.657315,363.226156 l 1.248384,-0.780077 M 1271.525564,368.932307 l -8.613347,5.382217 M 1260.878677,375.585221 l 0.389191,-0.243193 M 1258.914358,376.812663 l -6.579294,4.111199 M 1247.084565,384.204739 l 0.639290,-0.399473 M 1245.613219,385.124138 l -3.326497,2.078626 M 1288.173332,370.321412 l 2.223585,-1.389450 M 1281.370134,374.572521 l -8.828117,5.516419 M 1262.024605,386.660950 l 8.268418,-5.166681 M 1254.763849,391.197973 l -0.712654,0.445315 M 1248.905778,394.858503 l 3.987075,-2.491401 M 1277.984788,388.479705 l -0.860206,0.537516 M 1274.502183,390.655877 l 0.011729,-0.007329 M 1305.014867,383.381221 l -0.277828,0.173606 M 1302.258951,385.103308 l 0.192125,-0.120053 M 1296.593013,388.643779 l -1.647173,1.029268 M 1286.202485,395.136501 l 7.412676,-4.631954 M 1321.976917,384.573940 l -1.599245,0.999319 M 1313.157740,390.084773 l 7.161527,-4.475019 M 1311.803153,390.931213 l -0.416517,0.260269 M 1302.532116,396.724400 l 5.701109,-3.562448"
       id="path35" />
    <path
       style="stroke:#2f2f2f"
       d="M 1166.617541,316.568275 l -0.352644,0.220356 M 1171.218389,325.485131 l 0.701590,-0.438402 M 1170.280178,326.071390 l -0.686855,0.429195 M 1175.109881,334.845240 l 7.594335,-4.745467 M 1170.267379,337.871172 l -2.073392,1.295599 M 1184.513242,340.761153 l 4.384983,-2.740041 M 1181.225360,342.815649 l -4.079371,2.549074 M 1168.348658,350.861906 l 1.045850,-0.653519 M 1185.262927,352.084482 l -1.442621,0.901450 M 1180.426733,355.106471 l 3.112510,-1.944912 M 1178.433849,356.351763 l -6.939999,4.336593 M 1167.972573,362.888694 l 0.966045,-0.603652 M 1193.375571,358.806923 l -1.648069,1.029828 M 1190.016998,360.905592 l 1.246932,-0.779170 M 1182.859206,365.378277 l -3.478138,2.173382 M 1172.550874,371.819637 l 4.401352,-2.750270 M 1171.600284,372.413633 l -2.921955,1.825840 M 1199.260656,366.921298 l 0.067637,-0.042264 M 1192.264765,371.292816 l -11.410362,7.129985 M 1177.887095,380.276981 l 1.151691,-0.719656 M 1176.793327,380.960443 l -1.625487,1.015717 M 1173.535608,382.996092 l 0.252333,-0.157675 M 1206.099814,374.439502 l -1.371800,0.857195 M 1197.991915,379.505879 l 0.985615,-0.615881 M 1195.152433,381.280185 l -0.300149,0.187554 M 1193.438804,382.350979 l 0.549102,-0.343117 M 1192.551331,382.905533 l -17.608250,11.002856 M 1164.415412,400.486807 l 3.428153,-2.142148 M 1160.455859,402.961010 l -2.494640,1.558824 M 1210.932541,383.211462 l 1.771510,-1.106963 M 1205.461349,386.630243 l -0.101627,0.063503 M 1202.340034,388.580656 l 0.168455,-0.105262 M 1201.258092,389.256729 l -0.622426,0.388935 M 1197.852218,391.384956 l 1.759820,-1.099657 M 1197.305951,391.726301 l -9.139878,5.711229 M 1179.343552,402.950454 l 6.092521,-3.807029 M 1170.031105,408.769516 l -2.037829,1.273377 M 1218.832568,390.066762 l 0.394377,-0.246434 M 1209.585850,395.844752 l -0.157325,0.098307 M 1193.411451,405.951639 l 13.413924,-8.381950 M 1186.799992,410.082937 l -3.564291,2.227216 M 1178.017932,415.570577 l 1.535126,-0.959253 M 1222.004713,399.876369 l -1.181836,0.738493 M 1211.889249,406.197213 l 2.159118,-1.349167 M 1222.426123,411.404827 l -1.213150,0.758060 M 1217.907146,414.228598 l 1.374541,-0.858909 M 1227.721232,419.887860 l -1.917189,1.197993 M 1219.734240,424.878687 l 1.911115,-1.194197 M 1228.594906,431.133712 l -0.097423,0.060877 M 1224.135001,433.920570 l 2.337757,-1.460793 M 1222.663679,434.839954 l -1.098613,0.686490 M 1232.620848,440.409809 l 0.231270,-0.144514 M 1230.097297,441.986698 l -2.346547,1.466285"
       id="path37" />
  </g>
  <g
     inkscape:label="fill-303030"
     inkscape:groupmode="layer"
     id="fill-303030">
    <path
       style="stroke:#303030"
       d="M 752.937313,718.529313 l -13.439513,8.397940 M 742.865889,736.614421 l 20.675141,-12.919262 M 767.076376,733.277814 l -20.842397,13.023775 M 749.602069,755.988757 l 21.009653,-13.128288 M 768.310670,756.090109 l -15.340511,9.585815 M 756.338248,775.363093 l 9.353965,-5.845006 M 763.073756,782.946064 l -3.367418,2.104196"
       id="path40" />
  </g>
  <g
     inkscape:label="fill-4c4c4c"
     inkscape:groupmode="layer"
     id="fill-4c4c4c">
    <path
       style="stroke:#4c4c4c"
       d="M 1132.749018,384.451128 l -2.439506,3.122425 M 1147.873737,387.832139 l 2.756174,-3.527742 M 1145.008039,391.500067 l -2.258814,2.891150 M 1154.271793,402.382771 l 2.763885,-3.537611 M 1167.544626,408.134089 l -3.140273,4.019367 M 1174.536913,421.924140 l 3.825040,-4.895828 M 1190.446625,424.300406 l -8.326171,10.657013 M 1192.437128,444.492448 l 4.217652,-5.398348 M 1259.064362,381.953247 l -12.662803,16.207649 M 1109.965001,572.791726 l 128.521175,-164.499603 M 1258.144889,405.869887 l -6.527936,8.355378 M 1217.371335,458.057658 l 14.310283,-18.316327 M 1172.223156,515.844691 l -5.009165,6.411439 M 1124.731643,576.631056 l 8.001729,-10.241746 M 1245.220993,445.151490 l -7.290560,9.331491 M 1177.669723,531.613172 l 4.294236,-5.496372 M 1255.475591,454.765973 l -7.270904,9.306333 M 1189.535164,539.165870 l 2.169599,-2.776960 M 1266.740041,463.087903 l -7.566980,9.685293 M 1275.148184,475.065740 l 7.022703,-8.988650"
       id="path43" />
  </g>
  <g
     inkscape:label="fill-4f4f4f"
     inkscape:groupmode="layer"
     id="fill-4f4f4f">
    <path
       style="stroke:#4f4f4f"
       d="M 776.091502,719.937377 l -9.206413,12.671541 M 775.925154,743.984558 l 16.741009,-23.042022 M 809.240823,721.947695 l -17.599332,24.223402 M 807.357829,748.357637 l 18.457655,-25.404782 M 842.390145,723.958014 l -19.315977,26.586162 M 838.790505,752.730715 l 20.174300,-27.767542 M 875.539466,725.968333 l -21.032623,28.948921 M 870.223181,757.103794 l 18.592384,-25.590221 M 896.052739,745.370680 l -10.113220,13.919653 M 901.655857,761.476873 l 1.634056,-2.249085"
       id="path46" />
    <path
       style="stroke:#4f4f4f"
       d="M 1170.002361,320.674928 l -1.012334,1.393358 M 1167.980156,323.458254 l 0.660760,-0.909459 M 1181.363874,328.855370 l -5.613526,7.726356 M 1171.685464,342.176559 l 3.868347,-5.324323 M 1169.250397,345.528140 l -2.210053,3.041876 M 1186.609835,345.453147 l 3.354897,-4.617620 M 1186.368281,345.785617 l -0.295170,0.406267 M 1182.345918,351.321925 l 2.903608,-3.996473 M 1181.877806,351.966225 l -8.376889,11.529798 M 1166.296556,373.411976 l 5.326970,-7.331945 M 1165.781172,374.121341 l -0.955416,1.315018 M 1191.911320,361.974500 l 3.787674,-5.213286 M 1188.905362,366.111848 l -8.577398,11.805775 M 1177.995911,381.127418 l 1.308340,-1.800776 M 1177.680599,381.561408 l -3.241008,4.460864 M 1173.153542,387.792367 l 0.723279,-0.995508 M 1166.614913,396.792018 l -0.722778,0.994818 M 1160.333199,405.438055 l 3.127137,-4.304135 M 1201.343795,372.810035 l -0.719463,0.990256 M 1197.027474,378.750942 l 1.731001,-2.382519 M 1195.333086,381.083067 l -0.464240,0.638972 M 1193.878415,383.085250 l 0.591382,-0.813968 M 1193.523566,383.573657 l -7.150343,9.841603 M 1184.899850,395.443183 l 1.168157,-1.607830 M 1183.431008,397.464871 l -4.057569,5.584764 M 1173.093080,411.693808 l 0.697972,-0.960676 M 1169.907251,416.078726 l -3.432318,4.724181 M 1210.530592,383.983717 l 2.094862,-2.883330 M 1207.362131,388.344728 l -0.224958,0.309628 M 1204.938371,391.680749 l 0.413244,-0.568782 M 1204.459844,392.339384 l -0.502318,0.691381 M 1189.929053,412.339303 l 13.466643,-18.535244 M 1182.978535,421.905869 l -2.585624,3.558806 M 1216.535436,399.536981 l 0.285024,-0.392302 M 1216.224803,399.964530 l -0.252431,0.347441 M 1214.997511,401.653752 l 0.470391,-0.647437 M 1213.576675,403.609366 l -2.203584,3.032973 M 1222.124568,415.662423 l 1.746697,-2.404123 M 1220.702474,417.619768 l -1.832926,2.522806 M 1224.464342,436.260223 l 5.045311,-6.944275 M 1223.990280,436.912714 l -1.832383,2.522059 M 1231.920415,449.816042 l 0.316821,-0.436067"
       id="path48" />
    <path
       style="stroke:#4f4f4f"
       d="M 1243.485639,314.806763 l -0.404055,0.556135 M 1240.810023,318.489433 l 0.498680,-0.686374 M 1240.395722,319.059669 l -0.965637,1.329085 M 1236.336027,324.647359 l 0.011927,-0.016416 M 1242.036607,340.619407 l -4.328663,5.957893 M 1259.575753,340.297067 l 1.835565,-2.526438 M 1251.864020,350.911357 l -1.258326,1.731937 M 1245.993538,358.991381 l 1.460573,-2.010306 M 1267.461816,353.261055 l -0.869158,1.196294 M 1263.640923,358.520062 l 0.736417,-1.013591 M 1261.527250,361.429284 l -5.540474,7.625808 M 1242.394043,387.763884 l 12.514976,-17.225387 M 1280.917810,358.558690 l -4.830620,6.648778 M 1268.472895,375.687646 l 4.074029,-5.607419 M 1265.440950,379.860760 l -5.650667,7.777476 M 1256.615693,392.007685 l 2.228050,-3.066647 M 1255.338334,393.765819 l -1.137440,1.565551 M 1314.802711,335.738348 l 0.168070,-0.231329 M 1290.841430,368.718222 l -1.754757,2.415215 M 1279.961799,383.692749 l 7.211810,-9.926205 M 1277.789421,386.682771 l -1.756786,2.418009 M 1274.321566,391.455864 l 0.854626,-1.176291 M 1304.337262,373.961026 l -1.492370,2.054071 M 1299.981387,379.956373 l 0.733269,-1.009258 M 1298.738212,381.667457 l -10.254499,14.114107 M 1310.869099,388.788946 l 4.714580,-6.489062 M 1310.756199,388.944339 l -0.688866,0.948142 M 1304.830437,397.100450 l 3.394345,-4.671916"
       id="path50" />
  </g>
  <g
     inkscape:label="fill-505050"
     inkscape:groupmode="layer"
     id="fill-505050">
    <path
       style="stroke:#505050"
       d="M 917.083905,465.855480 l -2.226300,3.179486 M 903.955202,484.605212 l 8.683464,-12.401272 M 933.539070,468.506771 l -4.211401,6.014504 M 916.000611,493.554285 l 11.834643,-16.901622 M 945.943380,476.943282 l -17.368742,24.805134 M 983.036815,450.120069 l 14.513663,-20.727660 M 965.715590,474.857341 l -24.589525,35.117481 M 938.432077,513.822236 l 0.918160,-1.311268 M 1023.367994,418.672879 l -58.519046,83.573859 M 948.635642,525.401738 l 14.660987,-20.938060 M 1049.108340,408.063556 l -7.119733,10.168033 M 1031.821222,432.752118 l 7.666511,-10.948913 M 1031.282288,433.521796 l -3.487456,4.980604 M 960.457102,534.670644 l 66.058326,-94.341066 M 1057.526782,422.192477 l -9.723303,13.886316 M 974.592211,540.635320 l 69.798146,-99.682084 M 1066.210271,435.942871 l -34.497901,49.268108 M 990.502017,544.065463 l 38.115471,-54.434535 M 1075.128330,449.358265 l -16.143650,23.055521 M 1039.141194,500.753221 l 10.017862,-14.306990 M 1034.018493,508.069196 l -26.758152,38.214602 M 1027.662280,543.298511 l 53.724361,-76.726339 M 1087.817170,483.540128 l -2.175276,3.106616 M 1049.280677,538.575943 l 29.676649,-42.382647 M 1103.910101,486.708741 l -11.263279,16.085629 M 1090.703142,505.570234 l 0.551608,-0.787779 M 1089.619298,507.118123 l -12.941004,18.481670 M 1111.227684,502.409852 l 1.313626,-1.876052 M 1110.526702,503.410959 l -2.245607,3.207058 M 1100.537956,517.676366 l 5.145397,-7.348389 M 1121.630599,513.704652 l -0.539835,0.770964 M 1149.664160,525.971982 l 0.357203,-0.510138 M 1163.854537,531.857725 l -0.921158,1.315550 M 1158.374054,539.684666 l 0.550617,-0.786363 M 1175.606364,541.226079 l -2.415238,3.449317 M 1186.164352,552.299411 l 0.787321,-1.124411 M 1185.546200,553.182224 l -1.066094,1.522540 M 1199.001903,560.117190 l 0.711522,-1.016158 M 1215.413698,562.830419 l -1.069087,1.526814 M 1211.832899,567.944330 l 0.776100,-1.108386 M 1209.119119,571.820009 l -0.563852,0.805265 M 1227.317920,571.981131 l 1.393018,-1.989435 M 1221.998716,579.577741 l -2.025863,2.893232 M 1240.225374,579.699078 l 1.919419,-2.741214 M 1234.405763,588.010344 l -1.827741,2.610285 M 1245.331536,598.558424 l 2.594504,-3.705336 M 1265.315916,596.169474 l -1.096109,1.565406 M 1258.381304,606.073126 l 1.888665,-2.697293 M 1273.159523,611.119344 l -1.210079,1.728172 M 1287.132093,617.316148 l 0.013635,-0.019473 M 1286.233787,618.599062 l -0.854670,1.220595 M 1300.561667,624.288431 l 1.652358,-2.359812 M 1320.898533,621.396078 l -0.949195,1.355592 M 1315.391348,629.261153 l 1.948290,-2.782446 M 1333.228628,629.938580 l -2.353176,3.360684 M 1329.240820,635.633760 l 0.517230,-0.738681 M 1350.091949,632.006963 l -3.080073,4.398800 M 1364.331600,637.822335 l 2.751263,-3.929211 M 1361.610331,641.708710 l -0.356894,0.509698 M 1382.422737,638.137216 l 1.790487,-2.557081 M 1379.257252,642.657998 l -1.067219,1.524146 M 1395.406741,645.745839 l 0.145215,-0.207388"
       id="path53" />
    <path
       style="stroke:#505050"
       d="M 1142.618735,405.275381 l -0.793402,1.133096 M 1152.639772,417.115560 l 1.386055,-1.979492 M 1151.941321,418.113051 l -0.374645,0.535049 M 1164.113287,426.881383 l 1.413370,-2.018501 M 1163.786983,427.347394 l -0.348179,0.497251 M 1169.744002,444.991591 l 4.610125,-6.583941 M 1187.511349,445.768892 l -0.561966,0.802570 M 1177.267593,460.398492 l 8.227145,-11.749580 M 1175.079535,463.523363 l -0.243345,0.347533 M 1159.466839,485.820603 l 1.774838,-2.534731 M 1199.565585,454.705360 l -1.375790,1.964831 M 1196.600537,458.939888 l 0.599937,-0.856800 M 1194.100093,462.510893 l -7.486192,10.691391 M 1181.918356,479.908216 l 0.509191,-0.727200 M 1175.909697,488.489471 l -1.341229,1.915474 M 1163.679977,505.955320 l 4.759659,-6.797498 M 1162.420623,507.753864 l -0.439731,0.628002 M 1196.751061,484.876620 l 13.442501,-19.197881 M 1194.961734,487.432044 l -2.256796,3.223039 M 1189.046607,495.879720 l 0.720146,-1.028476 M 1182.089037,505.816160 l -0.244112,0.348628 M 1172.466552,519.558492 l 0.644545,-0.920506 M 1222.236483,474.631366 l -1.885633,2.692962 M 1203.673135,501.142575 l 15.234673,-21.757367 M 1202.933455,502.198948 l -0.335649,0.479357 M 1198.924615,507.924165 l 1.446179,-2.065358 M 1233.338007,484.928450 l -7.408309,10.580162 M 1225.293507,496.417185 l 0.396237,-0.565885 M 1222.337450,500.638874 l -0.749312,1.070129 M 1220.326328,503.511052 l 0.337597,-0.482138 M 1219.414122,504.813818 l -2.745808,3.921421 M 1214.275026,512.153208 l 1.922133,-2.745091 M 1241.827269,498.956228 l -3.190530,4.556549 M 1223.004985,525.837237 l 9.947256,-14.206154 M 1254.532968,506.962312 l -15.713564,22.441295 M 1257.677125,528.623693 l 7.315491,-10.447604"
       id="path55" />
  </g>
  <g
     inkscape:label="fill-666666"
     inkscape:groupmode="layer"
     id="fill-666666">
    <path
       style="stroke:#666666"
       d="M 792.773868,319.678796 l -7.180643,22.099746 M 800.895247,352.932985 l 8.398778,-25.848781"
       id="path58" />
  </g>
  <g
     inkscape:label="fill-6e6e6e"
     inkscape:groupmode="layer"
     id="fill-6e6e6e">
    <path
       style="stroke:#6e6e6e"
       d="M 1170.293536,320.773750 l -1.281630,5.551351 M 1183.556534,347.788211 l 3.292767,-14.262540 M 1183.472124,348.153833 l -1.963118,8.503198 M 1178.912050,367.905683 l 1.346493,-5.832304 M 1178.626976,369.140472 l -5.355268,23.196215 M 1170.686440,403.534715 l 0.590031,-2.555705 M 1169.808063,407.339384 l -1.690764,7.323503 M 1166.650397,421.016737 l 0.901486,-3.904763 M 1200.310276,359.682602 l -1.719430,7.447670 M 1196.069220,378.052633 l 1.260029,-5.457785 M 1195.622893,379.985886 l -0.064991,0.281508 M 1195.134857,382.099804 l 0.269299,-1.166460 M 1195.032610,382.542682 l -4.015437,17.392769 M 1189.605177,406.051480 l 1.339412,-5.801631 M 1188.742401,409.788574 l -0.637457,2.761129 M 1213.296781,387.894685 l 0.859883,-3.724561 M 1211.363902,396.266904 l -0.074024,0.320633 M 1210.933508,398.131148 l 0.229903,-0.995821 M 1210.838678,398.541902 l -0.272795,1.181606 M 1208.789522,407.417772 l 1.627030,-7.047441 M 1226.325256,415.924978 l -1.154034,4.998672 M 1221.131574,438.421286 l 3.822483,-16.556991"
       id="path61" />
    <path
       style="stroke:#6e6e6e"
       d="M 882.409464,469.720024 l -0.395828,1.714519 M 902.160178,468.633103 l 0.746660,-3.234141 M 901.149371,473.011387 l -1.255107,5.436465 M 923.147194,462.191169 l 0.198598,-0.860222 M 922.357474,465.611822 l -1.338953,5.799643 M 915.831369,493.879486 l 5.020442,-21.745924 M 940.432312,471.783913 l -8.591115,37.212208 M 947.309660,526.457665 l 11.682068,-50.600596 M 985.626539,444.951845 l -21.293168,92.230844 M 982.281711,543.902708 l 27.882540,-120.772551 M 1031.556636,414.932374 l -30.504032,132.127478 M 1046.192708,435.999400 l 5.943510,-25.744171 M 1045.162771,440.460550 l -24.230915,104.955625 M 1041.487004,540.844864 l 25.003436,-108.301779 M 1080.378995,456.847960 l -19.140030,82.904579 M 1089.168489,503.239299 l 4.984926,-21.592086 M 1088.696102,505.285429 l -4.778283,20.697016 M 1111.658293,490.288071 l 0.306554,-1.327831 M 1111.479751,491.061424 l -0.983382,4.259496 M 1104.204436,522.574274 l 5.940440,-25.730874 M 1126.857071,508.917750 l -1.235154,5.350039 M 1124.069704,520.991164 l 0.956586,-4.143429 M 1144.135290,518.540378 l -1.436685,6.222967 M 1141.013688,532.061525 l 1.457311,-6.312307 M 1161.047450,529.748584 l -1.071638,4.641772 M 1157.360909,545.716750 l 2.332785,-10.104403 M 1177.867346,541.356429 l -3.512653,15.214971 M 1193.087994,559.891380 l 1.208278,-5.233628 M 1192.829560,561.010778 l -0.717248,3.106740 M 1211.772131,563.424307 l 0.496567,-2.150867 M 1211.386598,565.094234 l -0.758893,3.287128 M 1208.433194,577.886832 l 1.848702,-8.007608 M 1229.718719,570.151912 l -1.328307,5.753528 M 1225.729840,587.429646 l 1.751295,-7.585691 M 1225.539790,588.252842 l -0.162669,0.704595 M 1246.031807,583.954984 l 1.163605,-5.040126 M 1245.850414,584.740683 l -0.244346,1.058380 M 1242.631166,598.684778 l 1.640004,-7.103636 M 1263.914547,590.959143 l -0.374633,1.622714 M 1262.425112,597.410594 l 0.726213,-3.145575 M 1261.455747,601.609376 l -2.389327,10.349311 M 1281.138786,600.815585 l 0.280381,-1.214465 M 1280.235280,604.729102 l -0.560509,2.427833 M 1276.848602,619.398417 l 1.745331,-7.559861 M 1299.395601,606.199452 l -0.418419,1.812372 M 1297.362114,615.007450 l 0.822132,-3.561045 M 1296.423749,619.071956 l -1.664072,7.207890 M 1316.996203,614.425688 l 0.507049,-2.196272 M 1316.450898,616.787664 l -1.656443,7.174845 M 1312.753925,632.801014 l 2.004927,-8.684294 M 1335.602517,618.295706 l -0.261714,1.133607 M 1331.158749,637.543779 l 3.437209,-14.888187 M 1354.360502,621.508765 l -0.758548,3.285631 M 1349.548681,642.351050 l 3.525523,-15.270720 M 1371.564078,631.454707 l -3.184562,13.793854 M 1388.995007,640.415877 l 1.822414,-7.893742 M 1388.387169,643.048712 l -0.852939,3.694483"
       id="path63" />
  </g>
  <g
     inkscape:label="fill-6e6e6e"
     inkscape:groupmode="layer"
     id="g65">
    <path
       style="stroke:#6e6e6e"
       d="M 1170.293536,320.773750 l -1.281630,5.551351 M 1183.556534,347.788211 l 3.292767,-14.262540 M 1183.472124,348.153833 l -1.963118,8.503198 M 1178.912050,367.905683 l 1.346493,-5.832304 M 1178.626976,369.140472 l -5.355268,23.196215 M 1170.686440,403.534715 l 0.590031,-2.555705 M 1169.808063,407.339384 l -1.690764,7.323503 M 1166.650397,421.016737 l 0.901486,-3.904763 M 1200.310276,359.682602 l -1.719430,7.447670 M 1196.069220,378.052633 l 1.260029,-5.457785 M 1195.622893,379.985886 l -0.064991,0.281508 M 1195.134857,382.099804 l 0.269299,-1.166460 M 1195.032610,382.542682 l -4.015437,17.392769 M 1189.605177,406.051480 l 1.339412,-5.801631 M 1188.742401,409.788574 l -0.637457,2.761129 M 1213.296781,387.894685 l 0.859883,-3.724561 M 1211.363902,396.266904 l -0.074024,0.320633 M 1210.933508,398.131148 l 0.229903,-0.995821 M 1210.838678,398.541902 l -0.272795,1.181606 M 1208.789522,407.417772 l 1.627030,-7.047441 M 1226.325256,415.924978 l -1.154034,4.998672 M 1221.131574,438.421286 l 3.822483,-16.556991"
       id="path67" />
    <path
       style="stroke:#6e6e6e"
       d="M 882.409464,469.720024 l -0.395828,1.714519 M 902.160178,468.633103 l 0.746660,-3.234141 M 901.149371,473.011387 l -1.255107,5.436465 M 923.147194,462.191169 l 0.198598,-0.860222 M 922.357474,465.611822 l -1.338953,5.799643 M 915.831369,493.879486 l 5.020442,-21.745924 M 940.432312,471.783913 l -8.591115,37.212208 M 947.309660,526.457665 l 11.682068,-50.600596 M 985.626539,444.951845 l -21.293168,92.230844 M 982.281711,543.902708 l 27.882540,-120.772551 M 1031.556636,414.932374 l -30.504032,132.127478 M 1046.192708,435.999400 l 5.943510,-25.744171 M 1045.162771,440.460550 l -24.230915,104.955625 M 1041.487004,540.844864 l 25.003436,-108.301779 M 1080.378995,456.847960 l -19.140030,82.904579 M 1089.168489,503.239299 l 4.984926,-21.592086 M 1088.696102,505.285429 l -4.778283,20.697016 M 1111.658293,490.288071 l 0.306554,-1.327831 M 1111.479751,491.061424 l -0.983382,4.259496 M 1104.204436,522.574274 l 5.940440,-25.730874 M 1126.857071,508.917750 l -1.235154,5.350039 M 1124.069704,520.991164 l 0.956586,-4.143429 M 1144.135290,518.540378 l -1.436685,6.222967 M 1141.013688,532.061525 l 1.457311,-6.312307 M 1161.047450,529.748584 l -1.071638,4.641772 M 1157.360909,545.716750 l 2.332785,-10.104403 M 1177.867346,541.356429 l -3.512653,15.214971 M 1193.087994,559.891380 l 1.208278,-5.233628 M 1192.829560,561.010778 l -0.717248,3.106740 M 1211.772131,563.424307 l 0.496567,-2.150867 M 1211.386598,565.094234 l -0.758893,3.287128 M 1208.433194,577.886832 l 1.848702,-8.007608 M 1229.718719,570.151912 l -1.328307,5.753528 M 1225.729840,587.429646 l 1.751295,-7.585691 M 1225.539790,588.252842 l -0.162669,0.704595 M 1246.031807,583.954984 l 1.163605,-5.040126 M 1245.850414,584.740683 l -0.244346,1.058380 M 1242.631166,598.684778 l 1.640004,-7.103636 M 1263.914547,590.959143 l -0.374633,1.622714 M 1262.425112,597.410594 l 0.726213,-3.145575 M 1261.455747,601.609376 l -2.389327,10.349311 M 1281.138786,600.815585 l 0.280381,-1.214465 M 1280.235280,604.729102 l -0.560509,2.427833 M 1276.848602,619.398417 l 1.745331,-7.559861 M 1299.395601,606.199452 l -0.418419,1.812372 M 1297.362114,615.007450 l 0.822132,-3.561045 M 1296.423749,619.071956 l -1.664072,7.207890 M 1316.996203,614.425688 l 0.507049,-2.196272 M 1316.450898,616.787664 l -1.656443,7.174845 M 1312.753925,632.801014 l 2.004927,-8.684294 M 1335.602517,618.295706 l -0.261714,1.133607 M 1331.158749,637.543779 l 3.437209,-14.888187 M 1354.360502,621.508765 l -0.758548,3.285631 M 1349.548681,642.351050 l 3.525523,-15.270720 M 1371.564078,631.454707 l -3.184562,13.793854 M 1388.995007,640.415877 l 1.822414,-7.893742 M 1388.387169,643.048712 l -0.852939,3.694483"
       id="path69" />
  </g>
  <g
     inkscape:label="fill-6f6f6f"
     inkscape:groupmode="layer"
     id="fill-6f6f6f">
    <path
       style="stroke:#6f6f6f"
       d="M 1136.265457,398.685119 l -0.749185,3.245077 M 1151.572511,416.845802 l 0.814100,-3.526253 M 1151.426607,417.477782 l -0.438384,1.898848 M 1166.629336,436.090347 l 1.754359,-7.598965 M 1166.195349,437.970151 l -0.413469,1.790929 M 1164.390632,445.787238 l 0.014238,-0.061670 M 1160.993209,460.503094 l -0.395033,1.711074 M 1149.864785,508.705597 l 0.422244,-1.828940 M 1184.666317,442.426418 l -0.346137,1.499285 M 1179.489227,464.850860 l 4.372109,-18.937684 M 1179.248279,465.894520 l -0.426102,1.845650 M 1174.798568,485.168336 l 0.421047,-1.823753 M 1174.772194,485.282574 l -1.051378,4.554018 M 1171.714879,498.525257 l 1.029681,-4.460039 M 1169.069522,509.983557 l -0.367377,1.591287 M 1200.110448,459.993353 l 1.049671,-4.546626 M 1199.757463,461.522299 l -0.430295,1.863811 M 1198.794760,465.692225 l 0.353808,-1.532510 M 1198.577109,466.634976 l -5.808359,25.158767 M 1191.127168,498.904216 l 0.454504,-1.968674 M 1189.461214,506.120256 l -0.281593,1.219713 M 1208.650119,507.466795 l 8.500644,-36.820335 M 1208.233000,509.273535 l -0.360974,1.563551 M 1206.324226,517.541343 l 0.834396,-3.614166 M 1233.352867,484.930257 l -9.499247,41.145760 M 1242.281233,530.720072 l 6.343720,-27.477671 M 1264.831991,517.504824 l -1.968096,8.524759"
       id="path72" />
  </g>
  <g
     inkscape:label="fill-707070"
     inkscape:groupmode="layer"
     id="fill-707070">
    <path
       style="stroke:#707070"
       d="M 1240.607096,314.689096 l -1.466236,6.350966 M 1237.921172,326.323112 l 0.440032,-1.905987 M 1237.183060,329.520225 l -1.890515,8.188719 M 1256.423725,330.642569 l 0.812013,-3.517213 M 1256.296574,331.193318 l -0.403566,1.748038 M 1254.144121,340.516618 l 0.226925,-0.982918 M 1251.883834,350.306994 l -0.589468,2.553265 M 1249.951890,358.675165 l 0.540576,-2.341493 M 1248.948623,363.020790 l -5.978841,25.897206 M 1272.072529,347.322968 l 0.322604,-1.397352 M 1270.754413,353.032355 l -1.023617,4.433774 M 1265.370082,376.354456 l 3.756679,-16.271965 M 1265.134819,377.373492 l -0.182446,0.790262 M 1261.815181,391.752423 l 2.914319,-12.623301 M 1296.299051,326.849191 l -1.185838,5.136428 M 1293.284677,339.905878 l 0.351183,-1.521141 M 1291.719945,346.683480 l -0.572843,2.481257 M 1289.761024,355.168498 l 0.753283,-3.262829 M 1289.308504,357.128576 l -0.169751,0.735273 M 1286.431574,369.589931 l 2.234757,-9.679797 M 1286.099671,371.027559 l -2.323254,10.063117 M 1280.824791,393.875574 l 1.398192,-6.056236 M 1315.326763,328.893935 l -0.450027,1.949283 M 1313.542929,336.620566 l 0.320135,-1.386655 M 1305.161045,372.926495 l -0.616076,2.668518 M 1303.801433,378.815622 l 0.336277,-1.456577 M 1303.504239,380.102911 l -3.886027,16.832232 M 1320.462640,391.110824 l 2.575918,-11.157527"
       id="path75" />
  </g>
  <g
     inkscape:label="fill-757575"
     inkscape:groupmode="layer"
     id="fill-757575">
    <path
       style="stroke:#757575"
       d="M 777.028165,952.656455 l -7.281037,45.970656 M 784.956720,1030.446592 l 13.021549,-82.214824 M 815.379853,966.211556 l -9.269150,58.523107 M 827.264686,1019.022736 l 5.516750,-34.831391 M 850.183021,1002.171133 l -1.764351,11.139675"
       id="path78" />
  </g>
  <g
     inkscape:label="fill-7e7e7e"
     inkscape:groupmode="layer"
     id="fill-7e7e7e">
    <path
       style="stroke:#7e7e7e"
       d="M 906.907795,1043.774635 l -0.330730,9.470858 M 927.806325,1047.046921 l 1.618365,-46.343900 M 951.346652,974.668020 l -2.311068,66.180329 M 970.709964,1021.903191 l 1.847234,-52.897847 M 993.767743,963.342669 l -0.532811,15.257715"
       id="path81" />
    <path
       style="stroke:#7e7e7e"
       d="M 976.998250,841.830236 l -1.553470,44.485569 M 996.944768,872.364563 l 1.532263,-43.878283 M 1019.955814,815.142324 l -0.443831,12.709650"
       id="path83" />
  </g>
  <g
     inkscape:label="fill-868686"
     inkscape:groupmode="layer"
     id="fill-868686">
    <path
       style="stroke:#868686"
       d="M 607.201963,709.674323 l 0.123024,2.347436 M 629.784069,720.205463 l -0.481627,-9.189984 M 651.402921,712.356635 l 0.840229,16.032531 M 674.702231,736.572870 l -1.198832,-22.875079 M 695.603878,715.038947 l 1.557435,29.717626 M 719.620394,752.940277 l -1.916038,-36.560174 M 740.428052,729.612950 l 1.651423,31.511031 M 876.834250,810.231677 l -0.143714,-2.742235 M 898.020310,794.124675 l 1.272962,24.289558 M 921.752293,826.596790 l -2.638130,-50.338518 M 941.565346,784.291262 l 2.645968,50.488084 M 966.670335,842.961902 l -2.653807,-50.637650 M 986.467711,800.357243 l 1.806086,34.462181 M 1009.609572,821.569148 l -0.690678,-13.178915"
       id="path86" />
  </g>
  <g
     inkscape:label="fill-8d8d8d"
     inkscape:groupmode="layer"
     id="fill-8d8d8d">
    <path
       style="stroke:#8d8d8d"
       d="M 879.143551,469.733803 l 0.439918,2.777530 M 902.680973,471.316809 l -0.861907,-5.441866 M 902.940265,472.953919 l 2.171699,13.711566 M 932.074809,509.875764 l -7.770616,-49.061741 M 950.404030,478.575489 l 8.936469,56.422647 M 984.243234,545.201387 l -11.573788,-73.074022 M 990.286916,436.333271 l 17.585270,111.029024 M 1030.563072,543.600489 l -19.186156,-121.136621 M 1032.903476,411.350793 l 20.289878,128.105248 M 1054.872988,550.060834 l -1.195567,-7.548511 M 1057.499841,419.619704 l 0.734633,4.638287 M 1074.846701,529.143466 l -16.306304,-102.953949 M 1089.714201,475.986743 l 0.549449,3.469085 M 1097.307240,523.927306 l -6.840095,-43.186660 M 1115.135242,489.462457 l 1.390368,8.778438 M 1121.397916,529.003423 l -4.343152,-27.421585 M 1142.751414,516.797680 l 3.995783,25.228379 M 1172.329766,556.521621 l -3.728851,-23.543035 M 1194.979230,552.498286 l 2.967009,18.732955 M 1224.125123,589.491784 l -4.033149,-25.464298 M 1245.533016,577.629477 l 1.626360,10.268431 M 1249.913802,605.288671 l -1.931082,-12.192372 M 1271.501574,594.562080 l 1.785521,11.273336 M 1275.398686,619.167474 l -1.738275,-10.975034 M 1296.258531,603.844930 l 1.946665,12.290762 M 1300.541223,630.884780 l -1.878545,-11.860666 M 1320.955172,612.746957 l 3.708985,23.417613 M 1325.192030,639.497425 l -0.383793,-2.423177 M 1345.043386,617.807532 l 4.093611,25.846041 M 1372.915608,646.759394 l -3.061514,-19.329636 M 1392.490174,623.321915 l 0.201589,1.272780 M 1395.272038,640.885915 l -1.583131,-9.995497 M 1395.714806,643.681441 l 0.537857,3.395898 M 1419.164488,644.710481 l -0.281555,-1.777667 M 1441.772264,640.423935 l 0.003417,0.021576"
       id="path89" />
  </g>
  <g
     inkscape:label="fill-8e8e8e"
     inkscape:groupmode="layer"
     id="fill-8e8e8e">
    <path
       style="stroke:#8e8e8e"
       d="M 1163.146701,401.096671 l 1.035818,6.539895 M 1165.463603,415.725017 l -0.210314,-1.327872 M 1165.946806,418.775835 l 0.333866,2.107947 M 1177.864634,346.995617 l -3.441248,-21.727183 M 1178.009895,347.912761 l 0.309766,1.955784 M 1179.394212,356.652993 l -1.053231,-6.649842 M 1179.735976,358.810806 l 7.413947,46.809816 M 1188.251257,412.574177 l -0.460186,-2.905498 M 1204.237793,366.482765 l 2.074809,13.099829 M 1206.803751,382.683589 l -0.164466,-1.038397 M 1207.179117,385.053558 l 0.843852,5.327869 M 1209.356642,398.801909 l -0.944732,-5.964802 M 1209.371611,398.896420 l 1.322138,8.347650"
       id="path92" />
  </g>
  <g
     inkscape:label="fill-8f8f8f"
     inkscape:groupmode="layer"
     id="fill-8f8f8f">
    <path
       style="stroke:#8f8f8f"
       d="M 1239.941006,375.482407 l 2.201578,12.485770 M 1243.251237,394.255658 l -0.371150,-2.104894 M 1254.452466,319.570496 l 0.032492,0.184273 M 1256.757778,332.644569 l -1.508215,-8.553513 M 1257.630683,337.595057 l 0.069068,0.391705 M 1260.478241,353.744365 l -0.702271,-3.982774 M 1260.944018,356.385916 l 3.898903,22.111780 M 1267.179726,391.750376 l -2.252147,-12.772563 M 1282.287356,339.219509 l 0.245671,1.393271 M 1283.359176,345.298101 l -0.718853,-4.076819 M 1284.242946,350.310210 l 4.769574,27.049599 M 1292.483459,397.044480 l -2.386690,-13.535594 M 1303.487992,321.243800 l 0.389035,2.206328 M 1304.981253,329.712501 l -0.591028,-3.351888 M 1305.259549,331.290800 l 0.321056,1.820798 M 1306.276444,337.057896 l -0.614274,-3.483719 M 1306.384358,337.669906 l 0.339665,1.926336 M 1313.067415,375.571409 l -0.184821,-1.048174 M 1313.291728,376.843549 l 3.073262,17.429335 M 1338.674950,382.588462 l -0.193907,-1.099703 M 1338.897971,383.853275 l 0.181367,1.028583"
       id="path95" />
  </g>
  <g
     inkscape:label="fill-909090"
     inkscape:groupmode="layer"
     id="fill-909090">
    <path
       style="stroke:#909090"
       d="M 1139.756273,401.606737 l 0.869100,4.928914 M 1141.130644,409.401183 l -0.366914,-2.080873 M 1157.552746,502.535550 l 0.955404,5.418365 M 1172.201907,447.404578 l -3.808838,-21.600993 M 1173.251789,453.358754 l 2.364560,13.410084 M 1179.376572,488.094126 l -0.326122,-1.849529 M 1179.759961,490.268431 l 1.895681,10.750940 M 1183.019045,508.751618 l -1.101146,-6.244910 M 1196.981240,449.724666 l 1.423450,8.072785 M 1206.822299,505.536090 l -8.134986,-46.135799 M 1207.280106,508.132439 l 0.497437,2.821105 M 1209.470773,520.556331 l -1.264358,-7.170532 M 1209.487298,520.650050 l 0.536423,3.042205 M 1231.638838,508.067185 l -5.450956,-30.913906 M 1232.136193,510.887824 l 3.059011,17.348515 M 1259.530043,528.035575 l -3.636174,-20.621769"
       id="path98" />
  </g>
  <g
     inkscape:label="fill-929292"
     inkscape:groupmode="layer"
     id="fill-929292">
    <path
       style="stroke:#929292"
       d="M 642.842353,988.367852 l 5.200068,24.464398 M 671.272607,1006.688055 l -16.524121,-77.739875 M 666.654619,869.528507 l 27.848173,131.015352 M 717.732977,994.399663 l -39.172225,-184.290829 M 701.379076,802.026983 l 29.548462,139.014582 M 731.717676,944.758877 l -0.004740,-0.022299 M 727.524751,809.599091 l 26.791255,126.042946 M 764.374956,867.532049 l -10.215778,-48.061456"
       id="path101" />
  </g>
  <g
     inkscape:label="fill-999999"
     inkscape:groupmode="layer"
     id="fill-999999">
    <path
       style="stroke:#999999"
       d="M 626.757340,772.252001 l 2.303973,7.090901 M 660.615056,795.553637 l -3.972242,-12.225305 M 686.528287,794.404663 l 3.046164,9.375130"
       id="path104" />
    <path
       style="stroke:#999999"
       d="M 286.374498,695.481726 l 6.829930,21.020364 M 314.478412,701.074981 l -7.023128,-21.614966 M 328.536070,663.438303 l 7.216326,22.209568 M 357.026380,670.220762 l -7.409524,-22.804170 M 370.697642,631.394880 l 7.602722,23.398772 M 505.943212,562.227748 l -2.014122,-6.198830 M 519.701707,523.670342 l 7.515664,23.130835 M 548.491530,531.374606 l -9.128760,-28.095436 M 560.444489,487.260331 l 9.321200,28.687704 M 591.039847,500.521463 l -9.513639,-29.279972 M 602.607927,455.222653 l 9.706079,29.872239 M 633.588165,469.668321 l -9.898518,-30.464507 M 644.771366,423.184974 l 10.090958,31.056775 M 676.136482,438.815178 l -10.283398,-31.649043 M 686.934804,391.147296 l 10.475837,32.241311 M 718.684800,407.962036 l -10.668277,-32.833579 M 729.098243,359.109617 l 10.860716,33.425847 M 761.233117,377.108893 l -11.053156,-34.018115 M 771.261681,327.071939 l 11.245595,34.610383"
       id="path106" />
  </g>
  <g
     inkscape:label="fill-9c9c9c"
     inkscape:groupmode="layer"
     id="fill-9c9c9c">
    <path
       style="stroke:#9c9c9c"
       d="M 724.153933,1003.236038 l 6.921378,20.101140 M 760.398419,1031.708833 l -30.070791,-87.331917 M 759.466611,952.213829 l 10.106715,29.352031"
       id="path109" />
  </g>
  <g
     inkscape:label="fill-a3a3a3"
     inkscape:groupmode="layer"
     id="fill-a3a3a3">
    <path
       style="stroke:#a3a3a3"
       d="M 820.484149,844.052386 l 11.069510,26.078131 M 879.652404,916.902138 l -25.648856,-60.424917 M 887.522948,868.902055 l 40.228202,94.771704 M 959.710444,972.423219 l -37.723569,-88.871158 M 969.803705,929.659529 l 15.278354,35.993547"
       id="path112" />
  </g>
  <g
     inkscape:label="fill-a4a4a4"
     inkscape:groupmode="layer"
     id="fill-a4a4a4">
    <path
       style="stroke:#a4a4a4"
       d="M 1112.054765,694.159461 l 16.428370,35.230753 M 1152.332891,716.648737 l -15.525165,-33.293823 M 1161.560687,672.550367 l 5.638800,12.092445"
       id="path115" />
  </g>
  <g
     inkscape:label="fill-a5a5a5"
     inkscape:groupmode="layer"
     id="fill-a5a5a5">
    <path
       style="stroke:#a5a5a5"
       d="M 767.679336,759.327802 l 16.054200,34.428343 M 815.727724,798.480460 l -24.420247,-52.369389 M 823.167178,750.546979 l 24.554734,52.657797 M 879.716100,807.929091 l -24.689221,-52.946205 M 886.886581,759.418793 l 12.688662,27.210924"
       id="path118" />
  </g>
  <g
     inkscape:label="fill-a6a6a6"
     inkscape:groupmode="layer"
     id="fill-a6a6a6">
    <path
       style="stroke:#a6a6a6"
       d="M 580.727735,969.545426 l 8.254710,16.200780 M 633.211166,1013.077349 l -44.478557,-87.294083 M 596.737483,882.021106 l 48.385257,94.961413 M 653.674515,934.293712 l -48.932158,-96.034767 M 612.747232,794.496786 l 49.479058,97.108120 M 670.778065,848.916099 l -33.209194,-65.176713 M 678.648905,804.890882 l 0.680935,1.336410"
       id="path121" />
  </g>
  <g
     inkscape:label="fill-a9a9a9"
     inkscape:groupmode="layer"
     id="fill-a9a9a9">
    <path
       style="stroke:#a9a9a9"
       d="M 744.930543,937.807362 l 6.482802,12.192377 M 782.578944,951.102236 l -10.413173,-19.584330"
       id="path124" />
  </g>
  <g
     inkscape:label="fill-acacac"
     inkscape:groupmode="layer"
     id="fill-acacac">
    <path
       style="stroke:#acacac"
       d="M 386.633613,612.131753 l 17.152751,29.709436 M 429.566481,630.493663 l -30.762452,-53.282131 M 407.046255,535.487486 l 65.442281,113.349356 M 508.616187,655.411769 l -91.500984,-158.484353 M 450.405376,498.587687 l 92.073070,159.475236 M 508.560868,543.315954 l -24.426933,-42.308689 M 518.015533,559.691914 l 57.264219,99.184538 M 525.415698,516.509375 l -6.862971,-11.887014 M 542.624139,546.315271 l 49.467744,85.680647 M 583.582911,561.257944 l -18.025786,-31.221577"
       id="path127" />
  </g>
  <g
     inkscape:label="fill-adadad"
     inkscape:groupmode="layer"
     id="fill-adadad">
    <path
       style="stroke:#adadad"
       d="M 1241.139797,366.879169 l 17.378975,30.101268 M 1240.265097,309.364144 l -2.240235,-3.880202 M 1241.402170,311.333612 l 14.157059,24.520746 M 1257.452660,339.133876 l -0.701709,-1.215395 M 1258.592637,341.108373 l 0.483500,0.837446 M 1290.761375,396.826262 l -27.665596,-47.918218 M 1286.778303,333.927380 l 9.494568,16.445075 M 1321.322489,393.759664 l -13.039845,-22.585673 M 1315.684540,327.994451 l 4.312888,7.470140"
       id="path130" />
  </g>
  <g
     inkscape:label="fill-aeaeae"
     inkscape:groupmode="layer"
     id="fill-aeaeae">
    <path
       style="stroke:#aeaeae"
       d="M 761.231373,874.314186 l 63.373717,101.419148 M 903.813055,1049.654337 l -128.511435,-205.661286 M 814.038907,853.147431 l 104.818526,167.744707 M 933.901811,992.129938 l -35.643866,-57.042109"
       id="path133" />
    <path
       style="stroke:#aeaeae"
       d="M 1156.393888,502.779889 l 3.782710,6.053601 M 1173.269636,529.786731 l -1.058450,-1.693874 M 1162.256016,459.323016 l 11.086411,17.741966 M 1185.231181,496.090966 l -10.999317,-17.602586 M 1185.566818,496.628098 l 3.325008,5.321126 M 1199.844978,519.477931 l -10.629893,-17.011384 M 1184.095897,441.435896 l 41.583262,66.547130 M 1239.481116,530.070773 l -13.576857,-21.727513 M 1261.270473,512.102796 l 4.336757,6.940263 M 1269.944907,525.984792 l -3.576812,-5.724095"
       id="path135" />
    <path
       style="stroke:#aeaeae"
       d="M 1159.892884,402.702977 l 1.625611,2.601522 M 1163.350119,408.235710 l -1.727047,-2.763853 M 1166.177946,412.761179 l 1.254343,2.007368 M 1169.593022,418.226444 l -1.536706,-2.459243 M 1165.273079,358.474852 l 34.016429,54.437665 M 1191.319799,347.320080 l -12.676428,-20.286526 M 1195.520478,354.042571 l 20.394203,32.637548 M 1220.533827,394.072298 l -2.030923,-3.250157 M 1220.856550,394.588762 l 2.144908,3.432571"
       id="path137" />
  </g>
  <g
     inkscape:label="fill-aeaeae"
     inkscape:groupmode="layer"
     id="g139">
    <path
       style="stroke:#aeaeae"
       d="M 761.231373,874.314186 l 63.373717,101.419148 M 903.813055,1049.654337 l -128.511435,-205.661286 M 814.038907,853.147431 l 104.818526,167.744707 M 933.901811,992.129938 l -35.643866,-57.042109"
       id="path141" />
    <path
       style="stroke:#aeaeae"
       d="M 1156.393888,502.779889 l 3.782710,6.053601 M 1173.269636,529.786731 l -1.058450,-1.693874 M 1162.256016,459.323016 l 11.086411,17.741966 M 1185.231181,496.090966 l -10.999317,-17.602586 M 1185.566818,496.628098 l 3.325008,5.321126 M 1199.844978,519.477931 l -10.629893,-17.011384 M 1184.095897,441.435896 l 41.583262,66.547130 M 1239.481116,530.070773 l -13.576857,-21.727513 M 1261.270473,512.102796 l 4.336757,6.940263 M 1269.944907,525.984792 l -3.576812,-5.724095"
       id="path143" />
    <path
       style="stroke:#aeaeae"
       d="M 1159.892884,402.702977 l 1.625611,2.601522 M 1163.350119,408.235710 l -1.727047,-2.763853 M 1166.177946,412.761179 l 1.254343,2.007368 M 1169.593022,418.226444 l -1.536706,-2.459243 M 1165.273079,358.474852 l 34.016429,54.437665 M 1191.319799,347.320080 l -12.676428,-20.286526 M 1195.520478,354.042571 l 20.394203,32.637548 M 1220.533827,394.072298 l -2.030923,-3.250157 M 1220.856550,394.588762 l 2.144908,3.432571"
       id="path145" />
  </g>
  <g
     inkscape:label="fill-afafaf"
     inkscape:groupmode="layer"
     id="fill-afafaf">
    <path
       style="stroke:#afafaf"
       d="M 882.043080,468.640011 l 2.527389,4.044668 M 916.134301,470.359131 l -5.446764,-8.716645 M 917.512213,472.564252 l 38.395498,61.445642 M 997.261189,547.351054 l -43.375298,-69.414987 M 977.379840,462.696006 l 51.006245,81.627055 M 1041.858104,565.882799 l -0.784736,-1.255840 M 1043.384116,568.324929 l 1.206053,1.930088 M 1060.193406,542.387179 l -68.043373,-108.892160 M 1017.176664,420.707763 l 67.638898,108.244863 M 1052.100387,423.759166 l -12.302938,-19.688817 M 1052.370887,424.192056 l 29.596080,47.363629 M 1118.458461,529.954283 l -35.976916,-57.575100 M 1129.170728,494.259256 l 2.074082,3.319226 M 1165.217989,551.946932 l -22.096876,-35.362393 M 1200.275819,555.212950 l 20.771833,33.241882 M 1258.796066,596.026685 l -11.148488,-17.841310 M 1261.717963,600.702698 l 13.982307,22.376369 M 1306.292135,619.198047 l -9.911544,-15.861786 M 1307.677371,621.414888 l 8.926560,14.285483 M 1337.218438,615.852239 l -0.756774,-1.211091 M 1338.065179,617.207308 l 17.560140,28.102098 M 1375.806881,624.768419 l -1.069060,-1.710854 M 1377.984838,628.253880 l 12.667995,20.273029 M 1409.857365,626.422347 l -4.977954,-7.966392 M 1413.220460,631.804424 l 0.886199,1.418214 M 1421.245866,644.647758 l -3.663470,-5.862778 M 1448.982691,636.197719 l 1.794532,2.871851"
       id="path148" />
  </g>
  <g
     inkscape:label="fill-b3b3b3"
     inkscape:groupmode="layer"
     id="fill-b3b3b3">
    <path
       style="stroke:#b3b3b3"
       d="M 309.191225,704.902891 l 4.470152,6.152636 M 337.217416,694.139886 l -4.552236,-6.265615 M 356.139134,670.845650 l 4.634320,6.378595 M 384.329493,660.308604 l -4.716405,-6.491574 M 406.254479,641.148011 l 1.631053,2.244952 M 523.956676,556.462452 l -3.479472,-4.789083 M 543.951836,534.645682 l 5.209578,7.170369 M 572.764968,524.965810 l -5.338500,-7.347815 M 590.901100,500.590307 l 5.419672,7.459538 M 619.876576,491.133882 l -5.500844,-7.571262 M 637.850365,466.534932 l 5.582016,7.682986 M 666.988185,457.301954 l -5.663188,-7.794709 M 684.799629,432.479557 l 5.744360,7.906433 M 714.099793,423.470027 l -5.825532,-8.018157 M 731.748894,398.424183 l 5.906704,8.129880 M 761.211402,389.638099 l -5.987876,-8.241604 M 778.698158,364.368808 l 6.069048,8.353327 M 808.323010,355.806171 l -2.875587,-3.957906"
       id="path151" />
  </g>
  <g
     inkscape:label="fill-bbbbbb"
     inkscape:groupmode="layer"
     id="fill-bbbbbb">
    <path
       style="stroke:#bbbbbb"
       d="M 533.801792,705.217679 l 41.791551,48.075680 M 634.241067,775.032256 l -58.470992,-67.263182 M 624.774419,718.414531 l 68.114373,78.356622 M 751.536516,818.510050 l -68.566212,-78.876404 M 741.166190,760.852762 l 16.876185,19.413830 M 810.184241,840.248947 l -42.460392,-48.845093 M 813.331387,798.141732 l 55.500578,63.846112 M 927.479690,883.726740 l -68.540764,-78.847130 M 915.725961,824.478029 l 48.388789,55.664934"
       id="path154" />
  </g>
  <g
     inkscape:label="fill-cdcdcd"
     inkscape:groupmode="layer"
     id="fill-cdcdcd">
    <path
       style="stroke:#cdcdcd"
       d="M 1155.472178,503.804352 l 7.545998,5.482488 M 1176.932269,519.396020 l -4.561117,-3.313845 M 1158.918022,466.753728 l 89.513643,65.035469 M 1208.741715,463.398585 l -57.344314,-41.663083"
       id="path157" />
    <path
       style="stroke:#cdcdcd"
       d="M 382.661845,654.299933 l 4.557209,3.311006 M 445.937998,660.718575 l -23.034806,-16.735766 M 489.154116,652.562747 l 15.502827,11.263463 M 563.375888,666.933845 l -11.670881,-8.479391 M 590.853220,647.343120 l 31.241613,22.698360 M 680.813777,673.149116 l -38.917484,-28.275207 M 700.167022,647.655896 l 39.365700,28.600855 M 798.251667,679.364386 l -39.813916,-28.926503 M 816.708479,653.219870 l 40.262132,29.252151 M 915.689556,685.579657 l -40.710348,-29.577799 M 933.249937,658.783845 l 41.158564,29.903447 M 1033.127445,691.794927 l -41.606780,-30.229095 M 1049.791394,664.347819 l 42.054996,30.554743 M 1132.809670,685.109952 l -24.747547,-17.980145 M 1166.332851,669.911794 l 0.476235,0.346005"
       id="path159" />
  </g>
  <g
     inkscape:label="fill-cdcdcd"
     inkscape:groupmode="layer"
     id="g161">
    <path
       style="stroke:#cdcdcd"
       d="M 1155.472178,503.804352 l 7.545998,5.482488 M 1176.932269,519.396020 l -4.561117,-3.313845 M 1158.918022,466.753728 l 89.513643,65.035469 M 1208.741715,463.398585 l -57.344314,-41.663083"
       id="path163" />
    <path
       style="stroke:#cdcdcd"
       d="M 382.661845,654.299933 l 4.557209,3.311006 M 445.937998,660.718575 l -23.034806,-16.735766 M 489.154116,652.562747 l 15.502827,11.263463 M 563.375888,666.933845 l -11.670881,-8.479391 M 590.853220,647.343120 l 31.241613,22.698360 M 680.813777,673.149116 l -38.917484,-28.275207 M 700.167022,647.655896 l 39.365700,28.600855 M 798.251667,679.364386 l -39.813916,-28.926503 M 816.708479,653.219870 l 40.262132,29.252151 M 915.689556,685.579657 l -40.710348,-29.577799 M 933.249937,658.783845 l 41.158564,29.903447 M 1033.127445,691.794927 l -41.606780,-30.229095 M 1049.791394,664.347819 l 42.054996,30.554743 M 1132.809670,685.109952 l -24.747547,-17.980145 M 1166.332851,669.911794 l 0.476235,0.346005"
       id="path165" />
  </g>
  <g
     inkscape:label="fill-cecece"
     inkscape:groupmode="layer"
     id="fill-cecece">
    <path
       style="stroke:#cecece"
       d="M 1240.250912,371.952649 l 27.753598,20.164170 M 1255.193191,343.254676 l -21.167419,-15.379030 M 1261.892715,348.122164 l 34.419820,25.007463 M 1324.320093,393.478310 l -26.182691,-19.022839 M 1289.948486,328.951700 l 18.241825,13.253461"
       id="path168" />
  </g>
  <g
     inkscape:label="fill-cfcfcf"
     inkscape:groupmode="layer"
     id="fill-cfcfcf">
    <path
       style="stroke:#cfcfcf"
       d="M 1153.609978,409.513046 l 1.785745,1.250392 M 1165.550200,417.873678 l -1.709662,-1.197118 M 1165.683528,417.967036 l 3.237439,2.266879 M 1209.459273,408.333581 l -45.786975,-32.060385 M 1214.983795,412.201893 l 13.801175,9.663687 M 1204.464028,364.550311 l -37.498932,-26.257035"
       id="path171" />
    <path
       style="stroke:#cfcfcf"
       d="M 891.114298,467.424960 l 116.802057,81.785681 M 1044.007692,574.482067 l -6.618877,-4.634587 M 958.742124,474.492912 l 101.190902,70.854633 M 1093.615113,528.646434 l -112.438837,-78.730521 M 1002.825852,424.789548 l 296.077277,207.315541 M 1067.123718,429.525837 l -34.990587,-24.500672 M 1325.762560,610.626703 l 2.725348,1.908309 M 1380.426355,648.902705 l -48.647696,-34.063483 M 1396.341038,619.760725 l 0.367905,0.257610 M 1409.915237,629.265481 l -8.889536,-6.224520 M 1412.674813,631.197757 l 2.808631,1.966624 M 1430.595466,643.745933 l -12.192767,-8.537467 M 1465.777115,628.094828 l 0.616631,0.431770"
       id="path173" />
  </g>
  <g
     inkscape:label="fill-cfcfcf"
     inkscape:groupmode="layer"
     id="g175">
    <path
       style="stroke:#cfcfcf"
       d="M 1153.609978,409.513046 l 1.785745,1.250392 M 1165.550200,417.873678 l -1.709662,-1.197118 M 1165.683528,417.967036 l 3.237439,2.266879 M 1209.459273,408.333581 l -45.786975,-32.060385 M 1214.983795,412.201893 l 13.801175,9.663687 M 1204.464028,364.550311 l -37.498932,-26.257035"
       id="path177" />
    <path
       style="stroke:#cfcfcf"
       d="M 891.114298,467.424960 l 116.802057,81.785681 M 1044.007692,574.482067 l -6.618877,-4.634587 M 958.742124,474.492912 l 101.190902,70.854633 M 1093.615113,528.646434 l -112.438837,-78.730521 M 1002.825852,424.789548 l 296.077277,207.315541 M 1067.123718,429.525837 l -34.990587,-24.500672 M 1325.762560,610.626703 l 2.725348,1.908309 M 1380.426355,648.902705 l -48.647696,-34.063483 M 1396.341038,619.760725 l 0.367905,0.257610 M 1409.915237,629.265481 l -8.889536,-6.224520 M 1412.674813,631.197757 l 2.808631,1.966624 M 1430.595466,643.745933 l -12.192767,-8.537467 M 1465.777115,628.094828 l 0.616631,0.431770"
       id="path179" />
  </g>
  <g
     inkscape:label="fill-d4d4d4"
     inkscape:groupmode="layer"
     id="fill-d4d4d4">
    <path
       style="stroke:#d4d4d4"
       d="M 372.156990,678.869027 l 30.625513,18.401665 M 474.056730,701.597666 l -71.890258,-43.196025 M 472.438945,662.126701 l 72.892012,43.797939 M 616.605184,710.251614 l -73.893765,-44.399854 M 612.983893,669.576821 l 74.895519,45.001768 M 759.153638,718.905563 l -75.897272,-45.603682 M 753.528840,677.026941 l 76.899025,46.205596 M 901.702092,727.559511 l -77.900779,-46.807510 M 894.073787,684.477061 l 78.902532,47.409424 M 1044.250547,736.213459 l -79.904285,-48.011338 M 1034.618735,691.927181 l 73.795233,44.340649 M 1108.363492,697.738599 l -3.472284,-2.086359"
       id="path182" />
  </g>
</svg>
