<?xml version="1.0" encoding="UTF-8" standalone="no"?>
<!-- Created with Inkscape (http://www.inkscape.org/) -->

<svg
   xmlns:dc="http://purl.org/dc/elements/1.1/"
   xmlns:cc="http://creativecommons.org/ns#"
   xmlns:rdf="http://www.w3.org/1999/02/22-rdf-syntax-ns#"
   xmlns:svg="http://www.w3.org/2000/svg"
   xmlns="http://www.w3.org/2000/svg"
   xmlns:sodipodi="http://sodipodi.sourceforge.net/DTD/sodipodi-0.dtd"
   xmlns:inkscape="http://www.inkscape.org/namespaces/inkscape"
   id="svg2"
   version="1.1"
   inkscape:version="0.48.3.1 r9886"
   width="1000"
   height="1494"
   sodipodi:docname="hantologie-_0018_kepi_hatched_1398280452.svg">
  <defs
     id="defs27" />
  <sodipodi:namedview
     pagecolor="#ffffff"
     bordercolor="#666666"
     borderopacity="1"
     objecttolerance="10"
     gridtolerance="10"
     guidetolerance="10"
     inkscape:pageopacity="0"
     inkscape:pageshadow="2"
     inkscape:window-width="640"
     inkscape:window-height="480"
     id="namedview25" />
  <metadata
     id="metadata8">
    <rdf:RDF>
      <cc:Work
         rdf:about="">
        <dc:format>image/svg+xml </dc:format>
        <dc:type
           rdf:resource="http://purl.org/dc/dcmitype/StillImage" />
        <dc:title />
      </cc:Work>
    </rdf:RDF>
  </metadata>
  <g
     inkscape:label="fill-151515"
     inkscape:groupmode="layer"
     id="fill-151515">
    <path
       style="stroke:#151515"
       d="M 415.244601,500.510733 l -0.377146,0.773264 M 424.517312,515.716439 l 0.651021,-1.334790 M 431.476735,524.259229 l -0.549537,1.126719 M 464.447201,502.283195 l 6.111152,-12.529719 M 468.710568,504.947858 l -7.139063,14.637247 M 449.580006,578.388903 l 3.523389,-7.224019 M 456.295953,576.025030 l -9.658767,19.803408 M 145.316324,1213.627759 l 22.076969,-45.264494 M 459.434240,580.996450 l -6.439946,13.203847 M 149.031941,1217.415475 l 79.323200,-162.636662 M 462.572526,585.967870 l -4.890677,10.027374 M 235.334263,1051.875353 l 47.486501,-97.361754 M 230.612671,1061.556052 l -4.606724,9.445184 M 218.696282,1085.988269 l 5.862076,-12.019038 M 217.720619,1087.988675 l -13.246848,27.160063 M 153.438837,1219.785861 l 49.670078,-101.838751 M 465.706343,590.948453 l -3.915767,8.028512 M 303.401468,923.722763 l 39.956259,-81.922471 M 298.731373,933.297876 l -22.934018,47.021706 M 263.022677,1006.511551 l 1.102487,-2.260433 M 226.776499,1080.827231 l -25.161797,51.589329 M 159.631471,1218.494939 l 34.966297,-71.691533 M 468.771303,596.070214 l -3.380318,6.930678 M 365.486875,807.834674 l 40.336901,-82.702902 M 298.000000,946.203273 l -4.734640,9.707450 M 232.017121,1081.488224 l 56.693227,-116.238341 M 230.117244,1085.383548 l -2.820328,5.782530 M 216.994954,1112.288229 l 8.539821,-17.509228 M 202.100047,1142.827314 l -36.132994,74.083616 M 468.427629,608.180711 l 3.408634,-6.988736 M 421.770741,703.841508 l -18.270276,37.459618 M 400.221703,748.023583 l 3.167684,-6.494714 M 398.883682,750.766933 l -5.341347,10.951384 M 351.547143,847.821219 l 8.860231,-18.166166 M 312.283535,928.323547 l -6.002420,12.306785 M 302.453752,948.477587 l 1.965188,-4.029233 M 274.465583,1005.861838 l -59.185749,121.348769 M 491.193891,572.908817 l 3.556575,-7.292060 M 479.891423,596.082309 l -1.527818,3.132491 M 470.163066,616.028398 l 4.738157,-9.714661 M 417.212872,724.592384 l -26.086993,53.486263 M 377.729450,805.545395 l 4.664590,-9.563827 M 370.465550,820.438597 l -5.283085,10.831929 M 355.947053,850.205928 l 1.901206,-3.898050 M 333.260465,896.720325 l -4.451076,9.126059 M 327.249874,909.043864 l 0.760877,-1.560030 M 299.568559,965.798971 l -4.336223,8.890575 M 494.373531,577.795448 l 2.436464,-4.995492 M 477.966182,611.435498 l -9.565432,19.612042 M 364.389091,844.303045 l 7.527366,-15.433387 M 326.274450,922.449640 l -4.439546,9.102419 M 497.915220,581.939769 l 0.948000,-1.943688 M 481.120668,616.373704 l -14.772770,30.288668 M 372.958877,838.138239 l 37.321659,-76.520742 M 484.612314,620.620629 l -16.743974,34.330234 M 504.053307,592.166546 l 2.485451,-5.095929 M 487.912336,625.260441 l -7.178563,14.718235 M 563.014244,482.684572 l 20.143884,-41.301082 M 542.258115,525.240942 l -0.620738,1.272701 M 374.839925,1085.210444 l 0.298156,-0.611311 M 295.422870,1396.315719 l -4.802284,9.846141 M 292.022303,1414.693774 l 2.934038,-6.015670 M 310.477318,1411.072966 l -1.643264,3.369190 M 616.445751,840.774014 l 1.392199,-2.854430 M 626.419890,854.541580 l -1.281590,2.627648 M 628.680468,861.312567 l 1.226404,-2.514500 M 633.403646,863.034477 l -0.746551,1.530657 M 720.511225,1003.801559 l 0.346493,-0.710416 M 723.929141,1008.199652 l -0.899017,1.843258 M 726.106843,1015.140562 l 0.883834,-1.812128 M 732.497049,1024.850418 l -0.734527,1.506004 M 734.491905,1032.166218 l 0.765900,-1.570328 M 737.816476,1036.755697 l -0.841362,1.725048 M 742.913802,1049.116351 l 0.651740,-1.336265"
       id="path5" />
  </g>
  <g
     inkscape:label="fill-2f2f2f"
     inkscape:groupmode="layer"
     id="fill-2f2f2f">
    <path
       style="stroke:#2f2f2f"
       d="M 391.598444,461.578424 l -0.299366,0.822502 M 395.244876,469.102761 l 0.620386,-1.704497 M 400.134247,473.212150 l -0.928626,2.551380 M 403.091138,482.630985 l 1.341986,-3.687076 M 408.481041,485.365175 l -1.541092,4.234115 M 410.787696,496.570519 l 1.649823,-4.532852 M 165.466021,1170.586280 l -17.699857,48.629958 M 414.758326,503.204128 l 1.716728,-4.716671 M 185.175870,1133.976741 l -31.915563,87.687289 M 418.877858,509.428634 l 1.814521,-4.985355 M 204.885720,1097.367202 l -44.956964,123.518243 M 422.878327,515.980262 l 2.002267,-5.501184 M 224.595569,1060.757663 l -56.096464,154.123767 M 426.887034,522.509258 l 2.098242,-5.764873 M 244.305418,1024.148124 l -57.414850,157.746004 M 430.902783,529.018903 l 2.188046,-6.011607 M 264.015267,987.538584 l -57.451922,157.847858 M 434.918533,535.528548 l 2.346700,-6.447505 M 283.694857,951.012181 l -57.038787,156.712781 M 438.934282,542.038194 l 2.556724,-7.024543 M 303.318651,914.639078 l -57.686267,158.491715 M 470.067999,474.041835 l 4.841396,-13.301626 M 445.610644,541.237866 l -2.600911,7.145946 M 265.423543,1036.297857 l 57.518901,-158.031882 M 473.133106,483.163350 l -12.171620,33.441252 M 447.135870,554.590169 l 2.304858,-6.332546 M 342.656327,841.645353 l -58.103568,159.638240 M 463.864857,526.170480 l 9.034085,-24.820946 M 453.415343,554.880286 l -2.048129,5.627189 M 303.601701,966.489884 l 58.911997,-161.859382 M 457.499858,561.200999 l -2.120461,5.825920 M 446.554581,591.272901 l 7.982513,-21.931775 M 382.459647,767.372285 l -60.112095,165.156624 M 459.936696,572.048668 l 1.649894,-4.533045 M 458.738293,575.341252 l -7.695254,21.142536 M 440.480209,625.504926 l 1.269952,-3.489164 M 402.313120,730.368143 l -59.557228,163.632140 M 457.109303,597.359694 l 8.564018,-23.529447 M 421.634413,694.826151 l -60.697236,166.764286 M 467.444493,586.506818 l 2.321590,-6.378517 M 466.708522,588.528882 l -4.517594,12.411988 M 379.511336,828.101182 l 44.811639,-123.118967 M 473.734637,586.767616 l -1.778974,4.887691 M 466.542448,606.527993 l 4.326987,-11.888299 M 414.660428,749.072671 l -16.348921,44.918293 M 468.784670,617.910366 l 9.067692,-24.913278 M 498.651186,553.395613 l -7.609852,20.907896 M 463.126806,650.998045 l 19.752875,-54.270578 M 522.298706,505.967413 l -8.668668,23.816969 M 495.072999,580.769428 l 3.864319,-10.617130 M 488.490926,598.853525 l -0.604984,1.662181 M 485.653658,606.648855 l 0.096586,-0.265369 M 484.554817,609.667893 l -24.562254,67.484237 M 536.067827,485.679889 l 6.310875,-17.338988 M 521.188202,526.561322 l -2.942457,8.084334 M 499.132439,587.159033 l 2.650284,-7.281596 M 490.332372,611.337018 l -0.893127,2.453846 M 477.139846,647.583187 l 10.476820,-28.784826 M 561.650097,432.936008 l -4.940083,13.572765 M 543.186452,483.664454 l 3.730072,-10.248288 M 510.458489,573.583792 l -7.238143,19.886635 M 493.601208,619.898793 l 0.889464,-2.443783 M 491.961366,624.404222 l -1.989619,5.466434 M 516.106270,575.609469 l 16.242060,-44.624693 M 496.236604,630.200928 l -1.968379,5.408078 M 423.862040,829.048408 l 1.185592,-3.257388 M 558.371641,477.029144 l -22.982315,63.143392 M 502.130601,631.550131 l 0.657144,-1.805488 M 500.278050,636.639973 l -1.801055,4.948358 M 421.695173,852.544654 l 0.454528,-1.248806 M 578.314033,439.780699 l -22.981460,63.141041 M 502.652909,647.657926 l 1.689126,-4.640835 M 584.589367,440.082187 l -8.872328,24.376521 M 506.754652,653.931309 l 1.516443,-4.166392 M 409.713050,920.550919 l -9.784557,26.882850 M 510.750697,660.495091 l 1.330742,-3.656184 M 515.790360,664.191558 l -1.155252,3.174028 M 385.982283,1020.836318 l 7.911644,-21.737062 M 328.124415,1179.799503 l -2.942426,8.084249 M 518.433203,674.473233 l 1.051480,-2.888917 M 386.871468,1035.936129 l -13.562262,37.262009 M 333.020511,1183.890417 l 2.050936,-5.634901 M 320.241859,1218.999475 l -3.945449,10.840031 M 522.260750,681.499958 l 0.801265,-2.201458 M 379.873016,1072.707044 l -12.843227,35.286476 M 323.655069,1227.164584 l 6.752696,-18.552880 M 310.848677,1262.349856 l -1.675621,4.603732 M 526.095997,688.505532 l 0.877660,-2.411352 M 371.854370,1112.280917 l -8.762718,24.075370 M 317.402552,1261.886059 l 4.325238,-11.883494 M 530.985204,692.615372 l -0.974768,2.678153 M 357.879065,1168.220580 l 6.591587,-18.110235 M 354.133761,1178.510718 l -3.021878,8.302541 M 306.153842,1310.334462 l 9.090119,-24.974896 M 294.336857,1342.801362 l -3.592776,9.871070 M 533.927270,702.074937 l 1.065783,-2.928216 M 313.389741,1307.996820 l -13.660239,37.531197 M 537.979022,708.485669 l 0.898690,-2.469131 M 347.490081,1231.849732 l -5.126539,14.085051 M 292.769112,1382.194357 l 13.680214,-37.586079 M 542.425166,713.812813 l -0.268865,0.738700 M 334.937377,1283.880830 l 5.516579,-15.156677 M 303.628759,1369.900550 l -15.803204,43.418946 M 321.311730,1338.859813 l 3.117375,-8.564918 M 300.277184,1396.651752 l -7.025856,19.303380 M 321.530082,1355.802722 l 3.501567,-9.620475 M 313.110713,1378.934747 l -6.125392,16.829376 M 300.105766,1414.665546 l 2.101822,-5.774710 M 317.598589,1384.147235 l -12.606218,34.635300 M 576.341386,760.971377 l 0.240439,-0.660601 M 580.215818,767.869289 l -2.254182,6.193315 M 581.408634,782.134879 l 1.699488,-4.669305 M 608.484460,813.001617 l -0.442968,1.217045 M 610.640983,824.619446 l 1.684625,-4.628470 M 615.795677,827.999866 l -2.833228,7.784230 M 616.554081,843.458994 l 2.567078,-7.052989 M 622.267116,845.305386 l -1.826731,5.018902 M 624.381819,857.038114 l 1.833306,-5.036967 M 630.595852,857.508026 l -2.204820,6.057694 M 632.624124,869.478220 l 2.499078,-6.866160 M 639.708848,867.555926 l -2.076156,5.704193 M 642.510266,877.401920 l 1.389675,-3.818100 M 651.354654,888.187816 l -1.242581,3.413964 M 652.951724,901.342731 l 2.156762,-5.925655 M 659.231458,901.632130 l -2.735671,7.516193 M 661.704332,912.380791 l 1.902576,-5.227284 M 667.997385,912.633594 l -1.216687,3.342819 M 671.876208,919.519444 l 0.387253,-1.063969 M 676.120725,925.400556 l -0.418152,1.148862 M 679.220273,934.427444 l 0.745293,-2.047674 M 683.735485,939.564827 l -0.731299,2.009228 M 687.326189,947.242276 l 0.552140,-1.516992 M 692.083011,951.715841 l -0.524170,1.440145 M 700.250469,964.361587 l 0.328340,-0.902108 M 708.418010,977.007106 l -1.048005,2.879370 M 710.761834,988.110329 l 1.414435,-3.886129 M 715.995027,991.275074 l -1.709189,4.695957 M 716.768341,1006.693237 l 3.239524,-8.900520 M 723.957239,1004.484730 l -4.052576,11.134360 M 733.337721,996.254893 l 0.448069,-1.231060 M 727.762394,1011.572980 l -3.552318,9.759914 M 726.918308,1031.434913 l 4.584752,-12.596502 M 741.848079,1007.958530 l -2.024592,5.562520 M 737.486009,1019.943218 l 0.587833,-1.615058 M 735.212466,1026.189727 l -4.557526,12.521700 M 743.637476,1020.585030 l 2.206367,-6.061943 M 738.862482,1033.704216 l -4.331219,11.899927 M 747.465080,1027.611598 l 2.341552,-6.433361 M 742.490918,1041.277997 l -3.697743,10.159464 M 750.813825,1035.953826 l 2.949862,-8.104680 M 746.177561,1048.691855 l -2.309435,6.345121 M 754.626991,1043.020064 l 3.070862,-8.437123 M 753.313385,1046.629167 l -0.951572,2.614423 M 748.328991,1060.323676 l 1.872243,-5.143946 M 761.632018,1041.316738 l -3.132339,8.606031 M 756.507920,1055.395079 l 0.985547,-2.707769 M 754.479369,1060.968479 l -1.525014,4.189942 M 762.726204,1055.853311 l 2.781632,-7.642470 M 758.851934,1066.497781 l -1.204976,3.310645 M 767.187715,1061.138237 l 2.166544,-5.952530 M 763.031884,1072.556290 l -0.618527,1.699389 M 772.641352,1063.697320 l 0.435979,-1.197842 M 767.330411,1078.289009 l -0.665592,1.828699 M 776.417201,1070.866085 l 0.436290,-1.198698 M 771.315125,1084.883926 l -0.490994,1.348994 M 798.123297,1134.028862 l 0.474834,-1.304596 M 812.508944,1164.675928 l -2.874067,7.896435 M 813.296735,1180.054316 l 2.877275,-7.905249 M 831.921890,1163.967776 l -0.536576,1.474231 M 835.070426,1172.860071 l 0.883069,-2.426212 M 839.933875,1177.040679 l -1.130215,3.105240 M 842.480681,1187.586216 l 1.413568,-3.883747 M 837.206277,1202.077521 l -1.203723,3.307201 M 846.068407,1195.271846 l 1.786216,-4.907587 M 840.290170,1211.147422 l -1.768457,4.858796 M 849.527011,1203.312234 l 2.253366,-6.191072 M 843.442014,1220.030626 l -1.919624,5.274124 M 853.103355,1211.029138 l 2.595662,-7.131524 M 846.642079,1228.781347 l -2.001943,5.500294 M 857.048238,1217.733488 l 2.565939,-7.049859 M 849.408267,1238.724134 l -0.621775,1.708313 M 860.499043,1225.795304 l 2.948157,-8.099995 M 867.290277,1224.679370 l -2.845347,7.817528 M 868.494399,1238.913898 l 2.659001,-7.305545 M 864.180046,1250.767485 l -1.152020,3.165150 M 871.358445,1248.587821 l 3.658077,-10.050483 M 867.842606,1258.247509 l -2.252845,6.189641 M 875.498042,1254.757198 l 3.375470,-9.274027 M 871.038640,1267.009306 l -2.713238,7.454560 M 879.163786,1262.228476 l 3.560957,-9.783648 M 886.488698,1259.646273 l -5.545708,15.236708 M 886.197797,1277.988342 l 4.068357,-11.177719 M 894.376251,1273.061052 l -0.357359,0.981837 M 891.592307,1280.709875 l 2.109956,-5.797056"
       id="path8" />
  </g>
  <g
     inkscape:label="fill-505050"
     inkscape:groupmode="layer"
     id="fill-505050">
    <path
       style="stroke:#505050"
       d="M 153.076235,1192.556410 l -5.872486,27.627876 M 154.742239,1223.196350 l 11.910075,-56.032498 M 180.206802,1141.872874 l -17.099165,80.445245 M 175.083770,1204.452720 l 18.661018,-87.793189 M 207.243016,1091.633238 l -18.791145,88.405384 M 201.965040,1154.942041 l 18.776204,-88.335096 M 234.237295,1041.590890 l -18.753098,88.226389 M 228.921286,1105.078621 l 18.805753,-88.474110 M 380.085779,432.383472 l -1.961913,9.230076 M 242.318044,1080.529707 l 18.898739,-88.911575 M 387.833774,434.409895 l -3.681206,17.318713 M 255.814578,1055.511378 l 18.898588,-88.910867 M 393.776032,444.931646 l -3.626872,17.063090 M 269.224833,1030.898965 l 19.002235,-89.398489 M 399.837427,454.892896 l -3.698493,17.400040 M 282.618612,1006.364065 l 19.122358,-89.963623 M 406.080075,464.001424 l -0.284469,1.338323 M 402.128709,482.591137 l 2.701686,-12.710431 M 315.254872,891.300406 l -19.242481,90.528757 M 408.132550,492.823163 l 2.564886,-12.066839 M 328.768774,866.200371 l -19.387083,91.209054 M 417.539775,487.043521 l 0.772655,-3.635055 M 417.158604,488.836792 l -2.989605,14.064985 M 322.764499,932.926140 l 19.518177,-91.825804 M 424.265606,493.878852 l -0.757844,3.565377 M 420.205448,512.980392 l 2.865944,-13.483208 M 355.796578,816.000302 l -19.604934,92.233961 M 429.705887,506.762215 l 0.753311,-3.544052 M 428.899972,510.553748 l -2.658075,12.505258 M 349.612269,883.573064 l 19.740355,-92.871069 M 435.283531,518.999336 l -3.002736,14.126762 M 362.978473,859.167891 l 19.965834,-93.931866 M 441.262563,529.348079 l -2.930403,13.786461 M 376.322792,834.865679 l 20.213199,-95.095624 M 447.487272,538.541001 l -3.103747,14.601981 M 389.667112,810.563467 l 20.393592,-95.944305 M 464.097988,498.871599 l -4.653859,21.894687 M 454.318746,544.879315 l 0.613792,-2.887663 M 453.359737,549.391098 l -2.924848,13.760326 M 402.896256,786.803111 l 20.650827,-97.154501 M 476.949719,476.886834 l -11.433936,53.792441 M 450.697828,600.392273 l 8.612161,-40.517032 M 424.364892,724.278994 l -1.362750,6.411235 M 284.524004,1382.178648 l 137.773592,-648.173789 M 478.111428,509.899297 l -0.523910,2.464804 M 458.890150,600.328303 l 6.432266,-30.261433 M 388.470273,931.627775 l -1.236067,5.815239 M 379.308729,974.729450 l 0.414501,-1.950073 M 373.774879,1000.764168 l -0.762833,3.588846 M 285.484184,1416.139229 l 66.503759,-312.875585 M 498.990999,450.146514 l -1.112444,5.233637 M 480.261792,538.260504 l 7.396044,-34.795653 M 471.572404,579.140864 l -5.807818,27.323635 M 442.797747,714.514979 l 0.893394,-4.203091 M 400.344980,914.239544 l -10.031264,47.193388 M 343.483609,1181.751263 l 0.364033,-1.712641 M 322.746904,1279.309791 l -29.322735,137.952623 M 457.338715,684.582977 l 20.295682,-95.483677 M 443.755574,748.486632 l -96.112383,452.173211 M 330.442602,1281.582251 l 16.509101,-77.669215 M 329.035245,1288.203348 l -27.911459,131.313092 M 489.252901,572.916414 l 2.482779,-11.680556 M 484.578216,594.909077 l -13.930942,65.539931 M 308.596069,1422.839983 l 33.905517,-159.512918 M 505.021739,537.207737 l -9.681122,45.546099 M 490.886319,603.709661 l 0.862602,-4.058222 M 489.929758,608.209924 l -6.162469,28.992139 M 501.506165,592.225088 l 17.187647,-80.861523 M 496.312793,616.657980 l -3.854900,18.135880 M 511.091841,585.605902 l 21.269652,-100.065843 M 502.514901,625.957234 l -3.877815,18.243687 M 524.384470,561.546876 l 21.611787,-101.675466 M 508.706062,635.307986 l -3.978498,18.717361 M 537.868752,536.586190 l 21.597890,-101.610085 M 514.746598,645.367372 l -3.999933,18.818208 M 561.938993,461.822487 l 6.039310,-28.412722 M 560.944947,466.499101 l -9.591913,45.126402 M 516.765266,674.348160 l 3.974189,-18.697087 M 575.180714,438.002958 l -10.227538,48.116784 M 522.786963,684.496178 l 3.840641,-18.068794 M 583.146085,439.006712 l -4.385209,20.630787 M 528.808660,694.644197 l 3.651025,-17.176723 M 538.363870,688.168345 l -3.533513,16.623870 M 540.852054,714.940233 l 3.445646,-16.210490 M 550.369695,708.641125 l -3.496574,16.450085 M 552.883969,735.290274 l 3.534948,-16.630623 M 562.368719,729.145905 l -3.473904,16.343433 M 564.905662,755.688400 l 3.512505,-16.525036 M 574.271048,750.105600 l -3.354539,15.781864 M 576.912083,776.158382 l 3.029568,-14.252997 M 587.975670,762.586174 l -0.862267,4.056649 M 582.948212,786.238501 l 2.475727,-11.647381 M 593.857591,773.391786 l -4.827551,22.711842 M 595.058063,806.221885 l 4.484705,-21.098878 M 605.134933,797.291810 l -4.152733,19.537073 M 606.905531,827.439679 l 3.657613,-17.207716 M 618.065638,813.413375 l -0.918790,4.322565 M 612.827493,838.056911 l 3.620733,-17.034211 M 626.998486,809.865506 l -0.469926,2.210828 M 625.187310,818.386420 l 0.287875,-1.354345 M 623.732456,825.230969 l -0.770646,3.625603 M 618.778460,848.537689 l 3.461038,-16.282904 M 633.042141,819.910220 l -1.116212,5.251367 M 631.010394,829.468838 l 0.391216,-1.840528 M 629.765081,835.327573 l -4.962291,23.345745 M 636.680952,841.268836 l 2.385076,-11.220902 M 635.484595,846.897254 l -4.659606,21.921724 M 642.649744,851.665751 l 2.426595,-11.416234 M 641.639282,856.419599 l -0.891060,4.192106 M 636.832808,879.032282 l 3.733946,-17.566837 M 651.082268,850.471718 l -2.152591,10.127144 M 647.273674,868.389744 l 0.665484,-3.130857 M 646.364702,872.666123 l -3.524074,16.579465 M 656.048497,865.585321 l 1.032767,-4.858789 M 655.743376,867.020805 l -0.460860,2.168176 M 653.546592,877.355862 l 0.475917,-2.239014 M 652.137256,883.986265 l -3.292315,15.489126 M 662.296106,874.670511 l 0.784156,-3.689164 M 661.731058,877.328851 l -0.452339,2.128087 M 659.258511,888.961272 l 0.816658,-3.842073 M 657.796897,895.837624 l -2.953183,13.893635 M 668.029365,886.175522 l 1.045420,-4.918315 M 667.838959,887.071308 l -0.787698,3.705829 M 665.135351,899.790784 l 0.994695,-4.679672 M 664.831104,901.222154 l -3.913431,18.411245 M 673.150427,900.560693 l 1.914593,-9.007452 M 672.286225,904.626443 l -0.774469,3.643590 M 667.063774,929.196146 l 4.092997,-19.256035 M 681.055255,901.849275 l -1.763540,8.296802 M 677.693020,917.667348 l 0.754851,-3.551295 M 676.912019,921.341666 l -3.753752,17.660017 M 685.515154,919.344976 l 1.530337,-7.199668 M 684.492316,924.157048 l -0.820317,3.859289 M 679.047306,949.773807 l 3.654132,-17.191338 M 693.020700,922.512033 l -1.643707,7.733034 M 689.679619,938.230580 l 0.729952,-3.434155 M 688.647439,943.086610 l -3.686038,17.341447 M 697.310047,940.810116 l 1.684502,-7.924960 M 696.570940,944.287341 l -0.752674,3.541053 M 690.936812,970.793831 l 4.028193,-18.951160 M 704.968399,943.258279 l -1.538282,7.237046 M 702.255079,956.023445 l 0.601407,-2.829395 M 701.301491,960.509723 l -1.849259,8.700078 M 696.907677,981.180995 l 2.295448,-10.799235 M 710.942248,953.631403 l -1.337057,6.290357 M 708.204662,966.510732 l 0.813303,-3.826289 M 707.271362,970.901565 l -4.392820,20.666593 M 715.260182,971.794996 l 1.669108,-7.852534 M 715.238469,971.897146 l -1.163217,5.472504 M 708.849407,1001.955322 l 4.217195,-19.840343 M 722.953745,974.077500 l -3.189993,15.007737 M 714.810392,1012.388963 l 4.295300,-20.207799 M 728.970718,984.247746 l -8.200444,38.580056 M 726.730155,1033.266640 l 8.247014,-38.799149 M 740.983619,1004.687236 l -8.293584,39.018243 M 738.691687,1053.947806 l 8.298384,-39.040825 M 752.996521,1025.126726 l -8.156208,38.371939 M 751.079064,1072.625529 l 7.886228,-37.101784 M 764.931005,1045.935145 l -7.941458,37.361621 M 765.367369,1082.360087 l 5.529349,-26.013543 M 764.637836,1085.792269 l -1.679065,7.899381 M 774.045974,1080.008333 l 2.816457,-13.250390 M 773.083285,1084.537433 l -1.634791,7.691088 M 768.977854,1103.851964 l 1.472856,-6.929241 M 782.833410,1077.144574 l -1.645613,7.741999 M 780.096525,1090.020606 l 0.575679,-2.708357 M 779.015194,1095.107868 l -1.471626,6.923458 M 775.043535,1113.793055 l 1.418710,-6.674505 M 788.804514,1087.530615 l -1.504305,7.077196 M 786.181492,1099.870961 l 0.345332,-1.624657 M 784.973054,1105.556217 l -1.351312,6.357425 M 781.229407,1123.168691 l 0.806750,-3.795459 M 794.775617,1097.916656 l -2.725182,12.820975 M 789.424526,1123.091560 l 1.508779,-7.098248 M 800.766451,1108.209874 l -1.612896,7.588081 M 797.877111,1121.803151 l 0.851601,-4.006469 M 796.884447,1126.473265 l -3.048828,14.343607 M 805.143956,1126.093206 l 1.623721,-7.639008 M 804.585161,1128.722131 l -0.782325,3.680551 M 800.553987,1147.687312 l 2.166469,-10.192437 M 812.768904,1128.698522 l -1.813068,8.529815 M 809.435253,1144.382116 l 0.678961,-3.194260 M 808.409706,1149.206936 l -3.727449,17.536269 M 816.839629,1148.025141 l 1.930501,-9.082294 M 814.120399,1160.818113 l -3.476067,16.353608 M 822.488803,1159.925741 l 2.282554,-10.738570 M 821.681408,1163.724237 l -1.173172,5.519339 M 816.724304,1187.045576 l 2.616766,-12.310916 M 830.757298,1159.503404 l -2.542570,11.961851 M 825.485716,1184.304248 l 1.688136,-7.942056 M 825.077704,1186.223795 l -2.202229,10.360673 M 834.992291,1178.057204 l 1.741887,-8.194936 M 834.443716,1180.638048 l -0.733043,3.448695 M 829.032962,1206.093645 l 3.792765,-17.843559 M 842.711059,1180.221132 l -3.615474,17.009466 M 834.759847,1217.628643 l 3.717755,-17.490661 M 848.687939,1190.579996 l -4.344416,20.438872 M 840.526333,1228.977335 l 3.084941,-14.513504 M 854.664819,1200.938860 l -5.003472,23.539486 M 846.511624,1239.296628 l 2.879778,-13.548290 M 860.641700,1211.297724 l -3.339804,15.712540 M 852.874674,1247.838708 l 4.406013,-20.728662 M 866.618580,1221.656588 l -7.886339,37.102310 M 864.580559,1269.722598 l 8.014901,-37.707146 M 878.554346,1242.458971 l -7.803160,36.710981 M 878.846843,1279.560756 l 5.640869,-26.538203 M 890.421079,1263.586134 l -4.444928,20.911740 M 895.323345,1279.000660 l 0.913968,-4.299880"
       id="path11" />
  </g>
  <g
     inkscape:label="fill-6c6c6c"
     inkscape:groupmode="layer"
     id="fill-6c6c6c">
    <path
       style="stroke:#6c6c6c"
       d="M 152.633360,1192.410494 l -2.753697,31.474905 M 158.828369,1224.864644 l 4.622123,-52.831113 M 174.238688,1151.987306 l -5.717383,65.349991 M 179.232830,1198.167424 l 5.794054,-66.226343 M 195.815080,1111.894856 l -5.806933,66.373552 M 200.778688,1158.423974 l 5.824588,-66.575343 M 217.391472,1071.802407 l -5.843014,66.785954 M 222.318228,1118.752747 l 5.858628,-66.964423 M 238.961094,1031.787336 l -5.873096,67.129798 M 243.857768,1079.081520 l 5.887565,-67.295173 M 260.529571,991.785358 l -5.902033,67.460548 M 265.397307,1039.410293 l 5.916502,-67.625924 M 282.098047,951.783380 l -5.937095,67.861306 M 286.923326,999.893614 l 5.958960,-68.111222 M 303.666524,911.781402 l -5.980825,68.361139 M 308.448073,960.391470 l 6.005140,-68.639068 M 325.243073,871.687159 l -6.034640,68.976251 M 277.531368,1417.034442 l 1.111401,-12.703375 M 336.032933,851.621916 l -6.065344,69.327197 M 286.510629,1417.664441 l 7.978847,-91.198637 M 381.909923,430.508935 l -1.447023,16.539550 M 340.726745,901.234817 l 6.101092,-69.735801 M 310.062676,1251.726734 l -14.626618,167.183004 M 293.972745,1435.635486 l 0.186978,-2.137169 M 293.742470,1438.267536 l -0.227370,2.598850 M 390.863297,431.434826 l 0.281952,-3.222732 M 390.595020,434.501247 l -2.262240,25.857518 M 351.482368,881.560904 l 6.145508,-70.243483 M 325.709376,1176.147554 l -21.644145,247.393707 M 303.074039,1434.870631 l 0.624565,-7.138806 M 399.041205,441.224324 l -0.279940,3.199730 M 396.203646,473.657777 l 2.348938,-26.848479 M 368.427916,791.135826 l -6.193371,70.790558 M 314.509110,1407.430598 l 26.633848,-304.426281 M 408.282583,438.858309 l -0.220650,2.522043 M 407.491421,447.901337 l 0.199051,-2.275161 M 406.996336,453.560183 l -0.259373,2.964644 M 404.074511,486.956790 l 2.395664,-27.382562 M 379.227955,770.954232 l -6.241234,71.337633 M 330.523186,1327.652283 l 26.258280,-300.133513 M 416.075042,453.053516 l -0.082989,0.948564 M 411.945377,500.255803 l 3.079669,-35.200782 M 390.027994,750.772637 l -6.294037,71.941168 M 346.726292,1245.713360 l 25.794823,-294.836174 M 424.067652,464.960991 l -0.293473,3.354411 M 423.340209,473.275694 l 0.135323,-1.546749 M 422.861320,478.749427 l -3.045077,34.805389 M 394.463800,803.334562 l 6.364233,-72.743519 M 388.290991,873.890092 l -25.517431,291.665571 M 427.687108,526.853829 l 4.250629,-48.584914 M 411.627868,710.411791 l -6.610638,75.559934 M 378.887004,1084.641575 l 25.417206,-290.519991 M 439.761445,492.106949 l -0.169119,1.933040 M 439.134742,499.270202 l 0.080801,-0.923563 M 438.614899,505.212035 l -0.118447,1.353854 M 435.553335,540.205863 l 2.495484,-28.523510 M 422.424078,690.273960 l -27.382481,312.983190 M 443.416652,553.591162 l 2.592768,-29.635469 M 435.935407,639.102185 l -24.598018,281.156637 M 454.615155,528.855110 l 0.386692,-4.419911 M 454.327601,532.141861 l -0.317864,3.633198 M 463.365112,532.106060 l 4.842984,-55.355563 M 463.222581,533.735193 l -0.391332,4.472950 M 462.193387,545.498942 l 0.320604,-3.664521 M 461.963107,548.131051 l -17.815601,203.633249 M 470.705803,551.464995 l 9.658922,-110.401981 M 469.857043,561.166364 l -10.587833,121.019482 M 478.075294,570.494748 l 11.240923,-128.484334 M 477.834155,573.250976 l -7.831929,89.519353 M 494.161029,489.897377 l 3.979328,-45.483927 M 487.456922,566.525664 l -1.306008,14.927740 M 480.749184,643.195462 l 5.038739,-57.593054 M 498.061456,548.578710 l -4.050926,46.302294 M 490.639578,633.411163 l 3.181011,-36.359120 M 508.849940,528.529188 l -10.248954,117.146081 M 513.106353,583.141592 l 6.556584,-74.942094 M 510.651776,611.197527 l -4.162368,47.576088 M 523.834357,563.783364 l 6.650079,-76.010756 M 518.528663,624.427716 l -4.150834,47.444246 M 534.608672,543.895800 l 6.697264,-76.550082 M 526.405550,637.657905 l -4.152855,47.467354 M 545.382987,524.008236 l 6.711350,-76.711082 M 534.282437,650.888093 l -4.160071,47.549824 M 556.190547,503.740679 l 6.545402,-74.814290 M 542.155860,664.157882 l -4.163821,47.592693 M 567.020518,483.216955 l 4.255719,-48.643089 M 550.020079,677.532869 l -4.158472,47.531550 M 577.850490,462.693232 l 2.212009,-25.283374 M 557.880331,690.953188 l -4.151505,47.451915 M 561.596047,751.745788 l 4.141722,-47.340102 M 573.596582,717.842459 l -4.133316,47.244013 M 577.330486,778.427157 l 4.132668,-47.236616 M 589.342890,744.388170 l -4.152465,47.462894 M 593.040683,805.385626 l 4.181943,-47.799826 M 605.102362,770.783429 l -4.211421,48.136758 M 608.741199,832.454748 l 4.237049,-48.429690 M 620.851192,797.300308 l -4.257484,48.663269 M 624.448034,859.451635 l 4.276103,-48.876077 M 636.597082,823.850809 l -4.292819,49.067148 M 640.165099,886.331597 l 4.297638,-49.122227 M 652.315830,850.711531 l -4.289158,49.025298 M 655.893163,913.085850 l 4.275760,-48.872158 M 668.022015,877.715853 l -4.262362,48.719018 M 671.622549,939.824979 l 4.252558,-48.606965 M 683.728200,904.720176 l -4.243413,48.502431 M 687.347025,966.620235 l 4.234267,-48.397897 M 699.434385,931.724498 l -4.240887,48.473559 M 703.039833,993.777459 l 4.247645,-48.550800 M 715.140570,958.728821 l -4.254402,48.628040 M 718.732461,1020.936741 l 4.261202,-48.705759 M 730.844751,985.756050 l -4.266121,48.761982 M 734.424800,1048.099323 l 4.268702,-48.791491 M 746.542253,1012.859613 l -4.240102,48.464586 M 750.186484,1074.469286 l 4.204521,-48.057891 M 762.239756,1039.963177 l -4.182779,47.809382 M 765.927470,1101.075832 l 4.161037,-47.560873 M 777.937640,1067.062384 l -4.157923,47.525273 M 781.620463,1128.230939 l 4.168427,-47.645336 M 793.640140,1094.108822 l -4.178931,47.765399 M 797.302289,1155.513687 l 4.189101,-47.881647 M 809.342640,1121.155260 l -4.195130,47.950555 M 812.992732,1182.697943 l 4.201159,-48.019464 M 825.045760,1148.194624 l -4.187959,47.868589 M 828.698552,1209.706437 l 4.199367,-47.998990 M 840.750079,1175.220270 l -4.225937,48.302678 M 844.376849,1237.029519 l 4.225390,-48.296426 M 856.454398,1202.245916 l -4.227820,48.324203 M 860.073091,1264.147492 l 4.219842,-48.233010 M 872.128517,1229.616755 l -4.163471,47.588696 M 876.452945,1283.451738 l 3.511157,-40.132709 M 887.758968,1257.486724 l -2.483513,28.386687 M 894.729634,1281.075069 l 0.784004,-8.961208"
       id="path14" />
  </g>
  <g
     inkscape:label="fill-9a9a9a"
     inkscape:groupmode="layer"
     id="fill-9a9a9a">
    <path
       style="stroke:#9a9a9a"
       d="M 143.251423,1210.196659 l 1.708120,16.251676 M 156.141952,1227.607360 l -3.864230,-36.765697 M 161.532991,1173.665171 l 5.336149,50.770069 M 175.947243,1205.573121 l -5.155451,-49.050839 M 180.050593,1139.379395 l 5.162947,49.122160 M 194.479837,1171.429988 l -5.170443,-49.193481 M 198.568195,1105.093619 l 5.177421,49.259868 M 213.010190,1137.265534 l -5.183195,-49.314804 M 217.085797,1070.807843 l 5.188969,49.369740 M 231.539340,1103.089630 l -5.194743,-49.424675 M 235.603398,1036.522067 l 5.205781,49.529698 M 277.038623,1430.751898 l -2.064852,-19.645751 M 244.862199,1019.379179 l 5.218760,49.653180 M 289.229824,1441.508931 l -6.636679,-63.143783 M 254.121000,1002.236291 l 5.235860,49.815884 M 300.269387,1441.308859 l -10.279415,-97.802103 M 263.372241,985.021471 l 5.260522,50.050519 M 310.049009,1429.121255 l -12.682771,-120.668507 M 272.623376,967.805645 l 5.285288,50.286160 M 317.603948,1395.767205 l -12.892624,-122.665125 M 281.874511,950.589820 l 5.310055,50.521801 M 324.889393,1359.849084 l -12.832982,-122.097672 M 291.125646,933.373994 l 5.331976,50.730363 M 332.170212,1323.886955 l -13.035221,-124.021843 M 300.376780,916.158168 l 5.353697,50.937028 M 339.441774,1287.836750 l -12.661700,-120.468026 M 309.627915,898.942343 l 5.375419,51.143693 M 346.711140,1251.765653 l -12.580368,-119.694207 M 318.879050,881.726517 l 5.397140,51.350358 M 354.065384,1216.502119 l -12.583915,-119.727952 M 328.130185,864.510692 l 5.421021,51.577567 M 361.247804,1179.603786 l -12.419140,-118.160222 M 337.381320,847.294866 l 5.447684,51.831246 M 368.411503,1142.527333 l -12.263394,-116.678401 M 346.632455,830.079041 l 5.474346,52.084926 M 375.620789,1105.884612 l -12.153235,-115.630311 M 355.883590,812.863215 l 5.501009,52.338606 M 382.850804,1069.439116 l -12.063806,-114.779446 M 365.134725,795.647390 l 5.527672,52.592286 M 390.080819,1032.993620 l -11.974580,-113.930516 M 374.385860,778.431564 l 5.554335,52.845965 M 397.310834,996.548124 l -11.901801,-113.238076 M 383.636994,761.215738 l 5.580998,53.099645 M 404.535998,960.056474 l -11.827974,-112.535654 M 392.888129,743.999913 l 5.607660,53.353325 M 411.724842,923.219259 l -11.735121,-111.652221 M 402.134288,726.736745 l 16.779397,159.645298 M 384.720871,455.824647 l -2.842632,-27.045841 M 411.373485,709.407334 l 14.729044,140.137494 M 398.182289,478.666993 l -5.672984,-53.974838 M 420.612682,692.077923 l 12.671316,120.559519 M 411.630851,501.387016 l -7.626775,-72.563915 M 429.199366,668.540274 l 11.265062,107.179906 M 425.079412,524.107040 l -7.711343,-73.368530 M 436.444499,632.238617 l 11.200359,106.564300 M 438.510984,546.665414 l -7.721514,-73.465297 M 443.689634,595.936973 l 11.144781,106.035512 M 463.233171,676.646814 l -19.022300,-180.985090 M 457.534980,517.197652 l 14.968252,142.413402 M 481.813285,642.955805 l -16.381752,-155.861957 M 472.909862,453.010891 l 10.516778,100.060458 M 492.216764,636.703797 l -7.728139,-73.528335 M 482.569477,439.681498 l 7.926505,75.415655 M 505.619812,658.990786 l -11.091579,-105.529327 M 493.797937,441.278661 l 3.733673,35.523523 M 509.636683,591.974263 l -5.864603,-55.797973 M 511.436467,609.098071 l 7.626248,72.558900 M 518.877373,574.659066 l -5.863182,-55.784448 M 524.911679,632.071655 l 7.593939,72.251501 M 528.137062,557.524625 l -5.880758,-55.951679 M 538.379197,654.972030 l 7.571263,72.035752 M 537.400479,540.425661 l -5.902064,-56.154386 M 551.846714,677.872405 l 7.576644,72.086955 M 546.663897,523.326697 l -5.916767,-56.294275 M 565.314232,700.772779 l 7.582026,72.138158 M 555.908748,506.051083 l -5.911644,-56.245534 M 578.773570,723.595332 l 7.595587,72.267183 M 565.142218,488.667185 l -5.856441,-55.720313 M 592.232445,746.413479 l 7.609611,72.400614 M 574.360534,471.139114 l -4.094177,-38.953494 M 605.691320,769.231626 l 7.644445,72.732039 M 583.539255,453.234315 l -1.738278,-16.538614 M 619.168574,792.224638 l 7.662034,72.899386 M 640.325491,888.284761 l -7.671072,-72.985374 M 646.140264,838.374135 l 7.680473,73.074820 M 667.315983,934.613150 l -7.689874,-73.164266 M 673.114280,884.545771 l 7.696948,73.231573 M 694.306475,980.941539 l -7.686263,-73.129907 M 700.126143,931.077493 l 7.675577,73.028240 M 721.296967,1027.269928 l -7.664892,-72.926574 M 727.138007,977.609215 l 7.636512,72.656556 M 748.250779,1073.249331 l -7.606841,-72.374255 M 754.154272,1024.182820 l 7.587522,72.190452 M 775.232809,1119.497213 l -7.564812,-71.974378 M 781.181723,1070.862850 l 7.559279,71.921733 M 802.260010,1166.174865 l -7.564562,-71.972000 M 814.134225,1279.150475 l 0.040899,0.389127 M 815.779019,1189.565147 l -7.573184,-72.054029 M 825.324541,1280.384724 l 0.215273,2.048182 M 829.298028,1212.955429 l -7.592524,-72.238040 M 836.536451,1281.824427 l 0.315957,3.006132 M 842.817037,1236.345711 l -7.611864,-72.422052 M 847.748600,1283.266404 l 0.410181,3.902610 M 856.306138,1259.451442 l -7.598699,-72.296793 M 858.962267,1284.722818 l 0.502728,4.783133 M 869.772500,1282.340821 l -7.531162,-71.654222 M 870.132246,1285.763577 l 0.651029,6.194131 M 881.668777,1290.291841 l -5.893540,-56.073292 M 881.796942,1291.511257 l 0.320765,3.051880 M 892.381925,1286.986142 l -3.043047,-28.952663"
       id="path17" />
  </g>
  <g
     inkscape:label="fill-d3d3d3"
     inkscape:groupmode="layer"
     id="fill-d3d3d3">
    <path
       style="stroke:#d3d3d3"
       d="M 143.987326,1204.875321 l 8.431687,24.487398 M 165.689053,1227.971516 l -13.312390,-38.661987 M 160.766000,1173.743737 l 12.942815,37.588664 M 178.802493,1226.125517 l -2.597967,-7.545043 M 169.155337,1158.177945 l 12.946002,37.597919 M 191.967163,1224.428299 l -2.602646,-7.558632 M 247.691992,1386.264952 l 13.703088,39.796658 M 190.516680,1180.285595 l -12.971901,-37.673135 M 202.490255,1215.059383 l 2.641577,7.671698 M 280.355093,1441.195290 l -19.829643,-57.589464 M 185.935303,1127.050114 l 12.996719,37.745213 M 218.296823,1221.034793 l -2.680830,-7.785695 M 277.652108,1393.415056 l 17.009150,49.398160 M 207.345209,1149.298802 l -13.019383,-37.811035 M 228.756196,1211.480821 l 2.738000,7.951730 M 306.796204,1438.125462 l -23.416915,-68.007659 M 202.716349,1095.925421 l 13.038815,37.867469 M 244.691569,1217.830310 l -2.757644,-8.008779 M 288.645869,1345.482868 l 25.523302,74.125052 M 319.116438,1433.975825 l -2.932394,-8.516290 M 211.106872,1080.363074 l 13.058247,37.923903 M 257.888941,1216.228068 l -2.777287,-8.065827 M 293.911987,1320.846589 l 25.292535,73.454855 M 332.322313,1432.398275 l -4.204781,-12.211570 M 219.497395,1064.800727 l 13.077679,37.980336 M 271.086314,1214.625826 l -2.796930,-8.122876 M 299.103602,1295.993937 l 25.136271,73.001031 M 344.353331,1427.408693 l -4.317944,-12.540219 M 227.887919,1049.238381 l 13.108349,38.069409 M 284.283687,1213.023584 l -2.811850,-8.166204 M 304.295216,1271.141286 l 24.980006,72.547206 M 356.302576,1422.181625 l -4.336493,-12.594090 M 236.278442,1033.676034 l 13.146671,38.180704 M 297.519529,1211.533067 l -2.857429,-8.298578 M 309.486831,1246.288635 l 24.823742,72.093381 M 368.192736,1416.782962 l -4.280734,-12.432155 M 244.668965,1018.113688 l 13.184993,38.291999 M 310.875546,1210.391559 l -3.069559,-8.914648 M 314.584408,1221.162877 l 24.761516,71.912663 M 380.080922,1411.378565 l -4.268904,-12.397797 M 253.059488,1002.551341 l 13.223315,38.403295 M 344.381274,1267.769064 l -24.792107,-72.001507 M 387.664871,1393.473759 l 4.255968,12.360228 M 274.711648,1025.503585 l -13.261803,-38.515073 M 325.076015,1171.772327 l 24.340608,70.690260 M 403.760709,1400.289271 l -4.100572,-11.908925 M 269.835303,971.411455 l 13.305190,38.641078 M 354.581313,1217.531738 l -24.329293,-70.657396 M 411.782363,1383.655649 l 3.838070,11.146564 M 291.569339,994.601482 l -13.348577,-38.767083 M 335.428025,1121.976356 l 24.432460,70.957017 M 364.956488,1207.733240 l -4.142087,-12.029494 M 424.009794,1379.236494 l 3.472683,10.085403 M 299.998184,979.150431 l -13.391964,-38.893088 M 340.604030,1097.078370 l 24.043230,69.826611 M 378.354453,1206.713558 l -4.119936,-11.965164 M 436.503711,1375.591267 l 2.977075,8.646053 M 308.427029,963.699379 l -13.435351,-39.019093 M 345.780035,1072.180384 l 23.820617,69.180095 M 391.654518,1205.409559 l -4.139603,-12.022279 M 448.870871,1371.577911 l 2.801888,8.137275 M 316.855875,948.248328 l -13.478738,-39.145098 M 350.953801,1047.275897 l 23.635935,68.643740 M 404.670522,1203.280582 l -3.842762,-11.160191 M 461.370328,1367.948775 l 2.545424,7.392449 M 325.284720,932.797277 l -13.522125,-39.271103 M 356.097357,1022.283674 l 23.481464,68.195122 M 417.428620,1200.402594 l -3.211062,-9.325600 M 474.096583,1364.978310 l 1.977682,5.743606 M 333.722367,917.371787 l -13.574314,-39.422670 M 361.240558,997.290417 l 23.330764,67.757458 M 430.066987,1197.176881 l -2.247303,-6.526641 M 328.533511,862.372061 l 13.626675,39.574738 M 389.583567,1039.674297 l -23.212014,-67.412584 M 336.918969,846.795005 l 13.679036,39.726807 M 394.595812,1014.300719 l -23.095049,-67.072893 M 345.304428,831.217949 l 13.731398,39.878875 M 399.608057,988.927141 l -22.979941,-66.738594 M 353.689886,815.640892 l 13.783759,40.030943 M 404.620303,963.553563 l -22.864832,-66.404294 M 362.062492,800.026512 l 13.848972,40.220335 M 409.632548,938.179985 l -22.770650,-66.130770 M 370.427472,784.389982 l 13.947903,40.507651 M 414.644793,912.806407 l -22.680038,-65.867614 M 378.792452,768.753452 l 14.059101,40.830595 M 419.652921,887.420870 l -22.585309,-65.592500 M 387.157432,753.116922 l 14.243098,41.364961 M 424.604693,861.871666 l -22.587345,-65.598413 M 395.522412,737.480392 l 34.034054,98.842070 M 434.508238,810.773258 l -30.620847,-88.929396 M 412.252371,706.207333 l 27.207639,79.016722 M 444.411783,759.674850 l -23.813581,-69.159662 M 427.775989,671.430802 l 21.587566,62.694844 M 454.301225,708.535484 l -21.463866,-62.335593 M 370.538787,425.341505 l 6.337237,18.404671 M 459.857177,684.740945 l -21.958448,-63.771964 M 384.740334,426.655597 l 25.486018,74.016769 M 468.260471,669.215687 l -25.300373,-73.477618 M 396.377273,420.521527 l 46.585688,135.294663 M 476.695351,653.782164 l -28.673884,-83.275007 M 683.264619,1253.702879 l 1.982153,5.756592 M 485.155911,638.423217 l -62.100043,-180.351621 M 696.896385,1253.362206 l 3.984524,11.571899 M 507.841263,664.376068 l -52.506784,-152.490772 M 710.973820,1254.315850 l 4.754512,13.808107 M 484.007270,555.226932 l -20.922974,-60.764729 M 487.355379,564.950547 l 53.285284,154.751703 M 730.347217,1270.650085 l -5.048734,-14.662589 M 468.254055,469.546079 l 20.583991,59.780250 M 510.508225,592.261100 l -14.736116,-42.796787 M 521.457396,624.059799 l 52.496730,152.461575 M 744.927584,1273.064351 l -5.064581,-14.708612 M 473.811629,445.756250 l 19.836650,57.609814 M 518.806106,576.429699 l -14.672105,-42.610888 M 554.696957,680.664299 l 52.570631,152.676200 M 759.525860,1275.530628 l -4.789976,-13.911101 M 484.945010,438.159741 l 13.488073,39.172207 M 527.180105,560.819363 l -14.684214,-42.646055 M 587.958469,737.332550 l 52.725230,153.125186 M 774.127973,1278.008046 l -4.511319,-13.101822 M 500.464171,443.300463 l 2.441340,7.090166 M 535.581082,545.287376 l -14.723300,-42.759569 M 621.219982,794.000801 l 53.117071,154.263176 M 788.646747,1280.243433 l -4.190081,-12.168878 M 529.225776,486.900031 l 14.756283,42.855357 M 707.990407,1006.070218 l -53.332147,-154.887802 M 799.225499,1271.036165 l 3.936850,11.433442 M 552.383035,514.223401 l -14.776709,-42.914679 M 688.429212,909.330187 l 53.050013,154.068425 M 817.677951,1284.695781 l -3.683619,-10.698006 M 545.986877,455.717412 l 14.746520,42.827003 M 775.004898,1120.834041 l -52.804734,-153.356083 M 828.710872,1276.807516 l 3.510094,10.194054 M 569.070516,482.826974 l -14.645200,-42.532749 M 755.992184,1025.686915 l 52.929398,153.718133 M 846.787749,1289.376382 l -3.380108,-9.816548 M 563.098816,425.553703 l 14.308820,41.555831 M 842.947452,1238.293154 l -53.132462,-154.307875 M 858.066832,1282.203024 l 3.382882,9.824604 M 585.654091,451.128783 l -5.498603,-15.969102 M 823.637795,1142.283643 l 52.485449,152.428813 M 890.151200,1295.522404 l -32.488033,-94.352100 M 892.270269,1261.746431 l 7.381023,21.436048"
       id="path20" />
  </g>
  <g
     inkscape:label="fill-e9e9e9"
     inkscape:groupmode="layer"
     id="fill-e9e9e9">
    <path
       style="stroke:#e9e9e9"
       d="M 140.831028,1215.974905 l 6.432733,14.448154 M 213.702682,1379.647319 l -27.110640,-60.891495 M 147.722886,1197.033963 l 14.566088,32.715969 M 246.754640,1419.462926 l -49.339657,-110.818683 M 155.998512,1181.201018 l 20.920974,46.989277 M 271.578487,1440.797892 l -58.890638,-132.270539 M 164.382362,1165.611146 l 15.781595,35.446042 M 191.491387,1226.499014 l -4.947761,-11.112852 M 232.504162,1318.615214 l 55.664973,125.025577 M 188.513424,1185.390092 l -15.745862,-35.365786 M 200.889741,1213.187755 l 5.165871,11.602735 M 303.021154,1442.578665 l -43.749953,-98.264003 M 181.156286,1134.445383 l 15.779113,35.440467 M 220.619835,1223.081966 l -5.400198,-12.129043 M 283.616144,1364.573992 l 33.807618,75.933153 M 205.357373,1154.381609 l -15.810686,-35.511381 M 229.673979,1208.997600 l 5.510080,12.375842 M 317.512097,1406.285243 l -28.808460,-64.704861 M 323.122638,1418.886724 l 7.912404,17.771551 M 213.779348,1138.877367 l -15.842259,-35.582296 M 244.128322,1207.042277 l 5.619961,12.622640 M 322.133675,1382.245170 l -28.507696,-64.029333 M 335.734219,1412.792491 l 8.382392,18.827161 M 222.208102,1123.388352 l -15.880611,-35.668437 M 258.582664,1205.086955 l 5.742978,12.898940 M 326.869749,1358.462258 l -28.321427,-63.610966 M 348.257019,1406.498853 l 8.836241,19.846521 M 230.643858,1107.915063 l -15.925965,-35.770304 M 273.034124,1203.125160 l 5.899743,13.251040 M 331.605822,1334.679346 l -28.135158,-63.192599 M 360.772905,1400.189688 l 9.286743,20.858366 M 239.079614,1092.441774 l -15.971319,-35.872171 M 287.472793,1201.134633 l 6.069301,13.631872 M 336.373425,1310.967252 l -27.980419,-62.845050 M 373.288792,1393.880524 l 9.737245,21.870210 M 247.515369,1076.968485 l -16.016674,-35.974038 M 301.911461,1199.144106 l 6.297846,14.145194 M 341.174249,1287.329772 l -27.858901,-62.572115 M 385.792616,1387.544264 l 10.199810,22.909148 M 255.951125,1061.495196 l -16.062028,-36.075905 M 316.260841,1196.953036 l 29.714232,66.739257 M 408.990111,1405.226386 l -10.705556,-24.045073 M 248.279499,1009.844134 l 16.107382,36.177772 M 350.872171,1240.271049 l -27.947235,-62.770519 M 410.946068,1375.199231 l 11.100803,24.932811 M 272.822637,1030.548617 l -16.152736,-36.279639 M 327.941066,1154.346638 l 29.038912,65.222464 M 435.103630,1395.037697 l -11.217442,-25.194787 M 265.060302,978.693822 l 16.198090,36.381506 M 372.623804,1220.285403 l -39.790635,-89.371230 M 437.097585,1365.095885 l 11.020895,24.753336 M 289.694148,999.602039 l -16.243444,-36.483373 M 337.725272,1107.481710 l 27.096463,60.859652 M 389.048580,1222.755746 l -14.071306,-31.604670 M 450.350355,1360.441787 l 11.069738,24.863038 M 298.130709,984.130558 l -16.289603,-36.587048 M 342.617375,1084.049246 l 26.923904,60.472077 M 405.338334,1224.922826 l -15.852681,-35.605705 M 463.583332,1355.743235 l 11.458530,25.736280 M 306.570160,968.665568 l -16.338652,-36.697214 M 347.487433,1060.567268 l 26.780115,60.149123 M 421.623367,1227.079304 l -17.642515,-39.625738 M 476.773278,1350.948031 l 11.909465,26.749097 M 315.009610,953.200578 l -16.387701,-36.807380 M 352.324484,1037.011156 l 26.669334,59.900304 M 438.031313,1229.511846 l -19.555261,-43.921836 M 489.355479,1344.787811 l 12.825562,28.806684 M 323.449061,937.735588 l -16.436750,-36.917546 M 357.161534,1013.455043 l 26.558552,59.651485 M 454.878634,1232.931243 l -21.907383,-49.204788 M 502.026966,1338.828129 l 13.328692,29.936732 M 331.888511,922.270597 l -16.485799,-37.027712 M 361.998585,989.898931 l 26.447771,59.402666 M 471.465626,1235.765930 l -23.953716,-53.800927 M 514.620566,1332.693512 l 13.709872,30.792876 M 340.327962,906.805607 l -16.534848,-37.137878 M 366.835636,966.342818 l 26.328986,59.135871 M 487.925496,1238.315097 l -25.819681,-57.991953 M 527.264415,1326.671754 l 13.788307,30.969044 M 348.767413,891.340617 l -16.583897,-37.248043 M 371.672687,942.786706 l 26.195799,58.836728 M 504.351695,1240.788636 l -27.651974,-62.107350 M 540.069385,1321.011882 l 13.343072,29.969031 M 357.206863,875.875626 l -16.632946,-37.358209 M 376.509738,919.230593 l 26.062612,58.537584 M 520.722931,1243.138727 l -29.429213,-66.099094 M 553.480406,1316.713221 l 12.025876,27.010560 M 365.646314,860.410636 l -16.690280,-37.486982 M 381.338145,895.655065 l 25.938069,58.257857 M 515.001230,1195.867270 l -9.115361,-20.473437 M 518.869102,1204.554653 l 18.048198,40.536917 M 578.137422,1337.673480 l -11.105471,-24.943297 M 357.327156,807.305194 l 16.758609,37.640452 M 411.980077,930.057666 l -25.817354,-57.986728 M 520.460366,1173.708385 l 9.376545,21.060066 M 553.001686,1246.797384 l -15.572543,-34.976503 M 580.453685,1308.455585 l 11.113314,24.960911 M 382.539931,829.513707 l -16.841653,-37.826973 M 390.987301,848.486812 l 25.696640,57.715599 M 543.263925,1190.505710 l -8.229061,-18.482774 M 553.896143,1214.386061 l 15.211040,34.164556 M 605.110596,1329.415606 l -10.748101,-24.140630 M 374.069399,776.068274 l 16.982762,38.143908 M 421.360271,882.285313 l -25.583125,-57.460640 M 549.630166,1170.384215 l 8.527997,19.154195 M 585.564924,1251.095002 l -14.547421,-32.674042 M 608.701147,1303.059810 l 10.149204,22.795485 M 399.712839,799.244078 l -17.272319,-38.794263 M 400.459219,800.920476 l 25.551461,57.389521 M 571.781761,1185.717205 l -7.348637,-16.505310 M 587.503924,1221.029761 l 14.480779,32.524361 M 632.230577,1321.487469 l -9.306237,-20.902151 M 390.811642,744.831354 l 39.849448,89.503325 M 585.494144,1182.095413 l -5.778857,-12.979526 M 604.201783,1224.113458 l 14.193465,31.879044 M 645.961732,1317.907840 l -8.880300,-19.945481 M 399.175745,729.197132 l 36.135753,81.162231 M 597.970098,1175.696558 l -3.335671,-7.492039 M 621.009631,1227.444197 l 13.866954,31.145689 M 439.961908,786.384046 l -32.463119,-72.913359 M 609.347750,1166.830876 l 1.933713,4.343191 M 651.464866,1261.427468 l -13.506123,-30.335248 M 415.821832,697.744242 l 28.790485,64.664487 M 668.195899,1264.585676 l -12.983349,-29.161079 M 423.935998,681.548650 l 25.319160,56.867765 M 685.937755,1270.014230 l -13.581044,-30.503525 M 429.449595,659.512084 l 24.429564,54.869700 M 702.659224,1273.150958 l -13.546596,-30.426153 M 434.277699,635.935878 l 24.225460,54.411274 M 718.452287,1274.202453 l -12.710448,-28.548133 M 439.034105,612.198634 l 27.511698,61.792286 M 734.520274,1275.871435 l -12.397197,-27.844561 M 370.548542,423.957234 l 20.191528,45.350915 M 474.955226,658.458485 l -31.181510,-70.034819 M 738.532146,1250.461940 l 12.347785,27.733579 M 383.048973,417.613354 l -2.099975,-4.716621 M 386.063732,424.384613 l 97.356292,218.665813 M 767.231575,1280.501606 l -12.229949,-27.468915 M 398.134426,417.075530 l 113.729751,255.441203 M 783.357043,1282.299695 l -10.105379,-22.697053 M 452.962114,505.800226 l 121.781537,273.525811 M 799.485621,1284.104767 l -8.733599,-19.615985 M 462.630054,493.094470 l 23.826950,53.516205 M 509.092678,597.451232 l -18.059673,-40.562689 M 515.469398,611.773579 l 123.732866,277.908566 M 815.748522,1286.211534 l -7.651353,-17.185220 M 467.581774,469.795908 l 23.277074,52.281164 M 517.176086,581.186556 l -17.738855,-39.842120 M 579.483532,721.131370 l 124.425877,279.465095 M 832.086397,1288.486695 l -6.721953,-15.097754 M 472.774850,447.039439 l 22.590828,50.739831 M 525.492089,565.444299 l -17.705590,-39.767406 M 643.376893,830.217902 l 125.141060,281.071424 M 848.555669,1291.056978 l -6.074955,-13.644573 M 851.590979,1297.874397 l 3.487481,7.833011 M 499.872507,473.481468 l -16.587341,-37.255778 M 516.135768,510.009351 l 17.759424,39.888319 M 835.099469,1226.413551 l -126.168387,-283.378837 M 859.324038,1280.822826 l 6.063640,13.619159 M 870.995815,1307.038065 l -5.139743,-11.544051 M 501.878651,443.567034 l 1.908316,4.286149 M 542.298295,534.351042 l -17.813258,-40.009233 M 774.967342,1056.934277 l 109.557199,246.069497 M 550.701398,518.804413 l -17.855847,-40.104888 M 840.331957,1169.325299 l 55.424686,124.485883 M 559.080180,503.203158 l -17.852277,-40.096870 M 901.508765,1272.310354 l 8.771177,19.700386 M 567.425890,487.527624 l -17.815635,-40.014571 M 912.984031,1263.663916 l 10.235698,22.989754 M 575.771601,471.852090 l -17.683182,-39.717077 M 923.941991,1253.855590 l 11.725030,26.334848 M 570.373546,425.307554 l -2.338167,-5.251608 M 572.684402,430.497823 l 11.402504,25.610443 M 948.101538,1273.698514 l -13.001463,-29.201764 M 583.406133,420.158917 l 0.527890,1.185660 M 591.992644,439.444536 l -5.389656,-12.105365 M 945.545563,1233.537394 l 14.823085,33.293194 M 973.030063,1260.848286 l -16.109573,-36.182694 M 967.612964,1214.260975 l 6.508915,14.619263"
       id="path23" />
  </g>
</svg>
