<?xml version="1.0" encoding="UTF-8" standalone="no"?>
<!-- Created with Inkscape (http://www.inkscape.org/) -->

<svg
   xmlns:dc="http://purl.org/dc/elements/1.1/"
   xmlns:cc="http://creativecommons.org/ns#"
   xmlns:rdf="http://www.w3.org/1999/02/22-rdf-syntax-ns#"
   xmlns:svg="http://www.w3.org/2000/svg"
   xmlns="http://www.w3.org/2000/svg"
   xmlns:sodipodi="http://sodipodi.sourceforge.net/DTD/sodipodi-0.dtd"
   xmlns:inkscape="http://www.inkscape.org/namespaces/inkscape"
   id="svg2"
   version="1.1"
   inkscape:version="0.48.3.1 r9886"
   width="1200"
   height="960"
   sodipodi:docname="hantologie-full-socle_01_hatched_1398261856.svg">
  <defs
     id="defs70" />
  <sodipodi:namedview
     pagecolor="#ffffff"
     bordercolor="#666666"
     borderopacity="1"
     objecttolerance="10"
     gridtolerance="10"
     guidetolerance="10"
     inkscape:pageopacity="0"
     inkscape:pageshadow="2"
     inkscape:window-width="640"
     inkscape:window-height="480"
     id="namedview68" />
  <metadata
     id="metadata8">
    <rdf:RDF>
      <cc:Work
         rdf:about="">
        <dc:format>image/svg+xml </dc:format>
        <dc:type
           rdf:resource="http://purl.org/dc/dcmitype/StillImage" />
        <dc:title />
      </cc:Work>
    </rdf:RDF>
  </metadata>
  <g
     inkscape:label="fill-303030"
     inkscape:groupmode="layer"
     id="fill-303030">
    <path
       style="stroke:#303030"
       d="M 590.470924,572.037327 l 0.000000,4.580187 M 592.470924,582.369835 l 0.000000,-10.209809 M 594.470924,572.282725 l 0.000000,15.839432 M 596.470924,593.874479 l 0.000000,-21.469054 M 598.470924,572.528124 l 0.000000,27.098677 M 600.470924,605.379123 l 0.000000,-32.728300 M 602.470924,572.773523 l 0.000000,38.357922 M 604.470924,616.883767 l 0.000000,-43.987545 M 606.470924,573.018922 l 0.000000,49.617167 M 608.470924,628.388411 l 0.000000,-55.246790 M 610.470924,576.581549 l 0.000000,46.035509 M 612.470924,612.360648 l 0.000000,-30.358046 M 614.470924,587.423655 l 0.000000,14.680583"
       id="path5" />
  </g>
  <g
     inkscape:label="fill-4f4f4f"
     inkscape:groupmode="layer"
     id="fill-4f4f4f">
    <path
       style="stroke:#4f4f4f"
       d="M 609.751441,573.217910 l 0.000000,1.324361 M 612.751441,582.647534 l 0.000000,-9.247691 M 615.751441,573.581776 l 0.000000,17.171021 M 618.751441,592.768123 l 0.000000,-19.004414 M 621.751441,573.945642 l 0.000000,19.239857 M 624.751441,593.602875 l 0.000000,-19.475300 M 627.751441,574.309508 l 0.000000,19.710743 M 630.751441,594.437627 l 0.000000,-19.946186 M 633.751441,574.673374 l 0.000000,20.181629 M 636.751441,595.272379 l 0.000000,-20.417072 M 639.751441,575.037240 l 0.000000,20.652515 M 642.751441,596.107131 l 0.000000,-20.887958 M 645.751441,575.401106 l 0.000000,21.123401 M 648.751441,596.941883 l 0.000000,-21.358844 M 651.751441,575.764972 l 0.000000,21.594287 M 654.751441,597.776635 l 0.000000,-21.829730 M 657.751441,576.128838 l 0.000000,22.065173 M 660.751441,598.611387 l 0.000000,-22.300616 M 663.751441,576.492704 l 0.000000,22.536059 M 666.751441,599.446139 l 0.000000,-22.771502 M 669.751441,576.856570 l 0.000000,23.006945 M 672.751441,600.280891 l 0.000000,-23.242388 M 675.751441,577.220436 l 0.000000,23.477831 M 678.751441,601.115643 l 0.000000,-23.713274 M 681.751441,577.584302 l 0.000000,23.948716 M 684.751441,601.950395 l 0.000000,-24.184159 M 687.751441,577.948169 l 0.000000,24.419602 M 690.751441,602.785147 l 0.000000,-24.655045 M 693.751441,578.312035 l 0.000000,24.890488 M 696.751441,603.619899 l 0.000000,-25.125931 M 699.751441,578.675901 l 0.000000,25.361374 M 702.751441,604.454651 l 0.000000,-25.596817 M 705.751441,579.039767 l 0.000000,25.832260 M 708.751441,605.289403 l 0.000000,-25.022118 M 711.751441,586.011421 l 0.000000,19.695358 M 714.751441,606.124155 l 0.000000,-14.368597 M 717.751441,597.499694 l 0.000000,9.041837 M 720.751441,606.958907 l 0.000000,-3.715076"
       id="path8" />
  </g>
  <g
     inkscape:label="fill-666666"
     inkscape:groupmode="layer"
     id="fill-666666">
    <path
       style="stroke:#666666"
       d="M 623.614613,257.352989 l 0.000000,5.231122 M 627.614613,271.908492 l 0.000000,-15.282406 M 631.614613,255.899185 l 0.000000,25.333689 M 635.614613,283.064211 l 0.000000,-27.891928 M 639.614613,254.445381 l 0.000000,27.663570 M 643.614613,281.153691 l 0.000000,-27.435212 M 647.614613,263.011474 l 0.000000,17.186958 M 651.614613,279.243172 l 0.000000,-6.192225"
       id="path11" />
  </g>
  <g
     inkscape:label="fill-757575"
     inkscape:groupmode="layer"
     id="fill-757575">
    <path
       style="stroke:#757575"
       d="M 616.010395,760.465839 l 0.000000,63.526349 M 621.010395,822.642100 l 0.000000,-63.576260 M 626.010395,757.665839 l 0.000000,63.626171 M 631.010395,819.941922 l 0.000000,-63.676082 M 636.010395,754.865839 l 0.000000,63.725993 M 641.010395,817.241744 l 0.000000,-58.632461 M 646.010395,763.775417 l 0.000000,52.116238 M 651.010395,814.541566 l 0.000000,-45.600015 M 656.010395,774.107685 l 0.000000,39.083792 M 661.010395,811.841388 l 0.000000,-32.567569 M 666.010395,784.439953 l 0.000000,26.051346 M 671.010395,809.141210 l 0.000000,-19.535123 M 676.010395,794.772222 l 0.000000,13.018899 M 681.010395,806.441032 l 0.000000,-6.502676"
       id="path14" />
  </g>
  <g
     inkscape:label="fill-7e7e7e"
     inkscape:groupmode="layer"
     id="fill-7e7e7e">
    <path
       style="stroke:#7e7e7e"
       d="M 720.867456,838.624890 l 0.000000,1.386897 M 725.867456,838.551874 l 0.000000,-9.491278 M 730.867456,819.496302 l 0.000000,17.595660 M 735.867456,835.632049 l 0.000000,-25.700041 M 740.867456,800.367714 l 0.000000,33.804423 M 745.867456,832.712224 l 0.000000,-41.908804 M 750.867456,781.239126 l 0.000000,50.013186 M 755.867456,829.792400 l 0.000000,-52.207188 M 760.867456,776.250338 l 0.000000,52.082149 M 765.867456,826.872575 l 0.000000,-51.957110 M 770.867456,773.580591 l 0.000000,49.124643 M 775.867456,813.093048 l 0.000000,-40.847331 M 780.867456,770.910844 l 0.000000,32.570019 M 785.867456,793.868678 l 0.000000,-24.292708 M 790.867456,768.241097 l 0.000000,16.015396 M 795.867456,774.644307 l 0.000000,-7.738084"
       id="path17" />
    <path
       style="stroke:#7e7e7e"
       d="M 770.867456,697.972577 l 0.000000,13.602739 M 775.867456,708.330850 l 0.000000,-32.603864 M 780.867456,670.517106 l 0.000000,34.569278 M 785.867456,701.841918 l 0.000000,-34.431117 M 790.867456,664.304497 l 0.000000,34.292956 M 795.867456,695.352986 l 0.000000,-34.154794 M 800.867456,658.091888 l 0.000000,34.016633 M 805.867456,688.864055 l 0.000000,-33.878472 M 810.867456,651.879279 l 0.000000,22.394100 M 815.867456,652.296311 l 0.000000,-3.523337"
       id="path19" />
  </g>
  <g
     inkscape:label="fill-868686"
     inkscape:groupmode="layer"
     id="fill-868686">
    <path
       style="stroke:#868686"
       d="M 481.746715,565.438370 l 0.000000,0.473531 M 486.746715,567.733816 l 0.000000,-1.992023 M 491.746715,566.045215 l 0.000000,3.510515 M 496.746715,571.377644 l 0.000000,-5.029007 M 501.746715,566.652060 l 0.000000,6.547498 M 506.746715,575.021473 l 0.000000,-8.065990 M 511.746715,567.258905 l 0.000000,9.584482 M 516.746715,578.665301 l 0.000000,-11.102974 M 521.746715,567.865750 l 0.000000,12.621466 M 526.746715,582.309130 l 0.000000,-14.139957 M 531.746715,568.472595 l 0.000000,15.658449 M 536.746715,585.952959 l 0.000000,-17.176941 M 541.746715,569.079440 l 0.000000,18.695433 M 546.746715,589.596787 l 0.000000,-20.213925 M 551.746715,569.686285 l 0.000000,21.732416 M 556.746715,593.240616 l 0.000000,-23.250908 M 561.746715,570.293130 l 0.000000,24.769400 M 566.746715,596.884444 l 0.000000,-26.287892 M 571.746715,570.899975 l 0.000000,27.806384 M 576.746715,600.528273 l 0.000000,-29.324875 M 581.746715,571.506820 l 0.000000,30.843367 M 586.746715,604.172102 l 0.000000,-32.361859 M 591.746715,580.293893 l 0.000000,25.700123 M 596.746715,607.815930 l 0.000000,-13.129180 M 601.746715,609.079607 l 0.000000,0.558237 M 691.746715,642.437021 l 0.000000,-0.223116 M 696.746715,642.950340 l 0.000000,1.308344 M 701.746715,646.080347 l 0.000000,-2.393573 M 706.746715,644.423208 l 0.000000,3.478802 M 711.746715,649.723673 l 0.000000,-4.564031 M 716.746715,636.730885 l 0.000000,14.814451 M 721.746715,653.366999 l 0.000000,-39.193863 M 726.746715,615.962128 l 0.000000,39.226535 M 731.746715,657.010325 l 0.000000,-39.259207 M 736.746715,619.540109 l 0.000000,39.291879 M 741.746715,660.653651 l 0.000000,-39.324552 M 746.746715,623.118091 l 0.000000,39.357224 M 751.746715,664.296978 l 0.000000,-39.389896 M 756.746715,626.696072 l 0.000000,39.422568 M 761.746715,667.940304 l 0.000000,-39.455240 M 766.746715,630.274054 l 0.000000,39.487912 M 771.746715,671.583630 l 0.000000,-39.520585 M 776.746715,633.852036 l 0.000000,39.217773 M 781.746715,669.964627 l 0.000000,-34.323600 M 786.746715,637.430017 l 0.000000,29.429428 M 791.746715,663.754263 l 0.000000,-24.535255 M 796.746715,641.007999 l 0.000000,19.641083 M 801.746715,657.543900 l 0.000000,-14.746910 M 806.746715,644.585981 l 0.000000,9.852737 M 811.746715,651.333536 l 0.000000,-4.958565 M 816.746715,648.163962 l 0.000000,0.064392"
       id="path22" />
  </g>
  <g
     inkscape:label="fill-929292"
     inkscape:groupmode="layer"
     id="fill-929292">
    <path
       style="stroke:#929292"
       d="M 512.316361,798.625245 l 0.000000,9.913702 M 518.316361,806.951991 l 0.000000,-38.270828 M 524.316361,738.737081 l 0.000000,66.627953 M 530.316361,803.778078 l 0.000000,-94.985079 M 536.316361,678.848917 l 0.000000,123.342204 M 542.316361,800.604165 l 0.000000,-151.699330 M 548.316361,641.071965 l 0.000000,157.945243 M 554.316361,797.430251 l 0.000000,-157.249196 M 560.316361,639.290146 l 0.000000,156.553149 M 566.316361,794.256338 l 0.000000,-154.849313 M 572.316361,641.630802 l 0.000000,151.038580 M 578.316361,791.082425 l 0.000000,-147.227848 M 584.316361,646.078354 l 0.000000,103.739975 M 584.316361,752.447385 l 0.000000,-0.014161 M 590.316361,648.302130 l 0.000000,100.131023 M 590.316361,754.064636 l 0.000000,-0.030334 M 596.316361,650.525906 l 0.000000,96.522071 M 596.316361,755.681886 l 0.000000,-0.046506 M 602.316361,652.749683 l 0.000000,57.754583 M 602.316361,745.662801 l 0.000000,-27.071823 M 608.316361,654.973459 l 0.000000,42.597680 M 608.316361,728.065850 l 0.000000,-3.268686 M 614.316361,657.197235 l 0.000000,27.440778 M 620.316361,670.539845 l 0.000000,-11.118834"
       id="path25" />
  </g>
  <g
     inkscape:label="fill-999999"
     inkscape:groupmode="layer"
     id="fill-999999">
    <path
       style="stroke:#999999"
       d="M 496.695979,615.705412 l 0.000000,1.870585 M 502.695979,620.658497 l 0.000000,-4.830841 M 508.695979,618.051411 l 0.000000,5.689585 M 514.695979,626.823497 l 0.000000,-6.548330 M 520.695979,622.498922 l 0.000000,7.407074 M 526.695979,632.988497 l 0.000000,-8.265819 M 532.695979,626.946434 l 0.000000,9.124563 M 538.695979,639.153497 l 0.000000,-9.983308 M 544.695979,631.393945 l 0.000000,10.215592 M 550.695979,640.718627 l 0.000000,-7.100927 M 556.695979,635.841456 l 0.000000,3.986263 M 562.695979,638.936809 l 0.000000,-0.871598"
       id="path28" />
    <path
       style="stroke:#999999"
       d="M 226.695979,557.709779 l 0.000000,6.645695 M 232.695979,573.867718 l 0.000000,-20.718028 M 238.695979,548.589601 l 0.000000,20.927138 M 244.695979,565.165760 l 0.000000,-21.136248 M 250.695979,539.469423 l 0.000000,21.345359 M 256.695979,556.463802 l 0.000000,-21.554469 M 262.695979,530.349245 l 0.000000,21.763579 M 268.695979,547.761844 l 0.000000,-21.972689 M 274.695979,521.229067 l 0.000000,22.181799 M 280.695979,539.059887 l 0.000000,-22.390909 M 286.695979,512.108889 l 0.000000,22.600019 M 292.695979,530.357929 l 0.000000,-22.809129 M 298.695979,502.988711 l 0.000000,23.018239 M 304.695979,521.655971 l 0.000000,-23.227349 M 310.695979,512.574380 l 0.000000,4.730612 M 316.695979,512.954013 l 0.000000,-0.017019 M 406.695979,435.816219 l 0.000000,11.869954 M 412.695979,443.335381 l 0.000000,-19.676181 M 418.695979,415.148795 l 0.000000,23.835795 M 424.695979,434.633798 l 0.000000,-26.403835 M 430.695979,402.723988 l 0.000000,27.559018 M 436.695979,425.932214 l 0.000000,-27.767297 M 442.695979,393.605847 l 0.000000,27.975575 M 448.695979,417.230631 l 0.000000,-28.183854 M 454.695979,384.487707 l 0.000000,28.392132 M 460.695979,408.529048 l 0.000000,-28.600411 M 466.695979,375.369566 l 0.000000,28.808690 M 472.695979,399.827464 l 0.000000,-29.016968 M 478.695979,366.251425 l 0.000000,29.225247 M 484.695979,391.125881 l 0.000000,-29.433526 M 490.695979,357.133285 l 0.000000,29.641804 M 496.695979,382.424297 l 0.000000,-29.850083 M 502.695979,348.015144 l 0.000000,30.058362 M 508.695979,373.722714 l 0.000000,-30.266640 M 514.695979,338.897003 l 0.000000,30.474919 M 520.695979,365.021130 l 0.000000,-30.683198 M 526.695979,329.778862 l 0.000000,30.891476 M 532.695979,356.319547 l 0.000000,-31.099755 M 538.695979,320.660722 l 0.000000,31.308034 M 544.695979,347.617963 l 0.000000,-31.516312 M 550.695979,311.542581 l 0.000000,31.724591 M 556.695979,338.916380 l 0.000000,-31.932870 M 562.695979,302.424440 l 0.000000,32.141148 M 568.695979,330.214797 l 0.000000,-32.349427 M 574.695979,293.306299 l 0.000000,32.557706 M 580.695979,321.513213 l 0.000000,-32.765984 M 586.695979,284.188159 l 0.000000,32.974263 M 592.695979,312.811630 l 0.000000,-33.182541 M 598.695979,275.070018 l 0.000000,33.390820 M 604.695979,304.110046 l 0.000000,-33.599099 M 610.695979,265.951877 l 0.000000,33.807377 M 616.695979,295.408463 l 0.000000,-34.015656 M 622.695979,260.442976 l 0.000000,30.614695 M 628.695979,286.706879 l 0.000000,-12.230290"
       id="path30" />
  </g>
  <g
     inkscape:label="fill-9c9c9c"
     inkscape:groupmode="layer"
     id="fill-9c9c9c">
    <path
       style="stroke:#9c9c9c"
       d="M 580.547781,751.427939 l 0.000000,62.577523 M 586.547781,815.718446 l 0.000000,-62.676812 M 592.547781,754.655331 l 0.000000,62.776100 M 598.547781,819.144415 l 0.000000,-62.875388 M 604.547781,757.882723 l 0.000000,62.974676 M 610.547781,822.570384 l 0.000000,-63.073964"
       id="path33" />
  </g>
  <g
     inkscape:label="fill-a3a3a3"
     inkscape:groupmode="layer"
     id="fill-a3a3a3">
    <path
       style="stroke:#a3a3a3"
       d="M 636.000483,665.232933 l 0.000000,0.225940 M 642.000483,671.293322 l 0.000000,-3.836334 M 648.000483,669.681044 l 0.000000,7.446728 M 654.000483,682.962221 l 0.000000,-11.057121 M 660.000483,674.129156 l 0.000000,14.667515 M 666.000483,694.631120 l 0.000000,-18.277908 M 672.000483,678.577268 l 0.000000,21.888302 M 678.000483,706.300019 l 0.000000,-25.498696 M 684.000483,683.025379 l 0.000000,29.109089 M 690.000483,717.968918 l 0.000000,-32.719483 M 696.000483,687.473491 l 0.000000,36.329877 M 702.000483,729.637817 l 0.000000,-39.940270 M 708.000483,691.921603 l 0.000000,43.550664 M 714.000483,741.306716 l 0.000000,-47.161058 M 720.000483,696.369715 l 0.000000,50.771451 M 726.000483,752.975615 l 0.000000,-54.381845 M 732.000483,700.817826 l 0.000000,57.992239 M 738.000483,764.644514 l 0.000000,-59.283689 M 744.000483,711.146338 l 0.000000,59.332626 M 750.000483,776.313413 l 0.000000,-59.381562 M 756.000483,722.717364 l 0.000000,54.821448 M 762.000483,775.937776 l 0.000000,-47.434900 M 768.000483,734.288389 l 0.000000,40.048351 M 774.000483,772.735703 l 0.000000,-32.661802 M 780.000483,745.859414 l 0.000000,25.275253 M 786.000483,769.533631 l 0.000000,-17.888704 M 792.000483,757.430440 l 0.000000,10.502155 M 798.000483,766.331558 l 0.000000,-3.115606"
       id="path36" />
  </g>
  <g
     inkscape:label="fill-a4a4a4"
     inkscape:groupmode="layer"
     id="fill-a4a4a4">
    <path
       style="stroke:#a4a4a4"
       d="M 889.900860,552.448036 l 0.000000,34.798468 M 895.900860,584.041072 l 0.000000,-34.212008 M 901.900860,547.210093 l 0.000000,33.625548 M 907.900860,577.630210 l 0.000000,-33.039088 M 913.900860,541.972151 l 0.000000,32.452628 M 919.900860,571.219348 l 0.000000,-31.866168 M 925.900860,536.734208 l 0.000000,31.279708"
       id="path39" />
  </g>
  <g
     inkscape:label="fill-a5a5a5"
     inkscape:groupmode="layer"
     id="fill-a5a5a5">
    <path
       style="stroke:#a5a5a5"
       d="M 609.108296,629.524708 l 0.000000,0.477705 M 615.108296,630.888382 l 0.000000,-32.031656 M 621.108296,593.084003 l 0.000000,38.690349 M 627.108296,632.660322 l 0.000000,-38.740923 M 633.108296,594.754794 l 0.000000,38.791497 M 639.108296,634.432261 l 0.000000,-38.842072 M 645.108296,596.425584 l 0.000000,38.892646 M 651.108296,636.204200 l 0.000000,-38.943221 M 657.108296,598.096374 l 0.000000,38.993795 M 663.108296,637.976139 l 0.000000,-39.044369 M 669.108296,599.767164 l 0.000000,39.094944 M 675.108296,639.748078 l 0.000000,-39.145518 M 681.108296,601.437955 l 0.000000,39.196093 M 687.108296,641.520017 l 0.000000,-39.246667 M 693.108296,603.108745 l 0.000000,39.297241 M 699.108296,643.291956 l 0.000000,-39.347816 M 705.108296,604.779535 l 0.000000,39.398390 M 711.108296,645.063895 l 0.000000,-39.448965 M 717.108296,606.450326 l 0.000000,28.544511"
       id="path42" />
  </g>
  <g
     inkscape:label="fill-a6a6a6"
     inkscape:groupmode="layer"
     id="fill-a6a6a6">
    <path
       style="stroke:#a6a6a6"
       d="M 465.244158,771.958102 l 0.000000,9.340903 M 471.244158,785.006711 l 0.000000,-45.850242 M 477.244158,706.354837 l 0.000000,82.359580 M 483.244158,792.422123 l 0.000000,-118.868919 M 489.244158,640.751571 l 0.000000,155.378257 M 495.244158,799.837534 l 0.000000,-183.004119 M 501.244158,619.922725 l 0.000000,183.622514 M 507.244158,807.252945 l 0.000000,-184.240909 M 513.244158,626.101347 l 0.000000,167.893330 M 519.244158,764.043834 l 0.000000,-134.853177 M 525.244158,632.279969 l 0.000000,101.813023 M 531.244158,704.142149 l 0.000000,-68.772869 M 537.244158,638.458590 l 0.000000,35.732716 M 543.244158,644.240463 l 0.000000,-2.692562"
       id="path45" />
  </g>
  <g
     inkscape:label="fill-a9a9a9"
     inkscape:groupmode="layer"
     id="fill-a9a9a9">
    <path
       style="stroke:#a9a9a9"
       d="M 583.392717,750.031270 l 0.000000,2.156451 M 589.392717,753.790141 l 0.000000,-5.144456 M 595.392717,747.260101 l 0.000000,8.132460 M 601.392717,756.994981 l 0.000000,-11.120465 M 607.392717,744.488932 l 0.000000,14.108469 M 613.392717,760.199821 l 0.000000,-17.096473 M 619.392717,741.717764 l 0.000000,17.801025 M 625.392717,757.838789 l 0.000000,-15.387405 M 631.392717,748.661665 l 0.000000,7.497124"
       id="path48" />
  </g>
  <g
     inkscape:label="fill-acacac"
     inkscape:groupmode="layer"
     id="fill-acacac">
    <path
       style="stroke:#acacac"
       d="M 313.624133,479.532130 l 0.000000,33.347302 M 320.624133,512.551068 l 0.000000,-53.027125 M 327.624133,420.641209 l 0.000000,90.169281 M 334.624133,508.050726 l 0.000000,-111.569378 M 341.624133,396.678825 l 0.000000,107.910453 M 348.624133,500.637746 l 0.000000,-103.657418 M 355.624133,397.419753 l 0.000000,99.385121 M 355.624133,509.847492 l 0.000000,-4.662004 M 362.624133,397.879938 l 0.000000,96.401410 M 362.624133,512.184521 l 0.000000,-16.143888 M 369.624133,398.340122 l 0.000000,116.226876 M 376.624133,516.719412 l 0.000000,-117.919105 M 383.624133,399.361777 l 0.000000,119.075193 M 390.624133,519.892278 l 0.000000,-119.874605 M 397.624133,400.673570 l 0.000000,120.428454 M 404.624133,441.664121 l 0.000000,-40.334654 M 404.624133,452.200522 l 0.000000,69.902023 M 411.624133,425.541984 l 0.000000,-23.489026 M 411.624133,448.395491 l 0.000000,74.465414 M 418.624133,415.297761 l 0.000000,-12.295923 M 418.624133,444.590459 l 0.000000,79.028804 M 425.624133,407.297006 l 0.000000,-2.966091 M 425.624133,440.785428 l 0.000000,83.278742 M 432.624133,524.445058 l 0.000000,-87.464662 M 439.624133,432.497835 l 0.000000,92.328112 M 446.624133,525.051740 l 0.000000,-97.583136 M 453.624133,422.439373 l 0.000000,102.684034 M 460.624133,525.195073 l 0.000000,-95.664009 M 467.624133,448.318764 l 0.000000,76.947975"
       id="path51" />
  </g>
  <g
     inkscape:label="fill-aeaeae"
     inkscape:groupmode="layer"
     id="fill-aeaeae">
    <path
       style="stroke:#aeaeae"
       d="M 600.437026,714.555566 l 0.000000,2.091120 M 607.437026,723.883234 l 0.000000,-24.412539 M 614.437026,684.385824 l 0.000000,46.733958 M 621.437026,738.356330 l 0.000000,-69.055376 M 628.437026,662.428784 l 0.000000,83.164094 M 635.437026,752.829426 l 0.000000,-87.794036 M 642.437026,671.751874 l 0.000000,88.314100 M 649.437026,767.302522 l 0.000000,-88.740040 M 656.437026,685.373090 l 0.000000,89.165979 M 663.437026,781.775618 l 0.000000,-89.591919 M 670.437026,698.994306 l 0.000000,90.017859 M 677.437026,796.248713 l 0.000000,-90.443799 M 684.437026,712.615523 l 0.000000,90.869739 M 691.437026,810.721809 l 0.000000,-91.295679 M 698.437026,726.236739 l 0.000000,91.721619 M 705.437026,825.194905 l 0.000000,-92.147558 M 712.437026,739.857955 l 0.000000,92.573498 M 719.437026,839.668001 l 0.000000,-92.999438 M 726.437026,753.479171 l 0.000000,74.464384 M 733.437026,814.560803 l 0.000000,-54.271024 M 740.437026,767.100387 l 0.000000,34.077664 M 747.437026,787.795299 l 0.000000,-13.884304"
       id="path54" />
  </g>
  <g
     inkscape:label="fill-b3b3b3"
     inkscape:groupmode="layer"
     id="fill-b3b3b3">
    <path
       style="stroke:#b3b3b3"
       d="M 232.716207,573.852475 l 0.000000,1.098965 M 239.716207,573.394236 l 0.000000,-4.619745 M 246.716207,563.696508 l 0.000000,7.429296 M 253.716207,566.099091 l 0.000000,-7.480566 M 260.716207,553.540542 l 0.000000,7.531836 M 267.716207,556.045664 l 0.000000,-7.583106 M 274.716207,543.384575 l 0.000000,7.634375 M 281.716207,545.992237 l 0.000000,-7.685645 M 288.716207,533.228609 l 0.000000,7.736915 M 295.716207,535.938810 l 0.000000,-7.788185 M 302.716207,523.072642 l 0.000000,7.839455 M 309.716207,525.885383 l 0.000000,-7.890724 M 316.716207,512.934370 l 0.000000,7.924300 M 323.716207,515.831956 l 0.000000,-3.954498 M 330.716207,509.731096 l 0.000000,1.074146 M 407.716207,450.519745 l 0.000000,-3.583340 M 414.716207,441.858847 l 0.000000,4.855867 M 421.716207,442.909682 l 0.000000,-6.128393 M 428.716207,431.703730 l 0.000000,7.400920 M 435.716207,435.299619 l 0.000000,-8.673447 M 442.716207,421.548614 l 0.000000,8.727684 M 449.716207,425.247067 l 0.000000,-8.776012 M 456.716207,411.393498 l 0.000000,8.909502 M 463.716207,415.276139 l 0.000000,-8.960200 M 470.716207,401.238381 l 0.000000,9.010897 M 477.716207,405.222418 l 0.000000,-9.061595 M 484.716207,391.083265 l 0.000000,9.112293 M 491.716207,395.168697 l 0.000000,-9.162990 M 498.716207,380.928148 l 0.000000,9.213688 M 505.716207,385.114976 l 0.000000,-9.264386 M 512.716207,370.773032 l 0.000000,9.315084 M 519.716207,375.061255 l 0.000000,-9.365781 M 526.716207,360.617915 l 0.000000,9.416479 M 533.716207,365.007534 l 0.000000,-9.467177 M 540.716207,350.462799 l 0.000000,9.517875 M 547.716207,354.953813 l 0.000000,-9.568572 M 554.716207,340.307683 l 0.000000,9.619270 M 561.716207,344.900092 l 0.000000,-9.669968 M 568.716207,330.152566 l 0.000000,9.720665 M 575.716207,334.846371 l 0.000000,-9.771363 M 582.716207,319.997450 l 0.000000,9.822061 M 589.716207,324.792650 l 0.000000,-9.872759 M 596.716207,309.842333 l 0.000000,9.923456 M 603.716207,314.738929 l 0.000000,-9.974154 M 610.716207,299.687217 l 0.000000,10.024852 M 617.716207,304.685208 l 0.000000,-10.075549 M 624.716207,289.532101 l 0.000000,10.126247 M 631.716207,294.631487 l 0.000000,-10.176945 M 638.716207,282.318404 l 0.000000,7.286222 M 645.716207,284.577766 l 0.000000,-3.921604 M 652.716207,278.993921 l 0.000000,0.556985"
       id="path57" />
  </g>
  <g
     inkscape:label="fill-bbbbbb"
     inkscape:groupmode="layer"
     id="fill-bbbbbb">
    <path
       style="stroke:#bbbbbb"
       d="M 420.259583,561.704327 l 0.000000,23.571738 M 427.259583,587.870749 l 0.000000,-25.740867 M 434.259583,562.555435 l 0.000000,27.909997 M 441.259583,593.060115 l 0.000000,-30.079126 M 448.259583,563.406543 l 0.000000,32.248256 M 455.259583,598.249482 l 0.000000,-34.417385 M 462.259583,564.257650 l 0.000000,36.586514 M 469.259583,603.438848 l 0.000000,-38.755644 M 476.259583,565.108758 l 0.000000,40.924773 M 483.259583,608.628214 l 0.000000,-42.141547 M 490.259583,569.038975 l 0.000000,42.183923 M 497.259583,613.817581 l 0.000000,-42.226298 M 504.259583,574.143590 l 0.000000,42.268674 M 511.259583,619.006947 l 0.000000,-42.311049 M 518.259583,579.248206 l 0.000000,42.353425 M 525.259583,624.196314 l 0.000000,-42.395800 M 532.259583,584.352821 l 0.000000,42.438176 M 539.259583,629.385680 l 0.000000,-42.480551 M 546.259583,589.457437 l 0.000000,42.522927 M 553.259583,634.575047 l 0.000000,-42.565302 M 560.259583,594.562052 l 0.000000,42.607678 M 567.259583,639.764413 l 0.000000,-42.650053 M 574.259583,599.666667 l 0.000000,42.692429 M 581.259583,644.953779 l 0.000000,-42.734804 M 588.259583,604.771283 l 0.000000,42.777180 M 595.259583,650.143146 l 0.000000,-42.819555 M 602.259583,610.527697 l 0.000000,42.210132 M 609.259583,655.332512 l 0.000000,-25.298779 M 616.259583,631.067885 l 0.000000,26.859310 M 623.259583,660.521879 l 0.000000,-28.419842 M 630.259583,633.136189 l 0.000000,29.980373 M 637.259583,665.711245 l 0.000000,-31.540904 M 644.259583,635.204493 l 0.000000,33.101435 M 651.259583,670.900611 l 0.000000,-34.661967 M 658.259583,637.272797 l 0.000000,36.222498 M 665.259583,676.089978 l 0.000000,-37.783029 M 672.259583,639.341101 l 0.000000,39.343560 M 679.259583,681.279344 l 0.000000,-40.904092 M 686.259583,641.409405 l 0.000000,42.464623 M 693.259583,686.468711 l 0.000000,-43.420582 M 700.259583,645.598674 l 0.000000,43.464720 M 707.259583,691.658077 l 0.000000,-43.508858 M 714.259583,650.699765 l 0.000000,43.552996 M 721.259583,696.847444 l 0.000000,-43.597133 M 728.259583,655.800856 l 0.000000,43.641271 M 735.259583,702.036810 l 0.000000,-43.685409 M 742.259583,660.901946 l 0.000000,43.729547 M 749.259583,707.226176 l 0.000000,-43.773684 M 756.259583,666.003037 l 0.000000,43.817822 M 763.259583,712.415543 l 0.000000,-43.861960 M 770.259583,671.104128 l 0.000000,29.562818"
       id="path60" />
  </g>
  <g
     inkscape:label="fill-cdcdcd"
     inkscape:groupmode="layer"
     id="fill-cdcdcd">
    <path
       style="stroke:#cdcdcd"
       d="M 306.915600,521.842363 l 0.000000,2.226022 M 314.915600,524.491777 l 0.000000,-4.700463 M 322.915600,517.740265 l 0.000000,7.174903 M 330.915600,525.338559 l 0.000000,-9.649344 M 338.915600,513.638166 l 0.000000,12.123784 M 346.915600,526.185341 l 0.000000,-14.598225 M 354.915600,509.597844 l 0.000000,17.010888 M 362.915600,527.032124 l 0.000000,-14.691745 M 370.915600,514.984914 l 0.000000,12.470601 M 378.915600,527.878906 l 0.000000,-10.573606 M 386.915600,519.221674 l 0.000000,9.080623 M 394.915600,528.725688 l 0.000000,-8.086435 M 402.915600,521.944498 l 0.000000,7.204582 M 410.915600,529.572471 l 0.000000,-6.782087 M 418.915600,523.636270 l 0.000000,6.359592 M 426.915600,530.419253 l 0.000000,-6.273192 M 434.915600,524.571029 l 0.000000,6.271615 M 442.915600,531.266036 l 0.000000,-6.270038 M 450.915600,525.103027 l 0.000000,6.586400 M 458.915600,532.112818 l 0.000000,-6.930663 M 466.915600,525.261283 l 0.000000,7.274926 M 474.915600,532.959600 l 0.000000,-20.650968 M 482.915600,512.690572 l 0.000000,20.692419 M 490.915600,533.806383 l 0.000000,-20.733871 M 498.915600,513.454452 l 0.000000,20.775322 M 506.915600,534.653165 l 0.000000,-20.816774 M 514.915600,514.218331 l 0.000000,20.858225 M 522.915600,535.499947 l 0.000000,-20.899677 M 530.915600,514.982210 l 0.000000,20.941128 M 538.915600,536.346730 l 0.000000,-20.982580 M 546.915600,515.746090 l 0.000000,21.024031 M 554.915600,537.193512 l 0.000000,-21.065483 M 562.915600,516.509969 l 0.000000,21.106934 M 570.915600,538.040295 l 0.000000,-21.148386 M 578.915600,517.273849 l 0.000000,21.189837 M 586.915600,538.887077 l 0.000000,-21.231289 M 594.915600,518.037728 l 0.000000,21.272740 M 602.915600,539.733859 l 0.000000,-21.314191 M 610.915600,518.801608 l 0.000000,21.355643 M 618.915600,540.580642 l 0.000000,-21.397094 M 626.915600,519.565487 l 0.000000,21.438546 M 634.915600,541.427424 l 0.000000,-21.479997 M 642.915600,520.329366 l 0.000000,21.521449 M 650.915600,542.274206 l 0.000000,-21.562900 M 658.915600,521.093246 l 0.000000,21.604352 M 666.915600,543.120989 l 0.000000,-21.645803 M 674.915600,521.857125 l 0.000000,21.687255 M 682.915600,543.967771 l 0.000000,-21.728706 M 690.915600,522.621005 l 0.000000,21.770158 M 698.915600,544.814554 l 0.000000,-21.811609 M 706.915600,523.384884 l 0.000000,21.853061 M 714.915600,545.661336 l 0.000000,-21.894512 M 722.915600,524.148763 l 0.000000,21.935964 M 730.915600,546.508118 l 0.000000,-21.977415 M 738.915600,524.912643 l 0.000000,22.018867 M 746.915600,547.354901 l 0.000000,-22.060318 M 754.915600,525.676522 l 0.000000,22.101770 M 762.915600,548.201683 l 0.000000,-22.143221 M 770.915600,526.440402 l 0.000000,22.184673 M 778.915600,549.048465 l 0.000000,-22.226124 M 786.915600,527.204281 l 0.000000,22.267576 M 794.915600,549.895248 l 0.000000,-22.309027 M 802.915600,527.968161 l 0.000000,22.350478 M 810.915600,550.742030 l 0.000000,-22.391930 M 818.915600,528.732040 l 0.000000,22.433381 M 826.915600,551.588813 l 0.000000,-22.474833 M 834.915600,529.495919 l 0.000000,22.516284 M 842.915600,552.435595 l 0.000000,-22.557736 M 850.915600,530.259799 l 0.000000,22.599187 M 858.915600,553.282377 l 0.000000,-22.640639 M 866.915600,531.023678 l 0.000000,22.682090 M 874.915600,554.129160 l 0.000000,-22.723542 M 882.915600,531.787558 l 0.000000,22.764993 M 890.915600,552.017504 l 0.000000,-19.848007 M 898.915600,532.551437 l 0.000000,15.971386 M 906.915600,545.028142 l 0.000000,-12.094766 M 914.915600,533.315316 l 0.000000,8.218145 M 922.915600,538.038781 l 0.000000,-4.341524 M 930.915600,534.079196 l 0.000000,0.464904"
       id="path63" />
  </g>
  <g
     inkscape:label="fill-d4d4d4"
     inkscape:groupmode="layer"
     id="fill-d4d4d4">
    <path
       style="stroke:#d4d4d4"
       d="M 305.056626,523.968172 l 0.000000,30.748535 M 313.056626,555.202378 l 0.000000,-30.810135 M 321.056626,524.816313 l 0.000000,30.871736 M 329.056626,556.173719 l 0.000000,-30.933336 M 337.056626,525.664454 l 0.000000,30.994936 M 345.056626,557.145060 l 0.000000,-31.056536 M 353.056626,526.512595 l 0.000000,31.118136 M 361.056626,558.116401 l 0.000000,-31.179736 M 369.056626,527.360735 l 0.000000,31.241336 M 377.056626,559.087742 l 0.000000,-31.302936 M 385.056626,528.208876 l 0.000000,31.364536 M 393.056626,560.059083 l 0.000000,-31.426136 M 401.056626,529.057017 l 0.000000,31.487737 M 409.056626,561.030424 l 0.000000,-31.549337 M 417.056626,529.905158 l 0.000000,31.610937 M 425.056626,562.001766 l 0.000000,-31.672537 M 433.056626,530.753299 l 0.000000,31.734137 M 441.056626,562.973107 l 0.000000,-31.795737 M 449.056626,531.601440 l 0.000000,31.857337 M 457.056626,563.944448 l 0.000000,-31.918937 M 465.056626,532.449581 l 0.000000,31.980537 M 473.056626,564.915789 l 0.000000,-32.042138 M 481.056626,533.297722 l 0.000000,32.103738 M 489.056626,565.887130 l 0.000000,-32.165338 M 497.056626,534.145863 l 0.000000,32.226938 M 505.056626,566.858471 l 0.000000,-32.288538 M 513.056626,534.994004 l 0.000000,32.350138 M 521.056626,567.829812 l 0.000000,-32.411738 M 529.056626,535.842145 l 0.000000,32.473338 M 537.056626,568.801153 l 0.000000,-32.534938 M 545.056626,536.690286 l 0.000000,32.596538 M 553.056626,569.772495 l 0.000000,-32.658139 M 561.056626,537.538427 l 0.000000,32.719739 M 569.056626,570.743836 l 0.000000,-32.781339 M 577.056626,538.386567 l 0.000000,32.842939 M 585.056626,571.715177 l 0.000000,-32.904539 M 593.056626,539.234708 l 0.000000,32.966139 M 601.056626,572.686518 l 0.000000,-33.027739 M 609.056626,540.082849 l 0.000000,33.089339 M 617.056626,573.657859 l 0.000000,-33.150939 M 625.056626,540.930990 l 0.000000,33.212540 M 633.056626,574.629200 l 0.000000,-33.274140 M 641.056626,541.779131 l 0.000000,33.335740 M 649.056626,575.600541 l 0.000000,-33.397340 M 657.056626,542.627272 l 0.000000,33.458940 M 665.056626,576.571883 l 0.000000,-33.520540 M 673.056626,543.475413 l 0.000000,33.582140 M 681.056626,577.543224 l 0.000000,-33.643740 M 689.056626,544.323554 l 0.000000,33.705340 M 697.056626,578.514565 l 0.000000,-33.766940 M 705.056626,545.171695 l 0.000000,33.828541 M 713.056626,579.485906 l 0.000000,-33.890141 M 721.056626,546.019836 l 0.000000,33.951741 M 729.056626,580.457247 l 0.000000,-34.013341 M 737.056626,546.867977 l 0.000000,34.074941 M 745.056626,581.428588 l 0.000000,-34.136541 M 753.056626,547.716118 l 0.000000,34.198141 M 761.056626,582.399929 l 0.000000,-34.259741 M 769.056626,548.564258 l 0.000000,34.321341 M 777.056626,583.371270 l 0.000000,-34.382942 M 785.056626,549.412399 l 0.000000,34.444542 M 793.056626,584.342612 l 0.000000,-34.506142 M 801.056626,550.260540 l 0.000000,34.567742 M 809.056626,585.313953 l 0.000000,-34.629342 M 817.056626,551.108681 l 0.000000,34.690942 M 825.056626,586.285294 l 0.000000,-34.752542 M 833.056626,551.956822 l 0.000000,34.814142 M 841.056626,587.256635 l 0.000000,-34.875742 M 849.056626,552.804963 l 0.000000,34.937342 M 857.056626,588.227976 l 0.000000,-34.998943 M 865.056626,553.653104 l 0.000000,35.060543 M 873.056626,589.199317 l 0.000000,-35.122143 M 881.056626,554.501245 l 0.000000,35.183743"
       id="path66" />
  </g>
</svg>
