<?xml version="1.0" encoding="UTF-8" standalone="no"?>
<!-- Created with Inkscape (http://www.inkscape.org/) -->

<svg
   xmlns:dc="http://purl.org/dc/elements/1.1/"
   xmlns:cc="http://creativecommons.org/ns#"
   xmlns:rdf="http://www.w3.org/1999/02/22-rdf-syntax-ns#"
   xmlns:svg="http://www.w3.org/2000/svg"
   xmlns="http://www.w3.org/2000/svg"
   xmlns:sodipodi="http://sodipodi.sourceforge.net/DTD/sodipodi-0.dtd"
   xmlns:inkscape="http://www.inkscape.org/namespaces/inkscape"
   id="svg2"
   version="1.1"
   inkscape:version="0.48.3.1 r9886"
   width="1500"
   height="1911"
   sodipodi:docname="hantologie-_0000_arbre-01_hatched_1398270007.svg">
  <defs
     id="defs27" />
  <sodipodi:namedview
     pagecolor="#ffffff"
     bordercolor="#666666"
     borderopacity="1"
     objecttolerance="10"
     gridtolerance="10"
     guidetolerance="10"
     inkscape:pageopacity="0"
     inkscape:pageshadow="2"
     inkscape:window-width="640"
     inkscape:window-height="480"
     id="namedview25" />
  <metadata
     id="metadata8">
    <rdf:RDF>
      <cc:Work
         rdf:about="">
        <dc:format>image/svg+xml </dc:format>
        <dc:type
           rdf:resource="http://purl.org/dc/dcmitype/StillImage" />
        <dc:title />
      </cc:Work>
    </rdf:RDF>
  </metadata>
  <g
     inkscape:label="fill-040404"
     inkscape:groupmode="layer"
     id="fill-040404">
    <path
       style="stroke:#040404"
       d="M 744.292691,1272.710213 l 39.497487,0.000000 M 809.664329,1262.710213 l -88.940500,0.000000 M 665.562787,1252.710213 l 169.072350,0.000000 M 820.448170,1242.710213 l -180.982591,0.000000 M 822.320187,1242.710213 l 8.041287,0.000000 M 834.521367,1232.710213 l -185.597173,0.000000 M 658.795397,1222.710213 l 127.800903,0.000000 M 830.882078,1222.710213 l -39.738370,0.000000 M 666.878580,1212.710213 l 102.339176,0.000000 M 782.809743,1212.710213 l -12.871211,0.000000 M 790.579377,1212.710213 l 32.703902,0.000000 M 472.557594,1202.710213 l -3.146647,0.000000 M 617.636891,1202.710213 l 2.716340,0.000000 M 713.085480,1202.710213 l -35.490080,0.000000 M 729.755848,1202.710213 l 34.098277,0.000000 M 773.452265,1202.710213 l -3.771431,0.000000 M 776.783944,1202.710213 l 38.513352,0.000000 M 628.494316,1192.710213 l -6.448909,0.000000 M 682.939290,1192.710213 l 16.444853,0.000000 M 805.507023,1192.710213 l -52.300810,0.000000 M 418.859976,1182.710213 l 7.169563,0.000000 M 448.816995,1182.710213 l -3.593766,0.000000 M 615.890314,1182.710213 l 14.090934,0.000000 M 654.413185,1182.710213 l -21.390726,0.000000 M 687.112718,1182.710213 l 19.647244,0.000000 M 790.653163,1182.710213 l -34.947574,0.000000 M 441.618594,1172.710213 l 5.220521,0.000000 M 649.447325,1172.710213 l -41.115440,0.000000 M 688.411091,1172.710213 l 21.973705,0.000000 M 774.979032,1172.710213 l -35.963279,0.000000 M 436.680829,1162.710213 l 6.893152,0.000000 M 452.883735,1162.710213 l -4.263318,0.000000 M 597.572136,1162.710213 l 52.820855,0.000000 M 706.529218,1162.710213 l -18.730087,0.000000 M 724.552313,1162.710213 l 33.316171,0.000000 M 441.174909,1152.710213 l -7.379607,0.000000 M 444.736950,1152.710213 l 10.036276,0.000000 M 663.201156,1152.710213 l -71.602702,0.000000 M 689.367420,1152.710213 l 52.507998,0.000000 M 440.455809,1142.710213 l -9.257169,0.000000 M 441.001878,1142.710213 l 5.984908,0.000000 M 571.416037,1142.710213 l -5.325268,0.000000 M 586.994424,1142.710213 l 76.820325,0.000000 M 688.528594,1142.710213 l -3.492095,0.000000 M 692.820704,1142.710213 l 42.247357,0.000000 M 434.456675,1132.710213 l -5.628297,0.000000 M 560.603176,1132.710213 l 6.416858,0.000000 M 660.854717,1132.710213 l -78.105739,0.000000 M 686.580066,1132.710213 l 14.622448,0.000000 M 708.857720,1132.710213 l -5.034838,0.000000 M 712.578321,1132.710213 l 4.836207,0.000000 M 726.844039,1132.710213 l -6.340312,0.000000 M 427.071642,1122.710213 l 1.056122,0.000000 M 564.496990,1122.710213 l -2.545870,0.000000 M 577.889043,1122.710213 l 77.740983,0.000000 M 666.984160,1122.710213 l -0.172155,0.000000 M 681.567921,1122.710213 l 34.776495,0.000000 M 706.175022,1112.710213 l -132.361826,0.000000 M 707.102454,1112.710213 l 8.312075,0.000000 M 555.825043,1102.710213 l -3.521273,0.000000 M 571.380745,1102.710213 l 30.408559,0.000000 M 713.388599,1102.710213 l -108.371071,0.000000 M 552.049453,1092.710213 l 11.144263,0.000000 M 659.197396,1092.710213 l -93.535427,0.000000 M 672.338600,1092.710213 l 32.095939,0.000000 M 655.574074,1082.710213 l -106.386615,0.000000 M 678.195374,1082.710213 l 14.840233,0.000000 M 648.752029,1072.710213 l -104.180793,0.000000 M 669.091351,1072.710213 l 12.456238,0.000000 M 642.041937,1062.710213 l -102.544338,0.000000 M 662.500105,1062.710213 l 8.119147,0.000000 M 551.628197,1052.710213 l -17.305164,0.000000 M 563.016835,1052.710213 l 70.134307,0.000000 M 659.791489,1052.710213 l -1.743975,0.000000 M 528.743873,1042.710213 l 19.679165,0.000000 M 623.873140,1042.710213 l -56.806235,0.000000 M 629.064797,1042.710213 l 6.185806,0.000000 M 644.389524,1042.710213 l -2.344228,0.000000 M 522.405876,1032.710213 l 28.903707,0.000000 M 571.768560,1032.710213 l -14.955044,0.000000 M 582.885356,1032.710213 l 31.279106,0.000000 M 633.443538,1032.710213 l -13.070781,0.000000 M 518.906520,1022.710213 l 7.206608,0.000000 M 563.038034,1022.710213 l -36.630220,0.000000 M 585.955434,1022.710213 l 16.558090,0.000000 M 611.273024,1022.710213 l -2.148815,0.000000 M 505.730918,1012.710213 l 4.949119,0.000000 M 519.226223,1012.710213 l -5.027047,0.000000 M 521.933203,1012.710213 l 34.305873,0.000000 M 605.049171,1012.710213 l -18.537485,0.000000 M 497.494925,1002.710213 l 8.742756,0.000000 M 514.186002,1002.710213 l -3.763163,0.000000 M 516.799147,1002.710213 l 5.666386,0.000000 M 550.183123,1002.710213 l -23.118000,0.000000 M 585.464967,1002.710213 l 11.224715,0.000000 M 501.885326,992.710213 l -6.993554,0.000000 M 506.614171,992.710213 l 3.034818,0.000000 M 517.370788,992.710213 l -5.629601,0.000000 M 522.370679,992.710213 l 21.929812,0.000000 M 586.769308,992.710213 l -8.258283,0.000000 M 483.327760,982.710213 l 13.678953,0.000000 M 505.092208,982.710213 l -2.751046,0.000000 M 507.541286,982.710213 l 4.679792,0.000000 M 539.119253,982.710213 l -21.510451,0.000000 M 488.716142,972.710213 l 4.021369,0.000000 M 500.238358,972.710213 l -2.925171,0.000000 M 503.906231,972.710213 l 4.319806,0.000000 M 533.009271,972.710213 l -19.361347,0.000000 M 492.295478,962.710213 l 3.061206,0.000000 M 504.208426,962.710213 l -4.348445,0.000000 M 510.128642,962.710213 l 2.780531,0.000000 M 526.451213,962.710213 l -12.497656,0.000000 M 556.267014,962.710213 l 0.809621,0.000000 M 491.000458,952.710213 l -2.150220,0.000000 M 495.620405,952.710213 l 3.607561,0.000000 M 519.764231,952.710213 l -10.574482,0.000000 M 468.386701,942.710213 l 2.319197,0.000000 M 486.676266,942.710213 l -3.091353,0.000000 M 491.206004,942.710213 l 2.372708,0.000000 M 512.313755,942.710213 l -7.077888,0.000000 M 475.425583,932.710213 l 6.775447,0.000000 M 504.272075,932.710213 l -3.168083,0.000000 M 468.379978,902.710213 l 2.916810,0.000000 M 465.088129,892.710213 l -3.312376,0.000000 M 453.800511,882.710213 l 4.522391,0.000000 M 451.486483,872.710213 l -4.898492,0.000000 M 439.534949,862.710213 l 5.103679,0.000000 M 437.372526,852.710213 l -5.189680,0.000000 M 424.038952,842.710213 l 6.067472,0.000000 M 408.115963,832.710213 l -2.733430,0.000000 M 418.209283,832.710213 l 4.431341,0.000000 M 362.125538,792.710213 l -1.565091,0.000000"
       id="path5" />
  </g>
  <g
     inkscape:label="fill-2f2f2f"
     inkscape:groupmode="layer"
     id="fill-2f2f2f">
    <path
       style="stroke:#2f2f2f"
       d="M 728.364387,1268.280364 l 81.331898,-4.262424 M 836.699236,1251.587679 l -139.522205,7.312049 M 640.430869,1250.858573 l 198.481487,-10.401974 M 834.707400,1229.661875 l -200.022830,10.482752 M 644.864705,1228.596013 l 184.574021,-9.673115 M 821.138438,1208.342803 l -156.796618,8.217363 M 674.743399,1204.999946 l 41.880212,-2.194849 M 810.947549,1197.861789 l -86.213851,4.518276 M 469.466107,1204.742977 l 4.934804,-0.258622 M 594.073525,1198.212579 l -8.679951,0.454897 M 612.216476,1197.261747 l 4.492114,-0.235422 M 630.948083,1196.280065 l -7.030886,0.368473 M 640.145700,1195.798039 l 0.979040,-0.051309 M 700.183634,1192.651584 l -19.460644,1.019889 M 753.854714,1189.838802 l 47.132390,-2.470104 M 585.299452,1187.657313 l -6.044674,0.316788 M 616.752256,1186.008941 l 15.227227,-0.798025 M 655.629059,1183.971494 l -22.855599,1.197811 M 686.180626,1182.370355 l 27.139987,-1.422346 M 783.960466,1177.245930 l -34.607033,1.813678 M 383.823305,1187.201134 l 14.126865,-0.740358 M 428.002281,1184.885812 l -8.648771,0.453263 M 443.955310,1184.049750 l 6.408654,-0.335863 M 577.398633,1177.056281 l -5.818308,0.304925 M 609.128298,1175.393400 l 44.954813,-2.355982 M 709.168360,1170.150523 l -21.833085,1.144223 M 732.233227,1168.941744 l 35.467596,-1.858778 M 422.083899,1174.180886 l -12.340953,0.646762 M 438.335743,1173.329163 l 10.855933,-0.568935 M 572.057227,1166.321117 l -5.571851,0.292008 M 598.305074,1164.945525 l 56.981868,-2.986293 M 709.595481,1159.113042 l -23.448037,1.228860 M 714.759062,1158.842431 l 34.422537,-1.804009 M 456.673996,1161.353000 l -21.379501,1.120452 M 478.601988,1160.203803 l 4.961378,-0.260015 M 567.369984,1155.551669 l -5.191016,0.272050 M 591.415716,1154.291486 l 75.163558,-3.939155 M 739.569129,1146.527094 l -52.946916,2.774830 M 432.493124,1151.605170 l 23.683507,-1.241200 M 477.970716,1149.221790 l -4.707809,0.246726 M 542.395107,1145.845451 l 3.947668,-0.206889 M 576.453793,1144.060511 l -13.317062,0.697918 M 586.298333,1143.544581 l 76.871199,-4.028649 M 733.338294,1135.838543 l -50.288670,2.635518 M 429.830291,1140.729627 l 16.312547,-0.854904 M 570.668416,1133.348614 l -12.150558,0.636784 M 581.724508,1132.769189 l 77.580432,-4.065818 M 673.040823,1127.983503 l -1.098063,0.057547 M 683.358538,1127.442775 l 26.314646,-1.379092 M 723.610991,1125.333233 l -13.489031,0.706930 M 427.252759,1129.849614 l 9.982392,-0.523155 M 566.007542,1122.577784 l -10.692298,0.560360 M 576.501215,1122.027834 l 96.484694,-5.056549 M 717.413535,1114.642932 l -44.284709,2.320863 M 424.725703,1118.966956 l 7.502200,-0.393174 M 487.158160,1115.695009 l -4.790379,0.251053 M 555.134589,1112.132516 l 7.236554,-0.379252 M 715.204032,1103.743632 l -142.947709,7.491572 M 422.610207,1108.062728 l 8.303685,-0.435178 M 460.979664,1106.051870 l -1.489948,0.078085 M 473.285336,1105.406957 l 7.437801,-0.389799 M 514.801527,1103.231186 l -2.990169,0.156708 M 550.139102,1101.379222 l 6.502562,-0.340785 M 662.353311,1095.498325 l -92.474204,4.846368 M 669.396137,1095.129226 l 37.486488,-1.964584 M 431.829469,1096.564472 l -6.511189,0.341237 M 466.701635,1094.736899 l 3.094471,-0.162174 M 658.191103,1084.701361 l -109.949080,5.762187 M 677.724488,1083.677660 l 18.563302,-0.972861 M 423.915491,1085.964130 l -1.849727,0.096940 M 546.388921,1079.545569 l 105.968676,-5.553583 M 684.378848,1072.313824 l -16.552579,0.867484 M 505.563650,1070.670035 l 2.586449,-0.135550 M 644.803846,1063.372766 l -104.281168,5.465144 M 660.854663,1062.531578 l 12.626411,-0.661722 M 464.618002,1061.800810 l -2.411906,0.126403 M 534.544215,1058.136132 l 102.879146,-5.391668 M 649.278431,1052.123167 l -2.526933,0.132431 M 655.533015,1051.795378 l 4.801886,-0.251656 M 550.308016,1046.294891 l -22.234076,1.165239 M 554.880109,1046.055278 l 1.431770,-0.075036 M 636.518685,1041.776781 l -69.373864,3.635730 M 639.277138,1041.632217 l 6.639054,-0.347938 M 552.833717,1035.147429 l -32.114702,1.683060 M 557.119424,1034.922824 l 17.811386,-0.933455 M 632.481662,1030.973257 l -53.076625,2.781628 M 514.122566,1026.161098 l 51.721297,-2.710598 M 579.777594,1022.720264 l -1.431844,0.075040 M 584.789840,1022.457583 l 18.548999,-0.972112 M 613.049758,1020.976544 l -9.379073,0.491536 M 502.047757,1015.778816 l 0.265871,-0.013934 M 558.173941,1012.837368 l -54.779655,2.870880 M 579.087691,1011.741325 l 2.835007,-0.148576 M 605.300794,1010.367554 l -20.187410,1.057977 M 494.184902,1005.175795 l 29.711769,-1.557128 M 551.413103,1002.176592 l -24.699763,1.294460 M 583.108312,1000.515517 l 13.993461,-0.733366 M 518.703970,992.875710 l -26.299364,1.378291 M 521.481746,992.730133 l 23.741963,-1.244264 M 567.531128,990.316787 l -2.291348,0.120084 M 575.478947,989.900259 l 13.265206,-0.695200 M 498.520606,982.918379 l -24.316495,1.274374 M 500.898101,982.793780 l 11.966664,-0.627146 M 540.047262,980.742059 l -24.172744,1.266840 M 558.165128,979.792542 l 1.507736,-0.079017 M 572.558044,979.038241 l -2.827519,0.148184 M 485.514484,972.584905 l 47.258190,-2.476697 M 496.105806,961.014742 l -12.735866,0.667458 M 497.734312,960.929395 l 7.330388,-0.384169 M 525.492773,959.474636 l -17.659274,0.925483 M 541.167556,958.653156 l 2.104838,-0.110310 M 555.073097,957.924397 l -4.195698,0.219887 M 485.894246,950.534811 l 5.622497,-0.294663 M 499.376046,949.828260 l -6.588302,0.345278 M 505.687503,949.497491 l 12.816869,-0.671704 M 534.983517,947.962152 l -2.696686,0.141327 M 462.804345,940.729806 l 9.240345,-0.484266 M 487.258941,939.448195 l -14.336294,0.751333 M 487.307465,939.445652 l 23.015987,-1.206217 M 525.294517,937.454835 l -1.988222,0.104198 M 468.561931,929.412968 l 18.560504,-0.972715 M 501.422550,927.690816 l -4.320521,0.226429 M 473.322484,918.148382 l 2.211122,-0.115880 M 480.663261,917.763668 l -3.232460,0.169406 M 468.171306,907.403248 l 6.313170,-0.330859 M 451.243576,897.275297 l -4.193391,0.219766 M 462.815763,896.668824 l 5.386745,-0.282307 M 484.973598,895.507581 l -2.992212,0.156815 M 454.201916,886.105161 l 7.272200,-0.381120 M 454.371162,875.081195 l -8.392911,0.439854 M 439.131957,864.864752 l 7.890512,-0.413524 M 439.434268,853.833813 l -7.961274,0.417233 M 414.198915,844.141246 l 1.465652,-0.076812 M 431.682390,843.224976 l -8.731203,0.457583 M 404.116510,833.654547 l 6.304152,-0.330387 M 423.585051,832.634244 l -6.401045,0.335465 M 392.219920,823.262925 l 6.066769,-0.317946 M 414.467786,822.096964 l -0.885974,0.046432 M 357.716201,792.025901 l 4.380269,-0.229560 M 349.482716,781.442304 l -3.633776,0.190438 M 325.839088,760.651222 l 4.805761,-0.251859"
       id="path8" />
  </g>
  <g
     inkscape:label="fill-505050"
     inkscape:groupmode="layer"
     id="fill-505050">
    <path
       style="stroke:#505050"
       d="M 729.087619,1269.083571 l 93.891385,-9.868382 M 866.227275,1254.669613 l -6.231573,0.654965 M 696.553438,1259.431444 l 138.629794,-14.570578 M 846.469935,1243.674585 l -5.330686,0.560278 M 643.842621,1251.899967 l 192.016236,-20.181720 M 486.462305,1255.369697 l -7.745340,0.814068 M 631.267887,1240.150017 l 199.078457,-20.923989 M 482.121114,1242.754367 l -9.360493,0.983827 M 646.491195,1225.478375 l 174.584623,-18.349583 M 475.657169,1230.362147 l -3.244597,0.341021 M 593.807733,1217.944022 l 21.887779,-2.300498 M 809.800053,1195.242315 l -143.828092,15.116942 M 584.953581,1205.803023 l 15.273611,-1.605321 M 621.808498,1201.929416 l -6.346494,0.667043 M 629.388684,1201.132706 l 11.781259,-1.238260 M 646.872820,1199.295049 l -4.418990,0.464455 M 676.795233,1196.150077 l 24.128029,-2.535958 M 795.473720,1183.676465 l -41.545777,4.366637 M 468.916045,1204.927452 l 6.328633,-0.665166 M 591.261643,1192.068412 l -11.376335,1.195701 M 607.023018,1190.411825 l 3.523775,-0.370364 M 657.713945,1185.083993 l -39.586674,4.160727 M 685.795966,1182.132454 l 33.708777,-3.542935 M 777.457326,1172.498457 l -34.051534,3.578960 M 444.587995,1194.412826 l 3.791356,-0.398488 M 471.848303,1191.547652 l -2.503180,0.263095 M 521.091949,1186.371936 l 7.638020,-0.802788 M 560.538283,1182.225959 l -4.021858,0.422714 M 572.255232,1180.994458 l 9.768721,-1.026734 M 655.590021,1172.235619 l -45.945104,4.829025 M 686.356845,1169.001896 l 21.384779,-2.247631 M 758.279970,1161.442471 l -32.915585,3.459567 M 371.223929,1189.052092 l 5.219590,-0.548601 M 402.944901,1185.718084 l -20.442461,2.148589 M 416.216374,1184.323196 l 15.419635,-1.620669 M 452.705859,1180.487996 l -13.338265,1.401908 M 503.158257,1175.185236 l 2.237543,-0.235175 M 574.640374,1167.672162 l -10.128345,1.064532 M 590.600680,1165.994667 l 1.834983,-0.192864 M 667.247015,1157.938812 l -69.341802,7.288117 M 685.388919,1156.032021 l 57.049416,-5.996135 M 415.569195,1171.319609 l -7.847389,0.824794 M 422.315599,1170.610534 l 8.094609,-0.850778 M 456.622679,1167.004714 l -20.633177,2.168634 M 479.337641,1164.617276 l 8.845525,-0.929702 M 584.843686,1153.528143 l -24.465042,2.571380 M 590.426192,1152.941398 l 77.146083,-8.108380 M 735.103988,1137.735149 l -55.026759,5.783545 M 433.090196,1156.406470 l 24.110222,-2.534086 M 481.746813,1151.292454 l -9.565123,1.005335 M 517.581185,1147.526110 l 4.341568,-0.456317 M 546.676316,1144.468088 l -5.629608,0.591696 M 559.377308,1143.133160 l 17.183911,-1.806102 M 663.338817,1132.206365 l -78.893703,8.292062 M 674.709349,1131.011274 l 2.295421,-0.241258 M 727.022301,1125.512961 l -43.519846,4.574120 M 430.017788,1143.657786 l 19.103790,-2.007889 M 511.116806,1135.133935 l -6.955332,0.731035 M 535.664812,1132.553836 l 2.524182,-0.265302 M 570.035382,1128.941344 l -14.804597,1.556026 M 578.556394,1128.045749 l 140.911126,-14.810356 M 438.184679,1129.727803 l -11.259005,1.183369 M 485.148858,1124.791669 l 6.825629,-0.717402 M 565.037996,1116.394982 l -14.001036,1.471568 M 572.947534,1115.563656 l 141.206791,-14.841432 M 432.485123,1117.255243 l -8.661099,0.910318 M 477.270853,1112.548073 l 9.267893,-0.974095 M 559.074152,1103.950200 l -8.523174,0.895822 M 569.744092,1102.828744 l 94.183028,-9.899035 M 703.816294,1088.737188 l -33.389121,3.509338 M 421.742739,1105.312706 l 10.637504,-1.118047 M 462.017088,1101.079701 l -14.642975,1.539039 M 468.290004,1100.420391 l 9.796616,-1.029666 M 512.042999,1095.821766 l -4.585287,0.481933 M 543.830934,1092.480719 l 112.910914,-11.867415 M 668.348074,1079.393440 l -7.556844,0.794256 M 672.245866,1078.983766 l 20.357776,-2.139688 M 429.386098,1091.437749 l -9.775393,1.027435 M 463.625532,1087.839039 l 4.508390,-0.473851 M 520.003473,1081.913479 l -5.239686,0.550713 M 545.552159,1079.228203 l 104.213704,-10.953302 M 678.426966,1065.262499 l -17.827119,1.873706 M 420.512751,1079.298767 l 0.588838,-0.061889 M 509.202059,1069.977145 l -5.049511,0.530725 M 520.392715,1068.800960 l 0.762066,-0.080096 M 642.703904,1055.945536 l -105.728539,11.112517 M 647.970801,1055.391963 l 4.102596,-0.431200 M 664.434573,1053.661551 l -8.228353,0.864835 M 461.231065,1061.947492 l 5.558448,-0.584216 M 553.622249,1052.236788 l -22.910316,2.407971 M 557.015059,1051.880189 l 3.197146,-0.336034 M 648.421679,1042.272966 l -87.252556,9.170613 M 522.853332,1042.399123 l 31.776755,-3.339872 M 560.019001,1038.492854 l -1.110918,0.116762 M 562.255930,1038.257743 l 70.970827,-7.459335 M 567.562274,1024.628417 l -52.511407,5.519171 M 577.551939,1023.578461 l 3.849553,-0.404604 M 617.778561,1019.350472 l -33.436366,3.514304 M 483.080719,1020.436178 l 2.861126,-0.300716 M 559.366615,1012.418207 l -56.238597,5.910915 M 571.403889,1011.153039 l 1.730058,-0.181836 M 581.793395,1010.061058 l -4.572437,0.480583 M 584.887465,1009.735858 l 19.566644,-2.056537 M 481.382879,1007.543021 l -2.873753,0.302044 M 493.329836,1006.287345 l 59.024601,-6.203736 M 573.577837,997.852940 l -4.145544,0.435714 M 580.038670,997.173879 l 15.106372,-1.587744 M 460.254366,996.692109 l -11.976762,1.258808 M 489.735485,993.593519 l 28.502761,-2.995761 M 544.831734,987.802670 l -25.109298,2.639094 M 561.276991,986.074204 l 4.072818,-0.428070 M 584.740503,983.608089 l -12.954490,1.361572 M 446.263622,985.090988 l 11.647865,-1.224240 M 497.841635,979.669921 l -26.595651,2.795316 M 498.276097,979.624257 l 39.062024,-4.105584 M 556.244967,973.531483 l -3.796429,0.399021 M 568.021461,972.293724 l 5.940237,-0.624344 M 529.289726,963.292985 l -44.538437,4.681178 M 542.607360,961.893246 l 4.342531,-0.456418 M 560.954810,959.964851 l -8.991676,0.945063 M 561.168891,959.942350 l 5.369673,-0.564375 M 521.151259,951.076765 l -36.455539,3.831632 M 532.578853,949.875677 l 4.501348,-0.473111 M 546.181372,948.445994 l -1.744567,0.183361 M 462.888041,944.128868 l 49.029244,-5.153181 M 526.291573,937.464889 l -4.296530,0.451583 M 459.641809,931.398453 l 29.067905,-3.055160 M 501.736223,926.974152 l -6.339939,0.666354 M 511.272347,925.971865 l 3.499698,-0.367833 M 480.712108,916.112268 l -16.914643,1.777801 M 488.357152,915.308742 l 1.306621,-0.137331 M 500.475105,914.035093 l -3.998403,0.420249 M 460.410196,905.174478 l 13.333154,-1.401371 M 444.574553,893.767263 l -3.715961,0.390563 M 453.796572,892.797990 l 12.139082,-1.275869 M 481.308914,889.906326 l -3.844877,0.404113 M 443.490529,880.809591 l 14.262464,-1.499045 M 435.298937,868.598954 l -1.757742,0.184746 M 438.950888,868.215119 l 10.478814,-1.101368 M 416.022234,857.553410 l -9.201691,0.967137 M 420.348766,857.098673 l 20.518701,-2.156602 M 404.509969,845.691790 l -8.080231,0.849266 M 408.836805,845.237021 l 23.468427,-2.466631 M 390.184963,834.125801 l -4.172464,0.438544 M 397.432736,833.364030 l 2.680742,-0.281757 M 410.117218,832.030837 l -7.913359,0.831728 M 416.129590,831.398911 l 6.705821,-0.704810 M 380.155406,822.108342 l -2.486544,0.261346 M 385.863227,821.508426 l 10.968848,-1.152872 M 384.109800,808.621111 l -7.683086,0.807525 M 361.060155,797.972119 l 7.226582,-0.759544 M 356.689033,785.359935 l -7.254102,0.762437 M 336.360377,774.424955 l 5.365100,-0.563895 M 322.049835,762.857446 l -3.527261,0.370730 M 325.682630,762.475624 l 7.844428,-0.824483"
       id="path11" />
  </g>
  <g
     inkscape:label="fill-6f6f6f"
     inkscape:groupmode="layer"
     id="fill-6f6f6f">
    <path
       style="stroke:#6f6f6f"
       d="M 734.266389,1271.540676 l 88.945611,-12.500490 M 865.919352,1253.038059 l -10.988416,1.544321 M 704.681746,1261.560941 l 142.643796,-20.047278 M 835.451912,1229.044806 l -178.458869,25.080758 M 472.661876,1265.894035 l 6.424844,-0.902953 M 828.754976,1215.848413 l -212.282328,29.834336 M 475.714504,1251.327430 l 11.889178,-1.670915 M 627.879231,1229.942072 l -2.270716,0.319128 M 641.612189,1228.012031 l 138.569440,-19.474665 M 818.515091,1203.149949 l -37.467790,5.265755 M 470.081578,1237.981500 l 11.787986,-1.656693 M 625.192770,1216.182043 l -33.463784,4.703028 M 654.352515,1212.083908 l 5.415746,-0.761133 M 806.700213,1190.672836 l -143.156408,20.119321 M 473.173570,1223.409363 l 9.079309,-1.276014 M 578.763220,1208.569705 l -11.079295,1.557093 M 580.115777,1208.379616 l 23.862149,-3.353606 M 623.191465,1202.325722 l -7.937270,1.115511 M 628.178572,1201.624830 l 22.236995,-3.125206 M 701.027394,1191.386596 l -24.388439,3.427572 M 753.924094,1183.952450 l 35.200810,-4.947151 M 477.427134,1208.673977 l -5.529692,0.777147 M 553.299003,1198.010881 l 11.923038,-1.675674 M 573.835795,1195.124624 l -5.533829,0.777729 M 577.936795,1194.548266 l 15.473604,-2.174673 M 611.082663,1189.889918 l -4.780503,0.671856 M 617.459125,1188.993764 l 44.051516,-6.191037 M 715.370155,1175.233266 l -29.797968,4.187831 M 735.362830,1172.423479 l 34.597946,-4.862424 M 473.335970,1195.111367 l -22.351241,3.141262 M 521.901926,1188.285867 l 11.602869,-1.630677 M 549.470102,1184.411412 l -10.805851,1.518663 M 554.440431,1183.712878 l 10.998405,-1.545725 M 583.796934,1179.587091 l -14.393869,2.022926 M 607.838090,1176.208327 l 56.857872,-7.990853 M 708.828226,1162.015089 l -23.566139,3.312005 M 717.032146,1160.862103 l 33.247437,-4.672623 M 436.961669,1186.085855 l -14.574907,2.048370 M 440.463188,1185.593749 l 12.487219,-1.754964 M 511.398181,1175.624486 l -14.503820,2.038379 M 561.563777,1168.574171 l 18.705508,-2.628888 M 592.472989,1164.230165 l -4.667972,0.656041 M 596.014886,1163.732383 l 71.108499,-9.993648 M 739.283111,1143.597348 l -52.856434,7.428487 M 404.260599,1176.544105 l 28.180836,-3.960558 M 457.066535,1169.122715 l -20.780828,2.920555 M 479.945766,1165.907249 l 17.537703,-2.464763 M 584.342123,1151.235297 l -34.395064,4.833911 M 588.137462,1150.701897 l 78.658032,-11.054666 M 731.292958,1130.582704 l -58.147786,8.172138 M 432.973097,1158.371241 l 25.711083,-3.613457 M 487.724976,1150.676366 l -17.560509,2.467969 M 500.668905,1148.857215 l 1.957770,-0.275147 M 522.659988,1145.766570 l -9.422879,1.324299 M 539.089900,1143.457497 l 7.196037,-1.011337 M 576.149226,1138.249148 l -21.257180,2.987502 M 582.282445,1137.387180 l 77.665427,-10.915164 M 723.305619,1117.567666 l -57.016699,8.013175 M 429.621064,1144.704752 l 21.531491,-3.026054 M 481.444564,1137.421434 l -13.735399,1.930384 M 500.244790,1134.779235 l 12.755152,-1.792620 M 538.836250,1129.355559 l -8.407420,1.181586 M 552.644288,1127.414965 l 16.726664,-2.350779 M 716.795877,1104.344964 l -140.742433,19.780059 M 426.371897,1131.023807 l 14.079063,-1.978683 M 453.853850,1127.161470 l -1.341379,0.188519 M 482.366629,1123.154260 l 13.821487,-1.942483 M 532.252461,1116.143264 l -5.025245,0.706252 M 547.011921,1114.068957 l 17.273577,-2.427643 M 706.945363,1091.591778 l -136.406812,19.170727 M 423.071822,1117.350016 l 13.746017,-1.931877 M 451.258483,1113.388639 l -2.947093,0.414187 M 465.386077,1111.403135 l 1.751511,-0.246159 M 486.733644,1108.402930 l -12.790391,1.797572 M 510.632100,1105.044222 l 7.499835,-1.054033 M 562.168427,1097.801263 l -16.311114,2.292378 M 567.124013,1097.104801 l 92.402573,-12.986335 M 695.675075,1079.038127 l -32.210186,4.526846 M 418.602636,1103.840533 l 14.549990,-2.044868 M 461.411718,1097.824109 l -17.682627,2.485131 M 465.066581,1097.310451 l 11.644624,-1.636545 M 483.991643,1094.650708 l -2.795402,0.392868 M 504.235344,1091.805641 l 6.126921,-0.861083 M 515.576161,1090.211793 l -4.620769,0.649407 M 522.532398,1089.234158 l 7.795778,-1.095625 M 654.640340,1070.667597 l -120.940051,16.997016 M 661.949661,1069.640339 l 19.802093,-2.783003 M 428.388798,1088.327592 l -11.438610,1.607592 M 462.389583,1083.549093 l 5.756159,-0.808975 M 516.505308,1075.943624 l -9.421198,1.324063 M 523.634340,1074.941704 l 6.037067,-0.848454 M 654.175249,1056.595376 l -115.965413,16.297876 M 656.609047,1056.253327 l 10.557094,-1.483703 M 423.487660,1074.878816 l -6.097927,0.857008 M 461.251263,1069.571488 l 8.106507,-1.139295 M 507.664005,1063.048602 l -8.286407,1.164579 M 523.418767,1060.834415 l 2.271204,-0.319197 M 650.327502,1042.998555 l -118.513946,16.656049 M 419.525559,1061.298067 l 8.259196,-1.160754 M 466.762504,1054.659347 l -7.790402,1.094870 M 523.966335,1046.619873 l 32.551335,-4.574792 M 562.112871,1041.258727 l -1.834274,0.257790 M 563.279895,1041.094712 l 71.054944,-9.986121 M 499.171669,1035.966950 l -1.487533,0.209059 M 516.401913,1033.545397 l 58.543076,-8.227693 M 583.339914,1024.137875 l -5.937196,0.834418 M 583.628110,1024.097371 l 35.110980,-4.934526 M 439.590166,1030.202998 l -2.269383,0.318941 M 492.798872,1022.725002 l 6.136204,-0.862387 M 561.626769,1013.051872 l -57.618540,8.097758 M 570.482156,1011.807329 l 3.679589,-0.517133 M 605.595529,1006.872466 l -28.848788,4.054433 M 429.334257,1017.506786 l 15.349875,-2.157284 M 450.545999,1014.525670 l -1.177972,0.165553 M 459.919889,1013.208256 l 0.455839,-0.064064 M 490.590222,1008.897822 l -12.392862,1.741703 M 492.683202,1008.603672 l 61.510704,-8.644766 M 565.578603,998.358892 l -2.745247,0.385819 M 568.496737,997.948775 l 5.648434,-0.793836 M 594.860327,994.243614 l -15.990131,2.247266 M 425.199454,1003.950309 l 58.498262,-8.221395 M 545.831434,986.996590 l -58.158288,8.173614 M 554.679617,985.753059 l 2.065932,-0.290348 M 565.563831,984.223382 l -6.039313,0.848770 M 570.212141,983.570105 l 14.586306,-2.049972 M 537.499855,974.029931 l -91.911055,12.917256 M 550.185015,972.247148 l 5.523446,-0.776270 M 561.698546,970.629026 l -2.628962,0.369477 M 563.839639,970.328115 l 11.430524,-1.606455 M 529.528882,961.012592 l -45.889215,6.449309 M 539.867279,959.559625 l 5.851959,-0.822439 M 564.270903,956.129919 l -15.096222,2.121636 M 477.882901,954.133375 l 42.521505,-5.976008 M 535.056355,946.098170 l -5.829952,0.819346 M 461.501973,942.297978 l 48.824679,-6.861861 M 523.501824,933.584468 l -5.536819,0.778149 M 457.245878,928.758547 l 29.901763,-4.202419 M 498.985481,922.892429 l -7.683823,1.079891 M 505.776498,921.938014 l 5.241585,-0.736657 M 432.765746,918.061420 l -5.463669,0.767869 M 444.036249,916.477454 l 5.438213,-0.764291 M 456.364153,914.744880 l -1.184841,0.166519 M 457.788376,914.544718 l 21.244721,-2.985751 M 490.092484,910.004672 l -0.979450,0.137653 M 494.113384,909.439571 l 4.184774,-0.588132 M 417.992024,906.000145 l -2.536130,0.356430 M 437.637132,903.239205 l 2.372757,-0.333469 M 471.169179,898.526583 l -26.412044,3.711971 M 480.945341,897.152633 l 6.019713,-0.846015 M 437.399725,889.134984 l -5.613698,0.788954 M 445.165827,888.043530 l 17.731591,-2.492013 M 474.902359,883.864333 l -1.550157,0.217860 M 420.786282,877.332266 l 14.685078,-2.063853 M 454.378742,872.611153 l -17.316791,2.433716 M 411.077409,864.559173 l 34.409496,-4.835939 M 436.354961,846.869058 l -36.794257,5.171096 M 387.968685,839.531720 l 38.672196,-5.435023 M 380.359724,826.463504 l -3.655248,0.513712 M 382.675448,826.138050 l 18.880153,-2.653432 M 415.547200,821.518226 l -3.070174,0.431485 M 365.192726,814.457500 l 3.637805,-0.511260 M 388.244030,811.217851 l -12.418006,1.745237 M 361.936719,800.777516 l 12.989642,-1.825575 M 360.744229,786.807524 l -12.687980,1.783179 M 333.844895,776.450392 l 10.203247,-1.433973 M 347.049585,774.594594 l -1.909422,0.268352 M 318.477916,764.472495 l 6.026549,-0.846976 M 334.658693,762.198435 l -9.832105,1.381812 M 312.318663,751.200535 l 2.829185,-0.397616"
       id="path14" />
  </g>
  <g
     inkscape:label="fill-909090"
     inkscape:groupmode="layer"
     id="fill-909090">
    <path
       style="stroke:#909090"
       d="M 872.024925,1263.826743 l 4.690244,-0.911691 M 824.239715,1257.834497 l -83.697866,16.269217 M 827.846604,1257.133389 l 6.365488,-1.237326 M 863.341568,1250.233867 l -16.060186,3.121784 M 713.950562,1263.991786 l 130.739812,-25.413245 M 834.444102,1225.289464 l -164.450978,31.966032 M 628.056992,1250.126304 l 197.234075,-38.338421 M 484.401634,1262.769326 l -12.310316,2.392883 M 608.358650,1238.674523 l 206.241458,-40.089278 M 488.202890,1246.749687 l -14.066193,2.734191 M 584.549759,1228.021753 l 49.666167,-9.654125 M 645.275123,1216.217938 l -8.155012,1.585174 M 654.946067,1214.338097 l 69.269214,-13.464571 M 801.161056,1185.916782 l -58.055740,11.284893 M 470.185928,1234.971079 l 16.977347,-3.300062 M 561.647902,1217.192672 l -6.573852,1.277827 M 564.703020,1216.598817 l 47.103968,-9.156084 M 627.313990,1204.428478 l -10.198619,1.982411 M 630.273583,1203.853191 l 32.413424,-6.300531 M 701.055232,1190.094632 l -26.368590,5.125535 M 748.820352,1180.810033 l 33.191028,-6.451682 M 483.791660,1217.045642 l -10.618974,2.064119 M 543.705844,1205.399504 l 54.786818,-10.649479 M 613.970808,1191.741379 l -6.920437,1.345197 M 617.927679,1190.972241 l 48.762779,-9.478524 M 713.181734,1172.456729 l -28.311312,5.503162 M 729.971561,1169.193117 l 33.058165,-6.425856 M 478.297363,1202.832875 l -10.705713,2.080980 M 519.335512,1194.855867 l 69.232178,-13.457372 M 674.285256,1164.736688 l -66.613856,12.948422 M 683.448180,1162.955596 l 61.104986,-11.877606 M 454.799477,1192.119651 l -12.469912,2.423905 M 467.572445,1189.636837 l 6.041243,-1.174299 M 581.789329,1167.435324 l -79.800692,15.511683 M 588.018362,1166.224523 l 6.290854,-1.222818 M 736.325779,1137.396481 l -140.834894,27.375530 M 365.582220,1194.180978 l 6.947077,-1.350375 M 401.290293,1187.240032 l -14.487411,2.816067 M 415.036726,1184.567996 l 40.672102,-7.905856 M 469.139018,1174.051576 l -4.757645,0.924793 M 485.811595,1170.810755 l 25.082434,-4.875531 M 522.862812,1163.608728 l -8.739154,1.698719 M 547.817593,1158.758010 l 37.836544,-7.354679 M 727.907537,1123.752071 l -140.380835,27.287270 M 407.082891,1170.833315 l 22.530045,-4.379397 M 466.559226,1159.272286 l -32.500397,6.317437 M 470.366766,1158.532175 l 25.760085,-5.007253 M 526.520119,1147.617069 l -26.606839,5.171846 M 538.929364,1145.204957 l 39.416798,-7.661849 M 720.229376,1109.963804 l -140.262375,27.264244 M 430.619566,1150.977498 l 30.199874,-5.870261 M 491.554399,1139.132966 l -24.282699,4.720079 M 499.286489,1137.630000 l 16.829286,-3.271282 M 541.803271,1129.365575 l -13.197487,2.565332 M 548.206647,1128.120885 l 163.825108,-31.844375 M 443.989288,1133.097937 l -16.834867,3.272367 M 446.035713,1132.700152 l 10.216362,-1.985860 M 474.754358,1127.117813 l -10.116708,1.966489 M 482.717330,1125.569968 l 25.263877,-4.910800 M 533.875783,1115.625772 l -9.437118,1.834390 M 544.328651,1113.593940 l 120.001117,-23.325854 M 700.587785,1083.220242 l -32.840053,6.383460 M 423.589470,1121.782509 l 16.535881,-3.214250 M 453.014301,1116.062902 l -5.274679,1.025294 M 455.444629,1115.590494 l 1.991949,-0.387196 M 492.332379,1108.420241 l -32.107902,6.241144 M 498.340229,1107.252434 l 7.995414,-1.554151 M 520.417847,1102.960980 l -12.066442,2.345479 M 539.262616,1099.297928 l 125.004529,-24.298419 M 687.971427,1070.391863 l -22.210594,4.317302 M 419.213448,1107.352372 l 13.997089,-2.720758 M 485.851439,1094.399258 l -43.599158,8.474818 M 500.119961,1091.625738 l 172.622008,-33.554319 M 430.615373,1089.855311 l -15.910000,3.092591 M 438.309561,1088.359713 l 12.607114,-2.450575 M 469.219229,1082.351482 l -7.900674,1.535735 M 476.800596,1080.877814 l 5.132765,-0.997708 M 484.509678,1079.379320 l -0.928213,0.180426 M 495.481221,1077.246668 l 3.142640,-0.610867 M 515.819417,1073.293323 l -12.202153,2.371858 M 519.897481,1072.500628 l 8.128185,-1.579959 M 655.751238,1046.093332 l -121.039827,23.527759 M 414.537404,1077.699802 l 11.643721,-2.263310 M 442.890566,1072.188505 l -0.132704,0.025795 M 459.772625,1068.906965 l 12.988429,-2.524695 M 513.527023,1058.458169 l -15.913104,3.093194 M 517.229848,1057.738413 l 6.452741,-1.254286 M 638.839616,1034.099868 l -109.957552,21.373583 M 418.119060,1061.722848 l 11.895300,-2.312212 M 467.913664,1052.043757 l -10.238036,1.990073 M 517.900938,1042.327215 l 104.938380,-20.397955 M 430.610052,1044.014094 l -4.510471,0.876747 M 466.724844,1036.994090 l 3.910888,-0.760200 M 501.764877,1030.182998 l -10.784010,2.096199 M 507.912398,1028.988041 l 62.527687,-12.154151 M 608.914280,1009.355264 l -36.894670,7.171597 M 423.320005,1030.150386 l 17.969899,-3.492995 M 466.145401,1021.825972 l -6.373112,1.238807 M 479.320687,1019.264956 l 82.367262,-16.010574 M 568.869498,1001.858430 l -4.769260,0.927050 M 569.901430,1001.657843 l 7.356556,-1.429970 M 597.111707,996.368701 l -16.846432,3.274615 M 426.730745,1014.206654 l 38.182063,-7.421841 M 551.152836,990.021450 l -76.343841,14.839739 M 555.571937,989.162464 l 12.967548,-2.520636 M 587.053814,983.043007 l -16.109416,3.131353 M 424.086830,999.439829 l 6.747381,-1.311558 M 541.069108,976.700778 l -102.800978,19.982486 M 546.674594,975.611182 l 3.833510,-0.745159 M 563.463687,972.347713 l -12.803416,2.488732 M 564.042417,972.235219 l 12.997361,-2.526431 M 462.178745,976.754760 l -20.748922,4.033182 M 469.473914,975.336723 l 63.641959,-12.370744 M 547.927985,960.086797 l -10.684937,2.076941 M 548.805246,959.916274 l 17.680301,-3.436702 M 460.888923,961.724726 l -1.929402,0.375038 M 478.614630,958.279198 l 44.492801,-8.648524 M 537.965551,946.742547 l -8.895501,1.729110 M 540.297188,946.289323 l 1.134219,-0.220470 M 512.585040,936.395268 l -50.109828,9.740364 M 517.788497,935.383819 l 6.885087,-1.338325 M 439.948467,935.233638 l -4.538136,0.882124 M 452.373793,932.818399 l 47.952710,-9.321063 M 511.649612,921.296347 l -7.625366,1.482221 M 425.533216,922.754928 l 10.725034,-2.084735 M 480.290146,912.111259 l -36.365474,7.068732 M 483.740036,911.440668 l 15.900059,-3.090658 M 422.082323,908.144963 l -6.145397,1.194544 M 435.527713,905.531444 l 36.439489,-7.083119 M 475.657665,897.730972 l -2.048080,0.398106 M 478.829794,897.114372 l 9.797612,-1.904463 M 415.006824,894.239551 l -3.563862,0.692745 M 426.718067,891.963115 l 1.995863,-0.387957 M 466.911151,884.150371 l -36.508873,7.096606 M 471.445124,883.269056 l 3.509009,-0.682082 M 460.952301,870.027904 l -42.058857,8.175414 M 408.650923,864.913512 l 39.628333,-7.702968 M 437.458759,844.033085 l -39.733302,7.723371 M 386.274549,838.701537 l 27.644174,-5.373483 M 425.931155,830.993074 l -10.014702,1.946661 M 374.234461,825.761143 l 25.210418,-4.900409 M 413.834220,818.063729 l -2.493148,0.484619 M 361.987116,812.861035 l 6.557042,-1.274560 M 385.985792,808.196165 l -14.261454,2.772146 M 349.497263,800.008066 l 5.874288,-1.141846 M 372.273562,795.580802 l -15.345635,2.982889 M 335.740246,787.401409 l 22.330188,-4.340549 M 344.504278,770.417103 l -16.447819,3.197132 M 312.679920,761.322381 l 17.381777,-3.378675"
       id="path17" />
  </g>
  <g
     inkscape:label="fill-aeaeae"
     inkscape:groupmode="layer"
     id="fill-aeaeae">
    <path
       style="stroke:#aeaeae"
       d="M 757.267705,1278.388454 l 52.548310,-12.131733 M 823.827532,1263.021907 l -2.792612,0.644725 M 852.696119,1256.357068 l 15.851067,-3.659507 M 849.224757,1240.737630 l -123.031600,28.404083 M 693.454455,1260.279172 l 142.425631,-32.881548 M 827.645238,1212.877923 l -178.292857,41.162149 M 614.230245,1245.727790 l 202.135295,-46.666610 M 488.144929,1258.416014 l -15.508963,3.580526 M 589.827565,1234.940727 l 212.101862,-48.967573 M 489.118576,1241.770364 l -17.568253,4.055951 M 563.285108,1224.647670 l 139.086797,-32.110717 M 782.589410,1174.017283 l -33.657687,7.770489 M 470.339979,1229.684879 l 17.679217,-4.081569 M 604.663467,1198.673858 l -63.885340,14.749093 M 608.991352,1197.674687 l 105.684032,-24.399081 M 762.402034,1162.257040 l -32.747044,7.560251 M 472.797723,1212.696598 l 9.870625,-2.278813 M 593.563169,1184.815698 l -70.002277,16.161299 M 599.993251,1183.331196 l 4.369514,-1.008782 M 744.132504,1150.054028 l -135.842897,31.361804 M 454.746551,1200.443174 l 21.861835,-5.047202 M 584.535828,1170.478958 l -77.141739,17.809574 M 590.507286,1169.100338 l 145.248284,-33.533209 M 454.238560,1184.139587 l -26.951548,6.222255 M 465.478936,1181.544542 l 8.462261,-1.953667 M 532.713785,1166.022154 l -41.624281,9.609723 M 534.827956,1165.534059 l 3.859534,-0.891044 M 727.015044,1121.164174 l -186.855046,43.138886 M 371.777330,1186.756396 l 62.549341,-14.440653 M 470.500392,1163.964381 l -35.756734,8.255093 M 474.537993,1163.032228 l 56.721593,-13.095212 M 719.024693,1106.588026 l -180.727679,41.724272 M 431.496735,1156.548219 l 92.111867,-21.265700 M 709.605179,1092.341826 l -182.430946,42.117503 M 427.812098,1140.978019 l 109.445278,-25.267433 M 697.324896,1078.756087 l -155.255855,35.843638 M 424.072446,1125.420520 l 103.609361,-23.920106 M 683.240937,1065.586760 l -152.298052,35.160776 M 419.597144,1110.032859 l 13.889317,-3.206602 M 489.631465,1093.864162 l -48.298828,11.150663 M 491.745448,1093.376111 l 4.270803,-0.985993 M 666.688746,1052.987268 l -169.154189,39.052322 M 413.811569,1094.947699 l 56.454949,-13.033652 M 487.310953,1077.979029 l -14.318100,3.305594 M 494.158615,1076.398122 l 154.430853,-35.653172 M 431.761178,1074.382839 l -19.559813,4.515739 M 435.828619,1073.443797 l 9.409151,-2.172274 M 475.356264,1064.318121 l -17.523646,4.045653 M 491.529775,1060.584172 l 31.105305,-7.181226 M 631.712719,1028.220389 l -106.021029,24.476883 M 417.504863,1061.253303 l 15.965326,-3.685886 M 446.622358,1054.531000 l -2.735866,0.631625 M 456.016795,1052.362123 l 14.256244,-3.291313 M 500.075373,1042.190399 l -11.261725,2.599974 M 504.659863,1041.131986 l 111.700186,-25.788020 M 443.418113,1038.849892 l -19.441010,4.488311 M 456.014682,1035.941745 l 18.194911,-4.200626 M 602.817466,1002.049652 l -116.994272,27.010256 M 423.087172,1027.122794 l 48.844152,-11.276561 M 591.699273,988.195624 l -115.452375,26.654281 M 424.105107,1010.466920 l 157.093611,-36.267918 M 570.501743,960.247727 l -128.308253,29.622294 M 442.097248,973.471375 l 11.809374,-2.726409 M 467.574265,967.589542 l -12.049094,2.781752 M 478.499492,965.067255 l 72.117549,-16.649648 M 458.447638,953.275725 l -19.498601,4.501607 M 470.306786,950.537825 l 58.304727,-13.460707 M 446.898441,939.521201 l -11.704515,2.702200 M 454.593515,937.744653 l 60.775031,-14.031021 M 440.573513,924.560560 l -14.288253,3.298703 M 445.099529,923.515647 l 37.852333,-8.738900 M 502.675558,910.223173 l -18.524651,4.276753 M 416.396383,913.721425 l 15.091220,-3.484083 M 490.134271,896.697692 l -54.098046,12.489518 M 411.317819,898.473038 l 6.702383,-1.547367 M 477.066188,883.293831 l -52.161979,12.042542 M 408.940583,882.601000 l 54.973795,-12.691701 M 403.228688,867.498829 l -2.663378,0.614889 M 407.746477,866.455816 l 43.014399,-9.930657 M 395.104329,852.953620 l -1.593835,0.367966 M 396.603031,852.607617 l 41.428700,-9.564569 M 413.079435,832.382874 l -27.901220,6.441504 M 414.831470,831.978385 l 10.862155,-2.507726 M 398.403533,819.350207 l -25.710404,5.935714 M 410.184125,816.630443 l 2.530631,-0.584242 M 384.409309,806.160162 l -24.794819,5.724335 M 346.016598,798.602952 l 24.153948,-5.576378 M 355.555327,779.979898 l -24.771571,5.718968 M 316.144765,772.657677 l 1.801396,-0.415885 M 341.547606,766.792969 l -19.372704,4.472541 M 307.980885,758.121592 l 17.974459,-4.149731"
       id="path20" />
  </g>
  <g
     inkscape:label="fill-cdcdcd"
     inkscape:groupmode="layer"
     id="fill-cdcdcd">
    <path
       style="stroke:#cdcdcd"
       d="M 872.862868,1266.243841 l 6.072947,-1.741389 M 825.006555,1261.241028 l -63.340608,18.162627 M 829.714672,1259.890997 l 1.857597,-0.532657 M 865.900899,1249.514764 l -20.118747,5.768958 M 726.939446,1270.635929 l 117.891834,-33.804939 M 834.035843,1221.201142 l -141.192611,40.486330 M 650.596050,1255.076266 l 172.229717,-49.386077 M 809.435314,1190.804450 l -195.300848,56.001617 M 468.485223,1269.844926 l 15.066366,-4.320211 M 714.083140,1199.420856 l -127.951460,36.689491 M 750.979659,1188.840950 l 39.006820,-11.185026 M 490.171684,1244.901043 l -17.627712,5.054665 M 559.697880,1224.964727 l 165.341871,-47.411019 M 768.837149,1164.995007 l -33.235777,9.530206 M 468.889041,1232.278353 l 20.240243,-5.803796 M 747.475589,1152.394946 l -210.701657,60.417728 M 471.809124,1212.715643 l 11.963637,-3.430518 M 737.372129,1136.566677 l -218.516696,62.658654 M 450.777009,1200.021115 l 27.528406,-7.893643 M 727.692565,1120.616857 l -226.035934,64.814761 M 422.159731,1189.501598 l 34.248497,-9.820598 M 474.831247,1174.398283 l -11.705327,3.356449 M 484.335367,1171.673021 l 234.512942,-67.245504 M 396.786349,1178.051908 l -23.871028,6.844907 M 401.903487,1176.584592 l 30.268520,-8.679358 M 707.923543,1088.834753 l -275.133782,78.893342 M 428.975927,1150.096305 l 265.438554,-76.113281 M 677.995744,1059.965632 l -253.118957,72.580693 M 420.564994,1115.057322 l 238.570333,-68.408942 M 639.979356,1033.415876 l -226.856941,65.050181 M 408.469596,1081.074842 l 213.975405,-61.356460 M 607.270182,1005.344301 l -190.789821,54.708101 M 420.810477,1040.085371 l 173.706412,-49.809512 M 582.936265,974.871160 l -159.306434,45.680385 M 420.178294,1002.815867 l 151.019034,-43.304011 M 549.275011,947.072589 l -109.464414,31.388416 M 436.905609,960.568607 l 90.628663,-25.987351 M 513.356522,919.921271 l -87.627946,25.126909 M 416.598624,928.940762 l 83.123414,-23.835255 M 486.274472,890.236144 l -74.939795,21.488640 M 408.729187,893.746507 l 62.285162,-17.859983 M 456.899977,861.208365 l -52.441627,15.037395 M 394.406784,860.402610 l 48.641261,-13.947657 M 429.514542,831.610232 l -42.149856,12.086277 M 374.375768,828.695631 l 27.439338,-7.868103 M 415.656646,816.858530 l -6.132458,1.758454 M 360.286521,814.010268 l 26.003069,-7.456260 M 370.760757,792.281440 l -26.061948,7.473143 M 326.423394,786.269584 l 28.709959,-8.232448 M 339.312274,763.848367 l -30.487037,8.742017 M 301.022563,756.102375 l 20.809096,-5.966912"
       id="path23" />
  </g>
</svg>
