<?xml version="1.0" encoding="UTF-8" standalone="no"?>
<!-- Created with Inkscape (http://www.inkscape.org/) -->

<svg
   xmlns:dc="http://purl.org/dc/elements/1.1/"
   xmlns:cc="http://creativecommons.org/ns#"
   xmlns:rdf="http://www.w3.org/1999/02/22-rdf-syntax-ns#"
   xmlns:svg="http://www.w3.org/2000/svg"
   xmlns="http://www.w3.org/2000/svg"
   xmlns:sodipodi="http://sodipodi.sourceforge.net/DTD/sodipodi-0.dtd"
   xmlns:inkscape="http://www.inkscape.org/namespaces/inkscape"
   id="svg2"
   version="1.1"
   inkscape:version="0.48.3.1 r9886"
   width="1200"
   height="960"
   sodipodi:docname="hantologie-full-socle_01_hatched_1398262000.svg">
  <defs
     id="defs70" />
  <sodipodi:namedview
     pagecolor="#ffffff"
     bordercolor="#666666"
     borderopacity="1"
     objecttolerance="10"
     gridtolerance="10"
     guidetolerance="10"
     inkscape:pageopacity="0"
     inkscape:pageshadow="2"
     inkscape:window-width="640"
     inkscape:window-height="480"
     id="namedview68" />
  <metadata
     id="metadata8">
    <rdf:RDF>
      <cc:Work
         rdf:about="">
        <dc:format>image/svg+xml </dc:format>
        <dc:type
           rdf:resource="http://purl.org/dc/dcmitype/StillImage" />
        <dc:title />
      </cc:Work>
    </rdf:RDF>
  </metadata>
  <g
     inkscape:label="fill-303030"
     inkscape:groupmode="layer"
     id="fill-303030">
    <path
       style="stroke:#303030"
       d="M 588.906451,571.941347 l -0.016015,0.130431 M 591.124138,578.496263 l 0.782245,-6.370872 M 594.906314,572.309436 l -1.548474,12.611313 M 595.591542,591.345235 l 2.314704,-18.851754 M 600.906178,572.677526 l -3.080934,25.092195 M 600.058945,604.194207 l 3.847164,-31.332636 M 606.906041,573.045616 l -4.613394,37.573077 M 604.526349,617.043179 l 5.211904,-42.447553 M 612.006039,580.742520 l -5.245988,42.725145 M 608.993752,629.892151 l 5.280072,-43.002738"
       id="path5" />
  </g>
  <g
     inkscape:label="fill-4f4f4f"
     inkscape:groupmode="layer"
     id="fill-4f4f4f">
    <path
       style="stroke:#4f4f4f"
       d="M 611.796557,573.341934 l -0.395575,5.656990 M 614.773581,588.110859 l 1.015812,-14.526782 M 619.782228,573.826220 l -1.321717,18.901427 M 622.431645,593.280133 l 1.343418,-19.211770 M 627.767898,574.310506 l -1.365119,19.522112 M 630.373913,594.385103 l 1.386820,-19.832455 M 635.753569,574.794792 l -1.408522,20.142797 M 638.316182,595.490074 l 1.430223,-20.453140 M 643.739240,575.279077 l -1.451924,20.763482 M 646.258450,596.595045 l 1.473625,-21.073825 M 651.724910,575.763363 l -1.495327,21.384167 M 654.200718,597.700015 l 1.517028,-21.694509 M 659.710581,576.247649 l -1.538729,22.004852 M 662.142986,598.804986 l 1.560430,-22.315194 M 667.696252,576.731935 l -1.582132,22.625537 M 670.085254,599.909957 l 1.603833,-22.935879 M 675.681922,577.216220 l -1.625534,23.246222 M 678.027522,601.014927 l 1.647235,-23.556564 M 683.667593,577.700506 l -1.668937,23.866907 M 685.969790,602.119898 l 1.690638,-24.177249 M 691.653263,578.184792 l -1.712339,24.487591 M 693.912058,603.224869 l 1.734040,-24.797934 M 699.638934,578.669078 l -1.755742,25.108276 M 701.854326,604.329840 l 1.777443,-25.418619 M 707.624605,579.153364 l -1.799144,25.728961 M 709.796594,605.434810 l 1.428666,-20.430874 M 714.761554,591.774922 l -0.993826,14.212373 M 717.738863,606.539781 l 0.558986,-7.993873 M 721.834143,605.316893 l -0.124146,1.775373"
       id="path8" />
  </g>
  <g
     inkscape:label="fill-666666"
     inkscape:groupmode="layer"
     id="fill-666666">
    <path
       style="stroke:#666666"
       d="M 626.019252,256.916005 l -0.364046,10.424922 M 630.281644,278.125597 l 0.772607,-22.124580 M 636.089251,255.086029 l -0.981245,28.099167 M 640.153129,281.980346 l 0.971122,-27.809304 M 645.963315,258.866933 l -0.765064,21.908562 M 650.243373,279.570644 l 0.319826,-9.158609"
       id="path11" />
  </g>
  <g
     inkscape:label="fill-757575"
     inkscape:groupmode="layer"
     id="fill-757575">
    <path
       style="stroke:#757575"
       d="M 616.511092,760.325644 l -0.875111,50.135064 M 620.421339,822.801155 l 1.115075,-63.882601 M 626.561737,757.511464 l -1.115955,63.933003 M 630.470225,820.087777 l 1.116834,-63.983404 M 636.612382,754.697283 l -1.117714,64.033805 M 640.519110,817.374399 l 1.016281,-58.222677 M 646.447561,764.227109 l -0.904008,51.790602 M 650.567996,814.661022 l 0.791736,-45.358526 M 656.271902,774.377882 l -0.679464,38.926451 M 660.616881,811.947644 l 0.567191,-32.494376 M 666.096243,784.528654 l -0.454919,26.062301 M 670.665767,809.234266 l 0.342647,-19.630225 M 675.920584,794.679427 l -0.230375,13.198150 M 680.714652,806.520888 l 0.118102,-6.766075 M 685.744925,804.830200 l -0.005830,0.333999"
       id="path14" />
  </g>
  <g
     inkscape:label="fill-7e7e7e"
     inkscape:groupmode="layer"
     id="fill-7e7e7e">
    <path
       style="stroke:#7e7e7e"
       d="M 724.328833,832.003766 l -0.122765,7.033205 M 729.232446,837.569356 l 0.269886,-15.461765 M 734.675833,812.211416 l -0.417007,23.890326 M 739.285204,834.634127 l 0.564128,-32.318886 M 745.022833,792.419066 l -0.711249,40.747446 M 749.337962,831.698897 l 0.858370,-49.176007 M 755.280547,777.741902 l -0.916206,52.489381 M 759.390720,828.763668 l 0.914001,-52.363094 M 765.328896,775.059247 l -0.911797,52.236807 M 769.450444,825.429350 l 0.902626,-51.711431 M 775.377245,772.376592 l -0.752406,43.105310 M 779.799234,805.534453 l 0.602186,-34.499189 M 785.425594,769.693936 l -0.451965,25.893068 M 790.148024,785.639555 l 0.301745,-17.286947 M 795.473944,767.011281 l -0.151524,8.680826 M 800.496814,765.744658 l 0.001304,-0.074705"
       id="path17" />
    <path
       style="stroke:#7e7e7e"
       d="M 771.743222,694.076190 l -0.298915,17.124810 M 776.502359,707.918866 l 0.612153,-35.070202 M 782.170097,669.707826 l -0.609686,34.928905 M 786.618462,701.354595 l 0.607220,-34.787607 M 792.281267,663.426151 l -0.604754,34.646309 M 796.734565,694.790325 l 0.602287,-34.505012 M 802.392437,657.144477 l -0.599821,34.363714 M 806.850668,688.226055 l 0.597354,-34.222416 M 812.503608,650.862802 l -0.306629,17.566777"
       id="path19" />
  </g>
  <g
     inkscape:label="fill-868686"
     inkscape:groupmode="layer"
     id="fill-868686">
    <path
       style="stroke:#868686"
       d="M 483.746715,565.559739 l 0.000000,1.080928 M 489.746715,568.826964 l 0.000000,-2.903118 M 495.746715,566.287953 l 0.000000,4.725308 M 501.746715,573.199559 l 0.000000,-6.547498 M 507.746715,567.016167 l 0.000000,8.369689 M 513.746715,577.572153 l 0.000000,-10.191879 M 519.746715,567.744381 l 0.000000,12.014069 M 525.746715,581.944747 l 0.000000,-13.836259 M 531.746715,568.472595 l 0.000000,15.658449 M 537.746715,586.317341 l 0.000000,-17.480639 M 543.746715,569.200809 l 0.000000,19.302829 M 549.746715,590.689936 l 0.000000,-21.125020 M 555.746715,569.929023 l 0.000000,22.947210 M 561.746715,595.062530 l 0.000000,-24.769400 M 567.746715,570.657237 l 0.000000,26.591590 M 573.746715,599.435124 l 0.000000,-28.413780 M 579.746715,571.385451 l 0.000000,30.235970 M 585.746715,603.807719 l 0.000000,-32.058161 M 591.746715,580.293893 l 0.000000,25.700123 M 597.746715,608.180313 l 0.000000,-10.614991 M 693.746715,642.508479 l 0.000000,0.657207 M 699.746715,645.351682 l 0.000000,-1.959482 M 705.746715,644.275921 l 0.000000,3.261756 M 711.746715,649.723673 l 0.000000,-4.564031 M 717.746715,631.898349 l 0.000000,20.011320 M 723.746715,654.095665 l 0.000000,-39.206932 M 729.746715,617.035522 l 0.000000,39.246138 M 735.746715,658.467656 l 0.000000,-39.285345 M 741.746715,621.329100 l 0.000000,39.324552 M 747.746715,662.839647 l 0.000000,-39.363758 M 753.746715,625.622678 l 0.000000,39.402965 M 759.746715,667.211638 l 0.000000,-39.442171 M 765.746715,629.916256 l 0.000000,39.481378 M 771.746715,671.583630 l 0.000000,-39.520585 M 777.746715,634.209834 l 0.000000,38.238938 M 783.746715,668.722554 l 0.000000,-32.365931 M 789.746715,638.503412 l 0.000000,26.492924 M 795.746715,661.270118 l 0.000000,-20.619917 M 801.746715,642.796990 l 0.000000,14.746910 M 807.746715,653.817682 l 0.000000,-8.873903 M 813.746715,647.090568 l 0.000000,3.000896"
       id="path22" />
  </g>
  <g
     inkscape:label="fill-929292"
     inkscape:groupmode="layer"
     id="fill-929292">
    <path
       style="stroke:#929292"
       d="M 513.508756,792.674382 l 0.270165,15.477729 M 519.752257,806.572206 l -0.723453,-41.446619 M 524.548852,737.576792 l 1.176742,67.415510 M 531.698931,803.412398 l -1.630031,-93.384400 M 535.588948,682.479203 l 2.083319,119.353291 M 543.645604,800.252589 l -2.536608,-145.322181 M 546.871754,641.286467 l 2.747187,157.386218 M 555.592277,797.092781 l -2.735122,-156.695055 M 558.842556,639.508984 l 2.723058,156.003892 M 567.538950,793.932972 l -2.706863,-155.076062 M 570.872077,641.095507 l 2.640211,151.257561 M 579.140983,771.028711 l -2.228918,-127.694606 M 582.952054,645.572702 l 1.817787,104.140936 M 584.819928,752.583117 l -0.000272,-0.015591 M 588.992043,647.811299 l 1.754627,100.522512 M 590.849209,754.208260 l -0.000557,-0.031919 M 595.032032,650.049896 l 1.691467,96.904088 M 596.878490,755.833404 l -0.000842,-0.048246 M 601.072021,652.288494 l 1.024434,58.689784 M 602.700328,745.574157 l -0.472593,-27.074851 M 607.112009,654.527091 l 0.767763,43.985123 M 608.389485,727.713625 l -0.050499,-2.893058 M 613.151998,656.765688 l 0.511092,29.280463 M 619.446409,673.580088 l -0.254422,-14.575802"
       id="path25" />
  </g>
  <g
     inkscape:label="fill-999999"
     inkscape:groupmode="layer"
     id="fill-999999">
    <path
       style="stroke:#999999"
       d="M 496.530257,615.725499 l 0.062774,1.797608 M 502.706364,620.663832 l -0.170961,-4.895690 M 508.617782,618.022429 l 0.201916,5.782128 M 514.933032,626.945283 l -0.232871,-6.668566 M 520.782539,622.531004 l 0.263827,7.555004 M 527.159699,633.226733 l -0.294782,-8.441442 M 532.947296,627.039578 l 0.325737,9.327880 M 539.386367,639.508184 l -0.356692,-10.214318 M 545.112054,631.548153 l 0.347393,9.948020 M 551.432134,640.609319 l -0.237701,-6.806879 M 557.276811,636.056727 l 0.128010,3.665739 M 563.377509,638.835612 l -0.018319,-0.524598"
       id="path28" />
    <path
       style="stroke:#999999"
       d="M 230.249083,555.009367 l 0.702716,20.123166 M 236.807179,570.886427 l -0.709658,-20.321960 M 241.945959,546.119568 l 0.716600,20.520753 M 248.517939,562.394216 l -0.723543,-20.719547 M 253.642835,537.229769 l 0.730485,20.918341 M 260.228699,553.902004 l -0.737427,-21.117135 M 265.339711,528.339970 l 0.744369,21.315928 M 271.939459,545.409792 l -0.751311,-21.514722 M 277.036586,519.450170 l 0.758253,21.713516 M 283.650219,536.917580 l -0.765195,-21.912310 M 288.733462,510.560371 l 0.772137,22.111103 M 295.360979,528.425369 l -0.779079,-22.309897 M 300.430338,501.670572 l 0.786021,22.508691 M 307.071739,519.933157 l -0.792963,-22.707485 M 312.828079,512.850922 l 0.099040,2.836129 M 406.613091,447.746278 l -0.373101,-10.684218 M 411.829970,425.215892 l 0.638507,18.284458 M 418.323864,439.254422 l -0.790976,-22.650596 M 423.295702,409.706984 l 0.883548,25.301511 M 430.034636,430.762567 l -0.936725,-26.824295 M 434.946383,399.494340 l 0.943639,27.022299 M 441.745408,422.270712 l -0.950554,-27.220304 M 446.643326,390.606475 l 0.957468,27.418309 M 453.456181,413.778857 l -0.964383,-27.616314 M 458.340270,381.718611 l 0.971297,27.814318 M 465.166953,405.287001 l -0.978212,-28.012323 M 470.037213,372.830746 l 0.985126,28.210328 M 476.877726,396.795146 l -0.992041,-28.408333 M 481.734157,363.942881 l 0.998955,28.606337 M 488.588498,388.303291 l -1.005870,-28.804342 M 493.431100,355.055016 l 1.012784,29.002347 M 500.299270,379.811435 l -1.019699,-29.200351 M 505.128043,346.167152 l 1.026613,29.398356 M 512.010043,371.319580 l -1.033528,-29.596361 M 516.824987,337.279287 l 1.040442,29.794366 M 523.720815,362.827725 l -1.047357,-29.992370 M 528.521930,328.391422 l 1.054271,30.190375 M 535.431588,354.335870 l -1.061186,-30.388380 M 540.218874,319.503557 l 1.068100,30.586385 M 547.142360,345.844014 l -1.075015,-30.784389 M 551.915817,310.615693 l 1.081929,30.982394 M 558.853132,337.352159 l -1.088844,-31.180399 M 563.612761,301.727828 l 1.095758,31.378403 M 570.563905,328.860304 l -1.102672,-31.576408 M 575.309704,292.839963 l 1.109587,31.774413 M 582.274677,320.368449 l -1.116501,-31.972418 M 587.006648,283.952099 l 1.123416,32.170422 M 593.985450,311.876593 l -1.130330,-32.368427 M 598.703591,275.064234 l 1.137245,32.566432 M 605.696222,303.384738 l -1.144159,-32.764436 M 610.400535,266.176369 l 1.151074,32.962441 M 617.406995,294.892883 l -1.157988,-33.160446 M 622.164200,259.199180 l 1.098181,31.447775 M 629.117767,286.401027 l -0.415932,-11.910742"
       id="path30" />
  </g>
  <g
     inkscape:label="fill-9c9c9c"
     inkscape:groupmode="layer"
     id="fill-9c9c9c">
    <path
       style="stroke:#9c9c9c"
       d="M 579.264334,751.082756 l 2.206512,63.186238 M 587.534961,816.000284 l -2.210050,-63.287539 M 591.385489,754.342733 l 2.213587,63.388839 M 599.663192,819.462862 l -2.217125,-63.490140 M 603.506645,757.602710 l 2.220662,63.591441 M 611.791422,822.925440 l -2.224200,-63.692741"
       id="path33" />
  </g>
  <g
     inkscape:label="fill-a3a3a3"
     inkscape:groupmode="layer"
     id="fill-a3a3a3">
    <path
       style="stroke:#a3a3a3"
       d="M 636.989279,665.599455 l 0.029675,0.849787 M 644.269427,673.499662 l -0.184027,-5.269845 M 651.181521,670.860179 l 0.338379,9.689903 M 658.770373,687.600501 l -0.492731,-14.109961 M 665.373763,676.120902 l 0.647083,18.530019 M 673.271319,701.701341 l -0.801434,-22.950077 M 679.566005,681.381625 l 0.955786,27.370135 M 687.772264,715.802180 l -1.110138,-31.790194 M 693.758247,686.642348 l 1.264490,36.210252 M 702.273210,729.903019 l -1.418842,-40.630310 M 707.950490,691.903071 l 1.573194,45.050368 M 716.774156,744.003859 l -1.727545,-49.470426 M 722.142732,697.163795 l 1.881897,53.890484 M 731.275102,758.104698 l -2.036249,-58.310542 M 736.383049,703.801211 l 2.142526,61.353906 M 745.776047,772.205537 l -2.144663,-61.415103 M 750.879721,717.779658 l 2.114845,60.561251 M 759.934168,776.489150 l -1.806112,-51.720269 M 765.376392,731.758104 l 1.497378,42.879287 M 773.813372,772.785632 l -1.188644,-34.038305 M 779.873064,745.736551 l 0.879910,25.197322 M 787.692576,769.082114 l -0.571176,-16.356340 M 794.369736,759.714997 l 0.262442,7.515358"
       id="path36" />
  </g>
  <g
     inkscape:label="fill-a4a4a4"
     inkscape:groupmode="layer"
     id="fill-a4a4a4">
    <path
       style="stroke:#a4a4a4"
       d="M 885.618064,554.317456 l 1.207285,34.572105 M 893.701336,585.216143 l -1.184167,-33.910113 M 899.416275,548.294603 l 1.161050,33.248122 M 907.453313,577.869307 l -1.137933,-32.586131 M 913.214486,542.271750 l 1.114816,31.924139 M 921.205289,570.522471 l -1.091698,-31.262148 M 927.012697,536.248897 l 1.068581,30.600156"
       id="path39" />
  </g>
  <g
     inkscape:label="fill-a5a5a5"
     inkscape:groupmode="layer"
     id="fill-a5a5a5">
    <path
       style="stroke:#a5a5a5"
       d="M 610.239107,623.744760 l 0.225516,6.457931 M 617.505194,631.242312 l -1.322670,-37.876319 M 623.187050,593.373434 l 1.358715,38.908501 M 631.586336,633.321556 l -1.360797,-38.968136 M 637.264028,595.333407 l 1.362880,39.027771 M 645.667479,635.400800 l -1.364962,-39.087407 M 651.341005,597.293380 l 1.367045,39.147042 M 659.748621,637.480044 l -1.369127,-39.206677 M 665.417982,599.253353 l 1.371210,39.266313 M 673.829764,639.559288 l -1.373292,-39.325948 M 679.494960,601.213326 l 1.375375,39.385584 M 687.910906,641.638532 l -1.377457,-39.445219 M 693.571937,603.173299 l 1.379540,39.504854 M 701.992048,643.717775 l -1.381622,-39.564490 M 707.648915,605.133272 l 1.383705,39.624125 M 715.899806,640.831930 l -1.212403,-34.718672 M 721.725892,607.093245 l 0.167280,4.790284"
       id="path42" />
  </g>
  <g
     inkscape:label="fill-a6a6a6"
     inkscape:groupmode="layer"
     id="fill-a6a6a6">
    <path
       style="stroke:#a6a6a6"
       d="M 465.286863,771.724637 l 0.519995,9.922090 M 473.051071,786.123295 l -2.315665,-44.185512 M 476.183950,712.150928 l 4.111334,78.448935 M 487.539498,795.076432 l -5.907004,-112.712358 M 487.081037,652.577220 l 7.702674,146.975780 M 502.027925,804.029569 l -9.498344,-181.239203 M 499.337450,618.940990 l 9.934688,189.565148 M 515.049054,784.984987 l -8.507605,-162.334765 M 513.745448,626.359454 l 6.859688,130.890642 M 526.161218,729.515204 l -5.211771,-99.446518 M 528.153446,633.777918 l 3.563855,68.002395 M 537.273383,674.045421 l -1.915938,-36.558271 M 542.561444,641.196382 l 0.268021,5.114148"
       id="path45" />
  </g>
  <g
     inkscape:label="fill-a9a9a9"
     inkscape:groupmode="layer"
     id="fill-a9a9a9">
    <path
       style="stroke:#a9a9a9"
       d="M 584.313854,749.818551 l 0.139001,2.652301 M 591.561965,754.369482 l -0.322324,-6.150308 M 598.165428,746.619797 l 0.505647,9.648315 M 605.780184,758.166742 l -0.688970,-13.146322 M 612.017001,743.421043 l 0.872292,16.644329 M 619.863348,759.387012 l -0.920561,-17.565346 M 626.019389,743.100019 l 0.752192,14.352688 M 633.679816,755.518402 l -0.248779,-4.746981"
       id="path48" />
  </g>
  <g
     inkscape:label="fill-acacac"
     inkscape:groupmode="layer"
     id="fill-acacac">
    <path
       style="stroke:#acacac"
       d="M 308.499407,498.866537 l 0.705001,13.452218 M 316.247941,512.966101 l -1.867569,-35.635335 M 320.480187,459.970911 l 2.727205,52.038163 M 330.109532,509.958499 l -3.958113,-75.525288 M 331.170238,396.446725 l 5.789206,110.464632 M 343.783473,503.370321 l -5.599229,-106.839658 M 345.209708,396.833263 l 5.381954,102.693804 M 357.415532,495.982985 l -5.177145,-98.785813 M 357.739903,502.172360 l 0.445620,8.502929 M 365.324286,513.139740 l -6.052059,-115.480158 M 366.306067,398.121990 l 6.149327,117.336146 M 379.568969,517.441973 l -6.229061,-118.857573 M 380.374296,399.057269 l 6.295591,120.127024 M 393.744862,520.431605 l -6.326368,-120.714299 M 394.462691,400.377345 l 6.355845,121.276739 M 403.776075,444.336038 l -2.269186,-43.298655 M 404.200309,452.430902 l 3.669766,70.023298 M 409.967911,428.732046 l -1.416825,-27.034625 M 411.015759,448.726188 l 3.903947,74.491749 M 416.420643,418.106248 l -0.813018,-15.513311 M 417.831210,445.021473 l 4.132013,78.843498 M 423.009096,410.070173 l -0.335056,-6.393244 M 424.646660,441.316758 l 4.346215,82.930714 M 436.022527,524.629974 l -4.560416,-87.017931 M 438.255236,433.481334 l 4.796944,91.531141 M 450.065691,525.086975 l -5.055203,-96.459029 M 451.765738,423.774558 l 5.313322,101.384220 M 464.092430,525.230582 l -5.205404,-99.325021 M 466.969204,446.371454 l 4.136595,78.930931"
       id="path51" />
  </g>
  <g
     inkscape:label="fill-aeaeae"
     inkscape:groupmode="layer"
     id="fill-aeaeae">
    <path
       style="stroke:#aeaeae"
       d="M 604.938477,704.855021 l 0.911227,17.387252 M 613.260837,729.903846 l -2.024068,-38.621527 M 617.535059,677.709618 l 3.136910,59.855802 M 628.083102,745.226994 l -4.249751,-81.090077 M 630.799543,663.308520 l 4.694691,89.580048 M 642.905367,760.550141 l -4.878598,-93.089201 M 645.412997,674.647328 l 4.903502,93.564387 M 657.727632,775.873288 l -4.928405,-94.039573 M 660.185455,689.020103 l 4.953309,94.514760 M 672.549897,791.196436 l -4.978212,-94.989946 M 674.957913,703.392877 l 5.003116,95.465132 M 687.372161,806.519583 l -5.028019,-95.940319 M 689.730371,717.765652 l 5.052923,96.415505 M 702.194426,821.842730 l -5.077826,-96.890691 M 704.502830,732.138426 l 5.102729,97.365878 M 717.016691,837.165878 l -5.127633,-97.841064 M 719.275288,746.511201 l 4.531249,86.461380 M 730.177780,820.791899 l -3.516264,-67.094310 M 734.047746,760.883976 l 2.501279,47.727241 M 742.920268,796.430534 l -1.486294,-28.360171 M 748.820204,775.256750 l 0.471308,8.993101"
       id="path54" />
  </g>
  <g
     inkscape:label="fill-b3b3b3"
     inkscape:groupmode="layer"
     id="fill-b3b3b3">
    <path
       style="stroke:#b3b3b3"
       d="M 235.318999,571.964341 l 0.165811,2.371201 M 242.394419,572.798448 l -0.397096,-5.678737 M 248.675647,562.275080 l 0.495623,7.087740 M 255.852850,564.564764 l -0.498880,-7.134315 M 262.032294,552.585818 l 0.502137,7.180890 M 269.216011,554.968652 l -0.505394,-7.227465 M 275.388941,542.896556 l 0.508650,7.274040 M 282.579172,545.372540 l -0.511907,-7.320615 M 288.745589,533.207294 l 0.515164,7.367190 M 295.942333,535.776428 l -0.518421,-7.413765 M 302.102236,523.518032 l 0.521678,7.460340 M 309.305494,526.180316 l -0.524935,-7.506915 M 315.458883,513.828771 l 0.528191,7.553490 M 322.668655,516.584205 l -0.307826,-4.402123 M 329.244413,510.272810 l 0.105823,1.513339 M 402.454113,453.380093 l -0.174813,-2.499943 M 408.957650,446.035905 l 0.256599,3.669540 M 415.974387,446.030797 l -0.338385,-4.839137 M 422.314352,436.347415 l 0.420172,6.008735 M 429.494660,438.681502 l -0.501958,-7.178332 M 435.671053,426.658925 l 0.577866,8.263871 M 442.930340,430.122452 l -0.580936,-8.307772 M 449.027755,416.970435 l 0.584006,8.351673 M 456.298842,420.602719 l -0.592737,-8.476528 M 462.384456,407.281945 l 0.595957,8.522584 M 469.661984,411.006340 l -0.599178,-8.568639 M 475.741157,397.593456 l 0.602398,8.614695 M 483.025127,401.409961 l -0.605619,-8.660750 M 489.097859,387.904966 l 0.608839,8.706806 M 496.388269,391.813582 l -0.612060,-8.752861 M 502.454560,378.216476 l 0.615280,8.798917 M 509.751411,382.217203 l -0.618501,-8.844972 M 515.811261,368.527986 l 0.621721,8.891027 M 523.114554,372.620824 l -0.624942,-8.937083 M 529.167963,358.839496 l 0.628162,8.983138 M 536.477696,363.024445 l -0.631383,-9.029194 M 542.524664,349.151007 l 0.634603,9.075249 M 549.840839,353.428066 l -0.637824,-9.121305 M 555.881366,339.462517 l 0.641044,9.167360 M 563.203981,343.831687 l -0.644265,-9.213416 M 569.238067,329.774027 l 0.647485,9.259471 M 576.567123,334.235309 l -0.650706,-9.305526 M 582.594768,320.085537 l 0.653926,9.351582 M 589.930266,324.638930 l -0.657147,-9.397637 M 595.951470,310.397047 l 0.660367,9.443693 M 603.293408,315.042551 l -0.663588,-9.489748 M 609.308171,300.708558 l 0.666808,9.535804 M 616.656551,305.446172 l -0.670029,-9.581859 M 622.664872,291.020068 l 0.673249,9.627914 M 630.019693,295.849793 l -0.676470,-9.673970 M 636.133466,282.931710 l 0.567798,8.119893 M 643.382835,286.253414 l -0.346892,-4.960788 M 649.938421,279.653542 l 0.125986,1.801682"
       id="path57" />
  </g>
  <g
     inkscape:label="fill-bbbbbb"
     inkscape:groupmode="layer"
     id="fill-bbbbbb">
    <path
       style="stroke:#bbbbbb"
       d="M 415.684674,578.477077 l 0.366347,5.239005 M 423.254835,586.386313 l -1.720514,-24.604490 M 428.581373,562.210237 l 1.877277,26.846306 M 437.662463,591.726774 l -2.034040,-29.088123 M 442.675475,563.067066 l 2.190803,31.329939 M 452.070091,597.067236 l -2.347566,-33.571756 M 456.769576,563.923894 l 2.504329,35.813572 M 466.477719,602.407697 l -2.661092,-38.055389 M 470.863678,564.780723 l 2.817855,40.297205 M 480.885347,607.748159 l -2.974618,-42.539022 M 485.063140,567.144272 l 3.026021,43.274117 M 495.292975,613.088620 l -3.029150,-43.318868 M 499.464510,572.395233 l 3.032280,43.363618 M 509.700603,618.429082 l -3.035409,-43.408368 M 513.865879,577.646194 l 3.038538,43.453119 M 524.108231,623.769543 l -3.041667,-43.497869 M 528.267249,582.897155 l 3.044797,43.542619 M 538.515859,629.110005 l -3.047926,-43.587370 M 542.668618,588.148115 l 3.051055,43.632120 M 552.923487,634.450466 l -3.054184,-43.676870 M 557.069988,593.399076 l 3.057314,43.721621 M 567.331115,639.790928 l -3.060443,-43.766371 M 571.471357,598.650037 l 3.063572,43.811121 M 581.738743,645.131389 l -3.066701,-43.855871 M 585.872727,603.900998 l 3.069831,43.900622 M 596.146371,650.471851 l -3.072960,-43.945372 M 600.274096,609.151959 l 3.076089,43.990122 M 610.554000,655.812312 l -1.876005,-26.828117 M 615.836422,631.005369 l 1.921391,27.477174 M 624.961628,661.152774 l -2.034864,-29.099906 M 630.017105,633.100366 l 2.148336,30.722638 M 639.369256,666.493235 l -2.261809,-32.345370 M 644.197788,635.195364 l 2.375281,33.968102 M 653.776884,671.833697 l -2.488754,-35.590834 M 658.378472,637.290361 l 2.602226,37.213567 M 668.184512,677.174158 l -2.715699,-38.836299 M 672.559155,639.385358 l 2.829171,40.459031 M 682.592140,682.514620 l -2.942644,-42.081763 M 686.739838,641.480355 l 3.056116,43.704495 M 696.999768,687.855081 l -3.117338,-44.580010 M 701.082984,645.898691 l 3.120597,44.626621 M 711.407396,693.195543 l -3.123857,-44.673231 M 715.484094,651.145932 l 3.127116,44.719842 M 725.815024,698.536004 l -3.130375,-44.766452 M 729.885203,656.393172 l 3.133635,44.813063 M 740.222652,703.876466 l -3.136894,-44.859673 M 744.286312,661.640413 l 3.140153,44.906284 M 754.630280,709.216927 l -3.143413,-44.952894 M 758.687422,666.887653 l 3.146672,44.999505 M 768.586617,708.103627 l -2.698640,-38.592353 M 773.088531,672.134894 l 0.851217,12.172965"
       id="path60" />
  </g>
  <g
     inkscape:label="fill-cdcdcd"
     inkscape:groupmode="layer"
     id="fill-cdcdcd">
    <path
       style="stroke:#cdcdcd"
       d="M 304.208048,522.536528 l 0.146760,1.396330 M 312.443871,524.360963 l -0.402829,-3.832666 M 319.874034,518.520065 l 0.658899,6.269003 M 328.621994,525.217172 l -0.914968,-8.705339 M 335.540019,514.503601 l 1.171037,11.141676 M 344.800118,526.073382 l -1.427107,-13.578012 M 351.206004,510.487138 l 1.683176,16.014349 M 360.978242,526.929591 l -1.663119,-15.823516 M 367.659863,513.966792 l 1.407441,13.390904 M 377.156365,527.785800 l -1.181187,-11.238239 M 384.232759,518.579008 l 1.012668,9.634897 M 393.334489,528.642010 l -0.884814,-8.418443 M 400.638834,521.604032 l 0.784717,7.466083 M 409.512613,529.498219 l -0.728712,-6.933232 M 416.918368,523.425091 l 0.683307,6.501233 M 425.690736,530.354429 l -0.663067,-6.308657 M 433.116900,524.475480 l 0.662898,6.307053 M 441.868860,531.210638 l -0.662729,-6.305450 M 449.269279,525.086743 l 0.688643,6.552000 M 458.046984,532.066847 l -0.725267,-6.900458 M 465.374154,525.246036 l 0.761892,7.248916 M 474.225108,532.923057 l -1.416076,-13.473062 M 480.128669,512.557517 l 2.185500,20.793644 M 490.403231,533.779266 l -2.189928,-20.835768 M 496.297938,513.329478 l 2.194355,20.877893 M 506.581355,534.635476 l -2.198782,-20.920017 M 512.467207,514.101439 l 2.203210,20.962141 M 522.759479,535.491685 l -2.207637,-21.004266 M 528.636476,514.873399 l 2.212065,21.046390 M 538.937602,536.347894 l -2.216492,-21.088514 M 544.805745,515.645360 l 2.220920,21.130639 M 555.115726,537.204104 l -2.225347,-21.172763 M 560.975013,516.417321 l 2.229775,21.214887 M 571.293850,538.060313 l -2.234202,-21.257012 M 577.144282,517.189282 l 2.238629,21.299136 M 587.471974,538.916522 l -2.243057,-21.341260 M 593.313551,517.961242 l 2.247484,21.383385 M 603.650097,539.772732 l -2.251912,-21.425509 M 609.482820,518.733203 l 2.256339,21.467633 M 619.828221,540.628941 l -2.260767,-21.509758 M 625.652089,519.505164 l 2.265194,21.551882 M 636.006345,541.485151 l -2.269622,-21.594006 M 641.821358,520.277125 l 2.274049,21.636131 M 652.184468,542.341360 l -2.278476,-21.678255 M 657.990626,521.049085 l 2.282904,21.720379 M 668.362592,543.197569 l -2.287331,-21.762504 M 674.159895,521.821046 l 2.291759,21.804628 M 684.540716,544.053779 l -2.296186,-21.846752 M 690.329164,522.593007 l 2.300614,21.888877 M 700.718839,544.909988 l -2.305041,-21.931001 M 706.498433,523.364967 l 2.309469,21.973125 M 716.896963,545.766197 l -2.313896,-22.015250 M 722.667702,524.136928 l 2.318323,22.057374 M 733.075087,546.622407 l -2.322751,-22.099498 M 738.836970,524.908889 l 2.327178,22.141623 M 749.253211,547.478616 l -2.331606,-22.183747 M 755.006239,525.680850 l 2.336033,22.225871 M 765.431334,548.334826 l -2.340461,-22.267996 M 771.175508,526.452810 l 2.344888,22.310120 M 781.609458,549.191035 l -2.349316,-22.352244 M 787.344777,527.224771 l 2.353743,22.394369 M 797.787582,550.047244 l -2.358170,-22.436493 M 803.514046,527.996732 l 2.362598,22.478617 M 813.965705,550.903454 l -2.367025,-22.520742 M 819.683314,528.768693 l 2.371453,22.562866 M 830.143829,551.759663 l -2.375880,-22.604990 M 835.852583,529.540653 l 2.380308,22.647114 M 846.321953,552.615872 l -2.384735,-22.689239 M 852.021852,530.312614 l 2.389163,22.731363 M 862.500077,553.472082 l -2.393590,-22.773487 M 868.191121,531.084575 l 2.398017,22.815612 M 878.678200,554.328291 l -2.402445,-22.857736 M 884.360390,531.856535 l 2.313743,22.013790 M 894.365082,550.510649 l -1.920058,-18.268133 M 900.529659,532.628496 l 1.526374,14.522476 M 909.746982,543.791295 l -1.132689,-10.776818 M 916.698927,533.400457 l 0.739005,7.031161 M 925.128882,537.071941 l -0.345320,-3.285504"
       id="path63" />
  </g>
  <g
     inkscape:label="fill-d4d4d4"
     inkscape:groupmode="layer"
     id="fill-d4d4d4">
    <path
       style="stroke:#d4d4d4"
       d="M 299.997454,523.699991 l 3.248434,30.906788 M 311.341612,555.098261 l -3.255023,-30.969475 M 316.175723,524.557582 l 3.261612,31.032161 M 327.533058,556.081225 l -3.268200,-31.094848 M 332.353992,525.415173 l 3.274789,31.157534 M 343.724504,557.064188 l -3.281377,-31.220220 M 348.532261,526.272763 l 3.287966,31.282907 M 359.915950,558.047152 l -3.294555,-31.345593 M 364.710530,527.130354 l 3.301143,31.408280 M 376.107396,559.030116 l -3.307732,-31.470966 M 380.888799,527.987945 l 3.314320,31.533653 M 392.298842,560.013079 l -3.320909,-31.596339 M 397.067068,528.845536 l 3.327498,31.659025 M 408.490288,560.996043 l -3.334086,-31.721712 M 413.245336,529.703126 l 3.340675,31.784398 M 424.681734,561.979006 l -3.347263,-31.847085 M 429.423605,530.560717 l 3.353852,31.909771 M 440.873180,562.961970 l -3.360441,-31.972458 M 445.601874,531.418308 l 3.367029,32.035144 M 457.064627,563.944934 l -3.373618,-32.097830 M 461.780143,532.275899 l 3.380207,32.160517 M 473.256073,564.927897 l -3.386795,-32.223203 M 477.958412,533.133489 l 3.393384,32.285890 M 489.447519,565.910861 l -3.399972,-32.348576 M 494.136681,533.991080 l 3.406561,32.411263 M 505.638965,566.893824 l -3.413150,-32.473949 M 510.314950,534.848671 l 3.419738,32.536635 M 521.830411,567.876788 l -3.426327,-32.599322 M 526.493219,535.706262 l 3.432915,32.662008 M 538.021857,568.859752 l -3.439504,-32.724695 M 542.671488,536.563852 l 3.446093,32.787381 M 554.213303,569.842715 l -3.452681,-32.850068 M 558.849756,537.421443 l 3.459270,32.912754 M 570.404749,570.825679 l -3.465858,-32.975440 M 575.028025,538.279034 l 3.472447,33.038127 M 586.596195,571.808642 l -3.479036,-33.100813 M 591.206294,539.136624 l 3.485624,33.163500 M 602.787642,572.791606 l -3.492213,-33.226186 M 607.384563,539.994215 l 3.498801,33.288873 M 618.979088,573.774570 l -3.505390,-33.351559 M 623.562832,540.851806 l 3.511979,33.414245 M 635.170534,574.757533 l -3.518567,-33.476932 M 639.741101,541.709397 l 3.525156,33.539618 M 651.361980,575.740497 l -3.531745,-33.602305 M 655.919370,542.566987 l 3.538333,33.664991 M 667.553426,576.723460 l -3.544922,-33.727678 M 672.097639,543.424578 l 3.551510,33.790364 M 683.744872,577.706424 l -3.558099,-33.853050 M 688.275908,544.282169 l 3.564688,33.915737 M 699.936318,578.689388 l -3.571276,-33.978423 M 704.454176,545.139760 l 3.577865,34.041110 M 716.127764,579.672351 l -3.584453,-34.103796 M 720.632445,545.997350 l 3.591042,34.166483 M 732.319210,580.655315 l -3.597631,-34.229169 M 736.810714,546.854941 l 3.604219,34.291855 M 748.510657,581.638278 l -3.610808,-34.354542 M 752.988983,547.712532 l 3.617396,34.417228 M 764.702103,582.621242 l -3.623985,-34.479915 M 769.167252,548.570123 l 3.630574,34.542601 M 780.893549,583.604206 l -3.637162,-34.605288 M 785.345521,549.427713 l 3.643751,34.667974 M 797.084995,584.587169 l -3.650339,-34.730660 M 801.523790,550.285304 l 3.656928,34.793347 M 813.276441,585.570133 l -3.663517,-34.856033 M 817.702059,551.142895 l 3.670105,34.918720 M 829.467887,586.553096 l -3.676694,-34.981406 M 833.880328,552.000486 l 3.683283,35.044093 M 845.659333,587.536060 l -3.689871,-35.106779 M 850.058597,552.858076 l 3.696460,35.169465 M 861.850779,588.519024 l -3.703048,-35.232152 M 866.236865,553.715667 l 3.709637,35.294838 M 878.042225,589.501987 l -3.716226,-35.357525 M 882.415134,554.573258 l 2.468973,23.490708"
       id="path66" />
  </g>
</svg>
