<?xml version="1.0" encoding="UTF-8" standalone="no"?>
<!-- Created with Inkscape (http://www.inkscape.org/) -->

<svg
   xmlns:dc="http://purl.org/dc/elements/1.1/"
   xmlns:cc="http://creativecommons.org/ns#"
   xmlns:rdf="http://www.w3.org/1999/02/22-rdf-syntax-ns#"
   xmlns:svg="http://www.w3.org/2000/svg"
   xmlns="http://www.w3.org/2000/svg"
   xmlns:sodipodi="http://sodipodi.sourceforge.net/DTD/sodipodi-0.dtd"
   xmlns:inkscape="http://www.inkscape.org/namespaces/inkscape"
   id="svg2"
   version="1.1"
   inkscape:version="0.48.3.1 r9886"
   width="1000"
   height="1197"
   sodipodi:docname="hantologie-_0003_petit2_hatched_1398274815.svg">
  <defs
     id="defs27" />
  <sodipodi:namedview
     pagecolor="#ffffff"
     bordercolor="#666666"
     borderopacity="1"
     objecttolerance="10"
     gridtolerance="10"
     guidetolerance="10"
     inkscape:pageopacity="0"
     inkscape:pageshadow="2"
     inkscape:window-width="640"
     inkscape:window-height="480"
     id="namedview25" />
  <metadata
     id="metadata8">
    <rdf:RDF>
      <cc:Work
         rdf:about="">
        <dc:format>image/svg+xml </dc:format>
        <dc:type
           rdf:resource="http://purl.org/dc/dcmitype/StillImage" />
        <dc:title />
      </cc:Work>
    </rdf:RDF>
  </metadata>
  <g
     inkscape:label="fill-0e0e0e"
     inkscape:groupmode="layer"
     id="fill-0e0e0e">
    <path
       style="stroke:#0e0e0e"
       d="M 499.412452,317.864808 l -4.309310,-0.682528 M 496.375054,319.408662 l 5.618335,0.889857 M 504.230514,322.677775 l -6.385392,-1.011347 M 499.742907,323.991938 l 6.360123,1.007345 M 526.191173,330.205862 l -3.136574,-0.496784 M 501.640693,326.317448 l 6.068765,0.961198 M 528.707197,332.629291 l -4.594279,-0.727662 M 503.847538,328.691908 l 5.144473,0.814804 M 509.629216,331.632566 l -3.556626,-0.563314 M 508.960790,333.551628 l 1.008705,0.159763 M 513.000723,336.216421 l -2.265718,-0.358854 M 512.049390,338.090675 l 1.750721,0.277287 M 438.696939,415.569719 l -1.927599,-0.305302 M 438.305287,417.532618 l 6.151645,0.974325 M 448.376615,421.152690 l -7.190266,-1.138826 M 444.573921,422.575332 l 8.623458,1.365822 M 457.193632,426.599029 l -9.073094,-1.437037 M 452.306774,427.849956 l 7.745796,1.226814 M 462.373390,431.469282 l -5.500201,-0.871146 M 463.036169,433.599186 l 1.101590,0.174475 M 550.709871,453.560127 l -1.383200,-0.219077 M 550.308720,455.521521 l 1.122810,0.177836 M 431.888366,440.815440 l -1.735068,-0.274808 M 473.477854,449.427499 l 7.004708,1.109437 M 439.469284,444.041070 l -4.673790,-0.740256 M 569.297158,466.628716 l 3.323531,0.526396 M 489.394888,453.973439 l -1.382054,-0.218896 M 474.325550,451.586691 l 6.946577,1.100230 M 444.806374,446.911312 l -5.339916,-0.845760 M 571.346803,468.978278 l 3.233410,0.512122 M 490.497440,456.172997 l -3.935606,-0.623339 M 475.886022,453.858775 l 6.876858,1.089187 M 449.568653,449.690514 l -6.305467,-0.998688 M 509.574202,461.219389 l 0.745718,0.118110 M 493.245370,458.633156 l -15.369894,-2.434352 M 446.374128,451.209481 l 7.185685,1.138101 M 580.190381,474.428823 l -3.114490,-0.493287 M 566.626318,472.280487 l 3.872483,0.613341 M 513.754364,463.906392 l -4.726808,-0.748653 M 499.132807,461.590565 l 2.238107,0.354481 M 495.711746,461.048722 l -15.319099,-2.426307 M 449.333692,453.703160 l 7.789728,1.233772 M 586.119555,477.392842 l -8.895833,-1.408962 M 509.265608,465.220373 l 6.953476,1.101322 M 495.839683,463.093915 l -11.927594,-1.889145 M 453.348408,456.363959 l 6.971553,1.104186 M 588.736636,479.832278 l -9.371946,-1.484370 M 510.531062,467.445732 l 7.780139,1.232253 M 497.673362,465.409272 l -7.976010,-1.263276 M 454.526840,458.575534 l 8.300928,1.314738 M 597.316180,483.216074 l -11.283841,-1.787185 M 515.866149,470.315657 l 2.717599,0.430425 M 504.593842,468.530299 l -10.589689,-1.677242 M 450.275192,459.927070 l 14.653683,2.320915 M 601.470302,485.898953 l -14.998980,-2.375605 M 496.393502,469.256422 l 16.013717,2.536324 M 467.105812,464.617708 l -14.352316,-2.273184 M 587.219140,485.666721 l 16.784994,2.658482 M 513.006391,473.912576 l -15.088616,-2.389802 M 457.266481,465.084241 l 13.872401,2.197172 M 611.717937,491.571879 l -22.412982,-3.549868 M 498.906195,473.704255 l 14.271544,2.260391 M 472.587022,469.535707 l -15.663049,-2.480783 M 594.603622,490.886168 l 18.275517,2.894558 M 512.602913,477.898532 l -1.425631,-0.225798 M 500.156787,475.927259 l 4.216909,0.667893 M 472.507707,471.548075 l -17.703667,-2.803985 M 614.494070,496.061436 l 4.432217,0.701994 M 611.026199,495.512179 l -3.882282,-0.614893 M 455.070276,470.811188 l 22.804978,3.611954 M 620.970702,499.112164 l -5.546001,-0.878400 M 457.286598,473.187149 l 26.063573,4.128064 M 485.679736,479.709110 l -25.691254,-4.069095 M 620.334574,503.061272 l 5.615977,0.889483 M 487.507712,482.023563 l -24.817347,-3.930682 M 618.827380,504.847486 l 3.603364,0.570717 M 547.526169,493.554483 l -1.477589,-0.234027 M 532.747042,491.213700 l 8.037455,1.273008 M 491.575267,484.692731 l -25.982999,-4.115303 M 536.650576,493.856889 l 13.508331,2.139509 M 496.608192,487.514798 l -28.065249,-4.445099 M 628.112274,510.367929 l 5.099815,0.807731 M 551.669245,498.260543 l -8.878683,-1.406245 M 510.174651,491.688445 l 3.111744,0.492852 M 492.687635,488.918773 l -21.036982,-3.331931 M 630.086433,512.705535 l 5.614254,0.889210 M 512.257734,494.043303 l -2.074344,-0.328544 M 474.984536,488.139808 l 20.597374,3.262304 M 538.481560,500.221679 l -3.236562,-0.512621 M 478.896199,490.784285 l 22.880157,3.623861 M 542.663030,502.908889 l -10.186706,-1.613416 M 514.689525,498.478321 l 3.867783,0.612597 M 501.665541,496.415525 l -10.707721,-1.695936 M 483.590491,493.552718 l 5.941556,0.941050 M 545.351951,505.359703 l -12.488431,-1.977973 M 516.895015,500.852567 l 5.048814,0.799654 M 500.703667,498.288109 l -5.134217,-0.813180 M 534.549544,505.673700 l 11.880987,1.881764 M 525.119542,504.180134 l -5.855630,-0.927441 M 537.445507,508.157305 l 7.690067,1.217987 M 528.289237,506.707095 l -6.980254,-1.105564 M 528.456094,508.758453 l 2.725585,0.431690 M 526.283886,508.414409 l -5.063139,-0.801922 M 581.572389,519.196177 l 10.259169,1.624893 M 526.472022,510.469137 l -7.743254,-1.226411 M 583.013318,521.449328 l 10.078773,1.596321 M 559.800009,517.772701 l -0.578783,-0.091670 M 517.282724,511.038625 l 9.785550,1.549879 M 600.128950,526.185108 l -14.896844,-2.359428 M 536.649647,516.130975 l 1.759732,0.278714 M 527.892039,514.743906 l -10.052894,-1.592222 M 607.532377,529.382626 l 3.962528,0.627603 M 604.779898,528.946676 l -16.084456,-2.547528 M 537.986738,518.367679 l 0.603825,0.095636 M 529.072466,516.955797 l -9.440852,-1.495284 M 607.299623,531.370692 l 7.196941,1.139883 M 604.295246,530.894845 l -12.926949,-2.047428 M 521.919954,517.847881 l 8.420069,1.333608 M 615.473316,534.690208 l -7.895691,-1.250555 M 587.923714,530.326780 l 14.701808,2.328538 M 531.568837,521.401044 l -6.575267,-1.041420 M 607.583790,535.465560 l 7.869427,1.246395 M 601.500268,534.502025 l -14.142063,-2.239883 M 495.245373,517.672903 l 1.101988,0.174538 M 656.115898,545.177221 l -2.499848,-0.395937 M 642.552265,543.028953 l 1.398106,0.221438 M 614.488287,538.584055 l -27.056374,-4.285309 M 495.627298,519.758324 l 0.710573,0.112544 M 644.498091,545.362072 l -2.150788,-0.340651 M 631.368804,543.282597 l 2.760487,0.437218 M 614.352746,540.587518 l -26.688624,-4.227063 M 641.748878,546.951569 l 2.703944,0.428263 M 614.578232,542.648162 l -26.634213,-4.218445 M 588.379754,540.523661 l 26.423964,4.185145 M 571.116745,537.789469 l -4.330437,-0.685874 M 497.402603,526.114295 l 2.846274,0.450805 M 671.023752,555.638114 l -6.834252,-1.082439 M 588.602085,542.583805 l 26.459850,4.190829 M 575.424991,540.496758 l -9.550097,-1.512587 M 498.094957,528.248884 l 3.343195,0.529510 M 673.734891,558.092447 l -16.406665,-2.598560 M 623.701233,550.167894 l 3.074372,0.486933 M 615.409703,548.854645 l -27.443588,-4.346637 M 568.341645,541.399796 l 7.093345,1.123476 M 502.425434,530.959694 l -3.533236,-0.559610 M 657.018846,557.469816 l 11.166896,1.768663 M 615.757472,550.934656 l -28.104410,-4.451301 M 571.309123,543.894729 l 5.184680,0.821173 M 503.743302,533.193354 l -4.054196,-0.642122 M 656.590515,559.426905 l 11.430451,1.810406 M 637.554553,556.411905 l -4.225649,-0.669277 M 594.692930,549.623291 l 21.496487,3.404709 M 578.277674,547.023369 l -3.346783,-0.530078 M 512.777461,536.649155 l 8.905839,1.410546 M 667.973130,563.254664 l -12.854220,-2.035908 M 617.951880,555.332077 l 18.076604,2.863053 M 616.797436,555.149230 l -16.322300,-2.585198 M 515.069058,539.037038 l 12.920370,2.046385 M 667.817675,565.254973 l -12.577760,-1.992121 M 602.729600,554.946034 l 30.244750,4.790298 M 542.583823,545.419879 l -3.440165,-0.544869 M 517.457160,541.440207 l 14.877718,2.356399 M 666.173706,567.019524 l -10.237212,-1.621415 M 602.571338,556.945898 l 31.196291,4.941007 M 551.733744,548.894015 l -12.866806,-2.037902 M 519.895242,543.851291 l 15.639976,2.477129 M 671.955234,569.960158 l -1.689090,-0.267526 M 657.191894,567.621875 l 6.519120,1.032527 M 645.168901,565.717620 l -3.723680,-0.589773 M 607.931664,559.819821 l 28.925574,4.581361 M 605.454756,559.427517 l -2.611400,-0.413605 M 584.262342,556.070969 l 4.089465,0.647708 M 555.601520,551.531540 l -33.090468,-5.241015 M 658.378647,569.834768 l 6.975107,1.104748 M 646.348736,567.929418 l -42.833801,-6.784208 M 585.131712,558.233594 l 3.679775,0.582819 M 559.020890,554.098046 l -33.894028,-5.368287 M 658.805914,571.927371 l 7.252896,1.148746 M 647.514465,570.138981 l -45.016011,-7.129836 M 593.185076,561.534051 l 5.010873,0.793644 M 588.754645,560.832340 l -2.300635,-0.364385 M 567.078324,557.399148 l 4.909991,0.777666 M 562.178041,556.623019 l -13.294492,-2.105641 M 527.999630,551.209691 l 17.185736,2.721953 M 661.963673,574.452441 l -3.177742,-0.503305 M 590.631537,563.154541 l 58.742991,9.303976 M 574.793656,560.646067 l -24.984851,-3.957212 M 531.031336,553.714796 l 16.649270,2.636985 M 663.875832,576.780228 l -5.531196,-0.876055 M 590.497096,565.158178 l 60.177649,9.531203 M 577.518770,563.102613 l -42.383267,-6.712850 M 657.483209,577.792666 l 9.436503,1.494595 M 650.562084,576.696467 l -3.069312,-0.486131 M 591.340394,567.316673 l 54.268054,8.595215 M 580.199565,565.552139 l -40.932297,-6.483039 M 656.717572,579.696331 l 16.439942,2.603831 M 650.445940,578.703002 l -2.828329,-0.447963 M 612.392049,572.675858 l 31.914780,5.054805 M 606.297159,571.710522 l -13.919503,-2.204633 M 566.163809,565.354024 l 16.265654,2.576227 M 560.939928,564.526643 l -17.031071,-2.697457 M 656.702937,581.718944 l 27.219228,4.311102 M 650.320966,580.708139 l -4.511138,-0.714494 M 617.235528,575.467920 l 26.384833,4.178947 M 606.682151,573.796429 l -13.126219,-2.078989 M 567.268512,567.553922 l 17.390849,2.754440 M 559.792301,566.369807 l -10.459451,-1.656614 M 656.880196,583.771949 l 31.812316,5.038576 M 650.603089,582.777753 l -31.921717,-5.055903 M 594.791906,573.938130 l 12.710628,2.013166 M 586.431987,572.614049 l -17.451144,-2.763990 M 620.691628,580.065173 l 69.766377,11.049909 M 608.870370,578.192870 l -12.633351,-2.000926 M 569.453878,571.949911 l 16.001913,2.534454 M 715.105154,597.043737 l -0.152310,-0.024123 M 628.366232,583.305641 l 65.010779,10.296696 M 611.601254,580.650330 l -13.642139,-2.160703 M 576.511633,575.092679 l 9.042929,1.432259 M 700.873377,596.814575 l -71.832105,-11.377088 M 599.563964,580.768740 l 18.162207,2.876611 M 583.868911,578.282888 l -4.414580,-0.699201 M 535.375228,570.602243 l 10.758404,1.703964 M 705.549649,599.580154 l -76.109767,-12.054603 M 600.332403,582.915379 l 18.523703,2.933866 M 581.952402,580.004273 l -1.310718,-0.207597 M 569.168118,577.979441 l 4.018704,0.636500 M 549.890143,574.926110 l -21.221612,-3.361173 M 629.633180,589.581097 l 78.579347,12.445746 M 619.285955,587.942257 l -17.986978,-2.848858 M 570.365070,580.193950 l 5.743088,0.909616 M 553.413873,577.509144 l -30.553128,-4.839140 M 602.688702,587.338441 l 106.798116,16.915160 M 556.048112,579.951297 l -37.183770,-5.889331 M 648.938648,596.688643 l 61.750307,9.780288 M 646.442940,596.293362 l -42.349250,-6.707462 M 505.070808,573.902216 l 52.913831,8.380727 M 713.974529,609.014245 l -64.322371,-10.187663 M 605.503083,591.834055 l 40.694414,6.445362 M 553.248898,583.557806 l -48.516807,-7.684307 M 687.867489,606.904226 l 27.235379,4.313660 M 684.739611,606.408819 l -36.115809,-5.720182 M 605.433263,593.847927 l 41.519243,6.576002 M 557.315067,586.226754 l -50.650560,-8.022261 M 497.501451,576.753208 l 2.997210,0.474711 M 715.829079,613.357837 l -5.346145,-0.846746 M 687.557574,608.880071 l 18.670720,2.957152 M 684.095377,608.331713 l -80.599045,-12.765635 M 510.559631,580.846351 l 50.618303,8.017152 M 715.899785,615.393966 l -3.727024,-0.590303 M 686.455723,610.730485 l 18.124210,2.870593 M 684.972769,610.495608 l -84.278724,-13.348439 M 514.042288,583.422879 l 49.288454,7.806524 M 489.331332,579.509049 l -15.350155,-2.431226 M 595.611959,598.367176 l 107.494108,17.025394 M 564.513171,593.441612 l -49.323229,-7.812032 M 461.011651,577.048582 l 42.501480,6.731573 M 701.484707,617.160703 l -110.157185,-17.447184 M 449.094176,577.185970 l 115.730128,18.329852 M 699.785892,618.916567 l -10.115594,-1.602153 M 587.906349,601.196588 l 93.624523,14.828668 M 565.030397,597.573393 l -121.867443,-19.301907 M 692.475185,619.783595 l 5.927982,0.938900 M 672.783126,616.664679 l -89.053415,-14.104675 M 440.642293,579.897183 l 124.597016,19.734229 M 396.371210,572.885333 l -14.749970,-2.336166 M 682.511563,620.230443 l 14.413134,2.282816 M 667.742664,617.891279 l -91.923563,-14.559262 M 438.700024,581.614488 l 130.797201,20.716241 M 420.436675,578.721858 l -52.208920,-8.269081 M 682.373733,622.233543 l 8.897388,1.409208 M 663.843591,619.298656 l -300.822271,-47.645567 M 538.432492,601.460420 l 116.130960,18.393337 M 535.839759,601.049772 l -174.791204,-27.684207 M 539.158220,603.600294 l 107.318358,16.997558 M 533.800019,602.751639 l -173.799592,-27.527151 M 595.904369,614.612932 l 48.134436,7.623746 M 592.957925,614.146261 l -51.781842,-8.201438 M 358.911037,577.076875 l 172.118771,27.260935 M 642.215280,623.972790 l -46.548279,-7.372523 M 544.934140,608.564971 l 45.683136,7.235498 M 527.597385,605.819098 l -160.001332,-25.341721 M 593.467694,618.276861 l 46.973452,7.439864 M 590.491254,617.805439 l -3.650010,-0.578105 M 548.767508,611.197047 l 35.914336,5.688272 M 524.467139,607.348246 l -145.191568,-22.996085 M 633.032918,626.568307 l 5.660164,0.896482 M 624.882063,625.277338 l -39.995104,-6.334602 M 570.693192,616.694664 l 10.764562,1.704939 M 569.092136,616.441082 l -17.598979,-2.787405 M 391.844147,588.367758 l 128.387760,20.334623 M 619.293105,626.417064 l -36.660811,-5.806502 M 553.027762,615.921665 l 25.647347,4.062141 M 523.178711,611.194040 l -118.765988,-18.810685 M 580.126125,622.238554 l 34.742075,5.502604 M 576.225052,621.620685 l -23.478130,-3.718571 M 416.981299,596.398953 l 108.252347,17.145487 M 611.023405,629.157133 l -33.613980,-5.323931 M 551.923145,619.796572 l 22.451410,3.555954 M 529.228853,616.202149 l -99.675571,-15.787060 M 551.521277,621.757852 l 55.955045,8.862409 M 529.492427,618.268825 l -87.109859,-13.796846 M 549.441154,623.453323 l 53.866084,8.531550 M 532.451073,620.762359 l -75.364827,-11.936616 M 577.121392,629.862373 l 20.781321,3.291438 M 573.120053,629.228623 l -55.741051,-8.828515 M 501.418582,617.872225 l 4.847072,0.767701 M 497.804495,617.299810 l -23.124061,-3.662491 M 581.146924,632.524885 l 11.127688,1.762453 M 569.296067,630.647893 l -50.665737,-8.024664 M 497.775727,619.320184 l 12.222908,1.935918 M 587.245167,635.515682 l -2.699880,-0.427619 M 556.682964,630.675104 l 15.180707,2.404388 M 546.058742,628.992393 l -21.055880,-3.334924 M 559.636936,633.167898 l 4.220094,0.668397 M 544.655039,630.794998 l -6.698477,-1.060934"
       id="path5" />
  </g>
  <g
     inkscape:label="fill-2f2f2f"
     inkscape:groupmode="layer"
     id="fill-2f2f2f">
    <path
       style="stroke:#2f2f2f"
       d="M 493.200296,310.463127 l -11.885422,-1.459346 M 499.995534,314.320007 l 7.243461,0.889385 M 497.712799,314.039723 l -11.714089,-1.438309 M 488.414592,315.920576 l 18.232955,2.238725 M 507.176811,321.246816 l -15.569142,-1.911650 M 495.042678,322.779461 l 19.032250,2.336866 M 527.164817,329.746094 l -14.940199,-1.834426 M 498.523701,326.229407 l 10.890487,1.337184 M 531.606341,333.313974 l -19.446883,-2.387777 M 502.173325,329.700054 l 9.681562,1.188746 M 533.993076,336.629557 l -28.086602,-3.448601 M 520.577520,338.004864 l 15.096702,1.853642 M 514.804440,337.296019 l -5.164818,-0.634160 M 523.896612,341.434926 l 1.937319,0.237873 M 515.489649,340.402681 l -1.665051,-0.204443 M 519.133072,346.895096 l 4.108634,0.504477 M 575.879157,390.132993 l -2.587735,-0.317734 M 575.629705,393.124894 l 3.107530,0.381557 M 442.232885,416.038707 l -8.911193,-1.094157 M 411.737855,412.294388 l 9.474814,1.163361 M 448.475889,419.827781 l -13.416583,-1.647349 M 416.016120,415.842222 l 11.914626,1.462932 M 454.674957,423.611460 l -16.760198,-2.057894 M 421.992992,419.598619 l 12.011297,1.474802 M 483.220159,430.138900 l -2.139869,-0.262743 M 443.700462,425.286491 l 16.891592,2.074027 M 439.511967,424.772209 l -15.996427,-1.964114 M 415.294451,421.798671 l 4.687742,0.575582 M 486.796617,433.600563 l -1.856024,-0.227891 M 450.589251,429.154857 l 14.088791,1.729886 M 444.838867,428.448799 l -27.329291,-3.355615 M 594.041277,449.791081 l 5.645982,0.693239 M 468.009301,434.316300 l -9.954873,-1.222305 M 432.248814,429.925464 l 17.814841,2.187387 M 612.460961,455.075263 l -2.317325,-0.284532 M 599.934581,453.537217 l 3.572280,0.438621 M 493.963736,440.525633 l -1.562526,-0.191854 M 466.042115,437.097290 l 4.578170,0.562129 M 455.288443,435.776905 l -14.904810,-1.830081 M 612.925145,458.154787 l 4.313320,0.529609 M 606.448842,457.359597 l -0.929740,-0.114158 M 448.938064,438.019706 l 11.241340,1.380263 M 617.732955,461.767642 l -1.134043,-0.139243 M 609.206480,460.720722 l 0.508069,0.062383 M 563.147591,455.065402 l -1.554613,-0.190883 M 548.180042,453.227618 l 3.882032,0.476654 M 489.522789,446.025413 l -4.120180,-0.505894 M 451.807575,441.394567 l 13.230473,1.624498 M 433.417760,439.136581 l -11.517005,-1.414110 M 407.718716,435.981136 l 5.108691,0.627268 M 613.179683,464.231100 l -2.395039,-0.294074 M 548.965832,456.346630 l 6.311112,0.774907 M 493.354883,449.518464 l -7.761668,-0.953013 M 456.326531,444.971954 l 26.793652,3.289847 M 444.044748,443.463941 l -20.494527,-2.516412 M 612.502042,467.170425 l 3.895171,0.478267 M 568.958475,461.823947 l -2.658766,-0.326455 M 556.197345,460.257078 l 1.711302,0.210121 M 523.578502,456.251987 l -1.238818,-0.152108 M 454.408929,447.759032 l 43.383103,5.326775 M 449.940789,447.210413 l -21.694420,-2.663740 M 614.540417,470.443236 l 4.925913,0.604826 M 585.042901,466.821396 l -3.209608,-0.394090 M 577.048015,465.839748 l 1.583814,0.194468 M 572.813756,465.319846 l -5.578834,-0.684995 M 523.350272,459.246494 l 7.331634,0.900211 M 513.630986,458.053116 l -7.653043,-0.939675 M 469.564809,452.642469 l 33.171410,4.072937 M 457.095630,451.111447 l -27.770646,-3.409807 M 370.071225,440.426193 l 12.230122,1.501670 M 622.107438,474.394879 l -4.590614,-0.563657 M 568.175659,467.772889 l 24.702521,3.033088 M 520.356958,461.901491 l -47.672011,-5.853387 M 433.372637,451.221159 l 27.276945,3.349188 M 387.942019,445.642980 l -10.530872,-1.293029 M 631.223223,478.536686 l 1.459770,0.179237 M 595.758567,474.182173 l -22.176475,-2.722929 M 565.086903,470.416167 l 6.657918,0.817490 M 526.922772,465.730201 l -50.310333,-6.177332 M 441.518012,455.243815 l 22.865915,2.807581 M 395.499731,449.593480 l -8.020260,-0.984764 M 632.941682,481.770215 l 0.802794,0.098571 M 591.564386,476.689722 l -16.272678,-1.998034 M 566.961037,473.668811 l 5.559889,0.682668 M 555.594946,472.273230 l -2.810164,-0.345045 M 506.878703,466.291628 l 24.431424,2.999802 M 505.026716,466.064232 l -19.151314,-2.351486 M 446.787859,458.913400 l 21.617629,2.654311 M 636.547147,485.235440 l -10.543140,-1.294535 M 577.888838,478.033106 l 19.416129,2.384001 M 532.844250,472.502326 l -40.147164,-4.929452 M 449.488068,462.267473 l 23.732680,2.914007 M 423.605409,459.089482 l -10.207054,-1.253269 M 627.863952,487.191807 l 11.945625,1.466738 M 608.305419,484.790322 l -24.658995,-3.027744 M 496.899281,471.111368 l 26.306967,3.230089 M 475.684892,468.506568 l -22.417984,-2.752582 M 430.642981,462.976117 l 6.556260,0.805008 M 641.555344,491.895428 l -11.416263,-1.401741 M 584.976011,484.948360 l 27.466441,3.372455 M 519.303829,476.884830 l -22.086447,-2.711875 M 438.141012,466.919289 l 43.000224,5.279764 M 646.937358,495.578786 l -14.068906,-1.727444 M 587.930850,488.333698 l 28.080743,3.447882 M 538.015954,482.204919 l -41.311814,-5.072453 M 447.840612,471.132780 l 45.690810,5.610126 M 642.464265,498.052089 l -9.252457,-1.136059 M 595.562108,492.293228 l 24.018625,2.949116 M 543.628111,485.916535 l -29.409684,-3.611055 M 497.317537,480.230312 l 14.493503,1.779578 M 492.587657,479.649555 l -36.395248,-4.468775 M 633.019415,499.914937 l 11.088221,1.361462 M 623.149874,498.703109 l -15.778474,-1.937353 M 517.433813,485.722809 l 31.167411,3.826877 M 510.245440,484.840188 l -49.309235,-6.054413 M 636.118926,503.318038 l 9.804030,1.203784 M 626.594874,502.148632 l -13.713864,-1.683851 M 521.392197,489.231367 l 29.857688,3.666063 M 515.455626,488.502448 l -49.834341,-6.118888 M 639.076391,506.703699 l 8.426364,1.034627 M 629.955202,505.583758 l -15.247170,-1.872117 M 588.457505,500.488481 l 16.989601,2.086061 M 573.598806,498.664062 l -2.313213,-0.284027 M 532.394947,493.604864 l 21.515573,2.641780 M 523.240144,492.480796 l -52.694336,-6.470051 M 645.641412,510.532311 l 3.769215,0.462801 M 644.493871,510.391411 l -2.657650,-0.326318 M 615.783874,506.866267 l 17.531656,2.152617 M 608.071427,505.919297 l -17.813095,-2.187173 M 534.632048,496.902075 l 22.410014,2.751604 M 531.476297,496.514598 l -7.472923,-0.917560 M 476.045443,489.708545 l 41.476186,5.092635 M 653.813431,514.558239 l -7.705343,-0.946097 M 638.650460,512.696460 l 3.742796,0.459558 M 637.076731,512.503230 l -20.246907,-2.486008 M 581.544011,505.684670 l 27.475000,3.373506 M 577.737673,505.217310 l -0.909047,-0.111617 M 527.648114,499.067086 l 32.040508,3.934080 M 520.508667,498.190472 l -10.225832,-1.255574 M 481.995927,493.461702 l 21.975237,2.698220 M 656.560299,517.918041 l -9.858127,-1.210426 M 628.604078,514.485449 l 15.984214,1.962615 M 626.096392,514.177544 l -7.894139,-0.969278 M 590.722695,509.834200 l 20.772002,2.550481 M 587.454102,509.432867 l -11.711892,-1.438040 M 531.016398,502.503188 l 32.485541,3.988723 M 524.324922,501.681578 l -10.625489,-1.304646 M 488.629212,497.298696 l 15.544598,1.908637 M 658.307597,521.155112 l -17.375126,-2.133397 M 620.077516,516.461048 l 4.770996,0.585805 M 617.171544,516.104240 l -26.477238,-3.250996 M 571.562606,510.504166 l 16.604668,2.038797 M 561.594511,509.280238 l -27.592321,-3.387911 M 516.208788,503.707572 l 12.049871,1.479538 M 504.697032,502.294106 l -4.848575,-0.595330 M 652.938486,523.518397 l 4.978037,0.611226 M 651.121636,523.295316 l -7.635178,-0.937482 M 631.290091,520.860309 l 1.554365,0.190852 M 623.974717,519.962094 l -13.418880,-1.647631 M 603.963032,517.504968 l 5.094444,0.625519 M 601.161198,517.160946 l -27.251679,-3.346085 M 556.692939,511.700930 l 5.503581,0.675755 M 547.914029,510.623016 l -11.420733,-1.402290 M 516.698105,506.790182 l 15.952077,1.958669 M 632.723168,524.058798 l -2.835576,-0.348165 M 605.951959,520.771707 l 16.123931,1.979770 M 602.683678,520.370412 l -25.670009,-3.151881 M 552.685374,514.231393 l 12.471987,1.531367 M 540.867680,512.780362 l -10.982920,-1.348533 M 515.194093,509.628042 l 14.678213,1.802258 M 644.861161,528.571685 l -4.751143,-0.583367 M 579.025655,520.488102 l 43.503474,5.341555 M 566.703325,518.975110 l -11.489514,-1.410735 M 533.967707,514.955681 l 6.792942,0.834068 M 529.644572,514.424867 l -13.307603,-1.633968 M 491.434448,509.733254 l 4.057741,0.498228 M 667.489269,534.372597 l -2.172931,-0.266802 M 645.052219,531.617674 l 5.601836,0.687819 M 637.599323,530.702573 l -2.286757,-0.280778 M 579.766472,523.601592 l 47.959895,5.888735 M 571.864130,522.631307 l -2.648154,-0.325152 M 560.693580,521.259736 l 4.643556,0.570157 M 540.802891,518.817466 l -4.744807,-0.582589 M 519.029957,516.144086 l 12.246331,1.503660 M 497.188573,513.462301 l -5.616700,-0.689644 M 649.295143,535.161169 l 3.197699,0.392628 M 637.764391,533.745371 l -0.617659,-0.075839 M 577.794791,526.382030 l 48.823229,5.994739 M 574.108802,525.929447 l -6.193992,-0.760527 M 537.939709,521.488441 l 2.669194,0.327736 M 533.133634,520.898329 l -10.167477,-1.248409 M 492.097484,515.859723 l 6.410675,0.787132 M 654.034947,538.765673 l -10.002048,-1.228097 M 622.761146,534.925733 l 6.568657,0.806530 M 620.180797,534.608906 l -41.842730,-5.137641 M 560.535537,527.285389 l 14.052463,1.725426 M 534.776760,524.122609 l -2.969755,-0.364640 M 492.911825,518.982241 l 6.871440,0.843707 M 659.231767,542.426292 l -9.107380,-1.118246 M 638.282481,539.854043 l 8.685127,1.066399 M 632.476340,539.141139 l -51.165420,-6.282324 M 568.944719,531.340436 l 5.451567,0.669368 M 500.999169,522.997772 l -6.902596,-0.847532 M 652.074647,544.570038 l 7.683299,0.943390 M 646.534661,543.889813 l -8.446952,-1.037155 M 625.686054,541.329926 l 10.877640,1.335606 M 616.891075,540.250038 l -33.128500,-4.067668 M 551.051664,532.165975 l 5.366964,0.658980 M 528.131515,529.351735 l -0.713983,-0.087666 M 508.687458,526.964305 l 6.814225,0.836682 M 502.174595,526.164626 l -7.029622,-0.863129 M 654.321964,547.868503 l 6.750655,0.828876 M 646.413691,546.897489 l -16.187139,-1.987531 M 585.865506,539.463107 l 30.780809,3.779408 M 577.167976,538.395184 l -14.432246,-1.772057 M 525.929596,532.103902 l 5.188429,0.637059 M 521.255245,531.529964 l -12.798359,-1.571441 M 496.193372,528.452753 l 7.076769,0.868918 M 671.969945,553.057932 l -15.835843,-1.944397 M 640.146862,549.150549 l 6.372875,0.782491 M 623.121124,547.060051 l -1.933493,-0.237403 M 586.937281,542.617234 l 30.416372,3.734661 M 582.239781,542.040453 l -17.049825,-2.093455 M 509.467253,533.105110 l 38.750434,4.757955 M 504.142675,532.451334 l -6.900904,-0.847325 M 656.235671,554.148536 l 19.363737,2.377568 M 647.084911,553.024964 l -3.898227,-0.478642 M 620.783725,549.795584 l 8.430291,1.035110 M 618.546865,549.520932 l -49.114553,-6.030509 M 510.764208,536.286886 l 41.596426,5.107399 M 503.110573,535.347138 l -4.852326,-0.595791 M 655.226527,557.047158 l 21.772118,2.673280 M 639.234548,555.083590 l -65.157839,-8.000377 M 512.591601,539.533791 l 42.981741,5.277494 M 501.399933,538.159627 l -2.137893,-0.262500 M 672.901228,562.239868 l 5.157977,0.633320 M 670.016261,561.885638 l -16.093326,-1.976012 M 579.201761,550.735020 l 60.226240,7.394852 M 558.544265,548.198598 l -43.978157,-5.399839 M 500.265833,541.042906 l 1.023417,0.125660 M 680.171491,566.155073 l -3.539845,-0.434638 M 653.191958,562.842403 l 17.503555,2.149166 M 637.319842,560.893552 l -56.139268,-6.893035 M 517.133469,546.136521 l 51.958689,6.379725 M 502.531983,544.343684 l -1.199560,-0.147287 M 678.958435,569.028658 l 2.591413,0.318185 M 672.791974,568.271512 l -19.993967,-2.454950 M 583.068264,557.254825 l 63.314892,7.774091 M 573.090719,556.029737 l -53.421057,-6.559281 M 679.694128,572.141519 l 4.815968,0.591327 M 674.963027,571.560613 l -23.126407,-2.839566 M 584.911710,560.503702 l 63.292515,7.771344 M 577.160080,559.551921 l -55.735488,-6.843457 M 680.770043,575.296155 l 6.490890,0.796981 M 677.336981,574.874628 l -90.012057,-11.052091 M 522.293085,555.837631 l 58.937847,7.236658 M 514.034869,554.823649 l -3.449718,-0.423572 M 674.708072,577.574367 l 9.896894,1.215186 M 667.371674,576.673571 l -78.462966,-9.634041 M 525.452842,559.248130 l 60.193124,7.390786 M 516.826904,558.188998 l -3.112232,-0.382134 M 677.953623,580.995401 l 9.929901,1.219238 M 672.221620,580.291599 l -142.759234,-17.528630 M 699.806344,586.701107 l 4.225044,0.518770 M 690.357942,585.540989 l -74.486294,-9.145767 M 533.199979,566.244417 l 78.100883,9.589583 M 501.573806,562.361212 l -1.501799,-0.184398 M 710.412187,591.025870 l 7.168150,0.880138 M 691.778078,588.737889 l -74.829525,-9.187910 M 529.323608,568.790988 l 83.480095,10.250067 M 719.402108,595.152223 l -8.065807,-0.990357 M 696.813336,592.378671 l 8.812883,1.082086 M 692.933538,591.902291 l -95.559511,-11.733233 M 520.044309,570.674163 l 74.283730,9.120895 M 503.565331,568.650799 l -3.270115,-0.401520 M 512.991527,572.830720 l 207.816267,25.516629 M 507.642854,572.173985 l -6.409422,-0.786978 M 569.138827,582.747271 l 152.240737,18.692812 M 564.132241,582.132540 l -69.705497,-8.558759 M 572.561105,586.190003 l 142.481386,17.494514 M 563.378062,585.062467 l -89.785299,-11.024249 M 598.629052,592.413274 l 117.382829,14.412799 M 594.528384,591.909776 l -21.237927,-2.607690 M 452.947342,574.525810 l 110.560302,13.575098 M 407.210784,568.910066 l -4.731984,-0.581015 M 372.932222,564.701188 l 17.543966,2.154128 M 347.692057,561.602086 l -33.356946,-4.095718 M 578.106486,592.915950 l 139.191700,17.090592 M 566.486995,591.489255 l -123.222152,-15.129778 M 405.721409,571.749724 l 14.256204,1.750442 M 396.619782,570.632184 l -25.090712,-3.080752 M 302.535077,559.080035 l 63.944240,7.851365 M 719.119098,613.252651 l -137.006235,-16.822250 M 429.679448,577.713930 l 142.784130,17.531687 M 425.550029,577.206901 l -110.687846,-13.590759 M 710.871195,615.262465 l 11.858474,1.456038 M 706.601421,614.738203 l -122.219376,-15.006652 M 330.221784,568.524594 l 238.846998,29.326724 M 722.255252,619.682781 l -3.813214,-0.468204 M 345.476764,573.420200 l 358.516318,44.020269 M 721.329671,622.591663 l -3.770081,-0.462908 M 359.039053,578.107969 l 342.842098,42.095717 M 699.714657,622.960203 l -20.755389,-2.548441 M 372.861346,582.827662 l 296.170169,36.365124 M 690.545434,624.856893 l -8.350659,-1.025332 M 387.283413,587.620999 l 272.457987,33.453634 M 645.925882,622.400831 l -101.716806,-12.489253 M 401.705480,592.414336 l 133.841821,16.433709 M 643.478540,625.122864 l -93.453600,-11.474659 M 416.961166,597.310028 l 110.359310,13.550419 M 640.962158,627.836421 l -90.586202,-11.122587 M 432.411300,602.229595 l 96.400688,11.836516 M 637.349243,630.415340 l -187.951766,-23.077575 M 618.140000,631.079271 l 12.190805,1.496843 M 614.173976,630.592305 l -146.212920,-17.952689 M 489.908346,618.356933 l 125.396951,15.396810 M 617.002979,636.984722 l -100.926834,-12.392257 M 599.317046,637.835692 l 10.873520,1.335100 M 584.561549,636.023944 l -54.911381,-6.742270 M 543.449363,637.021061 l 0.143693,0.017643 M 549.136438,640.741876 l -2.260360,-0.277537"
       id="path8" />
  </g>
  <g
     inkscape:label="fill-4e4e4e"
     inkscape:groupmode="layer"
     id="fill-4e4e4e">
    <path
       style="stroke:#4e4e4e"
       d="M 486.283056,306.128854 l -12.973432,-0.907191 M 498.907391,311.021401 l 4.678537,0.327155 M 496.455464,310.849946 l -20.642940,-1.443495 M 480.004825,313.709373 l 30.504012,2.133048 M 516.256498,320.254104 l -31.776998,-2.222064 M 489.394536,322.385500 l 31.357834,2.192753 M 527.625836,329.068661 l -33.172927,-2.319677 M 500.094047,331.153218 l 33.040113,2.310390 M 537.583881,337.784530 l -31.677809,-2.215128 M 520.052942,340.568415 l 20.371590,1.424520 M 516.725610,340.335746 l -6.139630,-0.429325 M 526.107394,345.001551 l 14.239288,0.995708 M 548.997421,350.611946 l -16.400411,-1.146828 M 518.787860,348.499487 l 5.999374,0.419517 M 552.671006,354.878595 l -18.490049,-1.292950 M 546.413744,358.450812 l 4.958979,0.346766 M 542.910592,358.205848 l -4.165505,-0.291281 M 548.378747,362.597986 l 1.372156,0.095951 M 536.818900,361.789643 l -2.760095,-0.193005 M 554.547830,367.039138 l 5.263320,0.368047 M 563.671384,371.686887 l -8.902473,-0.622522 M 558.925540,375.364793 l 8.532240,0.596632 M 571.167272,380.230586 l -10.281313,-0.718939 M 564.668767,383.785934 l 10.207997,0.713813 M 578.586256,388.768907 l -9.787172,-0.684386 M 573.005482,392.388429 l 8.879224,0.620896 M 587.243718,397.393831 l -10.123794,-0.707925 M 580.843330,400.956040 l 9.080485,0.634969 M 437.391630,390.924919 l -3.817756,-0.266963 M 584.202141,405.200678 l 4.604864,0.322003 M 432.885036,394.619555 l -3.370043,-0.235656 M 594.544707,409.933668 l 1.963277,0.137286 M 436.248598,398.864526 l -0.388409,-0.027160 M 596.835331,414.103612 l 2.815376,0.196870 M 443.757787,403.399387 l -3.133344,-0.219105 M 597.604939,418.167196 l 2.595295,0.181481 M 591.109472,417.712988 l -1.267004,-0.088598 M 444.842023,407.484972 l 4.367602,0.305413 M 418.757042,409.670700 l -9.234500,-0.645739 M 586.784817,425.430114 l 7.862949,0.549831 M 442.553875,415.344504 l -32.630415,-2.281741 M 605.878049,430.775011 l 2.095877,0.146558 M 598.935993,430.289575 l -8.878404,-0.620839 M 412.419046,417.247039 l 37.021723,2.588811 M 614.249225,435.370148 l -5.510521,-0.385333 M 595.750989,434.076625 l 7.289968,0.509764 M 479.596446,425.954308 l -2.931445,-0.204987 M 412.920977,421.291906 l 44.875322,3.137988 M 616.023092,439.503956 l -4.363429,-0.305121 M 598.745224,438.295770 l 8.244740,0.576528 M 597.795490,438.229358 l -5.110435,-0.357356 M 585.060939,437.338872 l 3.406808,0.238227 M 484.894848,430.334576 l -5.661151,-0.395866 M 412.255984,425.255172 l 51.277709,3.585687 M 618.299942,443.672937 l -3.498261,-0.244622 M 587.595261,441.525856 l 22.795532,1.594019 M 489.415749,434.660476 l -5.429017,-0.379634 M 428.902980,430.429011 l 39.622719,2.770690 M 424.522715,430.122713 l -10.941248,-0.765087 M 618.293297,447.682240 l 2.108452,0.147437 M 611.374635,447.198440 l -21.582963,-1.509228 M 573.345600,444.539191 l 2.305909,0.161245 M 493.934081,438.986196 l -4.765271,-0.333220 M 431.887003,434.647442 l 41.329976,2.890073 M 429.484062,434.479412 l -14.066452,-0.983622 M 399.761648,432.401018 l 7.909542,0.553089 M 614.691256,451.440128 l -23.089599,-1.614582 M 553.534808,447.163653 l 11.657064,0.815141 M 498.325472,443.303040 l -4.316932,-0.301869 M 470.420221,441.351715 l 6.518262,0.455801 M 464.701545,440.951826 l -58.892554,-4.118169 M 594.248543,454.020402 l 23.748777,1.660676 M 572.411938,452.493438 l -15.776760,-1.103219 M 498.484889,447.323955 l 4.319979,0.302082 M 491.243373,446.817579 l -17.873952,-1.249868 M 412.544338,441.314406 l 59.249086,4.143100 M 388.092690,439.604580 l -22.433434,-1.568699 M 597.283175,458.242372 l 23.909176,1.671892 M 590.220842,457.748525 l -5.524410,-0.386304 M 560.343768,455.659317 l 12.234706,0.855534 M 554.360314,455.240913 l -7.260802,-0.507725 M 502.461572,451.611799 l 16.601959,1.160922 M 496.943654,451.225949 l -77.316848,-5.406521 M 369.144642,442.289371 l 32.311172,2.259417 M 624.211478,464.135150 l -23.860102,-1.668461 M 588.469683,461.635840 l 7.296838,0.510245 M 578.879422,460.965224 l -3.862987,-0.270126 M 563.929359,459.919813 l 6.291845,0.439969 M 558.606161,459.547579 l -6.606264,-0.461955 M 504.702141,455.778243 l 23.068617,1.613115 M 503.592438,455.700645 l -76.681358,-5.362083 M 377.691171,446.896771 l 36.627940,2.561275 M 626.966717,468.337582 l -6.294601,-0.440161 M 603.699210,466.710560 l 15.386594,1.075935 M 600.793853,466.507397 l -6.405255,-0.447899 M 565.876118,464.065712 l 24.914236,1.742173 M 563.289139,463.884812 l -3.489540,-0.244012 M 434.709183,454.893626 l 101.150830,7.073155 M 422.155890,454.015814 l -2.463939,-0.172295 M 398.154816,452.337496 l 14.840847,1.037773 M 391.647878,451.882486 l -3.675905,-0.257044 M 624.953692,472.206586 l 4.804504,0.335964 M 622.414308,472.029015 l -13.944998,-0.975129 M 599.955654,470.458552 l 5.598518,0.391487 M 596.257515,470.199953 l -33.108216,-2.315152 M 479.166789,462.012172 l 65.314995,4.567269 M 473.120961,461.589407 l -29.138572,-2.037567 M 407.601122,457.007813 l 17.808446,1.245288 M 639.723929,477.249189 l -11.356243,-0.794106 M 614.940489,475.516162 l 10.800973,0.755278 M 610.073845,475.175853 l -5.072680,-0.354716 M 573.842444,472.642307 l 27.309199,1.909645 M 572.418811,472.542756 l -7.309589,-0.511136 M 544.798049,470.611325 l 10.057742,0.703306 M 540.668922,470.322588 l -50.558235,-3.535376 M 448.971682,463.910492 l 29.474095,2.061030 M 440.473900,463.316269 l -22.989840,-1.607606 M 640.317397,481.300456 l 2.863488,0.200235 M 636.210263,481.013257 l -14.083986,-0.984848 M 609.967239,479.178166 l 4.581789,0.320390 M 604.098008,478.767749 l -31.098531,-2.174621 M 545.224845,474.650937 l 18.203211,1.272893 M 538.911460,474.209462 l -42.491727,-2.971311 M 430.802380,466.649739 l 48.537199,3.394052 M 646.190910,485.720939 l -5.035191,-0.352095 M 623.936936,484.164790 l 14.299417,0.999913 M 619.395684,483.847235 l -5.254368,-0.367421 M 581.751514,481.214898 l 27.521658,1.924502 M 570.506551,480.428573 l -26.095758,-1.824793 M 439.894907,471.295318 l 95.498325,6.677893 M 648.201789,489.871321 l -30.560317,-2.136986 M 583.487275,485.346042 l 29.912948,2.091717 M 570.858878,484.462978 l -23.724571,-1.658984 M 451.765384,476.135150 l 91.243248,6.380349 M 650.782924,494.061579 l -28.166889,-1.969621 M 587.136054,489.610957 l 31.282651,2.187496 M 563.048418,487.926585 l -9.072071,-0.634381 M 461.312238,480.812498 l 87.844314,6.142673 M 652.525677,498.193212 l -25.119394,-1.756519 M 597.546769,494.348712 l 26.114545,1.826107 M 579.855492,493.111618 l -4.167421,-0.291414 M 468.470690,485.322834 l 99.182542,6.935519 M 655.868694,502.436746 l -24.153849,-1.689002 M 610.164270,499.240782 l 17.599776,1.230696 M 600.321382,498.552500 l -20.364693,-1.424038 M 562.205897,495.887206 l 14.183198,0.991786 M 557.100665,495.530213 l -81.826672,-5.721878 M 635.348647,505.011612 l 24.244159,1.695317 M 631.782943,504.762274 l -66.801450,-4.671212 M 524.827747,497.283238 l 36.701710,2.566434 M 520.927673,497.010518 l -38.327613,-2.680128 M 636.976302,509.135197 l 24.817341,1.735398 M 634.710940,508.976787 l -105.535766,-7.379780 M 512.582435,500.436730 l 12.545937,0.877297 M 508.956791,500.183200 l -17.741904,-1.240635 M 661.913942,514.888774 l 1.566298,0.109526 M 658.158593,514.626174 l -126.784085,-8.865607 M 514.341601,504.569511 l 16.128764,1.127833 M 510.945311,504.332019 l -7.937199,-0.555023 M 569.741205,512.453196 l 90.156980,6.304390 M 565.654380,512.167417 l -11.084724,-0.775119 M 513.340143,508.509249 l 39.788263,2.782266 M 495.214543,507.241784 l -1.713886,-0.119847 M 574.946348,516.826943 l 86.606463,6.056114 M 568.591416,516.382562 l -53.216108,-3.721233 M 489.206998,510.831463 l 8.329612,0.582463 M 663.643216,527.038999 l -86.359066,-6.038814 M 555.809607,519.498539 l 16.411501,1.147604 M 542.474145,518.566032 l -7.455788,-0.521360 M 519.071131,516.929534 l 13.615981,0.952122 M 499.188319,515.539193 l -8.993695,-0.628900 M 656.882976,530.576045 l 9.976002,0.697590 M 651.328901,530.187666 l -93.374736,-6.529398 M 523.572609,521.254076 l 19.411301,1.357370 M 500.839548,519.664425 l -9.213044,-0.644239 M 661.981562,534.942340 l 7.179417,0.502034 M 656.446875,534.555317 l -22.342822,-1.562362 M 559.995764,527.810799 l 70.010178,4.895589 M 524.067295,525.298435 l -0.618134,-0.043224 M 507.450704,524.136490 l 8.038294,0.562092 M 502.488161,523.789475 l -9.452702,-0.660997 M 666.952318,539.299697 l 3.688291,0.257910 M 660.600428,538.855530 l -23.551766,-1.646900 M 580.099405,533.226350 l 52.357584,3.661199 M 577.232807,533.025898 l -9.104013,-0.636615 M 548.117041,530.989925 l 9.698435,0.678181 M 532.184476,529.875812 l -8.544584,-0.597495 M 506.522759,528.081369 l 15.329340,1.071932 M 504.211660,527.919762 l -9.767247,-0.682992 M 583.177233,537.451340 l 77.861928,5.444636 M 579.416989,537.188398 l -18.589277,-1.299889 M 495.853367,531.345061 l 52.234131,3.652566 M 667.744842,547.374651 l -15.705677,-1.098248 M 628.150114,544.605918 l 19.307321,1.350099 M 620.933001,544.101248 l -34.971677,-2.445458 M 564.176078,540.132417 l 19.947965,1.394898 M 554.001449,539.420938 l -44.170912,-3.088731 M 497.262322,535.453352 l 6.399868,0.447522 M 672.548807,551.720344 l -17.776544,-1.243057 M 632.397559,548.912696 l 15.261120,1.067161 M 627.553359,548.573956 l -57.795095,-4.041427 M 510.961712,540.421074 l 48.699031,3.405368 M 502.339204,539.818130 l -3.585751,-0.250740 M 655.222015,554.518505 l 21.337411,1.492057 M 648.370753,554.039418 l -5.505125,-0.384956 M 575.499387,548.943756 l 64.734831,4.526700 M 567.100204,548.356427 l -55.219538,-3.861326 M 500.260504,543.682540 l 2.682075,0.187549 M 680.361407,560.286190 l -26.948420,-1.884417 M 644.833025,557.801803 l 2.844354,0.198897 M 641.015417,557.534850 l -61.505761,-4.300902 M 514.007252,548.653574 l 58.192813,4.069238 M 683.738946,564.532138 l -10.814808,-0.756245 M 652.263947,562.331192 l 19.094678,1.335230 M 646.645419,561.938306 l -4.546401,-0.317915 M 582.449226,557.449271 l 55.964293,3.913405 M 576.764162,557.051732 l -69.796439,-4.880642 M 676.715179,568.050756 l 9.716818,0.679466 M 673.959715,567.858075 l -22.338269,-1.562044 M 584.321638,561.589970 l 63.542424,4.443319 M 581.457037,561.389658 l -77.370132,-5.410247 M 512.929603,560.607520 l 174.754705,12.220039 M 341.650572,548.630524 l -6.921174,-0.483976 M 530.170232,565.822870 l 163.145266,11.408228 M 526.171988,565.543286 l -8.664952,-0.605912 M 506.421002,564.162162 l 6.337794,0.443182 M 502.295781,563.873699 l -2.495184,-0.174480 M 354.667338,553.550512 l 6.194937,0.433192 M 701.439186,581.808930 l -26.919225,-1.882376 M 506.968218,568.210195 l 167.489864,11.712032 M 504.624617,568.046314 l -4.925033,-0.344392 M 418.835188,562.047333 l 6.836808,0.478076 M 406.044023,561.152888 l -28.027671,-1.959886 M 367.582225,558.463377 l 2.665963,0.186422 M 706.989646,586.206823 l -207.178726,-14.487348 M 456.770432,568.709791 l 20.248872,1.415939 M 452.909215,568.439789 l -10.141457,-0.709160 M 429.773454,566.821979 l 5.845810,0.408779 M 423.352249,566.372964 l -20.080821,-1.404188 M 371.691649,562.760503 l 28.546144,1.996141 M 368.849957,562.561793 l -2.425736,-0.169624 M 300.085052,557.753282 l 59.344671,4.149784 M 719.355334,591.081284 l -273.650183,-19.135485 M 425.454080,570.529706 l 11.670151,0.816056 M 421.202870,570.232433 l -21.032318,-1.470723 M 369.395300,566.609695 l 28.696416,2.006649 M 367.852523,566.501813 l -59.502540,-4.160823 M 568.184472,584.520155 l 153.454747,10.730601 M 565.180683,584.310110 l -241.052532,-16.856035 M 570.239873,588.673650 l 152.583877,10.669704 M 565.254162,588.325016 l -225.349294,-15.757958 M 355.681585,577.680041 l 367.266938,25.681806 M 718.891143,607.087895 l -347.432840,-24.294871 M 387.138460,587.899255 l 334.221659,23.371055 M 724.674065,615.511812 l -321.907730,-22.509981 M 731.209345,619.978570 l 4.244119,0.296778 M 723.916725,619.468621 l -13.450603,-0.940558 M 418.394211,598.104405 l 287.533616,20.106309 M 739.303642,624.554346 l -2.208252,-0.154416 M 709.545518,622.473456 l 19.763196,1.381977 M 702.053201,621.949542 l -26.509912,-1.853754 M 434.564874,603.244936 l 236.313998,16.524684 M 693.394107,625.353807 l -11.089191,-0.775432 M 662.020413,623.159944 l 2.636558,0.184366 M 646.982932,622.108421 l -195.812202,-13.692523 M 469.777281,613.726762 l 174.330063,12.190346 M 640.985733,629.708591 l -149.733739,-10.470403 M 515.302432,624.929726 l 120.659851,8.437359 M 626.140922,636.690076 l -97.683601,-6.830703 M 593.559491,638.421528 l 20.963839,1.465934 M 591.450987,638.274087 l -8.807869,-0.615906 M 530.948142,634.043316 l 24.426955,1.708099 M 552.487511,639.559263 l -19.268901,-1.347413 M 534.846502,642.335451 l 14.033127,0.981292 M 543.666037,646.961941 l -6.125242,-0.428319"
       id="path11" />
  </g>
  <g
     inkscape:label="fill-6c6c6c"
     inkscape:groupmode="layer"
     id="fill-6c6c6c">
    <path
       style="stroke:#6c6c6c"
       d="M 472.108496,302.665231 l -3.750615,-0.130974 M 471.478253,307.646270 l 23.018061,0.803808 M 509.329178,313.971102 l -33.222303,-1.160148 M 482.202272,318.026857 l 34.265373,1.196573 M 521.812462,324.413123 l -33.514794,-1.170362 M 494.393065,328.458664 l 35.397066,1.236093 M 535.706405,334.904406 l -34.643353,-1.209773 M 508.274645,338.949515 l 32.358451,1.129982 M 545.331181,345.246606 l -30.187394,-1.054167 M 530.980720,349.748524 l 19.421282,0.678206 M 525.366505,349.552471 l -7.278679,-0.254177 M 533.259810,354.831159 l 21.726285,0.758699 M 559.365974,360.745854 l -5.552325,-0.193891 M 540.643821,360.092063 l 11.565828,0.403888 M 537.434985,359.980008 l -4.914077,-0.171603 M 547.573455,365.337098 l 14.477800,0.505576 M 566.749394,371.009785 l -17.148476,-0.598838 M 553.417427,375.547270 l 18.404107,0.642686 M 576.465858,381.355186 l -18.894075,-0.659796 M 427.141535,376.140666 l 2.368639,0.082715 M 580.463187,386.497824 l -16.016259,-0.559300 M 558.352520,385.725703 l 2.792981,0.097533 M 434.520315,381.401387 l -4.028664,-0.140684 M 569.813330,391.128971 l 14.709209,0.513657 M 439.501946,386.578397 l -6.982243,-0.243825 M 574.564565,396.297935 l 14.220098,0.496577 M 444.483577,391.755407 l -18.182906,-0.634961 M 578.996332,401.455743 l 14.034520,0.490096 M 449.465208,396.932417 l -5.530069,-0.193114 M 429.000531,396.217775 l 9.287887,0.324340 M 597.096754,407.090872 l -14.115042,-0.492908 M 452.321636,402.035213 l 2.078038,0.072567 M 444.412964,401.759036 l -9.295134,-0.324593 M 594.327776,411.997225 l 6.686881,0.233511 M 459.319179,407.282621 l -0.678170,-0.023682 M 440.515856,406.625994 l 10.250045,0.357939 M 604.676283,417.361650 l -18.316027,-0.639610 M 445.839086,411.814933 l 11.236862,0.392400 M 437.129682,411.510794 l -28.974085,-1.011797 M 585.684441,421.701488 l 22.559887,0.787809 M 462.829096,417.411285 l -9.944323,-0.347263 M 403.406146,415.336190 l 42.892957,1.497855 M 611.632149,427.610650 l -27.040038,-0.944259 M 468.173701,422.600971 l 8.720887,0.304540 M 455.805676,422.169070 l -49.658594,-1.734116 M 393.097893,419.979266 l 3.599354,0.125692 M 614.825258,432.725203 l -35.445316,-1.237778 M 473.851665,427.802297 l 9.551223,0.333536 M 463.480119,427.440115 l -52.837571,-1.845129 M 390.818139,424.902702 l 3.943291,0.137703 M 617.859757,437.834218 l -36.066145,-1.259458 M 481.108049,433.058743 l 8.236910,0.287639 M 470.107325,432.674590 l -59.577480,-2.080491 M 394.397737,430.030753 l 11.055783,0.386076 M 620.620451,442.933672 l -35.303952,-1.232841 M 568.791871,441.123778 l 3.126504,0.109180 M 494.912642,438.543858 l -7.433357,-0.259579 M 401.355787,435.276781 l 75.629262,2.641032 M 622.893641,448.016101 l -34.148442,-1.192490 M 552.545444,445.559488 l 28.028999,0.978794 M 500.402115,443.738602 l -6.827448,-0.238420 M 409.431133,440.561826 l 75.743503,2.645021 M 399.770587,440.224472 l -36.271699,-1.266636 M 625.766918,453.119486 l 3.446913,0.120369 M 624.194302,453.064569 l -69.726462,-2.434902 M 499.314177,448.703659 l 14.118946,0.493044 M 494.210358,448.525429 l -128.093156,-4.473112 M 628.426166,458.215396 l 4.077603,0.142393 M 625.957120,458.129175 l -66.998598,-2.339643 M 547.400578,455.385920 l 8.521778,0.297587 M 524.092980,454.572001 l -21.421585,-0.748058 M 377.575637,449.455503 l 124.927078,4.362550 M 635.862418,463.478124 l -4.216050,-0.147228 M 563.652448,460.956496 l 64.912011,2.266777 M 560.459994,460.845013 l -6.701742,-0.234030 M 395.052810,455.068867 l 138.608633,4.840320 M 638.957679,468.589260 l -4.523792,-0.157974 M 561.045387,465.868503 l 69.998305,2.444395 M 543.601759,465.259358 l -132.314742,-4.620533 M 563.757909,470.966274 l 78.040792,2.725245 M 554.889152,470.656570 l -64.801630,-2.262923 M 423.086691,466.053927 l 60.070257,2.097700 M 644.639722,478.793777 l -75.752744,-2.645344 M 492.880756,473.494237 l 74.905893,2.615771 M 492.552644,473.482779 l -56.072078,-1.958080 M 638.890672,483.596063 l 8.572063,0.299343 M 638.102080,483.568525 l -17.989336,-0.628201 M 581.261012,481.583591 l 38.826221,1.355842 M 574.211238,481.337408 l -123.359327,-4.307803 M 462.242641,482.430426 l 188.012655,6.565547 M 653.168799,494.100762 l -69.293350,-2.419777 M 570.088633,491.199539 l 9.104752,0.317945 M 569.421446,491.176240 l -98.581101,-3.442528 M 479.293687,493.031957 l 177.261201,6.190098 M 659.792557,504.338164 l -132.853205,-4.639336 M 489.273901,498.383522 l 35.774409,1.249270 M 662.238081,509.426612 l -161.861323,-5.652322 M 506.250076,508.982438 l 158.113744,5.521454 M 498.686361,508.718307 l -9.640703,-0.336661 M 515.516438,514.309074 l 150.773704,5.265134 M 500.459925,513.783289 l -11.623471,-0.405901 M 555.099996,520.694410 l 112.685445,3.935062 M 543.408243,520.286125 l -22.997420,-0.803088 M 490.440605,518.436455 l 11.552285,0.403415 M 668.913813,529.671924 l -111.739176,-3.902018 M 530.533927,524.839592 l 16.329562,0.570241 M 527.100247,524.719685 l -21.917821,-0.765387 M 492.217568,523.501555 l 11.784717,0.411531 M 669.896164,534.709276 l -106.255097,-3.710510 M 545.382684,530.361170 l 11.467455,0.400452 M 535.561314,530.018200 l -41.566783,-1.451544 M 495.771493,533.631757 l 174.854722,6.106061 M 669.236775,544.692345 l -20.071290,-0.700905 M 622.883993,543.073671 l 25.375248,0.886123 M 621.169591,543.013802 l -57.325028,-2.001834 M 509.598481,539.117653 l 48.845374,1.705718 M 503.112781,538.891168 l -5.547356,-0.193718 M 653.414109,549.142853 l 19.421153,0.678202 M 648.455950,548.969711 l -17.954959,-0.627001 M 507.640274,544.052319 l 120.800300,4.218439 M 504.425488,543.940056 l -5.053883,-0.176485 M 654.619759,554.188003 l 22.499836,0.785712 M 649.153899,553.997131 l -72.427360,-2.529219 M 507.469551,549.049405 l 66.899006,2.336165 M 681.208150,560.119538 l -28.914911,-1.009731 M 580.763372,556.611929 l 68.232218,2.382722 M 577.740404,556.506365 l -75.388706,-2.632632 M 333.319747,547.971007 l 18.567137,0.648379 M 685.674494,565.278554 l -34.439098,-1.202640 M 506.104141,559.007819 l 142.229177,4.966752 M 368.786885,554.212595 l -16.003103,-0.558841 M 504.350831,563.949640 l 183.726923,6.415886 M 503.350895,563.914721 l -4.940555,-0.172528 M 365.810388,559.111701 l 66.163179,2.310469 M 339.240020,558.183843 l -38.788626,-1.354529 M 693.814047,575.568889 l 1.715080,0.059892 M 691.726308,575.495984 l -193.462239,-6.755850 M 441.063433,566.742643 l 33.855973,1.182277 M 437.325813,566.612122 l -131.385961,-4.588099 M 323.293630,567.633079 l 385.758248,13.470975 M 715.937677,586.347559 l -375.013522,-13.095761 M 357.779573,578.843450 l 363.059312,12.678311 M 723.460485,596.616356 l -349.049986,-12.189094 M 391.664598,590.032836 l 332.878866,11.624386 M 725.050020,606.677960 l -316.014621,-11.035474 M 426.900541,601.269398 l 298.364804,10.419129 M 732.281692,616.936591 l -2.166507,-0.075656 M 445.108538,606.908283 l 280.404076,9.791926 M 738.963143,622.172960 l -30.734242,-1.073263 M 463.738674,612.561909 l 241.059308,8.417977 M 694.652727,625.628654 l -14.014830,-0.489409 M 656.750253,624.305070 l 15.790080,0.551402 M 647.006020,623.964794 l -161.257546,-5.631238 M 509.869908,624.178943 l 132.875598,4.640118 M 637.484704,633.638398 l -109.552307,-3.825651 M 562.653115,636.028269 l 59.724407,2.085622 M 557.266682,635.840170 l -26.952388,-0.941198 M 532.568361,639.980734 l 20.259521,0.707478 M 548.171672,645.528661 l -13.673324,-0.477483"
       id="path14" />
  </g>
  <g
     inkscape:label="fill-8e8e8e"
     inkscape:groupmode="layer"
     id="fill-8e8e8e">
    <path
       style="stroke:#8e8e8e"
       d="M 468.833626,300.603196 l -2.500578,0.043648 M 469.768282,306.587795 l 20.461583,-0.357158 M 507.261350,311.934265 l -32.815382,0.572795 M 480.949922,318.394447 l 34.724291,-0.606115 M 522.933470,323.662535 l -35.064387,0.612051 M 494.953629,330.151839 l 35.276140,-0.615747 M 536.987018,335.419058 l -34.307231,0.598835 M 510.280752,341.886131 l 32.669168,-0.570242 M 548.614050,347.217935 l -33.014244,0.576266 M 527.179898,353.592984 l 27.063467,-0.472395 M 559.399604,359.031501 l -27.264971,0.475912 M 546.306113,365.260962 l 18.249730,-0.318550 M 569.565214,370.855887 l -20.439825,0.356778 M 423.636983,373.403074 l 3.417327,-0.059650 M 574.284749,376.774421 l -20.725154,0.361759 M 427.898765,379.329598 l 5.172832,-0.090292 M 578.664220,382.698891 l -21.686491,0.378539 M 430.699975,385.281617 l 8.388909,-0.146429 M 583.211454,388.620433 l -17.316827,0.302266 M 559.735736,389.030203 l 3.051844,-0.053270 M 445.106172,391.031070 l -19.526831,0.340842 M 570.099213,394.850222 l 18.055599,-0.315162 M 451.116475,396.927073 l -21.353136,0.372720 M 575.530755,400.756328 l 17.613054,-0.307437 M 457.125138,402.823106 l -5.933365,0.103567 M 435.242501,403.205069 l 12.962322,-0.226258 M 597.913957,406.366542 l -17.142233,0.299219 M 457.999245,408.808762 l 5.169945,-0.090242 M 455.291178,408.856032 l -14.426853,0.251822 M 406.976825,409.699362 l 24.316256,-0.424442 M 602.462738,412.288056 l -18.195888,0.317610 M 464.666407,414.693300 l 4.846757,-0.084600 M 462.386032,414.733104 l -16.085402,0.280772 M 398.224100,415.853055 l 47.842413,-0.835092 M 606.637337,418.216103 l -21.705312,0.378868 M 405.622259,421.724834 l 70.234878,-1.225954 M 401.201751,421.801994 l -14.887995,0.259871 M 584.023621,424.611740 l 26.647955,-0.465142 M 482.592226,426.382232 l -12.490876,0.218029 M 409.881763,427.651398 l 54.869686,-0.957754 M 405.055464,427.735641 l -14.798565,0.258310 M 576.279882,430.747822 l 38.070370,-0.664521 M 489.418449,432.263994 l -10.389496,0.181349 M 397.195716,433.873748 l 75.979068,-1.326220 M 382.036524,434.138352 l -13.723347,0.239542 M 578.996229,436.701322 l 39.046210,-0.681554 M 496.958262,438.133300 l -10.192532,0.177911 M 361.273563,440.501685 l 119.220074,-2.080994 M 621.968244,441.952156 l -68.925961,1.203107 M 493.834317,444.188742 l 11.793256,-0.205852 M 489.434988,444.265533 l -121.506364,2.120901 M 550.585916,449.199054 l 75.841974,-1.323827 M 516.308568,449.797367 l -16.829873,0.293767 M 382.608349,452.131113 l 114.837817,-2.004502 M 630.609670,453.803148 l -84.030454,1.466757 M 400.928232,457.812252 l 126.148343,-2.201928 M 634.527547,459.735675 l -72.244765,1.261037 M 553.678942,461.146893 l 8.591068,-0.149958 M 537.700964,461.425789 l -122.627675,2.140474 M 561.174888,467.016964 l 77.002525,-1.344084 M 548.891206,467.231377 l -120.186124,2.097857 M 563.859088,472.971025 l 77.927894,-1.360236 M 561.535003,473.011592 l -117.793823,2.056099 M 575.238120,478.773318 l 69.887400,-1.219889 M 571.776508,478.833740 l -114.667092,2.001522 M 467.982060,486.646393 l 180.451517,-3.149793 M 651.826836,489.438284 l -174.496821,3.045853 M 487.735033,498.303432 l 167.485111,-2.923463 M 658.614950,501.321625 l -159.917730,2.791374 M 505.693762,509.991789 l 156.116577,-2.725025 M 501.737707,510.060842 l -14.476256,0.252684 M 515.622150,515.819402 l 148.803026,-2.597366 M 504.478470,516.013916 l -15.590381,0.272131 M 552.223203,521.181442 l 114.624673,-2.000781 M 546.012737,521.289846 l -55.058084,0.961042 M 557.358968,527.092711 l 111.235841,-1.941629 M 550.028270,527.220669 l -57.007052,0.995062 M 495.133687,534.179771 l 175.061846,-3.055716 M 671.245207,537.106647 l -173.924733,3.035868 M 506.835774,545.977339 l 165.395028,-2.886981 M 504.953672,546.010191 l -4.908838,0.085684 M 333.313993,549.006173 l 25.470188,-0.444584 M 674.295016,549.055241 l -21.459930,0.374584 M 503.227480,552.041236 l 146.515121,-2.557431 M 380.358525,554.185921 l -6.838378,0.119364 M 352.257316,554.676430 l 18.788860,-0.327961 M 326.054388,555.133803 l -26.170910,0.456815 M 653.354990,555.421664 l 24.586559,-0.429160 M 650.823734,555.465847 l -150.576583,2.628324 M 303.423373,561.529743 l 130.496922,-2.277832 M 682.709722,560.910189 l -185.016232,3.229470 M 320.243863,567.237054 l 148.451576,-2.591232 M 687.330016,566.830456 l -190.901454,3.332197 M 337.755321,572.932305 l 154.866116,-2.703198 M 689.552786,572.792571 l -334.286008,5.834984 M 372.770421,584.322942 l 333.270057,-5.817250 M 714.319321,584.362098 l -324.213270,5.659164 M 407.441680,595.719581 l 313.093395,-5.465066 M 724.254931,596.190499 l -299.075100,5.220375 M 444.307601,607.077912 l 281.670328,-4.916574 M 726.939680,608.145464 l -263.157923,4.593439 M 484.025811,618.386456 l 246.252638,-4.298356 M 737.507345,619.962833 l -230.512312,4.023607 M 730.914656,626.078823 l 11.833189,-0.206549 M 670.651408,627.130722 l -13.635776,0.238013 M 526.954638,629.638958 l 117.922263,-2.058341 M 639.011660,633.683909 l -109.120907,1.904713 M 583.466498,640.654368 l 34.789939,-0.607261 M 553.022130,641.185776 l -20.677783,0.360932 M 535.294817,647.496122 l 10.961975,-0.191342"
       id="path17" />
  </g>
  <g
     inkscape:label="fill-aeaeae"
     inkscape:groupmode="layer"
     id="fill-aeaeae">
    <path
       style="stroke:#aeaeae"
       d="M 485.207013,303.801272 l -17.796820,0.932692 M 471.513945,311.528501 l 32.754027,-1.716566 M 514.620218,316.279004 l -35.349020,1.852564 M 487.215368,324.724838 l 35.251728,-1.847465 M 531.214959,329.428523 l -36.007371,1.887066 M 503.699600,337.880148 l 34.731558,-1.820204 M 545.338639,342.707545 l -33.172148,1.738479 M 516.864780,351.209403 l 34.855723,-1.826711 M 557.817429,356.072772 l -30.016489,1.573098 M 416.319928,363.488342 l 2.488175,-0.130400 M 563.767328,362.770558 l -28.777221,1.508150 M 420.022552,370.303902 l 5.592273,-0.293079 M 569.320727,369.489123 l -21.763363,1.140570 M 425.456394,377.028733 l 6.580285,-0.344858 M 574.661758,376.218818 l -24.061094,1.260989 M 429.308078,383.836481 l 9.136402,-0.478819 M 423.230165,384.155011 l -0.379594,0.019894 M 556.247489,384.193475 l 23.390726,-1.225856 M 444.819181,390.033185 l -20.067955,1.051717 M 561.700545,390.917299 l 23.148868,-1.213181 M 451.387457,396.698563 l -21.938025,1.149723 M 570.485002,397.466532 l 20.046182,-1.050576 M 458.099851,403.356388 l -22.560521,1.182347 M 576.803954,404.144976 l 19.377751,-1.015545 M 465.148331,409.996599 l -66.486060,3.484387 M 581.963677,410.884173 l 19.427121,-1.018132 M 472.382491,416.627079 l -92.047099,4.823984 M 583.976147,417.788310 l 22.335418,-1.170550 M 479.867752,423.244400 l -15.784065,0.827208 M 408.507494,426.984232 l 53.249862,-2.790707 M 406.069594,427.111997 l -18.036770,0.945267 M 582.947257,424.851838 l 28.100920,-1.472707 M 487.842343,429.836076 l -91.842353,4.813254 M 363.401225,436.357758 l 28.810465,-1.509893 M 615.412322,430.160023 l -43.668886,2.288589 M 484.283527,437.032192 l 12.023343,-0.630117 M 480.521915,437.229329 l -117.334255,6.149228 M 572.283136,439.429934 l 47.501878,-2.489468 M 571.843822,439.452957 l -7.671308,0.402036 M 491.041324,443.687637 l 14.550448,-0.762557 M 490.999281,443.689840 l -117.104379,6.137180 M 550.498060,447.581248 l 73.821266,-3.868809 M 516.700167,449.352520 l -125.210286,6.561993 M 545.489108,454.853362 l 83.649118,-4.383864 M 528.814095,455.727263 l -119.948040,6.286210 M 553.078920,461.465204 l 80.628291,-4.225550 M 540.400684,462.129642 l -116.638585,6.112769 M 561.277375,468.045147 l 76.725015,-4.020988 M 552.698300,468.494757 l -112.665303,5.904538 M 455.059608,480.621391 l 187.046127,-9.802672 M 645.928642,477.627975 l -178.618857,9.361018 M 478.110471,493.432559 l 171.613771,-8.993897 M 653.664527,491.241767 l -164.223167,8.606571 M 488.870581,506.887858 l 168.847038,-8.848898 M 661.441690,504.853396 l -174.061205,9.122161 M 489.686680,520.864301 l 174.919649,-9.167150 M 667.218287,518.569871 l -175.064790,9.174757 M 494.620313,534.624953 l 174.751152,-9.158320 M 671.083758,532.386503 l -173.876296,9.112471 M 333.931926,550.055881 l 28.293312,-1.482790 M 672.345871,539.329965 l -171.717554,8.999336 M 353.662992,556.031427 l 32.576551,-1.707265 M 337.440933,556.881589 l -39.568101,2.073676 M 500.672871,555.336572 l 173.246611,-9.079470 M 436.394218,558.705273 l -124.133531,6.505563 M 652.822554,554.372351 l 24.701233,-1.294537 M 650.755938,554.480658 l -153.804434,8.060549 M 330.857421,571.245829 l 142.984259,-7.493487 M 682.616123,559.820543 l -333.161969,17.460279 M 368.050888,583.315815 l 319.782472,-16.759089 M 696.313008,573.121932 l -309.725961,16.232050 M 405.121709,595.392228 l 304.279995,-15.946639 M 717.164924,586.048342 l -293.173101,15.364551 M 443.228225,607.414363 l 279.680685,-14.657444 M 726.065136,599.601115 l -262.420279,13.752864 M 485.577084,619.214166 l 242.233054,-12.694896 M 730.825668,613.370839 l -222.033315,11.636273 M 652.429162,624.489032 l 86.484861,-4.532480 M 647.636723,624.740193 l -120.511385,6.315734 M 734.398255,627.202820 l 10.193662,-0.534227 M 642.429461,632.022701 l -83.220762,4.361415 M 530.155394,637.906735 l 28.236244,-1.479799 M 619.512791,640.233319 l -32.291915,1.692348 M 533.108920,644.761554 l 18.402325,-0.964425"
       id="path20" />
  </g>
  <g
     inkscape:label="fill-cfcfcf"
     inkscape:groupmode="layer"
     id="fill-cfcfcf">
    <path
       style="stroke:#cfcfcf"
       d="M 486.222722,303.072652 l -20.550108,2.159903 M 471.388490,312.675859 l 34.141461,-3.588412 M 515.827265,316.049222 l -36.382701,3.823976 M 487.988699,327.019239 l 36.815285,-3.869442 M 533.554613,330.274135 l -36.762206,3.863864 M 506.276400,341.185257 l 35.236507,-3.703506 M 548.661036,344.774518 l -36.056037,3.789642 M 520.018302,355.829057 l 35.501749,-3.731384 M 423.171882,366.008026 l -7.125637,0.748935 M 532.292611,362.583042 l 30.066237,-3.160089 M 430.382769,373.294198 l -8.626537,0.906686 M 540.972450,369.714820 l 27.815299,-2.923506 M 437.495688,380.590666 l -10.641495,1.118466 M 419.199568,382.513666 l 3.404576,-0.357835 M 574.533919,374.231434 l -26.218253,2.755649 M 422.741243,390.185487 l 21.867364,-2.298353 M 580.227172,381.677115 l -25.236335,2.652446 M 428.110298,397.665243 l 23.611228,-2.481640 M 585.965841,389.118023 l -24.958368,2.623230 M 434.705374,405.016138 l 24.294768,-2.553483 M 424.837946,406.053247 l -21.269917,2.235558 M 569.710270,398.870618 l 22.352055,-2.349296 M 466.413520,409.727544 l -86.936166,9.137359 M 576.533529,406.197531 l 21.588169,-2.269008 M 474.097853,416.963955 l -90.693612,9.532283 M 581.846028,413.683231 l 21.949198,-2.306954 M 482.216391,424.154728 l -121.373063,12.756823 M 582.919703,421.614450 l 26.226310,-2.756496 M 490.958452,431.279967 l -128.439574,13.499543 M 569.525305,431.066324 l 44.674548,-4.695484 M 500.701097,438.300040 l -125.349427,13.174756 M 553.672146,440.776624 l 65.406748,-6.874526 M 511.564993,445.202264 l -118.692532,12.475088 M 547.013268,449.520567 l 77.099357,-8.103469 M 523.720589,451.968726 l -113.948576,11.976478 M 545.565231,457.716828 l 83.813252,-8.809128 M 535.861078,458.736775 l -110.119871,11.574065 M 556.365303,464.625761 l 78.058975,-8.204329 M 548.584304,465.443577 l -106.155969,11.157442 M 457.420761,483.069317 l 181.788957,-19.106789 M 643.765702,471.527741 l -173.592625,18.245320 M 481.588699,496.617297 l 166.418873,-17.491328 M 652.177423,486.731766 l -157.841761,16.589838 M 485.675549,512.275884 l 171.065901,-17.979751 M 661.160529,501.875736 l -172.855148,18.167808 M 490.978092,527.806697 l 174.012247,-18.289424 M 349.001858,542.729001 l -4.071239,0.427905 M 330.451839,544.678686 l 6.545564,-0.687966 M 667.965903,517.248595 l -174.296716,18.319323 M 335.718099,552.169246 l 33.997344,-3.573265 M 324.924022,553.303750 l -29.690098,3.120555 M 496.373766,543.327722 l 173.947780,-18.282648 M 396.563790,553.818173 l -91.774056,9.645842 M 499.624979,551.030072 l 172.416151,-18.121668 M 443.465851,556.932634 l -120.297910,12.643820 M 497.396275,559.308384 l 176.308336,-18.530753 M 487.956769,560.300516 l -2.747609,0.288785 M 342.138182,575.626667 l 135.496495,-14.241255 M 676.290136,548.549948 l -315.645441,33.175673 M 379.104005,587.829535 l 301.990065,-31.740435 M 687.206965,563.490675 l -289.643651,30.442774 M 416.579584,599.978825 l 277.949472,-29.213667 M 708.465253,577.344472 l -272.511638,28.642127 M 456.078655,611.915438 l 261.365417,-27.470612 M 723.735035,591.827685 l -246.827162,25.942580 M 499.379542,623.452464 l 228.074715,-23.971619 M 729.007100,607.361702 l -206.953408,21.751680 M 528.437193,636.486514 l 205.970879,-21.648412 M 742.296554,622.053056 l -59.006791,6.201864 M 655.711019,631.153563 l 21.992718,-2.311528 M 643.601501,632.426324 l -71.293067,7.493203 M 531.657116,644.192153 l 23.648149,-2.485521 M 744.396903,629.876367 l -0.280360,0.029467 M 604.497895,644.580345 l 8.084506,-0.849716"
       id="path23" />
  </g>
</svg>
