<?xml version="1.0" encoding="UTF-8" standalone="no"?>
<!-- Created with Inkscape (http://www.inkscape.org/) -->

<svg
   xmlns:dc="http://purl.org/dc/elements/1.1/"
   xmlns:cc="http://creativecommons.org/ns#"
   xmlns:rdf="http://www.w3.org/1999/02/22-rdf-syntax-ns#"
   xmlns:svg="http://www.w3.org/2000/svg"
   xmlns="http://www.w3.org/2000/svg"
   xmlns:sodipodi="http://sodipodi.sourceforge.net/DTD/sodipodi-0.dtd"
   xmlns:inkscape="http://www.inkscape.org/namespaces/inkscape"
   id="svg2"
   version="1.1"
   inkscape:version="0.48.3.1 r9886"
   width="753"
   height="759"
   sodipodi:docname="hantologie-_0006_petit1_hatched_1398276875.svg">
  <defs
     id="defs27" />
  <sodipodi:namedview
     pagecolor="#ffffff"
     bordercolor="#666666"
     borderopacity="1"
     objecttolerance="10"
     gridtolerance="10"
     guidetolerance="10"
     inkscape:pageopacity="0"
     inkscape:pageshadow="2"
     inkscape:window-width="640"
     inkscape:window-height="480"
     id="namedview25" />
  <metadata
     id="metadata8">
    <rdf:RDF>
      <cc:Work
         rdf:about="">
        <dc:format>image/svg+xml </dc:format>
        <dc:type
           rdf:resource="http://purl.org/dc/dcmitype/StillImage" />
        <dc:title />
      </cc:Work>
    </rdf:RDF>
  </metadata>
  <g
     inkscape:label="fill-111111"
     inkscape:groupmode="layer"
     id="fill-111111">
    <path
       style="stroke:#111111"
       d="M 405.954706,161.961020 l -22.226767,3.919179 M 375.085890,172.481158 l 43.972157,-7.753478 M 433.127999,167.323901 l -26.105695,4.603138 M 382.716095,176.212880 l 16.441464,-2.899074 M 455.351654,168.482404 l -3.688834,0.650441 M 428.641727,173.192085 l 13.464607,-2.374174 M 406.761717,177.050121 l -14.594773,2.573452 M 376.641492,182.361130 l 8.953512,-1.578746 M 447.242894,174.989331 l -11.018918,1.942932 M 397.376666,183.782092 l 6.407655,-1.129842 M 385.023746,185.960245 l -17.646053,3.111475 M 433.664635,182.460677 l 18.568714,-3.274165 M 425.382668,183.921011 l -14.300509,2.521566 M 387.850853,190.538883 l 15.382479,-2.712346 M 381.205674,191.710607 l -20.991754,3.701413 M 478.276956,179.671454 l 11.501487,-2.028022 M 454.776248,183.815263 l -21.250653,3.747063 M 414.551218,190.908021 l 10.988649,-1.937595 M 401.907814,193.137395 l -41.285733,7.279789 M 475.043309,185.318767 l 14.304103,-2.522199 M 457.194323,188.466024 l -13.610266,2.399857 M 433.102716,192.714025 l 4.421816,-0.779686 M 423.792233,194.355714 l -2.258283,0.398196 M 378.788438,202.291097 l 6.734358,-1.187449 M 373.358521,203.248538 l -16.668379,2.939085 M 461.730478,192.743311 l 5.284768,-0.931847 M 453.118908,194.261763 l -2.804664,0.494538 M 427.124522,198.845275 l 11.740614,-2.070187 M 393.621041,204.752842 l -3.626145,0.639387 M 354.522382,211.646991 l 5.738417,-1.011838 M 467.844288,196.742414 l -24.586007,4.335176 M 426.204880,204.084566 l 6.589835,-1.161966 M 414.202396,206.200927 l -12.797549,2.256553 M 385.697606,211.227091 l 2.468025,-0.435179 M 357.413313,216.214375 l -3.721712,0.656238 M 429.293745,208.617048 l 28.478385,-5.021508 M 426.228813,209.157478 l -23.971683,4.226855 M 374.542473,218.271175 l 17.138765,-3.022027 M 353.244727,222.026542 l -4.440809,0.783035 M 407.785696,217.486631 l 47.289933,-8.338491 M 406.198748,217.766452 l -11.375850,2.005869 M 367.568327,224.578038 l 23.232610,-4.096536 M 446.199501,215.790374 l -32.947923,5.809608 M 398.456533,224.208747 l 6.586604,-1.161396 M 395.627639,224.707557 l -18.958611,3.342915 M 359.727179,231.037777 l 16.776251,-2.958106 M 351.027262,232.571807 l -1.843546,0.325067 M 411.547431,226.977601 l 24.858417,-4.383210 M 402.872672,228.507195 l -5.333861,0.940504 M 372.522718,233.858711 l 8.642736,-1.523947 M 362.856342,235.563154 l -4.276783,0.754112 M 410.123041,232.305893 l 15.297934,-2.697438 M 404.956725,233.216854 l -19.305367,3.404057 M 360.841787,240.995508 l 5.682219,-1.001928 M 324.547439,247.395180 l -4.313426,0.760573 M 389.956078,240.939006 l 28.605165,-5.043862 M 329.889605,251.530345 l -6.694758,1.180466 M 440.827740,237.046092 l 1.711674,-0.301814 M 422.832502,240.219138 l -1.077594,0.190009 M 405.657415,243.247569 l 7.967394,-1.404867 M 395.690151,245.005067 l -10.077710,1.776972 M 364.691477,250.470970 l 2.379968,-0.419653 M 335.168385,255.676687 l -10.453012,1.843148 M 295.222813,262.720169 l 2.007887,-0.354045 M 441.165060,242.063747 l -2.059152,0.363084 M 432.983291,243.506413 l 2.992768,-0.527706 M 425.932445,244.749668 l -8.383421,1.478223 M 404.930608,248.452858 l 3.100128,-0.546636 M 394.681605,250.260034 l -7.144231,1.259721 M 341.233236,259.684423 l 0.181281,-0.031965 M 330.798925,261.524274 l -12.537515,2.210702 M 426.706178,249.690371 l 4.185563,-0.738028 M 424.006256,250.166440 l -9.472334,1.670228 M 384.493226,257.133653 l 12.565769,-2.215684 M 365.745893,260.439314 l -10.365603,1.827735 M 317.851348,268.884414 l 11.366799,-2.004273 M 425.579160,254.966227 l -11.689645,2.061200 M 340.407153,269.984350 l 30.298429,-5.342430 M 330.358736,271.756157 l -11.790765,2.079030 M 312.942467,274.827115 l 3.734430,-0.658481 M 431.085703,259.072408 l -12.028936,2.121026 M 413.293222,262.209703 l 4.336247,-0.764597 M 366.478027,270.464485 l -32.282648,5.692302 M 309.433025,280.523058 l 22.449978,-3.958537 M 301.385754,281.942009 l -2.002903,0.353166 M 441.005639,262.400389 l 2.358507,-0.415868 M 437.047903,263.098245 l -15.641522,2.758022 M 414.070959,267.149700 l 3.176097,-0.560032 M 385.636658,272.163434 l -8.088980,1.426305 M 305.686399,286.260822 l 48.711826,-8.589209 M 301.766792,286.951955 l -3.267786,0.576199 M 421.106308,270.986311 l 7.632461,-1.345809 M 418.869331,271.380751 l -3.779467,0.666422 M 387.336855,276.940777 l 5.516920,-0.972782 M 351.916531,283.186335 l -40.599308,7.158753 M 303.707532,291.686883 l 5.389070,-0.950238 M 302.793647,291.848025 l -4.768515,0.840818 M 416.117285,276.943143 l 3.630975,-0.640239 M 393.516976,280.928188 l -14.595963,2.573662 M 304.892218,296.555124 l 45.184153,-7.967185 M 303.071840,296.876106 l -4.951917,0.873157 M 416.757304,281.907424 l 2.925047,-0.515765 M 409.380628,283.208131 l -1.344907,0.237143 M 398.685426,285.093984 l 2.062933,-0.363751 M 390.569790,286.524989 l -12.837323,2.263566 M 371.407278,289.903857 l 3.481650,-0.613909 M 360.799744,291.774251 l -1.784265,0.314614 M 301.172934,302.288067 l 40.777146,-7.190111 M 294.808656,303.410261 l -1.266222,0.223269 M 413.627490,287.536428 l 5.515590,-0.972547 M 389.516273,291.787886 l -17.019539,3.001004 M 362.304282,296.586094 l 9.637338,-1.699323 M 362.218298,296.601255 l -5.555072,0.979509 M 306.302553,306.460710 l 22.513884,-3.969805 M 298.764035,307.789954 l -0.339688,0.059896 M 417.304320,291.965236 l 3.203933,-0.564940 M 399.504992,295.103738 l -4.135084,0.729127 M 370.491728,300.219559 l 18.558952,-3.272444 M 365.602561,301.081651 l -13.618911,2.401382 M 386.910281,302.401659 l 4.146902,-0.731211 M 381.619275,303.334606 l -17.781620,3.135379 M 352.006537,308.556130 l 3.186623,-0.561888 M 390.169939,306.904026 l -11.405747,2.011141 M 369.686187,310.515864 l 6.890946,-1.215060 M 453.451964,300.822831 l -3.351687,0.590993 M 374.149629,314.805972 l 19.040693,-3.357388 M 281.902432,356.457307 l -1.882338,0.331907 M 277.086626,362.383597 l 1.733851,-0.305725 M 275.339798,367.768742 l -0.754378,0.133017 M 311.435629,366.481207 l 5.185412,-0.914328 M 282.001200,376.748424 l -2.053260,0.362045 M 279.493778,382.267683 l 0.178028,-0.031391 M 334.505981,377.644680 l -8.900781,1.569448 M 325.670909,384.279675 l 16.179269,-2.852842 M 276.375903,392.971715 l -3.921886,0.691534 M 373.336860,380.952015 l 3.480507,-0.613707 M 342.596817,386.372314 l -14.175169,2.499465 M 265.593616,399.950056 l 9.101778,-1.604889 M 381.035722,384.671631 l -4.296263,0.757547 M 331.627069,393.383709 l 9.420429,-1.661076 M 273.101591,403.703330 l -8.882200,1.566172 M 380.577470,389.829566 l 4.421431,-0.779618 M 340.151177,396.957812 l -5.315266,0.937225 M 267.502279,409.767773 l 4.306647,-0.759378 M 388.980179,393.425075 l -4.332534,0.763943 M 337.861200,402.438730 l 3.353087,-0.591240 M 269.694347,414.458385 l -1.570921,0.276996 M 388.908789,398.514796 l 4.071128,-0.717850 M 342.781857,406.648218 l -2.016166,0.355504 M 393.253609,402.825820 l 3.726045,-0.657002 M 400.979391,406.540689 l -3.376327,0.595337 M 401.900393,411.455425 l 3.078736,-0.542864 M 408.978866,415.284432 l -2.905949,0.512397 M 410.245441,420.138234 l 2.733163,-0.481930 M 416.979076,424.028045 l -2.703226,0.476652 M 418.247566,428.881509 l 2.732568,-0.481825 M 424.981192,432.771322 l -2.964773,0.522769 M 425.634805,437.733206 l 2.995439,-0.528177 M 438.163217,450.755508 l -6.964362,1.228005 M 446.819505,454.306304 l 2.548195,-0.449316 M 443.189590,454.946356 l -7.606316,1.341199 M 441.579252,460.307435 l 13.297506,-2.344709 M 461.028806,461.955087 l -15.721649,2.772151 M 377.043049,476.764042 l 1.718877,-0.303084 M 464.831705,466.361666 l -16.678998,2.940957 M 462.259026,471.892432 l 5.247371,-0.925253 M 461.985401,471.940679 l -11.987748,2.113763 M 381.066735,486.208823 l 12.671078,-2.234253 M 467.957314,475.964803 l -16.996742,2.996984 M 393.629276,489.070842 l 5.966578,-1.052069 M 390.091795,489.694595 l -8.213471,1.448256 M 450.732827,484.079078 l 17.185850,-3.030329 M 404.270664,492.271611 l -17.829487,3.143820 M 448.718421,489.511405 l 18.287564,-3.224591 M 407.546220,496.771175 l -19.268126,3.397491 M 448.049744,494.706444 l 13.069902,-2.304576 M 408.787672,501.629407 l -0.273837,0.048285 M 388.623035,505.184976 l 12.194938,-2.150297 M 399.098920,508.414928 l -2.248793,0.396523"
       id="path5" />
  </g>
  <g
     inkscape:label="fill-2e2e2e"
     inkscape:groupmode="layer"
     id="fill-2e2e2e">
    <path
       style="stroke:#2e2e2e"
       d="M 394.237926,156.455060 l -8.956040,5.596355 M 375.598354,168.102357 l 0.746697,-0.466588 M 412.736241,153.150279 l -48.678397,30.417638 M 428.297063,151.681047 l 0.649260,-0.405703 M 419.383529,157.250841 l -61.705162,38.557665 M 353.551790,206.641326 l 72.623663,-45.380301 M 448.181300,155.764494 l -1.874464,1.171295 M 435.548799,163.658157 l 7.807914,-4.878926 M 433.292677,165.067938 l -14.869687,9.291612 M 348.263208,218.200247 l 58.210566,-36.373999 M 451.172088,162.149891 l -23.187431,14.489115 M 419.111640,182.183483 l 2.630510,-1.643725 M 418.425322,182.612342 l -8.088357,5.054166 M 376.434936,208.850847 l 28.213959,-17.630038 M 367.288879,214.565937 l -21.203774,13.249589 M 309.306949,250.797068 l 20.140717,-12.585317 M 303.956703,254.140273 l -6.111637,3.818974 M 430.985483,183.018130 l 26.056878,-16.282145 M 427.894020,184.949891 l -13.358676,8.347428 M 332.132475,244.788346 l 77.184874,-48.230462 M 329.723217,246.293817 l -13.104244,8.188441 M 431.013023,191.255171 l 21.752237,-13.592306 M 427.113010,193.692169 l -77.953311,48.710635 M 298.521533,274.045042 l 38.308975,-23.938104 M 289.537141,279.659113 l -2.456011,1.534686 M 354.154292,247.536084 l 101.782444,-63.600730 M 343.079423,254.456431 l -49.677485,31.041938 M 475.039756,180.252712 l 6.988545,-4.366927 M 464.012792,187.143124 l -22.305732,13.938168 M 288.991046,296.508849 l 151.674242,-94.776585 M 492.812256,177.401470 l -205.732806,128.556125 M 490.112304,187.342837 l 10.699648,-6.685882 M 459.094029,206.725206 l -84.583003,52.853326 M 293.477402,310.213960 l 79.029980,-49.383412 M 286.611627,314.504172 l -3.288274,2.054742 M 455.515664,217.215465 l 3.398872,-2.123851 M 450.002230,220.660641 l -146.627357,91.622941 M 405.937648,256.449497 l 53.870648,-33.662117 M 389.565956,266.679666 l -58.698543,36.678921 M 449.348866,237.577406 l 7.634688,-4.770682 M 446.513760,239.348977 l -35.326190,22.074253 M 341.314223,305.084944 l 54.758563,-34.216948 M 322.352210,316.933724 l -10.647658,6.653395 M 455.059881,242.263017 l 3.548073,-2.217082 M 442.027080,250.406815 l -3.760723,2.349961 M 332.621223,318.771182 l 99.619802,-62.249361 M 324.326664,323.954197 l -15.015514,9.382734 M 272.066446,356.610006 l 3.376859,-2.110096 M 461.460099,246.517965 l -2.115095,1.321658 M 361.114071,309.221123 l 86.652631,-54.146573 M 322.984202,333.047309 l -10.103425,6.313321 M 306.626581,343.268685 l 2.232940,-1.395296 M 293.652406,351.375850 l -3.748495,2.342319 M 276.264868,362.240789 l 6.385726,-3.990244 M 460.822495,255.170633 l -0.048199,0.030118 M 439.321003,268.606257 l 11.874602,-7.420075 M 428.920802,275.105024 l -22.648545,14.152382 M 359.009682,318.790340 l 45.975941,-28.728957 M 298.935326,356.328964 l -0.938762,0.586604 M 271.051702,373.752586 l 4.201688,-2.625506 M 427.690801,284.127862 l -14.408114,9.003189 M 399.869157,301.512755 l 5.631868,-3.519182 M 394.692700,304.747364 l -24.977833,15.607883 M 358.895181,327.116137 l 10.587537,-6.615827 M 346.712100,334.728971 l -3.470677,2.168719 M 278.676044,377.242617 l 5.089489,-3.180265 M 455.812157,274.809938 l -2.586497,1.616223 M 418.770005,297.956443 l 22.125753,-13.825705 M 392.700098,314.246729 l -4.101053,2.562622 M 306.705698,367.981994 l 6.127025,-3.828590 M 280.688327,384.239452 l -5.832763,3.644715 M 455.243468,283.419543 l 4.712053,-2.944418 M 443.986987,290.453373 l -19.163109,11.974439 M 263.401581,403.295658 l 13.588957,-8.491323 M 462.638528,287.052845 l -26.531662,16.578822 M 264.198508,411.051932 l 10.240494,-6.398971 M 461.287155,296.151525 l -15.648541,9.778294 M 321.940550,383.224948 l 11.254298,-7.032466 M 271.604214,414.678582 l -6.281543,3.925144 M 325.528751,389.237041 l 15.734608,-9.832074 M 269.069642,424.516607 l -5.745641,3.590275 M 330.255166,394.537898 l 13.367644,-8.353031 M 266.463502,434.399353 l -3.949200,2.467734 M 370.354383,377.735375 l 2.452779,-1.532667 M 341.314534,395.881486 l -6.313744,3.945265 M 259.213586,447.183852 l 4.347325,-2.716510 M 378.217032,381.076495 l -4.214068,2.633242 M 339.015628,405.572251 l 3.477992,-2.173291 M 261.566662,453.967736 l -4.172466,2.607246 M 378.832476,388.946171 l 4.272973,-2.670050 M 345.027691,410.069745 l -2.295599,1.434449 M 259.216201,463.690716 l 1.030693,-0.644049 M 387.983503,391.482224 l -4.223952,2.639418 M 346.318883,417.517168 l 1.310897,-0.819139 M 392.822464,396.712754 l -4.078511,2.548537 M 350.085898,423.417525 l 0.131152,-0.081953 M 397.645339,401.953336 l -3.926728,2.453692 M 398.647345,409.581462 l 3.820869,-2.387544 M 407.291089,412.434501 l -3.715009,2.321395 M 408.470284,419.951907 l 3.643680,-2.276824 M 416.936839,422.915665 l -3.672492,2.294828 M 418.058409,430.469079 l 3.657780,-2.285635 M 426.488310,433.455741 l -3.728995,2.330135 M 427.323215,441.188283 l 3.490805,-2.181297 M 377.826493,472.117267 l -1.571226,0.981811 M 430.763957,447.292518 l 2.655971,-1.659635 M 384.160675,476.413480 l -6.743312,4.213689 M 429.273371,456.478188 l 10.386356,-6.490116 M 391.210512,480.262502 l -11.540419,7.211254 M 439.282511,458.478032 l 9.403562,-5.875997 M 397.664834,484.483643 l -15.505579,9.688961 M 443.746266,463.943017 l 12.622683,-7.887528 M 402.946947,489.437261 l -18.140921,11.335705 M 447.627218,469.772178 l 13.908651,-8.691090 M 407.067826,495.116499 l -20.170640,12.604015 M 449.779038,476.681820 l 16.241012,-10.148510 M 410.260875,501.375509 l -2.070734,1.293938 M 396.836082,509.764251 l 3.186120,-1.990909 M 469.000000,472.925479 l -19.461434,12.160853 M 398.209215,517.160471 l 0.414561,-0.259046 M 468.943266,481.215179 l -21.759794,13.597028 M 453.827544,498.914779 l 7.160471,-4.474359"
       id="path8" />
  </g>
  <g
     inkscape:label="fill-4e4e4e"
     inkscape:groupmode="layer"
     id="fill-4e4e4e">
    <path
       style="stroke:#4e4e4e"
       d="M 315.506683,240.416446 l -30.213359,41.585122 M 354.307792,202.323016 l 34.945084,-48.097781 M 335.680452,227.961349 l -2.142305,2.948630 M 288.502443,292.896308 l 43.438906,-59.788526 M 284.984671,297.738107 l -3.948835,5.435106 M 277.486478,323.370198 l 125.064956,-172.137144 M 275.701171,325.827462 l -2.085438,2.870360 M 294.175093,315.712004 l 120.085868,-165.284018 M 292.638553,317.826870 l -6.012688,8.275756 M 270.147678,348.782904 l 6.683786,-9.199442 M 424.939124,151.042471 l -130.342647,179.401262 M 291.914913,334.134591 l 0.426791,-0.587427 M 281.349277,348.676940 l -11.733275,16.149468 M 429.784741,159.684766 l 5.375491,-7.398728 M 429.226580,160.453009 l -20.622110,28.383899 M 267.396479,383.193033 l 139.375999,-191.834605 M 446.158764,152.459571 l -18.946450,26.077551 M 305.658594,345.841465 l 119.726797,-164.789799 M 302.807577,349.765553 l -1.617769,2.226668 M 293.242734,362.930430 l 6.741236,-9.278515 M 291.948359,364.711985 l -1.448022,1.993032 M 262.377189,405.413208 l 22.339920,-30.748261 M 452.298759,159.320307 l -137.161338,188.786385 M 310.548123,354.423321 l 3.372748,-4.642189 M 306.749646,359.651475 l -6.607795,9.094850 M 263.280614,419.481465 l 12.913031,-17.773263 M 463.599556,159.077810 l -113.358451,156.024522 M 334.565376,336.678122 l 3.413567,-4.698372 M 325.133044,349.660614 l -2.071765,2.851540 M 310.058427,370.409044 l 5.258452,-7.237638 M 270.199914,425.269581 l -10.785111,14.844431 M 469.261397,166.596668 l 0.351385,-0.483640 M 456.828757,183.708729 l -113.973045,156.870438 M 320.806869,370.926797 l 1.406559,-1.935962 M 288.537961,415.341139 l -2.565059,3.530500 M 254.505678,462.182557 l 9.311402,-12.816045 M 473.900705,175.522924 l -4.223766,5.813515 M 360.702726,331.326575 l 107.371113,-147.783659 M 329.349910,374.480024 l -8.104579,11.154997 M 257.733091,473.052119 l 5.765828,-7.935982 M 484.935345,175.646759 l -111.241419,153.110678 M 327.162913,392.801882 l 11.577816,-15.935496 M 495.079014,176.996911 l -9.454099,13.012451 M 397.164321,311.764924 l 66.240859,-91.172721 M 396.873055,312.165817 l -3.975152,5.471327 M 333.749964,399.047298 l 10.762004,-14.812628 M 461.804193,238.107488 l -45.871185,63.136270 M 339.164801,406.906130 l 3.281891,-4.517135 M 465.554354,248.257548 l -16.802573,23.126758 M 423.085717,306.710612 l 20.000734,-27.528649 M 373.238155,375.319895 l -4.021042,5.534489 M 344.069331,415.467337 l 2.562506,-3.526987 M 467.811297,260.462847 l -16.055492,22.098489 M 434.420145,306.421825 l 13.371425,-18.404188 M 379.866417,381.508590 l -4.083645,5.620655 M 348.787504,424.285044 l 2.147080,-2.955201 M 473.792889,267.541607 l -6.817002,9.382798 M 444.349680,308.066708 l 20.812488,-28.645932 M 385.942460,388.457349 l -3.723959,5.125590 M 353.417503,433.224112 l 1.932101,-2.659308 M 479.168889,275.453892 l -3.823793,5.262999 M 461.586281,299.654276 l 3.445230,-4.741952 M 392.111902,395.277555 l -3.492756,4.807367 M 358.089104,442.105919 l 1.721609,-2.369591 M 487.789684,278.900101 l -4.214602,5.800902 M 394.964564,406.662917 l 3.340960,-4.598437 M 364.340757,448.812972 l -1.381817,1.901908 M 401.286065,413.273832 l 3.278705,-4.512750 M 369.036145,457.662039 l -1.197496,1.648212 M 407.532929,419.987476 l 3.291086,-4.529791 M 417.083260,422.154287 l -3.374989,4.645274 M 376.097521,478.566317 l 4.605980,-6.339587 M 423.350435,428.839976 l -3.531417,4.860578 M 379.640428,489.001638 l 8.113675,-11.167516 M 429.585815,435.569425 l -3.631006,4.997651 M 383.200926,499.412748 l 12.870443,-17.714645 M 435.293910,443.024621 l -5.819257,8.009520 M 386.698815,509.910032 l 15.768427,-21.703377 M 441.745478,449.456514 l -6.402950,8.812904 M 404.131473,501.227751 l 4.135953,-5.692651 M 401.621425,504.682536 l -5.269682,7.253095 M 389.245652,521.716326 l 0.433316,-0.596408 M 450.495222,452.725240 l -7.720323,10.626114 M 396.053368,527.658024 l 1.807076,-2.487227 M 458.676793,456.775988 l -10.587277,14.572137 M 448.963594,485.456774 l 15.626764,-21.508396 M 469.293489,472.786789 l -19.332143,26.608412"
       id="path11" />
  </g>
  <g
     inkscape:label="fill-6e6e6e"
     inkscape:groupmode="layer"
     id="fill-6e6e6e">
    <path
       style="stroke:#6e6e6e"
       d="M 299.749081,253.396755 l -38.410548,166.374363 M 272.258014,421.373172 l 41.803183,-181.069477 M 263.673891,458.555096 l -4.134966,17.910503 M 295.524028,369.496522 l 31.970940,-138.481353 M 290.184303,392.625410 l -9.535215,41.301556 M 273.693721,464.053970 l 4.423054,-19.158351 M 340.482939,223.657609 l -34.093818,147.676550 M 292.380507,432.012132 l 9.931545,-43.018249 M 360.533856,185.707075 l -40.108626,173.729547 M 317.154096,373.605456 l 2.650670,-11.481312 M 316.893964,374.732210 l -2.463483,10.670516 M 336.422817,339.042981 l 41.062697,-177.862083 M 328.649592,372.712519 l -4.420317,19.146497 M 352.827889,316.884336 l 37.816361,-163.800654 M 351.318317,323.423010 l -4.182097,18.114652 M 333.697042,399.749137 l 5.526865,-23.939484 M 402.573834,150.310499 l -43.283934,187.483314 M 341.955228,412.878530 l 1.904350,-8.248648 M 414.177382,148.949537 l -42.144563,182.548159 M 349.809163,427.758928 l 1.650704,-7.149986 M 425.634848,148.221328 l -40.568844,175.722967 M 371.245206,383.808749 l 1.998349,-8.655800 M 359.142698,436.230471 l -1.450198,6.281498 M 396.319915,324.097780 l 40.791915,-176.689194 M 382.518404,383.878693 l -2.028428,8.786088 M 365.631972,457.021862 l 1.240715,-5.374126 M 448.118439,148.633249 l -35.733518,154.778873 M 389.650697,401.884864 l 1.845796,-7.995022 M 374.675544,466.749377 l -1.166604,5.053116 M 422.642915,307.879394 l 35.477304,-153.669087 M 400.502100,403.781799 l -1.739698,7.535461 M 380.148154,491.944424 l 4.367212,-18.916472 M 468.001970,160.307265 l -1.596204,6.913919 M 433.898346,308.026292 l 28.643146,-124.067094 M 409.529751,413.578272 l -1.730602,7.496063 M 386.732541,512.323837 l 7.654632,-33.155855 M 475.924044,174.892520 l -31.233739,135.288187 M 416.767933,431.125790 l 1.827004,-7.913626 M 403.526747,488.479665 l -6.768059,29.315683 M 394.354337,528.209737 l 1.664698,-7.210601 M 487.067869,175.522836 l -3.685844,15.965144 M 471.555680,242.713511 l 1.453972,-6.297846 M 469.691637,250.787569 l -12.097960,52.402023 M 425.665811,441.484369 l 1.992229,-8.629291 M 411.525581,502.732434 l -0.930369,4.029870 M 495.926414,186.051788 l 1.993854,-8.636331 M 477.351982,266.506493 l -4.857727,21.041128 M 432.939781,458.876869 l 3.765188,-16.308820 M 487.537319,271.288478 l -3.532566,15.301223 M 442.949196,464.420860 l 3.325958,-14.406309 M 456.568802,454.327388 l -9.782780,42.373875 M 457.434885,499.475500 l 8.189191,-35.471284"
       id="path14" />
  </g>
  <g
     inkscape:label="fill-8e8e8e"
     inkscape:groupmode="layer"
     id="fill-8e8e8e">
    <path
       style="stroke:#8e8e8e"
       d="M 255.623388,443.645478 l 5.462854,34.491101 M 274.760920,481.373208 l -12.736399,-80.414458 M 267.752087,354.019284 l 18.734955,118.287848 M 286.196557,387.371192 l -11.150833,-70.403589 M 286.623968,390.069759 l 7.610266,48.049326 M 298.273760,380.521761 l -15.312471,-96.679135 M 298.968383,384.907437 l 3.288835,20.764886 M 312.699377,388.499631 l -19.989760,-126.210378 M 303.701335,248.586336 l 23.254403,146.822523 M 334.382355,359.196781 l -19.127822,-120.768313 M 336.599528,373.195462 l 6.970970,44.012973 M 345.128712,343.944721 l -18.020492,-113.776907 M 359.779203,436.444279 l 2.506704,15.826706 M 357.929610,341.664516 l -18.739626,-118.317341 M 363.587114,377.384589 l 0.125943,0.795170 M 383.519769,503.234417 l -5.613858,-35.444506 M 350.088775,209.057539 l 21.851354,137.964017 M 379.038479,391.838776 l -2.424133,-15.305373 M 392.489997,476.768318 l 7.202780,45.476561 M 382.319299,329.451168 l -22.690785,-143.263979 M 392.620294,394.489088 l 2.100035,13.259097 M 411.146181,511.456940 l -2.800140,-17.679387 M 370.220868,169.962791 l 24.856006,156.934644 M 410.594949,424.874704 l -2.045138,-12.912493 M 381.399326,157.438902 l 24.612423,155.396724 M 426.688058,443.380700 l -2.347729,-14.822975 M 428.244816,453.209683 l 1.151523,7.270433 M 419.111390,312.441610 l -25.480306,-160.876321 M 439.976605,444.179393 l 3.434109,21.682108 M 448.771898,499.710687 l -1.934790,-12.215781 M 406.372492,148.909486 l 25.684405,162.164951 M 461.481695,496.855297 l -6.902463,-43.580435 M 419.297250,147.411302 l 26.322074,166.191036 M 470.497746,470.678510 l -0.235201,-1.485002 M 432.335396,146.629022 l 25.051037,158.166023 M 469.044565,295.299701 l -23.256153,-146.833568 M 459.878925,154.328238 l 1.902691,12.013119 M 480.986224,287.594478 l -17.487583,-110.412256 M 476.158987,174.014614 l 3.111734,19.646715 M 491.638431,188.646083 l -2.220528,-14.019865 M 503.245948,178.831171 l 0.503432,3.178543"
       id="path17" />
  </g>
  <g
     inkscape:label="fill-b0b0b0"
     inkscape:groupmode="layer"
     id="fill-b0b0b0">
    <path
       style="stroke:#b0b0b0"
       d="M 252.508364,454.476921 l 18.819201,27.900612 M 286.646751,478.264785 l -29.423190,-43.621674 M 259.901680,411.789212 l 32.563397,48.277221 M 295.854120,438.266522 l -32.786273,-48.607649 M 265.586762,366.568944 l 34.628979,51.339573 M 306.599100,400.547861 l -38.394225,-56.921780 M 386.936753,519.653330 l 6.855056,10.163038 M 320.168296,393.840646 l -47.769835,-70.821693 M 369.065970,466.334429 l 32.219139,47.766839 M 343.850134,402.126040 l -66.397442,-98.438256 M 393.422766,475.620490 l 19.309454,28.627443 M 335.607983,363.082175 l -53.494263,-79.308506 M 342.897273,373.888990 l 4.187658,6.208459 M 348.035828,354.682838 l -58.944879,-87.389377 M 351.433262,359.719740 l 1.967115,2.916368 M 365.944263,381.233184 l -2.948084,-4.370714 M 298.084387,253.802406 l 70.724171,104.852895 M 425.644933,442.918693 l -33.327538,-49.410107 M 427.813328,446.133470 l 8.615167,12.772510 M 462.249583,497.187317 l -14.514525,-21.518668 M 308.781089,242.836544 l 68.547617,101.626022 M 471.000000,483.335970 l -22.499152,-33.356365 M 320.645583,233.602005 l 67.420568,99.955102 M 395.664845,344.822635 l -3.262856,-4.837383 M 333.495064,225.827769 l 66.731847,98.934031 M 416.780021,322.478421 l -71.150786,-105.485378 M 352.769215,200.754124 l 78.842023,116.888105 M 449.176540,316.859486 l -89.317153,-132.418125 M 368.816175,170.895971 l 92.904305,137.736296 M 471.954150,296.979932 l -93.257028,-138.259230 M 391.814170,151.343151 l 93.368341,138.424259 M 492.167458,273.298644 l -84.524182,-125.312254 M 424.343503,145.921121 l 51.587640,76.481821 M 459.831535,171.709918 l -16.675289,-24.722133 M 462.662077,175.906369 l 13.524042,20.050217 M 471.584261,162.309675 l -1.695485,-2.513660 M 479.386137,173.876432 l 10.774810,15.974313 M 503.819413,183.275879 l -4.686007,-6.947291"
       id="path20" />
  </g>
  <g
     inkscape:label="fill-d1d1d1"
     inkscape:groupmode="layer"
     id="fill-d1d1d1">
    <path
       style="stroke:#d1d1d1"
       d="M 251.449695,469.673815 l 19.415292,13.594734 M 290.103173,475.986104 l -38.247010,-26.780845 M 256.796972,431.911683 l 37.703000,26.399924 M 397.194650,530.219195 l -10.767314,-7.539354 M 258.552182,412.387526 l 38.696916,27.095872 M 402.432685,513.133739 l -22.403663,-15.687214 M 261.366354,393.604863 l 39.598955,27.727487 M 412.502160,499.431293 l -42.490623,-29.752254 M 263.628897,374.435945 l 42.567235,29.805899 M 366.423154,446.413258 l -14.424261,-10.099976 M 265.784864,355.192400 l 60.273770,42.204148 M 350.507316,414.515700 l -17.096040,-11.970776 M 447.604219,482.503683 l 16.835056,11.788033 M 346.808319,391.172467 l -78.542125,-54.995788 M 427.348988,447.567650 l 44.619397,31.242838 M 354.037359,375.481127 l -81.199943,-56.856812 M 375.259501,390.341031 l 44.230270,30.970368 M 375.899059,370.035686 l -101.048076,-70.754625 M 281.442834,283.143558 l 120.544485,84.406157 M 424.505008,362.563602 l -136.316983,-95.450179 M 297.662730,252.994515 l 146.826078,102.808727 M 459.526236,345.579394 l -149.820007,-104.905099 M 324.052249,229.966319 l 149.265554,104.516866 M 481.143888,319.209900 l -140.611086,-98.456942 M 349.612384,206.357382 l 138.595373,97.045525 M 493.086962,286.066195 l -137.282918,-96.126534 M 364.618174,175.358213 l 126.278449,88.421122 M 481.075902,236.149624 l -106.855673,-74.821147 M 389.259940,151.106228 l 87.120279,61.002276 M 480.702139,194.381576 l -68.668746,-48.082373 M 440.597236,145.546653 l 32.971958,23.087213 M 499.254207,186.618706 l -19.715870,-13.805201"
       id="path23" />
  </g>
</svg>
