<?xml version="1.0" encoding="UTF-8" standalone="no"?>
<!-- Created with Inkscape (http://www.inkscape.org/) -->

<svg
   xmlns:dc="http://purl.org/dc/elements/1.1/"
   xmlns:cc="http://creativecommons.org/ns#"
   xmlns:rdf="http://www.w3.org/1999/02/22-rdf-syntax-ns#"
   xmlns:svg="http://www.w3.org/2000/svg"
   xmlns="http://www.w3.org/2000/svg"
   xmlns:sodipodi="http://sodipodi.sourceforge.net/DTD/sodipodi-0.dtd"
   xmlns:inkscape="http://www.inkscape.org/namespaces/inkscape"
   id="svg2"
   version="1.1"
   inkscape:version="0.48.3.1 r9886"
   width="1500"
   height="1911"
   sodipodi:docname="hantologie-_0000_arbre-02_hatched_1398270428.svg">
  <defs
     id="defs29" />
  <sodipodi:namedview
     pagecolor="#ffffff"
     bordercolor="#666666"
     borderopacity="1"
     objecttolerance="10"
     gridtolerance="10"
     guidetolerance="10"
     inkscape:pageopacity="0"
     inkscape:pageshadow="2"
     inkscape:window-width="640"
     inkscape:window-height="480"
     id="namedview27" />
  <metadata
     id="metadata8">
    <rdf:RDF>
      <cc:Work
         rdf:about="">
        <dc:format>image/svg+xml </dc:format>
        <dc:type
           rdf:resource="http://purl.org/dc/dcmitype/StillImage" />
        <dc:title />
      </cc:Work>
    </rdf:RDF>
  </metadata>
  <g
     inkscape:label="fill-0a0a0a"
     inkscape:groupmode="layer"
     id="fill-0a0a0a">
    <path
       style="stroke:#0a0a0a"
       d="M 688.337511,944.291170 l 6.094435,-10.994652 M 690.229400,920.251457 l -4.762115,8.591083 M 680.858997,916.529458 l 1.381617,-2.492502 M 665.466170,903.045547 l -1.700799,3.068323 M 658.896318,894.271220 l 2.277234,-4.108240 M 684.701834,847.716837 l -2.449520,4.419051 M 656.512652,877.944814 l 3.061660,-5.523381 M 680.861992,834.017442 l -4.183992,7.548121 M 654.215145,861.462973 l 4.390785,-7.921186 M 674.723451,824.465009 l -2.929361,5.284706 M 652.565888,843.811658 l 3.276861,-5.911613 M 668.289386,815.445716 l -3.803399,6.861513 M 649.949657,827.904811 l 4.311206,-7.777621 M 661.859452,806.418970 l -2.028276,3.659106 M 670.064176,791.617257 l 1.020272,-1.840620 M 649.542437,808.012801 l -3.416579,6.163671 M 654.445052,799.168249 l 0.945075,-1.704960 M 666.373016,777.649633 l -2.344148,4.228955 M 641.004375,802.789219 l 3.019719,-5.447717 M 648.514069,789.241373 l -1.398622,2.523180 M 659.188221,769.984693 l 2.641271,-4.764980 M 637.212063,789.004077 l -2.407706,4.343616 M 640.088608,783.814653 l 1.217449,-2.196337 M 657.511786,752.382409 l -0.862144,1.555350 M 628.088351,784.837036 l 2.003279,-3.614011 M 621.296724,776.462802 l -3.519032,6.348502 M 621.826015,775.507936 l 1.028338,-1.855171 M 615.496503,766.300025 l -9.212451,16.619702 M 589.659862,792.283905 l 3.991040,-7.200027 M 608.135258,758.953410 l -9.120395,16.453628 M 568.971809,808.979488 l 14.399789,-25.977908 M 588.190464,774.308117 l -2.760386,4.979869 M 591.025160,769.194190 l 9.748853,-17.587396 M 575.068489,777.354133 l -19.481930,35.146332 M 576.246266,775.229366 l 6.004350,-10.832134 M 593.368679,744.339716 l -8.762164,15.807362 M 621.051431,694.398710 l 2.224687,-4.013441 M 557.528078,788.371218 l -11.895369,21.459814 M 561.055087,782.008326 l 9.253019,-16.692888 M 585.887082,737.210221 l -15.274363,27.555680 M 614.318317,685.918915 l 4.199782,-7.576608 M 538.380796,802.287176 l -4.041046,7.290240 M 548.833455,783.430080 l 29.572029,-53.349353 M 582.353017,722.959189 l -0.600034,1.082490 M 607.077930,678.354265 l 0.916927,-1.654180 M 506.632612,838.935762 l -2.492907,4.497323 M 522.908321,809.573606 l 3.812186,-6.877365 M 541.039423,776.864232 l -2.978322,5.373035 M 550.134330,760.456585 l 10.309590,-18.598993 M 565.117674,733.425919 l -3.306016,5.964211 M 568.340817,727.611214 l 2.583070,-4.659982 M 575.208178,715.222167 l -0.879009,1.585773 M 599.640461,671.145161 l 0.910894,-1.643296 M 502.046944,826.581873 l -6.397958,11.542222 M 511.401214,809.706323 l 3.629111,-6.547089 M 529.819546,776.478773 l -2.187525,3.946400 M 533.707381,769.464933 l 1.213240,-2.188743 M 563.282335,716.110304 l -20.397483,36.798034 M 567.022870,709.362199 l 0.796527,-1.436973 M 494.647340,819.304459 l -3.718195,6.707801 M 499.697802,810.193185 l 3.672746,-6.625810 M 523.589661,767.091130 l -4.212939,7.600342 M 536.477841,743.840237 l 18.658399,-33.660643 M 560.288083,700.885425 l -0.266639,0.481029 M 569.987044,683.388035 l 0.520504,-0.939014 M 491.960150,803.525625 l -5.850893,10.555290 M 508.137807,774.340359 l 7.969894,-14.378070 M 546.999691,704.231665 l -16.457715,29.690504 M 548.441011,701.631454 l 0.999422,-1.803005 M 563.419480,674.609580 l -0.664874,1.199464 M 478.463492,807.247587 l 2.126570,-3.836434 M 508.312584,753.398399 l -10.826032,19.530678 M 524.100456,724.916324 l 15.032935,-27.120133 M 541.866409,692.865697 l -1.373470,2.477806 M 446.710703,843.904481 l 5.114741,-9.227236 M 468.057296,805.394207 l -0.876990,1.582132 M 487.360291,770.570683 l 1.627723,-2.936490 M 496.011490,754.963508 l -1.359733,2.453023 M 500.717555,746.473542 l 1.163916,-2.099760 M 531.327723,691.251337 l -16.378412,29.547438 M 532.756736,688.673328 l 1.783809,-3.218077 M 548.923972,659.506863 l -1.535022,2.769253 M 450.443374,816.543911 l 4.254861,-7.675972 M 476.574791,769.401586 l -1.697056,3.061570 M 487.726906,749.282638 l 0.554479,-1.000306 M 494.926277,736.294629 l -1.311729,2.366422 M 498.281813,730.241083 l 2.656650,-4.792724 M 523.677117,684.426741 l -17.909435,32.309476 M 525.216498,681.649625 l 2.330080,-4.203576 M 541.653694,651.996137 l -13.252600,23.908324 M 450.826821,795.225501 l 3.615286,-6.522149 M 465.666479,768.454049 l -2.612652,4.713349 M 480.572973,741.562022 l 1.666536,-3.006510 M 486.305472,731.220321 l -2.228009,4.019435 M 488.807336,726.706838 l 3.508879,-6.330185 M 498.687952,708.881734 l -2.315578,4.177413 M 500.217931,706.121579 l 2.246058,-4.051995 M 516.242913,677.211747 l -6.315018,11.392594 M 517.615764,674.735058 l 18.655282,-33.655019 M 454.290829,768.349612 l -10.660165,19.231448 M 489.590695,704.666968 l 3.574165,-6.447964 M 514.537107,659.662448 l -10.775156,19.438897 M 515.280536,658.321267 l 2.528711,-4.561916 M 520.997837,648.006983 l -1.432007,2.583409 M 428.472058,794.301255 l 21.273851,-38.379043 M 485.479285,691.457494 l -2.049390,3.697198 M 497.909259,669.033227 l 3.649945,-6.584676 M 514.410748,639.263753 l -8.082139,14.580565 M 532.248042,607.084424 l 1.243753,-2.243790 M 426.762541,776.758650 l -1.906954,3.440235 M 429.141055,772.467698 l 1.439827,-2.597517 M 494.297031,654.923206 l -4.271855,7.706631 M 499.880254,644.850806 l 8.066086,-14.551603 M 526.398316,597.010956 l -2.261485,4.079827 M 406.743443,792.247406 l 7.949244,-14.340816 M 474.437558,670.123991 l -1.084871,1.957159 M 482.353457,655.843331 l 6.190858,-11.168603 M 500.537861,623.037798 l -5.917272,10.675041 M 472.704088,652.624600 l 6.831032,-12.323507 M 489.769148,621.838416 l -4.399821,7.937487 M 457.999370,658.525959 l 1.613509,-2.910846 M 464.898701,646.079238 l -1.026782,1.852363 M 476.763911,624.673832 l 4.001080,-7.218139 M 526.875579,534.269990 l -4.475720,8.074413 M 446.919006,657.888812 l 0.746308,-1.346375 M 461.142779,632.228446 l -2.641867,4.766055 M 470.399361,615.529131 l 19.643477,-35.437771 M 506.490348,550.419266 l -3.567357,6.435682 M 513.775617,537.276293 l 0.388869,-0.701538 M 520.094106,525.877437 l -3.451435,6.226553 M 521.006997,524.230538 l 3.841790,-6.930773 M 479.274998,578.890404 l -14.855970,26.800880 M 486.464568,565.920076 l 1.560670,-2.815524 M 500.652551,540.324278 l -4.290812,7.740830 M 508.254052,526.610806 l 0.865355,-1.561141 M 518.298839,508.489530 l -5.289769,9.542996 M 451.868676,607.706064 l 3.055167,-5.511666 M 465.030770,583.961019 l -7.293180,13.157245 M 485.439900,547.141973 l 1.901213,-3.429879 M 491.657806,535.924573 l -3.315714,5.981706 M 497.704775,525.015553 l 2.111265,-3.808823 M 504.812516,512.192848 l -3.981179,7.182238 M 506.436368,509.263342 l 3.366310,-6.072985 M 514.716842,494.324970 l -1.758033,3.171575 M 474.866509,545.590221 l 3.438328,-6.202907 M 485.312454,526.745239 l -5.273634,9.513887 M 492.555686,513.678102 l 12.188433,-21.988515 M 478.719683,518.012259 l -10.176520,18.358927 M 483.883049,508.697299 l 13.853165,-24.991771 M 460.492092,530.269049 l -1.404170,2.533190 M 477.845939,498.961882 l 0.815822,-1.471781 M 483.489816,488.780058 l -0.592883,1.069590 M 472.288481,488.361147 l 2.475931,-4.466698 M 456.861713,454.311813 l -1.432150,2.583667 M 450.341071,445.448710 l 0.172033,-0.310356"
       id="path5" />
  </g>
  <g
     inkscape:label="fill-2f2f2f"
     inkscape:groupmode="layer"
     id="fill-2f2f2f">
    <path
       style="stroke:#2f2f2f"
       d="M 697.059094,950.311161 l 1.541857,-4.236218 M 693.644540,927.530722 l -6.147042,16.888858 M 698.861208,913.198043 l 1.394119,-3.830310 M 685.074452,918.914998 l -2.080653,5.716547 M 688.056346,910.722311 l 0.676877,-1.859706 M 679.351412,902.477073 l -2.861537,7.862009 M 663.411642,914.109380 l 4.063151,-11.163416 M 676.600905,877.872179 l -6.508253,17.881277 M 683.572692,858.717351 l 2.408469,-6.617213 M 661.792279,886.396696 l -3.639633,9.999810 M 676.933135,844.797537 l 4.266447,-11.721968 M 660.419609,858.006228 l -5.562893,15.283923 M 667.047650,839.795836 l 6.653118,-18.279291 M 656.773755,835.861282 l -5.272127,14.485049 M 662.396406,820.413174 l 3.544204,-9.737619 M 673.042801,791.162445 l -1.667136,4.580419 M 648.225468,827.185658 l 4.321124,-11.872191 M 658.173613,799.853355 l -1.849170,5.080552 M 664.054004,783.697113 l 2.601001,-7.146191 M 646.787178,798.975479 l -3.771955,10.363362 M 648.373477,794.617158 l 1.791714,-4.922694 M 661.034458,759.831398 l -3.241767,8.906681 M 635.882358,796.774376 l 2.747202,-7.547876 M 641.597587,781.071914 l -1.652027,4.538907 M 653.970196,747.078450 l 0.121133,-0.332810 M 630.127648,780.423465 l -2.534016,6.962152 M 650.050724,725.685264 l 0.787125,-2.162608 M 621.587547,771.725351 l -5.275980,14.495635 M 603.104225,790.346012 l 9.889384,-27.170859 M 617.346083,751.216829 l -0.101015,0.277536 M 631.474555,712.399171 l 1.921478,-5.279219 M 604.396042,754.634925 l -14.304413,39.301051 M 606.888857,747.785974 l 0.114454,-0.314461 M 626.285803,694.493301 l -3.132821,8.607354 M 572.374263,810.452191 l 23.424212,-64.357494 M 598.585621,738.437079 l -0.680030,1.868367 M 615.374672,692.309538 l 5.023130,-13.800938 M 587.200909,737.554470 l -28.091783,77.181540 M 589.072395,732.412603 l 1.005098,-2.761485 M 591.978871,724.427127 l -0.094269,0.259001 M 596.944435,710.784350 l 0.163042,-0.447954 M 611.191307,671.641392 l -3.975381,10.922269 M 548.697556,811.179713 l 29.905786,-82.165471 M 581.547737,720.924583 l -1.199453,3.295469 M 583.159912,716.495169 l 0.549991,-1.511087 M 588.731519,701.187305 l -0.507030,1.393054 M 598.018659,675.671097 l 3.960107,-10.880305 M 540.565406,801.360762 l -3.343158,9.185251 M 546.551044,784.915357 l 6.186356,-16.996872 M 565.646031,732.452313 l -12.139471,33.352923 M 567.343991,727.787207 l 2.692928,-7.398760 M 572.989066,712.277489 l -1.189762,3.268843 M 574.544494,708.003986 l 0.720471,-1.979479 M 580.367475,692.005477 l -0.751678,2.065219 M 591.256593,662.087871 l 0.640221,-1.758992 M 528.617518,802.025469 l -3.090415,8.490845 M 535.219738,783.886018 l 3.358172,-9.226501 M 541.271698,767.258394 l -1.957151,5.377229 M 544.978752,757.073346 l 16.553588,-45.480608 M 564.365676,703.808210 l -1.107761,3.043548 M 565.915925,699.548937 l 0.748260,-2.055826 M 572.404592,681.721469 l -1.397487,3.839564 M 580.497334,659.486844 l 0.397162,-1.091194 M 505.781460,832.605171 l -4.210922,11.569413 M 513.787073,810.609930 l 3.037246,-8.344764 M 530.177940,765.576394 l -5.707115,15.680170 M 534.601711,753.422183 l 18.697876,-51.371991 M 555.656181,695.575504 l -0.941437,2.586577 M 557.146918,691.479738 l 0.627613,-1.724353 M 565.236696,669.253254 l -2.844214,7.814414 M 575.879124,640.013422 l 1.464983,-4.025006 M 497.980735,821.875639 l -5.777552,15.873694 M 502.026827,810.759095 l 2.998632,-8.238674 M 520.308550,760.530471 l -6.219500,17.087936 M 524.279759,749.619665 l 2.406141,-6.610819 M 544.439838,694.230304 l -15.302725,42.043891 M 546.115408,689.626713 l 0.827499,-2.273534 M 548.703721,682.515381 l -0.445150,1.223039 M 553.699209,668.790391 l 4.031930,-11.077638 M 572.296229,617.695498 l -0.970762,2.667146 M 487.726875,817.886041 l 5.485633,-15.071653 M 511.105166,753.654715 l -7.671574,21.077477 M 520.754222,727.144149 l 14.973221,-41.138587 M 539.209222,676.439453 l -1.867453,5.130786 M 539.645557,675.240633 l 3.295079,-9.053155 M 547.646954,653.256978 l -3.326700,9.140032 M 563.040280,610.964160 l 0.257631,-0.707835 M 481.288908,803.412361 l -1.828839,5.024694 M 492.036758,773.882887 l 10.990197,-30.195319 M 540.590397,640.482858 l -32.653330,89.714286 M 549.809474,615.153654 l 1.217031,-3.343766 M 554.322389,602.754522 l -1.682593,4.622886 M 468.014239,807.722366 l 0.912754,-2.507772 M 482.826562,767.025843 l -2.541340,6.982275 M 487.426367,754.387982 l 3.253315,-8.938410 M 508.805604,695.649010 l -16.056497,44.114862 M 509.418461,693.965202 l 22.684101,-62.324055 M 541.168586,606.732448 l -1.606710,4.414399 M 542.014828,604.407420 l 1.917108,-5.267210 M 444.571508,839.968891 l -0.131780,0.362062 M 452.196431,819.019587 l 5.083771,-13.967546 M 471.012637,767.322487 l -2.628418,7.221519 M 479.729602,743.372821 l 6.440358,-17.694737 M 496.302272,697.839786 l -5.643160,15.504455 M 496.631106,696.936322 l 3.079364,-8.460483 M 518.255538,637.523684 l -15.718867,43.187232 M 519.797767,633.286444 l 0.018221,-0.050063 M 532.963092,597.115011 l -3.527655,9.692152 M 449.655396,793.839175 l 3.848717,-10.574264 M 459.231143,767.530027 l -3.216801,8.838088 M 476.938858,718.878480 l 0.676130,-1.857651 M 487.108327,690.938093 l -6.528012,17.935565 M 489.190734,685.216726 l 1.865684,-5.125926 M 499.786854,656.104128 l -4.490677,12.338033 M 501.348299,651.814093 l 8.589842,-23.600396 M 514.341383,616.115888 l -0.782817,2.150771 M 520.309283,599.719217 l 3.150295,-8.655366 M 449.999405,760.732169 l -10.422509,28.635608 M 468.574530,709.697433 l 1.062689,-2.919713 M 473.726488,695.542544 l -1.427010,3.920677 M 476.269800,688.554853 l 5.699619,-15.659574 M 490.722841,648.845450 l -6.042509,16.601656 M 491.385379,647.025142 l 0.692916,-1.903772 M 501.972724,617.936650 l -6.566575,18.041515 M 510.128343,595.529272 l 3.727982,-10.242547 M 517.537915,575.171639 l -2.056863,5.651184 M 519.999663,568.408042 l 0.411776,-1.131347 M 523.140889,559.777596 l -1.081288,2.970815 M 527.028513,549.096436 l 4.619914,-12.693110 M 534.717709,527.970543 l -1.070574,2.941377 M 424.482490,798.677470 l 6.452911,-17.729227 M 436.965444,764.380834 l -5.017095,13.784354 M 470.151823,673.202010 l 3.266776,-8.975394 M 482.271051,639.904702 l -5.596591,15.376507 M 485.617490,630.710438 l 4.094600,-11.249821 M 502.065071,585.521079 l -1.115063,3.063609 M 503.618155,581.254017 l 1.680788,-4.617927 M 510.312899,562.860358 l -1.996181,5.484462 M 518.386764,540.677597 l 8.111805,-22.287002 M 528.812522,512.033064 l -0.397120,1.091077 M 417.768579,784.961941 l 4.062833,-11.162542 M 458.255927,673.723865 l -2.838460,7.798604 M 461.248751,665.501149 l 3.854139,-10.589159 M 471.620603,637.004722 l -5.184950,14.245534 M 475.168738,627.256299 l 6.303110,-17.317652 M 494.378117,574.478963 l -11.830711,32.504610 M 500.862710,556.662692 l 4.233473,-11.631370 M 519.398227,505.736777 l -9.297387,25.544362 M 399.251092,803.676469 l 5.162966,-14.185132 M 456.610421,646.083008 l -5.746743,15.789046 M 457.533202,643.547687 l 4.602486,-12.645226 M 483.024545,573.510799 l -14.898582,40.933518 M 485.516023,566.665519 l 1.838983,-5.052565 M 498.443004,531.148930 l -7.759213,21.318263 M 499.668431,527.782096 l 5.752083,-15.803718 M 509.501258,500.766627 l -3.390982,9.316646 M 509.902161,499.665157 l 3.004646,-8.255197 M 447.608229,638.654477 l -2.797165,7.685147 M 449.168831,634.366759 l 2.452432,-6.738001 M 469.885733,577.447539 l -9.066095,24.908891 M 480.640213,547.899849 l 7.864164,-21.606614 M 501.821907,489.703622 l -10.745557,29.523174 M 433.460956,645.361942 l 2.605260,-7.157893 M 440.118033,627.071774 l -0.907418,2.493111 M 443.909887,616.653742 l 0.781916,-2.148296 M 451.446043,595.948324 l -4.469742,12.280515 M 466.889747,553.517095 l 2.349448,-6.455055 M 480.223837,516.881984 l -9.021155,24.785421 M 482.709011,510.054024 l 10.378216,-28.513914 M 464.835980,526.997925 l -1.564014,4.297093 M 470.927197,510.262444 l 1.255225,-3.448701 M 476.784136,494.170636 l -2.651447,7.284791 M 478.908478,488.334055 l 0.670279,-1.841578 M 481.599186,480.941396 l -0.116911,0.321211 M 452.192817,529.572880 l 2.826736,-7.766395 M 463.415351,498.739223 l -2.151860,5.912187 M 464.952872,494.514918 l 1.233561,-3.389180 M 470.776209,478.515431 l -1.876300,5.155091 M 471.926648,475.354625 l 0.693791,-1.906176 M 460.401633,474.857497 l -2.306834,6.337974 M 462.229156,469.836417 l 2.173964,-5.972917 M 453.348931,462.072788 l -0.639809,1.757860 M 454.895256,457.824295 l 2.162514,-5.941458 M 449.350933,440.895348 l -1.223043,3.360284"
       id="path8" />
  </g>
  <g
     inkscape:label="fill-4f4f4f"
     inkscape:groupmode="layer"
     id="fill-4f4f4f">
    <path
       style="stroke:#4f4f4f"
       d="M 706.199913,940.220963 l 0.421932,-1.985035 M 695.023261,930.276429 l -4.561684,21.461038 M 697.833007,917.057615 l 2.438596,-11.472693 M 684.668901,916.463317 l -1.868879,8.792383 M 686.169285,909.404567 l 5.958309,-28.031641 M 679.129128,879.999352 l -5.647631,26.570013 M 682.045300,866.279842 l 3.936000,-18.517426 M 663.195127,892.436389 l -2.578919,12.132858 M 665.752880,880.403105 l 5.207726,-24.500424 M 677.386147,825.672891 l -3.325455,15.645038 M 654.027700,873.039195 l 5.278900,-24.835273 M 667.206301,811.038750 l -3.713521,17.470742 M 670.311748,796.428774 l 2.144407,-10.088640 M 654.082846,810.253207 l -5.459676,25.685754 M 655.348040,804.300936 l 3.845557,-18.091925 M 663.772232,764.668228 l -2.985645,14.046355 M 641.384060,807.469751 l 4.971722,-23.390114 M 647.214223,780.040990 l -0.374282,1.760858 M 647.857958,777.012455 l 1.437827,-6.764445 M 654.544659,745.553999 l -1.121064,5.274192 M 631.240434,792.665213 l 2.395853,-11.271602 M 634.959616,775.167840 l -0.925403,4.353679 M 636.205863,769.304707 l 0.465376,-2.189420 M 638.000872,760.859852 l -0.430180,2.023838 M 638.617459,757.959042 l 0.451092,-2.122223 M 648.401229,711.930021 l -1.064139,5.006380 M 618.989786,787.773435 l 3.565970,-16.776571 M 623.727072,765.486256 l -0.076590,0.360327 M 624.796916,760.453034 l 0.244504,-1.150301 M 635.469012,710.244771 l -1.518863,7.145688 M 604.595664,792.965908 l 6.916925,-32.541575 M 613.135700,752.788199 l -0.679920,3.198773 M 613.858427,749.388036 l 0.538410,-2.533021 M 626.004849,692.243613 l -3.243756,15.260673 M 590.796240,795.360549 l 9.697640,-45.623810 M 602.304020,741.220699 l -0.909418,4.278477 M 602.951066,738.176586 l 0.638355,-3.003223 M 606.856966,719.800770 l -0.314167,1.478040 M 612.342534,693.993203 l 4.476830,-21.061831 M 589.482796,739.013267 l -15.277685,71.875858 M 590.373693,734.821927 l 1.011161,-4.757140 M 592.740949,723.684865 l -0.697243,3.280271 M 595.479182,710.802489 l 0.699471,-3.290751 M 605.143993,665.333130 l -3.502923,16.479957 M 559.920298,815.567340 l 18.551415,-87.277545 M 580.413391,719.154916 l -1.047941,4.930177 M 581.136345,715.753686 l 0.741331,-3.487689 M 585.379671,695.790408 l -0.905700,4.260983 M 585.895327,693.364439 l 0.658609,-3.098510 M 593.464176,657.755803 l -2.787082,13.112188 M 547.413833,811.879088 l 20.079382,-94.466066 M 569.429654,708.302789 l -1.011215,4.757392 M 570.182695,704.760011 l 1.764175,-8.299791 M 575.913211,677.800054 l -2.399508,11.288797 M 579.480754,661.016085 l 0.974116,-4.582856 M 586.439596,628.277308 l -3.882841,18.267329 M 534.404664,810.555868 l 2.006957,-9.441992 M 543.722418,766.719281 l -4.040697,19.009986 M 545.002853,760.695309 l 11.798438,-55.507285 M 558.445917,697.450663 l -0.974488,4.584607 M 559.134748,694.209969 l 0.741789,-3.489843 M 565.367213,664.888527 l -2.813778,13.237785 M 565.648985,663.562896 l 1.068608,-5.027405 M 573.257157,627.769259 l -1.612893,7.588064 M 573.720969,625.587197 l 3.677920,-17.303254 M 523.043437,801.479691 l -1.887086,8.878040 M 526.923647,783.224737 l 4.344821,-20.440777 M 545.827337,694.289871 l -13.139098,61.814598 M 546.489357,691.175312 l 0.988411,-4.650106 M 548.731767,680.625602 l -0.711300,3.346403 M 551.576509,667.242142 l 2.736667,-12.875004 M 564.152040,608.078918 l -2.989939,14.066555 M 564.917510,604.477665 l 1.162856,-5.470805 M 497.604936,858.631881 l -0.727839,3.424214 M 500.726868,843.944347 l 3.428446,-16.129572 M 509.622116,802.095498 l -1.840999,8.661217 M 514.332480,779.934978 l 4.884687,-22.980645 M 534.734232,683.952280 l -13.121024,61.729564 M 535.308215,681.251899 l 8.002512,-37.648857 M 554.439384,591.246826 l -5.288251,24.879263 M 489.469104,834.381417 l 3.847187,-18.099590 M 496.218828,802.626463 l -1.989521,9.359959 M 502.101387,774.951198 l 5.675444,-26.700864 M 532.813983,630.459794 l -21.336746,100.381499 M 536.992012,610.803712 l 3.949082,-18.578969 M 543.011076,582.486241 l -0.485822,2.285613 M 481.427316,809.688509 l 1.769319,-8.323990 M 490.732830,765.909507 l -1.747815,8.222823 M 491.722718,761.252449 l 27.880521,-131.167540 M 528.071036,590.247060 l -3.050921,14.353455 M 536.093217,552.505662 l 2.449759,-11.525208 M 469.247792,804.462115 l -0.799636,3.761990 M 475.620483,774.480961 l 1.718897,-8.086772 M 495.265611,682.057903 l -13.979500,65.768377 M 496.966283,674.056870 l 3.921547,-18.449428 M 507.649073,623.798296 l -6.189043,29.117157 M 508.167602,621.358805 l 1.319980,-6.210017 M 518.418534,573.131962 l -5.361524,25.223987 M 519.093771,569.955223 l 0.880415,-4.142028 M 521.653649,557.911946 l -1.170795,5.508156 M 522.786129,552.584046 l 0.217535,-1.023421 M 531.023343,513.830998 l -7.521063,35.383818 M 447.357317,844.922159 l 3.538726,-16.648398 M 458.351988,793.196297 l -5.730194,26.958444 M 462.134622,775.400402 l 1.891839,-8.900402 M 473.922648,719.942101 l -1.671217,7.862456 M 473.982316,719.661388 l 1.408744,-6.627619 M 484.142644,671.860800 l -7.773620,36.572005 M 485.050025,667.591910 l 5.297954,-24.924915 M 495.679577,617.583797 l -3.666441,17.249247 M 501.449148,590.440103 l 3.381481,-15.908616 M 507.566294,561.661191 l -2.184958,10.279419 M 508.562710,556.973423 l 1.444170,-6.794285 M 520.592650,500.377008 l -8.162736,38.402652 M 438.596319,823.612869 l 0.473142,-2.225958 M 450.736034,766.500000 l -4.571084,21.505259 M 463.885189,704.638087 l 0.933595,-4.392217 M 467.329119,688.435673 l -0.675303,3.177053 M 468.117601,684.726152 l 5.049383,-23.755479 M 478.322933,636.713842 l -4.498800,21.165190 M 479.889417,629.344116 l 11.847734,-55.739205 M 509.717800,489.012607 l -14.148578,66.563824 M 431.659194,793.722926 l 7.102538,-33.414812 M 466.112961,631.630696 l -11.788995,55.462860 M 469.254475,616.851035 l 9.490583,-44.649683 M 488.816111,524.820776 l -4.954902,23.310982 M 489.917066,519.641188 l 8.050465,-37.874462 M 422.913338,772.342399 l -2.460526,11.575863 M 443.958248,673.333880 l 1.312786,-6.176174 M 455.116620,620.837870 l -8.835535,41.567923 M 455.798823,617.628356 l 0.294656,-1.386246 M 463.559161,581.118835 l -4.801985,22.591561 M 469.183262,554.659519 l 2.413780,-11.355943 M 477.258830,516.666962 l -5.643459,26.550385 M 478.864124,509.114647 l 4.950228,-23.288993 M 485.595265,477.447118 l -1.529582,7.196119 M 404.216887,797.775741 l 2.662633,-12.526703 M 441.271075,623.449488 l -6.914018,32.527895 M 441.686050,621.497185 l 1.735833,-8.166452 M 446.228398,600.127117 l -1.603256,7.542725 M 451.075816,577.321808 l 4.351945,-20.474290 M 463.597016,518.414196 l -3.641540,17.132098 M 465.147912,511.117802 l 3.046478,-14.332551 M 473.481025,471.913587 l -4.804285,22.602382 M 446.740792,535.189949 l 0.168470,-0.792589 M 460.133706,472.181243 l -2.315910,10.895499 M 460.790723,469.090220 l 2.140101,-10.068383 M 450.389312,455.498464 l -1.054536,4.961202 M 451.185921,451.750712 l 1.586488,-7.463841 M 441.823846,433.269265 l -0.454008,2.135938"
       id="path11" />
  </g>
  <g
     inkscape:label="fill-6e6e6e"
     inkscape:groupmode="layer"
     id="fill-6e6e6e">
    <path
       style="stroke:#6e6e6e"
       d="M 701.665392,958.845163 l 0.439851,-5.027523 M 705.157676,918.928184 l -0.594238,6.792174 M 688.485143,948.864122 l 2.766566,-31.621989 M 694.112911,884.538438 l -2.275134,26.004900 M 677.508221,913.698930 l 6.658472,-76.106689 M 664.836751,897.902501 l -2.088178,23.867989 M 665.485951,890.482112 l 6.826913,-78.031976 M 674.170727,791.214675 l -1.212283,13.856457 M 653.191226,870.379482 l 7.349858,-84.009265 M 662.920330,759.175308 l -1.864575,21.312195 M 663.201249,755.964389 l 0.389668,-4.453922 M 648.167573,767.168112 l -4.514375,51.599537 M 649.642078,750.314444 l 0.365383,-4.176351 M 652.470401,717.986556 l -1.204206,13.764136 M 631.736046,794.349336 l 2.844837,-32.516634 M 635.585531,750.349519 l -0.942161,10.768944 M 636.591002,738.856932 l 0.125066,-1.429515 M 637.266648,731.134271 l -0.221382,2.530408 M 637.946283,723.365999 l 0.602279,-6.884084 M 639.708132,703.227982 l -0.083139,0.950286 M 618.111359,789.448239 l 1.909931,-21.830610 M 620.701541,759.842320 l -0.415927,4.754065 M 620.878936,757.814687 l 0.388256,-4.437784 M 621.651923,748.979407 l -0.201402,2.302032 M 624.003933,722.095810 l 0.230024,-2.629189 M 626.590320,692.533266 l -1.706351,19.503679 M 603.707833,793.449313 l 3.347677,-38.264125 M 608.442089,739.336517 l -1.119965,12.801254 M 608.743398,735.892535 l 0.074612,-0.852814 M 610.463963,716.226386 l -0.805986,9.212467 M 611.447937,704.979513 l 0.301911,-3.450855 M 614.546275,669.565347 l -2.269044,25.935291 M 589.095617,799.835714 l 5.032966,-57.527063 M 594.997266,732.379554 l -0.675482,7.720789 M 595.117161,731.009151 l 0.435900,-4.982357 M 597.840343,699.883040 l -1.163679,13.300915 M 599.499964,680.913488 l 2.308875,-26.390557 M 581.174422,729.743407 l -7.175379,82.014962 M 581.291762,728.402199 l 0.760160,-8.688665 M 582.716416,712.118336 l -0.483577,5.527310 M 582.918327,709.810476 l 0.230523,-2.634891 M 585.061329,685.315854 l -1.392649,15.918056 M 586.390451,670.123916 l 1.761374,-20.132602 M 589.838101,630.717096 l -1.418325,16.211532 M 559.603542,815.667706 l 8.690865,-99.337042 M 569.105455,707.060347 l -0.742572,8.487638 M 569.313202,704.685787 l 3.685991,-42.131067 M 577.974656,605.684909 l -3.607326,41.231920 M 545.890374,811.777946 l 1.447595,-16.546083 M 556.158672,694.410767 l -8.470870,96.822491 M 556.340055,692.337543 l 0.444137,-5.076509 M 559.984753,650.678458 l -2.024728,23.142750 M 562.350043,623.643064 l 2.442711,-27.920317 M 532.779248,801.006816 l -0.920274,10.518785 M 534.091253,786.010527 l 2.108268,-24.097611 M 542.416774,690.849393 l -6.129695,70.062734 M 542.645210,688.238360 l 0.579614,-6.625021 M 546.556715,643.529650 l -3.159824,36.116956 M 548.931443,616.386385 l 3.060597,-34.982781 M 518.697823,801.326260 l -0.894660,10.226010 M 520.345597,782.492115 l 2.211138,-25.273419 M 533.668877,630.206322 l -10.709610,122.411401 M 535.366171,610.806167 l 3.507869,-40.095131 M 539.446662,564.165939 l -0.280817,3.209757 M 539.882241,559.187252 l 0.002989,-0.034162 M 500.005129,854.352743 l -0.726658,8.305738 M 500.795507,845.318676 l 1.799470,-20.568034 M 504.617097,801.637711 l -0.882868,10.091224 M 506.823555,776.417770 l 2.452419,-28.031272 M 520.083549,624.855354 l -9.346169,106.827196 M 522.001282,602.935561 l 2.481691,-28.365854 M 530.079941,510.596068 l -5.359192,61.255849 M 488.784805,821.969644 l 1.749291,-19.994489 M 500.681609,685.988549 l -7.834176,89.545042 M 501.157025,680.554525 l 5.803585,-66.335277 M 511.714490,559.882142 l -3.516119,40.189423 M 511.816019,558.721670 l 1.226461,-14.018511 M 517.481737,493.962206 l -4.214491,48.171853 M 475.857870,809.093208 l 0.466946,-5.337219 M 479.615116,766.147682 l -0.829363,9.479657 M 481.127054,748.866156 l 9.393220,-107.365000 M 492.582548,617.929256 l -1.492033,17.054014 M 493.069124,612.367668 l 0.151178,-1.727970 M 494.229957,599.099288 l -0.711495,8.132428 M 494.842867,592.093693 l 1.982101,-22.655513 M 502.346045,506.331980 l -4.952995,56.612995 M 502.514194,504.410026 l 1.751351,-20.018028 M 462.569578,800.347084 l -0.810366,9.262526 M 464.693381,776.071910 l 0.848562,-9.699104 M 477.071094,634.594000 l -8.165489,93.331966 M 477.522487,629.434553 l 5.209515,-59.545029 M 483.563183,560.389088 l -0.623748,7.129470 M 483.831866,557.318023 l 0.364172,-4.162505 M 490.713500,478.660584 l -6.169309,70.515522 M 444.647945,844.560305 l 0.896166,-10.243226 M 447.928959,807.058143 l -1.177208,13.455554 M 449.043777,794.315712 l 2.506555,-28.650054 M 463.798268,625.671119 l -6.828362,78.048534 M 464.822737,613.961375 l 3.450581,-39.440321 M 477.138621,473.190178 l -7.360859,84.135000 M 435.157902,792.400009 l 2.719130,-31.079800 M 453.172866,586.488028 l -8.916861,101.920183 M 453.892076,578.267421 l 2.978290,-34.042010 M 459.362618,515.738837 l -2.012852,23.007008 M 459.567424,513.397895 l 0.339577,-3.881382 M 464.233042,460.069636 l -4.193990,47.937527 M 420.534492,798.914369 l 0.510427,-5.834209 M 422.891056,771.978715 l -1.018106,11.636999 M 432.895335,657.629288 l 2.741443,-31.334835 M 451.769071,441.901490 l -1.841446,21.047828 M 406.811152,795.140875 l 1.042175,-11.912112"
       id="path14" />
  </g>
  <g
     inkscape:label="fill-8e8e8e"
     inkscape:groupmode="layer"
     id="fill-8e8e8e">
    <path
       style="stroke:#8e8e8e"
       d="M 712.898591,946.702594 l -0.401495,-7.660986 M 697.250116,934.721731 l 1.484215,28.320518 M 696.378852,918.097029 l -1.795925,-34.268293 M 674.507216,787.371189 l 7.199577,137.376120 M 666.529556,921.758202 l -9.285833,-177.184257 M 656.408433,728.635675 l 0.441020,8.415168 M 647.308582,841.610024 l -4.433983,-84.605431 M 642.084002,741.919094 l 0.306543,5.849180 M 641.957439,739.504122 l -0.346755,-6.616489 M 641.008129,721.390222 l 0.322533,6.154287 M 640.305737,707.987781 l -0.570141,-10.878942 M 627.291960,746.279952 l 2.706450,51.642146 M 627.218549,744.879184 l -0.648936,-12.382433 M 625.887531,719.481859 l 0.427915,8.165110 M 625.702786,715.956705 l -1.998544,-38.134496 M 611.789341,737.082194 l 2.816893,53.749517 M 611.341994,728.546316 l -0.919569,-17.546419 M 609.750783,698.184201 l 0.370302,7.065785 M 609.493886,693.282317 l -1.866707,-35.618884 M 596.180645,725.860372 l 3.532252,67.399391 M 596.032197,723.027833 l -0.145456,-2.775475 M 594.493582,693.669298 l 1.128167,21.526708 M 593.586776,676.366418 l -2.451197,-46.771620 M 577.369006,653.522766 l 7.942280,151.547729 M 577.204528,650.384336 l -2.710281,-51.715246 M 564.905726,702.319050 l 5.801974,110.708254 M 564.806225,700.420466 l -2.636430,-50.306090 M 558.729674,584.472960 l 2.031367,38.760799 M 555.864197,816.406235 l -7.232731,-138.008726 M 546.433753,636.462645 l 1.523115,29.062757 M 545.333529,615.469132 l -2.583489,-49.295916 M 539.976262,799.856214 l 0.633958,12.096637 M 539.364006,788.173691 l -8.417619,-160.617742 M 524.334589,501.395329 l 5.634635,107.515242 M 525.552639,811.246942 l -0.548665,-10.469153 M 515.276958,615.175264 l 8.853529,168.935398 M 514.547150,601.249691 l -6.011923,-114.714317 M 510.022279,801.519858 l 0.520369,9.929239 M 508.865751,779.451982 l -2.264392,-43.207171 M 500.059297,611.414844 l 6.338048,120.937168 M 499.040766,591.980114 l -1.239379,-23.648757 M 493.100613,478.635242 l 4.474263,85.374025 M 498.223679,862.998992 l -0.335675,-6.405069 M 495.854304,817.788633 l 1.225066,23.375652 M 495.594763,812.836289 l -0.576661,-11.003342 M 486.482755,638.968823 l 7.144246,136.320340 M 486.154213,632.699860 l -8.393864,-160.164463 M 479.982988,801.555714 l 0.437085,8.340071 M 478.613377,775.421983 l -0.502228,-9.583079 M 470.947316,629.144824 l 6.022959,114.924904 M 470.911397,628.459457 l -2.930216,-55.911855 M 461.857580,455.702326 l 5.491588,104.785735 M 465.371222,809.356462 l -0.393915,-7.516341 M 463.098522,765.990754 l 0.546670,10.431093 M 460.546988,717.304578 l -6.908303,-131.818274 M 449.968248,515.450201 l 3.515322,67.076335 M 447.001992,458.850668 l -0.542183,-10.345474 M 445.748780,434.937959 l 0.464018,8.853999 M 452.106821,842.866442 l -0.931894,-17.781600 M 447.064978,746.662340 l 3.819740,72.884984 M 444.134703,690.749362 l -4.572612,-87.250643 M 436.192403,825.811092 l 0.200359,3.823074 M 434.467804,792.903789 l -1.397351,-26.663047 M 419.537319,794.622997 l 0.289171,5.517705 M 419.067140,785.651454 l -0.626633,-11.956870 M 404.121090,787.073672 l 0.598216,11.414635"
       id="path17" />
  </g>
  <g
     inkscape:label="fill-aeaeae"
     inkscape:groupmode="layer"
     id="fill-aeaeae">
    <path
       style="stroke:#aeaeae"
       d="M 698.449894,921.209042 l -22.505862,-127.637084 M 650.685683,742.465066 l 36.118947,204.840725 M 647.700167,725.533366 l -4.467508,-25.336496 M 622.466545,674.566710 l 43.843040,248.646237 M 628.484877,800.838698 l -11.382079,-64.550976 M 600.659506,643.033176 l 16.148475,91.582552 M 611.124567,794.523810 l -12.828407,-72.753510 M 576.860398,600.202054 l 20.996860,119.079111 M 594.921731,794.773291 l -25.078998,-142.230067 M 557.435656,582.179197 l 7.980350,45.258815 M 581.244696,809.347298 l -30.834609,-174.871756 M 527.392985,503.939069 l 19.860695,112.635600 M 565.929685,814.631884 l -32.905335,-186.615426 M 507.867416,485.344392 l 21.904279,124.225341 M 549.486684,813.519319 l -3.374294,-19.136570 M 514.251330,613.689697 l 31.343221,177.756242 M 512.322987,602.753520 l -22.168915,-125.726163 M 530.869902,800.078629 l 2.216147,12.568396 M 528.423803,786.206109 l -56.271460,-319.131309 M 514.719433,800.625095 l 2.101801,11.919906 M 511.554395,782.675272 l -25.575065,-145.043402 M 450.992954,439.214272 l 34.063878,193.185849 M 508.359109,856.694234 l -5.856300,-33.212729 M 498.542299,801.020335 l 2.071002,11.745235 M 494.151463,776.118669 l -45.451275,-257.766992 M 488.740634,837.572660 l 0.033498,0.189975 M 485.054926,816.669970 l -2.891191,-16.396759 M 475.975185,765.176203 l 1.945041,11.030873 M 470.736951,735.468698 l -25.533391,-144.807059 M 466.182598,801.780008 l 1.490095,8.450748 M 461.851691,777.218212 l -2.076991,-11.779200 M 433.671522,617.400533 l 14.442766,81.908995 M 456.084102,836.648920 l -14.719073,-83.476010 M 437.185502,821.609960 l 1.588089,9.006499 M 432.483402,794.943025 l -4.681133,-26.548026 M 416.848258,798.412047 l 1.219102,6.913872 M 415.119929,788.610206 l -2.139636,-12.134480 M 399.483327,792.070959 l 2.128060,12.068828"
       id="path20" />
  </g>
  <g
     inkscape:label="fill-cfcfcf"
     inkscape:groupmode="layer"
     id="fill-cfcfcf">
    <path
       style="stroke:#cfcfcf"
       d="M 695.021827,880.148435 l -52.094999,-160.331920 M 630.026978,680.114857 l 12.394698,38.146957 M 702.684147,961.979854 l -110.481144,-340.025998 M 638.998435,824.224612 l 30.113047,92.678429 M 634.839139,811.423615 l -74.171973,-228.277861 M 562.111683,645.840744 l 49.356049,151.902299 M 554.026344,620.956630 l -44.294686,-136.325027 M 538.157137,630.365454 l 54.884955,168.918522 M 531.991724,611.390266 l -44.489307,-136.924009 M 513.444578,612.557243 l 64.979661,199.986832 M 511.670912,607.098459 l -50.629331,-155.821059 M 454.309833,488.808436 l 106.910505,329.036702 M 443.460907,455.418874 l -5.651758,-17.394322 M 536.114153,798.825467 l 4.668030,14.366720 M 532.946179,789.075447 l -86.465807,-266.114392 M 517.440041,799.601683 l 4.217207,12.979228 M 512.584405,784.657575 l -69.084153,-212.619160 M 498.740690,800.300224 l 4.129425,12.709062 M 491.135369,776.893453 l -4.145715,-12.759200 M 435.741554,606.408821 l 48.745454,150.023082 M 500.527449,864.048526 l -2.940509,-9.049956 M 487.748355,824.718519 l 5.198955,16.000739 M 486.180315,819.892587 l -6.403400,-19.707640 M 468.327880,764.948442 l 3.958917,12.184294 M 447.284294,700.182944 l -19.274559,-59.320993 M 443.945537,748.156531 l 20.338800,62.596390 M 454.899802,840.119515 l -5.048175,-15.536685 M 444.842282,809.165652 l 3.868624,11.906401 M 439.339031,792.228387 l -8.609571,-26.497534 M 419.960739,790.837360 l 3.361909,10.346891 M 418.731731,787.054861 l -4.115458,-12.666076 M 400.513064,789.232793 l 3.845534,11.835337 M 388.817098,811.485537 l -0.943464,-2.903684"
       id="path23" />
  </g>
  <g
     inkscape:label="stroke-000000"
     inkscape:groupmode="layer"
     id="stroke-000000">
    <path
       style="fill:none;stroke:#000000"
       d="m 560.24995,818.1562 c 2.88113,-1.13614 7.35372,-2.36514 9.90625,-2.71875 2.55254,-0.35361 6.20204,-1.59721 8.125,-2.78125 5.0355,-3.10057 15.71875,-13.29847 15.71875,-15 0,-1.78143 2.13906,-2.65625 6.46875,-2.65625 3.00821,0 3.54767,0.48763 6,5.5 1.95405,3.99394 3.23512,5.5 4.71875,5.5 1.65871,0 1.90992,-0.4233 1.34375,-2.25 -1.642,-5.29781 -1.6115,-6.45115 0.25,-8.75 l 1.9375,-2.375 4.09375,3.5 c 2.2484,1.92456 5.36819,4.09214 6.90625,4.8125 1.53806,0.72036 3.45625,1.62974 4.28125,2.03125 0.825,0.4015 1.95,2.05953 2.5,3.6875 0.55,1.62797 1.90432,4.28696 3,5.90625 1.09568,1.61928 2.50993,6.0875 3.15625,9.9375 1.75539,10.45648 2.83839,14.66835 4.625,18.09375 0.88746,1.70149 1.90452,5.52649 2.28125,8.5 0.37674,2.97351 1.75889,7.97907 3.0625,11.125 2.11359,5.10058 2.375,7.25059 2.375,19.90625 0,9.43456 0.50018,15.89897 1.46875,19.28125 0.80136,2.79834 2.37447,9.13811 3.5,14.0625 1.12553,4.92438 2.42473,9.33098 2.90625,9.8125 0.48152,0.48152 2.7334,1.13349 5,1.4375 3.81917,0.51226 4.137,0.36344 4.1875,-1.84375 0.03,-1.30992 0.81897,-5.49556 1.78125,-9.3125 l 1.75,-6.9375 4.34375,7.4375 c 3.73644,6.42178 4.43406,8.54455 5.09375,15.5 0.77097,8.12875 3.55094,16.11861 11,31.6875 1.77628,3.7125 3.83823,6.75 4.59375,6.75 0.75552,0 1.375,-0.45 1.375,-1 0,-0.55 0.70943,-1 1.5625,-1 1.8622,0 4.4375,-5.7556 4.4375,-9.90625 0,-1.63927 -1.09017,-6.49035 -2.40625,-10.78125 -1.31609,-4.29089 -3.35353,-11.59579 -4.5625,-16.21875 -1.20896,-4.62295 -2.44517,-9.12295 -2.71875,-10 -0.27358,-0.87704 1.80456,0.88125 4.59375,3.90625 l 5.0625,5.5 -0.1875,6.5 c -0.16215,5.7072 0.22986,7.20133 3.125,12.25 4.37378,7.62719 6.71834,7.78156 7.59375,0.5 0.53616,-4.4597 0.0178,-7.0564 -3.34375,-17.25 -18.94473,-57.4484 -19.80467,-60.53339 -22.65625,-80.875 -0.83731,-5.97286 -1.7419,-11.21933 -2.03125,-11.6875 -0.28935,-0.46817 -1.39949,-5.94728 -2.46875,-12.15625 -2.47411,-14.36669 -3.61094,-19.62416 -4.875,-22.9375 -0.55672,-1.45925 -1.50093,-5.50925 -2.09375,-9 -2.03407,-11.97742 -6.54776,-29.69994 -8.5625,-33.5625 -0.80071,-1.53508 -1.46575,-3.86082 -1.46875,-5.1875 -0.003,-1.32668 -1.10411,-4.32766 -2.46875,-6.65625 -1.69172,-2.8867 -2.89003,-7.18559 -3.75,-13.5 -0.99929,-7.33732 -1.63879,-9.35461 -3.03125,-9.71875 -2.00501,-0.52432 -2.28298,-2.27952 -0.625,-3.9375 0.83816,-0.83816 -1.41374,-4.93985 -8.75,-15.875 -5.43324,-8.09858 -10.55,-15.93497 -11.375,-17.4375 -0.825,-1.50253 -4.50676,-5.5931 -8.1875,-9.09375 C 621.45068,671.87336 618.60646,668.24928 614,660 c -1.68918,-3.025 -5.07102,-8.2 -7.53125,-11.5 -4.88964,-6.55865 -10.56833,-17.06842 -13.625,-25.21875 C 590.36287,616.66623 582.19757,604.11414 575.75,597 c -5.02826,-5.54809 -20.55996,-19 -21.9375,-19 -0.40895,0 -2.3212,-2.3625 -4.25,-5.25 -1.92879,-2.8875 -4.20096,-6.15656 -5.03125,-7.28125 -1.07739,-1.45942 -1.6364,-5.53456 -1.96875,-14.21875 -0.25612,-6.6924 -0.97594,-14.11084 -1.59375,-16.46875 -3.47022,-13.24445 -7.37859,-23.84886 -10.625,-28.75 C 526.36141,500.01908 510.49903,484 508.53125,484 c -0.66778,0 -1.9721,-0.84276 -2.90625,-1.875 -0.93416,-1.03223 -4.26766,-2.6706 -7.40625,-3.625 -3.13859,-0.95441 -8.05281,-2.81163 -10.90625,-4.125 -2.85345,-1.31336 -5.65911,-2.375 -6.21875,-2.375 -1.78828,0 -7.55908,-4.38188 -11.1875,-8.5 -1.93364,-2.1946 -6.53116,-8.58975 -10.21875,-14.1875 -7.40223,-11.23656 -15.35033,-18.97727 -20.46875,-19.9375 -0.91195,-0.17107 -1.79024,-0.24594 -2.5,-0.25 -0.70976,-0.004 -1.24133,0.0851 -1.40625,0.25 -0.59605,0.59606 2.15889,4.93045 7.375,11.625 l 2.71875,3.5 -3.4375,-3.03125 c -7.2449,-6.35517 -8.00601,-6.83774 -9,-5.84375 -0.63734,0.63734 0.14778,2.71277 2.21875,5.9375 7.4927,11.66695 15.60676,26.63883 16.59375,30.625 2.73335,11.03921 3.33427,15.71992 2.28125,17.6875 -0.58352,1.09032 -1.0625,3.34965 -1.0625,5 0,1.65035 -0.4997,4.2642 -1.125,5.8125 -0.62531,1.54831 -1.50635,4.6125 -1.9375,6.8125 -0.43115,2.2 -1.26487,6.025 -1.875,8.5 -0.61013,2.475 -1.58894,6.75 -2.15625,9.5 -0.56731,2.75 -1.71901,6.92572 -2.5625,9.28125 -1.03126,2.8799 -1.19565,4.68151 -0.53125,5.5 0.60142,0.7409 0.66841,3.1753 0.1875,6.21875 -0.43454,2.75 -0.38671,10.175 0.0937,16.5 0.48046,6.325 0.862,14.98495 0.875,19.25 0.0228,7.47557 -0.16669,8.1255 -5.46875,18.28125 -3.025,5.79419 -5.5,11.81183 -5.5,13.34375 0,1.53192 -1.125,6.08233 -2.5,10.125 -7.26809,21.36908 1.30786,52.85191 24.0625,88.3125 3.81445,5.94439 10.26437,16.06939 14.34375,22.5"
       id="path3234"
       inkscape:connector-curvature="0"
       sodipodi:nodetypes="cssssssscccsssssssssssssscccssssssssscccssssssssscsssssssssssssssssssssssscsscccssssssssssssssssssc" />
  </g>
</svg>
