<?xml version="1.0" encoding="UTF-8" standalone="no"?>
<!-- Created with Inkscape (http://www.inkscape.org/) -->

<svg
   xmlns:dc="http://purl.org/dc/elements/1.1/"
   xmlns:cc="http://creativecommons.org/ns#"
   xmlns:rdf="http://www.w3.org/1999/02/22-rdf-syntax-ns#"
   xmlns:svg="http://www.w3.org/2000/svg"
   xmlns="http://www.w3.org/2000/svg"
   xmlns:sodipodi="http://sodipodi.sourceforge.net/DTD/sodipodi-0.dtd"
   xmlns:inkscape="http://www.inkscape.org/namespaces/inkscape"
   id="svg2"
   version="1.1"
   inkscape:version="0.48.3.1 r9886"
   width="1000"
   height="1197"
   sodipodi:docname="hantologie-_0003_petit2_hatched_1398274977.svg">
  <defs
     id="defs27" />
  <sodipodi:namedview
     pagecolor="#ffffff"
     bordercolor="#666666"
     borderopacity="1"
     objecttolerance="10"
     gridtolerance="10"
     guidetolerance="10"
     inkscape:pageopacity="0"
     inkscape:pageshadow="2"
     inkscape:window-width="640"
     inkscape:window-height="480"
     id="namedview25" />
  <metadata
     id="metadata8">
    <rdf:RDF>
      <cc:Work
         rdf:about="">
        <dc:format>image/svg+xml </dc:format>
        <dc:type
           rdf:resource="http://purl.org/dc/dcmitype/StillImage" />
        <dc:title />
      </cc:Work>
    </rdf:RDF>
  </metadata>
  <g
     inkscape:label="fill-0e0e0e"
     inkscape:groupmode="layer"
     id="fill-0e0e0e">
    <path
       style="stroke:#0e0e0e"
       d="M 571.518238,466.372493 l -2.360239,-0.812695 M 444.798201,422.739285 l 13.183288,4.539370 M 622.987254,505.247110 l -4.061578,-1.398513 M 509.717739,466.245289 l 8.992240,3.096277 M 499.690514,462.792638 l -0.275967,-0.095023 M 476.574922,454.833301 l 19.212467,6.615383 M 485.061619,478.907919 l -30.040240,-10.343684 M 656.731822,559.171124 l 11.247594,3.872857 M 614.806597,544.735112 l -27.256279,-9.385090 M 537.902580,518.254935 l 0.672138,0.231436 M 527.920260,514.817747 l -10.695087,-3.682614 M 656.704782,580.314227 l 34.811281,11.986485 M 650.479125,578.170562 l -2.685652,-0.924744 M 603.266627,561.913995 l 41.971420,14.451919 M 588.382977,556.789143 l -4.069890,-1.401376 M 497.273131,525.417507 l 2.891929,0.995771 M 701.688097,616.955638 l -52.030214,-17.915439 M 599.974562,581.932860 l 46.179941,15.901029 M 585.583159,576.977502 l -16.054533,-5.528019 M 547.392109,563.827269 l 9.131916,3.144371 M 649.130817,620.011129 l -58.326838,-20.083541 M 517.473667,574.677937 l 45.150344,15.546510 M 612.479786,628.543581 l -27.684956,-9.532695 M 539.066131,603.265232 l 43.035117,14.818179 M 534.041613,601.535152 l -71.101536,-24.482222 M 556.585968,630.450210 l 10.203974,3.513510 M 549.492020,628.007567 l -166.578019,-57.357412"
       id="path5" />
  </g>
  <g
     inkscape:label="fill-2f2f2f"
     inkscape:groupmode="layer"
     id="fill-2f2f2f">
    <path
       style="stroke:#2f2f2f"
       d="M 527.902386,330.180749 l -9.153142,-2.798396 M 491.279210,318.983920 l 24.863077,7.601406 M 615.627500,466.798642 l -3.967139,-1.212876 M 632.988488,494.065956 l 9.066051,2.771770 M 611.475074,487.488645 l -34.802961,-10.640333 M 567.725422,474.113034 l 4.751827,1.452779 M 512.287019,457.163813 l -4.718127,-1.442476 M 485.364693,448.932832 l 11.651636,3.562263 M 483.102191,448.241116 l -4.793329,-1.465468 M 448.744988,437.737065 l 15.608297,4.771935 M 658.122084,523.709594 l -28.406149,-8.684631 M 617.221383,511.204995 l 9.414352,2.878256 M 608.901875,508.661466 l -18.454164,-5.642004 M 497.039914,474.461832 l 52.375203,16.012707 M 475.202360,467.785422 l -28.216854,-8.626758 M 651.553888,543.661022 l 8.321978,2.544284 M 646.714793,542.181562 l -8.485303,-2.594217 M 622.728963,534.848358 l 8.059316,2.463980 M 620.589349,534.194212 l -41.150115,-12.580853 M 554.111248,513.869817 l 12.418847,3.796823 M 546.825714,511.642406 l -10.942464,-3.345447 M 515.014025,501.916596 l 14.776311,4.517572 M 504.023345,498.556408 l -27.175591,-8.308412 M 680.630420,574.510137 l 6.826286,2.087005 M 675.988119,573.090843 l -23.213190,-7.096984 M 642.612633,562.886933 l 3.146286,0.961916 M 637.316335,561.267692 l -73.114130,-22.353233 M 492.352633,516.947840 l 7.153446,2.187028 M 716.221934,607.351081 l -100.115094,-30.608256 M 517.482552,546.590354 l 94.139969,28.781477 M 501.503481,541.705062 l -1.137311,-0.347711 M 598.056132,593.183697 l 99.803961,30.513133 M 594.570339,592.117983 l -22.871615,-6.992554 M 521.937412,569.911869 l 42.016046,12.845594 M 501.165454,563.561244 l -1.067819,-0.326465 M 465.668339,574.668214 l 174.983082,53.497697 M 608.276261,640.227358 l -237.009932,-72.461208 M 357.058356,563.422336 l 7.202427,2.202003"
       id="path8" />
  </g>
  <g
     inkscape:label="fill-4e4e4e"
     inkscape:groupmode="layer"
     id="fill-4e4e4e">
    <path
       style="stroke:#4e4e4e"
       d="M 533.779493,334.064528 l -43.386071,-10.817363 M 547.765065,361.255636 l 2.231286,0.556322 M 542.503138,359.943690 l -0.223796,-0.055799 M 571.538102,390.887033 l 10.767644,2.684675 M 612.374240,448.476853 l -24.246031,-6.045214 M 443.733472,406.429987 l 5.484781,1.367509 M 641.656334,479.481812 l -13.546897,-3.377621 M 608.711211,471.267671 l 16.292866,4.062268 M 605.032107,470.350367 l -7.474412,-1.863580 M 572.826446,462.320594 l 19.883938,4.957623 M 570.891059,461.838048 l -6.779427,-1.690301 M 547.451293,455.993858 l 10.118683,2.522871 M 498.924015,443.894648 l -5.379048,-1.341147 M 411.814163,422.175723 l 61.336799,15.292982 M 660.212442,507.812483 l -28.551521,-7.118694 M 587.059996,489.573530 l 39.694990,9.897072 M 570.352619,485.407913 l -25.890945,-6.455338 M 484.049746,463.890190 l 50.071572,12.484245 M 473.447431,461.246736 l -48.599255,-12.117155 M 376.960120,437.189747 l 12.603367,3.142372 M 668.194822,533.506828 l -11.111575,-2.770427 M 525.592811,497.952153 l 124.866165,31.132632 M 520.653454,496.720633 l -55.920784,-13.942617 M 655.342503,554.006498 l 24.977448,6.227577 M 647.952528,552.163970 l -16.097222,-4.013488 M 581.978739,535.714857 l 41.490529,10.344751 M 577.643433,534.633944 l -10.003438,-2.494137 M 523.426937,521.116253 l 15.595290,3.888343 M 498.980911,515.021175 l -9.448107,-2.355678 M 583.708551,559.850261 l 137.495232,34.281411 M 578.215357,558.480654 l -67.085617,-16.726323 M 498.395071,538.579222 l 3.925377,0.978706 M 735.975643,621.518825 l -5.219082,-1.301263 M 506.372778,564.272401 l 217.603314,54.254600 M 502.065567,563.198493 l -2.218047,-0.553021 M 447.227410,573.229918 l 199.167053,49.657924 M 436.307559,570.507293 l -8.658155,-2.158720 M 407.194904,563.248693 l 15.417468,3.844006 M 403.721422,562.382657 l -16.504289,-4.114981 M 307.908072,562.197819 l 308.479421,76.912558 M 546.531622,645.397466 l -11.653254,-2.905483"
       id="path11" />
  </g>
  <g
     inkscape:label="fill-6c6c6c"
     inkscape:groupmode="layer"
     id="fill-6c6c6c">
    <path
       style="stroke:#6c6c6c"
       d="M 540.315131,339.683529 l -43.418855,-9.228962 M 547.801333,365.810945 l 17.528539,3.725806 M 536.622561,363.434824 l -1.508346,-0.320609 M 574.277720,395.974849 l 16.769450,3.564457 M 612.278964,428.588437 l -26.772904,-5.690756 M 427.936375,389.405210 l 17.958925,3.817287 M 631.742824,457.261783 l -4.457395,-0.947449 M 589.603822,448.304861 l 35.409808,7.526587 M 580.285826,446.324260 l -12.588380,-2.675743 M 468.236189,422.507374 l 11.293108,2.400424 M 449.007837,418.420262 l -40.585538,-8.626722 M 638.939887,483.327740 l 9.293589,1.975413 M 637.529632,483.027981 l -75.766009,-16.104562 M 396.222358,431.736536 l 140.455393,29.854715 M 663.852674,513.159290 l -89.625322,-19.050450 M 404.423070,458.015826 l 167.193366,35.538047 M 670.597553,539.129133 l -172.805730,-36.730992 M 652.041169,559.721026 l 35.055514,7.451280 M 648.978319,559.069997 l -85.213821,-18.112757 M 493.069739,525.930606 l 64.310258,13.669567 M 724.153696,599.585191 l -220.291024,-46.824303 M 708.414103,620.775812 l 20.853563,4.432562 M 705.866327,620.234265 l -262.930449,-55.887592 M 437.570079,563.206137 l 0.050447,0.010723 M 432.167521,562.057788 l -10.107829,-2.148485 M 299.400357,558.373431 l 341.420326,72.571131 M 555.562899,637.358634 l -26.760504,-5.688121"
       id="path14" />
  </g>
  <g
     inkscape:label="fill-8e8e8e"
     inkscape:groupmode="layer"
     id="fill-8e8e8e">
    <path
       style="stroke:#8e8e8e"
       d="M 509.117884,313.093416 l -39.232726,-6.213853 M 505.018218,337.755721 l 40.701700,6.446516 M 571.807588,373.645746 l -23.309427,-3.691850 M 574.182666,399.333550 l 20.799339,3.294292 M 430.325742,376.548851 l -4.928542,-0.780604 M 583.328968,426.093810 l 31.656009,5.013819 M 461.113591,406.736796 l -6.695157,-1.060409 M 434.607849,402.538699 l 16.150581,2.558001 M 634.364416,459.488659 l -82.553776,-13.075234 M 483.266126,435.557041 l 13.029080,2.063604 M 475.430609,434.316017 l -67.595176,-10.706024 M 388.158841,420.493527 l 13.334896,2.112040 M 650.651273,487.379872 l -86.959639,-13.773054 M 362.532873,441.746400 l 200.338916,31.730567 M 665.142671,514.986712 l -204.402767,-32.374218 M 553.464581,522.610268 l 118.420565,18.755975 M 546.358546,521.484783 l -28.431108,-4.503045 M 487.457103,512.155711 l 17.714717,2.805736 M 688.698846,569.340900 l -37.843224,-5.993778 M 496.847923,538.954699 l 152.175774,24.102275 M 725.598166,600.496806 l -227.908555,-36.097169 M 298.079742,558.096168 l 424.794023,67.280764 M 633.446068,636.524604 l -192.836371,-30.542281 M 534.432346,646.153999 l 10.993805,1.741248"
       id="path17" />
  </g>
  <g
     inkscape:label="fill-aeaeae"
     inkscape:groupmode="layer"
     id="fill-aeaeae">
    <path
       style="stroke:#aeaeae"
       d="M 517.700380,318.684498 l -44.319707,-5.441776 M 511.916383,344.169568 l 39.451215,4.844000 M 576.161648,378.253150 l -27.075481,-3.324451 M 577.168266,404.572003 l 22.240497,2.730790 M 442.967605,388.094234 l -20.503720,-2.517540 M 572.078420,430.142304 l 47.046002,5.776523 M 474.056164,418.106684 l -68.659864,-8.430371 M 545.775536,453.107971 l 92.492886,11.356698 M 517.169821,449.595631 l -21.191258,-2.601959 M 396.106071,434.730872 l 97.712361,11.997569 M 654.512017,492.654388 l -243.830593,-29.938632 M 486.263806,498.191361 l 181.586452,22.296013 M 674.463322,547.494611 l -183.298004,-22.506165 M 501.420539,552.442884 l 202.127996,24.818197 M 727.789025,606.432695 l -421.688577,-51.776847 M 393.383381,591.568100 l 289.673785,35.567468 M 604.521747,643.687887 l -21.759420,-2.671721 M 528.588683,634.364479 l 28.471403,3.495849"
       id="path20" />
  </g>
  <g
     inkscape:label="fill-cfcfcf"
     inkscape:groupmode="layer"
     id="fill-cfcfcf">
    <path
       style="stroke:#cfcfcf"
       d="M 531.917356,328.852646 l -45.544417,-3.184776 M 520.406040,356.116069 l 41.582437,2.907727 M 585.681051,388.748916 l -29.887206,-2.089917 M 424.409600,377.471717 l 10.780480,0.753845 M 608.851887,418.437551 l -26.171964,-1.830122 M 435.685587,406.328584 l 29.310010,2.049556 M 421.500877,405.336693 l -8.470795,-0.592336 M 551.606485,442.502936 l 77.063378,5.388796 M 501.766525,439.017787 l -113.889940,-7.963960 M 561.940883,471.293961 l 85.029154,5.945818 M 560.075709,471.163535 l -160.852100,-11.247875 M 475.899741,493.345751 l 187.672624,13.123348 M 672.534428,535.164161 l -183.452949,-12.828280 M 499.620124,551.141188 l 188.377297,13.172624 M 725.542803,595.007614 l -413.306844,-28.901230 M 422.793372,601.905685 l 321.559768,22.485649 M 613.631901,643.318788 l -37.836844,-2.645810 M 528.819327,637.388115 l 28.236405,1.974482"
       id="path23" />
  </g>
</svg>
