<?xml version="1.0" encoding="UTF-8" standalone="no"?>
<!-- Created with Inkscape (http://www.inkscape.org/) -->

<svg
   xmlns:dc="http://purl.org/dc/elements/1.1/"
   xmlns:cc="http://creativecommons.org/ns#"
   xmlns:rdf="http://www.w3.org/1999/02/22-rdf-syntax-ns#"
   xmlns:svg="http://www.w3.org/2000/svg"
   xmlns="http://www.w3.org/2000/svg"
   xmlns:sodipodi="http://sodipodi.sourceforge.net/DTD/sodipodi-0.dtd"
   xmlns:inkscape="http://www.inkscape.org/namespaces/inkscape"
   id="svg2"
   version="1.1"
   inkscape:version="0.48.3.1 r9886"
   width="1500"
   height="1911"
   sodipodi:docname="hantologie-_0000_arbre-02_hatched_1398270485.svg">
  <defs
     id="defs29" />
  <sodipodi:namedview
     pagecolor="#ffffff"
     bordercolor="#666666"
     borderopacity="1"
     objecttolerance="10"
     gridtolerance="10"
     guidetolerance="10"
     inkscape:pageopacity="0"
     inkscape:pageshadow="2"
     inkscape:window-width="640"
     inkscape:window-height="480"
     id="namedview27" />
  <metadata
     id="metadata8">
    <rdf:RDF>
      <cc:Work
         rdf:about="">
        <dc:format>image/svg+xml </dc:format>
        <dc:type
           rdf:resource="http://purl.org/dc/dcmitype/StillImage" />
        <dc:title />
      </cc:Work>
    </rdf:RDF>
  </metadata>
  <g
     inkscape:label="fill-0a0a0a"
     inkscape:groupmode="layer"
     id="fill-0a0a0a">
    <path
       style="stroke:#0a0a0a"
       d="M 399.914601,799.173879 l 0.000000,2.296723 M 404.914601,794.025515 l 0.000000,-3.305381 M 409.914601,783.777266 l 0.000000,5.576909 M 414.914601,785.720410 l 0.000000,-7.969891 M 419.914601,775.790929 l 0.000000,7.088947 M 424.914601,780.167322 l 0.000000,-4.034396 M 424.914601,789.724645 l 0.000000,4.533334 M 424.914601,797.938030 l 0.000000,-2.146073 M 429.914601,770.326650 l 0.000000,5.004313 M 429.914601,793.532325 l 0.000000,-10.125123 M 434.914601,767.462956 l 0.000000,23.461195 M 439.914601,788.804750 l 0.000000,-28.148783 M 444.914601,753.353515 l 0.000000,33.923245 M 444.914601,819.913819 l 0.000000,-3.043499 M 449.914601,601.786379 l 0.000000,6.124769 M 449.914601,616.438809 l 0.000000,-1.376112 M 449.914601,766.812238 l 0.000000,24.947313 M 449.914601,816.095912 l 0.000000,-10.021275 M 449.914601,835.857173 l 0.000000,5.739545 M 454.914601,455.996367 l 0.000000,-4.728560 M 454.914601,571.729427 l 0.000000,0.410643 M 454.914601,606.272051 l 0.000000,-4.088939 M 454.914601,648.902030 l 0.000000,6.333342 M 454.914601,772.114963 l 0.000000,-3.703055 M 454.914601,773.885037 l 0.000000,1.523398 M 454.914601,798.325487 l 0.000000,-3.990643 M 454.914601,810.096450 l 0.000000,9.279784 M 459.914601,504.248782 l 0.000000,-2.357254 M 459.914601,530.105994 l 0.000000,2.731207 M 459.914601,600.078846 l 0.000000,-13.371619 M 459.914601,632.071944 l 0.000000,5.361493 M 459.914601,659.803034 l 0.000000,-3.709238 M 459.914601,768.448423 l 0.000000,4.882837 M 464.914601,606.951793 l 0.000000,-22.915831 M 464.914601,646.077273 l 0.000000,2.710619 M 464.914601,773.085362 l 0.000000,-4.638249 M 464.914601,804.193866 l 0.000000,2.620249 M 469.914601,500.940752 l 0.000000,-2.569819 M 469.914601,507.509237 l 0.000000,1.251111 M 469.914601,527.318988 l 0.000000,-3.099119 M 469.914601,532.016452 l 0.000000,6.303037 M 469.914601,550.949212 l 0.000000,-2.476952 M 469.914601,580.785274 l 0.000000,34.152546 M 469.914601,651.710520 l 0.000000,-6.893010 M 469.914601,768.493241 l 0.000000,4.376069 M 469.914601,806.963515 l 0.000000,-0.726693 M 474.914601,484.063415 l 0.000000,5.804828 M 474.914601,500.027043 l 0.000000,-3.290960 M 474.914601,518.576523 l 0.000000,27.088301 M 474.914601,620.526170 l 0.000000,-39.373813 M 474.914601,642.253439 l 0.000000,10.465700 M 474.914601,674.496676 l 0.000000,-4.487850 M 474.914601,768.688973 l 0.000000,3.762693 M 479.914601,506.987421 l 0.000000,-2.551367 M 479.914601,518.042446 l 0.000000,18.001175 M 479.914601,546.547465 l 0.000000,-6.682374 M 479.914601,579.445048 l 0.000000,23.616402 M 479.914601,614.766733 l 0.000000,-3.403968 M 479.914601,617.159743 l 0.000000,10.896459 M 479.914601,654.512770 l 0.000000,-14.127723 M 479.914601,726.660630 l 0.000000,7.220482 M 479.914601,740.734783 l 0.000000,-2.658090 M 479.914601,803.746098 l 0.000000,3.882539 M 484.914601,495.650335 l 0.000000,-6.967312 M 484.914601,499.850338 l 0.000000,9.248896 M 484.914601,546.935207 l 0.000000,-20.480722 M 484.914601,563.322371 l 0.000000,2.155899 M 484.914601,598.466203 l 0.000000,-16.606352 M 484.914601,619.694970 l 0.000000,9.930420 M 484.914601,657.546199 l 0.000000,-15.494799 M 484.914601,690.836182 l 0.000000,8.188670 M 484.914601,735.088446 l 0.000000,-5.538995 M 484.914601,743.249672 l 0.000000,3.161400 M 484.914601,770.455304 l 0.000000,-2.326308 M 484.914601,802.448772 l 0.000000,9.798043 M 489.914601,484.964480 l 0.000000,-1.928960 M 489.914601,486.869385 l 0.000000,25.338661 M 489.914601,543.931445 l 0.000000,-11.573716 M 489.914601,544.345466 l 0.000000,6.081180 M 489.914601,589.540885 l 0.000000,-9.601178 M 489.914601,621.834673 l 0.000000,9.895447 M 489.914601,662.565143 l 0.000000,-12.932395 M 489.914601,695.815947 l 0.000000,9.259295 M 489.914601,731.216115 l 0.000000,-8.899284 M 489.914601,767.499625 l 0.000000,3.208180 M 489.914601,820.910731 l 0.000000,-17.589328 M 494.914601,483.968298 l 0.000000,31.624965 M 494.914601,523.762006 l 0.000000,-4.525674 M 494.914601,534.905023 l 0.000000,11.934283 M 494.914601,626.674043 l 0.000000,-6.542849 M 494.914601,629.792805 l 0.000000,3.991076 M 494.914601,665.922413 l 0.000000,-9.937156 M 494.914601,699.391935 l 0.000000,11.970999 M 494.914601,730.905009 l 0.000000,-9.224400 M 494.914601,736.284852 l 0.000000,3.471041 M 494.914601,757.817704 l 0.000000,-3.705354 M 494.914601,765.871561 l 0.000000,6.540185 M 494.914601,810.727319 l 0.000000,-7.041449 M 494.914601,819.561653 l 0.000000,18.328796 M 499.914601,519.147778 l 0.000000,-29.398913 M 499.914601,521.277648 l 0.000000,4.536956 M 499.914601,552.638400 l 0.000000,-16.310893 M 499.914601,622.586776 l 0.000000,22.377245 M 499.914601,671.875038 l 0.000000,-10.464681 M 499.914601,701.954365 l 0.000000,4.309012 M 499.914601,714.589759 l 0.000000,-4.853136 M 499.914601,725.069632 l 0.000000,4.867891 M 499.914601,745.255005 l 0.000000,-3.992653 M 499.914601,757.774872 l 0.000000,15.642591 M 499.914601,810.179594 l 0.000000,-6.563790 M 499.914601,824.373334 l 0.000000,15.489646 M 499.914601,860.569528 l 0.000000,-3.591946 M 504.914601,491.681630 l 0.000000,10.766314 M 504.914601,509.756702 l 0.000000,-2.164331 M 504.914601,512.396407 l 0.000000,6.768475 M 504.914601,555.973786 l 0.000000,-7.811516 M 504.914601,627.175762 l 0.000000,21.460305 M 504.914601,681.473697 l 0.000000,-22.290019 M 504.914601,701.460980 l 0.000000,3.945292 M 504.914601,716.489939 l 0.000000,-5.896211 M 504.914601,726.513842 l 0.000000,1.925256 M 504.914601,773.989343 l 0.000000,-23.173760 M 504.914601,803.545738 l 0.000000,6.320417 M 504.914601,856.574417 l 0.000000,-24.291801 M 509.914601,491.423900 l 0.000000,5.918598 M 509.914601,514.831212 l 0.000000,-11.579638 M 509.914601,525.794678 l 0.000000,0.410643 M 509.914601,584.075906 l 0.000000,-1.868162 M 509.914601,632.431750 l 0.000000,56.165119 M 509.914601,718.046240 l 0.000000,-18.635507 M 509.914601,754.713239 l 0.000000,19.727442 M 509.914601,809.724118 l 0.000000,-6.362274 M 514.914601,494.623070 l 0.000000,5.360785 M 514.914601,524.657063 l 0.000000,-18.625742 M 514.914601,536.911896 l 0.000000,1.038418 M 514.914601,647.200676 l 0.000000,-6.555056 M 514.914601,652.124502 l 0.000000,6.175492 M 514.914601,672.562886 l 0.000000,-12.232494 M 514.914601,675.871967 l 0.000000,44.905175 M 514.914601,774.652817 l 0.000000,-15.834116 M 514.914601,803.163817 l 0.000000,6.500450 M 519.914601,524.175112 l 0.000000,-13.081221 M 519.914601,525.820377 l 0.000000,13.112142 M 519.914601,650.855684 l 0.000000,-5.625406 M 519.914601,654.669537 l 0.000000,22.153717 M 519.914601,722.717091 l 0.000000,-41.801956 M 519.914601,764.984941 l 0.000000,9.697498 M 519.914601,809.604417 l 0.000000,-6.638626 M 524.914601,517.402551 l 0.000000,7.074446 M 524.914601,546.321732 l 0.000000,-14.815502 M 524.914601,595.636949 l 0.000000,6.270969 M 524.914601,681.368410 l 0.000000,-25.425852 M 524.914601,685.543488 l 0.000000,40.626268 M 524.914601,773.881266 l 0.000000,-6.154861 M 524.914601,802.767765 l 0.000000,6.806510 M 529.914601,544.368292 l 0.000000,-3.055233 M 529.914601,601.876094 l 0.000000,3.988780 M 529.914601,676.684692 l 0.000000,-27.387589 M 529.914601,680.450837 l 0.000000,5.575053 M 529.914601,733.340737 l 0.000000,-43.285079 M 529.914601,776.481659 l 0.000000,4.938477 M 529.914601,809.575942 l 0.000000,-7.006203 M 534.914601,605.590459 l 0.000000,2.601989 M 534.914601,678.816402 l 0.000000,-43.735456 M 534.914601,685.859909 l 0.000000,4.737367 M 534.914601,742.831271 l 0.000000,-48.565282 M 534.914601,767.274433 l 0.000000,2.526269 M 534.914601,782.031106 l 0.000000,-5.394451 M 534.914601,802.400650 l 0.000000,7.176958 M 539.914601,609.304663 l 0.000000,-0.496792 M 539.914601,651.517879 l 0.000000,7.641770 M 539.914601,672.954456 l 0.000000,-4.512030 M 539.914601,690.932676 l 0.000000,3.934589 M 539.914601,748.920617 l 0.000000,-50.485314 M 539.914601,776.912836 l 0.000000,5.472528 M 539.914601,809.656620 l 0.000000,-7.419657 M 544.914601,654.478076 l 0.000000,6.868816 M 544.914601,698.841609 l 0.000000,-3.035624 M 544.914601,702.525838 l 0.000000,52.651961 M 544.914601,783.001655 l 0.000000,-7.424997 M 544.914601,800.179349 l 0.000000,9.629779 M 549.914601,662.316301 l 0.000000,-0.549900 M 549.914601,700.249880 l 0.000000,2.512630 M 549.914601,760.231028 l 0.000000,-53.614655 M 549.914601,771.779831 l 0.000000,11.760709 M 549.914601,810.462047 l 0.000000,-15.151865 M 554.914601,710.057830 l 0.000000,56.209783 M 554.914601,783.653243 l 0.000000,-16.970030 M 554.914601,790.535026 l 0.000000,21.680929 M 559.914601,701.259611 l 0.000000,-0.733670 M 559.914601,713.366826 l 0.000000,24.850004 M 559.914601,782.203508 l 0.000000,-40.702946 M 559.914601,787.021802 l 0.000000,27.270428 M 564.914601,678.181188 l 0.000000,-2.186467 M 564.914601,705.571336 l 0.000000,1.462239 M 564.914601,724.724748 l 0.000000,-7.155056 M 564.914601,732.534325 l 0.000000,48.816559 M 564.914601,811.076292 l 0.000000,-24.722188 M 569.914601,681.764757 l 0.000000,1.553759 M 569.914601,712.325662 l 0.000000,-2.425900 M 569.914601,722.040129 l 0.000000,11.711157 M 569.914601,780.289875 l 0.000000,-39.296905 M 569.914601,783.964177 l 0.000000,24.849148 M 574.914601,717.378382 l 0.000000,-2.462785 M 574.914601,726.754133 l 0.000000,38.708101 M 574.914601,774.779130 l 0.000000,-5.893443 M 574.914601,777.285543 l 0.000000,27.166617 M 574.914601,809.038637 l 0.000000,-2.988435 M 579.914601,720.229165 l 0.000000,2.021200 M 579.914601,756.510954 l 0.000000,-24.992134 M 579.914601,761.392535 l 0.000000,15.485073 M 579.914601,803.158639 l 0.000000,-22.248261 M 584.914601,725.902383 l 0.000000,0.906051 M 584.914601,760.676567 l 0.000000,-24.393060 M 584.914601,770.507064 l 0.000000,8.559087 M 584.914601,798.312413 l 0.000000,-14.767094 M 589.914601,741.048195 l 0.000000,26.315565 M 589.914601,792.055871 l 0.000000,-9.304649 M 594.914601,745.812882 l 0.000000,25.052165 M 599.914601,671.407334 l 0.000000,-3.091847 M 599.914601,750.749091 l 0.000000,25.722707 M 604.914601,781.948715 l 0.000000,-26.209562 M 609.914601,677.396268 l 0.000000,3.701916 M 609.914601,783.924512 l 0.000000,-23.195295 M 614.914601,675.862065 l 0.000000,10.797109 M 614.914601,783.757667 l 0.000000,-18.038387 M 619.914601,681.294295 l 0.000000,11.644708 M 619.914601,782.046055 l 0.000000,-11.336713 M 624.914601,695.145490 l 0.000000,3.479361 M 624.914601,780.323314 l 0.000000,-4.515511 M 629.914601,781.037851 l 0.000000,6.124098 M 634.914601,793.487018 l 0.000000,-7.071675 M 639.914601,781.060734 l 0.000000,2.540672 M 639.914601,800.884287 l 0.000000,-8.828082 M 644.914601,784.955468 l 0.000000,3.871139 M 644.914601,810.969048 l 0.000000,-12.482247 M 649.914601,791.196316 l 0.000000,1.553249 M 649.914601,827.737674 l 0.000000,-10.536028 M 654.914601,796.824673 l 0.000000,3.086599 M 654.914601,866.480724 l 0.000000,-32.510554 M 659.914601,758.966437 l 0.000000,13.488307 M 659.914601,810.297248 l 0.000000,-6.608583 M 659.914601,877.769239 l 0.000000,20.166470 M 664.914601,784.012788 l 0.000000,-9.606425 M 664.914601,810.707980 l 0.000000,12.725306 M 664.914601,909.579772 l 0.000000,-6.945268 M 669.914601,783.713948 l 0.000000,7.695029 M 669.914601,825.612494 l 0.000000,-7.885199 M 674.914601,824.732823 l 0.000000,12.974849 M 679.914601,847.835599 l 0.000000,-15.406520 M 679.914601,906.100727 l 0.000000,8.628075 M 684.914601,853.214119 l 0.000000,-0.937792 M 684.914601,920.767812 l 0.000000,6.690267 M 689.914601,947.014857 l 0.000000,-26.769124 M 694.914601,935.248864 l 0.000000,9.293238"
       id="path5" />
  </g>
  <g
     inkscape:label="fill-2f2f2f"
     inkscape:groupmode="layer"
     id="fill-2f2f2f">
    <path
       style="stroke:#2f2f2f"
       d="M 399.698435,796.820039 l 0.000000,6.417948 M 404.698435,796.465181 l 0.000000,-7.335281 M 409.698435,781.526747 l 0.000000,8.953737 M 414.698435,786.763114 l 0.000000,-9.305807 M 419.698435,774.651337 l 0.000000,9.203372 M 424.698435,781.137749 l 0.000000,-8.478364 M 424.698435,788.543332 l 0.000000,10.219098 M 429.698435,778.721527 l 0.000000,-9.262106 M 429.698435,782.585631 l 0.000000,12.594000 M 434.698435,653.664795 l 0.000000,-13.356601 M 434.698435,766.648735 l 0.000000,24.758135 M 439.698435,641.730806 l 0.000000,-14.511046 M 439.698435,759.721503 l 0.000000,29.604198 M 444.698435,438.930464 l 0.000000,-3.152067 M 444.698435,614.502768 l 0.000000,2.467847 M 444.698435,629.189138 l 0.000000,-2.074273 M 444.698435,629.594102 l 0.000000,3.732823 M 444.698435,646.281695 l 0.000000,-9.121463 M 444.698435,648.051464 l 0.000000,9.495861 M 444.698435,787.706767 l 0.000000,-35.877873 M 444.698435,814.956689 l 0.000000,6.393488 M 444.698435,842.952168 l 0.000000,-3.275635 M 449.698435,441.314749 l 0.000000,5.929374 M 449.698435,459.475532 l 0.000000,-2.912771 M 449.698435,595.963193 l 0.000000,12.845176 M 449.698435,617.563471 l 0.000000,-4.156259 M 449.698435,625.979408 l 0.000000,22.804956 M 449.698435,661.790770 l 0.000000,-6.200470 M 449.698435,751.632243 l 0.000000,11.173641 M 449.698435,794.012783 l 0.000000,-28.701006 M 449.698435,805.480119 l 0.000000,11.929525 M 449.698435,844.163441 l 0.000000,-11.788918 M 454.698435,448.588032 l 0.000000,8.873268 M 454.698435,527.224852 l 0.000000,-5.350886 M 454.698435,533.340505 l 0.000000,5.098346 M 454.698435,574.044336 l 0.000000,-6.798275 M 454.698435,589.707225 l 0.000000,17.807842 M 454.698435,616.490251 l 0.000000,-0.940546 M 454.698435,630.779994 l 0.000000,10.357941 M 454.698435,661.790356 l 0.000000,-16.465327 M 454.698435,675.946635 l 0.000000,3.617792 M 454.698435,776.814562 l 0.000000,-9.362952 M 454.698435,785.764037 l 0.000000,35.373316 M 454.698435,834.773814 l 0.000000,-11.853164 M 459.698435,455.480615 l 0.000000,10.554823 M 459.698435,498.683544 l 0.000000,-25.160218 M 459.698435,499.967732 l 0.000000,5.849068 M 459.698435,534.484741 l 0.000000,-14.769636 M 459.698435,585.349564 l 0.000000,16.331913 M 459.698435,648.449931 l 0.000000,-19.295604 M 459.698435,650.354115 l 0.000000,13.834297 M 459.698435,688.212396 l 0.000000,-13.670535 M 459.698435,767.521796 l 0.000000,7.966803 M 459.698435,807.431001 l 0.000000,-3.343676 M 464.698435,464.608787 l 0.000000,8.587885 M 464.698435,494.590547 l 0.000000,-6.179508 M 464.698435,499.796804 l 0.000000,5.130110 M 464.698435,509.902217 l 0.000000,-2.757439 M 464.698435,527.098248 l 0.000000,3.939511 M 464.698435,546.227876 l 0.000000,-3.935746 M 464.698435,550.545840 l 0.000000,2.373748 M 464.698435,610.149002 l 0.000000,-28.554660 M 464.698435,633.098324 l 0.000000,7.572235 M 464.698435,650.129102 l 0.000000,-6.152586 M 464.698435,654.738718 l 0.000000,13.943997 M 464.698435,685.373943 l 0.000000,-4.826012 M 464.698435,767.433717 l 0.000000,7.452752 M 464.698435,807.606188 l 0.000000,-4.523062 M 469.698435,472.244305 l 0.000000,1.329082 M 469.698435,486.883850 l 0.000000,-8.312760 M 469.698435,497.270791 l 0.000000,5.413819 M 469.698435,510.532655 l 0.000000,-4.236762 M 469.698435,521.871797 l 0.000000,18.614034 M 469.698435,552.692308 l 0.000000,-5.949874 M 469.698435,577.526166 l 0.000000,38.549026 M 469.698435,653.313330 l 0.000000,-16.262693 M 469.698435,660.197187 l 0.000000,12.684147 M 469.698435,710.696253 l 0.000000,-3.835127 M 469.698435,767.345638 l 0.000000,7.076259 M 469.698435,807.810731 l 0.000000,-2.404794 M 474.698435,479.463998 l 0.000000,21.844674 M 474.698435,507.653045 l 0.000000,-1.374001 M 474.698435,514.920809 l 0.000000,32.853984 M 474.698435,550.516345 l 0.000000,-1.185273 M 474.698435,575.439966 l 0.000000,46.123746 M 474.698435,626.960003 l 0.000000,-1.860298 M 474.698435,637.099713 l 0.000000,17.755227 M 474.698435,676.936325 l 0.000000,-12.529517 M 474.698435,697.612949 l 0.000000,2.954824 M 474.698435,774.132105 l 0.000000,-6.874546 M 474.698435,805.416203 l 0.000000,2.715338 M 479.698435,488.586271 l 0.000000,-2.055096 M 479.698435,494.504801 l 0.000000,5.895696 M 479.698435,508.471030 l 0.000000,-6.948117 M 479.698435,516.933663 l 0.000000,31.576082 M 479.698435,628.828999 l 0.000000,-55.241032 M 479.698435,638.814933 l 0.000000,17.532725 M 479.698435,694.458643 l 0.000000,-24.083877 M 479.698435,703.644322 l 0.000000,4.291291 M 479.698435,743.316108 l 0.000000,-25.370335 M 479.698435,767.168921 l 0.000000,6.852219 M 479.698435,808.452350 l 0.000000,-4.832354 M 484.698435,480.144819 l 0.000000,3.379303 M 484.698435,518.858700 l 0.000000,-32.085979 M 484.698435,524.658817 l 0.000000,23.105727 M 484.698435,566.315672 l 0.000000,-4.236169 M 484.698435,573.618728 l 0.000000,32.872012 M 484.698435,630.391082 l 0.000000,-13.626948 M 484.698435,640.932950 l 0.000000,24.524615 M 484.698435,679.884374 l 0.000000,-4.719820 M 484.698435,687.802110 l 0.000000,20.559909 M 484.698435,736.595402 l 0.000000,-11.950961 M 484.698435,739.245536 l 0.000000,11.598653 M 484.698435,773.910176 l 0.000000,-6.969952 M 484.698435,803.051830 l 0.000000,10.001925 M 489.698435,518.039370 l 0.000000,-36.782918 M 489.698435,526.322268 l 0.000000,25.284366 M 489.698435,565.198993 l 0.000000,-2.989019 M 489.698435,574.309033 l 0.000000,30.001922 M 489.698435,632.588703 l 0.000000,-13.128071 M 489.698435,643.556044 l 0.000000,23.967665 M 489.698435,685.878482 l 0.000000,-6.890934 M 489.698435,693.507434 l 0.000000,18.297568 M 489.698435,738.224796 l 0.000000,-20.817388 M 489.698435,744.634267 l 0.000000,12.623918 M 489.698435,773.857802 l 0.000000,-7.146274 M 489.698435,802.901836 l 0.000000,19.224184 M 494.698435,525.421010 l 0.000000,-43.555178 M 494.698435,531.053590 l 0.000000,19.393461 M 494.698435,587.117763 l 0.000000,-12.892062 M 494.698435,619.079541 l 0.000000,16.417219 M 494.698435,667.756954 l 0.000000,-14.817459 M 494.698435,683.599138 l 0.000000,2.910028 M 494.698435,693.529429 l 0.000000,-4.724976 M 494.698435,697.020444 l 0.000000,44.248910 M 494.698435,773.911440 l 0.000000,-25.234743 M 494.698435,802.777410 l 0.000000,8.432090 M 494.698435,838.602378 l 0.000000,-20.083432 M 499.698435,483.944566 l 0.000000,43.881290 M 499.698435,555.594485 l 0.000000,-25.153140 M 499.698435,574.519670 l 0.000000,13.270783 M 499.698435,650.639087 l 0.000000,-33.566993 M 499.698435,656.062213 l 0.000000,19.022936 M 499.698435,731.563983 l 0.000000,-43.112803 M 499.698435,738.412526 l 0.000000,35.794409 M 499.698435,810.788628 l 0.000000,-8.135643 M 499.698435,823.537193 l 0.000000,17.433866 M 499.698435,861.589509 l 0.000000,-5.468753 M 504.698435,489.366797 l 0.000000,13.909074 M 504.698435,522.098414 l 0.000000,-14.572934 M 504.698435,523.279483 l 0.000000,4.749357 M 504.698435,557.746578 l 0.000000,-13.939381 M 504.698435,576.134931 l 0.000000,12.285224 M 504.698435,684.917201 l 0.000000,-61.066213 M 504.698435,694.812814 l 0.000000,35.660866 M 504.698435,774.978263 l 0.000000,-28.162325 M 504.698435,802.528559 l 0.000000,8.196649 M 504.698435,857.703141 l 0.000000,-29.329381 M 509.698435,489.804399 l 0.000000,10.214803 M 509.698435,516.612581 l 0.000000,-15.789650 M 509.698435,520.789226 l 0.000000,10.112481 M 509.698435,555.506590 l 0.000000,-4.169517 M 509.698435,563.360083 l 0.000000,5.339268 M 509.698435,595.264845 l 0.000000,-16.125142 M 509.698435,628.011787 l 0.000000,102.115234 M 509.698435,776.274426 l 0.000000,-23.730824 M 509.698435,802.410000 l 0.000000,8.251789 M 509.698435,852.737435 l 0.000000,-3.251467 M 514.698435,492.755048 l 0.000000,36.859506 M 514.698435,539.885754 l 0.000000,-5.627270 M 514.698435,559.991865 l 0.000000,8.996807 M 514.698435,580.909933 l 0.000000,-5.513441 M 514.698435,587.241284 l 0.000000,9.335372 M 514.698435,618.799996 l 0.000000,-2.382641 M 514.698435,627.728792 l 0.000000,1.967938 M 514.698435,725.702509 l 0.000000,-92.351920 M 514.698435,726.794375 l 0.000000,2.875272 M 514.698435,777.819660 l 0.000000,-22.227837 M 514.698435,802.308375 l 0.000000,8.289996 M 519.698435,503.194141 l 0.000000,-1.202800 M 519.698435,505.734726 l 0.000000,35.659788 M 519.698435,561.970823 l 0.000000,-3.442734 M 519.698435,566.943511 l 0.000000,1.550792 M 519.698435,581.262843 l 0.000000,-5.409953 M 519.698435,590.052763 l 0.000000,9.150975 M 519.698435,633.255570 l 0.000000,-0.310192 M 519.698435,638.779396 l 0.000000,88.594912 M 519.698435,779.470933 l 0.000000,-19.355912 M 519.698435,802.206750 l 0.000000,8.328202 M 524.698435,547.572453 l 0.000000,-32.647640 M 524.698435,560.643187 l 0.000000,2.267366 M 524.698435,581.394472 l 0.000000,-1.912902 M 524.698435,591.603867 l 0.000000,11.919939 M 524.698435,653.125430 l 0.000000,-15.821150 M 524.698435,654.874570 l 0.000000,79.204523 M 524.698435,750.654805 l 0.000000,-6.178751 M 524.698435,762.560726 l 0.000000,18.783611 M 524.698435,810.514209 l 0.000000,-8.409085 M 529.698435,512.759552 l 0.000000,5.852935 M 529.698435,524.686410 l 0.000000,-3.469867 M 529.698435,534.413051 l 0.000000,14.505556 M 529.698435,606.971623 l 0.000000,-12.218485 M 529.698435,633.022709 l 0.000000,103.162157 M 529.698435,746.186862 l 0.000000,-4.998478 M 529.698435,749.290545 l 0.000000,3.786528 M 529.698435,783.125332 l 0.000000,-17.545234 M 529.698435,801.992504 l 0.000000,8.534403 M 534.698435,530.355235 l 0.000000,-2.470514 M 534.698435,533.694544 l 0.000000,7.545132 M 534.698435,549.162830 l 0.000000,-6.319988 M 534.698435,597.528793 l 0.000000,11.749313 M 534.698435,680.054942 l 0.000000,-47.495273 M 534.698435,684.985291 l 0.000000,59.951185 M 534.698435,753.427102 l 0.000000,-8.018004 M 534.698435,765.827232 l 0.000000,6.188375 M 534.698435,783.836866 l 0.000000,-9.077156 M 534.698435,801.744313 l 0.000000,8.795291 M 539.698435,603.739761 l 0.000000,-5.395926 M 539.698435,605.800034 l 0.000000,5.397375 M 539.698435,675.180618 l 0.000000,-36.703931 M 539.698435,679.613480 l 0.000000,3.916022 M 539.698435,753.764712 l 0.000000,-63.885227 M 539.698435,766.833432 l 0.000000,5.983679 M 539.698435,784.259199 l 0.000000,-9.697475 M 539.698435,801.496121 l 0.000000,9.113276 M 544.698435,607.599016 l 0.000000,-8.210315 M 544.698435,608.524812 l 0.000000,4.562453 M 544.698435,662.456916 l 0.000000,-12.844902 M 544.698435,685.159506 l 0.000000,3.060775 M 544.698435,756.826767 l 0.000000,-62.373898 M 544.698435,768.760475 l 0.000000,15.875328 M 544.698435,810.758492 l 0.000000,-11.573315 M 549.698435,601.806547 l 0.000000,3.817094 M 549.698435,615.098873 l 0.000000,-4.463495 M 549.698435,654.722491 l 0.000000,10.610140 M 549.698435,684.975402 l 0.000000,-1.749065 M 549.698435,690.027001 l 0.000000,3.156087 M 549.698435,761.430799 l 0.000000,-62.746355 M 549.698435,768.860781 l 0.000000,16.720869 M 549.698435,811.334457 l 0.000000,-17.637373 M 554.698435,602.883078 l 0.000000,5.771832 M 554.698435,617.565654 l 0.000000,-3.054523 M 554.698435,657.636413 l 0.000000,12.017582 M 554.698435,689.270879 l 0.000000,-2.045691 M 554.698435,694.683547 l 0.000000,3.462348 M 554.698435,787.168203 l 0.000000,-83.465352 M 554.698435,789.188654 l 0.000000,24.292056 M 559.698435,674.451571 l 0.000000,-13.251617 M 559.698435,691.429988 l 0.000000,2.357025 M 559.698435,703.228441 l 0.000000,-3.888348 M 559.698435,709.525177 l 0.000000,105.058976 M 564.698435,614.005895 l 0.000000,-2.901617 M 564.698435,668.666223 l 0.000000,10.658712 M 564.698435,698.355931 l 0.000000,-2.573846 M 564.698435,704.132762 l 0.000000,4.185351 M 564.698435,812.344737 l 0.000000,-97.370224 M 569.698435,615.371308 l 0.000000,3.930858 M 569.698435,684.267417 l 0.000000,-9.212548 M 569.698435,700.134181 l 0.000000,3.121200 M 569.698435,713.407785 l 0.000000,-4.398350 M 569.698435,720.045179 l 0.000000,16.197081 M 569.698435,810.370160 l 0.000000,-71.997304 M 574.698435,605.689226 l 0.000000,1.055502 M 574.698435,639.551890 l 0.000000,-5.322383 M 574.698435,684.922207 l 0.000000,4.287694 M 574.698435,708.154832 l 0.000000,-2.731380 M 574.698435,714.004518 l 0.000000,4.492938 M 574.698435,810.093521 l 0.000000,-84.977677 M 579.698435,637.811889 l 0.000000,4.443706 M 579.698435,659.858069 l 0.000000,-1.573195 M 579.698435,691.221094 l 0.000000,2.931290 M 579.698435,713.076051 l 0.000000,-2.347896 M 579.698435,719.056176 l 0.000000,4.530953 M 579.698435,807.176162 l 0.000000,-77.074131 M 584.698435,696.974486 l 0.000000,2.120380 M 584.698435,718.014867 l 0.000000,-1.980009 M 584.698435,724.107833 l 0.000000,4.203469 M 584.698435,802.123430 l 0.000000,-67.054744 M 589.698435,702.197312 l 0.000000,1.840038 M 589.698435,722.764993 l 0.000000,-1.122085 M 589.698435,729.259879 l 0.000000,3.712118 M 589.698435,794.471519 l 0.000000,-54.436179 M 594.698435,660.185666 l 0.000000,6.328009 M 594.698435,708.738414 l 0.000000,-1.235049 M 594.698435,734.420547 l 0.000000,3.019167 M 594.698435,791.410964 l 0.000000,-46.408971 M 599.698435,662.605146 l 0.000000,13.932404 M 599.698435,741.852056 l 0.000000,-2.220730 M 599.698435,749.968648 l 0.000000,40.133541 M 604.698435,679.494249 l 0.000000,-11.536066 M 604.698435,744.997213 l 0.000000,1.083344 M 604.698435,791.570966 l 0.000000,-36.635665 M 609.698435,675.622021 l 0.000000,12.550032 M 609.698435,787.709315 l 0.000000,-27.807359 M 614.698435,673.162559 l 0.000000,18.606257 M 614.698435,749.118209 l 0.000000,-1.450197 M 614.698435,764.868610 l 0.000000,21.821009 M 619.698435,699.096334 l 0.000000,-21.512051 M 619.698435,769.835264 l 0.000000,15.510684 M 624.698435,704.827542 l 0.000000,-13.967188 M 624.698435,774.893799 l 0.000000,10.585473 M 624.698435,792.099800 l 0.000000,-1.547890 M 629.698435,700.418513 l 0.000000,9.996024 M 629.698435,789.406693 l 0.000000,-9.420382 M 634.698435,710.197660 l 0.000000,5.749297 M 634.698435,795.261661 l 0.000000,-10.182838 M 639.698435,779.606367 l 0.000000,5.805971 M 639.698435,802.599143 l 0.000000,-12.224176 M 644.698435,783.830400 l 0.000000,6.912694 M 644.698435,813.979436 l 0.000000,-17.849112 M 649.698435,715.823466 l 0.000000,9.472944 M 649.698435,794.978604 l 0.000000,-5.797022 M 649.698435,804.685847 l 0.000000,29.026984 M 654.698435,751.223057 l 0.000000,-3.814879 M 654.698435,795.061870 l 0.000000,6.849650 M 654.698435,872.065230 l 0.000000,-54.985454 M 659.698435,755.496391 l 0.000000,19.415740 M 659.698435,812.354751 l 0.000000,-10.346157 M 659.698435,851.035233 l 0.000000,49.981243 M 664.698435,784.976635 l 0.000000,-13.306819 M 664.698435,808.950855 l 0.000000,20.256372 M 664.698435,914.975029 l 0.000000,-14.058274 M 669.698435,781.945164 l 0.000000,11.317031 M 669.698435,848.816271 l 0.000000,-32.923154 M 669.698435,869.733276 l 0.000000,19.119352 M 674.698435,840.480298 l 0.000000,-17.555800 M 674.698435,873.280422 l 0.000000,34.064704 M 679.698435,850.585187 l 0.000000,-20.210864 M 679.698435,884.814873 l 0.000000,3.324443 M 679.698435,916.062789 l 0.000000,-13.114600 M 684.698435,842.948291 l 0.000000,18.062439 M 684.698435,898.790253 l 0.000000,-6.679696 M 684.698435,918.066888 l 0.000000,18.009301 M 689.698435,895.455125 l 0.000000,-8.117361 M 689.698435,896.302880 l 0.000000,3.197998 M 689.698435,948.678892 l 0.000000,-30.496024 M 694.698435,902.763556 l 0.000000,10.204736 M 694.698435,948.148546 l 0.000000,-16.865469 M 699.698435,908.392894 l 0.000000,5.966518 M 704.698435,922.098582 l 0.000000,-0.224031"
       id="path8" />
  </g>
  <g
     inkscape:label="fill-4f4f4f"
     inkscape:groupmode="layer"
     id="fill-4f4f4f">
    <path
       style="stroke:#4f4f4f"
       d="M 397.402573,800.723228 l 0.000000,2.823181 M 403.402573,798.937064 l 0.000000,-9.187504 M 409.402573,781.060923 l 0.000000,10.629211 M 415.402573,786.911470 l 0.000000,-10.384896 M 421.402573,773.169300 l 0.000000,10.210076 M 421.402573,797.986873 l 0.000000,-4.296221 M 427.402573,770.104234 l 0.000000,10.334481 M 427.402573,799.297551 l 0.000000,-14.334402 M 433.402573,635.458843 l 0.000000,18.855505 M 433.402573,792.625853 l 0.000000,-25.611892 M 439.402573,614.436112 l 0.000000,4.458221 M 439.402573,644.628625 l 0.000000,-19.359756 M 439.402573,652.910582 l 0.000000,14.994297 M 439.402573,790.078296 l 0.000000,-30.951381 M 439.402573,820.937585 l 0.000000,2.146266 M 445.402573,440.761507 l 0.000000,-4.380574 M 445.402573,449.551512 l 0.000000,3.987393 M 445.402573,608.310167 l 0.000000,-6.994629 M 445.402573,612.957499 l 0.000000,5.089552 M 445.402573,661.175618 l 0.000000,-40.025336 M 445.402573,667.524836 l 0.000000,8.092114 M 445.402573,788.188310 l 0.000000,-38.366152 M 445.402573,812.746428 l 0.000000,8.065875 M 445.402573,844.493638 l 0.000000,-8.353404 M 451.402573,442.696034 l 0.000000,9.674183 M 451.402573,464.275306 l 0.000000,-7.402912 M 451.402573,521.707046 l 0.000000,10.903612 M 451.402573,540.505119 l 0.000000,-6.743383 M 451.402573,546.065008 l 0.000000,31.345555 M 451.402573,609.622935 l 0.000000,-19.805601 M 451.402573,612.641969 l 0.000000,5.474001 M 451.402573,665.709862 l 0.000000,-44.345634 M 451.402573,669.228686 l 0.000000,3.227980 M 451.402573,681.862879 l 0.000000,-5.300608 M 451.402573,766.500000 l 0.000000,52.513246 M 451.402573,841.821798 l 0.000000,-14.410146 M 457.402573,451.299019 l 0.000000,12.408593 M 457.402573,480.848972 l 0.000000,-13.750735 M 457.402573,489.059451 l 0.000000,19.838824 M 457.402573,512.822676 l 0.000000,-1.394157 M 457.402573,519.185537 l 0.000000,17.989606 M 457.402573,568.760847 l 0.000000,-2.349541 M 457.402573,585.460324 l 0.000000,19.741882 M 457.402573,690.875060 l 0.000000,-70.178377 M 457.402573,766.500000 l 0.000000,9.720212 M 457.402573,829.694313 l 0.000000,-38.610174 M 463.402573,459.830092 l 0.000000,13.451731 M 463.402573,504.972587 l 0.000000,-25.439587 M 463.402573,506.592215 l 0.000000,4.457961 M 463.402573,522.049156 l 0.000000,-3.836705 M 463.402573,526.900063 l 0.000000,6.537504 M 463.402573,552.600887 l 0.000000,-10.797017 M 463.402573,581.248603 l 0.000000,28.748014 M 463.402573,671.263538 l 0.000000,-42.735754 M 463.402573,671.767380 l 0.000000,17.926329 M 463.402573,775.270141 l 0.000000,-8.770141 M 463.402573,801.777544 l 0.000000,6.621703 M 469.402573,494.337949 l 0.000000,-26.641249 M 469.402573,496.090394 l 0.000000,8.296094 M 469.402573,511.368171 l 0.000000,-6.670441 M 469.402573,520.248802 l 0.000000,20.820347 M 469.402573,554.605142 l 0.000000,-8.588798 M 469.402573,576.592520 l 0.000000,40.412990 M 469.402573,686.044237 l 0.000000,-52.490487 M 469.402573,703.778715 l 0.000000,9.132260 M 469.402573,721.321050 l 0.000000,-1.115086 M 469.402573,766.500000 l 0.000000,8.382589 M 469.402573,808.202192 l 0.000000,-3.706983 M 475.402573,474.484922 l 0.000000,33.859832 M 475.402573,550.969207 l 0.000000,-39.683185 M 475.402573,573.505397 l 0.000000,54.431000 M 475.402573,691.559088 l 0.000000,-56.291355 M 475.402573,695.191813 l 0.000000,11.685111 M 475.402573,738.393310 l 0.000000,-25.350726 M 475.402573,766.427578 l 0.000000,8.067458 M 475.402573,808.161094 l 0.000000,-3.867450 M 481.402573,475.947087 l 0.000000,8.381225 M 481.402573,511.683380 l 0.000000,-26.213308 M 481.402573,514.665631 l 0.000000,34.448287 M 481.402573,564.502983 l 0.000000,-1.174595 M 481.402573,571.852225 l 0.000000,57.979891 M 481.402573,667.231212 l 0.000000,-28.960791 M 481.402573,668.539156 l 0.000000,79.451833 M 481.402573,774.318873 l 0.000000,-7.994732 M 481.402573,801.796342 l 0.000000,7.866783 M 487.402573,519.650844 l 0.000000,-40.866877 M 487.402573,524.885196 l 0.000000,25.462051 M 487.402573,567.363763 l 0.000000,-6.467076 M 487.402573,572.530480 l 0.000000,36.049158 M 487.402573,614.502878 l 0.000000,-2.857619 M 487.402573,618.383848 l 0.000000,13.701781 M 487.402573,669.328949 l 0.000000,-28.051872 M 487.402573,675.207632 l 0.000000,10.096561 M 487.402573,738.403922 l 0.000000,-49.042114 M 487.402573,741.183758 l 0.000000,14.518363 M 487.402573,774.171261 l 0.000000,-7.951359 M 487.402573,801.802616 l 0.000000,16.523085 M 493.402573,555.003429 l 0.000000,-74.651290 M 493.402573,572.743689 l 0.000000,19.392199 M 493.402573,603.533729 l 0.000000,-2.688998 M 493.402573,618.201347 l 0.000000,17.671138 M 493.402573,647.666762 l 0.000000,-3.798263 M 493.402573,650.809867 l 0.000000,21.888901 M 493.402573,742.028611 l 0.000000,-61.446213 M 493.402573,745.502735 l 0.000000,18.519359 M 493.402573,774.297097 l 0.000000,-9.590032 M 493.402573,802.601678 l 0.000000,9.675271 M 493.402573,838.838067 l 0.000000,-22.441852 M 499.402573,482.396876 l 0.000000,74.162038 M 499.402573,589.784688 l 0.000000,-17.597109 M 499.402573,615.413293 l 0.000000,35.904474 M 499.402573,676.729478 l 0.000000,-21.414241 M 499.402573,686.154732 l 0.000000,88.451568 M 499.402573,811.299379 l 0.000000,-8.734367 M 499.402573,822.471784 l 0.000000,19.104151 M 499.402573,861.966266 l 0.000000,-5.837831 M 505.402573,486.542941 l 0.000000,17.726470 M 505.402573,529.648196 l 0.000000,-23.891705 M 505.402573,542.331250 l 0.000000,16.026694 M 505.402573,566.218394 l 0.000000,-6.969957 M 505.402573,568.643363 l 0.000000,3.310598 M 505.402573,593.366880 l 0.000000,-18.504928 M 505.402573,614.916910 l 0.000000,4.446392 M 505.402573,690.332126 l 0.000000,-69.024600 M 505.402573,693.328414 l 0.000000,37.592460 M 505.402573,775.760724 l 0.000000,-30.524610 M 505.402573,802.289356 l 0.000000,8.580214 M 505.402573,858.076530 l 0.000000,-27.611805 M 511.402573,489.953377 l 0.000000,47.945428 M 511.402573,556.704498 l 0.000000,-5.774607 M 511.402573,560.604949 l 0.000000,10.223144 M 511.402573,599.057326 l 0.000000,-23.376649 M 511.402573,614.604236 l 0.000000,3.769163 M 511.402573,730.816020 l 0.000000,-106.564955 M 511.402573,752.943861 l 0.000000,25.973943 M 511.402573,810.584889 l 0.000000,-8.571191 M 517.402573,494.812212 l 0.000000,56.121140 M 517.402573,563.281430 l 0.000000,-6.125029 M 517.402573,564.419514 l 0.000000,5.641154 M 517.402573,598.899486 l 0.000000,-26.143794 M 517.402573,618.204854 l 0.000000,2.393722 M 517.402573,730.048813 l 0.000000,-101.779217 M 517.402573,738.324600 l 0.000000,7.298326 M 517.402573,780.719206 l 0.000000,-26.083134 M 517.402573,801.738042 l 0.000000,8.674199 M 523.402573,549.205437 l 0.000000,-42.124703 M 523.402573,552.056963 l 0.000000,0.591149 M 523.402573,564.536503 l 0.000000,-5.792565 M 523.402573,575.853926 l 0.000000,7.416073 M 523.402573,603.219715 l 0.000000,-14.975580 M 523.402573,631.438349 l 0.000000,119.254219 M 523.402573,782.236659 l 0.000000,-22.082154 M 523.402573,801.469864 l 0.000000,8.855250 M 529.402573,551.511868 l 0.000000,-40.589216 M 529.402573,590.789177 l 0.000000,16.450952 M 529.402573,755.025097 l 0.000000,-125.801006 M 529.402573,762.196263 l 0.000000,21.673424 M 529.402573,810.319788 l 0.000000,-9.014112 M 535.402573,526.716754 l 0.000000,25.199630 M 535.402573,575.855040 l 0.000000,-2.398169 M 535.402573,592.038276 l 0.000000,18.051902 M 535.402573,681.309967 l 0.000000,-49.067964 M 535.402573,684.621048 l 0.000000,72.941441 M 535.402573,785.075478 l 0.000000,-20.987039 M 535.402573,801.141488 l 0.000000,9.461477 M 541.402573,584.076759 l 0.000000,-2.587220 M 541.402573,591.993391 l 0.000000,20.703953 M 541.402573,675.334599 l 0.000000,-36.701046 M 541.402573,680.213149 l 0.000000,5.992151 M 541.402573,759.382443 l 0.000000,-69.048495 M 541.402573,765.985716 l 0.000000,19.980666 M 541.402573,811.029904 l 0.000000,-10.052603 M 547.402573,585.566899 l 0.000000,2.272216 M 547.402573,615.292736 l 0.000000,-23.756200 M 547.402573,650.158133 l 0.000000,13.836600 M 547.402573,683.311988 l 0.000000,-3.928815 M 547.402573,686.447080 l 0.000000,5.620485 M 547.402573,761.269767 l 0.000000,-65.571570 M 547.402573,767.248238 l 0.000000,20.129947 M 547.402573,811.877497 l 0.000000,-16.713973 M 553.402573,590.452312 l 0.000000,27.699988 M 553.402573,669.011978 l 0.000000,-15.089524 M 553.402573,685.143746 l 0.000000,3.934810 M 553.402573,697.937458 l 0.000000,-5.469709 M 553.402573,701.262793 l 0.000000,112.235943 M 559.402573,599.846290 l 0.000000,-5.932813 M 559.402573,603.316797 l 0.000000,17.874470 M 559.402573,674.974797 l 0.000000,-20.516007 M 559.402573,690.341153 l 0.000000,4.110853 M 559.402573,703.980155 l 0.000000,-5.584300 M 559.402573,708.411234 l 0.000000,107.418457 M 565.402573,605.080017 l 0.000000,-6.793918 M 565.402573,608.665296 l 0.000000,11.434571 M 565.402573,624.671710 l 0.000000,-3.047086 M 565.402573,657.316473 l 0.000000,5.713572 M 565.402573,680.976040 l 0.000000,-16.098966 M 565.402573,690.347446 l 0.000000,2.627558 M 565.402573,700.065570 l 0.000000,-4.971410 M 565.402573,704.323961 l 0.000000,5.698891 M 565.402573,727.537866 l 0.000000,-12.324479 M 565.402573,728.750374 l 0.000000,84.234237 M 571.402573,624.508225 l 0.000000,-22.466304 M 571.402573,627.096168 l 0.000000,7.368685 M 571.402573,686.977284 l 0.000000,-15.666062 M 571.402573,695.911718 l 0.000000,10.046304 M 571.402573,716.065550 l 0.000000,-5.813482 M 571.402573,721.405303 l 0.000000,89.851644 M 577.402573,642.723728 l 0.000000,-34.433526 M 577.402573,645.326951 l 0.000000,2.469681 M 577.402573,692.978527 l 0.000000,-13.413708 M 577.402573,702.195565 l 0.000000,1.899897 M 577.402573,711.915819 l 0.000000,-4.557498 M 577.402573,716.180174 l 0.000000,5.928073 M 577.402573,809.890278 l 0.000000,-82.641697 M 583.402573,618.046839 l 0.000000,5.121587 M 583.402573,645.741461 l 0.000000,-19.018578 M 583.402573,657.608744 l 0.000000,6.427580 M 583.402573,690.162826 l 0.000000,-3.543744 M 583.402573,693.668469 l 0.000000,5.311302 M 583.402573,718.083095 l 0.000000,-4.214211 M 583.402573,722.108280 l 0.000000,5.959902 M 583.402573,804.870634 l 0.000000,-71.778774 M 589.402573,638.890276 l 0.000000,2.109724 M 589.402573,669.662523 l 0.000000,-14.964404 M 589.402573,693.562455 l 0.000000,1.479224 M 589.402573,704.916484 l 0.000000,-4.808459 M 589.402573,720.175750 l 0.000000,4.074621 M 589.402573,733.881088 l 0.000000,-5.841562 M 589.402573,738.935139 l 0.000000,58.580637 M 595.402573,675.509794 l 0.000000,-17.677037 M 595.402573,706.632895 l 0.000000,4.095387 M 595.402573,730.417646 l 0.000000,-3.935031 M 595.402573,734.169617 l 0.000000,5.524377 M 595.402573,792.561522 l 0.000000,-47.783104 M 601.402573,659.040136 l 0.000000,22.531977 M 601.402573,716.540081 l 0.000000,-3.112715 M 601.402573,732.849986 l 0.000000,3.734935 M 601.402573,745.506899 l 0.000000,-5.207192 M 601.402573,750.621697 l 0.000000,41.791171 M 607.402573,688.066017 l 0.000000,-19.846955 M 607.402573,720.445027 l 0.000000,1.622966 M 607.402573,742.752198 l 0.000000,-3.527622 M 607.402573,746.620517 l 0.000000,4.650032 M 607.402573,793.621070 l 0.000000,-37.156094 M 613.402573,670.287964 l 0.000000,25.102465 M 613.402573,748.919473 l 0.000000,-3.195796 M 613.402573,753.098060 l 0.000000,3.772604 M 613.402573,788.879321 l 0.000000,-26.645552 M 619.402573,675.230777 l 0.000000,28.065804 M 619.402573,755.032657 l 0.000000,-2.481793 M 619.402573,760.064526 l 0.000000,2.302027 M 619.402573,787.839018 l 0.000000,-19.860956 M 625.402573,690.445509 l 0.000000,19.907639 M 625.402573,761.061614 l 0.000000,-1.358016 M 625.402573,773.722355 l 0.000000,23.415345 M 631.402573,715.030325 l 0.000000,-13.187962 M 631.402573,753.229348 l 0.000000,1.178480 M 631.402573,762.586933 l 0.000000,-2.134294 M 631.402573,765.176466 l 0.000000,1.748582 M 631.402573,792.791631 l 0.000000,-13.461654 M 637.402573,715.434052 l 0.000000,5.000402 M 637.402573,756.343340 l 0.000000,-2.303274 M 637.402573,760.134264 l 0.000000,2.528482 M 637.402573,770.151983 l 0.000000,-2.087180 M 637.402573,776.773618 l 0.000000,23.255497 M 643.402573,764.696895 l 0.000000,-2.807035 M 643.402573,767.318824 l 0.000000,3.229132 M 643.402573,776.674159 l 0.000000,-0.457822 M 643.402573,780.713840 l 0.000000,10.116223 M 643.402573,813.915116 l 0.000000,-20.154916 M 649.402573,713.479939 l 0.000000,12.398080 M 649.402573,779.263153 l 0.000000,-8.863690 M 649.402573,783.274694 l 0.000000,1.076118 M 649.402573,797.157707 l 0.000000,-9.497427 M 649.402573,801.699753 l 0.000000,38.494125 M 655.402573,763.087583 l 0.000000,-16.665924 M 655.402573,779.217174 l 0.000000,10.181947 M 655.402573,804.397569 l 0.000000,-10.733002 M 655.402573,812.326107 l 0.000000,71.291720 M 661.402573,752.917396 l 0.000000,-4.889677 M 661.402573,758.190559 l 0.000000,21.878627 M 661.402573,796.944379 l 0.000000,-5.492192 M 661.402573,803.049562 l 0.000000,17.208352 M 661.402573,906.281931 l 0.000000,-50.096586 M 661.402573,907.795930 l 0.000000,8.180573 M 667.402573,791.064239 l 0.000000,-14.667210 M 667.402573,811.295333 l 0.000000,76.302731 M 667.402573,914.034833 l 0.000000,-12.267516 M 673.402573,790.577342 l 0.000000,12.131434 M 673.402573,839.928290 l 0.000000,-20.180857 M 673.402573,864.919244 l 0.000000,41.522869 M 679.402573,854.042304 l 0.000000,-25.351156 M 679.402573,880.544462 l 0.000000,15.971961 M 679.402573,916.567774 l 0.000000,-15.808802 M 685.402573,844.398239 l 0.000000,62.969515 M 685.402573,940.575485 l 0.000000,-22.423010 M 691.402573,878.875974 l 0.000000,27.923010 M 691.402573,953.231355 l 0.000000,-34.262982 M 697.402573,897.328928 l 0.000000,19.251469 M 697.402573,953.226203 l 0.000000,-14.331225 M 703.402573,914.594681 l 0.000000,8.601926"
       id="path11" />
  </g>
  <g
     inkscape:label="fill-6e6e6e"
     inkscape:groupmode="layer"
     id="fill-6e6e6e">
    <path
       style="stroke:#6e6e6e"
       d="M 400.197202,793.081829 l 0.000000,10.765456 M 407.197202,794.676551 l 0.000000,-10.057469 M 414.197202,776.811246 l 0.000000,11.492063 M 421.197202,783.983948 l 0.000000,-11.093832 M 421.197202,792.837775 l 0.000000,6.209896 M 428.197202,780.684418 l 0.000000,-11.764349 M 428.197202,783.010867 l 0.000000,16.789223 M 435.197202,665.036108 l 0.000000,-38.463448 M 435.197202,765.141312 l 0.000000,27.240011 M 442.197202,437.357723 l 0.000000,-4.709002 M 442.197202,445.126359 l 0.000000,3.941324 M 442.197202,673.261977 l 0.000000,-70.424044 M 442.197202,678.069124 l 0.000000,5.549869 M 442.197202,789.427610 l 0.000000,-36.179617 M 442.197202,816.920478 l 0.000000,6.105610 M 449.197202,447.972592 l 0.000000,-9.050291 M 449.197202,452.162414 l 0.000000,9.454730 M 449.197202,580.622428 l 0.000000,-59.003016 M 449.197202,589.892888 l 0.000000,94.243142 M 449.197202,696.478272 l 0.000000,-6.803268 M 449.197202,746.193148 l 0.000000,48.783167 M 449.197202,817.757983 l 0.000000,-13.712052 M 449.197202,829.587505 l 0.000000,16.114469 M 456.197202,480.049094 l 0.000000,-32.240777 M 456.197202,492.464403 l 0.000000,47.519047 M 456.197202,574.668055 l 0.000000,-30.783184 M 456.197202,584.524013 l 0.000000,24.631286 M 456.197202,702.687531 l 0.000000,-89.802701 M 456.197202,766.406849 l 0.000000,10.665759 M 456.197202,834.494162 l 0.000000,-47.187440 M 463.197202,458.452652 l 0.000000,77.035229 M 463.197202,555.325452 l 0.000000,-14.794907 M 463.197202,568.062785 l 0.000000,2.732292 M 463.197202,613.179931 l 0.000000,-33.200643 M 463.197202,621.796820 l 0.000000,97.543773 M 463.197202,776.180028 l 0.000000,-9.770918 M 463.197202,800.835462 l 0.000000,8.452822 M 470.197202,542.774132 l 0.000000,-75.396741 M 470.197202,544.062049 l 0.000000,12.734108 M 470.197202,620.028844 l 0.000000,-45.943959 M 470.197202,631.117421 l 0.000000,99.176686 M 470.197202,775.761661 l 0.000000,-9.460932 M 470.197202,804.544404 l 0.000000,4.479708 M 477.197202,509.100631 l 0.000000,-35.874458 M 477.197202,510.658346 l 0.000000,4.166202 M 477.197202,550.530027 l 0.000000,-35.027126 M 477.197202,560.218871 l 0.000000,4.981069 M 477.197202,629.291085 l 0.000000,-58.884107 M 477.197202,634.681720 l 0.000000,108.267970 M 477.197202,775.652183 l 0.000000,-9.459834 M 477.197202,803.414603 l 0.000000,5.703509 M 484.197202,549.196103 l 0.000000,-73.489186 M 484.197202,553.155309 l 0.000000,3.905558 M 484.197202,631.020335 l 0.000000,-70.747642 M 484.197202,638.773881 l 0.000000,114.126046 M 484.197202,775.555896 l 0.000000,-9.578433 M 484.197202,802.210006 l 0.000000,11.286103 M 491.197202,554.526236 l 0.000000,-75.714816 M 491.197202,560.635456 l 0.000000,4.768098 M 491.197202,569.946925 l 0.000000,-0.615390 M 491.197202,571.661482 l 0.000000,37.236394 M 491.197202,613.952014 l 0.000000,-4.239569 M 491.197202,617.947565 l 0.000000,17.108288 M 491.197202,673.529613 l 0.000000,-31.815697 M 491.197202,676.951638 l 0.000000,83.807832 M 491.197202,775.537846 l 0.000000,-10.273265 M 491.197202,801.959266 l 0.000000,36.219261 M 498.197202,557.310242 l 0.000000,-76.535116 M 498.197202,557.622673 l 0.000000,5.215642 M 498.197202,590.760891 l 0.000000,-21.458555 M 498.197202,615.633672 l 0.000000,61.246366 M 498.197202,775.519797 l 0.000000,-92.236683 M 498.197202,801.791539 l 0.000000,10.126896 M 498.197202,841.231681 l 0.000000,-20.358093 M 498.197202,856.663296 l 0.000000,6.321796 M 505.197202,532.580785 l 0.000000,-47.140328 M 505.197202,535.708189 l 0.000000,59.671683 M 505.197202,731.617235 l 0.000000,-117.675354 M 505.197202,742.964865 l 0.000000,32.536881 M 505.197202,811.710564 l 0.000000,-10.086753 M 505.197202,829.494062 l 0.000000,28.738628 M 512.197202,539.888322 l 0.000000,-50.354128 M 512.197202,546.636804 l 0.000000,53.630970 M 512.197202,620.155363 l 0.000000,-5.867175 M 512.197202,621.104441 l 0.000000,110.886429 M 512.197202,781.016632 l 0.000000,-29.543757 M 512.197202,801.461887 l 0.000000,10.160777 M 519.197202,601.001166 l 0.000000,-105.024175 M 519.197202,623.353749 l 0.000000,107.922476 M 519.197202,747.604589 l 0.000000,-14.561860 M 519.197202,753.708858 l 0.000000,28.647728 M 519.197202,811.534764 l 0.000000,-10.218923 M 526.197202,505.555992 l 0.000000,65.498793 M 526.197202,606.045110 l 0.000000,-30.517157 M 526.197202,626.362755 l 0.000000,128.835740 M 526.197202,784.061930 l 0.000000,-24.552045 M 526.197202,801.169795 l 0.000000,10.341155 M 533.197202,552.082022 l 0.000000,-35.018402 M 533.197202,553.917978 l 0.000000,55.932282 M 533.197202,758.388295 l 0.000000,-128.494193 M 533.197202,761.603302 l 0.000000,24.214284 M 533.197202,811.529064 l 0.000000,-10.546220 M 540.197202,565.055411 l 0.000000,2.675276 M 540.197202,576.370143 l 0.000000,-4.781519 M 540.197202,578.463130 l 0.000000,34.302899 M 540.197202,685.994280 l 0.000000,-50.610527 M 540.197202,688.681096 l 0.000000,74.189348 M 540.197202,787.455542 l 0.000000,-24.313240 M 540.197202,800.581351 l 0.000000,11.027835 M 547.197202,615.632880 l 0.000000,-32.461895 M 547.197202,638.000473 l 0.000000,0.153550 M 547.197202,664.308166 l 0.000000,-19.872581 M 547.197202,678.086132 l 0.000000,112.656528 M 547.197202,811.903817 l 0.000000,-16.503430 M 554.197202,582.571421 l 0.000000,4.392378 M 554.197202,618.824696 l 0.000000,-29.504576 M 554.197202,643.672365 l 0.000000,26.373225 M 554.197202,690.880997 l 0.000000,-5.863728 M 554.197202,692.315833 l 0.000000,122.208067 M 561.197202,622.878119 l 0.000000,-29.674817 M 561.197202,651.694004 l 0.000000,25.882887 M 561.197202,689.314137 l 0.000000,-3.623668 M 561.197202,690.810804 l 0.000000,5.995137 M 561.197202,706.660827 l 0.000000,-7.329585 M 561.197202,709.604912 l 0.000000,105.784223 M 568.197202,629.325025 l 0.000000,-30.929235 M 568.197202,658.176243 l 0.000000,45.397588 M 568.197202,715.273627 l 0.000000,-9.100958 M 568.197202,716.264906 l 0.000000,96.344655 M 575.197202,647.540470 l 0.000000,-44.540347 M 575.197202,655.374349 l 0.000000,0.563138 M 575.197202,710.548471 l 0.000000,-46.425461 M 575.197202,713.014096 l 0.000000,9.240958 M 575.197202,811.545105 l 0.000000,-87.303018 M 582.197202,610.359531 l 0.000000,56.113092 M 582.197202,675.889998 l 0.000000,-2.223001 M 582.197202,682.107734 l 0.000000,18.584730 M 582.197202,709.198337 l 0.000000,-3.139319 M 582.197202,711.542642 l 0.000000,6.066528 M 582.197202,729.431682 l 0.000000,-9.576158 M 582.197202,730.555423 l 0.000000,76.441239 M 589.197202,624.969696 l 0.000000,-3.068684 M 589.197202,629.646120 l 0.000000,17.159270 M 589.197202,672.222794 l 0.000000,-20.875714 M 589.197202,689.948462 l 0.000000,15.863670 M 589.197202,714.959368 l 0.000000,-0.574037 M 589.197202,719.272772 l 0.000000,5.501354 M 589.197202,799.702612 l 0.000000,-72.998836 M 596.197202,643.172767 l 0.000000,4.394113 M 596.197202,677.676331 l 0.000000,-27.037649 M 596.197202,697.985193 l 0.000000,14.726297 M 596.197202,732.191661 l 0.000000,-5.480374 M 596.197202,733.553777 l 0.000000,8.084410 M 596.197202,793.343956 l 0.000000,-48.895300 M 603.197202,657.292314 l 0.000000,27.287274 M 603.197202,719.526003 l 0.000000,-13.062721 M 603.197202,733.982281 l 0.000000,14.225345 M 603.197202,793.292867 l 0.000000,-41.922716 M 610.197202,663.559098 l 0.000000,29.170607 M 610.197202,702.908879 l 0.000000,-3.245554 M 610.197202,715.868493 l 0.000000,10.025829 M 610.197202,737.913665 l 0.000000,-1.913324 M 610.197202,741.146655 l 0.000000,13.730433 M 610.197202,791.476638 l 0.000000,-33.219774 M 617.197202,672.167010 l 0.000000,29.943479 M 617.197202,714.734543 l 0.000000,-6.038441 M 617.197202,724.802492 l 0.000000,5.976112 M 617.197202,753.899053 l 0.000000,-5.382607 M 617.197202,756.004432 l 0.000000,5.572081 M 617.197202,789.375849 l 0.000000,-24.449118 M 624.197202,680.271176 l 0.000000,30.951713 M 624.197202,722.233632 l 0.000000,-2.836105 M 624.197202,751.391994 l 0.000000,3.372436 M 624.197202,761.563385 l 0.000000,-4.565853 M 624.197202,763.427885 l 0.000000,4.993280 M 624.197202,796.763522 l 0.000000,-25.235736 M 631.197202,700.123217 l 0.000000,18.736732 M 631.197202,731.535830 l 0.000000,-4.999331 M 631.197202,751.496241 l 0.000000,5.033458 M 631.197202,793.827896 l 0.000000,-35.463754 M 638.197202,715.444787 l 0.000000,8.130232 M 638.197202,733.901645 l 0.000000,-1.773366 M 638.197202,738.277155 l 0.000000,2.267823 M 638.197202,802.730993 l 0.000000,-49.380716 M 645.197202,706.929405 l 0.000000,8.883216 M 645.197202,824.932237 l 0.000000,-62.155390 M 652.197202,717.119826 l 0.000000,15.841500 M 652.197202,755.054563 l 0.000000,-10.014809 M 652.197202,773.183320 l 0.000000,30.247306 M 652.197202,861.972700 l 0.000000,-57.742740 M 659.197202,745.445041 l 0.000000,31.614495 M 659.197202,817.038308 l 0.000000,-32.885654 M 659.197202,832.256160 l 0.000000,72.846252 M 659.197202,916.834038 l 0.000000,-9.063121 M 666.197202,771.302140 l 0.000000,19.547984 M 666.197202,807.089055 l 0.000000,-8.273100 M 666.197202,807.908817 l 0.000000,83.866287 M 666.197202,919.628466 l 0.000000,-19.222123 M 673.197202,786.996776 l 0.000000,18.545512 M 673.197202,842.134731 l 0.000000,-25.421837 M 673.197202,847.820094 l 0.000000,59.194261 M 680.197202,898.525876 l 0.000000,-71.422384 M 680.197202,899.474124 l 0.000000,19.328151 M 687.197202,915.359054 l 0.000000,-61.470287 M 687.197202,918.178439 l 0.000000,27.904407 M 694.197202,914.042569 l 0.000000,-29.236973 M 694.197202,925.972772 l 0.000000,32.237123 M 701.197202,922.033621 l 0.000000,-15.692632 M 701.197202,950.358131 l 0.000000,9.657943 M 708.197202,944.328522 l 0.000000,-15.591324"
       id="path14" />
  </g>
  <g
     inkscape:label="fill-8e8e8e"
     inkscape:groupmode="layer"
     id="fill-8e8e8e">
    <path
       style="stroke:#8e8e8e"
       d="M 396.737348,798.364775 l 0.000000,9.109576 M 403.737348,799.920530 l 0.000000,-12.390903 M 410.737348,778.619454 l 0.000000,12.731381 M 417.737348,786.408967 l 0.000000,-12.278948 M 417.737348,798.374895 l 0.000000,4.237638 M 424.737348,782.670782 l 0.000000,-12.425915 M 424.737348,786.349001 l 0.000000,13.682561 M 431.737348,655.905101 l 0.000000,-29.100133 M 431.737348,766.825106 l 0.000000,27.743955 M 438.737348,433.031033 l 0.000000,-1.862895 M 438.737348,440.999106 l 0.000000,3.326743 M 438.737348,678.383438 l 0.000000,-73.495730 M 438.737348,758.831200 l 0.000000,32.360969 M 438.737348,827.465937 l 0.000000,-7.202482 M 445.737348,434.928486 l 0.000000,8.155155 M 445.737348,456.641101 l 0.000000,-8.825691 M 445.737348,532.597459 l 0.000000,36.641417 M 445.737348,694.170231 l 0.000000,-100.105503 M 445.737348,748.106633 l 0.000000,41.172893 M 445.737348,822.249056 l 0.000000,-11.830065 M 445.737348,833.253123 l 0.000000,12.238986 M 452.737348,469.748735 l 0.000000,-27.498033 M 452.737348,503.545831 l 0.000000,79.223636 M 452.737348,701.685582 l 0.000000,-116.458052 M 452.737348,765.998829 l 0.000000,75.235981 M 459.737348,538.612136 l 0.000000,-86.366417 M 459.737348,541.125573 l 0.000000,29.869774 M 459.737348,715.847079 l 0.000000,-141.186878 M 459.737348,765.993374 l 0.000000,10.922361 M 459.737348,824.886185 l 0.000000,-31.571404 M 466.737348,462.565228 l 0.000000,97.985093 M 466.737348,616.681330 l 0.000000,-43.845926 M 466.737348,621.766907 l 0.000000,105.835610 M 466.737348,776.080577 l 0.000000,-10.092659 M 466.737348,802.882934 l 0.000000,6.422875 M 473.737348,553.940124 l 0.000000,-84.483708 M 473.737348,556.347361 l 0.000000,6.471655 M 473.737348,628.867720 l 0.000000,-61.613837 M 473.737348,630.867567 l 0.000000,108.051981 M 473.737348,775.639519 l 0.000000,-9.712582 M 473.737348,804.246132 l 0.000000,4.923796 M 480.737348,555.299461 l 0.000000,-81.769087 M 480.737348,558.156286 l 0.000000,72.540807 M 480.737348,749.392711 l 0.000000,-113.638244 M 480.737348,765.786046 l 0.000000,9.578067 M 480.737348,810.081379 l 0.000000,-8.854745 M 487.737348,476.438602 l 0.000000,79.483463 M 487.737348,633.432293 l 0.000000,-75.626581 M 487.737348,639.581391 l 0.000000,118.263217 M 487.737348,775.173389 l 0.000000,-9.642536 M 487.737348,801.067748 l 0.000000,19.845491 M 494.737348,564.407077 l 0.000000,-85.203840 M 494.737348,568.521844 l 0.000000,25.452455 M 494.737348,613.175736 l 0.000000,-16.416590 M 494.737348,616.942946 l 0.000000,22.036500 M 494.737348,775.340706 l 0.000000,-133.324347 M 494.737348,801.828035 l 0.000000,11.175328 M 494.737348,840.047248 l 0.000000,-23.422207 M 501.737348,481.752901 l 0.000000,82.979164 M 501.737348,593.441329 l 0.000000,-26.147668 M 501.737348,612.249743 l 0.000000,71.389703 M 501.737348,776.013130 l 0.000000,-91.049708 M 501.737348,801.718070 l 0.000000,10.371995 M 501.737348,862.021620 l 0.000000,-38.076580 M 508.737348,486.658095 l 0.000000,115.312955 M 508.737348,732.177973 l 0.000000,-118.577377 M 508.737348,736.870875 l 0.000000,42.483181 M 508.737348,811.562963 l 0.000000,-9.979460 M 508.737348,839.900101 l 0.000000,15.455280 M 515.737348,601.136908 l 0.000000,-109.154551 M 515.737348,615.454794 l 0.000000,168.594990 M 515.737348,811.365914 l 0.000000,-10.129134 M 522.737348,499.373984 l 0.000000,105.024855 M 522.737348,783.717626 l 0.000000,-160.312976 M 522.737348,800.890059 l 0.000000,10.363765 M 529.737348,608.803318 l 0.000000,-99.805101 M 529.737348,626.859774 l 0.000000,158.895608 M 529.737348,811.417251 l 0.000000,-10.873914 M 536.737348,526.605505 l 0.000000,85.353714 M 536.737348,787.542877 l 0.000000,-155.783899 M 536.737348,800.105186 l 0.000000,11.596950 M 543.737348,614.808477 l 0.000000,-47.234387 M 543.737348,636.658023 l 0.000000,152.755034 M 543.737348,812.247673 l 0.000000,-13.515996 M 550.737348,578.660573 l 0.000000,39.128075 M 550.737348,667.648191 l 0.000000,-25.906006 M 550.737348,681.123226 l 0.000000,132.343364 M 557.737348,621.362393 l 0.000000,-37.619872 M 557.737348,645.890877 l 0.000000,28.466802 M 557.737348,816.879859 l 0.000000,-135.659490 M 564.737348,589.349609 l 0.000000,36.984855 M 564.737348,700.358181 l 0.000000,-48.527274 M 564.737348,702.166786 l 0.000000,112.508711 M 571.737348,645.426175 l 0.000000,-49.566996 M 571.737348,655.614193 l 0.000000,157.175498 M 578.737348,810.572639 l 0.000000,-206.854955 M 585.737348,613.442667 l 0.000000,92.798019 M 585.737348,804.667529 l 0.000000,-96.094861 M 592.737348,632.358558 l 0.000000,43.378427 M 592.737348,687.313624 l 0.000000,-2.130076 M 592.737348,691.551854 l 0.000000,21.268281 M 592.737348,720.138362 l 0.000000,-3.561130 M 592.737348,721.683628 l 0.000000,73.629090 M 599.737348,682.122785 l 0.000000,-37.280229 M 599.737348,690.110697 l 0.000000,1.391092 M 599.737348,718.003457 l 0.000000,-18.426090 M 599.737348,724.776822 l 0.000000,1.481429 M 599.737348,793.257503 l 0.000000,-63.309933 M 606.737348,656.063185 l 0.000000,33.899384 M 606.737348,700.619517 l 0.000000,-5.602333 M 606.737348,707.464155 l 0.000000,16.738948 M 606.737348,734.778342 l 0.000000,-2.496757 M 606.737348,736.480165 l 0.000000,60.859418 M 613.737348,698.911302 l 0.000000,-33.064357 M 613.737348,702.655604 l 0.000000,28.150068 M 613.737348,791.088988 l 0.000000,-52.007393 M 620.737348,674.319933 l 0.000000,35.349282 M 620.737348,720.946536 l 0.000000,-9.470853 M 620.737348,725.814957 l 0.000000,12.030032 M 620.737348,741.817362 l 0.000000,-0.255080 M 620.737348,746.142594 l 0.000000,46.765817 M 627.737348,688.077499 l 0.000000,-4.355128 M 627.737348,692.852266 l 0.000000,25.464608 M 627.737348,729.388729 l 0.000000,-7.370831 M 627.737348,733.177221 l 0.000000,12.287783 M 627.737348,799.805857 l 0.000000,-53.229509 M 634.737348,690.336346 l 0.000000,8.044547 M 634.737348,738.019532 l 0.000000,-32.674200 M 634.737348,745.486512 l 0.000000,54.112116 M 641.737348,711.136198 l 0.000000,-11.134683 M 641.737348,724.591719 l 0.000000,2.306736 M 641.737348,739.489158 l 0.000000,-6.588805 M 641.737348,741.496315 l 0.000000,5.236974 M 641.737348,819.493825 l 0.000000,-64.019741 M 648.737348,710.117015 l 0.000000,16.985238 M 648.737348,752.951352 l 0.000000,-7.748882 M 648.737348,759.884495 l 0.000000,4.059247 M 648.737348,848.404327 l 0.000000,-81.705751 M 655.737348,728.657568 l 0.000000,8.612809 M 655.737348,771.405839 l 0.000000,-27.517989 M 655.737348,776.668560 l 0.000000,121.215463 M 662.737348,922.798190 l 0.000000,-174.608428 M 669.737348,773.600368 l 0.000000,133.251087 M 676.737348,913.290400 l 0.000000,-113.420208 M 683.737348,833.328054 l 0.000000,103.590485 M 690.737348,954.720707 l 0.000000,-84.698236 M 697.737348,893.901157 l 0.000000,25.524223 M 697.737348,960.057427 l 0.000000,-23.638258 M 704.737348,915.714913 l 0.000000,11.026380 M 711.737348,950.768843 l 0.000000,-13.876315"
       id="path17" />
  </g>
  <g
     inkscape:label="fill-aeaeae"
     inkscape:groupmode="layer"
     id="fill-aeaeae">
    <path
       style="stroke:#aeaeae"
       d="M 392.970128,807.441026 l 0.000000,3.445208 M 400.970128,804.897830 l 0.000000,-14.674476 M 408.970128,779.080400 l 0.000000,14.864751 M 416.970128,787.409753 l 0.000000,-13.206918 M 416.970128,798.143050 l 0.000000,6.834294 M 424.970128,783.200141 l 0.000000,-13.276695 M 424.970128,785.481184 l 0.000000,15.219420 M 432.970128,664.660804 l 0.000000,-44.621393 M 432.970128,765.344488 l 0.000000,29.188315 M 440.970128,437.422062 l 0.000000,-6.644591 M 440.970128,442.549644 l 0.000000,6.914244 M 440.970128,685.593281 l 0.000000,-86.851321 M 440.970128,753.877544 l 0.000000,36.892638 M 440.970128,824.683027 l 0.000000,-7.921079 M 448.970128,436.908035 l 0.000000,12.474673 M 448.970128,463.678670 l 0.000000,-14.232087 M 448.970128,517.310561 l 0.000000,183.404051 M 448.970128,800.129140 l 0.000000,-55.006525 M 448.970128,800.643389 l 0.000000,19.229717 M 448.970128,847.473286 l 0.000000,-19.470655 M 456.970128,447.053468 l 0.000000,266.162725 M 456.970128,777.983635 l 0.000000,-12.539315 M 456.970128,786.334478 l 0.000000,48.583639 M 464.970128,726.225434 l 0.000000,-267.277454 M 464.970128,765.354731 l 0.000000,11.475962 M 464.970128,810.242068 l 0.000000,-9.440175 M 472.970128,467.819378 l 0.000000,271.062317 M 472.970128,776.358607 l 0.000000,-11.133655 M 472.970128,803.735513 l 0.000000,6.514886 M 480.970128,631.272764 l 0.000000,-158.155246 M 480.970128,634.720118 l 0.000000,115.712115 M 480.970128,776.151134 l 0.000000,-11.055960 M 480.970128,800.582547 l 0.000000,9.903270 M 488.970128,556.137815 l 0.000000,-79.662598 M 488.970128,557.378548 l 0.000000,77.357403 M 488.970128,760.199897 l 0.000000,-121.035232 M 488.970128,764.758036 l 0.000000,11.307829 M 488.970128,837.893365 l 0.000000,-37.219036 M 496.970128,479.093558 l 0.000000,85.966897 M 496.970128,593.109771 l 0.000000,-25.606942 M 496.970128,597.289128 l 0.000000,178.858267 M 496.970128,812.964195 l 0.000000,-11.917113 M 496.970128,818.675261 l 0.000000,22.817556 M 496.970128,863.758618 l 0.000000,-6.679053 M 504.970128,483.013575 l 0.000000,115.321504 M 504.970128,777.236922 l 0.000000,-164.936671 M 504.970128,800.892083 l 0.000000,11.769973 M 504.970128,859.801561 l 0.000000,-33.338392 M 512.970128,488.853097 l 0.000000,113.715309 M 512.970128,783.756309 l 0.000000,-170.460791 M 512.970128,800.684285 l 0.000000,11.898754 M 520.970128,604.280574 l 0.000000,-108.166756 M 520.970128,619.900746 l 0.000000,164.293620 M 520.970128,812.504022 l 0.000000,-12.090425 M 528.970128,506.115562 l 0.000000,103.111775 M 528.970128,786.398297 l 0.000000,-161.070081 M 528.970128,800.142909 l 0.000000,12.452432 M 536.970128,612.591599 l 0.000000,-87.475698 M 536.970128,630.985093 l 0.000000,157.571752 M 536.970128,812.695797 l 0.000000,-12.777288 M 544.970128,567.832111 l 0.000000,47.875897 M 544.970128,790.661147 l 0.000000,-155.009840 M 544.970128,796.195981 l 0.000000,16.643891 M 552.970128,619.151461 l 0.000000,-40.514571 M 552.970128,636.506441 l 0.000000,33.965503 M 552.970128,815.779381 l 0.000000,-138.053395 M 560.970128,584.876021 l 0.000000,39.273777 M 560.970128,816.707410 l 0.000000,-169.817589 M 568.970128,591.956382 l 0.000000,51.515160 M 568.970128,813.983243 l 0.000000,-161.734254 M 576.970128,600.319642 l 0.000000,50.892009 M 576.970128,812.036595 l 0.000000,-160.747304 M 584.970128,611.242735 l 0.000000,194.789526 M 592.970128,677.627375 l 0.000000,-48.663891 M 592.970128,679.132478 l 0.000000,116.710105 M 600.970128,685.303187 l 0.000000,-41.822679 M 600.970128,686.919823 l 0.000000,35.358376 M 600.970128,794.284989 l 0.000000,-69.705881 M 608.970128,654.429986 l 0.000000,75.202890 M 608.970128,802.641434 l 0.000000,-69.658912 M 616.970128,667.684007 l 0.000000,67.127574 M 616.970128,793.183787 l 0.000000,-57.008760 M 624.970128,677.289884 l 0.000000,122.040619 M 632.970128,801.342238 l 0.000000,-115.771977 M 640.970128,696.817947 l 0.000000,14.504003 M 640.970128,822.405889 l 0.000000,-103.838057 M 648.970128,708.776439 l 0.000000,21.020502 M 648.970128,856.470175 l 0.000000,-112.895072 M 656.970128,727.307659 l 0.000000,11.790528 M 656.970128,913.992623 l 0.000000,-172.063032 M 664.970128,751.736278 l 0.000000,172.172042 M 672.970128,908.265911 l 0.000000,-128.599378 M 680.970128,815.289718 l 0.000000,108.988925 M 688.970128,952.334753 l 0.000000,-93.987263 M 696.970128,889.474308 l 0.000000,30.371534 M 696.970128,962.106870 l 0.000000,-30.155226 M 704.970128,914.773786 l 0.000000,12.983852 M 704.970128,941.150519 l 0.000000,-10.139489 M 712.970128,939.091575 l 0.000000,11.151746"
       id="path20" />
  </g>
  <g
     inkscape:label="fill-cfcfcf"
     inkscape:groupmode="layer"
     id="fill-cfcfcf">
    <path
       style="stroke:#cfcfcf"
       d="M 387.352575,808.676261 l 0.000000,2.574954 M 396.352575,810.448231 l 0.000000,-15.482055 M 405.352575,783.200482 l 0.000000,16.335450 M 414.352575,790.186052 l 0.000000,-15.627434 M 423.352575,769.559763 l 0.000000,15.474446 M 423.352575,801.185488 l 0.000000,-15.915151 M 432.352575,617.502108 l 0.000000,48.680295 M 432.352575,796.352525 l 0.000000,-31.374730 M 441.352575,430.100667 l 0.000000,9.060463 M 441.352575,451.693954 l 0.000000,-10.725607 M 441.352575,594.931572 l 0.000000,93.894753 M 441.352575,791.520164 l 0.000000,-39.746739 M 441.352575,814.642425 l 0.000000,10.565429 M 441.352575,842.380066 l 0.000000,-9.603746 M 450.352575,437.445214 l 0.000000,31.238823 M 450.352575,705.293005 l 0.000000,-199.248837 M 450.352575,744.833960 l 0.000000,76.037673 M 450.352575,850.623854 l 0.000000,-27.266651 M 459.352575,448.853481 l 0.000000,270.960454 M 459.352575,778.013143 l 0.000000,-13.013143 M 459.352575,789.591265 l 0.000000,41.758297 M 468.352575,733.923063 l 0.000000,-272.468405 M 468.352575,764.948026 l 0.000000,12.366144 M 468.352575,810.480512 l 0.000000,-8.534755 M 477.352575,470.064953 l 0.000000,277.279891 M 477.352575,776.950052 l 0.000000,-12.182981 M 477.352575,801.372212 l 0.000000,9.214774 M 486.352575,634.177395 l 0.000000,-160.197736 M 486.352575,636.472616 l 0.000000,122.064570 M 486.352575,776.913093 l 0.000000,-12.712253 M 486.352575,799.494586 l 0.000000,20.695399 M 495.352575,776.876135 l 0.000000,-299.355151 M 495.352575,800.344979 l 0.000000,13.693694 M 495.352575,841.487178 l 0.000000,-25.401485 M 495.352575,857.816344 l 0.000000,6.322092 M 504.352575,599.871459 l 0.000000,-118.551650 M 504.352575,602.989045 l 0.000000,174.933171 M 504.352575,812.933945 l 0.000000,-12.794523 M 504.352575,824.557938 l 0.000000,37.140922 M 513.352575,604.588685 l 0.000000,-116.894620 M 513.352575,612.522691 l 0.000000,172.792529 M 513.352575,812.630286 l 0.000000,-12.822079 M 522.352575,496.681809 l 0.000000,109.718087 M 522.352575,785.503890 l 0.000000,-166.333252 M 522.352575,787.089069 l 0.000000,5.413863 M 522.352575,812.576777 l 0.000000,-13.223306 M 531.352575,507.920541 l 0.000000,103.199885 M 531.352575,788.517631 l 0.000000,-163.144718 M 531.352575,796.151715 l 0.000000,16.626619 M 540.352575,614.920103 l 0.000000,-82.317583 M 540.352575,632.216981 l 0.000000,158.044218 M 540.352575,813.173333 l 0.000000,-14.587252 M 549.352575,572.456282 l 0.000000,46.203151 M 549.352575,814.348549 l 0.000000,-181.610819 M 558.352575,581.223291 l 0.000000,42.301217 M 558.352575,818.780793 l 0.000000,-178.178951 M 567.352575,588.965267 l 0.000000,42.326634 M 567.352575,643.675067 l 0.000000,-9.927575 M 567.352575,648.055203 l 0.000000,168.007505 M 576.352575,813.511634 l 0.000000,-215.763860 M 585.352575,609.722275 l 0.000000,197.295124 M 594.352575,796.634102 l 0.000000,-169.767543 M 603.352575,643.907778 l 0.000000,151.794153 M 612.352575,795.669376 l 0.000000,-138.345829 M 612.352575,803.093493 l 0.000000,2.696570 M 621.352575,798.064200 l 0.000000,-127.034178 M 630.352575,680.448685 l 0.000000,122.873998 M 639.352575,826.026216 l 0.000000,-134.455501 M 648.352575,705.378113 l 0.000000,154.009776 M 657.352575,918.834476 l 0.000000,-193.816601 M 666.352575,752.460612 l 0.000000,172.467077 M 675.352575,913.055739 l 0.000000,-127.829727 M 684.352575,827.590087 l 0.000000,115.863629 M 693.352575,963.611080 l 0.000000,-89.159566 M 702.352575,903.586902 l 0.000000,23.163653 M 702.352575,962.803205 l 0.000000,-14.684950 M 711.352575,931.105406 l 0.000000,21.722312"
       id="path23" />
  </g>
  <g
     inkscape:label="stroke-000000"
     inkscape:groupmode="layer"
     id="stroke-000000">
    <path
       style="fill:none;stroke:#000000"
       d="m 560.24995,818.1562 c 2.88113,-1.13614 7.35372,-2.36514 9.90625,-2.71875 2.55254,-0.35361 6.20204,-1.59721 8.125,-2.78125 5.0355,-3.10057 15.71875,-13.29847 15.71875,-15 0,-1.78143 2.13906,-2.65625 6.46875,-2.65625 3.00821,0 3.54767,0.48763 6,5.5 1.95405,3.99394 3.23512,5.5 4.71875,5.5 1.65871,0 1.90992,-0.4233 1.34375,-2.25 -1.642,-5.29781 -1.6115,-6.45115 0.25,-8.75 l 1.9375,-2.375 4.09375,3.5 c 2.2484,1.92456 5.36819,4.09214 6.90625,4.8125 1.53806,0.72036 3.45625,1.62974 4.28125,2.03125 0.825,0.4015 1.95,2.05953 2.5,3.6875 0.55,1.62797 1.90432,4.28696 3,5.90625 1.09568,1.61928 2.50993,6.0875 3.15625,9.9375 1.75539,10.45648 2.83839,14.66835 4.625,18.09375 0.88746,1.70149 1.90452,5.52649 2.28125,8.5 0.37674,2.97351 1.75889,7.97907 3.0625,11.125 2.11359,5.10058 2.375,7.25059 2.375,19.90625 0,9.43456 0.50018,15.89897 1.46875,19.28125 0.80136,2.79834 2.37447,9.13811 3.5,14.0625 1.12553,4.92438 2.42473,9.33098 2.90625,9.8125 0.48152,0.48152 2.7334,1.13349 5,1.4375 3.81917,0.51226 4.137,0.36344 4.1875,-1.84375 0.03,-1.30992 0.81897,-5.49556 1.78125,-9.3125 l 1.75,-6.9375 4.34375,7.4375 c 3.73644,6.42178 4.43406,8.54455 5.09375,15.5 0.77097,8.12875 3.55094,16.11861 11,31.6875 1.77628,3.7125 3.83823,6.75 4.59375,6.75 0.75552,0 1.375,-0.45 1.375,-1 0,-0.55 0.70943,-1 1.5625,-1 1.8622,0 4.4375,-5.7556 4.4375,-9.90625 0,-1.63927 -1.09017,-6.49035 -2.40625,-10.78125 -1.31609,-4.29089 -3.35353,-11.59579 -4.5625,-16.21875 -1.20896,-4.62295 -2.44517,-9.12295 -2.71875,-10 -0.27358,-0.87704 1.80456,0.88125 4.59375,3.90625 l 5.0625,5.5 -0.1875,6.5 c -0.16215,5.7072 0.22986,7.20133 3.125,12.25 4.37378,7.62719 6.71834,7.78156 7.59375,0.5 0.53616,-4.4597 0.0178,-7.0564 -3.34375,-17.25 -18.94473,-57.4484 -19.80467,-60.53339 -22.65625,-80.875 -0.83731,-5.97286 -1.7419,-11.21933 -2.03125,-11.6875 -0.28935,-0.46817 -1.39949,-5.94728 -2.46875,-12.15625 -2.47411,-14.36669 -3.61094,-19.62416 -4.875,-22.9375 -0.55672,-1.45925 -1.50093,-5.50925 -2.09375,-9 -2.03407,-11.97742 -6.54776,-29.69994 -8.5625,-33.5625 -0.80071,-1.53508 -1.46575,-3.86082 -1.46875,-5.1875 -0.003,-1.32668 -1.10411,-4.32766 -2.46875,-6.65625 -1.69172,-2.8867 -2.89003,-7.18559 -3.75,-13.5 -0.99929,-7.33732 -1.63879,-9.35461 -3.03125,-9.71875 -2.00501,-0.52432 -2.28298,-2.27952 -0.625,-3.9375 0.83816,-0.83816 -1.41374,-4.93985 -8.75,-15.875 -5.43324,-8.09858 -10.55,-15.93497 -11.375,-17.4375 -0.825,-1.50253 -4.50676,-5.5931 -8.1875,-9.09375 C 621.45068,671.87336 618.60646,668.24928 614,660 c -1.68918,-3.025 -5.07102,-8.2 -7.53125,-11.5 -4.88964,-6.55865 -10.56833,-17.06842 -13.625,-25.21875 C 590.36287,616.66623 582.19757,604.11414 575.75,597 c -5.02826,-5.54809 -20.55996,-19 -21.9375,-19 -0.40895,0 -2.3212,-2.3625 -4.25,-5.25 -1.92879,-2.8875 -4.20096,-6.15656 -5.03125,-7.28125 -1.07739,-1.45942 -1.6364,-5.53456 -1.96875,-14.21875 -0.25612,-6.6924 -0.97594,-14.11084 -1.59375,-16.46875 -3.47022,-13.24445 -7.37859,-23.84886 -10.625,-28.75 C 526.36141,500.01908 510.49903,484 508.53125,484 c -0.66778,0 -1.9721,-0.84276 -2.90625,-1.875 -0.93416,-1.03223 -4.26766,-2.6706 -7.40625,-3.625 -3.13859,-0.95441 -8.05281,-2.81163 -10.90625,-4.125 -2.85345,-1.31336 -5.65911,-2.375 -6.21875,-2.375 -1.78828,0 -7.55908,-4.38188 -11.1875,-8.5 -1.93364,-2.1946 -6.53116,-8.58975 -10.21875,-14.1875 -7.40223,-11.23656 -15.35033,-18.97727 -20.46875,-19.9375 -0.91195,-0.17107 -1.79024,-0.24594 -2.5,-0.25 -0.70976,-0.004 -1.24133,0.0851 -1.40625,0.25 -0.59605,0.59606 2.15889,4.93045 7.375,11.625 l 2.71875,3.5 -3.4375,-3.03125 c -7.2449,-6.35517 -8.00601,-6.83774 -9,-5.84375 -0.63734,0.63734 0.14778,2.71277 2.21875,5.9375 7.4927,11.66695 15.60676,26.63883 16.59375,30.625 2.73335,11.03921 3.33427,15.71992 2.28125,17.6875 -0.58352,1.09032 -1.0625,3.34965 -1.0625,5 0,1.65035 -0.4997,4.2642 -1.125,5.8125 -0.62531,1.54831 -1.50635,4.6125 -1.9375,6.8125 -0.43115,2.2 -1.26487,6.025 -1.875,8.5 -0.61013,2.475 -1.58894,6.75 -2.15625,9.5 -0.56731,2.75 -1.71901,6.92572 -2.5625,9.28125 -1.03126,2.8799 -1.19565,4.68151 -0.53125,5.5 0.60142,0.7409 0.66841,3.1753 0.1875,6.21875 -0.43454,2.75 -0.38671,10.175 0.0937,16.5 0.48046,6.325 0.862,14.98495 0.875,19.25 0.0228,7.47557 -0.16669,8.1255 -5.46875,18.28125 -3.025,5.79419 -5.5,11.81183 -5.5,13.34375 0,1.53192 -1.125,6.08233 -2.5,10.125 -7.26809,21.36908 1.30786,52.85191 24.0625,88.3125 3.81445,5.94439 10.26437,16.06939 14.34375,22.5"
       id="path3234"
       inkscape:connector-curvature="0"
       sodipodi:nodetypes="cssssssscccsssssssssssssscccssssssssscccssssssssscsssssssssssssssssssssssscsscccssssssssssssssssssc" />
  </g>
</svg>
