<?xml version="1.0" encoding="UTF-8" standalone="no"?>
<!-- Created with Inkscape (http://www.inkscape.org/) -->

<svg
   xmlns:dc="http://purl.org/dc/elements/1.1/"
   xmlns:cc="http://creativecommons.org/ns#"
   xmlns:rdf="http://www.w3.org/1999/02/22-rdf-syntax-ns#"
   xmlns:svg="http://www.w3.org/2000/svg"
   xmlns="http://www.w3.org/2000/svg"
   xmlns:sodipodi="http://sodipodi.sourceforge.net/DTD/sodipodi-0.dtd"
   xmlns:inkscape="http://www.inkscape.org/namespaces/inkscape"
   id="svg2"
   version="1.1"
   inkscape:version="0.48.3.1 r9886"
   width="1000"
   height="1494"
   sodipodi:docname="hantologie-_0018_kepi_hatched_1398280399.svg">
  <defs
     id="defs27" />
  <sodipodi:namedview
     pagecolor="#ffffff"
     bordercolor="#666666"
     borderopacity="1"
     objecttolerance="10"
     gridtolerance="10"
     guidetolerance="10"
     inkscape:pageopacity="0"
     inkscape:pageshadow="2"
     inkscape:window-width="640"
     inkscape:window-height="480"
     id="namedview25" />
  <metadata
     id="metadata8">
    <rdf:RDF>
      <cc:Work
         rdf:about="">
        <dc:format>image/svg+xml </dc:format>
        <dc:type
           rdf:resource="http://purl.org/dc/dcmitype/StillImage" />
        <dc:title />
      </cc:Work>
    </rdf:RDF>
  </metadata>
  <g
     inkscape:label="fill-151515"
     inkscape:groupmode="layer"
     id="fill-151515">
    <path
       style="stroke:#151515"
       d="M 149.510062,1202.496427 l 0.000000,14.645087 M 154.510062,1219.915934 l 0.000000,-26.960174 M 159.510062,1183.415092 l 0.000000,16.750322 M 159.510062,1218.570370 l 0.000000,-13.992534 M 164.510062,1173.869809 l 0.000000,40.784648 M 169.510062,1212.417279 l 0.000000,-48.096730 M 174.510062,1154.771290 l 0.000000,48.390249 M 179.510062,1193.905799 l 0.000000,-48.683769 M 184.510062,1135.810200 l 0.000000,48.839859 M 189.510062,1175.361493 l 0.000000,-48.802657 M 194.510062,1117.307471 l 0.000000,48.743598 M 199.510062,1133.186443 l 0.000000,-25.130336 M 199.510062,1138.634103 l 0.000000,18.106544 M 204.510062,1115.160132 l 0.000000,-16.355390 M 204.510062,1116.834516 l 0.000000,17.938703 M 204.510062,1147.430223 l 0.000000,-7.955340 M 209.510062,1089.555861 l 0.000000,29.155035 M 209.510062,1138.119800 l 0.000000,-7.667578 M 214.510062,1080.328771 l 0.000000,17.302606 M 214.510062,1112.360233 l 0.000000,-12.544280 M 214.510062,1121.366171 l 0.000000,7.306997 M 219.510062,1085.297200 l 0.000000,-14.195519 M 219.510062,1092.758334 l 0.000000,26.023608 M 224.510062,1071.283651 l 0.000000,-9.409060 M 224.510062,1073.994695 l 0.000000,3.445960 M 224.510062,1093.938401 l 0.000000,-9.178936 M 224.510062,1095.413387 l 0.000000,13.160426 M 229.510062,1069.482608 l 0.000000,-16.835106 M 229.510062,1076.291332 l 0.000000,23.457780 M 234.510062,1052.794432 l 0.000000,-9.374020 M 234.510062,1067.214817 l 0.000000,24.433138 M 239.510062,1050.592300 l 0.000000,-16.431412 M 239.510062,1058.842604 l 0.000000,24.101283 M 244.510062,1034.941495 l 0.000000,-10.048656 M 244.510062,1049.998786 l 0.000000,8.269093 M 244.510062,1072.833992 l 0.000000,-12.170575 M 249.510062,1015.624792 l 0.000000,10.729853 M 249.510062,1061.043953 l 0.000000,-20.095424 M 254.510062,1006.356744 l 0.000000,13.209987 M 254.510062,1051.260053 l 0.000000,-20.034499 M 259.510062,997.088695 l 0.000000,12.763857 M 259.510062,1041.636230 l 0.000000,-20.806098 M 264.510062,987.817330 l 0.000000,12.967565 M 264.510062,1005.436592 l 0.000000,-1.231295 M 264.510062,1013.492306 l 0.000000,18.475217 M 269.510062,989.936732 l 0.000000,-11.397120 M 269.510062,1000.401082 l 0.000000,21.652659 M 274.510062,980.820833 l 0.000000,-11.558939 M 274.510062,990.396868 l 0.000000,13.339799 M 274.510062,1011.280010 l 0.000000,-5.448288 M 279.510062,960.155044 l 0.000000,15.348120 M 279.510062,991.552265 l 0.000000,-14.640616 M 284.510062,951.813631 l 0.000000,14.576696 M 284.510062,980.562694 l 0.000000,-9.885065 M 289.510062,945.322936 l 0.000000,11.221982 M 294.510062,944.248353 l 0.000000,-5.563154 M 294.510062,947.897548 l 0.000000,6.392974 M 294.510062,1410.184076 l 0.000000,-14.615711 M 299.510062,959.145727 l 0.000000,7.213047 M 299.510062,1363.829910 l 0.000000,-3.381308 M 304.510062,919.298650 l 0.000000,7.044517 M 304.510062,947.924808 l 0.000000,-3.514144 M 309.510062,905.984238 l 0.000000,11.140191 M 309.510062,936.787435 l 0.000000,-7.146955 M 309.510062,1409.653065 l 0.000000,3.898750 M 314.510062,907.709864 l 0.000000,-11.882074 M 314.510062,917.709876 l 0.000000,5.374136 M 319.510062,895.892017 l 0.000000,-9.642470 M 319.510062,905.061567 l 0.000000,6.956801 M 324.510062,883.942406 l 0.000000,-7.060031 M 324.510062,895.176076 l 0.000000,5.075751 M 324.510062,926.955973 l 0.000000,-8.417961 M 329.510062,867.537020 l 0.000000,7.353141 M 329.510062,890.005828 l 0.000000,-4.499137 M 329.510062,902.894751 l 0.000000,7.765056 M 334.510062,865.208380 l 0.000000,-7.016715 M 334.510062,877.008527 l 0.000000,2.781593 M 334.510062,898.642172 l 0.000000,-2.507609 M 339.510062,848.846311 l 0.000000,6.525606 M 339.510062,870.702234 l 0.000000,-1.679328 M 344.510062,839.695895 l 0.000000,5.977465 M 349.510062,836.322813 l 0.000000,-5.757922 M 349.510062,845.704462 l 0.000000,5.886961 M 349.510062,869.599018 l 0.000000,-1.592441 M 354.510062,821.468970 l 0.000000,5.862899 M 354.510062,848.621349 l 0.000000,-10.939440 M 359.510062,812.930971 l 0.000000,5.502223 M 359.510062,839.425721 l 0.000000,-8.548810 M 364.510062,804.392972 l 0.000000,5.173857 M 364.510062,831.468226 l 0.000000,-8.105671 M 364.510062,842.375053 l 0.000000,2.829818 M 369.510062,800.700464 l 0.000000,-6.083438 M 369.510062,821.946538 l 0.000000,4.157604 M 369.510062,843.971172 l 0.000000,-11.348530 M 374.510062,784.422087 l 0.000000,6.743522 M 374.510062,807.972118 l 0.000000,-3.684779 M 374.510062,813.453358 l 0.000000,3.622244 M 374.510062,835.502911 l 0.000000,-10.664722 M 374.510062,1081.187976 l 0.000000,4.435650 M 379.510062,781.615290 l 0.000000,-6.740110 M 379.510062,794.063780 l 0.000000,15.092173 M 379.510062,826.581787 l 0.000000,-9.919125 M 384.510062,765.418904 l 0.000000,6.768489 M 384.510062,787.972661 l 0.000000,-3.736934 M 384.510062,793.024733 l 0.000000,6.081219 M 384.510062,817.614039 l 0.000000,-9.723458 M 389.510062,755.962628 l 0.000000,7.151196 M 389.510062,779.207212 l 0.000000,-5.349166 M 389.510062,782.601711 l 0.000000,5.409488 M 389.510062,808.328541 l 0.000000,-10.623453 M 394.510062,746.506352 l 0.000000,30.886830 M 394.510062,799.043043 l 0.000000,-10.244822 M 399.510062,737.050076 l 0.000000,11.472891 M 399.510062,764.630223 l 0.000000,-14.041070 M 399.510062,778.206241 l 0.000000,11.551303 M 404.510062,739.937010 l 0.000000,-12.333426 M 404.510062,743.086007 l 0.000000,11.103601 M 404.510062,779.285783 l 0.000000,-12.503069 M 409.510062,718.195850 l 0.000000,24.416057 M 409.510062,764.645966 l 0.000000,-8.962351 M 414.510062,499.321383 l 0.000000,1.638769 M 414.510062,731.600247 l 0.000000,-22.812132 M 419.510062,699.411123 l 0.000000,15.915660 M 424.510062,515.702572 l 0.000000,-2.294134 M 449.510062,578.722936 l 0.000000,15.672085 M 454.510062,594.566418 l 0.000000,-21.370452 M 459.510062,581.116563 l 0.000000,16.034722 M 464.510062,520.322227 l 0.000000,-18.347371 M 464.510062,589.037160 l 0.000000,12.854057 M 469.510062,500.299630 l 0.000000,-19.266225 M 469.510062,597.304732 l 0.000000,13.825772 M 469.510062,658.632191 l 0.000000,-34.625355 M 474.510062,605.660081 l 0.000000,44.971222 M 479.510062,599.917446 l 0.000000,-3.891382 M 479.510062,613.903488 l 0.000000,28.145356 M 484.510062,633.590278 l 0.000000,-13.064607 M 489.510062,567.177216 l 0.000000,2.651179 M 494.510062,577.986298 l 0.000000,-13.449527 M 504.510062,587.400898 l 0.000000,4.656758 M 519.510062,566.991259 l 0.000000,-3.613332 M 524.510062,551.477000 l 0.000000,7.466891 M 529.510062,549.824188 l 0.000000,-9.269848 M 534.510062,529.890867 l 0.000000,10.606815 M 539.510062,530.687509 l 0.000000,-11.186804 M 544.510062,509.284344 l 0.000000,11.088223 M 549.510062,507.673192 l 0.000000,-8.290143 M 564.510062,479.141860 l 0.000000,5.374362 M 569.510062,474.715584 l 0.000000,-6.295230 M 574.510062,457.827001 l 0.000000,7.087945 M 579.510062,454.793485 l 0.000000,-7.453985 M 584.510062,441.038185 l 0.000000,3.490298 M 619.510062,845.573679 l 0.000000,-3.677156 M 624.510062,852.453051 l 0.000000,3.768933 M 629.510062,862.075803 l 0.000000,-3.761449 M 634.510062,864.357921 l 0.000000,1.263558 M 724.510062,1012.629348 l 0.000000,-3.363450 M 734.510062,1028.795756 l 0.000000,3.406689 M 744.510062,1050.888751 l 0.000000,-1.010362"
       id="path5" />
  </g>
  <g
     inkscape:label="fill-2f2f2f"
     inkscape:groupmode="layer"
     id="fill-2f2f2f">
    <path
       style="stroke:#2f2f2f"
       d="M 148.374073,1202.787831 l 0.000000,16.808787 M 153.374073,1221.695404 l 0.000000,-28.580669 M 158.374073,1183.759033 l 0.000000,37.560824 M 163.374073,1219.620053 l 0.000000,-45.148138 M 168.374073,1165.184797 l 0.000000,49.908418 M 173.374073,1206.595703 l 0.000000,-50.698024 M 178.374073,1146.610561 l 0.000000,50.863941 M 183.374073,1188.353301 l 0.000000,-51.029858 M 188.374073,1128.036325 l 0.000000,51.104794 M 193.374073,1169.862387 l 0.000000,-51.113180 M 198.374073,1109.462089 l 0.000000,51.121567 M 203.374073,1151.304923 l 0.000000,-51.129953 M 208.374073,1090.887852 l 0.000000,51.138339 M 213.374073,1132.646890 l 0.000000,-51.046156 M 218.374073,1072.313616 l 0.000000,50.925876 M 223.374073,1113.832095 l 0.000000,-50.805596 M 228.374073,1053.739380 l 0.000000,50.790745 M 233.374073,1095.739476 l 0.000000,-51.287214 M 238.374073,1035.165144 l 0.000000,51.737949 M 243.374073,1077.381451 l 0.000000,-51.503425 M 248.374073,1016.590908 l 0.000000,51.402121 M 253.374073,1058.623322 l 0.000000,-51.319532 M 258.374073,998.016672 l 0.000000,51.236943 M 263.374073,1040.049223 l 0.000000,-51.319669 M 268.374073,979.442436 l 0.000000,51.454749 M 273.374073,1021.745147 l 0.000000,-51.589829 M 278.374073,960.874364 l 0.000000,51.718744 M 283.374073,1003.441071 l 0.000000,-51.834309 M 288.374073,942.339160 l 0.000000,51.949873 M 288.374073,1414.857236 l 0.000000,-6.721527 M 293.374073,933.071557 l 0.000000,52.065437 M 293.374073,1348.907651 l 0.000000,-7.051845 M 293.374073,1378.645655 l 0.000000,37.293757 M 298.374073,975.984956 l 0.000000,-52.181001 M 298.374073,1351.833592 l 0.000000,57.573229 M 303.374073,966.902206 l 0.000000,-52.365854 M 303.374073,1326.995387 l 0.000000,45.630103 M 303.374073,1394.766618 l 0.000000,-2.533237 M 308.374073,905.268750 l 0.000000,52.576531 M 308.374073,1275.944578 l 0.000000,-4.311992 M 308.374073,1299.805454 l 0.000000,37.591719 M 308.374073,1421.522344 l 0.000000,-37.018295 M 313.374073,896.001147 l 0.000000,52.787208 M 313.374073,1251.463483 l 0.000000,-7.142274 M 313.374073,1282.283783 l 0.000000,25.865400 M 313.374073,1406.850898 l 0.000000,-27.472957 M 318.374073,886.733545 l 0.000000,52.997885 M 318.374073,1229.842079 l 0.000000,-10.198149 M 318.374073,1254.203600 l 0.000000,12.244409 M 318.374073,1377.879280 l 0.000000,-1.862089 M 323.374073,877.465943 l 0.000000,53.202189 M 323.374073,1199.774824 l 0.000000,-2.403420 M 323.374073,1228.359158 l 0.000000,12.913134 M 323.374073,1352.532373 l 0.000000,-26.698241 M 328.374073,868.182855 l 0.000000,52.952906 M 328.374073,1178.511259 l 0.000000,-5.942306 M 328.374073,1202.084295 l 0.000000,14.679974 M 328.374073,1329.915655 l 0.000000,-3.844701 M 333.374073,858.892479 l 0.000000,52.665571 M 333.374073,1183.716192 l 0.000000,-10.316134 M 338.374073,849.602104 l 0.000000,52.466741 M 338.374073,1277.118999 l 0.000000,-15.388430 M 343.374073,840.311728 l 0.000000,52.586588 M 343.374073,1251.572628 l 0.000000,-22.328555 M 348.374073,831.021352 l 0.000000,52.963995 M 353.374073,875.072379 l 0.000000,-53.369430 M 353.374073,1178.492091 l 0.000000,16.232498 M 358.374073,866.159410 l 0.000000,-53.796258 M 358.374073,1158.579863 l 0.000000,21.099190 M 363.374073,857.246442 l 0.000000,-54.223085 M 363.374073,1131.368928 l 0.000000,24.171066 M 368.374073,848.308151 l 0.000000,-54.624590 M 368.374073,1100.324594 l 0.000000,29.787130 M 373.374073,839.236367 l 0.000000,-54.892601 M 373.374073,1072.850850 l 0.000000,31.767051 M 378.374073,830.164583 l 0.000000,-55.160613 M 378.374073,1056.559928 l 0.000000,23.507167 M 383.374073,821.092798 l 0.000000,-55.428624 M 383.374073,1033.712204 l 0.000000,20.870792 M 388.374073,812.021014 l 0.000000,-55.696636 M 388.374073,1012.676514 l 0.000000,15.723533 M 393.374073,465.956640 l 0.000000,-2.188106 M 393.374073,747.001906 l 0.000000,55.947324 M 393.374073,1002.204186 l 0.000000,-5.246430 M 398.374073,471.001225 l 0.000000,3.363894 M 398.374073,793.877446 l 0.000000,-56.179532 M 398.374073,956.280380 l 0.000000,8.413846 M 403.374073,483.143241 l 0.000000,-5.642747 M 403.374073,728.393923 l 0.000000,56.915571 M 403.374073,951.005992 l 0.000000,-19.451571 M 408.374073,485.190586 l 0.000000,7.005197 M 408.374073,776.875636 l 0.000000,-57.785705 M 408.374073,914.411490 l 0.000000,13.007227 M 413.374073,501.142024 l 0.000000,-7.507638 M 413.374073,709.785939 l 0.000000,45.499031 M 418.374073,508.626619 l 0.000000,-7.399163 M 418.374073,700.675380 l 0.000000,31.109815 M 418.374073,866.701039 l 0.000000,-2.547025 M 423.374073,508.179552 l 0.000000,8.612599 M 423.374073,709.421289 l 0.000000,-17.716182 M 423.374073,831.926426 l 0.000000,15.116010 M 428.374073,524.919791 l 0.000000,-9.108335 M 433.374073,523.439232 l 0.000000,9.585702 M 438.374073,541.130078 l 0.000000,-10.496148 M 443.374073,537.670109 l 0.000000,11.271624 M 448.374073,556.307886 l 0.000000,-9.895999 M 448.374073,581.736881 l 0.000000,16.548970 M 453.374073,564.474118 l 0.000000,-9.662597 M 453.374073,568.294416 l 0.000000,28.011098 M 458.374073,570.176707 l 0.000000,-7.624912 M 458.374073,574.770497 l 0.000000,23.267716 M 463.374073,525.604785 l 0.000000,-20.878652 M 463.374073,570.277558 l 0.000000,7.285787 M 463.374073,602.189901 l 0.000000,-23.649715 M 463.374073,649.381463 l 0.000000,22.493890 M 468.374073,519.830085 l 0.000000,-38.068919 M 468.374073,577.989380 l 0.000000,9.507727 M 468.374073,611.485033 l 0.000000,-20.348158 M 468.374073,621.976843 l 0.000000,41.088702 M 473.374073,470.427171 l 0.000000,-10.752956 M 473.374073,586.108885 l 0.000000,7.312316 M 473.374073,654.253256 l 0.000000,-57.031896 M 478.374073,593.538551 l 0.000000,51.858530 M 483.374073,602.546565 l 0.000000,-5.411891 M 483.374073,603.631489 l 0.000000,2.928939 M 483.374073,636.716736 l 0.000000,-27.068406 M 488.374073,568.236732 l 0.000000,1.407843 M 488.374073,600.572462 l 0.000000,-1.742937 M 488.374073,609.619767 l 0.000000,3.129647 M 488.374073,629.264428 l 0.000000,-9.311066 M 493.374073,560.181708 l 0.000000,17.870906 M 493.374073,619.479028 l 0.000000,-3.851332 M 493.374073,626.134838 l 0.000000,8.205269 M 498.374073,559.568694 l 0.000000,-5.870349 M 498.374073,570.325446 l 0.000000,15.639909 M 498.374073,625.991815 l 0.000000,-0.648917 M 498.374073,633.834492 l 0.000000,7.604246 M 503.374073,549.543829 l 0.000000,-6.765327 M 503.374073,581.397645 l 0.000000,12.279459 M 503.374073,633.117315 l 0.000000,-2.502135 M 503.374073,641.407046 l 0.000000,7.299074 M 508.374073,539.293176 l 0.000000,-6.856363 M 508.374073,554.224207 l 0.000000,2.139968 M 508.374073,589.393612 l 0.000000,-12.181677 M 508.374073,649.949442 l 0.000000,6.526021 M 513.374073,530.287516 l 0.000000,-7.560702 M 513.374073,540.635419 l 0.000000,3.024663 M 513.374073,580.614955 l 0.000000,-12.171397 M 513.374073,659.407140 l 0.000000,5.629262 M 518.374073,520.459343 l 0.000000,-7.180916 M 518.374073,530.381617 l 0.000000,4.028038 M 518.374073,571.454771 l 0.000000,-12.872569 M 518.374073,668.063100 l 0.000000,6.299479 M 523.374073,510.631170 l 0.000000,-6.667009 M 523.374073,548.795894 l 0.000000,13.498693 M 523.374073,683.540687 l 0.000000,-3.679256 M 528.374073,494.649897 l 0.000000,6.153101 M 528.374073,513.313336 l 0.000000,-0.754290 M 528.374073,539.130368 l 0.000000,14.004035 M 528.374073,692.455923 l 0.000000,-4.082166 M 533.374073,485.295323 l 0.000000,5.679502 M 533.374073,503.485089 l 0.000000,-3.754229 M 533.374073,528.790332 l 0.000000,15.168813 M 533.374073,701.126379 l 0.000000,-4.638453 M 538.374073,475.934237 l 0.000000,5.266962 M 538.374073,493.800585 l 0.000000,-3.404169 M 538.374073,517.990755 l 0.000000,16.573515 M 538.374073,709.110724 l 0.000000,-3.984845 M 543.374073,466.453541 l 0.000000,5.287433 M 543.374073,483.256685 l 0.000000,-2.871312 M 543.374073,507.629009 l 0.000000,17.540385 M 548.374073,462.280749 l 0.000000,-5.307904 M 548.374073,471.385114 l 0.000000,0.210137 M 548.374073,515.806819 l 0.000000,-18.379419 M 553.374073,447.519726 l 0.000000,5.300798 M 553.374073,462.687876 l 0.000000,-3.942693 M 553.374073,487.225791 l 0.000000,19.322511 M 558.374073,443.360765 l 0.000000,-5.046719 M 558.374073,449.906067 l 0.000000,3.323796 M 558.374073,497.289784 l 0.000000,-20.265603 M 563.374073,431.015812 l 0.000000,2.513172 M 563.374073,441.725062 l 0.000000,-2.118741 M 563.374073,466.956573 l 0.000000,21.064399 M 568.374073,478.733997 l 0.000000,-21.780973 M 573.374073,447.471530 l 0.000000,21.547276 M 578.374073,442.481238 l 0.000000,-2.687846 M 578.374073,443.316897 l 0.000000,15.865251 M 578.374073,775.627905 l 0.000000,-12.864346 M 583.374073,440.099238 l 0.000000,8.978151 M 583.374073,783.926521 l 0.000000,-5.579746 M 608.374073,812.869113 l 0.000000,4.211352 M 613.374073,836.909589 l 0.000000,-14.104596 M 618.374073,834.237858 l 0.000000,12.566681 M 623.374073,855.321522 l 0.000000,-7.668335 M 628.374073,854.836267 l 0.000000,8.702561 M 633.374073,870.268565 l 0.000000,-9.527623 M 638.374073,865.973960 l 0.000000,7.733245 M 643.374073,878.275011 l 0.000000,-5.449321 M 653.374073,892.072285 l 0.000000,10.479326 M 658.374073,910.772489 l 0.000000,-10.293002 M 663.374073,906.873013 l 0.000000,6.546084 M 668.374073,917.202298 l 0.000000,-4.085471 M 678.374073,929.366409 l 0.000000,3.265619 M 683.374073,942.104653 l 0.000000,-3.228638 M 688.374073,946.333343 l 0.000000,1.921703 M 708.374073,982.450363 l 0.000000,-5.528116 M 713.374073,986.461862 l 0.000000,7.351376 M 718.374073,1011.682963 l 0.000000,-16.553163 M 723.374073,1003.398406 l 0.000000,16.923996 M 728.374073,1034.655684 l 0.000000,-21.943267 M 733.374073,994.532991 l 0.000000,1.807476 M 733.374073,1043.546476 l 0.000000,-21.000083 M 738.374073,1005.450317 l 0.000000,4.873138 M 738.374073,1020.766865 l 0.000000,-2.029204 M 738.374073,1032.684739 l 0.000000,18.359494 M 743.374073,1020.107257 l 0.000000,-9.739408 M 743.374073,1029.238902 l 0.000000,1.613200 M 743.374073,1054.465952 l 0.000000,-11.344510 M 748.374073,1018.772383 l 0.000000,12.732418 M 748.374073,1060.370799 l 0.000000,-8.003425 M 753.374073,1027.182274 l 0.000000,13.417514 M 753.374073,1051.039479 l 0.000000,-4.322307 M 753.374073,1059.588091 l 0.000000,6.009048 M 758.374073,1049.712928 l 0.000000,-13.972554 M 758.374073,1054.293533 l 0.000000,2.766574 M 758.374073,1070.512037 l 0.000000,-4.636545 M 763.374073,1044.341606 l 0.000000,12.309686 M 763.374073,1075.068205 l 0.000000,-1.880899 M 768.374073,1053.408298 l 0.000000,8.983917 M 768.374073,1083.177059 l 0.000000,-3.708389 M 773.374073,1063.185660 l 0.000000,0.186751 M 798.374073,1134.190797 l 0.000000,-1.910999 M 813.374073,1165.866316 l 0.000000,14.303800 M 833.374073,1169.454928 l 0.000000,-3.158071 M 838.374073,1174.416918 l 0.000000,4.903627 M 838.374073,1215.433756 l 0.000000,-10.527152 M 843.374073,1182.827475 l 0.000000,6.620679 M 843.374073,1230.809681 l 0.000000,-10.959710 M 848.374073,1191.238033 l 0.000000,9.161700 M 848.374073,1240.444921 l 0.000000,-6.411994 M 853.374073,1199.877119 l 0.000000,11.518816 M 858.374073,1221.887970 l 0.000000,-13.364418 M 863.374073,1217.561539 l 0.000000,12.858175 M 863.374073,1255.341060 l 0.000000,-7.333201 M 868.374073,1226.623291 l 0.000000,12.051378 M 868.374073,1274.533907 l 0.000000,-14.829404 M 873.374073,1235.591404 l 0.000000,15.380674 M 873.374073,1276.983331 l 0.000000,-1.598128 M 878.374073,1244.580361 l 0.000000,16.036421 M 878.374073,1270.580611 l 0.000000,-1.348515 M 883.374073,1253.618586 l 0.000000,22.533064 M 888.374073,1280.196510 l 0.000000,-16.705124 M 893.374073,1271.028939 l 0.000000,6.505351"
       id="path8" />
  </g>
  <g
     inkscape:label="fill-505050"
     inkscape:groupmode="layer"
     id="fill-505050">
    <path
       style="stroke:#505050"
       d="M 148.526095,1201.233365 l 0.000000,19.917040 M 154.526095,1223.184773 l 0.000000,-33.393195 M 160.526095,1178.594610 l 0.000000,44.402074 M 166.526095,1219.271411 l 0.000000,-51.872050 M 172.526095,1156.204112 l 0.000000,52.801584 M 178.526095,1198.166019 l 0.000000,-53.157156 M 184.526095,1133.813615 l 0.000000,53.394634 M 190.526095,1176.200817 l 0.000000,-53.573690 M 196.526095,1111.502870 l 0.000000,53.547210 M 202.526095,1153.899344 l 0.000000,-53.520731 M 208.526095,1089.254355 l 0.000000,53.494252 M 214.526095,1131.597870 l 0.000000,-53.467773 M 220.526095,1067.005840 l 0.000000,53.441293 M 226.526095,1109.426526 l 0.000000,-53.544943 M 232.526095,1044.760461 l 0.000000,53.774479 M 238.526095,1087.529823 l 0.000000,-53.882863 M 244.526095,1022.533459 l 0.000000,53.903215 M 250.526095,1065.314562 l 0.000000,-53.894604 M 256.526095,1000.306458 l 0.000000,53.885992 M 262.526095,1043.169802 l 0.000000,-53.976845 M 268.526095,978.079457 l 0.000000,54.099466 M 274.526095,1021.188044 l 0.000000,-54.240075 M 280.526095,955.803873 l 0.000000,54.393291 M 280.526095,1415.515155 l 0.000000,-8.615152 M 286.526095,944.659778 l 0.000000,54.546507 M 286.526095,1416.270375 l 0.000000,-47.454276 M 292.526095,933.515683 l 0.000000,54.699724 M 292.526095,1417.124317 l 0.000000,-78.048207 M 298.526095,922.371587 l 0.000000,54.852940 M 298.526095,1418.569887 l 0.000000,-107.999812 M 304.526095,911.227492 l 0.000000,55.025044 M 304.526095,1421.094844 l 0.000000,-139.030805 M 310.526095,900.083397 l 0.000000,55.241817 M 310.526095,1422.079355 l 0.000000,-169.091539 M 316.526095,888.939302 l 0.000000,55.458589 M 316.526095,1394.355596 l 0.000000,-170.817627 M 322.526095,877.795206 l 0.000000,55.569486 M 322.526095,1281.097485 l 0.000000,-86.474773 M 322.526095,1294.492733 l 0.000000,69.700054 M 328.526095,922.327492 l 0.000000,-55.676381 M 328.526095,1166.933424 l 0.000000,70.942533 M 328.526095,1281.007225 l 0.000000,-20.578238 M 328.526095,1287.144436 l 0.000000,5.405236 M 328.526095,1334.061661 l 0.000000,-38.611333 M 334.526095,855.507016 l 0.000000,55.787793 M 334.526095,1208.250872 l 0.000000,-69.686752 M 334.526095,1250.027603 l 0.000000,53.765614 M 340.526095,900.269450 l 0.000000,-55.906530 M 340.526095,1110.099985 l 0.000000,58.689470 M 340.526095,1203.845323 l 0.000000,-2.745784 M 340.526095,1207.409985 l 0.000000,6.184395 M 340.526095,1221.486739 l 0.000000,-4.458852 M 340.526095,1227.381382 l 0.000000,46.029705 M 346.526095,889.244092 l 0.000000,-56.025267 M 346.526095,1081.153023 l 0.000000,50.088441 M 346.526095,1242.313393 l 0.000000,-38.071765 M 352.526095,822.074730 l 0.000000,56.144004 M 352.526095,1100.035641 l 0.000000,-47.878115 M 352.526095,1121.175478 l 0.000000,3.441942 M 352.526095,1153.634872 l 0.000000,-5.230186 M 352.526095,1161.008628 l 0.000000,47.109737 M 358.526095,867.276407 l 0.000000,-56.345772 M 358.526095,1023.162029 l 0.000000,44.848062 M 358.526095,1096.491939 l 0.000000,-5.146319 M 358.526095,1122.398724 l 0.000000,60.267768 M 364.526095,856.349415 l 0.000000,-56.604226 M 364.526095,994.195316 l 0.000000,40.306724 M 364.526095,1153.310050 l 0.000000,-58.765913 M 370.526095,788.503328 l 0.000000,56.919095 M 370.526095,1009.620308 l 0.000000,-44.383118 M 370.526095,1060.990008 l 0.000000,62.398884 M 376.526095,438.932780 l 0.000000,-5.943738 M 376.526095,777.261467 l 0.000000,57.233964 M 376.526095,977.697258 l 0.000000,-41.690655 M 376.526095,1038.760333 l 0.000000,54.633377 M 382.526095,448.999683 l 0.000000,-17.169658 M 382.526095,766.019606 l 0.000000,57.548833 M 382.526095,940.332839 l 0.000000,-33.647603 M 382.526095,942.655893 l 0.000000,5.603089 M 382.526095,1063.032410 l 0.000000,-56.998199 M 388.526095,435.511093 l 0.000000,23.693113 M 388.526095,812.641447 l 0.000000,-57.863702 M 388.526095,877.363868 l 0.000000,35.622331 M 388.526095,930.598509 l 0.000000,-0.410603 M 388.526095,973.543779 l 0.000000,59.127331 M 394.526095,469.519987 l 0.000000,-23.325840 M 394.526095,743.535884 l 0.000000,58.178571 M 394.526095,876.375592 l 0.000000,-28.458587 M 394.526095,931.118375 l 0.000000,71.086839 M 400.526095,479.835768 l 0.000000,-23.848275 M 400.526095,732.294023 l 0.000000,58.493440 M 400.526095,842.099668 l 0.000000,-24.479476 M 400.526095,859.187110 l 0.000000,3.332259 M 400.526095,905.744518 l 0.000000,-6.978870 M 400.526095,914.240756 l 0.000000,3.360325 M 400.526095,971.593664 l 0.000000,-45.023662 M 406.526095,464.669239 l 0.000000,1.234401 M 406.526095,490.140984 l 0.000000,-17.637153 M 406.526095,721.163626 l 0.000000,63.099706 M 406.526095,812.595909 l 0.000000,-25.272531 M 406.526095,877.175424 l 0.000000,2.608729 M 406.526095,940.982115 l 0.000000,-44.255382 M 412.526095,483.904530 l 0.000000,16.254211 M 412.526095,782.369942 l 0.000000,-72.315548 M 412.526095,881.435756 l 0.000000,28.934809 M 418.526095,510.176500 l 0.000000,-26.482895 M 418.526095,698.945162 l 0.000000,54.612431 M 418.526095,879.711636 l 0.000000,-36.331534 M 424.526095,494.266856 l 0.000000,25.927402 M 424.526095,721.615679 l 0.000000,-33.779748 M 424.526095,809.406407 l 0.000000,39.164544 M 430.526095,507.777239 l 0.000000,-4.442125 M 430.526095,513.227179 l 0.000000,16.984837 M 430.526095,693.356257 l 0.000000,-24.914983 M 430.526095,782.000728 l 0.000000,35.412591 M 436.526095,515.994114 l 0.000000,-0.804541 M 436.526095,521.612044 l 0.000000,18.535419 M 436.526095,660.395644 l 0.000000,-20.742297 M 436.526095,765.869675 l 0.000000,20.255130 M 442.526095,550.070951 l 0.000000,-18.865858 M 442.526095,609.173665 l 0.000000,22.981085 M 442.526095,714.535098 l 0.000000,-2.542138 M 442.526095,737.906841 l 0.000000,16.935245 M 448.526095,559.994440 l 0.000000,-19.900094 M 448.526095,578.411441 l 0.000000,27.383468 M 448.526095,723.826735 l 0.000000,-18.558937 M 454.526095,541.651969 l 0.000000,3.493264 M 454.526095,598.659966 l 0.000000,-47.355937 M 454.526095,678.671303 l 0.000000,15.610515 M 460.526095,523.223219 l 0.000000,-8.261104 M 460.526095,562.273592 l 0.000000,38.928485 M 460.526095,678.574849 l 0.000000,-36.351761 M 466.526095,487.771983 l 0.000000,44.575848 M 466.526095,610.147628 l 0.000000,-38.341678 M 466.526095,611.438470 l 0.000000,56.391084 M 472.526095,527.747774 l 0.000000,-67.403619 M 472.526095,531.273989 l 0.000000,3.284309 M 472.526095,657.084260 l 0.000000,-76.527541 M 478.526095,442.790032 l 0.000000,15.481323 M 478.526095,506.760677 l 0.000000,-24.363924 M 478.526095,516.427599 l 0.000000,20.121344 M 478.526095,646.430186 l 0.000000,-55.614317 M 484.526095,495.333990 l 0.000000,41.369761 M 484.526095,635.914002 l 0.000000,-41.028474 M 490.526095,475.240603 l 0.000000,1.675940 M 490.526095,502.421063 l 0.000000,-8.621018 M 490.526095,563.236851 l 0.000000,11.738947 M 490.526095,604.138762 l 0.000000,-6.183067 M 490.526095,609.060889 l 0.000000,23.021563 M 496.526095,451.557948 l 0.000000,-7.287171 M 496.526095,552.866587 l 0.000000,31.712868 M 496.526095,640.851003 l 0.000000,-23.840935 M 502.526095,541.867721 l 0.000000,51.756842 M 502.526095,650.474203 l 0.000000,-24.502919 M 508.526095,530.595125 l 0.000000,59.512717 M 508.526095,660.431624 l 0.000000,-25.435793 M 514.526095,519.246524 l 0.000000,60.333527 M 514.526095,670.574614 l 0.000000,-25.562877 M 520.526095,507.897924 l 0.000000,60.791170 M 520.526095,680.686068 l 0.000000,-25.539472 M 526.526095,496.549323 l 0.000000,25.575950 M 526.526095,557.582524 l 0.000000,-32.901174 M 526.526095,666.234885 l 0.000000,24.562637 M 532.526095,546.475955 l 0.000000,-61.245775 M 532.526095,677.590888 l 0.000000,23.318087 M 538.526095,535.369386 l 0.000000,-61.434735 M 538.526095,688.422438 l 0.000000,22.597991 M 544.526095,524.262816 l 0.000000,-61.623696 M 544.526095,699.140774 l 0.000000,21.991110 M 550.526095,513.156247 l 0.000000,-61.812657 M 550.526095,708.890701 l 0.000000,22.398789 M 556.526095,471.644000 l 0.000000,-31.303393 M 556.526095,474.377138 l 0.000000,27.627658 M 556.526095,741.470148 l 0.000000,-22.625281 M 562.526095,429.799378 l 0.000000,30.908189 M 562.526095,490.694792 l 0.000000,-27.485924 M 562.526095,729.436662 l 0.000000,22.214145 M 568.526095,479.384788 l 0.000000,-45.505743 M 568.526095,739.352457 l 0.000000,22.479008 M 574.526095,467.855561 l 0.000000,-28.729966 M 574.526095,750.619051 l 0.000000,21.393364 M 580.526095,456.211894 l 0.000000,-17.617502 M 580.526095,748.317051 l 0.000000,1.147511 M 580.526095,782.338199 l 0.000000,-19.174936 M 586.526095,439.809022 l 0.000000,3.680862 M 586.526095,762.847568 l 0.000000,-1.861139 M 586.526095,777.369218 l 0.000000,14.665719 M 592.526095,801.784412 l 0.000000,-30.986844 M 598.526095,782.966643 l 0.000000,29.464654 M 604.526095,823.174126 l 0.000000,-27.268066 M 610.526095,798.325793 l 0.000000,3.359583 M 610.526095,833.930833 l 0.000000,-23.757929 M 616.526095,810.614600 l 0.000000,5.896626 M 616.526095,844.687975 l 0.000000,-23.518901 M 622.526095,803.352509 l 0.000000,1.467793 M 622.526095,813.994283 l 0.000000,-3.893538 M 622.526095,824.030679 l 0.000000,3.782028 M 622.526095,854.842894 l 0.000000,-22.069775 M 628.526095,812.404433 l 0.000000,5.154503 M 628.526095,825.437984 l 0.000000,-3.433792 M 628.526095,833.246878 l 0.000000,31.690710 M 634.526095,829.838329 l 0.000000,-7.461738 M 634.526095,832.019512 l 0.000000,5.104450 M 634.526095,875.110866 l 0.000000,-29.946929 M 640.526095,832.526174 l 0.000000,15.643734 M 640.526095,860.481412 l 0.000000,-5.783605 M 640.526095,861.202125 l 0.000000,24.108752 M 646.526095,857.181218 l 0.000000,-14.470961 M 646.526095,863.282795 l 0.000000,4.132286 M 646.526095,895.510951 l 0.000000,-22.516612 M 652.526095,852.939827 l 0.000000,12.166215 M 652.526095,875.805969 l 0.000000,-3.180958 M 652.526095,884.538911 l 0.000000,21.230006 M 658.526095,868.821690 l 0.000000,-5.625334 M 658.526095,871.690899 l 0.000000,2.248396 M 658.526095,887.091303 l 0.000000,-2.892842 M 658.526095,896.267425 l 0.000000,19.644906 M 664.526095,878.809412 l 0.000000,-5.356527 M 664.526095,884.501054 l 0.000000,1.206198 M 664.526095,899.464655 l 0.000000,-6.832700 M 664.526095,900.702296 l 0.000000,24.545464 M 670.526095,896.679295 l 0.000000,-12.927571 M 670.526095,901.905888 l 0.000000,5.224262 M 670.526095,934.721953 l 0.000000,-25.015273 M 676.526095,894.064542 l 0.000000,11.449169 M 676.526095,915.896884 l 0.000000,-4.740204 M 676.526095,920.557495 l 0.000000,24.557986 M 682.526095,915.052946 l 0.000000,-10.675587 M 682.526095,920.640775 l 0.000000,5.065283 M 682.526095,956.212030 l 0.000000,-23.962013 M 688.526095,914.707502 l 0.000000,4.360018 M 688.526095,922.702087 l 0.000000,-1.350735 M 688.526095,931.638664 l 0.000000,4.794343 M 688.526095,966.600048 l 0.000000,-23.696231 M 694.526095,925.126034 l 0.000000,10.839690 M 694.526095,945.799875 l 0.000000,-4.465226 M 694.526095,951.283466 l 0.000000,10.176975 M 694.526095,977.037897 l 0.000000,-13.975597 M 700.526095,935.544566 l 0.000000,10.643488 M 700.526095,954.129759 l 0.000000,-4.228219 M 700.526095,959.373463 l 0.000000,12.832632 M 700.526095,987.475745 l 0.000000,-12.760778 M 706.526095,945.963098 l 0.000000,9.124212 M 706.526095,963.762976 l 0.000000,-4.999817 M 706.526095,969.541005 l 0.000000,28.372588 M 712.526095,965.504557 l 0.000000,-9.122928 M 712.526095,967.908073 l 0.000000,6.063616 M 712.526095,1008.387976 l 0.000000,-27.356446 M 718.526095,966.628794 l 0.000000,10.734894 M 718.526095,986.837005 l 0.000000,-9.086054 M 718.526095,991.309168 l 0.000000,27.587915 M 724.526095,1029.406191 l 0.000000,-52.683502 M 730.526095,986.894161 l 0.000000,53.021137 M 736.526095,1050.424405 l 0.000000,-53.321475 M 742.526095,1007.311699 l 0.000000,52.823257 M 748.526095,1068.622727 l 0.000000,-51.102258 M 754.526095,1027.776433 l 0.000000,51.064281 M 760.526095,1089.550549 l 0.000000,-51.302879 M 766.526095,1048.718906 l 0.000000,35.527148 M 766.526095,1099.764242 l 0.000000,-10.075493 M 772.526095,1059.190142 l 0.000000,18.784809 M 772.526095,1094.174563 l 0.000000,-10.630021 M 772.526095,1100.398224 l 0.000000,9.268979 M 778.526095,1080.826931 l 0.000000,-11.174431 M 778.526095,1083.098743 l 0.000000,4.756497 M 778.526095,1103.135489 l 0.000000,-8.899176 M 778.526095,1110.763698 l 0.000000,8.379410 M 784.526095,1090.165353 l 0.000000,-10.076550 M 784.526095,1104.773540 l 0.000000,8.667124 M 784.526095,1128.946123 l 0.000000,-5.684026 M 790.526095,1090.525106 l 0.000000,9.347761 M 790.526095,1108.137296 l 0.000000,-4.320450 M 790.526095,1115.280239 l 0.000000,9.399703 M 796.526095,1119.048621 l 0.000000,-18.087212 M 796.526095,1125.840411 l 0.000000,12.256074 M 796.526095,1143.039587 l 0.000000,-4.096722 M 802.526095,1111.213655 l 0.000000,9.902247 M 802.526095,1130.474926 l 0.000000,-5.413477 M 802.526095,1137.094667 l 0.000000,14.888230 M 802.526095,1162.722081 l 0.000000,-4.040047 M 808.526095,1121.455885 l 0.000000,11.078232 M 808.526095,1141.864252 l 0.000000,-1.780673 M 808.526095,1149.446359 l 0.000000,24.120764 M 814.526095,1144.041531 l 0.000000,-12.343416 M 814.526095,1151.140458 l 0.000000,2.808750 M 814.526095,1183.556120 l 0.000000,-22.185238 M 820.526095,1141.940346 l 0.000000,12.879071 M 820.526095,1169.285020 l 0.000000,-7.397812 M 820.526095,1177.523427 l 0.000000,15.432830 M 826.526095,1161.516940 l 0.000000,-9.334364 M 826.526095,1164.027795 l 0.000000,3.511099 M 826.526095,1185.511854 l 0.000000,-10.527967 M 826.526095,1188.157301 l 0.000000,14.064921 M 832.526095,1181.171154 l 0.000000,-18.602150 M 832.526095,1187.619854 l 0.000000,24.784626 M 838.526095,1195.964251 l 0.000000,-22.996313 M 838.526095,1200.239980 l 0.000000,24.967995 M 844.526095,1197.475608 l 0.000000,-14.108736 M 844.526095,1199.886708 l 0.000000,11.483538 M 844.526095,1236.112610 l 0.000000,-18.656017 M 850.526095,1193.765807 l 0.000000,32.351980 M 850.526095,1244.926772 l 0.000000,-17.975878 M 856.526095,1204.164741 l 0.000000,19.817946 M 856.526095,1253.529775 l 0.000000,-26.049307 M 862.526095,1214.563675 l 0.000000,51.212553 M 868.526095,1276.428935 l 0.000000,-51.466326 M 874.526095,1235.361543 l 0.000000,44.822652 M 880.526095,1280.846396 l 0.000000,-34.876984 M 886.526095,1256.651626 l 0.000000,27.619532 M 892.526095,1281.289085 l 0.000000,-13.719974"
       id="path11" />
  </g>
  <g
     inkscape:label="fill-6c6c6c"
     inkscape:groupmode="layer"
     id="fill-6c6c6c">
    <path
       style="stroke:#6c6c6c"
       d="M 147.540621,1202.217848 l 0.000000,20.961808 M 154.540621,1224.605025 l 0.000000,-35.867441 M 161.540621,1175.582383 l 0.000000,49.106777 M 168.540621,1217.306314 l 0.000000,-54.731071 M 175.540621,1149.568104 l 0.000000,55.321582 M 182.540621,1192.058854 l 0.000000,-55.497890 M 189.540621,1123.553824 l 0.000000,55.577976 M 196.540621,1166.229589 l 0.000000,-55.682905 M 203.540621,1097.539544 l 0.000000,55.797541 M 210.540621,1140.444582 l 0.000000,-55.912178 M 217.540621,1071.525265 l 0.000000,56.026814 M 224.540621,1114.659575 l 0.000000,-56.127306 M 231.540621,1045.549718 l 0.000000,56.217354 M 238.540621,1088.874568 l 0.000000,-56.307401 M 245.540621,1019.584616 l 0.000000,56.397449 M 252.540621,1063.089561 l 0.000000,-56.487496 M 259.540621,993.619515 l 0.000000,56.577543 M 266.540621,1037.304555 l 0.000000,-56.667591 M 273.540621,967.654413 l 0.000000,56.799097 M 280.540621,1011.607134 l 0.000000,-56.935271 M 280.540621,1394.941326 l 0.000000,22.449730 M 287.540621,998.760757 l 0.000000,-57.071445 M 287.540621,1360.268108 l 0.000000,57.458555 M 287.540621,1439.851333 l 0.000000,-1.345441 M 294.540621,928.706761 l 0.000000,57.207619 M 294.540621,1418.660389 l 0.000000,-92.438766 M 294.540621,1433.274393 l 0.000000,2.461100 M 294.540621,1440.868127 l 0.000000,-2.722662 M 301.540621,915.724210 l 0.000000,57.343793 M 301.540621,1421.326323 l 0.000000,-128.524711 M 301.540621,1429.318698 l 0.000000,6.135964 M 301.540621,1438.579814 l 0.000000,-1.134971 M 308.540621,902.741659 l 0.000000,57.479967 M 308.540621,1428.292512 l 0.000000,-169.069281 M 315.540621,889.730217 l 0.000000,57.653827 M 315.540621,1402.315140 l 0.000000,-177.568640 M 322.540621,876.712744 l 0.000000,57.845007 M 322.540621,1367.600819 l 0.000000,-176.682804 M 329.540621,863.695272 l 0.000000,58.036187 M 329.540621,1332.621107 l 0.000000,-174.332068 M 336.540621,850.677800 l 0.000000,58.227367 M 336.540621,1297.222185 l 0.000000,-172.126688 M 343.540621,837.641703 l 0.000000,58.437172 M 343.540621,1261.823264 l 0.000000,-170.327706 M 350.540621,824.561088 l 0.000000,58.719538 M 350.540621,1226.424342 l 0.000000,-168.562385 M 357.540621,811.480472 l 0.000000,59.017473 M 357.540621,1191.568139 l 0.000000,-167.740401 M 364.540621,798.399857 l 0.000000,59.315408 M 364.540621,1156.682322 l 0.000000,-166.920388 M 371.540621,785.319241 l 0.000000,59.613343 M 371.540621,1121.531635 l 0.000000,-165.877018 M 378.540621,430.809082 l 0.000000,12.872960 M 378.540621,832.149904 l 0.000000,-59.911278 M 378.540621,921.522610 l 0.000000,164.858339 M 385.540621,455.640990 l 0.000000,-25.511997 M 385.540621,759.158010 l 0.000000,60.292769 M 385.540621,1051.230262 l 0.000000,-163.904058 M 392.540621,429.981932 l 0.000000,3.776944 M 392.540621,467.468545 l 0.000000,-30.309060 M 392.540621,746.077394 l 0.000000,60.730635 M 392.540621,1015.995216 l 0.000000,-162.865418 M 399.540621,442.166302 l 0.000000,2.936683 M 399.540621,479.296099 l 0.000000,-30.200644 M 399.540621,732.996779 l 0.000000,61.168502 M 399.540621,980.342557 l 0.000000,-161.914600 M 406.540621,436.084975 l 0.000000,2.611715 M 406.540621,446.306863 l 0.000000,-2.450857 M 406.540621,453.045271 l 0.000000,3.044696 M 406.540621,491.123653 l 0.000000,-31.506333 M 406.540621,719.916163 l 0.000000,224.773735 M 413.540621,449.628037 l 0.000000,-1.581805 M 413.540621,462.591090 l 0.000000,40.360116 M 413.540621,909.037239 l 0.000000,-202.195326 M 420.540621,459.570566 l 0.000000,3.509105 M 420.540621,514.778761 l 0.000000,-39.165228 M 420.540621,693.777417 l 0.000000,179.607162 M 427.540621,474.868106 l 0.000000,-4.060905 M 427.540621,479.571239 l 0.000000,2.268909 M 427.540621,526.606315 l 0.000000,-40.810228 M 427.540621,680.876695 l 0.000000,156.579318 M 434.540621,493.656484 l 0.000000,-10.970592 M 434.540621,496.561326 l 0.000000,5.135125 M 434.540621,538.481973 l 0.000000,-32.452782 M 434.540621,646.152651 l 0.000000,87.101112 M 434.540621,801.396146 l 0.000000,-61.931692 M 441.540621,517.124971 l 0.000000,33.272724 M 441.540621,765.232058 l 0.000000,-154.311953 M 448.540621,527.824725 l 0.000000,35.094844 M 448.540621,657.107640 l 0.000000,-81.893952 M 448.540621,668.161378 l 0.000000,60.908119 M 455.540621,525.702119 l 0.000000,-2.188152 M 455.540621,530.383938 l 0.000000,4.020422 M 455.540621,693.180486 l 0.000000,-155.232860 M 462.540621,503.932149 l 0.000000,27.536839 M 462.540621,537.680857 l 0.000000,-4.953804 M 462.540621,541.877147 l 0.000000,4.139642 M 462.540621,676.308266 l 0.000000,-127.136231 M 469.540621,470.316970 l 0.000000,78.877729 M 469.540621,663.612410 l 0.000000,-102.926844 M 476.540621,444.344059 l 0.000000,116.429326 M 476.540621,568.155836 l 0.000000,-4.178588 M 476.540621,571.305086 l 0.000000,79.537624 M 483.540621,546.184561 l 0.000000,-104.939091 M 483.540621,565.400502 l 0.000000,13.417243 M 483.540621,638.366157 l 0.000000,-56.463022 M 490.540621,442.195151 l 0.000000,67.117847 M 490.540621,588.076977 l 0.000000,-26.054719 M 490.540621,593.436634 l 0.000000,39.843770 M 497.540621,471.773213 l 0.000000,-27.647885 M 497.540621,549.546640 l 0.000000,51.064964 M 497.540621,643.914583 l 0.000000,-41.108695 M 504.540621,536.537709 l 0.000000,62.147401 M 504.540621,612.317914 l 0.000000,-11.992818 M 504.540621,613.669939 l 0.000000,41.867808 M 511.540621,585.950002 l 0.000000,-62.421224 M 511.540621,612.690449 l 0.000000,54.470463 M 518.540621,573.394299 l 0.000000,-63.076294 M 518.540621,624.447800 l 0.000000,54.397962 M 525.540621,560.633889 l 0.000000,-63.529231 M 525.540621,636.205150 l 0.000000,54.482098 M 532.540621,547.713073 l 0.000000,-63.821761 M 532.540621,647.962500 l 0.000000,54.566233 M 539.540621,534.792256 l 0.000000,-64.114291 M 539.540621,659.719850 l 0.000000,54.650369 M 546.540621,521.871439 l 0.000000,-64.260613 M 546.540621,671.615217 l 0.000000,54.600626 M 553.540621,508.762515 l 0.000000,-64.151221 M 553.540621,683.520536 l 0.000000,54.565420 M 560.540621,495.496916 l 0.000000,-63.217734 M 560.540621,695.509484 l 0.000000,54.446586 M 567.540621,482.231317 l 0.000000,-50.355269 M 567.540621,707.488150 l 0.000000,54.338033 M 574.540621,468.965718 l 0.000000,-32.956315 M 574.540621,719.456549 l 0.000000,54.239747 M 581.540621,455.471975 l 0.000000,-17.794383 M 581.540621,731.320287 l 0.000000,54.246123 M 588.540621,440.253415 l 0.000000,-0.756631 M 588.540621,743.044463 l 0.000000,54.582645 M 595.540621,809.695746 l 0.000000,-54.927108 M 602.540621,766.492814 l 0.000000,55.271571 M 609.540621,833.833024 l 0.000000,-55.604446 M 616.540621,790.031881 l 0.000000,55.840530 M 623.540621,857.893354 l 0.000000,-56.058169 M 630.540621,813.638488 l 0.000000,56.270011 M 637.540621,881.853217 l 0.000000,-56.411426 M 644.540621,837.343277 l 0.000000,56.454657 M 651.540621,905.699815 l 0.000000,-56.321135 M 658.540621,861.414082 l 0.000000,56.164365 M 665.540621,929.461084 l 0.000000,-56.011599 M 672.540621,885.484887 l 0.000000,55.904530 M 679.540621,953.317750 l 0.000000,-55.797460 M 686.540621,909.555692 l 0.000000,55.690391 M 693.540621,977.337475 l 0.000000,-55.746381 M 700.540621,933.626497 l 0.000000,55.825655 M 707.540621,1001.566829 l 0.000000,-55.904930 M 714.540621,957.697302 l 0.000000,55.984205 M 721.540621,1025.797513 l 0.000000,-56.064808 M 728.540621,981.777701 l 0.000000,56.136429 M 735.540621,1050.030748 l 0.000000,-56.166733 M 742.540621,1005.950329 l 0.000000,55.767000 M 749.540621,1073.377601 l 0.000000,-55.340959 M 756.540621,1030.122957 l 0.000000,55.086548 M 763.540621,1097.041407 l 0.000000,-54.832137 M 770.540621,1054.295584 l 0.000000,54.655886 M 777.540621,1121.131813 l 0.000000,-54.753267 M 784.540621,1078.435548 l 0.000000,54.876608 M 791.540621,1145.492499 l 0.000000,-54.999949 M 798.540621,1102.549550 l 0.000000,55.109591 M 805.540621,1169.786893 l 0.000000,-55.180341 M 812.540621,1126.663553 l 0.000000,55.251091 M 819.540621,1193.827638 l 0.000000,-55.107084 M 826.540621,1150.767138 l 0.000000,55.129184 M 833.540621,1218.255753 l 0.000000,-55.442278 M 840.540621,1174.859812 l 0.000000,55.571436 M 847.540621,1242.471171 l 0.000000,-55.565022 M 854.540621,1198.952486 l 0.000000,55.621620 M 861.540621,1266.696331 l 0.000000,-55.594882 M 868.540621,1223.342515 l 0.000000,54.730627 M 875.540621,1283.272478 l 0.000000,-47.688897 M 882.540621,1247.883017 l 0.000000,37.771647 M 889.540621,1284.428152 l 0.000000,-23.662522 M 896.540621,1274.310254 l 0.000000,5.037002"
       id="path14" />
  </g>
  <g
     inkscape:label="fill-9a9a9a"
     inkscape:groupmode="layer"
     id="fill-9a9a9a">
    <path
       style="stroke:#9a9a9a"
       d="M 149.152529,1196.646914 l 0.000000,30.680729 M 157.152529,1227.435089 l 0.000000,-45.648701 M 165.152529,1166.963510 l 0.000000,58.265110 M 173.152529,1210.749413 l 0.000000,-58.598091 M 181.152529,1137.339134 l 0.000000,58.644138 M 189.152529,1181.244641 l 0.000000,-58.717696 M 197.152529,1107.714757 l 0.000000,58.791253 M 205.152529,1151.758518 l 0.000000,-58.855950 M 213.152529,1078.090380 l 0.000000,58.912619 M 221.152529,1122.247480 l 0.000000,-58.969288 M 229.152529,1048.466003 l 0.000000,59.025957 M 237.152529,1092.766381 l 0.000000,-59.112566 M 245.152529,1018.841627 l 0.000000,59.234553 M 253.152529,1063.409636 l 0.000000,-59.380198 M 261.152529,989.152226 l 0.000000,59.612853 M 269.152529,1034.120521 l 0.000000,-59.855831 M 277.152529,959.377154 l 0.000000,60.098810 M 277.152529,1431.010015 l 0.000000,-28.441851 M 285.152529,944.489617 l 0.000000,60.341789 M 285.152529,1440.577852 l 0.000000,-74.274094 M 293.152529,929.602081 l 0.000000,60.564793 M 293.152529,1441.843045 l 0.000000,-113.240204 M 301.152529,914.714545 l 0.000000,60.777963 M 301.152529,1441.144888 l 0.000000,-150.914924 M 309.152529,899.827009 l 0.000000,60.991134 M 309.152529,1430.846668 l 0.000000,-179.119364 M 317.152529,884.939473 l 0.000000,61.204304 M 317.152529,1397.909350 l 0.000000,-186.336403 M 325.152529,870.051937 l 0.000000,61.417474 M 325.152529,1358.549375 l 0.000000,-183.365352 M 333.152529,855.164401 l 0.000000,61.652739 M 333.152529,1319.034998 l 0.000000,-182.266135 M 341.152529,840.276865 l 0.000000,61.914264 M 341.152529,1279.347863 l 0.000000,-180.994161 M 349.152529,825.389329 l 0.000000,62.175790 M 349.152529,1239.651309 l 0.000000,-179.782710 M 357.152529,810.501793 l 0.000000,62.437316 M 357.152529,1202.592857 l 0.000000,-181.628445 M 365.152529,795.614257 l 0.000000,62.698841 M 365.152529,1159.200382 l 0.000000,-177.140157 M 373.152529,422.948998 l 0.000000,11.865318 M 373.152529,843.687088 l 0.000000,-62.960367 M 373.152529,943.156036 l 0.000000,175.170727 M 381.152529,449.542987 l 0.000000,-20.652667 M 381.152529,765.839185 l 0.000000,63.221892 M 381.152529,1077.999881 l 0.000000,-173.850821 M 389.152529,426.432018 l 0.000000,36.980083 M 389.152529,814.435067 l 0.000000,-63.483418 M 389.152529,864.982618 l 0.000000,172.690381 M 397.152529,476.927315 l 0.000000,-55.198361 M 397.152529,736.064113 l 0.000000,63.744944 M 397.152529,997.346116 l 0.000000,-171.770287 M 405.152529,430.693641 l 0.000000,59.748887 M 405.152529,956.897233 l 0.000000,-235.821622 M 413.152529,443.723619 l 0.000000,60.234123 M 413.152529,915.903475 l 0.000000,-209.832988 M 421.152529,457.072054 l 0.000000,60.400902 M 421.152529,874.909717 l 0.000000,-183.844354 M 429.152529,470.460586 l 0.000000,60.527583 M 429.152529,833.878858 l 0.000000,-165.103908 M 437.152529,483.849118 l 0.000000,60.542657 M 437.152529,792.747884 l 0.000000,-164.056842 M 445.152529,497.237650 l 0.000000,60.543675 M 445.152529,751.616911 l 0.000000,-163.009752 M 453.152529,510.626182 l 0.000000,199.914619 M 461.152529,680.470448 l 0.000000,-172.884718 M 469.152529,469.817307 l 0.000000,195.951395 M 477.152529,651.289134 l 0.000000,-209.773848 M 485.152529,439.706635 l 0.000000,104.283262 M 485.152529,637.182933 l 0.000000,-73.083153 M 493.152529,441.123224 l 0.000000,59.609630 M 493.152529,638.109368 l 0.000000,-82.192398 M 501.152529,446.083224 l 0.000000,9.301772 M 501.152529,651.458465 l 0.000000,-110.378254 M 509.152529,526.103833 l 0.000000,66.828243 M 509.152529,664.947328 l 0.000000,-59.767797 M 517.152529,511.127454 l 0.000000,66.733912 M 517.152529,678.436191 l 0.000000,-59.558315 M 525.152529,496.151075 l 0.000000,66.882578 M 525.152529,691.925054 l 0.000000,-59.443855 M 533.152529,481.176378 l 0.000000,67.090402 M 533.152529,705.413918 l 0.000000,-59.329394 M 541.152529,466.277419 l 0.000000,67.222487 M 541.152529,718.902781 l 0.000000,-59.214934 M 549.152529,451.378460 l 0.000000,67.354572 M 549.152529,732.462625 l 0.000000,-59.171455 M 557.152529,436.762616 l 0.000000,66.946794 M 557.152529,746.090918 l 0.000000,-59.196425 M 565.152529,427.135101 l 0.000000,61.512671 M 565.152529,759.719212 l 0.000000,-59.221394 M 573.152529,433.853679 l 0.000000,39.641873 M 573.152529,773.347505 l 0.000000,-59.282073 M 581.152529,436.611851 l 0.000000,21.278216 M 581.152529,786.975799 l 0.000000,-59.347184 M 589.152529,436.900646 l 0.000000,4.879866 M 589.152529,800.604092 l 0.000000,-59.412295 M 597.152529,754.754979 l 0.000000,59.477406 M 605.152529,827.919286 l 0.000000,-59.601124 M 613.152529,781.930977 l 0.000000,59.718211 M 621.152529,855.379090 l 0.000000,-59.759836 M 629.152529,809.307532 l 0.000000,59.801460 M 637.152529,882.838894 l 0.000000,-59.843085 M 645.152529,836.684087 l 0.000000,59.886143 M 653.152529,910.301997 l 0.000000,-59.929631 M 661.152529,864.060643 l 0.000000,59.973119 M 669.152529,937.765528 l 0.000000,-60.016607 M 677.152529,891.502221 l 0.000000,59.995072 M 685.152529,965.229059 l 0.000000,-59.945716 M 693.152529,919.064465 l 0.000000,59.896360 M 701.152529,992.692591 l 0.000000,-59.847004 M 709.152529,946.626708 l 0.000000,59.797648 M 717.152529,1020.156122 l 0.000000,-59.748292 M 725.152529,974.188951 l 0.000000,59.698936 M 733.152529,1047.505828 l 0.000000,-59.535755 M 741.152529,1001.751195 l 0.000000,59.367263 M 749.152529,1074.794953 l 0.000000,-59.250814 M 757.152529,1029.361212 l 0.000000,59.145944 M 765.152529,1102.219358 l 0.000000,-59.041074 M 773.152529,1056.995356 l 0.000000,58.936204 M 781.152529,1129.655181 l 0.000000,-58.842752 M 789.152529,1084.629501 l 0.000000,58.867098 M 797.152529,1157.338017 l 0.000000,-58.891444 M 805.152529,1112.262408 l 0.000000,58.917028 M 813.152529,1185.020854 l 0.000000,-59.006244 M 813.152529,1279.065309 l 0.000000,0.150199 M 821.152529,1198.862272 l 0.000000,-59.095461 M 821.152529,1279.849003 l 0.000000,1.557438 M 829.152529,1212.703690 l 0.000000,-59.184678 M 829.152529,1280.876270 l 0.000000,2.361637 M 837.152529,1226.545109 l 0.000000,-59.273894 M 837.152529,1281.903537 l 0.000000,2.989100 M 845.152529,1240.386527 l 0.000000,-59.363111 M 845.152529,1282.930804 l 0.000000,3.616563 M 853.152529,1254.073627 l 0.000000,-59.190115 M 853.152529,1283.968258 l 0.000000,4.232938 M 861.152529,1267.715940 l 0.000000,-58.922498 M 861.152529,1285.007286 l 0.000000,4.847470 M 869.152529,1281.305036 l 0.000000,-58.601662 M 869.152529,1285.773672 l 0.000000,5.804684 M 877.152529,1293.439355 l 0.000000,-56.826050 M 885.152529,1250.644549 l 0.000000,38.471367 M 885.152529,1294.920024 l 0.000000,-3.009145 M 893.152529,1264.978246 l 0.000000,21.619367"
       id="path17" />
  </g>
  <g
     inkscape:label="fill-d3d3d3"
     inkscape:groupmode="layer"
     id="fill-d3d3d3">
    <path
       style="stroke:#d3d3d3"
       d="M 140.745752,1222.087624 l 0.000000,5.369676 M 149.745752,1229.194850 l 0.000000,-35.003860 M 158.745752,1177.492158 l 0.000000,51.458618 M 167.745752,1227.681446 l 0.000000,-66.888121 M 176.745752,1144.094494 l 0.000000,61.539494 M 176.745752,1226.412117 l 0.000000,-7.901702 M 185.745752,1127.401684 l 0.000000,61.665844 M 185.745752,1225.230377 l 0.000000,-7.884956 M 194.745752,1110.708909 l 0.000000,61.792160 M 194.745752,1224.070077 l 0.000000,-7.942583 M 203.745752,1094.016133 l 0.000000,61.918476 M 203.745752,1222.909777 l 0.000000,-8.023551 M 212.745752,1077.323358 l 0.000000,62.018156 M 212.745752,1221.749477 l 0.000000,-8.104519 M 221.745752,1060.630582 l 0.000000,62.117120 M 221.745752,1220.616072 l 0.000000,-8.212382 M 230.745752,1043.937807 l 0.000000,62.216083 M 230.745752,1219.523417 l 0.000000,-8.293113 M 239.745752,1027.245031 l 0.000000,62.355098 M 239.745752,1218.430762 l 0.000000,-8.333705 M 248.745752,1010.552256 l 0.000000,62.549830 M 248.745752,1217.338107 l 0.000000,-8.374296 M 248.745752,1384.120238 l 0.000000,11.572936 M 257.745752,1056.604041 l 0.000000,-62.744561 M 257.745752,1207.830565 l 0.000000,8.414887 M 257.745752,1419.286233 l 0.000000,-36.999150 M 266.745752,977.150691 l 0.000000,62.955307 M 266.745752,1215.152797 l 0.000000,-8.455478 M 266.745752,1387.096458 l 0.000000,47.236146 M 275.745752,1023.607953 l 0.000000,-63.175908 M 275.745752,1205.564072 l 0.000000,8.496070 M 275.745752,1439.943475 l 0.000000,-45.877524 M 284.745752,943.713399 l 0.000000,63.396510 M 284.745752,1212.967487 l 0.000000,-8.512920 M 284.745752,1363.726042 l 0.000000,78.450021 M 293.745752,990.611865 l 0.000000,-63.617111 M 293.745752,1203.347234 l 0.000000,8.527742 M 293.745752,1442.852733 l 0.000000,-121.225054 M 302.745752,910.276107 l 0.000000,63.837713 M 302.745752,1211.059564 l 0.000000,-8.864770 M 302.745752,1278.558690 l 0.000000,163.206358 M 311.745752,957.615776 l 0.000000,-64.058315 M 311.745752,1200.917987 l 0.000000,9.445172 M 311.745752,1433.591869 l 0.000000,-198.116858 M 320.745752,876.838816 l 0.000000,64.278916 M 320.745752,1386.555589 l 0.000000,-195.172043 M 320.745752,1423.467675 l 0.000000,10.625434 M 329.745752,924.641348 l 0.000000,-64.521178 M 329.745752,1149.309631 l 0.000000,192.014094 M 329.745752,1433.408946 l 0.000000,-13.948819 M 338.745752,843.401524 l 0.000000,64.787126 M 338.745752,1296.091860 l 0.000000,-190.074668 M 338.745752,1415.443961 l 0.000000,14.417706 M 347.745752,891.735953 l 0.000000,-65.053075 M 347.745752,1062.724753 l 0.000000,188.135242 M 347.745752,1425.924715 l 0.000000,-14.487115 M 356.745752,809.964232 l 0.000000,65.319023 M 356.745752,1209.324051 l 0.000000,-190.190884 M 356.745752,1407.492273 l 0.000000,14.494514 M 365.745752,858.830558 l 0.000000,-65.689107 M 365.745752,975.314334 l 0.000000,185.799702 M 365.745752,1207.676249 l 0.000000,-12.137354 M 365.745752,1403.546946 l 0.000000,14.348421 M 374.745752,439.834835 l 0.000000,-21.658484 M 374.745752,776.317888 l 0.000000,66.059973 M 374.745752,1115.124069 l 0.000000,-183.743049 M 374.745752,1194.700787 l 0.000000,12.314539 M 374.745752,1413.803946 l 0.000000,-14.336497 M 383.745752,426.902047 l 0.000000,28.952237 M 383.745752,826.035149 l 0.000000,-66.540824 M 383.745752,887.383319 l 0.000000,181.847046 M 383.745752,1206.262725 l 0.000000,-12.484544 M 383.745752,1395.305535 l 0.000000,14.356917 M 392.745752,471.200721 l 0.000000,-48.368658 M 392.745752,742.670761 l 0.000000,67.104434 M 392.745752,1023.666312 l 0.000000,-180.570692 M 392.745752,1192.844788 l 0.000000,12.418793 M 392.745752,1405.447673 l 0.000000,-14.147479 M 401.745752,423.131949 l 0.000000,63.242440 M 401.745752,793.879940 l 0.000000,-68.032743 M 401.745752,797.987157 l 0.000000,180.118296 M 401.745752,1203.875700 l 0.000000,-11.833735 M 401.745752,1387.553081 l 0.000000,13.679812 M 410.745752,501.548056 l 0.000000,-64.059466 M 410.745752,709.023634 l 0.000000,223.520960 M 410.745752,1202.044425 l 0.000000,-10.766802 M 410.745752,1384.027867 l 0.000000,13.026471 M 419.745752,516.720476 l 0.000000,-64.197344 M 419.745752,692.123496 l 0.000000,194.818404 M 419.745752,1199.831013 l 0.000000,-9.073483 M 419.745752,1380.791960 l 0.000000,12.104338 M 428.745752,531.875675 l 0.000000,-64.266611 M 428.745752,666.596539 l 0.000000,173.908890 M 428.745752,1197.542850 l 0.000000,-6.883147 M 428.745752,1377.508880 l 0.000000,11.272740 M 437.745752,547.030874 l 0.000000,-64.335877 M 437.745752,621.731571 l 0.000000,172.337386 M 437.745752,1384.971786 l 0.000000,-9.809061 M 446.745752,497.780929 l 0.000000,64.405143 M 446.745752,747.632486 l 0.000000,-170.765891 M 446.745752,1372.191954 l 0.000000,9.283467 M 455.745752,701.028889 l 0.000000,-188.537702 M 455.745752,1369.571804 l 0.000000,8.688254 M 464.745752,675.709203 l 0.000000,-189.254537 M 464.745752,1367.041212 l 0.000000,8.003484 M 473.745752,659.178460 l 0.000000,-213.266363 M 473.745752,1365.057771 l 0.000000,6.559719 M 482.745752,642.712950 l 0.000000,-204.580262 M 482.745752,1363.360911 l 0.000000,4.218140 M 491.745752,513.717710 l 0.000000,-74.510367 M 491.745752,556.997824 l 0.000000,80.914037 M 500.745752,464.748718 l 0.000000,-21.112984 M 500.745752,540.158388 l 0.000000,112.265560 M 509.745752,593.872856 l 0.000000,-70.553903 M 509.745752,603.706999 l 0.000000,63.877109 M 518.745752,576.543882 l 0.000000,-70.064366 M 518.745752,619.422003 l 0.000000,63.322265 M 527.745752,559.773578 l 0.000000,-70.120087 M 527.745752,634.768297 l 0.000000,63.136130 M 536.745752,543.134098 l 0.000000,-70.224349 M 536.745752,650.094477 l 0.000000,62.970109 M 545.745752,526.494617 l 0.000000,-70.328612 M 545.745752,665.420658 l 0.000000,62.988781 M 554.745752,509.832540 l 0.000000,-70.109058 M 554.745752,680.747431 l 0.000000,63.012322 M 563.745752,492.865414 l 0.000000,-67.882934 M 563.745752,696.080897 l 0.000000,63.029171 M 572.745752,475.898288 l 0.000000,-43.838135 M 572.745752,711.414363 l 0.000000,63.046020 M 581.745752,458.931161 l 0.000000,-23.457815 M 581.745752,726.747829 l 0.000000,63.062868 M 590.745752,440.115188 l 0.000000,-7.192509 M 590.745752,742.081294 l 0.000000,63.079717 M 599.745752,820.511326 l 0.000000,-63.096566 M 608.745752,772.748226 l 0.000000,63.113414 M 617.745752,851.211954 l 0.000000,-63.130263 M 626.745752,803.415157 l 0.000000,63.147112 M 635.745752,881.975842 l 0.000000,-63.227219 M 644.745752,834.114782 l 0.000000,63.320327 M 653.745752,912.894375 l 0.000000,-63.283141 M 662.745752,865.107686 l 0.000000,63.245956 M 671.745752,943.812908 l 0.000000,-63.208770 M 680.745752,896.100590 l 0.000000,63.171585 M 680.745752,1257.247383 l 0.000000,-2.954824 M 689.745752,911.597042 l 0.000000,63.134399 M 689.745752,1261.373664 l 0.000000,-8.052916 M 698.745752,927.093494 l 0.000000,63.097214 M 698.745752,1264.388439 l 0.000000,-10.939836 M 707.745752,942.589946 l 0.000000,63.060028 M 707.745752,1266.679889 l 0.000000,-12.659184 M 716.745752,958.086398 l 0.000000,63.022843 M 716.745752,1268.300218 l 0.000000,-13.424664 M 725.745752,973.582850 l 0.000000,62.938661 M 725.745752,1269.859403 l 0.000000,-13.813757 M 734.745752,989.079302 l 0.000000,62.816685 M 734.745752,1271.378409 l 0.000000,-13.894866 M 743.745752,1004.578466 l 0.000000,62.691997 M 743.745752,1272.868659 l 0.000000,-13.674870 M 752.745752,1020.091232 l 0.000000,62.582701 M 752.745752,1274.380303 l 0.000000,-13.200335 M 761.745752,1035.603999 l 0.000000,62.499142 M 761.745752,1275.907258 l 0.000000,-12.739470 M 770.745752,1051.116765 l 0.000000,62.415582 M 770.745752,1277.434213 l 0.000000,-12.278606 M 779.745752,1066.629531 l 0.000000,62.355492 M 779.745752,1278.878339 l 0.000000,-11.748468 M 788.745752,1082.142297 l 0.000000,62.394203 M 788.745752,1280.258617 l 0.000000,-11.323967 M 797.745752,1097.655064 l 0.000000,62.432914 M 797.745752,1281.638895 l 0.000000,-10.899465 M 806.745752,1113.167830 l 0.000000,62.471626 M 806.745752,1283.019173 l 0.000000,-10.474963 M 815.745752,1128.680596 l 0.000000,62.545139 M 815.745752,1284.399451 l 0.000000,-10.050462 M 824.745752,1144.193363 l 0.000000,62.621990 M 824.745752,1285.809013 l 0.000000,-9.744059 M 833.745752,1159.767418 l 0.000000,62.637551 M 833.745752,1287.244826 l 0.000000,-9.494409 M 842.745752,1175.347110 l 0.000000,62.599257 M 842.745752,1288.680640 l 0.000000,-9.244760 M 851.745752,1190.926803 l 0.000000,62.493439 M 851.745752,1290.272912 l 0.000000,-9.151568 M 860.745752,1206.506495 l 0.000000,62.387620 M 860.745752,1291.900334 l 0.000000,-9.250006 M 869.745752,1222.086188 l 0.000000,71.455876 M 878.745752,1295.130880 l 0.000000,-57.364653 M 887.745752,1253.540906 l 0.000000,42.307287 M 896.745752,1289.460028 l 0.000000,-19.317306"
       id="path20" />
  </g>
  <g
     inkscape:label="fill-e9e9e9"
     inkscape:groupmode="layer"
     id="fill-e9e9e9">
    <path
       style="stroke:#e9e9e9"
       d="M 143.780044,1204.913960 l 0.000000,25.249990 M 152.780044,1230.368903 l 0.000000,-43.010306 M 161.780044,1170.448468 l 0.000000,59.334592 M 170.780044,1228.886192 l 0.000000,-75.167387 M 179.780044,1137.000110 l 0.000000,64.777676 M 179.780044,1227.866055 l 0.000000,-11.493034 M 188.780044,1120.293352 l 0.000000,64.605911 M 188.780044,1226.817081 l 0.000000,-11.757230 M 188.780044,1314.505945 l 0.000000,25.794606 M 197.780044,1168.330919 l 0.000000,-64.744324 M 197.780044,1213.679080 l 0.000000,12.082213 M 197.780044,1356.362421 l 0.000000,-48.062351 M 206.780044,1086.879838 l 0.000000,64.882738 M 206.780044,1224.705507 l 0.000000,-12.448408 M 206.780044,1307.054696 l 0.000000,62.945404 M 215.780044,1135.194232 l 0.000000,-65.021152 M 215.780044,1210.877113 l 0.000000,12.772607 M 215.780044,1382.568589 l 0.000000,-72.992631 M 224.780044,1053.466323 l 0.000000,65.204443 M 224.780044,1222.593933 l 0.000000,-12.934302 M 224.780044,1314.163492 l 0.000000,79.465637 M 233.780044,1102.162512 l 0.000000,-65.402946 M 233.780044,1208.442149 l 0.000000,13.095997 M 233.780044,1404.816150 l 0.000000,-85.372518 M 242.780044,1020.052808 l 0.000000,65.601450 M 242.780044,1220.482359 l 0.000000,-13.257693 M 242.780044,1325.867971 l 0.000000,89.269989 M 251.780044,1069.146003 l 0.000000,-65.799953 M 251.780044,1206.007184 l 0.000000,13.419388 M 251.780044,1424.831612 l 0.000000,-89.637978 M 260.780044,986.639293 l 0.000000,65.998456 M 260.780044,1218.376588 l 0.000000,-13.586885 M 260.780044,1346.261730 l 0.000000,87.201223 M 269.780044,1036.129494 l 0.000000,-66.196959 M 269.780044,1203.572220 l 0.000000,13.812648 M 269.780044,1440.207994 l 0.000000,-81.108564 M 278.780044,953.225778 l 0.000000,66.395462 M 278.780044,1216.393150 l 0.000000,-14.060127 M 278.780044,1372.499903 l 0.000000,70.132983 M 287.780044,1003.112986 l 0.000000,-66.593965 M 287.780044,1201.092275 l 0.000000,14.309156 M 287.780044,1443.632060 l 0.000000,-97.667723 M 296.780044,919.812263 l 0.000000,66.793340 M 296.780044,1214.409712 l 0.000000,-14.558185 M 296.780044,1303.244653 l 0.000000,140.325921 M 305.780044,970.113426 l 0.000000,-67.007921 M 305.780044,1198.585148 l 0.000000,14.937377 M 305.780044,1441.907011 l 0.000000,-181.382042 M 314.780044,886.398748 l 0.000000,67.222501 M 314.780044,1212.658468 l 0.000000,-15.474837 M 314.780044,1217.805286 l 0.000000,203.004876 M 314.780044,1440.747671 l 0.000000,-18.155331 M 323.780044,869.691991 l 0.000000,67.437082 M 323.780044,1373.977678 l 0.000000,-200.401333 M 323.780044,1418.569049 l 0.000000,20.464530 M 332.780044,920.636896 l 0.000000,-67.651663 M 332.780044,1131.168635 l 0.000000,197.614175 M 332.780044,1436.056378 l 0.000000,-21.836356 M 341.780044,836.278476 l 0.000000,67.866243 M 341.780044,1284.347062 l 0.000000,-196.287124 M 341.780044,1409.763848 l 0.000000,22.788321 M 350.780044,887.652542 l 0.000000,-68.132043 M 350.780044,1044.532472 l 0.000000,196.169485 M 350.780044,1428.924591 l 0.000000,-23.697576 M 359.780044,802.728706 l 0.000000,68.431659 M 359.780044,1219.055777 l 0.000000,-218.352700 M 359.780044,1400.690182 l 0.000000,24.557527 M 368.780044,854.668188 l 0.000000,-68.731275 M 368.780044,956.873683 l 0.000000,191.481769 M 368.780044,1219.745110 l 0.000000,-27.835041 M 368.780044,1396.153350 l 0.000000,25.417477 M 377.780044,447.136341 l 0.000000,-32.780076 M 377.780044,769.145120 l 0.000000,69.030891 M 377.780044,1103.024904 l 0.000000,-189.980616 M 377.780044,1190.807813 l 0.000000,30.269556 M 377.780044,1417.893944 l 0.000000,-26.277427 M 386.780044,412.126382 l 0.000000,3.128539 M 386.780044,462.533399 l 0.000000,-38.284872 M 386.780044,752.353326 l 0.000000,69.538382 M 386.780044,1057.694357 l 0.000000,-188.641087 M 386.780044,1189.664964 l 0.000000,32.788991 M 386.780044,1414.217062 l 0.000000,-27.175758 M 395.780044,415.298973 l 0.000000,62.534001 M 395.780044,805.802905 l 0.000000,-70.241372 M 395.780044,824.810335 l 0.000000,187.404459 M 395.780044,1223.651255 l 0.000000,-35.143364 M 395.780044,1382.457022 l 0.000000,28.083157 M 404.780044,492.967961 l 0.000000,-66.991553 M 404.780044,718.607772 l 0.000000,247.964267 M 404.780044,1224.848555 l 0.000000,-37.497736 M 404.780044,1378.093050 l 0.000000,28.775975 M 413.780044,508.102947 l 0.000000,-67.438550 M 413.780044,701.602213 l 0.000000,219.327071 M 413.780044,1226.045511 l 0.000000,-39.851765 M 413.780044,1373.875379 l 0.000000,29.482123 M 422.780044,523.237933 l 0.000000,-67.563972 M 422.780044,684.194418 l 0.000000,190.771216 M 422.780044,1227.231760 l 0.000000,-42.195087 M 422.780044,1370.284274 l 0.000000,29.561706 M 431.780044,538.368963 l 0.000000,-67.556524 M 431.780044,648.353883 l 0.000000,180.211993 M 431.780044,1228.418009 l 0.000000,-44.538408 M 431.780044,1366.941193 l 0.000000,29.393264 M 440.780044,553.496076 l 0.000000,-67.652813 M 440.780044,603.440607 l 0.000000,178.725513 M 440.780044,1230.063314 l 0.000000,-47.340785 M 440.780044,1363.817987 l 0.000000,29.000887 M 449.780044,735.688165 l 0.000000,-235.019680 M 449.780044,1181.709831 l 0.000000,50.173016 M 449.780044,1389.176834 l 0.000000,-28.532551 M 458.780044,510.315505 l 0.000000,178.592452 M 458.780044,1233.691835 l 0.000000,-52.994532 M 458.780044,1357.448709 l 0.000000,28.615353 M 467.780044,671.702004 l 0.000000,-202.830514 M 467.780044,1179.684776 l 0.000000,55.478560 M 467.780044,1383.507275 l 0.000000,-29.263074 M 476.780044,439.927349 l 0.000000,215.209509 M 476.780044,1236.598869 l 0.000000,-57.926620 M 476.780044,1350.945551 l 0.000000,30.053309 M 485.780044,550.537052 l 0.000000,-115.161061 M 485.780044,561.708346 l 0.000000,77.046251 M 485.780044,1237.984730 l 0.000000,-60.324882 M 485.780044,1346.231012 l 0.000000,32.279103 M 494.780044,500.936613 l 0.000000,-63.847370 M 494.780044,550.083725 l 0.000000,93.849702 M 494.780044,1239.370592 l 0.000000,-62.723125 M 494.780044,1342.301076 l 0.000000,33.656827 M 503.780044,450.365524 l 0.000000,-2.551450 M 503.780044,533.195074 l 0.000000,125.689200 M 503.780044,1240.706575 l 0.000000,-65.071490 M 503.780044,1337.974166 l 0.000000,35.043909 M 512.780044,589.525807 l 0.000000,-73.219384 M 512.780044,607.145269 l 0.000000,66.915912 M 512.780044,1196.454672 l 0.000000,-21.858106 M 512.780044,1203.882777 l 0.000000,38.115748 M 512.780044,1369.711216 l 0.000000,-36.121146 M 521.780044,499.417773 l 0.000000,73.035116 M 521.780044,689.238088 l 0.000000,-66.604047 M 521.780044,1173.555772 l 0.000000,21.662470 M 521.780044,1243.290475 l 0.000000,-38.187154 M 521.780044,1329.205974 l 0.000000,37.054388 M 530.780044,555.661024 l 0.000000,-73.119148 M 530.780044,638.122814 l 0.000000,66.332231 M 530.780044,1193.165288 l 0.000000,-20.650309 M 530.780044,1210.764804 l 0.000000,33.675885 M 530.780044,1362.411081 l 0.000000,-37.355889 M 539.780044,465.799663 l 0.000000,73.210409 M 539.780044,719.782243 l 0.000000,-66.238366 M 539.780044,1171.474186 l 0.000000,19.485282 M 539.780044,1245.395175 l 0.000000,-33.244510 M 539.780044,1321.123676 l 0.000000,37.122494 M 548.780044,522.359120 l 0.000000,-73.301671 M 548.780044,668.864633 l 0.000000,66.244809 M 548.780044,1189.787262 l 0.000000,-19.330359 M 548.780044,1213.737248 l 0.000000,32.612414 M 548.780044,1353.656062 l 0.000000,-35.728424 M 557.780044,432.686958 l 0.000000,72.958212 M 557.780044,750.436641 l 0.000000,-66.251252 M 557.780044,1169.687370 l 0.000000,19.833617 M 557.780044,1247.304148 l 0.000000,-31.638343 M 557.780044,1315.507016 l 0.000000,32.839126 M 566.780044,488.740700 l 0.000000,-67.975742 M 566.780044,699.506145 l 0.000000,66.257694 M 566.780044,1185.864113 l 0.000000,-16.778164 M 566.780044,1217.569818 l 0.000000,30.713410 M 566.780044,1343.088144 l 0.000000,-30.276995 M 575.780044,418.005274 l 0.000000,1.051165 M 575.780044,471.836230 l 0.000000,-39.889820 M 575.780044,714.826901 l 0.000000,66.264137 M 575.780044,1185.400372 l 0.000000,-16.368986 M 575.780044,1218.208170 l 0.000000,31.243853 M 575.780044,1338.854648 l 0.000000,-28.936206 M 584.780044,420.869395 l 0.000000,1.619489 M 584.780044,454.774637 l 0.000000,-24.250508 M 584.780044,730.149893 l 0.000000,66.268343 M 584.780044,1182.334403 l 0.000000,-13.379562 M 584.780044,1220.571332 l 0.000000,30.391189 M 584.780044,1335.523237 l 0.000000,-28.180563 M 593.780044,745.475131 l 0.000000,66.348926 M 593.780044,1176.770839 l 0.000000,-8.501466 M 593.780044,1222.115379 l 0.000000,30.277043 M 593.780044,1332.735661 l 0.000000,-27.368228 M 602.780044,760.800368 l 0.000000,66.450561 M 602.780044,1174.610368 l 0.000000,-7.024164 M 602.780044,1223.836425 l 0.000000,29.830310 M 602.780044,1330.046621 l 0.000000,-26.107813 M 611.780044,776.163531 l 0.000000,66.514272 M 611.780044,1171.368973 l 0.000000,-4.839521 M 611.780044,1225.618333 l 0.000000,29.331644 M 611.780044,1327.684703 l 0.000000,-24.954748 M 620.780044,791.560299 l 0.000000,66.544376 M 620.780044,1171.336521 l 0.000000,-3.954133 M 620.780044,1227.399003 l 0.000000,28.969333 M 620.780044,1325.356940 l 0.000000,-23.871539 M 629.780044,806.957067 l 0.000000,66.574481 M 629.780044,1257.786694 l 0.000000,-28.616039 M 629.780044,1300.644786 l 0.000000,21.826398 M 638.780044,888.958420 l 0.000000,-66.604586 M 638.780044,1231.304751 l 0.000000,27.950283 M 638.780044,1318.145945 l 0.000000,-23.558053 M 647.780044,837.750602 l 0.000000,66.634690 M 647.780044,1260.796396 l 0.000000,-27.162687 M 647.780044,1293.013875 l 0.000000,7.387382 M 647.780044,1316.327528 l 0.000000,-9.323464 M 656.780044,853.154595 l 0.000000,66.657570 M 656.780044,1262.337759 l 0.000000,-26.682734 M 656.780044,1309.458319 l 0.000000,2.162754 M 665.780044,935.239038 l 0.000000,-66.573321 M 665.780044,1238.262457 l 0.000000,25.847196 M 674.780044,950.665910 l 0.000000,-66.489072 M 674.780044,1239.970652 l 0.000000,26.193610 M 683.780044,966.092783 l 0.000000,-66.404824 M 683.780044,1241.756556 l 0.000000,27.512707 M 692.780044,981.519656 l 0.000000,-66.320575 M 692.780044,1243.372126 l 0.000000,28.241209 M 701.780044,996.946528 l 0.000000,-66.236326 M 701.780044,1244.960682 l 0.000000,28.075879 M 710.780044,1012.374518 l 0.000000,-66.153195 M 710.780044,1246.384021 l 0.000000,27.406622 M 719.780044,1027.803729 l 0.000000,-66.071284 M 719.780044,1247.687524 l 0.000000,26.587209 M 728.780044,1043.227065 l 0.000000,-65.975161 M 728.780044,1248.991026 l 0.000000,26.143270 M 737.780044,1058.615680 l 0.000000,-65.836967 M 737.780044,1250.311373 l 0.000000,26.023151 M 746.780044,1074.004296 l 0.000000,-65.698774 M 746.780044,1251.863089 l 0.000000,25.749992 M 755.780044,1089.392912 l 0.000000,-65.560580 M 755.780044,1253.218334 l 0.000000,25.671365 M 764.780044,1104.825635 l 0.000000,-65.466495 M 764.780044,1256.688203 l 0.000000,23.473774 M 773.780044,1120.388672 l 0.000000,-65.502722 M 773.780044,1259.765944 l 0.000000,21.465395 M 782.780044,1135.951709 l 0.000000,-65.538950 M 782.780044,1262.340457 l 0.000000,19.894661 M 791.780044,1151.514745 l 0.000000,-65.575177 M 791.780044,1264.765818 l 0.000000,18.476559 M 800.780044,1167.077782 l 0.000000,-65.611405 M 800.780044,1267.153537 l 0.000000,17.096099 M 809.780044,1182.640447 l 0.000000,-65.667048 M 809.780044,1269.457037 l 0.000000,15.947143 M 818.780044,1198.199961 l 0.000000,-65.804710 M 818.780044,1271.743664 l 0.000000,14.877943 M 827.780044,1213.759475 l 0.000000,-65.942371 M 827.780044,1273.992540 l 0.000000,13.846494 M 836.780044,1229.318989 l 0.000000,-66.080032 M 836.780044,1276.145861 l 0.000000,13.073350 M 845.780044,1244.878503 l 0.000000,-66.217693 M 845.780044,1278.145433 l 0.000000,12.478367 M 845.780044,1302.239950 l 0.000000,-3.112218 M 854.780044,1194.112751 l 0.000000,66.325266 M 854.780044,1292.121755 l 0.000000,-12.149856 M 854.780044,1297.328386 l 0.000000,8.323221 M 863.780044,1276.035731 l 0.000000,-66.413816 M 863.780044,1281.549262 l 0.000000,12.427431 M 863.780044,1306.847646 l 0.000000,-11.012721 M 872.780044,1225.191281 l 0.000000,81.549502 M 881.780044,1306.428157 l 0.000000,-65.332898 M 890.780044,1256.999236 l 0.000000,39.306996 M 899.780044,1291.804159 l 0.000000,-19.702062 M 908.780044,1267.354097 l 0.000000,24.875837 M 917.780044,1289.237682 l 0.000000,-30.013776 M 926.780044,1251.599644 l 0.000000,33.210618 M 935.780044,1280.131684 l 0.000000,-36.286368 M 944.780044,1234.218602 l 0.000000,41.234504 M 953.780044,1270.647525 l 0.000000,-43.637646 M 962.780044,1217.077500 l 0.000000,48.196529 M 971.780044,1261.451480 l 0.000000,-50.656574 M 980.780044,1255.206569 l 0.000000,0.091364"
       id="path23" />
  </g>
</svg>
