<?xml version="1.0" encoding="UTF-8" standalone="no"?>
<!-- Created with Inkscape (http://www.inkscape.org/) -->

<svg
   xmlns:dc="http://purl.org/dc/elements/1.1/"
   xmlns:cc="http://creativecommons.org/ns#"
   xmlns:rdf="http://www.w3.org/1999/02/22-rdf-syntax-ns#"
   xmlns:svg="http://www.w3.org/2000/svg"
   xmlns="http://www.w3.org/2000/svg"
   xmlns:sodipodi="http://sodipodi.sourceforge.net/DTD/sodipodi-0.dtd"
   xmlns:inkscape="http://www.inkscape.org/namespaces/inkscape"
   id="svg2"
   version="1.1"
   inkscape:version="0.48.3.1 r9886"
   width="1500"
   height="1911"
   sodipodi:docname="hantologie-_0000_arbre-01_hatched_1398270060.svg">
  <defs
     id="defs27" />
  <sodipodi:namedview
     pagecolor="#ffffff"
     bordercolor="#666666"
     borderopacity="1"
     objecttolerance="10"
     gridtolerance="10"
     guidetolerance="10"
     inkscape:pageopacity="0"
     inkscape:pageshadow="2"
     inkscape:window-width="640"
     inkscape:window-height="480"
     id="namedview25" />
  <metadata
     id="metadata8">
    <rdf:RDF>
      <cc:Work
         rdf:about="">
        <dc:format>image/svg+xml </dc:format>
        <dc:type
           rdf:resource="http://purl.org/dc/dcmitype/StillImage" />
        <dc:title />
      </cc:Work>
    </rdf:RDF>
  </metadata>
  <g
     inkscape:label="fill-040404"
     inkscape:groupmode="layer"
     id="fill-040404">
    <path
       style="stroke:#040404"
       d="M 827.471888,1254.351889 l 3.062793,-5.304913 M 821.338870,1244.974588 l -9.600022,16.627725 M 822.584839,1242.816506 l 9.744723,-16.878356 M 826.303724,1216.375209 l -30.277147,52.441558 M 781.567464,1273.860684 l 38.143786,-66.066975 M 812.241451,1200.731780 l -42.888594,74.285224 M 757.566315,1275.431893 l 27.736830,-48.041599 M 805.406978,1192.569435 l -14.137901,24.487562 M 747.132091,1273.504500 l 25.262674,-43.756235 M 777.776704,1220.426473 l -4.450831,7.709066 M 779.265556,1217.847705 l 3.573145,-6.188869 M 796.820448,1187.441741 l -11.462347,19.853367 M 737.248889,1270.622708 l 34.270335,-59.357962 M 788.736038,1181.444349 l -12.226683,21.177237 M 727.959347,1266.712666 l 32.392600,-56.105629 M 764.282739,1203.798705 l -1.297810,2.247873 M 767.019828,1199.057929 l 13.314449,-23.061302 M 771.692616,1170.964422 l -52.600510,91.106757 M 708.864408,1259.786071 l 33.990087,-58.872557 M 763.230632,1165.621008 l -8.920855,15.451374 M 698.452620,1257.819816 l 31.842114,-55.152160 M 754.400189,1160.915785 l -8.607165,14.908047 M 688.065545,1255.810758 l 30.464936,-52.766817 M 745.619998,1156.123521 l -8.794010,15.231672 M 677.240418,1254.560427 l 30.735381,-53.235242 M 738.531613,1148.400965 l -9.796051,16.967259 M 666.580787,1253.023451 l 33.603954,-58.203756 M 711.961014,1174.422592 l -4.678852,8.104009 M 720.119179,1160.292236 l 12.937546,-22.408487 M 706.150993,1164.485844 l -48.582048,84.146576 M 710.207976,1157.458943 l 15.661300,-27.126167 M 662.107848,1220.770808 l -17.214776,29.816867 M 688.278746,1175.441483 l 22.819074,-39.523796 M 716.653744,1126.294545 l -4.113951,7.125572 M 634.072110,1249.330131 l 3.081285,-5.336942 M 643.283707,1233.375177 l -3.777681,6.543135 M 687.377691,1157.002156 l 13.859704,-24.005711 M 715.001737,1109.155905 l -13.308027,23.050179 M 623.852519,1247.030981 l 1.534856,-2.658448 M 709.932020,1097.936912 l -25.041057,43.372383 M 648.474409,1184.384617 l 4.243688,-7.350284 M 664.046943,1157.412198 l -0.823255,1.425919 M 682.767566,1124.987128 l 19.634586,-34.008101 M 653.149478,1156.287160 l -16.198426,28.056498 M 654.648374,1153.690995 l 7.765914,-13.450957 M 694.568624,1084.547095 l -18.681283,32.356932 M 615.865476,1200.864946 l 1.281018,-2.218788 M 657.801332,1128.229913 l -36.521993,63.257947 M 662.798660,1119.574287 l 17.203475,-29.797294 M 687.236755,1077.246264 l -5.759746,9.976173 M 615.314764,1181.818807 l 46.352111,-80.284212 M 679.352209,1070.902699 l -4.643329,8.042482 M 608.747955,1173.192854 l 49.172568,-85.169386 M 663.520212,1078.324523 l -0.874094,1.513976 M 667.769908,1070.963832 l 4.091769,-7.087152 M 652.403657,1077.578960 l -51.542923,89.274961 M 661.761683,1061.370383 l 2.659805,-4.606917 M 646.241599,1068.251958 l -51.757750,89.647053 M 588.985326,1147.422731 l 50.571871,-87.593051 M 646.876811,1047.151738 l -0.610519,1.057451 M 584.106180,1135.873661 l 19.065844,-33.023010 M 632.523405,1052.012567 l -26.877121,46.552539 M 639.696178,1039.588959 l 0.590555,-1.022871 M 570.399466,1139.614385 l -2.733250,4.734128 M 578.962114,1124.783443 l 46.462424,-80.475280 M 632.530429,1032.000401 l -5.270185,9.128229 M 561.402433,1135.197703 l 3.328480,-5.765096 M 618.183559,1036.849908 l -44.184394,76.529615 M 620.428156,1032.962153 l 3.383818,-5.860944 M 544.230523,1144.940323 l -0.374514,0.648678 M 558.173506,1120.790369 l 1.931057,-3.344688 M 610.834707,1029.578493 l -40.225075,69.671874 M 555.043946,1106.210925 l 1.358303,-2.352650 M 602.972797,1023.195721 l -40.363318,69.911318 M 604.979357,1019.720257 l 2.346864,-4.064888 M 586.550376,1031.640189 l -34.679993,60.067510 M 588.201541,1028.780286 l 12.357662,-21.404098 M 559.129358,1059.134784 l -11.539768,19.987465 M 560.407957,1056.920186 l 2.129665,-3.688687 M 573.394998,1034.425971 l -5.579971,9.664794 M 583.920060,1016.196029 l 0.376649,-0.652375 M 594.091887,998.577908 l -6.716899,11.634011 M 542.328287,1068.235094 l 9.140303,-15.831469 M 566.321418,1026.677772 l -4.931918,8.542332 M 582.575016,998.525714 l 3.571067,-6.185269 M 551.306055,1032.685143 l -14.420549,24.977124 M 553.353338,1029.139145 l 6.348230,-10.995458 M 577.941369,986.551426 l -1.702295,2.948462 M 531.402153,1047.159713 l 22.297621,-38.620612 M 447.003836,1173.341886 l -2.179947,3.775778 M 450.847013,1166.685308 l 1.687935,-2.923590 M 547.799306,998.759010 l -22.691786,39.303326 M 438.553089,1167.979009 l 4.763597,-8.250793 M 450.864415,1146.655166 l -5.174816,8.963044 M 475.106896,1104.665958 l 0.956968,-1.657518 M 523.875330,1020.196552 l -3.521958,6.100209 M 524.791515,1018.609673 l 4.201618,-7.277415 M 542.179323,988.493106 l -12.447088,21.558989 M 556.509032,963.673322 l 0.561157,-0.971953 M 422.215537,1176.276479 l -3.555837,6.158891 M 434.436388,1155.109344 l 4.867816,-8.431304 M 443.408887,1139.568521 l -1.970174,3.412442 M 512.232902,1020.361829 l 0.581170,-1.006616 M 517.967655,1010.428946 l -2.634529,4.563139 M 519.446729,1007.867114 l 3.000782,-5.197507 M 536.525021,978.286646 l -11.527786,19.966710 M 430.863750,1141.297334 l 4.307987,-7.461652 M 508.267954,1007.229321 l -2.904348,5.030478 M 510.580082,1003.224598 l 2.157365,-3.736665 M 517.025182,992.061358 l -3.013488,5.219515 M 519.786732,987.278213 l 10.678487,-18.495682 M 429.125656,1124.307802 l -1.427184,2.471956 M 498.561525,1004.041350 l 4.633788,-8.025955 M 507.643959,988.310112 l -1.672285,2.896483 M 508.856729,986.209532 l 2.754955,-4.771722 M 524.301574,959.458277 l -9.556001,16.551480 M 427.198248,1107.646171 l 2.041124,-3.535330 M 498.100383,984.840071 l -3.749348,6.494061 M 501.058572,979.716337 l 1.408780,-2.440078 M 507.033417,969.367602 l -2.640284,4.573106 M 510.426815,963.490064 l 7.608911,-13.179021 M 492.943748,973.771625 l -6.054710,10.487066 M 494.515315,971.049590 l 2.661771,-4.610323 M 502.027378,958.038316 l -2.387496,4.135265 M 507.566072,948.445016 l 3.922127,-6.793323 M 492.067198,955.289854 l -1.230470,2.131237 M 494.725112,950.686211 l 1.765989,-3.058783 M 504.761703,933.302326 l -2.009114,3.479887 M 485.638089,946.425397 l 1.513398,-2.621282 M 490.580086,937.865607 l -0.850021,1.472280 M 479.576221,936.924861 l 2.537749,-4.395510 M 467.411854,937.994162 l -1.281216,2.219132 M 472.394758,929.363519 l 0.642261,-1.112429 M 467.893853,897.159316 l -1.372826,2.377805 M 460.115990,890.630969 l 1.658290,-2.872242 M 455.514116,878.601649 l -2.095529,3.629562 M 447.016295,873.320306 l 2.237657,-3.875736 M 442.942634,860.376095 l -2.262492,3.918752 M 434.245951,855.439191 l 2.262307,-3.918430 M 430.073882,842.665426 l -2.512266,4.351372 M 420.798802,838.730336 l 2.786634,-4.826592 M 410.885554,835.900586 l -0.853691,1.478636 M 416.023022,827.002229 l 0.798557,-1.383141 M 403.446042,828.786198 l -0.507471,0.878966"
       id="path5" />
  </g>
  <g
     inkscape:label="fill-2f2f2f"
     inkscape:groupmode="layer"
     id="fill-2f2f2f">
    <path
       style="stroke:#2f2f2f"
       d="M 831.729685,1255.227872 l 2.224997,-6.113130 M 837.873611,1238.347572 l -1.470891,4.041239 M 818.165967,1260.332033 l 13.722334,-37.701804 M 823.822835,1212.628066 l -19.662228,54.021528 M 790.241219,1272.730949 l 25.866804,-71.068461 M 807.499728,1193.151737 l -30.080488,82.645462 M 765.465871,1276.476962 l 32.947570,-90.522704 M 778.584178,1208.272861 l -24.771261,68.058479 M 779.843501,1204.812900 l 8.944110,-24.573741 M 779.244067,1174.297982 l -36.053580,99.056397 M 732.607569,1270.268860 l 37.100054,-101.931560 M 747.521372,1197.131673 l -24.697622,67.856159 M 753.321738,1181.195298 l 6.737903,-18.512238 M 734.232046,1201.481949 l -21.953207,60.315942 M 743.623705,1175.678579 l 6.589455,-18.104379 M 722.128325,1202.574799 l -20.816165,57.191942 M 733.922637,1170.170194 l 7.482238,-20.557280 M 710.746647,1201.683855 l -20.485094,56.282333 M 724.536163,1163.797471 l 9.703973,-26.661446 M 701.329441,1195.395568 l -22.339895,61.378357 M 705.446928,1184.082866 l 4.663115,-12.811804 M 726.033935,1127.520529 l -11.386120,31.283108 M 667.929865,1254.998299 l 49.917854,-137.148177 M 674.336579,1205.234150 l -17.409924,47.833373 M 676.397420,1199.572035 l 0.658684,-1.809719 M 712.806531,1099.538825 l -25.441325,69.899465 M 645.776497,1251.540481 l 10.708196,-29.420525 M 704.316045,1090.704397 l -20.449598,56.184810 M 634.598341,1250.090364 l 6.461649,-17.753235 M 695.742912,1082.097037 l -15.257092,41.918516 M 623.781795,1247.646733 l 1.769163,-4.860735 M 642.245205,1196.918931 l -0.218681,0.600821 M 645.506985,1187.957263 l 17.642214,-48.471586 M 686.973990,1074.027603 l -18.662980,51.276117 M 629.555683,1199.621256 l 1.425409,-3.916278 M 657.345329,1123.269831 l -22.687834,62.334310 M 658.670192,1119.629801 l 6.843194,-18.801521 M 670.328181,1087.599739 l -0.543422,1.493039 M 673.404385,1079.147939 l 4.663677,-12.813348 M 618.175088,1198.727335 l -1.467098,4.030817 M 620.644556,1191.942530 l 38.426973,-105.577240 M 662.633802,1076.578022 l -1.182260,3.248232 M 665.055902,1069.923357 l 4.235068,-11.635754 M 609.581952,1190.174935 l -0.742448,2.039859 M 613.054285,1180.634779 l 38.993277,-107.133149 M 660.099641,1051.378724 l -1.856911,5.101822 M 591.805336,1206.853937 l 2.827746,-7.769169 M 644.302256,1062.619836 l -39.552740,108.670259 M 647.619138,1053.506778 l 1.061938,-2.917651 M 650.773836,1044.839316 l -0.810558,2.226989 M 584.335583,1195.215068 l 2.247587,-6.175193 M 636.440086,1052.059122 l -40.125837,110.244830 M 637.109424,1050.220130 l 0.998644,-2.743753 M 641.573079,1037.956339 l -1.658656,4.557119 M 576.706060,1184.015160 l 1.843508,-5.064997 M 586.396979,1157.389579 l -0.845820,2.323870 M 589.136429,1149.863001 l 43.288269,-118.933540 M 571.743511,1165.487802 l -2.815965,7.736800 M 577.912557,1148.538490 l 0.248447,-0.682602 M 623.004604,1024.649107 l -40.232649,110.538293 M 562.719682,1158.118722 l 1.820244,-5.001080 M 571.275970,1134.610513 l -5.626351,15.458273 M 576.137386,1121.253882 l 36.609588,-100.584017 M 564.978854,1119.749849 l -5.710756,15.690173 M 570.700223,1104.030516 l 34.241039,-94.076482 M 544.604077,1143.567240 l -1.311936,3.604516 M 553.440167,1119.290282 l 5.155059,-14.163410 M 586.357193,1028.851496 l -24.036271,66.039112 M 586.777604,1027.696428 l 10.221793,-28.084145 M 573.339068,1032.456654 l -23.829470,65.470931 M 577.519246,1020.971707 l 0.440928,-1.211439 M 581.226113,1010.787176 l -1.048219,2.879959 M 584.292554,1002.362198 l 4.699897,-12.912860 M 553.788949,1054.008314 l -8.482083,23.304330 M 556.070767,1047.739071 l 0.398761,-1.095586 M 565.219302,1022.603677 l -4.956542,13.617988 M 576.562508,991.438475 l 3.454620,-9.491491 M 511.131070,1139.048026 l -0.315951,0.868068 M 538.192810,1064.696506 l 19.261989,-52.921881 M 566.038431,988.191293 l -0.810743,2.227499 M 569.553140,978.534708 l 0.103256,-0.283695 M 474.917694,1206.381610 l -1.171552,3.218812 M 488.624274,1168.723090 l 0.329070,-0.904111 M 513.667822,1099.916509 l -1.368620,3.760254 M 519.243902,1084.596356 l 0.632737,-1.738431 M 550.214644,999.504939 l -19.172312,52.675495 M 557.685956,978.977680 l 0.418912,-1.150952 M 466.876600,1196.312486 l -1.917372,5.267936 M 479.464513,1161.727480 l 2.107377,-5.789970 M 543.062242,986.994156 l -19.615671,53.893612 M 552.673327,960.587915 l 1.311020,-3.601998 M 455.149010,1196.371926 l -0.690353,1.896731 M 472.706155,1148.134066 l 1.237029,-3.398708 M 485.465085,1113.079195 l -1.339822,3.681130 M 516.074155,1028.981465 l 8.624085,-23.694478 M 535.905493,974.495314 l -9.951311,27.341003 M 541.519428,959.071154 l 0.696785,-1.914400 M 449.887138,1178.666954 l -2.778156,7.632921 M 453.681911,1168.240898 l 2.971861,-8.165121 M 477.886855,1101.738363 l -2.534377,6.963144 M 507.861256,1019.384373 l 10.089574,-27.720877 M 528.190170,963.531139 l -8.975846,24.660934 M 533.346995,949.362879 l 0.859562,-2.361628 M 450.699023,1144.274468 l -11.760027,32.310409 M 468.066661,1096.557276 l 0.932412,-2.561780 M 511.436494,977.399637 l -13.007608,35.738109 M 511.513590,977.187818 l 9.228561,-25.355263 M 525.802304,937.929899 l -0.647811,1.779846 M 423.253713,1187.517990 l 3.029991,-8.324832 M 442.057770,1135.854269 l -8.010850,22.009631 M 492.695223,996.729009 l 5.318744,-14.613128 M 505.556318,961.393440 l -6.286280,17.271413 M 506.821547,957.917253 l 6.007824,-16.506360 M 416.958880,1172.651053 l -2.889437,7.938662 M 429.336290,1138.644399 l 5.959931,-16.374777 M 494.922923,958.446606 l -10.492833,28.828822 M 495.670015,956.393988 l 2.952045,-8.110678 M 500.605147,942.834823 l -1.008605,2.771120 M 501.326245,940.853622 l 3.404679,-9.354278 M 402.119240,1181.260780 l -1.571458,4.317546 M 424.750810,1119.081053 l 7.097679,-19.500713 M 475.272088,980.274981 l -1.307930,3.593508 M 482.687318,959.901806 l 0.220131,-0.604806 M 488.746596,943.254075 l -2.779532,7.636701 M 489.108230,942.260494 l 3.448452,-9.474543 M 496.550845,921.812076 l -0.993011,2.728275 M 498.710148,915.879442 l 0.632230,-1.737037 M 389.672692,1183.295541 l -1.988955,5.464610 M 423.589495,1090.109890 l 1.140855,-3.134473 M 475.468970,947.572206 l -0.492058,1.351917 M 477.476336,942.057012 l 6.694960,-18.394250 M 467.901156,936.202754 l -2.149141,5.904717 M 469.813560,930.948467 l 3.053026,-8.388121 M 476.950608,911.339589 l -2.837772,7.796714 M 482.431259,896.281626 l 1.019788,-2.801846 M 469.768094,898.911537 l -2.537427,6.971522 M 460.037797,893.483460 l 2.316515,-6.364574 M 447.384086,896.087395 l -0.469954,1.291189 M 452.107392,883.110219 l 2.695189,-7.404971 M 447.134023,864.612591 l -2.894239,7.951856 M 436.619540,861.339045 l 2.759603,-7.581946 M 431.563689,843.068034 l -2.830861,7.777727 M 420.659536,840.865100 l 2.974436,-8.172195 M 406.402912,847.873003 l -1.203728,3.307216 M 409.537580,839.260574 l 1.817218,-4.992765 M 415.414467,823.113961 l -0.737487,2.026230 M 400.961386,830.661624 l 1.513468,-4.158220 M 393.632342,818.636159 l -1.620530,4.452369 M 383.631032,813.952685 l 0.299565,-0.823047 M 366.475423,796.763636 l -0.679365,1.866540 M 356.784620,791.227049 l 1.153119,-3.168169 M 348.824932,780.934265 l -0.941103,2.585658 M 331.856547,763.230823 l 0.513978,-1.412142 M 323.071426,755.205897 l -0.576191,1.583071"
       id="path8" />
  </g>
  <g
     inkscape:label="fill-505050"
     inkscape:groupmode="layer"
     id="fill-505050">
    <path
       style="stroke:#505050"
       d="M 867.994194,1260.368883 l 0.825983,-3.885945 M 856.866424,1250.194378 l -0.363864,1.711847 M 844.739001,1244.722872 l 0.861313,-4.052159 M 834.905864,1228.457597 l -5.961773,28.047935 M 814.405788,1262.376325 l 10.555352,-49.659029 M 814.419744,1199.784119 l -14.978381,70.467744 M 785.095078,1275.219278 l 18.347299,-86.317257 M 791.769847,1181.290417 l -20.349117,95.735069 M 758.039990,1277.450367 l 21.978795,-103.402103 M 768.215992,1167.049497 l -22.879298,107.638633 M 732.890023,1270.718566 l 15.918050,-74.888537 M 756.348920,1160.353133 l -4.493839,21.141852 M 720.906130,1264.571806 l 13.452027,-63.286811 M 744.627387,1152.972065 l -4.593285,21.609706 M 708.235780,1261.654567 l 12.719578,-59.840908 M 734.714988,1137.079688 l -6.324870,29.756175 M 695.457051,1259.247214 l 12.527206,-58.935869 M 713.529551,1174.222786 l -1.674983,7.880175 M 716.482416,1160.330651 l 8.196932,-38.563531 M 715.432091,1102.745496 l -33.002002,155.262212 M 669.562595,1256.017960 l 14.724200,-69.271916 M 704.871919,1089.900652 l -18.397786,86.554776 M 656.764148,1253.703374 l 9.214358,-43.350147 M 681.225553,1138.621511 l -1.066815,5.018968 M 681.408612,1137.760284 l 1.053201,-4.954920 M 694.034219,1078.361472 l -10.857100,51.078639 M 643.856652,1251.901822 l 6.145329,-28.911500 M 657.793313,1186.334983 l -0.574323,2.701980 M 663.048447,1161.611524 l 3.765410,-17.714863 M 670.896289,1124.690329 l -0.697979,3.283731 M 671.241313,1123.067119 l 7.764967,-36.531296 M 682.719846,1069.064868 l -3.618658,17.024449 M 630.970601,1249.999376 l 2.372593,-11.162172 M 641.429955,1200.791986 l -0.584326,2.749039 M 641.718715,1199.433476 l 1.551642,-7.299904 M 664.254801,1093.409529 l -20.333155,95.659973 M 666.529885,1082.706099 l 0.833577,-3.921670 M 671.505734,1059.296572 l -3.281799,15.439649 M 618.487027,1246.203430 l 0.744486,-3.502531 M 654.639345,1076.120146 l -26.451234,124.443272 M 657.146205,1064.326298 l 0.681582,-3.206593 M 660.086424,1050.493653 l -1.709344,8.041830 M 610.290883,1222.236710 l 1.822227,-8.572906 M 615.973112,1195.503921 l -1.319118,6.205964 M 617.502265,1188.309822 l 27.075909,-127.382136 M 648.527673,1042.346757 l -2.245130,10.562508 M 597.622959,1219.308059 l 3.029496,-14.252657 M 637.062742,1033.758470 l -29.872675,140.539887 M 586.836052,1207.529921 l 3.516755,-16.545031 M 625.527424,1025.501326 l -29.256432,137.640693 M 577.584201,1188.529907 l 2.793159,-13.140781 M 584.982988,1153.721352 l -1.530682,7.201294 M 586.755239,1145.383570 l 27.400376,-128.908633 M 574.943357,1138.427556 l -8.202658,38.590470 M 577.586177,1125.994065 l 25.489696,-119.919592 M 553.316787,1177.646021 l -0.316415,1.488614 M 559.646625,1147.866479 l 6.211850,-29.224455 M 585.374478,1026.826443 l -15.879505,74.707198 M 585.607470,1025.730304 l 7.090909,-33.360105 M 546.987428,1144.896770 l -1.268123,5.966050 M 552.343578,1119.698067 l 19.210151,-90.376652 M 574.902530,1013.566542 l -0.700795,3.296983 M 575.982626,1008.485090 l 1.094291,-5.148233 M 581.879951,980.740354 l -3.116473,14.661852 M 524.564842,1187.860196 l 0.846633,-3.983094 M 536.050569,1133.824098 l -0.549750,2.586372 M 536.081048,1133.680706 l 0.763361,-3.591332 M 553.452801,1051.953032 l -9.120483,42.908500 M 554.474617,1047.145767 l 1.164842,-5.480152 M 561.245890,1015.289434 l -4.420307,20.795909 M 565.968878,993.069521 l 1.082501,-5.092764 M 569.736749,975.343082 l -0.862963,4.059921 M 570.139057,973.450371 l 1.433466,-6.743928 M 520.345350,1145.184801 l -0.678835,3.193669 M 536.958488,1067.026130 l 14.488532,-68.163184 M 556.704338,974.129211 l -0.902511,4.245981 M 557.940291,968.314510 l 1.921211,-9.038589 M 560.780159,954.953980 l -0.425789,2.003179 M 482.847616,1259.071219 l 2.240921,-10.542704 M 509.519375,1133.590459 l -1.422057,6.690251 M 515.151247,1107.094588 l 0.984894,-4.633563 M 520.427629,1082.271160 l -0.876274,4.122547 M 522.424542,1072.876421 l 0.645629,-3.037445 M 541.688772,982.245347 l -14.215623,66.879246 M 545.323024,965.147536 l 0.970321,-4.565001 M 548.529013,950.064542 l -0.949093,4.465133 M 472.805008,1243.791429 l 1.690939,-7.955242 M 476.031794,1228.610594 l -0.371159,1.746166 M 488.316256,1170.816744 l 1.259609,-5.925994 M 509.597506,1070.696334 l -1.094999,5.151566 M 517.461534,1033.698994 l 14.096062,-66.316759 M 535.719403,947.802473 l -0.988765,4.651775 M 467.983528,1203.948162 l 3.127916,-14.715689 M 479.788287,1148.411139 l -3.020855,14.212007 M 484.874763,1124.481150 l 2.450176,-11.527173 M 514.693560,984.194740 l -7.850721,36.934736 M 515.068692,982.429884 l 6.532702,-30.733944 M 524.941058,935.984053 l -0.900979,4.238775 M 455.736874,1199.037596 l 0.923308,-4.343824 M 477.091305,1098.572894 l -2.270992,10.684178 M 495.706253,1010.996450 l 15.498245,-72.913509 M 514.018868,924.842371 l -0.706324,3.322991 M 445.147485,1186.330207 l 8.475394,-39.873595 M 462.512722,1104.633190 l -0.785669,3.696282 M 464.697025,1094.356850 l 2.222248,-10.454855 M 482.435002,1010.906231 l -0.705832,3.320678 M 486.745164,990.628512 l 13.810649,-64.973996 M 432.385210,1183.845445 l -0.899232,4.230555 M 435.752253,1168.004751 l 7.028147,-33.064832 M 450.244425,1099.824445 l -1.041714,4.900879 M 459.876287,1054.510096 l 0.944060,-4.441453 M 476.380805,976.862441 l -3.350339,15.762104 M 481.653412,952.056775 l 5.489026,-25.823836 M 489.509028,915.099011 l -0.320267,1.506739 M 418.708565,1185.662452 l 2.934011,-13.803438 M 422.872405,1166.073124 l -0.920468,4.330464 M 428.751514,1138.414093 l 4.361896,-20.521109 M 457.966993,1000.966072 l -1.020498,4.801068 M 458.707288,997.483258 l 2.610725,-12.282494 M 462.419034,980.020866 l -0.365158,1.717934 M 469.578142,946.339907 l 7.712822,-36.285974 M 481.536708,890.079281 l -1.039824,4.891986 M 405.551853,1185.033369 l 3.164099,-14.885918 M 426.489063,1086.531543 l -4.658114,21.914703 M 443.551957,1006.256935 l 0.354122,-1.666015 M 448.855499,981.305734 l -1.246326,5.863503 M 459.593320,930.788258 l 0.711759,-3.348564 M 467.440151,893.871821 l -4.765588,22.420329 M 391.486314,1188.679982 l 1.534380,-7.218690 M 453.472257,897.059048 l -1.522334,7.162017 M 454.262406,893.341688 l 3.103285,-14.599810 M 379.071813,1184.559072 l -0.524786,2.468924 M 440.809305,894.107006 l 0.228664,-1.075780 M 447.215840,863.966627 l -3.609651,16.982075 M 433.043520,868.115604 l 0.219004,-1.030331 M 437.009398,849.457617 l -2.872297,13.513095 M 421.827206,858.357667 l 4.888866,-23.000305 M 410.556480,848.855720 l -2.315241,10.892351 M 411.016529,846.691356 l 2.600957,-12.236542 M 416.019160,823.155830 l -1.023135,4.813473 M 397.535829,847.586520 l 0.968455,-4.556223 M 399.595510,837.896482 l -0.595967,2.803802 M 400.023138,835.884649 l 0.528189,-2.484933 M 402.285740,825.239942 l -1.338689,6.298035 M 386.885525,835.165712 l 0.450331,-2.118640 M 391.147915,815.112745 l -2.482175,11.677714 M 376.428287,821.836605 l 0.393373,-1.850677 M 380.003700,805.015609 l -1.794502,8.442466 M 367.044198,803.458724 l 1.308270,-6.154926 M 357.487933,785.890870 l -1.670952,7.861209 M 344.698331,783.534668 l 1.259564,-5.925782 M 335.671673,763.475208 l -1.560608,7.342084 M 321.823901,766.097312 l 0.612799,-2.882992 M 324.170923,755.055440 l -1.070882,5.038102"
       id="path11" />
  </g>
  <g
     inkscape:label="fill-6f6f6f"
     inkscape:groupmode="layer"
     id="fill-6f6f6f">
    <path
       style="stroke:#6f6f6f"
       d="M 875.016809,1263.853649 l 0.193218,-2.208495 M 862.102422,1250.833780 l -0.606622,6.933725 M 847.930541,1252.187133 l 0.509565,-5.824358 M 835.809294,1230.101640 l -2.222846,25.407251 M 819.002926,1261.567321 l 4.521485,-51.680810 M 810.724200,1195.561601 l -6.329619,72.347880 M 789.747253,1274.697222 l 7.910217,-90.414189 M 781.528650,1208.004293 l -6.050705,69.159871 M 781.665780,1206.436892 l 2.654649,-30.342777 M 770.961472,1168.155707 l -9.570322,109.389281 M 747.480010,1275.918065 l 10.095750,-115.394952 M 740.088699,1199.769150 l -6.265564,71.615725 M 742.173067,1175.944713 l 2.139930,-24.459513 M 725.905356,1201.253516 l -5.592439,63.921866 M 728.843331,1167.672309 l 3.148032,-35.982175 M 711.873477,1201.006641 l -5.329676,60.918478 M 713.550259,1181.840932 l 0.650216,-7.432007 M 719.756028,1110.908673 l -4.307119,49.230592 M 692.710415,1259.409457 l 14.640283,-167.339197 M 685.727803,1178.589092 l -6.950132,79.440372 M 686.030363,1175.130817 l 8.513504,-97.309796 M 669.232589,1206.498264 l -4.301893,49.170859 M 675.103394,1139.394656 l 0.960665,-10.980449 M 681.470225,1066.621449 l -5.052922,57.755168 M 651.081793,1253.330830 l 2.903643,-33.188796 M 654.751156,1211.389819 l -0.150719,1.722725 M 656.408890,1192.441831 l 1.568988,-17.933620 M 661.890979,1129.781269 l -3.567086,40.771975 M 662.531499,1122.460091 l 2.629826,-30.059046 M 666.488510,1077.231246 l -0.764644,8.739918 M 666.738593,1074.372784 l 1.629126,-18.621000 M 639.054123,1230.175741 l -1.862125,21.284190 M 641.194234,1205.714163 l 11.900031,-136.017977 M 654.234026,1056.668651 l -0.531878,6.079391 M 654.586988,1052.634276 l 0.553869,-6.330752 M 624.065112,1240.868937 l -0.668334,7.639093 M 624.507437,1235.813139 l 0.091887,-1.050271 M 626.162783,1216.892443 l -1.131951,12.938258 M 626.830952,1209.255239 l 0.210506,-2.406096 M 641.921413,1036.770478 l -14.379102,164.353890 M 611.431355,1224.641448 l 1.149628,-13.140311 M 614.204195,1192.947748 l -0.730794,8.353012 M 614.864415,1185.401394 l 13.843398,-158.230762 M 599.588171,1199.377676 l -2.027822,23.178107 M 602.094844,1170.726274 l 13.504393,-154.355918 M 586.838356,1184.476743 l -2.579638,29.485402 M 588.510588,1165.363045 l 0.605070,-6.915982 M 602.638212,1003.883565 l -13.121557,149.980083 M 570.342593,1212.392189 l 0.962853,-11.005462 M 572.013220,1193.296844 l -0.357485,4.086077 M 572.853450,1183.692968 l 3.888034,-44.440434 M 589.986050,987.866451 l -12.202926,139.480084 M 557.187342,1202.125411 l 0.678810,-7.758835 M 559.854725,1171.637093 l -1.507408,17.229748 M 560.574428,1163.410843 l 4.412773,-50.438227 M 572.821603,1023.424992 l -6.376662,72.885580 M 573.379361,1017.049786 l 0.536331,-6.130291 M 575.002561,998.496527 l -0.722724,8.260769 M 575.584049,991.850090 l 1.761447,-20.133435 M 544.940017,1181.480996 l -0.862531,9.858779 M 545.630952,1173.583576 l 0.173038,-1.977836 M 548.164588,1144.623974 l -0.779208,8.906386 M 550.313333,1120.063707 l 5.788323,-66.160834 M 557.031732,1043.272056 l -0.858544,9.813198 M 557.468401,1038.280908 l 2.444288,-27.938344 M 561.491173,992.300419 l -0.330427,3.776797 M 561.834406,988.377243 l 0.716744,-8.192427 M 564.630372,956.419204 l -1.163391,13.297615 M 530.015689,1191.434856 l 0.592635,-6.773844 M 535.959689,1123.494624 l -1.201105,13.728693 M 538.394129,1095.668853 l 1.078836,-12.331151 M 547.653503,989.833728 l -7.720039,88.240448 M 549.293776,971.085312 l 0.613798,-7.015746 M 551.137495,950.011513 l -0.855831,9.782197 M 516.477853,1185.541049 l 0.626257,-7.158153 M 520.204568,1142.944497 l -0.675066,7.716037 M 524.827347,1090.105898 l 0.462140,-5.282279 M 526.475711,1071.265006 l -0.430970,4.926010 M 528.092828,1052.781280 l 7.191583,-82.200168 M 537.214623,948.518676 l -0.619756,7.083839 M 502.719799,1182.164338 l 1.015652,-11.608951 M 507.734385,1124.847358 l -1.387756,15.862129 M 509.618912,1103.307116 l 1.082029,-12.367651 M 512.449041,1070.958597 l -1.217872,13.920337 M 515.821567,1032.410445 l 7.047134,-80.549111 M 524.384121,934.540006 l -0.549768,6.283882 M 481.556158,1263.433877 l 2.072780,-23.691982 M 485.024633,1223.789031 l -0.406429,4.645508 M 489.494190,1172.701752 l 1.429389,-16.337991 M 494.230346,1118.567249 l -1.079845,12.342688 M 499.072965,1063.215862 l 0.260238,-2.974535 M 500.130500,1051.128175 l -0.451279,5.158138 M 502.854803,1019.989255 l 7.404188,-84.630252 M 511.463429,921.592204 l -0.479977,5.486160 M 472.183303,1209.934115 l 1.240471,-14.178650 M 478.797638,1134.331924 l -2.530880,28.928088 M 480.097895,1119.469916 l 2.715367,-31.036787 M 489.845307,1008.056490 l -0.366794,4.192470 M 490.182473,1004.202656 l 7.259605,-82.977665 M 498.511537,909.001021 l -0.717312,8.198909 M 458.933883,1200.743691 l 0.574300,-6.564282 M 466.956220,1109.047966 l -0.216901,2.479195 M 467.624660,1101.407662 l 1.361237,-15.559006 M 478.772382,973.988615 l -2.403339,27.470292 M 480.149101,958.252640 l 3.437841,-39.294699 M 485.835344,893.258584 l -0.540227,6.174826 M 445.300451,1195.942550 l 0.357997,-4.091929 M 450.124108,1140.807898 l -4.121082,47.104187 M 450.475475,1136.791747 l 0.311906,-3.565106 M 454.211766,1094.085756 l -1.412532,16.145318 M 462.039795,1004.610975 l 2.260216,-25.834390 M 471.302473,898.738080 l -4.159697,47.545554 M 431.861901,1188.913890 l 1.326502,-15.161992 M 437.819465,1120.818621 l -3.694823,42.232017 M 447.224024,1013.324023 l 3.380924,-38.644141 M 455.300675,921.007484 l -0.275104,3.144452 M 455.720390,916.210117 l 0.145397,-1.661891 M 458.933037,879.489394 l -2.884298,32.967677 M 418.072790,1185.892162 l 1.784083,-20.392162 M 426.920491,1084.762485 l -3.105448,35.495430 M 432.360823,1022.579198 l 1.966410,-22.476169 M 439.716462,938.503864 l -0.303414,3.468035 M 441.880919,913.764008 l 0.772881,-8.834075 M 443.816143,891.644294 l -0.593603,6.784915 M 444.166247,887.642589 l 0.173504,-1.983164 M 446.482611,861.166421 l -1.937594,22.146797 M 403.994221,1186.178964 l 0.910918,-10.411843 M 427.769718,914.423787 l -0.426585,4.875884 M 430.056786,888.282482 l 1.307489,-14.944671 M 433.968408,843.572437 l -2.255106,25.775981 M 389.660961,1189.376891 l 0.721375,-8.245355 M 415.118816,898.392269 l -0.492196,5.625823 M 417.494151,871.242066 l 3.798422,-43.416161 M 375.976676,1185.156993 l -0.432600,4.944643 M 404.632598,857.618307 l 2.544409,-29.082727 M 392.655551,833.884593 l -0.851576,9.733560 M 392.882740,831.287809 l 1.277849,-14.605877 M 379.306856,825.828891 l -0.349515,3.994978 M 379.402585,824.734709 l 0.324631,-3.710545 M 381.159293,804.655436 l -1.094601,12.511349 M 366.162251,815.440428 l 0.280141,-3.202025 M 368.127976,792.972092 l -1.028424,11.754946 M 353.996406,793.864690 l 1.028612,-11.757088 M 341.774299,772.932028 l -0.817754,9.346970 M 341.884326,771.674412 l 0.217810,-2.489584 M 329.068490,757.528103 l -1.258335,14.382833 M 314.701325,761.113566 l 0.884642,-10.111506"
       id="path14" />
  </g>
  <g
     inkscape:label="fill-909090"
     inkscape:groupmode="layer"
     id="fill-909090">
    <path
       style="stroke:#909090"
       d="M 874.521958,1264.676488 l -0.296671,-5.660820 M 858.603374,1247.541643 l 0.544295,10.385765 M 843.856756,1252.769261 l -0.791466,-15.102062 M 826.751031,1212.982419 l 2.345331,44.751587 M 814.418415,1264.271916 l -3.651865,-69.681726 M 795.092081,1182.113332 l 4.681396,89.326349 M 785.022774,1276.589354 l -5.432938,-103.666632 M 764.069637,1163.389528 l 6.018159,114.833312 M 755.067200,1278.222624 l -4.503263,-85.927376 M 748.598464,1154.791805 l 1.417721,27.051719 M 739.816201,1273.826081 l -3.868674,-73.818697 M 732.329192,1130.965440 l 2.170529,41.416164 M 724.474342,1267.695808 l -3.500615,-66.795710 M 719.744414,1177.443412 l 0.182724,3.486577 M 718.962682,1162.527062 l -3.193995,-60.945055 M 705.800249,1197.982718 l 3.399522,64.866742 M 705.155902,1185.687849 l -5.417525,-103.372540 M 683.921122,1067.113948 l 10.142078,193.522382 M 678.949777,1258.864881 l -3.386702,-64.622132 M 673.934162,1163.161250 l 0.253844,4.843633 M 673.615345,1157.077845 l -0.621526,-11.859421 M 668.247404,1054.651431 l 4.643079,88.595222 M 663.781490,1256.046561 l -2.640027,-50.374707 M 653.843250,1066.413642 l 6.965050,132.901066 M 653.793491,1065.464184 l -1.122806,-21.424424 M 646.755553,1217.782175 l 1.867607,35.636061 M 646.377413,1210.566832 l -9.317853,-177.795221 M 631.674345,1216.625421 l 1.811691,34.569131 M 631.537012,1214.004952 l -0.307613,-5.869599 M 621.409156,1020.753940 l 9.619487,183.550746 M 618.261314,1247.299369 l -1.941499,-37.046012 M 615.422121,1193.124346 l 0.644229,12.292628 M 615.100245,1186.982578 l -9.473386,-180.762966 M 600.619663,1197.286466 l 2.023048,38.602060 M 599.121523,1168.700240 l -9.555108,-182.322324 M 584.339421,1173.250781 l 2.970473,56.680007 M 583.864456,1164.187913 l -1.046616,-19.970616 M 575.094271,996.842801 l 7.578298,144.602534 M 574.842235,992.033676 l -1.422627,-27.145335 M 565.848486,1107.032548 l 6.166300,117.660018 M 565.384181,1098.173091 l -5.083082,-96.990985 M 557.720600,951.943256 l 2.315058,44.173936 M 556.701283,1219.103362 l -2.860973,-54.590626 M 552.935051,1147.239383 l 0.873282,16.663211 M 552.756374,1143.830017 l -8.571079,-163.545923 M 543.508141,967.363214 l 0.203304,3.879263 M 543.397735,965.256544 l -0.990507,-18.899996 M 540.684303,1200.091019 l 0.209141,3.990654 M 540.418836,1195.025612 l -1.153382,-22.007831 M 536.435141,1119.012184 l 1.296398,24.736749 M 535.314817,1097.635123 l -1.190286,-22.712012 M 527.895299,956.062292 l 5.766690,110.034991 M 527.372553,946.087703 l -0.521472,-9.950288 M 524.444005,1176.817507 l 1.193762,22.778332 M 524.395884,1175.899303 l -0.586291,-11.187104 M 522.717361,1143.871173 l 0.562401,10.731244 M 521.085310,1112.729791 l -0.499971,-9.540016 M 519.236593,1077.454173 l 0.708926,13.527116 M 518.920798,1071.428447 l -1.084871,-20.700580 M 511.795920,935.477670 l 5.566847,106.221768 M 511.466961,929.200760 l -0.447878,-8.546027 M 508.812148,1165.153748 l 1.172675,22.375970 M 508.501906,1159.233989 l -2.075946,-39.611412 M 505.464341,1101.273790 l 0.519454,9.911767 M 505.365637,1099.390407 l -0.856541,-16.343783 M 502.721653,1048.940185 l 1.446182,27.594804 M 501.946238,1034.144388 l -0.221613,-4.228634 M 495.068644,902.912072 l 6.457952,123.225057 M 494.434091,1177.413913 l -1.980740,-37.794777 M 490.703857,1106.236812 l 1.402171,26.755009 M 486.400883,1024.131173 l -5.846644,-111.560610 M 479.180222,886.352770 l 0.638820,12.189421 M 483.901232,1263.044846 l -2.575571,-49.144828 M 476.906112,1129.569996 l 1.878797,35.849590 M 476.236106,1116.785515 l -1.301078,-24.826047 M 468.938292,977.534925 l 1.307515,24.948878 M 467.366454,947.542470 l -3.632985,-69.321487 M 469.370882,1272.399084 l 0.181826,3.469449 M 465.776243,1203.809289 l -0.522562,-9.971074 M 463.067359,1152.120693 l 1.134243,21.642647 M 461.219268,1116.857016 l -1.230829,-23.485625 M 457.609887,1047.985932 l 0.464718,8.867349 M 456.626395,1029.219786 l -0.190973,-3.643985 M 453.700649,973.393218 l 2.462195,46.981475 M 452.666691,953.664129 l -0.126213,-2.408279 M 447.565287,856.323546 l 3.952893,75.425697 M 450.478704,1198.524690 l -3.700722,-70.613976 M 443.881830,1072.648838 l 1.976579,37.715366 M 442.672609,1049.575516 l -0.079648,-1.519766 M 441.677647,1030.590516 l 0.123378,2.354188 M 441.456971,1026.379775 l -1.585666,-30.256312 M 436.484233,931.494267 l 0.508092,9.694980 M 436.336926,928.683488 l -0.457519,-8.729981 M 431.543218,837.214096 l 3.537921,67.507548 M 434.967627,1189.165551 l -0.837477,-15.980022 M 429.624695,1087.216325 l 4.013141,76.575301 M 428.773327,1070.971263 l -0.038581,-0.736170 M 427.991736,1056.057621 l 0.435689,8.313449 M 427.499564,1046.666414 l -1.587513,-30.291550 M 424.993781,998.853235 l 0.537502,10.256149 M 420.538838,913.847862 l -0.485030,-9.254914 M 415.614061,819.877513 l 3.040283,58.012050 M 419.847796,1187.271827 l -1.167217,-22.271827 M 414.326214,1081.913765 l 0.719831,13.735196 M 402.561202,857.423962 l -1.853802,-35.372646 M 404.225545,1175.791355 l 0.552813,10.548307 M 386.576419,839.025980 l -1.668365,-31.834307 M 389.465797,1180.768420 l 0.477068,9.102992 M 370.659275,821.918621 l -0.471372,-8.994309 M 369.133504,792.805175 l 0.869314,16.587495 M 374.989723,1191.158313 l -0.299947,-5.723336 M 354.376353,797.831790 l 0.398692,7.607500 M 354.342260,797.181264 l -0.969742,-18.503776 M 338.653668,784.434937 l 0.293501,5.600337 M 338.492985,781.368915 l -0.900155,-17.175973 M 321.940696,752.142272 l 0.915862,17.475684 M 307.081053,755.213226 l -0.031390,-0.598951"
       id="path17" />
  </g>
  <g
     inkscape:label="fill-aeaeae"
     inkscape:groupmode="layer"
     id="fill-aeaeae">
    <path
       style="stroke:#aeaeae"
       d="M 870.228445,1263.978131 l -2.031207,-11.519548 M 849.960539,1241.173455 l 2.672876,15.158635 M 836.187514,1255.203077 l -7.307032,-41.440240 M 808.691327,1191.404776 l 12.788750,72.528604 M 806.034543,1268.477735 l -15.851264,-89.896986 M 772.030632,1167.772298 l 18.967164,107.568131 M 775.236575,1278.094435 l -21.259897,-120.570867 M 744.297490,1194.770490 l 14.744634,83.620972 M 741.062101,1176.421687 l -7.965471,-45.174431 M 728.994326,1200.122266 l 13.241015,75.093528 M 722.866023,1165.366932 l -12.764061,-72.388589 M 712.752442,1200.150289 l 12.039635,68.280161 M 709.940517,1184.203074 l -19.919830,-112.970967 M 671.126533,1056.218355 l 36.491836,206.955483 M 690.835492,1260.133746 l -38.207899,-216.687762 M 633.998543,1029.935720 l 40.349783,228.834989 M 657.465060,1255.161276 l -6.751518,-38.289761 M 614.950266,1014.047898 l 35.098749,199.054895 M 640.817927,1252.891024 l -45.921561,-260.434114 M 616.906881,1209.425071 l 7.098807,40.259337 M 616.467645,1206.934039 l -3.101176,-17.587644 M 573.657684,964.146684 l 39.115966,221.837667 M 606.288250,1241.344147 l -9.132212,-51.791350 M 594.496895,1174.472053 l 0.401255,2.275628 M 594.130316,1172.393078 l -39.203402,-222.333542 M 537.692863,944.460706 l 51.157666,290.129543 M 571.444380,1228.015396 l -50.122537,-284.259034 M 518.331097,926.795001 l 2.480291,14.066428 M 553.845463,1220.347308 l -18.881945,-107.084833 M 524.806936,1055.661635 l 8.338473,47.289828 M 523.960026,1050.858573 l -25.638157,-145.401211 M 523.915638,1142.747165 l 11.852027,67.216188 M 523.471783,1140.229935 l -1.203086,-6.823039 M 507.013500,1046.890372 l 14.379061,81.547709 M 506.704463,1045.137736 l -22.632405,-128.354746 M 478.407790,884.659329 l 5.107987,28.968834 M 517.032660,1195.852180 l -22.036895,-124.977443 M 492.661406,1057.635931 l 0.995900,5.648030 M 491.329968,1050.084969 l -1.623469,-9.207151 M 476.896917,968.231070 l 11.306437,64.121992 M 474.617179,955.302036 l -16.009092,-90.792070 M 478.793675,1071.128451 l 19.396355,110.002195 M 473.768091,1042.626944 l -15.888615,-90.108811 M 438.701440,843.754086 l 16.766732,95.088863 M 479.390293,1166.652365 l -44.321661,-251.360630 M 418.551669,821.619382 l 14.589483,82.741071 M 480.757272,1266.545219 l -8.205564,-46.536066 M 447.047263,1075.366256 l 23.582160,133.741073 M 445.792826,1068.251987 l -1.329675,-7.540960 M 433.126610,996.418311 l 10.300146,58.415032 M 423.060688,939.331627 l -0.900270,-5.105683 M 414.093717,888.477407 l 5.346197,30.319791 M 413.160211,883.183235 l -10.568540,-59.937170 M 465.728277,1273.451880 l 0.815820,4.626748 M 452.752434,1199.862213 l -15.773243,-89.454507 M 431.787000,1080.961329 l 3.257222,18.472621 M 430.934461,1076.126340 l -3.736511,-21.190807 M 422.473917,1028.144214 l 3.107738,17.624858 M 390.090207,844.487067 l -6.973159,-39.546749 M 430.894577,1168.040476 l 3.877162,21.988478 M 421.943586,1117.276883 l -8.009336,-45.423199 M 363.758327,787.291881 l 6.170907,34.996953 M 417.959532,1186.822516 l -3.994676,-22.654932 M 344.328226,769.238631 l 5.861630,33.242955 M 401.875923,1187.748167 l -1.665674,-9.446505 M 325.298298,753.454875 l 5.718173,32.429370 M 386.110350,1190.477488 l -1.652921,-9.374180 M 308.393312,749.722263 l 1.837721,10.422232 M 370.616391,1194.747206 l -1.094759,-6.208684"
       id="path20" />
  </g>
  <g
     inkscape:label="fill-cdcdcd"
     inkscape:groupmode="layer"
     id="fill-cdcdcd">
    <path
       style="stroke:#cdcdcd"
       d="M 860.906218,1261.029621 l -6.024938,-18.542854 M 825.074603,1209.000473 l 14.807554,45.572965 M 824.294820,1264.849772 l -26.904032,-82.802095 M 773.900427,1168.001002 l 32.944636,101.393165 M 790.233450,1276.518101 l -39.577360,-121.806588 M 744.233367,1193.193626 l 27.945668,86.007921 M 738.724637,1176.239498 l -26.843804,-82.616734 M 727.358680,1199.507904 l 25.892254,79.688164 M 721.878522,1182.641710 l -5.317787,-16.366465 M 683.317976,1063.964554 l 32.021914,98.553318 M 732.226390,1272.738397 l -24.439991,-75.218557 M 658.665525,1046.341336 l 45.908936,141.293177 M 710.600878,1264.431140 l -76.552281,-235.603694 M 607.615392,1005.723630 l 83.096064,255.743388 M 671.065801,1259.253132 l -95.651231,-294.384217 M 550.913887,947.712787 l 99.877345,307.390860 M 630.858164,1252.005195 l -103.044446,-317.138196 M 498.924306,904.203758 l 110.656949,340.567071 M 588.019766,1236.660611 l -117.330959,-361.107562 M 441.898103,845.193597 l 124.491002,383.143906 M 543.893595,1217.352668 l -130.902045,-402.875068 M 393.705276,813.369774 l 125.450280,386.096260 M 493.559013,1178.937200 l -60.254843,-185.445339 M 366.729622,788.596472 l 16.042809,49.374688 M 477.683170,1188.325604 l -53.986865,-166.154486 M 339.929978,764.364872 l 14.206495,43.723096 M 483.781747,1265.344317 l -13.255539,-40.796353 M 459.905614,1191.861137 l 3.985017,12.264621 M 456.153695,1180.313917 l -39.240950,-120.771224 M 314.509437,744.377716 l 14.122993,43.466103 M 469.024293,1278.174768 l -2.084964,-6.416860 M 432.675944,1166.306053 l 9.770071,30.069185 M 421.137195,1189.042660 l -8.339136,-25.665221 M 398.512518,1177.660285 l 3.526025,10.851988 M 383.865303,1190.830018 l -3.184921,-9.802180 M 365.286754,1191.900345 l 2.018065,6.210966"
       id="path23" />
  </g>
</svg>
