<?xml version="1.0" encoding="UTF-8" standalone="no"?>
<!-- Created with Inkscape (http://www.inkscape.org/) -->

<svg
   xmlns:dc="http://purl.org/dc/elements/1.1/"
   xmlns:cc="http://creativecommons.org/ns#"
   xmlns:rdf="http://www.w3.org/1999/02/22-rdf-syntax-ns#"
   xmlns:svg="http://www.w3.org/2000/svg"
   xmlns="http://www.w3.org/2000/svg"
   xmlns:sodipodi="http://sodipodi.sourceforge.net/DTD/sodipodi-0.dtd"
   xmlns:inkscape="http://www.inkscape.org/namespaces/inkscape"
   id="svg2"
   version="1.1"
   inkscape:version="0.48.3.1 r9886"
   width="2331"
   height="1544"
   sodipodi:docname="hantologie-_0004_pie_hatched_1398275362.svg">
  <defs
     id="defs27" />
  <sodipodi:namedview
     pagecolor="#ffffff"
     bordercolor="#666666"
     borderopacity="1"
     objecttolerance="10"
     gridtolerance="10"
     guidetolerance="10"
     inkscape:pageopacity="0"
     inkscape:pageshadow="2"
     inkscape:window-width="640"
     inkscape:window-height="480"
     id="namedview25" />
  <metadata
     id="metadata8">
    <rdf:RDF>
      <cc:Work
         rdf:about="">
        <dc:format>image/svg+xml </dc:format>
        <dc:type
           rdf:resource="http://purl.org/dc/dcmitype/StillImage" />
        <dc:title />
      </cc:Work>
    </rdf:RDF>
  </metadata>
  <g
     inkscape:label="fill-070707"
     inkscape:groupmode="layer"
     id="fill-070707">
    <path
       style="stroke:#070707"
       d="M 1443.894352,165.992440 l -2.580271,-0.939142 M 1487.314502,203.079638 l 12.317975,4.483376 M 1451.665109,190.104320 l -29.325416,-10.673579 M 1480.944573,222.044729 l 6.119108,2.227173 M 1474.234929,219.602618 l -4.879643,-1.776045 M 1444.298138,208.706517 l 9.360598,3.406979 M 1437.386181,206.190771 l -14.622231,-5.322057 M 1463.967368,237.149087 l 22.280969,8.109609 M 1457.327856,234.732502 l -10.557054,-3.842453 M 1407.857948,216.726928 l 33.102424,12.048297 M 1475.228379,262.531315 l -14.121543,-5.139821 M 1444.822203,251.464372 l 13.465246,4.900949 M 1440.306431,249.820766 l -9.680181,-3.523298 M 1417.130448,241.385397 l 9.551554,3.476481 M 1415.230454,240.693856 l -7.974076,-2.902326 M 1464.299899,279.837229 l 4.343007,1.580725 M 1460.899568,278.599610 l -3.855137,-1.403155 M 1449.555430,274.470681 l 5.034025,1.832235 M 1446.462562,273.344969 l -13.529874,-4.924471 M 1405.948391,258.599017 l 23.017410,8.377652 M 1462.932614,300.623134 l -14.391301,-5.238005 M 1421.717032,285.621889 l 25.451826,9.263707 M 1419.027409,284.642946 l -4.258276,-1.549886 M 1429.904335,309.885379 l 19.934331,7.255503 M 1425.637039,308.332210 l -3.586418,-1.305349 M 1402.006169,321.014832 l 1.726321,0.628330 M 1371.737095,373.848456 l -27.538932,-10.023351 M 1337.390408,361.347285 l 5.957053,2.168190 M 1323.456174,356.275638 l -9.303092,-3.386048 M 1282.821581,362.769412 l 78.045515,28.406244 M 1281.650041,362.343006 l -2.328384,-0.847462 M 1264.154928,355.975305 l 9.051378,3.294432 M 1227.798504,342.742649 l -8.733798,-3.178842 M 1304.979969,392.117961 l 44.031018,16.025980 M 1290.120259,386.709468 l -0.884969,-0.322102 M 1252.496991,373.015719 l 26.976156,9.818518 M 1328.925191,422.116864 l -46.018242,-16.749270 M 1327.998076,443.062977 l 2.786517,1.014209 M 1323.257995,441.337729 l -24.113166,-8.776475 M 1219.966120,403.742561 l 70.716346,25.738645 M 1213.825634,401.507607 l -11.354420,-4.132671 M 1183.581878,390.499780 l 5.050737,1.838318 M 1381.190816,483.707107 l -14.662206,-5.336606 M 1348.343736,471.751747 l 7.407031,2.695939 M 1318.707605,460.965078 l -10.029113,-3.650299 M 1299.710890,454.050839 l 7.014844,2.553194 M 1294.879833,452.292478 l -114.096922,-41.527883 M 1151.403464,400.071351 l 18.230859,6.635490 M 1148.424212,398.986991 l -19.017703,-6.921878 M 1371.268709,501.379311 l 9.684734,3.524955 M 1344.599896,491.672656 l -3.582925,-1.304078 M 1317.661173,481.867763 l 6.942335,2.526803 M 1292.039480,472.542230 l -23.479446,-8.545819 M 1259.979781,460.873453 l 2.376984,0.865151 M 1255.549883,459.261102 l -131.041994,-47.695385 M 1105.679647,404.712797 l 17.667313,6.430376 M 1085.275128,397.286160 l -3.173087,-1.154909 M 1347.618880,514.055032 l 5.740412,2.089339 M 1335.680274,509.709735 l -9.876227,-3.594653 M 1303.087271,497.846852 l 7.341932,2.672245 M 1297.737208,495.899588 l -1.267894,-0.461476 M 1286.072966,491.654152 l 1.173685,0.427186 M 1266.640217,484.581209 l -17.303899,-6.298104 M 1238.514960,474.344453 l 9.247689,3.365884 M 1229.524203,471.072085 l -103.065270,-37.512691 M 1091.323662,420.771202 l 32.865535,11.962076 M 1084.368452,418.239712 l -13.821386,-5.030573 M 1064.633122,411.056640 l 0.753373,0.274205 M 1060.116597,409.412759 l -9.919469,-3.610391 M 1330.388017,529.067066 l 2.389762,0.869802 M 1295.462867,516.355351 l -3.518035,-1.280460 M 1090.910839,441.904502 l 115.058058,41.877708 M 1088.951948,441.191524 l -11.072346,-4.030004 M 1058.679381,430.173211 l 16.968265,6.175943 M 1052.261875,427.837429 l -14.896471,-5.421872 M 1025.863569,418.229232 l 7.364340,2.680400 M 1017.393780,415.146481 l -3.101612,-1.128895 M 976.111842,400.121084 l 1.303955,0.474601 M 1136.088745,479.631470 l -47.370564,-17.241475 M 1080.160597,459.275289 l 6.362447,2.315741 M 1074.918237,457.367226 l -4.008592,-1.459008 M 1064.359431,453.524135 l 3.284128,1.195325 M 1058.309930,451.322297 l -4.131522,-1.503751 M 1032.773125,442.027660 l 3.262174,1.187334 M 1024.032377,438.846288 l -3.604113,-1.311790 M 1010.251059,433.830298 l 2.055610,0.748181 M 1001.397295,430.607792 l -8.999723,-3.275631 M 974.783449,420.921144 l 1.257925,0.457847 M 1275.727788,551.739481 l -9.962336,-3.625994 M 1213.441294,529.069051 l 4.060719,1.477981 M 1136.228406,500.965858 l -35.427497,-12.894554 M 1065.082779,475.070968 l 34.281003,12.477265 M 1062.271135,474.047613 l -11.446495,-4.166184 M 1041.814735,466.602092 l 2.371066,0.862997 M 1023.201313,459.827361 l -8.847468,-3.220215 M 1170.977378,534.897005 l 1.921212,0.699264 M 1112.198728,513.503326 l -64.328131,-23.413525 M 1024.769644,481.681742 l 19.860443,7.228610 M 1021.204720,480.384216 l -26.773347,-9.744701 M 977.316024,464.410037 l 3.741351,1.361740 M 1228.664140,577.176825 l -5.523366,-2.010341 M 1146.701737,547.344950 l 3.813426,1.387974 M 1129.728530,541.167208 l -3.816908,-1.389241 M 1045.410109,510.477812 l 30.275719,11.019460 M 1039.113578,508.186063 l -77.764249,-28.303872 M 947.173295,474.722536 l 6.080400,2.213085 M 942.015051,472.845089 l -3.972898,-1.446017 M 917.757004,464.015882 l 4.496123,1.636455 M 1178.750060,580.293141 l -2.005287,-0.729865 M 1015.090011,520.725755 l 5.510463,2.005645 M 1002.854053,516.272230 l -79.950152,-29.099475 M 909.672199,482.356809 l 10.833190,3.942959 M 902.748212,479.836683 l -4.552414,-1.656943 M 1147.085778,590.051840 l 1.363962,0.496442 M 1109.709605,576.448026 l -2.157915,-0.785417 M 1095.871344,571.411311 l 2.873571,1.045894 M 1092.603564,570.221936 l -7.803548,-2.840259 M 1078.174384,564.970144 l 3.081374,1.121529 M 1074.116191,563.493083 l -4.524546,-1.646800 M 1057.103327,557.300907 l 8.449507,3.075369 M 1048.954271,554.334892 l -3.044631,-1.108155 M 957.587831,521.080228 l 15.970491,5.812783 M 954.778593,520.057749 l -24.796600,-9.025224 M 874.445888,490.819036 l 52.069306,18.951677 M 863.497059,486.833988 l -22.241958,-8.095411 M 1089.466342,590.363636 l 7.601279,2.766639 M 1075.862519,585.412249 l -10.744575,-3.910705 M 1044.819340,574.113456 l 16.113491,5.864831 M 953.846540,541.002065 l -140.616535,-51.180233 M 1077.688143,607.360278 l 8.521726,3.101654 M 1074.302519,606.128011 l -10.451351,-3.803981 M 1015.038445,584.557652 l 10.246057,3.729260 M 922.699309,550.948955 l -9.611595,-3.498334 M 808.553223,509.403178 l 100.696350,36.650474 M 1104.932131,638.559834 l -4.511199,-1.641942 M 1076.874299,628.347618 l 19.475985,7.088679 M 1069.577437,625.691777 l -21.532850,-7.837316 M 1012.741957,605.005354 l 14.335542,5.217711 M 915.742985,569.700616 l -100.048156,-36.414551 M 1034.226033,634.108474 l 13.162239,4.790663 M 1014.488114,626.924459 l -14.842759,-5.402322 M 887.321506,580.639599 l 34.286395,12.479227 M 882.682985,578.951315 l -10.079720,-3.668718 M 859.660082,570.571664 l 5.860373,2.133001 M 843.057081,564.528666 l -20.786174,-7.565549 M 1026.836680,652.702525 l 9.845308,3.583399 M 1008.376787,645.983673 l -26.188110,-9.531693 M 895.732326,604.984443 l 29.512672,10.741734 M 882.976011,600.341524 l -39.014765,-14.200213 M 837.962731,583.958030 l 3.295115,1.199324 M 873.056420,618.014643 l -9.876013,-3.594575 M 846.161431,608.225668 l 6.169821,2.245631 M 844.327851,607.558299 l -8.399418,-3.057138"
       id="path5" />
  </g>
  <g
     inkscape:label="fill-303030"
     inkscape:groupmode="layer"
     id="fill-303030">
    <path
       style="stroke:#303030"
       d="M 1488.496748,175.603094 l -0.414120,-0.126609 M 1494.299796,199.336791 l 10.327508,3.157436 M 1455.869317,187.587414 l -36.701654,-11.220822 M 1480.783185,217.163875 l 15.677554,4.793109 M 1478.297527,216.403933 l -9.899771,-3.026664 M 1422.447713,199.328931 l 36.508525,11.161776 M 1419.759877,198.507178 l -2.603238,-0.795890 M 1405.128286,215.993378 l 84.164338,25.731620 M 1483.412813,261.886887 l -1.586689,-0.485099 M 1444.354952,249.945700 l 34.235078,10.466714 M 1443.022457,249.538316 l -46.118262,-14.099768 M 1394.526699,256.671202 l 77.538875,23.706013 M 1465.442336,300.311815 l -60.217617,-18.410373 M 1397.709211,279.603720 l 0.184228,0.056324 M 1459.689324,320.512469 l -39.778803,-12.161601 M 1416.012742,307.159198 l 1.757128,0.537208 M 1411.865359,305.891216 l -8.599808,-2.629225 M 1443.143902,337.413553 l 1.531450,0.468211 M 1411.537481,327.750500 l -2.842439,-0.869021 M 1401.429205,324.660090 l 3.896401,1.191249 M 1373.298382,316.059634 l -4.950890,-1.513639 M 1383.835233,341.240600 l 9.867611,3.016831 M 1351.073545,331.224347 l -9.551957,-2.920326 M 1367.401865,358.175942 l 17.208061,5.261032 M 1314.304433,341.942428 l -3.517269,-1.075337 M 1272.757268,351.199712 l 100.221054,30.640651 M 1266.874668,349.401220 l -21.234149,-6.491931 M 1220.764303,335.303867 l 15.418411,4.713881 M 1362.742463,400.670474 l -114.310194,-34.948134 M 1392.230594,431.645427 l 2.381912,0.728224 M 1373.207736,425.829555 l -2.121166,-0.648506 M 1287.944673,399.762021 l 49.869097,15.246513 M 1269.527862,394.131437 l -7.727541,-2.362546 M 1252.004193,388.773914 l 9.359205,2.861396 M 1243.954116,386.312758 l -10.555915,-3.227267 M 1221.414955,379.421845 l 4.848626,1.482374 M 1207.368321,375.127358 l -1.519637,-0.464600 M 1199.354248,372.677210 l 3.159267,0.965885 M 1195.317424,371.443029 l -4.810592,-1.470746 M 1159.469843,360.483324 l 1.073502,0.328203 M 1400.301075,456.072347 l -4.841376,-1.480157 M 1391.382265,453.345594 l 0.281379,0.086026 M 1375.488532,448.486392 l -19.944350,-6.097600 M 1344.839433,439.116022 l 5.299253,1.620144 M 1336.033694,436.423837 l -96.707126,-29.566336 M 1175.358834,387.300603 l 62.906352,19.232402 M 1173.111931,386.613655 l -9.130837,-2.791577 M 1376.493061,470.753034 l 4.779637,1.461282 M 1365.617544,467.428055 l -1.996095,-0.610267 M 1348.569819,462.216042 l 10.414355,3.183988 M 1328.346602,456.033184 l -155.114871,-47.423375 M 1109.433409,389.104705 l 60.988678,18.646110 M 1405.575588,501.603982 l -4.646625,-1.420616 M 1377.994970,493.171741 l 9.481690,2.898844 M 1375.164336,492.306329 l -21.665032,-6.623665 M 1269.988912,460.150975 l 83.078238,25.399566 M 1268.103630,459.574586 l -169.547282,-51.835806 M 1086.726662,404.122082 l 6.228702,1.904305 M 1079.759893,401.992127 l -10.378892,-3.173146 M 1351.551758,507.046766 l 30.283952,9.258733 M 1338.061021,502.922234 l -62.156896,-19.003270 M 1236.670518,471.924046 l 36.381398,11.122910 M 1235.115312,471.448572 l -201.443471,-61.587450 M 1017.175534,404.817695 l 7.508488,2.295575 M 1364.764436,533.045814 l -36.430783,-11.138008 M 1267.181226,503.211633 l 57.049308,17.441724 M 1207.216833,484.878678 l -157.337132,-48.102789 M 1027.149344,429.826522 l 20.582212,6.292614 M 1019.492882,427.485707 l -5.002439,-1.529399 M 995.222787,420.065594 l 16.408929,5.016713 M 992.383250,419.197460 l -10.705410,-3.272972 M 1340.847812,547.693295 l 2.375308,0.726204 M 1313.034888,539.190031 l -3.283005,-1.003715 M 1274.100475,527.286586 l 33.194044,10.148438 M 1257.102909,522.089909 l -15.794445,-4.828847 M 1054.185738,460.051904 l 99.715641,30.486131 M 1050.942326,459.060294 l -5.410360,-1.654113 M 1020.883706,449.870451 l 9.012107,2.755278 M 1013.881581,447.729687 l -1.629242,-0.498109 M 1001.638752,443.986678 l 2.017359,0.616769 M 997.194578,442.627958 l -2.440443,-0.746118 M 978.876666,437.027610 l 12.413923,3.795317 M 961.189127,431.619987 l -0.789635,-0.241416 M 951.974092,428.802668 l 5.376116,1.643644 M 1315.613715,561.937984 l -3.744703,-1.144871 M 1303.595661,558.263697 l 0.961020,0.293813 M 1297.472289,556.391594 l -50.039921,-15.298739 M 1241.731614,539.349959 l 4.199160,1.283812 M 1233.960728,536.974161 l -5.518129,-1.687061 M 1208.923521,529.319519 l 14.445820,4.416530 M 1204.952795,528.105546 l -2.996942,-0.916257 M 1173.096151,518.365992 l 2.697213,0.824621 M 1137.886110,507.601203 l -109.265980,-33.405962 M 996.989992,464.524936 l 28.561691,8.732185 M 986.032023,461.174749 l -5.955153,-1.820673 M 972.848943,457.144277 l 2.652855,0.811059 M 949.002679,449.853743 l -7.595866,-2.322289 M 929.828407,443.991579 l 6.909483,2.112441 M 1296.627146,578.092735 l -13.785348,-4.214604 M 1224.590334,556.068871 l 4.967823,1.518816 M 1209.441094,551.437284 l -10.779593,-3.295652 M 1182.498583,543.200131 l 14.727111,4.502530 M 1176.490989,541.363425 l -11.859134,-3.625701 M 1140.387121,530.325365 l 5.139866,1.571415 M 1095.843952,516.707152 l -135.814564,-41.522679 M 936.454593,467.976935 l 20.094649,6.143551 M 932.699040,466.828747 l -3.433279,-1.049659 M 912.183738,460.556589 l 12.887774,3.940188 M 1238.448110,582.265145 l -44.236267,-13.524384 M 1184.163090,565.668549 l 6.486020,1.982975 M 1179.279013,564.175337 l -10.394015,-3.177769 M 1147.274698,554.390636 l 16.108880,4.924979 M 1143.265188,553.164805 l -10.035926,-3.068290 M 1116.678924,545.036569 l 8.271414,2.528825 M 1060.353527,527.816167 l -37.141136,-11.355185 M 893.961990,476.945169 l 118.597769,36.258977 M 881.595111,473.164234 l -6.986055,-2.135851 M 1189.221795,589.174677 l 19.305552,5.902300 M 1187.161904,588.544905 l -10.172783,-3.110132 M 1144.161131,575.398250 l 29.939544,9.153437 M 1141.327450,574.531907 l -3.852476,-1.177820 M 1088.122264,558.265449 l 46.222617,14.131672 M 1082.571588,556.568437 l -22.829156,-6.979573 M 1046.569996,545.561645 l 6.322166,1.932880 M 991.302322,528.664622 l -122.513836,-37.456238 M 824.450577,477.652924 l 40.449114,12.366535 M 1179.259375,608.088387 l -46.319692,-14.161351 M 1113.167791,587.882162 l 16.431584,5.023640 M 1109.062620,586.627085 l -64.712697,-19.784657 M 806.690387,494.182616 l 150.165429,45.910179 M 1138.089899,617.461142 l -93.789247,-28.674250 M 1036.052872,586.265292 l 1.535443,0.469432 M 1025.004024,582.887320 l -9.853707,-3.012581 M 809.746786,517.076578 l 113.039906,34.559767 M 1132.931089,637.843462 l -10.834012,-3.312290 M 1010.977682,600.558564 l 110.097530,33.660193 M 925.914502,574.552140 l -108.606594,-33.204368 M 996.156087,617.986674 l 69.058970,21.113446 M 930.423099,597.890083 l -4.229495,-1.293086 M 865.152026,577.934713 l 56.486778,17.269741 M 864.098829,577.612719 l -19.836142,-6.064517 M 824.308830,565.447695 l 16.591784,5.072617 M 1046.305659,655.278464 l -20.445119,-6.250700 M 978.072828,634.417594 l 38.513130,11.774646 M 931.880067,620.295050 l -38.787589,-11.858556 M 832.308996,589.853118 l 53.502718,16.357422 M 1034.518311,673.634237 l -2.365177,-0.723107 M 987.046685,659.120705 l 11.177831,3.417406 M 865.203943,621.869640 l -28.442592,-8.695773"
       id="path8" />
  </g>
  <g
     inkscape:label="fill-4e4e4e"
     inkscape:groupmode="layer"
     id="fill-4e4e4e">
    <path
       style="stroke:#4e4e4e"
       d="M 1502.152205,168.594108 l -3.079569,-0.767823 M 1488.740117,188.954212 l 2.228209,0.555555 M 1474.243359,185.339764 l -2.731382,-0.681010 M 1412.537647,169.954802 l 50.260890,12.531447 M 1499.044300,215.227447 l -27.576087,-6.875491 M 1459.397736,205.342448 l 9.685281,2.414812 M 1455.263603,204.311693 l -42.497935,-10.595925 M 1400.007423,214.238894 l 92.946381,23.174135 M 1484.977626,259.128458 l -94.760430,-23.626429 M 1391.403172,259.501840 l 83.262473,20.759666 M 1467.777782,302.248282 l -67.972919,-16.947552 M 1386.955983,305.801258 l 74.098769,18.474898 M 1461.008400,347.968713 l -7.021865,-1.750748 M 1422.603640,338.393331 l 27.378975,6.826345 M 1419.674269,337.662957 l -3.590460,-0.895202 M 1410.554344,335.389104 l 2.947854,0.734982 M 1404.394043,333.853168 l -9.008531,-2.246079 M 1372.609632,325.928425 l 11.284942,2.813652 M 1364.694191,323.954883 l -25.451022,-6.345652 M 1385.560806,352.861628 l 17.871602,4.455891 M 1369.474448,348.850849 l -3.940880,-0.982572 M 1333.472000,339.874430 l 3.408143,0.849746 M 1311.610827,334.423828 l -34.143046,-8.512818 M 1245.059407,341.534809 l 136.410176,34.010877 M 1239.824101,340.229500 l -29.498784,-7.354873 M 1393.768126,402.316170 l 9.697433,2.417842 M 1382.153908,399.420420 l -5.715152,-1.424947 M 1221.274843,359.308764 l 146.385458,36.497994 M 1215.831357,357.951551 l -39.209474,-9.776020 M 1278.206252,397.207472 l 109.404509,27.277608 M 1276.375755,396.751078 l -101.144382,-25.218127 M 1162.475667,368.352597 l 4.375041,1.090820 M 1154.960976,366.478974 l -5.274030,-1.314963 M 1114.521393,356.396253 l 3.645145,0.908837 M 1417.180754,455.561821 l -8.397783,-2.093802 M 1122.198287,382.014431 l 279.727633,69.743932 M 1117.199976,380.768212 l -9.996798,-2.492482 M 1408.799199,477.176178 l 2.824048,0.704114 M 1402.127872,475.512829 l -326.509027,-81.407844 M 1067.722921,392.136311 l 1.756642,0.437980 M 1407.739569,500.616096 l -12.579240,-3.136357 M 1033.519706,407.312605 l 357.570121,89.152244 M 1030.246620,406.496533 l -17.843271,-4.448827 M 986.424486,395.570448 l 6.423379,1.601528 M 1386.021076,518.905181 l -414.634576,-103.380011 M 1366.937520,537.851229 l 5.871367,1.463896 M 1363.215841,536.923311 l -112.885904,-28.145617 M 1044.038106,457.343364 l 118.461894,29.535867 M 1039.866568,456.303282 l -2.632106,-0.656258 M 1008.869388,448.574817 l 23.677376,5.903433 M 1002.514555,446.990379 l -46.454551,-11.582420 M 944.588362,432.547758 l 8.633173,2.152492 M 1350.364211,557.423153 l -16.535249,-4.122701 M 1209.570147,522.319250 l 121.840976,30.378367 M 1186.028866,516.449750 l -8.545349,-2.130595 M 1155.181687,508.758684 l 6.696223,1.669556 M 1144.748300,506.157349 l -157.234596,-39.202988 M 974.723058,463.765295 l 9.922768,2.474024 M 973.200440,463.385663 l -5.042912,-1.257339 M 962.126666,460.624661 l 0.716568,0.178660 M 958.426918,459.702210 l -47.527131,-11.849845 M 1151.119325,531.449937 l 165.545975,41.275247 M 1147.920855,530.652469 l -12.502614,-3.117252 M 896.279064,467.911124 l 199.440879,49.726196 M 893.368858,467.185528 l -29.738713,-7.414694 M 1112.271475,545.468194 l 176.810143,44.083720 M 1065.506578,533.808395 l -3.542748,-0.883306 M 1044.230521,528.503678 l 12.288804,3.063943 M 1026.308460,524.035207 l -195.430973,-48.726414 M 822.715129,473.273688 l 4.708484,1.173957 M 819.926295,472.578354 l -1.649744,-0.411327 M 1042.488033,551.773341 l 198.753829,49.554895 M 1032.997073,549.406979 l -2.255758,-0.562424 M 805.506848,492.687295 l 165.614974,41.292451 M 1185.637064,611.168516 l -151.914328,-37.876496 M 1004.972555,566.123795 l 3.561914,0.888085 M 939.545330,549.810956 l -130.084911,-32.433811 M 1155.187377,627.280670 l 2.704372,0.674276 M 1146.149205,625.027201 l -136.232917,-33.966681 M 992.767344,586.784808 l 4.530532,1.129588 M 986.387737,585.194193 l -1.312319,-0.327198 M 979.635525,583.510678 l 1.823017,0.454529 M 923.735302,569.573186 l -106.618011,-26.582856 M 992.747485,610.483970 l 119.946655,29.906060 M 938.627624,596.990373 l -113.963136,-28.414201 M 976.545263,630.148415 l 86.352182,21.530017 M 969.982932,628.512243 l -1.975194,-0.492471 M 889.421449,608.426009 l 46.453506,11.582160 M 886.006709,607.574619 l -53.741994,-13.399384 M 1029.852074,667.143410 l 2.687233,0.670002 M 1012.757112,662.881157 l -36.654661,-9.139033 M 948.640935,646.895199 l 5.821618,1.451492 M 846.447152,621.415427 l -8.564242,-2.135305 M 1033.878919,691.851528 l 3.998147,0.996850 M 1022.523281,689.020250 l -15.623008,-3.895253"
       id="path11" />
  </g>
  <g
     inkscape:label="fill-6e6e6e"
     inkscape:groupmode="layer"
     id="fill-6e6e6e">
    <path
       style="stroke:#6e6e6e"
       d="M 1540.052367,161.126536 l -8.046119,-1.710255 M 1504.456910,178.096662 l 12.487049,2.654204 M 1491.917596,175.431349 l -5.913355,-1.256922 M 1410.620204,158.151054 l 38.975579,8.284515 M 1507.272361,203.231279 l -19.331255,-4.108985 M 1470.682920,195.453953 l 12.789279,2.718445 M 1463.633581,193.955570 l -44.830429,-9.529002 M 1399.039410,180.225655 l 17.396746,3.697793 M 1388.427621,177.970050 l -13.853264,-2.944602 M 1408.566000,206.786768 l 88.965701,18.910244 M 1489.538181,248.534111 l -105.891012,-22.507829 M 1385.517146,250.959932 l 95.202421,20.235899 M 1383.021972,250.429566 l -1.954738,-0.415492 M 1372.654488,272.762064 l 98.831005,21.007179 M 1464.082304,316.731820 l -92.139349,-19.584823 M 1386.889621,324.860183 l 74.602672,15.857287 M 1384.151270,324.278129 l -59.147517,-12.572193 M 1445.081690,361.765464 l 18.642986,3.962689 M 1442.845687,361.290187 l -187.601107,-39.875846 M 1450.586372,387.471694 l 9.184207,1.952163 M 1416.942842,380.320541 l -4.462698,-0.948576 M 1196.365507,333.435381 l 204.439770,43.455015 M 1192.029327,332.513698 l -11.350516,-2.412627 M 1169.784067,327.785322 l 7.914035,1.682180 M 1453.270445,412.578386 l -4.172482,-0.886888 M 1160.468381,350.341386 l 265.130302,56.355185 M 1141.307659,346.268649 l -9.381177,-1.994031 M 1435.063042,433.244457 l 7.348374,1.561945 M 1431.549358,432.497601 l -6.630323,-1.409319 M 1417.846874,429.585048 l 4.100474,0.871583 M 1414.212397,428.812516 l -18.290065,-3.887673 M 1162.235564,375.253186 l 233.056608,49.537711 M 1159.705810,374.715471 l -26.720704,-5.679661 M 1125.798049,367.508154 l 5.349511,1.137074 M 1443.133438,459.496047 l -1.284124,-0.272949 M 1433.883306,457.529871 l 2.679006,0.569440 M 1426.180739,455.892640 l -359.055145,-76.319527 M 1431.400189,481.538242 l 1.567615,0.333207 M 1425.690645,480.324641 l -406.012890,-86.300704 M 980.284753,410.186871 l 430.395429,91.483373 M 968.732703,407.731406 l -8.382519,-1.781760 M 936.651142,425.448434 l 457.062055,97.151539 M 1373.614375,542.864011 l -141.334636,-30.041604 M 1216.071647,509.377271 l 9.548267,2.029547 M 1183.732024,502.503271 l -189.519320,-40.283575 M 904.763307,443.206640 l 87.863994,18.676069 M 1348.598727,562.082945 l -208.784792,-44.378577 M 855.641868,457.301730 l 267.684067,56.898005 M 1321.962963,580.957513 l -201.444237,-42.818294 M 807.623597,471.631306 l 260.164560,55.299684 M 804.935552,471.059944 l -3.479264,-0.739540 M 1042.034724,545.993103 l 243.294959,51.713940 M 1038.987922,545.345486 l -7.445685,-1.582629 M 1026.997148,542.796768 l 4.183055,0.889136 M 981.826978,533.195552 l -176.585038,-37.534308 M 1004.240147,562.495792 l 229.810205,48.847667 M 997.753939,561.117106 l -4.806015,-1.021550 M 810.258558,521.263733 l 133.764444,28.432510 M 1186.351986,625.741033 l -180.478348,-38.361857 M 984.225561,582.777735 l 20.832595,4.428105 M 983.296716,582.580303 l -8.496205,-1.805924 M 817.971865,547.439421 l 114.792926,24.399990 M 1135.991554,639.572767 l -153.647750,-32.658837 M 972.925827,604.912077 l 4.182040,0.888920 M 971.135243,604.531476 l -5.433325,-1.154889 M 826.003466,573.682765 l 120.067313,25.521095 M 1077.686651,651.715852 l -114.468894,-24.331115 M 832.983650,599.702623 l 125.387602,26.651958 M 1035.209440,667.223216 l -61.111254,-12.989598 M 946.349649,648.335484 l 7.252425,1.541550 M 1040.476076,692.878848 l -12.770662,-2.714488 M 1003.873865,685.098808 l 21.317132,4.531096 M 1082.722688,726.394817 l -8.694383,-1.848048 M 1132.588176,761.530228 l 4.983938,1.059369 M 1201.865750,825.327980 l -2.720134,-0.578182"
       id="path14" />
  </g>
  <g
     inkscape:label="fill-8f8f8f"
     inkscape:groupmode="layer"
     id="fill-8f8f8f">
    <path
       style="stroke:#8f8f8f"
       d="M 1545.266471,158.132134 l -22.099883,-3.500278 M 1497.038754,150.493614 l 1.784568,0.282648 M 1525.709651,180.346266 l -22.683741,-3.592752 M 1481.507265,173.345296 l 11.892732,1.883624 M 1474.552697,172.243800 l -76.276774,-12.081054 M 1465.289113,196.088221 l 43.102943,6.826836 M 1464.046698,195.891442 l -73.195943,-11.593098 M 1377.762279,182.225332 l 10.884524,1.723939 M 1375.829770,181.919253 l -8.076814,-1.279242 M 1356.208794,178.811596 l 6.917281,1.095590 M 1498.267303,226.623081 l -109.856399,-17.399544 M 1377.027264,207.420546 l 7.334078,1.161604 M 1342.212646,201.906452 l -2.035292,-0.322359 M 1377.685831,232.836480 l 111.811302,17.709170 M 1376.324601,232.620883 l -4.668634,-0.739439 M 1359.979640,230.032095 l 7.453024,1.180443 M 1353.480642,229.002755 l -3.013326,-0.477264 M 1371.433971,257.157911 l 108.292336,17.151821 M 1353.165505,254.264470 l -4.654677,-0.737228 M 1357.910232,280.327590 l 112.740544,17.856348 M 1463.419267,322.350207 l -111.239266,-17.618569 M 1210.315137,307.574079 l 252.896271,40.054834 M 1464.753181,373.184735 l -299.701216,-47.468009 M 1440.847291,394.710042 l 22.145416,3.507489 M 1425.172801,392.227446 l -304.559596,-48.237501 M 1119.286266,369.091407 l 334.143081,52.923065 M 1114.171742,368.281346 l -14.080845,-2.230187 M 1084.542848,363.588590 l 12.598387,1.995389 M 1451.200918,446.973151 l -400.924758,-63.500243 M 976.415372,397.086137 l 464.052802,73.498743 M 1425.690235,493.555913 l -2.954731,-0.467983 M 948.153733,417.921561 l 472.682220,74.865509 M 1402.122973,515.134853 l -500.773055,-79.314660 M 880.357561,432.495330 l 11.801682,1.869203 M 1387.177641,538.079373 l -544.450539,-86.232494 M 1125.203270,521.898337 l 233.676694,37.010752 M 1105.688753,518.807541 l -305.250887,-48.346991 M 1095.238780,542.464056 l 235.569473,37.310539 M 1094.392853,542.330075 l -74.144079,-11.743268 M 804.553736,496.424068 l 206.720281,32.741276 M 1290.827345,598.753870 l -311.995761,-49.415274 M 810.212358,522.631934 l 143.694741,22.759011 M 1239.945970,616.006680 l -262.393693,-41.559078 M 817.967059,549.171786 l 133.488133,21.142443 M 1180.499983,631.902989 l -354.629711,-56.167828 M 833.155430,602.200644 l 269.113724,42.623427 M 1057.410898,663.030849 l -118.076841,-18.701534 M 993.671234,678.247106 l 47.510897,7.524987 M 1070.369352,715.706523 l -31.682373,-5.017995 M 1098.010406,745.396064 l 19.339252,3.063037 M 1094.080590,744.773642 l -15.643580,-2.477700 M 1167.192647,781.665083 l 1.854108,0.293662 M 1156.790050,780.017473 l -5.666382,-0.897467 M 1115.802830,773.525735 l 33.998059,5.384764 M 1101.248835,796.532237 l -4.991417,-0.790563 M 1207.825898,838.724014 l 3.330383,0.527481"
       id="path17" />
  </g>
  <g
     inkscape:label="fill-acacac"
     inkscape:groupmode="layer"
     id="fill-acacac">
    <path
       style="stroke:#acacac"
       d="M 1551.450779,151.370517 l -18.844643,-2.313831 M 1506.685273,172.069259 l 25.769669,3.164117 M 1501.389819,171.419059 l -102.978040,-12.644113 M 1365.443254,180.922176 l 146.785197,18.022956 M 1365.335659,180.908965 l -11.857502,-1.455918 M 1359.073010,206.335263 l 140.292943,17.225807 M 1343.403420,204.411280 l -9.044199,-1.110488 M 1344.842301,230.783208 l 148.187574,18.195146 M 1481.299916,273.733351 l -151.408209,-18.590590 M 1318.302088,253.719735 l 9.231954,1.133541 M 1471.247934,298.694379 l -128.916799,-15.828993 M 1311.516613,279.081839 l 0.860479,0.105654 M 1304.114470,278.172970 l -0.780694,-0.095857 M 1246.285514,297.267722 l 217.509962,26.706865 M 1464.195120,350.218913 l -284.671453,-34.953259 M 1132.626373,335.702645 l 332.880177,40.872546 M 1463.521718,402.526740 l -378.471586,-46.470467 M 1043.784771,377.184779 l 414.546768,50.899943 M 1449.775184,453.229389 l -471.231886,-57.860000 M 937.156789,416.483020 l 500.267955,61.425181 M 1420.568537,502.033775 l -544.615076,-66.870323 M 833.540703,456.151075 l 567.173760,69.640181 M 1376.495196,549.012760 l -575.328058,-70.641403 M 805.156835,505.056486 l 540.696341,66.389163 M 1308.148524,593.011355 l -495.423441,-60.830350 M 820.376061,559.315682 l 436.398998,53.583059 M 1190.461572,630.951725 l -361.879271,-44.433187 M 904.784962,622.070303 l 215.075358,26.407933 M 899.368908,621.405295 l -64.339886,-7.899945 M 969.025044,656.153249 l 80.153679,9.841634 M 1042.089098,691.319642 l -43.638314,-5.358111 M 1040.075764,717.267691 l 39.851765,4.893181 M 1128.585084,754.330525 l -44.242577,-5.432305 M 1109.977521,778.241059 l 69.460963,8.528734 M 1202.685184,815.819384 l -10.229441,-1.256017 M 1088.449323,801.792984 l 5.271147,0.647215 M 1085.418553,801.420852 l -6.324391,-0.776538 M 1204.327926,842.216343 l 8.685844,1.066488"
       id="path20" />
  </g>
  <g
     inkscape:label="fill-cecece"
     inkscape:groupmode="layer"
     id="fill-cecece">
    <path
       style="stroke:#cecece"
       d="M 1560.589067,137.792597 l -22.010530,-1.539126 M 1462.238155,158.983604 l 80.545442,5.632286 M 1435.825285,157.136636 l -30.811057,-2.154519 M 1351.651487,179.319004 l 168.858386,11.807729 M 1501.613051,217.873711 l -175.504111,-12.272443 M 1293.155962,231.365345 l 201.911459,14.119025 M 1484.240826,272.795673 l -214.975456,-15.032548 M 1247.231120,284.290713 l 224.611649,15.706377 M 1464.309534,327.538688 l -271.254937,-18.967993 M 1134.716432,332.559666 l 331.188826,23.158979 M 1466.772798,383.847682 l -386.712793,-27.041593 M 1029.342067,381.327919 l 434.196848,30.362001 M 1456.286913,439.251184 l -497.869500,-34.814427 M 884.881044,427.362966 l 560.060317,39.163232 M 1429.049495,493.483304 l -590.637223,-41.301378 M 799.729285,477.545322 l 607.701187,42.494607 M 1381.459558,546.292238 l -576.970485,-40.345707 M 812.610720,534.582826 l 534.917228,37.405056 M 1303.296265,596.963275 l -482.652925,-33.750380 M 829.118221,591.873889 l 405.929840,28.385380 M 1154.136416,642.669748 l -249.347291,-17.436061 M 835.133573,620.362896 l 41.086409,2.873042 M 1060.900206,664.218410 l -93.373447,-6.529308 M 996.976470,687.816801 l 52.230550,3.652316 M 1086.788586,722.165449 l -46.892158,-3.279019 M 1083.564471,750.008370 l 45.878080,3.208108 M 1179.079798,784.755825 l -72.616762,-5.077859 M 1190.249858,813.605285 l 16.582792,1.159582 M 1090.132610,806.604405 l -17.894993,-1.251340 M 1202.753747,842.548015 l 11.400205,0.797180"
       id="path23" />
  </g>
</svg>
