<?xml version="1.0" encoding="UTF-8" standalone="no"?>
<!-- Created with Inkscape (http://www.inkscape.org/) -->

<svg
   xmlns:dc="http://purl.org/dc/elements/1.1/"
   xmlns:cc="http://creativecommons.org/ns#"
   xmlns:rdf="http://www.w3.org/1999/02/22-rdf-syntax-ns#"
   xmlns:svg="http://www.w3.org/2000/svg"
   xmlns="http://www.w3.org/2000/svg"
   xmlns:sodipodi="http://sodipodi.sourceforge.net/DTD/sodipodi-0.dtd"
   xmlns:inkscape="http://www.inkscape.org/namespaces/inkscape"
   id="svg2"
   version="1.1"
   inkscape:version="0.48.3.1 r9886"
   width="1500"
   height="1911"
   sodipodi:docname="hantologie-_0000_arbre-01_hatched_1398270623.svg">
  <defs
     id="defs27" />
  <sodipodi:namedview
     pagecolor="#ffffff"
     bordercolor="#666666"
     borderopacity="1"
     objecttolerance="10"
     gridtolerance="10"
     guidetolerance="10"
     inkscape:pageopacity="0"
     inkscape:pageshadow="2"
     inkscape:window-width="640"
     inkscape:window-height="480"
     id="namedview25" />
  <metadata
     id="metadata8">
    <rdf:RDF>
      <cc:Work
         rdf:about="">
        <dc:format>image/svg+xml </dc:format>
        <dc:type
           rdf:resource="http://purl.org/dc/dcmitype/StillImage" />
        <dc:title />
      </cc:Work>
    </rdf:RDF>
  </metadata>
  <g
     inkscape:label="fill-040404"
     inkscape:groupmode="layer"
     id="fill-040404">
    <path
       style="stroke:#040404"
       d="M 404.079065,829.245040 l 0.000000,2.022836 M 409.079065,836.474393 l 0.000000,-2.706845 M 414.079065,1174.226583 l 0.000000,2.318990 M 419.079065,835.876534 l 0.000000,-7.665447 M 419.079065,1174.481553 l 0.000000,8.529321 M 424.079065,842.758878 l 0.000000,-8.231561 M 424.079065,1178.141465 l 0.000000,8.801521 M 429.079065,848.886314 l 0.000000,-7.590009 M 429.079065,1104.017305 l 0.000000,3.695763 M 429.079065,1133.767848 l 0.000000,-9.534638 M 434.079065,848.177574 l 0.000000,7.032191 M 434.079065,1153.772135 l 0.000000,-21.656259 M 439.079065,855.058843 l 0.000000,7.024645 M 439.079065,1168.847493 l 0.000000,-29.035371 M 444.079065,861.940112 l 0.000000,7.196290 M 444.079065,1150.634597 l 0.000000,-10.534091 M 444.079065,1164.154718 l 0.000000,11.803209 M 449.079065,876.258593 l 0.000000,-7.069841 M 449.079065,1144.759242 l 0.000000,18.878198 M 454.079065,883.059569 l 0.000000,-6.557047 M 454.079065,1150.684638 l 0.000000,7.921752 M 459.079065,889.330477 l 0.000000,-5.514185 M 464.079065,891.130061 l 0.000000,4.558722 M 464.079065,937.560999 l 0.000000,-3.387310 M 464.079065,1196.495568 l 0.000000,1.458760 M 469.079065,903.903502 l 0.000000,-4.864768 M 469.079065,940.154960 l 0.000000,3.228740 M 469.079065,1202.124040 l 0.000000,-2.426087 M 474.079065,928.328362 l 0.000000,3.108144 M 479.079065,936.412604 l 0.000000,-9.206571 M 479.079065,1105.232972 l 0.000000,5.540799 M 484.079065,943.604372 l 0.000000,-6.872603 M 484.079065,977.604161 l 0.000000,5.441643 M 489.079065,937.695715 l 0.000000,-1.864194 M 489.079065,948.241167 l 0.000000,4.939884 M 489.079065,985.099543 l 0.000000,-13.393731 M 494.079065,943.554998 l 0.000000,5.670684 M 494.079065,971.088775 l 0.000000,-10.995736 M 494.079065,976.915085 l 0.000000,13.726930 M 499.079065,960.806233 l 0.000000,-8.379423 M 499.079065,970.335427 l 0.000000,5.613557 M 499.079065,1004.564191 l 0.000000,-17.818194 M 504.079065,932.476803 l 0.000000,7.471930 M 504.079065,973.146997 l 0.000000,-10.723195 M 504.079065,980.577816 l 0.000000,6.199561 M 504.079065,1010.684632 l 0.000000,-12.657866 M 509.079065,938.562720 l 0.000000,13.851647 M 509.079065,959.400976 l 0.000000,-1.285567 M 509.079065,975.097362 l 0.000000,11.703623 M 509.079065,998.954445 l 0.000000,-7.494948 M 509.079065,1009.058053 l 0.000000,7.740668 M 514.079065,962.870121 l 0.000000,-17.896443 M 514.079065,964.367521 l 0.000000,9.921009 M 514.079065,997.412097 l 0.000000,-10.881899 M 514.079065,1002.470273 l 0.000000,9.998236 M 519.079065,985.793949 l 0.000000,-34.034749 M 519.079065,995.917400 l 0.000000,11.233585 M 519.079065,1023.137928 l 0.000000,-10.694453 M 524.079065,959.121668 l 0.000000,37.193960 M 524.079065,1017.085436 l 0.000000,-10.786075 M 524.079065,1020.511445 l 0.000000,16.352733 M 529.079065,1007.860874 l 0.000000,-41.175293 M 529.079065,1011.414340 l 0.000000,31.833441 M 534.079065,1052.238738 l 0.000000,-77.831694 M 539.079065,982.636415 l 0.000000,79.264968 M 544.079065,1071.728235 l 0.000000,-79.407700 M 544.079065,1144.814139 l 0.000000,1.186243 M 549.079065,1038.178635 l 0.000000,-37.298411 M 549.079065,1045.469906 l 0.000000,36.996911 M 554.079065,1029.884734 l 0.000000,-20.716956 M 554.079065,1055.905685 l 0.000000,39.349693 M 554.079065,1105.402787 l 0.000000,-5.607858 M 559.079065,1017.264453 l 0.000000,16.757809 M 559.079065,1095.726182 l 0.000000,-36.599816 M 559.079065,1117.125106 l 0.000000,4.204074 M 564.079065,1037.999563 l 0.000000,-14.031394 M 564.079065,1051.554723 l 0.000000,40.963085 M 564.079065,1123.121464 l 0.000000,-1.677268 M 564.079065,1128.543592 l 0.000000,11.273346 M 569.079065,1094.897810 l 0.000000,-65.153041 M 569.079065,1136.546505 l 0.000000,8.266861 M 574.079065,986.108096 l 0.000000,-1.912152 M 574.079065,1035.120947 l 0.000000,78.546136 M 579.079065,993.512868 l 0.000000,-6.156922 M 579.079065,1039.558486 l 0.000000,85.449241 M 584.079065,1000.703498 l 0.000000,-9.819105 M 584.079065,1015.778420 l 0.000000,2.420372 M 584.079065,1135.809478 l 0.000000,-106.090711 M 589.079065,993.883342 l 0.000000,153.761270 M 594.079065,1157.188291 l 0.000000,-158.635844 M 599.079065,1005.593207 l 0.000000,11.196608 M 599.079065,1164.683965 l 0.000000,-147.235071 M 604.079065,1011.559828 l 0.000000,7.302943 M 604.079065,1099.275903 l 0.000000,-74.910722 M 604.079065,1102.891791 l 0.000000,66.774588 M 609.079065,1022.689220 l 0.000000,-4.520809 M 609.079065,1027.943766 l 0.000000,69.554853 M 609.079065,1173.576941 l 0.000000,-71.983658 M 614.079065,1032.622253 l 0.000000,64.514583 M 614.079065,1180.051784 l 0.000000,-80.663903 M 614.079065,1197.379640 l 0.000000,0.306934 M 619.079065,1028.725359 l 0.000000,-3.975610 M 619.079065,1037.772285 l 0.000000,150.164306 M 619.079065,1203.904625 l 0.000000,-3.060017 M 624.079065,1027.131893 l 0.000000,11.076070 M 624.079065,1195.441159 l 0.000000,-152.518843 M 624.079065,1244.377574 l 0.000000,2.727561 M 629.079065,1042.721823 l 0.000000,-13.398616 M 629.079065,1048.184647 l 0.000000,143.364617 M 629.079065,1248.393219 l 0.000000,-4.034220 M 634.079065,1033.204244 l 0.000000,13.261332 M 634.079065,1183.194143 l 0.000000,-129.452669 M 634.079065,1244.385379 l 0.000000,4.945675 M 639.079065,1038.951127 l 0.000000,-1.476330 M 639.079065,1059.298300 l 0.000000,125.429933 M 639.079065,1249.994480 l 0.000000,-6.724609 M 644.079065,1042.343964 l 0.000000,5.292838 M 644.079065,1185.077397 l 0.000000,-119.862774 M 644.079065,1233.581655 l 0.000000,16.932882 M 649.079065,1171.938719 l 0.000000,-98.786181 M 649.079065,1172.084957 l 0.000000,12.627115 M 649.079065,1232.869820 l 0.000000,-4.766076 M 649.079065,1234.378007 l 0.000000,16.447523 M 654.079065,1153.447363 l 0.000000,-73.404128 M 654.079065,1164.830389 l 0.000000,3.393160 M 654.079065,1185.409032 l 0.000000,-4.117468 M 654.079065,1224.594552 l 0.000000,25.483613 M 659.079065,1055.659780 l 0.000000,-3.315278 M 659.079065,1092.139948 l 0.000000,26.192712 M 659.079065,1156.991214 l 0.000000,-26.799686 M 659.079065,1222.498367 l 0.000000,25.844609 M 664.079065,1065.303847 l 0.000000,-8.868935 M 664.079065,1078.546085 l 0.000000,1.849560 M 664.079065,1120.591906 l 0.000000,-18.258068 M 664.079065,1143.168701 l 0.000000,7.485942 M 664.079065,1157.888690 l 0.000000,-0.333238 M 664.079065,1219.826815 l 0.000000,32.303607 M 669.079065,1072.695964 l 0.000000,-11.463559 M 669.079065,1098.789496 l 0.000000,22.628000 M 669.079065,1253.462763 l 0.000000,-43.543518 M 674.079065,1065.956560 l 0.000000,12.308490 M 674.079065,1115.405346 l 0.000000,-25.801786 M 674.079065,1206.641600 l 0.000000,47.569266 M 679.079065,1083.759347 l 0.000000,-13.112854 M 679.079065,1089.869629 l 0.000000,30.059181 M 679.079065,1254.763733 l 0.000000,-57.545136 M 684.079065,1074.749739 l 0.000000,51.743833 M 684.079065,1137.765289 l 0.000000,-3.308185 M 684.079065,1191.216327 l 0.000000,64.121731 M 689.079065,1140.100402 l 0.000000,-61.441565 M 689.079065,1143.189018 l 0.000000,5.727740 M 689.079065,1255.930937 l 0.000000,-102.684767 M 694.079065,1083.960499 l 0.000000,172.819405 M 699.079065,1188.567040 l 0.000000,-100.053627 M 699.079065,1190.691016 l 0.000000,67.296323 M 704.079065,1132.909986 l 0.000000,-40.502565 M 704.079065,1135.799110 l 0.000000,48.058493 M 704.079065,1258.955294 l 0.000000,-59.775925 M 709.079065,1097.059613 l 0.000000,26.495189 M 709.079065,1158.541521 l 0.000000,-25.317709 M 709.079065,1171.243805 l 0.000000,10.744875 M 709.079065,1259.823110 l 0.000000,-58.125413 M 714.079065,1104.515894 l 0.000000,53.148304 M 714.079065,1179.942020 l 0.000000,-3.279870 M 714.079065,1202.866033 l 0.000000,57.909417 M 719.079065,1159.817759 l 0.000000,-23.107911 M 719.079065,1203.065866 l 0.000000,59.000205 M 724.079065,1162.444223 l 0.000000,-34.643503 M 724.079065,1202.957979 l 0.000000,61.388400 M 729.079065,1165.612807 l 0.000000,-30.847256 M 729.079065,1202.763660 l 0.000000,64.593875 M 734.079065,1169.388675 l 0.000000,-29.542865 M 734.079065,1202.368800 l 0.000000,67.131762 M 739.079065,1172.749389 l 0.000000,-23.642910 M 739.079065,1201.771012 l 0.000000,69.480753 M 744.079065,1175.050528 l 0.000000,-20.086202 M 744.079065,1200.381570 l 0.000000,72.268884 M 749.079065,1177.516927 l 0.000000,-19.309567 M 749.079065,1197.441383 l 0.000000,76.607759 M 754.079065,1180.817369 l 0.000000,-20.063852 M 754.079065,1191.247072 l 0.000000,83.844239 M 759.079065,1275.412740 l 0.000000,-112.076197 M 764.079065,1166.168239 l 0.000000,31.536982 M 764.079065,1207.761893 l 0.000000,-4.308715 M 764.079065,1211.448140 l 0.000000,63.856172 M 769.079065,1201.353487 l 0.000000,-31.704525 M 769.079065,1203.994182 l 0.000000,7.416832 M 769.079065,1275.031920 l 0.000000,-62.454844 M 774.079065,1172.171114 l 0.000000,30.344040 M 774.079065,1274.759528 l 0.000000,-66.089396 M 779.079065,1175.226326 l 0.000000,28.224666 M 779.079065,1217.647218 l 0.000000,-7.996953 M 779.079065,1220.932288 l 0.000000,53.377136 M 784.079065,1206.282702 l 0.000000,-27.913321 M 784.079065,1215.097115 l 0.000000,10.810507 M 784.079065,1272.547173 l 0.000000,-46.440509 M 789.079065,1181.670847 l 0.000000,29.018237 M 789.079065,1270.921328 l 0.000000,-42.956829 M 794.079065,1185.313559 l 0.000000,84.301375 M 799.079065,1267.565737 l 0.000000,-78.812508 M 804.079065,1191.398757 l 0.000000,74.117782 M 809.079065,1263.022774 l 0.000000,-64.020579 M 814.079065,1201.535177 l 0.000000,58.841012 M 819.079065,1258.151950 l 0.000000,-51.213821 M 824.079065,1213.736370 l 0.000000,29.577262 M 824.079065,1254.233654 l 0.000000,-5.042706 M 829.079065,1219.743553 l 0.000000,23.337171 M 829.079065,1254.389657 l 0.000000,-6.009103 M 834.079065,1231.201541 l 0.000000,9.879842 M 834.079065,1253.121531 l 0.000000,-1.961749"
       id="path5" />
  </g>
  <g
     inkscape:label="fill-2f2f2f"
     inkscape:groupmode="layer"
     id="fill-2f2f2f">
    <path
       style="stroke:#2f2f2f"
       d="M 326.305093,757.073075 l 0.000000,3.954270 M 333.305093,767.378555 l 0.000000,-4.719428 M 347.305093,779.760420 l 0.000000,3.222777 M 354.305093,789.100799 l 0.000000,-3.933939 M 361.305093,790.995244 l 0.000000,4.108211 M 382.305093,1186.148402 l 0.000000,-1.332577 M 389.305093,814.968668 l 0.000000,5.851589 M 389.305093,1188.531993 l 0.000000,-5.100646 M 396.305093,821.261340 l 0.000000,5.353135 M 396.305093,1186.907954 l 0.000000,-5.663666 M 403.305093,827.207979 l 0.000000,5.676865 M 403.305093,849.628925 l 0.000000,-3.186266 M 410.305093,833.207414 l 0.000000,6.857514 M 410.305093,851.765051 l 0.000000,-1.657515 M 410.305093,1167.622850 l 0.000000,2.580946 M 410.305093,1177.953680 l 0.000000,-3.431460 M 417.305093,825.145019 l 0.000000,8.809385 M 417.305093,1167.444638 l 0.000000,-0.939607 M 417.305093,1172.651330 l 0.000000,11.232076 M 424.305093,845.347111 l 0.000000,-11.849444 M 424.305093,1086.428115 l 0.000000,4.245745 M 424.305093,1117.055540 l 0.000000,-14.016401 M 424.305093,1166.385498 l 0.000000,2.351070 M 424.305093,1188.060499 l 0.000000,-11.900893 M 431.305093,842.726128 l 0.000000,11.316262 M 431.305093,1104.973981 l 0.000000,-9.795510 M 431.305093,1117.479293 l 0.000000,29.340458 M 438.305093,863.704403 l 0.000000,-11.442002 M 438.305093,1131.547468 l 0.000000,41.673942 M 445.305093,874.349629 l 0.000000,-12.345708 M 445.305093,879.190360 l 0.000000,1.638251 M 445.305093,1185.159875 l 0.000000,-46.109647 M 452.305093,872.092603 l 0.000000,11.300307 M 452.305093,900.195065 l 0.000000,-2.417022 M 452.305093,1145.822390 l 0.000000,23.327100 M 452.305093,1197.567712 l 0.000000,-1.346413 M 459.305093,882.286792 l 0.000000,10.369596 M 459.305093,1105.970154 l 0.000000,-8.142597 M 459.305093,1196.125857 l 0.000000,3.413933 M 466.305093,904.975869 l 0.000000,-11.596184 M 466.305093,920.488619 l 0.000000,6.372553 M 466.305093,942.269995 l 0.000000,-7.729700 M 466.305093,1063.897045 l 0.000000,2.989961 M 466.305093,1094.174393 l 0.000000,-6.884277 M 466.305093,1196.164224 l 0.000000,6.198075 M 473.305093,918.126522 l 0.000000,-13.094843 M 473.305093,922.689790 l 0.000000,17.660678 M 473.305093,948.510201 l 0.000000,-4.324945 M 473.305093,1097.227769 l 0.000000,8.213953 M 473.305093,1149.563731 l 0.000000,-5.269163 M 473.305093,1158.128167 l 0.000000,1.564474 M 473.305093,1209.072486 l 0.000000,-7.330176 M 480.305093,891.282544 l 0.000000,1.657645 M 480.305093,943.733573 l 0.000000,-26.589651 M 480.305093,977.041173 l 0.000000,9.655405 M 480.305093,1114.349205 l 0.000000,-9.815313 M 480.305093,1152.993330 l 0.000000,9.917242 M 487.305093,939.443997 l 0.000000,-10.757587 M 487.305093,940.179767 l 0.000000,13.500230 M 487.305093,988.764439 l 0.000000,-27.752694 M 487.305093,1115.903042 l 0.000000,1.418300 M 487.305093,1124.882552 l 0.000000,-2.944013 M 487.305093,1165.068422 l 0.000000,3.815430 M 494.305093,922.007941 l 0.000000,-3.007926 M 494.305093,933.541841 l 0.000000,19.853318 M 494.305093,972.433053 l 0.000000,-15.303619 M 494.305093,974.877048 l 0.000000,30.617246 M 501.305093,940.833685 l 0.000000,-13.276107 M 501.305093,942.897651 l 0.000000,4.412142 M 501.305093,984.009925 l 0.000000,-30.228962 M 501.305093,986.940890 l 0.000000,28.661228 M 508.305093,961.537325 l 0.000000,-25.827265 M 508.305093,965.349244 l 0.000000,54.475358 M 508.305093,1073.472851 l 0.000000,-2.718535 M 508.305093,1094.236187 l 0.000000,1.549846 M 515.305093,981.108508 l 0.000000,-36.548929 M 515.305093,987.140375 l 0.000000,40.577673 M 522.305093,936.393953 l 0.000000,-1.735896 M 522.305093,954.263525 l 0.000000,40.114471 M 522.305093,1039.287341 l 0.000000,-40.296826 M 522.305093,1085.190719 l 0.000000,0.668430 M 529.305093,944.561383 l 0.000000,-3.211062 M 529.305093,965.207824 l 0.000000,84.055215 M 536.305093,952.876891 l 0.000000,-3.280288 M 536.305093,975.054902 l 0.000000,86.247385 M 543.305093,961.085203 l 0.000000,-2.499444 M 543.305093,987.498903 l 0.000000,86.071813 M 543.305093,1147.190907 l 0.000000,-5.018596 M 550.305093,953.779211 l 0.000000,3.586366 M 550.305093,1039.896999 l 0.000000,-40.265984 M 550.305093,1046.286841 l 0.000000,55.803602 M 557.305093,966.646838 l 0.000000,-7.202350 M 557.305093,976.897301 l 0.000000,1.432699 M 557.305093,1035.094856 l 0.000000,-23.541465 M 557.305093,1056.827931 l 0.000000,41.227626 M 557.305093,1131.470442 l 0.000000,-28.906564 M 564.305093,985.755907 l 0.000000,3.283647 M 564.305093,1039.745216 l 0.000000,-18.381088 M 564.305093,1049.924470 l 0.000000,44.444513 M 564.305093,1147.838486 l 0.000000,-30.407143 M 564.305093,1153.065043 l 0.000000,8.622571 M 571.305093,982.946182 l 0.000000,-4.733507 M 571.305093,995.968824 l 0.000000,1.869371 M 571.305093,1106.980339 l 0.000000,-76.805548 M 571.305093,1134.671002 l 0.000000,14.566480 M 571.305093,1176.988378 l 0.000000,-12.730468 M 578.305093,981.016095 l 0.000000,12.896141 M 578.305093,1010.358887 l 0.000000,-3.195816 M 578.305093,1020.322030 l 0.000000,2.383568 M 578.305093,1125.521894 l 0.000000,-89.600328 M 578.305093,1178.547875 l 0.000000,7.869725 M 585.305093,1004.018044 l 0.000000,-18.027297 M 585.305093,1011.046613 l 0.000000,12.426873 M 585.305093,1141.190696 l 0.000000,-112.572728 M 585.305093,1155.952082 l 0.000000,3.424269 M 585.305093,1198.314589 l 0.000000,-10.651356 M 592.305093,993.047204 l 0.000000,162.806470 M 592.305093,1206.998187 l 0.000000,-11.138467 M 599.305093,1003.140442 l 0.000000,163.086343 M 606.305093,1172.546083 l 0.000000,-161.023420 M 606.305093,1213.442149 l 0.000000,4.305546 M 613.305093,1180.973933 l 0.000000,-159.738770 M 613.305093,1193.609748 l 0.000000,5.156363 M 620.305093,1191.425039 l 0.000000,-168.424307 M 620.305093,1201.197955 l 0.000000,4.821255 M 620.305093,1246.449901 l 0.000000,-2.786132 M 627.305093,1027.398114 l 0.000000,172.058218 M 627.305093,1248.622673 l 0.000000,-6.090128 M 634.305093,1032.375151 l 0.000000,15.952660 M 634.305093,1185.522807 l 0.000000,-134.829937 M 634.305093,1240.400313 l 0.000000,9.651427 M 641.305093,1044.436482 l 0.000000,-6.685489 M 641.305093,1057.710654 l 0.000000,129.361749 M 641.305093,1197.172148 l 0.000000,-1.271665 M 641.305093,1232.095658 l 0.000000,18.878060 M 648.305093,1054.495959 l 0.000000,-11.387605 M 648.305093,1068.156772 l 0.000000,120.252261 M 648.305093,1251.856415 l 0.000000,-26.017424 M 655.305093,1048.016414 l 0.000000,3.459820 M 655.305093,1061.473123 l 0.000000,-1.558513 M 655.305093,1079.247052 l 0.000000,82.675465 M 655.305093,1169.954016 l 0.000000,-6.836519 M 655.305093,1175.964970 l 0.000000,9.638840 M 655.305093,1252.782735 l 0.000000,-30.222851 M 662.305093,1052.925511 l 0.000000,13.093985 M 662.305093,1080.613946 l 0.000000,-4.202602 M 662.305093,1093.964158 l 0.000000,2.076286 M 662.305093,1120.438172 l 0.000000,-21.585016 M 662.305093,1132.359648 l 0.000000,2.493509 M 662.305093,1160.050089 l 0.000000,-21.773861 M 662.305093,1219.346771 l 0.000000,34.665343 M 669.305093,1074.891065 l 0.000000,-16.592267 M 669.305093,1081.036714 l 0.000000,0.740214 M 669.305093,1088.243247 l 0.000000,-0.564044 M 669.305093,1095.242407 l 0.000000,28.589972 M 669.305093,1126.098404 l 0.000000,-1.836798 M 669.305093,1147.394063 l 0.000000,1.208333 M 669.305093,1255.238762 l 0.000000,-46.936273 M 676.305093,1064.418405 l 0.000000,17.763377 M 676.305093,1119.593309 l 0.000000,-31.775194 M 676.305093,1201.139672 l 0.000000,1.022702 M 676.305093,1256.462736 l 0.000000,-53.374770 M 683.305093,1071.617874 l 0.000000,55.761140 M 683.305093,1138.832833 l 0.000000,-5.540077 M 683.305093,1140.000000 l 0.000000,5.946667 M 683.305093,1257.261029 l 0.000000,-66.227341 M 690.305093,1076.371760 l 0.000000,181.598470 M 697.305093,1258.922260 l 0.000000,-175.082751 M 704.305093,1090.693899 l 0.000000,93.865648 M 704.305093,1260.391582 l 0.000000,-61.944844 M 711.305093,1097.650747 l 0.000000,60.409402 M 711.305093,1181.743884 l 0.000000,-9.250642 M 711.305093,1201.847453 l 0.000000,59.756120 M 718.305093,1160.453050 l 0.000000,-40.390669 M 718.305093,1202.748621 l 0.000000,60.282334 M 725.305093,1164.243320 l 0.000000,-37.380748 M 725.305093,1202.337357 l 0.000000,64.266387 M 732.305093,1168.994002 l 0.000000,-34.641927 M 732.305093,1201.701540 l 0.000000,68.432791 M 739.305093,1173.675976 l 0.000000,-27.623480 M 739.305093,1200.903837 l 0.000000,71.195006 M 746.305093,1177.210817 l 0.000000,-21.922004 M 746.305093,1197.707119 l 0.000000,76.619778 M 753.305093,1181.184702 l 0.000000,-22.004599 M 753.305093,1190.895892 l 0.000000,85.372075 M 760.305093,1276.581822 l 0.000000,-113.771531 M 767.305093,1166.837388 l 0.000000,35.206872 M 767.305093,1276.439591 l 0.000000,-72.973847 M 774.305093,1171.210914 l 0.000000,33.392754 M 774.305093,1276.029665 l 0.000000,-70.455595 M 781.305093,1175.586210 l 0.000000,29.758258 M 781.305093,1275.379487 l 0.000000,-65.762232 M 788.305093,1179.952677 l 0.000000,34.962187 M 788.305093,1225.223241 l 0.000000,-5.445225 M 788.305093,1226.776759 l 0.000000,46.525446 M 795.305093,1270.793694 l 0.000000,-86.684940 M 802.305093,1188.079888 l 0.000000,79.465528 M 809.305093,1264.201840 l 0.000000,-68.556934 M 816.305093,1201.856444 l 0.000000,59.079574 M 823.305093,1255.658953 l 0.000000,-43.684565 M 830.305093,1220.068291 l 0.000000,35.688818 M 837.305093,1242.326739 l 0.000000,-5.176300 M 844.305093,1241.426347 l 0.000000,2.493912"
       id="path8" />
  </g>
  <g
     inkscape:label="fill-505050"
     inkscape:groupmode="layer"
     id="fill-505050">
    <path
       style="stroke:#505050"
       d="M 317.292136,752.884790 l 0.000000,2.333181 M 317.292136,762.158821 l 0.000000,-3.373801 M 326.292136,756.409269 l 0.000000,6.628539 M 326.292136,769.617112 l 0.000000,-2.975168 M 335.292136,763.129260 l 0.000000,9.134361 M 344.292136,783.166740 l 0.000000,-6.930013 M 353.292136,783.098027 l 0.000000,6.615726 M 362.292136,798.903860 l 0.000000,-8.801892 M 371.292136,817.859896 l 0.000000,0.415599 M 371.292136,1192.040355 l 0.000000,-3.038699 M 380.292136,805.266653 l 0.000000,9.980811 M 380.292136,822.967030 l 0.000000,-0.715863 M 380.292136,1184.096520 l 0.000000,2.950998 M 389.292136,827.221532 l 0.000000,-13.820472 M 389.292136,833.787759 l 0.000000,2.731589 M 389.292136,1189.036944 l 0.000000,-6.952166 M 398.292136,821.666600 l 0.000000,7.872097 M 398.292136,834.125147 l 0.000000,-2.835249 M 398.292136,837.759420 l 0.000000,2.701141 M 398.292136,848.283328 l 0.000000,-5.347006 M 398.292136,1180.594294 l 0.000000,6.345837 M 407.292136,844.288907 l 0.000000,-14.569412 M 407.292136,847.109687 l 0.000000,11.883729 M 407.292136,1184.600723 l 0.000000,-11.593237 M 416.292136,823.444991 l 0.000000,8.625183 M 416.292136,854.260674 l 0.000000,-19.255857 M 416.292136,857.900467 l 0.000000,4.622080 M 416.292136,1169.290455 l 0.000000,-3.706059 M 416.292136,1171.302208 l 0.000000,13.061701 M 425.292136,860.943176 l 0.000000,-27.356724 M 425.292136,874.137916 l 0.000000,1.610073 M 425.292136,1124.198475 l 0.000000,-40.008094 M 425.292136,1166.384949 l 0.000000,22.214416 M 434.292136,863.119503 l 0.000000,-17.524622 M 434.292136,867.750463 l 0.000000,1.953841 M 434.292136,1161.393817 l 0.000000,-42.304373 M 443.292136,858.388869 l 0.000000,15.729706 M 443.292136,880.570973 l 0.000000,-5.818959 M 443.292136,893.433197 l 0.000000,3.233878 M 443.292136,1006.381898 l 0.000000,-2.366760 M 443.292136,1135.481844 l 0.000000,49.637016 M 452.292136,891.042089 l 0.000000,-19.749616 M 452.292136,896.560359 l 0.000000,7.862296 M 452.292136,976.844811 l 0.000000,-0.761283 M 452.292136,982.034043 l 0.000000,21.285698 M 452.292136,1105.384529 l 0.000000,-7.090363 M 452.292136,1145.000426 l 0.000000,27.443535 M 452.292136,1182.818569 l 0.000000,-6.151617 M 452.292136,1194.425708 l 0.000000,3.362801 M 461.292136,906.682224 l 0.000000,-22.175223 M 461.292136,911.596831 l 0.000000,3.178509 M 461.292136,938.780724 l 0.000000,-10.903309 M 461.292136,979.597573 l 0.000000,2.220926 M 461.292136,996.078534 l 0.000000,-10.888393 M 461.292136,1050.016089 l 0.000000,12.221383 M 461.292136,1108.751269 l 0.000000,-9.936834 M 461.292136,1194.884671 l 0.000000,6.065508 M 470.292136,947.051474 l 0.000000,-48.725464 M 470.292136,984.448956 l 0.000000,7.132330 M 470.292136,1103.144954 l 0.000000,-11.488346 M 470.292136,1140.905993 l 0.000000,5.577065 M 470.292136,1206.727157 l 0.000000,-16.971411 M 479.292136,888.375070 l 0.000000,4.908908 M 479.292136,946.110968 l 0.000000,-32.514086 M 479.292136,947.541235 l 0.000000,3.871159 M 479.292136,992.372818 l 0.000000,-16.624993 M 479.292136,1005.180616 l 0.000000,5.321016 M 479.292136,1115.298004 l 0.000000,-14.824022 M 479.292136,1141.934310 l 0.000000,0.766137 M 479.292136,1164.581970 l 0.000000,-17.066079 M 479.292136,1240.908857 l 0.000000,20.972456 M 488.292136,991.889446 l 0.000000,-64.108426 M 488.292136,1114.285233 l 0.000000,13.464581 M 488.292136,1170.803494 l 0.000000,-7.021779 M 497.292136,910.648465 l 0.000000,4.956519 M 497.292136,975.711516 l 0.000000,-53.705619 M 497.292136,979.170669 l 0.000000,34.313914 M 506.292136,919.682426 l 0.000000,-0.447657 M 506.292136,932.067424 l 0.000000,88.546175 M 506.292136,1073.266617 l 0.000000,-7.098953 M 506.292136,1090.949324 l 0.000000,0.162827 M 506.292136,1138.327233 l 0.000000,-7.764523 M 506.292136,1175.416965 l 0.000000,2.615229 M 515.292136,930.357046 l 0.000000,-4.227065 M 515.292136,943.202588 l 0.000000,39.547239 M 515.292136,1030.503026 l 0.000000,-45.111046 M 515.292136,1078.311045 l 0.000000,4.671178 M 515.292136,1107.174374 l 0.000000,-6.252829 M 515.292136,1139.554101 l 0.000000,6.807437 M 524.292136,940.507094 l 0.000000,-5.234582 M 524.292136,955.992696 l 0.000000,88.539073 M 524.292136,1073.828231 l 0.000000,-2.829851 M 524.292136,1085.812667 l 0.000000,2.537099 M 524.292136,1187.764617 l 0.000000,-4.330669 M 533.292136,945.140982 l 0.000000,5.589450 M 533.292136,1059.489634 l 0.000000,-89.701919 M 533.292136,1124.183370 l 0.000000,5.601452 M 542.292136,961.515500 l 0.000000,-5.811701 M 542.292136,983.312204 l 0.000000,91.652991 M 542.292136,1146.687358 l 0.000000,-8.158309 M 551.292136,952.351342 l 0.000000,7.666096 M 551.292136,972.397726 l 0.000000,-5.310815 M 551.292136,998.654595 l 0.000000,43.825782 M 551.292136,1105.835373 l 0.000000,-59.109424 M 551.292136,1109.839369 l 0.000000,8.392882 M 551.292136,1154.131605 l 0.000000,-2.858151 M 560.292136,954.752158 l 0.000000,2.147308 M 560.292136,969.773670 l 0.000000,-10.226392 M 560.292136,978.797617 l 0.000000,5.887857 M 560.292136,1037.462000 l 0.000000,-23.629748 M 560.292136,1051.677682 l 0.000000,46.285266 M 560.292136,1155.770861 l 0.000000,-49.740292 M 560.292136,1181.929708 l 0.000000,3.012350 M 569.292136,972.987776 l 0.000000,-10.574248 M 569.292136,975.099278 l 0.000000,5.221851 M 569.292136,998.077448 l 0.000000,-6.742076 M 569.292136,1026.952497 l 0.000000,73.732744 M 569.292136,1179.235387 l 0.000000,-51.858982 M 578.292136,977.871316 l 0.000000,16.839734 M 578.292136,1012.320591 l 0.000000,-7.072576 M 578.292136,1018.612244 l 0.000000,6.440526 M 578.292136,1127.486932 l 0.000000,-97.785155 M 578.292136,1144.065334 l 0.000000,15.999908 M 578.292136,1189.909298 l 0.000000,-19.209845 M 587.292136,986.274435 l 0.000000,160.218947 M 587.292136,1163.586532 l 0.000000,-6.662464 M 587.292136,1187.493947 l 0.000000,20.298175 M 596.292136,1163.168994 l 0.000000,-166.006589 M 596.292136,1198.175437 l 0.000000,20.754534 M 605.292136,1172.716915 l 0.000000,-164.061776 M 605.292136,1211.152198 l 0.000000,10.219483 M 614.292136,1183.544750 l 0.000000,-166.979452 M 614.292136,1193.811749 l 0.000000,7.501094 M 614.292136,1216.617033 l 0.000000,-1.976876 M 614.292136,1220.887715 l 0.000000,1.552820 M 623.292136,1196.171150 l 0.000000,-172.177596 M 623.292136,1203.715627 l 0.000000,4.207232 M 623.292136,1248.153928 l 0.000000,-6.145392 M 632.292136,1030.077202 l 0.000000,171.847263 M 632.292136,1223.636237 l 0.000000,-3.208702 M 632.292136,1239.502090 l 0.000000,10.741123 M 641.292136,1047.301518 l 0.000000,-10.324602 M 641.292136,1051.062795 l 0.000000,148.437862 M 641.292136,1203.663422 l 0.000000,-3.157707 M 641.292136,1230.359760 l 0.000000,21.202924 M 650.292136,1048.435864 l 0.000000,-4.860727 M 650.292136,1052.419428 l 0.000000,5.847918 M 650.292136,1190.370928 l 0.000000,-121.449260 M 650.292136,1222.863370 l 0.000000,29.934189 M 659.292136,1060.990421 l 0.000000,-11.075457 M 659.292136,1061.822157 l 0.000000,4.250084 M 659.292136,1078.441720 l 0.000000,-4.355427 M 659.292136,1085.400734 l 0.000000,35.091379 M 659.292136,1161.463635 l 0.000000,-34.306149 M 659.292136,1164.755600 l 0.000000,4.193929 M 659.292136,1254.102799 l 0.000000,-34.845242 M 668.292136,1056.573422 l 0.000000,18.234826 M 668.292136,1083.049285 l 0.000000,-3.690444 M 668.292136,1085.703105 l 0.000000,2.219436 M 668.292136,1126.352176 l 0.000000,-31.504624 M 668.292136,1145.271000 l 0.000000,4.872616 M 668.292136,1255.783487 l 0.000000,-47.561792 M 677.292136,1064.244673 l 0.000000,19.981749 M 677.292136,1121.554983 l 0.000000,-34.894784 M 677.292136,1131.021416 l 0.000000,3.343320 M 677.292136,1257.417903 l 0.000000,-61.809154 M 686.292136,1071.335940 l 0.000000,78.520835 M 686.292136,1168.346308 l 0.000000,-14.575193 M 686.292136,1179.251168 l 0.000000,79.161231 M 695.292136,1259.219503 l 0.000000,-179.523776 M 704.292136,1089.253831 l 0.000000,95.772457 M 704.292136,1260.995064 l 0.000000,-63.110768 M 713.292136,1099.640595 l 0.000000,59.578072 M 713.292136,1181.615320 l 0.000000,-7.574893 M 713.292136,1201.412205 l 0.000000,61.111415 M 722.292136,1163.145965 l 0.000000,-45.599363 M 722.292136,1201.852449 l 0.000000,63.524541 M 731.292136,1168.933205 l 0.000000,-37.114735 M 731.292136,1201.629042 l 0.000000,68.529749 M 740.292136,1174.708193 l 0.000000,-28.236470 M 740.292136,1200.099230 l 0.000000,73.020238 M 749.292136,1179.779659 l 0.000000,-23.403174 M 749.292136,1195.520636 l 0.000000,80.478906 M 758.292136,1277.455115 l 0.000000,-116.005779 M 767.292136,1166.528153 l 0.000000,110.699834 M 776.292136,1276.497361 l 0.000000,-104.703900 M 785.292136,1177.238897 l 0.000000,97.940248 M 794.292136,1272.760689 l 0.000000,-89.845405 M 803.292136,1188.795438 l 0.000000,79.090844 M 812.292136,1263.393968 l 0.000000,-65.479899 M 821.292136,1207.449189 l 0.000000,54.217581 M 830.292136,1256.239746 l 0.000000,-37.097530 M 839.292136,1237.353660 l 0.000000,6.574321 M 857.292136,1252.841412 l 0.000000,-2.652285 M 866.292136,1254.714973 l 0.000000,4.705107"
       id="path11" />
  </g>
  <g
     inkscape:label="fill-6f6f6f"
     inkscape:groupmode="layer"
     id="fill-6f6f6f">
    <path
       style="stroke:#6f6f6f"
       d="M 316.169364,751.261682 l 0.000000,11.164546 M 327.169364,764.789798 l 0.000000,-8.700773 M 327.169364,765.666369 l 0.000000,5.772314 M 338.169364,779.823028 l 0.000000,-14.423715 M 349.169364,778.699508 l 0.000000,10.880764 M 349.169364,796.559706 l 0.000000,-0.925660 M 360.169364,786.335112 l 0.000000,12.989060 M 360.169364,809.151019 l 0.000000,-2.670867 M 371.169364,795.647292 l 0.000000,10.811048 M 371.169364,820.106518 l 0.000000,-4.487702 M 371.169364,1188.634491 l 0.000000,4.329881 M 382.169364,819.292617 l 0.000000,-13.701578 M 382.169364,822.400649 l 0.000000,3.520401 M 382.169364,833.330399 l 0.000000,-5.523037 M 382.169364,1182.690037 l 0.000000,5.681714 M 393.169364,831.478314 l 0.000000,-15.708212 M 393.169364,834.118449 l 0.000000,10.954502 M 393.169364,1188.619198 l 0.000000,-7.986940 M 404.169364,825.889023 l 0.000000,31.219811 M 404.169364,1186.135972 l 0.000000,-9.481885 M 415.169364,821.140469 l 0.000000,8.560004 M 415.169364,868.773766 l 0.000000,-34.401544 M 415.169364,898.487731 l 0.000000,7.351524 M 415.169364,1184.344640 l 0.000000,-18.844640 M 426.169364,833.543852 l 0.000000,32.609563 M 426.169364,884.276364 l 0.000000,-14.364283 M 426.169364,1000.927406 l 0.000000,6.975341 M 426.169364,1061.793011 l 0.000000,-4.655854 M 426.169364,1067.366013 l 0.000000,2.270894 M 426.169364,1130.171020 l 0.000000,-47.316070 M 426.169364,1165.500000 l 0.000000,24.035172 M 437.169364,875.189623 l 0.000000,-27.176174 M 437.169364,875.824105 l 0.000000,4.661064 M 437.169364,886.614608 l 0.000000,-5.177499 M 437.169364,888.822348 l 0.000000,5.796921 M 437.169364,1023.073531 l 0.000000,-23.557695 M 437.169364,1029.674049 l 0.000000,0.396628 M 437.169364,1185.376804 l 0.000000,-65.288483 M 448.169364,863.611217 l 0.000000,26.551144 M 448.169364,904.465473 l 0.000000,-11.448259 M 448.169364,912.642359 l 0.000000,11.727137 M 448.169364,977.900550 l 0.000000,-3.516352 M 448.169364,978.944338 l 0.000000,34.848803 M 448.169364,1113.359919 l 0.000000,-18.032275 M 448.169364,1139.131868 l 0.000000,50.966885 M 448.169364,1197.257324 l 0.000000,-4.791367 M 459.169364,879.850773 l 0.000000,54.810946 M 459.169364,1011.703575 l 0.000000,-34.733770 M 459.169364,1048.058587 l 0.000000,8.948192 M 459.169364,1110.014321 l 0.000000,-15.178366 M 459.169364,1157.728336 l 0.000000,5.172780 M 459.169364,1200.814788 l 0.000000,-6.669697 M 470.169364,896.940167 l 0.000000,50.837001 M 470.169364,998.681647 l 0.000000,-18.958315 M 470.169364,1088.639588 l 0.000000,16.276637 M 470.169364,1153.171303 l 0.000000,-20.147600 M 470.169364,1187.191198 l 0.000000,19.624130 M 470.169364,1239.102837 l 0.000000,-1.710385 M 481.169364,888.847785 l 0.000000,8.618099 M 481.169364,960.861753 l 0.000000,-45.829647 M 481.169364,972.397765 l 0.000000,28.288278 M 481.169364,1020.443626 l 0.000000,-16.690548 M 481.169364,1083.106803 l 0.000000,11.840468 M 481.169364,1121.215789 l 0.000000,-23.656427 M 481.169364,1137.092518 l 0.000000,29.695172 M 481.169364,1218.552715 l 0.000000,-3.117525 M 481.169364,1220.509740 l 0.000000,11.160669 M 481.169364,1263.647014 l 0.000000,-28.339243 M 492.169364,903.047492 l 0.000000,3.558372 M 492.169364,926.219805 l 0.000000,-10.435232 M 492.169364,930.501522 l 0.000000,77.277583 M 492.169364,1014.585743 l 0.000000,-3.904388 M 492.169364,1018.185605 l 0.000000,4.072442 M 492.169364,1030.284519 l 0.000000,-1.804469 M 492.169364,1116.510192 l 0.000000,14.271086 M 492.169364,1174.429911 l 0.000000,-16.684495 M 503.169364,927.412549 l 0.000000,92.847398 M 503.169364,1071.374181 l 0.000000,-16.333596 M 503.169364,1123.310673 l 0.000000,14.278863 M 503.169364,1150.925024 l 0.000000,-1.973547 M 503.169364,1170.017270 l 0.000000,12.403749 M 514.169364,930.334580 l 0.000000,-6.073003 M 514.169364,939.909984 l 0.000000,89.807588 M 514.169364,1108.297926 l 0.000000,-35.019920 M 514.169364,1134.891472 l 0.000000,13.002972 M 514.169364,1184.257550 l 0.000000,-7.136715 M 525.169364,935.390434 l 0.000000,6.923856 M 525.169364,1048.438265 l 0.000000,-93.148254 M 525.169364,1059.671562 l 0.000000,2.247623 M 525.169364,1075.899988 l 0.000000,-5.688936 M 525.169364,1084.727238 l 0.000000,5.513957 M 525.169364,1113.589293 l 0.000000,-2.518514 M 525.169364,1148.606333 l 0.000000,4.220545 M 525.169364,1189.749740 l 0.000000,-8.038714 M 536.169364,947.307467 l 0.000000,7.780515 M 536.169364,1068.609802 l 0.000000,-96.650612 M 536.169364,1080.332907 l 0.000000,14.356564 M 536.169364,1139.401897 l 0.000000,-15.361315 M 536.169364,1177.841669 l 0.000000,2.441110 M 547.169364,955.457918 l 0.000000,-6.982070 M 547.169364,960.575900 l 0.000000,7.813648 M 547.169364,1102.817300 l 0.000000,-113.737424 M 547.169364,1107.219006 l 0.000000,7.135838 M 547.169364,1153.292453 l 0.000000,-9.822187 M 547.169364,1172.958638 l 0.000000,2.748419 M 547.169364,1192.439326 l 0.000000,-9.247438 M 558.169364,952.747966 l 0.000000,17.190206 M 558.169364,983.159040 l 0.000000,-8.548311 M 558.169364,987.514207 l 0.000000,3.792324 M 558.169364,1039.093570 l 0.000000,-31.620178 M 558.169364,1045.632338 l 0.000000,114.123323 M 558.169364,1188.512934 l 0.000000,-16.890611 M 558.169364,1194.353773 l 0.000000,8.604588 M 569.169364,981.652943 l 0.000000,-21.015902 M 569.169364,989.369127 l 0.000000,9.545985 M 569.169364,1009.520786 l 0.000000,-5.752079 M 569.169364,1019.664917 l 0.000000,84.306835 M 569.169364,1181.471654 l 0.000000,-56.902688 M 569.169364,1188.502841 l 0.000000,7.790491 M 569.169364,1211.465424 l 0.000000,-10.798820 M 580.169364,975.791886 l 0.000000,22.504440 M 580.169364,1017.010388 l 0.000000,-10.452821 M 580.169364,1020.128267 l 0.000000,112.494971 M 580.169364,1163.028153 l 0.000000,-17.655932 M 580.169364,1165.345507 l 0.000000,43.172736 M 591.169364,1157.224827 l 0.000000,-167.913703 M 591.169364,1161.786031 l 0.000000,5.623046 M 591.169364,1220.490576 l 0.000000,-30.606691 M 602.169364,1003.375577 l 0.000000,167.421574 M 602.169364,1223.250997 l 0.000000,-20.847591 M 613.169364,1014.209302 l 0.000000,168.861920 M 613.169364,1200.907002 l 0.000000,-8.972967 M 613.169364,1211.705752 l 0.000000,13.189371 M 624.169364,1197.716958 l 0.000000,-174.024700 M 624.169364,1203.380174 l 0.000000,6.247728 M 624.169364,1229.026955 l 0.000000,-13.713727 M 624.169364,1240.855572 l 0.000000,7.894901 M 635.169364,1204.068844 l 0.000000,-172.376600 M 635.169364,1221.160902 l 0.000000,4.660950 M 635.169364,1251.187067 l 0.000000,-19.385596 M 646.169364,1039.923863 l 0.000000,162.931928 M 646.169364,1208.127045 l 0.000000,-0.316344 M 646.169364,1224.028762 l 0.000000,28.641619 M 657.169364,1057.636080 l 0.000000,-9.966786 M 657.169364,1058.878070 l 0.000000,6.738337 M 657.169364,1077.518287 l 0.000000,-5.459191 M 657.169364,1079.745222 l 0.000000,112.307782 M 657.169364,1213.322916 l 0.000000,-3.139457 M 657.169364,1218.637124 l 0.000000,35.515572 M 668.169364,1076.635823 l 0.000000,-21.046173 M 668.169364,1077.823003 l 0.000000,11.193855 M 668.169364,1127.161009 l 0.000000,-33.087754 M 668.169364,1139.994481 l 0.000000,2.094627 M 668.169364,1151.407505 l 0.000000,-7.069307 M 668.169364,1156.558130 l 0.000000,8.161829 M 668.169364,1256.297226 l 0.000000,-49.145906 M 679.169364,1064.686372 l 0.000000,61.105721 M 679.169364,1143.687320 l 0.000000,-12.829731 M 679.169364,1192.468863 l 0.000000,65.602741 M 690.169364,1259.172895 l 0.000000,-185.766716 M 701.169364,1084.949626 l 0.000000,103.252846 M 701.169364,1260.873992 l 0.000000,-67.695203 M 712.169364,1097.758497 l 0.000000,61.503913 M 712.169364,1182.262994 l 0.000000,-9.598311 M 712.169364,1201.094938 l 0.000000,61.927958 M 723.169364,1164.043327 l 0.000000,-46.715447 M 723.169364,1201.441955 l 0.000000,65.023854 M 734.169364,1171.559869 l 0.000000,-36.416178 M 734.169364,1200.547364 l 0.000000,70.959208 M 745.169364,1177.541838 l 0.000000,-25.227947 M 745.169364,1196.284414 l 0.000000,78.830779 M 756.169364,1277.431692 l 0.000000,-117.709826 M 767.169364,1165.953450 l 0.000000,111.664959 M 778.169364,1277.007642 l 0.000000,-104.568728 M 789.169364,1179.032670 l 0.000000,95.816651 M 800.169364,1270.509496 l 0.000000,-84.566034 M 811.169364,1196.169390 l 0.000000,68.048279 M 822.169364,1262.875017 l 0.000000,-54.872334 M 833.169364,1223.147036 l 0.000000,32.642149 M 844.169364,1246.196148 l 0.000000,-7.084859 M 844.169364,1247.880814 l 0.000000,3.412641 M 855.169364,1254.674533 l 0.000000,-6.537142 M 866.169364,1253.194350 l 0.000000,7.348811"
       id="path14" />
  </g>
  <g
     inkscape:label="fill-909090"
     inkscape:groupmode="layer"
     id="fill-909090">
    <path
       style="stroke:#909090"
       d="M 319.875096,751.160109 l 0.000000,16.085534 M 332.875096,777.028418 l 0.000000,-16.775832 M 332.875096,779.668273 l 0.000000,5.452531 M 345.875096,788.325831 l 0.000000,-16.647205 M 345.875096,791.082487 l 0.000000,5.386922 M 358.875096,799.962340 l 0.000000,-16.193736 M 358.875096,802.507882 l 0.000000,7.150659 M 371.875096,811.106294 l 0.000000,-15.877711 M 371.875096,814.297509 l 0.000000,8.927847 M 371.875096,1193.298703 l 0.000000,-6.024914 M 384.875096,807.160955 l 0.000000,30.036484 M 384.875096,1189.709673 l 0.000000,-8.013603 M 397.875096,819.380399 l 0.000000,32.547308 M 397.875096,860.883588 l 0.000000,-3.396628 M 397.875096,1179.183260 l 0.000000,8.914512 M 410.875096,867.710731 l 0.000000,-36.580523 M 410.875096,885.018407 l 0.000000,6.815791 M 410.875096,1184.765917 l 0.000000,-19.765917 M 423.875096,828.713914 l 0.000000,55.084279 M 423.875096,919.531918 l 0.000000,-8.247731 M 423.875096,999.603448 l 0.000000,4.446364 M 423.875096,1034.967835 l 0.000000,-6.112721 M 423.875096,1056.851192 l 0.000000,66.046101 M 423.875096,1189.194088 l 0.000000,-24.194088 M 436.875096,843.325000 l 0.000000,64.683576 M 436.875096,927.284395 l 0.000000,-4.651601 M 436.875096,931.801650 l 0.000000,9.112603 M 436.875096,1032.189530 l 0.000000,-34.900172 M 436.875096,1035.469379 l 0.000000,3.700804 M 436.875096,1096.548931 l 0.000000,-1.996999 M 436.875096,1112.991455 l 0.000000,75.969801 M 449.875096,929.510852 l 0.000000,-70.317719 M 449.875096,970.724124 l 0.000000,52.110298 M 449.875096,1124.263826 l 0.000000,-38.959763 M 449.875096,1128.098382 l 0.000000,70.240206 M 462.875096,946.776861 l 0.000000,-70.324917 M 462.875096,976.991246 l 0.000000,58.760659 M 462.875096,1120.997016 l 0.000000,-78.979386 M 462.875096,1151.774654 l 0.000000,16.174199 M 462.875096,1202.514350 l 0.000000,-8.700276 M 462.875096,1276.707596 l 0.000000,1.045191 M 475.875096,892.716531 l 0.000000,-9.325570 M 475.875096,898.219838 l 0.000000,1.714189 M 475.875096,954.265638 l 0.000000,-49.159721 M 475.875096,973.092915 l 0.000000,33.981942 M 475.875096,1116.348510 l 0.000000,-26.448342 M 475.875096,1128.461297 l 0.000000,34.926359 M 475.875096,1252.737542 l 0.000000,-53.426487 M 475.875096,1255.051841 l 0.000000,14.919326 M 488.875096,921.026484 l 0.000000,-25.527571 M 488.875096,923.916529 l 0.000000,102.144557 M 488.875096,1130.925645 l 0.000000,-27.449360 M 488.875096,1137.956626 l 0.000000,35.217248 M 501.875096,921.173720 l 0.000000,-10.245145 M 501.875096,925.253776 l 0.000000,100.553165 M 501.875096,1034.783154 l 0.000000,-3.825827 M 501.875096,1048.718226 l 0.000000,24.204708 M 501.875096,1111.845132 l 0.000000,-31.305280 M 501.875096,1117.496123 l 0.000000,22.104805 M 501.875096,1154.083362 l 0.000000,-10.181329 M 501.875096,1160.926229 l 0.000000,21.944094 M 514.875096,932.488308 l 0.000000,-8.014694 M 514.875096,939.058175 l 0.000000,99.046741 M 514.875096,1051.439525 l 0.000000,-2.183079 M 514.875096,1058.491929 l 0.000000,7.878686 M 514.875096,1111.420438 l 0.000000,-39.494655 M 514.875096,1131.501185 l 0.000000,40.879793 M 514.875096,1189.713756 l 0.000000,-15.261350 M 527.875096,937.117343 l 0.000000,9.676129 M 527.875096,1054.045633 l 0.000000,-98.009892 M 527.875096,1062.776104 l 0.000000,1.485655 M 527.875096,1080.979339 l 0.000000,-10.183146 M 527.875096,1085.401828 l 0.000000,7.341242 M 527.875096,1130.816057 l 0.000000,-21.336977 M 527.875096,1148.891357 l 0.000000,7.701665 M 527.875096,1198.793455 l 0.000000,-30.549605 M 540.875096,946.097979 l 0.000000,2.600658 M 540.875096,962.923027 l 0.000000,-13.504462 M 540.875096,963.907540 l 0.000000,3.187957 M 540.875096,1100.344455 l 0.000000,-123.977258 M 540.875096,1102.399946 l 0.000000,5.808874 M 540.875096,1147.806335 l 0.000000,-20.519624 M 540.875096,1170.711771 l 0.000000,24.114413 M 540.875096,1204.072209 l 0.000000,-3.895363 M 553.875096,950.394800 l 0.000000,15.295271 M 553.875096,986.523700 l 0.000000,-18.579304 M 553.875096,993.274346 l 0.000000,153.697908 M 553.875096,1164.167611 l 0.000000,-16.978986 M 553.875096,1164.403752 l 0.000000,45.309125 M 553.875096,1218.013638 l 0.000000,-7.020735 M 566.875096,956.882093 l 0.000000,22.077952 M 566.875096,997.704125 l 0.000000,-13.612564 M 566.875096,998.610484 l 0.000000,8.727387 M 566.875096,1099.408530 l 0.000000,-86.607105 M 566.875096,1107.229059 l 0.000000,116.886823 M 579.875096,999.092656 l 0.000000,-25.608491 M 579.875096,1004.322270 l 0.000000,132.166266 M 579.875096,1225.264330 l 0.000000,-87.816685 M 592.875096,990.758970 l 0.000000,170.953175 M 592.875096,1169.738899 l 0.000000,-7.350587 M 592.875096,1188.051097 l 0.000000,45.018071 M 605.875096,1175.866190 l 0.000000,-169.409801 M 605.875096,1184.697703 l 0.000000,6.402161 M 605.875096,1237.270116 l 0.000000,-34.670356 M 618.875096,1018.496515 l 0.000000,173.812585 M 618.875096,1207.740620 l 0.000000,-11.325909 M 618.875096,1211.406541 l 0.000000,26.597307 M 618.875096,1247.554092 l 0.000000,-8.191315 M 631.875096,1028.903022 l 0.000000,175.907808 M 631.875096,1214.142575 l 0.000000,-5.455806 M 631.875096,1216.763032 l 0.000000,34.138581 M 644.875096,1210.343526 l 0.000000,-171.775712 M 644.875096,1215.634359 l 0.000000,37.238356 M 657.875096,1069.395622 l 0.000000,-21.886950 M 657.875096,1070.919619 l 0.000000,129.606596 M 657.875096,1215.130805 l 0.000000,-6.690969 M 657.875096,1216.962085 l 0.000000,37.921257 M 670.875096,1130.665248 l 0.000000,-74.030984 M 670.875096,1132.743747 l 0.000000,39.406734 M 670.875096,1257.425177 l 0.000000,-53.091911 M 683.875096,1067.077323 l 0.000000,98.667241 M 683.875096,1259.480506 l 0.000000,-75.858114 M 696.875096,1079.264860 l 0.000000,181.669869 M 709.875096,1161.353056 l 0.000000,-67.796048 M 709.875096,1168.708731 l 0.000000,15.098350 M 709.875096,1262.965320 l 0.000000,-62.991004 M 722.875096,1115.067625 l 0.000000,49.570763 M 722.875096,1266.896708 l 0.000000,-65.984483 M 735.875096,1136.671273 l 0.000000,36.583089 M 735.875096,1272.518288 l 0.000000,-72.501573 M 748.875096,1154.993312 l 0.000000,25.864034 M 748.875096,1277.090884 l 0.000000,-83.129817 M 761.875096,1162.117169 l 0.000000,116.363498 M 774.875096,1277.836414 l 0.000000,-107.708857 M 787.875096,1177.834694 l 0.000000,98.032654 M 800.875096,1270.734963 l 0.000000,-85.008745 M 813.875096,1197.893144 l 0.000000,66.595200 M 826.875096,1256.717301 l 0.000000,-43.673898 M 839.875096,1235.674292 l 0.000000,17.461821 M 852.875096,1255.188289 l 0.000000,-11.399366 M 865.875096,1251.717292 l 0.000000,9.313071"
       id="path17" />
  </g>
  <g
     inkscape:label="fill-aeaeae"
     inkscape:groupmode="layer"
     id="fill-aeaeae">
    <path
       style="stroke:#aeaeae"
       d="M 304.093415,753.777599 l 0.000000,0.970606 M 319.093415,768.292165 l 0.000000,-18.302353 M 319.093415,772.834745 l 0.000000,3.244045 M 334.093415,788.335335 l 0.000000,-27.731177 M 349.093415,773.871989 l 0.000000,27.590563 M 364.093415,816.374609 l 0.000000,-28.783045 M 364.093415,1196.221885 l 0.000000,1.167553 M 379.093415,832.226201 l 0.000000,-31.084035 M 379.093415,1182.626361 l 0.000000,6.823900 M 394.093415,849.315331 l 0.000000,-34.013752 M 394.093415,852.219664 l 0.000000,3.193476 M 394.093415,1189.445319 l 0.000000,-10.066822 M 409.093415,829.256889 l 0.000000,39.302884 M 409.093415,884.336094 l 0.000000,-14.100562 M 409.093415,1166.415240 l 0.000000,19.568824 M 424.093415,894.102932 l 0.000000,-66.397871 M 424.093415,905.224078 l 0.000000,20.171939 M 424.093415,940.371644 l 0.000000,-4.742949 M 424.093415,996.974872 l 0.000000,13.435076 M 424.093415,1017.630824 l 0.000000,-6.058602 M 424.093415,1025.078457 l 0.000000,18.435956 M 424.093415,1125.507753 l 0.000000,-69.427232 M 424.093415,1164.294326 l 0.000000,25.343115 M 439.093415,914.625060 l 0.000000,-70.454809 M 439.093415,921.542204 l 0.000000,36.529197 M 439.093415,1051.816436 l 0.000000,-56.787981 M 439.093415,1069.633192 l 0.000000,31.141920 M 439.093415,1191.868391 l 0.000000,-83.183644 M 454.093415,859.916132 l 0.000000,77.200553 M 454.093415,969.513579 l 0.000000,-21.454776 M 454.093415,971.131977 l 0.000000,61.722953 M 454.093415,1184.686346 l 0.000000,-102.023566 M 454.093415,1190.403050 l 0.000000,9.849841 M 469.093415,949.854200 l 0.000000,-74.675053 M 469.093415,969.419481 l 0.000000,237.591848 M 469.093415,1277.117097 l 0.000000,-6.542060 M 484.093415,890.446228 l 0.000000,23.974786 M 484.093415,1028.326753 l 0.000000,-111.505513 M 484.093415,1070.280925 l 0.000000,99.959538 M 484.093415,1264.075554 l 0.000000,-49.569176 M 499.093415,906.282816 l 0.000000,137.169915 M 499.093415,1181.830243 l 0.000000,-133.888026 M 514.093415,922.387360 l 0.000000,120.923298 M 514.093415,1193.545675 l 0.000000,-149.874774 M 529.093415,937.544337 l 0.000000,120.515610 M 529.093415,1098.559237 l 0.000000,-38.729498 M 529.093415,1104.638747 l 0.000000,34.645889 M 529.093415,1205.138429 l 0.000000,-57.234133 M 544.093415,946.152939 l 0.000000,269.335578 M 559.093415,1222.774937 l 0.000000,-271.053911 M 574.093415,964.727520 l 0.000000,264.381260 M 589.093415,1167.845777 l 0.000000,-183.123403 M 589.093415,1178.393647 l 0.000000,56.283729 M 604.093415,1177.610272 l 0.000000,-174.151448 M 604.093415,1182.127877 l 0.000000,7.348790 M 604.093415,1240.071649 l 0.000000,-42.069384 M 619.093415,1017.856854 l 0.000000,230.116715 M 634.093415,1251.965132 l 0.000000,-221.958218 M 649.093415,1041.082031 l 0.000000,172.144054 M 649.093415,1254.005939 l 0.000000,-37.519787 M 664.093415,1051.101034 l 0.000000,36.184091 M 664.093415,1256.509894 l 0.000000,-169.214468 M 679.093415,1062.373319 l 0.000000,196.995904 M 694.093415,1260.360936 l 0.000000,-185.069586 M 709.093415,1091.755425 l 0.000000,73.410900 M 709.093415,1184.481498 l 0.000000,-18.389370 M 709.093415,1199.279148 l 0.000000,64.166281 M 724.093415,1166.171522 l 0.000000,-50.147639 M 724.093415,1200.339719 l 0.000000,67.728450 M 739.093415,1175.529897 l 0.000000,-34.292120 M 739.093415,1198.766002 l 0.000000,75.289802 M 754.093415,1278.215816 l 0.000000,-120.627313 M 769.093415,1166.037164 l 0.000000,112.260300 M 784.093415,1277.175205 l 0.000000,-102.268378 M 799.093415,1184.100054 l 0.000000,88.148545 M 814.093415,1265.022872 l 0.000000,-67.211005 M 829.093415,1214.045935 l 0.000000,44.319485 M 844.093415,1253.530536 l 0.000000,-15.984200 M 859.093415,1246.583133 l 0.000000,12.322340 M 874.093415,1265.427680 l 0.000000,-7.559711"
       id="path20" />
  </g>
  <g
     inkscape:label="fill-cdcdcd"
     inkscape:groupmode="layer"
     id="fill-cdcdcd">
    <path
       style="stroke:#cdcdcd"
       d="M 312.145125,741.890113 l 0.000000,33.641041 M 329.145125,788.209184 l 0.000000,-32.715079 M 346.145125,769.898279 l 0.000000,30.980275 M 363.145125,816.890801 l 0.000000,-31.558303 M 363.145125,1196.886470 l 0.000000,1.598798 M 380.145125,834.988884 l 0.000000,-34.082261 M 380.145125,1181.163313 l 0.000000,9.077089 M 397.145125,865.762795 l 0.000000,-49.230664 M 397.145125,1177.988946 l 0.000000,11.615989 M 414.145125,923.125087 l 0.000000,-107.684003 M 414.145125,1063.513446 l 0.000000,37.131283 M 414.145125,1185.655020 l 0.000000,-22.449101 M 431.145125,833.398797 l 0.000000,115.843249 M 431.145125,1159.050542 l 0.000000,-165.287842 M 431.145125,1166.874818 l 0.000000,24.216611 M 448.145125,1199.119809 l 0.000000,-347.221677 M 465.145125,869.874283 l 0.000000,315.016984 M 465.145125,1204.518451 l 0.000000,-11.878566 M 465.145125,1273.034805 l 0.000000,6.344228 M 482.145125,1169.984562 l 0.000000,-283.046414 M 482.145125,1204.509627 l 0.000000,62.117469 M 499.145125,1183.417351 l 0.000000,-278.963982 M 516.145125,922.902803 l 0.000000,274.148819 M 533.145125,1210.276501 l 0.000000,-270.294556 M 550.145125,947.412484 l 0.000000,273.101422 M 567.145125,1228.718165 l 0.000000,-273.842771 M 584.145125,976.478686 l 0.000000,259.052093 M 601.145125,1240.967383 l 0.000000,-242.430887 M 618.145125,1015.805469 l 0.000000,232.661341 M 635.145125,1252.904537 l 0.000000,-223.228303 M 652.145125,1042.081161 l 0.000000,213.212422 M 669.145125,1258.874010 l 0.000000,-205.352866 M 686.145125,1066.210610 l 0.000000,194.781937 M 703.145125,1263.041030 l 0.000000,-179.590144 M 720.145125,1106.840637 l 0.000000,58.088510 M 720.145125,1182.647270 l 0.000000,-15.192748 M 720.145125,1199.748797 l 0.000000,67.423971 M 737.145125,1175.323091 l 0.000000,-39.143084 M 737.145125,1197.725184 l 0.000000,76.387086 M 754.145125,1279.261929 l 0.000000,-122.643212 M 771.145125,1166.356996 l 0.000000,112.876672 M 788.145125,1277.059553 l 0.000000,-100.515307 M 805.145125,1186.747125 l 0.000000,83.214797 M 822.145125,1265.415300 l 0.000000,-60.761838 M 839.145125,1233.066203 l 0.000000,21.905356 M 856.145125,1259.063337 l 0.000000,-15.879590 M 873.145125,1255.748783 l 0.000000,10.619215"
       id="path23" />
  </g>
</svg>
