<?xml version="1.0" encoding="UTF-8" standalone="no"?>
<!-- Created with Inkscape (http://www.inkscape.org/) -->

<svg
   xmlns:dc="http://purl.org/dc/elements/1.1/"
   xmlns:cc="http://creativecommons.org/ns#"
   xmlns:rdf="http://www.w3.org/1999/02/22-rdf-syntax-ns#"
   xmlns:svg="http://www.w3.org/2000/svg"
   xmlns="http://www.w3.org/2000/svg"
   xmlns:sodipodi="http://sodipodi.sourceforge.net/DTD/sodipodi-0.dtd"
   xmlns:inkscape="http://www.inkscape.org/namespaces/inkscape"
   id="svg2"
   version="1.1"
   inkscape:version="0.48.3.1 r9886"
   width="1200"
   height="960"
   sodipodi:docname="hantologie-full-socle_01_hatched_1398263322.svg">
  <defs
     id="defs70" />
  <sodipodi:namedview
     pagecolor="#ffffff"
     bordercolor="#666666"
     borderopacity="1"
     objecttolerance="10"
     gridtolerance="10"
     guidetolerance="10"
     inkscape:pageopacity="0"
     inkscape:pageshadow="2"
     inkscape:window-width="640"
     inkscape:window-height="480"
     id="namedview68" />
  <metadata
     id="metadata8">
    <rdf:RDF>
      <cc:Work
         rdf:about="">
        <dc:format>image/svg+xml </dc:format>
        <dc:type
           rdf:resource="http://purl.org/dc/dcmitype/StillImage" />
        <dc:title />
      </cc:Work>
    </rdf:RDF>
  </metadata>
  <g
     inkscape:label="fill-303030"
     inkscape:groupmode="layer"
     id="fill-303030">
    <path
       style="stroke:#303030"
       d="M 588.948679,571.943937 l -0.020645,0.235976 M 592.136070,581.406743 l 0.806452,-9.217785 M 596.936365,572.433979 l -1.592258,18.199593 M 598.552143,599.860401 l 2.378064,-27.181401 M 604.924050,572.924021 l -3.163871,36.163209 M 604.968216,618.314060 l 3.949677,-45.145017 M 612.219871,581.322117 l -4.043619,46.218772 M 614.373029,602.606264 l 1.092456,-12.486826"
       id="path5" />
  </g>
  <g
     inkscape:label="fill-4f4f4f"
     inkscape:groupmode="layer"
     id="fill-4f4f4f">
    <path
       style="stroke:#4f4f4f"
       d="M 612.037501,573.356546 l -0.122719,7.030542 M 616.704404,592.483328 l 0.328571,-18.823835 M 622.028449,573.962441 l -0.335398,19.214935 M 626.681698,593.871423 l 0.342225,-19.606035 M 632.019396,574.568335 l -0.349051,19.997135 M 636.658992,595.259517 l 0.355878,-20.388235 M 642.010343,575.174230 l -0.362705,20.779335 M 646.636286,596.647611 l 0.369531,-21.170435 M 652.001291,575.780124 l -0.376358,21.561534 M 656.613580,598.035706 l 0.383185,-21.952634 M 661.992238,576.386019 l -0.390011,22.343734 M 666.590874,599.423800 l 0.396838,-22.734834 M 671.983185,576.991913 l -0.403665,23.125934 M 676.568168,600.811894 l 0.410491,-23.517034 M 681.974133,577.597807 l -0.417318,23.908134 M 686.545462,602.199989 l 0.424145,-24.299234 M 691.965080,578.203702 l -0.430971,24.690334 M 696.522756,603.588083 l 0.437798,-25.081434 M 701.956027,578.809596 l -0.444625,25.472534 M 706.500050,604.976177 l 0.451451,-25.863634 M 711.829242,586.160388 l -0.340545,19.509837 M 716.477344,606.364272 l 0.190933,-10.938526 M 721.507311,604.691103 l -0.041320,2.367216"
       id="path8" />
  </g>
  <g
     inkscape:label="fill-666666"
     inkscape:groupmode="layer"
     id="fill-666666">
    <path
       style="stroke:#666666"
       d="M 627.189036,256.703425 l 0.540313,15.472528 M 634.125650,283.419798 l -0.970815,-27.800510 M 639.120633,254.535150 l 0.959020,27.462743 M 646.033656,280.575988 l -0.824167,-23.601057 M 651.789897,273.490885 l 0.197763,5.663198"
       id="path11" />
  </g>
  <g
     inkscape:label="fill-757575"
     inkscape:groupmode="layer"
     id="fill-757575">
    <path
       style="stroke:#757575"
       d="M 615.531605,798.009302 l 1.792103,25.628269 M 624.210764,821.777943 l -4.362503,-62.386706 M 626.730601,757.464182 l 4.367218,62.454134 M 637.984875,818.058688 l -4.371933,-62.521562 M 640.831969,758.424929 l 4.039961,57.774132 M 651.758986,814.339433 l -3.363454,-48.099629 M 655.959095,774.054680 l 2.686946,38.425125 M 665.533097,810.620178 l -2.010439,-28.750622 M 671.086220,789.684432 l 1.333932,19.076118 M 679.307208,806.900923 l -0.657425,-9.401615"
       id="path14" />
  </g>
  <g
     inkscape:label="fill-7e7e7e"
     inkscape:groupmode="layer"
     id="fill-7e7e7e">
    <path
       style="stroke:#7e7e7e"
       d="M 724.346992,831.969030 l 0.599452,6.851764 M 732.776970,836.534417 l -1.550692,-17.724490 M 738.105564,805.650823 l 2.501932,28.597217 M 748.438023,831.961664 l -3.453173,-39.469944 M 751.864137,779.332617 l 4.404413,50.342671 M 764.099077,827.388911 l -4.445688,-50.814447 M 767.500656,774.479442 l 4.096484,46.823021 M 778.471492,808.086954 l -3.123567,-35.702535 M 783.195193,770.289397 l 2.150651,24.582049 M 792.220195,781.655938 l -1.177734,-13.461563 M 798.889729,766.099353 l 0.204818,2.341077"
       id="path17" />
    <path
       style="stroke:#7e7e7e"
       d="M 769.406432,704.472847 l 0.666492,7.618035 M 777.672072,707.159846 l -2.485131,-28.405173 M 782.412812,669.557037 l 2.858410,32.671774 M 792.870370,697.297775 l -2.840986,-32.472617 M 797.645957,660.093279 l 2.823562,32.273460 M 808.014294,686.814205 l -2.751764,-31.452805 M 812.879103,650.629521 l 0.935318,10.690729"
       id="path19" />
  </g>
  <g
     inkscape:label="fill-868686"
     inkscape:groupmode="layer"
     id="fill-868686">
    <path
       style="stroke:#868686"
       d="M 481.195325,565.404909 l 0.033451,0.318264 M 489.593184,568.771020 l -0.302156,-2.874827 M 497.386730,566.387477 l 0.570862,5.431390 M 506.322000,574.866714 l -0.839568,-7.987953 M 513.578134,567.370044 l 1.108273,10.544517 M 523.050815,580.962407 l -1.376979,-13.101080 M 529.769539,568.352611 l 1.645685,15.657643 M 539.779631,587.058101 l -1.914390,-18.214206 M 545.960943,569.335178 l 2.183096,20.770770 M 556.508447,593.153795 l -2.451801,-23.327333 M 562.152347,570.317746 l 2.720507,25.883896 M 573.237262,599.249488 l -2.989213,-28.440459 M 578.343752,571.300313 l 3.257918,30.997022 M 589.966078,605.345182 l -3.526624,-33.553586 M 596.952010,595.277705 l 1.378476,13.115324 M 698.703858,644.971735 l -0.185024,-1.760386 M 706.689384,644.414764 l 0.378836,3.604381 M 715.432582,651.066555 l -0.572647,-5.448376 M 720.210555,619.991756 l 3.586389,34.122208 M 732.161305,657.161374 l -4.287843,-40.796098 M 736.231855,619.355893 l 4.293812,40.852891 M 748.890029,663.256194 l -4.299781,-40.909683 M 752.948641,625.337128 l 4.305750,40.966475 M 765.618753,669.351013 l -4.311719,-41.023267 M 769.665427,631.318364 l 4.317688,41.080059 M 781.769868,669.950248 l -3.746048,-35.641267 M 786.382212,637.299599 l 2.938830,27.961096 M 796.872216,660.571141 l -2.131611,-20.280925 M 803.098998,643.280834 l 1.324393,12.600753 M 811.974565,651.192034 l -0.517174,-4.920582"
       id="path22" />
  </g>
  <g
     inkscape:label="fill-929292"
     inkscape:groupmode="layer"
     id="fill-929292">
    <path
       style="stroke:#929292"
       d="M 510.258052,808.897608 l 0.022090,0.179905 M 519.062517,806.754638 l -3.182125,-25.916330 M 521.502731,752.779008 l 6.342161,51.652755 M 536.627267,802.108889 l -9.502197,-77.389180 M 532.747410,696.660408 l 12.662232,103.125606 M 554.192018,797.463139 l -15.822268,-128.862031 M 544.133446,641.693064 l 18.840947,153.447201 M 571.756768,792.817390 l -18.718091,-152.446618 M 561.943909,639.048480 l 17.229827,140.325682 M 584.604166,749.751886 l -13.322695,-108.504645 M 584.954295,752.603454 l 0.002017,0.016424 M 593.421806,747.716222 l -12.640429,-102.948037 M 594.329043,755.105071 l 0.005225,0.042558 M 602.239447,745.680558 l -11.958164,-97.391428 M 599.781189,651.810074 l 6.229091,50.731872 M 608.836560,725.560156 l -0.031634,-0.257637 M 609.281095,655.331018 l 3.899139,31.755941 M 620.253250,670.842471 l -1.472249,-11.990509"
       id="path25" />
  </g>
  <g
     inkscape:label="fill-999999"
     inkscape:groupmode="layer"
     id="fill-999999">
    <path
       style="stroke:#999999"
       d="M 496.457328,615.734339 l 0.260398,1.852830 M 506.513454,622.619724 l -0.797245,-5.672693 M 515.304070,620.500541 l 1.005111,7.151738 M 526.104909,632.684834 l -1.212977,-8.630783 M 534.479793,627.607561 l 1.420844,10.109828 M 545.518917,641.487343 l -1.451263,-10.326271 M 553.655516,634.714581 l 0.766067,5.450850 M 563.324248,638.843521 l -0.080871,-0.575429"
       id="path28" />
    <path
       style="stroke:#999999"
       d="M 224.926513,559.054599 l 0.044488,0.316546 M 235.782270,571.629654 l -2.644390,-18.815815 M 241.349246,546.573078 l 2.680890,19.075526 M 252.278003,559.667556 l -2.717390,-19.335238 M 257.771979,534.091558 l 2.753890,19.594949 M 268.773736,547.705458 l -2.790391,-19.854660 M 274.194712,521.610037 l 2.826891,20.114372 M 285.269469,535.743360 l -2.863391,-20.374083 M 290.617445,509.128516 l 2.899891,20.633795 M 301.765202,523.781262 l -2.936391,-20.893506 M 307.040178,496.646996 l 0.959736,6.828878 M 310.013069,517.800213 l -0.770571,-5.482894 M 407.338226,434.292664 l 1.648848,11.732162 M 417.234973,440.044011 l -2.693085,-19.162298 M 422.219387,410.842287 l 3.263486,23.220909 M 433.730772,428.082381 l -3.512839,-24.995151 M 438.429476,396.847728 l 3.549195,25.253837 M 450.226571,416.120750 l -3.585551,-25.512522 M 454.852563,384.368727 l 3.621907,25.771208 M 466.722370,404.159119 l -3.658263,-26.029893 M 471.275650,371.889725 l 3.694619,26.288578 M 483.218168,392.197488 l -3.730975,-26.547264 M 487.698737,359.410724 l 3.767330,26.805949 M 499.713967,380.235858 l -3.803686,-27.064635 M 504.121824,346.931722 l 3.840042,27.323320 M 516.209766,368.274227 l -3.876398,-27.582005 M 520.544911,334.452721 l 3.912754,27.840691 M 532.705565,356.312596 l -3.949110,-28.099376 M 536.967998,321.973719 l 3.985466,28.358062 M 549.201363,344.350965 l -4.021822,-28.616747 M 553.391085,309.494718 l 4.058177,28.875432 M 565.697162,332.389335 l -4.094533,-29.134118 M 569.814172,297.015716 l 4.130889,29.392803 M 582.192961,320.427704 l -4.167245,-29.651489 M 586.237259,284.536714 l 4.203601,29.910174 M 598.688760,308.466073 l -4.239957,-30.168859 M 602.660346,272.057713 l 4.276313,30.427545 M 615.184558,296.504442 l -4.312668,-30.686230 M 619.083433,259.578711 l 4.349024,30.944916 M 631.680357,284.542812 l -0.646079,-4.597091"
       id="path30" />
  </g>
  <g
     inkscape:label="fill-9c9c9c"
     inkscape:groupmode="layer"
     id="fill-9c9c9c">
    <path
       style="stroke:#9c9c9c"
       d="M 579.103576,760.572592 l 8.795341,55.531600 M 597.442655,818.828905 l -10.398537,-65.653780 M 596.561730,755.734880 l 10.424664,65.818737 M 615.697141,819.019033 l -9.617800,-60.724397"
       id="path33" />
  </g>
  <g
     inkscape:label="fill-a3a3a3"
     inkscape:groupmode="layer"
     id="fill-a3a3a3">
    <path
       style="stroke:#a3a3a3"
       d="M 644.754358,668.477784 l 1.028473,6.493525 M 656.553919,685.445204 l -2.119039,-13.379083 M 664.115404,675.654458 l 3.209604,20.264641 M 678.096096,706.392994 l -4.300169,-27.150198 M 683.476450,682.831133 l 5.390734,34.035756 M 699.638272,727.340784 l -6.481299,-40.921314 M 702.837496,690.007807 l 7.571865,47.806871 M 721.180448,748.288574 l -8.662430,-54.692429 M 722.198541,697.184482 l 9.752995,61.577987 M 742.722624,769.236364 l -10.843560,-68.463544 M 742.387990,709.591489 l 10.877393,68.677156 M 762.008075,775.935750 l -8.865419,-55.974052 M 763.897322,730.331908 l 6.853445,43.270948 M 779.493459,771.269961 l -4.841471,-30.567844 M 785.406654,751.072327 l 2.829497,17.864740 M 796.978843,766.604172 l -0.817523,-5.161636"
       id="path36" />
  </g>
  <g
     inkscape:label="fill-a4a4a4"
     inkscape:groupmode="layer"
     id="fill-a4a4a4">
    <path
       style="stroke:#a4a4a4"
       d="M 884.893989,581.314337 l 1.386996,7.866043 M 895.561061,584.222606 l -5.606822,-31.797870 M 899.382825,548.309203 l 5.458312,30.955628 M 914.121214,574.307057 l -5.309803,-30.113387 M 918.239999,540.078137 l 5.161293,29.271145 M 931.441587,557.360362 l -3.773002,-21.397757"
       id="path39" />
  </g>
  <g
     inkscape:label="fill-a5a5a5"
     inkscape:groupmode="layer"
     id="fill-a5a5a5">
    <path
       style="stroke:#a5a5a5"
       d="M 611.757351,615.984511 l 2.608627,14.794259 M 624.791696,632.318249 l -6.999467,-39.695950 M 628.202061,594.071686 l 7.015352,39.786040 M 645.643131,635.397205 l -7.031238,-39.876131 M 649.021725,596.970461 l 7.047123,39.966222 M 666.494566,638.476161 l -7.063009,-40.056313 M 669.841390,599.869235 l 7.078894,40.146404 M 687.346002,641.555117 l -7.094780,-40.236495 M 690.661054,602.768009 l 7.110665,40.326585 M 708.197437,644.634073 l -7.126551,-40.416676 M 711.480719,605.666784 l 5.381178,30.518178 M 722.345732,609.697633 l -0.455181,-2.581462"
       id="path42" />
  </g>
  <g
     inkscape:label="fill-a6a6a6"
     inkscape:groupmode="layer"
     id="fill-a6a6a6">
    <path
       style="stroke:#a6a6a6"
       d="M 467.170761,761.425482 l 4.168354,23.639908 M 482.735104,792.107552 l -10.394064,-58.947668 M 477.511319,704.894287 l 16.619775,94.255427 M 505.527083,806.191877 l -22.845486,-129.563187 M 487.851876,648.363093 l 25.544658,144.870954 M 518.797193,766.275000 l -25.775038,-146.177504 M 503.335470,620.999511 l 20.862381,118.316442 M 529.598510,712.356906 l -15.094833,-85.607051 M 525.671884,632.500198 l 9.327285,52.897661 M 540.399828,658.438812 l -3.559737,-20.188270"
       id="path45" />
  </g>
  <g
     inkscape:label="fill-a9a9a9"
     inkscape:groupmode="layer"
     id="fill-a9a9a9">
    <path
       style="stroke:#a9a9a9"
       d="M 586.815761,749.240784 l 0.714467,4.051943 M 598.186307,756.138645 l -1.613576,-9.151045 M 606.329699,744.734416 l 2.512686,14.250148 M 619.105052,759.599335 l -3.018383,-17.118103 M 626.423863,743.518668 l 2.357711,13.371242"
       id="path48" />
  </g>
  <g
     inkscape:label="fill-acacac"
     inkscape:groupmode="layer"
     id="fill-acacac">
    <path
       style="stroke:#acacac"
       d="M 309.793964,491.991732 l 3.682203,20.882813 M 323.468108,511.953951 l -7.060727,-40.043373 M 322.944668,451.397669 l 10.121059,57.399380 M 342.400748,504.150876 l -14.764053,-83.731107 M 333.568104,396.470762 l 18.067678,102.466894 M 361.019107,494.565427 l -17.243711,-97.793943 M 361.534976,497.491068 l 2.690757,15.260043 M 374.998458,516.258565 l -20.973021,-118.943911 M 364.298791,397.990031 l 21.324540,120.937473 M 396.115036,520.841221 l -21.542892,-122.175813 M 384.869779,399.478494 l 21.658299,122.830319 M 403.255657,446.162286 l -8.061028,-45.716359 M 404.346930,452.351202 l 12.533166,71.079117 M 410.243056,428.202087 l -4.723575,-26.788726 M 413.613064,447.314355 l 13.547807,76.833433 M 418.214093,415.820382 l -2.325643,-13.189378 M 422.879198,442.277508 l 14.534307,82.428153 M 426.669909,406.187992 l -0.298232,-1.691359 M 432.145332,437.240660 l 15.485280,87.821384 M 457.803242,525.166193 l -16.546729,-93.841161 M 450.269036,424.849881 l 17.706836,100.420460 M 474.244141,503.231752 l -12.558796,-71.224472"
       id="path51" />
  </g>
  <g
     inkscape:label="fill-aeaeae"
     inkscape:groupmode="layer"
     id="fill-aeaeae">
    <path
       style="stroke:#aeaeae"
       d="M 600.227498,715.007094 l 0.346160,1.780841 M 613.322739,729.967841 l -5.915548,-30.432854 M 614.586885,684.062879 l 11.484935,59.084867 M 638.820901,756.327651 l -17.054322,-87.736880 M 630.936924,663.359677 l 20.633058,106.147879 M 664.319063,782.687461 l -21.489447,-110.553618 M 655.392735,684.357054 l 21.675409,111.510313 M 689.817225,809.047272 l -21.861372,-112.467007 M 680.518972,708.803476 l 22.047334,113.423701 M 715.315387,835.407082 l -22.233297,-114.380395 M 705.645209,733.249897 l 19.052827,98.018296 M 732.125139,817.068897 l -13.916811,-71.595788 M 730.771446,757.696319 l 8.780796,45.173280 M 746.979345,788.670302 l -3.644781,-18.750772"
       id="path54" />
  </g>
  <g
     inkscape:label="fill-b3b3b3"
     inkscape:groupmode="layer"
     id="fill-b3b3b3">
    <path
       style="stroke:#b3b3b3"
       d="M 237.320488,570.512409 l 0.636252,3.273234 M 247.515340,570.551946 l -1.266640,-6.516296 M 255.176913,557.558891 l 1.277794,6.573679 M 265.394073,557.713193 l -1.288948,-6.631061 M 273.033338,544.605373 l 1.300102,6.688444 M 283.272806,544.874440 l -1.311256,-6.745827 M 290.889763,531.651854 l 1.322410,6.803209 M 301.151539,532.035687 l -1.333564,-6.860592 M 308.746188,518.698336 l 1.344718,6.917975 M 319.030272,519.196935 l -1.240084,-6.379677 M 327.587252,510.810348 l 0.382387,1.967210 M 407.568098,450.600254 l -0.605871,-3.116937 M 415.890531,441.007032 l 0.891215,4.584904 M 425.995395,440.583618 l -1.176559,-6.052870 M 433.747141,428.054464 l 1.461903,7.520836 M 444.163998,429.236116 l -1.488552,-7.657936 M 451.603751,415.101897 l 1.499065,7.712022 M 462.056468,416.468035 l -1.524413,-7.842423 M 469.460361,402.149329 l 1.535442,7.899166 M 479.935137,403.628953 l -1.546472,-7.955908 M 487.316970,389.196761 l 1.557502,8.012651 M 497.813806,390.789871 l -1.568531,-8.069394 M 505.173580,376.244193 l 1.579561,8.126137 M 515.692476,377.950789 l -1.590591,-8.182880 M 523.030190,363.291625 l 1.601620,8.239623 M 533.571145,365.111707 l -1.612650,-8.296366 M 540.886800,350.339057 l 1.623680,8.353108 M 551.449814,352.272624 l -1.634709,-8.409851 M 558.743409,337.386489 l 1.645739,8.466594 M 569.328483,339.433542 l -1.656769,-8.523337 M 576.600019,324.433921 l 1.667799,8.580080 M 587.207152,326.594460 l -1.678828,-8.636823 M 594.456629,311.481353 l 1.689858,8.693565 M 605.085821,313.755378 l -1.700888,-8.750308 M 612.313239,298.528786 l 1.711917,8.807051 M 622.964490,300.916296 l -1.722947,-8.863794 M 630.169848,285.576218 l 1.733977,8.920537 M 640.843160,288.077213 l -1.163854,-5.987509 M 649.416999,279.777361 l 0.365496,1.880311"
       id="path57" />
  </g>
  <g
     inkscape:label="fill-bbbbbb"
     inkscape:groupmode="layer"
     id="fill-bbbbbb">
    <path
       style="stroke:#bbbbbb"
       d="M 415.850333,577.740697 l 1.361571,6.405688 M 429.419461,588.671349 l -5.687142,-26.755902 M 435.125286,562.608064 l 6.501733,30.588248 M 453.834576,597.721275 l -7.316323,-34.420594 M 457.911219,563.993299 l 8.130913,38.252940 M 478.249690,606.771202 l -8.945504,-42.085286 M 480.737207,565.566970 l 9.720041,45.729196 M 502.664804,615.821129 l -9.737068,-45.809304 M 505.118266,574.456679 l 9.754096,45.889413 M 527.079919,624.871056 l -9.771123,-45.969522 M 529.499325,583.346388 l 9.788151,46.049631 M 551.495033,633.920982 l -9.805179,-46.129739 M 553.880384,592.236098 l 9.822206,46.209848 M 575.910148,642.970909 l -9.839234,-46.289957 M 578.261443,601.125807 l 9.856262,46.370066 M 600.325262,652.020836 l -9.873289,-46.450174 M 603.524524,614.165105 l 9.008295,42.380695 M 624.740376,661.070763 l -6.309113,-29.682042 M 630.041601,633.103985 l 6.906333,32.491741 M 649.155491,670.120689 l -7.503553,-35.301440 M 653.262275,636.534515 l 8.100773,38.111138 M 673.570605,679.170616 l -8.697992,-40.920837 M 676.482950,639.965044 l 9.295212,43.730536 M 697.985720,688.220543 l -9.892432,-46.540234 M 700.164548,645.564046 l 10.028729,47.181460 M 722.400834,697.270470 l -10.046464,-47.264896 M 724.544193,654.447102 l 10.064198,47.348331 M 746.815948,706.320397 l -10.081933,-47.431766 M 748.923838,663.330158 l 10.099668,47.515202 M 769.152140,705.589760 l -8.038480,-37.818074 M 773.303483,672.213214 l 1.630955,7.673042"
       id="path60" />
  </g>
  <g
     inkscape:label="fill-cdcdcd"
     inkscape:groupmode="layer"
     id="fill-cdcdcd">
    <path
       style="stroke:#cdcdcd"
       d="M 309.645306,521.142518 l 0.834528,3.114501 M 323.081857,524.923967 l -1.811822,-6.761810 M 332.894764,515.181795 l 2.789115,10.409120 M 348.285902,526.257863 l -3.766409,-14.056430 M 356.379662,510.099750 l 4.508262,16.825062 M 373.489946,527.591759 l -3.450501,-12.877445 M 383.447925,518.391004 l 2.644043,9.867703 M 398.693991,528.925656 l -2.146630,-8.011333 M 409.431312,522.633442 l 1.864702,6.959162 M 423.898036,530.259552 l -1.705329,-6.364376 M 434.795404,524.564644 l 1.704654,6.361856 M 449.102081,531.593448 l -1.748544,-6.525654 M 459.809864,525.191000 l 1.894239,7.069396 M 474.306125,532.927345 l -2.158565,-8.055876 M 481.286168,512.612779 l 5.621980,20.981514 M 499.510170,534.261241 l -5.639702,-21.047656 M 506.454767,513.814390 l 5.657425,21.113799 M 524.714215,535.595137 l -5.675148,-21.179942 M 531.623366,515.016001 l 5.692871,21.246084 M 549.918260,536.929033 l -5.710594,-21.312227 M 556.791965,516.217612 l 5.728317,21.378370 M 575.122304,538.262930 l -5.746040,-21.444512 M 581.960564,517.419223 l 5.763763,21.510655 M 600.326349,539.596826 l -5.781486,-21.576798 M 607.129163,518.620834 l 5.799208,21.642940 M 625.530394,540.930722 l -5.816931,-21.709083 M 632.297762,519.822445 l 5.834654,21.775226 M 650.734439,542.264619 l -5.852377,-21.841369 M 657.466361,521.024056 l 5.870100,21.907511 M 675.938483,543.598515 l -5.887823,-21.973654 M 682.634960,522.225666 l 5.905546,22.039797 M 701.142528,544.932411 l -5.923269,-22.105939 M 707.803559,523.427277 l 5.940991,22.172082 M 726.346573,546.266308 l -5.958714,-22.238225 M 732.972158,524.628888 l 5.976437,22.304367 M 751.550618,547.600204 l -5.994160,-22.370510 M 758.140757,525.830499 l 6.011883,22.436653 M 776.754663,548.934100 l -6.029606,-22.502796 M 783.309356,527.032110 l 6.047329,22.568938 M 801.958707,550.267997 l -6.065052,-22.635081 M 808.477955,528.233721 l 6.082775,22.701224 M 827.162752,551.601893 l -6.100497,-22.767366 M 833.646554,529.435332 l 6.118220,22.833509 M 852.366797,552.935789 l -6.135943,-22.899652 M 858.815153,530.636943 l 6.153666,22.965794 M 877.570842,554.269685 l -6.171389,-23.031937 M 883.983752,531.838554 l 5.566721,20.775285 M 900.672015,547.755559 l -4.103963,-15.316200 M 909.152351,533.040165 l 2.641206,9.857114 M 922.915099,538.038999 l -1.178448,-4.398029"
       id="path63" />
  </g>
  <g
     inkscape:label="fill-d4d4d4"
     inkscape:groupmode="layer"
     id="fill-d4d4d4">
    <path
       style="stroke:#d4d4d4"
       d="M 302.670389,523.841680 l 8.370280,31.238311 M 323.669414,555.846667 l -8.396711,-31.336954 M 327.875015,525.177747 l 8.423143,31.435596 M 348.926903,557.380020 l -8.449574,-31.534239 M 353.079642,526.513815 l 8.476005,31.632881 M 374.184391,558.913372 l -8.502436,-31.731524 M 378.284268,527.849882 l 8.528867,31.830167 M 399.441880,560.446725 l -8.555299,-31.928809 M 403.488895,529.185949 l 8.581730,32.027452 M 424.699369,561.980077 l -8.608161,-32.126094 M 428.693521,530.522016 l 8.634592,32.224737 M 449.956858,563.513429 l -8.661023,-32.323380 M 453.898148,531.858083 l 8.687455,32.422022 M 475.214347,565.046782 l -8.713886,-32.520665 M 479.102774,533.194151 l 8.740317,32.619307 M 500.471836,566.580134 l -8.766748,-32.717950 M 504.307401,534.530218 l 8.793179,32.816592 M 525.729325,568.113486 l -8.819611,-32.915235 M 529.512027,535.866285 l 8.846042,33.013878 M 550.986813,569.646839 l -8.872473,-33.112520 M 554.716654,537.202352 l 8.898904,33.211163 M 576.244302,571.180191 l -8.925335,-33.309805 M 579.921280,538.538419 l 8.951767,33.408448 M 601.501791,572.713543 l -8.978198,-33.507091 M 605.125907,539.874487 l 9.004629,33.605733 M 626.759280,574.246896 l -9.031060,-33.704376 M 630.330533,541.210554 l 9.057491,33.803018 M 652.016769,575.780248 l -9.083923,-33.901661 M 655.535159,542.546621 l 9.110354,34.000303 M 677.274258,577.313601 l -9.136785,-34.098946 M 680.739786,543.882688 l 9.163216,34.197589 M 702.531747,578.846953 l -9.189647,-34.296231 M 705.944412,545.218755 l 9.216079,34.394874 M 727.789235,580.380305 l -9.242510,-34.493516 M 731.149039,546.554823 l 9.268941,34.592159 M 753.046724,581.913658 l -9.295372,-34.690802 M 756.353665,547.890890 l 9.321803,34.789444 M 778.304213,583.447010 l -9.348235,-34.888087 M 781.558292,549.226957 l 9.374666,34.986729 M 803.561702,584.980362 l -9.401097,-35.085372 M 806.762918,550.563024 l 9.427528,35.184015 M 828.819191,586.513715 l -9.453959,-35.282657 M 831.967545,551.899091 l 9.480391,35.381300 M 854.076680,588.047067 l -9.506822,-35.479942 M 857.172171,553.235158 l 9.533253,35.578585 M 879.334169,589.580420 l -9.559684,-35.677227 M 882.376798,554.571226 l 2.488553,9.287404"
       id="path66" />
  </g>
</svg>
