<?xml version="1.0" encoding="UTF-8" standalone="no"?>
<!-- Created with Inkscape (http://www.inkscape.org/) -->

<svg
   xmlns:dc="http://purl.org/dc/elements/1.1/"
   xmlns:cc="http://creativecommons.org/ns#"
   xmlns:rdf="http://www.w3.org/1999/02/22-rdf-syntax-ns#"
   xmlns:svg="http://www.w3.org/2000/svg"
   xmlns="http://www.w3.org/2000/svg"
   xmlns:sodipodi="http://sodipodi.sourceforge.net/DTD/sodipodi-0.dtd"
   xmlns:inkscape="http://www.inkscape.org/namespaces/inkscape"
   id="svg2"
   version="1.1"
   inkscape:version="0.48.3.1 r9886"
   width="1500"
   height="1269"
   sodipodi:docname="hantologie-_0001_oiseau-noir_hatched_1398271507.svg">
  <defs
     id="defs27" />
  <sodipodi:namedview
     pagecolor="#ffffff"
     bordercolor="#666666"
     borderopacity="1"
     objecttolerance="10"
     gridtolerance="10"
     guidetolerance="10"
     inkscape:pageopacity="0"
     inkscape:pageshadow="2"
     inkscape:window-width="640"
     inkscape:window-height="480"
     id="namedview25" />
  <metadata
     id="metadata8">
    <rdf:RDF>
      <cc:Work
         rdf:about="">
        <dc:format>image/svg+xml </dc:format>
        <dc:type
           rdf:resource="http://purl.org/dc/dcmitype/StillImage" />
        <dc:title />
      </cc:Work>
    </rdf:RDF>
  </metadata>
  <g
     inkscape:label="fill-0c0c0c"
     inkscape:groupmode="layer"
     id="fill-0c0c0c">
    <path
       style="stroke:#0c0c0c"
       d="M 529.366427,369.483435 l -2.041177,0.250625 M 478.993686,375.668430 l 27.358285,-3.359175 M 509.343844,376.979448 l -38.605488,4.740158 M 456.494223,388.506115 l 54.559441,-6.699057 M 512.364107,386.683705 l -60.768782,7.461468 M 450.072995,399.369641 l 63.508663,-7.797883 M 513.553566,396.612756 l -59.800023,7.342520 M 451.936289,409.215955 l 60.723792,-7.455944 M 511.730709,406.911673 l -59.149141,7.262601 M 529.747058,409.737093 l 3.116532,-0.382662 M 510.896566,412.051642 l -56.214510,6.902274 M 570.949683,409.715596 l 5.019396,-0.616304 M 552.050400,412.036136 l -25.877907,3.177407 M 453.646940,424.118561 l 56.642188,-6.954786 M 553.398641,416.908142 l -30.254491,3.714784 M 451.807660,429.381946 l 58.130015,-7.137468 M 576.287933,419.135239 l -6.363424,0.781330 M 528.266525,425.031527 l 22.957881,-2.818873 M 494.750006,429.146838 l -45.382023,5.572212 M 568.453251,425.134766 l 8.494805,-1.043031 M 549.849432,427.419028 l -6.150079,0.755135 M 495.112055,434.139933 l 0.838068,-0.102902 M 478.954140,436.123875 l -32.229854,3.957328 M 567.085023,430.340313 l 12.896642,-1.583508 M 513.339179,436.939472 l -14.043933,1.724378 M 451.997158,444.471326 l 16.319948,-2.003838 M 585.168746,433.157460 l -19.918897,2.445733 M 541.737491,438.490147 l 4.714637,-0.578885 M 530.878930,439.823411 l -36.343540,4.462426 M 447.460057,450.065961 l 13.193634,-1.619975 M 589.161106,437.704809 l -27.422314,3.367037 M 479.840615,451.127677 l 58.821439,-7.222365 M 462.746851,453.226528 l -2.066226,0.253701 M 267.549141,477.193793 l 13.914274,-1.708458 M 594.435509,442.094743 l -21.763189,2.672184 M 555.921374,446.823684 l 14.317987,-1.758028 M 543.205590,448.384986 l -50.273272,6.172782 M 473.074369,456.996017 l 17.273834,-2.120960 M 455.301101,459.178300 l -4.798403,0.589170 M 433.024328,461.913544 l 3.656085,-0.448911 M 291.823026,479.250883 l -29.446191,3.615538 M 576.060320,449.388481 l 22.257409,-2.732866 M 570.376281,450.086393 l -79.460056,9.756468 M 466.705840,462.815523 l 18.892452,-2.319701 M 296.034865,483.771284 l -32.322356,3.968686 M 580.869467,453.835541 l 23.922087,-2.937263 M 559.514459,456.457607 l -72.602652,8.914485 M 466.512769,467.876778 l 14.575316,-1.789624 M 294.916229,488.946184 l -22.366698,2.746285 M 584.166011,458.468326 l 21.913855,-2.690683 M 567.006421,460.575258 l -83.623334,10.267654 M 471.451840,472.307886 l 5.646679,-0.693325 M 440.316234,476.130857 l -8.334041,1.023292 M 408.853789,479.993960 l 7.439772,-0.913489 M 296.620990,493.774415 l -17.042663,2.092576 M 585.111110,463.389831 l 27.083209,-3.325400 M 569.880459,465.259920 l -88.687333,10.889435 M 465.323593,478.097889 l 7.787157,-0.956143 M 426.673890,482.843476 l -26.228297,3.220430 M 383.295950,488.169617 l 5.648067,-0.693495 M 349.270919,492.347366 l -21.936277,2.693436 M 287.609061,499.918490 l 12.265415,-1.506004 M 619.960806,464.148376 l -34.674123,4.257447 M 530.997105,475.071745 l 38.833348,-4.768136 M 526.248489,475.654801 l -62.797760,7.710595 M 371.936571,494.601923 l 52.895385,-6.494737 M 367.140265,495.190835 l -39.143381,4.806203 M 315.004279,501.592329 l 8.763607,-1.076036 M 302.551100,503.121387 l -11.861654,1.456428 M 584.908365,473.489823 l 37.270078,-4.576190 M 567.810760,475.589146 l -33.129344,4.067772 M 455.825943,489.339152 l 69.538798,-8.538291 M 449.722894,490.088512 l -6.677930,0.819947 M 325.155060,505.383519 l 97.805793,-12.009041 M 319.467525,506.081860 l -5.892318,0.723486 M 295.274859,509.052346 l 6.463246,-0.793587 M 622.893255,473.863415 l -40.669741,4.993616 M 532.094995,485.012039 l 32.895563,-4.039067 M 525.403978,485.833593 l -39.637095,4.866823 M 473.922316,492.154746 l 9.660235,-1.186128 M 462.484313,493.559156 l -27.721651,3.403791 M 329.955000,509.831710 l 90.668740,-11.132721 M 319.875248,511.069348 l -6.071352,0.745468 M 305.665730,512.814057 l 3.403408,-0.417886 M 298.400543,513.706110 l -0.797297,0.097896 M 578.990030,484.291602 l 43.193127,-5.303449 M 561.686110,486.416256 l -32.789292,4.026019 M 474.190850,497.159323 l 49.349950,-6.059412 M 458.512512,499.084381 l -30.102303,3.696098 M 331.493269,514.680383 l 83.782559,-10.287205 M 320.012267,516.090073 l -18.264692,2.242622 M 576.344217,489.654016 l 43.960136,-5.397626 M 557.914231,491.916934 l -25.141884,3.087035 M 504.186090,498.513920 l 11.611549,-1.425719 M 502.162598,498.762374 l -38.198752,4.690217 M 414.116924,509.573023 l 38.885208,-4.774503 M 409.367818,510.156140 l -58.519424,7.185282 M 317.764803,521.403576 l 6.638869,-0.815151 M 315.110399,521.729496 l -8.161624,1.002121 M 572.025875,495.221791 l 45.774761,-5.620434 M 553.279798,497.523520 l -22.056688,2.708221 M 413.810962,514.648140 l 95.025794,-11.667700 M 403.559542,515.906856 l -66.430063,8.156586 M 318.837242,526.309446 l 13.244128,-1.626174 M 611.416053,495.422834 l -46.253200,5.679179 M 441.420333,516.295684 l 59.927362,-7.358155 M 436.569724,516.891264 l -14.207138,1.744417 M 329.442752,530.044802 l 68.544210,-8.416171 M 326.743245,530.376260 l -8.024492,0.985284 M 555.652884,507.307240 l 50.796373,-6.237010 M 511.342857,512.747827 l -39.617441,4.864410 M 454.321784,519.749134 l 11.932873,-1.465173 M 452.343448,519.992043 l -9.165267,1.125353 M 427.277401,523.069767 l 10.573078,-1.298211 M 389.008958,527.768541 l -53.115984,6.521823 M 580.151317,509.336759 l 20.205127,-2.480878 M 572.609605,510.262765 l -17.107564,2.100545 M 473.486820,522.433513 l 49.220820,-6.043557 M 471.443773,522.684368 l -14.071599,1.727775 M 427.836867,528.038622 l 20.051753,-2.462046 M 418.897527,529.136235 l -16.102928,1.977191 M 340.598593,538.750136 l 31.524225,-3.870688 M 332.928342,539.691924 l -6.777618,0.832187 M 548.679298,518.238587 l 23.524644,-2.888463 M 523.842005,521.288223 l -59.184269,7.266914 M 438.063012,531.820559 l 7.216013,-0.886015 M 423.620885,533.593829 l -6.097777,0.748713 M 395.483044,537.048721 l 1.111825,-0.136515 M 572.236323,520.383697 l -27.242208,3.344923 M 459.621217,534.211093 l 66.108968,-8.117161 M 580.502457,524.406292 l -36.804577,4.519034 M 520.049540,531.828977 l 4.388089,-0.538790 M 517.715356,532.115579 l -57.922543,7.111994 M 412.770127,545.001233 l 28.155436,-3.457053 M 376.349162,549.473165 l -7.771013,0.954160 M 542.556901,534.102970 l 39.367933,-4.833774 M 523.314812,536.465601 l -2.736894,0.336048 M 457.419448,544.556535 l 58.902193,-7.232280 M 434.981347,547.311587 l -50.161261,6.159028 M 362.662174,556.191265 l 11.262112,-1.382814 M 585.107930,533.915910 l -43.863715,5.385787 M 517.243879,542.248567 l 7.707494,-0.946361 M 515.239088,542.494725 l -67.239088,8.255922 M 389.037067,557.990384 l 47.952871,-5.887872 M 368.673557,560.490709 l -6.817453,0.837078 M 538.405554,544.687789 l 50.941745,-6.254860 M 525.683901,546.249812 l -77.683901,9.538384 M 436.926934,557.147797 l 9.664039,-1.186595 M 435.689276,557.299763 l -4.571293,0.561284 M 391.579323,562.715784 l 22.088512,-2.712128 M 589.013813,543.511426 l -55.515798,6.816483 M 522.416448,551.688554 l 3.787306,-0.465023 M 511.193637,553.066542 l -80.646748,9.902176 M 395.855132,567.228330 l 27.327554,-3.355402 M 594.774267,547.841680 l -9.360555,1.149332 M 575.697484,550.184014 l 3.527482,-0.433120 M 573.340931,550.473363 l -10.476808,1.286390 M 531.396866,555.623446 l 13.475537,-1.654588 M 525.421156,556.357171 l -11.655578,1.431125 M 495.084605,560.082031 l 11.569076,-1.420504 M 491.990835,560.461899 l -80.413969,9.873594 M 559.190729,557.248338 l 37.674967,-4.625904 M 535.221911,560.191339 l -2.042811,0.250826 M 406.557073,575.989395 l 91.096809,-11.185282 M 363.490011,581.277365 l -1.510890,0.185514 M 581.098796,559.595915 l 11.748695,-1.442558 M 544.300180,564.114217 l -5.959962,0.731791 M 519.971855,567.101360 l 4.005805,-0.491851 M 494.239549,570.260889 l -6.555715,0.804941 M 471.487726,573.054462 l 10.603556,-1.301953 M 462.185044,574.196688 l -57.184230,7.021341 M 366.515747,585.943400 l 3.595063,-0.441418 M 601.488543,562.129918 l -14.077442,1.728492 M 454.658185,580.158419 l 25.975806,-3.189428 M 446.290709,581.185816 l -47.781145,5.866787 M 595.703950,567.877726 l 12.566998,-1.543033 M 574.334795,570.501528 l -0.544781,0.066891 M 541.997420,574.472058 l 3.582055,-0.439821 M 534.086627,575.443382 l -2.055718,0.252410 M 463.656460,584.091119 l 27.907246,-3.426579 M 462.607628,584.219899 l -7.457591,0.915677 M 400.703648,591.820752 l 50.392972,-6.187479 M 382.901763,594.006549 l -0.040337,0.004953 M 578.155589,575.069943 l 19.241104,-2.362511 M 566.403793,576.512882 l -3.508550,0.430796 M 551.266712,578.371482 l 7.860418,-0.965138 M 528.241090,581.198673 l -2.807400,0.344705 M 496.681141,585.073747 l 8.293647,-1.018332 M 493.322131,585.486182 l -10.813940,1.327785 M 465.308917,588.925772 l 5.515214,-0.677183 M 463.264819,589.176755 l -67.268234,8.259501 M 550.882231,583.456239 l 9.799065,-1.203174 M 547.085523,583.922416 l -13.604867,1.670468 M 504.394743,589.164185 l 17.617996,-2.163218 M 503.291287,589.299672 l -12.621439,1.549718 M 399.226430,602.077230 l 78.109180,-9.590601 M 581.204190,584.770720 l -5.734981,0.704167 M 557.126426,587.727098 l 11.167873,-1.371242 M 510.275146,593.479711 l -11.247344,1.381000 M 487.506567,596.275341 l 6.123020,-0.751812 M 468.142714,598.652924 l -52.921841,6.497985 M 406.082646,606.272942 l 8.516757,-1.045726 M 596.474892,587.933262 l -4.994076,0.613195 M 519.435189,597.392549 l 2.245182,-0.275674 M 596.927687,592.915215 l -15.541156,1.908214 M 525.279709,601.712481 l 9.465742,-1.162247 M 590.095689,598.791628 l -9.789917,1.202051 M 532.540703,605.858492 l 7.299503,-0.896266"
       id="path5" />
  </g>
  <g
     inkscape:label="fill-2d2d2d"
     inkscape:groupmode="layer"
     id="fill-2d2d2d">
    <path
       style="stroke:#2d2d2d"
       d="M 279.617826,458.815628 l -11.056802,6.383647 M 259.001925,482.265230 l 17.044085,-9.840407 M 315.739651,461.054694 l -13.145099,7.589327 M 261.218136,492.532705 l 29.749701,-17.175998 M 495.533069,368.797920 l -52.898108,30.540737 M 319.756476,470.282584 l 3.347599,-1.932737 M 302.757387,480.097013 l -2.013142,1.162288 M 267.227495,500.610205 l 32.694278,-18.876050 M 510.030366,371.974908 l -60.967198,35.199428 M 434.453814,415.609050 l 11.443696,-6.607021 M 334.380351,473.386491 l -1.159888,0.669662 M 284.796839,502.013545 l 17.901773,-10.335593 M 533.400622,370.029089 l -5.315055,3.068648 M 444.978791,421.079457 l 68.383139,-39.481024 M 433.460580,427.729500 l -2.990071,1.726318 M 316.446016,495.287889 l 25.970707,-14.994195 M 307.560310,500.418054 l -22.209307,12.822549 M 529.639245,383.747727 l 16.414691,-9.477026 M 515.118156,392.131481 l -67.150851,38.769562 M 295.806904,518.750892 l 55.356386,-31.960024 M 554.837137,380.746722 l -21.661243,12.506124 M 439.627124,447.263255 l 73.829827,-42.625671 M 432.699095,451.263154 l -5.684042,3.281683 M 328.591346,511.369791 l 42.704563,-24.655491 M 326.868127,512.364692 l -22.288724,12.868401 M 558.024743,390.453363 l 6.584464,-3.801542 M 537.232933,402.457520 l -21.444405,12.380933 M 426.128755,466.603547 l 85.005986,-49.078229 M 413.216639,474.058360 l -4.945420,2.855240 M 313.961611,531.363277 l 83.718373,-48.334825 M 578.274986,390.308885 l -14.170532,8.181360 M 440.252646,469.996120 l 104.849879,-60.535106 M 436.987092,471.881488 l -115.741178,66.823200 M 435.269810,484.419967 l 155.499590,-89.777730 M 431.228688,486.753110 l -94.980202,54.836845 M 325.016645,548.074662 l 7.590740,-4.382516 M 582.358151,411.045479 l -14.529598,8.388667 M 426.949095,500.770939 l 124.043671,-71.616647 M 424.534533,502.164987 l -74.721376,43.140406 M 344.217317,548.536154 l 3.412037,-1.969941 M 587.017719,419.902282 l -22.102457,12.760860 M 393.277119,531.758469 l 161.317782,-93.136865 M 596.056562,426.230709 l -236.192273,136.365672 M 376.190435,564.717482 l 230.112750,-132.855658 M 616.482905,437.531565 l -34.461703,19.896474 M 377.552006,575.478384 l 195.034005,-112.602936 M 368.020697,580.981287 l -6.541182,3.776553 M 583.454042,468.147793 l 38.459989,-22.204885 M 568.820598,476.596416 l -38.617743,22.295964 M 384.542357,582.989508 l 131.973884,-76.195158 M 376.494477,587.635953 l -7.843605,4.528507 M 577.898084,482.902532 l 47.041131,-27.159210 M 556.538297,495.234611 l -14.421503,8.326258 M 376.789653,599.012539 l 152.726215,-88.176521 M 625.597507,466.910263 l -76.761780,44.318434 M 392.403216,601.545050 l 135.597525,-78.287268 M 390.921390,602.400582 l -3.431905,1.981411 M 543.346726,525.944779 l 80.543961,-46.502077 M 526.849639,535.469376 l -126.315562,72.928324 M 585.288596,513.276634 l 27.640639,-15.958330 M 580.895099,515.813221 l -41.192831,23.782692 M 413.908783,612.222816 l 113.446906,-65.498601 M 605.481410,513.165313 l -3.777460,2.180917 M 425.044591,617.340559 l 174.037854,-100.480802 M 652.605572,497.505171 l -6.845297,3.952134 M 448.579782,615.299516 l 161.173075,-93.053318 M 623.360399,525.936885 l -7.147310,4.126502 M 494.519082,600.323454 l 120.821723,-69.756454 M 492.341731,601.580548 l -17.137201,9.894168 M 499.755508,608.847207 l 129.430457,-74.726709 M 639.396531,539.772430 l -134.590981,77.706139 M 634.545528,554.120164 l 6.336647,-3.658465 M 632.355383,555.384645 l -103.961026,60.021926 M 569.717365,603.095727 l 29.757532,-17.180519 M 599.089885,597.684499 l -15.375921,8.877292 M 574.149075,612.084083 l 3.070371,-1.772680 M 811.393889,613.674790 l -1.315980,0.759782 M 818.259953,621.257672 l 2.185457,-1.261774"
       id="path8" />
  </g>
  <g
     inkscape:label="fill-505050"
     inkscape:groupmode="layer"
     id="fill-505050">
    <path
       style="stroke:#505050"
       d="M 248.571888,473.219412 l -1.415318,2.021284 M 271.047806,467.272176 l 9.184581,-13.116941 M 268.970853,470.238373 l -11.915153,17.016602 M 289.895160,466.507066 l 5.576037,-7.963407 M 285.045000,473.433813 l -19.661138,28.079015 M 277.552263,510.286252 l 36.996331,-52.836236 M 325.013328,468.656529 l -4.911676,7.014601 M 314.827026,483.204076 l 2.831036,-4.043139 M 308.509038,492.227097 l -18.498469,26.418552 M 302.964689,526.296950 l 36.382556,-51.959674 M 350.794291,484.140902 l -36.386186,51.964860 M 322.505938,550.692558 l 45.887957,-65.534795 M 460.276421,380.087621 l -39.593354,56.545170 M 339.179934,553.031326 l 53.031765,-75.737209 M 335.869830,557.758645 l -1.525661,2.178870 M 435.787649,441.212912 l 49.878361,-71.233681 M 434.599142,442.910277 l -73.203255,104.545083 M 343.737269,572.674480 l 5.192507,-7.415669 M 508.574068,363.414836 l -144.087289,205.777974 M 354.692347,583.180708 l 8.179389,-11.681378 M 527.744005,362.189030 l -6.002124,8.571922 M 374.818782,580.588883 l 141.251888,-201.728602 M 373.359314,582.673220 l -6.646926,9.492795 M 547.313894,360.392035 l 13.838517,-19.763450 M 542.111808,367.821383 l -15.616603,22.302820 M 516.629241,404.214260 l 8.536105,-12.190822 M 512.994472,409.405248 l -134.391976,191.931633 M 541.876173,394.309606 l 29.077248,-41.526613 M 538.920110,398.531302 l -146.640518,209.424364 M 557.796014,397.725420 l 20.167341,-28.801947 M 550.738051,407.805235 l -143.797201,205.363686 M 421.625506,618.348760 l 168.884341,-241.191836 M 595.766152,395.801847 l -72.880955,104.084790 M 438.580420,620.286336 l 79.523630,-113.571514 M 596.631881,420.717159 l -60.745963,86.754226 M 455.618956,622.104487 l 74.012423,-105.700694 M 612.995962,423.498531 l -32.220409,46.015513 M 542.507599,524.166346 l 14.678414,-20.962947 M 528.844171,543.679744 l -57.937934,82.743946 M 491.194597,623.600611 l 130.643886,-186.578805 M 626.917829,455.919448 l -114.337904,163.291450 M 617.082733,496.117123 l 6.966311,-9.948923 M 616.377219,497.124702 l -4.512796,6.444941 M 533.064210,616.108010 l 73.194902,-104.533153 M 635.806693,495.528240 l -2.672432,3.816629 M 626.512631,508.801535 l 0.930800,-1.329320 M 619.741468,518.471758 l -64.100677,91.545254 M 645.998253,507.124884 l 8.538914,-12.194833 M 629.198369,531.117606 l -57.792757,82.536611 M 656.229006,518.665557 l 14.028605,-20.034925 M 646.182783,533.013051 l -1.625985,2.322147 M 611.412042,582.670815 l 29.747400,-42.483690 M 601.895218,596.262248 l -5.890308,8.412231 M 665.327434,531.823358 l 14.269376,-20.378780 M 662.882265,535.315421 l -27.917367,39.870132 M 678.080011,539.762493 l 8.774993,-12.531989 M 672.577985,547.620200 l -12.251282,17.496644 M 656.003558,571.290934 l 3.211798,-4.586923 M 699.357820,535.526333 l -8.636646,12.334408 M 676.713918,567.865177 l 9.042157,-12.913539 M 708.703397,548.331168 l -5.847153,8.350600 M 693.127517,570.575829 l 1.654975,-2.363549 M 759.589409,580.265220 l -0.085810,0.122549 M 778.925598,604.953684 l 0.958997,-1.369590 M 801.600637,598.722074 l -2.251891,3.216034 M 790.030822,615.245482 l 1.051282,-1.501386 M 813.060028,608.508068 l -4.425463,6.320216 M 819.914509,624.870558 l 4.050576,-5.784822 M 835.715230,628.456492 l -5.767934,8.237463 M 846.784203,638.800062 l 1.038166,-1.482655 M 845.157149,641.123736 l -2.654500,3.791018 M 870.130374,657.761678 l 3.452942,-4.931312 M 885.621985,661.789067 l -1.384022,1.976589 M 877.155993,673.879756 l 3.962838,-5.659519 M 905.269561,659.881122 l -2.479974,3.541770 M 897.940801,670.347676 l 1.564723,-2.234655 M 891.951813,678.900837 l -0.848559,1.211868 M 915.638214,671.224852 l 2.379357,-3.398074 M 912.724894,675.385505 l -3.372214,4.816021 M 902.371735,690.171348 l 4.704103,-6.718156 M 931.804696,674.288426 l -2.785109,3.977548 M 913.564549,700.338055 l 4.338226,-6.195629 M 945.330719,681.122965 l -3.864136,5.518558 M 926.254499,708.366630 l 4.671063,-6.670970 M 958.732126,688.135474 l -4.051387,5.785980 M 938.929157,716.417045 l 3.777386,-5.394667 M 970.935567,696.858856 l -2.629401,3.755174 M 952.004725,723.894900 l 4.437600,-6.337550 M 969.767536,724.678680 l -5.327521,7.608488 M 977.261640,740.127691 l 5.318265,-7.595270 M 1004.811230,726.934501 l -2.213679,3.161461 M 990.410853,747.500371 l 4.107718,-5.866429 M 1016.966041,735.727334 l -2.011662,2.872951 M 1003.860301,754.444271 l 2.730026,-3.898881 M 1020.060039,757.460348 l -2.567844,3.667261 M 1031.261341,767.614934 l 2.798060,-3.996043 M 1048.193236,769.585384 l -3.296791,4.708305 M 1070.827509,763.411994 l 0.879927,-1.256666 M 1060.215952,778.566867 l -1.223737,1.747677 M 1073.656100,785.524049 l 4.202146,-6.001286 M 1101.168428,772.384074 l -2.073210,2.960850 M 1088.721349,790.160345 l 1.669038,-2.383634 M 1115.745217,777.717964 l -1.737051,2.480766 M 1104.037923,794.437713 l 3.804874,-5.433923 M 1130.951611,782.152685 l -0.304334,0.434635 M 1119.397596,798.653528 l 4.477315,-6.394268 M 1115.992704,803.516218 l -0.949174,1.355561 M 1143.199050,790.813232 l 0.789557,-1.127605 M 1139.448968,796.168903 l -4.490984,6.413790 M 1131.299863,807.807031 l 1.441349,-2.058460 M 1170.334556,778.211415 l -0.075497,0.107820 M 1150.535849,806.486899 l 5.636251,-8.049401 M 1186.489736,781.291128 l -0.307310,0.438884 M 1166.453058,809.906470 l 6.586877,-9.407035 M 1163.669882,813.881257 l -1.157690,1.653352 M 1184.122640,810.823394 l 5.749925,-8.211743 M 1179.564368,817.333281 l -1.268881,1.812150 M 1201.575363,812.050024 l 5.167375,-7.379777 M 1224.033109,806.128741 l -6.226917,8.892960 M 1211.106887,824.589299 l 1.197820,-1.710664 M 1241.387956,807.495152 l -5.811670,8.299925 M 1229.704871,824.180327 l 1.436717,-2.051844 M 1247.898958,824.348180 l -2.216985,3.166182 M 1286.603213,795.224477 l 9.318912,-13.308785 M 1264.597214,826.652301 l -1.792152,2.559458"
       id="path11" />
  </g>
  <g
     inkscape:label="fill-6e6e6e"
     inkscape:groupmode="layer"
     id="fill-6e6e6e">
    <path
       style="stroke:#6e6e6e"
       d="M 219.595522,466.824934 l -0.829847,3.594463 M 238.668664,468.672896 l 0.399553,-1.730653 M 238.321701,470.175758 l -0.521463,2.258703 M 258.977700,465.167613 l 1.936845,-8.389395 M 256.907329,474.135377 l -2.819479,12.212506 M 277.836946,467.942064 l 3.727986,-16.147683 M 277.374593,469.944737 l -8.155700,35.326219 M 301.142547,451.457232 l 0.398811,-1.727441 M 299.444713,458.811361 l -2.699781,11.694038 M 286.027185,516.929059 l 10.427561,-45.166729 M 318.841235,459.258611 l -15.915258,68.936555 M 318.127179,546.814346 l 17.600722,-76.237102 M 352.090055,484.167785 l -17.974773,77.857295 M 354.680119,557.411804 l 17.721799,-76.761546 M 354.098911,559.929294 l -5.140556,22.266193 M 365.588112,594.626912 l 27.504565,-119.135358 M 424.516515,423.842777 l -41.722005,180.717859 M 400.570980,612.025103 l 52.636486,-227.993668 M 475.338615,372.633714 l -56.779164,245.937581 M 437.143522,622.537655 l 58.903640,-255.139697 M 518.316209,355.402940 l -62.338735,270.018726 M 475.365355,625.906342 l 62.013487,-268.609924 M 561.111230,338.962975 l -3.956569,17.137784 M 547.917426,396.111615 l 8.413353,-36.442234 M 546.771206,401.076441 l -1.201339,5.203572 M 495.307949,623.988299 l 49.865173,-215.989792 M 573.088834,371.545088 l -35.754619,154.870269 M 515.791823,619.725709 l 21.370995,-92.567951 M 591.726425,375.279633 l -25.173754,109.039510 M 536.134011,616.076830 l 27.650399,-119.767036 M 604.082838,406.220946 l -47.147351,204.217613 M 573.217752,624.375136 l 45.130403,-195.481253 M 626.316534,478.841862 l -29.117170,126.120321 M 636.184189,520.563171 l 6.589155,-28.540766 M 635.313636,524.333949 l -14.179730,61.419160 M 642.122180,579.305726 l 19.862076,-86.032104 M 679.632177,501.294894 l -17.387115,75.311868 M 694.445608,521.593693 l 2.001094,-8.667689 M 692.738200,528.989291 l -11.106207,48.106269 M 704.005801,564.646770 l 6.077413,-26.324167 M 703.040750,568.826863 l -2.062428,8.933357 M 723.402071,565.095110 l 3.256291,-14.104546 M 722.547738,568.795633 l -1.885252,8.165923 M 740.792628,574.231152 l 3.240333,-14.035426 M 740.473211,575.614696 l -2.792839,12.097114 M 758.210218,583.250099 l 2.842925,-12.314059 M 757.765752,585.175292 l -3.348298,14.503074 M 775.632584,592.248360 l 1.006264,-4.358608 M 775.291336,593.726467 l -5.837732,25.285994 M 792.763054,602.510960 l 2.353192,-10.192793 M 792.101637,605.375872 l -3.999910,17.325514 M 805.237951,632.939063 l 7.173492,-31.071807 M 828.503572,616.627405 l -7.359812,31.878846 M 840.020311,651.205744 l 4.377679,-18.961812 M 861.374659,643.172721 l -4.721397,20.450619 M 873.199298,676.417401 l 5.261302,-22.789202 M 897.451382,655.832900 l -1.094700,4.741667 M 894.133403,670.204648 l 1.438913,-6.232618 M 893.299033,673.818699 l -3.772395,16.340039 M 913.351377,671.425272 l 1.373105,-5.947571 M 912.781989,673.891563 l -6.447325,27.926433 M 929.521216,685.848825 l 2.799860,-12.127527 M 927.717678,693.660804 l -3.634495,15.742725 M 923.371282,712.487114 l 0.285726,-1.237614 M 949.828224,682.352327 l -2.636874,11.421555 M 941.198562,719.731500 l 2.161352,-9.361843 M 940.909369,720.984134 l -0.872594,3.779618 M 964.877085,701.631369 l 2.398823,-10.390443 M 964.533976,703.117534 l -0.492362,2.132653 M 957.877354,731.950535 l 3.333791,-14.440235 M 983.430975,705.728459 l -1.036007,4.487439 M 980.922715,716.592928 l 0.724219,-3.136936 M 978.555338,726.847164 l -4.187995,18.140201 M 999.871958,718.977556 l 0.799217,-3.461788 M 999.085333,722.384801 l -1.385198,5.999953 M 990.695855,758.723625 l 4.939484,-21.395254 M 1017.730254,726.087596 l -0.320061,1.386335 M 1014.171040,741.504246 l 2.030844,-8.796551 M 1012.724191,747.771238 l -4.076433,17.656970 M 1035.038403,735.580583 l 0.566008,-2.451650 M 1033.200448,743.541640 l -1.203041,5.210941 M 1026.489503,772.609939 l 3.379082,-14.636410 M 1053.323841,740.840468 l -0.576614,2.497589 M 1049.257014,758.455833 l 1.854509,-8.032759 M 1047.700593,765.197430 l -4.437069,19.219056 M 1070.575396,750.578592 l 0.915940,-3.967373 M 1069.039579,757.230946 l -1.753768,7.596404 M 1062.213849,786.796430 l 3.202066,-13.869672 M 1089.438208,753.337596 l -0.846861,3.668158 M 1085.322494,771.164710 l 2.266681,-9.818074 M 1083.509608,779.017184 l -4.026200,17.439388 M 1106.621607,763.370934 l 0.853534,-3.697063 M 1105.663037,767.522959 l -2.710539,11.740636 M 1097.905544,801.124353 l 3.984556,-17.259006 M 1126.084951,763.528748 l -1.252859,5.426729 M 1121.073862,785.234161 l 2.722875,-11.794068 M 1120.496611,787.734510 l -4.773626,20.676845 M 1143.796340,771.275111 l 0.402215,-1.742183 M 1141.948073,779.280836 l -7.254554,31.422925 M 1161.344617,779.727994 l 1.503968,-6.514399 M 1160.010097,785.508432 l -7.188248,31.135722 M 1179.696731,784.699071 l 2.246309,-9.729835 M 1178.619014,789.367175 l -7.380582,31.968811 M 1190.477856,822.463707 l 6.594722,-28.564877 M 1215.715615,797.609782 l -7.227941,31.307654 M 1230.324146,818.796099 l 4.028259,-17.448305 M 1230.036435,820.042312 l -2.383272,10.323085 M 1249.707386,819.300883 l 3.809600,-16.501192 M 1248.868824,822.933093 l -2.027937,8.783961 M 1272.324061,805.800118 l 1.325559,-5.741627 M 1270.898613,811.974411 l -1.251021,5.418767 M 1266.562544,830.755990 l 1.254670,-5.434574 M 1298.252317,777.955321 l -5.414157,23.451290 M 1289.513447,815.807526 l 0.892471,-3.865717 M 1306.587246,826.315594 l -0.361673,1.566576 M 1326.076874,826.359561 l 0.336462,-1.457378"
       id="path14" />
  </g>
  <g
     inkscape:label="fill-8d8d8d"
     inkscape:groupmode="layer"
     id="fill-8d8d8d">
    <path
       style="stroke:#8d8d8d"
       d="M 207.595234,467.721701 l 0.858750,5.421934 M 231.689463,472.820256 l -1.189169,-7.508116 M 253.498148,463.488445 l 0.924812,5.839030 M 258.724938,496.489102 l -3.758476,-23.730085 M 274.942644,451.857244 l 10.382810,65.554485 M 298.575490,454.042738 l -1.054674,-6.658948 M 298.775023,455.302535 l 13.546193,85.527298 M 341.204731,576.166748 l -18.223046,-115.055785 M 349.476733,481.367685 l 18.431833,116.374013 M 393.148659,610.074949 l -20.678764,-130.560575 M 394.787552,473.396090 l 23.140719,146.104751 M 441.946789,624.121373 l -26.979316,-170.340695 M 431.587907,411.691540 l 34.279324,216.431137 M 488.739816,625.508067 l -37.970368,-239.735470 M 472.072361,373.247476 l 39.327649,248.305005 M 534.114336,617.938665 l -39.725136,-250.814640 M 514.114295,344.636952 l 42.220543,266.570014 M 561.507380,643.865114 l -1.310143,-8.271915 M 562.809723,652.087783 l 0.551473,3.481866 M 538.431137,351.141025 l -2.014761,-12.720698 M 538.931963,354.303115 l 41.494470,261.985773 M 565.233513,373.338141 l -5.864690,-37.028193 M 565.645242,375.937696 l 35.716658,225.506100 M 622.637944,588.749032 l -35.311881,-222.950442 M 620.919423,430.872296 l 6.615181,41.766608 M 645.097885,583.529092 l -16.452179,-103.874968 M 652.160641,481.095153 l 15.847622,100.057946 M 691.966311,585.391843 l -13.835386,-87.353188 M 703.639078,512.064367 l 1.653459,10.439528 M 716.385759,592.543746 l -9.144442,-57.735734 M 733.617938,554.317019 l 7.674600,48.455518 M 767.483190,621.107378 l -8.405251,-53.068666 M 785.541915,588.099257 l 6.848328,43.238642 M 818.673277,650.256017 l -8.039486,-50.759317 M 837.306727,620.876570 l 5.205007,32.863122 M 869.717566,678.484128 l -6.206244,-39.184684 M 888.811905,652.014619 l 7.547352,47.652102 M 921.976264,714.379713 l -8.312033,-52.480110 M 939.204119,676.125683 l 2.455317,15.502259 M 948.502185,734.831362 l -4.762623,-30.070016 M 964.488063,688.735804 l 3.366747,21.256801 M 973.509577,745.695398 l -3.938019,-24.863676 M 990.909406,708.527170 l 2.924793,18.466414 M 1000.294938,767.785089 l -5.044795,-31.851585 M 1016.511981,723.149044 l 3.791347,23.937625 M 1024.422939,773.096865 l -3.515645,-22.196907 M 1041.424204,733.412208 l 3.746321,23.653341 M 1050.058985,787.930066 l -3.870821,-24.439399 M 1066.112574,742.262013 l 4.042503,25.523361 M 1074.713209,796.564288 l -3.645677,-23.017898 M 1090.857825,751.470957 l 3.897749,24.609417 M 1099.014583,802.970702 l -3.422754,-21.610417 M 1115.336700,758.998065 l 8.471755,53.488556 M 1147.660387,816.055371 l -7.615978,-48.085395 M 1163.962991,771.959534 l 8.306389,52.444474 M 1195.907070,826.620087 l -7.785967,-49.158662 M 1213.548771,790.978980 l 6.269633,39.584907 M 1235.725139,783.968635 l -0.118508,-0.748227 M 1238.061333,798.718785 l 5.559058,35.098508 M 1259.388662,786.347818 l -0.272795,-1.722362 M 1261.695451,800.912309 l 3.149604,19.885817 M 1266.540298,831.501467 l -1.276491,-8.059444 M 1283.061669,788.786877 l 2.562031,16.176030 M 1287.627723,817.615807 l -1.271472,-8.027758 M 1288.910864,825.717236 l 0.744940,4.703367 M 1308.920929,805.029392 l -0.280732,-1.772475 M 1312.026587,824.637744 l 0.656573,4.145440 M 1335.483010,825.709347 l -0.383772,-2.423042 M 1380.570713,816.329050 l 0.016792,0.106020 M 1402.848449,809.958719 l -0.427618,-2.699875"
       id="path17" />
  </g>
  <g
     inkscape:label="fill-afafaf"
     inkscape:groupmode="layer"
     id="fill-afafaf">
    <path
       style="stroke:#afafaf"
       d="M 209.142478,466.222441 l 4.581228,7.331497 M 266.697290,505.491156 l -25.600419,-40.969234 M 266.390905,452.162600 l 85.240920,136.413988 M 400.525932,613.985279 l -104.802027,-167.718302 M 350.841933,481.636022 l 89.329195,142.956595 M 475.738089,628.673415 l -95.518154,-152.861000 M 525.574492,708.428331 l 1.472846,2.357047 M 505.858725,624.038272 l -97.612840,-156.213199 M 546.471127,689.031701 l 1.934323,3.095564 M 535.527378,618.679804 l -116.396083,-186.272670 M 552.736918,646.220826 l 6.005556,9.610898 M 561.824340,660.763740 l -0.131777,-0.210888 M 434.623683,404.361899 l 129.327351,206.967026 M 574.102206,627.574195 l -5.629855,-9.009651 M 575.269080,629.441584 l 1.265530,2.025272 M 595.208196,608.512602 l -141.423997,-226.325706 M 479.127351,369.906180 l 138.208496,221.179828 M 647.364244,586.303251 l -144.643340,-231.477731 M 524.251238,336.443020 l 3.156651,5.051697 M 679.856300,585.463174 l -152.026686,-243.293555 M 554.376743,331.815668 l 18.665158,29.870496 M 580.427792,373.506061 l -4.629248,-7.408346 M 581.323412,374.939352 l 46.967246,75.163306 M 718.885738,595.085092 l -73.576815,-117.747517 M 683.770977,486.051490 l 2.065773,3.305928 M 708.999960,526.426303 l -13.010434,-20.821047 M 714.370747,535.021360 l 1.765816,2.825896 M 771.340725,626.192381 l -50.195357,-80.329363 M 773.037073,576.068869 l 4.743800,7.591667 M 825.048012,659.303770 l -46.532696,-74.467880 M 830.244168,614.781121 l 43.777477,70.058607 M 929.745680,721.178589 l -44.652498,-71.458935 M 931.688787,671.449972 l 15.112726,24.185418 M 986.927462,759.850332 l -28.897694,-46.245978 M 980.306682,696.416631 l 2.895796,4.634242 M 1038.368754,789.335370 l -52.887352,-84.637455 M 1033.980357,729.474228 l 22.374773,35.807122 M 1078.757650,801.132876 l -21.970449,-35.160068 M 1076.107238,744.053092 l 20.932938,33.499703 M 1118.325083,811.615768 l -19.095518,-30.559216 M 1117.739451,757.840322 l 39.749504,63.612504 M 1195.345275,829.197365 l -36.197481,-57.928079 M 1196.104878,777.574747 l 1.570966,2.514071 M 1200.758401,785.021941 l -2.232571,-3.572860 M 1201.379261,786.015524 l 29.727836,47.574482 M 1234.530265,786.229983 l -2.102191,-3.364210 M 1238.992057,793.370342 l 24.156687,38.658780 M 1270.173297,790.432521 l -4.882207,-7.813164 M 1273.708009,796.089241 l 7.540464,12.067265 M 1287.709357,818.496083 l -6.190399,-9.906709 M 1290.487132,822.941452 l 5.458548,8.735502 M 1303.758338,791.341582 l -10.383651,-16.617314 M 1309.969079,801.280846 l 1.947387,3.116470 M 1326.526101,827.777620 l -7.427654,-11.886731 M 1352.392262,816.333893 l 4.053454,6.486882 M 1385.654502,816.726368 l -3.825392,-6.121906 M 1408.135312,799.864945 l 0.927333,1.484043 M 1411.570740,805.362780 l -1.101430,-1.762657"
       id="path20" />
  </g>
  <g
     inkscape:label="fill-cfcfcf"
     inkscape:groupmode="layer"
     id="fill-cfcfcf">
    <path
       style="stroke:#cfcfcf"
       d="M 183.977842,483.807809 l 1.053316,0.737540 M 228.164275,474.461922 l -15.774583,-11.045482 M 254.121685,492.637496 l 190.980717,133.726138 M 553.590960,702.328140 l -23.895312,-16.731677 M 258.715761,455.568741 l 243.172463,170.271192 M 559.771702,666.370380 l -14.393205,-10.078231 M 303.666675,446.758148 l 42.608222,29.834598 M 547.762585,617.675945 l -191.795039,-134.296332 M 562.667557,628.112518 l 13.669678,9.571611 M 594.697629,610.254655 l -199.136577,-139.436932 M 415.762894,444.677643 l 215.218629,150.697707 M 677.778821,587.857609 l -249.443135,-174.661964 M 447.532678,386.351962 l 393.709306,275.678224 M 913.008765,712.281828 l -44.006661,-30.813796 M 939.584662,730.890471 l 16.450198,11.518552 M 1001.126592,773.982594 l -10.655622,-7.461147 M 1007.348387,778.339142 l 10.491287,7.346078 M 721.055157,537.588903 l -242.495731,-169.797339 M 792.541284,587.644028 l 314.772504,220.406080 M 1121.683264,818.111723 l -6.701323,-4.692317 M 507.188621,347.552380 l 112.689050,78.905723 M 1197.220884,830.718173 l -128.980590,-90.313181 M 539.878297,330.156377 l 34.823126,24.383416 M 584.648972,361.505141 l -6.553880,-4.589076 M 587.186017,363.281599 l 2.583131,1.808728 M 1264.961645,837.865203 l -96.862508,-67.823858 M 1242.364612,781.757028 l 22.777613,15.949056 M 1312.021410,830.531244 l -46.826245,-32.788089 M 1291.566348,775.922894 l 12.515623,8.763533 M 1323.841938,798.522505 l -2.790660,-1.954041 M 1341.323962,810.763550 l 18.085457,12.663573 M 1401.646251,812.716110 l -11.929854,-8.353374"
       id="path23" />
  </g>
</svg>
