<?xml version="1.0" encoding="UTF-8" standalone="no"?>
<!-- Created with Inkscape (http://www.inkscape.org/) -->

<svg
   xmlns:dc="http://purl.org/dc/elements/1.1/"
   xmlns:cc="http://creativecommons.org/ns#"
   xmlns:rdf="http://www.w3.org/1999/02/22-rdf-syntax-ns#"
   xmlns:svg="http://www.w3.org/2000/svg"
   xmlns="http://www.w3.org/2000/svg"
   xmlns:sodipodi="http://sodipodi.sourceforge.net/DTD/sodipodi-0.dtd"
   xmlns:inkscape="http://www.inkscape.org/namespaces/inkscape"
   id="svg2"
   version="1.1"
   inkscape:version="0.48.3.1 r9886"
   width="1200"
   height="960"
   sodipodi:docname="hantologie-full-socle_01_hatched_1398261681.svg">
  <defs
     id="defs70" />
  <sodipodi:namedview
     pagecolor="#ffffff"
     bordercolor="#666666"
     borderopacity="1"
     objecttolerance="10"
     gridtolerance="10"
     guidetolerance="10"
     inkscape:pageopacity="0"
     inkscape:pageshadow="2"
     inkscape:window-width="640"
     inkscape:window-height="480"
     id="namedview68" />
  <metadata
     id="metadata8">
    <rdf:RDF>
      <cc:Work
         rdf:about="">
        <dc:format>image/svg+xml </dc:format>
        <dc:type
           rdf:resource="http://purl.org/dc/dcmitype/StillImage" />
        <dc:title />
      </cc:Work>
    </rdf:RDF>
  </metadata>
  <g
     inkscape:label="fill-303030"
     inkscape:groupmode="layer"
     id="fill-303030">
    <path
       style="stroke:#303030"
       d="M 605.845590,620.837530 l 3.596086,7.057717 M 610.062956,624.709198 l -9.039627,-17.741266 M 596.201069,593.098334 l 14.483167,28.424815 M 611.305515,618.337101 l -19.926707,-39.108364 M 589.942744,572.004923 l 21.984051,43.146129 M 612.548074,611.965003 l -20.288248,-39.817928 M 594.576910,572.289228 l 18.592444,36.489727 M 613.790633,605.592905 l -16.896641,-33.161525 M 599.211075,572.573532 l 15.200838,29.833324 M 615.033192,599.220808 l -13.505035,-26.505123 M 603.845240,572.857837 l 11.809232,23.176922 M 616.275752,592.848710 l -10.113428,-19.848721 M 608.479406,573.142141 l 2.618815,5.139715"
       id="path5" />
  </g>
  <g
     inkscape:label="fill-4f4f4f"
     inkscape:groupmode="layer"
     id="fill-4f4f4f">
    <path
       style="stroke:#4f4f4f"
       d="M 615.214231,589.301387 l 3.455346,3.455346 M 621.955105,593.213834 l -8.402939,-8.402939 M 611.890100,580.320402 l 13.350532,13.350532 M 628.526159,594.128034 l -18.298124,-18.298124 M 610.489203,573.262651 l 21.322483,21.322483 M 635.097213,595.042234 l -21.596982,-21.596982 M 616.511261,573.627854 l 21.871480,21.871480 M 641.668268,595.956434 l -22.145978,-22.145978 M 622.533319,573.993058 l 22.420476,22.420476 M 648.239322,596.870634 l -22.694974,-22.694974 M 628.555377,574.358262 l 22.969472,22.969472 M 654.810376,597.784834 l -23.243971,-23.243971 M 634.577435,574.723466 l 23.518469,23.518469 M 661.381431,598.699035 l -23.792967,-23.792967 M 640.599493,575.088669 l 24.067465,24.067465 M 667.952485,599.613235 l -24.341963,-24.341963 M 646.621551,575.453873 l 24.616461,24.616461 M 674.523540,600.527435 l -24.890960,-24.890960 M 652.643609,575.819077 l 25.165458,25.165458 M 681.094594,601.441635 l -25.439956,-25.439956 M 658.665667,576.184281 l 25.714454,25.714454 M 687.665648,602.355835 l -25.988952,-25.988952 M 664.687725,576.549485 l 26.263450,26.263450 M 694.236703,603.270035 l -26.537949,-26.537949 M 670.709783,576.914688 l 26.812447,26.812447 M 700.807757,604.184235 l -27.086945,-27.086945 M 676.731841,577.279892 l 27.361443,27.361443 M 707.378811,605.098435 l -27.635941,-27.635941 M 682.753899,577.645096 l 27.910439,27.910439 M 713.949866,606.012635 l -28.184938,-28.184938 M 688.775957,578.010300 l 28.459436,28.459436 M 720.520920,606.926836 l -28.733934,-28.733934 M 694.798015,578.375503 l 27.139700,27.139700 M 718.845565,599.594626 l -21.036521,-21.036521 M 700.820073,578.740707 l 14.933342,14.933342 M 712.661265,587.753472 l -8.830163,-8.830163 M 706.842131,579.105911 l 2.726984,2.726984"
       id="path8" />
  </g>
  <g
     inkscape:label="fill-666666"
     inkscape:groupmode="layer"
     id="fill-666666">
    <path
       style="stroke:#666666"
       d="M 631.088768,280.007079 l 5.070017,2.927176 M 640.403148,281.920637 l -11.289640,-6.518077 M 627.138249,270.798043 l 17.509262,10.108977 M 648.891874,279.893402 l -23.728885,-13.699878 M 623.187730,261.589006 l 29.948508,17.290779 M 652.383675,274.981191 l -30.110663,-17.384400 M 626.836590,256.767473 l 23.754552,13.714697 M 648.798610,265.983150 l -17.398441,-10.044995 M 635.963747,255.108837 l 11.042330,6.375292 M 645.213544,256.985108 l -4.686219,-2.705590"
       id="path11" />
  </g>
  <g
     inkscape:label="fill-757575"
     inkscape:groupmode="layer"
     id="fill-757575">
    <path
       style="stroke:#757575"
       d="M 615.731638,821.871983 l 3.161264,1.341877 M 623.585653,821.946734 l -7.881433,-3.345470 M 615.676803,815.330545 l 12.601602,5.349062 M 632.971156,819.412481 l -17.321770,-7.352655 M 615.621969,808.789107 l 22.041939,9.356248 M 642.356659,816.878229 l -26.762107,-11.359841 M 615.567134,802.247669 l 31.482276,13.363433 M 651.742161,814.343976 l -36.202445,-15.367026 M 615.512300,795.706231 l 40.922613,17.370619 M 661.127664,811.809723 l -45.642782,-19.374211 M 615.457465,789.164793 l 50.362951,21.377804 M 670.513167,809.275471 l -55.083119,-23.381397 M 615.402630,782.623355 l 59.803288,25.384990 M 679.898670,806.741218 l -64.523456,-27.388582 M 615.347796,776.081916 l 69.243625,29.392175 M 682.253264,801.222521 l -66.932885,-28.411324 M 615.292961,769.540478 l 61.606593,26.150447 M 671.545846,790.159330 l -56.280302,-23.889571 M 615.238127,762.999040 l 50.954010,21.628694 M 660.838428,779.096138 l -44.262971,-18.788516 M 621.201713,759.012270 l 34.283005,14.552272 M 650.131010,768.032947 l -24.303040,-10.316028 M 630.454226,756.421567 l 14.323075,6.079785 M 639.423592,756.969755 l -4.343109,-1.843541"
       id="path14" />
  </g>
  <g
     inkscape:label="fill-7e7e7e"
     inkscape:groupmode="layer"
     id="fill-7e7e7e">
    <path
       style="stroke:#7e7e7e"
       d="M 720.694453,838.955820 l 1.851190,0.565966 M 727.794106,837.989326 l -5.685657,-1.738280 M 723.522444,833.546273 l 9.520125,2.910594 M 738.291032,834.924408 l -13.354592,-4.082909 M 726.350435,828.136726 l 17.189059,5.255223 M 748.787957,831.859489 l -21.023527,-6.427537 M 729.178426,822.727179 l 24.857994,7.599852 M 759.284883,828.794571 l -28.692462,-8.772166 M 732.006416,817.317632 l 32.526929,9.944480 M 769.361136,825.601040 l -35.940724,-10.988182 M 734.834407,811.908085 l 35.934645,10.986324 M 772.176970,820.187776 l -35.928567,-10.984465 M 737.662398,806.498538 l 35.922489,10.982607 M 774.992804,814.774513 l -35.916410,-10.980749 M 740.490389,801.088991 l 35.910332,10.978890 M 777.808638,809.361249 l -35.904254,-10.977032 M 743.318380,795.679444 l 35.898175,10.975174 M 780.624472,803.947985 l -35.892097,-10.973315 M 746.146370,790.269897 l 35.886018,10.971457 M 783.440306,798.534722 l -35.879940,-10.969599 M 748.974361,784.860350 l 35.873862,10.967740 M 786.256140,793.121458 l -35.867783,-10.965882 M 751.802352,779.450803 l 35.861705,10.964023 M 789.071974,787.708194 l -33.154479,-10.136341 M 761.395137,776.109461 l 29.084754,8.892102 M 791.887808,782.294931 l -25.015028,-7.647862 M 772.350422,773.184677 l 20.945303,6.403622 M 794.703642,776.881667 l -16.875578,-5.159382 M 783.305706,770.259893 l 12.805853,3.915142 M 797.519476,771.468403 l -8.736128,-2.670902 M 794.260990,767.335109 l 4.666403,1.426663 M 800.335310,766.055140 l -0.596678,-0.182423"
       id="path17" />
    <path
       style="stroke:#7e7e7e"
       d="M 767.680334,712.152458 l 1.561829,0.477499 M 772.528353,710.497571 l -4.188255,-1.280478 M 768.999861,706.281727 l 6.814682,2.083457 M 779.100733,706.232798 l -9.441108,-2.886437 M 770.319388,700.410996 l 12.067535,3.689416 M 785.673113,701.968026 l -14.693962,-4.492395 M 771.638915,694.540266 l 17.320388,5.295374 M 792.245493,697.703254 l -19.946815,-6.098353 M 772.958442,688.669535 l 22.573241,6.901332 M 798.817873,693.438481 l -25.199668,-7.704312 M 774.277968,682.798804 l 27.826094,8.507291 M 805.390253,689.173709 l -30.452521,-9.310270 M 775.597495,676.928074 l 32.411550,9.909205 M 808.676345,683.904218 l -32.419087,-9.911509 M 778.981780,671.688603 l 30.361866,9.282554 M 810.010946,678.038096 l -27.645020,-8.451931 M 785.750073,667.483727 l 24.928174,7.621308 M 811.345547,672.171973 l -22.211328,-6.790684 M 792.518366,663.278851 l 19.494481,5.960061 M 812.680147,666.305851 l -16.777635,-5.129438 M 799.286658,659.073975 l 14.060789,4.298815 M 814.014748,660.439729 l -11.343943,-3.468191 M 806.054951,654.869100 l 8.627097,2.637568 M 815.349349,654.573607 l -5.910251,-1.806945 M 812.823244,650.664224 l 3.193405,0.976322 M 816.683950,648.707485 l -0.476559,-0.145699"
       id="path19" />
  </g>
  <g
     inkscape:label="fill-868686"
     inkscape:groupmode="layer"
     id="fill-868686">
    <path
       style="stroke:#868686"
       d="M 759.951149,667.286120 l 19.451156,4.134471 M 783.081585,669.135624 l -43.337985,-9.211773 M 719.536051,652.561582 l 67.224814,14.289075 M 790.440145,664.565691 l -91.111643,-19.366378 M 714.942237,645.451093 l 79.177189,16.829631 M 797.798705,659.995758 l -82.248547,-17.482468 M 716.158080,639.575485 l 85.319905,18.135306 M 805.157265,655.425824 l -88.391263,-18.788143 M 598.352778,608.401152 l 3.410047,0.724828 M 808.836545,653.140858 l -91.462622,-19.440980 M 578.151918,601.040305 l 22.460493,4.774125 M 812.515826,650.855891 l -94.533980,-20.093818 M 557.951058,593.679457 l 41.510938,8.823422 M 816.195106,648.570924 l -97.605338,-20.746655 M 537.750198,586.318610 l 60.561384,12.872720 M 799.239256,641.899825 l -80.041566,-17.013360 M 517.549338,578.957763 l 79.611830,16.922017 M 778.122567,634.344313 l -58.316955,-12.395652 M 497.348478,571.596916 l 98.662275,20.971314 M 757.005877,626.788800 l -36.592344,-7.777943 M 483.226467,565.528168 l 111.633872,23.728512 M 735.889188,619.233288 l -14.867734,-3.160234 M 503.421239,566.753678 l 90.288685,19.191452 M 592.559510,582.633580 l -68.943498,-14.654393 M 543.810784,569.204697 l 47.598311,10.117333 M 590.258681,576.010481 l -26.253124,-5.580274 M 584.200329,571.655716 l 4.907937,1.043214"
       id="path22" />
  </g>
  <g
     inkscape:label="fill-929292"
     inkscape:groupmode="layer"
     id="fill-929292">
    <path
       style="stroke:#929292"
       d="M 510.760994,806.387584 l 7.280915,0.636998 M 526.597643,804.761651 l -15.243629,-1.333645 M 511.947035,800.468430 l 23.206342,2.030292 M 543.709112,800.235792 l -31.169056,-2.726939 M 513.133077,794.549276 l 39.131770,3.423586 M 560.820581,795.709932 l -47.094483,-4.120233 M 514.319118,788.630122 l 55.057197,4.816881 M 577.932050,791.184073 l -63.019911,-5.513528 M 515.505160,782.710968 l 63.703545,5.573338 M 579.196882,785.271812 l -63.098702,-5.520421 M 516.691201,776.791814 l 62.493858,5.467504 M 579.173236,779.246825 l -61.889014,-5.414587 M 517.877243,770.872661 l 61.284170,5.361670 M 579.149590,773.221837 l -60.679327,-5.308753 M 519.063284,764.953507 l 60.074483,5.255836 M 579.125944,767.196849 l -59.469639,-5.202919 M 520.249326,759.034353 l 58.864796,5.150002 M 579.102298,761.171861 l -58.259952,-5.097085 M 521.435367,753.115199 l 57.655108,5.044168 M 579.078652,755.146873 l -57.050264,-4.991251 M 601.661456,757.122613 l 0.339621,0.029713 M 579.066829,752.134380 l -56.445421,-4.938334 M 585.119803,752.663946 l 0.091030,0.007964 M 585.058104,749.647089 l -61.843675,-5.410620 M 523.807450,741.276891 l 70.710200,6.186341 M 603.977197,745.279376 l -79.576726,-6.962061 M 524.993492,735.357737 l 80.349612,7.029680 M 605.957150,739.429680 l -80.370638,-7.031520 M 526.179533,729.438584 l 80.391664,7.033359 M 607.185244,733.514206 l -80.412690,-7.035199 M 527.365575,723.519430 l 80.433717,7.037038 M 608.413338,727.598731 l -80.454743,-7.038878 M 528.551616,717.600276 l 79.534116,6.958334 M 604.905315,721.268900 l -75.760678,-6.628200 M 529.737658,711.681122 l 71.987240,6.298067 M 600.303346,714.843360 l -69.972668,-6.121815 M 530.923699,705.761968 l 70.722245,6.187395 M 602.988542,709.055366 l -71.471822,-6.252974 M 532.109740,699.842814 l 72.221399,6.318554 M 605.673737,703.267371 l -72.970976,-6.384133 M 533.295782,693.923661 l 73.720553,6.449713 M 608.358932,697.479376 l -74.470130,-6.515292 M 534.481823,688.004507 l 75.219707,6.580872 M 611.044128,691.691381 l -75.969283,-6.646451 M 535.667865,682.085353 l 76.718860,6.712031 M 613.729323,685.903386 l -77.468437,-6.777610 M 536.853906,676.166199 l 78.218014,6.843190 M 616.414518,680.115391 l -78.967591,-6.908769 M 538.039948,670.247045 l 79.717168,6.974348 M 619.099714,674.327396 l -80.466745,-7.039928 M 539.225989,664.327891 l 80.909623,7.078675 M 620.752377,668.449067 l -80.933367,-7.080752 M 540.412031,658.408738 l 80.957112,7.082830 M 621.985907,662.534067 l -80.980856,-7.084907 M 541.598072,652.489584 l 78.561230,6.873217 M 609.523390,655.420819 l -67.332297,-5.890813 M 542.784114,646.570430 l 56.103365,4.908408 M 588.251567,647.536857 l -44.874433,-3.926004 M 548.487757,641.046515 l 29.127899,2.548361 M 566.979744,639.652895 l -5.730134,-0.501322"
       id="path25" />
  </g>
  <g
     inkscape:label="fill-999999"
     inkscape:groupmode="layer"
     id="fill-999999">
    <path
       style="stroke:#999999"
       d="M 539.992620,639.819646 l 16.757723,0.000000 M 559.335272,636.819646 l -25.182068,0.000000 M 528.313788,633.819646 l 22.927069,0.000000 M 543.146442,630.819646 l -20.672070,0.000000 M 516.634956,627.819646 l 18.417071,0.000000 M 526.957612,624.819646 l -16.162072,0.000000 M 504.956124,621.819646 l 13.907074,0.000000 M 510.768782,618.819646 l -11.652075,0.000000 M 495.753545,615.819646 l 6.920822,0.000000"
       id="path28" />
    <path
       style="stroke:#999999"
       d="M 229.971343,573.819646 l 2.790928,0.000000 M 236.899271,570.819646 l -7.966169,0.000000 M 227.894861,567.819646 l 13.141410,0.000000 M 245.173271,564.819646 l -18.316651,0.000000 M 225.818379,561.819646 l 23.491892,0.000000 M 253.447271,558.819646 l -28.211615,0.000000 M 229.182947,555.819646 l 28.401323,0.000000 M 261.721271,552.819646 l -28.591032,0.000000 M 237.077530,549.819646 l 28.780740,0.000000 M 269.995271,546.819646 l -28.970449,0.000000 M 244.972113,543.819646 l 29.160158,0.000000 M 278.269271,540.819646 l -29.349866,0.000000 M 252.866696,537.819646 l 29.539575,0.000000 M 286.543271,534.819646 l -29.729284,0.000000 M 260.761278,531.819646 l 29.918992,0.000000 M 294.817271,528.819646 l -30.108701,0.000000 M 268.655861,525.819646 l 30.298410,0.000000 M 303.091271,522.819646 l -30.488118,0.000000 M 276.550444,519.819646 l 30.677827,0.000000 M 311.365271,516.819646 l -30.867535,0.000000 M 284.445027,513.819646 l 31.057244,0.000000 M 307.678095,510.819646 l -19.285777,0.000000 M 292.339609,507.819646 l 15.469952,0.000000 M 307.941027,504.819646 l -11.654127,0.000000 M 300.234192,501.819646 l 7.945287,0.000000 M 308.599266,498.819646 l -4.417783,0.000000 M 308.128775,495.819646 l 0.890279,0.000000 M 402.374734,450.819646 l -0.466320,0.000000 M 402.794874,447.819646 l 3.717038,0.000000 M 410.649090,444.819646 l -6.967756,0.000000 M 404.567794,441.819646 l 10.218473,0.000000 M 418.923446,438.819646 l -13.326748,0.000000 M 406.694725,435.819646 l 16.365899,0.000000 M 427.197802,432.819646 l -19.203317,0.000000 M 409.331045,429.819646 l 22.003935,0.000000 M 435.472158,426.819646 l -24.517647,0.000000 M 412.592154,423.819646 l 27.017182,0.000000 M 443.746514,420.819646 l -29.163376,0.000000 M 416.576928,417.819646 l 31.306764,0.000000 M 452.020870,414.819646 l -33.061784,0.000000 M 421.357162,411.819646 l 34.800887,0.000000 M 460.295226,408.819646 l -36.158292,0.000000 M 426.981060,405.819646 l 37.451345,0.000000 M 468.569583,402.819646 l -37.999495,0.000000 M 434.518261,399.819646 l 38.188499,0.000000 M 476.843939,396.819646 l -38.377504,0.000000 M 442.414608,393.819646 l 38.566509,0.000000 M 485.118295,390.819646 l -38.755514,0.000000 M 450.310954,387.819646 l 38.944518,0.000000 M 493.392651,384.819646 l -39.133523,0.000000 M 458.207301,381.819646 l 39.322528,0.000000 M 501.667007,378.819646 l -39.511533,0.000000 M 466.103648,375.819646 l 39.700537,0.000000 M 509.941363,372.819646 l -39.889542,0.000000 M 473.999994,369.819646 l 40.078547,0.000000 M 518.215719,366.819646 l -40.267551,0.000000 M 481.896341,363.819646 l 40.456556,0.000000 M 526.490075,360.819646 l -40.645561,0.000000 M 489.792688,357.819646 l 40.834566,0.000000 M 534.764431,354.819646 l -41.023570,0.000000 M 497.689034,351.819646 l 41.212575,0.000000 M 543.038787,348.819646 l -41.401580,0.000000 M 505.585381,345.819646 l 41.590585,0.000000 M 551.313144,342.819646 l -41.779589,0.000000 M 513.481728,339.819646 l 41.968594,0.000000 M 559.587500,336.819646 l -42.157599,0.000000 M 521.378074,333.819646 l 42.346604,0.000000 M 567.861856,330.819646 l -42.535608,0.000000 M 529.274421,327.819646 l 42.724613,0.000000 M 576.136212,324.819646 l -42.913618,0.000000 M 537.170767,321.819646 l 43.102622,0.000000 M 584.410568,318.819646 l -43.291627,0.000000 M 545.067114,315.819646 l 43.480632,0.000000 M 592.684924,312.819646 l -43.669637,0.000000 M 552.963461,309.819646 l 43.858641,0.000000 M 600.959280,306.819646 l -44.047646,0.000000 M 560.859807,303.819646 l 44.236651,0.000000 M 609.233636,300.819646 l -44.425656,0.000000 M 568.756154,297.819646 l 44.614660,0.000000 M 617.507992,294.819646 l -44.803665,0.000000 M 576.652501,291.819646 l 44.992670,0.000000 M 625.782348,288.819646 l -45.181674,0.000000 M 584.548847,285.819646 l 45.370679,0.000000 M 632.263010,282.819646 l -43.765990,0.000000 M 592.445194,279.819646 l 38.535182,0.000000 M 629.697741,276.819646 l -33.304374,0.000000 M 600.341541,273.819646 l 28.073565,0.000000 M 627.132471,270.819646 l -22.842757,0.000000 M 608.237887,267.819646 l 17.611949,0.000000 M 624.567202,264.819646 l -12.381141,0.000000 M 616.134234,261.819646 l 7.150333,0.000000 M 622.001932,258.819646 l -1.919525,0.000000"
       id="path30" />
  </g>
  <g
     inkscape:label="fill-9c9c9c"
     inkscape:groupmode="layer"
     id="fill-9c9c9c">
    <path
       style="stroke:#9c9c9c"
       d="M 609.241623,822.197479 l 6.482364,-0.113150 M 615.697713,819.084331 l -16.360142,0.285567 M 589.433519,816.542317 l 26.237920,-0.457985 M 615.645164,813.084334 l -36.115698,0.630402 M 579.287059,810.718510 l 36.331831,-0.634174 M 615.592615,807.084337 l -36.316534,0.633907 M 579.265103,804.717979 l 36.301238,-0.633640 M 615.540066,801.084341 l -36.285941,0.633373 M 579.243147,798.717449 l 36.270645,-0.633106 M 615.487517,795.084344 l -36.255348,0.632839 M 579.221191,792.716918 l 36.240052,-0.632572 M 615.434968,789.084347 l -36.224755,0.632305 M 579.199235,786.716387 l 36.209458,-0.632038 M 615.382420,783.084350 l -36.194162,0.631771 M 579.177280,780.715856 l 36.178865,-0.631504 M 615.329871,777.084354 l -36.163569,0.631237 M 579.155324,774.715326 l 36.148272,-0.630970 M 615.277322,771.084357 l -36.132976,0.630703 M 579.133368,768.714795 l 36.117679,-0.630436 M 615.224773,765.084360 l -36.102383,0.630169 M 579.111412,762.714264 l 36.087086,-0.629902 M 609.390899,759.185277 l -30.290465,0.528722 M 579.089456,756.713734 l 19.825149,-0.346049 M 588.438311,753.550092 l -9.359833,0.163376"
       id="path33" />
  </g>
  <g
     inkscape:label="fill-a3a3a3"
     inkscape:groupmode="layer"
     id="fill-a3a3a3">
    <path
       style="stroke:#a3a3a3"
       d="M 751.426435,777.700021 l 5.379686,-0.376184 M 772.078511,773.248561 l -23.537258,1.645885 M 745.656072,772.088872 l 41.694830,-2.915587 M 800.132915,765.272155 l -57.362024,4.011143 M 739.885709,766.477724 l 57.339270,-4.009552 M 794.317044,759.664189 l -57.316516,4.007961 M 734.115347,760.866576 l 57.293762,-4.006370 M 788.501173,754.056223 l -57.271007,4.004779 M 728.344984,755.255427 l 57.248253,-4.003188 M 782.685302,748.448257 l -57.225499,4.001597 M 722.574621,749.644279 l 57.202745,-4.000006 M 776.869430,742.840290 l -57.179991,3.998414 M 716.804258,744.033131 l 57.157236,-3.996823 M 771.053559,737.232324 l -57.134482,3.995232 M 711.033896,738.421982 l 57.111728,-3.993641 M 765.237688,731.624358 l -57.088974,3.992050 M 705.263533,732.810834 l 57.066220,-3.990459 M 759.421817,726.016392 l -57.043465,3.988868 M 699.493170,727.199686 l 57.020711,-3.987277 M 753.605946,720.408426 l -56.997957,3.985685 M 693.722808,721.588537 l 56.975203,-3.984094 M 747.790075,714.800460 l -56.952449,3.982503 M 687.952445,715.977389 l 56.929694,-3.980912 M 741.974204,709.192494 l -56.906940,3.979321 M 682.182082,710.366241 l 56.884186,-3.977730 M 736.158332,703.584528 l -56.861432,3.976139 M 676.411719,704.755093 l 55.702520,-3.895100 M 725.288759,698.329951 l -51.762221,3.619567 M 670.641357,699.143944 l 47.821922,-3.344035 M 711.637798,693.269868 l -43.881623,3.068502 M 664.870994,693.532796 l 39.941324,-2.792969 M 697.986837,688.209785 l -36.001025,2.517437 M 659.100631,687.921648 l 32.060725,-2.241904 M 684.335876,683.149702 l -28.120426,1.966372 M 653.330269,682.310499 l 24.180127,-1.690839 M 670.684916,678.089618 l -20.239828,1.415307 M 647.559906,676.699351 l 16.299529,-1.139774 M 657.033955,673.029535 l -12.359230,0.864242 M 641.789543,671.088203 l 8.418931,-0.588709 M 643.382994,667.969452 l -4.478632,0.313176 M 636.019180,665.477054 l 0.538333,-0.037644"
       id="path36" />
  </g>
  <g
     inkscape:label="fill-a4a4a4"
     inkscape:groupmode="layer"
     id="fill-a4a4a4">
    <path
       style="stroke:#a4a4a4"
       d="M 884.899183,589.097867 l 1.912513,-0.201013 M 893.841022,585.141517 l -8.943852,0.940037 M 884.895157,583.065241 l 15.975191,-1.679060 M 907.899673,577.630844 l -23.006529,2.418084 M 884.891132,577.032614 l 30.037868,-3.157107 M 921.958325,570.120170 l -37.069206,3.896131 M 884.887106,570.999988 l 44.100545,-4.635154 M 931.335627,563.101527 l -46.450533,4.882148 M 884.883080,564.967361 l 46.508328,-4.888222 M 931.447191,557.056751 l -46.566123,4.894297 M 884.879055,558.934735 l 46.623918,-4.900371 M 931.558755,551.011976 l -46.681713,4.906446 M 890.124655,552.350350 l 41.489881,-4.360762 M 931.670319,544.967200 l -32.443047,3.409902 M 908.329888,544.403853 l 23.396213,-2.459041 M 931.781883,538.922424 l -14.349379,1.508181 M 926.535120,536.457357 l 5.302545,-0.557320"
       id="path39" />
  </g>
  <g
     inkscape:label="fill-a5a5a5"
     inkscape:groupmode="layer"
     id="fill-a5a5a5">
    <path
       style="stroke:#a5a5a5"
       d="M 707.957233,644.598604 l 7.322067,-0.769580 M 715.917721,640.745398 l -19.894558,2.091002 M 684.089094,641.074197 l 32.467049,-3.412424 M 717.194566,634.578147 l -45.039541,4.733846 M 660.220956,637.549790 l 57.612032,-6.055269 M 718.471410,628.410895 l -70.184523,7.376691 M 636.352817,634.025382 l 82.757015,-8.698113 M 719.748254,622.243644 l -95.329506,10.019535 M 612.484679,630.500975 l 107.901997,-11.340957 M 721.025098,616.076392 l -111.580144,11.727546 M 610.047508,624.724082 l 111.616012,-11.731316 M 722.301942,609.909141 l -111.651879,11.735085 M 611.252618,618.564371 l 109.899953,-11.550950 M 708.806803,605.294488 l -96.951630,10.190027 M 612.457727,612.404659 l 84.003308,-8.829103 M 684.115267,601.856623 l -71.054985,7.468180 M 613.662836,606.244947 l 58.106663,-6.107256 M 659.423732,598.418758 l -45.158341,4.746333 M 614.867946,600.085235 l 32.210018,-3.385409 M 634.732196,594.980893 l -19.261696,2.024486 M 616.073055,593.925523 l 6.313374,-0.663562"
       id="path42" />
  </g>
  <g
     inkscape:label="fill-a6a6a6"
     inkscape:groupmode="layer"
     id="fill-a6a6a6">
    <path
       style="stroke:#a6a6a6"
       d="M 508.713884,808.161164 l 1.735003,-0.213032 M 511.069654,804.849382 l -6.436214,0.790268 M 500.552997,803.118136 l 11.137425,-1.367504 M 512.311189,798.651882 l -15.838635,1.944740 M 492.392110,798.075108 l 20.539846,-2.521976 M 513.552723,792.454382 l -25.241057,3.099212 M 484.231222,793.032080 l 29.942268,-3.676448 M 514.794257,786.256882 l -34.643478,4.253684 M 476.070335,787.989052 l 39.344689,-4.830920 M 516.035792,780.059381 l -44.045900,5.408156 M 467.909448,782.946024 l 48.747111,-5.985393 M 517.277326,773.861881 l -53.448321,6.562629 M 464.258012,777.349305 l 53.640082,-6.586174 M 518.518860,767.664381 l -53.695272,6.592950 M 465.389165,771.165358 l 53.750462,-6.599727 M 519.760395,761.466881 l -53.805653,6.606503 M 466.520319,764.981411 l 53.860843,-6.613280 M 521.001929,755.269381 l -53.916034,6.620057 M 467.651472,758.797464 l 53.971224,-6.626833 M 522.243464,749.071880 l -54.026415,6.633610 M 468.782626,752.613516 l 54.081605,-6.640386 M 523.484998,742.874380 l -54.136795,6.647163 M 469.913779,746.429569 l 54.191986,-6.653939 M 524.726532,736.676880 l -54.247176,6.660716 M 471.044933,740.245622 l 54.302367,-6.667492 M 525.968067,730.479380 l -54.357557,6.674269 M 472.176086,734.061675 l 54.412748,-6.681045 M 527.209601,724.281880 l -54.467938,6.687822 M 473.307240,727.877728 l 54.523128,-6.694598 M 528.451136,718.084379 l -54.578319,6.701375 M 474.438393,721.693781 l 54.633509,-6.708151 M 529.692670,711.886879 l -54.688700,6.714928 M 475.569547,715.509834 l 54.743890,-6.721705 M 530.934204,705.689379 l -54.799081,6.728481 M 476.700701,709.325886 l 54.854271,-6.735258 M 532.175739,699.491879 l -54.909461,6.742034 M 477.831854,703.141939 l 54.964652,-6.748811 M 533.417273,693.294378 l -55.019842,6.755587 M 478.963008,696.957992 l 55.075033,-6.762364 M 534.658807,687.096878 l -55.130223,6.769140 M 480.094161,690.774045 l 55.185413,-6.775917 M 535.900342,680.899378 l -55.240604,6.782693 M 481.225315,684.590098 l 55.295794,-6.789470 M 537.141876,674.701878 l -55.350985,6.796246 M 482.356468,678.406151 l 55.406175,-6.803023 M 538.383411,668.504378 l -55.461366,6.809799 M 483.487622,672.222204 l 55.516556,-6.816576 M 539.624945,662.306877 l -55.571746,6.823352 M 484.618775,666.038256 l 55.626937,-6.830129 M 540.866479,656.109377 l -55.682127,6.836906 M 485.749929,659.854309 l 55.737318,-6.843682 M 542.108014,649.911877 l -55.792508,6.850459 M 486.881082,653.670362 l 55.847699,-6.857235 M 543.349548,643.714377 l -55.902889,6.864012 M 488.012236,647.486415 l 53.909744,-6.619284 M 537.182019,638.426595 l -48.604206,5.967846 M 489.143389,641.302468 l 43.298668,-5.316408 M 527.702096,633.545524 l -37.993130,4.664970 M 490.274543,635.118521 l 32.687592,-4.013532 M 518.222174,628.664454 l -27.382055,3.362094 M 491.405697,628.934574 l 22.076517,-2.710655 M 508.742252,623.783383 l -16.770979,2.059217 M 492.536850,622.750626 l 11.465441,-1.407779 M 499.262330,618.902312 l -6.159904,0.756341 M 493.668004,616.566679 l 0.854366,-0.104903"
       id="path45" />
  </g>
  <g
     inkscape:label="fill-a9a9a9"
     inkscape:groupmode="layer"
     id="fill-a9a9a9">
    <path
       style="stroke:#a9a9a9"
       d="M 612.141566,759.865677 l 13.842266,-2.192400 M 635.680802,753.100033 l -30.678414,4.858983 M 597.863209,756.052355 l 35.272498,-5.586615 M 630.590612,747.831449 l -39.866582,6.314246 M 583.584851,752.239034 l 44.460666,-7.041878 M 625.500423,742.562865 l -31.091292,4.924377"
       id="path48" />
  </g>
  <g
     inkscape:label="fill-acacac"
     inkscape:groupmode="layer"
     id="fill-acacac">
    <path
       style="stroke:#acacac"
       d="M 471.127279,525.302605 l 0.989739,-0.174518 M 472.641169,520.973959 l -23.284882,4.105753 M 430.558070,524.332638 l 42.607249,-7.512808 M 473.632048,512.675828 l -59.378177,10.469975 M 400.242918,521.554605 l 73.655422,-12.987438 M 474.164632,504.458506 l -85.554915,15.085640 M 378.702446,517.229358 l 95.604125,-16.857587 M 474.328671,496.306168 l -104.294408,18.389918 M 362.164713,512.021994 l 112.186058,-19.781429 M 474.161151,488.212294 l -120.006305,21.160349 M 311.766506,512.785145 l 20.225761,-3.566347 M 473.951669,484.187525 l -118.220448,20.845455 M 307.710884,509.438554 l 36.825692,-6.493363 M 473.643699,480.180122 l -114.453699,20.181275 M 307.846221,505.352984 l 47.340433,-8.347396 M 473.214297,476.194130 l -110.290286,19.447153 M 308.252320,501.219671 l 164.507430,-29.007098 M 472.121237,468.263453 l -163.311314,28.796191 M 309.573579,492.863285 l 161.909144,-28.548951 M 470.656753,460.398268 l -160.008182,28.213760 M 312.018350,484.308793 l 157.800815,-27.824541 M 468.806606,452.601086 l -155.336784,27.390066 M 315.005708,475.658628 l 152.754668,-26.934769 M 466.470800,444.889539 l -149.838885,26.420638 M 318.227026,466.967210 l 83.284765,-14.685351 M 465.181224,441.055220 l -59.284240,10.453411 M 319.613853,462.660968 l 83.116619,-14.655703 M 463.891648,437.220900 l -46.934846,8.275880 M 321.000679,458.354727 l 82.948473,-14.626054 M 462.299337,433.439961 l -34.282718,6.044968 M 322.270899,454.069047 l 83.121450,-14.656554 M 460.680942,429.663622 l -22.677570,3.998667 M 323.343014,449.818297 l 83.714700,-14.761160 M 458.893004,425.917177 l -13.397569,2.362353 M 324.246694,445.597248 l 84.720955,-14.938590 M 456.951983,422.197725 l -3.964485,0.699046 M 325.087515,441.387282 l 86.201400,-15.199633 M 414.082575,421.633345 l -88.343308,15.577309 M 326.358189,433.039815 l 90.924630,-16.032466 M 420.981210,412.293517 l -94.146333,16.600539 M 327.249991,424.759153 l 98.242792,-17.322855 M 423.163183,403.785363 l -95.538492,16.846014 M 327.857423,416.528634 l 82.821944,-14.603743 M 395.741367,400.497156 l -67.651212,11.928734 M 328.261944,408.333893 l 52.437543,-9.246154 M 364.000887,397.970446 l -35.666980,6.289051 M 328.405871,400.185102 l 18.576269,-3.275497"
       id="path51" />
  </g>
  <g
     inkscape:label="fill-aeaeae"
     inkscape:groupmode="layer"
     id="fill-aeaeae">
    <path
       style="stroke:#aeaeae"
       d="M 717.436038,837.599395 l 4.444534,-0.944715 M 724.287120,832.053791 l -10.132155,2.153656 M 710.873892,830.815498 l 15.819775,-3.362597 M 729.100215,822.852011 l -21.507396,4.571538 M 704.311747,824.031600 l 27.195016,-5.780479 M 733.913310,813.650231 l -32.882637,6.989420 M 697.749601,817.247703 l 38.570257,-8.198361 M 738.726406,804.448451 l -44.257878,9.407302 M 691.187455,810.463805 l 49.945498,-10.616243 M 743.539501,795.246672 l -55.633119,11.825184 M 684.625309,803.679907 l 61.320739,-13.034125 M 748.352596,786.044892 l -67.008360,14.243067 M 678.063163,796.896010 l 72.695980,-15.452008 M 750.937473,777.316735 l -76.155383,16.187326 M 671.501017,790.112112 l 75.986974,-16.151530 M 744.038510,770.604430 l -75.818566,16.115734 M 664.938871,783.328215 l 75.650157,-16.079937 M 737.139547,763.892125 l -75.481748,16.044141 M 658.376726,776.544317 l 75.313340,-16.008345 M 730.240584,757.179820 l -75.144931,15.972548 M 651.814580,769.760419 l 74.976522,-15.936752 M 723.341620,750.467515 l -74.808114,15.900955 M 645.252434,762.976522 l 74.639705,-15.865159 M 716.442657,743.755210 l -74.471296,15.829363 M 638.690288,756.192624 l 74.302888,-15.793566 M 709.543694,737.042905 l -74.134479,15.757770 M 632.128142,749.408727 l 73.966070,-15.721974 M 702.644731,730.330601 l -73.797662,15.686177 M 625.565996,742.624829 l 73.629253,-15.650381 M 695.745768,723.618296 l -73.460845,15.614585 M 619.003850,735.840931 l 73.292436,-15.578788 M 688.846805,716.905991 l -73.124027,15.542992 M 612.441705,729.057034 l 72.955619,-15.507195 M 681.947842,710.193686 l -72.787210,15.471399 M 605.879559,722.273136 l 72.618801,-15.435603 M 675.048879,703.481381 l -72.450393,15.399806 M 600.078869,715.327386 l 71.520528,-15.202157 M 668.149915,696.769076 l -65.965759,14.021455 M 604.289444,706.253676 l 60.410990,-12.840752 M 661.250952,690.056771 l -54.856222,11.660050 M 608.500018,697.179966 l 49.301453,-10.479347 M 654.351989,683.344466 l -43.746684,9.298645 M 612.710592,688.106256 l 38.191915,-8.117942 M 647.453026,676.632162 l -32.637147,6.937240 M 616.921166,679.032546 l 27.082378,-5.756537 M 640.554063,669.919857 l -21.527609,4.575835 M 621.131741,669.958836 l 15.972841,-3.395132 M 631.664604,663.630645 l -8.427576,1.791337"
       id="path54" />
  </g>
  <g
     inkscape:label="fill-b3b3b3"
     inkscape:groupmode="layer"
     id="fill-b3b3b3">
    <path
       style="stroke:#b3b3b3"
       d="M 235.130871,572.100814 l 16.315445,-4.371710 M 260.645649,561.123046 l -16.462727,4.411174 M 253.234971,558.967626 l 16.610010,-4.450639 M 279.044314,547.910929 l -16.757292,4.490103 M 271.339072,545.834437 l 16.904574,-4.529567 M 297.442978,534.698812 l -17.051856,4.569031 M 289.443172,532.701249 l 17.199139,-4.608495 M 315.841643,521.486695 l -17.346421,4.647959 M 307.547273,519.568060 l 17.493703,-4.687424 M 316.941357,512.909818 l -0.342034,0.091648 M 401.295676,453.037204 l 3.528637,-0.945495 M 419.848635,443.924849 l -12.655625,3.391064 M 416.246263,440.748997 l 18.626695,-4.991008 M 444.405408,429.062672 l -19.105894,5.119409 M 434.352767,427.615164 l 19.244631,-5.156583 M 462.983133,415.802576 l -19.577114,5.245672 M 452.459271,414.481332 l 19.722765,-5.284699 M 481.380940,402.590689 l -19.868417,5.323726 M 470.565775,401.347499 l 20.014068,-5.362753 M 499.778747,389.378802 l -20.159720,5.401781 M 488.672279,388.213667 l 20.305371,-5.440808 M 518.176554,376.166915 l -20.451023,5.479835 M 506.778783,375.079834 l 20.596674,-5.518862 M 536.574360,362.955028 l -20.742326,5.557889 M 524.885287,361.946002 l 20.887977,-5.596917 M 554.972167,349.743142 l -21.033628,5.635944 M 542.991791,348.812169 l 21.179280,-5.674971 M 573.369974,336.531255 l -21.324931,5.713998 M 561.098295,335.678336 l 21.470583,-5.753025 M 591.767781,323.319368 l -21.616234,5.792053 M 579.204799,322.544504 l 21.761886,-5.831080 M 610.165588,310.107481 l -21.907537,5.870107 M 597.311303,309.410671 l 22.053189,-5.909134 M 628.563395,296.895594 l -22.198840,5.948161 M 615.417807,296.276839 l 22.344492,-5.987188 M 646.961202,283.683707 l -22.490143,6.026216"
       id="path57" />
  </g>
  <g
     inkscape:label="fill-bbbbbb"
     inkscape:groupmode="layer"
     id="fill-bbbbbb">
    <path
       style="stroke:#bbbbbb"
       d="M 761.892570,711.908833 l 6.328208,-2.178977 M 769.252382,705.144164 l -13.276599,4.571500 M 750.058996,707.522494 l 20.224990,-6.964023 M 771.315590,695.972779 l -27.173381,9.356545 M 738.225422,703.136155 l 34.121772,-11.749068 M 773.378799,686.801394 l -41.070163,14.141591 M 726.391849,698.749815 l 48.018554,-16.534114 M 775.442007,677.630009 l -54.966945,18.926637 M 714.558275,694.363476 l 61.458187,-21.161751 M 770.047032,671.026682 l -61.405544,21.143624 M 702.724701,689.977137 l 61.352901,-21.125498 M 758.108172,666.676596 l -61.300257,21.107371 M 690.891128,685.590797 l 61.247614,-21.089245 M 746.169312,662.326509 l -61.194971,21.071118 M 679.057554,681.204458 l 61.142328,-21.052992 M 734.230452,657.976423 l -61.089685,21.034866 M 667.223980,676.818119 l 61.037042,-21.016739 M 722.291593,653.626337 l -60.984399,20.998613 M 655.390407,672.431780 l 60.931756,-20.980486 M 710.352733,649.276250 l -60.879113,20.962360 M 643.556833,668.045440 l 60.826470,-20.944233 M 698.413873,644.926164 l -60.773827,20.926107 M 631.723259,663.659101 l 60.721184,-20.907980 M 684.716798,641.181480 l -58.910326,20.284452 M 619.889686,659.272762 l 56.229682,-19.361432 M 667.521937,638.641180 l -53.549038,18.438412 M 608.056112,654.886423 l 50.868394,-17.515393 M 650.327075,636.100880 l -48.187750,16.592373 M 596.222538,650.500083 l 45.507107,-15.669353 M 633.132214,633.560580 l -42.826463,14.746334 M 584.388965,646.113744 l 40.145819,-13.823314 M 615.937353,631.020280 l -37.465175,12.900294 M 572.555391,641.727405 l 36.217390,-12.470647 M 607.458919,625.478674 l -40.820315,14.055561 M 560.721817,637.341065 l 45.423239,-15.640476 M 604.831194,617.922506 l -50.026164,17.225390 M 548.888243,632.954726 l 54.629089,-18.810304 M 602.203470,610.366339 l -59.232013,20.395218 M 537.054670,628.568387 l 59.902141,-20.625961 M 590.989501,605.766653 l -59.851618,20.608565 M 525.221096,624.182048 l 59.801094,-20.591168 M 579.054881,601.415106 l -59.750571,20.573772 M 513.387522,619.795708 l 59.700048,-20.556375 M 567.120260,597.063560 l -59.649525,20.538978 M 501.553949,615.409369 l 59.599001,-20.521582 M 555.185640,592.712014 l -59.548478,20.504185 M 489.720375,611.023030 l 59.497955,-20.486789 M 543.251020,588.360468 l -59.447432,20.469392 M 477.886801,606.636691 l 59.396908,-20.451996 M 531.316400,584.008922 l -59.346385,20.434599 M 466.053228,602.250351 l 59.295862,-20.417203 M 519.381779,579.657376 l -59.245338,20.399806 M 454.219654,597.864012 l 59.194815,-20.382409 M 507.447159,575.305830 l -59.144292,20.365013 M 442.386080,593.477673 l 59.093769,-20.347616 M 495.512539,570.954283 l -59.043245,20.330220 M 430.552507,589.091333 l 58.992722,-20.312823 M 483.577919,566.602737 l -58.942199,20.295427 M 418.718933,584.704994 l 57.005998,-19.628739 M 465.282415,564.441419 l -50.339594,17.333312 M 415.974437,577.189035 l 38.865462,-13.382452 M 444.397383,563.171747 l -27.391331,9.431592 M 418.037668,568.017642 l 15.917200,-5.480731 M 423.512351,561.902074 l -4.443068,1.529871"
       id="path60" />
  </g>
  <g
     inkscape:label="fill-cdcdcd"
     inkscape:groupmode="layer"
     id="fill-cdcdcd">
    <path
       style="stroke:#cdcdcd"
       d="M 908.016205,544.547359 l 18.495555,-10.678413 M 919.122773,533.516177 l -36.416848,21.025277 M 875.377682,554.153615 l 36.356103,-20.990206 M 904.344798,532.810640 l -36.295359,20.955135 M 860.721197,553.377937 l 36.234615,-20.920065 M 889.566824,532.105103 l -36.173871,20.884994 M 846.064711,552.602258 l 36.113126,-20.849923 M 874.788850,531.399567 l -36.052382,20.814852 M 831.408225,551.826580 l 35.991638,-20.779782 M 860.010876,530.694030 l -35.930893,20.744711 M 816.751740,551.050901 l 35.870149,-20.709640 M 845.232901,529.988493 l -35.809405,20.674570 M 802.095254,550.275223 l 35.748661,-20.639499 M 830.454927,529.282956 l -35.687916,20.604428 M 787.438768,549.499545 l 35.627172,-20.569357 M 815.676953,528.577419 l -35.566428,20.534287 M 772.782282,548.723866 l 35.505683,-20.499216 M 800.898979,527.871882 l -35.444939,20.464145 M 758.125797,547.948188 l 35.384195,-20.429074 M 786.121005,527.166345 l -35.323451,20.394004 M 743.469311,547.172510 l 35.262706,-20.358933 M 771.343030,526.460808 l -35.201962,20.323862 M 728.812825,546.396831 l 35.141218,-20.288791 M 756.565056,525.755271 l -35.080473,20.253721 M 714.156340,545.621153 l 35.019729,-20.218650 M 741.787082,525.049734 l -34.958985,20.183579 M 699.499854,544.845475 l 34.898240,-20.148509 M 727.009108,524.344198 l -34.837496,20.113438 M 684.843368,544.069796 l 34.776752,-20.078367 M 712.231133,523.638661 l -34.716008,20.043296 M 670.186883,543.294118 l 34.655263,-20.008226 M 697.453159,522.933124 l -34.594519,19.973155 M 655.530397,542.518440 l 34.533775,-19.938084 M 682.675185,522.227587 l -34.473030,19.903013 M 640.873911,541.742761 l 34.412286,-19.867943 M 667.897211,521.522050 l -34.351542,19.832872 M 626.217426,540.967083 l 34.290798,-19.797801 M 653.119236,520.816513 l -34.230053,19.762730 M 611.560940,540.191404 l 34.169309,-19.727660 M 638.341262,520.110976 l -34.108565,19.692589 M 596.904454,539.415726 l 34.047820,-19.657518 M 623.563288,519.405439 l -33.987076,19.622448 M 582.247969,538.640048 l 33.926332,-19.587377 M 608.785314,518.699902 l -33.865588,19.552306 M 567.591483,537.864369 l 33.804843,-19.517235 M 594.007339,517.994366 l -33.744099,19.482165 M 552.934997,537.088691 l 33.683355,-19.447094 M 579.229365,517.288829 l -33.622610,19.412023 M 538.278512,536.313013 l 33.561866,-19.376952 M 564.451391,516.583292 l -33.501122,19.341882 M 523.622026,535.537334 l 33.440378,-19.306811 M 549.673417,515.877755 l -33.379633,19.271740 M 508.965540,534.761656 l 33.318889,-19.236670 M 534.895442,515.172218 l -33.258145,19.201599 M 494.309055,533.985978 l 33.197400,-19.166528 M 520.117468,514.466681 l -33.136656,19.131457 M 479.652569,533.210299 l 33.075912,-19.096387 M 505.339494,513.761144 l -33.015168,19.061316 M 464.996083,532.434621 l 32.954423,-19.026245 M 469.378476,525.285643 l -11.710635,6.761138 M 472.303040,523.597146 l 18.258480,-10.541538 M 461.513221,525.207848 l -11.173624,6.451095 M 472.909283,518.628329 l 10.263250,-5.925490 M 453.647967,525.130053 l -10.636612,6.141051 M 473.515526,513.659512 l 2.268019,-1.309442 M 445.782712,525.052257 l -10.099600,5.831007 M 428.354869,530.495425 l 9.949555,-5.744378 M 430.978472,524.361885 l -9.951846,5.745701 M 413.698384,529.719747 l 9.954137,-5.747024 M 416.650165,523.396733 l -10.280024,5.935175 M 399.041898,528.944068 l 10.846597,-6.262286 M 403.126826,521.966832 l -11.413171,6.589397 M 384.385412,528.168390 l 12.473459,-7.201555 M 390.666804,519.923024 l -13.609635,7.857526 M 369.728927,527.392711 l 15.042348,-8.684704 M 379.117193,517.353591 l -16.716509,9.651281 M 355.072441,526.617033 l 18.647343,-10.766049 M 368.507863,514.241286 l -20.763665,11.987907 M 340.415955,525.841355 l 23.054761,-13.310673 M 358.451191,510.809904 l -25.363479,14.643611 M 325.759470,525.065676 l 25.094398,-14.488258 M 336.463691,514.266789 l -18.032464,10.411048 M 311.102984,524.289998 l 10.970530,-6.333839 M 307.683337,521.645530 l -3.908596,2.256629"
       id="path63" />
  </g>
  <g
     inkscape:label="fill-d4d4d4"
     inkscape:groupmode="layer"
     id="fill-d4d4d4">
    <path
       style="stroke:#d4d4d4"
       d="M 884.181216,589.874678 l 0.717847,-0.484194 M 884.892698,584.569905 l -7.273993,4.906370 M 871.056194,589.077873 l 13.830139,-9.328546 M 884.879967,574.928749 l -20.386284,13.750722 M 857.931172,588.281069 l 26.942430,-18.172899 M 884.867237,565.287592 l -33.498576,22.595075 M 844.806150,587.484264 l 40.054721,-27.017251 M 884.854506,555.646435 l -46.610867,31.439427 M 831.681128,586.687460 l 47.838793,-32.267674 M 872.887954,554.068233 l -47.769336,32.220824 M 818.556107,585.890655 l 47.699879,-32.173974 M 859.624017,553.365128 l -47.630421,32.127125 M 805.431085,585.093850 l 47.560964,-32.080275 M 846.360081,552.662022 l -47.491507,32.033426 M 792.306063,584.297046 l 47.422049,-31.986576 M 833.096144,551.958917 l -47.352592,31.939727 M 779.181041,583.500241 l 47.283135,-31.892877 M 819.832208,551.255812 l -47.213677,31.846027 M 766.056019,582.703437 l 47.144220,-31.799178 M 806.568271,550.552706 l -47.074763,31.752328 M 752.930998,581.906632 l 47.005305,-31.705479 M 793.304335,549.849601 l -46.935848,31.658629 M 739.805976,581.109827 l 46.866391,-31.611780 M 780.040398,549.146495 l -46.796933,31.564930 M 726.680954,580.313023 l 46.727476,-31.518080 M 766.776462,548.443390 l -46.658018,31.471231 M 713.555932,579.516218 l 46.588561,-31.424381 M 753.512525,547.740284 l -46.519104,31.377532 M 700.430910,578.719414 l 46.449646,-31.330682 M 740.248589,547.037179 l -46.380189,31.283833 M 687.305889,577.922609 l 46.310732,-31.236983 M 726.984652,546.334073 l -46.241274,31.190133 M 674.180867,577.125804 l 46.171817,-31.143284 M 713.720716,545.630968 l -46.102360,31.096434 M 661.055845,576.329000 l 46.032902,-31.049585 M 700.456779,544.927862 l -45.963445,31.002735 M 647.930823,575.532195 l 45.893988,-30.955886 M 687.192843,544.224757 l -45.824530,30.909036 M 634.805801,574.735391 l 45.755073,-30.862186 M 673.928906,543.521652 l -45.685616,30.815337 M 621.680780,573.938586 l 45.616158,-30.768487 M 660.664970,542.818546 l -45.546701,30.721638 M 608.555758,573.141781 l 45.477244,-30.674788 M 647.401033,542.115441 l -45.407786,30.627939 M 595.430736,572.344977 l 45.338329,-30.581089 M 634.137097,541.412335 l -45.268872,30.534239 M 582.305714,571.548172 l 45.199414,-30.487390 M 620.873160,540.709230 l -45.129957,30.440540 M 569.180692,570.751368 l 45.060500,-30.393691 M 607.609224,540.006124 l -44.991042,30.346841 M 556.055671,569.954563 l 44.921585,-30.299992 M 594.345287,539.303019 l -44.852128,30.253142 M 542.930649,569.157759 l 44.782670,-30.206292 M 581.081351,538.599913 l -44.713213,30.159443 M 529.805627,568.360954 l 44.643756,-30.112593 M 567.817414,537.896808 l -44.574298,30.065744 M 516.680605,567.564149 l 44.504841,-30.018894 M 554.553478,537.193702 l -44.435383,29.972045 M 503.555583,566.767345 l 44.365926,-29.925195 M 541.289541,536.490597 l -44.296469,29.878345 M 490.430562,565.970540 l 44.227011,-29.831496 M 528.025605,535.787491 l -44.157554,29.784646 M 477.305540,565.173736 l 44.088097,-29.737797 M 514.761668,535.084386 l -44.018639,29.690947 M 464.180518,564.376931 l 43.949182,-29.644098 M 501.497732,534.381281 l -43.879725,29.597248 M 451.055496,563.580126 l 43.810267,-29.550398 M 488.233795,533.678175 l -43.740810,29.503549 M 437.930474,562.783322 l 43.671353,-29.456699 M 474.969859,532.975070 l -43.601895,29.409850 M 424.805452,561.986517 l 43.532438,-29.363000 M 461.705922,532.271964 l -43.462981,29.316151 M 411.680431,561.189713 l 43.393523,-29.269301 M 448.441986,531.568859 l -43.324066,29.222452 M 398.555409,560.392908 l 43.254609,-29.175602 M 435.178049,530.865753 l -43.185151,29.128752 M 385.430387,559.596103 l 43.115694,-29.081903 M 421.914113,530.162648 l -43.046237,29.035053 M 372.305365,558.799299 l 42.976779,-28.988204 M 408.650176,529.459542 l -42.907322,28.941354 M 359.180343,558.002494 l 42.837865,-28.894505 M 395.386240,528.756437 l -42.768407,28.847655 M 346.055322,557.205690 l 42.698950,-28.800805 M 382.122303,528.053331 l -42.629493,28.753956 M 332.930300,556.408885 l 42.560035,-28.707106 M 368.858367,527.350226 l -42.490578,28.660257 M 319.805278,555.612080 l 42.421121,-28.613407 M 355.594430,526.647121 l -42.351663,28.566558 M 306.680256,554.815276 l 42.282206,-28.519708 M 342.330494,525.944015 l -42.212749,28.472858 M 299.024787,550.329211 l 36.673739,-24.736749 M 329.066557,525.240910 l -29.916468,20.178913 M 299.275392,540.510433 l 23.159198,-15.621076 M 315.802621,524.537804 l -16.401927,11.063240 M 299.525996,530.691654 l 9.644657,-6.505403 M 302.538684,523.834699 l -2.887386,1.947567"
       id="path66" />
  </g>
</svg>
