<?xml version="1.0" encoding="UTF-8" standalone="no"?>
<!-- Created with Inkscape (http://www.inkscape.org/) -->

<svg
   xmlns:dc="http://purl.org/dc/elements/1.1/"
   xmlns:cc="http://creativecommons.org/ns#"
   xmlns:rdf="http://www.w3.org/1999/02/22-rdf-syntax-ns#"
   xmlns:svg="http://www.w3.org/2000/svg"
   xmlns="http://www.w3.org/2000/svg"
   xmlns:sodipodi="http://sodipodi.sourceforge.net/DTD/sodipodi-0.dtd"
   xmlns:inkscape="http://www.inkscape.org/namespaces/inkscape"
   id="svg2"
   version="1.1"
   inkscape:version="0.48.3.1 r9886"
   width="1500"
   height="1269"
   sodipodi:docname="hantologie-_0001_oiseau-noir_hatched_1398271397.svg">
  <defs
     id="defs27" />
  <sodipodi:namedview
     pagecolor="#ffffff"
     bordercolor="#666666"
     borderopacity="1"
     objecttolerance="10"
     gridtolerance="10"
     guidetolerance="10"
     inkscape:pageopacity="0"
     inkscape:pageshadow="2"
     inkscape:window-width="640"
     inkscape:window-height="480"
     id="namedview25" />
  <metadata
     id="metadata8">
    <rdf:RDF>
      <cc:Work
         rdf:about="">
        <dc:format>image/svg+xml </dc:format>
        <dc:type
           rdf:resource="http://purl.org/dc/dcmitype/StillImage" />
        <dc:title />
      </cc:Work>
    </rdf:RDF>
  </metadata>
  <g
     inkscape:label="fill-0c0c0c"
     inkscape:groupmode="layer"
     id="fill-0c0c0c">
    <path
       style="stroke:#0c0c0c"
       d="M 266.056954,479.554567 l 0.000000,9.610086 M 276.056954,493.603867 l 0.000000,-19.405032 M 286.056954,477.656314 l 0.000000,5.579891 M 286.056954,498.417536 l 0.000000,-13.654087 M 296.056954,483.908521 l 0.000000,4.383994 M 296.056954,509.983104 l 0.000000,-17.328486 M 306.056954,512.644434 l 0.000000,9.630201 M 316.056954,520.118576 l 0.000000,-20.288647 M 316.056954,523.319929 l 0.000000,2.565968 M 326.056954,506.057772 l 0.000000,-4.302623 M 326.056954,522.821360 l 0.000000,8.806644 M 336.056954,517.717736 l 0.000000,-26.903438 M 336.056954,525.722704 l 0.000000,8.979600 M 346.056954,516.756342 l 0.000000,-26.666772 M 346.056954,520.734478 l 0.000000,18.971673 M 356.056954,538.206655 l 0.000000,-42.964241 M 366.056954,492.059223 l 0.000000,46.165938 M 366.056954,561.357236 l 0.000000,-8.916053 M 366.056954,582.654018 l 0.000000,2.952064 M 376.056954,531.449490 l 0.000000,-39.655830 M 376.056954,548.214249 l 0.000000,1.950575 M 386.056954,529.061864 l 0.000000,-41.772362 M 386.056954,552.529191 l 0.000000,4.394328 M 396.056954,523.292138 l 0.000000,-35.376294 M 396.056954,534.949022 l 0.000000,2.095860 M 396.056954,567.252079 l 0.000000,-16.966385 M 396.056954,596.519445 l 0.000000,1.083332 M 406.056954,513.377608 l 0.000000,-28.998258 M 406.056954,529.409471 l 0.000000,3.425046 M 406.056954,568.865509 l 0.000000,-21.780263 M 406.056954,580.271741 l 0.000000,25.992721 M 416.056954,503.612914 l 0.000000,-24.593077 M 416.056954,508.072485 l 0.000000,9.837331 M 416.056954,530.991056 l 0.000000,-5.899277 M 416.056954,540.830758 l 0.000000,15.473923 M 416.056954,605.308048 l 0.000000,-44.121099 M 426.056954,480.199079 l 0.000000,5.135789 M 426.056954,521.209778 l 0.000000,-17.688995 M 426.056954,532.570212 l 0.000000,0.072655 M 426.056954,554.098169 l 0.000000,-11.367740 M 426.056954,564.613824 l 0.000000,40.402840 M 436.056954,462.866132 l 0.000000,-4.374011 M 436.056954,475.419421 l 0.000000,2.405266 M 436.056954,529.598262 l 0.000000,-33.260924 M 436.056954,538.211169 l 0.000000,8.025788 M 436.056954,555.692235 l 0.000000,-4.268109 M 436.056954,557.412166 l 0.000000,46.396012 M 446.056954,444.941235 l 0.000000,-3.303569 M 446.056954,489.958480 l 0.000000,22.531407 M 446.056954,526.616078 l 0.000000,-12.641165 M 446.056954,555.862160 l 0.000000,17.241894 M 446.056954,581.404691 l 0.000000,-5.541027 M 446.056954,583.361306 l 0.000000,20.061641 M 456.056954,449.628935 l 0.000000,-60.788390 M 456.056954,455.232879 l 0.000000,3.504646 M 456.056954,502.508478 l 0.000000,-13.396870 M 456.056954,506.765586 l 0.000000,13.412895 M 456.056954,572.166746 l 0.000000,-24.310208 M 456.056954,573.328983 l 0.000000,7.673732 M 456.056954,603.251231 l 0.000000,-18.315597 M 466.056954,385.171135 l 0.000000,59.024642 M 466.056954,491.762717 l 0.000000,-15.854968 M 466.056954,502.187850 l 0.000000,15.149518 M 466.056954,572.043789 l 0.000000,-54.337199 M 466.056954,574.935957 l 0.000000,10.940546 M 466.056954,601.513852 l 0.000000,-13.916398 M 476.056954,377.816489 l 0.000000,59.854143 M 476.056954,473.071253 l 0.000000,-18.203887 M 476.056954,479.168042 l 0.000000,13.802776 M 476.056954,585.999710 l 0.000000,-90.709972 M 476.056954,591.753068 l 0.000000,4.296048 M 486.056954,433.597003 l 0.000000,-61.909572 M 486.056954,447.737074 l 0.000000,12.193320 M 486.056954,472.386301 l 0.000000,-5.851918 M 486.056954,473.064427 l 0.000000,9.195205 M 486.056954,568.316740 l 0.000000,-84.193372 M 486.056954,580.001516 l 0.000000,9.879625 M 496.056954,428.477782 l 0.000000,-59.025967 M 496.056954,434.065334 l 0.000000,1.726158 M 496.056954,566.711218 l 0.000000,-124.298094 M 496.056954,581.594822 l 0.000000,3.300734 M 496.056954,592.205530 l 0.000000,-3.541783 M 506.056954,371.879777 l 0.000000,52.620601 M 506.056954,498.593661 l 0.000000,-61.431555 M 506.056954,502.295858 l 0.000000,5.111159 M 506.056954,556.023239 l 0.000000,-43.669136 M 506.056954,558.070078 l 0.000000,2.667189 M 506.056954,597.552521 l 0.000000,-13.171034 M 516.056954,436.954048 l 0.000000,59.380381 M 516.056954,537.433805 l 0.000000,-22.785528 M 516.056954,543.986765 l 0.000000,7.108947 M 516.056954,560.734657 l 0.000000,-7.144935 M 516.056954,569.237319 l 0.000000,2.587709 M 516.056954,590.316075 l 0.000000,-3.622166 M 516.056954,593.692502 l 0.000000,2.203761 M 526.056954,423.544533 l 0.000000,-8.172826 M 526.056954,437.823941 l 0.000000,38.179684 M 526.056954,552.061536 l 0.000000,-2.242520 M 526.056954,556.891441 l 0.000000,3.694398 M 526.056954,569.403933 l 0.000000,-2.091118 M 526.056954,581.206165 l 0.000000,3.265985 M 526.056954,589.879016 l 0.000000,-1.175471 M 526.056954,598.270486 l 0.000000,4.031142 M 536.056954,386.840218 l 0.000000,-1.707400 M 536.056954,412.522909 l 0.000000,12.895210 M 536.056954,502.096461 l 0.000000,-59.561159 M 536.056954,547.334850 l 0.000000,9.893485 M 536.056954,578.459485 l 0.000000,-2.588459 M 536.056954,582.263200 l 0.000000,3.508428 M 536.056954,596.866613 l 0.000000,-0.734424 M 536.056954,601.197814 l 0.000000,4.723633 M 546.056954,431.155228 l 0.000000,-20.248022 M 546.056954,435.165110 l 0.000000,3.740581 M 546.056954,500.864526 l 0.000000,-50.594483 M 546.056954,520.549903 l 0.000000,32.968508 M 546.056954,575.917246 l 0.000000,-1.758796 M 546.056954,583.846356 l 0.000000,2.617956 M 556.056954,494.292227 l 0.000000,-47.589890 M 556.056954,506.463100 l 0.000000,43.445621 M 556.056954,587.550167 l 0.000000,-10.820754 M 566.056954,433.370457 l 0.000000,17.860943 M 566.056954,478.969827 l 0.000000,-19.244673 M 566.056954,500.445003 l 0.000000,57.277409 M 566.056954,576.842806 l 0.000000,-3.219380 M 566.056954,585.994004 l 0.000000,1.429820 M 576.056954,408.896989 l 0.000000,-3.708029 M 576.056954,416.152666 l 0.000000,33.230953 M 576.056954,508.870118 l 0.000000,-18.760194 M 576.056954,523.451914 l 0.000000,26.769729 M 576.056954,555.558452 l 0.000000,-4.289725 M 576.056954,570.344785 l 0.000000,4.217658 M 576.056954,578.853120 l 0.000000,-1.209861 M 576.056954,584.918024 l 0.000000,2.007497 M 586.056954,510.531285 l 0.000000,-76.484168 M 586.056954,534.921957 l 0.000000,11.872418 M 586.056954,561.522428 l 0.000000,-12.978829 M 586.056954,569.917883 l 0.000000,5.797312 M 586.056954,602.566134 l 0.000000,-10.930679 M 596.056954,444.333381 l 0.000000,65.203408 M 596.056954,553.256652 l 0.000000,-5.130766 M 596.056954,558.123118 l 0.000000,2.574981 M 596.056954,573.952966 l 0.000000,-11.422129 M 596.056954,587.311695 l 0.000000,6.906299 M 606.056954,501.481169 l 0.000000,-45.804986 M 606.056954,563.092930 l 0.000000,4.311533 M 616.056954,490.501390 l 0.000000,-28.975544"
       id="path5" />
  </g>
  <g
     inkscape:label="fill-2d2d2d"
     inkscape:groupmode="layer"
     id="fill-2d2d2d">
    <path
       style="stroke:#2d2d2d"
       d="M 259.554271,477.496908 l 0.000000,7.638745 M 269.554271,465.328345 l 0.000000,-7.435044 M 269.554271,472.026317 l 0.000000,30.268280 M 279.554271,464.120797 l 0.000000,-5.437009 M 279.554271,473.080511 l 0.000000,29.602326 M 289.554271,516.612037 l 0.000000,-41.284506 M 299.554271,471.767700 l 0.000000,10.618680 M 299.554271,521.847843 l 0.000000,-37.458869 M 309.554271,459.486466 l 0.000000,11.168776 M 309.554271,498.311953 l 0.000000,-2.276593 M 309.554271,501.316841 l 0.000000,28.033591 M 319.554271,470.059795 l 0.000000,-6.532622 M 319.554271,491.919719 l 0.000000,46.272427 M 329.554271,546.048544 l 0.000000,-63.459957 M 339.554271,477.741581 l 0.000000,64.781354 M 349.554271,545.348057 l 0.000000,-59.546060 M 359.554271,489.844782 l 0.000000,53.847890 M 359.554271,561.742781 l 0.000000,-2.985340 M 359.554271,577.140273 l 0.000000,5.832005 M 369.554271,541.231621 l 0.000000,-53.971241 M 369.554271,546.754947 l 0.000000,17.052855 M 369.554271,593.229380 l 0.000000,-11.021271 M 379.554271,484.862658 l 0.000000,49.687285 M 379.554271,578.092448 l 0.000000,-34.605842 M 379.554271,588.389739 l 0.000000,12.283124 M 389.554271,529.557767 l 0.000000,-46.145030 M 389.554271,536.533688 l 0.000000,4.399436 M 389.554271,587.789827 l 0.000000,-42.965069 M 389.554271,589.877054 l 0.000000,14.950657 M 399.554271,608.030313 l 0.000000,-125.397948 M 409.554271,474.980286 l 0.000000,136.019554 M 419.554271,503.243768 l 0.000000,-28.251386 M 419.554271,503.294869 l 0.000000,110.740482 M 429.554271,494.371708 l 0.000000,-44.592748 M 429.554271,497.939793 l 0.000000,119.466987 M 439.554271,418.708900 l 0.000000,-11.180397 M 439.554271,447.402324 l 0.000000,20.023023 M 439.554271,483.907110 l 0.000000,-13.137068 M 439.554271,489.334309 l 0.000000,127.067591 M 449.554271,404.341462 l 0.000000,-14.128337 M 449.554271,404.604556 l 0.000000,17.830898 M 449.554271,615.167767 l 0.000000,-187.905053 M 459.554271,381.662471 l 0.000000,232.054336 M 469.554271,612.279397 l 0.000000,-231.701549 M 479.554271,373.218420 l 0.000000,237.304174 M 489.554271,605.238141 l 0.000000,-235.254540 M 499.554271,367.350356 l 0.000000,241.297070 M 499.554271,615.805674 l 0.000000,-5.845496 M 509.554271,371.014876 l 0.000000,246.766412 M 519.554271,417.625060 l 0.000000,-12.007659 M 519.554271,419.518944 l 0.000000,79.448773 M 519.554271,580.808948 l 0.000000,-66.884215 M 519.554271,582.868890 l 0.000000,32.989252 M 529.554271,375.125462 l 0.000000,-9.533127 M 529.554271,401.556682 l 0.000000,91.650161 M 529.554271,510.785339 l 0.000000,-9.947904 M 529.554271,551.896716 l 0.000000,63.330896 M 539.554271,392.335310 l 0.000000,-17.141331 M 539.554271,404.496140 l 0.000000,3.572768 M 539.554271,503.480802 l 0.000000,-94.036876 M 539.554271,540.016592 l 0.000000,72.955306 M 549.554271,392.293114 l 0.000000,-16.645000 M 549.554271,408.669964 l 0.000000,36.019956 M 549.554271,502.850419 l 0.000000,-53.372222 M 549.554271,507.293613 l 0.000000,102.842384 M 559.554271,393.046236 l 0.000000,-8.562200 M 559.554271,411.501434 l 0.000000,6.019187 M 559.554271,430.684698 l 0.000000,-1.163636 M 559.554271,442.378967 l 0.000000,48.583581 M 559.554271,600.995464 l 0.000000,-97.780489 M 569.554271,387.817166 l 0.000000,25.581231 M 569.554271,475.344096 l 0.000000,-60.691876 M 569.554271,496.068685 l 0.000000,105.871588 M 579.554271,455.449528 l 0.000000,-64.850530 M 579.554271,480.496984 l 0.000000,122.332786 M 589.554271,396.811516 l 0.000000,-4.239533 M 589.554271,422.500868 l 0.000000,93.189958 M 589.554271,605.019226 l 0.000000,-83.175614 M 599.554271,428.783814 l 0.000000,81.903938 M 599.554271,585.042067 l 0.000000,-67.572958 M 599.554271,586.499069 l 0.000000,10.096732 M 609.554271,500.744731 l 0.000000,-67.761976 M 609.554271,521.778036 l 0.000000,28.747819 M 609.554271,575.208200 l 0.000000,-21.947553 M 619.554271,441.329078 l 0.000000,48.898806 M 619.554271,528.366693 l 0.000000,-7.114032 M 619.554271,529.775715 l 0.000000,39.718541 M 629.554271,552.484634 l 0.000000,-18.053971 M 629.554271,554.733825 l 0.000000,9.471692 M 639.554271,544.683583 l 0.000000,-4.405350 M 639.554271,549.766980 l 0.000000,5.032019 M 649.554271,505.390520 l 0.000000,-7.319535 M 659.554271,501.254019 l 0.000000,2.673186 M 809.554271,614.040810 l 0.000000,-0.898780 M 819.554271,619.408171 l 0.000000,3.204443"
       id="path8" />
  </g>
  <g
     inkscape:label="fill-505050"
     inkscape:groupmode="layer"
     id="fill-505050">
    <path
       style="stroke:#505050"
       d="M 256.623011,475.010194 l 0.000000,9.384162 M 267.623011,466.153634 l 0.000000,-11.400557 M 267.623011,470.139808 l 0.000000,33.231218 M 278.623011,466.320125 l 0.000000,-12.045781 M 278.623011,471.854208 l 0.000000,39.160328 M 289.623011,466.420212 l 0.000000,-7.452288 M 289.623011,474.114830 l 0.000000,44.276404 M 300.623011,524.500426 l 0.000000,-61.796582 M 311.623011,455.033110 l 0.000000,18.276936 M 311.623011,484.412030 l 0.000000,-3.455651 M 311.623011,493.251170 l 0.000000,39.526049 M 322.623011,550.823582 l 0.000000,-86.026139 M 333.623011,470.178761 l 0.000000,74.788525 M 333.623011,559.168512 l 0.000000,-5.403274 M 344.623011,479.109554 l 0.000000,94.480792 M 355.623011,552.511651 l 0.000000,-66.199467 M 355.623011,566.905276 l 0.000000,17.152810 M 366.623011,545.026322 l 0.000000,-59.184662 M 366.623011,546.821068 l 0.000000,22.650393 M 366.623011,592.082617 l 0.000000,-15.295709 M 377.623011,480.016058 l 0.000000,120.746940 M 388.623011,606.416937 l 0.000000,-128.634450 M 399.623011,475.725960 l 0.000000,135.078217 M 410.623011,614.328755 l 0.000000,-143.921212 M 421.623011,432.628724 l 0.000000,5.691524 M 421.623011,618.347755 l 0.000000,-175.276500 M 432.623011,413.728202 l 0.000000,24.222100 M 432.623011,620.336171 l 0.000000,-177.398292 M 443.623011,395.471570 l 0.000000,224.819856 M 454.623011,620.919459 l 0.000000,-237.200691 M 465.623011,377.354029 l 0.000000,247.895440 M 476.623011,624.439718 l 0.000000,-251.399324 M 487.623011,369.462010 l 0.000000,254.299411 M 498.623011,623.077103 l 0.000000,-255.689517 M 509.623011,364.965685 l 0.000000,254.993662 M 520.623011,370.336709 l 0.000000,-9.382202 M 520.623011,380.954281 l 0.000000,120.719514 M 520.623011,618.072995 l 0.000000,-109.032024 M 531.623011,362.411757 l 0.000000,148.436000 M 531.623011,526.068957 l 0.000000,-8.116628 M 531.623011,547.502846 l 0.000000,68.923535 M 542.623011,363.430455 l 0.000000,-6.317354 M 542.623011,367.576101 l 0.000000,26.509463 M 542.623011,407.965736 l 0.000000,-6.053757 M 542.623011,408.976642 l 0.000000,110.895186 M 542.623011,613.343170 l 0.000000,-89.599563 M 553.623011,336.886644 l 0.000000,23.124598 M 553.623011,395.922760 l 0.000000,-29.582351 M 553.623011,408.077640 l 0.000000,13.501282 M 553.623011,442.136791 l 0.000000,-13.621638 M 553.623011,446.209605 l 0.000000,55.431743 M 553.623011,610.442044 l 0.000000,-106.605703 M 564.623011,344.033574 l 0.000000,26.531721 M 564.623011,403.840213 l 0.000000,-26.190788 M 564.623011,406.108799 l 0.000000,79.075992 M 564.623011,608.446239 l 0.000000,-109.432082 M 575.623011,370.789078 l 0.000000,4.984607 M 575.623011,467.474237 l 0.000000,-85.324087 M 575.623011,483.918952 l 0.000000,135.161649 M 586.623011,609.585805 l 0.000000,-235.962995 M 597.623011,421.266473 l 0.000000,181.760053 M 608.623011,505.409803 l 0.000000,-88.097409 M 608.623011,515.155807 l 0.000000,68.555850 M 619.623011,493.616844 l 0.000000,-60.212515 M 619.623011,496.570765 l 0.000000,5.048951 M 619.623011,582.169115 l 0.000000,-63.899801 M 630.623011,495.597032 l 0.000000,4.794763 M 630.623011,576.843969 l 0.000000,-44.007731 M 641.623011,495.546957 l 0.000000,1.242377 M 641.623011,508.198328 l 0.000000,-10.282452 M 641.623011,540.954282 l 0.000000,30.544205 M 652.623011,512.723553 l 0.000000,-17.582695 M 652.623011,528.160582 l 0.000000,6.325259 M 652.623011,539.957855 l 0.000000,-2.289060 M 652.623011,544.165145 l 0.000000,25.811074 M 663.623011,530.980985 l 0.000000,-34.122495 M 663.623011,535.759593 l 0.000000,29.696983 M 674.623011,507.180283 l 0.000000,-3.830586 M 674.623011,510.327141 l 0.000000,26.914650 M 674.623011,567.432518 l 0.000000,-18.215562 M 685.623011,526.197947 l 0.000000,18.875030 M 685.623011,567.874535 l 0.000000,-13.175857 M 696.623011,534.036979 l 0.000000,22.050657 M 696.623011,571.886431 l 0.000000,-2.188286 M 707.623011,541.824502 l 0.000000,3.853492 M 707.623011,552.779836 l 0.000000,-3.968438 M 707.623011,557.216906 l 0.000000,1.655189 M 740.623011,561.760697 l 0.000000,-2.640957 M 773.623011,595.938536 l 0.000000,3.166677 M 784.623011,609.987659 l 0.000000,-2.262364 M 795.623011,594.156386 l 0.000000,3.904926 M 795.623011,620.570078 l 0.000000,-2.087097 M 806.623011,603.218055 l 0.000000,9.028757 M 817.623011,622.667436 l 0.000000,-10.933202 M 828.623011,623.272345 l 0.000000,11.685513 M 839.623011,636.301527 l 0.000000,-5.027612 M 839.623011,636.315354 l 0.000000,5.998206 M 850.623011,651.009222 l 0.000000,-5.153660 M 872.623011,652.214991 l 0.000000,10.010185 M 883.623011,663.428020 l 0.000000,-2.895740 M 883.623011,671.227633 l 0.000000,8.422208 M 894.623011,668.979163 l 0.000000,-2.937912 M 894.623011,680.693680 l 0.000000,1.923264 M 905.623011,665.271868 l 0.000000,-5.219830 M 905.623011,670.993985 l 0.000000,7.094993 M 905.623011,694.082864 l 0.000000,-12.721859 M 916.623011,667.252731 l 0.000000,4.535760 M 916.623011,681.908882 l 0.000000,-3.233207 M 916.623011,693.417915 l 0.000000,8.862332 M 927.623011,677.522832 l 0.000000,-5.287405 M 927.623011,699.654834 l 0.000000,9.576593 M 938.623011,684.468896 l 0.000000,-6.735256 M 938.623011,707.226718 l 0.000000,8.994914 M 949.623011,691.073549 l 0.000000,-7.781739 M 949.623011,714.407662 l 0.000000,7.415846 M 960.623011,697.304811 l 0.000000,-8.044658 M 960.623011,719.683199 l 0.000000,10.209383 M 971.623011,702.048706 l 0.000000,-4.547775 M 971.623011,725.703160 l 0.000000,11.090240 M 982.623011,743.235638 l 0.000000,-10.670251 M 993.623011,740.952407 l 0.000000,8.249439 M 1004.623011,731.683944 l 0.000000,-4.850708 M 1004.623011,749.228218 l 0.000000,5.590812 M 1015.623011,739.020431 l 0.000000,-4.404031 M 1015.623011,755.439722 l 0.000000,4.784190 M 1026.623011,765.429588 l 0.000000,-5.047071 M 1037.623011,765.902890 l 0.000000,4.709341 M 1048.623011,776.352179 l 0.000000,-6.606258 M 1059.623011,778.281648 l 0.000000,2.404253 M 1070.623011,763.355464 l 0.000000,-1.860824 M 1070.623011,779.023284 l 0.000000,5.928715 M 1081.623011,785.104578 l 0.000000,-4.529564 M 1092.623011,787.641419 l 0.000000,3.495884 M 1103.623011,778.775306 l 0.000000,-5.587619 M 1103.623011,788.285780 l 0.000000,6.030055 M 1114.623011,780.554031 l 0.000000,-3.274996 M 1114.623011,790.349053 l 0.000000,7.082841 M 1114.623011,804.739508 l 0.000000,-1.978094 M 1125.623011,782.683656 l 0.000000,1.903594 M 1125.623011,800.243112 l 0.000000,-7.529317 M 1125.623011,804.401990 l 0.000000,2.091729 M 1136.623011,786.941597 l 0.000000,-1.944316 M 1136.623011,795.643707 l 0.000000,7.356283 M 1136.623011,808.865575 l 0.000000,-2.160975 M 1147.623011,797.401181 l 0.000000,8.355687 M 1158.623011,808.354588 l 0.000000,-9.619992 M 1158.623011,812.870630 l 0.000000,1.421647 M 1169.623011,810.288966 l 0.000000,-10.218298 M 1180.623011,779.553511 l 0.000000,2.397883 M 1180.623011,810.714590 l 0.000000,-9.263605 M 1180.623011,817.637176 l 0.000000,1.865454 M 1191.623011,811.251437 l 0.000000,-8.420135 M 1202.623011,804.182443 l 0.000000,7.965769 M 1202.623011,822.161756 l 0.000000,-0.967503 M 1213.623011,805.326905 l 0.000000,9.042551 M 1213.623011,825.209985 l 0.000000,-2.320397 M 1224.623011,806.175186 l 0.000000,9.430120 M 1224.623011,823.907022 l 0.000000,-2.730983 M 1235.623011,807.041257 l 0.000000,8.752843 M 1235.623011,826.053202 l 0.000000,-3.331105 M 1246.623011,808.027065 l 0.000000,6.280458 M 1246.623011,827.642737 l 0.000000,-3.463570 M 1257.623011,816.290882 l 0.000000,0.528143 M 1257.623011,828.753517 l 0.000000,-3.109368 M 1268.623011,827.287750 l 0.000000,2.438482 M 1290.623011,795.464999 l 0.000000,-7.872863"
       id="path11" />
  </g>
  <g
     inkscape:label="fill-6e6e6e"
     inkscape:groupmode="layer"
     id="fill-6e6e6e">
    <path
       style="stroke:#6e6e6e"
       d="M 210.695516,468.249143 l 0.000000,2.434003 M 222.695516,470.419934 l 0.000000,-3.886971 M 234.695516,466.416996 l 0.000000,5.148521 M 246.695516,476.846341 l 0.000000,-4.939299 M 258.695516,458.880310 l 0.000000,6.220517 M 258.695516,495.390933 l 0.000000,-20.912875 M 270.695516,453.515963 l 0.000000,52.841764 M 282.695516,466.460772 l 0.000000,-15.405926 M 282.695516,472.251011 l 0.000000,42.504031 M 294.695516,451.165450 l 0.000000,-3.660590 M 294.695516,456.870855 l 0.000000,12.340651 M 294.695516,521.370013 l 0.000000,-48.487087 M 306.695516,451.072060 l 0.000000,80.909342 M 318.695516,547.693989 l 0.000000,-88.555897 M 330.695516,467.407097 l 0.000000,90.502329 M 342.695516,575.592527 l 0.000000,-99.164968 M 354.695516,485.275926 l 0.000000,72.146087 M 354.695516,587.556371 l 0.000000,-28.016685 M 366.695516,484.655085 l 0.000000,110.627418 M 378.695516,602.434567 l 0.000000,-124.094022 M 390.695516,475.391588 l 0.000000,132.860920 M 402.695516,612.772491 l 0.000000,-138.310612 M 414.695516,458.036999 l 0.000000,159.010051 M 426.695516,621.010914 l 0.000000,-200.813850 M 438.695516,400.947307 l 0.000000,221.798667 M 450.695516,624.460289 l 0.000000,-238.380100 M 462.695516,378.031965 l 0.000000,248.726157 M 474.695516,626.096587 l 0.000000,-253.250955 M 486.695516,369.408539 l 0.000000,255.304525 M 498.695516,623.700481 l 0.000000,-257.172100 M 510.695516,349.460002 l 0.000000,7.492726 M 510.695516,620.870475 l 0.000000,-259.662950 M 522.695516,354.481174 l 0.000000,264.126425 M 534.695516,527.952226 l 0.000000,-168.959186 M 534.695516,529.392709 l 0.000000,87.114734 M 546.695516,342.565484 l 0.000000,-7.564326 M 546.695516,344.849001 l 0.000000,51.711425 M 546.695516,405.150887 l 0.000000,-4.091966 M 546.695516,407.813747 l 0.000000,205.296369 M 558.695516,354.109020 l 0.000000,-17.235656 M 558.695516,357.561042 l 0.000000,42.191439 M 558.695516,495.705992 l 0.000000,-90.628503 M 558.695516,501.038881 l 0.000000,109.081748 M 558.695516,644.511228 l 0.000000,-4.886213 M 570.695516,350.017844 l 0.000000,13.035873 M 570.695516,478.971786 l 0.000000,-105.309389 M 570.695516,483.528215 l 0.000000,127.023095 M 570.695516,628.137595 l 0.000000,-10.812498 M 582.695516,375.234414 l 0.000000,237.274117 M 594.695516,606.656450 l 0.000000,-222.985245 M 606.695516,410.599597 l 0.000000,177.768524 M 618.695516,586.418706 l 0.000000,-157.032109 M 630.695516,483.518401 l 0.000000,20.382051 M 630.695516,584.215941 l 0.000000,-76.665863 M 642.695516,484.502027 l 0.000000,0.584592 M 642.695516,535.079880 l 0.000000,-43.066699 M 642.695516,541.285898 l 0.000000,38.020898 M 654.695516,575.794341 l 0.000000,-84.358884 M 666.695516,495.305747 l 0.000000,81.019909 M 678.695516,576.220528 l 0.000000,-75.278813 M 690.695516,506.894685 l 0.000000,1.580696 M 690.695516,520.681672 l 0.000000,-9.312329 M 690.695516,527.204932 l 0.000000,51.297146 M 702.695516,563.708838 l 0.000000,-28.646491 M 702.695516,568.442033 l 0.000000,9.536799 M 714.695516,549.502588 l 0.000000,-4.544224 M 714.695516,551.587183 l 0.000000,20.909983 M 726.695516,555.831522 l 0.000000,-4.809270 M 726.695516,558.200739 l 0.000000,22.441774 M 738.695516,589.295137 l 0.000000,-31.310518 M 750.695516,563.362730 l 0.000000,15.596131 M 750.695516,596.311179 l 0.000000,-14.992181 M 762.695516,571.845995 l 0.000000,37.680373 M 774.695516,580.256892 l 0.000000,-1.303244 M 774.695516,585.092350 l 0.000000,7.012034 M 774.695516,621.823317 l 0.000000,-28.634223 M 786.695516,589.426285 l 0.000000,9.717466 M 786.695516,622.201550 l 0.000000,-20.547588 M 798.695516,594.013088 l 0.000000,12.213242 M 798.695516,626.565088 l 0.000000,-16.702765 M 810.695516,600.756826 l 0.000000,37.575044 M 822.695516,650.016136 l 0.000000,-37.603114 M 834.695516,625.109568 l 0.000000,33.382812 M 846.695516,655.100403 l 0.000000,-21.311351 M 858.695516,641.447803 l 0.000000,24.529851 M 870.695516,670.566959 l 0.000000,-21.821637 M 882.695516,656.407584 l 0.000000,28.020073 M 894.695516,659.499136 l 0.000000,-4.486781 M 894.695516,663.469391 l 0.000000,6.790122 M 894.695516,690.358137 l 0.000000,-15.821183 M 906.695516,659.014700 l 0.000000,8.253183 M 906.695516,702.060863 l 0.000000,-31.719691 M 918.695516,667.272632 l 0.000000,7.353542 M 918.695516,707.939110 l 0.000000,-30.459652 M 930.695516,672.929520 l 0.000000,13.087585 M 930.695516,713.076191 l 0.000000,-16.743483 M 930.695516,714.618803 l 0.000000,3.324693 M 942.695516,691.196346 l 0.000000,-12.418431 M 942.695516,710.034130 l 0.000000,10.670990 M 942.695516,726.694613 l 0.000000,-4.659480 M 954.695516,684.791471 l 0.000000,13.721782 M 954.695516,728.832461 l 0.000000,-14.903619 M 966.695516,690.934911 l 0.000000,11.548800 M 966.695516,707.190511 l 0.000000,-2.503264 M 966.695516,720.361755 l 0.000000,17.625846 M 978.695516,708.361269 l 0.000000,-5.432029 M 978.695516,712.028918 l 0.000000,2.970290 M 978.695516,749.726901 l 0.000000,-22.802808 M 990.695516,709.939395 l 0.000000,4.437777 M 990.695516,723.479710 l 0.000000,-5.531957 M 990.695516,734.283554 l 0.000000,24.439819 M 1002.695516,720.389196 l 0.000000,-3.750135 M 1002.695516,724.294087 l 0.000000,8.007507 M 1002.695516,767.366950 l 0.000000,-25.998396 M 1014.695516,724.087375 l 0.000000,2.079509 M 1014.695516,741.856910 l 0.000000,-10.198826 M 1014.695516,749.002996 l 0.000000,19.047909 M 1026.695516,731.833148 l 0.000000,-2.263357 M 1026.695516,739.801837 l 0.000000,7.229754 M 1026.695516,772.758969 l 0.000000,-16.530171 M 1038.695516,734.469187 l 0.000000,2.754088 M 1038.695516,751.638913 l 0.000000,-5.723092 M 1038.695516,762.380027 l 0.000000,20.100932 M 1050.695516,742.478791 l 0.000000,-2.716744 M 1050.695516,750.345667 l 0.000000,8.945469 M 1050.695516,779.789033 l 0.000000,-13.510256 M 1062.695516,744.100261 l 0.000000,3.404185 M 1062.695516,763.532788 l 0.000000,-9.149137 M 1062.695516,771.503057 l 0.000000,15.601542 M 1074.695516,751.830692 l 0.000000,-4.168213 M 1074.695516,759.440399 l 0.000000,7.884143 M 1074.695516,794.347471 l 0.000000,-17.970897 M 1086.695516,752.448763 l 0.000000,3.994733 M 1086.695516,771.686100 l 0.000000,-10.598938 M 1086.695516,779.926985 l 0.000000,18.469700 M 1098.695516,760.310115 l 0.000000,-0.968502 M 1098.695516,765.108411 l 0.000000,11.627819 M 1098.695516,801.362317 l 0.000000,-18.322257 M 1110.695516,760.124229 l 0.000000,4.536280 M 1110.695516,806.158663 l 0.000000,-36.375322 M 1122.695516,763.123097 l 0.000000,5.234063 M 1122.695516,785.941750 l 0.000000,-12.815210 M 1122.695516,787.739139 l 0.000000,22.401226 M 1134.695516,771.615215 l 0.000000,-2.987096 M 1134.695516,776.702587 l 0.000000,10.328289 M 1134.695516,810.704496 l 0.000000,-19.061848 M 1146.695516,769.791377 l 0.000000,2.886713 M 1146.695516,814.550165 l 0.000000,-33.370813 M 1158.695516,773.179043 l 0.000000,5.815319 M 1158.695516,818.329166 l 0.000000,-32.836103 M 1170.695516,773.486578 l 0.000000,8.831021 M 1170.695516,821.218241 l 0.000000,-33.611792 M 1182.695516,775.625128 l 0.000000,9.787038 M 1182.695516,823.435362 l 0.000000,-33.105730 M 1194.695516,787.650968 l 0.000000,0.139506 M 1194.695516,824.385398 l 0.000000,-31.148121 M 1206.695516,800.671544 l 0.000000,28.250420 M 1218.695516,828.800848 l 0.000000,-30.033717 M 1230.695516,800.500671 l 0.000000,18.279901 M 1230.695516,830.656828 l 0.000000,-10.415579 M 1242.695516,802.801595 l 0.000000,16.196234 M 1242.695516,831.206360 l 0.000000,-8.962203 M 1254.695516,802.799484 l 0.000000,16.714713 M 1254.695516,832.825531 l 0.000000,-9.232112 M 1266.695516,788.429576 l 0.000000,1.066272 M 1266.695516,807.190402 l 0.000000,-4.726281 M 1266.695516,811.598498 l 0.000000,6.188711 M 1266.695516,830.768354 l 0.000000,-5.650278 M 1278.695516,797.006967 l 0.000000,8.047828 M 1278.695516,816.893622 l 0.000000,-4.784183 M 1278.695516,828.017857 l 0.000000,3.075685 M 1290.695516,802.326014 l 0.000000,-19.901874 M 1290.695516,811.899803 l 0.000000,3.524525 M 1302.695516,827.783542 l 0.000000,-0.947574 M 1314.695516,825.672176 l 0.000000,1.804664 M 1326.695516,826.293643 l 0.000000,-1.421127"
       id="path14" />
  </g>
  <g
     inkscape:label="fill-8d8d8d"
     inkscape:groupmode="layer"
     id="fill-8d8d8d">
    <path
       style="stroke:#8d8d8d"
       d="M 200.902930,470.663269 l 0.000000,4.294250 M 212.902930,472.493081 l 0.000000,-6.170653 M 224.902930,465.241413 l 0.000000,6.866607 M 236.902930,474.005185 l 0.000000,-8.612142 M 248.902930,465.664270 l 0.000000,3.555833 M 248.902930,482.825904 l 0.000000,-12.200606 M 260.902930,455.658220 l 0.000000,43.471332 M 272.902930,509.215963 l 0.000000,-57.152380 M 284.902930,448.269141 l 0.000000,19.043466 M 284.902930,517.252467 l 0.000000,-45.126258 M 296.902930,447.334935 l 0.000000,76.181835 M 308.902930,536.477217 l 0.000000,-85.954595 M 320.902930,459.184055 l 0.000000,92.507936 M 332.902930,563.694439 l 0.000000,-95.881901 M 344.902930,477.509258 l 0.000000,102.974950 M 356.902930,591.345418 l 0.000000,-106.045772 M 368.902930,481.734433 l 0.000000,116.403670 M 380.902930,604.572763 l 0.000000,-128.123160 M 392.902930,473.714965 l 0.000000,136.258274 M 404.902930,614.445860 l 0.000000,-142.940606 M 416.902930,447.506427 l 0.000000,171.544884 M 428.902930,622.931324 l 0.000000,-207.132622 M 440.902930,396.027224 l 0.000000,227.936062 M 452.902930,625.912438 l 0.000000,-242.041298 M 464.902930,376.261924 l 0.000000,251.717766 M 476.902930,626.717073 l 0.000000,-255.257984 M 488.902930,368.216192 l 0.000000,257.279945 M 500.902930,624.284849 l 0.000000,-260.648165 M 512.902930,345.489908 l 0.000000,275.656707 M 524.902930,619.022933 l 0.000000,-270.756433 M 536.902930,337.788064 l 0.000000,15.166973 M 536.902930,617.261060 l 0.000000,-261.279601 M 548.902930,331.242624 l 0.000000,282.574322 M 548.902930,660.728278 l 0.000000,-6.582611 M 548.902930,674.708581 l 0.000000,0.466760 M 560.902930,610.342575 l 0.000000,-272.763433 M 560.902930,634.452658 l 0.000000,9.961838 M 560.902930,653.317772 l 0.000000,-0.617512 M 572.902930,355.059574 l 0.000000,1.698148 M 572.902930,629.478587 l 0.000000,-258.388558 M 584.902930,370.965673 l 0.000000,242.295342 M 596.902930,606.611972 l 0.000000,-218.317557 M 608.902930,412.668713 l 0.000000,177.425037 M 620.902930,588.891972 l 0.000000,-158.042406 M 632.902930,478.908945 l 0.000000,108.001507 M 644.902930,487.586155 l 0.000000,-7.507246 M 644.902930,489.964608 l 0.000000,93.546618 M 656.902930,578.836958 l 0.000000,-97.078744 M 668.902930,483.519743 l 0.000000,2.937833 M 668.902930,581.398656 l 0.000000,-87.383068 M 680.902930,498.580943 l 0.000000,84.863733 M 692.902930,585.596720 l 0.000000,-79.526711 M 704.902930,512.547228 l 0.000000,10.124336 M 704.902930,589.759872 l 0.000000,-55.562498 M 716.902930,516.152109 l 0.000000,3.599782 M 716.902930,592.725339 l 0.000000,-47.856210 M 728.902930,551.362412 l 0.000000,37.383616 M 728.902930,595.941874 l 0.000000,-3.215518 M 740.902930,557.789986 l 0.000000,44.723234 M 752.902930,608.734409 l 0.000000,-45.165251 M 764.902930,571.819341 l 0.000000,47.008610 M 776.902930,581.919483 l 0.000000,-2.418341 M 776.902930,584.938589 l 0.000000,41.972790 M 788.902930,632.200825 l 0.000000,-42.935804 M 800.902930,594.297633 l 0.000000,41.334753 M 812.902930,644.374962 l 0.000000,-43.384278 M 824.902930,612.477240 l 0.000000,43.785203 M 836.902930,661.422256 l 0.000000,-40.805756 M 848.902930,628.737838 l 0.000000,29.997361 M 860.902930,669.774037 l 0.000000,-32.119137 M 872.902930,645.202112 l 0.000000,36.623110 M 884.902930,689.023744 l 0.000000,-38.476577 M 896.902930,654.517723 l 0.000000,16.707384 M 896.902930,700.095894 l 0.000000,-25.684258 M 908.902930,659.362220 l 0.000000,48.467224 M 920.902930,713.712979 l 0.000000,-47.266394 M 932.902930,672.998151 l 0.000000,14.827586 M 932.902930,721.875856 l 0.000000,-25.783680 M 944.902930,678.954232 l 0.000000,14.449437 M 944.902930,731.880947 l 0.000000,-26.266867 M 956.902930,684.910312 l 0.000000,16.588476 M 956.902930,739.533681 l 0.000000,-25.602975 M 968.902930,691.089655 l 0.000000,19.710470 M 968.902930,741.021756 l 0.000000,-20.548489 M 980.902930,698.001325 l 0.000000,1.974735 M 980.902930,718.272760 l 0.000000,-14.994291 M 980.902930,727.031719 l 0.000000,26.203550 M 992.902930,726.364575 l 0.000000,-16.739770 M 992.902930,734.435962 l 0.000000,30.427497 M 1004.902930,772.094124 l 0.000000,-55.526861 M 1016.902930,723.349511 l 0.000000,22.486673 M 1016.902930,771.525585 l 0.000000,-23.750333 M 1028.902930,728.573613 l 0.000000,7.334551 M 1028.902930,749.189696 l 0.000000,-12.250316 M 1028.902930,755.528162 l 0.000000,21.474336 M 1040.902930,753.997038 l 0.000000,-20.785653 M 1040.902930,761.346416 l 0.000000,27.859513 M 1052.902930,761.676713 l 0.000000,-23.811247 M 1052.902930,766.152260 l 0.000000,19.526622 M 1064.902930,766.069167 l 0.000000,-24.116720 M 1064.902930,771.030038 l 0.000000,18.782592 M 1076.902930,769.795111 l 0.000000,-24.313619 M 1076.902930,775.702120 l 0.000000,22.481321 M 1088.902930,773.572098 l 0.000000,-23.187401 M 1088.902930,779.463380 l 0.000000,21.813144 M 1100.902930,778.835878 l 0.000000,-22.637961 M 1100.902930,782.529348 l 0.000000,20.871163 M 1112.902930,808.483319 l 0.000000,-50.174038 M 1124.902930,761.437830 l 0.000000,51.979615 M 1136.902930,789.900774 l 0.000000,-21.815093 M 1136.902930,790.369980 l 0.000000,22.216909 M 1148.902930,816.569749 l 0.000000,-48.858557 M 1160.902930,771.977899 l 0.000000,49.505596 M 1172.902930,824.507560 l 0.000000,-52.278536 M 1184.902930,775.213727 l 0.000000,51.063042 M 1196.902930,825.767974 l 0.000000,-41.451773 M 1208.902930,789.087505 l 0.000000,41.665260 M 1220.902930,830.500660 l 0.000000,-38.774073 M 1232.902930,783.595422 l 0.000000,2.006041 M 1232.902930,832.735135 l 0.000000,-34.732348 M 1244.902930,799.733989 l 0.000000,34.198106 M 1256.902930,791.149693 l 0.000000,-0.397722 M 1256.902930,800.862889 l 0.000000,33.828886 M 1268.902930,784.677729 l 0.000000,-1.143814 M 1268.902930,799.924553 l 0.000000,20.391739 M 1268.902930,831.795139 l 0.000000,-7.798262 M 1280.902930,789.145194 l 0.000000,16.802671 M 1280.902930,818.782294 l 0.000000,-9.127615 M 1280.902930,827.388644 l 0.000000,3.852609 M 1292.902930,803.491284 l 0.000000,-25.262441 M 1292.902930,808.119692 l 0.000000,8.083120 M 1292.902930,830.271327 l 0.000000,-4.996677 M 1304.902930,804.424676 l 0.000000,2.894184 M 1304.902930,818.879131 l 0.000000,-2.224610 M 1304.902930,824.853842 l 0.000000,4.712519 M 1316.902930,828.316030 l 0.000000,-3.883690 M 1328.902930,823.676870 l 0.000000,3.107893 M 1340.902930,824.665346 l 0.000000,-1.653167 M 1376.902930,816.451770 l 0.000000,1.595969 M 1400.902930,810.878211 l 0.000000,-5.218023"
       id="path17" />
  </g>
  <g
     inkscape:label="fill-afafaf"
     inkscape:groupmode="layer"
     id="fill-afafaf">
    <path
       style="stroke:#afafaf"
       d="M 188.959912,477.707246 l 0.000000,3.800911 M 201.959912,476.051885 l 0.000000,-7.447387 M 214.959912,464.831979 l 0.000000,8.612385 M 227.959912,473.349754 l 0.000000,-9.204625 M 240.959912,464.517414 l 0.000000,11.914534 M 253.959912,489.382503 l 0.000000,-28.531747 M 266.959912,451.987474 l 0.000000,53.698692 M 279.959912,515.239175 l 0.000000,-65.777012 M 292.959912,446.153840 l 0.000000,23.892349 M 292.959912,522.188538 l 0.000000,-50.111211 M 305.959912,448.333343 l 0.000000,86.037014 M 318.959912,550.686168 l 0.000000,-95.051117 M 331.959912,466.429600 l 0.000000,99.324448 M 344.959912,582.004062 l 0.000000,-105.497234 M 357.959912,484.871414 l 0.000000,108.874568 M 370.959912,600.485038 l 0.000000,-120.920719 M 383.959912,474.787793 l 0.000000,131.914712 M 396.959912,612.557827 l 0.000000,-140.734015 M 409.959912,454.511732 l 0.000000,162.404047 M 422.959912,622.556809 l 0.000000,-198.619547 M 435.959912,402.116330 l 0.000000,221.959732 M 448.959912,625.929057 l 0.000000,-239.599310 M 461.959912,377.169059 l 0.000000,251.584405 M 474.959912,629.405397 l 0.000000,-258.035584 M 487.959912,367.396979 l 0.000000,259.029850 M 500.959912,624.949404 l 0.000000,-263.951658 M 513.959912,343.034801 l 0.000000,278.780082 M 526.959912,341.744037 l 0.000000,-6.356307 M 526.959912,343.490780 l 0.000000,276.279599 M 526.959912,710.784582 l 0.000000,-9.529573 M 539.959912,331.830054 l 0.000000,285.980313 M 552.959912,401.222804 l 0.000000,-70.269795 M 552.959912,404.609794 l 0.000000,208.855965 M 552.959912,656.127255 l 0.000000,-10.248239 M 552.959912,665.755225 l 0.000000,6.080153 M 565.959912,611.484044 l 0.000000,-270.377313 M 565.959912,623.977626 l 0.000000,19.668244 M 565.959912,657.979309 l 0.000000,-7.391161 M 578.959912,359.212114 l 0.000000,17.123709 M 578.959912,619.774165 l 0.000000,-242.328486 M 591.959912,371.579706 l 0.000000,238.826282 M 604.959912,595.120426 l 0.000000,-191.217463 M 617.959912,425.576274 l 0.000000,165.476710 M 630.959912,589.952342 l 0.000000,-116.982861 M 643.959912,477.112331 l 0.000000,109.653928 M 656.959912,585.202292 l 0.000000,-106.005720 M 669.959912,482.181162 l 0.000000,6.838194 M 669.959912,584.484178 l 0.000000,-92.470186 M 682.959912,485.809879 l 0.000000,3.179154 M 682.959912,586.002139 l 0.000000,-89.000928 M 695.959912,505.593007 l 0.000000,83.595364 M 708.959912,528.921030 l 0.000000,-18.307150 M 708.959912,534.062344 l 0.000000,58.546023 M 721.959912,523.745049 l 0.000000,-7.642953 M 721.959912,546.242831 l 0.000000,49.609339 M 734.959912,525.301364 l 0.000000,-3.017508 M 734.959912,554.115177 l 0.000000,46.867513 M 747.959912,607.479694 l 0.000000,-47.422772 M 760.959912,568.168479 l 0.000000,48.826963 M 773.959912,626.986352 l 0.000000,-50.322703 M 786.959912,587.514857 l 0.000000,54.211527 M 799.959912,636.631864 l 0.000000,-43.658888 M 812.959912,600.008836 l 0.000000,47.534775 M 825.959912,660.119149 l 0.000000,-48.782129 M 838.959912,620.983408 l 0.000000,42.147591 M 851.959912,662.627547 l 0.000000,-32.770779 M 864.959912,639.025540 l 0.000000,36.359649 M 877.959912,688.739775 l 0.000000,-42.111287 M 890.959912,651.747599 l 0.000000,45.825257 M 903.959912,706.467888 l 0.000000,-50.198481 M 916.959912,662.952129 l 0.000000,49.831195 M 929.959912,687.784644 l 0.000000,-17.208266 M 929.959912,692.386216 l 0.000000,28.954481 M 942.959912,693.236674 l 0.000000,-16.148852 M 942.959912,702.870228 l 0.000000,29.221729 M 955.959912,701.915166 l 0.000000,-18.439989 M 955.959912,712.333216 l 0.000000,28.535250 M 968.959912,712.027195 l 0.000000,-21.822732 M 968.959912,719.747360 l 0.000000,22.321010 M 968.959912,746.674646 l 0.000000,-2.798307 M 981.959912,697.355115 l 0.000000,3.855030 M 981.959912,719.970447 l 0.000000,-17.219869 M 981.959912,726.774023 l 0.000000,28.109231 M 994.959912,729.170076 l 0.000000,-19.233018 M 994.959912,734.644797 l 0.000000,35.150676 M 1007.959912,777.314531 l 0.000000,-60.058276 M 1020.959912,724.535288 l 0.000000,24.458705 M 1020.959912,776.660774 l 0.000000,-27.336316 M 1033.959912,729.466952 l 0.000000,22.079625 M 1033.959912,783.494112 l 0.000000,-26.384159 M 1033.959912,786.883272 l 0.000000,2.099045 M 1046.959912,759.702447 l 0.000000,-25.358983 M 1046.959912,762.862664 l 0.000000,37.807590 M 1059.959912,788.496641 l 0.000000,-49.149927 M 1059.959912,789.179264 l 0.000000,3.401726 M 1072.959912,769.624159 l 0.000000,-26.605431 M 1072.959912,773.427535 l 0.000000,25.931248 M 1085.959912,773.464514 l 0.000000,-25.803404 M 1085.959912,777.646314 l 0.000000,24.837479 M 1098.959912,778.477867 l 0.000000,-24.172079 M 1098.959912,781.003562 l 0.000000,23.246461 M 1111.959912,809.276304 l 0.000000,-51.555085 M 1124.959912,760.442053 l 0.000000,54.128136 M 1137.959912,814.269603 l 0.000000,-47.253487 M 1150.959912,766.031633 l 0.000000,52.571250 M 1163.959912,823.965555 l 0.000000,-52.563654 M 1176.959912,772.065244 l 0.000000,54.530050 M 1189.959912,828.409657 l 0.000000,-50.758230 M 1202.959912,779.375822 l 0.000000,3.076675 M 1202.959912,830.460234 l 0.000000,-45.044540 M 1215.959912,782.242088 l 0.000000,3.547695 M 1215.959912,833.125512 l 0.000000,-45.263271 M 1228.959912,783.437121 l 0.000000,5.212528 M 1228.959912,833.257304 l 0.000000,-41.501475 M 1241.959912,783.991783 l 0.000000,0.120103 M 1241.959912,834.703341 l 0.000000,-42.603575 M 1254.959912,783.657510 l 0.000000,51.743337 M 1267.959912,791.143289 l 0.000000,-9.040836 M 1267.959912,798.951391 l 0.000000,33.528190 M 1280.959912,820.850842 l 0.000000,-32.970568 M 1280.959912,825.787702 l 0.000000,6.313804 M 1293.959912,817.098737 l 0.000000,-45.060637 M 1293.959912,821.135378 l 0.000000,10.483654 M 1306.959912,807.493463 l 0.000000,-5.253473 M 1306.959912,814.757702 l 0.000000,15.230970 M 1319.959912,828.498159 l 0.000000,-13.067301 M 1332.959912,815.519002 l 0.000000,11.337427 M 1345.959912,815.055119 l 0.000000,-1.956660 M 1345.959912,820.510531 l 0.000000,4.139950 M 1358.959912,822.391409 l 0.000000,-9.703514 M 1371.959912,813.127335 l 0.000000,6.957830 M 1384.959912,816.917286 l 0.000000,-6.957549 M 1397.959912,805.113013 l 0.000000,7.775535 M 1410.959912,800.543966 l 0.000000,-2.184339 M 1410.959912,803.281032 l 0.000000,2.546706"
       id="path20" />
  </g>
  <g
     inkscape:label="fill-cfcfcf"
     inkscape:groupmode="layer"
     id="fill-cfcfcf">
    <path
       style="stroke:#cfcfcf"
       d="M 189.341899,473.409083 l 0.000000,9.597558 M 203.341899,477.041832 l 0.000000,-11.331469 M 217.341899,462.763651 l 0.000000,11.472868 M 231.341899,474.919339 l 0.000000,-12.621475 M 245.341899,462.783645 l 0.000000,17.892337 M 259.341899,499.836271 l 0.000000,-44.856950 M 273.341899,448.999360 l 0.000000,62.832884 M 287.341899,469.275884 l 0.000000,-24.696016 M 287.341899,471.540540 l 0.000000,49.009640 M 301.341899,530.716218 l 0.000000,-84.519168 M 315.341899,451.935620 l 0.000000,95.996973 M 329.341899,564.579238 l 0.000000,-100.586602 M 343.341899,473.714935 l 0.000000,107.930026 M 357.341899,594.969024 l 0.000000,-111.252481 M 371.341899,478.230492 l 0.000000,123.224325 M 385.341899,608.660104 l 0.000000,-135.380974 M 399.341899,469.964362 l 0.000000,144.431244 M 413.341899,619.418839 l 0.000000,-173.512545 M 427.341899,414.800428 l 0.000000,210.829233 M 441.341899,625.795082 l 0.000000,-233.068579 M 455.341899,380.169974 l 0.000000,248.238901 M 469.341899,631.229228 l 0.000000,-259.024490 M 483.341899,365.083168 l 0.000000,263.041076 M 497.341899,626.591975 l 0.000000,-267.999634 M 511.341899,343.618880 l 0.000000,280.387155 M 525.341899,620.920164 l 0.000000,-287.087732 M 525.341899,698.673321 l 0.000000,21.974997 M 539.341899,619.485421 l 0.000000,-289.271382 M 539.341899,667.505163 l 0.000000,38.550542 M 553.341899,615.348129 l 0.000000,-285.683857 M 553.341899,643.338840 l 0.000000,15.100452 M 553.341899,673.470119 l 0.000000,-13.620718 M 553.341899,701.504903 l 0.000000,14.195636 M 567.341899,613.825173 l 0.000000,-272.633113 M 567.341899,619.488722 l 0.000000,39.910158 M 581.341899,623.458699 l 0.000000,-268.491336 M 595.341899,376.853205 l 0.000000,233.128814 M 609.341899,593.872300 l 0.000000,-183.909678 M 623.341899,431.500419 l 0.000000,161.964930 M 637.341899,591.791520 l 0.000000,-119.344057 M 651.341899,475.569618 l 0.000000,112.935086 M 665.341899,587.793851 l 0.000000,-109.065227 M 679.341899,483.169545 l 0.000000,104.803333 M 693.341899,495.444713 l 0.000000,-7.563483 M 693.341899,501.745805 l 0.000000,88.355613 M 707.341899,495.312900 l 0.000000,-2.500313 M 707.341899,508.146200 l 0.000000,22.889537 M 707.341899,593.740210 l 0.000000,-61.522738 M 721.341899,513.858616 l 0.000000,15.336593 M 721.341899,537.428795 l 0.000000,-1.829841 M 721.341899,544.916915 l 0.000000,52.281983 M 735.341899,529.823980 l 0.000000,-9.614731 M 735.341899,552.725094 l 0.000000,51.063411 M 749.341899,534.089204 l 0.000000,-5.526079 M 749.341899,559.485346 l 0.000000,50.109679 M 763.341899,621.291911 l 0.000000,-52.737457 M 777.341899,577.614998 l 0.000000,55.446526 M 791.341899,642.864688 l 0.000000,-55.836590 M 805.341899,594.283596 l 0.000000,48.116159 M 819.341899,656.085005 l 0.000000,-52.442983 M 833.341899,615.862870 l 0.000000,57.065485 M 847.341899,660.513218 l 0.000000,-35.286939 M 861.341899,635.274972 l 0.000000,38.417696 M 875.341899,688.102256 l 0.000000,-44.690122 M 889.341899,649.836743 l 0.000000,49.661371 M 903.341899,707.649625 l 0.000000,-52.531932 M 917.341899,661.727799 l 0.000000,52.129097 M 931.341899,689.361361 l 0.000000,-19.148220 M 931.341899,692.057444 l 0.000000,31.674005 M 945.341899,695.388049 l 0.000000,-18.210568 M 945.341899,703.023815 l 0.000000,33.059186 M 959.341899,705.769516 l 0.000000,-21.725789 M 959.341899,713.082267 l 0.000000,30.657136 M 973.341899,718.113281 l 0.000000,-26.870400 M 973.341899,720.660762 l 0.000000,30.007425 M 987.341899,703.109475 l 0.000000,-4.197138 M 987.341899,703.848247 l 0.000000,21.281567 M 987.341899,762.624466 l 0.000000,-34.815809 M 1001.341899,711.961630 l 0.000000,62.090151 M 1015.341899,786.490149 l 0.000000,-66.319632 M 1029.341899,726.758122 l 0.000000,25.100235 M 1029.341899,787.105281 l 0.000000,-33.955479 M 1043.341899,731.402897 l 0.000000,68.098018 M 1057.341899,798.754873 l 0.000000,-61.716388 M 1071.341899,741.189656 l 0.000000,59.002336 M 1085.341899,774.880464 l 0.000000,-28.708483 M 1085.341899,776.443475 l 0.000000,27.388100 M 1099.341899,805.901203 l 0.000000,-52.823661 M 1113.341899,755.880284 l 0.000000,55.894068 M 1127.341899,818.265418 l 0.000000,-59.766437 M 1141.341899,765.945237 l 0.000000,63.677700 M 1155.341899,768.871160 l 0.000000,-4.821497 M 1155.341899,770.701774 l 0.000000,51.176668 M 1169.341899,826.816581 l 0.000000,-56.690382 M 1183.341899,771.772229 l 0.000000,57.113762 M 1197.341899,830.736279 l 0.000000,-54.575633 M 1211.341899,780.987668 l 0.000000,52.591147 M 1225.341899,836.387761 l 0.000000,-55.425678 M 1239.341899,781.178184 l 0.000000,8.884387 M 1239.341899,836.143990 l 0.000000,-45.385142 M 1253.341899,782.554181 l 0.000000,54.354477 M 1267.341899,793.614464 l 0.000000,-12.747931 M 1267.341899,797.193762 l 0.000000,40.704980 M 1281.341899,834.677385 l 0.000000,-48.726287 M 1295.341899,766.684913 l 0.000000,66.105825 M 1309.341899,807.449027 l 0.000000,-7.409645 M 1309.341899,812.397350 l 0.000000,18.682328 M 1323.341899,798.888218 l 0.000000,-2.939464 M 1323.341899,807.354219 l 0.000000,21.616511 M 1337.341899,827.169821 l 0.000000,-15.328530 M 1351.341899,805.838044 l 0.000000,18.986586 M 1365.341899,822.384628 l 0.000000,-19.067068 M 1379.341899,804.082371 l 0.000000,15.449638 M 1393.341899,815.738735 l 0.000000,-11.313461 M 1407.341899,798.617648 l 0.000000,11.174300"
       id="path23" />
  </g>
</svg>
