<?xml version="1.0" encoding="UTF-8" standalone="no"?>
<!-- Created with Inkscape (http://www.inkscape.org/) -->

<svg
   xmlns:dc="http://purl.org/dc/elements/1.1/"
   xmlns:cc="http://creativecommons.org/ns#"
   xmlns:rdf="http://www.w3.org/1999/02/22-rdf-syntax-ns#"
   xmlns:svg="http://www.w3.org/2000/svg"
   xmlns="http://www.w3.org/2000/svg"
   xmlns:sodipodi="http://sodipodi.sourceforge.net/DTD/sodipodi-0.dtd"
   xmlns:inkscape="http://www.inkscape.org/namespaces/inkscape"
   id="svg2"
   version="1.1"
   inkscape:version="0.48.3.1 r9886"
   width="1000"
   height="935"
   sodipodi:docname="hantologie-_0007_mort_hatched_1398277221.svg">
  <defs
     id="defs27" />
  <sodipodi:namedview
     pagecolor="#ffffff"
     bordercolor="#666666"
     borderopacity="1"
     objecttolerance="10"
     gridtolerance="10"
     guidetolerance="10"
     inkscape:pageopacity="0"
     inkscape:pageshadow="2"
     inkscape:window-width="640"
     inkscape:window-height="480"
     id="namedview25" />
  <metadata
     id="metadata8">
    <rdf:RDF>
      <cc:Work
         rdf:about="">
        <dc:format>image/svg+xml </dc:format>
        <dc:type
           rdf:resource="http://purl.org/dc/dcmitype/StillImage" />
        <dc:title />
      </cc:Work>
    </rdf:RDF>
  </metadata>
  <g
     inkscape:label="fill-0c0c0c"
     inkscape:groupmode="layer"
     id="fill-0c0c0c">
    <path
       style="stroke:#0c0c0c"
       d="M 71.287736,577.171385 l -0.767317,1.443113 M 77.003863,583.461350 l 1.644031,-3.091972 M 81.732996,583.087363 l -2.878374,5.413435 M 81.961838,591.177192 l 2.232695,-4.199089 M 86.273356,591.588622 l -1.527833,2.873436 M 85.776504,601.043283 l 2.760239,-5.191255 M 91.361699,599.059277 l -1.029398,1.936016 M 93.850978,602.897841 l 0.727154,-1.367579 M 109.978481,623.687728 l -3.166837,5.955953 M 113.088569,626.358720 l 2.118158,-3.983677 M 111.511716,629.324349 l -1.989443,3.741598 M 116.801575,627.895789 l 0.978748,-1.840758 M 132.847445,674.399859 l -0.850810,1.600141 M 136.915663,675.268871 l 0.619900,-1.165862 M 164.429244,717.245747 l -2.066950,3.887368 M 166.261685,722.319644 l 2.541158,-4.779224 M 172.987831,718.189822 l -2.614215,4.916623 M 174.538848,723.793002 l 2.449227,-4.606327 M 180.939143,720.276016 l -2.235063,4.203543 M 182.946821,725.020339 l 1.997989,-3.757671 M 189.038779,722.083251 l -1.810050,3.404208 M 191.510637,725.954580 l 1.626302,-3.058629 M 197.319371,723.550158 l -1.504093,2.828788 M 200.229061,726.598046 l 1.272743,-2.393681 M 205.787407,724.664535 l -1.144563,2.152610 M 209.058697,727.032351 l 1.062701,-1.998650 M 214.551752,725.221635 l -1.063031,1.999270 M 217.918745,727.409459 l 0.986027,-1.854447 M 223.215922,725.967137 l -0.965622,1.816070 M 226.557681,728.202420 l 1.056007,-1.986060 M 232.163894,726.178885 l -1.299101,2.443253 M 275.980393,652.292253 l 1.717867,-3.230838 M 236.841244,725.902287 l -1.669916,3.140655 M 239.555253,729.318196 l 2.001746,-3.764737 M 291.296285,640.527686 l -3.755285,7.062663 M 243.967234,729.540684 l 2.314276,-4.352519 M 251.006020,724.822871 l -2.570797,4.834966 M 252.932734,729.719467 l 2.797797,-5.261890 M 260.455041,724.092283 l -3.024796,5.688814 M 261.927756,729.842727 l 3.232415,-6.079288 M 269.898936,723.371336 l -3.473669,6.533021 M 270.922778,729.965987 l 3.838164,-7.218537 M 309.012803,666.849287 l -3.583567,6.739708 M 275.428797,730.011615 l 4.485649,-8.436278 M 311.001100,671.630062 l -3.245678,6.104232 M 279.939411,730.048601 l 5.396497,-10.149335 M 325.873538,652.179292 l -5.078669,9.551588 M 284.450026,730.085587 l 6.151710,-11.569684 M 295.484040,717.853843 l -6.523399,12.268730 M 337.098779,648.108120 l 1.383884,-2.602706 M 300.147478,717.603409 l -6.676223,12.556150 M 342.429112,646.603439 l 2.371854,-4.460809 M 334.909469,660.745831 l -1.316506,2.475988 M 332.301417,665.650863 l 0.088677,-0.166777 M 304.776483,717.417734 l -6.805993,12.800212 M 342.074957,655.789725 l 0.177374,-0.333592 M 309.428332,717.189096 l -6.976676,13.121219 M 346.088233,656.762069 l 2.955268,-5.558050 M 314.132907,716.861296 l -7.200084,13.541389 M 351.650933,654.820370 l 4.512274,-8.486353 M 340.098764,676.546839 l -2.396169,4.506539 M 311.413990,730.495054 l 7.553436,-14.205947 M 360.407100,646.872633 l -2.116416,3.980399 M 348.443119,669.373609 l 2.770400,-5.210365 M 344.162421,677.424431 l -2.923528,5.498356 M 315.895157,730.587423 l 7.986634,-15.020674 M 356.491366,662.757276 l -3.986574,7.497654 M 344.452128,685.399789 l 3.629820,-6.826699 M 328.611332,715.191993 l -8.235009,15.487799 M 356.524857,671.214506 l 3.914945,-7.362940 M 352.112715,679.512538 l -4.636196,8.719417 M 324.845804,730.794139 l 8.328888,-15.664361 M 364.670383,664.415217 l -4.956846,9.322471 M 351.375739,689.418805 l 4.797149,-9.022125 M 337.808781,714.934543 l -8.513647,16.011841 M 363.597726,674.952809 l 7.325214,-13.776724 M 360.236822,681.273750 l -7.692466,14.467425 M 333.744464,731.098629 l 8.767568,-16.489397 M 376.742800,658.750739 l -8.465632,15.921538 M 355.665691,698.391016 l 8.647825,-16.264193 M 347.333725,714.061165 l -9.139930,17.189708 M 381.239823,658.813287 l 0.618523,-1.163272 M 378.699762,663.590447 l -5.203386,9.786146 M 358.720842,701.165331 l 9.669368,-18.185436 M 352.377835,713.094791 l -9.734710,18.308326 M 377.137896,675.048108 l 4.417849,-8.308766 M 372.379111,683.998081 l -3.750097,7.052908 M 361.804778,703.885508 l 5.496749,-10.337881 M 357.433574,712.106547 l -10.341118,19.448815 M 379.861576,678.445827 l 5.692701,-10.706413 M 368.198330,700.381204 l -2.710056,5.096874 M 351.541786,731.707607 l 10.151874,-19.092898 M 388.146444,671.384476 l -5.617759,10.565469 M 355.991116,731.859851 l 9.409783,-17.697227 M 392.003016,672.651536 l -2.603002,4.895535 M 360.440446,732.012096 l 8.660065,-16.287213 M 374.032660,714.969078 l -9.142883,17.195263 M 369.339107,732.316585 l 10.470926,-19.692948 M 384.219276,712.851276 l -10.430838,19.617554 M 378.237768,732.621074 l 10.394803,-19.549782 M 393.069372,713.247101 l -10.382274,19.526218 M 387.136428,732.925563 l 10.506254,-19.759390 M 402.409123,712.722020 l -10.802895,20.317290 M 410.588601,705.858877 l 1.513572,-2.846615 M 407.802178,711.099377 l -11.711396,22.025933 M 400.575334,733.211311 l 12.721904,-23.926422 M 417.757842,709.415931 l -12.697956,23.881381 M 409.544440,733.383313 l 13.091494,-24.621520 M 427.748689,707.666317 l -13.699228,25.764500 M 418.582745,733.425169 l 14.508018,-27.285613 M 466.074252,652.626853 l -2.294279,4.314912 M 423.116028,733.419521 l 15.495849,-29.143453 M 471.748147,650.476026 l -1.385060,2.604920 M 427.649312,733.413872 l 16.750770,-31.503617 M 450.676742,698.625792 l -18.494147,34.782432 M 436.715879,733.402576 l 18.875111,-35.498921 M 459.829953,698.451542 l -18.580791,34.945386 M 445.782445,733.391279 l 16.074783,-30.232269 M 465.364268,705.083445 l -15.028006,28.263569 M 454.894895,733.293691 l 13.888160,-26.119830 M 501.113200,654.889919 l -1.159654,2.180992 M 459.453527,733.240368 l 13.322012,-25.055060 M 476.642936,709.432009 l -12.630777,23.755036 M 468.570793,733.133721 l 12.003077,-22.574504 M 484.618682,711.472248 l -11.489257,21.608150 M 542.419108,611.285677 l 0.941450,-1.770610 M 488.907920,711.925582 l -11.219863,21.101492 M 546.356346,612.401026 l 1.196856,-2.250959 M 544.777549,615.370310 l -0.494168,0.929394 M 522.605253,657.070335 l 1.139305,-2.142721 M 493.249304,712.280845 l -11.002614,20.692907 M 550.327343,613.452886 l 1.418505,-2.667820 M 548.712049,616.490812 l -0.592108,1.113594 M 528.168244,655.128089 l 2.036199,-3.829533 M 497.599039,712.620401 l -10.793716,20.300027 M 554.301099,614.499555 l 1.616877,-3.040903 M 552.521942,617.845661 l -0.380666,0.715928 M 534.835063,651.109844 l 1.281442,-2.410041 M 501.839850,713.164814 l -10.474801,19.700235 M 558.274855,615.546224 l 1.730167,-3.253971 M 542.128007,645.914028 l -1.208106,2.272116 M 495.940660,732.779795 l 10.137331,-19.065546 M 563.913668,613.461377 l -1.665057,3.131517 M 500.516270,732.694542 l 9.791536,-18.415201 M 567.646707,614.960770 l -1.456277,2.738859 M 545.054962,657.449663 l 0.936697,-1.761671 M 514.519139,714.879194 l -9.427259,17.730095 M 570.113307,618.841988 l 1.233549,-2.319968 M 550.642529,655.461195 l -0.870079,1.636380 M 509.667490,732.524036 l 9.062981,-17.044989 M 575.173041,617.846230 l -1.136857,2.138117 M 514.243100,732.438783 l 8.698704,-16.359883 M 579.256355,618.686852 l -1.297293,2.439853 M 518.818710,732.353530 l 8.334427,-15.674777 M 583.434054,619.349961 l -1.552114,2.919103 M 523.394320,732.268277 l 8.018903,-15.081364 M 587.709478,619.829275 l -1.904661,3.582147 M 527.969930,732.183023 l 7.737497,-14.552115 M 592.135347,620.025644 l -2.410223,4.532970 M 532.545540,732.097770 l 7.456090,-14.022866 M 596.601220,620.146775 l -2.981409,5.607215 M 537.121150,732.012517 l 7.258276,-13.650833 M 601.086341,620.231709 l -3.571842,6.717658 M 541.696760,731.927264 l 7.261947,-13.657735 M 605.449223,620.546539 l -4.040037,7.598205 M 546.267679,731.850835 l 8.227271,-15.473246 M 609.728700,621.018231 l -4.424827,8.321889 M 564.308662,706.440897 l 1.376197,-2.588250 M 559.177140,716.091888 l -8.343299,15.691463 M 609.198560,630.535497 l 4.751136,-8.935588 M 571.174319,702.048694 l -3.068467,5.770947 M 555.400003,731.715866 l 8.413761,-15.823983 M 618.170692,622.181588 l -5.077445,9.549286 M 572.892371,707.337726 l 2.675803,-5.032454 M 568.452141,715.688584 l -8.485975,15.959798 M 616.970894,632.958298 l 5.375970,-10.110730 M 579.510805,703.410480 l -1.132664,2.130231 M 564.532328,731.580897 l 8.642675,-16.254507 M 626.435709,623.677787 l -5.614450,10.559245 M 569.098490,731.513413 l 8.872884,-16.687467 M 630.524554,624.508007 l -5.852930,11.007760 M 573.664653,731.445928 l 9.142284,-17.194135 M 634.613399,625.338227 l -6.091410,11.456275 M 584.451337,719.679344 l 3.285193,-6.178550 M 584.130433,720.282877 l -5.899618,11.095567 M 632.372354,638.073237 l 6.252819,-11.759843 M 597.633075,703.408319 l -1.408794,2.649557 M 589.581324,718.551458 l 3.091275,-5.813843 M 588.385617,720.800256 l -5.593620,10.520069 M 636.213026,639.370201 l 6.387138,-12.012459 M 602.942641,701.942695 l -2.818833,5.301454 M 594.307632,718.182785 l 3.449023,-6.486669 M 592.752899,721.106812 l -5.444229,10.239105 M 640.046600,640.680515 l 6.528555,-12.278425 M 608.375641,700.244925 l -3.646895,6.858813 M 598.981495,717.912744 l 3.858989,-7.257702 M 597.170798,721.318171 l -5.345455,10.053339 M 643.880174,641.990828 l 6.669971,-12.544391 M 635.646136,657.476802 l -0.751035,1.412492 M 609.760217,706.161135 l 4.188752,-7.877896 M 607.901408,709.657047 l -4.307401,8.101043 M 596.342015,731.397102 l 5.246682,-9.867573 M 654.459724,630.613807 l -1.469183,2.763132 M 647.713748,643.301142 l 1.662402,-3.126523 M 637.472092,662.562895 l -0.862849,1.622783 M 615.340300,704.186742 l 5.083660,-9.560974 M 612.845337,708.879085 l -4.670214,8.783394 M 600.858687,731.422695 l 5.204829,-9.788860 M 653.071201,641.745456 l -1.523879,2.865999 M 634.585514,676.511977 l 7.275515,-13.683254 M 627.652567,689.550954 l -8.159099,15.345033 M 612.700415,717.671863 l 4.412725,-8.299128 M 610.550005,721.716196 l -5.173736,9.730382 M 655.386690,645.910873 l 1.449776,-2.726632 M 646.518526,662.589463 l -11.363079,21.370843 M 622.264424,708.204796 l 12.402571,-23.325843 M 621.505445,709.632227 l -4.291093,8.070372 M 609.903875,731.451607 l 5.132618,-9.653050 M 660.610232,644.607037 l -1.382259,2.599651 M 621.593082,717.987623 l 29.988070,-56.399358 M 619.589995,721.754882 l -5.158513,9.701753 M 663.000777,648.631293 l 1.383221,-2.601460 M 654.921318,663.826547 l -29.123773,54.773851 M 618.959088,731.461664 l 5.190510,-9.761929 M 668.157953,647.452275 l -1.393390,2.620586 M 629.676537,719.825292 l 29.548318,-55.572304 M 628.790280,721.492099 l -5.218351,9.814292 M 670.533383,651.504957 l 1.411813,-2.655235 M 663.751760,664.259335 l -35.537549,66.836409 M 674.306513,652.928951 l 1.425928,-2.681781 M 667.937466,664.907386 l -35.080971,65.977711 M 678.079642,654.352945 l 1.440043,-2.708327 M 672.019685,665.750066 l -34.520908,64.924385 M 681.924783,655.641505 l 1.382146,-2.599439 M 676.101905,666.592745 l -33.949878,63.850433 M 685.772423,656.925363 l 1.321749,-2.485849 M 680.196358,667.412417 l -16.871289,31.730281 M 646.838926,730.148622 l 14.684010,-27.616606 M 690.881417,655.836961 l -1.240678,2.333376 M 667.214119,700.348675 l 17.106634,-32.172899 M 665.956224,702.714431 l -14.430399,27.139634 M 693.525901,659.383628 l 1.142760,-2.149219 M 688.445147,668.939136 l -32.232424,60.620372 M 697.411063,660.596919 l 1.033781,-1.944260 M 692.597779,669.649390 l -27.606254,51.919812 M 660.899623,729.264951 l 3.563418,-6.701814 M 702.182844,660.142721 l -0.886619,1.667488 M 670.851346,719.068700 l 25.869725,-48.653877 M 668.497807,723.495063 l -2.911285,5.475332 M 705.216220,662.957990 l 0.704625,-1.325206 M 700.777866,671.305320 l -24.792702,46.628292 M 670.273420,728.675837 l 2.265637,-4.261043 M 709.538977,663.348284 l -0.290243,0.545868 M 680.759646,717.474333 l 23.954665,-45.052173 M 676.538609,725.412948 l -1.518716,2.856289 M 689.197058,710.126087 l 19.434657,-36.551275 M 687.392748,713.519500 l -2.123367,3.993472 M 695.774645,706.275662 l 16.774474,-31.548197 M 694.428498,708.807397 l -1.705861,3.208257 M 689.499289,718.077891 l 2.108139,-3.964834 M 716.445778,675.919133 l -16.708756,31.424600 M 693.792774,718.523238 l 4.287598,-8.063799 M 720.279104,677.229914 l -16.833460,31.659134 M 698.366495,718.441539 l 4.029971,-7.579273 M 724.096140,678.571332 l -21.067486,39.622178 M 712.880564,708.184981 l 14.873217,-27.972453 M 711.714635,710.377773 l -3.841771,7.225321 M 712.792568,716.870694 l 17.876429,-33.620674 M 732.632792,688.076878 l -14.433497,27.145459 M 723.743980,713.314519 l 10.170551,-19.128025 M 736.816671,697.248581 l -8.746763,16.450268 M 731.698210,715.395224 l 7.714326,-14.508537 M 741.580688,705.329204 l -6.726852,12.651368 M 741.226557,714.515446 l 2.286762,-4.300775 M 739.239500,718.252556 l -1.292617,2.431059 M 756.063741,695.130979 l 0.780195,-1.467334 M 758.669760,698.749987 l -1.098282,2.065568 M 759.215086,706.244598 l 2.349223,-4.418245 M 765.584430,702.785821 l -4.360268,8.200471 M 763.848497,714.570853 l 7.063900,-13.285265 M 774.833145,702.431953 l -7.109837,13.371658 M 776.361729,708.077323 l 1.910125,-3.592422 M 774.134835,712.265502 l -2.613616,4.915497 M 767.441229,724.854343 l 2.469913,-4.645230 M 777.229137,714.966183 l -2.417503,4.546662 M 770.406917,727.796913 l 3.011623,-5.664040 M 780.013691,718.249416 l -1.907498,3.587483 M 780.993660,724.926581 l 1.903673,-3.580287 M 786.470719,723.145949 l -1.843866,3.467808 M 793.103399,719.191911 l 0.357308,-0.671998 M 790.480173,724.125481 l -1.273801,2.395671 M 793.814399,726.374932 l 3.222990,-6.061563 M 800.051988,723.163951 l -1.592714,2.995458 M 820.016749,702.656133 l 1.702518,-3.201971 M 825.764514,700.366376 l -2.264473,4.258854 M 828.205220,704.296295 l 1.575682,-2.963426 M 833.527366,702.807012 l -0.512020,0.962969 M 831.637749,723.401299 l 0.114758,-0.215828 M 880.711215,724.829929 l -0.209898,0.394761 M 892.662808,727.912906 l 1.464237,-2.753829 M 898.473043,725.505661 l -0.778337,1.463840"
       id="path5" />
  </g>
  <g
     inkscape:label="fill-303030"
     inkscape:groupmode="layer"
     id="fill-303030">
    <path
       style="stroke:#303030"
       d="M 65.200807,565.727862 l -0.883987,2.428734 M 67.329458,574.498463 l 1.882973,-5.173426 M 75.351943,567.075888 l -0.192793,0.529693 M 70.583765,580.176349 l 2.979009,-8.184761 M 79.221674,571.062911 l -0.334565,0.919210 M 73.996423,585.419171 l 3.810657,-10.469694 M 81.560607,579.255768 l -4.059002,11.152016 M 81.006787,595.396397 l 4.135504,-11.362205 M 88.532580,589.338475 l -4.029360,11.070576 M 88.093853,605.162889 l 3.222477,-8.853681 M 95.402053,599.702795 l -1.818724,4.996904 M 98.680552,605.314216 l 1.517387,-4.168986 M 104.935476,602.747975 l -1.384055,3.802659 M 105.779579,629.666865 l 2.086602,-5.732892 M 114.086260,621.463469 l -4.915135,13.504222 M 116.680983,628.953548 l 2.111158,-5.800358 M 133.412224,670.698974 l -2.574058,7.072166 M 136.288011,677.416836 l 2.016784,-5.541069 M 160.192354,714.073347 l -2.622327,7.204784 M 162.309418,722.875782 l 2.847369,-7.823082 M 170.120823,716.033148 l -2.909217,7.993008 M 172.206710,724.921240 l 2.798680,-7.689310 M 179.889784,718.431191 l -2.615746,7.186704 M 182.368710,726.239420 l 2.322918,-6.382165 M 189.698866,720.719003 l -2.206435,6.062132 M 192.650400,727.228752 l 2.113559,-5.806955 M 199.872648,722.004811 l -2.064278,5.671558 M 202.997074,728.039542 l 2.049672,-5.631428 M 210.246829,722.740026 l -2.047692,5.625989 M 213.401199,728.692488 l 2.113159,-5.805857 M 220.793310,723.001852 l -2.175400,5.976862 M 223.852680,729.215324 l 2.219582,-6.098253 M 231.351215,723.232292 l -2.263765,6.219644 M 234.322219,729.688546 l 2.346984,-6.448286 M 273.233428,637.399901 l -2.277191,6.256530 M 239.583015,729.853651 l 2.661185,-7.311545 M 281.845618,628.357126 l -1.186339,3.259439 M 273.000665,652.658432 l 6.233654,-17.126822 M 248.338270,720.417807 l -3.484315,9.573077 M 277.257816,655.581030 l 8.564752,-23.531462 M 254.217105,718.884862 l -4.092210,11.243255 M 283.171841,653.951402 l 7.576668,-20.816725 M 270.313616,689.279085 l -0.760464,2.089359 M 265.552820,702.359262 l 3.740546,-10.277066 M 259.860647,717.998379 l -4.464812,12.266971 M 290.964889,647.159199 l 5.032480,-13.826625 M 277.782524,683.377451 l -7.951075,21.845400 M 260.666775,730.402584 l 5.241298,-14.400348 M 301.333251,633.291382 l -2.497674,6.862302 M 273.288216,710.344483 l 8.709600,-23.929428 M 271.912682,714.123730 l -5.974967,16.416087 M 271.208655,730.677051 l 15.209803,-41.788589 M 315.111618,624.673673 l -0.386207,1.061095 M 301.723665,661.456771 l 0.667422,-1.833726 M 291.546667,689.417845 l -15.067072,41.396439 M 319.529915,627.153523 l 1.546387,-4.248664 M 317.597844,632.461844 l -15.281725,41.986194 M 281.750535,730.951517 l 14.555492,-39.990884 M 326.581033,622.399758 l -2.004631,5.507678 M 305.664906,679.866345 l 17.779687,-48.849289 M 300.968583,692.769386 l -13.943542,38.309566 M 327.220645,635.261462 l 5.156650,-14.167778 M 325.967464,638.704549 l -17.382568,47.758213 M 292.300139,731.204764 l 13.543411,-37.210216 M 337.615027,621.322153 l -24.076891,66.150715 M 297.575236,731.330575 l 13.344182,-36.662838 M 342.874547,621.490763 l -5.905498,16.225221 M 318.837327,687.532481 l 17.380668,-47.752992 M 316.036749,695.227007 l -13.186415,36.229379 M 346.588669,625.905317 l 1.598098,-4.390739 M 345.330925,629.360941 l -2.331077,6.404580 M 323.866024,688.335272 l 17.546011,-48.207269 M 321.188187,695.692568 l -13.062757,35.889629 M 354.876313,617.754226 l 0.516179,-1.418190 M 353.545864,621.409604 l -1.087256,2.987212 M 326.597693,695.449097 l 24.833512,-68.229513 M 325.498828,698.468203 l -12.098300,33.239806 M 364.891752,604.856054 l 0.361117,-0.992161 M 360.452684,617.052294 l -0.665285,1.827857 M 356.708726,627.338733 l 2.245144,-6.168484 M 356.220440,628.680289 l -20.296238,55.763455 M 318.675625,731.833820 l 15.924508,-43.752227 M 365.250587,618.489186 l -23.982857,65.892358 M 323.950723,731.959631 l 11.068746,-30.411130 M 373.550045,610.305634 l -28.495636,78.291116 M 329.225820,732.085442 l 9.203170,-25.285503 M 377.128765,615.092204 l -22.605578,62.108315 M 347.793620,695.689852 l 6.479032,-17.800993 M 342.699143,709.686813 l -8.198226,22.524440 M 351.901932,699.021379 l 29.008577,-79.700411 M 348.000256,709.741147 l -8.224241,22.595917 M 356.030496,702.297266 l 29.975645,-82.357408 M 354.847362,705.547899 l -9.796250,26.914977 M 370.983456,675.833368 l 20.220537,-55.555469 M 369.216687,680.687525 l -18.915070,51.968729 M 375.989273,676.699022 l 19.601113,-53.853616 M 374.321756,681.280486 l -18.770267,51.570885 M 379.460878,681.779888 l 19.688058,-54.092494 M 376.849491,688.954614 l -16.048130,44.091874 M 408.042553,617.871402 l 0.901004,-2.475488 M 403.295068,630.915011 l -19.955271,54.826658 M 378.032670,700.322877 l 1.449599,-3.982740 M 375.886083,706.220576 l -9.834850,27.021027 M 389.855784,682.458161 l 19.099563,-52.475618 M 384.139765,698.162794 l -12.840627,35.279333 M 394.693012,683.787009 l 19.562553,-53.747671 M 388.728790,700.173573 l -12.208631,33.542939 M 399.095868,686.309284 l 19.999800,-54.949000 M 393.193006,702.527264 l -11.451826,31.463633 M 403.548115,688.695856 l 20.569934,-56.515430 M 396.977023,706.749782 l -10.014823,27.515499 M 408.277648,690.320594 l 19.600946,-53.853156 M 403.051093,704.680435 l -10.825063,29.741615 M 451.791389,585.386593 l 0.472742,-1.298848 M 433.359460,636.027904 l -35.810034,98.387260 M 456.513911,587.030593 l 0.885416,-2.432660 M 440.545375,630.903787 l -37.672554,103.504490 M 461.517915,587.901229 l 0.695804,-1.911705 M 446.910269,628.035406 l -0.602617,1.655676 M 408.196216,734.401391 l 36.353857,-99.881400 M 450.762717,632.069915 l -37.243105,102.324590 M 418.843007,734.387619 l 34.250694,-94.103008 M 465.112137,621.883251 l -0.673776,1.851184 M 424.166402,734.380732 l 25.401185,-69.789181 M 456.462756,660.266252 l -26.972958,74.107594 M 475.289841,623.158282 l 0.524364,-1.440679 M 472.268516,631.459304 l -2.979536,8.186209 M 434.813193,734.366959 l 32.557770,-89.451738 M 478.428044,629.155163 l -2.117312,5.817266 M 463.961162,668.902595 l 10.559848,-29.012943 M 461.514068,675.625929 l -21.377480,58.734144 M 474.835677,653.644131 l 4.802785,-13.195542 M 474.345888,654.989817 l -4.242276,11.655557 M 445.459983,734.353187 l 20.728681,-56.951583 M 489.248962,628.662978 l -2.881454,7.916729 M 481.246911,650.648432 l 2.938172,-8.072561 M 480.490725,652.726037 l -5.023140,13.800963 M 450.783379,734.346300 l 19.536686,-53.676602 M 504.919472,600.227628 l -0.106303,0.292066 M 479.683256,669.563562 l 10.576974,-29.059997 M 472.928587,688.121862 l -3.957631,10.873502 M 456.106774,734.339414 l 11.982907,-32.922768 M 509.736746,601.611298 l -0.024313,0.066800 M 484.931504,669.763141 l 9.923602,-27.264873 M 477.489007,690.211234 l -1.841691,5.060005 M 461.430169,734.332528 l 10.756504,-29.553252 M 514.821106,602.261157 l -0.548431,1.506802 M 490.406915,669.338594 l 10.025653,-27.545256 M 482.217758,691.838119 l -1.383730,3.801767 M 466.753565,734.325641 l 10.096364,-27.739533 M 519.855203,603.049110 l -0.690542,1.897249 M 496.083180,668.362207 l 9.901738,-27.204801 M 487.363739,692.318675 l -1.621022,4.453721 M 472.083143,734.301766 l 9.638268,-26.480923 M 524.354847,605.305461 l -0.329845,0.906241 M 501.826278,667.202197 l 9.714323,-26.689884 M 500.011685,672.187751 l -1.476847,4.057604 M 491.229021,696.317922 l 1.620049,-4.451049 M 486.637862,708.932026 l -9.221779,25.336630 M 528.552649,608.391118 l 0.904395,-2.484806 M 517.229964,639.499940 l -13.897672,38.183541 M 500.287986,686.047641 l 1.553370,-4.267849 M 498.685120,690.451480 l -1.660575,4.562393 M 482.749023,734.235546 l 8.897713,-24.446265 M 534.450669,606.805464 l -1.035207,2.844207 M 505.481632,686.397240 l 16.880424,-46.378585 M 496.655609,710.646537 l -8.573646,23.555899 M 538.137397,611.295284 l 1.303630,-3.581695 M 537.487065,613.082055 l -0.506003,1.390233 M 517.184562,668.862725 l 10.034487,-27.569526 M 516.163166,671.668987 l -3.216823,8.838148 M 493.414903,734.169326 l 8.254382,-22.678729 M 544.436967,608.606379 l -2.971439,8.163962 M 524.681704,662.883517 l 7.975333,-21.912048 M 520.533950,674.279380 l -1.183967,3.252923 M 498.747843,734.136216 l 7.937918,-21.809250 M 549.435076,609.493209 l -3.197422,8.784844 M 539.296705,637.348155 l 1.946142,-5.346981 M 538.456739,639.655943 l -7.615887,20.924478 M 529.054103,665.489474 l 1.321682,-3.631293 M 511.702236,713.163335 l -7.621454,20.939772 M 551.024344,619.745754 l 3.440797,-9.453511 M 544.941274,636.458851 l -8.687977,23.870022 M 533.686915,667.379948 l 1.700305,-4.671549 M 516.718712,713.999704 l -7.304989,20.070293 M 555.938296,620.863805 l 3.629613,-9.972279 M 550.042013,637.063708 l -8.428013,23.155775 M 539.091762,667.149276 l 1.618075,-4.445624 M 521.728156,714.855390 l -6.981494,19.181497 M 560.852489,621.981191 l 3.777858,-10.379579 M 554.380893,639.761755 l -7.477689,20.544780 M 544.624070,666.568407 l 0.733534,-2.015368 M 526.749943,715.677167 l -6.670341,18.326610 M 565.889598,622.760869 l 3.139498,-8.625699 M 559.479491,640.372494 l -7.310126,20.084406 M 549.872130,666.768503 l 0.936808,-2.573860 M 531.855103,716.269876 l -6.442561,17.700791 M 571.886499,620.903543 l 1.765208,-4.849868 M 564.551758,641.055576 l -9.039490,24.835794 M 550.918473,678.512721 l 0.295152,-0.810922 M 536.998997,716.756167 l -6.253515,17.181390 M 576.746909,622.168697 l 1.651086,-4.536322 M 569.456566,642.198751 l -7.852674,21.575043 M 556.578105,677.582032 l 4.117714,-11.313325 M 542.169241,717.170059 l -6.090819,16.734388 M 581.607319,623.433852 l 1.642133,-4.511722 M 574.595499,642.698670 l -6.611857,18.165927 M 562.735284,675.284341 l 0.944160,-2.594059 M 547.486475,717.180100 l -6.075113,16.691237 M 586.429592,624.803789 l 1.848962,-5.079980 M 579.785258,643.058946 l -5.063493,13.911834 M 568.876250,673.031198 l 3.067256,-8.427215 M 553.775517,714.520121 l -7.031216,19.318106 M 591.244606,626.193667 l 2.352108,-6.462364 M 584.923218,643.561538 l -5.537822,15.215040 M 575.117910,670.501402 l 2.764479,-7.595345 M 563.838128,701.492347 l -3.978118,10.929790 M 552.077242,733.805117 l 7.221976,-19.842217 M 598.946638,619.651532 l -2.887017,7.932014 M 594.767818,631.132744 l 0.362270,-0.995328 M 589.906290,644.489682 l -5.206529,14.304820 M 580.700080,669.783536 l 2.575874,-7.077155 M 569.409635,700.803779 l -11.999454,32.968228 M 600.861966,629.008232 l 3.366581,-9.249607 M 600.015336,631.334330 l -0.528939,1.453247 M 590.754258,656.778932 l 3.473597,-9.543628 M 588.286025,663.560345 l -2.643217,7.262179 M 562.743121,733.738897 l 11.916835,-32.741234 M 609.381022,620.221340 l -3.732663,10.255408 M 597.360110,653.248526 l 0.693996,-1.906739 M 592.888434,665.534353 l -1.482375,4.072792 M 586.354392,683.486487 l 2.327986,-6.396089 M 579.907093,701.200294 l -11.831032,32.505494 M 610.434752,631.945262 l 4.044975,-11.113478 M 594.590001,675.478357 l -2.975101,8.174023 M 573.409001,733.672678 l 11.803930,-32.431032 M 619.566964,621.473740 l -4.347483,11.944611 M 597.261744,682.756827 l 3.178988,-8.734198 M 590.546966,701.205528 l -11.805025,32.434040 M 619.961028,635.010078 l 4.575191,-12.570233 M 606.297570,672.550121 l -2.964465,8.144801 M 584.074881,733.606458 l 11.926151,-32.766832 M 629.505475,623.405949 l -4.802898,13.195855 M 609.141891,679.354434 l 3.015834,-8.285934 M 601.576329,700.140647 l -12.168508,33.432701 M 629.358837,638.427854 l 5.109708,-14.038807 M 617.898170,669.915779 l -0.906737,2.491240 M 614.912990,678.117494 l 0.372423,-1.023225 M 607.347281,698.904107 l -12.606521,34.636131 M 633.873861,640.641952 l 5.468198,-15.023751 M 613.449164,696.758345 l -13.375463,36.748783 M 637.568879,645.108995 l 6.646694,-18.261641 M 635.545191,650.669031 l -3.059083,8.404760 M 605.406640,733.474018 l 14.666331,-40.295413 M 649.089086,628.076507 l -7.299182,20.054338 M 635.028622,666.707314 l 5.959145,-16.372617 M 632.954809,672.405068 l -1.075137,2.953915 M 610.744090,733.428519 l 16.677104,-45.819966 M 653.974158,629.273904 l -1.990509,5.468879 M 646.562802,649.636438 l 3.545453,-9.741052 M 645.854219,651.583252 l -29.744673,81.722818 M 657.606660,633.912710 l 1.260026,-3.461892 M 654.740102,641.788512 l -3.125220,8.586473 M 621.475002,733.183622 l 29.113445,-79.988532 M 663.762288,631.619281 l -0.710775,1.952837 M 656.612837,651.262238 l 2.814951,-7.734016 M 655.328139,654.791917 l -28.487680,78.269258 M 661.273801,653.075365 l 2.841673,-7.807433 M 660.123640,656.235408 l -27.907527,76.675301 M 666.144697,654.311712 l 2.663175,-7.317014 M 665.021986,657.396335 l -27.373563,75.208246 M 670.938897,655.758777 l 2.568989,-7.058238 M 669.898675,658.616763 l -26.817942,73.681690 M 675.750631,657.157669 l 2.457269,-6.751290 M 674.667888,660.132480 l -26.152427,71.853203 M 680.594943,658.467054 l 2.312971,-6.354835 M 679.644447,661.078520 l -25.687995,70.577187 M 685.470135,659.691596 l 2.137793,-5.873537 M 684.531376,662.270815 l -25.133934,69.054916 M 690.270745,661.121048 l 2.021199,-5.553198 M 689.260995,663.895316 l -24.426003,67.109891 M 695.013965,662.708182 l 1.938974,-5.327286 M 694.131292,665.133304 l -23.905601,65.680100 M 699.633391,664.635433 l 1.980541,-5.441490 M 699.233817,665.733255 l -23.617427,64.888348 M 704.007986,667.235356 l 2.266940,-6.228367 M 703.731593,667.994739 l -22.724504,62.435062 M 709.133938,667.770939 l 1.786750,-4.909056 M 708.562063,669.342153 l -18.580812,51.050363 M 686.397788,730.237999 l 2.948188,-8.100079 M 715.518737,664.847872 l -20.206823,55.517789 M 691.789317,730.043918 l 2.512145,-6.902061 M 720.116785,666.833861 l -19.474207,53.504945 M 697.183042,729.843801 l 2.194387,-6.029030 M 724.669576,668.944192 l -18.716947,51.424390 M 702.576768,729.643684 l 1.898653,-5.216507 M 728.642765,672.646967 l -17.403899,47.816819 M 707.970493,729.443567 l 1.523474,-4.185710 M 731.504353,679.403839 l -15.026024,41.283662 M 713.364219,729.243450 l 1.142391,-3.138694 M 734.381297,686.118525 l -12.791849,35.145315 M 718.827529,728.852151 l 0.742894,-2.041086 M 737.245232,692.868949 l -10.882623,29.899762 M 731.164241,724.195357 l 8.904135,-24.463910 M 751.679799,682.448345 l -0.784028,2.154099 M 736.120241,725.197880 l 6.795346,-18.670059 M 756.424239,684.032126 l -2.971442,8.163971 M 741.140655,726.023428 l 4.449065,-12.223707 M 761.102553,685.797587 l -4.977657,13.676000 M 746.237237,726.639706 l 1.956773,-5.376189 M 765.780866,687.563047 l -6.947714,19.088688 M 761.624587,713.601352 l 8.787866,-24.144464 M 775.042033,691.356245 l -10.619096,29.175727 M 767.392258,726.992851 l 12.230730,-33.603655 M 783.532316,697.267430 l -11.866480,32.602886 M 777.006167,729.816898 l 8.749226,-24.038301 M 794.000230,697.745116 l -1.406764,3.865053 M 782.357942,729.732038 l 8.002866,-21.987694 M 799.185718,698.117126 l -1.549159,4.256279 M 787.702914,729.665872 l 6.744976,-18.531670 M 804.763439,697.411487 l -2.275535,6.251981 M 793.047711,729.600185 l 5.830078,-16.018007 M 802.963067,716.976988 l -4.843426,13.307204 M 802.968458,731.581201 l 3.668251,-10.078436 M 820.644721,697.635088 l -1.551496,4.262700 M 821.912795,708.770104 l 3.500951,-9.618783 M 830.232923,700.529763 l -2.450826,6.733589 M 817.868004,734.502100 l 4.433233,-12.180209 M 835.111798,701.744186 l -1.195216,3.283829 M 823.139203,734.638622 l 5.089778,-13.984050 M 839.941070,703.094893 l -0.590211,1.621592 M 828.411120,734.773169 l 5.312834,-14.596892 M 839.170814,719.830175 l -5.450725,14.975744 M 839.029058,734.838669 l 5.495257,-15.098093 M 849.496468,720.698718 l -5.158441,14.172701 M 849.646996,734.904168 l 4.900543,-13.464132 M 861.330293,717.423596 l -6.374328,17.513322 M 860.274408,734.943639 l 6.129108,-16.839587 M 871.294700,719.284655 l -5.689996,15.633136 M 870.935001,734.891944 l 5.237919,-14.391063 M 881.139000,721.475708 l -4.873703,13.390390 M 881.595593,734.840250 l 4.560273,-12.529247 M 891.177308,723.133727 l -2.872937,7.893330 M 886.941504,734.771504 l 0.929837,-2.554705 M 896.228298,723.875270 l -3.903825,10.725672 M 897.707441,734.430379 l 3.571846,-9.813567 M 906.330276,725.358355 l -3.239867,8.901461 M 908.548387,733.883169 l 2.832879,-7.783270 M 916.373869,727.001857 l -2.276647,6.255036 M 919.968566,731.744527 l 1.245048,-3.420742"
       id="path8" />
  </g>
  <g
     inkscape:label="fill-4e4e4e"
     inkscape:groupmode="layer"
     id="fill-4e4e4e">
    <path
       style="stroke:#4e4e4e"
       d="M 63.082100,562.088261 l -1.021645,4.806460 M 68.393133,561.150486 l 0.553700,-2.604953 M 67.264010,566.462594 l -1.554805,7.314782 M 72.162531,567.465533 l 0.995350,-4.682752 M 71.657354,569.842204 l -2.146801,10.099905 M 73.406410,585.662218 l 3.880097,-18.254423 M 81.351761,572.330949 l -4.020641,18.915631 M 81.255830,596.830942 l 4.096471,-19.272383 M 89.240587,583.314287 l -4.017280,18.899815 M 89.460870,606.326609 l 3.440027,-16.184055 M 97.571605,592.217271 l -2.899404,13.640623 M 99.625255,606.604279 l 2.164339,-10.182416 M 105.948019,600.906684 l -1.583323,7.448949 M 109.177303,609.762767 l 0.750488,-3.530766 M 105.981271,624.798916 l -1.326349,6.239981 M 99.576929,654.928977 l 1.755418,-8.258591 M 111.892284,621.038459 l -3.269743,15.382931 M 102.620774,664.657483 l 3.307265,-15.559460 M 117.018364,620.970823 l -4.261120,20.046994 M 106.288731,671.449775 l 3.226475,-15.179372 M 121.634131,623.304018 l -4.239762,19.946510 M 110.626082,675.092815 l 3.550956,-16.705937 M 124.612745,633.339410 l -1.763620,8.297182 M 115.381467,676.769162 l 3.698649,-17.400775 M 128.732045,638.008298 l -0.890686,4.190348 M 120.629558,676.127505 l 2.348425,-11.048471 M 127.812717,666.382070 l -2.066509,9.722159 M 130.097709,679.680697 l 2.458952,-11.568459 M 137.463479,669.076150 l -2.501015,11.766349 M 140.964508,676.653772 l 1.237235,-5.820732 M 137.711135,691.959691 l -1.334764,6.279571 M 140.429096,703.221362 l 2.451387,-11.532869 M 153.175859,667.301229 l -0.803967,3.782369 M 144.706789,707.145070 l 3.510930,-16.517625 M 158.502593,666.289587 l -0.844813,3.974533 M 149.142506,710.325333 l 1.472737,-6.928685 M 164.357871,662.791340 l -2.650399,12.469148 M 153.598921,713.408221 l 1.056957,-4.972592 M 152.771229,717.302206 l -0.915116,4.305280 M 165.342576,682.207338 l 4.046019,-19.035023 M 164.749415,684.997944 l -1.745784,8.213268 M 156.657580,723.067033 l 2.615563,-12.305259 M 173.779189,666.564866 l -0.379051,1.783295 M 170.148728,683.644844 l 3.145244,-14.797211 M 169.465495,686.859200 l -2.171802,10.217524 M 164.870025,708.479191 l 0.736934,-3.467003 M 164.045177,712.359791 l -2.457961,11.563799 M 178.469293,668.548333 l 0.708777,-3.334536 M 177.790837,671.740217 l -6.583317,30.972073 M 169.350681,711.448030 l 0.984592,-4.632140 M 168.932164,713.417000 l -2.414433,11.359013 M 183.893332,667.078909 l 1.064730,-5.009160 M 182.228883,674.909526 l -1.576152,7.415214 M 175.660740,705.810210 l 3.998513,-18.811524 M 174.836828,709.686410 l -3.369135,15.850534 M 186.217262,680.194349 l 1.417327,-6.668001 M 184.688306,687.387520 l -3.916379,18.425113 M 176.454162,726.126124 l 3.611207,-16.989392 M 192.890660,672.847151 l -1.109699,5.220725 M 190.257383,685.235746 l 0.624729,-2.939118 M 189.503676,688.781658 l -0.629278,2.960522 M 181.440631,726.715305 l 6.991028,-32.890199 M 198.128292,672.254701 l -7.761013,36.512697 M 186.427100,727.304485 l 3.259520,-15.334837 M 202.452660,675.958822 l -6.888306,32.406932 M 191.445398,727.743919 l 3.372287,-15.865364 M 208.915330,669.603023 l -12.443725,58.543122 M 201.497812,728.548371 l 12.825082,-60.337269 M 230.231412,617.416083 l -0.652732,3.070862 M 218.416915,672.998921 l 0.516552,-2.430186 M 217.186117,678.789370 l -1.336267,6.286643 M 206.524020,728.950596 l 8.961512,-42.160601 M 223.247371,674.322086 l -11.681749,54.958306 M 240.847155,615.570286 l 1.095543,-5.154125 M 229.368883,669.571308 l -7.841483,36.891278 M 216.610935,729.592732 l 3.538986,-16.649621 M 234.655403,668.748856 l -8.304707,39.070574 M 221.656248,729.905074 l 3.282187,-15.441478 M 239.163278,671.589647 l -7.269559,34.200586 M 226.701561,730.217415 l 3.244878,-15.265949 M 244.301324,671.465712 l -7.359601,34.624202 M 231.746874,730.529756 l 5.028505,-23.657257 M 248.368310,676.380720 l -0.424629,1.997722 M 236.792187,730.842097 l 10.456022,-49.191718 M 251.163181,687.280558 l -9.312443,43.811598 M 269.806771,623.618031 l 0.329042,-1.548022 M 268.944392,627.675208 l -2.053363,9.660312 M 246.924625,731.270067 l 9.399724,-44.222226 M 275.359942,621.541090 l -0.942850,4.435760 M 269.797881,647.708527 l 3.324202,-15.639142 M 261.523454,686.636649 l -9.524942,44.811329 M 273.303861,655.262862 l 6.372023,-29.978010 M 267.966197,680.374598 l -10.893798,51.251290 M 277.510064,659.522906 l 7.860148,-36.979089 M 275.347178,669.698483 l -13.183470,62.023348 M 295.560832,598.649389 l 0.364488,-1.714781 M 291.348122,618.468630 l -8.083198,38.028458 M 267.262611,731.782051 l 13.313220,-62.633778 M 301.560097,594.473736 l -0.994185,4.677271 M 289.841391,649.605914 l 8.980569,-42.250253 M 284.227432,676.017513 l -11.865918,55.824757 M 296.081587,644.296773 l 10.608200,-49.907655 M 287.280842,685.701023 l -9.820425,46.201468 M 302.194174,639.587985 l 9.317793,-43.836767 M 297.946597,659.571260 l -0.929879,4.374736 M 282.559320,731.962710 l 9.945960,-46.792062 M 316.989635,594.029484 l -1.307875,6.153070 M 308.150704,635.613384 l 5.808237,-27.325609 M 306.619622,642.816558 l -7.215929,33.948277 M 287.655536,732.035571 l 10.102157,-47.526912 M 322.640358,591.493593 l -1.066332,5.016698 M 303.072663,683.552361 l 17.140950,-80.641829 M 302.645170,685.563559 l -9.894026,46.547732 M 326.875840,595.615889 l 1.530142,-7.198753 M 325.167423,603.653358 l -27.320671,128.533653 M 332.857219,591.524387 l 1.277693,-6.011071 M 330.355474,603.294171 l -27.413114,128.968561 M 338.777800,587.718915 l 0.871719,-4.101116 M 335.715082,602.127870 l -27.677113,130.210581 M 343.906358,587.639617 l 1.062533,-4.998822 M 340.934240,601.622333 l -27.804961,130.812059 M 348.929415,588.056666 l 1.230281,-5.788018 M 346.656134,598.751610 l -28.444016,133.818574 M 354.471535,586.031710 l 0.768435,-3.615205 M 351.866925,598.285439 l -28.571967,134.420537 M 328.377797,732.841768 l 28.690470,-134.978049 M 362.391916,596.866590 l -28.931280,136.110971 M 345.615433,699.842411 l 22.107098,-104.005717 M 344.520428,704.994003 l -5.976952,28.119350 M 343.626315,733.249145 l 29.996238,-141.121203 M 377.891798,596.091393 l -29.184957,137.304426 M 353.780300,733.575747 l 29.195573,-137.354373 M 387.460424,599.171893 l -28.606666,134.583783 M 395.327571,586.208546 l 0.312268,-1.469107 M 393.006058,597.130406 l -29.078843,136.805199 M 400.361759,586.573225 l 0.392799,-1.847974 M 398.550200,595.095940 l -29.549527,139.019594 M 405.382680,587.000324 l 0.439178,-2.066168 M 403.884071,594.050724 l -20.104469,94.584090 M 374.074131,734.295463 l 8.397008,-39.504817 M 410.849616,585.329084 l -0.506804,2.384325 M 389.386924,686.303109 l 19.646635,-92.430152 M 387.410105,695.603312 l -8.262516,38.872080 M 394.505253,686.271935 l 19.599557,-92.208667 M 391.891477,698.568784 l -7.692218,36.189039 M 398.844146,689.907720 l 20.294617,-95.478666 M 396.407400,701.371711 l -7.158815,33.679579 M 403.380663,692.613756 l 20.729470,-97.524491 M 401.249125,702.641859 l -6.951215,32.702896 M 399.386142,735.455174 l 29.705749,-139.754562 M 434.168312,595.866600 l -0.415471,1.954637 M 404.494160,735.472512 l 27.985903,-131.663324 M 437.556752,603.973915 l -27.954575,131.515934 M 414.710195,735.507188 l 27.928027,-131.391037 M 452.259639,582.899614 l -0.750298,3.529874 M 419.818213,735.524526 l 27.857054,-131.057135 M 457.231512,583.557464 l -0.966241,4.545807 M 424.926230,735.541864 l 27.608364,-129.887143 M 462.031245,585.025168 l -0.893272,4.202514 M 430.042589,735.519959 l 26.953538,-126.806424 M 466.484484,588.122995 l -0.365816,1.721029 M 435.159758,735.494246 l 27.018185,-127.110569 M 466.537646,611.921561 l -26.260720,123.546973 M 445.394095,735.442820 l 26.473871,-124.549769 M 475.754545,616.656804 l -25.243282,118.760303 M 455.628432,735.391394 l 25.750756,-121.147783 M 492.262128,587.092074 l -0.157401,0.740514 M 484.990834,621.300823 l 0.463667,-2.181380 M 484.417650,623.997441 l -23.672050,111.368240 M 496.892265,589.357663 l 0.436347,-2.052851 M 489.983232,621.862109 l -24.120464,113.477859 M 501.766838,590.473275 l 0.446739,-2.101741 M 495.429790,620.286742 l -24.449853,115.027513 M 504.504350,601.642962 l 0.524128,-2.465826 M 500.710336,619.492397 l -0.531496,2.500491 M 476.097105,735.288542 l 23.547580,-110.782656 M 509.974808,599.955156 l -0.677292,3.186406 M 481.214274,735.262829 l 23.073378,-108.551708 M 514.831331,601.155682 l -0.796505,3.747261 M 493.097719,703.404287 l 16.058835,-75.550879 M 492.123718,707.986602 l -5.792276,27.250514 M 518.858009,606.260324 l 0.821688,-3.865737 M 513.965403,629.278222 l -14.953545,70.350897 M 491.448611,735.211403 l 5.560075,-26.158095 M 524.534020,603.605464 l -0.908008,4.271843 M 504.379219,698.426344 l 14.645913,-68.903604 M 501.901165,710.084672 l -5.337086,25.109017 M 528.268651,610.084077 l 1.120905,-5.273445 M 524.118139,629.610698 l -13.524593,63.628208 M 501.679107,735.178044 l 5.149444,-24.226227 M 534.260623,605.942734 l -1.621485,7.628486 M 515.480506,694.296239 l 13.730640,-64.597583 M 511.755937,711.818961 l -4.961801,23.343437 M 537.153816,616.380003 l 2.020270,-9.504625 M 534.304153,629.786614 l -13.667264,64.299424 M 518.339847,704.892769 l 0.387133,-1.821319 M 516.683322,712.686105 l -4.774158,22.460648 M 541.293721,620.951954 l 2.793829,-13.143932 M 539.385482,629.929516 l -13.431333,63.189454 M 523.552308,704.418741 l 0.156653,-0.736995 M 521.618831,713.515033 l -4.594638,21.616074 M 546.184209,621.992690 l 2.840338,-13.362742 M 544.444488,630.177435 l -13.082582,61.548710 M 522.139222,735.115462 l 4.418081,-20.785436 M 553.989617,609.319803 l -2.872332,13.513260 M 536.871810,689.852752 l 12.586113,-59.213005 M 531.495773,715.145018 l -4.241523,19.954798 M 556.116215,623.363620 l 2.838472,-13.353962 M 554.322822,631.800870 l -11.680154,54.950806 M 532.369279,735.084170 l 4.064966,-19.124161 M 563.972404,610.451827 l -2.802456,13.184520 M 548.083436,685.203545 l 11.101582,-52.228837 M 541.390803,716.689906 l -3.906496,18.378618 M 566.204477,623.999419 l 2.802548,-13.184954 M 564.145815,633.684665 l -11.001572,51.758327 M 551.551173,692.937795 l 1.284477,-6.042990 M 546.558131,716.428212 l -3.958795,18.624667 M 571.141578,624.820860 l 2.021902,-9.512299 M 569.185121,634.025266 l -12.430053,58.478804 M 547.714364,735.037234 l 6.173565,-29.044339 M 577.942955,616.871568 l -1.917373,9.020532 M 564.207562,681.491512 l 10.044019,-47.253394 M 563.482707,684.901687 l -1.310334,6.164636 M 552.829393,735.021588 l 7.267079,-34.188920 M 582.841320,617.875244 l -1.996923,9.394784 M 569.413994,681.045848 l 9.797932,-46.095644 M 565.547571,699.235938 l -7.603149,35.770005 M 585.594531,628.971074 l 2.220975,-10.448866 M 583.966570,636.630029 l -9.556503,44.959812 M 572.018267,692.842378 l 0.989724,-4.656285 M 570.603986,699.496045 l -7.544536,35.494253 M 590.324327,630.767805 l 2.534414,-11.923482 M 588.402026,639.811522 l -11.236877,52.865350 M 568.174478,734.974652 l 7.451564,-35.056853 M 597.921018,619.076856 l -2.830183,13.314966 M 582.524635,691.511142 l 10.647090,-50.090622 M 580.672779,700.223443 l -7.383272,34.735564 M 599.994994,633.368240 l 2.991245,-14.072701 M 598.020718,642.656479 l -10.136294,47.687512 M 578.404535,734.943361 l 7.383784,-34.737974 M 608.051459,619.514221 l -3.017741,14.197354 M 592.744669,691.527008 l 10.090731,-47.473157 M 590.986978,699.796296 l -7.467414,35.131420 M 610.075544,634.040323 l 2.984468,-14.040818 M 607.575069,645.804134 l -9.935078,46.740865 M 588.634592,734.912070 l 7.605593,-35.781500 M 618.037116,620.632743 l -2.969695,13.971315 M 604.504174,684.300232 l 7.692066,-36.188325 M 604.463795,684.490197 l -1.584479,7.454389 M 593.749621,734.896424 l 7.817509,-36.778488 M 623.014220,621.265981 l -3.015201,14.185405 M 614.860116,659.628028 l 1.279704,-6.020533 M 613.201910,667.429271 l -2.930947,13.789023 M 608.263588,690.662249 l 1.234884,-5.809673 M 606.954042,696.823178 l -8.089393,38.057601 M 624.313601,639.201547 l 3.607888,-16.973778 M 621.525593,652.318094 l -0.718556,3.380540 M 615.530154,680.524415 l 3.112782,-14.644489 M 614.648397,684.672757 l -0.983852,4.628662 M 603.979678,734.865133 l 8.413962,-39.584579 M 632.817788,623.241162 l -4.021926,18.921675 M 620.631126,680.574903 l 3.340902,-15.717710 M 619.861585,684.195306 l -0.794384,3.737283 M 609.094707,734.849488 l 8.872391,-41.741320 M 637.714088,624.254556 l -4.302987,20.243960 M 630.453123,658.414710 l 1.195626,-5.624979 M 628.725915,666.540583 l -14.520561,68.313870 M 619.313401,734.871652 l 23.231764,-109.296858 M 647.370919,626.920082 l -22.946414,107.954392 M 650.475366,636.363479 l 1.721306,-8.098108 M 649.867361,639.223918 l -20.306425,95.534219 M 655.968139,634.570685 l 1.059967,-4.986753 M 654.537104,641.303175 l -19.839689,93.338399 M 661.188464,634.059660 l 0.720117,-3.387883 M 659.268478,643.092484 l -19.395773,91.249939 M 666.350840,633.821261 l 0.463871,-2.182341 M 664.001314,644.874914 l -18.952542,89.164699 M 650.259650,733.573028 l 18.486879,-86.973928 M 673.491745,648.323286 l -18.021216,84.783157 M 660.680263,732.645244 l 17.556698,-82.597771 M 682.982177,651.771659 l -17.092332,80.413098 M 671.074738,731.840428 l 16.652655,-78.344583 M 692.472609,655.220032 l -16.225805,76.336412 M 681.402374,731.350064 l 15.815451,-74.405845 M 701.935948,658.795864 l -15.397095,72.437635 M 691.675333,731.116933 l 14.976783,-70.460224 M 711.368284,662.517554 l -14.576051,68.574928 M 701.907100,731.077599 l 14.145828,-66.550889 M 720.737056,666.538292 l -13.715090,64.524424 M 712.138700,731.039046 l 13.241795,-62.297749 M 729.585983,673.004707 l -12.329259,58.004604 M 722.374747,730.979576 l 10.602236,-49.879596 M 736.343779,689.309120 l -8.851009,41.640722 M 732.635693,730.802966 l 7.074883,-33.284707 M 743.044002,705.884392 l -5.248456,24.692043 M 751.714755,689.140378 l 1.587811,-7.470061 M 746.350220,714.378530 l -3.385752,15.928709 M 754.961870,697.912576 l 3.077070,-14.476474 M 749.634505,722.975858 l -1.374546,6.466729 M 758.235993,706.557710 l 4.533938,-21.330504 M 767.500923,687.018311 l -5.919510,27.849107 M 764.957371,723.033454 l 7.297069,-34.330009 M 777.029238,690.288458 l -8.428190,39.651515 M 773.564865,730.635723 l 8.239171,-38.762252 M 786.620308,693.263366 l -7.940850,37.358761 M 783.792528,730.615697 l 7.653625,-36.007475 M 796.310219,695.773261 l -7.407160,34.847947 M 793.979590,730.786682 l 7.311921,-34.399886 M 806.350986,696.632508 l -7.471829,35.152193 M 808.453500,710.789630 l 0.821867,-3.866582 M 806.346492,720.702324 l -2.470226,11.621498 M 819.693534,706.006774 l 1.942536,-9.138911 M 826.314196,698.907677 l -2.282767,10.739572 M 818.592624,735.234817 l 2.760646,-12.987820 M 831.168372,700.119245 l -1.744592,8.207662 M 823.657541,735.454930 l 3.268569,-15.377406 M 836.046241,701.219351 l -1.043757,4.910490 M 828.739656,735.594131 l 3.404446,-16.016658 M 840.912853,702.372413 l -0.650871,3.062106 M 833.841708,735.639533 l 3.521115,-16.565542 M 845.682567,703.981344 l -0.119805,0.563639 M 838.943761,735.684935 l 3.642606,-17.137113 M 847.843465,717.863788 l -3.797652,17.866549 M 849.147866,735.775739 l 3.954853,-18.606121 M 858.365739,716.457726 l -4.114089,19.355268 M 859.369845,735.782452 l 4.135136,-19.454284 M 868.462879,717.051762 l -3.974839,18.700148 M 869.606234,735.721370 l 3.726927,-17.533814 M 878.156295,719.545167 l -3.431866,16.145662 M 879.842624,735.660287 l 3.099203,-14.580602 M 887.826855,722.146105 l -2.852909,13.421881 M 890.117146,735.419801 l 2.676022,-12.589696 M 897.776303,723.434976 l -2.515956,11.836641 M 900.403547,735.123432 l 2.361813,-11.111456 M 907.726889,724.718490 l -2.145579,10.094157 M 910.782854,734.389976 l 1.888839,-8.886291 M 917.568445,726.514953 l -1.557488,7.327404 M 921.262776,733.183165 l 1.150491,-5.412633 M 927.065354,729.932851 l -0.459383,2.161225"
       id="path11" />
  </g>
  <g
     inkscape:label="fill-6c6c6c"
     inkscape:groupmode="layer"
     id="fill-6c6c6c">
    <path
       style="stroke:#6c6c6c"
       d="M 56.902956,553.282515 l -0.331273,3.786472 M 61.668138,567.658521 l 0.675399,-7.719841 M 68.612400,557.127515 l -0.462239,5.283414 M 66.896264,576.743046 l 0.913861,-10.445473 M 74.110831,563.122446 l -1.893458,21.642322 M 77.559478,592.546510 l 2.030936,-23.213702 M 85.039710,575.889344 l -2.117957,24.208362 M 88.361163,606.767244 l 2.114380,-24.167473 M 95.949488,588.874568 l -1.586601,18.134937 M 100.274225,608.284886 l 1.175743,-13.438800 M 97.657372,638.195648 l -1.338330,15.297183 M 106.108403,610.442198 l 0.843744,-9.644036 M 104.888927,624.380879 l -0.740087,8.459228 M 100.887202,670.120802 l 2.846464,-32.535236 M 112.415344,607.195817 l -0.351394,4.016453 M 106.221220,677.994978 l 5.020885,-57.388981 M 117.303654,620.164459 l -5.468326,62.503247 M 117.532583,686.390061 l 5.552616,-63.466696 M 128.551297,629.287861 l -1.296809,14.822599 M 123.212514,690.310440 l 3.229523,-36.913617 M 134.433960,630.890998 l -1.209070,13.819733 M 128.544165,698.211665 l 3.903227,-44.614089 M 139.640463,640.222675 l -0.506874,5.793600 M 134.115201,703.376708 l 4.346591,-49.681766 M 145.233114,645.140661 l -0.314627,3.596201 M 139.850337,706.666090 l 4.621412,-52.822977 M 150.481676,653.991609 l -4.896518,55.967461 M 144.567221,721.594132 l 0.290730,-3.323062 M 156.491603,654.140105 l -5.206986,59.516128 M 150.446422,723.236837 l 0.726716,-8.306405 M 162.501530,654.288601 l -6.118465,69.934376 M 162.320840,725.196184 l 6.190485,-70.757565 M 174.519687,654.605001 l -6.244363,71.373398 M 174.234678,726.704947 l 6.293371,-71.933565 M 186.554050,654.736156 l -6.360018,72.695338 M 186.169774,727.970740 l 6.498566,-74.278950 M 198.289000,658.289625 l -6.142898,70.213643 M 198.124708,729.009769 l 5.985255,-68.411778 M 210.233566,659.447176 l -6.120405,69.956547 M 210.101613,729.797676 l 6.279023,-71.769566 M 222.556507,656.279874 l -6.466441,73.911755 M 231.318532,624.971752 l 1.791579,-20.477844 M 228.680898,655.120037 l -6.602380,75.465546 M 237.054552,628.251022 l 2.566831,-29.339013 M 234.800593,654.013885 l -6.733480,76.964026 M 242.805663,631.357799 l 2.567635,-29.348197 M 240.832180,653.914810 l -6.763897,77.311695 M 240.069453,731.475099 l 6.553770,-74.909930 M 252.438402,658.939645 l -6.367779,72.784047 M 252.077486,731.907214 l 6.220801,-71.104077 M 267.751864,621.590537 l -1.969984,22.517021 M 258.087898,732.050173 l 6.382961,-72.957578 M 274.093971,617.942194 l -9.995662,114.250937 M 281.299459,604.425376 l 0.466600,-5.333264 M 279.775704,621.841977 l -9.666982,110.494113 M 287.560062,601.708634 l 0.607111,-6.939310 M 286.312726,615.965753 l -10.193593,116.513296 M 293.551733,602.065803 l 0.909745,-10.398430 M 293.293582,605.016484 l -4.104679,46.916698 M 288.108627,664.280784 l 0.201134,-2.298976 M 287.170003,675.009303 l -5.041431,57.623820 M 295.662045,646.787104 l 4.953137,-56.614613 M 294.391186,661.313087 l -0.416988,4.766193 M 288.137845,732.789107 l 5.184285,-59.256653 M 306.621703,590.359913 l -12.474587,142.585177 M 300.156389,733.101074 l 12.568256,-143.655821 M 318.813014,588.697152 l -12.647353,144.559906 M 312.174933,733.413042 l 12.746853,-145.697198 M 331.195306,584.851462 l -13.011101,148.717563 M 324.193478,733.725009 l 13.206804,-150.954456 M 343.541987,581.412817 l -13.339237,152.468176 M 336.212022,734.036977 l 13.421937,-153.413446 M 355.673694,580.431327 l -13.452400,153.761634 M 348.230567,734.348944 l 13.413587,-153.318002 M 367.522566,582.682661 l -13.283567,151.831871 M 360.243707,734.722679 l 13.261216,-151.576387 M 379.515272,583.289966 l -13.266856,151.640861 M 372.253124,735.138973 l 13.272497,-151.705334 M 391.535981,583.577189 l -13.278148,151.769932 M 384.262541,735.555268 l 13.283911,-151.835797 M 403.556923,583.861752 l -13.293838,151.949259 M 396.258576,736.124523 l 13.302118,-152.043907 M 415.543731,584.536470 l -13.289665,151.901564 M 408.272165,736.493134 l 13.244626,-151.386772 M 427.420753,586.466047 l -13.127277,150.045468 M 420.314787,736.529895 l 12.784366,-146.125974 M 438.982862,591.995099 l -12.646764,144.553176 M 432.359556,736.542105 l 12.513384,-143.028632 M 451.906114,581.966205 l -0.499858,5.713407 M 438.385584,736.506569 l 12.411663,-141.865955 M 457.902685,582.267366 l -0.647658,7.402769 M 444.411612,736.471033 l 12.161561,-139.007276 M 463.738406,584.407055 l -0.534416,6.108404 M 450.437640,736.435497 l 12.040393,-137.622320 M 469.921869,582.572023 l -0.072755,0.831598 M 469.222445,590.566475 l 0.134680,-1.539402 M 468.329630,600.771394 l -11.865962,135.628568 M 475.051592,592.781306 l 0.134268,-1.534689 M 474.283497,601.560672 l -11.793800,134.803753 M 468.515724,736.328890 l 11.662375,-133.301552 M 487.720811,585.656028 l -0.133581,1.526834 M 486.717393,597.125140 l 0.189484,-2.165810 M 486.063196,604.602653 l -11.521443,131.690701 M 493.428021,589.264598 l 0.272835,-3.118514 M 492.748026,597.036977 l -0.166031,1.897742 M 480.567780,736.257818 l 11.455146,-130.932921 M 499.636806,587.140139 l -0.302296,3.455261 M 498.484251,600.313907 l 0.228705,-2.614113 M 497.640111,609.962463 l -11.046303,126.259819 M 505.281448,591.463867 l 0.249654,-2.853555 M 504.696480,598.150078 l -0.410472,4.691714 M 492.619806,736.187094 l 10.849982,-124.015857 M 510.621063,599.274067 l -0.465277,5.318145 M 498.645670,736.153432 l 10.653257,-121.767280 M 516.514580,600.753135 l -0.478292,5.466903 M 504.671534,736.119769 l 10.329967,-118.072064 M 522.405122,602.266209 l -0.536299,6.129928 M 521.383145,613.947460 l 0.061435,-0.702206 M 520.866224,619.855901 l -10.168825,116.230205 M 527.615787,611.550318 l 0.687460,-7.857698 M 526.375757,625.723924 l -9.652495,110.328520 M 533.234068,616.175356 l 0.967303,-11.056325 M 532.329520,626.514382 l -9.580394,109.504400 M 538.859016,620.724178 l 1.240746,-14.181793 M 538.288271,627.247831 l -9.513280,108.737288 M 544.609434,623.838878 l 1.404308,-16.051319 M 544.247102,627.980354 l -9.446247,107.971102 M 550.368888,626.850306 l 1.573717,-17.987672 M 550.207806,628.691473 l -6.778453,77.478077 M 540.826719,735.917794 l 2.449101,-27.993349 M 557.899954,609.612099 l -1.391807,15.908426 M 546.852583,735.884131 l 9.309638,-106.409651 M 563.894938,609.931408 l -1.315198,15.032785 M 552.878447,735.850469 l 9.226599,-105.460505 M 569.903256,610.098296 l -1.339182,15.306915 M 558.904311,735.816806 l 9.137049,-104.436948 M 575.880317,610.622457 l -0.116149,1.327585 M 574.485130,626.569513 l 0.972075,-11.110865 M 573.968884,632.470227 l -9.039606,103.323165 M 580.358119,628.283223 l 0.967928,-11.063468 M 579.880889,633.737987 l -5.465476,62.470676 M 570.952226,735.793070 l 3.279916,-37.489613 M 587.255909,618.283395 l -1.053995,12.047214 M 580.399920,696.647717 l 5.366787,-61.342654 M 580.209079,698.829034 l -3.233906,36.963715 M 592.051020,632.317313 l 1.184903,-13.543502 M 591.601607,637.454122 l -8.603487,98.338307 M 597.930866,633.952647 l 1.323004,-15.122006 M 597.423257,639.754645 l -8.402189,96.037463 M 603.853672,635.096940 l 1.418520,-16.213753 M 603.322309,641.170444 l -8.278295,94.621343 M 609.813091,635.822748 l 1.454759,-16.627974 M 609.230136,642.485952 l -8.163175,93.305513 M 615.815552,636.056579 l 1.426044,-16.299754 M 615.103929,644.190469 l -8.014021,91.600676 M 621.697450,637.668466 l 1.496737,-17.107777 M 620.955886,646.144575 l -7.842990,89.645788 M 627.281327,642.686736 l 1.832321,-20.943522 M 626.785949,648.348929 l -7.647950,87.416463 M 633.023620,645.894300 l 2.008963,-22.962547 M 632.905019,647.249918 l -7.741916,88.490506 M 631.188207,735.715454 l 9.738051,-111.306430 M 646.805376,626.052675 l -9.592065,109.637809 M 651.959979,635.977574 l 0.724232,-8.278010 M 651.634576,639.696946 l -8.396162,95.968569 M 658.071432,634.965626 l 0.489685,-5.597128 M 657.446639,642.107035 l -8.163597,93.310336 M 664.112686,634.756057 l 0.351568,-4.018437 M 663.284322,644.224291 l -7.951418,90.885128 M 670.166125,634.407212 l 0.041373,-0.472901 M 669.126874,646.285900 l -7.727745,88.328525 M 667.464498,734.129230 l 7.504928,-85.781720 M 680.804150,650.498581 l -7.278189,83.190078 M 679.573748,733.404426 l 7.064191,-80.744075 M 692.471728,654.822120 l -6.855265,78.356042 M 691.648688,733.071783 l 6.650704,-76.017894 M 704.125411,659.304468 l -6.444497,73.660935 M 703.713140,732.859023 l 6.238290,-71.303977 M 715.762756,663.973567 l -6.017389,68.779076 M 715.776292,732.661131 l 5.787709,-66.153822 M 727.310876,669.662505 l -5.506344,62.937803 M 727.832772,732.539485 l 4.714915,-53.891727 M 737.499824,690.886864 l -3.638811,41.591797 M 739.906509,732.220605 l 2.551831,-29.167562 M 750.512171,679.839609 l -0.521771,5.963866 M 745.959215,731.880133 l 1.433414,-16.383999 M 756.342429,682.041733 l -1.491183,17.044303 M 759.772752,711.675246 l 2.396231,-27.389048 M 767.998658,686.494993 l -3.257814,37.236983 M 770.112678,731.173913 l 3.739390,-42.741418 M 779.705477,690.369995 l -3.591063,41.046037 M 782.133602,731.458678 l 3.448414,-39.415547 M 791.461620,693.681229 l -3.310009,37.833571 M 794.160177,731.678857 l 3.223399,-36.843615 M 803.367070,695.285865 l -3.302235,37.744719 M 807.875544,712.596057 l 0.868174,-9.923277 M 807.206785,720.239998 l -0.904282,10.335988 M 820.289547,708.387906 l 1.056531,-12.076208 M 818.808614,725.315046 l -0.890427,10.177626 M 826.194689,709.734111 l 0.989546,-11.310559 M 825.308539,719.862846 l -1.383685,15.815590 M 832.335527,708.386281 l 0.732998,-8.378203 M 831.388150,719.214859 l -1.453538,16.614011 M 838.504161,706.720761 l 0.465194,-5.317189 M 837.476866,718.462790 l -1.522196,17.398784 M 844.596692,705.925090 l 0.273758,-3.129068 M 843.568590,717.676351 l -1.593862,18.217928 M 847.994785,735.926983 l 1.665528,-19.037072 M 855.745914,716.173452 l -1.731071,19.786235 M 860.034901,735.992392 l 1.763173,-20.153163 M 867.781162,716.294503 l -1.721206,19.673471 M 872.085869,735.933757 l 1.615791,-18.468579 M 879.573320,719.194080 l -1.461538,16.705461 M 884.137694,735.865325 l 1.322402,-15.115127 M 891.382399,721.900249 l -1.216321,13.902613 M 896.203992,735.631463 l 1.124991,-12.858710 M 903.283312,723.556749 l -1.041405,11.903314 M 908.280972,735.275507 l 0.945028,-10.801716 M 915.154999,725.547298 l -0.806700,9.220618 M 920.415982,734.256265 l 0.668016,-7.635459 M 927.012998,727.694313 l -0.466372,5.330659"
       id="path14" />
  </g>
  <g
     inkscape:label="fill-8d8d8d"
     inkscape:groupmode="layer"
     id="fill-8d8d8d">
    <path
       style="stroke:#8d8d8d"
       d="M 57.777194,552.808152 l 0.496453,9.472880 M 65.072165,558.253237 l -0.295198,-5.632721 M 65.297811,562.558817 l 0.707361,13.497247 M 73.614293,587.495483 l -1.434098,-27.364214 M 79.624185,568.419811 l 1.577478,30.100065 M 88.742131,608.649320 l -1.627946,-31.063066 M 89.145806,616.351903 l 0.040840,0.779274 M 96.234509,617.861142 l -1.641897,-31.329254 M 96.347007,620.007730 l 2.923242,55.778777 M 103.307782,619.075988 l -1.281713,-24.456536 M 103.502842,622.797954 l 3.403395,64.940648 M 114.203649,693.230249 l -4.796338,-91.519589 M 116.740487,607.884751 l 0.312512,5.963084 M 121.461914,697.974943 l -4.163283,-79.440166 M 124.453985,621.315784 l 4.230510,80.722934 M 129.672671,720.894252 l -0.160236,-3.057494 M 131.717248,626.155851 l 4.179633,79.752140 M 136.780146,722.761697 l -0.310777,-5.929978 M 138.898709,629.435032 l 4.214684,80.420962 M 143.857306,724.050705 l -0.474307,-9.050309 M 146.067398,632.470509 l 4.850511,92.553255 M 157.971894,725.870562 l -4.682767,-89.352521 M 160.457850,639.554174 l 4.568029,87.163186 M 172.079864,727.564158 l -4.344538,-82.898729 M 174.810980,645.925691 l 4.312677,82.290788 M 186.164953,728.821144 l -4.320382,-82.437802 M 188.873172,646.745774 l 4.333077,82.680036 M 200.247544,730.030476 l -4.342495,-82.859733 M 202.972112,648.267070 l 4.306605,82.174923 M 214.308447,730.825973 l -4.261117,-81.306954 M 217.089686,650.143906 l 4.248491,81.066046 M 228.367907,731.593932 l -4.258058,-81.248594 M 228.827710,606.616238 l 1.307476,24.948123 M 235.393747,731.903685 l -4.265070,-81.382388 M 235.499404,600.168472 l 1.916805,36.574813 M 242.415229,732.130292 l -4.272139,-81.517271 M 242.345358,597.045804 l 1.829930,34.917140 M 249.436712,732.356898 l -4.263316,-81.348909 M 252.259087,652.459768 l 4.199107,80.123737 M 263.479677,732.810111 l -4.113955,-78.498931 M 264.722258,622.768709 l 5.778563,110.261551 M 271.098611,610.685522 l -0.675606,-12.891333 M 271.464697,617.670856 l 6.056023,115.555810 M 277.954903,607.760115 l -0.760506,-14.511322 M 278.307120,614.480808 l 6.233500,118.942263 M 284.786216,604.358062 l -0.744685,-14.209446 M 285.034012,609.086307 l 6.526507,124.533170 M 298.580419,733.815882 l -7.655897,-146.083211 M 297.844489,586.022235 l 7.755830,147.990052 M 312.620218,734.208692 l -7.799193,-148.817460 M 311.857994,585.913329 l 7.782124,148.491768 M 326.660017,734.601503 l -7.808275,-148.990770 M 325.724922,583.007561 l 7.954995,151.790347 M 340.699897,734.995856 l -8.041893,-153.448455 M 339.605858,580.369085 l 8.116467,154.871408 M 354.744752,735.485131 l -8.177299,-156.032168 M 353.561487,579.155828 l 8.205693,156.573941 M 368.789607,735.974406 l -8.198832,-156.443036 M 367.657248,580.616465 l 8.154786,155.602578 M 382.834461,736.463681 l -8.100263,-154.562230 M 381.767215,582.348152 l 8.089674,154.360166 M 388.460693,576.316069 l -0.121052,-2.309813 M 388.775371,582.320476 l 8.099969,154.556609 M 395.487949,576.652840 l -0.124387,-2.373454 M 395.779086,582.208068 l 8.108983,154.728612 M 402.493300,576.571636 l -0.086892,-1.658003 M 402.786422,582.164735 l 8.114377,154.831540 M 417.913529,737.055870 l -8.109406,-154.736692 M 416.872250,583.435836 l 8.054008,153.679629 M 431.938988,737.175059 l -7.990717,-152.471972 M 430.685091,579.498016 l 0.180283,3.439997 M 438.951718,737.234654 l -7.936717,-151.441591 M 438.080620,586.861857 l 7.881279,150.383754 M 445.035165,585.811234 l -0.215276,-4.107704 M 445.133011,587.678235 l 7.837781,149.553770 M 459.979685,737.218398 l -8.180910,-156.101063 M 458.781152,580.597765 l 8.207426,156.607027 M 473.997472,737.191186 l -8.188820,-156.251997 M 472.867221,581.873466 l 0.197352,3.765698 M 481.006365,737.177579 l -7.787415,-148.592732 M 479.929152,582.871877 l 0.228442,4.358938 M 488.015258,737.163973 l -7.717291,-147.254688 M 486.986671,583.786106 l 0.273445,5.217644 M 495.024152,737.150366 l -7.509507,-143.289929 M 494.055741,584.920732 l 0.296965,5.666434 M 502.033045,737.136760 l -7.414453,-141.476189 M 501.159667,586.720453 l 0.264470,5.046387 M 509.041938,737.123153 l -7.421928,-141.618820 M 508.281978,588.870995 l 0.193832,3.698538 M 516.050832,737.109547 l -7.293004,-139.158804 M 515.856810,599.656138 l 7.202915,137.439803 M 530.068550,737.081029 l -7.110670,-135.679658 M 530.063429,603.232056 l 7.012437,133.805271 M 544.083182,736.993625 l -6.914205,-131.930883 M 544.267084,606.751416 l 6.823415,130.198506 M 558.097814,736.906220 l -6.750940,-128.815603 M 558.394539,608.816812 l 6.710591,128.045706 M 572.112446,736.818816 l -6.698892,-127.822467 M 572.430236,609.131340 l 1.047893,19.994994 M 579.119763,736.775114 l -5.614032,-107.122111 M 579.468341,609.675125 l 0.093970,1.793052 M 580.523273,629.804435 l -0.722360,-13.783441 M 580.631335,631.866373 l 5.495744,104.865039 M 593.134395,736.687709 l -6.251425,-119.284301 M 593.924126,618.005431 l 6.217584,118.638576 M 601.905693,636.551540 l -0.955837,-18.238460 M 601.998164,638.315992 l 5.150863,98.284313 M 608.963395,637.469249 l -0.986680,-18.826979 M 609.039589,638.923115 l 5.116754,97.633487 M 621.163659,736.512901 l -6.156556,-117.474080 M 622.053112,619.733411 l 6.117863,116.735787 M 635.176273,736.386985 l -6.064931,-115.725784 M 636.204441,622.254339 l 5.977060,114.049104 M 649.186729,736.219900 l -5.874064,-112.083818 M 650.438827,626.360090 l 0.562978,10.742256 M 656.191957,736.136358 l -5.119935,-97.694179 M 657.554326,628.380643 l 0.357561,6.822680 M 663.197186,736.052815 l -4.945165,-94.359366 M 664.669455,630.394132 l 0.244353,4.662528 M 670.202414,735.969273 l -4.800530,-91.599571 M 672.549213,646.997621 l 4.658428,88.888110 M 684.212870,735.802188 l -4.515377,-86.158520 M 686.845773,652.289715 l 4.372325,83.428931 M 698.223326,735.635104 l -4.229273,-80.699342 M 701.142333,657.581809 l 4.086222,77.969753 M 712.231807,735.430313 l -3.928050,-74.951657 M 715.465783,663.387006 l 3.768938,71.915622 M 726.237636,735.174942 l -3.609826,-68.879587 M 729.919953,671.686480 l 3.320598,63.360778 M 740.243465,734.919572 l -2.318745,-44.244283 M 745.972803,710.490595 l 1.273577,24.301291 M 752.072550,693.129426 l -0.720107,-13.740459 M 758.510277,682.217334 l 1.674066,31.943086 M 768.071428,730.903692 l -2.405419,-45.898133 M 772.799578,687.370923 l 2.393344,45.667721 M 782.173274,732.480430 l -2.245966,-42.855586 M 787.042946,691.648045 l 2.138699,40.808814 M 796.217244,732.952831 l -2.077844,-39.647628 M 801.220322,694.665975 l 2.073976,39.573829 M 809.127537,711.793367 l -0.603113,-11.508080 M 809.609760,720.994730 l 0.279664,5.336311 M 817.419666,736.265365 l -0.414670,-7.912372 M 822.291890,695.481674 l 0.792790,15.127328 M 824.443881,736.544116 l -0.903821,-17.245928 M 829.452295,698.359083 l 0.610258,11.644411 M 831.458923,736.647830 l -0.945409,-18.039486 M 836.557441,700.182098 l 0.406777,7.761765 M 838.468484,736.646971 l -0.986480,-18.823158 M 843.657202,701.902350 l 0.255447,4.874210 M 845.478046,736.646112 l -1.032223,-19.695997 M 850.776760,704.000349 l 0.105035,2.004190 M 852.487607,736.645252 l -1.077967,-20.568835 M 858.378304,715.295192 l 1.118864,21.349201 M 866.505410,736.618348 l -1.109667,-21.173702 M 872.456750,716.425416 l 1.053611,20.104097 M 880.515312,736.440677 l -0.944673,-18.025429 M 886.699328,720.687487 l 0.820934,15.664355 M 894.525101,736.260860 l -0.761798,-14.535980 M 900.821662,722.655158 l 0.699267,13.342818 M 908.516759,735.735092 l -0.633943,-12.096360 M 914.951464,724.765317 l 0.556584,10.620261 M 922.479425,734.656108 l -0.453546,-8.654171 M 929.101298,727.257722 l 0.305215,5.823846"
       id="path17" />
  </g>
  <g
     inkscape:label="fill-afafaf"
     inkscape:groupmode="layer"
     id="fill-afafaf">
    <path
       style="stroke:#afafaf"
       d="M 58.986254,553.193903 l 3.097456,17.566545 M 73.261020,588.079961 l -5.943603,-33.707847 M 77.313052,564.990012 l 6.809719,38.619836 M 96.355679,672.986119 l -7.256908,-41.155971 M 87.592591,577.218012 l 19.967066,113.238859 M 116.804264,696.815481 l -18.974855,-107.611752 M 107.685264,599.028897 l 18.078137,102.526209 M 129.728073,724.039877 l -1.540568,-8.736994 M 116.930665,605.392008 l 17.792750,100.907702 M 138.057651,725.209097 l -2.001860,-11.353113 M 126.373252,612.873413 l 1.026200,5.819871 M 146.338674,726.102951 l -18.763124,-106.410964 M 136.458816,624.001328 l 18.150983,102.939343 M 162.880925,727.778390 l -17.310786,-98.174344 M 154.254037,632.782712 l 16.895363,95.818364 M 179.383971,729.231485 l -16.387315,-92.937080 M 171.648913,639.293628 l 15.969629,90.568267 M 195.853113,730.492305 l -15.434988,-87.536169 M 188.603096,643.305250 l 15.474187,87.758475 M 212.277610,731.499931 l -15.368628,-87.159820 M 205.326846,646.010025 l 15.151092,85.926112 M 228.678266,732.372342 l -14.990024,-85.012651 M 221.983994,648.337074 l 14.888161,84.434954 M 226.550570,628.165251 l -2.879607,-16.331064 M 230.013415,647.804020 l 15.031804,85.249599 M 236.594988,639.059813 l -6.373901,-36.148189 M 237.622699,644.888249 l 15.595585,88.446960 M 243.786681,633.775766 l -6.321725,-35.852284 M 245.147609,641.493974 l 16.243739,92.122824 M 249.631042,620.850622 l -4.368090,-24.772667 M 251.947059,633.985404 l 0.550606,3.122643 M 253.579042,643.240840 l -0.545917,-3.096050 M 253.798377,644.484753 l 15.766036,89.413636 M 277.733698,734.158537 l -19.095025,-108.293267 M 263.183323,605.569096 l 1.772813,10.054124 M 285.900863,734.406667 l -20.273177,-114.974899 M 269.149256,593.333424 l 24.918771,141.321374 M 302.235192,734.902928 l -25.807604,-146.362196 M 283.937269,585.060081 l 26.465089,150.090978 M 318.569522,735.399188 l -26.936520,-152.764596 M 299.606372,581.783653 l 27.130316,153.863666 M 334.903852,735.895449 l -27.545409,-156.217778 M 315.271203,578.482996 l 27.798919,157.655503 M 351.230456,736.347891 l -27.619027,-156.635284 M 331.563658,578.741771 l 27.827133,157.815512 M 367.551125,736.766675 l -27.966403,-158.605350 M 347.657869,577.876253 l 28.053590,159.099814 M 383.871793,737.185459 l -28.073334,-159.211790 M 364.046086,578.678119 l 27.986042,158.716732 M 400.192462,737.604243 l -27.754707,-157.404767 M 380.755206,581.299924 l 27.597590,156.513711 M 388.250976,577.740385 l -0.923016,-5.234683 M 388.864317,581.218815 l 27.648769,156.803961 M 396.411090,577.948526 l -0.846170,-4.798866 M 396.929226,580.887022 l 27.718858,157.201455 M 404.566646,578.130819 l -0.719298,-4.079344 M 404.978372,580.465830 l 27.804711,157.688350 M 412.830636,578.928070 l -0.624590,-3.542224 M 412.971670,579.727916 l 27.946410,158.491965 M 421.184737,580.236367 l -0.578149,-3.278847 M 421.794090,583.692181 l 27.258988,154.593402 M 457.188076,738.351285 l -28.275363,-160.357552 M 437.408833,580.107461 l 27.904237,158.252792 M 473.429759,738.322122 l -27.839928,-157.888080 M 453.590774,579.739479 l 27.955675,158.544512 M 489.663138,738.245860 l -27.992400,-158.752790 M 469.820365,579.641736 l 27.959463,158.565993 M 505.896517,738.169598 l -27.878885,-158.109012 M 486.276201,580.827093 l 1.723095,9.772158 M 514.012047,738.124890 l -25.480272,-144.505802 M 494.937567,583.877979 l 27.188823,154.195480 M 530.240735,738.022028 l -26.714355,-151.504633 M 512.165821,589.443932 l 26.189258,148.526666 M 521.849640,598.293438 l -0.756497,-4.290308 M 522.120766,599.831068 l 24.348657,138.088098 M 528.958114,592.537429 l -0.533785,-3.027246 M 530.160173,599.354647 l 24.423595,138.513088 M 562.698112,737.816304 l -23.542355,-133.515327 M 547.767995,607.073241 l 23.044461,130.691632 M 578.926800,737.713442 l -22.827357,-129.460375 M 564.292710,608.649228 l 22.748434,129.012783 M 595.155489,737.610579 l -22.672053,-128.579601 M 580.719511,609.669918 l 0.425373,2.412412 M 603.269833,737.559148 l -21.465366,-121.736139 M 590.175623,617.228030 l 21.208554,120.279687 M 619.499319,737.460810 l -21.145966,-119.924731 M 606.528255,617.828089 l 21.087026,119.590470 M 635.731245,737.376307 l -20.954358,-118.838070 M 623.054348,619.411887 l 20.792860,117.922169 M 651.963170,737.291804 l -20.575178,-116.687632 M 639.809978,622.297462 l 20.267551,114.942992 M 668.183886,737.143727 l -19.751325,-112.015333 M 657.016877,627.742306 l 1.388499,7.874570 M 676.290244,737.047001 l -16.787463,-95.206434 M 665.555196,630.095354 l 0.974711,5.527861 M 684.396601,736.950274 l -16.213798,-91.953020 M 676.857600,648.124310 l 15.645359,88.729239 M 700.609316,736.756822 l -15.077888,-85.510954 M 694.205255,654.367427 l 14.504031,82.256447 M 716.805401,736.469058 l -13.883708,-78.738422 M 711.659778,661.216614 l 13.241738,75.097628 M 732.997631,736.159427 l -12.592956,-71.418205 M 729.182655,668.453461 l 11.902872,67.504542 M 749.146843,735.605836 l -5.851966,-33.188151 M 747.267296,678.876227 l 0.904060,5.127179 M 762.962469,721.817815 l -7.276254,-41.265685 M 764.380134,683.787628 l 9.206450,52.212372 M 781.709997,736.000000 l -8.680767,-49.231076 M 781.651792,689.599740 l 8.139610,46.162021 M 797.789759,735.052536 l -7.594946,-43.073080 M 798.549360,693.290283 l 7.074791,40.123132 M 810.022499,712.287527 l -2.846490,-16.143246 M 813.843094,733.955196 l 0.377976,2.143606 M 822.446005,736.674563 l -2.705545,-15.343908 M 823.106651,694.351109 l 2.893059,16.407352 M 830.588268,736.781465 l -3.199184,-18.143473 M 831.988664,698.653343 l 1.972211,11.184964 M 838.720903,736.833770 l -3.393584,-19.245970 M 840.424489,700.425123 l 1.347032,7.639397 M 846.853539,736.886075 l -3.589901,-20.359341 M 848.936754,702.630409 l 0.791522,4.488945 M 854.986175,736.938380 l -3.780787,-21.441906 M 859.203297,714.784705 l 3.912173,22.187037 M 871.228705,736.914021 l -3.878054,-21.993539 M 875.736428,716.408425 l 3.605512,20.447875 M 887.455175,736.798579 l -3.055822,-17.330425 M 892.798144,721.029896 l 2.757893,15.640786 M 903.629343,736.386515 l -2.487076,-14.104911 M 909.472144,723.452522 l 2.230506,12.649827 M 919.725778,735.533608 l -1.923757,-10.910170 M 926.158171,725.943355 l 1.475974,8.370664 M 934.881372,729.344924 l -0.182079,-1.032623"
       id="path20" />
  </g>
  <g
     inkscape:label="fill-cfcfcf"
     inkscape:groupmode="layer"
     id="fill-cfcfcf">
    <path
       style="stroke:#cfcfcf"
       d="M 91.776746,718.614757 l 1.716599,5.283149 M 102.238279,724.923503 l -3.168226,-9.750798 M 51.265126,542.155725 l 8.708703,26.802632 M 90.998224,664.441627 l -3.918243,-12.059111 M 107.648494,715.685888 l 3.258134,10.027504 M 76.598932,594.236619 l -15.353259,-47.252472 M 87.178928,626.798498 l 21.691333,66.759058 M 119.574976,726.503282 l -3.692507,-11.364367 M 73.909123,560.069695 l 45.325525,139.497621 M 128.212272,727.197601 l -4.479378,-13.786107 M 87.321502,575.460208 l 42.037519,129.378180 M 136.840653,727.864483 l -5.207009,-16.025524 M 100.879047,591.297496 l 44.589987,137.233870 M 154.079980,729.144590 l -41.564508,-127.922402 M 123.458238,609.012014 l 39.217776,120.699903 M 171.272047,730.279242 l -37.295856,-114.784841 M 145.438002,624.881685 l 34.429857,105.964204 M 188.436601,731.329219 l -32.911872,-101.292327 M 165.030047,633.402712 l 31.975295,98.409838 M 205.574084,732.295881 l -31.579359,-97.191273 M 183.558176,638.649340 l 30.577132,94.106736 M 222.669173,733.132070 l -30.134125,-92.743301 M 201.614276,642.443216 l 29.588763,91.064848 M 239.736905,733.884059 l -29.067756,-89.461353 M 219.522415,645.781712 l 28.748356,88.478342 M 256.804637,734.636049 l -29.514304,-90.835687 M 223.776226,607.096509 l 41.562276,127.915534 M 273.872369,735.388038 l -43.591790,-134.161734 M 237.234049,596.738341 l 45.172185,139.025691 M 290.901211,736.020338 l -46.146337,-142.023821 M 257.117981,606.157704 l 42.277015,130.115274 M 307.888781,736.525616 l -45.767520,-140.857942 M 267.513623,586.375113 l 48.868943,150.403142 M 324.876352,737.030894 l -51.392262,-158.169118 M 282.570143,580.937228 l 50.799994,156.346306 M 341.863922,737.536173 l -51.762774,-159.309437 M 297.993347,576.627882 l 52.364360,161.160929 M 358.851257,738.040725 l -52.779224,-162.437749 M 314.131523,574.518994 l 53.209058,163.760642 M 375.829907,738.518548 l -53.972669,-166.110796 M 330.549020,573.269765 l 53.770211,165.487694 M 392.850399,739.125148 l -53.514028,-164.699242 M 348.004704,575.215750 l 53.403940,164.360428 M 409.910645,739.854100 l -53.225725,-163.811937 M 365.506208,577.302752 l 52.851284,162.659526 M 372.699282,573.552213 l -1.107626,-3.408923 M 374.495521,579.080468 l 52.278140,160.895571 M 435.185924,739.977780 l -54.988985,-169.238693 M 388.792274,571.304264 l 54.805913,168.675257 M 452.010451,739.981261 l -54.622842,-168.111821 M 406.064058,572.684260 l 54.358656,167.298742 M 468.824807,739.953440 l -53.855608,-165.750519 M 423.851687,575.651864 l 53.364543,164.239175 M 485.607652,739.828639 l -52.850171,-162.656101 M 441.669634,578.712781 l 52.329441,161.053458 M 502.390498,739.703839 l -52.557840,-161.756398 M 458.029559,577.286365 l 52.752361,162.355073 M 519.172075,739.575134 l -52.617528,-161.940100 M 475.114583,578.091572 l 52.424489,161.345986 M 535.906068,739.299981 l -52.228355,-160.742348 M 492.350936,579.362526 l 51.922128,159.799878 M 552.640061,739.024828 l -51.010404,-156.993880 M 511.766428,587.340177 l 49.240629,151.547075 M 569.373889,738.749167 l -49.619549,-152.713270 M 528.791999,587.962410 l 48.948629,150.648390 M 586.107368,738.472434 l -47.426435,-145.963559 M 551.800153,606.997138 l 42.673955,131.336929 M 602.840847,738.195700 l -42.382524,-130.439998 M 568.903777,607.859594 l 42.344371,130.322573 M 619.689315,738.272863 l -42.365760,-130.388402 M 588.458405,616.265462 l 39.723695,122.256964 M 636.692672,738.826730 l -39.663541,-122.071827 M 605.409232,616.657655 l 39.784012,122.442600 M 653.693815,739.373779 l -39.647276,-122.021769 M 622.771425,618.315903 l 39.330899,121.048059 M 670.339841,738.827891 l -38.718733,-119.164006 M 640.638115,621.526835 l 37.987116,116.912322 M 686.951992,738.177746 l -36.942109,-113.696121 M 659.384038,627.443763 l 2.876351,8.852499 M 695.321422,738.047659 l -30.984152,-95.359415 M 668.813702,630.576742 l 1.947666,5.994301 M 703.690852,737.917573 l -29.812787,-91.754324 M 683.451158,649.737657 l 28.609124,88.049829 M 720.433484,737.669007 l -27.409232,-84.356942 M 702.597345,656.886474 l 26.210240,80.666825 M 737.181687,737.437590 l -24.941134,-76.760919 M 721.936768,664.630010 l 23.591830,72.608187 M 753.814919,736.852325 l -17.247892,-53.083554 M 751.474027,677.870713 l 19.222301,59.160161 M 779.370588,737.838956 l -18.214079,-56.057171 M 770.669886,685.172406 l 17.156881,52.803449 M 796.153889,737.715557 l -16.057000,-49.418363 M 789.317339,690.786277 l 14.684564,45.194441 M 810.045913,728.693724 l -11.955286,-36.794586 M 812.471839,736.159958 l 0.256854,0.790516 M 812.413763,710.092674 l -4.806852,-14.793970 M 817.112541,724.554025 l 4.244680,13.063783 M 821.398709,711.856949 l -5.909217,-18.186701 M 823.447842,718.163533 l 6.400028,19.697260 M 829.643995,711.344788 l -5.899831,-18.157811 M 831.533315,717.159516 l 6.744689,20.758019 M 833.223499,696.472823 l -0.524781,-1.615111 M 833.549932,697.477480 l 4.075860,12.544209 M 846.708139,737.974277 l -7.091990,-21.826900 M 841.224561,695.209015 l 0.565815,1.741399 M 845.638707,708.794360 l -2.774470,-8.538939 M 847.698983,715.135239 l 7.439290,22.895780 M 850.160612,696.822810 l -0.397292,-1.222740 M 852.026401,702.565117 l 1.762283,5.423748 M 863.555716,738.048702 l -7.723457,-23.770356 M 864.150896,713.991933 l 7.781345,23.948518 M 880.308766,737.832199 l -7.505248,-23.098777 M 882.257101,717.940013 l 6.428190,19.783934 M 897.061815,737.615695 l -5.750193,-17.697274 M 900.141307,721.204854 l 5.242879,16.135923 M 913.673204,736.963205 l -4.744988,-14.603570 M 917.752053,723.628069 l 4.068408,12.521274 M 929.692411,734.488168 l -3.099102,-9.538056 M 936.301534,728.940412 l 0.060659,0.186690"
       id="path23" />
  </g>
</svg>
