<?xml version="1.0" encoding="UTF-8" standalone="no"?>
<!-- Created with Inkscape (http://www.inkscape.org/) -->

<svg
   xmlns:dc="http://purl.org/dc/elements/1.1/"
   xmlns:cc="http://creativecommons.org/ns#"
   xmlns:rdf="http://www.w3.org/1999/02/22-rdf-syntax-ns#"
   xmlns:svg="http://www.w3.org/2000/svg"
   xmlns="http://www.w3.org/2000/svg"
   xmlns:sodipodi="http://sodipodi.sourceforge.net/DTD/sodipodi-0.dtd"
   xmlns:inkscape="http://www.inkscape.org/namespaces/inkscape"
   id="svg2"
   version="1.1"
   inkscape:version="0.48.3.1 r9886"
   width="1500"
   height="1911"
   sodipodi:docname="hantologie-_0000_arbre-02_hatched_1398270552.svg">
  <defs
     id="defs29" />
  <sodipodi:namedview
     pagecolor="#ffffff"
     bordercolor="#666666"
     borderopacity="1"
     objecttolerance="10"
     gridtolerance="10"
     guidetolerance="10"
     inkscape:pageopacity="0"
     inkscape:pageshadow="2"
     inkscape:window-width="640"
     inkscape:window-height="480"
     id="namedview27" />
  <metadata
     id="metadata8">
    <rdf:RDF>
      <cc:Work
         rdf:about="">
        <dc:format>image/svg+xml </dc:format>
        <dc:type
           rdf:resource="http://purl.org/dc/dcmitype/StillImage" />
        <dc:title />
      </cc:Work>
    </rdf:RDF>
  </metadata>
  <g
     inkscape:label="fill-0a0a0a"
     inkscape:groupmode="layer"
     id="fill-0a0a0a">
    <path
       style="stroke:#0a0a0a"
       d="M 399.914601,799.173879 l 0.000000,2.296723 M 404.914601,794.025515 l 0.000000,-3.305381 M 409.914601,783.777266 l 0.000000,5.576909 M 414.914601,785.720410 l 0.000000,-7.969891 M 419.914601,775.790929 l 0.000000,7.088947 M 424.914601,780.167322 l 0.000000,-4.034396 M 424.914601,789.724645 l 0.000000,4.533334 M 424.914601,797.938030 l 0.000000,-2.146073 M 429.914601,770.326650 l 0.000000,5.004313 M 429.914601,793.532325 l 0.000000,-10.125123 M 434.914601,767.462956 l 0.000000,23.461195 M 439.914601,788.804750 l 0.000000,-28.148783 M 444.914601,753.353515 l 0.000000,33.923245 M 444.914601,819.913819 l 0.000000,-3.043499 M 449.914601,601.786379 l 0.000000,6.124769 M 449.914601,616.438809 l 0.000000,-1.376112 M 449.914601,766.812238 l 0.000000,24.947313 M 449.914601,816.095912 l 0.000000,-10.021275 M 449.914601,835.857173 l 0.000000,5.739545 M 454.914601,455.996367 l 0.000000,-4.728560 M 454.914601,571.729427 l 0.000000,0.410643 M 454.914601,606.272051 l 0.000000,-4.088939 M 454.914601,648.902030 l 0.000000,6.333342 M 454.914601,772.114963 l 0.000000,-3.703055 M 454.914601,773.885037 l 0.000000,1.523398 M 454.914601,798.325487 l 0.000000,-3.990643 M 454.914601,810.096450 l 0.000000,9.279784 M 459.914601,504.248782 l 0.000000,-2.357254 M 459.914601,530.105994 l 0.000000,2.731207 M 459.914601,600.078846 l 0.000000,-13.371619 M 459.914601,632.071944 l 0.000000,5.361493 M 459.914601,659.803034 l 0.000000,-3.709238 M 459.914601,768.448423 l 0.000000,4.882837 M 464.914601,606.951793 l 0.000000,-22.915831 M 464.914601,646.077273 l 0.000000,2.710619 M 464.914601,773.085362 l 0.000000,-4.638249 M 464.914601,804.193866 l 0.000000,2.620249 M 469.914601,500.940752 l 0.000000,-2.569819 M 469.914601,507.509237 l 0.000000,1.251111 M 469.914601,527.318988 l 0.000000,-3.099119 M 469.914601,532.016452 l 0.000000,6.303037 M 469.914601,550.949212 l 0.000000,-2.476952 M 469.914601,580.785274 l 0.000000,34.152546 M 469.914601,651.710520 l 0.000000,-6.893010 M 469.914601,768.493241 l 0.000000,4.376069 M 469.914601,806.963515 l 0.000000,-0.726693 M 474.914601,484.063415 l 0.000000,5.804828 M 474.914601,500.027043 l 0.000000,-3.290960 M 474.914601,518.576523 l 0.000000,27.088301 M 474.914601,620.526170 l 0.000000,-39.373813 M 474.914601,642.253439 l 0.000000,10.465700 M 474.914601,674.496676 l 0.000000,-4.487850 M 474.914601,768.688973 l 0.000000,3.762693 M 479.914601,506.987421 l 0.000000,-2.551367 M 479.914601,518.042446 l 0.000000,18.001175 M 479.914601,546.547465 l 0.000000,-6.682374 M 479.914601,579.445048 l 0.000000,23.616402 M 479.914601,614.766733 l 0.000000,-3.403968 M 479.914601,617.159743 l 0.000000,10.896459 M 479.914601,654.512770 l 0.000000,-14.127723 M 479.914601,726.660630 l 0.000000,7.220482 M 479.914601,740.734783 l 0.000000,-2.658090 M 479.914601,803.746098 l 0.000000,3.882539 M 484.914601,495.650335 l 0.000000,-6.967312 M 484.914601,499.850338 l 0.000000,9.248896 M 484.914601,546.935207 l 0.000000,-20.480722 M 484.914601,563.322371 l 0.000000,2.155899 M 484.914601,598.466203 l 0.000000,-16.606352 M 484.914601,619.694970 l 0.000000,9.930420 M 484.914601,657.546199 l 0.000000,-15.494799 M 484.914601,690.836182 l 0.000000,8.188670 M 484.914601,735.088446 l 0.000000,-5.538995 M 484.914601,743.249672 l 0.000000,3.161400 M 484.914601,770.455304 l 0.000000,-2.326308 M 484.914601,802.448772 l 0.000000,9.798043 M 489.914601,484.964480 l 0.000000,-1.928960 M 489.914601,486.869385 l 0.000000,25.338661 M 489.914601,543.931445 l 0.000000,-11.573716 M 489.914601,544.345466 l 0.000000,6.081180 M 489.914601,589.540885 l 0.000000,-9.601178 M 489.914601,621.834673 l 0.000000,9.895447 M 489.914601,662.565143 l 0.000000,-12.932395 M 489.914601,695.815947 l 0.000000,9.259295 M 489.914601,731.216115 l 0.000000,-8.899284 M 489.914601,767.499625 l 0.000000,3.208180 M 489.914601,820.910731 l 0.000000,-17.589328 M 494.914601,483.968298 l 0.000000,31.624965 M 494.914601,523.762006 l 0.000000,-4.525674 M 494.914601,534.905023 l 0.000000,11.934283 M 494.914601,626.674043 l 0.000000,-6.542849 M 494.914601,629.792805 l 0.000000,3.991076 M 494.914601,665.922413 l 0.000000,-9.937156 M 494.914601,699.391935 l 0.000000,11.970999 M 494.914601,730.905009 l 0.000000,-9.224400 M 494.914601,736.284852 l 0.000000,3.471041 M 494.914601,757.817704 l 0.000000,-3.705354 M 494.914601,765.871561 l 0.000000,6.540185 M 494.914601,810.727319 l 0.000000,-7.041449 M 494.914601,819.561653 l 0.000000,18.328796 M 499.914601,519.147778 l 0.000000,-29.398913 M 499.914601,521.277648 l 0.000000,4.536956 M 499.914601,552.638400 l 0.000000,-16.310893 M 499.914601,622.586776 l 0.000000,22.377245 M 499.914601,671.875038 l 0.000000,-10.464681 M 499.914601,701.954365 l 0.000000,4.309012 M 499.914601,714.589759 l 0.000000,-4.853136 M 499.914601,725.069632 l 0.000000,4.867891 M 499.914601,745.255005 l 0.000000,-3.992653 M 499.914601,757.774872 l 0.000000,15.642591 M 499.914601,810.179594 l 0.000000,-6.563790 M 499.914601,824.373334 l 0.000000,15.489646 M 499.914601,860.569528 l 0.000000,-3.591946 M 504.914601,491.681630 l 0.000000,10.766314 M 504.914601,509.756702 l 0.000000,-2.164331 M 504.914601,512.396407 l 0.000000,6.768475 M 504.914601,555.973786 l 0.000000,-7.811516 M 504.914601,627.175762 l 0.000000,21.460305 M 504.914601,681.473697 l 0.000000,-22.290019 M 504.914601,701.460980 l 0.000000,3.945292 M 504.914601,716.489939 l 0.000000,-5.896211 M 504.914601,726.513842 l 0.000000,1.925256 M 504.914601,773.989343 l 0.000000,-23.173760 M 504.914601,803.545738 l 0.000000,6.320417 M 504.914601,856.574417 l 0.000000,-24.291801 M 509.914601,491.423900 l 0.000000,5.918598 M 509.914601,514.831212 l 0.000000,-11.579638 M 509.914601,525.794678 l 0.000000,0.410643 M 509.914601,584.075906 l 0.000000,-1.868162 M 509.914601,632.431750 l 0.000000,56.165119 M 509.914601,718.046240 l 0.000000,-18.635507 M 509.914601,754.713239 l 0.000000,19.727442 M 509.914601,809.724118 l 0.000000,-6.362274 M 514.914601,494.623070 l 0.000000,5.360785 M 514.914601,524.657063 l 0.000000,-18.625742 M 514.914601,536.911896 l 0.000000,1.038418 M 514.914601,647.200676 l 0.000000,-6.555056 M 514.914601,652.124502 l 0.000000,6.175492 M 514.914601,672.562886 l 0.000000,-12.232494 M 514.914601,675.871967 l 0.000000,44.905175 M 514.914601,774.652817 l 0.000000,-15.834116 M 514.914601,803.163817 l 0.000000,6.500450 M 519.914601,524.175112 l 0.000000,-13.081221 M 519.914601,525.820377 l 0.000000,13.112142 M 519.914601,650.855684 l 0.000000,-5.625406 M 519.914601,654.669537 l 0.000000,22.153717 M 519.914601,722.717091 l 0.000000,-41.801956 M 519.914601,764.984941 l 0.000000,9.697498 M 519.914601,809.604417 l 0.000000,-6.638626 M 524.914601,517.402551 l 0.000000,7.074446 M 524.914601,546.321732 l 0.000000,-14.815502 M 524.914601,595.636949 l 0.000000,6.270969 M 524.914601,681.368410 l 0.000000,-25.425852 M 524.914601,685.543488 l 0.000000,40.626268 M 524.914601,773.881266 l 0.000000,-6.154861 M 524.914601,802.767765 l 0.000000,6.806510 M 529.914601,544.368292 l 0.000000,-3.055233 M 529.914601,601.876094 l 0.000000,3.988780 M 529.914601,676.684692 l 0.000000,-27.387589 M 529.914601,680.450837 l 0.000000,5.575053 M 529.914601,733.340737 l 0.000000,-43.285079 M 529.914601,776.481659 l 0.000000,4.938477 M 529.914601,809.575942 l 0.000000,-7.006203 M 534.914601,605.590459 l 0.000000,2.601989 M 534.914601,678.816402 l 0.000000,-43.735456 M 534.914601,685.859909 l 0.000000,4.737367 M 534.914601,742.831271 l 0.000000,-48.565282 M 534.914601,767.274433 l 0.000000,2.526269 M 534.914601,782.031106 l 0.000000,-5.394451 M 534.914601,802.400650 l 0.000000,7.176958 M 539.914601,609.304663 l 0.000000,-0.496792 M 539.914601,651.517879 l 0.000000,7.641770 M 539.914601,672.954456 l 0.000000,-4.512030 M 539.914601,690.932676 l 0.000000,3.934589 M 539.914601,748.920617 l 0.000000,-50.485314 M 539.914601,776.912836 l 0.000000,5.472528 M 539.914601,809.656620 l 0.000000,-7.419657 M 544.914601,654.478076 l 0.000000,6.868816 M 544.914601,698.841609 l 0.000000,-3.035624 M 544.914601,702.525838 l 0.000000,52.651961 M 544.914601,783.001655 l 0.000000,-7.424997 M 544.914601,800.179349 l 0.000000,9.629779 M 549.914601,662.316301 l 0.000000,-0.549900 M 549.914601,700.249880 l 0.000000,2.512630 M 549.914601,760.231028 l 0.000000,-53.614655 M 549.914601,771.779831 l 0.000000,11.760709 M 549.914601,810.462047 l 0.000000,-15.151865 M 554.914601,710.057830 l 0.000000,56.209783 M 554.914601,783.653243 l 0.000000,-16.970030 M 554.914601,790.535026 l 0.000000,21.680929 M 559.914601,701.259611 l 0.000000,-0.733670 M 559.914601,713.366826 l 0.000000,24.850004 M 559.914601,782.203508 l 0.000000,-40.702946 M 559.914601,787.021802 l 0.000000,27.270428 M 564.914601,678.181188 l 0.000000,-2.186467 M 564.914601,705.571336 l 0.000000,1.462239 M 564.914601,724.724748 l 0.000000,-7.155056 M 564.914601,732.534325 l 0.000000,48.816559 M 564.914601,811.076292 l 0.000000,-24.722188 M 569.914601,681.764757 l 0.000000,1.553759 M 569.914601,712.325662 l 0.000000,-2.425900 M 569.914601,722.040129 l 0.000000,11.711157 M 569.914601,780.289875 l 0.000000,-39.296905 M 569.914601,783.964177 l 0.000000,24.849148 M 574.914601,717.378382 l 0.000000,-2.462785 M 574.914601,726.754133 l 0.000000,38.708101 M 574.914601,774.779130 l 0.000000,-5.893443 M 574.914601,777.285543 l 0.000000,27.166617 M 574.914601,809.038637 l 0.000000,-2.988435 M 579.914601,720.229165 l 0.000000,2.021200 M 579.914601,756.510954 l 0.000000,-24.992134 M 579.914601,761.392535 l 0.000000,15.485073 M 579.914601,803.158639 l 0.000000,-22.248261 M 584.914601,725.902383 l 0.000000,0.906051 M 584.914601,760.676567 l 0.000000,-24.393060 M 584.914601,770.507064 l 0.000000,8.559087 M 584.914601,798.312413 l 0.000000,-14.767094 M 589.914601,741.048195 l 0.000000,26.315565 M 589.914601,792.055871 l 0.000000,-9.304649 M 594.914601,745.812882 l 0.000000,25.052165 M 599.914601,671.407334 l 0.000000,-3.091847 M 599.914601,750.749091 l 0.000000,25.722707 M 604.914601,781.948715 l 0.000000,-26.209562 M 609.914601,677.396268 l 0.000000,3.701916 M 609.914601,783.924512 l 0.000000,-23.195295 M 614.914601,675.862065 l 0.000000,10.797109 M 614.914601,783.757667 l 0.000000,-18.038387 M 619.914601,681.294295 l 0.000000,11.644708 M 619.914601,782.046055 l 0.000000,-11.336713 M 624.914601,695.145490 l 0.000000,3.479361 M 624.914601,780.323314 l 0.000000,-4.515511 M 629.914601,781.037851 l 0.000000,6.124098 M 634.914601,793.487018 l 0.000000,-7.071675 M 639.914601,781.060734 l 0.000000,2.540672 M 639.914601,800.884287 l 0.000000,-8.828082 M 644.914601,784.955468 l 0.000000,3.871139 M 644.914601,810.969048 l 0.000000,-12.482247 M 649.914601,791.196316 l 0.000000,1.553249 M 649.914601,827.737674 l 0.000000,-10.536028 M 654.914601,796.824673 l 0.000000,3.086599 M 654.914601,866.480724 l 0.000000,-32.510554 M 659.914601,758.966437 l 0.000000,13.488307 M 659.914601,810.297248 l 0.000000,-6.608583 M 659.914601,877.769239 l 0.000000,20.166470 M 664.914601,784.012788 l 0.000000,-9.606425 M 664.914601,810.707980 l 0.000000,12.725306 M 664.914601,909.579772 l 0.000000,-6.945268 M 669.914601,783.713948 l 0.000000,7.695029 M 669.914601,825.612494 l 0.000000,-7.885199 M 674.914601,824.732823 l 0.000000,12.974849 M 679.914601,847.835599 l 0.000000,-15.406520 M 679.914601,906.100727 l 0.000000,8.628075 M 684.914601,853.214119 l 0.000000,-0.937792 M 684.914601,920.767812 l 0.000000,6.690267 M 689.914601,947.014857 l 0.000000,-26.769124 M 694.914601,935.248864 l 0.000000,9.293238"
       id="path5" />
  </g>
  <g
     inkscape:label="fill-2f2f2f"
     inkscape:groupmode="layer"
     id="fill-2f2f2f">
    <path
       style="stroke:#2f2f2f"
       d="M 403.698435,790.400877 l 0.000000,7.437975 M 410.698435,789.437520 l 0.000000,-8.933978 M 417.698435,775.703075 l 0.000000,9.299110 M 424.698435,781.137749 l 0.000000,-8.478364 M 424.698435,788.543332 l 0.000000,10.219098 M 431.698435,778.064768 l 0.000000,-9.727513 M 431.698435,779.734731 l 0.000000,13.299093 M 438.698435,641.365300 l 0.000000,-4.255227 M 438.698435,761.570639 l 0.000000,28.148821 M 445.698435,440.472997 l 0.000000,-3.703414 M 445.698435,605.281511 l 0.000000,1.713301 M 445.698435,617.167826 l 0.000000,-3.032664 M 445.698435,625.948118 l 0.000000,7.242555 M 445.698435,646.784994 l 0.000000,-8.836622 M 445.698435,648.817271 l 0.000000,10.223169 M 445.698435,787.597353 l 0.000000,-37.048329 M 445.698435,813.494713 l 0.000000,6.815497 M 445.698435,843.630442 l 0.000000,-6.024455 M 452.698435,445.567761 l 0.000000,7.962534 M 452.698435,463.815523 l 0.000000,-3.002722 M 452.698435,522.381284 l 0.000000,6.841663 M 452.698435,538.875503 l 0.000000,-3.111990 M 452.698435,548.355249 l 0.000000,3.240083 M 452.698435,575.873905 l 0.000000,-6.612141 M 452.698435,596.794847 l 0.000000,11.584503 M 452.698435,617.756004 l 0.000000,-3.862702 M 452.698435,628.866749 l 0.000000,32.955889 M 452.698435,778.002640 l 0.000000,-10.716868 M 452.698435,781.657656 l 0.000000,37.759368 M 452.698435,838.445767 l 0.000000,-11.507352 M 459.698435,455.480615 l 0.000000,10.554823 M 459.698435,498.683544 l 0.000000,-25.160218 M 459.698435,499.967732 l 0.000000,5.849068 M 459.698435,534.484741 l 0.000000,-14.769636 M 459.698435,585.349564 l 0.000000,16.331913 M 459.698435,648.449931 l 0.000000,-19.295604 M 459.698435,650.354115 l 0.000000,13.834297 M 459.698435,688.212396 l 0.000000,-13.670535 M 459.698435,767.521796 l 0.000000,7.966803 M 459.698435,807.431001 l 0.000000,-3.343676 M 466.698435,491.731929 l 0.000000,2.154911 M 466.698435,510.304089 l 0.000000,-10.700932 M 466.698435,525.281807 l 0.000000,11.179051 M 466.698435,553.524287 l 0.000000,-4.628302 M 466.698435,579.834574 l 0.000000,33.114489 M 466.698435,651.444381 l 0.000000,-16.675765 M 466.698435,655.834943 l 0.000000,14.641686 M 466.698435,706.904628 l 0.000000,-3.366016 M 466.698435,767.398485 l 0.000000,7.302155 M 466.698435,807.676263 l 0.000000,-3.532068 M 473.698435,479.004430 l 0.000000,22.563643 M 473.698435,508.446794 l 0.000000,-1.821017 M 473.698435,514.462345 l 0.000000,33.032272 M 473.698435,550.934761 l 0.000000,-2.852317 M 473.698435,575.995089 l 0.000000,44.414871 M 473.698435,654.614994 l 0.000000,-17.813860 M 473.698435,664.376662 l 0.000000,11.680644 M 473.698435,700.911477 l 0.000000,-5.413102 M 473.698435,767.275175 l 0.000000,6.879123 M 473.698435,808.067378 l 0.000000,-2.414085 M 480.698435,486.854517 l 0.000000,2.564218 M 480.698435,508.966312 l 0.000000,-15.657166 M 480.698435,516.768780 l 0.000000,31.095222 M 480.698435,607.257689 l 0.000000,-33.789716 M 480.698435,609.116645 l 0.000000,20.014865 M 480.698435,656.857084 l 0.000000,-17.618548 M 480.698435,661.093006 l 0.000000,1.594476 M 480.698435,708.999302 l 0.000000,-37.385440 M 480.698435,719.132536 l 0.000000,25.995227 M 480.698435,773.998948 l 0.000000,-6.875766 M 480.698435,803.474799 l 0.000000,5.139010 M 487.698435,517.347727 l 0.000000,-35.844390 M 487.698435,526.273638 l 0.000000,23.619331 M 487.698435,566.555488 l 0.000000,-4.949805 M 487.698435,574.047410 l 0.000000,31.020802 M 487.698435,631.668199 l 0.000000,-12.473959 M 487.698435,642.465987 l 0.000000,24.345905 M 487.698435,683.343017 l 0.000000,-5.890518 M 487.698435,691.550664 l 0.000000,18.070657 M 487.698435,737.430906 l 0.000000,-14.426428 M 487.698435,742.599447 l 0.000000,12.132227 M 487.698435,773.843598 l 0.000000,-7.040591 M 487.698435,802.951606 l 0.000000,14.883411 M 494.698435,525.421010 l 0.000000,-43.555178 M 494.698435,531.053590 l 0.000000,19.393461 M 494.698435,587.117763 l 0.000000,-12.892062 M 494.698435,619.079541 l 0.000000,16.417219 M 494.698435,667.756954 l 0.000000,-14.817459 M 494.698435,683.599138 l 0.000000,2.910028 M 494.698435,693.529429 l 0.000000,-4.724976 M 494.698435,697.020444 l 0.000000,44.248910 M 494.698435,773.911440 l 0.000000,-25.234743 M 494.698435,802.777410 l 0.000000,8.432090 M 494.698435,838.602378 l 0.000000,-20.083432 M 501.698435,489.614361 l 0.000000,13.797489 M 501.698435,531.839940 l 0.000000,-24.781811 M 501.698435,537.023140 l 0.000000,20.158609 M 501.698435,581.408552 l 0.000000,-6.451188 M 501.698435,585.342790 l 0.000000,3.170898 M 501.698435,651.930061 l 0.000000,-36.664935 M 501.698435,656.653199 l 0.000000,22.390963 M 501.698435,731.002862 l 0.000000,-39.243113 M 501.698435,741.301844 l 0.000000,33.092781 M 501.698435,810.763260 l 0.000000,-8.160045 M 501.698435,825.471820 l 0.000000,19.007603 M 501.698435,860.302710 l 0.000000,-6.735243 M 508.698435,489.414775 l 0.000000,28.096694 M 508.698435,529.958793 l 0.000000,-7.757066 M 508.698435,550.478332 l 0.000000,5.306949 M 508.698435,568.468574 l 0.000000,-3.955005 M 508.698435,578.665543 l 0.000000,15.984223 M 508.698435,692.188734 l 0.000000,-65.019273 M 508.698435,695.749616 l 0.000000,34.417217 M 508.698435,775.986248 l 0.000000,-24.375220 M 508.698435,802.430326 l 0.000000,8.244148 M 508.698435,853.752699 l 0.000000,-8.576376 M 515.698435,493.851119 l 0.000000,37.817502 M 515.698435,540.480990 l 0.000000,-6.724436 M 515.698435,559.491056 l 0.000000,3.348396 M 515.698435,568.939382 l 0.000000,-4.039543 M 515.698435,575.146930 l 0.000000,5.698324 M 515.698435,596.822582 l 0.000000,-8.062271 M 515.698435,617.728757 l 0.000000,1.008611 M 515.698435,630.698040 l 0.000000,-2.177787 M 515.698435,634.710818 l 0.000000,94.656859 M 515.698435,778.149915 l 0.000000,-22.059967 M 515.698435,802.288050 l 0.000000,8.297637 M 522.698435,545.634269 l 0.000000,-34.045711 M 522.698435,559.531707 l 0.000000,3.278105 M 522.698435,581.594937 l 0.000000,-4.007101 M 522.698435,590.732069 l 0.000000,11.008986 M 522.698435,727.928549 l 0.000000,-87.949240 M 522.698435,761.779999 l 0.000000,18.793080 M 522.698435,810.509130 l 0.000000,-8.363356 M 529.698435,512.759552 l 0.000000,5.852935 M 529.698435,524.686410 l 0.000000,-3.469867 M 529.698435,534.413051 l 0.000000,14.505556 M 529.698435,606.971623 l 0.000000,-12.218485 M 529.698435,633.022709 l 0.000000,103.162157 M 529.698435,746.186862 l 0.000000,-4.998478 M 529.698435,749.290545 l 0.000000,3.786528 M 529.698435,783.125332 l 0.000000,-17.545234 M 529.698435,801.992504 l 0.000000,8.534403 M 536.698435,541.398436 l 0.000000,-6.050200 M 536.698435,545.291430 l 0.000000,4.148469 M 536.698435,602.257809 l 0.000000,-4.402999 M 536.698435,603.531114 l 0.000000,6.555534 M 536.698435,681.170612 l 0.000000,-46.851956 M 536.698435,686.968309 l 0.000000,66.477540 M 536.698435,772.126998 l 0.000000,-5.967499 M 536.698435,774.811576 l 0.000000,9.213863 M 536.698435,810.544683 l 0.000000,-8.899647 M 543.698435,599.064511 l 0.000000,6.659699 M 543.698435,612.687425 l 0.000000,-4.456337 M 543.698435,648.045711 l 0.000000,14.732418 M 543.698435,687.227720 l 0.000000,-3.045581 M 543.698435,693.549977 l 0.000000,62.397146 M 543.698435,784.560482 l 0.000000,-16.479435 M 543.698435,800.020865 l 0.000000,10.707808 M 550.698435,606.203651 l 0.000000,-4.202387 M 550.698435,611.573934 l 0.000000,4.018295 M 550.698435,666.196904 l 0.000000,-11.016759 M 550.698435,683.972102 l 0.000000,1.862395 M 550.698435,694.175649 l 0.000000,-3.217339 M 550.698435,699.606072 l 0.000000,62.795193 M 550.698435,785.793347 l 0.000000,-17.535888 M 550.698435,792.581988 l 0.000000,18.934677 M 557.698435,610.318489 l 0.000000,-3.808714 M 557.698435,617.328743 l 0.000000,1.802479 M 557.698435,672.509440 l 0.000000,-14.854638 M 557.698435,689.689150 l 0.000000,2.289312 M 557.698435,701.192572 l 0.000000,-3.715097 M 557.698435,707.270359 l 0.000000,107.353271 M 564.698435,614.005895 l 0.000000,-2.901617 M 564.698435,668.666223 l 0.000000,10.658712 M 564.698435,698.355931 l 0.000000,-2.573846 M 564.698435,704.132762 l 0.000000,4.185351 M 564.698435,812.344737 l 0.000000,-97.370224 M 571.698435,604.124641 l 0.000000,0.923016 M 571.698435,620.605740 l 0.000000,-3.490089 M 571.698435,680.572760 l 0.000000,5.671651 M 571.698435,705.215161 l 0.000000,-2.974531 M 571.698435,710.973524 l 0.000000,4.470129 M 571.698435,810.435414 l 0.000000,-88.361968 M 578.698435,636.964295 l 0.000000,5.137604 M 578.698435,693.163887 l 0.000000,-3.115194 M 578.698435,709.667214 l 0.000000,2.421074 M 578.698435,722.569194 l 0.000000,-4.523350 M 578.698435,729.108701 l 0.000000,78.825765 M 585.698435,700.083364 l 0.000000,-2.064312 M 585.698435,717.156468 l 0.000000,1.846162 M 585.698435,729.251787 l 0.000000,-4.120441 M 585.698435,736.062016 l 0.000000,64.737346 M 592.698435,663.831460 l 0.000000,-3.572808 M 592.698435,705.310690 l 0.000000,1.579136 M 592.698435,725.401299 l 0.000000,-0.050365 M 592.698435,732.356280 l 0.000000,3.296347 M 592.698435,792.187801 l 0.000000,-49.172469 M 599.698435,662.605146 l 0.000000,13.932404 M 599.698435,741.852056 l 0.000000,-2.220730 M 599.698435,749.968648 l 0.000000,40.133541 M 606.698435,681.848705 l 0.000000,-10.943599 M 606.698435,747.143568 l 0.000000,0.505882 M 606.698435,791.279278 l 0.000000,-34.357314 M 613.698435,672.415299 l 0.000000,18.645661 M 613.698435,748.185152 l 0.000000,-1.618022 M 613.698435,763.875279 l 0.000000,23.106794 M 620.698435,700.256278 l 0.000000,-21.350347 M 620.698435,770.828595 l 0.000000,14.927000 M 627.698435,708.179739 l 0.000000,-11.071593 M 627.698435,777.949306 l 0.000000,9.522348 M 634.698435,715.946958 l 0.000000,-5.749297 M 634.698435,785.078823 l 0.000000,10.182838 M 641.698435,787.027241 l 0.000000,-5.877504 M 641.698435,792.523898 l 0.000000,14.050845 M 648.698435,720.753502 l 0.000000,-5.295236 M 648.698435,788.082758 l 0.000000,6.623048 M 648.698435,829.281523 l 0.000000,-26.911912 M 655.698435,748.499482 l 0.000000,9.105863 M 655.698435,803.680720 l 0.000000,-7.342849 M 655.698435,817.969671 l 0.000000,3.139193 M 655.698435,879.804150 l 0.000000,-47.692757 M 662.698435,765.230523 l 0.000000,15.728081 M 662.698435,821.321203 l 0.000000,-15.147252 M 662.698435,893.159134 l 0.000000,20.255350 M 669.698435,793.262195 l 0.000000,-11.317031 M 669.698435,815.893116 l 0.000000,32.923154 M 669.698435,888.852628 l 0.000000,-19.119352 M 676.698435,825.746989 l 0.000000,18.597129 M 676.698435,896.803983 l 0.000000,-18.689433 M 676.698435,899.224614 l 0.000000,11.463027 M 683.698435,858.981289 l 0.000000,-20.136764 M 683.698435,915.504116 l 0.000000,13.823257 M 690.698435,893.635185 l 0.000000,-3.565274 M 690.698435,919.093658 l 0.000000,31.340151 M 697.698435,912.102965 l 0.000000,-6.514299 M 697.698435,942.223404 l 0.000000,8.792777 M 704.698435,922.098582 l 0.000000,-0.224031"
       id="path8" />
  </g>
  <g
     inkscape:label="fill-4f4f4f"
     inkscape:groupmode="layer"
     id="fill-4f4f4f">
    <path
       style="stroke:#4f4f4f"
       d="M 400.402573,794.063156 l 0.000000,9.372661 M 409.402573,791.690134 l 0.000000,-10.629211 M 418.402573,774.836530 l 0.000000,10.245019 M 427.402573,780.438715 l 0.000000,-10.334481 M 427.402573,784.963149 l 0.000000,14.334402 M 436.402573,663.637492 l 0.000000,-29.720880 M 436.402573,764.293913 l 0.000000,26.943171 M 445.402573,440.761507 l 0.000000,-4.380574 M 445.402573,449.551512 l 0.000000,3.987393 M 445.402573,608.310167 l 0.000000,-6.994629 M 445.402573,612.957499 l 0.000000,5.089552 M 445.402573,661.175618 l 0.000000,-40.025336 M 445.402573,667.524836 l 0.000000,8.092114 M 445.402573,788.188310 l 0.000000,-38.366152 M 445.402573,812.746428 l 0.000000,8.065875 M 445.402573,844.493638 l 0.000000,-8.353404 M 454.402573,446.404505 l 0.000000,12.393737 M 454.402573,470.607070 l 0.000000,-8.975285 M 454.402573,520.266904 l 0.000000,19.567529 M 454.402573,575.802161 l 0.000000,-30.450369 M 454.402573,587.333293 l 0.000000,21.124159 M 454.402573,618.043542 l 0.000000,-4.119859 M 454.402573,620.937946 l 0.000000,46.391068 M 454.402573,687.502619 l 0.000000,-18.472170 M 454.402573,766.500000 l 0.000000,10.917176 M 454.402573,836.482559 l 0.000000,-52.072503 M 463.402573,459.830092 l 0.000000,13.451731 M 463.402573,504.972587 l 0.000000,-25.439587 M 463.402573,506.592215 l 0.000000,4.457961 M 463.402573,522.049156 l 0.000000,-3.836705 M 463.402573,526.900063 l 0.000000,6.537504 M 463.402573,552.600887 l 0.000000,-10.797017 M 463.402573,581.248603 l 0.000000,28.748014 M 463.402573,671.263538 l 0.000000,-42.735754 M 463.402573,671.767380 l 0.000000,17.926329 M 463.402573,775.270141 l 0.000000,-8.770141 M 463.402573,801.777544 l 0.000000,6.621703 M 472.402573,503.029012 l 0.000000,-32.205230 M 472.402573,505.750817 l 0.000000,46.378012 M 472.402573,620.134697 l 0.000000,-44.939200 M 472.402573,634.189409 l 0.000000,22.129705 M 472.402573,690.276388 l 0.000000,-29.899815 M 472.402573,693.367865 l 0.000000,8.642884 M 472.402573,716.273310 l 0.000000,-7.681919 M 472.402573,720.535350 l 0.000000,7.632172 M 472.402573,774.688813 l 0.000000,-8.209516 M 472.402573,804.870695 l 0.000000,3.310948 M 481.402573,484.328312 l 0.000000,-8.381225 M 481.402573,485.470072 l 0.000000,26.213308 M 481.402573,549.113918 l 0.000000,-34.448287 M 481.402573,563.328388 l 0.000000,1.174595 M 481.402573,629.832116 l 0.000000,-57.979891 M 481.402573,638.270422 l 0.000000,28.960791 M 481.402573,747.990989 l 0.000000,-79.451833 M 481.402573,766.324141 l 0.000000,7.994732 M 481.402573,809.663125 l 0.000000,-7.866783 M 490.402573,480.009026 l 0.000000,40.258971 M 490.402573,553.024177 l 0.000000,-28.719262 M 490.402573,561.684899 l 0.000000,3.312346 M 490.402573,606.400116 l 0.000000,-33.018654 M 490.402573,618.577943 l 0.000000,15.050234 M 490.402573,671.809521 l 0.000000,-29.116762 M 490.402573,678.036459 l 0.000000,11.295215 M 490.402573,739.643185 l 0.000000,-47.792524 M 490.402573,743.599180 l 0.000000,15.825181 M 490.402573,774.181028 l 0.000000,-8.240739 M 490.402573,802.234811 l 0.000000,34.894223 M 499.402573,556.558914 l 0.000000,-74.162038 M 499.402573,572.187579 l 0.000000,17.597109 M 499.402573,651.317767 l 0.000000,-35.904474 M 499.402573,655.315236 l 0.000000,21.414241 M 499.402573,774.606300 l 0.000000,-88.451568 M 499.402573,802.565013 l 0.000000,8.734367 M 499.402573,841.575935 l 0.000000,-19.104151 M 499.402573,856.128435 l 0.000000,5.837831 M 508.402573,531.749411 l 0.000000,-43.485601 M 508.402573,536.286133 l 0.000000,1.831786 M 508.402573,556.988516 l 0.000000,-8.553112 M 508.402573,561.776806 l 0.000000,11.104956 M 508.402573,598.712234 l 0.000000,-21.529914 M 508.402573,615.339162 l 0.000000,6.192678 M 508.402573,730.429544 l 0.000000,-106.005701 M 508.402573,749.433182 l 0.000000,27.772102 M 508.402573,810.727229 l 0.000000,-8.575702 M 508.402573,842.061760 l 0.000000,12.697227 M 517.402573,550.933352 l 0.000000,-56.121140 M 517.402573,557.156400 l 0.000000,6.125029 M 517.402573,570.060668 l 0.000000,-5.641154 M 517.402573,572.755692 l 0.000000,26.143794 M 517.402573,620.598576 l 0.000000,-2.393722 M 517.402573,628.269596 l 0.000000,101.779217 M 517.402573,745.622926 l 0.000000,-7.298326 M 517.402573,754.636071 l 0.000000,26.083134 M 517.402573,810.412241 l 0.000000,-8.674199 M 526.402573,515.896277 l 0.000000,34.941406 M 526.402573,565.586137 l 0.000000,-9.333763 M 526.402573,578.315987 l 0.000000,4.810657 M 526.402573,605.527521 l 0.000000,-15.990745 M 526.402573,632.485178 l 0.000000,121.012083 M 526.402573,783.089167 l 0.000000,-21.837807 M 526.402573,801.387770 l 0.000000,8.893780 M 535.402573,551.916384 l 0.000000,-25.199630 M 535.402573,573.456870 l 0.000000,2.398169 M 535.402573,610.090178 l 0.000000,-18.051902 M 535.402573,632.242003 l 0.000000,49.067964 M 535.402573,757.562489 l 0.000000,-72.941441 M 535.402573,764.088438 l 0.000000,20.987039 M 535.402573,810.602966 l 0.000000,-9.461477 M 544.402573,583.419070 l 0.000000,2.515105 M 544.402573,613.985366 l 0.000000,-23.296655 M 544.402573,645.937739 l 0.000000,17.381847 M 544.402573,689.136432 l 0.000000,-5.806318 M 544.402573,693.016073 l 0.000000,67.482415 M 544.402573,786.514218 l 0.000000,-19.587562 M 544.402573,798.800477 l 0.000000,12.653223 M 553.402573,618.152300 l 0.000000,-27.699988 M 553.402573,653.922454 l 0.000000,15.089524 M 553.402573,689.078556 l 0.000000,-3.934810 M 553.402573,692.467749 l 0.000000,5.469709 M 553.402573,813.498735 l 0.000000,-112.235943 M 562.402573,595.535907 l 0.000000,6.208554 M 562.402573,622.818191 l 0.000000,-15.852993 M 562.402573,655.255745 l 0.000000,4.463588 M 562.402573,677.975418 l 0.000000,-15.519231 M 562.402573,688.339596 l 0.000000,0.655225 M 562.402573,697.163154 l 0.000000,-4.423258 M 562.402573,701.359908 l 0.000000,5.641596 M 562.402573,814.309478 l 0.000000,-102.252491 M 571.402573,602.041921 l 0.000000,22.466304 M 571.402573,634.464852 l 0.000000,-7.368685 M 571.402573,671.311222 l 0.000000,15.666062 M 571.402573,705.958023 l 0.000000,-10.046304 M 571.402573,710.252068 l 0.000000,5.813482 M 571.402573,811.256947 l 0.000000,-89.851644 M 580.402573,611.368378 l 0.000000,37.853713 M 580.402573,661.596105 l 0.000000,-5.159438 M 580.402573,683.119560 l 0.000000,4.670504 M 580.402573,695.979149 l 0.000000,-5.637135 M 580.402573,710.669072 l 0.000000,4.330385 M 580.402573,725.129596 l 0.000000,-5.985369 M 580.402573,730.170221 l 0.000000,77.482954 M 589.402573,641.000000 l 0.000000,-2.109724 M 589.402573,654.698119 l 0.000000,14.964404 M 589.402573,695.041679 l 0.000000,-1.479224 M 589.402573,700.108026 l 0.000000,4.808459 M 589.402573,724.250371 l 0.000000,-4.074621 M 589.402573,728.039526 l 0.000000,5.841562 M 589.402573,797.515776 l 0.000000,-58.580637 M 598.402573,656.837113 l 0.000000,21.703840 M 598.402573,713.634182 l 0.000000,-3.604051 M 598.402573,729.662692 l 0.000000,3.838592 M 598.402573,742.600446 l 0.000000,-5.365785 M 598.402573,747.700057 l 0.000000,44.591731 M 607.402573,688.066017 l 0.000000,-19.846955 M 607.402573,720.445027 l 0.000000,1.622966 M 607.402573,742.752198 l 0.000000,-3.527622 M 607.402573,746.620517 l 0.000000,4.650032 M 607.402573,793.621070 l 0.000000,-37.156094 M 616.402573,672.608920 l 0.000000,26.735779 M 616.402573,712.704167 l 0.000000,-4.011555 M 616.402573,749.137271 l 0.000000,2.865840 M 616.402573,759.670721 l 0.000000,-3.089428 M 616.402573,765.105916 l 0.000000,22.816523 M 625.402573,710.353149 l 0.000000,-19.907639 M 625.402573,759.703598 l 0.000000,1.358016 M 625.402573,797.137700 l 0.000000,-23.415345 M 634.402573,707.879682 l 0.000000,9.941069 M 634.402573,758.703681 l 0.000000,-2.207666 M 634.402573,764.169800 l 0.000000,5.238217 M 634.402573,780.287412 l 0.000000,-5.514488 M 634.402573,782.101551 l 0.000000,13.577542 M 643.402573,764.696895 l 0.000000,-2.807035 M 643.402573,767.318824 l 0.000000,3.229132 M 643.402573,776.674159 l 0.000000,-0.457822 M 643.402573,780.713840 l 0.000000,10.116223 M 643.402573,813.915116 l 0.000000,-20.154916 M 652.402573,774.586699 l 0.000000,9.516423 M 652.402573,799.656283 l 0.000000,-8.290461 M 652.402573,809.479954 l 0.000000,51.223411 M 661.402573,752.917396 l 0.000000,-4.889677 M 661.402573,758.190559 l 0.000000,21.878627 M 661.402573,796.944379 l 0.000000,-5.492192 M 661.402573,803.049562 l 0.000000,17.208352 M 661.402573,906.281931 l 0.000000,-50.096586 M 661.402573,907.795930 l 0.000000,8.180573 M 670.402573,796.710454 l 0.000000,-14.860245 M 670.402573,815.514259 l 0.000000,36.891580 M 670.402573,903.636896 l 0.000000,-49.655668 M 679.402573,828.691149 l 0.000000,25.351156 M 679.402573,896.516423 l 0.000000,-15.971961 M 679.402573,900.758972 l 0.000000,15.808802 M 688.402573,902.258540 l 0.000000,-35.228348 M 688.402573,903.212854 l 0.000000,9.443874 M 688.402573,947.542415 l 0.000000,-29.224851 M 697.402573,897.328928 l 0.000000,19.251469 M 697.402573,953.226203 l 0.000000,-14.331225 M 706.402573,924.967963 l 0.000000,0.804846 M 706.402573,940.627269 l 0.000000,-2.254538"
       id="path11" />
  </g>
  <g
     inkscape:label="fill-6e6e6e"
     inkscape:groupmode="layer"
     id="fill-6e6e6e">
    <path
       style="stroke:#6e6e6e"
       d="M 400.197202,793.081829 l 0.000000,10.765456 M 411.197202,790.496896 l 0.000000,-11.674903 M 422.197202,772.352779 l 0.000000,11.104006 M 422.197202,799.248818 l 0.000000,-8.763237 M 433.197202,627.903695 l 0.000000,30.886614 M 433.197202,793.371341 l 0.000000,-26.759534 M 444.197202,434.047185 l 0.000000,6.124988 M 444.197202,452.581502 l 0.000000,-5.366719 M 444.197202,599.492265 l 0.000000,9.795127 M 444.197202,688.105083 l 0.000000,-76.173180 M 444.197202,750.286705 l 0.000000,38.464444 M 444.197202,822.433270 l 0.000000,-8.248572 M 444.197202,836.459945 l 0.000000,7.829208 M 455.197202,476.378641 l 0.000000,-30.057801 M 455.197202,496.590749 l 0.000000,44.708964 M 455.197202,576.422713 l 0.000000,-32.918038 M 455.197202,585.619263 l 0.000000,23.767612 M 455.197202,701.467236 l 0.000000,-88.951449 M 455.197202,766.385673 l 0.000000,11.039238 M 455.197202,836.563590 l 0.000000,-51.401050 M 466.197202,463.010534 l 0.000000,53.058628 M 466.197202,555.872137 l 0.000000,-34.951683 M 466.197202,576.070303 l 0.000000,38.705282 M 466.197202,723.469660 l 0.000000,-94.915471 M 466.197202,766.362660 l 0.000000,9.600580 M 466.197202,809.172998 l 0.000000,-6.254406 M 477.197202,473.226173 l 0.000000,35.874458 M 477.197202,514.824548 l 0.000000,-4.166202 M 477.197202,515.502901 l 0.000000,35.027126 M 477.197202,565.199940 l 0.000000,-4.981069 M 477.197202,570.406977 l 0.000000,58.884107 M 477.197202,742.949690 l 0.000000,-108.267970 M 477.197202,766.192349 l 0.000000,9.459834 M 477.197202,809.118111 l 0.000000,-5.703509 M 488.197202,477.606957 l 0.000000,74.309905 M 488.197202,568.289316 l 0.000000,-7.893250 M 488.197202,571.751844 l 0.000000,45.305771 M 488.197202,633.036412 l 0.000000,-15.631857 M 488.197202,640.628421 l 0.000000,32.920255 M 488.197202,757.405708 l 0.000000,-83.447137 M 488.197202,765.822809 l 0.000000,9.722773 M 488.197202,820.595075 l 0.000000,-18.563925 M 499.197202,481.162150 l 0.000000,76.428877 M 499.197202,562.705680 l 0.000000,-2.341905 M 499.197202,569.203341 l 0.000000,21.825510 M 499.197202,677.864696 l 0.000000,-63.979866 M 499.197202,684.359393 l 0.000000,91.157825 M 499.197202,811.851991 l 0.000000,-10.084414 M 499.197202,821.692495 l 0.000000,20.807730 M 499.197202,862.683029 l 0.000000,-7.297745 M 510.197202,488.200344 l 0.000000,51.668727 M 510.197202,557.670029 l 0.000000,-10.035134 M 510.197202,560.414294 l 0.000000,40.195317 M 510.197202,731.570039 l 0.000000,-117.228030 M 510.197202,749.958428 l 0.000000,29.627812 M 510.197202,811.647779 l 0.000000,-10.143773 M 510.197202,847.861825 l 0.000000,5.388176 M 521.197202,602.359668 l 0.000000,-103.507209 M 521.197202,625.640954 l 0.000000,124.622398 M 521.197202,782.694326 l 0.000000,-27.045096 M 521.197202,801.274114 l 0.000000,10.235536 M 532.197202,552.525876 l 0.000000,-38.587617 M 532.197202,553.474124 l 0.000000,55.900497 M 532.197202,757.961962 l 0.000000,-128.729796 M 532.197202,761.432275 l 0.000000,24.169506 M 532.197202,811.526476 l 0.000000,-10.486276 M 543.197202,568.979689 l 0.000000,0.534701 M 543.197202,613.992675 l 0.000000,-33.751530 M 543.197202,637.529481 l 0.000000,41.340011 M 543.197202,688.779940 l 0.000000,-7.171635 M 543.197202,691.594639 l 0.000000,70.778806 M 543.197202,788.206463 l 0.000000,-23.281659 M 543.197202,799.550312 l 0.000000,12.147802 M 554.197202,586.963799 l 0.000000,-4.392378 M 554.197202,589.320121 l 0.000000,29.504576 M 554.197202,670.045591 l 0.000000,-26.373225 M 554.197202,685.017270 l 0.000000,5.863728 M 554.197202,814.523900 l 0.000000,-122.208067 M 565.197202,596.036441 l 0.000000,29.949013 M 565.197202,682.818609 l 0.000000,-27.717803 M 565.197202,683.795184 l 0.000000,16.789516 M 565.197202,711.398855 l 0.000000,-8.158226 M 565.197202,713.764286 l 0.000000,99.973511 M 576.197202,648.303553 l 0.000000,-44.367591 M 576.197202,655.349428 l 0.000000,6.389456 M 576.197202,673.452875 l 0.000000,-7.899937 M 576.197202,674.506633 l 0.000000,37.038214 M 576.197202,723.159788 l 0.000000,-9.168345 M 576.197202,725.253138 l 0.000000,85.980580 M 587.197202,647.795227 l 0.000000,-30.278977 M 587.197202,647.891034 l 0.000000,22.836167 M 587.197202,703.975262 l 0.000000,-16.267008 M 587.197202,711.832542 l 0.000000,1.639694 M 587.197202,722.726996 l 0.000000,-5.640450 M 587.197202,724.746633 l 0.000000,77.275653 M 598.197202,679.621699 l 0.000000,-28.587136 M 598.197202,700.295216 l 0.000000,14.387089 M 598.197202,734.381413 l 0.000000,-5.544835 M 598.197202,735.510919 l 0.000000,7.963332 M 598.197202,793.055848 l 0.000000,-46.629622 M 609.197202,662.642849 l 0.000000,28.921719 M 609.197202,701.307859 l 0.000000,-2.527514 M 609.197202,714.745255 l 0.000000,10.304393 M 609.197202,736.633760 l 0.000000,-1.329928 M 609.197202,740.107373 l 0.000000,13.816935 M 609.197202,792.290825 l 0.000000,-34.987964 M 620.197202,675.153275 l 0.000000,30.992979 M 620.197202,718.383036 l 0.000000,-5.342148 M 620.197202,728.426105 l 0.000000,3.593288 M 620.197202,749.655859 l 0.000000,-1.819689 M 620.197202,752.099101 l 0.000000,4.990541 M 620.197202,764.509935 l 0.000000,-5.184925 M 620.197202,767.785245 l 0.000000,22.131160 M 631.197202,718.859950 l 0.000000,-18.736732 M 631.197202,726.536499 l 0.000000,4.999331 M 631.197202,756.529699 l 0.000000,-5.033458 M 631.197202,758.364142 l 0.000000,35.463754 M 642.197202,708.858652 l 0.000000,-3.331896 M 642.197202,758.548529 l 0.000000,12.281531 M 642.197202,816.068188 l 0.000000,-44.386533 M 653.197202,726.336710 l 0.000000,7.253818 M 653.197202,759.579324 l 0.000000,-15.909602 M 653.197202,774.676065 l 0.000000,29.199138 M 653.197202,870.441417 l 0.000000,-64.158140 M 664.197202,762.456064 l 0.000000,25.045400 M 664.197202,842.847337 l 0.000000,-48.853253 M 664.197202,859.862883 l 0.000000,31.421320 M 664.197202,922.359292 l 0.000000,-27.500843 M 675.197202,796.981477 l 0.000000,12.542176 M 675.197202,847.325817 l 0.000000,-27.624078 M 675.197202,851.156876 l 0.000000,58.866414 M 686.197202,913.118612 l 0.000000,-65.924933 M 686.197202,918.087201 l 0.000000,25.757762 M 697.197202,917.527045 l 0.000000,-23.313507 M 697.197202,936.174511 l 0.000000,18.631741 M 708.197202,944.328522 l 0.000000,-15.591324"
       id="path14" />
  </g>
  <g
     inkscape:label="fill-8e8e8e"
     inkscape:groupmode="layer"
     id="fill-8e8e8e">
    <path
       style="stroke:#8e8e8e"
       d="M 398.737348,794.303329 l 0.000000,11.661835 M 411.737348,790.552672 l 0.000000,-12.707121 M 424.737348,770.244867 l 0.000000,12.425915 M 424.737348,800.031562 l 0.000000,-13.682561 M 437.737348,440.158307 l 0.000000,2.304007 M 437.737348,676.044728 l 0.000000,-69.290009 M 437.737348,760.563694 l 0.000000,30.973592 M 437.737348,829.991606 l 0.000000,-8.172924 M 450.737348,439.826702 l 0.000000,25.550326 M 450.737348,700.147580 l 0.000000,-186.744013 M 450.737348,748.138191 l 0.000000,71.284635 M 450.737348,846.164512 l 0.000000,-20.182694 M 463.737348,458.584071 l 0.000000,103.600750 M 463.737348,615.084273 l 0.000000,-49.636992 M 463.737348,617.439347 l 0.000000,105.383741 M 463.737348,776.410200 l 0.000000,-10.419944 M 463.737348,800.917265 l 0.000000,8.499778 M 476.737348,553.057656 l 0.000000,-81.185356 M 476.737348,558.381778 l 0.000000,8.551501 M 476.737348,629.574264 l 0.000000,-61.160179 M 476.737348,632.671330 l 0.000000,111.027337 M 476.737348,775.473098 l 0.000000,-9.606543 M 476.737348,802.984859 l 0.000000,6.242119 M 489.737348,555.190201 l 0.000000,-77.912457 M 489.737348,559.323339 l 0.000000,75.211917 M 489.737348,760.082394 l 0.000000,-119.694067 M 489.737348,765.401505 l 0.000000,9.717391 M 489.737348,838.495529 l 0.000000,-37.072924 M 502.737348,482.220145 l 0.000000,22.477966 M 502.737348,565.616085 l 0.000000,-59.701216 M 502.737348,566.234023 l 0.000000,27.919731 M 502.737348,776.255744 l 0.000000,-163.717952 M 502.737348,801.700973 l 0.000000,10.313792 M 502.737348,861.301370 l 0.000000,-36.303280 M 515.737348,491.982357 l 0.000000,109.154551 M 515.737348,784.049784 l 0.000000,-168.594990 M 515.737348,801.236781 l 0.000000,10.129134 M 528.737348,608.236437 l 0.000000,-100.830226 M 528.737348,626.283965 l 0.000000,159.171255 M 528.737348,811.376553 l 0.000000,-10.783685 M 541.737348,564.523905 l 0.000000,49.465564 M 541.737348,788.805426 l 0.000000,-152.898587 M 541.737348,799.607780 l 0.000000,12.451335 M 554.737348,619.687145 l 0.000000,-38.152886 M 554.737348,641.644088 l 0.000000,29.700499 M 554.737348,681.415346 l 0.000000,-1.280421 M 554.737348,684.877842 l 0.000000,130.920740 M 567.737348,629.691946 l 0.000000,-37.752162 M 567.737348,653.624439 l 0.000000,160.139585 M 580.737348,809.146218 l 0.000000,-202.955189 M 593.737348,633.958750 l 0.000000,42.525158 M 593.737348,687.578394 l 0.000000,-0.580334 M 593.737348,692.778766 l 0.000000,21.043982 M 593.737348,721.015328 l 0.000000,-3.288508 M 593.737348,722.919135 l 0.000000,71.577780 M 606.737348,689.962569 l 0.000000,-33.899384 M 606.737348,695.017184 l 0.000000,5.602333 M 606.737348,724.203104 l 0.000000,-16.738948 M 606.737348,732.281584 l 0.000000,2.496757 M 606.737348,797.339583 l 0.000000,-60.859418 M 619.737348,673.145607 l 0.000000,34.977152 M 619.737348,719.741520 l 0.000000,-9.679959 M 619.737348,724.638834 l 0.000000,12.187698 M 619.737348,791.848804 l 0.000000,-46.696250 M 632.737348,688.158567 l 0.000000,5.798809 M 632.737348,735.534942 l 0.000000,-34.340531 M 632.737348,741.771375 l 0.000000,55.675256 M 645.737348,718.124145 l 0.000000,-12.342344 M 645.737348,731.585237 l 0.000000,8.065968 M 645.737348,750.917815 l 0.000000,-6.424354 M 645.737348,759.956586 l 0.000000,75.066244 M 658.737348,918.418953 l 0.000000,-177.073749 M 671.737348,778.547819 l 0.000000,127.386157 M 684.737348,940.361654 l 0.000000,-103.055195 M 697.737348,893.901157 l 0.000000,25.524223 M 697.737348,960.057427 l 0.000000,-23.638258 M 710.737348,934.063851 l 0.000000,16.367371"
       id="path17" />
  </g>
  <g
     inkscape:label="fill-aeaeae"
     inkscape:groupmode="layer"
     id="fill-aeaeae">
    <path
       style="stroke:#aeaeae"
       d="M 405.970128,783.626416 l 0.000000,13.883685 M 420.970128,785.059998 l 0.000000,-12.996768 M 420.970128,790.569134 l 0.000000,9.777197 M 435.970128,440.628844 l 0.000000,-2.554921 M 435.970128,608.685334 l 0.000000,64.674231 M 435.970128,792.827880 l 0.000000,-30.215786 M 435.970128,824.121692 l 0.000000,5.426177 M 450.970128,467.823543 l 0.000000,-28.636510 M 450.970128,509.832710 l 0.000000,194.146783 M 450.970128,820.479818 l 0.000000,-73.146479 M 450.970128,824.635796 l 0.000000,23.696267 M 465.970128,727.845232 l 0.000000,-267.551025 M 465.970128,765.338508 l 0.000000,11.433174 M 465.970128,810.237882 l 0.000000,-8.581275 M 480.970128,473.117519 l 0.000000,158.155246 M 480.970128,750.432233 l 0.000000,-115.712115 M 480.970128,765.095174 l 0.000000,11.055960 M 480.970128,810.485817 l 0.000000,-9.903270 M 495.970128,478.827810 l 0.000000,86.317202 M 495.970128,776.137204 l 0.000000,-208.293029 M 495.970128,801.000489 l 0.000000,12.018227 M 495.970128,840.966498 l 0.000000,-23.204839 M 495.970128,858.371604 l 0.000000,5.183185 M 510.970128,603.122297 l 0.000000,-115.703664 M 510.970128,613.003106 l 0.000000,169.142790 M 510.970128,812.602793 l 0.000000,-11.850836 M 510.970128,848.146686 l 0.000000,5.702880 M 525.970128,607.375203 l 0.000000,-105.399709 M 525.970128,623.654069 l 0.000000,161.708220 M 525.970128,812.557671 l 0.000000,-12.313254 M 540.970128,542.927024 l 0.000000,71.262894 M 540.970128,789.176336 l 0.000000,-154.761518 M 540.970128,799.524076 l 0.000000,13.221948 M 555.970128,620.928002 l 0.000000,-39.867013 M 555.970128,641.354603 l 0.000000,32.610655 M 555.970128,818.427899 l 0.000000,-143.551287 M 570.970128,593.889980 l 0.000000,51.803570 M 570.970128,813.634816 l 0.000000,-161.149541 M 585.970128,612.815134 l 0.000000,192.262262 M 600.970128,685.303187 l 0.000000,-41.822679 M 600.970128,686.919823 l 0.000000,35.358376 M 600.970128,794.284989 l 0.000000,-69.705881 M 615.970128,666.296258 l 0.000000,67.307445 M 615.970128,738.567582 l 0.000000,-3.241980 M 615.970128,739.524868 l 0.000000,53.134765 M 630.970128,692.541103 l 0.000000,-9.077890 M 630.970128,697.101737 l 0.000000,103.987546 M 645.970128,720.395653 l 0.000000,-16.110576 M 645.970128,730.041479 l 0.000000,112.145116 M 660.970128,922.703575 l 0.000000,-180.813776 M 675.970128,793.684307 l 0.000000,119.072278 M 690.970128,956.595162 l 0.000000,-87.733711 M 705.970128,917.780794 l 0.000000,25.803277"
       id="path20" />
  </g>
  <g
     inkscape:label="fill-cfcfcf"
     inkscape:groupmode="layer"
     id="fill-cfcfcf">
    <path
       style="stroke:#cfcfcf"
       d="M 387.352575,808.676261 l 0.000000,2.574954 M 404.352575,801.077374 l 0.000000,-16.455896 M 421.352575,770.664947 l 0.000000,14.940445 M 421.352575,801.768583 l 0.000000,-13.087574 M 438.352575,429.291063 l 0.000000,5.725185 M 438.352575,446.729094 l 0.000000,-8.253077 M 438.352575,600.857606 l 0.000000,81.382591 M 438.352575,792.610007 l 0.000000,-35.659428 M 438.352575,818.516309 l 0.000000,16.627173 M 455.352575,713.543210 l 0.000000,-270.203356 M 455.352575,765.000000 l 0.000000,74.530685 M 472.352575,740.068237 l 0.000000,-274.107328 M 472.352575,764.880685 l 0.000000,12.249018 M 472.352575,810.353443 l 0.000000,-7.408154 M 489.352575,475.227133 l 0.000000,160.659546 M 489.352575,761.822534 l 0.000000,-124.107837 M 489.352575,763.887279 l 0.000000,13.013494 M 489.352575,839.176538 l 0.000000,-39.238175 M 506.352575,482.754401 l 0.000000,296.469233 M 506.352575,812.832300 l 0.000000,-12.750187 M 506.352575,828.099219 l 0.000000,31.872346 M 523.352575,606.929365 l 0.000000,-109.182687 M 523.352575,619.968786 l 0.000000,165.681369 M 523.352575,793.353199 l 0.000000,-5.096322 M 523.352575,799.302945 l 0.000000,13.267886 M 540.352575,614.920103 l 0.000000,-82.317583 M 540.352575,632.216981 l 0.000000,158.044218 M 540.352575,813.173333 l 0.000000,-14.587252 M 557.352575,580.392707 l 0.000000,42.515313 M 557.352575,819.107466 l 0.000000,-181.078555 M 574.352575,595.622175 l 0.000000,218.763413 M 591.352575,801.209484 l 0.000000,-181.039742 M 608.352575,651.228906 l 0.000000,152.438229 M 625.352575,800.706232 l 0.000000,-125.275039 M 642.352575,696.173181 l 0.000000,21.294531 M 642.352575,838.487000 l 0.000000,-120.939326 M 659.352575,727.337355 l 0.000000,196.145711 M 676.352575,914.817313 l 0.000000,-124.498335 M 693.352575,874.451514 l 0.000000,89.159566 M 710.352575,952.085262 l 0.000000,-24.055846"
       id="path23" />
  </g>
  <g
     inkscape:label="stroke-000000"
     inkscape:groupmode="layer"
     id="stroke-000000">
    <path
       style="fill:none;stroke:#000000"
       d="m 560.24995,818.1562 c 2.88113,-1.13614 7.35372,-2.36514 9.90625,-2.71875 2.55254,-0.35361 6.20204,-1.59721 8.125,-2.78125 5.0355,-3.10057 15.71875,-13.29847 15.71875,-15 0,-1.78143 2.13906,-2.65625 6.46875,-2.65625 3.00821,0 3.54767,0.48763 6,5.5 1.95405,3.99394 3.23512,5.5 4.71875,5.5 1.65871,0 1.90992,-0.4233 1.34375,-2.25 -1.642,-5.29781 -1.6115,-6.45115 0.25,-8.75 l 1.9375,-2.375 4.09375,3.5 c 2.2484,1.92456 5.36819,4.09214 6.90625,4.8125 1.53806,0.72036 3.45625,1.62974 4.28125,2.03125 0.825,0.4015 1.95,2.05953 2.5,3.6875 0.55,1.62797 1.90432,4.28696 3,5.90625 1.09568,1.61928 2.50993,6.0875 3.15625,9.9375 1.75539,10.45648 2.83839,14.66835 4.625,18.09375 0.88746,1.70149 1.90452,5.52649 2.28125,8.5 0.37674,2.97351 1.75889,7.97907 3.0625,11.125 2.11359,5.10058 2.375,7.25059 2.375,19.90625 0,9.43456 0.50018,15.89897 1.46875,19.28125 0.80136,2.79834 2.37447,9.13811 3.5,14.0625 1.12553,4.92438 2.42473,9.33098 2.90625,9.8125 0.48152,0.48152 2.7334,1.13349 5,1.4375 3.81917,0.51226 4.137,0.36344 4.1875,-1.84375 0.03,-1.30992 0.81897,-5.49556 1.78125,-9.3125 l 1.75,-6.9375 4.34375,7.4375 c 3.73644,6.42178 4.43406,8.54455 5.09375,15.5 0.77097,8.12875 3.55094,16.11861 11,31.6875 1.77628,3.7125 3.83823,6.75 4.59375,6.75 0.75552,0 1.375,-0.45 1.375,-1 0,-0.55 0.70943,-1 1.5625,-1 1.8622,0 4.4375,-5.7556 4.4375,-9.90625 0,-1.63927 -1.09017,-6.49035 -2.40625,-10.78125 -1.31609,-4.29089 -3.35353,-11.59579 -4.5625,-16.21875 -1.20896,-4.62295 -2.44517,-9.12295 -2.71875,-10 -0.27358,-0.87704 1.80456,0.88125 4.59375,3.90625 l 5.0625,5.5 -0.1875,6.5 c -0.16215,5.7072 0.22986,7.20133 3.125,12.25 4.37378,7.62719 6.71834,7.78156 7.59375,0.5 0.53616,-4.4597 0.0178,-7.0564 -3.34375,-17.25 -18.94473,-57.4484 -19.80467,-60.53339 -22.65625,-80.875 -0.83731,-5.97286 -1.7419,-11.21933 -2.03125,-11.6875 -0.28935,-0.46817 -1.39949,-5.94728 -2.46875,-12.15625 -2.47411,-14.36669 -3.61094,-19.62416 -4.875,-22.9375 -0.55672,-1.45925 -1.50093,-5.50925 -2.09375,-9 -2.03407,-11.97742 -6.54776,-29.69994 -8.5625,-33.5625 -0.80071,-1.53508 -1.46575,-3.86082 -1.46875,-5.1875 -0.003,-1.32668 -1.10411,-4.32766 -2.46875,-6.65625 -1.69172,-2.8867 -2.89003,-7.18559 -3.75,-13.5 -0.99929,-7.33732 -1.63879,-9.35461 -3.03125,-9.71875 -2.00501,-0.52432 -2.28298,-2.27952 -0.625,-3.9375 0.83816,-0.83816 -1.41374,-4.93985 -8.75,-15.875 -5.43324,-8.09858 -10.55,-15.93497 -11.375,-17.4375 -0.825,-1.50253 -4.50676,-5.5931 -8.1875,-9.09375 C 621.45068,671.87336 618.60646,668.24928 614,660 c -1.68918,-3.025 -5.07102,-8.2 -7.53125,-11.5 -4.88964,-6.55865 -10.56833,-17.06842 -13.625,-25.21875 C 590.36287,616.66623 582.19757,604.11414 575.75,597 c -5.02826,-5.54809 -20.55996,-19 -21.9375,-19 -0.40895,0 -2.3212,-2.3625 -4.25,-5.25 -1.92879,-2.8875 -4.20096,-6.15656 -5.03125,-7.28125 -1.07739,-1.45942 -1.6364,-5.53456 -1.96875,-14.21875 -0.25612,-6.6924 -0.97594,-14.11084 -1.59375,-16.46875 -3.47022,-13.24445 -7.37859,-23.84886 -10.625,-28.75 C 526.36141,500.01908 510.49903,484 508.53125,484 c -0.66778,0 -1.9721,-0.84276 -2.90625,-1.875 -0.93416,-1.03223 -4.26766,-2.6706 -7.40625,-3.625 -3.13859,-0.95441 -8.05281,-2.81163 -10.90625,-4.125 -2.85345,-1.31336 -5.65911,-2.375 -6.21875,-2.375 -1.78828,0 -7.55908,-4.38188 -11.1875,-8.5 -1.93364,-2.1946 -6.53116,-8.58975 -10.21875,-14.1875 -7.40223,-11.23656 -15.35033,-18.97727 -20.46875,-19.9375 -0.91195,-0.17107 -1.79024,-0.24594 -2.5,-0.25 -0.70976,-0.004 -1.24133,0.0851 -1.40625,0.25 -0.59605,0.59606 2.15889,4.93045 7.375,11.625 l 2.71875,3.5 -3.4375,-3.03125 c -7.2449,-6.35517 -8.00601,-6.83774 -9,-5.84375 -0.63734,0.63734 0.14778,2.71277 2.21875,5.9375 7.4927,11.66695 15.60676,26.63883 16.59375,30.625 2.73335,11.03921 3.33427,15.71992 2.28125,17.6875 -0.58352,1.09032 -1.0625,3.34965 -1.0625,5 0,1.65035 -0.4997,4.2642 -1.125,5.8125 -0.62531,1.54831 -1.50635,4.6125 -1.9375,6.8125 -0.43115,2.2 -1.26487,6.025 -1.875,8.5 -0.61013,2.475 -1.58894,6.75 -2.15625,9.5 -0.56731,2.75 -1.71901,6.92572 -2.5625,9.28125 -1.03126,2.8799 -1.19565,4.68151 -0.53125,5.5 0.60142,0.7409 0.66841,3.1753 0.1875,6.21875 -0.43454,2.75 -0.38671,10.175 0.0937,16.5 0.48046,6.325 0.862,14.98495 0.875,19.25 0.0228,7.47557 -0.16669,8.1255 -5.46875,18.28125 -3.025,5.79419 -5.5,11.81183 -5.5,13.34375 0,1.53192 -1.125,6.08233 -2.5,10.125 -7.26809,21.36908 1.30786,52.85191 24.0625,88.3125 3.81445,5.94439 10.26437,16.06939 14.34375,22.5"
       id="path3234"
       inkscape:connector-curvature="0"
       sodipodi:nodetypes="cssssssscccsssssssssssssscccssssssssscccssssssssscsssssssssssssssssssssssscsscccssssssssssssssssssc" />
  </g>
</svg>
