<?xml version="1.0" encoding="UTF-8" standalone="no"?>
<!-- Created with Inkscape (http://www.inkscape.org/) -->

<svg
   xmlns:dc="http://purl.org/dc/elements/1.1/"
   xmlns:cc="http://creativecommons.org/ns#"
   xmlns:rdf="http://www.w3.org/1999/02/22-rdf-syntax-ns#"
   xmlns:svg="http://www.w3.org/2000/svg"
   xmlns="http://www.w3.org/2000/svg"
   xmlns:sodipodi="http://sodipodi.sourceforge.net/DTD/sodipodi-0.dtd"
   xmlns:inkscape="http://www.inkscape.org/namespaces/inkscape"
   id="svg2"
   version="1.1"
   inkscape:version="0.48.3.1 r9886"
   width="1284"
   height="850"
   sodipodi:docname="hantologie-_0010_outil_hatched_1398278283.svg">
  <defs
     id="defs24" />
  <sodipodi:namedview
     pagecolor="#ffffff"
     bordercolor="#666666"
     borderopacity="1"
     objecttolerance="10"
     gridtolerance="10"
     guidetolerance="10"
     inkscape:pageopacity="0"
     inkscape:pageshadow="2"
     inkscape:window-width="640"
     inkscape:window-height="480"
     id="namedview22" />
  <metadata
     id="metadata8">
    <rdf:RDF>
      <cc:Work
         rdf:about="">
        <dc:format>image/svg+xml </dc:format>
        <dc:type
           rdf:resource="http://purl.org/dc/dcmitype/StillImage" />
        <dc:title />
      </cc:Work>
    </rdf:RDF>
  </metadata>
  <g
     inkscape:label="fill-0b0b0b"
     inkscape:groupmode="layer"
     id="fill-0b0b0b">
    <path
       style="stroke:#0b0b0b"
       d="M 173.898120,510.864628 l -1.073586,2.019121 M 184.179957,512.827850 l 0.706535,-1.328799 M 194.113609,504.795641 l -2.020171,3.799389 M 202.267606,510.760747 l 1.563500,-2.940515 M 208.609112,509.484382 l -0.408315,0.767928 M 214.575667,508.913196 l 1.315942,-2.474927 M 277.898444,538.924186 l -2.052963,3.861061 M 280.346344,544.970628 l 1.609959,-3.027892 M 426.444163,334.102228 l -0.791967,1.489474 M 432.462703,333.433273 l 1.167743,-2.196205 M 424.466155,359.122864 l -22.123575,41.608393 M 402.184998,411.677898 l 30.544277,-57.445431 M 439.514286,352.121991 l -36.321222,68.310283 M 432.366803,376.214723 l 13.237953,-24.896968 M 420.587315,398.368718 l -15.409763,28.981549 M 444.826138,363.432394 l 6.559192,-12.336047 M 415.793277,418.035264 l -7.887543,14.834310 M 451.985802,360.617298 l 4.766488,-8.964460 M 416.684798,427.008829 l -5.463351,10.275068 M 391.299784,474.751099 l 0.813334,-1.529659 M 461.616452,353.154952 l -3.397974,6.390660 M 415.037625,440.756985 l 4.459866,-8.387789 M 397.345159,474.031673 l -0.831522,1.563865 M 464.143119,359.053255 l 1.975656,-3.715668 M 423.041716,436.353750 l -3.758540,7.068785 M 402.083077,475.771218 l 0.294727,-0.554302 M 448.374077,399.360781 l -4.401529,8.278073 M 423.880742,445.426045 l 2.969690,-5.585175 M 455.480555,396.645712 l -8.997542,16.921916 M 428.856893,446.717538 l 2.108197,-3.964942 M 459.977552,398.838364 l -9.051061,17.022570 M 434.877365,446.044950 l 0.101868,-0.191585 M 461.936901,405.803637 l -3.892993,7.321655 M 470.661837,495.897141 l 4.978475,-9.363149 M 480.922595,487.249734 l -5.922808,11.139182 M 453.982690,537.916327 l 3.502291,-6.586851 M 486.120918,488.123383 l -6.111597,11.494242 M 464.631031,528.539982 l 2.712193,-5.100893 M 462.732232,532.111105 l -9.546443,17.954249 M 485.128967,500.639245 l 6.191250,-11.644048 M 473.186668,523.099443 l -0.636295,1.196697 M 455.263538,556.807947 l 12.715944,-23.915213 M 496.523316,489.859864 l -6.258357,11.770258 M 460.370771,557.852910 l 12.855962,-24.178547 M 501.726415,490.724530 l -6.294573,11.838371 M 465.711913,558.457957 l 12.762071,-24.001964 M 506.929513,491.589197 l -6.330789,11.906483 M 471.053054,559.063003 l 12.676763,-23.841523 M 512.132967,492.453196 l -6.367360,11.975263 M 476.394196,559.668049 l 12.618917,-23.732730 M 517.342210,493.306308 l -5.633149,10.594413 M 481.735337,560.273095 l 12.561070,-23.623937 M 522.551453,494.159419 l -3.614352,6.797607 M 487.076479,560.878141 l 12.503224,-23.515144 M 527.622266,495.272878 l -1.149578,2.162042 M 492.417621,561.483187 l 12.445377,-23.406351 M 510.146293,538.790676 l -12.387531,23.297558 M 533.551543,505.422076 l 0.408782,-0.768808 M 515.429588,539.504515 l -12.329685,23.188764 M 537.944770,507.809890 l 3.895223,-7.325848 M 520.750970,540.146725 l -12.309925,23.151601 M 542.776418,509.373154 l 6.498283,-12.221492 M 526.077593,540.779075 l -12.295407,23.124297 M 551.920152,502.826563 l 4.672301,-8.787321 M 549.102336,508.126104 l -1.248588,2.348253 M 542.408424,520.715522 l 1.640564,-3.085452 M 531.404217,541.411426 l -12.280889,23.096992 M 557.162097,503.618171 l 6.690562,-12.583117 M 551.028690,515.153433 l -2.005575,3.771937 M 524.464470,565.113464 l 12.266371,-23.069688 M 570.324713,489.513163 l -8.217161,15.454232 M 529.810501,565.709314 l 12.246963,-23.033187 M 577.211832,487.210648 l -10.449895,19.653394 M 535.162970,566.293056 l 12.221117,-22.984578 M 582.608221,487.711788 l -9.074214,17.066115 M 540.515439,566.876797 l 12.195271,-22.935969 M 587.929708,488.353800 l -8.627322,16.225633 M 545.867909,567.460539 l 12.169425,-22.887360 M 593.206685,489.079521 l -9.678992,18.203537 M 551.220378,568.044281 l 12.156169,-22.862428 M 598.453687,489.861619 l -11.248871,21.156050 M 556.572847,568.628023 l 12.150725,-22.852191 M 603.700689,490.643716 l -11.470062,21.572049 M 561.925316,569.211765 l 12.145282,-22.841953 M 608.947691,491.425813 l -11.547984,21.718598 M 567.277786,569.795506 l 12.139839,-22.831716 M 614.198386,492.200964 l -11.598804,21.814177 M 572.630255,570.379248 l 12.134395,-22.821478 M 619.449469,492.975386 l -11.650011,21.910484 M 577.982724,570.962990 l 12.128952,-22.811241 M 624.700552,493.749808 l -11.701218,22.006791 M 583.335193,571.546732 l 12.123509,-22.801004 M 629.951634,494.524230 l -11.752426,22.103098 M 588.687663,572.130473 l 12.118065,-22.790766 M 635.202717,495.298652 l -11.749922,22.098390 M 594.040132,572.714215 l 12.112622,-22.780529 M 640.264059,496.429924 l -11.515052,21.656663 M 599.392601,573.297957 l 12.107179,-22.770292 M 640.775567,506.118190 l -6.600585,12.413894 M 604.837640,573.707600 l 6.421641,-12.077351 M 640.532006,517.226533 l -0.693294,1.303896 M 610.357070,573.977334 l 0.669639,-1.259409 M 946.441358,474.408337 l -14.384937,27.054132 M 933.417111,509.553655 l 18.991912,-35.718592 M 956.880401,476.075898 l -20.715184,38.959594 M 939.383821,519.632451 l 21.861151,-41.114846 M 965.801628,480.598054 l -22.548511,42.407582 M 947.362133,525.927973 l 23.235449,-43.699524 M 975.543436,483.576923 l -22.928844,43.122884 M 959.938838,523.575176 l 20.588122,-38.720625 M 985.521011,486.112378 l -20.170760,37.935682 M 970.576511,524.869166 l 19.938551,-37.498960 M 995.509113,488.628034 l -19.895201,37.417431 M 980.651313,527.221764 l 19.865801,-37.362139 M 1005.580614,490.986841 l -19.916376,37.457254 M 990.620348,529.773282 l 20.168410,-37.931263 M 1016.151352,492.406719 l -20.574896,38.695751 M 1000.532565,532.431657 l 17.985243,-33.825322 M 1022.022543,502.665159 l -16.674349,31.359889 M 1010.058460,535.816599 l 18.779239,-35.318611 M 1036.391513,496.941602 l -21.778152,40.958747 M 1018.961605,540.372763 l 23.482461,-44.164086 M 1048.428840,495.603228 l -25.351098,47.678480 M 1026.983070,546.587127 l 27.178238,-51.114832 M 1061.522537,492.278109 l -0.835404,1.571166 M 1030.813302,550.033780 l 28.045073,-52.745111 M 1065.165809,496.076384 l -30.523358,57.406087 M 1038.471599,556.931162 l 30.781783,-57.892114 M 1076.676843,495.727823 l -1.176640,2.212938 M 1042.310452,560.361603 l 31.774047,-59.758291 M 1080.027298,500.076804 l -34.062961,64.063113 M 1048.306749,570.384754 l 35.293622,-66.377649 M 1091.247445,500.275322 l -1.704550,3.205793 M 1052.682817,572.804838 l 35.274548,-66.341777 M 1093.145195,507.356446 l -35.837972,67.401423 M 1062.085421,576.421657 l 35.352495,-66.488373 M 1100.773389,514.310445 l -33.773547,63.518804 M 1072.086081,578.913696 l 33.959571,-63.868663 M 1115.132695,508.605063 l -28.628926,53.843179 M 1077.335215,579.691783 l 8.958375,-16.848253 M 1122.027453,506.288180 l -29.807369,56.059507 M 1082.912868,579.852016 l 7.470109,-14.049232 M 1127.664155,506.337359 l -30.426099,57.223170 M 1089.113937,578.839773 l 5.302643,-9.972821 M 1132.526594,507.842714 l -4.159271,7.822451 M 1101.732358,565.758247 l 16.795044,-31.586884 M 1098.395632,572.033717 l -2.149145,4.041954 M 1105.909120,568.553173 l 10.472254,-19.695445 M 1117.716608,556.996791 l -7.564368,14.226506 M 1115.347099,572.103460 l 4.950461,-9.310463 M 1123.647761,567.142458 l -2.546076,4.788472"
       id="path5" />
  </g>
  <g
     inkscape:label="fill-2f2f2f"
     inkscape:groupmode="layer"
     id="fill-2f2f2f">
    <path
       style="stroke:#2f2f2f"
       d="M 174.201522,505.049284 l -4.508635,12.387374 M 176.147588,517.245339 l 1.899399,-5.218555 M 186.486847,506.381284 l -3.389587,9.312814 M 189.977355,514.334020 l 4.696423,-12.903317 M 199.651706,505.296785 l -2.924337,8.034551 M 203.446083,512.414645 l 2.625077,-7.212339 M 214.279887,500.191840 l -4.115089,11.306114 M 198.150194,544.507808 l 1.561255,-4.289512 M 220.454027,500.771355 l -3.570515,9.809908 M 223.602980,509.662504 l 3.419880,-9.396043 M 212.223501,540.927368 l -1.502423,4.127873 M 230.371165,508.609896 l 4.516940,-12.410191 M 221.296373,533.542682 l -3.795112,10.426985 M 237.432643,506.751471 l 0.867451,-2.383302 M 229.175270,529.438416 l -0.772619,2.122754 M 235.200601,530.426783 l 0.818718,-2.249410 M 233.556362,534.944293 l -3.233202,8.883150 M 246.545755,516.799056 l 3.468750,-9.530312 M 242.738730,527.258770 l -3.353129,9.212646 M 253.197948,516.065132 l 2.823520,-7.757558 M 249.378772,526.558231 l -0.853492,2.344951 M 260.130780,514.560157 l 5.464277,-15.012978 M 255.942561,526.067196 l -0.710413,1.951845 M 267.260846,512.513288 l 6.866867,-18.866561 M 262.474934,525.662475 l -0.705516,1.938389 M 267.445412,529.549024 l 1.874049,-5.148907 M 264.559290,537.478579 l -1.216270,3.341673 M 269.419160,541.669023 l 8.986783,-24.690984 M 268.558418,544.033892 l -0.782709,2.150476 M 273.907144,546.881215 l 9.370380,-25.744907 M 288.342536,524.763127 l -8.311353,22.835255 M 285.806366,549.274023 l 7.867817,-21.616648 M 295.821881,539.299449 l -4.199366,11.537663 M 315.253191,520.998015 l 1.586894,-4.359955 M 325.216189,511.167732 l -3.399424,9.339841 M 328.649797,519.276795 l 2.368428,-6.507202 M 336.152960,516.204852 l -0.845315,2.322483 M 417.830086,309.341619 l 1.449050,-3.981231 M 407.016977,339.050392 l -9.017976,24.776686 M 424.242638,309.266104 l 2.630701,-7.227791 M 416.194303,331.378723 l -12.305743,33.809752 M 430.704269,309.055744 l 3.181876,-8.742133 M 424.245959,326.799804 l -28.441536,78.142479 M 436.935350,309.478817 l 3.383249,-9.295399 M 431.523446,324.347902 l -35.076397,96.371610 M 367.426632,500.452450 l 1.851261,-5.086298 M 446.551470,300.601572 l -4.652447,12.782493 M 395.291907,441.436063 l 43.091088,-118.391791 M 384.684497,470.579683 l -1.187019,3.261307 M 447.193800,316.379610 l 5.481259,-15.059634 M 445.052245,322.263483 l -45.888292,126.077046 M 389.286635,475.478237 l 1.469881,-4.038464 M 458.546764,302.730423 l -2.062499,5.666669 M 452.276671,319.957362 l 3.530452,-9.699836 M 451.585317,321.856841 l -47.753476,131.201597 M 395.353786,476.351703 l 1.427148,-3.921057 M 464.148015,304.883939 l -1.730301,4.753962 M 409.300903,455.575142 l 52.198515,-143.414242 M 402.714722,473.670526 l -1.129433,3.103092 M 468.215469,311.251529 l 1.200337,-3.297899 M 466.913045,314.829909 l -2.849516,7.828980 M 415.154701,457.034789 l 47.970737,-131.798517 M 408.618979,474.991540 l -0.670434,1.842003 M 473.828153,313.373631 l 0.664893,-1.826780 M 472.117801,318.072785 l -2.170449,5.963260 M 421.267054,457.784065 l 47.136526,-129.506541 M 476.705977,323.009701 l -0.808082,2.220187 M 427.566303,458.019846 l 45.864287,-126.011093 M 478.291155,336.197288 l -45.551409,125.151468 M 440.277316,458.182278 l 42.646522,-117.170355 M 486.948723,347.496468 l -38.773141,106.528330 M 456.664487,448.244549 l 33.455385,-91.917915 M 492.505389,367.315305 l -26.627076,73.157291 M 476.454501,428.957585 l 16.730725,-45.967288 M 474.909886,485.829859 l -4.133638,11.357077 M 452.387732,547.708970 l 7.738998,-21.262722 M 481.040692,486.528435 l -4.651895,12.780975 M 455.095754,557.811567 l 12.885658,-35.403054 M 487.085884,487.462233 l -4.858219,13.347846 M 461.110438,558.829184 l 13.881819,-38.139985 M 493.122912,488.418461 l -4.961782,13.632383 M 479.096415,526.955944 l 3.111380,-8.548447 M 477.939859,530.133555 l -10.695771,29.386390 M 494.123933,503.211004 l 5.020881,-13.794757 M 489.543917,515.794496 l -3.184454,8.749216 M 473.377738,560.210707 l 10.523076,-28.911915 M 505.166717,490.414032 l -5.065329,13.916877 M 494.732554,519.081658 l 1.729562,-4.751931 M 489.654921,533.032339 l -10.143534,27.869130 M 506.078842,505.450815 l 5.109777,-14.038997 M 495.323473,535.000947 l -9.678436,26.591283 M 512.842957,504.409389 l 4.363243,-11.987911 M 509.198838,514.421522 l -0.427008,1.173195 M 491.778688,562.282992 l 9.485415,-26.060965 M 523.215830,493.452981 l -2.888337,7.935640 M 514.457738,517.515640 l 2.489292,-6.839274 M 507.245059,537.332313 l -9.332721,25.641441 M 527.853897,498.252822 l 1.358648,-3.732854 M 524.685639,506.957538 l -4.815400,13.230203 M 504.045988,563.664515 l 9.297568,-25.544857 M 532.390032,503.332721 l -7.044676,19.355087 M 510.179637,564.355277 l 9.262414,-25.448273 M 540.094424,499.707903 l -9.086071,24.963776 M 516.313287,565.046039 l 9.227260,-25.351688 M 547.707261,496.334633 l -9.955412,27.352269 M 522.446937,565.736801 l 9.221448,-25.335720 M 555.317722,492.967888 l -3.948517,10.848462 M 545.028627,521.236945 l 5.099063,-14.009560 M 537.802068,541.091753 l -9.214290,25.316053 M 557.432593,504.700155 l 5.364978,-14.740155 M 555.378938,510.342527 l -0.508201,1.396270 M 552.998694,516.882193 l 0.582879,-1.601448 M 543.935750,541.782426 l -9.204286,25.288568 M 563.127922,506.595193 l 7.009483,-19.258396 M 550.069432,542.473099 l -9.194283,25.261084 M 568.820203,508.498607 l 7.999121,-21.977404 M 567.227083,512.875668 l -0.756824,2.079358 M 547.018836,568.397370 l 9.184279,-25.233599 M 582.985229,487.123344 l -6.180438,16.980614 M 553.162522,569.060559 l 9.172383,-25.200914 M 589.107089,487.846497 l -7.041888,19.347428 M 559.306207,569.723747 l 9.158900,-25.163870 M 595.204954,488.635578 l -8.372026,23.001952 M 565.449893,570.386935 l 9.145417,-25.126827 M 601.302819,489.424658 l -8.590251,23.601520 M 571.593579,571.050123 l 9.131934,-25.089783 M 607.400684,490.213739 l -8.702898,23.911014 M 577.737265,571.713311 l 9.118451,-25.052740 M 613.466067,491.092062 l -8.783063,24.131266 M 583.880951,572.376499 l 9.104969,-25.015696 M 619.521231,491.998461 l -8.812580,24.212364 M 590.024637,573.039687 l 9.068951,-24.916737 M 625.576395,492.904860 l -8.830691,24.262125 M 596.168323,573.702875 l 9.014368,-24.766772 M 631.629862,493.815925 l -8.847105,24.307221 M 602.322227,574.337989 l 8.949567,-24.588734 M 637.627268,494.881013 l -8.745627,24.028412 M 608.543224,574.788767 l 4.908255,-13.485319 M 642.715705,498.443474 l -7.667960,21.067548 M 641.930122,518.144672 l 1.060772,-2.914446 M 783.261225,463.154358 l -0.679628,1.867262 M 931.288287,495.024009 l 4.385993,-12.050416 M 945.232722,474.254814 l -12.638706,34.724558 M 936.229969,516.532500 l 16.296443,-44.774108 M 958.550977,472.748864 l -17.877764,49.118752 M 945.341857,526.583449 l 18.542124,-50.944066 M 944.321979,529.385538 l -0.121173,0.332921 M 949.238492,533.420357 l 19.839966,-54.509858 M 974.724853,480.939981 l -15.800146,43.410545 M 954.850975,535.543014 l 1.799882,-4.945136 M 980.558641,482.454609 l -15.333710,42.129021 M 960.839637,536.632127 l 0.099640,-0.273758 M 986.427274,483.873499 l -15.230727,41.846077 M 977.091909,527.065028 l 15.228261,-41.839304 M 998.213067,486.577950 l -15.239560,41.870346 M 988.812557,529.948466 l 15.311644,-42.068397 M 1010.077611,489.066037 l -15.444522,42.433475 M 1000.453621,533.050557 l 15.707664,-43.156452 M 1021.996176,491.405700 l -15.849931,43.547326 M 1011.691933,537.259204 l 16.288749,-44.752970 M 1034.924367,490.971441 l -17.900436,49.181043 M 1022.100248,543.748244 l 19.780094,-54.345360 M 1048.524067,488.692225 l -21.526720,59.144177 M 1031.784855,552.225658 l 23.238484,-63.847209 M 1027.090959,565.122033 l -0.780617,2.144728 M 1036.496331,556.823811 l 24.925537,-68.482351 M 1033.939309,563.849170 l -2.286581,6.282329 M 1041.207807,561.421964 l 26.504327,-72.820039 M 1040.740685,562.705370 l -3.607603,9.911809 M 1042.708021,574.842987 l 31.169597,-85.637764 M 1079.889789,490.229744 l -31.477188,86.482864 M 1054.244209,578.233223 l 31.350146,-86.133817 M 1091.227354,494.165693 l -31.029204,85.252039 M 1066.214511,580.430742 l 30.804637,-84.635044 M 1102.102112,499.373194 l -29.798397,81.870423 M 1078.523434,581.697907 l 28.754563,-79.002512 M 1112.423590,506.100818 l -27.584535,75.787887 M 1091.561806,580.960927 l 27.630073,-75.913002 M 1125.837491,504.332083 l -26.715498,73.400227 M 1126.708851,519.480866 l 5.157252,-14.169432 M 1117.724017,544.166494 l -11.606696,31.889136 M 1135.125559,513.898978 l 2.219230,-6.097284 M 1118.844507,558.630800 l -5.895317,16.197251 M 1141.897546,512.835923 l 0.742443,-2.039846 M 1122.949266,564.895895 l -3.253884,8.939973 M 1126.431314,572.871873 l 1.386521,-3.809434"
       id="path8" />
  </g>
  <g
     inkscape:label="fill-4e4e4e"
     inkscape:groupmode="layer"
     id="fill-4e4e4e">
    <path
       style="stroke:#4e4e4e"
       d="M 165.842776,504.609031 l -2.106229,9.909028 M 171.124245,518.239544 l 3.338450,-15.706172 M 182.942153,501.118535 l -3.632487,17.089510 M 187.579479,517.779507 l 3.222497,-15.160655 M 198.993885,502.556823 l -2.715102,12.773550 M 204.809896,513.672517 l 3.021605,-14.215532 M 200.929689,531.927455 l -3.056376,14.379117 M 213.289814,512.255515 l 3.117846,-14.668314 M 209.488075,530.141290 l -3.639591,17.122930 M 221.734442,511.004535 l 3.119746,-14.677251 M 217.959618,528.763689 l -3.835887,18.046430 M 230.165475,509.817521 l 3.271096,-15.389297 M 226.384265,527.606716 l -3.969358,18.674363 M 238.457113,509.286304 l 3.577485,-16.830742 M 234.809498,526.446986 l -4.168298,19.610301 M 244.771021,518.059577 l 5.470779,-25.737991 M 243.244264,525.242406 l -4.449954,20.935385 M 252.616112,519.629203 l 5.722700,-26.923185 M 251.734436,523.777162 l -4.817993,22.666873 M 261.155612,517.931890 l 5.711883,-26.872297 M 260.576662,520.655633 l -5.563249,26.173031 M 269.946244,515.053091 l 5.732467,-26.969137 M 268.195573,523.289351 l -5.152405,24.240158 M 284.715978,484.044828 l 0.541650,-2.548263 M 279.549260,508.352325 l -8.478491,39.888164 M 293.566455,480.884486 l 0.176318,-0.829509 M 285.541512,518.638874 l -6.539372,30.765327 M 286.844061,550.988735 l 7.260982,-34.160237 M 302.844739,514.189339 l -8.007871,37.674071 M 309.169337,522.912321 l 2.119055,-9.969368 M 319.786663,511.439602 l -2.256603,10.616483 M 325.930804,521.011568 l 2.205614,-10.376597 M 366.164845,370.203164 l -3.752802,17.655545 M 358.482667,406.344969 l 2.978128,-14.010991 M 351.532631,439.042314 l -0.718417,3.379887 M 334.343804,519.909391 l 1.174509,-5.525632 M 379.550312,345.707367 l -3.833713,18.036202 M 361.521306,430.527171 l 2.960533,-13.928214 M 357.879653,447.659799 l -0.753080,3.542963 M 394.742356,312.712294 l 0.605911,-2.850588 M 394.453447,314.071503 l -2.102306,9.890571 M 387.231591,348.047663 l 3.767869,-17.726429 M 383.713733,364.597883 l -7.573396,35.630025 M 367.093938,442.787873 l 2.726113,-12.825353 M 364.664436,454.217780 l -0.847076,3.985177 M 378.205941,428.987881 l 26.373994,-124.079885 M 376.040727,439.174413 l -2.567706,12.080106 M 370.965623,463.050901 l 0.798076,-3.754653 M 364.582296,493.082093 l -1.807224,8.502319 M 383.825100,441.029694 l 29.721839,-139.830260 M 382.869564,445.525135 l -2.548347,11.989028 M 377.869643,469.047915 l 1.246736,-5.865433 M 372.318605,495.163495 l -1.168066,5.495319 M 387.512550,462.159479 l 34.717116,-163.331187 M 386.701378,465.975743 l -2.029897,9.549915 M 392.560410,476.889040 l 38.070965,-179.109810 M 438.865204,297.519987 l -38.282977,180.107244 M 409.953035,472.018923 l 37.045555,-174.285634 M 409.800594,472.736099 l -1.068410,5.026474 M 418.560326,470.002679 l 36.483130,-171.639631 M 462.692940,300.852928 l -35.427826,166.674818 M 436.172964,464.097478 l 33.943985,-159.693895 M 477.297186,309.101099 l -31.952623,150.325274 M 454.916448,452.872068 l 29.232112,-137.526274 M 490.571499,323.606120 l -25.665874,120.748446 M 475.348547,433.702353 l 21.104590,-99.289287 M 455.136813,528.791086 l -3.306178,15.554343 M 486.577426,419.352505 l 14.548517,-68.445390 M 472.583702,485.187800 l -2.576004,12.119144 M 456.974511,558.623267 l 7.708468,-36.265489 M 480.629453,485.813393 l -3.145627,14.799010 M 464.885489,559.882919 l 8.386014,-39.453095 M 488.556129,486.999188 l -3.233342,15.211677 M 472.861159,560.838214 l 9.194164,-43.255139 M 496.455700,488.312503 l -3.268365,15.376447 M 492.305814,507.836181 l 0.178668,-0.840568 M 490.978852,514.079045 l -10.132418,47.669279 M 501.052218,505.165459 l 3.293742,-15.495836 M 500.138351,509.464864 l -11.306642,53.193569 M 508.897271,506.735261 l 3.338949,-15.708518 M 508.304896,509.522169 l -11.487911,54.046374 M 517.769990,503.470275 l 2.386534,-11.227759 M 516.705680,508.477460 l -11.903421,56.001193 M 526.718735,499.847614 l 1.385496,-6.518245 M 525.686417,504.704288 l -5.873109,27.630803 M 512.797849,565.340236 l 5.829123,-27.423868 M 536.000127,494.659974 l -0.314164,1.478026 M 528.855495,528.272826 l 5.857577,-27.557731 M 526.594532,538.909822 l -5.800831,27.290765 M 537.786969,524.731420 l 5.940219,-27.946533 M 534.562091,539.903276 l -5.772539,27.157662 M 546.581383,521.834831 l 6.159921,-28.980152 M 542.529651,540.896730 l -5.744247,27.024559 M 558.176764,505.760723 l 3.554571,-16.722941 M 557.346341,509.667559 l -0.793466,3.732962 M 544.781255,568.781640 l 5.731509,-26.964628 M 570.572001,485.923593 l -4.792165,22.545364 M 564.394729,514.985375 l 0.814715,-3.832930 M 558.497661,542.728896 l -5.720555,26.913095 M 574.545315,505.708497 l 4.244126,-19.967043 M 566.482559,543.640781 l -5.709601,26.861561 M 582.183117,508.253340 l 4.586079,-21.575804 M 574.467457,544.552665 l -5.698647,26.810028 M 589.264670,513.415127 l 5.447760,-25.629696 M 582.452355,545.464549 l -5.687694,26.758495 M 597.168377,514.708984 l 5.487287,-25.815657 M 590.437252,546.376434 l -5.676740,26.706961 M 605.072084,516.002840 l 5.526760,-26.001363 M 598.454988,547.133830 l -5.698624,26.809916 M 612.988934,517.234865 l 5.553025,-26.124929 M 606.475213,547.879512 l -5.692925,26.783107 M 620.911056,518.442085 l 5.574018,-26.223691 M 614.583151,548.212538 l -5.623447,26.456236 M 628.892870,519.368475 l 5.562343,-26.168765 M 642.534172,493.669071 l -5.564883,26.180714 M 645.720518,517.156368 l 3.279482,-15.428752 M 781.609441,455.017369 l -0.151993,0.715070 M 789.089600,458.303861 l 0.357676,-1.682735 M 788.081810,463.045140 l -0.727722,3.423665 M 796.864211,460.205068 l 0.410581,-1.931633 M 795.924200,464.627474 l -0.407116,1.915329 M 804.638822,462.106274 l 0.463486,-2.180532 M 812.912539,461.659368 l -0.496624,2.336434 M 811.404820,468.752632 l 0.046420,-0.218390 M 820.705882,463.472447 l -0.494227,2.325156 M 828.007396,467.599402 l 0.491830,-2.313877 M 836.292568,467.098604 l -0.489183,2.301424 M 843.605548,471.171615 l 0.477096,-2.244559 M 851.868885,470.773548 l -0.461174,2.169655 M 859.209872,474.714791 l 0.445253,-2.094752 M 867.441366,474.466530 l -0.429332,2.019848 M 874.814197,478.257966 l 0.413411,-1.944945 M 883.013848,478.159512 l -0.397490,1.870041 M 890.411274,481.835233 l 0.394069,-1.853947 M 898.602349,481.777135 l -0.398465,1.874629 M 905.996493,485.468294 l 0.402861,-1.895311 M 914.196360,485.368830 l -0.407257,1.915994 M 921.581712,489.101354 l 0.411653,-1.936676 M 929.883291,488.523370 l -0.617530,2.905248 M 933.155865,511.604995 l 7.234956,-34.037792 M 949.803450,471.762141 l -10.545955,49.614817 M 937.496603,529.661302 l 0.478474,-2.251044 M 958.016018,471.602921 l -13.250940,62.340770 M 952.233494,537.285429 l 13.252373,-62.347514 M 972.859404,478.726027 l -9.900801,46.579608 M 959.685749,540.703204 l 2.061777,-9.699900 M 980.517874,481.173635 l -9.619916,45.258147 M 967.110503,544.250354 l 1.798351,-8.460574 M 988.287489,483.098345 l -9.555008,44.952777 M 974.454124,548.179211 l 1.773322,-8.342824 M 996.096494,484.837738 l -9.568214,45.014909 M 981.692231,552.604469 l 1.974775,-9.290586 M 1003.936270,486.432370 l -9.672296,45.504577 M 988.940779,556.980606 l 2.240181,-10.539222 M 1011.789727,487.962635 l -9.807976,46.142901 M 996.297971,560.845615 l 2.451249,-11.532218 M 1019.729851,489.085160 l -10.171187,47.851672 M 1003.711975,564.443344 l 2.671247,-12.567229 M 1027.830772,489.451198 l -10.898393,51.272907 M 1011.205606,567.666456 l 2.841789,-13.369564 M 1036.190592,488.599215 l -12.192683,57.362065 M 1018.762546,570.591722 l 2.995631,-14.093337 M 1044.741409,486.848657 l -13.933688,65.552846 M 1026.353076,573.358963 l 3.169099,-14.909440 M 1053.210965,485.480401 l -19.178661,90.228504 M 1041.738777,577.930678 l 19.806133,-93.180529 M 1069.766935,484.546437 l -20.254248,95.288744 M 1057.343943,581.469894 l 20.538556,-96.626310 M 1085.848471,485.844510 l -20.631606,97.064073 M 1073.197248,583.841710 l 20.355919,-95.767067 M 1101.154395,490.791548 l -19.891399,93.581674 M 1089.498961,584.103927 l 19.168531,-90.180846 M 1116.023571,497.793321 l -17.382463,81.778057 M 1107.456187,576.577569 l 15.707314,-73.897104 M 1131.098770,503.825839 l -3.323485,15.635769 M 1115.956217,575.065949 l 3.601506,-16.943755 M 1138.563593,507.184482 l -1.532873,7.211600 M 1124.390297,573.864598 l 1.478469,-6.955648 M 1145.652834,512.310100 l -0.449604,2.115219 M 1132.865700,572.468834 l 0.508615,-2.392844"
       id="path11" />
  </g>
  <g
     inkscape:label="fill-6f6f6f"
     inkscape:groupmode="layer"
     id="fill-6f6f6f">
    <path
       style="stroke:#6f6f6f"
       d="M 168.821886,501.866727 l -1.517734,17.347783 M 176.255783,520.160322 l 1.718916,-19.647296 M 187.112523,499.330638 l -1.962786,22.434751 M 192.413543,542.003114 l 3.837189,-43.859276 M 205.389079,496.955477 l -4.682855,53.525274 M 209.748782,550.387263 l 4.778644,-54.620146 M 223.675359,494.469182 l -4.883903,55.823272 M 227.834199,550.196841 l 5.002025,-57.173409 M 242.051035,490.961083 l -5.174092,59.140144 M 245.919686,550.005613 l 5.282074,-60.374380 M 260.302877,488.868411 l -5.348389,61.132367 M 263.982759,550.070585 l 5.573243,-63.702459 M 279.010173,481.569874 l -6.018126,68.787496 M 287.767772,484.733485 l 0.408990,-4.674777 M 285.291311,513.039567 l -3.355854,38.357584 M 297.203451,480.146598 l 0.096037,-1.097711 M 294.143043,515.127218 l -3.255022,37.205068 M 299.930977,552.234255 l 3.674186,-41.996141 M 312.690702,509.653351 l -1.308902,14.960816 M 309.042538,551.352057 l 2.232414,-25.516611 M 321.751340,509.353202 l -1.199077,13.705515 M 318.174077,550.241503 l 2.166332,-24.761287 M 330.759029,509.658266 l -1.051498,12.018675 M 327.314024,549.034850 l 2.132600,-24.375725 M 353.526197,352.691757 l -2.753038,31.467369 M 349.309781,400.885621 l 0.126794,-1.449266 M 347.215789,424.820051 l -0.941098,10.756800 M 338.873100,520.177432 l 0.307960,-3.519997 M 338.501589,524.423817 l -2.039193,23.308083 M 354.080664,449.617591 l 9.852623,-112.615992 M 352.778016,464.506932 l -0.179272,2.049087 M 348.317785,515.487606 l 0.679937,-7.771718 M 374.011486,325.070677 l -12.325069,140.876187 M 356.070250,530.139940 l 2.212023,-25.283543 M 383.820078,316.221374 l -13.035945,149.001531 M 367.389210,504.027051 l 1.032534,-11.801912 M 367.174352,506.482891 l -1.949778,22.286069 M 378.986528,474.732528 l 14.460732,-165.286921 M 377.340485,493.546882 l -0.746278,8.529999 M 387.782245,477.460432 l 15.160814,-173.288898 M 412.321937,300.233895 l -15.590953,178.205404 M 405.746350,478.656618 l 15.850527,-181.172354 M 430.745617,296.177110 l -15.948795,182.295558 M 424.092327,475.487982 l 15.724417,-179.730906 M 448.805868,296.274334 l -15.090502,172.485228 M 443.230945,463.259409 l 14.473399,-165.431709 M 435.705471,549.275976 l -0.324947,3.714157 M 452.770036,457.490517 l 13.682922,-156.396512 M 445.071058,545.490242 l -0.925078,10.573687 M 462.454430,450.060808 l 12.623102,-144.282713 M 455.645881,527.882883 l -2.664043,30.450156 M 472.339688,440.335217 l 11.183281,-127.825482 M 468.279609,486.742131 l -0.701027,8.012774 M 466.887179,502.657679 l 0.141189,-1.613802 M 465.251901,521.348987 l -3.381843,38.654648 M 482.448296,428.056713 l 9.261408,-105.858379 M 477.496997,484.650323 l -1.843358,21.069683 M 470.786832,561.347853 l 3.659175,-41.824559 M 499.422480,337.304326 l -6.416397,73.339756 M 490.405733,440.366218 l 0.438137,-5.007929 M 486.413791,485.994317 l -1.937753,22.148620 M 479.719504,562.510370 l 4.039553,-46.172306 M 495.322160,487.434614 l -6.652178,76.034743 M 497.620460,564.428343 l 6.602944,-75.471994 M 513.119167,490.540732 l -6.548229,74.846598 M 518.313560,534.431973 l 3.701371,-42.306858 M 518.082082,537.077772 l -2.560666,29.268545 M 527.775274,529.547500 l 3.149730,-36.001576 M 527.021430,538.163978 l -2.549536,29.141326 M 537.157145,525.575640 l 2.999734,-34.287112 M 535.960778,539.250183 l -2.538405,29.014106 M 546.383456,523.381847 l 3.005494,-34.352948 M 544.900126,540.336389 l -2.527275,28.886887 M 556.897583,506.468248 l 1.722323,-19.686245 M 556.728161,508.404744 l -0.754499,8.623962 M 555.311020,524.602746 l 0.272643,-3.116329 M 553.839474,541.422595 l -2.516145,28.759668 M 565.079479,516.212168 l 2.773651,-31.702978 M 564.456815,523.329244 l -0.218524,2.497737 M 560.273807,571.141250 l 2.507335,-28.658965 M 576.879988,484.595153 l -1.885417,21.550411 M 569.224285,572.100236 l 2.502923,-28.608535 M 585.823610,485.632504 l -2.232831,25.521370 M 578.174763,573.059223 l 2.498510,-28.558106 M 594.745973,486.912847 l -2.443176,27.925625 M 587.125241,574.018210 l 2.494098,-28.507676 M 603.668336,488.193189 l -2.456723,28.080470 M 596.077346,574.958605 l 2.505957,-28.643222 M 612.587509,489.509991 l -2.462404,28.145409 M 605.049240,575.672802 l 2.504281,-28.624060 M 621.505517,490.840111 l -2.466921,28.197031 M 614.165676,574.734884 l 2.397018,-27.398044 M 630.438194,492.002569 l -2.460203,28.120245 M 636.948168,520.856641 l 2.451678,-28.022813 M 648.453861,492.609393 l -2.232789,25.520892 M 777.875529,459.000827 l 0.412640,-4.716495 M 777.432706,464.062314 l -0.064602,0.738406 M 786.040552,468.937598 l 1.290654,-14.752243 M 783.874198,493.699143 l -0.163844,1.872743 M 795.135046,468.250476 l 1.052324,-12.028117 M 794.992499,469.879803 l -0.175785,2.009235 M 804.082372,469.245498 l 0.958322,-10.953671 M 813.894017,460.361297 l -0.926964,10.595246 M 821.848219,472.707777 l 0.898944,-10.274981 M 831.594127,464.574957 l -0.868838,9.930862 M 839.973442,472.062366 l 0.467649,-5.345248 M 839.725424,474.897224 l -0.103451,1.182445 M 848.848552,473.882814 l 0.440342,-5.033134 M 858.139105,470.954727 l -0.423288,4.838202 M 866.569250,477.861143 l 0.420065,-4.801369 M 875.839526,475.164821 l -0.416843,4.764535 M 884.276117,481.997570 l 0.414531,-4.738108 M 893.543385,479.335636 l -0.413834,4.730147 M 901.982984,486.133997 l 0.413138,-4.722186 M 911.248858,483.487984 l -0.412142,4.710801 M 919.698129,490.175793 l 0.401573,-4.590001 M 917.068957,520.227374 l -0.106065,1.212330 M 928.468859,493.189316 l 0.475956,-5.440202 M 925.890816,522.656475 l -0.276811,3.163959 M 935.390185,517.341619 l 3.421754,-39.110833 M 934.811806,523.952516 l -0.690816,7.896059 M 942.744668,536.542913 l 5.682470,-64.950931 M 957.561492,470.449251 l -6.178756,70.623502 M 961.779522,525.500364 l 4.489015,-51.309679 M 961.530540,528.346248 l -1.508956,17.247446 M 970.710617,526.680910 l 4.238558,-48.446939 M 970.149469,533.094861 l -1.543196,17.638807 M 979.566519,528.720903 l 4.166667,-47.625226 M 978.823661,537.211809 l -1.647105,18.826497 M 988.407151,530.935436 l 4.170761,-47.672019 M 987.531242,540.947125 l -1.764303,20.166080 M 997.223632,533.426009 l 4.229789,-48.346707 M 996.255903,544.487202 l -1.843769,21.074381 M 1006.018004,536.169304 l 4.334758,-49.546506 M 1005.012182,547.665898 l -1.879608,21.484015 M 1014.702465,540.168879 l 4.581285,-52.364327 M 1013.796858,550.520018 l -1.913161,21.867531 M 1023.204753,546.250702 l 5.061586,-57.854191 M 1022.589040,553.288332 l -1.926312,22.017848 M 1031.542590,554.212201 l 5.848904,-66.853275 M 1031.408399,555.746020 l -1.940288,22.177589 M 1038.287200,580.384382 l 8.314155,-95.031228 M 1055.776104,483.748711 l -8.638039,98.733232 M 1056.022499,584.195820 l 8.852135,-101.180362 M 1073.905585,483.054635 l -8.977442,102.612636 M 1073.859724,586.842245 l 9.017043,-103.065272 M 1091.790177,485.159655 l -8.958480,102.395899 M 1091.903093,587.132433 l 8.739735,-99.895623 M 1109.425789,490.110518 l -8.373950,95.714691 M 1110.864825,576.925680 l 7.255945,-82.935826 M 1126.721113,498.950903 l -2.338732,26.731829 M 1120.044202,575.268340 l 1.353271,-15.467954 M 1135.283489,504.345912 l -1.036527,11.847556 M 1129.218408,573.670111 l 0.492412,-5.628294 M 1143.792218,510.354114 l -0.411624,4.704886"
       id="path14" />
  </g>
  <g
     inkscape:label="fill-a0a0a0"
     inkscape:groupmode="layer"
     id="fill-a0a0a0">
    <path
       style="stroke:#a0a0a0"
       d="M 149.931158,512.754557 l 0.697015,5.676730 M 165.367359,548.211722 l -5.069603,-41.288600 M 170.484261,499.624945 l 6.541402,53.275444 M 188.282380,554.318393 l -6.874127,-55.985268 M 192.332246,497.041304 l 7.327829,59.680376 M 210.861991,557.693371 l -7.608702,-61.967905 M 214.161124,494.302053 l 7.723996,62.906898 M 232.758944,555.508544 l -7.708935,-62.784234 M 235.879865,490.665803 l 7.696637,62.684076 M 254.523568,552.245982 l -8.074687,-65.763049 M 250.950197,432.882612 l 1.194320,9.726954 M 265.638949,552.512893 l -8.384263,-68.284342 M 262.010891,432.704137 l 1.661926,13.535298 M 276.780455,552.992581 l -8.695151,-70.816320 M 273.090878,432.682791 l 2.032012,16.549412 M 287.920719,553.462146 l -8.994035,-73.250536 M 284.203736,432.929156 l 2.344248,19.092368 M 290.835189,486.938005 l -1.000101,-8.145166 M 294.063260,513.228533 l 4.957658,40.376887 M 298.004168,455.064051 l -2.667106,-21.721837 M 300.788969,477.744434 l 0.576843,4.698013 M 310.014549,552.880756 l -5.585220,-45.487971 M 306.507286,434.055795 l 2.992156,24.369158 M 320.943498,551.629306 l -6.249942,-50.901692 M 317.706241,435.003365 l 3.308250,26.943532 M 326.087444,503.262784 l -0.509312,-4.148011 M 326.414907,505.929757 l 5.436931,44.280246 M 332.550652,465.640784 l -3.626125,-29.532418 M 336.437972,497.300465 l 0.439259,3.577474 M 342.732241,548.563174 l -5.361919,-43.669328 M 340.161612,437.366486 l 3.959713,32.249274 M 347.685288,498.641906 l -0.404450,-3.293978 M 348.314661,503.767738 l 3.836221,31.243515 M 355.097088,468.745572 l -11.541480,-93.997813 M 358.056642,492.849208 l 0.495951,4.039198 M 362.744539,531.029067 l -3.521839,-28.683077 M 351.971607,353.029973 l 14.016160,114.152466 M 373.564883,528.893092 l -4.736398,-38.574865 M 361.271851,338.513784 l 16.920572,137.807000 M 383.760005,521.665103 l -3.540217,-28.832755 M 370.913943,326.781721 l 18.763756,152.818532 M 400.875262,480.536485 l -20.058909,-163.366701 M 390.967123,309.580570 l 20.985976,170.917062 M 420.814476,552.667752 l -0.625255,-5.092297 M 401.328154,303.703791 l 21.622436,176.100607 M 432.363557,556.466867 l -1.674569,-13.638267 M 411.859035,299.210335 l 21.759134,177.213928 M 443.746227,558.910672 l -2.409792,-19.626177 M 422.567327,296.161778 l 21.290729,173.399075 M 455.119563,561.278464 l -3.804105,-30.981948 M 433.453519,294.562097 l 20.769689,169.155539 M 459.117543,503.578797 l -0.619697,-5.047024 M 461.438217,522.479171 l 5.018177,40.869770 M 464.449574,456.744110 l -19.928430,-162.304041 M 467.987293,485.556519 l 2.602550,21.196067 M 477.694299,564.613736 l -5.572116,-45.381245 M 455.821770,296.215684 l 18.593950,151.435567 M 482.084625,510.109471 l -3.206846,-26.117661 M 482.773215,515.717585 l 6.130756,49.931001 M 483.310427,429.832230 l -15.914982,-129.617125 M 484.441818,439.046668 l 0.319241,2.600013 M 500.119941,566.734737 l -9.968730,-81.188790 M 479.358673,307.387173 l 13.178449,107.329851 M 494.689510,432.246824 l -0.719888,-5.863013 M 494.826320,433.361053 l 1.011472,8.237778 M 511.340290,567.856540 l -9.862707,-80.325301 M 492.065693,320.616948 l 8.953162,72.917649 M 522.560590,568.977951 l -9.756636,-79.461420 M 524.138040,491.564657 l 4.741226,38.614184 M 533.772051,570.027377 l -4.031164,-32.831192 M 535.251487,491.815818 l 4.234786,34.489561 M 544.983512,571.076803 l -3.981840,-32.429480 M 545.940617,488.611196 l 4.585226,37.343672 M 556.194974,572.126229 l -3.938668,-32.077874 M 556.708414,486.047266 l 3.816641,31.084050 M 561.683546,526.566463 l -0.671930,-5.472427 M 563.508962,541.433286 l 3.897473,31.742369 M 571.009230,512.257467 l -3.543929,-28.862987 M 572.507972,524.463737 l 0.212742,1.732646 M 578.621636,574.255540 l -3.874290,-31.553562 M 578.562502,483.513331 l 3.272421,26.651732 M 589.837963,575.344592 l -3.852233,-31.373922 M 589.820856,484.944669 l 4.107468,33.452639 M 601.049871,576.397649 l -3.837967,-31.257729 M 601.106621,486.599243 l 4.017658,32.721198 M 612.134041,576.410370 l -3.716635,-30.269561 M 612.393558,488.263371 l 3.941075,32.097479 M 620.773424,556.511903 l -1.230897,-10.024855 M 623.680495,489.927498 l 3.868844,31.509209 M 638.662698,521.687147 l -3.725459,-30.341428 M 646.066216,491.723367 l 3.124687,25.448537 M 702.909510,503.371843 l -0.323892,-2.637886 M 713.327124,497.955905 l 0.814597,6.634361 M 725.190731,504.316626 l -0.892303,-7.267224 M 735.291491,496.320115 l 0.910602,7.416256 M 746.800782,499.795170 l -0.508134,-4.138419 M 757.293805,494.993387 l 0.519838,4.233744 M 768.812875,498.548087 l -0.518409,-4.222099 M 775.407943,462.000000 l 0.527427,4.295551 M 779.903618,498.614337 l -0.654622,-5.331468 M 780.385223,502.536696 l 0.263824,2.148673 M 787.647492,471.422532 l -2.301171,-18.741531 M 789.701945,488.154707 l 1.221485,9.948193 M 799.288296,475.968670 l -2.568319,-20.917282 M 808.128170,457.703064 l 1.695125,13.805682 M 810.894705,480.234686 l -0.685452,-5.582562 M 819.538846,460.374963 l 1.642938,13.380654 M 822.445536,484.048055 l -0.575999,-4.691132 M 830.950638,463.055953 l 1.609154,13.105510 M 833.926834,487.295126 l -0.389395,-3.171371 M 842.365006,465.757924 l 1.581495,12.880246 M 855.341212,481.180041 l -1.561838,-12.720147 M 865.193743,471.161864 l 1.542180,12.560049 M 878.133972,486.290969 l -1.525860,-12.427135 M 888.022480,476.565805 l 1.513616,12.327412 M 900.938219,491.495463 l -1.501371,-12.227689 M 903.510960,512.448754 l 1.378399,11.226163 M 912.359418,494.253065 l -1.508202,-12.283319 M 914.860751,514.624790 l 1.701905,13.860903 M 923.817044,497.307336 l -1.551459,-12.635621 M 926.218316,516.864132 l 2.280047,18.569494 M 940.476816,542.729695 l -7.420775,-60.437362 M 943.081103,473.679310 l 9.415753,76.685151 M 964.575160,558.473757 l -10.937265,-89.076872 M 965.103329,472.514751 l 6.798512,55.369437 M 976.485986,565.219049 l -4.166916,-33.936807 M 976.853816,477.954184 l 6.455705,52.577494 M 988.276140,570.981553 l -4.257679,-34.676012 M 988.308905,480.987796 l 6.424729,52.325218 M 999.950155,575.798174 l -4.276928,-34.832784 M 999.715035,483.622672 l 6.531909,53.198131 M 1011.415400,578.914502 l -4.143398,-33.745267 M 1011.075406,485.884873 l 7.014460,57.128193 M 1022.862921,581.886478 l -4.046351,-32.954887 M 1022.318001,487.187858 l 11.963023,97.431000 M 1045.623777,586.737572 l -12.245980,-99.735502 M 1044.194530,484.836696 l 12.730878,103.684680 M 1068.175301,589.883800 l -13.163232,-107.205924 M 1065.976107,481.712205 l 13.358326,108.794831 M 1090.424977,590.571668 l -13.347059,-108.703076 M 1088.316920,483.142323 l 13.120802,106.860355 M 1111.040380,577.949458 l -11.339642,-92.353971 M 1111.586360,582.396109 l 0.527226,4.293909 M 1121.868670,575.878203 l -10.595654,-86.294676 M 1123.048885,495.229681 l 3.741071,30.468576 M 1132.696164,573.800459 l -5.223130,-42.538979 M 1135.045188,502.671126 l 1.714024,13.959607 M 1143.018284,567.606786 l -0.044249,-0.360378 M 1147.295258,512.179342 l 0.696784,5.674851 M 1151.449385,546.011996 l -0.183762,-1.496623"
       id="path17" />
  </g>
  <g
     inkscape:label="fill-d5d5d5"
     inkscape:groupmode="layer"
     id="fill-d5d5d5">
    <path
       style="stroke:#d5d5d5"
       d="M 123.387486,524.071155 l 10.399078,30.201116 M 149.612445,560.303770 l -17.023225,-49.439037 M 143.938617,503.895584 l 19.921904,57.857410 M 178.088031,563.142488 l -22.852067,-66.367220 M 166.577657,489.783738 l 25.768302,74.836582 M 206.588969,566.054830 l -27.593722,-80.137987 M 191.927209,483.543793 l 28.907131,83.952404 M 236.388626,572.738928 l -31.681914,-92.010958 M 202.151914,433.378101 l 11.440048,33.224312 M 251.986920,578.109467 l -34.076391,-98.965025 M 212.705374,424.097378 l 13.765981,39.979313 M 266.519289,580.384336 l -35.255654,-102.389853 M 225.654011,421.772757 l 14.224823,41.311887 M 279.124021,577.060942 l -35.807920,-103.993749 M 239.551719,422.204435 l 13.822925,40.144688 M 289.974854,568.643854 l -30.756260,-89.322665 M 253.584588,423.028653 l 13.471321,39.123556 M 272.111512,476.834745 l -0.513611,-1.491635 M 272.817675,478.885592 l 28.450409,82.625987 M 282.358651,466.664402 l -14.732972,-42.787659 M 286.017787,477.291306 l 26.547713,77.100158 M 296.649316,468.237313 l -14.924350,-43.343459 M 299.031565,475.155866 l 26.665650,77.442670 M 311.674876,471.944511 l -15.841656,-46.007509 M 312.005370,472.904335 l 26.849415,77.976364 M 351.358600,547.264219 l -41.331623,-120.035749 M 324.192328,428.437442 l 25.237552,73.295174 M 360.341698,533.422834 l -10.844148,-31.493693 M 337.571226,427.362386 l 15.153533,44.009055 M 359.276799,490.399948 l -5.896576,-17.124899 M 359.401816,490.763025 l 13.818174,40.130891 M 365.550247,468.689170 l -26.441601,-76.791985 M 366.952988,472.763025 l 4.944125,14.358781 M 385.246742,525.891943 l -12.922512,-37.529700 M 390.532175,541.241956 l 4.234037,12.296535 M 397.586268,521.798334 l -53.133022,-154.309500 M 402.663623,536.544045 l 7.299225,21.198489 M 411.276433,521.627265 l -59.012113,-171.383622 M 414.748525,531.710953 l 9.832574,28.555869 M 440.082220,565.355148 l -78.727481,-228.641205 M 371.075177,325.013950 l 85.772202,249.100563 M 438.463716,480.794283 l -56.931053,-165.339785 M 440.044927,485.386453 l 31.633473,91.870278 M 448.630453,470.390435 l -55.983180,-162.586960 M 456.907228,494.427936 l 29.257763,84.970713 M 459.586538,462.279020 l -55.222219,-160.376969 M 466.770619,483.143106 l 33.362562,96.891916 M 470.651086,454.482605 l -53.956664,-156.701531 M 479.476046,480.112151 l 34.851764,101.216873 M 481.738127,446.751516 l -52.025595,-151.093299 M 493.474015,480.835008 l 34.908123,101.380550 M 495.165992,445.818673 l -51.675673,-150.077052 M 509.479782,487.388936 l 15.693842,45.578226 M 542.896204,584.437274 l -16.869190,-48.991686 M 458.277201,298.755649 l 40.943824,118.909499 M 537.522231,528.899928 l -13.237393,-38.444180 M 540.401634,537.262320 l 16.715304,48.544768 M 503.658974,390.623692 l -29.026177,-84.298139 M 504.304214,392.497605 l 2.359631,6.852865 M 551.136269,528.507770 l -13.312546,-38.662440 M 554.761908,539.037388 l 16.412156,47.664361 M 505.605451,356.346477 l -9.758063,-28.339473 M 550.420276,486.498178 l 14.375927,41.750724 M 585.178984,587.444797 l -16.067373,-46.663040 M 562.996568,483.092187 l 9.552417,27.742235 M 576.510260,522.338797 l -3.518721,-10.219109 M 577.247467,524.479803 l 0.089591,0.260192 M 598.361726,585.800064 l -14.900412,-43.273939 M 576.456549,482.252615 l 15.080352,43.796523 M 609.606144,578.526029 l -11.837956,-34.379922 M 609.712012,578.833493 l 1.090838,3.168024 M 604.681121,524.292528 l -13.901407,-40.372616 M 611.887128,545.220292 l 9.123937,26.497838 M 619.207870,526.551075 l -13.950266,-40.514515 M 619.757444,488.216959 l 13.512708,39.243754 M 645.048187,521.736414 l -10.826042,-31.441110 M 648.029898,490.465738 l 3.919482,11.383001 M 708.335600,505.885433 l -2.763623,-8.026143 M 718.718260,496.108671 l 3.343950,9.711535 M 735.776461,505.719089 l -3.608094,-10.478665 M 745.622303,494.383295 l 3.870543,11.240872 M 763.209638,505.530428 l -4.109524,-11.934923 M 772.584113,492.825685 l 4.497846,13.062693 M 778.521316,470.138380 l -3.230910,-9.383245 M 785.294087,489.807934 l 5.627542,16.343569 M 794.643795,477.031262 l -8.709511,-25.294257 M 800.777746,454.915355 l 9.785856,28.420190 M 821.343422,474.712220 l -5.602354,-16.270417 M 822.384858,477.736770 l 3.935061,11.428248 M 836.218237,477.981623 l -5.513847,-16.013373 M 838.197391,483.729503 l 3.749785,10.890165 M 851.109654,481.299243 l -5.438933,-15.795810 M 853.993274,489.673884 l 3.598864,10.451860 M 866.005648,484.630156 l -5.366094,-15.584269 M 869.788368,495.615973 l 4.147047,12.043898 M 880.931125,488.046692 l -5.322738,-15.458353 M 885.582747,501.555986 l 8.257758,23.982270 M 895.856601,491.463229 l -5.290473,-15.364648 M 901.330692,507.361144 l 8.991170,26.112255 M 910.778607,494.869686 l -5.258633,-15.272180 M 916.730491,512.155212 l 11.851399,34.418963 M 926.050353,499.291861 l -5.561287,-16.151149 M 928.019458,505.010558 l 0.582059,1.690421 M 947.207137,560.735621 l -15.751612,-45.746004 M 933.403506,480.716772 l 30.362545,88.179233 M 979.717751,575.292910 l -35.592786,-103.368956 M 956.569135,468.134254 l 21.431809,62.242493 M 995.145105,580.167005 l -16.818969,-48.845832 M 972.932612,475.727047 l 19.895422,57.780501 M 1010.441212,584.659931 l -16.069607,-46.669528 M 988.207826,480.159293 l 20.092353,58.352430 M 1025.374155,588.098150 l -15.287557,-44.398288 M 1003.180941,483.714181 l 36.826295,106.951327 M 1054.383674,592.487521 l -36.651245,-106.442943 M 1031.496707,486.088746 l 36.971476,107.372963 M 1082.231186,593.502177 l -37.750708,-109.636016 M 1057.455214,481.617334 l 38.399854,111.521273 M 1109.225514,592.039007 l -38.296687,-111.221655 M 1085.019069,481.808191 l 32.943318,95.674343 M 1120.978664,586.242439 l -0.184105,-0.534678 M 1099.759098,484.686147 l 31.088061,90.286284 M 1142.685810,569.424176 l -27.202727,-79.002457 M 1132.559624,500.085401 l 6.701315,19.462031 M 1151.917302,556.304181 l -7.119571,-20.676735 M 1151.594316,515.435966 l 4.236090,12.302499"
       id="path20" />
  </g>
</svg>
