<?xml version="1.0" encoding="UTF-8" standalone="no"?>
<!-- Created with Inkscape (http://www.inkscape.org/) -->

<svg
   xmlns:dc="http://purl.org/dc/elements/1.1/"
   xmlns:cc="http://creativecommons.org/ns#"
   xmlns:rdf="http://www.w3.org/1999/02/22-rdf-syntax-ns#"
   xmlns:svg="http://www.w3.org/2000/svg"
   xmlns="http://www.w3.org/2000/svg"
   xmlns:sodipodi="http://sodipodi.sourceforge.net/DTD/sodipodi-0.dtd"
   xmlns:inkscape="http://www.inkscape.org/namespaces/inkscape"
   id="svg2"
   version="1.1"
   inkscape:version="0.48.3.1 r9886"
   width="1000"
   height="759"
   sodipodi:docname="hantologie-_0002_arriere-plan-02_hatched_1398274417.svg">
  <defs
     id="defs27" />
  <sodipodi:namedview
     pagecolor="#ffffff"
     bordercolor="#666666"
     borderopacity="1"
     objecttolerance="10"
     gridtolerance="10"
     guidetolerance="10"
     inkscape:pageopacity="0"
     inkscape:pageshadow="2"
     inkscape:window-width="640"
     inkscape:window-height="480"
     id="namedview25" />
  <metadata
     id="metadata8">
    <rdf:RDF>
      <cc:Work
         rdf:about="">
        <dc:format>image/svg+xml </dc:format>
        <dc:type
           rdf:resource="http://purl.org/dc/dcmitype/StillImage" />
        <dc:title />
      </cc:Work>
    </rdf:RDF>
  </metadata>
  <g
     inkscape:label="fill-050505"
     inkscape:groupmode="layer"
     id="fill-050505">
    <path
       style="stroke:#050505"
       d="M 906.428805,388.997319 l -4.612836,-0.813367 M 883.081080,386.911339 l 8.693146,1.532836 M 880.677101,386.487452 l -1.240724,-0.218773 M 887.156977,389.660882 l 3.144709,0.554497 M 880.109261,388.418180 l -9.723579,-1.714529 M 863.525057,387.524791 l 15.284349,2.695043 M 876.490717,391.841839 l -14.710471,-2.593853 M 855.873236,390.237275 l 11.114056,1.959708 M 856.867100,392.443373 l -5.881410,-1.037051 M 846.457206,392.638681 l 0.998284,0.176024 M 918.535352,413.471416 l -27.350697,-4.822666 M 882.145187,409.085701 l 37.744015,6.655288 M 919.280380,417.664491 l -43.534866,-7.676371 M 866.121859,410.322062 l 46.552011,8.208375 M 904.849767,419.181691 l -48.673803,-8.582505 M 855.009359,412.424335 l 41.830133,7.375781 M 888.025345,420.276798 l -31.561610,-5.565163 M 780.058167,409.362684 l 9.863137,1.739137 M 790.499557,413.234636 l -9.722160,-1.714279 M 713.853565,405.812439 l 1.409874,0.248599 M 713.070676,407.705248 l -3.347035,-0.590173 M 706.296578,408.541645 l 4.003170,0.705867 M 706.920472,410.682508 l -3.567709,-0.629083 M 782.686656,426.072983 l 1.360156,0.239832 M 703.286123,412.072527 l -3.386714,-0.597169 M 781.665859,427.923842 l 5.100657,0.899383 M 699.532560,413.441526 l -3.081861,-0.543415 M 693.209476,414.357449 l 3.077147,0.542584 M 693.675235,416.470428 l -2.893049,-0.510123 M 592.935128,408.861495 l 5.526714,0.974509 M 600.416337,412.211487 l -12.846585,-2.265200 M 585.189970,411.557521 l 15.514399,2.735607 M 600.765548,416.334769 l -7.637244,-1.346652 M 585.085521,413.569957 l 3.066727,0.540747 M 606.555312,419.386514 l -12.890217,-2.272893 M 585.577321,415.687528 l 0.860275,0.151690 M 663.584320,431.473120 l -7.020880,-1.237971 M 593.396333,419.097084 l 10.920659,1.925607 M 667.091734,434.122425 l -13.672379,-2.410809 M 637.802812,428.957998 l 8.395802,1.480406 M 601.402042,422.539560 l -14.847265,-2.617973 M 653.910410,433.829055 l 14.887752,2.625112 M 646.885289,432.590337 l -10.574328,-1.864539 M 590.358784,422.623189 l 8.976495,1.582798 M 668.679090,438.464025 l -14.532452,-2.562463 M 637.993449,433.053318 l 6.531186,1.151624 M 600.800749,426.495242 l -8.819836,-1.555175 M 647.320513,436.728785 l 21.167259,3.732359 M 601.537160,428.655944 l -6.543950,-1.153875 M 566.017031,422.392787 l 2.776211,0.489521 M 668.651738,442.520909 l -21.610084,-3.810441 M 564.090193,424.083887 l 3.518796,0.620459 M 773.507869,463.040727 l -3.387619,-0.597329 M 739.565520,457.055775 l 19.380390,3.417286 M 669.496806,444.700770 l -22.511006,-3.969298 M 562.628544,425.857012 l 3.796192,0.669371 M 776.222058,465.550165 l -4.393487,-0.774690 M 719.341320,455.520556 l 39.822612,7.021801 M 670.878331,446.975223 l -23.997234,-4.231360 M 561.596030,427.705805 l 3.570902,0.629646 M 780.998074,468.423158 l -6.226998,-1.097988 M 717.135687,457.162496 l 41.503666,7.318216 M 672.216982,449.242117 l -25.907000,-4.568103 M 635.075174,442.693014 l 2.747707,0.484495 M 563.751409,430.116710 l -2.807801,-0.495091 M 779.052748,470.110998 l 15.202621,2.680632 M 757.501089,466.310859 l -42.026292,-7.410369 M 644.441278,446.375364 l 29.069760,5.125783 M 637.904912,445.222826 l -1.675561,-0.295447 M 560.839225,431.634066 l 0.943147,0.166302 M 874.266065,488.930528 l -20.102770,-3.544661 M 786.455811,473.447211 l 26.814385,4.728099 M 753.202839,467.583815 l -39.141401,-6.901685 M 643.624281,448.262159 l 30.582349,5.392493 M 637.570512,447.194716 l -1.252145,-0.220787 M 628.103244,445.525381 l 2.198692,0.387689 M 875.756958,491.224266 l -79.532417,-14.023711 M 712.787930,462.488429 l 38.676962,6.819792 M 674.661193,455.765657 l -30.398496,-5.360075 M 626.969607,447.356343 l 4.743280,0.836368 M 604.547175,443.402664 l -3.962123,-0.698629 M 811.025754,481.841261 l 65.721919,11.588548 M 751.135798,471.281046 l -39.484191,-6.962128 M 644.801349,452.531414 l 31.655730,5.581759 M 632.174335,450.304931 l -6.784946,-1.196369 M 599.733317,444.584704 l 6.616727,1.166707 M 877.424590,495.580021 l -21.196096,-3.737444 M 714.520109,466.855566 l 37.653025,6.639244 M 677.285570,460.290112 l -32.355814,-5.705203 M 623.030650,450.723506 l 10.106212,1.781998 M 608.326516,448.130770 l -9.017871,-1.590094 M 562.979281,440.134829 l 4.939385,0.870947 M 876.927737,497.523266 l -5.628036,-0.992375 M 717.264338,469.370300 l 37.552441,6.621508 M 676.683859,462.214867 l -32.177453,-5.673753 M 627.168013,453.483887 l 7.549174,1.331123 M 626.625002,453.388140 l -6.569269,-1.158339 M 599.408389,448.589117 l 10.218315,1.801765 M 576.941953,444.627678 l -18.571682,-3.274689 M 746.147867,476.494099 l 10.524283,1.855715 M 741.134537,475.610114 l -22.039460,-3.886151 M 668.371649,462.780053 l 6.983262,1.231338 M 666.871544,462.515545 l -23.648161,-4.169809 M 629.793314,455.977652 l 6.116850,1.078566 M 621.168222,454.456816 l -4.433867,-0.781810 M 599.577985,450.649874 l 10.150435,1.789796 M 588.581733,448.710938 l -33.469386,-5.901556 M 749.553279,479.125418 l 8.948032,1.577779 M 740.189107,477.474262 l -20.205888,-3.562843 M 642.935528,460.325832 l 19.918784,3.512219 M 636.975995,459.275006 l -7.782288,-1.372227 M 599.696920,452.701699 l 11.128276,1.962215 M 592.432934,451.420862 l -40.569756,-7.153543 M 752.589559,481.691650 l 13.058082,2.302492 M 740.700035,479.595206 l -19.914379,-3.511442 M 643.946166,462.534888 l 16.747431,2.953024 M 637.981783,461.483207 l -11.316696,-1.995439 M 598.665584,454.550700 l 13.723320,2.419792 M 594.107491,453.746985 l -45.430125,-8.010557 M 756.057655,484.334022 l 19.426321,3.425384 M 742.094446,481.871931 l -19.764697,-3.485049 M 643.267871,464.446140 l 15.530450,2.738437 M 639.267417,463.740752 l -15.268211,-2.692198 M 547.545939,447.567781 l 66.024809,11.641955 M 784.284921,491.342104 l -23.356660,-4.118409 M 722.657535,480.475533 l 21.453001,3.782743 M 657.142101,468.923394 l -34.730704,-6.123960 M 549.418827,449.928874 l 64.807745,11.427354 M 797.487520,495.700931 l -22.797382,-4.019793 M 722.587830,482.494095 l 27.823113,4.905965 M 655.653476,470.691763 l -38.048735,-6.709019 M 551.562957,452.337796 l 64.066156,11.296592 M 807.824096,499.554402 l -23.534936,-4.149844 M 722.178367,484.452749 l 32.347971,5.703820 M 670.650421,475.366982 l -3.491710,-0.615683 M 553.700065,454.745479 l 100.790498,17.772084 M 849.488383,508.931793 l -21.883262,-3.858610 M 790.161149,498.470801 l 30.859868,5.441427 M 758.619501,492.909157 l -37.453256,-6.604020 M 662.360519,475.936102 l 5.283909,0.931696 M 654.094211,474.478528 l -27.062048,-4.771769 M 555.775625,457.142309 l 69.294055,12.218411 M 851.313072,511.284388 l -56.908082,-10.034430 M 719.770065,488.089807 l 42.816472,7.549699 M 663.954266,478.247976 l -34.657495,-6.111051 M 557.851185,459.539140 l 64.056057,11.294811 M 845.987235,512.376152 l -48.067196,-8.475543 M 719.711872,490.110399 l 47.385440,8.355332 M 660.264105,479.628154 l -30.353111,-5.352072 M 559.450805,461.852049 l 59.986506,10.577239 M 835.300084,512.522573 l -35.395575,-6.241195 M 722.893283,492.702221 l 50.016138,8.819195 M 656.582723,481.009880 l -27.753791,-4.893742 M 560.682982,464.100168 l 57.947961,10.217789 M 826.775641,513.050337 l -25.174047,-4.438864 M 725.695780,495.227230 l 54.167890,9.551260 M 652.968607,482.403467 l -27.208174,-4.797535 M 562.257784,466.408702 l 59.910152,10.563776 M 827.355109,515.183366 l -24.696552,-4.354668 M 728.498278,497.752239 l 58.763376,10.361569 M 649.691169,483.856419 l -86.384271,-15.231878 M 803.461213,513.001080 l 25.374488,4.474207 M 795.591283,511.613399 l -64.277359,-11.333833 M 564.143222,470.802862 l 82.532534,14.552713 M 827.367917,519.247330 l -93.186968,-16.431377 M 564.955037,472.976860 l 78.411405,13.826046 M 824.054995,520.694026 l -86.880302,-15.319341 M 565.748596,475.147639 l 74.154352,13.075413 M 820.071730,522.022522 l -79.235429,-13.971344 M 683.483167,497.938273 l 4.896879,0.863452 M 638.777536,490.055464 l -72.235381,-12.737047 M 744.500074,510.728054 l 71.871265,12.672843 M 637.712197,491.898470 l -70.376485,-12.409273 M 746.776080,513.160228 l 66.175134,11.668462 M 636.733776,493.756801 l -68.612663,-12.098264 M 748.623403,515.516814 l 60.926467,10.742980 M 635.876493,495.636492 l -67.072527,-11.826696 M 749.683435,517.734580 l 55.899295,9.856554 M 635.179016,497.544361 l -65.950880,-11.628920 M 750.213477,519.858894 l 49.291049,8.691342 M 692.215393,509.632267 l -2.055361,-0.362416 M 569.580505,488.008427 l 65.087269,11.476642 M 792.896457,529.415908 l -42.766223,-7.540839 M 689.792011,511.235812 l 3.571212,0.629701 M 634.606089,501.505045 l -64.829816,-11.431246 M 749.625703,523.816960 l 39.240447,6.919150 M 694.560612,514.107498 l -5.677962,-1.001178 M 569.972040,492.139172 l 64.690444,11.406671 M 785.022293,532.089187 l -35.842417,-6.319985 M 686.965950,514.799208 l 8.792051,1.550276 M 634.841865,505.608325 l -64.674057,-11.403781 M 748.870794,527.745555 l 29.178786,5.145007 M 696.955390,518.591469 l -11.553182,-2.037138 M 570.363576,496.269916 l 64.646089,11.398850 M 756.009092,531.035083 l -7.768453,-1.369788 M 684.587430,518.441517 l 13.565349,2.391937 M 635.127793,509.720449 l -64.582344,-11.387610 M 747.070679,531.489853 l 7.835514,1.381613 M 699.350169,523.075439 l -14.873399,-2.622582 M 570.706861,500.392153 l 64.539061,11.379978 M 754.301441,534.795685 l -8.813059,-1.553980 M 686.015341,522.755003 l 14.532217,2.562422 M 635.325058,513.816938 l -64.456784,-11.365470 M 743.503030,534.922487 l 10.193659,1.797417 M 701.745167,527.559449 l -11.183407,-1.971936 M 571.029686,504.510783 l 64.088933,11.300608 M 753.171803,538.658205 l -12.172862,-2.146404 M 696.364988,528.641631 l 6.578448,1.159958 M 634.364289,517.709235 l -63.165483,-11.137779 M 737.113375,537.857524 l 15.563594,2.744281 M 704.141705,532.043729 l -3.406161,-0.600598 M 571.501373,508.655660 l 62.553973,11.029953 M 752.182135,542.545407 l -18.600464,-3.279764 M 701.580127,533.622907 l 3.759848,0.662963 M 633.774180,521.666889 l -61.970241,-10.927025 M 733.559050,541.292507 l 18.150236,3.200376 M 706.538244,536.528010 l -4.142917,-0.730508 M 572.106505,512.824068 l 60.818036,10.723861 M 751.288327,546.449511 l -17.225957,-3.037401 M 704.787122,538.250093 l 2.949392,0.520057 M 634.075162,525.781667 l -61.584317,-10.858977 M 734.641923,545.545154 l 16.225445,2.860984 M 635.717924,528.102184 l -62.729357,-11.060878 M 735.176773,547.670315 l 15.269635,2.692449 M 635.936550,530.171586 l -62.450260,-11.011666 M 735.563176,549.769302 l 14.550141,2.565582 M 725.836738,548.054268 l -2.786821,-0.491392 M 573.996462,521.280731 l 62.055620,10.942080 M 749.797381,554.310029 l -14.980952,-2.641546 M 723.309899,549.639572 l 5.598140,0.987103 M 636.610484,534.352126 l -61.926306,-10.919279 M 724.427725,551.867528 l 25.052782,4.417481 M 637.554384,536.549414 l -62.182490,-10.964451 M 726.127447,554.198088 l 23.030632,4.060922 M 639.053826,538.844659 l -62.994217,-11.107580 M 728.059314,556.569581 l 20.757111,3.660039 M 640.776626,541.179289 l -14.127662,-2.491088 M 576.825921,529.903054 l 41.499698,7.317516 M 748.089182,562.132241 l -17.540527,-3.092868 M 631.116830,541.506859 l 10.807169,1.905595 M 630.222083,541.349091 l -2.729429,-0.481272 M 577.653486,532.079829 l 35.561005,6.270365 M 855.120324,583.035572 l -3.336943,-0.588393 M 737.505270,562.296865 l 9.296934,1.639300 M 642.561272,545.555676 l -11.737301,-2.069603 M 627.340813,542.871899 l 2.929343,0.516522 M 609.719902,539.764857 l -31.238851,-5.508252 M 846.331865,583.516783 l 10.376056,1.829579 M 642.480169,547.572229 l -14.897221,-2.626782 M 579.417205,536.452527 l 29.912700,5.274416 M 855.906257,587.235860 l -14.503715,-2.557396 M 628.483891,547.135161 l 12.539816,2.211108 M 609.139492,543.724221 l -28.689250,-5.058689 M 836.135265,585.780554 l 17.695115,3.120126 M 638.517399,550.935192 l -6.799262,-1.198893 M 581.658002,540.909346 l 27.227080,4.800869 M 851.431122,590.508479 l -22.381255,-3.946419 M 583.293715,543.228620 l 24.772279,4.368021 M 849.238257,592.152671 l -28.968018,-5.107843 M 596.542547,547.595600 l 8.937090,1.575850 M 595.417501,547.397224 l -9.724945,-1.714770 M 806.686378,586.680480 l 40.491992,7.139831 M 586.606051,547.874380 l -0.686054,-0.120970 M 803.021158,588.065056 l 42.868989,7.558959 M 844.562276,597.420729 l -60.768470,-10.715121 M 648.619415,562.870716 l 2.397820,0.422800 M 842.461108,599.081090 l -63.289366,-11.159623 M 658.249388,566.599593 l 1.203209,0.212158 M 653.766617,565.809160 l -5.839188,-1.029606 M 774.902264,589.199496 l 65.585763,11.564540 M 665.754256,569.953757 l -2.297961,-0.405192 M 647.471385,566.729994 l 7.819815,1.378844 M 839.256970,602.577820 l -65.684348,-11.581923 M 665.570807,571.952264 l 0.072758,0.012829 M 655.913901,570.249491 l -7.631376,-1.345617 M 773.558683,593.024293 l 64.316716,11.340772 M 673.841288,575.441426 l -6.552974,-1.155466 M 648.905086,571.044500 l 6.218143,1.096426 M 835.640419,606.001831 l -62.095674,-10.949143 M 667.329173,576.324017 l 6.865131,1.210508 M 652.526812,573.713962 l -4.338447,-0.764985 M 814.156609,604.244509 l 18.284475,3.224046 M 809.278790,603.384418 l -35.747983,-6.303334 M 668.151108,578.499800 l 5.418439,0.955417 M 652.031852,575.657540 l -6.505841,-1.147155 M 813.069828,606.083733 l 12.559764,2.214625 M 805.259613,604.706582 l -31.722526,-5.593537 M 669.296222,580.732568 l 8.491382,1.497260 M 651.716178,577.632731 l -6.272646,-1.106037 M 811.933999,607.914309 l 8.577453,1.512436 M 801.778037,606.123539 l -8.073514,-1.423578 M 773.573645,601.150344 l 16.579377,2.923392 M 685.279228,585.581656 l -4.754736,-0.838388 M 670.977298,583.059840 l 3.834701,0.676161 M 649.550803,579.281771 l -0.853396,-0.150477 M 810.969769,609.775143 l 8.252044,1.455058 M 799.184130,607.697017 l -6.793906,-1.197949 M 773.610202,603.187643 l 11.509503,2.029436 M 685.732055,587.692355 l -6.358019,-1.121090 M 672.538445,585.365965 l 4.217583,0.743674 M 820.043648,613.405966 l -9.710271,-1.712183 M 790.584822,608.211580 l 6.484309,1.143359 M 776.585083,605.743048 l -2.841081,-0.500959 M 678.772124,588.495984 l 6.960387,1.227304 M 676.596524,588.112368 l -4.196437,-0.739945 M 809.322843,613.546452 l 12.921061,2.278332 M 798.166600,611.579305 l -9.573738,-1.688108 M 678.396173,590.460547 l 5.975462,1.053635 M 823.757442,618.122514 l -18.292369,-3.225438 M 786.600902,611.570814 l 14.312696,2.523714 M 673.079523,591.553932 l -2.921081,-0.515065 M 662.097325,589.617474 l 5.622372,0.991376 M 823.233535,620.060989 l -20.156260,-3.554092 M 784.319622,613.199416 l 14.863334,2.620807 M 692.340897,596.981085 l -2.233044,-0.393746 M 680.580973,594.907493 l 2.177442,0.383942 M 673.561574,593.669784 l -3.659060,-0.645191 M 661.917737,591.616661 l 6.382173,1.125349 M 821.771204,621.833993 l -17.101961,-3.015537 M 781.980159,614.817759 l 16.107213,2.840136 M 693.426399,599.203341 l -2.208429,-0.389406 M 674.544253,595.873910 l 1.931512,0.340578 M 671.331780,595.307464 l -2.251608,-0.397019 M 665.613733,594.299218 l 2.849488,0.502442 M 820.238862,623.594653 l -18.216909,-3.212133 M 779.608958,616.430505 l 17.031970,3.003196 M 737.908634,609.077613 l -3.412781,-0.601765 M 713.218612,604.724096 l 3.135018,0.552788 M 705.253108,603.319563 l -9.668915,-1.704891 M 674.499903,597.896943 l 1.644453,0.289961 M 818.820984,625.375496 l -18.919411,-3.336003 M 776.905962,617.984747 l 16.497308,2.908921 M 741.861799,611.805516 l -8.300823,-1.463659 M 728.171717,609.391585 l 4.140822,0.730139 M 723.461935,608.561123 l -2.178327,-0.384098 M 711.657401,606.479665 l 6.175621,1.088929 M 711.642655,606.477065 l -17.347743,-3.058875 M 798.278446,623.784146 l 19.780545,3.487844 M 791.159057,622.528806 l -17.511817,-3.087806 M 727.812245,611.359054 l 13.921181,2.454680 M 724.601988,610.792999 l -31.077295,-5.479766 M 796.106164,625.431967 l 21.574295,3.804130 M 791.249424,624.575593 l -20.953173,-3.694610 M 750.859214,617.453709 l 8.978786,1.583202 M 739.894029,615.520251 l -46.501891,-8.199538 M 767.461450,622.411984 l 49.522229,8.732105 M 758.611407,620.851483 l -9.178541,-1.618424 M 694.736600,609.588631 l 41.996125,7.405050 M 814.961932,632.818454 l -23.791989,-4.195170 M 764.835706,623.979848 l 24.004357,4.232616 M 757.128546,622.620868 l -8.904661,-1.570132 M 695.859403,611.817465 l 37.712185,6.649676 M 811.069420,634.162953 l -20.426168,-3.601684 M 761.886949,625.490756 l 25.234068,4.449447 M 757.125666,624.651213 l -10.521889,-1.855293 M 696.641068,613.986147 l 33.759087,5.952638 M 805.537031,635.218296 l -15.957603,-2.813756 M 743.795845,624.331660 l 39.105782,6.895405 M 727.494228,621.457245 l -29.704572,-5.237717 M 788.452611,634.236705 l 13.950944,2.459928 M 779.896110,632.727963 l -44.672060,-7.876890 M 701.113418,618.836449 l 25.203877,4.444124 M 802.587527,638.759926 l -14.984138,-2.642108 M 735.124050,626.864294 l 43.472061,7.665297 M 727.617894,625.540757 l -3.242374,-0.571718 M 706.718171,621.855572 l 16.285507,2.871574 M 803.181487,640.895510 l -16.393145,-2.890554 M 743.393898,630.353345 l 34.439096,6.072542 M 720.868722,626.381549 l -7.474044,-1.317876 M 785.973556,639.892141 l 17.751577,3.130082 M 777.309290,638.364397 l -34.855517,-6.145968 M 782.794242,641.362395 l 21.433985,3.779390 M 777.334691,640.399729 l -38.821196,-6.845224 M 774.396238,641.912454 l 29.670679,5.231741 M 767.191945,640.642143 l -29.832689,-5.260308 M 670.236474,623.546277 l 18.409632,3.246115 M 803.021027,648.990630 l -26.910762,-4.745093 M 737.020128,637.352890 l 29.545266,5.209628 M 715.749485,633.602302 l -1.617604,-0.285227 M 675.947805,626.584192 l 24.236548,4.273557 M 800.377177,650.555301 l -23.864815,-4.208011 M 738.538889,639.651542 l 28.240581,4.979576 M 705.806845,633.880000 l -6.750282,-1.190257 M 776.535940,648.382301 l 20.611351,3.634337 M 767.491993,646.787609 l -26.525256,-4.677118 M 773.699698,649.913048 l 22.254830,3.924127 M 769.870609,649.237876 l -26.263242,-4.630918 M 746.247998,647.103426 l 49.682644,8.760391 M 795.797344,657.871165 l -46.618042,-8.220019 M 752.120893,652.200682 l 42.811037,7.548741 M 792.970743,661.434466 l -37.908257,-6.684249 M 758.124114,657.320918 l 31.204150,5.502134 M 786.820778,664.411768 l -25.539655,-4.503330 M 764.438130,662.495956 l 21.763186,3.837437 M 786.391469,668.397775 l -18.796331,-3.314300 M 770.638772,667.651003 l 16.345711,2.882190 M 787.763000,672.701320 l -14.126144,-2.490820 M 776.634939,672.769996 l 11.900186,2.098324 M 787.760078,676.762511 l -7.582117,-1.336932"
       id="path5" />
  </g>
  <g
     inkscape:label="fill-303030"
     inkscape:groupmode="layer"
     id="fill-303030">
    <path
       style="stroke:#303030"
       d="M 919.818538,388.216615 l -24.601511,-3.020686 M 872.494040,385.428426 l 51.422969,6.313947 M 915.281293,393.704570 l -59.449699,-7.299505 M 888.159934,393.397015 l 3.862038,0.474199 M 882.694910,392.725994 l -39.743159,-4.879846 M 833.985880,389.767807 l 40.905603,5.022577 M 856.363558,395.537970 l -28.937778,-3.553112 M 820.860767,394.201305 l 15.878927,1.949687 M 828.294577,398.136591 l -16.552471,-2.032388 M 876.922981,407.129938 l 43.800225,5.377991 M 817.641348,399.851069 l -15.356895,-1.885590 M 860.607870,408.149224 l 61.201899,7.514648 M 806.854090,401.549090 l -10.800524,-1.326138 M 845.594364,409.328327 l 75.965011,9.327330 M 908.237994,420.042527 l -73.272083,-8.996681 M 773.305827,403.474940 l 3.870583,0.475248 M 896.491184,421.622729 l -66.745969,-8.195375 M 809.362973,410.924730 l 4.698638,0.576920 M 783.099658,407.700001 l -10.998721,-1.350473 M 868.169614,421.167807 l 18.555721,2.278356 M 799.222859,412.702210 l -20.486932,-2.515479 M 873.864053,424.889526 l 7.546565,0.926602 M 793.005752,414.961375 l -11.584929,-1.422450 M 712.975718,405.134922 l 5.095474,0.625646 M 713.951863,408.277307 l -7.284663,-0.894444 M 701.485723,409.769187 l 7.415623,0.910524 M 703.163751,412.997753 l -6.707635,-0.823594 M 579.101325,397.764802 l 3.333680,0.409324 M 877.601631,437.438561 l -6.257137,-0.768280 M 857.299532,434.945776 l 7.420018,0.911064 M 787.048118,426.319987 l -6.682682,-0.820530 M 691.653696,414.607025 l 5.864684,0.720093 M 587.529535,401.822186 l -7.372730,-0.905257 M 781.494374,428.660603 l 9.827431,1.206657 M 692.281586,417.706650 l -4.219279,-0.518062 M 581.827316,404.144571 l 11.610645,1.425608 M 600.338496,409.439987 l -17.571899,-2.157558 M 901.253260,449.410204 l 8.283888,1.017134 M 602.491361,412.726855 l -19.394995,-2.381406 M 567.147493,408.387174 l 3.759620,0.461623 M 608.797318,416.523659 l -4.386344,-0.538575 M 583.426136,413.408470 l 17.610741,2.162327 M 574.876190,412.358668 l -8.600250,-1.055978 M 591.774646,417.456067 l 18.693297,2.295248 M 591.019234,417.363314 l -7.397641,-0.908316 M 563.679184,414.006378 l 10.252777,1.258883 M 663.483677,429.283359 l -5.387287,-0.661476 M 641.213577,426.548934 l 4.680177,0.574653 M 610.287304,422.751665 l -26.307017,-3.230096 M 557.593857,416.281723 l 15.003006,1.842137 M 787.449195,447.526940 l -5.313341,-0.652396 M 634.746118,428.777359 l 32.855904,4.034198 M 602.117091,424.771019 l -15.285742,-1.876853 M 558.330286,419.394675 l 12.664067,1.554952 M 864.554018,460.016751 l -7.883777,-0.968006 M 629.417696,431.145641 l 41.935955,5.149088 M 615.502762,429.437102 l -2.464491,-0.302601 M 587.634545,426.015315 l 21.359978,2.622676 M 569.261907,423.759439 l -9.713183,-1.192629 M 857.153492,462.130610 l 12.266336,1.506117 M 680.591248,440.451493 l -1.860638,-0.228458 M 630.816101,434.339873 l 39.914082,4.900833 M 619.006353,432.889818 l -4.188538,-0.514288 M 588.002391,429.083010 l 15.288448,1.877185 M 567.414849,426.555178 l -8.658917,-1.063181 M 644.537432,439.047170 l 26.039777,3.197283 M 640.451328,438.545460 l -8.565795,-1.051747 M 618.403370,435.838311 l 3.678625,0.451678 M 602.871214,433.931202 l -10.223898,-1.255337 M 556.839651,428.279237 l 8.547870,1.049547 M 671.760549,445.412278 l -28.192582,-3.461614 M 624.027585,439.551407 l 19.441429,2.387107 M 601.682672,436.807797 l -6.171243,-0.757733 M 554.532601,431.018496 l 8.391090,1.030296 M 773.217098,460.892105 l -4.674556,-0.573963 M 717.411135,454.039995 l 45.564784,5.594652 M 674.811008,448.809357 l -42.069521,-5.165488 M 622.806192,442.423968 l 8.466616,1.039570 M 605.899533,440.348092 l -8.311184,-1.020485 M 769.717533,463.484942 l 8.159372,1.001845 M 761.968916,462.533532 l -55.267277,-6.785968 M 623.475481,445.528676 l 53.147478,6.525690 M 606.913955,443.495176 l -8.718039,-1.070441 M 772.344396,466.830010 l 12.891564,1.582885 M 759.794302,465.289052 l -50.053305,-6.145773 M 642.723493,450.914564 l 33.726814,4.141132 M 638.178182,450.356470 l -15.330580,-1.882359 M 597.742459,445.391588 l 11.682747,1.434461 M 574.993413,442.598356 l -17.637928,-2.165665 M 777.850122,470.528558 l 26.978777,3.312577 M 757.936380,468.083458 l -51.097566,-6.273992 M 642.599377,453.921854 l 39.007892,4.789567 M 636.289547,453.147105 l -16.780170,-2.060346 M 614.232253,450.438809 l 1.959986,0.240656 M 613.325532,450.327478 l -15.536304,-1.907618 M 551.745331,442.766380 l 37.786050,4.639544 M 859.234272,483.543804 l -8.439298,-1.036216 M 787.144832,474.692334 l 40.678114,4.994644 M 752.604626,470.451330 l -44.381745,-5.449393 M 640.710706,456.712484 l 38.789538,4.762756 M 637.239794,456.286310 l -23.281058,-2.858554 M 597.819663,451.446126 l 13.236799,1.625275 M 594.668707,451.059237 l -48.479705,-5.952559 M 798.481877,479.106878 l 76.960526,9.449564 M 754.643112,473.724154 l -38.879765,-4.773835 M 626.691107,458.013623 l 51.072880,6.270961 M 613.466387,456.389832 l -66.613379,-8.179094 M 811.058970,483.673680 l 67.155630,8.245675 M 758.134672,477.175393 l -40.256576,-4.942886 M 641.963115,462.911320 l 22.741313,2.792282 M 640.130477,462.686300 l -20.195619,-2.479710 M 549.901266,451.607546 l 65.657406,8.061716 M 880.742612,495.252285 l -35.719401,-4.385791 M 747.097066,478.842675 l 16.117088,1.978930 M 741.669827,478.176294 l -22.324199,-2.741067 M 552.897554,454.997973 l 107.583856,13.209636 M 880.291890,498.219472 l -12.098002,-1.485448 M 750.544657,482.288515 l 20.235064,2.484553 M 742.823494,481.340476 l -22.156983,-2.720535 M 671.744211,472.613037 l 2.748369,0.337457 M 657.477664,470.861325 l -101.675320,-12.484160 M 752.934483,485.604479 l 30.609014,3.758314 M 748.912997,485.110702 l -27.501368,-3.376743 M 663.449684,474.617127 l 8.584314,1.054021 M 656.748484,473.794323 l -98.456821,-12.088978 M 765.153144,490.127271 l 31.577191,3.877192 M 756.237069,489.032515 l -35.374373,-4.343427 M 628.709388,473.374084 l 38.205577,4.691055 M 623.255574,472.704440 l -62.663401,-7.694098 M 779.015405,494.851872 l 35.331248,4.338132 M 761.046668,492.645589 l -42.528012,-5.221783 M 562.362538,468.250245 l 98.754440,12.125521 M 849.240407,506.496948 l -61.262164,-7.522048 M 718.097088,490.394573 l 48.860067,5.999262 M 655.207654,482.672721 l -91.457722,-11.229596 M 794.794998,502.834421 l 61.672906,7.572481 M 773.840891,500.261581 l -50.714947,-6.227012 M 564.776258,474.591671 l 85.174186,10.458075 M 851.419241,512.809534 l -52.828412,-6.486513 M 727.682219,497.616538 l 54.181889,6.652699 M 646.019464,487.589612 l -80.336528,-9.864085 M 800.799678,509.616762 l 37.318104,4.582087 M 790.554770,508.358846 l -59.424187,-7.296373 M 684.926243,495.389294 l 6.296011,0.773053 M 644.993846,490.486212 l -2.405737,-0.295387 M 566.975098,480.906714 l 73.110658,8.976860 M 834.460899,516.772370 l -99.928694,-12.269701 M 682.951629,498.169371 l 6.567461,0.806383 M 638.410245,492.700377 l -70.449508,-8.650112 M 738.789847,508.047972 l 90.968011,11.169467 M 637.071173,495.558489 l -68.495111,-8.410142 M 743.498630,511.648667 l 80.550952,9.890413 M 635.930149,498.440918 l -66.984186,-8.224624 M 745.487014,514.915339 l 72.390739,8.888465 M 692.984890,508.468889 l -3.088639,-0.379237 M 569.295682,493.281764 l 66.241729,8.133462 M 812.285793,526.139727 l -64.296620,-7.894632 M 688.906727,510.990683 l 5.442579,0.668265 M 636.157244,504.513861 l -66.511843,-8.166627 M 748.562026,521.337962 l 56.803812,6.974631 M 695.860266,514.867000 l -9.266246,-1.137752 M 569.995121,499.412703 l 66.661263,8.184974 M 794.709712,530.026715 l -46.510970,-5.710829 M 684.109144,516.446673 l 13.591722,1.668854 M 636.919373,510.652497 l -66.596602,-8.177035 M 747.559626,527.259942 l 40.283991,4.946252 M 699.541466,521.364053 l -16.367599,-2.009689 M 570.649773,505.538143 l 66.349770,8.146727 M 777.515577,533.960600 l -14.799038,-1.817093 M 746.482186,530.150178 l 10.884226,1.336415 M 701.396080,524.614301 l -17.712190,-2.174783 M 570.976775,508.600823 l 66.021238,8.106389 M 755.320692,534.257940 l -11.158679,-1.370114 M 686.759342,525.839665 l 16.494765,2.025302 M 636.840597,519.710413 l -65.521179,-8.044989 M 740.336349,535.440623 l 13.978945,1.716399 M 705.112133,531.115633 l -9.626033,-1.181928 M 571.839674,514.751833 l 65.088582,7.991873 M 753.481641,540.077192 l -20.154847,-2.474704 M 699.353054,533.431037 l 7.617105,0.935263 M 642.559528,526.457669 l -70.199598,-8.619427 M 732.431324,540.515067 l 20.307818,2.493486 M 708.683683,537.599224 l -7.083893,-0.869793 M 642.325490,529.451462 l 0.643110,0.078964 M 638.302458,528.957496 l -65.110044,-7.994508 M 733.142644,543.624936 l 18.928155,2.324085 M 710.274666,540.817101 l -4.733452,-0.581195 M 642.085789,532.444560 l 2.824999,0.346866 M 638.481343,532.001990 l -64.267977,-7.891115 M 733.976487,546.749848 l 17.435793,2.140846 M 724.691589,545.609806 l -2.528170,-0.310420 M 575.234318,527.258761 l 71.191497,8.741217 M 750.894225,551.849615 l -16.446758,-2.019408 M 722.078769,548.311522 l 6.335903,0.777951 M 641.279318,538.390597 l -65.024048,-7.983949 M 722.932247,551.438845 l 27.443923,3.369690 M 650.560118,542.552665 l -73.100790,-8.975648 M 725.250638,554.746037 l 24.581352,3.018211 M 651.636080,545.707306 l -72.944861,-8.956503 M 728.371197,558.151723 l 20.899003,2.566075 M 652.159094,548.794054 l -72.197897,-8.864787 M 732.601714,561.693695 l 15.522800,1.905960 M 654.498260,552.103797 l -72.989637,-8.962001 M 583.056049,546.354326 l 74.157627,9.105412 M 856.385880,582.937538 l -7.729545,-0.949069 M 609.988450,552.683738 l 47.362915,5.815435 M 604.528738,552.013370 l -19.802061,-2.431387 M 838.894040,583.812340 l 18.370255,2.255584 M 662.843741,562.196081 l -53.184543,-6.530241 M 586.428298,552.813445 l 14.643411,1.797985 M 855.338397,588.853982 l -30.660349,-3.764618 M 681.794625,567.545487 l 6.840318,0.839885 M 666.301571,565.643179 l -55.856529,-6.858319 M 588.422629,556.080847 l 13.701022,1.682274 M 851.550619,591.411431 l -45.070291,-5.533936 M 757.826581,579.903566 l 0.380295,0.046694 M 688.824513,571.431178 l -10.372704,-1.273608 M 611.937907,561.990690 l 57.937410,7.113819 M 606.003190,561.261998 l -15.497205,-1.902818 M 781.989659,585.892949 l 65.975101,8.100724 M 687.801263,574.328068 l -69.874624,-8.579525 M 612.459626,565.077278 l 2.115343,0.259732 M 610.052227,564.781687 l -17.161758,-2.107199 M 775.384317,588.104444 l 70.532310,8.660279 M 689.144144,577.515483 l -68.280038,-8.383734 M 609.658714,567.755899 l 9.546156,1.172121 M 600.207859,566.595480 l -4.825769,-0.592530 M 772.514627,590.774620 l 71.026365,8.720941 M 691.334012,580.806894 l -77.948382,-9.570858 M 598.509975,569.409535 l 7.503125,0.921268 M 840.947710,602.199676 l -68.365954,-8.394284 M 616.969442,574.698602 l 77.310888,9.492583 M 605.880767,573.337084 l -3.674479,-0.451169 M 772.790578,596.853562 l 65.255263,8.012339 M 695.678550,587.385395 l -76.676025,-9.414632 M 772.779191,599.874693 l 61.528608,7.554763 M 702.003390,591.184517 l -78.154770,-9.596199 M 608.805797,579.741292 l 4.599060,0.564694 M 825.537804,609.375166 l -53.147774,-6.525726 M 622.741865,584.474955 l 83.702387,10.277361 M 614.912108,583.513582 l -2.316473,-0.284427 M 809.060623,610.374552 l 11.163784,1.370740 M 801.431220,609.437779 l -30.069528,-3.692074 M 627.321683,588.059816 l 77.509211,9.516934 M 822.715210,615.073654 l -14.701372,-1.805101 M 783.763728,610.291013 l 17.968811,2.206293 M 782.537550,610.140457 l -12.870115,-1.580251 M 727.288624,603.356742 l 3.123829,0.383558 M 710.746346,601.325606 l -82.196750,-10.092492 M 621.297584,590.342679 l 2.087634,0.256329 M 824.802112,618.352422 l -57.103947,-7.011483 M 754.094405,609.670608 l 2.671632,0.328035 M 739.151081,607.835798 l -110.835613,-13.608902 M 765.680492,614.115730 l 57.777353,7.094167 M 743.870477,611.437797 l -103.832678,-12.749050 M 629.061424,597.341017 l 4.438972,0.545037 M 821.365474,623.975515 l -59.748770,-7.336226 M 748.132642,614.983654 l 8.391315,1.030324 M 743.882103,614.461754 l -100.433878,-12.331730 M 796.747066,623.975284 l 22.848878,2.805489 M 792.039534,623.397272 l -45.724274,-5.614235 M 647.430763,605.641548 l 94.825626,11.643123 M 818.746643,629.699022 l -72.521591,-8.904532 M 681.283903,612.820720 l 60.079688,7.376858 M 678.820834,612.518293 l -28.346419,-3.480503 M 683.213318,616.080152 l 133.555859,16.398597 M 677.699371,615.403124 l -1.776326,-0.218105 M 662.703228,613.561829 l 11.316994,1.389552 M 811.850548,634.897347 l -128.279079,-15.750690 M 671.460138,617.659572 l 6.667497,0.818666 M 669.699229,617.443360 l -7.744440,-0.950898 M 786.324928,634.785725 l 17.590654,2.159861 M 780.347985,634.051848 l -75.233587,-9.237523 M 685.234599,622.373393 l 10.849339,1.332131 M 680.016592,621.732702 l -18.998319,-2.332700 M 784.990397,637.644394 l 18.656858,2.290774 M 779.098635,636.920977 l -43.846880,-5.383720 M 713.689317,628.889723 l 15.024299,1.844752 M 696.830718,626.819747 l -28.500506,-3.499422 M 735.973233,634.648373 l 68.544895,8.416255 M 721.356381,632.853649 l -11.703868,-1.437054 M 675.406761,627.211745 l 28.524904,3.502418 M 805.346544,646.188874 l -68.856833,-8.454556 M 694.750816,632.609426 l 24.631849,3.024411 M 804.045409,649.051644 l -29.371516,-3.606369 M 738.706105,641.028986 l 31.064978,3.814300 M 801.078764,651.709915 l -58.758113,-7.214589 M 746.237715,647.998811 l 51.046033,6.267665 M 796.769145,657.225820 l -46.614367,-5.723525 M 754.143499,655.014578 l 41.535308,5.099895 M 792.481741,662.744451 l -34.067458,-4.182958 M 762.685066,662.108409 l 24.591343,3.019437 M 787.263097,668.148742 l -20.307247,-2.493416 M 771.142854,669.191954 l 17.073684,2.096385 M 789.672110,674.489590 l -14.361533,-1.763374 M 780.201900,676.349324 l 8.282198,1.016926"
       id="path8" />
  </g>
  <g
     inkscape:label="fill-4e4e4e"
     inkscape:groupmode="layer"
     id="fill-4e4e4e">
    <path
       style="stroke:#4e4e4e"
       d="M 912.161542,385.514656 l -18.962575,-1.325992 M 854.515071,385.493390 l 77.659500,5.430481 M 928.557741,394.680725 l -95.691190,-6.691380 M 901.549185,396.801871 l 13.329939,0.932120 M 884.703978,395.623939 l -64.077316,-4.480722 M 907.453173,401.224485 l 2.487582,0.173949 M 880.183949,399.317635 l -10.387259,-0.726348 M 856.154582,397.637338 l 6.808953,0.476128 M 850.931367,397.272096 l -40.642416,-2.841995 M 901.581149,404.823641 l 15.339409,1.072636 M 886.587725,403.775199 l -13.329576,-0.932095 M 844.191060,400.810535 l 5.929552,0.414635 M 833.584281,400.068837 l -35.166403,-2.459074 M 868.229125,406.501208 l 55.256148,3.863886 M 862.065832,406.070228 l -5.878821,-0.411087 M 846.005565,404.947185 l 6.622465,0.463088 M 821.753272,403.251300 l -27.910551,-1.951696 M 559.092633,384.884279 l 3.284380,0.229666 M 927.771296,414.674570 l -103.842517,-7.261376 M 800.931564,405.805072 l 14.537403,1.016554 M 778.780823,404.256141 l -6.953906,-0.486264 M 559.115102,388.895617 l 3.177240,0.222174 M 925.614744,418.533536 l -153.586559,-10.739818 M 715.731446,403.857067 l 5.545683,0.387792 M 560.557383,393.006239 l -0.661209,-0.046236 M 779.280982,412.310651 l 125.405066,8.769176 M 715.908486,407.879214 l -9.985144,-0.698229 M 578.107724,398.243246 l 6.513613,0.455476 M 893.121217,424.280903 l -38.877368,-2.718570 M 800.280110,417.788820 l 33.171549,2.319581 M 796.574712,417.529714 l -11.212409,-0.784048 M 720.715266,412.225104 l 1.764927,0.123416 M 708.838967,411.394633 l -10.580017,-0.739827 M 580.068141,402.390099 l 11.274532,0.788392 M 568.714367,401.596166 l -5.665639,-0.396180 M 870.704676,426.723153 l 16.239259,1.135560 M 700.540428,414.824110 l -9.641858,-0.674224 M 581.637303,406.509593 l 17.011862,1.189585 M 573.881185,405.967233 l -13.482091,-0.942760 M 870.285782,430.703629 l 12.771017,0.893036 M 849.580709,429.255789 l -14.108897,-0.986590 M 779.882213,424.381996 l 5.834530,0.407990 M 692.929770,418.301688 l -5.846548,-0.408830 M 582.152003,410.555352 l 22.639246,1.583090 M 575.891679,410.117588 l -17.658587,-1.234809 M 832.361999,432.061507 l 56.759493,3.969010 M 793.349265,429.333471 l -13.216047,-0.924156 M 582.326552,414.577326 l 27.858270,1.948040 M 574.832643,414.053300 l -18.262934,-1.277069 M 851.879563,437.436076 l 54.263126,3.794447 M 679.477432,425.380544 l -3.350802,-0.234311 M 582.562431,418.603587 l 31.998183,2.237531 M 573.176270,417.947243 l -17.682335,-1.236469 M 885.075129,443.767104 l 23.584748,1.649206 M 880.600862,443.454232 l -10.255265,-0.717118 M 700.433930,430.855733 l 1.977257,0.138263 M 675.650406,429.122700 l -9.028153,-0.631310 M 639.207016,426.574330 l 25.275266,1.767419 M 616.826456,425.009329 l -32.773584,-2.291752 M 555.474875,420.719209 l 15.681182,1.096535 M 912.409724,449.688292 l -23.655917,-1.654183 M 629.196219,429.884075 l 43.537271,3.044423 M 617.879257,429.092716 l -32.581522,-2.278322 M 581.242423,426.530819 l 0.677619,0.047384 M 568.625547,425.648561 l -13.727740,-0.959937 M 903.954000,453.106778 l 8.962752,0.626737 M 785.533094,444.825982 l -6.426732,-0.449401 M 697.364703,438.660647 l 11.050260,0.772709 M 673.826240,437.014677 l -44.669518,-3.123597 M 610.510900,432.587238 l 10.664178,0.745712 M 608.442199,432.442580 l -19.769524,-1.382420 M 553.413051,428.594567 l 12.193243,0.852635 M 827.791534,451.790747 l -3.462754,-0.242139 M 805.383001,450.223790 l 5.095060,0.356281 M 802.963656,450.054613 l -7.108983,-0.497108 M 782.422701,448.618249 l 8.824365,0.617060 M 671.027976,440.828771 l -53.282516,-3.725876 M 593.112962,435.380423 l 14.751409,1.031519 M 561.239095,433.151585 l -9.662733,-0.675684 M 828.599790,455.857033 l 35.725452,2.498167 M 673.067145,444.981131 l -52.043421,-3.639230 M 594.787923,439.507315 l 13.103106,0.916258 M 873.198591,462.985453 l -27.717808,-1.938218 M 717.565618,452.102535 l 11.915220,0.833193 M 679.317518,449.427968 l -57.173062,-3.997930 M 614.947616,444.926786 l 0.709190,0.049591 M 608.655031,444.486765 l -12.581510,-0.879785 M 554.867813,440.725597 l 22.290344,1.558693 M 888.782753,468.084971 l -31.645280,-2.212854 M 767.276183,459.588404 l 9.177457,0.641750 M 764.248562,459.376692 l -62.318756,-4.357752 M 620.950434,449.356311 l 57.559908,4.024981 M 616.836401,449.068630 l -20.174814,-1.410760 M 544.711349,444.025155 l 48.318832,3.378782 M 895.131849,472.538711 l -20.109270,-1.406177 M 768.715361,463.698809 l 11.818210,0.826410 M 763.899758,463.362069 l -66.349410,-4.639603 M 545.750048,448.107556 l 139.377423,9.746219 M 897.537612,476.716706 l -3.452765,-0.241441 M 772.312491,467.960112 l 20.235041,1.414972 M 760.256802,467.117097 l -56.330817,-3.939034 M 623.868804,457.579919 l 58.787748,4.110840 M 622.233090,457.465538 l -3.853696,-0.269477 M 549.929290,452.409564 l 66.209031,4.629786 M 812.851411,474.804637 l -32.978839,-2.306105 M 713.192931,467.835838 l 40.248594,2.814456 M 678.824763,465.432581 l -125.014659,-8.741877 M 790.947229,477.282716 l 64.925618,4.540042 M 757.849587,474.968303 l -41.218840,-2.882302 M 557.183213,460.936343 l 105.779102,7.396795 M 876.738566,487.291598 l -73.427363,-5.134541 M 744.657665,478.055601 l 18.560235,1.297858 M 742.626202,477.913548 l -24.202843,-1.692428 M 667.230015,472.641333 l 8.705678,0.608760 M 659.031763,472.068055 l -98.940894,-6.918621 M 816.291432,487.074490 l 63.464583,4.437876 M 771.429440,483.937434 l -23.586701,-1.649343 M 720.802303,480.397240 l 23.864985,1.668802 M 671.716151,476.964801 l -43.996737,-3.076552 M 562.335439,469.316157 l 63.005848,4.405798 M 883.652351,495.794592 l -40.387820,-2.824192 M 720.341289,484.374770 l 66.332413,4.638414 M 663.165794,480.376670 l -99.154957,-6.933590 M 870.021842,498.851221 l 11.343428,0.793210 M 801.145888,494.034946 l -85.114551,-5.951789 M 565.111987,477.529847 l 89.231239,6.239656 M 835.232863,500.428307 l -10.047036,-0.702557 M 780.488040,496.600176 l 38.529525,2.694247 M 767.838899,495.715662 l -47.939088,-3.352228 M 566.964468,481.669153 l 80.877045,5.655474 M 859.394511,506.127621 l -69.510086,-4.860619 M 726.044936,496.802911 l 49.424477,3.456096 M 695.138583,494.641728 l -9.293053,-0.649834 M 568.102901,485.758528 l 77.774447,5.438519 M 862.209815,510.334254 l -65.515494,-4.581290 M 730.469929,501.122104 l 55.449968,3.877439 M 691.866280,498.422674 l -10.202781,-0.713448 M 568.499680,489.796041 l 69.700388,4.873926 M 851.511681,513.595935 l -51.552402,-3.604895 M 734.706269,505.428105 l 61.982875,4.334265 M 636.560688,498.565098 l -67.664229,-4.731544 M 739.585020,509.779028 l 99.142146,6.932694 M 693.969645,506.589291 l -3.557188,-0.248743 M 569.264030,497.869024 l 67.522538,4.721636 M 830.421463,520.140699 l -88.080136,-6.159163 M 688.146415,510.191858 l 6.598785,0.461432 M 637.646468,506.660558 l -68.040244,-4.757837 M 745.430347,518.207309 l 74.772651,5.228613 M 696.482392,514.784534 l -11.171079,-0.781158 M 569.948419,505.936417 l 67.593479,4.726597 M 811.692640,526.850587 l -64.214973,-4.490348 M 682.311947,517.803408 l 16.465284,1.151365 M 638.999211,514.774686 l -68.708598,-4.804573 M 746.824151,526.324308 l 52.258480,3.654269 M 701.436139,523.150469 l -18.938942,-1.324340 M 570.892948,514.022000 l 70.823307,4.952448 M 787.205684,533.157827 l -41.833429,-2.925278 M 684.451543,525.972558 l 19.479886,1.362166 M 643.298079,523.094827 l -71.411723,-4.993594 M 741.226540,533.952420 l 14.204894,0.993303 M 706.185173,531.502089 l -20.182918,-1.411327 M 573.152029,522.199505 l 71.617544,5.007987 M 754.328151,538.878342 l -22.216297,-1.553515 M 698.190571,534.952820 l 10.176290,0.711596 M 690.376354,534.406396 l -2.824418,-0.197503 M 574.498308,526.303414 l 72.086741,5.040796 M 753.256822,542.813195 l -21.608320,-1.511001 M 702.848862,539.288327 l 7.594189,0.531037 M 648.267137,535.471601 l -72.306253,-5.056146 M 733.133375,545.415794 l 19.177856,1.341046 M 724.667311,544.823789 l -2.388960,-0.167052 M 710.107882,543.805694 l 1.515001,0.105939 M 644.507611,539.218477 l -66.982163,-4.683849 M 733.865361,549.476747 l 17.833623,1.247048 M 729.206678,549.150980 l -7.362870,-0.514862 M 579.124346,538.656201 l 73.492941,5.139127 M 751.113305,554.692608 l -27.732587,-1.939251 M 580.943625,542.793185 l 74.560668,5.213790 M 750.517548,558.660716 l -23.936069,-1.673773 M 689.060951,554.363252 l 1.766691,0.123539 M 657.362920,552.146710 l -74.589291,-5.215791 M 730.621140,561.279191 l 18.632549,1.302915 M 664.212247,556.635429 l -79.253215,-5.541925 M 739.080641,565.880505 l 6.879983,0.481095 M 667.838549,560.898773 l -80.694112,-5.642682 M 682.149639,565.909269 l 13.478264,0.942492 M 669.481983,565.023460 l -79.903462,-5.587394 M 847.058010,581.450553 l 9.774803,0.683521 M 696.911328,570.951275 l -104.496632,-7.307116 M 817.919207,583.422737 l 39.916323,2.791221 M 760.491760,579.407019 l -5.526841,-0.386474 M 595.714404,567.884664 l 99.796464,6.978449 M 854.613273,589.998404 l -72.565574,-5.074279 M 599.512492,572.160020 l 93.655531,6.549033 M 849.334077,593.639014 l -75.504193,-5.279768 M 603.868155,576.474365 l 91.359458,6.388476 M 846.185646,597.428622 l -74.536918,-5.212129 M 608.320710,580.795485 l 93.259072,6.521310 M 842.646455,601.190905 l -70.804443,-4.951129 M 613.058185,585.136530 l 93.401939,6.531300 M 838.778088,604.930170 l -66.969599,-4.682971 M 727.552047,597.152488 l 5.116915,0.357810 M 709.545666,595.893359 l -91.654465,-6.409105 M 771.128018,604.209384 l 61.741610,4.317394 M 733.065024,601.547760 l -10.407577,-0.727769 M 623.159000,593.862383 l 88.540087,6.191326 M 821.342440,611.730486 l -12.718148,-0.889340 M 768.906862,608.063833 l 33.894261,2.370118 M 743.146535,606.262496 l -114.493592,-8.006172 M 765.441222,611.831260 l 58.566135,4.095343 M 760.747770,611.503062 l -8.260120,-0.577604 M 634.711519,602.689749 l 111.056259,7.765810 M 824.381285,619.962518 l -62.078868,-4.340977 M 640.975027,607.137503 l 117.074422,8.186641 M 821.897172,623.798580 l -174.417284,-12.196445 M 654.150824,616.078380 l 165.372008,11.563937 M 818.127884,631.554541 l -156.766531,-10.962184 M 784.544764,633.215948 l 29.430454,2.057978 M 783.324633,633.130628 l -113.220514,-7.917150 M 783.683195,637.165468 l 20.562337,1.437859 M 780.186029,636.920923 l -97.037597,-6.785530 M 734.880106,637.762592 l 70.046062,4.898098 M 722.314606,636.883926 l -19.571565,-1.368577 M 739.170673,642.072385 l 66.629858,4.659214 M 803.549929,650.583989 l -59.723993,-4.176308 M 748.699234,650.758222 l 49.319946,3.448787 M 796.782671,658.130311 l -43.018221,-3.008127 M 758.921085,659.492539 l 35.926416,2.512220 M 787.534884,665.503178 l -23.414983,-1.637335 M 769.318718,668.239147 l 18.685562,1.306622 M 789.408540,673.653732 l -14.678242,-1.026403 M 780.345910,677.029779 l 8.142599,0.569386"
       id="path11" />
  </g>
  <g
     inkscape:label="fill-6f6f6f"
     inkscape:groupmode="layer"
     id="fill-6f6f6f">
    <path
       style="stroke:#6f6f6f"
       d="M 918.795983,385.821760 l -51.869599,-1.811326 M 828.585527,387.674590 l 105.923978,3.698947 M 930.478016,396.235801 l -122.692865,-4.284529 M 558.105896,383.232281 l 4.144698,0.144736 M 926.289657,401.092588 l -36.586723,-1.277637 M 794.141369,396.477869 l 91.333072,3.189421 M 564.570889,388.461091 l -6.370759,-0.222472 M 791.213191,401.378662 l 137.262638,4.793317 M 752.922196,400.041511 l -5.819256,-0.203213 M 558.893921,393.265894 l 6.757558,0.235979 M 931.086487,411.266193 l -132.209087,-4.616843 M 769.248436,405.614684 l 13.822951,0.482708 M 723.153142,404.005000 l -8.354165,-0.291734 M 577.541918,398.920145 l 8.567580,0.299186 M 569.754896,398.648216 l -10.294661,-0.359497 M 776.996563,410.888302 l 155.433963,5.427874 M 715.457353,408.739305 l -13.114221,-0.457959 M 580.006565,404.009260 l 14.862698,0.519017 M 574.510902,403.817347 l -16.424727,-0.573564 M 782.447456,416.081699 l 138.900362,4.850508 M 724.311109,414.051533 l -5.761799,-0.201206 M 692.349565,412.935411 l 13.042537,0.455455 M 603.330484,409.826796 l -21.336049,-0.745071 M 556.843863,408.203448 l 20.023607,0.699240 M 894.882508,425.011065 l -96.070071,-3.354841 M 685.427205,417.696725 l 9.406786,0.328492 M 610.806168,415.090901 l -30.546632,-1.066712 M 555.053951,413.143991 l 20.406850,0.712623 M 891.622593,429.900274 l -85.108072,-2.972039 M 778.010394,425.932849 l 15.174292,0.529898 M 683.395647,422.628829 l -6.407915,-0.223769 M 578.239058,418.956680 l 38.416213,1.341524 M 573.214068,418.781204 l -19.741631,-0.689393 M 783.041080,431.111572 l 110.150840,3.846552 M 710.422401,428.575672 l -1.189005,-0.041521 M 698.360579,428.154464 l 5.826276,0.203458 M 679.784929,427.505788 l -42.095276,-1.469999 M 578.699319,423.975800 l 43.801287,1.529575 M 570.426387,423.686903 l -18.311358,-0.639447 M 842.343014,438.185489 l 67.475595,2.356300 M 768.527893,435.607808 l -1.538102,-0.053712 M 698.572105,433.164898 l 2.861638,0.099931 M 676.548275,432.395809 l -95.989677,-3.352033 M 550.431611,427.991718 l 16.608011,0.579965 M 919.158751,445.871001 l -54.117365,-1.889820 M 777.862480,440.936827 l 3.291861,0.114954 M 709.427033,438.547008 l -16.268877,-0.568122 M 591.437144,434.426711 l 88.312870,3.083953 M 561.950180,433.397003 l -14.576410,-0.509019 M 885.883475,449.712051 l 34.437334,1.202578 M 811.996679,447.131867 l -33.505871,-1.170051 M 710.691202,443.594202 l 10.029735,0.350246 M 672.584143,442.263474 l -53.665453,-1.874039 M 592.171325,439.455396 l 20.644452,0.720920 M 570.711586,438.706006 l -12.384772,-0.432486 M 901.706420,455.267648 l 13.599640,0.474910 M 854.317963,453.612806 l -64.163439,-2.240637 M 715.513363,448.765643 l 9.207604,0.321537 M 701.099244,448.262291 l -2.771280,-0.096775 M 621.221068,445.472884 l 59.591425,2.080978 M 617.204320,445.332616 l -23.361318,-0.815795 M 544.713886,442.801194 l 44.223735,1.544327 M 538.467330,442.583059 l -5.239667,-0.182973 M 825.394382,457.605820 l 46.147481,1.611506 M 775.027469,455.846969 l -5.109944,-0.178443 M 698.853782,453.186925 l 42.892244,1.497830 M 682.814070,452.626806 l -137.692248,-4.808319 M 840.129768,463.123439 l 52.687993,1.839905 M 779.658547,461.011738 l -229.779251,-8.024068 M 856.082968,468.683585 l 43.064451,1.503844 M 790.992249,466.410567 l -88.578729,-3.093237 M 554.463217,458.150791 l 130.547121,4.558806 M 901.146488,475.260285 l -24.986383,-0.872544 M 775.171966,470.861158 l 34.795283,1.215078 M 760.145931,470.336438 l -46.628372,-1.628299 M 558.350463,463.289585 l 120.283812,4.200403 M 853.451631,478.597792 l -67.437598,-2.354973 M 716.544477,473.816889 l 45.445212,1.586982 M 677.632450,472.458051 l -12.721273,-0.444237 M 561.435000,468.400347 l 100.649122,3.514745 M 875.926090,484.385665 l -76.908234,-2.685695 M 719.315397,478.916699 l 47.685333,1.665209 M 672.477753,477.281093 l -109.063588,-3.808584 M 811.072863,487.123988 l 69.013760,2.410014 M 781.588331,486.094366 l -62.222575,-2.172860 M 565.023498,478.531755 l 95.818542,3.346057 M 885.236194,494.716877 l -65.230334,-2.277893 M 715.692497,488.796280 l 83.677271,2.922075 M 650.821911,486.530950 l -83.846696,-2.927991 M 846.527250,498.368178 l 37.582345,1.312404 M 836.872930,498.031042 l -14.665401,-0.512127 M 775.836836,495.899615 l 43.017241,1.502195 M 771.054892,495.732625 l -49.813312,-1.739519 M 686.851712,492.792186 l 9.565413,0.334032 M 646.967207,491.399388 l -79.094571,-2.762043 M 786.595661,501.278369 l 81.356875,2.841045 M 779.265264,501.022386 l -52.364472,-1.828608 M 680.055581,497.557907 l 19.661232,0.686585 M 638.449822,496.105002 l -70.022504,-2.445240 M 732.215771,504.382429 l 133.762122,4.671076 M 696.697555,503.142105 l -4.552785,-0.158987 M 568.982000,498.682180 l 68.710091,2.399409 M 853.366769,513.616163 l -116.392327,-4.064510 M 688.415896,507.855951 l 6.965654,0.243246 M 638.778072,506.122560 l -69.317810,-2.420631 M 740.248281,514.669026 l 98.042275,3.423712 M 696.389650,513.137449 l -10.672825,-0.372703 M 569.933362,508.721498 l 69.282313,2.419392 M 824.786799,522.624224 l -81.657789,-2.851553 M 680.929528,517.600617 l 18.043994,0.630110 M 641.957209,516.239674 l -71.400595,-2.493364 M 745.896692,524.872368 l 66.434762,2.319953 M 702.196318,523.346317 l -20.625371,-0.720254 M 571.580681,518.785119 l 73.173798,2.555285 M 792.387567,531.498913 l -48.250746,-1.684953 M 683.800328,527.706963 l 21.489285,0.750422 M 646.192057,526.393653 l -72.974699,-2.548333 M 737.454884,534.583669 l 18.391170,0.642234 M 707.994625,533.554894 l -22.242847,-0.776737 M 574.892507,528.906866 l 74.047395,2.585792 M 754.437797,540.179773 l -24.067991,-0.840473 M 687.696806,537.849126 l 22.800136,0.796198 M 650.868917,536.563068 l -74.061378,-2.586280 M 732.067123,544.401620 l 21.177009,0.739517 M 724.685405,544.143844 l -3.472999,-0.121280 M 707.492910,543.543469 l 5.091437,0.177797 M 697.804471,543.205142 l -6.388475,-0.223090 M 578.722571,539.046710 l 75.010259,2.619416 M 752.234442,550.108926 l -18.915684,-0.660550 M 721.144436,549.023239 l 9.347833,0.326434 M 697.199874,548.187076 l -8.154977,-0.284778 M 580.989982,544.128937 l 76.764275,2.680668 M 751.294151,555.079138 l -27.957221,-0.976288 M 687.715890,552.858936 l 12.903609,0.450604 M 663.555808,552.015247 l -80.210252,-2.801004 M 727.866320,559.264068 l 22.533012,0.786870 M 698.659657,558.244149 l -11.334163,-0.395798 M 585.931884,554.307608 l 81.613397,2.850003 M 748.691036,564.994330 l -14.285969,-0.498877 M 684.160111,562.740861 l 13.082908,0.456865 M 672.629517,562.338204 l -83.870677,-2.928829 M 592.245581,564.534183 l 109.506097,3.824037 M 754.336311,575.197563 l -1.133289,-0.039575 M 596.566902,569.688134 l 102.737375,3.587668 M 857.833331,583.814807 l -38.641893,-1.349405 M 755.435514,580.238996 l 7.797298,0.272288 M 696.393686,578.177210 l -95.157841,-3.322985 M 774.981341,585.924599 l 81.966405,2.862330 M 696.982914,583.200834 l -90.413515,-3.157310 M 771.387745,590.802156 l 79.420707,2.773432 M 704.434739,588.464105 l -92.317990,-3.223815 M 771.612413,595.813049 l 74.964216,2.617808 M 733.330613,594.476219 l -5.418855,-0.189231 M 617.915065,590.445819 l 100.134435,3.496772 M 841.034438,603.240367 l -69.564353,-2.429241 M 738.054179,599.644217 l 2.010981,0.070225 M 734.434932,599.517830 l -17.836606,-0.622868 M 624.199827,595.668336 l 87.404212,3.052222 M 835.284792,608.042633 l -65.441000,-2.285250 M 753.188236,605.175758 l 6.259292,0.218579 M 747.779161,604.986869 l -116.808603,-4.079046 M 807.411440,612.072322 l 14.821473,0.517577 M 803.528124,611.936713 l -165.310718,-5.772777 M 645.854168,611.433665 l 179.700551,6.275282 M 823.392019,622.636471 l -169.362262,-5.914261 M 663.147929,622.043672 l 157.263777,5.491772 M 818.164649,632.460023 l -144.292012,-5.038788 M 693.512301,633.110115 l 112.556497,3.930559 M 805.386226,642.019886 l -69.766529,-2.436301 M 741.381544,644.787841 l 64.385182,2.248380 M 803.023583,651.943476 l -55.796142,-1.948444 M 753.191987,655.206366 l 44.682301,1.560340 M 796.011591,661.704707 l -36.704170,-1.281738 M 765.422855,665.639573 l 23.186444,0.809688 M 789.312524,671.476866 l -17.705264,-0.618281 M 778.286279,676.094869 l 11.865303,0.414346"
       id="path14" />
  </g>
  <g
     inkscape:label="fill-8f8f8f"
     inkscape:groupmode="layer"
     id="fill-8f8f8f">
    <path
       style="stroke:#8f8f8f"
       d="M 562.286974,382.289443 l -4.350601,0.075940 M 557.760531,388.369366 l 8.098466,-0.141359 M 931.076668,387.854023 l -119.099149,2.078883 M 574.327208,394.081108 l 1.679692,-0.029319 M 568.276292,394.186727 l -10.707335,0.186897 M 784.703452,396.409891 l 151.958412,-2.652444 M 761.304462,396.818322 l -7.308181,0.127565 M 577.362434,400.029042 l 10.853664,-0.189451 M 572.933017,400.106358 l -15.644997,0.273084 M 789.459991,402.327779 l 141.754190,-2.474329 M 780.092889,402.491283 l -9.171666,0.160092 M 713.012689,403.662172 l 13.508043,-0.235784 M 597.791499,405.673365 l -17.594810,0.307119 M 556.375046,406.396292 l 20.896481,-0.364749 M 931.637220,405.846980 l -162.378343,2.834325 M 751.988901,408.982753 l 2.005587,-0.035008 M 722.810390,409.492066 l -25.578891,0.446481 M 580.270143,411.980115 l 26.708094,-0.466192 M 576.513605,412.045686 l -21.957764,0.383274 M 778.212090,414.525940 l 154.872814,-2.703315 M 756.871682,414.898438 l -5.415592,0.094530 M 717.951300,415.577796 l 7.383036,-0.128871 M 700.787959,415.877383 l -15.081100,0.263242 M 577.531218,418.028838 l 36.730780,-0.641138 M 573.909932,418.092047 l -21.642902,0.377778 M 786.359043,420.384648 l 146.291857,-2.553534 M 700.069620,421.890836 l -6.235640,0.108843 M 675.232310,422.324373 l 10.835444,-0.189133 M 621.894249,423.255392 l -44.698321,0.780212 M 549.722800,424.515149 l 20.799029,-0.363048 M 897.796877,424.440408 l -120.677752,2.106438 M 691.003587,428.049998 l 21.869075,-0.381726 M 685.134653,428.152441 l -1.943195,0.033919 M 580.500906,429.978829 l 101.057093,-1.763958 M 566.475572,430.223643 l -19.861627,0.346686 M 783.572790,432.435110 l 112.664824,-1.966572 M 771.152624,432.651905 l -3.078409,0.053734 M 690.459477,434.060409 l 11.648359,-0.203323 M 679.191843,434.257087 l -89.909148,1.569370 M 574.502156,436.084452 l 1.215526,-0.021217 M 566.404062,436.225805 l -6.490835,0.113298 M 822.838234,437.750644 l 75.131438,-1.311424 M 813.103348,437.920567 l -5.075472,0.088593 M 775.285292,438.580683 l 3.775753,-0.065906 M 768.576432,438.697787 l -3.620153,0.063190 M 695.945783,439.965560 l 18.951111,-0.330793 M 690.897543,440.053677 l -102.395637,1.787322 M 532.708376,442.814879 l 51.742979,-0.903177 M 917.029881,442.107436 l -64.680603,1.129004 M 811.426929,443.950743 l 9.996808,-0.174495 M 805.802373,444.048920 l -29.461005,0.514244 M 748.790156,445.044072 l 3.735245,-0.065199 M 724.608355,445.466166 l -13.914698,0.242882 M 619.770600,447.296116 l 73.012322,-1.274435 M 618.887863,447.311524 l -74.266827,1.296332 M 864.690920,449.021930 l 63.546599,-1.109210 M 849.814175,449.281605 l -78.693407,1.373599 M 550.685135,454.502921 l 185.572851,-3.239186 M 927.366795,453.928833 l -49.663592,0.866881 M 805.065584,456.063608 l 62.080699,-1.083623 M 778.104033,456.534224 l -222.329312,3.880773 M 830.104963,461.627458 l 64.821936,-1.131471 M 788.743171,462.349431 l -87.278107,1.523445 M 559.777068,466.346049 l 127.176335,-2.219871 M 903.234897,466.351884 l -61.190856,1.068090 M 764.215420,468.778478 l 39.845998,-0.695514 M 762.039678,468.816456 l -48.767587,0.851241 M 562.741402,472.295220 l 120.010789,-2.094796 M 906.849205,472.289710 l -58.461471,1.020449 M 779.879565,474.505974 l 44.239967,-0.772212 M 763.319090,474.795038 l -46.899853,0.818640 M 564.494680,478.265531 l 111.745836,-1.950531 M 903.774632,478.344291 l -31.893394,0.556701 M 791.598708,480.302329 l 79.929557,-1.395176 M 771.442416,480.654159 l -53.004968,0.925205 M 677.356730,482.296430 l 8.761746,-0.152937 M 662.106133,482.562631 l -95.329534,1.663983 M 802.742381,486.108730 l 79.670804,-1.390659 M 790.329475,486.325398 l -76.129577,1.328847 M 567.820118,490.209313 l 81.389190,-1.420654 M 883.671915,490.697013 l -163.942096,2.861620 M 682.533266,494.207902 l 18.336607,-0.320067 M 646.503448,494.836804 l -78.040025,1.362194 M 726.755916,499.436906 l 161.392146,-2.817110 M 723.531232,499.493193 l -6.142704,0.107221 M 681.695201,500.223444 l 23.597506,-0.411896 M 639.812309,500.954513 l -70.710085,1.234249 M 720.396680,505.548821 l 156.571075,-2.732958 M 710.333562,505.724474 l -22.117589,0.386064 M 569.724630,508.178812 l 70.334739,-1.227697 M 867.113193,508.988789 l -139.947718,2.442797 M 711.884228,511.698321 l 2.901109,-0.050639 M 697.228797,511.954132 l -16.030130,0.279807 M 570.433129,514.167359 l 70.482608,-1.230278 M 849.788168,515.292112 l -118.690306,2.071747 M 719.621878,517.564173 l 6.155270,-0.107441 M 699.604614,517.913576 l -20.554004,0.358771 M 571.488637,520.149849 l 73.960392,-1.290983 M 830.107843,521.636548 l -94.965052,1.657621 M 681.709980,524.226842 l 21.710077,-0.378951 M 648.231586,524.811209 l -74.749614,1.304759 M 742.104999,529.173557 l 69.795628,-1.218287 M 706.974661,529.786759 l -22.973983,0.401012 M 575.515930,532.081380 l 77.201967,-1.347565 M 786.627382,534.397330 l -20.289720,0.354158 M 727.200263,535.434634 l 29.464958,-0.514313 M 709.927097,535.736138 l -24.226820,0.422881 M 660.473723,536.599350 l 5.402267,-0.094297 M 656.675005,536.665657 l -78.917881,1.377517 M 729.992735,541.386805 l 24.835006,-0.433497 M 722.576890,541.516249 l -0.894329,0.015611 M 687.338449,542.131339 l 25.244921,-0.440652 M 657.232140,542.656846 l -76.871534,1.341798 M 732.582142,547.342521 l 20.660866,-0.360637 M 728.961307,547.405723 l -8.403613,0.146686 M 713.302978,547.679040 l 1.219981,-0.021295 M 701.667320,547.882141 l -14.038911,0.245050 M 583.219460,549.949656 l 80.277872,-1.401255 M 752.329666,552.998741 l -30.283233,0.528596 M 686.442749,554.148801 l 17.287641,-0.301757 M 668.740385,554.457797 l -82.439456,1.438986 M 726.742406,559.446282 l 24.538645,-0.428324 M 703.928958,559.844492 l -19.425192,0.339068 M 590.024455,561.832703 l 82.875575,-1.446599 M 749.059843,565.057643 l -14.237179,0.248511 M 594.455112,567.756279 l 108.627064,-1.896092 M 701.166375,571.894541 l -101.558012,1.772702 M 752.303107,577.002860 l 9.280103,-0.161985 M 698.020905,577.950359 l -92.444455,1.613624 M 819.535650,581.830226 l 39.140295,-0.683196 M 780.510786,582.511407 l -9.356480,0.163318 M 756.837738,582.924622 l 6.816113,-0.118976 M 703.534452,583.855034 l -91.703490,1.600690 M 771.026201,588.677875 l 87.204029,-1.522152 M 714.014152,589.673024 l -95.639296,1.669390 M 770.668399,594.685035 l 81.349462,-1.419960 M 735.267515,595.302959 l -109.972275,1.919573 M 770.912638,600.681685 l 75.530570,-1.318391 M 751.697698,601.017083 l -33.874692,0.591285 M 632.732085,603.093636 l 83.526907,-1.457968 M 839.599237,605.483670 l -72.242045,1.260990 M 641.052632,608.949314 l 120.130634,-2.096888 M 825.711190,611.727001 l -176.116854,3.074131 M 659.109677,620.635955 l 166.535887,-2.906895 M 823.290087,623.771089 l -152.474234,2.661448 M 688.326374,632.127804 l 131.651390,-2.297984 M 815.095140,635.915961 l -109.372109,1.909097 M 738.979083,643.245485 l 66.675887,-1.163832 M 806.099052,648.074816 l -60.550192,1.056908 M 752.121789,655.017907 l 49.085016,-0.856782 M 797.376229,660.228901 l -38.293465,0.668415 M 766.106576,666.775629 l 24.563250,-0.428753 M 790.079149,672.358100 l -17.015925,0.297014 M 780.902432,678.519194 l 9.073899,-0.158385"
       id="path17" />
  </g>
  <g
     inkscape:label="fill-afafaf"
     inkscape:groupmode="layer"
     id="fill-afafaf">
    <path
       style="stroke:#afafaf"
       d="M 562.994251,382.273241 l -5.614744,0.294256 M 556.926497,389.600845 l 10.415988,-0.545879 M 580.801092,395.359237 l -6.538225,0.342654 M 556.539641,396.630726 l 14.867979,-0.779198 M 920.335784,384.574584 l -118.999359,6.236492 M 578.114953,402.509618 l 14.260311,-0.747351 M 575.686588,402.636883 l -19.727267,1.033862 M 773.256128,399.292309 l 165.316012,-8.663845 M 759.101294,400.034132 l -15.448337,0.809613 M 717.039818,402.238481 l 14.109584,-0.739452 M 603.063461,408.211729 l -22.333842,1.170467 M 554.325670,410.765968 l 23.485726,-1.230835 M 934.906561,397.830175 l -188.439968,9.875720 M 695.128930,410.396388 l 29.009590,-1.520328 M 612.501511,414.726708 l -34.865664,1.827232 M 551.593083,417.918783 l 23.785162,-1.246528 M 933.717277,404.902109 l -164.905930,8.642354 M 707.781974,416.742877 l 57.904622,-3.034653 M 700.439984,417.127654 l -19.476200,1.020704 M 575.929454,423.652974 l 44.086533,-2.310477 M 571.397912,423.890462 l -22.960768,1.203323 M 775.452534,420.206019 l 159.213236,-8.344012 M 761.171025,420.954481 l -12.882089,0.675122 M 716.881332,423.275606 l 7.380691,-0.386806 M 716.118223,423.315599 l -7.453853,0.390640 M 573.155710,430.807947 l 131.378299,-6.885245 M 566.661724,431.148282 l -22.174375,1.162110 M 775.426833,427.216973 l 156.942285,-8.224997 M 767.979749,427.607258 l -13.952649,0.731227 M 586.265638,437.130491 l 123.012026,-6.446787 M 581.686261,437.370486 l -28.560507,1.496793 M 534.847482,439.825202 l 18.184642,-0.953017 M 897.618477,427.822786 l -115.418229,6.048813 M 761.350501,434.964288 l 16.102875,-0.843916 M 714.333443,437.428348 l -173.357045,9.085258 M 771.509358,441.441492 l 127.224088,-6.667532 M 765.925100,441.734150 l -1.078975,0.056547 M 741.924280,442.991980 l 10.638199,-0.557524 M 737.553288,443.221054 l -31.014296,1.625390 M 548.488928,453.129497 l 147.056954,-7.706928 M 916.169800,440.869766 l -147.125192,7.710505 M 747.729942,449.697324 l 12.919713,-0.677093 M 742.697153,449.961082 l -187.960400,9.850587 M 788.297591,454.580870 l 141.463401,-7.413783 M 781.195970,454.953051 l -221.818307,11.625005 M 810.450728,460.429480 l 120.228916,-6.300931 M 796.028646,461.185309 l -92.838132,4.865440 M 562.431877,473.427597 l 127.726069,-6.693840 M 905.478881,462.458872 l -73.597316,3.857072 M 713.459282,472.522193 l 100.459711,-5.264870 M 687.870418,473.863248 l -122.973009,6.444742 M 716.305825,479.382618 l 192.373009,-10.081842 M 693.771929,480.563570 l -127.090478,6.660530 M 712.235792,486.605526 l 199.447526,-10.452602 M 652.646805,489.728453 l -85.195354,4.464899 M 716.998502,493.365530 l 168.558390,-8.833771 M 706.968403,493.891185 l -30.188067,1.582090 M 568.176190,501.164976 l 79.101408,-4.145529 M 885.947915,491.520872 l -203.733985,10.677246 M 568.859859,508.138753 l 73.399371,-3.846698 M 889.896411,498.323547 l -206.245445,10.808866 M 664.057775,510.159248 l 2.822030,-0.147896 M 646.259226,511.092031 l -76.264390,3.996847 M 724.452842,514.003683 l 147.360770,-7.722851 M 722.399724,514.111283 l -15.235550,0.798461 M 678.531227,516.410333 l 20.933094,-1.097057 M 650.737996,517.866915 l -78.919333,4.135987 M 719.926591,521.250501 l 136.611166,-7.159488 M 703.080924,522.133345 l -23.571281,1.235318 M 663.089896,524.229185 l 0.826738,-0.043328 M 650.591548,524.884196 l -76.518438,4.010161 M 726.801684,527.899799 l 102.231797,-5.357741 M 707.273178,528.923244 l -24.255193,1.271161 M 576.498863,535.776836 l 91.164839,-4.777747 M 802.874667,530.922589 l -77.345072,4.053483 M 684.802674,537.110480 l 26.243601,-1.375369 M 668.558024,537.961826 l -89.302583,4.680150 M 729.070782,541.800093 l 26.534426,-1.390610 M 724.206990,542.054994 l -4.118834,0.215859 M 686.398837,544.036435 l 27.909722,-1.462687 M 665.367220,545.138655 l -82.994093,4.349536 M 719.173023,549.328419 l 34.644515,-1.815642 M 716.589437,549.463819 l -2.600488,0.136286 M 686.357252,551.048221 l 18.251098,-0.956500 M 672.520850,551.773356 l -86.518577,4.534246 M 722.407848,556.168496 l 29.928352,-1.568478 M 705.325766,557.063729 l -20.915299,1.096124 M 590.312032,563.091344 l 86.346610,-4.525234 M 750.911357,561.684296 l -23.509177,1.232064 M 595.444829,569.831952 l 109.436411,-5.735319 M 747.785658,568.857714 l -6.971005,0.365335 M 728.393190,569.874030 l 2.540360,-0.133135 M 702.994856,571.205100 l -101.536348,5.321295 M 750.409873,575.729791 l 8.837663,-0.463162 M 699.481239,578.398847 l -91.151587,4.777052 M 769.187492,581.755304 l 8.833490,-0.462944 M 764.921292,581.978886 l -9.521731,0.499013 M 744.612356,583.043232 l 3.402969,-0.178342 M 741.193275,583.222419 l -2.253095,0.118080 M 615.576273,589.805727 l 95.620764,-5.011272 M 859.148601,584.050248 l -89.221236,4.675887 M 748.725299,589.837288 l 5.129576,-0.268830 M 741.185776,590.232418 l -4.676661,0.245093 M 623.233511,596.414034 l 111.250306,-5.830381 M 855.453662,591.253498 l -85.368590,4.473978 M 631.710317,602.979390 l 121.111435,-6.347181 M 847.241381,598.693492 l -77.738307,4.074092 M 640.874769,609.508708 l 123.856888,-6.491064 M 839.861957,606.089838 l -189.528744,9.932781 M 661.473724,622.448375 l 164.077884,-8.598958 M 825.780546,620.847026 l -150.795402,7.902852 M 695.316902,634.693942 l 126.149330,-6.611206 M 816.599620,635.347391 l -82.443446,4.320678 M 741.335716,646.301411 l 65.414940,-3.428252 M 806.226834,649.910218 l -57.249195,3.000303 M 756.694264,659.515717 l 42.807758,-2.243460 M 794.735789,664.531652 l -30.270860,1.586429 M 772.693194,672.696461 l 17.842344,-0.935078 M 790.168247,678.790239 l -8.765904,0.459402"
       id="path20" />
  </g>
  <g
     inkscape:label="fill-cecece"
     inkscape:groupmode="layer"
     id="fill-cecece">
    <path
       style="stroke:#cecece"
       d="M 560.854415,378.597116 l -4.399808,0.462438 M 556.121865,387.138593 l 11.263194,-1.183809 M 577.515133,392.934136 l -21.561169,2.266170 M 554.909913,403.354107 l 35.819719,-3.764804 M 601.947643,406.454308 l -49.169681,5.167942 M 770.373200,396.796135 l 139.214687,-14.632053 M 767.126919,397.137333 l -57.348350,6.027554 M 549.689969,419.990877 l 62.456875,-6.564482 M 937.421214,387.282748 l -250.437730,26.322066 M 573.355329,425.547614 l 47.382073,-4.980057 M 571.274138,425.766356 l -25.661278,2.697109 M 536.063127,437.511249 l 405.334993,-42.602425 M 936.698244,403.446867 l -400.750735,42.120600 M 546.775081,452.473509 l 390.094791,-41.000615 M 933.447743,419.876641 l -379.747320,39.913052 M 558.755251,467.302475 l 340.641956,-35.802912 M 911.828677,438.237029 l -349.610659,36.745561 M 565.095291,482.724243 l 363.660746,-38.222285 M 932.856305,452.115069 l -366.314570,38.501213 M 567.226988,498.588325 l 346.832806,-36.453597 M 915.478200,470.029714 l -249.265743,26.198885 M 567.936133,506.557857 l 86.074159,-9.046759 M 912.978437,478.336516 l -254.923869,26.793578 M 569.047518,514.485112 l 84.161920,-8.845774 M 887.168198,489.093347 l -316.072148,33.220521 M 573.698438,530.084413 l 316.925522,-33.310215 M 874.102895,506.554698 l -163.411618,17.175253 M 576.565761,537.827111 l 130.024882,-13.666166 M 849.840050,517.148892 l -134.355073,14.121287 M 579.603235,545.551926 l 131.982992,-13.871971 M 812.989446,529.066113 l -95.322756,10.018825 M 583.181607,553.219890 l 133.677052,-14.050024 M 755.679128,543.133737 l -168.115016,17.669600 M 592.832312,568.293693 l 161.034218,-16.925378 M 752.487482,559.557325 l -40.641471,4.271591 M 599.188974,575.669647 l 108.107348,-11.362540 M 749.574288,567.907580 l -142.714718,14.999921 M 614.575591,590.140581 l 145.906693,-15.335411 M 781.479730,580.642315 l -26.846721,2.821704 M 622.798725,597.320361 l 129.050900,-13.563796 M 861.704783,580.254389 l -229.676821,24.140007 M 642.064923,611.383534 l 217.585751,-22.869184 M 849.747225,597.599311 l -197.058830,20.711718 M 665.277309,625.031947 l 175.858054,-18.483426 M 827.378354,616.038507 l -147.789240,15.533275 M 701.001298,637.365337 l 123.632252,-12.994273 M 820.778573,632.820304 l -85.556391,8.992339 M 743.375692,648.999741 l 64.288710,-6.757016 M 807.608987,650.292616 l -56.106081,5.896987 M 759.921343,663.348855 l 39.991949,-4.203323 M 794.094096,667.801221 l -25.777466,2.709321 M 776.887479,677.653775 l 14.993398,-1.575870"
       id="path23" />
  </g>
</svg>
