<?xml version="1.0" encoding="UTF-8" standalone="no"?>
<!-- Created with Inkscape (http://www.inkscape.org/) -->

<svg
   xmlns:dc="http://purl.org/dc/elements/1.1/"
   xmlns:cc="http://creativecommons.org/ns#"
   xmlns:rdf="http://www.w3.org/1999/02/22-rdf-syntax-ns#"
   xmlns:svg="http://www.w3.org/2000/svg"
   xmlns="http://www.w3.org/2000/svg"
   xmlns:sodipodi="http://sodipodi.sourceforge.net/DTD/sodipodi-0.dtd"
   xmlns:inkscape="http://www.inkscape.org/namespaces/inkscape"
   id="svg2"
   version="1.1"
   inkscape:version="0.48.3.1 r9886"
   width="1500"
   height="1911"
   sodipodi:docname="hantologie-_0000_arbre-01_hatched_1398269923.svg">
  <defs
     id="defs27" />
  <sodipodi:namedview
     pagecolor="#ffffff"
     bordercolor="#666666"
     borderopacity="1"
     objecttolerance="10"
     gridtolerance="10"
     guidetolerance="10"
     inkscape:pageopacity="0"
     inkscape:pageshadow="2"
     inkscape:window-width="640"
     inkscape:window-height="480"
     id="namedview25" />
  <metadata
     id="metadata8">
    <rdf:RDF>
      <cc:Work
         rdf:about="">
        <dc:format>image/svg+xml </dc:format>
        <dc:type
           rdf:resource="http://purl.org/dc/dcmitype/StillImage" />
        <dc:title />
      </cc:Work>
    </rdf:RDF>
  </metadata>
  <g
     inkscape:label="fill-040404"
     inkscape:groupmode="layer"
     id="fill-040404">
    <path
       style="stroke:#040404"
       d="M 406.014026,830.683838 l -1.400644,1.175280 M 418.427495,833.321773 l 2.822456,-2.368322 M 412.498145,838.297089 l -0.667820,0.560368 M 423.530782,842.093680 l 3.806716,-3.194214 M 433.230044,847.009106 l -3.375610,2.832473 M 435.949567,857.781228 l 3.173023,-2.662483 M 445.008255,863.234159 l -3.192267,2.678630 M 447.583098,874.127682 l 3.096270,-2.598079 M 456.350482,879.825046 l -2.906104,2.438511 M 459.680555,890.084855 l 2.341040,-1.964366 M 467.517676,896.562803 l -1.856592,1.557865 M 471.298651,906.444262 l 1.326306,-1.112903 M 477.963714,926.959755 l -4.556037,3.822969 M 464.538327,938.224992 l 1.843588,-1.546954 M 483.486160,935.379946 l -3.088482,2.591544 M 471.333812,945.576976 l 0.569931,-0.478229 M 503.433549,931.696172 l -2.050327,1.720429 M 490.964672,942.158802 l 1.528036,-1.282175 M 487.646342,944.943212 l -1.931631,1.620831 M 505.399433,943.100673 l 4.363355,-3.661289 M 497.612200,949.634937 l -2.444713,2.051358 M 490.238114,955.822530 l 1.521439,-1.276639 M 515.898687,947.344825 l -6.633744,5.566372 M 499.277992,961.291245 l 3.094311,-2.596435 M 496.004770,964.037803 l -3.272515,2.745966 M 513.632167,962.300734 l 8.071386,-6.772697 M 512.975454,962.851782 l -2.114346,1.774147 M 503.238301,971.022223 l 3.213725,-2.696635 M 500.525540,973.298500 l -1.970401,1.653362 M 487.283294,984.410064 l 7.431582,-6.235838 M 527.254033,963.924705 l -12.972930,10.885580 M 506.935496,980.973981 l 3.295557,-2.765301 M 505.029732,982.573107 l -2.022126,1.696765 M 494.409980,991.484137 l 4.963468,-4.164845 M 532.778095,972.343539 l -14.364978,12.053648 M 510.823334,990.765771 l 3.809262,-3.196351 M 509.332849,992.016436 l -2.219377,1.862278 M 497.250096,1002.155069 l 6.296561,-5.283442 M 558.072694,964.172923 l -0.770941,0.646897 M 522.852200,993.726426 l 15.282729,-12.823732 M 519.438000,996.591280 l -4.039945,3.389916 M 510.774555,1003.860774 l 2.856119,-2.396568 M 507.858975,1006.307236 l -4.363674,3.661557 M 527.222699,1003.113215 l 15.670057,-13.148739 M 523.860838,1005.934152 l -3.778661,3.170673 M 514.665973,1013.649559 l 3.471450,-2.912893 M 511.845446,1016.016262 l -1.984811,1.665454 M 524.656422,1018.320650 l 23.199943,-19.467064 M 523.363531,1019.405514 l -4.325853,3.629822 M 575.613821,988.616389 l 2.399928,-2.013779 M 553.085083,1007.520244 l -30.595299,25.672504 M 581.396034,996.818609 l 5.076083,-4.259339 M 558.359393,1016.148646 l -30.414756,25.521010 M 427.548086,1125.912365 l 1.692659,-1.420310 M 594.319061,999.028975 l -7.306375,6.130777 M 555.635371,1031.488444 l 8.656236,-7.263444 M 551.612620,1034.863933 l -18.494148,15.518433 M 429.852871,1137.032494 l 4.794115,-4.022740 M 600.300241,1007.064241 l -15.473965,12.984198 M 563.806155,1037.686415 l 7.084285,-5.944421 M 550.140704,1049.153090 l -12.312339,10.331279 M 477.910211,1109.761671 l 2.916416,-2.447164 M 442.826576,1139.200336 l -10.326018,8.664558 M 603.025004,1017.831966 l 3.670913,-3.080262 M 600.420836,1020.017123 l -11.980311,10.052674 M 582.024339,1035.453617 l 4.538255,-3.808048 M 578.064095,1038.776656 l -10.204384,8.562495 M 542.514388,1068.606402 l 13.384677,-11.231078 M 450.261950,1146.015388 l -6.040463,5.068550 M 435.349924,1158.528065 l 6.121893,-5.136878 M 416.875823,1174.029676 l -2.910672,2.442344 M 547.031854,1077.869871 l 60.681382,-50.917725 M 454.840528,1155.227579 l -7.011279,5.883162 M 438.920659,1168.585935 l 5.186197,-4.351736 M 425.369042,1179.957092 l -5.025827,4.217170 M 550.962293,1087.625914 l 64.209487,-53.878157 M 447.328088,1174.585337 l -2.664699,2.235948 M 624.711357,1038.797174 l 7.964942,-6.683380 M 622.155907,1040.941452 l -65.771175,55.188568 M 552.157379,1099.677191 l 1.035709,-0.869063 M 640.405665,1038.682159 l -0.875811,0.734892 M 632.385181,1045.412144 l 2.875446,-2.412785 M 629.079915,1048.185592 l -58.860761,49.390042 M 644.717776,1048.117941 l 2.151106,-1.804992 M 635.772715,1055.623738 l -63.107812,52.953742 M 558.136436,1120.768312 l 3.157963,-2.649846 M 642.383780,1063.130469 l -66.413918,55.727894 M 560.464792,1131.868662 l 3.761024,-3.155873 M 544.559729,1145.214594 l -0.634422,0.532343 M 472.000372,1206.099124 l 1.466778,-1.230773 M 664.938136,1057.259190 l -3.663619,3.074142 M 580.637270,1127.996016 l 67.261848,-56.439391 M 569.503894,1137.338028 l -4.540844,3.810220 M 666.389621,1069.095323 l 5.824904,-4.887675 M 653.843409,1079.622844 l -69.030561,57.923519 M 672.740932,1076.820013 l 6.819367,-5.722128 M 658.281463,1088.952949 l -69.397012,58.231007 M 679.455745,1084.239689 l 8.070194,-6.771697 M 673.114957,1089.560242 l -1.268769,1.064624 M 593.574590,1156.302535 l 66.938685,-56.168226 M 694.600752,1084.585592 l -95.496039,80.130691 M 673.751741,1115.134063 l 28.718119,-24.097363 M 670.588134,1117.788644 l -4.986456,4.184133 M 606.673466,1171.419418 l 51.231984,-42.988738 M 709.879742,1097.873143 l -28.827934,24.189509 M 613.289172,1178.922255 l 48.154590,-40.406499 M 714.684154,1106.895835 l -7.381279,6.193628 M 687.221579,1129.939672 l 18.843529,-15.811598 M 666.216715,1147.564845 l -9.340950,7.837988 M 618.748747,1187.395200 l 34.876415,-29.264787 M 716.010179,1118.837241 l -5.754247,4.828386 M 690.422944,1140.307480 l 17.337510,-14.547898 M 688.225702,1142.151186 l -2.948668,2.474227 M 637.751202,1184.504320 l 12.839067,-10.773256 M 628.867540,1191.958598 l -4.521177,3.793718 M 616.889023,1202.009767 l 1.890245,-1.586104 M 717.162776,1130.924171 l -5.347241,4.486868 M 687.873665,1155.500652 l 23.338119,-19.583007 M 654.502453,1183.502424 l -2.867906,2.406459 M 688.317732,1168.182109 l 40.226224,-33.753810 M 734.866225,1142.177359 l -19.179021,16.093110 M 687.277927,1182.108682 l 18.895605,-15.855295 M 740.296251,1150.675099 l -14.904901,12.506697 M 677.667853,1203.226564 l 34.308238,-28.788030 M 673.296668,1206.894424 l -5.712883,4.793678 M 646.107205,1229.709092 l 0.729680,-0.612274 M 628.646965,1244.359974 l -3.635337,3.050410 M 733.806912,1169.174373 l 13.974698,-11.726164 M 701.233558,1196.506663 l -63.527230,53.305675 M 742.961911,1174.546490 l 14.411304,-12.092520 M 710.166707,1202.064934 l -57.860155,48.550435 M 752.126914,1179.910213 l 14.453972,-12.128323 M 724.683518,1202.937956 l -59.254139,49.720126 M 753.984503,1191.405583 l 21.737153,-18.239637 M 742.437539,1201.094636 l -63.890262,53.610295 M 692.084809,1256.399666 l 92.553108,-77.661279 M 793.179054,1184.625595 l -28.834227,24.194789 M 704.503126,1259.033534 l 56.677101,-47.557734 M 802.153608,1190.149123 l -18.667707,15.664066 M 717.117043,1261.503274 l 61.832675,-51.883775 M 808.465641,1197.906771 l -17.826310,14.958050 M 727.094975,1266.184868 l 58.981734,-49.491551 M 816.236185,1204.440584 l -25.502168,21.398860 M 737.329424,1270.651218 l 50.655647,-42.505134 M 822.776061,1212.007050 l -73.878408,61.991345 M 762.825872,1275.365304 l 66.267141,-55.604733 M 833.474203,1229.138389 l -53.743458,45.096116 M 807.897738,1263.653663 l 16.634080,-13.957650"
       id="path5" />
  </g>
  <g
     inkscape:label="fill-2f2f2f"
     inkscape:groupmode="layer"
     id="fill-2f2f2f">
    <path
       style="stroke:#2f2f2f"
       d="M 331.358835,760.946611 l -2.012540,1.876723 M 343.701248,779.518328 l 1.514638,-1.412422 M 354.014058,784.942080 l -2.183837,2.036461 M 360.232616,794.183783 l 2.197756,-2.049440 M 387.340029,814.027518 l -2.361895,2.202503 M 392.928534,823.856754 l 3.066104,-2.859188 M 404.436653,828.165862 l -3.079235,2.871433 M 416.818509,831.660196 l 3.349485,-3.123445 M 412.635172,835.561221 l -3.506981,3.270313 M 400.495487,846.881661 l 1.209895,-1.128245 M 427.076421,837.135140 l -5.374367,5.011678 M 428.634153,850.723135 l 5.113115,-4.768057 M 440.233977,854.946725 l -4.908112,4.576888 M 441.681322,868.637656 l 5.007283,-4.669367 M 453.010772,873.113376 l -7.994745,7.455220 M 454.607790,886.664734 l 4.696364,-4.379430 M 465.279252,891.754036 l -3.692076,3.442916 M 455.460856,900.909840 l 0.499945,-0.466206 M 481.354599,891.804135 l -1.105354,1.030759 M 466.813875,905.363580 l 4.342659,-4.049595 M 476.804875,911.087424 l -4.853341,4.525813 M 464.012483,923.016522 l 2.845862,-2.653809 M 482.454167,920.859976 l -12.057181,11.243503 M 462.461099,939.503813 l 4.493121,-4.189903 M 496.979481,922.355503 l -1.712126,1.596583 M 476.380596,941.564275 l 12.104509,-11.287638 M 473.405642,944.338464 l -2.708223,2.525459 M 484.997531,948.569455 l 19.102497,-17.813367 M 519.017995,931.885461 l -0.233479,0.217722 M 502.123118,947.640188 l 8.998212,-8.390969 M 499.501354,950.085023 l -4.705635,4.388076 M 490.058343,958.890773 l 3.529224,-3.291055 M 487.695709,961.093965 l -3.207341,2.990894 M 525.867185,940.539090 l 1.364236,-1.272171 M 517.877382,947.989702 l -10.943652,10.205121 M 499.520668,965.107614 l 5.315463,-4.956749 M 498.439251,966.116052 l -22.068941,20.579621 M 532.989418,948.938102 l 1.586782,-1.479698 M 524.109469,957.218789 l -24.343811,22.700971 M 489.091638,989.873444 l 8.698744,-8.111710 M 547.025851,950.889519 l -0.536660,0.500443 M 540.082553,957.364249 l 1.339774,-1.249359 M 530.231878,966.550152 l -15.180949,14.156464 M 493.075944,1001.198620 l 19.960768,-18.613717 M 555.383928,958.136088 l -2.677525,2.496832 M 547.351342,965.626595 l 0.569021,-0.530621 M 536.679088,975.578633 l -16.212958,15.118828 M 497.613830,1012.007576 l 20.879678,-19.470615 M 542.297514,985.379968 l -16.737369,15.607849 M 506.878046,1018.409156 l 16.670975,-15.545936 M 427.522351,1092.409539 l -1.712637,1.597060 M 560.539290,983.409839 l 1.147162,-1.069746 M 547.520791,995.549785 l -33.149239,30.912165 M 423.099074,1111.574914 l 8.385710,-7.819801 M 578.892709,981.335601 l -5.598475,5.220663 M 566.851463,992.564244 l 1.364451,-1.272372 M 553.161635,1005.330216 l -32.910979,30.689985 M 425.873634,1124.028197 l 6.131930,-5.718117 M 587.692419,988.170341 l -8.088345,7.542503 M 573.805368,1001.120225 l 0.103166,-0.096204 M 559.360262,1014.590505 l -32.850752,30.633822 M 503.203682,1066.957363 l 0.513584,-0.478925 M 471.927746,1096.122645 l -2.540855,2.369385 M 428.792093,1136.347292 l 8.350098,-7.786592 M 594.963711,996.430354 l -9.112531,8.497573 M 578.900086,1011.409926 l 1.585804,-1.478786 M 565.902660,1023.530222 l -10.500259,9.791650 M 532.519285,1054.660723 l 20.449335,-19.069313 M 479.738836,1103.879288 l -4.710132,4.392270 M 431.753579,1148.626264 l 11.954520,-11.147770 M 412.673608,1166.418624 l -3.548913,3.309414 M 388.898579,1188.589198 l 7.991802,-7.452476 M 601.200394,1005.655155 l -16.926824,15.784519 M 579.680181,1025.723078 l 1.371522,-1.278965 M 572.906241,1032.039879 l -8.482055,7.909645 M 556.070841,1047.739144 l 0.539529,-0.503119 M 552.232049,1051.318875 l -14.143916,13.189415 M 517.970072,1083.268686 l 1.088032,-1.014606 M 485.664920,1113.393727 l -2.965280,2.765168 M 434.830493,1160.797598 l 16.778448,-15.646156 M 428.274806,1166.910874 l -2.408246,2.245726 M 413.907604,1180.308507 l 7.160144,-6.676942 M 608.371045,1014.009017 l -64.643210,60.280769 M 512.247188,1103.645963 l 2.256626,-2.104338 M 456.515740,1155.616379 l -18.350780,17.112379 M 422.643246,1187.202991 l 4.918279,-4.586369 M 615.388372,1022.505855 l -67.416318,62.866733 M 475.009714,1153.411072 l 3.550824,-3.311197 M 449.663014,1177.047251 l -6.571901,6.128397 M 549.686356,1098.814578 l 77.015774,-71.818371 M 483.788245,1160.265561 l -3.223540,3.006000 M 568.600790,1096.217185 l 67.215926,-62.679865 M 558.753017,1105.400382 l -3.229044,3.011132 M 458.122163,1199.240172 l 4.020360,-3.749046 M 644.665718,1040.326094 l -3.782405,3.527149 M 635.317542,1049.043410 l 2.560808,-2.387992 M 633.846396,1050.415275 l -62.239091,58.038891 M 555.479982,1123.493139 l 8.482210,-7.909789 M 539.362324,1138.523098 l -0.924691,0.862288 M 468.949625,1204.184002 l 3.705610,-3.455537 M 653.731274,1046.912929 l -1.278947,1.192638 M 647.242568,1052.963745 l 1.671633,-1.558823 M 641.589527,1058.235292 l -66.100389,61.639610 M 559.115295,1135.143757 l 8.695895,-8.109053 M 547.009385,1146.432700 l -2.443224,2.278343 M 658.658447,1057.358868 l 4.278771,-3.990018 M 655.533259,1060.273153 l -0.996088,0.928867 M 580.583469,1130.164963 l 67.224321,-62.687693 M 572.682778,1137.532476 l -9.106346,8.491805 M 663.538758,1067.848506 l 8.147895,-7.598035 M 653.938600,1076.800798 l -68.751032,64.111375 M 576.121211,1149.366688 l 2.033673,-1.896430 M 568.200854,1156.752540 l -4.304800,4.014291 M 670.628676,1076.277653 l 8.888831,-8.288969 M 667.260710,1079.418332 l -2.542065,2.370514 M 589.958793,1151.503536 l 69.357056,-64.676501 M 585.256672,1155.888334 l -1.414381,1.318931 M 568.290317,1171.709716 l 4.289620,-4.000136 M 688.238444,1074.896880 l -9.998630,9.323874 M 670.904040,1091.061474 l 3.511207,-3.274254 M 662.348385,1099.039751 l -66.721631,62.218928 M 574.373506,1181.077653 l 3.490752,-3.255179 M 696.154263,1082.555862 l -93.458861,87.151797 M 580.587480,1190.323631 l 3.840232,-3.581074 M 703.935883,1090.339986 l -29.871223,27.855366 M 667.304615,1124.499196 l 4.840789,-4.514109 M 660.739529,1130.621238 l -50.112780,46.730924 M 585.989678,1200.326601 l 5.686894,-5.303114 M 711.719039,1098.122678 l -29.712394,27.707256 M 617.025641,1186.425700 l 47.642702,-44.427539 M 611.366235,1191.703181 l -1.813795,1.691391 M 594.347773,1207.573154 l 3.481436,-3.246492 M 716.469825,1108.733100 l -32.810893,30.596653 M 680.666845,1142.119919 l 2.273335,-2.119919 M 665.486367,1156.275944 l -3.947784,3.681368 M 634.159084,1185.489108 l 22.527968,-21.007670 M 631.479648,1187.987723 l -8.291996,7.732411 M 616.227663,1202.210428 l 2.744150,-2.558961 M 718.666600,1121.725177 l -7.869728,7.338641 M 688.001001,1150.321310 l 21.687813,-20.224213 M 655.785060,1180.363161 l -8.536884,7.960773 M 687.149065,1166.156355 l 40.179019,-37.467541 M 734.302467,1137.225699 l -22.348371,20.840193 M 686.248504,1182.036744 l 21.562210,-20.107086 M 620.081372,1243.738593 l -1.569002,1.463118 M 722.933393,1162.868134 l 16.939021,-15.795892 M 711.928275,1173.130572 l -47.865555,44.635352 M 630.284651,1249.264483 l 32.157442,-29.987300 M 746.833127,1155.621874 l -14.422300,13.449012 M 644.186105,1251.341770 l 58.315641,-54.380215 M 757.058328,1161.127321 l -14.923894,13.916756 M 658.220799,1253.294808 l 54.671812,-50.982290 M 767.157848,1166.749969 l -14.911940,13.905609 M 671.797829,1255.674625 l 57.518747,-53.637099 M 776.818479,1172.781887 l -90.908130,84.773202 M 699.987976,1259.468091 l 86.487034,-80.650464 M 796.297919,1184.698219 l -20.778477,19.376243 M 713.382468,1262.018128 l 60.792138,-56.689586 M 805.851510,1190.829953 l -80.994250,75.528360 M 790.702147,1219.997565 l 21.874689,-20.398477 M 789.796003,1220.842558 l -53.976240,50.333658 M 748.001961,1274.856734 l 72.499673,-67.607039 M 827.611746,1215.660011 l -65.286629,60.880767 M 779.412740,1275.646913 l 53.840577,-50.207150 M 837.164413,1236.833210 l -30.868813,28.785634 M 835.542413,1253.386350 l 1.434117,-1.337335"
       id="path8" />
  </g>
  <g
     inkscape:label="fill-505050"
     inkscape:groupmode="layer"
     id="fill-505050">
    <path
       style="stroke:#505050"
       d="M 326.440079,756.503692 l -3.407018,3.528070 M 319.296657,763.900921 l 1.828985,-1.893970 M 336.792931,764.497234 l -4.387249,4.543129 M 329.722332,771.819054 l 1.067891,-1.105834 M 343.888840,775.863441 l -3.450482,3.573079 M 350.928528,787.287866 l 3.385813,-3.506112 M 364.278872,792.177414 l -4.592526,4.755700 M 374.069111,800.753560 l 0.461330,-0.477722 M 384.339255,808.832750 l -5.194806,5.379379 M 373.380990,820.180365 l 1.247318,-1.291635 M 393.897651,817.648976 l -6.237338,6.458953 M 399.609854,830.448052 l 3.938464,-4.078399 M 398.548754,831.546853 l -1.460343,1.512230 M 392.276259,838.042212 l 2.002572,-2.073724 M 420.312610,827.723955 l -4.045338,4.189070 M 405.362023,843.205741 l 8.379561,-8.677289 M 403.426066,845.210484 l -3.987453,4.129128 M 407.788742,859.407035 l 20.830716,-21.570837 M 436.360165,848.534696 l -11.666470,12.080984 M 437.322667,866.252231 l 6.653937,-6.890354 M 435.165257,868.486294 l -1.011910,1.047863 M 442.494171,879.611217 l 9.068139,-9.390333 M 459.036609,881.195255 l -8.048187,8.334141 M 443.694751,897.082215 l 2.717843,-2.814409 M 466.414302,892.269666 l -12.397134,12.837608 M 444.613589,914.844965 l 2.092334,-2.166675 M 484.426729,892.331487 l -3.342958,3.461734 M 462.002995,915.551943 l 11.605408,-12.017752 M 480.277524,915.342349 l -14.614020,15.133261 M 460.544732,935.776253 l 4.956469,-5.132574 M 500.129426,913.499338 l -2.446089,2.532999 M 492.679219,921.214253 l 2.027119,-2.099143 M 487.442524,926.637009 l -18.456760,19.112534 M 508.796232,923.238832 l 1.660649,-1.719653 M 503.396576,928.830340 l -22.265414,23.056512 M 455.029505,978.915908 l 1.611512,-1.668769 M 452.070368,981.980185 l -4.681650,4.847991 M 427.284746,1007.646447 l 0.906140,-0.938335 M 519.736345,930.624248 l -2.193349,2.271280 M 484.574056,967.035865 l 27.231968,-28.199529 M 465.998381,986.271539 l -16.522048,17.109082 M 526.193724,942.651673 l 2.483119,-2.571345 M 519.822606,949.249158 l -23.685805,24.527370 M 476.645461,993.960400 l 18.224417,-18.871937 M 537.387644,949.774264 l -2.625032,2.718300 M 490.572354,998.252915 l 36.646382,-37.948439 M 481.451383,1007.697957 l -2.299448,2.381148 M 548.919466,956.546947 l 3.305841,-3.423298 M 545.725347,959.854554 l -2.585245,2.677099 M 518.411883,988.138475 l 16.101412,-16.673501 M 517.399805,989.186512 l -21.446078,22.208064 M 419.536206,1090.527235 l 5.880937,-6.089889 M 565.285640,958.313513 l -8.461630,8.762275 M 551.464302,972.625928 l 2.274554,-2.355370 M 541.868333,982.562844 l -36.189963,37.475804 M 494.309453,1031.811507 l 0.436119,-0.451614 M 466.629194,1060.475254 l -4.686193,4.852695 M 421.773840,1106.924332 l 10.613055,-10.990140 M 572.683853,969.366674 l -3.460550,3.583505 M 559.275295,983.251643 l 2.463689,-2.551225 M 548.445613,994.466107 l -33.843898,35.046382 M 463.961174,1081.952304 l 1.757154,-1.819586 M 431.272685,1115.802226 l -6.408786,6.636492 M 573.360717,987.379997 l 7.388190,-7.650694 M 569.392970,991.488718 l -2.651240,2.745440 M 521.818812,1040.753202 l 33.456416,-34.645133 M 501.465311,1061.829869 l -1.239548,1.283589 M 466.544986,1097.990924 l 4.781064,-4.950936 M 462.279844,1102.407607 l -4.335840,4.489893 M 428.501383,1137.386228 l 10.795281,-11.178841 M 384.574719,1182.873620 l -4.097078,4.242648 M 580.865572,998.322727 l 8.919958,-9.236887 M 576.658675,1002.679096 l -2.569747,2.661051 M 570.492363,1009.064499 l 0.634807,-0.657362 M 562.552791,1017.286166 l -33.430959,34.618772 M 507.314261,1074.487338 l 2.783082,-2.881966 M 480.719832,1102.026676 l -6.370935,6.597297 M 432.114705,1152.358758 l 13.708959,-14.196042 M 419.257851,1165.672421 l -3.552576,3.678800 M 398.865217,1186.789611 l 14.804200,-15.330198 M 597.899692,999.397614 l -16.869984,17.469379 M 576.524581,1021.532189 l 2.194511,-2.272482 M 570.285474,1027.992974 l -9.042376,9.363654 M 559.476645,1039.185844 l 0.524811,-0.543458 M 556.052361,1042.731794 l -2.655530,2.749882 M 535.450452,1064.065695 l 16.062017,-16.632705 M 519.017758,1081.082248 l -2.698427,2.794302 M 506.667969,1093.870829 l 1.973183,-2.043291 M 487.705589,1113.506948 l -5.766886,5.971785 M 435.635070,1167.427549 l 19.052354,-19.729290 M 429.407183,1173.876715 l -11.148099,11.544194 M 542.620023,1075.355622 l 63.511505,-65.768089 M 516.247858,1102.664798 l -3.115935,3.226645 M 471.150232,1149.364757 l 7.617111,-7.887749 M 458.111250,1162.867018 l -18.497271,19.154485 M 543.756250,1092.893259 l 72.372994,-74.944429 M 506.899734,1131.059299 l -3.600470,3.728396 M 476.557512,1162.479590 l 7.617002,-7.887636 M 446.412331,1193.695838 l -1.181027,1.222989 M 550.439727,1104.686551 l 75.923713,-78.621306 M 532.665018,1123.092801 l -2.773835,2.872390 M 512.281900,1144.200138 l 3.721390,-3.853612 M 491.366133,1165.859049 l -4.185277,4.333981 M 458.430448,1199.964948 l 4.845817,-5.017991 M 637.030403,1033.733516 l -67.198709,69.586300 M 552.988658,1120.761291 l 9.720657,-10.066035 M 539.643854,1134.580240 l -3.342703,3.461471 M 470.155365,1206.537677 l 4.195491,-4.344558 M 647.485478,1041.621204 l -5.828955,6.036060 M 573.827000,1117.896791 l 66.445640,-68.806474 M 567.833728,1124.103006 l -10.125230,10.484982 M 543.942064,1148.843549 l 3.374030,-3.493910 M 658.268563,1049.169228 l -3.196645,3.310222 M 649.910888,1057.823854 l 2.443962,-2.530797 M 645.458014,1062.434940 l -65.737297,68.072964 M 559.788672,1151.148140 l 14.103463,-14.604564 M 527.312971,1184.777714 l -2.918915,3.022624 M 471.707642,1242.358717 l 4.410191,-4.566887 M 668.786225,1056.992105 l -9.087802,9.410695 M 585.661373,1143.070409 l 67.543092,-69.942919 M 580.915146,1147.985271 l -17.159528,17.769212 M 478.130410,1254.421982 l 4.559048,-4.721033 M 678.665299,1065.476259 l -9.699173,10.043788 M 663.047949,1081.648499 l 3.345309,-3.464169 M 659.341936,1085.486188 l -67.635092,70.038188 M 585.293982,1162.165089 l 3.248790,-3.364221 M 577.730754,1169.997041 l -8.746910,9.057691 M 677.963239,1084.917499 l 11.131127,-11.526619 M 676.204095,1086.739146 l -5.730641,5.934253 M 599.027122,1166.658241 l 69.413255,-71.879530 M 583.529738,1182.706252 l -5.823029,6.029923 M 661.352675,1120.832477 l 36.797662,-38.105094 M 658.353523,1123.938190 l -49.932087,51.706190 M 583.318045,1201.639701 l 8.541702,-8.845191 M 707.001267,1092.276211 l -28.999914,30.030290 M 671.610764,1128.924149 l 1.598031,-1.654809 M 662.778856,1138.069858 l -46.601842,48.257620 M 608.957843,1193.803148 l 2.625230,-2.718505 M 599.783705,1203.303246 l -8.086332,8.373642 M 681.338680,1137.564833 l 33.923382,-35.128691 M 679.950406,1139.002432 l -1.570096,1.625882 M 669.869145,1149.441884 l 1.802475,-1.866517 M 666.336541,1153.100003 l -8.415747,8.714761 M 623.962180,1196.979938 l 33.855552,-35.058450 M 620.541107,1200.522563 l -3.585421,3.712813 M 601.371687,1220.373078 l 7.589734,-7.859400 M 720.802503,1115.413083 l -33.884914,35.088855 M 648.715505,1190.061354 l 8.580713,-8.885589 M 644.429140,1194.500015 l -7.936628,8.218619 M 686.428033,1169.723124 l 41.466219,-42.939527 M 635.188615,1222.783094 l -1.095526,1.134451 M 714.369338,1159.503290 l 20.843741,-21.584325 M 707.639682,1166.472053 l -32.464285,33.617751 M 627.582053,1249.374155 l 27.181586,-28.147356 M 742.096057,1149.505667 l -15.530903,16.082720 M 710.014437,1182.727157 l 6.236815,-6.458411 M 700.523866,1192.554931 l -57.237764,59.271440 M 737.263386,1173.224280 l 14.773386,-15.298289 M 710.419381,1201.022060 l -51.239272,53.059819 M 749.123191,1179.657327 l 14.615273,-15.134558 M 727.801193,1201.736902 l -53.285001,55.178233 M 690.763442,1258.804851 l 84.580148,-87.585307 M 786.750682,1178.121389 l -80.367818,83.223312 M 721.183183,1264.732757 l 76.746990,-79.473835 M 808.381442,1193.150552 l -75.052677,77.719322 M 747.137182,1275.285075 l 70.329292,-72.828114 M 825.293856,1213.065704 l -62.157644,64.366125 M 782.916512,1275.662963 l 50.020150,-51.797382 M 838.558914,1236.757804 l -25.249067,26.146175 M 858.168753,1253.879692 l 2.361285,-2.445182 M 871.717156,1258.564145 l -2.350388,2.433898"
       id="path11" />
  </g>
  <g
     inkscape:label="fill-6f6f6f"
     inkscape:groupmode="layer"
     id="fill-6f6f6f">
    <path
       style="stroke:#6f6f6f"
       d="M 324.975994,754.426982 l -7.917997,8.793827 M 327.967691,772.027037 l 7.881755,-8.753575 M 345.812453,773.131093 l -1.099522,1.221143 M 339.078754,780.609624 l 5.006998,-5.560835 M 355.912299,782.836750 l -6.370232,7.074859 M 360.022649,799.194415 l 6.708714,-7.450781 M 356.685889,802.900262 l -1.008177,1.119694 M 372.514109,806.243914 l 4.711255,-5.232379 M 366.852546,812.531717 l -1.698591,1.886476 M 380.825787,817.935532 l 6.671461,-7.409408 M 378.637913,820.365414 l -2.596128,2.883292 M 389.413033,829.321102 l 8.375442,-9.301871 M 387.631548,831.299641 l -3.617887,4.018071 M 413.089626,823.948253 l 2.315712,-2.571859 M 408.194206,829.385167 l -14.565766,16.176922 M 403.114838,855.949049 l 21.653161,-24.048271 M 433.567904,843.050164 l -20.869807,23.178269 M 430.062271,867.866236 l 11.860870,-13.172830 M 427.347246,870.881577 l -6.298799,6.995525 M 437.519470,880.506849 l 12.629457,-14.026433 M 436.919759,881.172895 l -6.614160,7.345769 M 415.013391,905.502382 l 2.218337,-2.463712 M 458.235228,878.422341 l -10.369026,11.515970 M 441.311757,897.217760 l 4.472428,-4.967134 M 466.147092,890.557997 l -14.447654,16.045745 M 443.451251,915.764282 l 4.064636,-4.514235 M 484.133676,891.504544 l -4.028173,4.473739 M 454.969552,923.894584 l 18.934375,-21.028754 M 450.476343,928.884799 l -0.219977,0.244309 M 439.135939,941.479594 l 1.255501,-1.394375 M 492.448118,903.193092 l -1.640951,1.822460 M 460.368945,938.820624 l 21.051592,-23.380162 M 501.976113,913.533853 l -3.690007,4.098168 M 491.640433,925.012789 l 4.589592,-5.097258 M 488.979474,927.968083 l -18.219139,20.234404 M 445.414695,976.351672 l 1.839015,-2.042433 M 512.581026,922.678576 l -2.865789,3.182781 M 480.261002,958.573600 l 25.509024,-28.330641 M 462.619826,978.166110 l -32.976890,36.624547 M 519.465630,935.955120 l 3.044282,-3.381018 M 514.977580,940.939605 l -60.085476,66.731681 M 448.893509,1014.333401 l 1.834712,-2.037654 M 444.664947,1019.029695 l -1.415049,1.571571 M 528.841207,946.465159 l 3.235773,-3.593690 M 523.341969,952.572681 l -36.741067,40.805089 M 480.493306,1000.160943 l 3.178187,-3.529734 M 478.791724,1002.050741 l -1.827370,2.029500 M 420.546595,1066.738510 l 7.866553,-8.736692 M 546.201859,948.106873 l -2.381027,2.644398 M 537.963063,957.256983 l 3.468371,-3.852017 M 531.761513,964.144502 l -39.468064,43.833726 M 481.129030,1020.377571 l 9.895126,-10.989651 M 425.718521,1081.917176 l -8.758379,9.727166 M 552.205088,962.362283 l 7.938157,-8.816217 M 550.261383,964.520987 l -3.279327,3.642062 M 501.094726,1019.126091 l 38.154020,-42.374332 M 498.777954,1021.699127 l -6.668075,7.405647 M 460.480020,1064.233292 l 6.769016,-7.517754 M 433.131843,1094.606520 l -12.660650,14.061076 M 563.852493,970.349201 l 7.047832,-7.827411 M 559.028455,975.706838 l -3.435301,3.815288 M 552.746916,982.683194 l 1.084771,-1.204760 M 547.093575,988.961866 l -34.954385,38.820777 M 462.355180,1083.073387 l 5.000855,-5.554012 M 451.684316,1094.924583 l -7.059419,7.840279 M 424.870936,1124.703858 l 10.456202,-11.612789 M 579.134911,974.299028 l -8.706210,9.669226 M 563.850655,991.273915 l 3.756792,-4.172340 M 562.115900,993.200555 l -1.626345,1.806240 M 519.910169,1040.074769 l 34.949751,-38.815631 M 504.688986,1056.979604 l -5.615855,6.237039 M 478.755009,1085.782204 l 2.412678,-2.679551 M 472.709448,1092.496480 l -6.343312,7.044962 M 458.087259,1108.736066 l 5.447127,-6.049648 M 451.430348,1116.129315 l -1.739757,1.932196 M 428.802872,1141.259672 l 13.020966,-14.461248 M 393.386692,1180.593325 l -7.944260,8.822995 M 578.482262,995.946540 l 9.489550,-10.539213 M 575.493942,999.265406 l -3.500458,3.887653 M 568.021001,1007.564947 l 2.111548,-2.345111 M 562.256751,1013.966796 l -34.470334,38.283184 M 521.831844,1058.863204 l 1.274221,-1.415165 M 511.767937,1070.040305 l -5.460073,6.064025 M 474.673666,1111.237667 l 9.504079,-10.555349 M 454.709651,1133.409951 l -3.785370,4.204080 M 432.814541,1157.726934 l 16.130507,-17.914743 M 425.815641,1165.500000 l -17.710922,19.669972 M 579.489386,1015.750687 l 17.173532,-19.073140 M 578.154023,1017.233759 l -2.895694,3.215994 M 558.317814,1039.264100 l 14.391008,-15.982833 M 556.294158,1041.511598 l -21.624022,24.015909 M 525.287964,1075.947465 l 2.925664,-3.249279 M 520.887926,1080.834202 l -14.564405,16.175410 M 482.560902,1123.400675 l 7.936934,-8.814858 M 475.211163,1131.563386 l -7.423440,8.244565 M 436.611456,1174.432705 l 21.016697,-23.341407 M 434.921643,1176.309432 l -11.220548,12.461681 M 540.423837,1080.060047 l 65.558038,-72.809577 M 538.302920,1082.415564 l -4.609164,5.118995 M 529.657919,1092.016810 l 2.821287,-3.133357 M 518.394447,1104.526163 l -3.616064,4.016045 M 494.933318,1130.582387 l 6.605378,-7.336015 M 483.745357,1143.007876 l -12.753818,14.164550 M 444.004745,1187.144297 l 11.764546,-13.065852 M 616.160053,1016.869129 l -72.975298,81.047279 M 526.889021,1116.014655 l 2.515892,-2.794181 M 512.528059,1131.964119 l -7.076232,7.858951 M 481.171433,1166.789179 l 9.569490,-10.627996 M 456.759814,1193.901030 l -4.366555,4.849551 M 562.043481,1097.894343 l 64.898500,-72.077086 M 558.855273,1101.435206 l -11.665790,12.956172 M 531.358760,1131.973178 l 5.642234,-6.266336 M 520.831429,1143.664964 l -4.894749,5.436170 M 508.918443,1156.895675 l 1.704632,-1.893186 M 500.310259,1166.456032 l -7.531117,8.364153 M 466.902435,1203.559180 l 6.587763,-7.316452 M 638.342286,1034.078607 l -68.033815,75.559207 M 552.500768,1129.415271 l 13.342547,-14.818399 M 543.970838,1138.888718 l -4.536763,5.038585 M 529.715843,1154.720494 l 0.934782,-1.038181 M 511.061674,1175.438047 l -6.832391,7.588139 M 474.495869,1216.048488 l 4.351363,-4.832678 M 649.620383,1042.475683 l -73.548432,81.683809 M 556.231483,1146.194564 l 15.098010,-16.768038 M 552.699442,1150.117293 l -4.188901,4.652245 M 519.394631,1187.106033 l 5.132141,-5.699820 M 485.745526,1224.477150 l -14.981995,16.639192 M 656.436717,1055.828049 l 4.803953,-5.335330 M 655.005619,1057.417444 l -3.307164,3.672978 M 582.519445,1137.921497 l 65.732612,-73.003462 M 578.377888,1142.521161 l -18.159005,20.167618 M 547.829138,1176.448985 l 2.301877,-2.556494 M 543.939406,1180.768970 l -5.151632,5.721467 M 476.751478,1255.388724 l 10.097331,-11.214223 M 672.386495,1059.036697 l -9.932694,11.031374 M 656.228696,1076.981751 l 3.280330,-3.643175 M 656.073426,1077.154196 l -67.376814,74.829533 M 557.208715,1186.954582 l 29.326865,-32.570783 M 552.338215,1192.363820 l -2.014871,2.237741 M 666.312907,1086.704772 l 16.910269,-18.780757 M 663.237372,1090.120500 l -66.787936,74.175518 M 592.633409,1168.534144 l 1.337952,-1.485947 M 583.476426,1178.704005 l -7.866475,8.736606 M 568.086587,1195.796152 l 3.069186,-3.408676 M 566.095771,1198.007178 l -5.903842,6.556881 M 606.099586,1174.501112 l 87.736666,-97.441439 M 591.709034,1190.483439 l -20.111065,22.335601 M 667.824739,1126.871056 l 35.555229,-39.488082 M 663.677053,1131.477528 l -48.696733,54.083201 M 607.987282,1193.327285 l 3.095189,-3.437555 M 601.033811,1201.049896 l -14.119294,15.681064 M 682.941006,1131.005412 l 29.559774,-32.829455 M 682.200909,1131.827374 l -6.928316,7.694674 M 623.517647,1197.001738 l 46.525559,-51.671868 M 620.924696,1199.881502 l -4.451599,4.944001 M 600.155074,1222.948505 l 10.873134,-12.075839 M 719.798914,1110.993230 l -34.863070,38.719361 M 635.882064,1204.192334 l 23.867956,-26.508050 M 625.135326,1216.127796 l -8.325760,9.246693 M 685.687109,1169.800899 l 41.368206,-45.944047 M 636.988383,1223.886314 l -1.730643,1.922074 M 625.343442,1236.819332 l 2.047570,-2.274057 M 621.391253,1241.208681 l -4.365286,4.848141 M 713.774789,1159.529042 l 21.038013,-23.365080 M 708.267540,1165.645462 l -46.059523,51.154283 M 631.830711,1250.537161 l 28.849061,-32.040128 M 741.993357,1149.111819 l -15.385098,17.086883 M 712.134238,1182.273730 l 5.215555,-5.792461 M 701.460533,1194.128080 l -52.990259,58.851645 M 738.174487,1174.275776 l 14.807374,-16.445255 M 713.658531,1201.503503 l -48.764494,54.158457 M 750.389414,1181.632397 l 15.016269,-16.677256 M 733.278714,1200.635754 l -51.926887,57.670651 M 698.350157,1260.350518 l 79.387142,-88.168353 M 789.966218,1179.523246 l -75.560042,83.917928 M 728.206087,1269.037492 l 73.752983,-81.910986 M 811.916851,1196.989942 l -69.487158,77.173308 M 758.259450,1277.505194 l 63.319457,-70.323382 M 830.345557,1218.368133 l -52.833679,58.677745 M 804.680481,1267.794760 l 31.896081,-35.424187 M 847.273552,1241.413034 l -4.081619,4.533097 M 835.259850,1254.755602 l 6.405735,-7.114289 M 858.965066,1249.350964 l -4.535802,5.037518 M 867.224366,1261.100753 l 3.830358,-4.254043"
       id="path14" />
  </g>
  <g
     inkscape:label="fill-909090"
     inkscape:groupmode="layer"
     id="fill-909090">
    <path
       style="stroke:#909090"
       d="M 322.212504,752.305751 l -8.198661,10.124503 M 325.715504,771.815142 l 8.474104,-10.464646 M 345.446697,771.284383 l -7.650096,9.447082 M 333.705889,785.783074 l 2.501703,-3.089346 M 356.434008,781.551420 l -7.353773,9.081154 M 345.024966,795.640413 l 2.587763,-3.195622 M 367.669924,791.511455 l -7.561042,9.337110 M 355.656689,806.346565 l 3.158733,-3.900710 M 378.847742,801.543236 l -7.415663,9.157581 M 366.184760,817.180717 l 3.667792,-4.529346 M 389.840467,811.803587 l -13.305137,16.430475 M 386.855076,839.325473 l 13.929444,-17.201431 M 419.009255,823.453605 l -4.502506,5.560132 M 396.876662,850.785082 l 15.179812,-18.745507 M 429.237425,834.658103 l -22.547418,27.843742 M 416.169468,874.630922 l 23.048941,-28.463071 M 448.926478,858.014619 l -22.853067,28.221187 M 413.149716,902.195242 l 3.537122,-4.367982 M 459.787007,868.438219 l -26.640015,32.897678 M 421.636210,915.550530 l 2.815830,-3.477261 M 470.663874,878.841643 l -0.848515,1.047828 M 441.196613,915.230680 l 25.484155,-31.470310 M 436.407429,921.144830 l -5.536922,6.837529 M 477.141529,894.677641 l 4.825505,-5.959002 M 475.271589,896.986825 l -1.232979,1.522602 M 452.478371,925.134105 l 20.297999,-25.065942 M 452.363802,925.275585 l -2.885533,3.563336 M 437.849291,943.199514 l 4.007855,-4.949289 M 492.381073,899.693608 l -4.635674,5.724580 M 485.746426,907.886714 l 1.807874,-2.232539 M 484.349897,909.611284 l -0.923639,1.140599 M 458.986163,940.932887 l 22.153735,-27.357584 M 502.241888,911.351751 l -30.877619,38.130684 M 460.068327,963.431762 l 1.061342,-1.310648 M 452.511035,972.764240 l -9.840261,12.151710 M 424.790229,1006.996585 l 7.247407,-8.949802 M 512.665400,922.315022 l -3.731871,4.608476 M 480.535777,961.991802 l 26.039488,-32.156090 M 470.577696,974.289007 l -1.349180,1.666099 M 423.410672,1032.535432 l 43.789391,-54.075395 M 523.441942,932.842336 l -3.707647,4.578563 M 455.221938,1017.087025 l 61.409038,-75.833846 M 439.569165,1036.416590 l -2.407492,2.973005 M 417.588705,1063.560198 l 4.528196,-5.591856 M 534.301533,943.267094 l -4.755681,5.872777 M 477.526930,1013.377890 l 48.452700,-59.834102 M 467.175854,1026.160404 l -7.568389,9.346182 M 414.488006,1091.224478 l 11.665701,-14.405941 M 549.239869,948.655022 l -11.493059,14.192746 M 487.860577,1024.452135 l 46.964209,-57.995968 M 467.095319,1050.095093 l -8.492928,10.487893 M 442.217409,1080.816754 l 3.667931,-4.529517 M 432.884916,1092.341423 l -13.227734,16.334891 M 554.289800,966.254113 l 9.461776,-11.684321 M 553.393368,967.361113 l -3.963046,4.893954 M 546.691915,975.636719 l 1.947845,-2.405388 M 543.471401,979.613722 l -38.283365,47.276018 M 494.610563,1039.951833 l 7.267385,-8.974473 M 491.641517,1043.618299 l -1.623131,2.004400 M 461.116080,1081.314074 l 10.802118,-13.339504 M 455.192524,1088.629057 l -12.502573,15.439392 M 424.732571,1126.243966 l 11.360473,-14.029016 M 378.338612,1183.535735 l -9.893061,12.216913 M 565.615014,976.103873 l 8.419319,-10.396993 M 563.590533,978.603899 l -8.253873,10.192684 M 515.105502,1038.477926 l 37.669562,-46.518035 M 505.207282,1050.701210 l -7.738739,9.556547 M 483.341441,1077.703275 l 0.508298,-0.627696 M 481.757490,1079.659291 l -5.453008,6.733904 M 454.143050,1113.760285 l 18.422905,-22.750393 M 453.121486,1115.021812 l -4.425075,5.464513 M 429.120926,1144.660035 l 15.387779,-19.002325 M 412.649947,1165.000000 l -7.430615,9.176045 M 392.976124,1189.295148 l 9.182075,-11.338918 M 583.321573,978.073331 l -9.805767,12.109114 M 567.154726,998.037723 l 4.863995,-6.006534 M 566.806709,998.467488 l -3.045816,3.761269 M 524.872538,1050.251877 l 37.332992,-46.102406 M 521.631191,1054.254608 l -8.227431,10.160031 M 503.913838,1076.133716 l 7.525638,-9.293389 M 501.044617,1079.676909 l -3.246130,4.008637 M 463.897189,1125.550163 l 22.589692,-27.895946 M 456.998606,1134.069203 l -23.519556,29.044233 M 415.770256,1184.981975 l 14.349438,-17.720080 M 592.621864,990.423663 l -10.127267,12.506134 M 571.853965,1016.069883 l 8.697941,-10.741062 M 570.867764,1017.287739 l -37.925582,46.834194 M 523.280852,1076.052682 l 4.392008,-5.423678 M 520.702851,1079.236248 l -22.514654,27.803282 M 482.971783,1125.830237 l 11.236395,-13.875792 M 478.529630,1131.315839 l -11.063924,13.662808 M 431.372008,1189.550652 l 31.131696,-38.444442 M 602.130141,1002.517154 l -73.344230,90.572581 M 511.514638,1114.417982 l 9.081014,-11.214118 M 506.993644,1120.000945 l -11.996739,14.814739 M 473.223114,1161.704077 l 18.291773,-22.588458 M 468.095560,1168.036078 l -4.009037,4.950749 M 445.053368,1196.490815 l 7.894148,-9.748461 M 612.852367,1013.111544 l -71.244550,87.979692 M 538.374602,1105.083925 l 2.199252,-2.715850 M 531.773476,1113.235637 l -7.512317,9.276938 M 499.802861,1152.716058 l 15.777256,-19.483288 M 497.465623,1155.602307 l -12.061211,14.894356 M 460.255010,1201.553587 l 12.260118,-15.139984 M 624.164389,1022.977597 l -77.612455,95.843400 M 532.032999,1136.750388 l 8.344057,-10.304052 M 524.674671,1145.837166 l -13.117201,16.198394 M 497.324312,1179.612047 l 11.644682,-14.379985 M 478.407178,1202.972762 l -6.116570,7.553335 M 541.598388,1148.773352 l 94.510689,-116.710981 M 535.611265,1156.166833 l -1.818763,2.245985 M 510.148508,1187.610720 l 16.453626,-20.318536 M 483.568492,1220.434307 l -13.574823,16.763511 M 550.890498,1161.133788 l 97.280610,-120.131549 M 545.029355,1168.371697 l -23.641432,29.194737 M 476.207477,1253.359639 l 12.081852,-14.919844 M 660.688080,1049.380303 l -117.336483,144.898489 M 537.137749,1201.952254 l 2.051730,-2.533675 M 672.868484,1058.173992 l -11.297302,13.951007 M 586.179403,1165.226092 l 75.205635,-92.871225 M 582.622777,1169.618159 l -31.084471,38.386125 M 546.215555,1214.577334 l 3.220093,-3.976484 M 684.534922,1067.602376 l -17.276859,21.335144 M 601.026469,1170.726728 l 64.219467,-79.304437 M 590.194861,1184.102650 l -26.009925,32.119582 M 560.496037,1220.777643 l 2.395506,-2.958203 M 695.542166,1077.844798 l -84.185423,103.960339 M 605.011787,1189.640505 l 2.771582,-3.422619 M 599.704221,1196.194804 l -23.201679,28.651688 M 671.465921,1131.411721 l 34.380578,-42.456478 M 670.427178,1132.694462 l -3.676902,4.540596 M 620.412740,1194.457148 l 45.925204,-56.712903 M 618.848252,1196.389131 l -5.136248,6.342738 M 590.232559,1231.726569 l 20.380613,-25.167961 M 715.391696,1101.003143 l -36.413643,44.967105 M 671.433963,1155.286422 l 6.109533,-7.544645 M 670.979372,1155.847795 l -39.471613,48.743382 M 625.861624,1211.563573 l 3.898989,-4.814850 M 624.470833,1213.281058 l -15.703770,19.392541 M 605.286238,1236.972059 l 2.012875,-2.485694 M 723.042456,1115.390476 l -39.423088,48.683460 M 646.014637,1210.511911 l 20.668576,-25.523566 M 643.495891,1213.622303 l -3.806231,4.700303 M 616.737005,1246.666775 l 20.739691,-25.611386 M 731.201254,1129.150436 l -58.299795,71.994251 M 632.514884,1251.017954 l 37.419508,-46.209245 M 739.435725,1142.816946 l -17.304357,21.369102 M 704.398927,1186.083790 l 10.060433,-12.423600 M 701.068005,1190.197136 l -51.327169,63.383775 M 734.695519,1172.505849 l 14.180707,-17.511715 M 712.136743,1200.363619 l -45.540118,56.237362 M 747.909664,1180.022976 l 14.339920,-17.708326 M 731.235010,1200.614458 l -47.640396,58.830990 M 701.244672,1261.484678 l 73.866298,-91.217282 M 788.151695,1177.998678 l -70.438931,86.984836 M 731.994960,1271.181706 l 69.088206,-85.316829 M 812.052880,1196.153645 l -65.048731,80.328493 M 764.760519,1278.390083 l 57.492713,-70.997587 M 831.658335,1219.613395 l -46.009102,56.816509 M 814.975756,1264.049901 l 23.779246,-29.364923 M 851.472960,1242.814844 l -8.046220,9.936254 M 858.702655,1257.722150 l 5.605562,-6.922293 M 875.540320,1260.764601 l -2.709852,3.346388"
       id="path17" />
  </g>
  <g
     inkscape:label="fill-aeaeae"
     inkscape:groupmode="layer"
     id="fill-aeaeae">
    <path
       style="stroke:#aeaeae"
       d="M 318.899634,749.904379 l -8.106142,10.757214 M 322.542502,771.656372 l 9.554492,-12.679240 M 320.936648,773.787412 l -1.773954,2.354116 M 331.540585,786.301754 l 12.829946,-17.025914 M 356.024675,780.396512 l -12.190833,16.177782 M 355.465354,807.724999 l 12.537163,-16.637377 M 379.891995,801.895994 l -13.013995,17.270154 M 377.980287,831.019158 l 13.618522,-18.072389 M 403.344321,823.946190 l -14.433159,19.153449 M 396.022971,860.248192 l 26.133476,-34.680294 M 433.095491,837.637538 l -23.853648,31.654860 M 417.611001,884.772393 l 26.545305,-35.226810 M 414.349886,889.100038 l -3.778435,5.014152 M 427.218131,898.609543 l 28.167074,-37.378970 M 422.869067,904.380947 l -6.686816,8.873705 M 437.429987,911.644195 l 29.294670,-38.875341 M 434.882791,915.024438 l -9.195243,12.202500 M 446.553605,926.122987 l 31.509484,-41.814498 M 442.760982,931.155968 l -7.806855,10.360046 M 456.271760,939.812802 l 33.102384,-43.928348 M 451.728543,945.841855 l -11.107082,14.739596 M 468.799444,949.774246 l 31.651610,-42.003106 M 462.196722,958.536354 l -8.242403,10.938038 M 441.449563,986.068764 l 12.152176,-16.126483 M 433.674275,996.386919 l -9.791965,12.994377 M 478.348367,963.688640 l 33.153747,-43.996509 M 472.224221,971.815657 l -50.541231,67.070479 M 450.005606,1027.886996 l 72.802664,-96.612398 M 443.756708,1036.179564 l -31.314341,41.555534 M 477.237385,1018.335447 l 57.194994,-75.900321 M 472.767952,1024.266585 l -16.832819,22.337906 M 442.970678,1063.808903 l 2.568314,-3.408267 M 438.525290,1069.708133 l -2.760360,3.663122 M 432.495348,1077.710135 l 0.307503,-0.408070 M 429.786124,1081.305397 l -14.190961,18.832042 M 487.506289,1031.294394 l 62.599041,-83.071733 M 471.202687,1052.930004 l -13.040419,17.305220 M 436.597253,1098.852966 l 13.599548,-18.047209 M 434.004122,1102.294167 l -11.848442,15.723414 M 365.321129,1193.439577 l 2.069983,-2.746961 M 565.239254,954.725507 l -57.513835,76.323437 M 494.193858,1049.005932 l 11.938652,-15.843126 M 478.032316,1070.453023 l -6.004588,7.968358 M 427.104903,1138.035982 l 43.135970,-57.243365 M 396.209285,1179.035852 l -8.658952,11.490817 M 517.345297,1044.869177 l 58.565505,-77.719051 M 516.217665,1046.365595 l -21.913693,29.080453 M 431.892792,1158.268481 l 57.234104,-75.952221 M 426.977349,1164.791494 l -15.537588,20.619076 M 528.502343,1056.649519 l 57.403059,-76.176432 M 527.303710,1058.240159 l -99.592425,132.163612 M 462.145650,1171.294067 l 133.754889,-177.498733 M 455.316747,1180.356328 l -11.783905,15.637770 M 533.449997,1103.256246 l 73.252102,-97.208823 M 530.447345,1107.240899 l -47.064862,62.457181 M 466.689490,1191.850430 l 7.901220,-10.485273 M 465.384532,1193.582169 l -6.154447,8.167226 M 543.037453,1117.119504 l 75.313871,-99.944882 M 541.323929,1119.393427 l -12.968355,17.209589 M 524.824501,1141.288907 l 1.953123,-2.591881 M 523.809925,1142.635295 l -27.759644,36.838292 M 472.007224,1211.379801 l 7.267949,-9.644894 M 630.658215,1027.429067 l -91.916412,121.977199 M 508.680949,1189.298366 l 26.727277,-35.468294 M 485.689319,1219.809290 l -16.040783,21.286839 M 521.269929,1199.178469 l 122.190000,-162.151606 M 489.115616,1241.848683 l -17.642062,23.411807 M 460.997155,1279.163140 l 3.829576,-5.082020 M 656.642302,1046.119504 l -122.578604,162.667302 M 586.182421,1166.209166 l 83.615839,-110.961966 M 583.918919,1169.212935 l -36.346006,48.232780 M 665.274307,1087.836931 l 17.212608,-22.841902 M 664.479579,1088.891570 l -65.251953,86.592267 M 596.620749,1178.943279 l 1.294303,-1.717597 M 592.899715,1183.881259 l -30.457524,40.418499 M 611.977043,1185.151031 l 82.486314,-109.463036 M 610.629031,1186.939903 l -4.538594,6.022918 M 577.728369,1230.600556 l 25.411295,-33.721928 M 705.494418,1087.635525 l -89.486230,118.752238 M 593.633813,1236.079562 l 21.094593,-27.993471 M 715.693758,1100.686786 l -107.008401,142.004945 M 650.869581,1213.297617 l 73.256024,-97.214027 M 648.629780,1216.269933 l -25.081349,33.284074 M 641.044474,1252.922217 l 91.888733,-121.940467 M 741.697813,1145.936967 l -16.027018,21.268572 M 713.824110,1182.926620 l 5.021764,-6.664106 M 704.065345,1195.876938 l -44.927260,59.620487 M 739.345919,1175.644278 l 13.943155,-18.503192 M 720.646220,1200.459616 l -44.166549,58.610990 M 752.792996,1184.385646 l 14.565240,-19.328727 M 745.009406,1194.714819 l -49.648446,65.885714 M 712.738403,1264.126128 l 68.502777,-90.906255 M 795.012224,1181.531322 l -66.793885,88.638480 M 743.968031,1275.855497 l 64.168507,-85.154485 M 819.416846,1202.317779 l -57.328350,76.077290 M 782.811402,1277.481087 l 47.041209,-62.425793 M 837.127031,1231.988055 l -25.270720,33.535378 M 841.207957,1253.158725 l 8.945458,-11.871023 M 863.953528,1249.560576 l -6.538163,8.676435 M 872.453087,1264.867522 l 3.475079,-4.611585"
       id="path20" />
  </g>
  <g
     inkscape:label="fill-cdcdcd"
     inkscape:groupmode="layer"
     id="fill-cdcdcd">
    <path
       style="stroke:#cdcdcd"
       d="M 313.173860,742.981939 l -11.671711,17.304024 M 312.637109,775.966955 l 14.733740,-21.843668 M 341.345544,765.594199 l -14.262704,21.145328 M 341.626458,797.366977 l 13.216501,-19.594269 M 368.293585,790.020586 l -12.935007,19.176937 M 368.346222,822.131797 l 13.353068,-19.796738 M 395.102196,814.653685 l -14.242222,21.114962 M 411.058324,823.187001 l 4.396357,-6.517867 M 408.522955,826.945840 l -17.106170,25.360940 M 400.568925,870.927424 l 27.551346,-40.846550 M 440.599395,843.769062 l -32.173359,47.698966 M 412.511706,917.600022 l 40.689658,-60.324899 M 465.896139,870.643596 l -45.237752,67.067726 M 433.014390,951.582043 l 45.760856,-67.843259 M 491.970791,896.364834 l -51.595315,76.493200 M 420.175540,1002.805671 l 5.640187,-8.361921 M 504.314540,910.253722 l -85.204306,126.320578 M 408.629798,1084.301437 l 108.300915,-160.562710 M 529.809036,936.835078 l -113.528583,168.313046 M 439.424379,1103.025092 l 106.162941,-157.393033 M 435.095562,1109.442828 l -11.594658,17.189787 M 380.635826,1190.182707 l 7.135782,-10.579232 M 562.655604,952.516538 l -133.571218,198.027474 M 403.759522,1188.089667 l 16.649969,-24.684594 M 575.742029,965.304364 l -151.685390,224.882839 M 441.920963,1195.891503 l 145.266559,-215.366530 M 598.752427,995.568546 l -117.290065,173.889673 M 459.091999,1202.623645 l 16.549154,-24.535130 M 611.221741,1009.271278 l -115.572080,171.342655 M 472.809630,1214.475671 l 8.458254,-12.539877 M 624.594319,1021.634865 l -114.854850,170.279318 M 471.717860,1248.283536 l 16.712733,-24.777646 M 638.914315,1032.593847 l -115.079267,170.612030 M 479.726908,1268.598884 l 9.814755,-14.550972 M 653.590281,1043.025083 l -115.257867,170.876815 M 554.328474,1222.376013 l 114.193342,-169.298592 M 683.034129,1063.751282 l -112.442177,166.702383 M 588.101224,1236.684351 l 108.294340,-160.552961 M 708.837650,1089.874489 l -103.259947,153.089167 M 622.599472,1249.917095 l 97.084764,-143.934082 M 729.518497,1123.592371 l -87.841862,130.230916 M 721.606928,1167.511004 l 18.141734,-26.896226 M 721.437868,1167.761646 l -11.775496,17.457891 M 661.320321,1256.889576 l 42.602763,-63.161194 M 751.603063,1155.229155 l -13.796039,20.453469 M 680.657291,1260.410588 l 40.905081,-60.644277 M 767.314765,1164.124849 l -15.761767,23.367780 M 700.841894,1262.674933 l 47.885633,-70.993370 M 782.818720,1173.328540 l -63.177448,93.664419 M 736.644946,1273.973225 l 61.646591,-91.394829 M 812.074104,1194.334149 l -57.315013,84.973001 M 776.635633,1279.063092 l 47.839237,-70.924586 M 835.379361,1224.161183 l -31.053103,46.038119 M 834.527539,1257.613312 l 12.955091,-19.206712 M 863.083688,1247.466329 l -7.642187,11.330009 M 872.297703,1265.995241 l 4.300334,-6.375507"
       id="path23" />
  </g>
</svg>
