<?xml version="1.0" encoding="UTF-8" standalone="no"?>
<!-- Created with Inkscape (http://www.inkscape.org/) -->

<svg
   xmlns:dc="http://purl.org/dc/elements/1.1/"
   xmlns:cc="http://creativecommons.org/ns#"
   xmlns:rdf="http://www.w3.org/1999/02/22-rdf-syntax-ns#"
   xmlns:svg="http://www.w3.org/2000/svg"
   xmlns="http://www.w3.org/2000/svg"
   xmlns:sodipodi="http://sodipodi.sourceforge.net/DTD/sodipodi-0.dtd"
   xmlns:inkscape="http://www.inkscape.org/namespaces/inkscape"
   id="svg2"
   version="1.1"
   inkscape:version="0.48.3.1 r9886"
   width="1000"
   height="1197"
   sodipodi:docname="hantologie-_0003_petit2_hatched_1398274938.svg">
  <defs
     id="defs27" />
  <sodipodi:namedview
     pagecolor="#ffffff"
     bordercolor="#666666"
     borderopacity="1"
     objecttolerance="10"
     gridtolerance="10"
     guidetolerance="10"
     inkscape:pageopacity="0"
     inkscape:pageshadow="2"
     inkscape:window-width="640"
     inkscape:window-height="480"
     id="namedview25" />
  <metadata
     id="metadata8">
    <rdf:RDF>
      <cc:Work
         rdf:about="">
        <dc:format>image/svg+xml </dc:format>
        <dc:type
           rdf:resource="http://purl.org/dc/dcmitype/StillImage" />
        <dc:title />
      </cc:Work>
    </rdf:RDF>
  </metadata>
  <g
     inkscape:label="fill-0e0e0e"
     inkscape:groupmode="layer"
     id="fill-0e0e0e">
    <path
       style="stroke:#0e0e0e"
       d="M 502.733361,321.061582 l -6.773263,-2.332221 M 501.250254,325.839011 l 7.043587,2.425302 M 550.989704,454.015849 l -1.634744,-0.562888 M 569.158000,465.559798 l 2.360239,0.812695 M 457.981488,427.278655 l -13.183288,-4.539370 M 577.265899,473.639675 l 8.096657,2.787903 M 603.822702,488.072019 l -17.502835,-6.026709 M 614.715449,497.110796 l 6.210218,2.138349 M 610.519805,495.666120 l -3.954650,-1.361695 M 590.194432,488.667533 l 9.302222,3.203012 M 489.390616,453.957995 l -1.211726,-0.417231 M 473.956153,448.643484 l 6.803666,2.342690 M 622.987254,505.247110 l -4.061578,-1.398513 M 509.717739,466.245289 l 8.992240,3.096277 M 499.690514,462.792638 l -0.275967,-0.095023 M 476.574922,454.833301 l 19.212467,6.615383 M 635.505019,514.845426 l -4.827528,-1.662251 M 492.282620,465.529999 l 20.434694,7.036229 M 453.165042,452.060737 l -9.993065,-3.440888 M 498.589810,472.989842 l 14.127762,4.864578 M 463.820497,461.017808 l -8.955641,-3.083674 M 532.985849,490.121452 l 17.206148,5.924552 M 472.622308,469.336618 l -19.235354,-6.623263 M 455.021379,468.564235 l 30.040240,10.343684 M 591.896726,520.982300 l -10.551657,-3.633227 M 533.160038,500.757637 l 11.497904,3.959046 M 512.541560,493.658125 l -2.496494,-0.859612 M 459.851188,475.515375 l 35.907745,12.364028 M 644.307306,544.316814 l -1.693343,-0.583065 M 607.324857,531.582735 l 8.067295,2.777792 M 604.551757,530.627880 l -19.111241,-6.580528 M 535.827545,506.964236 l 8.729197,3.005704 M 523.209721,502.619571 l -6.933550,-2.387413 M 469.995204,484.296343 l 31.914471,10.989034 M 669.260378,558.196949 l -7.499172,-2.582172 M 604.098602,535.759950 l 10.302181,3.547325 M 602.084572,535.066464 l -14.071381,-4.845165 M 521.493786,507.316831 l 4.712577,1.622671 M 667.979416,563.043982 l -11.247594,-3.872857 M 587.550318,535.350022 l 27.256279,9.385090 M 538.574718,518.486371 l -0.672138,-0.231436 M 517.225174,511.135133 l 10.695087,3.682614 M 671.786548,569.642986 l -1.559972,-0.537141 M 655.446139,564.016531 l 9.395001,3.234958 M 636.873272,557.621381 l -6.178138,-2.127303 M 588.451707,540.948499 l 27.202153,9.366452 M 531.553685,521.356939 l -9.237193,-3.180621 M 658.483979,570.350647 l 7.562806,2.604083 M 645.200449,565.776761 l -2.815651,-0.969506 M 587.127395,545.780605 l 46.550308,16.028557 M 575.532672,541.788221 l -10.225578,-3.520949 M 658.469968,575.633926 l 6.763476,2.328852 M 649.438715,572.524216 l -46.795362,-16.112935 M 495.266080,519.438321 l 1.159194,0.399142 M 691.516063,592.300712 l -34.811281,-11.986485 M 647.793474,577.245818 l 2.685652,0.924744 M 645.238048,576.365914 l -41.971420,-14.451919 M 584.313087,555.387768 l 4.069890,1.401376 M 500.165060,526.413278 l -2.891929,-0.995771 M 654.732243,584.923131 l 54.526669,18.775038 M 653.414996,584.469567 l -62.539925,-21.534223 M 539.113351,545.112354 l 14.614428,5.032151 M 529.517841,541.808355 l -17.507522,-6.028323 M 499.258817,531.389337 l 4.598776,1.583486 M 714.993418,610.960821 l -96.234382,-33.136155 M 591.944499,568.591680 l 14.683639,5.055982 M 578.455537,563.947058 l -58.676179,-20.203829 M 712.564132,615.412454 l 2.939081,1.012007 M 705.180895,612.870202 l -17.313249,-5.961430 M 629.310307,586.745863 l 56.292362,19.383015 M 611.593179,580.645367 l -16.166389,-5.566534 M 566.036687,564.959009 l 20.044514,6.901880 M 561.805043,563.501937 l -32.452419,-11.174264 M 649.657883,599.040199 l 52.030214,17.915439 M 646.154503,597.833889 l -46.179941,-15.901029 M 569.528626,571.449483 l 16.054533,5.528019 M 556.524025,566.971640 l -9.131916,-3.144371 M 691.851455,618.856714 l 6.398201,2.203077 M 684.125795,616.196556 l -80.788909,-27.817852 M 581.123205,580.729920 l 0.010800,0.003719 M 690.569674,623.703465 l -8.343886,-2.873030 M 605.109157,594.277049 l 65.804942,22.658459 M 550.758415,575.562588 l -14.693431,-5.059354 M 599.382641,597.593355 l 63.742042,21.948145 M 557.587510,583.202137 l -32.342097,-11.136277 M 590.803979,599.927588 l 58.326838,20.083541 M 562.624011,590.224447 l -45.150344,-15.546510 M 583.314008,602.636688 l 59.714890,20.561486 M 564.943620,596.311256 l -60.213515,-20.733176 M 572.978127,604.365862 l 66.065652,22.748228 M 570.851157,603.633487 l -55.942837,-19.262664 M 594.999131,617.236405 l 25.693477,8.846973 M 590.643012,615.736473 l -112.237597,-38.646504 M 584.794830,619.010886 l 27.684956,9.532695 M 582.101247,618.083411 l -43.035117,-14.818179 M 462.940077,577.052930 l 71.101536,24.482222 M 605.434594,631.405830 l -25.778528,-8.876259 M 550.071809,612.342894 l 26.422405,9.097964 M 529.041354,605.101528 l -81.033628,-27.902116 M 552.461115,618.453702 l 43.691831,15.044304 M 522.048708,607.981870 l -81.456739,-28.047804 M 583.490354,634.426029 l 3.312765,1.140676 M 570.515784,629.958526 l -19.820732,-6.824825 M 425.699118,580.094149 l 102.268120,35.213738 M 566.789942,633.963720 l -10.203974,-3.513510 M 382.914000,570.650155 l 166.578019,57.357412 M 540.658115,630.253913 l -21.960135,-7.561481 M 367.336559,570.574516 l 138.976005,47.853276 M 483.786457,615.959534 l -122.840225,-42.297281"
       id="path5" />
  </g>
  <g
     inkscape:label="fill-2f2f2f"
     inkscape:groupmode="layer"
     id="fill-2f2f2f">
    <path
       style="stroke:#2f2f2f"
       d="M 507.703878,316.685603 l -7.717990,-2.359626 M 486.617027,310.238705 l 10.327210,3.157345 M 486.470290,310.193843 l -5.235783,-1.600739 M 518.749244,327.382352 l 9.153142,2.798396 M 516.142287,326.585326 l -24.863077,-7.601406 M 502.068608,329.602413 l 33.606580,10.274563 M 515.355280,340.984398 l -0.252416,-0.077171 M 613.522896,458.835358 l 4.349369,1.329735 M 605.826299,456.482272 l -2.437878,-0.745334 M 611.660361,465.585766 l 3.967139,1.212876 M 621.932192,476.046022 l -2.551339,-0.780023 M 548.142125,453.486134 l 5.373558,1.642862 M 487.747976,435.021790 l -1.163638,-0.355760 M 435.691848,419.106635 l 23.132525,7.072323 M 425.930029,416.122147 l -14.431865,-4.412264 M 626.448558,484.746656 l 13.574482,4.150136 M 594.875238,475.093723 l -26.956966,-8.241571 M 458.817743,433.496773 l 11.241734,3.436943 M 446.796138,429.821399 l -23.171865,-7.084350 M 416.138676,420.448472 l 1.051182,0.321379 M 642.054539,496.837725 l -9.066051,-2.771770 M 576.672113,476.848312 l 34.802961,10.640333 M 572.477249,475.565813 l -4.751827,-1.452779 M 507.568892,455.721337 l 4.718127,1.442476 M 497.016329,452.495095 l -11.651636,-3.562263 M 478.308862,446.775648 l 4.793329,1.465468 M 464.353285,442.509000 l -15.608297,-4.771935 M 634.818744,501.945363 l 11.646041,3.560552 M 622.659928,498.228040 l -36.142175,-11.049772 M 455.365813,447.081096 l 77.408475,23.666146 M 446.490478,444.367634 l -24.566247,-7.510655 M 646.029290,512.692613 l 8.349666,2.552749 M 641.128278,511.194224 l -1.920689,-0.587214 M 614.390349,503.019619 l 18.627556,5.695015 M 522.502460,474.926672 l -36.532858,-11.169216 M 428.935396,446.320349 l 33.960422,10.382743 M 658.122084,523.709594 l -28.406149,-8.684631 M 617.221383,511.204995 l 9.414352,2.878256 M 608.901875,508.661466 l -18.454164,-5.642004 M 497.039914,474.461832 l 52.375203,16.012707 M 475.202360,467.785422 l -28.216854,-8.626758 M 665.464674,533.274291 l 1.677285,0.512798 M 642.005591,526.102130 l -1.970645,-0.602487 M 591.563765,510.680516 l 32.127800,9.822454 M 587.462462,509.426622 l -11.269125,-3.445317 M 527.851628,491.201761 l 29.795493,9.109396 M 523.729100,489.941378 l -2.362037,-0.722147 M 452.039003,468.023515 l 58.060641,17.750919 M 424.752876,459.681309 l -16.596254,-5.073984 M 383.086666,446.942670 l 8.632937,2.639354 M 653.103257,536.814869 l -3.706963,-1.133332 M 635.213164,531.345319 l 2.778909,0.849598 M 627.834200,529.089343 l -55.502387,-16.968782 M 526.728216,498.178142 l 35.561021,10.872095 M 517.909325,495.481936 l -58.530246,-17.894492 M 651.553888,543.661022 l 8.321978,2.544284 M 646.714793,542.181562 l -8.485303,-2.594217 M 622.728963,534.848358 l 8.059316,2.463980 M 620.589349,534.194212 l -41.150115,-12.580853 M 554.111248,513.869817 l 12.418847,3.796823 M 546.825714,511.642406 l -10.942464,-3.345447 M 515.014025,501.916596 l 14.776311,4.517572 M 504.023345,498.556408 l -27.175591,-8.308412 M 656.368013,552.452690 l 20.382751,6.231632 M 646.502389,549.436466 l -17.059620,-5.215649 M 577.043667,528.200803 l 39.806775,12.170152 M 574.333641,527.372265 l -6.442649,-1.969715 M 534.060816,515.059627 l 6.764898,2.068237 M 529.349078,513.619104 l -14.187428,-4.337532 M 676.942844,566.062889 l 4.009905,1.225951 M 670.381348,564.056838 l -16.154827,-4.939026 M 634.365756,553.045767 l 4.609184,1.409169 M 630.805609,551.957321 l -9.881233,-3.020996 M 584.872676,537.914214 l 33.012695,10.092994 M 534.005321,522.362503 l -12.355847,-3.777562 M 491.526847,509.375530 l 4.188243,1.280475 M 687.456706,576.597142 l -6.826286,-2.087005 M 652.774929,565.993858 l 23.213190,7.096984 M 645.758919,563.848849 l -3.146286,-0.961916 M 564.202206,538.914459 l 73.114130,22.353233 M 499.506079,519.134868 l -7.153446,-2.187028 M 710.352338,590.916881 l 8.093367,2.474391 M 705.917498,589.561014 l -3.527833,-1.078567 M 686.819928,583.722301 l 2.940825,0.899100 M 684.959987,583.153660 l -7.016464,-2.145148 M 579.292039,550.847726 l 89.994812,27.514175 M 554.118185,543.151307 l -45.803240,-14.003456 M 495.078267,525.100993 l 7.559354,2.311127 M 721.296639,601.582732 l -136.809205,-41.826771 M 511.351439,537.396043 l 62.169620,19.007160 M 503.400026,534.965052 l -5.622054,-1.718834 M 616.106839,576.742825 l 100.115094,30.608256 M 611.622521,575.371831 l -94.139969,-28.781477 M 500.366170,541.357351 l 1.137311,0.347711 M 722.739921,616.663672 l -200.867912,-61.411484 M 717.457485,622.368512 l 2.006425,0.613426 M 703.446735,618.084996 l -170.548666,-52.141960 M 598.056132,593.183697 l 99.803961,30.513133 M 594.570339,592.117983 l -22.871615,-6.992554 M 521.937412,569.911869 l 42.016046,12.845594 M 501.165454,563.561244 l -1.067819,-0.326465 M 580.914054,595.262680 l 83.278240,25.460713 M 565.401640,590.520059 l -64.327865,-19.667002 M 576.343583,601.185189 l 69.541535,21.260981 M 569.999005,599.245457 l -87.280385,-26.684292 M 465.668339,574.668214 l 174.983082,53.497697 M 630.489018,632.378794 l -185.340678,-56.664332 M 550.642763,615.287187 l 66.640305,20.373986 M 531.865669,609.546453 l -104.057382,-31.813534 M 414.731137,573.734833 l 8.611596,2.632829 M 411.536253,572.758059 l -9.371356,-2.865111 M 371.266328,567.766150 l 237.009932,72.461208 M 364.260783,565.624339 l -7.202427,-2.202003 M 313.853438,557.533110 l 254.092012,77.683724 M 483.809370,616.813695 l -108.476528,-33.164603"
       id="path8" />
  </g>
  <g
     inkscape:label="fill-4e4e4e"
     inkscape:groupmode="layer"
     id="fill-4e4e4e">
    <path
       style="stroke:#4e4e4e"
       d="M 510.614016,315.921362 l -36.785924,-9.171761 M 485.384728,318.906517 l 43.053800,10.734518 M 540.404391,341.899982 l -38.942440,-9.709441 M 532.381130,349.175081 l 19.744182,4.922778 M 523.952577,347.073607 l -5.573537,-1.389639 M 556.454051,364.452657 l 0.892976,0.222644 M 549.728149,362.775701 l -1.431304,-0.356864 M 533.178091,358.649308 l 2.202677,0.549189 M 568.023798,376.612842 l -10.306587,-2.569721 M 566.210923,385.436364 l 12.101330,3.017200 M 589.363921,400.484577 l -11.409289,-2.844655 M 595.717667,411.344267 l 2.412504,0.601505 M 613.795155,434.402536 l -6.600830,-1.645772 M 588.028861,427.978277 l 11.447262,2.854123 M 437.253345,390.385719 l -5.086227,-1.268139 M 615.297001,444.052511 l 3.693741,0.920953 M 610.104802,442.757950 l -18.050452,-4.500483 M 584.465796,436.365428 l 2.992292,0.746062 M 438.943077,400.082539 l -0.160317,-0.039971 M 590.372006,447.113534 l 26.006208,6.484076 M 575.628117,443.437470 l -4.241688,-1.057572 M 597.167726,458.083420 l 27.585348,6.877800 M 586.919588,455.528272 l -2.848556,-0.710225 M 553.557778,447.210239 l 17.461138,4.353551 M 484.472378,429.985314 l -6.605543,-1.646947 M 409.485591,411.289008 l 45.822238,11.424767 M 640.518832,478.167588 l -13.338375,-3.325630 M 607.086782,469.832042 l 16.912086,4.216657 M 603.561839,468.953174 l -7.928699,-1.976847 M 573.930922,461.565357 l 16.783919,4.184701 M 570.279082,460.654851 l -7.241318,-1.805463 M 547.120384,454.880739 l 9.101127,2.269166 M 497.529573,442.516361 l -5.423273,-1.352174 M 412.809606,421.393301 l 58.932149,14.693435 M 647.761639,489.248945 l -24.326353,-6.065241 M 610.909294,480.060623 l 5.767674,1.438043 M 603.739905,478.273094 l -40.443771,-10.083765 M 503.749010,453.342564 l 30.156954,7.518973 M 497.744844,451.845557 l -25.024993,-6.239432 M 413.753253,430.904101 l 57.513451,14.339714 M 653.730263,500.012613 l -30.850215,-7.691822 M 583.207503,482.429314 l 33.992663,8.475323 M 568.589077,478.784531 l -21.081304,-5.256159 M 408.930495,438.977176 l 131.151995,32.699865 M 662.013016,511.353258 l -26.994827,-6.730566 M 607.750831,497.824175 l 23.026197,5.741076 M 574.190184,489.456566 l -1.208694,-0.301361 M 546.894351,482.650951 l 14.929571,3.722360 M 540.973672,481.174760 l -46.349994,-11.556352 M 434.030142,454.510743 l 44.293234,11.043544 M 415.027892,449.772950 l -48.931298,-12.199943 M 562.024883,495.698939 l 98.516594,24.562946 M 556.309003,494.273810 l -147.963417,-36.891423 M 652.730808,527.589989 l 13.988723,3.487780 M 649.814490,526.862869 l -128.607006,-32.065328 M 458.154841,479.076751 l 61.361382,15.299111 M 670.714598,541.349374 l -1.850199,-0.461306 M 575.542602,517.620330 l 85.054702,21.206519 M 568.061710,515.755134 l -54.272412,-13.531632 M 482.997216,494.546174 l 26.879557,6.701826 M 671.674520,550.864232 l -19.966047,-4.978095 M 557.640467,522.432349 l 89.831914,22.397612 M 542.470501,518.650052 l -8.346259,-2.080956 M 514.723583,511.731968 l 16.952628,4.226765 M 682.365255,562.805254 l -27.630158,-6.888972 M 641.849590,552.703564 l 6.568362,1.637676 M 640.474873,552.360809 l -7.494758,-1.868653 M 583.697060,538.204510 l 45.771214,11.412045 M 579.370334,537.125736 l -16.581241,-4.134168 M 548.456662,529.418092 l 10.398518,2.592642 M 499.897726,517.310990 l -9.710207,-2.421027 M 652.175763,564.553691 l 36.071034,8.993519 M 646.798447,563.212975 l -5.232846,-1.304695 M 568.736982,543.750066 l 69.779342,17.397944 M 555.162035,540.365452 l -48.632210,-12.125372 M 493.690650,525.038914 l 10.374693,2.586701 M 718.801887,590.440972 l -44.272276,-11.038318 M 581.578865,556.227430 l 90.498701,22.563860 M 573.908450,554.314981 l -63.288687,-15.779642 M 497.169168,535.181729 l 5.905802,1.472482 M 723.006619,600.764852 l -208.998064,-52.109070 M 501.175354,545.456106 l 1.826981,0.455517 M 719.025583,609.047791 l -215.699994,-53.780049 M 737.269064,622.871924 l 2.013915,0.502126 M 735.586433,622.452397 l -6.057002,-1.510180 M 709.471754,615.941277 l 14.448849,3.602503 M 708.422953,615.679781 l -202.276839,-50.433280 M 499.802131,563.664768 l 2.647474,0.660090 M 700.595256,623.003640 l -129.362515,-32.253698 M 498.925719,572.721777 l 66.710145,16.632707 M 664.689092,623.326750 l -222.240302,-55.410731 M 432.512571,565.438642 l 2.662878,0.663930 M 425.644545,563.726251 l -6.790480,-1.693057 M 405.062115,558.594475 l 0.180407,0.044981 M 643.120217,627.224548 l -219.078064,-54.622296 M 401.441286,566.967223 l 20.159635,5.026362 M 398.800386,566.308773 l -24.256894,-6.047923 M 367.601807,558.530094 l 2.278638,0.568128 M 634.336150,634.309957 l -313.382508,-78.135035 M 307.908072,562.197819 l 308.479421,76.912558 M 567.756223,636.260762 l -136.292996,-33.981660 M 532.407620,636.722888 l 18.494244,4.611133"
       id="path11" />
  </g>
  <g
     inkscape:label="fill-6c6c6c"
     inkscape:groupmode="layer"
     id="fill-6c6c6c">
    <path
       style="stroke:#6c6c6c"
       d="M 520.628673,323.230957 l -43.034439,-9.147252 M 495.086948,329.047642 l 44.157683,9.386005 M 552.179538,352.428793 l -24.475789,-5.202490 M 515.441792,344.619944 l 11.380747,2.419052 M 561.987180,365.759218 l -16.134643,-3.429524 M 532.394219,359.469040 l 4.820271,1.024580 M 575.203710,379.814225 l -22.763088,-4.838444 M 568.245319,389.580920 l 17.681045,3.758222 M 561.783118,388.207337 l -2.489377,-0.529133 M 580.533029,403.438500 l 16.443976,3.495275 M 606.730325,420.252653 l -20.083800,-4.268943 M 431.561527,383.019376 l 5.676822,1.206646 M 615.170354,433.292384 l -30.532259,-6.489832 M 444.596281,397.035745 l 6.240129,1.326380 M 437.090739,395.440393 l -9.878125,-2.099660 M 582.485006,437.590645 l 39.520164,8.400270 M 455.006483,410.494248 l -13.454023,-2.859741 M 628.691709,458.657929 l 4.716481,1.002519 M 625.933501,458.071654 l -71.176782,-15.129092 M 469.755954,424.875092 l 13.067032,2.777483 M 455.054442,421.750189 l -47.031464,-9.996846 M 634.211892,471.077027 l 6.954064,1.478132 M 631.245121,470.446420 l -55.742103,-11.848350 M 557.981957,454.873854 l 15.218177,3.234723 M 555.085769,454.258250 l -7.777649,-1.653190 M 490.118714,440.449076 l 8.791023,1.868590 M 476.799266,437.617941 l -67.742381,-14.399088 M 393.125479,419.832528 l 4.261644,0.905840 M 648.233477,485.303153 l -9.293589,-1.975413 M 561.763623,466.923419 l 75.766009,16.104562 M 536.677751,461.591252 l -140.455393,-29.854715 M 582.224848,482.518333 l 73.566518,15.637046 M 572.602918,480.473128 l -206.975181,-43.993933 M 608.924274,499.439217 l 53.980267,11.473860 M 605.541758,498.720242 l -35.548998,-7.556173 M 383.755824,451.578186 l 185.819360,39.497124 M 667.333079,523.100139 l -216.209182,-45.956680 M 483.307108,495.229958 l 186.618848,39.667061 M 669.160771,545.980120 l -113.556159,-24.137107 M 514.041651,513.008533 l 29.427853,6.255083 M 511.644727,512.499051 l -3.496518,-0.743208 M 489.478132,507.787396 l 9.654702,2.052170 M 680.890713,559.719142 l -26.266977,-5.583218 M 630.315987,548.969153 l 18.571167,3.947423 M 630.127983,548.929191 l -85.235483,-18.117361 M 506.323036,522.613637 l 24.550714,5.218415 M 502.990648,521.905316 l -12.246287,-2.603029 M 651.118997,564.636715 l 37.570423,7.985840 M 648.335334,564.045030 l -153.327780,-32.590826 M 508.499739,545.567803 l 211.535939,44.963352 M 504.610805,544.741184 l -5.291667,-1.124779 M 502.316225,555.499203 l 222.369623,47.266122 M 725.331271,614.148261 l -227.045753,-48.260065 M 707.883647,621.685400 l 14.146159,3.006859 M 704.747675,621.018829 l -262.408730,-55.776697 M 418.698522,560.217205 l 20.254103,4.305143 M 409.089023,558.174642 l -6.348374,-1.349389 M 365.336145,560.120428 l 306.448054,65.137545 M 641.597058,630.087244 l -342.110597,-72.717852 M 375.420694,584.755458 l 248.833924,52.891283 M 569.260804,637.203192 l -42.053481,-8.938743 M 532.893222,640.718770 l 16.664631,3.542177"
       id="path14" />
  </g>
  <g
     inkscape:label="fill-8e8e8e"
     inkscape:groupmode="layer"
     id="fill-8e8e8e">
    <path
       style="stroke:#8e8e8e"
       d="M 517.821976,319.534335 l -43.165528,-6.836748 M 493.348380,328.820145 l 44.038624,6.975033 M 552.594811,351.365904 l -38.744631,-6.136547 M 544.911178,363.310983 l 21.142655,3.348668 M 538.022290,362.219890 l -4.692311,-0.743189 M 554.696802,378.022920 l 23.230724,3.679385 M 590.052721,396.784794 l -21.076933,-3.338258 M 420.647804,369.953691 l 3.197321,0.506406 M 602.134189,411.860357 l -19.821216,-3.139372 M 430.959139,384.748893 l 9.227003,1.461414 M 612.202391,426.617050 l -27.599782,-4.371376 M 448.072409,400.621415 l 8.119558,1.286012 M 444.845771,400.110366 l -14.628942,-2.316997 M 576.689946,434.154478 l 44.761064,7.089456 M 472.851297,417.708052 l -6.024161,-0.954133 M 444.755078,413.258048 l 19.600205,3.104367 M 441.690175,412.772615 l -32.223681,-5.103730 M 552.718814,443.519871 l 79.405363,12.576574 M 491.354636,433.800740 l -13.485602,-2.135910 M 393.522379,418.305632 l 77.052911,12.203982 M 641.234160,470.701371 l -80.990275,-12.827599 M 546.627061,455.717078 l 12.575889,1.991825 M 519.268923,451.383975 l -21.061297,-3.335782 M 393.860690,431.521262 l 99.571649,15.770600 M 649.379824,485.153564 l -85.852188,-13.597651 M 361.057635,439.487815 l 194.244130,30.765248 M 657.644372,499.624586 l -249.609237,-39.534219 M 457.682440,481.115774 l 207.020241,32.788785 M 669.352514,527.803067 l -179.548909,-28.437753 M 553.464581,522.610268 l 118.420565,18.755975 M 546.358546,521.484783 l -28.431108,-4.503045 M 487.457103,512.155711 l 17.714717,2.805736 M 678.308307,555.545619 l -24.568658,-3.891293 M 492.281949,526.081938 l 157.245904,24.905304 M 688.990024,570.399483 l -191.713255,-30.364397 M 501.750327,553.905675 l 216.803653,34.338325 M 726.077475,602.597651 l -228.466795,-36.185586 M 728.805637,616.191796 l 5.043299,0.798780 M 727.022131,615.909317 l -371.374135,-58.819885 M 305.395276,562.292230 l 397.518927,62.960813 M 643.610846,629.022360 l -260.257424,-41.220726 M 471.770668,614.967597 l 150.889482,23.898546 M 553.168313,641.021764 l -22.481003,-3.560641"
       id="path17" />
  </g>
  <g
     inkscape:label="fill-aeaeae"
     inkscape:groupmode="layer"
     id="fill-aeaeae">
    <path
       style="stroke:#aeaeae"
       d="M 489.364638,305.130208 l -23.320559,-2.863405 M 480.504245,319.154936 l 44.087336,5.413244 M 544.819452,342.164498 l -42.354298,-5.200454 M 520.876192,354.337283 l 39.733428,4.878652 M 574.528118,376.037558 l -26.261836,-3.224548 M 559.255030,389.274906 l 28.136144,3.454684 M 428.730650,373.248528 l -6.884652,-0.845329 M 579.088498,406.822797 l 22.041833,2.706397 M 445.147406,390.376899 l -21.852901,-2.683199 M 583.622581,422.492160 l 29.158991,3.580274 M 462.633484,407.636567 l -27.340414,-3.356981 M 573.696472,436.386035 l 49.754494,6.109084 M 482.161694,425.146977 l -85.394478,-10.485123 M 549.784633,448.562677 l 85.063221,10.444450 M 505.974137,443.183425 l -17.793071,-2.184714 M 388.843073,428.801539 l 96.933051,11.901882 M 644.642376,475.322391 l -86.185896,-10.582297 M 361.159021,440.515012 l 180.210535,22.127071 M 653.859503,491.566759 l -247.039160,-30.332595 M 459.497919,482.814805 l 203.354989,24.968853 M 668.870738,523.635202 l -174.099620,-21.376745 M 488.220240,516.566757 l 184.100328,22.604678 M 678.835967,555.084073 l -25.968092,-3.188481 M 493.810328,532.365781 l 156.568452,19.224189 M 690.092032,571.578791 l -189.483679,-23.265670 M 496.738743,562.950640 l 224.500753,27.565226 M 467.979314,559.419426 l -5.185207,-0.636663 M 345.474881,544.377773 l 4.937242,0.606217 M 727.789025,606.432695 l -421.688577,-51.776847 M 338.602459,573.759241 l 403.932069,49.596622 M 667.251803,629.224953 l -13.208240,-1.621768 M 413.236110,598.035748 l 232.867870,28.592579 M 624.673914,639.109693 l -116.899287,-14.353428 M 532.262465,642.875642 l 18.009085,2.211238"
       id="path20" />
  </g>
  <g
     inkscape:label="fill-cfcfcf"
     inkscape:groupmode="layer"
     id="fill-cfcfcf">
    <path
       style="stroke:#cfcfcf"
       d="M 491.931293,305.005268 l -27.416903,-1.917177 M 481.141269,321.292268 l 45.296625,3.167449 M 546.933748,342.934439 l -42.191116,-2.950290 M 524.672935,358.419323 l 39.304920,2.748468 M 578.343672,379.213859 l -29.891999,-2.090252 M 416.718989,367.911960 l 9.032675,0.631626 M 592.668874,397.257087 l -27.052125,-1.891669 M 420.144386,385.193000 l 23.435398,1.638763 M 606.639642,415.275530 l -24.888843,-1.740397 M 433.027699,403.135401 l 28.687422,2.006020 M 618.591204,433.152777 l -48.823851,-3.414096 M 387.814751,417.015316 l 93.737604,6.554772 M 630.874969,451.053254 l -80.899436,-5.657040 M 365.576454,432.501775 l 141.210256,9.874383 M 642.174096,468.884878 l -88.831776,-6.211723 M 371.841308,449.981368 l 169.946190,11.883795 M 652.117119,486.621675 l -224.811329,-15.720340 M 472.298110,491.089017 l 190.276154,13.305405 M 669.433233,521.915560 l -183.930562,-12.861678 M 490.506034,526.445263 l 182.885399,12.788593 M 681.645866,556.852575 l -185.065826,-12.941063 M 496.482263,560.946187 l 204.471741,14.298057 M 488.089317,560.359295 l -1.957896,-0.136909 M 456.572578,558.155430 l 15.425271,1.078640 M 444.736387,557.327762 l -22.613595,-1.581297 M 393.908370,553.773521 l 26.519669,1.854436 M 389.876092,553.491557 l -58.378784,-4.082242 M 308.307690,564.829251 l 416.761268,29.142787 M 730.785842,611.413313 l -355.548541,-24.862376 M 736.911460,628.883171 l 8.494860,0.594018 M 708.590291,626.902762 l -264.927264,-18.525519 M 525.941438,631.172222 l 107.577368,7.522542 M 545.943817,649.612437 l -11.833766,-0.827498"
       id="path23" />
  </g>
</svg>
