<?xml version="1.0" encoding="UTF-8" standalone="no"?>
<!-- Created with Inkscape (http://www.inkscape.org/) -->

<svg
   xmlns:dc="http://purl.org/dc/elements/1.1/"
   xmlns:cc="http://creativecommons.org/ns#"
   xmlns:rdf="http://www.w3.org/1999/02/22-rdf-syntax-ns#"
   xmlns:svg="http://www.w3.org/2000/svg"
   xmlns="http://www.w3.org/2000/svg"
   xmlns:sodipodi="http://sodipodi.sourceforge.net/DTD/sodipodi-0.dtd"
   xmlns:inkscape="http://www.inkscape.org/namespaces/inkscape"
   id="svg2"
   version="1.1"
   inkscape:version="0.48.3.1 r9886"
   width="832"
   height="1169"
   sodipodi:docname="hantologie-_0005_petit-noir_hatched_1398276113.svg">
  <defs
     id="defs27" />
  <sodipodi:namedview
     pagecolor="#ffffff"
     bordercolor="#666666"
     borderopacity="1"
     objecttolerance="10"
     gridtolerance="10"
     guidetolerance="10"
     inkscape:pageopacity="0"
     inkscape:pageshadow="2"
     inkscape:window-width="640"
     inkscape:window-height="480"
     id="namedview25" />
  <metadata
     id="metadata8">
    <rdf:RDF>
      <cc:Work
         rdf:about="">
        <dc:format>image/svg+xml </dc:format>
        <dc:type
           rdf:resource="http://purl.org/dc/dcmitype/StillImage" />
        <dc:title />
      </cc:Work>
    </rdf:RDF>
  </metadata>
  <g
     inkscape:label="fill-0d0d0d"
     inkscape:groupmode="layer"
     id="fill-0d0d0d">
    <path
       style="stroke:#0d0d0d"
       d="M 613.520589,312.893210 l -1.901974,0.301243 M 589.466507,326.827653 l 2.334282,-0.369714 M 641.780614,333.728890 l -2.185916,0.346215 M 422.583491,444.381188 l 2.216508,-0.351060 M 417.056822,450.318852 l -0.948324,0.150200 M 506.006020,441.293009 l 4.050936,-0.641605 M 404.996003,457.291423 l -5.827190,0.922936 M 527.468793,442.955965 l 0.021657,-0.003430 M 502.025009,446.985864 l -5.842143,0.925305 M 394.397111,464.032449 l 7.985592,-1.264793 M 374.722804,467.148553 l -1.363187,0.215908 M 370.606292,472.862870 l 15.817991,-2.505324 M 364.063092,473.899211 l -3.489394,0.552666 M 358.787005,479.797187 l 24.829019,-3.932530 M 382.776029,481.060024 l -26.339634,4.171788 M 314.517103,491.871176 l 2.486143,-0.393766 M 383.476105,486.011469 l -30.519624,4.833834 M 349.647194,496.431767 l 33.450300,-5.298007 M 298.283445,504.566986 l -25.570864,4.050027 M 457.526570,484.407679 l 3.276031,-0.518872 M 382.959621,496.217923 l -18.878748,2.990100 M 273.154474,513.609350 l 30.075860,-4.763548 M 459.020954,489.233317 l -8.805886,1.394715 M 362.760108,504.479537 l 20.280759,-3.212157 M 307.239229,513.273181 l -31.183639,4.939003 M 439.854283,497.331345 l 7.250701,-1.148398 M 382.093050,506.479826 l -27.339647,4.330175 M 280.480313,522.573702 l 27.671735,-4.382772 M 276.545373,523.196935 l -9.140745,1.447752 M 431.345730,503.741293 l 6.017581,-0.953091 M 393.515997,509.732934 l -10.380313,1.644080 M 358.800727,515.231293 l 21.722488,-3.440504 M 347.756003,516.980605 l -11.065997,1.752682 M 323.125403,520.881709 l 4.344726,-0.688137 M 310.015082,522.958180 l -8.655336,1.370871 M 296.942978,525.028598 l 1.164081,-0.184372 M 293.368690,525.594709 l -24.404970,3.865367 M 416.791486,511.108784 l 12.907759,-2.044388 M 404.660109,513.030206 l -16.251239,2.573943 M 356.526013,520.653898 l 17.164479,-2.718586 M 356.296703,520.690217 l -2.555827,0.404803 M 347.995894,522.004936 l 2.400353,-0.380179 M 344.468811,522.563571 l -3.632836,0.575385 M 325.480106,525.571086 l 8.454130,-1.339003 M 289.907459,531.205240 l -16.878856,2.673348 M 385.532329,521.122074 l 27.632615,-4.376576 M 371.087822,523.409859 l -15.821302,2.505848 M 328.754560,530.114789 l 19.447909,-3.080246 M 289.877473,536.272315 l -12.144062,1.923430 M 451.086379,515.801658 l 4.591543,-0.727229 M 428.540929,519.372507 l -1.507665,0.238791 M 393.476131,524.926225 l 4.891874,-0.774797 M 370.203215,528.612293 l -30.971300,4.905372 M 295.575582,540.432149 l 0.320953,-0.050834 M 291.989109,541.000190 l -10.776875,1.706889 M 454.758262,520.282415 l 4.851176,-0.768351 M 428.891250,524.379347 l -2.539730,0.402254 M 400.595992,528.860876 l 4.129105,-0.653986 M 394.922363,529.759490 l -5.461754,0.865057 M 342.675254,538.034619 l 22.771255,-3.606612 M 296.110880,545.409692 l -12.419518,1.967058 M 385.706407,536.281480 l 3.992985,-0.632427 M 384.087197,536.537937 l -13.666707,2.164594 M 333.343234,544.574992 l 27.874030,-4.414813 M 311.562441,548.024730 l -6.121681,0.969579 M 286.835518,551.941090 l 10.150032,-1.607607 M 407.481875,537.894910 l -3.218444,0.509751 M 384.494097,541.535817 l 2.810812,-0.445189 M 379.773578,542.283473 l -49.567405,7.850706 M 323.657176,551.171438 l 3.563897,-0.564466 M 299.017072,555.074047 l -8.002928,1.267539 M 454.351817,535.533766 l 3.686216,-0.583839 M 410.232860,542.521523 l -10.388130,1.645318 M 383.447874,546.763848 l 9.794727,-1.551332 M 376.527908,547.859863 l -5.696140,0.902180 M 333.880949,554.614477 l 36.648363,-5.804530 M 332.204752,554.879961 l -16.531382,2.618314 M 297.151917,560.431784 l 4.226849,-0.669467 M 412.606529,547.207896 l -79.333173,12.565140 M 309.149891,563.593818 l 8.072982,-1.278635 M 421.671696,550.834440 l -2.569648,0.406992 M 320.955112,566.786380 l 93.954394,-14.880914 M 416.805918,556.667429 l -51.977056,8.232357 M 353.282327,566.728578 l 6.732593,-1.066338 M 347.609505,567.627064 l -11.731079,1.858020 M 326.861519,570.913223 l 3.935096,-0.623258 M 496.658683,549.082319 l -1.823606,0.288831 M 479.783602,551.755070 l 4.097102,-0.648917 M 445.336934,557.210886 l -6.896646,1.092321 M 396.590169,564.931615 l 23.510921,-3.723764 M 391.771492,565.694819 l -14.923214,2.363605 M 356.106380,571.343617 l 17.781606,-2.816330 M 491.001529,555.040650 l -9.893035,1.566903 M 466.478172,558.924768 l 5.485735,-0.868855 M 451.386337,561.315080 l -19.232147,3.046073 M 408.088577,568.172772 l 18.779407,-2.974366 M 406.517586,568.421592 l -47.982807,7.599730 M 482.000000,561.528678 l 11.629299,-1.841900 M 480.289408,561.799609 l -33.293574,5.273184 M 349.552803,582.506253 l 94.088671,-14.902181 M 490.250293,565.284286 l -42.010173,6.653758 M 405.590536,578.693074 l 29.281941,-4.637804 M 404.262731,578.903377 l -49.920981,7.906707 M 492.021767,570.066037 l 4.332041,-0.686128 M 489.360209,570.487587 l -31.375283,4.969357 M 440.620294,578.207231 l 15.500193,-2.454989 M 427.818343,580.234861 l -68.473691,10.845167 M 491.743223,575.172480 l 8.466365,-1.340941 M 489.810379,575.478612 l -22.701858,3.595621 M 433.653757,584.372948 l 30.464067,-4.825034 M 421.466071,586.303287 l -0.323804,0.051286 M 365.762038,595.125940 l 35.516346,-5.625237 M 501.892407,578.627333 l -19.296889,3.056327 M 423.732065,591.006715 l 25.793949,-4.085360 M 407.410423,593.591809 l -2.994314,0.474253 M 374.518279,598.801413 l 25.538939,-4.044971 M 495.537761,584.696136 l -9.274838,1.468990 M 405.916422,598.890761 l 4.807816,-0.761483 M 496.458639,589.612608 l -6.496177,1.028893 M 407.958056,603.629724 l 6.433028,-1.018891 M 420.688002,606.675824 l -5.600809,0.887081"
       id="path5" />
  </g>
  <g
     inkscape:label="fill-303030"
     inkscape:groupmode="layer"
     id="fill-303030">
    <path
       style="stroke:#303030"
       d="M 280.003571,497.943808 l -12.659571,7.910578 M 296.380985,495.964313 l 2.807303,-1.754197 M 292.118833,498.627602 l -23.645515,14.775358 M 635.079967,292.575949 l 3.115877,-1.947016 M 598.632178,315.351055 l -10.691397,6.680726 M 387.327969,447.388579 l 2.387733,-1.492021 M 317.892499,490.776677 l -4.777927,2.985580 M 260.887985,526.397050 l 43.278301,-27.043284 M 616.295408,312.568093 l -15.843268,9.899973 M 583.983284,332.758949 l 10.491523,-6.555831 M 457.272030,411.936928 l -1.583851,0.989700 M 347.173023,480.734423 l 32.621461,-20.384151 M 308.779454,504.725387 l -44.243914,27.646666 M 424.909635,440.413445 l 5.092964,-3.182437 M 407.833153,451.084016 l -13.248900,8.278832 M 346.469321,489.428394 l 42.329230,-26.450239 M 345.049534,490.315575 l -2.430226,1.518574 M 268.479436,538.161883 l 44.242580,-27.645832 M 412.028364,456.716806 l -69.775514,43.600581 M 321.433188,513.326955 l 9.124450,-5.701589 M 311.129124,519.765648 l -37.967817,23.724925 M 594.014690,351.253377 l 15.667775,-9.790312 M 554.948695,375.664520 l -11.016415,6.883820 M 454.133243,438.661007 l 2.856822,-1.785141 M 391.982310,477.497220 l -39.450454,24.651379 M 330.012411,516.220310 l 13.402991,-8.375118 M 327.374292,517.868790 l -5.363283,3.351351 M 310.037275,528.702161 l 4.416114,-2.759494 M 296.908302,536.906053 l -17.984357,11.237874 M 661.342339,317.436641 l 2.298312,-1.436145 M 659.413363,318.641999 l -11.560822,7.224004 M 565.940236,377.050492 l 3.549463,-2.217951 M 387.401179,488.614077 l -64.917451,40.564926 M 283.915476,553.279121 l 16.701677,-10.436366 M 635.365914,341.922762 l -17.316653,10.820646 M 559.005338,389.638146 l 10.707933,-6.691059 M 387.425560,496.853090 l -62.911647,39.311560 M 302.841224,549.707249 l 11.962204,-7.474815 M 300.475988,551.185213 l -11.750999,7.342839 M 513.283850,426.462351 l 31.352505,-19.591219 M 402.978792,495.388601 l -97.655830,61.022135 M 295.292722,562.678326 l 8.066444,-5.040474 M 599.576175,380.795171 l -11.906436,7.439967 M 534.384504,421.531448 l 9.561216,-5.974511 M 527.667068,425.728968 l -14.028057,8.765703 M 485.102258,452.326413 l 18.997762,-11.871119 M 406.399077,501.505619 l -26.522386,16.573026 M 304.316064,565.294165 l 73.445152,-45.893624 M 558.946992,414.437351 l -43.463538,27.159033 M 461.281349,475.465618 l 50.216667,-31.378856 M 452.582125,480.901497 l -4.036287,2.522152 M 438.149857,489.919778 l 6.260868,-3.912225 M 408.353807,508.538417 l -100.474247,62.783278 M 315.860905,574.588645 l 217.857507,-136.132479 M 489.718139,474.204837 l -1.036793,0.647860 M 472.810182,484.770101 l 6.828770,-4.267089 M 470.282873,486.349339 l -11.912590,7.443812 M 451.889392,497.842861 l 6.140717,-3.837146 M 406.150066,526.423965 l -77.019764,48.127290 M 461.902705,499.840098 l 3.724664,-2.327428 M 437.877155,514.852928 l -15.060708,9.410975 M 399.744306,538.680977 l 9.091463,-5.680977 M 394.233617,542.124437 l -57.069246,35.660823 M 469.773303,503.176252 l 1.100484,-0.687659 M 454.275470,512.860372 l -19.640610,12.272815 M 345.506097,580.827020 l 72.388770,-45.233524 M 481.393395,504.169461 l -8.588785,5.366868 M 448.656514,524.625734 l 16.419582,-10.260094 M 440.556666,529.687081 l -4.162094,2.600765 M 415.228882,545.513637 l 3.467622,-2.166810 M 414.463020,545.992201 l -64.759690,40.466345 M 455.154593,528.819533 l 6.670160,-4.167979 M 452.699622,530.353569 l -6.707727,4.191453 M 356.657374,590.367426 l 68.113781,-42.562214 M 477.205278,523.294985 l -1.424112,0.889884 M 454.588970,537.427222 l 4.765154,-2.977599 M 448.331429,541.337368 l -14.298826,8.934898 M 363.006588,594.654246 l 66.155001,-41.338232 M 476.038534,532.278296 l -4.159948,2.599424 M 461.980970,541.062437 l 1.942318,-1.213695 M 457.958971,543.575661 l -87.395166,54.610561 M 477.379234,539.694782 l 9.430772,-5.893001 M 462.854971,548.770549 l -1.875912,1.172200 M 379.148170,601.076364 l 72.684894,-45.418562 M 492.294993,538.628631 l -4.405087,2.752604 M 482.732750,544.603783 l 2.610617,-1.631294 M 480.494799,546.002210 l -4.014453,2.508509 M 463.414783,556.674988 l 3.183280,-1.989134 M 457.145454,560.592500 l -42.600826,26.619951 M 393.362211,600.448694 l 16.575636,-10.357607 M 496.072104,544.522679 l -4.129311,2.580280 M 477.672002,556.020338 l 11.293274,-7.056821 M 476.720371,556.614984 l -57.444421,35.895258 M 403.283015,602.503737 l 10.922599,-6.825198 M 498.294987,551.387916 l -3.541162,2.212764 M 410.246725,606.406576 l 83.172374,-51.971868 M 500.280177,558.401680 l -2.818383,1.761121 M 465.568352,580.092036 l 30.639330,-19.145578 M 465.511755,580.127402 l -6.897273,4.309894 M 418.323920,609.613634 l 18.347408,-11.464733 M 502.106773,565.514545 l -31.613217,19.754130 M 453.519500,595.875243 l 2.645064,-1.652819 M 503.933369,572.627410 l -21.019052,13.134162 M 443.363424,610.475712 l 1.821415,-1.138146 M 507.235196,578.818449 l -20.377471,12.733257 M 495.109925,594.649408 l 3.810130,-2.380833"
       id="path8" />
  </g>
  <g
     inkscape:label="fill-505050"
     inkscape:groupmode="layer"
     id="fill-505050">
    <path
       style="stroke:#505050"
       d="M 275.080824,490.675295 l -9.739922,13.910050 M 259.788290,528.206318 l 24.909126,-35.573919 M 298.306944,488.887000 l -33.552403,47.917798 M 270.081069,544.888748 l 38.861647,-55.500184 M 324.731862,482.530348 l -10.335451,14.760554 M 276.873723,550.878855 l 36.378154,-51.953388 M 344.185956,470.438044 l -13.728764,19.606707 M 327.232550,494.650017 l 0.627752,-0.896523 M 322.187054,501.855732 l -38.612775,55.144758 M 320.623194,519.780177 l 43.958997,-62.779954 M 317.290204,524.540180 l -7.939700,11.339067 M 290.357387,563.004229 l 15.382072,-21.967876 M 378.495267,452.821313 l -80.764541,115.343719 M 305.644599,572.553870 l 89.967762,-128.487280 M 406.002265,444.919290 l -91.757415,131.043170 M 323.543215,578.374039 l 95.048592,-135.743457 M 451.956857,410.671373 l -2.672584,3.816846 M 408.256271,473.082278 l 28.741361,-41.046918 M 401.448950,482.804140 l -68.178708,97.369286 M 459.660216,415.360858 l 4.285786,-6.120736 M 454.187369,423.176894 l -13.157579,18.790970 M 420.078250,471.889764 l 10.522031,-15.027017 M 418.794245,473.723514 l -8.385049,11.975091 M 341.611471,583.951938 l 65.052699,-92.904883 M 464.370347,424.325115 l -5.582609,7.972792 M 449.061186,446.188862 l 7.655763,-10.933563 M 442.966627,454.892795 l -11.302609,16.141799 M 417.753034,490.901537 l 1.402538,-2.003031 M 415.070774,494.732202 l -65.160716,93.059147 M 443.921712,469.219813 l 26.559505,-37.930904 M 440.569044,474.007919 l -42.780140,61.096371 M 357.929966,592.028753 l 38.088372,-54.395832 M 487.537246,422.621397 l -41.896984,59.835094 M 422.275263,515.825167 l 21.707067,-31.000904 M 413.778719,527.959490 l -48.045886,68.616637 M 502.141030,417.456054 l 4.564258,-6.518435 M 498.684200,422.392918 l -57.478287,82.087501 M 374.269671,600.075279 l 63.814813,-91.136998 M 537.330568,382.891206 l -6.141572,8.771074 M 519.100161,408.926924 l 4.081477,-5.828953 M 513.630492,416.738421 l -61.841485,88.318794 M 383.974169,601.906841 l 66.463761,-94.920088 M 622.847719,276.451078 l -2.779724,3.969857 M 613.009490,290.501526 l 2.578772,-3.682867 M 609.614454,295.350139 l -29.329115,41.886317 M 544.805289,387.907219 l 9.231320,-13.183691 M 542.191341,391.640323 l -6.659590,9.510880 M 395.954884,600.487628 l 132.908419,-189.812894 M 612.074675,307.527601 l -13.791795,19.696725 M 578.340438,355.705083 l 0.605966,-0.865409 M 568.549442,369.688075 l -16.814935,24.014216 M 498.382030,469.897524 l 46.315204,-66.144967 M 494.104548,476.006402 l -5.937514,8.479649 M 404.468568,604.019849 l 79.889164,-114.093550 M 641.939102,280.567800 l -27.784251,39.680023 M 590.455476,354.094037 l 9.330732,-13.325666 M 572.478045,379.768470 l -5.903530,8.431115 M 519.317366,455.689788 l 42.131215,-60.169610 M 492.070278,494.602662 l -13.566236,19.374594 M 412.341061,608.467784 l 63.968162,-91.356003 M 658.907590,272.025308 l -1.881286,2.686755 M 607.752099,345.082921 l 33.829282,-48.313222 M 584.488714,378.306477 l -3.443533,4.917874 M 553.437548,422.652138 l 24.024594,-34.310676 M 499.998016,498.971700 l -0.544597,0.777765 M 422.129544,610.179403 l 64.796483,-92.538968 M 657.034447,290.391455 l -30.276229,43.238936 M 579.833311,400.646104 l 13.205352,-18.859196 M 578.585823,402.427701 l -5.672352,8.100959 M 446.790359,590.651130 l 45.532382,-65.026981 M 439.952419,600.416720 l -3.638570,5.196416 M 663.171772,297.317467 l 11.953573,-17.071471 M 658.864051,303.469531 l -14.381413,20.538786 M 624.565094,352.453517 l 17.970191,-25.664092 M 607.666656,376.586988 l -9.370916,13.383055 M 591.610578,399.517444 l 2.037190,-2.909409 M 496.889692,534.792889 l -1.132919,1.617976 M 489.524870,545.310944 l 4.881971,-6.972177 M 488.896485,546.208372 l -27.739637,39.616308 M 452.574429,598.081643 l 5.133896,-7.331963 M 445.870267,607.656180 l -4.095040,5.848324 M 664.461207,311.166984 l 4.171512,-5.957536 M 663.207919,312.956866 l -10.395096,14.845736 M 617.340055,378.462963 l 4.511311,-6.442820 M 498.590136,548.055424 l -29.214709,41.722928 M 632.214434,372.911170 l 3.194007,-4.561514 M 501.797021,559.166539 l -19.638959,28.047339 M 647.549450,366.701519 l 2.414673,-3.448511 M 505.779407,569.170123 l -18.561930,26.509183 M 498.830309,594.785486 l 10.989184,-15.694182"
       id="path11" />
  </g>
  <g
     inkscape:label="fill-6e6e6e"
     inkscape:groupmode="layer"
     id="fill-6e6e6e">
    <path
       style="stroke:#6e6e6e"
       d="M 242.681596,505.818039 l -0.646652,2.800959 M 251.973709,514.469004 l 1.666739,-7.219439 M 268.844691,490.292280 l -9.209579,39.891068 M 267.778005,543.812130 l 12.857793,-55.693220 M 292.535871,485.473556 l -15.585443,67.507972 M 286.381645,561.029963 l 18.451103,-79.920506 M 320.432635,462.438449 l -24.394055,105.662260 M 332.265822,460.082811 l 1.892933,-8.199191 M 332.128773,460.676436 l -2.178301,9.435257 M 318.703035,518.829697 l 9.711784,-42.066359 M 317.751918,522.949436 l -11.715418,50.745052 M 346.666680,446.605371 l 0.511993,-2.217686 M 345.684898,450.857933 l -29.178751,126.387056 M 357.209629,449.838367 l 1.876260,-8.126974 M 356.240115,454.037795 l -0.429768,1.861531 M 327.088098,580.309051 l 28.333796,-122.727153 M 371.769620,435.671644 l -1.868921,8.095188 M 337.630267,583.545427 l 30.755567,-133.216996 M 384.437281,429.701501 l -1.228862,5.322784 M 347.917051,587.887997 l 33.298973,-144.233697 M 397.064242,423.907652 l -1.856879,8.043026 M 358.072217,592.800666 l 34.879807,-151.081042 M 409.479316,419.031585 l -1.957768,8.480023 M 368.122498,598.167643 l 36.374345,-157.554598 M 424.352575,403.507946 l -0.455015,1.970887 M 419.721610,423.566860 l 2.030500,-8.795061 M 416.254788,438.583317 l -37.769604,163.598130 M 436.202588,401.079428 l 0.723511,-3.133871 M 434.350982,409.099613 l -2.663418,11.536531 M 389.899416,601.640500 l 39.264214,-170.071995 M 447.354670,401.673979 l -3.953088,17.122706 M 420.452986,518.197976 l 20.915217,-90.593760 M 420.138293,519.561062 l -19.285842,83.536159 M 411.019462,607.958582 l 50.588985,-219.124968 M 473.895432,384.512362 l -52.486221,227.342799 M 433.737143,607.356550 l 52.229926,-226.232666 M 433.201125,609.678297 l -1.007574,4.364281 M 496.084478,386.200097 l 1.339252,-5.800937 M 491.949267,404.111666 l -43.132431,186.827084 M 443.261625,615.001010 l 3.571465,-15.469716 M 504.221642,399.853693 l -43.259309,187.376654 M 459.999514,591.400777 l 0.082456,-0.357157 M 516.924500,393.731099 l -48.146489,208.545354 M 512.431184,462.093314 l 17.695034,-76.645614 M 502.474980,505.218371 l -0.285582,1.236991 M 482.824095,590.335707 l 14.070350,-60.945380 M 545.107033,369.458190 l -1.617119,7.004513 M 537.516679,402.335623 l 5.878515,-25.462644 M 537.420770,402.751050 l -12.013760,52.037310 M 492.269853,598.321160 l 9.980336,-43.229584 M 561.773426,346.167634 l -3.080215,13.341879 M 556.586620,368.634161 l 1.040914,-4.508692 M 555.699942,372.474787 l -5.385257,23.326109 M 541.124492,435.607995 l 8.626949,-37.367419 M 509.412626,572.967176 l -5.352513,23.184283 M 574.472764,340.060288 l 2.676261,-11.592161 M 573.525120,344.164985 l -1.304125,5.648785 M 555.055841,424.164220 l 14.875300,-64.432005 M 594.506793,302.182899 l -8.239917,35.691004 M 568.519983,414.744139 l 16.796123,-72.752000 M 613.319825,269.594231 l -22.902006,99.199485 M 581.701002,406.550400 l 7.180290,-31.101251 M 625.728244,264.746990 l -21.398759,92.688208 M 600.940252,372.115577 l 0.986959,-4.274990 M 599.665739,377.636101 l -4.902526,21.235174 M 614.467677,362.421391 l 19.232205,-83.303833 M 611.711701,374.358832 l -2.537788,10.992366 M 607.823368,391.201056 l 0.460338,-1.993945 M 648.039868,265.903781 l -19.492132,84.429697 M 620.715198,384.259931 l 3.147230,-13.632149 M 658.882855,267.837171 l -13.503620,58.490603 M 642.775084,337.607593 l 1.295876,-5.613056 M 636.031701,366.816394 l -1.824031,7.900748 M 656.989284,324.938654 l 14.287838,-61.887425 M 648.187101,363.065096 l -1.251938,5.422738 M 682.628160,262.784007 l 0.266890,-1.156029 M 681.628138,267.115581 l -7.132853,30.895780 M 671.131684,312.580716 l 1.828326,-7.919349 M 660.267809,359.637329 l -0.910800,3.945109 M 691.467229,273.397320 l 2.283829,-9.892348 M 690.822167,276.191392 l -2.127928,9.217070 M 685.400183,299.676583 l 0.058533,-0.253533 M 672.017731,357.642350 l -0.400023,1.732692 M 702.389817,274.985920 l 1.606054,-6.956586 M 684.005731,354.616143 l -0.304370,1.318372 M 715.919429,265.282259 l 1.835441,-7.950167"
       id="path14" />
  </g>
  <g
     inkscape:label="fill-8b8b8b"
     inkscape:groupmode="layer"
     id="fill-8b8b8b">
    <path
       style="stroke:#8b8b8b"
       d="M 231.148908,502.634636 l 0.594863,4.844774 M 243.538502,496.868166 l -0.305974,-2.491956 M 244.500176,504.700369 l 1.128279,9.189094 M 261.589328,537.208730 l -4.258831,-34.685397 M 268.811948,489.360629 l 7.947646,64.728379 M 291.304511,565.876237 l -9.677679,-78.818373 M 293.882867,480.203644 l 11.515301,93.784603 M 319.075911,578.712905 l -13.282490,-108.177202 M 317.713659,460.946635 l 15.000077,122.165824 M 346.414099,588.021344 l -16.775676,-136.626918 M 341.648032,442.533226 l 18.675474,152.099533 M 374.213864,601.089022 l -20.501623,-166.972320 M 365.960390,427.198253 l 21.546111,175.478996 M 390.380914,626.087465 l -0.238144,-1.939531 M 378.262893,420.722487 l 22.434192,182.711830 M 402.907401,621.435894 l -0.443203,-3.609595 M 390.616571,414.663496 l 24.963137,203.308434 M 428.406893,615.769355 l -25.412962,-206.971967 M 415.416896,403.302699 l 26.123639,212.759963 M 453.502820,606.816044 l -25.621461,-208.670051 M 440.362175,393.122462 l 24.322800,198.093310 M 466.266800,604.098699 l -0.807648,-6.577765 M 452.896682,388.536213 l 24.988171,203.512324 M 491.890044,599.440045 l -26.415043,-215.133264 M 478.090193,380.377658 l 27.058749,220.375824 M 492.358247,389.910015 l -1.563883,-12.736806 M 493.799261,401.646132 l 11.088342,90.307301 M 506.632774,506.166709 l -1.370196,-11.159349 M 503.950703,377.651373 l 0.757129,6.166317 M 514.377561,462.571317 l -8.095984,-65.936496 M 518.506127,389.524169 l 8.121015,66.140362 M 538.625227,446.709473 l -8.189801,-66.700574 M 541.755341,365.530593 l 7.832327,63.789182 M 561.634515,420.761849 l -8.466852,-68.956977 M 564.522386,337.610053 l 9.183503,74.793631 M 585.883916,404.914141 l -10.236423,-83.368976 M 586.215616,300.944004 l 11.898170,96.902815 M 607.650722,368.847309 l -9.693417,-78.946543 M 608.343107,374.486339 l 2.049492,16.691769 M 619.587653,359.394200 l -10.587439,-86.227768 M 620.997590,370.877213 l 1.742478,14.191347 M 631.408341,348.994353 l -10.801414,-87.970459 M 633.600504,366.848095 l 1.413943,11.515639 M 634.069108,263.992947 l -0.465426,-3.790594 M 634.243025,265.409386 l 0.743698,6.056937 M 643.191388,338.287954 l -7.550775,-61.496124 M 646.197733,362.772672 l 1.266072,10.311329 M 654.970157,327.546711 l -7.682500,-62.568939 M 658.844995,359.104733 l 0.775189,6.313406 M 660.160683,369.820156 l -0.535177,-4.358666 M 660.255412,263.920047 l 6.538589,53.252536 M 672.261567,361.702331 l -0.651471,-5.305803 M 673.008891,261.117175 l 4.384632,35.709963 M 678.613199,306.760601 l -0.613985,-5.000506 M 684.347613,353.463653 l 0.701877,5.716327 M 689.217277,286.452271 l -3.026592,-24.649611 M 697.140190,350.979218 l 0.792614,6.455324 M 701.178519,277.197147 l -1.646970,-13.413490 M 711.645424,255.771632 l 1.599899,13.030134 M 725.195806,259.459021 l -1.100687,-8.964376 M 736.745227,246.849888 l 0.218467,1.779271"
       id="path17" />
  </g>
  <g
     inkscape:label="fill-aeaeae"
     inkscape:groupmode="layer"
     id="fill-aeaeae">
    <path
       style="stroke:#aeaeae"
       d="M 222.952101,501.803098 l 2.891019,4.626598 M 236.308692,494.871912 l -3.715026,-5.945284 M 241.326317,502.901790 l 28.600320,45.770079 M 303.313998,573.796618 l -49.707603,-79.548793 M 267.777285,488.619790 l 58.027696,92.863725 M 348.450551,589.417805 l -64.679951,-103.509559 M 295.840176,476.917407 l 77.983050,124.798968 M 390.089452,627.747778 l -2.098106,-3.357671 M 307.632646,467.483106 l 84.375545,135.029098 M 404.874724,623.102960 l -3.473040,-5.558025 M 319.490319,458.153149 l 100.207233,160.365094 M 436.142329,616.529190 l -104.796844,-167.710008 M 343.422624,439.840446 l 98.913301,158.294371 M 456.129799,620.209631 l -12.746097,-20.398020 M 355.850379,431.422814 l 109.225298,174.797016 M 476.142788,595.624710 l -107.154243,-171.482635 M 382.418443,417.328206 l 113.324514,181.357133 M 516.870797,604.190753 l -120.975523,-193.601307 M 409.792634,404.523672 l 97.443185,155.941694 M 502.820688,525.093480 l -79.018250,-126.455634 M 437.923843,392.930619 l 70.719426,113.174739 M 511.838496,482.912591 l -59.495742,-95.213090 M 466.964781,382.793438 l 49.655433,79.465304 M 490.421868,392.026425 l -8.632717,-13.815236 M 495.472611,400.109304 l 34.400014,55.051529 M 504.141881,385.676837 l -6.563614,-10.503978 M 509.004591,393.458800 l 33.694093,53.921820 M 549.707175,430.290352 l -28.031708,-44.860109 M 532.797140,374.922441 l 29.174211,46.688498 M 574.324540,413.073973 l -31.592053,-50.557853 M 552.865531,350.426181 l 34.179886,54.699252 M 600.277343,397.994743 l -37.585509,-60.149388 M 571.680699,323.924347 l 30.955511,49.539173 M 614.168451,391.918963 l -11.365407,-18.188453 M 579.436005,308.029232 l 35.281037,56.461462 M 628.395286,386.380460 l -9.727998,-15.568051 M 589.341864,295.575723 l 36.847409,58.968181 M 644.377264,383.650773 l -10.871814,-17.398539 M 600.352170,284.889696 l 37.179024,59.498875 M 658.367268,377.733261 l -10.069641,-16.114794 M 609.460572,271.159988 l 39.320832,62.926485 M 671.850206,371.004273 l -8.497387,-13.598661 M 620.202203,260.043992 l 9.844434,15.754388 M 660.110253,323.910223 l -28.680415,-45.898258 M 678.816710,353.846811 l 7.513846,12.024668 M 637.576359,259.542255 l -0.840443,-1.344989 M 640.626264,264.423123 l 30.908191,49.463445 M 699.707998,358.973661 l -5.316751,-8.508580 M 657.400030,262.960562 l 21.126208,33.808999 M 682.970490,303.881851 l -2.505969,-4.010389 M 673.214440,259.962708 l 16.768407,26.835060 M 701.989560,277.706328 l -10.793532,-17.273261 M 707.141146,257.644391 l 7.171873,11.477395 M 726.160055,259.774809 l -5.712124,-9.141310 M 734.975894,245.576901 l 2.353261,3.766005"
       id="path20" />
  </g>
  <g
     inkscape:label="fill-cfcfcf"
     inkscape:groupmode="layer"
     id="fill-cfcfcf">
    <path
       style="stroke:#cfcfcf"
       d="M 382.165259,634.763567 l 3.792296,2.655394 M 236.828704,512.244648 l -16.445900,-11.515543 M 251.210716,522.315041 l 97.501843,68.271526 M 401.444975,627.510201 l -9.699714,-6.791813 M 229.977052,486.693901 l 167.145209,117.036335 M 420.662617,620.213371 l -11.023652,-7.718844 M 262.067681,488.410834 l 201.222355,140.897410 M 445.657255,596.208469 l -159.978121,-112.017886 M 446.494407,596.794649 l 17.053817,11.941211 M 476.270992,596.891271 l -177.467433,-124.264034 M 312.766664,461.651140 l 205.742515,144.062460 M 516.420855,583.498171 l -189.675680,-132.812341 M 341.120639,439.998471 l 165.974020,116.216260 M 502.987879,532.585964 l -146.663951,-102.695204 M 372.791749,420.668485 l 129.949105,90.991343 M 515.432685,499.793575 l -125.424375,-87.823093 M 407.890210,403.738355 l 108.118803,75.705601 M 520.189731,461.618158 l -93.519656,-65.483168 M 445.976856,388.900576 l 92.843345,65.009610 M 550.273946,441.177017 l -84.504600,-59.170758 M 553.990446,443.779338 l 1.690836,1.183936 M 503.010653,387.329735 l -16.616750,-11.635174 M 509.270146,391.712679 l 48.541282,33.988972 M 572.726812,415.392347 l -48.378864,-33.875245 M 535.879533,368.838436 l 52.949011,37.075297 M 607.370699,398.143921 l -60.485497,-42.352401 M 557.520002,342.484920 l 70.436749,49.320343 M 617.654087,363.838091 l -50.477879,-35.344992 M 623.925380,368.229298 l 23.327860,16.334343 M 630.499908,352.079664 l -55.193579,-38.646960 M 644.549692,361.917429 l 20.585382,14.414039 M 643.335117,340.313806 l -59.149088,-41.416638 M 665.423988,355.780600 l 18.108762,12.679892 M 656.170326,328.547948 l -59.152061,-41.418719 M 687.777313,350.679399 l 13.177974,9.227317 M 669.323777,317.004926 l -62.656883,-43.872822 M 617.915953,260.255612 l 64.928818,45.463648 M 688.950592,289.241434 l -38.782420,-27.155743 M 674.962173,258.693469 l 28.106380,19.680299 M 717.793193,267.930904 l -13.766238,-9.639224 M 720.327370,248.952186 l 11.291324,7.906270 M 741.919754,243.318168 l -2.669071,-1.868904"
       id="path23" />
  </g>
</svg>
