<?xml version="1.0" encoding="UTF-8" standalone="no"?>
<!-- Created with Inkscape (http://www.inkscape.org/) -->

<svg
   xmlns:dc="http://purl.org/dc/elements/1.1/"
   xmlns:cc="http://creativecommons.org/ns#"
   xmlns:rdf="http://www.w3.org/1999/02/22-rdf-syntax-ns#"
   xmlns:svg="http://www.w3.org/2000/svg"
   xmlns="http://www.w3.org/2000/svg"
   xmlns:sodipodi="http://sodipodi.sourceforge.net/DTD/sodipodi-0.dtd"
   xmlns:inkscape="http://www.inkscape.org/namespaces/inkscape"
   id="svg2"
   version="1.1"
   inkscape:version="0.48.3.1 r9886"
   width="1500"
   height="1911"
   sodipodi:docname="hantologie-_0000_arbre-01_hatched_1398269867.svg">
  <defs
     id="defs27" />
  <sodipodi:namedview
     pagecolor="#ffffff"
     bordercolor="#666666"
     borderopacity="1"
     objecttolerance="10"
     gridtolerance="10"
     guidetolerance="10"
     inkscape:pageopacity="0"
     inkscape:pageshadow="2"
     inkscape:window-width="640"
     inkscape:window-height="480"
     id="namedview25" />
  <metadata
     id="metadata8">
    <rdf:RDF>
      <cc:Work
         rdf:about="">
        <dc:format>image/svg+xml </dc:format>
        <dc:type
           rdf:resource="http://purl.org/dc/dcmitype/StillImage" />
        <dc:title />
      </cc:Work>
    </rdf:RDF>
  </metadata>
  <g
     inkscape:label="fill-040404"
     inkscape:groupmode="layer"
     id="fill-040404">
    <path
       style="stroke:#040404"
       d="M 362.284414,792.853705 l -1.367165,0.497608 M 362.770681,794.805074 l 0.794679,-0.289239 M 415.524230,824.556530 l -0.207558,0.075545 M 402.664694,829.237018 l 0.934205,-0.340023 M 417.231193,826.063602 l -1.378644,0.501785 M 403.795291,830.953870 l 1.758355,-0.639989 M 418.653982,827.674104 l -2.074164,0.754934 M 405.242652,832.555429 l 1.969272,-0.716756 M 419.961956,829.326396 l -2.664305,0.969728 M 406.690013,834.156988 l 2.077149,-0.756020 M 421.269929,830.978688 l -3.265668,1.188606 M 408.273208,835.709108 l 1.876654,-0.683046 M 422.577903,832.630981 l -3.968981,1.444591 M 409.893424,837.247753 l 1.528486,-0.556323 M 423.885876,834.283273 l -4.746504,1.727586 M 411.654569,838.735105 l 0.892667,-0.324904 M 425.185978,835.938430 l -5.045003,1.836231 M 421.359573,839.459483 l 5.049441,-1.837846 M 427.632049,839.304844 l -4.923033,1.791837 M 424.058460,842.733880 l 4.796625,-1.745829 M 430.078119,842.671258 l -4.670217,1.699820 M 426.746286,846.012302 l 4.554869,-1.657837 M 432.524190,846.037672 l -4.444334,1.617605 M 429.413427,849.298253 l 4.333799,-1.577374 M 434.970261,849.404086 l -4.223264,1.537142 M 432.080567,852.584204 l 4.112729,-1.496911 M 437.416332,852.770501 l -4.041579,1.471015 M 434.598849,855.924336 l 4.040518,-1.470628 M 439.862402,856.136915 l -4.039456,1.470242 M 437.047043,859.289977 l 4.038395,-1.469856 M 442.308473,859.503329 l -4.037333,1.469469 M 439.495237,862.655619 l 4.036272,-1.469083 M 444.754544,862.869743 l -4.042051,1.471186 M 441.902577,866.036130 l 4.020757,-1.463436 M 447.088455,866.276980 l -3.995795,1.454350 M 444.282744,869.426531 l 3.970832,-1.445265 M 449.418698,869.685552 l -3.945870,1.436179 M 446.662911,872.816932 l 3.920908,-1.427094 M 451.748941,873.094124 l -3.895946,1.418008 M 449.043078,876.207333 l 3.870984,-1.408923 M 454.079184,876.502696 l -3.846022,1.399837 M 451.423245,879.597734 l 3.821060,-1.390752 M 456.409427,879.911268 l -3.751810,1.365547 M 453.972917,882.926441 l 3.601631,-1.310887 M 458.739670,883.319840 l -3.451452,1.256226 M 456.603518,886.225691 l 3.301274,-1.201565 M 461.069913,886.728412 l -3.151095,1.146905 M 459.234118,889.524942 l 3.000916,-1.092244 M 463.400156,890.136984 l -2.850656,1.037554 M 461.866306,892.823615 l 2.678535,-0.974907 M 465.636477,893.579741 l -2.453364,0.892951 M 464.387382,896.162730 l 2.340730,-0.851956 M 467.819748,897.041806 l -2.312870,0.841816 M 466.572085,899.624274 l 2.339299,-0.851435 M 470.003019,900.503872 l -2.403188,0.874689 M 468.627577,903.132847 l 2.416326,-0.879471 M 472.024497,904.024825 l -2.261101,0.822974 M 471.275703,906.425719 l 1.547200,-0.563135 M 478.907387,927.059924 l -2.166794,0.788648 M 472.432608,929.416551 l 3.002583,-1.092851 M 462.494798,933.033618 l -0.301823,0.109855 M 473.704333,931.082037 l 6.442840,-2.345002 M 464.362680,934.482120 l -1.750320,0.637065 M 475.329160,932.619004 l 5.810024,-2.114676 M 465.829025,936.076770 l -2.218144,0.807338 M 476.905930,934.173462 l 5.105040,-1.858083 M 467.190991,937.709410 l -2.404061,0.875007 M 499.514033,928.073141 l 0.514876,-0.187400 M 482.882755,934.126431 l -4.450405,1.619815 M 466.137537,940.221192 l 2.340839,-0.851996 M 501.525075,929.469537 l -1.488012,0.541592 M 479.930801,937.329210 l 3.806007,-1.385273 M 469.660023,941.067467 l -2.111898,0.768668 M 500.772566,931.871783 l 2.157000,-0.785084 M 489.286244,936.052463 l -0.647794,0.235778 M 481.154228,939.012274 l 3.380958,-1.230568 M 470.760141,942.795413 l -1.663441,0.605443 M 501.508070,933.732438 l 2.774308,-1.009766 M 490.493162,937.741536 l -1.256577,0.457356 M 482.377656,940.695339 l 2.955908,-1.075863 M 471.669905,944.592641 l -0.980966,0.357043 M 502.253018,935.589654 l 3.382170,-1.231009 M 491.647573,939.449720 l -1.611809,0.586651 M 483.434955,942.438869 l 2.696987,-0.981623 M 472.511713,946.414604 l -0.230536,0.083908 M 503.026646,937.436432 l 3.961354,-1.441815 M 492.684607,941.200626 l -1.845338,0.671648 M 484.414207,944.210806 l 2.516113,-0.915790 M 508.340810,937.630590 l -4.540537,1.652620 M 491.642775,943.708178 l 2.078866,-0.756645 M 487.728698,945.132785 l -2.335239,0.849958 M 504.573900,941.129989 l 5.068610,-1.844823 M 494.758675,944.702438 l -2.308715,0.840303 M 486.372710,947.754680 l 2.154366,-0.784125 M 510.935430,940.942937 l -5.587903,2.033830 M 493.260860,947.375954 l 2.534849,-0.922610 M 489.325454,948.808325 l -2.015078,0.733429 M 506.115992,944.825424 l 6.112359,-2.224717 M 496.832743,948.204250 l -2.760984,1.004916 M 488.189282,951.350213 l 1.934550,-0.704118 M 513.521270,944.258479 l -6.661124,2.424451 M 494.882659,951.042379 l 2.912127,-1.059928 M 490.908866,952.488721 l -1.840678,0.669952 M 507.604299,948.540436 l 7.209890,-2.624186 M 498.733519,951.769136 l -3.039961,1.106455 M 489.921308,954.976518 l 1.752543,-0.637874 M 516.072808,947.586506 l -7.745293,2.819056 M 496.504457,954.708803 l 3.167795,-1.152983 M 492.438836,956.188568 l -1.816122,0.661014 M 509.028357,952.278832 l 8.259284,-3.006134 M 500.610985,955.342505 l -3.295629,1.199511 M 491.324121,958.722647 l 1.879700,-0.684155 M 518.502474,950.958891 l -8.773276,3.193211 M 498.087739,958.389247 l 3.461979,-1.260057 M 493.977610,959.885212 l -2.124749,0.773345 M 510.430041,956.025372 l 9.287267,-3.380289 M 502.488451,958.915874 l -3.641157,1.325273 M 492.278596,962.631958 l 2.581254,-0.939499 M 520.916272,954.337051 l -9.838935,3.581080 M 508.910124,958.706932 l 0.853281,-0.310569 M 503.319367,960.741801 l -3.712517,1.351246 M 492.574333,964.652674 l 3.167755,-1.152969 M 522.050335,956.052642 l -12.664301,4.609429 M 500.366406,963.944947 l 3.778541,-1.375277 M 496.624327,965.306952 l -3.889701,1.415735 M 512.771775,961.558117 l 10.412623,-3.789885 M 512.454371,961.673643 l -2.389524,0.869716 M 501.125962,965.796847 l 3.643637,-1.326175 M 497.506566,967.114199 l -6.247262,2.273818 M 514.286955,963.134992 l 10.031506,-3.651170 M 513.398308,963.458433 l -2.619106,0.953277 M 501.885518,967.648746 l 3.369050,-1.226234 M 498.388805,968.921446 l -9.566009,3.481743 M 511.484193,966.283470 l 13.968330,-5.084057 M 506.354376,968.150571 l -3.717041,1.352892 M 496.469924,971.748217 l 2.801120,-1.019524 M 492.738324,973.106408 l -5.556891,2.022543 M 512.183235,968.157395 l 14.403352,-5.242391 M 507.279420,969.942237 l -3.905928,1.421641 M 497.746084,973.412088 l 2.407198,-0.876149 M 493.375949,975.002687 l -12.176310,4.431814 M 512.882276,970.031320 l 14.838373,-5.400726 M 507.926722,971.834994 l -3.817071,1.389300 M 498.684866,975.198755 l 2.350656,-0.855569 M 494.062021,976.881333 l -12.323311,4.485318 M 513.453589,971.951735 l 15.401123,-5.605550 M 508.574024,973.727751 l -3.728215,1.356959 M 499.623647,976.985422 l 2.294113,-0.834989 M 494.969891,978.679251 l -11.387487,4.144706 M 513.952393,973.898541 l 16.036382,-5.836766 M 509.266655,975.604010 l -3.713081,1.351451 M 500.562429,978.772089 l 2.237571,-0.814409 M 495.877762,980.477168 l -9.669859,3.519541 M 514.653409,975.771747 l 16.469429,-5.994382 M 509.961108,977.479605 l -3.757037,1.367450 M 501.432525,980.583756 l 2.249714,-0.818829 M 496.785632,982.275086 l -7.732634,2.814449 M 556.265705,962.754466 l 0.554879,-0.201959 M 532.244644,971.497417 l -16.868883,6.139771 M 506.854568,980.738649 l 3.800993,-1.383448 M 504.564478,981.572174 l -2.344909,0.853477 M 491.484351,986.332950 l 6.220101,-2.263932 M 558.093205,964.217666 l -1.010653,0.367848 M 516.098113,979.502629 l 17.237940,-6.274097 M 511.488414,981.180422 l -3.977931,1.447848 M 503.006612,984.267546 l 2.397591,-0.872652 M 498.625255,985.862229 l -5.797710,2.110194 M 516.946946,981.322035 l 17.480516,-6.362387 M 512.356438,982.992843 l -4.142170,1.507627 M 503.793655,986.109441 l 2.442423,-0.888969 M 499.546058,987.655440 l -5.809663,2.114544 M 517.811648,983.135664 l 17.707223,-6.444902 M 513.224463,984.805263 l -4.306409,1.567405 M 504.580699,987.951336 l 2.487255,-0.905287 M 500.466862,989.448650 l -5.998769,2.183373 M 518.676350,984.949294 l 17.933930,-6.527417 M 514.120276,986.607570 l -4.488598,1.633716 M 505.367742,989.793231 l 2.532087,-0.921604 M 501.268500,991.285233 l -6.094736,2.218302 M 519.541052,986.762924 l 18.160636,-6.609931 M 515.069837,988.390313 l -4.580794,1.667273 M 506.154786,991.635126 l 2.576919,-0.937922 M 502.059232,993.125786 l -6.298525,2.292476 M 520.405754,988.576554 l 18.284091,-6.654865 M 516.019397,990.173057 l -4.672989,1.700829 M 506.941829,993.477022 l 2.621751,-0.954239 M 502.791265,994.987704 l -6.443615,2.345284 M 521.270457,990.390183 l 18.386702,-6.692212 M 516.968958,991.955801 l -4.765185,1.734386 M 507.725202,995.320253 l 2.670254,-0.971893 M 503.534616,996.845501 l -6.811285,2.479105 M 522.131379,992.205189 l 18.493093,-6.730935 M 517.918519,993.738544 l -4.824036,1.755806 M 508.423416,997.194479 l 2.803916,-1.020542 M 504.374660,998.668106 l -7.285848,2.651832 M 522.991531,994.020474 l 18.587541,-6.765312 M 518.868079,995.521288 l -4.852927,1.766321 M 509.121631,999.068705 l 2.937577,-1.069191 M 505.214705,1000.490710 l -7.395149,2.691614 M 523.851684,995.835760 l 18.604573,-6.771511 M 519.817640,997.304032 l -4.881819,1.776837 M 509.819845,1000.942932 l 3.071238,-1.117839 M 506.054750,1002.313314 l -6.766063,2.462646 M 524.711837,997.651045 l 18.621605,-6.777710 M 520.767201,999.086776 l -4.910710,1.787352 M 510.461792,1002.837638 l 3.253268,-1.184093 M 506.894794,1004.135919 l -6.253589,2.276120 M 525.571990,999.466331 l 18.700015,-6.806249 M 521.621659,1000.904134 l -4.844499,1.763253 M 511.047268,1004.752897 l 3.483973,-1.268063 M 507.708552,1005.968091 l -5.764739,2.098193 M 526.432143,1001.281616 l 18.841995,-6.857925 M 522.469725,1002.723818 l -4.771896,1.736828 M 511.643271,1006.664325 l 3.704152,-1.348201 M 508.521344,1007.800614 l -5.239126,1.906886 M 574.059932,986.074874 l 2.117599,-0.770743 M 546.276271,996.187300 l -19.050485,6.933809 M 518.618499,1006.253906 l 4.483870,-1.631995 M 516.163604,1007.147414 l -3.814957,1.388531 M 504.620623,1011.348716 l 4.713513,-1.715578 M 578.164571,986.709263 l -3.091336,1.125154 M 527.954307,1004.984305 l 19.351452,-7.043353 M 524.144723,1006.370880 l -4.605555,1.676285 M 513.054768,1010.407294 l 4.081392,-1.485505 M 510.146928,1011.465661 l -4.187900,1.524271 M 576.260771,989.530546 l 3.890840,-1.416150 M 548.358629,999.686095 l -19.675800,7.161406 M 520.459838,1009.840424 l 5.149468,-1.874253 M 518.114014,1010.694234 l -4.163584,1.515421 M 507.297432,1014.631148 l 3.598104,-1.309603 M 582.140526,989.518845 l -4.682028,1.704119 M 529.411350,1008.710696 l 20.000148,-7.279459 M 527.121246,1009.544226 l -5.740739,2.089458 M 514.846092,1014.012016 l 4.245775,-1.545336 M 511.560485,1015.207879 l -2.924648,1.064485 M 578.656224,992.915383 l 5.476414,-1.993252 M 550.464368,1003.176379 l -20.608666,7.500941 M 522.301176,1013.426943 l 6.433471,-2.341592 M 520.069720,1014.239127 l -4.331102,1.576392 M 510.043541,1017.888357 l 2.181892,-0.794144 M 586.124749,992.325418 l -6.270799,2.282384 M 523.209352,1015.224750 l 28.307886,-10.303228 M 521.144773,1015.976195 l -4.533121,1.649921 M 511.468393,1019.498109 l 1.281388,-0.466387 M 588.500021,993.589245 l -7.459259,2.714948 M 524.059539,1017.043662 l 28.510568,-10.376998 M 522.259344,1017.698880 l -4.774657,1.737833 M 512.893244,1021.107861 l 0.251004,-0.091358 M 591.023515,994.799124 l -8.808111,3.205890 M 524.909726,1018.862575 l 28.713250,-10.450768 M 523.373916,1019.421564 l -5.052253,1.838870 M 583.390046,999.705835 l 9.332787,-3.396857 M 554.675845,1010.156949 l -28.920788,10.526306 M 519.070337,1023.116294 l 5.463975,-1.988724 M 593.843176,998.029562 l -9.278488,3.377094 M 526.368558,1022.588315 l 29.369983,-10.689800 M 526.078407,1022.693921 l -6.259395,2.278233 M 585.739330,1003.107477 l 8.986507,-3.270821 M 556.810420,1013.636739 l -36.250144,13.193974 M 586.913972,1004.808297 l 8.968261,-3.264180 M 557.882299,1015.374962 l -36.686025,13.352621 M 587.455650,1006.739498 l 9.657116,-3.514903 M 558.968321,1017.108038 l -37.136049,13.516416 M 587.509550,1008.848236 l 10.960089,-3.989146 M 560.166459,1018.800307 l -37.787760,13.753620 M 587.062850,1011.139177 l 12.763662,-4.645593 M 561.364597,1020.492576 l -38.637826,14.063019 M 585.758976,1013.742104 l 15.425729,-5.614506 M 562.593880,1022.173509 l -38.954601,14.178315 M 583.824564,1016.574528 l 18.733446,-6.818417 M 563.947499,1023.809188 l -38.916207,14.164341 M 584.183797,1018.572133 l 19.747520,-7.187510 M 565.301117,1025.444866 l -11.477472,4.177458 M 526.367034,1039.615714 l 24.921705,-9.070759 M 605.304623,1013.013137 l -20.318783,7.395432 M 555.351875,1031.194450 l 11.308893,-4.116101 M 551.303628,1032.667891 l -23.659000,8.611172 M 601.330212,1016.588059 l 5.300842,-1.929349 M 599.063102,1017.413220 l -13.292034,4.837905 M 556.871046,1032.769873 l 11.240967,-4.091377 M 551.588507,1034.692559 l -22.686431,8.257185 M 603.224418,1018.026980 l 4.590592,-1.670839 M 599.882085,1019.243490 l -13.365285,4.864566 M 559.181668,1034.057231 l 10.381590,-3.778590 M 552.031876,1036.659542 l -22.090515,8.040290 M 604.816378,1019.575910 l 4.182587,-1.522337 M 601.100492,1020.928382 l -13.837959,5.036605 M 561.528194,1035.331520 l 9.486308,-3.452734 M 552.571534,1038.591478 l -1.039632,0.378395 M 530.980644,1046.449919 l 17.034089,-6.199901 M 610.182921,1019.751003 l -3.663382,1.333362 M 587.956212,1027.840864 l 14.439250,-5.255457 M 583.560952,1029.440608 l -0.356449,0.129737 M 563.107702,1036.884982 l 9.358045,-3.406050 M 548.347843,1042.257131 l -16.353776,5.952288 M 608.586794,1022.460302 l 2.586854,-0.941538 M 603.893151,1024.168648 l -15.475202,5.632513 M 583.000323,1031.773016 l 2.490706,-0.906543 M 574.005974,1035.046691 l -9.545212,3.474173 M 532.920849,1050.000453 l 15.825839,-5.760134 M 605.739663,1025.624928 l -23.014487,8.376588 M 565.617356,1040.228254 l 9.930996,-3.614587 M 549.270481,1046.178030 l -15.422849,5.613458 M 581.264441,1036.661536 l 26.527455,-9.655204 M 577.229387,1038.130175 l -10.561335,3.844012 M 534.774415,1053.582522 l 15.019860,-5.466782 M 620.151015,1024.636336 l -1.964036,0.714851 M 580.908213,1038.919548 l 28.728670,-10.456381 M 579.116456,1039.571694 l -11.485054,4.180218 M 535.701197,1055.373556 l 14.745150,-5.366796 M 620.561612,1026.615247 l -3.456139,1.257932 M 568.198123,1045.673998 l 43.082155,-15.680622 M 551.188233,1051.865092 l -14.560253,5.299499 M 622.017229,1028.213801 l 2.754033,-1.002386 M 612.923671,1031.523585 l -45.583862,16.591169 M 537.554763,1058.955625 l 14.564975,-5.301217 M 627.501999,1028.345863 l -6.778238,2.467077 M 564.251481,1051.367169 l 50.264577,-18.294810 M 553.442939,1055.301157 l -14.961394,5.445502 M 620.449608,1033.041079 l 9.140052,-3.326707 M 616.042881,1034.644997 l -54.703874,19.910582 M 539.408328,1062.537693 l 15.731268,-5.725713 M 631.454467,1031.163994 l -10.225106,3.721634 M 560.416526,1057.019690 l 57.153178,-20.802056 M 557.217147,1058.184169 l -16.882037,6.144559 M 427.030668,1105.568172 l 2.706784,-0.985189 M 633.319274,1032.613615 l -10.758413,3.915742 M 541.261893,1066.119762 l 77.834634,-28.329490 M 429.815955,1106.682766 l -2.628956,0.956862 M 624.009093,1038.130599 l 11.160750,-4.062181 M 620.623350,1039.362909 l -78.454066,28.554945 M 625.654667,1039.660015 l 11.238066,-4.090322 M 622.150173,1040.935546 l -79.078724,28.782302 M 637.455885,1037.493078 l 1.159738,-0.422110 M 635.150727,1038.332087 l -7.831548,2.850450 M 543.973615,1071.517842 l 79.703382,-29.009658 M 640.305392,1038.584298 l -1.169429,0.425637 M 629.035356,1042.686256 l 6.158714,-2.241589 M 625.203819,1044.080821 l -80.328040,29.237015 M 640.586144,1040.610468 l 1.307681,-0.475957 M 635.245201,1042.554413 l -4.402648,1.602433 M 545.777945,1075.117831 l 80.952698,-29.464372 M 643.482260,1041.684724 l -1.715655,0.624447 M 632.671581,1045.619490 l 2.646489,-0.963243 M 628.226656,1047.237310 l -81.608710,29.703141 M 642.632416,1044.122397 l 2.257635,-0.821712 M 634.993252,1046.902826 l -0.116360,0.042352 M 547.433583,1078.771939 l 82.235698,-29.931346 M 477.880247,1104.087283 l -2.774586,1.009867 M 427.084910,1122.575274 l 0.781010,-0.284264 M 646.219855,1044.945032 l -2.997842,1.091125 M 548.249220,1080.603427 l 82.862685,-30.159551 M 479.493062,1105.628622 l -3.672037,1.336512 M 427.323466,1124.616802 l 1.625623,-0.591678 M 646.952367,1046.806775 l -2.729654,0.993513 M 549.064857,1082.434915 l 83.489673,-30.387756 M 480.800550,1107.281091 l -3.830434,1.394164 M 427.670570,1126.618822 l 2.368300,-0.861991 M 633.997155,1053.650442 l -84.215294,30.651860 M 478.479196,1110.254350 l 3.293533,-1.198748 M 431.137141,1127.485449 l -3.119467,1.135393 M 550.451248,1086.187021 l 84.988532,-30.933296 M 432.235411,1129.214067 l -3.870634,1.408796 M 551.120634,1088.071740 l 85.761770,-31.214732 M 433.333682,1130.942684 l -4.533176,1.649941 M 551.573281,1090.035345 l 86.751748,-31.575054 M 434.431953,1132.671302 l -5.167036,1.880647 M 658.215308,1053.349177 l 1.650593,-0.600767 M 639.767654,1060.063574 l -87.839224,31.970863 M 429.729328,1136.511273 l 5.803646,-2.112354 M 661.669799,1054.220201 l -2.789966,1.015465 M 552.505441,1093.952778 l 88.691703,-32.281140 M 436.658792,1136.117510 l -6.465053,2.353087 M 659.733664,1057.053252 l 3.617574,-1.316689 M 642.532915,1063.313813 l -88.151578,32.084551 M 430.658150,1140.429920 l 7.126459,-2.593819 M 664.959402,1057.279595 l -4.371907,1.591244 M 566.573537,1093.089121 l 77.295149,-28.133134 M 558.312198,1096.096002 l -0.419043,0.152519 M 431.122562,1142.389244 l 7.787866,-2.834551 M 666.567566,1058.822626 l -5.126241,1.865799 M 568.627236,1094.469991 l 76.577222,-27.871830 M 554.058874,1099.772441 l -2.010771,0.731861 M 431.586973,1144.348568 l 12.234106,-4.452850 M 668.175731,1060.365658 l -5.814566,2.116329 M 569.686226,1096.212906 l 76.603293,-27.881319 M 555.139723,1101.507400 l -2.891676,1.052484 M 441.347452,1142.924400 l 4.243009,-1.544329 M 440.088737,1143.382534 l -8.007170,2.914372 M 663.421846,1064.224286 l 6.362049,-2.315596 M 647.255161,1070.108478 l -76.913147,27.994096 M 553.147172,1104.360985 l 2.986910,-1.087146 M 447.207049,1142.920036 l -4.557924,1.658949 M 432.599885,1148.236609 l 6.809526,-2.478465 M 671.403992,1063.447378 l -6.921464,2.519207 M 570.799440,1100.064440 l 77.359408,-28.156522 M 556.970917,1105.097611 l -2.318266,0.843780 M 443.142305,1146.527837 l 5.661700,-2.060690 M 439.426251,1147.880370 l -6.308047,2.295941 M 665.543209,1067.708884 l 7.495519,-2.728146 M 649.398788,1073.584973 l -78.162943,28.448985 M 556.674285,1107.333932 l 0.883092,-0.321419 M 450.296641,1146.052228 l -6.765150,2.462313 M 433.636523,1152.116015 l 6.287506,-2.288465 M 674.673464,1066.514099 l -8.031265,2.923141 M 571.658891,1104.008337 l 78.992506,-28.750921 M 451.789277,1147.637308 l -7.764490,2.826043 M 434.154842,1154.055718 l 6.533682,-2.378066 M 676.308200,1068.047459 l -8.426914,3.067146 M 572.081936,1105.982716 l 79.829695,-29.055633 M 453.166780,1149.264294 l -8.537167,3.107275 M 434.673161,1155.995420 l 6.844514,-2.491199 M 677.942936,1069.580819 l -8.790995,3.199660 M 572.504982,1107.957096 l 80.666885,-29.360345 M 454.210642,1151.012715 l -8.976202,3.267070 M 435.191480,1157.935123 l 7.078574,-2.576390 M 679.577672,1071.114180 l -9.028882,3.286244 M 573.030728,1109.894095 l 81.212068,-29.558776 M 454.799462,1152.926757 l -8.898920,3.238942 M 435.740549,1159.863634 l 7.255840,-2.640910 M 681.389703,1072.583010 l -9.403074,3.422439 M 662.268463,1079.542572 l 2.167031,-0.788735 M 655.233702,1082.103016 l -41.271246,15.021505 M 573.567786,1111.826978 l 27.489762,-10.005455 M 558.975971,1117.137964 l -2.066336,0.752085 M 446.619728,1158.032292 l 8.240567,-2.999321 M 443.322271,1159.232469 l -6.954137,2.531099 M 673.460702,1077.597286 l 9.748673,-3.548227 M 666.542592,1080.115272 l -1.609867,0.585944 M 614.656342,1099.000322 l 41.568264,-15.129611 M 603.880070,1102.922564 l -29.775227,10.837296 M 557.238896,1119.898563 l 4.320944,-1.572695 M 454.444156,1157.312789 l -7.105242,2.586097 M 436.995719,1163.663501 l 6.433878,-2.341740 M 685.029046,1075.515108 l -10.094271,3.674014 M 574.769631,1115.646253 l 82.252104,-29.937317 M 563.075925,1119.902414 l -3.967691,1.444121 M 448.138615,1161.736174 l 5.636089,-2.051369 M 443.787186,1163.319965 l -6.163882,2.243469 M 676.408847,1080.780959 l 10.468541,-3.810237 M 657.745877,1087.573725 l -82.276178,29.946080 M 561.596903,1122.569090 l 2.573354,-0.936624 M 453.099810,1162.058802 l -4.069038,1.481009 M 438.250889,1167.463367 l 6.196476,-2.255333 M 419.022332,1174.461990 l -5.224928,1.901718 M 677.882920,1082.372796 l 10.876785,-3.958826 M 658.470019,1089.438514 l -82.273039,29.944937 M 449.969773,1165.326398 l 2.327120,-0.847003 M 445.109692,1167.095323 l -5.810893,2.114992 M 415.713157,1177.794787 l 5.668774,-2.063265 M 690.477032,1079.917270 l -11.211016,4.080476 M 577.110411,1121.179346 l 81.815321,-29.778341 M 451.493975,1166.899989 l -0.411654,0.149830 M 440.354971,1170.954255 l 5.419491,-1.972534 M 423.278388,1177.169623 l -6.266122,2.280682 M 680.564452,1085.653509 l 11.382883,-4.143031 M 659.336359,1093.379904 l -81.312518,29.595336 M 560.911142,1129.203753 l 2.808806,-1.022322 M 446.365733,1170.894872 l -4.798533,1.746523 M 417.922529,1181.247352 l 6.704844,-2.440364 M 693.376490,1083.118665 l -11.793842,4.292607 M 671.960827,1090.913329 l 3.435900,-1.250565 M 659.703283,1095.374710 l -80.750526,29.390788 M 560.500084,1131.481722 l 4.515456,-1.643491 M 446.872629,1172.838733 l -4.055637,1.476131 M 419.046748,1182.966525 l 6.588068,-2.397861 M 694.738913,1084.751139 l -22.400868,8.153249 M 579.885532,1126.554351 l 80.056095,-29.138036 M 566.205176,1131.533593 l -5.461193,1.987712 M 444.094772,1175.978146 l 3.284754,-1.195553 M 426.017335,1182.557795 l -5.321534,1.936880 M 670.962394,1095.533439 l 25.361460,-9.230817 M 660.298011,1099.414957 l -79.479705,28.928247 M 561.479085,1135.382105 l 5.835118,-2.123809 M 447.806574,1176.755516 l -2.655413,0.966491 M 422.514463,1185.961091 l 3.676542,-1.338152 M 698.082889,1087.790742 l -28.679829,10.438604 M 581.647155,1130.169884 l 79.591903,-28.969084 M 568.269855,1135.038823 l -5.835709,2.124024 M 543.226335,1144.153919 l 0.041945,-0.015267 M 448.209011,1178.737396 l -2.719330,0.989755 M 424.708762,1187.290787 l 1.927523,-0.701561 M 700.036556,1089.208021 l -32.138475,11.697448 M 582.444429,1132.008055 l 81.574449,-29.690671 M 569.225507,1136.819349 l -5.747745,2.092008 M 544.063233,1145.977668 l 0.855773,-0.311476 M 448.593076,1180.725964 l -3.348913,1.218905 M 583.241703,1133.846226 l 118.746179,-43.220075 M 570.041428,1138.650734 l -5.425509,1.974724 M 545.431402,1147.608051 l 0.332101,-0.120875 M 448.823781,1182.770349 l -3.316922,1.207261 M 584.027922,1135.688422 l 119.710584,-43.571089 M 570.738005,1140.525556 l -4.966358,1.807606 M 584.807255,1137.533124 l 120.681875,-43.924610 M 571.392159,1142.415819 l -4.243377,1.544463 M 585.586587,1139.377825 l 121.543804,-44.238327 M 571.504496,1144.503287 l -1.297946,0.472414 M 586.365920,1141.222527 l 122.341831,-44.528785 M 710.209575,1098.275478 l -123.064322,44.791750 M 672.411380,1114.161252 l 39.142034,-14.246535 M 670.369356,1114.904488 l -9.657824,3.515160 M 587.924586,1144.911930 l 69.045900,-25.130652 M 712.754441,1101.605934 l -38.442912,13.992076 M 662.983399,1119.721112 l 7.506218,-2.732040 M 655.633083,1122.396408 l -66.929164,24.360223 M 676.095923,1117.076899 l 37.669469,-13.710565 M 670.525164,1119.104489 l -5.765203,2.098362 M 589.527417,1148.585258 l 66.493783,-24.201758 M 714.280273,1105.307288 l -36.527038,13.294754 M 666.673955,1122.634570 l 1.700362,-0.618881 M 656.769162,1126.239620 l -66.338254,24.145150 M 462.090982,1197.096683 l 1.853733,-0.674704 M 714.775565,1107.255372 l -35.462727,12.907377 M 591.334397,1152.184282 l 66.363273,-24.154256 M 715.017950,1109.295506 l -8.373339,3.047646 M 680.801922,1121.749122 l 25.413047,-9.249593 M 658.767648,1129.768942 l -66.516438,24.210003 M 707.770308,1114.061788 l 7.484801,-2.724245 M 706.134722,1114.657092 l -24.218055,8.814651 M 593.255260,1155.741856 l 66.746419,-24.293710 M 470.681969,1200.354886 l -2.069638,0.753287 M 707.456814,1116.304246 l 8.035454,-2.924666 M 707.087927,1116.438509 l -24.162460,8.794416 M 594.259311,1157.504767 l 66.896908,-24.348483 M 472.088236,1201.971402 l -2.566669,0.934191 M 684.386481,1126.829516 l 31.329356,-11.402953 M 660.656496,1135.466524 l -65.362216,23.789901 M 470.686691,1204.609878 l 2.330453,-0.848216 M 715.893921,1117.490101 l -30.034633,10.931712 M 596.426255,1160.972775 l 64.453456,-23.459140 M 473.591035,1205.681139 l -1.438241,0.523477 M 687.279335,1130.033314 l 28.792668,-10.479674 M 661.873982,1139.280106 l -64.315754,23.409020 M 710.454636,1123.726550 l 5.795451,-2.109372 M 707.851382,1124.674057 l -20.625064,7.506909 M 598.820432,1164.358077 l 64.047822,-23.311501 M 716.428171,1123.680717 l -4.765334,1.734440 M 682.756157,1135.936327 l 25.058099,-9.120402 M 663.872037,1142.809585 l -63.741048,23.199844 M 712.205995,1127.345818 l 4.400259,-1.601563 M 708.087570,1128.844803 l -24.117948,8.778215 M 601.623732,1167.594471 l 63.262486,-23.025662 M 716.784338,1127.807794 l -4.309032,1.568360 M 703.643581,1132.590638 l 4.786179,-1.742027 M 701.372287,1133.417321 l -16.730169,6.089284 M 603.231223,1169.137747 l 62.611624,-22.788767 M 723.562353,1127.469153 l -1.748218,0.636299 M 712.647151,1131.441962 l 4.364686,-1.588616 M 708.899067,1132.806153 l -3.591065,1.307041 M 684.921863,1141.533141 l 17.789699,-6.474921 M 665.641748,1148.550529 l -12.472250,4.539528 M 605.386577,1170.481618 l 46.847588,-17.051128 M 725.211648,1128.997214 l -4.217526,1.535054 M 712.529314,1133.613207 l 4.767886,-1.735369 M 709.691948,1134.645923 l -17.957445,6.535976 M 685.089648,1143.600428 l 3.210255,-1.168437 M 663.654346,1151.402240 l -8.132557,2.960009 M 607.324686,1171.904560 l 45.464678,-16.547789 M 726.033378,1130.826485 l -5.565822,2.025794 M 692.886827,1142.890843 l 24.695736,-8.988513 M 690.769769,1143.661389 l -5.208414,1.895708 M 657.401115,1155.806586 l 5.534714,-2.014471 M 653.542421,1157.211035 l -44.583154,16.226941 M 719.870309,1135.198014 l 6.953748,-2.530957 M 718.157252,1135.821516 l -31.181818,11.349253 M 659.393536,1157.209759 l 4.024049,-1.464634 M 652.535445,1159.705900 l -42.179592,15.352116 M 688.760434,1148.649438 l 39.572400,-14.403176 M 664.095084,1157.626891 l -2.490038,0.906300 M 611.726405,1176.687532 l 38.628022,-14.059450 M 730.499929,1135.585860 l -40.677647,14.805453 M 612.912813,1178.384070 l 39.360411,-14.326018 M 732.345752,1137.042391 l -42.961614,15.636749 M 614.099222,1180.080608 l 41.099450,-14.958977 M 733.588544,1138.718407 l -45.620667,16.604565 M 615.285630,1181.777146 l 39.661656,-14.435662 M 734.310571,1140.583966 l -46.978712,17.098853 M 616.377191,1183.508206 l 32.771383,-11.927808 M 734.976984,1142.469767 l -47.505500,17.290588 M 617.439788,1185.249808 l 32.661237,-11.887718 M 735.694535,1144.336955 l -48.014808,17.475961 M 631.659074,1182.202767 l 20.041710,-7.294586 M 629.835749,1182.866403 l -11.333364,4.125007 M 687.949864,1163.842950 l 48.873339,-17.788441 M 652.591924,1176.712188 l -18.201201,6.624695 M 619.564982,1188.733012 l 9.838566,-3.580945 M 738.023407,1147.746027 l -25.828439,9.400783 M 688.220000,1165.872984 l 21.171524,-7.705804 M 653.321524,1178.574991 l -16.062617,5.846315 M 620.641212,1190.469651 l 8.838203,-3.216843 M 739.311215,1149.405658 l -23.948798,8.716650 M 688.309877,1167.968627 l 19.042895,-6.931047 M 653.891655,1180.495836 l -12.422933,4.521578 M 621.727335,1192.202691 l 7.840741,-2.853796 M 740.599023,1151.065290 l -22.641518,8.240839 M 688.387149,1170.068858 l 17.967622,-6.539680 M 654.353348,1182.456149 l -5.630460,2.049320 M 622.915332,1193.898651 l 6.096286,-2.218867 M 741.886831,1152.724922 l -21.334239,7.765028 M 688.436824,1172.179133 l 17.654742,-6.425801 M 654.513585,1184.526183 l -3.461256,1.259794 M 624.175121,1195.568481 l 3.659164,-1.331827 M 616.774974,1198.261914 l -2.217399,0.807067 M 722.880986,1161.770839 l 20.442903,-7.440608 M 706.666666,1167.672369 l -18.334823,6.673330 M 625.721812,1197.133887 l 1.896535,-0.690282 M 618.297166,1199.836237 l -2.528588,0.920331 M 725.179369,1163.062652 l 19.992114,-7.276534 M 707.692912,1169.427202 l -19.466051,7.085063 M 617.213043,1202.359181 l 2.338511,-0.851148 M 747.271911,1157.149980 l -19.903978,7.244456 M 687.935302,1178.746739 l 21.014131,-7.648518 M 620.606696,1203.252348 l -1.608379,0.585402 M 729.345964,1165.802846 l 20.168497,-7.340733 M 710.380717,1172.705632 l -22.850614,8.316943 M 731.317064,1167.213780 l 20.654830,-7.517743 M 711.845780,1174.300748 l -24.913905,9.067920 M 733.165550,1168.669342 l 21.262755,-7.739010 M 713.343212,1175.884083 l -27.060808,9.849329 M 735.014035,1170.124904 l 21.829149,-7.945160 M 714.840643,1177.467418 l -29.207710,10.630737 M 737.068741,1171.505407 l 22.189323,-8.076253 M 714.529983,1179.708845 l -30.184099,10.986114 M 739.234417,1172.845521 l 22.438526,-8.166955 M 699.321398,1187.372672 l -17.097599,6.223017 M 741.821863,1174.032124 l 22.022233,-8.015437 M 699.020478,1189.610554 l -19.462205,7.083663 M 744.432861,1175.210154 l 21.520688,-7.832890 M 699.188085,1191.677905 l -21.516333,7.831305 M 747.014530,1176.398859 l 20.837334,-7.584169 M 699.701407,1193.619427 l -22.213416,8.085022 M 749.364928,1177.671739 l 20.695588,-7.532578 M 700.566084,1195.433066 l -22.826037,8.307998 M 751.062698,1179.182157 l 21.445290,-7.805447 M 701.784015,1197.118131 l -30.860235,11.232207 M 753.423416,1180.451282 l 21.448693,-7.806686 M 703.374000,1198.667779 l -35.795973,13.028669 M 755.116044,1181.963571 l 21.933073,-7.982986 M 705.376963,1200.067116 l -39.375220,14.331408 M 756.246811,1183.680361 l 22.979315,-8.363787 M 707.868029,1201.288797 l -42.108672,15.326303 M 756.457592,1185.731999 l 24.945542,-9.079435 M 710.982682,1202.283512 l -45.540254,16.575297 M 755.597060,1188.173562 l 27.932906,-10.166746 M 715.115968,1202.907474 l -64.627536,23.522499 M 754.378270,1190.745521 l 31.229634,-11.366657 M 720.498978,1203.076574 l -74.152084,26.989151 M 752.756425,1193.464179 l 34.929417,-12.713268 M 726.932091,1202.863468 l -79.087067,28.785338 M 641.979541,1233.783668 l 1.141696,-0.415543 M 789.763780,1182.122960 l -39.696170,14.448224 M 649.407620,1233.208424 l 84.747722,-30.845648 M 646.225639,1234.366570 l -6.333609,2.305245 M 639.386054,1238.984331 l 152.359654,-55.454379 M 624.573476,1244.375669 l -3.836019,1.396197 M 639.700658,1240.998180 l 153.931279,-56.026404 M 630.447055,1244.366216 l -6.977224,2.539502 M 764.666518,1197.642683 l 30.848543,-11.227951 M 763.760590,1197.972413 l -124.943740,45.475802 M 626.623103,1247.886376 l 10.856910,-3.951592 M 797.364650,1187.869891 l -30.475773,11.092274 M 630.354818,1248.656499 l 133.125139,-48.453588 M 799.847050,1189.094727 l -31.432561,11.440517 M 634.276961,1249.357311 l 129.450884,-47.116269 M 802.436199,1190.280709 l -32.892573,11.971918 M 638.562337,1249.925918 l 125.899359,-45.823619 M 804.411906,1191.689967 l -29.458164,10.721895 M 763.401889,1206.616392 l 9.443876,-3.437290 M 759.508861,1208.033338 l -116.461454,42.388503 M 778.478729,1203.257226 l 27.428898,-9.983302 M 771.071836,1205.953115 l -6.823364,2.483501 M 647.875539,1250.792900 l 111.989641,-40.760896 M 807.109328,1194.964896 l -26.033049,9.475255 M 764.497505,1210.474331 l 5.400703,-1.965695 M 761.416121,1211.595863 l -100.861565,36.710607 M 783.380568,1205.729814 l 24.583120,-8.947524 M 776.137499,1208.366076 l -2.856342,1.039623 M 662.309525,1249.796070 l 106.919224,-38.915415 M 808.826122,1198.596745 l -23.603634,8.591020 M 769.831502,1212.789626 l 8.930797,-3.250544 M 769.461645,1212.924243 l -106.413427,38.731320 M 787.035793,1208.656132 l 23.624247,-8.598523 M 782.394793,1210.345318 l -116.622028,42.446947 M 788.602004,1210.214433 l 24.736096,-9.003203 M 782.812374,1212.321686 l -7.163140,2.607170 M 669.550452,1253.545655 l 104.734180,-38.120124 M 815.256740,1202.641259 l -25.215639,9.177742 M 777.704301,1216.309228 l 5.509899,-2.005439 M 774.870293,1217.340723 l -101.181362,36.827004 M 790.933207,1213.622656 l 25.290808,-9.205101 M 785.111388,1215.741625 l -5.830801,2.122238 M 678.173988,1254.663655 l 97.795749,-35.594742 M 818.108828,1205.859894 l -26.955692,9.811069 M 780.589289,1219.515890 l 5.868862,-2.136091 M 777.910339,1220.490948 l -95.272213,34.676250 M 791.323434,1217.737336 l 28.161482,-10.249941 M 786.953509,1219.327859 l -99.904704,36.362339 M 791.245487,1219.894062 l 29.478762,-10.729392 M 786.828511,1221.501710 l -95.490261,34.755613 M 791.167541,1222.050788 l 30.773901,-11.200784 M 785.849555,1223.986376 l -12.102692,4.405020 M 695.175636,1256.988984 l 76.834190,-27.965358 M 823.157446,1212.535770 l -32.067852,11.671744 M 698.618602,1257.864202 l 85.786858,-31.223863 M 824.461166,1214.189610 l -33.939152,12.352841 M 702.363614,1258.629485 l 84.230184,-30.657280 M 825.834169,1215.818234 l -119.568596,43.519410 M 710.232539,1260.022141 l 116.966562,-42.572347 M 828.542694,1219.089122 l -114.505007,41.676414 M 717.564108,1261.610380 l 112.193361,-40.835044 M 830.778528,1222.532056 l -110.215527,40.115171 M 723.205032,1263.813962 l 108.479524,-39.483318 M 832.429726,1226.187781 l -107.037548,38.958481 M 727.577213,1266.479330 l 105.578463,-38.427418 M 833.719491,1229.975055 l -103.813327,37.784961 M 732.503808,1268.942907 l 101.779498,-37.044708 M 834.805395,1233.836530 l -99.337218,36.155790 M 738.432547,1271.041734 l 96.766631,-35.220173 M 835.592960,1237.806590 l -13.367768,4.865470 M 741.693621,1271.983155 l 78.915670,-28.722955 M 835.205542,1240.075955 l -9.104618,3.313810 M 745.000020,1272.908080 l 76.408958,-27.810586 M 822.414327,1246.859932 l -74.107907,26.973072 M 751.747219,1274.709011 l 71.872063,-26.159291 M 829.527512,1248.527655 l -2.512838,0.914598 M 755.778826,1275.369982 l 69.260251,-25.208670 M 831.937520,1249.778840 l -70.340995,25.602029 M 825.594573,1254.215839 l 8.459117,-3.078867 M 822.410789,1255.374642 l -54.126957,19.700601 M 775.160769,1274.700598 l 37.867293,-13.782567"
       id="path5" />
  </g>
  <g
     inkscape:label="fill-2f2f2f"
     inkscape:groupmode="layer"
     id="fill-2f2f2f">
    <path
       style="stroke:#2f2f2f"
       d="M 327.212562,757.768622 l -2.546190,1.849915 M 332.641831,766.184707 l 2.535347,-1.842037 M 347.633444,780.014021 l -1.979312,1.438054 M 353.311867,788.249086 l 2.551515,-1.853784 M 363.494564,793.211603 l -2.379557,1.728849 M 384.338891,815.149352 l 1.997295,-1.451120 M 394.859446,819.866401 l -3.584711,2.604445 M 399.249367,829.037617 l 3.346514,-2.431385 M 418.954533,827.081655 l -2.898101,2.105594 M 406.529987,836.108617 l 3.866328,-2.809052 M 425.322287,834.815891 l -6.023456,4.376297 M 413.496574,843.407774 l 2.357349,-1.712714 M 406.949247,848.164686 l -2.878481,2.091339 M 425.611322,846.966575 l 5.744379,-4.173536 M 437.286434,850.844789 l -5.398335,3.922120 M 437.723348,862.888032 l 5.398583,-3.922300 M 448.882192,867.141338 l -5.549029,4.031605 M 446.245165,881.417929 l 8.325187,-6.048603 M 460.171824,883.660299 l -5.066989,3.681383 M 461.475108,895.074088 l 4.044785,-2.938708 M 455.199039,899.633919 l -1.432787,1.040981 M 480.616661,893.527615 l 1.559627,-1.133135 M 470.784847,900.670846 l -5.547118,4.030217 M 471.002240,912.873580 l 4.813689,-3.497350 M 480.847012,918.081615 l -4.982508,3.620004 M 467.233013,927.972764 l 6.924892,-5.031228 M 462.961991,931.075843 l -2.312224,1.679929 M 493.815997,921.019776 l 1.331894,-0.967677 M 486.021521,926.682794 l -22.437636,16.301897 M 498.057049,930.299150 l 3.453177,-2.508880 M 493.861643,933.347292 l -13.957835,10.140961 M 473.097297,948.433472 l 2.021080,-1.468400 M 508.044745,935.403345 l -7.059399,5.128953 M 491.373729,947.515546 l 8.015009,-5.823245 M 490.793717,947.936950 l -4.684176,3.403253 M 522.839063,937.015323 l 1.117687,-0.812047 M 514.273502,943.238567 l -8.598343,6.247062 M 495.793425,956.665129 l 5.108043,-3.711211 M 494.520953,957.589634 l -9.762332,7.092749 M 529.366088,944.633841 l 1.736361,-1.261540 M 520.300243,951.220563 l -12.505603,9.085853 M 499.873840,966.061214 l 5.902395,-4.288341 M 498.778265,966.857196 l -24.324571,17.672835 M 535.822531,952.303641 l 1.682813,-1.222635 M 525.642528,959.699846 l -26.312424,19.117095 M 486.348903,988.248336 l 10.659457,-7.744549 M 550.528082,953.980113 l -1.724762,1.253113 M 542.300567,959.957752 l 1.319481,-0.958659 M 531.254964,967.982852 l -16.616054,12.072270 M 492.638321,996.039486 l 19.966080,-14.506206 M 558.707921,960.397792 l -4.025068,2.924383 M 519.544056,988.852005 l 17.522468,-12.730818 M 517.242832,990.523942 l -22.435769,16.300540 M 524.075161,997.920644 l 17.976123,-13.060418 M 522.374115,999.156526 l -21.919210,15.925238 M 560.709780,983.664715 l 1.279497,-0.929609 M 546.534130,993.963928 l -18.802330,13.660692 M 509.419113,1020.929567 l 18.151284,-13.187680 M 463.288366,1054.445516 l -1.695572,1.231905 M 573.429631,986.783883 l 6.627490,-4.815153 M 567.881102,990.815124 l -1.524557,1.107656 M 515.851988,1028.616489 l 35.753839,-25.976685 M 466.584307,1064.411554 l -2.406141,1.748164 M 425.788564,1094.051397 l 2.140980,-1.555513 M 588.050062,988.522198 l -8.948725,6.501629 M 520.967560,1037.260488 l 36.022850,-26.172133 M 431.641993,1102.159311 l -9.004203,6.541937 M 584.822076,1003.228147 l 9.862695,-7.165667 M 578.687042,1007.685510 l -1.342985,0.975735 M 526.681325,1045.469875 l 36.072913,-26.208505 M 466.861140,1088.931783 l -2.003543,1.455659 M 424.835363,1119.465297 l 5.050428,-3.669351 M 600.172225,1004.436290 l -17.919385,13.019195 M 577.492971,1020.913733 l 0.812828,-0.590554 M 568.821414,1027.213987 l -11.222188,8.153397 M 550.717308,1040.367391 l 3.032940,-2.203560 M 549.173474,1041.489052 l -17.099638,12.423615 M 506.911159,1072.194420 l 1.574983,-1.144292 M 472.938257,1096.877179 l -3.167090,2.301026 M 459.815174,1106.411657 l 1.382829,-1.004684 M 436.159516,1123.598498 l -8.862288,6.438829 M 586.457137,1026.761565 l 20.284102,-14.737263 M 584.477871,1028.199585 l -2.944935,2.139620 M 565.578907,1041.930486 l 10.030560,-7.287628 M 552.346110,1051.544676 l -15.289661,11.108589 M 474.759779,1107.914445 l 5.200914,-3.778686 M 439.755786,1133.346335 l -9.960258,7.236551 M 542.029435,1071.400859 l 70.368135,-51.125443 M 522.469115,1085.612264 l -0.445655,0.323787 M 508.336687,1095.880074 l 1.502012,-1.091276 M 485.221535,1112.674215 l -3.729910,2.709938 M 432.362403,1151.078622 l 14.480481,-10.520685 M 386.849110,1184.145965 l -3.641463,2.645678 M 546.687313,1080.377392 l 76.524496,-55.598301 M 488.129277,1122.922296 l -1.458676,1.059790 M 435.026084,1161.504024 l 19.129348,-13.898285 M 427.933546,1166.657054 l -3.069248,2.229939 M 411.965505,1178.258515 l 7.307382,-5.309124 M 632.101536,1030.681007 l -84.008429,61.035696 M 472.312658,1146.774422 l 2.164981,-1.572951 M 456.623646,1158.173157 l -18.728499,13.607051 M 419.292571,1185.295770 l 7.372579,-5.356493 M 640.369882,1037.034381 l -3.086716,2.242630 M 550.433820,1102.376755 l 85.728429,-62.285350 M 480.414724,1153.248606 l -4.074268,2.960129 M 473.077088,1158.579711 l 0.552620,-0.401502 M 449.480739,1175.723462 l -7.924236,5.757295 M 643.294391,1047.270281 l 5.375933,-3.905844 M 638.622116,1050.664888 l -0.046146,0.033527 M 569.936299,1100.568054 l 66.638032,-48.415364 M 560.091599,1107.720648 l -3.578155,2.599682 M 551.179990,1114.195311 l 1.625432,-1.180945 M 485.129072,1162.184112 l -3.511595,2.551323 M 655.036349,1051.099929 l 2.291724,-1.665035 M 650.601471,1054.322056 l -1.607215,1.167710 M 572.258343,1111.241671 l 70.429834,-51.170270 M 564.241636,1117.066149 l -8.782920,6.381165 M 453.065709,1197.840188 l 2.025707,-1.471762 M 665.879029,1055.582940 l -5.998416,4.358104 M 575.972755,1120.903672 l 72.425214,-52.619998 M 567.748234,1126.879136 l -9.375949,6.812026 M 542.147412,1145.479223 l 2.522943,-1.833025 M 470.161036,1197.780386 l -5.220045,3.792584 M 664.396111,1069.021024 l 9.422936,-6.846164 M 653.865912,1076.671661 l -73.365694,53.303297 M 562.535372,1143.027182 l 9.477609,-6.885886 M 474.985424,1206.635943 l -2.312347,1.680018 M 670.955735,1076.615857 l 9.906473,-7.197474 M 667.179675,1079.359326 l -3.071551,2.231612 M 584.547449,1139.395152 l 74.097911,-53.835284 M 576.955460,1144.911055 l -5.948548,4.321873 M 562.144478,1155.671863 l 3.124123,-2.269808 M 689.315543,1075.637356 l -11.377011,8.265882 M 670.078847,1089.613633 l 2.642575,-1.919943 M 662.369060,1095.215122 l -73.762224,53.591393 M 565.916553,1165.291970 l 4.596909,-3.339850 M 696.411356,1082.842626 l -103.048454,74.869085 M 587.550382,1161.934753 l 1.332988,-0.968473 M 574.278377,1171.577429 l -4.477899,3.253384 M 661.982145,1120.217592 l 41.595612,-30.220981 M 657.372735,1123.566524 l -58.302553,42.359284 M 575.779089,1182.847777 l 3.565039,-2.590153 M 710.818816,1097.096353 l -32.974490,23.957369 M 670.064901,1126.705805 l 0.915868,-0.665417 M 662.298251,1132.348607 l -55.680053,40.453926 M 581.160816,1191.298404 l 4.495751,-3.266354 M 715.920683,1105.750309 l -31.585524,22.948227 M 612.983254,1180.538729 l 51.989439,-37.772538 M 592.160502,1195.667344 l -6.241249,4.534533 M 681.563128,1143.073214 l 36.144179,-26.260283 M 665.534028,1154.719037 l -6.939826,5.042078 M 618.596838,1188.820901 l 36.584581,-26.580254 M 612.752911,1193.066763 l -2.341197,1.700979 M 593.220639,1207.257789 l 4.458523,-3.239307 M 723.335471,1125.084510 l -35.037586,25.456296 M 638.755458,1186.535486 l 16.164251,-11.744015 M 631.191992,1192.030666 l -6.940861,5.042831 M 616.591461,1202.638573 l 3.047041,-2.213805 M 730.533400,1132.215588 l -43.649008,31.712860 M 641.198834,1197.120950 l 0.813497,-0.591040 M 637.834611,1199.565201 l -0.679902,0.493978 M 711.964107,1158.067649 l 24.231170,-17.604976 M 708.376196,1160.674419 l -21.289141,15.467466 M 722.619962,1162.686397 l 18.530830,-13.463436 M 710.398352,1171.565917 l -27.282553,19.821935 M 731.621447,1168.507115 l 16.562382,-12.033275 M 717.623965,1178.676881 l -1.534015,1.114527 M 664.111284,1217.556120 l 35.941699,-26.113173 M 660.116752,1220.458317 l -22.718756,16.506142 M 623.044464,1247.392911 l 7.556608,-5.490197 M 758.070058,1161.651754 l -17.484934,12.703548 M 636.076742,1250.285086 l 69.741028,-50.669823 M 767.650739,1167.051662 l -17.342729,12.600230 M 650.542278,1252.135939 l 67.986136,-49.394819 M 776.796062,1172.767875 l -22.650184,16.456322 M 664.453605,1254.389448 l 73.386911,-53.318712 M 785.941385,1178.484089 l -107.648487,78.211204 M 762.298234,1208.022524 l 32.956024,-23.943953 M 761.121369,1208.877566 l -67.938028,49.359866 M 782.249917,1205.887457 l 22.400637,-16.275015 M 778.769408,1208.416195 l -72.096762,52.381364 M 719.941326,1263.517978 l 90.782890,-65.957630 M 818.444283,1204.312070 l -29.571100,21.484662 M 729.582797,1268.873719 l 57.712395,-41.930509 M 823.891679,1212.714985 l -82.616913,60.024701 M 753.412988,1276.281432 l 77.060862,-55.987993 M 834.691180,1229.590048 l -64.323162,46.733513 M 794.608400,1271.072572 l 43.733484,-31.774236"
       id="path8" />
  </g>
  <g
     inkscape:label="fill-505050"
     inkscape:groupmode="layer"
     id="fill-505050">
    <path
       style="stroke:#505050"
       d="M 328.933257,758.149496 l -3.671865,3.937594 M 321.657034,765.952290 l 1.733064,-1.858484 M 340.952060,768.721374 l -0.601557,0.645091 M 336.142591,773.878899 l 2.687031,-2.881488 M 350.925398,781.486746 l -3.447875,3.697393 M 358.947592,796.344463 l 4.599096,-4.931926 M 375.993579,801.525347 l -0.878614,0.942198 M 382.722625,817.769796 l 5.227869,-5.606204 M 379.256065,821.487226 l -0.996621,1.068745 M 393.277132,829.911940 l 6.472660,-6.941078 M 389.566133,833.891499 l -1.727105,1.852094 M 415.510965,829.529540 l 3.242559,-3.477219 M 411.891137,833.411330 l -8.391575,8.998862 M 398.147252,848.149842 l 3.482858,-3.734908 M 429.081273,838.437633 l -20.271722,21.738760 M 430.837796,860.014460 l 7.750885,-8.311806 M 447.995735,865.075290 l -6.212259,6.661832 M 438.698236,875.045637 l 1.844866,-1.978376 M 457.265650,878.594990 l -8.159882,8.750402 M 441.824411,895.153691 l 1.584902,-1.699599 M 466.404835,892.254881 l -12.093806,12.969019 M 444.965494,915.245759 l 1.992307,-2.136487 M 485.840569,894.873075 l -2.917371,3.128498 M 462.248883,920.172061 l 12.927083,-13.862599 M 488.913256,915.038488 l -0.491600,0.527176 M 462.565092,943.293435 l 20.941506,-22.457016 M 507.072089,919.025991 l -0.725539,0.778046 M 480.464557,947.559076 l 20.255308,-21.721159 M 480.145741,947.900964 l -2.789235,2.991089 M 452.907894,977.109979 l 0.872016,-0.935122 M 448.989519,981.311922 l -3.053025,3.273969 M 516.798619,932.056032 l 2.112944,-2.265856 M 511.192476,938.067884 l -26.711621,28.644707 M 450.326168,1003.339008 l 15.909128,-17.060451 M 529.920965,941.444505 l -2.459234,2.637206 M 497.506029,976.205268 l 23.552129,-25.256566 M 496.209742,977.595366 l -11.030874,11.829164 M 544.507462,949.262869 l 1.081874,-1.160168 M 540.510187,953.549422 l -2.567786,2.753613 M 514.430655,981.516296 l 15.605041,-16.734357 M 513.761594,982.233777 l -21.109680,22.637361 M 419.701503,1083.100874 l 2.769314,-2.969726 M 560.988805,955.049259 l -1.248394,1.338739 M 553.552431,963.023795 l 4.605604,-4.938906 M 550.601508,966.188272 l -2.327328,2.495754 M 502.252605,1018.036123 l 37.010035,-39.688404 M 497.201391,1023.452887 l -1.265684,1.357280 M 461.244611,1062.011812 l 4.704348,-5.044795 M 431.383257,1094.034194 l -9.658297,10.357256 M 567.257015,971.787895 l 4.586210,-4.918108 M 560.485599,979.049349 l -2.380276,2.552534 M 514.040850,1028.855244 l 33.528475,-35.954888 M 465.841244,1080.542994 l -1.955471,2.096986 M 425.258964,1124.062161 l 6.786286,-7.277401 M 581.283305,980.207007 l -7.405605,7.941539 M 567.349173,995.149534 l 2.610335,-2.799241 M 556.031898,1007.285826 l -32.996010,35.383889 M 501.183590,1066.103436 l 2.454212,-2.631821 M 473.610394,1095.672067 l -4.927041,5.283605 M 429.780633,1142.673732 l 10.132311,-10.865573 M 393.719637,1181.344416 l -7.193567,7.714156 M 583.203900,1001.607888 l 9.065420,-9.721472 M 578.907283,1006.215446 l -2.607558,2.796263 M 572.402416,1013.191062 l 1.296681,-1.390520 M 565.040027,1021.086257 l -11.247790,12.061778 M 531.814911,1056.715832 l 21.211996,-22.747081 M 520.646302,1068.692699 l -0.464300,0.497901 M 511.148607,1078.877730 l 1.960868,-2.102773 M 484.311790,1107.656692 l -5.941090,6.371039 M 434.273443,1161.316250 l 16.606447,-17.808234 M 428.457174,1167.553434 l -4.261693,4.570107 M 413.432934,1183.664960 l 10.148465,-10.882896 M 602.040372,1004.868712 l -17.376375,18.633881 M 579.827244,1028.689375 l 3.162777,-3.391663 M 578.651554,1029.950148 l -2.098486,2.250351 M 565.854208,1043.673622 l 9.999161,-10.722787 M 559.548589,1050.435570 l -2.197545,2.356579 M 539.761683,1071.654429 l 15.675753,-16.810187 M 525.486254,1086.962952 l -1.275968,1.368308 M 510.429327,1103.109530 l 3.747582,-4.018790 M 491.972435,1122.902123 l -4.184108,4.486906 M 470.235333,1146.212311 l 6.034713,-6.471438 M 457.830243,1159.515142 l -19.458286,20.866457 M 431.112991,1188.165887 l 2.362712,-2.533698 M 613.346189,1016.205174 l -68.105619,73.034335 M 503.089241,1134.441276 l 3.456102,-3.706216 M 484.227834,1154.667658 l -7.436156,7.974301 M 446.237328,1195.407488 l 1.409708,-1.511726 M 626.157993,1025.926664 l -68.268294,73.208782 M 551.459752,1106.030720 l 5.725387,-6.139726 M 533.716301,1125.058241 l -2.369704,2.541196 M 514.399172,1145.773326 l 3.299220,-3.537980 M 494.350192,1167.273226 l -4.119287,4.417394 M 468.924068,1194.539405 l 2.949814,-3.163288 M 468.394196,1195.107623 l -5.850185,6.273556 M 570.861320,1108.685552 l 68.344452,-73.290452 M 564.652635,1115.343552 l -10.041532,10.768225 M 539.264679,1142.568801 l 3.354617,-3.597386 M 507.867861,1176.237766 l -1.639075,1.757692 M 474.270404,1212.266628 l 2.550787,-2.735384 M 652.209961,1044.910283 l -6.635682,7.115897 M 577.253714,1125.291016 l 65.446101,-70.182351 M 571.322512,1131.651452 l -11.870403,12.729448 M 550.230704,1154.269646 l 1.701251,-1.824369 M 523.373648,1183.070313 l -2.810869,3.014288 M 480.649235,1228.886637 l 1.521096,-1.631175 M 474.417473,1235.569383 l -3.318745,3.558918 M 659.243054,1060.828681 l 6.079897,-6.519891 M 658.521961,1061.601957 l -2.038025,2.185514 M 584.614934,1140.857541 l 66.328190,-71.128275 M 579.683971,1146.145351 l -16.584163,17.784337 M 478.288078,1254.879135 l 4.840626,-5.190936 M 677.642116,1064.558569 l -9.454775,10.139005 M 662.133194,1081.189852 l 3.335800,-3.577208 M 658.880198,1084.678263 l -66.740722,71.570662 M 586.092711,1162.733287 l 2.926704,-3.138506 M 578.461838,1170.916395 l -8.256565,8.854081 M 679.274847,1086.268146 l 11.017555,-11.814881 M 679.026609,1086.534349 l -77.476937,83.083843 M 579.755126,1192.989981 l 6.381854,-6.843701 M 701.319381,1086.088745 l -35.552098,38.124957 M 612.617596,1181.209763 l 48.102359,-51.583465 M 607.055126,1187.174782 l -0.885307,0.949376 M 587.611311,1208.025721 l 8.917549,-9.562900 M 712.032687,1098.060598 l -28.997909,31.096450 M 677.832369,1134.735948 l 2.050393,-2.198777 M 668.111029,1145.160809 l -46.112179,49.449258 M 615.011929,1202.102623 l 3.536307,-3.792225 M 606.233553,1211.516278 l -7.547577,8.093786 M 685.897490,1149.547632 l 33.685723,-36.123515 M 657.171631,1180.352344 l -8.947606,9.595133 M 636.341358,1202.690077 l 7.887966,-8.458808 M 728.364085,1127.468252 l -41.873163,44.903470 M 617.888610,1245.938693 l 3.446722,-3.696157 M 737.267620,1141.380846 l -18.571585,19.915587 M 635.264687,1250.765599 l 74.711007,-80.117746 M 746.739361,1154.684114 l -14.157021,15.181546 M 654.675062,1253.410988 l 50.800573,-54.476945 M 760.923320,1162.934147 l -14.114202,15.135628 M 673.462579,1256.724309 l 51.185747,-54.889993 M 775.171435,1171.115382 l -81.960459,87.891832 M 712.016521,1262.301202 l 77.123559,-82.704891 M 802.778670,1188.431181 l -74.734836,80.143300 M 744.475478,1274.414166 l 69.740415,-74.787439 M 824.454134,1212.108025 l -60.896141,65.303117 M 788.377282,1274.256179 l 45.383958,-48.668337 M 842.773686,1239.383645 l -4.136170,4.435499 M 827.350650,1255.922826 l 8.399431,-9.007287 M 822.848286,1260.751020 l -1.008929,1.081943 M 867.288283,1260.015892 l 2.598772,-2.786842"
       id="path11" />
  </g>
  <g
     inkscape:label="fill-6f6f6f"
     inkscape:groupmode="layer"
     id="fill-6f6f6f">
    <path
       style="stroke:#6f6f6f"
       d="M 324.965082,754.418713 l -6.351612,10.164704 M 336.060398,778.178255 l 5.782754,-9.254341 M 358.012771,784.562872 l -5.173136,8.278748 M 349.983470,797.412439 l 0.589819,-0.943908 M 374.950268,798.972969 l -4.651017,7.443183 M 365.242762,814.508227 l 1.350794,-2.161723 M 391.408908,814.149398 l -5.743929,9.192208 M 383.655089,826.558101 l 1.843697,-2.950532 M 382.662558,828.146484 l -2.125661,3.401769 M 412.476938,821.949260 l 1.346341,-2.154596 M 407.955204,829.185547 l -11.883416,19.017441 M 411.512932,865.007749 l 17.462673,-27.946119 M 442.975735,856.172499 l -9.365806,14.988422 M 425.730319,883.770932 l 6.310086,-10.098249 M 415.795422,899.670091 l -1.624399,2.599582 M 447.833528,889.914163 l 8.754662,-14.010387 M 446.278400,892.402887 l -3.536204,5.659109 M 437.758897,906.036942 l 2.037431,-3.260572 M 431.656083,915.803486 l -3.806766,6.092100 M 475.047496,887.878468 l 1.671753,-2.675363 M 469.775564,896.315322 l -11.643373,18.633292 M 456.553977,917.474285 l 1.306049,-2.090116 M 450.632372,926.950834 l -0.793337,1.269605 M 440.409144,943.311419 l 0.734995,-1.176237 M 482.584397,917.332664 l -18.546247,29.680200 M 445.627973,976.475305 l 1.366756,-2.187267 M 430.662641,1000.424842 l -4.572910,7.318186 M 505.699464,921.856581 l 2.148132,-3.437730 M 502.607211,926.805220 l -21.371521,34.201583 M 452.728851,1006.627282 l 16.730435,-26.774293 M 450.564306,1010.091278 l -2.337427,3.740665 M 444.172685,1020.320009 l 0.027212,-0.043549 M 438.491399,1029.411968 l -0.977813,1.564827 M 521.451548,938.163736 l 2.534053,-4.055332 M 517.616380,944.301287 l -30.833589,49.344057 M 481.886429,1001.481162 l 1.893484,-3.030208 M 480.634768,1003.484237 l -3.094540,4.952300 M 418.327217,1103.197164 l 9.729532,-15.570505 M 541.976531,946.832654 l -0.241987,0.387260 M 536.538845,955.534771 l 2.826707,-4.523676 M 531.512269,963.578975 l -33.068983,52.921435 M 493.403360,1024.565978 l 2.748425,-4.398400 M 468.777253,1063.975987 l -6.993755,11.192347 M 444.593335,1102.678345 l 4.621195,-7.395458 M 436.751967,1115.227157 l -1.305972,2.089991 M 426.512139,1131.614308 l 8.678461,-13.888441 M 396.224298,1180.084985 l -5.688116,9.102888 M 555.500138,966.706117 l 7.321947,-11.717564 M 553.935949,969.209343 l -2.729932,4.368805 M 515.179899,1031.231988 l 29.125479,-46.610510 M 501.633750,1052.910358 l -2.043568,3.270392 M 479.420971,1088.458235 l 2.374816,-3.800500 M 475.413038,1094.872270 l -5.798312,9.279238 M 465.191313,1111.230449 l 1.577788,-2.524989 M 454.148980,1128.901876 l -1.547067,2.475825 M 450.146419,1135.307312 l 1.881638,-3.011250 M 447.915052,1138.878246 l -14.161729,22.663504 M 418.421393,1186.077967 l 11.358301,-18.177081 M 577.853252,972.449416 l -7.311649,11.701085 M 565.030879,992.969501 l 3.156401,-5.051298 M 563.561841,995.320453 l -1.435320,2.296992 M 527.883326,1052.418014 l 29.249983,-46.809758 M 524.122985,1058.435818 l -1.201795,1.923274 M 517.905828,1068.385348 l 1.592654,-2.548779 M 514.552978,1073.751030 l -4.925778,7.882893 M 504.001029,1090.637678 l 1.034552,-1.655630 M 489.705818,1113.514798 l -6.605171,10.570483 M 468.988818,1146.668927 l 8.427188,-13.486320 M 459.296057,1162.180588 l -15.555343,24.893752 M 583.962204,1004.188806 l 8.357788,-13.375257 M 581.388456,1008.307664 l -3.180239,5.089447 M 574.574471,1019.212321 l 2.349690,-3.760289 M 572.331989,1022.801042 l -11.844600,18.955322 M 555.126795,1050.335108 l 2.996217,-4.794949 M 554.263703,1051.716343 l -14.992396,23.992849 M 533.350000,1085.185264 l 2.951494,-4.723378 M 531.295308,1088.473459 l -2.099822,3.360418 M 517.429305,1110.663702 l 2.077686,-3.324993 M 508.327168,1125.230167 l -6.760591,10.819207 M 481.985909,1167.384992 l 7.732736,-12.374965 M 469.478940,1187.400328 l -0.043008,0.068827 M 460.788975,1201.307178 l 4.306469,-6.891792 M 607.228706,1008.470378 l -59.452034,95.143142 M 544.271532,1109.222918 l 1.634964,-2.616489 M 535.745583,1122.867288 l -5.050031,8.081739 M 518.450697,1150.544891 l 3.497219,-5.596721 M 513.890590,1157.842589 l -0.652106,1.043588 M 499.998533,1180.074527 l 5.223418,-8.359217 M 479.373833,1213.080946 l -6.037926,9.662702 M 570.221094,1109.210695 l 53.603139,-85.782954 M 566.248193,1115.568666 l -13.155522,21.053236 M 544.507572,1150.360932 l 3.615165,-5.785474 M 524.975363,1181.619002 l -3.924169,6.279984 M 472.890123,1264.972810 l 13.663060,-21.865467 M 641.586220,1036.518378 l -60.850644,97.381387 M 561.110849,1165.305894 l 15.942031,-25.512583 M 557.241829,1171.497619 l -5.701634,9.124522 M 544.708384,1191.555324 l 4.538083,-7.262451 M 659.546091,1049.292336 l -3.567173,5.708670 M 652.011831,1061.349672 l 2.656364,-4.251072 M 649.107169,1065.998102 l -57.462407,91.959074 M 587.448326,1164.672878 l 2.770044,-4.432998 M 582.315757,1172.886706 l -7.886465,12.620982 M 568.020659,1195.763644 l 2.568288,-4.110119 M 566.348376,1198.439856 l -4.599296,7.360412 M 668.272756,1076.842509 l 8.733024,-13.975761 M 667.748555,1077.681406 l -3.918294,6.270581 M 606.833510,1175.165856 l 54.738989,-87.600695 M 594.986667,1194.124768 l -11.712934,18.744613 M 664.628489,1124.190314 l 29.352909,-46.974473 M 661.428878,1129.310762 l -40.407998,64.666314 M 615.170146,1203.340208 l 3.607734,-5.773582 M 610.577366,1210.690192 l -7.896816,12.637547 M 678.724144,1143.148309 l 30.520253,-48.842615 M 669.215054,1158.366034 l -3.494954,5.593095 M 661.590702,1170.567548 l 2.170922,-3.474202 M 658.493032,1175.524857 l -10.531093,16.853272 M 639.930191,1205.231611 l 7.398025,-11.839314 M 631.475930,1218.761257 l -6.743176,10.791338 M 615.244177,1244.737491 l 1.544311,-2.471415 M 722.041131,1115.342397 l -36.136828,57.831014 M 660.283095,1214.175915 l 1.462161,-2.339947 M 657.593089,1218.480825 l -20.591575,32.953409 M 718.982712,1161.752648 l 15.910205,-25.461650 M 712.166320,1172.661157 l -8.260340,13.219308 M 660.801333,1254.862318 l 40.210688,-64.350553 M 748.993327,1155.241383 l -11.622789,18.600351 M 684.387103,1258.632954 l 35.599945,-56.971821 M 767.961450,1166.401800 l -59.877784,95.824484 M 729.398081,1269.631848 l 57.490179,-92.003519 M 805.354465,1189.591982 l -54.506140,87.228057 M 776.616596,1277.097945 l 44.270668,-70.847879 M 834.389925,1226.157050 l -23.919583,38.279335 M 844.576077,1251.371558 l 3.258185,-5.214186 M 868.473017,1254.644217 l -3.342863,5.349699"
       id="path14" />
  </g>
  <g
     inkscape:label="fill-909090"
     inkscape:groupmode="layer"
     id="fill-909090">
    <path
       style="stroke:#909090"
       d="M 330.451371,758.231644 l -4.898498,13.458511 M 348.605811,790.219255 l 4.344959,-11.937678 M 347.755143,792.556444 l -1.543611,4.241037 M 371.069046,810.368547 l 4.365364,-11.993739 M 370.150040,812.893495 l -2.218014,6.093944 M 389.308146,842.123556 l 8.351710,-22.946134 M 423.953999,828.801379 l -13.812733,37.950173 M 430.832016,891.770707 l 14.082784,-38.692130 M 430.653318,892.261674 l -1.685579,4.631090 M 421.964990,916.132660 l 1.821299,-5.003978 M 464.777526,880.372706 l -16.747632,46.013742 M 440.253046,947.753160 l 2.717062,-7.465067 M 489.011123,895.657970 l -3.925286,10.784635 M 483.476915,910.863081 l 0.481339,-1.322469 M 481.985114,914.961769 l -12.160726,33.411320 M 441.394484,1026.483610 l 18.400488,-50.554925 M 440.562952,1028.768226 l -1.648505,4.529230 M 436.798339,1039.111414 l 1.244242,-3.418528 M 429.936208,1057.964964 l -2.268253,6.231973 M 415.565265,1097.448806 l 11.771491,-32.341905 M 384.903886,1181.690253 l -2.659060,7.305706 M 507.792719,925.922481 l 2.271102,-6.239801 M 506.424318,929.682133 l -29.538484,81.156318 M 467.235855,1037.351549 l 2.278223,-6.259367 M 464.501417,1044.864356 l -5.849220,16.070599 M 447.477509,1091.637159 l 2.319123,-6.371737 M 447.126302,1092.602092 l -4.309555,11.840406 M 428.749161,1143.092873 l 9.966359,-27.382346 M 420.775619,1165.000000 l -6.913578,18.994901 M 529.276791,948.762003 l 2.781355,-7.641709 M 527.032430,954.928332 l -31.355431,86.148337 M 464.291501,1127.307619 l 17.381283,-47.754682 M 459.018018,1141.796396 l -18.481247,50.776809 M 553.201901,964.894827 l 4.689024,-12.882987 M 552.637400,966.445778 l -2.493207,6.850030 M 548.384110,978.131598 l 1.414509,-3.886333 M 546.508041,983.286054 l -23.581467,64.789547 M 515.827567,1067.579965 l 5.118889,-14.064033 M 514.463021,1071.329025 l -14.104017,38.750468 M 492.035734,1132.947490 l 6.201174,-17.037586 M 490.028278,1138.462928 l -10.122037,27.810068 M 466.164076,1204.029286 l 6.387178,-17.548626 M 579.873425,973.481939 l -6.172515,16.958846 M 569.712460,1001.398962 l 3.009278,-8.267924 M 569.298424,1002.536515 l -2.000207,5.495523 M 534.829054,1097.240331 l 31.146839,-85.575236 M 529.740597,1111.220753 l -4.976721,13.673429 M 511.329813,1161.803964 l 8.004300,-21.991634 M 509.951025,1165.592155 l -6.641385,18.247056 M 469.871423,1275.709955 l 17.579848,-48.300236 M 599.965133,1000.146947 l -35.895482,98.622027 M 544.366267,1152.903577 l 17.738822,-48.737012 M 536.882904,1173.463947 l -9.264847,25.454959 M 579.964915,1136.963620 l 42.093849,-115.651899 M 579.606609,1137.948057 l -26.026271,71.506592 M 550.875957,1216.884874 l 2.171117,-5.965095 M 645.426740,1038.975256 l -46.961806,129.026503 M 596.832253,1172.487512 l 0.444075,-1.220087 M 591.726422,1186.515667 l -13.973079,38.390719 M 663.093516,1072.302710 l 6.150753,-16.899054 M 662.572972,1073.732893 l -2.789645,7.664488 M 619.231646,1192.812210 l 40.201563,-110.452888 M 618.166281,1195.739276 l -3.113581,8.554493 M 603.434958,1236.213253 l 10.056152,-27.629052 M 692.177882,1074.260596 l -20.773164,57.073799 M 642.683356,1210.245688 l 28.209273,-77.504342 M 642.286492,1211.336062 l -2.546349,6.996037 M 628.159198,1250.150484 l 10.274734,-28.229600 M 713.354594,1097.944581 l -28.274431,77.683361 M 656.343354,1254.581677 l 23.072275,-63.390556 M 731.574795,1129.751513 l -12.033698,33.062313 M 712.193991,1182.999835 l 3.109835,-8.544201 M 706.539173,1198.536318 l -22.202853,61.001837 M 744.064189,1177.303708 l 7.517848,-20.655117 M 735.793505,1200.027226 l -23.155285,63.618623 M 738.862679,1273.461264 l 37.326778,-102.554480 M 800.647745,1185.574712 l -33.757700,92.748517 M 799.025506,1271.898300 l 23.393683,-64.273615 M 841.577641,1236.853792 l -6.811048,18.713201 M 863.049432,1259.727055 l 2.897588,-7.961058"
       id="path17" />
  </g>
  <g
     inkscape:label="fill-aeaeae"
     inkscape:groupmode="layer"
     id="fill-aeaeae">
    <path
       style="stroke:#aeaeae"
       d="M 304.186781,753.689543 l -0.158697,1.001972 M 333.231933,787.649080 l 3.892283,-24.574905 M 367.221734,790.389338 l -3.980373,25.131088 M 392.608042,847.449903 l 4.623261,-29.190120 M 429.256808,833.402111 l -8.540181,53.920584 M 416.502010,913.932736 l 2.430563,-15.345968 M 415.774701,918.524784 l -0.536921,3.389986 M 372.195715,1193.671672 l 1.299991,-8.207818 M 458.733423,864.637499 l -10.236663,64.631744 M 443.011504,963.901785 l 3.867030,-24.415468 M 440.324410,980.867431 l -0.018464,0.116575 M 429.181273,1051.222433 l 8.840824,-55.818767 M 428.717187,1054.152551 l -8.928523,56.372477 M 407.786535,1186.303493 l 3.436126,-21.694843 M 488.377148,894.817797 l -3.320515,20.964904 M 477.762835,961.833928 l 6.969763,-44.005354 M 476.736055,968.316765 l -35.709416,225.460377 M 499.301963,1043.184637 l 18.518438,-116.920814 M 498.450024,1048.563571 l -2.765124,17.458309 M 491.665856,1091.397116 l 1.827447,-11.538044 M 490.640668,1097.869903 l -10.932484,69.024987 M 472.525680,1212.243435 l 3.637814,-22.968257 M 462.530724,1275.349105 l -0.575051,3.630730 M 520.214167,1128.493588 l 28.621881,-180.711443 M 520.096221,1129.238267 l -9.722925,61.388130 M 541.146235,1213.677120 l 38.299676,-241.814637 M 608.218967,1007.539966 l -35.033685,221.193984 M 614.150343,1187.434144 l 24.403839,-154.079777 M 613.781929,1189.760215 l -1.878418,11.859865 M 605.668726,1240.984966 l 5.640391,-35.612027 M 669.540216,1055.059658 l -5.106702,32.242450 M 638.262533,1252.539174 l 26.037062,-164.391538 M 699.791939,1081.401206 l -28.020101,176.911956 M 721.082033,1164.324250 l 6.647462,-41.970425 M 719.159593,1176.462058 l -0.876064,5.531251 M 705.487925,1262.781574 l 9.882201,-62.393763 M 756.371942,1158.855941 l -4.007263,25.300861 M 738.177265,1273.732615 l 13.325156,-84.131725 M 787.893271,1177.181514 l -16.000540,101.023434 M 808.055631,1267.224792 l 10.457760,-66.027700 M 846.900991,1239.308251 l -2.272150,14.345793 M 877.114973,1265.888089 l 0.453626,-2.864084"
       id="path20" />
  </g>
  <g
     inkscape:label="fill-cdcdcd"
     inkscape:groupmode="layer"
     id="fill-cdcdcd">
    <path
       style="stroke:#cdcdcd"
       d="M 303.850293,748.604811 l 0.671264,19.222491 M 345.687701,800.523077 l -1.118802,-32.038297 M 385.910521,806.205606 l 1.301849,37.280086 M 399.283077,1189.145514 l -0.404836,-11.592991 M 426.714810,828.539243 l 4.208598,120.518479 M 436.206880,1100.356558 l -3.728181,-106.761147 M 436.493694,1108.569836 l 2.965651,84.925144 M 478.566384,1167.225707 l -10.271052,-294.124455 M 479.608467,1197.067050 l 2.431956,69.642111 M 519.732790,1199.928985 l -9.910024,-283.785952 M 550.950081,947.726926 l 9.698091,277.716997 M 601.215540,1240.993007 l -8.855436,-253.586503 M 633.824890,1028.654281 l 7.863131,225.170608 M 681.947157,1260.547373 l -7.086734,-202.937501 M 716.360772,1099.876032 l 2.226667,63.763390 M 719.251295,1182.649761 l -0.549698,-15.741296 M 719.848032,1199.738087 l 2.383441,68.252826 M 762.654475,1279.405890 l -4.202605,-120.346865 M 799.318700,1183.183600 l 3.075228,88.063002 M 841.814110,1253.944571 l -0.675090,-19.332052"
       id="path23" />
  </g>
</svg>
