<?xml version="1.0" encoding="UTF-8" standalone="no"?>
<!-- Created with Inkscape (http://www.inkscape.org/) -->

<svg
   xmlns:dc="http://purl.org/dc/elements/1.1/"
   xmlns:cc="http://creativecommons.org/ns#"
   xmlns:rdf="http://www.w3.org/1999/02/22-rdf-syntax-ns#"
   xmlns:svg="http://www.w3.org/2000/svg"
   xmlns="http://www.w3.org/2000/svg"
   xmlns:sodipodi="http://sodipodi.sourceforge.net/DTD/sodipodi-0.dtd"
   xmlns:inkscape="http://www.inkscape.org/namespaces/inkscape"
   id="svg2"
   version="1.1"
   inkscape:version="0.48.3.1 r9886"
   width="753"
   height="759"
   sodipodi:docname="hantologie-_0006_petit1_hatched_1398276920.svg">
  <defs
     id="defs27" />
  <sodipodi:namedview
     pagecolor="#ffffff"
     bordercolor="#666666"
     borderopacity="1"
     objecttolerance="10"
     gridtolerance="10"
     guidetolerance="10"
     inkscape:pageopacity="0"
     inkscape:pageshadow="2"
     inkscape:window-width="640"
     inkscape:window-height="480"
     id="namedview25" />
  <metadata
     id="metadata8">
    <rdf:RDF>
      <cc:Work
         rdf:about="">
        <dc:format>image/svg+xml </dc:format>
        <dc:type
           rdf:resource="http://purl.org/dc/dcmitype/StillImage" />
        <dc:title />
      </cc:Work>
    </rdf:RDF>
  </metadata>
  <g
     inkscape:label="fill-111111"
     inkscape:groupmode="layer"
     id="fill-111111">
    <path
       style="stroke:#111111"
       d="M 264.913716,401.725911 l 0.000000,5.345468 M 269.913716,414.012020 l 0.000000,-17.419485 M 274.913716,366.767704 l 0.000000,1.593090 M 274.913716,397.664411 l 0.000000,-6.802370 M 279.913716,356.977724 l 0.000000,3.312713 M 279.913716,382.000064 l 0.000000,-4.718746 M 294.913716,263.162754 l 0.000000,1.829479 M 294.913716,305.272718 l 0.000000,-1.790485 M 299.913716,280.634082 l 0.000000,20.021418 M 304.913716,296.349500 l 0.000000,-8.343127 M 304.913716,296.532356 l 0.000000,9.062289 M 309.913716,290.305336 l 0.000000,-10.262062 M 309.913716,294.217215 l 0.000000,13.679684 M 314.913716,308.751595 l 0.000000,-36.290335 M 314.913716,365.162210 l 0.000000,2.546757 M 319.913716,307.188644 l 0.000000,-44.862801 M 319.913716,337.114718 l 0.000000,1.770564 M 324.913716,304.818255 l 0.000000,-57.007171 M 324.913716,381.382877 l 0.000000,0.158417 M 329.913716,265.379343 l 0.000000,-13.834325 M 329.913716,270.990393 l 0.000000,30.916827 M 329.913716,390.974898 l 0.000000,-13.624951 M 334.913716,254.906877 l 0.000000,4.002249 M 334.913716,300.002668 l 0.000000,-24.240779 M 334.913716,377.720685 l 0.000000,20.283739 M 339.913716,259.470654 l 0.000000,-2.301828 M 339.913716,267.117286 l 0.000000,2.783894 M 339.913716,297.498108 l 0.000000,-24.811904 M 339.913716,379.553150 l 0.000000,26.111523 M 344.913716,293.245183 l 0.000000,-27.382344 M 349.913716,221.792415 l 0.000000,3.433014 M 349.913716,234.397332 l 0.000000,-2.224242 M 349.913716,265.749245 l 0.000000,13.970244 M 349.913716,289.206895 l 0.000000,-7.915657 M 354.913716,210.502897 l 0.000000,8.548048 M 354.913716,262.237553 l 0.000000,-2.005082 M 354.913716,265.609118 l 0.000000,11.722124 M 354.913716,287.655461 l 0.000000,-2.921546 M 354.913716,294.081531 l 0.000000,2.374349 M 354.913716,308.304462 l 0.000000,-8.201127 M 359.913716,196.399034 l 0.000000,1.160832 M 359.913716,211.323140 l 0.000000,-9.837039 M 359.913716,227.787063 l 0.000000,11.891404 M 359.913716,274.029812 l 0.000000,-14.450541 M 359.913716,291.038006 l 0.000000,1.477315 M 359.913716,306.043369 l 0.000000,-10.151463 M 364.913716,193.509973 l 0.000000,13.390058 M 364.913716,233.481127 l 0.000000,-7.333343 M 364.913716,238.015969 l 0.000000,5.125491 M 364.913716,253.934169 l 0.000000,-7.624165 M 364.913716,259.954480 l 0.000000,11.095290 M 364.913716,306.746790 l 0.000000,-11.748891 M 369.913716,184.716415 l 0.000000,21.055797 M 369.913716,230.897316 l 0.000000,-8.167394 M 369.913716,264.744112 l 0.000000,4.582190 M 369.913716,277.885282 l 0.000000,-1.770564 M 369.913716,291.176432 l 0.000000,8.547835 M 369.913716,314.180821 l 0.000000,-10.374903 M 374.913716,170.853268 l 0.000000,1.552640 M 374.913716,194.034593 l 0.000000,-10.851902 M 374.913716,197.205055 l 0.000000,5.346932 M 374.913716,228.759405 l 0.000000,-10.816662 M 374.913716,230.520088 l 0.000000,4.694843 M 374.913716,289.272252 l 0.000000,-2.356023 M 374.913716,292.323993 l 0.000000,24.147172 M 374.913716,383.038659 l 0.000000,-4.539710 M 379.913716,168.196859 l 0.000000,3.955018 M 379.913716,202.757156 l 0.000000,-22.198829 M 379.913716,215.427799 l 0.000000,17.813631 M 379.913716,275.319806 l 0.000000,-3.555924 M 379.913716,282.656026 l 0.000000,22.441209 M 379.913716,316.329745 l 0.000000,-8.385324 M 379.913716,383.432096 l 0.000000,5.649263 M 384.913716,167.446076 l 0.000000,-2.191765 M 384.913716,170.528638 l 0.000000,10.680955 M 384.913716,186.244179 l 0.000000,-1.844782 M 384.913716,193.322068 l 0.000000,9.892116 M 384.913716,230.307656 l 0.000000,-15.935552 M 384.913716,256.812481 l 0.000000,2.645267 M 384.913716,274.704186 l 0.000000,-5.065644 M 384.913716,278.535486 l 0.000000,22.323605 M 384.913716,315.527891 l 0.000000,-11.797476 M 384.913716,388.955840 l 0.000000,5.503284 M 384.913716,494.576952 l 0.000000,-9.274968 M 389.913716,164.029351 l 0.000000,15.136851 M 389.913716,197.125640 l 0.000000,-8.659894 M 389.913716,205.465406 l 0.000000,4.433934 M 389.913716,228.625581 l 0.000000,-14.649866 M 389.913716,233.174908 l 0.000000,7.073212 M 389.913716,252.788374 l 0.000000,-11.639527 M 389.913716,255.029996 l 0.000000,3.530428 M 389.913716,287.598473 l 0.000000,-11.634447 M 389.913716,292.400457 l 0.000000,2.872064 M 389.913716,302.883462 l 0.000000,-2.550853 M 389.913716,306.733334 l 0.000000,8.060311 M 389.913716,399.516067 l 0.000000,-5.070599 M 389.913716,482.239248 l 0.000000,26.552945 M 394.913716,175.142360 l 0.000000,-13.062248 M 394.913716,178.617401 l 0.000000,2.521516 M 394.913716,196.079632 l 0.000000,-9.428187 M 394.913716,219.628071 l 0.000000,7.413172 M 394.913716,246.329211 l 0.000000,-13.729292 M 394.913716,253.779111 l 0.000000,2.756710 M 394.913716,308.616232 l 0.000000,-0.134635 M 394.913716,399.910666 l 0.000000,4.560281 M 394.913716,507.609015 l 0.000000,-22.878301 M 399.913716,159.354179 l 0.000000,12.976923 M 399.913716,176.284264 l 0.000000,-2.710730 M 399.913716,177.951447 l 0.000000,17.031204 M 399.913716,241.729205 l 0.000000,-27.331048 M 399.913716,284.275021 l 0.000000,2.518242 M 399.913716,293.725364 l 0.000000,-1.238341 M 399.913716,405.375864 l 0.000000,4.049963 M 399.913716,505.765182 l 0.000000,-17.482721 M 404.913716,161.131877 l 0.000000,9.975832 M 404.913716,179.554637 l 0.000000,-6.382096 M 404.913716,206.917943 l 0.000000,1.905968 M 404.913716,224.013338 l 0.000000,-11.822512 M 404.913716,233.201761 l 0.000000,7.953464 M 404.913716,249.626166 l 0.000000,-1.052609 M 404.913716,410.841062 l 0.000000,3.749649 M 404.913716,500.090594 l 0.000000,-7.134405 M 409.913716,163.732862 l 0.000000,11.178112 M 409.913716,220.805534 l 0.000000,-14.278385 M 409.913716,223.908286 l 0.000000,2.292831 M 409.913716,245.397152 l 0.000000,-12.912563 M 409.913716,416.306260 l 0.000000,3.486823 M 414.913716,173.076788 l 0.000000,-9.025314 M 414.913716,182.630940 l 0.000000,8.506636 M 414.913716,240.615634 l 0.000000,-34.468872 M 414.913716,251.297011 l 0.000000,6.740478 M 414.913716,271.200502 l 0.000000,-12.267011 M 414.913716,283.327247 l 0.000000,5.848809 M 414.913716,425.207622 l 0.000000,-3.436232 M 419.913716,164.877050 l 0.000000,7.169262 M 419.913716,193.975637 l 0.000000,-11.401660 M 419.913716,205.315175 l 0.000000,28.751605 M 419.913716,261.412475 l 0.000000,-19.237737 M 419.913716,291.080118 l 0.000000,4.090335 M 419.913716,430.717599 l 0.000000,-3.483105 M 424.913716,165.655219 l 0.000000,5.878070 M 424.913716,189.952119 l 0.000000,-6.521019 M 424.913716,206.401985 l 0.000000,20.377555 M 424.913716,229.883016 l 0.000000,-2.749953 M 424.913716,241.594121 l 0.000000,6.838044 M 424.913716,273.862527 l 0.000000,-19.716592 M 424.913716,432.697597 l 0.000000,4.188388 M 429.913716,174.116366 l 0.000000,-7.982013 M 429.913716,196.217719 l 0.000000,8.985558 M 429.913716,220.042577 l 0.000000,-12.147213 M 429.913716,222.420621 l 0.000000,5.056258 M 429.913716,249.497920 l 0.000000,-1.671860 M 429.913716,258.590803 l 0.000000,9.569764 M 429.913716,302.515321 l 0.000000,-1.477315 M 429.913716,438.791722 l 0.000000,0.533621 M 434.913716,175.790070 l 0.000000,-7.243469 M 434.913716,177.482682 l 0.000000,20.368270 M 434.913716,226.373543 l 0.000000,-23.240617 M 434.913716,240.730192 l 0.000000,4.560964 M 434.913716,265.270903 l 0.000000,-5.205133 M 434.913716,448.809907 l 0.000000,7.387269 M 439.913716,189.115416 l 0.000000,-18.777108 M 439.913716,204.588015 l 0.000000,16.469482 M 439.913716,229.801055 l 0.000000,-1.939877 M 439.913716,238.522084 l 0.000000,5.404161 M 439.913716,458.005645 l 0.000000,-5.824577 M 444.913716,173.733727 l 0.000000,8.712663 M 444.913716,194.916622 l 0.000000,-10.973690 M 444.913716,198.759059 l 0.000000,18.199501 M 444.913716,464.267284 l 0.000000,-7.809156 M 449.913716,176.073452 l 0.000000,16.378818 M 449.913716,212.516586 l 0.000000,-17.470546 M 449.913716,303.707278 l 0.000000,0.722408 M 449.913716,473.786444 l 0.000000,-19.575032 M 449.913716,486.921532 l 0.000000,3.817055 M 449.913716,497.689791 l 0.000000,-5.271101 M 454.913716,167.680326 l 0.000000,3.072108 M 454.913716,192.980066 l 0.000000,-8.914573 M 454.913716,195.973353 l 0.000000,12.109027 M 454.913716,211.520377 l 0.000000,-2.456955 M 454.913716,221.541306 l 0.000000,1.172200 M 454.913716,298.058768 l 0.000000,-0.938992 M 454.913716,458.004555 l 0.000000,32.488606 M 454.913716,497.798145 l 0.000000,-5.202342 M 459.913716,197.195599 l 0.000000,3.266458 M 459.913716,495.416217 l 0.000000,-34.672867 M 464.913716,188.817373 l 0.000000,4.089995 M 464.913716,200.281209 l 0.000000,-6.748602 M 464.913716,466.466139 l 0.000000,21.994848 M 469.913716,190.743583 l 0.000000,-2.690657 M 474.913716,176.789882 l 0.000000,0.980475 M 474.913716,189.383998 l 0.000000,-3.934214 M 479.913716,176.380404 l 0.000000,11.867775 M 484.913716,183.978641 l 0.000000,-7.125776 M 489.913716,177.671030 l 0.000000,4.974554 M 494.913716,181.412373 l 0.000000,-2.658715"
       id="path5" />
  </g>
  <g
     inkscape:label="fill-2e2e2e"
     inkscape:groupmode="layer"
     id="fill-2e2e2e">
    <path
       style="stroke:#2e2e2e"
       d="M 260.681304,444.703430 l 0.000000,16.674591 M 267.681304,430.423709 l 0.000000,-33.684851 M 274.681304,327.134679 l 0.000000,1.036520 M 274.681304,356.185996 l 0.000000,-8.872385 M 274.681304,365.548498 l 0.000000,6.370242 M 274.681304,403.717707 l 0.000000,-15.548298 M 281.681304,309.971494 l 0.000000,6.698673 M 281.681304,365.239712 l 0.000000,-12.817647 M 281.681304,371.335439 l 0.000000,10.059609 M 288.681304,280.707583 l 0.000000,-5.724994 M 288.681304,297.046955 l 0.000000,10.160969 M 288.681304,353.293883 l 0.000000,-1.792582 M 295.681304,260.872606 l 0.000000,5.189948 M 295.681304,311.149626 l 0.000000,-30.755919 M 295.681304,352.351335 l 0.000000,4.327188 M 302.681304,256.891086 l 0.000000,-4.737345 M 302.681304,269.419914 l 0.000000,42.773312 M 302.681304,343.088162 l 0.000000,-1.175741 M 302.681304,365.780861 l 0.000000,1.437448 M 309.681304,252.582927 l 0.000000,-2.647214 M 309.681304,261.258583 l 0.000000,49.011357 M 309.681304,335.361500 l 0.000000,-4.777626 M 309.681304,364.204983 l 0.000000,4.334893 M 316.681304,254.612600 l 0.000000,-13.210077 M 316.681304,255.291764 l 0.000000,54.082465 M 316.681304,340.747589 l 0.000000,-26.194413 M 316.681304,364.708505 l 0.000000,4.327368 M 323.681304,306.620838 l 0.000000,-69.249970 M 323.681304,318.327632 l 0.000000,3.147488 M 323.681304,329.777972 l 0.000000,-5.871130 M 323.681304,334.962224 l 0.000000,2.316621 M 323.681304,386.678191 l 0.000000,-10.127960 M 330.681304,235.719877 l 0.000000,1.582105 M 330.681304,244.542282 l 0.000000,-2.361384 M 330.681304,247.148404 l 0.000000,56.278723 M 330.681304,327.816673 l 0.000000,-5.711429 M 330.681304,375.693525 l 0.000000,19.286678 M 337.681304,243.109642 l 0.000000,-5.577577 M 337.681304,251.242198 l 0.000000,50.991250 M 337.681304,320.015063 l 0.000000,-9.136203 M 337.681304,377.569265 l 0.000000,25.923318 M 344.681304,227.273623 l 0.000000,-3.474533 M 344.681304,232.025809 l 0.000000,10.075751 M 344.681304,295.255704 l 0.000000,-40.783347 M 344.681304,296.930592 l 0.000000,18.527203 M 344.681304,337.007958 l 0.000000,-3.656693 M 344.681304,409.199851 l 0.000000,5.572043 M 351.681304,228.409488 l 0.000000,-17.358005 M 351.681304,229.808103 l 0.000000,12.927567 M 351.681304,251.495761 l 0.000000,-1.649865 M 351.681304,254.317416 l 0.000000,58.260922 M 358.681304,309.620758 l 0.000000,-116.413121 M 358.681304,320.138407 l 0.000000,6.493259 M 365.681304,216.628509 l 0.000000,-35.763668 M 365.681304,219.000000 l 0.000000,106.216718 M 372.681304,208.234303 l 0.000000,-37.668365 M 372.681304,213.419541 l 0.000000,36.474284 M 372.681304,257.791849 l 0.000000,-5.575978 M 372.681304,260.771326 l 0.000000,59.120672 M 372.681304,382.024652 l 0.000000,-5.828969 M 379.681304,161.245208 l 0.000000,1.442316 M 379.681304,249.598559 l 0.000000,-83.879314 M 379.681304,252.285288 l 0.000000,26.087345 M 379.681304,319.061417 l 0.000000,-38.414708 M 379.681304,382.621703 l 0.000000,7.244816 M 379.681304,487.504925 l 0.000000,-14.528577 M 386.681304,156.473679 l 0.000000,2.567279 M 386.681304,263.591470 l 0.000000,-102.927266 M 386.681304,266.392447 l 0.000000,50.627089 M 386.681304,397.134397 l 0.000000,-7.041945 M 386.681304,478.326373 l 0.000000,28.369706 M 393.681304,259.326308 l 0.000000,-106.027198 M 393.681304,270.224281 l 0.000000,33.071660 M 393.681304,313.240570 l 0.000000,-8.403079 M 393.681304,397.645977 l 0.000000,6.721884 M 393.681304,508.101756 l 0.000000,-26.790500 M 400.681304,156.290697 l 0.000000,40.432799 M 400.681304,256.991454 l 0.000000,-57.265483 M 400.681304,272.549317 l 0.000000,28.834591 M 400.681304,411.716814 l 0.000000,-6.464570 M 400.681304,487.234474 l 0.000000,17.540113 M 407.681304,178.380127 l 0.000000,-25.514992 M 407.681304,195.852964 l 0.000000,62.587701 M 407.681304,289.283979 l 0.000000,-17.900351 M 407.681304,297.453543 l 0.000000,3.459820 M 407.681304,419.086478 l 0.000000,-6.227966 M 407.681304,496.117263 l 0.000000,6.234036 M 414.681304,174.960512 l 0.000000,-21.376253 M 414.681304,180.616864 l 0.000000,12.842629 M 414.681304,296.380669 l 0.000000,-99.605191 M 414.681304,420.464779 l 0.000000,6.299968 M 421.681304,174.137111 l 0.000000,-11.605104 M 421.681304,180.547006 l 0.000000,119.068628 M 421.681304,434.543806 l 0.000000,-6.398904 M 428.681304,151.272412 l 0.000000,1.558168 M 428.681304,177.973318 l 0.000000,-14.932340 M 428.681304,186.132065 l 0.000000,1.523784 M 428.681304,234.684502 l 0.000000,-40.780806 M 428.681304,238.716610 l 0.000000,37.733508 M 428.681304,305.551900 l 0.000000,-15.456671 M 428.681304,436.068306 l 0.000000,6.883673 M 435.681304,163.883866 l 0.000000,-4.349479 M 435.681304,166.665210 l 0.000000,32.002055 M 435.681304,233.403480 l 0.000000,-31.580087 M 435.681304,235.262122 l 0.000000,15.421352 M 435.681304,268.666383 l 0.000000,-10.979886 M 435.681304,286.132479 l 0.000000,17.514353 M 435.681304,457.215702 l 0.000000,-10.941727 M 442.681304,158.696412 l 0.000000,89.094109 M 442.681304,268.488119 l 0.000000,-16.487765 M 442.681304,286.124223 l 0.000000,18.316344 M 442.681304,462.482743 l 0.000000,-10.969447 M 449.681304,157.791814 l 0.000000,56.281994 M 449.681304,237.755302 l 0.000000,-17.151812 M 449.681304,259.905159 l 0.000000,7.022294 M 449.681304,307.276646 l 0.000000,-12.926586 M 449.681304,453.059617 l 0.000000,22.801389 M 449.681304,498.658389 l 0.000000,-15.011229 M 456.681304,158.969919 l 0.000000,9.335314 M 456.681304,228.687705 l 0.000000,-43.402117 M 456.681304,230.105560 l 0.000000,13.927160 M 456.681304,262.949727 l 0.000000,-2.015528 M 456.681304,275.957446 l 0.000000,23.776458 M 456.681304,498.221514 l 0.000000,-41.989053 M 463.681304,187.162484 l 0.000000,15.526149 M 463.681304,208.850895 l 0.000000,-2.466518 M 463.681304,251.121395 l 0.000000,1.593938 M 463.681304,490.495922 l 0.000000,-26.918485 M 470.681304,185.985112 l 0.000000,10.348424 M 477.681304,192.454772 l 0.000000,-16.648455 M 484.681304,175.954175 l 0.000000,13.483218 M 491.681304,186.701124 l 0.000000,-9.579908 M 498.681304,179.303366 l 0.000000,3.527100"
       id="path8" />
  </g>
  <g
     inkscape:label="fill-4e4e4e"
     inkscape:groupmode="layer"
     id="fill-4e4e4e">
    <path
       style="stroke:#4e4e4e"
       d="M 260.721671,431.821036 l 0.000000,41.833605 M 269.721671,364.757171 l 0.000000,-9.561287 M 269.721671,376.084544 l 0.000000,6.276877 M 269.721671,427.095247 l 0.000000,-34.439093 M 278.721671,310.476137 l 0.000000,14.343913 M 278.721671,331.828507 l 0.000000,-4.065827 M 278.721671,340.704970 l 0.000000,30.814905 M 278.721671,393.069134 l 0.000000,-19.461715 M 287.721671,275.843100 l 0.000000,9.354709 M 287.721671,326.778305 l 0.000000,-31.775294 M 287.721671,343.758856 l 0.000000,3.162802 M 287.721671,360.860175 l 0.000000,-12.591486 M 287.721671,365.015141 l 0.000000,0.794510 M 287.721671,418.168872 l 0.000000,-5.677273 M 296.721671,257.802794 l 0.000000,59.624547 M 296.721671,363.180088 l 0.000000,-36.042127 M 296.721671,364.373298 l 0.000000,3.782999 M 296.721671,395.231670 l 0.000000,-4.341216 M 305.721671,247.945820 l 0.000000,11.275110 M 305.721671,345.858931 l 0.000000,-82.425678 M 305.721671,358.984027 l 0.000000,10.284481 M 314.721671,348.058370 l 0.000000,-107.084279 M 314.721671,350.517687 l 0.000000,3.715961 M 314.721671,371.495256 l 0.000000,-8.518231 M 323.721671,235.071331 l 0.000000,117.682496 M 323.721671,388.996946 l 0.000000,-14.003034 M 332.721671,229.889620 l 0.000000,0.884100 M 332.721671,336.387595 l 0.000000,-103.407591 M 332.721671,375.123867 l 0.000000,22.885280 M 341.721671,320.259968 l 0.000000,-96.185147 M 341.721671,332.493131 l 0.000000,7.487666 M 341.721671,396.504957 l 0.000000,-17.754179 M 341.721671,400.158112 l 0.000000,11.211216 M 350.721671,314.862051 l 0.000000,-104.157385 M 350.721671,327.129813 l 0.000000,8.061950 M 350.721671,428.004494 l 0.000000,-7.120005 M 359.721671,188.406147 l 0.000000,142.822752 M 359.721671,444.991992 l 0.000000,-5.434073 M 368.721671,174.292924 l 0.000000,155.761421 M 368.721671,380.437263 l 0.000000,-3.676504 M 368.721671,457.087144 l 0.000000,3.777041 M 377.721671,327.590767 l 0.000000,-165.676748 M 377.721671,379.032500 l 0.000000,9.982414 M 377.721671,483.350106 l 0.000000,-12.016490 M 386.721671,155.342948 l 0.000000,163.124719 M 386.721671,398.157405 l 0.000000,-8.838653 M 386.721671,476.037380 l 0.000000,33.959198 M 395.721671,314.265761 l 0.000000,-161.783161 M 395.721671,399.268089 l 0.000000,8.186596 M 395.721671,509.851697 l 0.000000,-28.484944 M 395.721671,523.156703 l 0.000000,4.611673 M 404.721671,305.632169 l 0.000000,-154.715385 M 404.721671,408.928947 l 0.000000,7.966942 M 404.721671,501.290309 l 0.000000,-10.528471 M 413.721671,150.392034 l 0.000000,149.625821 M 413.721671,426.814693 l 0.000000,-8.256882 M 422.721671,151.564667 l 0.000000,23.862200 M 422.721671,306.720917 l 0.000000,-127.267158 M 422.721671,428.173014 l 0.000000,8.805566 M 431.721671,306.466150 l 0.000000,-155.667623 M 431.721671,438.162747 l 0.000000,20.497027 M 440.721671,272.731003 l 0.000000,-116.570953 M 440.721671,276.107550 l 0.000000,30.484079 M 440.721671,460.710376 l 0.000000,-11.938836 M 449.721671,150.180489 l 0.000000,1.054519 M 449.721671,242.517610 l 0.000000,-86.486112 M 449.721671,244.767714 l 0.000000,28.140591 M 449.721671,309.099572 l 0.000000,-20.508548 M 449.721671,452.378694 l 0.000000,27.699619 M 449.721671,499.312566 l 0.000000,-18.164825 M 458.721671,156.239587 l 0.000000,11.586184 M 458.721671,227.629615 l 0.000000,-41.365644 M 458.721671,231.595922 l 0.000000,69.334685 M 458.721671,498.264402 l 0.000000,-41.447168 M 467.721671,161.081314 l 0.000000,5.657992 M 467.721671,204.431702 l 0.000000,-20.745730 M 467.721671,209.496546 l 0.000000,1.930908 M 467.721671,277.772830 l 0.000000,-17.872839 M 467.721671,468.531420 l 0.000000,18.710579 M 476.721671,193.792626 l 0.000000,-18.250545 M 476.721671,270.848188 l 0.000000,11.049592 M 485.721671,189.974193 l 0.000000,-14.310901 M 485.721671,275.811491 l 0.000000,8.474808 M 494.721671,186.296823 l 0.000000,-9.446200"
       id="path11" />
  </g>
  <g
     inkscape:label="fill-6e6e6e"
     inkscape:groupmode="layer"
     id="fill-6e6e6e">
    <path
       style="stroke:#6e6e6e"
       d="M 260.732064,427.685919 l 0.000000,49.110134 M 271.732064,382.215068 l 0.000000,-52.317607 M 271.732064,385.438462 l 0.000000,38.040378 M 271.732064,463.511447 l 0.000000,-15.827256 M 282.732064,285.806226 l 0.000000,99.069892 M 282.732064,433.226136 l 0.000000,-39.609265 M 293.732064,262.092941 l 0.000000,107.416846 M 293.732064,409.145423 l 0.000000,-18.799046 M 293.732064,413.636066 l 0.000000,15.427202 M 304.732064,370.950146 l 0.000000,-122.741168 M 315.732064,238.936766 l 0.000000,146.923442 M 326.732064,355.228334 l 0.000000,-123.761060 M 326.732064,358.586617 l 0.000000,2.869920 M 326.732064,393.868926 l 0.000000,-24.047826 M 337.732064,225.290719 l 0.000000,114.492640 M 337.732064,405.524772 l 0.000000,-30.200542 M 348.732064,213.448650 l 0.000000,104.470505 M 348.732064,340.614656 l 0.000000,-13.946432 M 348.732064,415.062490 l 0.000000,10.680733 M 359.732064,337.966431 l 0.000000,-150.794476 M 359.732064,437.410784 l 0.000000,8.918067 M 370.732064,331.698608 l 0.000000,-161.355570 M 370.732064,375.389548 l 0.000000,7.956683 M 370.732064,465.642386 l 0.000000,-6.299837 M 381.732064,157.916932 l 0.000000,169.389120 M 381.732064,393.891199 l 0.000000,-10.937378 M 381.732064,471.479684 l 0.000000,24.818844 M 392.732064,326.721549 l 0.000000,-174.211900 M 392.732064,395.260073 l 0.000000,9.786491 M 392.732064,509.226977 l 0.000000,-31.175316 M 392.732064,524.695475 l 0.000000,2.889575 M 403.732064,308.417282 l 0.000000,-158.290460 M 403.732064,407.286836 l 0.000000,9.371772 M 403.732064,502.372935 l 0.000000,-13.651589 M 414.732064,148.908692 l 0.000000,158.527230 M 414.732064,428.844160 l 0.000000,-9.709572 M 425.732064,148.216271 l 0.000000,29.455409 M 425.732064,307.933876 l 0.000000,-129.412314 M 425.732064,430.780400 l 0.000000,10.784760 M 436.732064,308.057148 l 0.000000,-160.640117 M 436.732064,442.592944 l 0.000000,15.222153 M 447.732064,311.646844 l 0.000000,-162.885797 M 447.732064,450.774885 l 0.000000,22.128207 M 447.732064,498.195941 l 0.000000,-10.563956 M 458.732064,154.655111 l 0.000000,14.470968 M 458.732064,303.304479 l 0.000000,-118.297695 M 458.732064,456.155195 l 0.000000,42.928987 M 469.732064,167.092234 l 0.000000,-5.251349 M 469.732064,175.092968 l 0.000000,39.772496 M 469.732064,222.586195 l 0.000000,-3.470350 M 469.732064,227.259244 l 0.000000,13.525526 M 469.732064,288.752267 l 0.000000,-37.860212 M 469.732064,474.582375 l 0.000000,9.485140 M 480.732064,192.538085 l 0.000000,-17.576044 M 480.732064,268.896632 l 0.000000,16.056265 M 491.732064,188.056228 l 0.000000,-12.031530 M 502.732064,179.410365 l 0.000000,2.773850"
       id="path14" />
  </g>
  <g
     inkscape:label="fill-8e8e8e"
     inkscape:groupmode="layer"
     id="fill-8e8e8e">
    <path
       style="stroke:#8e8e8e"
       d="M 253.590360,453.080899 l 0.000000,17.387809 M 266.590360,377.381560 l 0.000000,-13.247085 M 266.590360,378.674095 l 0.000000,71.665693 M 266.590360,477.415963 l 0.000000,-25.938497 M 279.590360,290.625658 l 0.000000,167.992739 M 279.590360,480.626512 l 0.000000,-15.182201 M 292.590360,262.457200 l 0.000000,124.738079 M 292.590360,448.142176 l 0.000000,-59.257230 M 305.590360,246.807447 l 0.000000,151.794246 M 318.590360,390.478935 l 0.000000,-154.654250 M 331.590360,227.672498 l 0.000000,133.036327 M 331.590360,399.051647 l 0.000000,-28.098810 M 344.590360,219.569178 l 0.000000,124.649450 M 344.590360,391.891644 l 0.000000,-16.018918 M 344.590360,405.236380 l 0.000000,13.880970 M 357.590360,341.572574 l 0.000000,-151.613167 M 357.590360,432.128178 l 0.000000,11.582723 M 370.590360,348.335189 l 0.000000,-178.877661 M 370.590360,374.911427 l 0.000000,8.894397 M 370.590360,467.674332 l 0.000000,-10.544530 M 383.590360,155.886312 l 0.000000,172.147907 M 383.590360,396.320032 l 0.000000,-11.821267 M 383.590360,471.806000 l 0.000000,31.635099 M 396.590360,325.341144 l 0.000000,-174.564902 M 396.590360,398.881395 l 0.000000,10.807671 M 396.590360,529.189913 l 0.000000,-49.163747 M 409.590360,148.354458 l 0.000000,165.276133 M 409.590360,423.775558 l 0.000000,-10.719752 M 409.590360,496.051029 l 0.000000,11.712250 M 422.590360,311.756702 l 0.000000,-164.665370 M 422.590360,426.718543 l 0.000000,11.699005 M 435.590360,310.549211 l 0.000000,-164.061594 M 435.590360,440.064940 l 0.000000,19.136047 M 448.590360,314.514614 l 0.000000,-166.760983 M 448.590360,450.593191 l 0.000000,26.015132 M 448.590360,499.589749 l 0.000000,-16.120952 M 461.590360,155.342739 l 0.000000,11.120342 M 461.590360,306.451863 l 0.000000,-123.398469 M 461.590360,458.352709 l 0.000000,38.283093 M 474.590360,196.758516 l 0.000000,-22.748120 M 474.590360,224.785779 l 0.000000,64.279746 M 487.590360,190.268920 l 0.000000,-15.875729 M 487.590360,263.413724 l 0.000000,24.353725 M 500.590360,184.138865 l 0.000000,-6.388173"
       id="path17" />
  </g>
  <g
     inkscape:label="fill-b0b0b0"
     inkscape:groupmode="layer"
     id="fill-b0b0b0">
    <path
       style="stroke:#b0b0b0"
       d="M 253.947851,446.470662 l 0.000000,26.644269 M 268.947851,481.400882 l 0.000000,-143.767800 M 283.947851,280.298573 l 0.000000,200.114734 M 298.947851,423.316718 l 0.000000,-170.484382 M 313.947851,238.557021 l 0.000000,155.506709 M 328.947851,366.441610 l 0.000000,-138.077525 M 328.947851,366.690307 l 0.000000,31.125484 M 343.947851,357.434250 l 0.000000,-137.946324 M 343.947851,363.866756 l 0.000000,0.213666 M 343.947851,396.084066 l 0.000000,-21.831243 M 343.947851,402.380422 l 0.000000,16.738914 M 358.947851,356.140251 l 0.000000,-169.995802 M 358.947851,433.450953 l 0.000000,13.993210 M 373.947851,354.180248 l 0.000000,-190.937689 M 373.947851,374.151316 l 0.000000,13.809092 M 373.947851,477.461908 l 0.000000,-15.287737 M 388.947851,152.444372 l 0.000000,180.685266 M 388.947851,402.701140 l 0.000000,-12.917868 M 388.947851,475.056175 l 0.000000,54.003350 M 403.947851,320.610844 l 0.000000,-172.071710 M 403.947851,406.163179 l 0.000000,12.262334 M 403.947851,503.229579 l 0.000000,-16.131286 M 418.947851,146.402767 l 0.000000,176.815179 M 418.947851,435.138566 l 0.000000,-13.048433 M 433.947851,145.720433 l 0.000000,169.413139 M 433.947851,459.686237 l 0.000000,-22.340047 M 448.947851,147.259053 l 0.000000,169.777629 M 448.947851,500.282103 l 0.000000,-49.997554 M 463.947851,155.400050 l 0.000000,12.362420 M 463.947851,307.031546 l 0.000000,-131.872061 M 463.947851,460.116330 l 0.000000,33.298703 M 478.947851,194.223955 l 0.000000,-20.371482 M 478.947851,240.017954 l 0.000000,53.517191 M 493.947851,188.182560 l 0.000000,-13.086607"
       id="path20" />
  </g>
  <g
     inkscape:label="fill-d1d1d1"
     inkscape:groupmode="layer"
     id="fill-d1d1d1">
    <path
       style="stroke:#d1d1d1"
       d="M 266.246343,351.311692 l 0.000000,130.978649 M 283.246343,482.918299 l 0.000000,-203.291513 M 300.246343,250.076194 l 0.000000,174.144691 M 317.246343,397.671749 l 0.000000,-163.059588 M 334.246343,224.091042 l 0.000000,179.625030 M 351.246343,379.522243 l 0.000000,-177.366801 M 351.246343,416.050713 l 0.000000,18.831793 M 368.246343,370.654041 l 0.000000,-200.470607 M 368.246343,373.233638 l 0.000000,10.954684 M 368.246343,466.118780 l 0.000000,-16.326178 M 385.246343,153.091568 l 0.000000,222.230115 M 385.246343,399.983122 l 0.000000,-15.581772 M 385.246343,470.898499 l 0.000000,43.947016 M 402.246343,367.439491 l 0.000000,-219.582011 M 402.246343,403.152794 l 0.000000,14.748627 M 402.246343,514.331555 l 0.000000,-30.650430 M 419.246343,145.364419 l 0.000000,218.385240 M 419.246343,436.788057 l 0.000000,-15.725703 M 436.246343,144.865457 l 0.000000,213.162269 M 436.246343,460.111890 l 0.000000,-22.073079 M 453.246343,147.782383 l 0.000000,202.952338 M 453.246343,501.831205 l 0.000000,-50.548901 M 470.246343,158.438714 l 0.000000,179.902750 M 470.246343,487.926188 l 0.000000,-20.649887 M 487.246343,173.365995 l 0.000000,18.571926 M 487.246343,306.762221 l 0.000000,-49.494106 M 504.246343,177.120630 l 0.000000,6.991346"
       id="path23" />
  </g>
</svg>
