<?xml version="1.0" encoding="UTF-8" standalone="no"?>
<!-- Created with Inkscape (http://www.inkscape.org/) -->

<svg
   xmlns:dc="http://purl.org/dc/elements/1.1/"
   xmlns:cc="http://creativecommons.org/ns#"
   xmlns:rdf="http://www.w3.org/1999/02/22-rdf-syntax-ns#"
   xmlns:svg="http://www.w3.org/2000/svg"
   xmlns="http://www.w3.org/2000/svg"
   xmlns:sodipodi="http://sodipodi.sourceforge.net/DTD/sodipodi-0.dtd"
   xmlns:inkscape="http://www.inkscape.org/namespaces/inkscape"
   id="svg2"
   version="1.1"
   inkscape:version="0.48.3.1 r9886"
   width="1200"
   height="960"
   sodipodi:docname="hantologie-full-socle_01_hatched_1398263496.svg">
  <defs
     id="defs70" />
  <sodipodi:namedview
     pagecolor="#ffffff"
     bordercolor="#666666"
     borderopacity="1"
     objecttolerance="10"
     gridtolerance="10"
     guidetolerance="10"
     inkscape:pageopacity="0"
     inkscape:pageshadow="2"
     inkscape:window-width="640"
     inkscape:window-height="480"
     id="namedview68" />
  <metadata
     id="metadata8">
    <rdf:RDF>
      <cc:Work
         rdf:about="">
        <dc:format>image/svg+xml </dc:format>
        <dc:type
           rdf:resource="http://purl.org/dc/dcmitype/StillImage" />
        <dc:title />
      </cc:Work>
    </rdf:RDF>
  </metadata>
  <g
     inkscape:label="fill-303030"
     inkscape:groupmode="layer"
     id="fill-303030">
    <path
       style="stroke:#303030"
       d="M 591.682705,572.111669 l -1.108702,4.802317 M 592.424295,582.235724 l 2.294323,-9.937803 M 597.754530,572.484174 l -3.479943,15.073289 M 596.124880,592.879201 l 4.665563,-20.208775 M 603.826355,572.856678 l -5.851184,25.344261 M 599.825464,603.522677 l 7.036804,-30.479747 M 609.642581,574.336305 l -7.966825,34.508110 M 603.526048,614.166154 l 8.010346,-34.696619 M 613.430207,584.602765 l -8.053866,34.885127 M 607.226633,624.809631 l 8.097387,-35.073636"
       id="path5" />
  </g>
  <g
     inkscape:label="fill-4f4f4f"
     inkscape:groupmode="layer"
     id="fill-4f4f4f">
    <path
       style="stroke:#4f4f4f"
       d="M 611.571989,573.328316 l -0.624687,4.444879 M 613.143046,583.705555 l 1.432824,-10.195071 M 617.579751,573.692652 l -2.240961,15.945263 M 617.944136,592.655807 l 2.639495,-18.780986 M 623.587512,574.056989 l -2.671992,19.012212 M 623.886904,593.482596 l 2.704489,-19.243439 M 629.595273,574.421326 l -2.736986,19.474665 M 629.829671,594.309386 l 2.769482,-19.705891 M 635.603034,574.785663 l -2.801979,19.937118 M 635.772439,595.136175 l 2.834476,-20.168344 M 641.610796,575.149999 l -2.866973,20.399571 M 641.715207,595.962965 l 2.899469,-20.630797 M 647.618557,575.514336 l -2.931966,20.862023 M 647.657975,596.789754 l 2.964463,-21.093250 M 653.626318,575.878673 l -2.996960,21.324476 M 653.600742,597.616544 l 3.029456,-21.555703 M 659.634079,576.243010 l -3.061953,21.786929 M 659.543510,598.443333 l 3.094450,-22.018155 M 665.641841,576.607346 l -3.126947,22.249382 M 665.486278,599.270123 l 3.159443,-22.480608 M 671.649602,576.971683 l -3.191940,22.711834 M 671.429045,600.096912 l 3.224437,-22.943061 M 677.657363,577.336020 l -3.256934,23.174287 M 677.371813,600.923702 l 3.289430,-23.405514 M 683.665124,577.700357 l -3.321927,23.636740 M 683.314581,601.750491 l 3.354424,-23.867966 M 689.672886,578.064693 l -3.386921,24.099193 M 689.257349,602.577281 l 3.419417,-24.330419 M 695.680647,578.429030 l -3.451914,24.561646 M 695.200116,603.404070 l 3.484411,-24.792872 M 701.688408,578.793367 l -3.516908,25.024098 M 701.142884,604.230860 l 3.549404,-25.255325 M 707.696169,579.157704 l -3.581901,25.486551 M 707.085652,605.057649 l 3.098518,-22.047101 M 712.571290,587.581196 l -2.514254,17.889848 M 713.028420,605.884439 l 1.929990,-13.732595 M 717.345530,596.722492 l -1.345727,9.575342 M 718.971187,606.711228 l 0.761463,-5.418089 M 722.119770,605.863787 l -0.177199,1.260836"
       id="path8" />
  </g>
  <g
     inkscape:label="fill-666666"
     inkscape:groupmode="layer"
     id="fill-666666">
    <path
       style="stroke:#666666"
       d="M 624.384461,257.213088 l -0.430839,6.161285 M 627.401383,271.411434 l 1.044455,-14.936402 M 632.507216,255.736976 l -1.658071,23.711518 M 634.588949,283.309155 l 1.979644,-28.310235 M 640.629971,254.260865 l -1.963156,28.074435 M 642.744681,281.361444 l 1.818673,-26.008229 M 647.974450,263.914616 l -1.151902,16.472972 M 650.900414,279.413733 l 0.485132,-6.937715"
       id="path11" />
  </g>
  <g
     inkscape:label="fill-757575"
     inkscape:groupmode="layer"
     id="fill-757575">
    <path
       style="stroke:#757575"
       d="M 618.016881,759.904023 l -2.240212,64.151276 M 619.817207,822.964282 l 2.241634,-64.192007 M 626.100801,757.640526 l -2.243057,64.232739 M 627.898281,820.782248 l 2.244479,-64.273471 M 634.184720,755.377028 l -2.245901,64.314203 M 635.979356,818.600214 l 2.197178,-62.918952 M 642.039589,759.672674 l -2.019696,57.836523 M 644.060431,816.418180 l 1.842214,-52.754094 M 649.765699,767.655498 l -1.664731,47.671665 M 652.141505,814.236146 l 1.487249,-42.589236 M 657.491809,775.638322 l -1.309767,37.506807 M 660.222580,812.054112 l 1.132284,-32.424378 M 665.217919,783.621146 l -0.954802,27.341949 M 668.303655,809.872078 l 0.777320,-22.259520 M 672.944029,791.603971 l -0.599837,17.177090 M 676.384729,807.690044 l 0.422355,-12.094661 M 680.670139,799.586795 l -0.244873,7.012232 M 684.465804,805.508010 l 0.067390,-1.929803"
       id="path14" />
  </g>
  <g
     inkscape:label="fill-7e7e7e"
     inkscape:groupmode="layer"
     id="fill-7e7e7e">
    <path
       style="stroke:#7e7e7e"
       d="M 723.294133,833.983001 l -0.093341,5.347493 M 727.221895,838.156402 l 0.211038,-12.090341 M 731.571733,818.149121 l -0.328735,18.833189 M 735.264101,835.808218 l 0.446431,-25.576038 M 739.849333,802.315241 l -0.564128,32.318886 M 743.306307,833.460035 l 0.681825,-39.061734 M 748.126933,786.481361 l -0.799522,45.804583 M 751.348514,831.111852 l 0.917219,-52.547431 M 756.285382,777.473637 l -0.915765,52.464123 M 759.390720,828.763668 l 0.914001,-52.363094 M 764.324061,775.327512 l -0.912238,52.262064 M 767.432926,826.415485 l 0.910474,-52.161035 M 772.362740,773.181388 l -0.842538,48.268983 M 775.659718,813.492412 l 0.722362,-41.384086 M 780.401420,771.035264 l -0.602186,34.499189 M 783.938750,797.576494 l 0.482009,-27.614292 M 788.440099,768.889140 l -0.361833,20.729395 M 792.217782,781.660576 l 0.241657,-13.844498 M 796.478778,766.743015 l -0.121480,6.959601 M 800.496814,765.744658 l 0.001304,-0.074705"
       id="path17" />
    <path
       style="stroke:#7e7e7e"
       d="M 769.574495,703.725114 l -0.153408,8.788740 M 773.467528,709.888147 l 0.444421,-25.460880 M 778.125629,672.220496 l -0.611659,35.041943 M 781.560410,704.636731 l 0.609686,-34.928905 M 786.214565,667.195156 l -0.607713,34.815866 M 789.653293,699.385314 l 0.605740,-34.702828 M 794.303501,662.169816 l -0.603767,34.589790 M 797.746175,694.133898 l 0.601794,-34.476752 M 802.392437,657.144477 l -0.599821,34.363714 M 805.839058,688.882482 l 0.597848,-34.250676 M 810.481374,652.119137 l -0.450920,25.833216 M 814.363504,658.906804 l 0.162338,-9.300337"
       id="path19" />
  </g>
  <g
     inkscape:label="fill-868686"
     inkscape:groupmode="layer"
     id="fill-868686">
    <path
       style="stroke:#868686"
       d="M 481.746715,565.438370 l 0.000000,0.473531 M 486.746715,567.733816 l 0.000000,-1.992023 M 491.746715,566.045215 l 0.000000,3.510515 M 496.746715,571.377644 l 0.000000,-5.029007 M 501.746715,566.652060 l 0.000000,6.547498 M 506.746715,575.021473 l 0.000000,-8.065990 M 511.746715,567.258905 l 0.000000,9.584482 M 516.746715,578.665301 l 0.000000,-11.102974 M 521.746715,567.865750 l 0.000000,12.621466 M 526.746715,582.309130 l 0.000000,-14.139957 M 531.746715,568.472595 l 0.000000,15.658449 M 536.746715,585.952959 l 0.000000,-17.176941 M 541.746715,569.079440 l 0.000000,18.695433 M 546.746715,589.596787 l 0.000000,-20.213925 M 551.746715,569.686285 l 0.000000,21.732416 M 556.746715,593.240616 l 0.000000,-23.250908 M 561.746715,570.293130 l 0.000000,24.769400 M 566.746715,596.884444 l 0.000000,-26.287892 M 571.746715,570.899975 l 0.000000,27.806384 M 576.746715,600.528273 l 0.000000,-29.324875 M 581.746715,571.506820 l 0.000000,30.843367 M 586.746715,604.172102 l 0.000000,-32.361859 M 591.746715,580.293893 l 0.000000,25.700123 M 596.746715,607.815930 l 0.000000,-13.129180 M 601.746715,609.079607 l 0.000000,0.558237 M 691.746715,642.437021 l 0.000000,-0.223116 M 696.746715,642.950340 l 0.000000,1.308344 M 701.746715,646.080347 l 0.000000,-2.393573 M 706.746715,644.423208 l 0.000000,3.478802 M 711.746715,649.723673 l 0.000000,-4.564031 M 716.746715,636.730885 l 0.000000,14.814451 M 721.746715,653.366999 l 0.000000,-39.193863 M 726.746715,615.962128 l 0.000000,39.226535 M 731.746715,657.010325 l 0.000000,-39.259207 M 736.746715,619.540109 l 0.000000,39.291879 M 741.746715,660.653651 l 0.000000,-39.324552 M 746.746715,623.118091 l 0.000000,39.357224 M 751.746715,664.296978 l 0.000000,-39.389896 M 756.746715,626.696072 l 0.000000,39.422568 M 761.746715,667.940304 l 0.000000,-39.455240 M 766.746715,630.274054 l 0.000000,39.487912 M 771.746715,671.583630 l 0.000000,-39.520585 M 776.746715,633.852036 l 0.000000,39.217773 M 781.746715,669.964627 l 0.000000,-34.323600 M 786.746715,637.430017 l 0.000000,29.429428 M 791.746715,663.754263 l 0.000000,-24.535255 M 796.746715,641.007999 l 0.000000,19.641083 M 801.746715,657.543900 l 0.000000,-14.746910 M 806.746715,644.585981 l 0.000000,9.852737 M 811.746715,651.333536 l 0.000000,-4.958565 M 816.746715,648.163962 l 0.000000,0.064392"
       id="path22" />
  </g>
  <g
     inkscape:label="fill-929292"
     inkscape:groupmode="layer"
     id="fill-929292">
    <path
       style="stroke:#929292"
       d="M 511.954462,800.431367 l 0.283844,8.128225 M 517.195567,807.248433 l -0.980575,-28.080006 M 520.475521,757.905486 l 1.677307,48.031787 M 527.110089,804.626113 l -2.374039,-67.983568 M 528.996580,715.379605 l 3.070770,87.935349 M 537.024611,802.003794 l -3.767502,-107.887130 M 537.517639,672.853724 l 4.464233,127.838911 M 546.939133,799.381475 l -5.160965,-147.790692 M 546.423704,641.352995 l 5.472689,156.717320 M 556.853655,796.759156 l -5.452711,-156.145205 M 556.378184,639.874906 l 5.432732,155.573090 M 566.768177,794.136836 l -5.412753,-155.000975 M 566.368617,639.426393 l 5.356821,153.399284 M 576.682699,791.514517 l -5.245433,-150.209534 M 576.505916,643.183574 l 3.756451,107.570672 M 580.283533,751.360369 l -0.000116,-0.003322 M 581.574565,645.062164 l 3.650837,104.546302 M 585.334120,752.721714 l -0.000596,-0.017064 M 586.643215,646.940755 l 3.545224,101.521931 M 590.384707,754.083058 l -0.001076,-0.030805 M 591.711865,648.819345 l 3.439611,98.497561 M 595.435294,755.444402 l -0.001556,-0.044547 M 596.780514,650.697935 l 3.333997,95.473191 M 600.485880,756.805746 l -0.002035,-0.058288 M 601.849164,652.576526 l 1.913978,54.809172 M 605.036929,743.862195 l -0.813609,-23.298726 M 606.917813,654.455116 l 1.498148,42.901334 M 613.068779,687.327201 l -1.082317,-30.993495 M 617.055112,658.212297 l 0.666486,19.085656 M 622.177069,661.617412 l -0.053307,-1.526525"
       id="path25" />
  </g>
  <g
     inkscape:label="fill-999999"
     inkscape:groupmode="layer"
     id="fill-999999">
    <path
       style="stroke:#999999"
       d="M 495.446491,615.856865 l 0.078133,1.117348 M 500.723606,619.645190 l -0.307032,-4.390760 M 505.542644,616.882704 l 0.379945,5.433464 M 511.121571,624.987145 l -0.433362,-6.197361 M 515.833775,620.696864 l 0.486779,6.961258 M 521.519536,630.329099 l -0.540195,-7.725156 M 526.124906,624.511024 l 0.593612,8.489053 M 531.917501,635.671054 l -0.647029,-9.252950 M 536.416037,628.325183 l 0.700446,10.016847 M 542.315466,641.013008 l -0.753863,-10.780744 M 546.707168,632.139343 l 0.634747,9.077312 M 552.302618,640.480066 l -0.449884,-6.433642 M 556.998299,635.953503 l 0.265021,3.789973 M 562.224022,639.006888 l -0.080157,-1.146304"
       id="path28" />
    <path
       style="stroke:#999999"
       d="M 225.781926,558.404473 l 0.290053,4.147950 M 231.915031,574.434033 l -1.373830,-19.646680 M 235.300477,551.170233 l 1.384869,19.804544 M 241.455661,567.515520 l -1.395908,-19.962408 M 244.819029,543.935992 l 1.406946,20.120271 M 250.996290,560.597007 l -1.417985,-20.278135 M 254.337581,536.701752 l 1.429024,20.435999 M 260.536919,553.678494 l -1.440063,-20.593862 M 263.856132,529.467511 l 1.451102,20.751726 M 270.077549,546.759981 l -1.462141,-20.909590 M 273.374684,522.233271 l 1.473180,21.067454 M 279.618178,539.841468 l -1.484219,-21.225317 M 282.893235,514.999030 l 1.495258,21.383181 M 289.158808,532.922955 l -1.506297,-21.541045 M 292.411787,507.764790 l 1.517335,21.698908 M 298.699437,526.004442 l -1.528374,-21.856772 M 301.930339,500.530549 l 1.539413,22.014636 M 307.671907,510.960863 l -0.982292,-14.047433 M 307.748280,512.053053 l 0.491787,7.032876 M 313.010381,515.626672 l -0.194118,-2.776013 M 403.365738,445.887702 l 0.280407,4.010003 M 408.416469,446.438591 l -0.880381,-12.590040 M 411.931621,425.029676 l 1.255172,17.949800 M 417.957118,439.520361 l -1.504394,-21.513829 M 421.058437,412.193351 l 1.669006,23.867895 M 427.497768,432.602131 l -1.779659,-25.450316 M 430.434583,402.922609 l 1.833510,26.220408 M 437.038417,425.683902 l -1.844505,-26.377646 M 439.953242,395.689903 l 1.855500,26.534884 M 446.579066,418.765672 l -1.866495,-26.692122 M 449.471901,388.457197 l 1.877490,26.849360 M 456.119715,411.847443 l -1.888485,-27.006599 M 458.990559,381.224491 l 1.899481,27.163837 M 465.660365,404.929213 l -1.910476,-27.321075 M 468.509218,373.991785 l 1.921471,27.478313 M 475.201014,398.010983 l -1.932466,-27.635551 M 478.027877,366.759079 l 1.943461,27.792789 M 484.741663,391.092754 l -1.954456,-27.950028 M 487.546536,359.526373 l 1.965451,28.107266 M 494.282312,384.174524 l -1.976447,-28.264504 M 497.065195,352.293667 l 1.987442,28.421742 M 503.822962,377.256294 l -1.998437,-28.578980 M 506.583854,345.060961 l 2.009432,28.736218 M 513.363611,370.338065 l -2.020427,-28.893457 M 516.102513,337.828255 l 2.031422,29.050695 M 522.904260,363.419835 l -2.042418,-29.207933 M 525.621172,330.595549 l 2.053413,29.365171 M 532.444909,356.501606 l -2.064408,-29.522409 M 535.139831,323.362843 l 2.075403,29.679648 M 541.985558,349.583376 l -2.086398,-29.836886 M 544.658490,316.130137 l 2.097393,29.994124 M 551.526208,342.665146 l -2.108389,-30.151362 M 554.177149,308.897431 l 2.119384,30.308600 M 561.066857,335.746917 l -2.130379,-30.465838 M 563.695807,301.664725 l 2.141374,30.623077 M 570.607506,328.828687 l -2.152369,-30.780315 M 573.214466,294.432019 l 2.163364,30.937553 M 580.148155,321.910458 l -2.174360,-31.094791 M 582.733125,287.199313 l 2.185355,31.252029 M 589.688805,314.992228 l -2.196350,-31.409267 M 592.251784,279.966607 l 2.207345,31.566506 M 599.229454,308.073998 l -2.218340,-31.723744 M 601.770443,272.733902 l 2.229335,31.880982 M 608.770103,301.155769 l -2.240331,-32.038220 M 611.289102,265.501196 l 2.251326,32.195458 M 618.310752,294.237539 l -2.262321,-32.352696 M 620.807761,258.268490 l 2.273316,32.509935 M 627.851402,287.319309 l -1.238795,-17.715594 M 632.604878,283.619252 l 0.016848,0.240942"
       id="path30" />
  </g>
  <g
     inkscape:label="fill-9c9c9c"
     inkscape:groupmode="layer"
     id="fill-9c9c9c">
    <path
       style="stroke:#9c9c9c"
       d="M 579.074885,752.731299 l 4.341985,62.093281 M 588.531181,816.284702 l -4.469135,-63.911604 M 589.170326,753.746967 l 4.475166,63.997858 M 598.759803,819.204947 l -4.481198,-64.084112 M 599.386885,756.494704 l 4.487229,64.170366 M 608.988426,822.125192 l -4.493261,-64.256620 M 609.603445,759.242441 l 4.499292,64.342874 M 615.253497,768.364009 l -0.541772,-7.747699"
       id="path33" />
  </g>
  <g
     inkscape:label="fill-a3a3a3"
     inkscape:groupmode="layer"
     id="fill-a3a3a3">
    <path
       style="stroke:#a3a3a3"
       d="M 637.822723,665.908393 l 0.126457,1.445409 M 643.434982,672.688241 l -0.424935,-4.857032 M 648.197371,669.754026 l 0.723414,8.268654 M 654.406586,683.357120 l -1.021892,-11.680277 M 658.572018,673.599658 l 1.320370,15.091900 M 665.378191,694.025998 l -1.618849,-18.503523 M 668.946666,677.445291 l 1.917327,21.915146 M 676.349795,704.694877 l -2.215805,-25.326769 M 679.321314,681.290924 l 2.514284,28.738392 M 687.321399,715.363755 l -2.812762,-32.150015 M 689.695961,685.136556 l 3.111240,35.561638 M 698.293004,726.032634 l -3.409719,-38.973261 M 700.070609,688.982189 l 3.708197,42.384884 M 709.264608,736.701512 l -4.006675,-45.796507 M 710.445256,692.827822 l 4.305154,49.208130 M 720.236212,747.370391 l -4.603632,-52.619753 M 720.819904,696.673454 l 4.902110,56.031376 M 731.207816,758.039269 l -5.200589,-59.442999 M 731.194552,700.519087 l 5.499067,62.854622 M 742.179421,768.708148 l -5.667772,-64.782934 M 741.993175,709.210788 l 5.672047,64.831799 M 753.058875,778.323749 l -5.584173,-63.827387 M 752.956229,719.781936 l 5.007245,57.233073 M 762.868074,775.706269 l -4.430317,-50.638759 M 763.919283,730.353084 l 3.853390,44.044445 M 772.677272,773.088788 l -3.276462,-37.450130 M 774.882337,740.924232 l 2.699534,30.855816 M 782.486471,770.471308 l -2.122606,-24.261502 M 785.845391,751.495380 l 1.545679,17.667188 M 792.295669,767.853827 l -0.968751,-11.072874 M 796.808445,762.066528 l 0.391823,4.478559"
       id="path36" />
  </g>
  <g
     inkscape:label="fill-a4a4a4"
     inkscape:groupmode="layer"
     id="fill-a4a4a4">
    <path
       style="stroke:#a4a4a4"
       d="M 886.125284,554.096056 l 2.939372,33.597179 M 893.859639,585.131571 l -2.899877,-33.145742 M 895.794241,549.875603 l 2.860381,32.694304 M 903.449604,580.008242 l -2.820885,-32.242866 M 905.463197,545.655150 l 2.781390,31.791428 M 913.039569,574.884913 l -2.741894,-31.339990 M 915.132154,541.434697 l 2.702398,30.888552 M 922.629534,569.761585 l -2.662902,-30.437114 M 924.801110,537.214244 l 2.623407,29.985676 M 931.466181,556.027790 l -1.830593,-20.923773"
       id="path39" />
  </g>
  <g
     inkscape:label="fill-a5a5a5"
     inkscape:groupmode="layer"
     id="fill-a5a5a5">
    <path
       style="stroke:#a5a5a5"
       d="M 612.367642,612.865114 l 1.561600,17.849168 M 619.014030,631.465109 l -3.178203,-36.327032 M 620.669877,593.022961 l 3.428941,39.192976 M 629.183606,632.966765 l -3.432737,-39.236365 M 630.831861,594.437840 l 3.436533,39.279753 M 639.353182,634.468421 l -3.440329,-39.323142 M 640.993845,595.852719 l 3.444125,39.366530 M 649.522758,635.970077 l -3.447921,-39.409919 M 651.155829,597.267597 l 3.451717,39.453307 M 659.692335,637.471732 l -3.455513,-39.496696 M 661.317814,598.682476 l 3.459309,39.540084 M 669.861911,638.973388 l -3.463105,-39.583473 M 671.479798,600.097355 l 3.466901,39.626861 M 680.031487,640.475044 l -3.470697,-39.670250 M 681.641782,601.512233 l 3.474493,39.713639 M 690.201063,641.976700 l -3.478289,-39.757027 M 691.803766,602.927112 l 3.482085,39.800416 M 700.370640,643.478356 l -3.485881,-39.843804 M 701.965751,604.341991 l 3.489677,39.887193 M 710.540216,644.980011 l -3.493473,-39.930581 M 712.127735,605.756869 l 3.277616,37.463318 M 718.933525,626.178844 l -1.724798,-19.714535 M 722.289719,607.171748 l 0.171981,1.965751"
       id="path42" />
  </g>
  <g
     inkscape:label="fill-a6a6a6"
     inkscape:groupmode="layer"
     id="fill-a6a6a6">
    <path
       style="stroke:#a6a6a6"
       d="M 465.241536,771.972435 l 1.048170,9.972668 M 471.666464,785.267675 l -3.232024,-30.750650 M 471.627344,737.061615 l 5.415878,51.528633 M 482.419980,791.912821 l -7.599732,-72.306616 M 478.013152,702.150795 l 9.783586,93.084599 M 493.173495,798.557966 l -11.967440,-113.862581 M 484.398960,667.239975 l 14.151294,134.640564 M 503.927011,805.203111 l -16.335147,-155.418547 M 490.784767,632.329155 l 18.519001,176.196529 M 512.955492,795.435645 l -18.832526,-179.179515 M 499.438147,618.992837 l 16.814828,159.982406 M 519.550459,762.514841 l -14.797131,-140.785297 M 510.068509,624.466252 l 12.779433,121.588187 M 526.145426,729.594038 l -10.761736,-102.391078 M 520.698871,629.939668 l 8.744038,83.193969 M 532.740393,696.673235 l -6.726341,-63.996860 M 531.329233,635.413083 l 4.708644,44.799751 M 539.335360,663.752432 l -2.690946,-25.602641 M 541.959594,640.886498 l 0.673249,6.405532"
       id="path45" />
  </g>
  <g
     inkscape:label="fill-a9a9a9"
     inkscape:groupmode="layer"
     id="fill-a9a9a9">
    <path
       style="stroke:#a9a9a9"
       d="M 582.209343,750.304547 l 0.169469,1.612390 M 587.551553,753.298421 l -0.433805,-4.127376 M 592.026154,748.037544 l 0.698140,6.642361 M 597.897036,756.061390 l -0.962476,-9.157347 M 601.842965,745.770541 l 1.226812,11.672333 M 608.242518,758.824358 l -1.491147,-14.187319 M 611.659776,743.503537 l 1.755483,16.702304 M 618.399809,759.796804 l -1.831627,-17.426768 M 621.476587,741.236534 l 1.807036,17.192801 M 628.167438,757.061867 l -1.384370,-13.171405 M 632.424307,749.729409 l 0.626946,5.964991"
       id="path48" />
  </g>
  <g
     inkscape:label="fill-acacac"
     inkscape:groupmode="layer"
     id="fill-acacac">
    <path
       style="stroke:#acacac"
       d="M 307.839393,505.559112 l 0.697700,6.638170 M 314.645385,512.913166 l -2.916073,-27.744581 M 316.377334,471.990924 l 4.262878,40.558575 M 326.526213,511.150432 l -5.543265,-52.740648 M 325.178814,440.930150 l 7.162992,68.151318 M 338.088853,506.360332 l -9.954605,-94.711737 M 332.570993,396.460767 l 11.235293,106.896676 M 349.501433,500.142507 l -10.888101,-103.593362 M 344.673817,396.810181 l 10.530128,100.187475 M 356.587232,510.158749 l -0.580047,-5.518777 M 350.737168,397.098481 l 10.245198,97.476552 M 362.841272,512.261337 l -1.522198,-14.482751 M 356.812194,397.497857 l 12.287100,116.903948 M 375.338755,516.365673 l -12.451535,-118.468440 M 368.962246,398.296609 l 12.573401,119.627918 M 387.722815,519.390870 l -12.685544,-120.694885 M 381.115594,399.126728 l 12.751884,121.326068 M 400.012140,521.514722 l -12.803491,-121.817077 M 393.301705,400.268561 l 12.822347,121.996480 M 403.915141,443.848027 l -4.520381,-43.008549 M 404.783896,452.113678 l 7.442693,70.812494 M 408.630238,431.308546 l -3.142422,-29.898153 M 410.490893,449.011492 l 7.838234,74.575811 M 413.707712,422.216849 l -2.119827,-20.168805 M 416.197890,445.909306 l 8.207437,78.088545 M 418.967534,414.860075 l -1.259402,-11.982405 M 421.904886,442.807120 l 8.568191,81.520893 M 424.347919,408.650391 l -0.495271,-4.712185 M 427.611883,439.704934 l 8.928945,84.953242 M 442.608580,524.988338 l -9.289700,-88.385590 M 438.969890,432.967883 l 9.680584,92.104603 M 454.690022,525.134319 l -10.110672,-96.196618 M 450.188811,424.907520 l 10.540760,100.288633 M 466.769120,525.257986 l -10.970848,-104.380648 M 463.428674,436.075139 l 9.054683,86.149550"
       id="path51" />
  </g>
  <g
     inkscape:label="fill-aeaeae"
     inkscape:groupmode="layer"
     id="fill-aeaeae">
    <path
       style="stroke:#aeaeae"
       d="M 601.255687,712.791366 l 0.661221,5.385211 M 608.840848,725.334495 l -2.804942,-22.844415 M 610.816127,692.188794 l 4.948662,40.303620 M 622.688730,739.650332 l -7.092383,-57.762825 M 620.376567,671.586222 l 9.236104,75.222029 M 636.536612,753.966170 l -11.379825,-92.681234 M 631.481491,663.562458 l 11.979062,97.561630 M 650.384493,768.282007 l -12.382193,-100.844873 M 644.867492,674.116582 l 12.440942,101.323344 M 664.232375,782.597844 l -12.499691,-101.801815 M 658.597876,687.475477 l 12.558440,102.280286 M 678.080257,796.913681 l -12.617189,-102.758757 M 672.328260,700.834371 l 12.675938,103.237228 M 691.928138,811.229518 l -12.734687,-103.715699 M 686.058644,714.193266 l 12.793435,104.194170 M 705.776020,825.545355 l -12.852184,-104.672642 M 699.789028,727.552161 l 12.910933,105.151113 M 719.623902,839.861192 l -12.969682,-105.629584 M 713.519412,740.911056 l 11.110462,90.487451 M 729.525680,822.038598 l -9.141077,-74.448094 M 727.249796,754.269951 l 7.171691,58.408738 M 739.317293,803.318779 l -5.202306,-42.369381 M 740.980180,767.628846 l 3.232920,26.330024 M 749.108907,784.598961 l -1.263535,-10.290668"
       id="path54" />
  </g>
  <g
     inkscape:label="fill-b3b3b3"
     inkscape:groupmode="layer"
     id="fill-b3b3b3">
    <path
       style="stroke:#b3b3b3"
       d="M 232.155672,574.259101 l 0.111345,0.792264 M 238.142296,573.744365 l -0.488231,-3.473942 M 243.152459,566.281745 l 0.865116,6.155620 M 249.601065,569.054182 l -0.950213,-6.761116 M 254.149245,558.304388 l 0.955354,6.797696 M 260.608134,561.149985 l -0.960495,-6.834276 M 265.146032,550.327031 l 0.965636,6.870856 M 271.615202,553.245788 l -0.970777,-6.907436 M 276.142818,542.349674 l 0.975918,6.944016 M 282.622270,545.341591 l -0.981059,-6.980596 M 287.139605,534.372317 l 0.986200,7.017176 M 293.629339,537.437394 l -0.991341,-7.053755 M 298.136391,526.394960 l 0.996482,7.090335 M 304.636407,529.533197 l -1.001623,-7.126915 M 309.133178,518.417603 l 1.006764,7.163495 M 315.643476,521.629000 l -1.011905,-7.200075 M 320.423673,512.530091 l 0.723337,5.146810 M 326.650544,513.724803 l -0.350901,-2.496789 M 332.070451,509.177664 l 0.083627,0.595040 M 402.956764,453.106863 l -0.346667,-2.466663 M 408.108533,446.651825 l 0.477175,3.395280 M 414.214653,446.987346 l -0.607684,-4.323896 M 419.105405,438.675074 l 0.738193,5.252513 M 425.472542,440.867829 l -0.868701,-6.181130 M 430.102277,430.698323 l 0.999210,7.109747 M 436.708543,434.592574 l -1.107831,-7.882626 M 441.099148,422.721572 l 1.112677,7.917105 M 447.715106,426.684781 l -1.117522,-7.951584 M 452.096020,414.744822 l 1.122368,7.986064 M 458.732628,418.854961 l -1.138172,-8.098515 M 463.092891,406.768071 l 1.143256,8.134687 M 469.739667,410.950554 l -1.148339,-8.170859 M 474.089763,398.791320 l 1.153423,8.207031 M 480.746706,403.046147 l -1.158507,-8.243203 M 485.086635,390.814569 l 1.163590,8.279375 M 491.753744,395.141740 l -1.168674,-8.315547 M 496.083506,382.837818 l 1.173758,8.351719 M 502.760783,387.237333 l -1.178841,-8.387891 M 507.080378,374.861067 l 1.183925,8.424062 M 513.767822,379.332926 l -1.189008,-8.460234 M 518.077250,366.884317 l 1.194092,8.496406 M 524.774861,371.428519 l -1.199176,-8.532578 M 529.074121,358.907566 l 1.204259,8.568750 M 535.781900,363.524112 l -1.209343,-8.604922 M 540.070993,350.930815 l 1.214427,8.641094 M 546.788939,355.619705 l -1.219510,-8.677266 M 551.067865,342.954064 l 1.224594,8.713438 M 557.795978,347.715298 l -1.229677,-8.749610 M 562.064736,334.977313 l 1.234761,8.785782 M 568.803017,339.810891 l -1.239845,-8.821954 M 573.061608,327.000562 l 1.244928,8.858126 M 579.810056,331.906484 l -1.250012,-8.894297 M 584.058480,319.023812 l 1.255096,8.930469 M 590.817095,324.002077 l -1.260179,-8.966641 M 595.055351,311.047061 l 1.265263,9.002813 M 601.824134,316.097670 l -1.270347,-9.038985 M 606.052223,303.070310 l 1.275430,9.075157 M 612.831173,308.193263 l -1.280514,-9.111329 M 617.049095,295.093559 l 1.285597,9.147501 M 623.838211,300.288856 l -1.290681,-9.183673 M 628.045966,287.116808 l 1.295765,9.219845 M 634.845250,292.384450 l -1.243988,-8.851434 M 639.464551,282.140700 l 0.884219,6.291546 M 645.852289,284.480043 l -0.524450,-3.731657 M 651.191127,279.356071 l 0.164681,1.171768"
       id="path57" />
  </g>
  <g
     inkscape:label="fill-bbbbbb"
     inkscape:groupmode="layer"
     id="fill-bbbbbb">
    <path
       style="stroke:#bbbbbb"
       d="M 416.922699,572.973859 l 1.861883,11.755469 M 425.238256,587.121505 l -4.016420,-25.358679 M 427.355688,562.135724 l 4.336243,27.377959 M 438.145605,591.905860 l -4.656065,-29.397238 M 439.623392,562.881519 l 4.975888,31.416518 M 451.052954,596.690214 l -5.295710,-33.435797 M 451.891096,563.627315 l 5.615532,35.455077 M 463.960303,601.474569 l -5.935355,-37.474356 M 464.158800,564.373110 l 6.255177,39.493636 M 476.867652,606.258923 l -6.575000,-41.512915 M 476.426504,565.118906 l 6.894822,43.532195 M 489.775001,611.043278 l -7.090271,-44.766211 M 489.131837,568.627781 l 7.096838,44.807674 M 502.682349,615.827632 l -7.103405,-44.849137 M 502.026051,573.329210 l 7.109972,44.890599 M 515.589698,620.611987 l -7.116539,-44.932062 M 514.920266,578.030639 l 7.123107,44.973525 M 528.497047,625.396341 l -7.129674,-45.014987 M 527.814481,582.732068 l 7.136241,45.056450 M 541.404396,630.180696 l -7.142808,-45.097913 M 540.708695,587.433497 l 7.149375,45.139375 M 554.311745,634.965050 l -7.155942,-45.180838 M 553.602910,592.134926 l 7.162509,45.222301 M 567.219093,639.749405 l -7.169076,-45.263764 M 566.497125,596.836356 l 7.175643,45.305226 M 580.126442,644.533759 l -7.182210,-45.346689 M 579.391340,601.537785 l 7.188777,45.388152 M 593.033791,649.318113 l -7.195344,-45.429614 M 592.285554,606.239214 l 7.201911,45.471077 M 605.941140,654.102468 l -7.208478,-45.512540 M 607.501978,625.602494 l 4.892836,30.892151 M 618.848489,658.886822 l -4.449626,-28.093833 M 620.619204,631.711958 l 4.682959,29.567042 M 631.755837,663.671177 l -4.916293,-31.040251 M 633.059886,633.549894 l 5.149626,32.513460 M 644.663186,668.455531 l -5.382959,-33.986669 M 645.500568,635.387831 l 5.616293,35.459878 M 657.570535,673.239886 l -5.849626,-36.933087 M 657.941250,637.225767 l 6.082960,38.406296 M 670.477884,678.024240 l -6.316293,-39.879505 M 670.381932,639.063704 l 6.549626,41.352713 M 683.385233,682.808595 l -6.782960,-42.825922 M 682.822614,640.901640 l 7.016293,44.299131 M 696.292582,687.592949 l -7.249627,-45.772340 M 695.437874,643.841818 l 7.308382,46.143308 M 709.199930,692.377304 l -7.315222,-46.186493 M 708.331543,648.539802 l 7.322062,46.229679 M 722.107279,697.161658 l -7.328902,-46.272864 M 721.225212,653.237786 l 7.335741,46.316049 M 735.014628,701.946013 l -7.342581,-46.359234 M 734.118881,657.935771 l 7.349421,46.402419 M 747.921977,706.730367 l -7.356261,-46.445604 M 747.012550,662.633755 l 7.363101,46.488790 M 760.829326,711.514721 l -7.369941,-46.531975 M 759.906219,667.331739 l 7.375997,46.570214 M 770.847127,698.055193 l -4.494073,-28.374462 M 772.799888,672.029723 l 1.612149,10.178710"
       id="path60" />
  </g>
  <g
     inkscape:label="fill-cdcdcd"
     inkscape:groupmode="layer"
     id="fill-cdcdcd">
    <path
       style="stroke:#cdcdcd"
       d="M 302.180113,523.056453 l 0.163663,0.769974 M 308.547608,524.154758 l -0.550454,-2.589684 M 313.814195,520.073693 l 0.937246,4.409395 M 320.955273,524.811420 l -1.324037,-6.229106 M 325.448277,517.090934 l 1.710829,8.048817 M 333.362938,525.468082 l -2.097620,-9.868527 M 337.082359,514.108174 l 2.484412,11.688238 M 345.770603,526.124744 l -2.871203,-13.507949 M 348.716441,511.125415 l 3.257995,15.327660 M 358.178268,526.781406 l -3.644786,-17.147371 M 361.111301,511.721835 l 3.270800,15.387902 M 370.585933,527.438068 l -2.858483,-13.448106 M 374.294815,516.028582 l 2.494950,11.737816 M 382.993598,528.094730 l -2.197620,-10.338991 M 387.259105,519.303960 l 1.938325,9.119101 M 395.401263,528.751392 l -1.770319,-8.328696 M 399.992945,521.495153 l 1.612150,7.584570 M 407.808928,529.408054 l -1.510397,-7.105859 M 412.573606,522.965695 l 1.439155,6.770690 M 420.216593,530.064716 l -1.367912,-6.435521 M 425.071768,524.048115 l 1.348657,6.344932 M 432.624258,530.721378 l -1.348394,-6.343695 M 437.479959,524.707250 l 1.348131,6.342458 M 445.031923,531.378040 l -1.349001,-6.346551 M 449.829888,525.092288 l 1.405867,6.614083 M 457.439587,532.034702 l -1.462732,-6.881614 M 462.123822,525.213887 l 1.519598,7.149145 M 469.847252,532.691364 l -1.576463,-7.416677 M 472.939487,518.380776 l 3.111598,14.638919 M 482.254917,533.348026 l -4.442666,-20.901100 M 484.009181,512.742782 l 4.449569,20.933574 M 494.662582,534.004688 l -4.456471,-20.966048 M 496.403041,513.334496 l 4.463374,20.998523 M 507.070247,534.661350 l -4.470276,-21.030997 M 508.796901,513.926209 l 4.477179,21.063471 M 519.477912,535.318012 l -4.484082,-21.095946 M 521.190760,514.517923 l 4.490984,21.128420 M 531.885577,535.974674 l -4.497887,-21.160894 M 533.584620,515.109636 l 4.504790,21.193369 M 544.293242,536.631336 l -4.511692,-21.225843 M 545.978480,515.701349 l 4.518595,21.258317 M 556.700907,537.287998 l -4.525497,-21.290791 M 558.372340,516.293063 l 4.532400,21.323266 M 569.108572,537.944660 l -4.539303,-21.355740 M 570.766199,516.884776 l 4.546205,21.388214 M 581.516237,538.601322 l -4.553108,-21.420689 M 583.160059,517.476490 l 4.560011,21.453163 M 593.923902,539.257984 l -4.566913,-21.485637 M 595.553919,518.068203 l 4.573816,21.518112 M 606.331567,539.914646 l -4.580718,-21.550586 M 607.947778,518.659916 l 4.587621,21.583060 M 618.739232,540.571308 l -4.594524,-21.615534 M 620.341638,519.251630 l 4.601426,21.648009 M 631.146897,541.227970 l -4.608329,-21.680483 M 632.735498,519.843343 l 4.615232,21.712957 M 643.554562,541.884632 l -4.622134,-21.745432 M 645.129357,520.435057 l 4.629037,21.777906 M 655.962227,542.541294 l -4.635939,-21.810380 M 657.523217,521.026770 l 4.642842,21.842855 M 668.369892,543.197956 l -4.649745,-21.875329 M 669.917077,521.618483 l 4.656647,21.907803 M 680.777557,543.854618 l -4.663550,-21.940278 M 682.310937,522.210197 l 4.670453,21.972752 M 693.185222,544.511280 l -4.677355,-22.005226 M 694.704796,522.801910 l 4.684258,22.037700 M 705.592887,545.167942 l -4.691160,-22.070175 M 707.098656,523.393624 l 4.698063,22.102649 M 718.000552,545.824604 l -4.704966,-22.135123 M 719.492516,523.985337 l 4.711868,22.167598 M 730.408217,546.481266 l -4.718771,-22.200072 M 731.886375,524.577050 l 4.725674,22.232546 M 742.815881,547.137928 l -4.732576,-22.265021 M 744.280235,525.168764 l 4.739479,22.297495 M 755.223546,547.794590 l -4.746381,-22.329969 M 756.674095,525.760477 l 4.753284,22.362443 M 767.631211,548.451252 l -4.760187,-22.394918 M 769.067955,526.352191 l 4.767089,22.427392 M 780.038876,549.107914 l -4.773992,-22.459866 M 781.461814,526.943904 l 4.780895,22.492341 M 792.446541,549.764576 l -4.787797,-22.524815 M 793.855674,527.535617 l 4.794700,22.557289 M 804.854206,550.421238 l -4.801602,-22.589764 M 806.249534,528.127331 l 4.808505,22.622238 M 817.261871,551.077900 l -4.815408,-22.654712 M 818.643393,528.719044 l 4.822310,22.687186 M 829.669536,551.734562 l -4.829213,-22.719661 M 831.037253,529.310758 l 4.836116,22.752135 M 842.077201,552.391224 l -4.843018,-22.784609 M 843.431113,529.902471 l 4.849921,22.817084 M 854.484866,553.047886 l -4.856823,-22.849558 M 855.824972,530.494184 l 4.863726,22.882032 M 866.892531,553.704548 l -4.870629,-22.914507 M 868.218832,531.085898 l 4.877531,22.946981 M 879.300196,554.361210 l -4.884434,-22.979455 M 880.612692,531.677611 l 4.831417,22.730032 M 891.056985,551.955742 l -4.247363,-19.982274 M 893.006552,532.269325 l 3.663309,17.234516 M 902.282737,547.051939 l -3.079256,-14.486758 M 905.400411,532.861038 l 2.495202,11.739000 M 913.508489,542.148137 l -1.911148,-8.991242 M 917.794271,533.452751 l 1.327094,6.243484 M 924.734240,537.244334 l -0.743040,-3.495726 M 930.188131,534.044465 l 0.158986,0.747969"
       id="path63" />
  </g>
  <g
     inkscape:label="fill-d4d4d4"
     inkscape:groupmode="layer"
     id="fill-d4d4d4">
    <path
       style="stroke:#d4d4d4"
       d="M 299.134029,546.049089 l 1.945333,8.426163 M 307.324719,554.854400 l -7.190893,-31.147180 M 306.367944,524.037683 l 7.202133,31.195865 M 319.815435,555.612697 l -7.213373,-31.244551 M 318.836181,524.698610 l 7.224613,31.293236 M 332.306151,556.370994 l -7.235853,-31.341921 M 331.304417,525.359536 l 7.247092,31.390606 M 344.796867,557.129290 l -7.258332,-31.439291 M 343.772653,526.020462 l 7.269572,31.487976 M 357.287583,557.887587 l -7.280812,-31.536662 M 356.240889,526.681389 l 7.292052,31.585347 M 369.778299,558.645884 l -7.303292,-31.634032 M 368.709125,527.342315 l 7.314532,31.682717 M 382.269015,559.404180 l -7.325771,-31.731402 M 381.177361,528.003241 l 7.337011,31.780087 M 394.759731,560.162477 l -7.348251,-31.828772 M 393.645597,528.664168 l 7.359491,31.877458 M 407.250446,560.920773 l -7.370731,-31.926143 M 406.113834,529.325094 l 7.381971,31.974828 M 419.741162,561.679070 l -7.393211,-32.023513 M 418.582070,529.986020 l 7.404450,32.072198 M 432.231878,562.437367 l -7.415690,-32.120883 M 431.050306,530.646947 l 7.426930,32.169568 M 444.722594,563.195663 l -7.438170,-32.218254 M 443.518542,531.307873 l 7.449410,32.266939 M 457.213310,563.953960 l -7.460650,-32.315624 M 455.986778,531.968799 l 7.471889,32.364309 M 469.704026,564.712257 l -7.483129,-32.412994 M 468.455014,532.629726 l 7.494369,32.461679 M 482.194742,565.470553 l -7.505609,-32.510365 M 480.923251,533.290652 l 7.516849,32.559050 M 494.685457,566.228850 l -7.528089,-32.607735 M 493.391487,533.951578 l 7.539329,32.656420 M 507.176173,566.987146 l -7.550568,-32.705105 M 505.859723,534.612505 l 7.561808,32.753790 M 519.666889,567.745443 l -7.573048,-32.802475 M 518.327959,535.273431 l 7.584288,32.851161 M 532.157605,568.503740 l -7.595528,-32.899846 M 530.796195,535.934357 l 7.606768,32.948531 M 544.648321,569.262036 l -7.618008,-32.997216 M 543.264431,536.595284 l 7.629247,33.045901 M 557.139037,570.020333 l -7.640487,-33.094586 M 555.732668,537.256210 l 7.651727,33.143271 M 569.629753,570.778630 l -7.662967,-33.191957 M 568.200904,537.917136 l 7.674207,33.240642 M 582.120468,571.536926 l -7.685447,-33.289327 M 580.669140,538.578063 l 7.696687,33.338012 M 594.611184,572.295223 l -7.707926,-33.386697 M 593.137376,539.238989 l 7.719166,33.435382 M 607.101900,573.053520 l -7.730406,-33.484068 M 605.605612,539.899915 l 7.741646,33.532753 M 619.592616,573.811816 l -7.752886,-33.581438 M 618.073848,540.560842 l 7.764126,33.630123 M 632.083332,574.570113 l -7.775366,-33.678808 M 630.542085,541.221768 l 7.786605,33.727493 M 644.574048,575.328409 l -7.797845,-33.776178 M 643.010321,541.882694 l 7.809085,33.824864 M 657.064764,576.086706 l -7.820325,-33.873549 M 655.478557,542.543620 l 7.831565,33.922234 M 669.555480,576.845003 l -7.842805,-33.970919 M 667.946793,543.204547 l 7.854044,34.019604 M 682.046195,577.603299 l -7.865284,-34.068289 M 680.415029,543.865473 l 7.876524,34.116974 M 694.536911,578.361596 l -7.887764,-34.165660 M 692.883265,544.526399 l 7.899004,34.214345 M 707.027627,579.119893 l -7.910244,-34.263030 M 705.351501,545.187326 l 7.921484,34.311715 M 719.518343,579.878189 l -7.932723,-34.360400 M 717.819738,545.848252 l 7.943963,34.409085 M 732.009059,580.636486 l -7.955203,-34.457771 M 730.287974,546.509178 l 7.966443,34.506456 M 744.499775,581.394782 l -7.977683,-34.555141 M 742.756210,547.170105 l 7.988923,34.603826 M 756.990491,582.153079 l -8.000163,-34.652511 M 755.224446,547.831031 l 8.011402,34.701196 M 769.481206,582.911376 l -8.022642,-34.749881 M 767.692682,548.491957 l 8.033882,34.798567 M 781.971922,583.669672 l -8.045122,-34.847252 M 780.160918,549.152884 l 8.056362,34.895937 M 794.462638,584.427969 l -8.067602,-34.944622 M 792.629155,549.813810 l 8.078842,34.993307 M 806.953354,585.186266 l -8.090081,-35.041992 M 805.097391,550.474736 l 8.101321,35.090677 M 819.444070,585.944562 l -8.112561,-35.139363 M 817.565627,551.135663 l 8.123801,35.188048 M 831.934786,586.702859 l -8.135041,-35.236733 M 830.033863,551.796589 l 8.146281,35.285418 M 844.425502,587.461156 l -8.157520,-35.334103 M 842.502099,552.457515 l 8.168760,35.382788 M 856.916218,588.219452 l -8.180000,-35.431473 M 854.970335,553.118442 l 8.191240,35.480159 M 869.406933,588.977749 l -8.202480,-35.528844 M 867.438572,553.779368 l 8.213720,35.577529 M 881.897649,589.736045 l -8.224960,-35.626214 M 879.906808,554.440294 l 4.974558,21.547176"
       id="path66" />
  </g>
</svg>
