<?xml version="1.0" encoding="UTF-8" standalone="no"?>
<!-- Created with Inkscape (http://www.inkscape.org/) -->

<svg
   xmlns:dc="http://purl.org/dc/elements/1.1/"
   xmlns:cc="http://creativecommons.org/ns#"
   xmlns:rdf="http://www.w3.org/1999/02/22-rdf-syntax-ns#"
   xmlns:svg="http://www.w3.org/2000/svg"
   xmlns="http://www.w3.org/2000/svg"
   xmlns:sodipodi="http://sodipodi.sourceforge.net/DTD/sodipodi-0.dtd"
   xmlns:inkscape="http://www.inkscape.org/namespaces/inkscape"
   id="svg2"
   version="1.1"
   inkscape:version="0.48.3.1 r9886"
   width="1000"
   height="935"
   sodipodi:docname="hantologie-_0007_mort_hatched_1398277163.svg">
  <defs
     id="defs27" />
  <sodipodi:namedview
     pagecolor="#ffffff"
     bordercolor="#666666"
     borderopacity="1"
     objecttolerance="10"
     gridtolerance="10"
     guidetolerance="10"
     inkscape:pageopacity="0"
     inkscape:pageshadow="2"
     inkscape:window-width="640"
     inkscape:window-height="480"
     id="namedview25" />
  <metadata
     id="metadata8">
    <rdf:RDF>
      <cc:Work
         rdf:about="">
        <dc:format>image/svg+xml </dc:format>
        <dc:type
           rdf:resource="http://purl.org/dc/dcmitype/StillImage" />
        <dc:title />
      </cc:Work>
    </rdf:RDF>
  </metadata>
  <g
     inkscape:label="fill-0c0c0c"
     inkscape:groupmode="layer"
     id="fill-0c0c0c">
    <path
       style="stroke:#0c0c0c"
       d="M 77.999720,580.021565 l 0.000000,7.319830 M 82.999720,591.952333 l 0.000000,-7.116277 M 87.999720,594.670127 l 0.000000,6.260089 M 92.999720,602.580514 l 0.000000,-2.217296 M 107.999720,625.052073 l 0.000000,6.179601 M 112.999720,626.388635 l 0.000000,-4.008612 M 132.999720,674.329123 l 0.000000,1.670877 M 162.999720,721.423078 l 0.000000,-4.240118 M 167.999720,717.427367 l 0.000000,5.287786 M 172.999720,723.539306 l 0.000000,-5.347640 M 177.999720,719.465594 l 0.000000,4.897865 M 182.999720,725.026110 l 0.000000,-4.181976 M 187.999720,721.874985 l 0.000000,3.696583 M 192.999720,726.117027 l 0.000000,-3.242539 M 197.999720,723.656577 l 0.000000,2.830805 M 202.999720,726.735581 l 0.000000,-2.318013 M 207.999720,724.860529 l 0.000000,2.123252 M 212.999720,727.200092 l 0.000000,-2.044293 M 217.999720,725.463805 l 0.000000,1.949100 M 222.999720,727.856144 l 0.000000,-1.901259 M 227.999720,726.238237 l 0.000000,2.104529 M 232.999720,728.830748 l 0.000000,-2.701290 M 237.999720,725.828504 l 0.000000,3.411249 M 242.999720,729.491894 l 0.000000,-4.049985 M 247.999720,725.055315 l 0.000000,4.596555 M 252.999720,729.720385 l 0.000000,-5.051665 M 257.999720,724.282126 l 0.000000,5.506775 M 262.999720,729.857416 l 0.000000,-5.945085 M 267.999720,723.567744 l 0.000000,6.358188 M 272.999720,729.991698 l 0.000000,-6.988413 M 277.999720,649.095542 l 0.000000,2.362292 M 277.999720,730.032696 l 0.000000,-7.958216 M 282.999720,720.627426 l 0.000000,9.446269 M 287.999720,647.884839 l 0.000000,-6.461750 M 287.999720,719.065761 l 0.000000,11.048933 M 292.999720,643.269006 l 0.000000,-2.669821 M 292.999720,718.103841 l 0.000000,12.051852 M 297.999720,730.218549 l 0.000000,-12.541081 M 302.999720,717.505059 l 0.000000,12.816554 M 307.999720,677.993595 l 0.000000,-12.633444 M 307.999720,717.259313 l 0.000000,13.165364 M 312.999720,730.527740 l 0.000000,-13.532326 M 317.999720,716.403639 l 0.000000,14.227164 M 322.999720,661.738182 l 0.000000,-8.540878 M 322.999720,715.703122 l 0.000000,15.030745 M 327.999720,730.902058 l 0.000000,-15.674448 M 332.999720,665.000222 l 0.000000,4.603529 M 332.999720,731.073145 l 0.000000,-15.941708 M 337.999720,645.991491 l 0.000000,2.847975 M 337.999720,681.198556 l 0.000000,-4.368796 M 337.999720,714.922042 l 0.000000,16.322190 M 342.999720,646.152355 l 0.000000,-3.804465 M 342.999720,655.109857 l 0.000000,1.179772 M 342.999720,684.096252 l 0.000000,-7.015733 M 342.999720,714.553798 l 0.000000,16.861522 M 347.999720,656.725721 l 0.000000,-4.660273 M 347.999720,666.093006 l 0.000000,3.088065 M 347.999720,688.496167 l 0.000000,-9.947176 M 347.999720,713.985464 l 0.000000,17.600943 M 352.999720,653.691399 l 0.000000,-5.659374 M 352.999720,663.304044 l 0.000000,7.055148 M 352.999720,696.010039 l 0.000000,-16.304347 M 352.999720,712.919034 l 0.000000,18.838460 M 357.999720,651.122918 l 0.000000,-5.125111 M 357.999720,663.096318 l 0.000000,8.867945 M 357.999720,700.510496 l 0.000000,-19.716006 M 357.999720,712.056290 l 0.000000,19.872291 M 362.999720,675.343671 l 0.000000,-10.819423 M 362.999720,681.851903 l 0.000000,22.689271 M 362.999720,732.099668 l 0.000000,-19.034524 M 367.999720,662.303201 l 0.000000,12.358603 M 367.999720,691.527183 l 0.000000,-8.629000 M 367.999720,699.578614 l 0.000000,5.919911 M 367.999720,732.270755 l 0.000000,-16.884332 M 372.999720,659.809037 l 0.000000,13.503316 M 372.999720,688.444320 l 0.000000,-4.280254 M 372.999720,715.593897 l 0.000000,16.847945 M 377.999720,676.011329 l 0.000000,-12.792274 M 377.999720,712.646561 l 0.000000,19.966368 M 382.999720,667.715347 l 0.000000,-9.774907 M 382.999720,682.430412 l 0.000000,30.360065 M 387.999720,679.260802 l 0.000000,-8.021880 M 387.999720,702.073759 l 0.000000,1.859373 M 387.999720,732.955103 l 0.000000,-19.915360 M 392.999720,713.248334 l 0.000000,19.817699 M 397.999720,733.161919 l 0.000000,-20.002063 M 402.999720,712.634301 l 0.000000,20.623503 M 407.999720,733.353689 l 0.000000,-22.363661 M 412.999720,703.119975 l 0.000000,2.375908 M 412.999720,733.432125 l 0.000000,-24.174944 M 417.999720,709.389999 l 0.000000,24.035897 M 422.999720,733.419665 l 0.000000,-24.727688 M 427.999720,707.602825 l 0.000000,25.810610 M 432.999720,733.407206 l 0.000000,-27.236922 M 437.999720,704.482683 l 0.000000,28.918293 M 442.999720,733.394747 l 0.000000,-30.846628 M 447.999720,699.786529 l 0.000000,33.587816 M 452.999720,733.315859 l 0.000000,-35.089099 M 457.999720,698.124193 l 0.000000,5.993359 M 457.999720,733.257373 l 0.000000,-26.535426 M 462.999720,703.132454 l 0.000000,30.066433 M 467.999720,655.237204 l 0.000000,-3.986140 M 467.999720,706.910871 l 0.000000,26.229531 M 472.999720,733.081915 l 0.000000,-24.841538 M 477.999720,709.879688 l 0.000000,23.143742 M 482.999720,732.964943 l 0.000000,-21.765363 M 487.999720,711.829594 l 0.000000,21.076864 M 492.999720,732.834591 l 0.000000,-20.573230 M 497.999720,712.666977 l 0.000000,20.074454 M 502.999720,655.713525 l 0.000000,-1.760289 M 502.999720,713.315180 l 0.000000,19.333090 M 507.999720,732.555110 l 0.000000,-18.591727 M 512.999720,714.662771 l 0.000000,17.799178 M 517.999720,732.368789 l 0.000000,-16.993829 M 522.999720,655.544258 l 0.000000,1.528166 M 522.999720,732.275629 l 0.000000,-16.188479 M 527.999720,652.425072 l 0.000000,2.805559 M 527.999720,732.182468 l 0.000000,-15.383130 M 532.999720,650.001153 l 0.000000,2.207033 M 532.999720,732.089308 l 0.000000,-14.738361 M 537.999720,647.921062 l 0.000000,1.579438 M 537.999720,731.996148 l 0.000000,-14.128229 M 542.999720,609.460415 l 0.000000,1.989738 M 542.999720,615.846928 l 0.000000,-0.743343 M 542.999720,645.402866 l 0.000000,1.960839 M 542.999720,657.198566 l 0.000000,-0.978793 M 542.999720,718.315275 l 0.000000,13.587712 M 547.999720,612.839800 l 0.000000,-2.622107 M 547.999720,616.287948 l 0.000000,1.286889 M 547.999720,657.338307 l 0.000000,-1.748237 M 547.999720,718.328990 l 0.000000,13.496247 M 552.999720,614.156778 l 0.000000,-3.181806 M 552.999720,618.045488 l 0.000000,0.619744 M 552.999720,731.751341 l 0.000000,-15.052381 M 557.999720,611.819197 l 0.000000,3.654558 M 557.999720,731.677444 l 0.000000,-15.535697 M 562.999720,613.130501 l 0.000000,3.660231 M 562.999720,731.603548 l 0.000000,-15.675986 M 567.999720,615.121007 l 0.000000,3.105495 M 567.999720,707.829892 l 0.000000,-5.188198 M 567.999720,715.708413 l 0.000000,15.821239 M 572.999720,619.682523 l 0.000000,-2.576788 M 572.999720,702.091543 l 0.000000,5.214437 M 572.999720,731.455756 l 0.000000,-16.111076 M 577.999720,618.428152 l 0.000000,2.710393 M 577.999720,705.763808 l 0.000000,-2.992253 M 577.999720,714.822988 l 0.000000,16.558871 M 582.999720,622.594566 l 0.000000,-3.293298 M 582.999720,714.222423 l 0.000000,17.099079 M 587.999720,624.050587 l 0.000000,-4.188773 M 587.999720,713.460698 l 0.000000,5.347750 M 587.999720,731.349833 l 0.000000,-10.591373 M 592.999720,620.050190 l 0.000000,5.513479 M 592.999720,718.284808 l 0.000000,-5.614206 M 592.999720,721.118621 l 0.000000,10.259544 M 597.999720,627.098294 l 0.000000,-6.925035 M 597.999720,703.307112 l 0.000000,3.580412 M 597.999720,717.945662 l 0.000000,-6.299340 M 597.999720,721.357827 l 0.000000,10.048668 M 602.999720,628.632919 l 0.000000,-8.270595 M 602.999720,701.926939 l 0.000000,5.258416 M 602.999720,717.778016 l 0.000000,-7.154375 M 602.999720,721.577590 l 0.000000,9.857236 M 607.999720,630.167543 l 0.000000,-9.387576 M 607.999720,700.377241 l 0.000000,6.166148 M 607.999720,717.662115 l 0.000000,-8.024455 M 607.999720,721.669378 l 0.000000,9.780113 M 612.999720,631.702168 l 0.000000,-10.233171 M 612.999720,698.617353 l 0.000000,6.402177 M 612.999720,717.672484 l 0.000000,-8.797230 M 612.999720,721.761167 l 0.000000,9.693878 M 617.999720,633.299978 l 0.000000,-11.141951 M 617.999720,696.232875 l 0.000000,8.083870 M 617.999720,717.753721 l 0.000000,-8.212075 M 617.999720,721.774117 l 0.000000,9.686482 M 622.999720,634.960515 l 0.000000,-11.980389 M 622.999720,692.817467 l 0.000000,25.294004 M 622.999720,731.332356 l 0.000000,-9.618713 M 627.999720,623.995352 l 0.000000,12.625700 M 627.999720,719.160941 l 0.000000,-29.853704 M 627.999720,721.542743 l 0.000000,9.562734 M 632.999720,638.281590 l 0.000000,-13.271012 M 632.999720,685.959307 l 0.000000,44.919292 M 637.999720,639.980892 l 0.000000,-13.831823 M 637.999720,662.597033 l 0.000000,68.054687 M 642.999720,641.689889 l 0.000000,-14.227172 M 642.999720,662.800082 l 0.000000,67.589822 M 647.999720,634.984553 l 0.000000,-6.208188 M 647.999720,639.477995 l 0.000000,3.920892 M 647.999720,730.075670 l 0.000000,-67.838681 M 652.999720,630.165076 l 0.000000,3.208177 M 652.999720,645.105655 l 0.000000,-3.390587 M 652.999720,662.505764 l 0.000000,67.255671 M 657.999720,646.792350 l 0.000000,-3.169536 M 657.999720,664.338550 l 0.000000,65.108651 M 662.999720,648.630888 l 0.000000,-3.122959 M 662.999720,664.185068 l 0.000000,35.011651 M 662.999720,729.132966 l 0.000000,-26.278987 M 667.999720,647.393043 l 0.000000,3.152894 M 667.999720,720.065520 l 0.000000,-55.145283 M 667.999720,723.381705 l 0.000000,5.437027 M 672.999720,652.435762 l 0.000000,-3.196933 M 672.999720,665.952371 l 0.000000,52.482503 M 672.999720,728.479323 l 0.000000,-3.959689 M 677.999720,651.083769 l 0.000000,3.239013 M 677.999720,717.595363 l 0.000000,-50.610857 M 677.999720,725.847737 l 0.000000,2.067666 M 682.999720,656.000184 l 0.000000,-3.071474 M 682.999720,667.931274 l 0.000000,49.460255 M 687.999720,657.657867 l 0.000000,-2.884217 M 687.999720,668.856694 l 0.000000,41.165168 M 687.999720,717.868146 l 0.000000,-3.865856 M 692.999720,656.618590 l 0.000000,2.600718 M 692.999720,706.050419 l 0.000000,-36.333153 M 692.999720,707.485422 l 0.000000,11.006264 M 697.999720,660.780749 l 0.000000,-2.305528 M 697.999720,670.695496 l 0.000000,36.091847 M 697.999720,718.461051 l 0.000000,-8.022134 M 702.999720,660.468349 l 0.000000,1.850098 M 702.999720,708.688801 l 0.000000,-36.771141 M 702.999720,710.815216 l 0.000000,7.379833 M 707.999720,663.761133 l 0.000000,-1.172575 M 707.999720,673.388855 l 0.000000,44.195353 M 712.999720,708.184789 l 0.000000,-33.324739 M 712.999720,710.827976 l 0.000000,6.010057 M 717.999720,715.304788 l 0.000000,-38.854294 M 722.999720,678.160212 l 0.000000,35.228253 M 727.999720,713.678856 l 0.000000,-33.355975 M 732.999720,688.278524 l 0.000000,2.825110 M 732.999720,716.294949 l 0.000000,-23.160104 M 737.999720,698.711754 l 0.000000,22.017967 M 742.999720,714.489274 l 0.000000,-5.864554 M 757.999720,697.930556 l 0.000000,4.463335 M 762.999720,713.861234 l 0.000000,-11.320770 M 767.999720,701.997657 l 0.000000,13.886614 M 767.999720,725.836858 l 0.000000,-5.656681 M 772.999720,701.689065 l 0.000000,16.372316 M 772.999720,726.943737 l 0.000000,-5.889565 M 777.999720,704.233558 l 0.000000,2.650094 M 777.999720,721.729058 l 0.000000,-6.051938 M 782.999720,721.405702 l 0.000000,5.240959 M 787.999720,726.545552 l 0.000000,-2.903297 M 792.999720,724.056937 l 0.000000,2.355796 M 797.999720,726.180733 l 0.000000,-5.020477 M 822.999720,699.742907 l 0.000000,4.891545 M 827.999720,704.317149 l 0.000000,-3.446728 M 827.999720,722.619794 l 0.000000,1.898109 M 832.999720,703.771882 l 0.000000,-1.273198 M 882.999720,724.127726 l 0.000000,1.275101 M 892.999720,727.898533 l 0.000000,-2.590069 M 897.999720,725.235300 l 0.000000,1.604987"
       id="path5" />
  </g>
  <g
     inkscape:label="fill-303030"
     inkscape:groupmode="layer"
     id="fill-303030">
    <path
       style="stroke:#303030"
       d="M 67.174424,567.619630 l 0.000000,6.570048 M 74.174424,566.366797 l 0.000000,-0.430568 M 74.174424,572.254667 l 0.000000,13.417836 M 81.174424,595.634980 l 0.000000,-16.822267 M 88.174424,588.627644 l 0.000000,16.630510 M 95.174424,604.841949 l 0.000000,-5.272356 M 102.174424,600.673225 l 0.000000,5.389840 M 109.174424,634.972236 l 0.000000,-11.889659 M 116.174424,621.664163 l 0.000000,6.974882 M 123.174424,637.059395 l 0.000000,-3.121666 M 130.174424,671.040930 l 0.000000,6.659538 M 137.174424,677.033024 l 0.000000,-5.429141 M 158.174424,717.182663 l 0.000000,4.385836 M 165.174424,723.661109 l 0.000000,-8.604930 M 172.174424,716.537147 l 0.000000,8.378307 M 179.174424,725.849732 l 0.000000,-7.594629 M 186.174424,720.112445 l 0.000000,6.554311 M 193.174424,727.274228 l 0.000000,-6.033831 M 200.174424,722.039250 l 0.000000,5.823147 M 207.174424,728.301706 l 0.000000,-5.757786 M 214.174424,722.857386 l 0.000000,5.883629 M 221.174424,729.094267 l 0.000000,-6.084097 M 228.174424,723.162954 l 0.000000,6.247713 M 235.174424,729.727066 l 0.000000,-6.411328 M 242.174424,722.561031 l 0.000000,7.360090 M 249.174424,730.103371 l 0.000000,-9.929372 M 256.174424,718.448763 l 0.000000,11.836859 M 263.174424,730.467873 l 0.000000,-13.177198 M 270.174424,639.597087 l 0.000000,2.852399 M 270.174424,705.526113 l 0.000000,-16.074093 M 270.174424,714.653424 l 0.000000,15.996699 M 277.174424,655.568327 l 0.000000,-18.276293 M 277.174424,683.194391 l 0.000000,47.637983 M 284.174424,653.171304 l 0.000000,-23.813572 M 284.174424,688.423610 l 0.000000,42.587355 M 291.174424,646.973682 l 0.000000,-13.822948 M 291.174424,689.329465 l 0.000000,41.848450 M 298.174424,640.747681 l 0.000000,-7.333026 M 298.174424,661.122647 l 0.000000,0.663207 M 298.174424,731.344865 l 0.000000,-39.659422 M 305.174424,632.222516 l 0.000000,2.236184 M 305.174424,679.181099 l 0.000000,-24.949039 M 305.174424,693.876084 l 0.000000,37.635731 M 312.174424,687.459279 l 0.000000,-48.325449 M 312.174424,694.804896 l 0.000000,36.873870 M 319.174424,627.101541 l 0.000000,-3.694076 M 319.174424,632.291813 l 0.000000,55.244918 M 319.174424,731.845716 l 0.000000,-36.311686 M 326.174424,622.392026 l 0.000000,5.764548 M 326.174424,635.783926 l 0.000000,-5.095294 M 326.174424,638.637191 l 0.000000,53.472349 M 326.174424,732.012666 l 0.000000,-33.267624 M 333.174424,620.250368 l 0.000000,65.731303 M 333.174424,732.179616 l 0.000000,-44.683596 M 340.174424,621.478659 l 0.000000,14.763827 M 340.174424,683.691262 l 0.000000,-43.014946 M 340.174424,708.205469 l 0.000000,24.141098 M 347.174424,617.823630 l 0.000000,-0.664935 M 347.174424,621.510040 l 0.000000,4.058928 M 347.174424,694.661424 l 0.000000,-65.888282 M 347.174424,710.015215 l 0.000000,22.524814 M 354.174424,617.149937 l 0.000000,-0.435432 M 354.174424,621.393171 l 0.000000,55.746252 M 354.174424,700.616890 l 0.000000,-22.738197 M 354.174424,705.883884 l 0.000000,26.916307 M 361.174424,604.204402 l 0.000000,-0.667760 M 361.174424,617.224391 l 0.000000,115.835962 M 368.174424,615.910562 l 0.000000,-2.161878 M 368.174424,617.160896 l 0.000000,59.399355 M 368.174424,733.320514 l 0.000000,-52.959679 M 375.174424,610.025776 l 0.000000,66.183538 M 375.174424,733.645788 l 0.000000,-52.074234 M 382.174424,619.656935 l 0.000000,64.968235 M 382.174424,734.013665 l 0.000000,-36.619985 M 389.174424,620.148989 l 0.000000,62.458132 M 389.174424,734.381543 l 0.000000,-34.008119 M 396.174424,622.742197 l 0.000000,61.893472 M 396.174424,734.416943 l 0.000000,-27.868713 M 403.174424,630.965265 l 0.000000,57.531480 M 403.174424,734.407888 l 0.000000,-29.797538 M 410.174424,615.126338 l 0.000000,1.129470 M 410.174424,695.255076 l 0.000000,-65.355670 M 410.174424,699.668279 l 0.000000,34.730553 M 417.174424,734.389777 l 0.000000,-103.965818 M 424.174424,632.171956 l 0.000000,102.208766 M 431.174424,634.078187 l 0.000000,-1.417365 M 431.174424,636.920814 l 0.000000,97.450853 M 438.174424,734.362611 l 0.000000,-107.682767 M 445.174424,628.591441 l 0.000000,1.818156 M 445.174424,734.353556 l 0.000000,-100.175335 M 452.174424,584.084371 l 0.000000,1.456510 M 452.174424,653.400032 l 0.000000,-15.029624 M 452.174424,664.051646 l 0.000000,70.292855 M 459.174424,587.618364 l 0.000000,-2.712048 M 459.174424,654.273147 l 0.000000,8.081549 M 459.174424,734.335446 l 0.000000,-69.018854 M 466.174424,621.625651 l 0.000000,2.099705 M 466.174424,667.976255 l 0.000000,-31.772276 M 466.174424,677.393502 l 0.000000,56.932888 M 473.174424,636.510924 l 0.000000,-5.449621 M 473.174424,641.031671 l 0.000000,25.045091 M 473.174424,695.898132 l 0.000000,-7.663639 M 473.174424,705.161991 l 0.000000,29.132999 M 480.174424,650.997714 l 0.000000,-10.590095 M 480.174424,652.903971 l 0.000000,16.713059 M 480.174424,695.526488 l 0.000000,-4.182930 M 480.174424,707.458670 l 0.000000,26.792861 M 487.174424,637.570625 l 0.000000,-7.293196 M 487.174424,641.909499 l 0.000000,27.791608 M 487.174424,697.313635 l 0.000000,-5.011821 M 487.174424,709.023857 l 0.000000,25.184214 M 494.174424,668.703466 l 0.000000,-26.783649 M 494.174424,674.646878 l 0.000000,0.061036 M 494.174424,695.419080 l 0.000000,-3.916150 M 494.174424,710.221889 l 0.000000,23.942722 M 501.174424,667.333860 l 0.000000,-25.598657 M 501.174424,671.281548 l 0.000000,5.479602 M 501.174424,686.403901 l 0.000000,-4.464621 M 501.174424,711.408092 l 0.000000,22.713059 M 508.174424,601.530188 l 0.000000,-0.860964 M 508.174424,641.322246 l 0.000000,40.985743 M 508.174424,734.077691 l 0.000000,-21.502528 M 515.174424,602.155912 l 0.000000,2.331233 M 515.174424,680.095928 l 0.000000,-40.289952 M 515.174424,713.742233 l 0.000000,20.291998 M 522.174424,665.223356 l 0.000000,-25.455144 M 522.174424,714.935608 l 0.000000,19.055162 M 529.174424,608.592167 l 0.000000,-2.719137 M 529.174424,641.265376 l 0.000000,19.641142 M 529.174424,665.750307 l 0.000000,-4.539991 M 529.174424,715.958649 l 0.000000,17.988662 M 536.174424,610.370235 l 0.000000,-3.251089 M 536.174424,640.447170 l 0.000000,19.883311 M 536.174424,667.520533 l 0.000000,-4.844206 M 536.174424,716.688995 l 0.000000,17.214856 M 543.174424,617.338801 l 0.000000,-8.956440 M 543.174424,632.026973 l 0.000000,28.173094 M 543.174424,666.589529 l 0.000000,-2.961886 M 543.174424,717.185439 l 0.000000,16.674952 M 550.174424,619.485150 l 0.000000,-9.860756 M 550.174424,637.082037 l 0.000000,23.317901 M 550.174424,666.785636 l 0.000000,-2.422854 M 550.174424,678.282089 l 0.000000,0.290613 M 550.174424,733.816931 l 0.000000,-17.301698 M 557.174424,610.610428 l 0.000000,10.534447 M 557.174424,665.311401 l 0.000000,-25.123394 M 557.174424,667.632720 l 0.000000,9.758528 M 557.174424,733.773471 l 0.000000,-19.760294 M 564.174424,611.427403 l 0.000000,11.095323 M 564.174424,663.157856 l 0.000000,-22.192642 M 564.174424,672.746576 l 0.000000,2.295713 M 564.174424,733.730011 l 0.000000,-32.400090 M 571.174424,615.133027 l 0.000000,5.585164 M 571.174424,657.440597 l 0.000000,-15.058693 M 571.174424,664.955344 l 0.000000,6.789508 M 571.174424,733.686551 l 0.000000,-32.823490 M 578.174424,617.566003 l 0.000000,4.974274 M 578.174424,658.527102 l 0.000000,-15.579981 M 578.174424,662.855723 l 0.000000,7.095235 M 578.174424,733.643091 l 0.000000,-32.509708 M 585.174424,619.316913 l 0.000000,5.124565 M 585.174424,658.743174 l 0.000000,-15.143590 M 585.174424,662.896215 l 0.000000,7.980670 M 585.174424,682.662165 l 0.000000,-3.852309 M 585.174424,701.241787 l 0.000000,32.357844 M 592.174424,626.462064 l 0.000000,-6.731162 M 592.174424,629.536851 l 0.000000,0.428165 M 592.174424,655.882064 l 0.000000,-10.375037 M 592.174424,665.182005 l 0.000000,4.168670 M 592.174424,683.634345 l 0.000000,-7.554964 M 592.174424,701.096345 l 0.000000,32.459826 M 599.174424,628.490477 l 0.000000,-8.844785 M 599.174424,631.087636 l 0.000000,1.617309 M 599.174424,682.143899 l 0.000000,-7.806198 M 599.174424,700.518288 l 0.000000,32.994423 M 606.174424,630.638149 l 0.000000,-10.795762 M 606.174424,672.581256 l 0.000000,7.375924 M 606.174424,733.469251 l 0.000000,-34.239075 M 613.174424,620.675506 l 0.000000,12.110316 M 613.174424,678.615426 l 0.000000,-7.803978 M 613.174424,696.876031 l 0.000000,36.497024 M 620.174424,635.081714 l 0.000000,-13.489874 M 620.174424,693.117891 l 0.000000,40.095413 M 627.174424,637.474220 l 0.000000,-14.521466 M 627.174424,687.799164 l 0.000000,45.254389 M 634.174424,640.830019 l 0.000000,-16.515153 M 634.174424,651.953016 l 0.000000,10.177631 M 634.174424,732.800352 l 0.000000,-61.030263 M 641.174424,626.080343 l 0.000000,21.640440 M 641.174424,732.405880 l 0.000000,-82.031045 M 648.174424,627.845819 l 0.000000,8.508229 M 648.174424,649.872035 l 0.000000,-10.969124 M 648.174424,652.373200 l 0.000000,79.633165 M 655.174424,634.066476 l 0.000000,-4.503845 M 655.174424,641.949699 l 0.000000,9.043959 M 655.174424,731.581841 l 0.000000,-76.841145 M 662.174424,631.246505 l 0.000000,2.378736 M 662.174424,653.258807 l 0.000000,-8.711244 M 662.174424,656.728680 l 0.000000,74.428637 M 669.174424,655.245800 l 0.000000,-8.118064 M 669.174424,658.382822 l 0.000000,72.467986 M 676.174424,657.280876 l 0.000000,-7.612535 M 676.174424,660.582416 l 0.000000,70.019332 M 683.174424,659.095102 l 0.000000,-6.886155 M 683.174424,661.797247 l 0.000000,68.555440 M 690.174424,661.092367 l 0.000000,-6.342814 M 690.174424,664.206030 l 0.000000,56.185513 M 690.174424,730.103626 l 0.000000,-7.694767 M 697.174424,657.467050 l 0.000000,5.996994 M 697.174424,720.356277 l 0.000000,-54.762223 M 697.174424,723.553594 l 0.000000,6.290527 M 704.174424,667.212753 l 0.000000,-7.022822 M 704.174424,668.366110 l 0.000000,51.970446 M 704.174424,729.584408 l 0.000000,-5.200930 M 711.174424,662.971477 l 0.000000,57.491148 M 711.174424,729.324695 l 0.000000,-3.788685 M 718.174424,665.994916 l 0.000000,54.793573 M 718.174424,728.905114 l 0.000000,-2.233765 M 725.174424,669.208058 l 0.000000,53.100924 M 732.174424,724.453884 l 0.000000,-43.477325 M 739.174424,697.558429 l 0.000000,28.215328 M 746.174424,726.632110 l 0.000000,-11.128101 M 753.174424,682.908152 l 0.000000,8.529794 M 760.174424,709.990995 l 0.000000,-24.543657 M 767.174424,688.128437 l 0.000000,38.459529 M 774.174424,729.861800 l 0.000000,-38.861504 M 781.174424,694.519214 l 0.000000,35.231590 M 788.174424,729.660077 l 0.000000,-22.807372 M 795.174424,698.026377 l 0.000000,4.002169 M 795.174424,729.769395 l 0.000000,-18.061928 M 802.174424,697.105027 l 0.000000,6.453412 M 802.174424,711.821308 l 0.000000,-1.744369 M 802.174424,715.601733 l 0.000000,15.942970 M 809.174424,724.839594 l 0.000000,-1.595265 M 816.174424,734.077442 l 0.000000,0.380795 M 823.174424,708.934983 l 0.000000,-10.519032 M 823.174424,721.493053 l 0.000000,13.146482 M 830.174424,705.351623 l 0.000000,-4.836196 M 830.174424,720.485236 l 0.000000,14.298810 M 837.174424,704.861838 l 0.000000,-2.566412 M 837.174424,719.938450 l 0.000000,14.888778 M 844.174424,734.870409 l 0.000000,-15.166660 M 851.174424,721.052965 l 0.000000,13.860625 M 858.174424,734.953822 l 0.000000,-17.140442 M 865.174424,717.848537 l 0.000000,17.071341 M 872.174424,734.885934 l 0.000000,-15.381949 M 879.174424,721.148611 l 0.000000,13.703380 M 886.174424,731.165041 l 0.000000,-8.850948 M 886.174424,732.360704 l 0.000000,2.435106 M 893.174424,734.574010 l 0.000000,-11.147084 M 900.174424,724.454606 l 0.000000,9.897605 M 907.174424,733.987833 l 0.000000,-8.505547 M 914.174424,726.555865 l 0.000000,6.690831 M 921.174424,731.136659 l 0.000000,-2.827057"
       id="path8" />
  </g>
  <g
     inkscape:label="fill-4e4e4e"
     inkscape:groupmode="layer"
     id="fill-4e4e4e">
    <path
       style="stroke:#4e4e4e"
       d="M 68.035165,557.649062 l 0.000000,2.903280 M 68.035165,577.686943 l 0.000000,-10.409938 M 77.035165,567.126233 l 0.000000,23.699240 M 86.035165,603.304514 l 0.000000,-24.753082 M 95.035165,590.002093 l 0.000000,15.866880 M 104.035165,608.214499 l 0.000000,-9.370810 M 104.035165,628.006559 l 0.000000,2.068678 M 104.035165,667.994250 l 0.000000,-19.976261 M 113.035165,620.842798 l 0.000000,20.447073 M 113.035165,676.184836 l 0.000000,-18.209646 M 122.035165,623.843332 l 0.000000,3.693070 M 122.035165,641.549646 l 0.000000,-12.070263 M 122.035165,663.728087 l 0.000000,11.297372 M 131.035165,679.954457 l 0.000000,-12.440626 M 140.035165,669.581149 l 0.000000,7.944246 M 140.035165,702.855791 l 0.000000,-11.020742 M 149.035165,690.465449 l 0.000000,5.633294 M 149.035165,710.248373 l 0.000000,-7.715657 M 158.035165,666.319432 l 0.000000,3.884891 M 158.035165,723.309486 l 0.000000,-13.076432 M 167.035165,662.136744 l 0.000000,20.866049 M 167.035165,696.660750 l 0.000000,-10.303894 M 167.035165,705.428443 l 0.000000,4.485349 M 167.035165,724.865471 l 0.000000,-11.752739 M 176.035165,666.528234 l 0.000000,1.776701 M 176.035165,683.416434 l 0.000000,-13.051815 M 176.035165,686.677719 l 0.000000,19.142100 M 176.035165,726.076617 l 0.000000,-16.234530 M 185.035165,662.114441 l 0.000000,3.961184 M 185.035165,680.968462 l 0.000000,-6.973875 M 185.035165,687.479420 l 0.000000,39.660600 M 194.035165,708.134849 l 0.000000,-35.418427 M 194.035165,711.906937 l 0.000000,16.044230 M 203.035165,728.671398 l 0.000000,-52.712325 M 212.035165,668.294900 l 0.000000,61.014559 M 221.035165,706.828982 l 0.000000,-30.753282 M 221.035165,713.056168 l 0.000000,16.810456 M 230.035165,620.638438 l 0.000000,-3.250008 M 230.035165,669.019506 l 0.000000,37.843369 M 230.035165,730.423789 l 0.000000,-15.524324 M 239.035165,611.772408 l 0.000000,2.535931 M 239.035165,730.980953 l 0.000000,-59.374328 M 248.035165,676.335782 l 0.000000,2.030816 M 248.035165,731.309007 l 0.000000,-49.070445 M 257.035165,687.010348 l 0.000000,44.614234 M 266.035165,633.039336 l 0.000000,-8.259977 M 266.035165,682.034682 l 0.000000,49.732872 M 275.035165,625.887167 l 0.000000,-4.829791 M 275.035165,633.580016 l 0.000000,24.517537 M 275.035165,731.873847 l 0.000000,-61.964677 M 284.035165,623.266324 l 0.000000,32.249387 M 284.035165,731.981772 l 0.000000,-56.196896 M 293.035165,616.250957 l 0.000000,30.495318 M 293.035165,732.115511 l 0.000000,-47.032177 M 302.035165,594.364616 l 0.000000,5.094861 M 302.035165,639.710477 l 0.000000,-35.012252 M 302.035165,653.845830 l 0.000000,27.855512 M 302.035165,732.249250 l 0.000000,-46.587551 M 311.035165,595.801019 l 0.000000,136.581971 M 320.035165,597.286350 l 0.000000,-4.473826 M 320.035165,602.928286 l 0.000000,129.690602 M 329.035165,594.478580 l 0.000000,-6.401315 M 329.035165,603.874948 l 0.000000,128.984383 M 338.035165,587.752997 l 0.000000,-3.692886 M 338.035165,601.894774 l 0.000000,131.204998 M 347.035165,587.840099 l 0.000000,-5.389079 M 347.035165,598.717701 l 0.000000,134.622513 M 356.035165,585.698775 l 0.000000,-3.181731 M 356.035165,597.947232 l 0.000000,135.708484 M 365.035165,733.974898 l 0.000000,-137.775001 M 374.035165,591.984658 l 0.000000,142.309423 M 383.035165,689.145802 l 0.000000,-92.946912 M 383.035165,694.850725 l 0.000000,39.839442 M 392.035165,686.002824 l 0.000000,-88.508023 M 392.035165,698.644546 l 0.000000,36.568698 M 401.035165,586.622007 l 0.000000,-1.892291 M 401.035165,594.447457 l 0.000000,97.211359 M 401.035165,735.460771 l 0.000000,-32.745588 M 410.035165,585.256916 l 0.000000,2.393880 M 410.035165,735.491319 l 0.000000,-141.623747 M 419.035165,594.415696 l 0.000000,141.106172 M 428.035165,735.530046 l 0.000000,-139.881227 M 437.035165,603.956991 l 0.000000,131.527832 M 446.035165,735.439599 l 0.000000,-131.179490 M 455.035165,583.255654 l 0.000000,4.467857 M 455.035165,735.394375 l 0.000000,-126.678899 M 464.035165,586.147351 l 0.000000,3.481423 M 464.035165,735.349152 l 0.000000,-123.608264 M 473.035165,610.591147 l 0.000000,4.742025 M 473.035165,735.303928 l 0.000000,-118.998743 M 482.035165,613.946273 l 0.000000,6.503247 M 482.035165,735.258704 l 0.000000,-110.571379 M 491.035165,621.530926 l 0.000000,83.429366 M 491.035165,735.213481 l 0.000000,-27.626212 M 500.035165,587.829288 l 0.000000,2.251284 M 500.035165,622.074678 l 0.000000,-2.574729 M 500.035165,624.826210 l 0.000000,74.549551 M 500.035165,735.183072 l 0.000000,-25.468886 M 509.035165,599.807357 l 0.000000,3.259144 M 509.035165,693.029873 l 0.000000,-65.245816 M 509.035165,711.340146 l 0.000000,23.815397 M 518.035165,606.055261 l 0.000000,-4.080902 M 518.035165,629.505643 l 0.000000,64.792825 M 518.035165,704.864607 l 0.000000,-1.729214 M 518.035165,712.923623 l 0.000000,22.204392 M 527.035165,609.449155 l 0.000000,-5.222895 M 527.035165,629.661076 l 0.000000,63.199182 M 527.035165,735.100486 l 0.000000,-20.691599 M 536.035165,606.279567 l 0.000000,9.380311 M 536.035165,690.179221 l 0.000000,-60.362712 M 536.035165,715.894150 l 0.000000,19.178807 M 545.035165,621.919919 l 0.000000,-13.932026 M 545.035165,630.206381 l 0.000000,55.053505 M 545.035165,735.045429 l 0.000000,-18.462993 M 554.035165,609.326132 l 0.000000,13.939437 M 554.035165,685.495259 l 0.000000,-53.775990 M 554.035165,685.588224 l 0.000000,7.182832 M 554.035165,735.017900 l 0.000000,-29.190290 M 563.035165,610.384318 l 0.000000,13.386541 M 563.035165,681.990201 l 0.000000,-48.383504 M 563.035165,684.708973 l 0.000000,5.878058 M 563.035165,734.990372 l 0.000000,-35.330803 M 572.035165,614.375167 l 0.000000,10.608786 M 572.035165,681.222800 l 0.000000,-47.077798 M 572.035165,689.230102 l 0.000000,3.612926 M 572.035165,734.962843 l 0.000000,-35.345075 M 581.035165,617.579098 l 0.000000,9.745479 M 581.035165,691.919263 l 0.000000,-56.456060 M 581.035165,700.222164 l 0.000000,34.713151 M 590.035165,630.658502 l 0.000000,-11.947448 M 590.035165,640.533632 l 0.000000,50.207494 M 590.035165,734.907786 l 0.000000,-35.012927 M 599.035165,619.124958 l 0.000000,14.089424 M 599.035165,692.574399 l 0.000000,-49.676458 M 599.035165,698.599254 l 0.000000,36.281003 M 608.035165,633.893839 l 0.000000,-14.380321 M 608.035165,645.982667 l 0.000000,35.921120 M 608.035165,690.716651 l 0.000000,-5.858002 M 608.035165,696.536507 l 0.000000,38.316222 M 617.035165,634.927253 l 0.000000,-14.421989 M 617.035165,653.397705 l 0.000000,4.752856 M 617.035165,680.398852 l 0.000000,-14.011653 M 617.035165,684.518747 l 0.000000,3.928684 M 617.035165,734.863981 l 0.000000,-41.361460 M 626.035165,621.837354 l 0.000000,18.796755 M 626.035165,734.837994 l 0.000000,-69.305383 M 635.035165,623.700096 l 0.000000,21.946301 M 635.035165,734.622051 l 0.000000,-86.820717 M 644.035165,625.990165 l 0.000000,108.111653 M 653.035165,635.662433 l 0.000000,-7.163314 M 653.035165,640.735172 l 0.000000,92.589335 M 662.035165,634.015699 l 0.000000,-3.322636 M 662.035165,644.138789 l 0.000000,88.386692 M 671.035165,731.842601 l 0.000000,-84.411920 M 680.035165,650.700855 l 0.000000,80.680236 M 689.035165,731.176848 l 0.000000,-77.205820 M 698.035165,657.256743 l 0.000000,73.832122 M 707.035165,731.062678 l 0.000000,-70.254831 M 716.035165,664.519081 l 0.000000,66.497327 M 725.035165,730.964120 l 0.000000,-62.392613 M 734.035165,683.680107 l 0.000000,47.061419 M 743.035165,730.298662 l 0.000000,-24.436816 M 752.035165,681.201156 l 0.000000,8.804820 M 761.035165,713.510589 l 0.000000,-28.940147 M 770.035165,687.966747 l 0.000000,42.439546 M 779.035165,730.621182 l 0.000000,-39.666848 M 788.035165,693.657655 l 0.000000,36.962616 M 797.035165,731.264382 l 0.000000,-35.338058 M 806.035165,696.493729 l 0.000000,16.581472 M 806.035165,730.317519 l 0.000000,-9.881007 M 824.035165,698.023034 l 0.000000,11.624129 M 824.035165,735.466670 l 0.000000,-14.944437 M 833.035165,700.567043 l 0.000000,5.965344 M 833.035165,735.632356 l 0.000000,-16.140701 M 842.035165,702.696263 l 0.000000,2.522979 M 842.035165,735.712444 l 0.000000,-17.092903 M 851.035165,717.448496 l 0.000000,18.344038 M 860.035165,735.778482 l 0.000000,-19.425865 M 869.035165,717.166433 l 0.000000,18.558344 M 878.035165,735.671072 l 0.000000,-16.168755 M 887.035165,722.037067 l 0.000000,13.471532 M 896.035165,735.249293 l 0.000000,-12.015686 M 905.035165,724.291065 l 0.000000,10.565961 M 914.035165,734.090353 l 0.000000,-8.358560 M 923.035165,728.010134 l 0.000000,4.831387"
       id="path11" />
  </g>
  <g
     inkscape:label="fill-6c6c6c"
     inkscape:groupmode="layer"
     id="fill-6c6c6c">
    <path
       style="stroke:#6c6c6c"
       d="M 55.694174,551.789278 l 0.000000,2.993472 M 66.694174,559.688204 l 0.000000,-4.299707 M 66.694174,565.139522 l 0.000000,11.278233 M 77.694174,592.742720 l 0.000000,-25.635874 M 88.694174,580.465856 l 0.000000,26.661125 M 99.694174,608.043161 l 0.000000,-15.103228 M 99.694174,638.028189 l 0.000000,28.868854 M 110.694174,611.077833 l 0.000000,-5.993892 M 110.694174,620.795163 l 0.000000,61.017949 M 121.694174,649.147520 l 0.000000,-27.487864 M 121.694174,652.758545 l 0.000000,36.272072 M 132.694174,644.509257 l 0.000000,-14.246050 M 132.694174,653.601572 l 0.000000,48.814147 M 143.694174,647.572472 l 0.000000,-3.932401 M 143.694174,653.823900 l 0.000000,55.042372 M 143.694174,721.081016 l 0.000000,-1.962221 M 154.694174,654.095693 l 0.000000,69.850473 M 165.694174,725.663712 l 0.000000,-71.296226 M 176.694174,654.665216 l 0.000000,72.339586 M 187.694174,728.106574 l 0.000000,-73.454897 M 198.694174,658.972974 l 0.000000,70.074258 M 209.694174,729.770872 l 0.000000,-70.218304 M 220.694174,656.798235 l 0.000000,73.696277 M 231.694174,625.162945 l 0.000000,-18.925317 M 231.694174,654.786482 l 0.000000,76.341677 M 242.694174,631.476557 l 0.000000,-33.344364 M 242.694174,654.548720 l 0.000000,77.035105 M 253.694174,731.945667 l 0.000000,-72.830247 M 264.694174,623.976813 l 0.000000,16.659795 M 264.694174,732.207304 l 0.000000,-73.182609 M 275.694174,617.524644 l 0.000000,114.944297 M 286.694174,601.947359 l 0.000000,-6.360473 M 286.694174,615.475178 l 0.000000,39.227088 M 286.694174,666.003197 l 0.000000,-5.283219 M 286.694174,674.189277 l 0.000000,58.562356 M 297.694174,645.567622 l 0.000000,-54.983175 M 297.694174,657.362415 l 0.000000,75.674747 M 308.694174,733.322691 l 0.000000,-143.052955 M 319.694174,588.704726 l 0.000000,144.903494 M 330.694174,733.893749 l 0.000000,-148.805980 M 341.694174,581.735418 l 0.000000,152.443860 M 352.694174,734.464807 l 0.000000,-154.068519 M 363.694174,581.655106 l 0.000000,153.187180 M 374.694174,735.223590 l 0.000000,-152.048870 M 385.694174,583.437668 l 0.000000,152.167225 M 396.694174,736.147301 l 0.000000,-152.448005 M 407.694174,583.959691 l 0.000000,152.531679 M 418.694174,736.524948 l 0.000000,-151.748441 M 429.694174,589.353822 l 0.000000,147.204001 M 440.694174,736.492955 l 0.000000,-144.034949 M 451.694174,581.980517 l 0.000000,5.819332 M 451.694174,736.428088 l 0.000000,-141.310440 M 462.694174,583.637156 l 0.000000,6.827059 M 462.694174,736.363220 l 0.000000,-137.506779 M 473.694174,591.063601 l 0.000000,1.872798 M 473.694174,736.298352 l 0.000000,-134.828362 M 484.694174,594.129147 l 0.000000,1.838432 M 484.694174,736.233484 l 0.000000,-131.993176 M 495.694174,586.377490 l 0.000000,3.459846 M 495.694174,599.634614 l 0.000000,-1.932585 M 495.694174,608.437650 l 0.000000,127.732270 M 506.694174,591.617048 l 0.000000,-2.651375 M 506.694174,598.435646 l 0.000000,5.188601 M 506.694174,736.108470 l 0.000000,-122.881125 M 517.694174,601.073376 l 0.000000,5.701704 M 517.694174,736.047020 l 0.000000,-116.958616 M 528.694174,603.787162 l 0.000000,8.523397 M 528.694174,735.985571 l 0.000000,-109.918655 M 539.694174,606.447419 l 0.000000,14.933054 M 539.694174,735.924121 l 0.000000,-108.503240 M 550.694174,608.656374 l 0.000000,18.205678 M 550.694174,735.862671 l 0.000000,-107.113173 M 561.694174,609.874252 l 0.000000,15.077702 M 561.694174,735.801221 l 0.000000,-105.474552 M 572.694174,610.198493 l 0.000000,15.960007 M 572.694174,696.217481 l 0.000000,-63.981737 M 572.694174,698.168217 l 0.000000,37.624760 M 583.694174,629.452017 l 0.000000,-11.754608 M 583.694174,634.625202 l 0.000000,63.076284 M 583.694174,735.792392 l 0.000000,-37.474718 M 594.694174,618.800577 l 0.000000,14.388590 M 594.694174,735.791805 l 0.000000,-97.074683 M 605.694174,618.900865 l 0.000000,16.436244 M 605.694174,735.791219 l 0.000000,-94.208735 M 616.694174,619.682898 l 0.000000,16.400382 M 616.694174,735.775520 l 0.000000,-91.083027 M 627.694174,621.458179 l 0.000000,21.474554 M 627.694174,735.729934 l 0.000000,-87.096873 M 638.694174,623.784990 l 0.000000,111.899357 M 649.694174,637.398533 l 0.000000,-10.538223 M 649.694174,638.014578 l 0.000000,97.385367 M 660.694174,634.870027 l 0.000000,-5.026287 M 660.694174,643.310328 l 0.000000,91.361621 M 671.694174,733.793773 l 0.000000,-86.601972 M 682.694174,651.198949 l 0.000000,82.058824 M 693.694174,733.035710 l 0.000000,-77.760600 M 704.694174,659.524180 l 0.000000,73.317543 M 715.694174,732.661959 l 0.000000,-68.716944 M 726.694174,669.239127 l 0.000000,63.311846 M 737.694174,732.345051 l 0.000000,-40.984378 M 748.694174,679.501350 l 0.000000,2.326731 M 748.694174,731.484036 l 0.000000,-12.312670 M 759.694174,683.332869 l 0.000000,28.147895 M 770.694174,731.236568 l 0.000000,-43.849348 M 781.694174,690.959952 l 0.000000,40.495613 M 792.694174,731.557386 l 0.000000,-37.591554 M 803.694174,695.359140 l 0.000000,37.999347 M 825.694174,709.801206 l 0.000000,-11.898266 M 825.694174,719.821744 l 0.000000,15.911410 M 836.694174,707.206799 l 0.000000,-6.340196 M 836.694174,718.563835 l 0.000000,17.301757 M 847.694174,705.362092 l 0.000000,-1.899772 M 847.694174,717.143739 l 0.000000,18.781611 M 858.694174,735.985108 l 0.000000,-20.122021 M 869.694174,716.637730 l 0.000000,19.309608 M 880.694174,735.884877 l 0.000000,-16.367702 M 891.694174,721.949015 l 0.000000,13.810468 M 902.694174,735.447225 l 0.000000,-11.968047 M 913.694174,725.282801 l 0.000000,9.539840 M 924.694174,733.517981 l 0.000000,-6.243515"
       id="path14" />
  </g>
  <g
     inkscape:label="fill-8d8d8d"
     inkscape:groupmode="layer"
     id="fill-8d8d8d">
    <path
       style="stroke:#8d8d8d"
       d="M 55.029765,548.920450 l 0.000000,6.187624 M 68.029765,563.812916 l 0.000000,-7.935807 M 68.029765,565.341814 l 0.000000,13.854536 M 81.029765,598.271558 l 0.000000,-28.138687 M 94.029765,585.894594 l 0.000000,24.647293 M 94.029765,618.025470 l 0.000000,-5.104984 M 94.029765,624.340833 l 0.000000,32.732113 M 107.029765,687.866840 l 0.000000,-88.308414 M 120.029765,619.473483 l 0.000000,77.620906 M 133.029765,704.357990 l 0.000000,-77.510175 M 133.029765,717.487307 l 0.000000,4.355241 M 146.029765,711.709212 l 0.000000,-79.256498 M 146.029765,714.057565 l 0.000000,10.359319 M 159.029765,725.997555 l 0.000000,-87.194581 M 172.029765,645.586386 l 0.000000,81.971758 M 185.029765,728.723661 l 0.000000,-82.192921 M 198.029765,647.500354 l 0.000000,82.339672 M 211.029765,730.646884 l 0.000000,-81.017688 M 224.029765,650.343040 l 0.000000,81.013933 M 237.029765,636.896235 l 0.000000,-37.779255 M 237.029765,650.598462 l 0.000000,81.358023 M 250.029765,732.376038 l 0.000000,-80.589634 M 263.029765,624.496162 l 0.000000,19.925955 M 263.029765,732.795591 l 0.000000,-81.728950 M 276.029765,593.843765 l 0.000000,14.863428 M 276.029765,733.184951 l 0.000000,-117.937791 M 289.029765,588.365845 l 0.000000,14.684563 M 289.029765,733.548670 l 0.000000,-128.402746 M 302.029765,585.376327 l 0.000000,148.536062 M 315.029765,734.276107 l 0.000000,-148.369671 M 328.029765,582.443066 l 0.000000,152.196760 M 341.029765,735.007348 l 0.000000,-154.879749 M 354.029765,579.147814 l 0.000000,156.312410 M 367.029765,735.913099 l 0.000000,-155.409769 M 380.029765,582.314717 l 0.000000,154.051258 M 393.029765,576.627864 l 0.000000,-2.467604 M 393.029765,582.230934 l 0.000000,154.587916 M 406.029765,576.350062 l 0.000000,-0.952515 M 406.029765,582.144678 l 0.000000,154.810202 M 419.029765,737.065355 l 0.000000,-153.189592 M 432.029765,579.880642 l 0.000000,2.891259 M 432.029765,737.175831 l 0.000000,-151.229268 M 445.029765,581.684980 l 0.000000,4.121715 M 445.029765,737.247421 l 0.000000,-149.514986 M 458.029765,580.629821 l 0.000000,156.592363 M 471.029765,585.290849 l 0.000000,-3.677161 M 471.029765,588.206427 l 0.000000,148.990520 M 484.029765,588.197388 l 0.000000,-4.746603 M 484.029765,592.010436 l 0.000000,145.161274 M 497.029765,591.050823 l 0.000000,-5.396140 M 497.029765,595.497804 l 0.000000,141.648668 M 510.029765,592.612290 l 0.000000,-3.018038 M 510.029765,598.252110 l 0.000000,138.869126 M 523.029765,737.095998 l 0.000000,-135.676107 M 536.029765,604.769233 l 0.000000,132.274618 M 549.029765,736.962774 l 0.000000,-129.243450 M 562.029765,608.938162 l 0.000000,127.943536 M 575.029765,613.767885 l 0.000000,-4.585545 M 575.029765,614.619276 l 0.000000,14.595194 M 575.029765,736.800622 l 0.000000,-106.662057 M 588.029765,617.520871 l 0.000000,119.198674 M 601.029765,636.610410 l 0.000000,-18.294118 M 601.029765,637.983928 l 0.000000,98.654540 M 614.029765,736.557392 l 0.000000,-117.573698 M 627.029765,620.387582 l 0.000000,116.088734 M 640.029765,736.329103 l 0.000000,-113.204839 M 653.029765,627.134250 l 0.000000,9.757672 M 653.029765,736.174069 l 0.000000,-96.702785 M 666.029765,630.819287 l 0.000000,4.261236 M 666.029765,736.019035 l 0.000000,-91.418896 M 679.029765,649.396498 l 0.000000,86.467503 M 692.029765,735.708966 l 0.000000,-81.500316 M 705.029765,659.149156 l 0.000000,76.404776 M 718.029765,735.324598 l 0.000000,-70.896413 M 731.029765,673.993175 l 0.000000,61.094391 M 744.029765,734.850536 l 0.000000,-29.606922 M 757.029765,681.635020 l 0.000000,24.627518 M 770.029765,733.498191 l 0.000000,-47.045689 M 783.029765,690.506971 l 0.000000,41.932921 M 796.029765,732.927552 l 0.000000,-39.229976 M 809.029765,701.574657 l 0.000000,10.319612 M 809.029765,727.772648 l 0.000000,-6.994017 M 822.029765,695.433357 l 0.000000,15.068839 M 822.029765,736.486543 l 0.000000,-17.038949 M 835.029765,699.792400 l 0.000000,8.754103 M 835.029765,736.647392 l 0.000000,-18.515916 M 848.029765,703.102103 l 0.000000,3.245486 M 848.029765,736.645799 l 0.000000,-20.145334 M 861.029765,715.257410 l 0.000000,21.386795 M 874.029765,736.522926 l 0.000000,-19.798105 M 887.029765,720.750754 l 0.000000,15.607308 M 900.029765,736.054010 l 0.000000,-13.501057 M 913.029765,724.459041 l 0.000000,11.106465 M 926.029765,734.038770 l 0.000000,-7.326201"
       id="path17" />
  </g>
  <g
     inkscape:label="fill-afafaf"
     inkscape:groupmode="layer"
     id="fill-afafaf">
    <path
       style="stroke:#afafaf"
       d="M 55.917796,548.759858 l 0.000000,10.251229 M 70.917796,584.729673 l 0.000000,-26.727160 M 85.917796,575.152781 l 0.000000,31.298285 M 100.917796,681.914892 l 0.000000,-89.394386 M 115.917796,604.885569 l 0.000000,91.460945 M 130.917796,704.283186 l 0.000000,-83.259089 M 130.917796,714.812792 l 0.000000,9.465927 M 145.917796,726.060324 l 0.000000,-96.318826 M 160.917796,635.466106 l 0.000000,92.113454 M 175.917796,728.966127 l 0.000000,-86.617896 M 190.917796,643.437517 l 0.000000,86.676957 M 205.917796,731.161629 l 0.000000,-85.032243 M 220.917796,648.224497 l 0.000000,83.735037 M 235.917796,639.432268 l 0.000000,-40.757515 M 235.917796,645.657282 l 0.000000,87.081865 M 250.917796,733.255949 l 0.000000,-93.216978 M 265.917796,598.008062 l 0.000000,17.291425 M 265.917796,733.772750 l 0.000000,-114.488433 M 280.917796,586.243693 l 0.000000,148.011582 M 295.917796,734.710996 l 0.000000,-152.914226 M 310.917796,578.419620 l 0.000000,156.747098 M 325.917796,735.622440 l 0.000000,-156.204172 M 340.917796,578.064856 l 0.000000,158.013305 M 355.917796,736.468167 l 0.000000,-158.487995 M 370.917796,579.874129 l 0.000000,156.978934 M 385.917796,577.551775 l 0.000000,-5.149060 M 385.917796,581.321367 l 0.000000,155.916591 M 400.917796,578.028932 l 0.000000,-4.296435 M 400.917796,580.678310 l 0.000000,156.944545 M 415.917796,581.501220 l 0.000000,-5.325836 M 415.917796,582.248675 l 0.000000,155.759076 M 430.917796,738.139115 l 0.000000,-159.900115 M 445.917796,580.406294 l 0.000000,157.853967 M 460.917796,738.380901 l 0.000000,-158.901567 M 475.917796,579.879033 l 0.000000,158.431400 M 490.917796,592.727264 l 0.000000,-10.770810 M 490.917796,593.916660 l 0.000000,144.323305 M 505.917796,593.631237 l 0.000000,-6.406686 M 505.917796,594.796010 l 0.000000,143.373487 M 520.917796,598.386690 l 0.000000,-4.516690 M 520.917796,599.178915 l 0.000000,138.902205 M 535.917796,737.986045 l 0.000000,-134.764329 M 550.917796,607.691984 l 0.000000,130.198987 M 565.917796,737.795897 l 0.000000,-129.084426 M 580.917796,609.696896 l 0.000000,2.514359 M 580.917796,737.700822 l 0.000000,-122.154428 M 595.917796,617.509179 l 0.000000,120.096569 M 610.917796,737.510673 l 0.000000,-119.379746 M 625.917796,619.740211 l 0.000000,117.687185 M 640.917796,737.349306 l 0.000000,-114.753908 M 655.917796,627.439952 l 0.000000,8.937565 M 655.917796,737.271217 l 0.000000,-96.948974 M 670.917796,632.624816 l 0.000000,2.927131 M 670.917796,737.111106 l 0.000000,-91.124427 M 685.917796,651.384915 l 0.000000,85.547208 M 700.917796,736.753141 l 0.000000,-79.821941 M 715.917796,662.915312 l 0.000000,73.570720 M 730.917796,736.199198 l 0.000000,-63.954483 M 745.917796,709.153397 l 0.000000,26.593504 M 760.917796,716.889626 l 0.000000,-34.319676 M 775.917796,687.717250 l 0.000000,48.282750 M 790.917796,735.727432 l 0.000000,-43.634540 M 805.917796,694.997114 l 0.000000,38.047568 M 820.917796,710.739771 l 0.000000,-16.618625 M 820.917796,719.476472 l 0.000000,17.123617 M 835.917796,709.299496 l 0.000000,-9.691018 M 835.917796,717.508855 l 0.000000,19.306887 M 850.917796,706.979258 l 0.000000,-3.680608 M 850.917796,715.522068 l 0.000000,21.390146 M 865.917796,736.951805 l 0.000000,-22.061181 M 880.917796,718.374204 l 0.000000,18.470885 M 895.917796,736.657949 l 0.000000,-15.110739 M 910.917796,723.655734 l 0.000000,12.474240 M 925.917796,734.707964 l 0.000000,-8.804835"
       id="path20" />
  </g>
  <g
     inkscape:label="fill-cfcfcf"
     inkscape:groupmode="layer"
     id="fill-cfcfcf">
    <path
       style="stroke:#cfcfcf"
       d="M 56.448165,547.063265 l 0.000000,15.182018 M 73.448165,589.703281 l 0.000000,-30.129860 M 90.448165,579.222933 l 0.000000,83.859634 M 107.448165,692.354766 l 0.000000,-94.831300 M 107.448165,715.675771 l 0.000000,9.722474 M 124.448165,702.299912 l 0.000000,-92.635773 M 124.448165,713.251357 l 0.000000,13.655319 M 141.448165,728.220595 l 0.000000,-106.501275 M 158.448165,631.181954 l 0.000000,98.250930 M 175.448165,730.554861 l 0.000000,-95.075985 M 192.448165,640.379516 l 0.000000,91.175981 M 209.448165,732.514403 l 0.000000,-88.305564 M 226.448165,604.259609 l 0.000000,27.398748 M 226.448165,733.298569 l 0.000000,-89.033186 M 243.448165,594.379822 l 0.000000,139.667753 M 260.448165,734.796579 l 0.000000,-135.779689 M 277.448165,579.858542 l 0.000000,155.687042 M 294.448165,736.125839 l 0.000000,-159.029279 M 311.448165,574.951581 l 0.000000,161.679906 M 328.448165,737.137134 l 0.000000,-164.326156 M 345.448165,574.978348 l 0.000000,162.664435 M 362.448165,738.141951 l 0.000000,-161.343583 M 379.448165,570.689852 l 0.000000,5.393783 M 379.448165,738.620375 l 0.000000,-159.578478 M 396.448165,571.807668 l 0.000000,167.503591 M 413.448165,739.899404 l 0.000000,-166.040379 M 430.448165,576.778220 l 0.000000,163.198580 M 447.448165,739.980317 l 0.000000,-161.555511 M 464.448165,577.522693 l 0.000000,162.461141 M 481.448165,739.859570 l 0.000000,-161.430205 M 498.448165,580.766841 l 0.000000,158.966313 M 515.448165,739.606739 l 0.000000,-150.835853 M 532.448165,589.258849 l 0.000000,150.097989 M 549.448165,739.077312 l 0.000000,-132.645816 M 566.448165,607.858457 l 0.000000,130.939095 M 583.448165,738.516411 l 0.000000,-130.140551 M 600.448165,616.617765 l 0.000000,121.617505 M 617.448165,738.248783 l 0.000000,-120.520973 M 634.448165,620.204622 l 0.000000,118.543840 M 651.448165,739.301521 l 0.000000,-114.308976 M 668.448165,630.399314 l 0.000000,6.124948 M 668.448165,738.916644 l 0.000000,-94.740330 M 685.448165,650.483301 l 0.000000,87.717819 M 702.448165,737.936888 l 0.000000,-81.106115 M 719.448165,663.565043 l 0.000000,74.117579 M 736.448165,737.447726 l 0.000000,-53.971535 M 753.448165,678.685243 l 0.000000,21.833101 M 753.448165,736.869403 l 0.000000,-9.959366 M 770.448165,685.098881 l 0.000000,51.859550 M 787.448165,737.987691 l 0.000000,-47.567641 M 804.448165,692.828163 l 0.000000,42.781580 M 821.448165,711.855291 l 0.000000,-18.736882 M 821.448165,718.606044 l 0.000000,19.014993 M 838.448165,709.863730 l 0.000000,-10.685154 M 838.448165,716.293633 l 0.000000,21.625047 M 855.448165,707.755686 l 0.000000,-4.179600 M 855.448165,714.317779 l 0.000000,23.715327 M 872.448165,737.933783 l 0.000000,-23.269461 M 889.448165,719.609851 l 0.000000,18.104237 M 906.448165,737.304189 l 0.000000,-15.270484 M 923.448165,724.479815 l 0.000000,11.388866"
       id="path23" />
  </g>
</svg>
