<?xml version="1.0" encoding="UTF-8" standalone="no"?>
<!-- Created with Inkscape (http://www.inkscape.org/) -->

<svg
   xmlns:dc="http://purl.org/dc/elements/1.1/"
   xmlns:cc="http://creativecommons.org/ns#"
   xmlns:rdf="http://www.w3.org/1999/02/22-rdf-syntax-ns#"
   xmlns:svg="http://www.w3.org/2000/svg"
   xmlns="http://www.w3.org/2000/svg"
   xmlns:sodipodi="http://sodipodi.sourceforge.net/DTD/sodipodi-0.dtd"
   xmlns:inkscape="http://www.inkscape.org/namespaces/inkscape"
   id="svg2"
   version="1.1"
   inkscape:version="0.48.3.1 r9886"
   width="1500"
   height="1911"
   sodipodi:docname="hantologie-_0000_arbre-03_hatched_1398270783.svg">
  <defs
     id="defs27" />
  <sodipodi:namedview
     pagecolor="#ffffff"
     bordercolor="#666666"
     borderopacity="1"
     objecttolerance="10"
     gridtolerance="10"
     guidetolerance="10"
     inkscape:pageopacity="0"
     inkscape:pageshadow="2"
     inkscape:window-width="640"
     inkscape:window-height="480"
     id="namedview25" />
  <metadata
     id="metadata8">
    <rdf:RDF>
      <cc:Work
         rdf:about="">
        <dc:format>image/svg+xml </dc:format>
        <dc:type
           rdf:resource="http://purl.org/dc/dcmitype/StillImage" />
        <dc:title />
      </cc:Work>
    </rdf:RDF>
  </metadata>
  <g
     inkscape:label="fill-0c0c0c"
     inkscape:groupmode="layer"
     id="fill-0c0c0c">
    <path
       style="stroke:#0c0c0c"
       d="M 716.641832,489.473885 l 0.000000,1.697995 M 726.641832,543.670761 l 0.000000,-3.594333 M 731.641832,555.409536 l 0.000000,9.432246 M 736.641832,565.044607 l 0.000000,-24.075191 M 736.641832,567.425919 l 0.000000,16.151979 M 741.641832,539.152898 l 0.000000,-3.988001 M 741.641832,539.370899 l 0.000000,40.284457 M 741.641832,659.448703 l 0.000000,-3.901683 M 741.641832,679.638699 l 0.000000,14.387927 M 746.641832,556.616366 l 0.000000,-17.895025 M 746.641832,560.795792 l 0.000000,14.293585 M 746.641832,600.981995 l 0.000000,-14.739159 M 746.641832,652.230488 l 0.000000,1.034153 M 746.641832,709.496840 l 0.000000,-33.362603 M 751.641832,539.498484 l 0.000000,0.837233 M 751.641832,551.564402 l 0.000000,-1.195829 M 751.641832,561.308365 l 0.000000,9.657324 M 751.641832,716.624847 l 0.000000,-42.671357 M 756.641832,559.824136 l 0.000000,9.759550 M 756.641832,698.293428 l 0.000000,-31.575706 M 756.641832,701.142827 l 0.000000,21.607352 M 756.641832,738.689096 l 0.000000,-7.218820 M 761.641832,560.322476 l 0.000000,8.566958 M 761.641832,691.884554 l 0.000000,-44.650770 M 761.641832,705.214781 l 0.000000,31.084242 M 766.641832,549.341107 l 0.000000,-6.082312 M 766.641832,561.443268 l 0.000000,7.240913 M 766.641832,688.895320 l 0.000000,-42.012503 M 766.641832,708.425937 l 0.000000,29.550332 M 771.641832,568.835164 l 0.000000,-7.813177 M 771.641832,645.267429 l 0.000000,38.665576 M 771.641832,739.554920 l 0.000000,-30.718645 M 776.641832,560.844169 l 0.000000,8.386371 M 776.641832,619.666670 l 0.000000,-0.023081 M 776.641832,645.233231 l 0.000000,35.001223 M 776.641832,739.861500 l 0.000000,-35.301942 M 781.641832,569.386036 l 0.000000,1.331251 M 781.641832,619.666670 l 0.000000,-4.376460 M 781.641832,645.363556 l 0.000000,34.648756 M 781.641832,727.873461 l 0.000000,-19.890627 M 781.641832,729.669584 l 0.000000,10.333769 M 786.641832,619.402776 l 0.000000,-7.723154 M 786.641832,645.617086 l 0.000000,36.060952 M 786.641832,727.326615 l 0.000000,-23.354141 M 786.641832,732.226298 l 0.000000,7.868827 M 791.641832,617.034396 l 0.000000,-6.881488 M 791.641832,630.361184 l 0.000000,1.449502 M 791.641832,727.474977 l 0.000000,-81.582455 M 791.641832,733.651099 l 0.000000,6.728431 M 791.641832,769.469486 l 0.000000,-12.919342 M 796.641832,609.702048 l 0.000000,5.974009 M 796.641832,631.217102 l 0.000000,-3.059429 M 796.641832,648.296094 l 0.000000,74.007288 M 796.641832,741.216348 l 0.000000,-3.704032 M 796.641832,747.538029 l 0.000000,16.887630 M 801.641832,569.279911 l 0.000000,-1.026160 M 801.641832,608.545542 l 0.000000,7.774782 M 801.641832,628.770377 l 0.000000,-2.529540 M 801.641832,652.668776 l 0.000000,60.915901 M 801.641832,747.559466 l 0.000000,-10.105685 M 801.641832,748.865619 l 0.000000,8.858580 M 806.641832,569.544961 l 0.000000,-3.332335 M 806.641832,610.350946 l 0.000000,6.174223 M 806.641832,628.834878 l 0.000000,-10.030694 M 806.641832,657.310905 l 0.000000,42.051122 M 806.641832,707.309919 l 0.000000,-3.665211 M 806.641832,737.567478 l 0.000000,12.073509 M 811.641832,571.609756 l 0.000000,-4.131595 M 811.641832,611.094087 l 0.000000,7.173059 M 811.641832,639.974010 l 0.000000,-17.111187 M 811.641832,670.749571 l 0.000000,29.196946 M 816.641832,643.346177 l 0.000000,-32.689246 M 816.641832,672.614308 l 0.000000,8.789030 M 821.641832,648.424004 l 0.000000,-37.261984 M 821.641832,677.188334 l 0.000000,2.599495 M 826.641832,638.490207 l 0.000000,-23.696086 M 826.641832,643.661793 l 0.000000,11.417814 M 826.641832,708.395720 l 0.000000,-4.664511 M 826.641832,715.077758 l 0.000000,4.946608 M 831.641832,637.551035 l 0.000000,-13.872061 M 831.641832,642.688790 l 0.000000,17.152698 M 831.641832,695.564239 l 0.000000,-6.431357 M 831.641832,702.632098 l 0.000000,16.695373 M 836.641832,664.599914 l 0.000000,-33.977585 M 836.641832,691.594307 l 0.000000,2.155732 M 836.641832,705.771095 l 0.000000,-1.792149 M 836.641832,713.004792 l 0.000000,2.532720 M 836.641832,724.390804 l 0.000000,-3.551526 M 841.641832,639.037048 l 0.000000,25.295451 M 846.641832,663.677170 l 0.000000,-14.859425 M 846.641832,682.650560 l 0.000000,8.880988 M 846.641832,700.876950 l 0.000000,-2.894534 M 851.641832,607.194633 l 0.000000,15.032129 M 851.641832,662.089867 l 0.000000,-15.206547 M 851.641832,680.511277 l 0.000000,11.211883 M 856.641832,621.184313 l 0.000000,-11.535752 M 856.641832,645.091660 l 0.000000,22.990471 M 861.641832,585.707139 l 0.000000,-1.497273 M 861.641832,611.458733 l 0.000000,0.969502 M 861.641832,665.268384 l 0.000000,-20.086696 M 861.641832,697.269559 l 0.000000,0.266573 M 866.641832,659.339485 l 0.000000,-6.303014 M 866.641832,697.318057 l 0.000000,0.490059 M 866.641832,705.227017 l 0.000000,-2.166619 M 871.641832,699.712704 l 0.000000,8.199395 M 871.641832,716.820748 l 0.000000,-5.254476 M 876.641832,675.387551 l 0.000000,1.417520 M 876.641832,689.165765 l 0.000000,-3.252212 M 876.641832,693.583177 l 0.000000,0.202378 M 876.641832,713.512010 l 0.000000,-6.458975 M 881.641832,611.813706 l 0.000000,4.272924 M 881.641832,666.632636 l 0.000000,-2.024551 M 881.641832,672.018082 l 0.000000,6.141120 M 881.641832,702.590753 l 0.000000,-21.561688 M 886.641832,662.685853 l 0.000000,35.623221 M 891.641832,659.083737 l 0.000000,-5.058217 M 891.641832,661.043178 l 0.000000,2.890525 M 891.641832,694.861257 l 0.000000,-18.253783 M 896.641832,647.061888 l 0.000000,7.158155 M 896.641832,688.419648 l 0.000000,-5.244323 M 901.641832,651.123701 l 0.000000,3.140469 M 901.641832,685.829844 l 0.000000,-0.705908 M 901.641832,721.038452 l 0.000000,2.291633 M 901.641832,730.301648 l 0.000000,-1.629712 M 906.641832,683.017074 l 0.000000,1.612069 M 906.641832,725.719410 l 0.000000,-2.917582 M 906.641832,731.174321 l 0.000000,6.027084 M 911.641832,677.625971 l 0.000000,-3.347293 M 911.641832,681.358145 l 0.000000,2.219349 M 911.641832,739.443880 l 0.000000,-19.319959 M 916.641832,624.916825 l 0.000000,10.663181 M 916.641832,677.613035 l 0.000000,-10.897192 M 916.641832,680.465019 l 0.000000,0.604828 M 916.641832,740.265055 l 0.000000,-22.759320 M 921.641832,612.142578 l 0.000000,1.937635 M 921.641832,636.906980 l 0.000000,-15.450351 M 921.641832,662.690367 l 0.000000,11.744440 M 921.641832,741.238449 l 0.000000,-20.250188 M 926.641832,623.487861 l 0.000000,17.279091 M 926.641832,708.501096 l 0.000000,-2.002192 M 926.641832,718.016961 l 0.000000,23.854490 M 931.641832,643.942719 l 0.000000,-7.564153 M 931.641832,706.286852 l 0.000000,2.426295 M 931.641832,742.481412 l 0.000000,-23.977556 M 936.641832,617.975475 l 0.000000,2.039699 M 936.641832,644.796800 l 0.000000,-2.752653 M 936.641832,708.292056 l 0.000000,0.265961 M 936.641832,743.320699 l 0.000000,-24.880499 M 941.641832,706.053097 l 0.000000,2.448475 M 941.641832,720.551572 l 0.000000,-2.349527 M 941.641832,722.773377 l 0.000000,19.498656 M 941.641832,746.163228 l 0.000000,-2.220533 M 946.641832,696.194828 l 0.000000,2.593413 M 946.641832,708.095892 l 0.000000,-3.206173 M 946.641832,724.800100 l 0.000000,22.756277 M 951.641832,698.489648 l 0.000000,-2.585878 M 951.641832,703.892657 l 0.000000,3.601246 M 951.641832,739.322271 l 0.000000,-12.562698 M 951.641832,741.592617 l 0.000000,6.028855 M 956.641832,697.867785 l 0.000000,-2.474297 M 956.641832,702.790443 l 0.000000,3.146827 M 956.641832,747.379296 l 0.000000,-18.120096 M 961.641832,694.059272 l 0.000000,2.656725 M 961.641832,704.124350 l 0.000000,-2.896685 M 961.641832,717.872396 l 0.000000,1.983446 M 961.641832,746.651950 l 0.000000,-15.019020 M 966.641832,693.163444 l 0.000000,1.962805 M 966.641832,701.388619 l 0.000000,-1.019577 M 966.641832,717.179480 l 0.000000,2.590188 M 966.641832,745.598259 l 0.000000,-12.693417 M 971.641832,716.748276 l 0.000000,2.456255 M 971.641832,744.188140 l 0.000000,-10.708400 M 976.641832,691.721441 l 0.000000,2.989108 M 976.641832,718.321589 l 0.000000,-3.449032 M 976.641832,724.386601 l 0.000000,0.906921 M 976.641832,742.269683 l 0.000000,-7.298895 M 981.641832,690.163396 l 0.000000,5.296472 M 981.641832,726.993447 l 0.000000,-5.142254 M 986.641832,688.257400 l 0.000000,6.781731 M 986.641832,731.727790 l 0.000000,-12.479243 M 986.641832,740.314902 l 0.000000,3.286590 M 991.641832,693.012799 l 0.000000,-6.105327 M 991.641832,717.504880 l 0.000000,6.313058 M 991.641832,743.839103 l 0.000000,-18.542267 M 996.641832,685.416353 l 0.000000,3.895771 M 996.641832,707.320434 l 0.000000,-2.873828 M 996.641832,718.837976 l 0.000000,13.077544 M 996.641832,742.983517 l 0.000000,-9.085765 M 1001.641832,683.340544 l 0.000000,3.190393 M 1001.641832,707.190086 l 0.000000,-3.905038 M 1001.641832,722.750525 l 0.000000,6.505874 M 1001.641832,741.046747 l 0.000000,-7.817265 M 1006.641832,681.568004 l 0.000000,2.620345 M 1006.641832,708.737088 l 0.000000,-6.113956 M 1006.641832,733.264388 l 0.000000,4.207414 M 1011.641832,681.901381 l 0.000000,-1.867680 M 1011.641832,702.211639 l 0.000000,6.572718 M 1016.641832,708.188206 l 0.000000,-6.268377 M 1021.641832,701.628020 l 0.000000,5.461549 M 1026.641832,705.964873 l 0.000000,-4.640160 M 1026.641832,710.257466 l 0.000000,1.825675 M 1026.641832,718.852946 l 0.000000,-0.999459 M 1031.641832,700.700905 l 0.000000,3.614848 M 1031.641832,718.402510 l 0.000000,-2.417470 M 1036.641832,699.799104 l 0.000000,2.145391 M 1036.641832,717.602788 l 0.000000,-3.175214 M 1041.641832,713.436922 l 0.000000,3.110638 M 1046.641832,698.156132 l 0.000000,-1.043825 M 1046.641832,712.539344 l 0.000000,2.842996 M 1051.641832,714.052446 l 0.000000,-2.446692 M 1056.641832,710.598506 l 0.000000,2.037437 M 1061.641832,710.966927 l 0.000000,-1.375669"
       id="path5" />
  </g>
  <g
     inkscape:label="fill-2f2f2f"
     inkscape:groupmode="layer"
     id="fill-2f2f2f">
    <path
       style="stroke:#2f2f2f"
       d="M 711.270918,487.620614 l 0.000000,6.128709 M 718.270918,495.341490 l 0.000000,-15.256492 M 725.270918,533.369285 l 0.000000,13.127123 M 732.270918,571.024908 l 0.000000,-54.559192 M 739.270918,533.526896 l 0.000000,59.330248 M 739.270918,669.898615 l 0.000000,-10.002409 M 739.270918,680.434723 l 0.000000,14.076729 M 746.270918,578.323032 l 0.000000,-45.983051 M 746.270918,578.609286 l 0.000000,23.690952 M 746.270918,656.223587 l 0.000000,-11.761454 M 746.270918,670.623107 l 0.000000,40.341369 M 753.270918,541.130549 l 0.000000,-4.793462 M 753.270918,544.140411 l 0.000000,12.822980 M 753.270918,571.711989 l 0.000000,-12.935483 M 753.270918,592.245273 l 0.000000,1.560058 M 753.270918,647.225920 l 0.000000,-6.254766 M 753.270918,658.528958 l 0.000000,62.281548 M 753.270918,734.937054 l 0.000000,-2.658246 M 760.270918,541.030400 l 0.000000,3.653040 M 760.270918,555.644624 l 0.000000,-7.502213 M 760.270918,558.723678 l 0.000000,10.870033 M 760.270918,642.893357 l 0.000000,-11.070122 M 760.270918,645.526338 l 0.000000,51.669326 M 760.270918,737.646063 l 0.000000,-35.358651 M 767.270918,539.884833 l 0.000000,11.928639 M 767.270918,569.471960 l 0.000000,-8.824824 M 767.270918,597.429024 l 0.000000,0.117630 M 767.270918,632.234945 l 0.000000,-7.051963 M 767.270918,634.926760 l 0.000000,1.444565 M 767.270918,692.518275 l 0.000000,-46.600527 M 767.270918,696.250312 l 0.000000,43.470856 M 774.270918,570.867230 l 0.000000,-11.729928 M 774.270918,619.781141 l 0.000000,1.903874 M 774.270918,681.959453 l 0.000000,-40.354914 M 774.270918,704.381401 l 0.000000,36.474454 M 781.270918,510.469167 l 0.000000,-6.907740 M 781.270918,562.667432 l 0.000000,9.349802 M 781.270918,594.141887 l 0.000000,-5.245521 M 781.270918,613.704272 l 0.000000,7.055621 M 781.270918,680.879512 l 0.000000,-37.834513 M 781.270918,703.362769 l 0.000000,37.621289 M 788.270918,620.044165 l 0.000000,-10.465827 M 788.270918,643.620651 l 0.000000,85.695884 M 788.270918,741.131408 l 0.000000,-10.091948 M 795.270918,607.387575 l 0.000000,10.642707 M 795.270918,634.452842 l 0.000000,-6.883823 M 795.270918,644.928335 l 0.000000,81.853750 M 795.270918,741.456607 l 0.000000,-8.416607 M 795.270918,748.256345 l 0.000000,18.954594 M 802.270918,571.312032 l 0.000000,-4.161989 M 802.270918,574.278668 l 0.000000,1.332549 M 802.270918,636.573659 l 0.000000,-39.946958 M 802.270918,649.811194 l 0.000000,69.082052 M 802.270918,725.504992 l 0.000000,-1.953212 M 802.270918,735.499124 l 0.000000,22.659208 M 809.270918,573.386406 l 0.000000,-9.023838 M 809.270918,607.757783 l 0.000000,35.610893 M 809.270918,712.100066 l 0.000000,-56.636952 M 809.270918,721.043968 l 0.000000,6.091076 M 809.270918,747.519013 l 0.000000,-10.343084 M 816.270918,570.112573 l 0.000000,2.328221 M 816.270918,646.433185 l 0.000000,-37.919957 M 816.270918,669.795246 l 0.000000,29.564036 M 823.270918,656.607241 l 0.000000,-47.076589 M 823.270918,671.092599 l 0.000000,13.161074 M 823.270918,706.371721 l 0.000000,-12.559162 M 823.270918,713.027847 l 0.000000,9.432614 M 830.270918,661.975096 l 0.000000,-45.757354 M 830.270918,673.040054 l 0.000000,51.904147 M 837.270918,573.130508 l 0.000000,-4.260916 M 837.270918,600.262108 l 0.000000,2.403086 M 837.270918,665.618873 l 0.000000,-44.735975 M 837.270918,682.364523 l 0.000000,26.482331 M 837.270918,727.163921 l 0.000000,-16.839283 M 844.270918,569.113425 l 0.000000,3.515212 M 844.270918,624.186830 l 0.000000,-5.822408 M 844.270918,636.707217 l 0.000000,28.197022 M 844.270918,703.131267 l 0.000000,-19.885464 M 844.270918,710.140186 l 0.000000,4.073360 M 851.270918,625.222264 l 0.000000,-19.916552 M 851.270918,634.246195 l 0.000000,3.334223 M 851.270918,663.881645 l 0.000000,-20.738345 M 851.270918,678.720310 l 0.000000,23.237326 M 851.270918,715.672824 l 0.000000,-1.010752 M 858.270918,584.038163 l 0.000000,0.999839 M 858.270918,623.822067 l 0.000000,-19.217583 M 858.270918,630.357605 l 0.000000,49.641485 M 858.270918,699.545904 l 0.000000,-5.273707 M 865.270918,582.687093 l 0.000000,4.406565 M 865.270918,678.857442 l 0.000000,-33.392729 M 865.270918,695.406387 l 0.000000,4.548976 M 865.270918,712.131217 l 0.000000,-8.473284 M 872.270918,597.036175 l 0.000000,4.056731 M 872.270918,722.582310 l 0.000000,-54.583889 M 879.270918,589.829359 l 0.000000,3.233083 M 879.270918,619.379760 l 0.000000,-17.418670 M 879.270918,665.120798 l 0.000000,50.023647 M 886.270918,616.158925 l 0.000000,-6.376642 M 886.270918,660.171986 l 0.000000,41.872799 M 886.270918,720.277830 l 0.000000,-6.456900 M 886.270918,721.644284 l 0.000000,1.043712 M 893.270918,611.971117 l 0.000000,-4.391961 M 893.270918,648.505767 l 0.000000,47.682996 M 893.270918,730.909231 l 0.000000,-10.683505 M 900.270918,607.268984 l 0.000000,14.506370 M 900.270918,630.751227 l 0.000000,-1.880288 M 900.270918,643.332269 l 0.000000,19.565946 M 900.270918,688.913363 l 0.000000,-5.826309 M 900.270918,718.029418 l 0.000000,17.505739 M 907.270918,629.851858 l 0.000000,-23.070786 M 907.270918,641.321706 l 0.000000,0.678294 M 907.270918,673.643160 l 0.000000,-12.265232 M 907.270918,677.737215 l 0.000000,7.980405 M 907.270918,738.867620 l 0.000000,-23.233825 M 914.270918,605.478640 l 0.000000,13.988714 M 914.270918,639.051553 l 0.000000,-14.480419 M 914.270918,655.743776 l 0.000000,27.808109 M 914.270918,740.975126 l 0.000000,-26.573934 M 921.270918,608.924879 l 0.000000,28.608631 M 921.270918,677.538047 l 0.000000,-21.297253 M 921.270918,715.677092 l 0.000000,26.264389 M 928.270918,643.001285 l 0.000000,-30.839657 M 928.270918,704.391644 l 0.000000,6.233563 M 928.270918,743.010366 l 0.000000,-28.147160 M 935.270918,614.837600 l 0.000000,8.715966 M 935.270918,645.527348 l 0.000000,-10.859122 M 935.270918,703.332367 l 0.000000,7.822399 M 935.270918,745.539575 l 0.000000,-31.639552 M 942.270918,619.913100 l 0.000000,2.301884 M 942.270918,699.327732 l 0.000000,-3.032687 M 942.270918,704.160919 l 0.000000,6.274059 M 942.270918,714.544421 l 0.000000,-1.819161 M 942.270918,716.254497 l 0.000000,31.199510 M 949.270918,700.082157 l 0.000000,-5.169551 M 949.270918,703.144361 l 0.000000,7.072194 M 949.270918,717.644859 l 0.000000,-1.202627 M 949.270918,723.341536 l 0.000000,25.393776 M 956.270918,700.100270 l 0.000000,-6.416236 M 956.270918,700.947650 l 0.000000,8.794117 M 956.270918,720.244222 l 0.000000,-2.839440 M 956.270918,724.645481 l 0.000000,23.962760 M 963.270918,672.955727 l 0.000000,-2.768887 M 963.270918,691.838760 l 0.000000,13.947976 M 963.270918,712.448775 l 0.000000,-1.229877 M 963.270918,715.780338 l 0.000000,4.998079 M 963.270918,747.672150 l 0.000000,-22.104190 M 970.270918,667.525978 l 0.000000,3.671998 M 970.270918,681.757746 l 0.000000,-0.638290 M 970.270918,690.123933 l 0.000000,12.425265 M 970.270918,720.534835 l 0.000000,-7.094527 M 970.270918,726.699940 l 0.000000,20.013973 M 977.270918,668.557130 l 0.000000,-2.930539 M 977.270918,688.547930 l 0.000000,10.004846 M 977.270918,719.866476 l 0.000000,-8.738540 M 977.270918,722.651110 l 0.000000,24.246219 M 984.270918,701.571671 l 0.000000,-14.724971 M 984.270918,703.804012 l 0.000000,3.056655 M 984.270918,748.020539 l 0.000000,-32.700971 M 991.270918,685.064339 l 0.000000,10.503509 M 991.270918,709.069680 l 0.000000,-7.539719 M 991.270918,714.083927 l 0.000000,34.266037 M 998.270918,690.390784 l 0.000000,-7.259523 M 998.270918,700.623829 l 0.000000,9.082517 M 998.270918,747.473692 l 0.000000,-33.856473 M 1005.270918,681.071864 l 0.000000,5.182084 M 1005.270918,709.908412 l 0.000000,-9.887546 M 1005.270918,725.361079 l 0.000000,16.176363 M 1012.270918,682.878919 l 0.000000,-4.337859 M 1012.270918,689.853418 l 0.000000,1.942884 M 1012.270918,710.135234 l 0.000000,-11.306866 M 1012.270918,713.874395 l 0.000000,0.435138 M 1012.270918,740.298206 l 0.000000,-1.774079 M 1019.270918,676.591268 l 0.000000,2.793780 M 1019.270918,715.084929 l 0.000000,-16.899959 M 1019.270918,718.144339 l 0.000000,2.134688 M 1026.270918,720.991926 l 0.000000,-24.960938 M 1026.270918,723.537498 l 0.000000,3.423221 M 1026.270918,733.807603 l 0.000000,-3.022862 M 1033.270918,694.581150 l 0.000000,31.942402 M 1033.270918,732.376520 l 0.000000,-3.198239 M 1040.270918,696.622324 l 0.000000,28.710068 M 1040.270918,729.801701 l 0.000000,-1.800795 M 1047.270918,690.275126 l 0.000000,0.882877 M 1047.270918,723.609835 l 0.000000,-28.627005 M 1054.270918,693.142419 l 0.000000,6.312491 M 1054.270918,715.533918 l 0.000000,-12.682813 M 1054.270918,716.553572 l 0.000000,4.676597 M 1061.270918,694.448416 l 0.000000,-3.728801 M 1061.270918,699.854293 l 0.000000,5.844334 M 1061.270918,712.546753 l 0.000000,-4.585587 M 1061.270918,715.620027 l 0.000000,2.949792 M 1068.270918,690.135920 l 0.000000,-2.102523 M 1068.270918,707.272598 l 0.000000,2.288024 M 1075.270918,687.567608 l 0.000000,-1.487831 M 1082.270918,684.755012 l 0.000000,0.252320"
       id="path8" />
  </g>
  <g
     inkscape:label="fill-4f4f4f"
     inkscape:groupmode="layer"
     id="fill-4f4f4f">
    <path
       style="stroke:#4f4f4f"
       d="M 709.825785,487.879478 l 0.000000,4.104334 M 718.825785,511.683496 l 0.000000,-31.912167 M 727.825785,464.967513 l 0.000000,1.826778 M 727.825785,518.460781 l 0.000000,-26.917095 M 727.825785,524.791117 l 0.000000,23.738172 M 727.825785,561.410240 l 0.000000,-8.765652 M 736.825785,437.541377 l 0.000000,20.225392 M 736.825785,591.268829 l 0.000000,-81.367373 M 745.825785,494.129057 l 0.000000,1.656234 M 745.825785,602.916688 l 0.000000,-77.918497 M 745.825785,641.623734 l 0.000000,19.259042 M 745.825785,711.598188 l 0.000000,-43.452185 M 754.825785,467.651212 l 0.000000,19.554372 M 754.825785,572.346040 l 0.000000,-37.728478 M 754.825785,586.870003 l 0.000000,14.498277 M 754.825785,648.741887 l 0.000000,-12.119636 M 754.825785,655.138572 l 0.000000,84.727714 M 763.825785,493.339676 l 0.000000,-18.640613 M 763.825785,516.818324 l 0.000000,4.754519 M 763.825785,570.301428 l 0.000000,-31.930733 M 763.825785,589.953202 l 0.000000,7.498131 M 763.825785,738.641417 l 0.000000,-112.443469 M 772.825785,429.998727 l 0.000000,7.172561 M 772.825785,495.753365 l 0.000000,-6.854974 M 772.825785,500.941689 l 0.000000,1.953977 M 772.825785,517.913616 l 0.000000,-5.869242 M 772.825785,537.350693 l 0.000000,5.547930 M 772.825785,571.404947 l 0.000000,-12.816782 M 772.825785,616.905995 l 0.000000,20.161412 M 772.825785,696.269899 l 0.000000,-56.402559 M 772.825785,704.399682 l 0.000000,37.283247 M 781.825785,512.857753 l 0.000000,-14.434277 M 781.825785,523.951364 l 0.000000,1.972690 M 781.825785,572.922967 l 0.000000,-11.786046 M 781.825785,586.637930 l 0.000000,10.024914 M 781.825785,621.371775 l 0.000000,-9.140831 M 781.825785,642.177471 l 0.000000,39.392664 M 781.825785,741.980882 l 0.000000,-41.471620 M 790.825785,577.525078 l 0.000000,4.116966 M 790.825785,592.563759 l 0.000000,-2.690774 M 790.825785,606.105513 l 0.000000,13.847510 M 790.825785,633.677939 l 0.000000,-4.239863 M 790.825785,640.714610 l 0.000000,101.463973 M 790.825785,773.257532 l 0.000000,-17.794018 M 799.825785,568.038459 l 0.000000,5.237821 M 799.825785,618.130497 l 0.000000,-23.934470 M 799.825785,623.957053 l 0.000000,13.670363 M 799.825785,725.169699 l 0.000000,-79.266872 M 799.825785,736.265165 l 0.000000,25.826672 M 808.825785,575.215041 l 0.000000,-12.128214 M 808.825785,592.678870 l 0.000000,54.075484 M 808.825785,729.312770 l 0.000000,-76.659629 M 808.825785,735.405655 l 0.000000,13.637560 M 817.825785,521.628807 l 0.000000,-4.216449 M 817.825785,569.863927 l 0.000000,4.638648 M 817.825785,656.082142 l 0.000000,-49.046052 M 817.825785,661.541944 l 0.000000,4.296136 M 817.825785,699.676380 l 0.000000,-31.114451 M 817.825785,701.281569 l 0.000000,9.564394 M 817.825785,725.323040 l 0.000000,-10.522613 M 826.825785,610.381094 l 0.000000,50.305442 M 826.825785,726.442955 l 0.000000,-57.182806 M 835.825785,566.814239 l 0.000000,11.486002 M 835.825785,604.404016 l 0.000000,-10.931594 M 835.825785,611.541677 l 0.000000,54.338778 M 835.825785,728.564693 l 0.000000,-48.917816 M 844.825785,548.824980 l 0.000000,9.844592 M 844.825785,563.538038 l 0.000000,-1.413419 M 844.825785,567.706198 l 0.000000,12.719927 M 844.825785,631.315086 l 0.000000,-27.033012 M 844.825785,633.655391 l 0.000000,31.365189 M 844.825785,705.377674 l 0.000000,-23.847176 M 844.825785,706.729310 l 0.000000,14.361025 M 853.825785,556.301268 l 0.000000,-12.374985 M 853.825785,575.558417 l 0.000000,4.546378 M 853.825785,589.660963 l 0.000000,-7.175301 M 853.825785,603.682823 l 0.000000,63.307696 M 853.825785,703.729332 l 0.000000,-29.574254 M 853.825785,709.878430 l 0.000000,9.375916 M 862.825785,578.672427 l 0.000000,-3.068281 M 862.825785,581.324061 l 0.000000,8.418661 M 862.825785,692.062544 l 0.000000,-100.037399 M 862.825785,693.955866 l 0.000000,7.311711 M 862.825785,710.921619 l 0.000000,-5.285112 M 871.825785,575.679435 l 0.000000,6.421971 M 871.825785,602.787626 l 0.000000,-9.311320 M 871.825785,610.502396 l 0.000000,6.087369 M 871.825785,725.459413 l 0.000000,-73.289659 M 880.825785,585.246383 l 0.000000,38.050983 M 880.825785,717.365793 l 0.000000,-63.194881 M 889.825785,590.830053 l 0.000000,25.557336 M 889.825785,700.823699 l 0.000000,-50.334654 M 889.825785,710.054687 l 0.000000,19.899079 M 898.825785,570.844689 l 0.000000,-5.430138 M 898.825785,593.507673 l 0.000000,43.243214 M 898.825785,694.847398 l 0.000000,-54.844326 M 898.825785,715.178541 l 0.000000,20.742582 M 907.825785,645.033829 l 0.000000,-55.939791 M 907.825785,655.658236 l 0.000000,30.566708 M 907.825785,739.773803 l 0.000000,-25.580757 M 916.825785,604.520097 l 0.000000,35.333261 M 916.825785,683.025169 l 0.000000,-31.579506 M 916.825785,711.531990 l 0.000000,30.683400 M 925.825785,642.064559 l 0.000000,-41.426292 M 925.825785,660.066900 l 0.000000,12.399502 M 925.825785,711.959418 l 0.000000,-8.385834 M 925.825785,712.610716 l 0.000000,30.433934 M 934.825785,625.749085 l 0.000000,-14.838807 M 934.825785,631.801188 l 0.000000,15.540722 M 934.825785,699.898217 l 0.000000,-1.160996 M 934.825785,701.889792 l 0.000000,44.082879 M 943.825785,555.845147 l 0.000000,-1.639749 M 943.825785,620.861597 l 0.000000,1.833013 M 943.825785,701.827709 l 0.000000,-7.072473 M 943.825785,702.856020 l 0.000000,45.462739 M 952.825785,563.899509 l 0.000000,-12.413733 M 952.825785,693.127208 l 0.000000,56.303459 M 961.825785,482.420601 l 0.000000,-8.260123 M 961.825785,550.511199 l 0.000000,1.811354 M 961.825785,673.897454 l 0.000000,-7.946051 M 961.825785,689.801334 l 0.000000,31.540430 M 961.825785,748.576246 l 0.000000,-24.805001 M 970.825785,508.069093 l 0.000000,4.566578 M 970.825785,672.164561 l 0.000000,-9.525126 M 970.825785,679.624885 l 0.000000,3.388936 M 970.825785,705.549024 l 0.000000,-17.194160 M 970.825785,706.851109 l 0.000000,14.240599 M 970.825785,747.410062 l 0.000000,-23.881373 M 979.825785,505.494306 l 0.000000,3.329560 M 979.825785,668.618340 l 0.000000,-8.930610 M 979.825785,676.917662 l 0.000000,2.968715 M 979.825785,748.969444 l 0.000000,-62.598879 M 988.825785,503.186011 l 0.000000,2.564068 M 988.825785,664.941598 l 0.000000,-7.446868 M 988.825785,673.953095 l 0.000000,2.296091 M 988.825785,749.743025 l 0.000000,-65.430120 M 997.825785,499.897395 l 0.000000,3.306916 M 997.825785,660.872317 l 0.000000,-2.755794 M 997.825785,681.891670 l 0.000000,10.441472 M 997.825785,749.655818 l 0.000000,-50.820376 M 1006.825785,494.478531 l 0.000000,3.269086 M 1006.825785,669.246105 l 0.000000,-1.921351 M 1006.825785,679.251927 l 0.000000,10.448938 M 1006.825785,711.036737 l 0.000000,-11.758222 M 1006.825785,714.257118 l 0.000000,0.646045 M 1006.825785,741.979546 l 0.000000,-15.432434 M 1015.825785,676.698053 l 0.000000,5.875472 M 1015.825785,692.223183 l 0.000000,-5.011998 M 1015.825785,696.676025 l 0.000000,19.194829 M 1015.825785,720.935037 l 0.000000,-2.547400 M 1015.825785,725.700685 l 0.000000,1.393472 M 1015.825785,740.407224 l 0.000000,-3.016561 M 1024.825785,674.334441 l 0.000000,3.178377 M 1024.825785,688.011125 l 0.000000,-3.385196 M 1024.825785,694.318087 l 0.000000,33.856630 M 1024.825785,735.683622 l 0.000000,-6.124975 M 1033.825785,503.268027 l 0.000000,2.631234 M 1033.825785,684.419745 l 0.000000,-2.800593 M 1033.825785,691.963299 l 0.000000,42.169604 M 1042.825785,500.979691 l 0.000000,-1.357397 M 1042.825785,679.475006 l 0.000000,1.443370 M 1042.825785,730.522762 l 0.000000,-41.386596 M 1051.825785,687.140534 l 0.000000,3.702655 M 1051.825785,726.113679 l 0.000000,-33.328628 M 1060.825785,689.643365 l 0.000000,7.536324 M 1060.825785,719.887511 l 0.000000,-22.192760 M 1069.825785,686.569035 l 0.000000,5.749145 M 1069.825785,702.051753 l 0.000000,-6.345595 M 1069.825785,705.595657 l 0.000000,4.164327 M 1069.825785,714.572506 l 0.000000,-0.532550 M 1069.825785,720.253557 l 0.000000,0.620731 M 1078.825785,688.373317 l 0.000000,-4.192767 M 1078.825785,693.308435 l 0.000000,2.079950 M 1087.825785,684.559305 l 0.000000,-2.116853 M 1105.825785,680.130905 l 0.000000,3.298219"
       id="path11" />
  </g>
  <g
     inkscape:label="fill-707070"
     inkscape:groupmode="layer"
     id="fill-707070">
    <path
       style="stroke:#707070"
       d="M 709.631618,488.233005 l 0.000000,4.825065 M 720.631618,462.733003 l 0.000000,-24.237965 M 720.631618,480.710104 l 0.000000,32.956600 M 731.631618,464.073762 l 0.000000,-5.354839 M 731.631618,482.175107 l 0.000000,90.919050 M 742.631618,458.292756 l 0.000000,-40.969618 M 742.631618,485.268466 l 0.000000,1.347950 M 742.631618,600.081272 l 0.000000,-108.845617 M 742.631618,639.198373 l 0.000000,32.999040 M 742.631618,707.988955 l 0.000000,-33.327520 M 753.631618,435.344526 l 0.000000,54.503290 M 753.631618,604.967747 l 0.000000,-75.986460 M 753.631618,633.950735 l 0.000000,16.187507 M 753.631618,737.515973 l 0.000000,-83.567200 M 764.631618,445.699237 l 0.000000,51.372704 M 764.631618,524.624982 l 0.000000,-10.855749 M 764.631618,533.898735 l 0.000000,37.862622 M 764.631618,601.019884 l 0.000000,-12.820330 M 764.631618,622.769514 l 0.000000,116.705814 M 775.631618,519.471456 l 0.000000,-36.516817 M 775.631618,522.174612 l 0.000000,20.141251 M 775.631618,573.171476 l 0.000000,-15.959085 M 775.631618,589.360007 l 0.000000,7.638428 M 775.631618,623.502391 l 0.000000,-11.239214 M 775.631618,634.651913 l 0.000000,47.785882 M 775.631618,698.186188 l 0.000000,-12.452547 M 775.631618,698.268721 l 0.000000,43.666569 M 786.631618,507.566136 l 0.000000,-20.881895 M 786.631618,518.138109 l 0.000000,17.945385 M 786.631618,598.457806 l 0.000000,-18.324213 M 786.631618,605.681179 l 0.000000,16.950391 M 786.631618,742.094143 l 0.000000,-101.674333 M 797.631618,479.321294 l 0.000000,16.393729 M 797.631618,523.380714 l 0.000000,-4.143507 M 797.631618,568.907602 l 0.000000,18.461612 M 797.631618,619.037491 l 0.000000,-24.206015 M 797.631618,624.701511 l 0.000000,15.198345 M 797.631618,765.824054 l 0.000000,-122.089207 M 808.631618,481.159111 l 0.000000,3.308929 M 808.631618,576.593550 l 0.000000,-13.499030 M 808.631618,580.412849 l 0.000000,1.192047 M 808.631618,732.197163 l 0.000000,-142.072628 M 808.631618,733.696116 l 0.000000,16.407906 M 819.631618,522.866797 l 0.000000,-10.925293 M 819.631618,569.783828 l 0.000000,5.553759 M 819.631618,593.588458 l 0.000000,-3.196691 M 819.631618,604.982271 l 0.000000,53.084022 M 819.631618,728.468390 l 0.000000,-68.619125 M 830.631618,530.647183 l 0.000000,6.103484 M 830.631618,577.260786 l 0.000000,-11.759309 M 830.631618,588.842396 l 0.000000,11.752806 M 830.631618,729.473758 l 0.000000,-125.652930 M 841.631618,549.614057 l 0.000000,31.014902 M 841.631618,666.241507 l 0.000000,-83.856282 M 841.631618,678.600572 l 0.000000,49.327642 M 852.631618,564.403526 l 0.000000,-21.943445 M 852.631618,574.046961 l 0.000000,19.020915 M 852.631618,666.199758 l 0.000000,-63.661573 M 852.631618,674.209945 l 0.000000,46.915838 M 863.631618,551.429147 l 0.000000,-9.234792 M 863.631618,573.833170 l 0.000000,139.675053 M 863.631618,723.520913 l 0.000000,-6.523234 M 874.631618,549.446331 l 0.000000,4.068132 M 874.631618,622.412839 l 0.000000,-52.287618 M 874.631618,629.379979 l 0.000000,10.112317 M 874.631618,730.006197 l 0.000000,-81.462418 M 885.631618,562.945970 l 0.000000,8.266693 M 885.631618,626.527589 l 0.000000,-49.674024 M 885.631618,638.842309 l 0.000000,94.244786 M 896.631618,582.627322 l 0.000000,-18.707269 M 896.631618,585.316791 l 0.000000,112.969292 M 896.631618,701.789761 l 0.000000,-1.835233 M 896.631618,711.634301 l 0.000000,23.951041 M 907.631618,575.117301 l 0.000000,-8.967866 M 907.631618,577.280691 l 0.000000,109.599373 M 907.631618,740.253031 l 0.000000,-27.573271 M 918.631618,527.141330 l 0.000000,3.456998 M 918.631618,584.861961 l 0.000000,-16.036801 M 918.631618,596.523163 l 0.000000,85.947026 M 918.631618,742.688708 l 0.000000,-33.794033 M 929.631618,529.165364 l 0.000000,8.142381 M 929.631618,570.438155 l 0.000000,-2.266151 M 929.631618,588.760664 l 0.000000,4.949946 M 929.631618,670.641260 l 0.000000,-69.200033 M 929.631618,697.085325 l 0.000000,47.619692 M 940.631618,515.691090 l 0.000000,-13.425012 M 940.631618,552.265674 l 0.000000,6.815669 M 940.631618,578.966763 l 0.000000,-8.365773 M 940.631618,608.974079 l 0.000000,17.329137 M 940.631618,647.121605 l 0.000000,-14.096349 M 940.631618,694.884603 l 0.000000,53.290138 M 951.631618,499.596282 l 0.000000,-9.472767 M 951.631618,504.039293 l 0.000000,2.798726 M 951.631618,520.543642 l 0.000000,-6.096552 M 951.631618,523.699841 l 0.000000,4.540738 M 951.631618,571.171027 l 0.000000,-28.558521 M 951.631618,692.152301 l 0.000000,57.802162 M 962.631618,486.802714 l 0.000000,-19.470461 M 962.631618,502.101444 l 0.000000,8.101809 M 962.631618,521.968176 l 0.000000,-8.882748 M 962.631618,532.347078 l 0.000000,6.722067 M 962.631618,557.641026 l 0.000000,-14.910328 M 962.631618,664.193533 l 0.000000,10.774096 M 962.631618,722.203811 l 0.000000,-36.685644 M 962.631618,722.708465 l 0.000000,26.321940 M 973.631618,473.811715 l 0.000000,-24.596374 M 973.631618,492.351250 l 0.000000,22.911725 M 973.631618,545.754617 l 0.000000,-5.535841 M 973.631618,660.359247 l 0.000000,11.660540 M 973.631618,749.001169 l 0.000000,-71.210746 M 984.631618,446.937581 l 0.000000,14.706841 M 984.631618,499.785668 l 0.000000,-4.417400 M 984.631618,502.628104 l 0.000000,11.954055 M 984.631618,529.513185 l 0.000000,-1.063056 M 984.631618,656.299561 l 0.000000,11.405101 M 984.631618,679.347450 l 0.000000,-5.646861 M 984.631618,683.165019 l 0.000000,66.779537 M 995.631618,508.691805 l 0.000000,-9.481523 M 995.631618,653.334377 l 0.000000,9.851536 M 995.631618,674.607555 l 0.000000,-4.789101 M 995.631618,680.924572 l 0.000000,69.123794 M 1006.631618,502.753771 l 0.000000,-9.424798 M 1006.631618,513.681909 l 0.000000,3.680927 M 1006.631618,659.343209 l 0.000000,-7.095454 M 1006.631618,666.507395 l 0.000000,3.827431 M 1006.631618,691.071223 l 0.000000,-12.574740 M 1006.631618,698.612381 l 0.000000,17.574542 M 1006.631618,742.896848 l 0.000000,-23.306684 M 1006.631618,747.545293 l 0.000000,2.179427 M 1017.631618,496.687861 l 0.000000,-8.952712 M 1017.631618,508.054054 l 0.000000,5.308996 M 1017.631618,722.138181 l 0.000000,-47.020765 M 1017.631618,724.043147 l 0.000000,4.134620 M 1017.631618,740.797753 l 0.000000,-9.556796 M 1017.631618,746.886112 l 0.000000,1.793319 M 1028.631618,489.058849 l 0.000000,-7.760992 M 1028.631618,505.097795 l 0.000000,4.135481 M 1028.631618,677.663096 l 0.000000,-6.024122 M 1028.631618,681.963111 l 0.000000,5.861616 M 1028.631618,738.344087 l 0.000000,-47.478571 M 1039.631618,477.944668 l 0.000000,5.822337 M 1039.631618,505.202371 l 0.000000,-5.814988 M 1039.631618,678.572623 l 0.000000,5.049200 M 1039.631618,735.397266 l 0.000000,-47.685272 M 1050.631618,494.666873 l 0.000000,2.818562 M 1050.631618,679.699450 l 0.000000,-3.849240 M 1050.631618,684.879799 l 0.000000,43.660399 M 1061.631618,498.849322 l 0.000000,-5.687277 M 1061.631618,675.370002 l 0.000000,0.469580 M 1061.631618,723.869335 l 0.000000,-41.344019 M 1072.631618,680.437211 l 0.000000,3.134482 M 1072.631618,703.194674 l 0.000000,-19.254710 M 1072.631618,704.105183 l 0.000000,5.377722 M 1072.631618,714.036271 l 0.000000,-3.357080 M 1072.631618,717.869576 l 0.000000,2.961857 M 1083.631618,687.631735 l 0.000000,-5.498142 M 1083.631618,690.576074 l 0.000000,6.914708 M 1083.631618,710.138840 l 0.000000,-2.031664 M 1083.631618,714.726389 l 0.000000,3.067140 M 1094.631618,682.851000 l 0.000000,-2.251790 M 1094.631618,687.498159 l 0.000000,6.549494 M 1094.631618,699.813848 l 0.000000,-0.472195 M 1094.631618,704.694947 l 0.000000,2.610075 M 1094.631618,714.573495 l 0.000000,-2.979210 M 1105.631618,679.103269 l 0.000000,13.225889 M 1105.631618,698.045197 l 0.000000,-1.392766 M 1105.631618,702.083826 l 0.000000,2.496597 M 1105.631618,711.115811 l 0.000000,-1.957289 M 1116.631618,686.225348 l 0.000000,4.736311 M 1116.631618,701.863071 l 0.000000,-1.602972"
       id="path14" />
  </g>
  <g
     inkscape:label="fill-8f8f8f"
     inkscape:groupmode="layer"
     id="fill-8f8f8f">
    <path
       style="stroke:#8f8f8f"
       d="M 719.238803,428.046467 l 0.000000,32.091111 M 719.238803,514.613565 l 0.000000,-38.305279 M 719.238803,519.344511 l 0.000000,5.455707 M 732.238803,404.356495 l 0.000000,-35.427622 M 732.238803,443.290123 l 0.000000,5.309741 M 732.238803,467.261814 l 0.000000,-10.907545 M 732.238803,479.995349 l 0.000000,98.197936 M 745.238803,480.386843 l 0.000000,-74.526561 M 745.238803,485.773823 l 0.000000,118.334628 M 745.238803,712.789488 l 0.000000,-85.903561 M 758.238803,402.091539 l 0.000000,102.623838 M 758.238803,603.074941 l 0.000000,-76.136857 M 758.238803,614.765255 l 0.000000,1.225556 M 758.238803,746.405322 l 0.000000,-120.161778 M 771.238803,414.491618 l 0.000000,159.573089 M 771.238803,741.709725 l 0.000000,-153.368478 M 784.238803,450.906136 l 0.000000,10.213676 M 784.238803,541.095786 l 0.000000,-59.900974 M 784.238803,561.705407 l 0.000000,12.015543 M 784.238803,623.046587 l 0.000000,-41.295966 M 784.238803,631.151015 l 0.000000,110.936449 M 797.238803,503.137984 l 0.000000,-43.565685 M 797.238803,518.530470 l 0.000000,9.458475 M 797.238803,619.424659 l 0.000000,-51.113344 M 797.238803,623.331687 l 0.000000,143.436024 M 810.238803,483.455855 l 0.000000,-15.147685 M 810.238803,561.850547 l 0.000000,20.528025 M 810.238803,749.017064 l 0.000000,-161.947403 M 823.238803,492.795973 l 0.000000,2.387256 M 823.238803,525.118401 l 0.000000,-15.548649 M 823.238803,568.599211 l 0.000000,7.778922 M 823.238803,730.894206 l 0.000000,-144.617185 M 836.238803,517.343275 l 0.000000,2.101540 M 836.238803,541.951077 l 0.000000,-4.909648 M 836.238803,551.938798 l 0.000000,29.029051 M 836.238803,667.536918 l 0.000000,-84.342698 M 836.238803,670.097687 l 0.000000,5.117533 M 836.238803,729.948593 l 0.000000,-52.429056 M 849.238803,535.733937 l 0.000000,3.024931 M 849.238803,666.227528 l 0.000000,-124.651785 M 849.238803,677.151733 l 0.000000,50.301338 M 862.238803,725.339435 l 0.000000,-188.379084 M 875.238803,537.356188 l 0.000000,194.404795 M 888.238803,536.016226 l 0.000000,-8.514000 M 888.238803,545.773397 l 0.000000,191.150091 M 901.238803,525.824131 l 0.000000,-5.851524 M 901.238803,531.094382 l 0.000000,3.267111 M 901.238803,705.039331 l 0.000000,-143.249930 M 901.238803,709.419106 l 0.000000,29.207863 M 914.238803,549.885459 l 0.000000,-34.453667 M 914.238803,563.309086 l 0.000000,122.244625 M 914.238803,742.467351 l 0.000000,-41.140442 M 927.238803,502.070919 l 0.000000,41.008371 M 927.238803,547.278762 l 0.000000,-0.589986 M 927.238803,553.522566 l 0.000000,8.707849 M 927.238803,675.134880 l 0.000000,-111.435071 M 927.238803,697.124038 l 0.000000,47.648484 M 940.238803,590.033381 l 0.000000,-110.190823 M 940.238803,592.282159 l 0.000000,71.899375 M 940.238803,748.546222 l 0.000000,-54.556680 M 953.238803,476.048445 l 0.000000,96.865594 M 953.238803,625.582660 l 0.000000,-13.906794 M 953.238803,689.946604 l 0.000000,60.255150 M 966.238803,557.227675 l 0.000000,-103.669736 M 966.238803,645.990907 l 0.000000,4.995314 M 966.238803,676.301060 l 0.000000,-14.142111 M 966.238803,677.744906 l 0.000000,72.087422 M 979.238803,477.011156 l 0.000000,-36.420654 M 979.238803,479.275316 l 0.000000,42.601341 M 979.238803,533.473958 l 0.000000,-10.194676 M 979.238803,541.074364 l 0.000000,4.852227 M 979.238803,671.035471 l 0.000000,-16.610650 M 979.238803,673.259289 l 0.000000,76.912238 M 992.238803,453.281634 l 0.000000,-1.064317 M 992.238803,468.511991 l 0.000000,15.281868 M 992.238803,518.755720 l 0.000000,-31.859290 M 992.238803,524.201396 l 0.000000,0.890182 M 992.238803,665.647629 l 0.000000,-15.006550 M 992.238803,669.265587 l 0.000000,81.024396 M 1005.238803,467.883500 l 0.000000,-4.779219 M 1005.238803,492.947691 l 0.000000,27.096748 M 1005.238803,661.918860 l 0.000000,-12.332032 M 1005.238803,665.732833 l 0.000000,6.305716 M 1005.238803,691.188267 l 0.000000,-14.037337 M 1005.238803,697.719259 l 0.000000,19.392264 M 1005.238803,744.308248 l 0.000000,-25.342701 M 1005.238803,746.627254 l 0.000000,3.572448 M 1018.238803,500.255194 l 0.000000,-16.802153 M 1018.238803,506.324397 l 0.000000,8.667639 M 1018.238803,657.043349 l 0.000000,-6.530922 M 1018.238803,662.616148 l 0.000000,5.001681 M 1018.238803,749.777421 l 0.000000,-76.132467 M 1031.238803,477.028064 l 0.000000,18.197366 M 1031.238803,510.144151 l 0.000000,-9.261321 M 1031.238803,658.409812 l 0.000000,3.801458 M 1031.238803,740.360878 l 0.000000,-72.142044 M 1031.238803,744.292341 l 0.000000,3.718182 M 1044.238803,493.298534 l 0.000000,-16.227215 M 1044.238803,496.272170 l 0.000000,9.372701 M 1044.238803,671.013039 l 0.000000,-3.715272 M 1044.238803,675.108080 l 0.000000,62.510138 M 1057.238803,501.753003 l 0.000000,-15.101733 M 1057.238803,670.942405 l 0.000000,8.597421 M 1057.238803,726.225729 l 0.000000,-45.418497 M 1057.238803,728.566770 l 0.000000,5.765377 M 1070.238803,498.221765 l 0.000000,-4.596125 M 1070.238803,670.596476 l 0.000000,5.854734 M 1070.238803,716.587086 l 0.000000,-37.565752 M 1070.238803,717.757548 l 0.000000,5.104598 M 1070.238803,727.144599 l 0.000000,-1.960656 M 1083.238803,673.093185 l 0.000000,26.028446 M 1083.238803,704.687167 l 0.000000,-3.891188 M 1083.238803,707.617084 l 0.000000,3.448807 M 1083.238803,718.814071 l 0.000000,-4.804444 M 1083.238803,725.902718 l 0.000000,2.286578 M 1096.238803,683.548294 l 0.000000,-4.905434 M 1096.238803,685.938846 l 0.000000,8.751987 M 1096.238803,701.106099 l 0.000000,-3.194382 M 1096.238803,703.313831 l 0.000000,4.516854 M 1096.238803,715.080235 l 0.000000,-5.090692 M 1109.238803,678.463845 l 0.000000,14.589566 M 1109.238803,698.576575 l 0.000000,-3.322187 M 1109.238803,700.304493 l 0.000000,4.680974 M 1109.238803,711.313609 l 0.000000,-4.006849 M 1122.238803,684.935550 l 0.000000,7.240714 M 1122.238803,702.429367 l 0.000000,-8.084776 M 1135.238803,689.709164 l 0.000000,1.611753 M 1135.238803,700.308672 l 0.000000,-3.409802 M 1148.238803,697.371551 l 0.000000,0.085978"
       id="path17" />
  </g>
  <g
     inkscape:label="fill-adadad"
     inkscape:groupmode="layer"
     id="fill-adadad">
    <path
       style="stroke:#adadad"
       d="M 713.959804,478.467636 l 0.000000,37.956716 M 728.959804,568.046461 l 0.000000,-182.521924 M 743.959804,368.488915 l 0.000000,12.996000 M 743.959804,603.410493 l 0.000000,-198.123238 M 743.959804,625.996004 l 0.000000,85.781289 M 758.959804,604.569516 l 0.000000,-208.382931 M 758.959804,609.158828 l 0.000000,136.817272 M 773.959804,580.483749 l 0.000000,-164.738258 M 773.959804,583.910596 l 0.000000,158.934106 M 788.959804,541.153949 l 0.000000,-115.518471 M 788.959804,571.836743 l 0.000000,51.222916 M 788.959804,743.103602 l 0.000000,-116.625238 M 788.959804,756.307062 l 0.000000,20.617566 M 803.959804,496.522242 l 0.000000,-46.361672 M 803.959804,513.834394 l 0.000000,7.615373 M 803.959804,758.601885 l 0.000000,-194.907522 M 818.959804,481.877071 l 0.000000,22.708630 M 818.959804,526.677509 l 0.000000,-16.733751 M 818.959804,558.776784 l 0.000000,178.410008 M 833.959804,504.592094 l 0.000000,-12.016381 M 833.959804,510.807949 l 0.000000,30.622657 M 833.959804,731.296083 l 0.000000,-179.407119 M 848.959804,531.933769 l 0.000000,137.109419 M 848.959804,728.620392 l 0.000000,-56.882859 M 863.959804,522.330874 l 0.000000,2.530502 M 863.959804,727.484342 l 0.000000,-192.827993 M 878.959804,526.424934 l 0.000000,209.070829 M 893.959804,737.780287 l 0.000000,-219.182644 M 908.959804,512.368730 l 0.000000,175.719546 M 908.959804,741.678264 l 0.000000,-50.695422 M 923.959804,497.105243 l 0.000000,182.081424 M 923.959804,744.780715 l 0.000000,-47.971842 M 938.959804,477.706046 l 0.000000,188.621533 M 938.959804,748.640668 l 0.000000,-55.919496 M 953.959804,439.084637 l 0.000000,4.785822 M 953.959804,574.140784 l 0.000000,-123.067163 M 953.959804,609.282660 l 0.000000,20.515320 M 953.959804,667.926429 l 0.000000,-2.780719 M 953.959804,687.746134 l 0.000000,63.068592 M 968.959804,557.604227 l 0.000000,-114.371012 M 968.959804,643.563944 l 0.000000,7.173911 M 968.959804,750.819683 l 0.000000,-90.369022 M 983.959804,441.550055 l 0.000000,103.756505 M 983.959804,751.323042 l 0.000000,-101.802437 M 998.959804,454.944368 l 0.000000,78.436004 M 998.959804,751.661340 l 0.000000,-105.723422 M 1013.959804,457.082846 l 0.000000,10.752314 M 1013.959804,519.353934 l 0.000000,-36.260215 M 1013.959804,647.590746 l 0.000000,103.380033 M 1028.959804,512.787372 l 0.000000,-35.897888 M 1028.959804,652.891562 l 0.000000,96.367989 M 1043.959804,507.523185 l 0.000000,-31.536911 M 1043.959804,659.794677 l 0.000000,4.806990 M 1043.959804,746.274675 l 0.000000,-81.316783 M 1058.959804,484.789050 l 0.000000,18.340083 M 1058.959804,664.802427 l 0.000000,-0.942759 M 1058.959804,668.129988 l 0.000000,68.860318 M 1073.959804,499.084066 l 0.000000,-5.169798 M 1073.959804,669.135618 l 0.000000,45.757037 M 1073.959804,729.716097 l 0.000000,-13.855611 M 1088.959804,672.706629 l 0.000000,24.708300 M 1088.959804,710.538175 l 0.000000,-11.332464 M 1088.959804,710.824587 l 0.000000,7.491524 M 1088.959804,727.805998 l 0.000000,-7.696201 M 1103.959804,676.247182 l 0.000000,38.068648 M 1103.959804,722.527472 l 0.000000,-6.555429 M 1118.959804,682.165467 l 0.000000,26.945110 M 1133.959804,703.852582 l 0.000000,-16.135623 M 1148.959804,695.333497 l 0.000000,4.059876"
       id="path20" />
  </g>
  <g
     inkscape:label="fill-cecece"
     inkscape:groupmode="layer"
     id="fill-cecece">
    <path
       style="stroke:#cecece"
       d="M 722.789140,357.934075 l 0.000000,197.643943 M 739.789140,401.069780 l 0.000000,-41.797513 M 739.789140,408.440671 l 0.000000,190.631515 M 739.789140,708.940357 l 0.000000,-69.225368 M 756.789140,388.434152 l 0.000000,364.595232 M 773.789140,743.458389 l 0.000000,-330.557126 M 790.789140,424.649616 l 0.000000,120.818568 M 790.789140,564.352414 l 0.000000,-6.372449 M 790.789140,568.674794 l 0.000000,54.068663 M 790.789140,744.343916 l 0.000000,-118.457967 M 790.789140,751.525856 l 0.000000,24.658506 M 807.789140,492.831767 l 0.000000,-41.220784 M 807.789140,507.912529 l 0.000000,22.370835 M 807.789140,552.219099 l 0.000000,-2.694219 M 807.789140,558.068108 l 0.000000,196.709234 M 824.789140,528.095109 l 0.000000,-48.454671 M 824.789140,532.313081 l 0.000000,6.963246 M 824.789140,734.209461 l 0.000000,-179.333168 M 841.789140,525.598301 l 0.000000,205.671656 M 858.789140,727.262192 l 0.000000,-206.911898 M 875.789140,514.695571 l 0.000000,4.633722 M 875.789140,734.813569 l 0.000000,-209.010228 M 892.789140,510.987705 l 0.000000,228.782217 M 909.789140,742.723569 l 0.000000,-234.592523 M 926.789140,490.893582 l 0.000000,187.525011 M 926.789140,746.363314 l 0.000000,-55.787806 M 943.789140,460.824073 l 0.000000,203.371198 M 943.789140,750.608968 l 0.000000,-61.989878 M 960.789140,433.518247 l 0.000000,132.181560 M 960.789140,654.375533 l 0.000000,-12.479563 M 960.789140,662.048082 l 0.000000,89.236153 M 977.789140,552.948473 l 0.000000,-117.830423 M 977.789140,641.806814 l 0.000000,110.426430 M 994.789140,540.409952 l 0.000000,-90.875106 M 994.789140,644.161300 l 0.000000,108.487347 M 1011.789140,478.310116 l 0.000000,-26.625927 M 1011.789140,481.684983 l 0.000000,46.757382 M 1011.789140,752.120706 l 0.000000,-107.083964 M 1028.789140,475.701485 l 0.000000,42.444246 M 1028.789140,750.439310 l 0.000000,-100.386911 M 1045.789140,475.166280 l 0.000000,34.676426 M 1045.789140,747.423646 l 0.000000,-90.878023 M 1062.789140,484.934359 l 0.000000,18.898473 M 1062.789140,741.418844 l 0.000000,-77.891024 M 1079.789140,495.878376 l 0.000000,3.032638 M 1079.789140,731.176084 l 0.000000,-62.449632 M 1096.789140,672.611311 l 0.000000,54.011329 M 1113.789140,719.507300 l 0.000000,-42.277652 M 1130.789140,684.661854 l 0.000000,22.169266 M 1147.789140,701.592325 l 0.000000,-10.514294"
       id="path23" />
  </g>
</svg>
