<?xml version="1.0" encoding="UTF-8" standalone="no"?>
<!-- Created with Inkscape (http://www.inkscape.org/) -->

<svg
   xmlns:dc="http://purl.org/dc/elements/1.1/"
   xmlns:cc="http://creativecommons.org/ns#"
   xmlns:rdf="http://www.w3.org/1999/02/22-rdf-syntax-ns#"
   xmlns:svg="http://www.w3.org/2000/svg"
   xmlns="http://www.w3.org/2000/svg"
   xmlns:sodipodi="http://sodipodi.sourceforge.net/DTD/sodipodi-0.dtd"
   xmlns:inkscape="http://www.inkscape.org/namespaces/inkscape"
   id="svg2"
   version="1.1"
   inkscape:version="0.48.3.1 r9886"
   width="1500"
   height="1911"
   sodipodi:docname="hantologie-_0000_arbre-03_hatched_1398270896.svg">
  <defs
     id="defs27" />
  <sodipodi:namedview
     pagecolor="#ffffff"
     bordercolor="#666666"
     borderopacity="1"
     objecttolerance="10"
     gridtolerance="10"
     guidetolerance="10"
     inkscape:pageopacity="0"
     inkscape:pageshadow="2"
     inkscape:window-width="640"
     inkscape:window-height="480"
     id="namedview25" />
  <metadata
     id="metadata8">
    <rdf:RDF>
      <cc:Work
         rdf:about="">
        <dc:format>image/svg+xml </dc:format>
        <dc:type
           rdf:resource="http://purl.org/dc/dcmitype/StillImage" />
        <dc:title />
      </cc:Work>
    </rdf:RDF>
  </metadata>
  <g
     inkscape:label="fill-0c0c0c"
     inkscape:groupmode="layer"
     id="fill-0c0c0c">
    <path
       style="stroke:#0c0c0c"
       d="M 766.033070,542.424058 l -3.573494,0.187279 M 735.184348,544.040771 l 14.962251,-0.784138 M 750.574264,553.247943 l -18.648148,0.977308 M 731.340836,564.269648 l 46.820441,-2.453755 M 813.405535,569.982543 l -4.804298,0.251783 M 734.625298,574.111240 l 13.840048,-0.725326 M 749.338659,593.367593 l -4.974720,0.260714 M 849.072448,608.168213 l 4.013149,-0.210320 M 806.719231,610.387851 l -19.639940,1.029286 M 921.970754,614.361498 l 2.728986,-0.143020 M 883.789090,616.362514 l -1.750906,0.091761 M 851.084119,618.076509 l 6.459716,-0.338539 M 829.647275,619.199967 l -14.828119,0.777109 M 803.167710,620.587702 l 6.105245,-0.319962 M 927.506517,624.085105 l -10.639387,0.557587 M 809.751040,630.256408 l 25.615490,-1.342451 M 797.242934,630.911930 l -6.190215,0.324415 M 916.105091,634.696351 l 13.615237,-0.713544 M 841.590770,638.601482 l -5.602238,0.293601 M 812.067866,640.148711 l 14.213380,-0.744892 M 756.049667,643.084501 l -2.697833,0.141387 M 931.547821,643.900756 l 5.721897,-0.299872 M 863.490017,647.467514 l -15.451213,0.809764 M 822.366402,649.622711 l 23.032114,-1.207062 M 799.278084,650.832719 l -40.156048,2.104489 M 742.797381,653.792747 l 3.626713,-0.190068 M 900.342832,655.549863 l -0.748927,0.039250 M 890.854975,656.047101 l 2.808742,-0.147200 M 868.373733,657.225293 l -37.008986,1.939559 M 757.331483,663.044771 l 51.385460,-2.692998 M 740.993704,663.900997 l -1.455294,0.076269 M 918.203354,664.627557 l 4.210683,-0.220673 M 890.699094,666.068994 l -9.149528,0.479506 M 856.424257,667.865262 l 2.907775,-0.152390 M 810.467921,670.273731 l -57.866079,3.032633 M 911.286671,675.003768 l 10.328724,-0.541305 M 888.961596,676.173776 l -9.616599,0.503985 M 827.548310,679.392310 l 1.886500,-0.098867 M 822.030581,679.681481 l -35.525401,1.861807 M 739.331715,684.015545 l 33.463016,-1.753722 M 1015.888064,679.535565 l -3.100263,0.162478 M 875.174642,686.910043 l 27.153745,-1.423067 M 852.589855,688.093661 l -8.174182,0.428391 M 831.621354,689.192574 l 3.140782,-0.164601 M 815.580100,690.033260 l -28.474429,1.492282 M 741.566038,693.912173 l 19.096007,-1.000779 M 994.807887,690.654053 l -17.477744,0.915970 M 878.026490,696.774307 l 10.108606,-0.529770 M 866.821542,697.361534 l -4.991118,0.261573 M 843.563345,698.580444 l 3.938724,-0.206420 M 809.803378,700.349729 l -1.084603,0.056842 M 786.733410,701.558775 l 17.352127,-0.909386 M 758.520304,703.037361 l -14.097429,0.738815 M 1042.453423,698.170780 l 4.639288,-0.243135 M 965.900096,702.182770 l -8.787500,0.460533 M 870.191468,707.198647 l 6.355417,-0.333073 M 833.587220,709.116994 l -6.128262,0.321169 M 749.248327,713.537008 l 54.539230,-2.858280 M 831.867983,719.220819 l -6.890237,0.361102 M 756.970119,723.146050 l 39.982762,-2.095408 M 997.659919,720.545755 l -15.022693,0.787306 M 905.884412,725.355506 l 37.113094,-1.945015 M 784.884583,731.696838 l -29.312739,1.536216 M 986.355320,731.151928 l 12.882015,-0.675118 M 963.809112,732.333524 l -59.582902,3.122608 M 796.236215,741.115648 l 14.439856,-0.756761 M 1002.846439,740.301388 l -18.014562,0.944103 M 943.936379,743.388734 l 34.115029,-1.787893 M 940.548380,743.566291 l -2.494488,0.130731 M 801.308510,750.863543 l 4.795241,-0.251308 M 797.689001,751.053234 l -3.083952,0.161623 M 789.576775,761.492101 l 9.738137,-0.510354"
       id="path5" />
  </g>
  <g
     inkscape:label="fill-2f2f2f"
     inkscape:groupmode="layer"
     id="fill-2f2f2f">
    <path
       style="stroke:#2f2f2f"
       d="M 720.145540,484.907635 l -8.707670,2.496884 M 718.980700,495.644642 l 1.826256,-0.523670 M 715.570215,496.622583 l -2.953595,0.846930 M 726.448122,514.309382 l 2.853323,-0.818177 M 782.629638,508.602586 l -3.443052,0.987279 M 730.545801,523.537386 l 5.590824,-1.603143 M 742.842463,530.414369 l -0.304692,0.087369 M 723.026379,536.096540 l 12.697117,-3.640840 M 754.839849,537.377169 l -30.075307,8.623956 M 760.572448,546.136367 l 9.360690,-2.684135 M 756.565734,547.285273 l -27.955619,8.016145 M 730.223464,565.241792 l 22.261996,-6.383524 M 780.311667,561.282225 l -46.995629,13.475780 M 779.316960,571.970447 l 4.478298,-1.284131 M 747.682844,581.041384 l -1.829740,0.524670 M 735.038368,584.667129 l 6.850834,-1.964445 M 816.854760,571.609651 l -5.263222,1.509205 M 802.452946,575.739305 l 4.685285,-1.343484 M 751.345575,590.394107 l -11.429190,3.277268 M 778.869799,592.904657 l 4.386974,-1.257945 M 769.428844,595.611808 l -1.964141,0.563208 M 746.205026,602.271130 l 6.662977,-1.910578 M 804.924713,595.836526 l -2.600472,0.745673 M 783.085900,612.501699 l 24.345365,-6.980921 M 884.436664,593.842829 l -4.465693,1.280517 M 870.296933,597.897332 l 2.937848,-0.842414 M 825.285783,610.804071 l -24.233770,6.948922 M 763.300793,628.577981 l 8.293452,-2.378109 M 911.395917,596.515382 l -2.415893,0.692746 M 875.033532,606.942128 l 6.935534,-1.988732 M 862.982752,610.397634 l -16.153525,4.631949 M 790.137501,631.285673 l 45.049524,-12.917743 M 764.169889,638.731766 l -12.531630,3.593387 M 742.538427,644.934488 l 2.974076,-0.852803 M 914.420265,606.051159 l -16.372128,4.694632 M 877.636166,616.598829 l 9.824425,-2.817108 M 862.310680,620.993342 l -11.980826,3.435447 M 840.534600,627.237532 l 2.406164,-0.689957 M 838.295348,627.879627 l -34.535417,9.902871 M 758.470752,650.768962 l 25.851912,-7.412916 M 747.910691,653.797011 l -7.356478,2.109436 M 918.851691,615.183462 l 9.833405,-2.819683 M 917.014387,615.710300 l -10.280424,2.947864 M 899.909029,620.615183 l 2.635098,-0.755602 M 861.380839,631.662964 l -10.400333,2.982248 M 814.406381,645.132673 l 29.814809,-8.549259 M 801.128205,648.940128 l -49.613557,14.226459 M 738.056831,667.025554 l 4.730341,-1.356403 M 941.474601,619.099441 l -28.584853,8.196575 M 906.592148,629.101824 l 4.106094,-1.177404 M 900.162988,630.945356 l -1.667255,0.478078 M 818.607958,654.330884 l 45.144525,-12.944984 M 810.608071,656.624815 l -66.588689,19.093999 M 909.261285,638.739455 l 22.952953,-6.581653 M 867.536583,650.703821 l -37.661182,10.799170 M 820.177138,664.283923 l 2.544748,-0.729695 M 810.013404,667.198327 l -72.270392,20.723201 M 928.996416,643.483492 l 10.557792,-3.027398 M 904.786388,650.425606 l -15.788910,4.527397 M 853.181074,665.223192 l 17.022293,-4.881064 M 829.330627,672.062197 l -42.868028,12.292209 M 741.423222,697.269240 l 32.054498,-9.191479 M 921.124408,656.143748 l -13.351830,3.828576 M 856.423504,674.696434 l 44.221298,-12.680253 M 835.176280,680.788977 l -8.966466,2.571093 M 819.595008,685.256835 l 3.767328,-1.080264 M 819.353452,685.326100 l -33.450973,9.591912 M 765.681343,700.716330 l 4.081541,-1.170363 M 760.238310,702.277094 l -16.333626,4.683592 M 903.322130,671.651464 l 21.346801,-6.121097 M 897.091708,673.438009 l -30.790727,8.829099 M 842.685456,689.038750 l 14.954572,-4.288154 M 838.420252,690.261778 l -88.861685,25.480678 M 903.958654,681.871938 l 17.956533,-5.148953 M 899.983214,683.011877 l -31.755959,9.105875 M 818.460672,706.388089 l 40.705695,-11.672170 M 811.620800,708.349391 l -55.701745,15.972218 M 877.958339,699.730402 l 18.049611,-5.175643 M 875.664603,700.388121 l -10.097052,2.895283 M 819.871086,716.386654 l 21.183545,-6.074284 M 798.249017,722.586683 l -44.448890,12.745514 M 866.326140,713.468876 l 15.729655,-4.510406 M 839.595162,721.133861 l -10.440771,2.993843 M 771.419467,740.682927 l 24.781155,-7.105882 M 757.424970,744.695784 l -1.100968,0.315698 M 949.287981,700.082946 l 67.112446,-19.244184 M 936.838917,703.652657 l -12.676718,3.634990 M 885.368372,718.411598 l 4.518763,-1.295735 M 874.438314,721.545742 l -2.480889,0.711384 M 797.384963,743.640435 l 14.148579,-4.057040 M 986.327044,699.865159 l -3.096729,0.887973 M 950.344233,710.183064 l 10.976889,-3.147572 M 939.332415,713.340653 l -49.998582,14.336863 M 791.232418,755.807643 l 15.565842,-4.463433 M 1036.356410,695.922464 l -45.561997,13.064692 M 953.909442,719.563752 l 26.270060,-7.532819 M 945.279355,722.038389 l -45.596391,13.074555 M 788.616291,766.960800 l 8.981862,-2.575507 M 1053.249055,701.481570 l -39.784505,11.408023 M 974.071922,724.185248 l 25.162514,-7.215235 M 967.431811,726.089269 l -52.507312,15.056229 M 1022.701624,720.643900 l 46.773190,-13.411996 M 1005.338470,725.622704 l -69.764421,20.004626 M 966.148141,747.263344 l 42.739671,-12.255403"
       id="path8" />
  </g>
  <g
     inkscape:label="fill-4f4f4f"
     inkscape:groupmode="layer"
     id="fill-4f4f4f">
    <path
       style="stroke:#4f4f4f"
       d="M 762.685671,410.372689 l -1.299057,0.661903 M 759.599863,424.290576 l 3.157463,-1.608808 M 750.285183,429.036642 l -1.969482,1.003501 M 740.988663,433.773456 l 1.241760,-0.632708 M 773.606299,429.499529 l -0.734655,0.374325 M 757.908644,437.497883 l 3.006368,-1.531821 M 742.545387,445.325854 l -8.270875,4.214221 M 721.789607,455.901452 l 1.316864,-0.670976 M 771.713121,442.809740 l -2.879286,1.467070 M 756.376640,450.624067 l 1.866378,-0.950967 M 751.457246,453.130624 l -3.526490,1.796837 M 739.166494,459.393075 l 2.630499,-1.340306 M 735.949336,461.032298 l -1.717358,0.875038 M 727.623893,465.274323 l 2.025531,-1.032060 M 750.697050,465.863551 l -3.227692,1.644591 M 711.586506,485.791369 l 8.343520,-4.251236 M 769.822280,468.464348 l -2.120324,1.080359 M 753.515794,476.772918 l 5.762915,-2.936352 M 733.190143,487.129355 l -2.687992,1.369600 M 711.886977,497.983860 l 12.612524,-6.426402 M 767.056611,482.219116 l -6.710115,3.418974 M 723.935909,504.190211 l 7.591483,-3.868054 M 720.886846,505.743786 l -5.828939,2.969993 M 769.632311,493.252320 l 5.438340,-2.770973 M 738.701110,509.012554 l -2.001282,1.019704 M 725.139306,515.922638 l 8.282415,-4.220101 M 787.500721,496.493499 l -9.199147,4.687199 M 767.619236,506.623622 l 3.839169,-1.956154 M 742.296009,519.526450 l -15.008876,7.647404 M 768.652177,518.442900 l 15.223810,-7.756919 M 765.437919,520.080647 l -2.437919,1.242182 M 722.516860,541.950018 l 28.332052,-14.435902 M 781.857354,524.060115 l -6.985249,3.559162 M 729.993743,550.485945 l 28.992644,-14.772490 M 726.185143,552.426523 l -0.932423,0.475093 M 816.146351,518.934587 l 8.614143,-4.389125 M 773.831214,540.495226 l -45.019665,22.938665 M 732.342839,573.980198 l 31.814540,-16.210318 M 988.499885,455.807253 l -2.187095,1.114380 M 763.790212,570.302550 l 18.022344,-9.182843 M 749.426358,577.621299 l -14.945038,7.614877 M 960.763625,482.285171 l 2.843386,-1.448778 M 755.292712,586.977831 l -15.116745,7.702366 M 841.271727,555.514923 l 18.683952,-9.519949 M 816.555260,568.108592 l -16.504831,8.409631 M 784.365365,584.510163 l 6.858601,-3.494632 M 769.801471,591.930838 l -23.209537,11.825850 M 829.092008,574.066388 l 14.457533,-7.366481 M 789.414181,594.283251 l -6.059878,3.087662 M 1034.214124,481.897039 l 2.562150,-1.305480 M 1008.414937,495.042381 l -24.290608,12.376683 M 842.463314,579.598956 l 7.960360,-4.056006 M 810.395808,595.938167 l -19.174312,9.769800 M 890.614909,567.410082 l 4.054721,-2.065983 M 874.263364,575.741610 l -8.028104,4.090523 M 846.861544,589.703535 l 16.554429,-8.434903 M 837.061469,594.696922 l -4.022543,2.049588 M 784.624620,621.414832 l 28.290700,-14.414832 M 773.262440,627.204151 l -18.388597,9.369458 M 741.916456,643.175728 l 3.218885,-1.640104 M 880.384945,584.968098 l -2.353182,1.199006 M 868.181719,591.185952 l 2.705862,-1.378705 M 867.329861,591.619995 l -6.675222,3.401196 M 789.173738,631.442529 l 39.820471,-20.289543 M 776.111774,638.097932 l -1.494302,0.761385 M 755.045139,648.831919 l 17.030700,-8.677575 M 750.174417,651.313675 l -10.671990,5.437650 M 948.661894,562.524843 l 8.234629,-4.195753 M 896.467835,589.119044 l -25.283792,12.882735 M 800.687360,637.921634 l 63.583724,-32.397526 M 793.294266,641.688603 l -44.267767,22.555554 M 737.305059,670.216529 l 6.813606,-3.471706 M 912.306626,593.394366 l -6.610384,3.368159 M 888.944043,605.298197 l 11.842622,-6.034117 M 887.191631,606.191095 l -16.816248,8.568306 M 737.472952,682.476572 l 128.203402,-65.322896 M 924.621330,599.465299 l -1.648412,0.839908 M 894.539129,614.792947 l 21.874334,-11.145530 M 888.148022,618.049378 l -8.435571,4.298138 M 816.353392,654.630569 l 48.142305,-24.529730 M 813.034710,656.321522 l -75.105672,38.268251 M 897.995076,625.377642 l 33.431857,-17.034382 M 866.415856,641.468058 l -38.938520,19.840167 M 818.234241,666.017818 l 6.970267,-3.551529 M 814.629638,667.854455 l -29.206117,14.881260 M 741.806848,704.959519 l 33.104225,-16.867445 M 940.837611,615.893869 l -34.642542,17.651257 M 892.224456,640.663509 l 6.202536,-3.160350 M 871.077030,651.438660 l -26.771403,13.640711 M 784.683454,695.458386 l 48.279369,-24.599567 M 771.212353,702.322254 l -23.445457,11.946057 M 921.500122,638.092400 l 12.966907,-6.606969 M 907.794446,645.075791 l -52.776189,26.890812 M 750.796948,725.070012 l 86.846628,-44.250567 M 941.715337,640.137822 l -10.790320,5.497943 M 753.422537,736.077796 l 165.549224,-84.351543 M 925.913647,660.534774 l -62.169638,31.677013 M 817.237341,715.908118 l 43.976626,-22.407210 M 814.354363,717.377068 l -45.871854,23.372877 M 755.198398,747.518538 l 2.213040,-1.127600 M 925.500588,673.090827 l -61.787377,31.482241 M 822.277053,725.685845 l 31.242666,-15.918933 M 805.494700,734.236881 l -15.543590,7.919855 M 959.381329,668.173316 l 9.620766,-4.902025 M 885.743859,705.693481 l -19.296225,9.831918 M 791.977634,753.469759 l 20.220609,-10.302915 M 895.095418,713.274212 l -11.516847,5.868127 M 871.617595,725.236760 l 5.422415,-2.762859 M 800.151128,761.650744 l -12.027328,6.128230 M 1003.550150,670.359355 l 6.239847,-3.179361 M 967.898435,688.524811 l -25.513344,12.999698 M 924.847243,710.460489 l 15.448552,-7.871430 M 920.659903,712.594045 l -32.046617,16.328567 M 898.951269,736.000735 l 115.776638,-58.991144 M 1022.349310,685.471881 l -12.160289,6.195977 M 952.209151,721.210077 l 42.955547,-21.886945 M 950.839642,721.907877 l -37.999694,19.361811 M 976.087849,721.388862 l 57.765395,-29.432939 M 972.518644,723.207462 l -41.931337,21.365083 M 1012.108938,715.380789 l 54.419270,-27.728003 M 1002.391855,720.331890 l -55.805779,28.434465 M 1103.627563,681.095309 l 1.795823,-0.915018 M 1080.272000,692.995562 l -56.600139,28.839211 M 1013.812418,726.858411 l 2.648476,-1.349466 M 1008.008693,729.815557 l -34.318810,17.486307 M 1021.785139,735.141695 l 42.815192,-21.815430 M 1017.179631,737.488319 l -8.217863,4.187210 M 992.776083,749.922548 l 8.251022,-4.204106"
       id="path11" />
  </g>
  <g
     inkscape:label="fill-707070"
     inkscape:groupmode="layer"
     id="fill-707070">
    <path
       style="stroke:#707070"
       d="M 752.616099,408.387951 l -3.927759,3.068701 M 737.941799,419.852770 l 0.286178,-0.223587 M 764.203552,414.563059 l -5.440251,4.250390 M 747.086735,427.936182 l 4.919156,-3.843265 M 744.168052,430.216507 l -10.092553,7.885166 M 719.624606,449.391949 l 6.102812,-4.768039 M 773.322762,422.666570 l -3.225360,2.519927 M 745.950557,444.052080 l 16.688325,-13.038349 M 743.590516,445.895946 l -9.974839,7.793198 M 720.725812,463.759811 l 3.727766,-2.912450 M 773.915365,437.431796 l -8.406076,6.567547 M 745.321778,459.771554 l 15.401491,-12.032964 M 742.232269,462.185343 l -3.561968,2.782915 M 734.913388,467.903480 l 0.630318,-0.492458 M 719.870049,479.656625 l -9.694979,7.574547 M 774.244877,452.402572 l 0.842902,-0.658547 M 769.603914,456.028489 l -23.481329,18.345625 M 728.159211,488.408640 l 8.761237,-6.845028 M 726.446954,489.746402 l -14.309577,11.179867 M 751.225331,485.615631 l 21.173818,-16.542800 M 745.105387,490.397055 l -29.714563,23.215561 M 770.520727,485.768634 l 4.001729,-3.126494 M 767.440538,488.175141 l -12.321684,9.626755 M 727.628403,519.279790 l 18.499201,-14.453160 M 805.954025,473.313326 l -8.650121,6.758215 M 785.548539,489.255838 l 7.905445,-6.176411 M 781.978313,492.045205 l -16.680647,13.032350 M 759.696283,509.453834 l 1.355401,-1.058956 M 748.824110,517.948107 l -27.035399,21.122369 M 790.549613,500.576790 l 16.452151,-12.853829 M 788.689564,502.030020 l -27.406814,21.412550 M 724.300346,552.336390 l 29.493702,-23.043006 M 787.075100,518.519596 l -19.480108,15.219528 M 728.425284,564.341854 l 37.238124,-29.093611 M 787.680647,533.274709 l -6.511847,5.087613 M 732.490196,576.394215 l 42.745327,-33.396309 M 827.696250,517.239312 l -4.828330,3.772305 M 735.422895,589.331158 l 41.092703,-32.105138 M 829.903039,530.743398 l -1.659243,1.296343 M 775.604791,573.165839 l 9.282774,-7.252498 M 758.917842,586.203112 l -16.800570,13.126044 M 787.866941,578.813816 l 19.538784,-15.265371 M 771.556280,591.557101 l -11.059553,8.640670 M 974.802193,447.992209 l 5.006600,-3.911584 M 855.626908,541.102146 l -21.674575,16.934034 M 810.866047,576.073164 l 8.503306,-6.643511 M 806.011948,579.865601 l -26.096040,20.388461 M 955.579035,478.239205 l 33.126058,-25.880913 M 866.749772,547.640231 l -37.097740,28.983931 M 740.828718,646.020540 l 69.825548,-54.553697 M 954.203832,494.541850 l -4.768055,3.725213 M 938.536912,506.782189 l 8.148930,-6.366642 M 852.450358,574.040376 l -10.048280,7.850577 M 824.554870,595.834720 l 17.750712,-13.868376 M 817.003990,601.734114 l -22.543255,17.612721 M 754.202285,650.800183 l 21.012397,-16.416683 M 749.976747,654.101536 l -13.037767,10.186220 M 955.806523,508.517908 l 23.289131,-18.195463 M 934.907789,524.845789 l -1.195948,0.934377 M 921.274607,535.497199 l 8.141193,-6.360597 M 885.852781,563.171762 l -3.089003,2.413394 M 791.840327,636.622341 l 84.184067,-65.771801 M 787.448733,640.053430 l -46.402857,36.253885 M 950.482526,527.905690 l 31.917111,-24.936380 M 903.205101,564.842862 l -15.249436,11.914165 M 801.698501,644.148510 l 85.133719,-66.513751 M 801.213994,644.527048 l -64.783676,50.614555 M 992.185009,510.552358 l 40.384059,-31.551485 M 963.718827,532.792576 l -11.755198,9.184167 M 942.057767,549.716052 l 2.475882,-1.934371 M 935.189392,555.082214 l -1.165516,0.910601 M 908.811623,575.690786 l 8.487804,-6.631399 M 906.445765,577.539197 l -6.959966,5.437722 M 870.525902,605.602869 l 26.010563,-20.321679 M 867.283204,608.136342 l -52.406688,40.944592 M 741.596059,706.333903 l 69.094216,-53.982318 M 1009.300673,512.408354 l -8.209089,6.413644 M 948.652736,559.791716 l 25.045117,-19.567390 M 946.905701,561.156649 l -1.428479,1.116050 M 932.461606,572.441612 l 3.920096,-3.062715 M 928.221790,575.754120 l -10.968705,8.569692 M 871.064452,620.410327 l 42.667470,-33.335481 M 868.182850,622.661680 l -46.119144,36.032224 M 784.152767,688.313177 l 36.267979,-28.335651 M 777.223893,693.726607 l -28.880558,22.563965 M 1036.097802,506.700361 l 17.377650,-13.576908 M 949.519335,574.342872 l -7.524684,5.878927 M 937.648739,583.617198 l 2.704552,-2.113028 M 930.669222,589.070195 l -4.815162,3.762017 M 747.884266,731.877454 l 174.069835,-135.998260 M 932.688743,602.720591 l -48.070213,37.556566 M 851.978123,665.778638 l 22.118426,-17.280808 M 835.980149,678.277626 l -81.248439,63.478237 M 774.105239,741.847821 l 168.638535,-131.754863 M 946.613188,622.298059 l -4.983213,3.893313 M 923.004999,640.742798 l 13.408519,-10.475884 M 920.198037,642.935837 l -127.133696,99.327729 M 860.637238,704.698052 l 83.620050,-65.331143 M 855.970022,708.344481 l -26.597326,20.780109 M 787.656715,761.716685 l 28.436417,-22.216964 M 937.973317,659.504703 l -72.495884,56.639992 M 858.049715,721.947865 l 6.388258,-4.991054 M 893.315894,709.623125 l -22.472225,17.557226 M 959.081644,673.469508 l 18.887085,-14.756208 M 928.555165,697.319408 l -3.685993,2.879813 M 912.689209,709.715251 l 2.713669,-2.120151 M 908.959235,712.629426 l -27.156526,21.217004 M 987.467232,666.520475 l 18.375237,-14.356308 M 972.501786,678.212762 l -74.500666,58.206299 M 997.908133,673.591368 l 9.140425,-7.141283 M 985.827605,683.029710 l -74.514380,58.217014 M 927.333656,743.958410 l 86.925875,-67.913937 M 1024.158703,683.538611 l -12.316481,9.622690 M 941.262200,748.304458 l 63.607234,-49.695418 M 1054.216080,675.283434 l -7.279121,5.687073 M 1006.538081,712.533569 l 30.827779,-24.085300 M 1006.322515,712.701988 l -47.044755,36.755391 M 1013.863681,722.038402 l 51.605126,-40.318343 M 1008.965494,725.865284 l -30.522055,23.846443 M 1016.460587,735.237694 l 68.179762,-53.267868 M 1014.578691,736.707993 l -7.913685,6.182848 M 997.577055,749.991127 l 4.463337,-3.487141 M 1107.753905,679.139756 l -6.359939,4.968929 M 1085.216819,696.747657 l 14.161283,-11.064007 M 1076.897545,703.247387 l -43.367383,33.882313 M 1019.121047,748.387334 l 1.747208,-1.365068 M 1117.723656,686.578752 l -6.462709,5.049222 M 1102.161469,698.737265 l 2.434494,-1.902035 M 1094.492504,704.728917 l -4.936522,3.856834 M 1074.565999,720.297209 l 5.958876,-4.655585 M 1119.625878,700.320791 l -1.449531,1.132498 M 1105.937963,711.014963 l 2.423336,-1.893318"
       id="path14" />
  </g>
  <g
     inkscape:label="fill-8f8f8f"
     inkscape:groupmode="layer"
     id="fill-8f8f8f">
    <path
       style="stroke:#8f8f8f"
       d="M 737.854173,369.626096 l -7.133106,8.500905 M 746.149715,378.408540 l 0.753017,-0.897411 M 738.233112,387.843181 l -8.962050,10.680555 M 745.986628,397.271585 l 6.922152,-8.249500 M 719.741461,428.549357 l -1.360266,1.621102 M 758.346123,401.210799 l 1.048904,-1.250035 M 753.421277,407.080002 l -19.625128,23.388317 M 718.519063,448.674840 l 9.486167,-11.305173 M 764.704929,412.301355 l -32.309496,38.504958 M 719.840306,465.768930 l 6.886950,-8.207547 M 773.811678,420.117040 l -8.828524,10.521425 M 733.235128,468.474289 l 31.149014,-37.121949 M 729.847765,472.511191 l -0.273519,0.325967 M 710.095793,496.050675 l 14.080341,-16.780297 M 782.411183,428.537235 l -2.872740,3.423598 M 743.989413,474.326517 l 31.837405,-37.942342 M 738.380685,481.010740 l -24.407247,29.087425 M 787.614150,441.005267 l 1.274377,-1.518744 M 782.620740,446.956181 l -58.611505,69.850471 M 718.375147,523.521097 l 2.428510,-2.894186 M 780.924760,467.646056 l -27.524507,32.802430 M 720.903954,539.176068 l 29.854835,-35.579607 M 804.594444,458.106312 l -14.479066,17.255479 M 758.926644,512.531076 l 25.749034,-30.686504 M 753.235373,519.313669 l -29.099696,34.679668 M 729.066572,566.785611 l 81.716543,-97.385984 M 796.242357,505.397313 l -5.646825,6.729624 M 732.718630,581.101944 l 55.160440,-65.737653 M 822.359509,492.940790 l -2.271881,2.707522 M 779.376898,544.165471 l 24.886550,-29.658636 M 773.610892,551.037129 l -35.839769,42.712174 M 811.689526,524.325466 l 12.495944,-14.892086 M 782.269159,559.387294 l -12.428708,14.811957 M 744.998785,603.804396 l 16.701718,-19.904333 M 834.816145,515.432920 l -7.865519,9.373760 M 761.868582,602.368441 l 11.473736,-13.673866 M 835.517454,533.265819 l -4.169779,4.969350 M 760.801422,622.308919 l 51.049916,-60.838920 M 756.591238,627.326421 l -16.584097,19.764157 M 845.188446,540.409065 l 3.720798,-4.434274 M 843.890511,541.955885 l -2.883058,3.435895 M 831.367651,556.880048 l 2.419793,-2.883797 M 821.329993,568.842463 l -13.203389,15.735186 M 736.426002,670.027099 l 70.037560,-83.467513 M 863.435754,537.331457 l -34.690170,41.342135 M 794.355482,619.658119 l 27.626184,-32.923604 M 784.502674,631.400238 l -49.081951,58.493591 M 881.773051,534.146603 l 4.615950,-5.501075 M 877.639779,539.072445 l -25.589289,30.496127 M 739.075075,704.207428 l 112.352982,-133.897070 M 976.380223,440.066852 l -7.302641,8.702949 M 932.626663,492.210314 l 11.559717,-13.776334 M 925.950915,500.166161 l -2.422212,2.886680 M 904.889356,525.266350 l 7.543467,-8.989954 M 897.976390,533.504901 l -3.602273,4.293022 M 746.332792,714.226705 l 141.454204,-168.578556 M 987.118358,445.938326 l -82.927642,98.829315 M 747.536185,731.461242 l 146.236756,-174.278180 M 985.867953,466.097187 l -3.962165,4.721924 M 916.260651,549.051939 l 65.527574,-78.092722 M 905.014232,562.454900 l -151.056192,180.021760 M 944.340163,534.256766 l 59.939178,-71.432731 M 942.592389,536.339682 l -17.024840,20.289414 M 770.290828,741.680686 l 149.154420,-177.755316 M 998.459988,488.427957 l -149.177651,177.783001 M 846.625678,669.377041 l 0.032301,-0.038495 M 840.948140,676.143266 l -55.360752,65.976375 M 988.914385,518.472649 l 29.430589,-35.074010 M 984.421131,523.827500 l -194.370094,231.641258 M 1021.308666,498.535334 l 19.012968,-22.658773 M 1014.348464,506.830179 l -11.698768,13.942049 M 943.780859,590.929376 l 5.381148,-6.413003 M 941.564562,593.570656 l -114.997679,137.048897 M 788.806181,775.621005 l 16.155122,-19.252925 M 1049.296990,483.848834 l -8.527966,10.163234 M 1025.483783,512.228309 l 10.890309,-12.978565 M 948.154459,604.385809 l -104.274237,124.269196 M 1047.633694,504.499759 l 11.842936,-14.113861 M 953.885224,616.224834 l -3.319200,3.955669 M 944.710571,627.158760 l 5.408963,-6.446151 M 941.578459,630.891467 l -79.272227,94.472962 M 1067.872947,499.048242 l 4.091177,-4.875675 M 948.187171,641.684196 l -37.869323,45.130901 M 895.662081,704.281161 l 9.799685,-11.678809 M 893.097710,707.337259 l -19.568436,23.320754 M 908.493312,707.658180 l 5.160787,-6.150386 M 906.628477,709.880604 l -22.374902,26.665370 M 956.822923,668.729879 l 4.095201,-4.880471 M 933.659336,696.335167 l -34.942259,41.642563 M 966.131773,676.304710 l 20.637330,-24.594612 M 955.653893,688.791761 l -44.372882,52.881542 M 989.954994,666.581986 l 14.209419,-16.934127 M 986.105982,671.169061 l -61.341578,73.104046 M 1011.491372,659.584617 l 7.366716,-8.779311 M 1006.591034,665.424612 l -7.606979,9.065645 M 937.363473,747.926806 l 58.227017,-69.392257 M 1027.083904,659.670846 l -5.745803,6.847581 M 951.126824,750.192969 l 63.474489,-75.645950 M 1035.766077,667.992521 l -68.674839,81.843487 M 982.421099,750.235277 l 63.495913,-75.671482 M 1065.404317,670.008414 l -7.907850,9.424208 M 1015.806046,729.117332 l 40.475663,-48.237016 M 1014.943376,730.145422 l -16.910899,20.153625 M 1076.250707,675.750876 l 2.982700,-3.554643 M 1074.026146,678.402004 l -60.067079,71.585158 M 1039.075182,738.723627 l 52.611574,-62.700032 M 1034.150581,744.592539 l -2.858423,3.406536 M 1090.573139,696.019438 l 14.918527,-17.779208 M 1086.785237,700.533684 l -3.462403,4.126331 M 1075.948350,713.448583 l 4.104966,-4.892108 M 1072.818331,717.178795 l -5.456750,6.503102 M 1058.886304,733.782337 l 6.502716,-7.749635 M 1117.158917,683.004428 l -8.484038,10.110883 M 1103.095719,699.764295 l 3.473588,-4.139661 M 1101.128673,702.108529 l -4.780797,5.697532 M 1088.335393,717.354966 l 5.605360,-6.680208 M 1129.218697,687.300828 l -4.000324,4.767401 M 1120.959669,697.143554 l 2.370409,-2.824943 M 1120.422131,697.784166 l -5.004803,5.964493 M 1109.015224,711.378389 l 3.526791,-4.203066 M 1136.832615,696.895599 l -3.051730,3.636910"
       id="path17" />
  </g>
  <g
     inkscape:label="fill-adadad"
     inkscape:groupmode="layer"
     id="fill-adadad">
    <path
       style="stroke:#adadad"
       d="M 738.953387,363.159276 l -9.592550,16.614784 M 716.405618,402.213157 l 3.615912,-6.262943 M 747.736717,373.946101 l -3.841390,6.653482 M 726.827685,410.161607 l 12.210624,-21.149421 M 725.381290,412.666837 l -8.715687,15.096012 M 717.502592,452.313142 l 36.150610,-62.614693 M 761.601828,401.931026 l -29.828567,51.664594 M 708.759352,493.456879 l 21.346801,-36.973744 M 771.045614,411.573909 l -36.537001,63.283941 M 713.266800,511.649750 l 19.170387,-33.204085 M 783.040129,416.798799 l -2.153288,3.729604 M 724.163791,518.775608 l 53.615690,-92.865100 M 722.245112,522.098857 l -3.127162,5.416403 M 721.451662,549.473152 l 69.399618,-120.203665 M 795.557048,447.118858 l -38.128932,66.041247 M 727.579113,564.860096 l 27.938227,-48.390428 M 806.618460,453.959931 l -73.787987,127.804543 M 739.163758,596.794903 l 74.883312,-129.701701 M 820.706391,481.558920 l -6.235249,10.799769 M 786.314866,541.126788 l 14.432336,-24.997539 M 779.030812,553.743140 l -31.328527,54.262601 M 822.739863,504.036842 l 8.906528,-15.426558 M 819.548299,509.564794 l -8.861933,15.349319 M 781.443798,575.563725 l 5.513785,-9.550155 M 776.900997,583.432087 l -12.642223,21.896972 M 739.022623,649.039356 l 21.848321,-37.842403 M 837.849276,503.866572 l -0.584602,1.012560 M 824.874597,526.339374 l 9.011442,-15.608275 M 803.040542,564.157066 l -67.614068,117.111000 M 831.919369,540.137472 l 5.433390,-9.410908 M 821.029342,558.999551 l -37.137064,64.323282 M 737.314821,703.997355 l 41.279748,-71.498621 M 854.811367,526.487367 l -108.629207,188.151306 M 746.660413,739.810315 l 118.338104,-204.967608 M 889.093351,519.109229 l -126.904330,219.804747 M 754.684980,751.911357 l 6.845764,-11.857211 M 907.444756,513.323663 l -132.548119,229.580077 M 789.784648,743.116949 l 173.663880,-300.794664 M 980.533703,438.729895 l -193.315307,334.831933 M 826.081611,732.248765 l 164.374103,-284.704298 M 1002.227702,453.154786 l -159.655118,276.530776 M 859.560638,726.261389 l 154.906636,-268.306165 M 1015.204394,482.678496 l -40.656508,70.419138 M 872.104883,730.534119 l 78.616896,-136.168459 M 1034.682251,474.941858 l -32.464613,56.230359 M 912.225973,687.042353 l 42.562022,-73.719584 M 909.579320,691.626491 l -26.510579,45.917670 M 1027.542511,513.308250 l 20.815325,-36.053200 M 943.922154,658.142957 l -4.555046,7.889572 M 897.685539,738.227124 l 23.571497,-40.827030 M 1059.004893,484.813807 l -12.679793,21.962046 M 962.184953,652.510862 l 5.130337,-8.886004 M 955.293404,664.447375 l -1.860503,3.222485 M 910.492550,742.044729 l 28.477854,-49.325090 M 1069.798114,492.119399 l -5.545482,9.605057 M 961.190614,680.233108 l 14.600395,-25.288626 M 957.963310,685.822962 l -34.035604,58.951395 M 937.031771,748.077451 l 58.840086,-101.914018 M 1010.515465,646.799959 l -60.007477,103.935998 M 965.482525,750.799299 l 57.764713,-100.051418 M 1035.440839,655.627945 l -55.159791,95.539560 M 1046.348132,662.735959 l 1.326373,-2.297346 M 1045.061975,664.963649 l -50.083301,86.746822 M 1010.269650,751.225723 l 47.952410,-83.056010 M 1072.788118,668.940561 l -46.588737,80.694060 M 1043.016374,746.506734 l 43.024310,-74.520290 M 1099.190434,675.210408 l -17.726609,30.703387 M 1076.975337,713.688084 l 3.707248,-6.421141 M 1075.979880,715.412266 l -10.807218,18.718651 M 1089.370307,718.219366 l 22.708857,-39.332894 M 1088.175709,720.288472 l -5.253394,9.099146 M 1107.192173,713.350989 l 16.933295,-29.329327 M 1105.913330,715.566011 l -4.585108,7.941640 M 1126.159280,706.498997 l 10.222180,-17.705335 M 1147.737173,695.124988 l -3.166344,5.484268"
       id="path20" />
  </g>
  <g
     inkscape:label="fill-cecece"
     inkscape:groupmode="layer"
     id="fill-cecece">
    <path
       style="stroke:#cecece"
       d="M 733.287938,349.303546 l -3.240953,9.974628 M 714.010118,408.634573 l 14.454066,-44.485041 M 743.365926,363.591638 l -27.810937,85.593264 M 711.463115,507.083347 l 41.206886,-126.821755 M 761.565898,398.187787 l -45.169456,139.017292 M 723.639573,560.217965 l 48.706873,-149.904342 M 785.442311,415.313649 l -53.710315,165.303353 M 740.245368,599.720488 l 54.484541,-167.686174 M 804.540974,447.143910 l -67.584753,208.004480 M 788.344108,542.297689 l 25.945291,-79.851394 M 784.005069,555.651880 l -48.260874,148.531696 M 807.080943,529.936595 l 16.594360,-51.072187 M 802.194344,544.975997 l -1.125370,3.463532 M 746.462027,716.502434 l 49.200521,-151.423633 M 834.904024,489.610906 l -12.475640,38.396073 M 791.975704,621.730691 l 23.085344,-71.049382 M 790.628049,625.878347 l -37.777374,116.266803 M 832.591894,542.031864 l 6.131178,-18.869825 M 828.864479,553.503667 l -61.419724,189.030473 M 781.688663,744.000851 l 72.046036,-221.734897 M 870.602682,515.656589 l -83.970664,258.435131 M 807.495153,755.186546 l 78.867174,-242.728202 M 900.825624,513.249841 l -71.409071,219.774522 M 844.870052,730.768338 l 75.577009,-232.602118 M 956.911852,431.244085 l -96.340277,296.504885 M 873.587371,732.995419 l 95.356399,-293.476819 M 983.866764,438.895301 l -97.827620,301.082456 M 951.506133,583.796031 l 43.551626,-134.038123 M 951.193868,584.757086 l -50.569650,155.637380 M 975.781328,554.389615 l 33.825147,-104.103097 M 956.197256,614.663191 l -17.401635,53.556725 M 914.241216,743.790606 l 17.379832,-53.489622 M 1016.196577,475.309222 l -0.875876,2.695668 M 995.125935,540.157990 l 19.215565,-59.139427 M 962.112831,641.761875 l -4.091561,12.592531 M 953.079557,669.563434 l 2.136325,-6.574933 M 947.136937,687.852938 l -19.116735,58.835262 M 1014.141873,526.937903 l 16.943493,-52.146709 M 976.833913,641.759996 l -3.169395,9.754393 M 941.593225,750.219680 l 30.749360,-94.636798 M 1045.689314,475.149813 l -13.309447,40.962265 M 955.829531,751.709788 l 34.947810,-107.558300 M 1058.079272,482.322395 l -8.407630,25.876024 M 970.612803,751.516506 l 34.854191,-107.270171 M 1069.981345,490.996532 l -3.888911,11.968839 M 1004.341906,693.013953 l 15.479142,-47.639901 M 1003.524484,695.529720 l -18.530699,57.031629 M 999.687552,752.643533 l 32.856440,-101.121723 M 1045.651938,656.484651 l -31.016405,95.458678 M 1029.890593,750.298035 l 28.795961,-88.624855 M 1071.758786,666.745938 l -26.233185,80.737441 M 1062.103666,741.766296 l 23.310028,-71.740890 M 1099.122845,673.137927 l -18.838850,57.980018 M 1096.428378,726.735597 l 16.243300,-49.991736 M 1125.438503,682.756565 l -9.651614,29.704612 M 1113.368262,719.904946 l 1.381289,-4.251171 M 1138.461118,687.982029 l -5.929672,18.249654 M 1148.861281,701.278570 l 2.650481,-8.157340"
       id="path23" />
  </g>
</svg>
