<?xml version="1.0" encoding="UTF-8" standalone="no"?>
<!-- Created with Inkscape (http://www.inkscape.org/) -->

<svg
   xmlns:dc="http://purl.org/dc/elements/1.1/"
   xmlns:cc="http://creativecommons.org/ns#"
   xmlns:rdf="http://www.w3.org/1999/02/22-rdf-syntax-ns#"
   xmlns:svg="http://www.w3.org/2000/svg"
   xmlns="http://www.w3.org/2000/svg"
   xmlns:sodipodi="http://sodipodi.sourceforge.net/DTD/sodipodi-0.dtd"
   xmlns:inkscape="http://www.inkscape.org/namespaces/inkscape"
   id="svg2"
   version="1.1"
   inkscape:version="0.48.3.1 r9886"
   width="1200"
   height="960"
   sodipodi:docname="hantologie-full-socle_01_hatched_1398263393.svg">
  <defs
     id="defs70" />
  <sodipodi:namedview
     pagecolor="#ffffff"
     bordercolor="#666666"
     borderopacity="1"
     objecttolerance="10"
     gridtolerance="10"
     guidetolerance="10"
     inkscape:pageopacity="0"
     inkscape:pageshadow="2"
     inkscape:window-width="640"
     inkscape:window-height="480"
     id="namedview68" />
  <metadata
     id="metadata8">
    <rdf:RDF>
      <cc:Work
         rdf:about="">
        <dc:format>image/svg+xml </dc:format>
        <dc:type
           rdf:resource="http://purl.org/dc/dcmitype/StillImage" />
        <dc:title />
      </cc:Work>
    </rdf:RDF>
  </metadata>
  <g
     inkscape:label="fill-303030"
     inkscape:groupmode="layer"
     id="fill-303030">
    <path
       style="stroke:#303030"
       d="M 589.845846,571.998978 l -0.306936,1.937916 M 591.625694,579.938820 l 1.228318,-7.755292 M 595.862178,572.368078 l -2.149699,13.572668 M 595.799262,591.942672 l 3.071081,-19.390043 M 601.878509,572.737178 l -3.992463,25.207419 M 599.972829,603.946524 l 4.913845,-31.024795 M 607.894840,573.106279 l -5.835227,36.842171 M 604.146397,615.950375 l 6.262177,-39.537828 M 612.533659,582.172647 l -6.300478,39.779654 M 608.319964,627.954227 l 6.338780,-40.021481"
       id="path5" />
  </g>
  <g
     inkscape:label="fill-4f4f4f"
     inkscape:groupmode="layer"
     id="fill-4f4f4f">
    <path
       style="stroke:#4f4f4f"
       d="M 611.038406,573.295957 l -0.078734,4.510659 M 614.780113,588.128506 l 0.254673,-14.590192 M 619.031164,573.780672 l -0.331302,18.980275 M 622.690780,593.316185 l 0.336763,-19.293155 M 627.023922,574.265388 l -0.342225,19.606035 M 630.672615,594.426660 l 0.347686,-19.918915 M 635.016680,574.750103 l -0.353147,20.231795 M 638.654450,595.537136 l 0.358609,-20.544675 M 643.009438,575.234819 l -0.364070,20.857555 M 646.636286,596.647611 l 0.369531,-21.170435 M 651.002196,575.719535 l -0.374993,21.483314 M 654.618121,597.758087 l 0.380454,-21.796194 M 658.994954,576.204250 l -0.385915,22.109074 M 662.599956,598.868562 l 0.391377,-22.421954 M 666.987712,576.688966 l -0.396838,22.734834 M 670.581791,599.979038 l 0.402299,-23.047714 M 674.980470,577.173681 l -0.407761,23.360594 M 678.563626,601.089513 l 0.413222,-23.673474 M 682.973227,577.658397 l -0.418683,23.986354 M 686.545462,602.199989 l 0.424145,-24.299234 M 690.965985,578.143113 l -0.429606,24.612114 M 694.527297,603.310464 l 0.435067,-24.924994 M 698.958743,578.627828 l -0.440529,25.237874 M 702.509132,604.420940 l 0.445990,-25.550754 M 706.951501,579.112544 l -0.451451,25.863634 M 710.490967,605.531415 l 0.370468,-21.224099 M 714.732663,591.719602 l -0.250778,14.367050 M 718.472802,606.641890 l 0.131088,-7.510002 M 722.475117,606.544175 l -0.011397,0.652954"
       id="path8" />
  </g>
  <g
     inkscape:label="fill-666666"
     inkscape:groupmode="layer"
     id="fill-666666">
    <path
       style="stroke:#666666"
       d="M 624.775884,257.141956 l 0.680826,9.736258 M 631.445056,280.837620 l -1.719856,-24.595081 M 634.674517,255.343123 l 1.922049,27.486584 M 641.526448,281.652376 l -1.902616,-27.208671 M 644.728652,255.768093 l 1.727679,24.706954 M 651.386213,279.297717 l -0.578419,-8.271779"
       id="path11" />
  </g>
  <g
     inkscape:label="fill-757575"
     inkscape:groupmode="layer"
     id="fill-757575">
    <path
       style="stroke:#757575"
       d="M 615.637434,810.634032 l 1.822364,12.966792 M 623.297241,822.024611 l -8.044120,-57.236889 M 620.526952,759.201203 l 8.607732,61.247194 M 634.972127,818.872184 l -8.615611,-61.303258 M 632.186080,755.936648 l 8.623490,61.359322 M 646.647013,815.719757 l -8.432319,-59.999067 M 645.302949,763.044465 l 7.181507,51.099078 M 658.321899,812.567330 l -5.930695,-42.199090 M 659.479459,777.692015 l 4.679883,33.299101 M 669.996785,809.414903 l -3.429072,-24.399112 M 673.655969,792.339566 l 2.178260,15.499124 M 681.671672,806.262476 l -0.927448,-6.599135"
       id="path14" />
  </g>
  <g
     inkscape:label="fill-7e7e7e"
     inkscape:groupmode="layer"
     id="fill-7e7e7e">
    <path
       style="stroke:#7e7e7e"
       d="M 723.653957,833.294707 l 0.989973,5.614415 M 730.438176,837.217304 l -2.228314,-12.637399 M 732.765767,815.865102 l 3.466656,19.660384 M 742.026669,833.833667 l -4.704998,-26.683368 M 741.877576,798.435497 l 5.943339,33.706352 M 753.615162,830.450030 l -7.181681,-40.729336 M 750.989386,781.005891 l 8.420022,47.752320 M 765.203655,827.066393 l -8.752352,-49.637054 M 762.269951,775.875908 l 8.343407,47.317813 M 775.163516,814.446328 l -7.074918,-40.123852 M 773.907246,772.769044 l 5.806428,32.929891 M 784.263833,796.951542 l -4.537939,-25.735930 M 785.544542,769.662180 l 3.269449,18.541969 M 793.364150,779.456757 l -2.000960,-11.348008 M 797.181837,766.555316 l 0.732471,4.154047"
       id="path17" />
    <path
       style="stroke:#7e7e7e"
       d="M 768.594390,708.085716 l 0.785512,4.454863 M 774.846938,708.993057 l -2.838392,-16.097324 M 775.422702,677.705750 l 4.891272,27.739784 M 785.781010,701.898012 l -5.472113,-31.033896 M 785.799940,667.452746 l 5.448106,30.897744 M 796.715082,694.802968 l -5.424099,-30.761592 M 796.782026,660.630006 l 5.400091,30.625440 M 807.649153,687.707924 l -5.376084,-30.489288 M 807.764112,653.807265 l 3.388063,19.214658 M 814.584545,657.935238 l -1.329390,-7.539343"
       id="path19" />
  </g>
  <g
     inkscape:label="fill-868686"
     inkscape:groupmode="layer"
     id="fill-868686">
    <path
       style="stroke:#868686"
       d="M 480.871527,565.385260 l 0.047863,0.225179 M 487.568414,568.033229 l -0.482687,-2.270863 M 493.299927,566.139471 l 0.917511,4.316548 M 500.866461,572.878809 l -1.352334,-6.362232 M 505.728327,566.893682 l 1.787158,8.407917 M 514.164508,577.724389 l -2.221982,-10.453602 M 518.156726,567.647893 l 2.656805,12.499286 M 527.462555,582.569970 l -3.091629,-14.544971 M 530.585126,568.402105 l 3.526453,16.590655 M 540.760602,587.415550 l -3.961276,-18.636340 M 543.013526,569.156316 l 4.396100,20.682025 M 554.058649,592.261131 l -4.830924,-22.727709 M 555.441925,569.910527 l 5.265747,24.773394 M 567.356696,597.106711 l -5.700571,-26.819078 M 567.870325,570.664738 l 6.135395,28.864763 M 580.654743,601.952291 l -6.570218,-30.910448 M 580.298725,571.418949 l 7.005042,32.956132 M 593.952790,606.797872 l -7.439866,-35.001817 M 598.719763,600.366310 l 1.882051,8.854352 M 693.689208,643.144735 l -0.141470,-0.665562 M 699.880026,643.411835 l 0.458129,2.155328 M 706.987101,647.989591 l -0.774788,-3.645093 M 712.544600,645.277160 l 1.091448,5.134859 M 720.284994,652.834447 l -3.481372,-16.378567 M 719.829511,621.833162 l 7.104429,33.423713 M 733.582887,657.679303 l -9.034443,-42.503713 M 731.187396,617.550995 l 9.044438,42.550736 M 746.880780,662.524159 l -9.054433,-42.597759 M 744.465299,622.301804 l 9.064428,42.644783 M 760.178674,667.369015 l -9.074424,-42.691806 M 757.743201,627.052613 l 9.084419,42.738829 M 773.476567,672.213871 l -9.094414,-42.785853 M 771.021104,631.803423 l 8.416261,39.595395 M 784.856106,668.033582 l -7.196050,-33.854755 M 784.299007,636.554232 l 5.975840,28.114115 M 795.693588,661.303112 l -4.755629,-22.373476 M 797.576910,641.305041 l 3.535418,16.632836 M 806.531069,654.572642 l -2.315208,-10.892196 M 810.854813,646.055850 l 1.094997,5.151557"
       id="path22" />
  </g>
  <g
     inkscape:label="fill-929292"
     inkscape:groupmode="layer"
     id="fill-929292">
    <path
       style="stroke:#929292"
       d="M 511.209794,804.147767 l 1.171977,4.373879 M 519.149100,806.731737 l -4.838680,-18.058201 M 517.411045,773.199305 l 8.505383,31.742523 M 532.683757,803.151919 l -12.172086,-45.426844 M 523.612296,742.250843 l 15.838789,59.111166 M 546.218414,799.572100 l -19.505492,-72.795488 M 529.813547,711.302381 l 23.172195,86.479809 M 559.753071,795.992281 l -26.838898,-100.164131 M 536.014798,680.353919 l 30.505601,113.848453 M 573.287728,792.412462 l -34.172304,-127.532774 M 542.216049,649.405457 l 36.989388,138.046276 M 579.097714,760.003780 l -31.826117,-118.776684 M 554.241234,640.192211 l 29.415061,109.778503 M 584.320194,752.448418 l -0.004090,-0.015263 M 561.210871,639.157325 l 29.270182,109.237807 M 592.131271,754.553830 l -0.010166,-0.037938 M 568.768203,640.315750 l 28.537607,106.503800 M 599.942347,756.659241 l -0.016241,-0.060614 M 576.814181,643.297826 l 27.316387,101.946143 M 602.159578,710.842214 l -17.299419,-64.562312 M 604.971838,721.337708 l 2.671475,9.970079 M 606.753310,700.940329 l -13.847173,-51.678352 M 600.952115,652.244053 l 10.394926,38.794392 M 615.940772,681.136560 l -6.942679,-25.910432 M 617.044071,658.208205 l 3.286279,12.264560"
       id="path25" />
  </g>
  <g
     inkscape:label="fill-999999"
     inkscape:groupmode="layer"
     id="fill-999999">
    <path
       style="stroke:#999999"
       d="M 494.167892,616.011846 l 0.096241,0.314789 M 502.947932,620.787938 l -1.678111,-5.488853 M 509.525081,618.358698 l 2.106650,6.890541 M 520.315530,629.710541 l -2.535189,-8.292230 M 526.035601,624.477925 l 2.963728,9.693918 M 537.683128,638.633145 l -3.392267,-11.095607 M 542.546121,630.597152 l 3.313977,10.839531 M 552.862076,640.396995 l -2.060695,-6.740230 M 559.056641,636.716378 l 0.807413,2.640929"
       id="path28" />
    <path
       style="stroke:#999999"
       d="M 227.322861,557.233339 l 5.137809,16.805016 M 238.452169,569.693541 l -5.189613,-16.974459 M 239.202252,548.204826 l 5.241416,17.143901 M 250.435168,561.003912 l -5.293220,-17.313343 M 251.081643,539.176312 l 5.345024,17.482785 M 262.418166,552.314283 l -5.396828,-17.652227 M 262.961034,530.147799 l 5.448631,17.821670 M 274.401164,543.624654 l -5.500435,-17.991112 M 274.840425,521.119286 l 5.552239,18.160554 M 286.384163,534.935025 l -5.604042,-18.329996 M 286.719816,512.090772 l 5.655846,18.499438 M 298.367161,526.245396 l -5.707650,-18.668881 M 298.599207,503.062259 l 5.759453,18.838323 M 307.754898,509.067047 l -3.215995,-10.519045 M 308.720373,512.224976 l 1.629786,5.330791 M 316.341659,513.210953 l -0.086759,-0.283775 M 404.442460,442.243809 l 1.770893,5.792331 M 412.204899,443.691479 l -3.684650,-12.051947 M 413.178355,422.933383 l 5.018090,16.413434 M 424.187991,435.002156 l -5.909938,-19.330535 M 423.657612,409.325238 l 6.521925,21.332256 M 436.171083,426.312833 l -6.884435,-22.517972 M 435.226594,399.281423 l 6.936035,22.686749 M 448.154175,417.623510 l -6.987635,-22.855526 M 447.106486,390.254546 l 7.039236,23.024303 M 460.137267,408.934187 l -7.090836,-23.193080 M 458.986377,381.227669 l 7.142436,23.361857 M 472.120359,400.244864 l -7.194037,-23.530634 M 470.866268,372.200792 l 7.245637,23.699411 M 484.103451,391.555541 l -7.297237,-23.868188 M 482.746160,363.173915 l 7.348838,24.036965 M 496.086543,382.866218 l -7.400438,-24.205741 M 494.626051,354.147039 l 7.452038,24.374518 M 508.069635,374.176896 l -7.503638,-24.543295 M 506.505943,345.120162 l 7.555239,24.712072 M 520.052727,365.487573 l -7.606839,-24.880849 M 518.385834,336.093285 l 7.658439,25.049626 M 532.035819,356.798250 l -7.710040,-25.218403 M 530.265725,327.066408 l 7.761640,25.387180 M 544.018911,348.108927 l -7.813240,-25.555957 M 542.145617,318.039531 l 7.864840,25.724734 M 556.002003,339.419604 l -7.916441,-25.893511 M 554.025508,309.012655 l 7.968041,26.062288 M 567.985095,330.730281 l -8.019641,-26.231065 M 565.905400,299.985778 l 8.071242,26.399842 M 579.968187,322.040958 l -8.122842,-26.568619 M 577.785291,290.958901 l 8.174442,26.737396 M 591.951279,313.351635 l -8.226043,-26.906173 M 589.665182,281.932024 l 8.277643,27.074950 M 603.934371,304.662312 l -8.329243,-27.243727 M 601.545074,272.905147 l 8.380843,27.412504 M 615.917463,295.972990 l -8.432444,-27.581281 M 613.424965,263.878271 l 8.484044,27.750058 M 627.900555,287.283667 l -8.535644,-27.918835"
       id="path30" />
  </g>
  <g
     inkscape:label="fill-9c9c9c"
     inkscape:groupmode="layer"
     id="fill-9c9c9c">
    <path
       style="stroke:#9c9c9c"
       d="M 579.232737,795.872445 l 6.359739,19.573265 M 593.705287,817.761896 l -14.556378,-44.799926 M 579.413162,751.122784 l 22.404935,68.955298 M 609.930907,822.394268 l -22.452732,-69.102404 M 595.543187,755.460944 l 20.140177,61.985092 M 615.479475,794.166052 l -11.871275,-36.536029 M 611.673212,759.799103 l 3.602373,11.086965"
       id="path33" />
  </g>
  <g
     inkscape:label="fill-a3a3a3"
     inkscape:groupmode="layer"
     id="fill-a3a3a3">
    <path
       style="stroke:#a3a3a3"
       d="M 637.343519,665.730764 l 0.535297,1.554616 M 649.008771,678.108239 l -3.178739,-9.231729 M 654.316543,672.022256 l 5.822181,16.908842 M 671.268679,699.753957 l -8.465623,-24.585955 M 671.289567,678.313748 l 11.109065,32.263068 M 693.528587,721.399675 l -13.752507,-39.940181 M 688.262592,684.605241 l 16.395949,47.617294 M 715.788495,743.045394 l -19.039391,-55.294407 M 705.235616,690.896733 l 21.682833,62.971520 M 738.048403,764.691112 l -24.326275,-70.648633 M 722.208640,697.188225 l 26.969717,78.325746 M 757.171332,777.226383 l -26.476181,-76.892412 M 740.738431,708.000898 l 23.213265,67.416218 M 770.732060,773.607847 l -18.910469,-54.919989 M 762.904752,729.374820 l 14.607672,42.423760 M 784.292788,769.989311 l -10.304875,-29.927531 M 785.071073,750.748742 l 6.002078,17.431301 M 797.853515,766.370775 l -1.699282,-4.935072"
       id="path36" />
  </g>
  <g
     inkscape:label="fill-a4a4a4"
     inkscape:groupmode="layer"
     id="fill-a4a4a4">
    <path
       style="stroke:#a4a4a4"
       d="M 884.893620,580.761374 l 2.791281,7.668980 M 894.812402,584.622569 l -9.934419,-27.294592 M 891.380223,551.802301 l 10.559680,29.012482 M 909.067405,577.006997 l -10.340876,-28.411323 M 906.072834,545.389047 l 10.122072,27.810164 M 923.322407,569.391425 l -9.903268,-27.209006 M 920.765445,538.975792 l 9.684464,26.607847 M 931.660147,545.518307 l -3.548397,-9.749142"
       id="path39" />
  </g>
  <g
     inkscape:label="fill-a5a5a5"
     inkscape:groupmode="layer"
     id="fill-a5a5a5">
    <path
       style="stroke:#a5a5a5"
       d="M 609.913491,625.409087 l 1.812522,4.979862 M 620.722972,631.717454 l -7.833146,-21.521392 M 615.866159,594.983037 l 13.853771,38.062923 M 638.716889,634.374465 l -14.890769,-40.912052 M 632.794002,594.711034 l 14.919845,40.991936 M 656.710806,637.031475 l -14.948920,-41.071820 M 650.729769,597.208276 l 14.977996,41.151705 M 674.704723,639.688486 l -15.007071,-41.231589 M 668.665535,599.705518 l 15.036146,41.311473 M 692.698640,642.345496 l -15.065222,-41.391357 M 686.601301,602.202760 l 15.094297,41.471241 M 710.692557,645.002506 l -15.123373,-41.551126 M 704.537067,604.700002 l 12.011110,33.000252 M 719.634983,622.790750 l -6.130033,-16.842128 M 722.472833,607.197244 l 0.248957,0.684003"
       id="path42" />
  </g>
  <g
     inkscape:label="fill-a6a6a6"
     inkscape:groupmode="layer"
     id="fill-a6a6a6">
    <path
       style="stroke:#a6a6a6"
       d="M 465.239879,771.981498 l 4.374148,12.017872 M 480.597893,790.786861 l -12.510529,-34.372395 M 470.934851,740.847434 l 20.646909,56.726917 M 502.565627,804.361843 l -28.783290,-79.081440 M 476.629823,709.713371 l 34.506162,94.804901 M 514.158284,789.431536 l -34.680975,-95.285197 M 482.324795,678.579308 l 34.855789,95.765493 M 520.202883,759.258065 l -35.030602,-96.245789 M 488.019767,647.445244 l 35.205416,96.726085 M 526.247482,729.084593 l -35.380229,-97.206381 M 493.714739,616.311181 l 35.555043,97.686677 M 532.292081,698.911121 l -28.219341,-77.532001 M 514.549546,626.773472 l 20.764835,57.050914 M 538.336680,668.737650 l -13.310328,-36.569827 M 535.503157,637.562174 l 5.855822,16.088740"
       id="path45" />
  </g>
  <g
     inkscape:label="fill-a9a9a9"
     inkscape:groupmode="layer"
     id="fill-a9a9a9">
    <path
       style="stroke:#a9a9a9"
       d="M 583.510429,750.004087 l 0.947414,2.468097 M 594.005851,755.022171 l -2.624029,-6.835830 M 599.253214,746.368594 l 4.300645,11.203563 M 613.101867,760.122144 l -5.977261,-15.571296 M 614.995999,742.733101 l 6.244788,16.268229 M 628.978303,756.834825 l -6.110912,-15.919470 M 636.399271,753.843681 l 0.316549,0.824639"
       id="path48" />
  </g>
  <g
     inkscape:label="fill-acacac"
     inkscape:groupmode="layer"
     id="fill-acacac">
    <path
       style="stroke:#acacac"
       d="M 308.920597,496.445708 l 6.328925,16.487414 M 323.444713,511.958898 l -11.047029,-28.778494 M 316.522549,471.602620 l 14.574509,37.967893 M 338.379510,506.218525 l -17.832475,-46.455185 M 324.052186,446.571144 l 21.434160,55.837897 M 352.529339,498.433240 l -25.901593,-67.475958 M 355.330949,505.731682 l 1.762148,4.590554 M 359.747277,494.913186 l -31.657995,-82.471897 M 361.004939,498.189507 l 5.961913,15.531314 M 376.693606,516.736458 l -46.177419,-120.296290 M 339.135818,396.571649 l 47.017975,122.486012 M 395.357331,520.710274 l -47.508291,-123.763330 M 356.624950,397.485548 l 47.828902,124.598549 M 413.394838,523.052737 l -47.978883,-124.989263 M 374.206960,398.641400 l 48.075493,125.240940 M 402.302132,449.508398 l -19.270806,-50.202167 M 403.557999,452.780046 l 27.476416,71.578511 M 406.154232,437.220039 l -14.234033,-37.080925 M 410.647806,448.926198 l 29.138572,75.908576 M 410.828712,427.074050 l -10.019639,-26.102052 M 417.737612,445.072350 l 30.708371,79.998042 M 416.108281,418.504373 l -6.410334,-16.699492 M 424.827418,441.218502 l 32.221535,83.939968 M 421.893846,411.252861 l -3.161648,-8.236375 M 431.917225,437.364654 l 33.734698,87.881894 M 472.626282,521.091948 l -33.790636,-88.027616 M 445.552386,428.238613 l 28.705538,74.780483 M 473.481280,478.672446 l -21.212155,-55.259553"
       id="path51" />
  </g>
  <g
     inkscape:label="fill-aeaeae"
     inkscape:groupmode="layer"
     id="fill-aeaeae">
    <path
       style="stroke:#aeaeae"
       d="M 602.134296,710.897980 l 5.205967,12.885222 M 622.157319,739.100963 l -15.410621,-38.142625 M 611.359100,691.018697 l 25.615274,63.400028 M 651.791429,769.736487 l -35.819927,-88.657431 M 620.583904,671.139414 l 46.024581,113.914834 M 681.425540,800.372010 l -56.218649,-139.146039 M 635.363162,665.007885 l 60.879434,150.681887 M 711.059651,831.007534 l -61.571832,-152.395633 M 663.704667,692.444099 l 58.226092,144.114634 M 726.798820,827.251869 l -48.877304,-120.975573 M 692.138364,720.108494 l 39.528516,97.836511 M 736.534941,808.638140 l -30.179728,-74.697449 M 720.572061,747.772889 l 20.830941,51.558387 M 746.271063,790.024412 l -11.482153,-28.419325 M 749.005759,775.437285 l 2.133365,5.280263"
       id="path54" />
  </g>
  <g
     inkscape:label="fill-b3b3b3"
     inkscape:groupmode="layer"
     id="fill-b3b3b3">
    <path
       style="stroke:#b3b3b3"
       d="M 232.463800,574.035578 l 0.376996,0.888146 M 240.781826,573.157181 l -1.673240,-3.941905 M 245.753372,564.394974 l 2.414559,5.688345 M 254.828550,565.300315 l -2.430391,-5.725644 M 259.042945,554.754370 l 2.446224,5.762942 M 268.149787,555.734309 l -2.462056,-5.800241 M 272.332517,545.113766 l 2.477889,5.837540 M 281.471025,546.168303 l -2.493721,-5.874839 M 285.622090,535.473162 l 2.509554,5.912138 M 294.792262,536.602297 l -2.525386,-5.949436 M 298.911662,525.832558 l 2.541218,5.986735 M 308.113499,527.036290 l -2.557051,-6.024034 M 312.201235,516.191954 l 2.572883,6.061333 M 321.434737,517.470284 l -2.048947,-4.827018 M 327.333573,510.892635 l 0.761782,1.794646 M 406.319635,451.278888 l -1.080566,-2.545653 M 411.883987,443.913241 l 1.497191,3.527162 M 420.442721,443.601918 l -1.913817,-4.508670 M 425.173821,434.273255 l 2.330443,5.490179 M 434.565807,435.924949 l -2.747068,-6.471688 M 438.463655,424.633268 l 2.829355,6.665542 M 447.952850,426.513972 l -2.844277,-6.700697 M 451.753490,414.993281 l 2.859200,6.735852 M 461.300735,417.010744 l -2.902328,-6.837457 M 465.043324,405.353294 l 2.917984,6.874340 M 474.621882,407.444524 l -2.933640,-6.911223 M 478.333159,395.713307 l 2.949296,6.948106 M 487.943028,397.878303 l -2.964952,-6.984989 M 491.622993,386.073321 l 2.980608,7.021872 M 501.264174,388.312083 l -2.996264,-7.058756 M 504.912827,376.433334 l 3.011920,7.095639 M 514.585321,378.745862 l -3.027576,-7.132522 M 518.202662,366.793347 l 3.043232,7.169405 M 527.906467,369.179642 l -3.058888,-7.206288 M 531.492496,357.153360 l 3.074544,7.243171 M 541.227613,359.613421 l -3.090200,-7.280054 M 544.782331,347.513373 l 3.105856,7.316937 M 554.548760,350.047200 l -3.121512,-7.353821 M 558.072165,337.873387 l 3.137168,7.390704 M 567.869906,340.480980 l -3.152824,-7.427587 M 571.362000,328.233400 l 3.168479,7.464470 M 581.191052,330.914759 l -3.184135,-7.501353 M 584.651834,318.593413 l 3.199791,7.538236 M 594.512198,321.348539 l -3.215447,-7.575119 M 597.941668,308.953426 l 3.231103,7.612002 M 607.833345,311.782318 l -3.246759,-7.648885 M 611.231503,299.313439 l 3.262415,7.685769 M 621.154491,302.216098 l -3.278071,-7.722652 M 624.521337,289.673452 l 3.293727,7.759535 M 634.475637,292.649877 l -3.309383,-7.796418 M 638.775131,282.304412 l 2.361079,5.562355 M 647.796784,283.083656 l -1.126571,-2.654035"
       id="path57" />
  </g>
  <g
     inkscape:label="fill-bbbbbb"
     inkscape:groupmode="layer"
     id="fill-bbbbbb">
    <path
       style="stroke:#bbbbbb"
       d="M 414.845554,582.207101 l 0.598788,1.284104 M 426.115899,587.446820 l -8.397725,-18.008979 M 423.017174,561.871971 l 13.770282,29.530465 M 447.459014,595.358052 l -15.357283,-32.933800 M 441.186287,562.976533 l 16.944284,36.337135 M 468.802128,603.269284 l -18.531285,-39.740469 M 459.355399,564.081095 l 20.118286,43.143804 M 490.145243,611.180515 l -21.705287,-46.547139 M 477.524512,565.185657 l 23.292288,49.950473 M 511.488357,619.091747 l -23.772479,-50.980246 M 498.351140,571.989281 l 23.808774,51.058081 M 532.831472,627.002978 l -23.845070,-51.135917 M 519.621664,579.744841 l 23.881365,51.213753 M 554.174587,634.914210 l -23.917660,-51.291588 M 540.892188,587.500402 l 23.953956,51.369424 M 575.517701,642.825441 l -23.990251,-51.447260 M 562.162712,595.255962 l 24.026547,51.525095 M 596.860816,650.736673 l -24.062842,-51.602931 M 583.433236,603.011522 l 24.099137,51.680767 M 618.203930,658.647905 l -24.135433,-51.758602 M 614.015590,630.736366 l 14.859898,31.867154 M 639.547045,666.559136 l -16.051343,-34.422216 M 632.975814,633.537474 l 17.242788,36.977278 M 660.890159,674.470368 l -18.434233,-39.532340 M 651.936039,636.338582 l 19.625678,42.087402 M 682.233274,682.381599 l -20.817123,-44.642464 M 670.896264,639.139689 l 22.008568,47.197526 M 703.576389,690.292831 l -23.200013,-49.752588 M 689.856488,641.940797 l 24.391458,52.307650 M 724.919503,698.204062 l -24.503764,-52.548491 M 711.049497,649.530126 l 24.541563,52.629552 M 746.262618,706.115294 l -24.579363,-52.710613 M 732.317013,657.279235 l 24.617162,52.791675 M 767.368595,713.517983 l -24.417824,-52.364193 M 753.584529,665.028345 l 16.656667,35.720338 M 773.113797,687.979382 l -8.895510,-19.076483 M 774.852044,672.777454 l 1.134353,2.432628"
       id="path60" />
  </g>
  <g
     inkscape:label="fill-cdcdcd"
     inkscape:groupmode="layer"
     id="fill-cdcdcd">
    <path
       style="stroke:#cdcdcd"
       d="M 306.396849,521.975361 l 1.230145,2.130674 M 318.346851,524.673372 l -2.897643,-5.018865 M 324.501567,517.333652 l 4.565141,7.907056 M 339.786565,525.808045 l -6.232639,-10.795247 M 342.606285,512.691944 l 7.900137,13.683438 M 361.226278,526.942718 l -9.567634,-16.571629 M 363.255118,512.456771 l 8.691017,15.053284 M 382.665992,528.077391 l -6.649359,-11.517027 M 388.100616,519.490436 l 5.285233,9.154292 M 404.105706,529.212065 l -4.492300,-7.780892 M 410.782315,522.776291 l 4.043248,7.003110 M 425.545419,530.346738 l -3.736584,-6.471954 M 432.529950,524.444301 l 3.735326,6.469774 M 446.985133,531.481411 l -3.734067,-6.467594 M 453.710838,525.130674 l 3.994151,6.918073 M 468.424846,532.616084 l -4.262016,-7.382029 M 472.531062,521.728258 l 6.613641,11.455163 M 489.864560,533.750758 l -12.306787,-21.315981 M 488.244652,512.944994 l 12.339765,21.373100 M 511.304273,534.885431 l -12.372742,-21.430219 M 509.618410,513.965430 l 12.405720,21.487337 M 532.743987,536.020104 l -12.438697,-21.544456 M 530.992169,514.985866 l 12.471675,21.601575 M 554.183701,537.154777 l -12.504652,-21.658693 M 552.365928,516.006302 l 12.537630,21.715812 M 575.623414,538.289450 l -12.570607,-21.772931 M 573.739686,517.026738 l 12.603585,21.830049 M 597.063128,539.424124 l -12.636562,-21.887168 M 595.113445,518.047174 l 12.669540,21.944287 M 618.502841,540.558797 l -12.702517,-22.001405 M 616.487203,519.067610 l 12.735495,22.058524 M 639.942555,541.693470 l -12.768472,-22.115643 M 637.860962,520.088046 l 12.801450,22.172761 M 661.382269,542.828143 l -12.834427,-22.229880 M 659.234721,521.108481 l 12.867405,22.286999 M 682.821982,543.962817 l -12.900382,-22.344117 M 680.608479,522.128917 l 12.933360,22.401236 M 704.261696,545.097490 l -12.966337,-22.458355 M 701.982238,523.149353 l 12.999315,22.515473 M 725.701409,546.232163 l -13.032292,-22.572592 M 723.355997,524.169789 l 13.065269,22.629711 M 747.141123,547.366836 l -13.098247,-22.686829 M 744.729755,525.190225 l 13.131224,22.743948 M 768.580836,548.501509 l -13.164202,-22.801067 M 766.103514,526.210661 l 13.197179,22.858185 M 790.020550,549.636183 l -13.230157,-22.915304 M 787.477272,527.231097 l 13.263134,22.972423 M 811.460264,550.770856 l -13.296112,-23.029541 M 808.851031,528.251533 l 13.329089,23.086660 M 832.899977,551.905529 l -13.362067,-23.143779 M 830.224790,529.271969 l 13.395044,23.200897 M 854.339691,553.040202 l -13.428022,-23.258016 M 851.598548,530.292404 l 13.460999,23.315135 M 875.779404,554.174876 l -13.493977,-23.372253 M 872.972307,531.312840 l 13.160178,22.794096 M 894.431676,550.481558 l -10.772490,-18.658500 M 894.346066,532.333276 l 8.384802,14.522904 M 911.030060,543.230802 l -5.997115,-10.387308 M 915.719824,533.353712 l 3.609427,6.251711 M 927.628443,535.980045 l -1.221740,-2.116115"
       id="path63" />
  </g>
  <g
     inkscape:label="fill-d4d4d4"
     inkscape:groupmode="layer"
     id="fill-d4d4d4">
    <path
       style="stroke:#d4d4d4"
       d="M 298.923282,554.306212 l 0.023789,0.039592 M 309.844275,555.007360 l -10.493166,-17.463561 M 301.583116,523.784045 l 19.158363,31.884871 M 331.638683,556.330472 l -19.210439,-31.971540 M 323.273371,524.933820 l 19.262515,32.058209 M 353.433090,557.653585 l -19.314591,-32.144878 M 344.963626,526.083594 l 19.366667,32.231547 M 375.227498,558.976698 l -19.418743,-32.318216 M 366.653882,527.233369 l 19.470820,32.404885 M 397.021905,560.299811 l -19.522896,-32.491555 M 388.344137,528.383143 l 19.574972,32.578224 M 418.816313,561.622924 l -19.627048,-32.664893 M 410.034393,529.532918 l 19.679124,32.751562 M 440.610720,562.946036 l -19.731200,-32.838231 M 431.724648,530.682693 l 19.783276,32.924900 M 462.405128,564.269149 l -19.835352,-33.011569 M 453.414903,531.832467 l 19.887428,33.098238 M 484.199535,565.592262 l -19.939504,-33.184907 M 475.105159,532.982242 l 19.991580,33.271576 M 505.993943,566.915375 l -20.043656,-33.358246 M 496.795414,534.132016 l 20.095732,33.444915 M 527.788350,568.238487 l -20.147808,-33.531584 M 518.485670,535.281791 l 20.199884,33.618253 M 549.582758,569.561600 l -20.251960,-33.704922 M 540.175925,536.431565 l 20.304036,33.791591 M 571.377165,570.884713 l -20.356112,-33.878260 M 561.866180,537.581340 l 20.408188,33.964929 M 593.171573,572.207826 l -20.460265,-34.051598 M 583.556436,538.731115 l 20.512341,34.138268 M 614.965980,573.530939 l -20.564417,-34.224937 M 605.246691,539.880889 l 20.616493,34.311606 M 636.760388,574.854051 l -20.668569,-34.398275 M 626.936947,541.030664 l 20.720645,34.484944 M 658.554795,576.177164 l -20.772721,-34.571613 M 648.627202,542.180438 l 20.824797,34.658282 M 680.349203,577.500277 l -20.876873,-34.744951 M 670.317458,543.330213 l 20.928949,34.831620 M 702.143610,578.823390 l -20.981025,-34.918289 M 692.007713,544.479988 l 21.033101,35.004959 M 723.938018,580.146502 l -21.085177,-35.091628 M 713.697968,545.629762 l 21.137253,35.178297 M 745.732425,581.469615 l -21.189329,-35.264966 M 735.388224,546.779537 l 21.241405,35.351635 M 767.526833,582.792728 l -21.293481,-35.438304 M 757.078479,547.929311 l 21.345557,35.524973 M 789.321240,584.115841 l -21.397633,-35.611642 M 778.768735,549.079086 l 21.449709,35.698311 M 811.115648,585.438954 l -21.501786,-35.784980 M 800.458990,550.228860 l 21.553862,35.871650 M 832.910055,586.762066 l -21.605938,-35.958319 M 822.149245,551.378635 l 21.658014,36.044988 M 854.704463,588.085179 l -21.710090,-36.131657 M 843.839501,552.528410 l 21.762166,36.218326 M 876.498870,589.408292 l -21.814242,-36.304995 M 865.529756,553.678184 l 19.364706,32.228284 M 884.871338,568.393546 l -8.496454,-14.140474"
       id="path66" />
  </g>
</svg>
