<?xml version="1.0" encoding="UTF-8" standalone="no"?>
<!-- Created with Inkscape (http://www.inkscape.org/) -->

<svg
   xmlns:dc="http://purl.org/dc/elements/1.1/"
   xmlns:cc="http://creativecommons.org/ns#"
   xmlns:rdf="http://www.w3.org/1999/02/22-rdf-syntax-ns#"
   xmlns:svg="http://www.w3.org/2000/svg"
   xmlns="http://www.w3.org/2000/svg"
   xmlns:sodipodi="http://sodipodi.sourceforge.net/DTD/sodipodi-0.dtd"
   xmlns:inkscape="http://www.inkscape.org/namespaces/inkscape"
   id="svg2"
   version="1.1"
   inkscape:version="0.48.3.1 r9886"
   width="1284"
   height="850"
   sodipodi:docname="hantologie-_0010_outil_hatched_1398278345.svg">
  <defs
     id="defs24" />
  <sodipodi:namedview
     pagecolor="#ffffff"
     bordercolor="#666666"
     borderopacity="1"
     objecttolerance="10"
     gridtolerance="10"
     guidetolerance="10"
     inkscape:pageopacity="0"
     inkscape:pageshadow="2"
     inkscape:window-width="640"
     inkscape:window-height="480"
     id="namedview22" />
  <metadata
     id="metadata8">
    <rdf:RDF>
      <cc:Work
         rdf:about="">
        <dc:format>image/svg+xml </dc:format>
        <dc:type
           rdf:resource="http://purl.org/dc/dcmitype/StillImage" />
        <dc:title />
      </cc:Work>
    </rdf:RDF>
  </metadata>
  <g
     inkscape:label="fill-0b0b0b"
     inkscape:groupmode="layer"
     id="fill-0b0b0b">
    <path
       style="stroke:#0b0b0b"
       d="M 201.146577,509.786729 l 0.000000,0.456360 M 206.146577,510.824828 l 0.000000,-3.025240 M 216.146577,506.438879 l 0.000000,2.445820 M 276.146577,543.765134 l 0.000000,-3.876713 M 281.146577,540.436303 l 0.000000,4.505529 M 391.146577,474.706394 l 0.000000,-1.562053 M 396.146577,473.783859 l 0.000000,1.792384 M 401.146577,475.774631 l 0.000000,-0.874192 M 406.146577,384.029953 l 0.000000,45.485439 M 411.146577,437.206207 l 0.000000,-63.216318 M 416.146577,367.246777 l 0.000000,44.294281 M 416.146577,441.551188 l 0.000000,-17.670896 M 421.146577,361.958704 l 0.000000,35.167811 M 421.146577,444.318467 l 0.000000,-10.049901 M 426.146577,334.287195 l 0.000000,1.148757 M 426.146577,387.074387 l 0.000000,-29.163893 M 426.146577,439.196446 l 0.000000,6.979294 M 431.146577,333.860748 l 0.000000,-1.874738 M 431.146577,354.924074 l 0.000000,23.183088 M 431.146577,446.863167 l 0.000000,-3.983103 M 436.146577,330.656493 l 0.000000,1.328948 M 436.146577,371.023354 l 0.000000,-18.035068 M 441.146577,351.837544 l 0.000000,14.070631 M 446.146577,362.691402 l 0.000000,-11.419587 M 446.146577,401.771963 l 0.000000,11.401364 M 451.146577,360.809277 l 0.000000,-9.707259 M 451.146577,397.364506 l 0.000000,18.475434 M 456.146577,359.756749 l 0.000000,-8.221402 M 456.146577,396.866001 l 0.000000,17.533829 M 456.146577,557.311930 l 0.000000,-26.181823 M 461.146577,352.939946 l 0.000000,6.307279 M 461.146577,409.129219 l 0.000000,-8.836103 M 461.146577,531.874906 l 0.000000,26.065888 M 466.146577,358.927380 l 0.000000,-3.570845 M 466.146577,523.687908 l 0.000000,4.813141 M 466.146577,558.507195 l 0.000000,-25.887491 M 471.146577,486.761249 l 0.000000,9.564288 M 471.146577,525.126595 l 0.000000,-2.007108 M 471.146577,533.364503 l 0.000000,25.709094 M 476.146577,498.687539 l 0.000000,-12.088852 M 476.146577,534.109302 l 0.000000,25.530696 M 481.146577,499.869330 l 0.000000,-12.581953 M 481.146577,534.854101 l 0.000000,25.352299 M 486.146577,500.835980 l 0.000000,-12.708284 M 486.146577,535.548014 l 0.000000,25.224788 M 491.146577,501.789281 l 0.000000,-12.822940 M 491.146577,536.223576 l 0.000000,25.115627 M 496.146577,502.691933 l 0.000000,-12.894676 M 496.146577,536.899139 l 0.000000,25.006466 M 501.146577,503.594584 l 0.000000,-12.966413 M 501.146577,537.574702 l 0.000000,24.897305 M 506.146577,504.497236 l 0.000000,-13.038150 M 506.146577,538.250264 l 0.000000,24.788144 M 511.146577,504.079748 l 0.000000,-11.789747 M 511.146577,538.925827 l 0.000000,24.678982 M 516.146577,502.118735 l 0.000000,-9.008235 M 516.146577,539.600114 l 0.000000,24.571097 M 521.146577,499.955212 l 0.000000,-6.025868 M 521.146577,540.193689 l 0.000000,24.543923 M 526.146577,497.629009 l 0.000000,-2.710247 M 526.146577,540.787265 l 0.000000,24.516749 M 531.146577,565.855027 l 0.000000,-24.474187 M 536.146577,503.209646 l 0.000000,3.915668 M 536.146577,566.400328 l 0.000000,-24.425913 M 541.146577,500.794843 l 0.000000,8.097263 M 541.146577,520.806414 l 0.000000,-2.098461 M 541.146577,542.567991 l 0.000000,24.377638 M 546.146577,510.366456 l 0.000000,-11.812709 M 546.146577,516.836202 l 0.000000,3.194994 M 546.146577,567.490931 l 0.000000,-24.329364 M 551.146577,496.312650 l 0.000000,6.427522 M 551.146577,509.473283 l 0.000000,-0.325302 M 551.146577,515.169001 l 0.000000,2.106424 M 551.146577,568.036232 l 0.000000,-24.281090 M 556.146577,494.223740 l 0.000000,9.144717 M 556.146577,568.581534 l 0.000000,-24.232816 M 561.146577,492.154798 l 0.000000,12.443144 M 561.146577,569.126835 l 0.000000,-24.192700 M 566.146577,490.260070 l 0.000000,16.307166 M 566.146577,569.672136 l 0.000000,-24.182572 M 571.146577,489.558760 l 0.000000,16.752917 M 571.146577,570.217438 l 0.000000,-24.172444 M 576.146577,487.164702 l 0.000000,17.057642 M 576.146577,570.762739 l 0.000000,-24.162316 M 581.146577,487.535448 l 0.000000,17.803059 M 581.146577,571.308041 l 0.000000,-24.152188 M 586.146577,488.138674 l 0.000000,22.468342 M 586.146577,571.853342 l 0.000000,-24.142060 M 591.146577,488.772450 l 0.000000,23.184890 M 591.146577,572.398643 l 0.000000,-24.131932 M 596.146577,489.517730 l 0.000000,23.416843 M 596.146577,572.943945 l 0.000000,-24.121803 M 601.146577,490.263010 l 0.000000,23.508822 M 601.146577,573.432425 l 0.000000,-24.054854 M 606.146577,491.008291 l 0.000000,23.600801 M 606.146577,573.805184 l 0.000000,-23.872184 M 611.146577,491.750887 l 0.000000,23.695464 M 611.146577,566.964280 l 0.000000,-16.475850 M 616.146577,492.488280 l 0.000000,23.795331 M 621.146577,517.096782 l 0.000000,-23.871109 M 626.146577,493.963066 l 0.000000,23.784695 M 631.146577,518.334132 l 0.000000,-23.633673 M 636.146577,495.437851 l 0.000000,23.223107 M 936.146577,515.002248 l 0.000000,-30.645763 M 941.146577,478.461282 l 0.000000,42.847017 M 946.146577,525.088002 l 0.000000,-50.527019 M 951.146577,473.362440 l 0.000000,54.194668 M 956.146577,524.521875 l 0.000000,-48.865808 M 961.146577,478.463342 l 0.000000,45.098553 M 966.146577,524.171859 l 0.000000,-43.426179 M 971.146577,482.408505 l 0.000000,42.593779 M 976.146577,526.169850 l 0.000000,-42.433437 M 981.146577,485.010611 l 0.000000,42.326804 M 986.146577,528.573455 l 0.000000,-42.303518 M 991.146577,487.529263 l 0.000000,42.385150 M 996.146577,531.255371 l 0.000000,-42.466782 M 1001.146577,489.999754 l 0.000000,42.634620 M 1006.146577,534.289301 l 0.000000,-43.176468 M 1011.146577,491.886935 l 0.000000,44.367697 M 1016.146577,538.671276 l 0.000000,-46.265967 M 1021.146577,501.756151 l 0.000000,40.039996 M 1026.146577,545.835413 l 0.000000,-43.973636 M 1031.146577,499.026511 l 0.000000,51.307430 M 1036.146577,554.837150 l 0.000000,-57.863010 M 1041.146577,496.339938 l 0.000000,63.000421 M 1046.146577,564.524527 l 0.000000,-68.690414 M 1051.146577,495.386775 l 0.000000,76.616691 M 1056.146577,574.282116 l 0.000000,-77.905594 M 1061.146577,492.169595 l 0.000000,1.586869 M 1061.146577,576.109265 l 0.000000,-79.308806 M 1066.146577,496.083735 l 0.000000,81.523523 M 1071.146577,578.756032 l 0.000000,-78.114113 M 1076.146577,495.354092 l 0.000000,2.382788 M 1076.146577,579.595114 l 0.000000,-79.173947 M 1081.146577,500.100582 l 0.000000,79.717244 M 1086.146577,562.475134 l 0.000000,-56.136352 M 1086.146577,562.737718 l 0.000000,16.659486 M 1091.146577,503.950089 l 0.000000,-3.702692 M 1091.146577,506.722450 l 0.000000,55.554342 M 1091.146577,578.154852 l 0.000000,-11.771992 M 1096.146577,508.673843 l 0.000000,54.553087 M 1096.146577,576.123772 l 0.000000,-5.942610 M 1101.146577,514.416692 l 0.000000,51.045461 M 1106.146577,568.714609 l 0.000000,-53.727868 M 1111.146577,511.104938 l 0.000000,60.563708 M 1116.146577,572.115837 l 0.000000,-64.073130 M 1121.146577,506.390442 l 0.000000,20.737287 M 1121.146577,571.928726 l 0.000000,-7.803305 M 1126.146577,506.175054 l 0.000000,12.160735 M 1126.146577,571.013840 l 0.000000,-0.975807 M 1131.146577,507.237608 l 0.000000,5.917823"
       id="path5" />
  </g>
  <g
     inkscape:label="fill-2f2f2f"
     inkscape:groupmode="layer"
     id="fill-2f2f2f">
    <path
       style="stroke:#2f2f2f"
       d="M 171.176061,504.871686 l 0.000000,12.688812 M 177.176061,517.087972 l 0.000000,-6.323148 M 183.176061,502.625554 l 0.000000,13.050154 M 189.176061,514.453800 l 0.000000,-5.157953 M 195.176061,501.861830 l 0.000000,11.695071 M 195.176061,540.830518 l 0.000000,-2.159529 M 201.176061,505.397076 l 0.000000,7.327288 M 207.176061,511.905733 l 0.000000,-6.835688 M 207.176061,537.895518 l 0.000000,7.505873 M 213.176061,511.087102 l 0.000000,-9.120618 M 219.176061,499.775023 l 0.000000,10.493449 M 219.176061,544.790726 l 0.000000,-12.390069 M 225.176061,500.894191 l 0.000000,8.523663 M 231.176061,508.484716 l 0.000000,-10.265877 M 231.176061,529.020777 l 0.000000,14.801935 M 237.176061,506.875515 l 0.000000,-5.738982 M 237.176061,527.984143 l 0.000000,2.090483 M 243.176061,538.027764 l 0.000000,-10.822541 M 243.176061,539.166376 l 0.000000,2.670756 M 249.176061,516.663356 l 0.000000,-9.174405 M 249.176061,526.576505 l 0.000000,2.231163 M 249.176061,538.799015 l 0.000000,-1.038646 M 255.176061,508.098830 l 0.000000,7.538502 M 255.176061,528.023584 l 0.000000,-1.920938 M 255.176061,533.914405 l 0.000000,5.573022 M 261.176061,514.260083 l 0.000000,-10.659947 M 261.176061,525.774223 l 0.000000,1.763362 M 261.176061,540.639672 l 0.000000,-1.056342 M 267.176061,498.244091 l 0.000000,14.293537 M 267.176061,529.392830 l 0.000000,-4.393848 M 267.176061,535.029133 l 0.000000,6.225334 M 267.176061,546.076937 l 0.000000,-1.685188 M 273.176061,493.884415 l 0.000000,14.507422 M 273.176061,546.831059 l 0.000000,-24.204231 M 279.176061,517.670519 l 0.000000,29.818712 M 285.176061,549.059830 l 0.000000,-26.430095 M 291.176061,526.473020 l 0.000000,24.282022 M 315.176061,521.000008 l 0.000000,-3.250142 M 321.176061,513.300431 l 0.000000,7.273572 M 327.176061,519.583868 l 0.000000,-8.215426 M 333.176061,513.915317 l 0.000000,4.595966 M 363.176061,500.013081 l 0.000000,-4.082780 M 369.176061,495.329003 l 0.000000,4.626377 M 381.176061,472.231020 l 0.000000,-0.383194 M 387.176061,470.850873 l 0.000000,4.114859 M 393.176061,437.133511 l 0.000000,-5.143402 M 393.176061,471.837730 l 0.000000,4.200453 M 399.176061,367.380984 l 0.000000,-18.079566 M 399.176061,383.312742 l 0.000000,65.045524 M 399.176061,476.620086 l 0.000000,-3.707929 M 405.176061,341.121422 l 0.000000,23.208238 M 405.176061,453.798002 l 0.000000,-82.286370 M 405.176061,474.198014 l 0.000000,2.660992 M 411.176061,456.097560 l 0.000000,-120.888375 M 411.176061,475.762520 l 0.000000,0.822691 M 417.176061,309.301549 l 0.000000,-2.615796 M 417.176061,330.667382 l 0.000000,126.667367 M 423.176061,309.284086 l 0.000000,-5.803726 M 423.176061,327.233407 l 0.000000,130.638983 M 429.176061,309.114844 l 0.000000,-7.783717 M 429.176061,324.865238 l 0.000000,133.158364 M 429.176061,462.605714 l 0.000000,-1.732772 M 435.176061,300.227630 l 0.000000,8.855760 M 435.176061,460.325278 l 0.000000,-136.782370 M 441.176061,300.212349 l 0.000000,12.753819 M 441.176061,457.770145 l 0.000000,-135.058233 M 447.176061,300.665190 l 0.000000,15.704605 M 447.176061,454.594796 l 0.000000,-132.463507 M 453.176061,301.440322 l 0.000000,6.608755 M 453.176061,320.791321 l 0.000000,-11.505741 M 453.176061,321.757828 l 0.000000,129.008896 M 453.176061,556.360589 l 0.000000,-23.526717 M 459.176061,302.881587 l 0.000000,6.024792 M 459.176061,322.051005 l 0.000000,-10.691799 M 459.176061,323.115069 l 0.000000,123.179037 M 459.176061,558.611337 l 0.000000,-31.354586 M 465.176061,305.374008 l 0.000000,5.005378 M 465.176061,322.920076 l 0.000000,-8.946530 M 465.176061,326.351235 l 0.000000,114.760477 M 465.176061,559.287047 l 0.000000,-36.179055 M 471.176061,309.069377 l 0.000000,3.244681 M 471.176061,324.312445 l 0.000000,-6.833535 M 471.176061,330.222170 l 0.000000,104.880964 M 471.176061,497.395157 l 0.000000,-11.461483 M 471.176061,521.620083 l 0.000000,38.342675 M 477.176061,314.672225 l 0.000000,-0.605413 M 477.176061,324.002944 l 0.000000,1.161320 M 477.176061,428.064807 l 0.000000,-92.990318 M 477.176061,486.005377 l 0.000000,13.545579 M 477.176061,527.456976 l 0.000000,-7.361536 M 477.176061,529.991645 l 0.000000,30.646823 M 483.176061,419.627366 l 0.000000,-78.297560 M 483.176061,486.858284 l 0.000000,14.150117 M 483.176061,525.844510 l 0.000000,-7.761827 M 483.176061,531.154058 l 0.000000,30.160120 M 489.176061,407.851387 l 0.000000,-54.592523 M 489.176061,487.785102 l 0.000000,14.477978 M 489.176061,523.147395 l 0.000000,-7.217810 M 489.176061,532.874821 l 0.000000,29.115067 M 495.176061,503.408125 l 0.000000,-14.649472 M 495.176061,514.190603 l 0.000000,4.487529 M 495.176061,562.665599 l 0.000000,-27.708166 M 501.176061,489.752809 l 0.000000,14.779445 M 501.176061,563.341309 l 0.000000,-27.135755 M 507.176061,490.746966 l 0.000000,14.909418 M 507.176061,564.017019 l 0.000000,-26.693615 M 513.176061,491.741122 l 0.000000,12.533826 M 513.176061,516.960531 l 0.000000,-4.461434 M 513.176061,538.098034 l 0.000000,26.594695 M 519.176061,501.853341 l 0.000000,-9.093753 M 519.176061,509.598944 l 0.000000,10.251878 M 519.176061,565.368440 l 0.000000,-26.495776 M 525.176061,493.789439 l 0.000000,5.587929 M 525.176061,522.621616 l 0.000000,-15.894814 M 525.176061,539.647293 l 0.000000,26.392230 M 531.176061,496.857694 l 0.000000,-1.940318 M 531.176061,503.903878 l 0.000000,20.814728 M 531.176061,566.687202 l 0.000000,-26.341559 M 537.176061,501.080955 l 0.000000,22.781784 M 537.176061,567.334879 l 0.000000,-26.313617 M 543.176061,498.339369 l 0.000000,23.599838 M 543.176061,567.982557 l 0.000000,-26.285675 M 549.176061,495.684793 l 0.000000,23.769394 M 549.176061,568.630235 l 0.000000,-26.257733 M 555.176061,493.030217 l 0.000000,11.116263 M 555.176061,511.776158 l 0.000000,-1.548123 M 555.176061,543.048122 l 0.000000,26.229791 M 561.176061,505.847445 l 0.000000,-15.235384 M 561.176061,543.727274 l 0.000000,26.198317 M 567.176061,508.178697 l 0.000000,-19.939149 M 567.176061,512.841630 l 0.000000,1.979456 M 567.176061,570.573268 l 0.000000,-26.160635 M 573.176061,486.410479 l 0.000000,19.440097 M 573.176061,571.220946 l 0.000000,-26.122954 M 579.176061,486.725961 l 0.000000,18.041492 M 579.176061,571.868624 l 0.000000,-26.085273 M 585.176061,487.351897 l 0.000000,23.485929 M 585.176061,572.516301 l 0.000000,-26.047591 M 591.176061,488.114228 l 0.000000,24.629928 M 591.176061,573.163979 l 0.000000,-26.009910 M 597.176061,488.890645 l 0.000000,24.954799 M 597.176061,573.811657 l 0.000000,-25.944777 M 603.176061,489.667061 l 0.000000,25.279671 M 603.176061,574.399859 l 0.000000,-25.731726 M 609.176061,490.449890 l 0.000000,25.518201 M 609.176061,574.761383 l 0.000000,-25.291997 M 615.176061,491.348031 l 0.000000,25.570351 M 621.176061,517.868674 l 0.000000,-25.622501 M 627.176061,493.144314 l 0.000000,25.546214 M 633.176061,519.460577 l 0.000000,-25.370061 M 639.176061,495.167206 l 0.000000,24.352433 M 783.176061,465.448635 l 0.000000,-2.277202 M 933.176061,487.042827 l 0.000000,23.472884 M 939.176061,520.387792 l 0.000000,-41.316169 M 945.176061,474.294659 l 0.000000,51.989930 M 945.176061,531.234345 l 0.000000,-2.991328 M 951.176061,471.857599 l 0.000000,62.334949 M 957.176061,524.932560 l 0.000000,-52.722181 M 957.176061,531.278874 l 0.000000,4.988541 M 963.176061,524.351804 l 0.000000,-49.183024 M 969.176061,478.959713 l 0.000000,46.375518 M 975.176061,526.614449 l 0.000000,-45.557320 M 981.176061,482.614910 l 0.000000,45.410652 M 987.176061,529.512375 l 0.000000,-45.467054 M 993.176061,485.422123 l 0.000000,45.689122 M 999.176061,532.710115 l 0.000000,-45.911190 M 1005.176061,488.089608 l 0.000000,46.532930 M 1011.176061,537.037237 l 0.000000,-47.757181 M 1017.176061,490.014377 l 0.000000,50.242977 M 1023.176061,544.624762 l 0.000000,-52.657618 M 1029.176061,492.482432 l 0.000000,57.322764 M 1029.176061,568.918054 l 0.000000,-4.582430 M 1035.176061,490.888187 l 0.000000,64.647109 M 1035.176061,571.753694 l 0.000000,-7.982424 M 1041.176061,489.518877 l 0.000000,71.872104 M 1041.176061,574.304791 l 0.000000,-11.765036 M 1047.176061,488.796758 l 0.000000,87.593417 M 1053.176061,577.954699 l 0.000000,-89.547850 M 1059.176061,488.314605 l 0.000000,90.901721 M 1065.176061,580.292115 l 0.000000,-91.795203 M 1071.176061,488.915148 l 0.000000,92.177934 M 1077.176061,581.610324 l 0.000000,-91.943013 M 1083.176061,491.051064 l 0.000000,90.854388 M 1089.176061,581.589133 l 0.000000,-87.853308 M 1095.176061,495.116955 l 0.000000,84.152061 M 1101.176061,577.183966 l 0.000000,-78.689789 M 1107.176061,502.606422 l 0.000000,73.250043 M 1113.176061,574.794684 l 0.000000,-68.810922 M 1119.176061,505.050386 l 0.000000,28.845841 M 1119.176061,573.912246 l 0.000000,-14.609256 M 1125.176061,504.343605 l 0.000000,17.108609 M 1125.176061,573.048929 l 0.000000,-5.979191 M 1131.176061,505.072247 l 0.000000,10.442601 M 1137.176061,513.531516 l 0.000000,-5.821557 M 1143.176061,511.110977 l 0.000000,1.597248"
       id="path8" />
  </g>
  <g
     inkscape:label="fill-4e4e4e"
     inkscape:groupmode="layer"
     id="fill-4e4e4e">
    <path
       style="stroke:#4e4e4e"
       d="M 165.775419,504.562290 l 0.000000,12.469568 M 173.775419,518.293742 l 0.000000,-16.095361 M 181.775419,501.287763 l 0.000000,16.803137 M 189.775419,517.661693 l 0.000000,-13.541167 M 197.775419,501.662818 l 0.000000,13.298728 M 197.775419,546.275273 l 0.000000,-13.435797 M 205.775419,498.368145 l 0.000000,15.143032 M 205.775419,547.266336 l 0.000000,-16.505176 M 213.775419,498.053061 l 0.000000,14.121309 M 213.775419,546.836159 l 0.000000,-17.410689 M 221.775419,496.883074 l 0.000000,14.115570 M 221.775419,546.317071 l 0.000000,-18.077413 M 229.775419,495.312418 l 0.000000,14.542616 M 229.775419,546.068435 l 0.000000,-18.927433 M 237.775419,493.380360 l 0.000000,15.840502 M 237.775419,546.144392 l 0.000000,-20.120974 M 245.775419,492.198012 l 0.000000,25.914934 M 245.775419,546.406632 l 0.000000,-21.525703 M 253.775419,492.436064 l 0.000000,54.284547 M 261.775419,517.251398 l 0.000000,-24.640528 M 261.775419,522.983082 l 0.000000,24.435776 M 269.775419,515.081812 l 0.000000,-25.252635 M 269.775419,522.912242 l 0.000000,25.204864 M 277.775419,484.597023 l 0.000000,-1.204336 M 277.775419,494.379692 l 0.000000,54.815976 M 285.775419,483.827321 l 0.000000,-2.440722 M 285.775419,518.679696 l 0.000000,32.102093 M 293.775419,480.746816 l 0.000000,-0.673634 M 293.775419,517.038212 l 0.000000,34.810346 M 301.775419,524.391595 l 0.000000,-9.980446 M 309.775419,513.158846 l 0.000000,9.683191 M 317.775419,522.033419 l 0.000000,-10.138281 M 325.775419,510.241865 l 0.000000,10.792195 M 333.775419,519.976629 l 0.000000,-6.844589 M 349.775419,436.154219 l 0.000000,4.564730 M 357.775419,451.944768 l 0.000000,-4.397003 M 365.775419,371.197739 l 0.000000,9.522211 M 365.775419,440.516608 l 0.000000,-19.695857 M 365.775419,455.166323 l 0.000000,4.728040 M 365.775419,501.941965 l 0.000000,-8.696337 M 373.775419,354.980996 l 0.000000,11.936500 M 373.775419,451.588939 l 0.000000,-15.388635 M 373.775419,460.408189 l 0.000000,3.495949 M 373.775419,497.732783 l 0.000000,-0.106324 M 381.775419,342.490473 l 0.000000,10.807095 M 381.775419,437.397630 l 0.000000,-68.204540 M 381.775419,444.751035 l 0.000000,13.812706 M 381.775419,474.767735 l 0.000000,-10.428070 M 389.775419,313.438163 l 0.000000,1.469540 M 389.775419,346.618355 l 0.000000,-14.713671 M 389.775419,351.635068 l 0.000000,111.886936 M 389.775419,476.540158 l 0.000000,-10.027927 M 397.775419,308.435379 l 0.000000,169.039051 M 405.775419,477.883670 l 0.000000,-173.472104 M 413.775419,301.133339 l 0.000000,169.998835 M 413.775419,477.438787 l 0.000000,-3.460783 M 421.775419,298.891537 l 0.000000,170.253662 M 429.775419,466.661617 l 0.000000,-168.855436 M 437.775419,297.554299 l 0.000000,165.846046 M 445.775419,459.149531 l 0.000000,-161.454296 M 453.775419,298.176722 l 0.000000,155.555290 M 453.775419,557.675524 l 0.000000,-27.423754 M 461.775419,300.485045 l 0.000000,146.729743 M 461.775419,559.396750 l 0.000000,-35.296757 M 469.775419,304.219366 l 0.000000,135.395314 M 469.775419,497.029097 l 0.000000,-10.837948 M 469.775419,521.303664 l 0.000000,39.182857 M 477.775419,430.873855 l 0.000000,-121.434988 M 477.775419,485.386442 l 0.000000,15.291815 M 477.775419,561.398309 l 0.000000,-42.328776 M 485.775419,317.237721 l 0.000000,103.325985 M 485.775419,502.295953 l 0.000000,-15.712746 M 485.775419,516.227924 l 0.000000,46.082173 M 493.775419,406.293504 l 0.000000,-77.299822 M 493.775419,487.851497 l 0.000000,15.947857 M 493.775419,512.898236 l 0.000000,-5.181927 M 501.775419,489.227492 l 0.000000,16.073737 M 501.775419,564.133673 l 0.000000,-54.889963 M 509.775419,490.603486 l 0.000000,15.963396 M 509.775419,565.015024 l 0.000000,-54.513597 M 517.775419,491.916899 l 0.000000,11.551212 M 517.775419,533.328009 l 0.000000,-25.283998 M 517.775419,537.810190 l 0.000000,28.065631 M 525.775419,500.233059 l 0.000000,-7.222156 M 525.775419,504.664841 l 0.000000,24.939640 M 525.775419,566.736618 l 0.000000,-27.928929 M 533.775419,494.088636 l 0.000000,2.875574 M 533.775419,526.287408 l 0.000000,-25.163491 M 533.775419,539.805188 l 0.000000,27.792228 M 541.775419,523.409277 l 0.000000,-25.773407 M 541.775419,540.802687 l 0.000000,27.655526 M 549.775419,520.391421 l 0.000000,-26.243598 M 549.775419,541.732806 l 0.000000,27.586204 M 557.775419,505.636063 l 0.000000,-14.976288 M 557.775419,509.798716 l 0.000000,3.769955 M 557.775419,570.179808 l 0.000000,-27.533392 M 565.775419,487.488166 l 0.000000,20.978974 M 565.775419,515.400084 l 0.000000,-4.247807 M 565.775419,543.560024 l 0.000000,27.480581 M 573.775419,506.131121 l 0.000000,-20.715309 M 573.775419,544.473633 l 0.000000,27.427769 M 581.775419,507.707942 l 0.000000,-21.657281 M 581.775419,545.387242 l 0.000000,27.374957 M 589.775419,513.498738 l 0.000000,-26.401905 M 589.775419,546.300851 l 0.000000,27.322146 M 597.775419,514.808358 l 0.000000,-26.595711 M 597.775419,547.070647 l 0.000000,27.359423 M 605.775419,516.117978 l 0.000000,-26.789518 M 605.775419,547.814449 l 0.000000,26.971870 M 613.775419,517.354714 l 0.000000,-26.909947 M 613.775419,548.183380 l 0.000000,25.671559 M 621.775419,518.573801 l 0.000000,-27.012638 M 629.775419,492.677560 l 0.000000,26.773542 M 637.775419,519.834796 l 0.000000,-26.319335 M 645.775419,493.463957 l 0.000000,23.655104 M 781.775419,455.940975 l 0.000000,-0.939299 M 781.775419,462.377353 l 0.000000,3.272324 M 789.775419,458.471571 l 0.000000,-1.781178 M 789.775419,463.322591 l 0.000000,3.226038 M 797.775419,460.427895 l 0.000000,-2.048783 M 797.775419,465.048239 l 0.000000,1.424208 M 805.775419,462.384218 l 0.000000,-2.316389 M 805.775419,467.157643 l 0.000000,0.920224 M 813.775419,464.310019 l 0.000000,-2.449907 M 813.775419,469.226607 l 0.000000,0.610869 M 821.775419,466.159029 l 0.000000,-2.437760 M 829.775419,465.582425 l 0.000000,2.425614 M 837.775419,469.847805 l 0.000000,-2.404224 M 845.775419,469.328495 l 0.000000,2.335820 M 853.775419,473.480824 l 0.000000,-2.255145 M 861.775419,473.122862 l 0.000000,2.174471 M 869.775419,477.113843 l 0.000000,-2.093797 M 877.775419,476.917229 l 0.000000,2.013122 M 885.775419,480.754572 l 0.000000,-1.940159 M 893.775419,480.665371 l 0.000000,1.954076 M 901.775419,484.484322 l 0.000000,-1.976349 M 909.775419,484.350576 l 0.000000,1.998621 M 917.775419,488.214072 l 0.000000,-2.020893 M 925.775419,488.035781 l 0.000000,2.043165 M 933.775419,512.906675 l 0.000000,-28.364816 M 941.775419,476.295288 l 0.000000,48.173004 M 941.775419,532.485766 l 0.000000,-6.190848 M 949.775419,471.771664 l 0.000000,64.438761 M 957.775419,526.172477 l 0.000000,-54.631949 M 957.775419,527.319855 l 0.000000,12.470696 M 965.775419,525.618096 l 0.000000,-50.513256 M 965.775419,533.836873 l 0.000000,9.775649 M 973.775419,526.941836 l 0.000000,-47.868256 M 973.775419,538.538763 l 0.000000,9.264746 M 981.775419,528.732068 l 0.000000,-47.225212 M 981.775419,542.480094 l 0.000000,10.174598 M 989.775419,530.727554 l 0.000000,-47.297784 M 989.775419,545.908006 l 0.000000,11.576493 M 997.775419,532.883068 l 0.000000,-47.671363 M 997.775419,548.943858 l 0.000000,12.650407 M 1005.775419,535.406034 l 0.000000,-48.615301 M 1005.775419,551.674589 l 0.000000,13.656270 M 1013.775419,538.948185 l 0.000000,-50.641190 M 1013.775419,554.219240 l 0.000000,14.552527 M 1021.775419,544.157923 l 0.000000,-54.904085 M 1021.775419,556.503308 l 0.000000,15.186802 M 1029.775419,551.352007 l 0.000000,-62.002105 M 1029.775419,558.510660 l 0.000000,15.902934 M 1037.775419,576.847884 l 0.000000,-88.528777 M 1045.775419,486.639576 l 0.000000,92.280025 M 1053.775419,580.817785 l 0.000000,-95.415640 M 1061.775419,484.741190 l 0.000000,97.538507 M 1069.775419,583.454788 l 0.000000,-98.908273 M 1077.775419,484.836802 l 0.000000,99.522584 M 1085.775419,584.333936 l 0.000000,-98.506404 M 1093.775419,488.150394 l 0.000000,95.224937 M 1101.775419,578.181629 l 0.000000,-87.134648 M 1109.775419,494.484635 l 0.000000,81.621353 M 1117.775419,574.810217 l 0.000000,-75.763267 M 1125.775419,502.801401 l 0.000000,19.126796 M 1125.775419,573.636491 l 0.000000,-6.803814 M 1133.775419,504.782928 l 0.000000,10.512800 M 1133.775419,572.189270 l 0.000000,-2.041397 M 1141.775419,509.304626 l 0.000000,4.898291"
       id="path11" />
  </g>
  <g
     inkscape:label="fill-6f6f6f"
     inkscape:groupmode="layer"
     id="fill-6f6f6f">
    <path
       style="stroke:#6f6f6f"
       d="M 166.921121,502.181494 l 0.000000,16.964850 M 175.921121,520.118345 l 0.000000,-19.339596 M 184.921121,499.614194 l 0.000000,22.047997 M 193.921121,544.970751 l 0.000000,-46.523968 M 202.921121,497.276413 l 0.000000,53.181439 M 211.921121,550.364804 l 0.000000,-54.258761 M 220.921121,494.871108 l 0.000000,55.398828 M 229.921121,550.174775 l 0.000000,-56.617037 M 238.921121,491.722426 l 0.000000,58.357187 M 247.921121,549.984451 l 0.000000,-59.948900 M 256.921121,489.052850 l 0.000000,60.963134 M 265.921121,550.085573 l 0.000000,-62.113599 M 274.921121,482.682912 l 0.000000,67.807896 M 283.921121,485.963259 l 0.000000,-5.342284 M 283.921121,506.187771 l 0.000000,45.451958 M 292.921121,482.839087 l 0.000000,-3.383798 M 292.921121,515.665219 l 0.000000,36.723765 M 301.921121,552.051959 l 0.000000,-41.529900 M 310.921121,509.743243 l 0.000000,14.964539 M 310.921121,551.123588 l 0.000000,-25.320656 M 319.921121,509.395764 l 0.000000,13.754609 M 319.921121,550.029032 l 0.000000,-24.509097 M 328.921121,509.186469 l 0.000000,12.612427 M 328.921121,548.808716 l 0.000000,-24.107406 M 337.921121,514.982397 l 0.000000,5.420796 M 337.921121,547.458138 l 0.000000,-23.050784 M 346.921121,368.571409 l 0.000000,4.566247 M 346.921121,436.976226 l 0.000000,-12.940741 M 346.921121,508.877516 l 0.000000,4.850857 M 355.921121,452.020474 l 0.000000,-103.539215 M 355.921121,463.338782 l 0.000000,3.098707 M 355.921121,530.138009 l 0.000000,-24.752185 M 364.921121,335.723590 l 0.000000,129.962516 M 364.921121,504.722044 l 0.000000,-12.387245 M 364.921121,505.689479 l 0.000000,23.138145 M 373.921121,465.275871 l 0.000000,-140.105728 M 373.921121,492.672853 l 0.000000,10.011297 M 382.921121,476.385890 l 0.000000,-159.431039 M 382.921121,497.804946 l 0.000000,0.860696 M 391.921121,477.918126 l 0.000000,-167.518105 M 400.921121,305.178496 l 0.000000,173.361808 M 409.921121,478.636062 l 0.000000,-177.492029 M 418.921121,298.133277 l 0.000000,179.816180 M 427.921121,472.723662 l 0.000000,-176.304266 M 436.921121,295.879123 l 0.000000,170.972406 M 436.921121,553.535201 l 0.000000,-4.946669 M 445.921121,296.108338 l 0.000000,165.609380 M 445.921121,556.519798 l 0.000000,-11.137959 M 454.921121,297.144363 l 0.000000,158.894619 M 454.921121,558.740078 l 0.000000,-30.374923 M 463.921121,299.974897 l 0.000000,148.699998 M 463.921121,560.376589 l 0.000000,-38.562664 M 472.921121,304.481619 l 0.000000,135.239884 M 472.921121,504.870432 l 0.000000,-20.854587 M 472.921121,520.005841 l 0.000000,41.621553 M 481.921121,428.776172 l 0.000000,-117.747782 M 481.921121,485.267946 l 0.000000,22.192556 M 481.921121,562.746259 l 0.000000,-45.706006 M 490.921121,321.079867 l 0.000000,93.534463 M 490.921121,440.598420 l 0.000000,-5.164577 M 490.921121,486.723058 l 0.000000,23.155787 M 490.921121,563.710552 l 0.000000,-50.567593 M 499.921121,338.590515 l 0.000000,54.358304 M 499.921121,564.674844 l 0.000000,-76.484755 M 508.921121,489.793037 l 0.000000,75.846100 M 517.921121,534.681733 l 0.000000,-43.285748 M 517.921121,537.058214 l 0.000000,29.545216 M 526.921121,529.940470 l 0.000000,-36.941536 M 526.921121,538.151789 l 0.000000,29.415933 M 535.921121,526.076241 l 0.000000,-33.442864 M 535.921121,539.245365 l 0.000000,29.286650 M 544.921121,523.453624 l 0.000000,-33.580367 M 544.921121,540.338940 l 0.000000,29.157367 M 553.921121,505.709747 l 0.000000,-17.511461 M 553.921121,507.050486 l 0.000000,11.689365 M 553.921121,524.364541 l 0.000000,-3.492217 M 553.921121,541.432516 l 0.000000,29.028084 M 562.921121,508.506282 l 0.000000,-22.922870 M 562.921121,510.353129 l 0.000000,5.412580 M 562.921121,525.703138 l 0.000000,-2.597281 M 562.921121,542.498080 l 0.000000,28.926813 M 571.921121,508.804267 l 0.000000,-24.743756 M 571.921121,543.513581 l 0.000000,28.875604 M 580.921121,507.492532 l 0.000000,-22.461682 M 580.921121,544.529083 l 0.000000,28.824395 M 589.921121,514.431266 l 0.000000,-28.210777 M 589.921121,545.544585 l 0.000000,28.773186 M 598.921121,515.918595 l 0.000000,-28.406622 M 598.921121,546.343001 l 0.000000,28.870763 M 607.921121,517.313746 l 0.000000,-28.499746 M 607.921121,547.078795 l 0.000000,28.672927 M 616.921121,518.708898 l 0.000000,-28.552549 M 616.921121,547.338491 l 0.000000,25.822925 M 625.921121,519.883036 l 0.000000,-28.450991 M 634.921121,492.529112 l 0.000000,28.299635 M 643.921121,519.387223 l 0.000000,-26.497874 M 778.921121,453.755022 l 0.000000,8.200173 M 778.921121,465.901063 l 0.000000,-3.618653 M 787.921121,454.320700 l 0.000000,15.321244 M 787.921121,495.787838 l 0.000000,-5.170327 M 796.921121,456.393873 l 0.000000,11.940090 M 796.921121,472.412984 l 0.000000,-1.433828 M 805.921121,458.497628 l 0.000000,11.101983 M 814.921121,471.332864 l 0.000000,-10.731481 M 823.921121,462.717053 l 0.000000,10.410589 M 832.921121,474.935897 l 0.000000,-10.039628 M 841.921121,467.075485 l 0.000000,5.319926 M 841.921121,476.443998 l 0.000000,-0.827879 M 850.921121,469.237910 l 0.000000,5.089910 M 859.921121,476.308101 l 0.000000,-4.929517 M 868.921121,473.519259 l 0.000000,4.891294 M 877.921121,480.513006 l 0.000000,-4.853072 M 886.921121,477.782560 l 0.000000,4.832898 M 895.921121,484.717910 l 0.000000,-4.824639 M 904.921121,482.003982 l 0.000000,4.816381 M 913.921121,488.889524 l 0.000000,-4.774831 M 913.921121,519.563154 l 0.000000,0.679840 M 922.921121,490.717438 l 0.000000,-4.441588 M 922.921121,521.889838 l 0.000000,2.010122 M 931.921121,510.499911 l 0.000000,-25.359572 M 931.921121,523.725273 l 0.000000,6.749598 M 940.921121,535.585136 l 0.000000,-59.201474 M 949.921121,470.968362 l 0.000000,69.339489 M 958.921121,545.017793 l 0.000000,-74.234993 M 967.921121,475.067872 l 0.000000,51.090941 M 967.921121,550.320385 l 0.000000,-18.297396 M 976.921121,478.987356 l 0.000000,49.124169 M 976.921121,555.878085 l 0.000000,-19.569260 M 985.921121,481.631915 l 0.000000,48.601241 M 985.921121,561.192539 l 0.000000,-20.921863 M 994.921121,483.773493 l 0.000000,49.002079 M 994.921121,565.787172 l 0.000000,-21.784520 M 1003.921121,485.572597 l 0.000000,49.893826 M 1003.921121,569.472838 l 0.000000,-22.203015 M 1012.921121,486.988212 l 0.000000,52.064224 M 1012.921121,572.732446 l 0.000000,-22.488163 M 1021.921121,487.990107 l 0.000000,57.268013 M 1021.921121,575.724539 l 0.000000,-22.646508 M 1030.921121,488.352216 l 0.000000,65.027122 M 1030.921121,578.342035 l 0.000000,-22.683651 M 1039.921121,486.808011 l 0.000000,93.963593 M 1048.921121,582.904508 l 0.000000,-98.009931 M 1057.921121,483.514157 l 0.000000,101.018185 M 1066.921121,585.929453 l 0.000000,-102.958810 M 1075.921121,483.147772 l 0.000000,103.965656 M 1084.921121,587.508076 l 0.000000,-103.508166 M 1093.921121,485.539490 l 0.000000,101.402194 M 1102.921121,579.059610 l 0.000000,-91.214424 M 1102.921121,581.336095 l 0.000000,3.561693 M 1111.921121,576.694851 l 0.000000,-85.596563 M 1120.921121,495.575671 l 0.000000,38.129864 M 1120.921121,575.119426 l 0.000000,-16.518135 M 1129.921121,500.813107 l 0.000000,18.199377 M 1129.921121,573.535019 l 0.000000,-5.393485 M 1138.921121,506.754694 l 0.000000,8.056828 M 1147.921121,516.232386 l 0.000000,-2.634429"
       id="path14" />
  </g>
  <g
     inkscape:label="fill-a0a0a0"
     inkscape:groupmode="layer"
     id="fill-a0a0a0">
    <path
       style="stroke:#a0a0a0"
       d="M 145.082774,514.032243 l 0.000000,1.968295 M 156.082774,529.203339 l 0.000000,-17.375606 M 167.082774,500.050968 l 0.000000,49.257996 M 178.082774,553.088351 l 0.000000,-54.361971 M 189.082774,497.425572 l 0.000000,56.991363 M 200.082774,556.788977 l 0.000000,-60.664214 M 211.082774,494.703761 l 0.000000,63.001908 M 222.082774,557.182314 l 0.000000,-63.970730 M 233.082774,491.392889 l 0.000000,64.050814 M 244.082774,435.097781 l 0.000000,-1.559500 M 244.082774,487.249018 l 0.000000,66.000698 M 255.082774,443.728312 l 0.000000,-10.912384 M 255.082774,484.640105 l 0.000000,67.612039 M 266.082774,446.935596 l 0.000000,-14.297163 M 266.082774,482.555720 l 0.000000,69.976333 M 277.082774,449.710688 l 0.000000,-16.939400 M 277.082774,480.475188 l 0.000000,72.530136 M 288.082774,452.396228 l 0.000000,-19.381076 M 288.082774,478.978768 l 0.000000,9.162529 M 288.082774,553.468976 l 0.000000,-39.835995 M 299.082774,433.581499 l 0.000000,21.773305 M 299.082774,483.484875 l 0.000000,-5.610749 M 299.082774,510.137707 l 0.000000,43.468077 M 310.082774,458.598830 l 0.000000,-24.314624 M 310.082774,477.369152 l 0.000000,0.460275 M 310.082774,497.732032 l 0.000000,-16.503923 M 310.082774,504.068883 l 0.000000,48.804060 M 321.082774,461.968568 l 0.000000,-26.632615 M 321.082774,499.780880 l 0.000000,4.766606 M 321.082774,551.613358 l 0.000000,-45.214154 M 332.082774,436.419453 l 0.000000,29.055484 M 332.082774,501.937648 l 0.000000,-3.852918 M 332.082774,505.393821 l 0.000000,44.786033 M 343.082774,431.629211 l 0.000000,-55.142763 M 343.082774,437.786759 l 0.000000,31.565770 M 343.082774,499.518055 l 0.000000,-3.414157 M 343.082774,504.344550 l 0.000000,44.152135 M 354.082774,468.901582 l 0.000000,-119.654047 M 354.082774,493.942355 l 0.000000,3.481706 M 354.082774,532.664216 l 0.000000,-29.535039 M 365.082774,333.565154 l 0.000000,133.740902 M 365.082774,530.594115 l 0.000000,-40.019729 M 376.082774,321.472443 l 0.000000,149.494074 M 376.082774,528.208080 l 0.000000,-36.901183 M 387.082774,312.299124 l 0.000000,166.846152 M 398.082774,480.534914 l 0.000000,-175.178127 M 409.082774,300.248830 l 0.000000,180.292271 M 420.082774,480.117652 l 0.000000,-183.359919 M 420.082774,547.673958 l 0.000000,4.459691 M 431.082774,478.150261 l 0.000000,-183.429821 M 431.082774,542.694729 l 0.000000,13.486481 M 442.082774,470.548256 l 0.000000,-176.176316 M 442.082774,539.042471 l 0.000000,19.521890 M 453.082774,464.407461 l 0.000000,-168.772033 M 453.082774,498.756833 l 0.000000,3.041604 M 453.082774,560.854429 l 0.000000,-32.837873 M 464.082774,298.783108 l 0.000000,158.241916 M 464.082774,504.918641 l 0.000000,-6.606673 M 464.082774,520.649309 l 0.000000,42.291903 M 475.082774,446.629197 l 0.000000,-142.274484 M 475.082774,483.713062 l 0.000000,24.351619 M 475.082774,564.345436 l 0.000000,-45.981825 M 486.082774,313.449744 l 0.000000,112.154261 M 486.082774,441.996427 l 0.000000,-5.678789 M 486.082774,484.917863 l 0.000000,26.359209 M 486.082774,565.388140 l 0.000000,-51.132411 M 497.082774,328.631098 l 0.000000,76.352443 M 497.082774,440.939691 l 0.000000,-13.285862 M 497.082774,486.760915 l 0.000000,79.670168 M 508.082774,567.530856 l 0.000000,-78.841855 M 519.082774,490.649947 l 0.000000,44.190950 M 519.082774,568.630628 l 0.000000,-33.336040 M 530.082774,492.640309 l 0.000000,37.023261 M 530.082774,569.682050 l 0.000000,-32.437603 M 541.082774,489.868943 l 0.000000,36.163882 M 541.082774,570.711682 l 0.000000,-32.054264 M 552.082774,487.284925 l 0.000000,38.757490 M 552.082774,571.741315 l 0.000000,-31.714562 M 563.082774,484.135163 l 0.000000,33.013424 M 563.082774,526.629715 l 0.000000,-5.048552 M 563.082774,541.385174 l 0.000000,31.385774 M 574.082774,507.601898 l 0.000000,-24.351929 M 574.082774,516.419585 l 0.000000,2.652985 M 574.082774,573.814838 l 0.000000,-31.187883 M 585.082774,484.311537 l 0.000000,33.352305 M 585.082774,574.882886 l 0.000000,-31.014150 M 596.082774,485.858535 l 0.000000,32.702394 M 596.082774,575.950934 l 0.000000,-30.911869 M 607.082774,487.480357 l 0.000000,32.021848 M 607.082774,576.727097 l 0.000000,-30.705499 M 618.082774,489.102179 l 0.000000,31.420912 M 618.082774,573.948404 l 0.000000,-27.481103 M 629.082774,490.724002 l 0.000000,30.869439 M 640.082774,521.502904 l 0.000000,-29.754595 M 706.082774,499.062726 l 0.000000,5.458635 M 717.082774,504.533068 l 0.000000,-6.986343 M 728.082774,496.788576 l 0.000000,3.260651 M 728.082774,504.164227 l 0.000000,-2.291284 M 739.082774,496.091502 l 0.000000,7.316177 M 750.082774,499.396907 l 0.000000,-3.968699 M 761.082774,494.764914 l 0.000000,4.150473 M 772.082774,464.120564 l 0.000000,-1.835429 M 772.082774,494.089515 l 0.000000,4.364278 M 783.082774,469.471687 l 0.000000,-17.174456 M 783.082774,492.147233 l 0.000000,7.460941 M 783.082774,505.076630 l 0.000000,-2.375712 M 794.082774,454.488637 l 0.000000,19.566707 M 805.082774,470.571004 l 0.000000,-13.581043 M 805.082774,472.352251 l 0.000000,5.746220 M 816.082774,472.746961 l 0.000000,-13.181264 M 816.082774,477.024474 l 0.000000,4.949863 M 827.082774,474.993580 l 0.000000,-12.852147 M 827.082774,481.486751 l 0.000000,3.946391 M 838.082774,477.339147 l 0.000000,-12.594899 M 838.082774,486.175579 l 0.000000,2.102085 M 849.082774,479.783942 l 0.000000,-12.435811 M 860.082774,469.952013 l 0.000000,12.285751 M 871.082774,484.691585 l 0.000000,-12.135690 M 882.082774,475.159778 l 0.000000,12.032406 M 893.082774,489.702656 l 0.000000,-11.938996 M 904.082774,480.367543 l 0.000000,11.845586 M 904.082774,523.329302 l 0.000000,-10.816667 M 915.082774,482.971425 l 0.000000,11.962046 M 915.082774,527.696321 l 0.000000,-13.027587 M 926.082774,485.526572 l 0.000000,12.690747 M 926.082774,533.966851 l 0.000000,-17.129299 M 937.082774,478.202231 l 0.000000,62.443950 M 948.082774,547.524184 l 0.000000,-76.526091 M 959.082774,469.666360 l 0.000000,85.138349 M 970.082774,527.462019 l 0.000000,-52.124367 M 970.082774,530.300909 l 0.000000,31.508224 M 981.082774,530.014896 l 0.000000,-50.863167 M 981.082774,535.127936 l 0.000000,32.498745 M 992.082774,532.648728 l 0.000000,-50.702040 M 992.082774,539.539569 l 0.000000,33.140439 M 1003.082774,535.668582 l 0.000000,-51.364645 M 1003.082774,543.650896 l 0.000000,33.051437 M 1014.082774,540.567765 l 0.000000,-54.255087 M 1014.082774,547.407956 l 0.000000,32.207052 M 1025.082774,548.583025 l 0.000000,-61.303921 M 1025.082774,550.704944 l 0.000000,31.750284 M 1036.082774,584.955407 l 0.000000,-98.366009 M 1047.082774,484.181173 l 0.000000,102.828925 M 1058.082774,588.693887 l 0.000000,-106.401513 M 1069.082774,481.610874 l 0.000000,108.339850 M 1080.082774,590.513154 l 0.000000,-108.476458 M 1091.082774,483.577916 l 0.000000,106.959766 M 1102.082774,589.963673 l 0.000000,-103.625962 M 1113.082774,490.378649 l 0.000000,87.113539 M 1124.082774,575.501202 l 0.000000,-79.716894 M 1135.082774,502.696172 l 0.000000,14.511927 M 1135.082774,573.034067 l 0.000000,-16.442673 M 1146.082774,511.054431 l 0.000000,5.873853"
       id="path17" />
  </g>
  <g
     inkscape:label="fill-d5d5d5"
     inkscape:groupmode="layer"
     id="fill-d5d5d5">
    <path
       style="stroke:#d5d5d5"
       d="M 125.565848,522.333550 l 0.000000,27.186488 M 138.565848,556.714450 l 0.000000,-49.793927 M 151.565848,499.481376 l 0.000000,61.081976 M 164.565848,561.814952 l 0.000000,-70.770705 M 177.565848,484.235353 l 0.000000,78.855470 M 190.565848,564.423751 l 0.000000,-80.126266 M 203.565848,431.291368 l 0.000000,28.247249 M 203.565848,565.789654 l 0.000000,-84.004150 M 216.565848,422.589679 l 0.000000,43.694836 M 216.565848,566.913404 l 0.000000,-87.770075 M 229.565848,421.825684 l 0.000000,42.022039 M 229.565848,571.647120 l 0.000000,-95.443645 M 242.565848,422.363114 l 0.000000,40.525131 M 242.565848,574.262353 l 0.000000,-101.371922 M 255.565848,423.148322 l 0.000000,39.208798 M 255.565848,578.733292 l 0.000000,-97.585198 M 268.565848,423.933530 l 0.000000,37.547580 M 268.565848,477.848302 l 0.000000,-1.692885 M 268.565848,479.452226 l 0.000000,100.716528 M 281.565848,466.271274 l 0.000000,-41.389185 M 281.565848,474.916767 l 0.000000,100.657438 M 294.565848,468.818032 l 0.000000,-42.974737 M 294.565848,476.098738 l 0.000000,92.745805 M 307.565848,555.085795 l 0.000000,-128.083328 M 320.565848,428.176809 l 0.000000,125.103600 M 333.565848,551.571216 l 0.000000,-123.419303 M 346.565848,361.875021 l 0.000000,111.297133 M 346.565848,549.322043 l 0.000000,-75.639127 M 359.565848,339.089652 l 0.000000,130.763087 M 359.565848,490.668925 l 0.000000,-16.754476 M 359.565848,490.731364 l 0.000000,42.825842 M 372.565848,467.749801 l 0.000000,-144.393785 M 372.565848,469.059256 l 0.000000,18.088234 M 372.565848,531.042481 l 0.000000,-42.694032 M 385.565848,312.424441 l 0.000000,213.078655 M 398.565848,521.999473 l 0.000000,-217.436220 M 398.565848,539.441174 l 0.000000,15.228343 M 411.565848,521.636403 l 0.000000,-222.400137 M 411.565848,531.065806 l 0.000000,26.960304 M 424.565848,560.264248 l 0.000000,-264.007105 M 437.565848,295.407531 l 0.000000,185.702856 M 437.565848,563.870162 l 0.000000,-79.310042 M 450.565848,296.770291 l 0.000000,171.942517 M 450.565848,571.319347 l 0.000000,-78.134807 M 463.565848,300.649825 l 0.000000,158.864734 M 463.565848,488.722633 l 0.000000,-1.750062 M 463.565848,495.151559 l 0.000000,81.015423 M 476.565848,449.605982 l 0.000000,-141.967582 M 476.565848,480.032646 l 0.000000,1.150379 M 476.565848,578.903237 l 0.000000,-97.174064 M 489.565848,319.302354 l 0.000000,128.739442 M 489.565848,579.819716 l 0.000000,-99.215331 M 502.565848,342.785731 l 0.000000,68.021811 M 502.565848,436.276257 l 0.000000,-4.203777 M 502.565848,483.486644 l 0.000000,96.657545 M 515.565848,581.716715 l 0.000000,-93.002039 M 528.565848,491.276437 l 0.000000,40.129550 M 528.565848,582.242338 l 0.000000,-46.475880 M 541.565848,488.564889 l 0.000000,40.090272 M 541.565848,584.227837 l 0.000000,-46.818378 M 554.565848,485.532701 l 0.000000,42.921444 M 554.565848,585.651239 l 0.000000,-46.637684 M 567.565848,482.247417 l 0.000000,45.869675 M 567.565848,586.445426 l 0.000000,-45.851574 M 580.565848,482.631898 l 0.000000,26.944781 M 580.565848,519.250022 l 0.000000,-6.659015 M 580.565848,520.906484 l 0.000000,4.157018 M 580.565848,587.430560 l 0.000000,-45.256412 M 593.565848,484.278424 l 0.000000,41.838374 M 593.565848,586.520496 l 0.000000,-42.836115 M 606.565848,486.233286 l 0.000000,37.670875 M 606.565848,583.487889 l 0.000000,-38.375789 M 619.565848,488.188148 l 0.000000,38.469780 M 619.565848,574.300488 l 0.000000,-29.467421 M 632.565848,490.135199 l 0.000000,37.368099 M 645.565848,521.447516 l 0.000000,-30.861757 M 697.565848,503.506184 l 0.000000,0.726283 M 710.565848,505.904969 l 0.000000,-8.943972 M 723.565848,495.795559 l 0.000000,10.013560 M 736.565848,505.713269 l 0.000000,-10.756172 M 749.565848,494.152791 l 0.000000,11.470877 M 762.565848,505.534828 l 0.000000,-12.140135 M 775.565848,454.106542 l 0.000000,14.646576 M 775.565848,505.842177 l 0.000000,-13.185846 M 788.565848,452.254116 l 0.000000,22.292746 M 788.565848,506.864187 l 0.000000,-19.490278 M 801.565848,455.101090 l 0.000000,24.753998 M 814.565848,473.251270 l 0.000000,-15.086434 M 814.565848,474.715355 l 0.000000,10.168316 M 827.565848,476.053980 l 0.000000,-14.825399 M 827.565848,479.728592 l 0.000000,9.882030 M 840.565848,478.950216 l 0.000000,-14.654877 M 840.565848,484.620812 l 0.000000,9.520367 M 853.565848,481.846452 l 0.000000,-14.474595 M 853.565848,489.513033 l 0.000000,9.131322 M 866.565848,484.758389 l 0.000000,-14.310014 M 866.565848,494.404034 l 0.000000,9.186839 M 879.565848,487.734172 l 0.000000,-14.209455 M 879.565848,499.293127 l 0.000000,17.301315 M 892.565848,490.709955 l 0.000000,-14.143476 M 892.565848,504.182219 l 0.000000,20.826253 M 905.565848,493.680394 l 0.000000,-14.072154 M 905.565848,508.815458 l 0.000000,21.964703 M 918.565848,496.754882 l 0.000000,-14.076958 M 918.565848,512.591154 l 0.000000,26.164837 M 931.565848,513.820090 l 0.000000,-31.138941 M 931.565848,514.956134 l 0.000000,34.163555 M 944.565848,558.416454 l 0.000000,-86.775928 M 957.565848,468.275705 l 0.000000,97.890677 M 970.565848,571.598509 l 0.000000,-97.036554 M 983.565848,479.045018 l 0.000000,52.317869 M 983.565848,576.716902 l 0.000000,-43.042356 M 996.565848,482.165578 l 0.000000,52.372373 M 996.565848,580.672115 l 0.000000,-41.818063 M 1009.565848,484.878295 l 0.000000,54.239418 M 1009.565848,584.450371 l 0.000000,-40.937145 M 1022.565848,486.329358 l 0.000000,101.233180 M 1035.565848,589.886272 l 0.000000,-104.263672 M 1048.565848,483.017293 l 0.000000,108.835015 M 1061.565848,593.100348 l 0.000000,-111.957240 M 1074.565848,480.928551 l 0.000000,112.635891 M 1087.565848,593.359815 l 0.000000,-111.184059 M 1100.565848,484.875508 l 0.000000,107.957868 M 1113.565848,579.083330 l 0.000000,-89.509071 M 1113.565848,579.401558 l 0.000000,12.025940 M 1126.565848,575.871857 l 0.000000,-79.590135 M 1139.565848,504.887869 l 0.000000,14.706964 M 1139.565848,571.456685 l 0.000000,-38.614881 M 1152.565848,516.797032 l 0.000000,38.315805"
       id="path20" />
  </g>
</svg>
