<?xml version="1.0" encoding="UTF-8" standalone="no"?>
<!-- Created with Inkscape (http://www.inkscape.org/) -->

<svg
   xmlns:dc="http://purl.org/dc/elements/1.1/"
   xmlns:cc="http://creativecommons.org/ns#"
   xmlns:rdf="http://www.w3.org/1999/02/22-rdf-syntax-ns#"
   xmlns:svg="http://www.w3.org/2000/svg"
   xmlns="http://www.w3.org/2000/svg"
   xmlns:sodipodi="http://sodipodi.sourceforge.net/DTD/sodipodi-0.dtd"
   xmlns:inkscape="http://www.inkscape.org/namespaces/inkscape"
   id="svg2"
   version="1.1"
   inkscape:version="0.48.3.1 r9886"
   width="1200"
   height="960"
   sodipodi:docname="hantologie-full-socle_01_hatched_1398261952.svg">
  <defs
     id="defs70" />
  <sodipodi:namedview
     pagecolor="#ffffff"
     bordercolor="#666666"
     borderopacity="1"
     objecttolerance="10"
     gridtolerance="10"
     guidetolerance="10"
     inkscape:pageopacity="0"
     inkscape:pageshadow="2"
     inkscape:window-width="640"
     inkscape:window-height="480"
     id="namedview68" />
  <metadata
     id="metadata8">
    <rdf:RDF>
      <cc:Work
         rdf:about="">
        <dc:format>image/svg+xml </dc:format>
        <dc:type
           rdf:resource="http://purl.org/dc/dcmitype/StillImage" />
        <dc:title />
      </cc:Work>
    </rdf:RDF>
  </metadata>
  <g
     inkscape:label="fill-303030"
     inkscape:groupmode="layer"
     id="fill-303030">
    <path
       style="stroke:#303030"
       d="M 589.906428,572.002695 l -0.271425,2.210578 M 591.124138,578.496263 l 0.782245,-6.370872 M 593.906337,572.248088 l -1.293065,10.531166 M 594.102407,587.062244 l 1.803884,-14.691460 M 597.906246,572.493481 l -2.314704,18.851754 M 597.080676,595.628226 l 2.825524,-23.012048 M 601.906155,572.738875 l -3.336344,27.172342 M 600.058945,604.194207 l 3.847164,-31.332636 M 605.906064,572.984268 l -4.357984,35.492930 M 603.037214,612.760188 l 4.868804,-39.653224 M 609.738253,574.595626 l -5.211904,42.447553 M 606.015483,621.326170 l 5.234627,-42.632614 M 612.761967,582.791484 l -5.257350,42.817676 M 608.993752,629.892151 l 5.280072,-43.002738 M 615.785682,590.987342 l -1.450378,11.812383"
       id="path5" />
  </g>
  <g
     inkscape:label="fill-4f4f4f"
     inkscape:groupmode="layer"
     id="fill-4f4f4f">
    <path
       style="stroke:#4f4f4f"
       d="M 609.800140,573.220863 l -0.085457,1.222095 M 611.400982,578.998925 l 0.395575,-5.656990 M 613.792975,573.463006 l -0.705693,10.091886 M 614.773581,588.110859 l 1.015812,-14.526782 M 617.785810,573.705149 l -1.310866,18.746256 M 618.460511,592.727647 l 1.321717,-18.901427 M 621.778645,573.947292 l -1.332567,19.056599 M 622.431645,593.280133 l 1.343418,-19.211770 M 625.771481,574.189434 l -1.354268,19.366941 M 626.402779,593.832618 l 1.365119,-19.522112 M 629.764316,574.431577 l -1.375970,19.677283 M 630.373913,594.385103 l 1.386820,-19.832455 M 633.757151,574.673720 l -1.397671,19.987626 M 634.345047,594.937589 l 1.408522,-20.142797 M 637.749987,574.915863 l -1.419372,20.297968 M 638.316182,595.490074 l 1.430223,-20.453140 M 641.742822,575.158006 l -1.441073,20.608311 M 642.287316,596.042559 l 1.451924,-20.763482 M 645.735657,575.400149 l -1.462775,20.918653 M 646.258450,596.595045 l 1.473625,-21.073825 M 649.728493,575.642292 l -1.484476,21.228996 M 650.229584,597.147530 l 1.495327,-21.384167 M 653.721328,575.884435 l -1.506177,21.539338 M 654.200718,597.700015 l 1.517028,-21.694509 M 657.714163,576.126577 l -1.527879,21.849681 M 658.171852,598.252501 l 1.538729,-22.004852 M 661.706999,576.368720 l -1.549580,22.160023 M 662.142986,598.804986 l 1.560430,-22.315194 M 665.699834,576.610863 l -1.571281,22.470366 M 666.114120,599.357471 l 1.582132,-22.625537 M 669.692669,576.853006 l -1.592982,22.780708 M 670.085254,599.909957 l 1.603833,-22.935879 M 673.685505,577.095149 l -1.614684,23.091050 M 674.056388,600.462442 l 1.625534,-23.246222 M 677.678340,577.337292 l -1.636385,23.401393 M 678.027522,601.014927 l 1.647235,-23.556564 M 681.671175,577.579435 l -1.658086,23.711735 M 681.998656,601.567413 l 1.668937,-23.866907 M 685.664010,577.821578 l -1.679787,24.022078 M 685.969790,602.119898 l 1.690638,-24.177249 M 689.656846,578.063721 l -1.701489,24.332420 M 689.940924,602.672383 l 1.712339,-24.487591 M 693.649681,578.305863 l -1.723190,24.642763 M 693.912058,603.224869 l 1.734040,-24.797934 M 697.642516,578.548006 l -1.744891,24.953105 M 697.883192,603.777354 l 1.755742,-25.108276 M 701.635352,578.790149 l -1.766592,25.263448 M 701.854326,604.329840 l 1.777443,-25.418619 M 705.628187,579.032292 l -1.788294,25.573790 M 705.825460,604.882325 l 1.799144,-25.728961 M 709.457113,581.618444 l -1.646086,23.540124 M 709.796594,605.434810 l 1.428666,-20.430874 M 712.993407,588.389429 l -1.211246,17.321624 M 713.767729,605.987296 l 0.993826,-14.212373 M 716.529702,595.160415 l -0.776406,11.103123 M 717.738863,606.539781 l 0.558986,-7.993873 M 720.065996,601.931400 l -0.341566,4.884623 M 721.709997,607.092266 l 0.124146,-1.775373"
       id="path8" />
  </g>
  <g
     inkscape:label="fill-666666"
     inkscape:groupmode="layer"
     id="fill-666666">
    <path
       style="stroke:#666666"
       d="M 621.991252,257.647995 l -0.037197,1.065196 M 624.729918,265.183993 l 0.282334,-8.084991 M 628.033252,256.550010 l -0.527471,15.104785 M 630.281644,278.125597 l 0.772607,-22.124580 M 634.075252,255.452024 l -0.985293,28.215112 M 636.117031,282.944226 l 0.979220,-28.041195 M 640.117251,254.354039 l -0.973147,27.867277 M 642.171178,281.498405 l 0.967073,-27.693359 M 645.963315,258.866933 l -0.765064,21.908562 M 648.225324,280.052585 l 0.497921,-14.258590 M 651.483176,272.721056 l -0.230778,6.608619"
       id="path11" />
  </g>
  <g
     inkscape:label="fill-757575"
     inkscape:groupmode="layer"
     id="fill-757575">
    <path
       style="stroke:#757575"
       d="M 616.511092,760.325644 l -0.875111,50.135064 M 618.411562,823.343831 l 1.114723,-63.862441 M 622.541479,758.637136 l -1.115251,63.892682 M 624.440894,821.715804 l 1.115779,-63.922922 M 628.571866,756.948628 l -1.116307,63.953163 M 630.470225,820.087777 l 1.116834,-63.983404 M 634.602253,755.260119 l -1.117362,64.013645 M 636.499556,818.459751 l 1.106098,-63.368337 M 640.552957,758.136645 l -1.038735,59.509092 M 642.528887,816.831724 l 0.971372,-55.649847 M 646.447561,764.227109 l -0.904008,51.790602 M 648.558219,815.203697 l 0.836645,-47.931356 M 652.342166,770.317573 l -0.769282,44.072111 M 654.587550,813.575670 l 0.701918,-40.212866 M 658.236770,776.408036 l -0.634555,36.353621 M 660.616881,811.947644 l 0.567191,-32.494376 M 664.131375,782.498500 l -0.499828,28.635131 M 666.646213,810.319617 l 0.432465,-24.775885 M 670.025979,788.588963 l -0.365101,20.916640 M 672.675544,808.691590 l 0.297738,-17.057395 M 675.920584,794.679427 l -0.230375,13.198150 M 678.704875,807.063564 l 0.163011,-9.338905 M 681.815189,800.769891 l -0.095648,5.479660 M 684.734206,805.435537 l 0.028284,-1.620415"
       id="path14" />
  </g>
  <g
     inkscape:label="fill-7e7e7e"
     inkscape:groupmode="layer"
     id="fill-7e7e7e">
    <path
       style="stroke:#7e7e7e"
       d="M 722.259433,835.962236 l -0.063917,3.661781 M 725.211343,838.743447 l 0.152189,-8.718917 M 728.467633,824.086826 l -0.240462,13.776053 M 731.242998,836.982310 l 0.328735,-18.833189 M 734.675833,812.211416 l -0.417007,23.890326 M 737.274653,835.221172 l 0.505280,-28.947462 M 740.884033,800.336006 l -0.593552,34.004598 M 743.306307,833.460035 l 0.681825,-39.061734 M 747.092233,788.460596 l -0.770098,44.118870 M 749.337962,831.698897 l 0.858370,-49.176007 M 753.270877,778.278433 l -0.917087,52.539896 M 755.369617,829.937760 l 0.915765,-52.464123 M 759.299886,776.668840 l -0.914442,52.388351 M 761.401272,828.176623 l 0.913119,-52.312579 M 765.328896,775.059247 l -0.911797,52.236807 M 767.432926,826.415485 l 0.910474,-52.161035 M 771.357905,773.449654 l -0.872582,49.990207 M 773.589960,817.471391 l 0.782450,-44.826534 M 777.386915,771.840060 l -0.692318,39.662862 M 779.799234,805.534453 l 0.602186,-34.499189 M 783.415924,770.230467 l -0.512053,29.335516 M 786.008508,793.597514 l 0.421921,-24.171844 M 789.444934,768.620874 l -0.331789,19.008171 M 792.217782,781.660576 l 0.241657,-13.844498 M 795.473944,767.011281 l -0.151524,8.680826 M 798.427056,769.723637 l 0.061392,-3.517153"
       id="path17" />
    <path
       style="stroke:#7e7e7e"
       d="M 769.574495,703.725114 l -0.153408,8.788740 M 772.455918,710.544574 l 0.371668,-21.292845 M 776.080677,674.778343 l -0.589928,33.796950 M 778.525580,706.606012 l 0.611166,-35.013683 M 782.170097,669.707826 l -0.609686,34.928905 M 784.595241,702.667449 l 0.608206,-34.844126 M 788.236799,665.938821 l -0.606727,34.759347 M 790.664903,698.728887 l 0.605247,-34.674569 M 794.303501,662.169816 l -0.603767,34.589790 M 796.734565,694.790325 l 0.602287,-34.505012 M 800.370203,658.400811 l -0.600807,34.420233 M 802.804227,690.851763 l 0.599328,-34.335454 M 806.436906,654.631807 l -0.597848,34.250676 M 808.947191,682.713740 l 0.523066,-29.966436 M 812.503608,650.862802 l -0.306629,17.566777 M 815.446766,654.145417 l 0.090192,-5.167117"
       id="path19" />
  </g>
  <g
     inkscape:label="fill-868686"
     inkscape:groupmode="layer"
     id="fill-868686">
    <path
       style="stroke:#868686"
       d="M 480.746715,565.377686 l 0.000000,0.169833 M 483.746715,566.640667 l 0.000000,-1.080928 M 486.746715,565.741793 l 0.000000,1.992023 M 489.746715,568.826964 l 0.000000,-2.903118 M 492.746715,566.105900 l 0.000000,3.814213 M 495.746715,571.013261 l 0.000000,-4.725308 M 498.746715,566.470007 l 0.000000,5.636403 M 501.746715,573.199559 l 0.000000,-6.547498 M 504.746715,566.834114 l 0.000000,7.458593 M 507.746715,575.385856 l 0.000000,-8.369689 M 510.746715,567.198221 l 0.000000,9.280784 M 513.746715,577.572153 l 0.000000,-10.191879 M 516.746715,567.562328 l 0.000000,11.102974 M 519.746715,579.758450 l 0.000000,-12.014069 M 522.746715,567.926435 l 0.000000,12.925164 M 525.746715,581.944747 l 0.000000,-13.836259 M 528.746715,568.290542 l 0.000000,14.747354 M 531.746715,584.131044 l 0.000000,-15.658449 M 534.746715,568.654649 l 0.000000,16.569544 M 537.746715,586.317341 l 0.000000,-17.480639 M 540.746715,569.018756 l 0.000000,18.391734 M 543.746715,588.503639 l 0.000000,-19.302829 M 546.746715,569.382863 l 0.000000,20.213925 M 549.746715,590.689936 l 0.000000,-21.125020 M 552.746715,569.746970 l 0.000000,22.036115 M 555.746715,592.876233 l 0.000000,-22.947210 M 558.746715,570.111077 l 0.000000,23.858305 M 561.746715,595.062530 l 0.000000,-24.769400 M 564.746715,570.475184 l 0.000000,25.680495 M 567.746715,597.248827 l 0.000000,-26.591590 M 570.746715,570.839291 l 0.000000,27.502685 M 573.746715,599.435124 l 0.000000,-28.413780 M 576.746715,571.203398 l 0.000000,29.324875 M 579.746715,601.621421 l 0.000000,-30.235970 M 582.746715,571.567505 l 0.000000,31.147066 M 585.746715,603.807719 l 0.000000,-32.058161 M 588.746715,571.931612 l 0.000000,32.969256 M 591.746715,605.994016 l 0.000000,-25.700123 M 594.746715,588.929607 l 0.000000,18.157557 M 597.746715,608.180313 l 0.000000,-10.614991 M 600.746715,606.201036 l 0.000000,3.072426 M 690.746715,642.072689 l 0.000000,-0.006070 M 693.746715,642.508479 l 0.000000,0.657207 M 696.746715,644.258684 l 0.000000,-1.308344 M 699.746715,643.392200 l 0.000000,1.959482 M 702.746715,646.444680 l 0.000000,-2.610619 M 705.746715,644.275921 l 0.000000,3.261756 M 708.746715,648.630676 l 0.000000,-3.912894 M 711.746715,645.159642 l 0.000000,4.564031 M 714.746715,650.816671 l 0.000000,-5.215169 M 717.746715,631.898349 l 0.000000,20.011320 M 720.746715,653.002667 l 0.000000,-35.601925 M 723.746715,614.888733 l 0.000000,39.206932 M 726.746715,655.188662 l 0.000000,-39.226535 M 729.746715,617.035522 l 0.000000,39.246138 M 732.746715,657.374658 l 0.000000,-39.265742 M 735.746715,619.182311 l 0.000000,39.285345 M 738.746715,659.560654 l 0.000000,-39.304948 M 741.746715,621.329100 l 0.000000,39.324552 M 744.746715,661.746649 l 0.000000,-39.344155 M 747.746715,623.475889 l 0.000000,39.363758 M 750.746715,663.932645 l 0.000000,-39.383361 M 753.746715,625.622678 l 0.000000,39.402965 M 756.746715,666.118641 l 0.000000,-39.422568 M 759.746715,627.769467 l 0.000000,39.442171 M 762.746715,668.304636 l 0.000000,-39.461775 M 765.746715,629.916256 l 0.000000,39.481378 M 768.746715,670.490632 l 0.000000,-39.500981 M 771.746715,632.063045 l 0.000000,39.520585 M 774.746715,672.676627 l 0.000000,-39.540188 M 777.746715,634.209834 l 0.000000,38.238938 M 780.746715,670.585663 l 0.000000,-35.302435 M 783.746715,636.356623 l 0.000000,32.365931 M 786.746715,666.859445 l 0.000000,-29.429428 M 789.746715,638.503412 l 0.000000,26.492924 M 792.746715,663.133227 l 0.000000,-23.556421 M 795.746715,640.650201 l 0.000000,20.619917 M 798.746715,659.407009 l 0.000000,-17.683414 M 801.746715,642.796990 l 0.000000,14.746910 M 804.746715,655.680791 l 0.000000,-11.810406 M 807.746715,644.943779 l 0.000000,8.873903 M 810.746715,651.954573 l 0.000000,-5.937399 M 813.746715,647.090568 l 0.000000,3.000896 M 816.746715,648.228355 l 0.000000,-0.064392"
       id="path22" />
  </g>
  <g
     inkscape:label="fill-929292"
     inkscape:groupmode="layer"
     id="fill-929292">
    <path
       style="stroke:#929292"
       d="M 510.748732,806.448780 l 0.043520,2.493283 M 513.778921,808.152111 l -0.270165,-15.477729 M 516.268780,778.899985 l 0.496809,28.462174 M 519.752257,806.572206 l -0.723453,-41.446619 M 521.788828,751.351190 l 0.950098,54.431064 M 525.725594,804.992302 l -1.176742,-67.415510 M 527.308876,723.802395 l 1.403386,80.399955 M 531.698931,803.412398 l -1.630031,-93.384400 M 532.828924,696.253600 l 1.856675,106.368846 M 537.672267,801.832494 l -2.083319,-119.353291 M 538.348972,668.704805 l 2.309964,132.337736 M 543.645604,800.252589 l -2.536608,-145.322181 M 543.879053,641.730838 l 2.753219,157.731800 M 549.618940,798.672685 l -2.747187,-157.386218 M 549.864454,640.842096 l 2.741155,157.040637 M 555.592277,797.092781 l -2.735122,-156.695055 M 555.849855,639.953355 l 2.729090,156.349474 M 561.565614,795.512877 l -2.723058,-156.003892 M 561.835256,639.064613 l 2.717026,155.658311 M 567.538950,793.932972 l -2.706863,-155.076062 M 567.852082,639.976209 l 2.673537,153.166811 M 573.512287,792.353068 l -2.640211,-151.257561 M 573.892071,642.214806 l 2.606884,149.348310 M 579.140983,771.028711 l -2.228918,-127.694606 M 579.932060,644.453403 l 1.849367,105.950148 M 581.805287,751.770546 l -0.000130,-0.007428 M 582.952054,645.572702 l 1.817787,104.140936 M 584.819928,752.583117 l -0.000272,-0.015591 M 585.972049,646.692001 l 1.786207,102.331724 M 587.834568,753.395689 l -0.000415,-0.023755 M 588.992043,647.811299 l 1.754627,100.522512 M 590.849209,754.208260 l -0.000557,-0.031919 M 592.012037,648.930598 l 1.723047,98.713300 M 593.863849,755.020832 l -0.000700,-0.040083 M 595.032032,650.049896 l 1.691467,96.904088 M 596.878490,755.833404 l -0.000842,-0.048246 M 598.052026,651.169195 l 1.659887,95.094876 M 599.893130,756.645975 l -0.000985,-0.056410 M 601.072021,652.288494 l 1.024434,58.689784 M 602.700328,745.574157 l -0.472593,-27.074851 M 604.092015,653.407792 l 0.896099,51.337454 M 605.621734,741.045313 l -0.338373,-19.385377 M 607.112009,654.527091 l 0.767763,43.985123 M 608.389485,727.713625 l -0.050499,-2.893058 M 610.132004,655.646390 l 0.639428,36.632793 M 613.663091,686.046151 l -0.511092,-29.280463 M 616.171993,657.884987 l 0.382757,21.928132 M 619.446409,673.580088 l -0.254422,-14.575802 M 622.211982,660.123584 l 0.021364,1.223971"
       id="path25" />
  </g>
  <g
     inkscape:label="fill-999999"
     inkscape:groupmode="layer"
     id="fill-999999">
    <path
       style="stroke:#999999"
       d="M 496.530257,615.725499 l 0.062774,1.797608 M 499.649697,619.093469 l -0.130265,-3.730295 M 502.535403,615.768142 l 0.170961,4.895690 M 505.763031,622.234195 l -0.186439,-5.338909 M 508.617782,618.022429 l 0.201916,5.782128 M 511.876365,625.374920 l -0.217394,-6.225347 M 514.700160,620.276717 l 0.232871,6.668566 M 517.989699,628.515645 l -0.248349,-7.111785 M 520.782539,622.531004 l 0.263827,7.555004 M 524.103033,631.656370 l -0.279304,-7.998223 M 526.864918,624.785291 l 0.294782,8.441442 M 530.216366,634.797096 l -0.310259,-8.884661 M 532.947296,627.039578 l 0.325737,9.327880 M 536.329700,637.937821 l -0.341214,-9.771099 M 539.029675,629.293866 l 0.356692,10.214318 M 542.443034,641.078546 l -0.372169,-10.657537 M 545.112054,631.548153 l 0.347393,9.948020 M 548.445790,641.052746 l -0.292547,-8.377450 M 551.194433,633.802440 l 0.237701,6.806879 M 554.418478,640.165893 l -0.182856,-5.236309 M 557.276811,636.056727 l 0.128010,3.665739 M 560.391166,639.279039 l -0.073165,-2.095168 M 563.359190,638.311014 l 0.018319,0.524598"
       id="path28" />
    <path
       style="stroke:#999999"
       d="M 227.324864,557.231817 l 0.347260,9.944230 M 230.951799,575.132533 l -0.702716,-20.123166 M 233.173302,552.786918 l 0.706187,20.222563 M 236.807179,570.886427 l -0.709658,-20.321960 M 239.021740,548.342018 l 0.713129,20.421356 M 242.662559,566.640321 l -0.716600,-20.520753 M 244.870178,543.897118 l 0.720072,20.620150 M 248.517939,562.394216 l -0.723543,-20.719547 M 250.718616,539.452219 l 0.727014,20.818944 M 254.373319,558.148110 l -0.730485,-20.918341 M 256.567054,535.007319 l 0.733956,21.017738 M 260.228699,553.902004 l -0.737427,-21.117135 M 262.415492,530.562419 l 0.740898,21.216531 M 266.084079,549.655898 l -0.744369,-21.315928 M 268.263929,526.117520 l 0.747840,21.415325 M 271.939459,545.409792 l -0.751311,-21.514722 M 274.112367,521.672620 l 0.754782,21.614119 M 277.794839,541.163686 l -0.758253,-21.713516 M 279.960805,517.227721 l 0.761724,21.812913 M 283.650219,536.917580 l -0.765195,-21.912310 M 285.809243,512.782821 l 0.768666,22.011707 M 289.505599,532.671475 l -0.772137,-22.111103 M 291.657681,508.337921 l 0.775608,22.210500 M 295.360979,528.425369 l -0.779079,-22.309897 M 297.506119,503.893022 l 0.782550,22.409294 M 301.216359,524.179263 l -0.786021,-22.508691 M 303.354557,499.448122 l 0.789492,22.608088 M 307.071739,519.933157 l -0.792963,-22.707485 M 309.811129,512.417886 l 0.188300,5.392218 M 312.927119,515.687051 l -0.099040,-2.836129 M 315.832242,512.917773 l 0.022567,0.646225 M 403.685398,449.869241 l -0.158128,-4.528203 M 406.239990,437.062060 l 0.373101,10.684218 M 409.540784,445.623314 l -0.527008,-15.091536 M 411.829970,425.215892 l 0.638507,18.284458 M 415.396170,441.377386 l -0.722642,-20.693749 M 417.532887,416.603826 l 0.790976,22.650596 M 421.251557,437.131459 l -0.842490,-24.125743 M 423.295702,409.706984 l 0.883548,25.301511 M 427.106943,432.885531 l -0.916056,-26.232406 M 429.097911,403.938272 l 0.936725,26.824295 M 432.962329,428.639603 l -0.940182,-26.923297 M 434.946383,399.494340 l 0.943639,27.022299 M 438.817715,424.393676 l -0.947097,-27.121302 M 440.794854,395.050408 l 0.950554,27.220304 M 444.673101,420.147748 l -0.954011,-27.319307 M 446.643326,390.606475 l 0.957468,27.418309 M 450.528488,415.901820 l -0.960926,-27.517311 M 452.491798,386.162543 l 0.964383,27.616314 M 456.383874,411.655893 l -0.967840,-27.715316 M 458.340270,381.718611 l 0.971297,27.814318 M 462.239260,407.409965 l -0.974755,-27.913321 M 464.188741,377.274678 l 0.978212,28.012323 M 468.094646,403.164037 l -0.981669,-28.111325 M 470.037213,372.830746 l 0.985126,28.210328 M 473.950033,398.918110 l -0.988584,-28.309330 M 475.885685,368.386813 l 0.992041,28.408333 M 479.805419,394.672182 l -0.995498,-28.507335 M 481.734157,363.942881 l 0.998955,28.606337 M 485.660805,390.426255 l -1.002413,-28.705340 M 487.582628,359.498949 l 1.005870,28.804342 M 491.516191,386.180327 l -1.009327,-28.903344 M 493.431100,355.055016 l 1.012784,29.002347 M 497.371577,381.934399 l -1.016242,-29.101349 M 499.279572,350.611084 l 1.019699,29.200351 M 503.226964,377.688472 l -1.023156,-29.299354 M 505.128043,346.167152 l 1.026613,29.398356 M 509.082350,373.442544 l -1.030070,-29.497359 M 510.976515,341.723219 l 1.033528,29.596361 M 514.937736,369.196616 l -1.036985,-29.695363 M 516.824987,337.279287 l 1.040442,29.794366 M 520.793122,364.950689 l -1.043899,-29.893368 M 522.673459,332.835355 l 1.047357,29.992370 M 526.648508,360.704761 l -1.050814,-30.091373 M 528.521930,328.391422 l 1.054271,30.190375 M 532.503895,356.458833 l -1.057728,-30.289377 M 534.370402,323.947490 l 1.061186,30.388380 M 538.359281,352.212906 l -1.064643,-30.487382 M 540.218874,319.503557 l 1.068100,30.586385 M 544.214667,347.966978 l -1.071557,-30.685387 M 546.067346,315.059625 l 1.075015,30.784389 M 550.070053,343.721051 l -1.078472,-30.883392 M 551.915817,310.615693 l 1.081929,30.982394 M 555.925439,339.475123 l -1.085386,-31.081396 M 557.764289,306.171760 l 1.088844,31.180399 M 561.780826,335.229195 l -1.092301,-31.279401 M 563.612761,301.727828 l 1.095758,31.378403 M 567.636212,330.983268 l -1.099215,-31.477406 M 569.461232,297.283896 l 1.102672,31.576408 M 573.491598,326.737340 l -1.106130,-31.675411 M 575.309704,292.839963 l 1.109587,31.774413 M 579.346984,322.491412 l -1.113044,-31.873415 M 581.158176,288.396031 l 1.116501,31.972418 M 585.202370,318.245485 l -1.119959,-32.071420 M 587.006648,283.952099 l 1.123416,32.170422 M 591.057757,313.999557 l -1.126873,-32.269425 M 592.855119,279.508166 l 1.130330,32.368427 M 596.913143,309.753629 l -1.133788,-32.467429 M 598.703591,275.064234 l 1.137245,32.566432 M 602.768529,305.507702 l -1.140702,-32.665434 M 604.552063,270.620302 l 1.144159,32.764436 M 608.623915,301.261774 l -1.147617,-32.863439 M 610.400535,266.176369 l 1.151074,32.962441 M 614.479301,297.015847 l -1.154531,-33.061444 M 616.249006,261.732437 l 1.157988,33.160446 M 620.334688,292.769919 l -1.161446,-33.259448 M 622.164200,259.199180 l 1.098181,31.447775 M 626.190074,288.523991 l -0.757056,-21.679259 M 628.701835,274.490286 l 0.415932,11.910742 M 632.045460,284.278064 l -0.074808,-2.142225"
       id="path30" />
  </g>
  <g
     inkscape:label="fill-9c9c9c"
     inkscape:groupmode="layer"
     id="fill-9c9c9c">
    <path
       style="stroke:#9c9c9c"
       d="M 579.264334,751.082756 l 2.206512,63.186238 M 584.502904,815.134639 l -2.208281,-63.236889 M 585.324912,752.712745 l 2.210050,63.287539 M 590.567019,816.865928 l -2.211818,-63.338189 M 591.385489,754.342733 l 2.213587,63.388839 M 596.631134,818.597217 l -2.215356,-63.439490 M 597.446067,755.972722 l 2.217125,63.490140 M 602.695249,820.328507 l -2.218893,-63.540790 M 603.506645,757.602710 l 2.220662,63.591441 M 608.759365,822.059796 l -2.222431,-63.642091 M 609.567223,759.232699 l 2.224200,63.692741 M 614.823480,823.791085 l -2.225968,-63.743391"
       id="path33" />
  </g>
  <g
     inkscape:label="fill-a3a3a3"
     inkscape:groupmode="layer"
     id="fill-a3a3a3">
    <path
       style="stroke:#a3a3a3"
       d="M 636.989279,665.599455 l 0.029675,0.849787 M 640.126300,669.470851 l -0.095826,-2.744098 M 643.071668,667.854051 l 0.161977,4.638408 M 646.340991,675.514068 l -0.228128,-6.532719 M 649.154058,670.108647 l 0.294278,8.427029 M 652.555682,681.557285 l -0.360429,-10.321340 M 655.236447,672.363242 l 0.426580,12.215651 M 658.770373,687.600501 l -0.492731,-14.109961 M 661.318837,674.617838 l 0.558881,16.004272 M 664.985064,693.643718 l -0.625032,-17.898582 M 667.401226,676.872434 l 0.691183,19.792893 M 671.199755,699.686935 l -0.757334,-21.687204 M 673.483616,679.127029 l 0.823485,23.581514 M 677.414446,705.730152 l -0.889635,-25.475825 M 679.566005,681.381625 l 0.955786,27.370135 M 683.629137,711.773369 l -1.021937,-29.264446 M 685.648395,683.636221 l 1.088088,31.158757 M 689.843828,717.816586 l -1.154239,-33.053067 M 691.730784,685.890816 l 1.220389,34.947378 M 696.058519,723.859803 l -1.286540,-36.841688 M 697.813174,688.145412 l 1.352691,38.735999 M 702.273210,729.903019 l -1.418842,-40.630310 M 703.895563,690.400008 l 1.484992,42.524620 M 708.487901,735.946236 l -1.551143,-44.418931 M 709.977953,692.654603 l 1.617294,46.313241 M 714.702592,741.989453 l -1.683445,-48.207552 M 716.060342,694.909199 l 1.749596,50.101863 M 720.917283,748.032670 l -1.815746,-51.996173 M 722.142732,697.163795 l 1.881897,53.890484 M 727.131974,754.075887 l -1.948048,-55.784794 M 728.225121,699.418390 l 2.014199,57.679105 M 733.346665,760.119104 l -2.080350,-59.573416 M 734.312096,701.804290 l 2.141915,61.336422 M 739.561356,766.162321 l -2.142831,-61.362649 M 740.524955,707.795053 l 2.143747,61.388876 M 745.776047,772.205537 l -2.144663,-61.415103 M 746.737814,713.785816 l 2.145579,61.441330 M 751.990739,778.248754 l -2.146494,-61.467557 M 752.950674,719.776579 l 2.026636,58.035256 M 757.951425,777.018224 l -1.894321,-54.246264 M 759.163533,725.767341 l 1.762007,50.457272 M 763.899655,775.431002 l -1.629692,-46.668279 M 765.376392,731.758104 l 1.497378,42.879287 M 769.847885,773.843780 l -1.365063,-39.090294 M 771.589252,737.748867 l 1.232749,35.301302 M 775.796115,772.256558 l -1.100434,-31.512310 M 777.802111,743.739630 l 0.968120,27.723317 M 781.744346,770.669336 l -0.835805,-23.934325 M 784.014970,749.730392 l 0.703491,20.145332 M 787.692576,769.082114 l -0.571176,-16.356340 M 790.227830,755.721155 l 0.438861,12.567348 M 793.640806,767.494892 l -0.306547,-8.778355 M 796.440689,761.711918 l 0.174232,4.989363 M 799.589036,765.907670 l -0.041918,-1.200370"
       id="path36" />
  </g>
  <g
     inkscape:label="fill-a4a4a4"
     inkscape:groupmode="layer"
     id="fill-a4a4a4">
    <path
       style="stroke:#a4a4a4"
       d="M 886.603650,553.887252 l 1.203982,34.477535 M 890.754484,586.790465 l -1.194075,-34.193824 M 892.517169,551.306029 l 1.184167,33.910113 M 896.648189,583.641821 l -1.174260,-33.626403 M 898.430688,548.724807 l 1.164352,33.342692 M 902.541893,580.493177 l -1.154445,-33.058982 M 904.344207,546.143584 l 1.144538,32.775271 M 908.435597,577.344533 l -1.134630,-32.491560 M 910.257726,543.562361 l 1.124723,32.207850 M 914.329301,574.195889 l -1.114816,-31.924139 M 916.171245,540.981138 l 1.104908,31.640429 M 920.223005,571.047245 l -1.095001,-31.356718 M 922.084764,538.399916 l 1.085093,31.073007 M 926.116710,567.898601 l -1.075186,-30.789297 M 927.998283,535.818693 l 1.065279,30.505586 M 931.549045,551.538080 l -0.594002,-17.009998"
       id="path39" />
  </g>
  <g
     inkscape:label="fill-a5a5a5"
     inkscape:groupmode="layer"
     id="fill-a5a5a5">
    <path
       style="stroke:#a5a5a5"
       d="M 609.390047,628.084584 l 0.068780,1.969589 M 612.476214,630.499725 l -0.538989,-15.434613 M 614.484405,602.045640 l 1.009198,28.899637 M 618.510990,631.390830 l -1.356930,-38.857384 M 620.170555,592.953439 l 1.357822,38.882942 M 624.545765,632.281934 l -1.358715,-38.908501 M 626.203545,593.793428 l 1.359607,38.934059 M 630.580540,633.173039 l -1.360500,-38.959617 M 632.236536,594.633416 l 1.361392,38.985175 M 636.615316,634.064143 l -1.362285,-39.010733 M 638.269526,595.473405 l 1.363177,39.036291 M 642.650091,634.955248 l -1.364070,-39.061849 M 644.302516,596.313393 l 1.364962,39.087407 M 648.684866,635.846352 l -1.365855,-39.112965 M 650.335507,597.153382 l 1.366747,39.138523 M 654.719642,636.737457 l -1.367640,-39.164081 M 656.368497,597.993370 l 1.368532,39.189639 M 660.754417,637.628561 l -1.369425,-39.215197 M 662.401487,598.833359 l 1.370317,39.240755 M 666.789192,638.519666 l -1.371210,-39.266313 M 668.434478,599.673347 l 1.372102,39.291871 M 672.823968,639.410770 l -1.372995,-39.317429 M 674.467468,600.513336 l 1.373887,39.342987 M 678.858743,640.301875 l -1.374780,-39.368545 M 680.500458,601.353324 l 1.375672,39.394103 M 684.893518,641.192979 l -1.376565,-39.419661 M 686.533449,602.193312 l 1.377457,39.445219 M 690.928294,642.084084 l -1.378350,-39.470777 M 692.566439,603.033301 l 1.379242,39.496335 M 696.963069,642.975188 l -1.380135,-39.521893 M 698.599429,603.873289 l 1.381027,39.547451 M 702.997844,643.866293 l -1.381920,-39.573009 M 704.632419,604.713278 l 1.382812,39.598567 M 709.032620,644.757397 l -1.383705,-39.624125 M 710.665410,605.553266 l 1.384597,39.649683 M 715.043611,644.967416 l -1.361706,-38.994156 M 716.698400,606.393255 l 0.913796,26.167704 M 720.180782,620.154501 l -0.465887,-13.341252 M 722.731390,607.233243 l 0.017977,0.514800"
       id="path42" />
  </g>
  <g
     inkscape:label="fill-a6a6a6"
     inkscape:groupmode="layer"
     id="fill-a6a6a6">
    <path
       style="stroke:#a6a6a6"
       d="M 465.286863,771.724637 l 0.519995,9.922090 M 468.911521,783.565256 l -1.289567,-24.606414 M 469.957043,746.193047 l 2.059140,39.290738 M 475.120847,787.402314 l -2.828713,-53.975062 M 474.627224,720.661458 l 3.598286,68.659386 M 481.330172,791.239373 l -4.367859,-83.343710 M 479.297404,695.129869 l 5.137432,98.028034 M 487.539498,795.076432 l -5.907004,-112.712358 M 483.967584,669.598280 l 6.676577,127.396682 M 493.748824,798.913491 l -7.446150,-142.081006 M 488.637764,644.066691 l 8.215723,156.765330 M 499.958150,802.750550 l -8.985296,-171.449654 M 493.307944,618.535101 l 9.754868,186.133978 M 506.167476,806.587608 l -9.917454,-189.236290 M 499.337450,618.940990 l 9.934688,189.565148 M 511.874149,800.833497 l -9.449271,-180.302836 M 505.512306,622.120331 l 8.743021,166.826783 M 516.636506,777.060732 l -8.036771,-153.350730 M 511.687163,625.299673 l 7.330521,139.874677 M 521.398862,753.287968 l -6.624271,-126.398624 M 517.862019,628.479015 l 5.918021,112.922571 M 526.161218,729.515204 l -5.211771,-99.446518 M 524.036875,631.658357 l 4.505521,85.970465 M 530.923575,705.742440 l -3.799271,-72.494413 M 530.211732,634.837698 l 3.093021,59.018360 M 535.685931,681.969676 l -2.386771,-45.542307 M 536.386588,638.017040 l 1.680521,32.066254 M 540.448287,658.196912 l -0.974271,-18.590201 M 542.561444,641.196382 l 0.268021,5.114148"
       id="path45" />
  </g>
  <g
     inkscape:label="fill-a9a9a9"
     inkscape:groupmode="layer"
     id="fill-a9a9a9">
    <path
       style="stroke:#a9a9a9"
       d="M 580.356262,750.732481 l 0.034245,0.653440 M 583.437268,752.199619 l -0.112812,-2.152586 M 586.292650,749.361586 l 0.191379,3.651732 M 589.530791,753.827017 l -0.269946,-5.150878 M 592.229039,747.990692 l 0.348513,6.650023 M 595.624313,755.454414 l -0.427080,-8.149169 M 598.165428,746.619797 l 0.505647,9.648315 M 601.717835,757.081811 l -0.584214,-11.147461 M 604.101816,745.248903 l 0.662781,12.646606 M 607.811358,758.709208 l -0.741347,-14.145752 M 610.038205,743.878008 l 0.819914,15.644898 M 613.904880,760.336605 l -0.898481,-17.144044 M 615.974593,742.507114 l 0.928083,17.708887 M 619.863348,759.387012 l -0.920561,-17.565346 M 621.910982,741.136219 l 0.913038,17.421805 M 625.784691,757.729036 l -0.824109,-15.724932 M 628.137003,745.291848 l 0.608360,11.608200 M 631.706035,756.071060 l -0.392611,-7.491468 M 634.489844,751.867335 l 0.176862,3.374737"
       id="path48" />
  </g>
  <g
     inkscape:label="fill-acacac"
     inkscape:groupmode="layer"
     id="fill-acacac">
    <path
       style="stroke:#acacac"
       d="M 307.843028,505.449389 l 0.350363,6.685328 M 312.235505,512.833563 l -1.322588,-25.236479 M 314.380372,477.330766 l 1.867569,35.635335 M 320.233676,512.589172 l -2.340141,-44.652546 M 321.341411,457.296720 l 2.856379,54.502957 M 328.143018,510.649832 l -3.510503,-66.984381 M 327.510943,422.159830 l 4.560928,87.027692 M 335.983038,507.387733 l -5.814208,-110.941689 M 334.175934,396.476855 l 5.712729,109.005372 M 343.783473,503.370321 l -5.599229,-106.839658 M 342.198795,396.703577 l 5.475072,104.470599 M 351.564261,498.978030 l -5.350915,-102.101539 M 350.228718,397.065055 l 5.231093,99.815209 M 356.148273,510.016885 l -0.272020,-5.190448 M 354.248055,397.329289 l 5.123197,97.756417 M 360.222843,511.335029 l -0.602117,-11.489071 M 358.267393,397.593523 l 5.066327,96.671282 M 364.303997,512.778797 l -0.929574,-17.737329 M 362.286730,397.857757 l 6.095995,116.318509 M 372.455394,515.458137 l -6.149327,-117.336146 M 370.325404,398.386224 l 6.200314,118.309040 M 380.583386,517.690876 l -6.238644,-119.040418 M 378.364079,398.914692 l 6.276974,119.771795 M 388.692238,519.558407 l -6.305314,-120.312556 M 386.412179,399.623016 l 6.322157,120.633950 M 396.776436,520.955525 l -6.339001,-120.955344 M 394.462691,400.377345 l 6.355845,121.276739 M 401.238620,453.240474 l -2.750673,-52.485965 M 401.279401,454.018637 l 3.569402,68.108247 M 404.635649,441.630367 l -2.122447,-40.498693 M 405.173945,451.901658 l 3.703220,70.661648 M 408.158538,432.421805 l -1.620080,-30.912966 M 409.068488,449.784678 l 3.837038,73.215049 M 411.787028,425.228230 l -1.222089,-23.318851 M 412.963031,447.667698 l 3.970856,75.768449 M 415.489357,419.443579 l -0.890269,-16.987353 M 416.857574,445.550718 l 4.101412,78.259610 M 419.236658,414.517058 l -0.603422,-11.513987 M 420.752117,443.433738 l 4.223813,80.595162 M 423.009096,410.070173 l -0.335056,-6.393244 M 424.646660,441.316758 l 4.346215,82.930714 M 426.803694,406.046117 l -0.077081,-1.470801 M 428.541204,439.199778 l 4.468616,85.266266 M 437.026763,524.684617 l -4.591017,-87.601819 M 436.325164,434.868017 l 4.718543,90.035173 M 445.056141,525.035687 l -4.870833,-92.941035 M 444.045451,429.321287 l 5.018329,95.755430 M 453.071420,525.117748 l -5.165826,-98.569825 M 451.765738,423.774558 l 5.313322,101.384220 M 461.086700,525.199809 l -5.460818,-104.198616 M 460.002369,428.080250 l 5.091971,97.160590 M 469.101979,525.281870 l -4.505203,-85.964400 M 469.419825,454.917434 l 3.391288,64.709639"
       id="path51" />
  </g>
  <g
     inkscape:label="fill-aeaeae"
     inkscape:groupmode="layer"
     id="fill-aeaeae">
    <path
       style="stroke:#aeaeae"
       d="M 600.439697,714.549808 l 0.116341,2.219912 M 604.790971,721.147762 l -0.752250,-14.353784 M 607.637745,699.038149 l 1.388159,26.487655 M 613.260837,729.903846 l -2.024068,-38.621527 M 614.835792,683.526490 l 2.659978,50.755398 M 621.730702,738.659931 l -3.295887,-62.889270 M 622.033839,668.014831 l 3.931796,75.023141 M 630.200568,747.416015 l -4.507542,-86.009021 M 629.778239,662.928215 l 4.657261,88.865842 M 638.670434,756.172099 l -4.806981,-91.722664 M 638.026768,667.460941 l 4.878598,93.089201 M 647.140299,764.928183 l -4.892829,-93.360736 M 646.468173,675.673955 l 4.907059,93.632271 M 655.610165,773.684267 l -4.921290,-93.903806 M 654.909578,683.886969 l 4.935520,94.175341 M 664.080031,782.440352 l -4.949751,-94.446876 M 663.350982,692.099983 l 4.963982,94.718411 M 672.549897,791.196436 l -4.978212,-94.989946 M 671.792387,700.312997 l 4.992443,95.261481 M 681.019762,799.952520 l -5.006673,-95.533016 M 680.233791,708.526011 l 5.020904,95.804551 M 689.489628,808.708604 l -5.035134,-96.076086 M 688.675196,716.739025 l 5.049365,96.347621 M 697.959494,817.464688 l -5.063595,-96.619156 M 697.116600,724.952039 l 5.077826,96.890691 M 706.429359,826.220773 l -5.092057,-97.162226 M 705.558005,733.165053 l 5.106287,97.433762 M 714.899225,834.976857 l -5.120518,-97.705297 M 713.999410,741.378067 l 5.134748,97.976832 M 722.896359,834.712678 l -4.676247,-89.228104 M 722.440814,749.591081 l 4.096255,78.161207 M 730.177780,820.791899 l -3.516264,-67.094310 M 730.882219,757.804095 l 2.936272,56.027413 M 737.459202,806.871119 l -2.356281,-44.960516 M 739.323623,766.017109 l 1.776289,33.893619 M 744.740624,792.950339 l -1.196298,-22.826722 M 747.765028,774.230123 l 0.616306,11.759825 M 752.022045,779.029559 l -0.036315,-0.692928"
       id="path54" />
  </g>
  <g
     inkscape:label="fill-b3b3b3"
     inkscape:groupmode="layer"
     id="fill-b3b3b3">
    <path
       style="stroke:#b3b3b3"
       d="M 233.410907,573.348522 l 0.099729,1.426191 M 237.458984,573.896373 l -0.231892,-3.316212 M 241.043277,567.811801 l 0.364055,5.206232 M 245.353224,572.104566 l -0.493762,-7.061126 M 248.675647,562.275080 l 0.495623,7.087740 M 252.989316,566.621073 l -0.497484,-7.114354 M 256.308016,556.738359 l 0.499345,7.140968 M 260.625408,561.137581 l -0.501206,-7.167583 M 263.940386,551.201638 l 0.503067,7.194197 M 268.261500,555.654088 l -0.504928,-7.220811 M 271.572756,545.664917 l 0.506789,7.247426 M 275.897592,550.170596 l -0.508650,-7.274040 M 279.205126,540.128195 l 0.510511,7.300654 M 283.533684,544.687103 l -0.512373,-7.327268 M 286.837496,534.591474 l 0.514234,7.353883 M 291.169776,539.203611 l -0.516095,-7.380497 M 294.469866,529.054753 l 0.517956,7.407111 M 298.805868,533.720118 l -0.519817,-7.433726 M 302.102236,523.518032 l 0.521678,7.460340 M 306.441960,528.236626 l -0.523539,-7.486954 M 309.734606,517.981311 l 0.525400,7.513568 M 314.078052,522.753134 l -0.527261,-7.540183 M 317.396041,512.860238 l 0.500057,7.151150 M 321.714144,517.269641 l -0.340246,-4.865745 M 325.321622,511.516637 l 0.210568,3.011258 M 329.350236,511.786149 l -0.105823,-1.513339 M 333.146841,508.737781 l 0.021441,0.306621 M 401.488379,453.905042 l -0.086753,-1.240625 M 405.141450,448.804045 l 0.209864,3.001199 M 409.214250,449.705445 l -0.256599,-3.669540 M 412.773851,443.267765 l 0.303334,4.337882 M 416.940120,445.505848 l -0.350069,-5.006223 M 420.406252,437.731485 l 0.396804,5.674564 M 424.665991,441.306250 l -0.443539,-6.342905 M 428.038652,432.195205 l 0.490274,7.011247 M 432.391862,437.106653 l -0.537009,-7.679588 M 435.671053,426.658925 l 0.577866,8.263871 M 440.066874,432.179742 l -0.579620,-8.288957 M 443.303454,421.122645 l 0.581375,8.314043 M 447.702783,426.693635 l -0.583129,-8.339130 M 450.935855,415.586365 l 0.584883,8.364216 M 455.338692,421.207528 l -0.586637,-8.389303 M 458.568256,410.050085 l 0.594117,8.496267 M 462.980413,415.804529 l -0.595957,-8.522584 M 466.200656,404.513806 l 0.597797,8.548901 M 470.616494,410.320884 l -0.599638,-8.575219 M 473.833057,398.977526 l 0.601478,8.601536 M 478.252576,404.837239 l -0.603318,-8.627853 M 481.465458,393.441246 l 0.605159,8.654171 M 485.888657,399.353594 l -0.606999,-8.680488 M 489.097859,387.904966 l 0.608839,8.706806 M 493.524739,393.869949 l -0.610679,-8.733123 M 496.730259,382.368686 l 0.612520,8.759440 M 501.160820,388.386304 l -0.614360,-8.785758 M 504.362660,376.832406 l 0.616200,8.812075 M 508.796901,382.902659 l -0.618041,-8.838393 M 511.995061,371.296126 l 0.619881,8.864710 M 516.432983,377.419014 l -0.621721,-8.891027 M 519.627462,365.759846 l 0.623561,8.917345 M 524.069064,371.935369 l -0.625402,-8.943662 M 527.259863,360.223566 l 0.627242,8.969980 M 531.705145,366.451724 l -0.629082,-8.996297 M 534.892263,354.687287 l 0.630923,9.022614 M 539.341227,360.968078 l -0.632763,-9.048932 M 542.524664,349.151007 l 0.634603,9.075249 M 546.977308,355.484433 l -0.636444,-9.101567 M 550.157065,343.614727 l 0.638284,9.127884 M 554.613389,350.000788 l -0.640124,-9.154201 M 557.789466,338.078447 l 0.641964,9.180519 M 562.249471,344.517143 l -0.643805,-9.206836 M 565.421867,332.542167 l 0.645645,9.233154 M 569.885552,339.033498 l -0.647485,-9.259471 M 573.054267,327.005887 l 0.649326,9.285788 M 577.521634,333.549853 l -0.651166,-9.312106 M 580.686668,321.469607 l 0.653006,9.338423 M 585.157715,328.066208 l -0.654846,-9.364741 M 588.319069,315.933327 l 0.656687,9.391058 M 592.793796,322.582563 l -0.658527,-9.417375 M 595.951470,310.397047 l 0.660367,9.443693 M 600.429878,317.098918 l -0.662208,-9.470010 M 603.583870,304.860768 l 0.664048,9.496328 M 608.065959,311.615273 l -0.665888,-9.522645 M 611.216271,299.324488 l 0.667728,9.548962 M 615.702040,306.131627 l -0.669569,-9.575280 M 618.848672,293.788208 l 0.671409,9.601597 M 623.338122,300.647982 l -0.673249,-9.627914 M 626.481073,288.251928 l 0.675090,9.654232 M 630.974203,295.164337 l -0.676930,-9.680549 M 634.161329,283.400020 l 0.630914,9.022495 M 638.610284,289.680692 l -0.504682,-7.217292 M 642.049875,281.526781 l 0.378450,5.412088 M 646.246366,284.197047 l -0.252218,-3.606885 M 649.938421,279.653542 l 0.125986,1.801682"
       id="path57" />
  </g>
  <g
     inkscape:label="fill-bbbbbb"
     inkscape:groupmode="layer"
     id="fill-bbbbbb">
    <path
       style="stroke:#bbbbbb"
       d="M 414.919939,581.876446 l 0.101965,1.458174 M 419.138370,584.860467 l -1.159491,-16.581499 M 421.534322,561.781823 l 1.720514,24.604490 M 427.371300,587.912159 l -1.810092,-25.885528 M 429.588094,562.271439 l 1.899671,27.166566 M 435.604231,590.963851 l -1.989250,-28.447604 M 437.641867,562.761056 l 2.078829,29.728642 M 443.837161,594.015543 l -2.168408,-31.009680 M 445.695639,563.250672 l 2.257987,32.290718 M 452.070091,597.067236 l -2.347566,-33.571756 M 453.749412,563.740288 l 2.437145,34.852794 M 460.303022,600.118928 l -2.526724,-36.133832 M 461.803184,564.229904 l 2.616303,37.414870 M 468.535952,603.170620 l -2.705881,-38.695908 M 469.856957,564.719521 l 2.795460,39.976946 M 476.768882,606.222313 l -2.885039,-41.257984 M 477.910729,565.209137 l 2.974618,42.539022 M 485.001812,609.274005 l -3.024680,-43.254939 M 486.091810,567.519341 l 3.026468,43.280510 M 493.234743,612.325697 l -3.028256,-43.306082 M 494.321164,570.519890 l 3.030044,43.331654 M 501.467673,615.377389 l -3.031833,-43.357225 M 502.550518,573.520439 l 3.033621,43.382797 M 509.700603,618.429082 l -3.035409,-43.408368 M 510.779872,576.520988 l 3.037197,43.433940 M 517.933534,621.480774 l -3.038985,-43.459512 M 519.009226,579.521537 l 3.040773,43.485083 M 526.166464,624.532466 l -3.042561,-43.510655 M 527.238580,582.522086 l 3.044350,43.536226 M 534.399394,627.584158 l -3.046138,-43.561798 M 535.467934,585.522635 l 3.047926,43.587370 M 542.632325,630.635851 l -3.049714,-43.612941 M 543.697288,588.523184 l 3.051502,43.638513 M 550.865255,633.687543 l -3.053290,-43.664084 M 551.926642,591.523733 l 3.055078,43.689656 M 559.098185,636.739235 l -3.056867,-43.715228 M 560.155996,594.524282 l 3.058655,43.740799 M 567.331115,639.790928 l -3.060443,-43.766371 M 568.385350,597.524831 l 3.062231,43.791942 M 575.564046,642.842620 l -3.064019,-43.817514 M 576.614704,600.525380 l 3.065807,43.843086 M 583.796976,645.894312 l -3.067595,-43.868657 M 584.844058,603.525930 l 3.069383,43.894229 M 592.029906,648.946004 l -3.071172,-43.919800 M 593.073412,606.526479 l 3.072960,43.945372 M 600.262837,651.997697 l -3.074748,-43.970944 M 601.302766,609.527028 l 3.076536,43.996515 M 608.495767,655.049389 l -2.327260,-33.281365 M 610.771893,630.257156 l 1.840339,26.318080 M 616.728697,658.101081 l -1.905181,-27.245355 M 618.875140,631.454297 l 1.970022,28.172631 M 624.961628,661.152774 l -2.034864,-29.099906 M 626.978388,632.651438 l 2.099705,30.027182 M 633.194558,664.204466 l -2.164546,-30.954457 M 635.081635,633.848580 l 2.229388,31.881733 M 641.427488,667.256158 l -2.294229,-32.809008 M 643.184883,635.045721 l 2.359071,33.736284 M 649.660418,670.307850 l -2.423912,-34.663559 M 651.288130,636.242862 l 2.488754,35.590834 M 657.893349,673.359543 l -2.553595,-36.518110 M 659.391377,637.440003 l 2.618436,37.445385 M 666.126279,676.411235 l -2.683278,-38.372661 M 667.494625,638.637145 l 2.748119,39.299936 M 674.359209,679.462927 l -2.812961,-40.227212 M 675.597872,639.834286 l 2.877802,41.154487 M 682.592140,682.514620 l -2.942644,-42.081763 M 683.701120,641.031427 l 3.007485,43.009038 M 690.825070,685.566312 l -3.072326,-43.936314 M 691.825128,642.525465 l 3.116407,44.566693 M 699.058000,688.618004 l -3.118269,-44.593328 M 700.054334,645.523888 l 3.120132,44.619962 M 707.290930,691.669696 l -3.121994,-44.646597 M 708.283539,648.522311 l 3.123857,44.673231 M 715.523861,694.721389 l -3.125719,-44.699866 M 716.512744,651.520734 l 3.127582,44.726500 M 723.756791,697.773081 l -3.129444,-44.753135 M 724.741950,654.519158 l 3.131307,44.779770 M 731.989721,700.824773 l -3.133169,-44.806404 M 732.971155,657.517581 l 3.135031,44.833039 M 740.222652,703.876466 l -3.136894,-44.859673 M 741.200360,660.516004 l 3.138756,44.886308 M 748.455582,706.928158 l -3.140619,-44.912942 M 749.429566,663.514427 l 3.142481,44.939577 M 756.688512,709.979850 l -3.144344,-44.966211 M 757.658771,666.512850 l 3.146206,44.992846 M 764.921443,713.031542 l -3.148069,-45.019480 M 765.887977,669.511274 l 2.698640,38.592353 M 771.645549,694.506045 l -1.642970,-23.495560 M 774.117182,672.509697 l 0.587299,8.398767"
       id="path60" />
  </g>
  <g
     inkscape:label="fill-cdcdcd"
     inkscape:groupmode="layer"
     id="fill-cdcdcd">
    <path
       style="stroke:#cdcdcd"
       d="M 300.291552,523.540644 l 0.018726,0.178162 M 304.354809,523.932858 l -0.146760,-1.396330 M 308.124545,521.532413 l 0.274795,2.614498 M 312.443871,524.360963 l -0.402829,-3.832666 M 315.957537,519.524181 l 0.530864,5.050835 M 320.532932,524.789068 l -0.658899,-6.269003 M 323.790530,517.515949 l 0.786933,7.487171 M 328.621994,525.217172 l -0.914968,-8.705339 M 331.623522,515.507717 l 1.043003,9.923508 M 336.711056,525.645277 l -1.171037,-11.141676 M 339.456515,513.499485 l 1.299072,12.359844 M 344.800118,526.073382 l -1.427107,-13.578012 M 347.289508,511.491254 l 1.555141,14.796181 M 352.889180,526.501486 l -1.683176,-16.014349 M 355.142753,509.675716 l 1.790958,17.039822 M 360.978242,526.929591 l -1.663119,-15.823516 M 363.487493,512.536433 l 1.535280,14.607210 M 369.067304,527.357696 l -1.407441,-13.390904 M 371.818205,515.263683 l 1.293630,12.308065 M 377.156365,527.785800 l -1.181187,-11.238239 M 380.106846,517.590659 l 1.094050,10.409193 M 385.245427,528.213905 l -1.012668,-9.634897 M 388.355096,519.533334 l 0.934863,8.894623 M 393.334489,528.642010 l -0.884814,-8.418443 M 396.544255,520.913799 l 0.834765,7.942263 M 401.423551,529.070115 l -0.784717,-7.466083 M 404.716667,522.134935 l 0.751415,7.149232 M 409.512613,529.498219 l -0.728712,-6.933232 M 412.851134,522.995039 l 0.706010,6.717232 M 417.601675,529.926324 l -0.683307,-6.501233 M 420.983055,523.830918 l 0.663151,6.309458 M 425.690736,530.354429 l -0.663067,-6.308657 M 429.072285,524.260626 l 0.662982,6.307855 M 433.779798,530.782533 l -0.662898,-6.307053 M 437.161516,524.690334 l 0.662814,6.306251 M 441.868860,531.210638 l -0.662729,-6.305450 M 445.243060,525.046920 l 0.670331,6.377771 M 449.957922,531.638743 l -0.688643,-6.552000 M 453.295498,525.126566 l 0.706955,6.726229 M 458.046984,532.066847 l -0.725267,-6.900458 M 461.347935,525.206213 l 0.743580,7.074687 M 466.136046,532.494952 l -0.761892,-7.248916 M 469.400373,525.285860 l 0.780204,7.423145 M 474.225108,532.923057 l -1.416076,-13.473062 M 476.086352,512.364527 l 2.183286,20.772582 M 482.314169,533.351161 l -2.185500,-20.793644 M 484.170987,512.750507 l 2.187714,20.814706 M 490.403231,533.779266 l -2.189928,-20.835768 M 492.255621,513.136488 l 2.192141,20.856831 M 498.492293,534.207371 l -2.194355,-20.877893 M 500.340255,513.522468 l 2.196569,20.898955 M 506.581355,534.635476 l -2.198782,-20.920017 M 508.424890,513.908449 l 2.200996,20.941079 M 514.670417,535.063580 l -2.203210,-20.962141 M 516.509524,514.294429 l 2.205424,20.983204 M 522.759479,535.491685 l -2.207637,-21.004266 M 524.594159,514.680409 l 2.209851,21.025328 M 530.848541,535.919790 l -2.212065,-21.046390 M 532.678793,515.066390 l 2.214278,21.067452 M 538.937602,536.347894 l -2.216492,-21.088514 M 540.763427,515.452370 l 2.218706,21.109577 M 547.026664,536.775999 l -2.220920,-21.130639 M 548.848062,515.838350 l 2.223133,21.151701 M 555.115726,537.204104 l -2.225347,-21.172763 M 556.932696,516.224331 l 2.227561,21.193825 M 563.204788,537.632208 l -2.229775,-21.214887 M 565.017331,516.610311 l 2.231988,21.235950 M 571.293850,538.060313 l -2.234202,-21.257012 M 573.101965,516.996291 l 2.236416,21.278074 M 579.382912,538.488418 l -2.238629,-21.299136 M 581.186599,517.382272 l 2.240843,21.320198 M 587.471974,538.916522 l -2.243057,-21.341260 M 589.271234,517.768252 l 2.245271,21.362323 M 595.561035,539.344627 l -2.247484,-21.383385 M 597.355868,518.154233 l 2.249698,21.404447 M 603.650097,539.772732 l -2.251912,-21.425509 M 605.440503,518.540213 l 2.254125,21.446571 M 611.739159,540.200836 l -2.256339,-21.467633 M 613.525137,518.926193 l 2.258553,21.488696 M 619.828221,540.628941 l -2.260767,-21.509758 M 621.609772,519.312174 l 2.262980,21.530820 M 627.917283,541.057046 l -2.265194,-21.551882 M 629.694406,519.698154 l 2.267408,21.572944 M 636.006345,541.485151 l -2.269622,-21.594006 M 637.779040,520.084134 l 2.271835,21.615069 M 644.095406,541.913255 l -2.274049,-21.636131 M 645.863675,520.470115 l 2.276263,21.657193 M 652.184468,542.341360 l -2.278476,-21.678255 M 653.948309,520.856095 l 2.280690,21.699317 M 660.273530,542.769465 l -2.282904,-21.720379 M 662.032944,521.242075 l 2.285118,21.741441 M 668.362592,543.197569 l -2.287331,-21.762504 M 670.117578,521.628056 l 2.289545,21.783566 M 676.451654,543.625674 l -2.291759,-21.804628 M 678.202212,522.014036 l 2.293972,21.825690 M 684.540716,544.053779 l -2.296186,-21.846752 M 686.286847,522.400017 l 2.298400,21.867814 M 692.629778,544.481883 l -2.300614,-21.888877 M 694.371481,522.785997 l 2.302827,21.909939 M 700.718839,544.909988 l -2.305041,-21.931001 M 702.456116,523.171977 l 2.307255,21.952063 M 708.807901,545.338093 l -2.309469,-21.973125 M 710.540750,523.557958 l 2.311682,21.994187 M 716.896963,545.766197 l -2.313896,-22.015250 M 718.625384,523.943938 l 2.316110,22.036312 M 724.986025,546.194302 l -2.318323,-22.057374 M 726.710019,524.329918 l 2.320537,22.078436 M 733.075087,546.622407 l -2.322751,-22.099498 M 734.794653,524.715899 l 2.324965,22.120560 M 741.164149,547.050511 l -2.327178,-22.141623 M 742.879288,525.101879 l 2.329392,22.162685 M 749.253211,547.478616 l -2.331606,-22.183747 M 750.963922,525.487859 l 2.333819,22.204809 M 757.342272,547.906721 l -2.336033,-22.225871 M 759.048556,525.873840 l 2.338247,22.246933 M 765.431334,548.334826 l -2.340461,-22.267996 M 767.133191,526.259820 l 2.342674,22.289058 M 773.520396,548.762930 l -2.344888,-22.310120 M 775.217825,526.645801 l 2.347102,22.331182 M 781.609458,549.191035 l -2.349316,-22.352244 M 783.302460,527.031781 l 2.351529,22.373306 M 789.698520,549.619140 l -2.353743,-22.394369 M 791.387094,527.417761 l 2.355957,22.415431 M 797.787582,550.047244 l -2.358170,-22.436493 M 799.471728,527.803742 l 2.360384,22.457555 M 805.876644,550.475349 l -2.362598,-22.478617 M 807.556363,528.189722 l 2.364812,22.499679 M 813.965705,550.903454 l -2.367025,-22.520742 M 815.640997,528.575702 l 2.369239,22.541804 M 822.054767,551.331558 l -2.371453,-22.562866 M 823.725632,528.961683 l 2.373666,22.583928 M 830.143829,551.759663 l -2.375880,-22.604990 M 831.810266,529.347663 l 2.378094,22.626052 M 838.232891,552.187768 l -2.380308,-22.647114 M 839.894901,529.733643 l 2.382521,22.668177 M 846.321953,552.615872 l -2.384735,-22.689239 M 847.979535,530.119624 l 2.386949,22.710301 M 854.411015,553.043977 l -2.389163,-22.731363 M 856.064169,530.505604 l 2.391376,22.752425 M 862.500077,553.472082 l -2.393590,-22.773487 M 864.148804,530.891585 l 2.395804,22.794550 M 870.589138,553.900187 l -2.398017,-22.815612 M 872.233438,531.277565 l 2.400231,22.836674 M 878.678200,554.328291 l -2.402445,-22.857736 M 880.318073,531.663545 l 2.404659,22.878798 M 886.674132,553.870326 l -2.313743,-22.013790 M 888.402707,532.049526 l 2.116900,20.140962 M 894.365082,550.510649 l -1.920058,-18.268133 M 896.487341,532.435506 l 1.723216,16.395304 M 902.056032,547.150972 l -1.526374,-14.522476 M 904.571976,532.821486 l 1.329531,12.649647 M 909.746982,543.791295 l -1.132689,-10.776818 M 912.656610,533.207467 l 0.935847,8.903990 M 917.437932,540.431618 l -0.739005,-7.031161 M 920.741245,533.593447 l 0.542163,5.158332 M 925.128882,537.071941 l -0.345320,-3.285504 M 928.825879,533.979427 l 0.148478,1.412675"
       id="path63" />
  </g>
  <g
     inkscape:label="fill-d4d4d4"
     inkscape:groupmode="layer"
     id="fill-d4d4d4">
    <path
       style="stroke:#d4d4d4"
       d="M 298.975838,552.247052 l 0.222189,2.113987 M 303.245889,554.606779 l -3.248434,-30.906788 M 304.042021,523.914389 l 3.251729,30.938131 M 311.341612,555.098261 l -3.255023,-30.969475 M 312.131156,524.343184 l 3.258317,31.000818 M 319.437335,555.589743 l -3.261612,-31.032161 M 320.220290,524.771980 l 3.264906,31.063504 M 327.533058,556.081225 l -3.268200,-31.094848 M 328.309425,525.200775 l 3.271494,31.126191 M 335.628781,556.572707 l -3.274789,-31.157534 M 336.398559,525.629570 l 3.278083,31.188877 M 343.724504,557.064188 l -3.281377,-31.220220 M 344.487694,526.058366 l 3.284672,31.251564 M 351.820227,557.555670 l -3.287966,-31.282907 M 352.576828,526.487161 l 3.291260,31.314250 M 359.915950,558.047152 l -3.294555,-31.345593 M 360.665963,526.915956 l 3.297849,31.376936 M 368.011673,558.538634 l -3.301143,-31.408280 M 368.755097,527.344752 l 3.304438,31.439623 M 376.107396,559.030116 l -3.307732,-31.470966 M 376.844231,527.773547 l 3.311026,31.502309 M 384.203119,559.521597 l -3.314320,-31.533653 M 384.933366,528.202343 l 3.317615,31.564996 M 392.298842,560.013079 l -3.320909,-31.596339 M 393.022500,528.631138 l 3.324203,31.627682 M 400.394565,560.504561 l -3.327498,-31.659025 M 401.111635,529.059933 l 3.330792,31.690369 M 408.490288,560.996043 l -3.334086,-31.721712 M 409.200769,529.488729 l 3.337381,31.753055 M 416.586011,561.487525 l -3.340675,-31.784398 M 417.289904,529.917524 l 3.343969,31.815741 M 424.681734,561.979006 l -3.347263,-31.847085 M 425.379038,530.346319 l 3.350558,31.878428 M 432.777457,562.470488 l -3.353852,-31.909771 M 433.468173,530.775115 l 3.357146,31.941114 M 440.873180,562.961970 l -3.360441,-31.972458 M 441.557307,531.203910 l 3.363735,32.003801 M 448.968904,563.453452 l -3.367029,-32.035144 M 449.646441,531.632705 l 3.370324,32.066487 M 457.064627,563.944934 l -3.373618,-32.097830 M 457.735576,532.061501 l 3.376912,32.129174 M 465.160350,564.436415 l -3.380207,-32.160517 M 465.824710,532.490296 l 3.383501,32.191860 M 473.256073,564.927897 l -3.386795,-32.223203 M 473.913845,532.919092 l 3.390089,32.254546 M 481.351796,565.419379 l -3.393384,-32.285890 M 482.002979,533.347887 l 3.396678,32.317233 M 489.447519,565.910861 l -3.399972,-32.348576 M 490.092114,533.776682 l 3.403267,32.379919 M 497.543242,566.402343 l -3.406561,-32.411263 M 498.181248,534.205478 l 3.409855,32.442606 M 505.638965,566.893824 l -3.413150,-32.473949 M 506.270383,534.634273 l 3.416444,32.505292 M 513.734688,567.385306 l -3.419738,-32.536635 M 514.359517,535.063068 l 3.423032,32.567979 M 521.830411,567.876788 l -3.426327,-32.599322 M 522.448651,535.491864 l 3.429621,32.630665 M 529.926134,568.368270 l -3.432915,-32.662008 M 530.537786,535.920659 l 3.436210,32.693351 M 538.021857,568.859752 l -3.439504,-32.724695 M 538.626920,536.349455 l 3.442798,32.756038 M 546.117580,569.351233 l -3.446093,-32.787381 M 546.716055,536.778250 l 3.449387,32.818724 M 554.213303,569.842715 l -3.452681,-32.850068 M 554.805189,537.207045 l 3.455976,32.881411 M 562.309026,570.334197 l -3.459270,-32.912754 M 562.894324,537.635841 l 3.462564,32.944097 M 570.404749,570.825679 l -3.465858,-32.975440 M 570.983458,538.064636 l 3.469153,33.006784 M 578.500472,571.317161 l -3.472447,-33.038127 M 579.072593,538.493431 l 3.475741,33.069470 M 586.596195,571.808642 l -3.479036,-33.100813 M 587.161727,538.922227 l 3.482330,33.132156 M 594.691918,572.300124 l -3.485624,-33.163500 M 595.250861,539.351022 l 3.488919,33.194843 M 602.787642,572.791606 l -3.492213,-33.226186 M 603.339996,539.779818 l 3.495507,33.257529 M 610.883365,573.283088 l -3.498801,-33.288873 M 611.429130,540.208613 l 3.502096,33.320216 M 618.979088,573.774570 l -3.505390,-33.351559 M 619.518265,540.637408 l 3.508684,33.382902 M 627.074811,574.266051 l -3.511979,-33.414245 M 627.607399,541.066204 l 3.515273,33.445589 M 635.170534,574.757533 l -3.518567,-33.476932 M 635.696534,541.494999 l 3.521862,33.508275 M 643.266257,575.249015 l -3.525156,-33.539618 M 643.785668,541.923794 l 3.528450,33.570961 M 651.361980,575.740497 l -3.531745,-33.602305 M 651.874803,542.352590 l 3.535039,33.633648 M 659.457703,576.231979 l -3.538333,-33.664991 M 659.963937,542.781385 l 3.541627,33.696334 M 667.553426,576.723460 l -3.544922,-33.727678 M 668.053071,543.210181 l 3.548216,33.759021 M 675.649149,577.214942 l -3.551510,-33.790364 M 676.142206,543.638976 l 3.554805,33.821707 M 683.744872,577.706424 l -3.558099,-33.853050 M 684.231340,544.067771 l 3.561393,33.884394 M 691.840595,578.197906 l -3.564688,-33.915737 M 692.320475,544.496567 l 3.567982,33.947080 M 699.936318,578.689388 l -3.571276,-33.978423 M 700.409609,544.925362 l 3.574570,34.009766 M 708.032041,579.180869 l -3.577865,-34.041110 M 708.498744,545.354157 l 3.581159,34.072453 M 716.127764,579.672351 l -3.584453,-34.103796 M 716.587878,545.782953 l 3.587748,34.135139 M 724.223487,580.163833 l -3.591042,-34.166483 M 724.677013,546.211748 l 3.594336,34.197826 M 732.319210,580.655315 l -3.597631,-34.229169 M 732.766147,546.640543 l 3.600925,34.260512 M 740.414933,581.146797 l -3.604219,-34.291855 M 740.855281,547.069339 l 3.607514,34.323199 M 748.510657,581.638278 l -3.610808,-34.354542 M 748.944416,547.498134 l 3.614102,34.385885 M 756.606380,582.129760 l -3.617396,-34.417228 M 757.033550,547.926930 l 3.620691,34.448571 M 764.702103,582.621242 l -3.623985,-34.479915 M 765.122685,548.355725 l 3.627279,34.511258 M 772.797826,583.112724 l -3.630574,-34.542601 M 773.211819,548.784520 l 3.633868,34.573944 M 780.893549,583.604206 l -3.637162,-34.605288 M 781.300954,549.213316 l 3.640457,34.636631 M 788.989272,584.095687 l -3.643751,-34.667974 M 789.390088,549.642111 l 3.647045,34.699317 M 797.084995,584.587169 l -3.650339,-34.730660 M 797.479223,550.070906 l 3.653634,34.762004 M 805.180718,585.078651 l -3.656928,-34.793347 M 805.568357,550.499702 l 3.660222,34.824690 M 813.276441,585.570133 l -3.663517,-34.856033 M 813.657491,550.928497 l 3.666811,34.887376 M 821.372164,586.061615 l -3.670105,-34.918720 M 821.746626,551.357293 l 3.673400,34.950063 M 829.467887,586.553096 l -3.676694,-34.981406 M 829.835760,551.786088 l 3.679988,35.012749 M 837.563610,587.044578 l -3.683283,-35.044093 M 837.924895,552.214883 l 3.686577,35.075436 M 845.659333,587.536060 l -3.689871,-35.106779 M 846.014029,552.643679 l 3.693165,35.138122 M 853.755056,588.027542 l -3.696460,-35.169465 M 854.103164,553.072474 l 3.699754,35.200809 M 861.850779,588.519024 l -3.703048,-35.232152 M 862.192298,553.501269 l 3.706343,35.263495 M 869.946502,589.010505 l -3.709637,-35.294838 M 870.281433,553.930065 l 3.712931,35.326181 M 878.042225,589.501987 l -3.716226,-35.357525 M 878.370567,554.358860 l 3.719520,35.388868 M 884.884107,578.063966 l -2.468973,-23.490708"
       id="path66" />
  </g>
</svg>
