<?xml version="1.0" encoding="UTF-8" standalone="no"?>
<!-- Created with Inkscape (http://www.inkscape.org/) -->

<svg
   xmlns:dc="http://purl.org/dc/elements/1.1/"
   xmlns:cc="http://creativecommons.org/ns#"
   xmlns:rdf="http://www.w3.org/1999/02/22-rdf-syntax-ns#"
   xmlns:svg="http://www.w3.org/2000/svg"
   xmlns="http://www.w3.org/2000/svg"
   xmlns:sodipodi="http://sodipodi.sourceforge.net/DTD/sodipodi-0.dtd"
   xmlns:inkscape="http://www.inkscape.org/namespaces/inkscape"
   id="svg2"
   version="1.1"
   inkscape:version="0.48.3.1 r9886"
   width="2331"
   height="1544"
   sodipodi:docname="hantologie-_0004_pie_hatched_1398275429.svg">
  <defs
     id="defs27" />
  <sodipodi:namedview
     pagecolor="#ffffff"
     bordercolor="#666666"
     borderopacity="1"
     objecttolerance="10"
     gridtolerance="10"
     guidetolerance="10"
     inkscape:pageopacity="0"
     inkscape:pageshadow="2"
     inkscape:window-width="640"
     inkscape:window-height="480"
     id="namedview25" />
  <metadata
     id="metadata8">
    <rdf:RDF>
      <cc:Work
         rdf:about="">
        <dc:format>image/svg+xml </dc:format>
        <dc:type
           rdf:resource="http://purl.org/dc/dcmitype/StillImage" />
        <dc:title />
      </cc:Work>
    </rdf:RDF>
  </metadata>
  <g
     inkscape:label="fill-070707"
     inkscape:groupmode="layer"
     id="fill-070707">
    <path
       style="stroke:#070707"
       d="M 807.871600,492.941444 l 0.000000,11.945537 M 812.871600,524.274980 l 0.000000,-34.278798 M 817.871600,488.866135 l 0.000000,52.319828 M 822.871600,558.892088 l 0.000000,-73.840484 M 827.871600,479.575834 l 0.000000,73.474828 M 827.871600,574.056029 l 0.000000,-19.585979 M 832.871600,478.360711 l 0.000000,101.083542 M 837.871600,567.224409 l 0.000000,-88.069288 M 837.871600,572.144194 l 0.000000,0.687599 M 837.871600,610.892460 l 0.000000,-26.795371 M 842.871600,478.539569 l 0.000000,86.140364 M 842.871600,582.916653 l 0.000000,-6.696528 M 842.871600,586.718702 l 0.000000,31.182916 M 847.871600,560.488385 l 0.000000,-82.667644 M 847.871600,572.949619 l 0.000000,5.511300 M 847.871600,618.890812 l 0.000000,-36.050736 M 852.871600,477.321182 l 0.000000,79.668050 M 852.871600,577.489999 l 0.000000,-4.696085 M 852.871600,579.554525 l 0.000000,30.827721 M 852.871600,619.650585 l 0.000000,-5.748521 M 857.871600,480.329650 l 0.000000,73.585801 M 857.871600,569.471117 l 0.000000,-0.966725 M 857.871600,573.904565 l 0.000000,37.477086 M 857.871600,620.154933 l 0.000000,-6.047599 M 862.871600,479.640193 l 0.000000,71.811360 M 862.871600,560.653009 l 0.000000,-6.701190 M 862.871600,564.960673 l 0.000000,10.931386 M 862.871600,610.888178 l 0.000000,-29.952178 M 862.871600,614.393111 l 0.000000,6.196454 M 867.871600,560.333549 l 0.000000,-60.811218 M 867.871600,578.650782 l 0.000000,30.535422 M 867.871600,620.687931 l 0.000000,-5.763433 M 872.871600,492.454936 l 0.000000,6.445492 M 872.871600,561.881815 l 0.000000,-60.094656 M 872.871600,575.080195 l 0.000000,32.336737 M 872.871600,618.221552 l 0.000000,-2.217472 M 877.871600,472.538570 l 0.000000,0.597758 M 877.871600,558.416220 l 0.000000,-68.983462 M 877.871600,560.668685 l 0.000000,9.246033 M 877.871600,607.110114 l 0.000000,-31.021225 M 882.871600,486.301044 l 0.000000,81.205723 M 882.871600,600.338165 l 0.000000,-17.181946 M 887.871600,484.064760 l 0.000000,67.100966 M 887.871600,567.606662 l 0.000000,-12.731177 M 887.871600,580.268689 l 0.000000,20.366125 M 892.871600,567.170582 l 0.000000,-86.274699 M 892.871600,576.412716 l 0.000000,25.054473 M 892.871600,615.568321 l 0.000000,-2.435283 M 897.871600,478.291271 l 0.000000,97.933280 M 897.871600,615.290333 l 0.000000,-35.945481 M 902.871600,475.282708 l 0.000000,4.452529 M 902.871600,615.781848 l 0.000000,-131.216610 M 907.871600,472.548412 l 0.000000,2.830666 M 907.871600,552.686684 l 0.000000,-68.958808 M 907.871600,559.118263 l 0.000000,57.587919 M 912.871600,469.014235 l 0.000000,-1.659352 M 912.871600,478.802486 l 0.000000,33.017308 M 912.871600,547.293933 l 0.000000,-33.045345 M 912.871600,562.726837 l 0.000000,55.614762 M 917.871600,467.687138 l 0.000000,-3.772065 M 917.871600,477.696774 l 0.000000,33.681618 M 917.871600,550.359340 l 0.000000,-36.084561 M 917.871600,559.320825 l 0.000000,6.681451 M 917.871600,600.228502 l 0.000000,-29.324144 M 917.871600,607.174122 l 0.000000,17.114338 M 922.871600,464.620621 l 0.000000,-4.022508 M 922.871600,474.499280 l 0.000000,8.870937 M 922.871600,510.614576 l 0.000000,-23.418767 M 922.871600,513.462384 l 0.000000,37.479979 M 922.871600,560.923480 l 0.000000,-3.734912 M 922.871600,573.822154 l 0.000000,10.964535 M 922.871600,592.683949 l 0.000000,-3.191572 M 922.871600,598.758233 l 0.000000,1.070796 M 922.871600,623.163276 l 0.000000,-12.723559 M 927.871600,473.751088 l 0.000000,2.952618 M 927.871600,509.450898 l 0.000000,-25.804215 M 927.871600,511.905295 l 0.000000,38.798839 M 927.871600,618.635910 l 0.000000,-0.472854 M 932.871600,480.470007 l 0.000000,27.745214 M 932.871600,550.146411 l 0.000000,-40.434054 M 937.871600,439.306341 l 0.000000,2.559724 M 937.871600,484.443635 l 0.000000,-5.410656 M 937.871600,487.806932 l 0.000000,33.474559 M 937.871600,548.246405 l 0.000000,-25.166339 M 942.871600,437.128231 l 0.000000,1.522413 M 942.871600,471.309578 l 0.000000,-5.430315 M 942.871600,476.852968 l 0.000000,2.645014 M 942.871600,506.753246 l 0.000000,-23.000119 M 942.871600,509.732146 l 0.000000,9.985933 M 942.871600,545.435073 l 0.000000,-22.026961 M 947.871600,433.673384 l 0.000000,0.126493 M 947.871600,447.698542 l 0.000000,-2.279014 M 947.871600,462.635182 l 0.000000,2.061809 M 947.871600,481.492475 l 0.000000,-8.128223 M 947.871600,486.367475 l 0.000000,19.861582 M 947.871600,543.374910 l 0.000000,-33.519107 M 952.871600,429.980847 l 0.000000,0.831640 M 952.871600,477.338021 l 0.000000,-6.275957 M 952.871600,483.761733 l 0.000000,22.494221 M 952.871600,541.486715 l 0.000000,-32.097497 M 957.871600,426.679839 l 0.000000,1.526863 M 957.871600,506.545357 l 0.000000,-25.243633 M 957.871600,508.525560 l 0.000000,9.871796 M 957.871600,534.781414 l 0.000000,-13.759954 M 962.871600,479.241512 l 0.000000,48.909462 M 962.871600,533.154090 l 0.000000,-2.947330 M 967.871600,475.867806 l 0.000000,51.894700 M 972.871600,404.427673 l 0.000000,-2.912854 M 972.871600,421.654611 l 0.000000,1.937619 M 972.871600,476.249128 l 0.000000,-5.995941 M 972.871600,477.873736 l 0.000000,49.139142 M 977.871600,402.956267 l 0.000000,-1.639465 M 977.871600,463.749546 l 0.000000,5.514403 M 977.871600,526.197927 l 0.000000,-52.549022 M 982.871600,458.047226 l 0.000000,5.717572 M 982.871600,528.656804 l 0.000000,-52.492050 M 982.871600,635.973509 l 0.000000,5.847068 M 987.871600,436.708050 l 0.000000,-5.440407 M 987.871600,477.513077 l 0.000000,50.428097 M 987.871600,646.807550 l 0.000000,-17.334882 M 992.871600,426.844600 l 0.000000,8.565763 M 992.871600,526.672014 l 0.000000,-54.237183 M 992.871600,625.120198 l 0.000000,26.415110 M 997.871600,432.873568 l 0.000000,-10.928391 M 997.871600,466.091923 l 0.000000,54.608963 M 997.871600,525.807729 l 0.000000,-2.991564 M 997.871600,623.149313 l 0.000000,31.171829 M 1002.871600,422.304847 l 0.000000,-2.765293 M 1002.871600,422.576958 l 0.000000,6.959214 M 1002.871600,516.174973 l 0.000000,-56.890864 M 1002.871600,519.214908 l 0.000000,7.122411 M 1002.871600,630.558843 l 0.000000,-12.260576 M 1002.871600,633.033782 l 0.000000,14.179673 M 1002.871600,653.584568 l 0.000000,-5.056404 M 1007.871600,417.626872 l 0.000000,7.496545 M 1007.871600,512.084154 l 0.000000,-53.061291 M 1007.871600,520.600461 l 0.000000,4.931413 M 1007.871600,612.346675 l 0.000000,-5.266168 M 1007.871600,618.888048 l 0.000000,9.951358 M 1007.871600,640.766891 l 0.000000,-9.586798 M 1007.871600,643.864962 l 0.000000,2.961635 M 1012.871600,420.119524 l 0.000000,-5.566690 M 1012.871600,430.305070 l 0.000000,3.742308 M 1012.871600,511.093623 l 0.000000,-53.536655 M 1012.871600,520.777542 l 0.000000,2.230379 M 1012.871600,593.725791 l 0.000000,-3.264519 M 1012.871600,604.743881 l 0.000000,6.970907 M 1012.871600,627.393057 l 0.000000,-7.772717 M 1012.871600,629.659426 l 0.000000,12.527567 M 1017.871600,414.595825 l 0.000000,-1.586340 M 1017.871600,423.967197 l 0.000000,2.764465 M 1017.871600,442.438589 l 0.000000,-1.481963 M 1017.871600,454.223936 l 0.000000,11.638450 M 1017.871600,510.714741 l 0.000000,-40.135846 M 1017.871600,520.373082 l 0.000000,2.339585 M 1017.871600,611.299539 l 0.000000,-32.375785 M 1017.871600,619.363366 l 0.000000,6.304614 M 1017.871600,637.674088 l 0.000000,-3.521459 M 1022.871600,419.027305 l 0.000000,5.599586 M 1022.871600,439.542837 l 0.000000,-4.691531 M 1022.871600,450.462427 l 0.000000,9.738726 M 1022.871600,476.575001 l 0.000000,-9.234115 M 1022.871600,484.166635 l 0.000000,25.597543 M 1022.871600,522.725089 l 0.000000,-4.179476 M 1022.871600,580.501427 l 0.000000,14.377698 M 1022.871600,598.660361 l 0.000000,-2.351683 M 1022.871600,600.769227 l 0.000000,10.109806 M 1022.871600,622.595341 l 0.000000,-1.004465 M 1022.871600,631.454367 l 0.000000,2.841413 M 1027.871600,422.772418 l 0.000000,-5.561749 M 1027.871600,433.030403 l 0.000000,3.469557 M 1027.871600,453.313586 l 0.000000,-7.895733 M 1027.871600,464.828376 l 0.000000,0.479094 M 1027.871600,508.303717 l 0.000000,-30.758207 M 1027.871600,516.565717 l 0.000000,4.754951 M 1027.871600,610.073730 l 0.000000,-8.548771 M 1027.871600,617.405291 l 0.000000,3.649366 M 1027.871600,657.335646 l 0.000000,-8.414062 M 1032.871600,415.097411 l 0.000000,5.936136 M 1032.871600,431.487196 l 0.000000,-6.928274 M 1032.871600,441.968458 l 0.000000,4.426427 M 1032.871600,508.489896 l 0.000000,-35.542476 M 1032.871600,516.554569 l 0.000000,3.286441 M 1032.871600,608.079429 l 0.000000,-6.332406 M 1032.871600,617.941788 l 0.000000,1.864639 M 1032.871600,658.192383 l 0.000000,-21.137173 M 1037.871600,410.738333 l 0.000000,8.556342 M 1037.871600,429.390506 l 0.000000,-7.196221 M 1037.871600,438.756241 l 0.000000,2.862913 M 1037.871600,508.513339 l 0.000000,-35.641215 M 1037.871600,515.617249 l 0.000000,3.944967 M 1037.871600,585.949155 l 0.000000,-3.248977 M 1037.871600,601.879739 l 0.000000,2.462603 M 1037.871600,649.875839 l 0.000000,-26.818152 M 1037.871600,653.538472 l 0.000000,0.701052 M 1042.871600,417.499393 l 0.000000,-9.913444 M 1042.871600,423.264275 l 0.000000,5.067458 M 1042.871600,437.734510 l 0.000000,-2.654804 M 1042.871600,462.801839 l 0.000000,6.902239 M 1042.871600,506.651642 l 0.000000,-31.239857 M 1042.871600,512.090908 l 0.000000,13.344664 M 1042.871600,641.970093 l 0.000000,-20.082189 M 1042.871600,643.069630 l 0.000000,5.201913 M 1047.871600,415.674103 l 0.000000,-9.623819 M 1047.871600,419.703653 l 0.000000,13.973046 M 1047.871600,444.330429 l 0.000000,-2.621030 M 1047.871600,457.028575 l 0.000000,4.815030 M 1047.871600,482.638716 l 0.000000,-10.204412 M 1047.871600,490.087750 l 0.000000,15.485735 M 1047.871600,527.102667 l 0.000000,-18.918945 M 1047.871600,547.627472 l 0.000000,27.815433 M 1047.871600,582.252662 l 0.000000,-0.958189 M 1047.871600,590.249040 l 0.000000,1.643160 M 1047.871600,600.829205 l 0.000000,-1.128426 M 1047.871600,618.062007 l 0.000000,13.695140 M 1047.871600,638.582721 l 0.000000,-5.262627 M 1052.871600,405.537450 l 0.000000,7.928184 M 1052.871600,426.943946 l 0.000000,-9.253647 M 1052.871600,438.955330 l 0.000000,3.520462 M 1052.871600,455.649901 l 0.000000,-4.216072 M 1052.871600,468.025455 l 0.000000,60.635176 M 1052.871600,562.660624 l 0.000000,-4.423021 M 1052.871600,565.246344 l 0.000000,16.886820 M 1052.871600,630.392134 l 0.000000,-17.979201 M 1052.871600,634.284183 l 0.000000,2.836236 M 1057.871600,410.931016 l 0.000000,-5.792036 M 1057.871600,415.567781 l 0.000000,4.964823 M 1057.871600,440.500263 l 0.000000,-9.203088 M 1057.871600,444.190884 l 0.000000,7.395333 M 1057.871600,527.310744 l 0.000000,-66.721884 M 1057.871600,537.378610 l 0.000000,0.751840 M 1057.871600,562.251135 l 0.000000,-5.249078 M 1057.871600,566.761025 l 0.000000,2.658503 M 1057.871600,582.376233 l 0.000000,-10.110517 M 1057.871600,582.501475 l 0.000000,4.489673 M 1057.871600,606.615080 l 0.000000,-1.215363 M 1057.871600,607.131866 l 0.000000,23.779186 M 1057.871600,636.284103 l 0.000000,-1.451275 M 1062.871600,404.687412 l 0.000000,0.986125 M 1062.871600,414.584930 l 0.000000,-2.244077 M 1062.871600,419.186170 l 0.000000,20.175261 M 1062.871600,449.946009 l 0.000000,-8.783200 M 1062.871600,454.016974 l 0.000000,18.935925 M 1062.871600,525.674938 l 0.000000,-45.903471 M 1062.871600,555.057188 l 0.000000,6.197941 M 1062.871600,569.464269 l 0.000000,-4.382239 M 1062.871600,569.672534 l 0.000000,9.257509 M 1062.871600,587.389188 l 0.000000,-5.457632 M 1062.871600,602.949039 l 0.000000,3.473818 M 1062.871600,632.172572 l 0.000000,-21.718968 M 1062.871600,632.273573 l 0.000000,3.515103 M 1067.871600,406.427551 l 0.000000,-1.644416 M 1067.871600,415.325413 l 0.000000,8.701698 M 1067.871600,454.582899 l 0.000000,-25.045891 M 1067.871600,459.458205 l 0.000000,6.392214 M 1067.871600,524.041078 l 0.000000,-54.181246 M 1067.871600,554.112303 l 0.000000,5.394928 M 1067.871600,566.676848 l 0.000000,-3.838847 M 1067.871600,566.844849 l 0.000000,4.730724 M 1067.871600,576.624504 l 0.000000,-2.192712 M 1067.871600,581.054740 l 0.000000,5.732790 M 1067.871600,604.891456 l 0.000000,-5.487118 M 1067.871600,609.587357 l 0.000000,17.896455 M 1067.871600,637.774027 l 0.000000,-6.343990 M 1072.871600,410.905831 l 0.000000,15.267975 M 1072.871600,522.407219 l 0.000000,-94.751949 M 1072.871600,545.470734 l 0.000000,2.059349 M 1072.871600,564.227503 l 0.000000,-4.352165 M 1072.871600,566.773572 l 0.000000,3.474094 M 1072.871600,586.078313 l 0.000000,-5.503048 M 1072.871600,596.047263 l 0.000000,20.413678 M 1072.871600,635.408088 l 0.000000,-5.773095 M 1077.871600,405.295894 l 0.000000,29.219120 M 1077.871600,451.925549 l 0.000000,-14.755387 M 1077.871600,463.430850 l 0.000000,25.856019 M 1077.871600,520.799103 l 0.000000,-29.942894 M 1077.871600,555.696213 l 0.000000,4.453645 M 1077.871600,572.947488 l 0.000000,-7.834772 M 1077.871600,580.051878 l 0.000000,4.765674 M 1077.871600,600.630856 l 0.000000,-6.910647 M 1077.871600,607.232004 l 0.000000,7.220968 M 1077.871600,636.533976 l 0.000000,-8.617630 M 1082.871600,395.542966 l 0.000000,2.895514 M 1082.871600,420.161482 l 0.000000,-13.943160 M 1082.871600,423.469266 l 0.000000,45.012697 M 1082.871600,518.989893 l 0.000000,-47.373056 M 1082.871600,562.753666 l 0.000000,2.736039 M 1082.871600,574.843907 l 0.000000,-2.117763 M 1082.871600,579.362629 l 0.000000,5.723177 M 1082.871600,591.963039 l 0.000000,-1.440450 M 1082.871600,594.319183 l 0.000000,4.728184 M 1082.871600,612.059765 l 0.000000,-7.940551 M 1082.871600,624.131259 l 0.000000,14.247095 M 1087.871600,395.514625 l 0.000000,-3.471808 M 1087.871600,405.043028 l 0.000000,5.127431 M 1087.871600,460.130397 l 0.000000,-37.508667 M 1087.871600,464.541513 l 0.000000,24.130404 M 1087.871600,517.144995 l 0.000000,-27.946988 M 1087.871600,560.332042 l 0.000000,2.544593 M 1087.871600,573.206006 l 0.000000,-4.820322 M 1087.871600,578.030852 l 0.000000,7.902282 M 1087.871600,597.116446 l 0.000000,-4.046903 M 1087.871600,602.829718 l 0.000000,6.834791 M 1087.871600,618.139802 l 0.000000,-3.008415 M 1087.871600,620.588382 l 0.000000,20.241830 M 1092.871600,391.637792 l 0.000000,-2.249216 M 1092.871600,416.858374 l 0.000000,99.185521 M 1092.871600,569.906115 l 0.000000,-1.741773 M 1092.871600,576.590822 l 0.000000,6.762934 M 1092.871600,595.031303 l 0.000000,-6.285851 M 1092.871600,603.012984 l 0.000000,4.243517 M 1092.871600,642.254273 l 0.000000,-22.765966 M 1097.871600,411.556546 l 0.000000,103.926395 M 1097.871600,561.793766 l 0.000000,-1.991496 M 1097.871600,569.981931 l 0.000000,2.796698 M 1097.871600,592.696064 l 0.000000,-3.022816 M 1097.871600,605.675734 l 0.000000,6.995970 M 1097.871600,622.877234 l 0.000000,-3.880905 M 1097.871600,628.006034 l 0.000000,6.810950 M 1102.871600,486.275003 l 0.000000,-78.575759 M 1102.871600,487.974305 l 0.000000,26.994053 M 1102.871600,560.489684 l 0.000000,-2.809088 M 1102.871600,567.331460 l 0.000000,2.826125 M 1102.871600,580.922837 l 0.000000,-2.361587 M 1102.871600,585.693411 l 0.000000,0.574493 M 1102.871600,611.907686 l 0.000000,-7.970208 M 1102.871600,618.758326 l 0.000000,2.549851 M 1102.871600,639.082994 l 0.000000,-8.549000 M 1107.871600,396.131662 l 0.000000,89.400401 M 1107.871600,514.350211 l 0.000000,-26.933183 M 1107.871600,557.352379 l 0.000000,0.573391 M 1107.871600,577.467292 l 0.000000,-1.980965 M 1107.871600,603.671476 l 0.000000,1.739216 M 1107.871600,636.601173 l 0.000000,-7.636773 M 1112.871600,395.213247 l 0.000000,89.575876 M 1112.871600,513.371635 l 0.000000,-26.513311 M 1112.871600,573.135515 l 0.000000,1.468184 M 1112.871600,595.522799 l 0.000000,-1.466242 M 1112.871600,627.125742 l 0.000000,9.359994 M 1117.871600,484.046183 l 0.000000,-91.257834 M 1117.871600,486.714501 l 0.000000,25.573378 M 1117.871600,551.847452 l 0.000000,-0.653090 M 1117.871600,601.538557 l 0.000000,0.597771 M 1117.871600,636.185458 l 0.000000,-9.674360 M 1122.871600,392.494824 l 0.000000,18.702107 M 1122.871600,483.220726 l 0.000000,-70.236817 M 1122.871600,486.383006 l 0.000000,24.547703 M 1122.871600,545.952209 l 0.000000,-2.924875 M 1122.871600,628.650967 l 0.000000,2.502101 M 1127.871600,482.298441 l 0.000000,-90.044079 M 1127.871600,484.991977 l 0.000000,24.320021 M 1127.871600,542.655587 l 0.000000,-3.467618 M 1127.871600,629.393267 l 0.000000,8.369413 M 1132.871600,473.951856 l 0.000000,-83.358703 M 1132.871600,475.661293 l 0.000000,5.090922 M 1132.871600,507.348633 l 0.000000,-23.884014 M 1132.871600,630.840274 l 0.000000,4.564568 M 1137.871600,479.430208 l 0.000000,-91.126467 M 1137.871600,482.465376 l 0.000000,16.815762 M 1137.871600,505.009375 l 0.000000,-2.685953 M 1137.871600,631.863201 l 0.000000,2.955986 M 1142.871600,404.962772 l 0.000000,-16.278472 M 1142.871600,407.983136 l 0.000000,71.674875 M 1142.871600,490.193910 l 0.000000,-7.096453 M 1142.871600,496.149146 l 0.000000,0.537877 M 1142.871600,598.205804 l 0.000000,-0.411607 M 1142.871600,632.319002 l 0.000000,2.551030 M 1147.871600,399.805141 l 0.000000,-8.901732 M 1147.871600,403.342248 l 0.000000,69.925164 M 1147.871600,479.885814 l 0.000000,-5.192627 M 1147.871600,484.329714 l 0.000000,5.251707 M 1147.871600,549.869505 l 0.000000,-2.796960 M 1147.871600,584.123880 l 0.000000,2.232655 M 1147.871600,591.061771 l 0.000000,-0.969399 M 1147.871600,633.219943 l 0.000000,0.938891 M 1152.871600,395.568043 l 0.000000,-2.989446 M 1152.871600,398.759361 l 0.000000,81.454483 M 1152.871600,589.357442 l 0.000000,-5.385549 M 1157.871600,399.987050 l 0.000000,11.296772 M 1157.871600,480.621967 l 0.000000,-66.702959 M 1157.871600,582.951244 l 0.000000,6.034687 M 1162.871600,477.373017 l 0.000000,-78.933503 M 1162.871600,478.638079 l 0.000000,2.392012 M 1162.871600,586.750766 l 0.000000,-4.084836 M 1167.871600,398.832488 l 0.000000,10.628521 M 1167.871600,420.232581 l 0.000000,-6.415521 M 1167.871600,420.754177 l 0.000000,56.932669 M 1167.871600,481.438215 l 0.000000,-1.658506 M 1167.871600,581.671641 l 0.000000,2.754421 M 1167.871600,603.969326 l 0.000000,-1.785930 M 1172.871600,393.684775 l 0.000000,2.984468 M 1172.871600,402.582339 l 0.000000,-2.161993 M 1172.871600,411.239359 l 0.000000,67.073308 M 1172.871600,481.780729 l 0.000000,-1.608332 M 1172.871600,533.769419 l 0.000000,1.844098 M 1177.871600,359.809613 l 0.000000,-2.479551 M 1177.871600,396.688064 l 0.000000,1.746495 M 1177.871600,406.901548 l 0.000000,-3.896253 M 1177.871600,414.889629 l 0.000000,64.048860 M 1177.871600,580.673122 l 0.000000,-1.562562 M 1182.871600,357.216053 l 0.000000,1.531682 M 1182.871600,479.724881 l 0.000000,-81.120578 M 1187.871600,389.549991 l 0.000000,2.637921 M 1187.871600,480.515520 l 0.000000,-83.581688 M 1187.871600,542.296024 l 0.000000,2.404917 M 1192.871600,481.318474 l 0.000000,-77.242049 M 1192.871600,533.650905 l 0.000000,4.018444 M 1197.871600,392.277733 l 0.000000,-2.965403 M 1197.871600,402.842469 l 0.000000,79.519939 M 1197.871600,537.716895 l 0.000000,-1.523219 M 1197.871600,571.708181 l 0.000000,3.062552 M 1202.871600,391.900622 l 0.000000,-1.675931 M 1202.871600,396.871872 l 0.000000,4.519390 M 1202.871600,483.352896 l 0.000000,-79.872647 M 1202.871600,572.268342 l 0.000000,0.395114 M 1207.871600,476.154559 l 0.000000,-81.374492 M 1207.871600,478.845441 l 0.000000,5.066125 M 1212.871600,401.625300 l 0.000000,-3.988390 M 1212.871600,403.296940 l 0.000000,43.394355 M 1212.871600,484.350676 l 0.000000,-37.041971 M 1212.871600,529.277035 l 0.000000,2.672267 M 1217.871600,345.373325 l 0.000000,-5.147237 M 1217.871600,397.396200 l 0.000000,4.337781 M 1217.871600,485.331786 l 0.000000,-81.416054 M 1217.871600,527.277747 l 0.000000,3.099840 M 1222.871600,344.429532 l 0.000000,-6.402298 M 1222.871600,395.797404 l 0.000000,76.647305 M 1222.871600,486.515040 l 0.000000,-7.590970 M 1222.871600,575.341434 l 0.000000,2.373859 M 1227.871600,342.710949 l 0.000000,-5.279354 M 1227.871600,394.068796 l 0.000000,77.465672 M 1227.871600,487.221040 l 0.000000,-9.546655 M 1227.871600,573.578879 l 0.000000,3.696244 M 1232.871600,377.591033 l 0.000000,-2.868188 M 1232.871600,398.253106 l 0.000000,71.589180 M 1232.871600,488.383702 l 0.000000,-9.099241 M 1232.871600,550.085248 l 0.000000,1.386221 M 1232.871600,575.094238 l 0.000000,-2.805801 M 1237.871600,396.031521 l 0.000000,5.510028 M 1237.871600,466.878375 l 0.000000,-58.286864 M 1237.871600,474.714069 l 0.000000,15.272180 M 1237.871600,551.110564 l 0.000000,-6.127179 M 1242.871600,408.255354 l 0.000000,10.047104 M 1242.871600,458.492794 l 0.000000,-38.238450 M 1242.871600,463.748861 l 0.000000,5.186197 M 1242.871600,491.825380 l 0.000000,-19.141028 M 1242.871600,544.338927 l 0.000000,4.589515 M 1247.871600,430.937238 l 0.000000,-26.112677 M 1247.871600,432.251368 l 0.000000,35.562636 M 1247.871600,477.235541 l 0.000000,-4.986517 M 1247.871600,478.226529 l 0.000000,14.526822 M 1252.871600,374.837870 l 0.000000,-7.063675 M 1252.871600,400.698721 l 0.000000,2.993554 M 1252.871600,459.959686 l 0.000000,-53.350916 M 1252.871600,476.297454 l 0.000000,14.876306 M 1257.871600,350.651183 l 0.000000,-4.127192 M 1257.871600,359.636854 l 0.000000,0.263488 M 1257.871600,367.440145 l 0.000000,-2.197650 M 1257.871600,370.216875 l 0.000000,6.150081 M 1257.871600,389.787578 l 0.000000,-3.247131 M 1257.871600,402.043401 l 0.000000,5.396412 M 1257.871600,458.583358 l 0.000000,-45.874684 M 1257.871600,462.159143 l 0.000000,1.649244 M 1257.871600,489.227605 l 0.000000,-15.582539 M 1257.871600,538.313702 l 0.000000,3.042194 M 1262.871600,360.169332 l 0.000000,-3.636528 M 1262.871600,367.100401 l 0.000000,11.847979 M 1262.871600,387.208722 l 0.000000,-4.758607 M 1262.871600,407.031540 l 0.000000,49.216116 M 1262.871600,461.398755 l 0.000000,-1.937815 M 1262.871600,471.012271 l 0.000000,15.750996 M 1262.871600,538.050738 l 0.000000,-1.690199 M 1267.871600,354.562181 l 0.000000,6.664367 M 1267.871600,386.776331 l 0.000000,-20.531538 M 1267.871600,410.968585 l 0.000000,47.161736 M 1267.871600,483.868229 l 0.000000,-19.107862 M 1267.871600,544.837344 l 0.000000,9.023865 M 1272.871600,359.476939 l 0.000000,-6.273455 M 1272.871600,367.482222 l 0.000000,18.473876 M 1272.871600,480.727051 l 0.000000,-71.176117 M 1272.871600,544.869951 l 0.000000,8.091026 M 1277.871600,356.868609 l 0.000000,-4.798942 M 1277.871600,368.070330 l 0.000000,15.665957 M 1277.871600,405.613585 l 0.000000,-0.832405 M 1277.871600,409.814940 l 0.000000,67.699726 M 1277.871600,550.783832 l 0.000000,-1.988426 M 1282.871600,351.614783 l 0.000000,1.679085 M 1282.871600,362.971114 l 0.000000,-4.328783 M 1282.871600,363.988922 l 0.000000,17.599460 M 1282.871600,404.845363 l 0.000000,-3.249454 M 1282.871600,405.714155 l 0.000000,57.227699 M 1282.871600,474.467044 l 0.000000,-7.829522 M 1287.871600,357.270083 l 0.000000,26.802761 M 1287.871600,412.377462 l 0.000000,-7.424894 M 1287.871600,413.900137 l 0.000000,22.390830 M 1287.871600,459.115006 l 0.000000,-20.228495 M 1287.871600,464.451180 l 0.000000,8.277988 M 1287.871600,492.010822 l 0.000000,-2.311189 M 1287.871600,531.776844 l 0.000000,2.007010 M 1292.871600,383.205110 l 0.000000,-21.047959 M 1292.871600,403.685938 l 0.000000,12.340913 M 1292.871600,428.534563 l 0.000000,-9.569942 M 1292.871600,438.163236 l 0.000000,16.137331 M 1292.871600,472.517905 l 0.000000,-11.723665 M 1292.871600,487.403279 l 0.000000,3.977065 M 1292.871600,516.624490 l 0.000000,-2.450800 M 1292.871600,527.838203 l 0.000000,3.788140 M 1297.871600,380.329475 l 0.000000,-24.367946 M 1297.871600,392.009061 l 0.000000,2.763394 M 1297.871600,414.580366 l 0.000000,-13.490146 M 1297.871600,416.393583 l 0.000000,13.611057 M 1297.871600,449.331058 l 0.000000,-15.847496 M 1297.871600,456.027318 l 0.000000,14.074197 M 1297.871600,490.287784 l 0.000000,-3.095427 M 1297.871600,494.687251 l 0.000000,1.225534 M 1297.871600,507.374244 l 0.000000,-5.811528 M 1297.871600,510.980628 l 0.000000,4.660371 M 1297.871600,527.940570 l 0.000000,-4.053348 M 1302.871600,353.936948 l 0.000000,34.822232 M 1302.871600,445.731237 l 0.000000,-48.766081 M 1302.871600,449.446978 l 0.000000,9.914480 M 1302.871600,466.243154 l 0.000000,-5.187921 M 1302.871600,485.597074 l 0.000000,4.270056 M 1302.871600,494.468856 l 0.000000,-1.526907 M 1302.871600,498.004953 l 0.000000,6.924247 M 1302.871600,508.126798 l 0.000000,-2.158550 M 1307.871600,352.261549 l 0.000000,37.390753 M 1307.871600,456.072429 l 0.000000,-64.160758 M 1307.871600,458.106441 l 0.000000,7.278288 M 1307.871600,490.957146 l 0.000000,-7.253155 M 1307.871600,491.135602 l 0.000000,5.493423 M 1307.871600,501.901584 l 0.000000,-5.110797 M 1312.871600,353.049420 l 0.000000,97.732961 M 1312.871600,464.190196 l 0.000000,-11.127316 M 1312.871600,482.388516 l 0.000000,16.802270 M 1317.871600,359.261933 l 0.000000,-7.812287 M 1317.871600,362.105942 l 0.000000,66.960750 M 1317.871600,461.551199 l 0.000000,-30.103358 M 1317.871600,476.496993 l 0.000000,2.938146 M 1317.871600,496.402220 l 0.000000,-14.556349 M 1322.871600,355.556106 l 0.000000,70.553918 M 1322.871600,441.837261 l 0.000000,-12.205157 M 1322.871600,444.951483 l 0.000000,2.793137 M 1322.871600,457.422072 l 0.000000,-6.751081 M 1322.871600,473.305500 l 0.000000,12.165200 M 1322.871600,531.770893 l 0.000000,-0.980970 M 1327.871600,358.711041 l 0.000000,24.961178 M 1327.871600,423.202158 l 0.000000,-36.122656 M 1327.871600,430.105279 l 0.000000,5.125786 M 1327.871600,446.314931 l 0.000000,-3.208146 M 1327.871600,450.432547 l 0.000000,2.050213 M 1327.871600,481.567372 l 0.000000,-13.928779 M 1327.871600,503.458043 l 0.000000,8.023506 M 1327.871600,533.827499 l 0.000000,-4.525267 M 1332.871600,365.730346 l 0.000000,51.702911 M 1332.871600,470.198010 l 0.000000,-3.065912 M 1332.871600,471.797491 l 0.000000,3.686746 M 1332.871600,510.715798 l 0.000000,-12.044739 M 1332.871600,530.176388 l 0.000000,0.990190 M 1337.871600,413.725391 l 0.000000,-52.659876 M 1337.871600,516.662433 l 0.000000,2.853089 M 1342.871600,410.790503 l 0.000000,-51.303629 M 1342.871600,482.253847 l 0.000000,10.384797 M 1347.871600,408.515110 l 0.000000,-48.843907 M 1347.871600,472.450241 l 0.000000,15.908461 M 1347.871600,526.895421 l 0.000000,-13.199523 M 1352.871600,359.406676 l 0.000000,47.050408 M 1352.871600,480.319925 l 0.000000,-15.050472 M 1352.871600,508.583897 l 0.000000,16.791626 M 1357.871600,393.949728 l 0.000000,-32.389669 M 1357.871600,398.217217 l 0.000000,3.898746 M 1357.871600,471.188454 l 0.000000,-1.901051 M 1357.871600,487.240703 l 0.000000,4.612179 M 1357.871600,509.759648 l 0.000000,-2.420124 M 1357.871600,533.298907 l 0.000000,2.087887 M 1362.871600,389.319323 l 0.000000,-25.162270 M 1362.871600,481.830474 l 0.000000,10.133696 M 1362.871600,532.045530 l 0.000000,-1.987797 M 1367.871600,316.178454 l 0.000000,2.362097 M 1367.871600,375.199963 l 0.000000,-12.724676 M 1367.871600,376.564401 l 0.000000,8.124516 M 1367.871600,485.046952 l 0.000000,-7.843285 M 1367.871600,486.233249 l 0.000000,4.997250 M 1367.871600,512.726604 l 0.000000,-6.340486 M 1372.871600,360.367724 l 0.000000,9.621923 M 1372.871600,373.520353 l 0.000000,-3.520313 M 1372.871600,377.683273 l 0.000000,2.339793 M 1372.871600,484.190178 l 0.000000,-10.092881 M 1372.871600,488.664151 l 0.000000,1.250801 M 1372.871600,511.364469 l 0.000000,-12.561795 M 1377.871600,360.592481 l 0.000000,3.950747 M 1377.871600,371.545800 l 0.000000,-0.768928 M 1377.871600,481.732790 l 0.000000,2.195174 M 1377.871600,489.941408 l 0.000000,-1.368814 M 1377.871600,495.971338 l 0.000000,11.902776 M 1382.871600,363.539573 l 0.000000,-1.362627 M 1382.871600,480.723203 l 0.000000,2.773726 M 1382.871600,502.546607 l 0.000000,-6.689426 M 1382.871600,511.691295 l 0.000000,0.617411 M 1387.871600,347.666493 l 0.000000,-1.879146 M 1392.871600,348.924170 l 0.000000,6.960362 M 1392.871600,470.828506 l 0.000000,-0.677472 M 1397.871600,253.742448 l 0.000000,1.721080 M 1402.871600,186.897349 l 0.000000,-2.343053 M 1402.871600,237.330159 l 0.000000,0.301010 M 1402.871600,246.181144 l 0.000000,-5.338354 M 1402.871600,247.136005 l 0.000000,6.409587 M 1402.871600,266.389133 l 0.000000,-2.645444 M 1402.871600,271.667379 l 0.000000,4.095856 M 1402.871600,321.946595 l 0.000000,-1.893190 M 1402.871600,327.266341 l 0.000000,2.689322 M 1407.871600,187.388338 l 0.000000,-6.343045 M 1407.871600,216.571425 l 0.000000,0.983411 M 1407.871600,239.179743 l 0.000000,-2.744807 M 1407.871600,241.240778 l 0.000000,9.605656 M 1407.871600,260.609368 l 0.000000,-8.713359 M 1407.871600,263.784129 l 0.000000,7.717080 M 1407.871600,314.753898 l 0.000000,-0.580210 M 1412.871600,207.395134 l 0.000000,20.831956 M 1412.871600,235.139081 l 0.000000,-3.818984 M 1412.871600,238.285383 l 0.000000,8.358904 M 1412.871600,271.083474 l 0.000000,-20.011152 M 1412.871600,286.549696 l 0.000000,2.748268 M 1417.871600,239.747323 l 0.000000,-35.301666 M 1417.871600,240.370325 l 0.000000,4.540234 M 1417.871600,274.958046 l 0.000000,-21.250438 M 1417.871600,282.299162 l 0.000000,6.731439 M 1417.871600,299.014159 l 0.000000,-8.435226 M 1422.871600,162.322086 l 0.000000,2.322669 M 1422.871600,179.873828 l 0.000000,-11.384828 M 1422.871600,188.102064 l 0.000000,4.825082 M 1422.871600,247.126353 l 0.000000,-46.342169 M 1422.871600,254.849494 l 0.000000,23.209948 M 1422.871600,288.170802 l 0.000000,-3.877936 M 1422.871600,292.218097 l 0.000000,10.381479 M 1422.871600,312.813088 l 0.000000,-7.325374 M 1427.871600,163.222340 l 0.000000,28.964087 M 1427.871600,244.615244 l 0.000000,-47.845980 M 1427.871600,247.051833 l 0.000000,2.094407 M 1427.871600,267.719216 l 0.000000,-14.373192 M 1427.871600,271.187041 l 0.000000,32.882194 M 1432.871600,207.972983 l 0.000000,-42.997632 M 1432.871600,211.255823 l 0.000000,20.687245 M 1432.871600,242.816833 l 0.000000,-5.266267 M 1432.871600,245.960361 l 0.000000,8.334895 M 1432.871600,264.571577 l 0.000000,-5.614409 M 1432.871600,268.458071 l 0.000000,46.398399 M 1437.871600,206.168644 l 0.000000,-40.878422 M 1437.871600,210.923315 l 0.000000,18.645315 M 1437.871600,251.320377 l 0.000000,-11.191977 M 1437.871600,256.229242 l 0.000000,5.986802 M 1437.871600,313.519307 l 0.000000,-48.633759 M 1442.871600,165.125016 l 0.000000,36.616734 M 1442.871600,228.322288 l 0.000000,-19.246473 M 1442.871600,232.090404 l 0.000000,2.286640 M 1442.871600,248.359531 l 0.000000,-7.557002 M 1442.871600,252.917379 l 0.000000,11.449934 M 1442.871600,280.703240 l 0.000000,-14.128730 M 1442.871600,283.810186 l 0.000000,32.294993 M 1447.871600,195.332258 l 0.000000,-17.580882 M 1447.871600,207.845204 l 0.000000,18.650013 M 1447.871600,234.535661 l 0.000000,-4.174470 M 1447.871600,242.322256 l 0.000000,5.115704 M 1447.871600,260.260268 l 0.000000,-12.195553 M 1447.871600,263.783494 l 0.000000,7.178834 M 1447.871600,294.535156 l 0.000000,-16.610094 M 1447.871600,297.464844 l 0.000000,21.287824 M 1452.871600,188.681465 l 0.000000,-4.771041 M 1452.871600,207.127951 l 0.000000,5.435155 M 1452.871600,221.616457 l 0.000000,-5.239576 M 1452.871600,229.198203 l 0.000000,6.279090 M 1452.871600,256.594288 l 0.000000,-15.370366 M 1452.871600,258.892434 l 0.000000,48.914472 M 1457.871600,221.650173 l 0.000000,-3.444138 M 1457.871600,227.429561 l 0.000000,7.183068 M 1457.871600,243.569043 l 0.000000,-5.131999 M 1457.871600,246.888951 l 0.000000,10.007499 M 1457.871600,269.063763 l 0.000000,-9.222347 M 1457.871600,275.640949 l 0.000000,8.472549 M 1457.871600,310.082561 l 0.000000,-22.304561 M 1462.871600,219.946086 l 0.000000,4.869908 M 1462.871600,233.336452 l 0.000000,-2.082759 M 1462.871600,237.285043 l 0.000000,14.808542 M 1462.871600,269.679494 l 0.000000,-14.269102 M 1462.871600,281.822749 l 0.000000,19.177431 M 1467.871600,286.903121 l 0.000000,-55.711776 M 1472.871600,211.389953 l 0.000000,58.512797 M 1477.871600,214.861285 l 0.000000,-6.504811 M 1477.871600,229.783163 l 0.000000,25.983979 M 1482.871600,210.980615 l 0.000000,-5.489317 M 1482.871600,216.507742 l 0.000000,14.055574 M 1482.871600,252.670529 l 0.000000,-20.227837 M 1487.871600,202.842620 l 0.000000,20.472559 M 1487.871600,242.390706 l 0.000000,-15.653858 M 1492.871600,200.744271 l 0.000000,21.498021 M 1497.871600,211.665946 l 0.000000,-12.678321 M 1502.871600,198.097298 l 0.000000,4.095015"
       id="path5" />
  </g>
  <g
     inkscape:label="fill-303030"
     inkscape:groupmode="layer"
     id="fill-303030">
    <path
       style="stroke:#303030"
       d="M 810.112328,488.754119 l 0.000000,29.580787 M 817.112328,540.667728 l 0.000000,-57.731331 M 824.112328,479.521871 l 0.000000,85.335439 M 831.112328,582.646458 l 0.000000,-106.490929 M 838.112328,477.572150 l 0.000000,98.254862 M 838.112328,617.359464 l 0.000000,-37.916219 M 845.112328,476.577862 l 0.000000,88.601622 M 845.112328,619.593860 l 0.000000,-49.086083 M 852.112328,475.253418 l 0.000000,85.225116 M 852.112328,620.718598 l 0.000000,-49.975027 M 859.112328,479.794986 l 0.000000,141.719976 M 866.112328,481.227791 l 0.000000,-5.664281 M 866.112328,494.877702 l 0.000000,79.720116 M 866.112328,612.090844 l 0.000000,-34.480719 M 866.112328,613.281063 l 0.000000,8.531095 M 873.112328,477.282859 l 0.000000,-5.725138 M 873.112328,488.827615 l 0.000000,121.008136 M 873.112328,619.682627 l 0.000000,-6.475814 M 880.112328,469.306968 l 0.000000,4.631045 M 880.112328,481.978450 l 0.000000,-2.828151 M 880.112328,486.011665 l 0.000000,122.598129 M 880.112328,616.350452 l 0.000000,-3.380600 M 887.112328,468.152169 l 0.000000,1.540124 M 887.112328,571.079849 l 0.000000,-92.216426 M 887.112328,578.560064 l 0.000000,26.474820 M 887.112328,616.551115 l 0.000000,-3.813833 M 894.112328,473.982381 l 0.000000,142.980376 M 901.112328,617.502913 l 0.000000,-149.863177 M 908.112328,464.866941 l 0.000000,153.623923 M 915.112328,462.200948 l 0.000000,-8.542605 M 915.112328,464.121674 l 0.000000,87.742563 M 915.112328,625.188904 l 0.000000,-69.524523 M 922.112328,446.959578 l 0.000000,21.076615 M 922.112328,551.651537 l 0.000000,-78.819270 M 922.112328,556.134327 l 0.000000,7.819083 M 922.112328,587.026381 l 0.000000,-15.636107 M 922.112328,595.009241 l 0.000000,0.910550 M 922.112328,607.718468 l 0.000000,-5.239088 M 929.112328,444.430448 l 0.000000,14.069995 M 929.112328,551.499759 l 0.000000,-85.467459 M 929.112328,597.298396 l 0.000000,3.179917 M 929.112328,621.461038 l 0.000000,-8.906534 M 929.112328,627.263546 l 0.000000,4.426554 M 936.112328,446.745961 l 0.000000,-7.832705 M 936.112328,456.873292 l 0.000000,3.778002 M 936.112328,550.318487 l 0.000000,-82.021012 M 936.112328,594.525510 l 0.000000,2.386431 M 936.112328,630.877201 l 0.000000,-2.294932 M 943.112328,435.172018 l 0.000000,5.553953 M 943.112328,455.137518 l 0.000000,-8.568947 M 943.112328,463.077662 l 0.000000,83.933580 M 943.112328,613.711115 l 0.000000,-2.244754 M 950.112328,430.110562 l 0.000000,4.870165 M 950.112328,449.149107 l 0.000000,-8.832149 M 950.112328,452.294397 l 0.000000,3.134966 M 950.112328,464.061578 l 0.000000,-5.251313 M 950.112328,467.371186 l 0.000000,76.247553 M 957.112328,430.552199 l 0.000000,-5.193932 M 957.112328,436.918538 l 0.000000,2.703129 M 957.112328,445.620485 l 0.000000,-3.879766 M 957.112328,467.346341 l 0.000000,5.307213 M 957.112328,539.859164 l 0.000000,-61.114530 M 964.112328,405.967218 l 0.000000,1.495244 M 964.112328,424.440305 l 0.000000,-3.235137 M 964.112328,426.338909 l 0.000000,3.631183 M 964.112328,534.907332 l 0.000000,-64.410973 M 971.112328,401.713967 l 0.000000,4.005472 M 971.112328,426.551074 l 0.000000,-5.997092 M 971.112328,438.153829 l 0.000000,4.666166 M 971.112328,464.342687 l 0.000000,-4.277313 M 971.112328,469.013978 l 0.000000,59.601118 M 978.112328,402.934861 l 0.000000,-4.030355 M 978.112328,417.110608 l 0.000000,5.865063 M 978.112328,434.887672 l 0.000000,-7.063862 M 978.112328,447.535078 l 0.000000,5.326505 M 978.112328,531.592739 l 0.000000,-70.050651 M 978.112328,634.367164 l 0.000000,17.783984 M 985.112328,446.278252 l 0.000000,-30.833928 M 985.112328,453.169685 l 0.000000,9.933338 M 985.112328,530.016392 l 0.000000,-60.173018 M 985.112328,622.897657 l 0.000000,34.150476 M 992.112328,440.097343 l 0.000000,-25.756453 M 992.112328,444.713966 l 0.000000,4.582255 M 992.112328,528.492930 l 0.000000,-60.947886 M 992.112328,620.324101 l 0.000000,46.836494 M 999.112328,414.923271 l 0.000000,-1.346534 M 999.112328,419.382135 l 0.000000,14.623640 M 999.112328,440.330742 l 0.000000,-3.060099 M 999.112328,462.111327 l 0.000000,65.612923 M 999.112328,661.527584 l 0.000000,-44.834984 M 1006.112328,408.820999 l 0.000000,3.605956 M 1006.112328,431.928053 l 0.000000,-15.580690 M 1006.112328,438.301662 l 0.000000,4.094280 M 1006.112328,514.446923 l 0.000000,-60.412032 M 1006.112328,518.645425 l 0.000000,8.559004 M 1006.112328,572.106116 l 0.000000,-5.663270 M 1006.112328,606.060301 l 0.000000,50.275636 M 1006.112328,677.563930 l 0.000000,-8.068224 M 1013.112328,406.287997 l 0.000000,16.965146 M 1013.112328,436.729729 l 0.000000,-9.060276 M 1013.112328,445.393602 l 0.000000,2.645929 M 1013.112328,513.139009 l 0.000000,-57.854934 M 1013.112328,519.519288 l 0.000000,5.378326 M 1013.112328,649.908929 l 0.000000,-63.423470 M 1013.112328,670.737152 l 0.000000,9.750928 M 1020.112328,414.540680 l 0.000000,-10.721223 M 1020.112328,418.831303 l 0.000000,8.078690 M 1020.112328,443.195636 l 0.000000,-7.752537 M 1020.112328,450.405301 l 0.000000,61.847707 M 1020.112328,523.932522 l 0.000000,-5.658790 M 1020.112328,576.015780 l 0.000000,37.643451 M 1020.112328,642.206139 l 0.000000,-27.721703 M 1027.112328,402.024694 l 0.000000,3.692633 M 1027.112328,429.808696 l 0.000000,-15.981488 M 1027.112328,430.912977 l 0.000000,7.814087 M 1027.112328,469.548772 l 0.000000,-26.114477 M 1027.112328,476.273925 l 0.000000,35.001603 M 1027.112328,522.632703 l 0.000000,-9.238132 M 1027.112328,587.952476 l 0.000000,24.031709 M 1027.112328,634.293553 l 0.000000,-19.291344 M 1027.112328,645.969022 l 0.000000,13.259466 M 1034.112328,401.649921 l 0.000000,-1.321677 M 1034.112328,409.483373 l 0.000000,36.452899 M 1034.112328,521.048205 l 0.000000,-54.308053 M 1034.112328,593.718143 l 0.000000,16.923076 M 1034.112328,659.126307 l 0.000000,-45.382316 M 1034.112328,672.248971 l 0.000000,5.619225 M 1041.112328,440.878084 l 0.000000,-35.938761 M 1041.112328,445.177757 l 0.000000,6.685030 M 1041.112328,526.118815 l 0.000000,-64.677021 M 1041.112328,581.236388 l 0.000000,5.802578 M 1041.112328,593.331916 l 0.000000,-3.094913 M 1041.112328,599.216498 l 0.000000,57.760176 M 1048.112328,435.847569 l 0.000000,-34.125182 M 1048.112328,438.559745 l 0.000000,7.559082 M 1048.112328,463.137759 l 0.000000,-8.761575 M 1048.112328,469.537024 l 0.000000,15.235952 M 1048.112328,531.462017 l 0.000000,-45.186768 M 1048.112328,544.421629 l 0.000000,59.167592 M 1048.112328,642.782657 l 0.000000,-36.143837 M 1048.112328,645.166110 l 0.000000,9.470650 M 1055.112328,414.531949 l 0.000000,-14.892452 M 1055.112328,414.638912 l 0.000000,115.950753 M 1055.112328,541.403446 l 0.000000,-4.737700 M 1055.112328,551.944951 l 0.000000,48.606996 M 1055.112328,640.364191 l 0.000000,-36.884639 M 1055.112328,648.126196 l 0.000000,4.024256 M 1062.112328,527.040063 l 0.000000,-125.671462 M 1062.112328,548.461724 l 0.000000,90.783989 M 1069.112328,409.336828 l 0.000000,-10.373470 M 1069.112328,412.435875 l 0.000000,112.005454 M 1069.112328,639.092929 l 0.000000,-93.515310 M 1076.112328,396.480376 l 0.000000,63.861586 M 1076.112328,522.280918 l 0.000000,-59.992270 M 1076.112328,543.391295 l 0.000000,3.868173 M 1076.112328,639.171521 l 0.000000,-86.317781 M 1083.112328,393.613154 l 0.000000,6.544539 M 1083.112328,520.020509 l 0.000000,-115.288872 M 1083.112328,552.678805 l 0.000000,3.442501 M 1083.112328,640.552394 l 0.000000,-79.447105 M 1090.112328,389.412455 l 0.000000,7.526344 M 1090.112328,411.850023 l 0.000000,-9.698107 M 1090.112328,415.697236 l 0.000000,102.195651 M 1090.112328,551.786186 l 0.000000,-0.925756 M 1090.112328,557.130165 l 0.000000,85.636594 M 1097.112328,401.848835 l 0.000000,-14.715849 M 1097.112328,409.343272 l 0.000000,107.147793 M 1097.112328,639.271253 l 0.000000,-86.576995 M 1104.112328,389.789620 l 0.000000,125.887092 M 1104.112328,573.429839 l 0.000000,-19.936401 M 1104.112328,573.622200 l 0.000000,67.609641 M 1111.112328,514.543978 l 0.000000,-126.089645 M 1111.112328,548.913540 l 0.000000,21.410736 M 1111.112328,585.540950 l 0.000000,-14.250573 M 1111.112328,588.770483 l 0.000000,10.379161 M 1111.112328,640.322080 l 0.000000,-39.608844 M 1118.112328,372.611802 l 0.000000,5.264089 M 1118.112328,513.247577 l 0.000000,-125.968143 M 1118.112328,543.561390 l 0.000000,37.392940 M 1118.112328,597.491628 l 0.000000,-13.569489 M 1118.112328,598.672746 l 0.000000,38.490918 M 1125.112328,511.699338 l 0.000000,-124.677548 M 1125.112328,538.610247 l 0.000000,8.891945 M 1125.112328,562.256866 l 0.000000,-9.241903 M 1125.112328,565.340919 l 0.000000,12.072669 M 1125.112328,594.177852 l 0.000000,-13.597559 M 1125.112328,597.648955 l 0.000000,22.803428 M 1125.112328,637.291231 l 0.000000,-12.146327 M 1132.112328,383.281714 l 0.000000,127.819644 M 1132.112328,545.291368 l 0.000000,-7.977133 M 1132.112328,550.311360 l 0.000000,2.432060 M 1132.112328,564.132253 l 0.000000,-8.400282 M 1132.112328,566.749213 l 0.000000,7.017696 M 1132.112328,582.462192 l 0.000000,-5.047300 M 1132.112328,583.136892 l 0.000000,8.013703 M 1132.112328,603.067292 l 0.000000,-8.778115 M 1132.112328,604.578213 l 0.000000,14.947236 M 1132.112328,638.249851 l 0.000000,-10.780671 M 1139.112328,384.634502 l 0.000000,115.404733 M 1139.112328,506.304082 l 0.000000,-5.538885 M 1139.112328,531.086795 l 0.000000,5.674011 M 1139.112328,553.430228 l 0.000000,-4.532229 M 1139.112328,555.388956 l 0.000000,4.663539 M 1139.112328,587.864817 l 0.000000,-24.524393 M 1139.112328,589.872352 l 0.000000,26.819745 M 1139.112328,636.209501 l 0.000000,-6.576077 M 1146.112328,382.424685 l 0.000000,115.880335 M 1146.112328,502.597598 l 0.000000,-3.614719 M 1146.112328,545.814886 l 0.000000,6.824087 M 1146.112328,571.735893 l 0.000000,-17.082755 M 1146.112328,574.147433 l 0.000000,2.967422 M 1146.112328,613.202175 l 0.000000,-34.858318 M 1146.112328,631.173990 l 0.000000,4.471078 M 1153.112328,481.330563 l 0.000000,-95.880851 M 1153.112328,483.599560 l 0.000000,7.448271 M 1153.112328,499.123700 l 0.000000,-2.468400 M 1153.112328,540.802284 l 0.000000,2.461699 M 1153.112328,564.845907 l 0.000000,-20.248661 M 1153.112328,568.313029 l 0.000000,4.725993 M 1153.112328,593.242401 l 0.000000,-17.417159 M 1153.112328,594.407474 l 0.000000,17.363419 M 1153.112328,633.891703 l 0.000000,-1.399361 M 1160.112328,357.597442 l 0.000000,3.155578 M 1160.112328,380.083796 l 0.000000,-1.534513 M 1160.112328,392.560663 l 0.000000,89.691841 M 1160.112328,527.348324 l 0.000000,-1.779933 M 1160.112328,540.827858 l 0.000000,27.762056 M 1160.112328,596.017167 l 0.000000,-23.379683 M 1160.112328,596.503056 l 0.000000,14.890278 M 1167.112328,358.242779 l 0.000000,-3.134711 M 1167.112328,376.161481 l 0.000000,4.070558 M 1167.112328,482.948346 l 0.000000,-99.553209 M 1167.112328,504.146584 l 0.000000,3.285138 M 1167.112328,525.413502 l 0.000000,-0.240530 M 1167.112328,535.653947 l 0.000000,22.829754 M 1167.112328,570.718686 l 0.000000,-6.481694 M 1167.112328,574.703091 l 0.000000,17.389556 M 1167.112328,611.244477 l 0.000000,-15.884778 M 1174.112328,355.859794 l 0.000000,6.115692 M 1174.112328,384.593517 l 0.000000,-3.988786 M 1174.112328,387.575331 l 0.000000,14.927374 M 1174.112328,483.056653 l 0.000000,-75.482258 M 1174.112328,517.604093 l 0.000000,3.043436 M 1174.112328,568.160529 l 0.000000,-37.592566 M 1174.112328,570.815007 l 0.000000,13.731841 M 1174.112328,591.110465 l 0.000000,-4.863342 M 1174.112328,593.896721 l 0.000000,15.631344 M 1181.112328,348.716387 l 0.000000,-2.445667 M 1181.112328,355.626737 l 0.000000,6.132605 M 1181.112328,392.465511 l 0.000000,-6.880266 M 1181.112328,393.009065 l 0.000000,88.403799 M 1181.112328,539.281247 l 0.000000,-10.976849 M 1181.112328,544.003417 l 0.000000,4.075667 M 1181.112328,563.351460 l 0.000000,-9.712355 M 1181.112328,567.196395 l 0.000000,14.723521 M 1181.112328,589.806571 l 0.000000,-5.558255 M 1181.112328,592.708849 l 0.000000,14.832597 M 1188.112328,361.032676 l 0.000000,-6.197387 M 1188.112328,371.262720 l 0.000000,4.702411 M 1188.112328,481.819755 l 0.000000,-97.889106 M 1188.112328,536.949141 l 0.000000,32.251213 M 1188.112328,588.344827 l 0.000000,-17.327796 M 1188.112328,589.906452 l 0.000000,15.160634 M 1195.112328,359.492745 l 0.000000,-5.591868 M 1195.112328,368.335197 l 0.000000,3.279481 M 1195.112328,384.615396 l 0.000000,-2.434405 M 1195.112328,387.336608 l 0.000000,8.721810 M 1195.112328,482.908087 l 0.000000,-82.106608 M 1195.112328,529.845040 l 0.000000,18.997482 M 1195.112328,559.086674 l 0.000000,-9.062893 M 1195.112328,560.045418 l 0.000000,4.889829 M 1195.112328,580.870091 l 0.000000,-12.553275 M 1195.112328,582.801377 l 0.000000,18.462619 M 1202.112328,344.835438 l 0.000000,-6.162415 M 1202.112328,353.252917 l 0.000000,3.670105 M 1202.112328,374.147644 l 0.000000,-1.945848 M 1202.112328,379.976610 l 0.000000,104.075202 M 1202.112328,543.891061 l 0.000000,-16.717094 M 1202.112328,546.445361 l 0.000000,8.613748 M 1202.112328,596.273816 l 0.000000,-35.840949 M 1202.112328,599.034690 l 0.000000,2.901344 M 1209.112328,349.053293 l 0.000000,-13.034397 M 1209.112328,383.861845 l 0.000000,101.323880 M 1209.112328,535.322981 l 0.000000,-6.236320 M 1209.112328,547.435043 l 0.000000,4.191042 M 1209.112328,565.167180 l 0.000000,-4.060732 M 1209.112328,570.743588 l 0.000000,7.465408 M 1209.112328,594.748843 l 0.000000,-15.488521 M 1216.112328,334.791498 l 0.000000,16.084623 M 1216.112328,389.895175 l 0.000000,-3.127263 M 1216.112328,393.970261 l 0.000000,92.349376 M 1216.112328,523.930161 l 0.000000,-2.715737 M 1216.112328,526.088651 l 0.000000,12.071296 M 1216.112328,546.873695 l 0.000000,-0.652522 M 1216.112328,572.043960 l 0.000000,6.515003 M 1216.112328,585.489158 l 0.000000,-4.598229 M 1223.112328,334.716054 l 0.000000,12.249486 M 1223.112328,383.384635 l 0.000000,-4.292451 M 1223.112328,386.806387 l 0.000000,2.791783 M 1223.112328,487.453549 l 0.000000,-93.690919 M 1223.112328,522.941120 l 0.000000,11.232278 M 1223.112328,547.831131 l 0.000000,-2.712546 M 1223.112328,570.779402 l 0.000000,14.866441 M 1223.112328,595.893437 l 0.000000,-2.423291 M 1230.112328,333.330627 l 0.000000,10.279943 M 1230.112328,380.561805 l 0.000000,-6.513626 M 1230.112328,389.948765 l 0.000000,82.619067 M 1230.112328,488.828030 l 0.000000,-14.401423 M 1230.112328,518.775022 l 0.000000,5.186807 M 1230.112328,536.649774 l 0.000000,-4.543392 M 1230.112328,543.286288 l 0.000000,0.545841 M 1230.112328,557.386425 l 0.000000,-9.531019 M 1230.112328,566.223970 l 0.000000,20.527514 M 1237.112328,339.134882 l 0.000000,-5.757948 M 1237.112328,363.537005 l 0.000000,12.488792 M 1237.112328,386.448007 l 0.000000,-5.156927 M 1237.112328,393.177127 l 0.000000,97.681497 M 1237.112328,532.568841 l 0.000000,-10.747396 M 1237.112328,534.896711 l 0.000000,1.961876 M 1237.112328,554.595998 l 0.000000,-11.358436 M 1237.112328,564.590895 l 0.000000,22.814918 M 1237.112328,591.485560 l 0.000000,-1.159099 M 1244.112328,344.153653 l 0.000000,9.843706 M 1244.112328,372.688387 l 0.000000,-7.154109 M 1244.112328,378.957952 l 0.000000,7.267137 M 1244.112328,399.863847 l 0.000000,-7.962550 M 1244.112328,406.001656 l 0.000000,87.068442 M 1244.112328,520.050107 l 0.000000,-5.523998 M 1244.112328,527.269139 l 0.000000,8.247822 M 1244.112328,552.091948 l 0.000000,-13.294145 M 1244.112328,565.879335 l 0.000000,6.541323 M 1244.112328,589.048724 l 0.000000,-3.921194 M 1251.112328,339.798278 l 0.000000,15.055163 M 1251.112328,380.155710 l 0.000000,-17.031973 M 1251.112328,389.467428 l 0.000000,7.547560 M 1251.112328,467.773417 l 0.000000,-67.659007 M 1251.112328,468.160670 l 0.000000,25.660512 M 1251.112328,522.583749 l 0.000000,-8.201878 M 1251.112328,531.997326 l 0.000000,3.325649 M 1251.112328,549.838578 l 0.000000,-11.611505 M 1258.112328,340.935044 l 0.000000,42.276508 M 1258.112328,391.732256 l 0.000000,-7.890456 M 1258.112328,396.527217 l 0.000000,69.127691 M 1258.112328,492.441731 l 0.000000,-20.501716 M 1258.112328,511.716193 l 0.000000,10.301872 M 1258.112328,556.959078 l 0.000000,-25.614192 M 1258.112328,578.227398 l 0.000000,2.694866 M 1265.112328,400.297273 l 0.000000,-57.521911 M 1265.112328,406.921529 l 0.000000,55.405831 M 1265.112328,492.944481 l 0.000000,-27.584970 M 1265.112328,514.104687 l 0.000000,8.319983 M 1265.112328,557.422143 l 0.000000,-27.368779 M 1272.112328,351.355113 l 0.000000,36.497426 M 1272.112328,404.276170 l 0.000000,-4.194967 M 1272.112328,408.107278 l 0.000000,75.559943 M 1272.112328,495.235870 l 0.000000,-6.748018 M 1272.112328,499.421034 l 0.000000,9.749321 M 1272.112328,513.994625 l 0.000000,-2.873449 M 1272.112328,518.603070 l 0.000000,4.095319 M 1272.112328,560.168123 l 0.000000,-32.334052 M 1272.112328,563.518847 l 0.000000,3.674625 M 1279.112328,384.972700 l 0.000000,-35.406978 M 1279.112328,388.639571 l 0.000000,2.947149 M 1279.112328,511.543466 l 0.000000,-109.129706 M 1279.112328,526.010620 l 0.000000,15.447662 M 1279.112328,558.333778 l 0.000000,-12.485534 M 1279.112328,560.112005 l 0.000000,2.645214 M 1279.112328,581.197636 l 0.000000,-4.444515 M 1286.112328,347.095375 l 0.000000,45.445185 M 1286.112328,462.411756 l 0.000000,-62.450890 M 1286.112328,463.860112 l 0.000000,47.733776 M 1286.112328,538.108396 l 0.000000,-22.959501 M 1286.112328,543.365614 l 0.000000,17.537743 M 1286.112328,580.147451 l 0.000000,-13.708234 M 1293.112328,354.120035 l 0.000000,31.404005 M 1293.112328,456.045756 l 0.000000,-58.401722 M 1293.112328,458.787156 l 0.000000,79.247654 M 1293.112328,550.880963 l 0.000000,-11.976309 M 1293.112328,552.906191 l 0.000000,7.171618 M 1293.112328,579.025403 l 0.000000,-16.166253 M 1300.112328,353.182952 l 0.000000,95.730523 M 1300.112328,541.461053 l 0.000000,-90.058702 M 1300.112328,559.511010 l 0.000000,16.991757 M 1307.112328,528.009670 l 0.000000,-178.577369 M 1307.112328,531.833593 l 0.000000,5.678027 M 1307.112328,546.775118 l 0.000000,-6.578008 M 1307.112328,562.755235 l 0.000000,4.597204 M 1314.112328,342.843884 l 0.000000,-1.130343 M 1314.112328,349.549656 l 0.000000,116.958333 M 1314.112328,524.349718 l 0.000000,-55.890851 M 1314.112328,527.648211 l 0.000000,10.391585 M 1314.112328,547.676188 l 0.000000,-3.998737 M 1314.112328,552.239867 l 0.000000,4.397982 M 1314.112328,563.000613 l 0.000000,-2.926680 M 1321.112328,348.125642 l 0.000000,115.857985 M 1321.112328,522.405400 l 0.000000,-55.256946 M 1321.112328,527.539299 l 0.000000,9.126498 M 1321.112328,545.036382 l 0.000000,-2.048377 M 1321.112328,548.880992 l 0.000000,5.810187 M 1328.112328,459.931377 l 0.000000,-108.298376 M 1328.112328,465.569411 l 0.000000,48.538085 M 1328.112328,519.091195 l 0.000000,-3.198691 M 1328.112328,522.312293 l 0.000000,14.308401 M 1328.112328,541.783402 l 0.000000,-2.100743 M 1328.112328,546.119056 l 0.000000,3.533277 M 1335.112328,332.817895 l 0.000000,-1.010014 M 1335.112328,351.694957 l 0.000000,1.308661 M 1335.112328,417.033220 l 0.000000,-57.430412 M 1335.112328,422.436107 l 0.000000,5.388064 M 1335.112328,438.641986 l 0.000000,-10.589563 M 1335.112328,451.964196 l 0.000000,2.010012 M 1335.112328,505.056188 l 0.000000,-41.044450 M 1335.112328,505.699888 l 0.000000,32.726187 M 1342.112328,333.436915 l 0.000000,-5.316360 M 1342.112328,355.685554 l 0.000000,57.043832 M 1342.112328,420.910633 l 0.000000,-2.642969 M 1342.112328,443.219508 l 0.000000,9.287617 M 1342.112328,465.931985 l 0.000000,-4.690801 M 1342.112328,469.914961 l 0.000000,27.028386 M 1342.112328,530.388009 l 0.000000,-20.994686 M 1342.112328,546.617021 l 0.000000,2.180422 M 1349.112328,332.065457 l 0.000000,-6.563606 M 1349.112328,356.099906 l 0.000000,59.439636 M 1349.112328,450.949142 l 0.000000,-20.015014 M 1349.112328,460.148165 l 0.000000,36.025121 M 1349.112328,498.139142 l 0.000000,-0.355134 M 1349.112328,507.726233 l 0.000000,26.228441 M 1349.112328,541.883066 l 0.000000,-7.769797 M 1356.112328,358.379196 l 0.000000,51.489551 M 1356.112328,448.089137 l 0.000000,-9.543179 M 1356.112328,450.097108 l 0.000000,30.730633 M 1356.112328,495.150091 l 0.000000,-10.788953 M 1356.112328,500.485251 l 0.000000,4.768587 M 1356.112328,538.076889 l 0.000000,-32.289717 M 1363.112328,318.804726 l 0.000000,5.031502 M 1363.112328,399.904751 l 0.000000,-38.607602 M 1363.112328,440.652744 l 0.000000,11.633579 M 1363.112328,469.936029 l 0.000000,-2.690287 M 1363.112328,478.317921 l 0.000000,22.750749 M 1363.112328,516.023360 l 0.000000,-12.430983 M 1363.112328,517.976640 l 0.000000,4.387369 M 1363.112328,534.001421 l 0.000000,-7.239201 M 1370.112328,312.914820 l 0.000000,5.397847 M 1370.112328,384.392733 l 0.000000,-29.348692 M 1370.112328,426.265091 l 0.000000,14.765961 M 1370.112328,456.989494 l 0.000000,-12.107668 M 1370.112328,457.128079 l 0.000000,6.777488 M 1370.112328,494.021009 l 0.000000,-22.123228 M 1370.112328,495.810759 l 0.000000,22.339336 M 1370.112328,530.301692 l 0.000000,-3.036442 M 1377.112328,310.654622 l 0.000000,3.589054 M 1377.112328,331.246353 l 0.000000,-10.172194 M 1377.112328,356.599224 l 0.000000,16.835223 M 1377.112328,377.574864 l 0.000000,-0.925423 M 1377.112328,440.436172 l 0.000000,5.377781 M 1377.112328,485.588418 l 0.000000,-14.956637 M 1377.112328,486.988302 l 0.000000,5.252010 M 1377.112328,519.074426 l 0.000000,-25.315101 M 1384.112328,170.641240 l 0.000000,2.117800 M 1384.112328,341.905507 l 0.000000,-10.111640 M 1384.112328,355.959027 l 0.000000,8.018515 M 1384.112328,449.320123 l 0.000000,-0.899522 M 1384.112328,457.867756 l 0.000000,2.842136 M 1384.112328,487.526329 l 0.000000,-8.098235 M 1384.112328,491.616174 l 0.000000,23.445981 M 1391.112328,315.535024 l 0.000000,-7.726818 M 1391.112328,335.416732 l 0.000000,21.737061 M 1391.112328,437.205035 l 0.000000,-4.572832 M 1391.112328,453.351311 l 0.000000,1.284026 M 1391.112328,472.538432 l 0.000000,-3.800655 M 1391.112328,479.346988 l 0.000000,3.067150 M 1391.112328,508.862989 l 0.000000,-0.400103 M 1398.112328,224.498919 l 0.000000,2.493784 M 1398.112328,279.694431 l 0.000000,-47.068986 M 1398.112328,446.880994 l 0.000000,14.733378 M 1398.112328,470.310805 l 0.000000,-2.574431 M 1405.112328,179.393834 l 0.000000,9.455055 M 1405.112328,226.775480 l 0.000000,-10.766064 M 1405.112328,228.815823 l 0.000000,51.541805 M 1405.112328,292.780009 l 0.000000,-1.070218 M 1405.112328,300.329037 l 0.000000,31.083815 M 1405.112328,502.223570 l 0.000000,-4.190560 M 1412.112328,166.279327 l 0.000000,0.440151 M 1412.112328,186.262392 l 0.000000,-6.198574 M 1412.112328,206.654983 l 0.000000,66.211085 M 1412.112328,294.861756 l 0.000000,-16.473799 M 1412.112328,295.445722 l 0.000000,9.252789 M 1412.112328,326.680728 l 0.000000,-13.728322 M 1412.112328,461.694175 l 0.000000,4.431921 M 1419.112328,167.404856 l 0.000000,-4.165847 M 1419.112328,168.771096 l 0.000000,7.491285 M 1419.112328,199.404619 l 0.000000,-4.102171 M 1419.112328,202.081670 l 0.000000,74.965050 M 1419.112328,306.665909 l 0.000000,-27.712630 M 1426.112328,160.699277 l 0.000000,33.408269 M 1426.112328,251.035518 l 0.000000,-55.097268 M 1426.112328,252.777942 l 0.000000,59.737794 M 1433.112328,255.977357 l 0.000000,-92.485861 M 1433.112328,257.632869 l 0.000000,59.372473 M 1433.112328,328.476377 l 0.000000,-0.818676 M 1440.112328,163.885619 l 0.000000,70.717134 M 1440.112328,251.264480 l 0.000000,-12.040816 M 1440.112328,253.546351 l 0.000000,63.456154 M 1447.112328,172.127687 l 0.000000,-3.436596 M 1447.112328,176.081105 l 0.000000,26.492866 M 1447.112328,236.164640 l 0.000000,-30.383971 M 1447.112328,238.429530 l 0.000000,83.290276 M 1447.112328,327.654730 l 0.000000,-3.379669 M 1454.112328,178.836969 l 0.000000,10.828725 M 1454.112328,213.604731 l 0.000000,-7.162238 M 1454.112328,214.094078 l 0.000000,10.333232 M 1454.112328,326.104354 l 0.000000,-98.444994 M 1461.112328,182.578820 l 0.000000,0.123178 M 1461.112328,204.218478 l 0.000000,-1.959038 M 1461.112328,217.805326 l 0.000000,90.378560 M 1468.112328,223.461385 l 0.000000,-9.726079 M 1468.112328,229.355071 l 0.000000,63.301248 M 1475.112328,269.182556 l 0.000000,-60.627740 M 1482.112328,178.951564 l 0.000000,0.976640 M 1482.112328,265.276522 l 0.000000,-60.449756 M 1489.112328,174.567370 l 0.000000,0.815396 M 1489.112328,242.266145 l 0.000000,-40.764384 M 1496.112328,198.681359 l 0.000000,24.123945 M 1503.112328,204.333713 l 0.000000,-7.667174"
       id="path8" />
  </g>
  <g
     inkscape:label="fill-4e4e4e"
     inkscape:groupmode="layer"
     id="fill-4e4e4e">
    <path
       style="stroke:#4e4e4e"
       d="M 808.557317,477.484848 l 0.000000,2.166602 M 808.557317,514.632238 l 0.000000,-29.117708 M 817.557317,472.588162 l 0.000000,72.021826 M 826.557317,574.263863 l 0.000000,-102.692812 M 835.557317,472.039130 l 0.000000,137.003461 M 844.557317,621.508798 l 0.000000,-155.918349 M 853.557317,462.377441 l 0.000000,103.911198 M 862.557317,622.227241 l 0.000000,-162.219100 M 871.557317,458.017366 l 0.000000,162.936874 M 880.557317,610.145908 l 0.000000,-153.687497 M 880.557317,610.715055 l 0.000000,7.506133 M 889.557317,605.975748 l 0.000000,-148.611811 M 889.557317,608.367549 l 0.000000,9.424113 M 898.557317,458.382339 l 0.000000,-3.614963 M 898.557317,461.617661 l 0.000000,156.679853 M 907.557317,619.286121 l 0.000000,-168.131590 M 916.557317,443.718798 l 0.000000,183.699848 M 925.557317,552.842340 l 0.000000,-115.350991 M 925.557317,556.044755 l 0.000000,5.431203 M 925.557317,587.213118 l 0.000000,-15.282823 M 925.557317,588.000000 l 0.000000,17.474690 M 925.557317,631.755963 l 0.000000,-24.919821 M 934.557317,433.092945 l 0.000000,118.488563 M 934.557317,565.400809 l 0.000000,-1.774574 M 934.557317,592.474078 l 0.000000,6.227680 M 934.557317,604.617822 l 0.000000,-3.475305 M 934.557317,609.910278 l 0.000000,10.895212 M 934.557317,626.212390 l 0.000000,-2.448215 M 934.557317,627.490697 l 0.000000,7.087343 M 943.557317,547.818051 l 0.000000,-114.541916 M 943.557317,605.857266 l 0.000000,9.368542 M 943.557317,629.591373 l 0.000000,-2.640227 M 943.557317,632.090245 l 0.000000,7.476528 M 952.557317,435.477526 l 0.000000,-8.770060 M 952.557317,436.077792 l 0.000000,107.269622 M 952.557317,649.322182 l 0.000000,-12.344511 M 961.557317,406.181928 l 0.000000,2.770738 M 961.557317,452.395059 l 0.000000,-31.407757 M 961.557317,460.929566 l 0.000000,2.949025 M 961.557317,537.028875 l 0.000000,-70.063528 M 961.557317,636.510197 l 0.000000,3.957444 M 970.557317,406.355620 l 0.000000,-4.863878 M 970.557317,415.837794 l 0.000000,33.089724 M 970.557317,534.091227 l 0.000000,-80.676207 M 970.557317,639.246084 l 0.000000,9.634045 M 979.557317,403.108286 l 0.000000,-5.690328 M 979.557317,413.784955 l 0.000000,40.502112 M 979.557317,532.207561 l 0.000000,-73.730477 M 979.557317,584.109764 l 0.000000,0.505857 M 979.557317,657.205781 l 0.000000,-30.554605 M 988.557317,395.330409 l 0.000000,4.178375 M 988.557317,458.259123 l 0.000000,-44.742131 M 988.557317,466.315340 l 0.000000,63.847857 M 988.557317,669.666139 l 0.000000,-52.891912 M 997.557317,408.223407 l 0.000000,41.457994 M 997.557317,528.861270 l 0.000000,-66.769948 M 997.557317,530.117065 l 0.000000,1.828675 M 997.557317,566.820765 l 0.000000,-0.885487 M 997.557317,585.511741 l 0.000000,1.845332 M 997.557317,673.808857 l 0.000000,-73.136188 M 1006.557317,404.075267 l 0.000000,39.613392 M 1006.557317,528.178752 l 0.000000,-76.549359 M 1006.557317,564.492835 l 0.000000,9.174166 M 1006.557317,595.616465 l 0.000000,-4.467544 M 1006.557317,604.231955 l 0.000000,80.204153 M 1015.557317,437.593865 l 0.000000,-36.524511 M 1015.557317,440.065138 l 0.000000,85.294686 M 1015.557317,563.059370 l 0.000000,-1.855852 M 1015.557317,576.835879 l 0.000000,77.660484 M 1015.557317,692.226471 l 0.000000,-26.123636 M 1024.557317,396.086841 l 0.000000,14.991454 M 1024.557317,524.514916 l 0.000000,-110.339950 M 1024.557317,554.364145 l 0.000000,6.246462 M 1024.557317,640.180844 l 0.000000,-60.882558 M 1024.557317,640.582382 l 0.000000,22.946502 M 1024.557317,687.144220 l 0.000000,-5.909491 M 1024.557317,693.398544 l 0.000000,2.261767 M 1033.557317,404.247896 l 0.000000,-10.181641 M 1033.557317,407.282617 l 0.000000,40.629089 M 1033.557317,522.203332 l 0.000000,-57.952824 M 1033.557317,546.456902 l 0.000000,2.143176 M 1033.557317,572.726368 l 0.000000,-17.413597 M 1033.557317,580.294765 l 0.000000,7.354084 M 1033.557317,660.792824 l 0.000000,-70.470909 M 1033.557317,669.130782 l 0.000000,12.435781 M 1033.557317,691.619227 l 0.000000,-3.182989 M 1042.557317,391.306522 l 0.000000,61.104149 M 1042.557317,527.577558 l 0.000000,-68.637295 M 1042.557317,551.448841 l 0.000000,108.912173 M 1051.557317,460.084049 l 0.000000,-61.992359 M 1051.557317,462.508477 l 0.000000,179.782791 M 1051.557317,656.664982 l 0.000000,-11.055743 M 1051.557317,704.551315 l 0.000000,1.038863 M 1060.557317,388.091667 l 0.000000,-1.904238 M 1060.557317,395.545783 l 0.000000,133.379613 M 1060.557317,540.099266 l 0.000000,-6.998616 M 1060.557317,541.386279 l 0.000000,99.395380 M 1060.557317,652.886069 l 0.000000,-4.579777 M 1069.557317,392.613973 l 0.000000,132.723360 M 1069.557317,640.461943 l 0.000000,-96.638857 M 1069.557317,651.204184 l 0.000000,1.645244 M 1078.557317,522.249252 l 0.000000,-129.195000 M 1078.557317,542.483643 l 0.000000,4.488345 M 1078.557317,640.886777 l 0.000000,-89.754232 M 1087.557317,374.663015 l 0.000000,2.860023 M 1087.557317,519.445996 l 0.000000,-130.158424 M 1087.557317,549.255683 l 0.000000,5.697388 M 1087.557317,642.889962 l 0.000000,-86.121234 M 1087.557317,732.217491 l 0.000000,0.704148 M 1096.557317,517.576540 l 0.000000,-131.624580 M 1096.557317,551.691926 l 0.000000,90.085330 M 1105.557317,516.420694 l 0.000000,-137.163989 M 1105.557317,550.055235 l 0.000000,92.299141 M 1114.557317,359.821389 l 0.000000,-3.444430 M 1114.557317,372.569520 l 0.000000,8.721453 M 1114.557317,514.556571 l 0.000000,-131.993966 M 1114.557317,543.857043 l 0.000000,95.543468 M 1123.557317,378.943062 l 0.000000,-7.755476 M 1123.557317,381.818104 l 0.000000,131.557336 M 1123.557317,637.454897 l 0.000000,-99.191645 M 1132.557317,373.788440 l 0.000000,138.911280 M 1132.557317,639.457001 l 0.000000,-108.889883 M 1141.557317,375.344572 l 0.000000,136.704099 M 1141.557317,526.480759 l 0.000000,-5.877353 M 1141.557317,527.755227 l 0.000000,109.216929 M 1150.557317,357.708511 l 0.000000,-1.330582 M 1150.557317,364.927489 l 0.000000,3.225499 M 1150.557317,502.786362 l 0.000000,-129.565343 M 1150.557317,512.867561 l 0.000000,14.533848 M 1150.557317,620.559605 l 0.000000,-88.673717 M 1150.557317,628.216639 l 0.000000,7.149813 M 1159.557317,365.536543 l 0.000000,-12.311579 M 1159.557317,377.073056 l 0.000000,10.396497 M 1159.557317,490.840735 l 0.000000,-101.225994 M 1159.557317,493.595822 l 0.000000,4.515179 M 1159.557317,511.621263 l 0.000000,-6.468422 M 1159.557317,517.273897 l 0.000000,1.695530 M 1159.557317,616.644471 l 0.000000,-92.314557 M 1159.557317,629.529041 l 0.000000,3.068727 M 1168.557317,369.281010 l 0.000000,-16.090778 M 1168.557317,374.286341 l 0.000000,110.075567 M 1168.557317,498.722907 l 0.000000,-0.984017 M 1168.557317,503.056055 l 0.000000,4.994872 M 1168.557317,614.707596 l 0.000000,-96.348023 M 1177.557317,340.322570 l 0.000000,10.025968 M 1177.557317,367.187090 l 0.000000,-13.860767 M 1177.557317,370.139715 l 0.000000,113.763400 M 1177.557317,522.765079 l 0.000000,-8.486795 M 1177.557317,527.261063 l 0.000000,83.712309 M 1186.557317,364.773757 l 0.000000,-21.142717 M 1186.557317,367.932060 l 0.000000,10.705967 M 1186.557317,483.400679 l 0.000000,-101.691674 M 1186.557317,514.083571 l 0.000000,1.810580 M 1186.557317,610.867843 l 0.000000,-87.235349 M 1186.557317,614.855009 l 0.000000,4.095332 M 1195.557317,341.206510 l 0.000000,-4.750203 M 1195.557317,342.443619 l 0.000000,22.288417 M 1195.557317,483.804730 l 0.000000,-118.100300 M 1195.557317,526.000754 l 0.000000,82.120559 M 1204.557317,360.368497 l 0.000000,-26.510516 M 1204.557317,362.801094 l 0.000000,122.407328 M 1204.557317,610.445822 l 0.000000,-86.408830 M 1213.557317,323.460075 l 0.000000,1.942829 M 1213.557317,359.925769 l 0.000000,-27.526958 M 1213.557317,368.625151 l 0.000000,118.134367 M 1213.557317,609.454780 l 0.000000,-90.154419 M 1222.557317,329.357109 l 0.000000,20.083625 M 1222.557317,361.339153 l 0.000000,-6.351192 M 1222.557317,372.701670 l 0.000000,115.729405 M 1222.557317,602.020954 l 0.000000,-83.529222 M 1231.557317,329.166769 l 0.000000,16.038065 M 1231.557317,358.476287 l 0.000000,-6.820412 M 1231.557317,359.660904 l 0.000000,130.811315 M 1231.557317,524.842919 l 0.000000,-9.507131 M 1231.557317,526.797570 l 0.000000,76.053950 M 1240.557317,339.790803 l 0.000000,-11.929551 M 1240.557317,345.321702 l 0.000000,30.021448 M 1240.557317,492.980611 l 0.000000,-113.268614 M 1240.557317,516.066771 l 0.000000,85.586384 M 1249.557317,333.905482 l 0.000000,-6.193696 M 1249.557317,338.540196 l 0.000000,157.620979 M 1249.557317,595.174428 l 0.000000,-86.065799 M 1258.557317,333.382587 l 0.000000,165.636164 M 1258.557317,590.613528 l 0.000000,-86.477231 M 1258.557317,592.451680 l 0.000000,5.937231 M 1267.557317,600.079922 l 0.000000,-259.662592 M 1276.557317,330.211219 l 0.000000,66.395146 M 1276.557317,595.168580 l 0.000000,-196.332429 M 1285.557317,324.433470 l 0.000000,266.618885 M 1294.557317,347.600595 l 0.000000,-18.327692 M 1294.557317,350.890474 l 0.000000,36.538235 M 1294.557317,585.431425 l 0.000000,-193.809241 M 1303.557317,322.653392 l 0.000000,3.667417 M 1303.557317,339.369487 l 0.000000,-7.963815 M 1303.557317,342.903562 l 0.000000,4.640291 M 1303.557317,579.997568 l 0.000000,-231.303020 M 1312.557317,322.396568 l 0.000000,4.390445 M 1312.557317,566.436023 l 0.000000,-227.928075 M 1312.557317,567.774996 l 0.000000,8.174869 M 1321.557317,326.512847 l 0.000000,-4.247654 M 1321.557317,344.592861 l 0.000000,223.788317 M 1330.557317,326.103902 l 0.000000,-3.928423 M 1330.557317,329.018006 l 0.000000,8.249032 M 1330.557317,563.186936 l 0.000000,-214.778395 M 1330.557317,563.375602 l 0.000000,5.056111 M 1339.557317,340.581742 l 0.000000,-23.142897 M 1339.557317,346.509413 l 0.000000,69.808167 M 1339.557317,560.180737 l 0.000000,-143.386128 M 1339.557317,563.401042 l 0.000000,1.353472 M 1348.557317,342.522330 l 0.000000,-26.273086 M 1348.557317,352.462097 l 0.000000,206.428964 M 1357.557317,340.350574 l 0.000000,-22.028877 M 1357.557317,355.958632 l 0.000000,194.754773 M 1366.557317,322.556507 l 0.000000,-7.662793 M 1366.557317,329.838690 l 0.000000,8.849290 M 1366.557317,350.974342 l 0.000000,-3.905571 M 1366.557317,353.516243 l 0.000000,44.331682 M 1366.557317,405.727266 l 0.000000,-7.518928 M 1366.557317,412.681299 l 0.000000,124.392627 M 1366.557317,545.002123 l 0.000000,-4.728443 M 1375.557317,308.478138 l 0.000000,8.761980 M 1375.557317,339.518735 l 0.000000,-19.918462 M 1375.557317,355.835448 l 0.000000,25.659337 M 1375.557317,389.780393 l 0.000000,-2.933341 M 1375.557317,404.267153 l 0.000000,132.205647 M 1384.557317,176.588727 l 0.000000,-7.660898 M 1384.557317,187.358864 l 0.000000,3.704584 M 1384.557317,236.112292 l 0.000000,-1.454418 M 1384.557317,293.225073 l 0.000000,3.972869 M 1384.557317,320.014391 l 0.000000,-12.219679 M 1384.557317,330.590380 l 0.000000,19.101595 M 1384.557317,365.714392 l 0.000000,-12.002918 M 1384.557317,368.493603 l 0.000000,0.920096 M 1384.557317,415.803211 l 0.000000,-4.941156 M 1384.557317,421.097517 l 0.000000,7.498207 M 1384.557317,475.984264 l 0.000000,-39.283871 M 1384.557317,477.556714 l 0.000000,50.876314 M 1393.557317,169.815405 l 0.000000,-3.782226 M 1393.557317,216.200203 l 0.000000,5.235843 M 1393.557317,242.391466 l 0.000000,-12.244406 M 1393.557317,243.772047 l 0.000000,9.227963 M 1393.557317,281.607872 l 0.000000,-26.028852 M 1393.557317,285.425845 l 0.000000,6.284014 M 1393.557317,319.050803 l 0.000000,-21.772552 M 1393.557317,332.672974 l 0.000000,6.973826 M 1393.557317,369.698111 l 0.000000,-28.741336 M 1393.557317,391.928519 l 0.000000,8.477904 M 1393.557317,411.175317 l 0.000000,-7.081824 M 1393.557317,429.275469 l 0.000000,7.774311 M 1393.557317,474.105320 l 0.000000,-34.607915 M 1393.557317,476.693102 l 0.000000,12.878828 M 1393.557317,508.971604 l 0.000000,-10.996976 M 1402.557317,178.269570 l 0.000000,11.295630 M 1402.557317,334.754157 l 0.000000,-121.570209 M 1402.557317,354.042274 l 0.000000,8.597252 M 1402.557317,410.769414 l 0.000000,-10.826306 M 1402.557317,429.146744 l 0.000000,20.601835 M 1402.557317,463.428849 l 0.000000,-5.589155 M 1402.557317,471.460614 l 0.000000,3.588197 M 1402.557317,508.159387 l 0.000000,-18.687339 M 1411.557317,163.838423 l 0.000000,5.002944 M 1411.557317,188.061507 l 0.000000,-9.476919 M 1411.557317,195.012287 l 0.000000,0.440560 M 1411.557317,203.372185 l 0.000000,-1.813392 M 1411.557317,204.347483 l 0.000000,132.758585 M 1411.557317,449.935416 l 0.000000,-2.779147 M 1411.557317,453.408744 l 0.000000,24.537312 M 1420.557317,335.651023 l 0.000000,-177.109073 M 1420.557317,340.910089 l 0.000000,5.385295 M 1420.557317,356.163852 l 0.000000,-6.801544 M 1420.557317,439.038185 l 0.000000,1.459535 M 1429.557317,356.335890 l 0.000000,-195.505994 M 1438.557317,162.686794 l 0.000000,73.741987 M 1438.557317,330.417438 l 0.000000,-93.489762 M 1438.557317,340.622934 l 0.000000,7.405123 M 1447.557317,165.413150 l 0.000000,-2.212985 M 1447.557317,167.480454 l 0.000000,6.221028 M 1447.557317,352.849740 l 0.000000,-177.509365 M 1456.557317,177.960030 l 0.000000,9.951412 M 1456.557317,197.407957 l 0.000000,-3.431560 M 1456.557317,200.214009 l 0.000000,3.029685 M 1456.557317,355.483805 l 0.000000,-149.646233 M 1465.557317,188.202553 l 0.000000,2.895105 M 1465.557317,211.531406 l 0.000000,-10.529899 M 1465.557317,216.631414 l 0.000000,92.022696 M 1474.557317,185.150089 l 0.000000,-2.425575 M 1474.557317,207.231027 l 0.000000,73.416060 M 1483.557317,179.756263 l 0.000000,-2.688585 M 1483.557317,190.085387 l 0.000000,5.777287 M 1483.557317,265.178534 l 0.000000,-62.173707 M 1492.557317,171.529112 l 0.000000,2.867237 M 1492.557317,237.865552 l 0.000000,-39.263108 M 1501.557317,166.414176 l 0.000000,2.560525 M 1501.557317,209.697110 l 0.000000,-14.113688 M 1510.557317,161.885930 l 0.000000,1.330822 M 1510.557317,181.511454 l 0.000000,-2.615207"
       id="path11" />
  </g>
  <g
     inkscape:label="fill-6e6e6e"
     inkscape:groupmode="layer"
     id="fill-6e6e6e">
    <path
       style="stroke:#6e6e6e"
       d="M 806.697126,466.925725 l 0.000000,3.660096 M 806.697126,508.444238 l 0.000000,-35.650473 M 817.697126,465.928914 l 0.000000,80.539697 M 828.697126,582.094912 l 0.000000,-118.455498 M 839.697126,465.942933 l 0.000000,157.679956 M 850.697126,623.288559 l 0.000000,-163.447248 M 861.697126,454.200389 l 0.000000,168.543419 M 872.697126,621.236189 l 0.000000,-171.002299 M 883.697126,431.606933 l 0.000000,3.445538 M 883.697126,619.417042 l 0.000000,-167.235781 M 894.697126,425.934316 l 0.000000,5.801000 M 894.697126,619.645616 l 0.000000,-173.748893 M 905.697126,424.080052 l 0.000000,3.442448 M 905.697126,620.315750 l 0.000000,-177.522858 M 916.697126,436.087149 l 0.000000,3.053228 M 916.697126,628.560275 l 0.000000,-187.752400 M 927.697126,430.036312 l 0.000000,205.004272 M 938.697126,552.433184 l 0.000000,-128.163251 M 938.697126,557.374307 l 0.000000,11.147204 M 938.697126,582.076774 l 0.000000,-2.068582 M 938.697126,585.701276 l 0.000000,56.223853 M 949.697126,546.317250 l 0.000000,-123.982571 M 949.697126,558.695757 l 0.000000,8.053455 M 949.697126,592.281546 l 0.000000,-6.202683 M 949.697126,603.126496 l 0.000000,46.671960 M 960.697126,410.221924 l 0.000000,-4.422137 M 960.697126,419.324686 l 0.000000,120.921205 M 960.697126,609.470898 l 0.000000,-3.066218 M 960.697126,618.690536 l 0.000000,6.088529 M 960.697126,633.125640 l 0.000000,-4.087682 M 960.697126,634.931663 l 0.000000,13.602080 M 971.697126,406.690715 l 0.000000,-6.465508 M 971.697126,413.194097 l 0.000000,122.172355 M 971.697126,596.038696 l 0.000000,-13.738160 M 971.697126,599.316246 l 0.000000,5.004897 M 971.697126,652.986466 l 0.000000,-32.861369 M 982.697126,395.267971 l 0.000000,7.382912 M 982.697126,533.051418 l 0.000000,-123.915941 M 982.697126,568.957255 l 0.000000,3.318462 M 982.697126,586.344765 l 0.000000,-4.724646 M 982.697126,589.143288 l 0.000000,12.317373 M 982.697126,613.604910 l 0.000000,-7.376404 M 982.697126,619.373677 l 0.000000,44.956802 M 993.697126,397.851537 l 0.000000,-3.755494 M 993.697126,404.256424 l 0.000000,55.682116 M 993.697126,532.791000 l 0.000000,-70.100328 M 993.697126,551.797323 l 0.000000,3.490716 M 993.697126,675.902530 l 0.000000,-116.161228 M 1004.697126,399.784215 l 0.000000,131.000356 M 1004.697126,587.359162 l 0.000000,-25.209017 M 1004.697126,590.512176 l 0.000000,95.342986 M 1015.697126,526.274960 l 0.000000,-130.909606 M 1015.697126,552.231779 l 0.000000,141.947247 M 1026.697126,525.683767 l 0.000000,-133.146117 M 1026.697126,543.041425 l 0.000000,146.736993 M 1026.697126,700.527302 l 0.000000,-8.545274 M 1037.697126,390.644645 l 0.000000,137.039364 M 1037.697126,538.279156 l 0.000000,-4.207796 M 1037.697126,542.649303 l 0.000000,4.360540 M 1037.697126,662.174974 l 0.000000,-112.213010 M 1037.697126,682.326487 l 0.000000,2.029910 M 1037.697126,697.671491 l 0.000000,-7.217130 M 1037.697126,702.694772 l 0.000000,4.703609 M 1048.697126,663.817810 l 0.000000,-276.552321 M 1048.697126,699.848507 l 0.000000,4.976906 M 1048.697126,715.690297 l 0.000000,-4.273241 M 1059.697126,382.184635 l 0.000000,259.565266 M 1059.697126,661.134270 l 0.000000,-13.951117 M 1059.697126,708.644071 l 0.000000,6.491152 M 1070.697126,525.952948 l 0.000000,-147.391126 M 1070.697126,535.021777 l 0.000000,4.243197 M 1070.697126,641.764110 l 0.000000,-100.613358 M 1070.697126,649.932079 l 0.000000,4.462070 M 1070.697126,721.837348 l 0.000000,-4.629231 M 1070.697126,728.651380 l 0.000000,2.831325 M 1081.697126,522.452948 l 0.000000,-147.785707 M 1081.697126,540.576106 l 0.000000,102.107147 M 1081.697126,732.149034 l 0.000000,-6.537676 M 1081.697126,738.323947 l 0.000000,1.809698 M 1092.697126,519.343286 l 0.000000,-148.194262 M 1092.697126,545.997290 l 0.000000,98.753518 M 1092.697126,739.630887 l 0.000000,-5.346888 M 1103.697126,359.173212 l 0.000000,2.862636 M 1103.697126,517.712845 l 0.000000,-149.740486 M 1103.697126,546.485895 l 0.000000,96.394674 M 1103.697126,747.804564 l 0.000000,-4.646786 M 1114.697126,354.030207 l 0.000000,8.718932 M 1114.697126,515.366576 l 0.000000,-144.223172 M 1114.697126,540.574358 l 0.000000,101.217808 M 1125.697126,365.381409 l 0.000000,-16.070669 M 1125.697126,367.570898 l 0.000000,146.478616 M 1125.697126,530.501883 l 0.000000,-7.140878 M 1125.697126,532.586478 l 0.000000,107.850156 M 1125.697126,781.500809 l 0.000000,-12.089540 M 1136.697126,341.485479 l 0.000000,7.193602 M 1136.697126,515.493645 l 0.000000,-158.110760 M 1136.697126,519.841653 l 0.000000,119.526735 M 1136.697126,764.642019 l 0.000000,-3.040163 M 1136.697126,768.822715 l 0.000000,4.975453 M 1147.697126,336.642177 l 0.000000,-2.825664 M 1147.697126,339.239611 l 0.000000,4.000420 M 1147.697126,636.865930 l 0.000000,-280.996900 M 1158.697126,335.335237 l 0.000000,0.201309 M 1158.697126,374.992897 l 0.000000,-24.115985 M 1158.697126,376.503043 l 0.000000,258.331929 M 1169.697126,330.960782 l 0.000000,-3.142508 M 1169.697126,341.679424 l 0.000000,167.410612 M 1169.697126,632.061428 l 0.000000,-121.448046 M 1180.697126,319.825186 l 0.000000,8.708623 M 1180.697126,334.426290 l 0.000000,-4.336001 M 1180.697126,337.619338 l 0.000000,148.022970 M 1180.697126,498.995216 l 0.000000,-3.706083 M 1180.697126,500.837684 l 0.000000,4.899338 M 1180.697126,628.123627 l 0.000000,-119.591129 M 1191.697126,323.146059 l 0.000000,4.499189 M 1191.697126,332.593770 l 0.000000,-3.055421 M 1191.697126,335.709863 l 0.000000,148.985809 M 1191.697126,519.333182 l 0.000000,-10.078144 M 1191.697126,520.061572 l 0.000000,103.706528 M 1202.697126,485.889981 l 0.000000,-163.487531 M 1202.697126,507.316737 l 0.000000,2.570651 M 1202.697126,621.856786 l 0.000000,-101.436821 M 1213.697126,321.270654 l 0.000000,166.279002 M 1213.697126,512.779012 l 0.000000,-2.214511 M 1213.697126,518.342875 l 0.000000,99.707764 M 1224.697126,310.733459 l 0.000000,-1.408132 M 1224.697126,320.979887 l 0.000000,168.545147 M 1224.697126,511.594152 l 0.000000,-4.739098 M 1224.697126,515.917135 l 0.000000,99.885341 M 1235.697126,492.387583 l 0.000000,-166.969035 M 1235.697126,511.385219 l 0.000000,99.042389 M 1246.697126,496.259878 l 0.000000,-172.258914 M 1246.697126,508.364142 l 0.000000,99.125064 M 1257.697126,606.445698 l 0.000000,-286.802596 M 1257.697126,609.066081 l 0.000000,0.893812 M 1268.697126,603.293179 l 0.000000,-282.173281 M 1279.697126,314.899668 l 0.000000,284.833781 M 1290.697126,595.545972 l 0.000000,-282.694270 M 1301.697126,314.901367 l 0.000000,274.135633 M 1312.697126,584.585948 l 0.000000,-273.954756 M 1323.697126,311.603859 l 0.000000,267.025018 M 1334.697126,570.544508 l 0.000000,-257.548596 M 1345.697126,312.296394 l 0.000000,251.537751 M 1356.697126,236.712392 l 0.000000,-1.594223 M 1356.697126,314.756765 l 0.000000,31.700047 M 1356.697126,557.484252 l 0.000000,-206.750179 M 1367.697126,191.265973 l 0.000000,4.897512 M 1367.697126,228.688766 l 0.000000,-2.447209 M 1367.697126,284.482543 l 0.000000,0.261989 M 1367.697126,548.907275 l 0.000000,-237.524475 M 1378.697126,171.008544 l 0.000000,7.498356 M 1378.697126,192.976687 l 0.000000,-9.335695 M 1378.697126,238.136053 l 0.000000,6.330064 M 1378.697126,266.998761 l 0.000000,-2.667270 M 1378.697126,270.729928 l 0.000000,9.021043 M 1378.697126,285.123536 l 0.000000,-1.969284 M 1378.697126,286.558725 l 0.000000,251.051482 M 1389.697126,176.531619 l 0.000000,-11.007947 M 1389.697126,194.652852 l 0.000000,1.792605 M 1389.697126,527.319295 l 0.000000,-312.979067 M 1389.697126,533.142160 l 0.000000,1.049139 M 1400.697126,168.864213 l 0.000000,-6.945732 M 1400.697126,176.033754 l 0.000000,19.556949 M 1400.697126,343.639296 l 0.000000,-137.599222 M 1400.697126,344.712398 l 0.000000,32.442662 M 1400.697126,513.635470 l 0.000000,-128.842099 M 1411.697126,157.990110 l 0.000000,13.873989 M 1411.697126,189.680711 l 0.000000,-12.302826 M 1411.697126,192.642241 l 0.000000,4.799030 M 1411.697126,367.317796 l 0.000000,-167.649797 M 1411.697126,381.996977 l 0.000000,38.745457 M 1411.697126,500.484618 l 0.000000,-73.473084 M 1422.697126,157.822036 l 0.000000,206.237263 M 1422.697126,411.801276 l 0.000000,-13.207827 M 1422.697126,432.956415 l 0.000000,38.029176 M 1422.697126,484.392797 l 0.000000,-10.499511 M 1433.697126,159.690875 l 0.000000,207.496932 M 1433.697126,429.260684 l 0.000000,-10.046682 M 1433.697126,435.318934 l 0.000000,3.535472 M 1433.697126,464.931287 l 0.000000,-6.934071 M 1433.697126,479.481781 l 0.000000,1.083258 M 1444.697126,360.141793 l 0.000000,-198.534872 M 1444.697126,415.514784 l 0.000000,14.381368 M 1444.697126,456.701614 l 0.000000,-9.234651 M 1455.697126,169.709133 l 0.000000,4.536733 M 1455.697126,397.110286 l 0.000000,-222.076314 M 1466.697126,161.670804 l 0.000000,1.320153 M 1466.697126,181.587120 l 0.000000,-0.997541 M 1466.697126,184.373363 l 0.000000,7.106129 M 1466.697126,308.353559 l 0.000000,-110.876113 M 1477.697126,179.433463 l 0.000000,4.567942 M 1477.697126,200.094581 l 0.000000,-9.066331 M 1477.697126,202.726135 l 0.000000,72.872876 M 1488.697126,158.143782 l 0.000000,-1.685600 M 1488.697126,172.523138 l 0.000000,4.808639 M 1488.697126,194.001672 l 0.000000,-7.004173 M 1488.697126,198.484489 l 0.000000,51.138886 M 1499.697126,170.817518 l 0.000000,-4.212545 M 1499.697126,181.617425 l 0.000000,33.639338 M 1510.697126,164.265882 l 0.000000,-2.995960 M 1510.697126,173.293192 l 0.000000,16.691550 M 1510.697126,198.498703 l 0.000000,-3.943606 M 1521.697126,166.183934 l 0.000000,10.682838 M 1532.697126,170.362463 l 0.000000,-11.249697"
       id="path14" />
  </g>
  <g
     inkscape:label="fill-8f8f8f"
     inkscape:groupmode="layer"
     id="fill-8f8f8f">
    <path
       style="stroke:#8f8f8f"
       d="M 800.316015,468.695140 l 0.000000,0.910308 M 813.316015,532.233063 l 0.000000,-66.904450 M 826.316015,462.013004 l 0.000000,115.178607 M 839.316015,624.508452 l 0.000000,-171.110896 M 852.316015,450.612192 l 0.000000,173.333189 M 865.316015,623.499985 l 0.000000,-175.221091 M 878.316015,434.287673 l 0.000000,4.178488 M 878.316015,620.073941 l 0.000000,-176.849466 M 891.316015,426.105938 l 0.000000,8.544503 M 891.316015,620.426758 l 0.000000,-180.846752 M 904.316015,422.514482 l 0.000000,7.614488 M 904.316015,620.806899 l 0.000000,-186.119254 M 917.316015,420.995220 l 0.000000,4.120257 M 917.316015,629.685486 l 0.000000,-200.032331 M 930.316015,424.511073 l 0.000000,213.990097 M 943.316015,571.252078 l 0.000000,-151.584142 M 943.316015,575.245108 l 0.000000,1.407417 M 943.316015,645.876653 l 0.000000,-66.252162 M 956.316015,407.179786 l 0.000000,5.005529 M 956.316015,544.394593 l 0.000000,-129.227362 M 956.316015,550.037468 l 0.000000,2.631346 M 956.316015,569.739830 l 0.000000,-12.828445 M 956.316015,578.451727 l 0.000000,72.402058 M 969.316015,408.496887 l 0.000000,-7.672077 M 969.316015,410.812520 l 0.000000,129.754618 M 969.316015,569.632319 l 0.000000,-14.475413 M 969.316015,579.739902 l 0.000000,73.457441 M 982.316015,534.390215 l 0.000000,-139.546536 M 982.316015,546.232663 l 0.000000,120.528083 M 995.316015,399.610236 l 0.000000,-6.565315 M 995.316015,399.632391 l 0.000000,135.799081 M 995.316015,679.588681 l 0.000000,-134.695937 M 1008.316015,396.285206 l 0.000000,134.312994 M 1008.316015,540.262173 l 0.000000,-4.639155 M 1008.316015,541.104159 l 0.000000,150.338652 M 1021.316015,527.588203 l 0.000000,-135.466758 M 1021.316015,529.502524 l 0.000000,2.345189 M 1021.316015,698.746733 l 0.000000,-156.644174 M 1034.316015,388.114549 l 0.000000,297.014547 M 1034.316015,706.626259 l 0.000000,-20.683782 M 1047.316015,384.424226 l 0.000000,280.588040 M 1047.316015,705.226270 l 0.000000,-7.243158 M 1047.316015,706.773730 l 0.000000,13.356609 M 1060.316015,643.517115 l 0.000000,-267.251712 M 1060.316015,646.138626 l 0.000000,16.198374 M 1060.316015,723.672371 l 0.000000,-15.773774 M 1073.316015,366.117307 l 0.000000,277.694235 M 1073.316015,658.566075 l 0.000000,-9.514279 M 1073.316015,717.910732 l 0.000000,20.618957 M 1086.316015,523.025926 l 0.000000,-160.292151 M 1086.316015,537.665993 l 0.000000,107.219095 M 1086.316015,652.820406 l 0.000000,-1.710082 M 1086.316015,728.294451 l 0.000000,20.139032 M 1099.316015,365.057063 l 0.000000,-10.936369 M 1099.316015,366.658122 l 0.000000,154.494952 M 1099.316015,645.243556 l 0.000000,-105.168926 M 1099.316015,737.228971 l 0.000000,9.043316 M 1099.316015,758.110502 l 0.000000,-9.111421 M 1099.316015,793.320874 l 0.000000,4.302895 M 1112.316015,516.772493 l 0.000000,-169.439705 M 1112.316015,538.636782 l 0.000000,106.076381 M 1112.316015,755.193427 l 0.000000,-8.031412 M 1112.316015,760.309247 l 0.000000,3.279598 M 1112.316015,791.281179 l 0.000000,-13.290404 M 1125.316015,342.644691 l 0.000000,173.126293 M 1125.316015,645.997367 l 0.000000,-124.186168 M 1125.316015,754.418739 l 0.000000,5.131004 M 1125.316015,764.095071 l 0.000000,-1.865264 M 1125.316015,765.535383 l 0.000000,20.528547 M 1138.316015,640.092768 l 0.000000,-304.814529 M 1138.316015,761.785036 l 0.000000,17.911394 M 1138.316015,786.208452 l 0.000000,-3.342630 M 1151.316015,330.949791 l 0.000000,307.446825 M 1151.316015,779.449844 l 0.000000,-8.331513 M 1151.316015,784.203027 l 0.000000,3.266755 M 1164.316015,636.597978 l 0.000000,-310.356551 M 1164.316015,777.496011 l 0.000000,2.824797 M 1177.316015,632.838087 l 0.000000,-313.261619 M 1190.316015,312.680957 l 0.000000,0.706889 M 1190.316015,486.838464 l 0.000000,-170.027987 M 1190.316015,492.262250 l 0.000000,6.523452 M 1190.316015,629.020123 l 0.000000,-129.247427 M 1190.316015,798.163923 l 0.000000,2.852267 M 1203.316015,487.490230 l 0.000000,-175.362816 M 1203.316015,497.242438 l 0.000000,127.651144 M 1216.316015,490.221031 l 0.000000,-184.006895 M 1216.316015,493.563160 l 0.000000,5.720345 M 1216.316015,620.483597 l 0.000000,-118.322087 M 1229.316015,304.038232 l 0.000000,190.931386 M 1229.316015,618.129026 l 0.000000,-119.105296 M 1242.316015,300.921058 l 0.000000,194.571521 M 1242.316015,615.429355 l 0.000000,-117.014374 M 1255.316015,305.403633 l 0.000000,306.821106 M 1268.316015,306.165212 l 0.000000,-4.929963 M 1268.316015,308.485842 l 0.000000,300.031299 M 1281.316015,300.235528 l 0.000000,-1.161805 M 1281.316015,305.815465 l 0.000000,297.261850 M 1294.316015,303.500394 l 0.000000,-1.623169 M 1294.316015,305.930967 l 0.000000,291.616657 M 1307.316015,592.552922 l 0.000000,-287.812369 M 1320.316015,307.476276 l 0.000000,278.308965 M 1333.316015,246.371156 l 0.000000,-3.045632 M 1333.316015,308.302958 l 0.000000,270.035026 M 1346.316015,190.788828 l 0.000000,-2.020489 M 1346.316015,193.856898 l 0.000000,4.886925 M 1346.316015,246.998842 l 0.000000,-4.731949 M 1346.316015,254.793324 l 0.000000,3.427835 M 1346.316015,298.239354 l 0.000000,-1.372871 M 1346.316015,308.768650 l 0.000000,257.591058 M 1359.316015,193.218566 l 0.000000,-16.065022 M 1359.316015,215.933058 l 0.000000,1.558703 M 1359.316015,224.995527 l 0.000000,-0.947450 M 1359.316015,230.593584 l 0.000000,6.613466 M 1359.316015,246.514298 l 0.000000,-3.222751 M 1359.316015,259.404018 l 0.000000,1.909514 M 1359.316015,286.740220 l 0.000000,-7.449323 M 1359.316015,288.259780 l 0.000000,270.377755 M 1372.316015,185.123026 l 0.000000,-11.134355 M 1372.316015,188.408675 l 0.000000,10.263306 M 1372.316015,227.835137 l 0.000000,-11.365856 M 1372.316015,231.369048 l 0.000000,4.486332 M 1372.316015,251.063049 l 0.000000,-8.280784 M 1372.316015,256.210853 l 0.000000,5.898644 M 1372.316015,551.192998 l 0.000000,-284.096691 M 1385.316015,165.904087 l 0.000000,30.245235 M 1385.316015,539.798434 l 0.000000,-328.786910 M 1398.316015,160.147222 l 0.000000,14.896181 M 1398.316015,197.212750 l 0.000000,-17.440785 M 1398.316015,201.748644 l 0.000000,324.861955 M 1411.316015,174.765749 l 0.000000,-18.565565 M 1411.316015,176.435150 l 0.000000,329.797709 M 1424.316015,372.375537 l 0.000000,-215.145081 M 1424.316015,386.186545 l 0.000000,109.036487 M 1437.316015,376.475024 l 0.000000,-216.919874 M 1437.316015,403.612759 l 0.000000,72.621897 M 1450.316015,449.184146 l 0.000000,-287.049239 M 1463.316015,160.508621 l 0.000000,6.360892 M 1463.316015,323.521232 l 0.000000,-155.781939 M 1463.316015,348.921052 l 0.000000,45.877041 M 1476.316015,170.881224 l 0.000000,-14.507270 M 1476.316015,176.073416 l 0.000000,9.502643 M 1476.316015,282.144599 l 0.000000,-91.736148 M 1489.316015,153.418640 l 0.000000,7.655128 M 1489.316015,177.629136 l 0.000000,-7.507108 M 1489.316015,185.190557 l 0.000000,65.593906 M 1502.316015,170.034919 l 0.000000,-5.691263 M 1502.316015,177.265085 l 0.000000,34.032155 M 1515.316015,162.915415 l 0.000000,-4.790052 M 1515.316015,167.415288 l 0.000000,22.285684 M 1528.316015,177.783138 l 0.000000,-25.460811 M 1541.316015,146.526998 l 0.000000,16.674164 M 1554.316015,144.869168 l 0.000000,-2.542565"
       id="path17" />
  </g>
  <g
     inkscape:label="fill-acacac"
     inkscape:groupmode="layer"
     id="fill-acacac">
    <path
       style="stroke:#acacac"
       d="M 804.583766,465.820647 l 0.000000,34.571546 M 819.583766,556.704384 l 0.000000,-93.076176 M 834.583766,455.474636 l 0.000000,155.410280 M 849.583766,624.634348 l 0.000000,-175.978860 M 864.583766,445.140115 l 0.000000,178.700571 M 879.583766,621.008169 l 0.000000,-188.742712 M 894.583766,423.801294 l 0.000000,197.513934 M 909.583766,628.613385 l 0.000000,-208.133361 M 924.583766,418.462562 l 0.000000,217.510196 M 939.583766,646.643596 l 0.000000,-230.661254 M 954.583766,407.511903 l 0.000000,244.050155 M 969.583766,657.540726 l 0.000000,-257.751016 M 984.583766,393.687733 l 0.000000,280.514948 M 999.583766,687.785306 l 0.000000,-296.356749 M 1014.583766,389.159984 l 0.000000,2.893154 M 1014.583766,699.083620 l 0.000000,-306.981118 M 1029.583766,383.770903 l 0.000000,326.154424 M 1044.583766,666.939013 l 0.000000,-290.143688 M 1044.583766,693.932275 l 0.000000,26.481634 M 1059.583766,663.529517 l 0.000000,-294.198230 M 1059.583766,705.717500 l 0.000000,25.165188 M 1074.583766,659.105879 l 0.000000,-297.801728 M 1074.583766,714.352349 l 0.000000,27.258115 M 1089.583766,653.860457 l 0.000000,-299.852822 M 1089.583766,729.474826 l 0.000000,23.427027 M 1089.583766,797.473641 l 0.000000,-4.446774 M 1089.583766,800.349324 l 0.000000,4.798398 M 1104.583766,649.590605 l 0.000000,-302.107086 M 1104.583766,740.470377 l 0.000000,23.783744 M 1104.583766,796.250636 l 0.000000,-13.119042 M 1119.583766,341.489748 l 0.000000,179.855713 M 1119.583766,648.519544 l 0.000000,-125.408173 M 1119.583766,748.588564 l 0.000000,41.008787 M 1134.583766,645.623631 l 0.000000,-310.784436 M 1134.583766,757.458509 l 0.000000,30.022174 M 1149.583766,642.090056 l 0.000000,-313.346759 M 1149.583766,768.658373 l 0.000000,19.727924 M 1164.583766,638.085571 l 0.000000,-316.816980 M 1164.583766,774.761196 l 0.000000,12.512654 M 1164.583766,791.788590 l 0.000000,-3.705605 M 1179.583766,315.241944 l 0.000000,318.497394 M 1179.583766,796.775969 l 0.000000,-9.889878 M 1194.583766,309.419378 l 0.000000,320.475968 M 1194.583766,818.631331 l 0.000000,-19.084442 M 1209.583766,305.533480 l 0.000000,320.043280 M 1209.583766,857.141256 l 0.000000,-28.829694 M 1224.583766,301.329961 l 0.000000,320.028106 M 1239.583766,617.485975 l 0.000000,-319.570176 M 1254.583766,296.730137 l 0.000000,316.801768 M 1269.583766,609.002110 l 0.000000,-312.679044 M 1284.583766,296.199498 l 0.000000,307.247191 M 1299.583766,281.715459 l 0.000000,-2.801297 M 1299.583766,283.410356 l 0.000000,3.335384 M 1299.583766,597.018408 l 0.000000,-300.270296 M 1314.583766,302.482294 l 0.000000,287.378305 M 1329.583766,252.515346 l 0.000000,-13.684467 M 1329.583766,255.534688 l 0.000000,2.723145 M 1329.583766,262.656324 l 0.000000,-1.320492 M 1329.583766,304.260405 l 0.000000,277.419224 M 1344.583766,203.876930 l 0.000000,-18.177909 M 1344.583766,217.326174 l 0.000000,9.083977 M 1344.583766,261.699165 l 0.000000,-30.705140 M 1344.583766,273.358675 l 0.000000,298.965581 M 1359.583766,201.625939 l 0.000000,-25.578083 M 1359.583766,206.176800 l 0.000000,355.617715 M 1374.583766,550.589406 l 0.000000,-381.073714 M 1389.583766,162.652592 l 0.000000,374.696241 M 1404.583766,521.417953 l 0.000000,-364.909406 M 1419.583766,155.695485 l 0.000000,347.567934 M 1434.583766,482.669164 l 0.000000,-324.301223 M 1449.583766,160.715647 l 0.000000,292.919536 M 1464.583766,320.167600 l 0.000000,-160.548071 M 1464.583766,355.356130 l 0.000000,38.283362 M 1479.583766,184.473749 l 0.000000,-29.522165 M 1479.583766,187.983956 l 0.000000,88.830686 M 1494.583766,158.849137 l 0.000000,-8.869432 M 1494.583766,161.048732 l 0.000000,14.207450 M 1494.583766,240.491593 l 0.000000,-60.167149 M 1509.583766,159.572439 l 0.000000,7.435645 M 1509.583766,202.485638 l 0.000000,-33.017785 M 1524.583766,152.623760 l 0.000000,31.308296 M 1539.583766,166.766271 l 0.000000,-20.775136 M 1554.583766,141.369835 l 0.000000,5.805311"
       id="path20" />
  </g>
  <g
     inkscape:label="fill-cecece"
     inkscape:groupmode="layer"
     id="fill-cecece">
    <path
       style="stroke:#cecece"
       d="M 803.912133,464.982256 l 0.000000,36.574241 M 820.912133,564.107760 l 0.000000,-101.807893 M 837.912133,452.413757 l 0.000000,172.784925 M 854.912133,625.801650 l 0.000000,-180.083988 M 871.912133,437.165051 l 0.000000,186.800524 M 888.912133,622.444941 l 0.000000,-197.488523 M 905.912133,419.655675 l 0.000000,207.477935 M 922.912133,636.974134 l 0.000000,-219.776014 M 939.912133,413.177380 l 0.000000,236.491758 M 956.912133,653.171154 l 0.000000,-247.985111 M 973.912133,396.427907 l 0.000000,264.144866 M 990.912133,680.172303 l 0.000000,-288.874363 M 1007.912133,388.609431 l 0.000000,308.036425 M 1024.912133,708.466200 l 0.000000,-325.307381 M 1041.912133,375.948730 l 0.000000,293.207668 M 1041.912133,720.282259 l 0.000000,-38.749152 M 1058.912133,367.650178 l 0.000000,297.091901 M 1058.912133,732.168045 l 0.000000,-31.958355 M 1075.912133,358.933013 l 0.000000,301.119705 M 1075.912133,744.436453 l 0.000000,-30.699130 M 1075.912133,800.976719 l 0.000000,16.042386 M 1092.912133,655.238877 l 0.000000,-304.824114 M 1092.912133,726.952252 l 0.000000,30.078355 M 1092.912133,804.767145 l 0.000000,-15.998700 M 1109.912133,342.858254 l 0.000000,308.965142 M 1109.912133,770.125568 l 0.000000,-29.825895 M 1109.912133,776.360519 l 0.000000,18.604673 M 1126.912133,648.811624 l 0.000000,-312.873930 M 1126.912133,751.647009 l 0.000000,37.877732 M 1143.912133,645.135249 l 0.000000,-316.664198 M 1143.912133,763.781013 l 0.000000,25.509450 M 1160.912133,640.710976 l 0.000000,-319.766511 M 1160.912133,771.703229 l 0.000000,20.382223 M 1177.912133,635.953860 l 0.000000,-321.808423 M 1177.912133,783.791527 l 0.000000,15.534637 M 1194.912133,631.326240 l 0.000000,-323.391562 M 1194.912133,797.603631 l 0.000000,24.539542 M 1211.912133,626.670449 l 0.000000,-323.864782 M 1211.912133,826.182925 l 0.000000,28.476113 M 1228.912133,621.962095 l 0.000000,-324.131805 M 1245.912133,285.479781 l 0.000000,331.770526 M 1262.912133,612.302131 l 0.000000,-346.466205 M 1279.912133,245.377061 l 0.000000,361.134853 M 1296.912133,599.747514 l 0.000000,-372.633154 M 1313.912133,215.991721 l 0.000000,6.169118 M 1313.912133,591.884529 l 0.000000,-364.855319 M 1330.912133,200.819104 l 0.000000,381.613582 M 1347.912133,571.737886 l 0.000000,-389.903221 M 1364.912133,172.392673 l 0.000000,387.218080 M 1381.912133,545.911661 l 0.000000,-381.564609 M 1398.912133,157.009830 l 0.000000,372.610275 M 1415.912133,510.049166 l 0.000000,-355.471820 M 1432.912133,156.627854 l 0.000000,331.348875 M 1449.912133,456.418804 l 0.000000,-296.520231 M 1466.912133,157.529166 l 0.000000,157.352551 M 1483.912133,273.451516 l 0.000000,-121.349335 M 1500.912133,147.333836 l 0.000000,74.302848 M 1517.912133,147.751843 l 0.000000,-5.519280 M 1517.912133,149.184638 l 0.000000,44.992310 M 1534.912133,174.173968 l 0.000000,-37.194822 M 1551.912133,136.163125 l 0.000000,16.858813"
       id="path23" />
  </g>
</svg>
