<?xml version="1.0" encoding="UTF-8" standalone="no"?>
<!-- Created with Inkscape (http://www.inkscape.org/) -->

<svg
   xmlns:dc="http://purl.org/dc/elements/1.1/"
   xmlns:cc="http://creativecommons.org/ns#"
   xmlns:rdf="http://www.w3.org/1999/02/22-rdf-syntax-ns#"
   xmlns:svg="http://www.w3.org/2000/svg"
   xmlns="http://www.w3.org/2000/svg"
   xmlns:sodipodi="http://sodipodi.sourceforge.net/DTD/sodipodi-0.dtd"
   xmlns:inkscape="http://www.inkscape.org/namespaces/inkscape"
   id="svg2"
   version="1.1"
   inkscape:version="0.48.3.1 r9886"
   width="1500"
   height="1911"
   sodipodi:docname="hantologie-_0000_arbre-03_hatched_1398270833.svg">
  <defs
     id="defs27" />
  <sodipodi:namedview
     pagecolor="#ffffff"
     bordercolor="#666666"
     borderopacity="1"
     objecttolerance="10"
     gridtolerance="10"
     guidetolerance="10"
     inkscape:pageopacity="0"
     inkscape:pageshadow="2"
     inkscape:window-width="640"
     inkscape:window-height="480"
     id="namedview25" />
  <metadata
     id="metadata8">
    <rdf:RDF>
      <cc:Work
         rdf:about="">
        <dc:format>image/svg+xml </dc:format>
        <dc:type
           rdf:resource="http://purl.org/dc/dcmitype/StillImage" />
        <dc:title />
      </cc:Work>
    </rdf:RDF>
  </metadata>
  <g
     inkscape:label="fill-0c0c0c"
     inkscape:groupmode="layer"
     id="fill-0c0c0c">
    <path
       style="stroke:#0c0c0c"
       d="M 750.947125,539.209190 l -7.027608,0.368301 M 737.281504,539.925375 l 4.475583,-0.234555 M 729.548192,540.330660 l -4.053375,0.212428 M 762.150536,544.630278 l 4.999890,-0.262033 M 749.095526,545.314462 l -14.816445,0.776497 M 732.414965,552.196887 l 19.360834,-1.014658 M 746.341518,557.475262 l -17.250061,0.904037 M 731.340836,564.269648 l 46.820441,-2.453755 M 809.129095,566.201172 l -3.206036,0.168021 M 735.071382,570.082373 l 43.238912,-2.266055 M 746.034426,575.516058 l -11.297416,0.592072 M 735.882032,582.056356 l 3.636425,-0.190577 M 749.940432,587.327821 l -4.124712,0.216167 M 744.363939,593.628307 l 4.974720,-0.260714 M 747.543116,599.469927 l -2.233252,0.117040 M 800.484671,608.711846 l 2.110443,-0.110604 M 861.676506,611.513152 l -11.064191,0.579850 M 781.091756,615.736420 l 44.082442,-2.310263 M 924.699740,614.218478 l -2.728986,0.143020 M 882.038184,616.454275 l 1.750906,-0.091761 M 857.543835,617.737970 l -6.459716,0.338539 M 814.819156,619.977075 l 14.828119,-0.777109 M 809.272955,620.267740 l -6.105245,0.319962 M 936.157286,619.626248 l 2.818649,-0.147719 M 832.843799,625.040678 l -31.648585,1.658632 M 915.537798,626.715103 l 14.303550,-0.749617 M 836.891987,630.836756 l -27.249657,1.428094 M 915.841227,632.707435 l 12.705769,-0.665881 M 841.511770,636.602877 l -10.389860,0.544510 M 810.151563,638.246396 l 17.433844,-0.913669 M 932.978852,637.817525 l -9.396668,0.492459 M 830.016881,643.213533 l 12.524001,-0.656355 M 826.353208,643.405538 l -9.146691,0.479358 M 768.875603,646.417811 l 16.553490,-0.867532 M 765.512904,646.594043 l -3.339632,0.175023 M 931.547821,643.900756 l 5.721897,-0.299872 M 863.490017,647.467514 l -15.451213,0.809764 M 822.366402,649.622711 l 23.032114,-1.207062 M 799.278084,650.832719 l -40.156048,2.104489 M 742.797381,653.792747 l 3.626713,-0.190068 M 902.459275,651.433456 l -9.606310,0.503445 M 827.187105,655.378303 l 39.643296,-2.077617 M 805.967408,656.490380 l -46.547990,2.439477 M 740.167625,659.938801 l 1.089665,-0.057107 M 891.973095,657.991247 l -1.798280,0.094244 M 832.060902,661.131112 l 34.598633,-1.813238 M 809.263949,662.325850 l -51.742897,2.711730 M 920.370295,662.511247 l 1.018371,-0.053371 M 891.629594,664.017484 l -9.872638,0.517403 M 854.878429,665.943531 l 6.452333,-0.338152 M 809.558222,668.318662 l -56.503724,2.961235 M 915.100002,668.795686 l 8.195659,-0.429516 M 888.607313,670.184109 l -4.739400,0.248381 M 822.539730,673.646564 l 2.780838,-0.145738 M 817.583929,673.906287 l -73.632228,3.858902 M 911.286671,675.003768 l 10.328724,-0.541305 M 888.961596,676.173776 l -9.616599,0.503985 M 827.548310,679.392310 l 1.886500,-0.098867 M 822.030581,679.681481 l -35.525401,1.861807 M 739.331715,684.015545 l 33.463016,-1.753722 M 916.820121,680.722006 l -3.361635,0.176176 M 881.079769,682.595079 l 14.805996,-0.775949 M 852.495460,684.093119 l -7.483287,0.392182 M 832.225490,685.155423 l 3.560332,-0.186589 M 815.358250,686.039398 l -28.109457,1.473154 M 739.422148,690.019040 l 27.620194,-1.447513 M 1011.969200,681.743688 l -6.844005,0.358679 M 876.356731,688.850837 l 21.470514,-1.125222 M 852.280599,690.112613 l -6.745219,0.353502 M 830.934500,691.231315 l 5.368921,-0.281373 M 813.156904,692.162999 l -26.125685,1.369189 M 742.650804,695.858067 l 16.199658,-0.848988 M 997.972675,688.485449 l -13.811019,0.723805 M 876.954420,694.827747 l 16.296634,-0.854070 M 814.926972,698.078468 l -28.119110,1.473660 M 744.115798,701.789524 l 12.520283,-0.656160 M 986.532163,695.093255 l -5.063272,0.265355 M 943.277266,697.360148 l 20.058562,-1.051225 M 885.159574,700.405967 l -4.809838,0.252073 M 869.724233,701.214899 l 4.550567,-0.238485 M 835.502462,703.008386 l -8.188883,0.429161 M 786.456308,705.578786 l 22.164994,-1.161618 M 780.033748,705.915378 l -5.551802,0.290958 M 745.806262,707.709165 l 19.293289,-1.011118 M 1047.092711,697.927645 l -4.639288,0.243135 M 957.112596,702.643303 l 8.787500,-0.460533 M 876.546886,706.865573 l -6.355417,0.333073 M 827.458958,709.438163 l 6.128262,-0.321169 M 803.787557,710.678728 l -54.539230,2.858280 M 992.109491,706.817428 l 38.074799,-1.995416 M 877.320585,712.833260 l -8.084066,0.423668 M 825.960093,715.524949 l 11.172653,-0.585534 M 799.084721,716.933427 l -45.285151,2.373294 M 1024.101039,711.149056 l 4.968303,-0.260378 M 929.244028,716.120301 l -0.282149,0.014787 M 912.338186,717.006299 l 3.643891,-0.190968 M 836.737718,720.968352 l -3.910721,0.204952 M 758.519972,725.067570 l 37.929083,-1.987779 M 1043.355464,716.148208 l -14.238820,0.746225 M 986.915487,719.106102 l 9.592002,-0.502696 M 940.120696,721.558513 l -30.548803,1.600995 M 901.945184,723.559207 l 5.714482,-0.299483 M 781.819157,729.854745 l -24.927323,1.306386 M 994.537775,724.714869 l 8.297010,-0.434828 M 991.468483,724.875724 l -13.996257,0.733513 M 908.980732,729.198724 l 43.028930,-2.255051 M 902.623811,729.531876 l -3.699956,0.193906 M 763.149972,736.841390 l 31.819913,-1.667611 M 759.592519,737.027828 l -3.945326,0.206766 M 986.355320,731.151928 l 12.882015,-0.675118 M 963.809112,732.333524 l -59.582902,3.122608 M 796.236215,741.115648 l 14.439856,-0.756761 M 1007.700759,736.041495 l -18.200219,0.953833 M 918.229166,740.730502 l 60.507661,-3.171072 M 808.389186,746.486972 l -6.793818,0.356049 M 796.890237,747.089606 l 2.246629,-0.117741 M 998.062219,742.554863 l -12.967572,0.679602 M 940.644784,745.563983 l 31.751799,-1.664041 M 804.838956,752.681265 l -11.378537,0.596324 M 790.346376,759.449023 l 10.552564,-0.553036 M 796.074122,765.157079 l -7.123266,0.373315"
       id="path5" />
  </g>
  <g
     inkscape:label="fill-2f2f2f"
     inkscape:groupmode="layer"
     id="fill-2f2f2f">
    <path
       style="stroke:#2f2f2f"
       d="M 720.360913,485.886178 l -9.708431,2.783848 M 718.980700,495.644642 l 1.826256,-0.523670 M 715.570215,496.622583 l -2.953595,0.846930 M 729.182836,511.444617 l 1.204872,-0.345491 M 728.232787,511.717039 l -2.695980,0.773060 M 779.481767,506.384325 l 3.284346,-0.941771 M 735.898799,518.881540 l -5.343199,1.532138 M 727.989472,530.512198 l 7.877997,-2.258979 M 750.001512,533.563042 l -26.712865,7.659791 M 730.964152,548.384612 l 21.826546,-6.258661 M 769.499495,546.697476 l -9.705739,2.783076 M 727.753286,558.668008 l 27.007311,-7.744222 M 760.239536,558.715421 l -29.219184,8.378466 M 733.547633,575.731896 l 47.365087,-13.581720 M 783.795258,570.686316 l -4.478298,1.284131 M 745.853104,581.566054 l 1.829740,-0.524670 M 741.889202,582.702684 l -6.850834,1.964445 M 802.088730,574.803442 l 14.492329,-4.155609 M 751.317212,589.361941 l -12.072766,3.461810 M 840.821076,573.059816 l 4.822022,-1.382692 M 783.782596,589.415337 l -6.908877,1.981088 M 744.618690,600.645406 l 5.701144,-1.634777 M 897.284697,566.231828 l -2.194650,0.629306 M 859.554441,586.413500 l 9.263701,-2.656324 M 807.666475,601.292134 l -7.695638,2.206689 M 879.153865,590.156150 l 3.224064,-0.924485 M 839.942125,601.399936 l -3.267654,0.936985 M 773.729757,620.386027 l 41.545641,-11.913021 M 896.742885,594.475275 l -1.190327,0.341321 M 887.372184,597.162280 l 3.846382,-1.102932 M 885.377269,597.734313 l -2.605997,0.747258 M 872.510981,601.423661 l 5.205866,-1.492758 M 861.705947,604.521955 l -15.648389,4.487103 M 801.373977,621.821869 l 27.339528,-7.839483 M 767.670919,631.486065 l -9.397326,2.694640 M 908.980933,600.328766 l 3.424636,-0.981999 M 884.189979,607.437457 l -8.400750,2.408876 M 837.762443,620.750339 l 25.628236,-7.348778 M 837.357933,620.866331 l -43.721292,12.536879 M 760.307740,642.960118 l 4.116501,-1.180388 M 758.641093,643.438021 l -15.926854,4.566952 M 904.975408,610.840027 l 9.787085,-2.806401 M 903.436493,611.281303 l -5.181955,1.485902 M 878.581903,618.408242 l 7.659751,-2.196398 M 857.561298,624.435804 l -5.451448,1.563177 M 805.606148,639.333703 l 33.728455,-9.671479 M 790.203988,643.750202 l -32.061316,9.193434 M 739.760028,658.214774 l 6.389440,-1.832142 M 930.441403,612.900465 l -10.962178,3.143354 M 906.764460,619.689719 l 9.145818,-2.622521 M 902.441783,620.929227 l -2.234898,0.640847 M 854.820229,634.584488 l 7.014009,-2.011235 M 854.286334,634.737580 l -4.266647,1.223441 M 815.500888,645.859127 l 29.095001,-8.342857 M 802.121541,649.695593 l -51.370725,14.730318 M 738.219380,668.019243 l 3.873147,-1.110607 M 941.474601,619.099441 l -28.584853,8.196575 M 906.592148,629.101824 l 4.106094,-1.177404 M 900.162988,630.945356 l -1.667255,0.478078 M 818.607958,654.330884 l 45.144525,-12.944984 M 810.608071,656.624815 l -66.588689,19.093999 M 909.939109,637.504793 l 21.182520,-6.073990 M 866.935046,649.836010 l -37.762367,10.828184 M 737.717961,686.888413 l 72.605320,-20.819241 M 938.520057,638.672033 l -11.607769,3.328474 M 890.570457,652.421360 l 13.760512,-3.945763 M 870.896200,658.062862 l -20.017408,5.739899 M 786.186622,682.352942 l 38.996973,-11.182202 M 773.409901,686.016608 l -33.273055,9.540895 M 915.250378,654.707201 l 1.968902,-0.564574 M 902.150762,658.463455 l -22.701335,6.509503 M 856.794304,671.469211 l 12.098575,-3.469211 M 832.750439,678.363678 l -46.481660,13.328401 M 765.079422,697.768030 l 2.943725,-0.844100 M 757.314866,699.994480 l -14.511964,4.161239 M 906.238617,666.653977 l 17.969821,-5.152763 M 894.976650,669.883294 l -30.514209,8.749809 M 843.342180,684.689240 l 14.307413,-4.102585 M 838.702034,686.019780 l -11.693011,3.352917 M 783.298530,701.906479 l 38.674172,-11.089640 M 778.619678,703.248119 l -4.465013,1.280322 M 747.082436,712.291277 l 21.510156,-6.167938 M 925.091156,670.610793 l -16.668750,4.779687 M 869.294418,686.610250 l 28.149911,-8.071857 M 856.865699,690.174128 l -34.534396,9.902579 M 752.693564,720.045007 l 59.467422,-17.052009 M 916.378924,682.471681 l -72.033601,20.655303 M 824.947197,708.689306 l 16.162988,-4.634662 M 805.506406,714.263863 l -48.261807,13.838850 M 878.928031,702.573246 l 9.983668,-2.862771 M 877.252332,703.053745 l -14.882884,4.267598 M 819.306789,719.669362 l 28.481256,-8.166869 M 813.016055,721.473201 l -11.048347,3.168062 M 755.143346,738.067933 l 40.426695,-11.592168 M 883.286774,710.686092 l -15.812733,4.534228 M 831.186600,725.625576 l 8.415667,-2.413154 M 797.069558,735.408480 l -19.336147,5.544551 M 756.600042,747.012927 l 0.215490,-0.061791 M 1011.327938,683.333573 l -58.582456,16.798249 M 924.473059,708.238809 l 14.052063,-4.029364 M 890.749886,717.908774 l -4.787673,1.372843 M 872.743125,723.072129 l 1.816042,-0.520742 M 811.727859,740.567975 l -14.809679,4.246607 M 983.230315,700.753132 l 3.096729,-0.887973 M 961.321122,707.035492 l -10.976889,3.147572 M 889.333833,727.677515 l 49.998582,-14.336863 M 806.798259,751.344210 l -15.565842,4.463433 M 988.708276,708.545047 l 47.838983,-13.717608 M 978.719623,711.409247 l -11.617313,3.331211 M 953.524300,718.633890 l 11.155147,-3.198687 M 943.821483,721.416128 l -45.173798,12.953378 M 788.518859,765.948439 l 10.113599,-2.900028 M 1054.862038,698.938456 l -39.499185,11.326209 M 981.939129,719.848764 l 16.816414,-4.822029 M 962.379967,725.457263 l -51.256201,14.697479 M 1017.390322,719.045993 l 37.054137,-10.625103 M 1004.378399,722.777101 l -73.517455,21.080791 M 1023.028944,726.791839 l 39.521877,-11.332716 M 1007.303831,731.300942 l -59.995428,17.203412 M 982.316068,747.828763 l 33.209393,-9.522640"
       id="path8" />
  </g>
  <g
     inkscape:label="fill-4f4f4f"
     inkscape:groupmode="layer"
     id="fill-4f4f4f">
    <path
       style="stroke:#4f4f4f"
       d="M 763.299843,414.549058 l -2.642567,1.346455 M 749.391227,421.635852 l 1.457509,-0.742638 M 737.826854,427.528194 l -0.598206,0.304801 M 758.835112,430.291867 l 3.223098,-1.642251 M 748.918871,435.344444 l -0.280381,0.142862 M 734.601342,442.639589 l 7.957174,-4.054382 M 723.653309,448.217891 l -2.331941,1.188183 M 770.394326,437.870068 l 2.535746,-1.292027 M 759.557250,443.391834 l -2.626193,1.338112 M 733.901797,456.463940 l 8.343598,-4.251275 M 769.163881,451.964926 l -2.002447,1.020298 M 747.086332,463.213999 l 4.180787,-2.130217 M 759.407456,470.403988 l -5.551718,2.828741 M 733.363805,483.673891 l 2.229596,-1.136036 M 723.272223,488.815809 l -12.369602,6.302627 M 760.047046,483.546015 l 7.653716,-3.899763 M 757.387119,484.901316 l -3.272616,1.667481 M 723.611721,502.110740 l 7.924227,-4.037595 M 721.002261,503.440327 l -6.452405,3.287664 M 770.793008,491.538589 l 4.742299,-2.416322 M 733.093120,510.747641 l -8.820166,4.494099 M 778.301574,501.180698 l 9.199147,-4.687199 M 771.458405,504.667467 l -3.839169,1.956154 M 727.287133,527.173854 l 15.008876,-7.647404 M 782.791399,512.360933 l -0.978220,0.498428 M 771.782634,517.970179 l 6.233486,-3.176120 M 751.385354,528.363112 l -28.606549,14.575765 M 773.557534,530.533737 l 8.175189,-4.165467 M 756.118063,539.419591 l -30.313159,15.445326 M 814.150857,523.318321 l 4.190459,-2.135145 M 772.041118,544.774304 l -41.998689,21.399401 M 733.218251,578.023458 l 37.452012,-19.082753 M 978.797910,466.362287 l -4.281070,2.181314 M 960.860679,475.501762 l 9.016666,-4.594221 M 784.049991,565.591308 l -11.346985,5.781577 M 736.106667,590.019652 l 15.220433,-7.755198 M 952.232275,493.366069 l -2.198138,1.120007 M 794.119025,573.928793 l 18.474818,-9.413390 M 758.828052,591.910442 l -15.467882,7.881279 M 790.952251,589.010260 l 3.603667,-1.836160 M 787.201753,590.921235 l -7.988605,4.070398 M 767.529213,600.944894 l 1.655800,-0.843672 M 982.775327,504.739436 l -16.426973,8.369961 M 837.567209,578.726668 l 7.645610,-3.895633 M 809.342686,593.107781 l -14.555548,7.416422 M 863.985911,578.733582 l 6.023914,-3.069338 M 857.879024,581.845196 l -9.863132,5.025517 M 830.342535,595.875738 l 5.197559,-2.648289 M 810.021368,606.229890 l -29.794632,15.181123 M 758.226537,632.620674 l 14.892360,-7.588036 M 1035.501452,504.809963 l -2.196395,1.119119 M 878.356120,584.879509 l 0.953782,-0.485976 M 870.223346,589.023364 l -8.306811,4.232531 M 839.111139,604.875826 l 3.291805,-1.677258 M 827.684358,610.698062 l -36.978170,18.841319 M 753.580236,648.455998 l 15.334579,-7.813358 M 750.852402,649.845898 l -11.005248,5.607454 M 948.661894,562.524843 l 8.234629,-4.195753 M 896.467835,589.119044 l -25.283792,12.882735 M 800.687360,637.921634 l 63.583724,-32.397526 M 793.294266,641.688603 l -44.267767,22.555554 M 737.305059,670.216529 l 6.813606,-3.471706 M 912.573303,594.380813 l -6.428779,3.275626 M 888.711962,606.538774 l 12.502605,-6.370396 M 887.913127,606.945801 l -17.417287,8.874551 M 810.816101,646.228698 l 54.701913,-27.872017 M 805.118488,649.131777 l -67.903526,34.598575 M 921.361918,603.370705 l 4.700641,-2.395096 M 917.268234,605.456541 l -21.763591,11.089104 M 881.572380,623.644488 l 3.372128,-1.718185 M 864.763345,632.209119 l -46.900241,23.896866 M 739.156948,696.208775 l 75.475663,-38.456771 M 934.036312,610.380694 l -37.066870,18.886513 M 829.457391,663.666316 l 37.795738,-19.257890 M 819.262634,668.860804 l -34.039545,17.344015 M 743.180073,707.626805 l 31.885169,-16.246305 M 943.170897,619.194305 l -38.661071,19.698800 M 892.185556,645.172634 l 8.426844,-4.293692 M 873.970943,654.453443 l -21.589130,11.000211 M 750.148377,717.544192 l 82.049964,-41.806545 M 938.289746,635.149291 l -12.890275,6.567923 M 748.550381,731.826326 l 158.180665,-80.597074 M 924.289658,655.750607 l -102.695346,52.325892 M 762.419668,738.227486 l 57.287001,-29.189185 M 760.146247,739.385852 l -4.914693,2.504161 M 903.884165,679.615639 l 23.104903,-11.772536 M 901.256466,680.954519 l -39.185092,19.965801 M 806.058638,729.460235 l 42.779558,-21.797274 M 798.926727,733.094125 l -17.434479,8.883311 M 864.770886,713.012765 l 26.614549,-13.560790 M 858.313625,716.302904 l -5.311544,2.706367 M 833.721219,728.833361 l 8.913259,-4.541532 M 812.899650,739.442480 l -18.265056,9.306511 M 973.102963,671.282730 l 25.577400,-13.032336 M 893.029219,712.082340 l -10.821124,5.513638 M 870.419358,723.602640 l 6.053063,-3.084190 M 802.803593,758.054593 l -14.775457,7.528472 M 1000.285404,670.900499 l 7.113095,-3.624303 M 965.923482,688.408773 l -24.708061,12.589386 M 924.268512,709.633041 l 14.132087,-7.200658 M 919.235769,712.197351 l -31.347202,15.972197 M 898.951269,736.000735 l 115.776638,-58.991144 M 1029.111942,683.148475 l -18.041070,9.192384 M 914.342813,741.626266 l 84.156036,-42.879642 M 1044.833662,688.605773 l -111.573711,56.849645 M 1017.233679,716.136581 l 63.651086,-32.431848 M 1005.669414,722.028869 l -53.748482,27.386219 M 1107.113886,683.808243 l 2.947025,-1.501584 M 1065.756273,704.881000 l -44.796088,22.824747 M 979.333896,748.915400 l 30.015773,-15.293800 M 1055.997220,723.321400 l -18.513517,9.433108"
       id="path11" />
  </g>
  <g
     inkscape:label="fill-707070"
     inkscape:groupmode="layer"
     id="fill-707070">
    <path
       style="stroke:#707070"
       d="M 751.025317,386.788478 l -0.675709,0.527922 M 748.647517,407.681492 l 4.001424,-3.126255 M 764.203552,414.563059 l -5.440251,4.250390 M 747.086735,427.936182 l 4.919156,-3.843265 M 744.168052,430.216507 l -10.092553,7.885166 M 719.624606,449.391949 l 6.102812,-4.768039 M 774.365247,425.659146 l -5.343374,4.174701 M 745.753025,448.013464 l 16.372064,-12.791258 M 743.336453,449.901497 l -12.242607,9.564973 M 721.263679,467.146637 l 3.214160,-2.511177 M 771.876861,446.638559 l -26.668412,20.835647 M 710.196712,494.828373 l 16.557584,-12.936202 M 773.469043,464.429884 l -21.670888,16.931153 M 714.701127,510.344411 l 24.544961,-19.176625 M 774.522456,482.642140 l -4.001729,3.126494 M 755.118854,497.801896 l 12.321684,-9.626755 M 746.127604,504.826630 l -18.499201,14.453160 M 795.308129,485.437866 l 11.001003,-8.594925 M 792.296505,487.790804 l -8.560457,6.688162 M 765.536078,508.698341 l 17.751028,-13.868623 M 763.722717,510.115094 l -2.916949,2.278970 M 722.214889,542.544563 l 27.577691,-21.546053 M 790.749000,508.035121 l -0.995515,0.777782 M 776.146199,519.444080 l 8.274553,-6.464789 M 761.420496,530.949060 l -35.274122,27.559164 M 793.822007,524.669498 l 8.035336,-6.277893 M 788.790801,528.600307 l -57.123767,44.629978 M 822.867920,521.011617 l 4.828330,-3.772305 M 776.515598,557.226020 l -41.092703,32.105138 M 827.251130,536.622351 l 6.328278,-4.944193 M 784.955708,569.667156 l -5.283984,4.128301 M 743.948701,601.705342 l 16.241128,-12.688960 M 816.561398,564.009358 l -49.256546,38.483432 M 960.658562,470.463589 l 26.956558,-21.060771 M 865.508728,544.802786 l -39.178827,30.609854 M 761.808366,625.822389 l 46.078709,-36.000633 M 751.444462,633.919558 l -9.468087,7.397280 M 949.435777,498.267063 l 4.768055,-3.725213 M 946.685841,500.415547 l -8.148930,6.366642 M 842.402079,581.890952 l 10.048280,-7.850577 M 842.305582,581.966344 l -17.750712,13.868376 M 794.460735,619.346835 l 22.543255,-17.612721 M 775.214682,634.383500 l -21.012397,16.416683 M 736.938979,664.287756 l 13.037767,-10.186220 M 983.870151,490.399254 l -35.788980,27.961416 M 926.373159,535.320827 l 6.921425,-5.407610 M 888.541947,564.877809 l -5.674249,4.433209 M 851.599691,593.740263 l 27.282725,-21.315601 M 843.725189,599.892499 l -106.995006,83.593660 M 976.217146,515.413710 l 22.327381,-17.444062 M 909.805938,567.299832 l -170.186655,132.964388 M 980.428818,531.158464 l 3.725207,-2.910451 M 968.317809,540.620622 l -2.807981,2.193835 M 944.446327,559.271068 l 20.106420,-15.708857 M 932.621825,568.509381 l -2.575410,2.012131 M 784.673052,684.099631 l 139.837584,-109.253094 M 778.638382,688.814432 l -31.992984,24.995658 M 1036.097802,506.700361 l 17.377650,-13.576908 M 949.519335,574.342872 l -7.524684,5.878927 M 937.648739,583.617198 l 2.704552,-2.113028 M 930.669222,589.070195 l -4.815162,3.762017 M 747.884266,731.877454 l 174.069835,-135.998260 M 934.950960,604.760208 l -55.829734,43.618969 M 854.028480,667.983778 l 24.356107,-19.029076 M 840.565384,678.502302 l -77.270835,60.370593 M 755.045167,745.318018 l 4.595650,-3.590515 M 948.943234,612.863519 l -1.276963,0.997673 M 783.636544,742.015260 l 160.663798,-125.524316 M 943.301312,636.306744 l -15.763086,12.315472 M 825.689122,728.195458 l 98.856936,-77.235503 M 814.147500,737.212761 l -23.971683,18.728732 M 865.477434,716.144695 l 72.495884,-56.639992 M 864.437974,716.956810 l -6.388258,4.991054 M 873.336179,729.040044 l 22.686878,-17.724931 M 994.184081,653.658588 l -25.615148,20.012747 M 889.793668,735.217317 l 51.948257,-40.586427 M 1000.192593,667.999497 l -14.067921,10.991065 M 907.687424,740.272456 l 71.660967,-55.987684 M 1014.259531,676.044474 l -86.925875,67.913937 M 1014.661573,694.765637 l 18.284364,-14.285311 M 1012.555241,696.411284 l -67.435825,52.686641 M 1063.162993,675.907448 l 2.168636,-1.694324 M 1052.144137,684.516322 l -40.477069,31.624152 M 970.618672,748.210996 l 36.728777,-28.695666 M 1078.489387,682.968431 l -58.557996,45.750520 M 992.570140,750.095903 l 23.951476,-18.712944 M 1107.753905,679.139756 l -6.359939,4.968929 M 1085.216819,696.747657 l 14.161283,-11.064007 M 1076.897545,703.247387 l -43.367383,33.882313 M 1019.121047,748.387334 l 1.747208,-1.365068 M 1121.354648,687.548965 l -4.301130,3.360411 M 1108.842742,697.324336 l 1.489965,-1.164088 M 1101.580661,702.998096 l -4.834861,3.777407 M 1082.103040,718.215682 l 6.186939,-4.833766"
       id="path14" />
  </g>
  <g
     inkscape:label="fill-8f8f8f"
     inkscape:groupmode="layer"
     id="fill-8f8f8f">
    <path
       style="stroke:#8f8f8f"
       d="M 748.504578,378.713571 l -2.661658,3.172040 M 729.073612,401.870494 l 8.945968,-10.661390 M 753.328192,402.523765 l -17.902084,21.334873 M 718.340275,444.220740 l 9.734722,-11.601389 M 764.621975,418.623111 l -43.640747,52.009017 M 743.933468,472.837466 l 32.032472,-38.174813 M 737.408002,480.614214 l -23.709403,28.255766 M 780.705531,458.572981 l 13.903752,-16.569847 M 780.110069,459.282624 l -52.382828,62.427423 M 788.211960,479.185919 l 17.451547,-20.797944 M 785.353011,482.593082 l -26.340407,31.391275 M 724.574512,555.026077 l 28.856418,-34.389740 M 811.111401,481.454182 l -79.275176,94.476476 M 824.595628,494.943059 l 2.171034,-2.587337 M 820.318859,500.039913 l -1.800375,2.145603 M 786.645084,540.170755 l 11.662877,-13.899276 M 773.016805,556.412305 l -33.492517,39.914828 M 824.148388,525.034811 l 9.299241,-11.082404 M 785.726155,570.824645 l -2.870337,3.420734 M 759.088074,602.570674 l 12.006171,-14.308398 M 837.683862,538.462614 l -2.394772,2.853979 M 737.955309,657.314475 l 80.254963,-95.644141 M 863.435754,537.331457 l -34.690170,41.342135 M 794.355482,619.658119 l 27.626184,-32.923604 M 784.502674,631.400238 l -49.081951,58.493591 M 889.079488,536.329198 l 14.179923,-16.898974 M 882.876430,543.721713 l -81.992781,97.715192 M 743.228165,710.148035 l 56.003159,-66.741966 M 988.851925,446.983789 l -82.146567,97.898467 M 746.411682,735.912820 l 147.705253,-176.028265 M 998.228362,465.368139 l -68.963381,82.187357 M 766.924079,741.025850 l 149.036785,-177.615124 M 996.686590,496.764304 l -143.559280,171.087287 M 790.706525,742.241787 l 52.533383,-62.606848 M 1039.408535,475.409026 l -20.563354,24.506451 M 1001.006183,521.175167 l 11.950508,-14.242061 M 949.456784,582.609348 l -6.652422,7.928048 M 825.285018,730.591496 l 115.506915,-137.655781 M 812.729245,745.554884 l -24.419619,29.102168 M 1036.709295,508.184608 l 19.118913,-22.785034 M 952.626299,608.390821 l -98.274905,117.119472 M 1069.607949,498.536272 l 3.090967,-3.683671 M 948.307792,643.096169 l -36.214328,43.158555 M 896.906775,704.353516 l 8.980106,-10.702074 M 894.006952,707.809391 l -19.630769,23.395039 M 966.518386,650.952382 l 5.591623,-6.663837 M 927.843952,697.042776 l -33.657664,40.111642 M 971.720861,674.311065 l 19.759323,-23.548244 M 970.695246,675.533345 l -56.203243,66.980416 M 1007.105165,661.700447 l 9.680752,-11.537071 M 1003.362783,666.160445 l -68.157285,81.226689 M 1031.689055,661.961261 l 2.181290,-2.599560 M 1022.954360,672.370865 l -16.179534,19.282017 M 957.710043,750.126013 l 44.369914,-52.878004 M 1045.917012,674.563794 l -63.495913,75.671482 M 1068.918582,676.710343 l 4.658070,-5.551271 M 1066.503400,679.588645 l -53.187235,63.386079 M 1007.277268,750.171601 l 4.174781,-4.975310 M 1093.832607,676.577718 l -51.574935,61.464613 M 1034.476231,747.315891 l 2.049869,-2.442939 M 1114.432927,681.585964 l -10.071563,12.002821 M 1098.421119,700.668094 l 3.503883,-4.175765 M 1096.190025,703.327008 l -4.673644,5.569832 M 1083.180935,718.830638 l 5.536823,-6.598528 M 1133.253600,688.715113 l -2.592461,3.089575 M 1121.666705,702.523836 l 6.962465,-8.297543"
       id="path17" />
  </g>
  <g
     inkscape:label="fill-adadad"
     inkscape:groupmode="layer"
     id="fill-adadad">
    <path
       style="stroke:#adadad"
       d="M 739.326171,368.513594 l -10.441256,18.084786 M 716.411667,408.202681 l 4.943550,-8.562480 M 753.226162,386.438104 l -8.384057,14.521613 M 717.351239,448.575293 l 17.904833,-31.012080 M 764.715769,408.537522 l -37.724482,65.340719 M 711.021190,501.539260 l 14.420141,-24.976418 M 783.828343,417.433572 l -58.938789,102.084977 M 719.342816,529.125782 l 3.217950,-5.573652 M 795.613718,439.020704 l -38.615532,66.884064 M 725.395071,560.642969 l 29.306177,-50.759787 M 809.077034,457.701556 l -75.408427,130.611226 M 814.476792,490.348901 l 4.969967,-8.608235 M 799.023854,517.114175 l -13.984144,24.221248 M 747.005846,607.212007 l 31.570368,-54.681481 M 834.413866,497.816875 l -3.227391,5.590005 M 817.100858,527.803886 l 11.489108,-19.899718 M 792.757075,569.968555 l -57.260418,99.177953 M 833.610125,541.208996 l 5.477335,-9.487023 M 823.196863,559.245295 l -41.473792,71.834715 M 738.506962,705.932507 l 41.827938,-72.448114 M 862.036332,533.973362 l -115.745959,200.477882 M 766.542030,741.374344 l 128.869274,-223.208129 M 963.448528,442.322285 l -173.663880,300.794664 M 811.252682,747.933223 l 175.513910,-303.999010 M 1006.091824,452.461930 l -159.921364,276.991928 M 970.209437,556.612048 l 42.147416,-73.001466 M 950.560089,590.645717 l -80.187145,138.888209 M 1016.781639,517.946628 l 24.795316,-42.946747 M 955.936454,623.333580 l -32.527023,56.338457 M 889.398021,738.581526 l 24.776682,-42.914471 M 1059.881655,485.295210 l -12.144219,21.034404 M 963.272598,652.627005 l 5.222625,-9.045852 M 956.630430,664.131578 l -2.303617,3.989982 M 911.507191,742.287320 l 28.723129,-49.749920 M 1077.437873,496.886949 l -0.775906,1.343909 M 933.046185,746.980688 l 57.662156,-99.873783 M 1014.574298,647.769855 l -59.487051,103.034595 M 979.153863,751.119848 l 55.390764,-95.939618 M 1054.586014,662.467530 l -51.466432,89.142475 M 1028.705368,749.294122 l 46.189646,-80.002814 M 1096.148004,674.480052 l -35.559687,61.591185 M 1095.825468,717.038699 l 20.678863,-35.816842 M 1095.058845,718.366529 l -5.295368,9.171847 M 1126.159280,706.498997 l 10.222180,-17.705335"
       id="path20" />
  </g>
  <g
     inkscape:label="fill-cecece"
     inkscape:groupmode="layer"
     id="fill-cecece">
    <path
       style="stroke:#cecece"
       d="M 723.599479,359.705147 l -9.790181,30.131078 M 742.228445,383.272786 l 4.590774,-14.128951 M 741.169040,386.533299 l -26.010760,80.052887 M 707.082129,491.442024 l 2.372744,-7.302555 M 762.601858,401.471565 l -45.223416,139.183364 M 731.351035,578.553408 l 53.407984,-164.372873 M 801.637605,443.135289 l -54.261736,167.000452 M 740.135350,632.419767 l 2.938863,-9.044891 M 818.686873,471.564737 l -5.904462,18.172065 M 799.041409,532.027259 l 7.295841,-22.454289 M 797.108372,537.976536 l -3.992559,12.287833 M 741.111984,710.315696 l 49.506176,-152.364344 M 837.547884,494.418214 l -11.092983,34.140692 M 823.387699,537.998783 l 2.239269,-6.891763 M 818.521719,552.974729 l -64.868197,199.643781 M 782.727402,744.040009 l 72.200803,-222.211223 M 884.074378,513.027789 l -80.418498,247.502687 M 839.337865,731.614319 l 73.207741,-225.310258 M 962.192692,434.407738 l -95.993090,295.436354 M 889.083696,740.315791 l 97.177882,-299.082768 M 1009.606475,450.286519 l -33.825147,104.103097 M 938.795621,668.219917 l 17.401635,-53.556725 M 931.621048,690.300984 l -17.379832,53.489622 M 1010.160213,529.483986 l 17.299516,-53.242436 M 973.728972,641.607816 l -3.440961,10.590188 M 938.681945,749.471475 l 29.134379,-89.666400 M 1053.197506,477.930519 l -10.860341,33.424693 M 964.488535,750.948658 l 34.687703,-106.757774 M 1074.691639,492.680078 l -2.895394,8.911107 M 990.221181,752.653417 l 34.135454,-105.058125 M 1047.489525,657.301275 l -30.684733,94.437897 M 1044.390549,747.740644 l 26.409015,-81.278590 M 1095.204305,672.253682 l -19.746341,60.772988 M 1104.736978,723.816830 l 14.154369,-43.562670 M 1142.244943,689.280885 l -5.003128,15.398044"
       id="path23" />
  </g>
</svg>
