<?xml version="1.0" encoding="UTF-8" standalone="no"?>
<!-- Created with Inkscape (http://www.inkscape.org/) -->

<svg
   xmlns:dc="http://purl.org/dc/elements/1.1/"
   xmlns:cc="http://creativecommons.org/ns#"
   xmlns:rdf="http://www.w3.org/1999/02/22-rdf-syntax-ns#"
   xmlns:svg="http://www.w3.org/2000/svg"
   xmlns="http://www.w3.org/2000/svg"
   xmlns:sodipodi="http://sodipodi.sourceforge.net/DTD/sodipodi-0.dtd"
   xmlns:inkscape="http://www.inkscape.org/namespaces/inkscape"
   id="svg2"
   version="1.1"
   inkscape:version="0.48.3.1 r9886"
   width="832"
   height="1169"
   sodipodi:docname="hantologie-_0005_petit-noir_hatched_1398276065.svg">
  <defs
     id="defs27" />
  <sodipodi:namedview
     pagecolor="#ffffff"
     bordercolor="#666666"
     borderopacity="1"
     objecttolerance="10"
     gridtolerance="10"
     guidetolerance="10"
     inkscape:pageopacity="0"
     inkscape:pageshadow="2"
     inkscape:window-width="640"
     inkscape:window-height="480"
     id="namedview25" />
  <metadata
     id="metadata8">
    <rdf:RDF>
      <cc:Work
         rdf:about="">
        <dc:format>image/svg+xml </dc:format>
        <dc:type
           rdf:resource="http://purl.org/dc/dcmitype/StillImage" />
        <dc:title />
      </cc:Work>
    </rdf:RDF>
  </metadata>
  <g
     inkscape:label="fill-0d0d0d"
     inkscape:groupmode="layer"
     id="fill-0d0d0d">
    <path
       style="stroke:#0d0d0d"
       d="M 269.889781,521.686501 l 0.000000,9.110217 M 274.889781,516.967957 l 0.000000,-11.496970 M 274.889781,522.160993 l 0.000000,13.399064 M 279.889781,521.992566 l 0.000000,-17.916748 M 279.889781,524.827068 l 0.000000,15.798053 M 284.889781,549.319289 l 0.000000,-43.729626 M 289.889781,504.119986 l 0.000000,27.109271 M 289.889781,555.319320 l 0.000000,-19.040024 M 294.889781,503.211084 l 0.000000,21.951277 M 294.889781,559.249404 l 0.000000,-18.439520 M 299.889781,505.243379 l 0.000000,19.133777 M 299.889781,561.263331 l 0.000000,-4.453799 M 304.889781,511.057097 l 0.000000,14.691065 M 304.889781,548.712858 l 0.000000,-4.384900 M 309.889781,522.656563 l 0.000000,4.172625 M 309.889781,550.615502 l 0.000000,-6.537348 M 309.889781,562.580304 l 0.000000,1.753501 M 314.889781,492.776687 l 0.000000,-1.689852 M 314.889781,558.120043 l 0.000000,8.123305 M 319.889781,560.501805 l 0.000000,-5.078993 M 324.889781,518.119444 l 0.000000,6.570362 M 324.889781,533.358198 l 0.000000,-2.154331 M 324.889781,548.923084 l 0.000000,3.777256 M 324.889781,557.529435 l 0.000000,-3.007546 M 324.889781,561.433495 l 0.000000,8.490335 M 329.889781,534.638676 l 0.000000,-12.476543 M 329.889781,550.359619 l 0.000000,7.450541 M 329.889781,572.799861 l 0.000000,-11.786300 M 334.889781,524.456424 l 0.000000,9.396852 M 334.889781,569.168871 l 0.000000,-27.479079 M 339.889781,513.593458 l 0.000000,8.367586 M 339.889781,534.888063 l 0.000000,-10.168386 M 339.889781,541.080403 l 0.000000,28.353945 M 339.889781,575.395768 l 0.000000,-1.147634 M 344.889781,515.406279 l 0.000000,5.824607 M 344.889781,568.484659 l 0.000000,-45.715545 M 349.889781,494.129200 l 0.000000,2.688872 M 349.889781,523.272577 l 0.000000,-4.560425 M 349.889781,528.677998 l 0.000000,37.609654 M 349.889781,582.923439 l 0.000000,-3.034995 M 354.889781,488.845314 l 0.000000,8.195984 M 354.889781,514.634757 l 0.000000,-3.952893 M 354.889781,520.511423 l 0.000000,4.955830 M 354.889781,570.360972 l 0.000000,-42.881657 M 354.889781,578.918633 l 0.000000,8.355565 M 359.889781,495.323481 l 0.000000,-19.976230 M 359.889781,507.129111 l 0.000000,84.420199 M 364.889781,535.054747 l 0.000000,-60.335157 M 364.889781,541.949571 l 0.000000,22.962738 M 364.889781,594.689610 l 0.000000,-25.885660 M 369.889781,473.094464 l 0.000000,56.006449 M 369.889781,547.455423 l 0.000000,-6.828560 M 369.889781,548.471242 l 0.000000,48.572507 M 374.889781,517.120974 l 0.000000,-49.945787 M 374.889781,536.588290 l 0.000000,28.627192 M 374.889781,598.912734 l 0.000000,-30.073695 M 379.889781,467.496966 l 0.000000,45.501062 M 379.889781,542.199010 l 0.000000,-7.958908 M 379.889781,551.243750 l 0.000000,13.348741 M 379.889781,600.262388 l 0.000000,-35.129416 M 384.889781,469.823936 l 0.000000,4.370561 M 384.889781,513.926769 l 0.000000,-3.963622 M 384.889781,537.121819 l 0.000000,63.060495 M 389.889781,468.858055 l 0.000000,-1.703369 M 389.889781,508.292647 l 0.000000,15.649784 M 389.889781,531.248284 l 0.000000,-1.454918 M 389.889781,535.720025 l 0.000000,2.380453 M 389.889781,599.542342 l 0.000000,-56.477854 M 394.889781,463.691850 l 0.000000,3.736570 M 394.889781,526.806244 l 0.000000,-13.584679 M 394.889781,529.642157 l 0.000000,0.550488 M 394.889781,560.514265 l 0.000000,-14.408281 M 394.889781,566.522592 l 0.000000,32.357319 M 399.889781,464.783918 l 0.000000,-8.201094 M 399.889781,513.293988 l 0.000000,9.643220 M 399.889781,595.178707 l 0.000000,-51.099506 M 404.889781,457.049324 l 0.000000,2.876242 M 404.889781,522.361048 l 0.000000,-9.343542 M 404.889781,526.679322 l 0.000000,0.970435 M 404.889781,576.884462 l 0.000000,-39.065500 M 404.889781,578.903482 l 0.000000,9.318999 M 404.889781,595.518158 l 0.000000,-3.711934 M 409.889781,512.508834 l 0.000000,5.969112 M 409.889781,585.566805 l 0.000000,-43.666509 M 409.889781,596.961392 l 0.000000,7.991560 M 414.889781,515.971787 l 0.000000,-4.332671 M 414.889781,551.865230 l 0.000000,33.342127 M 414.889781,607.470866 l 0.000000,-4.310910 M 419.889781,446.243806 l 0.000000,2.270420 M 419.889781,513.880013 l 0.000000,-3.748196 M 419.889781,548.243658 l 0.000000,5.237460 M 419.889781,586.353514 l 0.000000,-25.210239 M 419.889781,606.116512 l 0.000000,2.612197 M 424.889781,512.057662 l 0.000000,-4.217892 M 424.889781,563.468531 l 0.000000,19.869389 M 424.889781,593.734746 l 0.000000,-4.310213 M 429.889781,504.870310 l 0.000000,3.946074 M 429.889781,523.620727 l 0.000000,-2.527073 M 429.889781,566.849516 l 0.000000,11.777095 M 429.889781,593.699658 l 0.000000,-7.149096 M 429.889781,602.235480 l 0.000000,1.586498 M 434.889781,504.903476 l 0.000000,-4.139593 M 434.889781,560.198202 l 0.000000,13.842242 M 434.889781,591.960302 l 0.000000,-8.529332 M 439.889781,497.309148 l 0.000000,3.351754 M 439.889781,571.181582 l 0.000000,-15.116590 M 439.889781,580.917790 l 0.000000,9.997738 M 444.889781,497.476802 l 0.000000,-3.039468 M 444.889781,556.868737 l 0.000000,8.534056 M 444.889781,588.897335 l 0.000000,-13.713582 M 449.889781,490.908261 l 0.000000,3.777018 M 449.889781,569.549264 l 0.000000,-9.038621 M 449.889781,569.977537 l 0.000000,16.803377 M 454.889781,492.027073 l 0.000000,-5.405136 M 454.889781,514.893654 l 0.000000,5.454491 M 454.889781,536.106825 l 0.000000,-2.831469 M 454.889781,562.944826 l 0.000000,21.065349 M 459.889781,487.332996 l 0.000000,-4.818784 M 459.889781,516.869763 l 0.000000,2.349054 M 459.889781,583.392723 l 0.000000,-20.242784 M 464.889781,561.939692 l 0.000000,16.273189 M 469.889781,472.001606 l 0.000000,-1.055233 M 469.889781,557.164295 l 0.000000,3.908312 M 469.889781,580.055595 l 0.000000,-17.177368 M 474.889781,467.571035 l 0.000000,1.445581 M 474.889781,580.261168 l 0.000000,-21.317716 M 479.889781,551.621350 l 0.000000,2.083700 M 479.889781,578.776563 l 0.000000,-17.291301 M 484.889781,551.616836 l 0.000000,33.024465 M 489.889781,566.055616 l 0.000000,-12.221589 M 489.889781,575.914234 l 0.000000,14.635909 M 494.889781,549.517960 l 0.000000,-4.082830 M 494.889781,567.462914 l 0.000000,25.115565 M 499.889781,449.913599 l 0.000000,-5.299420 M 499.889781,573.694086 l 0.000000,6.252941 M 504.889781,444.593490 l 0.000000,-2.691573 M 504.889781,448.202196 l 0.000000,1.451202 M 509.889781,440.775760 l 0.000000,-1.672088 M 514.889781,436.275922 l 0.000000,0.751827 M 514.889781,452.616521 l 0.000000,-2.318865 M 524.889781,443.950560 l 0.000000,1.345224 M 534.889781,431.172692 l 0.000000,-1.133327 M 589.889781,326.223244 l 0.000000,2.061079 M 609.889781,316.198600 l 0.000000,-1.492403 M 614.889781,310.766073 l 0.000000,0.640857 M 624.889781,327.973055 l 0.000000,-0.932834 M 639.889781,333.682450 l 0.000000,1.671898"
       id="path5" />
  </g>
  <g
     inkscape:label="fill-303030"
     inkscape:groupmode="layer"
     id="fill-303030">
    <path
       style="stroke:#303030"
       d="M 260.014514,521.684229 l 0.000000,3.067618 M 267.014514,536.067357 l 0.000000,-16.615366 M 274.014514,496.219897 l 0.000000,47.852215 M 281.014514,550.199183 l 0.000000,-52.114287 M 288.014514,498.276722 l 0.000000,59.682706 M 295.014514,562.561470 l 0.000000,-63.797062 M 302.014514,494.249690 l 0.000000,3.800818 M 302.014514,527.219709 l 0.000000,-28.300785 M 302.014514,542.801772 l 0.000000,6.206646 M 302.014514,564.274225 l 0.000000,-9.785306 M 309.014514,505.148612 l 0.000000,23.558060 M 309.014514,572.055887 l 0.000000,-29.459418 M 316.014514,490.264787 l 0.000000,5.070512 M 316.014514,574.629706 l 0.000000,-32.479949 M 323.014514,509.051395 l 0.000000,25.193810 M 323.014514,574.532055 l 0.000000,-33.790395 M 330.014514,485.307865 l 0.000000,2.374641 M 330.014514,516.222356 l 0.000000,-8.882351 M 330.014514,520.072018 l 0.000000,54.827126 M 337.014514,486.648601 l 0.000000,-7.081055 M 337.014514,508.513639 l 0.000000,69.209934 M 344.014514,481.159835 l 0.000000,-5.633375 M 344.014514,487.782412 l 0.000000,13.782804 M 344.014514,577.021646 l 0.000000,-69.248577 M 351.014514,475.405600 l 0.000000,26.183810 M 351.014514,587.035232 l 0.000000,-79.906295 M 358.014514,468.971440 l 0.000000,31.818094 M 358.014514,591.356329 l 0.000000,-88.348572 M 365.014514,463.999436 l 0.000000,131.699967 M 372.014514,598.789700 l 0.000000,-138.014640 M 379.014514,460.431849 l 0.000000,57.759685 M 379.014514,601.046686 l 0.000000,-78.108045 M 386.014514,458.835844 l 0.000000,142.209583 M 393.014514,457.794279 l 0.000000,-5.409481 M 393.014514,462.401969 l 0.000000,12.377864 M 393.014514,600.472866 l 0.000000,-104.679460 M 400.014514,449.674421 l 0.000000,17.521571 M 400.014514,499.709950 l 0.000000,-5.100577 M 400.014514,502.602790 l 0.000000,21.314590 M 400.014514,533.172213 l 0.000000,-6.400148 M 400.014514,538.212494 l 0.000000,62.102684 M 407.014514,460.797291 l 0.000000,-11.742566 M 407.014514,501.446029 l 0.000000,3.904629 M 407.014514,523.618578 l 0.000000,-14.963416 M 407.014514,533.000000 l 0.000000,71.669041 M 414.014514,455.100392 l 0.000000,-5.163938 M 414.014514,506.587266 l 0.000000,11.097135 M 414.014514,543.624971 l 0.000000,-11.409888 M 414.014514,545.512787 l 0.000000,41.142526 M 414.014514,608.231103 l 0.000000,-12.626389 M 421.014514,443.499594 l 0.000000,5.911531 M 421.014514,514.820194 l 0.000000,-7.869278 M 421.014514,545.564224 l 0.000000,64.025060 M 428.014514,443.422983 l 0.000000,-5.018488 M 428.014514,499.612719 l 0.000000,12.128675 M 428.014514,526.575206 l 0.000000,-9.109101 M 428.014514,553.297633 l 0.000000,52.922376 M 435.014514,507.308613 l 0.000000,-11.354279 M 435.014514,514.473693 l 0.000000,10.733513 M 435.014514,593.503361 l 0.000000,-49.278914 M 435.014514,596.198514 l 0.000000,6.455263 M 442.014514,502.333399 l 0.000000,-15.603614 M 442.014514,515.401035 l 0.000000,9.668327 M 442.014514,534.098810 l 0.000000,-4.505354 M 442.014514,542.958002 l 0.000000,48.843243 M 449.014514,498.397101 l 0.000000,-15.326814 M 449.014514,513.839157 l 0.000000,11.113560 M 449.014514,534.930800 l 0.000000,-5.428939 M 449.014514,541.398798 l 0.000000,46.840629 M 456.014514,412.950580 l 0.000000,-0.737250 M 456.014514,437.307924 l 0.000000,2.131008 M 456.014514,499.723863 l 0.000000,-20.740888 M 456.014514,513.264490 l 0.000000,15.468966 M 456.014514,538.257103 l 0.000000,-6.314831 M 456.014514,542.852252 l 0.000000,7.711910 M 456.014514,585.252354 l 0.000000,-24.954932 M 456.014514,592.694351 l 0.000000,1.751033 M 463.014514,413.074985 l 0.000000,-2.209589 M 463.014514,474.021030 l 0.000000,18.336132 M 463.014514,500.152560 l 0.000000,-2.033938 M 463.014514,512.577926 l 0.000000,11.143499 M 463.014514,542.474859 l 0.000000,-3.969933 M 463.014514,560.771596 l 0.000000,24.691537 M 470.014514,489.338524 l 0.000000,-21.646814 M 470.014514,502.684576 l 0.000000,7.865682 M 470.014514,532.013542 l 0.000000,-0.054106 M 470.014514,555.378479 l 0.000000,29.094219 M 477.014514,485.422716 l 0.000000,-24.148708 M 477.014514,502.316784 l 0.000000,5.231059 M 477.014514,525.225108 l 0.000000,-1.971055 M 477.014514,532.625360 l 0.000000,6.825799 M 477.014514,554.038497 l 0.000000,-10.005971 M 477.014514,556.630719 l 0.000000,30.004322 M 484.014514,475.893311 l 0.000000,-22.114017 M 484.014514,532.514483 l 0.000000,54.589863 M 491.014514,451.836096 l 0.000000,-5.507619 M 491.014514,455.848695 l 0.000000,15.275760 M 491.014514,545.614548 l 0.000000,-8.418493 M 491.014514,551.591655 l 0.000000,44.314206 M 498.014514,464.626856 l 0.000000,-21.690536 M 498.014514,550.450933 l 0.000000,10.579241 M 498.014514,592.949516 l 0.000000,-27.002568 M 505.014514,427.119935 l 0.000000,2.851568 M 505.014514,437.815289 l 0.000000,-3.164640 M 505.014514,440.069457 l 0.000000,20.055874 M 505.014514,586.354881 l 0.000000,-10.949508 M 512.014514,423.131009 l 0.000000,4.066479 M 512.014514,433.739186 l 0.000000,-2.564144 M 512.014514,435.774190 l 0.000000,5.791394 M 512.014514,456.117202 l 0.000000,-12.234304 M 519.014514,418.246804 l 0.000000,4.950719 M 519.014514,451.741049 l 0.000000,-21.174079 M 526.014514,414.207539 l 0.000000,9.560143 M 526.014514,431.950397 l 0.000000,-5.424427 M 526.014514,433.385937 l 0.000000,6.227097 M 526.014514,446.616123 l 0.000000,-6.281073 M 533.014514,399.739334 l 0.000000,1.715236 M 533.014514,419.874640 l 0.000000,-8.305522 M 533.014514,422.828185 l 0.000000,3.849867 M 533.014514,434.138671 l 0.000000,-4.962584 M 533.014514,438.125406 l 0.000000,2.268980 M 540.014514,422.544654 l 0.000000,-13.756236 M 540.014514,424.638924 l 0.000000,4.595216 M 547.014514,381.912752 l 0.000000,-3.277925 M 547.014514,406.168182 l 0.000000,4.587645 M 547.014514,424.689473 l 0.000000,-9.745273 M 554.014514,375.975419 l 0.000000,3.962721 M 554.014514,391.273219 l 0.000000,-2.158080 M 554.014514,404.275574 l 0.000000,3.675534 M 554.014514,415.311161 l 0.000000,-3.577605 M 554.014514,416.997705 l 0.000000,3.430253 M 561.014514,378.297130 l 0.000000,-4.352033 M 561.014514,386.002110 l 0.000000,2.936156 M 561.014514,415.980654 l 0.000000,-2.089677 M 568.014514,373.151881 l 0.000000,3.016896 M 568.014514,386.499872 l 0.000000,-3.055047 M 568.014514,402.816954 l 0.000000,2.673675 M 568.014514,411.528764 l 0.000000,-1.350062 M 575.014514,381.511535 l 0.000000,2.549943 M 582.014514,381.295226 l 0.000000,-1.425649 M 582.014514,388.580468 l 0.000000,0.235761 M 589.014514,332.185038 l 0.000000,-11.544857 M 589.014514,385.136638 l 0.000000,2.856649 M 596.014514,324.073759 l 0.000000,-10.323387 M 596.014514,346.593911 l 0.000000,4.036065 M 596.014514,386.008683 l 0.000000,-3.925580 M 603.014514,319.599656 l 0.000000,2.848343 M 603.014514,346.339936 l 0.000000,-4.222677 M 610.014514,312.978147 l 0.000000,5.061307 M 610.014514,341.214122 l 0.000000,-4.644355 M 617.014514,307.289104 l 0.000000,4.642066 M 617.014514,335.888827 l 0.000000,-4.752878 M 617.014514,354.024924 l 0.000000,1.850697 M 624.014514,305.211994 l 0.000000,-3.218466 M 624.014514,326.074530 l 0.000000,4.422299 M 624.014514,350.886025 l 0.000000,-3.770741 M 631.014514,296.056136 l 0.000000,2.229029 M 631.014514,325.104831 l 0.000000,-3.950388 M 631.014514,340.914720 l 0.000000,4.545036 M 638.014514,290.837682 l 0.000000,-0.614465 M 638.014514,316.437592 l 0.000000,3.155790 M 652.014514,327.543708 l 0.000000,-5.683874 M 659.014514,317.552887 l 0.000000,1.849401 M 666.014514,311.595670 l 0.000000,-0.091198"
       id="path8" />
  </g>
  <g
     inkscape:label="fill-505050"
     inkscape:groupmode="layer"
     id="fill-505050">
    <path
       style="stroke:#505050"
       d="M 257.594152,519.861278 l 0.000000,4.297345 M 266.594152,539.925903 l 0.000000,-41.628401 M 275.594152,490.434483 l 0.000000,59.440102 M 284.594152,557.978641 l 0.000000,-65.349981 M 293.594152,492.320805 l 0.000000,72.948926 M 302.594152,535.863639 l 0.000000,-45.514490 M 302.594152,539.891981 l 0.000000,31.002139 M 311.594152,535.944940 l 0.000000,-47.526361 M 311.594152,541.569149 l 0.000000,33.531255 M 320.594152,496.804199 l 0.000000,-11.937244 M 320.594152,501.467410 l 0.000000,18.079984 M 320.594152,577.614665 l 0.000000,-52.931616 M 329.594152,479.533870 l 0.000000,10.559838 M 329.594152,579.671391 l 0.000000,-76.213345 M 338.594152,473.395578 l 0.000000,106.853478 M 347.594152,586.790598 l 0.000000,-118.254367 M 356.594152,461.136574 l 0.000000,130.065647 M 365.594152,596.514243 l 0.000000,-139.883903 M 374.594152,453.744292 l 0.000000,146.437107 M 383.594152,449.699730 l 0.000000,-1.498524 M 383.594152,452.815837 l 0.000000,149.118674 M 392.594152,600.681313 l 0.000000,-156.537058 M 401.594152,444.390470 l 0.000000,22.896821 M 401.594152,473.867265 l 0.000000,-5.043079 M 401.594152,480.026867 l 0.000000,2.428570 M 401.594152,602.602944 l 0.000000,-115.550356 M 410.594152,446.067516 l 0.000000,26.542311 M 410.594152,485.567595 l 0.000000,-6.215409 M 410.594152,491.389684 l 0.000000,28.965430 M 410.594152,607.394244 l 0.000000,-78.856794 M 419.594152,441.968410 l 0.000000,29.521213 M 419.594152,479.296817 l 0.000000,-5.738243 M 419.594152,488.755656 l 0.000000,1.439348 M 419.594152,516.655460 l 0.000000,-24.042058 M 419.594152,524.677425 l 0.000000,85.961885 M 428.594152,451.066612 l 0.000000,-15.930229 M 428.594152,456.559862 l 0.000000,15.823082 M 428.594152,514.431017 l 0.000000,-30.851883 M 428.594152,514.520778 l 0.000000,12.783944 M 428.594152,547.153304 l 0.000000,-17.126403 M 428.594152,548.742584 l 0.000000,58.566766 M 437.594152,445.704197 l 0.000000,-13.836085 M 437.594152,458.833870 l 0.000000,9.924813 M 437.594152,507.079519 l 0.000000,-30.540460 M 437.594152,509.236131 l 0.000000,84.561870 M 437.594152,605.668471 l 0.000000,-10.238409 M 437.594152,610.709409 l 0.000000,2.335444 M 446.594152,413.985024 l 0.000000,-2.195062 M 446.594152,427.773098 l 0.000000,9.575910 M 446.594152,446.420503 l 0.000000,-4.309668 M 446.594152,451.450043 l 0.000000,49.901605 M 446.594152,590.763894 l 0.000000,-88.331066 M 446.594152,600.682952 l 0.000000,3.171090 M 446.594152,613.058339 l 0.000000,-2.536175 M 455.594152,410.227821 l 0.000000,4.823061 M 455.594152,425.470869 l 0.000000,-3.230149 M 455.594152,428.658934 l 0.000000,5.852801 M 455.594152,442.108956 l 0.000000,-6.676612 M 455.594152,442.672623 l 0.000000,144.076502 M 455.594152,596.372089 l 0.000000,-4.689953 M 464.594152,409.164144 l 0.000000,6.568946 M 464.594152,425.663006 l 0.000000,-1.304807 M 464.594152,433.861330 l 0.000000,152.890512 M 473.594152,410.499816 l 0.000000,-1.018797 M 473.594152,429.208577 l 0.000000,164.525046 M 482.594152,485.514803 l 0.000000,-60.977321 M 482.594152,489.257893 l 0.000000,23.575337 M 482.594152,587.886228 l 0.000000,-70.376648 M 491.594152,424.476347 l 0.000000,48.160756 M 491.594152,483.841531 l 0.000000,-8.896894 M 491.594152,494.484992 l 0.000000,11.874195 M 491.594152,597.604528 l 0.000000,-74.265462 M 500.594152,410.386505 l 0.000000,1.718426 M 500.594152,418.450928 l 0.000000,-3.627478 M 500.594152,421.987663 l 0.000000,45.244429 M 500.594152,593.802286 l 0.000000,-38.876680 M 509.594152,409.426113 l 0.000000,3.619290 M 509.594152,461.280409 l 0.000000,-42.553449 M 509.594152,578.475560 l 0.000000,9.515017 M 518.594152,395.553882 l 0.000000,-0.336543 M 518.594152,405.300607 l 0.000000,3.845777 M 518.594152,456.023395 l 0.000000,-41.451108 M 527.594152,389.260204 l 0.000000,3.794218 M 527.594152,404.996049 l 0.000000,-4.129156 M 527.594152,411.172521 l 0.000000,37.178804 M 536.594152,389.719159 l 0.000000,-6.332343 M 536.594152,395.703317 l 0.000000,4.943782 M 536.594152,438.502833 l 0.000000,-31.112839 M 545.594152,378.516385 l 0.000000,10.151833 M 545.594152,396.376644 l 0.000000,-5.321407 M 545.594152,403.349935 l 0.000000,24.142846 M 554.594152,392.525833 l 0.000000,-18.027368 M 554.594152,399.001137 l 0.000000,22.927536 M 563.594152,389.211341 l 0.000000,-18.090218 M 563.594152,394.171810 l 0.000000,22.127286 M 572.594152,376.511266 l 0.000000,-6.830137 M 572.594152,380.040555 l 0.000000,6.115519 M 572.594152,410.724570 l 0.000000,-20.466681 M 581.594152,334.230157 l 0.000000,5.462812 M 581.594152,383.025168 l 0.000000,-4.275631 M 581.594152,386.693393 l 0.000000,12.863390 M 581.594152,405.278140 l 0.000000,-3.738133 M 590.594152,315.833114 l 0.000000,16.547424 M 590.594152,354.092533 l 0.000000,-5.733921 M 590.594152,378.208555 l 0.000000,1.211999 M 590.594152,394.113734 l 0.000000,-11.342115 M 590.594152,397.874990 l 0.000000,2.266194 M 599.594152,326.430393 l 0.000000,-20.360942 M 599.594152,340.936816 l 0.000000,9.380559 M 599.594152,389.049630 l 0.000000,-9.613934 M 608.594152,296.435191 l 0.000000,7.304167 M 608.594152,322.061951 l 0.000000,-13.109316 M 608.594152,332.113842 l 0.000000,12.454839 M 608.594152,365.199383 l 0.000000,-2.650043 M 608.594152,376.288101 l 0.000000,7.498660 M 617.594152,319.732755 l 0.000000,-15.207715 M 617.594152,322.674839 l 0.000000,16.665285 M 617.594152,358.119762 l 0.000000,-6.340114 M 617.594152,373.387839 l 0.000000,5.194968 M 626.594152,333.657790 l 0.000000,-35.701512 M 626.594152,342.842395 l 0.000000,7.949993 M 626.594152,376.436571 l 0.000000,-5.727233 M 635.594152,285.829045 l 0.000000,48.138838 M 635.594152,343.059256 l 0.000000,-8.577287 M 635.594152,368.311044 l 0.000000,1.894342 M 644.594152,287.079257 l 0.000000,-8.856434 M 644.594152,295.906334 l 0.000000,28.143684 M 653.594152,277.688732 l 0.000000,-9.486232 M 653.594152,292.135569 l 0.000000,34.978758 M 662.594152,297.953313 l 0.000000,-10.481787 M 662.594152,301.336118 l 0.000000,6.566420 M 662.594152,319.097457 l 0.000000,-6.366519 M 671.594152,282.298772 l 0.000000,5.869849 M 671.594152,297.347782 l 0.000000,-1.549105 M 671.594152,305.775991 l 0.000000,5.290233 M 680.594152,278.071829 l 0.000000,-0.751054"
       id="path11" />
  </g>
  <g
     inkscape:label="fill-6e6e6e"
     inkscape:groupmode="layer"
     id="fill-6e6e6e">
    <path
       style="stroke:#6e6e6e"
       d="M 242.617115,505.794009 l 0.000000,3.207727 M 253.617115,515.462384 l 0.000000,-8.199006 M 253.617115,518.741441 l 0.000000,0.491006 M 264.617115,493.160317 l 0.000000,-1.960456 M 264.617115,499.002730 l 0.000000,40.883777 M 275.617115,551.724107 l 0.000000,-62.575360 M 286.617115,486.845129 l 0.000000,74.366060 M 297.617115,569.165208 l 0.000000,-85.947787 M 308.617115,478.396955 l 0.000000,59.824624 M 308.617115,574.640107 l 0.000000,-34.711133 M 319.617115,462.986391 l 0.000000,57.220743 M 319.617115,578.205349 l 0.000000,-55.561497 M 330.617115,454.258114 l 0.000000,16.154602 M 330.617115,581.142977 l 0.000000,-107.529698 M 341.617115,447.227167 l 0.000000,4.140458 M 341.617115,585.160094 l 0.000000,-132.242096 M 352.617115,445.812000 l 0.000000,144.185564 M 363.617115,446.501291 l 0.000000,-7.040115 M 363.617115,452.297604 l 0.000000,143.567350 M 374.617115,441.426191 l 0.000000,-7.078149 M 374.617115,447.200228 l 0.000000,153.823504 M 385.617115,433.691145 l 0.000000,-4.552661 M 385.617115,442.608713 l 0.000000,159.481386 M 396.617115,431.465585 l 0.000000,-7.358396 M 396.617115,441.395586 l 0.000000,159.985901 M 407.617115,427.476158 l 0.000000,-7.807774 M 407.617115,440.132287 l 0.000000,165.889919 M 418.617115,407.129671 l 0.000000,-0.813660 M 418.617115,415.918137 l 0.000000,7.965739 M 418.617115,519.107861 l 0.000000,-80.792179 M 418.617115,521.547987 l 0.000000,90.541183 M 429.617115,403.425176 l 0.000000,-2.313007 M 429.617115,410.762108 l 0.000000,10.291027 M 429.617115,608.326153 l 0.000000,-177.505589 M 429.617115,609.754973 l 0.000000,4.004419 M 440.617115,399.514128 l 0.000000,-3.063919 M 440.617115,404.789739 l 0.000000,14.291242 M 440.617115,596.204162 l 0.000000,-168.342675 M 440.617115,599.847833 l 0.000000,14.940506 M 451.617115,418.947136 l 0.000000,-26.245286 M 451.617115,422.240160 l 0.000000,167.107319 M 451.617115,600.435486 l 0.000000,-6.366227 M 462.617115,388.415719 l 0.000000,199.352289 M 473.617115,595.478699 l 0.000000,-210.847780 M 484.617115,381.364128 l 0.000000,14.386644 M 484.617115,593.675836 l 0.000000,-194.188783 M 495.617115,380.033104 l 0.000000,6.743322 M 495.617115,506.701605 l 0.000000,-103.720742 M 495.617115,524.917989 l 0.000000,72.057770 M 506.617115,467.588569 l 0.000000,-68.693048 M 506.617115,566.434029 l 0.000000,29.507927 M 517.617115,458.133418 l 0.000000,-64.799535 M 528.617115,386.468656 l 0.000000,62.599544 M 539.617115,377.412571 l 0.000000,-7.372743 M 539.617115,379.599203 l 0.000000,21.436093 M 539.617115,437.479464 l 0.000000,-35.398675 M 550.617115,367.852255 l 0.000000,27.809904 M 550.617115,427.519680 l 0.000000,-29.626895 M 561.617115,346.333334 l 0.000000,11.385311 M 561.617115,391.318352 l 0.000000,-22.532543 M 561.617115,392.105770 l 0.000000,27.467907 M 572.617115,342.122671 l 0.000000,-8.017582 M 572.617115,345.253317 l 0.000000,4.320325 M 572.617115,412.032817 l 0.000000,-55.643924 M 583.617115,320.733853 l 0.000000,19.519719 M 583.617115,405.442166 l 0.000000,-61.567159 M 594.617115,302.164298 l 0.000000,62.962473 M 594.617115,398.964798 l 0.000000,-24.479733 M 605.617115,283.601103 l 0.000000,73.087822 M 605.617115,369.020801 l 0.000000,-5.282372 M 605.617115,376.115904 l 0.000000,11.342650 M 605.617115,392.349036 l 0.000000,-1.979469 M 616.617115,270.466429 l 0.000000,73.918874 M 616.617115,360.644266 l 0.000000,-14.914383 M 616.617115,372.896997 l 0.000000,13.621769 M 627.617115,274.731987 l 0.000000,-9.809183 M 627.617115,281.754460 l 0.000000,69.411429 M 627.617115,379.280883 l 0.000000,-9.829060 M 638.617115,276.232762 l 0.000000,65.093995 M 638.617115,372.405285 l 0.000000,-6.398637 M 649.617115,265.804323 l 0.000000,65.703915 M 649.617115,367.330246 l 0.000000,-4.696759 M 660.617115,266.589264 l 0.000000,55.116510 M 660.617115,363.137972 l 0.000000,-3.587033 M 671.617115,262.981089 l 0.000000,37.748328 M 671.617115,312.161936 l 0.000000,-7.233787 M 671.617115,357.734256 l 0.000000,1.640984 M 682.617115,262.795173 l 0.000000,-1.335932 M 682.617115,266.765780 l 0.000000,23.860349 M 682.617115,302.496601 l 0.000000,-2.004975 M 682.617115,355.292059 l 0.000000,0.515911 M 693.617115,271.066474 l 0.000000,-7.571951 M 693.617115,274.570528 l 0.000000,6.768448 M 704.617115,273.385224 l 0.000000,-5.747427 M 715.617115,259.399275 l 0.000000,6.121800 M 726.617115,253.299538 l 0.000000,-2.005863"
       id="path14" />
  </g>
  <g
     inkscape:label="fill-8b8b8b"
     inkscape:groupmode="layer"
     id="fill-8b8b8b">
    <path
       style="stroke:#8b8b8b"
       d="M 225.209568,502.816617 l 0.000000,1.514586 M 238.209568,510.266810 l 0.000000,-7.032786 M 251.209568,497.403438 l 0.000000,5.113156 M 251.209568,519.142307 l 0.000000,-13.158053 M 264.209568,490.041542 l 0.000000,51.028168 M 277.209568,554.519858 l 0.000000,-66.950503 M 290.209568,483.210982 l 0.000000,81.872353 M 303.209568,572.984093 l 0.000000,-100.351045 M 316.209568,462.153174 l 0.000000,115.644792 M 329.209568,581.947575 l 0.000000,-130.210979 M 342.209568,442.132421 l 0.000000,144.244586 M 355.209568,591.976791 l 0.000000,-158.811187 M 368.209568,426.014336 l 0.000000,172.733676 M 381.209568,602.714490 l 0.000000,-183.469802 M 394.209568,412.913714 l 0.000000,188.460103 M 394.209568,625.940916 l 0.000000,-3.908992 M 407.209568,406.932807 l 0.000000,199.479188 M 407.209568,620.333897 l 0.000000,-4.357990 M 420.209568,401.288001 l 0.000000,215.343505 M 433.209568,615.632761 l 0.000000,-219.668953 M 446.209568,390.910029 l 0.000000,203.362248 M 446.209568,616.844515 l 0.000000,-17.469674 M 459.209568,386.380455 l 0.000000,209.542367 M 472.209568,599.005519 l 0.000000,-216.822558 M 485.209568,378.428770 l 0.000000,218.198423 M 498.209568,386.960182 l 0.000000,-10.820936 M 498.209568,400.285084 l 0.000000,110.237166 M 498.209568,597.081990 l 0.000000,-73.781024 M 511.209568,393.987937 l 0.000000,72.567985 M 511.209568,500.365423 l 0.000000,-0.967092 M 511.209568,574.346849 l 0.000000,30.979474 M 524.209568,456.316117 l 0.000000,-70.896300 M 537.209568,371.254727 l 0.000000,75.936026 M 550.209568,428.871850 l 0.000000,-73.494493 M 563.209568,339.362711 l 0.000000,80.295216 M 576.209568,410.765138 l 0.000000,-90.164943 M 589.209568,298.200094 l 0.000000,104.785633 M 602.209568,372.160058 l 0.000000,-86.775848 M 602.209568,375.649220 l 0.000000,19.904177 M 615.209568,362.957735 l 0.000000,-97.361629 M 615.209568,372.580874 l 0.000000,16.213790 M 628.209568,276.348218 l 0.000000,-13.540630 M 628.209568,279.433669 l 0.000000,72.374966 M 628.209568,382.118565 l 0.000000,-13.526408 M 641.209568,265.419839 l 0.000000,3.578187 M 641.209568,340.101684 l 0.000000,-66.774271 M 641.209568,364.386430 l 0.000000,11.063183 M 654.209568,328.214044 l 0.000000,-63.739711 M 654.209568,360.272371 l 0.000000,10.691946 M 667.209568,316.807969 l 0.000000,-54.285363 M 667.209568,357.415891 l 0.000000,5.841090 M 667.209568,369.546654 l 0.000000,-4.121562 M 680.209568,260.338200 l 0.000000,34.003482 M 680.209568,305.344788 l 0.000000,-4.605808 M 680.209568,354.404607 l 0.000000,5.223315 M 693.209568,283.063463 l 0.000000,-21.313690 M 693.209568,351.599778 l 0.000000,6.876963 M 706.209568,273.733812 l 0.000000,-13.952066 M 706.209568,351.078911 l 0.000000,2.088578 M 719.209568,264.168484 l 0.000000,-11.051081 M 732.209568,248.906487 l 0.000000,4.402885"
       id="path17" />
  </g>
  <g
     inkscape:label="fill-aeaeae"
     inkscape:groupmode="layer"
     id="fill-aeaeae">
    <path
       style="stroke:#aeaeae"
       d="M 228.885850,488.476217 l 0.000000,4.661924 M 228.885850,507.610412 l 0.000000,-6.981548 M 243.885850,491.930575 l 0.000000,6.455981 M 243.885850,514.336499 l 0.000000,-10.867983 M 258.885850,492.294330 l 0.000000,40.282579 M 273.885850,552.325255 l 0.000000,-65.009434 M 288.885850,483.217743 l 0.000000,81.721095 M 303.885850,574.076103 l 0.000000,-103.669884 M 318.885850,458.630680 l 0.000000,120.736859 M 333.885850,584.003963 l 0.000000,-137.176250 M 348.885850,436.020399 l 0.000000,153.576448 M 363.885850,597.102956 l 0.000000,-170.216612 M 378.885850,419.120522 l 0.000000,184.210438 M 393.885850,602.494270 l 0.000000,-190.984231 M 393.885850,620.995878 l 0.000000,6.465019 M 408.885850,607.981219 l 0.000000,-203.061764 M 408.885850,614.260196 l 0.000000,7.472875 M 423.885850,617.342738 l 0.000000,-218.739245 M 438.885850,392.564949 l 0.000000,224.344746 M 453.885850,621.593840 l 0.000000,-234.430425 M 468.885850,382.166158 l 0.000000,222.026688 M 483.885850,597.308336 l 0.000000,-219.720766 M 498.885850,375.078663 l 0.000000,12.433429 M 498.885850,512.444917 l 0.000000,-113.662115 M 498.885850,518.160188 l 0.000000,80.650601 M 513.885850,474.661830 l 0.000000,-84.099204 M 513.885850,579.187962 l 0.000000,30.469116 M 528.885850,455.705613 l 0.000000,-76.244871 M 543.885850,361.138323 l 0.000000,73.746632 M 543.885850,446.934311 l 0.000000,-7.600383 M 558.885850,342.950444 l 0.000000,80.792804 M 573.885850,413.377140 l 0.000000,-93.521709 M 588.885850,295.960202 l 0.000000,108.131386 M 603.885850,372.771746 l 0.000000,-92.961954 M 603.885850,373.806603 l 0.000000,22.271064 M 618.885850,360.993039 l 0.000000,-99.935475 M 618.885850,370.745269 l 0.000000,19.841618 M 633.885850,272.761694 l 0.000000,-14.271303 M 633.885850,276.757678 l 0.000000,70.940046 M 633.885850,388.290310 l 0.000000,-22.157240 M 648.885850,263.670935 l 0.000000,70.319894 M 648.885850,381.318435 l 0.000000,-19.884232 M 663.885850,262.133358 l 0.000000,58.464136 M 663.885850,375.155509 l 0.000000,-17.872314 M 678.885850,259.147735 l 0.000000,37.306859 M 678.885850,307.450709 l 0.000000,-6.859840 M 678.885850,353.830310 l 0.000000,14.572859 M 693.885850,283.530054 l 0.000000,-22.768124 M 693.885850,350.564485 l 0.000000,12.072275 M 708.885850,272.902361 l 0.000000,-16.435047 M 708.885850,349.033841 l 0.000000,3.258531 M 723.885850,261.570371 l 0.000000,-12.533052 M 738.885850,243.443374 l 0.000000,4.014953"
       id="path20" />
  </g>
  <g
     inkscape:label="fill-cfcfcf"
     inkscape:groupmode="layer"
     id="fill-cfcfcf">
    <path
       style="stroke:#cfcfcf"
       d="M 232.328078,486.563344 l 0.000000,8.470596 M 232.328078,510.507756 l 0.000000,-10.969770 M 249.328078,487.451839 l 0.000000,31.893086 M 266.328078,546.761339 l 0.000000,-58.980911 M 283.328078,484.883034 l 0.000000,77.110976 M 300.328078,573.734097 l 0.000000,-102.305890 M 317.328078,458.074908 l 0.000000,121.939662 M 334.328078,585.207060 l 0.000000,-140.386671 M 351.328078,433.024478 l 0.000000,158.627668 M 368.328078,600.286036 l 0.000000,-177.223677 M 385.328078,414.315793 l 0.000000,189.881923 M 385.328078,638.857615 l 0.000000,-14.280637 M 402.328078,406.172101 l 0.000000,199.799204 M 402.328078,626.953171 l 0.000000,-10.762999 M 419.328078,399.051798 l 0.000000,221.533573 M 436.328078,618.315922 l 0.000000,-225.862143 M 453.328078,386.255314 l 0.000000,237.497746 M 470.328078,604.817196 l 0.000000,-224.344829 M 487.328078,375.460691 l 0.000000,226.173630 M 504.328078,386.818844 l 0.000000,-12.936981 M 504.328078,394.461201 l 0.000000,116.252054 M 504.328078,529.248249 l 0.000000,-6.739357 M 504.328078,545.020383 l 0.000000,62.047063 M 521.328078,461.253425 l 0.000000,-77.160442 M 538.328078,365.937411 l 0.000000,88.008903 M 555.328078,427.424702 l 0.000000,-82.014743 M 555.328078,444.640170 l 0.000000,1.920682 M 572.328078,415.667946 l 0.000000,-96.353349 M 589.328078,294.103866 l 0.000000,111.559202 M 606.328078,398.484805 l 0.000000,-124.792733 M 623.328078,257.131879 l 0.000000,101.512803 M 623.328078,393.057835 l 0.000000,-24.647057 M 640.328078,256.320259 l 0.000000,2.612572 M 640.328078,343.070318 l 0.000000,-79.639528 M 640.328078,363.245616 l 0.000000,25.287049 M 657.328078,327.486653 l 0.000000,-66.811196 M 657.328078,358.015225 l 0.000000,22.293979 M 674.328078,312.821263 l 0.000000,-54.077226 M 674.328078,353.621257 l 0.000000,18.162894 M 691.328078,287.299068 l 0.000000,-28.178678 M 691.328078,293.567679 l 0.000000,4.430337 M 691.328078,365.476966 l 0.000000,-15.519300 M 708.328078,255.374569 l 0.000000,19.300572 M 708.328078,354.197462 l 0.000000,-6.332866 M 725.328078,246.826289 l 0.000000,15.283120"
       id="path23" />
  </g>
</svg>
