<?xml version="1.0" encoding="UTF-8" standalone="no"?>
<!-- Created with Inkscape (http://www.inkscape.org/) -->

<svg
   xmlns:dc="http://purl.org/dc/elements/1.1/"
   xmlns:cc="http://creativecommons.org/ns#"
   xmlns:rdf="http://www.w3.org/1999/02/22-rdf-syntax-ns#"
   xmlns:svg="http://www.w3.org/2000/svg"
   xmlns="http://www.w3.org/2000/svg"
   xmlns:sodipodi="http://sodipodi.sourceforge.net/DTD/sodipodi-0.dtd"
   xmlns:inkscape="http://www.inkscape.org/namespaces/inkscape"
   id="svg2"
   version="1.1"
   inkscape:version="0.48.3.1 r9886"
   width="1500"
   height="1269"
   sodipodi:docname="hantologie-_0001_oiseau-noir_hatched_1398271346.svg">
  <defs
     id="defs27" />
  <sodipodi:namedview
     pagecolor="#ffffff"
     bordercolor="#666666"
     borderopacity="1"
     objecttolerance="10"
     gridtolerance="10"
     guidetolerance="10"
     inkscape:pageopacity="0"
     inkscape:pageshadow="2"
     inkscape:window-width="640"
     inkscape:window-height="480"
     id="namedview25" />
  <metadata
     id="metadata8">
    <rdf:RDF>
      <cc:Work
         rdf:about="">
        <dc:format>image/svg+xml </dc:format>
        <dc:type
           rdf:resource="http://purl.org/dc/dcmitype/StillImage" />
        <dc:title />
      </cc:Work>
    </rdf:RDF>
  </metadata>
  <g
     inkscape:label="fill-0c0c0c"
     inkscape:groupmode="layer"
     id="fill-0c0c0c">
    <path
       style="stroke:#0c0c0c"
       d="M 509.491566,377.293763 l -35.245274,1.847127 M 534.504185,385.996631 l 2.994876,-0.156955 M 512.489508,387.150371 l -57.713639,3.024644 M 454.065286,400.225978 l 59.429321,-3.114559 M 511.675835,407.220461 l -60.162787,3.152998 M 525.220418,416.524343 l 28.432193,-1.490068 M 510.272020,417.307755 l -55.673324,2.917715 M 568.683101,424.260283 l 8.177820,-0.428581 M 550.391634,425.218898 l -8.888298,0.465816 M 451.339295,430.410012 l 45.612786,-2.390465 M 585.448886,433.395349 l -19.775573,1.036394 M 541.870312,435.679205 l 4.580264,-0.240041 M 517.256775,436.969146 l -16.810687,0.881011 M 446.428522,440.681098 l 26.802575,-1.404663 M 594.971643,442.910006 l -23.233611,1.217622 M 558.137274,444.840414 l 12.538478,-0.657114 M 541.429195,445.716047 l -57.829524,3.030717 M 447.142604,450.657398 l 3.905906,-0.204700 M 605.313011,452.381761 l -24.639065,1.291279 M 491.771805,458.332204 l 68.029321,-3.565266 M 487.157196,458.574045 l -18.358750,0.962141 M 450.968282,460.470626 l 2.086848,-0.109367 M 436.792099,461.213568 l -3.440250,0.180296 M 585.113942,463.454073 l 31.511898,-1.651469 M 569.548396,464.269829 l -84.877218,4.448227 M 474.435982,469.254459 l 4.537654,-0.237808 M 291.030315,478.866343 l -27.008047,1.415432 M 584.910189,473.478475 l 37.730655,-1.977380 M 568.331223,474.347342 l -35.130122,1.841092 M 476.028581,479.184718 l 49.712215,-2.605307 M 471.258900,479.434687 l -5.968374,0.312789 M 407.677584,482.766842 l 19.139981,-1.003084 M 294.938987,488.675222 l -26.714857,1.400066 M 579.197493,483.791588 l 42.050727,-2.203785 M 562.771631,484.652431 l -31.633529,1.657843 M 454.841511,490.308809 l 70.505786,-3.695052 M 449.603507,490.583321 l -6.611213,0.346479 M 371.862696,494.657544 l 51.425811,-2.695113 M 367.082848,494.908046 l -38.743393,2.030455 M 286.925828,499.108897 l 12.961399,-0.679278 M 609.039729,492.241346 l -36.074023,1.890559 M 532.598962,496.247437 l 22.843223,-1.197163 M 515.785822,497.128576 l -43.313590,2.269969 M 429.972068,501.625885 l 28.782481,-1.508426 M 417.385834,502.285501 l -90.061296,4.719913 M 313.593369,507.725034 l 5.558582,-0.291313 M 301.713249,508.347645 l -6.801094,0.356430 M 558.555119,504.900856 l 46.564110,-2.440322 M 502.497260,507.838724 l -91.185909,4.778851 M 333.009347,516.721209 l 73.574076,-3.855854 M 319.184335,517.445747 l -17.420937,0.912993 M 553.762235,515.165764 l 18.503671,-0.969736 M 522.810768,516.787862 l -66.504843,3.485371 M 443.208028,520.959664 l 8.583528,-0.449844 M 437.493162,521.259168 l -9.943922,0.521139 M 325.068350,527.151103 l 70.797063,-3.710317 M 321.941805,527.314958 l -3.294564,0.172661 M 575.333510,524.048985 l 4.823637,-0.252796 M 572.582603,524.193154 l -28.167213,1.476181 M 465.986450,529.779621 l 59.646698,-3.125951 M 461.633106,530.007770 l -5.453543,0.285808 M 437.884008,531.252408 l 7.430313,-0.389406 M 428.743381,531.731448 l -1.510077,0.079140 M 416.533837,532.371323 l 7.499169,-0.393015 M 405.791414,532.934309 l -7.114507,0.372856 M 337.187325,536.529697 l 35.141937,-1.841711 M 329.729700,536.920535 l -2.754585,0.144362 M 542.154563,535.801543 l 42.624864,-2.233874 M 522.603172,536.826188 l -1.786273,0.093615 M 459.685389,540.123569 l 56.989717,-2.986704 M 440.738341,541.116542 l -8.179098,0.428648 M 411.479713,542.649922 l 12.651186,-0.663021 M 588.906979,543.365076 l -43.305778,2.269560 M 537.173593,546.076308 l 5.268443,-0.276107 M 525.728459,546.676122 l -77.728459,4.073576 M 384.517386,554.076681 l 51.477326,-2.697812 M 373.948932,554.630550 l -10.619218,0.556530 M 563.657094,554.702090 l 32.789671,-1.718434 M 541.200268,555.879003 l -7.407744,0.388223 M 513.694923,557.320497 l 12.116926,-0.635021 M 505.702609,557.739356 l -73.182083,3.835310 M 389.014374,563.854727 l 29.820070,-1.562804 M 603.295543,562.638451 l -12.766909,0.669085 M 540.294073,565.940218 l 0.125282,-0.006566 M 524.453318,566.770396 l -4.454384,0.233444 M 486.603430,568.754025 l 5.920255,-0.310267 M 483.241884,568.930196 l -76.503341,4.009370 M 574.665676,574.152602 l 22.764477,-1.193036 M 567.569558,574.524494 l -7.440721,0.389952 M 545.367533,575.688052 l 5.404540,-0.283240 M 536.701979,576.142195 l -5.220032,0.273570 M 455.090359,580.419279 l 27.751725,-1.454406 M 446.871925,580.849988 l -46.212481,2.421894 M 365.395786,585.119972 l 3.953108,-0.207174 M 580.204897,583.876027 l -2.832217,0.148430 M 539.489914,586.009809 l 23.031617,-1.207036 M 521.292114,586.963515 l -21.427883,1.122988 M 484.084276,588.913495 l 11.170975,-0.585446 M 472.353740,589.528267 l -68.369541,3.583096 M 398.500360,593.398758 l 0.775986,-0.040668 M 383.448869,594.187573 l -0.995102,0.052151 M 582.529368,593.767930 l 14.330351,-0.751022 M 536.428605,596.183969 l -0.623477,0.032675 M 519.282334,597.082567 l 1.938506,-0.101593 M 510.799133,597.527152 l -2.691242,0.141042 M 400.395343,603.313170 l 67.123738,-3.517806 M 584.226368,603.692717 l -0.958634,0.050240"
       id="path5" />
  </g>
  <g
     inkscape:label="fill-2d2d2d"
     inkscape:groupmode="layer"
     id="fill-2d2d2d">
    <path
       style="stroke:#2d2d2d"
       d="M 507.105128,366.948365 l -30.039776,8.049134 M 466.072583,377.943002 l 2.045090,-0.547980 M 533.448143,370.242538 l -6.460320,1.731038 M 446.778308,393.465650 l 64.903518,-17.390845 M 550.094185,376.135006 l -20.431891,5.474709 M 440.433650,405.518458 l 73.843305,-19.786254 M 558.900752,384.128055 l -26.135271,7.002925 M 447.069041,414.093272 l 68.023425,-18.226822 M 441.607516,415.556683 l -7.793314,2.088212 M 261.422878,463.837011 l 18.257305,-4.892030 M 577.530229,389.489064 l -17.186233,4.605037 M 519.926958,404.923814 l 16.227895,-4.348251 M 512.907336,406.804716 l -62.305784,16.694784 M 443.700372,425.348666 l 2.497683,-0.669252 M 433.132255,428.180384 l -2.484028,0.665593 M 303.607135,462.886535 l 9.701996,-2.599642 M 269.492333,472.027569 l -5.785552,1.550234 M 567.487429,402.532786 l 22.420762,-6.007625 M 540.500657,409.763869 l -25.285931,6.775345 M 445.910297,435.109280 l 65.225950,-17.477241 M 322.969638,468.051130 l -4.186390,1.121740 M 259.537358,485.047759 l 43.337903,-11.612356 M 582.448377,408.876773 l -25.447120,6.818535 M 439.698814,447.126403 l 115.675782,-30.995232 M 429.672204,449.813026 l -3.437334,0.921031 M 333.118949,475.684392 l 3.246396,-0.869869 M 299.705192,484.637581 l -37.538513,10.058414 M 566.948052,423.382835 l 18.800738,-5.037643 M 551.345160,427.563617 l -118.773387,31.825233 M 427.663212,460.704095 l 3.871750,-1.037432 M 345.265330,482.782541 l -23.554889,6.311514 M 270.529333,502.807991 l 32.564915,-8.725743 M 595.773420,426.011863 l -31.391870,8.411426 M 441.403902,467.375050 l 115.294795,-30.893147 M 431.633329,469.993067 l -10.814647,2.897776 M 408.804464,476.110043 l 4.998608,-1.339373 M 384.900163,482.515181 l -2.209438,0.592017 M 326.278242,498.222878 l 31.110216,-8.335957 M 325.212390,498.508472 l -42.745906,11.453731 M 553.398876,447.718849 l 55.648343,-14.910928 M 547.096774,449.407492 l -114.880092,30.782028 M 325.397514,508.811630 l 104.308466,-27.949369 M 324.171903,509.140031 l -32.131829,8.609698 M 440.723835,488.262797 l 178.275260,-47.768712 M 431.853914,490.639485 l -127.845240,34.256029 M 582.901959,460.519045 l 39.595969,-10.609708 M 572.550830,463.292622 l -257.325003,68.950027 M 583.428943,470.730602 l 42.315114,-11.338301 M 570.121552,474.296307 l -247.057413,66.198834 M 578.142859,482.499766 l 47.160332,-12.636573 M 562.509713,486.688655 l -31.353219,8.401070 M 393.015451,532.104505 l 127.485526,-34.159644 M 376.991418,536.398132 l -35.354150,9.473116 M 570.682215,494.851602 l 52.942718,-14.185959 M 553.211686,499.532816 l -15.128867,4.053768 M 528.897324,506.047829 l 8.660263,-2.320511 M 516.711235,509.313082 l -125.091502,33.518167 M 367.327234,549.340404 l 13.273487,-3.556620 M 617.553433,492.645258 l -68.688497,18.405027 M 359.565241,561.772986 l 165.639859,-44.383066 M 603.670873,506.717841 l -19.824039,5.311835 M 544.009373,522.704092 l 35.994555,-9.644712 M 527.720141,527.068778 l -148.986726,39.920873 M 657.961780,502.523398 l 4.727031,-1.266604 M 655.150732,503.276616 l -6.487890,1.738425 M 601.044070,517.774452 l 6.415437,-1.719011 M 600.427744,517.939596 l -9.017652,2.416273 M 541.379492,533.761528 l 46.645672,-12.498670 M 526.875524,537.647854 l -148.063726,39.673556 M 359.143671,582.591469 l 8.157490,-2.185793 M 620.621798,522.881378 l -4.895483,1.311741 M 535.760234,545.619965 l 75.099037,-20.122726 M 527.453194,547.845830 l -140.308499,37.595549 M 367.941711,590.586803 l 9.404383,-2.519897 M 627.361725,531.428182 l -251.037476,67.265289 M 391.042177,605.102575 l 248.004318,-66.452557 M 638.854906,549.054117 l -11.467277,3.072648 M 519.810492,580.951971 l 105.677952,-28.316322 M 515.739572,582.042771 l -107.119483,28.702579 M 424.324048,616.890249 l 207.369108,-55.564385 M 625.792637,573.259665 l -3.699586,0.991301 M 498.109285,607.472316 l 108.662616,-29.116060 M 601.245595,590.189786 l -32.540990,8.719332 M 502.217815,616.724200 l 55.606377,-14.899684 M 596.563030,601.797238 l -14.303152,3.832518 M 572.956015,618.475480 l 2.471872,-0.662336 M 824.828352,623.455824 l -3.313133,0.887751"
       id="path8" />
  </g>
  <g
     inkscape:label="fill-505050"
     inkscape:groupmode="layer"
     id="fill-505050">
    <path
       style="stroke:#505050"
       d="M 275.925638,454.418154 l -18.343090,9.346271 M 275.685922,466.885884 l 16.025249,-8.165272 M 269.089294,470.247034 l -6.450810,3.286852 M 252.883847,478.504122 l 6.142263,-3.129639 M 555.691890,336.561306 l -2.539061,1.293716 M 502.524828,363.651278 l 4.561666,-2.324285 M 492.277395,368.872606 l -46.199563,23.539853 M 296.989147,468.376938 l 19.036196,-9.699426 M 286.409318,473.767630 l -29.203919,14.880140 M 545.889129,353.901651 l 18.932250,-9.646463 M 529.010903,362.501537 l -93.681744,47.733232 M 311.599599,473.278129 l 12.377661,-6.306733 M 305.519770,476.375957 l -43.368876,22.097546 M 558.203265,359.972874 l 12.950147,-6.598429 M 547.642913,365.353642 l -21.878713,11.147761 M 423.408587,428.654193 l 93.611628,-47.697507 M 337.170811,472.594535 l -5.848376,2.979896 M 316.465961,483.144183 l 10.250694,-5.222989 M 307.964707,487.475788 l -36.543164,18.619672 M 428.945650,438.178507 l 137.097839,-69.854838 M 346.014525,480.434026 l -64.233394,32.728549 M 516.474388,405.925976 l 59.130513,-30.128501 M 513.551341,407.415343 l -96.535051,49.187065 M 292.791573,519.898063 l 65.032905,-33.135920 M 591.677774,379.953526 l -34.335538,17.494830 M 408.965893,473.049879 l 136.581766,-69.591886 M 402.540069,476.324000 l -6.069140,3.092382 M 303.562502,526.755589 l 91.877516,-46.813933 M 595.411930,390.396467 l -29.938263,15.254307 M 556.991630,409.972587 l 7.517514,-3.830365 M 555.150587,410.910646 l -242.023847,123.317309 M 556.384069,422.627744 l 39.320411,-20.034750 M 553.178510,424.261058 l -234.298233,119.380913 M 336.677434,546.919454 l 254.845563,-129.850300 M 332.513420,549.041125 l -7.312915,3.726116 M 386.718730,533.767729 l 223.665804,-113.963419 M 380.518138,536.927089 l -40.165381,20.465284 M 334.671852,560.286938 l 2.275482,-1.159416 M 616.800619,428.880740 l -259.621926,132.283979 M 341.664059,569.069819 l 7.290579,-3.714736 M 622.467127,438.339098 l -256.922650,130.908629 M 350.513063,576.906615 l 12.014501,-6.121694 M 625.758756,449.007518 l -44.862915,22.858797 M 527.919650,498.859033 l 41.730133,-21.262565 M 519.338462,503.231366 l -145.778122,74.277663 M 358.345966,585.261141 l 10.811593,-5.508782 M 627.220733,460.608193 l -52.572148,26.786847 M 535.099566,507.546272 l 21.926184,-11.171949 M 533.897254,508.158880 l -166.368436,84.768952 M 377.045315,600.424523 l 249.125859,-126.935965 M 623.965006,486.958245 l -83.403921,42.496420 M 389.084377,606.635904 l 139.063218,-70.856248 M 631.311660,495.560527 l -12.004060,6.116374 M 534.467112,544.905289 l 70.602513,-35.973777 M 529.812613,547.276874 l -126.818654,64.617332 M 637.944203,504.526666 l 19.151771,-9.758315 M 628.797636,509.187075 l -1.218008,0.620606 M 614.416773,516.514491 l 3.981341,-2.028594 M 610.471688,518.524611 l -192.850899,98.262441 M 650.235247,510.609655 l 21.139669,-10.771199 M 623.850879,524.053162 l -188.928291,96.263772 M 656.607067,519.708639 l 18.264793,-9.306377 M 637.066524,529.665043 l -2.822030,1.437896 M 455.630238,622.111448 l 175.092751,-89.214212 M 679.011878,520.638406 l -17.881074,9.110862 M 649.735985,535.555219 l 5.120573,-2.609062 M 641.043709,539.984155 l -166.361009,84.765168 M 672.950909,536.072213 l 15.230184,-7.760166 M 668.038728,538.575094 l -162.922530,83.013176 M 682.826270,543.386054 l 15.986879,-8.145722 M 673.343386,548.217825 l -124.552904,63.462874 M 693.813831,550.133200 l 15.352633,-7.822557 M 685.487843,554.375503 l -21.767516,11.091103 M 653.891412,570.474689 l 5.532931,-2.819169 M 601.669313,597.083177 l -30.242426,15.409286 M 684.771107,567.086287 l 6.262295,-3.190799 M 572.123704,624.483005 l -4.336097,2.209352 M 771.880923,596.775151 l 1.709824,-0.871199 M 797.989568,595.817720 l -3.483576,1.774971 M 779.325730,605.327420 l 1.343507,-0.684551 M 807.020937,603.561596 l -4.551245,2.318975 M 787.989032,613.258836 l 1.695718,-0.864011 M 816.613495,611.019532 l -7.786100,3.967216 M 796.408844,621.314316 l 1.251966,-0.637908 M 824.296667,619.450350 l -6.548859,3.336810 M 825.623909,631.119674 l 8.060355,-4.106956 M 843.680826,634.264804 l -3.647562,1.858526 M 833.112856,639.649454 l 6.512277,-3.318171 M 854.306172,641.196509 l -0.908859,0.463087 M 844.045483,646.424591 l 4.745047,-2.417722 M 876.255701,654.703843 l -6.112018,3.114228 M 883.497916,663.359338 l 2.552804,-1.300719 M 879.176552,665.561183 l -6.107247,3.111798 M 904.878592,664.810928 l 4.211861,-2.146051 M 898.914839,667.849612 l -3.135687,1.597712 M 880.666835,677.147435 l 5.894951,-3.003628 M 920.801709,669.043284 l -4.748135,2.419295 M 904.700010,677.247509 l 6.194089,-3.156046 M 901.904648,678.671817 l -7.462480,3.802324 M 928.001766,677.720260 l 5.275264,-2.687881 M 908.416753,687.699322 l -5.666800,2.887379 M 938.776660,684.575766 l 6.665745,-3.396367 M 918.897180,694.704867 l -7.751057,3.949361 M 949.983235,691.211319 l 7.448163,-3.795029 M 930.239101,701.271458 l -8.421863,4.291154 M 961.478693,697.699679 l 6.606109,-3.365981 M 939.701700,708.795611 l -7.069502,3.602091 M 974.617037,703.350947 l 1.686857,-0.859497 M 951.350798,715.205688 l -7.945929,4.048653 M 954.605172,725.893090 l 8.995388,-4.583379 M 975.263046,727.712967 l -9.995842,5.093136 M 999.781885,727.565583 l 3.185511,-1.623099 M 985.560415,734.811784 l -9.297170,4.737145 M 1009.406227,735.007324 l 4.139531,-2.109197 M 995.273385,742.208367 l -7.570727,3.857478 M 1020.161994,741.872576 l 2.451700,-1.249204 M 1005.099550,749.547274 l -5.501074,2.802937 M 1011.933232,758.410928 l 4.820612,-2.456224 M 1029.698148,761.704840 l -5.275547,2.688026 M 1037.011471,770.324104 l 3.986050,-2.030994 M 1064.760198,780.876599 l -2.579339,1.314239 M 1099.396043,775.574343 l 4.505261,-2.295545 M 1086.762444,782.011483 l -6.465938,3.294560 M 1114.261940,780.345379 l 3.561372,-1.814610 M 1099.567922,787.832355 l -6.638206,3.382335 M 1131.907278,783.700218 l 1.227253,-0.625316 M 1117.671226,790.953850 l -9.322594,4.750099 M 1142.724788,790.534011 l 1.422152,-0.724623 M 1134.073751,794.941934 l -9.755404,4.970627 M 1114.745731,804.790052 l 1.604450,-0.817508 M 1185.974377,780.842833 l -2.909174,1.482298 M 1140.554626,803.985352 l 11.797157,-6.010952 M 1135.764265,806.426163 l -3.202572,1.631792 M 1156.936031,807.984198 l 14.969139,-7.627157 M 1191.346771,802.796639 l -15.262887,7.776829 M 1198.061838,811.720730 l 12.943355,-6.594969 M 1183.801182,818.986897 l -1.513557,0.771196 M 1216.175691,814.836849 l 15.854836,-8.078442 M 1203.642899,821.222626 l -1.528437,0.778777 M 1289.612983,789.764269 l 6.984950,-3.559010 M 1252.222444,808.815700 l -13.115695,6.682780 M 1218.197895,826.152073 l 9.007763,-4.589685 M 1265.996668,814.142971 l -4.781291,2.436189 M 1241.005809,826.876449 l 5.360460,-2.731291 M 1265.437044,826.773702 l -4.466562,2.275827"
       id="path11" />
  </g>
  <g
     inkscape:label="fill-6e6e6e"
     inkscape:groupmode="layer"
     id="fill-6e6e6e">
    <path
       style="stroke:#6e6e6e"
       d="M 225.124572,466.341359 l -5.213598,4.073309 M 237.076316,472.231851 l 2.345041,-1.832146 M 286.304358,448.998908 l -22.202755,17.346693 M 249.058398,478.098642 l 5.700698,-4.453874 M 296.307513,456.411806 l -12.787604,9.990771 M 255.449934,488.333245 l 22.906064,-17.896179 M 315.531114,456.620902 l -18.642344,14.564995 M 261.535134,498.807184 l 33.230092,-25.962193 M 324.353962,464.955956 l -13.550842,10.587078 M 271.038765,506.610353 l 36.214919,-28.294196 M 336.181853,470.943213 l -54.897761,42.890832 M 504.736356,354.482221 l 6.762124,-5.283150 M 485.228307,369.723579 l -51.468793,40.211828 M 292.424544,520.358388 l 53.035383,-41.435782 M 552.233847,332.601332 l -6.667715,5.209390 M 419.972062,435.935564 l 104.730450,-81.824395 M 356.260652,485.712373 l -53.807642,42.039137 M 416.009905,454.259359 l 146.274144,-114.281886 M 388.611698,475.665185 l -77.895120,60.858337 M 551.994106,363.245076 l 18.176468,-14.201013 M 551.346017,363.751419 l -233.584827,182.496468 M 325.927174,555.096139 l 243.964459,-190.605926 M 579.186880,372.456189 l -30.236343,23.623220 M 335.366276,562.949723 l 209.792710,-163.908029 M 592.549199,377.244620 l -31.419512,24.547613 M 341.141827,573.665587 l 214.240568,-167.383077 M 596.288273,389.551554 l -40.511651,31.651171 M 349.282557,582.533569 l 204.872465,-160.063912 M 600.422935,401.549421 l -242.117640,189.163032 M 369.683233,597.051252 l 237.515951,-185.567798 M 613.490014,421.796737 l -232.650785,181.766714 M 393.049735,609.251777 l 227.269326,-177.562258 M 625.604572,442.788244 l -57.596898,44.999628 M 406.392336,614.055613 l 153.432497,-119.874604 M 627.461848,456.565400 l -90.207264,70.477639 M 419.596808,618.967368 l 113.949417,-89.027041 M 626.822029,472.293499 l -191.892096,149.922537 M 451.387454,624.586230 l 180.477266,-141.004294 M 640.845132,491.793888 l -28.959699,22.625796 M 467.081263,627.553101 l 143.955263,-112.470178 M 660.068243,492.003366 l -24.379852,19.047628 M 490.626092,624.386083 l 143.643827,-112.226857 M 672.062635,497.860538 l -33.300433,26.017150 M 516.158435,619.666249 l 120.036988,-93.783173 M 683.422407,504.213530 l -40.462615,31.612860 M 542.627344,614.214690 l 98.150123,-76.683281 M 693.054455,511.916369 l -124.659929,97.395010 M 616.352882,587.070423 l 75.405721,-58.913406 M 601.967231,598.309726 l -17.201908,13.439604 M 566.858950,625.739321 l 12.005371,-9.379623 M 702.502926,534.990851 l -53.429420,41.743637 M 550.045295,654.103807 l 4.051350,-3.165261 M 712.347907,542.527328 l -42.914716,33.528651 M 703.756215,564.468111 l 19.891729,-15.541122 M 701.014525,566.610154 l -13.876022,10.841136 M 722.922839,564.721723 l 10.816833,-8.451036 M 719.795613,567.164979 l -5.979417,4.671632 M 704.836570,578.852264 l 3.133014,-2.447779 M 746.195720,561.767173 l -22.227811,17.366269 M 746.495531,576.761154 l 10.597036,-8.279312 M 744.752905,578.122643 l -9.478572,7.405472 M 757.904640,583.075600 l 10.397383,-8.123326 M 756.267817,584.354426 l -9.888645,7.725856 M 755.140011,600.463783 l 19.607189,-15.318815 M 788.208085,589.856391 l -7.258955,5.671318 M 762.813501,609.696814 l 17.155010,-13.402963 M 800.958663,595.122766 l -8.930658,6.977395 M 769.801572,619.465354 l 20.023160,-15.643807 M 812.086493,601.656971 l -9.659344,7.546707 M 785.771636,622.216391 l 14.525510,-11.348572 M 820.154766,610.581564 l -20.990601,16.399655 M 807.795294,635.466061 l 22.428351,-17.522948 M 837.587301,627.418212 l -21.141100,16.517237 M 825.126701,652.381719 l 22.775644,-17.794283 M 858.649117,641.419355 l -14.801191,11.563958 M 854.115604,660.189542 l 15.417077,-12.045141 M 880.386859,654.892407 l -11.014628,8.605570 M 862.201647,669.100252 l 2.347158,-1.833801 M 898.336860,656.096547 l -4.031675,3.149890 M 872.902863,675.967764 l 18.449912,-14.414651 M 910.582306,661.757575 l -5.618187,4.389409 M 898.291694,671.360054 l 4.306375,-3.364509 M 894.412054,674.391161 l -12.291194,9.602933 M 915.807915,672.903101 l 5.623716,-4.393729 M 913.773083,674.492886 l -19.569463,15.289340 M 927.071635,679.331137 l 6.438788,-5.030533 M 925.525153,680.539381 l -4.834518,3.777139 M 902.158040,698.795771 l 17.321317,-13.532896 M 945.483012,680.174811 l -9.579520,7.484341 M 912.483807,705.956616 l 15.463946,-12.081759 M 957.357650,686.125546 l -9.957893,7.779959 M 926.117189,710.533269 l 10.888432,-8.506976 M 924.969325,711.430078 l -1.473809,1.151466 M 958.012792,700.841911 l 11.069592,-8.648513 M 945.016652,710.995609 l -7.836338,6.122419 M 933.501517,719.992218 l 2.474509,-1.933298 M 977.275535,701.020426 l -5.168340,4.037950 M 968.081490,708.203601 l 1.671660,-1.306044 M 958.185391,715.935280 l -9.541429,7.454581 M 943.587469,727.340427 l 3.348345,-2.616014 M 987.627355,708.160916 l -3.647333,2.849609 M 978.789062,715.066147 l 2.365576,-1.848191 M 969.835272,722.061615 l -12.286311,9.599118 M 995.852849,716.962675 l 3.083841,-2.409360 M 993.019127,719.176620 l -4.002728,3.127274 M 967.901006,738.801047 l 13.287771,-10.381545 M 1010.288709,720.912363 l -2.480882,1.938277 M 999.261992,729.527379 l 5.380428,-4.203651 M 992.081128,735.137685 l -15.664101,12.238137 M 1019.867302,728.656965 l 1.391301,-1.087004 M 1015.398814,732.148130 l -6.674661,5.214817 M 985.997252,755.119147 l 17.317851,-13.530188 M 1034.337668,732.579694 l -2.183028,1.705569 M 1019.333358,744.302346 l 6.458294,-5.045772 M 1013.929459,748.524335 l -17.348188,13.553890 M 1044.530648,739.844284 l 2.317874,-1.810922 M 1037.348655,745.455472 l -4.553044,3.557228 M 1010.603560,766.351030 l 14.251293,-11.134331 M 1059.765484,743.169744 l -2.589465,2.023112 M 1044.313274,755.242334 l 6.289529,-4.913918 M 1036.440844,761.392950 l -12.469299,9.742084 M 1070.032991,750.376107 l 3.824994,-2.988413 M 1064.095144,755.015262 l -8.446896,6.599439 M 1033.633189,778.814749 l 16.372823,-12.791851 M 1086.819794,752.489038 l -3.544967,2.769632 M 1069.899871,765.708330 l 7.523070,-5.877666 M 1062.568527,771.436204 l -2.552873,1.994523 M 1051.419995,780.146392 l 5.963130,-4.658907 M 1048.893026,782.120676 l -3.366000,2.629807 M 1083.360750,770.419758 l 9.511616,-7.431289 M 1075.429216,776.616552 l -13.113263,10.245204 M 1110.359588,764.554172 l 4.548671,-3.553811 M 1106.279274,767.742063 l -10.070212,7.867712 M 1073.260645,793.539043 l 16.419201,-12.828086 M 1129.605069,764.746173 l -5.225475,4.082589 M 1106.568232,782.744523 l 13.222310,-10.330401 M 1104.327646,784.495061 l -17.758253,13.874268 M 1139.578770,772.182083 l 3.520616,-2.750607 M 1134.041081,776.508599 l -11.812888,9.229240 M 1101.246299,802.130691 l 18.542360,-14.486880 M 1157.803449,773.171622 l -4.903069,3.830697 M 1137.379575,789.128501 l 9.883791,-7.722064 M 1134.294749,791.538631 l -20.603360,16.097109 M 1166.924903,781.273379 l 9.468763,-7.397809 M 1161.328860,785.645487 l -30.303558,23.675734 M 1181.486660,785.124706 l 7.046035,-5.504966 M 1176.640178,788.911193 l -31.864310,24.895128 M 1158.532488,818.286689 l 33.086727,-25.850185 M 1204.416209,797.666616 l -30.921680,24.158664 M 1191.172626,823.241856 l 30.089354,-23.508380 M 1237.611030,802.188417 l -32.961884,25.752646 M 1235.986023,818.686230 l 20.390056,-15.930458 M 1233.146554,820.904666 l -10.912687,8.525925 M 1271.908863,805.848450 l 28.612288,-22.354370 M 1265.031238,811.221839 l -10.599306,8.281085 M 1239.600480,831.090525 l 10.294465,-8.042918 M 1283.274315,812.197005 l -6.094858,4.761825 M 1259.923931,830.440324 l 6.804524,-5.316277 M 1280.708424,829.429917 l -2.203865,1.721848 M 1302.327324,827.767600 l 1.384063,-1.081348 M 1325.390879,824.976594 l -2.157983,1.686001"
       id="path14" />
  </g>
  <g
     inkscape:label="fill-8d8d8d"
     inkscape:groupmode="layer"
     id="fill-8d8d8d">
    <path
       style="stroke:#8d8d8d"
       d="M 197.789373,472.539523 l -4.376192,5.034234 M 213.827783,472.380481 l 6.012105,-6.916135 M 235.813987,465.379283 l -6.202740,7.135436 M 253.522195,463.299357 l 4.310321,-4.958457 M 251.420917,465.716601 l -3.072588,3.534608 M 242.385200,476.111004 l 5.358026,-6.163704 M 280.235293,450.860490 l -19.459997,22.386166 M 251.050931,484.433258 l 9.469515,-10.893431 M 298.958359,447.613103 l -6.194334,7.125767 M 281.707377,467.458088 l 9.240476,-10.629952 M 279.731426,469.731160 l -22.093441,25.415597 M 295.105943,470.335838 l 16.169540,-18.600928 M 293.053724,472.696646 l -27.142778,31.224194 M 275.547893,511.125838 l 45.242768,-52.045851 M 330.151533,466.602573 l -44.347793,51.016300 M 296.703044,523.371695 l 43.543530,-50.091101 M 349.255100,481.208507 l -44.018071,50.636998 M 312.798702,541.437832 l 48.568818,-55.872033 M 476.248515,371.701368 l -57.447912,66.086263 M 320.345439,551.047341 l 65.983832,-75.905715 M 518.106207,341.840639 l -16.004085,18.410594 M 410.016633,466.183470 l 86.477867,-99.481406 M 405.622545,471.238290 l -76.891470,88.453518 M 336.382747,569.180603 l 205.114198,-235.956894 M 556.661394,334.070044 l -213.020085,245.051576 M 352.225516,587.537656 l 213.519040,-245.625558 M 572.482741,352.451740 l -210.727531,242.414294 M 577.460933,365.016023 l 4.468078,-5.139936 M 570.576179,372.936026 l -197.585610,227.296243 M 383.892199,605.982416 l 205.909485,-236.871766 M 595.006844,381.413835 l -199.588664,229.600494 M 407.527734,615.374917 l 190.770877,-219.456790 M 605.256864,406.204610 l -185.946257,213.906699 M 432.573925,623.144644 l 178.925897,-205.830699 M 618.505626,427.545727 l -171.541170,197.335542 M 460.733543,627.332784 l 164.465970,-189.196456 M 628.101725,453.088752 l -150.863554,173.548666 M 494.485377,625.087814 l 133.063322,-153.071842 M 637.354544,479.026675 l -123.264240,141.799287 M 647.034470,486.182231 l 4.498526,-5.174963 M 644.133370,489.519565 l -112.008108,128.850589 M 553.374030,612.217279 l 112.339227,-129.231497 M 671.426934,494.703985 l -101.320050,116.555384 M 583.478267,614.168390 l 99.580813,-114.554621 M 574.340010,624.680753 l -25.156015,28.938685 M 621.385433,588.852221 l 71.819778,-82.619204 M 565.705544,652.904606 l -2.326657,2.676513 M 549.105835,672.000388 l 4.683120,-5.387313 M 703.921004,512.196945 l -62.065683,71.398401 M 541.079883,699.524226 l 2.024595,-2.329030 M 716.508917,516.007245 l -3.322324,3.821897 M 661.658264,579.105703 l 39.944400,-45.950776 M 714.501571,536.607469 l -39.814123,45.800909 M 688.592284,584.703731 l 32.788135,-37.718434 M 731.848767,553.233876 l -30.075229,34.597593 M 722.496755,582.283173 l 20.491360,-23.572614 M 719.238353,586.031536 l -4.882623,5.616815 M 730.895026,590.913104 l 23.161544,-26.644309 M 729.111955,592.964293 l -2.327722,2.677738 M 738.545628,600.403131 l 25.375908,-29.191643 M 774.221815,577.653410 l -25.072162,28.842223 M 759.046889,613.401201 l 23.011388,-26.471574 M 794.157624,591.301958 l -26.241739,30.187668 M 778.117057,628.045557 l 27.351378,-31.464161 M 815.686409,603.117998 l -24.953075,28.705229 M 802.386888,636.708384 l 21.755336,-25.026652 M 833.936395,618.705865 l -21.705084,24.968843 M 820.654833,652.275591 l 23.406163,-26.925711 M 853.814249,632.421083 l -24.385969,28.052848 M 847.711992,657.731964 l 15.947512,-18.345514 M 873.981489,645.803402 l -17.329134,19.934889 M 865.329745,674.047132 l 20.208569,-23.247299 M 897.935204,654.829880 l -24.213363,27.854288 M 898.731019,672.205436 l 10.870159,-12.504688 M 896.830343,674.391913 l -12.340866,14.196543 M 893.044461,697.038109 l 27.042799,-31.109182 M 930.777842,671.921858 l -28.130316,32.360226 M 932.862452,687.814825 l 9.009952,-10.364764 M 928.821933,692.462910 l -14.911911,17.154191 M 944.235894,693.022213 l 8.744145,-10.058989 M 937.956597,700.245718 l -13.625576,15.674433 M 954.360469,699.666259 l 9.699916,-11.158477 M 947.521571,707.533511 l -13.320963,15.324016 M 963.972656,706.899740 l 10.952403,-12.599299 M 957.526683,714.314983 l -14.168852,16.299400 M 973.450889,714.287317 l 8.915096,-10.255645 M 968.337182,720.169964 l -15.412016,17.729496 M 984.045892,720.390198 l 9.195985,-10.578770 M 979.176127,725.992221 l -11.990479,13.793468 M 994.068338,727.151730 l 9.753513,-11.220134 M 989.579479,732.315571 l -13.795647,15.870076 M 1003.560228,734.523596 l 10.832425,-12.461279 M 999.843054,738.799715 l -15.487427,17.816247 M 1012.717111,742.280845 l 13.022025,-14.980126 M 1010.669066,744.636851 l -17.660875,20.316512 M 1023.862373,747.750724 l 13.743146,-15.809681 M 1021.045716,750.990918 l -13.515847,15.548204 M 1003.716131,770.926325 l 2.619412,-3.013289 M 1049.516672,736.529866 l -13.197235,15.181683 M 1018.305292,772.434452 l 13.406588,-15.422515 M 1013.739067,777.687292 l -2.091054,2.405482 M 1046.650327,758.118256 l 14.884152,-17.122258 M 1043.077289,762.228566 l -13.445387,15.467149 M 1057.798667,763.584595 l 16.469349,-18.945819 M 1054.897367,766.922159 l -16.786498,19.310656 M 1070.070108,767.758953 l 16.200757,-18.636839 M 1066.592459,771.759531 l -10.704227,12.313804 M 1045.852491,795.618135 l 1.712118,-1.969566 M 1097.293990,754.732497 l -14.353072,16.511321 M 1066.123683,790.589833 l 12.468430,-14.343288 M 1110.188202,758.190439 l -15.519222,17.852823 M 1076.004068,797.514787 l 15.139488,-17.415989 M 1123.052958,761.682268 l -34.389038,39.560063 M 1102.271096,803.880102 l 31.655986,-36.416046 M 1149.585689,767.741926 l -16.727748,19.243072 M 1113.815794,808.890484 l 17.502232,-20.134015 M 1161.808293,771.972466 l -33.113178,38.092353 M 1125.409563,813.844415 l 2.548349,-2.931540 M 1177.093111,772.680331 l -35.651737,41.012632 M 1153.244693,818.405835 l 35.301168,-40.609348 M 1201.162652,781.573566 l -35.911839,41.311845 M 1178.892628,825.483335 l 31.392997,-36.113512 M 1230.652824,784.231078 l -3.538945,4.071091 M 1193.567875,826.892432 l 28.936895,-33.288089 M 1234.425947,798.181634 l -27.780667,31.958001 M 1260.563089,786.405328 l 1.982043,-2.280080 M 1256.866199,790.658114 l -1.088364,1.252020 M 1222.033494,830.728557 l 26.516104,-30.503288 M 1263.901815,800.855600 l -28.048778,32.266428 M 1272.422242,809.345007 l 27.107253,-31.183327 M 1272.193149,809.608548 l -10.023536,11.530759 M 1250.721437,834.308927 l 10.009049,-11.514094 M 1302.935261,792.534831 l -9.369747,10.778661 M 1279.979440,818.942483 l 8.510744,-9.790491 M 1274.381540,825.382130 l -5.565369,6.402225 M 1307.164117,805.961126 l 2.556505,-2.940923 M 1290.156140,825.526565 l -4.476972,5.150168 M 1302.381697,829.753708 l 4.306465,-4.954021 M 1323.255291,824.032422 l -3.443775,3.961610 M 1338.064472,825.287445 l 1.999361,-2.300002 M 1377.634862,816.348992 l -1.764151,2.029424 M 1397.004877,812.357376 l 5.019005,-5.773705"
       id="path17" />
  </g>
  <g
     inkscape:label="fill-afafaf"
     inkscape:groupmode="layer"
     id="fill-afafaf">
    <path
       style="stroke:#afafaf"
       d="M 189.540762,477.104325 l -2.485156,4.483339 M 205.540832,475.054083 l 5.119959,-9.236651 M 226.470935,464.109828 l -4.985992,8.994969 M 235.514611,474.609254 l 5.591334,-10.087033 M 261.454248,454.627560 l -14.499303,26.157435 M 255.274287,492.591154 l 23.803844,-42.943271 M 295.809920,446.277585 l -12.100453,21.829795 M 264.147450,503.398193 l 18.270367,-32.960614 M 308.864879,449.540465 l -34.266203,61.817867 M 285.519864,518.470636 l 34.376086,-62.016101 M 329.976324,465.083710 l -32.780314,59.137252 M 306.240631,534.718682 l 34.393365,-62.047272 M 350.622486,481.466346 l -35.657943,64.328632 M 323.978607,556.347826 l 40.037460,-72.229489 M 384.068104,474.758152 l -51.181104,92.333155 M 417.551129,441.167826 l 29.309867,-52.876399 M 412.654850,450.000947 l -0.028195,0.050866 M 408.401885,457.673500 l 1.665677,-3.004961 M 401.017372,470.995512 l -59.364492,107.096379 M 351.023641,588.001240 l 118.990373,-214.664315 M 488.194089,367.353851 l -126.841808,228.828679 M 373.247328,601.537947 l 145.109877,-261.785147 M 537.442915,332.135916 l -152.463832,275.052034 M 396.884020,612.525524 l 156.077613,-281.571467 M 563.415387,338.909636 l -154.027977,277.873827 M 421.432784,621.867681 l 150.834696,-272.112994 M 582.432414,358.231309 l -24.046464,43.380969 M 435.128773,623.974113 l 122.034851,-220.156698 M 591.042442,369.513056 l -142.129438,256.408294 M 462.183887,628.794692 l 134.834178,-243.247296 M 603.181148,401.243550 l -125.564221,226.523851 M 493.571740,625.798806 l 117.178224,-211.395112 M 618.778292,426.734856 l -108.729576,196.153348 M 526.627096,619.794664 l 99.799078,-180.042303 M 629.184346,461.591137 l -86.148975,155.416864 M 561.111581,611.212305 l 75.791814,-136.732052 M 649.821000,477.990927 l -103.430834,186.594164 M 590.964810,610.984954 l 72.264327,-130.368296 M 567.225115,653.812497 l -2.264872,4.085937 M 545.698693,692.647190 l 1.665261,-3.004211 M 543.856811,695.970034 l -3.559907,6.422242 M 616.844157,591.112025 l 59.425989,-107.207322 M 549.115433,713.297877 l -0.226406,0.408448 M 687.991034,489.574311 l 0.851109,-1.535442 M 683.637914,497.427547 l -51.080256,92.151221 M 649.389599,586.027792 l 45.031237,-81.238502 M 706.433849,509.931891 l -41.347546,74.592947 M 713.855536,523.357462 l 4.810935,-8.679156 M 708.025618,533.874913 l -28.561709,51.526687 M 728.203164,524.288306 l 2.409492,-4.346839 M 717.121350,544.280426 l -24.411709,44.039888 M 705.656574,591.778080 l 23.051406,-41.585838 M 740.087389,556.477895 l -21.376179,38.563648 M 731.516543,598.754760 l 20.341845,-36.697659 M 762.662284,569.381005 l -21.661926,39.079149 M 754.280125,611.317470 l 19.332867,-34.877415 M 782.951287,586.407973 l -18.669594,33.680839 M 775.002634,627.562373 l 20.408516,-36.817937 M 807.085482,596.498032 l -22.912528,41.335296 M 799.774786,636.501526 l 18.053009,-32.568491 M 827.769371,612.812608 l -17.633338,31.811385 M 819.616275,654.335831 l 18.729716,-33.789301 M 849.163849,627.845246 l -19.660922,35.469242 M 847.194433,658.212816 l 12.571662,-22.679879 M 870.719865,642.586463 l -13.778660,24.857360 M 866.531912,676.956379 l 15.654518,-28.241498 M 894.660005,653.026605 l -18.712497,33.758239 M 886.273075,694.971678 l 20.734815,-37.406596 M 918.334895,663.945272 l -21.260575,38.355093 M 908.369206,708.738501 l 21.249249,-38.334660 M 941.244313,676.244887 l -7.093237,12.796538 M 920.034292,714.508778 l 11.459450,-20.673395 M 952.926307,681.984661 l -7.176134,12.946089 M 930.770786,721.954280 l 11.053367,-19.940801 M 964.557156,687.816704 l -8.051465,14.525228 M 940.967380,730.373786 l 11.390742,-20.549442 M 975.985246,694.014534 l -9.108076,16.431405 M 951.114224,738.883045 l 12.263410,-22.123776 M 987.312783,700.393766 l -0.077719,0.140209 M 977.629764,717.862393 l 7.427270,-13.399149 M 974.832543,722.908714 l -9.410936,16.977778 M 963.216733,743.864191 l 1.601170,-2.888588 M 996.434695,710.752049 l -7.703125,13.896805 M 974.762170,749.850319 l 11.429531,-20.619419 M 1007.759441,717.136316 l -8.298888,14.971590 M 985.154499,757.916710 l 12.094926,-21.819824 M 1019.045140,723.591026 l -25.023045,45.142768 M 1005.583228,774.691607 l 25.613550,-46.208067 M 1043.561994,732.990748 l -10.192325,18.387441 M 1019.936804,775.611720 l 11.055333,-19.944348 M 1055.756430,737.806053 l -11.147846,20.111246 M 1031.809914,781.006711 l 11.003608,-19.851035 M 1030.589465,783.208460 l -1.097488,1.979922 M 1055.677525,764.763052 l 12.733041,-22.971015 M 1055.146753,765.720590 l -14.681794,26.486658 M 1068.591861,768.279622 l 12.491824,-22.535847 M 1067.111725,770.949858 l -10.876377,19.621504 M 1081.297991,772.171806 l 11.601666,-20.929959 M 1079.374253,775.642322 l -9.984560,18.012623 M 1067.536609,796.997996 l 0.894147,-1.613084 M 1104.930903,756.351553 l -11.044352,19.924539 M 1079.932279,801.450265 l 12.253843,-22.106519 M 1118.826044,758.098705 l -25.179668,45.425323 M 1106.887057,806.451856 l 25.947721,-46.810928 M 1143.761572,766.743120 l -24.367993,43.961024 M 1117.652583,813.844983 l 0.742685,-1.339839 M 1156.177082,771.159596 l -22.755149,41.051375 M 1129.833111,818.685380 l 2.382718,-4.298537 M 1170.764049,771.658662 l -24.841871,44.815922 M 1157.920256,821.644127 l 26.754287,-48.266011 M 1196.913090,778.113842 l -26.316076,47.475457 M 1184.351949,827.589389 l 24.634969,-44.442660 M 1223.639567,783.527299 l -25.538745,46.073116 M 1237.477913,785.376912 l 1.536047,-2.771102 M 1231.619182,795.946342 l -20.051731,36.174280 M 1250.756650,788.236086 l 2.448034,-4.416371 M 1250.198535,789.242952 l -24.078628,43.438995 M 1239.951412,834.543901 l 29.196291,-52.671503 M 1280.670698,787.899014 l -26.315348,47.474144 M 1285.345108,806.280805 l 15.270914,-27.549458 M 1283.915655,808.859605 l -7.197969,12.985480 M 1270.633434,832.821366 l 4.885283,-8.813284 M 1301.758653,803.484634 l -7.547057,13.615252 M 1286.286499,831.397139 l 4.881010,-8.805575 M 1311.030495,813.572438 l -9.709958,17.517228 M 1317.469129,828.771484 l 8.347045,-15.058467 M 1340.584563,813.884787 l -7.151881,12.902335 M 1349.863018,823.960661 l 5.002378,-9.024529 M 1370.742233,813.108208 l -4.451837,8.031327 M 1383.231016,817.392498 l 4.459137,-8.044496 M 1407.657357,800.140861 l -2.497128,4.504938 M 1401.362217,811.497595 l 3.725996,-6.721875"
       id="path20" />
  </g>
  <g
     inkscape:label="fill-cfcfcf"
     inkscape:groupmode="layer"
     id="fill-cfcfcf">
    <path
       style="stroke:#cfcfcf"
       d="M 194.931783,469.319957 l -4.250026,13.080234 M 207.535400,475.834964 l 3.975782,-12.236199 M 226.667457,462.257498 l -3.843775,11.829923 M 236.873852,476.150396 l 4.400043,-13.541940 M 258.090446,456.157385 l -9.550862,29.394532 M 258.805523,499.261556 l 16.459413,-50.656865 M 291.233722,444.762775 l -21.018637,64.688713 M 282.196019,517.882915 l 22.990638,-70.757910 M 317.836711,453.497095 l -22.971682,70.699567 M 305.720661,536.091416 l 23.461293,-72.206436 M 341.293277,471.915113 l -25.049647,77.094885 M 326.852452,561.664355 l 25.884488,-79.664261 M 368.029190,480.240338 l -30.608068,94.201947 M 348.129856,586.789141 l 36.845967,-113.400227 M 406.758110,451.654880 l -1.344910,4.139207 M 359.658537,596.612460 l 41.246053,-126.942300 M 440.208017,394.011604 l -67.624929,208.128132 M 385.205601,608.596585 l 75.304492,-231.763396 M 478.096000,368.014287 l -79.918460,245.963729 M 411.384643,618.635684 l 84.311411,-259.483840 M 517.039456,338.768556 l -92.883047,285.864625 M 438.615094,625.438877 l 95.653642,-294.391639 M 549.534993,329.367480 l -96.945078,298.366272 M 466.282639,630.896832 l 95.701673,-294.539464 M 572.790716,348.403629 l -90.939497,279.882994 M 497.113723,626.618416 l 86.803887,-267.154893 M 594.045520,373.597972 l -81.258561,250.088137 M 528.499400,620.633136 l 72.546818,-223.276149 M 610.814977,412.596792 l -66.973722,206.123921 M 560.610878,612.414072 l 60.061369,-184.849886 M 547.642438,652.326828 l -8.850178,27.238048 M 533.418972,696.102153 l 2.980918,-9.174322 M 531.541774,701.879575 l -6.135348,18.882660 M 556.739919,669.632612 l 72.321862,-222.583803 M 550.061506,690.186655 l -7.078214,21.784503 M 589.423675,614.347304 l 46.192003,-142.164367 M 649.379792,475.126303 l -38.494942,118.475249 M 625.586694,593.658880 l 37.507544,-115.436351 M 676.516978,482.216534 l -35.647727,109.712423 M 687.440613,493.901995 l 2.343768,-7.213377 M 686.445807,496.963693 l -29.614448,91.143898 M 702.068727,494.186242 l 0.928221,-2.856770 M 698.707510,504.531005 l -27.026491,83.178986 M 716.027811,496.529550 l 0.086510,-0.266251 M 711.688232,509.885400 l -6.723379,20.692432 M 686.084002,588.687119 l 18.632935,-57.346278 M 724.655938,515.279857 l -4.401109,13.545222 M 716.774562,539.536240 l 1.695138,-5.217098 M 715.915177,542.181155 l -16.112542,49.589306 M 734.699468,529.674004 l 2.726154,-8.390238 M 728.498810,548.757664 l -15.109738,46.502992 M 748.114326,533.692268 l 1.589233,-4.891157 M 741.036697,555.474970 l -14.007310,43.110068 M 738.688788,608.006042 l 14.996235,-46.153666 M 765.723914,570.105429 l -13.342486,41.063951 M 763.674136,621.718951 l 14.208160,-43.728221 M 789.935772,586.198897 l -14.394043,44.300309 M 785.925617,643.845836 l 16.595805,-51.076635 M 814.866618,600.079545 l -12.810465,39.426556 M 813.334382,650.100235 l 12.824006,-39.468233 M 838.150126,619.030180 l -13.706227,42.183428 M 834.466922,675.670870 l 15.725604,-48.398431 M 862.153669,635.764775 l -9.794591,30.144651 M 863.781495,676.059793 l 10.740828,-33.056869 M 887.287752,649.019925 l -12.514458,38.515543 M 886.231419,697.575935 l 14.144613,-43.532641 M 913.314381,659.528102 l -14.755320,45.412207 M 911.148740,711.498210 l 14.459314,-44.501192 M 938.162672,673.662828 l -5.238376,16.122063 M 923.687900,718.211595 l 8.288742,-25.510124 M 950.866133,679.870546 l -5.137978,15.813070 M 935.488990,727.196528 l 8.234885,-25.344370 M 963.530771,686.197750 l -5.936369,18.270264 M 946.873295,737.464189 l 8.715756,-26.824337 M 976.130695,692.724124 l -6.913399,21.277254 M 959.526219,743.827447 l 8.419229,-25.911724 M 988.587855,699.689880 l -1.108176,3.410614 M 972.218627,750.069182 l 15.036087,-46.276319 M 999.625978,711.022980 l -6.164212,18.971493 M 984.058919,758.933461 l 8.711026,-26.809781 M 1012.069040,718.032125 l -17.444882,53.689825 M 1007.234325,778.216802 l 17.343719,-53.378479 M 1037.817391,729.396753 l -7.366664,22.672260 M 1021.617114,779.256079 l 8.334996,-25.652481 M 1050.887786,734.475166 l -7.916921,24.365779 M 1032.799344,790.145665 l 9.849840,-30.314691 M 1064.049064,739.273868 l -19.875903,61.171740 M 1060.762421,794.694066 l 16.722885,-51.467746 M 1059.927673,797.263156 l -0.976280,3.004679 M 1082.233169,773.918850 l 8.228899,-25.325946 M 1081.759244,775.377441 l -8.331658,25.642206 M 1087.147300,804.099664 l 16.158387,-49.730402 M 1117.487652,756.026613 l -16.323716,50.239231 M 1113.922745,812.303221 l 17.984658,-55.351086 M 1143.650121,766.116717 l -16.800704,51.707250 M 1142.120847,816.128289 l 14.835856,-45.660069 M 1141.776121,817.189248 l -3.261293,10.037227 M 1155.017870,821.740286 l 16.717338,-51.450675 M 1185.855003,772.138300 l -17.668210,54.377158 M 1182.175769,828.766771 l 16.885452,-51.968077 M 1212.490551,780.772417 l -16.183913,49.808963 M 1210.134978,833.327077 l 16.914694,-52.058074 M 1241.659547,781.609380 l -2.794687,8.601163 M 1223.908032,836.242926 l 14.496978,-44.617112 M 1256.092545,782.494131 l -17.411027,53.585631 M 1267.136546,793.809142 l 5.091172,-15.669017 M 1265.815854,797.873815 l -12.681069,39.028317 M 1268.650990,834.453117 l 16.631402,-51.186193 M 1268.551848,834.758243 l -1.013844,3.120292 M 1283.647411,833.603830 l 17.978418,-55.331881 M 1309.266357,800.061774 l -2.984331,9.184825 M 1298.633432,832.786552 l 6.237161,-19.196009 M 1325.458245,795.533219 l -0.770217,2.370484 M 1314.211226,830.147983 l 7.223782,-22.232515 M 1335.080715,811.223251 l -5.529593,17.018337 M 1345.026363,825.918648 l 6.566352,-20.209154 M 1366.999074,803.598548 l -6.374288,19.618041 M 1376.302251,820.271263 l 5.235196,-16.112277 M 1396.155626,804.473810 l -3.752606,11.549334 M 1409.600978,808.398225 l 4.318764,-13.291789"
       id="path23" />
  </g>
</svg>
