<?xml version="1.0" encoding="UTF-8" standalone="no"?>
<!-- Created with Inkscape (http://www.inkscape.org/) -->

<svg
   xmlns:dc="http://purl.org/dc/elements/1.1/"
   xmlns:cc="http://creativecommons.org/ns#"
   xmlns:rdf="http://www.w3.org/1999/02/22-rdf-syntax-ns#"
   xmlns:svg="http://www.w3.org/2000/svg"
   xmlns="http://www.w3.org/2000/svg"
   xmlns:sodipodi="http://sodipodi.sourceforge.net/DTD/sodipodi-0.dtd"
   xmlns:inkscape="http://www.inkscape.org/namespaces/inkscape"
   id="svg2"
   version="1.1"
   inkscape:version="0.48.3.1 r9886"
   width="1500"
   height="1269"
   sodipodi:docname="hantologie-_0001_oiseau-noir_hatched_1398271444.svg">
  <defs
     id="defs27" />
  <sodipodi:namedview
     pagecolor="#ffffff"
     bordercolor="#666666"
     borderopacity="1"
     objecttolerance="10"
     gridtolerance="10"
     guidetolerance="10"
     inkscape:pageopacity="0"
     inkscape:pageshadow="2"
     inkscape:window-width="640"
     inkscape:window-height="480"
     id="namedview25" />
  <metadata
     id="metadata8">
    <rdf:RDF>
      <cc:Work
         rdf:about="">
        <dc:format>image/svg+xml </dc:format>
        <dc:type
           rdf:resource="http://purl.org/dc/dcmitype/StillImage" />
        <dc:title />
      </cc:Work>
    </rdf:RDF>
  </metadata>
  <g
     inkscape:label="fill-0c0c0c"
     inkscape:groupmode="layer"
     id="fill-0c0c0c">
    <path
       style="stroke:#0c0c0c"
       d="M 270.056954,473.460134 l 0.000000,17.262508 M 281.056954,483.288694 l 0.000000,-7.968064 M 281.056954,483.755973 l 0.000000,12.680936 M 292.056954,505.931943 l 0.000000,-26.567582 M 303.056954,513.783568 l 0.000000,6.197784 M 314.056954,524.362803 l 0.000000,-20.207028 M 325.056954,501.379739 l 0.000000,3.930436 M 325.056954,527.140683 l 0.000000,-5.409575 M 325.056954,529.546831 l 0.000000,4.444568 M 336.056954,517.717736 l 0.000000,-26.903438 M 336.056954,525.722704 l 0.000000,8.979600 M 347.056954,516.798946 l 0.000000,-26.006116 M 347.056954,520.184332 l 0.000000,19.610194 M 358.056954,537.514704 l 0.000000,-42.252295 M 369.056954,496.686147 l 0.000000,40.515443 M 369.056954,560.326058 l 0.000000,-10.439596 M 369.056954,584.687044 l 0.000000,2.955454 M 380.056954,530.905951 l 0.000000,-41.258360 M 391.056954,488.317903 l 0.000000,38.247832 M 391.056954,559.144465 l 0.000000,-8.509024 M 391.056954,562.863961 l 0.000000,4.476542 M 402.056954,517.472385 l 0.000000,-32.612438 M 402.056954,531.503906 l 0.000000,3.311575 M 402.056954,570.336691 l 0.000000,-22.291535 M 402.056954,582.635985 l 0.000000,9.464039 M 402.056954,604.549374 l 0.000000,-10.953689 M 413.056954,477.815738 l 0.000000,28.750875 M 413.056954,513.155033 l 0.000000,-2.661076 M 413.056954,526.101419 l 0.000000,4.542921 M 413.056954,556.210195 l 0.000000,-14.817862 M 413.056954,559.538633 l 0.000000,46.119205 M 424.056954,489.732768 l 0.000000,-10.144445 M 424.056954,504.117351 l 0.000000,11.551906 M 424.056954,521.327203 l 0.000000,-3.985361 M 424.056954,529.048214 l 0.000000,2.836215 M 424.056954,556.288066 l 0.000000,-14.329710 M 424.056954,564.138201 l 0.000000,41.343081 M 435.056954,464.424601 l 0.000000,-5.111397 M 435.056954,475.427393 l 0.000000,2.429538 M 435.056954,529.068356 l 0.000000,-32.311092 M 435.056954,538.791421 l 0.000000,8.434543 M 435.056954,555.213268 l 0.000000,-4.531066 M 435.056954,556.909887 l 0.000000,46.938074 M 446.056954,444.941235 l 0.000000,-3.303569 M 446.056954,489.958480 l 0.000000,22.531407 M 446.056954,526.616078 l 0.000000,-12.641165 M 446.056954,555.862160 l 0.000000,17.241894 M 446.056954,581.404691 l 0.000000,-5.541027 M 446.056954,583.361306 l 0.000000,20.061641 M 457.056954,449.724335 l 0.000000,-61.648606 M 457.056954,454.751351 l 0.000000,3.403024 M 457.056954,501.868988 l 0.000000,-13.628813 M 457.056954,506.785479 l 0.000000,13.827099 M 457.056954,531.123377 l 0.000000,-1.617268 M 457.056954,546.027244 l 0.000000,35.764059 M 457.056954,603.234059 l 0.000000,-18.518889 M 468.056954,383.696564 l 0.000000,58.969856 M 468.056954,468.383694 l 0.000000,-8.211283 M 468.056954,474.830014 l 0.000000,16.101947 M 468.056954,516.371244 l 0.000000,-14.361262 M 468.056954,518.913315 l 0.000000,53.249076 M 468.056954,598.932328 l 0.000000,-24.028833 M 479.056954,375.622153 l 0.000000,60.446832 M 479.056954,468.901216 l 0.000000,-16.950605 M 479.056954,477.404850 l 0.000000,7.427440 M 479.056954,572.482587 l 0.000000,-86.623737 M 479.056954,574.768204 l 0.000000,9.625057 M 479.056954,596.491441 l 0.000000,-3.004068 M 490.056954,370.747594 l 0.000000,60.801720 M 490.056954,437.940292 l 0.000000,-0.470822 M 490.056954,445.776996 l 0.000000,9.433143 M 490.056954,481.379068 l 0.000000,-20.287751 M 490.056954,481.925832 l 0.000000,89.824434 M 490.056954,590.519083 l 0.000000,-10.138835 M 490.056954,593.858939 l 0.000000,3.319223 M 501.056954,426.164954 l 0.000000,-57.930759 M 501.056954,437.703642 l 0.000000,61.293182 M 501.056954,509.392723 l 0.000000,-7.173413 M 501.056954,511.269910 l 0.000000,49.901713 M 501.056954,571.778903 l 0.000000,-1.990442 M 501.056954,582.874917 l 0.000000,14.019709 M 512.056954,405.075816 l 0.000000,-19.535138 M 512.056954,436.978673 l 0.000000,63.397562 M 512.056954,538.539267 l 0.000000,-25.660024 M 512.056954,540.770715 l 0.000000,11.328621 M 512.056954,572.356907 l 0.000000,-3.142827 M 512.056954,585.947934 l 0.000000,5.236845 M 512.056954,596.751725 l 0.000000,-1.969388 M 523.056954,437.200356 l 0.000000,54.277470 M 523.056954,536.596257 l 0.000000,-16.393950 M 523.056954,538.597307 l 0.000000,13.156869 M 523.056954,560.955378 l 0.000000,-5.939508 M 523.056954,566.202679 l 0.000000,3.058826 M 523.056954,589.951553 l 0.000000,-2.896316 M 523.056954,597.520329 l 0.000000,3.199985 M 534.056954,425.523794 l 0.000000,-13.128677 M 534.056954,441.483510 l 0.000000,35.357909 M 534.056954,502.899291 l 0.000000,-21.349519 M 534.056954,549.672521 l 0.000000,6.649955 M 534.056954,561.976573 l 0.000000,-1.853594 M 534.056954,575.440066 l 0.000000,3.309663 M 534.056954,585.632868 l 0.000000,-3.696357 M 534.056954,600.210275 l 0.000000,5.738845 M 545.056954,429.969087 l 0.000000,-18.871756 M 545.056954,435.046350 l 0.000000,5.623821 M 545.056954,501.291974 l 0.000000,-51.448488 M 545.056954,523.520846 l 0.000000,21.490022 M 545.056954,553.875171 l 0.000000,-7.598258 M 545.056954,573.894118 l 0.000000,1.690685 M 545.056954,586.396052 l 0.000000,-2.623643 M 556.056954,446.702337 l 0.000000,47.589890 M 556.056954,549.908721 l 0.000000,-43.445621 M 556.056954,576.729413 l 0.000000,10.820754 M 567.056954,451.284084 l 0.000000,-20.836980 M 567.056954,460.620503 l 0.000000,16.470899 M 567.056954,557.614217 l 0.000000,-57.904040 M 567.056954,574.073754 l 0.000000,1.817818 M 567.056954,587.217288 l 0.000000,-1.101395 M 578.056954,426.414410 l 0.000000,25.154170 M 578.056954,509.410025 l 0.000000,-22.474252 M 578.056954,522.162327 l 0.000000,33.200237 M 578.056954,559.143672 l 0.000000,-1.731674 M 578.056954,570.162755 l 0.000000,4.883335 M 578.056954,587.798177 l 0.000000,-4.138957 M 589.056954,437.651353 l 0.000000,73.865234 M 589.056954,540.430015 l 0.000000,-2.368497 M 589.056954,543.547024 l 0.000000,17.400167 M 589.056954,565.926123 l 0.000000,-2.378476 M 589.056954,569.823747 l 0.000000,6.537588 M 589.056954,586.643201 l 0.000000,-1.498705 M 589.056954,591.301756 l 0.000000,8.468108 M 600.056954,507.095817 l 0.000000,-59.055985 M 600.056954,560.646121 l 0.000000,7.600445 M 611.056954,491.229830 l 0.000000,-31.642229 M 611.056954,493.714572 l 0.000000,2.186116 M 611.056954,570.924799 l 0.000000,-1.433277 M 622.056954,468.569046 l 0.000000,10.790744"
       id="path5" />
  </g>
  <g
     inkscape:label="fill-2d2d2d"
     inkscape:groupmode="layer"
     id="fill-2d2d2d">
    <path
       style="stroke:#2d2d2d"
       d="M 261.554271,461.138768 l 0.000000,2.749377 M 261.554271,493.299309 l 0.000000,-17.217783 M 277.554271,457.691807 l 0.000000,6.515141 M 277.554271,503.043130 l 0.000000,-30.439459 M 293.554271,475.002127 l 0.000000,43.077219 M 309.554271,470.655242 l 0.000000,-11.168776 M 309.554271,496.035360 l 0.000000,2.276593 M 309.554271,529.350433 l 0.000000,-28.033591 M 325.554271,483.301388 l 0.000000,13.069935 M 325.554271,548.923785 l 0.000000,-50.437325 M 341.554271,479.540164 l 0.000000,66.154044 M 357.554271,544.261626 l 0.000000,-54.373737 M 357.554271,577.763120 l 0.000000,3.050714 M 373.554271,539.828179 l 0.000000,-53.715724 M 373.554271,544.248561 l 0.000000,19.780234 M 373.554271,596.787990 l 0.000000,-11.379978 M 389.554271,483.412737 l 0.000000,46.145030 M 389.554271,540.933124 l 0.000000,-4.399436 M 389.554271,544.824759 l 0.000000,42.965069 M 389.554271,604.827711 l 0.000000,-14.950657 M 405.554271,480.266570 l 0.000000,129.643586 M 421.554271,500.986032 l 0.000000,-29.124382 M 421.554271,502.908977 l 0.000000,112.158204 M 437.554271,421.779374 l 0.000000,-11.289977 M 437.554271,451.220139 l 0.000000,16.765056 M 437.554271,484.524868 l 0.000000,-12.785165 M 437.554271,490.718058 l 0.000000,125.917251 M 453.554271,614.587383 l 0.000000,-228.408343 M 469.554271,380.577847 l 0.000000,231.701549 M 485.554271,607.151510 l 0.000000,-236.351406 M 501.554271,366.398604 l 0.000000,250.132161 M 517.554271,502.069139 l 0.000000,-92.487508 M 517.554271,512.649176 l 0.000000,67.214074 M 517.554271,615.946411 l 0.000000,-33.308690 M 533.554271,365.925018 l 0.000000,3.284626 M 533.554271,394.579085 l 0.000000,-23.859847 M 533.554271,400.320137 l 0.000000,105.901237 M 533.554271,614.558767 l 0.000000,-66.612360 M 549.554271,375.648114 l 0.000000,16.645000 M 549.554271,444.689920 l 0.000000,-36.019956 M 549.554271,449.478198 l 0.000000,53.372222 M 549.554271,610.135996 l 0.000000,-102.842384 M 565.554271,386.976935 l 0.000000,13.396672 M 565.554271,415.672410 l 0.000000,-7.084516 M 565.554271,429.782462 l 0.000000,52.170285 M 565.554271,599.025633 l 0.000000,-99.581781 M 581.554271,391.074683 l 0.000000,65.742201 M 581.554271,511.813882 l 0.000000,-34.026554 M 581.554271,516.411738 l 0.000000,88.499711 M 597.554271,512.221922 l 0.000000,-84.833605 M 597.554271,514.502964 l 0.000000,85.904608 M 613.554271,496.683737 l 0.000000,-61.584415 M 613.554271,529.855193 l 0.000000,19.363484 M 613.554271,572.595524 l 0.000000,-20.893124 M 629.554271,534.430663 l 0.000000,18.053971 M 629.554271,564.205518 l 0.000000,-9.471692 M 645.554271,500.537727 l 0.000000,0.455322 M 645.554271,552.684197 l 0.000000,-0.737461 M 661.554271,500.242417 l 0.000000,2.133136 M 821.554271,624.369049 l 0.000000,-3.536190"
       id="path8" />
  </g>
  <g
     inkscape:label="fill-505050"
     inkscape:groupmode="layer"
     id="fill-505050">
    <path
       style="stroke:#505050"
       d="M 256.623011,475.010194 l 0.000000,9.384162 M 278.623011,466.320125 l 0.000000,-12.045781 M 278.623011,471.854208 l 0.000000,39.160328 M 300.623011,524.500426 l 0.000000,-61.796582 M 322.623011,464.797442 l 0.000000,86.026139 M 344.623011,573.590347 l 0.000000,-94.480792 M 366.623011,485.841661 l 0.000000,59.184662 M 366.623011,569.471461 l 0.000000,-22.650393 M 366.623011,576.786907 l 0.000000,15.295709 M 388.623011,606.416937 l 0.000000,-128.634450 M 410.623011,470.407543 l 0.000000,143.921212 M 432.623011,437.950301 l 0.000000,-24.222100 M 432.623011,442.937879 l 0.000000,177.398292 M 454.623011,620.919459 l 0.000000,-237.200691 M 476.623011,373.040394 l 0.000000,251.399324 M 498.623011,623.077103 l 0.000000,-255.689517 M 520.623011,360.954507 l 0.000000,9.382202 M 520.623011,501.673795 l 0.000000,-120.719514 M 520.623011,509.040971 l 0.000000,109.032024 M 542.623011,363.430455 l 0.000000,-6.317354 M 542.623011,367.576101 l 0.000000,26.509463 M 542.623011,407.965736 l 0.000000,-6.053757 M 542.623011,408.976642 l 0.000000,110.895186 M 542.623011,613.343170 l 0.000000,-89.599563 M 564.623011,344.033574 l 0.000000,26.531721 M 564.623011,403.840213 l 0.000000,-26.190788 M 564.623011,406.108799 l 0.000000,79.075992 M 564.623011,608.446239 l 0.000000,-109.432082 M 586.623011,373.622810 l 0.000000,235.962995 M 608.623011,505.409803 l 0.000000,-88.097409 M 608.623011,515.155807 l 0.000000,68.555850 M 630.623011,500.391795 l 0.000000,-4.794763 M 630.623011,532.836239 l 0.000000,44.007731 M 652.623011,512.723553 l 0.000000,-17.582695 M 652.623011,528.160582 l 0.000000,6.325259 M 652.623011,539.957855 l 0.000000,-2.289060 M 652.623011,544.165145 l 0.000000,25.811074 M 674.623011,507.180283 l 0.000000,-3.830586 M 674.623011,510.327141 l 0.000000,26.914650 M 674.623011,567.432518 l 0.000000,-18.215562 M 696.623011,534.036979 l 0.000000,22.050657 M 696.623011,571.886431 l 0.000000,-2.188286 M 740.623011,559.119741 l 0.000000,2.640957 M 784.623011,609.987659 l 0.000000,-2.262364 M 806.623011,603.218055 l 0.000000,9.028757 M 828.623011,634.957858 l 0.000000,-11.685513 M 850.623011,645.855562 l 0.000000,5.153660 M 872.623011,662.225176 l 0.000000,-10.010185 M 894.623011,666.041252 l 0.000000,2.937912 M 894.623011,682.616945 l 0.000000,-1.923264 M 916.623011,667.252731 l 0.000000,4.535760 M 916.623011,681.908882 l 0.000000,-3.233207 M 916.623011,693.417915 l 0.000000,8.862332 M 938.623011,684.468896 l 0.000000,-6.735256 M 938.623011,707.226718 l 0.000000,8.994914 M 960.623011,697.304811 l 0.000000,-8.044658 M 960.623011,719.683199 l 0.000000,10.209383 M 982.623011,743.235638 l 0.000000,-10.670251 M 1004.623011,726.833235 l 0.000000,4.850708 M 1004.623011,754.819031 l 0.000000,-5.590812 M 1026.623011,760.382517 l 0.000000,5.047071 M 1048.623011,776.352179 l 0.000000,-6.606258 M 1070.623011,761.494640 l 0.000000,1.860824 M 1070.623011,784.951998 l 0.000000,-5.928715 M 1092.623011,787.641419 l 0.000000,3.495884 M 1114.623011,780.554031 l 0.000000,-3.274996 M 1114.623011,790.349053 l 0.000000,7.082841 M 1114.623011,804.739508 l 0.000000,-1.978094 M 1136.623011,784.997280 l 0.000000,1.944316 M 1136.623011,802.999990 l 0.000000,-7.356283 M 1136.623011,806.704601 l 0.000000,2.160975 M 1158.623011,808.354588 l 0.000000,-9.619992 M 1158.623011,812.870630 l 0.000000,1.421647 M 1180.623011,781.951394 l 0.000000,-2.397883 M 1180.623011,801.450985 l 0.000000,9.263605 M 1180.623011,819.502629 l 0.000000,-1.865454 M 1202.623011,804.182443 l 0.000000,7.965769 M 1202.623011,822.161756 l 0.000000,-0.967503 M 1224.623011,806.175186 l 0.000000,9.430120 M 1224.623011,823.907022 l 0.000000,-2.730983 M 1246.623011,808.027065 l 0.000000,6.280458 M 1246.623011,827.642737 l 0.000000,-3.463570 M 1268.623011,827.287750 l 0.000000,2.438482 M 1290.623011,795.464999 l 0.000000,-7.872863"
       id="path11" />
  </g>
  <g
     inkscape:label="fill-6e6e6e"
     inkscape:groupmode="layer"
     id="fill-6e6e6e">
    <path
       style="stroke:#6e6e6e"
       d="M 204.695516,470.330005 l 0.000000,0.901062 M 231.695516,470.987913 l 0.000000,-4.763993 M 258.695516,458.880310 l 0.000000,6.220517 M 258.695516,495.390933 l 0.000000,-20.912875 M 285.695516,449.250488 l 0.000000,17.254176 M 285.695516,516.712635 l 0.000000,-43.366908 M 312.695516,454.148257 l 0.000000,36.089893 M 312.695516,538.812668 l 0.000000,-47.618977 M 339.695516,473.775869 l 0.000000,96.822386 M 366.695516,595.282503 l 0.000000,-110.627418 M 393.695516,475.413166 l 0.000000,134.112719 M 420.695516,619.378450 l 0.000000,-186.849803 M 447.695516,389.259001 l 0.000000,234.695014 M 474.695516,626.096587 l 0.000000,-253.250955 M 501.695516,364.228120 l 0.000000,259.082618 M 528.695516,617.741142 l 0.000000,-262.973624 M 555.695516,334.637230 l 0.000000,63.454082 M 555.695516,419.187149 l 0.000000,-13.005446 M 555.695516,421.575079 l 0.000000,78.088705 M 555.695516,610.751394 l 0.000000,-107.964070 M 555.695516,644.491977 l 0.000000,4.205439 M 582.695516,612.508531 l 0.000000,-237.274117 M 609.695516,415.864116 l 0.000000,172.173071 M 636.695516,487.877977 l 0.000000,-4.030536 M 636.695516,490.524823 l 0.000000,21.388328 M 636.695516,520.999729 l 0.000000,-8.042724 M 636.695516,526.840083 l 0.000000,52.444504 M 663.695516,576.530304 l 0.000000,-82.419410 M 690.695516,506.894685 l 0.000000,1.580696 M 690.695516,520.681672 l 0.000000,-9.312329 M 690.695516,527.204932 l 0.000000,51.297146 M 717.695516,558.667004 l 0.000000,-12.021076 M 717.695516,565.094122 l 0.000000,9.656681 M 744.695516,575.839651 l 0.000000,-14.978223 M 744.695516,578.093542 l 0.000000,11.933362 M 771.695516,620.466525 l 0.000000,-43.395769 M 798.695516,594.013088 l 0.000000,12.213242 M 798.695516,626.565088 l 0.000000,-16.702765 M 825.695516,614.575521 l 0.000000,38.359664 M 852.695516,653.379379 l 0.000000,-15.620997 M 852.695516,655.553679 l 0.000000,3.495172 M 879.695516,682.490040 l 0.000000,-28.051363 M 906.695516,659.014700 l 0.000000,8.253183 M 906.695516,702.060863 l 0.000000,-31.719691 M 933.695516,674.390759 l 0.000000,12.390455 M 933.695516,714.851512 l 0.000000,-15.838404 M 933.695516,716.573226 l 0.000000,3.560635 M 960.695516,702.803519 l 0.000000,-15.005270 M 960.695516,717.242213 l 0.000000,16.881109 M 987.695516,712.873197 l 0.000000,-4.672770 M 987.695516,716.380612 l 0.000000,4.998322 M 987.695516,756.485668 l 0.000000,-24.052608 M 1014.695516,724.087375 l 0.000000,2.079509 M 1014.695516,741.856910 l 0.000000,-10.198826 M 1014.695516,749.002996 l 0.000000,19.047909 M 1041.695516,738.570807 l 0.000000,-2.800868 M 1041.695516,747.064607 l 0.000000,6.386139 M 1041.695516,783.823427 l 0.000000,-20.570679 M 1068.695516,745.735044 l 0.000000,4.141771 M 1068.695516,765.302443 l 0.000000,-8.225498 M 1068.695516,774.259274 l 0.000000,16.684104 M 1095.695516,758.751604 l 0.000000,-0.286633 M 1095.695516,764.033710 l 0.000000,11.343410 M 1095.695516,800.458624 l 0.000000,-18.193583 M 1122.695516,763.123097 l 0.000000,5.234063 M 1122.695516,785.941750 l 0.000000,-12.815210 M 1122.695516,787.739139 l 0.000000,22.401226 M 1149.695516,775.342889 l 0.000000,-1.840709 M 1149.695516,782.457442 l 0.000000,33.145403 M 1176.695516,783.979218 l 0.000000,-10.073003 M 1176.695516,788.923339 l 0.000000,33.558154 M 1203.695516,825.936495 l 0.000000,-29.193105 M 1230.695516,800.500671 l 0.000000,18.279901 M 1230.695516,830.656828 l 0.000000,-10.415579 M 1257.695516,802.718482 l 0.000000,16.688966 M 1257.695516,831.940414 l 0.000000,-7.968738 M 1284.695516,789.886573 l 0.000000,14.105122 M 1284.695516,816.518902 l 0.000000,-4.293696 M 1311.695516,825.910236 l 0.000000,1.710170"
       id="path14" />
  </g>
  <g
     inkscape:label="fill-8d8d8d"
     inkscape:groupmode="layer"
     id="fill-8d8d8d">
    <path
       style="stroke:#8d8d8d"
       d="M 204.902930,468.689945 l 0.000000,5.177074 M 236.902930,474.005185 l 0.000000,-8.612142 M 268.902930,452.446337 l 0.000000,53.804318 M 300.902930,453.175845 l 0.000000,-5.096105 M 300.902930,457.707282 l 0.000000,69.194587 M 332.902930,563.694439 l 0.000000,-95.881901 M 364.902930,484.406113 l 0.000000,112.115148 M 396.902930,611.628883 l 0.000000,-138.590713 M 428.902930,415.798702 l 0.000000,207.132622 M 460.902930,627.363508 l 0.000000,-249.153213 M 492.902930,367.421916 l 0.000000,257.781645 M 524.902930,619.022933 l 0.000000,-270.756433 M 556.902930,334.269871 l 0.000000,64.988663 M 556.902930,611.065455 l 0.000000,-206.044294 M 556.902930,640.917459 l 0.000000,8.197911 M 556.902930,666.408469 l 0.000000,-1.282352 M 588.902930,367.631798 l 0.000000,243.527891 M 620.902930,588.891972 l 0.000000,-158.042406 M 652.902930,481.199091 l 0.000000,100.743896 M 684.902930,584.099636 l 0.000000,-83.318464 M 716.902930,516.152109 l 0.000000,3.599782 M 716.902930,592.725339 l 0.000000,-47.856210 M 748.902930,561.452277 l 0.000000,44.933369 M 780.902930,630.076125 l 0.000000,-43.524709 M 812.902930,600.990684 l 0.000000,43.384278 M 844.902930,655.575429 l 0.000000,-29.667489 M 876.902930,647.144718 l 0.000000,38.735582 M 908.902930,707.829445 l 0.000000,-48.467224 M 940.902930,676.968872 l 0.000000,14.249683 M 940.902930,728.550981 l 0.000000,-25.886181 M 972.902930,693.222314 l 0.000000,20.659598 M 972.902930,744.977184 l 0.000000,-22.359489 M 1004.902930,716.567263 l 0.000000,55.526861 M 1036.902930,751.947413 l 0.000000,-20.277046 M 1036.902930,759.481896 l 0.000000,25.464651 M 1068.902930,767.396027 l 0.000000,-24.419922 M 1068.902930,772.714345 l 0.000000,19.644923 M 1100.902930,778.835878 l 0.000000,-22.637961 M 1100.902930,782.529348 l 0.000000,20.871163 M 1132.902930,787.006548 l 0.000000,-25.494078 M 1132.902930,790.034596 l 0.000000,21.192710 M 1164.902930,822.803986 l 0.000000,-50.850092 M 1196.902930,784.316202 l 0.000000,41.451773 M 1228.902930,787.548962 l 0.000000,-2.760903 M 1228.902930,797.317389 l 0.000000,34.739806 M 1260.902930,786.336687 l 0.000000,-1.971900 M 1260.902930,800.925194 l 0.000000,20.384209 M 1260.902930,831.876071 l 0.000000,-9.056619 M 1292.902930,778.228843 l 0.000000,25.262441 M 1292.902930,816.202812 l 0.000000,-8.083120 M 1292.902930,825.274650 l 0.000000,4.996677 M 1324.902930,827.430381 l 0.000000,-3.501688"
       id="path17" />
  </g>
  <g
     inkscape:label="fill-afafaf"
     inkscape:groupmode="layer"
     id="fill-afafaf">
    <path
       style="stroke:#afafaf"
       d="M 210.959912,465.748867 l 0.000000,8.211165 M 247.959912,482.702970 l 0.000000,-17.955152 M 284.959912,447.138751 l 0.000000,20.942471 M 284.959912,518.247135 l 0.000000,-46.491076 M 321.959912,458.363038 l 0.000000,95.737451 M 358.959912,594.498894 l 0.000000,-109.502092 M 395.959912,472.026903 l 0.000000,140.105283 M 432.959912,623.764016 l 0.000000,-216.532378 M 469.959912,373.361157 l 0.000000,256.283233 M 506.959912,623.796322 l 0.000000,-274.860656 M 543.959912,332.305051 l 0.000000,284.461744 M 543.959912,666.228918 l 0.000000,-3.387349 M 543.959912,696.008748 l 0.000000,14.865467 M 580.959912,372.266072 l 0.000000,-15.736315 M 580.959912,375.389805 l 0.000000,242.501451 M 617.959912,591.052985 l 0.000000,-165.476710 M 654.959912,478.825265 l 0.000000,106.543757 M 691.959912,588.120082 l 0.000000,-84.793199 M 728.959912,519.187306 l 0.000000,5.179359 M 728.959912,597.790291 l 0.000000,-47.413368 M 765.959912,571.507178 l 0.000000,50.130362 M 802.959912,638.744009 l 0.000000,-44.296900 M 839.959912,621.695026 l 0.000000,37.614420 M 876.959912,687.768334 l 0.000000,-41.636584 M 913.959912,660.996168 l 0.000000,50.308581 M 950.959912,698.422473 l 0.000000,-17.403972 M 950.959912,708.801624 l 0.000000,29.967967 M 987.959912,724.115049 l 0.000000,-18.046552 M 987.959912,730.315874 l 0.000000,30.835942 M 1024.959912,749.255152 l 0.000000,-23.097668 M 1024.959912,752.262019 l 0.000000,28.609430 M 1061.959912,766.346741 l 0.000000,-26.387179 M 1061.959912,768.214529 l 0.000000,21.069683 M 1061.959912,793.701605 l 0.000000,-2.840472 M 1098.959912,754.305788 l 0.000000,24.172079 M 1098.959912,804.250023 l 0.000000,-23.246461 M 1135.959912,767.103744 l 0.000000,46.147570 M 1135.959912,822.358208 l 0.000000,-2.576083 M 1172.959912,771.749420 l 0.000000,54.297594 M 1209.959912,831.786412 l 0.000000,-48.933116 M 1246.959912,784.396813 l 0.000000,3.063487 M 1246.959912,835.034437 l 0.000000,-44.826244 M 1283.959912,787.039142 l 0.000000,19.506807 M 1283.959912,819.839549 l 0.000000,-10.988414 M 1283.959912,825.287750 l 0.000000,6.074479 M 1320.959912,828.388424 l 0.000000,-13.495329 M 1357.959912,813.189481 l 0.000000,9.372705 M 1394.959912,813.865087 l 0.000000,-7.480292"
       id="path20" />
  </g>
  <g
     inkscape:label="fill-cfcfcf"
     inkscape:groupmode="layer"
     id="fill-cfcfcf">
    <path
       style="stroke:#cfcfcf"
       d="M 217.341899,462.763651 l 0.000000,11.472868 M 259.341899,499.836271 l 0.000000,-44.856950 M 301.341899,446.197050 l 0.000000,84.519168 M 343.341899,581.644962 l 0.000000,-107.930026 M 385.341899,473.279129 l 0.000000,135.380974 M 427.341899,625.629661 l 0.000000,-210.829233 M 469.341899,372.204738 l 0.000000,259.024490 M 511.341899,624.006035 l 0.000000,-280.387155 M 553.341899,329.664273 l 0.000000,285.683857 M 553.341899,658.439292 l 0.000000,-15.100452 M 553.341899,659.849401 l 0.000000,13.620718 M 553.341899,715.700539 l 0.000000,-14.195636 M 595.341899,376.853205 l 0.000000,233.128814 M 637.341899,591.791520 l 0.000000,-119.344057 M 679.341899,483.169545 l 0.000000,104.803333 M 721.341899,529.195209 l 0.000000,-15.336593 M 721.341899,535.598954 l 0.000000,1.829841 M 721.341899,597.198899 l 0.000000,-52.281983 M 763.341899,568.554454 l 0.000000,52.737457 M 805.341899,642.399755 l 0.000000,-48.116159 M 847.341899,625.226279 l 0.000000,35.286939 M 889.341899,699.498114 l 0.000000,-49.661371 M 931.341899,670.213141 l 0.000000,19.148220 M 931.341899,723.731449 l 0.000000,-31.674005 M 973.341899,691.242882 l 0.000000,26.870400 M 973.341899,750.668187 l 0.000000,-30.007425 M 1015.341899,720.170517 l 0.000000,66.319632 M 1057.341899,798.754873 l 0.000000,-61.716388 M 1099.341899,753.077541 l 0.000000,52.823661 M 1141.341899,829.622937 l 0.000000,-63.677700 M 1183.341899,771.772229 l 0.000000,57.113762 M 1225.341899,836.387761 l 0.000000,-55.425678 M 1267.341899,780.866533 l 0.000000,12.747931 M 1267.341899,837.898743 l 0.000000,-40.704980 M 1309.341899,800.039382 l 0.000000,7.409645 M 1309.341899,831.079678 l 0.000000,-18.682328 M 1351.341899,805.838044 l 0.000000,18.986586 M 1393.341899,815.738735 l 0.000000,-11.313461"
       id="path23" />
  </g>
</svg>
