<?xml version="1.0" encoding="UTF-8" standalone="no"?>
<!-- Created with Inkscape (http://www.inkscape.org/) -->

<svg
   xmlns:dc="http://purl.org/dc/elements/1.1/"
   xmlns:cc="http://creativecommons.org/ns#"
   xmlns:rdf="http://www.w3.org/1999/02/22-rdf-syntax-ns#"
   xmlns:svg="http://www.w3.org/2000/svg"
   xmlns="http://www.w3.org/2000/svg"
   xmlns:sodipodi="http://sodipodi.sourceforge.net/DTD/sodipodi-0.dtd"
   xmlns:inkscape="http://www.inkscape.org/namespaces/inkscape"
   id="svg2"
   version="1.1"
   inkscape:version="0.48.3.1 r9886"
   width="1000"
   height="1197"
   sodipodi:docname="hantologie-_0003_petit2_hatched_1398274877.svg">
  <defs
     id="defs27" />
  <sodipodi:namedview
     pagecolor="#ffffff"
     bordercolor="#666666"
     borderopacity="1"
     objecttolerance="10"
     gridtolerance="10"
     guidetolerance="10"
     inkscape:pageopacity="0"
     inkscape:pageshadow="2"
     inkscape:window-width="640"
     inkscape:window-height="480"
     id="namedview25" />
  <metadata
     id="metadata8">
    <rdf:RDF>
      <cc:Work
         rdf:about="">
        <dc:format>image/svg+xml </dc:format>
        <dc:type
           rdf:resource="http://purl.org/dc/dcmitype/StillImage" />
        <dc:title />
      </cc:Work>
    </rdf:RDF>
  </metadata>
  <g
     inkscape:label="fill-0e0e0e"
     inkscape:groupmode="layer"
     id="fill-0e0e0e">
    <path
       style="stroke:#0e0e0e"
       d="M 498.626349,317.250468 l -2.331561,2.026795 M 499.223964,323.356034 l 3.111490,-2.704777 M 505.629805,324.412587 l -3.191142,2.774017 M 505.857643,330.839594 l 2.615201,-2.273360 M 513.587021,337.370679 l -1.250764,1.087272 M 525.917399,333.277109 l 1.913005,-1.662950 M 438.814669,415.619423 l -1.329220,1.155474 M 441.283982,420.097947 l 2.362970,-2.054099 M 447.990236,420.893354 l -2.611608,2.270236 M 449.604714,426.114975 l 2.871753,-2.496377 M 432.480786,441.000578 l -0.671389,0.583630 M 453.988160,428.929568 l 2.942217,-2.557630 M 437.635252,443.144934 l -1.243180,1.080680 M 458.604499,431.541711 l 2.082829,-1.810575 M 442.483339,445.555621 l -1.577543,1.371337 M 463.603513,433.821199 l 0.420904,-0.365886 M 447.043314,448.216760 l -2.085183,1.812622 M 448.795041,453.319073 l 2.778138,-2.414999 M 455.724492,453.920457 l -2.626172,2.282897 M 453.293370,462.658865 l 6.508453,-5.657712 M 477.258927,448.450988 l -3.104831,2.698988 M 457.661471,465.486797 l 5.717662,-4.970288 M 480.982319,451.839358 l -4.003424,3.480123 M 456.886348,472.785666 l 9.853916,-8.565879 M 483.937070,455.895898 l -3.323215,2.888827 M 460.592870,476.188701 l 10.347111,-8.994606 M 490.761102,456.588922 l -5.913923,5.140895 M 464.361429,479.537808 l 8.564547,-7.445047 M 494.801934,459.701345 l -5.109965,4.442025 M 468.226850,482.802713 l 9.642444,-8.382049 M 367.236147,570.592593 l -7.785058,6.767448 M 499.256486,462.454127 l 1.698349,-1.476352 M 496.705744,464.671454 l -2.599715,2.259898 M 472.179486,485.991804 l 10.553023,-9.173603 M 375.282359,570.223192 l -10.653384,9.260845 M 497.498467,470.607415 l 3.873864,-3.367498 M 486.221197,480.410596 l -9.973476,8.669810 M 370.131183,581.326106 l 12.322631,-10.711900 M 513.291820,463.503527 l -3.449908,2.998959 M 499.618522,475.389544 l 7.152109,-6.217234 M 489.858585,483.873728 l -9.231029,8.024411 M 375.633391,583.168174 l 13.479207,-11.717296 M 516.871712,467.016640 l -3.023150,2.627984 M 505.754576,476.680619 l 6.312245,-5.487151 M 494.983069,486.044147 l -9.679489,8.414252 M 381.189277,584.963581 l 14.148871,-12.299426 M 513.064455,476.951303 l -1.278260,1.111175 M 491.955270,495.301237 l 4.248452,-3.693123 M 401.367610,574.047889 l -14.605346,12.696233 M 496.450928,498.018286 l 4.934045,-4.289100 M 407.379654,575.446764 l -15.044403,13.077900 M 510.048754,492.822942 l 2.795762,-2.430319 M 413.357102,576.875712 l -15.448864,13.429493 M 403.481225,592.085746 l 15.738468,-13.681242 M 518.302499,498.898200 l -1.797939,1.562925 M 495.154578,519.020381 l 1.265567,-1.100141 M 425.082284,579.933297 l -16.028072,13.932991 M 533.774421,492.073729 l 1.469523,-1.277437 M 522.377934,501.980544 l -2.352872,2.045321 M 414.627198,595.646829 l 16.341675,-14.205602 M 571.201141,466.164243 l -1.437916,1.249961 M 538.344468,494.726112 l 2.542618,-2.210265 M 526.330534,505.169666 l -8.715112,7.575931 M 498.505765,529.357369 l 2.219492,-1.929375 M 437.248975,582.607084 l -17.048719,14.820225 M 569.395048,474.359320 l 1.232929,-1.071769 M 547.376414,493.499827 l -4.117029,3.578879 M 534.004790,505.123602 l 5.270269,-4.581375 M 530.450450,508.213343 l -1.187136,1.031962 M 520.694711,516.693877 l 5.977674,-5.196313 M 503.161944,531.934879 l -2.681261,2.330785 M 425.773476,599.207648 l 25.362100,-22.046937 M 577.974526,473.526359 l -0.932209,0.810357 M 548.444449,499.196463 l 2.436346,-2.117883 M 543.416371,503.567305 l -5.581131,4.851603 M 524.515448,519.997626 l 4.215571,-3.664540 M 458.866886,577.065050 l -27.520190,23.922937 M 579.778181,478.583530 l 3.952824,-3.436138 M 546.430059,507.572610 l -3.679281,3.198350 M 536.632184,516.089774 l 1.049402,-0.912232 M 531.275668,520.746121 l -1.577306,1.371131 M 512.865969,536.749429 l 1.753418,-1.524223 M 466.492880,577.060940 l -29.572965,25.707386 M 585.143885,480.544260 l 1.995758,-1.734886 M 519.918349,537.243953 l -3.557787,3.092737 M 442.530845,604.515884 l 31.563585,-27.437806 M 592.400163,480.861539 l -5.301152,4.608221 M 519.916229,543.870861 l 4.792820,-4.166335 M 481.367630,577.380647 l -33.151923,28.818527 M 590.656172,489.002632 l 6.658225,-5.787906 M 559.394396,516.178079 l -0.901231,0.783428 M 523.593178,547.299603 l 6.178474,-5.370865 M 487.261399,578.882337 l -33.360829,29.000126 M 595.709677,491.234752 l 5.966212,-5.186349 M 533.874456,544.987290 l -6.532705,5.678794 M 497.502321,576.605104 l 0.581205,-0.505234 M 492.913915,580.593744 l -33.328483,28.972009 M 602.201025,492.216974 l 2.688895,-2.337421 M 541.653435,544.850191 l -2.861316,2.487304 M 531.265576,553.880219 l 6.983234,-6.070432 M 508.356718,573.794586 l -3.253764,2.828454 M 465.387823,611.146876 l 33.178609,-28.841724 M 611.124629,491.084869 l -4.166616,3.621984 M 535.630605,556.710823 l 11.083445,-9.634692 M 514.427939,575.142019 l -5.394665,4.689511 M 471.213136,612.708074 l 33.052121,-28.731770 M 586.943412,518.730345 l -3.577765,3.110103 M 565.061088,537.752359 l 0.626164,-0.544316 M 552.052138,549.060866 l -4.978970,4.328152 M 539.995634,559.541426 l 5.606681,-4.873813 M 525.668838,571.995520 l -12.393993,10.773934 M 477.038448,614.269272 l 33.089286,-28.764078 M 619.395287,497.145425 l -2.482436,2.157949 M 587.061909,525.252402 l 4.854935,-4.220330 M 572.172735,538.195363 l -3.760158,3.268655 M 544.557262,562.201128 l 11.708400,-10.177957 M 534.797483,570.685174 l -51.850267,45.072749 M 618.717452,504.359723 l 1.385946,-1.204785 M 595.708735,524.360896 l -4.629955,4.024759 M 587.425957,531.561005 l 1.848383,-1.606774 M 575.517162,541.913162 l -3.199447,2.781237 M 549.303419,564.700422 l 11.008689,-9.569707 M 542.632405,570.499445 l -53.714065,46.692924 M 587.830165,537.834697 l 13.024585,-11.322099 M 578.079237,546.311049 l -1.195640,1.039354 M 554.606952,566.715196 l 9.812766,-8.530107 M 547.313307,573.055464 l -49.545394,43.069154 M 494.889464,618.626816 l 1.994966,-1.734198 M 628.501456,509.104748 l -0.409258,0.355763 M 588.070170,544.251129 l 16.905591,-14.695806 M 572.020375,558.203003 l -6.404444,5.567298 M 500.896909,620.029688 l 50.562458,-43.953274 M 633.468237,511.412256 l -2.319754,2.016531 M 607.642243,533.862451 l 4.187237,-3.639909 M 605.279463,535.916384 l -14.071688,12.232332 M 567.920344,568.392170 l 7.873589,-6.844406 M 555.368169,579.303610 l -32.858709,28.563640 M 510.445389,618.354387 l 10.009395,-8.701034 M 508.703305,619.868757 l -1.719839,1.495033 M 596.294619,550.351854 l 18.973849,-16.493715 M 588.523613,557.107086 l -2.721142,2.365453 M 569.330649,573.791276 l 10.204708,-8.870817 M 555.954479,585.419003 l -18.071381,15.709212 M 516.512090,619.705749 l 8.023087,-6.974363 M 614.421862,541.219147 l -13.429561,11.674139 M 575.926666,574.682510 l 7.070774,-6.146530 M 572.196012,577.925519 l -2.164107,1.881229 M 540.511888,605.468107 l 19.914774,-17.311649 M 528.675483,615.757337 l -8.989578,7.814521 M 602.499221,558.208406 l 12.637626,-10.985721 M 597.997718,562.121503 l -6.458672,5.614438 M 579.700929,578.026659 l 6.585647,-5.724816 M 576.124971,581.135192 l -0.719834,0.625742 M 544.726680,608.429310 l 18.983218,-16.501859 M 531.317850,620.085428 l -6.383196,5.548828 M 607.855223,560.177569 l 8.314912,-7.228042 M 606.992748,560.927307 l -13.102865,11.390147 M 548.964721,611.370301 l 16.060055,-13.960793 M 536.500189,622.205554 l -6.099294,5.302036 M 633.083923,544.871660 l 1.138619,-0.989787 M 626.658836,550.456903 l -1.370067,1.190981 M 596.558755,576.622504 l 25.537190,-22.199141 M 568.059511,601.396519 l -15.648078,13.602667 M 536.038121,629.232289 l 6.564640,-5.706554 M 643.524659,542.420732 l -0.945093,0.821557 M 609.664701,571.854744 l 19.117944,-16.618975 M 606.861810,574.291260 l -7.333899,6.375261 M 550.857109,622.975404 l 21.033886,-18.284478 M 550.639893,623.164227 l -8.480278,7.371793 M 615.108804,573.747323 l 20.616415,-17.921576 M 609.392693,578.716262 l -7.828650,6.805342 M 552.402125,628.257407 l 29.188241,-25.372951 M 655.908939,544.905371 l -1.638753,1.424546 M 618.473885,577.447168 l 16.600456,-14.430556 M 613.468811,581.798011 l -9.228320,8.022056 M 556.835445,631.028645 l 37.226165,-32.360212 M 639.972162,565.384065 l -18.017387,15.662276 M 561.568516,633.539315 l 56.743469,-49.326345 M 659.481643,555.049797 l -2.433647,2.115537 M 627.817286,582.575203 l 17.998147,-15.645550 M 621.095796,588.418105 l -46.942681,40.806650 M 568.760427,633.912547 l 2.248559,-1.954642 M 668.366235,553.951604 l -12.662283,11.007155 M 629.462851,587.769800 l 18.856298,-16.391530 M 626.571465,590.283244 l -47.103359,40.946325 M 670.796651,558.463941 l 1.865051,-1.621264 M 668.027846,560.870826 l -9.843109,8.556484 M 646.573420,579.520874 l 4.026600,-3.500270 M 646.368887,579.698672 l -62.923883,54.698897 M 658.337484,575.919594 l 6.587118,-5.726094 M 650.553746,582.685894 l -59.790042,51.974691 M 671.351642,571.231625 l 0.834229,-0.725184 M 664.379723,577.292221 l -7.507621,6.526276 M 600.766315,632.590513 l 54.796297,-47.633695 M 668.540507,580.300372 l -19.345691,16.816952 M 613.440172,628.198362 l 32.990173,-28.677920 M 673.674462,582.462558 l -49.325310,42.877838 M 631.428482,625.811493 l 48.455921,-42.122089 M 684.448573,586.346896 l -48.424227,42.094538 M 653.529558,619.849451 l 35.383403,-30.758323 M 692.186711,592.870365 l -30.995831,26.944265 M 672.366261,616.725085 l 24.731698,-21.498937 M 702.147384,597.461814 l -21.379272,18.584717 M 687.778891,616.577219 l 18.638669,-16.202348 M 684.693604,619.259219 l -2.511060,2.182831 M 692.238090,619.325962 l 17.272400,-15.014669 M 690.428831,620.898726 l -3.408884,2.963297 M 708.895711,611.470777 l 4.000494,-3.477577 M 698.501581,620.506257 l -2.704988,2.351410 M 712.355654,615.088160 l 3.207796,-2.788495"
       id="path5" />
  </g>
  <g
     inkscape:label="fill-2f2f2f"
     inkscape:groupmode="layer"
     id="fill-2f2f2f">
    <path
       style="stroke:#2f2f2f"
       d="M 482.848246,306.895211 l -1.582127,1.475357 M 486.362345,313.189553 l 4.434304,-4.135056 M 496.663916,313.154475 l -5.788387,5.397759 M 495.800707,323.530723 l 9.875065,-9.208647 M 372.498576,438.511820 l -2.206080,2.057203 M 500.811033,328.429810 l 7.212878,-6.726118 M 413.433278,409.910885 l -1.933476,1.802995 M 376.808457,444.064083 l 4.235157,-3.949348 M 514.343732,325.381656 l -2.377029,2.216616 M 505.943242,333.215240 l 4.263364,-3.975651 M 420.350175,413.032067 l -3.523800,3.285996 M 383.689960,447.218270 l 2.584558,-2.410139 M 521.770983,328.026925 l -10.654168,9.935173 M 422.773755,420.343333 l 3.994906,-3.725310 M 420.428126,422.530668 l -2.803101,2.613934 M 391.452081,449.551267 l 1.725493,-1.609049 M 528.966582,330.888213 l -7.981011,7.442413 M 435.175184,418.350106 l 4.300149,-4.009954 M 432.987237,420.390400 l -6.997060,6.524864 M 413.239606,438.805364 l 1.264741,-1.179390 M 533.636823,336.104435 l -3.799711,3.543288 M 525.627415,343.573329 l 1.059046,-0.987576 M 522.321019,346.656593 l -2.195708,2.047531 M 440.206275,423.229830 l 5.467460,-5.098489 M 438.954063,424.397537 l -6.192460,5.774562 M 422.609461,439.639125 l 3.301748,-3.078930 M 451.897263,421.899100 l -5.388759,5.025099 M 439.468411,433.489192 l 5.390264,-5.026502 M 433.413938,439.135079 l -5.362553,5.000661 M 413.370871,457.825542 l 1.783210,-1.662870 M 305.958849,557.988873 l -1.994585,1.859980 M 453.010368,430.432405 l 5.060947,-4.719410 M 450.716984,432.571020 l -4.330352,4.038118 M 431.712632,450.292865 l 8.885694,-8.286044 M 422.702798,458.694671 l -1.861015,1.735424 M 311.389839,562.495685 l 5.423603,-5.057592 M 463.729347,430.008088 l -4.164122,3.883107 M 451.651861,441.270525 l 4.901973,-4.571164 M 447.528617,445.115512 l -9.137341,8.520708 M 319.015178,564.956234 l 8.038447,-7.495973 M 468.592204,435.044692 l -2.320732,2.164118 M 444.854128,457.180806 l 17.405759,-16.231133 M 437.612964,463.933301 l -1.743421,1.625766 M 326.666093,567.392932 l 8.469621,-7.898049 M 483.695090,430.532316 l -1.007475,0.939485 M 461.477193,451.250839 l 6.444708,-6.009787 M 459.295831,453.284993 l -9.718560,9.062704 M 442.489985,468.956698 l 2.546549,-2.374696 M 344.326088,560.496013 l -10.007755,9.332382 M 470.015725,452.859821 l 6.594633,-6.149595 M 464.417223,458.080509 l -14.933327,13.925553 M 341.970573,572.263858 l 9.532287,-8.889002 M 493.728777,440.318335 l -0.687310,0.640927 M 485.569167,447.927295 l 2.835355,-2.644012 M 484.087369,449.309094 l -10.299532,9.604469 M 456.288875,475.231609 l 13.437165,-12.530359 M 361.267079,563.840867 l -11.764712,10.970772 M 481.256278,461.520421 l 12.510999,-11.666695 M 474.961582,467.390320 l -13.035386,12.155694 M 356.990689,577.399957 l 10.727467,-10.003525 M 499.328061,454.239503 l -11.392678,10.623844 M 467.554915,483.868441 l 12.864713,-11.996539 M 381.157022,564.435780 l -16.678010,15.552496 M 575.413626,392.859858 l 1.676947,-1.563778 M 508.004922,455.719491 l -13.797867,12.866719 M 473.436937,487.954659 l 14.409567,-13.437139 M 389.192572,566.513800 l -17.188818,16.028832 M 506.845157,466.372282 l 8.053335,-7.509856 M 506.310507,466.870851 l -9.899537,9.231468 M 479.426514,491.940580 l 13.166600,-12.278053 M 396.104177,569.639916 l -16.533445,15.417687 M 524.184672,459.774214 l 2.469523,-2.302867 M 521.351640,462.416060 l -35.646919,33.241290 M 404.452622,571.426158 l 2.709232,-2.526400 M 402.622715,573.132574 l -15.485004,14.439999 M 517.904229,475.202115 l 9.653707,-9.002227 M 517.414615,475.658688 l -24.908688,23.227727 M 412.957392,573.066623 l 2.527357,-2.356799 M 411.445866,574.476144 l -16.741176,15.611400 M 548.724471,456.033066 l 2.927924,-2.730333 M 532.834565,470.850643 l -2.170543,2.024064 M 517.177637,485.450965 l 8.025991,-7.484358 M 514.441247,488.002690 l -6.953515,6.484258 M 499.783966,501.670826 l 4.187873,-3.905254 M 492.770829,508.210682 l -1.240720,1.156990 M 402.271668,592.602515 l 18.861282,-17.588430 M 556.404666,458.442461 l -1.378389,1.285368 M 522.768122,489.809046 l 10.503046,-9.794249 M 521.104595,491.360310 l -1.454957,1.356769 M 512.650941,499.243469 l 4.834338,-4.508093 M 497.259090,513.596603 l -4.670922,4.355705 M 409.898906,595.061292 l 18.589810,-17.335278 M 553.147489,471.051120 l -0.637687,0.594652 M 530.275114,492.379955 l 9.496635,-8.855755 M 527.672880,494.806577 l -2.256316,2.104049 M 516.799087,504.946553 l 5.467897,-5.098897 M 500.071706,520.545089 l -4.967907,4.632648 M 417.550242,597.497599 l 20.401525,-19.024730 M 571.083244,463.897050 l -3.165861,2.952213 M 530.415122,501.820687 l 15.577123,-14.525902 M 527.515380,504.524740 l -10.236137,9.545352 M 497.534113,532.482725 l 5.189400,-4.839194 M 452.404031,574.567207 l -27.202454,25.366699 M 595.465133,450.731863 l 1.966753,-1.834027 M 578.746794,466.321966 l -5.369471,5.007113 M 569.481238,474.962237 l 2.182395,-2.035116 M 550.837101,492.348176 l -15.811912,14.744846 M 530.173547,511.617252 l 2.797495,-2.608706 M 529.181741,512.542126 l -6.968832,6.498541 M 508.823701,531.526306 l 5.069398,-4.727290 M 501.269156,538.571033 l -1.381115,1.287911 M 432.852913,602.370212 l 29.805385,-27.793971 M 602.881381,453.387392 l -1.280185,1.193792 M 577.139448,477.392133 l 10.252778,-9.560870 M 555.299454,497.758257 l -20.206634,18.842991 M 528.530328,522.720870 l 3.657706,-3.410866 M 519.992295,530.682715 l -8.134734,7.585762 M 440.573490,604.741949 l 32.817853,-30.603143 M 611.740934,454.697018 l -1.006582,0.938653 M 583.216062,481.296891 l 10.590360,-9.875670 M 559.777492,503.153711 l -5.681089,5.297701 M 538.850520,522.668428 l 1.890732,-1.763136 M 529.634515,531.262492 l -13.941801,13.000940 M 448.376011,607.037273 l 36.596503,-34.126791 M 617.430070,458.963105 l -1.977392,1.843948 M 611.219078,464.754948 l 1.284780,-1.198076 M 595.419429,479.488359 l -8.553064,7.975861 M 573.455346,499.970199 l 0.943244,-0.879589 M 561.490267,511.127815 l -6.630195,6.182757 M 519.959961,549.855452 l 16.727202,-15.598368 M 514.371955,555.066351 l -2.349306,2.190763 M 500.282086,568.205367 l 1.417169,-1.321532 M 494.545282,573.555023 l -38.366750,35.777573 M 614.895522,470.897901 l 2.409380,-2.246783 M 602.528202,482.430614 l -9.390402,8.756691 M 575.942402,507.222273 l 1.964136,-1.831587 M 573.801542,509.218657 l -2.149713,2.004639 M 560.808356,521.334999 l 5.077689,-4.735022 M 551.298805,530.202799 l -1.169312,1.090401 M 522.901575,556.683644 l 21.969060,-20.486480 M 506.849830,571.652139 l -42.790396,39.902690 M 620.131251,475.586797 l 1.708786,-1.593469 M 609.328083,485.660914 l -8.880906,8.281578 M 590.481571,503.235571 l 3.162458,-2.949040 M 589.529356,504.123526 l -13.161296,12.273107 M 568.022243,524.179233 l 2.247653,-2.095970 M 565.146056,526.861320 l -2.118816,1.975828 M 527.991955,561.508081 l 22.985430,-21.434261 M 516.717443,572.021733 l -44.751443,41.731396 M 607.564496,496.876778 l 6.984623,-6.513266 M 603.002820,501.130609 l -11.178645,10.424255 M 579.693206,522.867177 l 10.599519,-9.884211 M 574.400465,527.802737 l -4.244715,3.958260 M 563.481440,537.984893 l 3.335897,-3.110774 M 555.837672,545.112821 l -22.648884,21.120426 M 479.985487,615.846129 l 50.572982,-47.160069 M 633.818881,481.965460 l -5.825010,5.431910 M 613.331013,501.070706 l 6.249932,-5.828156 M 608.084835,505.962846 l -27.635782,25.770784 M 568.578654,542.802956 l 6.022104,-5.615703 M 560.635780,550.209806 l -72.576983,67.679132 M 632.343422,492.912640 l 6.144183,-5.729544 M 624.612351,500.121980 l -8.447668,7.877578 M 604.868493,518.533426 l 6.610640,-6.164521 M 602.772826,520.487667 l -18.194778,16.966905 M 574.175654,547.154961 l 6.718511,-6.265113 M 568.749376,552.215047 l -72.510310,67.616958 M 633.914217,501.019142 l 8.367356,-7.802686 M 629.508719,505.127336 l -10.377956,9.677601 M 579.725732,551.550722 l 37.822856,-35.270384 M 574.040294,556.852479 l -69.588820,64.892624 M 638.659781,506.165125 l 5.376696,-5.013850 M 634.403387,510.134276 l -5.038738,4.698700 M 583.346651,557.745453 l 40.686627,-37.940893 M 579.364244,561.459107 l -66.768412,62.262551 M 644.362329,510.418705 l 3.072587,-2.865234 M 642.042887,512.581619 l -5.565148,5.189584 M 632.460057,521.517753 l 0.276658,-0.257987 M 630.629469,523.224804 l -1.185970,1.105935 M 587.225237,563.699905 l 39.180724,-36.536617 M 584.764194,565.994865 l -16.930959,15.788375 M 539.498375,608.205924 l 23.837583,-22.228906 M 531.546373,615.621285 l -10.857959,10.125211 M 646.919346,517.605539 l 4.980660,-4.644540 M 646.431376,518.060579 l -3.611616,3.367886 M 623.088343,539.828310 l 5.397627,-5.033369 M 617.082451,545.428895 l -44.306234,41.316232 M 546.495331,611.252449 l 20.662607,-19.268193 M 539.955197,617.351223 l -11.807857,11.011004 M 651.076915,523.299836 l 5.588196,-5.211077 M 645.152238,528.824687 l -1.726388,1.609883 M 629.030568,543.858388 l 4.191852,-3.908965 M 624.707917,547.889325 l -47.569290,44.359080 M 572.364411,596.700434 l 1.000109,-0.932616 M 569.775273,599.114844 l -34.577274,32.243830 M 649.006101,534.802194 l 2.037270,-1.899785 M 647.656878,536.060365 l -12.179888,11.357930 M 582.468036,596.849943 l 48.221774,-44.967532 M 577.659458,601.334015 l -33.829076,31.546123 M 650.932776,542.576833 l 3.425491,-3.194322 M 646.410086,546.794309 l -4.456257,4.155527 M 615.227163,575.872855 l 23.530953,-21.942969 M 612.323882,578.580209 l -13.817955,12.885451 M 552.987526,633.912256 l 43.176079,-40.262345 M 548.589708,638.013287 l -2.077245,1.937062 M 654.789392,548.551772 l 4.734001,-4.414528 M 638.677079,563.576747 l -76.393666,71.238246 M 654.583890,558.314698 l 8.555227,-7.977878 M 646.713695,565.653774 l -74.861853,69.809808 M 581.640820,635.906503 l 89.434887,-83.399382 M 676.127988,557.367086 l -4.465623,4.164260 M 591.458931,636.322259 l 78.610498,-73.305475 M 678.953018,564.303996 l -1.953299,1.821481 M 599.783746,638.130536 l 73.734583,-68.758611 M 682.395638,570.664992 l -2.409861,2.247232 M 674.875529,577.677607 l 2.737485,-2.552746 M 672.129362,580.238449 l -54.348682,50.680966 M 607.158755,640.824521 l 7.883175,-7.351180 M 687.129205,575.822162 l -2.455142,2.289457 M 624.211143,634.494204 l 60.164900,-56.104677 M 689.025832,583.624821 l -40.304065,37.584149 M 659.098564,621.103742 l 33.102091,-30.868199 M 704.892925,587.971102 l -1.237528,1.154014 M 672.405635,618.265990 l 28.797267,-26.853885 M 713.674660,589.353294 l -2.765036,2.578438 M 679.248674,621.456045 l 28.313749,-26.402998 M 718.855031,594.093812 l -32.970431,30.745424 M 719.698805,602.878272 l 1.697263,-1.582723 M 715.863367,606.454876 l -7.406027,6.906232 M 697.050400,623.998251 l 6.604369,-6.158673 M 719.022420,613.080304 l -5.177424,4.828026 M 718.746171,622.909202 l 3.517336,-3.279969"
       id="path8" />
  </g>
  <g
     inkscape:label="fill-4e4e4e"
     inkscape:groupmode="layer"
     id="fill-4e4e4e">
    <path
       style="stroke:#4e4e4e"
       d="M 484.118208,305.485056 l -6.094230,6.310760 M 484.496934,318.048882 l 8.780243,-9.092207 M 369.837968,436.781717 l -3.532487,3.657998 M 491.263600,323.997803 l 12.251267,-12.686558 M 382.065239,437.076017 l -7.786576,8.063236 M 498.230134,329.739755 l 12.940694,-13.400481 M 434.254899,395.988050 l -1.265941,1.310921 M 413.144138,417.848883 l 7.247892,-7.505412 M 400.340409,431.107532 l -0.867291,0.898106 M 382.765421,449.306965 l 8.062776,-8.349248 M 518.173909,322.043381 l -12.723788,13.175868 M 440.254697,402.731086 l 1.104623,-1.143870 M 432.212935,411.058575 l -18.536932,19.195555 M 406.718862,437.458460 l 3.623917,-3.752676 M 400.422897,443.978122 l -7.207614,7.463703 M 512.317984,341.063377 l 12.984895,-13.446252 M 448.469576,407.180339 l -1.612571,1.669867 M 427.166431,429.240391 l 14.169651,-14.673103 M 425.374706,431.095777 l -10.995249,11.385914 M 406.717074,450.416321 l 2.929941,-3.034043 M 406.042175,451.115199 l -3.199115,3.312781 M 301.468094,559.404830 l 2.399606,-2.484864 M 532.600937,333.015773 l -9.621457,9.963310 M 518.433026,347.687075 l 2.486054,-2.574384 M 449.026622,419.559510 l -26.896553,27.852196 M 416.747579,452.985437 l 1.457706,-1.509498 M 415.273687,454.511697 l -4.060698,4.204976 M 310.478279,563.030518 l 6.583659,-6.817579 M 538.993388,339.352206 l -8.080790,8.367903 M 430.042745,452.173898 l 27.201750,-28.168237 M 424.496179,457.917536 l -4.732232,4.900370 M 336.210873,549.339647 l 1.558701,-1.614082 M 329.078487,556.725449 l -9.070918,9.393211 M 535.685577,355.733553 l 8.606697,-8.912495 M 464.424964,429.526077 l -26.264748,27.197942 M 429.462419,465.730853 l 4.358189,-4.513037 M 347.981551,550.106761 l -1.923434,1.991774 M 329.536747,569.206915 l 9.811821,-10.160438 M 551.005455,352.825363 l -4.881769,5.055220 M 477.961811,428.464271 l 2.073486,-2.147158 M 471.130647,435.538148 l -3.957482,4.098093 M 446.206127,461.348244 l 19.199845,-19.882022 M 442.978760,464.690281 l -5.407370,5.599495 M 356.155139,554.598773 l 1.795026,-1.858804 M 350.624492,560.325925 l -11.558566,11.969245 M 484.465890,434.685109 l 2.390226,-2.475152 M 477.227508,442.180673 l -30.747058,31.839511 M 366.190007,557.163371 l 1.664953,-1.724110 M 360.977991,562.560571 l -12.382886,12.822854 M 556.571394,372.973683 l 4.271208,-4.422965 M 493.357195,438.433902 l -1.996999,2.067953 M 455.357530,477.783707 l 32.158052,-33.300637 M 376.424246,559.521516 l -18.299962,18.950165 M 561.713837,380.604536 l 5.147111,-5.329990 M 499.779103,444.739830 l -1.915797,1.983866 M 482.061870,463.086562 l 12.919296,-13.378323 M 478.503250,466.771621 l -14.853494,15.381243 M 367.653463,581.559936 l 22.592351,-23.395065 M 572.786661,382.094300 l -4.891523,5.065321 M 503.850829,453.479443 l 2.661629,-2.756198 M 502.326694,455.057732 l -11.649450,12.063359 M 471.269125,487.218786 l 14.321146,-14.829980 M 402.522611,558.407885 l -25.340294,26.240643 M 574.188399,393.598767 l 4.523975,-4.684714 M 517.698833,452.095425 l -38.727565,40.103568 M 386.694561,587.754320 l 24.126533,-24.983757 M 583.987615,396.407390 l -3.730992,3.863555 M 487.076028,496.762276 l 38.964903,-40.349338 M 424.442101,561.621607 l -28.235297,29.238506 M 589.522961,403.631380 l 0.940512,-0.973929 M 588.479137,404.712292 l -2.418783,2.504723 M 495.606406,500.884820 l 38.526227,-39.895075 M 433.444185,565.255684 l -27.725138,28.710221 M 595.220222,410.687702 l 0.953113,-0.986977 M 561.216714,445.899366 l -4.922938,5.097852 M 549.626227,457.901666 l 3.646601,-3.776165 M 542.227425,465.563351 l -31.728406,32.855726 M 504.926172,504.189928 l 3.942947,-4.083041 M 497.657784,511.716565 l -6.299479,6.523302 M 441.323510,570.052413 l 3.090285,-3.200084 M 438.975341,572.484013 l -23.744050,24.587684 M 599.714560,418.989688 l 0.266726,-0.276203 M 593.752807,425.163265 l -4.078920,4.223845 M 574.655620,444.938981 l 1.146856,-1.187604 M 569.330501,450.453302 l -7.133380,7.386832 M 557.941152,462.247319 l 1.655513,-1.714334 M 550.988270,469.447239 l -3.333443,3.451881 M 544.395556,476.274194 l 2.161011,-2.237792 M 540.114149,480.707721 l -15.676999,16.234008 M 513.337606,508.435643 l 9.293822,-9.624034 M 501.323861,520.876240 l -6.686262,6.923827 M 458.238833,565.492093 l 0.482254,-0.499388 M 454.721526,569.134371 l -29.977991,31.043119 M 596.822692,434.940315 l 3.320029,-3.437990 M 594.550339,437.293405 l -5.869288,6.077825 M 563.768482,469.168950 l 7.107507,-7.360039 M 559.307851,473.788069 l -10.017585,10.373513 M 530.547986,503.569782 l 17.106987,-17.714803 M 529.259017,504.904548 l -10.862631,11.248584 M 506.538389,528.432447 l 5.389187,-5.580667 M 505.185641,529.833259 l -7.242507,7.499835 M 434.355707,603.179802 l 34.404147,-35.626537 M 610.768287,433.455236 l -1.798725,1.862634 M 592.852244,452.007842 l 13.428335,-13.905448 M 588.455240,456.561073 l -2.499313,2.588115 M 573.379661,472.172292 l 9.494127,-9.831456 M 572.542028,473.039686 l -2.529673,2.619553 M 561.571686,484.399808 l 6.052304,-6.267344 M 561.190276,484.794771 l -5.219985,5.405453 M 532.515922,514.487933 l 22.734483,-23.542246 M 531.471544,515.569418 l -6.495561,6.726350 M 510.377930,537.412494 l 9.489556,-9.826723 M 503.106103,544.942692 l -1.251047,1.295497 M 443.974666,606.175088 l 34.488628,-35.714020 M 616.540314,440.434137 l -2.258632,2.338882 M 611.458201,445.696818 l 0.024059,-0.024914 M 610.796848,446.381670 l -12.629419,13.078147 M 592.872644,464.942727 l 2.785254,-2.884215 M 591.507117,466.356771 l -12.605392,13.053265 M 562.597046,496.294025 l 4.418320,-4.575304 M 560.175463,498.801649 l -15.769540,16.329836 M 534.491787,525.397873 l 8.355463,-8.652335 M 530.899785,529.117500 l -17.600916,18.226282 M 504.588699,556.363427 l 6.456815,-6.686227 M 501.144613,559.929883 l -0.842326,0.872255 M 453.593625,609.170373 l 35.775586,-37.046704 M 620.795738,448.983525 l -0.533734,0.552697 M 603.688455,466.698635 l 12.672647,-13.122910 M 602.455384,467.975517 l -2.442937,2.529735 M 583.357732,487.751715 l 15.350737,-15.896153 M 578.788153,492.483653 l -1.703347,1.763868 M 553.914976,518.240581 l 21.060402,-21.808685 M 539.570479,533.094743 l -26.593206,27.538071 M 506.483996,567.356799 l 3.719208,-3.851353 M 505.222975,568.662625 l -41.826518,43.312627 M 617.565677,465.284360 l 4.310679,-4.463839 M 617.242503,465.619016 l -6.730744,6.969890 M 606.817348,476.414581 l 2.185819,-2.263482 M 604.289493,479.032251 l -12.450542,12.892914 M 571.200358,513.297053 l 16.946809,-17.548934 M 568.417732,516.178546 l -9.751343,10.097812 M 551.338536,533.864572 l 3.238089,-3.353139 M 549.383326,535.889251 l -76.096984,78.800734 M 624.207474,471.362586 l 2.824740,-2.925104 M 622.929625,472.685838 l -4.302887,4.455770 M 613.432828,482.520060 l 2.047900,-2.120663 M 611.041314,484.996545 l -9.912786,10.264990 M 576.975303,520.272931 l 21.518298,-22.282850 M 574.402838,522.936797 l -8.185870,8.476716 M 561.269344,536.536928 l 3.135693,-3.247105 M 556.521103,541.453876 l -73.273784,75.877224 M 633.426128,474.772400 l 1.593309,-1.649920 M 633.372351,474.828088 l -3.729162,3.861660 M 624.080610,484.449967 l 4.639471,-4.804313 M 622.496364,486.090502 l -3.096349,3.206363 M 609.964870,499.067244 l 7.614166,-7.884700 M 607.618134,501.497360 l -28.984111,30.013926 M 574.765998,535.516743 l 2.464139,-2.551691 M 574.498574,535.793668 l -6.866164,7.110121 M 493.418650,619.754387 l 70.644257,-73.154269 M 641.530344,479.336248 l -1.619633,1.677179 M 626.190949,495.220656 l 10.762137,-11.144520 M 624.362762,497.113799 l -40.255201,41.685481 M 574.823447,548.413261 l 7.730035,-8.004686 M 571.390430,551.968254 l -67.800449,70.209420 M 632.492977,501.650724 l 14.281774,-14.789210 M 630.710303,503.496737 l -49.885775,51.658232 M 513.785954,624.575444 l 64.120614,-66.398840 M 651.185681,495.249870 l -84.077414,87.064711 M 523.805315,627.156101 l 41.375295,-42.845372 M 656.368566,502.838845 l -36.567143,37.866385 M 571.257413,590.974024 l 47.632699,-49.325103 M 570.430514,591.830303 l -39.944783,41.364034 M 659.575078,512.474414 l 2.004216,-2.075426 M 657.958372,514.148562 l -21.086598,21.835812 M 628.370116,544.788097 l 5.568999,-5.766867 M 625.715748,547.536776 l -90.987075,94.219874 M 655.598890,529.547885 l 6.070604,-6.286294 M 653.141550,532.092536 l -111.527800,115.490418 M 662.474364,535.384133 l 4.208433,-4.357960 M 660.450556,537.479848 l -8.450343,8.750586 M 643.697340,554.828310 l 4.016287,-4.158987 M 641.030349,557.590061 l -75.719497,78.409835 M 669.361583,541.208218 l 1.346123,-1.393951 M 665.014428,545.709828 l -10.798161,11.181823 M 577.286891,636.554352 l 69.752644,-72.230977 M 672.123648,551.304024 l -84.588361,87.593812 M 672.735964,563.625962 l 5.528098,-5.724513 M 671.734441,564.663069 l -73.651402,76.268260 M 671.907681,577.439683 l 12.117359,-12.547892 M 671.224906,578.146717 l -61.391901,63.573175 M 627.368355,636.517513 l 60.847699,-63.009637 M 696.016777,578.386000 l -42.260389,43.761914 M 665.621967,622.816757 l 37.948825,-39.297159 M 712.869721,586.846284 l -34.508893,35.735005 M 687.959285,625.597805 l 32.178068,-33.321365 M 723.054246,602.211918 l -13.478562,13.957459 M 714.681755,623.837895 l 9.899775,-10.251518 M 730.619461,620.289926 l -3.478312,3.601898 M 737.848778,625.759757 l 1.578795,-1.634890"
       id="path11" />
  </g>
  <g
     inkscape:label="fill-6c6c6c"
     inkscape:groupmode="layer"
     id="fill-6c6c6c">
    <path
       style="stroke:#6c6c6c"
       d="M 474.831107,303.105791 l -3.289074,3.652887 M 478.811004,315.124909 l 8.491676,-9.430961 M 426.451078,373.276498 l -0.623614,0.692593 M 364.333022,442.265588 l 6.416737,-7.126509 M 498.825834,309.335431 l -11.654438,12.943565 M 431.906326,383.657074 l 2.312830,-2.568658 M 426.805843,389.321734 l -0.751337,0.834445 M 408.458019,409.699057 l 1.466154,-1.628329 M 403.378952,415.339932 l -2.543492,2.824834 M 395.962778,423.576428 l 1.936402,-2.150592 M 394.690155,424.989819 l -2.070058,2.299033 M 373.987921,447.981979 l 10.430885,-11.584672 M 509.405458,314.024810 l -13.852733,15.385018 M 437.313356,394.091201 l 4.552555,-5.056125 M 436.548038,394.941172 l -3.853851,4.280135 M 409.991817,424.434844 l 13.781427,-15.305825 M 404.929311,430.057326 l -4.271931,4.744461 M 385.131418,452.045114 l 11.514496,-12.788143 M 518.155146,320.746539 l -13.871799,15.406193 M 447.787946,398.897232 l 1.724720,-1.915495 M 444.872094,402.135614 l -4.188452,4.651748 M 409.951999,440.918308 l 26.681752,-29.633088 M 408.280710,442.774463 l -11.516221,12.790059 M 302.290865,560.488110 l 4.431346,-4.921508 M 526.904545,327.468589 l -13.599866,15.104181 M 456.620940,405.526440 l 0.501293,-0.556743 M 453.368655,409.138469 l -4.643043,5.156621 M 408.200288,459.303023 l 38.188938,-42.413112 M 321.682347,555.390930 l -8.194179,9.100557 M 520.344195,351.193837 l 14.995984,-16.654728 M 461.691402,416.334364 l -2.614209,2.903374 M 418.767578,464.006100 l 37.453923,-41.596796 M 343.699832,547.377278 l -3.700503,4.109825 M 324.978073,568.169898 l 9.507027,-10.558623 M 542.314874,343.232168 l -9.690292,10.762160 M 469.237267,424.393074 l 3.524447,-3.914295 M 465.271464,428.797544 l -35.969780,39.948488 M 352.831271,553.675029 l 3.053173,-3.390892 M 347.936733,559.110965 l -11.457099,12.724397 M 541.463616,360.616829 l 9.055965,-10.057668 M 481.841107,426.834333 l -3.675718,4.082298 M 440.336681,472.929669 l 34.354618,-38.154669 M 367.792262,553.498407 l -4.105385,4.559492 M 347.945725,575.540221 l 12.867258,-14.290538 M 557.868612,358.836477 l -8.920114,9.906790 M 486.820210,437.743722 l 3.304215,-3.669702 M 482.379809,442.675287 l -31.095676,34.535247 M 359.310436,579.357672 l 21.226311,-23.574206 M 564.144009,368.306185 l -8.276593,9.192088 M 495.151688,444.929920 l 3.001055,-3.333009 M 492.812043,447.528358 l -31.155407,34.601584 M 370.675146,583.175124 l 23.949135,-26.598209 M 571.835051,376.203659 l -8.186020,9.091496 M 560.564478,388.720898 l 1.225349,-1.360888 M 507.648441,447.490111 l -4.803342,5.334652 M 489.028915,468.169190 l 13.029463,-14.470685 M 485.850838,471.698802 l -14.644463,16.264324 M 382.100227,586.925529 l 26.224416,-29.125165 M 579.059335,384.619521 l -7.483862,8.311671 M 480.710274,493.847219 l 37.954210,-42.152421 M 421.152913,559.992369 l -27.600728,30.653714 M 578.860128,401.280004 l 7.106343,-7.892393 M 528.608129,457.090503 l -37.817626,42.000729 M 405.004144,594.366636 l 28.485120,-31.635931 M 593.046010,401.964229 l -7.192177,7.987722 M 552.368278,447.141427 l 4.141632,-4.599749 M 549.198721,450.661576 l -1.901214,2.111512 M 501.052096,504.133821 l 37.411643,-41.549838 M 498.016292,507.505423 l -8.212996,9.121457 M 416.531465,598.003492 l 31.570063,-35.062107 M 599.909460,410.780837 l -15.040781,16.704480 M 579.787387,433.128663 l 2.968734,-3.297113 M 572.336259,441.403980 l -13.147332,14.601592 M 554.618697,461.081325 l 2.981612,-3.311415 M 548.732412,467.618707 l -38.273953,42.507532 M 508.567282,512.226603 l 1.581326,-1.756240 M 502.151129,519.352463 l -8.195824,9.102384 M 428.063093,601.635563 l 33.562456,-37.274884 M 606.488906,419.912864 l -20.488172,22.754420 M 562.792070,468.443116 l 18.946159,-21.041842 M 558.819775,472.854798 l -40.204120,44.651198 M 498.124025,540.264257 l 17.619665,-19.568620 M 473.569122,567.535240 l -33.951339,37.706782 M 570.359295,476.478105 l 42.421215,-47.113533 M 569.233253,477.728701 l -41.856504,46.486357 M 508.434362,545.252710 l 18.796056,-20.875135 M 485.628775,570.580880 l -34.385588,38.189065 M 580.882364,481.230295 l 37.764647,-41.941890 M 578.962123,483.362938 l -7.566003,8.402898 M 548.464480,517.234002 l 22.084813,-24.527670 M 544.378194,521.772282 l -3.682748,4.090106 M 462.868590,612.297868 l 73.719528,-81.873831 M 623.547897,450.284662 l -66.965586,74.372818 M 474.797054,615.489210 l 77.623597,-86.209738 M 631.884236,457.465461 l -2.342163,2.601235 M 564.904658,531.853819 l 62.941100,-69.903174 M 564.052308,532.800449 l -4.089337,4.541668 M 486.793554,618.604988 l 70.856586,-78.694211 M 638.055424,467.050904 l -29.149388,32.373675 M 568.473344,544.329633 l 39.287999,-43.633743 M 567.051359,545.908908 l -68.103258,75.636331 M 638.834684,482.624690 l 4.904917,-5.447462 M 638.038721,483.508697 l -61.255414,68.031030 M 511.109513,624.477864 l 64.258172,-71.365930 M 649.364649,487.369222 l -126.046823,139.989179 M 530.659445,635.643949 l 124.546091,-138.322447 M 661.197586,507.105898 l -25.481064,28.299589 M 627.221076,544.840635 l 7.270945,-8.075203 M 625.613458,546.626075 l -89.975495,99.927911 M 560.308431,635.593898 l 105.532144,-117.205320 M 669.205489,531.090705 l -16.003036,17.773173 M 573.457988,637.429078 l 75.572521,-83.931787 M 669.687079,546.995087 l -83.814232,93.085135 M 598.842002,642.115758 l 78.365718,-87.033947 M 684.281020,563.665357 l -69.037802,76.674247 M 634.586789,635.295635 l 55.125229,-61.222769 M 700.442192,578.595042 l -41.748034,46.365889 M 674.486751,623.860721 l 36.688814,-40.747056 M 719.672360,590.116261 l -32.117893,35.670534 M 708.254834,619.235950 l 16.209020,-18.001940 M 725.497961,616.524759 l -7.141346,7.931268 M 732.204810,625.515291 l 4.658322,-5.173591"
       id="path14" />
  </g>
  <g
     inkscape:label="fill-8e8e8e"
     inkscape:groupmode="layer"
     id="fill-8e8e8e">
    <path
       style="stroke:#8e8e8e"
       d="M 478.447185,302.970505 l -6.040281,7.459125 M 422.484802,372.078292 l 1.331009,-1.643659 M 372.645693,433.624466 l -8.148918,10.063075 M 481.951109,319.300723 l 10.048741,-12.409162 M 433.262406,379.426265 l -3.015460,3.723783 M 425.153670,389.439719 l 1.749030,-2.159872 M 410.560204,407.461149 l -18.372597,22.688268 M 376.133079,449.975108 l 11.851543,-14.635437 M 505.432434,310.960906 l -13.506527,16.679172 M 432.821358,400.628117 l 9.768274,-12.062813 M 426.437662,408.511325 l -16.524937,20.406598 M 402.784621,437.720399 l 5.855117,-7.230468 M 402.254405,438.375161 l -12.879003,15.904244 M 302.772713,561.224820 l 5.127755,-6.332249 M 516.251522,318.257650 l -14.077558,17.384336 M 448.999718,401.306711 l 2.913480,-3.597848 M 447.870329,402.701390 l -6.023354,7.438223 M 402.783108,458.379472 l 37.479016,-46.282730 M 324.524976,555.020216 l -8.723126,10.772163 M 512.387148,343.686958 l 13.981176,-17.265315 M 461.234401,406.855341 l -2.267389,2.799992 M 415.242538,463.650561 l 42.634823,-52.649622 M 349.036734,545.407920 l -6.071970,7.498258 M 329.042570,570.098657 l 10.173330,-12.563016 M 536.318948,334.790851 l -14.845572,18.332755 M 468.489342,418.553439 l 2.262828,-2.794360 M 467.893204,419.289608 l -3.161051,3.903573 M 427.684673,468.943009 l 35.151722,-43.408762 M 362.316240,549.666301 l -6.467055,7.986148 M 342.283288,574.404935 l 12.459949,-15.386755 M 545.560309,344.035925 l -13.043621,16.107530 M 475.752910,430.240884 l 4.651330,-5.743914 M 473.609225,432.888115 l -33.121005,40.901035 M 373.967323,555.935616 l 2.314865,-2.858620 M 373.576628,556.418084 l -18.052621,22.293130 M 545.782795,364.418382 l 8.817465,-10.888662 M 490.274404,432.965536 l -4.006635,4.947782 M 453.039417,478.946916 l 30.919056,-38.181854 M 390.868417,555.721707 l -22.103691,27.295785 M 552.695697,376.538864 l 10.579474,-13.064563 M 500.561509,440.919225 l -4.308734,5.320843 M 464.987432,484.849551 l 29.659577,-36.626527 M 407.102525,556.331458 l -25.119321,31.019778 M 559.513207,388.777144 l 12.273849,-15.156942 M 511.973294,447.484048 l -18.720039,23.117323 M 476.143760,491.729838 l 15.555326,-19.209228 M 421.881893,558.737663 l -26.687402,32.956197 M 570.745968,395.563044 l 9.125954,-11.269615 M 523.630989,453.745199 l -36.027756,44.490574 M 408.405777,596.036485 l 28.035861,-34.621405 M 588.232100,394.626675 l -8.560794,10.571700 M 489.135651,517.000598 l 46.119758,-56.953157 M 453.276708,561.282704 l -31.644110,39.077222 M 584.874821,419.429773 l 11.841207,-14.622672 M 568.056245,440.198985 l -16.154816,19.949536 M 508.716096,513.477966 l 38.233864,-47.214889 M 504.550738,518.621755 l -10.394311,12.835905 M 435.123723,604.356978 l 32.355126,-39.955253 M 604.770686,415.517631 l -42.774507,52.822117 M 520.412424,519.691408 l 38.636968,-47.712682 M 519.625084,520.663692 l -11.874969,14.664366 M 499.619292,545.368788 l 6.061358,-7.485154 M 481.818443,567.351005 l -33.203596,41.003026 M 497.453663,568.700321 l 114.882259,-141.867775 M 496.098646,570.373629 l -33.940040,41.912459 M 552.450092,521.442592 l 67.152650,-82.926616 M 551.021791,523.206397 l -75.217894,92.886363 M 489.550529,619.774288 l 138.006098,-170.423338 M 635.128637,460.657501 l -131.586099,162.495300 M 517.507831,626.564305 l 124.786113,-154.098016 M 649.118460,484.695917 l -120.248097,148.494032 M 534.690288,646.660145 l 121.346428,-149.850359 M 662.762596,509.161222 l -102.824710,126.977942 M 574.945214,638.263862 l 93.114246,-114.986518 M 671.577374,539.590286 l -82.778317,102.222709 M 604.632051,642.918079 l 72.360136,-89.357327 M 685.213230,564.065815 l -60.196172,74.336081 M 653.215827,624.236522 l 41.168543,-50.838917 M 706.748155,578.786806 l -39.726689,49.058375 M 684.939472,626.375492 l 32.044060,-39.571118 M 724.781497,597.831893 l -22.238622,27.462411 M 719.344107,625.203715 l 9.816084,-12.121854 M 739.201422,621.339177 l -4.135706,5.107171"
       id="path17" />
  </g>
  <g
     inkscape:label="fill-aeaeae"
     inkscape:groupmode="layer"
     id="fill-aeaeae">
    <path
       style="stroke:#aeaeae"
       d="M 417.816726,362.512358 l -1.298487,1.723151 M 473.593186,313.419097 l 8.066207,-10.704219 M 428.606045,373.119049 l -3.052705,4.051076 M 387.544882,427.609053 l 10.272438,-13.631985 M 383.345341,433.182033 l -11.831811,15.701344 M 485.148426,323.009378 l 11.897924,-15.789079 M 439.130994,384.076573 l -10.059395,13.349268 M 407.700158,425.786700 l 14.230804,-18.884915 M 406.383511,427.533950 l -20.075078,26.640528 M 304.630458,562.564812 l 6.203123,-8.231823 M 510.923747,313.728974 l -14.195351,18.837867 M 439.305243,408.769938 l 10.373542,-13.766156 M 438.300392,410.103421 l -37.008266,49.111628 M 333.268267,549.485759 l 3.406165,-4.520133 M 329.137807,554.967064 l -9.518686,12.631723 M 508.894041,341.347087 l 13.776578,-18.282136 M 460.470747,405.606969 l -44.716656,59.341007 M 348.177445,554.625214 l 6.416558,-8.515060 M 345.784851,557.800293 l -11.074213,14.695978 M 518.872765,353.029475 l 15.581007,-20.676694 M 471.521863,415.866244 l -6.675160,8.858237 M 430.214713,470.682683 l 34.554023,-45.854737 M 370.339703,550.139505 l -20.537550,27.254249 M 531.687370,360.948522 l 13.704000,-18.185823 M 482.869866,425.731538 l -5.281172,7.008352 M 444.827284,476.215749 l 31.764450,-42.152850 M 386.004584,554.276108 l -21.110914,28.015129 M 545.434565,367.629980 l 10.395127,-13.794799 M 494.591336,435.101223 l -35.720531,47.402746 M 379.976415,587.200361 l 24.029269,-31.887917 M 565.923698,365.364584 l -10.837674,14.382079 M 472.133055,489.828972 l 34.708371,-46.059564 M 421.154620,557.479639 l -26.098215,34.633501 M 564.437465,392.261484 l 11.146482,-14.791882 M 520.092889,451.108725 l -35.013782,46.464858 M 410.136396,597.025919 l 28.486846,-37.803321 M 585.006085,389.890605 l -9.550477,12.673911 M 488.619769,517.799567 l 44.780384,-59.425577 M 456.125102,560.921447 l -30.821006,40.900856 M 583.892528,416.292947 l 11.065941,-14.684999 M 573.599573,429.952160 l -1.867776,2.478623 M 550.784580,460.228678 l 15.825566,-21.001236 M 546.801144,465.514877 l -52.147735,69.202382 M 440.511020,606.566636 l 32.388675,-42.981223 M 604.434970,413.956809 l -42.179793,55.974475 M 502.330110,549.454535 l 58.299690,-77.366302 M 488.839472,567.357216 l -32.989274,43.778246 M 471.315323,615.537149 l 142.067697,-188.530201 M 622.045369,440.436224 l -134.997900,179.148264 M 502.847435,623.541827 l 128.297964,-170.257148 M 639.707302,466.847252 l -121.019856,160.598773 M 529.945084,637.431236 l 117.870384,-156.419283 M 655.980198,495.101593 l -116.632052,154.775961 M 567.130905,637.933190 l 96.599265,-128.191554 M 669.715196,526.723840 l -17.646072,23.417129 M 583.479507,641.162464 l 66.785281,-88.627062 M 673.867315,546.138394 l -73.371295,97.366996 M 622.188220,639.643471 l 60.284646,-80.000427 M 690.982631,573.274806 l -38.574666,51.190311 M 667.667937,629.139052 l 38.650445,-51.290873 M 718.175450,587.037921 l -29.930939,39.719697 M 707.530857,626.088375 l 18.894448,-25.073779 M 733.782183,616.176291 l -7.722756,10.248443 M 743.442277,628.281516 l 1.160184,-1.539617"
       id="path20" />
  </g>
  <g
     inkscape:label="fill-cfcfcf"
     inkscape:groupmode="layer"
     id="fill-cfcfcf">
    <path
       style="stroke:#cfcfcf"
       d="M 416.700127,360.070581 l -2.127002,3.153410 M 360.863492,442.851796 l 7.296913,-10.818118 M 477.197391,300.780656 l -7.168290,10.627427 M 424.933728,378.264723 l 4.209983,-6.241557 M 422.376970,382.055273 l -2.183783,3.237592 M 375.514044,451.532418 l 29.658305,-43.970245 M 306.924283,553.220920 l -5.833040,8.647837 M 482.884447,322.750206 l 11.452821,-16.979505 M 441.263537,384.455744 l -10.786296,15.991341 M 392.066522,457.393318 l 34.443209,-51.064157 M 333.987879,543.498447 l -3.261176,4.834893 M 317.575063,567.831447 l 9.600226,-14.232920 M 510.510389,312.194021 l -14.424104,21.384613 M 408.491518,463.443218 l 44.891844,-66.554896 M 353.913246,544.358833 l -7.364252,10.917953 M 334.515595,573.117034 l 10.910930,-16.176118 M 524.039650,322.537025 l -14.412250,21.367040 M 424.644213,469.896820 l 41.044855,-60.851499 M 371.355320,548.900854 l -20.060277,29.740584 M 521.399823,356.851688 l 15.789545,-23.408963 M 478.318284,420.722696 l -37.313433,55.319439 M 368.065347,584.179397 l 20.760080,-30.778084 M 549.469480,345.637668 l -13.748973,20.383691 M 456.928115,482.835884 l 34.528346,-51.190378 M 408.736599,554.282744 l -23.905059,35.440707 M 548.622196,377.294777 l 12.762697,-18.921476 M 505.357689,441.437046 l -33.362606,49.462098 M 401.597734,595.267505 l 26.495845,-39.281706 M 572.759455,371.910776 l -12.781551,18.949429 M 486.775596,499.387089 l 33.278606,-49.337562 M 446.997606,558.360386 l -28.477809,42.220088 M 572.916176,402.079386 l 10.751567,-15.939854 M 535.005069,458.284913 l -45.000070,66.715347 M 435.478417,605.839243 l 32.744492,-48.545705 M 594.863472,399.942140 l -12.065146,17.887315 M 570.901716,435.466904 l 5.817083,-8.624181 M 569.425088,437.656094 l -16.654538,24.691368 M 496.983916,545.054549 l 53.170968,-78.829201 M 486.772060,560.194248 l -34.218114,50.730440 M 469.791487,615.769940 l 136.026927,-201.668212 M 616.083251,429.284440 l -128.931724,191.149141 M 504.729990,624.773396 l 121.580287,-180.250188 M 636.551219,459.741346 l -114.286911,169.437313 M 532.032777,645.097265 l 114.166468,-169.258750 M 655.566736,492.351598 l -102.091221,151.356460 M 575.998721,640.716989 l 88.803174,-131.656120 M 671.350969,529.752427 l -76.980958,114.128964 M 615.796222,642.516684 l 61.796447,-91.617001 M 688.615967,564.957931 l -46.898223,69.529475 M 664.056700,631.769499 l 37.870458,-56.145263 M 716.870334,583.871025 l -29.740560,44.092194 M 708.350444,626.903239 l 18.923719,-28.055567 M 736.032990,616.263135 l -7.615222,11.290031"
       id="path23" />
  </g>
</svg>
