<?xml version="1.0" encoding="UTF-8" standalone="no"?>
<!-- Created with Inkscape (http://www.inkscape.org/) -->

<svg
   xmlns:dc="http://purl.org/dc/elements/1.1/"
   xmlns:cc="http://creativecommons.org/ns#"
   xmlns:rdf="http://www.w3.org/1999/02/22-rdf-syntax-ns#"
   xmlns:svg="http://www.w3.org/2000/svg"
   xmlns="http://www.w3.org/2000/svg"
   xmlns:sodipodi="http://sodipodi.sourceforge.net/DTD/sodipodi-0.dtd"
   xmlns:inkscape="http://www.inkscape.org/namespaces/inkscape"
   id="svg2"
   version="1.1"
   inkscape:version="0.48.3.1 r9886"
   width="1200"
   height="1106"
   sodipodi:docname="hantologie-_0008_peroquet_hatched_1398277470.svg">
  <defs
     id="defs27" />
  <sodipodi:namedview
     pagecolor="#ffffff"
     bordercolor="#666666"
     borderopacity="1"
     objecttolerance="10"
     gridtolerance="10"
     guidetolerance="10"
     inkscape:pageopacity="0"
     inkscape:pageshadow="2"
     inkscape:window-width="640"
     inkscape:window-height="480"
     id="namedview25" />
  <metadata
     id="metadata8">
    <rdf:RDF>
      <cc:Work
         rdf:about="">
        <dc:format>image/svg+xml </dc:format>
        <dc:type
           rdf:resource="http://purl.org/dc/dcmitype/StillImage" />
        <dc:title />
      </cc:Work>
    </rdf:RDF>
  </metadata>
  <g
     inkscape:label="fill-090909"
     inkscape:groupmode="layer"
     id="fill-090909">
    <path
       style="stroke:#090909"
       d="M 609.584985,397.501032 l -0.403629,0.728166 M 611.268088,410.965956 l 1.284531,-2.317356 M 616.037686,410.612034 l -1.827612,3.297100 M 617.187741,416.787942 l 1.950169,-3.518198 M 626.081872,408.993167 l -0.755471,1.362905 M 620.221025,419.566415 l 1.966113,-3.546963 M 629.647107,410.811974 l -2.313831,4.174261 M 623.254309,422.344887 l 1.826230,-3.294605 M 632.698128,413.558448 l -2.134400,3.850559 M 626.287593,425.123359 l 1.684191,-3.038361 M 635.785148,416.239978 l -1.787290,3.224356 M 629.320877,427.901832 l 1.515502,-2.734037 M 638.680516,419.267256 l -1.110356,2.003136 M 632.354160,430.680304 l 1.326004,-2.392175 M 636.523952,431.408462 l -1.113490,2.008788 M 638.472182,436.144423 l 0.895556,-1.615626 M 642.174702,437.715561 l -0.576779,1.040538 M 649.559165,572.905543 l 0.971118,-1.751944 M 654.845912,571.618660 l -2.074952,3.743312 M 730.185442,493.457180 l 0.314508,-0.567387 M 734.893496,493.214287 l -1.696381,3.060353 M 736.208787,499.092100 l 2.892831,-5.218806 M 742.898246,495.274657 l -3.660336,6.603420 M 742.337910,504.536192 l 3.603694,-6.501236 M 680.451771,624.432403 l -2.418755,4.363550 M 646.481040,685.717225 l 1.580738,-2.851727 M 689.924390,615.594008 l -7.525426,13.576228 M 674.124206,644.098295 l 4.761122,-8.589291 M 650.733837,686.295637 l -1.146714,2.068727 M 697.665135,609.879995 l 0.373400,-0.673632 M 695.624264,613.561824 l -18.946682,34.180719 M 680.036009,649.934442 l 23.174972,-41.808756 M 707.573932,608.505376 l -3.820946,6.893168 M 685.300024,648.688570 l 17.157260,-30.952516 M 684.590481,649.968618 l -2.421918,4.369256 M 709.764392,612.804343 l 0.535240,-0.965598 M 705.809452,619.939244 l -16.920379,30.525172 M 685.837985,655.968724 l 1.575015,-2.841402 M 710.319307,620.053911 l -17.845609,32.194332 M 695.737975,654.609991 l 22.343084,-40.307990 M 741.089468,581.044393 l -0.605805,1.092901 M 701.797164,651.929587 l 18.573589,-33.507642 M 743.966241,584.105220 l -3.058548,5.517766 M 726.660925,615.324835 l 1.204441,-2.172869 M 723.063797,621.814225 l -13.640489,24.608094 M 743.508615,593.181460 l 2.570167,-4.636704 M 726.826855,623.276151 l -9.688744,17.478956 M 735.755794,615.418579 l 2.607842,-4.704671 M 730.838201,624.290153 l -5.884279,10.615521 M 739.545495,616.832440 l 1.095391,-1.976138 M 736.482728,622.357817 l -3.712996,6.698422 M 758.159578,591.502407 l 0.233568,-0.421368 M 740.968915,622.515184 l -1.003518,1.810395 M 761.524867,593.681926 l 1.438425,-2.594988 M 758.951016,606.575938 l -1.800906,3.248921 M 760.185733,612.599111 l 4.453287,-8.033942 M 768.089223,606.591497 l -5.343339,9.639639 M 766.471633,617.760369 l 4.237070,-7.643876 M 772.645999,614.872180 l -1.038522,1.873543 M 793.570946,717.383819 l 4.501361,-8.120670 M 805.393315,704.306362 l -11.554686,20.845205 M 798.372537,725.222841 l 13.575858,-24.491495 M 838.320909,661.404732 l -1.084682,1.956817 M 803.991098,723.337352 l 13.779452,-24.858789 M 842.347845,662.390610 l -1.846997,3.332071 M 809.601639,721.466329 l 13.470194,-24.300874 M 845.582172,664.806390 l -1.630916,2.942250 M 814.453078,720.964763 l 13.603147,-24.540727 M 849.778954,665.485857 l -2.806908,5.063796 M 818.713958,721.528593 l 13.904054,-25.083578 M 810.270910,736.760254 l -2.448085,4.416462 M 789.692939,773.883897 l 2.514455,-4.536197 M 786.323585,779.962372 l -2.183380,3.938921 M 850.038584,673.268132 l 1.813903,-3.272367 M 836.278463,698.092049 l -12.164869,21.946004 M 796.315447,770.187238 l 1.159977,-2.092653 M 839.326573,700.843774 l -9.816039,17.708602 M 800.895913,770.174520 l 1.345112,-2.426646 M 798.678532,774.174781 l -0.418846,0.755617 M 880.351017,635.084379 l 0.506682,-0.914078 M 853.405079,683.696137 l -3.794751,6.845912 M 834.717666,717.409123 l 6.609563,-11.923967 M 884.392404,636.044184 l -1.617787,2.918565 M 854.007722,690.859603 l 4.530522,-8.173278 M 843.871759,709.145364 l -4.133117,7.456340 M 885.638130,642.047497 l 2.131871,-3.845996 M 865.083616,679.128822 l -7.234728,13.051794 M 888.566295,645.015609 l 2.415204,-4.357144 M 866.836991,684.216311 l -5.000708,9.021516 M 891.302490,648.330045 l 2.230939,-4.024720 M 870.839461,685.246326 l -4.692614,8.465699 M 894.480162,650.848034 l 1.026083,-1.851102 M 893.150812,653.246244 l -2.206754,3.981090 M 870.307940,694.455875 l 5.868919,-10.587811 M 896.790076,654.931500 l -2.556315,4.611714 M 873.664330,696.651449 l 7.928806,-14.303944 M 898.800455,659.555340 l -6.495578,11.718332 M 877.296078,698.350265 l 10.698219,-19.300098 M 899.333388,666.844566 l -6.074126,10.958013 M 888.552695,686.293451 l 2.996182,-5.405256 M 884.666091,693.305070 l -2.565372,4.628054 M 892.786408,686.906292 l 7.647407,-13.796288 M 902.757970,677.167779 l -6.983267,12.598148 M 896.918425,695.953258 l 3.545084,-6.395501 M 875.924284,758.579675 l -0.414338,0.747485 M 902.929229,726.362789 l 3.526364,-6.361728 M 909.398006,722.943466 l -5.334236,9.623216"
       id="path5" />
  </g>
  <g
     inkscape:label="fill-323232"
     inkscape:groupmode="layer"
     id="fill-323232">
    <path
       style="stroke:#323232"
       d="M 463.228877,589.378485 l -0.038283,0.111181 M 468.482513,589.478584 l 0.512013,-1.486995 M 474.558510,587.190378 l -0.608969,1.768574 M 479.416568,588.439319 l 0.700397,-2.034101 M 485.675421,585.620058 l -0.731018,2.123031 M 490.491463,586.991023 l 0.742413,-2.156125 M 496.799115,584.030041 l -0.760591,2.208917 M 501.654858,585.285706 l 0.716875,-2.081957 M 507.904543,582.493070 l -0.529599,1.538067 M 605.199972,392.073232 l 0.311062,-0.903391 M 609.474515,395.016825 l -1.167449,3.390518 M 606.997671,402.210100 l 0.345397,-1.003107 M 613.274045,399.339955 l -1.382045,4.013751 M 609.880560,409.195352 l 1.611909,-4.681322 M 617.159357,403.413956 l -3.585804,10.413931 M 617.516472,417.734588 l 4.185914,-12.156777 M 626.957465,405.673719 l -5.464411,15.869802 M 625.469637,425.352454 l 5.449304,-15.825929 M 634.934729,413.221599 l -2.358941,6.850861 M 629.446220,429.161386 l 1.799796,-5.226989 M 638.734770,417.543246 l -1.529219,4.441174 M 633.428908,432.952588 l 1.570317,-4.560531 M 638.791901,432.735092 l -1.377919,4.001768 M 641.399056,440.521132 l 1.228625,-3.568187 M 646.463461,441.170800 l -1.079331,3.134605 M 649.353637,448.134885 l 0.945603,-2.746231 M 654.113765,449.668237 l -0.828644,2.406556 M 657.216606,456.014702 l 0.677135,-1.966544 M 661.673717,458.428079 l -0.526495,1.529051 M 665.038122,464.014903 l 0.384995,-1.118106 M 669.115983,467.529703 l -0.186961,0.542973 M 639.194543,569.785642 l 0.484319,-1.406565 M 644.705196,569.139309 l -1.819125,5.283124 M 654.952738,554.736054 l 1.253840,-3.641417 M 649.789701,569.730603 l -2.148194,6.238809 M 660.446834,554.137810 l 1.999834,-5.807940 M 654.757979,570.659445 l -2.405964,6.987426 M 656.794781,580.101908 l 2.662310,-7.731911 M 663.585972,575.736626 l -2.459375,7.142544 M 688.174427,519.684336 l 1.133925,-3.293158 M 650.411460,660.071488 l -4.660750,13.535800 M 645.512906,689.655689 l 3.171882,-9.211814 M 721.241899,485.080493 l -0.753327,2.187821 M 668.049741,639.561737 l 3.009630,-8.740599 M 652.668802,684.231227 l -1.034693,3.004965 M 724.643938,490.558022 l 0.835575,-2.426687 M 678.471540,624.652400 l -7.276383,21.132150 M 649.949933,707.485162 l 0.660340,-1.917766 M 729.784502,490.986506 l -0.996954,2.895365 M 674.627019,651.175468 l 12.234533,-35.531663 M 734.617560,492.308054 l -1.716694,4.985643 M 679.553209,652.226541 l 15.150011,-43.998826 M 739.720252,492.846529 l -2.751767,7.991713 M 683.149657,657.139466 l 17.342939,-50.367551 M 744.140238,495.367725 l -3.082929,8.953475 M 688.572768,656.747375 l 17.508201,-50.847507 M 748.038290,499.404728 l -2.715663,7.886859 M 708.250543,614.956734 l 2.464722,-7.158072 M 706.892618,618.900435 l -12.444001,36.140002 M 729.420191,568.833380 l 1.185479,-3.442881 M 714.741573,611.463183 l -14.789769,42.952609 M 706.962802,649.412140 l 12.724522,-36.954695 M 737.428665,576.290618 l -0.884267,2.568096 M 723.620642,616.392027 l 2.754248,-7.998918 M 722.697362,619.073427 l -8.564322,24.872598 M 745.853656,567.180434 l 0.473887,-1.376268 M 741.537323,579.715975 l -2.859356,8.304173 M 721.279068,638.550221 l 9.718940,-28.225851 M 750.339743,569.509660 l -0.859212,2.495332 M 747.063560,579.024385 l 0.122083,-0.354554 M 745.503254,583.555844 l -3.645254,10.586586 M 734.296170,616.103578 l 3.008443,-8.737151 M 732.398553,621.614657 l -4.007007,11.637192 M 753.279822,576.328818 l 1.060521,-3.079977 M 751.741362,580.796829 l -1.852292,5.379448 M 746.735284,595.335536 l 2.992998,-8.692297 M 744.329329,602.322935 l -0.299737,0.870500 M 735.398758,628.259198 l 6.873739,-19.962787 M 758.280229,577.164348 l -0.986924,2.866235 M 752.760774,593.194009 l 3.227050,-9.372034 M 748.699614,604.988474 l -0.770099,2.236529 M 742.339985,623.458179 l 0.756453,-2.196898 M 760.124082,587.167179 l -2.934542,8.522528 M 752.304269,609.877563 l 1.795390,-5.214192 M 764.226839,590.609674 l -1.963562,5.702599 M 756.510966,613.018197 l 4.258760,-12.368338 M 768.272372,594.218360 l -7.587650,22.036134 M 765.285793,618.249783 l 5.127328,-14.890842 M 773.444692,609.912388 l -2.815744,8.177515 M 808.725025,630.313000 l 1.754082,-5.094225 M 814.812581,627.991222 l -3.140853,9.121699 M 814.716226,643.628823 l 1.498715,-4.352583 M 789.887307,715.737240 l -0.342267,0.994014 M 828.106087,620.099610 l 0.659157,-1.914332 M 822.441825,636.549822 l -4.039291,11.730953 M 792.013040,724.921430 l 5.469607,-15.884891 M 775.628249,772.506317 l -3.671674,10.663315 M 830.444840,628.665145 l 2.628694,-7.634281 M 825.828287,642.072589 l -3.215013,9.337076 M 796.234033,728.020544 l 8.254550,-23.972953 M 779.955932,775.295582 l -2.496841,7.251352 M 833.212000,635.986498 l 3.910967,-11.358272 M 830.449703,644.008791 l -3.751680,10.895670 M 802.016116,726.585923 l 9.204267,-26.731132 M 801.071935,729.328024 l -0.621155,1.803966 M 781.585956,785.919416 l 5.023011,-14.587885 M 841.636782,626.876922 l -3.802469,11.043173 M 835.417611,644.938704 l 0.886600,-2.574874 M 834.263202,648.291353 l -0.933616,2.711417 M 807.717627,725.385301 l 9.708299,-28.194948 M 806.692037,728.363830 l -3.230984,9.383458 M 787.081225,785.317762 l 6.101434,-17.719850 M 846.136211,629.167397 l -3.887527,11.290197 M 840.385108,645.869815 l 1.188099,-3.450489 M 823.205001,695.764466 l -9.733951,28.269447 M 806.801797,743.402831 l 2.938009,-8.532597 M 799.309088,765.163238 l -2.417637,7.021328 M 795.040112,777.561244 l 1.320028,-3.833641 M 792.706428,784.338755 l -0.692922,2.012391 M 789.137019,794.705071 l 1.551155,-4.504881 M 850.526093,631.776022 l -2.820049,8.190016 M 838.807036,665.810635 l 2.798265,-8.126753 M 828.820850,694.812627 l -9.572766,27.801332 M 799.859947,778.921195 l 5.753628,-16.709748 M 799.358639,780.377098 l -1.473663,4.279827 M 796.148971,789.698651 l 0.760143,-2.207616 M 795.049718,792.891114 l -0.937786,2.723529 M 854.750235,634.865990 l 0.092367,-0.268253 M 847.659741,655.458281 l -4.606942,13.379532 M 825.027244,721.187825 l 9.511054,-27.622106 M 823.264183,726.308125 l -0.626000,1.818036 M 810.214464,764.207261 l 0.479350,-1.392133 M 805.604774,777.594772 l -2.573073,7.472746 M 800.920935,791.197629 l 1.443683,-4.192760 M 800.078468,793.644332 l -1.189740,3.455256 M 847.021533,672.669537 l 8.307397,-24.126433 M 841.063546,689.972790 l -0.914756,2.656645 M 830.816265,719.733054 l 8.513984,-24.726406 M 828.599564,726.170821 l -1.961631,5.696990 M 803.192188,799.959200 l 7.863358,-22.836849 M 861.563530,645.794279 l -10.730086,31.162432 M 845.578707,692.217578 l 2.389774,-6.940409 M 842.673911,700.653718 l -6.184547,17.961228 M 832.635858,729.806340 l 0.952186,-2.765348 M 816.629737,776.291491 l -0.497083,1.443633 M 813.354820,785.802541 l 2.258271,-6.558495 M 812.413110,788.537465 l -2.657424,7.717720 M 806.722593,805.063926 l 1.794825,-5.212550 M 865.292024,650.323713 l -15.221185,44.205532 M 842.388668,716.839891 l 3.429938,-9.961262 M 817.033865,790.475584 l -0.655425,1.903491 M 811.918925,805.330450 l 1.561341,-4.534463 M 869.891598,652.323349 l -4.572009,13.278079 M 855.945395,692.826064 l 7.917947,-22.995389 M 822.385657,790.290620 l -1.816954,5.276817 M 817.336434,804.954629 l 1.682497,-4.886325 M 881.741857,633.265466 l -1.304814,3.789455 M 860.248037,695.688053 l 12.583092,-36.543952 M 833.444599,773.530888 l -1.880997,5.462812 M 823.377666,802.767384 l 1.637099,-4.754482 M 886.058139,636.087841 l -1.941776,5.639328 M 875.955819,665.427106 l 0.567818,-1.649063 M 872.393430,675.773036 l -1.396933,4.056988 M 865.526417,695.716289 l 4.462465,-12.959939 M 858.165954,717.092626 l -0.570407,1.656582 M 837.368379,777.493172 l 1.667085,-4.841566 M 890.301061,639.123267 l -2.276813,6.612344 M 870.445998,696.786558 l 7.734051,-22.461316 M 844.439086,772.316114 l -0.920122,2.672228 M 837.050265,793.774808 l 1.302252,-3.782013 M 894.022862,643.672140 l -4.531339,13.159965 M 875.043254,698.792924 l 6.514429,-18.919276 M 865.757694,725.760148 l -1.399759,4.065196 M 843.247997,791.133054 l 1.961353,-5.696182 M 897.274451,649.586607 l -3.960619,11.502472 M 892.316623,663.985184 l 0.062882,-0.182622 M 889.010917,673.585653 l -9.568254,27.788227 M 866.352048,739.391786 l 1.128550,-3.277548 M 899.792587,657.631175 l -10.515455,30.539099 M 883.422058,705.174646 l 5.176417,-15.033406 M 874.072922,732.326508 l -1.092342,3.172393 M 860.282150,772.377819 l 1.408761,-4.091338 M 901.123551,669.123545 l -14.076240,40.880369 M 895.920396,699.592371 l 8.860750,-25.733487 M 894.324541,704.227070 l -2.388211,6.935868 M 873.880137,763.601932 l 2.756500,-8.005456 M 868.425477,779.443413 l -1.845318,5.359193 M 905.694151,686.565093 l 2.584882,-7.507044 M 899.774704,703.756415 l -3.504543,10.177931 M 879.416402,762.881216 l 4.631518,-13.450904 M 873.005126,781.500916 l -0.839472,2.438003 M 911.847302,684.052813 l 0.017048,-0.049512 M 904.746070,704.676287 l -6.664139,19.354064 M 880.607214,774.780614 l 6.961127,-20.216582 M 906.928423,713.696040 l -5.776770,16.776958 M 904.375556,736.467874 l 6.274359,-18.222061 M 914.455297,722.551946 l -7.328675,21.284017 M 908.383541,755.543375 l 6.956870,-20.204218"
       id="path8" />
  </g>
  <g
     inkscape:label="fill-4f4f4f"
     inkscape:groupmode="layer"
     id="fill-4f4f4f">
    <path
       style="stroke:#4f4f4f"
       d="M 460.268199,588.355564 l -0.510902,2.403607 M 464.929191,590.475991 l 0.609526,-2.867593 M 470.809235,586.861232 l -0.678976,3.194330 M 475.331327,589.635133 l 0.750666,-3.531607 M 481.357088,585.334828 l -0.782264,3.680263 M 485.832778,588.327034 l 0.799405,-3.760905 M 491.907278,583.797431 l -0.816546,3.841547 M 496.354618,586.923013 l 0.827755,-3.894281 M 502.456157,582.266199 l -0.785376,3.694902 M 506.986945,584.999189 l 0.740775,-3.485074 M 512.999284,580.762031 l -0.696175,3.275245 M 517.683567,582.772883 l 0.587280,-2.762936 M 523.499433,579.460055 l -0.416727,1.960546 M 599.544156,390.038468 l 0.716491,-3.370825 M 604.761758,389.540251 l -1.068723,5.027947 M 606.884117,403.604007 l 2.218668,-10.438014 M 613.111691,398.354245 l -2.951527,13.885841 M 614.479554,415.967628 l 2.848757,-13.402348 M 622.040174,404.446381 l -3.262918,15.350825 M 623.044812,423.768603 l 4.182993,-19.679434 M 631.533179,407.882645 l -4.237077,19.933878 M 633.610215,422.159630 l 2.358596,-11.096321 M 633.007499,424.995187 l -1.475569,6.942004 M 638.435646,423.506437 l 1.319035,-6.205573 M 637.050772,430.021755 l -1.283014,6.036105 M 640.003586,440.178530 l 1.185513,-5.577399 M 645.327426,439.180505 l -1.088012,5.118693 M 648.449018,448.543239 l 1.016734,-4.783359 M 653.609507,448.313719 l -0.953883,4.487667 M 656.862230,457.059533 l 0.892078,-4.196897 M 632.798918,570.268513 l -0.785334,3.694707 M 661.068836,461.317680 l 0.791397,-3.723229 M 638.485221,567.565233 l -1.569197,7.382493 M 665.267962,465.611015 l 0.686595,-3.230177 M 646.592107,553.474005 l -0.545935,2.568422 M 641.750972,576.249756 l 1.912967,-8.999803 M 670.040042,467.208816 l -0.610108,2.870331 M 667.303412,480.083649 l 0.506445,-2.382635 M 652.217531,551.057141 l -1.415522,6.659509 M 646.360594,578.611859 l 2.240588,-10.541140 M 674.125331,472.037717 l -0.533424,2.509563 M 670.833176,487.526087 l 1.101860,-5.183845 M 657.699053,549.317276 l -2.474698,11.642541 M 651.267746,579.574197 l 2.184033,-10.275068 M 678.210619,476.866617 l -0.456741,2.148795 M 674.380862,494.884210 l 1.457354,-6.856313 M 663.288695,547.068750 l -2.116134,9.955626 M 655.724347,582.656210 l 2.556298,-12.026439 M 630.813081,699.854502 l -1.007114,4.738100 M 681.911664,483.503240 l 0.379560,-1.785688 M 679.189007,496.312335 l -1.293049,6.083319 M 666.610019,555.491820 l 1.544213,-7.264951 M 663.109512,571.960414 l -3.775642,17.763000 M 643.758831,662.998207 l 1.009689,-4.750213 M 637.301808,693.376112 l -1.376326,6.475104 M 686.073827,487.970476 l 0.293333,-1.380023 M 682.693467,503.873821 l -1.727483,8.127169 M 664.940015,587.397245 l 2.973711,-13.990208 M 649.552768,659.788548 l -6.819346,32.082503 M 631.810087,743.261300 l 0.501112,-2.357547 M 690.425591,491.545707 l -0.181060,0.851821 M 684.681193,518.570975 l 1.707016,-8.030877 M 672.593428,575.439437 l -2.304672,10.842630 M 654.540193,660.373230 l 0.623312,-2.932451 M 650.300395,680.319911 l -2.336175,10.990840 M 694.285004,497.437268 l 0.255626,-1.202625 M 690.280134,516.278699 l -1.480850,6.966850 M 676.083135,583.070330 l 1.701693,-8.005837 M 664.747536,636.400129 l -2.457150,11.559984 M 649.573985,707.786074 l 0.930658,-4.378402 M 682.980126,574.671209 l -0.797449,3.751701 M 668.346725,643.515948 l 3.162569,-14.878716 M 702.597471,506.427531 l -0.061259,0.288202 M 672.044974,650.165726 l 5.553242,-26.125951 M 706.848743,510.475541 l -0.118681,0.558351 M 703.174124,527.763263 l 0.778967,-3.664753 M 684.591283,615.188656 l -8.376909,39.410260 M 661.997609,721.483534 l 0.523222,-2.461564 M 718.003199,482.046619 l -0.659934,3.104743 M 712.582508,507.548965 l 0.209582,-0.986006 M 691.280294,607.768005 l -10.451035,49.168253 M 677.807317,671.153379 l 0.263989,-1.241969 M 722.456295,485.145122 l -0.775352,3.647743 M 716.705575,512.200135 l 0.180916,-0.851141 M 712.060089,534.055429 l -0.505296,2.377231 M 685.826124,657.476531 l 11.032648,-51.904530 M 726.867079,488.442686 l -0.829030,3.900282 M 691.022626,657.077582 l 11.054936,-52.009384 M 731.373166,491.291887 l -0.987756,4.647027 M 708.616088,598.355519 l 0.906525,-4.264867 M 707.247096,604.796121 l -10.970457,51.611943 M 734.688554,499.742885 l 1.621018,-7.626288 M 724.295611,548.637837 l -0.261085,1.228306 M 713.373372,600.022933 l 1.031201,-4.851419 M 712.229331,605.405223 l -2.294937,10.796832 M 702.073992,653.182333 l 7.539271,-35.469480 M 741.181263,493.245761 l -2.179349,10.253033 M 727.665650,556.831723 l 0.642790,-3.024090 M 718.885446,598.139334 l -0.964563,4.537914 M 708.101573,648.873468 l 8.097370,-38.095131 M 745.651835,496.262047 l -2.290515,10.776027 M 731.517125,562.760628 l 0.789162,-3.712717 M 731.311161,563.729612 l -1.584413,7.454078 M 714.192761,644.265355 l 9.561545,-44.983532 M 738.167078,555.523733 l -0.447942,2.107404 M 735.506688,568.039880 l 0.801595,-3.771206 M 735.048261,570.196613 l -1.527438,7.186029 M 720.259839,639.770668 l 8.418913,-39.607870 M 742.391487,559.698119 l -0.920074,4.328608 M 739.410765,573.721316 l 1.093734,-5.145612 M 739.393218,573.803869 l -2.531588,11.910185 M 726.310182,635.354711 l 6.101508,-28.705337 M 757.391507,513.177249 l -0.185465,0.872546 M 738.832735,600.489404 l 7.804361,-36.716633 M 737.985723,604.474284 l -5.633270,26.502449 M 761.493846,517.925929 l 0.495336,-2.330372 M 751.010541,567.246003 l -12.709644,59.794175 M 750.091101,595.620301 l 5.470873,-25.738432 M 748.696253,602.182545 l -1.707584,8.033550 M 744.073054,623.932987 l 1.164150,-5.476895 M 760.714378,569.690385 l -10.111259,47.569733 M 755.222130,619.578048 l 7.009541,-32.977299 M 766.636374,589.926925 l -6.243423,29.372996 M 765.613049,618.789962 l 5.559993,-26.157713 M 775.928956,594.306110 l -5.064917,23.828561 M 740.743120,759.842454 l 0.460020,-2.164226 M 780.020521,599.105481 l -2.106518,9.910388 M 746.276512,757.858559 l 0.579437,-2.726036 M 783.539973,606.596433 l -0.950132,4.470020 M 788.567619,606.991890 l 0.282945,-1.331150 M 787.398384,612.492707 l -0.086176,0.405425 M 761.842947,780.818931 l 1.661619,-7.817301 M 768.081208,775.518889 l -1.996817,9.394286 M 805.496315,623.543321 l 0.502609,-2.364588 M 774.474117,769.491290 l -3.842974,18.079771 M 808.775713,632.163638 l 2.274184,-10.699196 M 791.599110,712.973206 l -2.283689,10.743913 M 786.930387,734.937817 l 0.975953,-4.591499 M 781.610156,759.967537 l -0.570464,2.683824 M 774.441819,793.691913 l 4.806420,-22.612430 M 815.663863,623.806115 l -3.444915,16.207049 M 792.635675,732.145219 l 5.095153,-23.970812 M 784.505629,770.394081 l -3.638248,17.116610 M 821.389444,620.918046 l 0.901537,-4.241400 M 820.578380,624.733803 l -4.669479,21.968171 M 797.321005,734.151147 l 6.424147,-30.223237 M 790.193754,767.682227 l -5.448665,25.633952 M 783.139025,800.872117 l 0.811700,-3.818746 M 829.172925,608.348317 l -8.988402,42.287107 M 801.770616,737.266044 l 7.928053,-37.298556 M 795.854390,765.099702 l -7.708222,36.264331 M 824.524964,654.263928 l 8.590630,-40.415738 M 815.609241,696.209105 l -10.931742,51.429805 M 792.854075,803.263745 l 8.579478,-40.363272 M 837.419878,617.646796 l -8.001561,37.644383 M 813.011382,732.479743 l 8.303119,-39.063102 M 812.062044,736.946027 l -1.889904,8.891297 M 807.476398,758.519796 l 1.095717,-5.154943 M 807.422683,758.772506 l -9.446355,44.441606 M 835.466788,650.884038 l 6.356094,-29.903071 M 832.490835,664.884792 l -0.437333,2.057491 M 819.077489,727.989625 l 7.523666,-35.396064 M 815.264104,745.930190 l -0.224997,1.058528 M 810.992281,766.027539 l 2.134588,-10.042447 M 810.372151,768.945021 l -7.463820,35.114513 M 841.550819,646.309590 l 4.729089,-22.248616 M 838.936210,658.610361 l -1.616161,7.603439 M 823.128972,732.977569 l 8.688614,-40.876714 M 814.443562,773.839211 l -7.142111,33.600990 M 847.647814,641.674157 l 3.089122,-14.533177 M 845.087426,653.719835 l -3.298189,15.516759 M 830.742061,721.209471 l 6.650417,-31.287750 M 829.977130,724.808191 l -1.708169,8.036303 M 818.636862,778.159954 l 2.622994,-12.340216 M 818.326612,779.619568 l -1.330663,6.260279 M 812.477940,807.135403 l 3.881234,-18.259771 M 855.161982,630.371450 l -1.400173,6.587297 M 846.037103,673.300630 l 5.140046,-24.182016 M 843.284331,686.251405 l -7.159550,33.683033 M 834.173665,729.113718 l 0.740311,-3.482888 M 828.904478,753.903290 l -0.576097,2.710322 M 826.062872,767.271997 l 0.878366,-4.132388 M 823.764713,778.083983 l -5.986310,28.163374 M 849.654897,680.328919 l 7.552572,-35.532057 M 849.389277,681.578561 l -7.918488,37.253558 M 825.394237,794.466347 l 6.352134,-29.884441 M 825.235938,795.211088 l -2.110614,9.929657 M 846.952439,717.091655 l 16.182920,-76.134652 M 836.971585,764.047882 l -0.046292,0.217789 M 833.569790,780.052070 l 2.168817,-10.203484 M 833.017889,782.648557 l -2.395617,11.270490 M 828.915170,801.950336 l 1.112581,-5.234281 M 867.806311,643.030571 l -13.122084,61.734553 M 839.014973,778.483169 l 3.445175,-16.208274 M 838.493765,780.935258 l -4.041546,19.013977 M 861.113799,698.565037 l 10.736519,-50.511352 M 857.645541,714.881909 l -1.290549,6.071557 M 846.687627,766.434839 l 1.996502,-9.392801 M 846.061244,769.381742 l -1.558611,7.332687 M 840.525781,795.424045 l 3.297094,-15.511606 M 840.414989,795.945280 l -0.534792,2.515997 M 879.348797,636.824787 l 1.079155,-5.077027 M 876.557814,649.955332 l -10.231613,48.135955 M 861.797466,719.397307 l 0.780189,-3.670501 M 860.175554,727.027805 l -0.931761,4.383591 M 857.388342,740.140605 l 0.201470,-0.947842 M 851.582390,767.455462 l -1.510351,7.105645 M 845.260514,797.197553 l 4.038266,-18.998549 M 884.957740,634.485458 l -1.611825,7.583040 M 880.489549,655.506642 l 2.202689,-10.362837 M 879.593119,659.724016 l -8.360324,39.332230 M 864.514502,730.663333 l 2.328867,-10.956457 M 863.106977,737.285216 l -0.811512,3.817863 M 851.212409,793.244759 l 5.910819,-27.808219 M 889.359696,637.824555 l -1.869857,8.796985 M 885.430126,656.311729 l 1.855675,-8.730264 M 884.201669,662.091164 l -8.307679,39.084555 M 870.267880,727.644489 l 0.676507,-3.182715 M 869.126723,733.013208 l -2.171787,10.217455 M 859.177790,779.819261 l 3.110662,-14.634514 M 858.473924,783.130686 l -1.543989,7.263898 M 889.942667,659.130566 l 3.628002,-17.068405 M 888.237932,667.150710 l -7.985683,37.569686 M 872.114414,743.005898 l 2.577533,-12.126340 M 868.934109,757.968057 l -6.591935,31.012618 M 861.218287,794.268146 l 0.270502,-1.272614 M 897.482544,647.706902 l -13.371783,62.909292 M 877.930284,739.693055 l 2.162427,-10.173418 M 874.771465,754.554128 l -2.473290,11.635915 M 867.979919,786.505843 l 3.022047,-14.217615 M 867.132578,790.492267 l -0.886400,4.170182 M 888.295225,714.978514 l 12.327633,-57.996953 M 882.516398,742.165757 l -7.630395,35.898186 M 872.627669,788.688570 l 1.889438,-8.889107 M 903.450487,667.727281 l -9.897513,46.564136 M 891.707813,722.972220 l 1.174747,-5.526751 M 886.307321,748.379539 l -8.275317,38.932304 M 895.792935,727.801905 l 12.133479,-57.083529 M 890.123471,754.474634 l -5.391108,25.363171 M 909.275385,688.420637 l 2.525699,-11.882477 M 906.624418,700.892453 l -6.653104,31.300394 M 903.643290,738.966229 l 7.012544,-32.991424 M 914.211349,713.296092 l -7.919590,37.258743 M 908.206157,765.596971 l 9.780643,-46.014308 M 920.493160,731.839839 l -4.294412,20.203621"
       id="path11" />
  </g>
  <g
     inkscape:label="fill-6f6f6f"
     inkscape:groupmode="layer"
     id="fill-6f6f6f">
    <path
       style="stroke:#6f6f6f"
       d="M 438.294200,589.812977 l -0.131959,1.508295 M 444.170046,591.494023 l 0.207832,-2.375536 M 450.461558,588.423996 l -0.269966,3.085726 M 456.218383,591.465468 l 0.329411,-3.765183 M 462.637583,586.935951 l -0.381857,4.364647 M 468.303932,591.011569 l 0.423441,-4.839951 M 474.817162,585.407285 l -0.431451,4.931508 M 480.487295,589.439644 l 0.425396,-4.862303 M 487.017112,583.645780 l -0.446093,5.098861 M 492.663968,587.944198 l 0.457564,-5.229979 M 499.225952,581.782658 l -0.465969,5.326054 M 504.863977,586.182011 l 0.465781,-5.323902 M 511.426208,580.017657 l -0.444331,5.078729 M 517.099775,584.010760 l 0.416504,-4.760660 M 523.586742,578.706670 l -0.356706,4.077164 M 529.367755,581.471674 l 0.276885,-3.164813 M 535.684428,578.114045 l -0.166399,1.901953 M 560.260403,572.578483 l 0.129846,-1.484152 M 572.752148,567.481748 l -0.237875,2.718924 M 594.570134,386.943307 l 0.440690,-5.037105 M 578.900752,566.045155 l -0.410250,4.689177 M 600.053823,393.106733 l 0.650497,-7.435213 M 585.023698,564.901845 l -0.512191,5.854374 M 605.262433,402.414325 l 1.066514,-12.190311 M 604.899627,406.561220 l -0.101832,1.163940 M 590.563473,570.424212 l 0.547695,-6.260179 M 611.831567,396.171063 l -1.462632,16.717958 M 615.938193,418.074394 l 1.408036,-16.093926 M 603.134267,564.423934 l -0.380158,4.345222 M 621.505508,423.281969 l 2.083590,-23.815548 M 609.485914,560.666551 l -0.901746,10.307005 M 627.052635,428.720290 l 2.500256,-28.578057 M 615.686297,558.638137 l -0.370494,4.234762 M 614.471325,572.525329 l 0.721494,-8.246719 M 634.925479,407.575553 l -2.325716,26.583057 M 621.371584,562.497284 l 0.459524,-5.252381 M 621.136990,565.178708 l -0.048702,0.556663 M 620.144618,576.521566 l 0.452262,-5.169382 M 640.149015,416.712550 l -0.701114,8.013773 M 638.146891,439.596931 l 0.764113,-8.733852 M 637.899232,442.427678 l -0.271123,3.098945 M 627.021693,566.758524 l 0.942084,-10.768070 M 626.740441,569.973242 l -0.611699,6.991747 M 643.694018,445.035252 l 0.699752,-7.998200 M 643.357098,448.886268 l -0.434262,4.963639 M 633.379557,562.930082 l 0.715752,-8.181088 M 632.903550,568.370869 l -0.754951,8.629131 M 649.241146,450.473573 l 0.640945,-7.326033 M 648.816380,455.328671 l -0.545483,6.234897 M 639.504158,561.767852 l 0.744056,-8.504598 M 639.072201,566.705149 l -0.900683,10.294851 M 654.779180,456.015829 l 0.586812,-6.707290 M 654.242053,462.155225 l -0.613781,7.015548 M 643.956188,579.723192 l 2.456100,-28.073347 M 633.949194,694.103660 l -1.116051,12.756525 M 630.615501,732.207948 l 1.017234,-11.627038 M 630.113880,737.941503 l -0.341596,3.904463 M 660.304069,461.708342 l 0.526189,-6.014365 M 659.636484,469.338876 l -0.698739,7.986618 M 649.637484,583.627969 l 2.954577,-33.770968 M 643.631288,652.279105 l -0.805125,9.202624 M 640.020891,693.546128 l 0.796411,-9.103025 M 635.623042,743.813767 l -0.165464,1.891259 M 665.828958,467.400854 l 0.465774,-5.323824 M 665.318060,473.240439 l -1.148536,13.127828 M 657.092765,567.255992 l 1.707362,-19.515238 M 656.965335,568.712525 l -1.813823,20.732091 M 646.128678,692.576080 l 2.998522,-34.273258 M 671.759370,468.458214 l -0.420570,4.807137 M 669.363834,495.839308 l 1.435986,-16.413399 M 664.910971,546.735772 l -4.154433,47.485385 M 655.880998,649.948829 l 0.130998,-1.497320 M 655.361585,655.885750 l -0.461857,5.279051 M 651.630396,698.533440 l 1.460340,-16.691765 M 651.270475,702.647351 l -0.640310,7.318778 M 676.836035,479.273940 l 0.387972,-4.434542 M 676.161329,486.985863 l -1.612237,18.427951 M 669.164370,566.961473 l 0.801153,-9.157215 M 668.808243,571.032026 l -1.974041,22.563395 M 661.821194,650.894362 l 1.275651,-14.580755 M 682.691929,481.183052 l -0.358658,4.099476 M 679.768475,514.598284 l 1.529754,-17.485170 M 674.730390,572.183856 l -1.482400,16.943907 M 667.618131,653.477352 l 2.171199,-24.816916 M 664.915774,684.365428 l -0.034809,0.397870 M 661.634220,721.873763 l 0.406059,-4.641280 M 688.162198,487.499868 l -0.337791,3.860973 M 684.973438,523.947559 l 1.419252,-16.222127 M 684.963707,524.058788 l -0.514707,5.883125 M 679.671282,584.551485 l 1.070732,-12.238528 M 676.289398,623.206597 l -2.666738,30.480959 M 671.644400,676.299162 l 0.218405,-2.496377 M 693.632467,493.816684 l -0.319367,3.650376 M 690.298299,531.926400 l 1.240701,-14.181276 M 686.740707,572.589865 l -0.749675,8.568821 M 679.350927,657.055436 l 3.708686,-42.390473 M 678.356144,668.425853 l -0.310747,3.551859 M 699.691240,493.406876 l 0.174895,-1.999062 M 699.108223,500.070793 l -0.304723,3.483000 M 696.143218,533.960949 l 0.963835,-11.016682 M 692.431617,576.384748 l -0.409006,4.674958 M 685.234859,658.644066 l 4.488312,-51.301644 M 684.745207,664.240812 l -0.197331,2.255504 M 705.111326,500.297285 l 0.279509,-3.194800 M 704.621116,505.900408 l -0.309717,3.540087 M 702.281809,532.638814 l 0.884825,-10.113594 M 696.090315,603.407915 l -4.735526,54.127305 M 710.554019,506.929298 l 0.339994,-3.886151 M 710.181230,511.190294 l -0.361932,4.136902 M 708.328893,532.362612 l 0.708165,-8.094362 M 708.021183,535.879749 l -0.425328,4.861527 M 697.480589,656.359292 l 4.613205,-52.729169 M 718.830980,481.165481 l -0.482738,5.517720 M 716.020489,513.289545 l 0.360054,-4.115434 M 715.744485,516.444280 l -0.389966,4.457337 M 713.226491,545.225085 l 1.445799,-16.525555 M 709.020738,593.297064 l -0.591960,6.766138 M 703.848071,652.420920 l 4.311068,-49.275733 M 724.462663,485.637330 l -0.496674,5.677013 M 721.773769,516.371526 l 0.055811,-0.637919 M 721.205908,522.862214 l -0.296757,3.391948 M 718.744510,550.996116 l 1.041890,-11.908859 M 715.012507,593.653108 l -4.730759,54.072825 M 729.590169,495.871946 l 0.527243,-6.026410 M 726.134065,535.375400 l -0.218492,2.497375 M 724.200909,557.471474 l 1.045857,-11.954206 M 720.935211,594.798569 l -4.219786,48.232378 M 735.187385,500.737755 l 0.789987,-9.029591 M 731.192903,546.394894 l -0.402962,4.605878 M 728.927099,572.293149 l 1.636708,-18.707659 M 726.921324,595.219266 l -3.768694,43.076364 M 740.755464,505.936601 l 1.113714,-12.729808 M 736.803093,551.112411 l -2.691458,30.763509 M 729.590883,633.548342 l 3.648856,-41.706616 M 747.553213,497.080252 l -0.966084,11.042394 M 735.998653,629.149485 l 6.412438,-73.294501 M 748.375981,556.518256 l -6.043068,69.072582 M 757.838147,517.207485 l 0.530884,-6.068036 M 754.438976,556.060186 l -5.863068,67.015173 M 763.687377,519.192757 l 0.134433,-1.536571 M 761.600001,543.051574 l -0.501306,5.729954 M 754.727004,621.610283 l 5.421889,-61.972472 M 743.023501,755.381942 l -0.447611,5.116220 M 769.125188,525.880566 l 0.192740,-2.203034 M 766.876246,551.586099 l -0.338266,3.866396 M 764.564144,578.013540 l 1.494524,-17.082484 M 764.347713,580.487356 l -3.499479,39.999230 M 748.856368,757.554238 l 0.302642,-3.459209 M 771.588600,566.565921 l -0.380999,4.354840 M 766.966782,619.393541 l 3.828491,-43.759847 M 777.997875,562.149855 l -0.187416,2.142171 M 773.130768,617.781137 l 3.417219,-39.058992 M 759.367616,775.094682 l -0.693361,7.925149 M 779.588004,612.816875 l 2.352902,-26.893796 M 765.787263,770.560066 l -1.484632,16.969424 M 790.004297,562.600374 l 0.297322,-3.398410 M 788.451286,580.351382 l -0.113754,1.300210 M 785.462851,614.509342 l 1.969221,-22.508304 M 774.256365,742.600070 l -0.322986,3.691747 M 769.912654,792.248907 l 2.197044,-25.112331 M 794.065581,585.021967 l -0.347318,3.969858 M 791.600210,613.201288 l 1.420099,-16.231803 M 780.768088,737.013011 l -0.483343,5.524632 M 775.563825,796.498005 l 3.068140,-35.068996 M 799.770399,588.657887 l -0.513014,5.863773 M 797.754144,611.703787 l 0.951022,-10.870230 M 788.760063,714.506596 l -2.298878,26.276292 M 784.612737,761.910755 l 0.535664,-6.122664 M 783.995098,768.970394 l -1.793520,20.500024 M 781.166653,801.299672 l 0.571243,-6.529336 M 805.456145,592.511783 l -0.727820,8.319024 M 803.961065,609.600628 l 0.684151,-7.819882 M 803.648914,613.168530 l -0.272870,3.118923 M 792.550480,740.024211 l 2.662464,-30.432099 M 791.412723,753.028838 l -0.160434,1.833770 M 787.064394,802.730467 l 3.758540,-42.960306 M 811.193521,595.775557 l -3.134642,35.829127 M 798.905828,736.224536 l 2.726674,-31.166031 M 797.136772,756.444934 l -4.179475,47.771623 M 813.095198,642.881571 l 4.371019,-49.960976 M 808.039684,700.666361 l -4.199636,48.002064 M 798.838263,805.839084 l 4.607132,-52.659757 M 823.378164,594.189008 l -4.990230,57.038587 M 809.814445,749.223030 l 4.617581,-52.779191 M 809.547278,752.276762 l -4.871569,55.682291 M 823.635579,660.089026 l 5.306176,-60.649869 M 820.824368,692.221318 l -3.982601,45.521335 M 815.921614,748.260049 l 0.449110,-5.133348 M 815.316701,755.174230 l -4.723790,53.993172 M 830.050067,655.613375 l 4.232373,-48.376247 M 829.084106,666.654357 l -0.614052,7.018645 M 823.188036,734.046741 l 4.028673,-46.047945 M 821.522046,753.089093 l -0.093895,1.073225 M 816.750649,807.626413 l 3.929771,-44.917484 M 839.827673,612.697103 l -0.166076,1.898257 M 836.489061,650.857610 l 3.062220,-35.001338 M 835.642713,660.531410 l -1.283069,14.665551 M 829.231670,733.809975 l 4.809897,-54.977369 M 827.469130,753.955899 l -4.545784,51.958548 M 847.513558,593.689312 l 0.279206,-3.191338 M 845.512779,616.558320 l -2.575987,29.443666 M 839.902696,680.681865 l 2.222806,-25.406786 M 839.657097,683.489079 l -3.349232,38.281903 M 835.656044,729.221316 l 0.423966,-4.845956 M 833.765409,750.831380 l -0.759050,8.675976 M 829.131630,803.795709 l 3.618553,-41.360245 M 853.477571,594.362614 l -0.370384,4.233506 M 849.402588,640.939886 l 2.224045,-25.420945 M 848.577763,650.367674 l -6.323801,72.281381 M 835.359934,801.448149 l 3.620823,-41.386196 M 859.157336,598.284879 l -0.395140,4.516469 M 855.877634,635.772050 l 1.181643,-13.506245 M 855.011149,645.676012 l -7.044535,80.519403 M 841.576264,799.237453 l 3.719372,-42.512618 M 864.959155,600.812064 l -0.607288,6.941339 M 854.294249,722.712499 l 7.131643,-81.515048 M 853.384169,733.114765 l -0.587506,6.715225 M 850.749951,763.224009 l 0.857158,-9.797357 M 850.507897,765.990696 l -2.739867,31.316825 M 869.926352,612.879027 l 0.612915,-7.005652 M 867.755393,637.693199 l -8.313043,95.018515 M 858.557505,742.825540 l 0.544551,-6.224247 M 857.323309,756.932469 l -0.204634,2.338978 M 853.931707,795.698657 l 2.935570,-33.553723 M 873.769982,637.788413 l -6.053234,69.188786 M 865.515885,732.133167 l 1.605353,-18.349269 M 865.317018,734.406235 l -0.874130,9.991348 M 859.917862,796.118873 l 3.108850,-35.534318 M 880.397169,630.881599 l -0.829613,9.482524 M 873.714577,707.263971 l 5.631147,-64.364300 M 872.741066,718.391259 l -0.913801,10.444791 M 870.399880,745.151132 l 1.332198,-15.227088 M 869.932042,750.498543 l -3.972004,45.400215 M 879.411115,710.994522 l 6.690716,-76.475229 M 877.876092,728.539920 l -1.811835,20.709364 M 872.140768,794.094974 l 3.712978,-42.439533 M 891.716518,639.185402 l -6.683996,76.398426 M 878.368821,791.750278 l 5.599103,-63.998043 M 897.178929,645.592040 l -6.915455,79.044010 M 884.675595,788.505801 l 3.620872,-41.386756 M 901.762605,662.042660 l -5.959088,68.112684 M 892.521221,767.672170 l 1.219251,-13.936098 M 907.328492,667.266565 l -6.087763,69.583451 M 904.218580,771.655296 l 8.805271,-100.644703 M 915.728203,708.941981 l -4.744843,54.233804 M 918.111822,750.539381 l 2.893011,-33.067267"
       id="path14" />
  </g>
  <g
     inkscape:label="fill-8f8f8f"
     inkscape:groupmode="layer"
     id="fill-8f8f8f">
    <path
       style="stroke:#8f8f8f"
       d="M 392.366590,592.514385 l 0.052349,0.998887 M 399.406599,593.094502 l -0.036174,-0.690247 M 406.365379,592.124681 l 0.144533,2.757849 M 413.493228,594.380880 l -0.192412,-3.671433 M 420.267210,589.884888 l 0.209907,4.005268 M 427.464528,593.466643 l -0.227154,-4.334363 M 434.215262,588.527060 l 0.237983,4.540986 M 441.449642,592.816007 l -0.256492,-4.894168 M 448.169133,587.280278 l 0.276906,5.283691 M 455.440874,592.282094 l -0.300076,-5.725800 M 462.112462,585.832311 l 0.322765,6.158724 M 469.415350,591.428469 l -0.337678,-6.443275 M 476.039351,584.070669 l 0.341331,6.512981 M 483.344018,589.700769 l -0.342989,-6.544624 M 489.960859,582.206357 l 0.354696,6.768004 M 497.277403,588.063079 l -0.357237,-6.816483 M 503.879474,580.286834 l 0.355353,6.780543 M 511.184890,585.931214 l -0.346108,-6.604141 M 517.798089,578.367311 l 0.336864,6.427739 M 525.078449,583.533597 l -0.306700,-5.852190 M 531.756548,577.208063 l 0.264715,5.051065 M 538.956294,580.836141 l -0.195781,-3.735722 M 539.212491,585.724670 l 0.000812,0.015489 M 545.878035,579.159561 l -0.073076,-1.394364 M 546.123319,583.839863 l 0.075376,1.438252 M 552.608123,573.826037 l -0.219444,-4.187240 M 553.049525,582.248497 l 0.088221,1.683353 M 559.720799,575.792731 l -0.382258,-7.293910 M 559.961835,580.391957 l 0.100878,1.924870 M 566.048346,562.778253 l -0.050127,-0.956487 M 566.288311,567.357063 l 0.459125,8.760636 M 572.976634,561.226611 l -0.020657,-0.394152 M 573.218864,565.848641 l 0.501139,9.562293 M 580.860988,577.917787 l -0.710525,-13.557616 M 586.815153,557.778771 l 0.188629,3.599258 M 587.705534,574.768236 l -0.615490,-11.744252 M 593.789214,557.100516 l 0.069669,1.329359 M 594.642090,573.374366 l -0.601521,-11.477711 M 591.453640,378.783859 l 0.286970,5.475713 M 601.637718,573.107636 l -0.645506,-12.316996 M 598.698480,383.272375 l 0.577023,11.010254 M 599.766288,403.647364 l -0.020356,-0.388410 M 607.922712,559.281200 l 0.919242,17.540185 M 607.145756,410.704740 l -1.117367,-21.320628 M 614.852689,557.761790 l 1.170873,22.341597 M 614.495476,417.194508 l -1.033990,-19.729702 M 621.782667,556.242380 l 1.249069,23.833655 M 631.101952,734.064940 l -1.805621,-34.453303 M 631.206501,736.059858 l 0.441720,8.428514 M 620.449892,397.060260 l -0.394015,-7.518260 M 620.763018,403.035061 l 1.153263,22.005573 M 630.009928,579.476615 l -1.295004,-24.710149 M 635.787009,689.709895 l 0.639100,12.194757 M 638.789456,747.000000 l -0.098773,-1.884700 M 627.375777,395.462765 l 2.134891,40.736149 M 637.021068,579.505878 l -1.379903,-26.330114 M 640.297354,642.021140 l 0.137079,2.615628 M 642.975621,693.125525 l -0.843974,-16.103988 M 634.909199,405.457763 l 2.275667,43.422319 M 644.260598,583.893084 l -1.703385,-32.502525 M 646.895683,634.173500 l 0.434759,8.295696 M 647.771203,650.879411 l -0.120525,-2.299759 M 648.086213,656.890160 l 2.779358,53.033315 M 642.986387,425.828428 l -0.219707,-4.192252 M 643.444355,434.566990 l 0.585271,11.167644 M 644.767156,459.807539 l -0.621724,-11.863201 M 649.469189,549.527660 l 1.939356,37.005118 M 654.281836,641.358444 l -0.723928,-13.813368 M 654.607250,647.567714 l 0.713674,13.617707 M 658.290229,717.843134 l -0.664440,-12.678276 M 650.913236,443.330468 l 0.511428,9.758625 M 652.330863,470.380406 l -0.720139,-13.741062 M 656.361940,547.297921 l 2.617106,49.937354 M 660.949291,634.829792 l -0.291842,-5.568672 M 661.031080,636.390435 l 1.246377,23.782296 M 664.025438,693.526180 l -0.569624,-10.869082 M 665.467720,721.046571 l 0.191731,3.658437 M 658.830173,460.643371 l -0.474247,-9.049178 M 659.100734,465.805973 l 0.855854,16.330662 M 666.067907,598.747553 l -2.750652,-52.485558 M 667.609208,628.157336 l 1.456161,27.785213 M 670.266342,678.858466 l -0.223504,-4.264705 M 665.826634,460.392536 l 0.424913,8.107823 M 667.661989,495.413198 l -1.131979,-21.599449 M 670.334357,546.405015 l 2.737197,52.228826 M 676.100504,656.429646 l -1.925933,-36.748998 M 676.741707,668.664541 l 0.249830,4.767037 M 673.678856,476.470598 l -0.378053,-7.213672 M 674.000735,482.612421 l 1.381367,26.358055 M 676.599080,532.191786 l -0.205005,-3.911728 M 678.050621,559.888843 l 1.979316,37.767592 M 683.265885,659.402008 l -2.369944,-45.221229 M 683.457116,663.050903 l 0.258694,4.936185 M 681.117400,484.655211 l -0.352780,-6.731440 M 681.637934,494.587588 l 1.479219,28.225172 M 683.654501,533.065975 l -0.457661,-8.732685 M 685.287666,564.228633 l 1.604563,30.616882 M 690.215188,658.251350 l -2.678513,-51.109069 M 687.762456,477.699172 l 0.166570,3.178336 M 688.572148,493.149013 l -0.353768,-6.750299 M 689.432585,509.567136 l 1.309243,24.981843 M 697.169921,657.204296 l -5.154743,-98.358361 M 695.162312,485.145589 l 0.280542,5.353067 M 696.023911,501.585875 l -0.364179,-6.948951 M 697.063448,521.421424 l 0.828200,15.803003 M 699.994128,577.342117 l -0.216073,-4.122924 M 701.151694,599.429791 l 2.800819,53.442817 M 702.049238,482.804707 l -0.173126,-3.303440 M 702.572188,492.783175 l 0.374211,7.140369 M 703.458415,509.693392 l -0.368225,-7.026148 M 704.054640,521.070054 l 1.198573,22.870129 M 710.702363,647.916168 l -2.938918,-56.077899 M 709.076092,483.133808 l 0.136348,2.601673 M 710.878462,517.525065 l -0.880925,-16.809059 M 711.234776,524.323939 l 1.225025,23.374878 M 717.445342,642.828604 l -2.674600,-51.034401 M 715.826670,478.191249 l 0.406639,7.759141 M 718.306309,525.505576 l -0.873725,-16.671658 M 718.571663,530.568826 l 1.349467,25.749363 M 720.344951,564.405189 l -0.231448,-4.416299 M 721.790277,591.983639 l 2.402215,45.836991 M 723.551212,491.833025 l -0.418236,-7.980426 M 724.884798,517.279367 l 2.946611,56.224688 M 730.939641,632.812656 l -2.468361,-47.099128 M 737.458000,757.190355 l 0.226589,4.323572 M 730.871741,497.765783 l -0.424404,-8.098117 M 732.459214,528.056582 l 5.253323,100.239369 M 744.634322,760.371483 l -0.341066,-6.507920 M 737.541742,491.285723 l 0.692275,13.209395 M 744.557985,625.163622 l -4.825641,-92.078713 M 751.225816,752.393412 l 0.264166,5.040591 M 752.669785,779.945990 l -0.028829,-0.550087 M 744.707309,494.261635 l 0.818619,15.620190 M 747.008815,538.176985 l -0.103488,-1.974675 M 747.281593,543.381890 l 4.178756,79.735413 M 758.309403,753.805058 l -0.088969,-1.697630 M 759.285515,772.430376 l 0.747300,14.259327 M 752.737449,513.734581 l -0.370372,-7.067109 M 753.404933,526.470936 l 0.332694,6.348175 M 758.378969,621.381185 l -4.419512,-84.329317 M 765.107714,749.773301 l 0.183637,3.504010 M 767.276302,791.152424 l -1.266867,-24.173267 M 759.582663,510.597789 l 0.570000,10.876247 M 765.321897,620.108898 l -4.369011,-83.365696 M 771.775243,743.246066 l 0.642217,12.254226 M 774.612423,797.382678 l -1.763591,-33.651318 M 767.122806,520.721015 l 0.392654,7.492291 M 772.266768,618.873654 l -3.494641,-66.681713 M 777.752491,723.547493 l 0.014713,0.280741 M 778.974787,746.870294 l -0.467803,-8.926214 M 779.576153,758.345041 l 2.293842,43.769104 M 774.679104,531.152521 l -0.378630,-7.224689 M 774.802402,533.505179 l 0.153632,2.931481 M 775.766736,551.905778 l -0.298878,-5.702923 M 776.146741,559.156705 l 0.496325,9.470455 M 779.074137,615.014752 l -2.111984,-40.299046 M 784.451873,717.628063 l 1.678907,32.035457 M 786.862758,763.630490 l -0.694794,-13.257463 M 786.894896,764.243721 l 2.074554,39.584857 M 781.783386,532.959040 l -0.164912,-3.146700 M 781.950516,536.148059 l 4.134925,78.899078 M 792.891246,744.909624 l -1.713483,-32.695203 M 793.241217,751.587469 l 0.243154,4.639654 M 796.091990,805.983461 l -2.536772,-48.404485 M 789.103935,538.892175 l 0.331596,6.327221 M 793.025209,613.714537 l -3.552476,-67.785271 M 797.921992,707.150716 l 2.053742,39.187737 M 803.228588,808.406608 l -2.963102,-56.539356 M 796.466758,545.631948 l 0.283689,5.413100 M 800.066693,614.322802 l -2.308297,-44.044929 M 804.682973,702.406663 l 5.602108,106.894582 M 804.826521,571.394468 l -0.708987,-13.528283 M 804.850762,571.857012 l 3.184354,60.761090 M 813.340009,733.841502 l -1.896055,-36.178893 M 813.386863,734.735533 l 3.854031,73.539294 M 815.961630,650.113742 l -4.721764,-90.096621 M 818.204762,692.915249 l 2.254063,43.010087 M 824.157258,806.495647 l -3.073009,-58.636501 M 818.968999,573.746504 l 4.571236,87.224384 M 827.454286,735.655432 l -2.489937,-47.510822 M 828.289232,751.587158 l 2.753200,52.534181 M 830.296255,656.132162 l -3.708678,-70.765784 M 830.710833,664.042794 l 3.812075,72.738731 M 834.917966,744.319661 l -0.216182,-4.125000 M 835.184789,749.410956 l 2.738948,52.262232 M 833.301730,579.728795 l -0.061867,-1.180489 M 834.176441,596.419267 l 2.863281,54.634658 M 841.493455,736.036209 l -4.065187,-77.568397 M 841.635885,738.753946 l 0.182079,3.474266 M 844.795963,799.051828 l -2.378626,-45.386882 M 840.475189,582.855278 l 0.341819,6.522289 M 843.781027,645.934433 l -2.463923,-47.014445 M 844.160428,653.173844 l 4.004112,76.403003 M 848.944726,744.463688 l -0.523532,-9.989588 M 849.384911,752.862911 l 2.318976,44.248705 M 848.232015,597.113080 l -0.480605,-9.170493 M 848.717229,606.371528 l 1.805103,34.443413 M 855.094511,728.057310 l -4.193273,-80.012414 M 855.150575,729.127082 l 0.833979,15.913264 M 856.332670,751.682785 l -0.327554,-6.250107 M 856.484833,754.586235 l 2.213254,42.231405 M 855.616833,604.272557 l -0.589935,-11.256631 M 855.933655,610.317863 l 1.320157,25.190096 M 862.376454,733.253796 l -4.731836,-90.288813 M 862.418980,734.065238 l 3.276573,62.520734 M 862.997499,611.352782 l -0.749674,-14.304632 M 863.310377,617.322862 l 0.640825,12.227673 M 872.615312,794.871600 l -8.213113,-156.715529 M 869.538082,602.403282 l 0.898040,17.135620 M 875.271882,711.810716 l -4.110456,-78.432172 M 875.450384,715.216738 l 4.046025,77.202759 M 886.330069,789.062236 l -8.416168,-160.590052 M 885.133676,632.482438 l 7.826564,149.339736 M 897.566681,735.967041 l -5.122147,-97.736385 M 900.020427,649.036051 l 6.364194,121.436058 M 907.412002,656.324433 l -0.231635,-4.419867 M 907.849434,664.671143 l 5.052422,96.405959 M 919.318118,749.755412 l -4.191790,-79.984115 M 922.997164,686.204529 l 0.187872,3.584818 M 925.458858,733.176454 l -0.768110,-14.656416"
       id="path17" />
  </g>
  <g
     inkscape:label="fill-aeaeae"
     inkscape:groupmode="layer"
     id="fill-aeaeae">
    <path
       style="stroke:#aeaeae"
       d="M 361.614710,590.904288 l 0.309378,1.754567 M 370.258971,593.858164 l -0.695481,-3.944268 M 377.601283,589.428316 l 0.949544,5.385129 M 386.812049,595.595003 l -1.149577,-6.519576 M 393.780110,589.042680 l 1.245975,7.066273 M 403.162203,596.181010 l -1.264454,-7.171076 M 409.975536,588.751175 l 1.265251,7.175597 M 419.260723,595.339921 l -1.250814,-7.093718 M 426.023276,587.622102 l 1.257382,7.130969 M 435.297744,594.150061 l -1.292197,-7.328414 M 441.983160,585.994776 l 1.331652,7.552177 M 451.379402,593.213348 l -1.450607,-8.226803 M 457.869864,583.952427 l 1.574490,8.929377 M 467.488776,592.433824 l -1.696025,-9.618638 M 473.715335,581.676226 l 1.714015,9.720660 M 483.362467,590.317666 l -1.724137,-9.778067 M 484.146886,594.766328 l 0.325962,1.848620 M 491.367111,589.644097 l -1.760570,-9.984687 M 491.977605,593.106378 l 0.543322,3.081334 M 499.348546,588.838900 l -1.771170,-10.044804 M 499.819135,591.507741 l 0.692359,3.926563 M 507.268594,587.685562 l -1.711644,-9.707216 M 507.688116,590.064789 l 0.752875,4.269766 M 512.393027,570.677499 l -0.230699,-1.308360 M 513.534024,577.148415 l 1.654139,9.381088 M 516.366359,593.211384 l -0.807122,-4.577418 M 520.071141,568.152086 l 0.316817,1.796760 M 523.106607,585.367070 l -1.636181,-9.279241 M 523.430357,587.203144 l 0.926576,5.254872 M 528.382890,569.220193 l -0.414103,-2.348498 M 529.353303,574.723675 l 1.671750,9.480963 M 532.348319,591.709260 l -1.075765,-6.100967 M 535.866432,565.591304 l 0.502200,2.848119 M 540.314282,590.816313 l -3.175899,-18.011416 M 543.711634,564.013491 l 0.641972,3.640804 M 548.052083,588.629401 l -3.235534,-18.349626 M 551.555933,562.430560 l 0.826282,4.686079 M 555.894877,587.037934 l -3.450705,-19.569920 M 559.403821,560.867980 l 4.398358,24.944330 M 571.595557,583.940587 l -4.328194,-24.546409 M 575.130905,557.920378 l 4.124171,23.389334 M 587.451518,581.723882 l -4.457071,-25.277306 M 590.845452,554.901671 l 4.817675,27.322395 M 603.927418,583.023024 l -5.238281,-29.707766 M 625.418198,704.903295 l 0.728485,4.131441 M 632.669920,746.029851 l -5.244266,-29.741708 M 606.570144,551.940505 l 5.647021,32.025848 M 634.275205,709.063714 l -2.566250,-14.553927 M 640.773835,745.919275 l 0.326591,1.852189 M 620.761281,586.352276 l -6.151290,-34.885699 M 637.931101,683.727164 l 2.169113,12.301650 M 594.061157,388.858186 l -1.863039,-10.565817 M 622.741664,551.513426 l 5.471971,31.033092 M 639.997588,649.376633 l -1.315688,-7.461636 M 640.409715,651.713921 l 10.422818,59.110740 M 606.016917,410.592509 l -4.567949,-25.906124 M 631.099491,552.842852 l 5.216733,29.585564 M 636.896817,585.721122 l -0.479943,-2.721894 M 645.286035,633.298741 l 6.770025,38.394718 M 660.992514,722.374612 l -7.527959,-42.693178 M 611.192935,393.876998 l 4.399235,24.949299 M 645.007880,585.651086 l -6.389366,-36.235893 M 651.749927,623.887133 l 6.302806,35.744989 M 664.586122,696.684810 l -2.930031,-16.617032 M 617.438926,383.229614 l 2.929189,16.612256 M 626.260134,433.257169 l -5.758994,-32.660877 M 646.384637,547.388898 l 8.988716,50.977544 M 657.628944,611.158532 l -0.514406,-2.917344 M 659.275191,620.494862 l 8.401678,47.648283 M 669.744041,679.866662 l -1.145205,-6.494780 M 627.525833,394.365138 l 10.130514,57.453000 M 652.437919,535.648601 l -0.036689,-0.208073 M 654.259955,545.981882 l 11.703997,66.376666 M 674.236343,659.273607 l -6.221953,-35.286449 M 675.650637,667.294469 l 1.201583,6.814516 M 649.118003,470.750255 l -10.738578,-60.901500 M 660.319211,534.275463 l 0.243317,1.379920 M 673.081813,606.655775 l -10.840887,-61.481727 M 674.500580,614.702008 l 9.511442,53.942069 M 655.046944,458.304786 l -3.721807,-21.107417 M 655.147016,458.872324 l 5.344859,30.312199 M 668.624277,535.305672 l -0.859000,-4.871633 M 668.983135,537.340858 l 0.894815,5.074748 M 681.150830,606.347282 l -10.919535,-61.927761 M 681.913737,610.673942 l 8.486305,48.128230 M 664.918441,468.218667 l -3.582951,-20.319923 M 665.469061,471.341387 l 6.227461,35.317686 M 677.794060,541.239929 l -2.391178,-13.561047 M 678.741937,546.615610 l 19.470880,110.424848 M 672.654703,466.023022 l -1.378156,-7.815912 M 672.865092,467.216197 l 2.076749,11.777829 M 685.003112,536.054333 l -9.236701,-52.383933 M 685.669936,539.836082 l 1.592950,9.034069 M 705.506996,652.337638 l -17.624609,-99.954126 M 681.201714,468.425370 l 3.861401,21.899092 M 693.480831,538.063700 l -6.961270,-39.479326 M 695.900085,551.783975 l 5.730526,32.499430 M 712.704233,647.085030 l -10.280283,-58.302380 M 691.116674,478.585735 l 4.168264,23.639400 M 708.879376,579.323025 l -12.064558,-68.421508 M 709.856603,584.865157 l 10.024537,56.851976 M 741.233880,762.814537 l -1.342101,-7.611434 M 699.296936,478.908144 l 0.933479,5.294020 M 705.578616,514.533323 l -5.261645,-29.840274 M 705.893661,516.320030 l 9.712484,55.082236 M 727.062211,636.372842 l -10.384185,-58.891638 M 747.386120,751.635460 l 1.456763,8.261712 M 752.906561,782.943436 l -1.859838,-10.547668 M 707.545238,479.616424 l 7.617723,43.202252 M 724.602429,576.352565 l -8.820353,-50.022707 M 725.222190,579.867405 l 9.053138,51.342899 M 756.755791,758.703340 l -1.736183,-9.846382 M 756.879867,759.407013 l 5.280986,29.949960 M 741.654732,626.990817 l -26.579360,-150.739039 M 762.639858,746.003378 l 1.890786,10.723179 M 771.379006,795.565548 l -5.778284,-32.770275 M 724.577670,484.071821 l 6.353208,36.030832 M 749.297025,624.262250 l -17.876165,-101.380769 M 770.168104,742.628019 l 10.544849,59.802812 M 757.114791,622.528839 l -23.314881,-132.225262 M 775.321948,725.786759 l 0.320115,1.815463 M 789.214479,804.575218 l -11.677658,-66.227292 M 742.284190,492.350156 l 22.639503,128.395001 M 797.787226,807.123517 l -15.570202,-88.303003 M 751.689943,499.622672 l 21.006606,119.134381 M 806.477626,810.339062 l -17.152050,-97.274109 M 760.924612,505.924915 l 19.480576,110.479837 M 814.477510,809.638494 l -17.981845,-101.980110 M 770.479029,514.040545 l 17.851341,101.239986 M 822.227509,807.520760 l -18.524239,-105.056181 M 780.437799,524.449373 l 15.812938,89.679629 M 829.903612,804.983935 l -18.973076,-107.601661 M 790.282399,534.210709 l 17.449782,98.962633 M 825.882664,736.109841 l -7.734228,-43.862989 M 826.611749,740.244690 l 0.878111,4.980015 M 837.550096,802.279139 l -9.826707,-55.730024 M 800.182614,544.287453 l 20.699966,117.395339 M 835.759957,746.056591 l -10.421392,-59.102653 M 836.084198,747.895455 l 9.114175,51.689057 M 828.438328,658.463410 l -18.525739,-105.064686 M 829.485500,664.402216 l 23.488490,133.209848 M 835.593538,652.972456 l -16.341348,-92.676389 M 836.566267,658.489073 l 24.561802,139.296900 M 842.748748,647.481502 l -13.848821,-78.540565 M 843.710555,652.936182 l 25.373202,143.898577 M 849.899295,641.964105 l -11.332723,-64.271068 M 850.863535,647.432582 l 25.905721,146.918644 M 847.219411,580.695563 l -0.542583,-3.077144 M 847.984646,585.035431 l 9.061312,51.389255 M 884.409753,791.612474 l -26.364477,-149.520379 M 856.630568,587.998723 l 7.508144,42.580802 M 891.547004,786.019677 l -26.319988,-149.268067 M 866.410988,597.396080 l 4.811156,27.285420 M 898.499701,779.380212 l -26.052857,-147.753093 M 876.548846,608.820566 l 1.608280,9.121009 M 905.347190,772.144091 l -25.674756,-145.608776 M 887.185551,623.074155 l 24.793673,140.611910 M 918.328143,753.622405 l -20.402083,-115.705963 M 908.004122,649.001808 l 16.195444,91.848927 M 927.852556,715.497708 l -6.511964,-36.931180"
       id="path20" />
  </g>
  <g
     inkscape:label="fill-cecece"
     inkscape:groupmode="layer"
     id="fill-cecece">
    <path
       style="stroke:#cecece"
       d="M 359.043289,589.665949 l 1.449149,4.460021 M 369.265881,595.239308 l -2.086936,-6.422928 M 375.376621,588.157687 l 2.631777,8.099777 M 386.746727,597.262733 l -3.113494,-9.582350 M 391.865363,587.127731 l 3.575772,11.005096 M 403.862838,598.163618 l -3.879576,-11.940106 M 407.616899,583.828886 l 4.370498,13.451010 M 420.121674,596.426081 l -4.508196,-13.874801 M 423.609078,581.270664 l 4.752206,14.625787 M 437.604257,598.454851 l -6.434606,-19.803681 M 439.208043,577.502254 l 5.621236,17.300384 M 446.156683,598.887970 l -1.013522,-3.119301 M 447.249188,576.361811 l 7.345578,22.607364 M 463.032849,599.050379 l -7.982536,-24.567721 M 463.020112,573.122635 l 8.450645,26.008410 M 477.652290,592.267305 l -6.629113,-20.402312 M 477.787953,592.684832 l 2.117970,6.518441 M 485.734044,591.251841 l -6.618830,-20.370664 M 485.895022,591.747281 l 2.446067,7.528220 M 496.776255,599.347729 l -9.484632,-29.190696 M 495.426584,569.305324 l 10.204681,31.406779 M 514.449048,601.961905 l -10.898451,-33.541983 M 511.621677,567.371609 l 11.197708,34.463002 M 531.016226,601.173350 l -11.371412,-34.997608 M 527.667951,564.979876 l 11.457468,35.262460 M 547.217721,599.259335 l -11.579106,-35.636824 M 543.587387,562.197773 l 11.704500,36.022748 M 563.320661,597.042002 l -11.784502,-36.268967 M 559.385275,559.041585 l 11.964160,36.821897 M 579.363411,594.639423 l -12.137110,-37.354184 M 623.482923,730.425318 l 4.526800,13.932058 M 587.328932,593.266229 l -12.384410,-38.115296 M 623.636888,705.010628 l 2.316444,7.129280 M 632.980957,733.768717 l -6.381570,-19.640452 M 634.872251,739.589520 l 2.875212,8.848992 M 595.294452,591.893036 l -12.667611,-38.986898 M 629.206034,696.262155 l 5.060199,15.573691 M 603.226922,590.418124 l -12.952097,-39.862455 M 634.709191,687.310586 l 4.246412,13.069112 M 611.015746,588.501115 l -13.130772,-40.412362 M 639.320118,675.613015 l 11.707901,36.033213 M 619.444128,588.552466 l -13.942165,-42.909571 M 637.136269,643.003278 l 26.725804,82.253567 M 627.889076,588.654799 l -14.717579,-45.296052 M 642.975700,635.086652 l 10.849847,33.392396 M 665.011538,702.905989 l -7.262532,-22.351775 M 620.922055,541.323970 l 15.172540,46.696276 M 661.239094,665.407055 l -13.178699,-40.559864 M 661.336245,665.706055 l 6.227460,19.166152 M 644.382251,587.638484 l -15.696644,-48.309304 M 654.322654,618.231898 l 19.357942,59.577621 M 591.439085,398.807629 l -0.623042,-1.917525 M 636.421951,537.250655 l 43.931342,135.206769 M 603.301317,409.427282 l -10.262173,-31.583722 M 643.946962,534.521715 l 43.012788,132.379750 M 614.919597,419.296127 l -11.013107,-33.894857 M 651.877077,533.039555 l 40.978892,126.120061 M 612.169595,384.943949 l -3.167296,-9.747935 M 616.706303,398.906499 l 14.553273,44.790368 M 700.471660,656.709759 l -40.676542,-125.189525 M 734.866960,762.567609 l 4.758260,14.644417 M 649.836680,474.982772 l -29.581419,-91.042247 M 667.394173,529.019177 l 39.934002,122.904220 M 749.960804,783.133139 l -9.630623,-29.640011 M 634.554400,402.060206 l 32.881864,101.199973 M 714.124412,646.951524 l -39.118522,-120.394431 M 747.651238,750.136483 l 12.834799,39.501450 M 720.910884,641.949590 l -67.935639,-209.084397 M 755.134019,747.277572 l 16.267396,50.065897 M 727.674588,636.877589 l -62.657636,-192.840375 M 762.674732,744.596956 l 19.217992,59.146897 M 734.489024,631.961721 l -57.839889,-178.012875 M 770.051392,741.411435 l 21.026750,64.713683 M 741.581277,627.900887 l -54.099534,-166.501246 M 773.402079,725.835246 l 0.880229,2.709065 M 800.442410,809.056828 l -23.294662,-71.693598 M 698.740236,470.161178 l 50.388662,155.080355 M 809.763527,811.855732 l -30.009175,-92.358743 M 709.918508,478.675818 l 47.022533,144.720476 M 817.581044,810.027033 l -31.147330,-95.861626 M 717.588897,476.394304 l 47.173995,145.186629 M 825.200434,807.588559 l -32.002710,-98.494213 M 729.466008,487.059749 l 43.125220,132.725780 M 832.786644,805.047969 l -32.787957,-100.910955 M 738.891638,490.180313 l 41.527925,127.809812 M 840.329887,802.375140 l -33.501529,-103.107104 M 749.180480,495.957567 l 39.133670,120.441053 M 847.873506,799.703469 l -34.234676,-105.363499 M 759.879762,502.998029 l 36.414752,112.073083 M 855.901443,798.522373 l -35.465435,-109.151386 M 771.365342,512.458465 l 48.226729,148.426609 M 864.361987,798.672707 l -37.285415,-114.752706 M 783.153713,522.850796 l 44.624872,137.341234 M 872.184325,796.858845 l -43.253620,-133.120953 M 795.134331,533.834804 l 39.306080,120.971676 M 879.813435,794.450286 l -44.232853,-136.134722 M 806.354956,542.479791 l 34.828796,107.192011 M 887.425628,791.989664 l -45.148689,-138.953377 M 818.731994,554.683855 l 29.205061,89.883935 M 893.826945,785.802347 l -44.812640,-137.919124 M 830.480687,564.954068 l 24.197888,74.473441 M 900.185635,779.483840 l -44.433965,-136.753682 M 841.099962,571.748293 l 20.302377,62.484290 M 906.412392,772.759284 l -43.923356,-135.182189 M 852.622109,581.321271 l 15.426852,47.478968 M 912.302018,764.997144 l -43.058333,-132.519922 M 864.826027,592.992526 l 9.809440,30.190353 M 917.913763,756.379775 l -41.867972,-128.856368 M 878.106468,607.976977 l 2.974133,9.153440 M 923.100374,746.453981 l -40.252478,-123.884389 M 891.861365,624.421651 l 35.645717,109.706236 M 929.554127,714.539503 l -24.446629,-75.238986"
       id="path23" />
  </g>
</svg>
