<?xml version="1.0" encoding="UTF-8" standalone="no"?>
<!-- Created with Inkscape (http://www.inkscape.org/) -->

<svg
   xmlns:dc="http://purl.org/dc/elements/1.1/"
   xmlns:cc="http://creativecommons.org/ns#"
   xmlns:rdf="http://www.w3.org/1999/02/22-rdf-syntax-ns#"
   xmlns:svg="http://www.w3.org/2000/svg"
   xmlns="http://www.w3.org/2000/svg"
   xmlns:sodipodi="http://sodipodi.sourceforge.net/DTD/sodipodi-0.dtd"
   xmlns:inkscape="http://www.inkscape.org/namespaces/inkscape"
   id="svg2"
   version="1.1"
   inkscape:version="0.48.3.1 r9886"
   width="1200"
   height="960"
   sodipodi:docname="hantologie-full-socle_01_hatched_1398261915.svg">
  <defs
     id="defs70" />
  <sodipodi:namedview
     pagecolor="#ffffff"
     bordercolor="#666666"
     borderopacity="1"
     objecttolerance="10"
     gridtolerance="10"
     guidetolerance="10"
     inkscape:pageopacity="0"
     inkscape:pageshadow="2"
     inkscape:window-width="640"
     inkscape:window-height="480"
     id="namedview68" />
  <metadata
     id="metadata8">
    <rdf:RDF>
      <cc:Work
         rdf:about="">
        <dc:format>image/svg+xml </dc:format>
        <dc:type
           rdf:resource="http://purl.org/dc/dcmitype/StillImage" />
        <dc:title />
      </cc:Work>
    </rdf:RDF>
  </metadata>
  <g
     inkscape:label="fill-303030"
     inkscape:groupmode="layer"
     id="fill-303030">
    <path
       style="stroke:#303030"
       d="M 588.906451,571.941347 l -0.016015,0.130431 M 589.635004,574.213273 l 0.271425,-2.210578 M 590.906406,572.064043 l -0.526835,4.290725 M 591.124138,578.496263 l 0.782245,-6.370872 M 592.906360,572.186740 l -1.037655,8.451019 M 592.613273,582.779254 l 1.293065,-10.531166 M 594.906314,572.309436 l -1.548474,12.611313 M 594.102407,587.062244 l 1.803884,-14.691460 M 596.906269,572.432133 l -2.059294,16.771607 M 595.591542,591.345235 l 2.314704,-18.851754 M 598.906223,572.554830 l -2.570114,20.931901 M 597.080676,595.628226 l 2.825524,-23.012048 M 600.906178,572.677526 l -3.080934,25.092195 M 598.569811,599.911216 l 3.336344,-27.172342 M 602.906132,572.800223 l -3.591754,29.252489 M 600.058945,604.194207 l 3.847164,-31.332636 M 604.906086,572.922919 l -4.102574,33.412783 M 601.548080,608.477198 l 4.357984,-35.492930 M 606.906041,573.045616 l -4.613394,37.573077 M 603.037214,612.760188 l 4.868804,-39.653224 M 608.905995,573.168313 l -5.124214,41.733371 M 604.526349,617.043179 l 5.211904,-42.447553 M 610.494182,576.644591 l -5.223265,42.540083 M 606.015483,621.326170 l 5.234627,-42.632614 M 612.006039,580.742520 l -5.245988,42.725145 M 607.504618,625.609160 l 5.257350,-42.817676 M 613.517896,584.840448 l -5.268711,42.910207 M 608.993752,629.892151 l 5.280072,-43.002738 M 615.029753,588.938377 l -3.414982,27.812794 M 614.335304,602.799725 l 1.450378,-11.812383"
       id="path5" />
  </g>
  <g
     inkscape:label="fill-4f4f4f"
     inkscape:groupmode="layer"
     id="fill-4f4f4f">
    <path
       style="stroke:#4f4f4f"
       d="M 609.800140,573.220863 l -0.085457,1.222095 M 610.557832,576.720941 l 0.240516,-3.439543 M 611.796557,573.341934 l -0.395575,5.656990 M 612.244132,581.276908 l 0.550634,-7.874438 M 613.792975,573.463006 l -0.705693,10.091886 M 613.930431,585.832875 l 0.860752,-12.309334 M 615.789392,573.584077 l -1.015812,14.526782 M 615.616731,590.388843 l 1.170871,-16.744230 M 617.785810,573.705149 l -1.310866,18.746256 M 617.467728,592.589526 l 1.316291,-18.823842 M 619.782228,573.826220 l -1.321717,18.901427 M 619.453295,592.865769 l 1.327142,-18.979013 M 621.778645,573.947292 l -1.332567,19.056599 M 621.438862,593.142011 l 1.337993,-19.134184 M 623.775063,574.068363 l -1.343418,19.211770 M 623.424429,593.418254 l 1.348843,-19.289355 M 625.771481,574.189434 l -1.354268,19.366941 M 625.409996,593.694497 l 1.359694,-19.444527 M 627.767898,574.310506 l -1.365119,19.522112 M 627.395563,593.970739 l 1.370544,-19.599698 M 629.764316,574.431577 l -1.375970,19.677283 M 629.381130,594.246982 l 1.381395,-19.754869 M 631.760734,574.552649 l -1.386820,19.832455 M 631.366697,594.523225 l 1.392246,-19.910040 M 633.757151,574.673720 l -1.397671,19.987626 M 633.352264,594.799467 l 1.403096,-20.065212 M 635.753569,574.794792 l -1.408522,20.142797 M 635.337831,595.075710 l 1.413947,-20.220383 M 637.749987,574.915863 l -1.419372,20.297968 M 637.323398,595.351953 l 1.424798,-20.375554 M 639.746404,575.036935 l -1.430223,20.453140 M 639.308965,595.628195 l 1.435648,-20.530725 M 641.742822,575.158006 l -1.441073,20.608311 M 641.294532,595.904438 l 1.446499,-20.685896 M 643.739240,575.279077 l -1.451924,20.763482 M 643.280099,596.180681 l 1.457349,-20.841068 M 645.735657,575.400149 l -1.462775,20.918653 M 645.265666,596.456923 l 1.468200,-20.996239 M 647.732075,575.521220 l -1.473625,21.073825 M 647.251233,596.733166 l 1.479051,-21.151410 M 649.728493,575.642292 l -1.484476,21.228996 M 649.236800,597.009409 l 1.489901,-21.306581 M 651.724910,575.763363 l -1.495327,21.384167 M 651.222367,597.285651 l 1.500752,-21.461753 M 653.721328,575.884435 l -1.506177,21.539338 M 653.207934,597.561894 l 1.511603,-21.616924 M 655.717746,576.005506 l -1.517028,21.694509 M 655.193501,597.838137 l 1.522453,-21.772095 M 657.714163,576.126577 l -1.527879,21.849681 M 657.179068,598.114379 l 1.533304,-21.927266 M 659.710581,576.247649 l -1.538729,22.004852 M 659.164635,598.390622 l 1.544154,-22.082437 M 661.706999,576.368720 l -1.549580,22.160023 M 661.150202,598.666865 l 1.555005,-22.237609 M 663.703416,576.489792 l -1.560430,22.315194 M 663.135769,598.943107 l 1.565856,-22.392780 M 665.699834,576.610863 l -1.571281,22.470366 M 665.121336,599.219350 l 1.576706,-22.547951 M 667.696252,576.731935 l -1.582132,22.625537 M 667.106903,599.495593 l 1.587557,-22.703122 M 669.692669,576.853006 l -1.592982,22.780708 M 669.092470,599.771835 l 1.598408,-22.858294 M 671.689087,576.974078 l -1.603833,22.935879 M 671.078037,600.048078 l 1.609258,-23.013465 M 673.685505,577.095149 l -1.614684,23.091050 M 673.063604,600.324321 l 1.620109,-23.168636 M 675.681922,577.216220 l -1.625534,23.246222 M 675.049172,600.600563 l 1.630959,-23.323807 M 677.678340,577.337292 l -1.636385,23.401393 M 677.034739,600.876806 l 1.641810,-23.478979 M 679.674757,577.458363 l -1.647235,23.556564 M 679.020306,601.153049 l 1.652661,-23.634150 M 681.671175,577.579435 l -1.658086,23.711735 M 681.005873,601.429291 l 1.663511,-23.789321 M 683.667593,577.700506 l -1.668937,23.866907 M 682.991440,601.705534 l 1.674362,-23.944492 M 685.664010,577.821578 l -1.679787,24.022078 M 684.977007,601.981777 l 1.685213,-24.099663 M 687.660428,577.942649 l -1.690638,24.177249 M 686.962574,602.258019 l 1.696063,-24.254835 M 689.656846,578.063721 l -1.701489,24.332420 M 688.948141,602.534262 l 1.706914,-24.410006 M 691.653263,578.184792 l -1.712339,24.487591 M 690.933708,602.810505 l 1.717765,-24.565177 M 693.649681,578.305863 l -1.723190,24.642763 M 692.919275,603.086747 l 1.728615,-24.720348 M 695.646099,578.426935 l -1.734040,24.797934 M 694.904842,603.362990 l 1.739466,-24.875520 M 697.642516,578.548006 l -1.744891,24.953105 M 696.890409,603.639233 l 1.750316,-25.030691 M 699.638934,578.669078 l -1.755742,25.108276 M 698.875976,603.915476 l 1.761167,-25.185862 M 701.635352,578.790149 l -1.766592,25.263448 M 700.861543,604.191718 l 1.772018,-25.341033 M 703.631769,578.911221 l -1.777443,25.418619 M 702.847110,604.467961 l 1.782868,-25.496204 M 705.628187,579.032292 l -1.788294,25.573790 M 704.832677,604.744204 l 1.793719,-25.651376 M 707.624605,579.153364 l -1.799144,25.728961 M 706.818244,605.020446 l 1.754796,-25.094749 M 709.457113,581.618444 l -1.646086,23.540124 M 708.803811,605.296689 l 1.537376,-21.985499 M 711.225260,585.003937 l -1.428666,20.430874 M 710.789378,605.572932 l 1.319956,-18.876249 M 712.993407,588.389429 l -1.211246,17.321624 M 712.774945,605.849174 l 1.102536,-15.766998 M 714.761554,591.774922 l -0.993826,14.212373 M 714.760512,606.125417 l 0.885116,-12.657748 M 716.529702,595.160415 l -0.776406,11.103123 M 716.746079,606.401660 l 0.667696,-9.548498 M 718.297849,598.545907 l -0.558986,7.993873 M 718.731646,606.677902 l 0.450276,-6.439248 M 720.065996,601.931400 l -0.341566,4.884623 M 720.717213,606.954145 l 0.232856,-3.329998 M 721.834143,605.316893 l -0.124146,1.775373 M 722.702780,607.230388 l 0.015436,-0.220748"
       id="path8" />
  </g>
  <g
     inkscape:label="fill-666666"
     inkscape:groupmode="layer"
     id="fill-666666">
    <path
       style="stroke:#666666"
       d="M 621.991252,257.647995 l -0.037197,1.065196 M 623.804630,263.027059 l 0.200622,-5.745059 M 626.019252,256.916005 l -0.364046,10.424922 M 627.505781,271.654795 l 0.527471,-15.104785 M 630.047252,256.184014 l -0.690895,19.784648 M 631.206932,280.282531 l 0.854320,-24.464511 M 634.075252,255.452024 l -0.985293,28.215112 M 635.108007,283.185196 l 0.981245,-28.099167 M 638.103251,254.720034 l -0.977196,27.983222 M 639.144105,282.221316 l 0.973147,-27.867277 M 642.131251,253.988044 l -0.969098,27.751332 M 643.180202,281.257435 l 0.943159,-27.008543 M 645.963315,258.866933 l -0.765064,21.908562 M 647.216300,280.293555 l 0.586969,-16.808581 M 649.643222,268.103015 l -0.408873,11.708600 M 651.252397,279.329674 l 0.230778,-6.608619 M 653.323129,277.339097 l -0.052683,1.508637"
       id="path11" />
  </g>
  <g
     inkscape:label="fill-757575"
     inkscape:groupmode="layer"
     id="fill-757575">
    <path
       style="stroke:#757575"
       d="M 615.506027,760.607062 l -0.194530,11.144627 M 616.401785,823.886506 l 1.114371,-63.842280 M 619.526285,759.481390 l -1.114723,63.862441 M 620.421339,822.801155 l 1.115075,-63.882601 M 623.546543,758.355718 l -1.115427,63.902762 M 624.440894,821.715804 l 1.115779,-63.922922 M 627.566801,757.230046 l -1.116131,63.943083 M 628.460448,820.630453 l 1.116483,-63.963243 M 631.587059,756.104373 l -1.116834,63.983404 M 632.480002,819.545102 l 1.117186,-64.003565 M 635.607317,754.978701 l -1.117538,64.023725 M 636.499556,818.459751 l 1.106098,-63.368337 M 639.570523,757.121568 l -1.061190,60.795507 M 640.519110,817.374399 l 1.016281,-58.222677 M 643.500259,761.181877 l -0.971372,55.649847 M 644.538665,816.289048 l 0.926463,-53.077017 M 647.429995,765.242186 l -0.881554,50.504187 M 648.558219,815.203697 l 0.836645,-47.931356 M 651.359732,769.302495 l -0.791736,45.358526 M 652.577773,814.118346 l 0.746827,-42.785696 M 655.289468,773.362804 l -0.701918,40.212866 M 656.597327,813.032995 l 0.657009,-37.640036 M 659.219205,777.423113 l -0.612100,35.067206 M 660.616881,811.947644 l 0.567191,-32.494376 M 663.148941,781.483422 l -0.522283,29.921546 M 664.636435,810.862293 l 0.477374,-27.348716 M 667.078677,785.543732 l -0.432465,24.775885 M 668.655990,809.776941 l 0.387556,-22.203055 M 671.008414,789.604041 l -0.342647,19.630225 M 672.675544,808.691590 l 0.297738,-17.057395 M 674.938150,793.664350 l -0.252829,14.484565 M 676.695098,807.606239 l 0.207920,-11.911735 M 678.867886,797.724659 l -0.163011,9.338905 M 680.714652,806.520888 l 0.118102,-6.766075 M 682.797623,801.784968 l -0.073193,4.193245 M 684.734206,805.435537 l 0.028284,-1.620415"
       id="path14" />
  </g>
  <g
     inkscape:label="fill-7e7e7e"
     inkscape:groupmode="layer"
     id="fill-7e7e7e">
    <path
       style="stroke:#7e7e7e"
       d="M 721.224733,837.941470 l -0.034492,1.976069 M 723.200792,839.330493 l 0.093341,-5.347493 M 725.363533,830.024531 l -0.152189,8.718917 M 727.221895,838.156402 l 0.211038,-12.090341 M 729.502333,822.107591 l -0.269886,15.461765 M 731.242998,836.982310 l 0.328735,-18.833189 M 733.641133,814.190651 l -0.387583,22.204613 M 735.264101,835.808218 l 0.446431,-25.576038 M 737.779933,806.273711 l -0.505280,28.947462 M 739.285204,834.634127 l 0.564128,-32.318886 M 741.918733,798.356771 l -0.622977,35.690310 M 743.306307,833.460035 l 0.681825,-39.061734 M 746.057533,790.439831 l -0.740674,42.433158 M 747.327411,832.285943 l 0.799522,-45.804583 M 750.196333,782.522891 l -0.858370,49.176007 M 751.348514,831.111852 l 0.917219,-52.547431 M 754.275712,778.010168 l -0.916646,52.514638 M 755.369617,829.937760 l 0.915765,-52.464123 M 758.295051,776.937106 l -0.914883,52.413609 M 759.390720,828.763668 l 0.914001,-52.363094 M 762.314391,775.864043 l -0.913119,52.312579 M 763.411823,827.589577 l 0.912238,-52.262064 M 766.333731,774.790981 l -0.911356,52.211550 M 767.432926,826.415485 l 0.910474,-52.161035 M 770.353071,773.717919 l -0.902626,51.711431 M 771.520202,821.450371 l 0.842538,-48.268983 M 774.372410,772.644857 l -0.782450,44.826534 M 775.659718,813.492412 l 0.722362,-41.384086 M 778.391750,771.571795 l -0.662274,37.941637 M 779.799234,805.534453 l 0.602186,-34.499189 M 782.411090,770.498733 l -0.542097,31.056740 M 783.938750,797.576494 l 0.482009,-27.614292 M 786.430429,769.425671 l -0.421921,24.171844 M 788.078266,789.618535 l 0.361833,-20.729395 M 790.449769,768.352609 l -0.301745,17.286947 M 792.217782,781.660576 l 0.241657,-13.844498 M 794.469109,767.279546 l -0.181568,10.402050 M 796.357298,773.702617 l 0.121480,-6.959601 M 798.488448,766.206484 l -0.061392,3.517153 M 800.496814,765.744658 l 0.001304,-0.074705"
       id="path17" />
    <path
       style="stroke:#7e7e7e"
       d="M 767.405768,713.374038 l -0.007901,0.452670 M 769.421087,712.513855 l 0.153408,-8.788740 M 771.743222,694.076190 l -0.298915,17.124810 M 773.467528,709.888147 l 0.444421,-25.460880 M 776.080677,674.778343 l -0.589928,33.796950 M 777.513969,707.262439 l 0.611659,-35.041943 M 780.147863,670.964161 l -0.610673,34.985424 M 781.560410,704.636731 l 0.609686,-34.928905 M 784.192331,668.451491 l -0.608700,34.872385 M 785.606852,702.011022 l 0.607713,-34.815866 M 788.236799,665.938821 l -0.606727,34.759347 M 789.653293,699.385314 l 0.605740,-34.702828 M 792.281267,663.426151 l -0.604754,34.646309 M 793.699734,696.759606 l 0.603767,-34.589790 M 796.325735,660.913481 l -0.602780,34.533271 M 797.746175,694.133898 l 0.601794,-34.476752 M 800.370203,658.400811 l -0.600807,34.420233 M 801.792617,691.508190 l 0.599821,-34.363714 M 804.414671,655.888142 l -0.598834,34.307195 M 805.839058,688.882482 l 0.597848,-34.250676 M 808.459140,653.375472 l -0.595212,34.099656 M 810.030453,677.952353 l 0.450920,-25.833216 M 812.503608,650.862802 l -0.306629,17.566777 M 814.363504,658.906804 l 0.162338,-9.300337 M 816.548076,648.350132 l -0.018047,1.033897"
       id="path19" />
  </g>
  <g
     inkscape:label="fill-868686"
     inkscape:groupmode="layer"
     id="fill-868686">
    <path
       style="stroke:#868686"
       d="M 481.746715,565.438370 l 0.000000,0.473531 M 483.746715,566.640667 l 0.000000,-1.080928 M 485.746715,565.681108 l 0.000000,1.688325 M 487.746715,568.098198 l 0.000000,-2.295721 M 489.746715,565.923846 l 0.000000,2.903118 M 491.746715,569.555730 l 0.000000,-3.510515 M 493.746715,566.166584 l 0.000000,4.117911 M 495.746715,571.013261 l 0.000000,-4.725308 M 497.746715,566.409322 l 0.000000,5.332705 M 499.746715,572.470793 l 0.000000,-5.940102 M 501.746715,566.652060 l 0.000000,6.547498 M 503.746715,573.928324 l 0.000000,-7.154895 M 505.746715,566.894798 l 0.000000,7.762292 M 507.746715,575.385856 l 0.000000,-8.369689 M 509.746715,567.137536 l 0.000000,8.977085 M 511.746715,576.843387 l 0.000000,-9.584482 M 513.746715,567.380274 l 0.000000,10.191879 M 515.746715,578.300919 l 0.000000,-10.799275 M 517.746715,567.623012 l 0.000000,11.406672 M 519.746715,579.758450 l 0.000000,-12.014069 M 521.746715,567.865750 l 0.000000,12.621466 M 523.746715,581.215981 l 0.000000,-13.228862 M 525.746715,568.108488 l 0.000000,13.836259 M 527.746715,582.673513 l 0.000000,-14.443656 M 529.746715,568.351226 l 0.000000,15.051052 M 531.746715,584.131044 l 0.000000,-15.658449 M 533.746715,568.593964 l 0.000000,16.265846 M 535.746715,585.588576 l 0.000000,-16.873243 M 537.746715,568.836702 l 0.000000,17.480639 M 539.746715,587.046107 l 0.000000,-18.088036 M 541.746715,569.079440 l 0.000000,18.695433 M 543.746715,588.503639 l 0.000000,-19.302829 M 545.746715,569.322178 l 0.000000,19.910226 M 547.746715,589.961170 l 0.000000,-20.517623 M 549.746715,569.564916 l 0.000000,21.125020 M 551.746715,591.418701 l 0.000000,-21.732416 M 553.746715,569.807654 l 0.000000,22.339813 M 555.746715,592.876233 l 0.000000,-22.947210 M 557.746715,570.050392 l 0.000000,23.554607 M 559.746715,594.333764 l 0.000000,-24.162003 M 561.746715,570.293130 l 0.000000,24.769400 M 563.746715,595.791296 l 0.000000,-25.376797 M 565.746715,570.535868 l 0.000000,25.984193 M 567.746715,597.248827 l 0.000000,-26.591590 M 569.746715,570.778606 l 0.000000,27.198987 M 571.746715,598.706359 l 0.000000,-27.806384 M 573.746715,571.021344 l 0.000000,28.413780 M 575.746715,600.163890 l 0.000000,-29.021177 M 577.746715,571.264082 l 0.000000,29.628574 M 579.746715,601.621421 l 0.000000,-30.235970 M 581.746715,571.506820 l 0.000000,30.843367 M 583.746715,603.078953 l 0.000000,-31.450764 M 585.746715,571.749558 l 0.000000,32.058161 M 587.746715,604.536484 l 0.000000,-32.665557 M 589.746715,574.536750 l 0.000000,30.728500 M 591.746715,605.994016 l 0.000000,-25.700123 M 593.746715,586.051036 l 0.000000,20.671746 M 595.746715,607.451547 l 0.000000,-15.643368 M 597.746715,597.565322 l 0.000000,10.614991 M 599.746715,608.909079 l 0.000000,-5.586614 M 601.746715,609.079607 l 0.000000,0.558237 M 691.746715,642.437021 l 0.000000,-0.223116 M 693.746715,642.508479 l 0.000000,0.657207 M 695.746715,643.894352 l 0.000000,-1.091299 M 697.746715,643.097627 l 0.000000,1.525390 M 699.746715,645.351682 l 0.000000,-1.959482 M 701.746715,643.686774 l 0.000000,2.393573 M 703.746715,646.809013 l 0.000000,-2.827665 M 705.746715,644.275921 l 0.000000,3.261756 M 707.746715,648.266343 l 0.000000,-3.695848 M 709.746715,644.865069 l 0.000000,4.129940 M 711.746715,649.723673 l 0.000000,-4.564031 M 713.746715,645.454216 l 0.000000,4.998123 M 715.746715,651.181004 l 0.000000,-9.617583 M 717.746715,631.898349 l 0.000000,20.011320 M 719.746715,652.638334 l 0.000000,-30.405057 M 721.746715,614.173137 l 0.000000,39.193863 M 723.746715,654.095665 l 0.000000,-39.206932 M 725.746715,615.604329 l 0.000000,39.220000 M 727.746715,655.552995 l 0.000000,-39.233069 M 729.746715,617.035522 l 0.000000,39.246138 M 731.746715,657.010325 l 0.000000,-39.259207 M 733.746715,618.466715 l 0.000000,39.272276 M 735.746715,658.467656 l 0.000000,-39.285345 M 737.746715,619.897907 l 0.000000,39.298414 M 739.746715,659.924986 l 0.000000,-39.311483 M 741.746715,621.329100 l 0.000000,39.324552 M 743.746715,661.382317 l 0.000000,-39.337620 M 745.746715,622.760293 l 0.000000,39.350689 M 747.746715,662.839647 l 0.000000,-39.363758 M 749.746715,624.191485 l 0.000000,39.376827 M 751.746715,664.296978 l 0.000000,-39.389896 M 753.746715,625.622678 l 0.000000,39.402965 M 755.746715,665.754308 l 0.000000,-39.416034 M 757.746715,627.053871 l 0.000000,39.429103 M 759.746715,667.211638 l 0.000000,-39.442171 M 761.746715,628.485063 l 0.000000,39.455240 M 763.746715,668.668969 l 0.000000,-39.468309 M 765.746715,629.916256 l 0.000000,39.481378 M 767.746715,670.126299 l 0.000000,-39.494447 M 769.746715,631.347449 l 0.000000,39.507516 M 771.746715,671.583630 l 0.000000,-39.520585 M 773.746715,632.778641 l 0.000000,39.533654 M 775.746715,673.040960 l 0.000000,-39.546722 M 777.746715,634.209834 l 0.000000,38.238938 M 779.746715,671.206700 l 0.000000,-36.281269 M 781.746715,635.641027 l 0.000000,34.323600 M 783.746715,668.722554 l 0.000000,-32.365931 M 785.746715,637.072219 l 0.000000,30.408262 M 787.746715,666.238409 l 0.000000,-28.450593 M 789.746715,638.503412 l 0.000000,26.492924 M 791.746715,663.754263 l 0.000000,-24.535255 M 793.746715,639.934605 l 0.000000,22.577586 M 795.746715,661.270118 l 0.000000,-20.619917 M 797.746715,641.365797 l 0.000000,18.662248 M 799.746715,658.785973 l 0.000000,-16.704579 M 801.746715,642.796990 l 0.000000,14.746910 M 803.746715,656.301827 l 0.000000,-12.789241 M 805.746715,644.228183 l 0.000000,10.831572 M 807.746715,653.817682 l 0.000000,-8.873903 M 809.746715,645.659375 l 0.000000,6.916234 M 811.746715,651.333536 l 0.000000,-4.958565 M 813.746715,647.090568 l 0.000000,3.000896 M 815.746715,648.849391 l 0.000000,-1.043227"
       id="path22" />
  </g>
  <g
     inkscape:label="fill-929292"
     inkscape:groupmode="layer"
     id="fill-929292">
    <path
       style="stroke:#929292"
       d="M 511.668740,801.857314 l 0.119069,6.821432 M 513.778921,808.152111 l -0.270165,-15.477729 M 515.348772,783.491451 l 0.421261,24.134025 M 517.761145,807.098841 l -0.572357,-32.790322 M 519.028804,765.125587 l 0.723453,41.446619 M 521.743370,806.045572 l -0.874550,-50.102916 M 522.708836,746.759724 l 1.025646,58.759213 M 525.725594,804.992302 l -1.176742,-67.415510 M 526.388868,728.393861 l 1.327838,76.071807 M 529.707818,803.939033 l -1.478935,-84.728103 M 530.068900,710.027998 l 1.630031,93.384400 M 533.690043,802.885763 l -1.781127,-102.040697 M 533.748932,691.662134 l 1.932223,110.696994 M 537.672267,801.832494 l -2.083319,-119.353291 M 537.428964,673.296271 l 2.234416,128.009588 M 541.654492,800.779224 l -2.385512,-136.665885 M 541.108996,654.930408 l 2.536608,145.322181 M 545.636716,799.725955 l -2.687704,-153.978478 M 544.876620,641.582714 l 2.751208,157.616606 M 549.618940,798.672685 l -2.747187,-157.386218 M 548.866887,640.990220 l 2.743165,157.155831 M 553.601165,797.619416 l -2.739144,-156.925443 M 552.857155,640.397726 l 2.735122,156.695055 M 557.583389,796.566146 l -2.731101,-156.464668 M 556.847422,639.805231 l 2.727080,156.234280 M 561.565614,795.512877 l -2.723058,-156.003892 M 560.837689,639.212737 l 2.719037,155.773505 M 565.547838,794.459607 l -2.715015,-155.543117 M 564.832088,638.856910 l 2.706863,155.076062 M 569.530063,793.406338 l -2.684645,-153.803228 M 568.858747,640.349308 l 2.662428,152.530395 M 573.512287,792.353068 l -2.640211,-151.257561 M 572.885406,641.841706 l 2.617993,149.984727 M 577.494511,791.299799 l -2.595776,-148.711893 M 576.912065,643.334105 l 2.228918,127.694606 M 580.785288,750.633522 l -1.859893,-106.553219 M 580.800325,751.494982 l 0.000082,0.004706 M 582.777565,750.173580 l -1.838840,-105.347077 M 582.809990,752.031254 l 0.000177,0.010149 M 584.769841,749.713638 l -1.817787,-104.140936 M 584.819656,752.567526 l 0.000272,0.015591 M 586.762117,749.253696 l -1.796734,-102.934795 M 586.829321,753.103798 l 0.000367,0.021034 M 588.754394,748.793753 l -1.775680,-101.728653 M 588.838986,753.640070 l 0.000462,0.026476 M 590.746670,748.333811 l -1.754627,-100.522512 M 590.848652,754.176342 l 0.000557,0.031919 M 592.738946,747.873869 l -1.733574,-99.316370 M 592.858317,754.712614 l 0.000652,0.037361 M 594.731223,747.413926 l -1.712520,-98.110229 M 594.867982,755.248885 l 0.000747,0.042804 M 596.723499,746.953984 l -1.691467,-96.904088 M 596.877648,755.785157 l 0.000842,0.048246 M 598.715775,746.494042 l -1.670414,-95.697946 M 598.887313,756.321429 l 0.000937,0.053689 M 600.168682,715.133632 l -1.109991,-63.591338 M 600.190651,716.392219 l 0.517401,29.641880 M 600.898010,756.916832 l -0.001032,-0.059131 M 601.072021,652.288494 l 1.024434,58.689784 M 602.700328,745.574157 l -0.472593,-27.074851 M 603.085350,653.034693 l 0.938877,53.788231 M 604.692604,745.114215 l -0.427786,-24.507822 M 605.098680,653.780892 l 0.853320,48.886677 M 606.544318,736.601417 l -0.242415,-13.887937 M 607.112009,654.527091 l 0.767763,43.985123 M 608.389485,727.713625 l -0.050499,-2.893058 M 609.125339,655.273290 l 0.682206,39.083570 M 611.735318,690.201505 l -0.596649,-34.182016 M 613.151998,656.765688 l 0.511092,29.280463 M 615.590863,681.890796 l -0.425535,-24.378909 M 617.178658,658.258086 l 0.339979,19.477356 M 619.446409,673.580088 l -0.254422,-14.575802 M 621.205317,659.750485 l 0.105124,6.022566"
       id="path25" />
  </g>
  <g
     inkscape:label="fill-999999"
     inkscape:groupmode="layer"
     id="fill-999999">
    <path
       style="stroke:#999999"
       d="M 494.537473,615.967049 l 0.017780,0.509150 M 496.593030,617.523107 l -0.062774,-1.797608 M 498.523041,615.483950 l 0.107768,3.086066 M 500.668586,619.616924 l -0.152762,-4.374524 M 502.535403,615.768142 l 0.170961,4.895690 M 504.744142,621.710741 l -0.181280,-5.191169 M 506.590322,617.271000 l 0.191598,5.486649 M 508.819698,623.804557 l -0.201916,-5.782128 M 510.645241,618.773859 l 0.212235,6.077607 M 512.895254,625.898374 l -0.222553,-6.373087 M 514.700160,620.276717 l 0.232871,6.668566 M 516.970810,627.992191 l -0.243190,-6.964045 M 518.755080,621.779575 l 0.253508,7.259525 M 521.046366,630.086008 l -0.263827,-7.555004 M 522.809999,623.282433 l 0.274145,7.850483 M 525.121921,632.179825 l -0.284463,-8.145963 M 526.864918,624.785291 l 0.294782,8.441442 M 529.197477,634.273641 l -0.305100,-8.736921 M 530.919837,626.288149 l 0.315418,9.032401 M 533.273033,636.367458 l -0.325737,-9.327880 M 534.974756,627.791007 l 0.336055,9.623359 M 537.348589,638.461275 l -0.346373,-9.918839 M 539.029675,629.293866 l 0.356692,10.214318 M 541.424145,640.555092 l -0.367010,-10.509797 M 543.084594,630.796724 l 0.377329,10.805277 M 545.459446,641.496173 l -0.347393,-9.948020 M 547.139513,632.299582 l 0.310829,8.900973 M 549.441238,640.904937 l -0.274265,-7.853926 M 551.194433,633.802440 l 0.237701,6.806879 M 553.423030,640.313702 l -0.201138,-5.759832 M 555.249352,635.305298 l 0.164574,4.712786 M 557.404822,639.722466 l -0.128010,-3.665739 M 559.304271,636.808156 l 0.091447,2.618692 M 561.386614,639.131230 l -0.054883,-1.571645 M 563.359190,638.311014 l 0.018319,0.524598"
       id="path28" />
    <path
       style="stroke:#999999"
       d="M 226.350124,557.972634 l 0.209094,5.987669 M 228.785030,570.391792 l -0.485426,-13.900791 M 230.249083,555.009367 l 0.702716,20.123166 M 232.903593,573.717165 l -0.705030,-20.189430 M 234.148041,552.046101 l 0.707344,20.255695 M 236.807179,570.886427 l -0.709658,-20.321960 M 238.047000,549.082835 l 0.711972,20.388224 M 240.710766,568.055690 l -0.714286,-20.454489 M 241.945959,546.119568 l 0.716600,20.520753 M 244.614353,565.224953 l -0.718915,-20.587018 M 245.844917,543.156302 l 0.721229,20.653283 M 248.517939,562.394216 l -0.723543,-20.719547 M 249.743876,540.193035 l 0.725857,20.785812 M 252.421526,559.563478 l -0.728171,-20.852076 M 253.642835,537.229769 l 0.730485,20.918341 M 256.325113,556.732741 l -0.732799,-20.984605 M 257.541793,534.266502 l 0.735113,21.050870 M 260.228699,553.902004 l -0.737427,-21.117135 M 261.440752,531.303236 l 0.739741,21.183399 M 264.132286,551.071267 l -0.742055,-21.249664 M 265.339711,528.339970 l 0.744369,21.315928 M 268.035872,548.240529 l -0.746683,-21.382193 M 269.238669,525.376703 l 0.748997,21.448458 M 271.939459,545.409792 l -0.751311,-21.514722 M 273.137628,522.413437 l 0.753625,21.580987 M 275.843046,542.579055 l -0.755939,-21.647251 M 277.036586,519.450170 l 0.758253,21.713516 M 279.746632,539.748318 l -0.760567,-21.779780 M 280.935545,516.486904 l 0.762881,21.846045 M 283.650219,536.917580 l -0.765195,-21.912310 M 284.834504,513.523638 l 0.767509,21.978574 M 287.553806,534.086843 l -0.769823,-22.044839 M 288.733462,510.560371 l 0.772137,22.111103 M 291.457392,531.256106 l -0.774451,-22.177368 M 292.632421,507.597105 l 0.776765,22.243633 M 295.360979,528.425369 l -0.779079,-22.309897 M 296.531380,504.633838 l 0.781393,22.376162 M 299.264566,525.594631 l -0.783707,-22.442426 M 300.430338,501.670572 l 0.786021,22.508691 M 303.168152,522.763894 l -0.788335,-22.574955 M 304.329297,498.707306 l 0.790649,22.641220 M 307.071739,519.933157 l -0.792963,-22.707485 M 308.228255,495.744039 l 0.160050,4.583234 M 309.023532,518.517788 l -0.219231,-6.277969 M 310.817956,512.595952 l 0.157369,4.506467 M 312.927119,515.687051 l -0.099040,-2.836129 M 314.830855,512.895489 l 0.048058,1.376193 M 402.709500,450.576896 l -0.077086,-2.207447 M 404.422125,442.312628 l 0.239171,6.848959 M 406.613091,447.746278 l -0.373101,-10.684218 M 408.085896,432.614468 l 0.478991,13.716500 M 410.516682,444.915659 l -0.567608,-16.254153 M 411.829970,425.215892 l 0.638507,18.284458 M 414.420273,442.085041 l -0.697402,-19.970976 M 415.624187,419.253209 l 0.747881,21.416522 M 418.323864,439.254422 l -0.790976,-22.650596 M 419.450341,414.205086 l 0.825318,23.634027 M 422.227454,436.423804 l -0.859661,-24.617459 M 423.295702,409.706984 l 0.883548,25.301511 M 426.131045,433.593185 l -0.905220,-25.922108 M 427.155949,405.635172 l 0.926892,26.542704 M 430.034636,430.762567 l -0.936725,-26.824295 M 431.047402,402.456962 l 0.939030,26.890296 M 433.938227,427.931949 l -0.941335,-26.956298 M 434.946383,399.494340 l 0.943639,27.022299 M 437.841818,425.101330 l -0.945944,-27.088301 M 438.845364,396.531718 l 0.948249,27.154303 M 441.745408,422.270712 l -0.950554,-27.220304 M 442.744345,393.569097 l 0.952859,27.286306 M 445.648999,419.440093 l -0.955164,-27.352307 M 446.643326,390.606475 l 0.957468,27.418309 M 449.552590,416.609475 l -0.959773,-27.484310 M 450.542307,387.643854 l 0.962078,27.550312 M 453.456181,413.778857 l -0.964383,-27.616314 M 454.441288,384.681232 l 0.966688,27.682315 M 457.359772,410.948238 l -0.968993,-27.748317 M 458.340270,381.718611 l 0.971297,27.814318 M 461.263362,408.117620 l -0.973602,-27.880320 M 462.239251,378.755989 l 0.975907,27.946322 M 465.166953,405.287001 l -0.978212,-28.012323 M 466.138232,375.793367 l 0.980517,28.078325 M 469.070544,402.456383 l -0.982822,-28.144326 M 470.037213,372.830746 l 0.985126,28.210328 M 472.974135,399.625764 l -0.987431,-28.276329 M 473.936194,369.868124 l 0.989736,28.342331 M 476.877726,396.795146 l -0.992041,-28.408333 M 477.835175,366.905503 l 0.994346,28.474334 M 480.781316,393.964528 l -0.996650,-28.540336 M 481.734157,363.942881 l 0.998955,28.606337 M 484.684907,391.133909 l -1.001260,-28.672339 M 485.633138,360.980259 l 1.003565,28.738340 M 488.588498,388.303291 l -1.005870,-28.804342 M 489.532119,358.017638 l 1.008175,28.870344 M 492.492089,385.472672 l -1.010479,-28.936345 M 493.431100,355.055016 l 1.012784,29.002347 M 496.395680,382.642054 l -1.015089,-29.068348 M 497.330081,352.092395 l 1.017394,29.134350 M 500.299270,379.811435 l -1.019699,-29.200351 M 501.229062,349.129773 l 1.022004,29.266353 M 504.202861,376.980817 l -1.024308,-29.332355 M 505.128043,346.167152 l 1.026613,29.398356 M 508.106452,374.150199 l -1.028918,-29.464358 M 509.027025,343.204530 l 1.031223,29.530359 M 512.010043,371.319580 l -1.033528,-29.596361 M 512.926006,340.241908 l 1.035833,29.662362 M 515.913634,368.488962 l -1.038137,-29.728364 M 516.824987,337.279287 l 1.040442,29.794366 M 519.817224,365.658343 l -1.042747,-29.860367 M 520.723968,334.316665 l 1.045052,29.926369 M 523.720815,362.827725 l -1.047357,-29.992370 M 524.622949,331.354044 l 1.049661,30.058372 M 527.624406,359.997106 l -1.051966,-30.124373 M 528.521930,328.391422 l 1.054271,30.190375 M 531.527997,357.166488 l -1.056576,-30.256377 M 532.420911,325.428801 l 1.058881,30.322378 M 535.431588,354.335870 l -1.061186,-30.388380 M 536.319893,322.466179 l 1.063490,30.454381 M 539.335178,351.505251 l -1.065795,-30.520383 M 540.218874,319.503557 l 1.068100,30.586385 M 543.238769,348.674633 l -1.070405,-30.652386 M 544.117855,316.540936 l 1.072710,30.718388 M 547.142360,345.844014 l -1.075015,-30.784389 M 548.016836,313.578314 l 1.077319,30.850391 M 551.045951,343.013396 l -1.079624,-30.916392 M 551.915817,310.615693 l 1.081929,30.982394 M 554.949542,340.182778 l -1.084234,-31.048396 M 555.814798,307.653071 l 1.086539,31.114397 M 558.853132,337.352159 l -1.088844,-31.180399 M 559.713780,304.690450 l 1.091148,31.246400 M 562.756723,334.521541 l -1.093453,-31.312402 M 563.612761,301.727828 l 1.095758,31.378403 M 566.660314,331.690922 l -1.098063,-31.444405 M 567.511742,298.765206 l 1.100368,31.510407 M 570.563905,328.860304 l -1.102672,-31.576408 M 571.410723,295.802585 l 1.104977,31.642410 M 574.467496,326.029685 l -1.107282,-31.708411 M 575.309704,292.839963 l 1.109587,31.774413 M 578.371087,323.199067 l -1.111892,-31.840414 M 579.208685,289.877342 l 1.114197,31.906416 M 582.274677,320.368449 l -1.116501,-31.972418 M 583.107666,286.914720 l 1.118806,32.038419 M 586.178268,317.537830 l -1.121111,-32.104421 M 587.006648,283.952099 l 1.123416,32.170422 M 590.081859,314.707212 l -1.125721,-32.236424 M 590.905629,280.989477 l 1.128026,32.302425 M 593.985450,311.876593 l -1.130330,-32.368427 M 594.804610,278.026855 l 1.132635,32.434429 M 597.889041,309.045975 l -1.134940,-32.500430 M 598.703591,275.064234 l 1.137245,32.566432 M 601.792631,306.215356 l -1.139550,-32.632433 M 602.602572,272.101612 l 1.141855,32.698435 M 605.696222,303.384738 l -1.144159,-32.764436 M 606.501553,269.138991 l 1.146464,32.830438 M 609.599813,300.554120 l -1.148769,-32.896440 M 610.400535,266.176369 l 1.151074,32.962441 M 613.503404,297.723501 l -1.153379,-33.028443 M 614.299516,263.213748 l 1.155683,33.094444 M 617.406995,294.892883 l -1.157988,-33.160446 M 618.198497,260.251126 l 1.160293,33.226448 M 621.310585,292.062264 l -1.162598,-33.292449 M 622.164200,259.199180 l 1.098181,31.447775 M 625.214176,289.231646 l -0.870764,-24.935431 M 626.522623,269.393250 l 0.643348,18.423086 M 629.117767,286.401027 l -0.415932,-11.910742 M 630.881046,279.587321 l 0.188516,5.398397"
       id="path30" />
  </g>
  <g
     inkscape:label="fill-9c9c9c"
     inkscape:groupmode="layer"
     id="fill-9c9c9c">
    <path
       style="stroke:#9c9c9c"
       d="M 579.280202,808.844579 l 0.169272,4.847319 M 581.470846,814.268995 l -2.206512,-63.186238 M 581.284527,751.626086 l 2.207691,63.220005 M 585.513590,815.423187 l -2.208870,-63.253772 M 585.324912,752.712745 l 2.210050,63.287539 M 589.556333,816.577380 l -2.211229,-63.321306 M 589.365297,753.799404 l 2.212408,63.355073 M 593.599076,817.731573 l -2.213587,-63.388839 M 593.405682,754.886063 l 2.214766,63.422606 M 597.641820,818.885766 l -2.215945,-63.456373 M 597.446067,755.972722 l 2.217125,63.490140 M 601.684563,820.039958 l -2.218304,-63.523907 M 601.486452,757.059381 l 2.219483,63.557674 M 605.727307,821.194151 l -2.220662,-63.591441 M 605.526837,758.146040 l 2.221841,63.625207 M 609.770050,822.348344 l -2.223020,-63.658974 M 609.567223,759.232699 l 2.224200,63.692741 M 613.812794,823.502537 l -2.225379,-63.726508 M 613.607608,760.319358 l 2.102821,60.216929"
       id="path33" />
  </g>
  <g
     inkscape:label="fill-a3a3a3"
     inkscape:groupmode="layer"
     id="fill-a3a3a3">
    <path
       style="stroke:#a3a3a3"
       d="M 635.975547,665.223689 l 0.007625,0.218350 M 638.054736,667.456445 l -0.051725,-1.481224 M 640.030474,666.726753 l 0.095826,2.744098 M 642.197863,671.485257 l -0.139927,-4.006971 M 644.085400,668.229817 l 0.184027,5.269845 M 646.340991,675.514068 l -0.228128,-6.532719 M 648.140326,669.732881 l 0.272228,7.795593 M 650.484118,679.542879 l -0.316329,-9.058466 M 652.195253,671.235945 l 0.360429,10.321340 M 654.627245,683.571690 l -0.404530,-11.584214 M 656.250179,672.739008 l 0.448630,12.847088 M 658.770373,687.600501 l -0.492731,-14.109961 M 660.305105,674.242072 l 0.536831,15.372835 M 662.913500,691.629313 l -0.580932,-16.635709 M 664.360032,675.745136 l 0.625032,17.898582 M 667.056628,695.658124 l -0.669133,-19.161456 M 668.414958,677.248200 l 0.713233,20.424330 M 671.199755,699.686935 l -0.757334,-21.687204 M 672.469884,678.751263 l 0.801434,22.950077 M 675.342882,703.715746 l -0.845535,-24.212951 M 676.524811,680.254327 l 0.889635,25.475825 M 679.486010,707.744558 l -0.933736,-26.738699 M 680.579737,681.757391 l 0.977836,28.001572 M 683.629137,711.773369 l -1.021937,-29.264446 M 684.634663,683.260455 l 1.066037,30.527320 M 687.772264,715.802180 l -1.110138,-31.790194 M 688.689590,684.763519 l 1.154239,33.053067 M 691.915392,719.830991 l -1.198339,-34.315941 M 692.744516,686.266582 l 1.242440,35.578815 M 696.058519,723.859803 l -1.286540,-36.841688 M 696.799442,687.769646 l 1.330641,38.104562 M 700.201646,727.888614 l -1.374741,-39.367436 M 700.854368,689.272710 l 1.418842,40.630310 M 704.344774,731.917425 l -1.462942,-41.893183 M 704.909295,690.775774 l 1.507043,43.156057 M 708.487901,735.946236 l -1.551143,-44.418931 M 708.964221,692.278837 l 1.595244,45.681805 M 712.631029,739.975048 l -1.639344,-46.944678 M 713.019147,693.781901 l 1.683445,48.207552 M 716.774156,744.003859 l -1.727545,-49.470426 M 717.074074,695.284965 l 1.771646,50.733299 M 720.917283,748.032670 l -1.815746,-51.996173 M 721.129000,696.788029 l 1.859847,53.259047 M 725.060411,752.061481 l -1.903947,-54.521921 M 725.183926,698.291092 l 1.948048,55.784794 M 729.203538,756.090292 l -1.992148,-57.047668 M 729.238853,699.794156 l 2.036249,58.310542 M 733.346665,760.119104 l -2.080350,-59.573416 M 733.293779,701.297220 l 2.124450,60.836289 M 737.489793,764.147915 l -2.142220,-61.345164 M 737.418526,704.799672 l 2.142831,61.362649 M 741.632920,768.176726 l -2.143441,-61.380133 M 741.560432,708.793514 l 2.144052,61.397618 M 745.776047,772.205537 l -2.144663,-61.415103 M 745.702338,712.787355 l 2.145273,61.432588 M 749.919175,776.234349 l -2.145884,-61.450072 M 749.844244,716.781197 l 2.146494,61.467557 M 753.985938,778.076372 l -2.070741,-59.298254 M 753.986150,720.775039 l 1.982531,56.772259 M 757.951425,777.018224 l -1.894321,-54.246264 M 758.128057,724.768881 l 1.806112,51.720269 M 761.916912,775.960076 l -1.717902,-49.194274 M 762.269963,728.762723 l 1.629692,46.668279 M 765.882398,774.901928 l -1.541483,-44.142284 M 766.411869,732.756565 l 1.453273,41.616289 M 769.847885,773.843780 l -1.365063,-39.090294 M 770.553775,736.750406 l 1.276853,36.564299 M 773.813372,772.785632 l -1.188644,-34.038305 M 774.695681,740.744248 l 1.100434,31.512310 M 777.778859,771.727484 l -1.012224,-28.986315 M 778.837588,744.738090 l 0.924015,26.460320 M 781.744346,770.669336 l -0.835805,-23.934325 M 782.979494,748.731932 l 0.747595,21.408330 M 785.709833,769.611188 l -0.659386,-18.882335 M 787.121400,752.725774 l 0.571176,16.356340 M 789.675319,768.553040 l -0.482966,-13.830345 M 791.263306,756.719616 l 0.394757,11.304350 M 793.640806,767.494892 l -0.306547,-8.778355 M 795.405212,760.713457 l 0.218337,6.252360 M 797.606293,766.436744 l -0.130128,-3.726365 M 799.547119,764.707299 l 0.041918,1.200370"
       id="path36" />
  </g>
  <g
     inkscape:label="fill-a4a4a4"
     inkscape:groupmode="layer"
     id="fill-a4a4a4">
    <path
       style="stroke:#a4a4a4"
       d="M 885.618064,554.317456 l 1.207285,34.572105 M 888.789916,587.840013 l -1.200680,-34.382964 M 889.560410,552.596641 l 1.194075,34.193824 M 892.719052,585.740917 l -1.187470,-34.004684 M 893.502756,550.875825 l 1.180865,33.815543 M 896.648189,583.641821 l -1.174260,-33.626403 M 897.445102,549.155010 l 1.167655,33.437262 M 900.577325,581.542725 l -1.161050,-33.248122 M 901.387448,547.434195 l 1.154445,33.058982 M 904.506461,579.443629 l -1.147840,-32.869841 M 905.329794,545.713380 l 1.141235,32.680701 M 908.435597,577.344533 l -1.134630,-32.491560 M 909.272140,543.992565 l 1.128025,32.302420 M 912.364733,575.245437 l -1.121420,-32.113280 M 913.214486,542.271750 l 1.114816,31.924139 M 916.293869,573.146341 l -1.108211,-31.734999 M 917.156832,540.550935 l 1.101606,31.545858 M 920.223005,571.047245 l -1.095001,-31.356718 M 921.099178,538.830119 l 1.088396,31.167578 M 924.152141,568.948149 l -1.081791,-30.978437 M 925.041524,537.109304 l 1.075186,30.789297 M 928.081278,566.849053 l -1.068581,-30.600156 M 928.983870,535.388489 l 1.061976,30.411016 M 931.549045,551.538080 l -0.594002,-17.009998"
       id="path39" />
  </g>
  <g
     inkscape:label="fill-a5a5a5"
     inkscape:groupmode="layer"
     id="fill-a5a5a5">
    <path
       style="stroke:#a5a5a5"
       d="M 609.390047,628.084584 l 0.068780,1.969589 M 611.470419,630.351208 l -0.382252,-10.946272 M 612.786285,610.725288 l 0.695725,19.922954 M 615.493602,630.945277 l -1.009198,-28.899637 M 616.182524,593.365993 l 1.322670,37.876319 M 619.516786,631.539347 l -1.357227,-38.865904 M 620.170555,592.953439 l 1.357822,38.882942 M 623.539969,632.133417 l -1.358417,-38.899981 M 624.192549,593.513432 l 1.359012,38.917020 M 627.563153,632.727486 l -1.359607,-38.934059 M 628.214542,594.073424 l 1.360202,38.951097 M 631.586336,633.321556 l -1.360797,-38.968136 M 632.236536,594.633416 l 1.361392,38.985175 M 635.609520,633.915626 l -1.361987,-39.002213 M 636.258529,595.193409 l 1.362582,39.019252 M 639.632703,634.509695 l -1.363177,-39.036291 M 640.280523,595.753401 l 1.363772,39.053329 M 643.655887,635.103765 l -1.364367,-39.070368 M 644.302516,596.313393 l 1.364962,39.087407 M 647.679070,635.697835 l -1.365557,-39.104445 M 648.324510,596.873386 l 1.366152,39.121484 M 651.702254,636.291904 l -1.366747,-39.138523 M 652.346503,597.433378 l 1.367342,39.155561 M 655.725438,636.885974 l -1.367937,-39.172600 M 656.368497,597.993370 l 1.368532,39.189639 M 659.748621,637.480044 l -1.369127,-39.206677 M 660.390491,598.553362 l 1.369722,39.223716 M 663.771805,638.074113 l -1.370317,-39.240755 M 664.412484,599.113355 l 1.370912,39.257794 M 667.794988,638.668183 l -1.371507,-39.274832 M 668.434478,599.673347 l 1.372102,39.291871 M 671.818172,639.262253 l -1.372697,-39.308910 M 672.456471,600.233339 l 1.373292,39.325948 M 675.841355,639.856323 l -1.373887,-39.342987 M 676.478465,600.793332 l 1.374482,39.360026 M 679.864539,640.450392 l -1.375077,-39.377064 M 680.500458,601.353324 l 1.375672,39.394103 M 683.887722,641.044462 l -1.376267,-39.411142 M 684.522452,601.913316 l 1.376862,39.428180 M 687.910906,641.638532 l -1.377457,-39.445219 M 688.544445,602.473309 l 1.378052,39.462258 M 691.934090,642.232601 l -1.378647,-39.479296 M 692.566439,603.033301 l 1.379242,39.496335 M 695.957273,642.826671 l -1.379837,-39.513374 M 696.588432,603.593293 l 1.380432,39.530412 M 699.980457,643.420741 l -1.381027,-39.547451 M 700.610426,604.153286 l 1.381622,39.564490 M 704.003640,644.014810 l -1.382217,-39.581529 M 704.632419,604.713278 l 1.382812,39.598567 M 708.026824,644.608880 l -1.383407,-39.615606 M 708.654413,605.273270 l 1.384002,39.632645 M 712.050007,645.202950 l -1.384597,-39.649683 M 712.676407,605.833262 l 1.385192,39.666722 M 715.899806,640.831930 l -1.212403,-34.718672 M 716.698400,606.393255 l 0.913796,26.167704 M 719.324587,624.289987 l -0.615190,-17.616736 M 720.720394,606.953247 l 0.316584,9.065768 M 722.749368,607.748044 l -0.017977,-0.514800"
       id="path42" />
  </g>
  <g
     inkscape:label="fill-a6a6a6"
     inkscape:groupmode="layer"
     id="fill-a6a6a6">
    <path
       style="stroke:#a6a6a6"
       d="M 464.508500,775.979901 l 0.263470,5.027315 M 466.841745,782.286236 l -0.776519,-14.816864 M 467.621953,758.958842 l 1.289567,24.606414 M 470.981296,784.844275 l -1.802616,-34.395963 M 470.735407,741.937783 l 2.315665,44.185512 M 475.120847,787.402314 l -2.828713,-53.975062 M 473.848860,724.916723 l 3.341762,63.764611 M 479.260397,789.960354 l -3.854810,-73.554160 M 476.962314,707.895664 l 4.367859,83.343710 M 483.399948,792.518393 l -4.880907,-93.133259 M 480.075767,690.874604 l 5.393956,102.922808 M 487.539498,795.076432 l -5.907004,-112.712358 M 483.189221,673.853545 l 6.420053,122.501907 M 491.679049,797.634471 l -6.933101,-132.291456 M 486.302674,656.832485 l 7.446150,142.081006 M 495.818599,800.192510 l -7.959199,-151.870555 M 489.416127,639.811426 l 8.472247,161.660104 M 499.958150,802.750550 l -8.985296,-171.449654 M 492.529581,622.790366 l 9.498344,181.239203 M 504.097700,805.308589 l -9.905964,-189.017050 M 496.250022,617.351319 l 9.917454,189.236290 M 508.237251,807.866628 l -9.928944,-189.455529 M 500.366593,619.470880 l 9.920105,189.286871 M 511.874149,800.833497 l -9.449271,-180.302836 M 504.483164,621.590441 l 8.978438,171.318801 M 515.049054,784.984987 l -8.507605,-162.334765 M 508.599735,623.710002 l 8.036771,153.350730 M 518.223958,769.136478 l -7.565938,-144.366695 M 512.716305,625.829563 l 7.095105,135.382660 M 521.398862,753.287968 l -6.624271,-126.398624 M 516.832876,627.949125 l 6.153438,117.414589 M 524.573766,737.439459 l -5.682605,-108.430554 M 520.949447,630.068686 l 5.211771,99.446518 M 527.748670,721.590949 l -4.740938,-90.462483 M 525.066018,632.188247 l 4.270105,81.478448 M 530.923575,705.742440 l -3.799271,-72.494413 M 529.182589,634.307808 l 3.328438,63.510377 M 534.098479,689.893930 l -2.857604,-54.526342 M 533.299160,636.427369 l 2.386771,45.542307 M 537.273383,674.045421 l -1.915938,-36.558271 M 537.415731,638.546930 l 1.445104,27.574236 M 540.448287,658.196912 l -0.974271,-18.590201 M 541.532302,640.666491 l 0.503438,9.606166 M 543.623191,642.348402 l -0.032604,-0.622130"
       id="path45" />
  </g>
  <g
     inkscape:label="fill-a9a9a9"
     inkscape:groupmode="layer"
     id="fill-a9a9a9">
    <path
       style="stroke:#a9a9a9"
       d="M 579.366864,750.960963 l 0.008056,0.153725 M 581.406094,751.657154 l -0.060434,-1.153156 M 583.324456,750.047033 l 0.112812,2.152586 M 585.468443,752.742085 l -0.165190,-3.152017 M 587.282049,749.133104 l 0.217568,4.151447 M 589.530791,753.827017 l -0.269946,-5.150878 M 591.239641,748.219174 l 0.322324,6.150308 M 593.593139,754.911948 l -0.374702,-7.149739 M 595.197233,747.305244 l 0.427080,8.149169 M 597.655487,755.996879 l -0.479458,-9.148600 M 599.154826,746.391315 l 0.531836,10.148030 M 601.717835,757.081811 l -0.584214,-11.147461 M 603.112418,745.477385 l 0.636592,12.146891 M 605.780184,758.166742 l -0.688970,-13.146322 M 607.070010,744.563455 l 0.741347,14.145752 M 609.842532,759.251673 l -0.793725,-15.145183 M 611.027603,743.649526 l 0.846103,16.144613 M 613.904880,760.336605 l -0.898481,-17.144044 M 614.985195,742.735596 l 0.930591,17.756734 M 617.889567,759.939671 l -0.925576,-17.661040 M 618.942787,741.821666 l 0.920561,17.565346 M 621.837129,758.834354 l -0.915546,-17.469652 M 622.900380,740.907737 l 0.910531,17.373958 M 625.784691,757.729036 l -0.824109,-15.724932 M 627.078196,744.195934 l 0.680276,12.980444 M 629.732254,756.623719 l -0.536444,-10.235956 M 631.313423,748.579592 l 0.392611,7.491468 M 633.679816,755.518402 l -0.248779,-4.746981 M 635.548651,752.963250 l 0.104946,2.002493"
       id="path48" />
  </g>
  <g
     inkscape:label="fill-acacac"
     inkscape:groupmode="layer"
     id="fill-acacac">
    <path
       style="stroke:#acacac"
       d="M 308.499407,498.866537 l 0.705001,13.452218 M 312.235505,512.833563 l -1.322588,-25.236479 M 313.511869,479.866076 l 1.732962,33.066891 M 318.241122,512.783623 l -2.104168,-40.149926 M 318.757739,465.319292 l 2.468856,47.108576 M 324.197790,511.799677 l -2.856379,-54.502957 M 323.839289,447.637112 l 3.318346,63.317817 M 330.109532,509.958499 l -3.958113,-75.525288 M 328.044428,413.232003 l 5.008613,95.570030 M 335.983038,507.387733 l -5.814208,-110.941689 M 333.174035,396.466812 l 5.738222,109.491792 M 341.838276,504.468394 l -5.658544,-107.971452 M 339.187881,396.573892 l 5.568190,106.247393 M 347.673867,501.174176 l -5.475072,-104.470599 M 345.209708,396.833263 l 5.381954,102.693804 M 353.509458,497.879958 l -5.288836,-100.917010 M 354.088018,508.919534 l 0.023004,0.438946 M 356.437672,496.431625 l -5.204119,-99.300511 M 356.808078,503.499398 l 0.358820,6.846689 M 359.371252,495.085705 l -5.123197,-97.756417 M 359.620726,499.845958 l 0.602117,11.489071 M 362.333569,494.288121 l -5.071011,-96.760657 M 362.438379,496.288002 l 0.845330,16.129853 M 366.344574,513.500682 l -6.067513,-115.775042 M 363.291564,397.923815 l 6.109328,116.572918 M 372.455394,515.458137 l -6.149327,-117.336146 M 369.320570,398.320166 l 6.189326,118.099374 M 378.554552,517.193070 l -6.219479,-118.674729 M 375.349576,398.716517 l 6.248226,119.223262 M 384.641053,518.686487 l -6.276974,-119.771795 M 381.380610,399.151560 l 6.301103,120.232207 M 390.713287,519.907686 l -6.313736,-120.473253 M 387.418493,399.717307 l 6.326368,120.714299 M 396.776436,520.955525 l -6.339001,-120.955344 M 393.456377,400.283054 l 6.351634,121.196390 M 402.834623,521.908674 l -6.359304,-121.342747 M 399.494261,400.848801 l 2.590177,49.423528 M 405.855894,522.235990 l -3.602857,-68.746598 M 402.513202,401.131674 l 2.122447,40.498693 M 408.877165,522.563306 l -3.703220,-70.661648 M 405.532144,401.414547 l 1.736651,33.137270 M 411.898435,522.890621 l -3.803584,-72.576699 M 408.551086,401.697421 l 1.416825,27.034625 M 414.919706,523.217937 l -3.903947,-74.491749 M 411.573476,402.046091 l 1.138346,21.720939 M 417.940977,523.545252 l -4.004311,-76.406800 M 414.599087,402.456225 l 0.890269,16.987353 M 420.958986,523.810327 l -4.101412,-78.259610 M 417.624699,402.866360 l 0.673288,12.847095 M 423.971695,523.974257 l -4.193213,-80.011274 M 420.650310,403.276494 l 0.463692,8.847771 M 426.984403,524.138186 l -4.285014,-81.762938 M 423.687183,403.901525 l 0.270562,5.162633 M 429.997111,524.302115 l -4.376815,-83.514602 M 426.726612,404.575316 l 0.077081,1.470801 M 433.009819,524.466045 l -4.468616,-85.266266 M 431.462111,437.612043 l 4.560416,87.017931 M 439.035236,524.793903 l -4.652217,-88.769595 M 437.290200,434.174675 l 4.757744,90.783157 M 445.056141,525.035687 l -4.870833,-92.941035 M 443.080415,430.014628 l 4.981455,95.051831 M 451.067601,525.097233 l -5.092078,-97.162628 M 448.870631,425.854582 l 5.202700,99.273424 M 457.079060,525.158778 l -5.313322,-101.384220 M 454.660846,421.694535 l 5.423944,103.495017 M 463.090520,525.220324 l -5.318398,-101.481076 M 461.143258,430.742382 l 4.952992,94.508715 M 469.101979,525.281870 l -4.505203,-85.964400 M 468.171288,450.201264 l 3.932319,75.033113 M 474.084059,505.701679 l -1.961686,-37.431197"
       id="path51" />
  </g>
  <g
     inkscape:label="fill-aeaeae"
     inkscape:groupmode="layer"
     id="fill-aeaeae">
    <path
       style="stroke:#aeaeae"
       d="M 601.339453,712.610851 l 0.275318,5.253380 M 604.790971,721.147762 l -0.752250,-14.353784 M 606.737989,700.977106 l 1.229182,23.454187 M 611.143370,727.714825 l -1.706114,-32.554591 M 612.136524,689.343362 l 2.183046,41.654995 M 617.495770,734.281889 l -2.659978,-50.755398 M 617.535059,677.709618 l 3.136910,59.855802 M 623.848169,740.848952 l -3.613842,-68.956206 M 622.933595,666.075874 l 4.090774,78.056609 M 630.200568,747.416015 l -4.507542,-86.009021 M 628.756936,662.547909 l 4.619832,88.151637 M 636.552967,753.983078 l -4.732121,-90.294253 M 634.884756,664.829740 l 4.844411,92.436869 M 642.905367,760.550141 l -4.878598,-93.089201 M 641.192295,670.540821 l 4.889271,93.292852 M 649.257766,767.117204 l -4.899944,-93.496503 M 647.523348,676.700581 l 4.910617,93.700154 M 655.610165,773.684267 l -4.921290,-93.903806 M 653.854402,682.860342 l 4.931963,94.107457 M 661.962564,780.251331 l -4.942636,-94.311108 M 660.185455,689.020103 l 4.953309,94.514760 M 668.314964,786.818394 l -4.963982,-94.718411 M 666.516509,695.179863 l 4.974654,94.922062 M 674.667363,793.385457 l -4.985327,-95.125713 M 672.847562,701.339624 l 4.996000,95.329365 M 681.019762,799.952520 l -5.006673,-95.533016 M 679.178616,707.499384 l 5.017346,95.736667 M 687.372161,806.519583 l -5.028019,-95.940319 M 685.509669,713.659145 l 5.038692,96.143970 M 693.724561,813.086646 l -5.049365,-96.347621 M 691.840723,719.818905 l 5.060038,96.551273 M 700.076960,819.653709 l -5.070711,-96.754924 M 698.171776,725.978666 l 5.081384,96.958575 M 706.429359,826.220773 l -5.092057,-97.162226 M 704.502830,732.138426 l 5.102729,97.365878 M 712.781759,832.787836 l -5.113402,-97.569529 M 710.833883,738.298187 l 5.124075,97.773180 M 719.134158,839.354899 l -5.134748,-97.976832 M 717.164936,744.457947 l 4.821245,91.994828 M 724.716714,831.232483 l -4.386251,-83.694656 M 723.495990,750.617708 l 3.951257,75.394483 M 730.177780,820.791899 l -3.516264,-67.094310 M 729.827043,756.777469 l 3.081270,58.794138 M 735.638847,810.351314 l -2.646277,-50.493965 M 736.158097,762.937229 l 2.211283,42.193792 M 741.099913,799.910729 l -1.776289,-33.893619 M 742.489150,769.096990 l 1.341296,25.593447 M 746.560979,789.470144 l -0.906302,-17.293274 M 748.820204,775.256750 l 0.471308,8.993101 M 752.022045,779.029559 l -0.036315,-0.692928"
       id="path54" />
  </g>
  <g
     inkscape:label="fill-b3b3b3"
     inkscape:groupmode="layer"
     id="fill-b3b3b3">
    <path
       style="stroke:#b3b3b3"
       d="M 232.456860,574.040612 l 0.066688,0.953686 M 235.484810,574.335543 l -0.165811,-2.371201 M 238.181138,569.888071 l 0.264933,3.788717 M 241.407332,573.018033 l -0.364055,-5.206232 M 243.905415,565.735530 l 0.463178,6.623747 M 247.262247,570.733693 l -0.494693,-7.074433 M 249.629693,561.582989 l 0.496088,7.094393 M 252.989316,566.621073 l -0.497484,-7.114354 M 255.353970,557.430449 l 0.498880,7.134315 M 258.716385,562.508454 l -0.500276,-7.154276 M 261.078248,553.277908 l 0.501671,7.174236 M 264.443454,558.395835 l -0.503067,-7.194197 M 266.802525,549.125367 l 0.504463,7.214158 M 270.170523,554.283215 l -0.505859,-7.234118 M 272.526803,544.972826 l 0.507255,7.254079 M 275.897592,550.170596 l -0.508650,-7.274040 M 278.251080,540.820286 l 0.510046,7.294001 M 281.624661,546.057976 l -0.511442,-7.313961 M 283.975357,536.667745 l 0.512838,7.333922 M 287.351730,541.945357 l -0.514234,-7.353883 M 289.699635,532.515204 l 0.515629,7.373843 M 293.078799,537.832738 l -0.517025,-7.393804 M 295.423912,528.362663 l 0.518421,7.413765 M 298.805868,533.720118 l -0.519817,-7.433726 M 301.148190,524.210123 l 0.521213,7.453686 M 304.532937,529.607499 l -0.522608,-7.473647 M 306.872467,520.057582 l 0.524004,7.493608 M 310.260006,525.494880 l -0.525400,-7.513568 M 312.596745,515.905041 l 0.526796,7.533529 M 315.987075,521.382260 l -0.528191,-7.553490 M 318.390897,512.751754 l 0.459713,6.574197 M 321.714144,517.269641 l -0.340246,-4.865745 M 324.334691,511.738452 l 0.242987,3.474879 M 327.441213,513.157022 l -0.157217,-2.248306 M 330.223067,509.932626 l 0.081681,1.168087 M 333.168282,509.044402 l -0.021441,-0.306621 M 401.401626,452.664418 l 0.086753,1.240625 M 404.385581,452.330193 l -0.198181,-2.834114 M 407.049550,447.419975 l 0.233232,3.335370 M 410.179984,449.180495 l -0.268283,-3.836626 M 412.773851,443.267765 l 0.303334,4.337882 M 415.974387,446.030797 l -0.338385,-4.839137 M 418.498151,439.115555 l 0.373437,5.340393 M 421.768790,442.881099 l -0.408488,-5.841649 M 424.222452,434.963345 l 0.443539,6.342905 M 427.563193,439.731401 l -0.478590,-6.844161 M 429.946753,430.811135 l 0.513642,7.345417 M 433.357596,436.581703 l -0.548693,-7.846673 M 435.671053,426.658925 l 0.577866,8.263871 M 439.112385,432.865505 l -0.579182,-8.282685 M 441.395354,422.506715 l 0.580497,8.301500 M 444.839317,428.750925 l -0.581813,-8.320315 M 447.119654,418.354505 l 0.583129,8.339130 M 450.566249,424.636345 l -0.584444,-8.357945 M 452.843955,414.202295 l 0.585760,8.376759 M 456.298842,420.602719 l -0.592737,-8.476528 M 458.568256,410.050085 l 0.594117,8.496267 M 462.025903,416.489985 l -0.595497,-8.516005 M 464.292556,405.897875 l 0.596877,8.535743 M 467.752964,412.377251 l -0.598257,-8.555481 M 470.016857,401.745666 l 0.599638,8.575219 M 473.480025,408.264517 l -0.601018,-8.594957 M 475.741157,397.593456 l 0.602398,8.614695 M 479.207086,404.151784 l -0.603778,-8.634433 M 481.465458,393.441246 l 0.605159,8.654171 M 484.934147,400.039050 l -0.606539,-8.673909 M 487.189758,389.289036 l 0.607919,8.693647 M 490.661208,395.926316 l -0.609299,-8.713385 M 492.914059,385.136826 l 0.610679,8.733123 M 496.388269,391.813582 l -0.612060,-8.752861 M 498.638360,380.984616 l 0.613440,8.772599 M 502.115330,387.700848 l -0.614820,-8.792337 M 504.362660,376.832406 l 0.616200,8.812075 M 507.842391,383.588114 l -0.617581,-8.831813 M 510.086961,372.680196 l 0.618961,8.851551 M 513.569452,379.475381 l -0.620341,-8.871289 M 515.811261,368.527986 l 0.621721,8.891027 M 519.296513,375.362647 l -0.623101,-8.910765 M 521.535562,364.375776 l 0.624482,8.930504 M 525.023574,371.249913 l -0.625862,-8.950242 M 527.259863,360.223566 l 0.627242,8.969980 M 530.750635,367.137179 l -0.628622,-8.989718 M 532.984163,356.071357 l 0.630003,9.009456 M 536.477696,363.024445 l -0.631383,-9.029194 M 538.708464,351.919147 l 0.632763,9.048932 M 542.204757,358.911712 l -0.634143,-9.068670 M 544.432764,347.766937 l 0.635523,9.088408 M 547.931818,354.798978 l -0.636904,-9.108146 M 550.157065,343.614727 l 0.638284,9.127884 M 553.658879,350.686244 l -0.639664,-9.147622 M 555.881366,339.462517 l 0.641044,9.167360 M 559.385940,346.573510 l -0.642424,-9.187098 M 561.605666,335.310307 l 0.643805,9.206836 M 565.113001,342.460776 l -0.645185,-9.226574 M 567.329967,331.158097 l 0.646565,9.246312 M 570.840062,338.348042 l -0.647945,-9.266050 M 573.054267,327.005887 l 0.649326,9.285788 M 576.567123,334.235309 l -0.650706,-9.305526 M 578.778568,322.853677 l 0.652086,9.325264 M 582.294184,330.122575 l -0.653466,-9.345003 M 584.502868,318.701467 l 0.654846,9.364741 M 588.021245,326.009841 l -0.656227,-9.384479 M 590.227169,314.549257 l 0.657607,9.404217 M 593.748306,321.897107 l -0.658987,-9.423955 M 595.951470,310.397047 l 0.660367,9.443693 M 599.475367,317.784373 l -0.661748,-9.463431 M 601.675770,306.244838 l 0.663128,9.483169 M 605.202429,313.671639 l -0.664508,-9.502907 M 607.400071,302.092628 l 0.665888,9.522645 M 610.929490,309.558906 l -0.667268,-9.542383 M 613.124371,297.940418 l 0.668649,9.562121 M 616.656551,305.446172 l -0.670029,-9.581859 M 618.848672,293.788208 l 0.671409,9.601597 M 622.383612,301.333438 l -0.672789,-9.621335 M 624.572973,289.635998 l 0.674170,9.641073 M 628.110673,297.220704 l -0.675550,-9.660811 M 630.297273,285.483788 l 0.676930,9.680549 M 633.837734,293.107970 l -0.662472,-9.473796 M 636.133466,282.931710 l 0.567798,8.119893 M 639.564795,288.995237 l -0.473124,-6.765991 M 642.049875,281.526781 l 0.378450,5.412088 M 645.291856,284.882503 l -0.283776,-4.058186 M 647.966284,280.121852 l 0.189102,2.704284 M 651.018917,280.769769 l -0.094428,-1.350381"
       id="path57" />
  </g>
  <g
     inkscape:label="fill-bbbbbb"
     inkscape:groupmode="layer"
     id="fill-bbbbbb">
    <path
       style="stroke:#bbbbbb"
       d="M 415.684674,578.477077 l 0.366347,5.239005 M 419.138370,584.860467 l -1.159491,-16.581499 M 420.527600,561.720621 l 1.698119,24.284230 M 425.313068,587.149236 l -1.765303,-25.245009 M 426.567930,562.087833 l 1.832487,26.205787 M 431.487766,589.438005 l -1.899671,-27.166566 M 432.608259,562.455045 l 1.966855,28.127344 M 437.662463,591.726774 l -2.034040,-29.088123 M 438.648588,562.822258 l 2.101224,30.048901 M 443.837161,594.015543 l -2.168408,-31.009680 M 444.688918,563.189470 l 2.235592,31.970458 M 450.011859,596.304313 l -2.302776,-32.931237 M 450.729247,563.556682 l 2.369961,33.892015 M 456.186556,598.593082 l -2.437145,-34.852794 M 456.769576,563.923894 l 2.504329,35.813572 M 462.361254,600.881851 l -2.571513,-36.774351 M 462.809906,564.291106 l 2.638697,37.735129 M 468.535952,603.170620 l -2.705881,-38.695908 M 468.850235,564.658319 l 2.773066,39.656686 M 474.710650,605.459389 l -2.840250,-40.617465 M 474.890564,565.025531 l 2.907434,41.578243 M 480.885347,607.748159 l -2.974618,-42.539022 M 480.948463,565.643997 l 3.024233,43.248546 M 487.060045,610.036928 l -3.025574,-43.267725 M 487.120479,567.894409 l 3.026915,43.286903 M 493.234743,612.325697 l -3.028256,-43.306082 M 493.292494,570.144821 l 3.029597,43.325261 M 499.409440,614.614466 l -3.030938,-43.344439 M 499.464510,572.395233 l 3.032280,43.363618 M 505.584138,616.903236 l -3.033621,-43.382797 M 505.636525,574.645645 l 3.034962,43.401976 M 511.758836,619.192005 l -3.036303,-43.421154 M 511.808541,576.896056 l 3.037644,43.440333 M 517.933534,621.480774 l -3.038985,-43.459512 M 517.980556,579.146468 l 3.040326,43.478690 M 524.108231,623.769543 l -3.041667,-43.497869 M 524.152572,581.396880 l 3.043008,43.517048 M 530.282929,626.058312 l -3.044350,-43.536226 M 530.324587,583.647292 l 3.045691,43.555405 M 536.457627,628.347082 l -3.047032,-43.574584 M 536.496603,585.897704 l 3.048373,43.593763 M 542.632325,630.635851 l -3.049714,-43.612941 M 542.668618,588.148115 l 3.051055,43.632120 M 548.807022,632.924620 l -3.052396,-43.651299 M 548.840634,590.398527 l 3.053737,43.670477 M 554.981720,635.213389 l -3.055078,-43.689656 M 555.012649,592.648939 l 3.056419,43.708835 M 561.156418,637.502158 l -3.057761,-43.728013 M 561.184665,594.899351 l 3.059102,43.747192 M 567.331115,639.790928 l -3.060443,-43.766371 M 567.356680,597.149763 l 3.061784,43.785550 M 573.505813,642.079697 l -3.063125,-43.804728 M 573.528696,599.400175 l 3.064466,43.823907 M 579.680511,644.368466 l -3.065807,-43.843086 M 579.700711,601.650586 l 3.067148,43.862264 M 585.855209,646.657235 l -3.068489,-43.881443 M 585.872727,603.900998 l 3.069831,43.900622 M 592.029906,648.946004 l -3.071172,-43.919800 M 592.044742,606.151410 l 3.072513,43.938979 M 598.204604,651.234774 l -3.073854,-43.958158 M 598.216758,608.401822 l 3.075195,43.977337 M 604.379302,653.523543 l -3.076536,-43.996515 M 604.913763,618.159938 l 2.552887,36.507989 M 610.554000,655.812312 l -1.876005,-26.828117 M 611.784799,630.406798 l 1.856550,26.549899 M 616.728697,658.101081 l -1.905181,-27.245355 M 617.862234,631.304654 l 1.953812,27.940812 M 622.903395,660.389851 l -2.002443,-28.636268 M 623.939670,632.202510 l 2.051074,29.331725 M 629.078093,662.678620 l -2.099705,-30.027182 M 630.017105,633.100366 l 2.148336,30.722638 M 635.252790,664.967389 l -2.196967,-31.418095 M 636.094541,633.998222 l 2.245598,32.113551 M 641.427488,667.256158 l -2.294229,-32.809008 M 642.171977,634.896078 l 2.342860,33.504465 M 647.602186,669.544927 l -2.391491,-34.199921 M 648.249412,635.793934 l 2.440123,34.895378 M 653.776884,671.833697 l -2.488754,-35.590834 M 654.326848,636.691790 l 2.537385,36.286291 M 659.951581,674.122466 l -2.586016,-36.981748 M 660.404283,637.589646 l 2.634647,37.677204 M 666.126279,676.411235 l -2.683278,-38.372661 M 666.481719,638.487502 l 2.731909,39.068118 M 672.300977,678.700004 l -2.780540,-39.763574 M 672.559155,639.385358 l 2.829171,40.459031 M 678.475674,680.988773 l -2.877802,-41.154487 M 678.636590,640.283214 l 2.926433,41.849944 M 684.650372,683.277543 l -2.975064,-42.545401 M 684.714026,641.181070 l 3.023695,43.240857 M 690.825070,685.566312 l -3.072326,-43.936314 M 690.796478,642.150662 l 3.115941,44.560034 M 696.999768,687.855081 l -3.117338,-44.580010 M 696.968382,644.399479 l 3.118735,44.599986 M 703.174465,690.143850 l -3.120132,-44.619962 M 703.140286,646.648297 l 3.121529,44.639938 M 709.349163,692.432620 l -3.122925,-44.659914 M 709.312190,648.897114 l 3.124322,44.679890 M 715.523861,694.721389 l -3.125719,-44.699866 M 715.484094,651.145932 l 3.127116,44.719842 M 721.698559,697.010158 l -3.128513,-44.739818 M 721.655998,653.394749 l 3.129910,44.759794 M 727.873256,699.298927 l -3.131307,-44.779770 M 727.827902,655.643566 l 3.132703,44.799745 M 734.047954,701.587696 l -3.134100,-44.819721 M 733.999806,657.892384 l 3.135497,44.839697 M 740.222652,703.876466 l -3.136894,-44.859673 M 740.171710,660.141201 l 3.138291,44.879649 M 746.397349,706.165235 l -3.139688,-44.899625 M 746.343614,662.390019 l 3.141084,44.919601 M 752.572047,708.454004 l -3.142481,-44.939577 M 752.515518,664.638836 l 3.143878,44.959553 M 758.746745,710.742773 l -3.145275,-44.979529 M 758.687422,666.887653 l 3.146672,44.999505 M 764.921443,713.031542 l -3.148069,-45.019480 M 764.859326,669.136471 l 2.962558,42.366551 M 770.116083,701.304836 l -2.170805,-31.043956 M 771.031230,671.385288 l 1.379052,19.721362 M 774.704481,680.908464 l -0.587299,-8.398767"
       id="path60" />
  </g>
  <g
     inkscape:label="fill-cdcdcd"
     inkscape:groupmode="layer"
     id="fill-cdcdcd">
    <path
       style="stroke:#cdcdcd"
       d="M 302.249800,523.038586 l 0.082743,0.787246 M 305.365941,523.986371 l -0.178769,-1.700872 M 308.124545,521.532413 l 0.274795,2.614498 M 311.432738,524.307450 l -0.370821,-3.528124 M 313.999289,520.026239 l 0.466847,4.441750 M 317.499534,524.628528 l -0.562873,-5.355377 M 319.874034,518.520065 l 0.658899,6.269003 M 323.566331,524.949607 l -0.754925,-7.182629 M 325.748778,517.013891 l 0.850951,8.096255 M 329.633127,525.270685 l -0.946977,-9.009881 M 331.623522,515.507717 l 1.043003,9.923508 M 335.699923,525.591764 l -1.139029,-10.837134 M 337.498267,514.001543 l 1.235055,11.750760 M 341.766720,525.912842 l -1.331081,-12.664386 M 343.373011,512.495369 l 1.427107,13.578012 M 347.833516,526.233921 l -1.523133,-14.491638 M 349.247756,510.989196 l 1.619159,15.405265 M 353.900313,526.555000 l -1.715185,-16.318891 M 355.142753,509.675716 l 1.790958,17.039822 M 359.967109,526.876078 l -1.695078,-16.127593 M 361.401308,511.821254 l 1.599199,15.215363 M 366.033905,527.197157 l -1.503320,-14.303134 M 367.659863,513.966792 l 1.407441,13.390904 M 372.100702,527.518235 l -1.321741,-12.575522 M 373.896692,515.905622 l 1.237408,11.773152 M 378.167498,527.839314 l -1.155087,-10.989916 M 380.106846,517.590659 l 1.094050,10.409193 M 384.234294,528.160392 l -1.033014,-9.828471 M 386.295715,519.073183 l 0.971978,9.247749 M 390.301091,528.481471 l -0.922350,-8.775578 M 392.449675,520.223567 l 0.884814,8.418443 M 396.367887,528.802549 l -0.847278,-8.061308 M 398.591544,521.258916 l 0.809741,7.704173 M 402.434684,529.123628 l -0.772205,-7.347038 M 404.716667,522.134935 l 0.751415,7.149232 M 408.501480,529.444706 l -0.734388,-6.987232 M 410.817517,522.780013 l 0.717361,6.825232 M 414.568276,529.765785 l -0.700334,-6.663232 M 416.918368,523.425091 l 0.683307,6.501233 M 420.635073,530.086863 l -0.666280,-6.339233 M 423.005362,523.938345 l 0.663109,6.309057 M 426.701869,530.407942 l -0.663045,-6.308456 M 429.072285,524.260626 l 0.662982,6.307855 M 432.768666,530.729020 l -0.662919,-6.307254 M 435.139208,524.582907 l 0.662856,6.306652 M 438.835462,531.050099 l -0.662793,-6.306051 M 441.206131,524.905188 l 0.662729,6.305450 M 444.902258,531.371177 l -0.665753,-6.334213 M 447.256170,525.066831 l 0.679487,6.464885 M 450.969055,531.692256 l -0.693221,-6.595557 M 453.295498,525.126566 l 0.706955,6.726229 M 457.035851,532.013334 l -0.720689,-6.856900 M 459.334826,525.186301 l 0.734423,6.987572 M 463.102648,532.334413 l -0.748158,-7.118244 M 465.374154,525.246036 l 0.761892,7.248916 M 469.169444,532.655491 l -0.775626,-7.379587 M 471.413482,525.305771 l 0.789360,7.510259 M 475.236240,532.976570 l -1.887032,-17.953907 M 476.086352,512.364527 l 2.183286,20.772582 M 481.303037,533.297648 l -2.184947,-20.788379 M 482.149828,512.654012 l 2.186607,20.804175 M 487.369833,533.618727 l -2.188267,-20.819972 M 488.213304,512.943498 l 2.189928,20.835768 M 493.436629,533.939805 l -2.191588,-20.851565 M 494.276780,513.232983 l 2.193248,20.867362 M 499.503426,534.260884 l -2.194908,-20.883158 M 500.340255,513.522468 l 2.196569,20.898955 M 505.570222,534.581962 l -2.198229,-20.914752 M 506.403731,513.811953 l 2.199889,20.930548 M 511.637019,534.903041 l -2.201550,-20.946345 M 512.467207,514.101439 l 2.203210,20.962141 M 517.703815,535.224119 l -2.204870,-20.977938 M 518.530683,514.390924 l 2.206530,20.993735 M 523.770611,535.545198 l -2.208191,-21.009531 M 524.594159,514.680409 l 2.209851,21.025328 M 529.837408,535.866276 l -2.211511,-21.041125 M 530.657634,514.969895 l 2.213172,21.056921 M 535.904204,536.187355 l -2.214832,-21.072718 M 536.721110,515.259380 l 2.216492,21.088514 M 541.971001,536.508434 l -2.218152,-21.104311 M 542.784586,515.548865 l 2.219813,21.120108 M 548.037797,536.829512 l -2.221473,-21.135904 M 548.848062,515.838350 l 2.223133,21.151701 M 554.104593,537.150591 l -2.224794,-21.167498 M 554.911538,516.127836 l 2.226454,21.183294 M 560.171390,537.471669 l -2.228114,-21.199091 M 560.975013,516.417321 l 2.229775,21.214887 M 566.238186,537.792748 l -2.231435,-21.230684 M 567.038489,516.706806 l 2.233095,21.246481 M 572.304983,538.113826 l -2.234755,-21.262277 M 573.101965,516.996291 l 2.236416,21.278074 M 578.371779,538.434905 l -2.238076,-21.293871 M 579.165441,517.285777 l 2.239736,21.309667 M 584.438575,538.755983 l -2.241397,-21.325464 M 585.228917,517.575262 l 2.243057,21.341260 M 590.505372,539.077062 l -2.244717,-21.357057 M 591.292392,517.864747 l 2.246377,21.372854 M 596.572168,539.398140 l -2.248038,-21.388650 M 597.355868,518.154233 l 2.249698,21.404447 M 602.638964,539.719219 l -2.251358,-21.420243 M 603.419344,518.443718 l 2.253019,21.436040 M 608.705761,540.040297 l -2.254679,-21.451837 M 609.482820,518.733203 l 2.256339,21.467633 M 614.772557,540.361376 l -2.257999,-21.483430 M 615.546296,519.022688 l 2.259660,21.499227 M 620.839354,540.682454 l -2.261320,-21.515023 M 621.609772,519.312174 l 2.262980,21.530820 M 626.906150,541.003533 l -2.264641,-21.546616 M 627.673247,519.601659 l 2.266301,21.562413 M 632.972946,541.324611 l -2.267961,-21.578210 M 633.736723,519.891144 l 2.269622,21.594006 M 639.039743,541.645690 l -2.271282,-21.609803 M 639.800199,520.180629 l 2.272942,21.625600 M 645.106539,541.966768 l -2.274602,-21.641396 M 645.863675,520.470115 l 2.276263,21.657193 M 651.173336,542.287847 l -2.277923,-21.672989 M 651.927151,520.759600 l 2.279583,21.688786 M 657.240132,542.608925 l -2.281244,-21.704583 M 657.990626,521.049085 l 2.282904,21.720379 M 663.306928,542.930004 l -2.284564,-21.736176 M 664.054102,521.338571 l 2.286224,21.751973 M 669.373725,543.251082 l -2.287885,-21.767769 M 670.117578,521.628056 l 2.289545,21.783566 M 675.440521,543.572161 l -2.291205,-21.799362 M 676.181054,521.917541 l 2.292866,21.815159 M 681.507318,543.893239 l -2.294526,-21.830956 M 682.244530,522.207026 l 2.296186,21.846752 M 687.574114,544.214318 l -2.297846,-21.862549 M 688.308005,522.496512 l 2.299507,21.878346 M 693.640910,544.535396 l -2.301167,-21.894142 M 694.371481,522.785997 l 2.302827,21.909939 M 699.707707,544.856475 l -2.304488,-21.925735 M 700.434957,523.075482 l 2.306148,21.941532 M 705.774503,545.177553 l -2.307808,-21.957329 M 706.498433,523.364967 l 2.309469,21.973125 M 711.841300,545.498632 l -2.311129,-21.988922 M 712.561909,523.654453 l 2.312789,22.004719 M 717.908096,545.819711 l -2.314449,-22.020515 M 718.625384,523.943938 l 2.316110,22.036312 M 723.974892,546.140789 l -2.317770,-22.052108 M 724.688860,524.233423 l 2.319430,22.067905 M 730.041689,546.461868 l -2.321091,-22.083702 M 730.752336,524.522909 l 2.322751,22.099498 M 736.108485,546.782946 l -2.324411,-22.115295 M 736.815812,524.812394 l 2.326071,22.131091 M 742.175281,547.104025 l -2.327732,-22.146888 M 742.879288,525.101879 l 2.329392,22.162685 M 748.242078,547.425103 l -2.331052,-22.178481 M 748.942763,525.391364 l 2.332713,22.194278 M 754.308874,547.746182 l -2.334373,-22.210075 M 755.006239,525.680850 l 2.336033,22.225871 M 760.375671,548.067260 l -2.337693,-22.241668 M 761.069715,525.970335 l 2.339354,22.257464 M 766.442467,548.388339 l -2.341014,-22.273261 M 767.133191,526.259820 l 2.342674,22.289058 M 772.509263,548.709417 l -2.344335,-22.304854 M 773.196667,526.549305 l 2.345995,22.320651 M 778.576060,549.030496 l -2.347655,-22.336448 M 779.260142,526.838791 l 2.349316,22.352244 M 784.642856,549.351574 l -2.350976,-22.368041 M 785.323618,527.128276 l 2.352636,22.383837 M 790.709653,549.672653 l -2.354296,-22.399634 M 791.387094,527.417761 l 2.355957,22.415431 M 796.776449,549.993731 l -2.357617,-22.431227 M 797.450570,527.707247 l 2.359277,22.447024 M 802.843245,550.314810 l -2.360938,-22.462821 M 803.514046,527.996732 l 2.362598,22.478617 M 808.910042,550.635888 l -2.364258,-22.494414 M 809.577521,528.286217 l 2.365918,22.510210 M 814.976838,550.956967 l -2.367579,-22.526007 M 815.640997,528.575702 l 2.369239,22.541804 M 821.043635,551.278045 l -2.370899,-22.557600 M 821.704473,528.865188 l 2.372560,22.573397 M 827.110431,551.599124 l -2.374220,-22.589194 M 827.767949,529.154673 l 2.375880,22.604990 M 833.177227,551.920202 l -2.377540,-22.620787 M 833.831425,529.444158 l 2.379201,22.636583 M 839.244024,552.241281 l -2.380861,-22.652380 M 839.894901,529.733643 l 2.382521,22.668177 M 845.310820,552.562359 l -2.384182,-22.683973 M 845.958376,530.023129 l 2.385842,22.699770 M 851.377616,552.883438 l -2.387502,-22.715567 M 852.021852,530.312614 l 2.389163,22.731363 M 857.444413,553.204516 l -2.390823,-22.747160 M 858.085328,530.602099 l 2.392483,22.762956 M 863.511209,553.525595 l -2.394143,-22.778753 M 864.148804,530.891585 l 2.395804,22.794550 M 869.578006,553.846673 l -2.397464,-22.810346 M 870.212280,531.181070 l 2.399124,22.826143 M 875.644802,554.167752 l -2.400785,-22.841939 M 876.275755,531.470555 l 2.402445,22.857736 M 881.711598,554.488830 l -2.404105,-22.873533 M 882.339231,531.760040 l 2.405765,22.889329 M 887.635501,553.450366 l -2.264532,-21.545583 M 888.402707,532.049526 l 2.116900,20.140962 M 893.403714,550.930609 l -1.969269,-18.736340 M 894.466183,532.339011 l 1.821637,17.331719 M 899.171926,548.410851 l -1.674005,-15.927097 M 900.529659,532.628496 l 1.526374,14.522476 M 904.940139,545.891093 l -1.378742,-13.117854 M 906.593134,532.917981 l 1.231110,11.713233 M 910.708351,543.371335 l -1.083479,-10.308611 M 912.656610,533.207467 l 0.935847,8.903990 M 916.476563,540.851578 l -0.788215,-7.499368 M 918.720086,533.496952 l 0.640584,6.094747 M 922.244776,538.331820 l -0.492952,-4.690125 M 924.783562,533.786437 l 0.345320,3.285504 M 928.012988,535.812062 l -0.197689,-1.880882 M 930.847038,534.075923 l 0.050057,0.476261"
       id="path63" />
  </g>
  <g
     inkscape:label="fill-d4d4d4"
     inkscape:groupmode="layer"
     id="fill-d4d4d4">
    <path
       style="stroke:#d4d4d4"
       d="M 299.368766,536.851971 l 1.853191,17.631938 M 304.257854,554.668215 l -3.249258,-30.914624 M 304.042021,523.914389 l 3.251729,30.938131 M 310.329646,555.036826 l -3.254199,-30.961639 M 310.108872,524.235985 l 3.256670,30.985146 M 316.401438,555.405437 l -3.259141,-31.008654 M 316.175723,524.557582 l 3.261612,31.032161 M 322.473231,555.774049 l -3.264082,-31.055668 M 322.242574,524.879178 l 3.266553,31.079176 M 328.545023,556.142660 l -3.269024,-31.102683 M 328.309425,525.200775 l 3.271494,31.126191 M 334.616815,556.511271 l -3.273965,-31.149698 M 334.376276,525.522371 l 3.276436,31.173206 M 340.688608,556.879883 l -3.278907,-31.196713 M 340.443126,525.843968 l 3.281377,31.220220 M 346.760400,557.248494 l -3.283848,-31.243728 M 346.509977,526.165565 l 3.286319,31.267235 M 352.832192,557.617105 l -3.288790,-31.290743 M 352.576828,526.487161 l 3.291260,31.314250 M 358.903985,557.985717 l -3.293731,-31.337757 M 358.643679,526.808758 l 3.296202,31.361265 M 364.975777,558.354328 l -3.298672,-31.384772 M 364.710530,527.130354 l 3.301143,31.408280 M 371.047569,558.722939 l -3.303614,-31.431787 M 370.777381,527.451951 l 3.306085,31.455294 M 377.119361,559.091551 l -3.308555,-31.478802 M 376.844231,527.773547 l 3.311026,31.502309 M 383.191154,559.460162 l -3.313497,-31.525817 M 382.911082,528.095144 l 3.315968,31.549324 M 389.262946,559.828773 l -3.318438,-31.572832 M 388.977933,528.416740 l 3.320909,31.596339 M 395.334738,560.197385 l -3.323380,-31.619846 M 395.044784,528.738337 l 3.325850,31.643354 M 401.406531,560.565996 l -3.328321,-31.666861 M 401.111635,529.059933 l 3.330792,31.690369 M 407.478323,560.934608 l -3.333263,-31.713876 M 407.178486,529.381530 l 3.335733,31.737383 M 413.550115,561.303219 l -3.338204,-31.760891 M 413.245336,529.703126 l 3.340675,31.784398 M 419.621907,561.671830 l -3.343146,-31.807906 M 419.312187,530.024723 l 3.345616,31.831413 M 425.693700,562.040442 l -3.348087,-31.854920 M 425.379038,530.346319 l 3.350558,31.878428 M 431.765492,562.409053 l -3.353029,-31.901935 M 431.445889,530.667916 l 3.355499,31.925443 M 437.837284,562.777664 l -3.357970,-31.948950 M 437.512740,530.989512 l 3.360441,31.972458 M 443.909077,563.146276 l -3.362911,-31.995965 M 443.579591,531.311109 l 3.365382,32.019472 M 449.980869,563.514887 l -3.367853,-32.042980 M 449.646441,531.632705 l 3.370324,32.066487 M 456.052661,563.883498 l -3.372794,-32.089995 M 455.713292,531.954302 l 3.375265,32.113502 M 462.124453,564.252110 l -3.377736,-32.137009 M 461.780143,532.275899 l 3.380207,32.160517 M 468.196246,564.620721 l -3.382677,-32.184024 M 467.846994,532.597495 l 3.385148,32.207532 M 474.268038,564.989332 l -3.387619,-32.231039 M 473.913845,532.919092 l 3.390089,32.254546 M 480.339830,565.357944 l -3.392560,-32.278054 M 479.980696,533.240688 l 3.395031,32.301561 M 486.411623,565.726555 l -3.397502,-32.325069 M 486.047546,533.562285 l 3.399972,32.348576 M 492.483415,566.095166 l -3.402443,-32.372083 M 492.114397,533.883881 l 3.404914,32.395591 M 498.555207,566.463778 l -3.407385,-32.419098 M 498.181248,534.205478 l 3.409855,32.442606 M 504.627000,566.832389 l -3.412326,-32.466113 M 504.248099,534.527074 l 3.414797,32.489621 M 510.698792,567.201000 l -3.417267,-32.513128 M 510.314950,534.848671 l 3.419738,32.536635 M 516.770584,567.569612 l -3.422209,-32.560143 M 516.381801,535.170267 l 3.424680,32.583650 M 522.842376,567.938223 l -3.427150,-32.607158 M 522.448651,535.491864 l 3.429621,32.630665 M 528.914169,568.306835 l -3.432092,-32.654172 M 528.515502,535.813460 l 3.434563,32.677680 M 534.985961,568.675446 l -3.437033,-32.701187 M 534.582353,536.135057 l 3.439504,32.724695 M 541.057753,569.044057 l -3.441975,-32.748202 M 540.649204,536.456653 l 3.444445,32.771709 M 547.129546,569.412669 l -3.446916,-32.795217 M 546.716055,536.778250 l 3.449387,32.818724 M 553.201338,569.781280 l -3.451858,-32.842232 M 552.782906,537.099846 l 3.454328,32.865739 M 559.273130,570.149891 l -3.456799,-32.889247 M 558.849756,537.421443 l 3.459270,32.912754 M 565.344922,570.518503 l -3.461741,-32.936261 M 564.916607,537.743040 l 3.464211,32.959769 M 571.416715,570.887114 l -3.466682,-32.983276 M 570.983458,538.064636 l 3.469153,33.006784 M 577.488507,571.255725 l -3.471623,-33.030291 M 577.050309,538.386233 l 3.474094,33.053798 M 583.560299,571.624337 l -3.476565,-33.077306 M 583.117160,538.707829 l 3.479036,33.100813 M 589.632092,571.992948 l -3.481506,-33.124321 M 589.184011,539.029426 l 3.483977,33.147828 M 595.703884,572.361559 l -3.486448,-33.171335 M 595.250861,539.351022 l 3.488919,33.194843 M 601.775676,572.730171 l -3.491389,-33.218350 M 601.317712,539.672619 l 3.493860,33.241858 M 607.847468,573.098782 l -3.496331,-33.265365 M 607.384563,539.994215 l 3.498801,33.288873 M 613.919261,573.467393 l -3.501272,-33.312380 M 613.451414,540.315812 l 3.503743,33.335887 M 619.991053,573.836005 l -3.506214,-33.359395 M 619.518265,540.637408 l 3.508684,33.382902 M 626.062845,574.204616 l -3.511155,-33.406410 M 625.585116,540.959005 l 3.513626,33.429917 M 632.134638,574.573227 l -3.516097,-33.453424 M 631.651966,541.280601 l 3.518567,33.476932 M 638.206430,574.941839 l -3.521038,-33.500439 M 637.718817,541.602198 l 3.523509,33.523947 M 644.278222,575.310450 l -3.525980,-33.547454 M 643.785668,541.923794 l 3.528450,33.570961 M 650.350015,575.679062 l -3.530921,-33.594469 M 649.852519,542.245391 l 3.533392,33.617976 M 656.421807,576.047673 l -3.535862,-33.641484 M 655.919370,542.566987 l 3.538333,33.664991 M 662.493599,576.416284 l -3.540804,-33.688499 M 661.986221,542.888584 l 3.543275,33.712006 M 668.565391,576.784896 l -3.545745,-33.735513 M 668.053071,543.210181 l 3.548216,33.759021 M 674.637184,577.153507 l -3.550687,-33.782528 M 674.119922,543.531777 l 3.553158,33.806036 M 680.708976,577.522118 l -3.555628,-33.829543 M 680.186773,543.853374 l 3.558099,33.853050 M 686.780768,577.890730 l -3.560570,-33.876558 M 686.253624,544.174970 l 3.563040,33.900065 M 692.852561,578.259341 l -3.565511,-33.923573 M 692.320475,544.496567 l 3.567982,33.947080 M 698.924353,578.627952 l -3.570453,-33.970587 M 698.387326,544.818163 l 3.572923,33.994095 M 704.996145,578.996564 l -3.575394,-34.017602 M 704.454176,545.139760 l 3.577865,34.041110 M 711.067937,579.365175 l -3.580336,-34.064617 M 710.521027,545.461356 l 3.582806,34.088124 M 717.139730,579.733786 l -3.585277,-34.111632 M 716.587878,545.782953 l 3.587748,34.135139 M 723.211522,580.102398 l -3.590218,-34.158647 M 722.654729,546.104549 l 3.592689,34.182154 M 729.283314,580.471009 l -3.595160,-34.205662 M 728.721580,546.426146 l 3.597631,34.229169 M 735.355107,580.839620 l -3.600101,-34.252676 M 734.788431,546.747742 l 3.602572,34.276184 M 741.426899,581.208232 l -3.605043,-34.299691 M 740.855281,547.069339 l 3.607514,34.323199 M 747.498691,581.576843 l -3.609984,-34.346706 M 746.922132,547.390935 l 3.612455,34.370213 M 753.570483,581.945454 l -3.614926,-34.393721 M 752.988983,547.712532 l 3.617396,34.417228 M 759.642276,582.314066 l -3.619867,-34.440736 M 759.055834,548.034128 l 3.622338,34.464243 M 765.714068,582.682677 l -3.624809,-34.487750 M 765.122685,548.355725 l 3.627279,34.511258 M 771.785860,583.051289 l -3.629750,-34.534765 M 771.189536,548.677322 l 3.632221,34.558273 M 777.857653,583.419900 l -3.634692,-34.581780 M 777.256386,548.998918 l 3.637162,34.605288 M 783.929445,583.788511 l -3.639633,-34.628795 M 783.323237,549.320515 l 3.642104,34.652302 M 790.001237,584.157123 l -3.644574,-34.675810 M 789.390088,549.642111 l 3.647045,34.699317 M 796.073029,584.525734 l -3.649516,-34.722825 M 795.456939,549.963708 l 3.651987,34.746332 M 802.144822,584.894345 l -3.654457,-34.769839 M 801.523790,550.285304 l 3.656928,34.793347 M 808.216614,585.262957 l -3.659399,-34.816854 M 807.590641,550.606901 l 3.661870,34.840362 M 814.288406,585.631568 l -3.664340,-34.863869 M 813.657491,550.928497 l 3.666811,34.887376 M 820.360199,586.000179 l -3.669282,-34.910884 M 819.724342,551.250094 l 3.671752,34.934391 M 826.431991,586.368791 l -3.674223,-34.957899 M 825.791193,551.571690 l 3.676694,34.981406 M 832.503783,586.737402 l -3.679165,-35.004914 M 831.858044,551.893287 l 3.681635,35.028421 M 838.575576,587.106013 l -3.684106,-35.051928 M 837.924895,552.214883 l 3.686577,35.075436 M 844.647368,587.474625 l -3.689048,-35.098943 M 843.991746,552.536480 l 3.691518,35.122451 M 850.719160,587.843236 l -3.693989,-35.145958 M 850.058597,552.858076 l 3.696460,35.169465 M 856.790952,588.211847 l -3.698930,-35.192973 M 856.125447,553.179673 l 3.701401,35.216480 M 862.862745,588.580459 l -3.703872,-35.239988 M 862.192298,553.501269 l 3.706343,35.263495 M 868.934537,588.949070 l -3.708813,-35.287002 M 868.259149,553.822866 l 3.711284,35.310510 M 875.006329,589.317681 l -3.713755,-35.334017 M 874.326000,554.144462 l 3.716226,35.357525 M 881.078122,589.686293 l -3.718696,-35.381032 M 880.392851,554.466059 l 3.721167,35.404539 M 884.871314,568.375477 l -1.445038,-13.748619"
       id="path66" />
  </g>
</svg>
