<?xml version="1.0" encoding="UTF-8" standalone="no"?>
<!-- Created with Inkscape (http://www.inkscape.org/) -->

<svg
   xmlns:dc="http://purl.org/dc/elements/1.1/"
   xmlns:cc="http://creativecommons.org/ns#"
   xmlns:rdf="http://www.w3.org/1999/02/22-rdf-syntax-ns#"
   xmlns:svg="http://www.w3.org/2000/svg"
   xmlns="http://www.w3.org/2000/svg"
   xmlns:sodipodi="http://sodipodi.sourceforge.net/DTD/sodipodi-0.dtd"
   xmlns:inkscape="http://www.inkscape.org/namespaces/inkscape"
   id="svg2"
   version="1.1"
   inkscape:version="0.48.3.1 r9886"
   width="1200"
   height="1106"
   sodipodi:docname="hantologie-_0008_peroquet_hatched_1398277522.svg">
  <defs
     id="defs27" />
  <sodipodi:namedview
     pagecolor="#ffffff"
     bordercolor="#666666"
     borderopacity="1"
     objecttolerance="10"
     gridtolerance="10"
     guidetolerance="10"
     inkscape:pageopacity="0"
     inkscape:pageshadow="2"
     inkscape:window-width="640"
     inkscape:window-height="480"
     id="namedview25" />
  <metadata
     id="metadata8">
    <rdf:RDF>
      <cc:Work
         rdf:about="">
        <dc:format>image/svg+xml </dc:format>
        <dc:type
           rdf:resource="http://purl.org/dc/dcmitype/StillImage" />
        <dc:title />
      </cc:Work>
    </rdf:RDF>
  </metadata>
  <g
     inkscape:label="fill-090909"
     inkscape:groupmode="layer"
     id="fill-090909">
    <path
       style="stroke:#090909"
       d="M 610.785210,398.300633 l 0.000000,1.567953 M 610.785210,410.079908 l 0.000000,-1.259804 M 614.785210,409.711779 l 0.000000,4.771743 M 618.785210,418.251216 l 0.000000,-5.299526 M 622.785210,416.641053 l 0.000000,5.274143 M 626.785210,414.470466 l 0.000000,-5.730763 M 626.785210,420.839544 l 0.000000,4.739630 M 630.785210,417.546672 l 0.000000,-5.736348 M 630.785210,425.111650 l 0.000000,4.131503 M 634.785210,419.882393 l 0.000000,-4.378822 M 634.785210,429.500635 l 0.000000,3.359684 M 638.785210,421.725993 l 0.000000,-2.281566 M 638.785210,433.889620 l 0.000000,2.533627 M 642.785210,439.631356 l 0.000000,-1.164007 M 646.785210,683.001256 l 0.000000,3.865139 M 650.785210,574.059806 l 0.000000,-2.934327 M 654.785210,571.597341 l 0.000000,4.260957 M 674.785210,645.483099 l 0.000000,-7.241273 M 678.785210,625.788870 l 0.000000,2.979944 M 678.785210,649.379742 l 0.000000,-13.780883 M 682.785210,622.993018 l 0.000000,24.048887 M 682.785210,655.669048 l 0.000000,-7.940902 M 686.785210,617.666228 l 0.000000,32.026928 M 686.785210,655.889898 l 0.000000,-3.455404 M 690.785210,615.276580 l 0.000000,35.946689 M 694.785210,654.061505 l 0.000000,-40.138039 M 698.785210,609.193650 l 0.000000,44.760300 M 702.785210,616.169622 l 0.000000,-7.880164 M 702.785210,618.096410 l 0.000000,33.169101 M 706.785210,613.810984 l 0.000000,-6.077932 M 706.785210,620.126782 l 0.000000,28.225865 M 710.785210,612.512513 l 0.000000,-0.067189 M 710.785210,619.981753 l 0.000000,25.444047 M 714.785210,614.198477 l 0.000000,-1.138521 M 714.785210,617.477284 l 0.000000,25.021667 M 718.785210,639.522401 l 0.000000,-24.228647 M 722.785210,621.601744 l 0.000000,14.927015 M 726.785210,615.413493 l 0.000000,-2.261051 M 726.785210,623.264310 l 0.000000,10.270808 M 730.785210,494.018271 l 0.000000,-1.107410 M 730.785210,624.280287 l 0.000000,6.261189 M 734.785210,497.760325 l 0.000000,-4.554035 M 734.785210,623.321140 l 0.000000,4.226695 M 738.785210,501.464241 l 0.000000,-7.643233 M 738.785210,610.371788 l 0.000000,7.286793 M 738.785210,624.852860 l 0.000000,-2.765650 M 742.785210,495.226087 l 0.000000,9.657902 M 742.785210,592.786778 l 0.000000,-10.370779 M 746.785210,500.558636 l 0.000000,0.170471 M 758.785210,592.876349 l 0.000000,-2.168761 M 758.785210,606.370457 l 0.000000,4.376966 M 762.785210,593.818322 l 0.000000,-2.832239 M 762.785210,604.348158 l 0.000000,11.919467 M 766.785210,617.725608 l 0.000000,-11.047680 M 770.785210,606.675555 l 0.000000,0.249731 M 770.785210,616.953303 l 0.000000,-6.631599 M 782.785210,778.842793 l 0.000000,4.549225 M 786.785210,783.504632 l 0.000000,-2.918494 M 790.785210,769.963157 l 0.000000,3.723388 M 794.785210,726.446232 l 0.000000,-14.752163 M 794.785210,768.525171 l 0.000000,2.286417 M 798.785210,725.083880 l 0.000000,-16.347948 M 798.785210,767.963684 l 0.000000,1.551387 M 798.785210,774.975959 l 0.000000,-0.869129 M 802.785210,705.972115 l 0.000000,17.767380 M 802.785210,770.944388 l 0.000000,-3.341125 M 806.785210,703.417382 l 0.000000,18.988180 M 806.785210,765.376202 l 0.000000,-1.901319 M 810.785210,701.294077 l 0.000000,19.821613 M 810.785210,742.200994 l 0.000000,-4.784290 M 814.785210,699.361651 l 0.000000,21.764269 M 818.785210,721.508924 l 0.000000,-23.330507 M 822.785210,697.219021 l 0.000000,23.185725 M 826.785210,719.302038 l 0.000000,-22.802431 M 830.785210,696.261778 l 0.000000,21.939970 M 834.785210,717.398461 l 0.000000,-19.646463 M 838.785210,661.428914 l 0.000000,3.406400 M 838.785210,716.758037 l 0.000000,-16.607076 M 842.785210,662.581832 l 0.000000,4.260782 M 842.785210,715.121720 l 0.000000,-6.131212 M 846.785210,665.313012 l 0.000000,5.054410 M 850.785210,673.717619 l 0.000000,-4.300993 M 850.785210,685.267057 l 0.000000,5.525427 M 854.785210,690.941283 l 0.000000,-8.586950 M 858.785210,682.751128 l 0.000000,9.885661 M 862.785210,693.342175 l 0.000000,-12.360938 M 866.785210,684.147582 l 0.000000,9.634718 M 870.785210,694.664943 l 0.000000,-9.414314 M 874.785210,684.260171 l 0.000000,12.985625 M 878.785210,698.732697 l 0.000000,-15.667288 M 882.785210,635.192149 l 0.000000,3.785134 M 882.785210,689.481310 l 0.000000,-7.363791 M 882.785210,691.776268 l 0.000000,5.825911 M 886.785210,643.210226 l 0.000000,-5.663731 M 886.785210,680.274751 l 0.000000,6.622970 M 890.785210,647.691838 l 0.000000,-7.264706 M 890.785210,654.750094 l 0.000000,2.275378 M 890.785210,686.257607 l 0.000000,-11.206082 M 894.785210,646.892760 l 0.000000,3.828275 M 894.785210,659.938398 l 0.000000,-5.759062 M 894.785210,663.709311 l 0.000000,24.256806 M 898.785210,694.536499 l 0.000000,-35.165875 M 902.785210,677.206249 l 0.000000,7.092599 M 902.785210,726.049093 l 0.000000,-3.170298 M 906.785210,720.330677 l 0.000000,12.049146 M 910.785210,725.164351 l 0.000000,-0.833681"
       id="path5" />
  </g>
  <g
     inkscape:label="fill-323232"
     inkscape:groupmode="layer"
     id="fill-323232">
    <path
       style="stroke:#323232"
       d="M 467.627579,588.191624 l 0.000000,1.368221 M 472.627579,589.084602 l 0.000000,-1.621471 M 477.627579,586.756856 l 0.000000,1.852504 M 482.627579,588.057202 l 0.000000,-2.006621 M 487.627579,585.344306 l 0.000000,2.035000 M 492.627579,586.701410 l 0.000000,-2.063379 M 497.627579,583.907198 l 0.000000,2.077248 M 502.627579,585.116937 l 0.000000,-1.951124 M 507.627579,582.523000 l 0.000000,1.432853 M 607.627579,397.310239 l 0.000000,-4.362873 M 607.627579,401.323750 l 0.000000,2.027585 M 612.627579,404.257197 l 0.000000,-5.672548 M 612.627579,405.459426 l 0.000000,7.314558 M 617.627579,417.841012 l 0.000000,-14.023755 M 622.627579,405.348525 l 0.000000,17.281690 M 627.627579,427.419419 l 0.000000,-21.201225 M 632.627579,411.197694 l 0.000000,8.896302 M 632.627579,432.191637 l 0.000000,-6.569442 M 632.627579,700.391439 l 0.000000,2.049218 M 637.627579,422.157533 l 0.000000,-6.352741 M 637.627579,431.454795 l 0.000000,5.484900 M 642.627579,441.687753 l 0.000000,-4.734918 M 642.627579,568.838251 l 0.000000,1.804849 M 642.627579,574.208703 l 0.000000,-2.337052 M 647.627579,442.450874 l 0.000000,3.984937 M 647.627579,575.965541 l 0.000000,-6.539955 M 647.627579,663.276370 l 0.000000,27.363709 M 652.627579,451.415842 l 0.000000,-3.466929 M 652.627579,552.033818 l 0.000000,2.680647 M 652.627579,577.777241 l 0.000000,-7.612466 M 652.627579,658.390977 l 0.000000,3.411375 M 652.627579,685.472835 l 0.000000,-1.343440 M 657.627579,453.739752 l 0.000000,2.686805 M 657.627579,554.570185 l 0.000000,-3.897037 M 657.627579,571.605386 l 0.000000,9.017696 M 662.627579,461.500977 l 0.000000,-1.967642 M 662.627579,548.317763 l 0.000000,5.390473 M 662.627579,582.978424 l 0.000000,-8.632626 M 662.627579,643.885068 l 0.000000,1.690199 M 667.627579,466.715417 l 0.000000,-1.068430 M 672.627579,629.393414 l 0.000000,18.192332 M 677.627579,652.229991 l 0.000000,-26.914542 M 682.627579,621.314502 l 0.000000,35.654317 M 687.627579,518.926537 l 0.000000,-4.197667 M 687.627579,615.148660 l 0.000000,41.849090 M 692.627579,654.132639 l 0.000000,-44.642788 M 697.627579,607.264584 l 0.000000,48.416618 M 702.627579,652.533284 l 0.000000,-46.104262 M 707.627579,605.662885 l 0.000000,9.393360 M 707.627579,648.905358 l 0.000000,-29.972086 M 712.627579,595.502626 l 0.000000,2.915577 M 712.627579,615.527394 l 0.000000,-4.760129 M 712.627579,616.468635 l 0.000000,28.625053 M 717.627579,484.557822 l 0.000000,-1.517020 M 717.627579,612.056152 l 0.000000,29.225867 M 722.627579,488.959369 l 0.000000,-2.866772 M 722.627579,612.374384 l 0.000000,3.756074 M 722.627579,637.545661 l 0.000000,-18.573107 M 727.627579,489.597375 l 0.000000,3.354012 M 727.627579,633.820959 l 0.000000,-25.038876 M 732.627579,492.124958 l 0.000000,4.930595 M 732.627579,569.110126 l 0.000000,-0.185790 M 732.627579,610.456903 l 0.000000,4.693301 M 732.627579,630.156785 l 0.000000,-8.619985 M 737.627579,492.609431 l 0.000000,8.803151 M 737.627579,583.646287 l 0.000000,-7.209940 M 737.627579,607.168628 l 0.000000,19.564367 M 742.627579,505.648432 l 0.000000,-11.437595 M 742.627579,580.783096 l 0.000000,13.986796 M 742.627579,623.131265 l 0.000000,-9.720139 M 747.627579,498.760031 l 0.000000,4.634588 M 747.627579,569.658826 l 0.000000,-2.684103 M 747.627579,578.484289 l 0.000000,3.496380 M 747.627579,594.869386 l 0.000000,-9.439849 M 747.627579,604.230122 l 0.000000,2.844828 M 752.627579,575.666833 l 0.000000,-4.018835 M 752.627579,581.428163 l 0.000000,11.734009 M 752.627579,610.110408 l 0.000000,-4.343902 M 757.627579,576.434764 l 0.000000,3.858825 M 757.627579,595.712899 l 0.000000,-10.574099 M 757.627579,602.208290 l 0.000000,11.675720 M 762.627579,596.981699 l 0.000000,-7.780457 M 762.627579,598.798098 l 0.000000,18.701379 M 762.627579,776.440657 l 0.000000,-2.049218 M 767.627579,593.643194 l 0.000000,5.274865 M 767.627579,618.419652 l 0.000000,-17.640858 M 772.627579,606.286404 l 0.000000,11.166149 M 772.627579,784.813240 l 0.000000,-11.864832 M 777.627579,773.104947 l 0.000000,9.631272 M 782.627579,785.930471 l 0.000000,-13.398268 M 787.627579,770.726610 l 0.000000,14.439512 M 787.627579,793.649747 l 0.000000,-4.580289 M 792.627579,713.003329 l 0.000000,15.580262 M 792.627579,780.238748 l 0.000000,-12.451148 M 792.627579,784.373634 l 0.000000,2.493057 M 792.627579,795.351757 l 0.000000,-3.545089 M 797.627579,708.928505 l 0.000000,18.727864 M 797.627579,777.469234 l 0.000000,-11.554144 M 797.627579,781.896627 l 0.000000,2.789589 M 797.627579,790.572263 l 0.000000,-3.068201 M 797.627579,793.057517 l 0.000000,3.565805 M 802.627579,726.457162 l 0.000000,-21.169738 M 802.627579,728.732398 l 0.000000,6.166521 M 802.627579,775.555587 l 0.000000,-11.287907 M 802.627579,777.212186 l 0.000000,7.777149 M 802.627579,791.198862 l 0.000000,-4.260531 M 802.627579,793.499106 l 0.000000,5.405912 M 807.627579,627.311770 l 0.000000,-3.674754 M 807.627579,701.956338 l 0.000000,23.447925 M 807.627579,743.827564 l 0.000000,-15.382059 M 807.627579,761.781586 l 0.000000,5.988132 M 807.627579,797.386310 l 0.000000,-19.877862 M 807.627579,799.321561 l 0.000000,6.261253 M 812.627579,639.318678 l 0.000000,-12.777779 M 812.627579,699.068617 l 0.000000,25.172616 M 812.627579,741.529778 l 0.000000,-2.586370 M 812.627579,776.814920 l 0.000000,9.327220 M 812.627579,795.109787 l 0.000000,-6.315137 M 812.627579,800.732278 l 0.000000,4.503966 M 817.627579,630.780785 l 0.000000,-0.921073 M 817.627579,640.965680 l 0.000000,6.535833 M 817.627579,723.012267 l 0.000000,-25.887339 M 817.627579,790.574605 l 0.000000,1.437233 M 817.627579,804.937458 l 0.000000,-4.534479 M 822.627579,636.507254 l 0.000000,14.912738 M 822.627579,721.783302 l 0.000000,-25.914729 M 822.627579,726.407321 l 0.000000,1.691905 M 822.627579,792.942999 l 0.000000,-2.668887 M 822.627579,797.457900 l 0.000000,5.901986 M 827.627579,655.255467 l 0.000000,-12.747465 M 827.627579,694.986539 l 0.000000,25.547826 M 827.627579,731.964110 l 0.000000,-5.822534 M 832.627579,620.399242 l 0.000000,15.149370 M 832.627579,651.822992 l 0.000000,-5.782263 M 832.627579,694.149431 l 0.000000,25.200990 M 832.627579,729.815939 l 0.000000,-3.140145 M 832.627579,773.874307 l 0.000000,4.969249 M 837.627579,637.866401 l 0.000000,-12.986721 M 837.627579,642.294467 l 0.000000,4.760506 M 837.627579,665.049164 l 0.000000,-4.829666 M 837.627579,692.186862 l 0.000000,26.196367 M 837.627579,777.380210 l 0.000000,-4.573183 M 837.627579,790.040224 l 0.000000,3.596095 M 842.627579,640.640374 l 0.000000,-13.270633 M 842.627579,642.780422 l 0.000000,0.982097 M 842.627579,668.472357 l 0.000000,-11.438375 M 842.627579,688.797121 l 0.000000,2.605748 M 842.627579,716.698024 l 0.000000,-16.084483 M 842.627579,772.416169 l 0.000000,2.802969 M 842.627579,791.556450 l 0.000000,-6.543662 M 847.627579,630.047389 l 0.000000,9.945895 M 847.627579,673.332488 l 0.000000,-17.875046 M 847.627579,685.457450 l 0.000000,8.538155 M 847.627579,773.437612 l 0.000000,-0.953309 M 852.627579,633.149770 l 0.000000,3.422030 M 852.627579,655.118771 l 0.000000,-5.326624 M 852.627579,655.311314 l 0.000000,24.557944 M 852.627579,693.488804 l 0.000000,-11.293827 M 857.627579,648.291669 l 0.000000,46.959890 M 857.627579,718.758090 l 0.000000,-1.516180 M 857.627579,770.073887 l 0.000000,5.574853 M 862.627579,665.215470 l 0.000000,-18.055241 M 862.627579,669.195511 l 0.000000,26.477736 M 862.627579,773.333646 l 0.000000,-5.193261 M 862.627579,784.168732 l 0.000000,1.556770 M 867.627579,666.733031 l 0.000000,-15.011365 M 867.627579,667.679949 l 0.000000,28.324290 M 867.627579,728.685207 l 0.000000,-3.309410 M 867.627579,735.976576 l 0.000000,4.886974 M 867.627579,784.630926 l 0.000000,-5.344977 M 872.627579,654.829599 l 0.000000,0.172662 M 872.627579,667.603168 l 0.000000,-9.059697 M 872.627579,676.070708 l 0.000000,21.589925 M 872.627579,735.982397 l 0.000000,-3.193837 M 872.627579,758.282707 l 0.000000,4.613505 M 872.627579,783.859705 l 0.000000,-2.527036 M 877.627579,673.814611 l 0.000000,26.477923 M 877.627579,733.566127 l 0.000000,-1.402084 M 877.627579,755.122380 l 0.000000,9.184052 M 877.627579,775.361202 l 0.000000,-4.247714 M 882.627579,633.775005 l 0.000000,6.358064 M 882.627579,703.950581 l 0.000000,-23.539843 M 882.627579,745.311164 l 0.000000,14.575646 M 882.627579,773.737896 l 0.000000,-10.737017 M 887.627579,637.210633 l 0.000000,8.127901 M 887.627579,710.323805 l 0.000000,-34.394552 M 887.627579,754.594381 l 0.000000,13.211259 M 892.627579,660.090412 l 0.000000,-18.370980 M 892.627579,663.290011 l 0.000000,26.331168 M 892.627579,699.817683 l 0.000000,-9.365725 M 892.627579,704.057803 l 0.000000,7.308028 M 897.627579,699.087800 l 0.000000,-48.780473 M 897.627579,704.004979 l 0.000000,18.903885 M 902.627579,693.544341 l 0.000000,-22.252931 M 902.627579,703.791449 l 0.000000,29.478045 M 907.627579,685.959765 l 0.000000,-8.174189 M 907.627579,715.236827 l 0.000000,31.046686 M 912.627579,752.490698 l 0.000000,-32.807995"
       id="path8" />
  </g>
  <g
     inkscape:label="fill-4f4f4f"
     inkscape:groupmode="layer"
     id="fill-4f4f4f">
    <path
       style="stroke:#4f4f4f"
       d="M 458.555501,588.598362 l 0.000000,2.152312 M 463.555501,590.587033 l 0.000000,-2.697488 M 468.555501,587.180729 l 0.000000,3.002129 M 473.555501,589.778682 l 0.000000,-3.306990 M 478.555501,585.743081 l 0.000000,3.536258 M 483.555501,588.625039 l 0.000000,-3.610569 M 488.555501,584.285859 l 0.000000,3.684879 M 493.555501,587.316437 l 0.000000,-3.759190 M 498.555501,582.828637 l 0.000000,3.696146 M 503.555501,585.620078 l 0.000000,-3.510720 M 508.555501,581.396017 l 0.000000,3.319355 M 513.555501,583.806809 l 0.000000,-3.124132 M 518.555501,579.969337 l 0.000000,2.585160 M 523.555501,581.302184 l 0.000000,-1.847642 M 598.555501,385.817447 l 0.000000,2.952826 M 603.555501,394.429909 l 0.000000,-5.739111 M 608.555501,392.566167 l 0.000000,13.914817 M 608.555501,410.666985 l 0.000000,-3.065845 M 613.555501,398.834326 l 0.000000,16.329088 M 618.555501,419.590841 l 0.000000,-16.019751 M 623.555501,403.950471 l 0.000000,20.293381 M 628.555501,429.041682 l 0.000000,-23.879011 M 628.555501,571.839474 l 0.000000,1.137621 M 633.555501,422.158417 l 0.000000,-12.508831 M 633.555501,425.715047 l 0.000000,8.190700 M 633.555501,574.272867 l 0.000000,-4.281267 M 633.555501,696.689019 l 0.000000,6.817158 M 633.555501,743.863040 l 0.000000,-1.757855 M 638.555501,414.699672 l 0.000000,8.841931 M 638.555501,438.769813 l 0.000000,-7.082961 M 638.555501,567.533652 l 0.000000,7.851711 M 643.555501,443.633879 l 0.000000,-6.414144 M 643.555501,567.236589 l 0.000000,9.712145 M 643.555501,661.466285 l 0.000000,-4.298607 M 643.555501,681.510687 l 0.000000,10.412761 M 648.555501,448.651027 l 0.000000,-5.898410 M 648.555501,552.303653 l 0.000000,4.554718 M 648.555501,579.642553 l 0.000000,-11.583161 M 648.555501,660.646867 l 0.000000,30.480621 M 648.555501,705.828924 l 0.000000,-4.919504 M 653.555501,448.254448 l 0.000000,5.457841 M 653.555501,559.574285 l 0.000000,-8.828751 M 653.555501,569.327711 l 0.000000,11.460366 M 653.555501,662.167369 l 0.000000,-5.689735 M 653.555501,683.575632 l 0.000000,1.927573 M 658.555501,458.773551 l 0.000000,-5.031606 M 658.555501,548.771042 l 0.000000,11.081557 M 658.555501,562.738319 l 0.000000,-1.408013 M 658.555501,570.705511 l 0.000000,18.384162 M 663.555501,463.834813 l 0.000000,-4.258543 M 663.555501,547.069244 l 0.000000,9.122276 M 663.555501,588.155433 l 0.000000,-16.072122 M 663.555501,638.310149 l 0.000000,9.022497 M 663.555501,722.702626 l 0.000000,-2.589381 M 668.555501,465.454056 l 0.000000,3.686333 M 668.555501,482.774709 l 0.000000,-4.260747 M 668.555501,548.990567 l 0.000000,4.392522 M 668.555501,586.703737 l 0.000000,-13.095116 M 668.555501,631.549902 l 0.000000,11.839052 M 668.555501,650.181257 l 0.000000,-4.941327 M 673.555501,471.364166 l 0.000000,3.144031 M 673.555501,493.172360 l 0.000000,-8.779039 M 673.555501,575.944003 l 0.000000,8.813991 M 673.555501,652.377583 l 0.000000,-25.395562 M 678.555501,477.274275 l 0.000000,2.601728 M 678.555501,503.849556 l 0.000000,-9.195930 M 678.555501,574.828105 l 0.000000,5.634598 M 678.555501,656.014577 l 0.000000,-32.628403 M 678.555501,669.407708 l 0.000000,1.249572 M 683.555501,485.281657 l 0.000000,-2.052625 M 683.555501,505.482648 l 0.000000,12.460827 M 683.555501,577.855375 l 0.000000,-2.975110 M 683.555501,615.805934 l 0.000000,41.685741 M 683.555501,666.489390 l 0.000000,-1.243203 M 688.555501,513.736879 l 0.000000,9.327425 M 688.555501,657.269480 l 0.000000,-44.849143 M 693.555501,494.878109 l 0.000000,1.737811 M 693.555501,656.880571 l 0.000000,-50.380075 M 698.555501,605.301124 l 0.000000,50.036053 M 703.555501,507.824888 l 0.000000,-0.516948 M 703.555501,524.178788 l 0.000000,3.877945 M 703.555501,652.140811 l 0.000000,-47.150398 M 708.555501,594.455896 l 0.000000,3.828859 M 708.555501,616.101713 l 0.000000,-11.372921 M 708.555501,617.971948 l 0.000000,30.558113 M 713.555501,508.720160 l 0.000000,-1.312502 M 713.555501,535.281434 l 0.000000,3.160060 M 713.555501,600.062325 l 0.000000,-5.429558 M 713.555501,609.203913 l 0.000000,35.543542 M 718.555501,486.169040 l 0.000000,-3.801834 M 718.555501,513.830478 l 0.000000,0.019372 M 718.555501,603.560656 l 0.000000,-5.586485 M 718.555501,610.573324 l 0.000000,30.441286 M 723.555501,490.329444 l 0.000000,-4.367715 M 723.555501,547.692708 l 0.000000,0.979691 M 723.555501,637.365267 l 0.000000,-38.106829 M 728.555501,489.731213 l 0.000000,4.653588 M 728.555501,558.302425 l 0.000000,-4.176498 M 728.555501,564.827511 l 0.000000,4.715255 M 728.555501,633.715923 l 0.000000,-33.612749 M 733.555501,491.864363 l 0.000000,6.876905 M 733.555501,577.459093 l 0.000000,-16.761833 M 733.555501,606.429716 l 0.000000,23.743768 M 738.555501,503.114353 l 0.000000,-10.751740 M 738.555501,555.908909 l 0.000000,3.144182 M 738.555501,571.940073 l 0.000000,-5.149807 M 738.555501,573.642236 l 0.000000,26.469134 M 738.555501,626.892144 l 0.000000,-22.700422 M 743.555501,494.609083 l 0.000000,12.567720 M 743.555501,567.624348 l 0.000000,-6.796436 M 743.555501,570.517921 l 0.000000,53.658293 M 743.555501,759.034988 l 0.000000,-2.753239 M 748.555501,499.167691 l 0.000000,4.435730 M 748.555501,597.326148 l 0.000000,-32.029849 M 748.555501,602.044756 l 0.000000,11.180026 M 748.555501,756.258476 l 0.000000,-1.033185 M 753.555501,568.813509 l 0.000000,28.884182 M 753.555501,619.376204 l 0.000000,-18.055803 M 758.555501,513.081105 l 0.000000,2.965995 M 758.555501,619.442471 l 0.000000,-50.063457 M 763.555501,570.918976 l 0.000000,4.683634 M 763.555501,619.027680 l 0.000000,-31.083773 M 763.555501,773.004144 l 0.000000,5.975305 M 768.555501,569.150494 l 0.000000,-1.789529 M 768.555501,590.847952 l 0.000000,27.602056 M 768.555501,785.400276 l 0.000000,-10.826304 M 773.555501,593.774991 l 0.000000,23.827423 M 773.555501,788.592421 l 0.000000,-19.055995 M 773.555501,790.653426 l 0.000000,3.186743 M 778.555501,609.163426 l 0.000000,-11.420852 M 778.555501,771.060329 l 0.000000,20.194740 M 783.555501,606.462357 l 0.000000,-3.824389 M 783.555501,609.576559 l 0.000000,2.204170 M 783.555501,761.346936 l 0.000000,-2.798926 M 783.555501,770.666508 l 0.000000,18.156929 M 783.555501,800.896815 l 0.000000,-3.399252 M 788.555501,605.241353 l 0.000000,1.755324 M 788.555501,722.217090 l 0.000000,-6.623788 M 788.555501,728.623057 l 0.000000,5.590876 M 788.555501,801.422794 l 0.000000,-32.494820 M 793.555501,711.428460 l 0.000000,25.553892 M 793.555501,803.575349 l 0.000000,-37.625452 M 798.555501,707.592136 l 0.000000,26.648268 M 798.555501,802.560727 l 0.000000,-43.281196 M 803.555501,704.061816 l 0.000000,34.781581 M 803.555501,804.438651 l 0.000000,-43.731603 M 808.555501,621.044333 l 0.000000,10.617288 M 808.555501,745.138888 l 0.000000,-44.442750 M 808.555501,753.371404 l 0.000000,54.217089 M 813.555501,643.060098 l 0.000000,-20.166262 M 813.555501,697.509163 l 0.000000,35.201036 M 813.555501,747.534427 l 0.000000,-5.436859 M 813.555501,757.607676 l 0.000000,6.651065 M 813.555501,806.954867 l 0.000000,-32.651224 M 818.555501,624.324666 l 0.000000,25.089202 M 818.555501,727.138368 l 0.000000,-32.564875 M 818.555501,769.609559 l 0.000000,8.586233 M 818.555501,785.425065 l 0.000000,-5.846139 M 818.555501,788.567526 l 0.000000,17.549636 M 823.555501,653.249115 l 0.000000,-40.002999 M 823.555501,692.901158 l 0.000000,40.082484 M 823.555501,766.661510 l 0.000000,-2.448841 M 823.555501,778.267578 l 0.000000,26.779546 M 828.555501,655.919860 l 0.000000,-48.541499 M 828.555501,692.461495 l 0.000000,29.575239 M 828.555501,732.791941 l 0.000000,-8.235384 M 828.555501,754.151291 l 0.000000,2.373213 M 828.555501,771.910755 l 0.000000,-7.818870 M 828.555501,772.981205 l 0.000000,20.422165 M 828.555501,802.090282 l 0.000000,-5.404895 M 833.555501,614.277623 l 0.000000,37.999050 M 833.555501,665.258653 l 0.000000,-1.795901 M 833.555501,691.676562 l 0.000000,28.733854 M 833.555501,729.909576 l 0.000000,-4.692812 M 833.555501,764.121310 l 0.000000,15.934877 M 833.555501,800.213837 l 0.000000,-17.665848 M 838.555501,618.510755 l 0.000000,30.076120 M 838.555501,666.929418 l 0.000000,-8.016374 M 838.555501,689.227515 l 0.000000,30.236525 M 838.555501,778.615555 l 0.000000,-10.572499 M 838.555501,780.916304 l 0.000000,17.828898 M 843.555501,644.785467 l 0.000000,-22.607182 M 843.555501,654.937792 l 0.000000,15.880536 M 843.555501,718.380234 l 0.000000,-32.312877 M 843.555501,760.681640 l 0.000000,16.390675 M 843.555501,794.046357 l 0.000000,-14.084198 M 843.555501,794.503272 l 0.000000,3.170271 M 848.555501,640.984059 l 0.000000,-15.350549 M 848.555501,651.074171 l 0.000000,27.778759 M 848.555501,716.434323 l 0.000000,-34.100390 M 848.555501,757.052754 l 0.000000,6.034845 M 848.555501,775.182998 l 0.000000,-6.257805 M 848.555501,778.508036 l 0.000000,17.087384 M 853.555501,637.124749 l 0.000000,-7.934314 M 853.555501,647.344538 l 0.000000,59.117066 M 853.555501,721.000000 l 0.000000,-3.093267 M 853.555501,766.079266 l 0.000000,25.694445 M 858.555501,700.530026 l 0.000000,-56.644815 M 858.555501,714.918011 l 0.000000,5.788520 M 858.555501,732.049523 l 0.000000,-3.061028 M 858.555501,738.680923 l 0.000000,2.000620 M 858.555501,780.189710 l 0.000000,-14.677529 M 858.555501,783.102511 l 0.000000,6.969748 M 863.555501,697.609135 l 0.000000,-56.901895 M 863.555501,722.099729 l 0.000000,8.461875 M 863.555501,741.234837 l 0.000000,-4.106796 M 863.555501,764.572394 l 0.000000,14.128202 M 863.555501,788.429250 l 0.000000,-7.709365 M 863.555501,791.419786 l 0.000000,3.509969 M 868.555501,698.735490 l 0.000000,-54.771682 M 868.555501,720.566466 l 0.000000,8.637152 M 868.555501,743.603640 l 0.000000,-10.245652 M 868.555501,758.286114 l 0.000000,28.086614 M 868.555501,793.965545 l 0.000000,-3.135282 M 873.555501,649.473982 l 0.000000,50.302106 M 873.555501,739.819180 l 0.000000,-8.551754 M 873.555501,741.179220 l 0.000000,1.418371 M 873.555501,766.612932 l 0.000000,-11.665094 M 873.555501,771.427431 l 0.000000,6.789809 M 873.555501,788.858285 l 0.000000,-9.285041 M 878.555501,630.917178 l 0.000000,4.358921 M 878.555501,703.138776 l 0.000000,-53.167246 M 878.555501,729.885045 l 0.000000,10.023845 M 878.555501,778.543658 l 0.000000,-28.697497 M 878.555501,779.495187 l 0.000000,7.514523 M 883.555501,642.296444 l 0.000000,-8.658467 M 883.555501,645.402337 l 0.000000,12.019351 M 883.555501,710.024593 l 0.000000,-48.434392 M 883.555501,742.500040 l 0.000000,38.790562 M 888.555501,657.921880 l 0.000000,-20.777304 M 888.555501,667.434168 l 0.000000,47.878602 M 888.555501,770.612276 l 0.000000,-18.241336 M 893.555501,642.044624 l 0.000000,72.245465 M 893.555501,727.385832 l 0.000000,-9.769271 M 898.555501,649.845053 l 0.000000,80.096799 M 903.555501,738.781138 l 0.000000,-71.002045 M 908.555501,671.378642 l 0.000000,17.367913 M 908.555501,765.048828 l 0.000000,-62.333523 M 913.555501,683.344824 l 0.000000,3.859201 M 913.555501,757.109667 l 0.000000,-46.921221 M 918.555501,720.263354 l 0.000000,25.741649"
       id="path11" />
  </g>
  <g
     inkscape:label="fill-6f6f6f"
     inkscape:groupmode="layer"
     id="fill-6f6f6f">
    <path
       style="stroke:#6f6f6f"
       d="M 438.774390,589.758161 l 0.000000,1.588981 M 444.774390,591.495598 l 0.000000,-2.422376 M 450.774390,588.388284 l 0.000000,3.122958 M 456.774390,591.450284 l 0.000000,-3.778439 M 462.774390,586.918781 l 0.000000,4.367654 M 468.774390,590.966835 l 0.000000,-4.801118 M 474.774390,585.412653 l 0.000000,4.860870 M 480.774390,589.406846 l 0.000000,-4.808400 M 486.774390,583.682820 l 0.000000,5.038587 M 492.774390,587.929064 l 0.000000,-5.161870 M 498.774390,581.851568 l 0.000000,5.255169 M 504.774390,586.197909 l 0.000000,-5.261966 M 510.774390,580.107516 l 0.000000,5.025688 M 516.774390,584.068499 l 0.000000,-4.751986 M 522.774390,578.779392 l 0.000000,4.101853 M 528.774390,581.598527 l 0.000000,-3.262762 M 534.774390,578.136483 l 0.000000,2.084500 M 558.774390,572.090167 l 0.000000,-0.867288 M 576.774390,566.454113 l 0.000000,4.264487 M 582.774390,570.773603 l 0.000000,-5.473454 M 588.774390,564.335826 l 0.000000,6.250440 M 594.774390,387.207038 l 0.000000,-5.445915 M 594.774390,564.196743 l 0.000000,5.108142 M 600.774390,393.792536 l 0.000000,-8.065471 M 606.774390,390.648098 l 0.000000,13.695499 M 606.774390,409.548492 l 0.000000,-2.798589 M 606.774390,561.888362 l 0.000000,8.623525 M 612.774390,415.128670 l 0.000000,-17.849674 M 612.774390,559.502766 l 0.000000,12.539703 M 618.774390,420.715094 l 0.000000,-17.779164 M 618.774390,557.879122 l 0.000000,4.779255 M 618.774390,575.942838 l 0.000000,-4.418644 M 624.774390,398.847360 l 0.000000,27.639371 M 624.774390,567.059524 l 0.000000,-10.425303 M 624.774390,570.483022 l 0.000000,6.467576 M 630.774390,432.369042 l 0.000000,-30.684418 M 630.774390,555.424349 l 0.000000,7.216374 M 630.774390,577.000000 l 0.000000,-8.072725 M 630.774390,698.610964 l 0.000000,10.128724 M 630.774390,732.126702 l 0.000000,-13.400385 M 630.774390,738.581429 l 0.000000,4.617936 M 636.774390,425.325760 l 0.000000,-14.930006 M 636.774390,428.031474 l 0.000000,10.219878 M 636.774390,444.184579 l 0.000000,-3.125809 M 636.774390,554.102078 l 0.000000,8.361871 M 636.774390,577.000000 l 0.000000,-9.674373 M 636.774390,689.343401 l 0.000000,10.462270 M 642.774390,424.271730 l 0.000000,-0.256387 M 642.774390,435.251531 l 0.000000,8.882131 M 642.774390,453.616551 l 0.000000,-5.417411 M 642.774390,552.653259 l 0.000000,8.881622 M 642.774390,578.953169 l 0.000000,-13.301854 M 642.774390,656.879060 l 0.000000,3.515772 M 642.774390,692.949996 l 0.000000,-12.041693 M 648.774390,441.912831 l 0.000000,8.103141 M 648.774390,462.278503 l 0.000000,-7.000084 M 648.774390,550.986005 l 0.000000,32.015859 M 648.774390,637.623754 l 0.000000,-2.439861 M 648.774390,658.626860 l 0.000000,33.731353 M 648.774390,707.119748 l 0.000000,-9.772303 M 654.774390,448.617204 l 0.000000,7.393690 M 654.774390,470.827761 l 0.000000,-7.900743 M 654.774390,549.106925 l 0.000000,39.748218 M 654.774390,661.382425 l 0.000000,-6.003175 M 654.774390,689.707036 l 0.000000,4.872757 M 660.774390,462.192932 l 0.000000,-6.564241 M 660.774390,470.099599 l 0.000000,10.186342 M 660.774390,594.231153 l 0.000000,-47.125802 M 660.774390,639.727565 l 0.000000,11.697783 M 660.774390,701.400426 l 0.000000,-2.942458 M 660.774390,715.358756 l 0.000000,5.542976 M 666.774390,468.374970 l 0.000000,-5.737832 M 666.774390,474.853002 l 0.000000,16.181839 M 666.774390,593.619165 l 0.000000,-46.757348 M 666.774390,631.700669 l 0.000000,22.655249 M 672.774390,474.834480 l 0.000000,-5.191004 M 672.774390,482.176913 l 0.000000,20.014652 M 672.774390,563.560717 l 0.000000,-2.857249 M 672.774390,571.956884 l 0.000000,17.420535 M 672.774390,653.082994 l 0.000000,-26.950277 M 672.774390,672.978297 l 0.000000,2.690687 M 678.774390,481.392600 l 0.000000,-4.742784 M 678.774390,491.555498 l 0.000000,21.290178 M 678.774390,585.262029 l 0.000000,-12.926447 M 678.774390,618.211367 l 0.000000,0.831751 M 678.774390,656.753063 l 0.000000,-35.902677 M 678.774390,668.052964 l 0.000000,3.377751 M 684.774390,487.967671 l 0.000000,-4.379888 M 684.774390,504.554093 l 0.000000,19.035930 M 684.774390,529.976216 l 0.000000,-5.586097 M 684.774390,572.218680 l 0.000000,9.173513 M 684.774390,658.651666 l 0.000000,-44.887014 M 684.774390,664.245041 l 0.000000,2.013611 M 690.774390,494.642722 l 0.000000,-4.126415 M 690.774390,516.259183 l 0.000000,15.784099 M 690.774390,581.113371 l 0.000000,-6.178453 M 690.774390,606.185739 l 0.000000,51.465659 M 696.774390,489.698763 l 0.000000,-1.164810 M 696.774390,497.413111 l 0.000000,3.904663 M 696.774390,534.237898 l 0.000000,-11.269141 M 696.774390,603.477871 l 0.000000,53.126419 M 702.774390,482.442890 l 0.000000,-2.078086 M 702.774390,494.352555 l 0.000000,2.973846 M 702.774390,507.797779 l 0.000000,-3.834861 M 702.774390,522.550589 l 0.000000,9.999154 M 702.774390,653.204440 l 0.000000,-49.611034 M 708.774390,500.755021 l 0.000000,4.103675 M 708.774390,514.210424 l 0.000000,-4.348763 M 708.774390,524.089658 l 0.000000,8.676662 M 708.774390,541.892228 l 0.000000,-7.264807 M 708.774390,593.355622 l 0.000000,6.915559 M 708.774390,648.825930 l 0.000000,-45.765245 M 714.774390,480.014456 l 0.000000,3.216592 M 714.774390,511.839706 l 0.000000,-4.474166 M 714.774390,515.528114 l 0.000000,4.803376 M 714.774390,546.416061 l 0.000000,-17.629511 M 714.774390,593.579416 l 0.000000,50.868005 M 720.774390,488.685179 l 0.000000,-6.025802 M 720.774390,514.389364 l 0.000000,2.832576 M 720.774390,526.138010 l 0.000000,-3.905014 M 720.774390,540.340235 l 0.000000,13.625182 M 720.774390,640.049242 l 0.000000,-45.265052 M 726.774390,487.514197 l 0.000000,6.075958 M 726.774390,537.753982 l 0.000000,-1.159971 M 726.774390,547.348880 l 0.000000,12.688932 M 726.774390,568.979330 l 0.000000,-6.157039 M 726.774390,595.214410 l 0.000000,40.410693 M 732.774390,498.529473 l 0.000000,-7.491096 M 732.774390,547.128821 l 0.000000,31.807950 M 732.774390,631.298709 l 0.000000,-38.264045 M 738.774390,492.231030 l 0.000000,11.803448 M 738.774390,627.496282 l 0.000000,-74.302947 M 738.774390,757.226061 l 0.000000,3.950828 M 744.774390,508.753890 l 0.000000,-13.982791 M 744.774390,553.314144 l 0.000000,71.119260 M 744.774390,759.467632 l 0.000000,-4.669282 M 750.774390,500.371332 l 0.000000,0.907962 M 750.774390,622.498486 l 0.000000,-65.096098 M 750.774390,754.087201 l 0.000000,2.482235 M 756.774390,516.158349 l 0.000000,-6.384851 M 756.774390,558.045690 l 0.000000,63.176561 M 762.774390,519.474537 l 0.000000,-3.778891 M 762.774390,544.706336 l 0.000000,6.225847 M 762.774390,620.142489 l 0.000000,-60.488769 M 762.774390,771.939879 l 0.000000,15.517095 M 768.774390,525.792474 l 0.000000,-2.367342 M 768.774390,555.105686 l 0.000000,2.115365 M 768.774390,572.329845 l 0.000000,-9.639159 M 768.774390,574.266961 l 0.000000,7.358494 M 768.774390,618.953814 l 0.000000,-33.178585 M 768.774390,769.209079 l 0.000000,21.982276 M 774.774390,616.899020 l 0.000000,-39.249823 M 774.774390,742.214409 l 0.000000,4.522706 M 774.774390,796.076438 l 0.000000,-31.048482 M 780.774390,582.605176 l 0.000000,31.470899 M 780.774390,742.252533 l 0.000000,-5.246690 M 780.774390,759.419154 l 0.000000,5.926940 M 780.774390,789.133657 l 0.000000,-20.601627 M 780.774390,792.820704 l 0.000000,8.364736 M 786.774390,549.254132 l 0.000000,-2.562629 M 786.774390,591.393178 l 0.000000,22.828637 M 786.774390,740.878764 l 0.000000,-24.559456 M 786.774390,754.607169 l 0.000000,6.497595 M 786.774390,802.657333 l 0.000000,-33.793547 M 792.774390,583.408703 l 0.000000,3.061560 M 792.774390,612.952981 l 0.000000,-16.176128 M 792.774390,711.449303 l 0.000000,28.465639 M 792.774390,762.953882 l 0.000000,-3.242669 M 792.774390,764.776393 l 0.000000,39.394038 M 798.774390,594.133502 l 0.000000,-6.069248 M 798.774390,600.869403 l 0.000000,10.488920 M 798.774390,736.097841 l 0.000000,-29.024256 M 798.774390,754.882592 l 0.000000,50.935928 M 804.774390,600.914388 l 0.000000,-8.879143 M 804.774390,601.685617 l 0.000000,8.328610 M 804.774390,622.728881 l 0.000000,-9.821304 M 804.774390,702.843352 l 0.000000,45.967237 M 804.774390,808.000002 l 0.000000,-55.083749 M 810.774390,595.608826 l 0.000000,42.396326 M 810.774390,749.707731 l 0.000000,-50.847806 M 810.774390,752.182150 l 0.000000,56.939837 M 816.774390,649.131294 l 0.000000,-55.781299 M 816.774390,694.896568 l 0.000000,42.867345 M 816.774390,747.696130 l 0.000000,-4.130806 M 816.774390,756.611123 l 0.000000,51.009349 M 822.774390,586.424433 l 0.000000,-3.979993 M 822.774390,593.676935 l 0.000000,66.743882 M 822.774390,734.055915 l 0.000000,-43.122703 M 822.774390,759.921295 l 0.000000,46.035488 M 828.774390,656.503467 l 0.000000,-57.238363 M 828.774390,666.971400 l 0.000000,7.097934 M 828.774390,733.902044 l 0.000000,-46.948047 M 828.774390,752.913237 l 0.000000,51.014200 M 834.774390,652.148887 l 0.000000,-44.252159 M 834.774390,661.279141 l 0.000000,13.473288 M 834.774390,721.832947 l 0.000000,-37.953079 M 834.774390,723.508856 l 0.000000,6.752886 M 834.774390,755.032741 l 0.000000,-4.494045 M 834.774390,761.913901 l 0.000000,39.760591 M 840.774390,647.630437 l 0.000000,-34.300931 M 840.774390,656.333234 l 0.000000,24.202032 M 840.774390,722.218979 l 0.000000,-37.780948 M 840.774390,759.162735 l 0.000000,40.320406 M 846.774390,592.148978 l 0.000000,-1.838448 M 846.774390,617.446863 l 0.000000,25.563625 M 846.774390,726.997723 l 0.000000,-75.314907 M 846.774390,755.927477 l 0.000000,41.777728 M 852.774390,598.361672 l 0.000000,-4.521195 M 852.774390,616.439489 l 0.000000,21.843954 M 852.774390,723.227129 l 0.000000,-75.919920 M 852.774390,733.872002 l 0.000000,5.919430 M 852.774390,762.052379 l 0.000000,-8.446392 M 852.774390,764.732578 l 0.000000,30.892947 M 858.774390,602.811295 l 0.000000,-4.758783 M 858.774390,625.150285 l 0.000000,8.089903 M 858.774390,733.346151 l 0.000000,-90.414550 M 858.774390,736.584860 l 0.000000,6.259883 M 858.774390,796.026165 l 0.000000,-39.244394 M 864.774390,600.699863 l 0.000000,7.455606 M 864.774390,708.909088 l 0.000000,-69.738669 M 864.774390,710.774390 l 0.000000,21.152357 M 864.774390,745.110441 l 0.000000,-10.162143 M 864.774390,759.793243 l 0.000000,36.221808 M 870.774390,613.440494 l 0.000000,-7.225265 M 870.774390,636.968067 l 0.000000,69.278182 M 870.774390,745.276520 l 0.000000,-27.490816 M 870.774390,749.997961 l 0.000000,44.598386 M 876.774390,633.685256 l 0.000000,-3.544708 M 876.774390,640.833744 l 0.000000,68.291520 M 876.774390,725.641001 l 0.000000,-3.979149 M 876.774390,728.882416 l 0.000000,63.512319 M 882.774390,713.645619 l 0.000000,-81.281484 M 882.774390,727.213222 l 0.000000,62.567084 M 888.774390,719.507123 l 0.000000,-82.853383 M 888.774390,748.108975 l 0.000000,30.431939 M 894.774390,729.560369 l 0.000000,-87.171363 M 900.774390,654.228580 l 0.000000,81.897468 M 906.774390,769.038402 l 0.000000,-102.056432 M 912.774390,670.761914 l 0.000000,24.247409 M 912.774390,760.197830 l 0.000000,-59.117660 M 918.774390,712.518041 l 0.000000,36.628222"
       id="path14" />
  </g>
  <g
     inkscape:label="fill-8f8f8f"
     inkscape:groupmode="layer"
     id="fill-8f8f8f">
    <path
       style="stroke:#8f8f8f"
       d="M 392.793680,592.068837 l 0.000000,1.583121 M 406.793680,594.862145 l 0.000000,-2.891043 M 413.793680,590.618789 l 0.000000,3.740507 M 420.793680,593.870969 l 0.000000,-4.044269 M 427.793680,589.084030 l 0.000000,4.362664 M 434.793680,593.055782 l 0.000000,-4.578891 M 441.793680,587.869752 l 0.000000,4.933861 M 448.793680,592.551445 l 0.000000,-5.336024 M 455.793680,586.488495 l 0.000000,5.778918 M 462.793680,591.976118 l 0.000000,-6.214549 M 469.793680,584.891135 l 0.000000,6.500341 M 476.793680,590.521528 l 0.000000,-6.549951 M 483.793680,583.052018 l 0.000000,6.603109 M 490.793680,588.911776 l 0.000000,-6.820274 M 497.793680,581.126129 l 0.000000,6.869371 M 504.793680,586.976019 l 0.000000,-6.815263 M 511.793680,579.195382 l 0.000000,6.636310 M 518.793680,584.687270 l 0.000000,-6.450842 M 525.793680,577.586528 l 0.000000,5.815776 M 532.793680,582.117338 l 0.000000,-4.945858 M 539.793680,577.133572 l 0.000000,3.514697 M 539.793680,585.802926 l 0.000000,-0.405377 M 546.793680,578.444981 l 0.000000,0.091482 M 546.793680,585.162680 l 0.000000,-1.447802 M 553.793680,569.320104 l 0.000000,4.971963 M 553.793680,583.794086 l 0.000000,-1.742939 M 560.793680,568.261189 l 0.000000,7.721287 M 560.793680,582.140926 l 0.000000,-1.974394 M 567.793680,561.433951 l 0.000000,1.120656 M 567.793680,575.997941 l 0.000000,-8.968519 M 574.793680,565.505885 l 0.000000,9.841079 M 581.793680,561.319147 l 0.000000,-2.255241 M 581.793680,564.008778 l 0.000000,13.815021 M 588.793680,379.607782 l 0.000000,-1.485044 M 588.793680,557.402335 l 0.000000,3.375874 M 588.793680,574.442178 l 0.000000,-11.696200 M 595.793680,381.237911 l 0.000000,8.698839 M 595.793680,557.497972 l 0.000000,-0.355120 M 595.793680,561.622636 l 0.000000,11.683314 M 602.793680,398.909635 l 0.000000,-12.268606 M 602.793680,404.267669 l 0.000000,2.653936 M 602.793680,573.165575 l 0.000000,-12.766906 M 609.793680,393.253786 l 0.000000,19.777836 M 609.793680,577.607637 l 0.000000,-18.736650 M 616.793680,400.730138 l 0.000000,18.705848 M 616.793680,580.168538 l 0.000000,-22.832314 M 623.793680,391.366843 l 0.000000,36.205910 M 623.793680,580.015465 l 0.000000,-24.208746 M 630.793680,399.688351 l 0.000000,38.610442 M 630.793680,579.406210 l 0.000000,-25.079153 M 630.793680,697.416342 l 0.000000,46.421146 M 637.793680,449.816708 l 0.000000,-39.750955 M 637.793680,552.629647 l 0.000000,27.058503 M 637.793680,699.162758 l 0.000000,-13.007105 M 637.793680,744.495878 l 0.000000,2.381049 M 644.793680,446.447268 l 0.000000,-10.094674 M 644.793680,448.704500 l 0.000000,11.139573 M 644.793680,584.258530 l 0.000000,-33.470738 M 644.793680,638.068560 l 0.000000,3.297061 M 644.793680,693.000000 l 0.000000,-49.351516 M 651.793680,444.317946 l 0.000000,9.147577 M 651.793680,469.593762 l 0.000000,-12.742511 M 651.793680,548.887807 l 0.000000,38.200593 M 651.793680,643.346592 l 0.000000,-14.903621 M 651.793680,653.971594 l 0.000000,15.069691 M 651.793680,700.232035 l 0.000000,-22.473347 M 651.793680,704.260583 l 0.000000,5.682289 M 658.793680,460.606145 l 0.000000,-8.503793 M 658.793680,465.475840 l 0.000000,14.722544 M 658.793680,597.070947 l 0.000000,-50.507760 M 658.793680,628.968856 l 0.000000,7.867606 M 658.793680,654.003070 l 0.000000,-14.487871 M 658.793680,702.053142 l 0.000000,16.983170 M 665.793680,468.009023 l 0.000000,-7.655569 M 665.793680,473.017832 l 0.000000,19.097192 M 665.793680,598.776181 l 0.000000,-52.570321 M 665.793680,629.629913 l 0.000000,28.231613 M 665.793680,685.275788 l 0.000000,-6.011976 M 665.793680,721.488190 l 0.000000,3.274314 M 672.793680,475.520716 l 0.000000,-6.865240 M 672.793680,481.062499 l 0.000000,23.409804 M 672.793680,531.533767 l 0.000000,-1.784298 M 672.793680,556.167912 l 0.000000,42.234829 M 672.793680,655.034560 l 0.000000,-32.501405 M 672.793680,672.122920 l 0.000000,4.546254 M 679.793680,483.146990 l 0.000000,-6.327179 M 679.793680,491.394301 l 0.000000,25.241897 M 679.793680,532.562712 l 0.000000,-5.681905 M 679.793680,560.755565 l 0.000000,37.440194 M 679.793680,658.115907 l 0.000000,-43.265274 M 679.793680,663.367641 l 0.000000,7.801637 M 686.793680,479.422507 l 0.000000,-2.641984 M 686.793680,484.778828 l 0.000000,6.343833 M 686.793680,533.597148 l 0.000000,-29.206501 M 686.793680,565.062652 l 0.000000,29.659486 M 686.793680,659.171982 l 0.000000,-51.516435 M 686.793680,663.850969 l 0.000000,0.922640 M 693.793680,488.393353 l 0.000000,-4.658455 M 693.793680,492.593824 l 0.000000,6.480292 M 693.793680,535.497826 l 0.000000,-17.353666 M 693.793680,557.894207 l 0.000000,99.825478 M 700.793680,481.977172 l 0.000000,-2.560782 M 700.793680,490.950013 l 0.000000,6.269591 M 700.793680,506.887008 l 0.000000,-6.629031 M 700.793680,521.233948 l 0.000000,17.628433 M 700.793680,655.099123 l 0.000000,-55.769802 M 707.793680,482.198905 l 0.000000,3.024407 M 707.793680,506.012012 l 0.000000,-7.702272 M 707.793680,507.339409 l 0.000000,6.919699 M 707.793680,545.921765 l 0.000000,-24.755392 M 707.793680,591.836622 l 0.000000,58.279957 M 714.793680,484.662550 l 0.000000,-6.630173 M 714.793680,505.952647 l 0.000000,15.778946 M 714.793680,550.078969 l 0.000000,-22.556543 M 714.793680,591.794551 l 0.000000,53.026546 M 721.793680,490.436408 l 0.000000,-7.801411 M 721.793680,513.657874 l 0.000000,16.401667 M 721.793680,559.174066 l 0.000000,-27.781389 M 721.793680,559.298581 l 0.000000,6.755879 M 721.793680,639.601113 l 0.000000,-47.617379 M 728.793680,488.609362 l 0.000000,7.472304 M 728.793680,574.976183 l 0.000000,-52.574929 M 728.793680,585.679416 l 0.000000,48.726049 M 735.793680,502.254137 l 0.000000,-11.201834 M 735.793680,530.940587 l 0.000000,98.629480 M 742.793680,508.545041 l 0.000000,-15.437242 M 742.793680,519.664552 l 0.000000,0.835759 M 742.793680,625.808423 l 0.000000,-89.915543 M 742.793680,754.392752 l 0.000000,6.647595 M 749.793680,505.504716 l 0.000000,-7.058499 M 749.793680,521.930506 l 0.000000,4.503638 M 749.793680,541.897761 l 0.000000,-4.406483 M 749.793680,546.739579 l 0.000000,76.856444 M 749.793680,758.233510 l 0.000000,-5.661884 M 756.793680,508.060299 l 0.000000,9.859441 M 756.793680,621.759313 l 0.000000,-89.372950 M 756.793680,752.080022 l 0.000000,2.711981 M 756.793680,783.909479 l 0.000000,-8.898486 M 763.793680,516.054150 l 0.000000,9.782734 M 763.793680,620.340232 l 0.000000,-79.406888 M 763.793680,750.590927 l 0.000000,2.389140 M 763.793680,789.045756 l 0.000000,-20.735393 M 770.793680,522.364642 l 0.000000,7.473243 M 770.793680,619.286368 l 0.000000,-64.737775 M 770.793680,744.000784 l 0.000000,10.684833 M 770.793680,794.094800 l 0.000000,-28.931074 M 777.793680,526.355525 l 0.000000,5.259875 M 777.793680,540.671113 l 0.000000,-5.781917 M 777.793680,545.967817 l 0.000000,8.998137 M 777.793680,569.595442 l 0.000000,-9.348115 M 777.793680,574.363345 l 0.000000,40.299731 M 777.793680,723.862947 l 0.000000,-0.352745 M 777.793680,738.510483 l 0.000000,10.590316 M 777.793680,799.949647 l 0.000000,-40.338056 M 784.793680,536.979285 l 0.000000,78.308422 M 784.793680,802.778489 l 0.000000,-85.436002 M 791.793680,540.745485 l 0.000000,13.229765 M 791.793680,613.955960 l 0.000000,-59.203402 M 791.793680,711.744909 l 0.000000,33.728088 M 791.793680,804.852268 l 0.000000,-53.431359 M 798.793680,548.486292 l 0.000000,3.827348 M 798.793680,613.690206 l 0.000000,-43.063164 M 798.793680,706.539069 l 0.000000,38.053850 M 798.793680,806.554131 l 0.000000,-54.633220 M 805.793680,556.824627 l 0.000000,70.228739 M 805.793680,809.074593 l 0.000000,-107.447293 M 812.793680,561.529426 l 0.000000,81.849527 M 812.793680,733.300271 l 0.000000,-36.584741 M 812.793680,734.925034 l 0.000000,74.111246 M 819.793680,658.258491 l 0.000000,-83.609789 M 819.793680,691.793856 l 0.000000,44.864229 M 819.793680,807.693425 l 0.000000,-63.549788 M 826.793680,585.677519 l 0.000000,73.048928 M 826.793680,673.162374 l 0.000000,-4.981468 M 826.793680,686.713823 l 0.000000,48.843651 M 826.793680,805.586493 l 0.000000,-52.832201 M 833.793680,578.825756 l 0.000000,1.714405 M 833.793680,653.519038 l 0.000000,-57.347293 M 833.793680,661.394091 l 0.000000,75.234660 M 833.793680,744.599398 l 0.000000,-2.691945 M 833.793680,749.632211 l 0.000000,53.540377 M 840.793680,589.353232 l 0.000000,-6.294605 M 840.793680,597.508358 l 0.000000,50.694731 M 840.793680,736.751935 l 0.000000,-80.930583 M 840.793680,738.927483 l 0.000000,3.595569 M 840.793680,749.798343 l 0.000000,-0.434676 M 840.793680,754.762727 l 0.000000,45.815742 M 847.793680,596.655799 l 0.000000,-8.683527 M 847.793680,605.565711 l 0.000000,37.321427 M 847.793680,730.240668 l 0.000000,-79.851981 M 847.793680,734.811471 l 0.000000,9.802385 M 847.793680,797.908370 l 0.000000,-43.878238 M 854.793680,592.857638 l 0.000000,10.633916 M 854.793680,637.459591 l 0.000000,-27.625354 M 854.793680,645.109125 l 0.000000,83.040016 M 854.793680,796.890705 l 0.000000,-66.934640 M 861.793680,596.854213 l 0.000000,13.306536 M 861.793680,631.599194 l 0.000000,-16.726678 M 861.793680,640.012376 l 0.000000,93.046403 M 861.793680,746.316142 l 0.000000,-11.747413 M 861.793680,748.273979 l 0.000000,48.564645 M 868.793680,617.589019 l 0.000000,-15.844376 M 868.793680,635.045139 l 0.000000,160.932839 M 875.793680,712.140662 l 0.000000,-82.022640 M 875.793680,715.419079 l 0.000000,78.381119 M 882.793680,791.035741 l 0.000000,-160.271782 M 889.793680,635.939452 l 0.000000,150.112547 M 896.793680,735.255916 l 0.000000,-91.814267 M 896.793680,752.831536 l 0.000000,12.208230 M 903.793680,746.515583 l 0.000000,-85.418390 M 903.793680,755.254206 l 0.000000,17.906792 M 910.793680,764.449309 l 0.000000,-98.318111 M 917.793680,673.605297 l 0.000000,6.025105 M 917.793680,752.654072 l 0.000000,-68.541585 M 924.793680,718.799246 l 0.000000,17.987282"
       id="path17" />
  </g>
  <g
     inkscape:label="fill-aeaeae"
     inkscape:groupmode="layer"
     id="fill-aeaeae">
    <path
       style="stroke:#aeaeae"
       d="M 366.397788,590.266841 l 0.000000,3.101337 M 374.397788,594.383382 l 0.000000,-4.813845 M 382.397788,589.216871 l 0.000000,5.960519 M 390.397788,595.848706 l 0.000000,-6.792382 M 398.397788,589.024053 l 0.000000,7.274489 M 406.397788,596.080442 l 0.000000,-7.206032 M 414.397788,588.527525 l 0.000000,7.168237 M 422.397788,595.110370 l 0.000000,-7.205905 M 430.397788,587.195587 l 0.000000,7.323087 M 438.397788,593.916851 l 0.000000,-7.550455 M 446.397788,585.446367 l 0.000000,7.963173 M 454.397788,593.094474 l 0.000000,-8.689900 M 462.397788,583.303249 l 0.000000,9.446520 M 470.397788,592.062953 l 0.000000,-9.909793 M 478.397788,581.003071 l 0.000000,9.936819 M 486.397788,590.081952 l 0.000000,-10.068095 M 486.397788,594.243923 l 0.000000,2.326186 M 494.397788,589.353828 l 0.000000,-10.223671 M 494.397788,592.612980 l 0.000000,3.425500 M 502.397788,588.394861 l 0.000000,-10.093555 M 502.397788,591.026471 l 0.000000,4.146990 M 510.397788,570.758061 l 0.000000,-1.075583 M 510.397788,577.483470 l 0.000000,9.746411 M 510.397788,594.057240 l 0.000000,-4.485019 M 518.397788,568.420371 l 0.000000,1.709858 M 518.397788,586.058328 l 0.000000,-9.559884 M 518.397788,588.117971 l 0.000000,4.878097 M 526.397788,569.401114 l 0.000000,-2.274723 M 526.397788,575.326854 l 0.000000,9.557069 M 526.397788,592.273748 l 0.000000,-5.610027 M 534.397788,565.829406 l 0.000000,2.803803 M 534.397788,591.509487 l 0.000000,-17.886143 M 542.397788,564.278616 l 0.000000,3.567986 M 542.397788,590.427600 l 0.000000,-19.256201 M 550.397788,562.664266 l 0.000000,4.486500 M 550.397788,588.050147 l 0.000000,-19.827777 M 558.397788,561.056533 l 0.000000,5.381655 M 558.397788,586.651769 l 0.000000,-19.957757 M 566.397788,559.557156 l 0.000000,25.720564 M 574.397788,582.696559 l 0.000000,-24.638779 M 582.397788,556.558403 l 0.000000,24.857647 M 590.397788,384.012220 l 0.000000,-6.613733 M 590.397788,554.992212 l 0.000000,26.911132 M 598.397788,394.655248 l 0.000000,-12.393208 M 598.397788,400.815820 l 0.000000,3.189561 M 598.397788,582.478180 l 0.000000,-29.103995 M 606.397788,389.045502 l 0.000000,21.860673 M 606.397788,583.266434 l 0.000000,-31.302069 M 614.397788,380.475417 l 0.000000,5.656813 M 614.397788,417.658488 l 0.000000,-20.456507 M 614.397788,551.468644 l 0.000000,32.872127 M 622.397788,427.350514 l 0.000000,-39.109985 M 622.397788,551.390733 l 0.000000,31.597123 M 622.397788,586.556733 l 0.000000,-1.333453 M 630.397788,397.809001 l 0.000000,41.954307 M 630.397788,582.679240 l 0.000000,-29.663437 M 630.397788,696.527021 l 0.000000,48.185810 M 638.397788,453.049505 l 0.000000,-43.166882 M 638.397788,549.493021 l 0.000000,36.220260 M 638.397788,643.738587 l 0.000000,-1.575354 M 638.397788,682.805140 l 0.000000,16.312581 M 638.397788,747.758254 l 0.000000,-3.692252 M 646.397788,431.205607 l 0.000000,35.068072 M 646.397788,585.634117 l 0.000000,-38.248495 M 646.397788,630.943891 l 0.000000,63.056109 M 646.397788,703.573883 l 0.000000,-2.712525 M 654.397788,440.482128 l 0.000000,38.956915 M 654.397788,596.821133 l 0.000000,-50.862249 M 654.397788,621.903542 l 0.000000,42.225377 M 654.397788,698.141077 l 0.000000,-17.264671 M 662.397788,449.034372 l 0.000000,16.494866 M 662.397788,492.207967 l 0.000000,-24.433659 M 662.397788,533.013243 l 0.000000,2.866942 M 662.397788,613.091545 l 0.000000,-67.929202 M 662.397788,621.436577 l 0.000000,43.493596 M 662.397788,709.841726 l 0.000000,-30.655357 M 662.397788,715.706999 l 0.000000,7.905340 M 670.397788,463.281499 l 0.000000,-5.979097 M 670.397788,464.545984 l 0.000000,9.518910 M 670.397788,504.669259 l 0.000000,-27.534240 M 670.397788,529.316597 l 0.000000,5.130866 M 670.397788,542.987236 l 0.000000,-5.587074 M 670.397788,544.378786 l 0.000000,66.110911 M 670.397788,621.997264 l 0.000000,-2.856597 M 670.397788,623.043049 l 0.000000,41.256679 M 670.397788,679.277876 l 0.000000,-7.100853 M 678.397788,465.538644 l 0.000000,17.324203 M 678.397788,517.262206 l 0.000000,-30.125513 M 678.397788,526.612672 l 0.000000,14.908561 M 678.397788,550.248178 l 0.000000,-4.145185 M 678.397788,552.751822 l 0.000000,51.553419 M 678.397788,658.750997 l 0.000000,-46.597387 M 678.397788,661.691670 l 0.000000,11.243527 M 686.397788,491.818586 l 0.000000,-18.059665 M 686.397788,498.410818 l 0.000000,37.714814 M 686.397788,549.353474 l 0.000000,-9.027618 M 686.397788,551.850765 l 0.000000,108.471164 M 686.397788,666.621730 l 0.000000,-5.231798 M 694.397788,481.941895 l 0.000000,19.223308 M 694.397788,538.424806 l 0.000000,-29.650638 M 694.397788,551.885046 l 0.000000,106.217694 M 702.397788,485.067418 l 0.000000,-7.367629 M 702.397788,486.686017 l 0.000000,24.440451 M 702.397788,547.778781 l 0.000000,-35.402677 M 702.397788,554.789728 l 0.000000,29.586092 M 702.397788,654.525501 l 0.000000,-65.750684 M 710.397788,481.529879 l 0.000000,36.900979 M 710.397788,576.722691 l 0.000000,-55.614607 M 710.397788,584.726651 l 0.000000,64.085616 M 718.397788,526.199645 l 0.000000,-47.629168 M 718.397788,528.663496 l 0.000000,40.615959 M 718.397788,642.821273 l 0.000000,-66.179867 M 726.397788,485.662088 l 0.000000,151.205230 M 734.397788,631.128791 l 0.000000,-140.576000 M 742.397788,492.405082 l 0.000000,134.270364 M 742.397788,762.373626 l 0.000000,-8.489093 M 750.397788,498.448086 l 0.000000,125.560660 M 750.397788,759.290000 l 0.000000,-8.776049 M 750.397788,773.577951 l 0.000000,7.696159 M 758.397788,622.246165 l 0.000000,-118.090642 M 758.397788,747.619496 l 0.000000,12.599019 M 758.397788,786.883009 l 0.000000,-22.119205 M 766.397788,510.325722 l 0.000000,110.065284 M 766.397788,756.631557 l 0.000000,-12.207177 M 766.397788,762.391696 l 0.000000,29.212590 M 774.397788,618.211689 l 0.000000,-100.482498 M 774.397788,740.294693 l 0.000000,57.762625 M 782.397788,616.389035 l 0.000000,-91.167319 M 782.397788,718.665196 l 0.000000,84.221798 M 790.397788,614.822885 l 0.000000,-80.492131 M 790.397788,712.256457 l 0.000000,92.774113 M 798.397788,614.426433 l 0.000000,-71.892225 M 798.397788,706.224097 l 0.000000,101.065678 M 806.397788,630.017464 l 0.000000,-79.667261 M 806.397788,700.569760 l 0.000000,109.755652 M 814.397788,648.008008 l 0.000000,-91.615361 M 814.397788,694.944059 l 0.000000,114.708222 M 822.397788,662.521832 l 0.000000,-99.478083 M 822.397788,689.125017 l 0.000000,47.414873 M 822.397788,807.467826 l 0.000000,-65.471028 M 830.397788,570.354882 l 0.000000,86.604826 M 830.397788,804.809130 l 0.000000,-141.191304 M 838.397788,577.556336 l 0.000000,73.264121 M 838.397788,801.979284 l 0.000000,-144.913760 M 846.397788,577.382657 l 0.000000,2.752248 M 846.397788,644.678142 l 0.000000,-60.806852 M 846.397788,650.847532 l 0.000000,148.325380 M 854.397788,638.477297 l 0.000000,-50.988897 M 854.397788,644.804440 l 0.000000,152.702672 M 862.397788,632.015061 l 0.000000,-38.926152 M 862.397788,638.855481 l 0.000000,158.985160 M 870.397788,625.370790 l 0.000000,-23.552462 M 870.397788,633.071068 l 0.000000,163.343493 M 878.397788,617.509088 l 0.000000,-6.335084 M 878.397788,627.433546 l 0.000000,166.388911 M 886.397788,790.344747 l 0.000000,-167.348465 M 894.397788,633.655470 l 0.000000,149.641855 M 902.397788,775.290956 l 0.000000,-132.515217 M 910.397788,652.206311 l 0.000000,113.685138 M 918.397788,753.498440 l 0.000000,-81.806234 M 926.397788,694.771348 l 0.000000,38.744870"
       id="path20" />
  </g>
  <g
     inkscape:label="fill-cecece"
     inkscape:groupmode="layer"
     id="fill-cecece">
    <path
       style="stroke:#cecece"
       d="M 357.996306,589.809699 l 0.000000,3.914109 M 365.996306,594.844486 l 0.000000,-5.924633 M 373.996306,588.237481 l 0.000000,7.558426 M 381.996306,596.716238 l 0.000000,-8.941226 M 389.996306,587.268146 l 0.000000,10.368424 M 397.996306,598.281841 l 0.000000,-11.669994 M 405.996306,584.087727 l 0.000000,13.917306 M 413.996306,597.019868 l 0.000000,-14.209902 M 421.996306,581.528974 l 0.000000,14.737739 M 429.996306,595.834245 l 0.000000,-16.861603 M 437.996306,577.653726 l 0.000000,20.859890 M 445.996306,594.886123 l 0.000000,-18.247260 M 445.996306,595.746012 l 0.000000,3.140414 M 453.996306,598.963415 l 0.000000,-24.288208 M 461.996306,573.287940 l 0.000000,25.752463 M 469.996306,599.117393 l 0.000000,-27.121146 M 477.996306,570.980274 l 0.000000,21.249949 M 477.996306,599.186922 l 0.000000,-6.487793 M 485.996306,570.271753 l 0.000000,21.023741 M 485.996306,599.255423 l 0.000000,-7.518873 M 493.996306,569.461204 l 0.000000,29.862721 M 501.996306,599.643126 l 0.000000,-31.053809 M 509.996306,567.613874 l 0.000000,34.050382 M 517.996306,601.922283 l 0.000000,-35.500827 M 525.996306,565.229038 l 0.000000,36.371274 M 533.996306,600.865388 l 0.000000,-36.948510 M 541.996306,562.482958 l 0.000000,37.410641 M 549.996306,598.921810 l 0.000000,-37.872772 M 557.996306,559.352707 l 0.000000,38.470841 M 565.996306,596.649252 l 0.000000,-39.088501 M 573.996306,555.428005 l 0.000000,40.046951 M 581.996306,594.185532 l 0.000000,-41.095150 M 589.996306,376.446634 l 0.000000,8.393371 M 589.996306,397.277488 l 0.000000,-0.473948 M 589.996306,550.645954 l 0.000000,42.160441 M 597.996306,395.959137 l 0.000000,-15.066081 M 597.996306,397.450469 l 0.000000,7.567374 M 597.996306,591.425635 l 0.000000,-43.372971 M 605.996306,387.236070 l 0.000000,24.409394 M 605.996306,589.804067 l 0.000000,-44.315670 M 613.996306,377.965435 l 0.000000,10.944846 M 613.996306,418.383123 l 0.000000,-22.358481 M 613.996306,543.140112 l 0.000000,45.251744 M 621.996306,428.397981 l 0.000000,-42.574279 M 621.996306,541.047949 l 0.000000,47.546135 M 629.996306,441.559602 l 0.000000,-45.938434 M 629.996306,538.992404 l 0.000000,49.500758 M 629.996306,745.682174 l 0.000000,-50.603623 M 637.996306,407.118206 l 0.000000,47.984992 M 637.996306,587.845746 l 0.000000,-51.095455 M 637.996306,640.888202 l 0.000000,7.068049 M 637.996306,702.235196 l 0.000000,-22.257129 M 637.996306,742.527865 l 0.000000,5.940064 M 645.996306,468.648440 l 0.000000,-44.010711 M 645.996306,533.924173 l 0.000000,9.252773 M 645.996306,588.308101 l 0.000000,-43.840830 M 645.996306,627.113204 l 0.000000,77.566187 M 653.996306,481.804873 l 0.000000,-48.007259 M 653.996306,532.662617 l 0.000000,67.804407 M 653.996306,667.854030 l 0.000000,-48.978921 M 653.996306,678.535332 l 0.000000,20.467116 M 653.996306,713.211227 l 0.000000,-9.206806 M 661.996306,441.126630 l 0.000000,53.585543 M 661.996306,724.387571 l 0.000000,-193.558815 M 669.996306,448.643488 l 0.000000,58.639377 M 669.996306,681.210625 l 0.000000,-153.165464 M 669.996306,723.285514 l 0.000000,2.455001 M 677.996306,520.176185 l 0.000000,-65.440257 M 677.996306,525.638916 l 0.000000,148.670856 M 685.996306,667.818343 l 0.000000,-207.575623 M 693.996306,466.473457 l 0.000000,192.615537 M 701.996306,655.798351 l 0.000000,-183.111458 M 709.996306,478.708092 l 0.000000,171.263400 M 717.996306,644.118991 l 0.000000,-167.449185 M 725.996306,484.091459 l 0.000000,154.044649 M 733.996306,632.293484 l 0.000000,-142.634211 M 733.996306,764.528601 l 0.000000,7.336321 M 741.996306,627.727690 l 0.000000,-136.582287 M 741.996306,752.668653 l 0.000000,26.149420 M 749.996306,625.013516 l 0.000000,-128.450522 M 749.996306,749.163045 l 0.000000,33.988497 M 757.996306,623.150554 l 0.000000,-121.425022 M 757.996306,746.292409 l 0.000000,41.849127 M 765.996306,621.298053 l 0.000000,-113.414725 M 765.996306,743.338726 l 0.000000,49.726056 M 773.996306,619.463279 l 0.000000,-104.726127 M 773.996306,724.798537 l 0.000000,3.260988 M 773.996306,799.600338 l 0.000000,-60.306218 M 781.996306,521.825310 l 0.000000,95.803194 M 781.996306,803.768986 l 0.000000,-86.089029 M 789.996306,529.099240 l 0.000000,86.982936 M 789.996306,805.816499 l 0.000000,-94.322010 M 797.996306,536.005305 l 0.000000,79.183424 M 797.996306,808.181758 l 0.000000,-102.617215 M 805.996306,542.158069 l 0.000000,89.006431 M 805.996306,811.766740 l 0.000000,-111.905522 M 813.996306,549.904072 l 0.000000,99.395680 M 813.996306,810.910135 l 0.000000,-116.831493 M 821.996306,558.020679 l 0.000000,105.677246 M 821.996306,808.613998 l 0.000000,-120.383645 M 829.996306,564.713546 l 0.000000,93.685636 M 829.996306,806.036682 l 0.000000,-143.255884 M 837.996306,569.454979 l 0.000000,82.625831 M 837.996306,803.202008 l 0.000000,-146.801250 M 845.996306,575.511916 l 0.000000,70.522654 M 845.996306,800.367717 l 0.000000,-150.176182 M 853.996306,582.543309 l 0.000000,57.411336 M 853.996306,798.509712 l 0.000000,-154.436965 M 861.996306,590.204141 l 0.000000,43.569531 M 861.996306,798.861997 l 0.000000,-160.908039 M 869.996306,598.850502 l 0.000000,28.328416 M 869.996306,797.532436 l 0.000000,-165.603330 M 877.996306,607.862637 l 0.000000,12.237861 M 877.996306,795.037668 l 0.000000,-168.934776 M 885.996306,620.422077 l 0.000000,172.029611 M 893.996306,785.636268 l 0.000000,-159.167391 M 901.996306,635.108456 l 0.000000,142.538837 M 909.996306,768.202733 l 0.000000,-120.348359 M 917.996306,658.476873 l 0.000000,97.774943 M 925.996306,738.948702 l 0.000000,-51.891618"
       id="path23" />
  </g>
</svg>
