<?xml version="1.0" encoding="UTF-8" standalone="no"?>
<!-- Created with Inkscape (http://www.inkscape.org/) -->

<svg
   xmlns:dc="http://purl.org/dc/elements/1.1/"
   xmlns:cc="http://creativecommons.org/ns#"
   xmlns:rdf="http://www.w3.org/1999/02/22-rdf-syntax-ns#"
   xmlns:svg="http://www.w3.org/2000/svg"
   xmlns="http://www.w3.org/2000/svg"
   xmlns:sodipodi="http://sodipodi.sourceforge.net/DTD/sodipodi-0.dtd"
   xmlns:inkscape="http://www.inkscape.org/namespaces/inkscape"
   id="svg2"
   version="1.1"
   inkscape:version="0.48.3.1 r9886"
   width="1000"
   height="759"
   sodipodi:docname="hantologie-_0002_arriere-plan-01_hatched_1398274169.svg">
  <defs
     id="defs27" />
  <sodipodi:namedview
     pagecolor="#ffffff"
     bordercolor="#666666"
     borderopacity="1"
     objecttolerance="10"
     gridtolerance="10"
     guidetolerance="10"
     inkscape:pageopacity="0"
     inkscape:pageshadow="2"
     inkscape:window-width="640"
     inkscape:window-height="480"
     id="namedview25" />
  <metadata
     id="metadata8">
    <rdf:RDF>
      <cc:Work
         rdf:about="">
        <dc:format>image/svg+xml </dc:format>
        <dc:type
           rdf:resource="http://purl.org/dc/dcmitype/StillImage" />
        <dc:title />
      </cc:Work>
    </rdf:RDF>
  </metadata>
  <g
     inkscape:label="fill-0b0b0b"
     inkscape:groupmode="layer"
     id="fill-0b0b0b">
    <path
       style="stroke:#0b0b0b"
       d="M 240.307987,273.107152 l -1.629814,3.065234 M 240.353709,277.281269 l 2.318454,-4.360378 M 249.038160,265.208301 l -0.944185,1.775753 M 242.374996,277.739891 l 2.596028,-4.882418 M 251.263440,265.283268 l -1.350839,2.540559 M 244.481506,278.038230 l 2.763090,-5.196616 M 253.483610,265.367843 l -1.523758,2.865772 M 246.624792,278.267404 l 2.864183,-5.386746 M 255.704045,265.451922 l -1.588429,2.987401 M 247.589247,280.713637 l 4.042024,-7.601941 M 258.624037,264.220325 l -2.257790,4.246286 M 249.930639,280.570228 l 3.604532,-6.779140 M 260.721446,264.535780 l -1.926844,3.623866 M 253.247221,278.592753 l 1.824113,-3.430658 M 262.764369,264.953710 l -1.372985,2.582209 M 254.632972,280.246644 l 1.850417,-3.480127 M 264.771786,265.438417 l -0.428715,0.806295 M 259.170066,275.973720 l 0.462610,-0.870043 M 257.954065,278.260685 l -1.155733,2.173617 M 258.465531,281.558866 l 2.927209,-5.505280 M 269.532070,265.005843 l -1.393038,2.619923 M 259.978609,282.973290 l 3.014256,-5.668991 M 271.963049,264.693944 l -2.115356,3.978406 M 263.057893,281.442107 l 1.982236,-3.728044 M 274.252752,264.647750 l -2.258191,4.247040 M 264.243252,283.472881 l 3.608694,-6.786967 M 276.303489,265.050983 l -2.290400,4.307616 M 265.308859,285.728874 l 4.162527,-7.828574 M 262.368273,291.259312 l -2.001633,3.764524 M 276.390437,269.147567 l 2.038724,-3.834282 M 271.228800,278.855194 l -10.506325,19.759524 M 278.879091,268.727198 l 2.835733,-5.333238 M 274.912347,276.187557 l -13.840036,26.029323 M 281.215037,268.594031 l 3.358444,-6.316314 M 278.127610,274.400637 l -16.096740,30.273565 M 299.332249,238.780619 l 1.185201,-2.229038 M 286.804989,262.340969 l -3.224761,6.064894 M 263.660062,305.870246 l 17.367186,-32.662926 M 288.916389,262.630112 l -2.947705,5.543828 M 265.382922,306.890126 l 17.294557,-32.526331 M 293.042530,259.130078 l -3.370700,6.339364 M 273.430570,296.014811 l 10.591934,-19.920530 M 273.425941,296.023516 l -6.273920,11.799528 M 328.440162,196.816924 l 0.504767,-0.949328 M 293.406518,262.705626 l -1.502872,2.826492 M 283.130074,282.032807 l 1.933637,-3.636642 M 279.882855,288.139936 l -3.655454,6.874909 M 268.939905,308.720632 l 6.034839,-11.349882 M 297.379842,259.493000 l -3.379889,6.356647 M 278.644511,294.729031 l 3.405676,-6.405145 M 277.129672,297.578030 l -6.351001,11.944496 M 295.858379,266.614564 l 3.708808,-6.975254 M 284.915118,287.195845 l -3.914855,7.362772 M 272.617437,310.324418 l 6.732216,-12.661456 M 301.180867,260.864528 l -3.336153,6.274391 M 283.405391,294.295337 l 4.458493,-8.385206 M 281.569633,297.747895 l -7.113430,13.378417 M 285.842294,293.972299 l 4.763127,-8.958139 M 283.845183,297.728317 l -7.484734,14.076737 M 336.252534,203.424535 l 2.720064,-5.115695 M 307.901527,256.745024 l -2.051510,3.858329 M 288.609490,293.028069 l 4.733528,-8.902471 M 286.144579,297.663892 l -7.821361,14.709840 M 345.742249,189.837085 l 2.190065,-4.118913 M 343.470249,194.110095 l -1.018546,1.915606 M 338.164296,204.089141 l 0.583997,-1.098339 M 309.367320,258.248377 l -4.000863,7.524529 M 291.139586,292.529759 l 4.964594,-9.337043 M 288.463105,297.563488 l -8.063084,15.164455 M 351.684669,182.921127 l 3.538642,-6.655217 M 349.777231,186.508497 l -1.947367,3.662465 M 343.108336,199.050864 l 3.362537,-6.324013 M 311.079747,259.287878 l -4.858054,9.136671 M 293.362826,292.608561 l 5.554126,-10.445791 M 290.960407,297.126854 l -8.364507,15.731349 M 353.626648,183.528906 l 3.468337,-6.522993 M 350.869748,188.713881 l -6.410188,12.055810 M 312.326374,261.203423 l 1.909284,-3.590842 M 301.958293,280.702947 l -6.389391,12.016696 M 284.978228,312.637806 l 8.776114,-16.505471 M 358.736935,178.177962 l -3.389494,6.374712 M 348.426049,197.569918 l 4.160194,-7.824188 M 345.410024,203.242236 l -1.714019,3.223601 M 314.241052,261.862548 l 1.645013,-3.093820 M 305.032404,279.181495 l -7.262540,13.658852 M 287.673670,311.828524 l 8.488019,-15.963642 M 359.482652,181.035582 l -2.456696,4.620374 M 351.701869,195.669107 l 2.590806,-4.872598 M 347.272931,203.998726 l -1.994801,3.751674 M 341.618416,214.633323 l 1.306247,-2.456694 M 339.268600,219.052684 l -1.001673,1.883873 M 315.829281,263.135632 l 1.196802,-2.250857 M 307.680781,278.460731 l -7.509797,14.123874 M 290.952575,309.921912 l 7.485462,-14.078107 M 355.668394,192.469267 l -0.851096,1.600679 M 347.038008,208.700662 l 1.869299,-3.515639 M 310.159927,278.058245 l -7.205578,13.551721 M 294.156387,308.156526 l 6.471099,-12.170367 M 286.646650,322.280287 l -1.556806,2.927926 M 348.695312,209.843835 l 1.769414,-3.327785 M 331.407419,242.357634 l -0.836048,1.572377 M 321.278232,261.407863 l 0.651259,-1.224839 M 312.460514,277.991579 l -6.631256,12.471578 M 286.890713,326.081380 l 15.720187,-29.565371 M 351.948514,207.985561 l -1.760784,3.311552 M 332.673307,244.236952 l 1.136950,-2.138292 M 323.928689,260.683188 l -1.170291,2.200998 M 308.419294,289.852116 l 6.341806,-11.927202 M 304.531837,297.163360 l -15.761742,29.643525 M 364.381253,188.863089 l 0.883353,-1.661345 M 343.583621,227.977745 l -4.015647,7.552333 M 334.843946,244.414683 l 1.283910,-2.414683 M 316.966151,278.037925 l -6.415869,12.066495 M 289.025899,330.585898 l 17.465570,-32.847959 M 346.844106,226.105774 l -7.252854,13.640634 M 337.014586,244.592413 l 1.378411,-2.592413 M 333.847541,250.548758 l -0.925852,1.741274 M 313.138232,289.497303 l 6.012995,-11.308798 M 308.951729,297.370971 l -8.905650,16.749091 M 288.687869,335.481748 l 10.602318,-19.940060 M 355.346861,214.374527 l -0.790885,1.487438 M 346.195102,231.586482 l 3.858977,-7.257681 M 343.869370,235.960548 l -4.721349,8.879567 M 316.125418,288.139331 l 5.213255,-9.804706 M 311.764080,296.341816 l -9.177884,17.261089 M 289.492231,338.229073 l 11.838363,-22.264722 M 351.581293,225.716639 l -1.693116,3.184287 M 340.990358,245.635291 l 4.290943,-8.070090 M 323.578053,278.383073 l -4.465599,8.398571 M 304.473966,314.312635 l 9.995302,-18.798428 M 303.894320,315.402791 l -11.772457,22.140772 M 343.083110,245.959505 l 3.782661,-7.114151 M 325.985389,278.115641 l -3.889749,7.315553 M 308.461800,311.072719 l 8.529959,-16.042520 M 307.326425,313.208050 l -11.409077,21.457354 M 345.586832,245.510799 l 2.882466,-5.421129 M 337.649629,260.438506 l -1.879039,3.533958 M 325.078827,284.080746 l 4.033868,-7.586602 M 319.469292,294.630746 l -8.034135,15.110011 M 299.964159,331.314566 l 10.311413,-19.392947 M 350.091978,241.297959 l -1.869640,3.516282 M 344.982550,250.907396 l 1.662946,-3.127546 M 338.899208,262.348499 l -1.783223,3.353755 M 327.665812,283.475444 l 3.567861,-6.710170 M 321.869458,294.376800 l -7.908399,14.873535 M 303.927808,328.120136 l 8.767127,-16.488568 M 351.609728,242.703595 l -0.499809,0.940004 M 346.341908,252.610924 l 2.165747,-4.073177 M 344.831074,255.452390 l -1.390015,2.614238 M 339.373622,265.716364 l 0.285798,-0.537508 M 333.341717,277.060728 l -3.435926,6.462037 M 320.500983,301.210636 l 3.747550,-7.048116 M 317.362144,307.113933 l -1.676535,3.153104 M 306.667626,327.227397 l 7.864362,-14.790714 M 350.214471,249.587802 l -2.397555,4.509145 M 343.118167,262.934008 l 3.808369,-7.162501 M 335.483702,277.292349 l -2.992569,5.628203 M 320.503610,305.465804 l 6.123998,-11.517564 M 318.210398,309.778709 l -9.607965,18.069954 M 344.938717,263.770160 l 6.779055,-12.749548 M 337.760780,277.269898 l -2.526590,4.751824 M 325.042355,301.189776 l 3.964328,-7.455816 M 319.881801,310.895367 l -8.800064,16.550514 M 293.685294,360.163830 l 3.808211,-7.162204 M 353.239089,252.419541 l -6.436411,12.105129 M 337.564361,281.899416 l 2.681484,-5.043138 M 331.381503,293.527680 l -2.378854,4.473975 M 313.809110,326.576545 l 9.223458,-17.346801 M 303.735745,345.521790 l -9.657748,18.163582 M 348.437370,265.710369 l 6.730576,-12.658373 M 343.172251,275.612619 l -3.294559,6.196165 M 331.943628,296.730587 l 1.734148,-3.261458 M 325.508626,308.833066 l -8.902720,16.743581 M 297.506423,361.497550 l 13.063957,-24.569729 M 357.162501,253.560893 l -7.895088,14.848501 M 318.916743,325.490703 l 9.203166,-17.308638 M 317.688243,327.801175 l -16.350270,30.750385 M 351.428216,268.605624 l 6.938527,-13.049471 M 330.997296,307.030597 l -27.031708,50.839248 M 353.708959,268.576279 l 4.290420,-8.069107 M 342.028514,290.544001 l -0.644954,1.212981 M 326.107089,320.487847 l 7.858346,-14.779399 M 325.428577,321.763943 l -18.426297,34.654825 M 355.368218,269.715776 l 2.221430,-4.177901 M 353.540768,273.152710 l -1.917379,3.606066 M 329.031983,319.247031 l 7.901592,-14.860732 M 327.594679,321.950206 l -16.298091,30.652252 M 356.776054,271.328131 l 2.158722,-4.059965 M 355.618284,273.505580 l -1.584330,2.979692 M 332.984090,316.074307 l 6.786304,-12.763182 M 330.250387,321.215654 l -14.467507,27.209423 M 358.236465,272.841606 l 1.890925,-3.556314 M 342.339972,302.738561 l -6.151511,11.569309 M 319.872863,344.993048 l 13.417788,-25.235188 M 352.722378,287.472205 l -1.604547,3.017714 M 338.822943,313.613239 l 5.923451,-11.140392 M 336.664362,317.672940 l -9.644728,18.139094 M 352.310556,292.506838 l 4.697260,-8.834261 M 347.153581,302.205696 l -4.959508,9.327478 M 331.343296,331.940518 l 8.375324,-15.751694 M 366.438829,270.195530 l -0.598577,1.125760 M 360.888969,280.633298 l 1.321831,-2.486002 M 360.231690,281.869461 l -4.630240,8.708216 M 335.093003,329.148455 l 15.030143,-28.267588 M 316.831432,363.493474 l -1.764249,3.318070 M 308.625000,378.927528 l 4.491312,-8.446930 M 364.003093,279.036593 l -5.645634,10.617894 M 348.865200,307.506828 l 6.030266,-11.341281 M 348.444217,308.298581 l -9.816481,18.462115 M 321.165609,359.602183 l 0.733015,-1.378600 M 319.380466,362.959547 l -9.266917,17.428537 M 360.493308,289.897646 l 5.007439,-9.417622 M 358.342006,293.943656 l -7.611215,14.314613 M 341.816530,325.023558 l 8.133955,-15.297744 M 323.800966,358.905906 l -11.715811,22.034236 M 362.352729,290.660692 l 5.300053,-9.967951 M 360.231239,294.650635 l -7.499381,14.104285 M 345.094823,323.118094 l 6.626357,-12.462364 M 325.233834,360.471182 l -9.430479,17.736152 M 348.932198,320.161150 l 20.993179,-39.482428 M 326.385378,362.565551 l -1.545913,2.907439 M 366.866413,290.691906 l 5.332741,-10.029426 M 366.126206,292.084033 l -12.450126,23.415282 M 408.675764,216.320062 l 1.229748,-2.312820 M 374.475526,280.641354 l -0.941069,1.769892 M 369.341615,290.296836 l 2.685438,-5.050573 M 368.165509,292.508770 l -12.921604,24.302002 M 415.206023,208.298539 l 0.373427,-0.702314 M 411.698163,214.895865 l -1.789732,3.365996 M 376.063935,281.914101 l 0.640595,-1.204784 M 370.765210,291.879554 l -14.134921,26.583920 M 416.311016,210.480458 l 0.859987,-1.617401 M 373.358182,291.262990 l -14.844944,27.919280 M 417.643629,212.234288 l 0.984072,-1.850770 M 372.225091,297.654135 l -11.600498,21.817364 M 419.033183,213.881026 l 1.037976,-1.952149 M 369.209581,307.585593 l -9.406922,17.691847 M 420.519774,215.345264 l 0.994843,-1.871027 M 370.095017,310.180438 l -8.081024,15.198195 M 422.015343,216.792616 l 0.882089,-1.658969 M 368.890507,316.705901 l -0.585297,1.100784 M 364.601150,324.773008 l 2.430171,-4.570487 M 424.280022,216.793484 l -0.693157,1.303638 M 425.158386,219.401629 l 0.485182,-0.912495 M 426.884519,220.415354 l -0.003337,0.006275 M 371.454068,324.664871 l 1.239552,-2.331259 M 356.107659,383.348031 l -1.979965,3.723773 M 355.453274,388.838860 l 1.140684,-2.145315 M 437.981092,242.146825 l -2.277821,4.283958 M 437.245024,247.791277 l 1.624056,-3.054404 M 386.693216,411.027143 l -8.934007,16.802423 M 369.597284,443.179915 l 6.098714,-11.470014 M 388.779819,411.362923 l -18.760245,35.282889 M 397.155031,399.871548 l 1.970940,-3.706798 M 390.410986,412.555254 l -20.153612,37.903431 M 398.591385,401.430268 l 2.978081,-5.600956 M 392.295267,413.271545 l -12.558982,23.620010 M 370.492685,454.276238 l 6.983274,-13.133628 M 402.846975,397.686776 l -2.075956,3.904306 M 382.582900,435.797959 l 11.658950,-21.927297 M 379.063336,442.417296 l -8.453300,15.898345 M 385.323694,434.903385 l 10.452189,-19.657708 M 380.944898,443.138702 l -10.228429,19.236877 M 388.064488,434.008810 l 8.206453,-15.434093 M 382.900873,443.720158 l -12.077971,22.715360 M 390.767502,433.185288 l 6.182714,-11.627995 M 385.094092,443.855421 l -14.164758,26.640034 M 371.035767,474.555394 l 16.987486,-31.948815 M 391.279309,440.742937 l -20.096691,37.796379 M 371.341724,482.500189 l 22.790046,-42.861843 M 396.948604,438.600762 l -25.337351,47.652627 M 372.353665,489.117223 l 28.039711,-52.735027 M 406.263925,429.601409 l -32.943546,61.957799 M 373.674131,495.154006 l 34.735927,-65.328777 M 410.371251,430.396871 l -36.601841,68.838051 M 374.276401,502.541519 l 38.443102,-72.300960 M 414.172090,431.768749 l -6.390846,12.019433 M 374.805805,505.805963 l 31.122923,-58.533704 M 415.225951,434.046834 l -4.821877,9.068631 M 402.964568,457.107142 l 4.276068,-8.042114 M 402.193849,458.556654 l -26.698104,50.211830 M 412.900916,442.679698 l 4.086479,-7.685549 M 408.621321,450.728446 l -3.633693,6.833983 M 376.200415,511.703301 l 26.389836,-49.632062 M 418.756091,435.927824 l -1.628602,3.062956 M 406.495057,458.987476 l 3.723836,-7.003518 M 403.562455,464.502898 l -26.432456,49.712220 M 407.790161,460.811848 l 4.551457,-8.560045 M 404.543474,466.917979 l -26.266488,49.400079 M 479.326137,330.532353 l 1.435982,-2.700690 M 414.561298,452.337300 l -5.717149,10.752393 M 379.144114,518.947336 l 25.976193,-48.854113 M 483.961887,326.073886 l -3.545812,6.668703 M 409.412150,466.281548 l 5.661844,-10.648380 M 406.992857,470.831577 l -26.711631,50.237272 M 481.377537,335.194450 l 2.067276,-3.887981 M 415.895188,458.348836 l -33.410849,62.836668 M 486.383804,330.039139 l 0.784912,-1.476204 M 485.088224,332.475772 l -2.793015,5.252898 M 384.627883,521.414192 l 33.023657,-62.108466 M 493.572871,320.778580 l -10.243922,19.266015 M 416.666920,465.417637 l 3.797659,-7.142358 M 414.441939,469.602217 l -28.514393,53.627774 M 485.977597,339.323322 l 9.945861,-18.705444 M 424.194776,455.519908 l -6.169523,11.603186 M 412.982777,476.606611 l 3.062557,-5.759833 M 409.595059,482.977982 l -22.283151,41.908512 M 488.701643,338.460245 l 9.278243,-17.449838 M 426.265716,455.885146 l -11.315107,21.280622 M 388.752478,526.437285 l 20.531186,-38.613545 M 499.983345,321.502559 l -9.479840,17.828987 M 416.736520,478.067065 l 10.977079,-20.644883 M 408.291993,493.948911 l -18.052090,33.951044 M 494.534990,336.009534 l 7.293649,-13.717358 M 493.115141,338.679881 l -1.949299,3.666099 M 418.996752,478.076297 l 9.824552,-18.477295 M 409.535979,495.869422 l -17.762984,33.407314 M 500.420608,329.200404 l 3.146904,-5.918466 M 499.634495,330.678867 l -3.781554,7.112070 M 492.185032,344.689271 l 1.907125,-3.586780 M 429.933198,461.767941 l -8.179431,15.383273 M 393.421804,530.435888 l 17.792215,-33.462290 M 505.161235,324.544691 l -2.533735,4.765263 M 494.167125,345.221604 l 7.474985,-14.058403 M 434.319138,457.779297 l -6.276892,11.805117 M 424.362627,476.504772 l 2.475658,-4.656035 M 421.956107,481.030777 l -1.244909,2.341333 M 395.157153,531.432279 l 17.678622,-33.248651 M 506.497143,326.292322 l -1.637732,3.080125 M 502.460787,333.883604 l 0.361893,-0.680621 M 501.268039,336.126836 l -4.928502,9.269163 M 430.396118,469.417533 l 5.908343,-11.111977 M 427.641500,474.598217 l -1.017639,1.913901 M 396.988571,532.247991 l 17.247815,-32.438421 M 502.096768,338.828333 l -3.549005,6.674708 M 432.776734,469.200355 l 5.373238,-10.105591 M 415.489593,501.712739 l -16.571478,31.166418 M 500.805357,345.517232 l 2.747931,-5.168107 M 439.906565,460.051202 l -4.533268,8.525838 M 413.839506,509.076209 l 3.276062,-6.161376 M 412.907266,510.829499 l -12.086947,22.732241 M 503.124806,345.415092 l 2.235519,-4.204399 M 498.101438,354.862673 l -2.644676,4.973912 M 437.694708,468.471210 l 3.968450,-7.463570 M 418.890693,503.836418 l -13.502046,25.393656 M 402.721865,534.245561 l 1.369133,-2.574965 M 507.511975,341.424137 l -1.933127,3.635684 M 492.079357,370.448670 l 9.136508,-17.183273 M 443.428187,461.948212 l -3.726099,7.007773 M 407.221883,530.042366 l 13.664409,-25.699016 M 405.044983,534.136521 l -1.012464,1.904168 M 508.267447,344.263409 l 4.039531,-7.597254 M 502.823966,354.501107 l -8.797405,16.545512 M 441.548988,469.742582 l 3.671097,-6.904329 M 423.054769,504.525148 l -14.162131,26.635094 M 405.001810,538.477826 l 1.357847,-2.553739 M 513.633924,338.430644 l -2.158405,4.059369 M 496.062692,371.477324 l 8.237997,-15.493420 M 447.011981,463.728293 l -3.645615,6.856404 M 410.462428,532.468006 l 14.903722,-28.029825 M 407.627376,537.799963 l -1.050130,1.975006 M 501.201386,366.072955 l 4.488055,-8.440804 M 499.813548,368.683098 l -1.612743,3.033128 M 445.080149,471.621651 l 3.723730,-7.003317 M 427.854856,504.017715 l -15.877043,29.860374 M 503.107152,366.748840 l 3.902113,-7.338807 M 501.730846,369.337294 l -1.244078,2.339770 M 446.793931,472.658605 l 3.801845,-7.150230 M 428.799717,506.500799 l -15.455903,29.068326 M 409.004986,543.729273 l 0.912228,-1.715651 M 505.335250,366.818506 l -2.522015,4.743221 M 448.532944,473.648105 l 3.854729,-7.249690 M 428.875063,510.619202 l -14.114510,26.545532 M 410.032597,546.056728 l 1.287029,-2.420549 M 507.005453,367.937419 l -2.090400,3.931470 M 450.288071,474.607300 l 3.884094,-7.304919 M 436.969350,499.656172 l -1.225198,2.304263 M 416.247522,538.628262 l 14.430006,-27.138894 M 412.722037,545.258735 l -1.655973,3.114432 M 506.835506,372.517152 l 2.248113,-4.228086 M 455.952815,468.213576 l -3.781219,7.111438 M 417.947791,539.690631 l 14.776816,-27.791148 M 413.990891,547.132478 l -1.891358,3.557127 M 510.267067,370.323433 l 1.103899,-2.076132 M 509.585991,371.604351 l -0.890803,1.675357 M 454.104021,475.950761 l 3.629444,-6.825991 M 433.631166,514.454600 l -13.908268,26.157648 M 413.186409,552.905596 l 2.036189,-3.829515 M 513.646524,368.227709 l -1.592369,2.994811 M 510.554870,374.042263 l 0.867504,-1.631537 M 459.494056,470.073689 l -3.424874,6.441252 M 421.598326,541.345191 l 12.566661,-23.634453 M 416.454306,551.019685 l -2.129883,4.005728 M 512.400534,374.831183 l 3.051680,-5.739375 M 461.205578,471.114891 l -3.171237,5.964229 M 447.242848,497.374969 l 3.435772,-6.461747 M 435.442002,519.569131 l -0.858583,1.614759 M 423.473753,542.078133 l 8.772783,-16.499205 M 417.678618,552.977198 l -2.011030,3.782197 M 514.231712,375.647348 l 2.582399,-4.856786 M 462.917599,472.155157 l -3.059364,5.753827 M 449.996349,496.456494 l 4.932798,-9.277244 M 437.622186,519.728911 l -1.232970,2.318880 M 425.349181,542.811076 l 8.190134,-15.403402 M 418.902645,554.935247 l -1.819623,3.422214 M 516.062889,376.463513 l 1.961941,-3.689875 M 464.655569,473.146620 l -3.288438,6.184652 M 454.167856,492.871140 l 4.973546,-9.353880 M 439.626406,520.219630 l -1.654771,3.112171 M 427.224608,543.544019 l 8.139640,-15.308435 M 420.126672,556.893296 l -1.710396,3.216788 M 517.894067,377.279678 l 1.202613,-2.261786 M 466.575417,473.796021 l -8.047785,15.135682 M 439.942453,523.885340 l 1.250918,-2.352635 M 437.359084,528.743951 l -8.227341,15.473378 M 419.025204,563.224965 l 2.325495,-4.373621 M 468.582572,474.281219 l -5.665217,10.654724 M 437.105333,533.481297 l 2.422310,-4.555702 M 436.356240,534.890135 l -5.253543,9.880477 M 419.926170,565.790603 l 2.691026,-5.061084 M 470.558803,474.824578 l -3.921297,7.374886 M 433.073652,545.323895 l 8.810544,-16.570224 M 423.732701,562.891669 l -0.660550,1.242314 M 468.664893,482.646614 l 3.739323,-7.032645 M 445.232631,526.716290 l -10.004174,18.815114 M 421.810522,570.766870 l 2.232351,-4.198441 M 474.251065,476.400661 l -3.832064,7.207064 M 440.601994,539.685361 l 7.668584,-14.422509 M 426.050733,567.052303 l -3.309190,6.223682 M 472.106268,484.694548 l 3.997466,-7.518141 M 450.909562,524.559754 l -8.776964,16.507068 M 423.824039,575.500214 l 3.721919,-6.999911 M 478.083634,477.712865 l -4.290101,8.068506 M 443.546544,542.667684 l 9.345472,-17.576276 M 428.922988,570.170594 l -4.019682,7.559922 M 475.478139,486.873198 l 5.652777,-10.631328 M 454.581777,526.173540 l -9.741277,18.320678 M 425.975889,579.973390 l 4.226374,-7.948653 M 483.287631,476.445790 l -6.185045,11.632378 M 446.089042,546.406159 l 10.124521,-19.041454 M 430.990935,574.801569 l -3.942463,7.414694 M 478.727032,489.283136 l 6.527777,-12.276963 M 467.445150,510.501272 l -2.698724,5.075562 M 447.011931,548.930567 l 10.797385,-20.306929 M 430.933198,579.170265 l -2.812143,5.288871 M 480.351479,490.488106 l 6.870125,-12.920826 M 470.192422,509.594513 l -2.931707,5.513739 M 458.308857,531.944248 l 0.938275,-1.764639 M 456.732073,534.909747 l -8.883631,16.707681 M 429.193638,586.702010 l 2.435332,-4.580194 M 489.095138,478.303784 l -7.227210,13.592405 M 469.625381,514.921070 l 2.514271,-4.728657 M 458.364119,536.100424 l -9.355395,17.594940 M 434.898840,580.232196 l 1.287490,-2.421416 M 432.451687,584.834621 l -2.189541,4.117928 M 483.370306,493.330736 l 7.598366,-14.290447 M 480.672932,498.403758 l -1.964049,3.693838 M 472.014606,514.687700 l 1.937191,-3.643326 M 460.266823,536.782067 l -3.398753,6.392125 M 450.363376,555.407742 l 5.755929,-10.825329 M 437.521707,579.559410 l -1.401494,2.635826 M 431.314181,591.234068 l 2.072855,-3.898474 M 492.842205,479.776794 l -12.771517,24.019729 M 474.852635,513.610254 l 0.536266,-1.008570 M 462.315138,537.189856 l -3.409879,6.413050 M 451.890070,556.796558 l 5.213954,-9.806021 M 438.828148,581.362460 l -1.461811,2.749266 M 432.366216,593.515587 l 1.975284,-3.714968 M 494.756009,480.437560 l -13.278861,24.973906 M 460.427527,545.000044 l 3.657811,-6.879343 M 458.454450,548.710863 l -4.828388,9.080878 M 438.703895,585.856254 l 1.524887,-2.867895 M 435.262747,592.328112 l -1.844496,3.468993 M 482.883608,507.026408 l 13.807995,-25.969062 M 465.601017,539.530235 l -3.970038,7.466555 M 454.526679,560.358034 l 5.618907,-10.567628 M 441.658405,584.559739 l -1.611689,3.031147 M 434.470286,598.078624 l 1.518426,-2.855744 M 498.648772,481.636556 l -3.050319,5.736815 M 484.290068,508.641350 l 10.110598,-19.015270 M 467.090665,540.988723 l -11.015098,20.716386 M 441.464479,589.184570 l 1.653996,-3.110714 M 437.329448,596.961432 l -1.807126,3.398710 M 485.696529,510.256292 l 14.940915,-28.099774 M 468.416235,542.755798 l -10.647447,20.024935 M 442.918748,590.709596 l 1.718244,-3.231546 M 439.035885,598.012198 l -2.461529,4.629463 M 491.947979,502.759132 l 10.678136,-20.082652 M 490.248345,505.955680 l -3.145356,5.915554 M 459.528352,563.731584 l 10.172282,-19.131280 M 446.169737,588.855483 l -1.693661,3.185314 M 437.614165,604.946174 l 3.111493,-5.851868 M 504.614787,483.196441 l -4.466918,8.401051 M 494.813653,501.629693 l 3.912334,-7.358031 M 491.548642,507.770286 l -3.043887,5.724719 M 461.379382,564.510411 l 9.377419,-17.636361 M 447.879118,589.900714 l -1.677524,3.154964 M 438.641162,607.274784 l 3.673425,-6.908708 M 506.646961,483.634585 l -4.584349,8.621907 M 497.004255,501.769878 l 3.210815,-6.038665 M 493.080644,509.149117 l -3.203414,6.024746 M 463.331757,565.098637 l 8.024715,-15.092294 M 449.866734,590.422662 l -1.240148,2.332380 M 439.668158,609.603394 l 4.148376,-7.801961 M 508.681292,484.068675 l -4.411756,8.297307 M 499.001844,502.273069 l 2.919141,-5.490105 M 494.627871,510.499316 l -3.378165,6.353405 M 465.344158,565.573970 l 7.396623,-13.911024 M 445.243281,603.378221 l -4.548127,8.553782 M 506.641106,492.165816 l 4.074517,-7.663052 M 503.629140,497.830499 l -2.734441,5.142736 M 492.622181,518.531580 l 3.552917,-6.682064 M 476.040349,549.717468 l -8.599584,16.173465 M 441.718361,614.267741 l 4.906927,-9.228587 M 512.749953,484.936854 l -3.700984,6.960538 M 502.750328,503.743414 l 2.586968,-4.865379 M 497.722323,513.199715 l -3.743793,7.041051 M 469.674526,565.949950 l 9.463208,-17.797706 M 453.479919,596.407577 l -1.232691,2.318354 M 442.739967,616.606487 l 5.220173,-9.817718 M 514.784284,485.370944 l -3.327451,6.258025 M 504.605957,504.513592 l 2.454962,-4.617111 M 499.290586,514.510351 l -4.027379,7.574398 M 477.973618,554.601736 l 3.076388,-5.785845 M 477.434890,555.614937 l -5.362654,10.085685 M 443.761574,618.945234 l 5.475033,-10.297040 M 516.818614,485.805033 l -2.948946,5.546161 M 506.417447,505.366783 l 2.381997,-4.479884 M 500.933727,515.680161 l -4.655757,8.756205 M 479.729784,555.558977 l 2.865782,-5.389753 M 475.909181,562.744486 l -0.830074,1.561142 M 444.783180,621.283980 l 5.749802,-10.813804 M 518.873839,486.199827 l -2.586345,4.864207 M 508.191619,506.290160 l 2.313859,-4.351737 M 502.650287,516.711891 l -5.293729,9.956056 M 482.486227,554.634972 l 1.267202,-2.383260 M 451.920462,612.120815 l -6.115675,11.501911 M 518.705320,490.776874 l 2.252683,-4.236680 M 512.161062,503.084833 l -2.195270,4.128703 M 498.573700,528.638944 l 5.779986,-10.870573 M 453.576391,613.266575 l -6.734851,12.666413 M 521.123146,490.489714 l 1.919021,-3.609153 M 513.693872,504.462145 l -1.966979,3.699349 M 499.806922,530.579699 l 6.227705,-11.712610 M 455.263361,614.353953 l -7.350078,13.823487 M 523.474112,490.328298 l 1.652218,-3.107370 M 515.040275,506.190039 l -1.643991,3.091898 M 501.041819,532.517306 l 6.841383,-12.866770 M 456.550112,616.194036 l -7.565085,14.227856 M 525.812917,490.189755 l 1.397577,-2.628460 M 516.100579,508.456005 l -1.250609,2.352053 M 502.358431,534.301227 l 8.041085,-15.123081 M 457.445917,618.769381 l -7.389147,13.896964 M 528.151721,490.051213 l 1.121073,-2.108432 M 514.172196,516.342876 l -10.497152,19.742272 M 451.128514,634.910797 l 5.531700,-10.403615 M 531.290704,488.407753 l -0.809402,1.522264 M 504.999334,537.854629 l 12.714033,-23.911618 M 457.852765,626.524429 l -5.652508,10.630821 M 532.806401,489.817252 l 0.502214,-0.944526 M 520.986545,512.047167 l -14.576820,27.415011 M 453.276329,639.391562 l 5.721940,-10.761404 M 523.904027,510.820291 l -15.791144,29.698822 M 454.372377,641.590304 l 5.438960,-10.229197 M 525.826725,511.464330 l -15.638322,29.411407 M 455.482892,643.761839 l 4.762021,-8.956058 M 527.632680,512.327933 l -15.180577,28.550513 M 456.775349,645.591190 l 4.093514,-7.698780 M 529.431256,513.205410 l -14.621423,27.498896 M 458.480047,646.645229 l 3.299939,-6.206282 M 531.159419,514.215317 l -13.875562,26.096136 M 460.571332,646.972202 l 2.489408,-4.681895 M 532.886577,515.227116 l -13.004901,24.458661 M 462.497455,647.609800 l 2.500614,-4.702970 M 534.613734,516.238915 l -7.138924,13.426364 M 522.670304,538.701240 l 2.501398,-4.704446 M 466.048517,645.191332 l -2.306482,4.337862 M 533.664549,522.284181 l 2.587805,-4.866954 M 533.021905,523.492819 l -3.191917,6.003123 M 464.932737,651.549920 l 2.076866,-3.906017 M 548.167487,499.268231 l -0.244465,0.459772 M 532.039117,529.601282 l 5.837220,-10.978214 M 467.970688,650.096473 l -1.615359,3.038048 M 550.194799,499.715519 l 0.162203,-0.305059 M 539.498868,519.831641 l -5.318718,10.003053 M 467.971753,654.354580 l 0.858611,-1.614812 M 553.522360,497.717396 l -0.584271,1.098854 M 536.321184,530.068104 l 4.784804,-8.998908 M 556.108771,497.113174 l -1.205367,2.266966 M 538.462217,530.301515 l 4.250891,-7.994763 M 558.695182,496.508952 l -1.572740,2.957894 M 540.665605,530.417653 l 3.754344,-7.060893 M 561.579690,495.344090 l -2.084608,3.920577 M 542.871305,530.529446 l 3.285254,-6.178665 M 566.006886,491.277855 l -4.031417,7.581992 M 545.198081,530.413525 l 2.735876,-5.145434 M 474.240336,663.865634 l -0.683948,1.286318 M 564.609515,498.166035 l 3.767612,-7.085848 M 549.553089,526.483054 l -1.720128,3.235090 M 567.199010,497.556013 l 3.350562,-6.301492 M 572.563354,491.727257 l -2.797604,5.261528 M 476.959745,671.531496 l 0.464262,-0.873150 M 574.299556,492.722046 l -1.967065,3.699512 M 478.116769,673.615560 l 0.604010,-1.135977 M 576.096102,493.603343 l -1.196871,2.250988 M 479.300193,675.649972 l 0.664305,-1.249377 M 578.186266,493.932425 l -0.727000,1.367288 M 480.483617,677.684384 l 0.709926,-1.335177 M 580.320688,494.178271 l -0.306420,0.576293 M 481.678043,679.698103 l 0.671563,-1.263027 M 483.505670,680.520945 l -0.586849,1.103703 M 484.246583,683.387600 l 0.238714,-0.448956 M 592.663085,492.266142 l -0.210390,0.395685 M 594.686427,492.720899 l 0.263953,-0.496423 M 600.124477,491.013631 l -0.431612,0.811744 M 601.870385,491.990166 l 0.657954,-1.237431 M 604.581072,491.152214 l -0.228171,0.429127 M 609.222662,490.942871 l 1.263967,-2.377177 M 612.951613,488.189842 l -1.297596,2.440423 M 614.139215,490.216397 l 1.277382,-2.402407 M 617.881745,487.437830 l -1.244583,2.340720 M 619.178088,489.259873 l 1.169699,-2.199884 M 622.813828,486.682150 l -1.094815,2.059047 M 624.259938,488.222521 l 1.053791,-1.981892 M 627.849798,485.731084 l -1.048935,1.972760 M 629.351852,487.166241 l 1.034016,-1.944701 M 632.928211,484.700197 l -1.010177,1.899866 M 634.484217,486.033885 l 0.991253,-1.864275 M 638.022728,483.639022 l -0.972329,1.828685 M 639.616581,484.901530 l 0.904087,-1.700341 M 642.999572,482.799157 l -0.779335,1.465716 M 644.846533,483.585638 l 0.576270,-1.083807 M 647.709679,482.460954 l -0.149121,0.280456"
       id="path5" />
  </g>
  <g
     inkscape:label="fill-303030"
     inkscape:groupmode="layer"
     id="fill-303030">
    <path
       style="stroke:#303030"
       d="M 100.546121,159.322590 l -0.111453,0.306216 M 181.724451,38.620117 l 2.028373,-5.572908 M 188.884623,33.566727 l -2.787686,7.659105 M 129.211483,197.517331 l 0.346791,-0.952801 M 193.402969,35.771696 l -2.238383,6.149906 M 206.765732,13.676828 l 0.800394,-2.199065 M 197.331586,39.596931 l -0.773177,2.124285 M 210.699015,17.489245 l 2.320253,-6.374844 M 199.804687,47.421163 l -0.547118,1.503193 M 215.230102,19.659207 l 2.666847,-7.327101 M 222.162041,15.232882 l -1.579741,4.340303 M 154.171981,231.272082 l 1.151075,-3.162554 M 163.302094,250.044369 l -0.468211,1.286399 M 171.289589,257.336950 l 0.792271,-2.176747 M 176.463310,257.741290 l -1.638724,4.502358 M 180.307575,261.798280 l 0.855902,-2.351572 M 206.837260,203.527591 l -1.682710,4.623208 M 185.101106,263.247185 l 0.598695,-1.644902 M 212.335471,203.040405 l -2.324927,6.387683 M 190.212342,263.823202 l 0.767470,-2.108606 M 217.693618,202.938039 l -0.874512,2.402701 M 221.813963,206.236505 l 1.141229,-3.135501 M 200.575597,264.588436 l -0.883104,2.426307 M 226.497351,207.988025 l 1.709032,-4.695526 M 225.028987,212.022321 l -1.288427,3.539924 M 231.545577,208.737159 l 1.850996,-5.085568 M 230.216856,212.387791 l -1.246087,3.423595 M 218.214753,245.363298 l 4.198056,-11.534064 M 238.578914,204.032247 l -2.893995,7.951187 M 232.768704,219.995668 l 2.512555,-6.903187 M 227.716683,233.875980 l -5.558075,15.270685 M 214.738007,269.534601 l 0.454765,-1.249458 M 243.747150,204.451656 l -3.533837,9.709137 M 224.942167,256.117925 l 8.062744,-22.152206 M 248.915387,204.871065 l -3.734977,10.261764 M 229.477595,258.275959 l 8.758164,-24.062858 M 254.084107,205.289146 l -4.374788,12.019631 M 234.217198,259.873028 l 9.250047,-25.414294 M 218.426671,303.257144 l -0.031419,0.086324 M 253.864192,220.512380 l 5.435785,-14.934696 M 248.708717,234.676929 l -13.946256,38.317023 M 222.466230,306.777570 l 0.317096,-0.871215 M 264.515846,205.866222 l -6.202624,17.041568 M 237.926585,278.919616 l 16.023604,-44.024491 M 276.538226,187.454026 l -2.275768,6.252622 M 264.158804,221.466208 l 5.572911,-15.311447 M 259.191662,235.113320 l -17.475773,48.014292 M 278.552499,196.538878 l 2.916508,-8.013039 M 274.947585,206.443299 l -7.078138,19.447025 M 245.667552,286.889528 l 18.842416,-51.769112 M 310.060820,124.589500 l -1.181414,3.245907 M 283.331338,198.028150 l 4.857153,-13.344919 M 280.105565,206.890886 l -6.655555,18.285988 M 250.287166,288.816264 l 19.638508,-53.956356 M 314.836547,126.087319 l -0.635913,1.747157 M 312.813203,131.646413 l 1.304259,-3.583422 M 299.851119,167.259444 l -0.531122,1.459247 M 288.498408,198.450761 l 4.644342,-12.760226 M 285.256688,207.357314 l -6.763166,18.581645 M 255.035708,290.388777 l 20.372219,-55.972213 M 318.355287,131.038685 l -0.640268,1.759123 M 315.843695,137.939227 l 0.144089,-0.395881 M 314.251270,142.314377 l -2.290150,6.292134 M 309.908221,154.246805 l 0.986659,-2.710822 M 306.395201,163.898750 l -2.255771,6.197681 M 300.716105,179.501937 l 1.053304,-2.893930 M 297.865048,187.335152 l -4.400371,12.089920 M 283.200984,227.624338 l 7.281184,-20.004889 M 280.958034,233.786792 l -9.292745,25.531608 M 258.236390,296.213995 l 12.945144,-35.566491 M 322.971898,132.973672 l -3.856015,10.594316 M 316.769159,150.015557 l 1.769780,-4.862431 M 315.503928,153.491751 l -1.613433,4.432872 M 312.290001,162.321941 l 0.933223,-2.564009 M 311.474835,164.561592 l -2.410398,6.622513 M 306.146470,179.201153 l 0.705172,-1.937444 M 304.578636,183.508743 l -6.336263,17.408738 M 288.234378,228.414224 l 8.176965,-22.466027 M 286.636700,232.803807 l -9.034750,24.822771 M 260.366186,304.981451 l 16.444234,-45.180161 M 327.167954,136.064123 l -7.772773,21.355517 M 311.703634,178.551993 l 4.153226,-11.410894 M 309.770610,183.862934 l -6.389946,17.556231 M 293.526706,228.492694 l 8.615020,-23.669572 M 292.224959,232.069214 l -27.992660,76.909201 M 308.268077,202.610131 l 23.001967,-63.197384 M 307.522081,204.659739 l -38.723855,106.392918 M 321.709031,180.300436 l 13.624488,-37.432973 M 321.106574,181.955673 l -47.601410,130.783800 M 309.465736,228.557635 l 29.879744,-82.093922 M 308.903424,230.102575 l -30.551036,83.938283 M 316.373074,224.198900 l 26.889049,-73.877055 M 315.749024,225.913465 l -32.322391,88.805040 M 319.517667,230.178224 l 27.554356,-75.704971 M 319.231280,230.965066 l -30.534738,83.893504 M 284.209651,327.186202 l 3.103820,-8.527675 M 350.488286,159.706170 l -64.293968,176.646226 M 289.760192,341.174260 l 64.292503,-176.642200 M 357.883717,168.625434 l -61.159697,168.034886 M 303.258287,333.326591 l 58.856896,-161.707993 M 300.820759,340.023645 l -10.075027,27.680908 M 295.177653,370.146974 l 72.037452,-197.921273 M 371.615010,174.756083 l -72.302806,198.650326 M 368.494252,197.949318 l 7.005662,-19.247898 M 365.764196,205.450085 l -0.462577,1.270921 M 310.718615,356.686575 l 50.277178,-138.135412 M 308.383061,363.103458 l -1.634751,4.491443 M 303.093395,377.636696 l 1.675117,-4.602347 M 379.309161,182.854621 l -5.879836,16.154718 M 318.656540,349.496328 l 43.536175,-119.614657 M 313.160315,364.597083 l -6.231904,17.122015 M 378.622206,199.361037 l 4.335723,-11.912302 M 362.645640,243.256291 l -37.419960,102.810494 M 311.435928,383.953818 l 12.702244,-34.899129 M 311.008628,385.127815 l -0.744030,2.044205 M 384.291514,198.403763 l 1.941135,-5.333224 M 364.212937,253.569201 l -32.544835,89.416198 M 316.911744,383.528159 l 14.436286,-39.663369 M 314.984176,388.824110 l -0.129464,0.355701 M 342.550421,327.705494 l 24.815407,-68.179771 M 342.092099,328.964723 l -1.347632,3.702590 M 323.924312,378.880310 l 14.365044,-39.467635 M 370.358736,265.921799 l -22.353745,61.416409 M 340.123586,348.992190 l 6.787320,-18.648009 M 373.338386,272.354302 l -24.636466,67.688133 M 329.894960,391.714133 l 7.594083,-20.864572 M 401.942853,208.383195 l -3.335576,9.164420 M 356.975091,331.931106 l 20.461867,-56.218517 M 346.685242,360.202233 l -3.924653,10.782895 M 405.095141,214.341377 l 1.981129,-5.443108 M 382.021523,277.735622 l -3.819219,10.493217 M 362.360420,331.754059 l 12.114123,-33.283280 M 413.747088,205.189369 l -7.351423,20.197868 M 362.112087,347.055369 l 14.432846,-39.653919 M 417.831091,208.587686 l -5.199548,14.285641 M 408.049982,235.461061 l 2.522909,-6.931637 M 377.927158,318.222840 l -3.080162,8.462676 M 358.431104,371.787810 l 2.371518,-6.515691 M 356.912858,375.959155 l -5.375426,14.768862 M 419.382401,218.944519 l 2.357402,-6.476908 M 358.764256,385.491502 l -3.404260,9.353126 M 423.386038,222.563638 l 2.132908,-5.860118 M 416.313193,241.996121 l -1.847117,5.074913 M 426.428398,228.823846 l 2.620508,-7.199788 M 419.324457,248.341764 l -3.419307,9.394469 M 356.826056,420.054709 l 1.873306,-5.146867 M 432.528397,226.683257 l -2.353782,6.466962 M 420.011833,261.072235 l 3.711138,-10.196269 M 359.491086,427.351622 l -4.703576,12.922969 M 433.919183,237.481128 l 1.783820,-4.901006 M 432.903535,240.271596 l -2.462035,6.764386 M 428.060946,253.576502 l 1.909630,-5.246666 M 422.717746,268.256822 l -1.399177,3.844207 M 359.005459,443.304892 l 9.513914,-26.139264 M 438.556419,239.359447 l -4.175174,11.471196 M 432.216486,256.778271 l 0.406356,-1.116455 M 376.722603,409.246461 l -11.862825,32.592843 M 440.059961,249.847521 l 0.619847,-1.703014 M 437.889686,255.810303 l -1.570208,4.314110 M 368.748774,445.773397 l 14.121556,-38.798657 M 387.496811,408.882612 l -17.960599,49.346341 M 396.337974,399.210737 l 1.181117,-3.245092 M 392.283468,410.350403 l -10.209934,28.051563 M 370.080430,471.352748 l 11.063495,-30.396703 M 403.135012,395.155051 l -4.900302,13.463470 M 388.359461,435.750544 l 9.505101,-26.115050 M 386.572585,440.659945 l -15.821186,43.468352 M 404.748268,405.341691 l 1.305647,-3.587235 M 403.852053,407.804021 l -9.205723,25.292517 M 372.540041,493.833065 l 20.169556,-55.415398 M 404.857402,419.660867 l -5.089935,13.984480 M 373.842847,504.872658 l 25.319253,-69.564076 M 408.615204,423.955414 l -32.718501,89.893342 M 378.759360,520.602693 l 33.517767,-92.089307 M 417.948849,427.549480 l -6.917924,19.006839 M 405.729401,461.122137 l 4.126312,-11.336948 M 405.131837,462.763930 l -21.907383,60.190041 M 418.151006,441.613078 l 2.208642,-6.068195 M 415.328880,449.366807 l -27.999351,76.927585 M 391.370371,529.811292 l 28.396971,-78.020036 M 425.638945,450.278180 l -10.654585,29.273231 M 395.623130,532.745953 l 18.166763,-49.912772 M 429.477501,454.350857 l -11.677008,32.082317 M 400.260675,534.623427 l 15.095068,-41.473357 M 481.938579,324.834250 l -2.996287,8.232232 M 422.355605,488.537126 l 11.880692,-32.641933 M 418.053832,500.356149 l -13.950460,38.328574 M 481.097656,341.763689 l 9.113854,-25.040108 M 438.805114,457.961494 l -8.443844,23.199270 M 410.778685,534.963474 l 11.812060,-32.453367 M 409.925897,537.306490 l -2.417916,6.643168 M 483.599005,349.510312 l 11.702035,-32.151078 M 443.256814,460.349570 l -4.456087,12.242999 M 414.531220,539.272491 l 13.774936,-37.846326 M 413.292669,542.675381 l -2.645066,7.267260 M 490.679443,344.675992 l 9.314914,-25.592517 M 447.640491,462.924538 l -3.928726,10.794087 M 418.772989,542.237349 l 15.919063,-43.737267 M 416.677382,547.994981 l -2.857287,7.850331 M 494.594843,348.537540 l 9.798450,-26.921020 M 452.187120,465.051800 l -3.802664,10.447735 M 423.295566,544.430694 l 17.360326,-47.697104 M 420.005032,553.471360 l -2.824353,7.759846 M 505.490518,333.220939 l 2.964476,-8.144831 M 504.351365,336.350737 l -4.106824,11.283405 M 491.475562,371.726715 l 8.092625,-22.234304 M 456.847619,466.866208 l -3.756157,10.319956 M 444.520231,500.735428 l 3.639378,-9.999110 M 438.482741,517.323294 l -10.502116,28.854326 M 419.832506,568.564394 l 3.748876,-10.299952 M 509.877516,335.786785 l -4.100187,11.265171 M 496.522164,372.480313 l 7.320327,-20.112432 M 461.518544,468.651968 l -3.480805,9.563433 M 451.080577,497.330046 l 4.866633,-13.370964 M 443.098166,519.261540 l -10.307952,28.320865 M 422.864300,574.853632 l 4.069241,-11.180149 M 515.917178,333.811972 l -0.413416,1.135850 M 511.716827,345.352342 l 3.372254,-9.265193 M 508.212669,354.979935 l -6.652118,18.276543 M 458.946163,490.338549 l 7.293575,-20.038934 M 447.732512,521.147802 l -9.259704,25.440828 M 425.896093,581.142869 l 4.785189,-13.147198 M 510.381070,363.641324 l -3.801459,10.444423 M 466.863875,483.203834 l 4.104811,-11.277877 M 452.500086,522.668022 l -8.682792,23.855774 M 428.888990,587.538976 l 5.785112,-15.894464 M 515.772110,363.448586 l -4.420143,12.144244 M 471.380585,485.413300 l 4.355580,-11.966857 M 460.550954,515.167465 l -2.228088,6.121621 M 446.616011,553.453407 l 10.473622,-28.776040 M 438.934740,574.557526 l -7.077980,19.446590 M 515.951698,377.574194 l 2.367108,-6.503576 M 480.533378,474.885228 l -4.871890,13.385408 M 464.845494,517.987337 l 3.381098,-9.289491 M 461.551604,527.037224 l -11.497697,31.589664 M 438.868809,589.357692 l 5.015110,-13.778901 M 437.917151,591.972349 l -3.099048,8.514564 M 519.912645,381.310604 l 1.132590,-3.111766 M 485.316779,476.361964 l -5.442632,14.953508 M 474.433583,506.263301 l 1.667471,-4.581338 M 474.099926,507.180015 l -4.067050,11.174128 M 442.631658,593.638370 l 23.126669,-63.540002 M 441.860789,595.756316 l -4.099588,11.263525 M 479.696037,506.423847 l 10.394546,-28.558780 M 477.545304,512.332939 l -0.974553,2.677563 M 455.257036,573.569452 l 14.547175,-39.968034 M 454.205876,576.457489 l -2.853223,7.839164 M 446.356939,598.022266 l 3.875987,-10.649186 M 445.855645,599.399562 l -5.167100,14.196490 M 483.640712,510.204965 l 11.218670,-30.823043 M 473.886916,537.003298 l -10.829641,29.754194 M 450.191885,602.104861 l 4.034634,-11.085065 M 449.084013,605.148715 l -5.501166,15.114328 M 487.501615,514.216244 l 12.118755,-33.296006 M 478.421181,539.164530 l -10.217430,28.072159 M 454.784889,604.104709 l 2.537955,-6.972975 M 452.507251,610.362467 l -5.968709,16.398893 M 497.047543,502.608042 l 7.424648,-20.399053 M 494.646516,509.204811 l -3.346030,9.193143 M 474.034285,565.836449 l 8.504399,-23.365645 M 456.900444,612.911291 l -7.358026,20.216010 M 505.704244,493.442976 l 3.645055,-10.014706 M 504.455993,496.872515 l -2.737220,7.520449 M 494.801380,523.398347 l 4.004302,-11.001728 M 486.656508,545.776199 l -5.250649,14.426039 M 452.546294,639.493242 l 6.691915,-18.385885 M 514.278659,484.503987 l -2.876997,7.904485 M 506.266100,506.518310 l 2.462439,-6.765497 M 502.990885,515.516888 l -5.266850,14.470552 M 490.017571,551.160777 l 1.564155,-4.297481 M 460.786436,631.472661 l -4.981013,13.685221 M 516.980113,491.700825 l 2.250861,-6.184191 M 513.056845,502.479914 l -2.385355,6.553710 M 501.104873,535.317687 l 6.217620,-17.082770 M 498.519136,542.421942 l -1.249246,3.432274 M 459.622214,649.290356 l 3.823082,-10.503831 M 524.218409,486.432791 l -1.763173,4.844279 M 504.727976,539.982316 l 12.359189,-33.956592 M 466.547211,644.883106 l -2.891384,7.944011 M 527.850981,491.071402 l 1.347144,-3.701247 M 521.384098,508.839017 l -11.988280,32.937529 M 467.516482,656.839075 l 1.941097,-5.333121 M 534.159761,488.357195 l -0.924468,2.539954 M 514.802264,541.541481 l 11.239709,-30.880846 M 472.425204,657.971496 l -1.365388,3.751373 M 538.673389,490.575124 l 0.388197,-1.066563 M 530.528514,512.952985 l -9.902185,27.206029 M 473.973944,668.335391 l 1.602696,-4.403370 M 544.085195,490.325333 l -0.096869,0.266144 M 529.427766,530.596289 l 5.466808,-15.019933 M 478.526084,670.447510 l -1.455639,3.999335 M 549.306267,490.599578 l 0.093135,-0.255887 M 546.488633,498.340963 l -0.671758,1.845641 M 534.685715,530.769214 l 4.452316,-12.232638 M 481.838320,675.966238 l -1.637426,4.498791 M 551.061740,500.395478 l 1.210229,-3.325077 M 543.359577,521.556996 l -3.409372,9.367174 M 483.460452,686.128490 l 1.692981,-4.651428 M 559.687693,491.314888 l -0.281178,0.772531 M 556.513079,500.037068 l 1.542226,-4.237231 M 547.763618,524.076013 l -2.506758,6.887262 M 486.853716,691.424596 l 1.557064,-4.278000 M 565.176216,490.854316 l -3.050575,8.381386 M 490.244742,696.726849 l 1.389881,-3.818667 M 570.499198,490.848567 l -2.607796,7.164860 M 493.621872,702.067284 l 1.215464,-3.339461 M 575.582810,491.500478 l -1.959337,5.383234 M 497.329139,706.500673 l 0.956139,-2.626971 M 580.743811,491.939766 l -1.490663,4.095562 M 584.868838,495.225371 l 1.362623,-3.743775 M 504.754717,715.337108 l -0.652773,1.793478 M 590.483505,494.418222 l 1.615046,-4.437301 M 597.721537,489.150915 l -1.631873,4.483534 M 601.695822,492.850677 l 1.615859,-4.439536 M 608.901826,487.671367 l -1.551837,4.263636 M 613.013962,490.992388 l 1.478009,-4.060795 M 620.160762,485.975737 l -1.445177,3.970592 M 624.439551,488.838883 l 1.390116,-3.819312 M 631.498572,484.063404 l -1.315888,3.615373 M 635.958954,486.427628 l 1.208523,-3.320390 M 642.850839,482.111353 l -1.115615,3.065126 M 647.659025,483.519990 l 0.879029,-2.415112 M 654.122373,480.381110 l -0.251052,0.689760"
       id="path8" />
  </g>
  <g
     inkscape:label="fill-4f4f4f"
     inkscape:groupmode="layer"
     id="fill-4f4f4f">
    <path
       style="stroke:#4f4f4f"
       d="M 84.653007,129.478608 l -1.183876,5.569700 M 89.350239,141.048008 l 1.021991,-4.808089 M 88.942622,142.965697 l -0.548347,2.579769 M 95.284049,146.799767 l 0.967052,-4.549620 M 102.203607,147.913946 l -0.951010,4.474151 M 99.428729,160.968723 l 1.037294,-4.880083 M 108.160161,153.558705 l -0.929700,4.373893 M 105.093321,167.987054 l 1.374075,-6.464516 M 114.174864,158.929894 l -0.883554,4.156796 M 110.018592,178.483615 l 2.450177,-11.527178 M 120.189566,164.301084 l -0.797168,3.750379 M 115.805072,184.928510 l 2.665579,-12.540563 M 126.258549,169.416906 l -0.620366,2.918592 M 123.176027,183.919029 l 1.333022,-6.271376 M 123.080790,184.367085 l -1.650937,7.767046 M 132.081737,175.689102 l 0.266399,-1.253307 M 130.643630,182.454864 l -1.312203,6.173429 M 126.545231,201.736313 l 2.490244,-11.715676 M 136.818612,187.071995 l -4.011262,18.871503 M 132.098379,209.278945 l 0.157278,-0.739935 M 143.040827,191.466915 l -1.132589,5.328413 M 139.333343,208.909256 l 1.823133,-8.577166 M 138.475386,212.945627 l -1.304944,6.139279 M 181.750337,43.021130 l 2.593235,-12.200211 M 176.449123,67.961383 l -1.957153,9.207683 M 148.304049,200.373545 l 0.970611,-4.566366 M 147.269601,205.240238 l -1.635667,7.695207 M 143.015284,225.255228 l 1.619647,-7.619842 M 191.072612,32.831417 l -3.901129,18.353371 M 179.629009,86.669336 l 3.090046,-14.537524 M 155.535017,200.022655 l -0.765921,3.603377 M 151.927151,216.996331 l 1.574175,-7.405913 M 150.831796,222.149570 l -2.516100,11.837321 M 192.897656,57.913401 l 4.434273,-20.861613 M 188.942601,76.520468 l -3.802189,17.887893 M 177.822006,128.838756 l 1.953872,-9.192244 M 161.795374,204.238131 l -0.557761,2.624058 M 158.243399,220.948862 l 1.566995,-7.372130 M 157.211583,225.803170 l -3.543183,16.669365 M 208.063132,20.233585 l 2.545901,-11.977520 M 203.473078,41.828092 l -4.666207,21.952778 M 191.099623,100.040619 l 4.102647,-19.301436 M 186.380836,122.240767 l -2.928198,13.776089 M 167.686713,210.189699 l 0.353282,-1.662061 M 166.205219,217.159584 l -1.594450,7.501300 M 159.154771,250.329333 l 4.440725,-20.891966 M 217.312586,10.386464 l -3.801692,17.885553 M 205.057601,68.041638 l 4.550965,-21.410609 M 201.761448,83.548815 l -4.204781,19.781940 M 189.440518,141.514235 l 3.393368,-15.964540 M 185.318672,160.905997 l -1.398419,6.579046 M 174.103695,213.668315 l 0.140700,-0.661942 M 172.550767,220.974265 l -1.420534,6.683088 M 167.729843,243.654932 l 2.269550,-10.677391 M 167.474796,244.854834 l -2.312565,10.879763 M 219.231167,35.028391 l 4.408687,-20.741241 M 215.744054,51.433968 l -3.739531,17.593108 M 204.610817,103.811728 l 3.700100,-17.407601 M 199.442543,128.126546 l -3.819773,17.970619 M 189.255173,176.054355 l 2.832355,-13.325182 M 178.960961,224.484813 l -1.198284,5.637483 M 173.845195,248.552604 l 2.593814,-12.202937 M 173.632415,249.553651 l -2.560197,12.044779 M 225.280692,40.235753 l 4.472352,-21.040761 M 222.005408,55.644756 l -3.230397,15.197822 M 210.782602,108.443906 l 4.010106,-18.866067 M 206.273408,129.657993 l -4.219004,19.848854 M 194.917741,183.082205 l 3.870371,-18.208662 M 185.397185,227.872903 l -0.933012,4.389477 M 180.568754,250.588882 l 2.370885,-11.154136 M 180.077975,252.897820 l -3.531523,16.614508 M 231.859800,42.951625 l 3.941802,-18.544722 M 228.361784,59.408496 l -3.065544,14.422250 M 220.290081,97.382874 l 0.883310,-4.155648 M 219.163107,102.684869 l -1.087427,5.115940 M 208.858178,151.165750 l 4.277526,-20.124179 M 205.672632,166.152564 l -4.257778,20.031271 M 191.158705,234.435224 l 0.674562,-3.173563 M 189.488751,242.291738 l -2.006520,9.439936 M 182.565239,274.864299 l 4.014376,-18.886153 M 241.779068,29.953277 l -3.988258,18.763278 M 231.584225,77.916243 l 3.224978,-15.172328 M 227.575447,96.776059 l -0.765501,3.601398 M 215.563129,153.289576 l 4.432051,-20.851160 M 212.716313,166.682792 l -4.739025,22.295361 M 202.581071,214.365353 l 2.871240,-13.508121 M 198.247527,234.753077 l -0.484065,2.277345 M 194.394142,252.881827 l 1.675137,-7.880898 M 193.249011,258.269248 l -4.670076,21.970978 M 244.175723,52.346041 l 3.516584,-16.544225 M 241.050607,67.048559 l -1.469960,6.915616 M 238.034867,81.236499 l 0.460163,-2.164899 M 234.012478,100.160353 l -1.105919,5.202941 M 222.513156,154.260409 l 4.299662,-20.228320 M 219.744592,167.285479 l -5.069092,23.848204 M 207.952118,222.764704 l 5.014477,-23.591262 M 202.649807,247.710119 l -1.395615,6.565853 M 194.760634,284.825757 l 5.197717,-24.453337 M 253.581016,41.765757 l -2.926891,13.769939 M 245.885760,77.969091 l 1.276519,-6.005548 M 244.900196,82.605808 l -0.670112,3.152630 M 238.364607,113.353337 l 2.091542,-9.839930 M 237.957003,115.270963 l -0.320568,1.508156 M 229.078561,157.040749 l 4.498802,-21.165197 M 226.616469,168.623978 l -5.189434,24.414365 M 214.344535,226.358889 l 5.747916,-27.041817 M 209.184451,250.635178 l -0.988724,4.651580 M 203.967470,275.179142 l 2.723137,-12.811353 M 203.524886,277.261337 l -2.738904,12.885530 M 256.881773,59.905060 l 2.579387,-12.135063 M 253.323660,76.644663 l -1.792042,8.430897 M 243.876144,121.091734 l 3.025739,-14.234982 M 240.262249,138.093773 l -4.233226,19.915764 M 228.174168,194.963721 l 5.298898,-24.929354 M 227.112570,199.958149 l -10.435172,49.093623 M 215.142825,256.271372 l 0.556570,-2.618458 M 213.437894,264.292441 l -2.141880,10.076754 M 206.671514,296.125755 l 3.617552,-17.019246 M 265.273462,54.093405 l -2.105648,9.906293 M 257.486347,90.728904 l 2.034961,-9.573737 M 253.354201,110.169120 l -2.378026,11.187731 M 242.711214,160.240440 l 4.202457,-19.771005 M 240.410790,171.063082 l -5.379225,25.307265 M 221.856938,258.352091 l 12.275884,-57.753492 M 220.175698,266.261707 l -1.578116,7.424454 M 212.557046,302.104643 l 4.573155,-21.515003 M 271.085765,60.416813 l -2.137783,10.057479 M 263.349942,96.810997 l 2.413927,-11.356633 M 259.828853,113.376417 l -2.992798,14.080005 M 249.261215,163.093248 l 4.310785,-20.280651 M 247.352708,172.072067 l -5.371443,25.270653 M 228.357632,261.436871 l 12.838390,-60.399877 M 226.816896,268.685465 l -0.931309,4.381464 M 218.644167,307.135133 l 5.356420,-25.199975 M 276.767020,67.356748 l -1.832134,8.619515 M 269.362830,102.190723 l 2.643600,-12.437160 M 266.255753,116.808370 l -3.418651,16.083491 M 256.201052,164.112020 l 4.037588,-18.995356 M 254.253319,173.275384 l -5.489779,25.827377 M 232.723731,274.564133 l 15.649575,-73.625460 M 230.908379,283.104691 l -5.912478,27.816021 M 281.053407,80.859022 l 1.379906,-6.491947 M 278.248992,94.052760 l -2.896740,13.628090 M 269.177886,136.728958 l 3.518605,-16.553735 M 266.905294,147.420662 l -4.272326,20.099711 M 238.195834,282.488050 l 22.916764,-107.814896 M 237.980366,283.501748 l -6.698532,31.514116 M 286.497056,88.916810 l 1.664022,-7.828608 M 284.482545,98.394337 l -3.219612,15.147085 M 275.164166,142.233863 l 4.150333,-19.525784 M 273.523590,149.952168 l -4.175056,19.642095 M 243.635921,290.562597 l 24.322345,-114.427635 M 241.774534,299.319734 l -1.685770,7.930923 M 237.325333,320.251578 l 0.907977,-4.271694 M 290.697794,102.822031 l -3.554577,16.722968 M 281.427149,146.436986 l 4.254299,-20.014905 M 280.141398,152.485967 l -4.230364,19.902297 M 250.694727,291.021663 l 24.091400,-113.341125 M 248.917704,299.381898 l -0.410226,1.929962 M 243.221130,326.182175 l 2.656119,-12.496060 M 299.592603,94.643387 l -0.832021,3.914349 M 293.014062,125.592989 l 3.844001,-18.084603 M 292.151769,129.649758 l -4.569188,21.496340 M 282.252072,176.224169 l 4.545820,-21.386401 M 281.651218,179.050965 l -25.210395,118.605582 M 249.638383,329.659511 l 3.945533,-18.562272 M 305.646882,99.828381 l -1.151341,5.416634 M 258.854340,319.969983 l 44.151515,-207.716548 M 257.793451,324.961074 l -0.876935,4.125654 M 310.318151,111.519929 l 1.309795,-6.162099 M 309.149443,117.018267 l -41.981585,197.507831 M 261.465496,341.353600 l 2.026212,-9.532580 M 317.133954,113.122240 l -1.044561,4.914272 M 274.060700,315.765967 l 41.308575,-194.341566 M 271.960975,325.644396 l -4.246023,19.975970 M 322.061489,123.608151 l 1.004458,-4.725605 M 321.479029,126.348409 l -40.375620,189.952356 M 273.895666,350.210530 l 6.229892,-29.309335 M 329.039243,124.448538 l -46.924406,220.761975 M 279.961391,355.341680 l 1.237260,-5.820851 M 334.533068,132.270265 l -48.810498,229.635339 M 291.242951,369.602390 l 48.404001,-227.722921 M 345.480161,148.104523 l -47.890424,225.306732 M 305.541311,369.670179 l 45.866178,-215.783404 M 304.936469,372.515735 l -1.699912,7.997456 M 358.904884,152.282444 l 0.120475,-0.566793 M 357.455244,159.102467 l -41.939236,197.308592 M 309.026883,386.939993 l 6.205589,-29.195001 M 363.603900,163.843452 l -48.387756,227.646494 M 324.315178,382.350498 l 45.153930,-212.432538 M 324.027982,383.701650 l -0.773336,3.638262 M 328.134545,398.049932 l 47.185585,-221.990725 M 381.083723,182.611776 l -45.997719,216.402254 M 345.590763,383.261162 l 41.215095,-193.901777 M 342.679365,396.958216 l -2.861366,13.461669 M 393.448941,191.774279 l 0.630496,-2.966252 M 392.940607,194.165802 l -3.351048,15.765440 M 386.501000,224.461770 l 2.202958,-10.364101 M 383.310589,239.471475 l -0.839876,3.951304 M 355.189081,371.772767 l 24.588794,-115.681181 M 354.275119,376.072623 l -8.454217,39.773965 M 393.234135,226.453002 l 5.685924,-26.750171 M 384.881835,265.747485 l -16.411847,77.211668 M 363.091732,368.261856 l 0.567068,-2.667844 M 359.416522,385.552361 l -5.895627,27.736743 M 397.792624,238.675138 l 7.687371,-36.166237 M 392.158420,265.181984 l -1.272900,5.988525 M 390.074655,274.985326 l 0.424030,-1.994905 M 386.268929,292.889858 l -0.554497,2.608703 M 383.270553,306.996112 l 2.435496,-11.458107 M 381.596073,314.873919 l -1.230732,5.790141 M 354.640479,441.690015 l 5.706035,-26.844782 M 412.435672,203.453155 l -9.214344,43.350078 M 401.032654,257.100134 l 0.036653,-0.172439 M 396.722925,277.375814 l -1.201794,5.653998 M 390.314591,307.524656 l 3.607453,-16.971731 M 367.242814,416.068834 l -6.041669,28.423816 M 408.034621,257.826609 l 10.526250,-49.522112 M 405.414870,270.151569 l -0.923955,4.346864 M 401.935357,286.521393 l 2.443275,-11.494703 M 376.116368,407.990186 l -8.041194,37.830844 M 407.786454,292.662284 l 16.584107,-78.022091 M 404.655568,307.391947 l -1.735041,8.162728 M 369.710173,471.797103 l 14.191864,-66.767469 M 430.047090,221.602366 l -13.850184,65.159994 M 411.616369,308.312093 l 3.316568,-15.603227 M 390.469206,407.801671 l -18.484106,86.960879 M 423.948670,283.961319 l 11.403775,-53.650544 M 400.646107,393.591256 l -25.363861,119.327583 M 431.835030,280.527051 l 8.232514,-38.730935 M 430.070685,288.827639 l -0.659777,3.104007 M 380.329324,522.842347 l 26.824676,-126.200179 M 443.679324,258.472170 l -1.065633,5.013407 M 439.146733,279.796336 l 3.155532,-14.845613 M 408.859799,422.285156 l -22.141846,104.169196 M 449.283570,265.774407 l 0.128681,-0.605396 M 414.898562,427.543149 l -22.129399,104.110637 M 399.198680,535.073426 l 21.797693,-102.550085 M 425.839534,443.406202 l -20.712729,97.445731 M 422.435094,493.090974 l 8.516995,-40.069312 M 422.194218,494.224207 l -11.976734,56.346105 M 429.814233,492.042997 l 7.585589,-35.687392 M 428.431795,498.546853 l -13.019871,61.253675 M 420.270635,570.610234 l 23.543022,-110.761208 M 480.736635,319.808211 l -2.799183,13.169119 M 440.060786,511.173036 l 10.154726,-47.774229 M 439.418285,514.195763 l -14.174181,66.684281 M 481.746838,348.723719 l 8.334879,-39.212520 M 456.812188,466.032025 l -7.615335,35.827333 M 430.154194,591.448025 l 15.687018,-73.801615 M 496.428799,313.318665 l -6.838396,32.172122 M 486.596078,359.577979 l 0.200845,-0.944900 M 463.455543,468.445640 l -5.266271,24.775856 M 435.027872,602.187317 l 17.395194,-81.837955 M 502.516965,318.344237 l -11.442419,53.832348 M 466.998250,485.446652 l 3.108564,-14.624645 M 461.120632,513.098670 l -21.216176,99.814262 M 498.006224,373.233745 l 10.533920,-49.558198 M 476.756510,473.205788 l -3.155005,14.843129 M 444.720732,623.922276 l 25.240269,-118.746127 M 514.296991,330.259851 l -4.541020,21.363819 M 504.949164,374.237920 l 4.556194,-21.435209 M 483.511220,475.095518 l -3.693730,17.377633 M 473.041454,524.351893 l 5.803669,-27.304117 M 471.316399,532.467640 l -7.515420,35.357271 M 449.643901,634.428727 l 8.793294,-41.369197 M 517.321541,349.698601 l -1.059796,4.985950 M 511.716046,376.070384 l 3.372316,-15.865498 M 494.528212,456.932785 l -0.706098,3.321931 M 482.564162,513.219216 l 7.638575,-35.936672 M 481.281255,519.254818 l -2.207751,10.386654 M 470.995961,567.643323 l 6.583815,-30.974416 M 460.331538,617.815486 l -5.567434,26.192720 M 518.001182,380.169286 l 1.561038,-7.344106 M 496.861442,479.623942 l -7.863686,36.995734 M 479.029469,563.516781 l 8.017494,-37.719341 M 463.484991,636.647800 l -3.094095,14.556571 M 524.034796,385.451504 l 0.552117,-2.597504 M 523.256392,389.113604 l -0.187623,0.882696 M 498.884473,503.774469 l 4.721213,-22.211561 M 497.438029,510.579453 l -9.641911,45.361626 M 466.152142,657.767977 l 2.179145,-10.252073 M 510.402825,483.253023 l -2.238705,10.532280 M 505.468538,506.467020 l 1.834195,-8.629208 M 503.587709,515.315625 l -7.449006,35.044818 M 471.308939,667.175297 l 1.932349,-9.090987 M 517.260391,484.658854 l -1.692621,7.963154 M 511.816770,510.269078 l 1.810994,-8.520058 M 510.227461,517.746186 l -5.459906,25.686838 M 476.365743,677.053047 l 1.828378,-8.601840 M 524.157260,485.879774 l -1.306625,6.147188 M 512.168653,542.281736 l 7.684733,-36.153826 M 483.394655,677.652756 l -1.690399,7.952702 M 530.059173,491.781601 l 1.005451,-4.730276 M 526.219102,509.847714 l -6.627088,31.177998 M 487.125407,693.769087 l 1.538610,-7.238593 M 538.024508,487.975783 l -0.805543,3.789783 M 528.773150,531.500000 l 3.816814,-17.956699 M 493.861314,695.747275 l -1.285212,6.046446 M 544.353172,491.869904 l 0.659824,-3.104227 M 542.952309,498.460446 l -0.486854,2.290467 M 535.929535,531.500000 l 2.941279,-13.837630 M 499.156521,704.503426 l -1.105375,5.200379 M 551.434227,492.224299 l 0.625246,-2.941549 M 550.487804,496.676867 l -0.883431,4.156217 M 543.123561,531.322909 l 1.998241,-9.400984 M 504.397991,713.512387 l -0.828422,3.897419 M 558.430595,492.977113 l 0.683547,-3.215836 M 558.039502,494.817063 l -1.200767,5.649165 M 564.175454,499.617820 l 2.019432,-9.500682 M 573.307603,490.322575 l -1.610290,7.575818 M 579.103810,496.721707 l 1.316510,-6.193694 M 587.665420,490.110639 l -1.178171,5.542859 M 593.876177,494.559463 l 1.171947,-5.513577 M 602.435493,487.959188 l -1.168717,5.498380 M 608.674346,492.275831 l 1.135233,-5.340851 M 617.174250,485.955072 l -1.049041,4.935349 M 623.576071,489.505011 l 1.006480,-4.735115 M 632.017817,483.457858 l -0.940106,4.422850 M 638.593208,486.191217 l 0.859876,-4.045398 M 646.881938,480.863947 l -0.724656,3.409236 M 653.861908,481.693909 l 0.426032,-2.004324"
       id="path11" />
  </g>
  <g
     inkscape:label="fill-6b6b6b"
     inkscape:groupmode="layer"
     id="fill-6b6b6b">
    <path
       style="stroke:#6b6b6b"
       d="M 82.210031,124.465692 l -1.124656,10.700390 M 88.847152,147.418649 l 1.686627,-16.047184 M 98.650090,140.250876 l -1.913508,18.205813 M 104.334842,172.265030 l 2.572740,-24.477984 M 115.155938,155.410123 l -2.819327,26.824109 M 120.347334,192.118241 l 3.084138,-29.343615 M 131.724272,169.974854 l -0.869295,8.270790 M 127.813339,207.184902 l 2.832682,-26.951171 M 140.034064,177.013420 l -0.726376,6.911002 M 135.642294,218.798317 l 3.417092,-32.511454 M 148.370185,183.801477 l -0.688436,6.550036 M 143.752785,227.733097 l 3.778355,-35.948649 M 156.692531,190.720587 l -0.489114,4.653611 M 155.028156,206.556061 l 0.962045,-9.153246 M 154.892632,207.845489 l -3.557571,33.848022 M 181.137227,44.245792 l 1.571247,-14.949416 M 178.667579,67.742924 l -1.783512,16.968984 M 163.630287,210.813205 l 1.360174,-12.941189 M 163.398442,213.019056 l -4.061141,38.639179 M 189.003729,55.501977 l 2.458181,-23.388030 M 187.084068,73.766331 l -2.320312,22.076292 M 180.644057,135.038945 l 1.677927,-15.964411 M 172.930944,208.424308 l -0.734789,6.991049 M 167.554254,259.580103 l 4.390707,-41.774787 M 203.206121,6.476196 l -0.334489,3.182450 M 197.040280,65.140257 l 2.891266,-27.508561 M 195.561782,79.207218 l -2.616740,24.896617 M 188.857759,142.991736 l 2.124917,-20.217237 M 187.085756,159.851226 l -1.477526,14.057721 M 180.765184,219.987450 l 0.635250,-6.043997 M 180.515460,222.363413 l -1.163736,11.072211 M 175.475206,270.318226 l 3.712009,-35.317408 M 212.193635,7.066665 l -1.972530,18.767373 M 205.121377,74.354698 l 3.149378,-29.964333 M 204.275133,82.406171 l -3.022952,28.761470 M 197.250243,149.243539 l 2.420730,-23.031710 M 195.862798,162.444195 l -2.211531,21.041312 M 189.310534,224.784827 l 0.497042,-4.729040 M 189.124314,226.556590 l -0.996584,9.481864 M 183.721256,277.963252 l 4.064869,-38.674646 M 220.794725,11.333710 l -2.617206,24.901050 M 209.639265,117.470822 l 7.036430,-66.947158 M 208.509055,128.224048 l -2.759561,26.255473 M 201.984824,190.297960 l 2.704455,-25.731173 M 200.858031,201.018683 l -1.123485,10.689248 M 196.820148,239.436571 l 0.886072,-8.430416 M 196.457678,242.885238 l -4.320317,41.105073 M 226.236553,45.659121 l 2.956865,-28.132692 M 225.166528,55.839734 l -7.017846,66.770344 M 214.194445,160.232124 l 3.357878,-31.948073 M 213.874304,163.278059 l -6.518407,62.018497 M 205.510461,242.854715 l 0.757332,-7.205536 M 205.179844,246.000324 l -4.769167,45.375590 M 234.284745,55.186638 l 3.202340,-30.468229 M 233.793582,59.859738 l -3.275110,31.160587 M 226.747753,126.896327 l 3.586207,-34.120481 M 226.458253,129.650733 l -13.492584,128.373357 M 208.485614,300.648976 l 4.125585,-39.252316 M 245.731838,32.375770 l -23.986299,228.214387 M 216.871410,306.964403 l 4.538330,-43.179322 M 253.948410,40.301266 l -24.729411,235.284627 M 225.334934,312.540302 l 3.553271,-33.807113 M 262.129854,48.560979 l -28.445469,270.640558 M 241.902633,327.111073 l 28.405305,-270.258427 M 278.467454,65.320993 l -28.193964,268.247653 M 258.575038,340.685636 l 28.051931,-266.896296 M 294.786485,82.257687 l -27.843245,264.910777 M 275.297740,353.781656 l 27.648260,-263.055622 M 311.103697,99.211685 l -27.564047,262.254391 M 291.609951,370.783237 l 27.646060,-263.034689 M 327.408325,116.285411 l -27.416423,260.849840 M 308.021345,386.841157 l 27.539294,-262.018882 M 343.712953,133.359138 l -27.280490,259.556524 M 325.036346,397.156131 l 26.828921,-255.260129 M 360.006935,150.534151 l -26.444903,251.606448 M 332.041212,416.610238 l 0.128763,-1.225103 M 368.140207,159.252188 l -27.536887,261.995982 M 349.915799,418.746797 l 26.357680,-250.776572 M 384.396157,176.789057 l -18.745132,178.348013 M 363.399949,376.554632 l 1.565346,-14.893275 M 362.251035,387.485822 l -1.288041,12.254889 M 356.247772,444.603053 l 3.612971,-34.375119 M 392.486259,185.917832 l -15.216475,144.775084 M 365.219051,445.347983 l 3.403765,-32.384665 M 400.590935,194.907942 l -13.546613,128.887410 M 370.072358,485.272799 l 8.671104,-82.500040 M 408.835603,202.566108 l -12.507943,119.005124 M 394.612012,337.894541 l 0.638180,-6.071879 M 388.687218,394.265191 l -0.467330,4.446346 M 375.828906,516.603859 l 11.631787,-110.669063 M 417.427699,206.918728 l -12.215363,116.221413 M 398.965159,382.578067 l 0.363187,-3.455489 M 397.920247,392.519740 l -13.954153,132.764893 M 415.878778,307.756678 l 9.716780,-92.448987 M 415.773396,308.759321 l -0.403858,3.842450 M 409.203807,371.264781 l 0.642938,-6.117151 M 408.338647,379.496234 l -0.669376,6.368692 M 392.318515,531.917611 l 14.418766,-137.185392 M 433.536368,225.856887 l -7.455629,70.935567 M 413.243973,418.926120 l 0.441062,-4.196423 M 412.721241,423.899587 l -11.822641,112.484914 M 436.449340,284.242751 l 4.399186,-41.855459 M 436.190643,286.704094 l -0.250589,2.384192 M 408.636638,548.862943 l 12.674570,-120.590479 M 448.056459,259.909347 l -0.760800,7.238530 M 445.989699,279.573248 l 1.026703,-9.768426 M 428.624968,444.787631 l -12.476583,118.706753 M 452.936091,299.583701 l 0.674896,-6.421211 M 436.601633,454.995681 l -12.981883,123.514368 M 460.723881,311.588777 l 0.934734,-8.893397 M 445.128218,459.971595 l -14.103060,134.181649 M 438.348405,610.578156 l 15.387234,-146.399757 M 478.626411,313.459481 l -1.887669,17.959967 M 445.668715,627.031015 l 16.785519,-159.703549 M 488.222601,308.258781 l -4.958976,47.181504 M 453.100914,642.419308 l 18.075530,-171.977184 M 496.868521,312.099299 l -6.392710,60.822573 M 474.262036,527.185632 l 5.636865,-53.631189 M 473.604218,533.444360 l -3.687328,35.082584 M 460.985103,653.507214 l 2.159032,-20.541814 M 505.199018,318.940865 l -5.788434,55.073274 M 489.786093,465.585054 l 0.795087,-7.564747 M 488.701753,475.901851 l -4.156915,39.550400 M 479.388404,564.512449 l 4.587512,-43.647262 M 470.308625,650.900782 l -1.566832,14.907415 M 508.298314,375.553982 l 5.005947,-47.628406 M 500.024195,454.276962 l -0.648039,6.165684 M 494.838428,503.616247 l 2.525443,-24.027987 M 494.477142,507.053646 l -1.691843,16.096809 M 489.351757,555.818429 l 3.315439,-31.544293 M 477.714847,666.536233 l -1.304311,12.409690 M 516.914480,379.677590 l 1.240158,-11.799312 M 506.188444,481.729004 l -2.606969,24.803654 M 498.929751,550.790853 l 3.862423,-36.748498 M 485.347439,680.017923 l -1.099349,10.459603 M 524.622836,392.438426 l 1.009264,-9.602504 M 515.041768,483.596208 l -1.024146,9.744103 M 511.954790,512.966836 l 1.285321,-12.229017 M 511.694566,515.442698 l -2.902822,27.618504 M 492.047518,702.371879 l 0.976249,-9.288391 M 523.907358,485.346696 l -0.755828,7.191219 M 517.937266,542.148329 l 3.764081,-35.812843 M 500.714642,706.010647 l -0.809500,7.701881 M 532.229117,492.271399 l 0.579250,-5.511197 M 530.217224,511.413280 l -2.113348,20.107166 M 508.000434,722.791922 l 0.403043,-3.834700 M 541.712722,488.141874 l -0.441366,4.199318 M 540.330099,501.296657 l 0.317468,-3.020504 M 538.682475,516.972748 l -1.561115,14.853013 M 550.267696,492.847687 l 0.400944,-3.814727 M 549.948016,495.889241 l -0.602147,5.729044 M 546.165742,531.875176 l 0.990743,-9.426289 M 559.676833,489.426676 l -1.214799,11.558039 M 567.721076,498.991770 l 0.966307,-9.193801 M 577.660979,490.520856 l -0.712081,6.775000 M 586.135749,495.989760 l 0.666613,-6.342395 M 595.986098,488.370896 l -0.664454,6.321860 M 604.513728,493.336871 l 0.656107,-6.242444 M 614.359056,485.765780 l -0.631402,6.007388 M 622.963609,489.999878 l 0.586154,-5.576883 M 632.763874,482.857536 l -0.545900,5.193893 M 641.496877,485.869511 l 0.481462,-4.580808 M 651.197747,479.672847 l -0.380661,3.621744 M 660.273703,479.421841 l 0.114393,-1.088375"
       id="path14" />
  </g>
  <g
     inkscape:label="fill-8f8f8f"
     inkscape:groupmode="layer"
     id="fill-8f8f8f">
    <path
       style="stroke:#8f8f8f"
       d="M 80.842593,122.227698 l 0.822384,15.692027 M 94.665551,156.697586 l -1.273453,-24.298933 M 106.041100,144.468114 l 1.771811,33.808177 M 120.774072,196.302111 l -2.091390,-39.906089 M 131.283290,167.542057 l 2.609287,49.788162 M 146.947361,237.142461 l -3.081474,-58.798018 M 156.380553,187.850614 l 3.441681,65.671178 M 172.572738,267.528036 l -3.610749,-68.897186 M 173.896968,63.507978 l 1.035629,19.760973 M 177.497804,132.216033 l -0.836584,-15.962974 M 181.552521,209.584643 l 3.698589,70.573290 M 185.278299,51.388838 l -1.200364,-22.904302 M 186.354574,71.925392 l 1.513223,28.874014 M 190.223923,145.756968 l -1.314955,-25.090829 M 190.961756,159.835675 l 1.270729,24.246956 M 197.793435,290.191861 l -3.643101,-69.514515 M 196.403149,34.375762 l 1.773078,33.832336 M 200.457007,111.727977 l -1.706913,-32.569839 M 201.168870,125.311140 l 1.519464,28.993093 M 210.499501,303.350177 l -7.341230,-140.079013 M 206.884191,5.078090 l 0.948923,18.106524 M 222.964738,311.913201 l -14.043133,-267.958931 M 219.131107,9.475294 l 1.648899,31.462874 M 235.539003,322.556591 l -14.144853,-269.899868 M 231.627600,18.634701 l 16.500935,314.856602 M 260.673826,343.581853 l -16.440740,-313.707998 M 256.890884,42.111141 l 16.303662,311.092411 M 285.855211,365.495551 l -16.280502,-310.650490 M 282.281880,68.024469 l 16.240246,309.882359 M 311.206646,390.654000 l -16.213578,-309.373493 M 307.704256,94.536545 l 15.853656,302.505784 M 323.880618,403.199928 l -0.153087,-2.921078 M 320.418423,107.849444 l 15.602678,297.716832 M 337.024986,424.721539 l -0.251036,-4.790060 M 333.133449,121.178713 l 15.772737,300.961746 M 362.311630,448.643707 l -16.463156,-314.135724 M 358.568306,147.928957 l 11.990855,228.799152 M 378.161509,521.789542 l -6.209974,-118.493363 M 371.300777,161.591103 l 9.208275,175.704356 M 380.745767,341.812248 l -0.114463,-2.184086 M 381.089853,348.377803 l 0.336204,6.415159 M 381.758899,361.143956 l -0.047004,-0.896888 M 383.268272,389.944513 l 7.395303,141.110794 M 391.892274,325.212411 l -7.851515,-149.815825 M 392.280008,332.610813 l 0.912538,17.412262 M 395.021544,384.922435 l -0.853002,-16.276242 M 395.377917,391.722433 l 7.748820,147.856291 M 404.155015,329.911564 l -7.359874,-140.434759 M 406.134540,367.683151 l 0.363143,6.929179 M 408.568769,414.131008 l -1.897230,-36.201309 M 408.811967,418.771499 l 7.666408,146.283783 M 415.645035,319.866348 l -6.261828,-119.482799 M 419.764351,398.467564 l 0.239379,4.567632 M 429.940813,592.646028 l -8.693273,-165.877535 M 421.937948,210.654401 l 5.138626,98.050829 M 443.583473,623.675615 l -8.952446,-170.822849 M 434.797606,226.743424 l 3.296402,62.899099 M 456.942261,649.288615 l -9.903153,-188.963411 M 448.541183,259.698618 l 2.088998,39.860451 M 464.845163,570.797102 l -5.516787,-105.266574 M 468.770142,645.690158 l 1.251874,23.887186 M 463.493193,315.712106 l -0.756592,-14.436633 M 471.569521,469.817608 l 3.113380,59.406827 M 476.645837,566.679488 l -1.776727,-33.901973 M 482.258156,673.768922 l 0.860817,16.425375 M 476.407366,332.841324 l -1.550082,-29.577321 M 483.779167,473.503680 l 2.291796,43.730081 M 488.189021,557.648699 l -1.882035,-35.911361 M 495.443411,696.070698 l 0.682960,13.031650 M 490.558167,373.566823 l -3.528693,-67.331479 M 494.677237,452.163367 l 0.485662,9.266982 M 497.440240,504.884594 l -1.384528,-26.418367 M 497.618508,508.286152 l 2.262320,43.167631 M 509.043829,726.294271 l -0.423934,-8.089139 M 499.416421,313.304516 l 3.231204,61.655042 M 506.916726,456.418854 l -0.125518,-2.395031 M 508.239197,481.653105 l 0.708041,13.510223 M 509.763506,510.738655 l -0.730110,-13.931328 M 510.033129,515.883360 l 1.455584,27.774206 M 514.852107,378.547078 l -2.791903,-53.272692 M 520.389449,484.205857 l 0.492612,9.399596 M 523.356300,540.816743 l -1.873340,-35.745465 M 527.217630,385.207428 l 0.554020,10.571326 M 532.890869,493.459276 l -0.375086,-7.157068 M 533.923173,513.156814 l 0.997529,19.033996 M 544.968980,494.635502 l -0.363603,-6.937961 M 545.015508,495.523307 l 0.327018,6.239868 M 546.961974,532.664087 l -0.600227,-11.453007 M 556.667596,488.570516 l 0.667113,12.729279 M 569.240386,499.185766 l -0.520559,-9.932863 M 580.759124,489.688521 l 0.394855,7.534274 M 593.076794,495.435780 l -0.367284,-7.008194 M 604.637623,486.741667 l 0.359786,6.865118 M 616.905623,491.541198 l -0.341014,-6.506929 M 628.486700,483.233439 l 0.316667,6.042367 M 640.670075,486.418206 l -0.272694,-5.203311 M 652.301244,479.066267 l 0.207191,3.953441 M 664.266576,478.090527 l -0.044900,-0.856750"
       id="path17" />
  </g>
  <g
     inkscape:label="fill-afafaf"
     inkscape:groupmode="layer"
     id="fill-afafaf">
    <path
       style="stroke:#afafaf"
       d="M 75.337170,120.831310 l 2.123748,12.044373 M 96.970491,162.897185 l -6.010831,-34.089117 M 108.077326,145.264389 l 7.586783,43.026786 M 135.668475,221.118784 l -10.642209,-60.354967 M 141.760555,175.045898 l 13.192275,74.817110 M 172.565741,269.128003 l -14.350695,-81.386836 M 174.956625,202.064592 l 14.423713,81.800943 M 177.098420,133.588528 l -3.192406,-18.105037 M 181.359564,157.754680 l 3.339597,18.939797 M 206.655701,301.216198 l -15.345738,-87.030002 M 179.355522,65.766402 l 5.878066,33.336169 M 194.108759,149.436168 l -5.285238,-29.974076 M 196.031108,160.338352 l 5.679715,32.211265 M 222.957125,313.043384 l -20.252327,-114.856656 M 186.991601,28.449976 l 6.197677,35.148774 M 202.158881,114.467891 l -6.583748,-37.338290 M 204.133613,125.667157 l 35.575377,201.757987 M 256.392143,341.417217 l -53.449308,-303.126091 M 211.256581,4.817941 l 5.832453,33.077486 M 272.901721,354.424902 l -53.564320,-303.778354 M 227.113883,14.126383 l 62.907987,356.768923 M 307.170167,387.525346 l -63.312046,-359.060455 M 261.029161,45.223910 l 63.540369,360.355339 M 343.237721,430.829031 l -64.861089,-367.845513 M 295.791931,81.127799 l 65.187408,369.696162 M 389.288584,530.750880 l -76.076817,-431.453069 M 330.653766,117.593520 l 46.204813,262.040514 M 406.300999,546.610296 l -27.870264,-158.060119 M 348.095766,135.889228 l 80.260853,455.181915 M 404.731606,376.464254 l -39.148156,-222.020223 M 404.786919,376.777946 l 46.393526,263.110761 M 413.259795,344.207229 l -30.080194,-170.593255 M 415.700140,358.047110 l 1.707560,9.684052 M 418.819099,375.735605 l -0.108317,-0.614294 M 421.772522,392.485300 l 3.086996,17.507222 M 426.401177,418.735711 l -0.872435,-4.947822 M 427.344504,424.085580 l 2.622189,14.871171 M 462.325509,622.472722 l -31.720543,-179.896140 M 463.612112,629.769405 l 7.596259,43.080526 M 425.641629,333.805311 l -24.887630,-141.144764 M 435.438347,389.365257 l 0.528454,2.997011 M 467.426690,570.780169 l -19.567491,-110.972755 M 486.765456,680.455759 l 3.904258,22.142148 M 433.750652,299.171078 l -16.542553,-93.817478 M 463.128445,465.780821 l 17.606367,99.850667 M 509.303249,727.651151 l -2.501617,-14.187375 M 435.060594,225.977344 l 13.741901,77.934194 M 476.697356,462.111153 l -0.277235,-1.572280 M 478.428787,471.930587 l 14.709508,83.421765 M 466.284630,322.434866 l -3.860505,-21.894011 M 488.916828,450.788434 l 2.748430,15.587119 M 505.971943,547.512802 l -12.409436,-70.377409 M 477.010546,302.641770 l 12.617664,71.558328 M 505.572030,464.621995 l -2.234532,-12.672661 M 508.488342,481.161219 l 10.901036,61.822845 M 504.137906,375.865884 l -11.992242,-68.011382 M 518.218074,455.718488 l 0.516374,2.928503 M 525.422863,496.578877 l -2.188547,-12.411869 M 527.509461,508.412560 l 4.262293,24.172666 M 521.074443,391.294971 l -12.527687,-71.048046 M 537.876046,486.581597 l 2.775489,15.740581 M 546.034793,532.852154 l -2.511178,-14.241596 M 552.334961,487.959394 l 2.491257,14.128618 M 568.664738,499.947374 l -1.994136,-11.309307 M 580.880623,488.604313 l 1.580415,8.962978 M 596.315857,495.519090 l -1.444833,-8.194053 M 608.768045,485.516169 l 1.388388,7.873937 M 623.908587,490.759662 l -1.273881,-7.224539 M 636.442351,481.219383 l 1.137205,6.449411 M 651.136225,483.929699 l -0.892740,-5.062978 M 664.073307,476.676748 l 0.403589,2.288868"
       id="path20" />
  </g>
  <g
     inkscape:label="fill-d1d1d1"
     inkscape:groupmode="layer"
     id="fill-d1d1d1">
    <path
       style="stroke:#d1d1d1"
       d="M 75.141414,115.720930 l 9.991114,30.749486 M 118.103067,196.166215 l -20.315745,-62.525432 M 122.047929,156.530165 l 29.492601,90.768894 M 177.969951,276.863364 l -32.838028,-101.065059 M 167.902782,194.102714 l 33.225074,102.256265 M 224.287103,315.858725 l -35.099116,-108.023971 M 175.388912,113.588479 l 9.712698,29.892610 M 201.472973,193.866963 l -11.902099,-36.630893 M 202.340832,196.537958 l 45.332354,139.518640 M 189.273617,104.544120 l -14.044489,-43.224491 M 194.578439,120.870683 l 75.849360,233.440326 M 193.535145,65.882665 l -13.112361,-40.355697 M 196.873467,76.156964 l 97.525303,300.152021 M 320.251843,404.099472 l -119.947196,-369.159512 M 206.648852,2.688329 l 13.048707,40.159790 M 347.849004,437.257713 l -125.542654,-386.380560 M 351.959187,449.907557 l 2.270346,6.987405 M 396.990314,536.722027 l -170.553288,-524.909047 M 249.994389,32.538003 l 192.123007,591.293814 M 480.070685,688.862941 l -204.854676,-630.477865 M 300.564330,84.622100 l 162.058695,498.765376 M 511.299904,733.199507 l -9.762213,-30.045001 M 326.045599,111.268296 l 148.825093,458.036539 M 441.385772,414.471759 l -89.700224,-276.068904 M 442.923406,419.204109 l 45.730460,140.743885 M 451.440281,393.639268 l -74.068110,-227.958204 M 452.325864,396.364813 l 4.554686,14.017881 M 460.877850,422.685121 l -1.644292,-5.060610 M 472.845361,459.517330 l 30.120783,92.702239 M 442.572320,314.569402 l -39.067954,-120.238799 M 443.311071,316.843046 l 1.516351,4.666848 M 470.613841,400.872331 l -21.733412,-66.888564 M 486.881964,450.940464 l 5.908239,18.183689 M 517.246595,544.393191 l -21.977976,-67.641255 M 426.584319,213.586308 l 34.799197,107.100914 M 464.636875,330.700034 l -0.662725,-2.039657 M 503.469398,450.214249 l 5.436310,16.731242 M 530.830978,534.424535 l -17.255036,-53.105539 M 471.490269,300.015523 l 24.518470,75.460092 M 523.973091,461.541042 l -1.959527,-6.030804 M 531.471458,484.618641 l 6.218557,19.138750 M 547.478820,533.884235 l -5.732791,-17.643717 M 489.995083,305.190399 l 24.306990,74.809224 M 554.301936,503.106541 l -5.293009,-16.290205 M 512.716040,323.341225 l 7.609662,23.420132 M 570.190177,500.228430 l -4.024537,-12.386250 M 582.856137,487.433161 l 3.374870,10.386783 M 602.281548,495.441340 l -3.105533,-9.557848 M 615.318071,483.786544 l 2.874349,8.846336 M 633.930783,489.293494 l -2.591660,-7.976310 M 647.276646,478.590749 l 2.191596,6.745039 M 664.582281,480.074930 l -1.372445,-4.223953"
       id="path23" />
  </g>
</svg>
